<?xml version="1.0" encoding="UTF-8" standalone="no"?>
<!DOCTYPE svg PUBLIC "-//W3C//DTD SVG 1.1//EN"
 "http://www.w3.org/Graphics/SVG/1.1/DTD/svg11.dtd">
<!-- Generated by graphviz version 2.43.0 (0)
 -->
<!-- Title: SimulateurFerroviaire/Engine/HMI/Dialogs/ParserSettingsDialog.h Pages: 1 -->
<svg width="266pt" height="115pt"
 viewBox="0.00 0.00 265.50 115.00" xmlns="http://www.w3.org/2000/svg" xmlns:xlink="http://www.w3.org/1999/xlink">
<g id="graph0" class="graph" transform="scale(1 1) rotate(0) translate(4 111)">
<title>SimulateurFerroviaire/Engine/HMI/Dialogs/ParserSettingsDialog.h</title>
<!-- Node1 -->
<g id="Node000001" class="node">
<title>Node1</title>
<g id="a_Node000001"><a xlink:title="Dialogue modal Win32 de configuration du pipeline GeoParser.">
<polygon fill="#999999" stroke="#666666" points="190,-107 2,-107 2,-66 190,-66 190,-107"/>
<text text-anchor="start" x="10" y="-95" font-family="Helvetica,sans-Serif" font-size="10.00">SimulateurFerroviaire</text>
<text text-anchor="start" x="10" y="-84" font-family="Helvetica,sans-Serif" font-size="10.00">/Engine/HMI/Dialogs/ParserSettings</text>
<text text-anchor="middle" x="96" y="-73" font-family="Helvetica,sans-Serif" font-size="10.00">Dialog.h</text>
</a>
</g>
</g>
<!-- Node2 -->
<g id="Node000002" class="node">
<title>Node2</title>
<g id="a_Node000002"><a xlink:title=" ">
<polygon fill="#e0e0e0" stroke="#999999" points="44,-24.5 0,-24.5 0,-5.5 44,-5.5 44,-24.5"/>
<text text-anchor="middle" x="22" y="-12.5" font-family="Helvetica,sans-Serif" font-size="10.00">string</text>
</a>
</g>
</g>
<!-- Node1&#45;&gt;Node2 -->
<g id="edge1_Node000001_Node000002" class="edge">
<title>Node1&#45;&gt;Node2</title>
<g id="a_edge1_Node000001_Node000002"><a xlink:title=" ">
<path fill="none" stroke="#63b8ff" d="M74.99,-65.77C63.55,-55.02 49.58,-41.91 38.86,-31.84"/>
<polygon fill="#63b8ff" stroke="#63b8ff" points="41.08,-29.11 31.39,-24.82 36.28,-34.22 41.08,-29.11"/>
</a>
</g>
</g>
<!-- Node3 -->
<g id="Node000003" class="node">
<title>Node3</title>
<g id="a_Node000003"><a xlink:title=" ">
<polygon fill="#e0e0e0" stroke="#999999" points="130,-24.5 62,-24.5 62,-5.5 130,-5.5 130,-24.5"/>
<text text-anchor="middle" x="96" y="-12.5" font-family="Helvetica,sans-Serif" font-size="10.00">windows.h</text>
</a>
</g>
</g>
<!-- Node1&#45;&gt;Node3 -->
<g id="edge2_Node000001_Node000003" class="edge">
<title>Node1&#45;&gt;Node3</title>
<g id="a_edge2_Node000001_Node000003"><a xlink:title=" ">
<path fill="none" stroke="#63b8ff" d="M96,-65.77C96,-56.08 96,-44.46 96,-34.88"/>
<polygon fill="#63b8ff" stroke="#63b8ff" points="99.5,-34.82 96,-24.82 92.5,-34.82 99.5,-34.82"/>
</a>
</g>
</g>
<!-- Node4 -->
<g id="Node000004" class="node">
<title>Node4</title>
<g id="a_Node000004"><a xlink:href="../../d9/d01/ParserConfig_8h.html" target="_top" xlink:title="Paramètres de configuration du pipeline GeoParser.">
<polygon fill="white" stroke="#666666" points="257.5,-30 148.5,-30 148.5,0 257.5,0 257.5,-30"/>
<text text-anchor="start" x="156.5" y="-18" font-family="Helvetica,sans-Serif" font-size="10.00">Engine/Core/Config</text>
<text text-anchor="middle" x="203" y="-7" font-family="Helvetica,sans-Serif" font-size="10.00">/ParserConfig.h</text>
</a>
</g>
</g>
<!-- Node1&#45;&gt;Node4 -->
<g id="edge3_Node000001_Node000004" class="edge">
<title>Node1&#45;&gt;Node4</title>
<g id="a_edge3_Node000001_Node000004"><a xlink:title=" ">
<path fill="none" stroke="#63b8ff" d="M126.09,-65.96C140.63,-56.51 158.04,-45.2 172.61,-35.74"/>
<polygon fill="#63b8ff" stroke="#63b8ff" points="174.79,-38.5 181.27,-30.11 170.98,-32.62 174.79,-38.5"/>
</a>
</g>
</g>
</g>
</svg>
