<?xml version="1.0" encoding="UTF-8" standalone="no"?>
<!DOCTYPE svg PUBLIC "-//W3C//DTD SVG 1.1//EN"
 "http://www.w3.org/Graphics/SVG/1.1/DTD/svg11.dtd">
<!-- Generated by graphviz version 2.43.0 (0)
 -->
<!-- Title: SimulateurFerroviaire/Modules/PCC/PCCSwitchNode.cpp Pages: 1 -->
<svg width="1029pt" height="401pt"
 viewBox="0.00 0.00 1029.00 401.00" xmlns="http://www.w3.org/2000/svg" xmlns:xlink="http://www.w3.org/1999/xlink">
<g id="graph0" class="graph" transform="scale(1 1) rotate(0) translate(4 397)">
<title>SimulateurFerroviaire/Modules/PCC/PCCSwitchNode.cpp</title>
<!-- Node1 -->
<g id="Node000001" class="node">
<title>Node1</title>
<g id="a_Node000001"><a xlink:title="Implémentation du nœud PCC pour aiguillage.">
<polygon fill="#999999" stroke="#666666" points="559,-393 375,-393 375,-363 559,-363 559,-393"/>
<text text-anchor="start" x="383" y="-381" font-family="Helvetica,sans-Serif" font-size="10.00">SimulateurFerroviaire</text>
<text text-anchor="middle" x="467" y="-370" font-family="Helvetica,sans-Serif" font-size="10.00">/Modules/PCC/PCCSwitchNode.cpp</text>
</a>
</g>
</g>
<!-- Node2 -->
<g id="Node000002" class="node">
<title>Node2</title>
<g id="a_Node000002"><a xlink:href="../../dc/d01/PCCSwitchNode_8h.html" target="_top" xlink:title="Nœud PCC représentant un SwitchBlock.">
<polygon fill="white" stroke="#666666" points="467.5,-327 364.5,-327 364.5,-308 467.5,-308 467.5,-327"/>
<text text-anchor="middle" x="416" y="-315" font-family="Helvetica,sans-Serif" font-size="10.00">PCCSwitchNode.h</text>
</a>
</g>
</g>
<!-- Node1&#45;&gt;Node2 -->
<g id="edge1_Node000001_Node000002" class="edge">
<title>Node1&#45;&gt;Node2</title>
<g id="a_edge1_Node000001_Node000002"><a xlink:title=" ">
<path fill="none" stroke="#63b8ff" d="M454.65,-362.84C447.33,-354.43 438,-343.74 430.35,-334.96"/>
<polygon fill="#63b8ff" stroke="#63b8ff" points="432.85,-332.5 423.64,-327.27 427.58,-337.1 432.85,-332.5"/>
</a>
</g>
</g>
<!-- Node21 -->
<g id="Node000021" class="node">
<title>Node21</title>
<g id="a_Node000021"><a xlink:title=" ">
<polygon fill="#e0e0e0" stroke="#999999" points="550.5,-327 485.5,-327 485.5,-308 550.5,-308 550.5,-327"/>
<text text-anchor="middle" x="518" y="-315" font-family="Helvetica,sans-Serif" font-size="10.00">stdexcept</text>
</a>
</g>
</g>
<!-- Node1&#45;&gt;Node21 -->
<g id="edge28_Node000001_Node000021" class="edge">
<title>Node1&#45;&gt;Node21</title>
<g id="a_edge28_Node000001_Node000021"><a xlink:title=" ">
<path fill="none" stroke="#63b8ff" d="M479.35,-362.84C486.67,-354.43 496,-343.74 503.65,-334.96"/>
<polygon fill="#63b8ff" stroke="#63b8ff" points="506.42,-337.1 510.36,-327.27 501.15,-332.5 506.42,-337.1"/>
</a>
</g>
</g>
<!-- Node3 -->
<g id="Node000003" class="node">
<title>Node3</title>
<g id="a_Node000003"><a xlink:href="../../d6/d01/PCCNode_8h.html" target="_top" xlink:title="Nœud abstrait du graphe PCC représentant un bloc ferroviaire.">
<polygon fill="white" stroke="#666666" points="310.5,-266.5 239.5,-266.5 239.5,-247.5 310.5,-247.5 310.5,-266.5"/>
<text text-anchor="middle" x="275" y="-254.5" font-family="Helvetica,sans-Serif" font-size="10.00">PCCNode.h</text>
</a>
</g>
</g>
<!-- Node2&#45;&gt;Node3 -->
<g id="edge2_Node000002_Node000003" class="edge">
<title>Node2&#45;&gt;Node3</title>
<g id="a_edge2_Node000002_Node000003"><a xlink:title=" ">
<path fill="none" stroke="#63b8ff" d="M395.5,-307.99C371.69,-298.12 332.21,-281.73 304.96,-270.43"/>
<polygon fill="#63b8ff" stroke="#63b8ff" points="306.11,-267.12 295.53,-266.52 303.42,-273.58 306.11,-267.12"/>
</a>
</g>
</g>
<!-- Node16 -->
<g id="Node000016" class="node">
<title>Node16</title>
<g id="a_Node000016"><a xlink:href="../../dc/d01/SwitchBlock_8h.html" target="_top" xlink:title="Modèle de domaine d&#39;un aiguillage ferroviaire à 3 branches.">
<polygon fill="white" stroke="#666666" points="660,-272 508,-272 508,-242 660,-242 660,-272"/>
<text text-anchor="start" x="516" y="-260" font-family="Helvetica,sans-Serif" font-size="10.00">Modules/Elements/Shunting</text>
<text text-anchor="middle" x="584" y="-249" font-family="Helvetica,sans-Serif" font-size="10.00">Elements/SwitchBlock.h</text>
</a>
</g>
</g>
<!-- Node2&#45;&gt;Node16 -->
<g id="edge19_Node000002_Node000016" class="edge">
<title>Node2&#45;&gt;Node16</title>
<g id="a_edge19_Node000002_Node000016"><a xlink:title=" ">
<path fill="none" stroke="#63b8ff" d="M440.43,-307.99C464.82,-299.5 503.01,-286.2 533.87,-275.45"/>
<polygon fill="#63b8ff" stroke="#63b8ff" points="535.32,-278.66 543.61,-272.06 533.02,-272.05 535.32,-278.66"/>
</a>
</g>
</g>
<!-- Node4 -->
<g id="Node000004" class="node">
<title>Node4</title>
<g id="a_Node000004"><a xlink:title=" ">
<polygon fill="#e0e0e0" stroke="#999999" points="418,-19 374,-19 374,0 418,0 418,-19"/>
<text text-anchor="middle" x="396" y="-7" font-family="Helvetica,sans-Serif" font-size="10.00">string</text>
</a>
</g>
</g>
<!-- Node3&#45;&gt;Node4 -->
<g id="edge3_Node000003_Node000004" class="edge">
<title>Node3&#45;&gt;Node4</title>
<g id="a_edge3_Node000003_Node000004"><a xlink:title=" ">
<path fill="none" stroke="#63b8ff" d="M272.27,-247.35C268.01,-232.4 261.05,-200.95 269,-176 289.6,-111.34 348.09,-52.67 377.96,-25.86"/>
<polygon fill="#63b8ff" stroke="#63b8ff" points="380.37,-28.4 385.57,-19.17 375.75,-23.14 380.37,-28.4"/>
</a>
</g>
</g>
<!-- Node5 -->
<g id="Node000005" class="node">
<title>Node5</title>
<g id="a_Node000005"><a xlink:title=" ">
<polygon fill="#e0e0e0" stroke="#999999" points="324.5,-200.5 277.5,-200.5 277.5,-181.5 324.5,-181.5 324.5,-200.5"/>
<text text-anchor="middle" x="301" y="-188.5" font-family="Helvetica,sans-Serif" font-size="10.00">vector</text>
</a>
</g>
</g>
<!-- Node3&#45;&gt;Node5 -->
<g id="edge4_Node000003_Node000005" class="edge">
<title>Node3&#45;&gt;Node5</title>
<g id="a_edge4_Node000003_Node000005"><a xlink:title=" ">
<path fill="none" stroke="#63b8ff" d="M278.51,-247.37C282.32,-237.97 288.54,-222.67 293.47,-210.53"/>
<polygon fill="#63b8ff" stroke="#63b8ff" points="296.86,-211.49 297.38,-200.91 290.38,-208.85 296.86,-211.49"/>
</a>
</g>
</g>
<!-- Node6 -->
<g id="Node000006" class="node">
<title>Node6</title>
<g id="a_Node000006"><a xlink:href="../../d1/d02/PCCEdge_8h.html" target="_top" xlink:title="Connexion orientée entre deux nœuds du graphe PCC.">
<polygon fill="white" stroke="#666666" points="245.5,-140 176.5,-140 176.5,-121 245.5,-121 245.5,-140"/>
<text text-anchor="middle" x="211" y="-128" font-family="Helvetica,sans-Serif" font-size="10.00">PCCEdge.h</text>
</a>
</g>
</g>
<!-- Node3&#45;&gt;Node6 -->
<g id="edge5_Node000003_Node000006" class="edge">
<title>Node3&#45;&gt;Node6</title>
<g id="a_edge5_Node000003_Node000006"><a xlink:title=" ">
<path fill="none" stroke="#63b8ff" d="M266.56,-247.49C257.62,-238.06 243.63,-222.06 235,-206 225.37,-188.09 218.8,-165.65 215,-150.11"/>
<polygon fill="#63b8ff" stroke="#63b8ff" points="218.37,-149.13 212.72,-140.17 211.54,-150.7 218.37,-149.13"/>
</a>
</g>
</g>
<!-- Node7 -->
<g id="Node000007" class="node">
<title>Node7</title>
<g id="a_Node000007"><a xlink:href="../../dd/d00/Logger_8h.html" target="_top" xlink:title="Système de journalisation à 5 niveaux de trace, un fichier par moteur.">
<polygon fill="white" stroke="#666666" points="245.5,-85 134.5,-85 134.5,-55 245.5,-55 245.5,-85"/>
<text text-anchor="start" x="142.5" y="-73" font-family="Helvetica,sans-Serif" font-size="10.00">Engine/Core/Logger</text>
<text text-anchor="middle" x="190" y="-62" font-family="Helvetica,sans-Serif" font-size="10.00">/Logger.h</text>
</a>
</g>
</g>
<!-- Node3&#45;&gt;Node7 -->
<g id="edge18_Node000003_Node000007" class="edge">
<title>Node3&#45;&gt;Node7</title>
<g id="a_edge18_Node000003_Node000007"><a xlink:title=" ">
<path fill="none" stroke="#63b8ff" d="M261.33,-247.25C236.28,-230.25 184.07,-190 167,-140 161.78,-124.71 167.52,-107.47 174.57,-94.05"/>
<polygon fill="#63b8ff" stroke="#63b8ff" points="177.81,-95.43 179.8,-85.03 171.76,-91.92 177.81,-95.43"/>
</a>
</g>
</g>
<!-- Node14 -->
<g id="Node000014" class="node">
<title>Node14</title>
<g id="a_Node000014"><a xlink:href="../../df/d02/ShuntingElement_8h.html" target="_top" xlink:title="Interface abstraite pour tous les éléments de shuntage ferroviaire.">
<polygon fill="white" stroke="#666666" points="500,-206 342,-206 342,-176 500,-176 500,-206"/>
<text text-anchor="start" x="350" y="-194" font-family="Helvetica,sans-Serif" font-size="10.00">Modules/Elements/Shunting</text>
<text text-anchor="middle" x="421" y="-183" font-family="Helvetica,sans-Serif" font-size="10.00">Elements/ShuntingElement.h</text>
</a>
</g>
</g>
<!-- Node3&#45;&gt;Node14 -->
<g id="edge14_Node000003_Node000014" class="edge">
<title>Node3&#45;&gt;Node14</title>
<g id="a_edge14_Node000003_Node000014"><a xlink:title=" ">
<path fill="none" stroke="#63b8ff" d="M294.69,-247.37C316.27,-237.91 351.53,-222.45 379.32,-210.27"/>
<polygon fill="#63b8ff" stroke="#63b8ff" points="381.05,-213.34 388.8,-206.12 378.23,-206.92 381.05,-213.34"/>
</a>
</g>
</g>
<!-- Node6&#45;&gt;Node7 -->
<g id="edge6_Node000006_Node000007" class="edge">
<title>Node6&#45;&gt;Node7</title>
<g id="a_edge6_Node000006_Node000007"><a xlink:title=" ">
<path fill="none" stroke="#63b8ff" d="M207.9,-120.87C205.42,-113.96 201.82,-103.93 198.5,-94.67"/>
<polygon fill="#63b8ff" stroke="#63b8ff" points="201.74,-93.34 195.07,-85.11 195.15,-95.71 201.74,-93.34"/>
</a>
</g>
</g>
<!-- Node7&#45;&gt;Node4 -->
<g id="edge12_Node000007_Node000004" class="edge">
<title>Node7&#45;&gt;Node4</title>
<g id="a_edge12_Node000007_Node000004"><a xlink:title=" ">
<path fill="none" stroke="#63b8ff" d="M239.34,-54.99C278.07,-43.99 330.83,-29.01 364.16,-19.54"/>
<polygon fill="#63b8ff" stroke="#63b8ff" points="365.18,-22.89 373.84,-16.79 363.26,-16.16 365.18,-22.89"/>
</a>
</g>
</g>
<!-- Node8 -->
<g id="Node000008" class="node">
<title>Node8</title>
<g id="a_Node000008"><a xlink:title=" ">
<polygon fill="#e0e0e0" stroke="#999999" points="44,-19 0,-19 0,0 44,0 44,-19"/>
<text text-anchor="middle" x="22" y="-7" font-family="Helvetica,sans-Serif" font-size="10.00">ctime</text>
</a>
</g>
</g>
<!-- Node7&#45;&gt;Node8 -->
<g id="edge7_Node000007_Node000008" class="edge">
<title>Node7&#45;&gt;Node8</title>
<g id="a_edge7_Node000007_Node000008"><a xlink:title=" ">
<path fill="none" stroke="#63b8ff" d="M149.76,-54.99C120.49,-44.8 81.4,-31.18 54.19,-21.71"/>
<polygon fill="#63b8ff" stroke="#63b8ff" points="54.99,-18.28 44.39,-18.3 52.69,-24.89 54.99,-18.28"/>
</a>
</g>
</g>
<!-- Node9 -->
<g id="Node000009" class="node">
<title>Node9</title>
<g id="a_Node000009"><a xlink:title=" ">
<polygon fill="#e0e0e0" stroke="#999999" points="130,-19 62,-19 62,0 130,0 130,-19"/>
<text text-anchor="middle" x="96" y="-7" font-family="Helvetica,sans-Serif" font-size="10.00">filesystem</text>
</a>
</g>
</g>
<!-- Node7&#45;&gt;Node9 -->
<g id="edge8_Node000007_Node000009" class="edge">
<title>Node7&#45;&gt;Node9</title>
<g id="a_edge8_Node000007_Node000009"><a xlink:title=" ">
<path fill="none" stroke="#63b8ff" d="M167.25,-54.84C152.4,-45.6 133.1,-33.59 118.34,-24.4"/>
<polygon fill="#63b8ff" stroke="#63b8ff" points="120.15,-21.41 109.81,-19.09 116.45,-27.35 120.15,-21.41"/>
</a>
</g>
</g>
<!-- Node10 -->
<g id="Node000010" class="node">
<title>Node10</title>
<g id="a_Node000010"><a xlink:title=" ">
<polygon fill="#e0e0e0" stroke="#999999" points="203.5,-19 148.5,-19 148.5,0 203.5,0 203.5,-19"/>
<text text-anchor="middle" x="176" y="-7" font-family="Helvetica,sans-Serif" font-size="10.00">fstream</text>
</a>
</g>
</g>
<!-- Node7&#45;&gt;Node10 -->
<g id="edge9_Node000007_Node000010" class="edge">
<title>Node7&#45;&gt;Node10</title>
<g id="a_edge9_Node000007_Node000010"><a xlink:title=" ">
<path fill="none" stroke="#63b8ff" d="M186.61,-54.84C184.77,-47.13 182.46,-37.49 180.47,-29.17"/>
<polygon fill="#63b8ff" stroke="#63b8ff" points="183.83,-28.18 178.1,-19.27 177.02,-29.81 183.83,-28.18"/>
</a>
</g>
</g>
<!-- Node11 -->
<g id="Node000011" class="node">
<title>Node11</title>
<g id="a_Node000011"><a xlink:title=" ">
<polygon fill="#e0e0e0" stroke="#999999" points="270,-19 222,-19 222,0 270,0 270,-19"/>
<text text-anchor="middle" x="246" y="-7" font-family="Helvetica,sans-Serif" font-size="10.00">mutex</text>
</a>
</g>
</g>
<!-- Node7&#45;&gt;Node11 -->
<g id="edge10_Node000007_Node000011" class="edge">
<title>Node7&#45;&gt;Node11</title>
<g id="a_edge10_Node000007_Node000011"><a xlink:title=" ">
<path fill="none" stroke="#63b8ff" d="M203.56,-54.84C211.68,-46.35 222.05,-35.52 230.5,-26.69"/>
<polygon fill="#63b8ff" stroke="#63b8ff" points="233.22,-28.91 237.61,-19.27 228.17,-24.07 233.22,-28.91"/>
</a>
</g>
</g>
<!-- Node12 -->
<g id="Node000012" class="node">
<title>Node12</title>
<g id="a_Node000012"><a xlink:title=" ">
<polygon fill="#e0e0e0" stroke="#999999" points="736,-19 680,-19 680,0 736,0 736,-19"/>
<text text-anchor="middle" x="708" y="-7" font-family="Helvetica,sans-Serif" font-size="10.00">sstream</text>
</a>
</g>
</g>
<!-- Node7&#45;&gt;Node12 -->
<g id="edge11_Node000007_Node000012" class="edge">
<title>Node7&#45;&gt;Node12</title>
<g id="a_edge11_Node000007_Node000012"><a xlink:title=" ">
<path fill="none" stroke="#63b8ff" d="M245.93,-62.68C351.87,-50.72 579.29,-25.04 669.75,-14.82"/>
<polygon fill="#63b8ff" stroke="#63b8ff" points="670.29,-18.28 679.84,-13.68 669.51,-11.33 670.29,-18.28"/>
</a>
</g>
</g>
<!-- Node13 -->
<g id="Node000013" class="node">
<title>Node13</title>
<g id="a_Node000013"><a xlink:title=" ">
<polygon fill="#e0e0e0" stroke="#999999" points="356,-19 288,-19 288,0 356,0 356,-19"/>
<text text-anchor="middle" x="322" y="-7" font-family="Helvetica,sans-Serif" font-size="10.00">windows.h</text>
</a>
</g>
</g>
<!-- Node7&#45;&gt;Node13 -->
<g id="edge13_Node000007_Node000013" class="edge">
<title>Node7&#45;&gt;Node13</title>
<g id="a_edge13_Node000007_Node000013"><a xlink:title=" ">
<path fill="none" stroke="#63b8ff" d="M221.62,-54.99C243.35,-45.36 271.97,-32.67 293.09,-23.31"/>
<polygon fill="#63b8ff" stroke="#63b8ff" points="294.78,-26.39 302.51,-19.14 291.95,-19.99 294.78,-26.39"/>
</a>
</g>
</g>
<!-- Node15 -->
<g id="Node000015" class="node">
<title>Node15</title>
<g id="a_Node000015"><a xlink:href="../../d5/d02/Element_8h.html" target="_top" xlink:title="Classe de base abstraite pour tous les éléments interactifs ferroviaires.">
<polygon fill="white" stroke="#666666" points="475.5,-140 316.5,-140 316.5,-121 475.5,-121 475.5,-140"/>
<text text-anchor="middle" x="396" y="-128" font-family="Helvetica,sans-Serif" font-size="10.00">Modules/Elements/Element.h</text>
</a>
</g>
</g>
<!-- Node14&#45;&gt;Node15 -->
<g id="edge15_Node000014_Node000015" class="edge">
<title>Node14&#45;&gt;Node15</title>
<g id="a_edge15_Node000014_Node000015"><a xlink:title=" ">
<path fill="none" stroke="#63b8ff" d="M414.95,-175.84C411.58,-167.95 407.35,-158.05 403.74,-149.61"/>
<polygon fill="#63b8ff" stroke="#63b8ff" points="406.89,-148.09 399.75,-140.27 400.46,-150.84 406.89,-148.09"/>
</a>
</g>
</g>
<!-- Node15&#45;&gt;Node4 -->
<g id="edge16_Node000015_Node000004" class="edge">
<title>Node15&#45;&gt;Node4</title>
<g id="a_edge16_Node000015_Node000004"><a xlink:title=" ">
<path fill="none" stroke="#63b8ff" d="M396,-120.94C396,-101.91 396,-55.69 396,-29.47"/>
<polygon fill="#63b8ff" stroke="#63b8ff" points="399.5,-29.3 396,-19.3 392.5,-29.3 399.5,-29.3"/>
</a>
</g>
</g>
<!-- Node15&#45;&gt;Node7 -->
<g id="edge17_Node000015_Node000007" class="edge">
<title>Node15&#45;&gt;Node7</title>
<g id="a_edge17_Node000015_Node000007"><a xlink:title=" ">
<path fill="none" stroke="#63b8ff" d="M366.05,-120.99C335.62,-112.35 287.68,-98.74 249.51,-87.9"/>
<polygon fill="#63b8ff" stroke="#63b8ff" points="250.1,-84.43 239.53,-85.06 248.19,-91.16 250.1,-84.43"/>
</a>
</g>
</g>
<!-- Node16&#45;&gt;Node4 -->
<g id="edge23_Node000016_Node000004" class="edge">
<title>Node16&#45;&gt;Node4</title>
<g id="a_edge23_Node000016_Node000004"><a xlink:title=" ">
<path fill="none" stroke="#63b8ff" d="M573.29,-241.58C565.89,-231.6 555.82,-218.01 547,-206 519.31,-168.32 513.45,-158.11 485,-121 459.05,-87.15 427.49,-48.54 409.78,-27.1"/>
<polygon fill="#63b8ff" stroke="#63b8ff" points="412.37,-24.74 403.3,-19.27 406.98,-29.2 412.37,-24.74"/>
</a>
</g>
</g>
<!-- Node16&#45;&gt;Node5 -->
<g id="edge24_Node000016_Node000005" class="edge">
<title>Node16&#45;&gt;Node5</title>
<g id="a_edge24_Node000016_Node000005"><a xlink:title=" ">
<path fill="none" stroke="#63b8ff" d="M507.97,-245.24C457.64,-237.05 390.54,-224.09 333,-206 331.37,-205.49 329.71,-204.92 328.05,-204.31"/>
<polygon fill="#63b8ff" stroke="#63b8ff" points="329.26,-201.03 318.68,-200.54 326.65,-207.52 329.26,-201.03"/>
</a>
</g>
</g>
<!-- Node16&#45;&gt;Node12 -->
<g id="edge22_Node000016_Node000012" class="edge">
<title>Node16&#45;&gt;Node12</title>
<g id="a_edge22_Node000016_Node000012"><a xlink:title=" ">
<path fill="none" stroke="#63b8ff" d="M660.31,-256.2C751.92,-254.63 897.57,-245.73 932,-206 1000.24,-127.26 821.58,-51.14 742.97,-22.47"/>
<polygon fill="#63b8ff" stroke="#63b8ff" points="744.05,-19.14 733.46,-19.05 741.69,-25.72 744.05,-19.14"/>
</a>
</g>
</g>
<!-- Node16&#45;&gt;Node14 -->
<g id="edge27_Node000016_Node000014" class="edge">
<title>Node16&#45;&gt;Node14</title>
<g id="a_edge27_Node000016_Node000014"><a xlink:title=" ">
<path fill="none" stroke="#63b8ff" d="M548.23,-241.95C524.13,-232.49 492.15,-219.93 466.27,-209.78"/>
<polygon fill="#63b8ff" stroke="#63b8ff" points="467.27,-206.41 456.69,-206.01 464.72,-212.93 467.27,-206.41"/>
</a>
</g>
</g>
<!-- Node17 -->
<g id="Node000017" class="node">
<title>Node17</title>
<g id="a_Node000017"><a xlink:title=" ">
<polygon fill="#e0e0e0" stroke="#999999" points="1021,-200.5 979,-200.5 979,-181.5 1021,-181.5 1021,-200.5"/>
<text text-anchor="middle" x="1000" y="-188.5" font-family="Helvetica,sans-Serif" font-size="10.00">array</text>
</a>
</g>
</g>
<!-- Node16&#45;&gt;Node17 -->
<g id="edge20_Node000016_Node000017" class="edge">
<title>Node16&#45;&gt;Node17</title>
<g id="a_edge20_Node000016_Node000017"><a xlink:title=" ">
<path fill="none" stroke="#63b8ff" d="M660.25,-251.61C737.95,-245.84 861.4,-233.06 965,-206 967.16,-205.44 969.37,-204.77 971.57,-204.05"/>
<polygon fill="#63b8ff" stroke="#63b8ff" points="972.85,-207.31 981.04,-200.59 970.44,-200.73 972.85,-207.31"/>
</a>
</g>
</g>
<!-- Node18 -->
<g id="Node000018" class="node">
<title>Node18</title>
<g id="a_Node000018"><a xlink:title=" ">
<polygon fill="#e0e0e0" stroke="#999999" points="612,-200.5 556,-200.5 556,-181.5 612,-181.5 612,-200.5"/>
<text text-anchor="middle" x="584" y="-188.5" font-family="Helvetica,sans-Serif" font-size="10.00">optional</text>
</a>
</g>
</g>
<!-- Node16&#45;&gt;Node18 -->
<g id="edge21_Node000016_Node000018" class="edge">
<title>Node16&#45;&gt;Node18</title>
<g id="a_edge21_Node000016_Node000018"><a xlink:title=" ">
<path fill="none" stroke="#63b8ff" d="M584,-241.8C584,-232.7 584,-220.79 584,-210.9"/>
<polygon fill="#63b8ff" stroke="#63b8ff" points="587.5,-210.84 584,-200.84 580.5,-210.84 587.5,-210.84"/>
</a>
</g>
</g>
<!-- Node19 -->
<g id="Node000019" class="node">
<title>Node19</title>
<g id="a_Node000019"><a xlink:href="../../d6/d01/CoordinateLatLon_8h.html" target="_top" xlink:title="Représentation d&#39;une coordonnée géographique WGS&#45;84 (latitude, longitude).">
<polygon fill="white" stroke="#666666" points="767.5,-206 630.5,-206 630.5,-176 767.5,-176 767.5,-206"/>
<text text-anchor="start" x="638.5" y="-194" font-family="Helvetica,sans-Serif" font-size="10.00">Engine/Core/Coordinates</text>
<text text-anchor="middle" x="699" y="-183" font-family="Helvetica,sans-Serif" font-size="10.00">/CoordinateLatLon.h</text>
</a>
</g>
</g>
<!-- Node16&#45;&gt;Node19 -->
<g id="edge25_Node000016_Node000019" class="edge">
<title>Node16&#45;&gt;Node19</title>
<g id="a_edge25_Node000016_Node000019"><a xlink:title=" ">
<path fill="none" stroke="#63b8ff" d="M609.24,-241.95C625.57,-232.87 647.02,-220.93 664.87,-211"/>
<polygon fill="#63b8ff" stroke="#63b8ff" points="666.79,-213.93 673.82,-206.01 663.38,-207.82 666.79,-213.93"/>
</a>
</g>
</g>
<!-- Node20 -->
<g id="Node000020" class="node">
<title>Node20</title>
<g id="a_Node000020"><a xlink:href="../../db/d03/CoordinateXY_8h.html" target="_top" xlink:title="Représentation d&#39;une coordonnée plane en mètres (système métrique UTM).">
<polygon fill="white" stroke="#666666" points="922.5,-206 785.5,-206 785.5,-176 922.5,-176 922.5,-206"/>
<text text-anchor="start" x="793.5" y="-194" font-family="Helvetica,sans-Serif" font-size="10.00">Engine/Core/Coordinates</text>
<text text-anchor="middle" x="854" y="-183" font-family="Helvetica,sans-Serif" font-size="10.00">/CoordinateXY.h</text>
</a>
</g>
</g>
<!-- Node16&#45;&gt;Node20 -->
<g id="edge26_Node000016_Node000020" class="edge">
<title>Node16&#45;&gt;Node20</title>
<g id="a_edge26_Node000016_Node000020"><a xlink:title=" ">
<path fill="none" stroke="#63b8ff" d="M643.25,-241.95C685.02,-232.06 741.08,-218.77 784.89,-208.38"/>
<polygon fill="#63b8ff" stroke="#63b8ff" points="785.96,-211.72 794.89,-206.01 784.35,-204.91 785.96,-211.72"/>
</a>
</g>
</g>
</g>
</svg>
