<?xml version="1.0" encoding="UTF-8" standalone="no"?>
<!DOCTYPE svg PUBLIC "-//W3C//DTD SVG 1.1//EN"
 "http://www.w3.org/Graphics/SVG/1.1/DTD/svg11.dtd">
<!-- Generated by graphviz version 2.43.0 (0)
 -->
<!-- Title: SimulateurFerroviaire/Modules/GeoParser/Pipeline/Phase3_NetworkSplitter.cpp Pages: 1 -->
<svg width="1494pt" height="533pt"
 viewBox="0.00 0.00 1493.50 533.00" xmlns="http://www.w3.org/2000/svg" xmlns:xlink="http://www.w3.org/1999/xlink">
<g id="graph0" class="graph" transform="scale(1 1) rotate(0) translate(4 529)">
<title>SimulateurFerroviaire/Modules/GeoParser/Pipeline/Phase3_NetworkSplitter.cpp</title>
<!-- Node1 -->
<g id="Node000001" class="node">
<title>Node1</title>
<g id="a_Node000001"><a xlink:title="Implémentation de la phase 3 — découpe des segments.">
<polygon fill="#999999" stroke="#666666" points="1466,-525 1310,-525 1310,-484 1466,-484 1466,-525"/>
<text text-anchor="start" x="1318" y="-513" font-family="Helvetica,sans-Serif" font-size="10.00">SimulateurFerroviaire</text>
<text text-anchor="start" x="1318" y="-502" font-family="Helvetica,sans-Serif" font-size="10.00">/Modules/GeoParser/Pipeline</text>
<text text-anchor="middle" x="1388" y="-491" font-family="Helvetica,sans-Serif" font-size="10.00">/Phase3_NetworkSplitter.cpp</text>
</a>
</g>
</g>
<!-- Node2 -->
<g id="Node000002" class="node">
<title>Node2</title>
<g id="a_Node000002"><a xlink:href="../../da/d03/Phase3__NetworkSplitter_8h.html" target="_top" xlink:title="Phase 3 du pipeline — découpe des segments aux intersections.">
<polygon fill="white" stroke="#666666" points="1338,-448 1196,-448 1196,-429 1338,-429 1338,-448"/>
<text text-anchor="middle" x="1267" y="-436" font-family="Helvetica,sans-Serif" font-size="10.00">Phase3_NetworkSplitter.h</text>
</a>
</g>
</g>
<!-- Node1&#45;&gt;Node2 -->
<g id="edge1_Node000001_Node000002" class="edge">
<title>Node1&#45;&gt;Node2</title>
<g id="a_edge1_Node000001_Node000002"><a xlink:title=" ">
<path fill="none" stroke="#63b8ff" d="M1351.04,-483.95C1332.1,-473.93 1309.51,-461.99 1292.53,-453"/>
<polygon fill="#63b8ff" stroke="#63b8ff" points="1293.72,-449.67 1283.24,-448.09 1290.45,-455.86 1293.72,-449.67"/>
</a>
</g>
</g>
<!-- Node34 -->
<g id="Node000034" class="node">
<title>Node34</title>
<g id="a_Node000034"><a xlink:title=" ">
<polygon fill="#e0e0e0" stroke="#999999" points="1420,-448 1356,-448 1356,-429 1420,-429 1420,-448"/>
<text text-anchor="middle" x="1388" y="-436" font-family="Helvetica,sans-Serif" font-size="10.00">algorithm</text>
</a>
</g>
</g>
<!-- Node1&#45;&gt;Node34 -->
<g id="edge61_Node000001_Node000034" class="edge">
<title>Node1&#45;&gt;Node34</title>
<g id="a_edge61_Node000001_Node000034"><a xlink:title=" ">
<path fill="none" stroke="#63b8ff" d="M1388,-483.95C1388,-475.85 1388,-466.5 1388,-458.47"/>
<polygon fill="#63b8ff" stroke="#63b8ff" points="1391.5,-458.26 1388,-448.26 1384.5,-458.26 1391.5,-458.26"/>
</a>
</g>
</g>
<!-- Node35 -->
<g id="Node000035" class="node">
<title>Node35</title>
<g id="a_Node000035"><a xlink:title=" ">
<polygon fill="#e0e0e0" stroke="#999999" points="1485.5,-448 1438.5,-448 1438.5,-429 1485.5,-429 1485.5,-448"/>
<text text-anchor="middle" x="1462" y="-436" font-family="Helvetica,sans-Serif" font-size="10.00">cmath</text>
</a>
</g>
</g>
<!-- Node1&#45;&gt;Node35 -->
<g id="edge62_Node000001_Node000035" class="edge">
<title>Node1&#45;&gt;Node35</title>
<g id="a_edge62_Node000001_Node000035"><a xlink:title=" ">
<path fill="none" stroke="#63b8ff" d="M1410.6,-483.95C1421.36,-474.65 1434.05,-463.68 1444.12,-454.96"/>
<polygon fill="#63b8ff" stroke="#63b8ff" points="1446.6,-457.45 1451.87,-448.26 1442.02,-452.15 1446.6,-457.45"/>
</a>
</g>
</g>
<!-- Node3 -->
<g id="Node000003" class="node">
<title>Node3</title>
<g id="a_Node000003"><a xlink:href="../../d6/d02/PipelineContext_8h.html" target="_top" xlink:title="Conteneur central des données inter&#45;phases du pipeline GeoParser.">
<polygon fill="white" stroke="#666666" points="397.5,-387.5 294.5,-387.5 294.5,-368.5 397.5,-368.5 397.5,-387.5"/>
<text text-anchor="middle" x="346" y="-375.5" font-family="Helvetica,sans-Serif" font-size="10.00">PipelineContext.h</text>
</a>
</g>
</g>
<!-- Node2&#45;&gt;Node3 -->
<g id="edge2_Node000002_Node000003" class="edge">
<title>Node2&#45;&gt;Node3</title>
<g id="a_edge2_Node000002_Node000003"><a xlink:title=" ">
<path fill="none" stroke="#63b8ff" d="M1195.88,-432.98C1021.13,-421.88 573,-393.42 408.1,-382.94"/>
<polygon fill="#63b8ff" stroke="#63b8ff" points="407.86,-379.42 397.66,-382.28 407.42,-386.41 407.86,-379.42"/>
</a>
</g>
</g>
<!-- Node24 -->
<g id="Node000024" class="node">
<title>Node24</title>
<g id="a_Node000024"><a xlink:href="../../dd/d00/Logger_8h.html" target="_top" xlink:title="Système de journalisation à 5 niveaux de trace, un fichier par moteur.">
<polygon fill="white" stroke="#666666" points="1208.5,-85 1097.5,-85 1097.5,-55 1208.5,-55 1208.5,-85"/>
<text text-anchor="start" x="1105.5" y="-73" font-family="Helvetica,sans-Serif" font-size="10.00">Engine/Core/Logger</text>
<text text-anchor="middle" x="1153" y="-62" font-family="Helvetica,sans-Serif" font-size="10.00">/Logger.h</text>
</a>
</g>
</g>
<!-- Node2&#45;&gt;Node24 -->
<g id="edge60_Node000002_Node000024" class="edge">
<title>Node2&#45;&gt;Node24</title>
<g id="a_edge60_Node000002_Node000024"><a xlink:title=" ">
<path fill="none" stroke="#63b8ff" d="M1267,-428.84C1267,-409.21 1267,-359.82 1267,-318.5 1267,-318.5 1267,-318.5 1267,-256 1267,-219.46 1265.02,-208.34 1248,-176 1230.36,-142.48 1199.54,-111.27 1177.8,-91.74"/>
<polygon fill="#63b8ff" stroke="#63b8ff" points="1180.06,-89.06 1170.24,-85.09 1175.43,-94.32 1180.06,-89.06"/>
</a>
</g>
</g>
<!-- Node33 -->
<g id="Node000033" class="node">
<title>Node33</title>
<g id="a_Node000033"><a xlink:href="../../d9/d01/ParserConfig_8h.html" target="_top" xlink:title="Paramètres de configuration du pipeline GeoParser.">
<polygon fill="white" stroke="#666666" points="1404.5,-393 1295.5,-393 1295.5,-363 1404.5,-363 1404.5,-393"/>
<text text-anchor="start" x="1303.5" y="-381" font-family="Helvetica,sans-Serif" font-size="10.00">Engine/Core/Config</text>
<text text-anchor="middle" x="1350" y="-370" font-family="Helvetica,sans-Serif" font-size="10.00">/ParserConfig.h</text>
</a>
</g>
</g>
<!-- Node2&#45;&gt;Node33 -->
<g id="edge59_Node000002_Node000033" class="edge">
<title>Node2&#45;&gt;Node33</title>
<g id="a_edge59_Node000002_Node000033"><a xlink:title=" ">
<path fill="none" stroke="#63b8ff" d="M1279.25,-428.87C1290.4,-421 1307.3,-409.09 1321.79,-398.89"/>
<polygon fill="#63b8ff" stroke="#63b8ff" points="1323.82,-401.74 1329.97,-393.11 1319.78,-396.01 1323.82,-401.74"/>
</a>
</g>
</g>
<!-- Node4 -->
<g id="Node000004" class="node">
<title>Node4</title>
<g id="a_Node000004"><a xlink:title=" ">
<polygon fill="#e0e0e0" stroke="#999999" points="938,-327 888,-327 888,-308 938,-308 938,-327"/>
<text text-anchor="middle" x="913" y="-315" font-family="Helvetica,sans-Serif" font-size="10.00">chrono</text>
</a>
</g>
</g>
<!-- Node3&#45;&gt;Node4 -->
<g id="edge3_Node000003_Node000004" class="edge">
<title>Node3&#45;&gt;Node4</title>
<g id="a_edge3_Node000003_Node000004"><a xlink:title=" ">
<path fill="none" stroke="#63b8ff" d="M397.79,-374.75C491.72,-370.1 696.45,-357.37 877.85,-326.94"/>
<polygon fill="#63b8ff" stroke="#63b8ff" points="878.57,-330.37 887.84,-325.24 877.39,-323.47 878.57,-330.37"/>
</a>
</g>
</g>
<!-- Node5 -->
<g id="Node000005" class="node">
<title>Node5</title>
<g id="a_Node000005"><a xlink:title=" ">
<polygon fill="#e0e0e0" stroke="#999999" points="877,-19 833,-19 833,0 877,0 877,-19"/>
<text text-anchor="middle" x="855" y="-7" font-family="Helvetica,sans-Serif" font-size="10.00">string</text>
</a>
</g>
</g>
<!-- Node3&#45;&gt;Node5 -->
<g id="edge4_Node000003_Node000005" class="edge">
<title>Node3&#45;&gt;Node5</title>
<g id="a_edge4_Node000003_Node000005"><a xlink:title=" ">
<path fill="none" stroke="#63b8ff" d="M294.2,-370.17C197.68,-356 0,-319.46 0,-258 0,-258 0,-258 0,-129.5 0,-44.89 665.35,-16.95 822.17,-11.54"/>
<polygon fill="#63b8ff" stroke="#63b8ff" points="822.69,-15.03 832.57,-11.19 822.46,-8.03 822.69,-15.03"/>
</a>
</g>
</g>
<!-- Node6 -->
<g id="Node000006" class="node">
<title>Node6</title>
<g id="a_Node000006"><a xlink:title=" ">
<polygon fill="#e0e0e0" stroke="#999999" points="331.5,-200.5 284.5,-200.5 284.5,-181.5 331.5,-181.5 331.5,-200.5"/>
<text text-anchor="middle" x="308" y="-188.5" font-family="Helvetica,sans-Serif" font-size="10.00">vector</text>
</a>
</g>
</g>
<!-- Node3&#45;&gt;Node6 -->
<g id="edge5_Node000003_Node000006" class="edge">
<title>Node3&#45;&gt;Node6</title>
<g id="a_edge5_Node000003_Node000006"><a xlink:title=" ">
<path fill="none" stroke="#63b8ff" d="M294.28,-376.23C227.08,-371.95 114.48,-352.51 82,-272 77.01,-259.63 73.65,-252.4 82,-242 105.74,-212.43 217.34,-199.28 274.32,-194.42"/>
<polygon fill="#63b8ff" stroke="#63b8ff" points="274.61,-197.9 284.3,-193.6 274.04,-190.93 274.61,-197.9"/>
</a>
</g>
</g>
<!-- Node7 -->
<g id="Node000007" class="node">
<title>Node7</title>
<g id="a_Node000007"><a xlink:title=" ">
<polygon fill="#e0e0e0" stroke="#999999" points="200,-327 144,-327 144,-308 200,-308 200,-327"/>
<text text-anchor="middle" x="172" y="-315" font-family="Helvetica,sans-Serif" font-size="10.00">numeric</text>
</a>
</g>
</g>
<!-- Node3&#45;&gt;Node7 -->
<g id="edge6_Node000003_Node000007" class="edge">
<title>Node3&#45;&gt;Node7</title>
<g id="a_edge6_Node000003_Node000007"><a xlink:title=" ">
<path fill="none" stroke="#63b8ff" d="M320.7,-368.49C290.8,-358.44 240.88,-341.66 207.22,-330.34"/>
<polygon fill="#63b8ff" stroke="#63b8ff" points="207.93,-326.89 197.33,-327.02 205.69,-333.52 207.93,-326.89"/>
</a>
</g>
</g>
<!-- Node8 -->
<g id="Node000008" class="node">
<title>Node8</title>
<g id="a_Node000008"><a xlink:href="../../de/d02/RawNetwork_8h.html" target="_top" xlink:title="Structures de données produites par Phase1_GeoLoader.">
<polygon fill="white" stroke="#666666" points="742,-266.5 654,-266.5 654,-247.5 742,-247.5 742,-266.5"/>
<text text-anchor="middle" x="698" y="-254.5" font-family="Helvetica,sans-Serif" font-size="10.00">RawNetwork.h</text>
</a>
</g>
</g>
<!-- Node3&#45;&gt;Node8 -->
<g id="edge7_Node000003_Node000008" class="edge">
<title>Node3&#45;&gt;Node8</title>
<g id="a_edge7_Node000003_Node000008"><a xlink:title=" ">
<path fill="none" stroke="#63b8ff" d="M386.46,-368.45C425.89,-359.67 487.29,-344.8 539,-327 586.76,-310.56 640.23,-286.02 671.41,-271.07"/>
<polygon fill="#63b8ff" stroke="#63b8ff" points="673.23,-274.07 680.71,-266.57 670.18,-267.77 673.23,-274.07"/>
</a>
</g>
</g>
<!-- Node11 -->
<g id="Node000011" class="node">
<title>Node11</title>
<g id="a_Node000011"><a xlink:href="../../d0/d00/IntersectionMap_8h.html" target="_top" xlink:title="Structures de données produites par Phase2_GeometricIntersector.">
<polygon fill="white" stroke="#666666" points="398,-327 294,-327 294,-308 398,-308 398,-327"/>
<text text-anchor="middle" x="346" y="-315" font-family="Helvetica,sans-Serif" font-size="10.00">IntersectionMap.h</text>
</a>
</g>
</g>
<!-- Node3&#45;&gt;Node11 -->
<g id="edge12_Node000003_Node000011" class="edge">
<title>Node3&#45;&gt;Node11</title>
<g id="a_edge12_Node000003_Node000011"><a xlink:title=" ">
<path fill="none" stroke="#63b8ff" d="M346,-368.37C346,-360.25 346,-347.81 346,-337.39"/>
<polygon fill="#63b8ff" stroke="#63b8ff" points="349.5,-337.17 346,-327.17 342.5,-337.17 349.5,-337.17"/>
</a>
</g>
</g>
<!-- Node13 -->
<g id="Node000013" class="node">
<title>Node13</title>
<g id="a_Node000013"><a xlink:href="../../da/d00/SplitNetwork_8h.html" target="_top" xlink:title="Structures de données produites par Phase3_NetworkSplitter.">
<polygon fill="white" stroke="#666666" points="193.5,-266.5 104.5,-266.5 104.5,-247.5 193.5,-247.5 193.5,-266.5"/>
<text text-anchor="middle" x="149" y="-254.5" font-family="Helvetica,sans-Serif" font-size="10.00">SplitNetwork.h</text>
</a>
</g>
</g>
<!-- Node3&#45;&gt;Node13 -->
<g id="edge16_Node000003_Node000013" class="edge">
<title>Node3&#45;&gt;Node13</title>
<g id="a_edge16_Node000003_Node000013"><a xlink:title=" ">
<path fill="none" stroke="#63b8ff" d="M331.83,-368.44C298.19,-348.12 213.26,-296.81 172.08,-271.94"/>
<polygon fill="#63b8ff" stroke="#63b8ff" points="173.67,-268.82 163.3,-266.64 170.05,-274.81 173.67,-268.82"/>
</a>
</g>
</g>
<!-- Node14 -->
<g id="Node000014" class="node">
<title>Node14</title>
<g id="a_Node000014"><a xlink:href="../../d7/d03/TopologyGraph_8h.html" target="_top" xlink:title="Structures de données produites par Phase4_TopologyBuilder.">
<polygon fill="white" stroke="#666666" points="309,-266.5 211,-266.5 211,-247.5 309,-247.5 309,-266.5"/>
<text text-anchor="middle" x="260" y="-254.5" font-family="Helvetica,sans-Serif" font-size="10.00">TopologyGraph.h</text>
</a>
</g>
</g>
<!-- Node3&#45;&gt;Node14 -->
<g id="edge20_Node000003_Node000014" class="edge">
<title>Node3&#45;&gt;Node14</title>
<g id="a_edge20_Node000003_Node000014"><a xlink:title=" ">
<path fill="none" stroke="#63b8ff" d="M331.52,-368.39C317.81,-359.57 297.5,-344.66 285,-327 274.21,-311.75 267.58,-291.33 263.88,-276.67"/>
<polygon fill="#63b8ff" stroke="#63b8ff" points="267.25,-275.73 261.61,-266.76 260.43,-277.29 267.25,-275.73"/>
</a>
</g>
</g>
<!-- Node15 -->
<g id="Node000015" class="node">
<title>Node15</title>
<g id="a_Node000015"><a xlink:href="../../d4/d00/ClassifiedNodes_8h.html" target="_top" xlink:title="Structures de données produites par Phase5_SwitchClassifier.">
<polygon fill="white" stroke="#666666" points="530,-327 426,-327 426,-308 530,-308 530,-327"/>
<text text-anchor="middle" x="478" y="-315" font-family="Helvetica,sans-Serif" font-size="10.00">ClassifiedNodes.h</text>
</a>
</g>
</g>
<!-- Node3&#45;&gt;Node15 -->
<g id="edge24_Node000003_Node000015" class="edge">
<title>Node3&#45;&gt;Node15</title>
<g id="a_edge24_Node000003_Node000015"><a xlink:title=" ">
<path fill="none" stroke="#63b8ff" d="M365.19,-368.49C387.39,-358.66 424.12,-342.38 449.62,-331.08"/>
<polygon fill="#63b8ff" stroke="#63b8ff" points="451.06,-334.27 458.78,-327.02 448.22,-327.87 451.06,-334.27"/>
</a>
</g>
</g>
<!-- Node18 -->
<g id="Node000018" class="node">
<title>Node18</title>
<g id="a_Node000018"><a xlink:href="../../d2/d01/BlockSet_8h.html" target="_top" xlink:title="Structures de données produites par Phase6_BlockExtractor.">
<polygon fill="white" stroke="#666666" points="870,-327 802,-327 802,-308 870,-308 870,-327"/>
<text text-anchor="middle" x="836" y="-315" font-family="Helvetica,sans-Serif" font-size="10.00">BlockSet.h</text>
</a>
</g>
</g>
<!-- Node3&#45;&gt;Node18 -->
<g id="edge28_Node000003_Node000018" class="edge">
<title>Node3&#45;&gt;Node18</title>
<g id="a_edge28_Node000003_Node000018"><a xlink:title=" ">
<path fill="none" stroke="#63b8ff" d="M397.51,-370.85C494.16,-359.31 701.11,-334.6 791.84,-323.77"/>
<polygon fill="#63b8ff" stroke="#63b8ff" points="792.28,-327.24 801.79,-322.58 791.45,-320.29 792.28,-327.24"/>
</a>
</g>
</g>
<!-- Node8&#45;&gt;Node5 -->
<g id="edge8_Node000008_Node000005" class="edge">
<title>Node8&#45;&gt;Node5</title>
<g id="a_edge8_Node000008_Node000005"><a xlink:title=" ">
<path fill="none" stroke="#63b8ff" d="M683.11,-247.5C669.79,-238.95 651.14,-224.41 643,-206 637.61,-193.81 637.15,-187.98 643,-176 681.12,-97.88 775.92,-45.85 824.8,-23.28"/>
<polygon fill="#63b8ff" stroke="#63b8ff" points="826.53,-26.34 834.21,-19.04 823.66,-19.96 826.53,-26.34"/>
</a>
</g>
</g>
<!-- Node8&#45;&gt;Node6 -->
<g id="edge9_Node000008_Node000006" class="edge">
<title>Node8&#45;&gt;Node6</title>
<g id="a_edge9_Node000008_Node000006"><a xlink:title=" ">
<path fill="none" stroke="#63b8ff" d="M664.68,-247.43C656.63,-245.51 648.03,-243.57 640,-242 583.16,-230.88 414.5,-206.89 341.88,-196.72"/>
<polygon fill="#63b8ff" stroke="#63b8ff" points="342.28,-193.24 331.89,-195.32 341.31,-200.17 342.28,-193.24"/>
</a>
</g>
</g>
<!-- Node9 -->
<g id="Node000009" class="node">
<title>Node9</title>
<g id="a_Node000009"><a xlink:href="../../d6/d01/CoordinateLatLon_8h.html" target="_top" xlink:title="Représentation d&#39;une coordonnée géographique WGS&#45;84 (latitude, longitude).">
<polygon fill="white" stroke="#666666" points="788.5,-206 651.5,-206 651.5,-176 788.5,-176 788.5,-206"/>
<text text-anchor="start" x="659.5" y="-194" font-family="Helvetica,sans-Serif" font-size="10.00">Engine/Core/Coordinates</text>
<text text-anchor="middle" x="720" y="-183" font-family="Helvetica,sans-Serif" font-size="10.00">/CoordinateLatLon.h</text>
</a>
</g>
</g>
<!-- Node8&#45;&gt;Node9 -->
<g id="edge10_Node000008_Node000009" class="edge">
<title>Node8&#45;&gt;Node9</title>
<g id="a_edge10_Node000008_Node000009"><a xlink:title=" ">
<path fill="none" stroke="#63b8ff" d="M700.97,-247.37C703.73,-239.32 707.99,-226.94 711.77,-215.93"/>
<polygon fill="#63b8ff" stroke="#63b8ff" points="715.12,-216.96 715.06,-206.36 708.5,-214.68 715.12,-216.96"/>
</a>
</g>
</g>
<!-- Node10 -->
<g id="Node000010" class="node">
<title>Node10</title>
<g id="a_Node000010"><a xlink:href="../../db/d03/CoordinateXY_8h.html" target="_top" xlink:title="Représentation d&#39;une coordonnée plane en mètres (système métrique UTM).">
<polygon fill="white" stroke="#666666" points="558.5,-206 421.5,-206 421.5,-176 558.5,-176 558.5,-206"/>
<text text-anchor="start" x="429.5" y="-194" font-family="Helvetica,sans-Serif" font-size="10.00">Engine/Core/Coordinates</text>
<text text-anchor="middle" x="490" y="-183" font-family="Helvetica,sans-Serif" font-size="10.00">/CoordinateXY.h</text>
</a>
</g>
</g>
<!-- Node8&#45;&gt;Node10 -->
<g id="edge11_Node000008_Node000010" class="edge">
<title>Node8&#45;&gt;Node10</title>
<g id="a_edge11_Node000008_Node000010"><a xlink:title=" ">
<path fill="none" stroke="#63b8ff" d="M669.95,-247.37C638.19,-237.6 585.66,-221.43 545.53,-209.09"/>
<polygon fill="#63b8ff" stroke="#63b8ff" points="546.46,-205.71 535.88,-206.12 544.4,-212.4 546.46,-205.71"/>
</a>
</g>
</g>
<!-- Node11&#45;&gt;Node6 -->
<g id="edge14_Node000011_Node000006" class="edge">
<title>Node11&#45;&gt;Node6</title>
<g id="a_edge14_Node000011_Node000006"><a xlink:title=" ">
<path fill="none" stroke="#63b8ff" d="M293.99,-314.87C228.04,-311.57 119.88,-301.68 95,-272 44.43,-211.68 201.65,-196.79 273.81,-193.16"/>
<polygon fill="#63b8ff" stroke="#63b8ff" points="274.38,-196.64 284.21,-192.68 274.06,-189.64 274.38,-196.64"/>
</a>
</g>
</g>
<!-- Node11&#45;&gt;Node10 -->
<g id="edge15_Node000011_Node000010" class="edge">
<title>Node11&#45;&gt;Node10</title>
<g id="a_edge15_Node000011_Node000010"><a xlink:title=" ">
<path fill="none" stroke="#63b8ff" d="M344.65,-307.57C342.87,-292.34 341.57,-261.13 357,-242 370.77,-224.93 391.02,-213.68 411.59,-206.28"/>
<polygon fill="#63b8ff" stroke="#63b8ff" points="412.97,-209.51 421.36,-203.04 410.77,-202.86 412.97,-209.51"/>
</a>
</g>
</g>
<!-- Node12 -->
<g id="Node000012" class="node">
<title>Node12</title>
<g id="a_Node000012"><a xlink:title=" ">
<polygon fill="#e0e0e0" stroke="#999999" points="529.5,-266.5 436.5,-266.5 436.5,-247.5 529.5,-247.5 529.5,-266.5"/>
<text text-anchor="middle" x="483" y="-254.5" font-family="Helvetica,sans-Serif" font-size="10.00">unordered_map</text>
</a>
</g>
</g>
<!-- Node11&#45;&gt;Node12 -->
<g id="edge13_Node000011_Node000012" class="edge">
<title>Node11&#45;&gt;Node12</title>
<g id="a_edge13_Node000011_Node000012"><a xlink:title=" ">
<path fill="none" stroke="#63b8ff" d="M365.92,-307.99C388.95,-298.16 427.08,-281.88 453.54,-270.58"/>
<polygon fill="#63b8ff" stroke="#63b8ff" points="455.23,-273.66 463.05,-266.52 452.48,-267.22 455.23,-273.66"/>
</a>
</g>
</g>
<!-- Node13&#45;&gt;Node6 -->
<g id="edge17_Node000013_Node000006" class="edge">
<title>Node13&#45;&gt;Node6</title>
<g id="a_edge17_Node000013_Node000006"><a xlink:title=" ">
<path fill="none" stroke="#63b8ff" d="M170.44,-247.37C197.9,-236.32 245.68,-217.08 277.07,-204.45"/>
<polygon fill="#63b8ff" stroke="#63b8ff" points="278.67,-207.58 286.64,-200.6 276.06,-201.08 278.67,-207.58"/>
</a>
</g>
</g>
<!-- Node13&#45;&gt;Node9 -->
<g id="edge18_Node000013_Node000009" class="edge">
<title>Node13&#45;&gt;Node9</title>
<g id="a_edge18_Node000013_Node000009"><a xlink:title=" ">
<path fill="none" stroke="#63b8ff" d="M177.97,-247.44C185.72,-245.4 194.13,-243.41 202,-242 223.24,-238.19 501.4,-212.21 641.08,-199.28"/>
<polygon fill="#63b8ff" stroke="#63b8ff" points="641.67,-202.74 651.31,-198.33 641.03,-195.77 641.67,-202.74"/>
</a>
</g>
</g>
<!-- Node13&#45;&gt;Node10 -->
<g id="edge19_Node000013_Node000010" class="edge">
<title>Node13&#45;&gt;Node10</title>
<g id="a_edge19_Node000013_Node000010"><a xlink:title=" ">
<path fill="none" stroke="#63b8ff" d="M179.44,-247.48C186.8,-245.55 194.65,-243.6 202,-242 272.27,-226.65 353.02,-212.97 411.09,-203.82"/>
<polygon fill="#63b8ff" stroke="#63b8ff" points="411.96,-207.22 421.3,-202.22 410.88,-200.31 411.96,-207.22"/>
</a>
</g>
</g>
<!-- Node14&#45;&gt;Node6 -->
<g id="edge21_Node000014_Node000006" class="edge">
<title>Node14&#45;&gt;Node6</title>
<g id="a_edge21_Node000014_Node000006"><a xlink:title=" ">
<path fill="none" stroke="#63b8ff" d="M266.47,-247.37C273.8,-237.59 285.93,-221.42 295.19,-209.08"/>
<polygon fill="#63b8ff" stroke="#63b8ff" points="298.12,-211.01 301.32,-200.91 292.52,-206.81 298.12,-211.01"/>
</a>
</g>
</g>
<!-- Node14&#45;&gt;Node9 -->
<g id="edge22_Node000014_Node000009" class="edge">
<title>Node14&#45;&gt;Node9</title>
<g id="a_edge22_Node000014_Node000009"><a xlink:title=" ">
<path fill="none" stroke="#63b8ff" d="M309.34,-248.82C324.61,-246.61 341.5,-244.19 357,-242 454.91,-228.19 567.75,-212.72 641.29,-202.69"/>
<polygon fill="#63b8ff" stroke="#63b8ff" points="641.97,-206.13 651.4,-201.31 641.02,-199.2 641.97,-206.13"/>
</a>
</g>
</g>
<!-- Node14&#45;&gt;Node10 -->
<g id="edge23_Node000014_Node000010" class="edge">
<title>Node14&#45;&gt;Node10</title>
<g id="a_edge23_Node000014_Node000010"><a xlink:title=" ">
<path fill="none" stroke="#63b8ff" d="M291.02,-247.37C326.36,-237.54 384.96,-221.23 429.44,-208.85"/>
<polygon fill="#63b8ff" stroke="#63b8ff" points="430.58,-212.17 439.27,-206.12 428.7,-205.42 430.58,-212.17"/>
</a>
</g>
</g>
<!-- Node15&#45;&gt;Node12 -->
<g id="edge25_Node000015_Node000012" class="edge">
<title>Node15&#45;&gt;Node12</title>
<g id="a_edge25_Node000015_Node000012"><a xlink:title=" ">
<path fill="none" stroke="#63b8ff" d="M478.74,-307.87C479.43,-299.75 480.5,-287.31 481.39,-276.89"/>
<polygon fill="#63b8ff" stroke="#63b8ff" points="484.89,-276.93 482.26,-266.67 477.92,-276.33 484.89,-276.93"/>
</a>
</g>
</g>
<!-- Node16 -->
<g id="Node000016" class="node">
<title>Node16</title>
<g id="a_Node000016"><a xlink:title=" ">
<polygon fill="#e0e0e0" stroke="#999999" points="598,-266.5 548,-266.5 548,-247.5 598,-247.5 598,-266.5"/>
<text text-anchor="middle" x="573" y="-254.5" font-family="Helvetica,sans-Serif" font-size="10.00">cstdint</text>
</a>
</g>
</g>
<!-- Node15&#45;&gt;Node16 -->
<g id="edge26_Node000015_Node000016" class="edge">
<title>Node15&#45;&gt;Node16</title>
<g id="a_edge26_Node000015_Node000016"><a xlink:title=" ">
<path fill="none" stroke="#63b8ff" d="M492.02,-307.87C507.31,-298.45 532.03,-283.23 550.14,-272.08"/>
<polygon fill="#63b8ff" stroke="#63b8ff" points="552.25,-274.89 558.92,-266.67 548.57,-268.93 552.25,-274.89"/>
</a>
</g>
</g>
<!-- Node17 -->
<g id="Node000017" class="node">
<title>Node17</title>
<g id="a_Node000017"><a xlink:title=" ">
<polygon fill="#e0e0e0" stroke="#999999" points="418.5,-266.5 365.5,-266.5 365.5,-247.5 418.5,-247.5 418.5,-266.5"/>
<text text-anchor="middle" x="392" y="-254.5" font-family="Helvetica,sans-Serif" font-size="10.00">cstddef</text>
</a>
</g>
</g>
<!-- Node15&#45;&gt;Node17 -->
<g id="edge27_Node000015_Node000017" class="edge">
<title>Node15&#45;&gt;Node17</title>
<g id="a_edge27_Node000015_Node000017"><a xlink:title=" ">
<path fill="none" stroke="#63b8ff" d="M465.31,-307.87C451.59,-298.54 429.5,-283.51 413.15,-272.38"/>
<polygon fill="#63b8ff" stroke="#63b8ff" points="414.98,-269.4 404.74,-266.67 411.04,-275.19 414.98,-269.4"/>
</a>
</g>
</g>
<!-- Node18&#45;&gt;Node5 -->
<g id="edge31_Node000018_Node000005" class="edge">
<title>Node18&#45;&gt;Node5</title>
<g id="a_edge31_Node000018_Node000005"><a xlink:title=" ">
<path fill="none" stroke="#63b8ff" d="M870.22,-307.93C888.71,-301.37 909.96,-290.24 921,-272 927.9,-260.59 924.61,-254.83 921,-242 915.92,-223.95 907.25,-222.84 899,-206 885.21,-177.83 881.88,-170.36 874,-140 863.95,-101.28 858.74,-54.58 856.46,-29.18"/>
<polygon fill="#63b8ff" stroke="#63b8ff" points="859.94,-28.78 855.62,-19.11 852.97,-29.37 859.94,-28.78"/>
</a>
</g>
</g>
<!-- Node18&#45;&gt;Node6 -->
<g id="edge33_Node000018_Node000006" class="edge">
<title>Node18&#45;&gt;Node6</title>
<g id="a_edge33_Node000018_Node000006"><a xlink:title=" ">
<path fill="none" stroke="#63b8ff" d="M801.73,-313.09C762.3,-308.15 696.39,-296.73 645,-272 625.61,-262.67 626.67,-250.71 607,-242 582.98,-231.36 414.52,-206.9 341.56,-196.65"/>
<polygon fill="#63b8ff" stroke="#63b8ff" points="341.91,-193.16 331.52,-195.24 340.93,-200.1 341.91,-193.16"/>
</a>
</g>
</g>
<!-- Node18&#45;&gt;Node12 -->
<g id="edge32_Node000018_Node000012" class="edge">
<title>Node18&#45;&gt;Node12</title>
<g id="a_edge32_Node000018_Node000012"><a xlink:title=" ">
<path fill="none" stroke="#63b8ff" d="M801.96,-312.48C746.57,-305.7 633.59,-290.87 539,-272 534.33,-271.07 529.47,-270 524.64,-268.88"/>
<polygon fill="#63b8ff" stroke="#63b8ff" points="525.4,-265.46 514.86,-266.53 523.77,-272.27 525.4,-265.46"/>
</a>
</g>
</g>
<!-- Node19 -->
<g id="Node000019" class="node">
<title>Node19</title>
<g id="a_Node000019"><a xlink:title=" ">
<polygon fill="#e0e0e0" stroke="#999999" points="1239,-200.5 1197,-200.5 1197,-181.5 1239,-181.5 1239,-200.5"/>
<text text-anchor="middle" x="1218" y="-188.5" font-family="Helvetica,sans-Serif" font-size="10.00">array</text>
</a>
</g>
</g>
<!-- Node18&#45;&gt;Node19 -->
<g id="edge29_Node000018_Node000019" class="edge">
<title>Node18&#45;&gt;Node19</title>
<g id="a_edge29_Node000018_Node000019"><a xlink:title=" ">
<path fill="none" stroke="#63b8ff" d="M870.22,-309.46C873.18,-308.94 876.14,-308.44 879,-308 951.04,-296.92 1152.16,-322.2 1205,-272 1221.3,-256.51 1222.32,-229.18 1220.78,-210.83"/>
<polygon fill="#63b8ff" stroke="#63b8ff" points="1224.24,-210.28 1219.6,-200.75 1217.28,-211.09 1224.24,-210.28"/>
</a>
</g>
</g>
<!-- Node20 -->
<g id="Node000020" class="node">
<title>Node20</title>
<g id="a_Node000020"><a xlink:title=" ">
<polygon fill="#e0e0e0" stroke="#999999" points="1196,-266.5 1138,-266.5 1138,-247.5 1196,-247.5 1196,-266.5"/>
<text text-anchor="middle" x="1167" y="-254.5" font-family="Helvetica,sans-Serif" font-size="10.00">memory</text>
</a>
</g>
</g>
<!-- Node18&#45;&gt;Node20 -->
<g id="edge30_Node000018_Node000020" class="edge">
<title>Node18&#45;&gt;Node20</title>
<g id="a_edge30_Node000018_Node000020"><a xlink:title=" ">
<path fill="none" stroke="#63b8ff" d="M870.24,-309.56C873.2,-309.02 876.15,-308.49 879,-308 989.66,-289.11 1020.18,-299.56 1129,-272 1131.5,-271.37 1134.07,-270.63 1136.64,-269.82"/>
<polygon fill="#63b8ff" stroke="#63b8ff" points="1138.01,-273.05 1146.34,-266.5 1135.75,-266.43 1138.01,-273.05"/>
</a>
</g>
</g>
<!-- Node21 -->
<g id="Node000021" class="node">
<title>Node21</title>
<g id="a_Node000021"><a xlink:href="../../de/d01/StraightBlock_8h.html" target="_top" xlink:title="Modèle de domaine d&#39;un bloc de voie droite (Straight).">
<polygon fill="white" stroke="#666666" points="912,-272 760,-272 760,-242 912,-242 912,-272"/>
<text text-anchor="start" x="768" y="-260" font-family="Helvetica,sans-Serif" font-size="10.00">Modules/Elements/Shunting</text>
<text text-anchor="middle" x="836" y="-249" font-family="Helvetica,sans-Serif" font-size="10.00">Elements/StraightBlock.h</text>
</a>
</g>
</g>
<!-- Node18&#45;&gt;Node21 -->
<g id="edge34_Node000018_Node000021" class="edge">
<title>Node18&#45;&gt;Node21</title>
<g id="a_edge34_Node000018_Node000021"><a xlink:title=" ">
<path fill="none" stroke="#63b8ff" d="M836,-307.87C836,-301.11 836,-291.35 836,-282.26"/>
<polygon fill="#63b8ff" stroke="#63b8ff" points="839.5,-282.11 836,-272.11 832.5,-282.11 839.5,-282.11"/>
</a>
</g>
</g>
<!-- Node31 -->
<g id="Node000031" class="node">
<title>Node31</title>
<g id="a_Node000031"><a xlink:href="../../dc/d01/SwitchBlock_8h.html" target="_top" xlink:title="Modèle de domaine d&#39;un aiguillage ferroviaire à 3 branches.">
<polygon fill="white" stroke="#666666" points="1120,-272 968,-272 968,-242 1120,-242 1120,-272"/>
<text text-anchor="start" x="976" y="-260" font-family="Helvetica,sans-Serif" font-size="10.00">Modules/Elements/Shunting</text>
<text text-anchor="middle" x="1044" y="-249" font-family="Helvetica,sans-Serif" font-size="10.00">Elements/SwitchBlock.h</text>
</a>
</g>
</g>
<!-- Node18&#45;&gt;Node31 -->
<g id="edge50_Node000018_Node000031" class="edge">
<title>Node18&#45;&gt;Node31</title>
<g id="a_edge50_Node000018_Node000031"><a xlink:title=" ">
<path fill="none" stroke="#63b8ff" d="M866.24,-307.99C896.96,-299.35 945.37,-285.74 983.92,-274.9"/>
<polygon fill="#63b8ff" stroke="#63b8ff" points="985.31,-278.14 993.99,-272.06 983.42,-271.4 985.31,-278.14"/>
</a>
</g>
</g>
<!-- Node21&#45;&gt;Node5 -->
<g id="edge35_Node000021_Node000005" class="edge">
<title>Node21&#45;&gt;Node5</title>
<g id="a_edge35_Node000021_Node000005"><a xlink:title=" ">
<path fill="none" stroke="#63b8ff" d="M835,-241.74C832.97,-208.65 829.49,-124.21 841,-55 842.46,-46.21 845.25,-36.76 847.96,-28.84"/>
<polygon fill="#63b8ff" stroke="#63b8ff" points="851.34,-29.78 851.47,-19.19 844.76,-27.39 851.34,-29.78"/>
</a>
</g>
</g>
<!-- Node21&#45;&gt;Node6 -->
<g id="edge36_Node000021_Node000006" class="edge">
<title>Node21&#45;&gt;Node6</title>
<g id="a_edge36_Node000021_Node000006"><a xlink:title=" ">
<path fill="none" stroke="#63b8ff" d="M759.58,-243.2C756.68,-242.78 753.82,-242.38 751,-242 601.3,-221.72 563,-223.98 413,-206 389.21,-203.15 362.44,-199.57 341.88,-196.75"/>
<polygon fill="#63b8ff" stroke="#63b8ff" points="342.13,-193.25 331.75,-195.35 341.17,-200.18 342.13,-193.25"/>
</a>
</g>
</g>
<!-- Node21&#45;&gt;Node9 -->
<g id="edge48_Node000021_Node000009" class="edge">
<title>Node21&#45;&gt;Node9</title>
<g id="a_edge48_Node000021_Node000009"><a xlink:title=" ">
<path fill="none" stroke="#63b8ff" d="M810.54,-241.95C794.07,-232.87 772.43,-220.93 754.43,-211"/>
<polygon fill="#63b8ff" stroke="#63b8ff" points="755.84,-207.78 745.4,-206.01 752.46,-213.91 755.84,-207.78"/>
</a>
</g>
</g>
<!-- Node21&#45;&gt;Node10 -->
<g id="edge49_Node000021_Node000010" class="edge">
<title>Node21&#45;&gt;Node10</title>
<g id="a_edge49_Node000021_Node000010"><a xlink:title=" ">
<path fill="none" stroke="#63b8ff" d="M760.07,-241.95C703.4,-231.47 626.17,-217.19 568.82,-206.58"/>
<polygon fill="#63b8ff" stroke="#63b8ff" points="569.18,-203.09 558.71,-204.71 567.91,-209.97 569.18,-203.09"/>
</a>
</g>
</g>
<!-- Node22 -->
<g id="Node000022" class="node">
<title>Node22</title>
<g id="a_Node000022"><a xlink:href="../../df/d02/ShuntingElement_8h.html" target="_top" xlink:title="Interface abstraite pour tous les éléments de shuntage ferroviaire.">
<polygon fill="white" stroke="#666666" points="1016.5,-200.5 907.5,-200.5 907.5,-181.5 1016.5,-181.5 1016.5,-200.5"/>
<text text-anchor="middle" x="962" y="-188.5" font-family="Helvetica,sans-Serif" font-size="10.00">ShuntingElement.h</text>
</a>
</g>
</g>
<!-- Node21&#45;&gt;Node22 -->
<g id="edge37_Node000021_Node000022" class="edge">
<title>Node21&#45;&gt;Node22</title>
<g id="a_edge37_Node000021_Node000022"><a xlink:title=" ">
<path fill="none" stroke="#63b8ff" d="M863.65,-241.95C885.26,-230.98 915.08,-215.83 936.2,-205.11"/>
<polygon fill="#63b8ff" stroke="#63b8ff" points="937.9,-208.17 945.23,-200.52 934.73,-201.93 937.9,-208.17"/>
</a>
</g>
</g>
<!-- Node23 -->
<g id="Node000023" class="node">
<title>Node23</title>
<g id="a_Node000023"><a xlink:href="../../d5/d02/Element_8h.html" target="_top" xlink:title="Classe de base abstraite pour tous les éléments interactifs ferroviaires.">
<polygon fill="white" stroke="#666666" points="1041.5,-140 882.5,-140 882.5,-121 1041.5,-121 1041.5,-140"/>
<text text-anchor="middle" x="962" y="-128" font-family="Helvetica,sans-Serif" font-size="10.00">Modules/Elements/Element.h</text>
</a>
</g>
</g>
<!-- Node22&#45;&gt;Node23 -->
<g id="edge38_Node000022_Node000023" class="edge">
<title>Node22&#45;&gt;Node23</title>
<g id="a_edge38_Node000022_Node000023"><a xlink:title=" ">
<path fill="none" stroke="#63b8ff" d="M962,-181.37C962,-173.25 962,-160.81 962,-150.39"/>
<polygon fill="#63b8ff" stroke="#63b8ff" points="965.5,-150.17 962,-140.17 958.5,-150.17 965.5,-150.17"/>
</a>
</g>
</g>
<!-- Node23&#45;&gt;Node5 -->
<g id="edge39_Node000023_Node000005" class="edge">
<title>Node23&#45;&gt;Node5</title>
<g id="a_edge39_Node000023_Node000005"><a xlink:title=" ">
<path fill="none" stroke="#63b8ff" d="M954.3,-120.94C936.65,-101.31 893,-52.76 869.89,-27.07"/>
<polygon fill="#63b8ff" stroke="#63b8ff" points="872.2,-24.4 862.91,-19.3 867,-29.08 872.2,-24.4"/>
</a>
</g>
</g>
<!-- Node23&#45;&gt;Node24 -->
<g id="edge40_Node000023_Node000024" class="edge">
<title>Node23&#45;&gt;Node24</title>
<g id="a_edge40_Node000023_Node000024"><a xlink:title=" ">
<path fill="none" stroke="#63b8ff" d="M989.77,-120.99C1017.86,-112.39 1062.05,-98.86 1097.37,-88.04"/>
<polygon fill="#63b8ff" stroke="#63b8ff" points="1098.54,-91.34 1107.08,-85.06 1096.49,-84.65 1098.54,-91.34"/>
</a>
</g>
</g>
<!-- Node24&#45;&gt;Node5 -->
<g id="edge46_Node000024_Node000005" class="edge">
<title>Node24&#45;&gt;Node5</title>
<g id="a_edge46_Node000024_Node000005"><a xlink:title=" ">
<path fill="none" stroke="#63b8ff" d="M1097.22,-57.81C1092.41,-56.86 1087.62,-55.91 1083,-55 1000.38,-38.74 979.6,-35.35 897,-19 893.79,-18.36 890.44,-17.7 887.1,-17.03"/>
<polygon fill="#63b8ff" stroke="#63b8ff" points="887.72,-13.58 877.23,-15.03 886.34,-20.44 887.72,-13.58"/>
</a>
</g>
</g>
<!-- Node25 -->
<g id="Node000025" class="node">
<title>Node25</title>
<g id="a_Node000025"><a xlink:title=" ">
<polygon fill="#e0e0e0" stroke="#999999" points="1175,-19 1131,-19 1131,0 1175,0 1175,-19"/>
<text text-anchor="middle" x="1153" y="-7" font-family="Helvetica,sans-Serif" font-size="10.00">ctime</text>
</a>
</g>
</g>
<!-- Node24&#45;&gt;Node25 -->
<g id="edge41_Node000024_Node000025" class="edge">
<title>Node24&#45;&gt;Node25</title>
<g id="a_edge41_Node000024_Node000025"><a xlink:title=" ">
<path fill="none" stroke="#63b8ff" d="M1153,-54.84C1153,-47.21 1153,-37.7 1153,-29.45"/>
<polygon fill="#63b8ff" stroke="#63b8ff" points="1156.5,-29.27 1153,-19.27 1149.5,-29.27 1156.5,-29.27"/>
</a>
</g>
</g>
<!-- Node26 -->
<g id="Node000026" class="node">
<title>Node26</title>
<g id="a_Node000026"><a xlink:title=" ">
<polygon fill="#e0e0e0" stroke="#999999" points="1261,-19 1193,-19 1193,0 1261,0 1261,-19"/>
<text text-anchor="middle" x="1227" y="-7" font-family="Helvetica,sans-Serif" font-size="10.00">filesystem</text>
</a>
</g>
</g>
<!-- Node24&#45;&gt;Node26 -->
<g id="edge42_Node000024_Node000026" class="edge">
<title>Node24&#45;&gt;Node26</title>
<g id="a_edge42_Node000024_Node000026"><a xlink:title=" ">
<path fill="none" stroke="#63b8ff" d="M1170.91,-54.84C1182.09,-46 1196.48,-34.63 1207.88,-25.62"/>
<polygon fill="#63b8ff" stroke="#63b8ff" points="1210.24,-28.21 1215.91,-19.27 1205.9,-22.72 1210.24,-28.21"/>
</a>
</g>
</g>
<!-- Node27 -->
<g id="Node000027" class="node">
<title>Node27</title>
<g id="a_Node000027"><a xlink:title=" ">
<polygon fill="#e0e0e0" stroke="#999999" points="960.5,-19 905.5,-19 905.5,0 960.5,0 960.5,-19"/>
<text text-anchor="middle" x="933" y="-7" font-family="Helvetica,sans-Serif" font-size="10.00">fstream</text>
</a>
</g>
</g>
<!-- Node24&#45;&gt;Node27 -->
<g id="edge43_Node000024_Node000027" class="edge">
<title>Node24&#45;&gt;Node27</title>
<g id="a_edge43_Node000024_Node000027"><a xlink:title=" ">
<path fill="none" stroke="#63b8ff" d="M1100.3,-54.99C1060.39,-44.37 1006.51,-30.05 970.8,-20.55"/>
<polygon fill="#63b8ff" stroke="#63b8ff" points="971.35,-17.08 960.79,-17.89 969.55,-23.84 971.35,-17.08"/>
</a>
</g>
</g>
<!-- Node28 -->
<g id="Node000028" class="node">
<title>Node28</title>
<g id="a_Node000028"><a xlink:title=" ">
<polygon fill="#e0e0e0" stroke="#999999" points="1027,-19 979,-19 979,0 1027,0 1027,-19"/>
<text text-anchor="middle" x="1003" y="-7" font-family="Helvetica,sans-Serif" font-size="10.00">mutex</text>
</a>
</g>
</g>
<!-- Node24&#45;&gt;Node28 -->
<g id="edge44_Node000024_Node000028" class="edge">
<title>Node24&#45;&gt;Node28</title>
<g id="a_edge44_Node000024_Node000028"><a xlink:title=" ">
<path fill="none" stroke="#63b8ff" d="M1117.07,-54.99C1091.93,-45.18 1058.67,-32.21 1034.55,-22.81"/>
<polygon fill="#63b8ff" stroke="#63b8ff" points="1035.74,-19.51 1025.15,-19.14 1033.2,-26.03 1035.74,-19.51"/>
</a>
</g>
</g>
<!-- Node29 -->
<g id="Node000029" class="node">
<title>Node29</title>
<g id="a_Node000029"><a xlink:title=" ">
<polygon fill="#e0e0e0" stroke="#999999" points="1335,-19 1279,-19 1279,0 1335,0 1335,-19"/>
<text text-anchor="middle" x="1307" y="-7" font-family="Helvetica,sans-Serif" font-size="10.00">sstream</text>
</a>
</g>
</g>
<!-- Node24&#45;&gt;Node29 -->
<g id="edge45_Node000024_Node000029" class="edge">
<title>Node24&#45;&gt;Node29</title>
<g id="a_edge45_Node000024_Node000029"><a xlink:title=" ">
<path fill="none" stroke="#63b8ff" d="M1189.89,-54.99C1215.7,-45.18 1249.85,-32.21 1274.6,-22.81"/>
<polygon fill="#63b8ff" stroke="#63b8ff" points="1276.15,-25.96 1284.26,-19.14 1273.67,-19.42 1276.15,-25.96"/>
</a>
</g>
</g>
<!-- Node30 -->
<g id="Node000030" class="node">
<title>Node30</title>
<g id="a_Node000030"><a xlink:title=" ">
<polygon fill="#e0e0e0" stroke="#999999" points="1113,-19 1045,-19 1045,0 1113,0 1113,-19"/>
<text text-anchor="middle" x="1079" y="-7" font-family="Helvetica,sans-Serif" font-size="10.00">windows.h</text>
</a>
</g>
</g>
<!-- Node24&#45;&gt;Node30 -->
<g id="edge47_Node000024_Node000030" class="edge">
<title>Node24&#45;&gt;Node30</title>
<g id="a_edge47_Node000024_Node000030"><a xlink:title=" ">
<path fill="none" stroke="#63b8ff" d="M1135.09,-54.84C1123.91,-46 1109.52,-34.63 1098.12,-25.62"/>
<polygon fill="#63b8ff" stroke="#63b8ff" points="1100.1,-22.72 1090.09,-19.27 1095.76,-28.21 1100.1,-22.72"/>
</a>
</g>
</g>
<!-- Node31&#45;&gt;Node5 -->
<g id="edge54_Node000031_Node000005" class="edge">
<title>Node31&#45;&gt;Node5</title>
<g id="a_edge54_Node000031_Node000005"><a xlink:title=" ">
<path fill="none" stroke="#63b8ff" d="M1049.5,-241.8C1058.59,-215.8 1073.61,-159.7 1051,-121 1015.46,-60.17 932.71,-30.2 886.91,-17.81"/>
<polygon fill="#63b8ff" stroke="#63b8ff" points="887.75,-14.41 877.19,-15.29 886,-21.19 887.75,-14.41"/>
</a>
</g>
</g>
<!-- Node31&#45;&gt;Node6 -->
<g id="edge55_Node000031_Node000006" class="edge">
<title>Node31&#45;&gt;Node6</title>
<g id="a_edge55_Node000031_Node000006"><a xlink:title=" ">
<path fill="none" stroke="#63b8ff" d="M967.94,-246.83C952.42,-245.1 936.19,-243.4 921,-242 695.61,-221.2 638.18,-228.97 413,-206 389.16,-203.57 362.39,-199.99 341.85,-197.05"/>
<polygon fill="#63b8ff" stroke="#63b8ff" points="342.12,-193.56 331.72,-195.59 341.12,-200.48 342.12,-193.56"/>
</a>
</g>
</g>
<!-- Node31&#45;&gt;Node9 -->
<g id="edge56_Node000031_Node000009" class="edge">
<title>Node31&#45;&gt;Node9</title>
<g id="a_edge56_Node000031_Node000009"><a xlink:title=" ">
<path fill="none" stroke="#63b8ff" d="M972.9,-241.95C921.45,-231.79 851.91,-218.06 798.78,-207.56"/>
<polygon fill="#63b8ff" stroke="#63b8ff" points="799.2,-204.08 788.72,-205.57 797.85,-210.94 799.2,-204.08"/>
</a>
</g>
</g>
<!-- Node31&#45;&gt;Node10 -->
<g id="edge57_Node000031_Node000010" class="edge">
<title>Node31&#45;&gt;Node10</title>
<g id="a_edge57_Node000031_Node000010"><a xlink:title=" ">
<path fill="none" stroke="#63b8ff" d="M967.84,-247.2C862.97,-235.09 675.04,-213.38 568.8,-201.1"/>
<polygon fill="#63b8ff" stroke="#63b8ff" points="569.11,-197.62 558.78,-199.95 568.31,-204.57 569.11,-197.62"/>
</a>
</g>
</g>
<!-- Node31&#45;&gt;Node19 -->
<g id="edge51_Node000031_Node000019" class="edge">
<title>Node31&#45;&gt;Node19</title>
<g id="a_edge51_Node000031_Node000019"><a xlink:title=" ">
<path fill="none" stroke="#63b8ff" d="M1084.28,-241.93C1112.11,-232.11 1149.91,-218.56 1183,-206 1184.41,-205.46 1185.86,-204.91 1187.32,-204.34"/>
<polygon fill="#63b8ff" stroke="#63b8ff" points="1188.92,-207.47 1196.95,-200.56 1186.36,-200.96 1188.92,-207.47"/>
</a>
</g>
</g>
<!-- Node31&#45;&gt;Node22 -->
<g id="edge58_Node000031_Node000022" class="edge">
<title>Node31&#45;&gt;Node22</title>
<g id="a_edge58_Node000031_Node000022"><a xlink:title=" ">
<path fill="none" stroke="#63b8ff" d="M1025.8,-241.8C1012.64,-231.53 994.89,-217.67 981.45,-207.18"/>
<polygon fill="#63b8ff" stroke="#63b8ff" points="983.37,-204.24 973.33,-200.84 979.06,-209.76 983.37,-204.24"/>
</a>
</g>
</g>
<!-- Node31&#45;&gt;Node29 -->
<g id="edge53_Node000031_Node000029" class="edge">
<title>Node31&#45;&gt;Node29</title>
<g id="a_edge53_Node000031_Node000029"><a xlink:title=" ">
<path fill="none" stroke="#63b8ff" d="M1084.44,-241.98C1105.31,-233.54 1130.42,-221.43 1150,-206 1217.79,-152.57 1274.75,-64.63 1296.99,-27.68"/>
<polygon fill="#63b8ff" stroke="#63b8ff" points="1300.02,-29.45 1302.11,-19.06 1294,-25.88 1300.02,-29.45"/>
</a>
</g>
</g>
<!-- Node32 -->
<g id="Node000032" class="node">
<title>Node32</title>
<g id="a_Node000032"><a xlink:title=" ">
<polygon fill="#e0e0e0" stroke="#999999" points="1141,-200.5 1085,-200.5 1085,-181.5 1141,-181.5 1141,-200.5"/>
<text text-anchor="middle" x="1113" y="-188.5" font-family="Helvetica,sans-Serif" font-size="10.00">optional</text>
</a>
</g>
</g>
<!-- Node31&#45;&gt;Node32 -->
<g id="edge52_Node000031_Node000032" class="edge">
<title>Node31&#45;&gt;Node32</title>
<g id="a_edge52_Node000031_Node000032"><a xlink:title=" ">
<path fill="none" stroke="#63b8ff" d="M1059.31,-241.8C1070.18,-231.72 1084.76,-218.19 1095.99,-207.78"/>
<polygon fill="#63b8ff" stroke="#63b8ff" points="1098.51,-210.21 1103.46,-200.84 1093.75,-205.08 1098.51,-210.21"/>
</a>
</g>
</g>
</g>
</svg>
