<?xml version="1.0" encoding="UTF-8" standalone="no"?>
<!DOCTYPE svg PUBLIC "-//W3C//DTD SVG 1.1//EN"
 "http://www.w3.org/Graphics/SVG/1.1/DTD/svg11.dtd">
<!-- Generated by graphviz version 2.43.0 (0)
 -->
<!-- Title: SimulateurFerroviaire/Modules/PCC/PCCGraphBuilder.cpp Pages: 1 -->
<svg width="965pt" height="533pt"
 viewBox="0.00 0.00 965.00 533.00" xmlns="http://www.w3.org/2000/svg" xmlns:xlink="http://www.w3.org/1999/xlink">
<g id="graph0" class="graph" transform="scale(1 1) rotate(0) translate(4 529)">
<title>SimulateurFerroviaire/Modules/PCC/PCCGraphBuilder.cpp</title>
<!-- Node1 -->
<g id="Node000001" class="node">
<title>Node1</title>
<g id="a_Node000001"><a xlink:title="Implémentation du constructeur du graphe PCC.">
<polygon fill="#999999" stroke="#666666" points="434,-525 245,-525 245,-495 434,-495 434,-525"/>
<text text-anchor="start" x="253" y="-513" font-family="Helvetica,sans-Serif" font-size="10.00">SimulateurFerroviaire</text>
<text text-anchor="middle" x="339.5" y="-502" font-family="Helvetica,sans-Serif" font-size="10.00">/Modules/PCC/PCCGraphBuilder.cpp</text>
</a>
</g>
</g>
<!-- Node2 -->
<g id="Node000002" class="node">
<title>Node2</title>
<g id="a_Node000002"><a xlink:href="../../db/d02/PCCGraphBuilder_8h.html" target="_top" xlink:title="Constructeur du graphe PCC depuis TopologyRepository.">
<polygon fill="white" stroke="#666666" points="465.5,-453.5 357.5,-453.5 357.5,-434.5 465.5,-434.5 465.5,-453.5"/>
<text text-anchor="middle" x="411.5" y="-441.5" font-family="Helvetica,sans-Serif" font-size="10.00">PCCGraphBuilder.h</text>
</a>
</g>
</g>
<!-- Node1&#45;&gt;Node2 -->
<g id="edge1_Node000001_Node000002" class="edge">
<title>Node1&#45;&gt;Node2</title>
<g id="a_edge1_Node000001_Node000002"><a xlink:title=" ">
<path fill="none" stroke="#63b8ff" d="M355.48,-494.8C366.81,-484.72 382.03,-471.19 393.75,-460.78"/>
<polygon fill="#63b8ff" stroke="#63b8ff" points="396.4,-463.1 401.55,-453.84 391.75,-457.87 396.4,-463.1"/>
</a>
</g>
</g>
<!-- Node24 -->
<g id="Node000024" class="node">
<title>Node24</title>
<g id="a_Node000024"><a xlink:href="../../de/d00/TopologyRepository_8h.html" target="_top" xlink:title="Singleton de stockage des données topologiques ferroviaires.">
<polygon fill="white" stroke="#666666" points="334,-459 211,-459 211,-429 334,-429 334,-459"/>
<text text-anchor="start" x="219" y="-447" font-family="Helvetica,sans-Serif" font-size="10.00">Engine/Core/Topology</text>
<text text-anchor="middle" x="272.5" y="-436" font-family="Helvetica,sans-Serif" font-size="10.00">/TopologyRepository.h</text>
</a>
</g>
</g>
<!-- Node1&#45;&gt;Node24 -->
<g id="edge44_Node000001_Node000024" class="edge">
<title>Node1&#45;&gt;Node24</title>
<g id="a_edge44_Node000001_Node000024"><a xlink:title=" ">
<path fill="none" stroke="#63b8ff" d="M324.63,-494.8C315.87,-486.43 304.62,-475.68 294.81,-466.31"/>
<polygon fill="#63b8ff" stroke="#63b8ff" points="296.98,-463.54 287.33,-459.16 292.14,-468.6 296.98,-463.54"/>
</a>
</g>
</g>
<!-- Node25 -->
<g id="Node000025" class="node">
<title>Node25</title>
<g id="a_Node000025"><a xlink:href="../../d6/d02/TopologyData_8h.html" target="_top" xlink:title="Conteneur central des données topologiques ferroviaires.">
<polygon fill="white" stroke="#666666" points="174.5,-393 82.5,-393 82.5,-374 174.5,-374 174.5,-393"/>
<text text-anchor="middle" x="128.5" y="-381" font-family="Helvetica,sans-Serif" font-size="10.00">TopologyData.h</text>
</a>
</g>
</g>
<!-- Node1&#45;&gt;Node25 -->
<g id="edge51_Node000001_Node000025" class="edge">
<title>Node1&#45;&gt;Node25</title>
<g id="a_edge51_Node000001_Node000025"><a xlink:title=" ">
<path fill="none" stroke="#63b8ff" d="M283.47,-494.95C257.29,-486.86 226.47,-475.06 201.5,-459 177.08,-443.3 154.62,-418.04 141.24,-401.36"/>
<polygon fill="#63b8ff" stroke="#63b8ff" points="143.7,-398.82 134.78,-393.09 138.18,-403.13 143.7,-398.82"/>
</a>
</g>
</g>
<!-- Node26 -->
<g id="Node000026" class="node">
<title>Node26</title>
<g id="a_Node000026"><a xlink:title=" ">
<polygon fill="#e0e0e0" stroke="#999999" points="569.5,-453.5 483.5,-453.5 483.5,-434.5 569.5,-434.5 569.5,-453.5"/>
<text text-anchor="middle" x="526.5" y="-441.5" font-family="Helvetica,sans-Serif" font-size="10.00">unordered_set</text>
</a>
</g>
</g>
<!-- Node1&#45;&gt;Node26 -->
<g id="edge52_Node000001_Node000026" class="edge">
<title>Node1&#45;&gt;Node26</title>
<g id="a_edge52_Node000001_Node000026"><a xlink:title=" ">
<path fill="none" stroke="#63b8ff" d="M380.54,-494.95C413.91,-483.53 460.47,-467.6 491.96,-456.82"/>
<polygon fill="#63b8ff" stroke="#63b8ff" points="493.29,-460.07 501.61,-453.52 491.02,-453.44 493.29,-460.07"/>
</a>
</g>
</g>
<!-- Node3 -->
<g id="Node000003" class="node">
<title>Node3</title>
<g id="a_Node000003"><a xlink:href="../../d8/d00/PCCGraph_8h.html" target="_top" xlink:title="Conteneur propriétaire du graphe PCC.">
<polygon fill="white" stroke="#666666" points="451.5,-393 377.5,-393 377.5,-374 451.5,-374 451.5,-393"/>
<text text-anchor="middle" x="414.5" y="-381" font-family="Helvetica,sans-Serif" font-size="10.00">PCCGraph.h</text>
</a>
</g>
</g>
<!-- Node2&#45;&gt;Node3 -->
<g id="edge2_Node000002_Node000003" class="edge">
<title>Node2&#45;&gt;Node3</title>
<g id="a_edge2_Node000002_Node000003"><a xlink:title=" ">
<path fill="none" stroke="#63b8ff" d="M411.94,-434.37C412.36,-426.25 413,-413.81 413.53,-403.39"/>
<polygon fill="#63b8ff" stroke="#63b8ff" points="417.04,-403.33 414.06,-393.17 410.05,-402.97 417.04,-403.33"/>
</a>
</g>
</g>
<!-- Node9 -->
<g id="Node000009" class="node">
<title>Node9</title>
<g id="a_Node000009"><a xlink:href="../../dd/d00/Logger_8h.html" target="_top" xlink:title="Système de journalisation à 5 niveaux de trace, un fichier par moteur.">
<polygon fill="white" stroke="#666666" points="835,-85 724,-85 724,-55 835,-55 835,-85"/>
<text text-anchor="start" x="732" y="-73" font-family="Helvetica,sans-Serif" font-size="10.00">Engine/Core/Logger</text>
<text text-anchor="middle" x="779.5" y="-62" font-family="Helvetica,sans-Serif" font-size="10.00">/Logger.h</text>
</a>
</g>
</g>
<!-- Node2&#45;&gt;Node9 -->
<g id="edge43_Node000002_Node000009" class="edge">
<title>Node2&#45;&gt;Node9</title>
<g id="a_edge43_Node000002_Node000009"><a xlink:title=" ">
<path fill="none" stroke="#63b8ff" d="M449.56,-434.44C558.29,-409.85 862.5,-340.11 862.5,-329.5 862.5,-329.5 862.5,-329.5 862.5,-201 862.5,-157.02 828.34,-115.97 803.85,-92.19"/>
<polygon fill="#63b8ff" stroke="#63b8ff" points="805.98,-89.39 796.3,-85.09 801.19,-94.49 805.98,-89.39"/>
</a>
</g>
</g>
<!-- Node4 -->
<g id="Node000004" class="node">
<title>Node4</title>
<g id="a_Node000004"><a xlink:title=" ">
<polygon fill="#e0e0e0" stroke="#999999" points="157.5,-338 99.5,-338 99.5,-319 157.5,-319 157.5,-338"/>
<text text-anchor="middle" x="128.5" y="-326" font-family="Helvetica,sans-Serif" font-size="10.00">memory</text>
</a>
</g>
</g>
<!-- Node3&#45;&gt;Node4 -->
<g id="edge3_Node000003_Node000004" class="edge">
<title>Node3&#45;&gt;Node4</title>
<g id="a_edge3_Node000003_Node000004"><a xlink:title=" ">
<path fill="none" stroke="#63b8ff" d="M377.43,-376.35C330.77,-368.51 247.91,-354.21 167.33,-338.1"/>
<polygon fill="#63b8ff" stroke="#63b8ff" points="168.01,-334.66 157.52,-336.12 166.63,-341.53 168.01,-334.66"/>
</a>
</g>
</g>
<!-- Node5 -->
<g id="Node000005" class="node">
<title>Node5</title>
<g id="a_Node000005"><a xlink:title=" ">
<polygon fill="#e0e0e0" stroke="#999999" points="544.5,-19 500.5,-19 500.5,0 544.5,0 544.5,-19"/>
<text text-anchor="middle" x="522.5" y="-7" font-family="Helvetica,sans-Serif" font-size="10.00">string</text>
</a>
</g>
</g>
<!-- Node3&#45;&gt;Node5 -->
<g id="edge4_Node000003_Node000005" class="edge">
<title>Node3&#45;&gt;Node5</title>
<g id="a_edge4_Node000003_Node000005"><a xlink:title=" ">
<path fill="none" stroke="#63b8ff" d="M451.73,-379.45C511.32,-373.95 624.76,-360.78 657.5,-338 686.78,-317.63 698.5,-304.67 698.5,-269 698.5,-269 698.5,-269 698.5,-201 698.5,-114.25 598.82,-50.18 549.49,-23.78"/>
<polygon fill="#63b8ff" stroke="#63b8ff" points="550.83,-20.53 540.34,-19.01 547.59,-26.74 550.83,-20.53"/>
</a>
</g>
</g>
<!-- Node6 -->
<g id="Node000006" class="node">
<title>Node6</title>
<g id="a_Node000006"><a xlink:title=" ">
<polygon fill="#e0e0e0" stroke="#999999" points="269,-338 176,-338 176,-319 269,-319 269,-338"/>
<text text-anchor="middle" x="222.5" y="-326" font-family="Helvetica,sans-Serif" font-size="10.00">unordered_map</text>
</a>
</g>
</g>
<!-- Node3&#45;&gt;Node6 -->
<g id="edge5_Node000003_Node000006" class="edge">
<title>Node3&#45;&gt;Node6</title>
<g id="a_edge5_Node000003_Node000006"><a xlink:title=" ">
<path fill="none" stroke="#63b8ff" d="M383.65,-373.98C351,-364.97 299.3,-350.7 263.3,-340.76"/>
<polygon fill="#63b8ff" stroke="#63b8ff" points="264.16,-337.37 253.59,-338.08 262.3,-344.12 264.16,-337.37"/>
</a>
</g>
</g>
<!-- Node7 -->
<g id="Node000007" class="node">
<title>Node7</title>
<g id="a_Node000007"><a xlink:title=" ">
<polygon fill="#e0e0e0" stroke="#999999" points="47,-211.5 0,-211.5 0,-192.5 47,-192.5 47,-211.5"/>
<text text-anchor="middle" x="23.5" y="-199.5" font-family="Helvetica,sans-Serif" font-size="10.00">vector</text>
</a>
</g>
</g>
<!-- Node3&#45;&gt;Node7 -->
<g id="edge6_Node000003_Node000007" class="edge">
<title>Node3&#45;&gt;Node7</title>
<g id="a_edge6_Node000003_Node000007"><a xlink:title=" ">
<path fill="none" stroke="#63b8ff" d="M392.91,-373.92C371.86,-365.38 339.1,-351.63 311.5,-338 295.98,-330.34 293.79,-324.85 277.5,-319 193.32,-288.77 154.8,-331.26 79.5,-283 56.14,-268.03 39.76,-239.49 30.98,-220.86"/>
<polygon fill="#63b8ff" stroke="#63b8ff" points="34.16,-219.39 26.89,-211.68 27.76,-222.24 34.16,-219.39"/>
</a>
</g>
</g>
<!-- Node8 -->
<g id="Node000008" class="node">
<title>Node8</title>
<g id="a_Node000008"><a xlink:href="../../d1/d02/PCCEdge_8h.html" target="_top" xlink:title="Connexion orientée entre deux nœuds du graphe PCC.">
<polygon fill="white" stroke="#666666" points="796,-211.5 727,-211.5 727,-192.5 796,-192.5 796,-211.5"/>
<text text-anchor="middle" x="761.5" y="-199.5" font-family="Helvetica,sans-Serif" font-size="10.00">PCCEdge.h</text>
</a>
</g>
</g>
<!-- Node3&#45;&gt;Node8 -->
<g id="edge7_Node000003_Node000008" class="edge">
<title>Node3&#45;&gt;Node8</title>
<g id="a_edge7_Node000003_Node000008"><a xlink:title=" ">
<path fill="none" stroke="#63b8ff" d="M451.56,-381.59C522.34,-379.11 673.22,-370.12 712.5,-338 748.11,-308.88 757.85,-251.61 760.5,-221.89"/>
<polygon fill="#63b8ff" stroke="#63b8ff" points="764.01,-221.87 761.23,-211.64 757.03,-221.37 764.01,-221.87"/>
</a>
</g>
</g>
<!-- Node3&#45;&gt;Node9 -->
<g id="edge40_Node000003_Node000009" class="edge">
<title>Node3&#45;&gt;Node9</title>
<g id="a_edge40_Node000003_Node000009"><a xlink:title=" ">
<path fill="none" stroke="#63b8ff" d="M451.6,-383.37C512.94,-383.51 638.25,-378.25 734.5,-338 781,-318.55 824.5,-319.4 824.5,-269 824.5,-269 824.5,-269 824.5,-201 824.5,-161.82 806.02,-119.47 792.75,-94.11"/>
<polygon fill="#63b8ff" stroke="#63b8ff" points="795.8,-92.39 787.96,-85.26 789.64,-95.72 795.8,-92.39"/>
</a>
</g>
</g>
<!-- Node15 -->
<g id="Node000015" class="node">
<title>Node15</title>
<g id="a_Node000015"><a xlink:href="../../d6/d01/PCCNode_8h.html" target="_top" xlink:title="Nœud abstrait du graphe PCC représentant un bloc ferroviaire.">
<polygon fill="white" stroke="#666666" points="618,-277.5 547,-277.5 547,-258.5 618,-258.5 618,-277.5"/>
<text text-anchor="middle" x="582.5" y="-265.5" font-family="Helvetica,sans-Serif" font-size="10.00">PCCNode.h</text>
</a>
</g>
</g>
<!-- Node3&#45;&gt;Node15 -->
<g id="edge15_Node000003_Node000015" class="edge">
<title>Node3&#45;&gt;Node15</title>
<g id="a_edge15_Node000003_Node000015"><a xlink:title=" ">
<path fill="none" stroke="#63b8ff" d="M451.75,-380.75C509.86,-377.15 617.89,-366.68 641.5,-338 657.43,-318.64 630.78,-296.7 608.32,-282.86"/>
<polygon fill="#63b8ff" stroke="#63b8ff" points="609.79,-279.66 599.39,-277.62 606.25,-285.7 609.79,-279.66"/>
</a>
</g>
</g>
<!-- Node18 -->
<g id="Node000018" class="node">
<title>Node18</title>
<g id="a_Node000018"><a xlink:href="../../d2/d03/PCCStraightNode_8h.html" target="_top" xlink:title="Nœud PCC représentant un StraightBlock.">
<polygon fill="white" stroke="#666666" points="511,-338 402,-338 402,-319 511,-319 511,-338"/>
<text text-anchor="middle" x="456.5" y="-326" font-family="Helvetica,sans-Serif" font-size="10.00">PCCStraightNode.h</text>
</a>
</g>
</g>
<!-- Node3&#45;&gt;Node18 -->
<g id="edge24_Node000003_Node000018" class="edge">
<title>Node3&#45;&gt;Node18</title>
<g id="a_edge24_Node000003_Node000018"><a xlink:title=" ">
<path fill="none" stroke="#63b8ff" d="M421.44,-373.75C427.37,-366.26 436.07,-355.28 443.32,-346.13"/>
<polygon fill="#63b8ff" stroke="#63b8ff" points="446.23,-348.1 449.69,-338.09 440.74,-343.75 446.23,-348.1"/>
</a>
</g>
</g>
<!-- Node19 -->
<g id="Node000019" class="node">
<title>Node19</title>
<g id="a_Node000019"><a xlink:href="../../de/d01/StraightBlock_8h.html" target="_top" xlink:title="Modèle de domaine d&#39;un bloc de voie droite (Straight).">
<polygon fill="white" stroke="#666666" points="274,-283 89,-283 89,-253 274,-253 274,-283"/>
<text text-anchor="start" x="97" y="-271" font-family="Helvetica,sans-Serif" font-size="10.00">Modules/InteractiveElements</text>
<text text-anchor="middle" x="181.5" y="-260" font-family="Helvetica,sans-Serif" font-size="10.00">/ShuntingElements/StraightBlock.h</text>
</a>
</g>
</g>
<!-- Node3&#45;&gt;Node19 -->
<g id="edge41_Node000003_Node000019" class="edge">
<title>Node3&#45;&gt;Node19</title>
<g id="a_edge41_Node000003_Node000019"><a xlink:title=" ">
<path fill="none" stroke="#63b8ff" d="M402.24,-373.9C383.37,-360.9 345.76,-335.97 311.5,-319 286.55,-306.64 257.75,-295.29 233.6,-286.53"/>
<polygon fill="#63b8ff" stroke="#63b8ff" points="234.51,-283.14 223.91,-283.07 232.15,-289.73 234.51,-283.14"/>
</a>
</g>
</g>
<!-- Node21 -->
<g id="Node000021" class="node">
<title>Node21</title>
<g id="a_Node000021"><a xlink:href="../../dc/d01/PCCSwitchNode_8h.html" target="_top" xlink:title="Nœud PCC représentant un SwitchBlock.">
<polygon fill="white" stroke="#666666" points="632,-338 529,-338 529,-319 632,-319 632,-338"/>
<text text-anchor="middle" x="580.5" y="-326" font-family="Helvetica,sans-Serif" font-size="10.00">PCCSwitchNode.h</text>
</a>
</g>
</g>
<!-- Node3&#45;&gt;Node21 -->
<g id="edge31_Node000003_Node000021" class="edge">
<title>Node3&#45;&gt;Node21</title>
<g id="a_edge31_Node000003_Node000021"><a xlink:title=" ">
<path fill="none" stroke="#63b8ff" d="M441.17,-373.98C469.04,-365.09 512.95,-351.07 544.02,-341.15"/>
<polygon fill="#63b8ff" stroke="#63b8ff" points="545.16,-344.46 553.62,-338.08 543.03,-337.79 545.16,-344.46"/>
</a>
</g>
</g>
<!-- Node22 -->
<g id="Node000022" class="node">
<title>Node22</title>
<g id="a_Node000022"><a xlink:href="../../dc/d01/SwitchBlock_8h.html" target="_top" xlink:title="Modèle de domaine d&#39;un aiguillage ferroviaire à 3 branches.">
<polygon fill="white" stroke="#666666" points="471,-283 292,-283 292,-253 471,-253 471,-283"/>
<text text-anchor="start" x="300" y="-271" font-family="Helvetica,sans-Serif" font-size="10.00">Modules/InteractiveElements</text>
<text text-anchor="middle" x="381.5" y="-260" font-family="Helvetica,sans-Serif" font-size="10.00">/ShuntingElements/SwitchBlock.h</text>
</a>
</g>
</g>
<!-- Node3&#45;&gt;Node22 -->
<g id="edge42_Node000003_Node000022" class="edge">
<title>Node3&#45;&gt;Node22</title>
<g id="a_edge42_Node000003_Node000022"><a xlink:title=" ">
<path fill="none" stroke="#63b8ff" d="M409.31,-373.96C404.24,-365.24 396.69,-351.14 392.5,-338 387.89,-323.55 385.16,-306.76 383.58,-293.36"/>
<polygon fill="#63b8ff" stroke="#63b8ff" points="387.02,-292.61 382.49,-283.03 380.05,-293.34 387.02,-292.61"/>
</a>
</g>
</g>
<!-- Node8&#45;&gt;Node9 -->
<g id="edge8_Node000008_Node000009" class="edge">
<title>Node8&#45;&gt;Node9</title>
<g id="a_edge8_Node000008_Node000009"><a xlink:title=" ">
<path fill="none" stroke="#63b8ff" d="M762.68,-192.47C765.38,-172.95 772.1,-124.45 776.18,-94.97"/>
<polygon fill="#63b8ff" stroke="#63b8ff" points="779.65,-95.45 777.55,-85.07 772.71,-94.49 779.65,-95.45"/>
</a>
</g>
</g>
<!-- Node9&#45;&gt;Node5 -->
<g id="edge14_Node000009_Node000005" class="edge">
<title>Node9&#45;&gt;Node5</title>
<g id="a_edge14_Node000009_Node000005"><a xlink:title=" ">
<path fill="none" stroke="#63b8ff" d="M723.73,-56.31C672.02,-44.53 596.87,-27.43 554.56,-17.8"/>
<polygon fill="#63b8ff" stroke="#63b8ff" points="555.07,-14.32 544.54,-15.52 553.52,-21.15 555.07,-14.32"/>
</a>
</g>
</g>
<!-- Node10 -->
<g id="Node000010" class="node">
<title>Node10</title>
<g id="a_Node000010"><a xlink:title=" ">
<polygon fill="#e0e0e0" stroke="#999999" points="797.5,-19 753.5,-19 753.5,0 797.5,0 797.5,-19"/>
<text text-anchor="middle" x="775.5" y="-7" font-family="Helvetica,sans-Serif" font-size="10.00">ctime</text>
</a>
</g>
</g>
<!-- Node9&#45;&gt;Node10 -->
<g id="edge9_Node000009_Node000010" class="edge">
<title>Node9&#45;&gt;Node10</title>
<g id="a_edge9_Node000009_Node000010"><a xlink:title=" ">
<path fill="none" stroke="#63b8ff" d="M778.53,-54.84C778.01,-47.21 777.36,-37.7 776.8,-29.45"/>
<polygon fill="#63b8ff" stroke="#63b8ff" points="780.27,-29 776.1,-19.27 773.29,-29.48 780.27,-29"/>
</a>
</g>
</g>
<!-- Node11 -->
<g id="Node000011" class="node">
<title>Node11</title>
<g id="a_Node000011"><a xlink:title=" ">
<polygon fill="#e0e0e0" stroke="#999999" points="883.5,-19 815.5,-19 815.5,0 883.5,0 883.5,-19"/>
<text text-anchor="middle" x="849.5" y="-7" font-family="Helvetica,sans-Serif" font-size="10.00">filesystem</text>
</a>
</g>
</g>
<!-- Node9&#45;&gt;Node11 -->
<g id="edge10_Node000009_Node000011" class="edge">
<title>Node9&#45;&gt;Node11</title>
<g id="a_edge10_Node000009_Node000011"><a xlink:title=" ">
<path fill="none" stroke="#63b8ff" d="M796.45,-54.84C806.92,-46.09 820.36,-34.85 831.09,-25.88"/>
<polygon fill="#63b8ff" stroke="#63b8ff" points="833.58,-28.36 839.01,-19.27 829.09,-22.99 833.58,-28.36"/>
</a>
</g>
</g>
<!-- Node12 -->
<g id="Node000012" class="node">
<title>Node12</title>
<g id="a_Node000012"><a xlink:title=" ">
<polygon fill="#e0e0e0" stroke="#999999" points="957,-19 902,-19 902,0 957,0 957,-19"/>
<text text-anchor="middle" x="929.5" y="-7" font-family="Helvetica,sans-Serif" font-size="10.00">fstream</text>
</a>
</g>
</g>
<!-- Node9&#45;&gt;Node12 -->
<g id="edge11_Node000009_Node000012" class="edge">
<title>Node9&#45;&gt;Node12</title>
<g id="a_edge11_Node000009_Node000012"><a xlink:title=" ">
<path fill="none" stroke="#63b8ff" d="M815.43,-54.99C840.57,-45.18 873.83,-32.21 897.95,-22.81"/>
<polygon fill="#63b8ff" stroke="#63b8ff" points="899.3,-26.03 907.35,-19.14 896.76,-19.51 899.3,-26.03"/>
</a>
</g>
</g>
<!-- Node13 -->
<g id="Node000013" class="node">
<title>Node13</title>
<g id="a_Node000013"><a xlink:title=" ">
<polygon fill="#e0e0e0" stroke="#999999" points="735.5,-19 687.5,-19 687.5,0 735.5,0 735.5,-19"/>
<text text-anchor="middle" x="711.5" y="-7" font-family="Helvetica,sans-Serif" font-size="10.00">mutex</text>
</a>
</g>
</g>
<!-- Node9&#45;&gt;Node13 -->
<g id="edge12_Node000009_Node000013" class="edge">
<title>Node9&#45;&gt;Node13</title>
<g id="a_edge12_Node000009_Node000013"><a xlink:title=" ">
<path fill="none" stroke="#63b8ff" d="M763.04,-54.84C752.87,-46.09 739.81,-34.85 729.38,-25.88"/>
<polygon fill="#63b8ff" stroke="#63b8ff" points="731.55,-23.13 721.69,-19.27 726.99,-28.44 731.55,-23.13"/>
</a>
</g>
</g>
<!-- Node14 -->
<g id="Node000014" class="node">
<title>Node14</title>
<g id="a_Node000014"><a xlink:title=" ">
<polygon fill="#e0e0e0" stroke="#999999" points="656.5,-19 600.5,-19 600.5,0 656.5,0 656.5,-19"/>
<text text-anchor="middle" x="628.5" y="-7" font-family="Helvetica,sans-Serif" font-size="10.00">sstream</text>
</a>
</g>
</g>
<!-- Node9&#45;&gt;Node14 -->
<g id="edge13_Node000009_Node000014" class="edge">
<title>Node9&#45;&gt;Node14</title>
<g id="a_edge13_Node000009_Node000014"><a xlink:title=" ">
<path fill="none" stroke="#63b8ff" d="M743.33,-54.99C718.03,-45.18 684.54,-32.21 660.26,-22.81"/>
<polygon fill="#63b8ff" stroke="#63b8ff" points="661.39,-19.49 650.8,-19.14 658.86,-26.02 661.39,-19.49"/>
</a>
</g>
</g>
<!-- Node15&#45;&gt;Node5 -->
<g id="edge16_Node000015_Node000005" class="edge">
<title>Node15&#45;&gt;Node5</title>
<g id="a_edge16_Node000015_Node000005"><a xlink:title=" ">
<path fill="none" stroke="#63b8ff" d="M582.26,-258.31C581.46,-235.47 578.17,-172.02 565.5,-121 557.1,-87.18 541,-49.76 531.06,-28.3"/>
<polygon fill="#63b8ff" stroke="#63b8ff" points="534.17,-26.68 526.74,-19.13 527.84,-29.67 534.17,-26.68"/>
</a>
</g>
</g>
<!-- Node15&#45;&gt;Node7 -->
<g id="edge17_Node000015_Node000007" class="edge">
<title>Node15&#45;&gt;Node7</title>
<g id="a_edge17_Node000015_Node000007"><a xlink:title=" ">
<path fill="none" stroke="#63b8ff" d="M546.8,-261.77C526.99,-258.97 501.91,-255.57 479.5,-253 308.76,-233.42 264.58,-241.66 94.5,-217 82.19,-215.22 68.78,-212.72 56.97,-210.32"/>
<polygon fill="#63b8ff" stroke="#63b8ff" points="57.57,-206.87 47.06,-208.27 56.14,-213.73 57.57,-206.87"/>
</a>
</g>
</g>
<!-- Node15&#45;&gt;Node8 -->
<g id="edge18_Node000015_Node000008" class="edge">
<title>Node15&#45;&gt;Node8</title>
<g id="a_edge18_Node000015_Node000008"><a xlink:title=" ">
<path fill="none" stroke="#63b8ff" d="M606.64,-258.37C637.82,-247.22 692.27,-227.75 727.6,-215.12"/>
<polygon fill="#63b8ff" stroke="#63b8ff" points="729.22,-218.26 737.46,-211.6 726.86,-211.67 729.22,-218.26"/>
</a>
</g>
</g>
<!-- Node15&#45;&gt;Node9 -->
<g id="edge23_Node000015_Node000009" class="edge">
<title>Node15&#45;&gt;Node9</title>
<g id="a_edge23_Node000015_Node000009"><a xlink:title=" ">
<path fill="none" stroke="#63b8ff" d="M592.19,-258.29C603.1,-248.42 621.29,-231.79 636.5,-217 680.91,-173.82 731.26,-121.63 758.79,-92.8"/>
<polygon fill="#63b8ff" stroke="#63b8ff" points="761.55,-94.97 765.92,-85.32 756.49,-90.14 761.55,-94.97"/>
</a>
</g>
</g>
<!-- Node16 -->
<g id="Node000016" class="node">
<title>Node16</title>
<g id="a_Node000016"><a xlink:href="../../df/d02/ShuntingElement_8h.html" target="_top" xlink:title="Interface abstraite pour tous les éléments de shuntage ferroviaire.">
<polygon fill="white" stroke="#666666" points="483,-217 280,-217 280,-187 483,-187 483,-217"/>
<text text-anchor="start" x="288" y="-205" font-family="Helvetica,sans-Serif" font-size="10.00">Modules/InteractiveElements</text>
<text text-anchor="middle" x="381.5" y="-194" font-family="Helvetica,sans-Serif" font-size="10.00">/ShuntingElements/ShuntingElement.h</text>
</a>
</g>
</g>
<!-- Node15&#45;&gt;Node16 -->
<g id="edge19_Node000015_Node000016" class="edge">
<title>Node15&#45;&gt;Node16</title>
<g id="a_edge19_Node000015_Node000016"><a xlink:title=" ">
<path fill="none" stroke="#63b8ff" d="M555.39,-258.37C524.77,-248.62 474.16,-232.5 435.41,-220.16"/>
<polygon fill="#63b8ff" stroke="#63b8ff" points="436.42,-216.81 425.83,-217.12 434.3,-223.48 436.42,-216.81"/>
</a>
</g>
</g>
<!-- Node17 -->
<g id="Node000017" class="node">
<title>Node17</title>
<g id="a_Node000017"><a xlink:href="../../d6/d02/InteractiveElement_8h.html" target="_top" xlink:title="Classe de base abstraite pour tous les éléments interactifs ferroviaires.">
<polygon fill="white" stroke="#666666" points="557,-151 398,-151 398,-121 557,-121 557,-151"/>
<text text-anchor="start" x="406" y="-139" font-family="Helvetica,sans-Serif" font-size="10.00">Modules/InteractiveElements</text>
<text text-anchor="middle" x="477.5" y="-128" font-family="Helvetica,sans-Serif" font-size="10.00">/InteractiveElement.h</text>
</a>
</g>
</g>
<!-- Node16&#45;&gt;Node17 -->
<g id="edge20_Node000016_Node000017" class="edge">
<title>Node16&#45;&gt;Node17</title>
<g id="a_edge20_Node000016_Node000017"><a xlink:title=" ">
<path fill="none" stroke="#63b8ff" d="M402.81,-186.8C415.98,-178.01 433.09,-166.61 447.61,-156.93"/>
<polygon fill="#63b8ff" stroke="#63b8ff" points="449.87,-159.62 456.25,-151.16 445.99,-153.8 449.87,-159.62"/>
</a>
</g>
</g>
<!-- Node17&#45;&gt;Node5 -->
<g id="edge21_Node000017_Node000005" class="edge">
<title>Node17&#45;&gt;Node5</title>
<g id="a_edge21_Node000017_Node000005"><a xlink:title=" ">
<path fill="none" stroke="#63b8ff" d="M482.66,-120.72C490.87,-98.02 506.88,-53.72 515.9,-28.75"/>
<polygon fill="#63b8ff" stroke="#63b8ff" points="519.29,-29.66 519.4,-19.07 512.71,-27.28 519.29,-29.66"/>
</a>
</g>
</g>
<!-- Node17&#45;&gt;Node9 -->
<g id="edge22_Node000017_Node000009" class="edge">
<title>Node17&#45;&gt;Node9</title>
<g id="a_edge22_Node000017_Node000009"><a xlink:title=" ">
<path fill="none" stroke="#63b8ff" d="M543.78,-120.95C594.24,-110.26 663.36,-95.61 713.7,-84.94"/>
<polygon fill="#63b8ff" stroke="#63b8ff" points="714.45,-88.36 723.51,-82.87 713,-81.51 714.45,-88.36"/>
</a>
</g>
</g>
<!-- Node18&#45;&gt;Node15 -->
<g id="edge25_Node000018_Node000015" class="edge">
<title>Node18&#45;&gt;Node15</title>
<g id="a_edge25_Node000018_Node000015"><a xlink:title=" ">
<path fill="none" stroke="#63b8ff" d="M474.82,-318.99C495.91,-309.2 530.76,-293.02 555.08,-281.73"/>
<polygon fill="#63b8ff" stroke="#63b8ff" points="556.56,-284.9 564.16,-277.52 553.61,-278.55 556.56,-284.9"/>
</a>
</g>
</g>
<!-- Node18&#45;&gt;Node19 -->
<g id="edge26_Node000018_Node000019" class="edge">
<title>Node18&#45;&gt;Node19</title>
<g id="a_edge26_Node000018_Node000019"><a xlink:title=" ">
<path fill="none" stroke="#63b8ff" d="M416.51,-318.99C374.97,-310.16 308.94,-296.11 257.44,-285.16"/>
<polygon fill="#63b8ff" stroke="#63b8ff" points="257.86,-281.67 247.35,-283.01 256.4,-288.51 257.86,-281.67"/>
</a>
</g>
</g>
<!-- Node19&#45;&gt;Node5 -->
<g id="edge27_Node000019_Node000005" class="edge">
<title>Node19&#45;&gt;Node5</title>
<g id="a_edge27_Node000019_Node000005"><a xlink:title=" ">
<path fill="none" stroke="#63b8ff" d="M138.25,-252.95C121.51,-245.15 104.1,-233.59 94.5,-217 87.82,-205.46 87.44,-198.31 94.5,-187 182.27,-46.4 406.35,-17.79 490.19,-11.98"/>
<polygon fill="#63b8ff" stroke="#63b8ff" points="490.62,-15.46 500.38,-11.34 490.18,-8.47 490.62,-15.46"/>
</a>
</g>
</g>
<!-- Node19&#45;&gt;Node7 -->
<g id="edge28_Node000019_Node000007" class="edge">
<title>Node19&#45;&gt;Node7</title>
<g id="a_edge28_Node000019_Node000007"><a xlink:title=" ">
<path fill="none" stroke="#63b8ff" d="M146.83,-252.95C119.12,-241.73 80.65,-226.15 54.08,-215.39"/>
<polygon fill="#63b8ff" stroke="#63b8ff" points="55.11,-212.03 44.53,-211.52 52.48,-218.52 55.11,-212.03"/>
</a>
</g>
</g>
<!-- Node19&#45;&gt;Node16 -->
<g id="edge29_Node000019_Node000016" class="edge">
<title>Node19&#45;&gt;Node16</title>
<g id="a_edge29_Node000019_Node000016"><a xlink:title=" ">
<path fill="none" stroke="#63b8ff" d="M225.39,-252.95C255.61,-243.28 295.94,-230.38 328.04,-220.11"/>
<polygon fill="#63b8ff" stroke="#63b8ff" points="329.25,-223.39 337.71,-217.01 327.12,-216.73 329.25,-223.39"/>
</a>
</g>
</g>
<!-- Node20 -->
<g id="Node000020" class="node">
<title>Node20</title>
<g id="a_Node000020"><a xlink:href="../../df/d02/LatLon_8h.html" target="_top" xlink:title="Représentation d&#39;une coordonnée géographique WGS&#45;84 (latitude, longitude).">
<polygon fill="white" stroke="#666666" points="223,-217 104,-217 104,-187 223,-187 223,-217"/>
<text text-anchor="start" x="112" y="-205" font-family="Helvetica,sans-Serif" font-size="10.00">Modules/Coordinates</text>
<text text-anchor="middle" x="163.5" y="-194" font-family="Helvetica,sans-Serif" font-size="10.00">/LatLon.h</text>
</a>
</g>
</g>
<!-- Node19&#45;&gt;Node20 -->
<g id="edge30_Node000019_Node000020" class="edge">
<title>Node19&#45;&gt;Node20</title>
<g id="a_edge30_Node000019_Node000020"><a xlink:title=" ">
<path fill="none" stroke="#63b8ff" d="M177.51,-252.8C175.36,-245.17 172.66,-235.57 170.21,-226.84"/>
<polygon fill="#63b8ff" stroke="#63b8ff" points="173.56,-225.84 167.48,-217.16 166.82,-227.74 173.56,-225.84"/>
</a>
</g>
</g>
<!-- Node21&#45;&gt;Node15 -->
<g id="edge32_Node000021_Node000015" class="edge">
<title>Node21&#45;&gt;Node15</title>
<g id="a_edge32_Node000021_Node000015"><a xlink:title=" ">
<path fill="none" stroke="#63b8ff" d="M580.8,-318.87C581.07,-310.75 581.5,-298.31 581.85,-287.89"/>
<polygon fill="#63b8ff" stroke="#63b8ff" points="585.36,-287.78 582.2,-277.67 578.36,-287.54 585.36,-287.78"/>
</a>
</g>
</g>
<!-- Node21&#45;&gt;Node22 -->
<g id="edge33_Node000021_Node000022" class="edge">
<title>Node21&#45;&gt;Node22</title>
<g id="a_edge33_Node000021_Node000022"><a xlink:title=" ">
<path fill="none" stroke="#63b8ff" d="M551.56,-318.99C522.17,-310.35 475.86,-296.74 438.98,-285.9"/>
<polygon fill="#63b8ff" stroke="#63b8ff" points="439.92,-282.53 429.34,-283.06 437.95,-289.24 439.92,-282.53"/>
</a>
</g>
</g>
<!-- Node22&#45;&gt;Node5 -->
<g id="edge36_Node000022_Node000005" class="edge">
<title>Node22&#45;&gt;Node5</title>
<g id="a_edge36_Node000022_Node000005"><a xlink:title=" ">
<path fill="none" stroke="#63b8ff" d="M318.82,-252.91C300.07,-245.45 281.57,-234.13 270.5,-217 263.26,-205.8 264.34,-198.83 270.5,-187 317.49,-96.71 434.16,-43.04 490.73,-21.5"/>
<polygon fill="#63b8ff" stroke="#63b8ff" points="492.09,-24.73 500.24,-17.97 489.65,-18.17 492.09,-24.73"/>
</a>
</g>
</g>
<!-- Node22&#45;&gt;Node7 -->
<g id="edge37_Node000022_Node000007" class="edge">
<title>Node22&#45;&gt;Node7</title>
<g id="a_edge37_Node000022_Node000007"><a xlink:title=" ">
<path fill="none" stroke="#63b8ff" d="M298.21,-252.99C240.88,-243.23 163,-229.72 94.5,-217 82.27,-214.73 68.88,-212.12 57.06,-209.78"/>
<polygon fill="#63b8ff" stroke="#63b8ff" points="57.63,-206.32 47.14,-207.8 56.26,-213.19 57.63,-206.32"/>
</a>
</g>
</g>
<!-- Node22&#45;&gt;Node14 -->
<g id="edge35_Node000022_Node000014" class="edge">
<title>Node22&#45;&gt;Node14</title>
<g id="a_edge35_Node000022_Node000014"><a xlink:title=" ">
<path fill="none" stroke="#63b8ff" d="M471.04,-260.78C504.43,-254.2 540.31,-241.43 565.5,-217 618.89,-165.23 627.36,-69.66 628.48,-29.29"/>
<polygon fill="#63b8ff" stroke="#63b8ff" points="631.98,-29.09 628.63,-19.04 624.98,-28.99 631.98,-29.09"/>
</a>
</g>
</g>
<!-- Node22&#45;&gt;Node16 -->
<g id="edge39_Node000022_Node000016" class="edge">
<title>Node22&#45;&gt;Node16</title>
<g id="a_edge39_Node000022_Node000016"><a xlink:title=" ">
<path fill="none" stroke="#63b8ff" d="M381.5,-252.8C381.5,-245.34 381.5,-235.99 381.5,-227.41"/>
<polygon fill="#63b8ff" stroke="#63b8ff" points="385,-227.16 381.5,-217.16 378,-227.16 385,-227.16"/>
</a>
</g>
</g>
<!-- Node22&#45;&gt;Node20 -->
<g id="edge38_Node000022_Node000020" class="edge">
<title>Node22&#45;&gt;Node20</title>
<g id="a_edge38_Node000022_Node000020"><a xlink:title=" ">
<path fill="none" stroke="#63b8ff" d="M333.66,-252.95C300.44,-243.2 256,-230.16 220.87,-219.84"/>
<polygon fill="#63b8ff" stroke="#63b8ff" points="221.81,-216.47 211.23,-217.01 219.84,-223.19 221.81,-216.47"/>
</a>
</g>
</g>
<!-- Node23 -->
<g id="Node000023" class="node">
<title>Node23</title>
<g id="a_Node000023"><a xlink:title=" ">
<polygon fill="#e0e0e0" stroke="#999999" points="556.5,-211.5 500.5,-211.5 500.5,-192.5 556.5,-192.5 556.5,-211.5"/>
<text text-anchor="middle" x="528.5" y="-199.5" font-family="Helvetica,sans-Serif" font-size="10.00">optional</text>
</a>
</g>
</g>
<!-- Node22&#45;&gt;Node23 -->
<g id="edge34_Node000022_Node000023" class="edge">
<title>Node22&#45;&gt;Node23</title>
<g id="a_edge34_Node000022_Node000023"><a xlink:title=" ">
<path fill="none" stroke="#63b8ff" d="M413.76,-252.95C439.43,-241.78 475.01,-226.29 499.72,-215.53"/>
<polygon fill="#63b8ff" stroke="#63b8ff" points="501.17,-218.72 508.94,-211.52 498.37,-212.3 501.17,-218.72"/>
</a>
</g>
</g>
<!-- Node24&#45;&gt;Node25 -->
<g id="edge45_Node000024_Node000025" class="edge">
<title>Node24&#45;&gt;Node25</title>
<g id="a_edge45_Node000024_Node000025"><a xlink:title=" ">
<path fill="none" stroke="#63b8ff" d="M238.01,-428.99C213.98,-419.23 182.23,-406.33 159.1,-396.93"/>
<polygon fill="#63b8ff" stroke="#63b8ff" points="160.35,-393.66 149.77,-393.14 157.71,-400.15 160.35,-393.66"/>
</a>
</g>
</g>
<!-- Node25&#45;&gt;Node4 -->
<g id="edge46_Node000025_Node000004" class="edge">
<title>Node25&#45;&gt;Node4</title>
<g id="a_edge46_Node000025_Node000004"><a xlink:title=" ">
<path fill="none" stroke="#63b8ff" d="M128.5,-373.75C128.5,-366.8 128.5,-356.85 128.5,-348.13"/>
<polygon fill="#63b8ff" stroke="#63b8ff" points="132,-348.09 128.5,-338.09 125,-348.09 132,-348.09"/>
</a>
</g>
</g>
<!-- Node25&#45;&gt;Node6 -->
<g id="edge48_Node000025_Node000006" class="edge">
<title>Node25&#45;&gt;Node6</title>
<g id="a_edge48_Node000025_Node000006"><a xlink:title=" ">
<path fill="none" stroke="#63b8ff" d="M143.6,-373.98C158.32,-365.69 180.92,-352.94 198.17,-343.22"/>
<polygon fill="#63b8ff" stroke="#63b8ff" points="200.13,-346.13 207.12,-338.17 196.69,-340.03 200.13,-346.13"/>
</a>
</g>
</g>
<!-- Node25&#45;&gt;Node7 -->
<g id="edge47_Node000025_Node000007" class="edge">
<title>Node25&#45;&gt;Node7</title>
<g id="a_edge47_Node000025_Node000007"><a xlink:title=" ">
<path fill="none" stroke="#63b8ff" d="M102.08,-373.97C84.77,-367.02 63.09,-355.45 50.5,-338 25.17,-302.89 22.17,-249.88 22.58,-221.88"/>
<polygon fill="#63b8ff" stroke="#63b8ff" points="26.09,-221.64 22.91,-211.53 19.09,-221.42 26.09,-221.64"/>
</a>
</g>
</g>
<!-- Node25&#45;&gt;Node19 -->
<g id="edge49_Node000025_Node000019" class="edge">
<title>Node25&#45;&gt;Node19</title>
<g id="a_edge49_Node000025_Node000019"><a xlink:title=" ">
<path fill="none" stroke="#63b8ff" d="M104.98,-373.9C78.67,-362.9 41.68,-342.44 57.5,-319 67.22,-304.61 81.84,-294.35 97.68,-287.05"/>
<polygon fill="#63b8ff" stroke="#63b8ff" points="99.26,-290.19 107.12,-283.09 96.55,-283.74 99.26,-290.19"/>
</a>
</g>
</g>
<!-- Node25&#45;&gt;Node22 -->
<g id="edge50_Node000025_Node000022" class="edge">
<title>Node25&#45;&gt;Node22</title>
<g id="a_edge50_Node000025_Node000022"><a xlink:title=" ">
<path fill="none" stroke="#63b8ff" d="M116.77,-373.92C100.71,-361.16 75.51,-336.78 90.5,-319 93.68,-315.22 198.65,-297.85 281.61,-284.63"/>
<polygon fill="#63b8ff" stroke="#63b8ff" points="282.28,-288.07 291.61,-283.04 281.18,-281.16 282.28,-288.07"/>
</a>
</g>
</g>
</g>
</svg>
