<?xml version="1.0" encoding="UTF-8" standalone="no"?>
<!DOCTYPE svg PUBLIC "-//W3C//DTD SVG 1.1//EN"
 "http://www.w3.org/Graphics/SVG/1.1/DTD/svg11.dtd">
<!-- Generated by graphviz version 2.43.0 (0)
 -->
<!-- Title: SimulateurFerroviaire/Engine/HMI/PCCPanel/PCCPanel.h Pages: 1 -->
<svg width="1589pt" height="478pt"
 viewBox="0.00 0.00 1589.00 478.00" xmlns="http://www.w3.org/2000/svg" xmlns:xlink="http://www.w3.org/1999/xlink">
<g id="graph0" class="graph" transform="scale(1 1) rotate(0) translate(4 474)">
<title>SimulateurFerroviaire/Engine/HMI/PCCPanel/PCCPanel.h</title>
<!-- Node1 -->
<g id="Node000001" class="node">
<title>Node1</title>
<g id="a_Node000001"><a xlink:title="Panneau PCC superposé togglable, affiché par&#45;dessus la carte Leaflet.">
<polygon fill="#999999" stroke="#666666" points="752,-470 628,-470 628,-429 752,-429 752,-470"/>
<text text-anchor="start" x="636" y="-458" font-family="Helvetica,sans-Serif" font-size="10.00">SimulateurFerroviaire</text>
<text text-anchor="start" x="636" y="-447" font-family="Helvetica,sans-Serif" font-size="10.00">/Engine/HMI/PCCPanel</text>
<text text-anchor="middle" x="690" y="-436" font-family="Helvetica,sans-Serif" font-size="10.00">/PCCPanel.h</text>
</a>
</g>
</g>
<!-- Node2 -->
<g id="Node000002" class="node">
<title>Node2</title>
<g id="a_Node000002"><a xlink:href="../../d6/d01/framework_8h.html" target="_top" xlink:title=" ">
<polygon fill="white" stroke="#666666" points="445.5,-393 366.5,-393 366.5,-374 445.5,-374 445.5,-393"/>
<text text-anchor="middle" x="406" y="-381" font-family="Helvetica,sans-Serif" font-size="10.00">framework.h</text>
</a>
</g>
</g>
<!-- Node1&#45;&gt;Node2 -->
<g id="edge1_Node000001_Node000002" class="edge">
<title>Node1&#45;&gt;Node2</title>
<g id="a_edge1_Node000001_Node000002"><a xlink:title=" ">
<path fill="none" stroke="#63b8ff" d="M627.67,-434.45C575.24,-422.64 501.36,-405.99 453.58,-395.22"/>
<polygon fill="#63b8ff" stroke="#63b8ff" points="454.32,-391.8 443.8,-393.02 452.78,-398.63 454.32,-391.8"/>
</a>
</g>
</g>
<!-- Node13 -->
<g id="Node000013" class="node">
<title>Node13</title>
<g id="a_Node000013"><a xlink:href="../../dd/d00/Logger_8h.html" target="_top" xlink:title="Système de journalisation à 5 niveaux de trace, un fichier par moteur.">
<polygon fill="white" stroke="#666666" points="804.5,-85 693.5,-85 693.5,-55 804.5,-55 804.5,-85"/>
<text text-anchor="start" x="701.5" y="-73" font-family="Helvetica,sans-Serif" font-size="10.00">Engine/Core/Logger</text>
<text text-anchor="middle" x="749" y="-62" font-family="Helvetica,sans-Serif" font-size="10.00">/Logger.h</text>
</a>
</g>
</g>
<!-- Node1&#45;&gt;Node13 -->
<g id="edge12_Node000001_Node000013" class="edge">
<title>Node1&#45;&gt;Node13</title>
<g id="a_edge12_Node000001_Node000013"><a xlink:title=" ">
<path fill="none" stroke="#63b8ff" d="M690,-428.71C690,-405.09 690,-364.41 690,-329.5 690,-329.5 690,-329.5 690,-201 690,-160.38 714.18,-118.5 731.58,-93.61"/>
<polygon fill="#63b8ff" stroke="#63b8ff" points="734.6,-95.4 737.62,-85.24 728.93,-91.3 734.6,-95.4"/>
</a>
</g>
</g>
<!-- Node19 -->
<g id="Node000019" class="node">
<title>Node19</title>
<g id="a_Node000019"><a xlink:href="../../d8/d00/PCCGraph_8h.html" target="_top" xlink:title="Conteneur propriétaire du graphe PCC.">
<polygon fill="white" stroke="#666666" points="1103.5,-393 962.5,-393 962.5,-374 1103.5,-374 1103.5,-393"/>
<text text-anchor="middle" x="1033" y="-381" font-family="Helvetica,sans-Serif" font-size="10.00">Modules/PCC/PCCGraph.h</text>
</a>
</g>
</g>
<!-- Node1&#45;&gt;Node19 -->
<g id="edge19_Node000001_Node000019" class="edge">
<title>Node1&#45;&gt;Node19</title>
<g id="a_edge19_Node000001_Node000019"><a xlink:title=" ">
<path fill="none" stroke="#63b8ff" d="M752.11,-436.91C816.3,-424.93 915.58,-406.41 977.3,-394.89"/>
<polygon fill="#63b8ff" stroke="#63b8ff" points="978.06,-398.31 987.25,-393.04 976.77,-391.43 978.06,-398.31"/>
</a>
</g>
</g>
<!-- Node3 -->
<g id="Node000003" class="node">
<title>Node3</title>
<g id="a_Node000003"><a xlink:href="../../d9/d02/targetver_8h.html" target="_top" xlink:title=" ">
<polygon fill="white" stroke="#666666" points="238,-338 168,-338 168,-319 238,-319 238,-338"/>
<text text-anchor="middle" x="203" y="-326" font-family="Helvetica,sans-Serif" font-size="10.00">targetver.h</text>
</a>
</g>
</g>
<!-- Node2&#45;&gt;Node3 -->
<g id="edge2_Node000002_Node000003" class="edge">
<title>Node2&#45;&gt;Node3</title>
<g id="a_edge2_Node000002_Node000003"><a xlink:title=" ">
<path fill="none" stroke="#63b8ff" d="M373.38,-373.98C338.71,-364.93 283.74,-350.58 245.65,-340.64"/>
<polygon fill="#63b8ff" stroke="#63b8ff" points="246.43,-337.22 235.87,-338.08 244.66,-343.99 246.43,-337.22"/>
</a>
</g>
</g>
<!-- Node5 -->
<g id="Node000005" class="node">
<title>Node5</title>
<g id="a_Node000005"><a xlink:title=" ">
<polygon fill="#e0e0e0" stroke="#999999" points="324,-338 256,-338 256,-319 324,-319 324,-338"/>
<text text-anchor="middle" x="290" y="-326" font-family="Helvetica,sans-Serif" font-size="10.00">windows.h</text>
</a>
</g>
</g>
<!-- Node2&#45;&gt;Node5 -->
<g id="edge4_Node000002_Node000005" class="edge">
<title>Node2&#45;&gt;Node5</title>
<g id="a_edge4_Node000002_Node000005"><a xlink:title=" ">
<path fill="none" stroke="#63b8ff" d="M387.36,-373.98C368.7,-365.46 339.75,-352.23 318.26,-342.41"/>
<polygon fill="#63b8ff" stroke="#63b8ff" points="319.53,-339.14 308.98,-338.17 316.62,-345.51 319.53,-339.14"/>
</a>
</g>
</g>
<!-- Node6 -->
<g id="Node000006" class="node">
<title>Node6</title>
<g id="a_Node000006"><a xlink:title=" ">
<polygon fill="#e0e0e0" stroke="#999999" points="395.5,-338 342.5,-338 342.5,-319 395.5,-319 395.5,-338"/>
<text text-anchor="middle" x="369" y="-326" font-family="Helvetica,sans-Serif" font-size="10.00">stdlib.h</text>
</a>
</g>
</g>
<!-- Node2&#45;&gt;Node6 -->
<g id="edge5_Node000002_Node000006" class="edge">
<title>Node2&#45;&gt;Node6</title>
<g id="a_edge5_Node000002_Node000006"><a xlink:title=" ">
<path fill="none" stroke="#63b8ff" d="M399.89,-373.75C394.72,-366.34 387.15,-355.5 380.81,-346.41"/>
<polygon fill="#63b8ff" stroke="#63b8ff" points="383.59,-344.29 375,-338.09 377.85,-348.29 383.59,-344.29"/>
</a>
</g>
</g>
<!-- Node7 -->
<g id="Node000007" class="node">
<title>Node7</title>
<g id="a_Node000007"><a xlink:title=" ">
<polygon fill="#e0e0e0" stroke="#999999" points="472.5,-338 413.5,-338 413.5,-319 472.5,-319 472.5,-338"/>
<text text-anchor="middle" x="443" y="-326" font-family="Helvetica,sans-Serif" font-size="10.00">malloc.h</text>
</a>
</g>
</g>
<!-- Node2&#45;&gt;Node7 -->
<g id="edge6_Node000002_Node000007" class="edge">
<title>Node2&#45;&gt;Node7</title>
<g id="a_edge6_Node000002_Node000007"><a xlink:title=" ">
<path fill="none" stroke="#63b8ff" d="M412.11,-373.75C417.28,-366.34 424.85,-355.5 431.19,-346.41"/>
<polygon fill="#63b8ff" stroke="#63b8ff" points="434.15,-348.29 437,-338.09 428.41,-344.29 434.15,-348.29"/>
</a>
</g>
</g>
<!-- Node8 -->
<g id="Node000008" class="node">
<title>Node8</title>
<g id="a_Node000008"><a xlink:title=" ">
<polygon fill="#e0e0e0" stroke="#999999" points="555.5,-338 490.5,-338 490.5,-319 555.5,-319 555.5,-338"/>
<text text-anchor="middle" x="523" y="-326" font-family="Helvetica,sans-Serif" font-size="10.00">memory.h</text>
</a>
</g>
</g>
<!-- Node2&#45;&gt;Node8 -->
<g id="edge7_Node000002_Node000008" class="edge">
<title>Node2&#45;&gt;Node8</title>
<g id="a_edge7_Node000002_Node000008"><a xlink:title=" ">
<path fill="none" stroke="#63b8ff" d="M424.8,-373.98C443.62,-365.46 472.82,-352.23 494.5,-342.41"/>
<polygon fill="#63b8ff" stroke="#63b8ff" points="496.2,-345.48 503.86,-338.17 493.31,-339.11 496.2,-345.48"/>
</a>
</g>
</g>
<!-- Node9 -->
<g id="Node000009" class="node">
<title>Node9</title>
<g id="a_Node000009"><a xlink:title=" ">
<polygon fill="#e0e0e0" stroke="#999999" points="624,-338 574,-338 574,-319 624,-319 624,-338"/>
<text text-anchor="middle" x="599" y="-326" font-family="Helvetica,sans-Serif" font-size="10.00">tchar.h</text>
</a>
</g>
</g>
<!-- Node2&#45;&gt;Node9 -->
<g id="edge8_Node000002_Node000009" class="edge">
<title>Node2&#45;&gt;Node9</title>
<g id="a_edge8_Node000002_Node000009"><a xlink:title=" ">
<path fill="none" stroke="#63b8ff" d="M437.01,-373.98C471.78,-364.44 528.03,-348.99 564.26,-339.04"/>
<polygon fill="#63b8ff" stroke="#63b8ff" points="565.19,-342.41 573.91,-336.39 563.34,-335.66 565.19,-342.41"/>
</a>
</g>
</g>
<!-- Node10 -->
<g id="Node000010" class="node">
<title>Node10</title>
<g id="a_Node000010"><a xlink:title=" ">
<polygon fill="#e0e0e0" stroke="#999999" points="72,-338 0,-338 0,-319 72,-319 72,-338"/>
<text text-anchor="middle" x="36" y="-326" font-family="Helvetica,sans-Serif" font-size="10.00">commctrl.h</text>
</a>
</g>
</g>
<!-- Node2&#45;&gt;Node10 -->
<g id="edge9_Node000002_Node000010" class="edge">
<title>Node2&#45;&gt;Node10</title>
<g id="a_edge9_Node000002_Node000010"><a xlink:title=" ">
<path fill="none" stroke="#63b8ff" d="M366.38,-377.73C306.93,-370.43 190.88,-355.63 82.45,-338.17"/>
<polygon fill="#63b8ff" stroke="#63b8ff" points="82.75,-334.67 72.32,-336.52 81.63,-341.58 82.75,-334.67"/>
</a>
</g>
</g>
<!-- Node11 -->
<g id="Node000011" class="node">
<title>Node11</title>
<g id="a_Node000011"><a xlink:title=" ">
<polygon fill="#e0e0e0" stroke="#999999" points="1076,-19 1032,-19 1032,0 1076,0 1076,-19"/>
<text text-anchor="middle" x="1054" y="-7" font-family="Helvetica,sans-Serif" font-size="10.00">string</text>
</a>
</g>
</g>
<!-- Node2&#45;&gt;Node11 -->
<g id="edge10_Node000002_Node000011" class="edge">
<title>Node2&#45;&gt;Node11</title>
<g id="a_edge10_Node000002_Node000011"><a xlink:title=" ">
<path fill="none" stroke="#63b8ff" d="M445.64,-381.62C492.85,-379.07 572.87,-369.91 633,-338 717.12,-293.37 711.19,-247.16 785,-187 867.27,-119.94 894.99,-112.81 984,-55 999.8,-44.74 1017.73,-33.35 1031.49,-24.66"/>
<polygon fill="#63b8ff" stroke="#63b8ff" points="1033.68,-27.41 1040.27,-19.12 1029.94,-21.49 1033.68,-27.41"/>
</a>
</g>
</g>
<!-- Node12 -->
<g id="Node000012" class="node">
<title>Node12</title>
<g id="a_Node000012"><a xlink:title=" ">
<polygon fill="#e0e0e0" stroke="#999999" points="150,-338 90,-338 90,-319 150,-319 150,-338"/>
<text text-anchor="middle" x="120" y="-326" font-family="Helvetica,sans-Serif" font-size="10.00">iostream</text>
</a>
</g>
</g>
<!-- Node2&#45;&gt;Node12 -->
<g id="edge11_Node000002_Node000012" class="edge">
<title>Node2&#45;&gt;Node12</title>
<g id="a_edge11_Node000002_Node000012"><a xlink:title=" ">
<path fill="none" stroke="#63b8ff" d="M366.13,-375.78C319.24,-367.77 238.8,-353.71 160.27,-338.2"/>
<polygon fill="#63b8ff" stroke="#63b8ff" points="160.7,-334.71 150.21,-336.2 159.34,-341.58 160.7,-334.71"/>
</a>
</g>
</g>
<!-- Node4 -->
<g id="Node000004" class="node">
<title>Node4</title>
<g id="a_Node000004"><a xlink:title=" ">
<polygon fill="#e0e0e0" stroke="#999999" points="244.5,-277.5 161.5,-277.5 161.5,-258.5 244.5,-258.5 244.5,-277.5"/>
<text text-anchor="middle" x="203" y="-265.5" font-family="Helvetica,sans-Serif" font-size="10.00">SDKDDKVer.h</text>
</a>
</g>
</g>
<!-- Node3&#45;&gt;Node4 -->
<g id="edge3_Node000003_Node000004" class="edge">
<title>Node3&#45;&gt;Node4</title>
<g id="a_edge3_Node000003_Node000004"><a xlink:title=" ">
<path fill="none" stroke="#63b8ff" d="M203,-318.87C203,-310.75 203,-298.31 203,-287.89"/>
<polygon fill="#63b8ff" stroke="#63b8ff" points="206.5,-287.67 203,-277.67 199.5,-287.67 206.5,-287.67"/>
</a>
</g>
</g>
<!-- Node13&#45;&gt;Node11 -->
<g id="edge18_Node000013_Node000011" class="edge">
<title>Node13&#45;&gt;Node11</title>
<g id="a_edge18_Node000013_Node000011"><a xlink:title=" ">
<path fill="none" stroke="#63b8ff" d="M804.77,-57.79C809.58,-56.84 814.38,-55.9 819,-55 891.45,-40.9 976.58,-24.92 1021.86,-16.48"/>
<polygon fill="#63b8ff" stroke="#63b8ff" points="1022.76,-19.87 1031.95,-14.6 1021.48,-12.99 1022.76,-19.87"/>
</a>
</g>
</g>
<!-- Node14 -->
<g id="Node000014" class="node">
<title>Node14</title>
<g id="a_Node000014"><a xlink:title=" ">
<polygon fill="#e0e0e0" stroke="#999999" points="657,-19 613,-19 613,0 657,0 657,-19"/>
<text text-anchor="middle" x="635" y="-7" font-family="Helvetica,sans-Serif" font-size="10.00">ctime</text>
</a>
</g>
</g>
<!-- Node13&#45;&gt;Node14 -->
<g id="edge13_Node000013_Node000014" class="edge">
<title>Node13&#45;&gt;Node14</title>
<g id="a_edge13_Node000013_Node000014"><a xlink:title=" ">
<path fill="none" stroke="#63b8ff" d="M721.69,-54.99C703.35,-45.58 679.32,-33.24 661.21,-23.95"/>
<polygon fill="#63b8ff" stroke="#63b8ff" points="662.33,-20.59 651.84,-19.14 659.13,-26.82 662.33,-20.59"/>
</a>
</g>
</g>
<!-- Node15 -->
<g id="Node000015" class="node">
<title>Node15</title>
<g id="a_Node000015"><a xlink:title=" ">
<polygon fill="#e0e0e0" stroke="#999999" points="743,-19 675,-19 675,0 743,0 743,-19"/>
<text text-anchor="middle" x="709" y="-7" font-family="Helvetica,sans-Serif" font-size="10.00">filesystem</text>
</a>
</g>
</g>
<!-- Node13&#45;&gt;Node15 -->
<g id="edge14_Node000013_Node000015" class="edge">
<title>Node13&#45;&gt;Node15</title>
<g id="a_edge14_Node000013_Node000015"><a xlink:title=" ">
<path fill="none" stroke="#63b8ff" d="M739.32,-54.84C733.75,-46.69 726.71,-36.4 720.82,-27.78"/>
<polygon fill="#63b8ff" stroke="#63b8ff" points="723.53,-25.55 714.99,-19.27 717.75,-29.5 723.53,-25.55"/>
</a>
</g>
</g>
<!-- Node16 -->
<g id="Node000016" class="node">
<title>Node16</title>
<g id="a_Node000016"><a xlink:title=" ">
<polygon fill="#e0e0e0" stroke="#999999" points="816.5,-19 761.5,-19 761.5,0 816.5,0 816.5,-19"/>
<text text-anchor="middle" x="789" y="-7" font-family="Helvetica,sans-Serif" font-size="10.00">fstream</text>
</a>
</g>
</g>
<!-- Node13&#45;&gt;Node16 -->
<g id="edge15_Node000013_Node000016" class="edge">
<title>Node13&#45;&gt;Node16</title>
<g id="a_edge15_Node000013_Node000016"><a xlink:title=" ">
<path fill="none" stroke="#63b8ff" d="M758.68,-54.84C764.25,-46.69 771.29,-36.4 777.18,-27.78"/>
<polygon fill="#63b8ff" stroke="#63b8ff" points="780.25,-29.5 783.01,-19.27 774.47,-25.55 780.25,-29.5"/>
</a>
</g>
</g>
<!-- Node17 -->
<g id="Node000017" class="node">
<title>Node17</title>
<g id="a_Node000017"><a xlink:title=" ">
<polygon fill="#e0e0e0" stroke="#999999" points="883,-19 835,-19 835,0 883,0 883,-19"/>
<text text-anchor="middle" x="859" y="-7" font-family="Helvetica,sans-Serif" font-size="10.00">mutex</text>
</a>
</g>
</g>
<!-- Node13&#45;&gt;Node17 -->
<g id="edge16_Node000013_Node000017" class="edge">
<title>Node13&#45;&gt;Node17</title>
<g id="a_edge16_Node000013_Node000017"><a xlink:title=" ">
<path fill="none" stroke="#63b8ff" d="M775.35,-54.99C793.05,-45.58 816.23,-33.24 833.71,-23.95"/>
<polygon fill="#63b8ff" stroke="#63b8ff" points="835.57,-26.92 842.76,-19.14 832.28,-20.74 835.57,-26.92"/>
</a>
</g>
</g>
<!-- Node18 -->
<g id="Node000018" class="node">
<title>Node18</title>
<g id="a_Node000018"><a xlink:title=" ">
<polygon fill="#e0e0e0" stroke="#999999" points="965,-19 909,-19 909,0 965,0 965,-19"/>
<text text-anchor="middle" x="937" y="-7" font-family="Helvetica,sans-Serif" font-size="10.00">sstream</text>
</a>
</g>
</g>
<!-- Node13&#45;&gt;Node18 -->
<g id="edge17_Node000013_Node000018" class="edge">
<title>Node13&#45;&gt;Node18</title>
<g id="a_edge17_Node000013_Node000018"><a xlink:title=" ">
<path fill="none" stroke="#63b8ff" d="M794.03,-54.99C826.34,-44.94 869.34,-31.55 899.73,-22.1"/>
<polygon fill="#63b8ff" stroke="#63b8ff" points="901,-25.37 909.51,-19.05 898.92,-18.68 901,-25.37"/>
</a>
</g>
</g>
<!-- Node19&#45;&gt;Node11 -->
<g id="edge21_Node000019_Node000011" class="edge">
<title>Node19&#45;&gt;Node11</title>
<g id="a_edge21_Node000019_Node000011"><a xlink:title=" ">
<path fill="none" stroke="#63b8ff" d="M1103.52,-382.49C1251.53,-380.56 1581,-365.43 1581,-269 1581,-269 1581,-269 1581,-135 1581,-32.88 1201.49,-14.42 1086.58,-11.18"/>
<polygon fill="#63b8ff" stroke="#63b8ff" points="1086.4,-7.67 1076.31,-10.91 1086.21,-14.67 1086.4,-7.67"/>
</a>
</g>
</g>
<!-- Node19&#45;&gt;Node13 -->
<g id="edge51_Node000019_Node000013" class="edge">
<title>Node19&#45;&gt;Node13</title>
<g id="a_edge51_Node000019_Node000013"><a xlink:title=" ">
<path fill="none" stroke="#63b8ff" d="M962.34,-380.11C888.14,-376.13 777.99,-365.63 747,-338 723.26,-316.83 728,-300.81 728,-269 728,-269 728,-269 728,-201 728,-163.63 736.56,-120.97 742.75,-95.02"/>
<polygon fill="#63b8ff" stroke="#63b8ff" points="746.15,-95.85 745.15,-85.31 739.36,-94.18 746.15,-95.85"/>
</a>
</g>
</g>
<!-- Node20 -->
<g id="Node000020" class="node">
<title>Node20</title>
<g id="a_Node000020"><a xlink:title=" ">
<polygon fill="#e0e0e0" stroke="#999999" points="814,-338 756,-338 756,-319 814,-319 814,-338"/>
<text text-anchor="middle" x="785" y="-326" font-family="Helvetica,sans-Serif" font-size="10.00">memory</text>
</a>
</g>
</g>
<!-- Node19&#45;&gt;Node20 -->
<g id="edge20_Node000019_Node000020" class="edge">
<title>Node19&#45;&gt;Node20</title>
<g id="a_edge20_Node000019_Node000020"><a xlink:title=" ">
<path fill="none" stroke="#63b8ff" d="M993.15,-373.98C946.69,-364.06 870.38,-347.75 824.2,-337.88"/>
<polygon fill="#63b8ff" stroke="#63b8ff" points="824.77,-334.42 814.26,-335.75 823.31,-341.27 824.77,-334.42"/>
</a>
</g>
</g>
<!-- Node21 -->
<g id="Node000021" class="node">
<title>Node21</title>
<g id="a_Node000021"><a xlink:title=" ">
<polygon fill="#e0e0e0" stroke="#999999" points="963.5,-338 870.5,-338 870.5,-319 963.5,-319 963.5,-338"/>
<text text-anchor="middle" x="917" y="-326" font-family="Helvetica,sans-Serif" font-size="10.00">unordered_map</text>
</a>
</g>
</g>
<!-- Node19&#45;&gt;Node21 -->
<g id="edge22_Node000019_Node000021" class="edge">
<title>Node19&#45;&gt;Node21</title>
<g id="a_edge22_Node000019_Node000021"><a xlink:title=" ">
<path fill="none" stroke="#63b8ff" d="M1014.36,-373.98C995.7,-365.46 966.75,-352.23 945.26,-342.41"/>
<polygon fill="#63b8ff" stroke="#63b8ff" points="946.53,-339.14 935.98,-338.17 943.62,-345.51 946.53,-339.14"/>
</a>
</g>
</g>
<!-- Node22 -->
<g id="Node000022" class="node">
<title>Node22</title>
<g id="a_Node000022"><a xlink:title=" ">
<polygon fill="#e0e0e0" stroke="#999999" points="1265.5,-211.5 1218.5,-211.5 1218.5,-192.5 1265.5,-192.5 1265.5,-211.5"/>
<text text-anchor="middle" x="1242" y="-199.5" font-family="Helvetica,sans-Serif" font-size="10.00">vector</text>
</a>
</g>
</g>
<!-- Node19&#45;&gt;Node22 -->
<g id="edge23_Node000019_Node000022" class="edge">
<title>Node19&#45;&gt;Node22</title>
<g id="a_edge23_Node000019_Node000022"><a xlink:title=" ">
<path fill="none" stroke="#63b8ff" d="M1074.19,-373.97C1119.67,-362.14 1190.86,-335.92 1224,-283 1235.67,-264.37 1239.81,-239.12 1241.26,-222.01"/>
<polygon fill="#63b8ff" stroke="#63b8ff" points="1244.77,-221.83 1241.89,-211.64 1237.79,-221.41 1244.77,-221.83"/>
</a>
</g>
</g>
<!-- Node23 -->
<g id="Node000023" class="node">
<title>Node23</title>
<g id="a_Node000023"><a xlink:href="../../d1/d02/PCCEdge_8h.html" target="_top" xlink:title="Connexion orientée entre deux nœuds du graphe PCC.">
<polygon fill="white" stroke="#666666" points="863.5,-211.5 794.5,-211.5 794.5,-192.5 863.5,-192.5 863.5,-211.5"/>
<text text-anchor="middle" x="829" y="-199.5" font-family="Helvetica,sans-Serif" font-size="10.00">PCCEdge.h</text>
</a>
</g>
</g>
<!-- Node19&#45;&gt;Node23 -->
<g id="edge24_Node000019_Node000023" class="edge">
<title>Node19&#45;&gt;Node23</title>
<g id="a_edge24_Node000019_Node000023"><a xlink:title=" ">
<path fill="none" stroke="#63b8ff" d="M962.23,-380.49C927.68,-375.83 888.05,-364.44 862,-338 830.91,-306.44 827.44,-250.7 827.97,-221.7"/>
<polygon fill="#63b8ff" stroke="#63b8ff" points="831.46,-221.81 828.33,-211.69 824.47,-221.55 831.46,-221.81"/>
</a>
</g>
</g>
<!-- Node24 -->
<g id="Node000024" class="node">
<title>Node24</title>
<g id="a_Node000024"><a xlink:href="../../d6/d01/PCCNode_8h.html" target="_top" xlink:title="Nœud abstrait du graphe PCC représentant un bloc ferroviaire.">
<polygon fill="white" stroke="#666666" points="1011.5,-277.5 940.5,-277.5 940.5,-258.5 1011.5,-258.5 1011.5,-277.5"/>
<text text-anchor="middle" x="976" y="-265.5" font-family="Helvetica,sans-Serif" font-size="10.00">PCCNode.h</text>
</a>
</g>
</g>
<!-- Node19&#45;&gt;Node24 -->
<g id="edge26_Node000019_Node000024" class="edge">
<title>Node19&#45;&gt;Node24</title>
<g id="a_edge26_Node000019_Node000024"><a xlink:title=" ">
<path fill="none" stroke="#63b8ff" d="M1028.72,-373.97C1019.43,-355.48 997.29,-311.4 984.86,-286.64"/>
<polygon fill="#63b8ff" stroke="#63b8ff" points="987.95,-285 980.33,-277.63 981.69,-288.14 987.95,-285"/>
</a>
</g>
</g>
<!-- Node27 -->
<g id="Node000027" class="node">
<title>Node27</title>
<g id="a_Node000027"><a xlink:href="../../d2/d03/PCCStraightNode_8h.html" target="_top" xlink:title="Nœud PCC représentant un StraightBlock.">
<polygon fill="white" stroke="#666666" points="1129.5,-338 1020.5,-338 1020.5,-319 1129.5,-319 1129.5,-338"/>
<text text-anchor="middle" x="1075" y="-326" font-family="Helvetica,sans-Serif" font-size="10.00">PCCStraightNode.h</text>
</a>
</g>
</g>
<!-- Node19&#45;&gt;Node27 -->
<g id="edge35_Node000019_Node000027" class="edge">
<title>Node19&#45;&gt;Node27</title>
<g id="a_edge35_Node000019_Node000027"><a xlink:title=" ">
<path fill="none" stroke="#63b8ff" d="M1039.94,-373.75C1045.87,-366.26 1054.57,-355.28 1061.82,-346.13"/>
<polygon fill="#63b8ff" stroke="#63b8ff" points="1064.73,-348.1 1068.19,-338.09 1059.24,-343.75 1064.73,-348.1"/>
</a>
</g>
</g>
<!-- Node28 -->
<g id="Node000028" class="node">
<title>Node28</title>
<g id="a_Node000028"><a xlink:href="../../de/d01/StraightBlock_8h.html" target="_top" xlink:title="Modèle de domaine d&#39;un bloc de voie droite (Straight).">
<polygon fill="white" stroke="#666666" points="1214.5,-283 1029.5,-283 1029.5,-253 1214.5,-253 1214.5,-283"/>
<text text-anchor="start" x="1037.5" y="-271" font-family="Helvetica,sans-Serif" font-size="10.00">Modules/InteractiveElements</text>
<text text-anchor="middle" x="1122" y="-260" font-family="Helvetica,sans-Serif" font-size="10.00">/ShuntingElements/StraightBlock.h</text>
</a>
</g>
</g>
<!-- Node19&#45;&gt;Node28 -->
<g id="edge52_Node000019_Node000028" class="edge">
<title>Node19&#45;&gt;Node28</title>
<g id="a_edge52_Node000019_Node000028"><a xlink:title=" ">
<path fill="none" stroke="#63b8ff" d="M1083.59,-373.94C1104.4,-367.65 1126.51,-356.78 1139,-338 1148.05,-324.39 1143.18,-306.4 1136.38,-292.2"/>
<polygon fill="#63b8ff" stroke="#63b8ff" points="1139.31,-290.24 1131.51,-283.07 1133.13,-293.54 1139.31,-290.24"/>
</a>
</g>
</g>
<!-- Node30 -->
<g id="Node000030" class="node">
<title>Node30</title>
<g id="a_Node000030"><a xlink:href="../../dc/d01/PCCSwitchNode_8h.html" target="_top" xlink:title="Nœud PCC représentant un SwitchBlock.">
<polygon fill="white" stroke="#666666" points="1363.5,-338 1260.5,-338 1260.5,-319 1363.5,-319 1363.5,-338"/>
<text text-anchor="middle" x="1312" y="-326" font-family="Helvetica,sans-Serif" font-size="10.00">PCCSwitchNode.h</text>
</a>
</g>
</g>
<!-- Node19&#45;&gt;Node30 -->
<g id="edge42_Node000019_Node000030" class="edge">
<title>Node19&#45;&gt;Node30</title>
<g id="a_edge42_Node000019_Node000030"><a xlink:title=" ">
<path fill="none" stroke="#63b8ff" d="M1077.83,-373.98C1126.49,-364.74 1204.26,-349.97 1256.69,-340.01"/>
<polygon fill="#63b8ff" stroke="#63b8ff" points="1257.65,-343.39 1266.82,-338.08 1256.34,-336.51 1257.65,-343.39"/>
</a>
</g>
</g>
<!-- Node31 -->
<g id="Node000031" class="node">
<title>Node31</title>
<g id="a_Node000031"><a xlink:href="../../dc/d01/SwitchBlock_8h.html" target="_top" xlink:title="Modèle de domaine d&#39;un aiguillage ferroviaire à 3 branches.">
<polygon fill="white" stroke="#666666" points="1460.5,-283 1281.5,-283 1281.5,-253 1460.5,-253 1460.5,-283"/>
<text text-anchor="start" x="1289.5" y="-271" font-family="Helvetica,sans-Serif" font-size="10.00">Modules/InteractiveElements</text>
<text text-anchor="middle" x="1371" y="-260" font-family="Helvetica,sans-Serif" font-size="10.00">/ShuntingElements/SwitchBlock.h</text>
</a>
</g>
</g>
<!-- Node19&#45;&gt;Node31 -->
<g id="edge53_Node000019_Node000031" class="edge">
<title>Node19&#45;&gt;Node31</title>
<g id="a_edge53_Node000019_Node000031"><a xlink:title=" ">
<path fill="none" stroke="#63b8ff" d="M1103.59,-378.17C1197.98,-371.65 1355.53,-357.91 1373,-338 1383.56,-325.97 1382.55,-307.71 1379.18,-292.99"/>
<polygon fill="#63b8ff" stroke="#63b8ff" points="1382.47,-291.75 1376.43,-283.04 1375.72,-293.61 1382.47,-291.75"/>
</a>
</g>
</g>
<!-- Node23&#45;&gt;Node13 -->
<g id="edge25_Node000023_Node000013" class="edge">
<title>Node23&#45;&gt;Node13</title>
<g id="a_edge25_Node000023_Node000013"><a xlink:title=" ">
<path fill="none" stroke="#63b8ff" d="M823.75,-192.47C811.58,-172.69 781.1,-123.17 763.04,-93.82"/>
<polygon fill="#63b8ff" stroke="#63b8ff" points="765.88,-91.75 757.66,-85.07 759.92,-95.42 765.88,-91.75"/>
</a>
</g>
</g>
<!-- Node24&#45;&gt;Node11 -->
<g id="edge27_Node000024_Node000011" class="edge">
<title>Node24&#45;&gt;Node11</title>
<g id="a_edge27_Node000024_Node000011"><a xlink:title=" ">
<path fill="none" stroke="#63b8ff" d="M969.82,-258.31C963.41,-248.72 953.81,-232.59 950,-217 939.73,-174.98 946.98,-159.85 966,-121 984.56,-83.08 1017.95,-46.19 1037.84,-26.09"/>
<polygon fill="#63b8ff" stroke="#63b8ff" points="1040.34,-28.54 1044.97,-19.02 1035.41,-23.57 1040.34,-28.54"/>
</a>
</g>
</g>
<!-- Node24&#45;&gt;Node13 -->
<g id="edge34_Node000024_Node000013" class="edge">
<title>Node24&#45;&gt;Node13</title>
<g id="a_edge34_Node000024_Node000013"><a xlink:title=" ">
<path fill="none" stroke="#63b8ff" d="M965.31,-258.22C953.27,-248.3 933.12,-231.61 916,-217 864.43,-172.98 804.79,-120.44 772.59,-91.93"/>
<polygon fill="#63b8ff" stroke="#63b8ff" points="774.82,-89.23 765.01,-85.22 770.18,-94.47 774.82,-89.23"/>
</a>
</g>
</g>
<!-- Node24&#45;&gt;Node22 -->
<g id="edge28_Node000024_Node000022" class="edge">
<title>Node24&#45;&gt;Node22</title>
<g id="a_edge28_Node000024_Node000022"><a xlink:title=" ">
<path fill="none" stroke="#63b8ff" d="M1002.55,-258.36C1008.59,-256.5 1014.99,-254.61 1021,-253 1086.81,-235.35 1164.74,-218.69 1208.26,-209.77"/>
<polygon fill="#63b8ff" stroke="#63b8ff" points="1209.2,-213.15 1218.3,-207.72 1207.8,-206.29 1209.2,-213.15"/>
</a>
</g>
</g>
<!-- Node24&#45;&gt;Node23 -->
<g id="edge29_Node000024_Node000023" class="edge">
<title>Node24&#45;&gt;Node23</title>
<g id="a_edge29_Node000024_Node000023"><a xlink:title=" ">
<path fill="none" stroke="#63b8ff" d="M956.17,-258.37C930.97,-247.39 887.24,-228.36 858.21,-215.72"/>
<polygon fill="#63b8ff" stroke="#63b8ff" points="859.55,-212.48 848.98,-211.7 856.75,-218.9 859.55,-212.48"/>
</a>
</g>
</g>
<!-- Node25 -->
<g id="Node000025" class="node">
<title>Node25</title>
<g id="a_Node000025"><a xlink:href="../../df/d02/ShuntingElement_8h.html" target="_top" xlink:title="Interface abstraite pour tous les éléments de shuntage ferroviaire.">
<polygon fill="white" stroke="#666666" points="1161.5,-217 958.5,-217 958.5,-187 1161.5,-187 1161.5,-217"/>
<text text-anchor="start" x="966.5" y="-205" font-family="Helvetica,sans-Serif" font-size="10.00">Modules/InteractiveElements</text>
<text text-anchor="middle" x="1060" y="-194" font-family="Helvetica,sans-Serif" font-size="10.00">/ShuntingElements/ShuntingElement.h</text>
</a>
</g>
</g>
<!-- Node24&#45;&gt;Node25 -->
<g id="edge30_Node000024_Node000025" class="edge">
<title>Node24&#45;&gt;Node25</title>
<g id="a_edge30_Node000024_Node000025"><a xlink:title=" ">
<path fill="none" stroke="#63b8ff" d="M987.33,-258.37C999.04,-249.44 1017.75,-235.19 1033.26,-223.38"/>
<polygon fill="#63b8ff" stroke="#63b8ff" points="1035.64,-225.96 1041.47,-217.12 1031.4,-220.39 1035.64,-225.96"/>
</a>
</g>
</g>
<!-- Node26 -->
<g id="Node000026" class="node">
<title>Node26</title>
<g id="a_Node000026"><a xlink:href="../../d6/d02/InteractiveElement_8h.html" target="_top" xlink:title="Classe de base abstraite pour tous les éléments interactifs ferroviaires.">
<polygon fill="white" stroke="#666666" points="1133.5,-151 974.5,-151 974.5,-121 1133.5,-121 1133.5,-151"/>
<text text-anchor="start" x="982.5" y="-139" font-family="Helvetica,sans-Serif" font-size="10.00">Modules/InteractiveElements</text>
<text text-anchor="middle" x="1054" y="-128" font-family="Helvetica,sans-Serif" font-size="10.00">/InteractiveElement.h</text>
</a>
</g>
</g>
<!-- Node25&#45;&gt;Node26 -->
<g id="edge31_Node000025_Node000026" class="edge">
<title>Node25&#45;&gt;Node26</title>
<g id="a_edge31_Node000025_Node000026"><a xlink:title=" ">
<path fill="none" stroke="#63b8ff" d="M1058.67,-186.8C1057.96,-179.26 1057.07,-169.78 1056.26,-161.13"/>
<polygon fill="#63b8ff" stroke="#63b8ff" points="1059.75,-160.79 1055.33,-151.16 1052.78,-161.45 1059.75,-160.79"/>
</a>
</g>
</g>
<!-- Node26&#45;&gt;Node11 -->
<g id="edge32_Node000026_Node000011" class="edge">
<title>Node26&#45;&gt;Node11</title>
<g id="a_edge32_Node000026_Node000011"><a xlink:title=" ">
<path fill="none" stroke="#63b8ff" d="M1054,-120.72C1054,-98.12 1054,-54.12 1054,-29.09"/>
<polygon fill="#63b8ff" stroke="#63b8ff" points="1057.5,-29.07 1054,-19.07 1050.5,-29.07 1057.5,-29.07"/>
</a>
</g>
</g>
<!-- Node26&#45;&gt;Node13 -->
<g id="edge33_Node000026_Node000013" class="edge">
<title>Node26&#45;&gt;Node13</title>
<g id="a_edge33_Node000026_Node000013"><a xlink:title=" ">
<path fill="none" stroke="#63b8ff" d="M987.07,-120.95C935.78,-110.19 865.39,-95.42 814.47,-84.74"/>
<polygon fill="#63b8ff" stroke="#63b8ff" points="815.06,-81.29 804.55,-82.66 813.62,-88.14 815.06,-81.29"/>
</a>
</g>
</g>
<!-- Node27&#45;&gt;Node24 -->
<g id="edge36_Node000027_Node000024" class="edge">
<title>Node27&#45;&gt;Node24</title>
<g id="a_edge36_Node000027_Node000024"><a xlink:title=" ">
<path fill="none" stroke="#63b8ff" d="M1060.39,-318.87C1044.31,-309.36 1018.22,-293.95 999.3,-282.77"/>
<polygon fill="#63b8ff" stroke="#63b8ff" points="1001.06,-279.74 990.67,-277.67 997.5,-285.77 1001.06,-279.74"/>
</a>
</g>
</g>
<!-- Node27&#45;&gt;Node28 -->
<g id="edge37_Node000027_Node000028" class="edge">
<title>Node27&#45;&gt;Node28</title>
<g id="a_edge37_Node000027_Node000028"><a xlink:title=" ">
<path fill="none" stroke="#63b8ff" d="M1081.94,-318.87C1087.78,-311.59 1096.41,-300.85 1104.16,-291.2"/>
<polygon fill="#63b8ff" stroke="#63b8ff" points="1107.13,-293.1 1110.66,-283.11 1101.67,-288.72 1107.13,-293.1"/>
</a>
</g>
</g>
<!-- Node28&#45;&gt;Node11 -->
<g id="edge38_Node000028_Node000011" class="edge">
<title>Node28&#45;&gt;Node11</title>
<g id="a_edge38_Node000028_Node000011"><a xlink:title=" ">
<path fill="none" stroke="#63b8ff" d="M1142.09,-252.8C1152.87,-243.9 1165.12,-231.4 1171,-217 1176.04,-204.66 1173.66,-200.07 1171,-187 1157.14,-118.83 1099.85,-55.01 1070.91,-26.35"/>
<polygon fill="#63b8ff" stroke="#63b8ff" points="1073.17,-23.67 1063.55,-19.23 1068.3,-28.7 1073.17,-23.67"/>
</a>
</g>
</g>
<!-- Node28&#45;&gt;Node22 -->
<g id="edge39_Node000028_Node000022" class="edge">
<title>Node28&#45;&gt;Node22</title>
<g id="a_edge39_Node000028_Node000022"><a xlink:title=" ">
<path fill="none" stroke="#63b8ff" d="M1148.33,-252.95C1168.82,-242.03 1197.06,-226.97 1217.16,-216.25"/>
<polygon fill="#63b8ff" stroke="#63b8ff" points="1218.85,-219.31 1226.03,-211.52 1215.56,-213.14 1218.85,-219.31"/>
</a>
</g>
</g>
<!-- Node28&#45;&gt;Node25 -->
<g id="edge40_Node000028_Node000025" class="edge">
<title>Node28&#45;&gt;Node25</title>
<g id="a_edge40_Node000028_Node000025"><a xlink:title=" ">
<path fill="none" stroke="#63b8ff" d="M1108.24,-252.8C1100.21,-244.51 1089.93,-233.89 1080.91,-224.59"/>
<polygon fill="#63b8ff" stroke="#63b8ff" points="1083.19,-221.91 1073.72,-217.16 1078.17,-226.78 1083.19,-221.91"/>
</a>
</g>
</g>
<!-- Node29 -->
<g id="Node000029" class="node">
<title>Node29</title>
<g id="a_Node000029"><a xlink:href="../../df/d02/LatLon_8h.html" target="_top" xlink:title="Représentation d&#39;une coordonnée géographique WGS&#45;84 (latitude, longitude).">
<polygon fill="white" stroke="#666666" points="1402.5,-217 1283.5,-217 1283.5,-187 1402.5,-187 1402.5,-217"/>
<text text-anchor="start" x="1291.5" y="-205" font-family="Helvetica,sans-Serif" font-size="10.00">Modules/Coordinates</text>
<text text-anchor="middle" x="1343" y="-194" font-family="Helvetica,sans-Serif" font-size="10.00">/LatLon.h</text>
</a>
</g>
</g>
<!-- Node28&#45;&gt;Node29 -->
<g id="edge41_Node000028_Node000029" class="edge">
<title>Node28&#45;&gt;Node29</title>
<g id="a_edge41_Node000028_Node000029"><a xlink:title=" ">
<path fill="none" stroke="#63b8ff" d="M1170.5,-252.95C1204.18,-243.2 1249.22,-230.16 1284.84,-219.84"/>
<polygon fill="#63b8ff" stroke="#63b8ff" points="1285.98,-223.16 1294.61,-217.01 1284.03,-216.43 1285.98,-223.16"/>
</a>
</g>
</g>
<!-- Node30&#45;&gt;Node24 -->
<g id="edge43_Node000030_Node000024" class="edge">
<title>Node30&#45;&gt;Node24</title>
<g id="a_edge43_Node000030_Node000024"><a xlink:title=" ">
<path fill="none" stroke="#63b8ff" d="M1260.31,-321.97C1201.78,-315.16 1103.79,-302.1 1021,-283 1017.63,-282.22 1014.14,-281.32 1010.67,-280.35"/>
<polygon fill="#63b8ff" stroke="#63b8ff" points="1011.63,-276.99 1001.05,-277.52 1009.65,-283.7 1011.63,-276.99"/>
</a>
</g>
</g>
<!-- Node30&#45;&gt;Node31 -->
<g id="edge44_Node000030_Node000031" class="edge">
<title>Node30&#45;&gt;Node31</title>
<g id="a_edge44_Node000030_Node000031"><a xlink:title=" ">
<path fill="none" stroke="#63b8ff" d="M1320.71,-318.87C1328.27,-311.37 1339.54,-300.2 1349.49,-290.33"/>
<polygon fill="#63b8ff" stroke="#63b8ff" points="1352.13,-292.64 1356.76,-283.11 1347.2,-287.67 1352.13,-292.64"/>
</a>
</g>
</g>
<!-- Node31&#45;&gt;Node11 -->
<g id="edge47_Node000031_Node000011" class="edge">
<title>Node31&#45;&gt;Node11</title>
<g id="a_edge47_Node000031_Node000011"><a xlink:title=" ">
<path fill="none" stroke="#63b8ff" d="M1405.23,-252.95C1420.3,-244.84 1436.49,-233.02 1445,-217 1451.25,-205.22 1451.35,-198.73 1445,-187 1372.49,-53 1166.2,-20.45 1086.23,-12.78"/>
<polygon fill="#63b8ff" stroke="#63b8ff" points="1086.52,-9.3 1076.24,-11.89 1085.89,-16.27 1086.52,-9.3"/>
</a>
</g>
</g>
<!-- Node31&#45;&gt;Node18 -->
<g id="edge46_Node000031_Node000018" class="edge">
<title>Node31&#45;&gt;Node18</title>
<g id="a_edge46_Node000031_Node000018"><a xlink:title=" ">
<path fill="none" stroke="#63b8ff" d="M1387.51,-252.77C1404.63,-236.25 1426.97,-208.53 1412,-187 1359.75,-111.84 1078.56,-42.24 975.17,-18.83"/>
<polygon fill="#63b8ff" stroke="#63b8ff" points="975.69,-15.36 965.17,-16.58 974.16,-22.19 975.69,-15.36"/>
</a>
</g>
</g>
<!-- Node31&#45;&gt;Node22 -->
<g id="edge48_Node000031_Node000022" class="edge">
<title>Node31&#45;&gt;Node22</title>
<g id="a_edge48_Node000031_Node000022"><a xlink:title=" ">
<path fill="none" stroke="#63b8ff" d="M1342.69,-252.95C1320.57,-241.98 1290.04,-226.83 1268.42,-216.11"/>
<polygon fill="#63b8ff" stroke="#63b8ff" points="1269.68,-212.83 1259.17,-211.52 1266.57,-219.1 1269.68,-212.83"/>
</a>
</g>
</g>
<!-- Node31&#45;&gt;Node25 -->
<g id="edge50_Node000031_Node000025" class="edge">
<title>Node31&#45;&gt;Node25</title>
<g id="a_edge50_Node000031_Node000025"><a xlink:title=" ">
<path fill="none" stroke="#63b8ff" d="M1302.75,-252.95C1254.14,-242.95 1188.7,-229.49 1138.02,-219.06"/>
<polygon fill="#63b8ff" stroke="#63b8ff" points="1138.59,-215.6 1128.09,-217.01 1137.18,-222.46 1138.59,-215.6"/>
</a>
</g>
</g>
<!-- Node31&#45;&gt;Node29 -->
<g id="edge49_Node000031_Node000029" class="edge">
<title>Node31&#45;&gt;Node29</title>
<g id="a_edge49_Node000031_Node000029"><a xlink:title=" ">
<path fill="none" stroke="#63b8ff" d="M1364.79,-252.8C1361.41,-245.09 1357.16,-235.37 1353.31,-226.56"/>
<polygon fill="#63b8ff" stroke="#63b8ff" points="1356.41,-224.92 1349.2,-217.16 1350,-227.73 1356.41,-224.92"/>
</a>
</g>
</g>
<!-- Node32 -->
<g id="Node000032" class="node">
<title>Node32</title>
<g id="a_Node000032"><a xlink:title=" ">
<polygon fill="#e0e0e0" stroke="#999999" points="1553,-211.5 1497,-211.5 1497,-192.5 1553,-192.5 1553,-211.5"/>
<text text-anchor="middle" x="1525" y="-199.5" font-family="Helvetica,sans-Serif" font-size="10.00">optional</text>
</a>
</g>
</g>
<!-- Node31&#45;&gt;Node32 -->
<g id="edge45_Node000031_Node000032" class="edge">
<title>Node31&#45;&gt;Node32</title>
<g id="a_edge45_Node000031_Node000032"><a xlink:title=" ">
<path fill="none" stroke="#63b8ff" d="M1404.8,-252.95C1431.8,-241.73 1469.3,-226.15 1495.19,-215.39"/>
<polygon fill="#63b8ff" stroke="#63b8ff" points="1496.61,-218.59 1504.51,-211.52 1493.93,-212.12 1496.61,-218.59"/>
</a>
</g>
</g>
</g>
</svg>
