<?xml version="1.0" encoding="UTF-8" standalone="no"?>
<!DOCTYPE svg PUBLIC "-//W3C//DTD SVG 1.1//EN"
 "http://www.w3.org/Graphics/SVG/1.1/DTD/svg11.dtd">
<!-- Generated by graphviz version 2.43.0 (0)
 -->
<!-- Title: SimulateurFerroviaire/Engine/HMI/PCCPanel/PCCPanel.h Pages: 1 -->
<svg width="1689pt" height="522pt"
 viewBox="0.00 0.00 1689.00 522.00" xmlns="http://www.w3.org/2000/svg" xmlns:xlink="http://www.w3.org/1999/xlink">
<g id="graph0" class="graph" transform="scale(1 1) rotate(0) translate(4 518)">
<title>SimulateurFerroviaire/Engine/HMI/PCCPanel/PCCPanel.h</title>
<!-- Node1 -->
<g id="Node000001" class="node">
<title>Node1</title>
<g id="a_Node000001"><a xlink:title="Panneau PCC superposé togglable, affiché par&#45;dessus la carte Leaflet.">
<polygon fill="#999999" stroke="#666666" points="699,-514 575,-514 575,-473 699,-473 699,-514"/>
<text text-anchor="start" x="583" y="-502" font-family="Helvetica,sans-Serif" font-size="10.00">SimulateurFerroviaire</text>
<text text-anchor="start" x="583" y="-491" font-family="Helvetica,sans-Serif" font-size="10.00">/Engine/HMI/PCCPanel</text>
<text text-anchor="middle" x="637" y="-480" font-family="Helvetica,sans-Serif" font-size="10.00">/PCCPanel.h</text>
</a>
</g>
</g>
<!-- Node2 -->
<g id="Node000002" class="node">
<title>Node2</title>
<g id="a_Node000002"><a xlink:href="../../d6/d01/framework_8h.html" target="_top" xlink:title=" ">
<polygon fill="white" stroke="#666666" points="387.5,-382 308.5,-382 308.5,-363 387.5,-363 387.5,-382"/>
<text text-anchor="middle" x="348" y="-370" font-family="Helvetica,sans-Serif" font-size="10.00">framework.h</text>
</a>
</g>
</g>
<!-- Node1&#45;&gt;Node2 -->
<g id="edge1_Node000001_Node000002" class="edge">
<title>Node1&#45;&gt;Node2</title>
<g id="a_edge1_Node000001_Node000002"><a xlink:title=" ">
<path fill="none" stroke="#63b8ff" d="M589.6,-472.98C529.7,-448.32 428.37,-406.59 378.12,-385.9"/>
<polygon fill="#63b8ff" stroke="#63b8ff" points="379.35,-382.63 368.77,-382.05 376.69,-389.1 379.35,-382.63"/>
</a>
</g>
</g>
<!-- Node12 -->
<g id="Node000012" class="node">
<title>Node12</title>
<g id="a_Node000012"><a xlink:href="../../d8/d02/TCORenderer_8h.html" target="_top" xlink:title="Renderer GDI du schéma TCO — style SNCF, blocs fixes.">
<polygon fill="white" stroke="#666666" points="681.5,-437 592.5,-437 592.5,-418 681.5,-418 681.5,-437"/>
<text text-anchor="middle" x="637" y="-425" font-family="Helvetica,sans-Serif" font-size="10.00">TCORenderer.h</text>
</a>
</g>
</g>
<!-- Node1&#45;&gt;Node12 -->
<g id="edge11_Node000001_Node000012" class="edge">
<title>Node1&#45;&gt;Node12</title>
<g id="a_edge11_Node000001_Node000012"><a xlink:title=" ">
<path fill="none" stroke="#63b8ff" d="M637,-472.95C637,-464.85 637,-455.5 637,-447.47"/>
<polygon fill="#63b8ff" stroke="#63b8ff" points="640.5,-447.26 637,-437.26 633.5,-447.26 640.5,-447.26"/>
</a>
</g>
</g>
<!-- Node13 -->
<g id="Node000013" class="node">
<title>Node13</title>
<g id="a_Node000013"><a xlink:href="../../d8/d00/PCCGraph_8h.html" target="_top" xlink:title="Conteneur propriétaire du graphe PCC.">
<polygon fill="white" stroke="#666666" points="974.5,-382 833.5,-382 833.5,-363 974.5,-363 974.5,-382"/>
<text text-anchor="middle" x="904" y="-370" font-family="Helvetica,sans-Serif" font-size="10.00">Modules/PCC/PCCGraph.h</text>
</a>
</g>
</g>
<!-- Node1&#45;&gt;Node13 -->
<g id="edge61_Node000001_Node000013" class="edge">
<title>Node1&#45;&gt;Node13</title>
<g id="a_edge61_Node000001_Node000013"><a xlink:title=" ">
<path fill="none" stroke="#63b8ff" d="M656.04,-472.87C673.52,-455.95 700.89,-432.1 729,-418 761.89,-401.51 801.4,-390.78 834.55,-384.01"/>
<polygon fill="#63b8ff" stroke="#63b8ff" points="835.48,-387.39 844.62,-382.03 834.13,-380.52 835.48,-387.39"/>
</a>
</g>
</g>
<!-- Node18 -->
<g id="Node000018" class="node">
<title>Node18</title>
<g id="a_Node000018"><a xlink:href="../../dd/d00/Logger_8h.html" target="_top" xlink:title="Système de journalisation à 5 niveaux de trace, un fichier par moteur.">
<polygon fill="white" stroke="#666666" points="743.5,-85 632.5,-85 632.5,-55 743.5,-55 743.5,-85"/>
<text text-anchor="start" x="640.5" y="-73" font-family="Helvetica,sans-Serif" font-size="10.00">Engine/Core/Logger</text>
<text text-anchor="middle" x="688" y="-62" font-family="Helvetica,sans-Serif" font-size="10.00">/Logger.h</text>
</a>
</g>
</g>
<!-- Node1&#45;&gt;Node18 -->
<g id="edge60_Node000001_Node000018" class="edge">
<title>Node1&#45;&gt;Node18</title>
<g id="a_edge60_Node000001_Node000018"><a xlink:title=" ">
<path fill="none" stroke="#63b8ff" d="M613.84,-472.8C603.48,-462.95 591.86,-450.31 584,-437 568.95,-411.53 564,-403.09 564,-373.5 564,-373.5 564,-373.5 564,-190 564,-143.24 610.47,-109.13 646.52,-89.71"/>
<polygon fill="#63b8ff" stroke="#63b8ff" points="648.16,-92.8 655.42,-85.09 644.93,-86.59 648.16,-92.8"/>
</a>
</g>
</g>
<!-- Node35 -->
<g id="Node000035" class="node">
<title>Node35</title>
<g id="a_Node000035"><a xlink:title=" ">
<polygon fill="#e0e0e0" stroke="#999999" points="802,-437 738,-437 738,-418 802,-418 802,-437"/>
<text text-anchor="middle" x="770" y="-425" font-family="Helvetica,sans-Serif" font-size="10.00">algorithm</text>
</a>
</g>
</g>
<!-- Node1&#45;&gt;Node35 -->
<g id="edge62_Node000001_Node000035" class="edge">
<title>Node1&#45;&gt;Node35</title>
<g id="a_edge62_Node000001_Node000035"><a xlink:title=" ">
<path fill="none" stroke="#63b8ff" d="M677.63,-472.95C698.83,-462.75 724.2,-450.54 742.98,-441.5"/>
<polygon fill="#63b8ff" stroke="#63b8ff" points="744.65,-444.58 752.15,-437.09 741.62,-438.27 744.65,-444.58"/>
</a>
</g>
</g>
<!-- Node3 -->
<g id="Node000003" class="node">
<title>Node3</title>
<g id="a_Node000003"><a xlink:href="../../d9/d02/targetver_8h.html" target="_top" xlink:title=" ">
<polygon fill="white" stroke="#666666" points="266,-327 196,-327 196,-308 266,-308 266,-327"/>
<text text-anchor="middle" x="231" y="-315" font-family="Helvetica,sans-Serif" font-size="10.00">targetver.h</text>
</a>
</g>
</g>
<!-- Node2&#45;&gt;Node3 -->
<g id="edge2_Node000002_Node000003" class="edge">
<title>Node2&#45;&gt;Node3</title>
<g id="a_edge2_Node000002_Node000003"><a xlink:title=" ">
<path fill="none" stroke="#63b8ff" d="M329.2,-362.98C310.38,-354.46 281.18,-341.23 259.5,-331.41"/>
<polygon fill="#63b8ff" stroke="#63b8ff" points="260.69,-328.11 250.14,-327.17 257.8,-334.48 260.69,-328.11"/>
</a>
</g>
</g>
<!-- Node5 -->
<g id="Node000005" class="node">
<title>Node5</title>
<g id="a_Node000005"><a xlink:title=" ">
<polygon fill="#e0e0e0" stroke="#999999" points="355,-19 287,-19 287,0 355,0 355,-19"/>
<text text-anchor="middle" x="321" y="-7" font-family="Helvetica,sans-Serif" font-size="10.00">windows.h</text>
</a>
</g>
</g>
<!-- Node2&#45;&gt;Node5 -->
<g id="edge4_Node000002_Node000005" class="edge">
<title>Node2&#45;&gt;Node5</title>
<g id="a_edge4_Node000002_Node000005"><a xlink:title=" ">
<path fill="none" stroke="#63b8ff" d="M308.48,-371.11C272.1,-368.59 219.08,-359.11 187,-327 164.52,-304.5 168,-289.81 168,-258 168,-258 168,-258 168,-129.5 168,-72.29 235.49,-38.58 280.82,-22.39"/>
<polygon fill="#63b8ff" stroke="#63b8ff" points="282.08,-25.66 290.41,-19.11 279.81,-19.04 282.08,-25.66"/>
</a>
</g>
</g>
<!-- Node6 -->
<g id="Node000006" class="node">
<title>Node6</title>
<g id="a_Node000006"><a xlink:title=" ">
<polygon fill="#e0e0e0" stroke="#999999" points="337.5,-327 284.5,-327 284.5,-308 337.5,-308 337.5,-327"/>
<text text-anchor="middle" x="311" y="-315" font-family="Helvetica,sans-Serif" font-size="10.00">stdlib.h</text>
</a>
</g>
</g>
<!-- Node2&#45;&gt;Node6 -->
<g id="edge5_Node000002_Node000006" class="edge">
<title>Node2&#45;&gt;Node6</title>
<g id="a_edge5_Node000002_Node000006"><a xlink:title=" ">
<path fill="none" stroke="#63b8ff" d="M341.89,-362.75C336.72,-355.34 329.15,-344.5 322.81,-335.41"/>
<polygon fill="#63b8ff" stroke="#63b8ff" points="325.59,-333.29 317,-327.09 319.85,-337.29 325.59,-333.29"/>
</a>
</g>
</g>
<!-- Node7 -->
<g id="Node000007" class="node">
<title>Node7</title>
<g id="a_Node000007"><a xlink:title=" ">
<polygon fill="#e0e0e0" stroke="#999999" points="414.5,-327 355.5,-327 355.5,-308 414.5,-308 414.5,-327"/>
<text text-anchor="middle" x="385" y="-315" font-family="Helvetica,sans-Serif" font-size="10.00">malloc.h</text>
</a>
</g>
</g>
<!-- Node2&#45;&gt;Node7 -->
<g id="edge6_Node000002_Node000007" class="edge">
<title>Node2&#45;&gt;Node7</title>
<g id="a_edge6_Node000002_Node000007"><a xlink:title=" ">
<path fill="none" stroke="#63b8ff" d="M354.11,-362.75C359.28,-355.34 366.85,-344.5 373.19,-335.41"/>
<polygon fill="#63b8ff" stroke="#63b8ff" points="376.15,-337.29 379,-327.09 370.41,-333.29 376.15,-337.29"/>
</a>
</g>
</g>
<!-- Node8 -->
<g id="Node000008" class="node">
<title>Node8</title>
<g id="a_Node000008"><a xlink:title=" ">
<polygon fill="#e0e0e0" stroke="#999999" points="497.5,-327 432.5,-327 432.5,-308 497.5,-308 497.5,-327"/>
<text text-anchor="middle" x="465" y="-315" font-family="Helvetica,sans-Serif" font-size="10.00">memory.h</text>
</a>
</g>
</g>
<!-- Node2&#45;&gt;Node8 -->
<g id="edge7_Node000002_Node000008" class="edge">
<title>Node2&#45;&gt;Node8</title>
<g id="a_edge7_Node000002_Node000008"><a xlink:title=" ">
<path fill="none" stroke="#63b8ff" d="M366.8,-362.98C385.62,-354.46 414.82,-341.23 436.5,-331.41"/>
<polygon fill="#63b8ff" stroke="#63b8ff" points="438.2,-334.48 445.86,-327.17 435.31,-328.11 438.2,-334.48"/>
</a>
</g>
</g>
<!-- Node9 -->
<g id="Node000009" class="node">
<title>Node9</title>
<g id="a_Node000009"><a xlink:title=" ">
<polygon fill="#e0e0e0" stroke="#999999" points="50,-327 0,-327 0,-308 50,-308 50,-327"/>
<text text-anchor="middle" x="25" y="-315" font-family="Helvetica,sans-Serif" font-size="10.00">tchar.h</text>
</a>
</g>
</g>
<!-- Node2&#45;&gt;Node9 -->
<g id="edge8_Node000002_Node000009" class="edge">
<title>Node2&#45;&gt;Node9</title>
<g id="a_edge8_Node000002_Node000009"><a xlink:title=" ">
<path fill="none" stroke="#63b8ff" d="M308.06,-366.54C254.02,-359.56 154.44,-345.79 60.18,-327.08"/>
<polygon fill="#63b8ff" stroke="#63b8ff" points="60.69,-323.61 50.19,-325.07 59.31,-330.47 60.69,-323.61"/>
</a>
</g>
</g>
<!-- Node10 -->
<g id="Node000010" class="node">
<title>Node10</title>
<g id="a_Node000010"><a xlink:title=" ">
<polygon fill="#e0e0e0" stroke="#999999" points="140,-327 68,-327 68,-308 140,-308 140,-327"/>
<text text-anchor="middle" x="104" y="-315" font-family="Helvetica,sans-Serif" font-size="10.00">commctrl.h</text>
</a>
</g>
</g>
<!-- Node2&#45;&gt;Node10 -->
<g id="edge9_Node000002_Node000010" class="edge">
<title>Node2&#45;&gt;Node10</title>
<g id="a_edge9_Node000002_Node000010"><a xlink:title=" ">
<path fill="none" stroke="#63b8ff" d="M308.8,-362.98C265.59,-353.6 196.15,-338.52 150.29,-328.56"/>
<polygon fill="#63b8ff" stroke="#63b8ff" points="150.83,-325.09 140.32,-326.39 149.35,-331.93 150.83,-325.09"/>
</a>
</g>
</g>
<!-- Node11 -->
<g id="Node000011" class="node">
<title>Node11</title>
<g id="a_Node000011"><a xlink:title=" ">
<polygon fill="#e0e0e0" stroke="#999999" points="1116,-19 1072,-19 1072,0 1116,0 1116,-19"/>
<text text-anchor="middle" x="1094" y="-7" font-family="Helvetica,sans-Serif" font-size="10.00">string</text>
</a>
</g>
</g>
<!-- Node2&#45;&gt;Node11 -->
<g id="edge10_Node000002_Node000011" class="edge">
<title>Node2&#45;&gt;Node11</title>
<g id="a_edge10_Node000002_Node000011"><a xlink:title=" ">
<path fill="none" stroke="#63b8ff" d="M386.01,-362.96C418.43,-355.16 466.01,-342.51 506,-327 617.75,-283.67 641.2,-262.32 747,-206 779.35,-188.78 996.05,-66.03 1069.62,-24.32"/>
<polygon fill="#63b8ff" stroke="#63b8ff" points="1071.66,-27.19 1078.63,-19.21 1068.21,-21.1 1071.66,-27.19"/>
</a>
</g>
</g>
<!-- Node4 -->
<g id="Node000004" class="node">
<title>Node4</title>
<g id="a_Node000004"><a xlink:title=" ">
<polygon fill="#e0e0e0" stroke="#999999" points="279.5,-266.5 196.5,-266.5 196.5,-247.5 279.5,-247.5 279.5,-266.5"/>
<text text-anchor="middle" x="238" y="-254.5" font-family="Helvetica,sans-Serif" font-size="10.00">SDKDDKVer.h</text>
</a>
</g>
</g>
<!-- Node3&#45;&gt;Node4 -->
<g id="edge3_Node000003_Node000004" class="edge">
<title>Node3&#45;&gt;Node4</title>
<g id="a_edge3_Node000003_Node000004"><a xlink:title=" ">
<path fill="none" stroke="#63b8ff" d="M232.03,-307.87C233,-299.75 234.49,-287.31 235.74,-276.89"/>
<polygon fill="#63b8ff" stroke="#63b8ff" points="239.25,-277.01 236.96,-266.67 232.3,-276.18 239.25,-277.01"/>
</a>
</g>
</g>
<!-- Node12&#45;&gt;Node2 -->
<g id="edge12_Node000012_Node000002" class="edge">
<title>Node12&#45;&gt;Node2</title>
<g id="a_edge12_Node000012_Node000002"><a xlink:title=" ">
<path fill="none" stroke="#63b8ff" d="M592.48,-418.33C539.86,-408.69 452.55,-392.67 397.76,-382.62"/>
<polygon fill="#63b8ff" stroke="#63b8ff" points="398.38,-379.18 387.92,-380.82 397.12,-386.07 398.38,-379.18"/>
</a>
</g>
</g>
<!-- Node12&#45;&gt;Node13 -->
<g id="edge13_Node000012_Node000013" class="edge">
<title>Node12&#45;&gt;Node13</title>
<g id="a_edge13_Node000012_Node000013"><a xlink:title=" ">
<path fill="none" stroke="#63b8ff" d="M679.9,-417.98C726.37,-408.76 800.59,-394.03 850.76,-384.07"/>
<polygon fill="#63b8ff" stroke="#63b8ff" points="851.64,-387.46 860.77,-382.08 850.28,-380.6 851.64,-387.46"/>
</a>
</g>
</g>
<!-- Node12&#45;&gt;Node18 -->
<g id="edge59_Node000012_Node000018" class="edge">
<title>Node12&#45;&gt;Node18</title>
<g id="a_edge59_Node000012_Node000018"><a xlink:title=" ">
<path fill="none" stroke="#63b8ff" d="M632.13,-417.85C622.52,-399.92 602,-357.13 602,-318.5 602,-318.5 602,-318.5 602,-190 602,-149.29 635.47,-113.06 660.65,-91.56"/>
<polygon fill="#63b8ff" stroke="#63b8ff" points="662.99,-94.17 668.49,-85.11 658.54,-88.77 662.99,-94.17"/>
</a>
</g>
</g>
<!-- Node31 -->
<g id="Node000031" class="node">
<title>Node31</title>
<g id="a_Node000031"><a xlink:href="../../dc/d01/PCCSwitchNode_8h.html" target="_top" xlink:title="Nœud PCC représentant un SwitchBlock.">
<polygon fill="white" stroke="#666666" points="1200.5,-327 1097.5,-327 1097.5,-308 1200.5,-308 1200.5,-327"/>
<text text-anchor="middle" x="1149" y="-315" font-family="Helvetica,sans-Serif" font-size="10.00">PCCSwitchNode.h</text>
</a>
</g>
</g>
<!-- Node12&#45;&gt;Node31 -->
<g id="edge58_Node000012_Node000031" class="edge">
<title>Node12&#45;&gt;Node31</title>
<g id="a_edge58_Node000012_Node000031"><a xlink:title=" ">
<path fill="none" stroke="#63b8ff" d="M681.56,-422.13C761.85,-414.03 927.69,-396.23 984,-382 1034.16,-369.33 1089.8,-345.81 1121.96,-331.23"/>
<polygon fill="#63b8ff" stroke="#63b8ff" points="1123.52,-334.36 1131.15,-327.01 1120.6,-328 1123.52,-334.36"/>
</a>
</g>
</g>
<!-- Node13&#45;&gt;Node11 -->
<g id="edge15_Node000013_Node000011" class="edge">
<title>Node13&#45;&gt;Node11</title>
<g id="a_edge15_Node000013_Node000011"><a xlink:title=" ">
<path fill="none" stroke="#63b8ff" d="M974.67,-368.55C1166.21,-359.62 1681,-329.02 1681,-258 1681,-258 1681,-258 1681,-129.5 1681,-15.44 1249.93,-9.48 1126.6,-10.11"/>
<polygon fill="#63b8ff" stroke="#63b8ff" points="1126.27,-6.61 1116.29,-10.18 1126.32,-13.61 1126.27,-6.61"/>
</a>
</g>
</g>
<!-- Node14 -->
<g id="Node000014" class="node">
<title>Node14</title>
<g id="a_Node000014"><a xlink:title=" ">
<polygon fill="#e0e0e0" stroke="#999999" points="764,-327 706,-327 706,-308 764,-308 764,-327"/>
<text text-anchor="middle" x="735" y="-315" font-family="Helvetica,sans-Serif" font-size="10.00">memory</text>
</a>
</g>
</g>
<!-- Node13&#45;&gt;Node14 -->
<g id="edge14_Node000013_Node000014" class="edge">
<title>Node13&#45;&gt;Node14</title>
<g id="a_edge14_Node000013_Node000014"><a xlink:title=" ">
<path fill="none" stroke="#63b8ff" d="M876.85,-362.98C848.47,-354.09 803.77,-340.07 772.14,-330.15"/>
<polygon fill="#63b8ff" stroke="#63b8ff" points="772.95,-326.73 762.37,-327.08 770.86,-333.41 772.95,-326.73"/>
</a>
</g>
</g>
<!-- Node15 -->
<g id="Node000015" class="node">
<title>Node15</title>
<g id="a_Node000015"><a xlink:title=" ">
<polygon fill="#e0e0e0" stroke="#999999" points="875.5,-327 782.5,-327 782.5,-308 875.5,-308 875.5,-327"/>
<text text-anchor="middle" x="829" y="-315" font-family="Helvetica,sans-Serif" font-size="10.00">unordered_map</text>
</a>
</g>
</g>
<!-- Node13&#45;&gt;Node15 -->
<g id="edge16_Node000013_Node000015" class="edge">
<title>Node13&#45;&gt;Node15</title>
<g id="a_edge16_Node000013_Node000015"><a xlink:title=" ">
<path fill="none" stroke="#63b8ff" d="M891.95,-362.98C880.54,-354.92 863.17,-342.65 849.57,-333.03"/>
<polygon fill="#63b8ff" stroke="#63b8ff" points="851.46,-330.08 841.27,-327.17 847.42,-335.8 851.46,-330.08"/>
</a>
</g>
</g>
<!-- Node16 -->
<g id="Node000016" class="node">
<title>Node16</title>
<g id="a_Node000016"><a xlink:title=" ">
<polygon fill="#e0e0e0" stroke="#999999" points="917.5,-200.5 870.5,-200.5 870.5,-181.5 917.5,-181.5 917.5,-200.5"/>
<text text-anchor="middle" x="894" y="-188.5" font-family="Helvetica,sans-Serif" font-size="10.00">vector</text>
</a>
</g>
</g>
<!-- Node13&#45;&gt;Node16 -->
<g id="edge17_Node000013_Node000016" class="edge">
<title>Node13&#45;&gt;Node16</title>
<g id="a_edge17_Node000013_Node000016"><a xlink:title=" ">
<path fill="none" stroke="#63b8ff" d="M903.52,-362.84C901.98,-335.3 897.19,-249.26 895.05,-210.84"/>
<polygon fill="#63b8ff" stroke="#63b8ff" points="898.53,-210.36 894.48,-200.57 891.54,-210.75 898.53,-210.36"/>
</a>
</g>
</g>
<!-- Node17 -->
<g id="Node000017" class="node">
<title>Node17</title>
<g id="a_Node000017"><a xlink:href="../../d1/d02/PCCEdge_8h.html" target="_top" xlink:title="Connexion orientée entre deux nœuds du graphe PCC.">
<polygon fill="white" stroke="#666666" points="737.5,-200.5 668.5,-200.5 668.5,-181.5 737.5,-181.5 737.5,-200.5"/>
<text text-anchor="middle" x="703" y="-188.5" font-family="Helvetica,sans-Serif" font-size="10.00">PCCEdge.h</text>
</a>
</g>
</g>
<!-- Node13&#45;&gt;Node17 -->
<g id="edge18_Node000013_Node000017" class="edge">
<title>Node13&#45;&gt;Node17</title>
<g id="a_edge18_Node000013_Node000017"><a xlink:title=" ">
<path fill="none" stroke="#63b8ff" d="M833.42,-365.69C780.38,-359.69 714.07,-348.12 697,-327 669.94,-293.5 684.77,-238.64 695.33,-210.27"/>
<polygon fill="#63b8ff" stroke="#63b8ff" points="698.65,-211.38 699.07,-200.79 692.14,-208.81 698.65,-211.38"/>
</a>
</g>
</g>
<!-- Node13&#45;&gt;Node18 -->
<g id="edge55_Node000013_Node000018" class="edge">
<title>Node13&#45;&gt;Node18</title>
<g id="a_edge55_Node000013_Node000018"><a xlink:title=" ">
<path fill="none" stroke="#63b8ff" d="M833.25,-370.3C755.05,-364.77 640,-342.31 640,-258 640,-258 640,-258 640,-190 640,-154.56 658.54,-117.21 672.57,-94.02"/>
<polygon fill="#63b8ff" stroke="#63b8ff" points="675.7,-95.61 678.05,-85.27 669.77,-91.88 675.7,-95.61"/>
</a>
</g>
</g>
<!-- Node24 -->
<g id="Node000024" class="node">
<title>Node24</title>
<g id="a_Node000024"><a xlink:href="../../d6/d01/PCCNode_8h.html" target="_top" xlink:title="Nœud abstrait du graphe PCC représentant un bloc ferroviaire.">
<polygon fill="white" stroke="#666666" points="1003.5,-266.5 932.5,-266.5 932.5,-247.5 1003.5,-247.5 1003.5,-266.5"/>
<text text-anchor="middle" x="968" y="-254.5" font-family="Helvetica,sans-Serif" font-size="10.00">PCCNode.h</text>
</a>
</g>
</g>
<!-- Node13&#45;&gt;Node24 -->
<g id="edge27_Node000013_Node000024" class="edge">
<title>Node13&#45;&gt;Node24</title>
<g id="a_edge27_Node000013_Node000024"><a xlink:title=" ">
<path fill="none" stroke="#63b8ff" d="M908.81,-362.97C919.23,-344.48 944.09,-300.4 958.05,-275.64"/>
<polygon fill="#63b8ff" stroke="#63b8ff" points="961.27,-277.06 963.13,-266.63 955.17,-273.62 961.27,-277.06"/>
</a>
</g>
</g>
<!-- Node27 -->
<g id="Node000027" class="node">
<title>Node27</title>
<g id="a_Node000027"><a xlink:href="../../d2/d03/PCCStraightNode_8h.html" target="_top" xlink:title="Nœud PCC représentant un StraightBlock.">
<polygon fill="white" stroke="#666666" points="1079.5,-327 970.5,-327 970.5,-308 1079.5,-308 1079.5,-327"/>
<text text-anchor="middle" x="1025" y="-315" font-family="Helvetica,sans-Serif" font-size="10.00">PCCStraightNode.h</text>
</a>
</g>
</g>
<!-- Node13&#45;&gt;Node27 -->
<g id="edge36_Node000013_Node000027" class="edge">
<title>Node13&#45;&gt;Node27</title>
<g id="a_edge36_Node000013_Node000027"><a xlink:title=" ">
<path fill="none" stroke="#63b8ff" d="M923.44,-362.98C942.99,-354.42 973.38,-341.11 995.82,-331.28"/>
<polygon fill="#63b8ff" stroke="#63b8ff" points="997.45,-334.39 1005.21,-327.17 994.64,-327.98 997.45,-334.39"/>
</a>
</g>
</g>
<!-- Node28 -->
<g id="Node000028" class="node">
<title>Node28</title>
<g id="a_Node000028"><a xlink:href="../../de/d01/StraightBlock_8h.html" target="_top" xlink:title="Modèle de domaine d&#39;un bloc de voie droite (Straight).">
<polygon fill="white" stroke="#666666" points="1417,-272 1265,-272 1265,-242 1417,-242 1417,-272"/>
<text text-anchor="start" x="1273" y="-260" font-family="Helvetica,sans-Serif" font-size="10.00">Modules/Elements/Shunting</text>
<text text-anchor="middle" x="1341" y="-249" font-family="Helvetica,sans-Serif" font-size="10.00">Elements/StraightBlock.h</text>
</a>
</g>
</g>
<!-- Node13&#45;&gt;Node28 -->
<g id="edge56_Node000013_Node000028" class="edge">
<title>Node13&#45;&gt;Node28</title>
<g id="a_edge56_Node000013_Node000028"><a xlink:title=" ">
<path fill="none" stroke="#63b8ff" d="M974.69,-369.85C1041.24,-366.42 1142.84,-356.31 1226,-327 1258.57,-315.52 1292,-294.18 1314.36,-278.26"/>
<polygon fill="#63b8ff" stroke="#63b8ff" points="1316.62,-280.95 1322.65,-272.25 1312.5,-275.29 1316.62,-280.95"/>
</a>
</g>
</g>
<!-- Node13&#45;&gt;Node31 -->
<g id="edge44_Node000013_Node000031" class="edge">
<title>Node13&#45;&gt;Node31</title>
<g id="a_edge44_Node000013_Node000031"><a xlink:title=" ">
<path fill="none" stroke="#63b8ff" d="M943.36,-362.98C985.74,-353.82 1053.26,-339.21 1099.28,-329.26"/>
<polygon fill="#63b8ff" stroke="#63b8ff" points="1100.29,-332.62 1109.33,-327.08 1098.81,-325.78 1100.29,-332.62"/>
</a>
</g>
</g>
<!-- Node32 -->
<g id="Node000032" class="node">
<title>Node32</title>
<g id="a_Node000032"><a xlink:href="../../dc/d01/SwitchBlock_8h.html" target="_top" xlink:title="Modèle de domaine d&#39;un aiguillage ferroviaire à 3 branches.">
<polygon fill="white" stroke="#666666" points="1247,-272 1095,-272 1095,-242 1247,-242 1247,-272"/>
<text text-anchor="start" x="1103" y="-260" font-family="Helvetica,sans-Serif" font-size="10.00">Modules/Elements/Shunting</text>
<text text-anchor="middle" x="1171" y="-249" font-family="Helvetica,sans-Serif" font-size="10.00">Elements/SwitchBlock.h</text>
</a>
</g>
</g>
<!-- Node13&#45;&gt;Node32 -->
<g id="edge57_Node000013_Node000032" class="edge">
<title>Node13&#45;&gt;Node32</title>
<g id="a_edge57_Node000013_Node000032"><a xlink:title=" ">
<path fill="none" stroke="#63b8ff" d="M974.65,-371.48C1055.37,-369.79 1180.19,-361.46 1210,-327 1222.42,-312.64 1210.13,-293.72 1196.15,-279.33"/>
<polygon fill="#63b8ff" stroke="#63b8ff" points="1198.44,-276.67 1188.81,-272.26 1193.59,-281.72 1198.44,-276.67"/>
</a>
</g>
</g>
<!-- Node17&#45;&gt;Node18 -->
<g id="edge19_Node000017_Node000018" class="edge">
<title>Node17&#45;&gt;Node18</title>
<g id="a_edge19_Node000017_Node000018"><a xlink:title=" ">
<path fill="none" stroke="#63b8ff" d="M701.92,-181.44C699.68,-163.64 694.44,-122.07 691.06,-95.31"/>
<polygon fill="#63b8ff" stroke="#63b8ff" points="694.51,-94.68 689.79,-85.2 687.57,-95.56 694.51,-94.68"/>
</a>
</g>
</g>
<!-- Node18&#45;&gt;Node5 -->
<g id="edge26_Node000018_Node000005" class="edge">
<title>Node18&#45;&gt;Node5</title>
<g id="a_edge26_Node000018_Node000005"><a xlink:title=" ">
<path fill="none" stroke="#63b8ff" d="M632.26,-60.12C559.17,-48.46 432.39,-28.26 365.42,-17.58"/>
<polygon fill="#63b8ff" stroke="#63b8ff" points="365.62,-14.07 355.2,-15.95 364.52,-20.98 365.62,-14.07"/>
</a>
</g>
</g>
<!-- Node18&#45;&gt;Node11 -->
<g id="edge25_Node000018_Node000011" class="edge">
<title>Node18&#45;&gt;Node11</title>
<g id="a_edge25_Node000018_Node000011"><a xlink:title=" ">
<path fill="none" stroke="#63b8ff" d="M743.6,-60.99C829.56,-48.6 992.04,-25.19 1061.34,-15.21"/>
<polygon fill="#63b8ff" stroke="#63b8ff" points="1062.24,-18.61 1071.64,-13.72 1061.24,-11.68 1062.24,-18.61"/>
</a>
</g>
</g>
<!-- Node19 -->
<g id="Node000019" class="node">
<title>Node19</title>
<g id="a_Node000019"><a xlink:title=" ">
<polygon fill="#e0e0e0" stroke="#999999" points="710,-19 666,-19 666,0 710,0 710,-19"/>
<text text-anchor="middle" x="688" y="-7" font-family="Helvetica,sans-Serif" font-size="10.00">ctime</text>
</a>
</g>
</g>
<!-- Node18&#45;&gt;Node19 -->
<g id="edge20_Node000018_Node000019" class="edge">
<title>Node18&#45;&gt;Node19</title>
<g id="a_edge20_Node000018_Node000019"><a xlink:title=" ">
<path fill="none" stroke="#63b8ff" d="M688,-54.84C688,-47.21 688,-37.7 688,-29.45"/>
<polygon fill="#63b8ff" stroke="#63b8ff" points="691.5,-29.27 688,-19.27 684.5,-29.27 691.5,-29.27"/>
</a>
</g>
</g>
<!-- Node20 -->
<g id="Node000020" class="node">
<title>Node20</title>
<g id="a_Node000020"><a xlink:title=" ">
<polygon fill="#e0e0e0" stroke="#999999" points="796,-19 728,-19 728,0 796,0 796,-19"/>
<text text-anchor="middle" x="762" y="-7" font-family="Helvetica,sans-Serif" font-size="10.00">filesystem</text>
</a>
</g>
</g>
<!-- Node18&#45;&gt;Node20 -->
<g id="edge21_Node000018_Node000020" class="edge">
<title>Node18&#45;&gt;Node20</title>
<g id="a_edge21_Node000018_Node000020"><a xlink:title=" ">
<path fill="none" stroke="#63b8ff" d="M705.91,-54.84C717.09,-46 731.48,-34.63 742.88,-25.62"/>
<polygon fill="#63b8ff" stroke="#63b8ff" points="745.24,-28.21 750.91,-19.27 740.9,-22.72 745.24,-28.21"/>
</a>
</g>
</g>
<!-- Node21 -->
<g id="Node000021" class="node">
<title>Node21</title>
<g id="a_Node000021"><a xlink:title=" ">
<polygon fill="#e0e0e0" stroke="#999999" points="581.5,-19 526.5,-19 526.5,0 581.5,0 581.5,-19"/>
<text text-anchor="middle" x="554" y="-7" font-family="Helvetica,sans-Serif" font-size="10.00">fstream</text>
</a>
</g>
</g>
<!-- Node18&#45;&gt;Node21 -->
<g id="edge22_Node000018_Node000021" class="edge">
<title>Node18&#45;&gt;Node21</title>
<g id="a_edge22_Node000018_Node000021"><a xlink:title=" ">
<path fill="none" stroke="#63b8ff" d="M655.9,-54.99C633.75,-45.31 604.52,-32.56 583.05,-23.18"/>
<polygon fill="#63b8ff" stroke="#63b8ff" points="584.35,-19.93 573.79,-19.14 581.55,-26.35 584.35,-19.93"/>
</a>
</g>
</g>
<!-- Node22 -->
<g id="Node000022" class="node">
<title>Node22</title>
<g id="a_Node000022"><a xlink:title=" ">
<polygon fill="#e0e0e0" stroke="#999999" points="648,-19 600,-19 600,0 648,0 648,-19"/>
<text text-anchor="middle" x="624" y="-7" font-family="Helvetica,sans-Serif" font-size="10.00">mutex</text>
</a>
</g>
</g>
<!-- Node18&#45;&gt;Node22 -->
<g id="edge23_Node000018_Node000022" class="edge">
<title>Node18&#45;&gt;Node22</title>
<g id="a_edge23_Node000018_Node000022"><a xlink:title=" ">
<path fill="none" stroke="#63b8ff" d="M672.51,-54.84C663.03,-46.17 650.89,-35.08 641.12,-26.15"/>
<polygon fill="#63b8ff" stroke="#63b8ff" points="643.33,-23.43 633.59,-19.27 638.61,-28.6 643.33,-23.43"/>
</a>
</g>
</g>
<!-- Node23 -->
<g id="Node000023" class="node">
<title>Node23</title>
<g id="a_Node000023"><a xlink:title=" ">
<polygon fill="#e0e0e0" stroke="#999999" points="870,-19 814,-19 814,0 870,0 870,-19"/>
<text text-anchor="middle" x="842" y="-7" font-family="Helvetica,sans-Serif" font-size="10.00">sstream</text>
</a>
</g>
</g>
<!-- Node18&#45;&gt;Node23 -->
<g id="edge24_Node000018_Node000023" class="edge">
<title>Node18&#45;&gt;Node23</title>
<g id="a_edge24_Node000018_Node000023"><a xlink:title=" ">
<path fill="none" stroke="#63b8ff" d="M724.89,-54.99C750.7,-45.18 784.85,-32.21 809.6,-22.81"/>
<polygon fill="#63b8ff" stroke="#63b8ff" points="811.15,-25.96 819.26,-19.14 808.67,-19.42 811.15,-25.96"/>
</a>
</g>
</g>
<!-- Node24&#45;&gt;Node11 -->
<g id="edge28_Node000024_Node000011" class="edge">
<title>Node24&#45;&gt;Node11</title>
<g id="a_edge28_Node000024_Node000011"><a xlink:title=" ">
<path fill="none" stroke="#63b8ff" d="M938.43,-247.41C898.49,-234.36 835.2,-207.69 862,-176 924.29,-102.36 1008.78,-209.17 1076,-140 1104.78,-110.38 1101.75,-57.46 1097.58,-29.31"/>
<polygon fill="#63b8ff" stroke="#63b8ff" points="1100.99,-28.49 1095.87,-19.21 1094.09,-29.66 1100.99,-28.49"/>
</a>
</g>
</g>
<!-- Node24&#45;&gt;Node16 -->
<g id="edge29_Node000024_Node000016" class="edge">
<title>Node24&#45;&gt;Node16</title>
<g id="a_edge29_Node000024_Node000016"><a xlink:title=" ">
<path fill="none" stroke="#63b8ff" d="M958.02,-247.37C946.28,-237.21 926.56,-220.16 912.1,-207.65"/>
<polygon fill="#63b8ff" stroke="#63b8ff" points="914.15,-204.8 904.3,-200.91 909.57,-210.09 914.15,-204.8"/>
</a>
</g>
</g>
<!-- Node24&#45;&gt;Node17 -->
<g id="edge30_Node000024_Node000017" class="edge">
<title>Node24&#45;&gt;Node17</title>
<g id="a_edge30_Node000024_Node000017"><a xlink:title=" ">
<path fill="none" stroke="#63b8ff" d="M932.54,-247.44C884.8,-235.91 799.88,-215.4 747.79,-202.82"/>
<polygon fill="#63b8ff" stroke="#63b8ff" points="748.38,-199.36 737.83,-200.41 746.73,-206.16 748.38,-199.36"/>
</a>
</g>
</g>
<!-- Node24&#45;&gt;Node18 -->
<g id="edge35_Node000024_Node000018" class="edge">
<title>Node24&#45;&gt;Node18</title>
<g id="a_edge35_Node000024_Node000018"><a xlink:title=" ">
<path fill="none" stroke="#63b8ff" d="M932.5,-247.8C903.03,-239.97 860.79,-226.34 828,-206 777.59,-174.74 730.45,-122.82 705.82,-93.31"/>
<polygon fill="#63b8ff" stroke="#63b8ff" points="708.26,-90.76 699.2,-85.26 702.85,-95.21 708.26,-90.76"/>
</a>
</g>
</g>
<!-- Node25 -->
<g id="Node000025" class="node">
<title>Node25</title>
<g id="a_Node000025"><a xlink:href="../../df/d02/ShuntingElement_8h.html" target="_top" xlink:title="Interface abstraite pour tous les éléments de shuntage ferroviaire.">
<polygon fill="white" stroke="#666666" points="1132,-206 974,-206 974,-176 1132,-176 1132,-206"/>
<text text-anchor="start" x="982" y="-194" font-family="Helvetica,sans-Serif" font-size="10.00">Modules/Elements/Shunting</text>
<text text-anchor="middle" x="1053" y="-183" font-family="Helvetica,sans-Serif" font-size="10.00">Elements/ShuntingElement.h</text>
</a>
</g>
</g>
<!-- Node24&#45;&gt;Node25 -->
<g id="edge31_Node000024_Node000025" class="edge">
<title>Node24&#45;&gt;Node25</title>
<g id="a_edge31_Node000024_Node000025"><a xlink:title=" ">
<path fill="none" stroke="#63b8ff" d="M979.46,-247.37C991.32,-238.44 1010.25,-224.19 1025.94,-212.38"/>
<polygon fill="#63b8ff" stroke="#63b8ff" points="1028.37,-214.93 1034.25,-206.12 1024.16,-209.33 1028.37,-214.93"/>
</a>
</g>
</g>
<!-- Node26 -->
<g id="Node000026" class="node">
<title>Node26</title>
<g id="a_Node000026"><a xlink:href="../../d5/d02/Element_8h.html" target="_top" xlink:title="Classe de base abstraite pour tous les éléments interactifs ferroviaires.">
<polygon fill="white" stroke="#666666" points="1066.5,-140 907.5,-140 907.5,-121 1066.5,-121 1066.5,-140"/>
<text text-anchor="middle" x="987" y="-128" font-family="Helvetica,sans-Serif" font-size="10.00">Modules/Elements/Element.h</text>
</a>
</g>
</g>
<!-- Node25&#45;&gt;Node26 -->
<g id="edge32_Node000025_Node000026" class="edge">
<title>Node25&#45;&gt;Node26</title>
<g id="a_edge32_Node000025_Node000026"><a xlink:title=" ">
<path fill="none" stroke="#63b8ff" d="M1037.02,-175.84C1027.25,-167.17 1014.73,-156.08 1004.66,-147.15"/>
<polygon fill="#63b8ff" stroke="#63b8ff" points="1006.69,-144.28 996.89,-140.27 1002.05,-149.52 1006.69,-144.28"/>
</a>
</g>
</g>
<!-- Node26&#45;&gt;Node11 -->
<g id="edge33_Node000026_Node000011" class="edge">
<title>Node26&#45;&gt;Node11</title>
<g id="a_edge33_Node000026_Node000011"><a xlink:title=" ">
<path fill="none" stroke="#63b8ff" d="M994.7,-120.94C1012.35,-101.31 1056,-52.76 1079.11,-27.07"/>
<polygon fill="#63b8ff" stroke="#63b8ff" points="1082,-29.08 1086.09,-19.3 1076.8,-24.4 1082,-29.08"/>
</a>
</g>
</g>
<!-- Node26&#45;&gt;Node18 -->
<g id="edge34_Node000026_Node000018" class="edge">
<title>Node26&#45;&gt;Node18</title>
<g id="a_edge34_Node000026_Node000018"><a xlink:title=" ">
<path fill="none" stroke="#63b8ff" d="M943.52,-120.99C893.71,-111.25 811.55,-95.17 753.87,-83.89"/>
<polygon fill="#63b8ff" stroke="#63b8ff" points="754.25,-80.39 743.76,-81.91 752.9,-87.26 754.25,-80.39"/>
</a>
</g>
</g>
<!-- Node27&#45;&gt;Node24 -->
<g id="edge37_Node000027_Node000024" class="edge">
<title>Node27&#45;&gt;Node24</title>
<g id="a_edge37_Node000027_Node000024"><a xlink:title=" ">
<path fill="none" stroke="#63b8ff" d="M1016.59,-307.87C1007.92,-298.97 994.2,-284.89 983.54,-273.95"/>
<polygon fill="#63b8ff" stroke="#63b8ff" points="985.93,-271.39 976.45,-266.67 980.92,-276.27 985.93,-271.39"/>
</a>
</g>
</g>
<!-- Node27&#45;&gt;Node28 -->
<g id="edge38_Node000027_Node000028" class="edge">
<title>Node27&#45;&gt;Node28</title>
<g id="a_edge38_Node000027_Node000028"><a xlink:title=" ">
<path fill="none" stroke="#63b8ff" d="M1070.95,-307.99C1119.09,-299.08 1195.82,-284.88 1255.21,-273.88"/>
<polygon fill="#63b8ff" stroke="#63b8ff" points="1256.14,-277.27 1265.33,-272.01 1254.86,-270.39 1256.14,-277.27"/>
</a>
</g>
</g>
<!-- Node28&#45;&gt;Node11 -->
<g id="edge39_Node000028_Node000011" class="edge">
<title>Node28&#45;&gt;Node11</title>
<g id="a_edge39_Node000028_Node000011"><a xlink:title=" ">
<path fill="none" stroke="#63b8ff" d="M1417.29,-253.23C1491.93,-248.72 1598.07,-236.91 1624,-206 1632.57,-195.78 1631.9,-186.74 1624,-176 1562.72,-92.66 1231.65,-32.73 1126.25,-15.54"/>
<polygon fill="#63b8ff" stroke="#63b8ff" points="1126.64,-12.06 1116.21,-13.92 1125.52,-18.97 1126.64,-12.06"/>
</a>
</g>
</g>
<!-- Node28&#45;&gt;Node16 -->
<g id="edge40_Node000028_Node000016" class="edge">
<title>Node28&#45;&gt;Node16</title>
<g id="a_edge40_Node000028_Node000016"><a xlink:title=" ">
<path fill="none" stroke="#63b8ff" d="M1264.57,-243.26C1261.68,-242.83 1258.81,-242.41 1256,-242 1127.01,-223.41 1093.68,-226.62 965,-206 952.72,-204.03 939.32,-201.49 927.5,-199.12"/>
<polygon fill="#63b8ff" stroke="#63b8ff" points="928.09,-195.67 917.59,-197.09 926.69,-202.52 928.09,-195.67"/>
</a>
</g>
</g>
<!-- Node28&#45;&gt;Node25 -->
<g id="edge41_Node000028_Node000025" class="edge">
<title>Node28&#45;&gt;Node25</title>
<g id="a_edge41_Node000028_Node000025"><a xlink:title=" ">
<path fill="none" stroke="#63b8ff" d="M1277.8,-241.95C1232.97,-231.99 1172.69,-218.6 1125.84,-208.19"/>
<polygon fill="#63b8ff" stroke="#63b8ff" points="1126.58,-204.77 1116.06,-206.01 1125.06,-211.6 1126.58,-204.77"/>
</a>
</g>
</g>
<!-- Node29 -->
<g id="Node000029" class="node">
<title>Node29</title>
<g id="a_Node000029"><a xlink:href="../../d6/d01/CoordinateLatLon_8h.html" target="_top" xlink:title="Représentation d&#39;une coordonnée géographique WGS&#45;84 (latitude, longitude).">
<polygon fill="white" stroke="#666666" points="1614.5,-206 1477.5,-206 1477.5,-176 1614.5,-176 1614.5,-206"/>
<text text-anchor="start" x="1485.5" y="-194" font-family="Helvetica,sans-Serif" font-size="10.00">Engine/Core/Coordinates</text>
<text text-anchor="middle" x="1546" y="-183" font-family="Helvetica,sans-Serif" font-size="10.00">/CoordinateLatLon.h</text>
</a>
</g>
</g>
<!-- Node28&#45;&gt;Node29 -->
<g id="edge42_Node000028_Node000029" class="edge">
<title>Node28&#45;&gt;Node29</title>
<g id="a_edge42_Node000028_Node000029"><a xlink:title=" ">
<path fill="none" stroke="#63b8ff" d="M1385.99,-241.95C1416.96,-232.28 1458.3,-219.38 1491.2,-209.11"/>
<polygon fill="#63b8ff" stroke="#63b8ff" points="1492.61,-212.33 1501.12,-206.01 1490.53,-205.65 1492.61,-212.33"/>
</a>
</g>
</g>
<!-- Node30 -->
<g id="Node000030" class="node">
<title>Node30</title>
<g id="a_Node000030"><a xlink:href="../../db/d03/CoordinateXY_8h.html" target="_top" xlink:title="Représentation d&#39;une coordonnée plane en mètres (système métrique UTM).">
<polygon fill="white" stroke="#666666" points="1459.5,-206 1322.5,-206 1322.5,-176 1459.5,-176 1459.5,-206"/>
<text text-anchor="start" x="1330.5" y="-194" font-family="Helvetica,sans-Serif" font-size="10.00">Engine/Core/Coordinates</text>
<text text-anchor="middle" x="1391" y="-183" font-family="Helvetica,sans-Serif" font-size="10.00">/CoordinateXY.h</text>
</a>
</g>
</g>
<!-- Node28&#45;&gt;Node30 -->
<g id="edge43_Node000028_Node000030" class="edge">
<title>Node28&#45;&gt;Node30</title>
<g id="a_edge43_Node000028_Node000030"><a xlink:title=" ">
<path fill="none" stroke="#63b8ff" d="M1352.1,-241.8C1358.44,-233.68 1366.54,-223.31 1373.7,-214.15"/>
<polygon fill="#63b8ff" stroke="#63b8ff" points="1376.54,-216.2 1379.93,-206.16 1371.02,-211.89 1376.54,-216.2"/>
</a>
</g>
</g>
<!-- Node31&#45;&gt;Node24 -->
<g id="edge45_Node000031_Node000024" class="edge">
<title>Node31&#45;&gt;Node24</title>
<g id="a_edge45_Node000031_Node000024"><a xlink:title=" ">
<path fill="none" stroke="#63b8ff" d="M1122.68,-307.99C1091.45,-297.9 1039.2,-281.01 1004.18,-269.69"/>
<polygon fill="#63b8ff" stroke="#63b8ff" points="1004.94,-266.26 994.35,-266.52 1002.79,-272.92 1004.94,-266.26"/>
</a>
</g>
</g>
<!-- Node31&#45;&gt;Node32 -->
<g id="edge46_Node000031_Node000032" class="edge">
<title>Node31&#45;&gt;Node32</title>
<g id="a_edge46_Node000031_Node000032"><a xlink:title=" ">
<path fill="none" stroke="#63b8ff" d="M1152.25,-307.87C1154.84,-300.96 1158.62,-290.93 1162.1,-281.67"/>
<polygon fill="#63b8ff" stroke="#63b8ff" points="1165.45,-282.71 1165.69,-272.11 1158.9,-280.24 1165.45,-282.71"/>
</a>
</g>
</g>
<!-- Node32&#45;&gt;Node11 -->
<g id="edge50_Node000032_Node000011" class="edge">
<title>Node32&#45;&gt;Node11</title>
<g id="a_edge50_Node000032_Node000011"><a xlink:title=" ">
<path fill="none" stroke="#63b8ff" d="M1227.64,-241.93C1245.95,-234.41 1264.28,-223.04 1275,-206 1282.1,-194.71 1280.38,-188.2 1275,-176 1242.84,-103.01 1160.82,-48.22 1119.14,-24.08"/>
<polygon fill="#63b8ff" stroke="#63b8ff" points="1120.84,-21.02 1110.41,-19.13 1117.39,-27.11 1120.84,-21.02"/>
</a>
</g>
</g>
<!-- Node32&#45;&gt;Node16 -->
<g id="edge51_Node000032_Node000016" class="edge">
<title>Node32&#45;&gt;Node16</title>
<g id="a_edge51_Node000032_Node000016"><a xlink:title=" ">
<path fill="none" stroke="#63b8ff" d="M1094.96,-243.04C1047.65,-234.25 985.78,-221.44 932,-206 929.72,-205.35 927.38,-204.62 925.04,-203.85"/>
<polygon fill="#63b8ff" stroke="#63b8ff" points="926.12,-200.52 915.52,-200.55 923.82,-207.14 926.12,-200.52"/>
</a>
</g>
</g>
<!-- Node32&#45;&gt;Node23 -->
<g id="edge49_Node000032_Node000023" class="edge">
<title>Node32&#45;&gt;Node23</title>
<g id="a_edge49_Node000032_Node000023"><a xlink:title=" ">
<path fill="none" stroke="#63b8ff" d="M1094.91,-247.65C1054.36,-240.78 1004.79,-228.35 965,-206 946.92,-195.84 910.71,-157.12 899,-140 874.24,-103.81 856.3,-55.13 847.7,-28.97"/>
<polygon fill="#63b8ff" stroke="#63b8ff" points="850.97,-27.7 844.6,-19.24 844.3,-29.83 850.97,-27.7"/>
</a>
</g>
</g>
<!-- Node32&#45;&gt;Node25 -->
<g id="edge54_Node000032_Node000025" class="edge">
<title>Node32&#45;&gt;Node25</title>
<g id="a_edge54_Node000032_Node000025"><a xlink:title=" ">
<path fill="none" stroke="#63b8ff" d="M1145.1,-241.95C1128.27,-232.83 1106.13,-220.82 1087.77,-210.86"/>
<polygon fill="#63b8ff" stroke="#63b8ff" points="1089.29,-207.7 1078.84,-206.01 1085.96,-213.86 1089.29,-207.7"/>
</a>
</g>
</g>
<!-- Node32&#45;&gt;Node29 -->
<g id="edge52_Node000032_Node000029" class="edge">
<title>Node32&#45;&gt;Node29</title>
<g id="a_edge52_Node000032_Node000029"><a xlink:title=" ">
<path fill="none" stroke="#63b8ff" d="M1247.16,-243.34C1316.31,-231.83 1414.33,-215.45 1467.21,-206.3"/>
<polygon fill="#63b8ff" stroke="#63b8ff" points="1467.91,-209.73 1477.16,-204.56 1466.71,-202.83 1467.91,-209.73"/>
</a>
</g>
</g>
<!-- Node32&#45;&gt;Node30 -->
<g id="edge53_Node000032_Node000030" class="edge">
<title>Node32&#45;&gt;Node30</title>
<g id="a_edge53_Node000032_Node000030"><a xlink:title=" ">
<path fill="none" stroke="#63b8ff" d="M1219.28,-241.95C1252.81,-232.2 1297.65,-219.16 1333.1,-208.84"/>
<polygon fill="#63b8ff" stroke="#63b8ff" points="1334.21,-212.17 1342.83,-206.01 1332.25,-205.44 1334.21,-212.17"/>
</a>
</g>
</g>
<!-- Node33 -->
<g id="Node000033" class="node">
<title>Node33</title>
<g id="a_Node000033"><a xlink:title=" ">
<polygon fill="#e0e0e0" stroke="#999999" points="1192,-200.5 1150,-200.5 1150,-181.5 1192,-181.5 1192,-200.5"/>
<text text-anchor="middle" x="1171" y="-188.5" font-family="Helvetica,sans-Serif" font-size="10.00">array</text>
</a>
</g>
</g>
<!-- Node32&#45;&gt;Node33 -->
<g id="edge47_Node000032_Node000033" class="edge">
<title>Node32&#45;&gt;Node33</title>
<g id="a_edge47_Node000032_Node000033"><a xlink:title=" ">
<path fill="none" stroke="#63b8ff" d="M1171,-241.8C1171,-232.7 1171,-220.79 1171,-210.9"/>
<polygon fill="#63b8ff" stroke="#63b8ff" points="1174.5,-210.84 1171,-200.84 1167.5,-210.84 1174.5,-210.84"/>
</a>
</g>
</g>
<!-- Node34 -->
<g id="Node000034" class="node">
<title>Node34</title>
<g id="a_Node000034"><a xlink:title=" ">
<polygon fill="#e0e0e0" stroke="#999999" points="1266,-200.5 1210,-200.5 1210,-181.5 1266,-181.5 1266,-200.5"/>
<text text-anchor="middle" x="1238" y="-188.5" font-family="Helvetica,sans-Serif" font-size="10.00">optional</text>
</a>
</g>
</g>
<!-- Node32&#45;&gt;Node34 -->
<g id="edge48_Node000032_Node000034" class="edge">
<title>Node32&#45;&gt;Node34</title>
<g id="a_edge48_Node000032_Node000034"><a xlink:title=" ">
<path fill="none" stroke="#63b8ff" d="M1185.87,-241.8C1196.42,-231.72 1210.58,-218.19 1221.48,-207.78"/>
<polygon fill="#63b8ff" stroke="#63b8ff" points="1223.93,-210.28 1228.74,-200.84 1219.09,-205.22 1223.93,-210.28"/>
</a>
</g>
</g>
</g>
</svg>
