<?xml version="1.0" encoding="UTF-8" standalone="no"?>
<!DOCTYPE svg PUBLIC "-//W3C//DTD SVG 1.1//EN"
 "http://www.w3.org/Graphics/SVG/1.1/DTD/svg11.dtd">
<!-- Generated by graphviz version 2.43.0 (0)
 -->
<!-- Title: SwitchBlock Pages: 1 -->
<svg width="803pt" height="2059pt"
 viewBox="0.00 0.00 803.00 2059.00" xmlns="http://www.w3.org/2000/svg" xmlns:xlink="http://www.w3.org/1999/xlink">
<g id="graph0" class="graph" transform="scale(1 1) rotate(0) translate(4 2055)">
<title>SwitchBlock</title>
<!-- Node1 -->
<g id="Node000001" class="node">
<title>Node1</title>
<g id="a_Node000001"><a xlink:title=" ">
<polygon fill="#999999" stroke="transparent" points="520,-739 348,-739 348,0 520,0 520,-739"/>
<text text-anchor="start" x="404" y="-726.5" font-family="Helvetica,sans-Serif" font-size="10.00">SwitchBlock</text>
<text text-anchor="start" x="354.5" y="-711.5" font-family="Helvetica,sans-Serif" font-size="10.00">&#45;</text>
<text text-anchor="start" x="365" y="-711.5" font-family="Helvetica,sans-Serif" font-size="10.00">m_rootBranchId</text>
<text text-anchor="start" x="354.5" y="-696.5" font-family="Helvetica,sans-Serif" font-size="10.00">&#45;</text>
<text text-anchor="start" x="365" y="-696.5" font-family="Helvetica,sans-Serif" font-size="10.00">m_normalBranchId</text>
<text text-anchor="start" x="354.5" y="-681.5" font-family="Helvetica,sans-Serif" font-size="10.00">&#45;</text>
<text text-anchor="start" x="365" y="-681.5" font-family="Helvetica,sans-Serif" font-size="10.00">m_deviationBranchId</text>
<text text-anchor="start" x="354.5" y="-666.5" font-family="Helvetica,sans-Serif" font-size="10.00">&#45;</text>
<text text-anchor="start" x="365" y="-666.5" font-family="Helvetica,sans-Serif" font-size="10.00">m_tipOnRoot</text>
<text text-anchor="start" x="354.5" y="-651.5" font-family="Helvetica,sans-Serif" font-size="10.00">&#45;</text>
<text text-anchor="start" x="365" y="-651.5" font-family="Helvetica,sans-Serif" font-size="10.00">m_tipOnNormal</text>
<text text-anchor="start" x="354.5" y="-636.5" font-family="Helvetica,sans-Serif" font-size="10.00">&#45;</text>
<text text-anchor="start" x="365" y="-636.5" font-family="Helvetica,sans-Serif" font-size="10.00">m_tipOnDeviation</text>
<text text-anchor="start" x="354.5" y="-621.5" font-family="Helvetica,sans-Serif" font-size="10.00">&#45;</text>
<text text-anchor="start" x="365" y="-621.5" font-family="Helvetica,sans-Serif" font-size="10.00">m_totalLengthMeters</text>
<text text-anchor="start" x="354.5" y="-606.5" font-family="Helvetica,sans-Serif" font-size="10.00">&#45;</text>
<text text-anchor="start" x="365" y="-606.5" font-family="Helvetica,sans-Serif" font-size="10.00">m_doubleOnNormal</text>
<text text-anchor="start" x="354.5" y="-591.5" font-family="Helvetica,sans-Serif" font-size="10.00">&#45;</text>
<text text-anchor="start" x="365" y="-591.5" font-family="Helvetica,sans-Serif" font-size="10.00">m_doubleOnDeviation</text>
<text text-anchor="start" x="354.5" y="-576.5" font-family="Helvetica,sans-Serif" font-size="10.00">&#45;</text>
<text text-anchor="start" x="365" y="-576.5" font-family="Helvetica,sans-Serif" font-size="10.00">m_activeBranch</text>
<text text-anchor="start" x="352" y="-561.5" font-family="Helvetica,sans-Serif" font-size="10.00">+</text>
<text text-anchor="start" x="365" y="-561.5" font-family="Helvetica,sans-Serif" font-size="10.00">SwitchBlock()</text>
<text text-anchor="start" x="352" y="-546.5" font-family="Helvetica,sans-Serif" font-size="10.00">+</text>
<text text-anchor="start" x="365" y="-546.5" font-family="Helvetica,sans-Serif" font-size="10.00">SwitchBlock()</text>
<text text-anchor="start" x="352" y="-531.5" font-family="Helvetica,sans-Serif" font-size="10.00">+</text>
<text text-anchor="start" x="365" y="-531.5" font-family="Helvetica,sans-Serif" font-size="10.00">getId()</text>
<text text-anchor="start" x="352" y="-516.5" font-family="Helvetica,sans-Serif" font-size="10.00">+</text>
<text text-anchor="start" x="365" y="-516.5" font-family="Helvetica,sans-Serif" font-size="10.00">getType()</text>
<text text-anchor="start" x="352" y="-501.5" font-family="Helvetica,sans-Serif" font-size="10.00">+</text>
<text text-anchor="start" x="365" y="-501.5" font-family="Helvetica,sans-Serif" font-size="10.00">getState()</text>
<text text-anchor="start" x="352" y="-486.5" font-family="Helvetica,sans-Serif" font-size="10.00">+</text>
<text text-anchor="start" x="365" y="-486.5" font-family="Helvetica,sans-Serif" font-size="10.00">setState()</text>
<text text-anchor="start" x="352" y="-471.5" font-family="Helvetica,sans-Serif" font-size="10.00">+</text>
<text text-anchor="start" x="365" y="-471.5" font-family="Helvetica,sans-Serif" font-size="10.00">setBranchPointers()</text>
<text text-anchor="start" x="352" y="-456.5" font-family="Helvetica,sans-Serif" font-size="10.00">+</text>
<text text-anchor="start" x="365" y="-456.5" font-family="Helvetica,sans-Serif" font-size="10.00">getBranches()</text>
<text text-anchor="start" x="352" y="-441.5" font-family="Helvetica,sans-Serif" font-size="10.00">+</text>
<text text-anchor="start" x="365" y="-441.5" font-family="Helvetica,sans-Serif" font-size="10.00">getJunctionCoordinate()</text>
<text text-anchor="start" x="352" y="-426.5" font-family="Helvetica,sans-Serif" font-size="10.00">+</text>
<text text-anchor="start" x="365" y="-426.5" font-family="Helvetica,sans-Serif" font-size="10.00">getBranchIds()</text>
<text text-anchor="start" x="352" y="-411.5" font-family="Helvetica,sans-Serif" font-size="10.00">+</text>
<text text-anchor="start" x="365" y="-411.5" font-family="Helvetica,sans-Serif" font-size="10.00">isOriented()</text>
<text text-anchor="start" x="352" y="-396.5" font-family="Helvetica,sans-Serif" font-size="10.00">+</text>
<text text-anchor="start" x="365" y="-396.5" font-family="Helvetica,sans-Serif" font-size="10.00">isDouble()</text>
<text text-anchor="start" x="352" y="-381.5" font-family="Helvetica,sans-Serif" font-size="10.00">+</text>
<text text-anchor="start" x="365" y="-381.5" font-family="Helvetica,sans-Serif" font-size="10.00">getRootBranchId()</text>
<text text-anchor="start" x="352" y="-366.5" font-family="Helvetica,sans-Serif" font-size="10.00">+</text>
<text text-anchor="start" x="365" y="-366.5" font-family="Helvetica,sans-Serif" font-size="10.00">getNormalBranchId()</text>
<text text-anchor="start" x="352" y="-351.5" font-family="Helvetica,sans-Serif" font-size="10.00">+</text>
<text text-anchor="start" x="365" y="-351.5" font-family="Helvetica,sans-Serif" font-size="10.00">getDeviationBranchId()</text>
<text text-anchor="start" x="352" y="-336.5" font-family="Helvetica,sans-Serif" font-size="10.00">+</text>
<text text-anchor="start" x="365" y="-336.5" font-family="Helvetica,sans-Serif" font-size="10.00">getTipOnRoot()</text>
<text text-anchor="start" x="352" y="-321.5" font-family="Helvetica,sans-Serif" font-size="10.00">+</text>
<text text-anchor="start" x="365" y="-321.5" font-family="Helvetica,sans-Serif" font-size="10.00">getTipOnNormal()</text>
<text text-anchor="start" x="352" y="-306.5" font-family="Helvetica,sans-Serif" font-size="10.00">+</text>
<text text-anchor="start" x="365" y="-306.5" font-family="Helvetica,sans-Serif" font-size="10.00">getTipOnDeviation()</text>
<text text-anchor="start" x="352" y="-291.5" font-family="Helvetica,sans-Serif" font-size="10.00">+</text>
<text text-anchor="start" x="365" y="-291.5" font-family="Helvetica,sans-Serif" font-size="10.00">getDoubleOnNormal()</text>
<text text-anchor="start" x="352" y="-276.5" font-family="Helvetica,sans-Serif" font-size="10.00">+</text>
<text text-anchor="start" x="365" y="-276.5" font-family="Helvetica,sans-Serif" font-size="10.00">getDoubleOnDeviation()</text>
<text text-anchor="start" x="352" y="-261.5" font-family="Helvetica,sans-Serif" font-size="10.00">+</text>
<text text-anchor="start" x="365" y="-261.5" font-family="Helvetica,sans-Serif" font-size="10.00">getPartnerOnNormal()</text>
<text text-anchor="start" x="352" y="-246.5" font-family="Helvetica,sans-Serif" font-size="10.00">+</text>
<text text-anchor="start" x="365" y="-246.5" font-family="Helvetica,sans-Serif" font-size="10.00">getPartnerOnDeviation()</text>
<text text-anchor="start" x="352" y="-231.5" font-family="Helvetica,sans-Serif" font-size="10.00">+</text>
<text text-anchor="start" x="365" y="-231.5" font-family="Helvetica,sans-Serif" font-size="10.00">getAbsorbedNormalCoords()</text>
<text text-anchor="start" x="352" y="-216.5" font-family="Helvetica,sans-Serif" font-size="10.00">+</text>
<text text-anchor="start" x="365" y="-216.5" font-family="Helvetica,sans-Serif" font-size="10.00">getAbsorbedDeviationCoords()</text>
<text text-anchor="start" x="352" y="-201.5" font-family="Helvetica,sans-Serif" font-size="10.00">+</text>
<text text-anchor="start" x="365" y="-201.5" font-family="Helvetica,sans-Serif" font-size="10.00">getTotalLengthMeters()</text>
<text text-anchor="start" x="352" y="-186.5" font-family="Helvetica,sans-Serif" font-size="10.00">+</text>
<text text-anchor="start" x="365" y="-186.5" font-family="Helvetica,sans-Serif" font-size="10.00">getActiveBranch()</text>
<text text-anchor="start" x="352" y="-171.5" font-family="Helvetica,sans-Serif" font-size="10.00">+</text>
<text text-anchor="start" x="365" y="-171.5" font-family="Helvetica,sans-Serif" font-size="10.00">activeBranchToString()</text>
<text text-anchor="start" x="352" y="-156.5" font-family="Helvetica,sans-Serif" font-size="10.00">+</text>
<text text-anchor="start" x="365" y="-156.5" font-family="Helvetica,sans-Serif" font-size="10.00">isDeviationActive()</text>
<text text-anchor="start" x="352" y="-141.5" font-family="Helvetica,sans-Serif" font-size="10.00">+</text>
<text text-anchor="start" x="365" y="-141.5" font-family="Helvetica,sans-Serif" font-size="10.00">toString()</text>
<text text-anchor="start" x="352" y="-126.5" font-family="Helvetica,sans-Serif" font-size="10.00">+</text>
<text text-anchor="start" x="365" y="-126.5" font-family="Helvetica,sans-Serif" font-size="10.00">addBranchId()</text>
<text text-anchor="start" x="352" y="-111.5" font-family="Helvetica,sans-Serif" font-size="10.00">+</text>
<text text-anchor="start" x="365" y="-111.5" font-family="Helvetica,sans-Serif" font-size="10.00">orient()</text>
<text text-anchor="start" x="352" y="-96.5" font-family="Helvetica,sans-Serif" font-size="10.00">+</text>
<text text-anchor="start" x="365" y="-96.5" font-family="Helvetica,sans-Serif" font-size="10.00">setTips()</text>
<text text-anchor="start" x="352" y="-81.5" font-family="Helvetica,sans-Serif" font-size="10.00">+</text>
<text text-anchor="start" x="365" y="-81.5" font-family="Helvetica,sans-Serif" font-size="10.00">swapNormalDeviation()</text>
<text text-anchor="start" x="352" y="-66.5" font-family="Helvetica,sans-Serif" font-size="10.00">+</text>
<text text-anchor="start" x="365" y="-66.5" font-family="Helvetica,sans-Serif" font-size="10.00">computeTotalLength()</text>
<text text-anchor="start" x="352" y="-51.5" font-family="Helvetica,sans-Serif" font-size="10.00">+</text>
<text text-anchor="start" x="365" y="-51.5" font-family="Helvetica,sans-Serif" font-size="10.00">absorbLink()</text>
<text text-anchor="start" x="352" y="-36.5" font-family="Helvetica,sans-Serif" font-size="10.00">+</text>
<text text-anchor="start" x="365" y="-36.5" font-family="Helvetica,sans-Serif" font-size="10.00">setActiveBranch()</text>
<text text-anchor="start" x="352" y="-21.5" font-family="Helvetica,sans-Serif" font-size="10.00">+</text>
<text text-anchor="start" x="365" y="-21.5" font-family="Helvetica,sans-Serif" font-size="10.00">toggleActiveBranch()</text>
<text text-anchor="start" x="354.5" y="-6.5" font-family="Helvetica,sans-Serif" font-size="10.00">&#45;</text>
<text text-anchor="start" x="365" y="-6.5" font-family="Helvetica,sans-Serif" font-size="10.00">haversineDistanceMeters()</text>
<polygon fill="#666666" stroke="#666666" points="348,-721.5 348,-721.5 520,-721.5 520,-721.5 348,-721.5"/>
<polygon fill="#666666" stroke="#666666" points="348,-571.5 348,-571.5 363,-571.5 363,-571.5 348,-571.5"/>
<polygon fill="#666666" stroke="#666666" points="363,-571.5 363,-571.5 520,-571.5 520,-571.5 363,-571.5"/>
<polygon fill="none" stroke="#666666" points="348,0 348,-739 520,-739 520,0 348,0"/>
</a>
</g>
</g>
<!-- Node2 -->
<g id="Node000002" class="node">
<title>Node2</title>
<g id="a_Node000002"><a xlink:href="../../d2/d00/classShuntingElement.html" target="_top" xlink:title="Interface abstraite pour tous les éléments de shuntage ferroviaire.">
<polygon fill="white" stroke="transparent" points="341.5,-1069 220.5,-1069 220.5,-915 341.5,-915 341.5,-1069"/>
<text text-anchor="start" x="239.5" y="-1057" font-family="Helvetica,sans-Serif" font-size="10.00">ShuntingElement</text>
<text text-anchor="start" x="225" y="-1042" font-family="Helvetica,sans-Serif" font-size="10.00">#</text>
<text text-anchor="start" x="238" y="-1042" font-family="Helvetica,sans-Serif" font-size="10.00">m_state</text>
<text text-anchor="start" x="225" y="-1027" font-family="Helvetica,sans-Serif" font-size="10.00">+</text>
<text text-anchor="start" x="238" y="-1027" font-family="Helvetica,sans-Serif" font-size="10.00">ShuntingElement()</text>
<text text-anchor="start" x="225" y="-1012" font-family="Helvetica,sans-Serif" font-size="10.00">+</text>
<text text-anchor="start" x="238" y="-1012" font-family="Helvetica,sans-Serif" font-size="10.00">~ShuntingElement()</text>
<text text-anchor="start" x="225" y="-997" font-family="Helvetica,sans-Serif" font-size="10.00">+</text>
<text text-anchor="start" x="238" y="-997" font-family="Helvetica,sans-Serif" font-size="10.00">ShuntingElement()</text>
<text text-anchor="start" x="225" y="-982" font-family="Helvetica,sans-Serif" font-size="10.00">+</text>
<text text-anchor="start" x="238" y="-982" font-family="Helvetica,sans-Serif" font-size="10.00">operator=()</text>
<text text-anchor="start" x="225" y="-967" font-family="Helvetica,sans-Serif" font-size="10.00">+</text>
<text text-anchor="start" x="238" y="-967" font-family="Helvetica,sans-Serif" font-size="10.00">getState()</text>
<text text-anchor="start" x="225" y="-952" font-family="Helvetica,sans-Serif" font-size="10.00">+</text>
<text text-anchor="start" x="238" y="-952" font-family="Helvetica,sans-Serif" font-size="10.00">isFree()</text>
<text text-anchor="start" x="225" y="-937" font-family="Helvetica,sans-Serif" font-size="10.00">+</text>
<text text-anchor="start" x="238" y="-937" font-family="Helvetica,sans-Serif" font-size="10.00">isOccupied()</text>
<text text-anchor="start" x="225" y="-922" font-family="Helvetica,sans-Serif" font-size="10.00">+</text>
<text text-anchor="start" x="238" y="-922" font-family="Helvetica,sans-Serif" font-size="10.00">isInactive()</text>
<polygon fill="#666666" stroke="#666666" points="221,-1052 221,-1052 342,-1052 342,-1052 221,-1052"/>
<polygon fill="#666666" stroke="#666666" points="221,-1037 221,-1037 236,-1037 236,-1037 221,-1037"/>
<polygon fill="#666666" stroke="#666666" points="236,-1037 236,-1037 342,-1037 342,-1037 236,-1037"/>
<polygon fill="none" stroke="#666666" points="220.5,-915 220.5,-1069 341.5,-1069 341.5,-915 220.5,-915"/>
</a>
</g>
</g>
<!-- Node2&#45;&gt;Node1 -->
<g id="edge1_Node000001_Node000002" class="edge">
<title>Node2&#45;&gt;Node1</title>
<g id="a_edge1_Node000001_Node000002"><a xlink:title=" ">
<path fill="none" stroke="#63b8ff" d="M249.1,-905.04C240.52,-871.3 235.46,-832.28 243,-797 263.51,-701 307.31,-600.47 347.79,-521.13"/>
<polygon fill="none" stroke="#63b8ff" points="245.77,-906.11 251.74,-914.87 252.53,-904.3 245.77,-906.11"/>
</a>
</g>
</g>
<!-- Node15 -->
<g id="Node000015" class="node">
<title>Node15</title>
<g id="a_Node000015"><a xlink:href="../../d2/d03/structSwitchBlock_1_1SwitchBranches.html" target="_top" xlink:title="Branches topologiques d&#39;un SwitchBlock.">
<polygon fill="white" stroke="transparent" points="405.5,-846 252.5,-846 252.5,-797 405.5,-797 405.5,-846"/>
<text text-anchor="start" x="258" y="-833.5" font-family="Helvetica,sans-Serif" font-size="10.00">SwitchBlock::SwitchBranches</text>
<text text-anchor="start" x="327.5" y="-818.5" font-family="Helvetica,sans-Serif" font-size="10.00"> </text>
<text text-anchor="start" x="327.5" y="-803.5" font-family="Helvetica,sans-Serif" font-size="10.00"> </text>
<polygon fill="#666666" stroke="#666666" points="253,-828.5 253,-828.5 406,-828.5 406,-828.5 253,-828.5"/>
<polygon fill="#666666" stroke="#666666" points="253,-813.5 253,-813.5 406,-813.5 406,-813.5 253,-813.5"/>
<polygon fill="none" stroke="#666666" points="252.5,-797 252.5,-846 405.5,-846 405.5,-797 252.5,-797"/>
</a>
</g>
</g>
<!-- Node2&#45;&gt;Node15 -->
<g id="edge17_Node000015_Node000002" class="edge">
<title>Node2&#45;&gt;Node15</title>
<g id="a_edge17_Node000015_Node000002"><a xlink:title=" ">
<path fill="none" stroke="#63b8ff" d="M302.75,-914.64C308.37,-894.93 314.15,-874.64 318.85,-858.14"/>
<polygon fill="none" stroke="#63b8ff" points="318.92,-857.87 316.72,-851 322.21,-846.33 324.42,-853.2 318.92,-857.87"/>
</a>
</g>
<text text-anchor="middle" x="346" y="-889" font-family="Helvetica,sans-Serif" font-size="10.00" fill="grey"> +deviation</text>
<text text-anchor="middle" x="346" y="-878" font-family="Helvetica,sans-Serif" font-size="10.00" fill="grey">+normal</text>
<text text-anchor="middle" x="346" y="-867" font-family="Helvetica,sans-Serif" font-size="10.00" fill="grey">+root</text>
</g>
<!-- Node3 -->
<g id="Node000003" class="node">
<title>Node3</title>
<g id="a_Node000003"><a xlink:href="../../d8/d02/classInteractiveElement.html" target="_top" xlink:title="Classe de base abstraite pour tous les éléments interactifs ferroviaires.">
<polygon fill="white" stroke="transparent" points="346,-1260 216,-1260 216,-1106 346,-1106 346,-1260"/>
<text text-anchor="start" x="234" y="-1248" font-family="Helvetica,sans-Serif" font-size="10.00">InteractiveElement</text>
<text text-anchor="start" x="279" y="-1233" font-family="Helvetica,sans-Serif" font-size="10.00"> </text>
<text text-anchor="start" x="220" y="-1218" font-family="Helvetica,sans-Serif" font-size="10.00">+</text>
<text text-anchor="start" x="233" y="-1218" font-family="Helvetica,sans-Serif" font-size="10.00">InteractiveElement()</text>
<text text-anchor="start" x="220" y="-1203" font-family="Helvetica,sans-Serif" font-size="10.00">+</text>
<text text-anchor="start" x="233" y="-1203" font-family="Helvetica,sans-Serif" font-size="10.00">~InteractiveElement()</text>
<text text-anchor="start" x="220" y="-1188" font-family="Helvetica,sans-Serif" font-size="10.00">+</text>
<text text-anchor="start" x="233" y="-1188" font-family="Helvetica,sans-Serif" font-size="10.00">InteractiveElement()</text>
<text text-anchor="start" x="220" y="-1173" font-family="Helvetica,sans-Serif" font-size="10.00">+</text>
<text text-anchor="start" x="233" y="-1173" font-family="Helvetica,sans-Serif" font-size="10.00">operator=()</text>
<text text-anchor="start" x="220" y="-1158" font-family="Helvetica,sans-Serif" font-size="10.00">+</text>
<text text-anchor="start" x="233" y="-1158" font-family="Helvetica,sans-Serif" font-size="10.00">InteractiveElement()</text>
<text text-anchor="start" x="220" y="-1143" font-family="Helvetica,sans-Serif" font-size="10.00">+</text>
<text text-anchor="start" x="233" y="-1143" font-family="Helvetica,sans-Serif" font-size="10.00">operator=()</text>
<text text-anchor="start" x="220" y="-1128" font-family="Helvetica,sans-Serif" font-size="10.00">+</text>
<text text-anchor="start" x="233" y="-1128" font-family="Helvetica,sans-Serif" font-size="10.00">getId()</text>
<text text-anchor="start" x="220" y="-1113" font-family="Helvetica,sans-Serif" font-size="10.00">+</text>
<text text-anchor="start" x="233" y="-1113" font-family="Helvetica,sans-Serif" font-size="10.00">getType()</text>
<polygon fill="#666666" stroke="#666666" points="216,-1243 216,-1243 346,-1243 346,-1243 216,-1243"/>
<polygon fill="#666666" stroke="#666666" points="216,-1228 216,-1228 346,-1228 346,-1228 216,-1228"/>
<polygon fill="none" stroke="#666666" points="216,-1106 216,-1260 346,-1260 346,-1106 216,-1106"/>
</a>
</g>
</g>
<!-- Node3&#45;&gt;Node2 -->
<g id="edge2_Node000002_Node000003" class="edge">
<title>Node3&#45;&gt;Node2</title>
<g id="a_edge2_Node000002_Node000003"><a xlink:title=" ">
<path fill="none" stroke="#63b8ff" d="M281,-1095.94C281,-1087.02 281,-1078.01 281,-1069.21"/>
<polygon fill="none" stroke="#63b8ff" points="277.5,-1095.94 281,-1105.94 284.5,-1095.94 277.5,-1095.94"/>
</a>
</g>
</g>
<!-- Node4 -->
<g id="Node000004" class="node">
<title>Node4</title>
<g id="a_Node000004"><a xlink:title=" ">
<polygon fill="white" stroke="transparent" points="381.5,-1685 322.5,-1685 322.5,-1636 381.5,-1636 381.5,-1685"/>
<text text-anchor="start" x="328" y="-1672.5" font-family="Helvetica,sans-Serif" font-size="10.00">std::string</text>
<text text-anchor="start" x="350.5" y="-1657.5" font-family="Helvetica,sans-Serif" font-size="10.00"> </text>
<text text-anchor="start" x="350.5" y="-1642.5" font-family="Helvetica,sans-Serif" font-size="10.00"> </text>
<polygon fill="#666666" stroke="#666666" points="323,-1667.5 323,-1667.5 382,-1667.5 382,-1667.5 323,-1667.5"/>
<polygon fill="#666666" stroke="#666666" points="323,-1652.5 323,-1652.5 382,-1652.5 382,-1652.5 323,-1652.5"/>
<polygon fill="none" stroke="#666666" points="322.5,-1636 322.5,-1685 381.5,-1685 381.5,-1636 322.5,-1636"/>
</a>
</g>
</g>
<!-- Node4&#45;&gt;Node3 -->
<g id="edge3_Node000003_Node000004" class="edge">
<title>Node4&#45;&gt;Node3</title>
<g id="a_edge3_Node000003_Node000004"><a xlink:title=" ">
<path fill="none" stroke="#63b8ff" d="M351.91,-1635.94C351.22,-1575.6 346.46,-1410.93 316,-1278 315.54,-1275.99 315.05,-1273.96 314.52,-1271.92"/>
<polygon fill="none" stroke="#63b8ff" points="314.47,-1271.75 309.01,-1267.04 311.25,-1260.19 316.72,-1264.89 314.47,-1271.75"/>
</a>
</g>
<text text-anchor="middle" x="369" y="-1464.5" font-family="Helvetica,sans-Serif" font-size="10.00" fill="grey"> #m_id</text>
</g>
<!-- Node6 -->
<g id="Node000006" class="node">
<title>Node6</title>
<g id="a_Node000006"><a xlink:href="../../db/d03/classLogger.html" target="_top" xlink:title="Journaliseur associé à un moteur nommé.">
<polygon fill="white" stroke="transparent" points="270,-1589 134,-1589 134,-1345 270,-1345 270,-1589"/>
<text text-anchor="start" x="185" y="-1577" font-family="Helvetica,sans-Serif" font-size="10.00">Logger</text>
<text text-anchor="start" x="140.5" y="-1562" font-family="Helvetica,sans-Serif" font-size="10.00">&#45;</text>
<text text-anchor="start" x="151" y="-1562" font-family="Helvetica,sans-Serif" font-size="10.00">m_minimumLevel</text>
<text text-anchor="start" x="138" y="-1547" font-family="Helvetica,sans-Serif" font-size="10.00">+</text>
<text text-anchor="start" x="151" y="-1547" font-family="Helvetica,sans-Serif" font-size="10.00">Logger()</text>
<text text-anchor="start" x="138" y="-1532" font-family="Helvetica,sans-Serif" font-size="10.00">+</text>
<text text-anchor="start" x="151" y="-1532" font-family="Helvetica,sans-Serif" font-size="10.00">~Logger()</text>
<text text-anchor="start" x="138" y="-1517" font-family="Helvetica,sans-Serif" font-size="10.00">+</text>
<text text-anchor="start" x="151" y="-1517" font-family="Helvetica,sans-Serif" font-size="10.00">Logger()</text>
<text text-anchor="start" x="138" y="-1502" font-family="Helvetica,sans-Serif" font-size="10.00">+</text>
<text text-anchor="start" x="151" y="-1502" font-family="Helvetica,sans-Serif" font-size="10.00">operator=()</text>
<text text-anchor="start" x="138" y="-1487" font-family="Helvetica,sans-Serif" font-size="10.00">+</text>
<text text-anchor="start" x="151" y="-1487" font-family="Helvetica,sans-Serif" font-size="10.00">writeLog()</text>
<text text-anchor="start" x="138" y="-1472" font-family="Helvetica,sans-Serif" font-size="10.00">+</text>
<text text-anchor="start" x="151" y="-1472" font-family="Helvetica,sans-Serif" font-size="10.00">setMinimumLogLevel()</text>
<text text-anchor="start" x="138" y="-1457" font-family="Helvetica,sans-Serif" font-size="10.00">+</text>
<text text-anchor="start" x="151" y="-1457" font-family="Helvetica,sans-Serif" font-size="10.00">getMotorName()</text>
<text text-anchor="start" x="138" y="-1442" font-family="Helvetica,sans-Serif" font-size="10.00">+</text>
<text text-anchor="start" x="151" y="-1442" font-family="Helvetica,sans-Serif" font-size="10.00">triggerFatalCrash()</text>
<text text-anchor="start" x="140.5" y="-1427" font-family="Helvetica,sans-Serif" font-size="10.00">&#45;</text>
<text text-anchor="start" x="151" y="-1427" font-family="Helvetica,sans-Serif" font-size="10.00">extractClassName()</text>
<text text-anchor="start" x="140.5" y="-1412" font-family="Helvetica,sans-Serif" font-size="10.00">&#45;</text>
<text text-anchor="start" x="151" y="-1412" font-family="Helvetica,sans-Serif" font-size="10.00">extractFunctionName()</text>
<text text-anchor="start" x="140.5" y="-1397" font-family="Helvetica,sans-Serif" font-size="10.00">&#45;</text>
<text text-anchor="start" x="151" y="-1397" font-family="Helvetica,sans-Serif" font-size="10.00">formatLogLine()</text>
<text text-anchor="start" x="140.5" y="-1382" font-family="Helvetica,sans-Serif" font-size="10.00">&#45;</text>
<text text-anchor="start" x="151" y="-1382" font-family="Helvetica,sans-Serif" font-size="10.00">levelToString()</text>
<text text-anchor="start" x="140.5" y="-1367" font-family="Helvetica,sans-Serif" font-size="10.00">&#45;</text>
<text text-anchor="start" x="151" y="-1367" font-family="Helvetica,sans-Serif" font-size="10.00">getCurrentTimestamp()</text>
<text text-anchor="start" x="140.5" y="-1352" font-family="Helvetica,sans-Serif" font-size="10.00">&#45;</text>
<text text-anchor="start" x="151" y="-1352" font-family="Helvetica,sans-Serif" font-size="10.00">sendToDebugOutput()</text>
<polygon fill="#666666" stroke="#666666" points="134,-1572 134,-1572 270,-1572 270,-1572 134,-1572"/>
<polygon fill="#666666" stroke="#666666" points="134,-1557 134,-1557 149,-1557 149,-1557 134,-1557"/>
<polygon fill="#666666" stroke="#666666" points="149,-1557 149,-1557 270,-1557 270,-1557 149,-1557"/>
<polygon fill="none" stroke="#666666" points="134,-1345 134,-1589 270,-1589 270,-1345 134,-1345"/>
</a>
</g>
</g>
<!-- Node4&#45;&gt;Node6 -->
<g id="edge6_Node000006_Node000004" class="edge">
<title>Node4&#45;&gt;Node6</title>
<g id="a_edge6_Node000006_Node000004"><a xlink:title=" ">
<path fill="none" stroke="#63b8ff" d="M322.24,-1653.09C301.45,-1647.19 274.39,-1636.48 257,-1618 251.7,-1612.37 246.9,-1606.18 242.55,-1599.63"/>
<polygon fill="none" stroke="#63b8ff" points="242.35,-1599.3 235.81,-1596.27 236.1,-1589.06 242.64,-1592.09 242.35,-1599.3"/>
</a>
</g>
<text text-anchor="middle" x="297.5" y="-1610" font-family="Helvetica,sans-Serif" font-size="10.00" fill="grey"> &#45;m_motorName</text>
</g>
<!-- Node14 -->
<g id="Node000014" class="node">
<title>Node14</title>
<g id="a_Node000014"><a xlink:title=" ">
<polygon fill="white" stroke="transparent" points="501,-1327 367,-1327 367,-1278 501,-1278 501,-1327"/>
<text text-anchor="start" x="372" y="-1314.5" font-family="Helvetica,sans-Serif" font-size="10.00">std::vector&lt; std::string &gt;</text>
<text text-anchor="start" x="432" y="-1299.5" font-family="Helvetica,sans-Serif" font-size="10.00"> </text>
<text text-anchor="start" x="432" y="-1284.5" font-family="Helvetica,sans-Serif" font-size="10.00"> </text>
<polygon fill="#666666" stroke="#666666" points="367,-1309.5 367,-1309.5 501,-1309.5 501,-1309.5 367,-1309.5"/>
<polygon fill="#666666" stroke="#666666" points="367,-1294.5 367,-1294.5 501,-1294.5 501,-1294.5 367,-1294.5"/>
<polygon fill="none" stroke="#666666" points="367,-1278 367,-1327 501,-1327 501,-1278 367,-1278"/>
</a>
</g>
</g>
<!-- Node4&#45;&gt;Node14 -->
<g id="edge15_Node000014_Node000004" class="edge">
<title>Node4&#45;&gt;Node14</title>
<g id="a_edge15_Node000014_Node000004"><a xlink:title=" ">
<path fill="none" stroke="#63b8ff" d="M368.41,-1635.76C376.77,-1622.56 386.33,-1605.5 392,-1589 421.7,-1502.59 430.4,-1394.4 432.95,-1339.32"/>
<polygon fill="none" stroke="#63b8ff" points="432.95,-1339.12 429.2,-1332.96 433.45,-1327.13 437.2,-1333.29 432.95,-1339.12"/>
</a>
</g>
<text text-anchor="middle" x="414" y="-1610" font-family="Helvetica,sans-Serif" font-size="10.00" fill="grey"> +elements</text>
</g>
<!-- Node5 -->
<g id="Node000005" class="node">
<title>Node5</title>
<g id="a_Node000005"><a xlink:title=" ">
<polygon fill="white" stroke="transparent" points="401,-1782 303,-1782 303,-1722 401,-1722 401,-1782"/>
<text text-anchor="start" x="308" y="-1770" font-family="Helvetica,sans-Serif" font-size="10.00">std::basic_string&lt;</text>
<text text-anchor="start" x="333.5" y="-1759" font-family="Helvetica,sans-Serif" font-size="10.00"> Char &gt;</text>
<text text-anchor="start" x="350" y="-1744" font-family="Helvetica,sans-Serif" font-size="10.00"> </text>
<text text-anchor="start" x="350" y="-1729" font-family="Helvetica,sans-Serif" font-size="10.00"> </text>
<polygon fill="#666666" stroke="#666666" points="303,-1754 303,-1754 401,-1754 401,-1754 303,-1754"/>
<polygon fill="#666666" stroke="#666666" points="303,-1739 303,-1739 401,-1739 401,-1739 303,-1739"/>
<polygon fill="none" stroke="#666666" points="303,-1722 303,-1782 401,-1782 401,-1722 303,-1722"/>
</a>
</g>
</g>
<!-- Node5&#45;&gt;Node4 -->
<g id="edge4_Node000004_Node000005" class="edge">
<title>Node5&#45;&gt;Node4</title>
<g id="a_edge4_Node000004_Node000005"><a xlink:title=" ">
<path fill="none" stroke="#63b8ff" d="M352,-1711.41C352,-1702.47 352,-1693.25 352,-1685.21"/>
<polygon fill="none" stroke="#63b8ff" points="348.5,-1711.69 352,-1721.69 355.5,-1711.69 348.5,-1711.69"/>
</a>
</g>
</g>
<!-- Node6&#45;&gt;Node3 -->
<g id="edge5_Node000003_Node000006" class="edge">
<title>Node6&#45;&gt;Node3</title>
<g id="a_edge5_Node000003_Node000006"><a xlink:title=" ">
<path fill="none" stroke="#63b8ff" d="M235.96,-1344.77C242.8,-1320.36 249.86,-1295.15 256.31,-1272.13"/>
<polygon fill="none" stroke="#63b8ff" points="256.38,-1271.87 254.15,-1265.01 259.62,-1260.31 261.85,-1267.17 256.38,-1271.87"/>
</a>
</g>
<text text-anchor="middle" x="283" y="-1300" font-family="Helvetica,sans-Serif" font-size="10.00" fill="grey"> #m_logger</text>
</g>
<!-- Node7 -->
<g id="Node000007" class="node">
<title>Node7</title>
<g id="a_Node000007"><a xlink:title=" ">
<polygon fill="white" stroke="transparent" points="99,-1685 23,-1685 23,-1636 99,-1636 99,-1685"/>
<text text-anchor="start" x="28" y="-1672.5" font-family="Helvetica,sans-Serif" font-size="10.00">std::ofstream</text>
<text text-anchor="start" x="59" y="-1657.5" font-family="Helvetica,sans-Serif" font-size="10.00"> </text>
<text text-anchor="start" x="59" y="-1642.5" font-family="Helvetica,sans-Serif" font-size="10.00"> </text>
<polygon fill="#666666" stroke="#666666" points="23,-1667.5 23,-1667.5 99,-1667.5 99,-1667.5 23,-1667.5"/>
<polygon fill="#666666" stroke="#666666" points="23,-1652.5 23,-1652.5 99,-1652.5 99,-1652.5 23,-1652.5"/>
<polygon fill="none" stroke="#666666" points="23,-1636 23,-1685 99,-1685 99,-1636 23,-1636"/>
</a>
</g>
</g>
<!-- Node7&#45;&gt;Node6 -->
<g id="edge7_Node000006_Node000007" class="edge">
<title>Node7&#45;&gt;Node6</title>
<g id="a_edge7_Node000006_Node000007"><a xlink:title=" ">
<path fill="none" stroke="#63b8ff" d="M67.45,-1635.92C70.54,-1626.57 74.72,-1615.93 80,-1607 92.78,-1585.38 109.13,-1564 125.69,-1544.73"/>
<polygon fill="none" stroke="#63b8ff" points="125.91,-1544.48 126.85,-1537.33 133.82,-1535.45 132.87,-1542.6 125.91,-1544.48"/>
</a>
</g>
<text text-anchor="middle" x="115.5" y="-1610" font-family="Helvetica,sans-Serif" font-size="10.00" fill="grey"> &#45;m_outputFile</text>
</g>
<!-- Node8 -->
<g id="Node000008" class="node">
<title>Node8</title>
<g id="a_Node000008"><a xlink:title=" ">
<polygon fill="white" stroke="transparent" points="114.5,-1782 7.5,-1782 7.5,-1722 114.5,-1722 114.5,-1782"/>
<text text-anchor="start" x="13" y="-1770" font-family="Helvetica,sans-Serif" font-size="10.00">std::basic_ofstream</text>
<text text-anchor="start" x="38.5" y="-1759" font-family="Helvetica,sans-Serif" font-size="10.00">&lt; Char &gt;</text>
<text text-anchor="start" x="59.5" y="-1744" font-family="Helvetica,sans-Serif" font-size="10.00"> </text>
<text text-anchor="start" x="59.5" y="-1729" font-family="Helvetica,sans-Serif" font-size="10.00"> </text>
<polygon fill="#666666" stroke="#666666" points="8,-1754 8,-1754 115,-1754 115,-1754 8,-1754"/>
<polygon fill="#666666" stroke="#666666" points="8,-1739 8,-1739 115,-1739 115,-1739 8,-1739"/>
<polygon fill="none" stroke="#666666" points="7.5,-1722 7.5,-1782 114.5,-1782 114.5,-1722 7.5,-1722"/>
</a>
</g>
</g>
<!-- Node8&#45;&gt;Node7 -->
<g id="edge8_Node000007_Node000008" class="edge">
<title>Node8&#45;&gt;Node7</title>
<g id="a_edge8_Node000007_Node000008"><a xlink:title=" ">
<path fill="none" stroke="#63b8ff" d="M61,-1711.41C61,-1702.47 61,-1693.25 61,-1685.21"/>
<polygon fill="none" stroke="#63b8ff" points="57.5,-1711.69 61,-1721.69 64.5,-1711.69 57.5,-1711.69"/>
</a>
</g>
</g>
<!-- Node9 -->
<g id="Node000009" class="node">
<title>Node9</title>
<g id="a_Node000009"><a xlink:title=" ">
<polygon fill="white" stroke="transparent" points="112.5,-1879 9.5,-1879 9.5,-1819 112.5,-1819 112.5,-1879"/>
<text text-anchor="start" x="15" y="-1867" font-family="Helvetica,sans-Serif" font-size="10.00">std::basic_ostream</text>
<text text-anchor="start" x="38.5" y="-1856" font-family="Helvetica,sans-Serif" font-size="10.00">&lt; Char &gt;</text>
<text text-anchor="start" x="59.5" y="-1841" font-family="Helvetica,sans-Serif" font-size="10.00"> </text>
<text text-anchor="start" x="59.5" y="-1826" font-family="Helvetica,sans-Serif" font-size="10.00"> </text>
<polygon fill="#666666" stroke="#666666" points="10,-1851 10,-1851 113,-1851 113,-1851 10,-1851"/>
<polygon fill="#666666" stroke="#666666" points="10,-1836 10,-1836 113,-1836 113,-1836 10,-1836"/>
<polygon fill="none" stroke="#666666" points="9.5,-1819 9.5,-1879 112.5,-1879 112.5,-1819 9.5,-1819"/>
</a>
</g>
</g>
<!-- Node9&#45;&gt;Node8 -->
<g id="edge9_Node000008_Node000009" class="edge">
<title>Node9&#45;&gt;Node8</title>
<g id="a_edge9_Node000008_Node000009"><a xlink:title=" ">
<path fill="none" stroke="#63b8ff" d="M61,-1808.79C61,-1799.88 61,-1790.57 61,-1782.17"/>
<polygon fill="none" stroke="#63b8ff" points="57.5,-1808.98 61,-1818.98 64.5,-1808.98 57.5,-1808.98"/>
</a>
</g>
</g>
<!-- Node10 -->
<g id="Node000010" class="node">
<title>Node10</title>
<g id="a_Node000010"><a xlink:title=" ">
<polygon fill="white" stroke="transparent" points="122,-1965 0,-1965 0,-1916 122,-1916 122,-1965"/>
<text text-anchor="start" x="5" y="-1952.5" font-family="Helvetica,sans-Serif" font-size="10.00">std::basic_ios&lt; Char &gt;</text>
<text text-anchor="start" x="59" y="-1937.5" font-family="Helvetica,sans-Serif" font-size="10.00"> </text>
<text text-anchor="start" x="59" y="-1922.5" font-family="Helvetica,sans-Serif" font-size="10.00"> </text>
<polygon fill="#666666" stroke="#666666" points="0,-1947.5 0,-1947.5 122,-1947.5 122,-1947.5 0,-1947.5"/>
<polygon fill="#666666" stroke="#666666" points="0,-1932.5 0,-1932.5 122,-1932.5 122,-1932.5 0,-1932.5"/>
<polygon fill="none" stroke="#666666" points="0,-1916 0,-1965 122,-1965 122,-1916 0,-1916"/>
</a>
</g>
</g>
<!-- Node10&#45;&gt;Node9 -->
<g id="edge10_Node000009_Node000010" class="edge">
<title>Node10&#45;&gt;Node9</title>
<g id="a_edge10_Node000009_Node000010"><a xlink:title=" ">
<path fill="none" stroke="#63b8ff" d="M61,-1905.7C61,-1896.95 61,-1887.6 61,-1879.12"/>
<polygon fill="none" stroke="#63b8ff" points="57.5,-1905.98 61,-1915.98 64.5,-1905.98 57.5,-1905.98"/>
</a>
</g>
</g>
<!-- Node11 -->
<g id="Node000011" class="node">
<title>Node11</title>
<g id="a_Node000011"><a xlink:title=" ">
<polygon fill="white" stroke="transparent" points="98,-2051 24,-2051 24,-2002 98,-2002 98,-2051"/>
<text text-anchor="start" x="29" y="-2038.5" font-family="Helvetica,sans-Serif" font-size="10.00">std::ios_base</text>
<text text-anchor="start" x="59" y="-2023.5" font-family="Helvetica,sans-Serif" font-size="10.00"> </text>
<text text-anchor="start" x="59" y="-2008.5" font-family="Helvetica,sans-Serif" font-size="10.00"> </text>
<polygon fill="#666666" stroke="#666666" points="24,-2033.5 24,-2033.5 98,-2033.5 98,-2033.5 24,-2033.5"/>
<polygon fill="#666666" stroke="#666666" points="24,-2018.5 24,-2018.5 98,-2018.5 98,-2018.5 24,-2018.5"/>
<polygon fill="none" stroke="#666666" points="24,-2002 24,-2051 98,-2051 98,-2002 24,-2002"/>
</a>
</g>
</g>
<!-- Node11&#45;&gt;Node10 -->
<g id="edge11_Node000010_Node000011" class="edge">
<title>Node11&#45;&gt;Node10</title>
<g id="a_edge11_Node000010_Node000011"><a xlink:title=" ">
<path fill="none" stroke="#63b8ff" d="M61,-1991.57C61,-1982.69 61,-1973.32 61,-1965.12"/>
<polygon fill="none" stroke="#63b8ff" points="57.5,-1991.65 61,-2001.65 64.5,-1991.65 57.5,-1991.65"/>
</a>
</g>
</g>
<!-- Node12 -->
<g id="Node000012" class="node">
<title>Node12</title>
<g id="a_Node000012"><a xlink:title=" ">
<polygon fill="white" stroke="transparent" points="186.5,-1685 123.5,-1685 123.5,-1636 186.5,-1636 186.5,-1685"/>
<text text-anchor="start" x="129" y="-1672.5" font-family="Helvetica,sans-Serif" font-size="10.00">std::mutex</text>
<text text-anchor="start" x="153.5" y="-1657.5" font-family="Helvetica,sans-Serif" font-size="10.00"> </text>
<text text-anchor="start" x="153.5" y="-1642.5" font-family="Helvetica,sans-Serif" font-size="10.00"> </text>
<polygon fill="#666666" stroke="#666666" points="124,-1667.5 124,-1667.5 187,-1667.5 187,-1667.5 124,-1667.5"/>
<polygon fill="#666666" stroke="#666666" points="124,-1652.5 124,-1652.5 187,-1652.5 187,-1652.5 124,-1652.5"/>
<polygon fill="none" stroke="#666666" points="123.5,-1636 123.5,-1685 186.5,-1685 186.5,-1636 123.5,-1636"/>
</a>
</g>
</g>
<!-- Node12&#45;&gt;Node6 -->
<g id="edge12_Node000006_Node000012" class="edge">
<title>Node12&#45;&gt;Node6</title>
<g id="a_edge12_Node000006_Node000012"><a xlink:title=" ">
<path fill="none" stroke="#63b8ff" d="M153.95,-1635.84C153.94,-1626.76 154.4,-1616.35 156,-1607 156.35,-1604.98 156.72,-1602.94 157.11,-1600.9"/>
<polygon fill="none" stroke="#63b8ff" points="157.11,-1600.87 154.43,-1594.18 159.58,-1589.13 162.26,-1595.83 157.11,-1600.87"/>
</a>
</g>
<text text-anchor="middle" x="195" y="-1610" font-family="Helvetica,sans-Serif" font-size="10.00" fill="grey"> &#45;m_writeMutex</text>
</g>
<!-- Node13 -->
<g id="Node000013" class="node">
<title>Node13</title>
<g id="a_Node000013"><a xlink:href="../../d4/d01/classLatLon.html" target="_top" xlink:title="Coordonnée géographique WGS&#45;84 exprimée en degrés décimaux.">
<polygon fill="white" stroke="transparent" points="662.5,-1046.5 575.5,-1046.5 575.5,-937.5 662.5,-937.5 662.5,-1046.5"/>
<text text-anchor="start" x="603" y="-1034" font-family="Helvetica,sans-Serif" font-size="10.00">LatLon</text>
<text text-anchor="start" x="580" y="-1019" font-family="Helvetica,sans-Serif" font-size="10.00">+</text>
<text text-anchor="start" x="593" y="-1019" font-family="Helvetica,sans-Serif" font-size="10.00">latitude</text>
<text text-anchor="start" x="580" y="-1004" font-family="Helvetica,sans-Serif" font-size="10.00">+</text>
<text text-anchor="start" x="593" y="-1004" font-family="Helvetica,sans-Serif" font-size="10.00">longitude</text>
<text text-anchor="start" x="580" y="-989" font-family="Helvetica,sans-Serif" font-size="10.00">+</text>
<text text-anchor="start" x="593" y="-989" font-family="Helvetica,sans-Serif" font-size="10.00">LatLon()</text>
<text text-anchor="start" x="580" y="-974" font-family="Helvetica,sans-Serif" font-size="10.00">+</text>
<text text-anchor="start" x="593" y="-974" font-family="Helvetica,sans-Serif" font-size="10.00">LatLon()</text>
<text text-anchor="start" x="580" y="-959" font-family="Helvetica,sans-Serif" font-size="10.00">+</text>
<text text-anchor="start" x="593" y="-959" font-family="Helvetica,sans-Serif" font-size="10.00">operator==()</text>
<text text-anchor="start" x="580" y="-944" font-family="Helvetica,sans-Serif" font-size="10.00">+</text>
<text text-anchor="start" x="593" y="-944" font-family="Helvetica,sans-Serif" font-size="10.00">operator!=()</text>
<polygon fill="#666666" stroke="#666666" points="576,-1029 576,-1029 663,-1029 663,-1029 576,-1029"/>
<polygon fill="#666666" stroke="#666666" points="576,-999 576,-999 591,-999 591,-999 576,-999"/>
<polygon fill="#666666" stroke="#666666" points="591,-999 591,-999 663,-999 663,-999 591,-999"/>
<polygon fill="none" stroke="#666666" points="575.5,-937.5 575.5,-1046.5 662.5,-1046.5 662.5,-937.5 575.5,-937.5"/>
</a>
</g>
</g>
<!-- Node13&#45;&gt;Node1 -->
<g id="edge13_Node000001_Node000013" class="edge">
<title>Node13&#45;&gt;Node1</title>
<g id="a_edge13_Node000001_Node000013"><a xlink:title=" ">
<path fill="none" stroke="#63b8ff" d="M575.4,-955.54C545.75,-928.76 508.5,-889.32 489,-846 475.46,-815.92 464.79,-783.74 456.44,-750.82"/>
<polygon fill="none" stroke="#63b8ff" points="456.44,-750.81 451.12,-745.93 453.58,-739.15 458.89,-744.03 456.44,-750.81"/>
</a>
</g>
<text text-anchor="middle" x="546.5" y="-819" font-family="Helvetica,sans-Serif" font-size="10.00" fill="grey"> &#45;m_junctionCoordinate</text>
</g>
<!-- Node16 -->
<g id="Node000016" class="node">
<title>Node16</title>
<g id="a_Node000016"><a xlink:title=" ">
<polygon fill="white" stroke="transparent" points="730.5,-846 613.5,-846 613.5,-797 730.5,-797 730.5,-846"/>
<text text-anchor="start" x="619" y="-833.5" font-family="Helvetica,sans-Serif" font-size="10.00">std::vector&lt; LatLon &gt;</text>
<text text-anchor="start" x="670.5" y="-818.5" font-family="Helvetica,sans-Serif" font-size="10.00"> </text>
<text text-anchor="start" x="670.5" y="-803.5" font-family="Helvetica,sans-Serif" font-size="10.00"> </text>
<polygon fill="#666666" stroke="#666666" points="614,-828.5 614,-828.5 731,-828.5 731,-828.5 614,-828.5"/>
<polygon fill="#666666" stroke="#666666" points="614,-813.5 614,-813.5 731,-813.5 731,-813.5 614,-813.5"/>
<polygon fill="none" stroke="#666666" points="613.5,-797 613.5,-846 730.5,-846 730.5,-797 613.5,-797"/>
</a>
</g>
</g>
<!-- Node13&#45;&gt;Node16 -->
<g id="edge19_Node000016_Node000013" class="edge">
<title>Node13&#45;&gt;Node16</title>
<g id="a_edge19_Node000016_Node000013"><a xlink:title=" ">
<path fill="none" stroke="#63b8ff" d="M635.92,-937.22C644.08,-911.26 653.65,-880.84 660.88,-857.85"/>
<polygon fill="none" stroke="#63b8ff" points="660.93,-857.69 658.92,-850.76 664.53,-846.24 666.55,-853.16 660.93,-857.69"/>
</a>
</g>
<text text-anchor="middle" x="686" y="-878" font-family="Helvetica,sans-Serif" font-size="10.00" fill="grey"> +elements</text>
</g>
<!-- Node14&#45;&gt;Node1 -->
<g id="edge14_Node000001_Node000014" class="edge">
<title>Node14&#45;&gt;Node1</title>
<g id="a_edge14_Node000001_Node000014"><a xlink:title=" ">
<path fill="none" stroke="#63b8ff" d="M434,-1277.8C434,-1238.41 434,-1156.94 434,-1088 434,-1088 434,-1088 434,-820.5 434,-797.96 434,-774.79 434,-751.42"/>
<polygon fill="none" stroke="#63b8ff" points="434,-751.17 430,-745.17 434,-739.17 438,-745.17 434,-751.17"/>
</a>
</g>
<text text-anchor="middle" x="469" y="-989.5" font-family="Helvetica,sans-Serif" font-size="10.00" fill="grey"> &#45;m_branchIds</text>
</g>
<!-- Node15&#45;&gt;Node1 -->
<g id="edge16_Node000001_Node000015" class="edge">
<title>Node15&#45;&gt;Node1</title>
<g id="a_edge16_Node000001_Node000015"><a xlink:title=" ">
<path fill="none" stroke="#63b8ff" d="M334.5,-796.94C337.24,-785.18 340.89,-769.54 345.17,-751.18"/>
<polygon fill="none" stroke="#63b8ff" points="345.19,-751.1 342.66,-744.34 347.92,-739.41 350.45,-746.16 345.19,-751.1"/>
</a>
</g>
<text text-anchor="middle" x="376.5" y="-765.5" font-family="Helvetica,sans-Serif" font-size="10.00" fill="grey"> &#45;m_branches</text>
</g>
<!-- Node16&#45;&gt;Node1 -->
<g id="edge18_Node000001_Node000016" class="edge">
<title>Node16&#45;&gt;Node1</title>
<g id="a_edge18_Node000001_Node000016"><a xlink:title=" ">
<path fill="none" stroke="#63b8ff" d="M659.54,-796.94C634.63,-749.83 576.68,-640.28 525.77,-544.01"/>
<polygon fill="none" stroke="#63b8ff" points="525.69,-543.86 519.34,-540.42 520.08,-533.25 526.42,-536.68 525.69,-543.86"/>
</a>
</g>
<text text-anchor="middle" x="721" y="-771" font-family="Helvetica,sans-Serif" font-size="10.00" fill="grey"> &#45;m_absorbedDeviationCoords</text>
<text text-anchor="middle" x="721" y="-760" font-family="Helvetica,sans-Serif" font-size="10.00" fill="grey">&#45;m_absorbedNormalCoords</text>
</g>
</g>
</svg>
