<?xml version="1.0" encoding="UTF-8" standalone="no"?>
<!DOCTYPE svg PUBLIC "-//W3C//DTD SVG 1.1//EN"
 "http://www.w3.org/Graphics/SVG/1.1/DTD/svg11.dtd">
<!-- Generated by graphviz version 2.43.0 (0)
 -->
<!-- Title: IntersectionData Pages: 1 -->
<svg width="380pt" height="590pt"
 viewBox="0.00 0.00 380.00 590.00" xmlns="http://www.w3.org/2000/svg" xmlns:xlink="http://www.w3.org/1999/xlink">
<g id="graph0" class="graph" transform="scale(1 1) rotate(0) translate(4 586)">
<title>IntersectionData</title>
<!-- Node1 -->
<g id="Node000001" class="node">
<title>Node1</title>
<g id="a_Node000001"><a xlink:title="Résultat de Phase2_GeometricIntersector.">
<polygon fill="#999999" stroke="transparent" points="223,-64 116,-64 116,0 223,0 223,-64"/>
<text text-anchor="start" x="129" y="-52" font-family="Helvetica,sans-Serif" font-size="10.00">IntersectionData</text>
<text text-anchor="start" x="120.5" y="-37" font-family="Helvetica,sans-Serif" font-size="10.00">+</text>
<text text-anchor="start" x="133.5" y="-37" font-family="Helvetica,sans-Serif" font-size="10.00">cellSize</text>
<text text-anchor="start" x="120.5" y="-22" font-family="Helvetica,sans-Serif" font-size="10.00">+</text>
<text text-anchor="start" x="133.5" y="-22" font-family="Helvetica,sans-Serif" font-size="10.00">totalIntersections</text>
<text text-anchor="start" x="120.5" y="-7" font-family="Helvetica,sans-Serif" font-size="10.00">+</text>
<text text-anchor="start" x="133.5" y="-7" font-family="Helvetica,sans-Serif" font-size="10.00">clear()</text>
<polygon fill="#666666" stroke="#666666" points="116.5,-47 116.5,-47 223.5,-47 223.5,-47 116.5,-47"/>
<polygon fill="#666666" stroke="#666666" points="116.5,-17 116.5,-17 131.5,-17 131.5,-17 116.5,-17"/>
<polygon fill="#666666" stroke="#666666" points="131.5,-17 131.5,-17 223.5,-17 223.5,-17 131.5,-17"/>
<polygon fill="none" stroke="#666666" points="116,0 116,-64 223,-64 223,0 116,0"/>
</a>
</g>
</g>
<!-- Node2 -->
<g id="Node000002" class="node">
<title>Node2</title>
<g id="a_Node000002"><a xlink:title=" ">
<polygon fill="white" stroke="transparent" points="179,-182 52,-182 52,-111 179,-111 179,-182"/>
<text text-anchor="start" x="57.5" y="-169.5" font-family="Helvetica,sans-Serif" font-size="10.00">std::unordered_map</text>
<text text-anchor="start" x="57.5" y="-158.5" font-family="Helvetica,sans-Serif" font-size="10.00">&lt; size_t, std::vector</text>
<text text-anchor="start" x="57.5" y="-147.5" font-family="Helvetica,sans-Serif" font-size="10.00">&lt; IntersectionPoint &gt; &gt;</text>
<text text-anchor="start" x="77" y="-132.5" font-family="Helvetica,sans-Serif" font-size="10.00">+</text>
<text text-anchor="start" x="110.5" y="-132.5" font-family="Helvetica,sans-Serif" font-size="10.00">keys</text>
<text text-anchor="start" x="114" y="-117.5" font-family="Helvetica,sans-Serif" font-size="10.00"> </text>
<polygon fill="#666666" stroke="#666666" points="52.5,-142.5 52.5,-142.5 179.5,-142.5 179.5,-142.5 52.5,-142.5"/>
<polygon fill="#666666" stroke="#666666" points="52.5,-127.5 52.5,-127.5 108.5,-127.5 108.5,-127.5 52.5,-127.5"/>
<polygon fill="#666666" stroke="#666666" points="108.5,-127.5 108.5,-127.5 179.5,-127.5 179.5,-127.5 108.5,-127.5"/>
<polygon fill="none" stroke="#666666" points="52,-111 52,-182 179,-182 179,-111 52,-111"/>
</a>
</g>
</g>
<!-- Node2&#45;&gt;Node1 -->
<g id="edge1_Node000001_Node000002" class="edge">
<title>Node2&#45;&gt;Node1</title>
<g id="a_edge1_Node000001_Node000002"><a xlink:title=" ">
<path fill="none" stroke="#63b8ff" d="M123.65,-110.77C126.49,-101.2 130.1,-90.99 134.5,-82 135.74,-79.47 137.11,-76.92 138.57,-74.39"/>
<polygon fill="none" stroke="#63b8ff" points="138.58,-74.38 138.36,-67.17 144.94,-64.2 145.15,-71.41 138.58,-74.38"/>
</a>
</g>
<text text-anchor="middle" x="172" y="-85" font-family="Helvetica,sans-Serif" font-size="10.00" fill="grey"> +intersections</text>
</g>
<!-- Node3 -->
<g id="Node000003" class="node">
<title>Node3</title>
<g id="a_Node000003"><a xlink:title=" ">
<polygon fill="white" stroke="transparent" points="131,-294.5 0,-294.5 0,-234.5 131,-234.5 131,-294.5"/>
<text text-anchor="start" x="5.5" y="-282.5" font-family="Helvetica,sans-Serif" font-size="10.00">std::vector&lt; Intersection</text>
<text text-anchor="start" x="47.5" y="-271.5" font-family="Helvetica,sans-Serif" font-size="10.00">Point &gt;</text>
<text text-anchor="start" x="64" y="-256.5" font-family="Helvetica,sans-Serif" font-size="10.00"> </text>
<text text-anchor="start" x="64" y="-241.5" font-family="Helvetica,sans-Serif" font-size="10.00"> </text>
<polygon fill="#666666" stroke="#666666" points="0.5,-266.5 0.5,-266.5 131.5,-266.5 131.5,-266.5 0.5,-266.5"/>
<polygon fill="#666666" stroke="#666666" points="0.5,-251.5 0.5,-251.5 131.5,-251.5 131.5,-251.5 0.5,-251.5"/>
<polygon fill="none" stroke="#666666" points="0,-234.5 0,-294.5 131,-294.5 131,-234.5 0,-234.5"/>
</a>
</g>
</g>
<!-- Node3&#45;&gt;Node2 -->
<g id="edge2_Node000002_Node000003" class="edge">
<title>Node3&#45;&gt;Node2</title>
<g id="a_edge2_Node000002_Node000003"><a xlink:title=" ">
<path fill="none" stroke="#63b8ff" d="M78.12,-234.23C83.45,-221.85 89.79,-207.14 95.72,-193.39"/>
<polygon fill="none" stroke="#63b8ff" points="95.82,-193.15 94.53,-186.05 100.57,-182.13 101.87,-189.22 95.82,-193.15"/>
</a>
</g>
<text text-anchor="middle" x="121.5" y="-203" font-family="Helvetica,sans-Serif" font-size="10.00" fill="grey"> +elements</text>
</g>
<!-- Node4 -->
<g id="Node000004" class="node">
<title>Node4</title>
<g id="a_Node000004"><a xlink:href="../../db/d00/structIntersectionPoint.html" target="_top" xlink:title="Point d&#39;intersection entre deux segments, avec paramètres de position.">
<polygon fill="white" stroke="transparent" points="112,-411 19,-411 19,-347 112,-347 112,-411"/>
<text text-anchor="start" x="24.5" y="-399" font-family="Helvetica,sans-Serif" font-size="10.00">IntersectionPoint</text>
<text text-anchor="start" x="39.5" y="-384" font-family="Helvetica,sans-Serif" font-size="10.00">+</text>
<text text-anchor="start" x="68.5" y="-384" font-family="Helvetica,sans-Serif" font-size="10.00">t</text>
<text text-anchor="start" x="39.5" y="-369" font-family="Helvetica,sans-Serif" font-size="10.00">+</text>
<text text-anchor="start" x="68.5" y="-369" font-family="Helvetica,sans-Serif" font-size="10.00">u</text>
<text text-anchor="start" x="64" y="-354" font-family="Helvetica,sans-Serif" font-size="10.00"> </text>
<polygon fill="#666666" stroke="#666666" points="19.5,-394 19.5,-394 112.5,-394 112.5,-394 19.5,-394"/>
<polygon fill="#666666" stroke="#666666" points="19.5,-364 19.5,-364 66.5,-364 66.5,-364 19.5,-364"/>
<polygon fill="#666666" stroke="#666666" points="66.5,-364 66.5,-364 112.5,-364 112.5,-364 66.5,-364"/>
<polygon fill="none" stroke="#666666" points="19,-347 19,-411 112,-411 112,-347 19,-347"/>
</a>
</g>
</g>
<!-- Node4&#45;&gt;Node3 -->
<g id="edge3_Node000003_Node000004" class="edge">
<title>Node4&#45;&gt;Node3</title>
<g id="a_edge3_Node000003_Node000004"><a xlink:title=" ">
<path fill="none" stroke="#63b8ff" d="M65.5,-346.96C65.5,-334.54 65.5,-320.05 65.5,-306.77"/>
<polygon fill="none" stroke="#63b8ff" points="65.5,-306.51 61.5,-300.51 65.5,-294.51 69.5,-300.51 65.5,-306.51"/>
</a>
</g>
<text text-anchor="middle" x="94.5" y="-321" font-family="Helvetica,sans-Serif" font-size="10.00" fill="grey"> +elements</text>
</g>
<!-- Node5 -->
<g id="Node000005" class="node">
<title>Node5</title>
<g id="a_Node000005"><a xlink:href="../../df/d01/classCoordinateXY.html" target="_top" xlink:title="Coordonnée plane en mètres dans un système métrique (UTM ou similaire).">
<polygon fill="white" stroke="transparent" points="113,-582 18,-582 18,-458 113,-458 113,-582"/>
<text text-anchor="start" x="32.5" y="-570" font-family="Helvetica,sans-Serif" font-size="10.00">CoordinateXY</text>
<text text-anchor="start" x="22.5" y="-555" font-family="Helvetica,sans-Serif" font-size="10.00">+</text>
<text text-anchor="start" x="35.5" y="-555" font-family="Helvetica,sans-Serif" font-size="10.00">x</text>
<text text-anchor="start" x="22.5" y="-540" font-family="Helvetica,sans-Serif" font-size="10.00">+</text>
<text text-anchor="start" x="35.5" y="-540" font-family="Helvetica,sans-Serif" font-size="10.00">y</text>
<text text-anchor="start" x="22.5" y="-525" font-family="Helvetica,sans-Serif" font-size="10.00">+</text>
<text text-anchor="start" x="35.5" y="-525" font-family="Helvetica,sans-Serif" font-size="10.00">CoordinateXY()</text>
<text text-anchor="start" x="22.5" y="-510" font-family="Helvetica,sans-Serif" font-size="10.00">+</text>
<text text-anchor="start" x="35.5" y="-510" font-family="Helvetica,sans-Serif" font-size="10.00">CoordinateXY()</text>
<text text-anchor="start" x="22.5" y="-495" font-family="Helvetica,sans-Serif" font-size="10.00">+</text>
<text text-anchor="start" x="35.5" y="-495" font-family="Helvetica,sans-Serif" font-size="10.00">operator==()</text>
<text text-anchor="start" x="22.5" y="-480" font-family="Helvetica,sans-Serif" font-size="10.00">+</text>
<text text-anchor="start" x="35.5" y="-480" font-family="Helvetica,sans-Serif" font-size="10.00">operator!=()</text>
<text text-anchor="start" x="22.5" y="-465" font-family="Helvetica,sans-Serif" font-size="10.00">+</text>
<text text-anchor="start" x="35.5" y="-465" font-family="Helvetica,sans-Serif" font-size="10.00">toString()</text>
<polygon fill="#666666" stroke="#666666" points="18.5,-565 18.5,-565 113.5,-565 113.5,-565 18.5,-565"/>
<polygon fill="#666666" stroke="#666666" points="18.5,-535 18.5,-535 33.5,-535 33.5,-535 18.5,-535"/>
<polygon fill="#666666" stroke="#666666" points="33.5,-535 33.5,-535 113.5,-535 113.5,-535 33.5,-535"/>
<polygon fill="none" stroke="#666666" points="18,-458 18,-582 113,-582 113,-458 18,-458"/>
</a>
</g>
</g>
<!-- Node5&#45;&gt;Node4 -->
<g id="edge4_Node000004_Node000005" class="edge">
<title>Node5&#45;&gt;Node4</title>
<g id="a_edge4_Node000004_Node000005"><a xlink:title=" ">
<path fill="none" stroke="#63b8ff" d="M65.5,-457.63C65.5,-446.13 65.5,-434.33 65.5,-423.51"/>
<polygon fill="none" stroke="#63b8ff" points="65.5,-423.34 61.5,-417.34 65.5,-411.34 69.5,-417.34 65.5,-423.34"/>
</a>
</g>
<text text-anchor="middle" x="84" y="-432" font-family="Helvetica,sans-Serif" font-size="10.00" fill="grey"> +point</text>
</g>
<!-- Node6 -->
<g id="Node000006" class="node">
<title>Node6</title>
<g id="a_Node000006"><a xlink:href="../../d0/d03/structSegmentId.html" target="_top" xlink:title="Identifiant unique d&#39;un segment dans le RawNetwork.">
<polygon fill="white" stroke="transparent" points="224.5,-552 136.5,-552 136.5,-488 224.5,-488 224.5,-552"/>
<text text-anchor="start" x="154" y="-540" font-family="Helvetica,sans-Serif" font-size="10.00">SegmentId</text>
<text text-anchor="start" x="140.5" y="-525" font-family="Helvetica,sans-Serif" font-size="10.00">+</text>
<text text-anchor="start" x="153.5" y="-525" font-family="Helvetica,sans-Serif" font-size="10.00">polylineIndex</text>
<text text-anchor="start" x="140.5" y="-510" font-family="Helvetica,sans-Serif" font-size="10.00">+</text>
<text text-anchor="start" x="153.5" y="-510" font-family="Helvetica,sans-Serif" font-size="10.00">pointIndex</text>
<text text-anchor="start" x="140.5" y="-495" font-family="Helvetica,sans-Serif" font-size="10.00">+</text>
<text text-anchor="start" x="153.5" y="-495" font-family="Helvetica,sans-Serif" font-size="10.00">operator==()</text>
<polygon fill="#666666" stroke="#666666" points="136.5,-535 136.5,-535 224.5,-535 224.5,-535 136.5,-535"/>
<polygon fill="#666666" stroke="#666666" points="136.5,-505 136.5,-505 151.5,-505 151.5,-505 136.5,-505"/>
<polygon fill="#666666" stroke="#666666" points="151.5,-505 151.5,-505 224.5,-505 224.5,-505 151.5,-505"/>
<polygon fill="none" stroke="#666666" points="136.5,-488 136.5,-552 224.5,-552 224.5,-488 136.5,-488"/>
</a>
</g>
</g>
<!-- Node6&#45;&gt;Node4 -->
<g id="edge5_Node000004_Node000006" class="edge">
<title>Node6&#45;&gt;Node4</title>
<g id="a_edge5_Node000004_Node000006"><a xlink:title=" ">
<path fill="none" stroke="#63b8ff" d="M154.88,-487.71C140.66,-470.38 122.64,-448.46 106.5,-429 104.17,-426.19 101.76,-423.29 99.33,-420.37"/>
<polygon fill="none" stroke="#63b8ff" points="99.26,-420.29 92.34,-418.24 91.57,-411.07 98.48,-413.12 99.26,-420.29"/>
</a>
</g>
<text text-anchor="middle" x="134" y="-432" font-family="Helvetica,sans-Serif" font-size="10.00" fill="grey"> +other</text>
</g>
<!-- Node9 -->
<g id="Node000009" class="node">
<title>Node9</title>
<g id="a_Node000009"><a xlink:title=" ">
<polygon fill="white" stroke="transparent" points="267,-403.5 130,-403.5 130,-354.5 267,-354.5 267,-403.5"/>
<text text-anchor="start" x="135.5" y="-391" font-family="Helvetica,sans-Serif" font-size="10.00">std::vector&lt; SegmentId &gt;</text>
<text text-anchor="start" x="197" y="-376" font-family="Helvetica,sans-Serif" font-size="10.00"> </text>
<text text-anchor="start" x="197" y="-361" font-family="Helvetica,sans-Serif" font-size="10.00"> </text>
<polygon fill="#666666" stroke="#666666" points="130.5,-386 130.5,-386 267.5,-386 267.5,-386 130.5,-386"/>
<polygon fill="#666666" stroke="#666666" points="130.5,-371 130.5,-371 267.5,-371 267.5,-371 130.5,-371"/>
<polygon fill="none" stroke="#666666" points="130,-354.5 130,-403.5 267,-403.5 267,-354.5 130,-354.5"/>
</a>
</g>
</g>
<!-- Node6&#45;&gt;Node9 -->
<g id="edge9_Node000009_Node000006" class="edge">
<title>Node6&#45;&gt;Node9</title>
<g id="a_edge9_Node000009_Node000006"><a xlink:title=" ">
<path fill="none" stroke="#63b8ff" d="M184.54,-487.81C187.31,-466.43 190.99,-438.02 193.87,-415.73"/>
<polygon fill="none" stroke="#63b8ff" points="193.88,-415.64 190.69,-409.18 195.43,-403.74 198.62,-410.2 193.88,-415.64"/>
</a>
</g>
<text text-anchor="middle" x="221.5" y="-432" font-family="Helvetica,sans-Serif" font-size="10.00" fill="grey"> +elements</text>
</g>
<!-- Node7 -->
<g id="Node000007" class="node">
<title>Node7</title>
<g id="a_Node000007"><a xlink:title=" ">
<polygon fill="white" stroke="transparent" points="316,-300 149,-300 149,-229 316,-229 316,-300"/>
<text text-anchor="start" x="154.5" y="-287.5" font-family="Helvetica,sans-Serif" font-size="10.00">std::unordered_map</text>
<text text-anchor="start" x="154.5" y="-276.5" font-family="Helvetica,sans-Serif" font-size="10.00">&lt; GridCell, std::vector</text>
<text text-anchor="start" x="154.5" y="-265.5" font-family="Helvetica,sans-Serif" font-size="10.00">&lt; SegmentId &gt;, GridCellHash &gt;</text>
<text text-anchor="start" x="231" y="-250.5" font-family="Helvetica,sans-Serif" font-size="10.00"> </text>
<text text-anchor="start" x="231" y="-235.5" font-family="Helvetica,sans-Serif" font-size="10.00"> </text>
<polygon fill="#666666" stroke="#666666" points="149.5,-260.5 149.5,-260.5 316.5,-260.5 316.5,-260.5 149.5,-260.5"/>
<polygon fill="#666666" stroke="#666666" points="149.5,-245.5 149.5,-245.5 316.5,-245.5 316.5,-245.5 149.5,-245.5"/>
<polygon fill="none" stroke="#666666" points="149,-229 149,-300 316,-300 316,-229 149,-229"/>
</a>
</g>
</g>
<!-- Node7&#45;&gt;Node1 -->
<g id="edge6_Node000001_Node000007" class="edge">
<title>Node7&#45;&gt;Node1</title>
<g id="a_edge6_Node000001_Node000007"><a xlink:title=" ">
<path fill="none" stroke="#63b8ff" d="M233.68,-228.92C233.72,-191.27 230.1,-130.02 209.5,-82 208.43,-79.5 207.19,-77.02 205.82,-74.59"/>
<polygon fill="none" stroke="#63b8ff" points="205.67,-74.35 199.06,-71.47 199.17,-64.26 205.78,-67.14 205.67,-74.35"/>
</a>
</g>
<text text-anchor="middle" x="248" y="-144" font-family="Helvetica,sans-Serif" font-size="10.00" fill="grey"> +grid</text>
</g>
<!-- Node8 -->
<g id="Node000008" class="node">
<title>Node8</title>
<g id="a_Node000008"><a xlink:href="../../dd/d01/structGridCell.html" target="_top" xlink:title="Clé de cellule de la grille spatiale de binning.">
<polygon fill="white" stroke="transparent" points="372,-411 285,-411 285,-347 372,-347 372,-411"/>
<text text-anchor="start" x="309" y="-399" font-family="Helvetica,sans-Serif" font-size="10.00">GridCell</text>
<text text-anchor="start" x="289.5" y="-384" font-family="Helvetica,sans-Serif" font-size="10.00">+</text>
<text text-anchor="start" x="302.5" y="-384" font-family="Helvetica,sans-Serif" font-size="10.00">col</text>
<text text-anchor="start" x="289.5" y="-369" font-family="Helvetica,sans-Serif" font-size="10.00">+</text>
<text text-anchor="start" x="302.5" y="-369" font-family="Helvetica,sans-Serif" font-size="10.00">row</text>
<text text-anchor="start" x="289.5" y="-354" font-family="Helvetica,sans-Serif" font-size="10.00">+</text>
<text text-anchor="start" x="302.5" y="-354" font-family="Helvetica,sans-Serif" font-size="10.00">operator==()</text>
<polygon fill="#666666" stroke="#666666" points="285.5,-394 285.5,-394 372.5,-394 372.5,-394 285.5,-394"/>
<polygon fill="#666666" stroke="#666666" points="285.5,-364 285.5,-364 300.5,-364 300.5,-364 285.5,-364"/>
<polygon fill="#666666" stroke="#666666" points="300.5,-364 300.5,-364 372.5,-364 372.5,-364 300.5,-364"/>
<polygon fill="none" stroke="#666666" points="285,-347 285,-411 372,-411 372,-347 285,-347"/>
</a>
</g>
</g>
<!-- Node8&#45;&gt;Node7 -->
<g id="edge7_Node000007_Node000008" class="edge">
<title>Node8&#45;&gt;Node7</title>
<g id="a_edge7_Node000007_Node000008"><a xlink:title=" ">
<path fill="none" stroke="#63b8ff" d="M303.59,-346.95C295.95,-337.57 287.45,-327.3 279.5,-318 277,-315.07 274.4,-312.07 271.76,-309.05"/>
<polygon fill="none" stroke="#63b8ff" points="271.75,-309.04 264.79,-307.19 263.82,-300.04 270.79,-301.9 271.75,-309.04"/>
</a>
</g>
<text text-anchor="middle" x="305.5" y="-321" font-family="Helvetica,sans-Serif" font-size="10.00" fill="grey"> +keys</text>
</g>
<!-- Node9&#45;&gt;Node7 -->
<g id="edge8_Node000007_Node000009" class="edge">
<title>Node9&#45;&gt;Node7</title>
<g id="a_edge8_Node000007_Node000009"><a xlink:title=" ">
<path fill="none" stroke="#63b8ff" d="M205.63,-354.42C209.38,-342.01 214.11,-326.36 218.55,-311.66"/>
<polygon fill="none" stroke="#63b8ff" points="218.55,-311.65 216.46,-304.75 222.03,-300.16 224.12,-307.06 218.55,-311.65"/>
</a>
</g>
<text text-anchor="middle" x="246.5" y="-321" font-family="Helvetica,sans-Serif" font-size="10.00" fill="grey"> +elements</text>
</g>
</g>
</svg>
