<?xml version="1.0" encoding="UTF-8" standalone="no"?>
<!DOCTYPE svg PUBLIC "-//W3C//DTD SVG 1.1//EN"
 "http://www.w3.org/Graphics/SVG/1.1/DTD/svg11.dtd">
<!-- Generated by graphviz version 2.43.0 (0)
 -->
<!-- Title: SimulateurFerroviaire/Modules/Coordinates/CoordinateXY.h Pages: 1 -->
<svg width="1040pt" height="500pt"
 viewBox="0.00 0.00 1039.51 500.00" xmlns="http://www.w3.org/2000/svg" xmlns:xlink="http://www.w3.org/1999/xlink">
<g id="graph0" class="graph" transform="scale(1 1) rotate(0) translate(4 496)">
<title>SimulateurFerroviaire/Modules/Coordinates/CoordinateXY.h</title>
<!-- Node1 -->
<g id="Node000001" class="node">
<title>Node1</title>
<g id="a_Node000001"><a xlink:title="Représentation d&#39;une coordonnée plane en mètres (système métrique UTM).">
<polygon fill="#999999" stroke="#666666" points="521.01,-492 399.01,-492 399.01,-451 521.01,-451 521.01,-492"/>
<text text-anchor="start" x="407.01" y="-480" font-family="Helvetica,sans-Serif" font-size="10.00">SimulateurFerroviaire</text>
<text text-anchor="start" x="407.01" y="-469" font-family="Helvetica,sans-Serif" font-size="10.00">/Modules/Coordinates</text>
<text text-anchor="middle" x="460.01" y="-458" font-family="Helvetica,sans-Serif" font-size="10.00">/CoordinateXY.h</text>
</a>
</g>
</g>
<!-- Node2 -->
<g id="Node000002" class="node">
<title>Node2</title>
<g id="a_Node000002"><a xlink:href="../../dd/d01/TopologyEdge_8h.html" target="_top" xlink:title="Arête non&#45;orientée du graphe planaire de topologie ferroviaire.">
<polygon fill="white" stroke="#666666" points="413.01,-415 267.01,-415 267.01,-374 413.01,-374 413.01,-415"/>
<text text-anchor="start" x="275.01" y="-403" font-family="Helvetica,sans-Serif" font-size="10.00">SimulateurFerroviaire</text>
<text text-anchor="start" x="275.01" y="-392" font-family="Helvetica,sans-Serif" font-size="10.00">/Modules/GeoParser/Graph</text>
<text text-anchor="middle" x="340.01" y="-381" font-family="Helvetica,sans-Serif" font-size="10.00">/TopologyEdge.h</text>
</a>
</g>
</g>
<!-- Node1&#45;&gt;Node2 -->
<g id="edge1_Node000001_Node000002" class="edge">
<title>Node1&#45;&gt;Node2</title>
<g id="a_edge1_Node000001_Node000002"><a xlink:title=" ">
<path fill="none" stroke="#63b8ff" d="M420.24,-445.64C404.39,-435.74 386.41,-424.5 371.49,-415.17"/>
<polygon fill="#63b8ff" stroke="#63b8ff" points="418.46,-448.66 428.8,-450.99 422.17,-442.72 418.46,-448.66"/>
</a>
</g>
</g>
<!-- Node4 -->
<g id="Node000004" class="node">
<title>Node4</title>
<g id="a_Node000004"><a xlink:href="../../d7/d03/TopologyGraph_8h.html" target="_top" xlink:title="Graphe planaire non&#45;orienté de nœuds et d&#39;arêtes ferroviaires accrochés.">
<polygon fill="white" stroke="#666666" points="451.01,-338 305.01,-338 305.01,-297 451.01,-297 451.01,-338"/>
<text text-anchor="start" x="313.01" y="-326" font-family="Helvetica,sans-Serif" font-size="10.00">SimulateurFerroviaire</text>
<text text-anchor="start" x="313.01" y="-315" font-family="Helvetica,sans-Serif" font-size="10.00">/Modules/GeoParser/Graph</text>
<text text-anchor="middle" x="378.01" y="-304" font-family="Helvetica,sans-Serif" font-size="10.00">/TopologyGraph.h</text>
</a>
</g>
</g>
<!-- Node1&#45;&gt;Node4 -->
<g id="edge17_Node000001_Node000004" class="edge">
<title>Node1&#45;&gt;Node4</title>
<g id="a_edge17_Node000001_Node000004"><a xlink:title=" ">
<path fill="none" stroke="#63b8ff" d="M451.01,-441.23C444.36,-421.55 434.34,-395.39 422.01,-374 414.65,-361.22 404.52,-348.22 395.83,-338.02"/>
<polygon fill="#63b8ff" stroke="#63b8ff" points="447.73,-442.46 454.18,-450.87 454.38,-440.28 447.73,-442.46"/>
</a>
</g>
</g>
<!-- Node9 -->
<g id="Node000009" class="node">
<title>Node9</title>
<g id="a_Node000009"><a xlink:href="../../d0/d03/GraphBuilder_8h.html" target="_top" xlink:title="Phases 1 et 2 du pipeline — chargement GeoJSON et construction du graphe métrique.">
<polygon fill="white" stroke="#666666" points="472.01,-255.5 284.01,-255.5 284.01,-225.5 472.01,-225.5 472.01,-255.5"/>
<text text-anchor="start" x="292.01" y="-243.5" font-family="Helvetica,sans-Serif" font-size="10.00">SimulateurFerroviaire</text>
<text text-anchor="middle" x="378.01" y="-232.5" font-family="Helvetica,sans-Serif" font-size="10.00">/Modules/GeoParser/GraphBuilder.h</text>
</a>
</g>
</g>
<!-- Node1&#45;&gt;Node9 -->
<g id="edge18_Node000001_Node000009" class="edge">
<title>Node1&#45;&gt;Node9</title>
<g id="a_edge18_Node000001_Node000009"><a xlink:title=" ">
<path fill="none" stroke="#63b8ff" d="M467.98,-440.94C476.04,-404.71 484.17,-342.53 460.01,-297 450.02,-278.17 430.47,-264.56 412.96,-255.53"/>
<polygon fill="#63b8ff" stroke="#63b8ff" points="464.53,-440.33 465.63,-450.87 471.34,-441.94 464.53,-440.33"/>
</a>
</g>
</g>
<!-- Node15 -->
<g id="Node000015" class="node">
<title>Node15</title>
<g id="a_Node000015"><a xlink:href="../../dc/d01/GeometryUtils_8h.html" target="_top" xlink:title="Utilitaires géométriques métriques pour le pipeline ferroviaire.">
<polygon fill="white" stroke="#666666" points="844.51,-261 705.51,-261 705.51,-220 844.51,-220 844.51,-261"/>
<text text-anchor="start" x="713.51" y="-249" font-family="Helvetica,sans-Serif" font-size="10.00">SimulateurFerroviaire</text>
<text text-anchor="start" x="713.51" y="-238" font-family="Helvetica,sans-Serif" font-size="10.00">/Modules/GeoParser/Utils</text>
<text text-anchor="middle" x="775.01" y="-227" font-family="Helvetica,sans-Serif" font-size="10.00">/GeometryUtils.h</text>
</a>
</g>
</g>
<!-- Node1&#45;&gt;Node15 -->
<g id="edge19_Node000001_Node000015" class="edge">
<title>Node1&#45;&gt;Node15</title>
<g id="a_edge19_Node000001_Node000015"><a xlink:title=" ">
<path fill="none" stroke="#63b8ff" d="M494.96,-445.09C558.27,-399.07 690.63,-302.85 747.78,-261.3"/>
<polygon fill="#63b8ff" stroke="#63b8ff" points="492.9,-442.26 486.87,-450.98 497.02,-447.93 492.9,-442.26"/>
</a>
</g>
</g>
<!-- Node3 -->
<g id="Node000003" class="node">
<title>Node3</title>
<g id="a_Node000003"><a xlink:href="../../d1/d02/TopologyEdge_8cpp.html" target="_top" xlink:title="Implémentation de l&#39;arête du graphe planaire.">
<polygon fill="white" stroke="#666666" points="287.01,-338 141.01,-338 141.01,-297 287.01,-297 287.01,-338"/>
<text text-anchor="start" x="149.01" y="-326" font-family="Helvetica,sans-Serif" font-size="10.00">SimulateurFerroviaire</text>
<text text-anchor="start" x="149.01" y="-315" font-family="Helvetica,sans-Serif" font-size="10.00">/Modules/GeoParser/Graph</text>
<text text-anchor="middle" x="214.01" y="-304" font-family="Helvetica,sans-Serif" font-size="10.00">/TopologyEdge.cpp</text>
</a>
</g>
</g>
<!-- Node2&#45;&gt;Node3 -->
<g id="edge2_Node000002_Node000003" class="edge">
<title>Node2&#45;&gt;Node3</title>
<g id="a_edge2_Node000002_Node000003"><a xlink:title=" ">
<path fill="none" stroke="#63b8ff" d="M298.25,-368.64C281.61,-358.74 262.73,-347.5 247.06,-338.17"/>
<polygon fill="#63b8ff" stroke="#63b8ff" points="296.85,-371.88 307.24,-373.99 300.43,-365.87 296.85,-371.88"/>
</a>
</g>
</g>
<!-- Node2&#45;&gt;Node4 -->
<g id="edge3_Node000002_Node000004" class="edge">
<title>Node2&#45;&gt;Node4</title>
<g id="a_edge3_Node000002_Node000004"><a xlink:title=" ">
<path fill="none" stroke="#63b8ff" d="M354.54,-364.83C359.07,-355.89 363.96,-346.24 368.09,-338.07"/>
<polygon fill="#63b8ff" stroke="#63b8ff" points="351.39,-363.29 350,-373.79 357.64,-366.46 351.39,-363.29"/>
</a>
</g>
</g>
<!-- Node5 -->
<g id="Node000005" class="node">
<title>Node5</title>
<g id="a_Node000005"><a xlink:href="../../de/d00/DoubleSwitchDetector_8h.html" target="_top" xlink:title="Phases 7 et 8 — détection des doubles aiguilles et validation CDC.">
<polygon fill="white" stroke="#666666" points="199.51,-261 16.51,-261 16.51,-220 199.51,-220 199.51,-261"/>
<text text-anchor="start" x="24.51" y="-249" font-family="Helvetica,sans-Serif" font-size="10.00">SimulateurFerroviaire</text>
<text text-anchor="start" x="24.51" y="-238" font-family="Helvetica,sans-Serif" font-size="10.00">/Modules/GeoParser/DoubleSwitch</text>
<text text-anchor="middle" x="108.01" y="-227" font-family="Helvetica,sans-Serif" font-size="10.00">Detector.h</text>
</a>
</g>
</g>
<!-- Node4&#45;&gt;Node5 -->
<g id="edge4_Node000004_Node000005" class="edge">
<title>Node4&#45;&gt;Node5</title>
<g id="a_edge4_Node000004_Node000005"><a xlink:title=" ">
<path fill="none" stroke="#63b8ff" d="M297.78,-294.21C259.84,-283.68 214.96,-271.21 178.36,-261.04"/>
<polygon fill="#63b8ff" stroke="#63b8ff" points="297.21,-297.69 307.78,-296.99 299.08,-290.94 297.21,-297.69"/>
</a>
</g>
</g>
<!-- Node8 -->
<g id="Node000008" class="node">
<title>Node8</title>
<g id="a_Node000008"><a xlink:href="../../d5/d01/TopologyGraph_8cpp.html" target="_top" xlink:title="Implémentation du graphe planaire de topologie ferroviaire.">
<polygon fill="white" stroke="#666666" points="798.01,-184 652.01,-184 652.01,-143 798.01,-143 798.01,-184"/>
<text text-anchor="start" x="660.01" y="-172" font-family="Helvetica,sans-Serif" font-size="10.00">SimulateurFerroviaire</text>
<text text-anchor="start" x="660.01" y="-161" font-family="Helvetica,sans-Serif" font-size="10.00">/Modules/GeoParser/Graph</text>
<text text-anchor="middle" x="725.01" y="-150" font-family="Helvetica,sans-Serif" font-size="10.00">/TopologyGraph.cpp</text>
</a>
</g>
</g>
<!-- Node4&#45;&gt;Node8 -->
<g id="edge7_Node000004_Node000008" class="edge">
<title>Node4&#45;&gt;Node8</title>
<g id="a_edge7_Node000004_Node000008"><a xlink:title=" ">
<path fill="none" stroke="#63b8ff" d="M431.97,-292.86C500.27,-262.95 616.65,-211.97 680.26,-184.11"/>
<polygon fill="#63b8ff" stroke="#63b8ff" points="430.42,-289.72 422.67,-296.94 433.23,-296.13 430.42,-289.72"/>
</a>
</g>
</g>
<!-- Node4&#45;&gt;Node9 -->
<g id="edge8_Node000004_Node000009" class="edge">
<title>Node4&#45;&gt;Node9</title>
<g id="a_edge8_Node000004_Node000009"><a xlink:title=" ">
<path fill="none" stroke="#63b8ff" d="M378.01,-286.61C378.01,-276.01 378.01,-264.57 378.01,-255.86"/>
<polygon fill="#63b8ff" stroke="#63b8ff" points="374.51,-286.79 378.01,-296.79 381.51,-286.79 374.51,-286.79"/>
</a>
</g>
</g>
<!-- Node6 -->
<g id="Node000006" class="node">
<title>Node6</title>
<g id="a_Node000006"><a xlink:href="../../dd/d02/DoubleSwitchDetector_8cpp.html" target="_top" xlink:title="Implémentation phases 7 et 8 — doubles aiguilles et validation CDC.">
<polygon fill="white" stroke="#666666" points="199.51,-184 16.51,-184 16.51,-143 199.51,-143 199.51,-184"/>
<text text-anchor="start" x="24.51" y="-172" font-family="Helvetica,sans-Serif" font-size="10.00">SimulateurFerroviaire</text>
<text text-anchor="start" x="24.51" y="-161" font-family="Helvetica,sans-Serif" font-size="10.00">/Modules/GeoParser/DoubleSwitch</text>
<text text-anchor="middle" x="108.01" y="-150" font-family="Helvetica,sans-Serif" font-size="10.00">Detector.cpp</text>
</a>
</g>
</g>
<!-- Node5&#45;&gt;Node6 -->
<g id="edge5_Node000005_Node000006" class="edge">
<title>Node5&#45;&gt;Node6</title>
<g id="a_edge5_Node000005_Node000006"><a xlink:title=" ">
<path fill="none" stroke="#63b8ff" d="M108.01,-209.69C108.01,-201.08 108.01,-191.9 108.01,-184.07"/>
<polygon fill="#63b8ff" stroke="#63b8ff" points="104.51,-209.79 108.01,-219.79 111.51,-209.79 104.51,-209.79"/>
</a>
</g>
</g>
<!-- Node7 -->
<g id="Node000007" class="node">
<title>Node7</title>
<g id="a_Node000007"><a xlink:href="../../d7/d03/GeoParser_8cpp.html" target="_top" xlink:title="Implémentation du pipeline GeoParser.">
<polygon fill="white" stroke="#666666" points="339.51,-30 154.51,-30 154.51,0 339.51,0 339.51,-30"/>
<text text-anchor="start" x="162.51" y="-18" font-family="Helvetica,sans-Serif" font-size="10.00">SimulateurFerroviaire</text>
<text text-anchor="middle" x="247.01" y="-7" font-family="Helvetica,sans-Serif" font-size="10.00">/Modules/GeoParser/GeoParser.cpp</text>
</a>
</g>
</g>
<!-- Node5&#45;&gt;Node7 -->
<g id="edge6_Node000005_Node000007" class="edge">
<title>Node5&#45;&gt;Node7</title>
<g id="a_edge6_Node000005_Node000007"><a xlink:title=" ">
<path fill="none" stroke="#63b8ff" d="M39.48,-214.92C26.53,-207.07 14.67,-196.94 7.01,-184 -2.27,-168.32 -2.39,-158.61 7.01,-143 45.07,-79.8 126.29,-46.41 183.68,-30"/>
<polygon fill="#63b8ff" stroke="#63b8ff" points="38.13,-218.18 48.57,-219.99 41.55,-212.06 38.13,-218.18"/>
</a>
</g>
</g>
<!-- Node9&#45;&gt;Node7 -->
<g id="edge9_Node000009_Node000007" class="edge">
<title>Node9&#45;&gt;Node7</title>
<g id="a_edge9_Node000009_Node000007"><a xlink:title=" ">
<path fill="none" stroke="#63b8ff" d="M296.32,-221.74C276.98,-213.52 258.62,-201.52 247.01,-184 214.96,-135.61 232.74,-60.94 242.24,-30.08"/>
<polygon fill="#63b8ff" stroke="#63b8ff" points="295.28,-225.1 305.87,-225.48 297.83,-218.58 295.28,-225.1"/>
</a>
</g>
</g>
<!-- Node10 -->
<g id="Node000010" class="node">
<title>Node10</title>
<g id="a_Node000010"><a xlink:href="../../d7/d03/GraphBuilder_8cpp.html" target="_top" xlink:title="Implémentation des phases 1 et 2 — chargement GeoJSON et construction du graphe.">
<polygon fill="white" stroke="#666666" points="634.01,-178.5 434.01,-178.5 434.01,-148.5 634.01,-148.5 634.01,-178.5"/>
<text text-anchor="start" x="442.01" y="-166.5" font-family="Helvetica,sans-Serif" font-size="10.00">SimulateurFerroviaire</text>
<text text-anchor="middle" x="534.01" y="-155.5" font-family="Helvetica,sans-Serif" font-size="10.00">/Modules/GeoParser/GraphBuilder.cpp</text>
</a>
</g>
</g>
<!-- Node9&#45;&gt;Node10 -->
<g id="edge10_Node000009_Node000010" class="edge">
<title>Node9&#45;&gt;Node10</title>
<g id="a_edge10_Node000009_Node000010"><a xlink:title=" ">
<path fill="none" stroke="#63b8ff" d="M416.61,-220.94C443.89,-207.83 479.89,-190.52 504.8,-178.54"/>
<polygon fill="#63b8ff" stroke="#63b8ff" points="414.85,-217.91 407.35,-225.39 417.88,-224.21 414.85,-217.91"/>
</a>
</g>
</g>
<!-- Node11 -->
<g id="Node000011" class="node">
<title>Node11</title>
<g id="a_Node000011"><a xlink:href="../../df/d03/TopologyExtractor_8h.html" target="_top" xlink:title="Phases 3, 4, 5a et 5b — extraction de la topologie ferroviaire depuis le graphe.">
<polygon fill="white" stroke="#666666" points="416.01,-184 256.01,-184 256.01,-143 416.01,-143 416.01,-184"/>
<text text-anchor="start" x="264.01" y="-172" font-family="Helvetica,sans-Serif" font-size="10.00">SimulateurFerroviaire</text>
<text text-anchor="start" x="264.01" y="-161" font-family="Helvetica,sans-Serif" font-size="10.00">/Modules/GeoParser/Topology</text>
<text text-anchor="middle" x="336.01" y="-150" font-family="Helvetica,sans-Serif" font-size="10.00">Extractor.h</text>
</a>
</g>
</g>
<!-- Node9&#45;&gt;Node11 -->
<g id="edge11_Node000009_Node000011" class="edge">
<title>Node9&#45;&gt;Node11</title>
<g id="a_edge11_Node000009_Node000011"><a xlink:title=" ">
<path fill="none" stroke="#63b8ff" d="M365.14,-216.51C359.35,-206.18 352.59,-194.11 347.05,-184.2"/>
<polygon fill="#63b8ff" stroke="#63b8ff" points="362.17,-218.38 370.11,-225.39 368.28,-214.96 362.17,-218.38"/>
</a>
</g>
</g>
<!-- Node11&#45;&gt;Node7 -->
<g id="edge12_Node000011_Node000007" class="edge">
<title>Node11&#45;&gt;Node7</title>
<g id="a_edge12_Node000011_Node000007"><a xlink:title=" ">
<path fill="none" stroke="#63b8ff" d="M307.83,-135.63C299.78,-127 291.45,-117.06 285.01,-107 268.95,-81.91 257.17,-48.89 251.27,-30.31"/>
<polygon fill="#63b8ff" stroke="#63b8ff" points="305.33,-138.07 314.79,-142.84 310.37,-133.21 305.33,-138.07"/>
</a>
</g>
</g>
<!-- Node12 -->
<g id="Node000012" class="node">
<title>Node12</title>
<g id="a_Node000012"><a xlink:href="../../db/d01/SwitchOrientator_8h.html" target="_top" xlink:title="Phases 6, 6b, 6c et 6d — orientation géométrique des aiguillages.">
<polygon fill="white" stroke="#666666" points="500.01,-101.5 294.01,-101.5 294.01,-71.5 500.01,-71.5 500.01,-101.5"/>
<text text-anchor="start" x="302.01" y="-89.5" font-family="Helvetica,sans-Serif" font-size="10.00">SimulateurFerroviaire</text>
<text text-anchor="middle" x="397.01" y="-78.5" font-family="Helvetica,sans-Serif" font-size="10.00">/Modules/GeoParser/SwitchOrientator.h</text>
</a>
</g>
</g>
<!-- Node11&#45;&gt;Node12 -->
<g id="edge13_Node000011_Node000012" class="edge">
<title>Node11&#45;&gt;Node12</title>
<g id="a_edge13_Node000011_Node000012"><a xlink:title=" ">
<path fill="none" stroke="#63b8ff" d="M358.45,-134.92C367.57,-123.7 377.73,-111.21 385.33,-101.86"/>
<polygon fill="#63b8ff" stroke="#63b8ff" points="355.63,-132.83 352.04,-142.79 361.06,-137.25 355.63,-132.83"/>
</a>
</g>
</g>
<!-- Node14 -->
<g id="Node000014" class="node">
<title>Node14</title>
<g id="a_Node000014"><a xlink:href="../../d9/d02/TopologyExtractor_8cpp.html" target="_top" xlink:title="Implémentation des phases 3, 4, 5a et 5b du pipeline GeoParser.">
<polygon fill="white" stroke="#666666" points="757.01,-107 597.01,-107 597.01,-66 757.01,-66 757.01,-107"/>
<text text-anchor="start" x="605.01" y="-95" font-family="Helvetica,sans-Serif" font-size="10.00">SimulateurFerroviaire</text>
<text text-anchor="start" x="605.01" y="-84" font-family="Helvetica,sans-Serif" font-size="10.00">/Modules/GeoParser/Topology</text>
<text text-anchor="middle" x="677.01" y="-73" font-family="Helvetica,sans-Serif" font-size="10.00">Extractor.cpp</text>
</a>
</g>
</g>
<!-- Node11&#45;&gt;Node14 -->
<g id="edge16_Node000011_Node000014" class="edge">
<title>Node11&#45;&gt;Node14</title>
<g id="a_edge16_Node000011_Node000014"><a xlink:title=" ">
<path fill="none" stroke="#63b8ff" d="M426.46,-142.61C479.45,-130.95 545.78,-116.36 596.88,-105.13"/>
<polygon fill="#63b8ff" stroke="#63b8ff" points="425.41,-139.25 416.39,-144.82 426.91,-146.09 425.41,-139.25"/>
</a>
</g>
</g>
<!-- Node12&#45;&gt;Node7 -->
<g id="edge14_Node000012_Node000007" class="edge">
<title>Node12&#45;&gt;Node7</title>
<g id="a_edge14_Node000012_Node000007"><a xlink:title=" ">
<path fill="none" stroke="#63b8ff" d="M357.41,-67.15C332.33,-55.53 300.39,-40.73 277.32,-30.04"/>
<polygon fill="#63b8ff" stroke="#63b8ff" points="356.11,-70.41 366.66,-71.44 359.06,-64.06 356.11,-70.41"/>
</a>
</g>
</g>
<!-- Node13 -->
<g id="Node000013" class="node">
<title>Node13</title>
<g id="a_Node000013"><a xlink:href="../../d0/d03/SwitchOrientator_8cpp.html" target="_top" xlink:title="Implémentation des phases 6, 6b, 6c et 6d — orientation des aiguillages.">
<polygon fill="white" stroke="#666666" points="774.01,-30 556.01,-30 556.01,0 774.01,0 774.01,-30"/>
<text text-anchor="start" x="564.01" y="-18" font-family="Helvetica,sans-Serif" font-size="10.00">SimulateurFerroviaire</text>
<text text-anchor="middle" x="665.01" y="-7" font-family="Helvetica,sans-Serif" font-size="10.00">/Modules/GeoParser/SwitchOrientator.cpp</text>
</a>
</g>
</g>
<!-- Node12&#45;&gt;Node13 -->
<g id="edge15_Node000012_Node000013" class="edge">
<title>Node12&#45;&gt;Node13</title>
<g id="a_edge15_Node000012_Node000013"><a xlink:title=" ">
<path fill="none" stroke="#63b8ff" d="M461.05,-68.89C506.76,-57.04 567.56,-41.27 610.86,-30.04"/>
<polygon fill="#63b8ff" stroke="#63b8ff" points="460.05,-65.54 451.25,-71.44 461.8,-72.31 460.05,-65.54"/>
</a>
</g>
</g>
<!-- Node15&#45;&gt;Node8 -->
<g id="edge20_Node000015_Node000008" class="edge">
<title>Node15&#45;&gt;Node8</title>
<g id="a_edge20_Node000015_Node000008"><a xlink:title=" ">
<path fill="none" stroke="#63b8ff" d="M756.27,-211.39C750.21,-202.3 743.62,-192.41 738.06,-184.07"/>
<polygon fill="#63b8ff" stroke="#63b8ff" points="753.42,-213.42 761.88,-219.79 759.24,-209.53 753.42,-213.42"/>
</a>
</g>
</g>
<!-- Node15&#45;&gt;Node10 -->
<g id="edge21_Node000015_Node000010" class="edge">
<title>Node15&#45;&gt;Node10</title>
<g id="a_edge21_Node000015_Node000010"><a xlink:title=" ">
<path fill="none" stroke="#63b8ff" d="M702.59,-216.96C662.52,-204.49 613.95,-189.38 579.26,-178.58"/>
<polygon fill="#63b8ff" stroke="#63b8ff" points="701.73,-220.36 712.32,-219.99 703.81,-213.68 701.73,-220.36"/>
</a>
</g>
</g>
<!-- Node15&#45;&gt;Node13 -->
<g id="edge22_Node000015_Node000013" class="edge">
<title>Node15&#45;&gt;Node13</title>
<g id="a_edge22_Node000015_Node000013"><a xlink:title=" ">
<path fill="none" stroke="#63b8ff" d="M805.64,-212.63C813.08,-204.28 820.04,-194.49 824.01,-184 830.46,-166.96 829.79,-160.28 824.01,-143 810.42,-102.37 798.99,-93.35 766.01,-66 747.49,-50.64 723.45,-38.49 703.47,-30.02"/>
<polygon fill="#63b8ff" stroke="#63b8ff" points="803.1,-210.21 798.73,-219.87 808.17,-215.05 803.1,-210.21"/>
</a>
</g>
</g>
<!-- Node15&#45;&gt;Node14 -->
<g id="edge23_Node000015_Node000014" class="edge">
<title>Node15&#45;&gt;Node14</title>
<g id="a_edge23_Node000015_Node000014"><a xlink:title=" ">
<path fill="none" stroke="#63b8ff" d="M796.85,-211.2C809.61,-190.98 820.74,-163.78 807.01,-143 795.31,-125.29 776.68,-113.21 757.13,-104.98"/>
<polygon fill="#63b8ff" stroke="#63b8ff" points="793.83,-209.42 791.16,-219.67 799.64,-213.32 793.83,-209.42"/>
</a>
</g>
</g>
<!-- Node16 -->
<g id="Node000016" class="node">
<title>Node16</title>
<g id="a_Node000016"><a xlink:href="../../d7/d03/GeometryUtils_8cpp.html" target="_top" xlink:title="Implémentation des utilitaires géométriques — projection UTM et géométrie pure.">
<polygon fill="white" stroke="#666666" points="1031.51,-184 892.51,-184 892.51,-143 1031.51,-143 1031.51,-184"/>
<text text-anchor="start" x="900.51" y="-172" font-family="Helvetica,sans-Serif" font-size="10.00">SimulateurFerroviaire</text>
<text text-anchor="start" x="900.51" y="-161" font-family="Helvetica,sans-Serif" font-size="10.00">/Modules/GeoParser/Utils</text>
<text text-anchor="middle" x="962.01" y="-150" font-family="Helvetica,sans-Serif" font-size="10.00">/GeometryUtils.cpp</text>
</a>
</g>
</g>
<!-- Node15&#45;&gt;Node16 -->
<g id="edge24_Node000015_Node000016" class="edge">
<title>Node15&#45;&gt;Node16</title>
<g id="a_edge24_Node000015_Node000016"><a xlink:title=" ">
<path fill="none" stroke="#63b8ff" d="M832.94,-216.27C858.7,-205.94 888.7,-193.9 913.29,-184.04"/>
<polygon fill="#63b8ff" stroke="#63b8ff" points="831.63,-213.02 823.66,-219.99 834.24,-219.52 831.63,-213.02"/>
</a>
</g>
</g>
</g>
</svg>
