<?xml version="1.0" encoding="UTF-8" standalone="no"?>
<!DOCTYPE svg PUBLIC "-//W3C//DTD SVG 1.1//EN"
 "http://www.w3.org/Graphics/SVG/1.1/DTD/svg11.dtd">
<!-- Generated by graphviz version 2.43.0 (0)
 -->
<!-- Title: SimulateurFerroviaire/Modules/GeoParser/Utils/GeometryUtils.h Pages: 1 -->
<svg width="944pt" height="126pt"
 viewBox="0.00 0.00 943.50 126.00" xmlns="http://www.w3.org/2000/svg" xmlns:xlink="http://www.w3.org/1999/xlink">
<g id="graph0" class="graph" transform="scale(1 1) rotate(0) translate(4 122)">
<title>SimulateurFerroviaire/Modules/GeoParser/Utils/GeometryUtils.h</title>
<!-- Node1 -->
<g id="Node000001" class="node">
<title>Node1</title>
<g id="a_Node000001"><a xlink:title="Utilitaires géométriques métriques pour le pipeline ferroviaire.">
<polygon fill="#999999" stroke="#666666" points="560.5,-118 421.5,-118 421.5,-77 560.5,-77 560.5,-118"/>
<text text-anchor="start" x="429.5" y="-106" font-family="Helvetica,sans-Serif" font-size="10.00">SimulateurFerroviaire</text>
<text text-anchor="start" x="429.5" y="-95" font-family="Helvetica,sans-Serif" font-size="10.00">/Modules/GeoParser/Utils</text>
<text text-anchor="middle" x="491" y="-84" font-family="Helvetica,sans-Serif" font-size="10.00">/GeometryUtils.h</text>
</a>
</g>
</g>
<!-- Node2 -->
<g id="Node000002" class="node">
<title>Node2</title>
<g id="a_Node000002"><a xlink:href="../../d5/d01/TopologyGraph_8cpp.html" target="_top" xlink:title="Implémentation du graphe planaire de topologie ferroviaire.">
<polygon fill="white" stroke="#666666" points="146,-41 0,-41 0,0 146,0 146,-41"/>
<text text-anchor="start" x="8" y="-29" font-family="Helvetica,sans-Serif" font-size="10.00">SimulateurFerroviaire</text>
<text text-anchor="start" x="8" y="-18" font-family="Helvetica,sans-Serif" font-size="10.00">/Modules/GeoParser/Graph</text>
<text text-anchor="middle" x="73" y="-7" font-family="Helvetica,sans-Serif" font-size="10.00">/TopologyGraph.cpp</text>
</a>
</g>
</g>
<!-- Node1&#45;&gt;Node2 -->
<g id="edge1_Node000001_Node000002" class="edge">
<title>Node1&#45;&gt;Node2</title>
<g id="a_edge1_Node000001_Node000002"><a xlink:title=" ">
<path fill="none" stroke="#63b8ff" d="M410.99,-84.89C342.74,-74.6 242.11,-58.53 155,-41 152.13,-40.42 149.21,-39.82 146.26,-39.19"/>
<polygon fill="#63b8ff" stroke="#63b8ff" points="410.83,-88.41 421.24,-86.43 411.87,-81.48 410.83,-88.41"/>
</a>
</g>
</g>
<!-- Node3 -->
<g id="Node000003" class="node">
<title>Node3</title>
<g id="a_Node000003"><a xlink:href="../../d7/d03/GraphBuilder_8cpp.html" target="_top" xlink:title="Implémentation des phases 1 et 2 — chargement GeoJSON et construction du graphe.">
<polygon fill="white" stroke="#666666" points="364,-35.5 164,-35.5 164,-5.5 364,-5.5 364,-35.5"/>
<text text-anchor="start" x="172" y="-23.5" font-family="Helvetica,sans-Serif" font-size="10.00">SimulateurFerroviaire</text>
<text text-anchor="middle" x="264" y="-12.5" font-family="Helvetica,sans-Serif" font-size="10.00">/Modules/GeoParser/GraphBuilder.cpp</text>
</a>
</g>
</g>
<!-- Node1&#45;&gt;Node3 -->
<g id="edge2_Node000001_Node000003" class="edge">
<title>Node1&#45;&gt;Node3</title>
<g id="a_edge2_Node000001_Node000003"><a xlink:title=" ">
<path fill="none" stroke="#63b8ff" d="M422.07,-73.73C384.46,-61.3 339.09,-46.31 306.62,-35.58"/>
<polygon fill="#63b8ff" stroke="#63b8ff" points="421.36,-77.18 431.95,-76.99 423.55,-70.53 421.36,-77.18"/>
</a>
</g>
</g>
<!-- Node4 -->
<g id="Node000004" class="node">
<title>Node4</title>
<g id="a_Node000004"><a xlink:href="../../d0/d03/SwitchOrientator_8cpp.html" target="_top" xlink:title="Implémentation des phases 6, 6b, 6c et 6d — orientation des aiguillages.">
<polygon fill="white" stroke="#666666" points="600,-35.5 382,-35.5 382,-5.5 600,-5.5 600,-35.5"/>
<text text-anchor="start" x="390" y="-23.5" font-family="Helvetica,sans-Serif" font-size="10.00">SimulateurFerroviaire</text>
<text text-anchor="middle" x="491" y="-12.5" font-family="Helvetica,sans-Serif" font-size="10.00">/Modules/GeoParser/SwitchOrientator.cpp</text>
</a>
</g>
</g>
<!-- Node1&#45;&gt;Node4 -->
<g id="edge3_Node000001_Node000004" class="edge">
<title>Node1&#45;&gt;Node4</title>
<g id="a_edge3_Node000001_Node000004"><a xlink:title=" ">
<path fill="none" stroke="#63b8ff" d="M491,-66.61C491,-56.01 491,-44.57 491,-35.86"/>
<polygon fill="#63b8ff" stroke="#63b8ff" points="487.5,-66.79 491,-76.79 494.5,-66.79 487.5,-66.79"/>
</a>
</g>
</g>
<!-- Node5 -->
<g id="Node000005" class="node">
<title>Node5</title>
<g id="a_Node000005"><a xlink:href="../../d9/d02/TopologyExtractor_8cpp.html" target="_top" xlink:title="Implémentation des phases 3, 4, 5a et 5b du pipeline GeoParser.">
<polygon fill="white" stroke="#666666" points="778,-41 618,-41 618,0 778,0 778,-41"/>
<text text-anchor="start" x="626" y="-29" font-family="Helvetica,sans-Serif" font-size="10.00">SimulateurFerroviaire</text>
<text text-anchor="start" x="626" y="-18" font-family="Helvetica,sans-Serif" font-size="10.00">/Modules/GeoParser/Topology</text>
<text text-anchor="middle" x="698" y="-7" font-family="Helvetica,sans-Serif" font-size="10.00">Extractor.cpp</text>
</a>
</g>
</g>
<!-- Node1&#45;&gt;Node5 -->
<g id="edge4_Node000001_Node000005" class="edge">
<title>Node1&#45;&gt;Node5</title>
<g id="a_edge4_Node000001_Node000005"><a xlink:title=" ">
<path fill="none" stroke="#63b8ff" d="M554.37,-73.54C583.06,-63.15 616.61,-50.99 644.06,-41.04"/>
<polygon fill="#63b8ff" stroke="#63b8ff" points="553.06,-70.29 544.85,-76.99 555.44,-76.87 553.06,-70.29"/>
</a>
</g>
</g>
<!-- Node6 -->
<g id="Node000006" class="node">
<title>Node6</title>
<g id="a_Node000006"><a xlink:href="../../d7/d03/GeometryUtils_8cpp.html" target="_top" xlink:title="Implémentation des utilitaires géométriques — projection UTM et géométrie pure.">
<polygon fill="white" stroke="#666666" points="935.5,-41 796.5,-41 796.5,0 935.5,0 935.5,-41"/>
<text text-anchor="start" x="804.5" y="-29" font-family="Helvetica,sans-Serif" font-size="10.00">SimulateurFerroviaire</text>
<text text-anchor="start" x="804.5" y="-18" font-family="Helvetica,sans-Serif" font-size="10.00">/Modules/GeoParser/Utils</text>
<text text-anchor="middle" x="866" y="-7" font-family="Helvetica,sans-Serif" font-size="10.00">/GeometryUtils.cpp</text>
</a>
</g>
</g>
<!-- Node1&#45;&gt;Node6 -->
<g id="edge5_Node000001_Node000006" class="edge">
<title>Node1&#45;&gt;Node6</title>
<g id="a_edge5_Node000001_Node000006"><a xlink:title=" ">
<path fill="none" stroke="#63b8ff" d="M570.72,-82.82C630.44,-72.26 714.07,-56.83 787,-41 790.04,-40.34 793.14,-39.65 796.26,-38.94"/>
<polygon fill="#63b8ff" stroke="#63b8ff" points="569.84,-79.42 560.6,-84.6 571.06,-86.31 569.84,-79.42"/>
</a>
</g>
</g>
</g>
</svg>
