<?xml version="1.0" encoding="UTF-8" standalone="no"?>
<!DOCTYPE svg PUBLIC "-//W3C//DTD SVG 1.1//EN"
 "http://www.w3.org/Graphics/SVG/1.1/DTD/svg11.dtd">
<!-- Generated by graphviz version 2.43.0 (0)
 -->
<!-- Title: SimulateurFerroviaire/Modules/PCC/PCCSwitchNode.h Pages: 1 -->
<svg width="848pt" height="357pt"
 viewBox="0.00 0.00 847.50 357.00" xmlns="http://www.w3.org/2000/svg" xmlns:xlink="http://www.w3.org/1999/xlink">
<g id="graph0" class="graph" transform="scale(1 1) rotate(0) translate(4 353)">
<title>SimulateurFerroviaire/Modules/PCC/PCCSwitchNode.h</title>
<!-- Node1 -->
<g id="Node000001" class="node">
<title>Node1</title>
<g id="a_Node000001"><a xlink:title="Nœud PCC représentant un SwitchBlock.">
<polygon fill="#999999" stroke="#666666" points="503.5,-349 330.5,-349 330.5,-319 503.5,-319 503.5,-349"/>
<text text-anchor="start" x="338.5" y="-337" font-family="Helvetica,sans-Serif" font-size="10.00">SimulateurFerroviaire</text>
<text text-anchor="middle" x="417" y="-326" font-family="Helvetica,sans-Serif" font-size="10.00">/Modules/PCC/PCCSwitchNode.h</text>
</a>
</g>
</g>
<!-- Node2 -->
<g id="Node000002" class="node">
<title>Node2</title>
<g id="a_Node000002"><a xlink:href="../../d6/d01/PCCNode_8h.html" target="_top" xlink:title="Nœud abstrait du graphe PCC représentant un bloc ferroviaire.">
<polygon fill="white" stroke="#666666" points="316.5,-277.5 245.5,-277.5 245.5,-258.5 316.5,-258.5 316.5,-277.5"/>
<text text-anchor="middle" x="281" y="-265.5" font-family="Helvetica,sans-Serif" font-size="10.00">PCCNode.h</text>
</a>
</g>
</g>
<!-- Node1&#45;&gt;Node2 -->
<g id="edge1_Node000001_Node000002" class="edge">
<title>Node1&#45;&gt;Node2</title>
<g id="a_edge1_Node000001_Node000002"><a xlink:title=" ">
<path fill="none" stroke="#63b8ff" d="M387.15,-318.95C363.62,-307.88 331.07,-292.56 308.23,-281.82"/>
<polygon fill="#63b8ff" stroke="#63b8ff" points="309.64,-278.61 299.1,-277.52 306.66,-284.94 309.64,-278.61"/>
</a>
</g>
</g>
<!-- Node14 -->
<g id="Node000014" class="node">
<title>Node14</title>
<g id="a_Node000014"><a xlink:href="../../dc/d01/SwitchBlock_8h.html" target="_top" xlink:title="Modèle de domaine d&#39;un aiguillage ferroviaire à 3 branches.">
<polygon fill="white" stroke="#666666" points="669.5,-283 490.5,-283 490.5,-253 669.5,-253 669.5,-283"/>
<text text-anchor="start" x="498.5" y="-271" font-family="Helvetica,sans-Serif" font-size="10.00">Modules/InteractiveElements</text>
<text text-anchor="middle" x="580" y="-260" font-family="Helvetica,sans-Serif" font-size="10.00">/ShuntingElements/SwitchBlock.h</text>
</a>
</g>
</g>
<!-- Node1&#45;&gt;Node14 -->
<g id="edge17_Node000001_Node000014" class="edge">
<title>Node1&#45;&gt;Node14</title>
<g id="a_edge17_Node000001_Node000014"><a xlink:title=" ">
<path fill="none" stroke="#63b8ff" d="M452.77,-318.95C476.87,-309.49 508.85,-296.93 534.73,-286.78"/>
<polygon fill="#63b8ff" stroke="#63b8ff" points="536.28,-289.93 544.31,-283.01 533.73,-283.41 536.28,-289.93"/>
</a>
</g>
</g>
<!-- Node3 -->
<g id="Node000003" class="node">
<title>Node3</title>
<g id="a_Node000003"><a xlink:title=" ">
<polygon fill="#e0e0e0" stroke="#999999" points="364,-19 320,-19 320,0 364,0 364,-19"/>
<text text-anchor="middle" x="342" y="-7" font-family="Helvetica,sans-Serif" font-size="10.00">string</text>
</a>
</g>
</g>
<!-- Node2&#45;&gt;Node3 -->
<g id="edge2_Node000002_Node000003" class="edge">
<title>Node2&#45;&gt;Node3</title>
<g id="a_edge2_Node000002_Node000003"><a xlink:title=" ">
<path fill="none" stroke="#63b8ff" d="M278.67,-258.22C272.97,-235.19 259.76,-171.3 274,-121 284.47,-84.02 311.19,-47.25 327.85,-26.83"/>
<polygon fill="#63b8ff" stroke="#63b8ff" points="330.56,-29.05 334.29,-19.13 325.19,-24.55 330.56,-29.05"/>
</a>
</g>
</g>
<!-- Node4 -->
<g id="Node000004" class="node">
<title>Node4</title>
<g id="a_Node000004"><a xlink:title=" ">
<polygon fill="#e0e0e0" stroke="#999999" points="330.5,-211.5 283.5,-211.5 283.5,-192.5 330.5,-192.5 330.5,-211.5"/>
<text text-anchor="middle" x="307" y="-199.5" font-family="Helvetica,sans-Serif" font-size="10.00">vector</text>
</a>
</g>
</g>
<!-- Node2&#45;&gt;Node4 -->
<g id="edge3_Node000002_Node000004" class="edge">
<title>Node2&#45;&gt;Node4</title>
<g id="a_edge3_Node000002_Node000004"><a xlink:title=" ">
<path fill="none" stroke="#63b8ff" d="M284.51,-258.37C288.32,-248.97 294.54,-233.67 299.47,-221.53"/>
<polygon fill="#63b8ff" stroke="#63b8ff" points="302.86,-222.49 303.38,-211.91 296.38,-219.85 302.86,-222.49"/>
</a>
</g>
</g>
<!-- Node5 -->
<g id="Node000005" class="node">
<title>Node5</title>
<g id="a_Node000005"><a xlink:href="../../d1/d02/PCCEdge_8h.html" target="_top" xlink:title="Connexion orientée entre deux nœuds du graphe PCC.">
<polygon fill="white" stroke="#666666" points="188.5,-145.5 119.5,-145.5 119.5,-126.5 188.5,-126.5 188.5,-145.5"/>
<text text-anchor="middle" x="154" y="-133.5" font-family="Helvetica,sans-Serif" font-size="10.00">PCCEdge.h</text>
</a>
</g>
</g>
<!-- Node2&#45;&gt;Node5 -->
<g id="edge4_Node000002_Node000005" class="edge">
<title>Node2&#45;&gt;Node5</title>
<g id="a_edge4_Node000002_Node000005"><a xlink:title=" ">
<path fill="none" stroke="#63b8ff" d="M262.96,-258.44C246.01,-249.76 220.67,-235.04 203,-217 184.97,-198.6 170.52,-172.4 162.1,-155.06"/>
<polygon fill="#63b8ff" stroke="#63b8ff" points="165.06,-153.14 157.66,-145.56 158.72,-156.1 165.06,-153.14"/>
</a>
</g>
</g>
<!-- Node6 -->
<g id="Node000006" class="node">
<title>Node6</title>
<g id="a_Node000006"><a xlink:href="../../dd/d00/Logger_8h.html" target="_top" xlink:title="Système de journalisation à 5 niveaux de trace, un fichier par moteur.">
<polygon fill="white" stroke="#666666" points="234.5,-85 123.5,-85 123.5,-55 234.5,-55 234.5,-85"/>
<text text-anchor="start" x="131.5" y="-73" font-family="Helvetica,sans-Serif" font-size="10.00">Engine/Core/Logger</text>
<text text-anchor="middle" x="179" y="-62" font-family="Helvetica,sans-Serif" font-size="10.00">/Logger.h</text>
</a>
</g>
</g>
<!-- Node2&#45;&gt;Node6 -->
<g id="edge16_Node000002_Node000006" class="edge">
<title>Node2&#45;&gt;Node6</title>
<g id="a_edge16_Node000002_Node000006"><a xlink:title=" ">
<path fill="none" stroke="#63b8ff" d="M272.84,-258.33C264.13,-248.77 250.34,-232.65 241,-217 228.09,-195.37 201.97,-130.1 188.11,-94.6"/>
<polygon fill="#63b8ff" stroke="#63b8ff" points="191.28,-93.08 184.39,-85.03 184.75,-95.62 191.28,-93.08"/>
</a>
</g>
</g>
<!-- Node12 -->
<g id="Node000012" class="node">
<title>Node12</title>
<g id="a_Node000012"><a xlink:href="../../df/d02/ShuntingElement_8h.html" target="_top" xlink:title="Interface abstraite pour tous les éléments de shuntage ferroviaire.">
<polygon fill="white" stroke="#666666" points="551.5,-217 348.5,-217 348.5,-187 551.5,-187 551.5,-217"/>
<text text-anchor="start" x="356.5" y="-205" font-family="Helvetica,sans-Serif" font-size="10.00">Modules/InteractiveElements</text>
<text text-anchor="middle" x="450" y="-194" font-family="Helvetica,sans-Serif" font-size="10.00">/ShuntingElements/ShuntingElement.h</text>
</a>
</g>
</g>
<!-- Node2&#45;&gt;Node12 -->
<g id="edge12_Node000002_Node000012" class="edge">
<title>Node2&#45;&gt;Node12</title>
<g id="a_edge12_Node000002_Node000012"><a xlink:title=" ">
<path fill="none" stroke="#63b8ff" d="M303.79,-258.37C329.1,-248.78 370.66,-233.05 403.01,-220.8"/>
<polygon fill="#63b8ff" stroke="#63b8ff" points="404.61,-223.93 412.73,-217.12 402.13,-217.38 404.61,-223.93"/>
</a>
</g>
</g>
<!-- Node5&#45;&gt;Node6 -->
<g id="edge5_Node000005_Node000006" class="edge">
<title>Node5&#45;&gt;Node6</title>
<g id="a_edge5_Node000005_Node000006"><a xlink:title=" ">
<path fill="none" stroke="#63b8ff" d="M157.37,-126.37C160.51,-118.32 165.35,-105.94 169.65,-94.93"/>
<polygon fill="#63b8ff" stroke="#63b8ff" points="173.01,-95.95 173.39,-85.36 166.49,-93.4 173.01,-95.95"/>
</a>
</g>
</g>
<!-- Node6&#45;&gt;Node3 -->
<g id="edge11_Node000006_Node000003" class="edge">
<title>Node6&#45;&gt;Node3</title>
<g id="a_edge11_Node000006_Node000003"><a xlink:title=" ">
<path fill="none" stroke="#63b8ff" d="M218.04,-54.99C246.27,-44.86 283.93,-31.34 310.3,-21.88"/>
<polygon fill="#63b8ff" stroke="#63b8ff" points="311.58,-25.14 319.81,-18.46 309.22,-18.55 311.58,-25.14"/>
</a>
</g>
</g>
<!-- Node7 -->
<g id="Node000007" class="node">
<title>Node7</title>
<g id="a_Node000007"><a xlink:title=" ">
<polygon fill="#e0e0e0" stroke="#999999" points="270,-19 226,-19 226,0 270,0 270,-19"/>
<text text-anchor="middle" x="248" y="-7" font-family="Helvetica,sans-Serif" font-size="10.00">ctime</text>
</a>
</g>
</g>
<!-- Node6&#45;&gt;Node7 -->
<g id="edge6_Node000006_Node000007" class="edge">
<title>Node6&#45;&gt;Node7</title>
<g id="a_edge6_Node000006_Node000007"><a xlink:title=" ">
<path fill="none" stroke="#63b8ff" d="M195.7,-54.84C206.03,-46.09 219.28,-34.85 229.86,-25.88"/>
<polygon fill="#63b8ff" stroke="#63b8ff" points="232.3,-28.4 237.66,-19.27 227.77,-23.06 232.3,-28.4"/>
</a>
</g>
</g>
<!-- Node8 -->
<g id="Node000008" class="node">
<title>Node8</title>
<g id="a_Node000008"><a xlink:title=" ">
<polygon fill="#e0e0e0" stroke="#999999" points="68,-19 0,-19 0,0 68,0 68,-19"/>
<text text-anchor="middle" x="34" y="-7" font-family="Helvetica,sans-Serif" font-size="10.00">filesystem</text>
</a>
</g>
</g>
<!-- Node6&#45;&gt;Node8 -->
<g id="edge7_Node000006_Node000008" class="edge">
<title>Node6&#45;&gt;Node8</title>
<g id="a_edge7_Node000006_Node000008"><a xlink:title=" ">
<path fill="none" stroke="#63b8ff" d="M144.27,-54.99C120.08,-45.23 88.1,-32.33 64.81,-22.93"/>
<polygon fill="#63b8ff" stroke="#63b8ff" points="66,-19.63 55.41,-19.14 63.38,-26.13 66,-19.63"/>
</a>
</g>
</g>
<!-- Node9 -->
<g id="Node000009" class="node">
<title>Node9</title>
<g id="a_Node000009"><a xlink:title=" ">
<polygon fill="#e0e0e0" stroke="#999999" points="141.5,-19 86.5,-19 86.5,0 141.5,0 141.5,-19"/>
<text text-anchor="middle" x="114" y="-7" font-family="Helvetica,sans-Serif" font-size="10.00">fstream</text>
</a>
</g>
</g>
<!-- Node6&#45;&gt;Node9 -->
<g id="edge8_Node000006_Node000009" class="edge">
<title>Node6&#45;&gt;Node9</title>
<g id="a_edge8_Node000006_Node000009"><a xlink:title=" ">
<path fill="none" stroke="#63b8ff" d="M163.27,-54.84C153.64,-46.17 141.31,-35.08 131.39,-26.15"/>
<polygon fill="#63b8ff" stroke="#63b8ff" points="133.51,-23.35 123.74,-19.27 128.83,-28.56 133.51,-23.35"/>
</a>
</g>
</g>
<!-- Node10 -->
<g id="Node000010" class="node">
<title>Node10</title>
<g id="a_Node000010"><a xlink:title=" ">
<polygon fill="#e0e0e0" stroke="#999999" points="208,-19 160,-19 160,0 208,0 208,-19"/>
<text text-anchor="middle" x="184" y="-7" font-family="Helvetica,sans-Serif" font-size="10.00">mutex</text>
</a>
</g>
</g>
<!-- Node6&#45;&gt;Node10 -->
<g id="edge9_Node000006_Node000010" class="edge">
<title>Node6&#45;&gt;Node10</title>
<g id="a_edge9_Node000006_Node000010"><a xlink:title=" ">
<path fill="none" stroke="#63b8ff" d="M180.21,-54.84C180.86,-47.21 181.67,-37.7 182.38,-29.45"/>
<polygon fill="#63b8ff" stroke="#63b8ff" points="185.89,-29.53 183.25,-19.27 178.91,-28.93 185.89,-29.53"/>
</a>
</g>
</g>
<!-- Node11 -->
<g id="Node000011" class="node">
<title>Node11</title>
<g id="a_Node000011"><a xlink:title=" ">
<polygon fill="#e0e0e0" stroke="#999999" points="544,-19 488,-19 488,0 544,0 544,-19"/>
<text text-anchor="middle" x="516" y="-7" font-family="Helvetica,sans-Serif" font-size="10.00">sstream</text>
</a>
</g>
</g>
<!-- Node6&#45;&gt;Node11 -->
<g id="edge10_Node000006_Node000011" class="edge">
<title>Node6&#45;&gt;Node11</title>
<g id="a_edge10_Node000006_Node000011"><a xlink:title=" ">
<path fill="none" stroke="#63b8ff" d="M234.65,-59.34C303.25,-47.43 418.05,-27.5 477.58,-17.17"/>
<polygon fill="#63b8ff" stroke="#63b8ff" points="478.43,-20.57 487.68,-15.42 477.23,-13.68 478.43,-20.57"/>
</a>
</g>
</g>
<!-- Node13 -->
<g id="Node000013" class="node">
<title>Node13</title>
<g id="a_Node000013"><a xlink:href="../../d6/d02/InteractiveElement_8h.html" target="_top" xlink:title="Classe de base abstraite pour tous les éléments interactifs ferroviaires.">
<polygon fill="white" stroke="#666666" points="441.5,-151 282.5,-151 282.5,-121 441.5,-121 441.5,-151"/>
<text text-anchor="start" x="290.5" y="-139" font-family="Helvetica,sans-Serif" font-size="10.00">Modules/InteractiveElements</text>
<text text-anchor="middle" x="362" y="-128" font-family="Helvetica,sans-Serif" font-size="10.00">/InteractiveElement.h</text>
</a>
</g>
</g>
<!-- Node12&#45;&gt;Node13 -->
<g id="edge13_Node000012_Node000013" class="edge">
<title>Node12&#45;&gt;Node13</title>
<g id="a_edge13_Node000012_Node000013"><a xlink:title=" ">
<path fill="none" stroke="#63b8ff" d="M430.47,-186.8C418.51,-178.1 403.01,-166.82 389.78,-157.2"/>
<polygon fill="#63b8ff" stroke="#63b8ff" points="391.62,-154.22 381.48,-151.16 387.5,-159.88 391.62,-154.22"/>
</a>
</g>
</g>
<!-- Node13&#45;&gt;Node3 -->
<g id="edge14_Node000013_Node000003" class="edge">
<title>Node13&#45;&gt;Node3</title>
<g id="a_edge14_Node000013_Node000003"><a xlink:title=" ">
<path fill="none" stroke="#63b8ff" d="M359.71,-120.72C356.08,-98.12 349.01,-54.12 344.99,-29.09"/>
<polygon fill="#63b8ff" stroke="#63b8ff" points="348.42,-28.39 343.38,-19.07 341.51,-29.5 348.42,-28.39"/>
</a>
</g>
</g>
<!-- Node13&#45;&gt;Node6 -->
<g id="edge15_Node000013_Node000006" class="edge">
<title>Node13&#45;&gt;Node6</title>
<g id="a_edge15_Node000013_Node000006"><a xlink:title=" ">
<path fill="none" stroke="#63b8ff" d="M321.84,-120.95C294.43,-111.37 257.92,-98.6 228.68,-88.37"/>
<polygon fill="#63b8ff" stroke="#63b8ff" points="229.66,-85.01 219.07,-85.01 227.35,-91.62 229.66,-85.01"/>
</a>
</g>
</g>
<!-- Node14&#45;&gt;Node3 -->
<g id="edge20_Node000014_Node000003" class="edge">
<title>Node14&#45;&gt;Node3</title>
<g id="a_edge20_Node000014_Node000003"><a xlink:title=" ">
<path fill="none" stroke="#63b8ff" d="M579.39,-252.93C578.08,-236.07 573.95,-207.52 561,-187 511.4,-108.37 414.45,-49.08 368.01,-23.85"/>
<polygon fill="#63b8ff" stroke="#63b8ff" points="369.63,-20.74 359.16,-19.12 366.34,-26.92 369.63,-20.74"/>
</a>
</g>
</g>
<!-- Node14&#45;&gt;Node4 -->
<g id="edge21_Node000014_Node000004" class="edge">
<title>Node14&#45;&gt;Node4</title>
<g id="a_edge21_Node000014_Node000004"><a xlink:title=" ">
<path fill="none" stroke="#63b8ff" d="M492.3,-252.99C446.38,-244.59 389.55,-232.51 340,-217 338.37,-216.49 336.7,-215.93 335.04,-215.33"/>
<polygon fill="#63b8ff" stroke="#63b8ff" points="336.2,-212.02 325.61,-211.64 333.65,-218.54 336.2,-212.02"/>
</a>
</g>
</g>
<!-- Node14&#45;&gt;Node11 -->
<g id="edge19_Node000014_Node000011" class="edge">
<title>Node14&#45;&gt;Node11</title>
<g id="a_edge19_Node000014_Node000011"><a xlink:title=" ">
<path fill="none" stroke="#63b8ff" d="M585.97,-252.9C600.15,-217 631.98,-120.39 594,-55 585.18,-39.82 569.03,-29.38 553.69,-22.45"/>
<polygon fill="#63b8ff" stroke="#63b8ff" points="554.91,-19.17 544.33,-18.58 552.23,-25.64 554.91,-19.17"/>
</a>
</g>
</g>
<!-- Node14&#45;&gt;Node12 -->
<g id="edge23_Node000014_Node000012" class="edge">
<title>Node14&#45;&gt;Node12</title>
<g id="a_edge23_Node000014_Node000012"><a xlink:title=" ">
<path fill="none" stroke="#63b8ff" d="M551.47,-252.95C532.67,-243.7 507.86,-231.49 487.48,-221.45"/>
<polygon fill="#63b8ff" stroke="#63b8ff" points="488.98,-218.29 478.46,-217.01 485.89,-224.57 488.98,-218.29"/>
</a>
</g>
</g>
<!-- Node15 -->
<g id="Node000015" class="node">
<title>Node15</title>
<g id="a_Node000015"><a xlink:title=" ">
<polygon fill="#e0e0e0" stroke="#999999" points="702,-211.5 646,-211.5 646,-192.5 702,-192.5 702,-211.5"/>
<text text-anchor="middle" x="674" y="-199.5" font-family="Helvetica,sans-Serif" font-size="10.00">optional</text>
</a>
</g>
</g>
<!-- Node14&#45;&gt;Node15 -->
<g id="edge18_Node000014_Node000015" class="edge">
<title>Node14&#45;&gt;Node15</title>
<g id="a_edge18_Node000014_Node000015"><a xlink:title=" ">
<path fill="none" stroke="#63b8ff" d="M600.86,-252.8C616.32,-242.27 637.32,-227.97 652.85,-217.4"/>
<polygon fill="#63b8ff" stroke="#63b8ff" points="654.99,-220.18 661.28,-211.66 651.05,-214.39 654.99,-220.18"/>
</a>
</g>
</g>
<!-- Node16 -->
<g id="Node000016" class="node">
<title>Node16</title>
<g id="a_Node000016"><a xlink:href="../../df/d02/LatLon_8h.html" target="_top" xlink:title="Représentation d&#39;une coordonnée géographique WGS&#45;84 (latitude, longitude).">
<polygon fill="white" stroke="#666666" points="839.5,-217 720.5,-217 720.5,-187 839.5,-187 839.5,-217"/>
<text text-anchor="start" x="728.5" y="-205" font-family="Helvetica,sans-Serif" font-size="10.00">Modules/Coordinates</text>
<text text-anchor="middle" x="780" y="-194" font-family="Helvetica,sans-Serif" font-size="10.00">/LatLon.h</text>
</a>
</g>
</g>
<!-- Node14&#45;&gt;Node16 -->
<g id="edge22_Node000014_Node000016" class="edge">
<title>Node14&#45;&gt;Node16</title>
<g id="a_edge22_Node000014_Node000016"><a xlink:title=" ">
<path fill="none" stroke="#63b8ff" d="M623.89,-252.95C654.11,-243.28 694.44,-230.38 726.54,-220.11"/>
<polygon fill="#63b8ff" stroke="#63b8ff" points="727.75,-223.39 736.21,-217.01 725.62,-216.73 727.75,-223.39"/>
</a>
</g>
</g>
</g>
</svg>
