<?xml version="1.0" encoding="UTF-8" standalone="no"?>
<!DOCTYPE svg PUBLIC "-//W3C//DTD SVG 1.1//EN"
 "http://www.w3.org/Graphics/SVG/1.1/DTD/svg11.dtd">
<!-- Generated by graphviz version 2.43.0 (0)
 -->
<!-- Title: SwitchBlock::SwitchBranches Pages: 1 -->
<svg width="385pt" height="1224pt"
 viewBox="0.00 0.00 384.50 1224.00" xmlns="http://www.w3.org/2000/svg" xmlns:xlink="http://www.w3.org/1999/xlink">
<g id="graph0" class="graph" transform="scale(1 1) rotate(0) translate(4 1220)">
<title>SwitchBlock::SwitchBranches</title>
<!-- Node1 -->
<g id="Node000001" class="node">
<title>Node1</title>
<g id="a_Node000001"><a xlink:title="Branches topologiques résolues (pointeurs non&#45;propriétaires).">
<polygon fill="#999999" stroke="transparent" points="376.5,-49 223.5,-49 223.5,0 376.5,0 376.5,-49"/>
<text text-anchor="start" x="229" y="-36.5" font-family="Helvetica,sans-Serif" font-size="10.00">SwitchBlock::SwitchBranches</text>
<text text-anchor="start" x="298.5" y="-21.5" font-family="Helvetica,sans-Serif" font-size="10.00"> </text>
<text text-anchor="start" x="298.5" y="-6.5" font-family="Helvetica,sans-Serif" font-size="10.00"> </text>
<polygon fill="#666666" stroke="#666666" points="224,-31.5 224,-31.5 377,-31.5 377,-31.5 224,-31.5"/>
<polygon fill="#666666" stroke="#666666" points="224,-16.5 224,-16.5 377,-16.5 377,-16.5 224,-16.5"/>
<polygon fill="none" stroke="#666666" points="223.5,0 223.5,-49 376.5,-49 376.5,0 223.5,0"/>
</a>
</g>
</g>
<!-- Node2 -->
<g id="Node000002" class="node">
<title>Node2</title>
<g id="a_Node000002"><a xlink:href="../../d2/d00/classShuntingElement.html" target="_top" xlink:title="Interface abstraite pour tous les éléments de shuntage ferroviaire.">
<polygon fill="white" stroke="transparent" points="360.5,-272 239.5,-272 239.5,-118 360.5,-118 360.5,-272"/>
<text text-anchor="start" x="258.5" y="-260" font-family="Helvetica,sans-Serif" font-size="10.00">ShuntingElement</text>
<text text-anchor="start" x="244" y="-245" font-family="Helvetica,sans-Serif" font-size="10.00">#</text>
<text text-anchor="start" x="257" y="-245" font-family="Helvetica,sans-Serif" font-size="10.00">m_state</text>
<text text-anchor="start" x="244" y="-230" font-family="Helvetica,sans-Serif" font-size="10.00">+</text>
<text text-anchor="start" x="257" y="-230" font-family="Helvetica,sans-Serif" font-size="10.00">ShuntingElement()</text>
<text text-anchor="start" x="244" y="-215" font-family="Helvetica,sans-Serif" font-size="10.00">+</text>
<text text-anchor="start" x="257" y="-215" font-family="Helvetica,sans-Serif" font-size="10.00">~ShuntingElement()</text>
<text text-anchor="start" x="244" y="-200" font-family="Helvetica,sans-Serif" font-size="10.00">+</text>
<text text-anchor="start" x="257" y="-200" font-family="Helvetica,sans-Serif" font-size="10.00">ShuntingElement()</text>
<text text-anchor="start" x="244" y="-185" font-family="Helvetica,sans-Serif" font-size="10.00">+</text>
<text text-anchor="start" x="257" y="-185" font-family="Helvetica,sans-Serif" font-size="10.00">operator=()</text>
<text text-anchor="start" x="244" y="-170" font-family="Helvetica,sans-Serif" font-size="10.00">+</text>
<text text-anchor="start" x="257" y="-170" font-family="Helvetica,sans-Serif" font-size="10.00">getState()</text>
<text text-anchor="start" x="244" y="-155" font-family="Helvetica,sans-Serif" font-size="10.00">+</text>
<text text-anchor="start" x="257" y="-155" font-family="Helvetica,sans-Serif" font-size="10.00">isFree()</text>
<text text-anchor="start" x="244" y="-140" font-family="Helvetica,sans-Serif" font-size="10.00">+</text>
<text text-anchor="start" x="257" y="-140" font-family="Helvetica,sans-Serif" font-size="10.00">isOccupied()</text>
<text text-anchor="start" x="244" y="-125" font-family="Helvetica,sans-Serif" font-size="10.00">+</text>
<text text-anchor="start" x="257" y="-125" font-family="Helvetica,sans-Serif" font-size="10.00">isInactive()</text>
<polygon fill="#666666" stroke="#666666" points="240,-255 240,-255 361,-255 361,-255 240,-255"/>
<polygon fill="#666666" stroke="#666666" points="240,-240 240,-240 255,-240 255,-240 240,-240"/>
<polygon fill="#666666" stroke="#666666" points="255,-240 255,-240 361,-240 361,-240 255,-240"/>
<polygon fill="none" stroke="#666666" points="239.5,-118 239.5,-272 360.5,-272 360.5,-118 239.5,-118"/>
</a>
</g>
</g>
<!-- Node2&#45;&gt;Node1 -->
<g id="edge1_Node000001_Node000002" class="edge">
<title>Node2&#45;&gt;Node1</title>
<g id="a_edge1_Node000001_Node000002"><a xlink:title=" ">
<path fill="none" stroke="#63b8ff" d="M300,-117.64C300,-98.12 300,-78.04 300,-61.63"/>
<polygon fill="none" stroke="#63b8ff" points="300,-61.33 296,-55.33 300,-49.33 304,-55.33 300,-61.33"/>
</a>
</g>
<text text-anchor="middle" x="329" y="-92" font-family="Helvetica,sans-Serif" font-size="10.00" fill="grey"> +deviation</text>
<text text-anchor="middle" x="329" y="-81" font-family="Helvetica,sans-Serif" font-size="10.00" fill="grey">+normal</text>
<text text-anchor="middle" x="329" y="-70" font-family="Helvetica,sans-Serif" font-size="10.00" fill="grey">+root</text>
</g>
<!-- Node3 -->
<g id="Node000003" class="node">
<title>Node3</title>
<g id="a_Node000003"><a xlink:href="../../d5/d00/classElement.html" target="_top" xlink:title="Classe de base abstraite pour tous les éléments interactifs ferroviaires.">
<polygon fill="white" stroke="transparent" points="339.5,-463 260.5,-463 260.5,-309 339.5,-309 339.5,-463"/>
<text text-anchor="start" x="280" y="-451" font-family="Helvetica,sans-Serif" font-size="10.00">Element</text>
<text text-anchor="start" x="298.5" y="-436" font-family="Helvetica,sans-Serif" font-size="10.00"> </text>
<text text-anchor="start" x="265" y="-421" font-family="Helvetica,sans-Serif" font-size="10.00">+</text>
<text text-anchor="start" x="278" y="-421" font-family="Helvetica,sans-Serif" font-size="10.00">Element()</text>
<text text-anchor="start" x="265" y="-406" font-family="Helvetica,sans-Serif" font-size="10.00">+</text>
<text text-anchor="start" x="278" y="-406" font-family="Helvetica,sans-Serif" font-size="10.00">~Element()</text>
<text text-anchor="start" x="265" y="-391" font-family="Helvetica,sans-Serif" font-size="10.00">+</text>
<text text-anchor="start" x="278" y="-391" font-family="Helvetica,sans-Serif" font-size="10.00">Element()</text>
<text text-anchor="start" x="265" y="-376" font-family="Helvetica,sans-Serif" font-size="10.00">+</text>
<text text-anchor="start" x="278" y="-376" font-family="Helvetica,sans-Serif" font-size="10.00">operator=()</text>
<text text-anchor="start" x="265" y="-361" font-family="Helvetica,sans-Serif" font-size="10.00">+</text>
<text text-anchor="start" x="278" y="-361" font-family="Helvetica,sans-Serif" font-size="10.00">Element()</text>
<text text-anchor="start" x="265" y="-346" font-family="Helvetica,sans-Serif" font-size="10.00">+</text>
<text text-anchor="start" x="278" y="-346" font-family="Helvetica,sans-Serif" font-size="10.00">operator=()</text>
<text text-anchor="start" x="265" y="-331" font-family="Helvetica,sans-Serif" font-size="10.00">+</text>
<text text-anchor="start" x="278" y="-331" font-family="Helvetica,sans-Serif" font-size="10.00">getId()</text>
<text text-anchor="start" x="265" y="-316" font-family="Helvetica,sans-Serif" font-size="10.00">+</text>
<text text-anchor="start" x="278" y="-316" font-family="Helvetica,sans-Serif" font-size="10.00">getType()</text>
<polygon fill="#666666" stroke="#666666" points="261,-446 261,-446 340,-446 340,-446 261,-446"/>
<polygon fill="#666666" stroke="#666666" points="261,-431 261,-431 340,-431 340,-431 261,-431"/>
<polygon fill="none" stroke="#666666" points="260.5,-309 260.5,-463 339.5,-463 339.5,-309 260.5,-309"/>
</a>
</g>
</g>
<!-- Node3&#45;&gt;Node2 -->
<g id="edge2_Node000002_Node000003" class="edge">
<title>Node3&#45;&gt;Node2</title>
<g id="a_edge2_Node000002_Node000003"><a xlink:title=" ">
<path fill="none" stroke="#63b8ff" d="M300,-298.94C300,-290.02 300,-281.01 300,-272.21"/>
<polygon fill="none" stroke="#63b8ff" points="296.5,-298.94 300,-308.94 303.5,-298.94 296.5,-298.94"/>
</a>
</g>
</g>
<!-- Node4 -->
<g id="Node000004" class="node">
<title>Node4</title>
<g id="a_Node000004"><a xlink:title=" ">
<polygon fill="white" stroke="transparent" points="333.5,-850 274.5,-850 274.5,-801 333.5,-801 333.5,-850"/>
<text text-anchor="start" x="280" y="-837.5" font-family="Helvetica,sans-Serif" font-size="10.00">std::string</text>
<text text-anchor="start" x="302.5" y="-822.5" font-family="Helvetica,sans-Serif" font-size="10.00"> </text>
<text text-anchor="start" x="302.5" y="-807.5" font-family="Helvetica,sans-Serif" font-size="10.00"> </text>
<polygon fill="#666666" stroke="#666666" points="275,-832.5 275,-832.5 334,-832.5 334,-832.5 275,-832.5"/>
<polygon fill="#666666" stroke="#666666" points="275,-817.5 275,-817.5 334,-817.5 334,-817.5 275,-817.5"/>
<polygon fill="none" stroke="#666666" points="274.5,-801 274.5,-850 333.5,-850 333.5,-801 274.5,-801"/>
</a>
</g>
</g>
<!-- Node4&#45;&gt;Node3 -->
<g id="edge3_Node000003_Node000004" class="edge">
<title>Node4&#45;&gt;Node3</title>
<g id="a_edge3_Node000003_Node000004"><a xlink:title=" ">
<path fill="none" stroke="#63b8ff" d="M327.95,-800.79C332.07,-795.36 335.74,-789.32 338,-783 339.65,-778.4 338.13,-776.89 338,-772 334.44,-642.52 340.38,-609.22 322,-481 321.73,-479.09 321.43,-477.17 321.12,-475.23"/>
<polygon fill="none" stroke="#63b8ff" points="321.09,-475.05 316.11,-469.83 319.02,-463.23 323.99,-468.45 321.09,-475.05"/>
</a>
</g>
<text text-anchor="middle" x="355" y="-629.5" font-family="Helvetica,sans-Serif" font-size="10.00" fill="grey"> #m_id</text>
</g>
<!-- Node6 -->
<g id="Node000006" class="node">
<title>Node6</title>
<g id="a_Node000006"><a xlink:href="../../db/d03/classLogger.html" target="_top" xlink:title="Journaliseur associé à un moteur nommé.">
<polygon fill="white" stroke="transparent" points="270,-754 134,-754 134,-510 270,-510 270,-754"/>
<text text-anchor="start" x="185" y="-742" font-family="Helvetica,sans-Serif" font-size="10.00">Logger</text>
<text text-anchor="start" x="140.5" y="-727" font-family="Helvetica,sans-Serif" font-size="10.00">&#45;</text>
<text text-anchor="start" x="151" y="-727" font-family="Helvetica,sans-Serif" font-size="10.00">m_minimumLevel</text>
<text text-anchor="start" x="138" y="-712" font-family="Helvetica,sans-Serif" font-size="10.00">+</text>
<text text-anchor="start" x="151" y="-712" font-family="Helvetica,sans-Serif" font-size="10.00">Logger()</text>
<text text-anchor="start" x="138" y="-697" font-family="Helvetica,sans-Serif" font-size="10.00">+</text>
<text text-anchor="start" x="151" y="-697" font-family="Helvetica,sans-Serif" font-size="10.00">~Logger()</text>
<text text-anchor="start" x="138" y="-682" font-family="Helvetica,sans-Serif" font-size="10.00">+</text>
<text text-anchor="start" x="151" y="-682" font-family="Helvetica,sans-Serif" font-size="10.00">Logger()</text>
<text text-anchor="start" x="138" y="-667" font-family="Helvetica,sans-Serif" font-size="10.00">+</text>
<text text-anchor="start" x="151" y="-667" font-family="Helvetica,sans-Serif" font-size="10.00">operator=()</text>
<text text-anchor="start" x="138" y="-652" font-family="Helvetica,sans-Serif" font-size="10.00">+</text>
<text text-anchor="start" x="151" y="-652" font-family="Helvetica,sans-Serif" font-size="10.00">writeLog()</text>
<text text-anchor="start" x="138" y="-637" font-family="Helvetica,sans-Serif" font-size="10.00">+</text>
<text text-anchor="start" x="151" y="-637" font-family="Helvetica,sans-Serif" font-size="10.00">setMinimumLogLevel()</text>
<text text-anchor="start" x="138" y="-622" font-family="Helvetica,sans-Serif" font-size="10.00">+</text>
<text text-anchor="start" x="151" y="-622" font-family="Helvetica,sans-Serif" font-size="10.00">getMotorName()</text>
<text text-anchor="start" x="138" y="-607" font-family="Helvetica,sans-Serif" font-size="10.00">+</text>
<text text-anchor="start" x="151" y="-607" font-family="Helvetica,sans-Serif" font-size="10.00">triggerFatalCrash()</text>
<text text-anchor="start" x="140.5" y="-592" font-family="Helvetica,sans-Serif" font-size="10.00">&#45;</text>
<text text-anchor="start" x="151" y="-592" font-family="Helvetica,sans-Serif" font-size="10.00">extractClassName()</text>
<text text-anchor="start" x="140.5" y="-577" font-family="Helvetica,sans-Serif" font-size="10.00">&#45;</text>
<text text-anchor="start" x="151" y="-577" font-family="Helvetica,sans-Serif" font-size="10.00">extractFunctionName()</text>
<text text-anchor="start" x="140.5" y="-562" font-family="Helvetica,sans-Serif" font-size="10.00">&#45;</text>
<text text-anchor="start" x="151" y="-562" font-family="Helvetica,sans-Serif" font-size="10.00">formatLogLine()</text>
<text text-anchor="start" x="140.5" y="-547" font-family="Helvetica,sans-Serif" font-size="10.00">&#45;</text>
<text text-anchor="start" x="151" y="-547" font-family="Helvetica,sans-Serif" font-size="10.00">levelToString()</text>
<text text-anchor="start" x="140.5" y="-532" font-family="Helvetica,sans-Serif" font-size="10.00">&#45;</text>
<text text-anchor="start" x="151" y="-532" font-family="Helvetica,sans-Serif" font-size="10.00">getCurrentTimestamp()</text>
<text text-anchor="start" x="140.5" y="-517" font-family="Helvetica,sans-Serif" font-size="10.00">&#45;</text>
<text text-anchor="start" x="151" y="-517" font-family="Helvetica,sans-Serif" font-size="10.00">sendToDebugOutput()</text>
<polygon fill="#666666" stroke="#666666" points="134,-737 134,-737 270,-737 270,-737 134,-737"/>
<polygon fill="#666666" stroke="#666666" points="134,-722 134,-722 149,-722 149,-722 134,-722"/>
<polygon fill="#666666" stroke="#666666" points="149,-722 149,-722 270,-722 270,-722 149,-722"/>
<polygon fill="none" stroke="#666666" points="134,-510 134,-754 270,-754 270,-510 134,-510"/>
</a>
</g>
</g>
<!-- Node4&#45;&gt;Node6 -->
<g id="edge6_Node000006_Node000004" class="edge">
<title>Node4&#45;&gt;Node6</title>
<g id="a_edge6_Node000006_Node000004"><a xlink:title=" ">
<path fill="none" stroke="#63b8ff" d="M274.38,-802.38C268.02,-796.6 261.79,-790.01 257,-783 253.09,-777.28 249.42,-771.24 245.98,-765.01"/>
<polygon fill="none" stroke="#63b8ff" points="245.97,-765 239.64,-761.54 240.4,-754.36 246.73,-757.83 245.97,-765"/>
</a>
</g>
<text text-anchor="middle" x="297.5" y="-775" font-family="Helvetica,sans-Serif" font-size="10.00" fill="grey"> &#45;m_motorName</text>
</g>
<!-- Node5 -->
<g id="Node000005" class="node">
<title>Node5</title>
<g id="a_Node000005"><a xlink:title=" ">
<polygon fill="white" stroke="transparent" points="353,-947 255,-947 255,-887 353,-887 353,-947"/>
<text text-anchor="start" x="260" y="-935" font-family="Helvetica,sans-Serif" font-size="10.00">std::basic_string&lt;</text>
<text text-anchor="start" x="285.5" y="-924" font-family="Helvetica,sans-Serif" font-size="10.00"> Char &gt;</text>
<text text-anchor="start" x="302" y="-909" font-family="Helvetica,sans-Serif" font-size="10.00"> </text>
<text text-anchor="start" x="302" y="-894" font-family="Helvetica,sans-Serif" font-size="10.00"> </text>
<polygon fill="#666666" stroke="#666666" points="255,-919 255,-919 353,-919 353,-919 255,-919"/>
<polygon fill="#666666" stroke="#666666" points="255,-904 255,-904 353,-904 353,-904 255,-904"/>
<polygon fill="none" stroke="#666666" points="255,-887 255,-947 353,-947 353,-887 255,-887"/>
</a>
</g>
</g>
<!-- Node5&#45;&gt;Node4 -->
<g id="edge4_Node000004_Node000005" class="edge">
<title>Node5&#45;&gt;Node4</title>
<g id="a_edge4_Node000004_Node000005"><a xlink:title=" ">
<path fill="none" stroke="#63b8ff" d="M304,-876.41C304,-867.47 304,-858.25 304,-850.21"/>
<polygon fill="none" stroke="#63b8ff" points="300.5,-876.69 304,-886.69 307.5,-876.69 300.5,-876.69"/>
</a>
</g>
</g>
<!-- Node6&#45;&gt;Node3 -->
<g id="edge5_Node000003_Node000006" class="edge">
<title>Node6&#45;&gt;Node3</title>
<g id="a_edge5_Node000003_Node000006"><a xlink:title=" ">
<path fill="none" stroke="#63b8ff" d="M250.71,-509.71C255.5,-497.78 260.3,-485.84 264.92,-474.35"/>
<polygon fill="none" stroke="#63b8ff" points="264.99,-474.16 263.52,-467.1 269.46,-463.03 270.94,-470.08 264.99,-474.16"/>
</a>
</g>
<text text-anchor="middle" x="289" y="-484" font-family="Helvetica,sans-Serif" font-size="10.00" fill="grey"> #m_logger</text>
</g>
<!-- Node7 -->
<g id="Node000007" class="node">
<title>Node7</title>
<g id="a_Node000007"><a xlink:title=" ">
<polygon fill="white" stroke="transparent" points="99,-850 23,-850 23,-801 99,-801 99,-850"/>
<text text-anchor="start" x="28" y="-837.5" font-family="Helvetica,sans-Serif" font-size="10.00">std::ofstream</text>
<text text-anchor="start" x="59" y="-822.5" font-family="Helvetica,sans-Serif" font-size="10.00"> </text>
<text text-anchor="start" x="59" y="-807.5" font-family="Helvetica,sans-Serif" font-size="10.00"> </text>
<polygon fill="#666666" stroke="#666666" points="23,-832.5 23,-832.5 99,-832.5 99,-832.5 23,-832.5"/>
<polygon fill="#666666" stroke="#666666" points="23,-817.5 23,-817.5 99,-817.5 99,-817.5 23,-817.5"/>
<polygon fill="none" stroke="#666666" points="23,-801 23,-850 99,-850 99,-801 23,-801"/>
</a>
</g>
</g>
<!-- Node7&#45;&gt;Node6 -->
<g id="edge7_Node000006_Node000007" class="edge">
<title>Node7&#45;&gt;Node6</title>
<g id="a_edge7_Node000006_Node000007"><a xlink:title=" ">
<path fill="none" stroke="#63b8ff" d="M67.45,-800.92C70.54,-791.57 74.72,-780.93 80,-772 92.78,-750.38 109.13,-729 125.69,-709.73"/>
<polygon fill="none" stroke="#63b8ff" points="125.91,-709.48 126.85,-702.33 133.82,-700.45 132.87,-707.6 125.91,-709.48"/>
</a>
</g>
<text text-anchor="middle" x="115.5" y="-775" font-family="Helvetica,sans-Serif" font-size="10.00" fill="grey"> &#45;m_outputFile</text>
</g>
<!-- Node8 -->
<g id="Node000008" class="node">
<title>Node8</title>
<g id="a_Node000008"><a xlink:title=" ">
<polygon fill="white" stroke="transparent" points="114.5,-947 7.5,-947 7.5,-887 114.5,-887 114.5,-947"/>
<text text-anchor="start" x="13" y="-935" font-family="Helvetica,sans-Serif" font-size="10.00">std::basic_ofstream</text>
<text text-anchor="start" x="38.5" y="-924" font-family="Helvetica,sans-Serif" font-size="10.00">&lt; Char &gt;</text>
<text text-anchor="start" x="59.5" y="-909" font-family="Helvetica,sans-Serif" font-size="10.00"> </text>
<text text-anchor="start" x="59.5" y="-894" font-family="Helvetica,sans-Serif" font-size="10.00"> </text>
<polygon fill="#666666" stroke="#666666" points="8,-919 8,-919 115,-919 115,-919 8,-919"/>
<polygon fill="#666666" stroke="#666666" points="8,-904 8,-904 115,-904 115,-904 8,-904"/>
<polygon fill="none" stroke="#666666" points="7.5,-887 7.5,-947 114.5,-947 114.5,-887 7.5,-887"/>
</a>
</g>
</g>
<!-- Node8&#45;&gt;Node7 -->
<g id="edge8_Node000007_Node000008" class="edge">
<title>Node8&#45;&gt;Node7</title>
<g id="a_edge8_Node000007_Node000008"><a xlink:title=" ">
<path fill="none" stroke="#63b8ff" d="M61,-876.41C61,-867.47 61,-858.25 61,-850.21"/>
<polygon fill="none" stroke="#63b8ff" points="57.5,-876.69 61,-886.69 64.5,-876.69 57.5,-876.69"/>
</a>
</g>
</g>
<!-- Node9 -->
<g id="Node000009" class="node">
<title>Node9</title>
<g id="a_Node000009"><a xlink:title=" ">
<polygon fill="white" stroke="transparent" points="112.5,-1044 9.5,-1044 9.5,-984 112.5,-984 112.5,-1044"/>
<text text-anchor="start" x="15" y="-1032" font-family="Helvetica,sans-Serif" font-size="10.00">std::basic_ostream</text>
<text text-anchor="start" x="38.5" y="-1021" font-family="Helvetica,sans-Serif" font-size="10.00">&lt; Char &gt;</text>
<text text-anchor="start" x="59.5" y="-1006" font-family="Helvetica,sans-Serif" font-size="10.00"> </text>
<text text-anchor="start" x="59.5" y="-991" font-family="Helvetica,sans-Serif" font-size="10.00"> </text>
<polygon fill="#666666" stroke="#666666" points="10,-1016 10,-1016 113,-1016 113,-1016 10,-1016"/>
<polygon fill="#666666" stroke="#666666" points="10,-1001 10,-1001 113,-1001 113,-1001 10,-1001"/>
<polygon fill="none" stroke="#666666" points="9.5,-984 9.5,-1044 112.5,-1044 112.5,-984 9.5,-984"/>
</a>
</g>
</g>
<!-- Node9&#45;&gt;Node8 -->
<g id="edge9_Node000008_Node000009" class="edge">
<title>Node9&#45;&gt;Node8</title>
<g id="a_edge9_Node000008_Node000009"><a xlink:title=" ">
<path fill="none" stroke="#63b8ff" d="M61,-973.79C61,-964.88 61,-955.57 61,-947.17"/>
<polygon fill="none" stroke="#63b8ff" points="57.5,-973.98 61,-983.98 64.5,-973.98 57.5,-973.98"/>
</a>
</g>
</g>
<!-- Node10 -->
<g id="Node000010" class="node">
<title>Node10</title>
<g id="a_Node000010"><a xlink:title=" ">
<polygon fill="white" stroke="transparent" points="122,-1130 0,-1130 0,-1081 122,-1081 122,-1130"/>
<text text-anchor="start" x="5" y="-1117.5" font-family="Helvetica,sans-Serif" font-size="10.00">std::basic_ios&lt; Char &gt;</text>
<text text-anchor="start" x="59" y="-1102.5" font-family="Helvetica,sans-Serif" font-size="10.00"> </text>
<text text-anchor="start" x="59" y="-1087.5" font-family="Helvetica,sans-Serif" font-size="10.00"> </text>
<polygon fill="#666666" stroke="#666666" points="0,-1112.5 0,-1112.5 122,-1112.5 122,-1112.5 0,-1112.5"/>
<polygon fill="#666666" stroke="#666666" points="0,-1097.5 0,-1097.5 122,-1097.5 122,-1097.5 0,-1097.5"/>
<polygon fill="none" stroke="#666666" points="0,-1081 0,-1130 122,-1130 122,-1081 0,-1081"/>
</a>
</g>
</g>
<!-- Node10&#45;&gt;Node9 -->
<g id="edge10_Node000009_Node000010" class="edge">
<title>Node10&#45;&gt;Node9</title>
<g id="a_edge10_Node000009_Node000010"><a xlink:title=" ">
<path fill="none" stroke="#63b8ff" d="M61,-1070.7C61,-1061.95 61,-1052.6 61,-1044.12"/>
<polygon fill="none" stroke="#63b8ff" points="57.5,-1070.98 61,-1080.98 64.5,-1070.98 57.5,-1070.98"/>
</a>
</g>
</g>
<!-- Node11 -->
<g id="Node000011" class="node">
<title>Node11</title>
<g id="a_Node000011"><a xlink:title=" ">
<polygon fill="white" stroke="transparent" points="98,-1216 24,-1216 24,-1167 98,-1167 98,-1216"/>
<text text-anchor="start" x="29" y="-1203.5" font-family="Helvetica,sans-Serif" font-size="10.00">std::ios_base</text>
<text text-anchor="start" x="59" y="-1188.5" font-family="Helvetica,sans-Serif" font-size="10.00"> </text>
<text text-anchor="start" x="59" y="-1173.5" font-family="Helvetica,sans-Serif" font-size="10.00"> </text>
<polygon fill="#666666" stroke="#666666" points="24,-1198.5 24,-1198.5 98,-1198.5 98,-1198.5 24,-1198.5"/>
<polygon fill="#666666" stroke="#666666" points="24,-1183.5 24,-1183.5 98,-1183.5 98,-1183.5 24,-1183.5"/>
<polygon fill="none" stroke="#666666" points="24,-1167 24,-1216 98,-1216 98,-1167 24,-1167"/>
</a>
</g>
</g>
<!-- Node11&#45;&gt;Node10 -->
<g id="edge11_Node000010_Node000011" class="edge">
<title>Node11&#45;&gt;Node10</title>
<g id="a_edge11_Node000010_Node000011"><a xlink:title=" ">
<path fill="none" stroke="#63b8ff" d="M61,-1156.57C61,-1147.69 61,-1138.32 61,-1130.12"/>
<polygon fill="none" stroke="#63b8ff" points="57.5,-1156.65 61,-1166.65 64.5,-1156.65 57.5,-1156.65"/>
</a>
</g>
</g>
<!-- Node12 -->
<g id="Node000012" class="node">
<title>Node12</title>
<g id="a_Node000012"><a xlink:title=" ">
<polygon fill="white" stroke="transparent" points="186.5,-850 123.5,-850 123.5,-801 186.5,-801 186.5,-850"/>
<text text-anchor="start" x="129" y="-837.5" font-family="Helvetica,sans-Serif" font-size="10.00">std::mutex</text>
<text text-anchor="start" x="153.5" y="-822.5" font-family="Helvetica,sans-Serif" font-size="10.00"> </text>
<text text-anchor="start" x="153.5" y="-807.5" font-family="Helvetica,sans-Serif" font-size="10.00"> </text>
<polygon fill="#666666" stroke="#666666" points="124,-832.5 124,-832.5 187,-832.5 187,-832.5 124,-832.5"/>
<polygon fill="#666666" stroke="#666666" points="124,-817.5 124,-817.5 187,-817.5 187,-817.5 124,-817.5"/>
<polygon fill="none" stroke="#666666" points="123.5,-801 123.5,-850 186.5,-850 186.5,-801 123.5,-801"/>
</a>
</g>
</g>
<!-- Node12&#45;&gt;Node6 -->
<g id="edge12_Node000006_Node000012" class="edge">
<title>Node12&#45;&gt;Node6</title>
<g id="a_edge12_Node000006_Node000012"><a xlink:title=" ">
<path fill="none" stroke="#63b8ff" d="M153.95,-800.84C153.94,-791.76 154.4,-781.35 156,-772 156.35,-769.98 156.72,-767.94 157.11,-765.9"/>
<polygon fill="none" stroke="#63b8ff" points="157.11,-765.87 154.43,-759.18 159.58,-754.13 162.26,-760.83 157.11,-765.87"/>
</a>
</g>
<text text-anchor="middle" x="195" y="-775" font-family="Helvetica,sans-Serif" font-size="10.00" fill="grey"> &#45;m_writeMutex</text>
</g>
</g>
</svg>
