<?xml version="1.0" encoding="UTF-8" standalone="no"?>
<!DOCTYPE svg PUBLIC "-//W3C//DTD SVG 1.1//EN"
 "http://www.w3.org/Graphics/SVG/1.1/DTD/svg11.dtd">
<!-- Generated by graphviz version 2.43.0 (0)
 -->
<!-- Title: PCCLayout::BFSItem Pages: 1 -->
<svg width="394pt" height="1745pt"
 viewBox="0.00 0.00 394.00 1745.00" xmlns="http://www.w3.org/2000/svg" xmlns:xlink="http://www.w3.org/1999/xlink">
<g id="graph0" class="graph" transform="scale(1 1) rotate(0) translate(4 1741)">
<title>PCCLayout::BFSItem</title>
<!-- Node1 -->
<g id="Node000001" class="node">
<title>Node1</title>
<g id="a_Node000001"><a xlink:title="Contexte BFS d&#39;un nœud en file d&#39;attente.">
<polygon fill="#999999" stroke="transparent" points="172.5,-220 53.5,-220 53.5,-141 172.5,-141 172.5,-220"/>
<text text-anchor="start" x="63.5" y="-207.5" font-family="Helvetica,sans-Serif" font-size="10.00">PCCLayout::BFSItem</text>
<text text-anchor="start" x="58" y="-192.5" font-family="Helvetica,sans-Serif" font-size="10.00">+</text>
<text text-anchor="start" x="71" y="-192.5" font-family="Helvetica,sans-Serif" font-size="10.00">x</text>
<text text-anchor="start" x="58" y="-177.5" font-family="Helvetica,sans-Serif" font-size="10.00">+</text>
<text text-anchor="start" x="71" y="-177.5" font-family="Helvetica,sans-Serif" font-size="10.00">y</text>
<text text-anchor="start" x="58" y="-162.5" font-family="Helvetica,sans-Serif" font-size="10.00">+</text>
<text text-anchor="start" x="71" y="-162.5" font-family="Helvetica,sans-Serif" font-size="10.00">arrivedViaDeviation</text>
<text text-anchor="start" x="111.5" y="-147.5" font-family="Helvetica,sans-Serif" font-size="10.00"> </text>
<polygon fill="#666666" stroke="#666666" points="54,-202.5 54,-202.5 173,-202.5 173,-202.5 54,-202.5"/>
<polygon fill="#666666" stroke="#666666" points="54,-157.5 54,-157.5 69,-157.5 69,-157.5 54,-157.5"/>
<polygon fill="#666666" stroke="#666666" points="69,-157.5 69,-157.5 173,-157.5 173,-157.5 69,-157.5"/>
<polygon fill="none" stroke="#666666" points="53.5,-141 53.5,-220 172.5,-220 172.5,-141 53.5,-141"/>
</a>
</g>
</g>
<!-- Node2 -->
<g id="Node000002" class="node">
<title>Node2</title>
<g id="a_Node000002"><a xlink:href="../../d1/d03/classPCCNode.html" target="_top" xlink:title="Nœud abstrait du graphe PCC.">
<polygon fill="white" stroke="transparent" points="246,-582 152,-582 152,-323 246,-323 246,-582"/>
<text text-anchor="start" x="176" y="-569.5" font-family="Helvetica,sans-Serif" font-size="10.00">PCCNode</text>
<text text-anchor="start" x="158.5" y="-554.5" font-family="Helvetica,sans-Serif" font-size="10.00">&#45;</text>
<text text-anchor="start" x="169" y="-554.5" font-family="Helvetica,sans-Serif" font-size="10.00">m_isCrossover</text>
<text text-anchor="start" x="156" y="-539.5" font-family="Helvetica,sans-Serif" font-size="10.00">+</text>
<text text-anchor="start" x="169" y="-539.5" font-family="Helvetica,sans-Serif" font-size="10.00">PCCNode()</text>
<text text-anchor="start" x="156" y="-524.5" font-family="Helvetica,sans-Serif" font-size="10.00">+</text>
<text text-anchor="start" x="169" y="-524.5" font-family="Helvetica,sans-Serif" font-size="10.00">PCCNode()</text>
<text text-anchor="start" x="156" y="-509.5" font-family="Helvetica,sans-Serif" font-size="10.00">+</text>
<text text-anchor="start" x="169" y="-509.5" font-family="Helvetica,sans-Serif" font-size="10.00">operator=()</text>
<text text-anchor="start" x="156" y="-494.5" font-family="Helvetica,sans-Serif" font-size="10.00">+</text>
<text text-anchor="start" x="169" y="-494.5" font-family="Helvetica,sans-Serif" font-size="10.00">PCCNode()</text>
<text text-anchor="start" x="156" y="-479.5" font-family="Helvetica,sans-Serif" font-size="10.00">+</text>
<text text-anchor="start" x="169" y="-479.5" font-family="Helvetica,sans-Serif" font-size="10.00">operator=()</text>
<text text-anchor="start" x="156" y="-464.5" font-family="Helvetica,sans-Serif" font-size="10.00">+</text>
<text text-anchor="start" x="169" y="-464.5" font-family="Helvetica,sans-Serif" font-size="10.00">~PCCNode()</text>
<text text-anchor="start" x="156" y="-449.5" font-family="Helvetica,sans-Serif" font-size="10.00">+</text>
<text text-anchor="start" x="169" y="-449.5" font-family="Helvetica,sans-Serif" font-size="10.00">getNodeType()</text>
<text text-anchor="start" x="156" y="-434.5" font-family="Helvetica,sans-Serif" font-size="10.00">+</text>
<text text-anchor="start" x="169" y="-434.5" font-family="Helvetica,sans-Serif" font-size="10.00">getSourceId()</text>
<text text-anchor="start" x="156" y="-419.5" font-family="Helvetica,sans-Serif" font-size="10.00">+</text>
<text text-anchor="start" x="169" y="-419.5" font-family="Helvetica,sans-Serif" font-size="10.00">getSource()</text>
<text text-anchor="start" x="156" y="-404.5" font-family="Helvetica,sans-Serif" font-size="10.00">+</text>
<text text-anchor="start" x="169" y="-404.5" font-family="Helvetica,sans-Serif" font-size="10.00">getPosition()</text>
<text text-anchor="start" x="156" y="-389.5" font-family="Helvetica,sans-Serif" font-size="10.00">+</text>
<text text-anchor="start" x="169" y="-389.5" font-family="Helvetica,sans-Serif" font-size="10.00">getEdges()</text>
<text text-anchor="start" x="156" y="-374.5" font-family="Helvetica,sans-Serif" font-size="10.00">+</text>
<text text-anchor="start" x="169" y="-374.5" font-family="Helvetica,sans-Serif" font-size="10.00">setPosition()</text>
<text text-anchor="start" x="156" y="-359.5" font-family="Helvetica,sans-Serif" font-size="10.00">+</text>
<text text-anchor="start" x="169" y="-359.5" font-family="Helvetica,sans-Serif" font-size="10.00">addEdge()</text>
<text text-anchor="start" x="156" y="-344.5" font-family="Helvetica,sans-Serif" font-size="10.00">+</text>
<text text-anchor="start" x="169" y="-344.5" font-family="Helvetica,sans-Serif" font-size="10.00">isCrossover()</text>
<text text-anchor="start" x="156" y="-329.5" font-family="Helvetica,sans-Serif" font-size="10.00">+</text>
<text text-anchor="start" x="169" y="-329.5" font-family="Helvetica,sans-Serif" font-size="10.00">setCrossover()</text>
<polygon fill="#666666" stroke="#666666" points="152,-564.5 152,-564.5 246,-564.5 246,-564.5 152,-564.5"/>
<polygon fill="#666666" stroke="#666666" points="152,-549.5 152,-549.5 167,-549.5 167,-549.5 152,-549.5"/>
<polygon fill="#666666" stroke="#666666" points="167,-549.5 167,-549.5 246,-549.5 246,-549.5 167,-549.5"/>
<polygon fill="none" stroke="#666666" points="152,-323 152,-582 246,-582 246,-323 152,-323"/>
</a>
</g>
</g>
<!-- Node2&#45;&gt;Node1 -->
<g id="edge1_Node000001_Node000002" class="edge">
<title>Node2&#45;&gt;Node1</title>
<g id="a_edge1_Node000001_Node000002"><a xlink:title=" ">
<path fill="none" stroke="#63b8ff" d="M158.01,-322.83C147.71,-290.46 137.24,-257.62 129,-231.74"/>
<polygon fill="none" stroke="#63b8ff" points="128.91,-231.44 123.27,-226.94 125.26,-220.01 130.9,-224.51 128.91,-231.44"/>
</a>
</g>
<text text-anchor="middle" x="168" y="-291.5" font-family="Helvetica,sans-Serif" font-size="10.00" fill="grey"> +node</text>
</g>
<!-- Node16 -->
<g id="Node000016" class="node">
<title>Node16</title>
<g id="a_Node000016"><a xlink:href="../../d2/d03/classPCCEdge.html" target="_top" xlink:title="Connexion orientée entre deux PCCNode du PCCGraph.">
<polygon fill="white" stroke="transparent" points="364.5,-265 283.5,-265 283.5,-96 364.5,-96 364.5,-265"/>
<text text-anchor="start" x="302.5" y="-252.5" font-family="Helvetica,sans-Serif" font-size="10.00">PCCEdge</text>
<text text-anchor="start" x="290.5" y="-237.5" font-family="Helvetica,sans-Serif" font-size="10.00">&#45;</text>
<text text-anchor="start" x="301" y="-237.5" font-family="Helvetica,sans-Serif" font-size="10.00">m_role</text>
<text text-anchor="start" x="288" y="-222.5" font-family="Helvetica,sans-Serif" font-size="10.00">+</text>
<text text-anchor="start" x="301" y="-222.5" font-family="Helvetica,sans-Serif" font-size="10.00">PCCEdge()</text>
<text text-anchor="start" x="288" y="-207.5" font-family="Helvetica,sans-Serif" font-size="10.00">+</text>
<text text-anchor="start" x="301" y="-207.5" font-family="Helvetica,sans-Serif" font-size="10.00">PCCEdge()</text>
<text text-anchor="start" x="288" y="-192.5" font-family="Helvetica,sans-Serif" font-size="10.00">+</text>
<text text-anchor="start" x="301" y="-192.5" font-family="Helvetica,sans-Serif" font-size="10.00">operator=()</text>
<text text-anchor="start" x="288" y="-177.5" font-family="Helvetica,sans-Serif" font-size="10.00">+</text>
<text text-anchor="start" x="301" y="-177.5" font-family="Helvetica,sans-Serif" font-size="10.00">PCCEdge()</text>
<text text-anchor="start" x="288" y="-162.5" font-family="Helvetica,sans-Serif" font-size="10.00">+</text>
<text text-anchor="start" x="301" y="-162.5" font-family="Helvetica,sans-Serif" font-size="10.00">operator=()</text>
<text text-anchor="start" x="288" y="-147.5" font-family="Helvetica,sans-Serif" font-size="10.00">+</text>
<text text-anchor="start" x="301" y="-147.5" font-family="Helvetica,sans-Serif" font-size="10.00">~PCCEdge()</text>
<text text-anchor="start" x="288" y="-132.5" font-family="Helvetica,sans-Serif" font-size="10.00">+</text>
<text text-anchor="start" x="301" y="-132.5" font-family="Helvetica,sans-Serif" font-size="10.00">getFrom()</text>
<text text-anchor="start" x="288" y="-117.5" font-family="Helvetica,sans-Serif" font-size="10.00">+</text>
<text text-anchor="start" x="301" y="-117.5" font-family="Helvetica,sans-Serif" font-size="10.00">getTo()</text>
<text text-anchor="start" x="288" y="-102.5" font-family="Helvetica,sans-Serif" font-size="10.00">+</text>
<text text-anchor="start" x="301" y="-102.5" font-family="Helvetica,sans-Serif" font-size="10.00">getRole()</text>
<polygon fill="#666666" stroke="#666666" points="284,-247.5 284,-247.5 365,-247.5 365,-247.5 284,-247.5"/>
<polygon fill="#666666" stroke="#666666" points="284,-232.5 284,-232.5 299,-232.5 299,-232.5 284,-232.5"/>
<polygon fill="#666666" stroke="#666666" points="299,-232.5 299,-232.5 365,-232.5 365,-232.5 299,-232.5"/>
<polygon fill="none" stroke="#666666" points="283.5,-96 283.5,-265 364.5,-265 364.5,-96 283.5,-96"/>
</a>
</g>
</g>
<!-- Node2&#45;&gt;Node16 -->
<g id="edge18_Node000016_Node000002" class="edge">
<title>Node2&#45;&gt;Node16</title>
<g id="a_edge18_Node000016_Node000002"><a xlink:title=" ">
<path fill="none" stroke="#63b8ff" d="M246.15,-341.91C254.9,-322.21 264.09,-301.94 273,-283 274.66,-279.48 276.36,-275.89 278.1,-272.28"/>
<polygon fill="none" stroke="#63b8ff" points="278.15,-272.17 277.17,-265.03 283.38,-261.37 284.37,-268.52 278.15,-272.17"/>
</a>
</g>
<text text-anchor="middle" x="296" y="-297" font-family="Helvetica,sans-Serif" font-size="10.00" fill="grey"> &#45;m_from</text>
<text text-anchor="middle" x="296" y="-286" font-family="Helvetica,sans-Serif" font-size="10.00" fill="grey">&#45;m_to</text>
</g>
<!-- Node3 -->
<g id="Node000003" class="node">
<title>Node3</title>
<g id="a_Node000003"><a xlink:title=" ">
<polygon fill="white" stroke="transparent" points="91.5,-1371 32.5,-1371 32.5,-1322 91.5,-1322 91.5,-1371"/>
<text text-anchor="start" x="38" y="-1358.5" font-family="Helvetica,sans-Serif" font-size="10.00">std::string</text>
<text text-anchor="start" x="60.5" y="-1343.5" font-family="Helvetica,sans-Serif" font-size="10.00"> </text>
<text text-anchor="start" x="60.5" y="-1328.5" font-family="Helvetica,sans-Serif" font-size="10.00"> </text>
<polygon fill="#666666" stroke="#666666" points="33,-1353.5 33,-1353.5 92,-1353.5 92,-1353.5 33,-1353.5"/>
<polygon fill="#666666" stroke="#666666" points="33,-1338.5 33,-1338.5 92,-1338.5 92,-1338.5 33,-1338.5"/>
<polygon fill="none" stroke="#666666" points="32.5,-1322 32.5,-1371 91.5,-1371 91.5,-1322 32.5,-1322"/>
</a>
</g>
</g>
<!-- Node3&#45;&gt;Node2 -->
<g id="edge2_Node000002_Node000003" class="edge">
<title>Node3&#45;&gt;Node2</title>
<g id="a_edge2_Node000002_Node000003"><a xlink:title=" ">
<path fill="none" stroke="#63b8ff" d="M49,-1321.81C30.82,-1286.41 0,-1217.08 0,-1154 0,-1154 0,-1154 0,-705 0,-612.89 83.1,-534.8 141.9,-491.08"/>
<polygon fill="none" stroke="#63b8ff" points="142.14,-490.9 144.63,-484.14 151.84,-483.84 149.34,-490.6 142.14,-490.9"/>
</a>
</g>
<text text-anchor="middle" x="34" y="-904.5" font-family="Helvetica,sans-Serif" font-size="10.00" fill="grey"> #m_sourceId</text>
</g>
<!-- Node6 -->
<g id="Node000006" class="node">
<title>Node6</title>
<g id="a_Node000006"><a xlink:href="../../d5/d00/classElement.html" target="_top" xlink:title="Classe de base abstraite pour tous les éléments interactifs ferroviaires.">
<polygon fill="white" stroke="transparent" points="165.5,-984 86.5,-984 86.5,-830 165.5,-830 165.5,-984"/>
<text text-anchor="start" x="106" y="-972" font-family="Helvetica,sans-Serif" font-size="10.00">Element</text>
<text text-anchor="start" x="124.5" y="-957" font-family="Helvetica,sans-Serif" font-size="10.00"> </text>
<text text-anchor="start" x="91" y="-942" font-family="Helvetica,sans-Serif" font-size="10.00">+</text>
<text text-anchor="start" x="104" y="-942" font-family="Helvetica,sans-Serif" font-size="10.00">Element()</text>
<text text-anchor="start" x="91" y="-927" font-family="Helvetica,sans-Serif" font-size="10.00">+</text>
<text text-anchor="start" x="104" y="-927" font-family="Helvetica,sans-Serif" font-size="10.00">~Element()</text>
<text text-anchor="start" x="91" y="-912" font-family="Helvetica,sans-Serif" font-size="10.00">+</text>
<text text-anchor="start" x="104" y="-912" font-family="Helvetica,sans-Serif" font-size="10.00">Element()</text>
<text text-anchor="start" x="91" y="-897" font-family="Helvetica,sans-Serif" font-size="10.00">+</text>
<text text-anchor="start" x="104" y="-897" font-family="Helvetica,sans-Serif" font-size="10.00">operator=()</text>
<text text-anchor="start" x="91" y="-882" font-family="Helvetica,sans-Serif" font-size="10.00">+</text>
<text text-anchor="start" x="104" y="-882" font-family="Helvetica,sans-Serif" font-size="10.00">Element()</text>
<text text-anchor="start" x="91" y="-867" font-family="Helvetica,sans-Serif" font-size="10.00">+</text>
<text text-anchor="start" x="104" y="-867" font-family="Helvetica,sans-Serif" font-size="10.00">operator=()</text>
<text text-anchor="start" x="91" y="-852" font-family="Helvetica,sans-Serif" font-size="10.00">+</text>
<text text-anchor="start" x="104" y="-852" font-family="Helvetica,sans-Serif" font-size="10.00">getId()</text>
<text text-anchor="start" x="91" y="-837" font-family="Helvetica,sans-Serif" font-size="10.00">+</text>
<text text-anchor="start" x="104" y="-837" font-family="Helvetica,sans-Serif" font-size="10.00">getType()</text>
<polygon fill="#666666" stroke="#666666" points="87,-967 87,-967 166,-967 166,-967 87,-967"/>
<polygon fill="#666666" stroke="#666666" points="87,-952 87,-952 166,-952 166,-952 87,-952"/>
<polygon fill="none" stroke="#666666" points="86.5,-830 86.5,-984 165.5,-984 165.5,-830 86.5,-830"/>
</a>
</g>
</g>
<!-- Node3&#45;&gt;Node6 -->
<g id="edge6_Node000006_Node000003" class="edge">
<title>Node3&#45;&gt;Node6</title>
<g id="a_edge6_Node000006_Node000003"><a xlink:title=" ">
<path fill="none" stroke="#63b8ff" d="M61.89,-1321.96C62.07,-1269.3 64.8,-1138.17 86,-1031 88.29,-1019.44 91.32,-1007.44 94.69,-995.68"/>
<polygon fill="none" stroke="#63b8ff" points="94.74,-995.52 92.62,-988.63 98.17,-984.02 100.29,-990.91 94.74,-995.52"/>
</a>
</g>
<text text-anchor="middle" x="104" y="-1150.5" font-family="Helvetica,sans-Serif" font-size="10.00" fill="grey"> #m_id</text>
</g>
<!-- Node7 -->
<g id="Node000007" class="node">
<title>Node7</title>
<g id="a_Node000007"><a xlink:href="../../db/d03/classLogger.html" target="_top" xlink:title="Journaliseur associé à un moteur nommé.">
<polygon fill="white" stroke="transparent" points="267,-1275 131,-1275 131,-1031 267,-1031 267,-1275"/>
<text text-anchor="start" x="182" y="-1263" font-family="Helvetica,sans-Serif" font-size="10.00">Logger</text>
<text text-anchor="start" x="137.5" y="-1248" font-family="Helvetica,sans-Serif" font-size="10.00">&#45;</text>
<text text-anchor="start" x="148" y="-1248" font-family="Helvetica,sans-Serif" font-size="10.00">m_minimumLevel</text>
<text text-anchor="start" x="135" y="-1233" font-family="Helvetica,sans-Serif" font-size="10.00">+</text>
<text text-anchor="start" x="148" y="-1233" font-family="Helvetica,sans-Serif" font-size="10.00">Logger()</text>
<text text-anchor="start" x="135" y="-1218" font-family="Helvetica,sans-Serif" font-size="10.00">+</text>
<text text-anchor="start" x="148" y="-1218" font-family="Helvetica,sans-Serif" font-size="10.00">~Logger()</text>
<text text-anchor="start" x="135" y="-1203" font-family="Helvetica,sans-Serif" font-size="10.00">+</text>
<text text-anchor="start" x="148" y="-1203" font-family="Helvetica,sans-Serif" font-size="10.00">Logger()</text>
<text text-anchor="start" x="135" y="-1188" font-family="Helvetica,sans-Serif" font-size="10.00">+</text>
<text text-anchor="start" x="148" y="-1188" font-family="Helvetica,sans-Serif" font-size="10.00">operator=()</text>
<text text-anchor="start" x="135" y="-1173" font-family="Helvetica,sans-Serif" font-size="10.00">+</text>
<text text-anchor="start" x="148" y="-1173" font-family="Helvetica,sans-Serif" font-size="10.00">writeLog()</text>
<text text-anchor="start" x="135" y="-1158" font-family="Helvetica,sans-Serif" font-size="10.00">+</text>
<text text-anchor="start" x="148" y="-1158" font-family="Helvetica,sans-Serif" font-size="10.00">setMinimumLogLevel()</text>
<text text-anchor="start" x="135" y="-1143" font-family="Helvetica,sans-Serif" font-size="10.00">+</text>
<text text-anchor="start" x="148" y="-1143" font-family="Helvetica,sans-Serif" font-size="10.00">getMotorName()</text>
<text text-anchor="start" x="135" y="-1128" font-family="Helvetica,sans-Serif" font-size="10.00">+</text>
<text text-anchor="start" x="148" y="-1128" font-family="Helvetica,sans-Serif" font-size="10.00">triggerFatalCrash()</text>
<text text-anchor="start" x="137.5" y="-1113" font-family="Helvetica,sans-Serif" font-size="10.00">&#45;</text>
<text text-anchor="start" x="148" y="-1113" font-family="Helvetica,sans-Serif" font-size="10.00">extractClassName()</text>
<text text-anchor="start" x="137.5" y="-1098" font-family="Helvetica,sans-Serif" font-size="10.00">&#45;</text>
<text text-anchor="start" x="148" y="-1098" font-family="Helvetica,sans-Serif" font-size="10.00">extractFunctionName()</text>
<text text-anchor="start" x="137.5" y="-1083" font-family="Helvetica,sans-Serif" font-size="10.00">&#45;</text>
<text text-anchor="start" x="148" y="-1083" font-family="Helvetica,sans-Serif" font-size="10.00">formatLogLine()</text>
<text text-anchor="start" x="137.5" y="-1068" font-family="Helvetica,sans-Serif" font-size="10.00">&#45;</text>
<text text-anchor="start" x="148" y="-1068" font-family="Helvetica,sans-Serif" font-size="10.00">levelToString()</text>
<text text-anchor="start" x="137.5" y="-1053" font-family="Helvetica,sans-Serif" font-size="10.00">&#45;</text>
<text text-anchor="start" x="148" y="-1053" font-family="Helvetica,sans-Serif" font-size="10.00">getCurrentTimestamp()</text>
<text text-anchor="start" x="137.5" y="-1038" font-family="Helvetica,sans-Serif" font-size="10.00">&#45;</text>
<text text-anchor="start" x="148" y="-1038" font-family="Helvetica,sans-Serif" font-size="10.00">sendToDebugOutput()</text>
<polygon fill="#666666" stroke="#666666" points="131,-1258 131,-1258 267,-1258 267,-1258 131,-1258"/>
<polygon fill="#666666" stroke="#666666" points="131,-1243 131,-1243 146,-1243 146,-1243 131,-1243"/>
<polygon fill="#666666" stroke="#666666" points="146,-1243 146,-1243 267,-1243 267,-1243 146,-1243"/>
<polygon fill="none" stroke="#666666" points="131,-1031 131,-1275 267,-1275 267,-1031 131,-1031"/>
</a>
</g>
</g>
<!-- Node3&#45;&gt;Node7 -->
<g id="edge8_Node000007_Node000003" class="edge">
<title>Node3&#45;&gt;Node7</title>
<g id="a_edge8_Node000007_Node000003"><a xlink:title=" ">
<path fill="none" stroke="#63b8ff" d="M79.07,-1321.63C90.74,-1305.33 107.09,-1282.48 123.97,-1258.88"/>
<polygon fill="none" stroke="#63b8ff" points="123.99,-1258.85 124.23,-1251.65 130.97,-1249.09 130.73,-1256.3 123.99,-1258.85"/>
</a>
</g>
<text text-anchor="middle" x="139.5" y="-1296" font-family="Helvetica,sans-Serif" font-size="10.00" fill="grey"> &#45;m_motorName</text>
</g>
<!-- Node4 -->
<g id="Node000004" class="node">
<title>Node4</title>
<g id="a_Node000004"><a xlink:title=" ">
<polygon fill="white" stroke="transparent" points="111,-1468 13,-1468 13,-1408 111,-1408 111,-1468"/>
<text text-anchor="start" x="18" y="-1456" font-family="Helvetica,sans-Serif" font-size="10.00">std::basic_string&lt;</text>
<text text-anchor="start" x="43.5" y="-1445" font-family="Helvetica,sans-Serif" font-size="10.00"> Char &gt;</text>
<text text-anchor="start" x="60" y="-1430" font-family="Helvetica,sans-Serif" font-size="10.00"> </text>
<text text-anchor="start" x="60" y="-1415" font-family="Helvetica,sans-Serif" font-size="10.00"> </text>
<polygon fill="#666666" stroke="#666666" points="13,-1440 13,-1440 111,-1440 111,-1440 13,-1440"/>
<polygon fill="#666666" stroke="#666666" points="13,-1425 13,-1425 111,-1425 111,-1425 13,-1425"/>
<polygon fill="none" stroke="#666666" points="13,-1408 13,-1468 111,-1468 111,-1408 13,-1408"/>
</a>
</g>
</g>
<!-- Node4&#45;&gt;Node3 -->
<g id="edge3_Node000003_Node000004" class="edge">
<title>Node4&#45;&gt;Node3</title>
<g id="a_edge3_Node000003_Node000004"><a xlink:title=" ">
<path fill="none" stroke="#63b8ff" d="M62,-1397.41C62,-1388.47 62,-1379.25 62,-1371.21"/>
<polygon fill="none" stroke="#63b8ff" points="58.5,-1397.69 62,-1407.69 65.5,-1397.69 58.5,-1397.69"/>
</a>
</g>
</g>
<!-- Node5 -->
<g id="Node000005" class="node">
<title>Node5</title>
<g id="a_Node000005"><a xlink:href="../../d2/d00/classShuntingElement.html" target="_top" xlink:title="Interface abstraite pour tous les éléments de shuntage ferroviaire.">
<polygon fill="white" stroke="transparent" points="170.5,-783 49.5,-783 49.5,-629 170.5,-629 170.5,-783"/>
<text text-anchor="start" x="68.5" y="-771" font-family="Helvetica,sans-Serif" font-size="10.00">ShuntingElement</text>
<text text-anchor="start" x="54" y="-756" font-family="Helvetica,sans-Serif" font-size="10.00">#</text>
<text text-anchor="start" x="67" y="-756" font-family="Helvetica,sans-Serif" font-size="10.00">m_state</text>
<text text-anchor="start" x="54" y="-741" font-family="Helvetica,sans-Serif" font-size="10.00">+</text>
<text text-anchor="start" x="67" y="-741" font-family="Helvetica,sans-Serif" font-size="10.00">ShuntingElement()</text>
<text text-anchor="start" x="54" y="-726" font-family="Helvetica,sans-Serif" font-size="10.00">+</text>
<text text-anchor="start" x="67" y="-726" font-family="Helvetica,sans-Serif" font-size="10.00">~ShuntingElement()</text>
<text text-anchor="start" x="54" y="-711" font-family="Helvetica,sans-Serif" font-size="10.00">+</text>
<text text-anchor="start" x="67" y="-711" font-family="Helvetica,sans-Serif" font-size="10.00">ShuntingElement()</text>
<text text-anchor="start" x="54" y="-696" font-family="Helvetica,sans-Serif" font-size="10.00">+</text>
<text text-anchor="start" x="67" y="-696" font-family="Helvetica,sans-Serif" font-size="10.00">operator=()</text>
<text text-anchor="start" x="54" y="-681" font-family="Helvetica,sans-Serif" font-size="10.00">+</text>
<text text-anchor="start" x="67" y="-681" font-family="Helvetica,sans-Serif" font-size="10.00">getState()</text>
<text text-anchor="start" x="54" y="-666" font-family="Helvetica,sans-Serif" font-size="10.00">+</text>
<text text-anchor="start" x="67" y="-666" font-family="Helvetica,sans-Serif" font-size="10.00">isFree()</text>
<text text-anchor="start" x="54" y="-651" font-family="Helvetica,sans-Serif" font-size="10.00">+</text>
<text text-anchor="start" x="67" y="-651" font-family="Helvetica,sans-Serif" font-size="10.00">isOccupied()</text>
<text text-anchor="start" x="54" y="-636" font-family="Helvetica,sans-Serif" font-size="10.00">+</text>
<text text-anchor="start" x="67" y="-636" font-family="Helvetica,sans-Serif" font-size="10.00">isInactive()</text>
<polygon fill="#666666" stroke="#666666" points="50,-766 50,-766 171,-766 171,-766 50,-766"/>
<polygon fill="#666666" stroke="#666666" points="50,-751 50,-751 65,-751 65,-751 50,-751"/>
<polygon fill="#666666" stroke="#666666" points="65,-751 65,-751 171,-751 171,-751 65,-751"/>
<polygon fill="none" stroke="#666666" points="49.5,-629 49.5,-783 170.5,-783 170.5,-629 49.5,-629"/>
</a>
</g>
</g>
<!-- Node5&#45;&gt;Node2 -->
<g id="edge4_Node000002_Node000005" class="edge">
<title>Node5&#45;&gt;Node2</title>
<g id="a_edge4_Node000002_Node000005"><a xlink:title=" ">
<path fill="none" stroke="#63b8ff" d="M118.72,-628.93C120.68,-619.09 123.08,-609.23 126,-600 131.49,-582.67 138.8,-564.85 146.67,-547.86"/>
<polygon fill="none" stroke="#63b8ff" points="146.76,-547.68 145.72,-540.54 151.91,-536.84 152.95,-543.98 146.76,-547.68"/>
</a>
</g>
<text text-anchor="middle" x="155.5" y="-603" font-family="Helvetica,sans-Serif" font-size="10.00" fill="grey"> #m_source</text>
</g>
<!-- Node6&#45;&gt;Node5 -->
<g id="edge5_Node000005_Node000006" class="edge">
<title>Node6&#45;&gt;Node5</title>
<g id="a_edge5_Node000005_Node000006"><a xlink:title=" ">
<path fill="none" stroke="#63b8ff" d="M119.06,-819.74C118.08,-807.53 117.08,-795.04 116.11,-783.04"/>
<polygon fill="none" stroke="#63b8ff" points="115.59,-820.23 119.88,-829.91 122.57,-819.67 115.59,-820.23"/>
</a>
</g>
</g>
<!-- Node7&#45;&gt;Node2 -->
<g id="edge20_Node000002_Node000007" class="edge">
<title>Node7&#45;&gt;Node2</title>
<g id="a_edge20_Node000002_Node000007"><a xlink:title=" ">
<path fill="none" stroke="#63b8ff" d="M199,-1030.73C199,-909.24 199,-722.4 199,-594.4"/>
<polygon fill="none" stroke="#63b8ff" points="199,-594.2 195,-588.2 199,-582.2 203,-588.2 199,-594.2"/>
</a>
</g>
<text text-anchor="middle" x="228" y="-804" font-family="Helvetica,sans-Serif" font-size="10.00" fill="grey"> #m_logger</text>
</g>
<!-- Node7&#45;&gt;Node6 -->
<g id="edge7_Node000006_Node000007" class="edge">
<title>Node7&#45;&gt;Node6</title>
<g id="a_edge7_Node000006_Node000007"><a xlink:title=" ">
<path fill="none" stroke="#63b8ff" d="M132.25,-1030.84C130.25,-1024.9 128.48,-1018.93 127,-1013 125.68,-1007.68 124.65,-1002.16 123.87,-996.57"/>
<polygon fill="none" stroke="#63b8ff" points="123.83,-996.17 119.2,-990.63 122.53,-984.24 127.16,-989.77 123.83,-996.17"/>
</a>
</g>
<text text-anchor="middle" x="156" y="-1005" font-family="Helvetica,sans-Serif" font-size="10.00" fill="grey"> #m_logger</text>
</g>
<!-- Node7&#45;&gt;Node16 -->
<g id="edge19_Node000016_Node000007" class="edge">
<title>Node7&#45;&gt;Node16</title>
<g id="a_edge19_Node000016_Node000007"><a xlink:title=" ">
<path fill="none" stroke="#63b8ff" d="M267.18,-1074.79C300.28,-1029.43 333,-969.14 333,-908 333,-908 333,-908 333,-451.5 333,-393.64 330.91,-328.85 328.74,-277.24"/>
<polygon fill="none" stroke="#63b8ff" points="328.74,-277.08 324.48,-271.26 328.22,-265.09 332.48,-270.92 328.74,-277.08"/>
</a>
</g>
<text text-anchor="middle" x="359.5" y="-703.5" font-family="Helvetica,sans-Serif" font-size="10.00" fill="grey"> &#45;m_logger</text>
</g>
<!-- Node8 -->
<g id="Node000008" class="node">
<title>Node8</title>
<g id="a_Node000008"><a xlink:title=" ">
<polygon fill="white" stroke="transparent" points="237,-1371 161,-1371 161,-1322 237,-1322 237,-1371"/>
<text text-anchor="start" x="166" y="-1358.5" font-family="Helvetica,sans-Serif" font-size="10.00">std::ofstream</text>
<text text-anchor="start" x="197" y="-1343.5" font-family="Helvetica,sans-Serif" font-size="10.00"> </text>
<text text-anchor="start" x="197" y="-1328.5" font-family="Helvetica,sans-Serif" font-size="10.00"> </text>
<polygon fill="#666666" stroke="#666666" points="161,-1353.5 161,-1353.5 237,-1353.5 237,-1353.5 161,-1353.5"/>
<polygon fill="#666666" stroke="#666666" points="161,-1338.5 161,-1338.5 237,-1338.5 237,-1338.5 161,-1338.5"/>
<polygon fill="none" stroke="#666666" points="161,-1322 161,-1371 237,-1371 237,-1322 161,-1322"/>
</a>
</g>
</g>
<!-- Node8&#45;&gt;Node7 -->
<g id="edge9_Node000007_Node000008" class="edge">
<title>Node8&#45;&gt;Node7</title>
<g id="a_edge9_Node000007_Node000008"><a xlink:title=" ">
<path fill="none" stroke="#63b8ff" d="M199,-1321.63C199,-1312.04 199,-1300.17 199,-1287.22"/>
<polygon fill="none" stroke="#63b8ff" points="199,-1287.06 195,-1281.06 199,-1275.06 203,-1281.06 199,-1287.06"/>
</a>
</g>
<text text-anchor="middle" x="234.5" y="-1296" font-family="Helvetica,sans-Serif" font-size="10.00" fill="grey"> &#45;m_outputFile</text>
</g>
<!-- Node9 -->
<g id="Node000009" class="node">
<title>Node9</title>
<g id="a_Node000009"><a xlink:title=" ">
<polygon fill="white" stroke="transparent" points="252.5,-1468 145.5,-1468 145.5,-1408 252.5,-1408 252.5,-1468"/>
<text text-anchor="start" x="151" y="-1456" font-family="Helvetica,sans-Serif" font-size="10.00">std::basic_ofstream</text>
<text text-anchor="start" x="176.5" y="-1445" font-family="Helvetica,sans-Serif" font-size="10.00">&lt; Char &gt;</text>
<text text-anchor="start" x="197.5" y="-1430" font-family="Helvetica,sans-Serif" font-size="10.00"> </text>
<text text-anchor="start" x="197.5" y="-1415" font-family="Helvetica,sans-Serif" font-size="10.00"> </text>
<polygon fill="#666666" stroke="#666666" points="146,-1440 146,-1440 253,-1440 253,-1440 146,-1440"/>
<polygon fill="#666666" stroke="#666666" points="146,-1425 146,-1425 253,-1425 253,-1425 146,-1425"/>
<polygon fill="none" stroke="#666666" points="145.5,-1408 145.5,-1468 252.5,-1468 252.5,-1408 145.5,-1408"/>
</a>
</g>
</g>
<!-- Node9&#45;&gt;Node8 -->
<g id="edge10_Node000008_Node000009" class="edge">
<title>Node9&#45;&gt;Node8</title>
<g id="a_edge10_Node000008_Node000009"><a xlink:title=" ">
<path fill="none" stroke="#63b8ff" d="M199,-1397.41C199,-1388.47 199,-1379.25 199,-1371.21"/>
<polygon fill="none" stroke="#63b8ff" points="195.5,-1397.69 199,-1407.69 202.5,-1397.69 195.5,-1397.69"/>
</a>
</g>
</g>
<!-- Node10 -->
<g id="Node000010" class="node">
<title>Node10</title>
<g id="a_Node000010"><a xlink:title=" ">
<polygon fill="white" stroke="transparent" points="250.5,-1565 147.5,-1565 147.5,-1505 250.5,-1505 250.5,-1565"/>
<text text-anchor="start" x="153" y="-1553" font-family="Helvetica,sans-Serif" font-size="10.00">std::basic_ostream</text>
<text text-anchor="start" x="176.5" y="-1542" font-family="Helvetica,sans-Serif" font-size="10.00">&lt; Char &gt;</text>
<text text-anchor="start" x="197.5" y="-1527" font-family="Helvetica,sans-Serif" font-size="10.00"> </text>
<text text-anchor="start" x="197.5" y="-1512" font-family="Helvetica,sans-Serif" font-size="10.00"> </text>
<polygon fill="#666666" stroke="#666666" points="148,-1537 148,-1537 251,-1537 251,-1537 148,-1537"/>
<polygon fill="#666666" stroke="#666666" points="148,-1522 148,-1522 251,-1522 251,-1522 148,-1522"/>
<polygon fill="none" stroke="#666666" points="147.5,-1505 147.5,-1565 250.5,-1565 250.5,-1505 147.5,-1505"/>
</a>
</g>
</g>
<!-- Node10&#45;&gt;Node9 -->
<g id="edge11_Node000009_Node000010" class="edge">
<title>Node10&#45;&gt;Node9</title>
<g id="a_edge11_Node000009_Node000010"><a xlink:title=" ">
<path fill="none" stroke="#63b8ff" d="M199,-1494.79C199,-1485.88 199,-1476.57 199,-1468.17"/>
<polygon fill="none" stroke="#63b8ff" points="195.5,-1494.98 199,-1504.98 202.5,-1494.98 195.5,-1494.98"/>
</a>
</g>
</g>
<!-- Node11 -->
<g id="Node000011" class="node">
<title>Node11</title>
<g id="a_Node000011"><a xlink:title=" ">
<polygon fill="white" stroke="transparent" points="260,-1651 138,-1651 138,-1602 260,-1602 260,-1651"/>
<text text-anchor="start" x="143" y="-1638.5" font-family="Helvetica,sans-Serif" font-size="10.00">std::basic_ios&lt; Char &gt;</text>
<text text-anchor="start" x="197" y="-1623.5" font-family="Helvetica,sans-Serif" font-size="10.00"> </text>
<text text-anchor="start" x="197" y="-1608.5" font-family="Helvetica,sans-Serif" font-size="10.00"> </text>
<polygon fill="#666666" stroke="#666666" points="138,-1633.5 138,-1633.5 260,-1633.5 260,-1633.5 138,-1633.5"/>
<polygon fill="#666666" stroke="#666666" points="138,-1618.5 138,-1618.5 260,-1618.5 260,-1618.5 138,-1618.5"/>
<polygon fill="none" stroke="#666666" points="138,-1602 138,-1651 260,-1651 260,-1602 138,-1602"/>
</a>
</g>
</g>
<!-- Node11&#45;&gt;Node10 -->
<g id="edge12_Node000010_Node000011" class="edge">
<title>Node11&#45;&gt;Node10</title>
<g id="a_edge12_Node000010_Node000011"><a xlink:title=" ">
<path fill="none" stroke="#63b8ff" d="M199,-1591.7C199,-1582.95 199,-1573.6 199,-1565.12"/>
<polygon fill="none" stroke="#63b8ff" points="195.5,-1591.98 199,-1601.98 202.5,-1591.98 195.5,-1591.98"/>
</a>
</g>
</g>
<!-- Node12 -->
<g id="Node000012" class="node">
<title>Node12</title>
<g id="a_Node000012"><a xlink:title=" ">
<polygon fill="white" stroke="transparent" points="236,-1737 162,-1737 162,-1688 236,-1688 236,-1737"/>
<text text-anchor="start" x="167" y="-1724.5" font-family="Helvetica,sans-Serif" font-size="10.00">std::ios_base</text>
<text text-anchor="start" x="197" y="-1709.5" font-family="Helvetica,sans-Serif" font-size="10.00"> </text>
<text text-anchor="start" x="197" y="-1694.5" font-family="Helvetica,sans-Serif" font-size="10.00"> </text>
<polygon fill="#666666" stroke="#666666" points="162,-1719.5 162,-1719.5 236,-1719.5 236,-1719.5 162,-1719.5"/>
<polygon fill="#666666" stroke="#666666" points="162,-1704.5 162,-1704.5 236,-1704.5 236,-1704.5 162,-1704.5"/>
<polygon fill="none" stroke="#666666" points="162,-1688 162,-1737 236,-1737 236,-1688 162,-1688"/>
</a>
</g>
</g>
<!-- Node12&#45;&gt;Node11 -->
<g id="edge13_Node000011_Node000012" class="edge">
<title>Node12&#45;&gt;Node11</title>
<g id="a_edge13_Node000011_Node000012"><a xlink:title=" ">
<path fill="none" stroke="#63b8ff" d="M199,-1677.57C199,-1668.69 199,-1659.32 199,-1651.12"/>
<polygon fill="none" stroke="#63b8ff" points="195.5,-1677.65 199,-1687.65 202.5,-1677.65 195.5,-1677.65"/>
</a>
</g>
</g>
<!-- Node13 -->
<g id="Node000013" class="node">
<title>Node13</title>
<g id="a_Node000013"><a xlink:title=" ">
<polygon fill="white" stroke="transparent" points="324.5,-1371 261.5,-1371 261.5,-1322 324.5,-1322 324.5,-1371"/>
<text text-anchor="start" x="267" y="-1358.5" font-family="Helvetica,sans-Serif" font-size="10.00">std::mutex</text>
<text text-anchor="start" x="291.5" y="-1343.5" font-family="Helvetica,sans-Serif" font-size="10.00"> </text>
<text text-anchor="start" x="291.5" y="-1328.5" font-family="Helvetica,sans-Serif" font-size="10.00"> </text>
<polygon fill="#666666" stroke="#666666" points="262,-1353.5 262,-1353.5 325,-1353.5 325,-1353.5 262,-1353.5"/>
<polygon fill="#666666" stroke="#666666" points="262,-1338.5 262,-1338.5 325,-1338.5 325,-1338.5 262,-1338.5"/>
<polygon fill="none" stroke="#666666" points="261.5,-1322 261.5,-1371 324.5,-1371 324.5,-1322 261.5,-1322"/>
</a>
</g>
</g>
<!-- Node13&#45;&gt;Node7 -->
<g id="edge14_Node000007_Node000013" class="edge">
<title>Node13&#45;&gt;Node7</title>
<g id="a_edge14_Node000007_Node000013"><a xlink:title=" ">
<path fill="none" stroke="#63b8ff" d="M283.55,-1321.8C279.8,-1312.72 275.35,-1302.31 271,-1293 269.92,-1290.69 268.82,-1288.37 267.71,-1286.03"/>
<polygon fill="none" stroke="#63b8ff" points="267.61,-1285.82 261.41,-1282.15 262.41,-1275.01 268.62,-1278.68 267.61,-1285.82"/>
</a>
</g>
<text text-anchor="middle" x="314" y="-1296" font-family="Helvetica,sans-Serif" font-size="10.00" fill="grey"> &#45;m_writeMutex</text>
</g>
<!-- Node14 -->
<g id="Node000014" class="node">
<title>Node14</title>
<g id="a_Node000014"><a xlink:href="../../d2/d03/structPCCPosition.html" target="_top" xlink:title="Position logique d&#39;un nœud dans le schéma PCC.">
<polygon fill="white" stroke="transparent" points="296.5,-738 227.5,-738 227.5,-674 296.5,-674 296.5,-738"/>
<text text-anchor="start" x="233" y="-726" font-family="Helvetica,sans-Serif" font-size="10.00">PCCPosition</text>
<text text-anchor="start" x="242" y="-711" font-family="Helvetica,sans-Serif" font-size="10.00">+</text>
<text text-anchor="start" x="265" y="-711" font-family="Helvetica,sans-Serif" font-size="10.00">x</text>
<text text-anchor="start" x="242" y="-696" font-family="Helvetica,sans-Serif" font-size="10.00">+</text>
<text text-anchor="start" x="265" y="-696" font-family="Helvetica,sans-Serif" font-size="10.00">y</text>
<text text-anchor="start" x="260.5" y="-681" font-family="Helvetica,sans-Serif" font-size="10.00"> </text>
<polygon fill="#666666" stroke="#666666" points="228,-721 228,-721 297,-721 297,-721 228,-721"/>
<polygon fill="#666666" stroke="#666666" points="228,-691 228,-691 263,-691 263,-691 228,-691"/>
<polygon fill="#666666" stroke="#666666" points="263,-691 263,-691 297,-691 297,-691 263,-691"/>
<polygon fill="none" stroke="#666666" points="227.5,-674 227.5,-738 296.5,-738 296.5,-674 227.5,-674"/>
</a>
</g>
</g>
<!-- Node14&#45;&gt;Node2 -->
<g id="edge15_Node000002_Node000014" class="edge">
<title>Node14&#45;&gt;Node2</title>
<g id="a_edge15_Node000002_Node000014"><a xlink:title=" ">
<path fill="none" stroke="#63b8ff" d="M254.21,-673.91C249.01,-653.14 241.76,-624.2 234.22,-594.1"/>
<polygon fill="none" stroke="#63b8ff" points="234.12,-593.71 228.78,-588.86 231.21,-582.07 236.55,-586.92 234.12,-593.71"/>
</a>
</g>
<text text-anchor="middle" x="270" y="-603" font-family="Helvetica,sans-Serif" font-size="10.00" fill="grey"> #m_position</text>
</g>
<!-- Node15 -->
<g id="Node000015" class="node">
<title>Node15</title>
<g id="a_Node000015"><a xlink:title=" ">
<polygon fill="white" stroke="transparent" points="293.5,-49 156.5,-49 156.5,0 293.5,0 293.5,-49"/>
<text text-anchor="start" x="162" y="-36.5" font-family="Helvetica,sans-Serif" font-size="10.00">std::vector&lt; PCCEdge * &gt;</text>
<text text-anchor="start" x="223.5" y="-21.5" font-family="Helvetica,sans-Serif" font-size="10.00"> </text>
<text text-anchor="start" x="223.5" y="-6.5" font-family="Helvetica,sans-Serif" font-size="10.00"> </text>
<polygon fill="#666666" stroke="#666666" points="157,-31.5 157,-31.5 294,-31.5 294,-31.5 157,-31.5"/>
<polygon fill="#666666" stroke="#666666" points="157,-16.5 157,-16.5 294,-16.5 294,-16.5 157,-16.5"/>
<polygon fill="none" stroke="#666666" points="156.5,0 156.5,-49 293.5,-49 293.5,0 156.5,0"/>
</a>
</g>
</g>
<!-- Node15&#45;&gt;Node2 -->
<g id="edge16_Node000002_Node000015" class="edge">
<title>Node15&#45;&gt;Node2</title>
<g id="a_edge16_Node000002_Node000015"><a xlink:title=" ">
<path fill="none" stroke="#63b8ff" d="M222.8,-49.31C221.58,-62.97 220.1,-80.44 219,-96 214.01,-166.68 209.47,-245.33 205.99,-310.64"/>
<polygon fill="none" stroke="#63b8ff" points="205.99,-310.7 209.67,-316.9 205.35,-322.68 201.68,-316.48 205.99,-310.7"/>
</a>
</g>
<text text-anchor="middle" x="247" y="-178" font-family="Helvetica,sans-Serif" font-size="10.00" fill="grey"> #m_edges</text>
</g>
<!-- Node16&#45;&gt;Node15 -->
<g id="edge17_Node000015_Node000016" class="edge">
<title>Node16&#45;&gt;Node15</title>
<g id="a_edge17_Node000015_Node000016"><a xlink:title=" ">
<path fill="none" stroke="#63b8ff" d="M283.45,-116.42C270.92,-96.93 257.6,-76.21 246.85,-59.48"/>
<polygon fill="none" stroke="#63b8ff" points="246.67,-59.21 240.06,-56.33 240.18,-49.12 246.79,-52 246.67,-59.21"/>
</a>
</g>
<text text-anchor="middle" x="286" y="-70" font-family="Helvetica,sans-Serif" font-size="10.00" fill="grey"> +elements</text>
</g>
</g>
</svg>
