<?xml version="1.0" encoding="UTF-8" standalone="no"?>
<!DOCTYPE svg PUBLIC "-//W3C//DTD SVG 1.1//EN"
 "http://www.w3.org/Graphics/SVG/1.1/DTD/svg11.dtd">
<!-- Generated by graphviz version 2.43.0 (0)
 -->
<!-- Title: SimulateurFerroviaire/Modules/GeoParser/Pipeline/Phase8_RepositoryTransfer.cpp Pages: 1 -->
<svg width="1309pt" height="533pt"
 viewBox="0.00 0.00 1309.00 533.00" xmlns="http://www.w3.org/2000/svg" xmlns:xlink="http://www.w3.org/1999/xlink">
<g id="graph0" class="graph" transform="scale(1 1) rotate(0) translate(4 529)">
<title>SimulateurFerroviaire/Modules/GeoParser/Pipeline/Phase8_RepositoryTransfer.cpp</title>
<!-- Node1 -->
<g id="Node000001" class="node">
<title>Node1</title>
<g id="a_Node000001"><a xlink:title="Implémentation de la phase 9 — résolution + transfert.">
<polygon fill="#999999" stroke="#666666" points="929.5,-525 758.5,-525 758.5,-484 929.5,-484 929.5,-525"/>
<text text-anchor="start" x="766.5" y="-513" font-family="Helvetica,sans-Serif" font-size="10.00">SimulateurFerroviaire</text>
<text text-anchor="start" x="766.5" y="-502" font-family="Helvetica,sans-Serif" font-size="10.00">/Modules/GeoParser/Pipeline</text>
<text text-anchor="middle" x="844" y="-491" font-family="Helvetica,sans-Serif" font-size="10.00">/Phase8_RepositoryTransfer.cpp</text>
</a>
</g>
</g>
<!-- Node2 -->
<g id="Node000002" class="node">
<title>Node2</title>
<g id="a_Node000002"><a xlink:href="../../d4/d00/Phase8__RepositoryTransfer_8h.html" target="_top" xlink:title="Phase 9 du pipeline — résolution des pointeurs et transfert vers TopologyRepository.">
<polygon fill="white" stroke="#666666" points="564.5,-442.5 407.5,-442.5 407.5,-423.5 564.5,-423.5 564.5,-442.5"/>
<text text-anchor="middle" x="486" y="-430.5" font-family="Helvetica,sans-Serif" font-size="10.00">Phase8_RepositoryTransfer.h</text>
</a>
</g>
</g>
<!-- Node1&#45;&gt;Node2 -->
<g id="edge1_Node000001_Node000002" class="edge">
<title>Node1&#45;&gt;Node2</title>
<g id="a_edge1_Node000001_Node000002"><a xlink:title=" ">
<path fill="none" stroke="#63b8ff" d="M758.25,-486.85C690.54,-473.71 598.12,-455.77 540.27,-444.54"/>
<polygon fill="#63b8ff" stroke="#63b8ff" points="540.72,-441.06 530.24,-442.59 539.39,-447.93 540.72,-441.06"/>
</a>
</g>
</g>
<!-- Node12 -->
<g id="Node000012" class="node">
<title>Node12</title>
<g id="a_Node000012"><a xlink:title=" ">
<polygon fill="#e0e0e0" stroke="#999999" points="704.5,-266.5 611.5,-266.5 611.5,-247.5 704.5,-247.5 704.5,-266.5"/>
<text text-anchor="middle" x="658" y="-254.5" font-family="Helvetica,sans-Serif" font-size="10.00">unordered_map</text>
</a>
</g>
</g>
<!-- Node1&#45;&gt;Node12 -->
<g id="edge70_Node000001_Node000012" class="edge">
<title>Node1&#45;&gt;Node12</title>
<g id="a_edge70_Node000001_Node000012"><a xlink:title=" ">
<path fill="none" stroke="#63b8ff" d="M830.34,-483.86C823.31,-473.42 814.82,-460.24 808,-448 774.54,-387.9 788.24,-358.93 742,-308 727.37,-291.89 706.32,-279.37 688.95,-270.89"/>
<polygon fill="#63b8ff" stroke="#63b8ff" points="690.28,-267.65 679.74,-266.6 687.32,-273.99 690.28,-267.65"/>
</a>
</g>
</g>
<!-- Node21 -->
<g id="Node000021" class="node">
<title>Node21</title>
<g id="a_Node000021"><a xlink:href="../../de/d01/StraightBlock_8h.html" target="_top" xlink:title="Modèle de domaine d&#39;un bloc de voie droite (Straight).">
<polygon fill="white" stroke="#666666" points="875,-272 723,-272 723,-242 875,-242 875,-272"/>
<text text-anchor="start" x="731" y="-260" font-family="Helvetica,sans-Serif" font-size="10.00">Modules/Elements/Shunting</text>
<text text-anchor="middle" x="799" y="-249" font-family="Helvetica,sans-Serif" font-size="10.00">Elements/StraightBlock.h</text>
</a>
</g>
</g>
<!-- Node1&#45;&gt;Node21 -->
<g id="edge68_Node000001_Node000021" class="edge">
<title>Node1&#45;&gt;Node21</title>
<g id="a_edge68_Node000001_Node000021"><a xlink:title=" ">
<path fill="none" stroke="#63b8ff" d="M833.26,-483.77C828.1,-473.42 822.34,-460.34 819,-448 803.31,-389.97 799.81,-318.87 799.11,-282.29"/>
<polygon fill="#63b8ff" stroke="#63b8ff" points="802.6,-282.06 798.97,-272.1 795.6,-282.15 802.6,-282.06"/>
</a>
</g>
</g>
<!-- Node31 -->
<g id="Node000031" class="node">
<title>Node31</title>
<g id="a_Node000031"><a xlink:href="../../dc/d01/SwitchBlock_8h.html" target="_top" xlink:title="Modèle de domaine d&#39;un aiguillage ferroviaire à 3 branches.">
<polygon fill="white" stroke="#666666" points="1197,-272 1045,-272 1045,-242 1197,-242 1197,-272"/>
<text text-anchor="start" x="1053" y="-260" font-family="Helvetica,sans-Serif" font-size="10.00">Modules/Elements/Shunting</text>
<text text-anchor="middle" x="1121" y="-249" font-family="Helvetica,sans-Serif" font-size="10.00">Elements/SwitchBlock.h</text>
</a>
</g>
</g>
<!-- Node1&#45;&gt;Node31 -->
<g id="edge69_Node000001_Node000031" class="edge">
<title>Node1&#45;&gt;Node31</title>
<g id="a_edge69_Node000001_Node000031"><a xlink:title=" ">
<path fill="none" stroke="#63b8ff" d="M909.59,-483.98C932.35,-475.25 957.12,-463.39 977,-448 1038.4,-400.47 1087.14,-320.57 1108.8,-281.26"/>
<polygon fill="#63b8ff" stroke="#63b8ff" points="1112.03,-282.65 1113.72,-272.19 1105.88,-279.31 1112.03,-282.65"/>
</a>
</g>
</g>
<!-- Node33 -->
<g id="Node000033" class="node">
<title>Node33</title>
<g id="a_Node000033"><a xlink:href="../../de/d00/TopologyRepository_8h.html" target="_top" xlink:title="Singleton de stockage des données topologiques ferroviaires.">
<polygon fill="white" stroke="#666666" points="950.5,-448 827.5,-448 827.5,-418 950.5,-418 950.5,-448"/>
<text text-anchor="start" x="835.5" y="-436" font-family="Helvetica,sans-Serif" font-size="10.00">Engine/Core/Topology</text>
<text text-anchor="middle" x="889" y="-425" font-family="Helvetica,sans-Serif" font-size="10.00">/TopologyRepository.h</text>
</a>
</g>
</g>
<!-- Node1&#45;&gt;Node33 -->
<g id="edge60_Node000001_Node000033" class="edge">
<title>Node1&#45;&gt;Node33</title>
<g id="a_edge60_Node000001_Node000033"><a xlink:title=" ">
<path fill="none" stroke="#63b8ff" d="M856.77,-483.77C862.25,-475.31 868.68,-465.38 874.35,-456.63"/>
<polygon fill="#63b8ff" stroke="#63b8ff" points="877.41,-458.33 879.91,-448.04 871.54,-454.53 877.41,-458.33"/>
</a>
</g>
</g>
<!-- Node34 -->
<g id="Node000034" class="node">
<title>Node34</title>
<g id="a_Node000034"><a xlink:href="../../d6/d02/TopologyData_8h.html" target="_top" xlink:title="Conteneur central des données topologiques ferroviaires.">
<polygon fill="white" stroke="#666666" points="949,-327 857,-327 857,-308 949,-308 949,-327"/>
<text text-anchor="middle" x="903" y="-315" font-family="Helvetica,sans-Serif" font-size="10.00">TopologyData.h</text>
</a>
</g>
</g>
<!-- Node1&#45;&gt;Node34 -->
<g id="edge67_Node000001_Node000034" class="edge">
<title>Node1&#45;&gt;Node34</title>
<g id="a_edge67_Node000001_Node000034"><a xlink:title=" ">
<path fill="none" stroke="#63b8ff" d="M916.28,-483.93C933.51,-475.7 949.82,-464.15 960,-448 984.11,-409.74 944.07,-359.55 919.68,-334.36"/>
<polygon fill="#63b8ff" stroke="#63b8ff" points="921.96,-331.69 912.41,-327.11 917.02,-336.65 921.96,-331.69"/>
</a>
</g>
</g>
<!-- Node3 -->
<g id="Node000003" class="node">
<title>Node3</title>
<g id="a_Node000003"><a xlink:href="../../d6/d02/PipelineContext_8h.html" target="_top" xlink:title="Conteneur central des données inter&#45;phases du pipeline GeoParser.">
<polygon fill="white" stroke="#666666" points="537.5,-382 434.5,-382 434.5,-363 537.5,-363 537.5,-382"/>
<text text-anchor="middle" x="486" y="-370" font-family="Helvetica,sans-Serif" font-size="10.00">PipelineContext.h</text>
</a>
</g>
</g>
<!-- Node2&#45;&gt;Node3 -->
<g id="edge2_Node000002_Node000003" class="edge">
<title>Node2&#45;&gt;Node3</title>
<g id="a_edge2_Node000002_Node000003"><a xlink:title=" ">
<path fill="none" stroke="#63b8ff" d="M486,-423.37C486,-415.25 486,-402.81 486,-392.39"/>
<polygon fill="#63b8ff" stroke="#63b8ff" points="489.5,-392.17 486,-382.17 482.5,-392.17 489.5,-392.17"/>
</a>
</g>
</g>
<!-- Node24 -->
<g id="Node000024" class="node">
<title>Node24</title>
<g id="a_Node000024"><a xlink:href="../../dd/d00/Logger_8h.html" target="_top" xlink:title="Système de journalisation à 5 niveaux de trace, un fichier par moteur.">
<polygon fill="white" stroke="#666666" points="458.5,-85 347.5,-85 347.5,-55 458.5,-55 458.5,-85"/>
<text text-anchor="start" x="355.5" y="-73" font-family="Helvetica,sans-Serif" font-size="10.00">Engine/Core/Logger</text>
<text text-anchor="middle" x="403" y="-62" font-family="Helvetica,sans-Serif" font-size="10.00">/Logger.h</text>
</a>
</g>
</g>
<!-- Node2&#45;&gt;Node24 -->
<g id="edge59_Node000002_Node000024" class="edge">
<title>Node2&#45;&gt;Node24</title>
<g id="a_edge59_Node000002_Node000024"><a xlink:title=" ">
<path fill="none" stroke="#63b8ff" d="M407.38,-429.74C269.83,-423.64 0,-401.14 0,-318.5 0,-318.5 0,-318.5 0,-190 0,-120.51 223.16,-88.55 337.36,-76.74"/>
<polygon fill="#63b8ff" stroke="#63b8ff" points="337.79,-80.21 347.39,-75.72 337.09,-73.25 337.79,-80.21"/>
</a>
</g>
</g>
<!-- Node4 -->
<g id="Node000004" class="node">
<title>Node4</title>
<g id="a_Node000004"><a xlink:title=" ">
<polygon fill="#e0e0e0" stroke="#999999" points="537,-327 487,-327 487,-308 537,-308 537,-327"/>
<text text-anchor="middle" x="512" y="-315" font-family="Helvetica,sans-Serif" font-size="10.00">chrono</text>
</a>
</g>
</g>
<!-- Node3&#45;&gt;Node4 -->
<g id="edge3_Node000003_Node000004" class="edge">
<title>Node3&#45;&gt;Node4</title>
<g id="a_edge3_Node000003_Node000004"><a xlink:title=" ">
<path fill="none" stroke="#63b8ff" d="M490.29,-362.75C493.81,-355.57 498.91,-345.18 503.28,-336.27"/>
<polygon fill="#63b8ff" stroke="#63b8ff" points="506.52,-337.61 507.79,-327.09 500.24,-334.53 506.52,-337.61"/>
</a>
</g>
</g>
<!-- Node5 -->
<g id="Node000005" class="node">
<title>Node5</title>
<g id="a_Node000005"><a xlink:title=" ">
<polygon fill="#e0e0e0" stroke="#999999" points="916,-19 872,-19 872,0 916,0 916,-19"/>
<text text-anchor="middle" x="894" y="-7" font-family="Helvetica,sans-Serif" font-size="10.00">string</text>
</a>
</g>
</g>
<!-- Node3&#45;&gt;Node5 -->
<g id="edge4_Node000003_Node000005" class="edge">
<title>Node3&#45;&gt;Node5</title>
<g id="a_edge4_Node000003_Node000005"><a xlink:title=" ">
<path fill="none" stroke="#63b8ff" d="M537.6,-369.77C716.75,-363.1 1301,-335.41 1301,-258 1301,-258 1301,-258 1301,-129.5 1301,-74.79 1253.47,-76.13 1203,-55 1108.16,-15.29 984.21,-10 926.36,-9.92"/>
<polygon fill="#63b8ff" stroke="#63b8ff" points="926.34,-6.42 916.35,-9.96 926.37,-13.42 926.34,-6.42"/>
</a>
</g>
</g>
<!-- Node6 -->
<g id="Node000006" class="node">
<title>Node6</title>
<g id="a_Node000006"><a xlink:title=" ">
<polygon fill="#e0e0e0" stroke="#999999" points="717.5,-200.5 670.5,-200.5 670.5,-181.5 717.5,-181.5 717.5,-200.5"/>
<text text-anchor="middle" x="694" y="-188.5" font-family="Helvetica,sans-Serif" font-size="10.00">vector</text>
</a>
</g>
</g>
<!-- Node3&#45;&gt;Node6 -->
<g id="edge5_Node000003_Node000006" class="edge">
<title>Node3&#45;&gt;Node6</title>
<g id="a_edge5_Node000003_Node000006"><a xlink:title=" ">
<path fill="none" stroke="#63b8ff" d="M481.65,-362.61C476,-349.67 467.98,-325.31 478,-308 488.49,-289.89 610.37,-231.13 666.28,-204.88"/>
<polygon fill="#63b8ff" stroke="#63b8ff" points="668.03,-207.92 675.6,-200.52 665.06,-201.58 668.03,-207.92"/>
</a>
</g>
</g>
<!-- Node7 -->
<g id="Node000007" class="node">
<title>Node7</title>
<g id="a_Node000007"><a xlink:title=" ">
<polygon fill="#e0e0e0" stroke="#999999" points="611,-327 555,-327 555,-308 611,-308 611,-327"/>
<text text-anchor="middle" x="583" y="-315" font-family="Helvetica,sans-Serif" font-size="10.00">numeric</text>
</a>
</g>
</g>
<!-- Node3&#45;&gt;Node7 -->
<g id="edge6_Node000003_Node000007" class="edge">
<title>Node3&#45;&gt;Node7</title>
<g id="a_edge6_Node000003_Node000007"><a xlink:title=" ">
<path fill="none" stroke="#63b8ff" d="M501.58,-362.98C516.77,-354.69 540.1,-341.94 557.9,-332.22"/>
<polygon fill="#63b8ff" stroke="#63b8ff" points="560.03,-335.04 567.13,-327.17 556.68,-328.89 560.03,-335.04"/>
</a>
</g>
</g>
<!-- Node8 -->
<g id="Node000008" class="node">
<title>Node8</title>
<g id="a_Node000008"><a xlink:href="../../de/d02/RawNetwork_8h.html" target="_top" xlink:title="Structures de données produites par Phase1_GeoLoader.">
<polygon fill="white" stroke="#666666" points="517,-266.5 429,-266.5 429,-247.5 517,-247.5 517,-266.5"/>
<text text-anchor="middle" x="473" y="-254.5" font-family="Helvetica,sans-Serif" font-size="10.00">RawNetwork.h</text>
</a>
</g>
</g>
<!-- Node3&#45;&gt;Node8 -->
<g id="edge7_Node000003_Node000008" class="edge">
<title>Node3&#45;&gt;Node8</title>
<g id="a_edge7_Node000003_Node000008"><a xlink:title=" ">
<path fill="none" stroke="#63b8ff" d="M474.07,-362.8C464.17,-354.77 450.81,-341.87 445,-327 438.06,-309.22 448.44,-288.99 458.47,-275.06"/>
<polygon fill="#63b8ff" stroke="#63b8ff" points="461.44,-276.94 464.82,-266.9 455.92,-272.64 461.44,-276.94"/>
</a>
</g>
</g>
<!-- Node11 -->
<g id="Node000011" class="node">
<title>Node11</title>
<g id="a_Node000011"><a xlink:href="../../d0/d00/IntersectionMap_8h.html" target="_top" xlink:title="Structures de données produites par Phase2_GeometricIntersector.">
<polygon fill="white" stroke="#666666" points="733,-327 629,-327 629,-308 733,-308 733,-327"/>
<text text-anchor="middle" x="681" y="-315" font-family="Helvetica,sans-Serif" font-size="10.00">IntersectionMap.h</text>
</a>
</g>
</g>
<!-- Node3&#45;&gt;Node11 -->
<g id="edge12_Node000003_Node000011" class="edge">
<title>Node3&#45;&gt;Node11</title>
<g id="a_edge12_Node000003_Node000011"><a xlink:title=" ">
<path fill="none" stroke="#63b8ff" d="M517.33,-362.98C550.49,-353.97 603,-339.7 639.56,-329.76"/>
<polygon fill="#63b8ff" stroke="#63b8ff" points="640.69,-333.08 649.42,-327.08 638.86,-326.33 640.69,-333.08"/>
</a>
</g>
</g>
<!-- Node13 -->
<g id="Node000013" class="node">
<title>Node13</title>
<g id="a_Node000013"><a xlink:href="../../da/d00/SplitNetwork_8h.html" target="_top" xlink:title="Structures de données produites par Phase3_NetworkSplitter.">
<polygon fill="white" stroke="#666666" points="155.5,-266.5 66.5,-266.5 66.5,-247.5 155.5,-247.5 155.5,-266.5"/>
<text text-anchor="middle" x="111" y="-254.5" font-family="Helvetica,sans-Serif" font-size="10.00">SplitNetwork.h</text>
</a>
</g>
</g>
<!-- Node3&#45;&gt;Node13 -->
<g id="edge16_Node000003_Node000013" class="edge">
<title>Node3&#45;&gt;Node13</title>
<g id="a_edge16_Node000003_Node000013"><a xlink:title=" ">
<path fill="none" stroke="#63b8ff" d="M434.42,-368.94C379.64,-364.84 291.29,-354.25 220,-327 185.4,-313.78 150.02,-288.84 129.3,-272.85"/>
<polygon fill="#63b8ff" stroke="#63b8ff" points="131.39,-270.04 121.37,-266.6 127.06,-275.54 131.39,-270.04"/>
</a>
</g>
</g>
<!-- Node14 -->
<g id="Node000014" class="node">
<title>Node14</title>
<g id="a_Node000014"><a xlink:href="../../d7/d03/TopologyGraph_8h.html" target="_top" xlink:title="Structures de données produites par Phase4_TopologyBuilder.">
<polygon fill="white" stroke="#666666" points="411,-266.5 313,-266.5 313,-247.5 411,-247.5 411,-266.5"/>
<text text-anchor="middle" x="362" y="-254.5" font-family="Helvetica,sans-Serif" font-size="10.00">TopologyGraph.h</text>
</a>
</g>
</g>
<!-- Node3&#45;&gt;Node14 -->
<g id="edge20_Node000003_Node000014" class="edge">
<title>Node3&#45;&gt;Node14</title>
<g id="a_edge20_Node000003_Node000014"><a xlink:title=" ">
<path fill="none" stroke="#63b8ff" d="M476.68,-362.97C455.85,-343.91 405.3,-297.63 378.82,-273.39"/>
<polygon fill="#63b8ff" stroke="#63b8ff" points="381.17,-270.8 371.43,-266.63 376.44,-275.96 381.17,-270.8"/>
</a>
</g>
</g>
<!-- Node15 -->
<g id="Node000015" class="node">
<title>Node15</title>
<g id="a_Node000015"><a xlink:href="../../d4/d00/ClassifiedNodes_8h.html" target="_top" xlink:title="Structures de données produites par Phase5_SwitchClassifier.">
<polygon fill="white" stroke="#666666" points="333,-327 229,-327 229,-308 333,-308 333,-327"/>
<text text-anchor="middle" x="281" y="-315" font-family="Helvetica,sans-Serif" font-size="10.00">ClassifiedNodes.h</text>
</a>
</g>
</g>
<!-- Node3&#45;&gt;Node15 -->
<g id="edge24_Node000003_Node000015" class="edge">
<title>Node3&#45;&gt;Node15</title>
<g id="a_edge24_Node000003_Node000015"><a xlink:title=" ">
<path fill="none" stroke="#63b8ff" d="M453.06,-362.98C418.05,-353.93 362.53,-339.58 324.07,-329.64"/>
<polygon fill="#63b8ff" stroke="#63b8ff" points="324.75,-326.2 314.19,-327.08 323,-332.97 324.75,-326.2"/>
</a>
</g>
</g>
<!-- Node18 -->
<g id="Node000018" class="node">
<title>Node18</title>
<g id="a_Node000018"><a xlink:href="../../d2/d01/BlockSet_8h.html" target="_top" xlink:title="Structures de données produites par Phase6_BlockExtractor.">
<polygon fill="white" stroke="#666666" points="1043,-327 975,-327 975,-308 1043,-308 1043,-327"/>
<text text-anchor="middle" x="1009" y="-315" font-family="Helvetica,sans-Serif" font-size="10.00">BlockSet.h</text>
</a>
</g>
</g>
<!-- Node3&#45;&gt;Node18 -->
<g id="edge28_Node000003_Node000018" class="edge">
<title>Node3&#45;&gt;Node18</title>
<g id="a_edge28_Node000003_Node000018"><a xlink:title=" ">
<path fill="none" stroke="#63b8ff" d="M537.82,-367.83C624.84,-361.39 805.78,-346.83 958,-327 960.21,-326.71 962.46,-326.4 964.74,-326.07"/>
<polygon fill="#63b8ff" stroke="#63b8ff" points="965.4,-329.51 974.76,-324.55 964.35,-322.59 965.4,-329.51"/>
</a>
</g>
</g>
<!-- Node8&#45;&gt;Node5 -->
<g id="edge8_Node000008_Node000005" class="edge">
<title>Node8&#45;&gt;Node5</title>
<g id="a_edge8_Node000008_Node000005"><a xlink:title=" ">
<path fill="none" stroke="#63b8ff" d="M474.48,-247.35C477.64,-231.26 486.53,-196.51 507,-176 610.55,-72.22 789.5,-29.45 862.05,-15.81"/>
<polygon fill="#63b8ff" stroke="#63b8ff" points="862.76,-19.24 871.97,-14.01 861.5,-12.36 862.76,-19.24"/>
</a>
</g>
</g>
<!-- Node8&#45;&gt;Node6 -->
<g id="edge9_Node000008_Node000006" class="edge">
<title>Node8&#45;&gt;Node6</title>
<g id="a_edge9_Node000008_Node000006"><a xlink:title=" ">
<path fill="none" stroke="#63b8ff" d="M507.78,-247.48C554.14,-236.01 633.64,-215.89 662,-206 663.4,-205.51 664.82,-204.99 666.24,-204.45"/>
<polygon fill="#63b8ff" stroke="#63b8ff" points="667.65,-207.66 675.58,-200.63 665,-201.18 667.65,-207.66"/>
</a>
</g>
</g>
<!-- Node9 -->
<g id="Node000009" class="node">
<title>Node9</title>
<g id="a_Node000009"><a xlink:href="../../d6/d01/CoordinateLatLon_8h.html" target="_top" xlink:title="Représentation d&#39;une coordonnée géographique WGS&#45;84 (latitude, longitude).">
<polygon fill="white" stroke="#666666" points="652.5,-206 515.5,-206 515.5,-176 652.5,-176 652.5,-206"/>
<text text-anchor="start" x="523.5" y="-194" font-family="Helvetica,sans-Serif" font-size="10.00">Engine/Core/Coordinates</text>
<text text-anchor="middle" x="584" y="-183" font-family="Helvetica,sans-Serif" font-size="10.00">/CoordinateLatLon.h</text>
</a>
</g>
</g>
<!-- Node8&#45;&gt;Node9 -->
<g id="edge10_Node000008_Node000009" class="edge">
<title>Node8&#45;&gt;Node9</title>
<g id="a_edge10_Node000008_Node000009"><a xlink:title=" ">
<path fill="none" stroke="#63b8ff" d="M487.97,-247.37C503.95,-238.16 529.79,-223.26 550.64,-211.24"/>
<polygon fill="#63b8ff" stroke="#63b8ff" points="552.6,-214.14 559.52,-206.12 549.11,-208.08 552.6,-214.14"/>
</a>
</g>
</g>
<!-- Node10 -->
<g id="Node000010" class="node">
<title>Node10</title>
<g id="a_Node000010"><a xlink:href="../../db/d03/CoordinateXY_8h.html" target="_top" xlink:title="Représentation d&#39;une coordonnée plane en mètres (système métrique UTM).">
<polygon fill="white" stroke="#666666" points="440.5,-206 303.5,-206 303.5,-176 440.5,-176 440.5,-206"/>
<text text-anchor="start" x="311.5" y="-194" font-family="Helvetica,sans-Serif" font-size="10.00">Engine/Core/Coordinates</text>
<text text-anchor="middle" x="372" y="-183" font-family="Helvetica,sans-Serif" font-size="10.00">/CoordinateXY.h</text>
</a>
</g>
</g>
<!-- Node8&#45;&gt;Node10 -->
<g id="edge11_Node000008_Node000010" class="edge">
<title>Node8&#45;&gt;Node10</title>
<g id="a_edge11_Node000008_Node000010"><a xlink:title=" ">
<path fill="none" stroke="#63b8ff" d="M459.38,-247.37C444.97,-238.24 421.75,-223.53 402.87,-211.56"/>
<polygon fill="#63b8ff" stroke="#63b8ff" points="404.6,-208.51 394.28,-206.12 400.85,-214.42 404.6,-208.51"/>
</a>
</g>
</g>
<!-- Node11&#45;&gt;Node6 -->
<g id="edge14_Node000011_Node000006" class="edge">
<title>Node11&#45;&gt;Node6</title>
<g id="a_edge14_Node000011_Node000006"><a xlink:title=" ">
<path fill="none" stroke="#63b8ff" d="M651.5,-307.97C634.06,-301.24 613.41,-289.93 603,-272 596.3,-260.47 596.21,-253.48 603,-242 606.68,-235.77 641.52,-217.7 666.99,-205.09"/>
<polygon fill="#63b8ff" stroke="#63b8ff" points="668.78,-208.1 676.21,-200.55 665.7,-201.82 668.78,-208.1"/>
</a>
</g>
</g>
<!-- Node11&#45;&gt;Node10 -->
<g id="edge15_Node000011_Node000010" class="edge">
<title>Node11&#45;&gt;Node10</title>
<g id="a_edge15_Node000011_Node000010"><a xlink:title=" ">
<path fill="none" stroke="#63b8ff" d="M628.79,-308.96C625.82,-308.62 622.87,-308.29 620,-308 557.64,-301.67 99.89,-317.72 57,-272 47.88,-262.28 48.34,-252.14 57,-242 86.77,-207.13 209.83,-196.45 293.03,-193.26"/>
<polygon fill="#63b8ff" stroke="#63b8ff" points="293.35,-196.75 303.22,-192.9 293.1,-189.75 293.35,-196.75"/>
</a>
</g>
</g>
<!-- Node11&#45;&gt;Node12 -->
<g id="edge13_Node000011_Node000012" class="edge">
<title>Node11&#45;&gt;Node12</title>
<g id="a_edge13_Node000011_Node000012"><a xlink:title=" ">
<path fill="none" stroke="#63b8ff" d="M677.61,-307.87C674.34,-299.57 669.31,-286.78 665.16,-276.22"/>
<polygon fill="#63b8ff" stroke="#63b8ff" points="668.32,-274.69 661.41,-266.67 661.81,-277.25 668.32,-274.69"/>
</a>
</g>
</g>
<!-- Node13&#45;&gt;Node6 -->
<g id="edge17_Node000013_Node000006" class="edge">
<title>Node13&#45;&gt;Node6</title>
<g id="a_edge17_Node000013_Node000006"><a xlink:title=" ">
<path fill="none" stroke="#63b8ff" d="M139.39,-247.46C147.3,-245.37 155.93,-243.35 164,-242 382.89,-205.51 446.57,-259.24 662,-206 663.94,-205.52 665.92,-204.93 667.88,-204.27"/>
<polygon fill="#63b8ff" stroke="#63b8ff" points="669.41,-207.43 677.44,-200.52 666.85,-200.91 669.41,-207.43"/>
</a>
</g>
</g>
<!-- Node13&#45;&gt;Node9 -->
<g id="edge18_Node000013_Node000009" class="edge">
<title>Node13&#45;&gt;Node9</title>
<g id="a_edge18_Node000013_Node000009"><a xlink:title=" ">
<path fill="none" stroke="#63b8ff" d="M140.27,-247.49C147.94,-245.47 156.24,-243.48 164,-242 196.61,-235.78 392.76,-213.4 505.11,-200.79"/>
<polygon fill="#63b8ff" stroke="#63b8ff" points="505.83,-204.23 515.38,-199.64 505.05,-197.27 505.83,-204.23"/>
</a>
</g>
</g>
<!-- Node13&#45;&gt;Node10 -->
<g id="edge19_Node000013_Node000010" class="edge">
<title>Node13&#45;&gt;Node10</title>
<g id="a_edge19_Node000013_Node000010"><a xlink:title=" ">
<path fill="none" stroke="#63b8ff" d="M142.92,-247.44C149.86,-245.62 157.17,-243.72 164,-242 209.91,-230.42 261.68,-217.97 302.09,-208.4"/>
<polygon fill="#63b8ff" stroke="#63b8ff" points="302.91,-211.8 311.84,-206.09 301.3,-204.98 302.91,-211.8"/>
</a>
</g>
</g>
<!-- Node14&#45;&gt;Node6 -->
<g id="edge21_Node000014_Node000006" class="edge">
<title>Node14&#45;&gt;Node6</title>
<g id="a_edge21_Node000014_Node000006"><a xlink:title=" ">
<path fill="none" stroke="#63b8ff" d="M395.01,-247.49C403.15,-245.54 411.87,-243.58 420,-242 526.74,-221.22 557.5,-236.06 662,-206 663.68,-205.52 665.39,-204.96 667.1,-204.36"/>
<polygon fill="#63b8ff" stroke="#63b8ff" points="668.7,-207.5 676.7,-200.56 666.12,-200.99 668.7,-207.5"/>
</a>
</g>
</g>
<!-- Node14&#45;&gt;Node9 -->
<g id="edge22_Node000014_Node000009" class="edge">
<title>Node14&#45;&gt;Node9</title>
<g id="a_edge22_Node000014_Node000009"><a xlink:title=" ">
<path fill="none" stroke="#63b8ff" d="M391.94,-247.37C425.98,-237.56 482.38,-221.3 525.27,-208.93"/>
<polygon fill="#63b8ff" stroke="#63b8ff" points="526.4,-212.25 535.04,-206.12 524.46,-205.52 526.4,-212.25"/>
</a>
</g>
</g>
<!-- Node14&#45;&gt;Node10 -->
<g id="edge23_Node000014_Node000010" class="edge">
<title>Node14&#45;&gt;Node10</title>
<g id="a_edge23_Node000014_Node000010"><a xlink:title=" ">
<path fill="none" stroke="#63b8ff" d="M363.35,-247.37C364.59,-239.4 366.5,-227.2 368.21,-216.27"/>
<polygon fill="#63b8ff" stroke="#63b8ff" points="371.67,-216.78 369.76,-206.36 364.75,-215.7 371.67,-216.78"/>
</a>
</g>
</g>
<!-- Node15&#45;&gt;Node12 -->
<g id="edge25_Node000015_Node000012" class="edge">
<title>Node15&#45;&gt;Node12</title>
<g id="a_edge25_Node000015_Node000012"><a xlink:title=" ">
<path fill="none" stroke="#63b8ff" d="M333.02,-308.43C403.44,-297.5 528.62,-278.08 601.35,-266.79"/>
<polygon fill="#63b8ff" stroke="#63b8ff" points="601.9,-270.25 611.25,-265.25 600.83,-263.33 601.9,-270.25"/>
</a>
</g>
</g>
<!-- Node16 -->
<g id="Node000016" class="node">
<title>Node16</title>
<g id="a_Node000016"><a xlink:title=" ">
<polygon fill="#e0e0e0" stroke="#999999" points="295,-266.5 245,-266.5 245,-247.5 295,-247.5 295,-266.5"/>
<text text-anchor="middle" x="270" y="-254.5" font-family="Helvetica,sans-Serif" font-size="10.00">cstdint</text>
</a>
</g>
</g>
<!-- Node15&#45;&gt;Node16 -->
<g id="edge26_Node000015_Node000016" class="edge">
<title>Node15&#45;&gt;Node16</title>
<g id="a_edge26_Node000015_Node000016"><a xlink:title=" ">
<path fill="none" stroke="#63b8ff" d="M279.38,-307.87C277.83,-299.66 275.46,-287.04 273.49,-276.55"/>
<polygon fill="#63b8ff" stroke="#63b8ff" points="276.92,-275.85 271.63,-266.67 270.04,-277.14 276.92,-275.85"/>
</a>
</g>
</g>
<!-- Node17 -->
<g id="Node000017" class="node">
<title>Node17</title>
<g id="a_Node000017"><a xlink:title=" ">
<polygon fill="#e0e0e0" stroke="#999999" points="226.5,-266.5 173.5,-266.5 173.5,-247.5 226.5,-247.5 226.5,-266.5"/>
<text text-anchor="middle" x="200" y="-254.5" font-family="Helvetica,sans-Serif" font-size="10.00">cstddef</text>
</a>
</g>
</g>
<!-- Node15&#45;&gt;Node17 -->
<g id="edge27_Node000015_Node000017" class="edge">
<title>Node15&#45;&gt;Node17</title>
<g id="a_edge27_Node000015_Node000017"><a xlink:title=" ">
<path fill="none" stroke="#63b8ff" d="M269.05,-307.87C256.25,-298.62 235.7,-283.78 220.35,-272.69"/>
<polygon fill="#63b8ff" stroke="#63b8ff" points="222.16,-269.68 212,-266.67 218.06,-275.36 222.16,-269.68"/>
</a>
</g>
</g>
<!-- Node18&#45;&gt;Node5 -->
<g id="edge31_Node000018_Node000005" class="edge">
<title>Node18&#45;&gt;Node5</title>
<g id="a_edge31_Node000018_Node000005"><a xlink:title=" ">
<path fill="none" stroke="#63b8ff" d="M1043.02,-313.12C1096.28,-307.24 1196.16,-293.64 1224,-272 1255.23,-247.73 1263,-231.56 1263,-192 1263,-192 1263,-192 1263,-129.5 1263,-59.08 1016.48,-24.27 926.43,-13.91"/>
<polygon fill="#63b8ff" stroke="#63b8ff" points="926.58,-10.41 916.25,-12.77 925.8,-17.36 926.58,-10.41"/>
</a>
</g>
</g>
<!-- Node18&#45;&gt;Node6 -->
<g id="edge33_Node000018_Node000006" class="edge">
<title>Node18&#45;&gt;Node6</title>
<g id="a_edge33_Node000018_Node000006"><a xlink:title=" ">
<path fill="none" stroke="#63b8ff" d="M1010.7,-307.68C1013.16,-292.05 1015.65,-259.48 998,-242 956.24,-200.65 793.23,-219.35 736,-206 733.03,-205.31 729.97,-204.49 726.91,-203.61"/>
<polygon fill="#63b8ff" stroke="#63b8ff" points="727.91,-200.25 717.33,-200.63 725.84,-206.94 727.91,-200.25"/>
</a>
</g>
</g>
<!-- Node18&#45;&gt;Node12 -->
<g id="edge32_Node000018_Node000012" class="edge">
<title>Node18&#45;&gt;Node12</title>
<g id="a_edge32_Node000018_Node000012"><a xlink:title=" ">
<path fill="none" stroke="#63b8ff" d="M975,-310.74C969.32,-309.81 963.5,-308.86 958,-308 849.71,-290.99 821.53,-293.32 714,-272 709.33,-271.07 704.47,-270.01 699.64,-268.89"/>
<polygon fill="#63b8ff" stroke="#63b8ff" points="700.4,-265.47 689.86,-266.54 698.77,-272.28 700.4,-265.47"/>
</a>
</g>
</g>
<!-- Node19 -->
<g id="Node000019" class="node">
<title>Node19</title>
<g id="a_Node000019"><a xlink:title=" ">
<polygon fill="#e0e0e0" stroke="#999999" points="1222,-200.5 1180,-200.5 1180,-181.5 1222,-181.5 1222,-200.5"/>
<text text-anchor="middle" x="1201" y="-188.5" font-family="Helvetica,sans-Serif" font-size="10.00">array</text>
</a>
</g>
</g>
<!-- Node18&#45;&gt;Node19 -->
<g id="edge29_Node000018_Node000019" class="edge">
<title>Node18&#45;&gt;Node19</title>
<g id="a_edge29_Node000018_Node000019"><a xlink:title=" ">
<path fill="none" stroke="#63b8ff" d="M1043.03,-313.82C1093.91,-309.03 1185.97,-297.06 1206,-272 1219.81,-254.72 1214.54,-228.04 1208.56,-210.31"/>
<polygon fill="#63b8ff" stroke="#63b8ff" points="1211.7,-208.72 1204.91,-200.59 1205.15,-211.18 1211.7,-208.72"/>
</a>
</g>
</g>
<!-- Node20 -->
<g id="Node000020" class="node">
<title>Node20</title>
<g id="a_Node000020"><a xlink:title=" ">
<polygon fill="#e0e0e0" stroke="#999999" points="989,-266.5 931,-266.5 931,-247.5 989,-247.5 989,-266.5"/>
<text text-anchor="middle" x="960" y="-254.5" font-family="Helvetica,sans-Serif" font-size="10.00">memory</text>
</a>
</g>
</g>
<!-- Node18&#45;&gt;Node20 -->
<g id="edge30_Node000018_Node000020" class="edge">
<title>Node18&#45;&gt;Node20</title>
<g id="a_edge30_Node000018_Node000020"><a xlink:title=" ">
<path fill="none" stroke="#63b8ff" d="M1001.77,-307.87C994.46,-299.14 982.98,-285.43 973.9,-274.59"/>
<polygon fill="#63b8ff" stroke="#63b8ff" points="976.36,-272.09 967.26,-266.67 971,-276.58 976.36,-272.09"/>
</a>
</g>
</g>
<!-- Node18&#45;&gt;Node21 -->
<g id="edge34_Node000018_Node000021" class="edge">
<title>Node18&#45;&gt;Node21</title>
<g id="a_edge34_Node000018_Node000021"><a xlink:title=" ">
<path fill="none" stroke="#63b8ff" d="M978.46,-307.99C947.32,-299.32 898.16,-285.62 859.17,-274.76"/>
<polygon fill="#63b8ff" stroke="#63b8ff" points="860.06,-271.38 849.49,-272.06 858.18,-278.12 860.06,-271.38"/>
</a>
</g>
</g>
<!-- Node18&#45;&gt;Node31 -->
<g id="edge50_Node000018_Node000031" class="edge">
<title>Node18&#45;&gt;Node31</title>
<g id="a_edge50_Node000018_Node000031"><a xlink:title=" ">
<path fill="none" stroke="#63b8ff" d="M1025.53,-307.87C1041.15,-299.71 1065.1,-287.2 1085.11,-276.75"/>
<polygon fill="#63b8ff" stroke="#63b8ff" points="1086.73,-279.85 1093.98,-272.11 1083.49,-273.64 1086.73,-279.85"/>
</a>
</g>
</g>
<!-- Node21&#45;&gt;Node5 -->
<g id="edge35_Node000021_Node000005" class="edge">
<title>Node21&#45;&gt;Node5</title>
<g id="a_edge35_Node000021_Node000005"><a xlink:title=" ">
<path fill="none" stroke="#63b8ff" d="M824.88,-241.92C838.3,-233.29 853.77,-221.02 863,-206 897.91,-149.2 897.71,-66.21 895.57,-29.35"/>
<polygon fill="#63b8ff" stroke="#63b8ff" points="899.04,-28.82 894.85,-19.09 892.06,-29.31 899.04,-28.82"/>
</a>
</g>
</g>
<!-- Node21&#45;&gt;Node6 -->
<g id="edge36_Node000021_Node000006" class="edge">
<title>Node21&#45;&gt;Node6</title>
<g id="a_edge36_Node000021_Node000006"><a xlink:title=" ">
<path fill="none" stroke="#63b8ff" d="M775.96,-241.95C758.44,-231.27 734.44,-216.65 716.94,-205.98"/>
<polygon fill="#63b8ff" stroke="#63b8ff" points="718.33,-202.73 707.97,-200.52 714.69,-208.71 718.33,-202.73"/>
</a>
</g>
</g>
<!-- Node21&#45;&gt;Node9 -->
<g id="edge48_Node000021_Node000009" class="edge">
<title>Node21&#45;&gt;Node9</title>
<g id="a_edge48_Node000021_Node000009"><a xlink:title=" ">
<path fill="none" stroke="#63b8ff" d="M751.82,-241.95C719.19,-232.24 675.6,-219.27 641.03,-208.98"/>
<polygon fill="#63b8ff" stroke="#63b8ff" points="641.66,-205.51 631.07,-206.01 639.66,-212.22 641.66,-205.51"/>
</a>
</g>
</g>
<!-- Node21&#45;&gt;Node10 -->
<g id="edge49_Node000021_Node000010" class="edge">
<title>Node21&#45;&gt;Node10</title>
<g id="a_edge49_Node000021_Node000010"><a xlink:title=" ">
<path fill="none" stroke="#63b8ff" d="M722.55,-243.34C719.67,-242.89 716.81,-242.44 714,-242 623.72,-227.97 519.85,-212.94 450.49,-203.06"/>
<polygon fill="#63b8ff" stroke="#63b8ff" points="450.9,-199.59 440.51,-201.65 449.92,-206.52 450.9,-199.59"/>
</a>
</g>
</g>
<!-- Node22 -->
<g id="Node000022" class="node">
<title>Node22</title>
<g id="a_Node000022"><a xlink:href="../../df/d02/ShuntingElement_8h.html" target="_top" xlink:title="Interface abstraite pour tous les éléments de shuntage ferroviaire.">
<polygon fill="white" stroke="#666666" points="853.5,-200.5 744.5,-200.5 744.5,-181.5 853.5,-181.5 853.5,-200.5"/>
<text text-anchor="middle" x="799" y="-188.5" font-family="Helvetica,sans-Serif" font-size="10.00">ShuntingElement.h</text>
</a>
</g>
</g>
<!-- Node21&#45;&gt;Node22 -->
<g id="edge37_Node000021_Node000022" class="edge">
<title>Node21&#45;&gt;Node22</title>
<g id="a_edge37_Node000021_Node000022"><a xlink:title=" ">
<path fill="none" stroke="#63b8ff" d="M799,-241.8C799,-232.7 799,-220.79 799,-210.9"/>
<polygon fill="#63b8ff" stroke="#63b8ff" points="802.5,-210.84 799,-200.84 795.5,-210.84 802.5,-210.84"/>
</a>
</g>
</g>
<!-- Node23 -->
<g id="Node000023" class="node">
<title>Node23</title>
<g id="a_Node000023"><a xlink:href="../../d5/d02/Element_8h.html" target="_top" xlink:title="Classe de base abstraite pour tous les éléments interactifs ferroviaires.">
<polygon fill="white" stroke="#666666" points="866.5,-140 707.5,-140 707.5,-121 866.5,-121 866.5,-140"/>
<text text-anchor="middle" x="787" y="-128" font-family="Helvetica,sans-Serif" font-size="10.00">Modules/Elements/Element.h</text>
</a>
</g>
</g>
<!-- Node22&#45;&gt;Node23 -->
<g id="edge38_Node000022_Node000023" class="edge">
<title>Node22&#45;&gt;Node23</title>
<g id="a_edge38_Node000022_Node000023"><a xlink:title=" ">
<path fill="none" stroke="#63b8ff" d="M797.23,-181.37C795.55,-173.16 792.96,-160.54 790.81,-150.05"/>
<polygon fill="#63b8ff" stroke="#63b8ff" points="794.22,-149.26 788.78,-140.17 787.36,-150.67 794.22,-149.26"/>
</a>
</g>
</g>
<!-- Node23&#45;&gt;Node5 -->
<g id="edge39_Node000023_Node000005" class="edge">
<title>Node23&#45;&gt;Node5</title>
<g id="a_edge39_Node000023_Node000005"><a xlink:title=" ">
<path fill="none" stroke="#63b8ff" d="M794.7,-120.94C812.35,-101.31 856,-52.76 879.11,-27.07"/>
<polygon fill="#63b8ff" stroke="#63b8ff" points="882,-29.08 886.09,-19.3 876.8,-24.4 882,-29.08"/>
</a>
</g>
</g>
<!-- Node23&#45;&gt;Node24 -->
<g id="edge40_Node000023_Node000024" class="edge">
<title>Node23&#45;&gt;Node24</title>
<g id="a_edge40_Node000023_Node000024"><a xlink:title=" ">
<path fill="none" stroke="#63b8ff" d="M731.16,-120.99C661.53,-110.39 542.67,-92.28 468.72,-81.01"/>
<polygon fill="#63b8ff" stroke="#63b8ff" points="469.01,-77.52 458.59,-79.47 467.95,-84.44 469.01,-77.52"/>
</a>
</g>
</g>
<!-- Node24&#45;&gt;Node5 -->
<g id="edge46_Node000024_Node000005" class="edge">
<title>Node24&#45;&gt;Node5</title>
<g id="a_edge46_Node000024_Node000005"><a xlink:title=" ">
<path fill="none" stroke="#63b8ff" d="M458.7,-57.38C463.53,-56.52 468.34,-55.71 473,-55 617.44,-32.97 791.42,-18.32 861.97,-12.87"/>
<polygon fill="#63b8ff" stroke="#63b8ff" points="862.29,-16.36 871.99,-12.11 861.76,-9.38 862.29,-16.36"/>
</a>
</g>
</g>
<!-- Node25 -->
<g id="Node000025" class="node">
<title>Node25</title>
<g id="a_Node000025"><a xlink:title=" ">
<polygon fill="#e0e0e0" stroke="#999999" points="575,-19 531,-19 531,0 575,0 575,-19"/>
<text text-anchor="middle" x="553" y="-7" font-family="Helvetica,sans-Serif" font-size="10.00">ctime</text>
</a>
</g>
</g>
<!-- Node24&#45;&gt;Node25 -->
<g id="edge41_Node000024_Node000025" class="edge">
<title>Node24&#45;&gt;Node25</title>
<g id="a_edge41_Node000024_Node000025"><a xlink:title=" ">
<path fill="none" stroke="#63b8ff" d="M438.93,-54.99C464.07,-45.18 497.33,-32.21 521.45,-22.81"/>
<polygon fill="#63b8ff" stroke="#63b8ff" points="522.8,-26.03 530.85,-19.14 520.26,-19.51 522.8,-26.03"/>
</a>
</g>
</g>
<!-- Node26 -->
<g id="Node000026" class="node">
<title>Node26</title>
<g id="a_Node000026"><a xlink:title=" ">
<polygon fill="#e0e0e0" stroke="#999999" points="287,-19 219,-19 219,0 287,0 287,-19"/>
<text text-anchor="middle" x="253" y="-7" font-family="Helvetica,sans-Serif" font-size="10.00">filesystem</text>
</a>
</g>
</g>
<!-- Node24&#45;&gt;Node26 -->
<g id="edge42_Node000024_Node000026" class="edge">
<title>Node24&#45;&gt;Node26</title>
<g id="a_edge42_Node000024_Node000026"><a xlink:title=" ">
<path fill="none" stroke="#63b8ff" d="M367.07,-54.99C341.93,-45.18 308.67,-32.21 284.55,-22.81"/>
<polygon fill="#63b8ff" stroke="#63b8ff" points="285.74,-19.51 275.15,-19.14 283.2,-26.03 285.74,-19.51"/>
</a>
</g>
</g>
<!-- Node27 -->
<g id="Node000027" class="node">
<title>Node27</title>
<g id="a_Node000027"><a xlink:title=" ">
<polygon fill="#e0e0e0" stroke="#999999" points="360.5,-19 305.5,-19 305.5,0 360.5,0 360.5,-19"/>
<text text-anchor="middle" x="333" y="-7" font-family="Helvetica,sans-Serif" font-size="10.00">fstream</text>
</a>
</g>
</g>
<!-- Node24&#45;&gt;Node27 -->
<g id="edge43_Node000024_Node000027" class="edge">
<title>Node24&#45;&gt;Node27</title>
<g id="a_edge43_Node000024_Node000027"><a xlink:title=" ">
<path fill="none" stroke="#63b8ff" d="M386.05,-54.84C375.58,-46.09 362.14,-34.85 351.41,-25.88"/>
<polygon fill="#63b8ff" stroke="#63b8ff" points="353.41,-22.99 343.49,-19.27 348.92,-28.36 353.41,-22.99"/>
</a>
</g>
</g>
<!-- Node28 -->
<g id="Node000028" class="node">
<title>Node28</title>
<g id="a_Node000028"><a xlink:title=" ">
<polygon fill="#e0e0e0" stroke="#999999" points="427,-19 379,-19 379,0 427,0 427,-19"/>
<text text-anchor="middle" x="403" y="-7" font-family="Helvetica,sans-Serif" font-size="10.00">mutex</text>
</a>
</g>
</g>
<!-- Node24&#45;&gt;Node28 -->
<g id="edge44_Node000024_Node000028" class="edge">
<title>Node24&#45;&gt;Node28</title>
<g id="a_edge44_Node000024_Node000028"><a xlink:title=" ">
<path fill="none" stroke="#63b8ff" d="M403,-54.84C403,-47.21 403,-37.7 403,-29.45"/>
<polygon fill="#63b8ff" stroke="#63b8ff" points="406.5,-29.27 403,-19.27 399.5,-29.27 406.5,-29.27"/>
</a>
</g>
</g>
<!-- Node29 -->
<g id="Node000029" class="node">
<title>Node29</title>
<g id="a_Node000029"><a xlink:title=" ">
<polygon fill="#e0e0e0" stroke="#999999" points="762,-19 706,-19 706,0 762,0 762,-19"/>
<text text-anchor="middle" x="734" y="-7" font-family="Helvetica,sans-Serif" font-size="10.00">sstream</text>
</a>
</g>
</g>
<!-- Node24&#45;&gt;Node29 -->
<g id="edge45_Node000024_Node000029" class="edge">
<title>Node24&#45;&gt;Node29</title>
<g id="a_edge45_Node000024_Node000029"><a xlink:title=" ">
<path fill="none" stroke="#63b8ff" d="M458.76,-57.7C463.57,-56.77 468.37,-55.86 473,-55 552.07,-40.36 644.96,-24.94 695.86,-16.65"/>
<polygon fill="#63b8ff" stroke="#63b8ff" points="696.45,-20.1 705.76,-15.04 695.33,-13.19 696.45,-20.1"/>
</a>
</g>
</g>
<!-- Node30 -->
<g id="Node000030" class="node">
<title>Node30</title>
<g id="a_Node000030"><a xlink:title=" ">
<polygon fill="#e0e0e0" stroke="#999999" points="513,-19 445,-19 445,0 513,0 513,-19"/>
<text text-anchor="middle" x="479" y="-7" font-family="Helvetica,sans-Serif" font-size="10.00">windows.h</text>
</a>
</g>
</g>
<!-- Node24&#45;&gt;Node30 -->
<g id="edge47_Node000024_Node000030" class="edge">
<title>Node24&#45;&gt;Node30</title>
<g id="a_edge47_Node000024_Node000030"><a xlink:title=" ">
<path fill="none" stroke="#63b8ff" d="M421.4,-54.84C432.88,-46 447.65,-34.63 459.36,-25.62"/>
<polygon fill="#63b8ff" stroke="#63b8ff" points="461.82,-28.14 467.61,-19.27 457.55,-22.59 461.82,-28.14"/>
</a>
</g>
</g>
<!-- Node31&#45;&gt;Node5 -->
<g id="edge54_Node000031_Node000005" class="edge">
<title>Node31&#45;&gt;Node5</title>
<g id="a_edge54_Node000031_Node000005"><a xlink:title=" ">
<path fill="none" stroke="#63b8ff" d="M1109.95,-241.82C1102.39,-231.95 1092.29,-218.39 1084,-206 1040.42,-140.88 1051.63,-106.99 993,-55 973.73,-37.92 946.83,-26.39 925.93,-19.36"/>
<polygon fill="#63b8ff" stroke="#63b8ff" points="926.8,-15.96 916.21,-16.26 924.68,-22.63 926.8,-15.96"/>
</a>
</g>
</g>
<!-- Node31&#45;&gt;Node6 -->
<g id="edge55_Node000031_Node000006" class="edge">
<title>Node31&#45;&gt;Node6</title>
<g id="a_edge55_Node000031_Node000006"><a xlink:title=" ">
<path fill="none" stroke="#63b8ff" d="M1044.92,-243.98C1040.21,-243.3 1035.54,-242.63 1031,-242 900.17,-223.85 864.85,-235.03 736,-206 732.95,-205.31 729.81,-204.49 726.68,-203.59"/>
<polygon fill="#63b8ff" stroke="#63b8ff" points="727.46,-200.17 716.87,-200.55 725.38,-206.86 727.46,-200.17"/>
</a>
</g>
</g>
<!-- Node31&#45;&gt;Node9 -->
<g id="edge56_Node000031_Node000009" class="edge">
<title>Node31&#45;&gt;Node9</title>
<g id="a_edge56_Node000031_Node000009"><a xlink:title=" ">
<path fill="none" stroke="#63b8ff" d="M1044.9,-247.26C1029.38,-245.5 1013.17,-243.68 998,-242 851.93,-225.86 812.36,-227.21 662.87,-206.06"/>
<polygon fill="#63b8ff" stroke="#63b8ff" points="663.25,-202.58 652.86,-204.63 662.27,-209.51 663.25,-202.58"/>
</a>
</g>
</g>
<!-- Node31&#45;&gt;Node10 -->
<g id="edge57_Node000031_Node000010" class="edge">
<title>Node31&#45;&gt;Node10</title>
<g id="a_edge57_Node000031_Node000010"><a xlink:title=" ">
<path fill="none" stroke="#63b8ff" d="M1044.94,-246.86C1029.42,-245.13 1013.19,-243.42 998,-242 780.14,-221.62 724.96,-225.29 507,-206 488.78,-204.39 469.2,-202.47 450.75,-200.57"/>
<polygon fill="#63b8ff" stroke="#63b8ff" points="450.95,-197.07 440.64,-199.52 450.23,-204.03 450.95,-197.07"/>
</a>
</g>
</g>
<!-- Node31&#45;&gt;Node19 -->
<g id="edge51_Node000031_Node000019" class="edge">
<title>Node31&#45;&gt;Node19</title>
<g id="a_edge51_Node000031_Node000019"><a xlink:title=" ">
<path fill="none" stroke="#63b8ff" d="M1138.75,-241.8C1151.59,-231.53 1168.92,-217.67 1182.03,-207.18"/>
<polygon fill="#63b8ff" stroke="#63b8ff" points="1184.32,-209.82 1189.94,-200.84 1179.95,-204.36 1184.32,-209.82"/>
</a>
</g>
</g>
<!-- Node31&#45;&gt;Node22 -->
<g id="edge58_Node000031_Node000022" class="edge">
<title>Node31&#45;&gt;Node22</title>
<g id="a_edge58_Node000031_Node000022"><a xlink:title=" ">
<path fill="none" stroke="#63b8ff" d="M1050.34,-241.95C990.51,-230.06 906.07,-213.28 851.93,-202.52"/>
<polygon fill="#63b8ff" stroke="#63b8ff" points="852.34,-199.03 841.85,-200.52 850.98,-205.9 852.34,-199.03"/>
</a>
</g>
</g>
<!-- Node31&#45;&gt;Node29 -->
<g id="edge53_Node000031_Node000029" class="edge">
<title>Node31&#45;&gt;Node29</title>
<g id="a_edge53_Node000031_Node000029"><a xlink:title=" ">
<path fill="none" stroke="#63b8ff" d="M1098.8,-241.92C1030.54,-198.62 824.24,-67.74 756.1,-24.52"/>
<polygon fill="#63b8ff" stroke="#63b8ff" points="757.75,-21.42 747.43,-19.02 754,-27.33 757.75,-21.42"/>
</a>
</g>
</g>
<!-- Node32 -->
<g id="Node000032" class="node">
<title>Node32</title>
<g id="a_Node000032"><a xlink:title=" ">
<polygon fill="#e0e0e0" stroke="#999999" points="1149,-200.5 1093,-200.5 1093,-181.5 1149,-181.5 1149,-200.5"/>
<text text-anchor="middle" x="1121" y="-188.5" font-family="Helvetica,sans-Serif" font-size="10.00">optional</text>
</a>
</g>
</g>
<!-- Node31&#45;&gt;Node32 -->
<g id="edge52_Node000031_Node000032" class="edge">
<title>Node31&#45;&gt;Node32</title>
<g id="a_edge52_Node000031_Node000032"><a xlink:title=" ">
<path fill="none" stroke="#63b8ff" d="M1121,-241.8C1121,-232.7 1121,-220.79 1121,-210.9"/>
<polygon fill="#63b8ff" stroke="#63b8ff" points="1124.5,-210.84 1121,-200.84 1117.5,-210.84 1124.5,-210.84"/>
</a>
</g>
</g>
<!-- Node33&#45;&gt;Node34 -->
<g id="edge61_Node000033_Node000034" class="edge">
<title>Node33&#45;&gt;Node34</title>
<g id="a_edge61_Node000033_Node000034"><a xlink:title=" ">
<path fill="none" stroke="#63b8ff" d="M890.77,-417.63C893.29,-397.21 897.9,-359.81 900.69,-337.24"/>
<polygon fill="#63b8ff" stroke="#63b8ff" points="904.17,-337.58 901.92,-327.23 897.23,-336.73 904.17,-337.58"/>
</a>
</g>
</g>
<!-- Node34&#45;&gt;Node6 -->
<g id="edge63_Node000034_Node000006" class="edge">
<title>Node34&#45;&gt;Node6</title>
<g id="a_edge63_Node000034_Node000006"><a xlink:title=" ">
<path fill="none" stroke="#63b8ff" d="M903.46,-307.75C903.76,-292.23 902.03,-259.83 884,-242 835.87,-194.4 801.06,-224.72 736,-206 733.23,-205.2 730.37,-204.34 727.51,-203.44"/>
<polygon fill="#63b8ff" stroke="#63b8ff" points="728.47,-200.08 717.88,-200.34 726.32,-206.74 728.47,-200.08"/>
</a>
</g>
</g>
<!-- Node34&#45;&gt;Node12 -->
<g id="edge64_Node000034_Node000012" class="edge">
<title>Node34&#45;&gt;Node12</title>
<g id="a_edge64_Node000034_Node000012"><a xlink:title=" ">
<path fill="none" stroke="#63b8ff" d="M866.02,-307.95C827.9,-299.1 766.74,-284.8 714,-272 709.95,-271.02 705.73,-269.98 701.51,-268.94"/>
<polygon fill="#63b8ff" stroke="#63b8ff" points="702.29,-265.53 691.74,-266.51 700.6,-272.32 702.29,-265.53"/>
</a>
</g>
</g>
<!-- Node34&#45;&gt;Node20 -->
<g id="edge62_Node000034_Node000020" class="edge">
<title>Node34&#45;&gt;Node20</title>
<g id="a_edge62_Node000034_Node000020"><a xlink:title=" ">
<path fill="none" stroke="#63b8ff" d="M911.41,-307.87C920.08,-298.97 933.8,-284.89 944.46,-273.95"/>
<polygon fill="#63b8ff" stroke="#63b8ff" points="947.08,-276.27 951.55,-266.67 942.07,-271.39 947.08,-276.27"/>
</a>
</g>
</g>
<!-- Node34&#45;&gt;Node21 -->
<g id="edge65_Node000034_Node000021" class="edge">
<title>Node34&#45;&gt;Node21</title>
<g id="a_edge65_Node000034_Node000021"><a xlink:title=" ">
<path fill="none" stroke="#63b8ff" d="M887.65,-307.87C873.28,-299.78 851.31,-287.42 832.83,-277.03"/>
<polygon fill="#63b8ff" stroke="#63b8ff" points="834.52,-273.97 824.09,-272.11 831.09,-280.07 834.52,-273.97"/>
</a>
</g>
</g>
<!-- Node34&#45;&gt;Node31 -->
<g id="edge66_Node000034_Node000031" class="edge">
<title>Node34&#45;&gt;Node31</title>
<g id="a_edge66_Node000034_Node000031"><a xlink:title=" ">
<path fill="none" stroke="#63b8ff" d="M934.7,-307.99C967.1,-299.3 1018.28,-285.57 1058.8,-274.69"/>
<polygon fill="#63b8ff" stroke="#63b8ff" points="1059.84,-278.04 1068.59,-272.06 1058.02,-271.28 1059.84,-278.04"/>
</a>
</g>
</g>
</g>
</svg>
