<?xml version="1.0" encoding="UTF-8" standalone="no"?>
<!DOCTYPE svg PUBLIC "-//W3C//DTD SVG 1.1//EN"
 "http://www.w3.org/Graphics/SVG/1.1/DTD/svg11.dtd">
<!-- Generated by graphviz version 2.43.0 (0)
 -->
<!-- Title: SimulateurFerroviaire/Engine/Core/Application.h Pages: 1 -->
<svg width="761pt" height="313pt"
 viewBox="0.00 0.00 760.50 313.00" xmlns="http://www.w3.org/2000/svg" xmlns:xlink="http://www.w3.org/1999/xlink">
<g id="graph0" class="graph" transform="scale(1 1) rotate(0) translate(4 309)">
<title>SimulateurFerroviaire/Engine/Core/Application.h</title>
<!-- Node1 -->
<g id="Node000001" class="node">
<title>Node1</title>
<g id="a_Node000001"><a xlink:title="Gestion du cycle de vie de l&#39;application Win32.">
<polygon fill="#999999" stroke="#666666" points="573,-305 428,-305 428,-275 573,-275 573,-305"/>
<text text-anchor="start" x="436" y="-293" font-family="Helvetica,sans-Serif" font-size="10.00">SimulateurFerroviaire</text>
<text text-anchor="middle" x="500.5" y="-282" font-family="Helvetica,sans-Serif" font-size="10.00">/Engine/Core/Application.h</text>
</a>
</g>
</g>
<!-- Node2 -->
<g id="Node000002" class="node">
<title>Node2</title>
<g id="a_Node000002"><a xlink:href="framework_8h.html" target="_top" xlink:title=" ">
<polygon fill="white" stroke="#666666" points="439,-129 360,-129 360,-110 439,-110 439,-129"/>
<text text-anchor="middle" x="399.5" y="-117" font-family="Helvetica,sans-Serif" font-size="10.00">framework.h</text>
</a>
</g>
</g>
<!-- Node1&#45;&gt;Node2 -->
<g id="edge1_Node000001_Node000002" class="edge">
<title>Node1&#45;&gt;Node2</title>
<g id="a_edge1_Node000001_Node000002"><a xlink:title=" ">
<path fill="none" stroke="#63b8ff" d="M463.42,-274.9C447.13,-266.83 429.28,-255.06 418.5,-239 398.15,-208.68 396.76,-164.34 397.9,-139.38"/>
<polygon fill="#63b8ff" stroke="#63b8ff" points="401.42,-139.33 398.58,-129.12 394.43,-138.87 401.42,-139.33"/>
</a>
</g>
</g>
<!-- Node13 -->
<g id="Node000013" class="node">
<title>Node13</title>
<g id="a_Node000013"><a xlink:href="MainWindow_8h.html" target="_top" xlink:title="Déclaration de la fenêtre principale de l&#39;application.">
<polygon fill="white" stroke="#666666" points="573.5,-239 427.5,-239 427.5,-220 573.5,-220 573.5,-239"/>
<text text-anchor="middle" x="500.5" y="-227" font-family="Helvetica,sans-Serif" font-size="10.00">Engine/HMI/MainWindow.h</text>
</a>
</g>
</g>
<!-- Node1&#45;&gt;Node13 -->
<g id="edge12_Node000001_Node000013" class="edge">
<title>Node1&#45;&gt;Node13</title>
<g id="a_edge12_Node000001_Node000013"><a xlink:title=" ">
<path fill="none" stroke="#63b8ff" d="M500.5,-274.84C500.5,-267.21 500.5,-257.7 500.5,-249.45"/>
<polygon fill="#63b8ff" stroke="#63b8ff" points="504,-249.27 500.5,-239.27 497,-249.27 504,-249.27"/>
</a>
</g>
</g>
<!-- Node16 -->
<g id="Node000016" class="node">
<title>Node16</title>
<g id="a_Node000016"><a xlink:title=" ">
<polygon fill="#e0e0e0" stroke="#999999" points="649.5,-239 591.5,-239 591.5,-220 649.5,-220 649.5,-239"/>
<text text-anchor="middle" x="620.5" y="-227" font-family="Helvetica,sans-Serif" font-size="10.00">memory</text>
</a>
</g>
</g>
<!-- Node1&#45;&gt;Node16 -->
<g id="edge18_Node000001_Node000016" class="edge">
<title>Node1&#45;&gt;Node16</title>
<g id="a_edge18_Node000001_Node000016"><a xlink:title=" ">
<path fill="none" stroke="#63b8ff" d="M529.24,-274.99C548.82,-265.45 574.55,-252.9 593.7,-243.57"/>
<polygon fill="#63b8ff" stroke="#63b8ff" points="595.32,-246.67 602.78,-239.14 592.26,-240.38 595.32,-246.67"/>
</a>
</g>
</g>
<!-- Node3 -->
<g id="Node000003" class="node">
<title>Node3</title>
<g id="a_Node000003"><a xlink:href="targetver_8h.html" target="_top" xlink:title=" ">
<polygon fill="white" stroke="#666666" points="76.5,-74 6.5,-74 6.5,-55 76.5,-55 76.5,-74"/>
<text text-anchor="middle" x="41.5" y="-62" font-family="Helvetica,sans-Serif" font-size="10.00">targetver.h</text>
</a>
</g>
</g>
<!-- Node2&#45;&gt;Node3 -->
<g id="edge2_Node000002_Node000003" class="edge">
<title>Node2&#45;&gt;Node3</title>
<g id="a_edge2_Node000002_Node000003"><a xlink:title=" ">
<path fill="none" stroke="#63b8ff" d="M359.75,-113.51C301.92,-106.12 191,-91.41 86.62,-74.11"/>
<polygon fill="#63b8ff" stroke="#63b8ff" points="86.98,-70.63 76.54,-72.43 85.82,-77.53 86.98,-70.63"/>
</a>
</g>
</g>
<!-- Node5 -->
<g id="Node000005" class="node">
<title>Node5</title>
<g id="a_Node000005"><a xlink:title=" ">
<polygon fill="#e0e0e0" stroke="#999999" points="162.5,-74 94.5,-74 94.5,-55 162.5,-55 162.5,-74"/>
<text text-anchor="middle" x="128.5" y="-62" font-family="Helvetica,sans-Serif" font-size="10.00">windows.h</text>
</a>
</g>
</g>
<!-- Node2&#45;&gt;Node5 -->
<g id="edge4_Node000002_Node000005" class="edge">
<title>Node2&#45;&gt;Node5</title>
<g id="a_edge4_Node000002_Node000005"><a xlink:title=" ">
<path fill="none" stroke="#63b8ff" d="M359.95,-110.81C316.52,-102.36 244.43,-88.32 172.86,-74.26"/>
<polygon fill="#63b8ff" stroke="#63b8ff" points="173.25,-70.77 162.77,-72.28 171.9,-77.64 173.25,-70.77"/>
</a>
</g>
</g>
<!-- Node6 -->
<g id="Node000006" class="node">
<title>Node6</title>
<g id="a_Node000006"><a xlink:title=" ">
<polygon fill="#e0e0e0" stroke="#999999" points="234,-74 181,-74 181,-55 234,-55 234,-74"/>
<text text-anchor="middle" x="207.5" y="-62" font-family="Helvetica,sans-Serif" font-size="10.00">stdlib.h</text>
</a>
</g>
</g>
<!-- Node2&#45;&gt;Node6 -->
<g id="edge5_Node000002_Node000006" class="edge">
<title>Node2&#45;&gt;Node6</title>
<g id="a_edge5_Node000002_Node000006"><a xlink:title=" ">
<path fill="none" stroke="#63b8ff" d="M368.65,-109.98C334.64,-100.6 279.98,-85.51 243.9,-75.55"/>
<polygon fill="#63b8ff" stroke="#63b8ff" points="244.82,-72.17 234.25,-72.88 242.95,-78.92 244.82,-72.17"/>
</a>
</g>
</g>
<!-- Node7 -->
<g id="Node000007" class="node">
<title>Node7</title>
<g id="a_Node000007"><a xlink:title=" ">
<polygon fill="#e0e0e0" stroke="#999999" points="311,-74 252,-74 252,-55 311,-55 311,-74"/>
<text text-anchor="middle" x="281.5" y="-62" font-family="Helvetica,sans-Serif" font-size="10.00">malloc.h</text>
</a>
</g>
</g>
<!-- Node2&#45;&gt;Node7 -->
<g id="edge6_Node000002_Node000007" class="edge">
<title>Node2&#45;&gt;Node7</title>
<g id="a_edge6_Node000002_Node000007"><a xlink:title=" ">
<path fill="none" stroke="#63b8ff" d="M380.54,-109.98C361.47,-101.42 331.84,-88.11 309.95,-78.28"/>
<polygon fill="#63b8ff" stroke="#63b8ff" points="311.36,-75.07 300.8,-74.17 308.49,-81.46 311.36,-75.07"/>
</a>
</g>
</g>
<!-- Node8 -->
<g id="Node000008" class="node">
<title>Node8</title>
<g id="a_Node000008"><a xlink:title=" ">
<polygon fill="#e0e0e0" stroke="#999999" points="394,-74 329,-74 329,-55 394,-55 394,-74"/>
<text text-anchor="middle" x="361.5" y="-62" font-family="Helvetica,sans-Serif" font-size="10.00">memory.h</text>
</a>
</g>
</g>
<!-- Node2&#45;&gt;Node8 -->
<g id="edge7_Node000002_Node000008" class="edge">
<title>Node2&#45;&gt;Node8</title>
<g id="a_edge7_Node000002_Node000008"><a xlink:title=" ">
<path fill="none" stroke="#63b8ff" d="M393.23,-109.75C387.91,-102.34 380.14,-91.5 373.62,-82.41"/>
<polygon fill="#63b8ff" stroke="#63b8ff" points="376.33,-80.18 367.66,-74.09 370.64,-84.26 376.33,-80.18"/>
</a>
</g>
</g>
<!-- Node9 -->
<g id="Node000009" class="node">
<title>Node9</title>
<g id="a_Node000009"><a xlink:title=" ">
<polygon fill="#e0e0e0" stroke="#999999" points="462.5,-74 412.5,-74 412.5,-55 462.5,-55 462.5,-74"/>
<text text-anchor="middle" x="437.5" y="-62" font-family="Helvetica,sans-Serif" font-size="10.00">tchar.h</text>
</a>
</g>
</g>
<!-- Node2&#45;&gt;Node9 -->
<g id="edge8_Node000002_Node000009" class="edge">
<title>Node2&#45;&gt;Node9</title>
<g id="a_edge8_Node000002_Node000009"><a xlink:title=" ">
<path fill="none" stroke="#63b8ff" d="M405.77,-109.75C411.09,-102.34 418.86,-91.5 425.38,-82.41"/>
<polygon fill="#63b8ff" stroke="#63b8ff" points="428.36,-84.26 431.34,-74.09 422.67,-80.18 428.36,-84.26"/>
</a>
</g>
</g>
<!-- Node10 -->
<g id="Node000010" class="node">
<title>Node10</title>
<g id="a_Node000010"><a xlink:title=" ">
<polygon fill="#e0e0e0" stroke="#999999" points="552.5,-74 480.5,-74 480.5,-55 552.5,-55 552.5,-74"/>
<text text-anchor="middle" x="516.5" y="-62" font-family="Helvetica,sans-Serif" font-size="10.00">commctrl.h</text>
</a>
</g>
</g>
<!-- Node2&#45;&gt;Node10 -->
<g id="edge9_Node000002_Node000010" class="edge">
<title>Node2&#45;&gt;Node10</title>
<g id="a_edge9_Node000002_Node000010"><a xlink:title=" ">
<path fill="none" stroke="#63b8ff" d="M418.3,-109.98C437.12,-101.46 466.32,-88.23 488,-78.41"/>
<polygon fill="#63b8ff" stroke="#63b8ff" points="489.7,-81.48 497.36,-74.17 486.81,-75.11 489.7,-81.48"/>
</a>
</g>
</g>
<!-- Node11 -->
<g id="Node000011" class="node">
<title>Node11</title>
<g id="a_Node000011"><a xlink:title=" ">
<polygon fill="#e0e0e0" stroke="#999999" points="692.5,-74 648.5,-74 648.5,-55 692.5,-55 692.5,-74"/>
<text text-anchor="middle" x="670.5" y="-62" font-family="Helvetica,sans-Serif" font-size="10.00">string</text>
</a>
</g>
</g>
<!-- Node2&#45;&gt;Node11 -->
<g id="edge10_Node000002_Node000011" class="edge">
<title>Node2&#45;&gt;Node11</title>
<g id="a_edge10_Node000002_Node000011"><a xlink:title=" ">
<path fill="none" stroke="#63b8ff" d="M439.21,-112.19C484.92,-104.7 562.46,-91.28 638.04,-74.18"/>
<polygon fill="#63b8ff" stroke="#63b8ff" points="639.24,-77.5 648.21,-71.85 637.68,-70.67 639.24,-77.5"/>
</a>
</g>
</g>
<!-- Node12 -->
<g id="Node000012" class="node">
<title>Node12</title>
<g id="a_Node000012"><a xlink:title=" ">
<polygon fill="#e0e0e0" stroke="#999999" points="630.5,-74 570.5,-74 570.5,-55 630.5,-55 630.5,-74"/>
<text text-anchor="middle" x="600.5" y="-62" font-family="Helvetica,sans-Serif" font-size="10.00">iostream</text>
</a>
</g>
</g>
<!-- Node2&#45;&gt;Node12 -->
<g id="edge11_Node000002_Node000012" class="edge">
<title>Node2&#45;&gt;Node12</title>
<g id="a_edge11_Node000002_Node000012"><a xlink:title=" ">
<path fill="none" stroke="#63b8ff" d="M431.79,-109.98C466.69,-100.78 522.35,-86.11 560.11,-76.15"/>
<polygon fill="#63b8ff" stroke="#63b8ff" points="561.48,-79.41 570.26,-73.47 559.7,-72.64 561.48,-79.41"/>
</a>
</g>
</g>
<!-- Node4 -->
<g id="Node000004" class="node">
<title>Node4</title>
<g id="a_Node000004"><a xlink:title=" ">
<polygon fill="#e0e0e0" stroke="#999999" points="83,-19 0,-19 0,0 83,0 83,-19"/>
<text text-anchor="middle" x="41.5" y="-7" font-family="Helvetica,sans-Serif" font-size="10.00">SDKDDKVer.h</text>
</a>
</g>
</g>
<!-- Node3&#45;&gt;Node4 -->
<g id="edge3_Node000003_Node000004" class="edge">
<title>Node3&#45;&gt;Node4</title>
<g id="a_edge3_Node000003_Node000004"><a xlink:title=" ">
<path fill="none" stroke="#63b8ff" d="M41.5,-54.75C41.5,-47.8 41.5,-37.85 41.5,-29.13"/>
<polygon fill="#63b8ff" stroke="#63b8ff" points="45,-29.09 41.5,-19.09 38,-29.09 45,-29.09"/>
</a>
</g>
</g>
<!-- Node13&#45;&gt;Node2 -->
<g id="edge13_Node000013_Node000002" class="edge">
<title>Node13&#45;&gt;Node2</title>
<g id="a_edge13_Node000013_Node000002"><a xlink:title=" ">
<path fill="none" stroke="#63b8ff" d="M484.88,-219.98C471.21,-211.99 451.43,-199.03 437.5,-184 424.83,-170.34 414.32,-151.77 407.59,-138.25"/>
<polygon fill="#63b8ff" stroke="#63b8ff" points="410.67,-136.57 403.21,-129.05 404.35,-139.58 410.67,-136.57"/>
</a>
</g>
</g>
<!-- Node14 -->
<g id="Node000014" class="node">
<title>Node14</title>
<g id="a_Node000014"><a xlink:href="GeoParsingTask_8h.html" target="_top" xlink:title="Déclaration de la tâche de parsing GeoJSON asynchrone.">
<polygon fill="white" stroke="#666666" points="592.5,-184 446.5,-184 446.5,-165 592.5,-165 592.5,-184"/>
<text text-anchor="middle" x="519.5" y="-172" font-family="Helvetica,sans-Serif" font-size="10.00">Modules/GeoParsingTask.h</text>
</a>
</g>
</g>
<!-- Node13&#45;&gt;Node14 -->
<g id="edge14_Node000013_Node000014" class="edge">
<title>Node13&#45;&gt;Node14</title>
<g id="a_edge14_Node000013_Node000014"><a xlink:title=" ">
<path fill="none" stroke="#63b8ff" d="M503.64,-219.75C506.18,-212.65 509.86,-202.4 513.03,-193.56"/>
<polygon fill="#63b8ff" stroke="#63b8ff" points="516.34,-194.68 516.42,-184.09 509.75,-192.32 516.34,-194.68"/>
</a>
</g>
</g>
<!-- Node15 -->
<g id="Node000015" class="node">
<title>Node15</title>
<g id="a_Node000015"><a xlink:href="ProgressBar_8h.html" target="_top" xlink:title="Wrapper minimaliste d&#39;une ProgressBar Win32.">
<polygon fill="white" stroke="#666666" points="752.5,-184 610.5,-184 610.5,-165 752.5,-165 752.5,-184"/>
<text text-anchor="middle" x="681.5" y="-172" font-family="Helvetica,sans-Serif" font-size="10.00">Engine/HMI/ProgressBar.h</text>
</a>
</g>
</g>
<!-- Node13&#45;&gt;Node15 -->
<g id="edge17_Node000013_Node000015" class="edge">
<title>Node13&#45;&gt;Node15</title>
<g id="a_edge17_Node000013_Node000015"><a xlink:title=" ">
<path fill="none" stroke="#63b8ff" d="M529.58,-219.98C560.1,-211.05 608.26,-196.94 642.16,-187.02"/>
<polygon fill="#63b8ff" stroke="#63b8ff" points="643.58,-190.25 652.19,-184.08 641.61,-183.53 643.58,-190.25"/>
</a>
</g>
</g>
<!-- Node14&#45;&gt;Node2 -->
<g id="edge15_Node000014_Node000002" class="edge">
<title>Node14&#45;&gt;Node2</title>
<g id="a_edge15_Node000014_Node000002"><a xlink:title=" ">
<path fill="none" stroke="#63b8ff" d="M500.22,-164.98C480.83,-156.42 450.69,-143.11 428.43,-133.28"/>
<polygon fill="#63b8ff" stroke="#63b8ff" points="429.69,-130.01 419.13,-129.17 426.86,-136.41 429.69,-130.01"/>
</a>
</g>
</g>
<!-- Node14&#45;&gt;Node11 -->
<g id="edge16_Node000014_Node000011" class="edge">
<title>Node14&#45;&gt;Node11</title>
<g id="a_edge16_Node000014_Node000011"><a xlink:title=" ">
<path fill="none" stroke="#63b8ff" d="M531.6,-164.84C557.45,-146.36 618.27,-102.86 650.16,-80.05"/>
<polygon fill="#63b8ff" stroke="#63b8ff" points="652.24,-82.86 658.34,-74.2 648.17,-77.17 652.24,-82.86"/>
</a>
</g>
</g>
</g>
</svg>
