<?xml version="1.0" encoding="UTF-8" standalone="no"?>
<!DOCTYPE svg PUBLIC "-//W3C//DTD SVG 1.1//EN"
 "http://www.w3.org/Graphics/SVG/1.1/DTD/svg11.dtd">
<!-- Generated by graphviz version 2.43.0 (0)
 -->
<!-- Title: SimulateurFerroviaire/Engine/Core/Application.cpp Pages: 1 -->
<svg width="1081pt" height="390pt"
 viewBox="0.00 0.00 1080.50 390.00" xmlns="http://www.w3.org/2000/svg" xmlns:xlink="http://www.w3.org/1999/xlink">
<g id="graph0" class="graph" transform="scale(1 1) rotate(0) translate(4 386)">
<title>SimulateurFerroviaire/Engine/Core/Application.cpp</title>
<!-- Node1 -->
<g id="Node000001" class="node">
<title>Node1</title>
<g id="a_Node000001"><a xlink:title="Implémentation du cycle de vie de l&#39;application Win32.">
<polygon fill="#999999" stroke="#666666" points="955,-382 799,-382 799,-352 955,-352 955,-382"/>
<text text-anchor="start" x="807" y="-370" font-family="Helvetica,sans-Serif" font-size="10.00">SimulateurFerroviaire</text>
<text text-anchor="middle" x="877" y="-359" font-family="Helvetica,sans-Serif" font-size="10.00">/Engine/Core/Application.cpp</text>
</a>
</g>
</g>
<!-- Node2 -->
<g id="Node000002" class="node">
<title>Node2</title>
<g id="a_Node000002"><a xlink:href="framework_8h.html" target="_top" xlink:title=" ">
<polygon fill="white" stroke="#666666" points="752.5,-134.5 673.5,-134.5 673.5,-115.5 752.5,-115.5 752.5,-134.5"/>
<text text-anchor="middle" x="713" y="-122.5" font-family="Helvetica,sans-Serif" font-size="10.00">framework.h</text>
</a>
</g>
</g>
<!-- Node1&#45;&gt;Node2 -->
<g id="edge1_Node000001_Node000002" class="edge">
<title>Node1&#45;&gt;Node2</title>
<g id="a_edge1_Node000001_Node000002"><a xlink:title=" ">
<path fill="none" stroke="#63b8ff" d="M868.77,-351.64C863.12,-341.68 855.49,-328.1 849,-316 831.52,-283.42 831.51,-272.76 811,-242 785.46,-203.68 749.14,-163.64 728.65,-142.08"/>
<polygon fill="#63b8ff" stroke="#63b8ff" points="731.08,-139.55 721.63,-134.76 726.02,-144.4 731.08,-139.55"/>
</a>
</g>
</g>
<!-- Node13 -->
<g id="Node000013" class="node">
<title>Node13</title>
<g id="a_Node000013"><a xlink:href="Application_8h.html" target="_top" xlink:title="Gestion du cycle de vie de l&#39;application Win32.">
<polygon fill="white" stroke="#666666" points="779,-316 699,-316 699,-297 779,-297 779,-316"/>
<text text-anchor="middle" x="739" y="-304" font-family="Helvetica,sans-Serif" font-size="10.00">Application.h</text>
</a>
</g>
</g>
<!-- Node1&#45;&gt;Node13 -->
<g id="edge12_Node000001_Node000013" class="edge">
<title>Node1&#45;&gt;Node13</title>
<g id="a_edge12_Node000001_Node000013"><a xlink:title=" ">
<path fill="none" stroke="#63b8ff" d="M843.95,-351.99C821.02,-342.27 790.76,-329.44 768.62,-320.06"/>
<polygon fill="#63b8ff" stroke="#63b8ff" points="769.95,-316.82 759.38,-316.14 767.22,-323.26 769.95,-316.82"/>
</a>
</g>
</g>
<!-- Node28 -->
<g id="Node000028" class="node">
<title>Node28</title>
<g id="a_Node000028"><a xlink:href="SimulateurFerroviaire_8h.html" target="_top" xlink:title=" ">
<polygon fill="white" stroke="#666666" points="989.5,-316 858.5,-316 858.5,-297 989.5,-297 989.5,-316"/>
<text text-anchor="middle" x="924" y="-304" font-family="Helvetica,sans-Serif" font-size="10.00">SimulateurFerroviaire.h</text>
</a>
</g>
</g>
<!-- Node1&#45;&gt;Node28 -->
<g id="edge35_Node000001_Node000028" class="edge">
<title>Node1&#45;&gt;Node28</title>
<g id="a_edge35_Node000001_Node000028"><a xlink:title=" ">
<path fill="none" stroke="#63b8ff" d="M888.38,-351.84C895.06,-343.52 903.55,-332.96 910.56,-324.23"/>
<polygon fill="#63b8ff" stroke="#63b8ff" points="913.42,-326.25 916.96,-316.27 907.97,-321.87 913.42,-326.25"/>
</a>
</g>
</g>
<!-- Node30 -->
<g id="Node000030" class="node">
<title>Node30</title>
<g id="a_Node000030"><a xlink:title=" ">
<polygon fill="#e0e0e0" stroke="#999999" points="1072.5,-316 1007.5,-316 1007.5,-297 1072.5,-297 1072.5,-316"/>
<text text-anchor="middle" x="1040" y="-304" font-family="Helvetica,sans-Serif" font-size="10.00">stdexcept</text>
</a>
</g>
</g>
<!-- Node1&#45;&gt;Node30 -->
<g id="edge37_Node000001_Node000030" class="edge">
<title>Node1&#45;&gt;Node30</title>
<g id="a_edge37_Node000001_Node000030"><a xlink:title=" ">
<path fill="none" stroke="#63b8ff" d="M916.04,-351.99C943.6,-342.1 980.15,-328.98 1006.41,-319.56"/>
<polygon fill="#63b8ff" stroke="#63b8ff" points="1007.7,-322.81 1015.93,-316.14 1005.33,-316.22 1007.7,-322.81"/>
</a>
</g>
</g>
<!-- Node3 -->
<g id="Node000003" class="node">
<title>Node3</title>
<g id="a_Node000003"><a xlink:href="targetver_8h.html" target="_top" xlink:title=" ">
<polygon fill="white" stroke="#666666" points="594,-74 524,-74 524,-55 594,-55 594,-74"/>
<text text-anchor="middle" x="559" y="-62" font-family="Helvetica,sans-Serif" font-size="10.00">targetver.h</text>
</a>
</g>
</g>
<!-- Node2&#45;&gt;Node3 -->
<g id="edge2_Node000002_Node000003" class="edge">
<title>Node2&#45;&gt;Node3</title>
<g id="a_edge2_Node000002_Node000003"><a xlink:title=" ">
<path fill="none" stroke="#63b8ff" d="M690.61,-115.49C664.38,-105.53 620.72,-88.95 590.94,-77.63"/>
<polygon fill="#63b8ff" stroke="#63b8ff" points="592.01,-74.3 581.42,-74.02 589.53,-80.84 592.01,-74.3"/>
</a>
</g>
</g>
<!-- Node5 -->
<g id="Node000005" class="node">
<title>Node5</title>
<g id="a_Node000005"><a xlink:title=" ">
<polygon fill="#e0e0e0" stroke="#999999" points="506,-74 438,-74 438,-55 506,-55 506,-74"/>
<text text-anchor="middle" x="472" y="-62" font-family="Helvetica,sans-Serif" font-size="10.00">windows.h</text>
</a>
</g>
</g>
<!-- Node2&#45;&gt;Node5 -->
<g id="edge4_Node000002_Node000005" class="edge">
<title>Node2&#45;&gt;Node5</title>
<g id="a_edge4_Node000002_Node000005"><a xlink:title=" ">
<path fill="none" stroke="#63b8ff" d="M677.96,-115.49C635.14,-105.1 562.68,-87.51 516.12,-76.21"/>
<polygon fill="#63b8ff" stroke="#63b8ff" points="516.85,-72.78 506.31,-73.83 515.2,-79.59 516.85,-72.78"/>
</a>
</g>
</g>
<!-- Node6 -->
<g id="Node000006" class="node">
<title>Node6</title>
<g id="a_Node000006"><a xlink:title=" ">
<polygon fill="#e0e0e0" stroke="#999999" points="665.5,-74 612.5,-74 612.5,-55 665.5,-55 665.5,-74"/>
<text text-anchor="middle" x="639" y="-62" font-family="Helvetica,sans-Serif" font-size="10.00">stdlib.h</text>
</a>
</g>
</g>
<!-- Node2&#45;&gt;Node6 -->
<g id="edge5_Node000002_Node000006" class="edge">
<title>Node2&#45;&gt;Node6</title>
<g id="a_edge5_Node000002_Node000006"><a xlink:title=" ">
<path fill="none" stroke="#63b8ff" d="M702.08,-115.37C690.49,-106.21 671.97,-91.56 657.98,-80.51"/>
<polygon fill="#63b8ff" stroke="#63b8ff" points="659.98,-77.62 649.96,-74.17 655.64,-83.11 659.98,-77.62"/>
</a>
</g>
</g>
<!-- Node7 -->
<g id="Node000007" class="node">
<title>Node7</title>
<g id="a_Node000007"><a xlink:title=" ">
<polygon fill="#e0e0e0" stroke="#999999" points="742.5,-74 683.5,-74 683.5,-55 742.5,-55 742.5,-74"/>
<text text-anchor="middle" x="713" y="-62" font-family="Helvetica,sans-Serif" font-size="10.00">malloc.h</text>
</a>
</g>
</g>
<!-- Node2&#45;&gt;Node7 -->
<g id="edge6_Node000002_Node000007" class="edge">
<title>Node2&#45;&gt;Node7</title>
<g id="a_edge6_Node000002_Node000007"><a xlink:title=" ">
<path fill="none" stroke="#63b8ff" d="M713,-115.37C713,-107.25 713,-94.81 713,-84.39"/>
<polygon fill="#63b8ff" stroke="#63b8ff" points="716.5,-84.17 713,-74.17 709.5,-84.17 716.5,-84.17"/>
</a>
</g>
</g>
<!-- Node8 -->
<g id="Node000008" class="node">
<title>Node8</title>
<g id="a_Node000008"><a xlink:title=" ">
<polygon fill="#e0e0e0" stroke="#999999" points="825.5,-74 760.5,-74 760.5,-55 825.5,-55 825.5,-74"/>
<text text-anchor="middle" x="793" y="-62" font-family="Helvetica,sans-Serif" font-size="10.00">memory.h</text>
</a>
</g>
</g>
<!-- Node2&#45;&gt;Node8 -->
<g id="edge7_Node000002_Node000008" class="edge">
<title>Node2&#45;&gt;Node8</title>
<g id="a_edge7_Node000002_Node000008"><a xlink:title=" ">
<path fill="none" stroke="#63b8ff" d="M724.8,-115.37C737.45,-106.12 757.74,-91.28 772.91,-80.19"/>
<polygon fill="#63b8ff" stroke="#63b8ff" points="775.14,-82.9 781.15,-74.17 771.01,-77.24 775.14,-82.9"/>
</a>
</g>
</g>
<!-- Node9 -->
<g id="Node000009" class="node">
<title>Node9</title>
<g id="a_Node000009"><a xlink:title=" ">
<polygon fill="#e0e0e0" stroke="#999999" points="894,-74 844,-74 844,-55 894,-55 894,-74"/>
<text text-anchor="middle" x="869" y="-62" font-family="Helvetica,sans-Serif" font-size="10.00">tchar.h</text>
</a>
</g>
</g>
<!-- Node2&#45;&gt;Node9 -->
<g id="edge8_Node000002_Node000009" class="edge">
<title>Node2&#45;&gt;Node9</title>
<g id="a_edge8_Node000002_Node000009"><a xlink:title=" ">
<path fill="none" stroke="#63b8ff" d="M735.68,-115.49C762.26,-105.53 806.48,-88.95 836.64,-77.63"/>
<polygon fill="#63b8ff" stroke="#63b8ff" points="838.15,-80.81 846.29,-74.02 835.7,-74.25 838.15,-80.81"/>
</a>
</g>
</g>
<!-- Node10 -->
<g id="Node000010" class="node">
<title>Node10</title>
<g id="a_Node000010"><a xlink:title=" ">
<polygon fill="#e0e0e0" stroke="#999999" points="984,-74 912,-74 912,-55 984,-55 984,-74"/>
<text text-anchor="middle" x="948" y="-62" font-family="Helvetica,sans-Serif" font-size="10.00">commctrl.h</text>
</a>
</g>
</g>
<!-- Node2&#45;&gt;Node10 -->
<g id="edge9_Node000002_Node000010" class="edge">
<title>Node2&#45;&gt;Node10</title>
<g id="a_edge9_Node000002_Node000010"><a xlink:title=" ">
<path fill="none" stroke="#63b8ff" d="M747.17,-115.49C788.59,-105.18 858.48,-87.78 903.92,-76.47"/>
<polygon fill="#63b8ff" stroke="#63b8ff" points="904.93,-79.83 913.79,-74.02 903.24,-73.04 904.93,-79.83"/>
</a>
</g>
</g>
<!-- Node11 -->
<g id="Node000011" class="node">
<title>Node11</title>
<g id="a_Node000011"><a xlink:title=" ">
<polygon fill="#e0e0e0" stroke="#999999" points="415,-74 371,-74 371,-55 415,-55 415,-74"/>
<text text-anchor="middle" x="393" y="-62" font-family="Helvetica,sans-Serif" font-size="10.00">string</text>
</a>
</g>
</g>
<!-- Node2&#45;&gt;Node11 -->
<g id="edge10_Node000002_Node000011" class="edge">
<title>Node2&#45;&gt;Node11</title>
<g id="a_edge10_Node000002_Node000011"><a xlink:title=" ">
<path fill="none" stroke="#63b8ff" d="M673.35,-117.76C618.33,-108.93 515.79,-91.87 429,-74 427.73,-73.74 426.43,-73.46 425.12,-73.18"/>
<polygon fill="#63b8ff" stroke="#63b8ff" points="425.56,-69.69 415.04,-70.92 424.03,-76.52 425.56,-69.69"/>
</a>
</g>
</g>
<!-- Node12 -->
<g id="Node000012" class="node">
<title>Node12</title>
<g id="a_Node000012"><a xlink:title=" ">
<polygon fill="#e0e0e0" stroke="#999999" points="1062,-74 1002,-74 1002,-55 1062,-55 1062,-74"/>
<text text-anchor="middle" x="1032" y="-62" font-family="Helvetica,sans-Serif" font-size="10.00">iostream</text>
</a>
</g>
</g>
<!-- Node2&#45;&gt;Node12 -->
<g id="edge11_Node000002_Node000012" class="edge">
<title>Node2&#45;&gt;Node12</title>
<g id="a_edge11_Node000002_Node000012"><a xlink:title=" ">
<path fill="none" stroke="#63b8ff" d="M752.5,-117.43C804.9,-108.61 900.48,-92.15 991.82,-74.17"/>
<polygon fill="#63b8ff" stroke="#63b8ff" points="992.66,-77.58 1001.79,-72.2 991.3,-70.71 992.66,-77.58"/>
</a>
</g>
</g>
<!-- Node4 -->
<g id="Node000004" class="node">
<title>Node4</title>
<g id="a_Node000004"><a xlink:title=" ">
<polygon fill="#e0e0e0" stroke="#999999" points="600.5,-19 517.5,-19 517.5,0 600.5,0 600.5,-19"/>
<text text-anchor="middle" x="559" y="-7" font-family="Helvetica,sans-Serif" font-size="10.00">SDKDDKVer.h</text>
</a>
</g>
</g>
<!-- Node3&#45;&gt;Node4 -->
<g id="edge3_Node000003_Node000004" class="edge">
<title>Node3&#45;&gt;Node4</title>
<g id="a_edge3_Node000003_Node000004"><a xlink:title=" ">
<path fill="none" stroke="#63b8ff" d="M559,-54.75C559,-47.8 559,-37.85 559,-29.13"/>
<polygon fill="#63b8ff" stroke="#63b8ff" points="562.5,-29.09 559,-19.09 555.5,-29.09 562.5,-29.09"/>
</a>
</g>
</g>
<!-- Node13&#45;&gt;Node2 -->
<g id="edge13_Node000013_Node000002" class="edge">
<title>Node13&#45;&gt;Node2</title>
<g id="a_edge13_Node000013_Node000002"><a xlink:title=" ">
<path fill="none" stroke="#63b8ff" d="M737.75,-296.84C733.76,-269.3 721.29,-183.26 715.73,-144.84"/>
<polygon fill="#63b8ff" stroke="#63b8ff" points="719.14,-143.97 714.24,-134.57 712.21,-144.97 719.14,-143.97"/>
</a>
</g>
</g>
<!-- Node14 -->
<g id="Node000014" class="node">
<title>Node14</title>
<g id="a_Node000014"><a xlink:href="MainWindow_8h.html" target="_top" xlink:title="Déclaration de la fenêtre principale de l&#39;application.">
<polygon fill="white" stroke="#666666" points="552,-261 406,-261 406,-242 552,-242 552,-261"/>
<text text-anchor="middle" x="479" y="-249" font-family="Helvetica,sans-Serif" font-size="10.00">Engine/HMI/MainWindow.h</text>
</a>
</g>
</g>
<!-- Node13&#45;&gt;Node14 -->
<g id="edge14_Node000013_Node000014" class="edge">
<title>Node13&#45;&gt;Node14</title>
<g id="a_edge14_Node000013_Node000014"><a xlink:title=" ">
<path fill="none" stroke="#63b8ff" d="M698.94,-297.33C653.77,-288.13 580.17,-273.12 530.69,-263.04"/>
<polygon fill="#63b8ff" stroke="#63b8ff" points="531.32,-259.59 520.82,-261.03 529.92,-266.45 531.32,-259.59"/>
</a>
</g>
</g>
<!-- Node27 -->
<g id="Node000027" class="node">
<title>Node27</title>
<g id="a_Node000027"><a xlink:title=" ">
<polygon fill="#e0e0e0" stroke="#999999" points="802,-261 744,-261 744,-242 802,-242 802,-261"/>
<text text-anchor="middle" x="773" y="-249" font-family="Helvetica,sans-Serif" font-size="10.00">memory</text>
</a>
</g>
</g>
<!-- Node13&#45;&gt;Node27 -->
<g id="edge34_Node000013_Node000027" class="edge">
<title>Node13&#45;&gt;Node27</title>
<g id="a_edge34_Node000013_Node000027"><a xlink:title=" ">
<path fill="none" stroke="#63b8ff" d="M744.61,-296.75C749.32,-289.42 756.17,-278.73 761.97,-269.7"/>
<polygon fill="#63b8ff" stroke="#63b8ff" points="765.04,-271.4 767.49,-261.09 759.14,-267.62 765.04,-271.4"/>
</a>
</g>
</g>
<!-- Node14&#45;&gt;Node2 -->
<g id="edge15_Node000014_Node000002" class="edge">
<title>Node14&#45;&gt;Node2</title>
<g id="a_edge15_Node000014_Node000002"><a xlink:title=" ">
<path fill="none" stroke="#63b8ff" d="M552.38,-244.61C587.18,-238.91 627.86,-227.75 659,-206 681.38,-190.37 697.15,-162.23 705.65,-143.83"/>
<polygon fill="#63b8ff" stroke="#63b8ff" points="708.92,-145.09 709.72,-134.53 702.51,-142.29 708.92,-145.09"/>
</a>
</g>
</g>
<!-- Node15 -->
<g id="Node000015" class="node">
<title>Node15</title>
<g id="a_Node000015"><a xlink:href="GeoParsingTask_8h.html" target="_top" xlink:title="Déclaration de la tâche de parsing GeoJSON asynchrone.">
<polygon fill="white" stroke="#666666" points="650,-206 482,-206 482,-176 650,-176 650,-206"/>
<text text-anchor="start" x="490" y="-194" font-family="Helvetica,sans-Serif" font-size="10.00">Modules/GeoParser/GeoParsing</text>
<text text-anchor="middle" x="566" y="-183" font-family="Helvetica,sans-Serif" font-size="10.00">Task.h</text>
</a>
</g>
</g>
<!-- Node14&#45;&gt;Node15 -->
<g id="edge16_Node000014_Node000015" class="edge">
<title>Node14&#45;&gt;Node15</title>
<g id="a_edge16_Node000014_Node000015"><a xlink:title=" ">
<path fill="none" stroke="#63b8ff" d="M491.84,-241.87C503.53,-234 521.25,-222.09 536.43,-211.89"/>
<polygon fill="#63b8ff" stroke="#63b8ff" points="538.66,-214.6 545.01,-206.11 534.76,-208.79 538.66,-214.6"/>
</a>
</g>
</g>
<!-- Node16 -->
<g id="Node000016" class="node">
<title>Node16</title>
<g id="a_Node000016"><a xlink:href="ProgressBar_8h.html" target="_top" xlink:title="Wrapper minimaliste d&#39;une ProgressBar Win32.">
<polygon fill="white" stroke="#666666" points="300,-200.5 158,-200.5 158,-181.5 300,-181.5 300,-200.5"/>
<text text-anchor="middle" x="229" y="-188.5" font-family="Helvetica,sans-Serif" font-size="10.00">Engine/HMI/ProgressBar.h</text>
</a>
</g>
</g>
<!-- Node14&#45;&gt;Node16 -->
<g id="edge19_Node000014_Node000016" class="edge">
<title>Node14&#45;&gt;Node16</title>
<g id="a_edge19_Node000014_Node000016"><a xlink:title=" ">
<path fill="none" stroke="#63b8ff" d="M442.65,-241.99C398.4,-231.64 323.61,-214.14 275.29,-202.83"/>
<polygon fill="#63b8ff" stroke="#63b8ff" points="275.93,-199.39 265.4,-200.52 274.34,-206.2 275.93,-199.39"/>
</a>
</g>
</g>
<!-- Node17 -->
<g id="Node000017" class="node">
<title>Node17</title>
<g id="a_Node000017"><a xlink:href="WebViewPanel_8h.html" target="_top" xlink:title=" ">
<polygon fill="white" stroke="#666666" points="464,-206 318,-206 318,-176 464,-176 464,-206"/>
<text text-anchor="start" x="326" y="-194" font-family="Helvetica,sans-Serif" font-size="10.00">Engine/HMI/WebViewPanel</text>
<text text-anchor="middle" x="391" y="-183" font-family="Helvetica,sans-Serif" font-size="10.00">/WebViewPanel.h</text>
</a>
</g>
</g>
<!-- Node14&#45;&gt;Node17 -->
<g id="edge20_Node000014_Node000017" class="edge">
<title>Node14&#45;&gt;Node17</title>
<g id="a_edge20_Node000014_Node000017"><a xlink:title=" ">
<path fill="none" stroke="#63b8ff" d="M466.02,-241.87C454.19,-234 436.27,-222.09 420.91,-211.89"/>
<polygon fill="#63b8ff" stroke="#63b8ff" points="422.5,-208.74 412.23,-206.11 418.62,-214.57 422.5,-208.74"/>
</a>
</g>
</g>
<!-- Node21 -->
<g id="Node000021" class="node">
<title>Node21</title>
<g id="a_Node000021"><a xlink:href="Logger_8h.html" target="_top" xlink:title="Système de journalisation à 5 niveaux de trace, un fichier par moteur.">
<polygon fill="white" stroke="#666666" points="225.5,-140 114.5,-140 114.5,-110 225.5,-110 225.5,-140"/>
<text text-anchor="start" x="122.5" y="-128" font-family="Helvetica,sans-Serif" font-size="10.00">Engine/Core/Logger</text>
<text text-anchor="middle" x="170" y="-117" font-family="Helvetica,sans-Serif" font-size="10.00">/Logger.h</text>
</a>
</g>
</g>
<!-- Node14&#45;&gt;Node21 -->
<g id="edge33_Node000014_Node000021" class="edge">
<title>Node14&#45;&gt;Node21</title>
<g id="a_edge33_Node000014_Node000021"><a xlink:title=" ">
<path fill="none" stroke="#63b8ff" d="M405.92,-251.36C319.04,-250.63 181.67,-243.38 149,-206 135.16,-190.17 144.03,-166.26 154.15,-148.71"/>
<polygon fill="#63b8ff" stroke="#63b8ff" points="157.15,-150.52 159.45,-140.18 151.2,-146.83 157.15,-150.52"/>
</a>
</g>
</g>
<!-- Node15&#45;&gt;Node2 -->
<g id="edge17_Node000015_Node000002" class="edge">
<title>Node15&#45;&gt;Node2</title>
<g id="a_edge17_Node000015_Node000002"><a xlink:title=" ">
<path fill="none" stroke="#63b8ff" d="M598.26,-175.95C623.93,-164.78 659.51,-149.29 684.22,-138.53"/>
<polygon fill="#63b8ff" stroke="#63b8ff" points="685.67,-141.72 693.44,-134.52 682.87,-135.3 685.67,-141.72"/>
</a>
</g>
</g>
<!-- Node15&#45;&gt;Node11 -->
<g id="edge18_Node000015_Node000011" class="edge">
<title>Node15&#45;&gt;Node11</title>
<g id="a_edge18_Node000015_Node000011"><a xlink:title=" ">
<path fill="none" stroke="#63b8ff" d="M559.45,-175.91C550.58,-158.22 533.14,-128.02 510,-110 496.37,-99.38 454.53,-84.78 424.78,-75.25"/>
<polygon fill="#63b8ff" stroke="#63b8ff" points="425.8,-71.9 415.21,-72.22 423.69,-78.58 425.8,-71.9"/>
</a>
</g>
</g>
<!-- Node17&#45;&gt;Node5 -->
<g id="edge21_Node000017_Node000005" class="edge">
<title>Node17&#45;&gt;Node5</title>
<g id="a_edge21_Node000017_Node000005"><a xlink:title=" ">
<path fill="none" stroke="#63b8ff" d="M460.58,-175.99C479.81,-168.58 498.53,-157.26 510,-140 522.73,-120.85 505.16,-96.87 489.91,-81.38"/>
<polygon fill="#63b8ff" stroke="#63b8ff" points="491.97,-78.5 482.32,-74.12 487.13,-83.56 491.97,-78.5"/>
</a>
</g>
</g>
<!-- Node17&#45;&gt;Node11 -->
<g id="edge22_Node000017_Node000011" class="edge">
<title>Node17&#45;&gt;Node11</title>
<g id="a_edge22_Node000017_Node000011"><a xlink:title=" ">
<path fill="none" stroke="#63b8ff" d="M377.64,-175.98C369.66,-166.61 360.27,-153.54 356,-140 351.99,-127.28 351.47,-122.54 356,-110 359.94,-99.09 367.86,-88.96 375.36,-81.14"/>
<polygon fill="#63b8ff" stroke="#63b8ff" points="377.84,-83.61 382.56,-74.13 372.95,-78.6 377.84,-83.61"/>
</a>
</g>
</g>
<!-- Node18 -->
<g id="Node000018" class="node">
<title>Node18</title>
<g id="a_Node000018"><a xlink:title=" ">
<polygon fill="#e0e0e0" stroke="#999999" points="406.5,-134.5 365.5,-134.5 365.5,-115.5 406.5,-115.5 406.5,-134.5"/>
<text text-anchor="middle" x="386" y="-122.5" font-family="Helvetica,sans-Serif" font-size="10.00">wrl.h</text>
</a>
</g>
</g>
<!-- Node17&#45;&gt;Node18 -->
<g id="edge23_Node000017_Node000018" class="edge">
<title>Node17&#45;&gt;Node18</title>
<g id="a_edge23_Node000017_Node000018"><a xlink:title=" ">
<path fill="none" stroke="#63b8ff" d="M389.89,-175.8C389.18,-166.7 388.25,-154.79 387.48,-144.9"/>
<polygon fill="#63b8ff" stroke="#63b8ff" points="390.96,-144.54 386.69,-134.84 383.98,-145.09 390.96,-144.54"/>
</a>
</g>
</g>
<!-- Node19 -->
<g id="Node000019" class="node">
<title>Node19</title>
<g id="a_Node000019"><a xlink:title=" ">
<polygon fill="#e0e0e0" stroke="#999999" points="501.5,-134.5 424.5,-134.5 424.5,-115.5 501.5,-115.5 501.5,-134.5"/>
<text text-anchor="middle" x="463" y="-122.5" font-family="Helvetica,sans-Serif" font-size="10.00">WebView2.h</text>
</a>
</g>
</g>
<!-- Node17&#45;&gt;Node19 -->
<g id="edge24_Node000017_Node000019" class="edge">
<title>Node17&#45;&gt;Node19</title>
<g id="a_edge24_Node000017_Node000019"><a xlink:title=" ">
<path fill="none" stroke="#63b8ff" d="M406.98,-175.8C418.31,-165.72 433.53,-152.19 445.25,-141.78"/>
<polygon fill="#63b8ff" stroke="#63b8ff" points="447.9,-144.1 453.05,-134.84 443.25,-138.87 447.9,-144.1"/>
</a>
</g>
</g>
<!-- Node20 -->
<g id="Node000020" class="node">
<title>Node20</title>
<g id="a_Node000020"><a xlink:title=" ">
<polygon fill="#e0e0e0" stroke="#999999" points="308.5,-134.5 243.5,-134.5 243.5,-115.5 308.5,-115.5 308.5,-134.5"/>
<text text-anchor="middle" x="276" y="-122.5" font-family="Helvetica,sans-Serif" font-size="10.00">functional</text>
</a>
</g>
</g>
<!-- Node17&#45;&gt;Node20 -->
<g id="edge25_Node000017_Node000020" class="edge">
<title>Node17&#45;&gt;Node20</title>
<g id="a_edge25_Node000017_Node000020"><a xlink:title=" ">
<path fill="none" stroke="#63b8ff" d="M365.76,-175.95C346.22,-165.08 319.32,-150.11 300.07,-139.4"/>
<polygon fill="#63b8ff" stroke="#63b8ff" points="301.74,-136.32 291.3,-134.52 298.34,-142.44 301.74,-136.32"/>
</a>
</g>
</g>
<!-- Node17&#45;&gt;Node21 -->
<g id="edge26_Node000017_Node000021" class="edge">
<title>Node17&#45;&gt;Node21</title>
<g id="a_edge26_Node000017_Node000021"><a xlink:title=" ">
<path fill="none" stroke="#63b8ff" d="M342.5,-175.95C308.82,-166.2 263.78,-153.16 228.16,-142.84"/>
<polygon fill="#63b8ff" stroke="#63b8ff" points="228.97,-139.43 218.39,-140.01 227.02,-146.16 228.97,-139.43"/>
</a>
</g>
</g>
<!-- Node21&#45;&gt;Node11 -->
<g id="edge32_Node000021_Node000011" class="edge">
<title>Node21&#45;&gt;Node11</title>
<g id="a_edge32_Node000021_Node000011"><a xlink:title=" ">
<path fill="none" stroke="#63b8ff" d="M223.41,-109.99C266.34,-98.73 325.19,-83.29 361.08,-73.87"/>
<polygon fill="#63b8ff" stroke="#63b8ff" points="362.22,-77.19 371,-71.27 360.44,-70.42 362.22,-77.19"/>
</a>
</g>
</g>
<!-- Node22 -->
<g id="Node000022" class="node">
<title>Node22</title>
<g id="a_Node000022"><a xlink:title=" ">
<polygon fill="#e0e0e0" stroke="#999999" points="44,-74 0,-74 0,-55 44,-55 44,-74"/>
<text text-anchor="middle" x="22" y="-62" font-family="Helvetica,sans-Serif" font-size="10.00">ctime</text>
</a>
</g>
</g>
<!-- Node21&#45;&gt;Node22 -->
<g id="edge27_Node000021_Node000022" class="edge">
<title>Node21&#45;&gt;Node22</title>
<g id="a_edge27_Node000021_Node000022"><a xlink:title=" ">
<path fill="none" stroke="#63b8ff" d="M134.55,-109.99C109.86,-100.23 77.22,-87.33 53.45,-77.93"/>
<polygon fill="#63b8ff" stroke="#63b8ff" points="54.44,-74.56 43.86,-74.14 51.87,-81.07 54.44,-74.56"/>
</a>
</g>
</g>
<!-- Node23 -->
<g id="Node000023" class="node">
<title>Node23</title>
<g id="a_Node000023"><a xlink:title=" ">
<polygon fill="#e0e0e0" stroke="#999999" points="204,-74 136,-74 136,-55 204,-55 204,-74"/>
<text text-anchor="middle" x="170" y="-62" font-family="Helvetica,sans-Serif" font-size="10.00">filesystem</text>
</a>
</g>
</g>
<!-- Node21&#45;&gt;Node23 -->
<g id="edge28_Node000021_Node000023" class="edge">
<title>Node21&#45;&gt;Node23</title>
<g id="a_edge28_Node000021_Node000023"><a xlink:title=" ">
<path fill="none" stroke="#63b8ff" d="M170,-109.84C170,-102.21 170,-92.7 170,-84.45"/>
<polygon fill="#63b8ff" stroke="#63b8ff" points="173.5,-84.27 170,-74.27 166.5,-84.27 173.5,-84.27"/>
</a>
</g>
</g>
<!-- Node24 -->
<g id="Node000024" class="node">
<title>Node24</title>
<g id="a_Node000024"><a xlink:title=" ">
<polygon fill="#e0e0e0" stroke="#999999" points="277.5,-74 222.5,-74 222.5,-55 277.5,-55 277.5,-74"/>
<text text-anchor="middle" x="250" y="-62" font-family="Helvetica,sans-Serif" font-size="10.00">fstream</text>
</a>
</g>
</g>
<!-- Node21&#45;&gt;Node24 -->
<g id="edge29_Node000021_Node000024" class="edge">
<title>Node21&#45;&gt;Node24</title>
<g id="a_edge29_Node000021_Node000024"><a xlink:title=" ">
<path fill="none" stroke="#63b8ff" d="M189.37,-109.84C201.57,-100.91 217.31,-89.41 229.69,-80.35"/>
<polygon fill="#63b8ff" stroke="#63b8ff" points="232.01,-82.99 238.01,-74.27 227.87,-77.34 232.01,-82.99"/>
</a>
</g>
</g>
<!-- Node25 -->
<g id="Node000025" class="node">
<title>Node25</title>
<g id="a_Node000025"><a xlink:title=" ">
<polygon fill="#e0e0e0" stroke="#999999" points="344,-74 296,-74 296,-55 344,-55 344,-74"/>
<text text-anchor="middle" x="320" y="-62" font-family="Helvetica,sans-Serif" font-size="10.00">mutex</text>
</a>
</g>
</g>
<!-- Node21&#45;&gt;Node25 -->
<g id="edge30_Node000021_Node000025" class="edge">
<title>Node21&#45;&gt;Node25</title>
<g id="a_edge30_Node000021_Node000025"><a xlink:title=" ">
<path fill="none" stroke="#63b8ff" d="M205.93,-109.99C231.07,-100.18 264.33,-87.21 288.45,-77.81"/>
<polygon fill="#63b8ff" stroke="#63b8ff" points="289.8,-81.03 297.85,-74.14 287.26,-74.51 289.8,-81.03"/>
</a>
</g>
</g>
<!-- Node26 -->
<g id="Node000026" class="node">
<title>Node26</title>
<g id="a_Node000026"><a xlink:title=" ">
<polygon fill="#e0e0e0" stroke="#999999" points="118,-74 62,-74 62,-55 118,-55 118,-74"/>
<text text-anchor="middle" x="90" y="-62" font-family="Helvetica,sans-Serif" font-size="10.00">sstream</text>
</a>
</g>
</g>
<!-- Node21&#45;&gt;Node26 -->
<g id="edge31_Node000021_Node000026" class="edge">
<title>Node21&#45;&gt;Node26</title>
<g id="a_edge31_Node000021_Node000026"><a xlink:title=" ">
<path fill="none" stroke="#63b8ff" d="M150.63,-109.84C138.43,-100.91 122.69,-89.41 110.31,-80.35"/>
<polygon fill="#63b8ff" stroke="#63b8ff" points="112.13,-77.34 101.99,-74.27 107.99,-82.99 112.13,-77.34"/>
</a>
</g>
</g>
<!-- Node29 -->
<g id="Node000029" class="node">
<title>Node29</title>
<g id="a_Node000029"><a xlink:title=" ">
<polygon fill="#e0e0e0" stroke="#999999" points="958,-261 890,-261 890,-242 958,-242 958,-261"/>
<text text-anchor="middle" x="924" y="-249" font-family="Helvetica,sans-Serif" font-size="10.00">resource.h</text>
</a>
</g>
</g>
<!-- Node28&#45;&gt;Node29 -->
<g id="edge36_Node000028_Node000029" class="edge">
<title>Node28&#45;&gt;Node29</title>
<g id="a_edge36_Node000028_Node000029"><a xlink:title=" ">
<path fill="none" stroke="#63b8ff" d="M924,-296.75C924,-289.8 924,-279.85 924,-271.13"/>
<polygon fill="#63b8ff" stroke="#63b8ff" points="927.5,-271.09 924,-261.09 920.5,-271.09 927.5,-271.09"/>
</a>
</g>
</g>
</g>
</svg>
