<?xml version="1.0" encoding="UTF-8" standalone="no"?>
<!DOCTYPE svg PUBLIC "-//W3C//DTD SVG 1.1//EN"
 "http://www.w3.org/Graphics/SVG/1.1/DTD/svg11.dtd">
<!-- Generated by graphviz version 2.43.0 (0)
 -->
<!-- Title: SwitchBlock::toggleActiveBranch Pages: 1 -->
<svg width="333pt" height="134pt"
 viewBox="0.00 0.00 333.00 134.00" xmlns="http://www.w3.org/2000/svg" xmlns:xlink="http://www.w3.org/1999/xlink">
<g id="graph0" class="graph" transform="scale(1 1) rotate(0) translate(4 130)">
<title>SwitchBlock::toggleActiveBranch</title>
<!-- Node1 -->
<g id="Node000001" class="node">
<title>Node1</title>
<g id="a_Node000001"><a xlink:title="Alterne entre NORMAL et DEVIATION. Équivalent à setActiveBranch(!current).">
<polygon fill="#999999" stroke="#666666" points="143,-78 0,-78 0,-48 143,-48 143,-78"/>
<text text-anchor="start" x="8" y="-66" font-family="Helvetica,sans-Serif" font-size="10.00">SwitchBlock::toggleActive</text>
<text text-anchor="middle" x="71.5" y="-55" font-family="Helvetica,sans-Serif" font-size="10.00">Branch</text>
</a>
</g>
</g>
<!-- Node2 -->
<g id="Node000002" class="node">
<title>Node2</title>
<g id="a_Node000002"><a xlink:href="classSwitchBlock.html#a4c252f2bb90dbe50b8c9d8e8de0fc5b5" target="_top" xlink:title="Convertit l&#39;état ActiveBranch courant en chaîne lisible. Utilisé exclusivement par les appels de log.">
<polygon fill="white" stroke="#666666" points="325,-126 179,-126 179,-96 325,-96 325,-126"/>
<text text-anchor="start" x="187" y="-114" font-family="Helvetica,sans-Serif" font-size="10.00">SwitchBlock::activeBranch</text>
<text text-anchor="middle" x="252" y="-103" font-family="Helvetica,sans-Serif" font-size="10.00">ToString</text>
</a>
</g>
</g>
<!-- Node1&#45;&gt;Node2 -->
<g id="edge1_Node000001_Node000002" class="edge">
<title>Node1&#45;&gt;Node2</title>
<g id="a_edge1_Node000001_Node000002"><a xlink:title=" ">
<path fill="none" stroke="#63b8ff" d="M128.49,-78.06C146.52,-82.9 166.65,-88.32 185.31,-93.34"/>
<polygon fill="#63b8ff" stroke="#63b8ff" points="184.64,-96.78 195.21,-96 186.46,-90.02 184.64,-96.78"/>
</a>
</g>
</g>
<!-- Node3 -->
<g id="Node000003" class="node">
<title>Node3</title>
<g id="a_Node000003"><a xlink:href="classSwitchBlock.html#af65a62f314ce4544ce687eacc13786e8" target="_top" xlink:title="Retourne le switch partenaire côté deviation, ou nullptr.">
<polygon fill="white" stroke="#666666" points="325,-78 179,-78 179,-48 325,-48 325,-78"/>
<text text-anchor="start" x="187" y="-66" font-family="Helvetica,sans-Serif" font-size="10.00">SwitchBlock::getPartnerOn</text>
<text text-anchor="middle" x="252" y="-55" font-family="Helvetica,sans-Serif" font-size="10.00">Deviation</text>
</a>
</g>
</g>
<!-- Node1&#45;&gt;Node3 -->
<g id="edge2_Node000001_Node000003" class="edge">
<title>Node1&#45;&gt;Node3</title>
<g id="a_edge2_Node000001_Node000003"><a xlink:title=" ">
<path fill="none" stroke="#63b8ff" d="M143.05,-63C151.52,-63 160.23,-63 168.86,-63"/>
<polygon fill="#63b8ff" stroke="#63b8ff" points="168.92,-66.5 178.92,-63 168.92,-59.5 168.92,-66.5"/>
</a>
</g>
</g>
<!-- Node4 -->
<g id="Node000004" class="node">
<title>Node4</title>
<g id="a_Node000004"><a xlink:href="classSwitchBlock.html#a72cf7392935372bed47bccc9c1feb096" target="_top" xlink:title="Retourne le switch partenaire côté normal, ou nullptr. Cast valide uniquement si isDouble() &amp;&amp; getDou...">
<polygon fill="white" stroke="#666666" points="325,-30 179,-30 179,0 325,0 325,-30"/>
<text text-anchor="start" x="187" y="-18" font-family="Helvetica,sans-Serif" font-size="10.00">SwitchBlock::getPartnerOn</text>
<text text-anchor="middle" x="252" y="-7" font-family="Helvetica,sans-Serif" font-size="10.00">Normal</text>
</a>
</g>
</g>
<!-- Node1&#45;&gt;Node4 -->
<g id="edge3_Node000001_Node000004" class="edge">
<title>Node1&#45;&gt;Node4</title>
<g id="a_edge3_Node000001_Node000004"><a xlink:title=" ">
<path fill="none" stroke="#63b8ff" d="M128.49,-47.94C146.52,-43.1 166.65,-37.68 185.31,-32.66"/>
<polygon fill="#63b8ff" stroke="#63b8ff" points="186.46,-35.98 195.21,-30 184.64,-29.22 186.46,-35.98"/>
</a>
</g>
</g>
</g>
</svg>
