<?xml version="1.0" encoding="UTF-8" standalone="no"?>
<!DOCTYPE svg PUBLIC "-//W3C//DTD SVG 1.1//EN"
 "http://www.w3.org/Graphics/SVG/1.1/DTD/svg11.dtd">
<!-- Generated by graphviz version 2.43.0 (0)
 -->
<!-- Title: GeoJsonExporter::renderSwitchBranches Pages: 1 -->
<svg width="384pt" height="321pt"
 viewBox="0.00 0.00 384.00 320.50" xmlns="http://www.w3.org/2000/svg" xmlns:xlink="http://www.w3.org/1999/xlink">
<g id="graph0" class="graph" transform="scale(1 1) rotate(0) translate(4 316.5)">
<title>GeoJsonExporter::renderSwitchBranches</title>
<!-- Node1 -->
<g id="Node000001" class="node">
<title>Node1</title>
<g id="a_Node000001"><a xlink:title="Construit l&#39;appel JS renderSwitchBranches(...) pour un switch.">
<polygon fill="#999999" stroke="#666666" points="167,-156.5 0,-156.5 0,-126.5 167,-126.5 167,-156.5"/>
<text text-anchor="start" x="8" y="-144.5" font-family="Helvetica,sans-Serif" font-size="10.00">GeoJsonExporter::renderSwitch</text>
<text text-anchor="middle" x="83.5" y="-133.5" font-family="Helvetica,sans-Serif" font-size="10.00">Branches</text>
</a>
</g>
</g>
<!-- Node2 -->
<g id="Node000002" class="node">
<title>Node2</title>
<g id="a_Node000002"><a xlink:href="classSwitchBlock.html#aaca37431800ae6145596cc436d93ab92" target="_top" xlink:title="Polyligne complète du segment absorbé côté deviation.">
<polygon fill="white" stroke="#666666" points="361,-312.5 218,-312.5 218,-282.5 361,-282.5 361,-312.5"/>
<text text-anchor="start" x="226" y="-300.5" font-family="Helvetica,sans-Serif" font-size="10.00">SwitchBlock::getAbsorbed</text>
<text text-anchor="middle" x="289.5" y="-289.5" font-family="Helvetica,sans-Serif" font-size="10.00">DeviationCoords</text>
</a>
</g>
</g>
<!-- Node1&#45;&gt;Node2 -->
<g id="edge1_Node000001_Node000002" class="edge">
<title>Node1&#45;&gt;Node2</title>
<g id="a_edge1_Node000001_Node000002"><a xlink:title=" ">
<path fill="none" stroke="#63b8ff" d="M93.88,-156.7C111.67,-184.24 153.05,-242.43 203,-273.5 205.66,-275.16 208.44,-276.7 211.3,-278.14"/>
<polygon fill="#63b8ff" stroke="#63b8ff" points="210.12,-281.45 220.68,-282.4 213.02,-275.08 210.12,-281.45"/>
</a>
</g>
</g>
<!-- Node3 -->
<g id="Node000003" class="node">
<title>Node3</title>
<g id="a_Node000003"><a xlink:href="classSwitchBlock.html#a1e0096ec969222b7244af2ad26f2be12" target="_top" xlink:title="Polyligne complète du segment absorbé côté normal.">
<polygon fill="white" stroke="#666666" points="361,-264.5 218,-264.5 218,-234.5 361,-234.5 361,-264.5"/>
<text text-anchor="start" x="226" y="-252.5" font-family="Helvetica,sans-Serif" font-size="10.00">SwitchBlock::getAbsorbed</text>
<text text-anchor="middle" x="289.5" y="-241.5" font-family="Helvetica,sans-Serif" font-size="10.00">NormalCoords</text>
</a>
</g>
</g>
<!-- Node1&#45;&gt;Node3 -->
<g id="edge2_Node000001_Node000003" class="edge">
<title>Node1&#45;&gt;Node3</title>
<g id="a_edge2_Node000001_Node000003"><a xlink:title=" ">
<path fill="none" stroke="#63b8ff" d="M101.76,-156.66C123.82,-175.32 163.85,-206.82 203,-225.5 207.1,-227.46 211.39,-229.28 215.78,-230.98"/>
<polygon fill="#63b8ff" stroke="#63b8ff" points="214.89,-234.38 225.48,-234.49 217.27,-227.8 214.89,-234.38"/>
</a>
</g>
</g>
<!-- Node4 -->
<g id="Node000004" class="node">
<title>Node4</title>
<g id="a_Node000004"><a xlink:href="classSwitchBlock.html#a4389341dc43ddfc247c34a160f1bbc7a" target="_top" xlink:title=" ">
<polygon fill="white" stroke="#666666" points="343,-216 236,-216 236,-197 343,-197 343,-216"/>
<text text-anchor="middle" x="289.5" y="-204" font-family="Helvetica,sans-Serif" font-size="10.00">SwitchBlock::getId</text>
</a>
</g>
</g>
<!-- Node1&#45;&gt;Node4 -->
<g id="edge3_Node000001_Node000004" class="edge">
<title>Node1&#45;&gt;Node4</title>
<g id="a_edge3_Node000001_Node000004"><a xlink:title=" ">
<path fill="none" stroke="#63b8ff" d="M119.27,-156.6C142.63,-166.35 174.28,-178.79 203,-187.5 211.46,-190.07 220.48,-192.45 229.38,-194.59"/>
<polygon fill="#63b8ff" stroke="#63b8ff" points="228.8,-198.05 239.34,-196.91 230.39,-191.23 228.8,-198.05"/>
</a>
</g>
</g>
<!-- Node5 -->
<g id="Node000005" class="node">
<title>Node5</title>
<g id="a_Node000005"><a xlink:href="classSwitchBlock.html#a17420e8225a0637a6d38b73bee7d2526" target="_top" xlink:title=" ">
<polygon fill="white" stroke="#666666" points="358,-178.5 221,-178.5 221,-148.5 358,-148.5 358,-178.5"/>
<text text-anchor="start" x="229" y="-166.5" font-family="Helvetica,sans-Serif" font-size="10.00">SwitchBlock::getJunction</text>
<text text-anchor="middle" x="289.5" y="-155.5" font-family="Helvetica,sans-Serif" font-size="10.00">Coordinate</text>
</a>
</g>
</g>
<!-- Node1&#45;&gt;Node5 -->
<g id="edge4_Node000001_Node000005" class="edge">
<title>Node1&#45;&gt;Node5</title>
<g id="a_edge4_Node000001_Node000005"><a xlink:title=" ">
<path fill="none" stroke="#63b8ff" d="M167.18,-150.42C181.49,-151.96 196.32,-153.56 210.5,-155.09"/>
<polygon fill="#63b8ff" stroke="#63b8ff" points="210.38,-158.6 220.7,-156.19 211.13,-151.64 210.38,-158.6"/>
</a>
</g>
</g>
<!-- Node6 -->
<g id="Node000006" class="node">
<title>Node6</title>
<g id="a_Node000006"><a xlink:href="classSwitchBlock.html#a6b66c9a47909473ed1952a1f6dfb7183" target="_top" xlink:title=" ">
<polygon fill="white" stroke="#666666" points="376,-130 203,-130 203,-111 376,-111 376,-130"/>
<text text-anchor="middle" x="289.5" y="-118" font-family="Helvetica,sans-Serif" font-size="10.00">SwitchBlock::getTipOnDeviation</text>
</a>
</g>
</g>
<!-- Node1&#45;&gt;Node6 -->
<g id="edge5_Node000001_Node000006" class="edge">
<title>Node1&#45;&gt;Node6</title>
<g id="a_edge5_Node000001_Node000006"><a xlink:title=" ">
<path fill="none" stroke="#63b8ff" d="M167.18,-132.99C175.6,-132.12 184.19,-131.24 192.73,-130.36"/>
<polygon fill="#63b8ff" stroke="#63b8ff" points="193.12,-133.84 202.71,-129.33 192.41,-126.87 193.12,-133.84"/>
</a>
</g>
</g>
<!-- Node7 -->
<g id="Node000007" class="node">
<title>Node7</title>
<g id="a_Node000007"><a xlink:href="classSwitchBlock.html#ad6735b53a83425ebf379eb210a5237ba" target="_top" xlink:title=" ">
<polygon fill="white" stroke="#666666" points="370.5,-93 208.5,-93 208.5,-74 370.5,-74 370.5,-93"/>
<text text-anchor="middle" x="289.5" y="-81" font-family="Helvetica,sans-Serif" font-size="10.00">SwitchBlock::getTipOnNormal</text>
</a>
</g>
</g>
<!-- Node1&#45;&gt;Node7 -->
<g id="edge6_Node000001_Node000007" class="edge">
<title>Node1&#45;&gt;Node7</title>
<g id="a_edge6_Node000001_Node000007"><a xlink:title=" ">
<path fill="none" stroke="#63b8ff" d="M126.7,-126.48C149.18,-118.77 177.42,-109.53 203,-102.5 212.25,-99.96 222.13,-97.51 231.78,-95.27"/>
<polygon fill="#63b8ff" stroke="#63b8ff" points="232.72,-98.65 241.7,-93.02 231.17,-91.82 232.72,-98.65"/>
</a>
</g>
</g>
<!-- Node8 -->
<g id="Node000008" class="node">
<title>Node8</title>
<g id="a_Node000008"><a xlink:href="classSwitchBlock.html#a5e408b95d90214d1db3d880d0c8e7527" target="_top" xlink:title=" ">
<polygon fill="white" stroke="#666666" points="364,-56 215,-56 215,-37 364,-37 364,-56"/>
<text text-anchor="middle" x="289.5" y="-44" font-family="Helvetica,sans-Serif" font-size="10.00">SwitchBlock::getTipOnRoot</text>
</a>
</g>
</g>
<!-- Node1&#45;&gt;Node8 -->
<g id="edge7_Node000001_Node000008" class="edge">
<title>Node1&#45;&gt;Node8</title>
<g id="a_edge7_Node000001_Node000008"><a xlink:title=" ">
<path fill="none" stroke="#63b8ff" d="M103.44,-126.33C125.91,-109.08 165.09,-81.28 203,-65.5 209.13,-62.95 215.66,-60.71 222.27,-58.76"/>
<polygon fill="#63b8ff" stroke="#63b8ff" points="223.26,-62.12 231.98,-56.1 221.41,-55.37 223.26,-62.12"/>
</a>
</g>
</g>
<!-- Node9 -->
<g id="Node000009" class="node">
<title>Node9</title>
<g id="a_Node000009"><a xlink:href="classSwitchBlock.html#a87eba553e6478990869ad5b1d9c4f4a7" target="_top" xlink:title=" ">
<polygon fill="white" stroke="#666666" points="355.5,-19 223.5,-19 223.5,0 355.5,0 355.5,-19"/>
<text text-anchor="middle" x="289.5" y="-7" font-family="Helvetica,sans-Serif" font-size="10.00">SwitchBlock::isOriented</text>
</a>
</g>
</g>
<!-- Node1&#45;&gt;Node9 -->
<g id="edge8_Node000001_Node000009" class="edge">
<title>Node1&#45;&gt;Node9</title>
<g id="a_edge8_Node000001_Node000009"><a xlink:title=" ">
<path fill="none" stroke="#63b8ff" d="M95.77,-126.36C114.93,-101.76 156.35,-53.39 203,-28.5 207.3,-26.2 211.87,-24.19 216.56,-22.41"/>
<polygon fill="#63b8ff" stroke="#63b8ff" points="217.99,-25.62 226.34,-19.1 215.75,-18.99 217.99,-25.62"/>
</a>
</g>
</g>
</g>
</svg>
