<?xml version="1.0" encoding="UTF-8" standalone="no"?>
<!DOCTYPE svg PUBLIC "-//W3C//DTD SVG 1.1//EN"
 "http://www.w3.org/Graphics/SVG/1.1/DTD/svg11.dtd">
<!-- Generated by graphviz version 2.43.0 (0)
 -->
<!-- Title: MainWindow::onParsingSuccess Pages: 1 -->
<svg width="375pt" height="101pt"
 viewBox="0.00 0.00 375.00 101.00" xmlns="http://www.w3.org/2000/svg" xmlns:xlink="http://www.w3.org/1999/xlink">
<g id="graph0" class="graph" transform="scale(1 1) rotate(0) translate(4 97)">
<title>MainWindow::onParsingSuccess</title>
<!-- Node1 -->
<g id="Node000001" class="node">
<title>Node1</title>
<g id="a_Node000001"><a xlink:title="Gère la fin réussie du parsing (WM_PARSING_SUCCESS).">
<polygon fill="#999999" stroke="#666666" points="171,-56 0,-56 0,-37 171,-37 171,-56"/>
<text text-anchor="middle" x="85.5" y="-44" font-family="Helvetica,sans-Serif" font-size="10.00">MainWindow::onParsingSuccess</text>
</a>
</g>
</g>
<!-- Node2 -->
<g id="Node000002" class="node">
<title>Node2</title>
<g id="a_Node000002"><a xlink:href="classWebViewPanel.html#a5890da7c431554b9e864759f293dac1f" target="_top" xlink:title="Exécute un script JavaScript dans le contexte de la page chargée.">
<polygon fill="white" stroke="#666666" points="367,-93 207,-93 207,-74 367,-74 367,-93"/>
<text text-anchor="middle" x="287" y="-81" font-family="Helvetica,sans-Serif" font-size="10.00">WebViewPanel::executeScript</text>
</a>
</g>
</g>
<!-- Node1&#45;&gt;Node2 -->
<g id="edge1_Node000001_Node000002" class="edge">
<title>Node1&#45;&gt;Node2</title>
<g id="a_edge1_Node000001_Node000002"><a xlink:title=" ">
<path fill="none" stroke="#63b8ff" d="M137.88,-56.03C164.3,-60.93 196.7,-66.94 224.46,-72.09"/>
<polygon fill="#63b8ff" stroke="#63b8ff" points="223.98,-75.56 234.45,-73.94 225.26,-68.67 223.98,-75.56"/>
</a>
</g>
</g>
<!-- Node3 -->
<g id="Node000003" class="node">
<title>Node3</title>
<g id="a_Node000003"><a xlink:href="classProgressBar.html#ad06234c2844ac3beb9f8e8532015c0cd" target="_top" xlink:title="Met à jour la progression.">
<polygon fill="white" stroke="#666666" points="356,-56 218,-56 218,-37 356,-37 356,-56"/>
<text text-anchor="middle" x="287" y="-44" font-family="Helvetica,sans-Serif" font-size="10.00">ProgressBar::setProgress</text>
</a>
</g>
</g>
<!-- Node1&#45;&gt;Node3 -->
<g id="edge2_Node000001_Node000003" class="edge">
<title>Node1&#45;&gt;Node3</title>
<g id="a_edge2_Node000001_Node000003"><a xlink:title=" ">
<path fill="none" stroke="#63b8ff" d="M171.11,-46.5C183.3,-46.5 195.81,-46.5 207.87,-46.5"/>
<polygon fill="#63b8ff" stroke="#63b8ff" points="207.88,-50 217.88,-46.5 207.88,-43 207.88,-50"/>
</a>
</g>
</g>
<!-- Node4 -->
<g id="Node000004" class="node">
<title>Node4</title>
<g id="a_Node000004"><a xlink:href="classProgressBar.html#ac9fbcf04d7d4e8c5b3e332efcfc0d34c" target="_top" xlink:title="Show or hide the ProgressBar.">
<polygon fill="white" stroke="#666666" points="340.5,-19 233.5,-19 233.5,0 340.5,0 340.5,-19"/>
<text text-anchor="middle" x="287" y="-7" font-family="Helvetica,sans-Serif" font-size="10.00">ProgressBar::show</text>
</a>
</g>
</g>
<!-- Node1&#45;&gt;Node4 -->
<g id="edge3_Node000001_Node000004" class="edge">
<title>Node1&#45;&gt;Node4</title>
<g id="a_edge3_Node000001_Node000004"><a xlink:title=" ">
<path fill="none" stroke="#63b8ff" d="M137.88,-36.97C164.3,-32.07 196.7,-26.06 224.46,-20.91"/>
<polygon fill="#63b8ff" stroke="#63b8ff" points="225.26,-24.33 234.45,-19.06 223.98,-17.44 225.26,-24.33"/>
</a>
</g>
</g>
</g>
</svg>
