<?xml version="1.0" encoding="UTF-8" standalone="no"?>
<!DOCTYPE svg PUBLIC "-//W3C//DTD SVG 1.1//EN"
 "http://www.w3.org/Graphics/SVG/1.1/DTD/svg11.dtd">
<!-- Generated by graphviz version 2.43.0 (0)
 -->
<!-- Title: GeoJsonExporter::renderSwitchBranches Pages: 1 -->
<svg width="343pt" height="64pt"
 viewBox="0.00 0.00 343.00 64.00" xmlns="http://www.w3.org/2000/svg" xmlns:xlink="http://www.w3.org/1999/xlink">
<g id="graph0" class="graph" transform="scale(1 1) rotate(0) translate(4 60)">
<title>GeoJsonExporter::renderSwitchBranches</title>
<!-- Node1 -->
<g id="Node000001" class="node">
<title>Node1</title>
<g id="a_Node000001"><a xlink:title="Construit l&#39;appel JS renderSwitchBranches(...) pour un switch.">
<polygon fill="#999999" stroke="#666666" points="167,-42.5 0,-42.5 0,-12.5 167,-12.5 167,-42.5"/>
<text text-anchor="start" x="8" y="-30.5" font-family="Helvetica,sans-Serif" font-size="10.00">GeoJsonExporter::renderSwitch</text>
<text text-anchor="middle" x="83.5" y="-19.5" font-family="Helvetica,sans-Serif" font-size="10.00">Branches</text>
</a>
</g>
</g>
<!-- Node2 -->
<g id="Node000002" class="node">
<title>Node2</title>
<g id="a_Node000002"><a xlink:href="GeoJsonExporter_8cpp.html#a804a0b5a3a71a7a209dfe8f50e2da7fc" target="_top" xlink:title=" ">
<polygon fill="white" stroke="#666666" points="302.5,-56 235.5,-56 235.5,-37 302.5,-37 302.5,-56"/>
<text text-anchor="middle" x="269" y="-44" font-family="Helvetica,sans-Serif" font-size="10.00">encodeTip</text>
</a>
</g>
</g>
<!-- Node1&#45;&gt;Node2 -->
<g id="edge1_Node000001_Node000002" class="edge">
<title>Node1&#45;&gt;Node2</title>
<g id="a_edge1_Node000001_Node000002"><a xlink:title=" ">
<path fill="none" stroke="#63b8ff" d="M167.12,-36.06C187.13,-38.13 207.73,-40.26 225.05,-42.05"/>
<polygon fill="#63b8ff" stroke="#63b8ff" points="225.07,-45.57 235.38,-43.12 225.79,-38.61 225.07,-45.57"/>
</a>
</g>
</g>
<!-- Node3 -->
<g id="Node000003" class="node">
<title>Node3</title>
<g id="a_Node000003"><a xlink:href="classSwitchBlock.html#a87eba553e6478990869ad5b1d9c4f4a7" target="_top" xlink:title="Indique si l&#39;aiguillage a été orienté (Phase 6 complète).">
<polygon fill="white" stroke="#666666" points="335,-19 203,-19 203,0 335,0 335,-19"/>
<text text-anchor="middle" x="269" y="-7" font-family="Helvetica,sans-Serif" font-size="10.00">SwitchBlock::isOriented</text>
</a>
</g>
</g>
<!-- Node1&#45;&gt;Node3 -->
<g id="edge2_Node000001_Node000003" class="edge">
<title>Node1&#45;&gt;Node3</title>
<g id="a_edge2_Node000001_Node000003"><a xlink:title=" ">
<path fill="none" stroke="#63b8ff" d="M167.12,-19.4C175.65,-18.56 184.27,-17.71 192.71,-16.89"/>
<polygon fill="#63b8ff" stroke="#63b8ff" points="193.27,-20.35 202.88,-15.89 192.59,-13.38 193.27,-20.35"/>
</a>
</g>
</g>
</g>
</svg>
