<?xml version="1.0" encoding="UTF-8" standalone="no"?>
<!DOCTYPE svg PUBLIC "-//W3C//DTD SVG 1.1//EN"
 "http://www.w3.org/Graphics/SVG/1.1/DTD/svg11.dtd">
<!-- Generated by graphviz version 2.43.0 (0)
 -->
<!-- Title: SwitchOrientator::trimStraightOverlaps Pages: 1 -->
<svg width="786pt" height="215pt"
 viewBox="0.00 0.00 786.00 215.00" xmlns="http://www.w3.org/2000/svg" xmlns:xlink="http://www.w3.org/1999/xlink">
<g id="graph0" class="graph" transform="scale(1 1) rotate(0) translate(4 211)">
<title>SwitchOrientator::trimStraightOverlaps</title>
<!-- Node1 -->
<g id="Node000001" class="node">
<title>Node1</title>
<g id="a_Node000001"><a xlink:title="Retaille chaque StraightBlock adjacent à une jonction pour qu&#39;il commence (ou se termine) exactement ...">
<polygon fill="#999999" stroke="#666666" points="163,-116 0,-116 0,-86 163,-86 163,-116"/>
<text text-anchor="start" x="8" y="-104" font-family="Helvetica,sans-Serif" font-size="10.00">SwitchOrientator::trimStraight</text>
<text text-anchor="middle" x="81.5" y="-93" font-family="Helvetica,sans-Serif" font-size="10.00">Overlaps</text>
</a>
</g>
</g>
<!-- Node2 -->
<g id="Node000002" class="node">
<title>Node2</title>
<g id="a_Node000002"><a xlink:href="classGeometryUtils.html#aa06e19f5aae6fce3108b2fcfc709fc53" target="_top" xlink:title="Convertit une polyligne WGS&#45;84 en coordonnées métriques UTM.">
<polygon fill="white" stroke="#666666" points="369,-207 199,-207 199,-177 369,-177 369,-207"/>
<text text-anchor="start" x="207" y="-195" font-family="Helvetica,sans-Serif" font-size="10.00">GeometryUtils::convertPolyline</text>
<text text-anchor="middle" x="284" y="-184" font-family="Helvetica,sans-Serif" font-size="10.00">ToMetric</text>
</a>
</g>
</g>
<!-- Node1&#45;&gt;Node2 -->
<g id="edge1_Node000001_Node000002" class="edge">
<title>Node1&#45;&gt;Node2</title>
<g id="a_edge1_Node000001_Node000002"><a xlink:title=" ">
<path fill="none" stroke="#63b8ff" d="M104.86,-116.06C127.71,-130.92 164.62,-153.46 199,-168 203.68,-169.98 208.58,-171.85 213.55,-173.61"/>
<polygon fill="#63b8ff" stroke="#63b8ff" points="212.58,-176.98 223.17,-176.86 214.82,-170.35 212.58,-176.98"/>
</a>
</g>
</g>
<!-- Node5 -->
<g id="Node000005" class="node">
<title>Node5</title>
<g id="a_Node000005"><a xlink:href="classGeometryUtils.html#aba6963b2f6022f04e51fb716a11e3895" target="_top" xlink:title="Convertit une polyligne métrique UTM en WGS&#45;84.">
<polygon fill="white" stroke="#666666" points="369,-159 199,-159 199,-129 369,-129 369,-159"/>
<text text-anchor="start" x="207" y="-147" font-family="Helvetica,sans-Serif" font-size="10.00">GeometryUtils::convertPolyline</text>
<text text-anchor="middle" x="284" y="-136" font-family="Helvetica,sans-Serif" font-size="10.00">ToWgs84</text>
</a>
</g>
</g>
<!-- Node1&#45;&gt;Node5 -->
<g id="edge4_Node000001_Node000005" class="edge">
<title>Node1&#45;&gt;Node5</title>
<g id="a_edge4_Node000001_Node000005"><a xlink:title=" ">
<path fill="none" stroke="#63b8ff" d="M152.63,-116.04C168.8,-119.51 186.14,-123.23 202.71,-126.78"/>
<polygon fill="#63b8ff" stroke="#63b8ff" points="202.4,-130.29 212.91,-128.97 203.87,-123.45 202.4,-130.29"/>
</a>
</g>
</g>
<!-- Node7 -->
<g id="Node000007" class="node">
<title>Node7</title>
<g id="a_Node000007"><a xlink:href="classStraightBlock.html#a646d3135d365dcb832ff66b1304c6850" target="_top" xlink:title=" ">
<polygon fill="white" stroke="#666666" points="365,-110.5 203,-110.5 203,-91.5 365,-91.5 365,-110.5"/>
<text text-anchor="middle" x="284" y="-98.5" font-family="Helvetica,sans-Serif" font-size="10.00">StraightBlock::getCoordinates</text>
</a>
</g>
</g>
<!-- Node1&#45;&gt;Node7 -->
<g id="edge7_Node000001_Node000007" class="edge">
<title>Node1&#45;&gt;Node7</title>
<g id="a_edge7_Node000001_Node000007"><a xlink:title=" ">
<path fill="none" stroke="#63b8ff" d="M163.18,-101C172.88,-101 182.82,-101 192.64,-101"/>
<polygon fill="#63b8ff" stroke="#63b8ff" points="192.81,-104.5 202.81,-101 192.81,-97.5 192.81,-104.5"/>
</a>
</g>
</g>
<!-- Node8 -->
<g id="Node000008" class="node">
<title>Node8</title>
<g id="a_Node000008"><a xlink:href="classStraightBlock.html#aebdce1e1b66d6b39376ae1a66c2d2d9e" target="_top" xlink:title=" ">
<polygon fill="white" stroke="#666666" points="352.5,-73 215.5,-73 215.5,-43 352.5,-43 352.5,-73"/>
<text text-anchor="start" x="223.5" y="-61" font-family="Helvetica,sans-Serif" font-size="10.00">StraightBlock::getLength</text>
<text text-anchor="middle" x="284" y="-50" font-family="Helvetica,sans-Serif" font-size="10.00">Meters</text>
</a>
</g>
</g>
<!-- Node1&#45;&gt;Node8 -->
<g id="edge8_Node000001_Node000008" class="edge">
<title>Node1&#45;&gt;Node8</title>
<g id="a_edge8_Node000001_Node000008"><a xlink:title=" ">
<path fill="none" stroke="#63b8ff" d="M152.63,-85.96C169.62,-82.32 187.88,-78.4 205.2,-74.68"/>
<polygon fill="#63b8ff" stroke="#63b8ff" points="206.23,-78.04 215.28,-72.52 204.77,-71.2 206.23,-78.04"/>
</a>
</g>
</g>
<!-- Node9 -->
<g id="Node000009" class="node">
<title>Node9</title>
<g id="a_Node000009"><a xlink:href="classStraightBlock.html#a1516c424b471658598a77daaf1e55ce6" target="_top" xlink:title="Remplace la polyligne et recalcule la longueur géodésique.">
<polygon fill="white" stroke="#666666" points="364.5,-24.5 203.5,-24.5 203.5,-5.5 364.5,-5.5 364.5,-24.5"/>
<text text-anchor="middle" x="284" y="-12.5" font-family="Helvetica,sans-Serif" font-size="10.00">StraightBlock::setCoordinates</text>
</a>
</g>
</g>
<!-- Node1&#45;&gt;Node9 -->
<g id="edge9_Node000001_Node000009" class="edge">
<title>Node1&#45;&gt;Node9</title>
<g id="a_edge9_Node000001_Node000009"><a xlink:title=" ">
<path fill="none" stroke="#63b8ff" d="M104.27,-85.81C126.95,-70.64 164.01,-47.66 199,-34 205.46,-31.48 212.33,-29.25 219.26,-27.29"/>
<polygon fill="#63b8ff" stroke="#63b8ff" points="220.63,-30.54 229.4,-24.6 218.84,-23.78 220.63,-30.54"/>
</a>
</g>
</g>
<!-- Node3 -->
<g id="Node000003" class="node">
<title>Node3</title>
<g id="a_Node000003"><a xlink:href="classGeometryUtils.html#abcb43f3e49607318e07012e902febfdb" target="_top" xlink:title="Convertit une coordonnée WGS&#45;84 en mètres UTM.">
<polygon fill="white" stroke="#666666" points="593,-199.5 405,-199.5 405,-180.5 593,-180.5 593,-199.5"/>
<text text-anchor="middle" x="499" y="-187.5" font-family="Helvetica,sans-Serif" font-size="10.00">GeometryUtils::wgs84ToMetricUtm</text>
</a>
</g>
</g>
<!-- Node2&#45;&gt;Node3 -->
<g id="edge2_Node000002_Node000003" class="edge">
<title>Node2&#45;&gt;Node3</title>
<g id="a_edge2_Node000002_Node000003"><a xlink:title=" ">
<path fill="none" stroke="#63b8ff" d="M369.18,-191.21C377.62,-191.13 386.26,-191.05 394.87,-190.97"/>
<polygon fill="#63b8ff" stroke="#63b8ff" points="394.98,-194.47 404.95,-190.87 394.92,-187.47 394.98,-194.47"/>
</a>
</g>
</g>
<!-- Node4 -->
<g id="Node000004" class="node">
<title>Node4</title>
<g id="a_Node000004"><a xlink:href="classGeometryUtils.html#a0a57b43055d32f595a7c84dbd7d098e3" target="_top" xlink:title="Retourne le méridien central (degrés) d&#39;une zone UTM.">
<polygon fill="white" stroke="#666666" points="778,-181 629,-181 629,-151 778,-151 778,-181"/>
<text text-anchor="start" x="637" y="-169" font-family="Helvetica,sans-Serif" font-size="10.00">GeometryUtils::utmCentral</text>
<text text-anchor="middle" x="703.5" y="-158" font-family="Helvetica,sans-Serif" font-size="10.00">MeridianDegrees</text>
</a>
</g>
</g>
<!-- Node3&#45;&gt;Node4 -->
<g id="edge3_Node000003_Node000004" class="edge">
<title>Node3&#45;&gt;Node4</title>
<g id="a_edge3_Node000003_Node000004"><a xlink:title=" ">
<path fill="none" stroke="#63b8ff" d="M580.32,-180.48C592.96,-178.98 606.05,-177.43 618.76,-175.93"/>
<polygon fill="#63b8ff" stroke="#63b8ff" points="619.33,-179.38 628.85,-174.73 618.51,-172.43 619.33,-179.38"/>
</a>
</g>
</g>
<!-- Node6 -->
<g id="Node000006" class="node">
<title>Node6</title>
<g id="a_Node000006"><a xlink:href="classGeometryUtils.html#a0dfa23ddf2d80abfeaeac186ae124fd0" target="_top" xlink:title="Convertit une coordonnée métrique UTM en WGS&#45;84.">
<polygon fill="white" stroke="#666666" points="572,-160 426,-160 426,-130 572,-130 572,-160"/>
<text text-anchor="start" x="434" y="-148" font-family="Helvetica,sans-Serif" font-size="10.00">GeometryUtils::metricUtm</text>
<text text-anchor="middle" x="499" y="-137" font-family="Helvetica,sans-Serif" font-size="10.00">ToWgs84</text>
</a>
</g>
</g>
<!-- Node5&#45;&gt;Node6 -->
<g id="edge5_Node000005_Node000006" class="edge">
<title>Node5&#45;&gt;Node6</title>
<g id="a_edge5_Node000005_Node000006"><a xlink:title=" ">
<path fill="none" stroke="#63b8ff" d="M369.18,-144.4C384.39,-144.47 400.24,-144.54 415.41,-144.61"/>
<polygon fill="#63b8ff" stroke="#63b8ff" points="415.76,-148.11 425.78,-144.66 415.8,-141.11 415.76,-148.11"/>
</a>
</g>
</g>
<!-- Node6&#45;&gt;Node4 -->
<g id="edge6_Node000006_Node000004" class="edge">
<title>Node6&#45;&gt;Node4</title>
<g id="a_edge6_Node000006_Node000004"><a xlink:title=" ">
<path fill="none" stroke="#63b8ff" d="M572.25,-152.49C587.34,-154.06 603.38,-155.72 618.85,-157.32"/>
<polygon fill="#63b8ff" stroke="#63b8ff" points="618.61,-160.82 628.91,-158.37 619.33,-153.86 618.61,-160.82"/>
</a>
</g>
</g>
<!-- Node10 -->
<g id="Node000010" class="node">
<title>Node10</title>
<g id="a_Node000010"><a xlink:href="classStraightBlock.html#a2c39df55b662a55c1de75659619bbacb" target="_top" xlink:title=" ">
<polygon fill="white" stroke="#666666" points="587,-30 411,-30 411,0 587,0 587,-30"/>
<text text-anchor="start" x="419" y="-18" font-family="Helvetica,sans-Serif" font-size="10.00">StraightBlock::computeGeodesic</text>
<text text-anchor="middle" x="499" y="-7" font-family="Helvetica,sans-Serif" font-size="10.00">Length</text>
</a>
</g>
</g>
<!-- Node9&#45;&gt;Node10 -->
<g id="edge10_Node000009_Node000010" class="edge">
<title>Node9&#45;&gt;Node10</title>
<g id="a_edge10_Node000009_Node000010"><a xlink:title=" ">
<path fill="none" stroke="#63b8ff" d="M364.62,-15C376.43,-15 388.72,-15 400.85,-15"/>
<polygon fill="#63b8ff" stroke="#63b8ff" points="400.98,-18.5 410.98,-15 400.98,-11.5 400.98,-18.5"/>
</a>
</g>
</g>
<!-- Node11 -->
<g id="Node000011" class="node">
<title>Node11</title>
<g id="a_Node000011"><a xlink:href="classStraightBlock.html#a6ea1987662d295db433b819aceaa67cd" target="_top" xlink:title=" ">
<polygon fill="white" stroke="#666666" points="771.5,-30 635.5,-30 635.5,0 771.5,0 771.5,-30"/>
<text text-anchor="start" x="643.5" y="-18" font-family="Helvetica,sans-Serif" font-size="10.00">StraightBlock::haversine</text>
<text text-anchor="middle" x="703.5" y="-7" font-family="Helvetica,sans-Serif" font-size="10.00">DistanceMeters</text>
</a>
</g>
</g>
<!-- Node10&#45;&gt;Node11 -->
<g id="edge11_Node000010_Node000011" class="edge">
<title>Node10&#45;&gt;Node11</title>
<g id="a_edge11_Node000010_Node000011"><a xlink:title=" ">
<path fill="none" stroke="#63b8ff" d="M587.05,-15C599.7,-15 612.65,-15 625.08,-15"/>
<polygon fill="#63b8ff" stroke="#63b8ff" points="625.4,-18.5 635.4,-15 625.4,-11.5 625.4,-18.5"/>
</a>
</g>
</g>
</g>
</svg>
