<?xml version="1.0" encoding="UTF-8" standalone="no"?>
<!DOCTYPE svg PUBLIC "-//W3C//DTD SVG 1.1//EN"
 "http://www.w3.org/Graphics/SVG/1.1/DTD/svg11.dtd">
<!-- Generated by graphviz version 2.43.0 (0)
 -->
<!-- Title: MainWindow::onTogglePCC Pages: 1 -->
<svg width="1073pt" height="52pt"
 viewBox="0.00 0.00 1073.00 51.50" xmlns="http://www.w3.org/2000/svg" xmlns:xlink="http://www.w3.org/1999/xlink">
<g id="graph0" class="graph" transform="scale(1 1) rotate(0) translate(4 47.5)">
<title>MainWindow::onTogglePCC</title>
<!-- Node1 -->
<g id="Node000001" class="node">
<title>Node1</title>
<g id="a_Node000001"><a xlink:title="Bascule la visibilité du panneau PCC.">
<polygon fill="#999999" stroke="#666666" points="1065,-38 917,-38 917,-19 1065,-19 1065,-38"/>
<text text-anchor="middle" x="991" y="-26" font-family="Helvetica,sans-Serif" font-size="10.00">MainWindow::onTogglePCC</text>
</a>
</g>
</g>
<!-- Node2 -->
<g id="Node000002" class="node">
<title>Node2</title>
<g id="a_Node000002"><a xlink:href="classMainWindow.html#ab85682874f3ab5dfa81f782f889d8556" target="_top" xlink:title="Dispatcher principal des messages de la fenêtre.">
<polygon fill="white" stroke="#666666" points="698,-38 537,-38 537,-19 698,-19 698,-38"/>
<text text-anchor="middle" x="617.5" y="-26" font-family="Helvetica,sans-Serif" font-size="10.00">MainWindow::handleMessage</text>
</a>
</g>
</g>
<!-- Node1&#45;&gt;Node2 -->
<g id="edge1_Node000001_Node000002" class="edge">
<title>Node1&#45;&gt;Node2</title>
<g id="a_edge1_Node000001_Node000002"><a xlink:title=" ">
<path fill="none" stroke="#63b8ff" d="M906.41,-28.5C844.1,-28.5 759.53,-28.5 698.17,-28.5"/>
<polygon fill="#63b8ff" stroke="#63b8ff" points="906.6,-32 916.6,-28.5 906.6,-25 906.6,-32"/>
</a>
</g>
</g>
<!-- Node6 -->
<g id="Node000006" class="node">
<title>Node6</title>
<g id="a_Node000006"><a xlink:href="classMainWindow.html#afbecf0f64f48c5c868168884bab52356" target="_top" xlink:title="Gère les commandes menu (WM_COMMAND).">
<polygon fill="white" stroke="#666666" points="881,-19 734,-19 734,0 881,0 881,-19"/>
<text text-anchor="middle" x="807.5" y="-7" font-family="Helvetica,sans-Serif" font-size="10.00">MainWindow::onCommand</text>
</a>
</g>
</g>
<!-- Node1&#45;&gt;Node6 -->
<g id="edge5_Node000001_Node000006" class="edge">
<title>Node1&#45;&gt;Node6</title>
<g id="a_edge5_Node000001_Node000006"><a xlink:title=" ">
<path fill="none" stroke="#63b8ff" d="M906.91,-19.8C898.29,-18.9 889.58,-17.99 881.09,-17.1"/>
<polygon fill="#63b8ff" stroke="#63b8ff" points="906.65,-23.29 916.96,-20.85 907.38,-16.33 906.65,-23.29"/>
</a>
</g>
</g>
<!-- Node3 -->
<g id="Node000003" class="node">
<title>Node3</title>
<g id="a_Node000003"><a xlink:href="classMainWindow.html#a332648d0a0caec8070b05bc27bb9a14b" target="_top" xlink:title="Procédure de fenêtre statique, point d&#39;entrée imposé par Win32.">
<polygon fill="white" stroke="#666666" points="501,-38 358,-38 358,-19 501,-19 501,-38"/>
<text text-anchor="middle" x="429.5" y="-26" font-family="Helvetica,sans-Serif" font-size="10.00">MainWindow::windowProc</text>
</a>
</g>
</g>
<!-- Node2&#45;&gt;Node3 -->
<g id="edge2_Node000002_Node000003" class="edge">
<title>Node2&#45;&gt;Node3</title>
<g id="a_edge2_Node000002_Node000003"><a xlink:title=" ">
<path fill="none" stroke="#63b8ff" d="M526.77,-28.5C518.2,-28.5 509.58,-28.5 501.22,-28.5"/>
<polygon fill="#63b8ff" stroke="#63b8ff" points="526.81,-32 536.81,-28.5 526.81,-25 526.81,-32"/>
</a>
</g>
</g>
<!-- Node4 -->
<g id="Node000004" class="node">
<title>Node4</title>
<g id="a_Node000004"><a xlink:href="classApplication.html#a0bda40de108938fd29374335bf4eac71" target="_top" xlink:title="Enregistre la classe de fenêtre Win32 (WNDCLASSEXW).">
<polygon fill="white" stroke="#666666" points="322,-43.5 168,-43.5 168,-13.5 322,-13.5 322,-43.5"/>
<text text-anchor="start" x="176" y="-31.5" font-family="Helvetica,sans-Serif" font-size="10.00">Application::registerWindow</text>
<text text-anchor="middle" x="245" y="-20.5" font-family="Helvetica,sans-Serif" font-size="10.00">Class</text>
</a>
</g>
</g>
<!-- Node3&#45;&gt;Node4 -->
<g id="edge3_Node000003_Node000004" class="edge">
<title>Node3&#45;&gt;Node4</title>
<g id="a_edge3_Node000003_Node000004"><a xlink:title=" ">
<path fill="none" stroke="#63b8ff" d="M347.66,-28.5C339.17,-28.5 330.56,-28.5 322.12,-28.5"/>
<polygon fill="#63b8ff" stroke="#63b8ff" points="347.94,-32 357.94,-28.5 347.94,-25 347.94,-32"/>
</a>
</g>
</g>
<!-- Node5 -->
<g id="Node000005" class="node">
<title>Node5</title>
<g id="a_Node000005"><a xlink:href="classApplication.html#a719cf091afd2276d52f9a58e4962ebfb" target="_top" xlink:title="Construit l&#39;application et enregistre la classe de fenêtre.">
<polygon fill="white" stroke="#666666" points="132,-38 0,-38 0,-19 132,-19 132,-38"/>
<text text-anchor="middle" x="66" y="-26" font-family="Helvetica,sans-Serif" font-size="10.00">Application::Application</text>
</a>
</g>
</g>
<!-- Node4&#45;&gt;Node5 -->
<g id="edge4_Node000004_Node000005" class="edge">
<title>Node4&#45;&gt;Node5</title>
<g id="a_edge4_Node000004_Node000005"><a xlink:title=" ">
<path fill="none" stroke="#63b8ff" d="M157.82,-28.5C149.19,-28.5 140.53,-28.5 132.18,-28.5"/>
<polygon fill="#63b8ff" stroke="#63b8ff" points="157.91,-32 167.91,-28.5 157.91,-25 157.91,-32"/>
</a>
</g>
</g>
<!-- Node6&#45;&gt;Node2 -->
<g id="edge6_Node000006_Node000002" class="edge">
<title>Node6&#45;&gt;Node2</title>
<g id="a_edge6_Node000006_Node000002"><a xlink:title=" ">
<path fill="none" stroke="#63b8ff" d="M723.59,-17.88C715.15,-18.73 706.58,-19.6 698.17,-20.45"/>
<polygon fill="#63b8ff" stroke="#63b8ff" points="724.22,-21.33 733.81,-16.85 723.51,-14.37 724.22,-21.33"/>
</a>
</g>
</g>
</g>
</svg>
