<?xml version="1.0" encoding="UTF-8" standalone="no"?>
<!DOCTYPE svg PUBLIC "-//W3C//DTD SVG 1.1//EN"
 "http://www.w3.org/Graphics/SVG/1.1/DTD/svg11.dtd">
<!-- Generated by graphviz version 2.43.0 (0)
 -->
<!-- Title: StraightBlock::getLengthMeters Pages: 1 -->
<svg width="1941pt" height="129pt"
 viewBox="0.00 0.00 1941.00 129.00" xmlns="http://www.w3.org/2000/svg" xmlns:xlink="http://www.w3.org/1999/xlink">
<g id="graph0" class="graph" transform="scale(1 1) rotate(0) translate(4 125)">
<title>StraightBlock::getLengthMeters</title>
<!-- Node1 -->
<g id="Node000001" class="node">
<title>Node1</title>
<g id="a_Node000001"><a xlink:title=" ">
<polygon fill="#999999" stroke="#666666" points="1933,-54 1796,-54 1796,-24 1933,-24 1933,-54"/>
<text text-anchor="start" x="1804" y="-42" font-family="Helvetica,sans-Serif" font-size="10.00">StraightBlock::getLength</text>
<text text-anchor="middle" x="1864.5" y="-31" font-family="Helvetica,sans-Serif" font-size="10.00">Meters</text>
</a>
</g>
</g>
<!-- Node2 -->
<g id="Node000002" class="node">
<title>Node2</title>
<g id="a_Node000002"><a xlink:href="classTopologyRenderer.html#a39b4c82693790d5886076d62998362bc" target="_top" xlink:title="Convertit un StraightBlock en feature GeoJSON de type LineString.">
<polygon fill="white" stroke="#666666" points="1752,-78 1605,-78 1605,-48 1752,-48 1752,-78"/>
<text text-anchor="start" x="1613" y="-66" font-family="Helvetica,sans-Serif" font-size="10.00">TopologyRenderer::convert</text>
<text text-anchor="middle" x="1678.5" y="-55" font-family="Helvetica,sans-Serif" font-size="10.00">StraightToFeature</text>
</a>
</g>
</g>
<!-- Node1&#45;&gt;Node2 -->
<g id="edge1_Node000001_Node000002" class="edge">
<title>Node1&#45;&gt;Node2</title>
<g id="a_edge1_Node000001_Node000002"><a xlink:title=" ">
<path fill="none" stroke="#63b8ff" d="M1785.64,-49.16C1774.49,-50.61 1763.07,-52.1 1752.04,-53.54"/>
<polygon fill="#63b8ff" stroke="#63b8ff" points="1786.31,-52.6 1795.77,-47.83 1785.4,-45.66 1786.31,-52.6"/>
</a>
</g>
</g>
<!-- Node11 -->
<g id="Node000011" class="node">
<title>Node11</title>
<g id="a_Node000011"><a xlink:href="classSwitchOrientator.html#ac80814892c9baea379f2b4e9f22b966e" target="_top" xlink:title="Retaille chaque StraightBlock adjacent à une jonction pour qu&#39;il commence (ou se termine) exactement ...">
<polygon fill="white" stroke="#666666" points="1760,-30 1597,-30 1597,0 1760,0 1760,-30"/>
<text text-anchor="start" x="1605" y="-18" font-family="Helvetica,sans-Serif" font-size="10.00">SwitchOrientator::trimStraight</text>
<text text-anchor="middle" x="1678.5" y="-7" font-family="Helvetica,sans-Serif" font-size="10.00">Overlaps</text>
</a>
</g>
</g>
<!-- Node1&#45;&gt;Node11 -->
<g id="edge10_Node000001_Node000011" class="edge">
<title>Node1&#45;&gt;Node11</title>
<g id="a_edge10_Node000001_Node000011"><a xlink:title=" ">
<path fill="none" stroke="#63b8ff" d="M1785.61,-28.84C1777.2,-27.74 1768.63,-26.63 1760.18,-25.52"/>
<polygon fill="#63b8ff" stroke="#63b8ff" points="1785.4,-32.34 1795.77,-30.17 1786.31,-25.4 1785.4,-32.34"/>
</a>
</g>
</g>
<!-- Node3 -->
<g id="Node000003" class="node">
<title>Node3</title>
<g id="a_Node000003"><a xlink:href="classTopologyRenderer.html#a5691412733606ec4139cac02585bd718" target="_top" xlink:title="Exporte la topologie ferroviaire dans un fichier GeoJSON.">
<polygon fill="white" stroke="#666666" points="1556.5,-121 1414.5,-121 1414.5,-91 1556.5,-91 1556.5,-121"/>
<text text-anchor="start" x="1422.5" y="-109" font-family="Helvetica,sans-Serif" font-size="10.00">TopologyRenderer::export</text>
<text text-anchor="middle" x="1485.5" y="-98" font-family="Helvetica,sans-Serif" font-size="10.00">ToFile</text>
</a>
</g>
</g>
<!-- Node2&#45;&gt;Node3 -->
<g id="edge2_Node000002_Node000003" class="edge">
<title>Node2&#45;&gt;Node3</title>
<g id="a_edge2_Node000002_Node000003"><a xlink:title=" ">
<path fill="none" stroke="#63b8ff" d="M1600.53,-80.33C1584.87,-83.85 1568.53,-87.53 1553.26,-90.97"/>
<polygon fill="#63b8ff" stroke="#63b8ff" points="1601.71,-83.65 1610.7,-78.04 1600.17,-76.82 1601.71,-83.65"/>
</a>
</g>
</g>
<!-- Node10 -->
<g id="Node000010" class="node">
<title>Node10</title>
<g id="a_Node000010"><a xlink:href="classTopologyRenderer.html#a53552ac3e53137c8510496ae2de4a4d8" target="_top" xlink:title="Génère le script JavaScript d&#39;injection GeoJSON dans le WebView.">
<polygon fill="white" stroke="#666666" points="1561,-73 1410,-73 1410,-43 1561,-43 1561,-73"/>
<text text-anchor="start" x="1418" y="-61" font-family="Helvetica,sans-Serif" font-size="10.00">TopologyRenderer::loadGeo</text>
<text text-anchor="middle" x="1485.5" y="-50" font-family="Helvetica,sans-Serif" font-size="10.00">JsonToWebView</text>
</a>
</g>
</g>
<!-- Node2&#45;&gt;Node10 -->
<g id="edge9_Node000002_Node000010" class="edge">
<title>Node2&#45;&gt;Node10</title>
<g id="a_edge9_Node000002_Node000010"><a xlink:title=" ">
<path fill="none" stroke="#63b8ff" d="M1594.64,-60.83C1583.54,-60.54 1572.22,-60.24 1561.27,-59.96"/>
<polygon fill="#63b8ff" stroke="#63b8ff" points="1594.66,-64.33 1604.75,-61.1 1594.84,-57.33 1594.66,-64.33"/>
</a>
</g>
</g>
<!-- Node4 -->
<g id="Node000004" class="node">
<title>Node4</title>
<g id="a_Node000004"><a xlink:href="classMainWindow.html#a4429f521642e48894e0efce5b41bd0ae" target="_top" xlink:title="Ouvre le dialogue d&#39;exportation et déclenche l&#39;export GeoJSON.">
<polygon fill="white" stroke="#666666" points="1239,-112.5 1093,-112.5 1093,-93.5 1239,-93.5 1239,-112.5"/>
<text text-anchor="middle" x="1166" y="-100.5" font-family="Helvetica,sans-Serif" font-size="10.00">MainWindow::onFileExport</text>
</a>
</g>
</g>
<!-- Node3&#45;&gt;Node4 -->
<g id="edge3_Node000003_Node000004" class="edge">
<title>Node3&#45;&gt;Node4</title>
<g id="a_edge3_Node000003_Node000004"><a xlink:title=" ">
<path fill="none" stroke="#63b8ff" d="M1404.14,-105.24C1353.34,-104.76 1288.23,-104.15 1239.09,-103.68"/>
<polygon fill="#63b8ff" stroke="#63b8ff" points="1404.4,-108.74 1414.43,-105.34 1404.46,-101.74 1404.4,-108.74"/>
</a>
</g>
</g>
<!-- Node5 -->
<g id="Node000005" class="node">
<title>Node5</title>
<g id="a_Node000005"><a xlink:href="classMainWindow.html#afbecf0f64f48c5c868168884bab52356" target="_top" xlink:title="Gère les commandes menu (WM_COMMAND).">
<polygon fill="white" stroke="#666666" points="881,-89.5 734,-89.5 734,-70.5 881,-70.5 881,-89.5"/>
<text text-anchor="middle" x="807.5" y="-77.5" font-family="Helvetica,sans-Serif" font-size="10.00">MainWindow::onCommand</text>
</a>
</g>
</g>
<!-- Node4&#45;&gt;Node5 -->
<g id="edge4_Node000004_Node000005" class="edge">
<title>Node4&#45;&gt;Node5</title>
<g id="a_edge4_Node000004_Node000005"><a xlink:title=" ">
<path fill="none" stroke="#63b8ff" d="M1082.51,-97.68C1021.63,-93.75 939.56,-88.46 881.15,-84.69"/>
<polygon fill="#63b8ff" stroke="#63b8ff" points="1082.65,-101.19 1092.86,-98.35 1083.1,-94.21 1082.65,-101.19"/>
</a>
</g>
</g>
<!-- Node6 -->
<g id="Node000006" class="node">
<title>Node6</title>
<g id="a_Node000006"><a xlink:href="classMainWindow.html#ab85682874f3ab5dfa81f782f889d8556" target="_top" xlink:title="Dispatcher principal des messages de la fenêtre.">
<polygon fill="white" stroke="#666666" points="698,-89.5 537,-89.5 537,-70.5 698,-70.5 698,-89.5"/>
<text text-anchor="middle" x="617.5" y="-77.5" font-family="Helvetica,sans-Serif" font-size="10.00">MainWindow::handleMessage</text>
</a>
</g>
</g>
<!-- Node5&#45;&gt;Node6 -->
<g id="edge5_Node000005_Node000006" class="edge">
<title>Node5&#45;&gt;Node6</title>
<g id="a_edge5_Node000005_Node000006"><a xlink:title=" ">
<path fill="none" stroke="#63b8ff" d="M723.59,-80C715.15,-80 706.58,-80 698.17,-80"/>
<polygon fill="#63b8ff" stroke="#63b8ff" points="723.81,-83.5 733.81,-80 723.81,-76.5 723.81,-83.5"/>
</a>
</g>
</g>
<!-- Node7 -->
<g id="Node000007" class="node">
<title>Node7</title>
<g id="a_Node000007"><a xlink:href="classMainWindow.html#a332648d0a0caec8070b05bc27bb9a14b" target="_top" xlink:title="Procédure de fenêtre statique, point d&#39;entrée imposé par Win32.">
<polygon fill="white" stroke="#666666" points="501,-89.5 358,-89.5 358,-70.5 501,-70.5 501,-89.5"/>
<text text-anchor="middle" x="429.5" y="-77.5" font-family="Helvetica,sans-Serif" font-size="10.00">MainWindow::windowProc</text>
</a>
</g>
</g>
<!-- Node6&#45;&gt;Node7 -->
<g id="edge6_Node000006_Node000007" class="edge">
<title>Node6&#45;&gt;Node7</title>
<g id="a_edge6_Node000006_Node000007"><a xlink:title=" ">
<path fill="none" stroke="#63b8ff" d="M526.77,-80C518.2,-80 509.58,-80 501.22,-80"/>
<polygon fill="#63b8ff" stroke="#63b8ff" points="526.81,-83.5 536.81,-80 526.81,-76.5 526.81,-83.5"/>
</a>
</g>
</g>
<!-- Node8 -->
<g id="Node000008" class="node">
<title>Node8</title>
<g id="a_Node000008"><a xlink:href="classApplication.html#a0bda40de108938fd29374335bf4eac71" target="_top" xlink:title="Enregistre la classe de fenêtre Win32 (WNDCLASSEXW).">
<polygon fill="white" stroke="#666666" points="322,-95 168,-95 168,-65 322,-65 322,-95"/>
<text text-anchor="start" x="176" y="-83" font-family="Helvetica,sans-Serif" font-size="10.00">Application::registerWindow</text>
<text text-anchor="middle" x="245" y="-72" font-family="Helvetica,sans-Serif" font-size="10.00">Class</text>
</a>
</g>
</g>
<!-- Node7&#45;&gt;Node8 -->
<g id="edge7_Node000007_Node000008" class="edge">
<title>Node7&#45;&gt;Node8</title>
<g id="a_edge7_Node000007_Node000008"><a xlink:title=" ">
<path fill="none" stroke="#63b8ff" d="M347.66,-80C339.17,-80 330.56,-80 322.12,-80"/>
<polygon fill="#63b8ff" stroke="#63b8ff" points="347.94,-83.5 357.94,-80 347.94,-76.5 347.94,-83.5"/>
</a>
</g>
</g>
<!-- Node9 -->
<g id="Node000009" class="node">
<title>Node9</title>
<g id="a_Node000009"><a xlink:href="classApplication.html#a719cf091afd2276d52f9a58e4962ebfb" target="_top" xlink:title="Construit l&#39;application et enregistre la classe de fenêtre.">
<polygon fill="white" stroke="#666666" points="132,-89.5 0,-89.5 0,-70.5 132,-70.5 132,-89.5"/>
<text text-anchor="middle" x="66" y="-77.5" font-family="Helvetica,sans-Serif" font-size="10.00">Application::Application</text>
</a>
</g>
</g>
<!-- Node8&#45;&gt;Node9 -->
<g id="edge8_Node000008_Node000009" class="edge">
<title>Node8&#45;&gt;Node9</title>
<g id="a_edge8_Node000008_Node000009"><a xlink:title=" ">
<path fill="none" stroke="#63b8ff" d="M157.82,-80C149.19,-80 140.53,-80 132.18,-80"/>
<polygon fill="#63b8ff" stroke="#63b8ff" points="157.91,-83.5 167.91,-80 157.91,-76.5 157.91,-83.5"/>
</a>
</g>
</g>
<!-- Node12 -->
<g id="Node000012" class="node">
<title>Node12</title>
<g id="a_Node000012"><a xlink:href="classSwitchOrientator.html#a5af1a097baad421ce01bd013be602df7" target="_top" xlink:title="Exécute les phases 6, 6b, 6c et 6d en place sur topoResult.">
<polygon fill="white" stroke="#666666" points="1552,-24.5 1419,-24.5 1419,-5.5 1552,-5.5 1552,-24.5"/>
<text text-anchor="middle" x="1485.5" y="-12.5" font-family="Helvetica,sans-Serif" font-size="10.00">SwitchOrientator::orient</text>
</a>
</g>
</g>
<!-- Node11&#45;&gt;Node12 -->
<g id="edge11_Node000011_Node000012" class="edge">
<title>Node11&#45;&gt;Node12</title>
<g id="a_edge11_Node000011_Node000012"><a xlink:title=" ">
<path fill="none" stroke="#63b8ff" d="M1586.61,-15C1575,-15 1563.3,-15 1552.2,-15"/>
<polygon fill="#63b8ff" stroke="#63b8ff" points="1586.78,-18.5 1596.78,-15 1586.78,-11.5 1586.78,-18.5"/>
</a>
</g>
</g>
<!-- Node13 -->
<g id="Node000013" class="node">
<title>Node13</title>
<g id="a_Node000013"><a xlink:href="classGeoParser.html#aa4acc69a49444b9aa06b2c028b2c1133" target="_top" xlink:title="Lance le pipeline complet.">
<polygon fill="white" stroke="#666666" points="1374,-50.5 1275,-50.5 1275,-31.5 1374,-31.5 1374,-50.5"/>
<text text-anchor="middle" x="1324.5" y="-38.5" font-family="Helvetica,sans-Serif" font-size="10.00">GeoParser::parse</text>
</a>
</g>
</g>
<!-- Node12&#45;&gt;Node13 -->
<g id="edge12_Node000012_Node000013" class="edge">
<title>Node12&#45;&gt;Node13</title>
<g id="a_edge12_Node000012_Node000013"><a xlink:title=" ">
<path fill="none" stroke="#63b8ff" d="M1416.04,-26.19C1401.94,-28.5 1387.36,-30.88 1374.14,-33.05"/>
<polygon fill="#63b8ff" stroke="#63b8ff" points="1416.89,-29.6 1426.2,-24.53 1415.76,-22.69 1416.89,-29.6"/>
</a>
</g>
</g>
<!-- Node14 -->
<g id="Node000014" class="node">
<title>Node14</title>
<g id="a_Node000014"><a xlink:href="classGeoParsingTask.html#affe9d461e96e029708ced380b63da972" target="_top" xlink:title="Lance le parsing GeoJSON dans un thread séparé et détaché.">
<polygon fill="white" stroke="#666666" points="1231.5,-63.5 1100.5,-63.5 1100.5,-44.5 1231.5,-44.5 1231.5,-63.5"/>
<text text-anchor="middle" x="1166" y="-51.5" font-family="Helvetica,sans-Serif" font-size="10.00">GeoParsingTask::launch</text>
</a>
</g>
</g>
<!-- Node13&#45;&gt;Node14 -->
<g id="edge13_Node000013_Node000014" class="edge">
<title>Node13&#45;&gt;Node14</title>
<g id="a_edge13_Node000013_Node000014"><a xlink:title=" ">
<path fill="none" stroke="#63b8ff" d="M1264.71,-45.88C1253.95,-46.78 1242.67,-47.71 1231.74,-48.62"/>
<polygon fill="#63b8ff" stroke="#63b8ff" points="1265.16,-49.36 1274.84,-45.04 1264.58,-42.38 1265.16,-49.36"/>
</a>
</g>
</g>
<!-- Node15 -->
<g id="Node000015" class="node">
<title>Node15</title>
<g id="a_Node000015"><a xlink:href="classMainWindow.html#a889cc45fb741e12015f4af9f01acaa96" target="_top" xlink:title="Ouvre le sélecteur de fichier et lance le parsing asynchrone.">
<polygon fill="white" stroke="#666666" points="1057,-70.5 917,-70.5 917,-51.5 1057,-51.5 1057,-70.5"/>
<text text-anchor="middle" x="987" y="-58.5" font-family="Helvetica,sans-Serif" font-size="10.00">MainWindow::onFileOpen</text>
</a>
</g>
</g>
<!-- Node14&#45;&gt;Node15 -->
<g id="edge14_Node000014_Node000015" class="edge">
<title>Node14&#45;&gt;Node15</title>
<g id="a_edge14_Node000014_Node000015"><a xlink:title=" ">
<path fill="none" stroke="#63b8ff" d="M1090.03,-56.96C1079.15,-57.4 1068,-57.84 1057.25,-58.26"/>
<polygon fill="#63b8ff" stroke="#63b8ff" points="1090.49,-60.45 1100.35,-56.56 1090.22,-53.45 1090.49,-60.45"/>
</a>
</g>
</g>
<!-- Node15&#45;&gt;Node5 -->
<g id="edge15_Node000015_Node000005" class="edge">
<title>Node15&#45;&gt;Node5</title>
<g id="a_edge15_Node000015_Node000005"><a xlink:title=" ">
<path fill="none" stroke="#63b8ff" d="M906.92,-69.47C898.38,-70.38 889.72,-71.31 881.26,-72.21"/>
<polygon fill="#63b8ff" stroke="#63b8ff" points="907.29,-72.94 916.87,-68.4 906.55,-65.98 907.29,-72.94"/>
</a>
</g>
</g>
</g>
</svg>
