<?xml version="1.0" encoding="UTF-8" standalone="no"?>
<!DOCTYPE svg PUBLIC "-//W3C//DTD SVG 1.1//EN"
 "http://www.w3.org/Graphics/SVG/1.1/DTD/svg11.dtd">
<!-- Generated by graphviz version 2.43.0 (0)
 -->
<!-- Title: PCCEdge Pages: 1 -->
<svg width="237pt" height="1207pt"
 viewBox="0.00 0.00 237.00 1207.00" xmlns="http://www.w3.org/2000/svg" xmlns:xlink="http://www.w3.org/1999/xlink">
<g id="graph0" class="graph" transform="scale(1 1) rotate(0) translate(4 1203)">
<title>PCCEdge</title>
<!-- Node1 -->
<g id="Node000001" class="node">
<title>Node1</title>
<g id="a_Node000001"><a xlink:title="Connexion orientée entre deux PCCNode du PCCGraph.">
<polygon fill="#999999" stroke="transparent" points="179.5,-169 98.5,-169 98.5,0 179.5,0 179.5,-169"/>
<text text-anchor="start" x="117.5" y="-156.5" font-family="Helvetica,sans-Serif" font-size="10.00">PCCEdge</text>
<text text-anchor="start" x="105.5" y="-141.5" font-family="Helvetica,sans-Serif" font-size="10.00">&#45;</text>
<text text-anchor="start" x="116" y="-141.5" font-family="Helvetica,sans-Serif" font-size="10.00">m_role</text>
<text text-anchor="start" x="103" y="-126.5" font-family="Helvetica,sans-Serif" font-size="10.00">+</text>
<text text-anchor="start" x="116" y="-126.5" font-family="Helvetica,sans-Serif" font-size="10.00">PCCEdge()</text>
<text text-anchor="start" x="103" y="-111.5" font-family="Helvetica,sans-Serif" font-size="10.00">+</text>
<text text-anchor="start" x="116" y="-111.5" font-family="Helvetica,sans-Serif" font-size="10.00">PCCEdge()</text>
<text text-anchor="start" x="103" y="-96.5" font-family="Helvetica,sans-Serif" font-size="10.00">+</text>
<text text-anchor="start" x="116" y="-96.5" font-family="Helvetica,sans-Serif" font-size="10.00">operator=()</text>
<text text-anchor="start" x="103" y="-81.5" font-family="Helvetica,sans-Serif" font-size="10.00">+</text>
<text text-anchor="start" x="116" y="-81.5" font-family="Helvetica,sans-Serif" font-size="10.00">PCCEdge()</text>
<text text-anchor="start" x="103" y="-66.5" font-family="Helvetica,sans-Serif" font-size="10.00">+</text>
<text text-anchor="start" x="116" y="-66.5" font-family="Helvetica,sans-Serif" font-size="10.00">operator=()</text>
<text text-anchor="start" x="103" y="-51.5" font-family="Helvetica,sans-Serif" font-size="10.00">+</text>
<text text-anchor="start" x="116" y="-51.5" font-family="Helvetica,sans-Serif" font-size="10.00">~PCCEdge()</text>
<text text-anchor="start" x="103" y="-36.5" font-family="Helvetica,sans-Serif" font-size="10.00">+</text>
<text text-anchor="start" x="116" y="-36.5" font-family="Helvetica,sans-Serif" font-size="10.00">getFrom()</text>
<text text-anchor="start" x="103" y="-21.5" font-family="Helvetica,sans-Serif" font-size="10.00">+</text>
<text text-anchor="start" x="116" y="-21.5" font-family="Helvetica,sans-Serif" font-size="10.00">getTo()</text>
<text text-anchor="start" x="103" y="-6.5" font-family="Helvetica,sans-Serif" font-size="10.00">+</text>
<text text-anchor="start" x="116" y="-6.5" font-family="Helvetica,sans-Serif" font-size="10.00">getRole()</text>
<polygon fill="#666666" stroke="#666666" points="99,-151.5 99,-151.5 180,-151.5 180,-151.5 99,-151.5"/>
<polygon fill="#666666" stroke="#666666" points="99,-136.5 99,-136.5 114,-136.5 114,-136.5 99,-136.5"/>
<polygon fill="#666666" stroke="#666666" points="114,-136.5 114,-136.5 180,-136.5 180,-136.5 114,-136.5"/>
<polygon fill="none" stroke="#666666" points="98.5,0 98.5,-169 179.5,-169 179.5,0 98.5,0"/>
</a>
</g>
</g>
<!-- Node2 -->
<g id="Node000002" class="node">
<title>Node2</title>
<g id="a_Node000002"><a xlink:href="classPCCNode.html" target="_top" xlink:title="Nœud abstrait du graphe PCC.">
<polygon fill="white" stroke="transparent" points="185.5,-471 92.5,-471 92.5,-227 185.5,-227 185.5,-471"/>
<text text-anchor="start" x="116.5" y="-459" font-family="Helvetica,sans-Serif" font-size="10.00">PCCNode</text>
<text text-anchor="start" x="97" y="-444" font-family="Helvetica,sans-Serif" font-size="10.00">#</text>
<text text-anchor="start" x="110" y="-444" font-family="Helvetica,sans-Serif" font-size="10.00">m_sourceId</text>
<text text-anchor="start" x="97" y="-429" font-family="Helvetica,sans-Serif" font-size="10.00">#</text>
<text text-anchor="start" x="110" y="-429" font-family="Helvetica,sans-Serif" font-size="10.00">m_edges</text>
<text text-anchor="start" x="97" y="-414" font-family="Helvetica,sans-Serif" font-size="10.00">+</text>
<text text-anchor="start" x="110" y="-414" font-family="Helvetica,sans-Serif" font-size="10.00">PCCNode()</text>
<text text-anchor="start" x="97" y="-399" font-family="Helvetica,sans-Serif" font-size="10.00">+</text>
<text text-anchor="start" x="110" y="-399" font-family="Helvetica,sans-Serif" font-size="10.00">PCCNode()</text>
<text text-anchor="start" x="97" y="-384" font-family="Helvetica,sans-Serif" font-size="10.00">+</text>
<text text-anchor="start" x="110" y="-384" font-family="Helvetica,sans-Serif" font-size="10.00">operator=()</text>
<text text-anchor="start" x="97" y="-369" font-family="Helvetica,sans-Serif" font-size="10.00">+</text>
<text text-anchor="start" x="110" y="-369" font-family="Helvetica,sans-Serif" font-size="10.00">PCCNode()</text>
<text text-anchor="start" x="97" y="-354" font-family="Helvetica,sans-Serif" font-size="10.00">+</text>
<text text-anchor="start" x="110" y="-354" font-family="Helvetica,sans-Serif" font-size="10.00">operator=()</text>
<text text-anchor="start" x="97" y="-339" font-family="Helvetica,sans-Serif" font-size="10.00">+</text>
<text text-anchor="start" x="110" y="-339" font-family="Helvetica,sans-Serif" font-size="10.00">~PCCNode()</text>
<text text-anchor="start" x="97" y="-324" font-family="Helvetica,sans-Serif" font-size="10.00">+</text>
<text text-anchor="start" x="110" y="-324" font-family="Helvetica,sans-Serif" font-size="10.00">getNodeType()</text>
<text text-anchor="start" x="97" y="-309" font-family="Helvetica,sans-Serif" font-size="10.00">+</text>
<text text-anchor="start" x="110" y="-309" font-family="Helvetica,sans-Serif" font-size="10.00">getSourceId()</text>
<text text-anchor="start" x="97" y="-294" font-family="Helvetica,sans-Serif" font-size="10.00">+</text>
<text text-anchor="start" x="110" y="-294" font-family="Helvetica,sans-Serif" font-size="10.00">getSource()</text>
<text text-anchor="start" x="97" y="-279" font-family="Helvetica,sans-Serif" font-size="10.00">+</text>
<text text-anchor="start" x="110" y="-279" font-family="Helvetica,sans-Serif" font-size="10.00">getPosition()</text>
<text text-anchor="start" x="97" y="-264" font-family="Helvetica,sans-Serif" font-size="10.00">+</text>
<text text-anchor="start" x="110" y="-264" font-family="Helvetica,sans-Serif" font-size="10.00">getEdges()</text>
<text text-anchor="start" x="97" y="-249" font-family="Helvetica,sans-Serif" font-size="10.00">+</text>
<text text-anchor="start" x="110" y="-249" font-family="Helvetica,sans-Serif" font-size="10.00">setPosition()</text>
<text text-anchor="start" x="97" y="-234" font-family="Helvetica,sans-Serif" font-size="10.00">+</text>
<text text-anchor="start" x="110" y="-234" font-family="Helvetica,sans-Serif" font-size="10.00">addEdge()</text>
<polygon fill="#666666" stroke="#666666" points="93,-454 93,-454 186,-454 186,-454 93,-454"/>
<polygon fill="#666666" stroke="#666666" points="93,-424 93,-424 108,-424 108,-424 93,-424"/>
<polygon fill="#666666" stroke="#666666" points="108,-424 108,-424 186,-424 186,-424 108,-424"/>
<polygon fill="none" stroke="#666666" points="92.5,-227 92.5,-471 185.5,-471 185.5,-227 92.5,-227"/>
</a>
</g>
</g>
<!-- Node2&#45;&gt;Node1 -->
<g id="edge1_Node000001_Node000002" class="edge">
<title>Node2&#45;&gt;Node1</title>
<g id="a_edge1_Node000001_Node000002"><a xlink:title=" ">
<path fill="none" stroke="#63b8ff" d="M139,-226.74C139,-211.52 139,-196.12 139,-181.37"/>
<polygon fill="none" stroke="#63b8ff" points="139,-181.15 135,-175.15 139,-169.15 143,-175.15 139,-181.15"/>
</a>
</g>
<text text-anchor="middle" x="162" y="-201" font-family="Helvetica,sans-Serif" font-size="10.00" fill="grey"> &#45;m_from</text>
<text text-anchor="middle" x="162" y="-190" font-family="Helvetica,sans-Serif" font-size="10.00" fill="grey">&#45;m_to</text>
</g>
<!-- Node3 -->
<g id="Node000003" class="node">
<title>Node3</title>
<g id="a_Node000003"><a xlink:href="classShuntingElement.html" target="_top" xlink:title="Interface abstraite pour tous les éléments de shuntage ferroviaire.">
<polygon fill="white" stroke="transparent" points="128.5,-672 7.5,-672 7.5,-518 128.5,-518 128.5,-672"/>
<text text-anchor="start" x="26.5" y="-660" font-family="Helvetica,sans-Serif" font-size="10.00">ShuntingElement</text>
<text text-anchor="start" x="12" y="-645" font-family="Helvetica,sans-Serif" font-size="10.00">#</text>
<text text-anchor="start" x="25" y="-645" font-family="Helvetica,sans-Serif" font-size="10.00">m_state</text>
<text text-anchor="start" x="12" y="-630" font-family="Helvetica,sans-Serif" font-size="10.00">+</text>
<text text-anchor="start" x="25" y="-630" font-family="Helvetica,sans-Serif" font-size="10.00">ShuntingElement()</text>
<text text-anchor="start" x="12" y="-615" font-family="Helvetica,sans-Serif" font-size="10.00">+</text>
<text text-anchor="start" x="25" y="-615" font-family="Helvetica,sans-Serif" font-size="10.00">~ShuntingElement()</text>
<text text-anchor="start" x="12" y="-600" font-family="Helvetica,sans-Serif" font-size="10.00">+</text>
<text text-anchor="start" x="25" y="-600" font-family="Helvetica,sans-Serif" font-size="10.00">ShuntingElement()</text>
<text text-anchor="start" x="12" y="-585" font-family="Helvetica,sans-Serif" font-size="10.00">+</text>
<text text-anchor="start" x="25" y="-585" font-family="Helvetica,sans-Serif" font-size="10.00">operator=()</text>
<text text-anchor="start" x="12" y="-570" font-family="Helvetica,sans-Serif" font-size="10.00">+</text>
<text text-anchor="start" x="25" y="-570" font-family="Helvetica,sans-Serif" font-size="10.00">getState()</text>
<text text-anchor="start" x="12" y="-555" font-family="Helvetica,sans-Serif" font-size="10.00">+</text>
<text text-anchor="start" x="25" y="-555" font-family="Helvetica,sans-Serif" font-size="10.00">isFree()</text>
<text text-anchor="start" x="12" y="-540" font-family="Helvetica,sans-Serif" font-size="10.00">+</text>
<text text-anchor="start" x="25" y="-540" font-family="Helvetica,sans-Serif" font-size="10.00">isOccupied()</text>
<text text-anchor="start" x="12" y="-525" font-family="Helvetica,sans-Serif" font-size="10.00">+</text>
<text text-anchor="start" x="25" y="-525" font-family="Helvetica,sans-Serif" font-size="10.00">isInactive()</text>
<polygon fill="#666666" stroke="#666666" points="8,-655 8,-655 129,-655 129,-655 8,-655"/>
<polygon fill="#666666" stroke="#666666" points="8,-640 8,-640 23,-640 23,-640 8,-640"/>
<polygon fill="#666666" stroke="#666666" points="23,-640 23,-640 129,-640 129,-640 23,-640"/>
<polygon fill="none" stroke="#666666" points="7.5,-518 7.5,-672 128.5,-672 128.5,-518 7.5,-518"/>
</a>
</g>
</g>
<!-- Node3&#45;&gt;Node2 -->
<g id="edge2_Node000002_Node000003" class="edge">
<title>Node3&#45;&gt;Node2</title>
<g id="a_edge2_Node000002_Node000003"><a xlink:title=" ">
<path fill="none" stroke="#63b8ff" d="M90.17,-517.8C93.41,-506.68 96.81,-494.97 100.26,-483.12"/>
<polygon fill="none" stroke="#63b8ff" points="100.37,-482.76 98.2,-475.89 103.72,-471.24 105.88,-478.12 100.37,-482.76"/>
</a>
</g>
<text text-anchor="middle" x="127.5" y="-492" font-family="Helvetica,sans-Serif" font-size="10.00" fill="grey"> #m_source</text>
</g>
<!-- Node4 -->
<g id="Node000004" class="node">
<title>Node4</title>
<g id="a_Node000004"><a xlink:href="classInteractiveElement.html" target="_top" xlink:title="Classe de base abstraite pour tous les éléments interactifs ferroviaires.">
<polygon fill="white" stroke="transparent" points="133,-863 3,-863 3,-709 133,-709 133,-863"/>
<text text-anchor="start" x="21" y="-851" font-family="Helvetica,sans-Serif" font-size="10.00">InteractiveElement</text>
<text text-anchor="start" x="7" y="-836" font-family="Helvetica,sans-Serif" font-size="10.00">#</text>
<text text-anchor="start" x="20" y="-836" font-family="Helvetica,sans-Serif" font-size="10.00">m_id</text>
<text text-anchor="start" x="7" y="-821" font-family="Helvetica,sans-Serif" font-size="10.00">+</text>
<text text-anchor="start" x="20" y="-821" font-family="Helvetica,sans-Serif" font-size="10.00">InteractiveElement()</text>
<text text-anchor="start" x="7" y="-806" font-family="Helvetica,sans-Serif" font-size="10.00">+</text>
<text text-anchor="start" x="20" y="-806" font-family="Helvetica,sans-Serif" font-size="10.00">~InteractiveElement()</text>
<text text-anchor="start" x="7" y="-791" font-family="Helvetica,sans-Serif" font-size="10.00">+</text>
<text text-anchor="start" x="20" y="-791" font-family="Helvetica,sans-Serif" font-size="10.00">InteractiveElement()</text>
<text text-anchor="start" x="7" y="-776" font-family="Helvetica,sans-Serif" font-size="10.00">+</text>
<text text-anchor="start" x="20" y="-776" font-family="Helvetica,sans-Serif" font-size="10.00">operator=()</text>
<text text-anchor="start" x="7" y="-761" font-family="Helvetica,sans-Serif" font-size="10.00">+</text>
<text text-anchor="start" x="20" y="-761" font-family="Helvetica,sans-Serif" font-size="10.00">InteractiveElement()</text>
<text text-anchor="start" x="7" y="-746" font-family="Helvetica,sans-Serif" font-size="10.00">+</text>
<text text-anchor="start" x="20" y="-746" font-family="Helvetica,sans-Serif" font-size="10.00">operator=()</text>
<text text-anchor="start" x="7" y="-731" font-family="Helvetica,sans-Serif" font-size="10.00">+</text>
<text text-anchor="start" x="20" y="-731" font-family="Helvetica,sans-Serif" font-size="10.00">getId()</text>
<text text-anchor="start" x="7" y="-716" font-family="Helvetica,sans-Serif" font-size="10.00">+</text>
<text text-anchor="start" x="20" y="-716" font-family="Helvetica,sans-Serif" font-size="10.00">getType()</text>
<polygon fill="#666666" stroke="#666666" points="3,-846 3,-846 133,-846 133,-846 3,-846"/>
<polygon fill="#666666" stroke="#666666" points="3,-831 3,-831 18,-831 18,-831 3,-831"/>
<polygon fill="#666666" stroke="#666666" points="18,-831 18,-831 133,-831 133,-831 18,-831"/>
<polygon fill="none" stroke="#666666" points="3,-709 3,-863 133,-863 133,-709 3,-709"/>
</a>
</g>
</g>
<!-- Node4&#45;&gt;Node3 -->
<g id="edge3_Node000003_Node000004" class="edge">
<title>Node4&#45;&gt;Node3</title>
<g id="a_edge3_Node000003_Node000004"><a xlink:title=" ">
<path fill="none" stroke="#63b8ff" d="M68,-698.94C68,-690.02 68,-681.01 68,-672.21"/>
<polygon fill="none" stroke="#63b8ff" points="64.5,-698.94 68,-708.94 71.5,-698.94 64.5,-698.94"/>
</a>
</g>
</g>
<!-- Node5 -->
<g id="Node000005" class="node">
<title>Node5</title>
<g id="a_Node000005"><a xlink:href="classLogger.html" target="_top" xlink:title="Journaliseur associé à un moteur nommé.">
<polygon fill="white" stroke="transparent" points="136,-1199 0,-1199 0,-910 136,-910 136,-1199"/>
<text text-anchor="start" x="51" y="-1186.5" font-family="Helvetica,sans-Serif" font-size="10.00">Logger</text>
<text text-anchor="start" x="6.5" y="-1171.5" font-family="Helvetica,sans-Serif" font-size="10.00">&#45;</text>
<text text-anchor="start" x="17" y="-1171.5" font-family="Helvetica,sans-Serif" font-size="10.00">m_motorName</text>
<text text-anchor="start" x="6.5" y="-1156.5" font-family="Helvetica,sans-Serif" font-size="10.00">&#45;</text>
<text text-anchor="start" x="17" y="-1156.5" font-family="Helvetica,sans-Serif" font-size="10.00">m_outputFile</text>
<text text-anchor="start" x="6.5" y="-1141.5" font-family="Helvetica,sans-Serif" font-size="10.00">&#45;</text>
<text text-anchor="start" x="17" y="-1141.5" font-family="Helvetica,sans-Serif" font-size="10.00">m_writeMutex</text>
<text text-anchor="start" x="6.5" y="-1126.5" font-family="Helvetica,sans-Serif" font-size="10.00">&#45;</text>
<text text-anchor="start" x="17" y="-1126.5" font-family="Helvetica,sans-Serif" font-size="10.00">m_minimumLevel</text>
<text text-anchor="start" x="4" y="-1111.5" font-family="Helvetica,sans-Serif" font-size="10.00">+</text>
<text text-anchor="start" x="17" y="-1111.5" font-family="Helvetica,sans-Serif" font-size="10.00">Logger()</text>
<text text-anchor="start" x="4" y="-1096.5" font-family="Helvetica,sans-Serif" font-size="10.00">+</text>
<text text-anchor="start" x="17" y="-1096.5" font-family="Helvetica,sans-Serif" font-size="10.00">~Logger()</text>
<text text-anchor="start" x="4" y="-1081.5" font-family="Helvetica,sans-Serif" font-size="10.00">+</text>
<text text-anchor="start" x="17" y="-1081.5" font-family="Helvetica,sans-Serif" font-size="10.00">Logger()</text>
<text text-anchor="start" x="4" y="-1066.5" font-family="Helvetica,sans-Serif" font-size="10.00">+</text>
<text text-anchor="start" x="17" y="-1066.5" font-family="Helvetica,sans-Serif" font-size="10.00">operator=()</text>
<text text-anchor="start" x="4" y="-1051.5" font-family="Helvetica,sans-Serif" font-size="10.00">+</text>
<text text-anchor="start" x="17" y="-1051.5" font-family="Helvetica,sans-Serif" font-size="10.00">writeLog()</text>
<text text-anchor="start" x="4" y="-1036.5" font-family="Helvetica,sans-Serif" font-size="10.00">+</text>
<text text-anchor="start" x="17" y="-1036.5" font-family="Helvetica,sans-Serif" font-size="10.00">setMinimumLogLevel()</text>
<text text-anchor="start" x="4" y="-1021.5" font-family="Helvetica,sans-Serif" font-size="10.00">+</text>
<text text-anchor="start" x="17" y="-1021.5" font-family="Helvetica,sans-Serif" font-size="10.00">getMotorName()</text>
<text text-anchor="start" x="4" y="-1006.5" font-family="Helvetica,sans-Serif" font-size="10.00">+</text>
<text text-anchor="start" x="17" y="-1006.5" font-family="Helvetica,sans-Serif" font-size="10.00">triggerFatalCrash()</text>
<text text-anchor="start" x="6.5" y="-991.5" font-family="Helvetica,sans-Serif" font-size="10.00">&#45;</text>
<text text-anchor="start" x="17" y="-991.5" font-family="Helvetica,sans-Serif" font-size="10.00">extractClassName()</text>
<text text-anchor="start" x="6.5" y="-976.5" font-family="Helvetica,sans-Serif" font-size="10.00">&#45;</text>
<text text-anchor="start" x="17" y="-976.5" font-family="Helvetica,sans-Serif" font-size="10.00">extractFunctionName()</text>
<text text-anchor="start" x="6.5" y="-961.5" font-family="Helvetica,sans-Serif" font-size="10.00">&#45;</text>
<text text-anchor="start" x="17" y="-961.5" font-family="Helvetica,sans-Serif" font-size="10.00">formatLogLine()</text>
<text text-anchor="start" x="6.5" y="-946.5" font-family="Helvetica,sans-Serif" font-size="10.00">&#45;</text>
<text text-anchor="start" x="17" y="-946.5" font-family="Helvetica,sans-Serif" font-size="10.00">levelToString()</text>
<text text-anchor="start" x="6.5" y="-931.5" font-family="Helvetica,sans-Serif" font-size="10.00">&#45;</text>
<text text-anchor="start" x="17" y="-931.5" font-family="Helvetica,sans-Serif" font-size="10.00">getCurrentTimestamp()</text>
<text text-anchor="start" x="6.5" y="-916.5" font-family="Helvetica,sans-Serif" font-size="10.00">&#45;</text>
<text text-anchor="start" x="17" y="-916.5" font-family="Helvetica,sans-Serif" font-size="10.00">sendToDebugOutput()</text>
<polygon fill="#666666" stroke="#666666" points="0,-1181.5 0,-1181.5 136,-1181.5 136,-1181.5 0,-1181.5"/>
<polygon fill="#666666" stroke="#666666" points="0,-1121.5 0,-1121.5 15,-1121.5 15,-1121.5 0,-1121.5"/>
<polygon fill="#666666" stroke="#666666" points="15,-1121.5 15,-1121.5 136,-1121.5 136,-1121.5 15,-1121.5"/>
<polygon fill="none" stroke="#666666" points="0,-910 0,-1199 136,-1199 136,-910 0,-910"/>
</a>
</g>
</g>
<!-- Node5&#45;&gt;Node4 -->
<g id="edge4_Node000004_Node000005" class="edge">
<title>Node5&#45;&gt;Node4</title>
<g id="a_edge4_Node000004_Node000005"><a xlink:title=" ">
<path fill="none" stroke="#63b8ff" d="M68,-909.72C68,-898.11 68,-886.61 68,-875.57"/>
<polygon fill="none" stroke="#63b8ff" points="68,-875.32 64,-869.32 68,-863.32 72,-869.32 68,-875.32"/>
</a>
</g>
<text text-anchor="middle" x="97" y="-884" font-family="Helvetica,sans-Serif" font-size="10.00" fill="grey"> #m_logger</text>
</g>
<!-- Node6 -->
<g id="Node000006" class="node">
<title>Node6</title>
<g id="a_Node000006"><a xlink:href="structPCCPosition.html" target="_top" xlink:title="Position logique d&#39;un nœud dans le schéma PCC.">
<polygon fill="white" stroke="transparent" points="215.5,-627 146.5,-627 146.5,-563 215.5,-563 215.5,-627"/>
<text text-anchor="start" x="152" y="-615" font-family="Helvetica,sans-Serif" font-size="10.00">PCCPosition</text>
<text text-anchor="start" x="161" y="-600" font-family="Helvetica,sans-Serif" font-size="10.00">+</text>
<text text-anchor="start" x="184" y="-600" font-family="Helvetica,sans-Serif" font-size="10.00">x</text>
<text text-anchor="start" x="161" y="-585" font-family="Helvetica,sans-Serif" font-size="10.00">+</text>
<text text-anchor="start" x="184" y="-585" font-family="Helvetica,sans-Serif" font-size="10.00">y</text>
<text text-anchor="start" x="179.5" y="-570" font-family="Helvetica,sans-Serif" font-size="10.00"> </text>
<polygon fill="#666666" stroke="#666666" points="147,-610 147,-610 216,-610 216,-610 147,-610"/>
<polygon fill="#666666" stroke="#666666" points="147,-580 147,-580 182,-580 182,-580 147,-580"/>
<polygon fill="#666666" stroke="#666666" points="182,-580 182,-580 216,-580 216,-580 182,-580"/>
<polygon fill="none" stroke="#666666" points="146.5,-563 146.5,-627 215.5,-627 215.5,-563 146.5,-563"/>
</a>
</g>
</g>
<!-- Node6&#45;&gt;Node2 -->
<g id="edge5_Node000002_Node000006" class="edge">
<title>Node6&#45;&gt;Node2</title>
<g id="a_edge5_Node000002_Node000006"><a xlink:title=" ">
<path fill="none" stroke="#63b8ff" d="M175.6,-562.6C172.01,-541.75 167.02,-512.81 161.89,-482.99"/>
<polygon fill="none" stroke="#63b8ff" points="161.88,-482.91 156.92,-477.67 159.84,-471.08 164.8,-476.32 161.88,-482.91"/>
</a>
</g>
<text text-anchor="middle" x="196" y="-492" font-family="Helvetica,sans-Serif" font-size="10.00" fill="grey"> #m_position</text>
</g>
</g>
</svg>
