<?xml version="1.0" encoding="UTF-8" standalone="no"?>
<!DOCTYPE svg PUBLIC "-//W3C//DTD SVG 1.1//EN"
 "http://www.w3.org/Graphics/SVG/1.1/DTD/svg11.dtd">
<!-- Generated by graphviz version 2.43.0 (0)
 -->
<!-- Title: TopologyRepository::instance Pages: 1 -->
<svg width="1794pt" height="344pt"
 viewBox="0.00 0.00 1794.00 343.50" xmlns="http://www.w3.org/2000/svg" xmlns:xlink="http://www.w3.org/1999/xlink">
<g id="graph0" class="graph" transform="scale(1 1) rotate(0) translate(4 339.5)">
<title>TopologyRepository::instance</title>
<!-- Node1 -->
<g id="Node000001" class="node">
<title>Node1</title>
<g id="a_Node000001"><a xlink:title="Retourne l&#39;instance unique du repository (création paresseuse).">
<polygon fill="#999999" stroke="#666666" points="1786,-190 1673,-190 1673,-160 1786,-160 1786,-190"/>
<text text-anchor="start" x="1681" y="-178" font-family="Helvetica,sans-Serif" font-size="10.00">TopologyRepository</text>
<text text-anchor="middle" x="1729.5" y="-167" font-family="Helvetica,sans-Serif" font-size="10.00">::instance</text>
</a>
</g>
</g>
<!-- Node1&#45;&gt;Node1 -->
<g id="edge13_Node000001_Node000001" class="edge">
<title>Node1&#45;&gt;Node1</title>
<g id="a_edge13_Node000001_Node000001"><a xlink:title=" ">
<path fill="none" stroke="#63b8ff" d="M1759.96,-200.6C1755.79,-204.97 1745.64,-208 1729.5,-208 1702.31,-208 1692.12,-199.41 1698.91,-190.28"/>
<polygon fill="#63b8ff" stroke="#63b8ff" points="1763.46,-200.32 1760.09,-190.28 1756.46,-200.23 1763.46,-200.32"/>
</a>
</g>
</g>
<!-- Node2 -->
<g id="Node000002" class="node">
<title>Node2</title>
<g id="a_Node000002"><a xlink:href="classGeoParser.html#a6b046fb217dd2d7240cde1aea4c9a5ec" target="_top" xlink:title="Dump détaillé des résultats dans les traces DEBUG.">
<polygon fill="white" stroke="#666666" points="1637,-335.5 1473,-335.5 1473,-316.5 1637,-316.5 1637,-335.5"/>
<text text-anchor="middle" x="1555" y="-323.5" font-family="Helvetica,sans-Serif" font-size="10.00">GeoParser::dumpDebugOutput</text>
</a>
</g>
</g>
<!-- Node1&#45;&gt;Node2 -->
<g id="edge1_Node000001_Node000002" class="edge">
<title>Node1&#45;&gt;Node2</title>
<g id="a_edge1_Node000001_Node000002"><a xlink:title=" ">
<path fill="none" stroke="#63b8ff" d="M1717.2,-199.33C1702.65,-228.05 1674.66,-275.27 1637,-302 1628.15,-308.28 1617.65,-312.94 1607.19,-316.38"/>
<polygon fill="#63b8ff" stroke="#63b8ff" points="1720.52,-200.53 1721.79,-190.01 1714.23,-197.44 1720.52,-200.53"/>
</a>
</g>
</g>
<!-- Node3 -->
<g id="Node000003" class="node">
<title>Node3</title>
<g id="a_Node000003"><a xlink:href="classGeoParser.html#aa4acc69a49444b9aa06b2c028b2c1133" target="_top" xlink:title="Lance le pipeline complet.">
<polygon fill="white" stroke="#666666" points="1401,-297.5 1302,-297.5 1302,-278.5 1401,-278.5 1401,-297.5"/>
<text text-anchor="middle" x="1351.5" y="-285.5" font-family="Helvetica,sans-Serif" font-size="10.00">GeoParser::parse</text>
</a>
</g>
</g>
<!-- Node1&#45;&gt;Node3 -->
<g id="edge18_Node000001_Node000003" class="edge">
<title>Node1&#45;&gt;Node3</title>
<g id="a_edge18_Node000001_Node000003"><a xlink:title=" ">
<path fill="none" stroke="#63b8ff" d="M1713.44,-198.38C1697.48,-220.91 1670.04,-253.74 1637,-269 1560.49,-304.35 1459.92,-301.08 1401.13,-294.93"/>
<polygon fill="#63b8ff" stroke="#63b8ff" points="1716.4,-200.25 1719.18,-190.03 1710.63,-196.29 1716.4,-200.25"/>
</a>
</g>
</g>
<!-- Node11 -->
<g id="Node000011" class="node">
<title>Node11</title>
<g id="a_Node000011"><a xlink:href="classTopologyRenderer.html#a5691412733606ec4139cac02585bd718" target="_top" xlink:title="Exporte la topologie ferroviaire dans un fichier GeoJSON.">
<polygon fill="white" stroke="#666666" points="1626,-260 1484,-260 1484,-230 1626,-230 1626,-260"/>
<text text-anchor="start" x="1492" y="-248" font-family="Helvetica,sans-Serif" font-size="10.00">TopologyRenderer::export</text>
<text text-anchor="middle" x="1555" y="-237" font-family="Helvetica,sans-Serif" font-size="10.00">ToFile</text>
</a>
</g>
</g>
<!-- Node1&#45;&gt;Node11 -->
<g id="edge10_Node000001_Node000011" class="edge">
<title>Node1&#45;&gt;Node11</title>
<g id="a_edge10_Node000001_Node000011"><a xlink:title=" ">
<path fill="none" stroke="#63b8ff" d="M1692.63,-194.89C1676.02,-203.62 1655.83,-213.55 1637,-221 1628.95,-224.19 1620.31,-227.18 1611.78,-229.9"/>
<polygon fill="#63b8ff" stroke="#63b8ff" points="1694.27,-197.98 1701.46,-190.19 1690.98,-191.8 1694.27,-197.98"/>
</a>
</g>
</g>
<!-- Node13 -->
<g id="Node000013" class="node">
<title>Node13</title>
<g id="a_Node000013"><a xlink:href="classTopologyRenderer.html#a53552ac3e53137c8510496ae2de4a4d8" target="_top" xlink:title="Génère le script JavaScript d&#39;injection GeoJSON dans le WebView.">
<polygon fill="white" stroke="#666666" points="1630.5,-212 1479.5,-212 1479.5,-182 1630.5,-182 1630.5,-212"/>
<text text-anchor="start" x="1487.5" y="-200" font-family="Helvetica,sans-Serif" font-size="10.00">TopologyRenderer::loadGeo</text>
<text text-anchor="middle" x="1555" y="-189" font-family="Helvetica,sans-Serif" font-size="10.00">JsonToWebView</text>
</a>
</g>
</g>
<!-- Node1&#45;&gt;Node13 -->
<g id="edge14_Node000001_Node000013" class="edge">
<title>Node1&#45;&gt;Node13</title>
<g id="a_edge14_Node000001_Node000013"><a xlink:title=" ">
<path fill="none" stroke="#63b8ff" d="M1662.99,-183.36C1652.41,-184.7 1641.39,-186.11 1630.61,-187.48"/>
<polygon fill="#63b8ff" stroke="#63b8ff" points="1663.49,-186.82 1672.97,-182.08 1662.61,-179.88 1663.49,-186.82"/>
</a>
</g>
</g>
<!-- Node14 -->
<g id="Node000014" class="node">
<title>Node14</title>
<g id="a_Node000014"><a xlink:href="classMainWindow.html#a242d9acf230544637908fc2cf31f1284" target="_top" xlink:title="Met à jour l&#39;état opérationnel d&#39;un SwitchBlock après un clic.">
<polygon fill="white" stroke="#666666" points="1631.5,-163.5 1478.5,-163.5 1478.5,-144.5 1631.5,-144.5 1631.5,-163.5"/>
<text text-anchor="middle" x="1555" y="-151.5" font-family="Helvetica,sans-Serif" font-size="10.00">MainWindow::onSwitchClick</text>
</a>
</g>
</g>
<!-- Node1&#45;&gt;Node14 -->
<g id="edge15_Node000001_Node000014" class="edge">
<title>Node1&#45;&gt;Node14</title>
<g id="a_edge15_Node000001_Node000014"><a xlink:title=" ">
<path fill="none" stroke="#63b8ff" d="M1662.89,-167.01C1652.65,-165.77 1641.99,-164.47 1631.55,-163.2"/>
<polygon fill="#63b8ff" stroke="#63b8ff" points="1662.62,-170.51 1672.97,-168.24 1663.47,-163.56 1662.62,-170.51"/>
</a>
</g>
</g>
<!-- Node17 -->
<g id="Node000017" class="node">
<title>Node17</title>
<g id="a_Node000017"><a xlink:href="classTopologyRenderer.html#ad8b9e3a9eddc5ee5835f1b6028fd2633" target="_top" xlink:title="Efface puis redessine tous les StraightBlocks.">
<polygon fill="white" stroke="#666666" points="1626,-126 1484,-126 1484,-96 1626,-96 1626,-126"/>
<text text-anchor="start" x="1492" y="-114" font-family="Helvetica,sans-Serif" font-size="10.00">TopologyRenderer::render</text>
<text text-anchor="middle" x="1555" y="-103" font-family="Helvetica,sans-Serif" font-size="10.00">AllStraightBlocks</text>
</a>
</g>
</g>
<!-- Node1&#45;&gt;Node17 -->
<g id="edge19_Node000001_Node000017" class="edge">
<title>Node1&#45;&gt;Node17</title>
<g id="a_edge19_Node000001_Node000017"><a xlink:title=" ">
<path fill="none" stroke="#63b8ff" d="M1687.35,-155.71C1671.75,-148.75 1653.72,-141.11 1637,-135 1628.46,-131.88 1619.3,-128.87 1610.33,-126.09"/>
<polygon fill="#63b8ff" stroke="#63b8ff" points="1686.16,-159.02 1696.71,-159.94 1689.04,-152.64 1686.16,-159.02"/>
</a>
</g>
</g>
<!-- Node19 -->
<g id="Node000019" class="node">
<title>Node19</title>
<g id="a_Node000019"><a xlink:href="classTopologyRenderer.html#adc1a75eb69d37d7b15c7dc013fa32f0d" target="_top" xlink:title="Efface puis redessine tous les marqueurs de jonction.">
<polygon fill="white" stroke="#666666" points="1626,-78 1484,-78 1484,-48 1626,-48 1626,-78"/>
<text text-anchor="start" x="1492" y="-66" font-family="Helvetica,sans-Serif" font-size="10.00">TopologyRenderer::render</text>
<text text-anchor="middle" x="1555" y="-55" font-family="Helvetica,sans-Serif" font-size="10.00">AllSwitchBlocksJunctions</text>
</a>
</g>
</g>
<!-- Node1&#45;&gt;Node19 -->
<g id="edge22_Node000001_Node000019" class="edge">
<title>Node1&#45;&gt;Node19</title>
<g id="a_edge22_Node000001_Node000019"><a xlink:title=" ">
<path fill="none" stroke="#63b8ff" d="M1710.41,-152.28C1693.42,-132.38 1666.3,-104.05 1637,-87 1631.17,-83.61 1624.82,-80.66 1618.32,-78.1"/>
<polygon fill="#63b8ff" stroke="#63b8ff" points="1707.73,-154.54 1716.83,-159.97 1713.11,-150.05 1707.73,-154.54"/>
</a>
</g>
</g>
<!-- Node20 -->
<g id="Node000020" class="node">
<title>Node20</title>
<g id="a_Node000020"><a xlink:href="classTopologyRenderer.html#a82bdf3d4be07c75f7ff3e637b17d5f67" target="_top" xlink:title="Efface puis redessine les branches de tous les switches.">
<polygon fill="white" stroke="#666666" points="1626,-30 1484,-30 1484,0 1626,0 1626,-30"/>
<text text-anchor="start" x="1492" y="-18" font-family="Helvetica,sans-Serif" font-size="10.00">TopologyRenderer::render</text>
<text text-anchor="middle" x="1555" y="-7" font-family="Helvetica,sans-Serif" font-size="10.00">AllSwitchBranches</text>
</a>
</g>
</g>
<!-- Node1&#45;&gt;Node20 -->
<g id="edge24_Node000001_Node000020" class="edge">
<title>Node1&#45;&gt;Node20</title>
<g id="a_edge24_Node000001_Node000020"><a xlink:title=" ">
<path fill="none" stroke="#63b8ff" d="M1718.28,-150.3C1704.36,-119.7 1676.57,-68.05 1637,-39 1632.27,-35.53 1627.04,-32.56 1621.59,-30.01"/>
<polygon fill="#63b8ff" stroke="#63b8ff" points="1715.23,-152.07 1722.46,-159.81 1721.64,-149.25 1715.23,-152.07"/>
</a>
</g>
</g>
<!-- Node2&#45;&gt;Node3 -->
<g id="edge2_Node000002_Node000003" class="edge">
<title>Node2&#45;&gt;Node3</title>
<g id="a_edge2_Node000002_Node000003"><a xlink:title=" ">
<path fill="none" stroke="#63b8ff" d="M1493.22,-314.54C1463.7,-308.97 1428.72,-302.37 1401.02,-297.15"/>
<polygon fill="#63b8ff" stroke="#63b8ff" points="1492.94,-318.05 1503.41,-316.46 1494.23,-311.17 1492.94,-318.05"/>
</a>
</g>
</g>
<!-- Node4 -->
<g id="Node000004" class="node">
<title>Node4</title>
<g id="a_Node000004"><a xlink:href="classGeoParsingTask.html#affe9d461e96e029708ced380b63da972" target="_top" xlink:title="Lance le parsing GeoJSON dans un thread séparé et détaché.">
<polygon fill="white" stroke="#666666" points="1230,-296.5 1099,-296.5 1099,-277.5 1230,-277.5 1230,-296.5"/>
<text text-anchor="middle" x="1164.5" y="-284.5" font-family="Helvetica,sans-Serif" font-size="10.00">GeoParsingTask::launch</text>
</a>
</g>
</g>
<!-- Node3&#45;&gt;Node4 -->
<g id="edge3_Node000003_Node000004" class="edge">
<title>Node3&#45;&gt;Node4</title>
<g id="a_edge3_Node000003_Node000004"><a xlink:title=" ">
<path fill="none" stroke="#63b8ff" d="M1291.86,-287.68C1272.22,-287.58 1250.21,-287.46 1230.14,-287.35"/>
<polygon fill="#63b8ff" stroke="#63b8ff" points="1291.87,-291.18 1301.89,-287.74 1291.91,-284.18 1291.87,-291.18"/>
</a>
</g>
</g>
<!-- Node5 -->
<g id="Node000005" class="node">
<title>Node5</title>
<g id="a_Node000005"><a xlink:href="classMainWindow.html#a889cc45fb741e12015f4af9f01acaa96" target="_top" xlink:title="Ouvre le sélecteur de fichier et lance le parsing asynchrone.">
<polygon fill="white" stroke="#666666" points="1060,-294.5 920,-294.5 920,-275.5 1060,-275.5 1060,-294.5"/>
<text text-anchor="middle" x="990" y="-282.5" font-family="Helvetica,sans-Serif" font-size="10.00">MainWindow::onFileOpen</text>
</a>
</g>
</g>
<!-- Node4&#45;&gt;Node5 -->
<g id="edge4_Node000004_Node000005" class="edge">
<title>Node4&#45;&gt;Node5</title>
<g id="a_edge4_Node000004_Node000005"><a xlink:title=" ">
<path fill="none" stroke="#63b8ff" d="M1088.6,-286.13C1079.14,-286.02 1069.49,-285.91 1060.13,-285.8"/>
<polygon fill="#63b8ff" stroke="#63b8ff" points="1088.74,-289.63 1098.78,-286.25 1088.82,-282.63 1088.74,-289.63"/>
</a>
</g>
</g>
<!-- Node6 -->
<g id="Node000006" class="node">
<title>Node6</title>
<g id="a_Node000006"><a xlink:href="classMainWindow.html#afbecf0f64f48c5c868168884bab52356" target="_top" xlink:title="Gère les commandes menu (WM_COMMAND).">
<polygon fill="white" stroke="#666666" points="881,-254.5 734,-254.5 734,-235.5 881,-235.5 881,-254.5"/>
<text text-anchor="middle" x="807.5" y="-242.5" font-family="Helvetica,sans-Serif" font-size="10.00">MainWindow::onCommand</text>
</a>
</g>
</g>
<!-- Node5&#45;&gt;Node6 -->
<g id="edge5_Node000005_Node000006" class="edge">
<title>Node5&#45;&gt;Node6</title>
<g id="a_edge5_Node000005_Node000006"><a xlink:title=" ">
<path fill="none" stroke="#63b8ff" d="M935.74,-273.2C908.85,-267.24 876.66,-260.1 851.38,-254.5"/>
<polygon fill="#63b8ff" stroke="#63b8ff" points="935.25,-276.67 945.77,-275.42 936.76,-269.84 935.25,-276.67"/>
</a>
</g>
</g>
<!-- Node7 -->
<g id="Node000007" class="node">
<title>Node7</title>
<g id="a_Node000007"><a xlink:href="classMainWindow.html#ab85682874f3ab5dfa81f782f889d8556" target="_top" xlink:title="Dispatcher principal des messages de la fenêtre.">
<polygon fill="white" stroke="#666666" points="698,-163.5 537,-163.5 537,-144.5 698,-144.5 698,-163.5"/>
<text text-anchor="middle" x="617.5" y="-151.5" font-family="Helvetica,sans-Serif" font-size="10.00">MainWindow::handleMessage</text>
</a>
</g>
</g>
<!-- Node6&#45;&gt;Node7 -->
<g id="edge6_Node000006_Node000007" class="edge">
<title>Node6&#45;&gt;Node7</title>
<g id="a_edge6_Node000006_Node000007"><a xlink:title=" ">
<path fill="none" stroke="#63b8ff" d="M777.58,-231C738.96,-212.31 671.58,-179.69 638.28,-163.57"/>
<polygon fill="#63b8ff" stroke="#63b8ff" points="776.21,-234.23 786.74,-235.43 779.26,-227.93 776.21,-234.23"/>
</a>
</g>
</g>
<!-- Node8 -->
<g id="Node000008" class="node">
<title>Node8</title>
<g id="a_Node000008"><a xlink:href="classMainWindow.html#a332648d0a0caec8070b05bc27bb9a14b" target="_top" xlink:title="Procédure de fenêtre statique, point d&#39;entrée imposé par Win32.">
<polygon fill="white" stroke="#666666" points="501,-163.5 358,-163.5 358,-144.5 501,-144.5 501,-163.5"/>
<text text-anchor="middle" x="429.5" y="-151.5" font-family="Helvetica,sans-Serif" font-size="10.00">MainWindow::windowProc</text>
</a>
</g>
</g>
<!-- Node7&#45;&gt;Node8 -->
<g id="edge7_Node000007_Node000008" class="edge">
<title>Node7&#45;&gt;Node8</title>
<g id="a_edge7_Node000007_Node000008"><a xlink:title=" ">
<path fill="none" stroke="#63b8ff" d="M526.77,-154C518.2,-154 509.58,-154 501.22,-154"/>
<polygon fill="#63b8ff" stroke="#63b8ff" points="526.81,-157.5 536.81,-154 526.81,-150.5 526.81,-157.5"/>
</a>
</g>
</g>
<!-- Node9 -->
<g id="Node000009" class="node">
<title>Node9</title>
<g id="a_Node000009"><a xlink:href="classApplication.html#a0bda40de108938fd29374335bf4eac71" target="_top" xlink:title="Enregistre la classe de fenêtre Win32 (WNDCLASSEXW).">
<polygon fill="white" stroke="#666666" points="322,-169 168,-169 168,-139 322,-139 322,-169"/>
<text text-anchor="start" x="176" y="-157" font-family="Helvetica,sans-Serif" font-size="10.00">Application::registerWindow</text>
<text text-anchor="middle" x="245" y="-146" font-family="Helvetica,sans-Serif" font-size="10.00">Class</text>
</a>
</g>
</g>
<!-- Node8&#45;&gt;Node9 -->
<g id="edge8_Node000008_Node000009" class="edge">
<title>Node8&#45;&gt;Node9</title>
<g id="a_edge8_Node000008_Node000009"><a xlink:title=" ">
<path fill="none" stroke="#63b8ff" d="M347.66,-154C339.17,-154 330.56,-154 322.12,-154"/>
<polygon fill="#63b8ff" stroke="#63b8ff" points="347.94,-157.5 357.94,-154 347.94,-150.5 347.94,-157.5"/>
</a>
</g>
</g>
<!-- Node10 -->
<g id="Node000010" class="node">
<title>Node10</title>
<g id="a_Node000010"><a xlink:href="classApplication.html#a719cf091afd2276d52f9a58e4962ebfb" target="_top" xlink:title="Construit l&#39;application et enregistre la classe de fenêtre.">
<polygon fill="white" stroke="#666666" points="132,-163.5 0,-163.5 0,-144.5 132,-144.5 132,-163.5"/>
<text text-anchor="middle" x="66" y="-151.5" font-family="Helvetica,sans-Serif" font-size="10.00">Application::Application</text>
</a>
</g>
</g>
<!-- Node9&#45;&gt;Node10 -->
<g id="edge9_Node000009_Node000010" class="edge">
<title>Node9&#45;&gt;Node10</title>
<g id="a_edge9_Node000009_Node000010"><a xlink:title=" ">
<path fill="none" stroke="#63b8ff" d="M157.82,-154C149.19,-154 140.53,-154 132.18,-154"/>
<polygon fill="#63b8ff" stroke="#63b8ff" points="157.91,-157.5 167.91,-154 157.91,-150.5 157.91,-157.5"/>
</a>
</g>
</g>
<!-- Node12 -->
<g id="Node000012" class="node">
<title>Node12</title>
<g id="a_Node000012"><a xlink:href="classMainWindow.html#a4429f521642e48894e0efce5b41bd0ae" target="_top" xlink:title="Ouvre le dialogue d&#39;exportation et déclenche l&#39;export GeoJSON.">
<polygon fill="white" stroke="#666666" points="1063,-254.5 917,-254.5 917,-235.5 1063,-235.5 1063,-254.5"/>
<text text-anchor="middle" x="990" y="-242.5" font-family="Helvetica,sans-Serif" font-size="10.00">MainWindow::onFileExport</text>
</a>
</g>
</g>
<!-- Node11&#45;&gt;Node12 -->
<g id="edge11_Node000011_Node000012" class="edge">
<title>Node11&#45;&gt;Node12</title>
<g id="a_edge11_Node000011_Node000012"><a xlink:title=" ">
<path fill="none" stroke="#63b8ff" d="M1473.82,-245C1364.11,-245 1168.86,-245 1063.39,-245"/>
<polygon fill="#63b8ff" stroke="#63b8ff" points="1473.83,-248.5 1483.83,-245 1473.83,-241.5 1473.83,-248.5"/>
</a>
</g>
</g>
<!-- Node12&#45;&gt;Node6 -->
<g id="edge12_Node000012_Node000006" class="edge">
<title>Node12&#45;&gt;Node6</title>
<g id="a_edge12_Node000012_Node000006"><a xlink:title=" ">
<path fill="none" stroke="#63b8ff" d="M906.86,-245C898.26,-245 889.57,-245 881.09,-245"/>
<polygon fill="#63b8ff" stroke="#63b8ff" points="906.88,-248.5 916.88,-245 906.88,-241.5 906.88,-248.5"/>
</a>
</g>
</g>
<!-- Node15 -->
<g id="Node000015" class="node">
<title>Node15</title>
<g id="a_Node000015"><a xlink:href="classMainWindow.html#a6e84464d583e27d6f978385b22a5945f" target="_top" xlink:title="Dispatcher principal des messages JSON reçus depuis Leaflet.">
<polygon fill="white" stroke="#666666" points="1432,-163.5 1271,-163.5 1271,-144.5 1432,-144.5 1432,-163.5"/>
<text text-anchor="middle" x="1351.5" y="-151.5" font-family="Helvetica,sans-Serif" font-size="10.00">MainWindow::onWebMessage</text>
</a>
</g>
</g>
<!-- Node14&#45;&gt;Node15 -->
<g id="edge16_Node000014_Node000015" class="edge">
<title>Node14&#45;&gt;Node15</title>
<g id="a_edge16_Node000014_Node000015"><a xlink:title=" ">
<path fill="none" stroke="#63b8ff" d="M1468.04,-154C1456.16,-154 1444,-154 1432.23,-154"/>
<polygon fill="#63b8ff" stroke="#63b8ff" points="1468.4,-157.5 1478.4,-154 1468.4,-150.5 1468.4,-157.5"/>
</a>
</g>
</g>
<!-- Node16 -->
<g id="Node000016" class="node">
<title>Node16</title>
<g id="a_Node000016"><a xlink:href="classMainWindow.html#a627d9feed19c3096079d91d6d38b9bf9" target="_top" xlink:title="Crée et affiche la fenêtre Win32, puis initialise la ProgressBar.">
<polygon fill="white" stroke="#666666" points="1222.5,-163.5 1106.5,-163.5 1106.5,-144.5 1222.5,-144.5 1222.5,-163.5"/>
<text text-anchor="middle" x="1164.5" y="-151.5" font-family="Helvetica,sans-Serif" font-size="10.00">MainWindow::create</text>
</a>
</g>
</g>
<!-- Node15&#45;&gt;Node16 -->
<g id="edge17_Node000015_Node000016" class="edge">
<title>Node15&#45;&gt;Node16</title>
<g id="a_edge17_Node000015_Node000016"><a xlink:title=" ">
<path fill="none" stroke="#63b8ff" d="M1260.63,-154C1247.69,-154 1234.69,-154 1222.63,-154"/>
<polygon fill="#63b8ff" stroke="#63b8ff" points="1260.97,-157.5 1270.97,-154 1260.97,-150.5 1260.97,-157.5"/>
</a>
</g>
</g>
<!-- Node18 -->
<g id="Node000018" class="node">
<title>Node18</title>
<g id="a_Node000018"><a xlink:href="classMainWindow.html#a90cae565f67d1291d690d974547041a0" target="_top" xlink:title="Gère la fin réussie du parsing (WM_PARSING_SUCCESS).">
<polygon fill="white" stroke="#666666" points="1437,-85.5 1266,-85.5 1266,-66.5 1437,-66.5 1437,-85.5"/>
<text text-anchor="middle" x="1351.5" y="-73.5" font-family="Helvetica,sans-Serif" font-size="10.00">MainWindow::onParsingSuccess</text>
</a>
</g>
</g>
<!-- Node17&#45;&gt;Node18 -->
<g id="edge20_Node000017_Node000018" class="edge">
<title>Node17&#45;&gt;Node18</title>
<g id="a_edge20_Node000017_Node000018"><a xlink:title=" ">
<path fill="none" stroke="#63b8ff" d="M1473.68,-97.05C1451.37,-93.17 1427.68,-89.06 1407.21,-85.5"/>
<polygon fill="#63b8ff" stroke="#63b8ff" points="1473.36,-100.54 1483.81,-98.81 1474.55,-93.65 1473.36,-100.54"/>
</a>
</g>
</g>
<!-- Node18&#45;&gt;Node7 -->
<g id="edge21_Node000018_Node000007" class="edge">
<title>Node18&#45;&gt;Node7</title>
<g id="a_edge21_Node000018_Node000007"><a xlink:title=" ">
<path fill="none" stroke="#63b8ff" d="M1255.56,-86.12C1109.96,-101.63 834.14,-131.02 698.25,-145.5"/>
<polygon fill="#63b8ff" stroke="#63b8ff" points="1256.24,-89.56 1265.82,-85.02 1255.5,-82.6 1256.24,-89.56"/>
</a>
</g>
</g>
<!-- Node19&#45;&gt;Node18 -->
<g id="edge23_Node000019_Node000018" class="edge">
<title>Node19&#45;&gt;Node18</title>
<g id="a_edge23_Node000019_Node000018"><a xlink:title=" ">
<path fill="none" stroke="#63b8ff" d="M1473.48,-68.19C1461.6,-68.96 1449.32,-69.75 1437.35,-70.53"/>
<polygon fill="#63b8ff" stroke="#63b8ff" points="1474.05,-71.67 1483.81,-67.53 1473.6,-64.68 1474.05,-71.67"/>
</a>
</g>
</g>
<!-- Node20&#45;&gt;Node18 -->
<g id="edge25_Node000020_Node000018" class="edge">
<title>Node20&#45;&gt;Node18</title>
<g id="a_edge25_Node000020_Node000018"><a xlink:title=" ">
<path fill="none" stroke="#63b8ff" d="M1493.1,-32.97C1486.32,-35 1479.51,-37.04 1473,-39 1442.41,-48.23 1407.52,-58.96 1383.18,-66.49"/>
<polygon fill="#63b8ff" stroke="#63b8ff" points="1494.4,-36.24 1502.99,-30.03 1492.41,-29.53 1494.4,-36.24"/>
</a>
</g>
</g>
</g>
</svg>
