<?xml version="1.0" encoding="UTF-8" standalone="no"?>
<!DOCTYPE svg PUBLIC "-//W3C//DTD SVG 1.1//EN"
 "http://www.w3.org/Graphics/SVG/1.1/DTD/svg11.dtd">
<!-- Generated by graphviz version 2.43.0 (0)
 -->
<!-- Title: MainWindow::onParsingError Pages: 1 -->
<svg width="337pt" height="64pt"
 viewBox="0.00 0.00 337.00 64.00" xmlns="http://www.w3.org/2000/svg" xmlns:xlink="http://www.w3.org/1999/xlink">
<g id="graph0" class="graph" transform="scale(1 1) rotate(0) translate(4 60)">
<title>MainWindow::onParsingError</title>
<!-- Node1 -->
<g id="Node000001" class="node">
<title>Node1</title>
<g id="a_Node000001"><a xlink:title="Gère un échec de parsing (WM_PARSING_ERROR).">
<polygon fill="#999999" stroke="#666666" points="155,-37 0,-37 0,-18 155,-18 155,-37"/>
<text text-anchor="middle" x="77.5" y="-25" font-family="Helvetica,sans-Serif" font-size="10.00">MainWindow::onParsingError</text>
</a>
</g>
</g>
<!-- Node2 -->
<g id="Node000002" class="node">
<title>Node2</title>
<g id="a_Node000002"><a xlink:href="classProgressBar.html#ad06234c2844ac3beb9f8e8532015c0cd" target="_top" xlink:title="Met à jour la progression.">
<polygon fill="white" stroke="#666666" points="329,-56 191,-56 191,-37 329,-37 329,-56"/>
<text text-anchor="middle" x="260" y="-44" font-family="Helvetica,sans-Serif" font-size="10.00">ProgressBar::setProgress</text>
</a>
</g>
</g>
<!-- Node1&#45;&gt;Node2 -->
<g id="edge1_Node000001_Node000002" class="edge">
<title>Node1&#45;&gt;Node2</title>
<g id="a_edge1_Node000001_Node000002"><a xlink:title=" ">
<path fill="none" stroke="#63b8ff" d="M155.05,-35.56C163.61,-36.46 172.34,-37.38 180.93,-38.28"/>
<polygon fill="#63b8ff" stroke="#63b8ff" points="180.6,-41.77 190.91,-39.33 181.33,-34.81 180.6,-41.77"/>
</a>
</g>
</g>
<!-- Node3 -->
<g id="Node000003" class="node">
<title>Node3</title>
<g id="a_Node000003"><a xlink:href="classProgressBar.html#ac9fbcf04d7d4e8c5b3e332efcfc0d34c" target="_top" xlink:title="Show or hide the ProgressBar.">
<polygon fill="white" stroke="#666666" points="313.5,-19 206.5,-19 206.5,0 313.5,0 313.5,-19"/>
<text text-anchor="middle" x="260" y="-7" font-family="Helvetica,sans-Serif" font-size="10.00">ProgressBar::show</text>
</a>
</g>
</g>
<!-- Node1&#45;&gt;Node3 -->
<g id="edge2_Node000001_Node000003" class="edge">
<title>Node1&#45;&gt;Node3</title>
<g id="a_edge2_Node000001_Node000003"><a xlink:title=" ">
<path fill="none" stroke="#63b8ff" d="M155.05,-19.87C168.83,-18.49 183.05,-17.07 196.38,-15.74"/>
<polygon fill="#63b8ff" stroke="#63b8ff" points="196.77,-19.22 206.38,-14.75 196.08,-12.26 196.77,-19.22"/>
</a>
</g>
</g>
</g>
</svg>
