<?xml version="1.0" encoding="UTF-8" standalone="no"?>
<!DOCTYPE svg PUBLIC "-//W3C//DTD SVG 1.1//EN"
 "http://www.w3.org/Graphics/SVG/1.1/DTD/svg11.dtd">
<!-- Generated by graphviz version 2.43.0 (0)
 -->
<!-- Title: GeometryUtils::convertPolylineToWgs84 Pages: 1 -->
<svg width="1865pt" height="86pt"
 viewBox="0.00 0.00 1865.00 86.00" xmlns="http://www.w3.org/2000/svg" xmlns:xlink="http://www.w3.org/1999/xlink">
<g id="graph0" class="graph" transform="scale(1 1) rotate(0) translate(4 82)">
<title>GeometryUtils::convertPolylineToWgs84</title>
<!-- Node1 -->
<g id="Node000001" class="node">
<title>Node1</title>
<g id="a_Node000001"><a xlink:title="Convertit une polyligne métrique UTM en WGS&#45;84.">
<polygon fill="#999999" stroke="#666666" points="1857,-54 1687,-54 1687,-24 1857,-24 1857,-54"/>
<text text-anchor="start" x="1695" y="-42" font-family="Helvetica,sans-Serif" font-size="10.00">GeometryUtils::convertPolyline</text>
<text text-anchor="middle" x="1772" y="-31" font-family="Helvetica,sans-Serif" font-size="10.00">ToWgs84</text>
</a>
</g>
</g>
<!-- Node2 -->
<g id="Node000002" class="node">
<title>Node2</title>
<g id="a_Node000002"><a xlink:href="classTopologyExtractor.html#a8003022ac7f09c074969ec22d3305429" target="_top" xlink:title=" ">
<polygon fill="white" stroke="#666666" points="1651,-78 1541,-78 1541,-48 1651,-48 1651,-78"/>
<text text-anchor="start" x="1549" y="-66" font-family="Helvetica,sans-Serif" font-size="10.00">TopologyExtractor::</text>
<text text-anchor="middle" x="1596" y="-55" font-family="Helvetica,sans-Serif" font-size="10.00">extractStraights</text>
</a>
</g>
</g>
<!-- Node1&#45;&gt;Node2 -->
<g id="edge1_Node000001_Node000002" class="edge">
<title>Node1&#45;&gt;Node2</title>
<g id="a_edge1_Node000001_Node000002"><a xlink:title=" ">
<path fill="none" stroke="#63b8ff" d="M1676.84,-51.99C1668.04,-53.2 1659.34,-54.4 1651.1,-55.54"/>
<polygon fill="#63b8ff" stroke="#63b8ff" points="1677.38,-55.45 1686.8,-50.61 1676.42,-48.51 1677.38,-55.45"/>
</a>
</g>
</g>
<!-- Node12 -->
<g id="Node000012" class="node">
<title>Node12</title>
<g id="a_Node000012"><a xlink:href="classTopologyExtractor.html#ad1d5361674a11a78d2ea58a6024fb140" target="_top" xlink:title=" ">
<polygon fill="white" stroke="#666666" points="1651,-30 1541,-30 1541,0 1651,0 1651,-30"/>
<text text-anchor="start" x="1549" y="-18" font-family="Helvetica,sans-Serif" font-size="10.00">TopologyExtractor::</text>
<text text-anchor="middle" x="1596" y="-7" font-family="Helvetica,sans-Serif" font-size="10.00">splitLongStraights</text>
</a>
</g>
</g>
<!-- Node1&#45;&gt;Node12 -->
<g id="edge11_Node000001_Node000012" class="edge">
<title>Node1&#45;&gt;Node12</title>
<g id="a_edge11_Node000001_Node000012"><a xlink:title=" ">
<path fill="none" stroke="#63b8ff" d="M1676.84,-26.01C1668.04,-24.8 1659.34,-23.6 1651.1,-22.46"/>
<polygon fill="#63b8ff" stroke="#63b8ff" points="1676.42,-29.49 1686.8,-27.39 1677.38,-22.55 1676.42,-29.49"/>
</a>
</g>
</g>
<!-- Node3 -->
<g id="Node000003" class="node">
<title>Node3</title>
<g id="a_Node000003"><a xlink:href="classTopologyExtractor.html#a356459ec218bf270f643460da781bd0d" target="_top" xlink:title="Exécute les phases 3, 4, 5a et 5b et retourne le résultat.">
<polygon fill="white" stroke="#666666" points="1505,-54 1395,-54 1395,-24 1505,-24 1505,-54"/>
<text text-anchor="start" x="1403" y="-42" font-family="Helvetica,sans-Serif" font-size="10.00">TopologyExtractor::</text>
<text text-anchor="middle" x="1450" y="-31" font-family="Helvetica,sans-Serif" font-size="10.00">extract</text>
</a>
</g>
</g>
<!-- Node2&#45;&gt;Node3 -->
<g id="edge2_Node000002_Node000003" class="edge">
<title>Node2&#45;&gt;Node3</title>
<g id="a_edge2_Node000002_Node000003"><a xlink:title=" ">
<path fill="none" stroke="#63b8ff" d="M1531.01,-52.33C1522.44,-50.91 1513.72,-49.45 1505.33,-48.06"/>
<polygon fill="#63b8ff" stroke="#63b8ff" points="1530.53,-55.8 1540.97,-54 1531.68,-48.9 1530.53,-55.8"/>
</a>
</g>
</g>
<!-- Node4 -->
<g id="Node000004" class="node">
<title>Node4</title>
<g id="a_Node000004"><a xlink:href="classGeoParser.html#aa4acc69a49444b9aa06b2c028b2c1133" target="_top" xlink:title="Lance le pipeline complet.">
<polygon fill="white" stroke="#666666" points="1359,-48.5 1260,-48.5 1260,-29.5 1359,-29.5 1359,-48.5"/>
<text text-anchor="middle" x="1309.5" y="-36.5" font-family="Helvetica,sans-Serif" font-size="10.00">GeoParser::parse</text>
</a>
</g>
</g>
<!-- Node3&#45;&gt;Node4 -->
<g id="edge3_Node000003_Node000004" class="edge">
<title>Node3&#45;&gt;Node4</title>
<g id="a_edge3_Node000003_Node000004"><a xlink:title=" ">
<path fill="none" stroke="#63b8ff" d="M1384.42,-39C1375.97,-39 1367.42,-39 1359.28,-39"/>
<polygon fill="#63b8ff" stroke="#63b8ff" points="1384.66,-42.5 1394.66,-39 1384.66,-35.5 1384.66,-42.5"/>
</a>
</g>
</g>
<!-- Node5 -->
<g id="Node000005" class="node">
<title>Node5</title>
<g id="a_Node000005"><a xlink:href="classGeoParsingTask.html#affe9d461e96e029708ced380b63da972" target="_top" xlink:title="Lance le parsing GeoJSON dans un thread séparé et détaché.">
<polygon fill="white" stroke="#666666" points="1224,-48.5 1093,-48.5 1093,-29.5 1224,-29.5 1224,-48.5"/>
<text text-anchor="middle" x="1158.5" y="-36.5" font-family="Helvetica,sans-Serif" font-size="10.00">GeoParsingTask::launch</text>
</a>
</g>
</g>
<!-- Node4&#45;&gt;Node5 -->
<g id="edge4_Node000004_Node000005" class="edge">
<title>Node4&#45;&gt;Node5</title>
<g id="a_edge4_Node000004_Node000005"><a xlink:title=" ">
<path fill="none" stroke="#63b8ff" d="M1249.65,-39C1241.27,-39 1232.6,-39 1224.12,-39"/>
<polygon fill="#63b8ff" stroke="#63b8ff" points="1249.71,-42.5 1259.71,-39 1249.71,-35.5 1249.71,-42.5"/>
</a>
</g>
</g>
<!-- Node6 -->
<g id="Node000006" class="node">
<title>Node6</title>
<g id="a_Node000006"><a xlink:href="classMainWindow.html#a889cc45fb741e12015f4af9f01acaa96" target="_top" xlink:title="Ouvre le sélecteur de fichier et lance le parsing asynchrone.">
<polygon fill="white" stroke="#666666" points="1057,-48.5 917,-48.5 917,-29.5 1057,-29.5 1057,-48.5"/>
<text text-anchor="middle" x="987" y="-36.5" font-family="Helvetica,sans-Serif" font-size="10.00">MainWindow::onFileOpen</text>
</a>
</g>
</g>
<!-- Node5&#45;&gt;Node6 -->
<g id="edge5_Node000005_Node000006" class="edge">
<title>Node5&#45;&gt;Node6</title>
<g id="a_edge5_Node000005_Node000006"><a xlink:title=" ">
<path fill="none" stroke="#63b8ff" d="M1082.68,-39C1074.2,-39 1065.59,-39 1057.18,-39"/>
<polygon fill="#63b8ff" stroke="#63b8ff" points="1082.94,-42.5 1092.94,-39 1082.94,-35.5 1082.94,-42.5"/>
</a>
</g>
</g>
<!-- Node7 -->
<g id="Node000007" class="node">
<title>Node7</title>
<g id="a_Node000007"><a xlink:href="classMainWindow.html#afbecf0f64f48c5c868168884bab52356" target="_top" xlink:title="Gère les commandes menu (WM_COMMAND).">
<polygon fill="white" stroke="#666666" points="881,-48.5 734,-48.5 734,-29.5 881,-29.5 881,-48.5"/>
<text text-anchor="middle" x="807.5" y="-36.5" font-family="Helvetica,sans-Serif" font-size="10.00">MainWindow::onCommand</text>
</a>
</g>
</g>
<!-- Node6&#45;&gt;Node7 -->
<g id="edge6_Node000006_Node000007" class="edge">
<title>Node6&#45;&gt;Node7</title>
<g id="a_edge6_Node000006_Node000007"><a xlink:title=" ">
<path fill="none" stroke="#63b8ff" d="M906.64,-39C898.19,-39 889.62,-39 881.26,-39"/>
<polygon fill="#63b8ff" stroke="#63b8ff" points="906.87,-42.5 916.87,-39 906.87,-35.5 906.87,-42.5"/>
</a>
</g>
</g>
<!-- Node8 -->
<g id="Node000008" class="node">
<title>Node8</title>
<g id="a_Node000008"><a xlink:href="classMainWindow.html#ab85682874f3ab5dfa81f782f889d8556" target="_top" xlink:title="Dispatcher principal des messages de la fenêtre.">
<polygon fill="white" stroke="#666666" points="698,-48.5 537,-48.5 537,-29.5 698,-29.5 698,-48.5"/>
<text text-anchor="middle" x="617.5" y="-36.5" font-family="Helvetica,sans-Serif" font-size="10.00">MainWindow::handleMessage</text>
</a>
</g>
</g>
<!-- Node7&#45;&gt;Node8 -->
<g id="edge7_Node000007_Node000008" class="edge">
<title>Node7&#45;&gt;Node8</title>
<g id="a_edge7_Node000007_Node000008"><a xlink:title=" ">
<path fill="none" stroke="#63b8ff" d="M723.59,-39C715.15,-39 706.58,-39 698.17,-39"/>
<polygon fill="#63b8ff" stroke="#63b8ff" points="723.81,-42.5 733.81,-39 723.81,-35.5 723.81,-42.5"/>
</a>
</g>
</g>
<!-- Node9 -->
<g id="Node000009" class="node">
<title>Node9</title>
<g id="a_Node000009"><a xlink:href="classMainWindow.html#a332648d0a0caec8070b05bc27bb9a14b" target="_top" xlink:title="Procédure de fenêtre statique, point d&#39;entrée imposé par Win32.">
<polygon fill="white" stroke="#666666" points="501,-48.5 358,-48.5 358,-29.5 501,-29.5 501,-48.5"/>
<text text-anchor="middle" x="429.5" y="-36.5" font-family="Helvetica,sans-Serif" font-size="10.00">MainWindow::windowProc</text>
</a>
</g>
</g>
<!-- Node8&#45;&gt;Node9 -->
<g id="edge8_Node000008_Node000009" class="edge">
<title>Node8&#45;&gt;Node9</title>
<g id="a_edge8_Node000008_Node000009"><a xlink:title=" ">
<path fill="none" stroke="#63b8ff" d="M526.77,-39C518.2,-39 509.58,-39 501.22,-39"/>
<polygon fill="#63b8ff" stroke="#63b8ff" points="526.81,-42.5 536.81,-39 526.81,-35.5 526.81,-42.5"/>
</a>
</g>
</g>
<!-- Node10 -->
<g id="Node000010" class="node">
<title>Node10</title>
<g id="a_Node000010"><a xlink:href="classApplication.html#a0bda40de108938fd29374335bf4eac71" target="_top" xlink:title="Enregistre la classe de fenêtre Win32 (WNDCLASSEXW).">
<polygon fill="white" stroke="#666666" points="322,-54 168,-54 168,-24 322,-24 322,-54"/>
<text text-anchor="start" x="176" y="-42" font-family="Helvetica,sans-Serif" font-size="10.00">Application::registerWindow</text>
<text text-anchor="middle" x="245" y="-31" font-family="Helvetica,sans-Serif" font-size="10.00">Class</text>
</a>
</g>
</g>
<!-- Node9&#45;&gt;Node10 -->
<g id="edge9_Node000009_Node000010" class="edge">
<title>Node9&#45;&gt;Node10</title>
<g id="a_edge9_Node000009_Node000010"><a xlink:title=" ">
<path fill="none" stroke="#63b8ff" d="M347.66,-39C339.17,-39 330.56,-39 322.12,-39"/>
<polygon fill="#63b8ff" stroke="#63b8ff" points="347.94,-42.5 357.94,-39 347.94,-35.5 347.94,-42.5"/>
</a>
</g>
</g>
<!-- Node11 -->
<g id="Node000011" class="node">
<title>Node11</title>
<g id="a_Node000011"><a xlink:href="classApplication.html#a719cf091afd2276d52f9a58e4962ebfb" target="_top" xlink:title="Construit l&#39;application et enregistre la classe de fenêtre.">
<polygon fill="white" stroke="#666666" points="132,-48.5 0,-48.5 0,-29.5 132,-29.5 132,-48.5"/>
<text text-anchor="middle" x="66" y="-36.5" font-family="Helvetica,sans-Serif" font-size="10.00">Application::Application</text>
</a>
</g>
</g>
<!-- Node10&#45;&gt;Node11 -->
<g id="edge10_Node000010_Node000011" class="edge">
<title>Node10&#45;&gt;Node11</title>
<g id="a_edge10_Node000010_Node000011"><a xlink:title=" ">
<path fill="none" stroke="#63b8ff" d="M157.82,-39C149.19,-39 140.53,-39 132.18,-39"/>
<polygon fill="#63b8ff" stroke="#63b8ff" points="157.91,-42.5 167.91,-39 157.91,-35.5 157.91,-42.5"/>
</a>
</g>
</g>
<!-- Node12&#45;&gt;Node3 -->
<g id="edge12_Node000012_Node000003" class="edge">
<title>Node12&#45;&gt;Node3</title>
<g id="a_edge12_Node000012_Node000003"><a xlink:title=" ">
<path fill="none" stroke="#63b8ff" d="M1531.01,-25.67C1522.44,-27.09 1513.72,-28.55 1505.33,-29.94"/>
<polygon fill="#63b8ff" stroke="#63b8ff" points="1531.68,-29.1 1540.97,-24 1530.53,-22.2 1531.68,-29.1"/>
</a>
</g>
</g>
</g>
</svg>
