<?xml version="1.0" encoding="UTF-8" standalone="no"?>
<!DOCTYPE svg PUBLIC "-//W3C//DTD SVG 1.1//EN"
 "http://www.w3.org/Graphics/SVG/1.1/DTD/svg11.dtd">
<!-- Generated by graphviz version 2.43.0 (0)
 -->
<!-- Title: MainWindow::onSwitchClick Pages: 1 -->
<svg width="539pt" height="324pt"
 viewBox="0.00 0.00 539.00 323.50" xmlns="http://www.w3.org/2000/svg" xmlns:xlink="http://www.w3.org/1999/xlink">
<g id="graph0" class="graph" transform="scale(1 1) rotate(0) translate(4 319.5)">
<title>MainWindow::onSwitchClick</title>
<!-- Node1 -->
<g id="Node000001" class="node">
<title>Node1</title>
<g id="a_Node000001"><a xlink:title="Met à jour l&#39;état opérationnel d&#39;un SwitchBlock après un clic.">
<polygon fill="#999999" stroke="#666666" points="153,-206 0,-206 0,-187 153,-187 153,-206"/>
<text text-anchor="middle" x="76.5" y="-194" font-family="Helvetica,sans-Serif" font-size="10.00">MainWindow::onSwitchClick</text>
</a>
</g>
</g>
<!-- Node2 -->
<g id="Node000002" class="node">
<title>Node2</title>
<g id="a_Node000002"><a xlink:href="classTopologyRepository.html#a0179f504f5d22ea5b16926511a9cb027" target="_top" xlink:title="Retourne une référence mutable aux données topologiques.">
<polygon fill="white" stroke="#666666" points="325.5,-315.5 212.5,-315.5 212.5,-285.5 325.5,-285.5 325.5,-315.5"/>
<text text-anchor="start" x="220.5" y="-303.5" font-family="Helvetica,sans-Serif" font-size="10.00">TopologyRepository</text>
<text text-anchor="middle" x="269" y="-292.5" font-family="Helvetica,sans-Serif" font-size="10.00">::data</text>
</a>
</g>
</g>
<!-- Node1&#45;&gt;Node2 -->
<g id="edge1_Node000001_Node000002" class="edge">
<title>Node1&#45;&gt;Node2</title>
<g id="a_edge1_Node000001_Node000002"><a xlink:title=" ">
<path fill="none" stroke="#63b8ff" d="M88.42,-206.24C107.53,-222.82 148.84,-256.67 189,-276.5 193.35,-278.65 197.93,-280.65 202.6,-282.5"/>
<polygon fill="#63b8ff" stroke="#63b8ff" points="201.69,-285.9 212.29,-286.1 204.13,-279.33 201.69,-285.9"/>
</a>
</g>
</g>
<!-- Node3 -->
<g id="Node000003" class="node">
<title>Node3</title>
<g id="a_Node000003"><a xlink:href="classWebViewPanel.html#a5890da7c431554b9e864759f293dac1f" target="_top" xlink:title="Exécute un script JavaScript dans le contexte de la page chargée.">
<polygon fill="white" stroke="#666666" points="349,-267 189,-267 189,-248 349,-248 349,-267"/>
<text text-anchor="middle" x="269" y="-255" font-family="Helvetica,sans-Serif" font-size="10.00">WebViewPanel::executeScript</text>
</a>
</g>
</g>
<!-- Node1&#45;&gt;Node3 -->
<g id="edge2_Node000001_Node000003" class="edge">
<title>Node1&#45;&gt;Node3</title>
<g id="a_edge2_Node000001_Node000003"><a xlink:title=" ">
<path fill="none" stroke="#63b8ff" d="M100.27,-206.03C122.61,-215.15 157.76,-228.9 189,-238.5 197.04,-240.97 205.63,-243.32 214.07,-245.48"/>
<polygon fill="#63b8ff" stroke="#63b8ff" points="213.31,-248.9 223.86,-247.91 215,-242.1 213.31,-248.9"/>
</a>
</g>
</g>
<!-- Node4 -->
<g id="Node000004" class="node">
<title>Node4</title>
<g id="a_Node000004"><a xlink:href="classTopologyRepository.html#adb001f817a74b4b81e05d0d22517f509" target="_top" xlink:title="Retourne l&#39;instance unique du repository (création paresseuse).">
<polygon fill="white" stroke="#666666" points="325.5,-211.5 212.5,-211.5 212.5,-181.5 325.5,-181.5 325.5,-211.5"/>
<text text-anchor="start" x="220.5" y="-199.5" font-family="Helvetica,sans-Serif" font-size="10.00">TopologyRepository</text>
<text text-anchor="middle" x="269" y="-188.5" font-family="Helvetica,sans-Serif" font-size="10.00">::instance</text>
</a>
</g>
</g>
<!-- Node1&#45;&gt;Node4 -->
<g id="edge3_Node000001_Node000004" class="edge">
<title>Node1&#45;&gt;Node4</title>
<g id="a_edge3_Node000001_Node000004"><a xlink:title=" ">
<path fill="none" stroke="#63b8ff" d="M153.06,-196.5C169.25,-196.5 186.24,-196.5 202.03,-196.5"/>
<polygon fill="#63b8ff" stroke="#63b8ff" points="202.22,-200 212.22,-196.5 202.22,-193 202.22,-200"/>
</a>
</g>
</g>
<!-- Node5 -->
<g id="Node000005" class="node">
<title>Node5</title>
<g id="a_Node000005"><a xlink:href="classSwitchBlock.html#a49ee6b32f553615447b412e58afca21a" target="_top" xlink:title="Alterne entre NORMAL et DEVIATION. Équivalent à setActiveBranch(!current).">
<polygon fill="white" stroke="#666666" points="340.5,-163.5 197.5,-163.5 197.5,-133.5 340.5,-133.5 340.5,-163.5"/>
<text text-anchor="start" x="205.5" y="-151.5" font-family="Helvetica,sans-Serif" font-size="10.00">SwitchBlock::toggleActive</text>
<text text-anchor="middle" x="269" y="-140.5" font-family="Helvetica,sans-Serif" font-size="10.00">Branch</text>
</a>
</g>
</g>
<!-- Node1&#45;&gt;Node5 -->
<g id="edge5_Node000001_Node000005" class="edge">
<title>Node1&#45;&gt;Node5</title>
<g id="a_edge5_Node000001_Node000005"><a xlink:title=" ">
<path fill="none" stroke="#63b8ff" d="M115.59,-186.9C139.29,-180.93 170.48,-173.07 198.47,-166.02"/>
<polygon fill="#63b8ff" stroke="#63b8ff" points="199.38,-169.4 208.22,-163.56 197.67,-162.61 199.38,-169.4"/>
</a>
</g>
</g>
<!-- Node9 -->
<g id="Node000009" class="node">
<title>Node9</title>
<g id="a_Node000009"><a xlink:href="classTopologyRenderer.html#acf7559914d95f6d59c37106a11bd0df7" target="_top" xlink:title="Génère le script JS de mise à jour visuelle d&#39;un switch et ses partenaires.">
<polygon fill="white" stroke="#666666" points="341,-115.5 197,-115.5 197,-85.5 341,-85.5 341,-115.5"/>
<text text-anchor="start" x="205" y="-103.5" font-family="Helvetica,sans-Serif" font-size="10.00">TopologyRenderer::update</text>
<text text-anchor="middle" x="269" y="-92.5" font-family="Helvetica,sans-Serif" font-size="10.00">SwitchBlocks</text>
</a>
</g>
</g>
<!-- Node1&#45;&gt;Node9 -->
<g id="edge9_Node000001_Node000009" class="edge">
<title>Node1&#45;&gt;Node9</title>
<g id="a_edge9_Node000001_Node000009"><a xlink:title=" ">
<path fill="none" stroke="#63b8ff" d="M89.87,-186.85C109.76,-171.73 150.53,-142.33 189,-124.5 193.13,-122.58 197.46,-120.77 201.87,-119.07"/>
<polygon fill="#63b8ff" stroke="#63b8ff" points="203.41,-122.23 211.6,-115.52 201.01,-115.66 203.41,-122.23"/>
</a>
</g>
</g>
<!-- Node4&#45;&gt;Node4 -->
<g id="edge4_Node000004_Node000004" class="edge">
<title>Node4&#45;&gt;Node4</title>
<g id="a_edge4_Node000004_Node000004"><a xlink:title=" ">
<path fill="none" stroke="#63b8ff" d="M235.95,-211.78C228.61,-220.91 239.62,-229.5 269,-229.5 286.44,-229.5 297.41,-226.47 301.91,-222.1"/>
<polygon fill="#63b8ff" stroke="#63b8ff" points="305.41,-221.82 302.05,-211.78 298.41,-221.73 305.41,-221.82"/>
</a>
</g>
</g>
<!-- Node6 -->
<g id="Node000006" class="node">
<title>Node6</title>
<g id="a_Node000006"><a xlink:href="classSwitchBlock.html#a4c252f2bb90dbe50b8c9d8e8de0fc5b5" target="_top" xlink:title="Convertit l&#39;état ActiveBranch courant en chaîne lisible. Utilisé exclusivement par les appels de log.">
<polygon fill="white" stroke="#666666" points="531,-211.5 385,-211.5 385,-181.5 531,-181.5 531,-211.5"/>
<text text-anchor="start" x="393" y="-199.5" font-family="Helvetica,sans-Serif" font-size="10.00">SwitchBlock::activeBranch</text>
<text text-anchor="middle" x="458" y="-188.5" font-family="Helvetica,sans-Serif" font-size="10.00">ToString</text>
</a>
</g>
</g>
<!-- Node5&#45;&gt;Node6 -->
<g id="edge6_Node000005_Node000006" class="edge">
<title>Node5&#45;&gt;Node6</title>
<g id="a_edge6_Node000005_Node000006"><a xlink:title=" ">
<path fill="none" stroke="#63b8ff" d="M328.65,-163.56C347.71,-168.45 369.03,-173.92 388.73,-178.98"/>
<polygon fill="#63b8ff" stroke="#63b8ff" points="388,-182.4 398.55,-181.5 389.74,-175.62 388,-182.4"/>
</a>
</g>
</g>
<!-- Node7 -->
<g id="Node000007" class="node">
<title>Node7</title>
<g id="a_Node000007"><a xlink:href="classSwitchBlock.html#af65a62f314ce4544ce687eacc13786e8" target="_top" xlink:title="Retourne le switch partenaire côté deviation, ou nullptr.">
<polygon fill="white" stroke="#666666" points="531,-115.5 385,-115.5 385,-85.5 531,-85.5 531,-115.5"/>
<text text-anchor="start" x="393" y="-103.5" font-family="Helvetica,sans-Serif" font-size="10.00">SwitchBlock::getPartnerOn</text>
<text text-anchor="middle" x="458" y="-92.5" font-family="Helvetica,sans-Serif" font-size="10.00">Deviation</text>
</a>
</g>
</g>
<!-- Node5&#45;&gt;Node7 -->
<g id="edge7_Node000005_Node000007" class="edge">
<title>Node5&#45;&gt;Node7</title>
<g id="a_edge7_Node000005_Node000007"><a xlink:title=" ">
<path fill="none" stroke="#63b8ff" d="M328.65,-133.44C347.71,-128.55 369.03,-123.08 388.73,-118.02"/>
<polygon fill="#63b8ff" stroke="#63b8ff" points="389.74,-121.38 398.55,-115.5 388,-114.6 389.74,-121.38"/>
</a>
</g>
</g>
<!-- Node8 -->
<g id="Node000008" class="node">
<title>Node8</title>
<g id="a_Node000008"><a xlink:href="classSwitchBlock.html#a72cf7392935372bed47bccc9c1feb096" target="_top" xlink:title="Retourne le switch partenaire côté normal, ou nullptr. Cast valide uniquement si isDouble() &amp;&amp; getDou...">
<polygon fill="white" stroke="#666666" points="531,-163.5 385,-163.5 385,-133.5 531,-133.5 531,-163.5"/>
<text text-anchor="start" x="393" y="-151.5" font-family="Helvetica,sans-Serif" font-size="10.00">SwitchBlock::getPartnerOn</text>
<text text-anchor="middle" x="458" y="-140.5" font-family="Helvetica,sans-Serif" font-size="10.00">Normal</text>
</a>
</g>
</g>
<!-- Node5&#45;&gt;Node8 -->
<g id="edge8_Node000005_Node000008" class="edge">
<title>Node5&#45;&gt;Node8</title>
<g id="a_edge8_Node000005_Node000008"><a xlink:title=" ">
<path fill="none" stroke="#63b8ff" d="M340.7,-148.5C351.78,-148.5 363.32,-148.5 374.65,-148.5"/>
<polygon fill="#63b8ff" stroke="#63b8ff" points="374.96,-152 384.96,-148.5 374.96,-145 374.96,-152"/>
</a>
</g>
</g>
<!-- Node9&#45;&gt;Node7 -->
<g id="edge11_Node000009_Node000007" class="edge">
<title>Node9&#45;&gt;Node7</title>
<g id="a_edge11_Node000009_Node000007"><a xlink:title=" ">
<path fill="none" stroke="#63b8ff" d="M341.23,-100.5C352.14,-100.5 363.47,-100.5 374.59,-100.5"/>
<polygon fill="#63b8ff" stroke="#63b8ff" points="374.73,-104 384.73,-100.5 374.73,-97 374.73,-104"/>
</a>
</g>
</g>
<!-- Node9&#45;&gt;Node8 -->
<g id="edge12_Node000009_Node000008" class="edge">
<title>Node9&#45;&gt;Node8</title>
<g id="a_edge12_Node000009_Node000008"><a xlink:title=" ">
<path fill="none" stroke="#63b8ff" d="M328.65,-115.56C347.71,-120.45 369.03,-125.92 388.73,-130.98"/>
<polygon fill="#63b8ff" stroke="#63b8ff" points="388,-134.4 398.55,-133.5 389.74,-127.62 388,-134.4"/>
</a>
</g>
</g>
<!-- Node10 -->
<g id="Node000010" class="node">
<title>Node10</title>
<g id="a_Node000010"><a xlink:href="classSwitchBlock.html#adbf269599ac24cd670976368ae00b39f" target="_top" xlink:title="Retourne l&#39;identifiant unique de l&#39;élément (ex. &quot;sw/3&quot;, &quot;s/12&quot;).">
<polygon fill="white" stroke="#666666" points="511.5,-19 404.5,-19 404.5,0 511.5,0 511.5,-19"/>
<text text-anchor="middle" x="458" y="-7" font-family="Helvetica,sans-Serif" font-size="10.00">SwitchBlock::getId</text>
</a>
</g>
</g>
<!-- Node9&#45;&gt;Node10 -->
<g id="edge10_Node000009_Node000010" class="edge">
<title>Node9&#45;&gt;Node10</title>
<g id="a_edge10_Node000009_Node000010"><a xlink:title=" ">
<path fill="none" stroke="#63b8ff" d="M290.15,-85.24C312.32,-69.08 349.55,-43.85 385,-28.5 390.47,-26.13 396.31,-24 402.2,-22.09"/>
<polygon fill="#63b8ff" stroke="#63b8ff" points="403.56,-25.34 412.12,-19.1 401.54,-18.64 403.56,-25.34"/>
</a>
</g>
</g>
<!-- Node11 -->
<g id="Node000011" class="node">
<title>Node11</title>
<g id="a_Node000011"><a xlink:href="classSwitchBlock.html#ada66b97802d45a8b3dfbbb05011ae9b6" target="_top" xlink:title=" ">
<polygon fill="white" stroke="#666666" points="526.5,-67.5 389.5,-67.5 389.5,-37.5 526.5,-37.5 526.5,-67.5"/>
<text text-anchor="start" x="397.5" y="-55.5" font-family="Helvetica,sans-Serif" font-size="10.00">SwitchBlock::isDeviation</text>
<text text-anchor="middle" x="458" y="-44.5" font-family="Helvetica,sans-Serif" font-size="10.00">Active</text>
</a>
</g>
</g>
<!-- Node9&#45;&gt;Node11 -->
<g id="edge13_Node000009_Node000011" class="edge">
<title>Node9&#45;&gt;Node11</title>
<g id="a_edge13_Node000009_Node000011"><a xlink:title=" ">
<path fill="none" stroke="#63b8ff" d="M328.65,-85.44C347.71,-80.55 369.03,-75.08 388.73,-70.02"/>
<polygon fill="#63b8ff" stroke="#63b8ff" points="389.74,-73.38 398.55,-67.5 388,-66.6 389.74,-73.38"/>
</a>
</g>
</g>
</g>
</svg>
