<?xml version="1.0" encoding="UTF-8" standalone="no"?>
<!DOCTYPE svg PUBLIC "-//W3C//DTD SVG 1.1//EN"
 "http://www.w3.org/Graphics/SVG/1.1/DTD/svg11.dtd">
<!-- Generated by graphviz version 2.43.0 (0)
 -->
<!-- Title: SwitchOrientator::alignDoubleSwitchRoles Pages: 1 -->
<svg width="398pt" height="138pt"
 viewBox="0.00 0.00 398.00 138.00" xmlns="http://www.w3.org/2000/svg" xmlns:xlink="http://www.w3.org/1999/xlink">
<g id="graph0" class="graph" transform="scale(1 1) rotate(0) translate(4 134)">
<title>SwitchOrientator::alignDoubleSwitchRoles</title>
<!-- Node1 -->
<g id="Node000001" class="node">
<title>Node1</title>
<g id="a_Node000001"><a xlink:title="Échange normal↔deviation sur l&#39;aiguillage non&#45;référence si les rôles diffèrent.">
<polygon fill="#999999" stroke="#666666" points="163,-79.5 0,-79.5 0,-49.5 163,-49.5 163,-79.5"/>
<text text-anchor="start" x="8" y="-67.5" font-family="Helvetica,sans-Serif" font-size="10.00">SwitchOrientator::alignDouble</text>
<text text-anchor="middle" x="81.5" y="-56.5" font-family="Helvetica,sans-Serif" font-size="10.00">SwitchRoles</text>
</a>
</g>
</g>
<!-- Node2 -->
<g id="Node000002" class="node">
<title>Node2</title>
<g id="a_Node000002"><a xlink:href="classSwitchBlock.html#a4389341dc43ddfc247c34a160f1bbc7a" target="_top" xlink:title=" ">
<polygon fill="white" stroke="#666666" points="348,-130 241,-130 241,-111 348,-111 348,-130"/>
<text text-anchor="middle" x="294.5" y="-118" font-family="Helvetica,sans-Serif" font-size="10.00">SwitchBlock::getId</text>
</a>
</g>
</g>
<!-- Node1&#45;&gt;Node2 -->
<g id="edge1_Node000001_Node000002" class="edge">
<title>Node1&#45;&gt;Node2</title>
<g id="a_edge1_Node000001_Node000002"><a xlink:title=" ">
<path fill="none" stroke="#63b8ff" d="M124.18,-79.52C146.23,-87.1 173.86,-96.03 199,-102.5 209.17,-105.12 220.05,-107.53 230.68,-109.69"/>
<polygon fill="#63b8ff" stroke="#63b8ff" points="230.26,-113.18 240.75,-111.68 231.62,-106.31 230.26,-113.18"/>
</a>
</g>
</g>
<!-- Node3 -->
<g id="Node000003" class="node">
<title>Node3</title>
<g id="a_Node000003"><a xlink:href="classSwitchBlock.html#a6838d033ec39e85a94c98a9559fcc532" target="_top" xlink:title=" ">
<polygon fill="white" stroke="#666666" points="382.5,-93 206.5,-93 206.5,-74 382.5,-74 382.5,-93"/>
<text text-anchor="middle" x="294.5" y="-81" font-family="Helvetica,sans-Serif" font-size="10.00">SwitchBlock::getNormalBranchId</text>
</a>
</g>
</g>
<!-- Node1&#45;&gt;Node3 -->
<g id="edge2_Node000001_Node000003" class="edge">
<title>Node1&#45;&gt;Node3</title>
<g id="a_edge2_Node000001_Node000003"><a xlink:title=" ">
<path fill="none" stroke="#63b8ff" d="M163.17,-71.76C173.95,-72.73 185.1,-73.74 196.12,-74.73"/>
<polygon fill="#63b8ff" stroke="#63b8ff" points="195.92,-78.23 206.2,-75.64 196.55,-71.26 195.92,-78.23"/>
</a>
</g>
</g>
<!-- Node4 -->
<g id="Node000004" class="node">
<title>Node4</title>
<g id="a_Node000004"><a xlink:href="classSwitchBlock.html#a55d04c13a5fba252ba2b840f6835a2a4" target="_top" xlink:title=" ">
<polygon fill="white" stroke="#666666" points="376,-56 213,-56 213,-37 376,-37 376,-56"/>
<text text-anchor="middle" x="294.5" y="-44" font-family="Helvetica,sans-Serif" font-size="10.00">SwitchBlock::getRootBranchId</text>
</a>
</g>
</g>
<!-- Node1&#45;&gt;Node4 -->
<g id="edge3_Node000001_Node000004" class="edge">
<title>Node1&#45;&gt;Node4</title>
<g id="a_edge3_Node000001_Node000004"><a xlink:title=" ">
<path fill="none" stroke="#63b8ff" d="M163.17,-57.62C176.15,-56.51 189.66,-55.36 202.86,-54.23"/>
<polygon fill="#63b8ff" stroke="#63b8ff" points="203.21,-57.72 212.87,-53.38 202.61,-50.74 203.21,-57.72"/>
</a>
</g>
</g>
<!-- Node5 -->
<g id="Node000005" class="node">
<title>Node5</title>
<g id="a_Node000005"><a xlink:href="classSwitchBlock.html#affd7f73a8ed825143cf59a485d1d690b" target="_top" xlink:title="Échange normal ↔ deviation (rôles + tips + polylignes absorbées).">
<polygon fill="white" stroke="#666666" points="390,-19 199,-19 199,0 390,0 390,-19"/>
<text text-anchor="middle" x="294.5" y="-7" font-family="Helvetica,sans-Serif" font-size="10.00">SwitchBlock::swapNormalDeviation</text>
</a>
</g>
</g>
<!-- Node1&#45;&gt;Node5 -->
<g id="edge4_Node000001_Node000005" class="edge">
<title>Node1&#45;&gt;Node5</title>
<g id="a_edge4_Node000001_Node000005"><a xlink:title=" ">
<path fill="none" stroke="#63b8ff" d="M127.29,-49.5C148.82,-42.58 175.1,-34.58 199,-28.5 209.43,-25.85 220.58,-23.33 231.44,-21.04"/>
<polygon fill="#63b8ff" stroke="#63b8ff" points="232.21,-24.46 241.3,-19.01 230.8,-17.6 232.21,-24.46"/>
</a>
</g>
</g>
</g>
</svg>
