<?xml version="1.0" encoding="UTF-8" standalone="no"?>
<!DOCTYPE svg PUBLIC "-//W3C//DTD SVG 1.1//EN"
 "http://www.w3.org/Graphics/SVG/1.1/DTD/svg11.dtd">
<!-- Generated by graphviz version 2.43.0 (0)
 -->
<!-- Title: TopologyExtractor::wireTopology Pages: 1 -->
<svg width="319pt" height="76pt"
 viewBox="0.00 0.00 319.00 75.50" xmlns="http://www.w3.org/2000/svg" xmlns:xlink="http://www.w3.org/1999/xlink">
<g id="graph0" class="graph" transform="scale(1 1) rotate(0) translate(4 71.5)">
<title>TopologyExtractor::wireTopology</title>
<!-- Node1 -->
<g id="Node000001" class="node">
<title>Node1</title>
<g id="a_Node000001"><a xlink:title=" ">
<polygon fill="#999999" stroke="#666666" points="110,-51 0,-51 0,-21 110,-21 110,-51"/>
<text text-anchor="start" x="8" y="-39" font-family="Helvetica,sans-Serif" font-size="10.00">TopologyExtractor::</text>
<text text-anchor="middle" x="55" y="-28" font-family="Helvetica,sans-Serif" font-size="10.00">wireTopology</text>
</a>
</g>
</g>
<!-- Node2 -->
<g id="Node000002" class="node">
<title>Node2</title>
<g id="a_Node000002"><a xlink:href="classStraightBlock.html#a31992cb0d660a2be22d99615c4be8c23" target="_top" xlink:title="Ajoute un voisin en maintenant l&#39;ordre lexicographique. Pas de doublon.">
<polygon fill="white" stroke="#666666" points="311,-67.5 146,-67.5 146,-48.5 311,-48.5 311,-67.5"/>
<text text-anchor="middle" x="228.5" y="-55.5" font-family="Helvetica,sans-Serif" font-size="10.00">StraightBlock::addNeighbourId</text>
</a>
</g>
</g>
<!-- Node1&#45;&gt;Node2 -->
<g id="edge1_Node000001_Node000002" class="edge">
<title>Node1&#45;&gt;Node2</title>
<g id="a_edge1_Node000001_Node000002"><a xlink:title=" ">
<path fill="none" stroke="#63b8ff" d="M110.26,-42.96C120.71,-44.3 131.87,-45.73 143.01,-47.16"/>
<polygon fill="#63b8ff" stroke="#63b8ff" points="142.85,-50.67 153.21,-48.47 143.74,-43.73 142.85,-50.67"/>
</a>
</g>
</g>
<!-- Node3 -->
<g id="Node000003" class="node">
<title>Node3</title>
<g id="a_Node000003"><a xlink:href="classTopologyExtractor.html#a5f368f1d09c07d020c41711ffd3eb507" target="_top" xlink:title="Regroupe les IDs de morceaux par ID de base (ex. &quot;s/0&quot; → [&quot;s/0&quot;,&quot;s/0_c1&quot;]).">
<polygon fill="white" stroke="#666666" points="291.5,-30 165.5,-30 165.5,0 291.5,0 291.5,-30"/>
<text text-anchor="start" x="173.5" y="-18" font-family="Helvetica,sans-Serif" font-size="10.00">TopologyExtractor::</text>
<text text-anchor="middle" x="228.5" y="-7" font-family="Helvetica,sans-Serif" font-size="10.00">groupChunksByBaseId</text>
</a>
</g>
</g>
<!-- Node1&#45;&gt;Node3 -->
<g id="edge2_Node000001_Node000003" class="edge">
<title>Node1&#45;&gt;Node3</title>
<g id="a_edge2_Node000001_Node000003"><a xlink:title=" ">
<path fill="none" stroke="#63b8ff" d="M110.26,-29.36C124.46,-27.62 139.98,-25.72 154.96,-23.88"/>
<polygon fill="#63b8ff" stroke="#63b8ff" points="155.72,-27.32 165.22,-22.63 154.87,-20.37 155.72,-27.32"/>
</a>
</g>
</g>
</g>
</svg>
