<?xml version="1.0" encoding="UTF-8" standalone="no"?>
<!DOCTYPE svg PUBLIC "-//W3C//DTD SVG 1.1//EN"
 "http://www.w3.org/Graphics/SVG/1.1/DTD/svg11.dtd">
<!-- Generated by graphviz version 2.43.0 (0)
 -->
<!-- Title: GeoJsonExporter::convertStraightToFeature Pages: 1 -->
<svg width="346pt" height="113pt"
 viewBox="0.00 0.00 346.00 112.50" xmlns="http://www.w3.org/2000/svg" xmlns:xlink="http://www.w3.org/1999/xlink">
<g id="graph0" class="graph" transform="scale(1 1) rotate(0) translate(4 108.5)">
<title>GeoJsonExporter::convertStraightToFeature</title>
<!-- Node1 -->
<g id="Node000001" class="node">
<title>Node1</title>
<g id="a_Node000001"><a xlink:title="Convertit un StraightBlock en feature GeoJSON de type LineString.">
<polygon fill="#999999" stroke="#666666" points="140,-73 0,-73 0,-43 140,-43 140,-73"/>
<text text-anchor="start" x="8" y="-61" font-family="Helvetica,sans-Serif" font-size="10.00">GeoJsonExporter::convert</text>
<text text-anchor="middle" x="70" y="-50" font-family="Helvetica,sans-Serif" font-size="10.00">StraightToFeature</text>
</a>
</g>
</g>
<!-- Node2 -->
<g id="Node000002" class="node">
<title>Node2</title>
<g id="a_Node000002"><a xlink:href="classStraightBlock.html#a646d3135d365dcb832ff66b1304c6850" target="_top" xlink:title=" ">
<polygon fill="white" stroke="#666666" points="338,-104.5 176,-104.5 176,-85.5 338,-85.5 338,-104.5"/>
<text text-anchor="middle" x="257" y="-92.5" font-family="Helvetica,sans-Serif" font-size="10.00">StraightBlock::getCoordinates</text>
</a>
</g>
</g>
<!-- Node1&#45;&gt;Node2 -->
<g id="edge1_Node000001_Node000002" class="edge">
<title>Node1&#45;&gt;Node2</title>
<g id="a_edge1_Node000001_Node000002"><a xlink:title=" ">
<path fill="none" stroke="#63b8ff" d="M140.15,-71.83C159.29,-75.66 179.85,-79.77 198.26,-83.45"/>
<polygon fill="#63b8ff" stroke="#63b8ff" points="197.76,-86.92 208.25,-85.45 199.13,-80.06 197.76,-86.92"/>
</a>
</g>
</g>
<!-- Node3 -->
<g id="Node000003" class="node">
<title>Node3</title>
<g id="a_Node000003"><a xlink:href="classStraightBlock.html#a295060fddd0675834ce4755ae4787780" target="_top" xlink:title="Retourne l&#39;identifiant unique de l&#39;élément (ex. &quot;sw/3&quot;, &quot;s/12&quot;).">
<polygon fill="white" stroke="#666666" points="313.5,-67.5 200.5,-67.5 200.5,-48.5 313.5,-48.5 313.5,-67.5"/>
<text text-anchor="middle" x="257" y="-55.5" font-family="Helvetica,sans-Serif" font-size="10.00">StraightBlock::getId</text>
</a>
</g>
</g>
<!-- Node1&#45;&gt;Node3 -->
<g id="edge2_Node000001_Node000003" class="edge">
<title>Node1&#45;&gt;Node3</title>
<g id="a_edge2_Node000001_Node000003"><a xlink:title=" ">
<path fill="none" stroke="#63b8ff" d="M140.15,-58C156.48,-58 173.85,-58 190.04,-58"/>
<polygon fill="#63b8ff" stroke="#63b8ff" points="190.49,-61.5 200.49,-58 190.49,-54.5 190.49,-61.5"/>
</a>
</g>
</g>
<!-- Node4 -->
<g id="Node000004" class="node">
<title>Node4</title>
<g id="a_Node000004"><a xlink:href="classStraightBlock.html#aebdce1e1b66d6b39376ae1a66c2d2d9e" target="_top" xlink:title=" ">
<polygon fill="white" stroke="#666666" points="325.5,-30 188.5,-30 188.5,0 325.5,0 325.5,-30"/>
<text text-anchor="start" x="196.5" y="-18" font-family="Helvetica,sans-Serif" font-size="10.00">StraightBlock::getLength</text>
<text text-anchor="middle" x="257" y="-7" font-family="Helvetica,sans-Serif" font-size="10.00">Meters</text>
</a>
</g>
</g>
<!-- Node1&#45;&gt;Node4 -->
<g id="edge3_Node000001_Node000004" class="edge">
<title>Node1&#45;&gt;Node4</title>
<g id="a_edge3_Node000001_Node000004"><a xlink:title=" ">
<path fill="none" stroke="#63b8ff" d="M135.7,-42.96C150.49,-39.52 166.32,-35.84 181.48,-32.32"/>
<polygon fill="#63b8ff" stroke="#63b8ff" points="182.38,-35.7 191.33,-30.03 180.8,-28.89 182.38,-35.7"/>
</a>
</g>
</g>
</g>
</svg>
