<?xml version="1.0" encoding="UTF-8" standalone="no"?>
<!DOCTYPE svg PUBLIC "-//W3C//DTD SVG 1.1//EN"
 "http://www.w3.org/Graphics/SVG/1.1/DTD/svg11.dtd">
<!-- Generated by graphviz version 2.43.0 (0)
 -->
<!-- Title: MainWindow::onSizeUpdate Pages: 1 -->
<svg width="346pt" height="64pt"
 viewBox="0.00 0.00 346.00 64.00" xmlns="http://www.w3.org/2000/svg" xmlns:xlink="http://www.w3.org/1999/xlink">
<g id="graph0" class="graph" transform="scale(1 1) rotate(0) translate(4 60)">
<title>MainWindow::onSizeUpdate</title>
<!-- Node1 -->
<g id="Node000001" class="node">
<title>Node1</title>
<g id="a_Node000001"><a xlink:title="Quand la fenêtre est redimensionnée, ajuste les éléments graphiques en conséquence.">
<polygon fill="#999999" stroke="#666666" points="152,-37 0,-37 0,-18 152,-18 152,-37"/>
<text text-anchor="middle" x="76" y="-25" font-family="Helvetica,sans-Serif" font-size="10.00">MainWindow::onSizeUpdate</text>
</a>
</g>
</g>
<!-- Node2 -->
<g id="Node000002" class="node">
<title>Node2</title>
<g id="a_Node000002"><a xlink:href="classWebViewPanel.html#abea11ffd7181d2514edb9283256aa8e2" target="_top" xlink:title="Vérifie si le WebView est prêt.">
<polygon fill="white" stroke="#666666" points="338,-56 188,-56 188,-37 338,-37 338,-56"/>
<text text-anchor="middle" x="263" y="-44" font-family="Helvetica,sans-Serif" font-size="10.00">WebViewPanel::isInitialized</text>
</a>
</g>
</g>
<!-- Node1&#45;&gt;Node2 -->
<g id="edge1_Node000001_Node000002" class="edge">
<title>Node1&#45;&gt;Node2</title>
<g id="a_edge1_Node000001_Node000002"><a xlink:title=" ">
<path fill="none" stroke="#63b8ff" d="M152.25,-35.23C160.57,-36.08 169.08,-36.96 177.51,-37.82"/>
<polygon fill="#63b8ff" stroke="#63b8ff" points="177.41,-41.33 187.72,-38.87 178.13,-34.37 177.41,-41.33"/>
</a>
</g>
</g>
<!-- Node3 -->
<g id="Node000003" class="node">
<title>Node3</title>
<g id="a_Node000003"><a xlink:href="classWebViewPanel.html#a7a3796392183cbf2538ccb72f87c839a" target="_top" xlink:title="Redimensionne le WebView pour s&#39;adapter à la fenêtre.">
<polygon fill="white" stroke="#666666" points="324.5,-19 201.5,-19 201.5,0 324.5,0 324.5,-19"/>
<text text-anchor="middle" x="263" y="-7" font-family="Helvetica,sans-Serif" font-size="10.00">WebViewPanel::resize</text>
</a>
</g>
</g>
<!-- Node1&#45;&gt;Node3 -->
<g id="edge2_Node000001_Node000003" class="edge">
<title>Node1&#45;&gt;Node3</title>
<g id="a_edge2_Node000001_Node000003"><a xlink:title=" ">
<path fill="none" stroke="#63b8ff" d="M152.25,-20.18C165.11,-18.93 178.44,-17.63 191.19,-16.39"/>
<polygon fill="#63b8ff" stroke="#63b8ff" points="191.65,-19.86 201.26,-15.41 190.97,-12.89 191.65,-19.86"/>
</a>
</g>
</g>
</g>
</svg>
