<?xml version="1.0" encoding="UTF-8" standalone="no"?>
<!DOCTYPE svg PUBLIC "-//W3C//DTD SVG 1.1//EN"
 "http://www.w3.org/Graphics/SVG/1.1/DTD/svg11.dtd">
<!-- Generated by graphviz version 2.43.0 (0)
 -->
<!-- Title: GraphBuilder::build Pages: 1 -->
<svg width="967pt" height="237pt"
 viewBox="0.00 0.00 967.00 237.00" xmlns="http://www.w3.org/2000/svg" xmlns:xlink="http://www.w3.org/1999/xlink">
<g id="graph0" class="graph" transform="scale(1 1) rotate(0) translate(4 233)">
<title>GraphBuilder::build</title>
<!-- Node1 -->
<g id="Node000001" class="node">
<title>Node1</title>
<g id="a_Node000001"><a xlink:title="Exécute les phases 1 et 2 et retourne le résultat.">
<polygon fill="#999999" stroke="#666666" points="110,-86 0,-86 0,-67 110,-67 110,-86"/>
<text text-anchor="middle" x="55" y="-74" font-family="Helvetica,sans-Serif" font-size="10.00">GraphBuilder::build</text>
</a>
</g>
</g>
<!-- Node2 -->
<g id="Node000002" class="node">
<title>Node2</title>
<g id="a_Node000002"><a xlink:href="classGraphBuilder.html#a978a9bb24411525583b8c2855db91c80" target="_top" xlink:title="Phase 2 — Construit le TopologyGraph depuis les polylignes métriques.">
<polygon fill="white" stroke="#666666" points="311,-143.5 157,-143.5 157,-113.5 311,-113.5 311,-143.5"/>
<text text-anchor="start" x="165" y="-131.5" font-family="Helvetica,sans-Serif" font-size="10.00">GraphBuilder::buildTopology</text>
<text text-anchor="middle" x="234" y="-120.5" font-family="Helvetica,sans-Serif" font-size="10.00">Graph</text>
</a>
</g>
</g>
<!-- Node1&#45;&gt;Node2 -->
<g id="edge1_Node000001_Node000002" class="edge">
<title>Node1&#45;&gt;Node2</title>
<g id="a_edge1_Node000001_Node000002"><a xlink:title=" ">
<path fill="none" stroke="#63b8ff" d="M88.46,-86.04C111.77,-92.88 143.87,-102.31 171.9,-110.55"/>
<polygon fill="#63b8ff" stroke="#63b8ff" points="171.05,-113.95 181.63,-113.41 173.02,-107.23 171.05,-113.95"/>
</a>
</g>
</g>
<!-- Node12 -->
<g id="Node000012" class="node">
<title>Node12</title>
<g id="a_Node000012"><a xlink:href="classGraphBuilder.html#aaa371c7490baaad1002240d7dc88da9c" target="_top" xlink:title="Calcule et retourne l&#39;ensemble des nœuds frontières du graphe.">
<polygon fill="white" stroke="#666666" points="322,-91.5 146,-91.5 146,-61.5 322,-61.5 322,-91.5"/>
<text text-anchor="start" x="154" y="-79.5" font-family="Helvetica,sans-Serif" font-size="10.00">GraphBuilder::computeBoundary</text>
<text text-anchor="middle" x="234" y="-68.5" font-family="Helvetica,sans-Serif" font-size="10.00">NodeIds</text>
</a>
</g>
</g>
<!-- Node1&#45;&gt;Node12 -->
<g id="edge13_Node000001_Node000012" class="edge">
<title>Node1&#45;&gt;Node12</title>
<g id="a_edge13_Node000001_Node000012"><a xlink:title=" ">
<path fill="none" stroke="#63b8ff" d="M110.07,-76.5C118.34,-76.5 127.09,-76.5 135.95,-76.5"/>
<polygon fill="#63b8ff" stroke="#63b8ff" points="135.99,-80 145.99,-76.5 135.99,-73 135.99,-80"/>
</a>
</g>
</g>
<!-- Node13 -->
<g id="Node000013" class="node">
<title>Node13</title>
<g id="a_Node000013"><a xlink:href="classGraphBuilder.html#aa6791cab236c871f53d8e7017875f7bc" target="_top" xlink:title="Phase 1 — Lit le GeoJSON et extrait les polylignes brutes WGS&#45;84.">
<polygon fill="white" stroke="#666666" points="316,-35 152,-35 152,-16 316,-16 316,-35"/>
<text text-anchor="middle" x="234" y="-23" font-family="Helvetica,sans-Serif" font-size="10.00">GraphBuilder::loadGeoJsonFile</text>
</a>
</g>
</g>
<!-- Node1&#45;&gt;Node13 -->
<g id="edge14_Node000001_Node000013" class="edge">
<title>Node1&#45;&gt;Node13</title>
<g id="a_edge14_Node000001_Node000013"><a xlink:title=" ">
<path fill="none" stroke="#63b8ff" d="M89.29,-66.91C117.85,-58.68 159.17,-46.77 190.18,-37.84"/>
<polygon fill="#63b8ff" stroke="#63b8ff" points="191.22,-41.18 199.86,-35.05 189.28,-34.46 191.22,-41.18"/>
</a>
</g>
</g>
<!-- Node3 -->
<g id="Node000003" class="node">
<title>Node3</title>
<g id="a_Node000003"><a xlink:href="classTopologyGraph.html#a99f720078a226f9d62b284d67194153b" target="_top" xlink:title="Ajoute une arête non&#45;orientée entre les nœuds startNodeId et endNodeId.">
<polygon fill="white" stroke="#666666" points="518,-229 381,-229 381,-210 518,-210 518,-229"/>
<text text-anchor="middle" x="449.5" y="-217" font-family="Helvetica,sans-Serif" font-size="10.00">TopologyGraph::addEdge</text>
</a>
</g>
</g>
<!-- Node2&#45;&gt;Node3 -->
<g id="edge2_Node000002_Node000003" class="edge">
<title>Node2&#45;&gt;Node3</title>
<g id="a_edge2_Node000002_Node000003"><a xlink:title=" ">
<path fill="none" stroke="#63b8ff" d="M256.14,-143.75C279.82,-160.14 319.91,-185.8 358,-200.5 364.8,-203.12 372.03,-205.41 379.32,-207.4"/>
<polygon fill="#63b8ff" stroke="#63b8ff" points="378.73,-210.86 389.28,-209.94 380.45,-204.08 378.73,-210.86"/>
</a>
</g>
</g>
<!-- Node4 -->
<g id="Node000004" class="node">
<title>Node4</title>
<g id="a_Node000004"><a xlink:href="classGeometryUtils.html#aa06e19f5aae6fce3108b2fcfc709fc53" target="_top" xlink:title="Convertit une polyligne WGS&#45;84 en coordonnées métriques UTM.">
<polygon fill="white" stroke="#666666" points="534.5,-191.5 364.5,-191.5 364.5,-161.5 534.5,-161.5 534.5,-191.5"/>
<text text-anchor="start" x="372.5" y="-179.5" font-family="Helvetica,sans-Serif" font-size="10.00">GeometryUtils::convertPolyline</text>
<text text-anchor="middle" x="449.5" y="-168.5" font-family="Helvetica,sans-Serif" font-size="10.00">ToMetric</text>
</a>
</g>
</g>
<!-- Node2&#45;&gt;Node4 -->
<g id="edge3_Node000002_Node000004" class="edge">
<title>Node2&#45;&gt;Node4</title>
<g id="a_edge3_Node000002_Node000004"><a xlink:title=" ">
<path fill="none" stroke="#63b8ff" d="M301.97,-143.56C324.12,-148.54 348.95,-154.12 371.78,-159.25"/>
<polygon fill="#63b8ff" stroke="#63b8ff" points="371.25,-162.72 381.77,-161.5 372.78,-155.89 371.25,-162.72"/>
</a>
</g>
</g>
<!-- Node7 -->
<g id="Node000007" class="node">
<title>Node7</title>
<g id="a_Node000007"><a xlink:href="classTopologyGraph.html#aad7a0f965d35805d33c60bc8df0c2991" target="_top" xlink:title="Retourne l&#39;ID du nœud en (x, y), le créant si absent.">
<polygon fill="white" stroke="#666666" points="539.5,-143 359.5,-143 359.5,-124 539.5,-124 539.5,-143"/>
<text text-anchor="middle" x="449.5" y="-131" font-family="Helvetica,sans-Serif" font-size="10.00">TopologyGraph::getOrCreateNode</text>
</a>
</g>
</g>
<!-- Node2&#45;&gt;Node7 -->
<g id="edge6_Node000002_Node000007" class="edge">
<title>Node2&#45;&gt;Node7</title>
<g id="a_edge6_Node000002_Node000007"><a xlink:title=" ">
<path fill="none" stroke="#63b8ff" d="M311.17,-130.28C323.46,-130.57 336.33,-130.87 349.07,-131.17"/>
<polygon fill="#63b8ff" stroke="#63b8ff" points="349.16,-134.67 359.24,-131.41 349.32,-127.68 349.16,-134.67"/>
</a>
</g>
</g>
<!-- Node8 -->
<g id="Node000008" class="node">
<title>Node8</title>
<g id="a_Node000008"><a xlink:href="classGeometryUtils.html#a1f0bcf5c241331f56979b6d63b3412c1" target="_top" xlink:title="Accroche une coordonnée métrique au sommet le plus proche d&#39;une grille.">
<polygon fill="white" stroke="#666666" points="760.5,-122 581.5,-122 581.5,-103 760.5,-103 760.5,-122"/>
<text text-anchor="middle" x="671" y="-110" font-family="Helvetica,sans-Serif" font-size="10.00">GeometryUtils::snapToMetricGrid</text>
</a>
</g>
</g>
<!-- Node2&#45;&gt;Node8 -->
<g id="edge12_Node000002_Node000008" class="edge">
<title>Node2&#45;&gt;Node8</title>
<g id="a_edge12_Node000002_Node000008"><a xlink:title=" ">
<path fill="none" stroke="#63b8ff" d="M311.02,-119.32C326.54,-117.77 342.78,-116.38 358,-115.5 429.21,-111.4 509.7,-110.73 571.09,-111.04"/>
<polygon fill="#63b8ff" stroke="#63b8ff" points="571.14,-114.54 581.16,-111.1 571.19,-107.54 571.14,-114.54"/>
</a>
</g>
</g>
<!-- Node9 -->
<g id="Node000009" class="node">
<title>Node9</title>
<g id="a_Node000009"><a xlink:href="classTopologyGraph.html#a27cb3f78740d0cf268f2ea5f3bace6d7" target="_top" xlink:title="Fusionne les nœuds séparés de moins de toleranceMeters.">
<polygon fill="white" stroke="#666666" points="526.5,-67.5 372.5,-67.5 372.5,-37.5 526.5,-37.5 526.5,-67.5"/>
<text text-anchor="start" x="380.5" y="-55.5" font-family="Helvetica,sans-Serif" font-size="10.00">TopologyGraph::mergeClose</text>
<text text-anchor="middle" x="449.5" y="-44.5" font-family="Helvetica,sans-Serif" font-size="10.00">Nodes</text>
</a>
</g>
</g>
<!-- Node2&#45;&gt;Node9 -->
<g id="edge8_Node000002_Node000009" class="edge">
<title>Node2&#45;&gt;Node9</title>
<g id="a_edge8_Node000002_Node000009"><a xlink:title=" ">
<path fill="none" stroke="#63b8ff" d="M287.07,-113.38C298.7,-109.55 310.89,-105.18 322,-100.5 338.67,-93.48 341.32,-88.51 358,-81.5 367.13,-77.66 376.95,-74.03 386.63,-70.72"/>
<polygon fill="#63b8ff" stroke="#63b8ff" points="387.86,-74 396.24,-67.52 385.65,-67.36 387.86,-74"/>
</a>
</g>
</g>
<!-- Node5 -->
<g id="Node000005" class="node">
<title>Node5</title>
<g id="a_Node000005"><a xlink:href="classGeometryUtils.html#abcb43f3e49607318e07012e902febfdb" target="_top" xlink:title="Convertit une coordonnée WGS&#45;84 en mètres UTM.">
<polygon fill="white" stroke="#666666" points="765,-186 577,-186 577,-167 765,-167 765,-186"/>
<text text-anchor="middle" x="671" y="-174" font-family="Helvetica,sans-Serif" font-size="10.00">GeometryUtils::wgs84ToMetricUtm</text>
</a>
</g>
</g>
<!-- Node4&#45;&gt;Node5 -->
<g id="edge4_Node000004_Node000005" class="edge">
<title>Node4&#45;&gt;Node5</title>
<g id="a_edge4_Node000004_Node000005"><a xlink:title=" ">
<path fill="none" stroke="#63b8ff" d="M534.74,-176.5C545.18,-176.5 555.95,-176.5 566.64,-176.5"/>
<polygon fill="#63b8ff" stroke="#63b8ff" points="566.85,-180 576.85,-176.5 566.85,-173 566.85,-180"/>
</a>
</g>
</g>
<!-- Node6 -->
<g id="Node000006" class="node">
<title>Node6</title>
<g id="a_Node000006"><a xlink:href="classGeometryUtils.html#a0a57b43055d32f595a7c84dbd7d098e3" target="_top" xlink:title="Retourne le méridien central (degrés) d&#39;une zone UTM.">
<polygon fill="white" stroke="#666666" points="954.5,-191.5 805.5,-191.5 805.5,-161.5 954.5,-161.5 954.5,-191.5"/>
<text text-anchor="start" x="813.5" y="-179.5" font-family="Helvetica,sans-Serif" font-size="10.00">GeometryUtils::utmCentral</text>
<text text-anchor="middle" x="880" y="-168.5" font-family="Helvetica,sans-Serif" font-size="10.00">MeridianDegrees</text>
</a>
</g>
</g>
<!-- Node5&#45;&gt;Node6 -->
<g id="edge5_Node000005_Node000006" class="edge">
<title>Node5&#45;&gt;Node6</title>
<g id="a_edge5_Node000005_Node000006"><a xlink:title=" ">
<path fill="none" stroke="#63b8ff" d="M765.21,-176.5C775.16,-176.5 785.25,-176.5 795.08,-176.5"/>
<polygon fill="#63b8ff" stroke="#63b8ff" points="795.23,-180 805.23,-176.5 795.23,-173 795.23,-180"/>
</a>
</g>
</g>
<!-- Node7&#45;&gt;Node8 -->
<g id="edge7_Node000007_Node000008" class="edge">
<title>Node7&#45;&gt;Node8</title>
<g id="a_edge7_Node000007_Node000008"><a xlink:title=" ">
<path fill="none" stroke="#63b8ff" d="M539.78,-124.96C550.12,-123.97 560.72,-122.96 571.18,-121.95"/>
<polygon fill="#63b8ff" stroke="#63b8ff" points="571.53,-125.44 581.16,-121 570.87,-118.47 571.53,-125.44"/>
</a>
</g>
</g>
<!-- Node10 -->
<g id="Node000010" class="node">
<title>Node10</title>
<g id="a_Node000010"><a xlink:href="classTopologyGraph.html#ae6743defffd4df65ccd2f59931281e7d" target="_top" xlink:title=" ">
<polygon fill="white" stroke="#666666" points="959,-68.5 801,-68.5 801,-38.5 959,-38.5 959,-68.5"/>
<text text-anchor="start" x="809" y="-56.5" font-family="Helvetica,sans-Serif" font-size="10.00">TopologyGraph::findRootWith</text>
<text text-anchor="middle" x="880" y="-45.5" font-family="Helvetica,sans-Serif" font-size="10.00">PathCompression</text>
</a>
</g>
</g>
<!-- Node9&#45;&gt;Node10 -->
<g id="edge9_Node000009_Node000010" class="edge">
<title>Node9&#45;&gt;Node10</title>
<g id="a_edge9_Node000009_Node000010"><a xlink:title=" ">
<path fill="none" stroke="#63b8ff" d="M526.76,-53.2C543.32,-53.33 560.75,-53.44 577,-53.5 648.87,-53.78 730.35,-53.76 790.55,-53.68"/>
<polygon fill="#63b8ff" stroke="#63b8ff" points="790.79,-57.18 800.78,-53.67 790.78,-50.18 790.79,-57.18"/>
</a>
</g>
</g>
<!-- Node11 -->
<g id="Node000011" class="node">
<title>Node11</title>
<g id="a_Node000011"><a xlink:href="classTopologyGraph.html#a37b8517d94af461d5d7eb42e216a38e9" target="_top" xlink:title=" ">
<polygon fill="white" stroke="#666666" points="754.5,-44 587.5,-44 587.5,-25 754.5,-25 754.5,-44"/>
<text text-anchor="middle" x="671" y="-32" font-family="Helvetica,sans-Serif" font-size="10.00">TopologyGraph::uniteNodeSets</text>
</a>
</g>
</g>
<!-- Node9&#45;&gt;Node11 -->
<g id="edge10_Node000009_Node000011" class="edge">
<title>Node9&#45;&gt;Node11</title>
<g id="a_edge10_Node000009_Node000011"><a xlink:title=" ">
<path fill="none" stroke="#63b8ff" d="M526.65,-46.25C542.86,-44.93 560.14,-43.51 576.89,-42.14"/>
<polygon fill="#63b8ff" stroke="#63b8ff" points="577.56,-45.59 587.24,-41.29 576.99,-38.62 577.56,-45.59"/>
</a>
</g>
</g>
<!-- Node11&#45;&gt;Node10 -->
<g id="edge11_Node000011_Node000010" class="edge">
<title>Node11&#45;&gt;Node10</title>
<g id="a_edge11_Node000011_Node000010"><a xlink:title=" ">
<path fill="none" stroke="#63b8ff" d="M754.7,-42.09C766.58,-43.18 778.84,-44.31 790.82,-45.41"/>
<polygon fill="#63b8ff" stroke="#63b8ff" points="790.52,-48.89 800.8,-46.32 791.16,-41.92 790.52,-48.89"/>
</a>
</g>
</g>
<!-- Node14 -->
<g id="Node000014" class="node">
<title>Node14</title>
<g id="a_Node000014"><a xlink:href="classGeometryUtils.html#a5614ece2f3da0feba6ca96ae0e9c3b0a" target="_top" xlink:title="Estime le numéro de zone UTM (1–60) depuis la longitude centre.">
<polygon fill="white" stroke="#666666" points="541,-19 358,-19 358,0 541,0 541,-19"/>
<text text-anchor="middle" x="449.5" y="-7" font-family="Helvetica,sans-Serif" font-size="10.00">GeometryUtils::estimateUtmZone</text>
</a>
</g>
</g>
<!-- Node13&#45;&gt;Node14 -->
<g id="edge15_Node000013_Node000014" class="edge">
<title>Node13&#45;&gt;Node14</title>
<g id="a_edge15_Node000013_Node000014"><a xlink:title=" ">
<path fill="none" stroke="#63b8ff" d="M316.02,-19.43C326.39,-18.65 337.1,-17.85 347.74,-17.05"/>
<polygon fill="#63b8ff" stroke="#63b8ff" points="348.19,-20.53 357.9,-16.29 347.66,-13.55 348.19,-20.53"/>
</a>
</g>
</g>
</g>
</svg>
