<?xml version="1.0" encoding="UTF-8" standalone="no"?>
<!DOCTYPE svg PUBLIC "-//W3C//DTD SVG 1.1//EN"
 "http://www.w3.org/Graphics/SVG/1.1/DTD/svg11.dtd">
<!-- Generated by graphviz version 2.43.0 (0)
 -->
<!-- Title: Logger::Logger Pages: 1 -->
<svg width="296pt" height="101pt"
 viewBox="0.00 0.00 296.00 101.00" xmlns="http://www.w3.org/2000/svg" xmlns:xlink="http://www.w3.org/1999/xlink">
<g id="graph0" class="graph" transform="scale(1 1) rotate(0) translate(4 97)">
<title>Logger::Logger</title>
<!-- Node1 -->
<g id="Node000001" class="node">
<title>Node1</title>
<g id="a_Node000001"><a xlink:title="Construit un Logger pour le moteur spécifié.">
<polygon fill="#999999" stroke="#666666" points="89,-56 0,-56 0,-37 89,-37 89,-56"/>
<text text-anchor="middle" x="44.5" y="-44" font-family="Helvetica,sans-Serif" font-size="10.00">Logger::Logger</text>
</a>
</g>
</g>
<!-- Node2 -->
<g id="Node000002" class="node">
<title>Node2</title>
<g id="a_Node000002"><a xlink:href="classLogger.html#a44caa51276b396938aa0d2b0fa087a5b" target="_top" xlink:title="Retourne l&#39;horodatage courant au format [HH:MM:SS].">
<polygon fill="white" stroke="#666666" points="288,-93 125,-93 125,-74 288,-74 288,-93"/>
<text text-anchor="middle" x="206.5" y="-81" font-family="Helvetica,sans-Serif" font-size="10.00">Logger::getCurrentTimestamp</text>
</a>
</g>
</g>
<!-- Node1&#45;&gt;Node2 -->
<g id="edge1_Node000001_Node000002" class="edge">
<title>Node1&#45;&gt;Node2</title>
<g id="a_edge1_Node000001_Node000002"><a xlink:title=" ">
<path fill="none" stroke="#63b8ff" d="M85.1,-56.09C97.83,-59.13 112,-62.49 125,-65.5 133.91,-67.56 143.39,-69.72 152.6,-71.79"/>
<polygon fill="#63b8ff" stroke="#63b8ff" points="151.92,-75.22 162.44,-73.99 153.45,-68.39 151.92,-75.22"/>
</a>
</g>
</g>
<!-- Node3 -->
<g id="Node000003" class="node">
<title>Node3</title>
<g id="a_Node000003"><a xlink:href="Logger_8cpp.html#a1c65afe69de9e58410454399683cef61" target="_top" xlink:title=" ">
<polygon fill="white" stroke="#666666" points="272,-56 141,-56 141,-37 272,-37 272,-56"/>
<text text-anchor="middle" x="206.5" y="-44" font-family="Helvetica,sans-Serif" font-size="10.00">getExecutableDirectory</text>
</a>
</g>
</g>
<!-- Node1&#45;&gt;Node3 -->
<g id="edge2_Node000001_Node000003" class="edge">
<title>Node1&#45;&gt;Node3</title>
<g id="a_edge2_Node000001_Node000003"><a xlink:title=" ">
<path fill="none" stroke="#63b8ff" d="M89.22,-46.5C102.03,-46.5 116.41,-46.5 130.57,-46.5"/>
<polygon fill="#63b8ff" stroke="#63b8ff" points="130.83,-50 140.83,-46.5 130.83,-43 130.83,-50"/>
</a>
</g>
</g>
<!-- Node4 -->
<g id="Node000004" class="node">
<title>Node4</title>
<g id="a_Node000004"><a xlink:href="classLogger.html#aa7d10eb28cdcf56612e1604e7cd4b95b" target="_top" xlink:title="Envoie une chaîne vers la sortie de débogage Visual Studio.">
<polygon fill="white" stroke="#666666" points="283.5,-19 129.5,-19 129.5,0 283.5,0 283.5,-19"/>
<text text-anchor="middle" x="206.5" y="-7" font-family="Helvetica,sans-Serif" font-size="10.00">Logger::sendToDebugOutput</text>
</a>
</g>
</g>
<!-- Node1&#45;&gt;Node4 -->
<g id="edge3_Node000001_Node000004" class="edge">
<title>Node1&#45;&gt;Node4</title>
<g id="a_edge3_Node000001_Node000004"><a xlink:title=" ">
<path fill="none" stroke="#63b8ff" d="M86.7,-36.97C107.34,-32.2 132.52,-26.38 154.38,-21.32"/>
<polygon fill="#63b8ff" stroke="#63b8ff" points="155.2,-24.72 164.16,-19.06 153.63,-17.9 155.2,-24.72"/>
</a>
</g>
</g>
</g>
</svg>
