<?xml version="1.0" encoding="UTF-8" standalone="no"?>
<!DOCTYPE svg PUBLIC "-//W3C//DTD SVG 1.1//EN"
 "http://www.w3.org/Graphics/SVG/1.1/DTD/svg11.dtd">
<!-- Generated by graphviz version 2.43.0 (0)
 -->
<!-- Title: TopologyRenderer::renderAllSwitchBlocksJunctions Pages: 1 -->
<svg width="501pt" height="173pt"
 viewBox="0.00 0.00 501.00 173.00" xmlns="http://www.w3.org/2000/svg" xmlns:xlink="http://www.w3.org/1999/xlink">
<g id="graph0" class="graph" transform="scale(1 1) rotate(0) translate(4 169)">
<title>TopologyRenderer::renderAllSwitchBlocksJunctions</title>
<!-- Node1 -->
<g id="Node000001" class="node">
<title>Node1</title>
<g id="a_Node000001"><a xlink:title="Efface puis redessine tous les marqueurs de jonction.">
<polygon fill="#999999" stroke="#666666" points="142,-99 0,-99 0,-69 142,-69 142,-99"/>
<text text-anchor="start" x="8" y="-87" font-family="Helvetica,sans-Serif" font-size="10.00">TopologyRenderer::render</text>
<text text-anchor="middle" x="71" y="-76" font-family="Helvetica,sans-Serif" font-size="10.00">AllSwitchBlocksJunctions</text>
</a>
</g>
</g>
<!-- Node2 -->
<g id="Node000002" class="node">
<title>Node2</title>
<g id="a_Node000002"><a xlink:href="classTopologyRepository.html#a0179f504f5d22ea5b16926511a9cb027" target="_top" xlink:title="Retourne une référence mutable aux données topologiques.">
<polygon fill="white" stroke="#666666" points="305.5,-165 192.5,-165 192.5,-135 305.5,-135 305.5,-165"/>
<text text-anchor="start" x="200.5" y="-153" font-family="Helvetica,sans-Serif" font-size="10.00">TopologyRepository</text>
<text text-anchor="middle" x="249" y="-142" font-family="Helvetica,sans-Serif" font-size="10.00">::data</text>
</a>
</g>
</g>
<!-- Node1&#45;&gt;Node2 -->
<g id="edge1_Node000001_Node000002" class="edge">
<title>Node1&#45;&gt;Node2</title>
<g id="a_edge1_Node000001_Node000002"><a xlink:title=" ">
<path fill="none" stroke="#63b8ff" d="M108.63,-99C128.97,-107.21 154.79,-117.43 178,-126 183.05,-127.86 188.32,-129.76 193.6,-131.63"/>
<polygon fill="#63b8ff" stroke="#63b8ff" points="192.48,-134.95 203.08,-134.95 194.8,-128.34 192.48,-134.95"/>
</a>
</g>
</g>
<!-- Node3 -->
<g id="Node000003" class="node">
<title>Node3</title>
<g id="a_Node000003"><a xlink:href="classTopologyRepository.html#adb001f817a74b4b81e05d0d22517f509" target="_top" xlink:title="Retourne l&#39;instance unique du repository (création paresseuse).">
<polygon fill="white" stroke="#666666" points="305.5,-99 192.5,-99 192.5,-69 305.5,-69 305.5,-99"/>
<text text-anchor="start" x="200.5" y="-87" font-family="Helvetica,sans-Serif" font-size="10.00">TopologyRepository</text>
<text text-anchor="middle" x="249" y="-76" font-family="Helvetica,sans-Serif" font-size="10.00">::instance</text>
</a>
</g>
</g>
<!-- Node1&#45;&gt;Node3 -->
<g id="edge2_Node000001_Node000003" class="edge">
<title>Node1&#45;&gt;Node3</title>
<g id="a_edge2_Node000001_Node000003"><a xlink:title=" ">
<path fill="none" stroke="#63b8ff" d="M142.07,-84C155.23,-84 168.95,-84 181.98,-84"/>
<polygon fill="#63b8ff" stroke="#63b8ff" points="182.26,-87.5 192.26,-84 182.26,-80.5 182.26,-87.5"/>
</a>
</g>
</g>
<!-- Node4 -->
<g id="Node000004" class="node">
<title>Node4</title>
<g id="a_Node000004"><a xlink:href="classTopologyRenderer.html#a1641df30af7ec14097c50b8cfc4a9824" target="_top" xlink:title="Construit l&#39;appel JS renderSwitch(id, lat, lon, isDouble).">
<polygon fill="white" stroke="#666666" points="320,-51 178,-51 178,-21 320,-21 320,-51"/>
<text text-anchor="start" x="186" y="-39" font-family="Helvetica,sans-Serif" font-size="10.00">TopologyRenderer::render</text>
<text text-anchor="middle" x="249" y="-28" font-family="Helvetica,sans-Serif" font-size="10.00">SwitchBlock</text>
</a>
</g>
</g>
<!-- Node1&#45;&gt;Node4 -->
<g id="edge4_Node000001_Node000004" class="edge">
<title>Node1&#45;&gt;Node4</title>
<g id="a_edge4_Node000001_Node000004"><a xlink:title=" ">
<path fill="none" stroke="#63b8ff" d="M127.2,-68.94C144.98,-64.1 164.84,-58.68 183.23,-53.66"/>
<polygon fill="#63b8ff" stroke="#63b8ff" points="184.26,-57.01 192.99,-51 182.42,-50.26 184.26,-57.01"/>
</a>
</g>
</g>
<!-- Node3&#45;&gt;Node3 -->
<g id="edge3_Node000003_Node000003" class="edge">
<title>Node3&#45;&gt;Node3</title>
<g id="a_edge3_Node000003_Node000003"><a xlink:title=" ">
<path fill="none" stroke="#63b8ff" d="M218.41,-99.28C211.62,-108.41 221.81,-117 249,-117 265.14,-117 275.29,-113.97 279.46,-109.6"/>
<polygon fill="#63b8ff" stroke="#63b8ff" points="282.96,-109.32 279.59,-99.28 275.96,-109.23 282.96,-109.32"/>
</a>
</g>
</g>
<!-- Node5 -->
<g id="Node000005" class="node">
<title>Node5</title>
<g id="a_Node000005"><a xlink:href="classSwitchBlock.html#adbf269599ac24cd670976368ae00b39f" target="_top" xlink:title="Retourne l&#39;identifiant unique de l&#39;élément (ex. &quot;sw/3&quot;, &quot;s/12&quot;).">
<polygon fill="white" stroke="#666666" points="478,-67.5 371,-67.5 371,-48.5 478,-48.5 478,-67.5"/>
<text text-anchor="middle" x="424.5" y="-55.5" font-family="Helvetica,sans-Serif" font-size="10.00">SwitchBlock::getId</text>
</a>
</g>
</g>
<!-- Node4&#45;&gt;Node5 -->
<g id="edge5_Node000004_Node000005" class="edge">
<title>Node4&#45;&gt;Node5</title>
<g id="a_edge5_Node000004_Node000005"><a xlink:title=" ">
<path fill="none" stroke="#63b8ff" d="M320.07,-44.88C333.56,-46.6 347.61,-48.38 360.84,-50.06"/>
<polygon fill="#63b8ff" stroke="#63b8ff" points="360.42,-53.53 370.79,-51.32 361.31,-46.59 360.42,-53.53"/>
</a>
</g>
</g>
<!-- Node6 -->
<g id="Node000006" class="node">
<title>Node6</title>
<g id="a_Node000006"><a xlink:href="classSwitchBlock.html#a17420e8225a0637a6d38b73bee7d2526" target="_top" xlink:title=" ">
<polygon fill="white" stroke="#666666" points="493,-30 356,-30 356,0 493,0 493,-30"/>
<text text-anchor="start" x="364" y="-18" font-family="Helvetica,sans-Serif" font-size="10.00">SwitchBlock::getJunction</text>
<text text-anchor="middle" x="424.5" y="-7" font-family="Helvetica,sans-Serif" font-size="10.00">Coordinate</text>
</a>
</g>
</g>
<!-- Node4&#45;&gt;Node6 -->
<g id="edge6_Node000004_Node000006" class="edge">
<title>Node4&#45;&gt;Node6</title>
<g id="a_edge6_Node000004_Node000006"><a xlink:title=" ">
<path fill="none" stroke="#63b8ff" d="M320.07,-27.52C328.59,-26.49 337.33,-25.43 345.94,-24.39"/>
<polygon fill="#63b8ff" stroke="#63b8ff" points="346.48,-27.85 355.98,-23.17 345.64,-20.9 346.48,-27.85"/>
</a>
</g>
</g>
</g>
</svg>
