<?xml version="1.0" encoding="UTF-8" standalone="no"?>
<!DOCTYPE svg PUBLIC "-//W3C//DTD SVG 1.1//EN"
 "http://www.w3.org/Graphics/SVG/1.1/DTD/svg11.dtd">
<!-- Generated by graphviz version 2.43.0 (0)
 -->
<!-- Title: StraightBlock::computeGeodesicLength Pages: 1 -->
<svg width="373pt" height="76pt"
 viewBox="0.00 0.00 373.00 75.50" xmlns="http://www.w3.org/2000/svg" xmlns:xlink="http://www.w3.org/1999/xlink">
<g id="graph0" class="graph" transform="scale(1 1) rotate(0) translate(4 71.5)">
<title>StraightBlock::computeGeodesicLength</title>
<!-- Node1 -->
<g id="Node000001" class="node">
<title>Node1</title>
<g id="a_Node000001"><a xlink:title="Calcule la longueur géodésique totale via la formule de Haversine.">
<polygon fill="#999999" stroke="#666666" points="365,-45.5 189,-45.5 189,-15.5 365,-15.5 365,-45.5"/>
<text text-anchor="start" x="197" y="-33.5" font-family="Helvetica,sans-Serif" font-size="10.00">StraightBlock::computeGeodesic</text>
<text text-anchor="middle" x="277" y="-22.5" font-family="Helvetica,sans-Serif" font-size="10.00">Length</text>
</a>
</g>
</g>
<!-- Node2 -->
<g id="Node000002" class="node">
<title>Node2</title>
<g id="a_Node000002"><a xlink:href="classStraightBlock.html#a923ec2d60375b9760a734f3babe2150d" target="_top" xlink:title="Recalcule et met à jour lengthMeters depuis les coordonnées actuelles.">
<polygon fill="white" stroke="#666666" points="146.5,-67.5 6.5,-67.5 6.5,-37.5 146.5,-37.5 146.5,-67.5"/>
<text text-anchor="start" x="14.5" y="-55.5" font-family="Helvetica,sans-Serif" font-size="10.00">StraightBlock::recompute</text>
<text text-anchor="middle" x="76.5" y="-44.5" font-family="Helvetica,sans-Serif" font-size="10.00">GeodesicLength</text>
</a>
</g>
</g>
<!-- Node1&#45;&gt;Node2 -->
<g id="edge1_Node000001_Node000002" class="edge">
<title>Node1&#45;&gt;Node2</title>
<g id="a_edge1_Node000001_Node000002"><a xlink:title=" ">
<path fill="none" stroke="#63b8ff" d="M178.93,-41.26C168.02,-42.47 157.06,-43.68 146.6,-44.84"/>
<polygon fill="#63b8ff" stroke="#63b8ff" points="179.38,-44.73 188.94,-40.15 178.61,-37.77 179.38,-44.73"/>
</a>
</g>
</g>
<!-- Node3 -->
<g id="Node000003" class="node">
<title>Node3</title>
<g id="a_Node000003"><a xlink:href="classStraightBlock.html#a6b5d2078a32199b21c8ab3117fc6c01f" target="_top" xlink:title="Construit un StraightBlock avec ses coordonnées.">
<polygon fill="white" stroke="#666666" points="153,-19 0,-19 0,0 153,0 153,-19"/>
<text text-anchor="middle" x="76.5" y="-7" font-family="Helvetica,sans-Serif" font-size="10.00">StraightBlock::StraightBlock</text>
</a>
</g>
</g>
<!-- Node1&#45;&gt;Node3 -->
<g id="edge2_Node000001_Node000003" class="edge">
<title>Node1&#45;&gt;Node3</title>
<g id="a_edge2_Node000001_Node000003"><a xlink:title=" ">
<path fill="none" stroke="#63b8ff" d="M178.87,-20.22C170.28,-19.32 161.67,-18.4 153.29,-17.52"/>
<polygon fill="#63b8ff" stroke="#63b8ff" points="178.62,-23.72 188.94,-21.29 179.36,-16.76 178.62,-23.72"/>
</a>
</g>
</g>
</g>
</svg>
