<?xml version="1.0" encoding="UTF-8" standalone="no"?>
<!DOCTYPE svg PUBLIC "-//W3C//DTD SVG 1.1//EN"
 "http://www.w3.org/Graphics/SVG/1.1/DTD/svg11.dtd">
<!-- Generated by graphviz version 2.43.0 (0)
 -->
<!-- Title: SwitchOrientator::orient Pages: 1 -->
<svg width="1161pt" height="254pt"
 viewBox="0.00 0.00 1161.00 254.00" xmlns="http://www.w3.org/2000/svg" xmlns:xlink="http://www.w3.org/1999/xlink">
<g id="graph0" class="graph" transform="scale(1 1) rotate(0) translate(4 250)">
<title>SwitchOrientator::orient</title>
<!-- Node1 -->
<g id="Node000001" class="node">
<title>Node1</title>
<g id="a_Node000001"><a xlink:title="Exécute les phases 6, 6b et 6c en place sur topoResult.switches.">
<polygon fill="#999999" stroke="#666666" points="133,-115.5 0,-115.5 0,-96.5 133,-96.5 133,-115.5"/>
<text text-anchor="middle" x="66.5" y="-103.5" font-family="Helvetica,sans-Serif" font-size="10.00">SwitchOrientator::orient</text>
</a>
</g>
</g>
<!-- Node2 -->
<g id="Node000002" class="node">
<title>Node2</title>
<g id="a_Node000002"><a xlink:href="classSwitchOrientator.html#a2786825e04cc0836549bb23a2b6242b4" target="_top" xlink:title="Échange normal↔deviation sur l&#39;aiguillage non&#45;référence si les rôles diffèrent.">
<polygon fill="white" stroke="#666666" points="332,-193 169,-193 169,-163 332,-163 332,-193"/>
<text text-anchor="start" x="177" y="-181" font-family="Helvetica,sans-Serif" font-size="10.00">SwitchOrientator::alignDouble</text>
<text text-anchor="middle" x="250.5" y="-170" font-family="Helvetica,sans-Serif" font-size="10.00">SwitchRoles</text>
</a>
</g>
</g>
<!-- Node1&#45;&gt;Node2 -->
<g id="edge1_Node000001_Node000002" class="edge">
<title>Node1&#45;&gt;Node2</title>
<g id="a_edge1_Node000001_Node000002"><a xlink:title=" ">
<path fill="none" stroke="#63b8ff" d="M85.47,-115.52C105.48,-125.88 138.96,-142.5 169,-154 174.19,-155.99 179.62,-157.92 185.11,-159.76"/>
<polygon fill="#63b8ff" stroke="#63b8ff" points="184.4,-163.21 194.99,-162.98 186.57,-156.55 184.4,-163.21"/>
</a>
</g>
</g>
<!-- Node3 -->
<g id="Node000003" class="node">
<title>Node3</title>
<g id="a_Node000003"><a xlink:href="classSwitchOrientator.html#a8132fa3495845481fdb68a3ec695af15" target="_top" xlink:title="Calcule et assigne les points tip CDC sur un SwitchBlock orienté.">
<polygon fill="white" stroke="#666666" points="324,-145 177,-145 177,-115 324,-115 324,-145"/>
<text text-anchor="start" x="185" y="-133" font-family="Helvetica,sans-Serif" font-size="10.00">SwitchOrientator::compute</text>
<text text-anchor="middle" x="250.5" y="-122" font-family="Helvetica,sans-Serif" font-size="10.00">BranchTipPoints</text>
</a>
</g>
</g>
<!-- Node1&#45;&gt;Node3 -->
<g id="edge2_Node000001_Node000003" class="edge">
<title>Node1&#45;&gt;Node3</title>
<g id="a_edge2_Node000001_Node000003"><a xlink:title=" ">
<path fill="none" stroke="#63b8ff" d="M133.21,-114.66C144.04,-116.09 155.4,-117.59 166.59,-119.07"/>
<polygon fill="#63b8ff" stroke="#63b8ff" points="166.43,-122.58 176.8,-120.41 167.34,-115.64 166.43,-122.58"/>
</a>
</g>
</g>
<!-- Node12 -->
<g id="Node000012" class="node">
<title>Node12</title>
<g id="a_Node000012"><a xlink:href="classSwitchOrientator.html#acdcd6a442cb52bed611a302b1358c8bb" target="_top" xlink:title="Force la branche partagée au rôle DEVIATION sur les deux aiguillages formant un croisement mécanique ...">
<polygon fill="white" stroke="#666666" points="321,-97 180,-97 180,-67 321,-67 321,-97"/>
<text text-anchor="start" x="188" y="-85" font-family="Helvetica,sans-Serif" font-size="10.00">SwitchOrientator::enforce</text>
<text text-anchor="middle" x="250.5" y="-74" font-family="Helvetica,sans-Serif" font-size="10.00">CrossoverConsistency</text>
</a>
</g>
</g>
<!-- Node1&#45;&gt;Node12 -->
<g id="edge12_Node000001_Node000012" class="edge">
<title>Node1&#45;&gt;Node12</title>
<g id="a_edge12_Node000001_Node000012"><a xlink:title=" ">
<path fill="none" stroke="#63b8ff" d="M133.21,-97.34C145.06,-95.77 157.53,-94.13 169.73,-92.52"/>
<polygon fill="#63b8ff" stroke="#63b8ff" points="170.44,-95.96 179.9,-91.18 169.53,-89.02 170.44,-95.96"/>
</a>
</g>
</g>
<!-- Node13 -->
<g id="Node000013" class="node">
<title>Node13</title>
<g id="a_Node000013"><a xlink:href="classSwitchOrientator.html#a0ed66205a222764fb0ad914425ba0f6e" target="_top" xlink:title="Oriente un SwitchBlock à 3 branches en place.">
<polygon fill="white" stroke="#666666" points="317,-49 184,-49 184,-19 317,-19 317,-49"/>
<text text-anchor="start" x="192" y="-37" font-family="Helvetica,sans-Serif" font-size="10.00">SwitchOrientator::orient</text>
<text text-anchor="middle" x="250.5" y="-26" font-family="Helvetica,sans-Serif" font-size="10.00">ThreePortSwitch</text>
</a>
</g>
</g>
<!-- Node1&#45;&gt;Node13 -->
<g id="edge13_Node000001_Node000013" class="edge">
<title>Node1&#45;&gt;Node13</title>
<g id="a_edge13_Node000001_Node000013"><a xlink:title=" ">
<path fill="none" stroke="#63b8ff" d="M85.47,-96.48C105.48,-86.12 138.96,-69.5 169,-58 174.19,-56.01 179.62,-54.08 185.11,-52.24"/>
<polygon fill="#63b8ff" stroke="#63b8ff" points="186.57,-55.45 194.99,-49.02 184.4,-48.79 186.57,-55.45"/>
</a>
</g>
</g>
<!-- Node4 -->
<g id="Node000004" class="node">
<title>Node4</title>
<g id="a_Node000004"><a xlink:href="classSwitchOrientator.html#af602429b8a3a2d38e92515cfd2d76ecd" target="_top" xlink:title="Interpole un point tip à distanceMeters depuis la jonction le long d&#39;un Straight.">
<polygon fill="white" stroke="#666666" points="529,-176 371,-176 371,-146 529,-146 529,-176"/>
<text text-anchor="start" x="379" y="-164" font-family="Helvetica,sans-Serif" font-size="10.00">SwitchOrientator::interpolate</text>
<text text-anchor="middle" x="450" y="-153" font-family="Helvetica,sans-Serif" font-size="10.00">TipPoint</text>
</a>
</g>
</g>
<!-- Node3&#45;&gt;Node4 -->
<g id="edge3_Node000003_Node000004" class="edge">
<title>Node3&#45;&gt;Node4</title>
<g id="a_edge3_Node000003_Node000004"><a xlink:title=" ">
<path fill="none" stroke="#63b8ff" d="M324.2,-141.41C336.06,-143.27 348.46,-145.22 360.64,-147.13"/>
<polygon fill="#63b8ff" stroke="#63b8ff" points="360.39,-150.63 370.81,-148.73 361.47,-143.72 360.39,-150.63"/>
</a>
</g>
</g>
<!-- Node11 -->
<g id="Node000011" class="node">
<title>Node11</title>
<g id="a_Node000011"><a xlink:href="classSwitchBlock.html#a87eba553e6478990869ad5b1d9c4f4a7" target="_top" xlink:title="Indique si l&#39;aiguillage a été orienté (Phase 6 complète).">
<polygon fill="white" stroke="#666666" points="516,-127.5 384,-127.5 384,-108.5 516,-108.5 516,-127.5"/>
<text text-anchor="middle" x="450" y="-115.5" font-family="Helvetica,sans-Serif" font-size="10.00">SwitchBlock::isOriented</text>
</a>
</g>
</g>
<!-- Node3&#45;&gt;Node11 -->
<g id="edge11_Node000003_Node000011" class="edge">
<title>Node3&#45;&gt;Node11</title>
<g id="a_edge11_Node000003_Node000011"><a xlink:title=" ">
<path fill="none" stroke="#63b8ff" d="M324.2,-125.58C340.41,-124.6 357.63,-123.55 373.94,-122.56"/>
<polygon fill="#63b8ff" stroke="#63b8ff" points="374.19,-126.05 383.96,-121.95 373.76,-119.06 374.19,-126.05"/>
</a>
</g>
</g>
<!-- Node5 -->
<g id="Node000005" class="node">
<title>Node5</title>
<g id="a_Node000005"><a xlink:href="classGeometryUtils.html#a95a8eb25c216b5416111a5b2f18ebb5f" target="_top" xlink:title="Calcule la longueur planaire totale d&#39;une polyligne métrique.">
<polygon fill="white" stroke="#666666" points="744,-246 568,-246 568,-216 744,-216 744,-246"/>
<text text-anchor="start" x="576" y="-234" font-family="Helvetica,sans-Serif" font-size="10.00">GeometryUtils::computePolyline</text>
<text text-anchor="middle" x="656" y="-223" font-family="Helvetica,sans-Serif" font-size="10.00">LengthMeters</text>
</a>
</g>
</g>
<!-- Node4&#45;&gt;Node5 -->
<g id="edge4_Node000004_Node000005" class="edge">
<title>Node4&#45;&gt;Node5</title>
<g id="a_edge4_Node000004_Node000005"><a xlink:title=" ">
<path fill="none" stroke="#63b8ff" d="M486.49,-176.08C509.5,-185.58 540.26,-197.75 568,-207 574.29,-209.1 580.88,-211.16 587.5,-213.14"/>
<polygon fill="#63b8ff" stroke="#63b8ff" points="586.6,-216.52 597.18,-215.97 588.57,-209.8 586.6,-216.52"/>
</a>
</g>
</g>
<!-- Node6 -->
<g id="Node000006" class="node">
<title>Node6</title>
<g id="a_Node000006"><a xlink:href="classGeometryUtils.html#aa06e19f5aae6fce3108b2fcfc709fc53" target="_top" xlink:title="Convertit une polyligne WGS&#45;84 en coordonnées métriques UTM.">
<polygon fill="white" stroke="#666666" points="741,-198 571,-198 571,-168 741,-168 741,-198"/>
<text text-anchor="start" x="579" y="-186" font-family="Helvetica,sans-Serif" font-size="10.00">GeometryUtils::convertPolyline</text>
<text text-anchor="middle" x="656" y="-175" font-family="Helvetica,sans-Serif" font-size="10.00">ToMetric</text>
</a>
</g>
</g>
<!-- Node4&#45;&gt;Node6 -->
<g id="edge5_Node000004_Node000006" class="edge">
<title>Node4&#45;&gt;Node6</title>
<g id="a_edge5_Node000004_Node000006"><a xlink:title=" ">
<path fill="none" stroke="#63b8ff" d="M529.29,-169.44C539.59,-170.55 550.24,-171.7 560.77,-172.84"/>
<polygon fill="#63b8ff" stroke="#63b8ff" points="560.5,-176.33 570.82,-173.92 561.25,-169.37 560.5,-176.33"/>
</a>
</g>
</g>
<!-- Node9 -->
<g id="Node000009" class="node">
<title>Node9</title>
<g id="a_Node000009"><a xlink:href="classGeometryUtils.html#a0dfa23ddf2d80abfeaeac186ae124fd0" target="_top" xlink:title="Convertit une coordonnée métrique UTM en WGS&#45;84.">
<polygon fill="white" stroke="#666666" points="947,-155 801,-155 801,-125 947,-125 947,-155"/>
<text text-anchor="start" x="809" y="-143" font-family="Helvetica,sans-Serif" font-size="10.00">GeometryUtils::metricUtm</text>
<text text-anchor="middle" x="874" y="-132" font-family="Helvetica,sans-Serif" font-size="10.00">ToWgs84</text>
</a>
</g>
</g>
<!-- Node4&#45;&gt;Node9 -->
<g id="edge8_Node000004_Node000009" class="edge">
<title>Node4&#45;&gt;Node9</title>
<g id="a_edge8_Node000004_Node000009"><a xlink:title=" ">
<path fill="none" stroke="#63b8ff" d="M529.39,-157.1C603.6,-153.41 714.62,-147.88 790.24,-144.12"/>
<polygon fill="#63b8ff" stroke="#63b8ff" points="790.86,-147.59 800.67,-143.6 790.51,-140.6 790.86,-147.59"/>
</a>
</g>
</g>
<!-- Node10 -->
<g id="Node000010" class="node">
<title>Node10</title>
<g id="a_Node000010"><a xlink:href="classGeometryUtils.html#a811846a194a09c97c258825df6accb9a" target="_top" xlink:title="Interpole un point à distanceMeters du premier sommet d&#39;une polyligne.">
<polygon fill="white" stroke="#666666" points="742,-112 570,-112 570,-82 742,-82 742,-112"/>
<text text-anchor="start" x="578" y="-100" font-family="Helvetica,sans-Serif" font-size="10.00">GeometryUtils::pointAtDistance</text>
<text text-anchor="middle" x="656" y="-89" font-family="Helvetica,sans-Serif" font-size="10.00">AlongLine</text>
</a>
</g>
</g>
<!-- Node4&#45;&gt;Node10 -->
<g id="edge10_Node000004_Node000010" class="edge">
<title>Node4&#45;&gt;Node10</title>
<g id="a_edge10_Node000004_Node000010"><a xlink:title=" ">
<path fill="none" stroke="#63b8ff" d="M499.85,-145.99C510.45,-142.71 521.61,-139.25 532,-136 553.59,-129.24 577.3,-121.75 598.08,-115.15"/>
<polygon fill="#63b8ff" stroke="#63b8ff" points="599.25,-118.45 607.72,-112.09 597.13,-111.78 599.25,-118.45"/>
</a>
</g>
</g>
<!-- Node7 -->
<g id="Node000007" class="node">
<title>Node7</title>
<g id="a_Node000007"><a xlink:href="classGeometryUtils.html#abcb43f3e49607318e07012e902febfdb" target="_top" xlink:title="Convertit une coordonnée WGS&#45;84 en mètres UTM.">
<polygon fill="white" stroke="#666666" points="968,-192.5 780,-192.5 780,-173.5 968,-173.5 968,-192.5"/>
<text text-anchor="middle" x="874" y="-180.5" font-family="Helvetica,sans-Serif" font-size="10.00">GeometryUtils::wgs84ToMetricUtm</text>
</a>
</g>
</g>
<!-- Node6&#45;&gt;Node7 -->
<g id="edge6_Node000006_Node000007" class="edge">
<title>Node6&#45;&gt;Node7</title>
<g id="a_edge6_Node000006_Node000007"><a xlink:title=" ">
<path fill="none" stroke="#63b8ff" d="M741.13,-183C750.44,-183 759.99,-183 769.51,-183"/>
<polygon fill="#63b8ff" stroke="#63b8ff" points="769.79,-186.5 779.79,-183 769.79,-179.5 769.79,-186.5"/>
</a>
</g>
</g>
<!-- Node8 -->
<g id="Node000008" class="node">
<title>Node8</title>
<g id="a_Node000008"><a xlink:href="classGeometryUtils.html#a0a57b43055d32f595a7c84dbd7d098e3" target="_top" xlink:title="Retourne le méridien central (degrés) d&#39;une zone UTM.">
<polygon fill="white" stroke="#666666" points="1153,-176 1004,-176 1004,-146 1153,-146 1153,-176"/>
<text text-anchor="start" x="1012" y="-164" font-family="Helvetica,sans-Serif" font-size="10.00">GeometryUtils::utmCentral</text>
<text text-anchor="middle" x="1078.5" y="-153" font-family="Helvetica,sans-Serif" font-size="10.00">MeridianDegrees</text>
</a>
</g>
</g>
<!-- Node7&#45;&gt;Node8 -->
<g id="edge7_Node000007_Node000008" class="edge">
<title>Node7&#45;&gt;Node8</title>
<g id="a_edge7_Node000007_Node000008"><a xlink:title=" ">
<path fill="none" stroke="#63b8ff" d="M962.64,-173.48C972.98,-172.35 983.52,-171.21 993.8,-170.09"/>
<polygon fill="#63b8ff" stroke="#63b8ff" points="994.43,-173.55 1003.99,-168.99 993.67,-166.59 994.43,-173.55"/>
</a>
</g>
</g>
<!-- Node9&#45;&gt;Node8 -->
<g id="edge9_Node000009_Node000008" class="edge">
<title>Node9&#45;&gt;Node8</title>
<g id="a_edge9_Node000009_Node000008"><a xlink:title=" ">
<path fill="none" stroke="#63b8ff" d="M947.25,-147.49C962.34,-149.06 978.38,-150.72 993.85,-152.32"/>
<polygon fill="#63b8ff" stroke="#63b8ff" points="993.61,-155.82 1003.91,-153.37 994.33,-148.86 993.61,-155.82"/>
</a>
</g>
</g>
<!-- Node14 -->
<g id="Node000014" class="node">
<title>Node14</title>
<g id="a_Node000014"><a xlink:href="classGeometryUtils.html#a7fb1d9f796278db394fc82257347f514" target="_top" xlink:title="Variante &quot;pire cas&quot; de l&#39;angle entre deux vecteurs 2&#45;D.">
<polygon fill="white" stroke="#666666" points="532,-78 368,-78 368,-48 532,-48 532,-78"/>
<text text-anchor="start" x="376" y="-66" font-family="Helvetica,sans-Serif" font-size="10.00">GeometryUtils::angleBetween</text>
<text text-anchor="middle" x="450" y="-55" font-family="Helvetica,sans-Serif" font-size="10.00">VectorsPiFallback</text>
</a>
</g>
</g>
<!-- Node13&#45;&gt;Node14 -->
<g id="edge14_Node000013_Node000014" class="edge">
<title>Node13&#45;&gt;Node14</title>
<g id="a_edge14_Node000013_Node000014"><a xlink:title=" ">
<path fill="none" stroke="#63b8ff" d="M317.26,-43.66C330.27,-45.57 344.13,-47.6 357.8,-49.61"/>
<polygon fill="#63b8ff" stroke="#63b8ff" points="357.3,-53.07 367.71,-51.06 358.32,-46.15 357.3,-53.07"/>
</a>
</g>
</g>
<!-- Node15 -->
<g id="Node000015" class="node">
<title>Node15</title>
<g id="a_Node000015"><a xlink:href="classSwitchOrientator.html#aad2a4892eb6f9d716bd4703694813f46" target="_top" xlink:title="Retourne la direction (vecteur lat/lon) depuis junctionCoord vers l&#39;extrémité distale du StraightBloc...">
<polygon fill="white" stroke="#666666" points="523.5,-30 376.5,-30 376.5,0 523.5,0 523.5,-30"/>
<text text-anchor="start" x="384.5" y="-18" font-family="Helvetica,sans-Serif" font-size="10.00">SwitchOrientator::compute</text>
<text text-anchor="middle" x="450" y="-7" font-family="Helvetica,sans-Serif" font-size="10.00">BranchDirectionVector</text>
</a>
</g>
</g>
<!-- Node13&#45;&gt;Node15 -->
<g id="edge15_Node000013_Node000015" class="edge">
<title>Node13&#45;&gt;Node15</title>
<g id="a_edge15_Node000013_Node000015"><a xlink:title=" ">
<path fill="none" stroke="#63b8ff" d="M317.26,-27.67C332.97,-26.16 349.93,-24.53 366.29,-22.96"/>
<polygon fill="#63b8ff" stroke="#63b8ff" points="366.76,-26.43 376.38,-21.99 366.09,-19.46 366.76,-26.43"/>
</a>
</g>
</g>
</g>
</svg>
