<?xml version="1.0" encoding="UTF-8" standalone="no"?>
<!DOCTYPE svg PUBLIC "-//W3C//DTD SVG 1.1//EN"
 "http://www.w3.org/Graphics/SVG/1.1/DTD/svg11.dtd">
<!-- Generated by graphviz version 2.43.0 (0)
 -->
<!-- Title: PCCSwitchNode Pages: 1 -->
<svg width="501pt" height="2082pt"
 viewBox="0.00 0.00 500.50 2082.00" xmlns="http://www.w3.org/2000/svg" xmlns:xlink="http://www.w3.org/1999/xlink">
<g id="graph0" class="graph" transform="scale(1 1) rotate(0) translate(4 2078)">
<title>PCCSwitchNode</title>
<!-- Node1 -->
<g id="Node000001" class="node">
<title>Node1</title>
<g id="a_Node000001"><a xlink:title="Nœud PCC issu d&#39;un SwitchBlock.">
<polygon fill="#999999" stroke="transparent" points="370.5,-169 254.5,-169 254.5,0 370.5,0 370.5,-169"/>
<text text-anchor="start" x="273.5" y="-156.5" font-family="Helvetica,sans-Serif" font-size="10.00">PCCSwitchNode</text>
<text text-anchor="start" x="310.5" y="-141.5" font-family="Helvetica,sans-Serif" font-size="10.00"> </text>
<text text-anchor="start" x="258.5" y="-126.5" font-family="Helvetica,sans-Serif" font-size="10.00">+</text>
<text text-anchor="start" x="271.5" y="-126.5" font-family="Helvetica,sans-Serif" font-size="10.00">PCCSwitchNode()</text>
<text text-anchor="start" x="258.5" y="-111.5" font-family="Helvetica,sans-Serif" font-size="10.00">+</text>
<text text-anchor="start" x="271.5" y="-111.5" font-family="Helvetica,sans-Serif" font-size="10.00">getNodeType()</text>
<text text-anchor="start" x="258.5" y="-96.5" font-family="Helvetica,sans-Serif" font-size="10.00">+</text>
<text text-anchor="start" x="271.5" y="-96.5" font-family="Helvetica,sans-Serif" font-size="10.00">getSwitchSource()</text>
<text text-anchor="start" x="258.5" y="-81.5" font-family="Helvetica,sans-Serif" font-size="10.00">+</text>
<text text-anchor="start" x="271.5" y="-81.5" font-family="Helvetica,sans-Serif" font-size="10.00">getRootEdge()</text>
<text text-anchor="start" x="258.5" y="-66.5" font-family="Helvetica,sans-Serif" font-size="10.00">+</text>
<text text-anchor="start" x="271.5" y="-66.5" font-family="Helvetica,sans-Serif" font-size="10.00">getNormalEdge()</text>
<text text-anchor="start" x="258.5" y="-51.5" font-family="Helvetica,sans-Serif" font-size="10.00">+</text>
<text text-anchor="start" x="271.5" y="-51.5" font-family="Helvetica,sans-Serif" font-size="10.00">getDeviationEdge()</text>
<text text-anchor="start" x="258.5" y="-36.5" font-family="Helvetica,sans-Serif" font-size="10.00">+</text>
<text text-anchor="start" x="271.5" y="-36.5" font-family="Helvetica,sans-Serif" font-size="10.00">setRootEdge()</text>
<text text-anchor="start" x="258.5" y="-21.5" font-family="Helvetica,sans-Serif" font-size="10.00">+</text>
<text text-anchor="start" x="271.5" y="-21.5" font-family="Helvetica,sans-Serif" font-size="10.00">setNormalEdge()</text>
<text text-anchor="start" x="258.5" y="-6.5" font-family="Helvetica,sans-Serif" font-size="10.00">+</text>
<text text-anchor="start" x="271.5" y="-6.5" font-family="Helvetica,sans-Serif" font-size="10.00">setDeviationEdge()</text>
<polygon fill="#666666" stroke="#666666" points="254.5,-151.5 254.5,-151.5 370.5,-151.5 370.5,-151.5 254.5,-151.5"/>
<polygon fill="#666666" stroke="#666666" points="254.5,-136.5 254.5,-136.5 370.5,-136.5 370.5,-136.5 254.5,-136.5"/>
<polygon fill="none" stroke="#666666" points="254.5,0 254.5,-169 370.5,-169 370.5,0 254.5,0"/>
</a>
</g>
</g>
<!-- Node2 -->
<g id="Node000002" class="node">
<title>Node2</title>
<g id="a_Node000002"><a xlink:href="classPCCNode.html" target="_top" xlink:title="Nœud abstrait du graphe PCC.">
<polygon fill="white" stroke="transparent" points="466,-1324 373,-1324 373,-1080 466,-1080 466,-1324"/>
<text text-anchor="start" x="397" y="-1312" font-family="Helvetica,sans-Serif" font-size="10.00">PCCNode</text>
<text text-anchor="start" x="377.5" y="-1297" font-family="Helvetica,sans-Serif" font-size="10.00">#</text>
<text text-anchor="start" x="390.5" y="-1297" font-family="Helvetica,sans-Serif" font-size="10.00">m_sourceId</text>
<text text-anchor="start" x="377.5" y="-1282" font-family="Helvetica,sans-Serif" font-size="10.00">#</text>
<text text-anchor="start" x="390.5" y="-1282" font-family="Helvetica,sans-Serif" font-size="10.00">m_edges</text>
<text text-anchor="start" x="377.5" y="-1267" font-family="Helvetica,sans-Serif" font-size="10.00">+</text>
<text text-anchor="start" x="390.5" y="-1267" font-family="Helvetica,sans-Serif" font-size="10.00">PCCNode()</text>
<text text-anchor="start" x="377.5" y="-1252" font-family="Helvetica,sans-Serif" font-size="10.00">+</text>
<text text-anchor="start" x="390.5" y="-1252" font-family="Helvetica,sans-Serif" font-size="10.00">PCCNode()</text>
<text text-anchor="start" x="377.5" y="-1237" font-family="Helvetica,sans-Serif" font-size="10.00">+</text>
<text text-anchor="start" x="390.5" y="-1237" font-family="Helvetica,sans-Serif" font-size="10.00">operator=()</text>
<text text-anchor="start" x="377.5" y="-1222" font-family="Helvetica,sans-Serif" font-size="10.00">+</text>
<text text-anchor="start" x="390.5" y="-1222" font-family="Helvetica,sans-Serif" font-size="10.00">PCCNode()</text>
<text text-anchor="start" x="377.5" y="-1207" font-family="Helvetica,sans-Serif" font-size="10.00">+</text>
<text text-anchor="start" x="390.5" y="-1207" font-family="Helvetica,sans-Serif" font-size="10.00">operator=()</text>
<text text-anchor="start" x="377.5" y="-1192" font-family="Helvetica,sans-Serif" font-size="10.00">+</text>
<text text-anchor="start" x="390.5" y="-1192" font-family="Helvetica,sans-Serif" font-size="10.00">~PCCNode()</text>
<text text-anchor="start" x="377.5" y="-1177" font-family="Helvetica,sans-Serif" font-size="10.00">+</text>
<text text-anchor="start" x="390.5" y="-1177" font-family="Helvetica,sans-Serif" font-size="10.00">getNodeType()</text>
<text text-anchor="start" x="377.5" y="-1162" font-family="Helvetica,sans-Serif" font-size="10.00">+</text>
<text text-anchor="start" x="390.5" y="-1162" font-family="Helvetica,sans-Serif" font-size="10.00">getSourceId()</text>
<text text-anchor="start" x="377.5" y="-1147" font-family="Helvetica,sans-Serif" font-size="10.00">+</text>
<text text-anchor="start" x="390.5" y="-1147" font-family="Helvetica,sans-Serif" font-size="10.00">getSource()</text>
<text text-anchor="start" x="377.5" y="-1132" font-family="Helvetica,sans-Serif" font-size="10.00">+</text>
<text text-anchor="start" x="390.5" y="-1132" font-family="Helvetica,sans-Serif" font-size="10.00">getPosition()</text>
<text text-anchor="start" x="377.5" y="-1117" font-family="Helvetica,sans-Serif" font-size="10.00">+</text>
<text text-anchor="start" x="390.5" y="-1117" font-family="Helvetica,sans-Serif" font-size="10.00">getEdges()</text>
<text text-anchor="start" x="377.5" y="-1102" font-family="Helvetica,sans-Serif" font-size="10.00">+</text>
<text text-anchor="start" x="390.5" y="-1102" font-family="Helvetica,sans-Serif" font-size="10.00">setPosition()</text>
<text text-anchor="start" x="377.5" y="-1087" font-family="Helvetica,sans-Serif" font-size="10.00">+</text>
<text text-anchor="start" x="390.5" y="-1087" font-family="Helvetica,sans-Serif" font-size="10.00">addEdge()</text>
<polygon fill="#666666" stroke="#666666" points="373.5,-1307 373.5,-1307 466.5,-1307 466.5,-1307 373.5,-1307"/>
<polygon fill="#666666" stroke="#666666" points="373.5,-1277 373.5,-1277 388.5,-1277 388.5,-1277 373.5,-1277"/>
<polygon fill="#666666" stroke="#666666" points="388.5,-1277 388.5,-1277 466.5,-1277 466.5,-1277 388.5,-1277"/>
<polygon fill="none" stroke="#666666" points="373,-1080 373,-1324 466,-1324 466,-1080 373,-1080"/>
</a>
</g>
</g>
<!-- Node2&#45;&gt;Node1 -->
<g id="edge1_Node000001_Node000002" class="edge">
<title>Node2&#45;&gt;Node1</title>
<g id="a_edge1_Node000001_Node000002"><a xlink:title=" ">
<path fill="none" stroke="#63b8ff" d="M446.4,-1069.82C480.99,-870.87 523.56,-484.52 405.5,-187 397.83,-167.67 384.63,-149.76 370.55,-134.53"/>
<polygon fill="none" stroke="#63b8ff" points="442.95,-1069.28 444.66,-1079.74 449.84,-1070.5 442.95,-1069.28"/>
</a>
</g>
</g>
<!-- Node10 -->
<g id="Node000010" class="node">
<title>Node10</title>
<g id="a_Node000010"><a xlink:href="classPCCEdge.html" target="_top" xlink:title="Connexion orientée entre deux PCCNode du PCCGraph.">
<polygon fill="white" stroke="transparent" points="379,-714.5 298,-714.5 298,-545.5 379,-545.5 379,-714.5"/>
<text text-anchor="start" x="317" y="-702" font-family="Helvetica,sans-Serif" font-size="10.00">PCCEdge</text>
<text text-anchor="start" x="305" y="-687" font-family="Helvetica,sans-Serif" font-size="10.00">&#45;</text>
<text text-anchor="start" x="315.5" y="-687" font-family="Helvetica,sans-Serif" font-size="10.00">m_role</text>
<text text-anchor="start" x="302.5" y="-672" font-family="Helvetica,sans-Serif" font-size="10.00">+</text>
<text text-anchor="start" x="315.5" y="-672" font-family="Helvetica,sans-Serif" font-size="10.00">PCCEdge()</text>
<text text-anchor="start" x="302.5" y="-657" font-family="Helvetica,sans-Serif" font-size="10.00">+</text>
<text text-anchor="start" x="315.5" y="-657" font-family="Helvetica,sans-Serif" font-size="10.00">PCCEdge()</text>
<text text-anchor="start" x="302.5" y="-642" font-family="Helvetica,sans-Serif" font-size="10.00">+</text>
<text text-anchor="start" x="315.5" y="-642" font-family="Helvetica,sans-Serif" font-size="10.00">operator=()</text>
<text text-anchor="start" x="302.5" y="-627" font-family="Helvetica,sans-Serif" font-size="10.00">+</text>
<text text-anchor="start" x="315.5" y="-627" font-family="Helvetica,sans-Serif" font-size="10.00">PCCEdge()</text>
<text text-anchor="start" x="302.5" y="-612" font-family="Helvetica,sans-Serif" font-size="10.00">+</text>
<text text-anchor="start" x="315.5" y="-612" font-family="Helvetica,sans-Serif" font-size="10.00">operator=()</text>
<text text-anchor="start" x="302.5" y="-597" font-family="Helvetica,sans-Serif" font-size="10.00">+</text>
<text text-anchor="start" x="315.5" y="-597" font-family="Helvetica,sans-Serif" font-size="10.00">~PCCEdge()</text>
<text text-anchor="start" x="302.5" y="-582" font-family="Helvetica,sans-Serif" font-size="10.00">+</text>
<text text-anchor="start" x="315.5" y="-582" font-family="Helvetica,sans-Serif" font-size="10.00">getFrom()</text>
<text text-anchor="start" x="302.5" y="-567" font-family="Helvetica,sans-Serif" font-size="10.00">+</text>
<text text-anchor="start" x="315.5" y="-567" font-family="Helvetica,sans-Serif" font-size="10.00">getTo()</text>
<text text-anchor="start" x="302.5" y="-552" font-family="Helvetica,sans-Serif" font-size="10.00">+</text>
<text text-anchor="start" x="315.5" y="-552" font-family="Helvetica,sans-Serif" font-size="10.00">getRole()</text>
<polygon fill="#666666" stroke="#666666" points="298.5,-697 298.5,-697 379.5,-697 379.5,-697 298.5,-697"/>
<polygon fill="#666666" stroke="#666666" points="298.5,-682 298.5,-682 313.5,-682 313.5,-682 298.5,-682"/>
<polygon fill="#666666" stroke="#666666" points="313.5,-682 313.5,-682 379.5,-682 379.5,-682 313.5,-682"/>
<polygon fill="none" stroke="#666666" points="298,-545.5 298,-714.5 379,-714.5 379,-545.5 298,-545.5"/>
</a>
</g>
</g>
<!-- Node2&#45;&gt;Node10 -->
<g id="edge12_Node000010_Node000002" class="edge">
<title>Node2&#45;&gt;Node10</title>
<g id="a_edge12_Node000010_Node000002"><a xlink:title=" ">
<path fill="none" stroke="#63b8ff" d="M372.95,-1105.3C367.57,-1091.05 362.83,-1076.34 359.5,-1062 333.29,-949.09 331.09,-815.23 333.45,-726.98"/>
<polygon fill="none" stroke="#63b8ff" points="333.46,-726.83 329.64,-720.72 333.82,-714.84 337.63,-720.96 333.46,-726.83"/>
</a>
</g>
<text text-anchor="middle" x="382.5" y="-1054" font-family="Helvetica,sans-Serif" font-size="10.00" fill="grey"> &#45;m_from</text>
<text text-anchor="middle" x="382.5" y="-1043" font-family="Helvetica,sans-Serif" font-size="10.00" fill="grey">&#45;m_to</text>
</g>
<!-- Node3 -->
<g id="Node000003" class="node">
<title>Node3</title>
<g id="a_Node000003"><a xlink:href="classShuntingElement.html" target="_top" xlink:title="Interface abstraite pour tous les éléments de shuntage ferroviaire.">
<polygon fill="white" stroke="transparent" points="328,-1547 207,-1547 207,-1393 328,-1393 328,-1547"/>
<text text-anchor="start" x="226" y="-1535" font-family="Helvetica,sans-Serif" font-size="10.00">ShuntingElement</text>
<text text-anchor="start" x="211.5" y="-1520" font-family="Helvetica,sans-Serif" font-size="10.00">#</text>
<text text-anchor="start" x="224.5" y="-1520" font-family="Helvetica,sans-Serif" font-size="10.00">m_state</text>
<text text-anchor="start" x="211.5" y="-1505" font-family="Helvetica,sans-Serif" font-size="10.00">+</text>
<text text-anchor="start" x="224.5" y="-1505" font-family="Helvetica,sans-Serif" font-size="10.00">ShuntingElement()</text>
<text text-anchor="start" x="211.5" y="-1490" font-family="Helvetica,sans-Serif" font-size="10.00">+</text>
<text text-anchor="start" x="224.5" y="-1490" font-family="Helvetica,sans-Serif" font-size="10.00">~ShuntingElement()</text>
<text text-anchor="start" x="211.5" y="-1475" font-family="Helvetica,sans-Serif" font-size="10.00">+</text>
<text text-anchor="start" x="224.5" y="-1475" font-family="Helvetica,sans-Serif" font-size="10.00">ShuntingElement()</text>
<text text-anchor="start" x="211.5" y="-1460" font-family="Helvetica,sans-Serif" font-size="10.00">+</text>
<text text-anchor="start" x="224.5" y="-1460" font-family="Helvetica,sans-Serif" font-size="10.00">operator=()</text>
<text text-anchor="start" x="211.5" y="-1445" font-family="Helvetica,sans-Serif" font-size="10.00">+</text>
<text text-anchor="start" x="224.5" y="-1445" font-family="Helvetica,sans-Serif" font-size="10.00">getState()</text>
<text text-anchor="start" x="211.5" y="-1430" font-family="Helvetica,sans-Serif" font-size="10.00">+</text>
<text text-anchor="start" x="224.5" y="-1430" font-family="Helvetica,sans-Serif" font-size="10.00">isFree()</text>
<text text-anchor="start" x="211.5" y="-1415" font-family="Helvetica,sans-Serif" font-size="10.00">+</text>
<text text-anchor="start" x="224.5" y="-1415" font-family="Helvetica,sans-Serif" font-size="10.00">isOccupied()</text>
<text text-anchor="start" x="211.5" y="-1400" font-family="Helvetica,sans-Serif" font-size="10.00">+</text>
<text text-anchor="start" x="224.5" y="-1400" font-family="Helvetica,sans-Serif" font-size="10.00">isInactive()</text>
<polygon fill="#666666" stroke="#666666" points="207.5,-1530 207.5,-1530 328.5,-1530 328.5,-1530 207.5,-1530"/>
<polygon fill="#666666" stroke="#666666" points="207.5,-1515 207.5,-1515 222.5,-1515 222.5,-1515 207.5,-1515"/>
<polygon fill="#666666" stroke="#666666" points="222.5,-1515 222.5,-1515 328.5,-1515 328.5,-1515 222.5,-1515"/>
<polygon fill="none" stroke="#666666" points="207,-1393 207,-1547 328,-1547 328,-1393 207,-1393"/>
</a>
</g>
</g>
<!-- Node3&#45;&gt;Node2 -->
<g id="edge2_Node000002_Node000003" class="edge">
<title>Node3&#45;&gt;Node2</title>
<g id="a_edge2_Node000002_Node000003"><a xlink:title=" ">
<path fill="none" stroke="#63b8ff" d="M321.04,-1392.84C335.51,-1371.03 350.7,-1346.93 363.5,-1324 364.73,-1321.79 365.96,-1319.55 367.19,-1317.28"/>
<polygon fill="none" stroke="#63b8ff" points="367.28,-1317.12 366.54,-1309.94 372.88,-1306.51 373.62,-1313.68 367.28,-1317.12"/>
</a>
</g>
<text text-anchor="middle" x="382" y="-1356" font-family="Helvetica,sans-Serif" font-size="10.00" fill="grey"> #m_source</text>
</g>
<!-- Node7 -->
<g id="Node000007" class="node">
<title>Node7</title>
<g id="a_Node000007"><a xlink:href="classSwitchBlock.html" target="_top" xlink:title=" ">
<polygon fill="white" stroke="transparent" points="267.5,-1022 95.5,-1022 95.5,-238 267.5,-238 267.5,-1022"/>
<text text-anchor="start" x="151.5" y="-1010" font-family="Helvetica,sans-Serif" font-size="10.00">SwitchBlock</text>
<text text-anchor="start" x="102" y="-995" font-family="Helvetica,sans-Serif" font-size="10.00">&#45;</text>
<text text-anchor="start" x="112.5" y="-995" font-family="Helvetica,sans-Serif" font-size="10.00">m_branchIds</text>
<text text-anchor="start" x="102" y="-980" font-family="Helvetica,sans-Serif" font-size="10.00">&#45;</text>
<text text-anchor="start" x="112.5" y="-980" font-family="Helvetica,sans-Serif" font-size="10.00">m_rootBranchId</text>
<text text-anchor="start" x="102" y="-965" font-family="Helvetica,sans-Serif" font-size="10.00">&#45;</text>
<text text-anchor="start" x="112.5" y="-965" font-family="Helvetica,sans-Serif" font-size="10.00">m_normalBranchId</text>
<text text-anchor="start" x="102" y="-950" font-family="Helvetica,sans-Serif" font-size="10.00">&#45;</text>
<text text-anchor="start" x="112.5" y="-950" font-family="Helvetica,sans-Serif" font-size="10.00">m_deviationBranchId</text>
<text text-anchor="start" x="102" y="-935" font-family="Helvetica,sans-Serif" font-size="10.00">&#45;</text>
<text text-anchor="start" x="112.5" y="-935" font-family="Helvetica,sans-Serif" font-size="10.00">m_tipOnRoot</text>
<text text-anchor="start" x="102" y="-920" font-family="Helvetica,sans-Serif" font-size="10.00">&#45;</text>
<text text-anchor="start" x="112.5" y="-920" font-family="Helvetica,sans-Serif" font-size="10.00">m_tipOnNormal</text>
<text text-anchor="start" x="102" y="-905" font-family="Helvetica,sans-Serif" font-size="10.00">&#45;</text>
<text text-anchor="start" x="112.5" y="-905" font-family="Helvetica,sans-Serif" font-size="10.00">m_tipOnDeviation</text>
<text text-anchor="start" x="102" y="-890" font-family="Helvetica,sans-Serif" font-size="10.00">&#45;</text>
<text text-anchor="start" x="112.5" y="-890" font-family="Helvetica,sans-Serif" font-size="10.00">m_totalLengthMeters</text>
<text text-anchor="start" x="102" y="-875" font-family="Helvetica,sans-Serif" font-size="10.00">&#45;</text>
<text text-anchor="start" x="112.5" y="-875" font-family="Helvetica,sans-Serif" font-size="10.00">m_doubleOnNormal</text>
<text text-anchor="start" x="102" y="-860" font-family="Helvetica,sans-Serif" font-size="10.00">&#45;</text>
<text text-anchor="start" x="112.5" y="-860" font-family="Helvetica,sans-Serif" font-size="10.00">m_doubleOnDeviation</text>
<text text-anchor="start" x="102" y="-845" font-family="Helvetica,sans-Serif" font-size="10.00">&#45;</text>
<text text-anchor="start" x="112.5" y="-845" font-family="Helvetica,sans-Serif" font-size="10.00">m_absorbedNormalCoords</text>
<text text-anchor="start" x="102" y="-830" font-family="Helvetica,sans-Serif" font-size="10.00">&#45;</text>
<text text-anchor="start" x="112.5" y="-830" font-family="Helvetica,sans-Serif" font-size="10.00">m_absorbedDeviationCoords</text>
<text text-anchor="start" x="102" y="-815" font-family="Helvetica,sans-Serif" font-size="10.00">&#45;</text>
<text text-anchor="start" x="112.5" y="-815" font-family="Helvetica,sans-Serif" font-size="10.00">m_activeBranch</text>
<text text-anchor="start" x="99.5" y="-800" font-family="Helvetica,sans-Serif" font-size="10.00">+</text>
<text text-anchor="start" x="112.5" y="-800" font-family="Helvetica,sans-Serif" font-size="10.00">SwitchBlock()</text>
<text text-anchor="start" x="99.5" y="-785" font-family="Helvetica,sans-Serif" font-size="10.00">+</text>
<text text-anchor="start" x="112.5" y="-785" font-family="Helvetica,sans-Serif" font-size="10.00">SwitchBlock()</text>
<text text-anchor="start" x="99.5" y="-770" font-family="Helvetica,sans-Serif" font-size="10.00">+</text>
<text text-anchor="start" x="112.5" y="-770" font-family="Helvetica,sans-Serif" font-size="10.00">getId()</text>
<text text-anchor="start" x="99.5" y="-755" font-family="Helvetica,sans-Serif" font-size="10.00">+</text>
<text text-anchor="start" x="112.5" y="-755" font-family="Helvetica,sans-Serif" font-size="10.00">getType()</text>
<text text-anchor="start" x="99.5" y="-740" font-family="Helvetica,sans-Serif" font-size="10.00">+</text>
<text text-anchor="start" x="112.5" y="-740" font-family="Helvetica,sans-Serif" font-size="10.00">getState()</text>
<text text-anchor="start" x="99.5" y="-725" font-family="Helvetica,sans-Serif" font-size="10.00">+</text>
<text text-anchor="start" x="112.5" y="-725" font-family="Helvetica,sans-Serif" font-size="10.00">setState()</text>
<text text-anchor="start" x="99.5" y="-710" font-family="Helvetica,sans-Serif" font-size="10.00">+</text>
<text text-anchor="start" x="112.5" y="-710" font-family="Helvetica,sans-Serif" font-size="10.00">setBranchPointers()</text>
<text text-anchor="start" x="99.5" y="-695" font-family="Helvetica,sans-Serif" font-size="10.00">+</text>
<text text-anchor="start" x="112.5" y="-695" font-family="Helvetica,sans-Serif" font-size="10.00">getBranches()</text>
<text text-anchor="start" x="99.5" y="-680" font-family="Helvetica,sans-Serif" font-size="10.00">+</text>
<text text-anchor="start" x="112.5" y="-680" font-family="Helvetica,sans-Serif" font-size="10.00">getJunctionCoordinate()</text>
<text text-anchor="start" x="99.5" y="-665" font-family="Helvetica,sans-Serif" font-size="10.00">+</text>
<text text-anchor="start" x="112.5" y="-665" font-family="Helvetica,sans-Serif" font-size="10.00">getBranchIds()</text>
<text text-anchor="start" x="99.5" y="-650" font-family="Helvetica,sans-Serif" font-size="10.00">+</text>
<text text-anchor="start" x="112.5" y="-650" font-family="Helvetica,sans-Serif" font-size="10.00">isOriented()</text>
<text text-anchor="start" x="99.5" y="-635" font-family="Helvetica,sans-Serif" font-size="10.00">+</text>
<text text-anchor="start" x="112.5" y="-635" font-family="Helvetica,sans-Serif" font-size="10.00">isDouble()</text>
<text text-anchor="start" x="99.5" y="-620" font-family="Helvetica,sans-Serif" font-size="10.00">+</text>
<text text-anchor="start" x="112.5" y="-620" font-family="Helvetica,sans-Serif" font-size="10.00">getRootBranchId()</text>
<text text-anchor="start" x="99.5" y="-605" font-family="Helvetica,sans-Serif" font-size="10.00">+</text>
<text text-anchor="start" x="112.5" y="-605" font-family="Helvetica,sans-Serif" font-size="10.00">getNormalBranchId()</text>
<text text-anchor="start" x="99.5" y="-590" font-family="Helvetica,sans-Serif" font-size="10.00">+</text>
<text text-anchor="start" x="112.5" y="-590" font-family="Helvetica,sans-Serif" font-size="10.00">getDeviationBranchId()</text>
<text text-anchor="start" x="99.5" y="-575" font-family="Helvetica,sans-Serif" font-size="10.00">+</text>
<text text-anchor="start" x="112.5" y="-575" font-family="Helvetica,sans-Serif" font-size="10.00">getTipOnRoot()</text>
<text text-anchor="start" x="99.5" y="-560" font-family="Helvetica,sans-Serif" font-size="10.00">+</text>
<text text-anchor="start" x="112.5" y="-560" font-family="Helvetica,sans-Serif" font-size="10.00">getTipOnNormal()</text>
<text text-anchor="start" x="99.5" y="-545" font-family="Helvetica,sans-Serif" font-size="10.00">+</text>
<text text-anchor="start" x="112.5" y="-545" font-family="Helvetica,sans-Serif" font-size="10.00">getTipOnDeviation()</text>
<text text-anchor="start" x="99.5" y="-530" font-family="Helvetica,sans-Serif" font-size="10.00">+</text>
<text text-anchor="start" x="112.5" y="-530" font-family="Helvetica,sans-Serif" font-size="10.00">getDoubleOnNormal()</text>
<text text-anchor="start" x="99.5" y="-515" font-family="Helvetica,sans-Serif" font-size="10.00">+</text>
<text text-anchor="start" x="112.5" y="-515" font-family="Helvetica,sans-Serif" font-size="10.00">getDoubleOnDeviation()</text>
<text text-anchor="start" x="99.5" y="-500" font-family="Helvetica,sans-Serif" font-size="10.00">+</text>
<text text-anchor="start" x="112.5" y="-500" font-family="Helvetica,sans-Serif" font-size="10.00">getPartnerOnNormal()</text>
<text text-anchor="start" x="99.5" y="-485" font-family="Helvetica,sans-Serif" font-size="10.00">+</text>
<text text-anchor="start" x="112.5" y="-485" font-family="Helvetica,sans-Serif" font-size="10.00">getPartnerOnDeviation()</text>
<text text-anchor="start" x="99.5" y="-470" font-family="Helvetica,sans-Serif" font-size="10.00">+</text>
<text text-anchor="start" x="112.5" y="-470" font-family="Helvetica,sans-Serif" font-size="10.00">getAbsorbedNormalCoords()</text>
<text text-anchor="start" x="99.5" y="-455" font-family="Helvetica,sans-Serif" font-size="10.00">+</text>
<text text-anchor="start" x="112.5" y="-455" font-family="Helvetica,sans-Serif" font-size="10.00">getAbsorbedDeviationCoords()</text>
<text text-anchor="start" x="99.5" y="-440" font-family="Helvetica,sans-Serif" font-size="10.00">+</text>
<text text-anchor="start" x="112.5" y="-440" font-family="Helvetica,sans-Serif" font-size="10.00">getTotalLengthMeters()</text>
<text text-anchor="start" x="99.5" y="-425" font-family="Helvetica,sans-Serif" font-size="10.00">+</text>
<text text-anchor="start" x="112.5" y="-425" font-family="Helvetica,sans-Serif" font-size="10.00">getActiveBranch()</text>
<text text-anchor="start" x="99.5" y="-410" font-family="Helvetica,sans-Serif" font-size="10.00">+</text>
<text text-anchor="start" x="112.5" y="-410" font-family="Helvetica,sans-Serif" font-size="10.00">activeBranchToString()</text>
<text text-anchor="start" x="99.5" y="-395" font-family="Helvetica,sans-Serif" font-size="10.00">+</text>
<text text-anchor="start" x="112.5" y="-395" font-family="Helvetica,sans-Serif" font-size="10.00">isDeviationActive()</text>
<text text-anchor="start" x="99.5" y="-380" font-family="Helvetica,sans-Serif" font-size="10.00">+</text>
<text text-anchor="start" x="112.5" y="-380" font-family="Helvetica,sans-Serif" font-size="10.00">toString()</text>
<text text-anchor="start" x="99.5" y="-365" font-family="Helvetica,sans-Serif" font-size="10.00">+</text>
<text text-anchor="start" x="112.5" y="-365" font-family="Helvetica,sans-Serif" font-size="10.00">addBranchId()</text>
<text text-anchor="start" x="99.5" y="-350" font-family="Helvetica,sans-Serif" font-size="10.00">+</text>
<text text-anchor="start" x="112.5" y="-350" font-family="Helvetica,sans-Serif" font-size="10.00">orient()</text>
<text text-anchor="start" x="99.5" y="-335" font-family="Helvetica,sans-Serif" font-size="10.00">+</text>
<text text-anchor="start" x="112.5" y="-335" font-family="Helvetica,sans-Serif" font-size="10.00">setTips()</text>
<text text-anchor="start" x="99.5" y="-320" font-family="Helvetica,sans-Serif" font-size="10.00">+</text>
<text text-anchor="start" x="112.5" y="-320" font-family="Helvetica,sans-Serif" font-size="10.00">swapNormalDeviation()</text>
<text text-anchor="start" x="99.5" y="-305" font-family="Helvetica,sans-Serif" font-size="10.00">+</text>
<text text-anchor="start" x="112.5" y="-305" font-family="Helvetica,sans-Serif" font-size="10.00">computeTotalLength()</text>
<text text-anchor="start" x="99.5" y="-290" font-family="Helvetica,sans-Serif" font-size="10.00">+</text>
<text text-anchor="start" x="112.5" y="-290" font-family="Helvetica,sans-Serif" font-size="10.00">absorbLink()</text>
<text text-anchor="start" x="99.5" y="-275" font-family="Helvetica,sans-Serif" font-size="10.00">+</text>
<text text-anchor="start" x="112.5" y="-275" font-family="Helvetica,sans-Serif" font-size="10.00">setActiveBranch()</text>
<text text-anchor="start" x="99.5" y="-260" font-family="Helvetica,sans-Serif" font-size="10.00">+</text>
<text text-anchor="start" x="112.5" y="-260" font-family="Helvetica,sans-Serif" font-size="10.00">toggleActiveBranch()</text>
<text text-anchor="start" x="102" y="-245" font-family="Helvetica,sans-Serif" font-size="10.00">&#45;</text>
<text text-anchor="start" x="112.5" y="-245" font-family="Helvetica,sans-Serif" font-size="10.00">haversineDistanceMeters()</text>
<polygon fill="#666666" stroke="#666666" points="95.5,-1005 95.5,-1005 267.5,-1005 267.5,-1005 95.5,-1005"/>
<polygon fill="#666666" stroke="#666666" points="95.5,-810 95.5,-810 110.5,-810 110.5,-810 95.5,-810"/>
<polygon fill="#666666" stroke="#666666" points="110.5,-810 110.5,-810 267.5,-810 267.5,-810 110.5,-810"/>
<polygon fill="none" stroke="#666666" points="95.5,-238 95.5,-1022 267.5,-1022 267.5,-238 95.5,-238"/>
</a>
</g>
</g>
<!-- Node3&#45;&gt;Node7 -->
<g id="edge7_Node000007_Node000003" class="edge">
<title>Node3&#45;&gt;Node7</title>
<g id="a_edge7_Node000007_Node000003"><a xlink:title=" ">
<path fill="none" stroke="#63b8ff" d="M215.37,-1384.03C206,-1364.93 197.61,-1344.29 192.5,-1324 177.72,-1265.29 172.86,-1145.67 172.41,-1022.08"/>
<polygon fill="none" stroke="#63b8ff" points="212.26,-1385.63 219.88,-1392.99 218.51,-1382.48 212.26,-1385.63"/>
</a>
</g>
</g>
<!-- Node9 -->
<g id="Node000009" class="node">
<title>Node9</title>
<g id="a_Node000009"><a xlink:href="structSwitchBlock_1_1SwitchBranches.html" target="_top" xlink:title="Branches topologiques d&#39;un SwitchBlock.">
<polygon fill="white" stroke="transparent" points="355,-1226.5 202,-1226.5 202,-1177.5 355,-1177.5 355,-1226.5"/>
<text text-anchor="start" x="207.5" y="-1214" font-family="Helvetica,sans-Serif" font-size="10.00">SwitchBlock::SwitchBranches</text>
<text text-anchor="start" x="277" y="-1199" font-family="Helvetica,sans-Serif" font-size="10.00"> </text>
<text text-anchor="start" x="277" y="-1184" font-family="Helvetica,sans-Serif" font-size="10.00"> </text>
<polygon fill="#666666" stroke="#666666" points="202.5,-1209 202.5,-1209 355.5,-1209 355.5,-1209 202.5,-1209"/>
<polygon fill="#666666" stroke="#666666" points="202.5,-1194 202.5,-1194 355.5,-1194 355.5,-1194 202.5,-1194"/>
<polygon fill="none" stroke="#666666" points="202,-1177.5 202,-1226.5 355,-1226.5 355,-1177.5 202,-1177.5"/>
</a>
</g>
</g>
<!-- Node3&#45;&gt;Node9 -->
<g id="edge10_Node000009_Node000003" class="edge">
<title>Node3&#45;&gt;Node9</title>
<g id="a_edge10_Node000009_Node000003"><a xlink:title=" ">
<path fill="none" stroke="#63b8ff" d="M267.31,-1392.76C267.49,-1376.03 267.85,-1358.41 268.5,-1342 269.9,-1306.78 272.95,-1266.63 275.31,-1238.57"/>
<polygon fill="none" stroke="#63b8ff" points="275.31,-1238.54 271.84,-1232.22 276.34,-1226.58 279.81,-1232.91 275.31,-1238.54"/>
</a>
</g>
<text text-anchor="middle" x="297.5" y="-1367" font-family="Helvetica,sans-Serif" font-size="10.00" fill="grey"> +deviation</text>
<text text-anchor="middle" x="297.5" y="-1356" font-family="Helvetica,sans-Serif" font-size="10.00" fill="grey">+normal</text>
<text text-anchor="middle" x="297.5" y="-1345" font-family="Helvetica,sans-Serif" font-size="10.00" fill="grey">+root</text>
</g>
<!-- Node4 -->
<g id="Node000004" class="node">
<title>Node4</title>
<g id="a_Node000004"><a xlink:href="classInteractiveElement.html" target="_top" xlink:title="Classe de base abstraite pour tous les éléments interactifs ferroviaires.">
<polygon fill="white" stroke="transparent" points="332.5,-1738 202.5,-1738 202.5,-1584 332.5,-1584 332.5,-1738"/>
<text text-anchor="start" x="220.5" y="-1726" font-family="Helvetica,sans-Serif" font-size="10.00">InteractiveElement</text>
<text text-anchor="start" x="206.5" y="-1711" font-family="Helvetica,sans-Serif" font-size="10.00">#</text>
<text text-anchor="start" x="219.5" y="-1711" font-family="Helvetica,sans-Serif" font-size="10.00">m_id</text>
<text text-anchor="start" x="206.5" y="-1696" font-family="Helvetica,sans-Serif" font-size="10.00">+</text>
<text text-anchor="start" x="219.5" y="-1696" font-family="Helvetica,sans-Serif" font-size="10.00">InteractiveElement()</text>
<text text-anchor="start" x="206.5" y="-1681" font-family="Helvetica,sans-Serif" font-size="10.00">+</text>
<text text-anchor="start" x="219.5" y="-1681" font-family="Helvetica,sans-Serif" font-size="10.00">~InteractiveElement()</text>
<text text-anchor="start" x="206.5" y="-1666" font-family="Helvetica,sans-Serif" font-size="10.00">+</text>
<text text-anchor="start" x="219.5" y="-1666" font-family="Helvetica,sans-Serif" font-size="10.00">InteractiveElement()</text>
<text text-anchor="start" x="206.5" y="-1651" font-family="Helvetica,sans-Serif" font-size="10.00">+</text>
<text text-anchor="start" x="219.5" y="-1651" font-family="Helvetica,sans-Serif" font-size="10.00">operator=()</text>
<text text-anchor="start" x="206.5" y="-1636" font-family="Helvetica,sans-Serif" font-size="10.00">+</text>
<text text-anchor="start" x="219.5" y="-1636" font-family="Helvetica,sans-Serif" font-size="10.00">InteractiveElement()</text>
<text text-anchor="start" x="206.5" y="-1621" font-family="Helvetica,sans-Serif" font-size="10.00">+</text>
<text text-anchor="start" x="219.5" y="-1621" font-family="Helvetica,sans-Serif" font-size="10.00">operator=()</text>
<text text-anchor="start" x="206.5" y="-1606" font-family="Helvetica,sans-Serif" font-size="10.00">+</text>
<text text-anchor="start" x="219.5" y="-1606" font-family="Helvetica,sans-Serif" font-size="10.00">getId()</text>
<text text-anchor="start" x="206.5" y="-1591" font-family="Helvetica,sans-Serif" font-size="10.00">+</text>
<text text-anchor="start" x="219.5" y="-1591" font-family="Helvetica,sans-Serif" font-size="10.00">getType()</text>
<polygon fill="#666666" stroke="#666666" points="202.5,-1721 202.5,-1721 332.5,-1721 332.5,-1721 202.5,-1721"/>
<polygon fill="#666666" stroke="#666666" points="202.5,-1706 202.5,-1706 217.5,-1706 217.5,-1706 202.5,-1706"/>
<polygon fill="#666666" stroke="#666666" points="217.5,-1706 217.5,-1706 332.5,-1706 332.5,-1706 217.5,-1706"/>
<polygon fill="none" stroke="#666666" points="202.5,-1584 202.5,-1738 332.5,-1738 332.5,-1584 202.5,-1584"/>
</a>
</g>
</g>
<!-- Node4&#45;&gt;Node3 -->
<g id="edge3_Node000003_Node000004" class="edge">
<title>Node4&#45;&gt;Node3</title>
<g id="a_edge3_Node000003_Node000004"><a xlink:title=" ">
<path fill="none" stroke="#63b8ff" d="M267.5,-1573.94C267.5,-1565.02 267.5,-1556.01 267.5,-1547.21"/>
<polygon fill="none" stroke="#63b8ff" points="264,-1573.94 267.5,-1583.94 271,-1573.94 264,-1573.94"/>
</a>
</g>
</g>
<!-- Node5 -->
<g id="Node000005" class="node">
<title>Node5</title>
<g id="a_Node000005"><a xlink:href="classLogger.html" target="_top" xlink:title="Journaliseur associé à un moteur nommé.">
<polygon fill="white" stroke="transparent" points="335.5,-2074 199.5,-2074 199.5,-1785 335.5,-1785 335.5,-2074"/>
<text text-anchor="start" x="250.5" y="-2061.5" font-family="Helvetica,sans-Serif" font-size="10.00">Logger</text>
<text text-anchor="start" x="206" y="-2046.5" font-family="Helvetica,sans-Serif" font-size="10.00">&#45;</text>
<text text-anchor="start" x="216.5" y="-2046.5" font-family="Helvetica,sans-Serif" font-size="10.00">m_motorName</text>
<text text-anchor="start" x="206" y="-2031.5" font-family="Helvetica,sans-Serif" font-size="10.00">&#45;</text>
<text text-anchor="start" x="216.5" y="-2031.5" font-family="Helvetica,sans-Serif" font-size="10.00">m_outputFile</text>
<text text-anchor="start" x="206" y="-2016.5" font-family="Helvetica,sans-Serif" font-size="10.00">&#45;</text>
<text text-anchor="start" x="216.5" y="-2016.5" font-family="Helvetica,sans-Serif" font-size="10.00">m_writeMutex</text>
<text text-anchor="start" x="206" y="-2001.5" font-family="Helvetica,sans-Serif" font-size="10.00">&#45;</text>
<text text-anchor="start" x="216.5" y="-2001.5" font-family="Helvetica,sans-Serif" font-size="10.00">m_minimumLevel</text>
<text text-anchor="start" x="203.5" y="-1986.5" font-family="Helvetica,sans-Serif" font-size="10.00">+</text>
<text text-anchor="start" x="216.5" y="-1986.5" font-family="Helvetica,sans-Serif" font-size="10.00">Logger()</text>
<text text-anchor="start" x="203.5" y="-1971.5" font-family="Helvetica,sans-Serif" font-size="10.00">+</text>
<text text-anchor="start" x="216.5" y="-1971.5" font-family="Helvetica,sans-Serif" font-size="10.00">~Logger()</text>
<text text-anchor="start" x="203.5" y="-1956.5" font-family="Helvetica,sans-Serif" font-size="10.00">+</text>
<text text-anchor="start" x="216.5" y="-1956.5" font-family="Helvetica,sans-Serif" font-size="10.00">Logger()</text>
<text text-anchor="start" x="203.5" y="-1941.5" font-family="Helvetica,sans-Serif" font-size="10.00">+</text>
<text text-anchor="start" x="216.5" y="-1941.5" font-family="Helvetica,sans-Serif" font-size="10.00">operator=()</text>
<text text-anchor="start" x="203.5" y="-1926.5" font-family="Helvetica,sans-Serif" font-size="10.00">+</text>
<text text-anchor="start" x="216.5" y="-1926.5" font-family="Helvetica,sans-Serif" font-size="10.00">writeLog()</text>
<text text-anchor="start" x="203.5" y="-1911.5" font-family="Helvetica,sans-Serif" font-size="10.00">+</text>
<text text-anchor="start" x="216.5" y="-1911.5" font-family="Helvetica,sans-Serif" font-size="10.00">setMinimumLogLevel()</text>
<text text-anchor="start" x="203.5" y="-1896.5" font-family="Helvetica,sans-Serif" font-size="10.00">+</text>
<text text-anchor="start" x="216.5" y="-1896.5" font-family="Helvetica,sans-Serif" font-size="10.00">getMotorName()</text>
<text text-anchor="start" x="203.5" y="-1881.5" font-family="Helvetica,sans-Serif" font-size="10.00">+</text>
<text text-anchor="start" x="216.5" y="-1881.5" font-family="Helvetica,sans-Serif" font-size="10.00">triggerFatalCrash()</text>
<text text-anchor="start" x="206" y="-1866.5" font-family="Helvetica,sans-Serif" font-size="10.00">&#45;</text>
<text text-anchor="start" x="216.5" y="-1866.5" font-family="Helvetica,sans-Serif" font-size="10.00">extractClassName()</text>
<text text-anchor="start" x="206" y="-1851.5" font-family="Helvetica,sans-Serif" font-size="10.00">&#45;</text>
<text text-anchor="start" x="216.5" y="-1851.5" font-family="Helvetica,sans-Serif" font-size="10.00">extractFunctionName()</text>
<text text-anchor="start" x="206" y="-1836.5" font-family="Helvetica,sans-Serif" font-size="10.00">&#45;</text>
<text text-anchor="start" x="216.5" y="-1836.5" font-family="Helvetica,sans-Serif" font-size="10.00">formatLogLine()</text>
<text text-anchor="start" x="206" y="-1821.5" font-family="Helvetica,sans-Serif" font-size="10.00">&#45;</text>
<text text-anchor="start" x="216.5" y="-1821.5" font-family="Helvetica,sans-Serif" font-size="10.00">levelToString()</text>
<text text-anchor="start" x="206" y="-1806.5" font-family="Helvetica,sans-Serif" font-size="10.00">&#45;</text>
<text text-anchor="start" x="216.5" y="-1806.5" font-family="Helvetica,sans-Serif" font-size="10.00">getCurrentTimestamp()</text>
<text text-anchor="start" x="206" y="-1791.5" font-family="Helvetica,sans-Serif" font-size="10.00">&#45;</text>
<text text-anchor="start" x="216.5" y="-1791.5" font-family="Helvetica,sans-Serif" font-size="10.00">sendToDebugOutput()</text>
<polygon fill="#666666" stroke="#666666" points="199.5,-2056.5 199.5,-2056.5 335.5,-2056.5 335.5,-2056.5 199.5,-2056.5"/>
<polygon fill="#666666" stroke="#666666" points="199.5,-1996.5 199.5,-1996.5 214.5,-1996.5 214.5,-1996.5 199.5,-1996.5"/>
<polygon fill="#666666" stroke="#666666" points="214.5,-1996.5 214.5,-1996.5 335.5,-1996.5 335.5,-1996.5 214.5,-1996.5"/>
<polygon fill="none" stroke="#666666" points="199.5,-1785 199.5,-2074 335.5,-2074 335.5,-1785 199.5,-1785"/>
</a>
</g>
</g>
<!-- Node5&#45;&gt;Node4 -->
<g id="edge4_Node000004_Node000005" class="edge">
<title>Node5&#45;&gt;Node4</title>
<g id="a_edge4_Node000004_Node000005"><a xlink:title=" ">
<path fill="none" stroke="#63b8ff" d="M267.5,-1784.72C267.5,-1773.11 267.5,-1761.61 267.5,-1750.57"/>
<polygon fill="none" stroke="#63b8ff" points="267.5,-1750.32 263.5,-1744.32 267.5,-1738.32 271.5,-1744.32 267.5,-1750.32"/>
</a>
</g>
<text text-anchor="middle" x="296.5" y="-1759" font-family="Helvetica,sans-Serif" font-size="10.00" fill="grey"> #m_logger</text>
</g>
<!-- Node6 -->
<g id="Node000006" class="node">
<title>Node6</title>
<g id="a_Node000006"><a xlink:href="structPCCPosition.html" target="_top" xlink:title="Position logique d&#39;un nœud dans le schéma PCC.">
<polygon fill="white" stroke="transparent" points="465,-1502 396,-1502 396,-1438 465,-1438 465,-1502"/>
<text text-anchor="start" x="401.5" y="-1490" font-family="Helvetica,sans-Serif" font-size="10.00">PCCPosition</text>
<text text-anchor="start" x="410.5" y="-1475" font-family="Helvetica,sans-Serif" font-size="10.00">+</text>
<text text-anchor="start" x="433.5" y="-1475" font-family="Helvetica,sans-Serif" font-size="10.00">x</text>
<text text-anchor="start" x="410.5" y="-1460" font-family="Helvetica,sans-Serif" font-size="10.00">+</text>
<text text-anchor="start" x="433.5" y="-1460" font-family="Helvetica,sans-Serif" font-size="10.00">y</text>
<text text-anchor="start" x="429" y="-1445" font-family="Helvetica,sans-Serif" font-size="10.00"> </text>
<polygon fill="#666666" stroke="#666666" points="396.5,-1485 396.5,-1485 465.5,-1485 465.5,-1485 396.5,-1485"/>
<polygon fill="#666666" stroke="#666666" points="396.5,-1455 396.5,-1455 431.5,-1455 431.5,-1455 396.5,-1455"/>
<polygon fill="#666666" stroke="#666666" points="431.5,-1455 431.5,-1455 465.5,-1455 465.5,-1455 431.5,-1455"/>
<polygon fill="none" stroke="#666666" points="396,-1438 396,-1502 465,-1502 465,-1438 396,-1438"/>
</a>
</g>
</g>
<!-- Node6&#45;&gt;Node2 -->
<g id="edge5_Node000002_Node000006" class="edge">
<title>Node6&#45;&gt;Node2</title>
<g id="a_edge5_Node000002_Node000006"><a xlink:title=" ">
<path fill="none" stroke="#63b8ff" d="M429.22,-1437.97C428.16,-1412.49 426.59,-1374.54 425.02,-1336.54"/>
<polygon fill="none" stroke="#63b8ff" points="425.01,-1336.2 420.76,-1330.37 424.51,-1324.21 428.76,-1330.04 425.01,-1336.2"/>
</a>
</g>
<text text-anchor="middle" x="459.5" y="-1356" font-family="Helvetica,sans-Serif" font-size="10.00" fill="grey"> #m_position</text>
</g>
<!-- Node7&#45;&gt;Node1 -->
<g id="edge6_Node000001_Node000007" class="edge">
<title>Node7&#45;&gt;Node1</title>
<g id="a_edge6_Node000001_Node000007"><a xlink:title=" ">
<path fill="none" stroke="#63b8ff" d="M203.96,-237.76C209.27,-220.36 215.41,-203.35 222.5,-187 228.49,-173.19 237.09,-159.95 246.64,-147.85"/>
<polygon fill="none" stroke="#63b8ff" points="246.81,-147.65 247.56,-140.48 254.46,-138.41 253.72,-145.58 246.81,-147.65"/>
</a>
</g>
<text text-anchor="middle" x="266" y="-201" font-family="Helvetica,sans-Serif" font-size="10.00" fill="grey"> &#45;m_switchSource</text>
</g>
<!-- Node8 -->
<g id="Node000008" class="node">
<title>Node8</title>
<g id="a_Node000008"><a xlink:href="classLatLon.html" target="_top" xlink:title="Coordonnée géographique WGS&#45;84 exprimée en degrés décimaux.">
<polygon fill="white" stroke="transparent" points="87,-1256.5 0,-1256.5 0,-1147.5 87,-1147.5 87,-1256.5"/>
<text text-anchor="start" x="27.5" y="-1244" font-family="Helvetica,sans-Serif" font-size="10.00">LatLon</text>
<text text-anchor="start" x="4.5" y="-1229" font-family="Helvetica,sans-Serif" font-size="10.00">+</text>
<text text-anchor="start" x="17.5" y="-1229" font-family="Helvetica,sans-Serif" font-size="10.00">latitude</text>
<text text-anchor="start" x="4.5" y="-1214" font-family="Helvetica,sans-Serif" font-size="10.00">+</text>
<text text-anchor="start" x="17.5" y="-1214" font-family="Helvetica,sans-Serif" font-size="10.00">longitude</text>
<text text-anchor="start" x="4.5" y="-1199" font-family="Helvetica,sans-Serif" font-size="10.00">+</text>
<text text-anchor="start" x="17.5" y="-1199" font-family="Helvetica,sans-Serif" font-size="10.00">LatLon()</text>
<text text-anchor="start" x="4.5" y="-1184" font-family="Helvetica,sans-Serif" font-size="10.00">+</text>
<text text-anchor="start" x="17.5" y="-1184" font-family="Helvetica,sans-Serif" font-size="10.00">LatLon()</text>
<text text-anchor="start" x="4.5" y="-1169" font-family="Helvetica,sans-Serif" font-size="10.00">+</text>
<text text-anchor="start" x="17.5" y="-1169" font-family="Helvetica,sans-Serif" font-size="10.00">operator==()</text>
<text text-anchor="start" x="4.5" y="-1154" font-family="Helvetica,sans-Serif" font-size="10.00">+</text>
<text text-anchor="start" x="17.5" y="-1154" font-family="Helvetica,sans-Serif" font-size="10.00">operator!=()</text>
<polygon fill="#666666" stroke="#666666" points="0.5,-1239 0.5,-1239 87.5,-1239 87.5,-1239 0.5,-1239"/>
<polygon fill="#666666" stroke="#666666" points="0.5,-1209 0.5,-1209 15.5,-1209 15.5,-1209 0.5,-1209"/>
<polygon fill="#666666" stroke="#666666" points="15.5,-1209 15.5,-1209 87.5,-1209 87.5,-1209 15.5,-1209"/>
<polygon fill="none" stroke="#666666" points="0,-1147.5 0,-1256.5 87,-1256.5 87,-1147.5 0,-1147.5"/>
</a>
</g>
</g>
<!-- Node8&#45;&gt;Node7 -->
<g id="edge8_Node000007_Node000008" class="edge">
<title>Node8&#45;&gt;Node7</title>
<g id="a_edge8_Node000007_Node000008"><a xlink:title=" ">
<path fill="none" stroke="#63b8ff" d="M39.61,-1147.34C38.38,-1115.86 38.61,-1075.43 44.5,-1040 54.56,-979.49 72.21,-915.83 91.56,-857.23"/>
<polygon fill="none" stroke="#63b8ff" points="91.65,-856.96 89.75,-850 95.45,-845.58 97.34,-852.53 91.65,-856.96"/>
</a>
</g>
<text text-anchor="middle" x="102" y="-1048.5" font-family="Helvetica,sans-Serif" font-size="10.00" fill="grey"> &#45;m_junctionCoordinate</text>
</g>
<!-- Node9&#45;&gt;Node7 -->
<g id="edge9_Node000007_Node000009" class="edge">
<title>Node9&#45;&gt;Node7</title>
<g id="a_edge9_Node000007_Node000009"><a xlink:title=" ">
<path fill="none" stroke="#63b8ff" d="M274.46,-1177.23C269.54,-1148.33 260.58,-1095.72 250.11,-1034.17"/>
<polygon fill="none" stroke="#63b8ff" points="250.08,-1033.99 245.13,-1028.74 248.07,-1022.16 253.02,-1027.4 250.08,-1033.99"/>
</a>
</g>
<text text-anchor="middle" x="286" y="-1048.5" font-family="Helvetica,sans-Serif" font-size="10.00" fill="grey"> &#45;m_branches</text>
</g>
<!-- Node10&#45;&gt;Node1 -->
<g id="edge11_Node000001_Node000010" class="edge">
<title>Node10&#45;&gt;Node1</title>
<g id="a_edge11_Node000001_Node000010"><a xlink:title=" ">
<path fill="none" stroke="#63b8ff" d="M332.06,-545.25C326.02,-462.62 317.36,-332.69 313.5,-220 313.07,-207.53 312.78,-194.41 312.59,-181.45"/>
<polygon fill="none" stroke="#63b8ff" points="312.58,-181.1 308.5,-175.15 312.43,-169.1 316.5,-175.05 312.58,-181.1"/>
</a>
</g>
<text text-anchor="middle" x="359.5" y="-212" font-family="Helvetica,sans-Serif" font-size="10.00" fill="grey"> &#45;m_deviationEdge</text>
<text text-anchor="middle" x="359.5" y="-201" font-family="Helvetica,sans-Serif" font-size="10.00" fill="grey">&#45;m_normalEdge</text>
<text text-anchor="middle" x="359.5" y="-190" font-family="Helvetica,sans-Serif" font-size="10.00" fill="grey">&#45;m_rootEdge</text>
</g>
</g>
</svg>
