<?xml version="1.0" encoding="UTF-8" standalone="no"?>
<!DOCTYPE svg PUBLIC "-//W3C//DTD SVG 1.1//EN"
 "http://www.w3.org/Graphics/SVG/1.1/DTD/svg11.dtd">
<!-- Generated by graphviz version 2.43.0 (0)
 -->
<!-- Title: SwitchBlock Pages: 1 -->
<svg width="397pt" height="1713pt"
 viewBox="0.00 0.00 397.00 1713.00" xmlns="http://www.w3.org/2000/svg" xmlns:xlink="http://www.w3.org/1999/xlink">
<g id="graph0" class="graph" transform="scale(1 1) rotate(0) translate(4 1709)">
<title>SwitchBlock</title>
<!-- Node1 -->
<g id="Node000001" class="node">
<title>Node1</title>
<g id="a_Node000001"><a xlink:title=" ">
<polygon fill="#999999" stroke="transparent" points="243,-799 71,-799 71,0 243,0 243,-799"/>
<text text-anchor="start" x="127" y="-786.5" font-family="Helvetica,sans-Serif" font-size="10.00">SwitchBlock</text>
<text text-anchor="start" x="77.5" y="-771.5" font-family="Helvetica,sans-Serif" font-size="10.00">&#45;</text>
<text text-anchor="start" x="88" y="-771.5" font-family="Helvetica,sans-Serif" font-size="10.00">m_branchIds</text>
<text text-anchor="start" x="77.5" y="-756.5" font-family="Helvetica,sans-Serif" font-size="10.00">&#45;</text>
<text text-anchor="start" x="88" y="-756.5" font-family="Helvetica,sans-Serif" font-size="10.00">m_rootBranchId</text>
<text text-anchor="start" x="77.5" y="-741.5" font-family="Helvetica,sans-Serif" font-size="10.00">&#45;</text>
<text text-anchor="start" x="88" y="-741.5" font-family="Helvetica,sans-Serif" font-size="10.00">m_normalBranchId</text>
<text text-anchor="start" x="77.5" y="-726.5" font-family="Helvetica,sans-Serif" font-size="10.00">&#45;</text>
<text text-anchor="start" x="88" y="-726.5" font-family="Helvetica,sans-Serif" font-size="10.00">m_deviationBranchId</text>
<text text-anchor="start" x="77.5" y="-711.5" font-family="Helvetica,sans-Serif" font-size="10.00">&#45;</text>
<text text-anchor="start" x="88" y="-711.5" font-family="Helvetica,sans-Serif" font-size="10.00">m_tipOnRoot</text>
<text text-anchor="start" x="77.5" y="-696.5" font-family="Helvetica,sans-Serif" font-size="10.00">&#45;</text>
<text text-anchor="start" x="88" y="-696.5" font-family="Helvetica,sans-Serif" font-size="10.00">m_tipOnNormal</text>
<text text-anchor="start" x="77.5" y="-681.5" font-family="Helvetica,sans-Serif" font-size="10.00">&#45;</text>
<text text-anchor="start" x="88" y="-681.5" font-family="Helvetica,sans-Serif" font-size="10.00">m_tipOnDeviation</text>
<text text-anchor="start" x="77.5" y="-666.5" font-family="Helvetica,sans-Serif" font-size="10.00">&#45;</text>
<text text-anchor="start" x="88" y="-666.5" font-family="Helvetica,sans-Serif" font-size="10.00">m_totalLengthMeters</text>
<text text-anchor="start" x="77.5" y="-651.5" font-family="Helvetica,sans-Serif" font-size="10.00">&#45;</text>
<text text-anchor="start" x="88" y="-651.5" font-family="Helvetica,sans-Serif" font-size="10.00">m_doubleOnNormal</text>
<text text-anchor="start" x="77.5" y="-636.5" font-family="Helvetica,sans-Serif" font-size="10.00">&#45;</text>
<text text-anchor="start" x="88" y="-636.5" font-family="Helvetica,sans-Serif" font-size="10.00">m_doubleOnDeviation</text>
<text text-anchor="start" x="77.5" y="-621.5" font-family="Helvetica,sans-Serif" font-size="10.00">&#45;</text>
<text text-anchor="start" x="88" y="-621.5" font-family="Helvetica,sans-Serif" font-size="10.00">m_absorbedNormalCoords</text>
<text text-anchor="start" x="77.5" y="-606.5" font-family="Helvetica,sans-Serif" font-size="10.00">&#45;</text>
<text text-anchor="start" x="88" y="-606.5" font-family="Helvetica,sans-Serif" font-size="10.00">m_absorbedDeviationCoords</text>
<text text-anchor="start" x="77.5" y="-591.5" font-family="Helvetica,sans-Serif" font-size="10.00">&#45;</text>
<text text-anchor="start" x="88" y="-591.5" font-family="Helvetica,sans-Serif" font-size="10.00">m_activeBranch</text>
<text text-anchor="start" x="75" y="-576.5" font-family="Helvetica,sans-Serif" font-size="10.00">+</text>
<text text-anchor="start" x="88" y="-576.5" font-family="Helvetica,sans-Serif" font-size="10.00">SwitchBlock()</text>
<text text-anchor="start" x="75" y="-561.5" font-family="Helvetica,sans-Serif" font-size="10.00">+</text>
<text text-anchor="start" x="88" y="-561.5" font-family="Helvetica,sans-Serif" font-size="10.00">SwitchBlock()</text>
<text text-anchor="start" x="75" y="-546.5" font-family="Helvetica,sans-Serif" font-size="10.00">+</text>
<text text-anchor="start" x="88" y="-546.5" font-family="Helvetica,sans-Serif" font-size="10.00">getId()</text>
<text text-anchor="start" x="75" y="-531.5" font-family="Helvetica,sans-Serif" font-size="10.00">+</text>
<text text-anchor="start" x="88" y="-531.5" font-family="Helvetica,sans-Serif" font-size="10.00">getType()</text>
<text text-anchor="start" x="75" y="-516.5" font-family="Helvetica,sans-Serif" font-size="10.00">+</text>
<text text-anchor="start" x="88" y="-516.5" font-family="Helvetica,sans-Serif" font-size="10.00">getState()</text>
<text text-anchor="start" x="75" y="-501.5" font-family="Helvetica,sans-Serif" font-size="10.00">+</text>
<text text-anchor="start" x="88" y="-501.5" font-family="Helvetica,sans-Serif" font-size="10.00">setState()</text>
<text text-anchor="start" x="75" y="-486.5" font-family="Helvetica,sans-Serif" font-size="10.00">+</text>
<text text-anchor="start" x="88" y="-486.5" font-family="Helvetica,sans-Serif" font-size="10.00">setBranchPointers()</text>
<text text-anchor="start" x="75" y="-471.5" font-family="Helvetica,sans-Serif" font-size="10.00">+</text>
<text text-anchor="start" x="88" y="-471.5" font-family="Helvetica,sans-Serif" font-size="10.00">getBranches()</text>
<text text-anchor="start" x="75" y="-456.5" font-family="Helvetica,sans-Serif" font-size="10.00">+</text>
<text text-anchor="start" x="88" y="-456.5" font-family="Helvetica,sans-Serif" font-size="10.00">getJunctionCoordinate()</text>
<text text-anchor="start" x="75" y="-441.5" font-family="Helvetica,sans-Serif" font-size="10.00">+</text>
<text text-anchor="start" x="88" y="-441.5" font-family="Helvetica,sans-Serif" font-size="10.00">getBranchIds()</text>
<text text-anchor="start" x="75" y="-426.5" font-family="Helvetica,sans-Serif" font-size="10.00">+</text>
<text text-anchor="start" x="88" y="-426.5" font-family="Helvetica,sans-Serif" font-size="10.00">isOriented()</text>
<text text-anchor="start" x="75" y="-411.5" font-family="Helvetica,sans-Serif" font-size="10.00">+</text>
<text text-anchor="start" x="88" y="-411.5" font-family="Helvetica,sans-Serif" font-size="10.00">isDouble()</text>
<text text-anchor="start" x="75" y="-396.5" font-family="Helvetica,sans-Serif" font-size="10.00">+</text>
<text text-anchor="start" x="88" y="-396.5" font-family="Helvetica,sans-Serif" font-size="10.00">getRootBranchId()</text>
<text text-anchor="start" x="75" y="-381.5" font-family="Helvetica,sans-Serif" font-size="10.00">+</text>
<text text-anchor="start" x="88" y="-381.5" font-family="Helvetica,sans-Serif" font-size="10.00">getNormalBranchId()</text>
<text text-anchor="start" x="75" y="-366.5" font-family="Helvetica,sans-Serif" font-size="10.00">+</text>
<text text-anchor="start" x="88" y="-366.5" font-family="Helvetica,sans-Serif" font-size="10.00">getDeviationBranchId()</text>
<text text-anchor="start" x="75" y="-351.5" font-family="Helvetica,sans-Serif" font-size="10.00">+</text>
<text text-anchor="start" x="88" y="-351.5" font-family="Helvetica,sans-Serif" font-size="10.00">getTipOnRoot()</text>
<text text-anchor="start" x="75" y="-336.5" font-family="Helvetica,sans-Serif" font-size="10.00">+</text>
<text text-anchor="start" x="88" y="-336.5" font-family="Helvetica,sans-Serif" font-size="10.00">getTipOnNormal()</text>
<text text-anchor="start" x="75" y="-321.5" font-family="Helvetica,sans-Serif" font-size="10.00">+</text>
<text text-anchor="start" x="88" y="-321.5" font-family="Helvetica,sans-Serif" font-size="10.00">getTipOnDeviation()</text>
<text text-anchor="start" x="75" y="-306.5" font-family="Helvetica,sans-Serif" font-size="10.00">+</text>
<text text-anchor="start" x="88" y="-306.5" font-family="Helvetica,sans-Serif" font-size="10.00">getDoubleOnNormal()</text>
<text text-anchor="start" x="75" y="-291.5" font-family="Helvetica,sans-Serif" font-size="10.00">+</text>
<text text-anchor="start" x="88" y="-291.5" font-family="Helvetica,sans-Serif" font-size="10.00">getDoubleOnDeviation()</text>
<text text-anchor="start" x="75" y="-276.5" font-family="Helvetica,sans-Serif" font-size="10.00">+</text>
<text text-anchor="start" x="88" y="-276.5" font-family="Helvetica,sans-Serif" font-size="10.00">getPartnerOnNormal()</text>
<text text-anchor="start" x="75" y="-261.5" font-family="Helvetica,sans-Serif" font-size="10.00">+</text>
<text text-anchor="start" x="88" y="-261.5" font-family="Helvetica,sans-Serif" font-size="10.00">getPartnerOnDeviation()</text>
<text text-anchor="start" x="75" y="-246.5" font-family="Helvetica,sans-Serif" font-size="10.00">+</text>
<text text-anchor="start" x="88" y="-246.5" font-family="Helvetica,sans-Serif" font-size="10.00">getAbsorbedNormalCoords()</text>
<text text-anchor="start" x="75" y="-231.5" font-family="Helvetica,sans-Serif" font-size="10.00">+</text>
<text text-anchor="start" x="88" y="-231.5" font-family="Helvetica,sans-Serif" font-size="10.00">getAbsorbedDeviationCoords()</text>
<text text-anchor="start" x="75" y="-216.5" font-family="Helvetica,sans-Serif" font-size="10.00">+</text>
<text text-anchor="start" x="88" y="-216.5" font-family="Helvetica,sans-Serif" font-size="10.00">getTotalLengthMeters()</text>
<text text-anchor="start" x="75" y="-201.5" font-family="Helvetica,sans-Serif" font-size="10.00">+</text>
<text text-anchor="start" x="88" y="-201.5" font-family="Helvetica,sans-Serif" font-size="10.00">getActiveBranch()</text>
<text text-anchor="start" x="75" y="-186.5" font-family="Helvetica,sans-Serif" font-size="10.00">+</text>
<text text-anchor="start" x="88" y="-186.5" font-family="Helvetica,sans-Serif" font-size="10.00">isDeviationActive()</text>
<text text-anchor="start" x="75" y="-171.5" font-family="Helvetica,sans-Serif" font-size="10.00">+</text>
<text text-anchor="start" x="88" y="-171.5" font-family="Helvetica,sans-Serif" font-size="10.00">toString()</text>
<text text-anchor="start" x="75" y="-156.5" font-family="Helvetica,sans-Serif" font-size="10.00">+</text>
<text text-anchor="start" x="88" y="-156.5" font-family="Helvetica,sans-Serif" font-size="10.00">addBranchId()</text>
<text text-anchor="start" x="75" y="-141.5" font-family="Helvetica,sans-Serif" font-size="10.00">+</text>
<text text-anchor="start" x="88" y="-141.5" font-family="Helvetica,sans-Serif" font-size="10.00">orient()</text>
<text text-anchor="start" x="75" y="-126.5" font-family="Helvetica,sans-Serif" font-size="10.00">+</text>
<text text-anchor="start" x="88" y="-126.5" font-family="Helvetica,sans-Serif" font-size="10.00">setTips()</text>
<text text-anchor="start" x="75" y="-111.5" font-family="Helvetica,sans-Serif" font-size="10.00">+</text>
<text text-anchor="start" x="88" y="-111.5" font-family="Helvetica,sans-Serif" font-size="10.00">swapNormalDeviation()</text>
<text text-anchor="start" x="75" y="-96.5" font-family="Helvetica,sans-Serif" font-size="10.00">+</text>
<text text-anchor="start" x="88" y="-96.5" font-family="Helvetica,sans-Serif" font-size="10.00">computeTotalLength()</text>
<text text-anchor="start" x="75" y="-81.5" font-family="Helvetica,sans-Serif" font-size="10.00">+</text>
<text text-anchor="start" x="88" y="-81.5" font-family="Helvetica,sans-Serif" font-size="10.00">absorbLink()</text>
<text text-anchor="start" x="75" y="-66.5" font-family="Helvetica,sans-Serif" font-size="10.00">+</text>
<text text-anchor="start" x="88" y="-66.5" font-family="Helvetica,sans-Serif" font-size="10.00">setActiveBranch()</text>
<text text-anchor="start" x="75" y="-51.5" font-family="Helvetica,sans-Serif" font-size="10.00">+</text>
<text text-anchor="start" x="88" y="-51.5" font-family="Helvetica,sans-Serif" font-size="10.00">toggleActiveBranch()</text>
<text text-anchor="start" x="75" y="-36.5" font-family="Helvetica,sans-Serif" font-size="10.00">+</text>
<text text-anchor="start" x="88" y="-36.5" font-family="Helvetica,sans-Serif" font-size="10.00">getActiveBranch()</text>
<text text-anchor="start" x="75" y="-21.5" font-family="Helvetica,sans-Serif" font-size="10.00">+</text>
<text text-anchor="start" x="88" y="-21.5" font-family="Helvetica,sans-Serif" font-size="10.00">activeBranchToString()</text>
<text text-anchor="start" x="77.5" y="-6.5" font-family="Helvetica,sans-Serif" font-size="10.00">&#45;</text>
<text text-anchor="start" x="88" y="-6.5" font-family="Helvetica,sans-Serif" font-size="10.00">haversineDistanceMeters()</text>
<polygon fill="#666666" stroke="#666666" points="71,-781.5 71,-781.5 243,-781.5 243,-781.5 71,-781.5"/>
<polygon fill="#666666" stroke="#666666" points="71,-586.5 71,-586.5 86,-586.5 86,-586.5 71,-586.5"/>
<polygon fill="#666666" stroke="#666666" points="86,-586.5 86,-586.5 243,-586.5 243,-586.5 86,-586.5"/>
<polygon fill="none" stroke="#666666" points="71,0 71,-799 243,-799 243,0 71,0"/>
</a>
</g>
</g>
<!-- Node2 -->
<g id="Node000002" class="node">
<title>Node2</title>
<g id="a_Node000002"><a xlink:href="classShuntingElement.html" target="_top" xlink:title="Interface abstraite pour tous les éléments de shuntage ferroviaire.">
<polygon fill="white" stroke="transparent" points="128.5,-1178 7.5,-1178 7.5,-1024 128.5,-1024 128.5,-1178"/>
<text text-anchor="start" x="26.5" y="-1166" font-family="Helvetica,sans-Serif" font-size="10.00">ShuntingElement</text>
<text text-anchor="start" x="12" y="-1151" font-family="Helvetica,sans-Serif" font-size="10.00">#</text>
<text text-anchor="start" x="25" y="-1151" font-family="Helvetica,sans-Serif" font-size="10.00">m_state</text>
<text text-anchor="start" x="12" y="-1136" font-family="Helvetica,sans-Serif" font-size="10.00">+</text>
<text text-anchor="start" x="25" y="-1136" font-family="Helvetica,sans-Serif" font-size="10.00">ShuntingElement()</text>
<text text-anchor="start" x="12" y="-1121" font-family="Helvetica,sans-Serif" font-size="10.00">+</text>
<text text-anchor="start" x="25" y="-1121" font-family="Helvetica,sans-Serif" font-size="10.00">~ShuntingElement()</text>
<text text-anchor="start" x="12" y="-1106" font-family="Helvetica,sans-Serif" font-size="10.00">+</text>
<text text-anchor="start" x="25" y="-1106" font-family="Helvetica,sans-Serif" font-size="10.00">ShuntingElement()</text>
<text text-anchor="start" x="12" y="-1091" font-family="Helvetica,sans-Serif" font-size="10.00">+</text>
<text text-anchor="start" x="25" y="-1091" font-family="Helvetica,sans-Serif" font-size="10.00">operator=()</text>
<text text-anchor="start" x="12" y="-1076" font-family="Helvetica,sans-Serif" font-size="10.00">+</text>
<text text-anchor="start" x="25" y="-1076" font-family="Helvetica,sans-Serif" font-size="10.00">getState()</text>
<text text-anchor="start" x="12" y="-1061" font-family="Helvetica,sans-Serif" font-size="10.00">+</text>
<text text-anchor="start" x="25" y="-1061" font-family="Helvetica,sans-Serif" font-size="10.00">isFree()</text>
<text text-anchor="start" x="12" y="-1046" font-family="Helvetica,sans-Serif" font-size="10.00">+</text>
<text text-anchor="start" x="25" y="-1046" font-family="Helvetica,sans-Serif" font-size="10.00">isOccupied()</text>
<text text-anchor="start" x="12" y="-1031" font-family="Helvetica,sans-Serif" font-size="10.00">+</text>
<text text-anchor="start" x="25" y="-1031" font-family="Helvetica,sans-Serif" font-size="10.00">isInactive()</text>
<polygon fill="#666666" stroke="#666666" points="8,-1161 8,-1161 129,-1161 129,-1161 8,-1161"/>
<polygon fill="#666666" stroke="#666666" points="8,-1146 8,-1146 23,-1146 23,-1146 8,-1146"/>
<polygon fill="#666666" stroke="#666666" points="23,-1146 23,-1146 129,-1146 129,-1146 23,-1146"/>
<polygon fill="none" stroke="#666666" points="7.5,-1024 7.5,-1178 128.5,-1178 128.5,-1024 7.5,-1024"/>
</a>
</g>
</g>
<!-- Node2&#45;&gt;Node1 -->
<g id="edge1_Node000001_Node000002" class="edge">
<title>Node2&#45;&gt;Node1</title>
<g id="a_edge1_Node000001_Node000002"><a xlink:title=" ">
<path fill="none" stroke="#63b8ff" d="M65.2,-1013.65C64.56,-964.41 65.35,-901.6 71,-846 72.56,-830.62 74.39,-814.98 76.44,-799.21"/>
<polygon fill="none" stroke="#63b8ff" points="61.71,-1014 65.36,-1023.94 68.71,-1013.89 61.71,-1014"/>
</a>
</g>
</g>
<!-- Node6 -->
<g id="Node000006" class="node">
<title>Node6</title>
<g id="a_Node000006"><a xlink:href="structSwitchBlock_1_1SwitchBranches.html" target="_top" xlink:title="Branches topologiques d&#39;un SwitchBlock.">
<polygon fill="white" stroke="transparent" points="233.5,-925 80.5,-925 80.5,-876 233.5,-876 233.5,-925"/>
<text text-anchor="start" x="86" y="-912.5" font-family="Helvetica,sans-Serif" font-size="10.00">SwitchBlock::SwitchBranches</text>
<text text-anchor="start" x="155.5" y="-897.5" font-family="Helvetica,sans-Serif" font-size="10.00"> </text>
<text text-anchor="start" x="155.5" y="-882.5" font-family="Helvetica,sans-Serif" font-size="10.00"> </text>
<polygon fill="#666666" stroke="#666666" points="81,-907.5 81,-907.5 234,-907.5 234,-907.5 81,-907.5"/>
<polygon fill="#666666" stroke="#666666" points="81,-892.5 81,-892.5 234,-892.5 234,-892.5 81,-892.5"/>
<polygon fill="none" stroke="#666666" points="80.5,-876 80.5,-925 233.5,-925 233.5,-876 80.5,-876"/>
</a>
</g>
</g>
<!-- Node2&#45;&gt;Node6 -->
<g id="edge6_Node000006_Node000002" class="edge">
<title>Node2&#45;&gt;Node6</title>
<g id="a_edge6_Node000006_Node000002"><a xlink:title=" ">
<path fill="none" stroke="#63b8ff" d="M102.16,-1023.82C115.64,-993.76 130.46,-960.7 141.29,-936.54"/>
<polygon fill="none" stroke="#63b8ff" points="141.35,-936.39 140.16,-929.28 146.26,-925.44 147.46,-932.56 141.35,-936.39"/>
</a>
</g>
<text text-anchor="middle" x="153" y="-998" font-family="Helvetica,sans-Serif" font-size="10.00" fill="grey"> +deviation</text>
<text text-anchor="middle" x="153" y="-987" font-family="Helvetica,sans-Serif" font-size="10.00" fill="grey">+normal</text>
<text text-anchor="middle" x="153" y="-976" font-family="Helvetica,sans-Serif" font-size="10.00" fill="grey">+root</text>
</g>
<!-- Node3 -->
<g id="Node000003" class="node">
<title>Node3</title>
<g id="a_Node000003"><a xlink:href="classInteractiveElement.html" target="_top" xlink:title="Classe de base abstraite pour tous les éléments interactifs ferroviaires.">
<polygon fill="white" stroke="transparent" points="133,-1369 3,-1369 3,-1215 133,-1215 133,-1369"/>
<text text-anchor="start" x="21" y="-1357" font-family="Helvetica,sans-Serif" font-size="10.00">InteractiveElement</text>
<text text-anchor="start" x="7" y="-1342" font-family="Helvetica,sans-Serif" font-size="10.00">#</text>
<text text-anchor="start" x="20" y="-1342" font-family="Helvetica,sans-Serif" font-size="10.00">m_id</text>
<text text-anchor="start" x="7" y="-1327" font-family="Helvetica,sans-Serif" font-size="10.00">+</text>
<text text-anchor="start" x="20" y="-1327" font-family="Helvetica,sans-Serif" font-size="10.00">InteractiveElement()</text>
<text text-anchor="start" x="7" y="-1312" font-family="Helvetica,sans-Serif" font-size="10.00">+</text>
<text text-anchor="start" x="20" y="-1312" font-family="Helvetica,sans-Serif" font-size="10.00">~InteractiveElement()</text>
<text text-anchor="start" x="7" y="-1297" font-family="Helvetica,sans-Serif" font-size="10.00">+</text>
<text text-anchor="start" x="20" y="-1297" font-family="Helvetica,sans-Serif" font-size="10.00">InteractiveElement()</text>
<text text-anchor="start" x="7" y="-1282" font-family="Helvetica,sans-Serif" font-size="10.00">+</text>
<text text-anchor="start" x="20" y="-1282" font-family="Helvetica,sans-Serif" font-size="10.00">operator=()</text>
<text text-anchor="start" x="7" y="-1267" font-family="Helvetica,sans-Serif" font-size="10.00">+</text>
<text text-anchor="start" x="20" y="-1267" font-family="Helvetica,sans-Serif" font-size="10.00">InteractiveElement()</text>
<text text-anchor="start" x="7" y="-1252" font-family="Helvetica,sans-Serif" font-size="10.00">+</text>
<text text-anchor="start" x="20" y="-1252" font-family="Helvetica,sans-Serif" font-size="10.00">operator=()</text>
<text text-anchor="start" x="7" y="-1237" font-family="Helvetica,sans-Serif" font-size="10.00">+</text>
<text text-anchor="start" x="20" y="-1237" font-family="Helvetica,sans-Serif" font-size="10.00">getId()</text>
<text text-anchor="start" x="7" y="-1222" font-family="Helvetica,sans-Serif" font-size="10.00">+</text>
<text text-anchor="start" x="20" y="-1222" font-family="Helvetica,sans-Serif" font-size="10.00">getType()</text>
<polygon fill="#666666" stroke="#666666" points="3,-1352 3,-1352 133,-1352 133,-1352 3,-1352"/>
<polygon fill="#666666" stroke="#666666" points="3,-1337 3,-1337 18,-1337 18,-1337 3,-1337"/>
<polygon fill="#666666" stroke="#666666" points="18,-1337 18,-1337 133,-1337 133,-1337 18,-1337"/>
<polygon fill="none" stroke="#666666" points="3,-1215 3,-1369 133,-1369 133,-1215 3,-1215"/>
</a>
</g>
</g>
<!-- Node3&#45;&gt;Node2 -->
<g id="edge2_Node000002_Node000003" class="edge">
<title>Node3&#45;&gt;Node2</title>
<g id="a_edge2_Node000002_Node000003"><a xlink:title=" ">
<path fill="none" stroke="#63b8ff" d="M68,-1204.94C68,-1196.02 68,-1187.01 68,-1178.21"/>
<polygon fill="none" stroke="#63b8ff" points="64.5,-1204.94 68,-1214.94 71.5,-1204.94 64.5,-1204.94"/>
</a>
</g>
</g>
<!-- Node4 -->
<g id="Node000004" class="node">
<title>Node4</title>
<g id="a_Node000004"><a xlink:href="classLogger.html" target="_top" xlink:title="Journaliseur associé à un moteur nommé.">
<polygon fill="white" stroke="transparent" points="136,-1705 0,-1705 0,-1416 136,-1416 136,-1705"/>
<text text-anchor="start" x="51" y="-1692.5" font-family="Helvetica,sans-Serif" font-size="10.00">Logger</text>
<text text-anchor="start" x="6.5" y="-1677.5" font-family="Helvetica,sans-Serif" font-size="10.00">&#45;</text>
<text text-anchor="start" x="17" y="-1677.5" font-family="Helvetica,sans-Serif" font-size="10.00">m_motorName</text>
<text text-anchor="start" x="6.5" y="-1662.5" font-family="Helvetica,sans-Serif" font-size="10.00">&#45;</text>
<text text-anchor="start" x="17" y="-1662.5" font-family="Helvetica,sans-Serif" font-size="10.00">m_outputFile</text>
<text text-anchor="start" x="6.5" y="-1647.5" font-family="Helvetica,sans-Serif" font-size="10.00">&#45;</text>
<text text-anchor="start" x="17" y="-1647.5" font-family="Helvetica,sans-Serif" font-size="10.00">m_writeMutex</text>
<text text-anchor="start" x="6.5" y="-1632.5" font-family="Helvetica,sans-Serif" font-size="10.00">&#45;</text>
<text text-anchor="start" x="17" y="-1632.5" font-family="Helvetica,sans-Serif" font-size="10.00">m_minimumLevel</text>
<text text-anchor="start" x="4" y="-1617.5" font-family="Helvetica,sans-Serif" font-size="10.00">+</text>
<text text-anchor="start" x="17" y="-1617.5" font-family="Helvetica,sans-Serif" font-size="10.00">Logger()</text>
<text text-anchor="start" x="4" y="-1602.5" font-family="Helvetica,sans-Serif" font-size="10.00">+</text>
<text text-anchor="start" x="17" y="-1602.5" font-family="Helvetica,sans-Serif" font-size="10.00">~Logger()</text>
<text text-anchor="start" x="4" y="-1587.5" font-family="Helvetica,sans-Serif" font-size="10.00">+</text>
<text text-anchor="start" x="17" y="-1587.5" font-family="Helvetica,sans-Serif" font-size="10.00">Logger()</text>
<text text-anchor="start" x="4" y="-1572.5" font-family="Helvetica,sans-Serif" font-size="10.00">+</text>
<text text-anchor="start" x="17" y="-1572.5" font-family="Helvetica,sans-Serif" font-size="10.00">operator=()</text>
<text text-anchor="start" x="4" y="-1557.5" font-family="Helvetica,sans-Serif" font-size="10.00">+</text>
<text text-anchor="start" x="17" y="-1557.5" font-family="Helvetica,sans-Serif" font-size="10.00">writeLog()</text>
<text text-anchor="start" x="4" y="-1542.5" font-family="Helvetica,sans-Serif" font-size="10.00">+</text>
<text text-anchor="start" x="17" y="-1542.5" font-family="Helvetica,sans-Serif" font-size="10.00">setMinimumLogLevel()</text>
<text text-anchor="start" x="4" y="-1527.5" font-family="Helvetica,sans-Serif" font-size="10.00">+</text>
<text text-anchor="start" x="17" y="-1527.5" font-family="Helvetica,sans-Serif" font-size="10.00">getMotorName()</text>
<text text-anchor="start" x="4" y="-1512.5" font-family="Helvetica,sans-Serif" font-size="10.00">+</text>
<text text-anchor="start" x="17" y="-1512.5" font-family="Helvetica,sans-Serif" font-size="10.00">triggerFatalCrash()</text>
<text text-anchor="start" x="6.5" y="-1497.5" font-family="Helvetica,sans-Serif" font-size="10.00">&#45;</text>
<text text-anchor="start" x="17" y="-1497.5" font-family="Helvetica,sans-Serif" font-size="10.00">extractClassName()</text>
<text text-anchor="start" x="6.5" y="-1482.5" font-family="Helvetica,sans-Serif" font-size="10.00">&#45;</text>
<text text-anchor="start" x="17" y="-1482.5" font-family="Helvetica,sans-Serif" font-size="10.00">extractFunctionName()</text>
<text text-anchor="start" x="6.5" y="-1467.5" font-family="Helvetica,sans-Serif" font-size="10.00">&#45;</text>
<text text-anchor="start" x="17" y="-1467.5" font-family="Helvetica,sans-Serif" font-size="10.00">formatLogLine()</text>
<text text-anchor="start" x="6.5" y="-1452.5" font-family="Helvetica,sans-Serif" font-size="10.00">&#45;</text>
<text text-anchor="start" x="17" y="-1452.5" font-family="Helvetica,sans-Serif" font-size="10.00">levelToString()</text>
<text text-anchor="start" x="6.5" y="-1437.5" font-family="Helvetica,sans-Serif" font-size="10.00">&#45;</text>
<text text-anchor="start" x="17" y="-1437.5" font-family="Helvetica,sans-Serif" font-size="10.00">getCurrentTimestamp()</text>
<text text-anchor="start" x="6.5" y="-1422.5" font-family="Helvetica,sans-Serif" font-size="10.00">&#45;</text>
<text text-anchor="start" x="17" y="-1422.5" font-family="Helvetica,sans-Serif" font-size="10.00">sendToDebugOutput()</text>
<polygon fill="#666666" stroke="#666666" points="0,-1687.5 0,-1687.5 136,-1687.5 136,-1687.5 0,-1687.5"/>
<polygon fill="#666666" stroke="#666666" points="0,-1627.5 0,-1627.5 15,-1627.5 15,-1627.5 0,-1627.5"/>
<polygon fill="#666666" stroke="#666666" points="15,-1627.5 15,-1627.5 136,-1627.5 136,-1627.5 15,-1627.5"/>
<polygon fill="none" stroke="#666666" points="0,-1416 0,-1705 136,-1705 136,-1416 0,-1416"/>
</a>
</g>
</g>
<!-- Node4&#45;&gt;Node3 -->
<g id="edge3_Node000003_Node000004" class="edge">
<title>Node4&#45;&gt;Node3</title>
<g id="a_edge3_Node000003_Node000004"><a xlink:title=" ">
<path fill="none" stroke="#63b8ff" d="M68,-1415.72C68,-1404.11 68,-1392.61 68,-1381.57"/>
<polygon fill="none" stroke="#63b8ff" points="68,-1381.32 64,-1375.32 68,-1369.32 72,-1375.32 68,-1381.32"/>
</a>
</g>
<text text-anchor="middle" x="97" y="-1390" font-family="Helvetica,sans-Serif" font-size="10.00" fill="grey"> #m_logger</text>
</g>
<!-- Node5 -->
<g id="Node000005" class="node">
<title>Node5</title>
<g id="a_Node000005"><a xlink:href="classLatLon.html" target="_top" xlink:title="Coordonnée géographique WGS&#45;84 exprimée en degrés décimaux.">
<polygon fill="white" stroke="transparent" points="338.5,-955 251.5,-955 251.5,-846 338.5,-846 338.5,-955"/>
<text text-anchor="start" x="279" y="-942.5" font-family="Helvetica,sans-Serif" font-size="10.00">LatLon</text>
<text text-anchor="start" x="256" y="-927.5" font-family="Helvetica,sans-Serif" font-size="10.00">+</text>
<text text-anchor="start" x="269" y="-927.5" font-family="Helvetica,sans-Serif" font-size="10.00">latitude</text>
<text text-anchor="start" x="256" y="-912.5" font-family="Helvetica,sans-Serif" font-size="10.00">+</text>
<text text-anchor="start" x="269" y="-912.5" font-family="Helvetica,sans-Serif" font-size="10.00">longitude</text>
<text text-anchor="start" x="256" y="-897.5" font-family="Helvetica,sans-Serif" font-size="10.00">+</text>
<text text-anchor="start" x="269" y="-897.5" font-family="Helvetica,sans-Serif" font-size="10.00">LatLon()</text>
<text text-anchor="start" x="256" y="-882.5" font-family="Helvetica,sans-Serif" font-size="10.00">+</text>
<text text-anchor="start" x="269" y="-882.5" font-family="Helvetica,sans-Serif" font-size="10.00">LatLon()</text>
<text text-anchor="start" x="256" y="-867.5" font-family="Helvetica,sans-Serif" font-size="10.00">+</text>
<text text-anchor="start" x="269" y="-867.5" font-family="Helvetica,sans-Serif" font-size="10.00">operator==()</text>
<text text-anchor="start" x="256" y="-852.5" font-family="Helvetica,sans-Serif" font-size="10.00">+</text>
<text text-anchor="start" x="269" y="-852.5" font-family="Helvetica,sans-Serif" font-size="10.00">operator!=()</text>
<polygon fill="#666666" stroke="#666666" points="252,-937.5 252,-937.5 339,-937.5 339,-937.5 252,-937.5"/>
<polygon fill="#666666" stroke="#666666" points="252,-907.5 252,-907.5 267,-907.5 267,-907.5 252,-907.5"/>
<polygon fill="#666666" stroke="#666666" points="267,-907.5 267,-907.5 339,-907.5 339,-907.5 267,-907.5"/>
<polygon fill="none" stroke="#666666" points="251.5,-846 251.5,-955 338.5,-955 338.5,-846 251.5,-846"/>
</a>
</g>
</g>
<!-- Node5&#45;&gt;Node1 -->
<g id="edge4_Node000001_Node000005" class="edge">
<title>Node5&#45;&gt;Node1</title>
<g id="a_edge4_Node000001_Node000005"><a xlink:title=" ">
<path fill="none" stroke="#63b8ff" d="M280.1,-845.62C271.28,-813.73 259.3,-770.4 246.26,-723.24"/>
<polygon fill="none" stroke="#63b8ff" points="246.21,-723.07 240.75,-718.36 243.01,-711.51 248.46,-716.22 246.21,-723.07"/>
</a>
</g>
<text text-anchor="middle" x="331.5" y="-820" font-family="Helvetica,sans-Serif" font-size="10.00" fill="grey"> &#45;m_junctionCoordinate</text>
</g>
<!-- Node6&#45;&gt;Node1 -->
<g id="edge5_Node000001_Node000006" class="edge">
<title>Node6&#45;&gt;Node1</title>
<g id="a_edge5_Node000001_Node000006"><a xlink:title=" ">
<path fill="none" stroke="#63b8ff" d="M157,-875.77C157,-860.2 157,-837.82 157,-811.13"/>
<polygon fill="none" stroke="#63b8ff" points="157,-811.01 153,-805.01 157,-799.01 161,-805.01 157,-811.01"/>
</a>
</g>
<text text-anchor="middle" x="190.5" y="-820" font-family="Helvetica,sans-Serif" font-size="10.00" fill="grey"> &#45;m_branches</text>
</g>
</g>
</svg>
