<?xml version="1.0" encoding="UTF-8" standalone="no"?>
<!DOCTYPE svg PUBLIC "-//W3C//DTD SVG 1.1//EN"
 "http://www.w3.org/Graphics/SVG/1.1/DTD/svg11.dtd">
<!-- Generated by graphviz version 2.43.0 (0)
 -->
<!-- Title: PCCPanel::windowProc Pages: 1 -->
<svg width="999pt" height="253pt"
 viewBox="0.00 0.00 999.00 252.50" xmlns="http://www.w3.org/2000/svg" xmlns:xlink="http://www.w3.org/1999/xlink">
<g id="graph0" class="graph" transform="scale(1 1) rotate(0) translate(4 248.5)">
<title>PCCPanel::windowProc</title>
<!-- Node1 -->
<g id="Node000001" class="node">
<title>Node1</title>
<g id="a_Node000001"><a xlink:title="Procédure de fenêtre statique, point d&#39;entrée imposé par Win32.">
<polygon fill="#999999" stroke="#666666" points="127,-168 0,-168 0,-149 127,-149 127,-168"/>
<text text-anchor="middle" x="63.5" y="-156" font-family="Helvetica,sans-Serif" font-size="10.00">PCCPanel::windowProc</text>
</a>
</g>
</g>
<!-- Node2 -->
<g id="Node000002" class="node">
<title>Node2</title>
<g id="a_Node000002"><a xlink:href="classPCCPanel.html#a4eb1ec290785cae336ff1f8e6bf0aafc" target="_top" xlink:title="Dispatcher principal des messages de la fenêtre.">
<polygon fill="white" stroke="#666666" points="308,-168 163,-168 163,-149 308,-149 308,-168"/>
<text text-anchor="middle" x="235.5" y="-156" font-family="Helvetica,sans-Serif" font-size="10.00">PCCPanel::handleMessage</text>
</a>
</g>
</g>
<!-- Node1&#45;&gt;Node2 -->
<g id="edge1_Node000001_Node000002" class="edge">
<title>Node1&#45;&gt;Node2</title>
<g id="a_edge1_Node000001_Node000002"><a xlink:title=" ">
<path fill="none" stroke="#63b8ff" d="M127.32,-158.5C135.52,-158.5 144.02,-158.5 152.48,-158.5"/>
<polygon fill="#63b8ff" stroke="#63b8ff" points="152.76,-162 162.76,-158.5 152.76,-155 152.76,-162"/>
</a>
</g>
</g>
<!-- Node3 -->
<g id="Node000003" class="node">
<title>Node3</title>
<g id="a_Node000003"><a xlink:href="classPCCPanel.html#a8eecf984fba3d3b3bc86ea61b095e098" target="_top" xlink:title="Gestionnaire de WM_PAINT — délègue le dessin à TCORenderer.">
<polygon fill="white" stroke="#666666" points="448,-168 344,-168 344,-149 448,-149 448,-168"/>
<text text-anchor="middle" x="396" y="-156" font-family="Helvetica,sans-Serif" font-size="10.00">PCCPanel::onPaint</text>
</a>
</g>
</g>
<!-- Node2&#45;&gt;Node3 -->
<g id="edge2_Node000002_Node000003" class="edge">
<title>Node2&#45;&gt;Node3</title>
<g id="a_edge2_Node000002_Node000003"><a xlink:title=" ">
<path fill="none" stroke="#63b8ff" d="M308.33,-158.5C316.83,-158.5 325.45,-158.5 333.78,-158.5"/>
<polygon fill="#63b8ff" stroke="#63b8ff" points="333.79,-162 343.79,-158.5 333.79,-155 333.79,-162"/>
</a>
</g>
</g>
<!-- Node4 -->
<g id="Node000004" class="node">
<title>Node4</title>
<g id="a_Node000004"><a xlink:href="classTCORenderer.html#a84a480ca1f9b2d8dffd5a51148739898" target="_top" xlink:title="Point d&#39;entrée unique du rendu TCO.">
<polygon fill="white" stroke="#666666" points="594,-168 484,-168 484,-149 594,-149 594,-168"/>
<text text-anchor="middle" x="539" y="-156" font-family="Helvetica,sans-Serif" font-size="10.00">TCORenderer::draw</text>
</a>
</g>
</g>
<!-- Node3&#45;&gt;Node4 -->
<g id="edge3_Node000003_Node000004" class="edge">
<title>Node3&#45;&gt;Node4</title>
<g id="a_edge3_Node000003_Node000004"><a xlink:title=" ">
<path fill="none" stroke="#63b8ff" d="M448.3,-158.5C456.48,-158.5 465.02,-158.5 473.45,-158.5"/>
<polygon fill="#63b8ff" stroke="#63b8ff" points="473.65,-162 483.65,-158.5 473.65,-155 473.65,-162"/>
</a>
</g>
</g>
<!-- Node5 -->
<g id="Node000005" class="node">
<title>Node5</title>
<g id="a_Node000005"><a xlink:href="classTCORenderer.html#abfcb79ee489f92d1e8ddd3cfe7ce7bb6" target="_top" xlink:title="Calcule la Projection à partir du contenu de TopologyRepository.">
<polygon fill="white" stroke="#666666" points="808,-206 630,-206 630,-187 808,-187 808,-206"/>
<text text-anchor="middle" x="719" y="-194" font-family="Helvetica,sans-Serif" font-size="10.00">TCORenderer::computeProjection</text>
</a>
</g>
</g>
<!-- Node4&#45;&gt;Node5 -->
<g id="edge4_Node000004_Node000005" class="edge">
<title>Node4&#45;&gt;Node5</title>
<g id="a_edge4_Node000004_Node000005"><a xlink:title=" ">
<path fill="none" stroke="#63b8ff" d="M584.92,-168.09C608.83,-173.19 638.42,-179.51 663.62,-184.89"/>
<polygon fill="#63b8ff" stroke="#63b8ff" points="662.9,-188.31 673.41,-186.98 664.36,-181.47 662.9,-188.31"/>
</a>
</g>
</g>
<!-- Node6 -->
<g id="Node000006" class="node">
<title>Node6</title>
<g id="a_Node000006"><a xlink:href="classTopologyRepository.html#a0179f504f5d22ea5b16926511a9cb027" target="_top" xlink:title="Retourne une référence mutable aux données topologiques.">
<polygon fill="white" stroke="#666666" points="974,-244.5 861,-244.5 861,-214.5 974,-214.5 974,-244.5"/>
<text text-anchor="start" x="869" y="-232.5" font-family="Helvetica,sans-Serif" font-size="10.00">TopologyRepository</text>
<text text-anchor="middle" x="917.5" y="-221.5" font-family="Helvetica,sans-Serif" font-size="10.00">::data</text>
</a>
</g>
</g>
<!-- Node4&#45;&gt;Node6 -->
<g id="edge8_Node000004_Node000006" class="edge">
<title>Node4&#45;&gt;Node6</title>
<g id="a_edge8_Node000004_Node000006"><a xlink:title=" ">
<path fill="none" stroke="#63b8ff" d="M550.96,-168.16C567.01,-181.62 598.44,-205.5 630,-215.5 702.89,-238.58 791.4,-239.01 850.58,-235.66"/>
<polygon fill="#63b8ff" stroke="#63b8ff" points="851.14,-239.13 860.91,-235.02 850.71,-232.15 851.14,-239.13"/>
</a>
</g>
</g>
<!-- Node7 -->
<g id="Node000007" class="node">
<title>Node7</title>
<g id="a_Node000007"><a xlink:href="classTopologyRepository.html#adb001f817a74b4b81e05d0d22517f509" target="_top" xlink:title="Retourne l&#39;instance unique du repository (création paresseuse).">
<polygon fill="white" stroke="#666666" points="974,-178.5 861,-178.5 861,-148.5 974,-148.5 974,-178.5"/>
<text text-anchor="start" x="869" y="-166.5" font-family="Helvetica,sans-Serif" font-size="10.00">TopologyRepository</text>
<text text-anchor="middle" x="917.5" y="-155.5" font-family="Helvetica,sans-Serif" font-size="10.00">::instance</text>
</a>
</g>
</g>
<!-- Node4&#45;&gt;Node7 -->
<g id="edge22_Node000004_Node000007" class="edge">
<title>Node4&#45;&gt;Node7</title>
<g id="a_edge22_Node000004_Node000007"><a xlink:title=" ">
<path fill="none" stroke="#63b8ff" d="M594.34,-159.22C662.08,-160.12 777.78,-161.66 850.53,-162.62"/>
<polygon fill="#63b8ff" stroke="#63b8ff" points="850.9,-166.13 860.95,-162.76 850.99,-159.13 850.9,-166.13"/>
</a>
</g>
</g>
<!-- Node8 -->
<g id="Node000008" class="node">
<title>Node8</title>
<g id="a_Node000008"><a xlink:href="classTCORenderer.html#aeed8cc58c834a65669010f32359d4610" target="_top" xlink:title="Dessine tous les StraightBlocks sous forme de polyligne GDI.">
<polygon fill="white" stroke="#666666" points="796,-130 642,-130 642,-111 796,-111 796,-130"/>
<text text-anchor="middle" x="719" y="-118" font-family="Helvetica,sans-Serif" font-size="10.00">TCORenderer::drawStraights</text>
</a>
</g>
</g>
<!-- Node4&#45;&gt;Node8 -->
<g id="edge9_Node000004_Node000008" class="edge">
<title>Node4&#45;&gt;Node8</title>
<g id="a_edge9_Node000004_Node000008"><a xlink:title=" ">
<path fill="none" stroke="#63b8ff" d="M584.92,-148.91C608.83,-143.81 638.42,-137.49 663.62,-132.11"/>
<polygon fill="#63b8ff" stroke="#63b8ff" points="664.36,-135.53 673.41,-130.02 662.9,-128.69 664.36,-135.53"/>
</a>
</g>
</g>
<!-- Node12 -->
<g id="Node000012" class="node">
<title>Node12</title>
<g id="a_Node000012"><a xlink:href="classTCORenderer.html#abac93569443d9bdd38b2dfb5cbd7e30b" target="_top" xlink:title="Dessine tous les SwitchBlocks (jonction + 3 branches).">
<polygon fill="white" stroke="#666666" points="796,-93 642,-93 642,-74 796,-74 796,-93"/>
<text text-anchor="middle" x="719" y="-81" font-family="Helvetica,sans-Serif" font-size="10.00">TCORenderer::drawSwitches</text>
</a>
</g>
</g>
<!-- Node4&#45;&gt;Node12 -->
<g id="edge15_Node000004_Node000012" class="edge">
<title>Node4&#45;&gt;Node12</title>
<g id="a_edge15_Node000004_Node000012"><a xlink:title=" ">
<path fill="none" stroke="#63b8ff" d="M552.36,-148.86C569.05,-136.32 600.15,-114.58 630,-102.5 636.33,-99.94 643.06,-97.7 649.87,-95.74"/>
<polygon fill="#63b8ff" stroke="#63b8ff" points="651.1,-99.04 659.87,-93.08 649.3,-92.27 651.1,-99.04"/>
</a>
</g>
</g>
<!-- Node5&#45;&gt;Node6 -->
<g id="edge5_Node000005_Node000006" class="edge">
<title>Node5&#45;&gt;Node6</title>
<g id="a_edge5_Node000005_Node000006"><a xlink:title=" ">
<path fill="none" stroke="#63b8ff" d="M776.57,-206C799.69,-209.88 826.58,-214.4 850.58,-218.43"/>
<polygon fill="#63b8ff" stroke="#63b8ff" points="850.22,-221.92 860.67,-220.12 851.38,-215.02 850.22,-221.92"/>
</a>
</g>
</g>
<!-- Node5&#45;&gt;Node7 -->
<g id="edge6_Node000005_Node000007" class="edge">
<title>Node5&#45;&gt;Node7</title>
<g id="a_edge6_Node000005_Node000007"><a xlink:title=" ">
<path fill="none" stroke="#63b8ff" d="M776.57,-187C799.69,-183.12 826.58,-178.6 850.58,-174.57"/>
<polygon fill="#63b8ff" stroke="#63b8ff" points="851.38,-177.98 860.67,-172.88 850.22,-171.08 851.38,-177.98"/>
</a>
</g>
</g>
<!-- Node7&#45;&gt;Node7 -->
<g id="edge7_Node000007_Node000007" class="edge">
<title>Node7&#45;&gt;Node7</title>
<g id="a_edge7_Node000007_Node000007"><a xlink:title=" ">
<path fill="none" stroke="#63b8ff" d="M882.7,-178.78C874.96,-187.91 886.56,-196.5 917.5,-196.5 935.87,-196.5 947.42,-193.47 952.16,-189.1"/>
<polygon fill="#63b8ff" stroke="#63b8ff" points="955.66,-188.82 952.3,-178.78 948.66,-188.72 955.66,-188.82"/>
</a>
</g>
</g>
<!-- Node8&#45;&gt;Node6 -->
<g id="edge10_Node000008_Node000006" class="edge">
<title>Node8&#45;&gt;Node6</title>
<g id="a_edge10_Node000008_Node000006"><a xlink:title=" ">
<path fill="none" stroke="#63b8ff" d="M735.13,-130.08C752.82,-141.36 782.86,-160.81 808,-178.5 824.36,-190.01 826.27,-196.24 844,-205.5 847.47,-207.31 851.1,-209.03 854.82,-210.64"/>
<polygon fill="#63b8ff" stroke="#63b8ff" points="853.59,-213.92 864.17,-214.45 856.23,-207.44 853.59,-213.92"/>
</a>
</g>
</g>
<!-- Node8&#45;&gt;Node7 -->
<g id="edge12_Node000008_Node000007" class="edge">
<title>Node8&#45;&gt;Node7</title>
<g id="a_edge12_Node000008_Node000007"><a xlink:title=" ">
<path fill="none" stroke="#63b8ff" d="M763.61,-130.04C789.2,-135.64 822.04,-142.83 850.72,-149.11"/>
<polygon fill="#63b8ff" stroke="#63b8ff" points="850.15,-152.56 860.67,-151.28 851.65,-145.73 850.15,-152.56"/>
</a>
</g>
</g>
<!-- Node9 -->
<g id="Node000009" class="node">
<title>Node9</title>
<g id="a_Node000009"><a xlink:href="classTCORenderer.html#ad888c0f18e1d658e017122e744d800af" target="_top" xlink:title="Dessine un segment GDI entre deux points écran.">
<polygon fill="white" stroke="#666666" points="983,-130 852,-130 852,-111 983,-111 983,-130"/>
<text text-anchor="middle" x="917.5" y="-118" font-family="Helvetica,sans-Serif" font-size="10.00">TCORenderer::drawLine</text>
</a>
</g>
</g>
<!-- Node8&#45;&gt;Node9 -->
<g id="edge11_Node000008_Node000009" class="edge">
<title>Node8&#45;&gt;Node9</title>
<g id="a_edge11_Node000008_Node000009"><a xlink:title=" ">
<path fill="none" stroke="#63b8ff" d="M796.25,-120.5C811.15,-120.5 826.77,-120.5 841.62,-120.5"/>
<polygon fill="#63b8ff" stroke="#63b8ff" points="841.77,-124 851.77,-120.5 841.77,-117 841.77,-124"/>
</a>
</g>
</g>
<!-- Node10 -->
<g id="Node000010" class="node">
<title>Node10</title>
<g id="a_Node000010"><a xlink:href="classTCORenderer.html#a444e83112e1f98c00fce1194e8c8d313" target="_top" xlink:title="Projette un point GPS en coordonnées pixels.">
<polygon fill="white" stroke="#666666" points="977.5,-93 857.5,-93 857.5,-74 977.5,-74 977.5,-93"/>
<text text-anchor="middle" x="917.5" y="-81" font-family="Helvetica,sans-Serif" font-size="10.00">TCORenderer::project</text>
</a>
</g>
</g>
<!-- Node8&#45;&gt;Node10 -->
<g id="edge13_Node000008_Node000010" class="edge">
<title>Node8&#45;&gt;Node10</title>
<g id="a_edge13_Node000008_Node000010"><a xlink:title=" ">
<path fill="none" stroke="#63b8ff" d="M770.6,-110.97C796.63,-106.07 828.55,-100.06 855.88,-94.91"/>
<polygon fill="#63b8ff" stroke="#63b8ff" points="856.55,-98.35 865.73,-93.06 855.25,-91.47 856.55,-98.35"/>
</a>
</g>
</g>
<!-- Node11 -->
<g id="Node000011" class="node">
<title>Node11</title>
<g id="a_Node000011"><a xlink:href="classTCORenderer.html#a538d4c108ec65a52b98810f96e6662e1" target="_top" xlink:title="Mappe un ShuntingState vers une couleur GDI.">
<polygon fill="white" stroke="#666666" points="991,-56 844,-56 844,-37 991,-37 991,-56"/>
<text text-anchor="middle" x="917.5" y="-44" font-family="Helvetica,sans-Serif" font-size="10.00">TCORenderer::stateToColor</text>
</a>
</g>
</g>
<!-- Node8&#45;&gt;Node11 -->
<g id="edge14_Node000008_Node000011" class="edge">
<title>Node8&#45;&gt;Node11</title>
<g id="a_edge14_Node000008_Node000011"><a xlink:title=" ">
<path fill="none" stroke="#63b8ff" d="M788.3,-110.92C795.17,-108.67 801.87,-105.91 808,-102.5 828.34,-91.2 823.9,-76.22 844,-64.5 847,-62.75 850.17,-61.17 853.44,-59.74"/>
<polygon fill="#63b8ff" stroke="#63b8ff" points="854.79,-62.97 862.86,-56.1 852.27,-56.44 854.79,-62.97"/>
</a>
</g>
</g>
<!-- Node12&#45;&gt;Node6 -->
<g id="edge16_Node000012_Node000006" class="edge">
<title>Node12&#45;&gt;Node6</title>
<g id="a_edge16_Node000012_Node000006"><a xlink:title=" ">
<path fill="none" stroke="#63b8ff" d="M793.5,-93.02C798.75,-95.55 803.67,-98.67 808,-102.5 844.34,-134.61 809.43,-171.5 844,-205.5 846.41,-207.87 849.06,-210.01 851.88,-211.93"/>
<polygon fill="#63b8ff" stroke="#63b8ff" points="850.36,-215.1 860.76,-217.1 853.88,-209.05 850.36,-215.1"/>
</a>
</g>
</g>
<!-- Node12&#45;&gt;Node7 -->
<g id="edge19_Node000012_Node000007" class="edge">
<title>Node12&#45;&gt;Node7</title>
<g id="a_edge19_Node000012_Node000007"><a xlink:title=" ">
<path fill="none" stroke="#63b8ff" d="M785.5,-93.11C793.34,-95.56 801.03,-98.64 808,-102.5 828.07,-113.62 824.55,-127.32 844,-139.5 846.61,-141.14 849.35,-142.67 852.16,-144.11"/>
<polygon fill="#63b8ff" stroke="#63b8ff" points="850.83,-147.35 861.37,-148.4 853.79,-141.01 850.83,-147.35"/>
</a>
</g>
</g>
<!-- Node12&#45;&gt;Node9 -->
<g id="edge18_Node000012_Node000009" class="edge">
<title>Node12&#45;&gt;Node9</title>
<g id="a_edge18_Node000012_Node000009"><a xlink:title=" ">
<path fill="none" stroke="#63b8ff" d="M770.6,-93.03C796.63,-97.93 828.55,-103.94 855.88,-109.09"/>
<polygon fill="#63b8ff" stroke="#63b8ff" points="855.25,-112.53 865.73,-110.94 856.55,-105.65 855.25,-112.53"/>
</a>
</g>
</g>
<!-- Node12&#45;&gt;Node10 -->
<g id="edge20_Node000012_Node000010" class="edge">
<title>Node12&#45;&gt;Node10</title>
<g id="a_edge20_Node000012_Node000010"><a xlink:title=" ">
<path fill="none" stroke="#63b8ff" d="M796.25,-83.5C813.05,-83.5 830.75,-83.5 847.25,-83.5"/>
<polygon fill="#63b8ff" stroke="#63b8ff" points="847.35,-87 857.35,-83.5 847.35,-80 847.35,-87"/>
</a>
</g>
</g>
<!-- Node12&#45;&gt;Node11 -->
<g id="edge21_Node000012_Node000011" class="edge">
<title>Node12&#45;&gt;Node11</title>
<g id="a_edge21_Node000012_Node000011"><a xlink:title=" ">
<path fill="none" stroke="#63b8ff" d="M770.6,-73.97C796.63,-69.07 828.55,-63.06 855.88,-57.91"/>
<polygon fill="#63b8ff" stroke="#63b8ff" points="856.55,-61.35 865.73,-56.06 855.25,-54.47 856.55,-61.35"/>
</a>
</g>
</g>
<!-- Node13 -->
<g id="Node000013" class="node">
<title>Node13</title>
<g id="a_Node000013"><a xlink:href="classTCORenderer.html#a16b62d2392d076c39684ef52fb11c84f" target="_top" xlink:title="Dessine un disque plein centré sur center.">
<polygon fill="white" stroke="#666666" points="981.5,-19 853.5,-19 853.5,0 981.5,0 981.5,-19"/>
<text text-anchor="middle" x="917.5" y="-7" font-family="Helvetica,sans-Serif" font-size="10.00">TCORenderer::drawDot</text>
</a>
</g>
</g>
<!-- Node12&#45;&gt;Node13 -->
<g id="edge17_Node000012_Node000013" class="edge">
<title>Node12&#45;&gt;Node13</title>
<g id="a_edge17_Node000012_Node000013"><a xlink:title=" ">
<path fill="none" stroke="#63b8ff" d="M738.48,-73.88C762.34,-61.76 805.39,-40.89 844,-27.5 849.95,-25.44 856.25,-23.51 862.56,-21.74"/>
<polygon fill="#63b8ff" stroke="#63b8ff" points="863.67,-25.06 872.42,-19.09 861.85,-18.3 863.67,-25.06"/>
</a>
</g>
</g>
</g>
</svg>
