<?xml version="1.0" encoding="UTF-8" standalone="no"?>
<!DOCTYPE svg PUBLIC "-//W3C//DTD SVG 1.1//EN"
 "http://www.w3.org/Graphics/SVG/1.1/DTD/svg11.dtd">
<!-- Generated by graphviz version 2.43.0 (0)
 -->
<!-- Title: PCCStraightNode Pages: 1 -->
<svg width="345pt" height="1483pt"
 viewBox="0.00 0.00 345.03 1483.00" xmlns="http://www.w3.org/2000/svg" xmlns:xlink="http://www.w3.org/1999/xlink">
<g id="graph0" class="graph" transform="scale(1 1) rotate(0) translate(4 1479)">
<title>PCCStraightNode</title>
<!-- Node1 -->
<g id="Node000001" class="node">
<title>Node1</title>
<g id="a_Node000001"><a xlink:title="Nœud PCC issu d&#39;un StraightBlock.">
<polygon fill="#999999" stroke="transparent" points="253.03,-79 137.03,-79 137.03,0 253.03,0 253.03,-79"/>
<text text-anchor="start" x="153.03" y="-66.5" font-family="Helvetica,sans-Serif" font-size="10.00">PCCStraightNode</text>
<text text-anchor="start" x="193.03" y="-51.5" font-family="Helvetica,sans-Serif" font-size="10.00"> </text>
<text text-anchor="start" x="141.03" y="-36.5" font-family="Helvetica,sans-Serif" font-size="10.00">+</text>
<text text-anchor="start" x="154.03" y="-36.5" font-family="Helvetica,sans-Serif" font-size="10.00">PCCStraightNode()</text>
<text text-anchor="start" x="141.03" y="-21.5" font-family="Helvetica,sans-Serif" font-size="10.00">+</text>
<text text-anchor="start" x="154.03" y="-21.5" font-family="Helvetica,sans-Serif" font-size="10.00">getNodeType()</text>
<text text-anchor="start" x="141.03" y="-6.5" font-family="Helvetica,sans-Serif" font-size="10.00">+</text>
<text text-anchor="start" x="154.03" y="-6.5" font-family="Helvetica,sans-Serif" font-size="10.00">getStraightSource()</text>
<polygon fill="#666666" stroke="#666666" points="137.03,-61.5 137.03,-61.5 253.03,-61.5 253.03,-61.5 137.03,-61.5"/>
<polygon fill="#666666" stroke="#666666" points="137.03,-46.5 137.03,-46.5 253.03,-46.5 253.03,-46.5 137.03,-46.5"/>
<polygon fill="none" stroke="#666666" points="137.03,0 137.03,-79 253.03,-79 253.03,0 137.03,0"/>
</a>
</g>
</g>
<!-- Node2 -->
<g id="Node000002" class="node">
<title>Node2</title>
<g id="a_Node000002"><a xlink:href="classPCCNode.html" target="_top" xlink:title="Nœud abstrait du graphe PCC.">
<polygon fill="white" stroke="transparent" points="317.53,-736 224.53,-736 224.53,-492 317.53,-492 317.53,-736"/>
<text text-anchor="start" x="248.53" y="-724" font-family="Helvetica,sans-Serif" font-size="10.00">PCCNode</text>
<text text-anchor="start" x="229.03" y="-709" font-family="Helvetica,sans-Serif" font-size="10.00">#</text>
<text text-anchor="start" x="242.03" y="-709" font-family="Helvetica,sans-Serif" font-size="10.00">m_sourceId</text>
<text text-anchor="start" x="229.03" y="-694" font-family="Helvetica,sans-Serif" font-size="10.00">#</text>
<text text-anchor="start" x="242.03" y="-694" font-family="Helvetica,sans-Serif" font-size="10.00">m_edges</text>
<text text-anchor="start" x="229.03" y="-679" font-family="Helvetica,sans-Serif" font-size="10.00">+</text>
<text text-anchor="start" x="242.03" y="-679" font-family="Helvetica,sans-Serif" font-size="10.00">PCCNode()</text>
<text text-anchor="start" x="229.03" y="-664" font-family="Helvetica,sans-Serif" font-size="10.00">+</text>
<text text-anchor="start" x="242.03" y="-664" font-family="Helvetica,sans-Serif" font-size="10.00">PCCNode()</text>
<text text-anchor="start" x="229.03" y="-649" font-family="Helvetica,sans-Serif" font-size="10.00">+</text>
<text text-anchor="start" x="242.03" y="-649" font-family="Helvetica,sans-Serif" font-size="10.00">operator=()</text>
<text text-anchor="start" x="229.03" y="-634" font-family="Helvetica,sans-Serif" font-size="10.00">+</text>
<text text-anchor="start" x="242.03" y="-634" font-family="Helvetica,sans-Serif" font-size="10.00">PCCNode()</text>
<text text-anchor="start" x="229.03" y="-619" font-family="Helvetica,sans-Serif" font-size="10.00">+</text>
<text text-anchor="start" x="242.03" y="-619" font-family="Helvetica,sans-Serif" font-size="10.00">operator=()</text>
<text text-anchor="start" x="229.03" y="-604" font-family="Helvetica,sans-Serif" font-size="10.00">+</text>
<text text-anchor="start" x="242.03" y="-604" font-family="Helvetica,sans-Serif" font-size="10.00">~PCCNode()</text>
<text text-anchor="start" x="229.03" y="-589" font-family="Helvetica,sans-Serif" font-size="10.00">+</text>
<text text-anchor="start" x="242.03" y="-589" font-family="Helvetica,sans-Serif" font-size="10.00">getNodeType()</text>
<text text-anchor="start" x="229.03" y="-574" font-family="Helvetica,sans-Serif" font-size="10.00">+</text>
<text text-anchor="start" x="242.03" y="-574" font-family="Helvetica,sans-Serif" font-size="10.00">getSourceId()</text>
<text text-anchor="start" x="229.03" y="-559" font-family="Helvetica,sans-Serif" font-size="10.00">+</text>
<text text-anchor="start" x="242.03" y="-559" font-family="Helvetica,sans-Serif" font-size="10.00">getSource()</text>
<text text-anchor="start" x="229.03" y="-544" font-family="Helvetica,sans-Serif" font-size="10.00">+</text>
<text text-anchor="start" x="242.03" y="-544" font-family="Helvetica,sans-Serif" font-size="10.00">getPosition()</text>
<text text-anchor="start" x="229.03" y="-529" font-family="Helvetica,sans-Serif" font-size="10.00">+</text>
<text text-anchor="start" x="242.03" y="-529" font-family="Helvetica,sans-Serif" font-size="10.00">getEdges()</text>
<text text-anchor="start" x="229.03" y="-514" font-family="Helvetica,sans-Serif" font-size="10.00">+</text>
<text text-anchor="start" x="242.03" y="-514" font-family="Helvetica,sans-Serif" font-size="10.00">setPosition()</text>
<text text-anchor="start" x="229.03" y="-499" font-family="Helvetica,sans-Serif" font-size="10.00">+</text>
<text text-anchor="start" x="242.03" y="-499" font-family="Helvetica,sans-Serif" font-size="10.00">addEdge()</text>
<polygon fill="#666666" stroke="#666666" points="225.03,-719 225.03,-719 318.03,-719 318.03,-719 225.03,-719"/>
<polygon fill="#666666" stroke="#666666" points="225.03,-689 225.03,-689 240.03,-689 240.03,-689 225.03,-689"/>
<polygon fill="#666666" stroke="#666666" points="240.03,-689 240.03,-689 318.03,-689 318.03,-689 240.03,-689"/>
<polygon fill="none" stroke="#666666" points="224.53,-492 224.53,-736 317.53,-736 317.53,-492 224.53,-492"/>
</a>
</g>
</g>
<!-- Node2&#45;&gt;Node1 -->
<g id="edge1_Node000001_Node000002" class="edge">
<title>Node2&#45;&gt;Node1</title>
<g id="a_edge1_Node000001_Node000002"><a xlink:title=" ">
<path fill="none" stroke="#63b8ff" d="M288.39,-481.5C297.11,-373.95 296.82,-220.09 246.03,-97 243.46,-90.77 239.89,-84.78 235.82,-79.18"/>
<polygon fill="none" stroke="#63b8ff" points="284.88,-481.5 287.52,-491.76 291.86,-482.09 284.88,-481.5"/>
</a>
</g>
</g>
<!-- Node3 -->
<g id="Node000003" class="node">
<title>Node3</title>
<g id="a_Node000003"><a xlink:href="classShuntingElement.html" target="_top" xlink:title="Interface abstraite pour tous les éléments de shuntage ferroviaire.">
<polygon fill="white" stroke="transparent" points="179.53,-948 58.53,-948 58.53,-794 179.53,-794 179.53,-948"/>
<text text-anchor="start" x="77.53" y="-936" font-family="Helvetica,sans-Serif" font-size="10.00">ShuntingElement</text>
<text text-anchor="start" x="63.03" y="-921" font-family="Helvetica,sans-Serif" font-size="10.00">#</text>
<text text-anchor="start" x="76.03" y="-921" font-family="Helvetica,sans-Serif" font-size="10.00">m_state</text>
<text text-anchor="start" x="63.03" y="-906" font-family="Helvetica,sans-Serif" font-size="10.00">+</text>
<text text-anchor="start" x="76.03" y="-906" font-family="Helvetica,sans-Serif" font-size="10.00">ShuntingElement()</text>
<text text-anchor="start" x="63.03" y="-891" font-family="Helvetica,sans-Serif" font-size="10.00">+</text>
<text text-anchor="start" x="76.03" y="-891" font-family="Helvetica,sans-Serif" font-size="10.00">~ShuntingElement()</text>
<text text-anchor="start" x="63.03" y="-876" font-family="Helvetica,sans-Serif" font-size="10.00">+</text>
<text text-anchor="start" x="76.03" y="-876" font-family="Helvetica,sans-Serif" font-size="10.00">ShuntingElement()</text>
<text text-anchor="start" x="63.03" y="-861" font-family="Helvetica,sans-Serif" font-size="10.00">+</text>
<text text-anchor="start" x="76.03" y="-861" font-family="Helvetica,sans-Serif" font-size="10.00">operator=()</text>
<text text-anchor="start" x="63.03" y="-846" font-family="Helvetica,sans-Serif" font-size="10.00">+</text>
<text text-anchor="start" x="76.03" y="-846" font-family="Helvetica,sans-Serif" font-size="10.00">getState()</text>
<text text-anchor="start" x="63.03" y="-831" font-family="Helvetica,sans-Serif" font-size="10.00">+</text>
<text text-anchor="start" x="76.03" y="-831" font-family="Helvetica,sans-Serif" font-size="10.00">isFree()</text>
<text text-anchor="start" x="63.03" y="-816" font-family="Helvetica,sans-Serif" font-size="10.00">+</text>
<text text-anchor="start" x="76.03" y="-816" font-family="Helvetica,sans-Serif" font-size="10.00">isOccupied()</text>
<text text-anchor="start" x="63.03" y="-801" font-family="Helvetica,sans-Serif" font-size="10.00">+</text>
<text text-anchor="start" x="76.03" y="-801" font-family="Helvetica,sans-Serif" font-size="10.00">isInactive()</text>
<polygon fill="#666666" stroke="#666666" points="59.03,-931 59.03,-931 180.03,-931 180.03,-931 59.03,-931"/>
<polygon fill="#666666" stroke="#666666" points="59.03,-916 59.03,-916 74.03,-916 74.03,-916 59.03,-916"/>
<polygon fill="#666666" stroke="#666666" points="74.03,-916 74.03,-916 180.03,-916 180.03,-916 74.03,-916"/>
<polygon fill="none" stroke="#666666" points="58.53,-794 58.53,-948 179.53,-948 179.53,-794 58.53,-794"/>
</a>
</g>
</g>
<!-- Node3&#45;&gt;Node2 -->
<g id="edge2_Node000002_Node000003" class="edge">
<title>Node3&#45;&gt;Node2</title>
<g id="a_edge2_Node000002_Node000003"><a xlink:title=" ">
<path fill="none" stroke="#63b8ff" d="M178.18,-793.83C191.37,-775.37 204.78,-755.37 216.03,-736 216.83,-734.63 217.63,-733.24 218.42,-731.84"/>
<polygon fill="none" stroke="#63b8ff" points="218.65,-731.42 218.03,-724.24 224.42,-720.9 225.04,-728.08 218.65,-731.42"/>
</a>
</g>
<text text-anchor="middle" x="234.53" y="-762.5" font-family="Helvetica,sans-Serif" font-size="10.00" fill="grey"> #m_source</text>
</g>
<!-- Node7 -->
<g id="Node000007" class="node">
<title>Node7</title>
<g id="a_Node000007"><a xlink:href="classStraightBlock.html" target="_top" xlink:title=" ">
<polygon fill="white" stroke="transparent" points="196.03,-445 42.03,-445 42.03,-126 196.03,-126 196.03,-445"/>
<text text-anchor="start" x="86.03" y="-432.5" font-family="Helvetica,sans-Serif" font-size="10.00">StraightBlock</text>
<text text-anchor="start" x="48.53" y="-417.5" font-family="Helvetica,sans-Serif" font-size="10.00">&#45;</text>
<text text-anchor="start" x="59.03" y="-417.5" font-family="Helvetica,sans-Serif" font-size="10.00">m_coordinates</text>
<text text-anchor="start" x="48.53" y="-402.5" font-family="Helvetica,sans-Serif" font-size="10.00">&#45;</text>
<text text-anchor="start" x="59.03" y="-402.5" font-family="Helvetica,sans-Serif" font-size="10.00">m_neighbourIds</text>
<text text-anchor="start" x="48.53" y="-387.5" font-family="Helvetica,sans-Serif" font-size="10.00">&#45;</text>
<text text-anchor="start" x="59.03" y="-387.5" font-family="Helvetica,sans-Serif" font-size="10.00">m_lengthMeters</text>
<text text-anchor="start" x="46.03" y="-372.5" font-family="Helvetica,sans-Serif" font-size="10.00">+</text>
<text text-anchor="start" x="59.03" y="-372.5" font-family="Helvetica,sans-Serif" font-size="10.00">StraightBlock()</text>
<text text-anchor="start" x="46.03" y="-357.5" font-family="Helvetica,sans-Serif" font-size="10.00">+</text>
<text text-anchor="start" x="59.03" y="-357.5" font-family="Helvetica,sans-Serif" font-size="10.00">StraightBlock()</text>
<text text-anchor="start" x="46.03" y="-342.5" font-family="Helvetica,sans-Serif" font-size="10.00">+</text>
<text text-anchor="start" x="59.03" y="-342.5" font-family="Helvetica,sans-Serif" font-size="10.00">getId()</text>
<text text-anchor="start" x="46.03" y="-327.5" font-family="Helvetica,sans-Serif" font-size="10.00">+</text>
<text text-anchor="start" x="59.03" y="-327.5" font-family="Helvetica,sans-Serif" font-size="10.00">getType()</text>
<text text-anchor="start" x="46.03" y="-312.5" font-family="Helvetica,sans-Serif" font-size="10.00">+</text>
<text text-anchor="start" x="59.03" y="-312.5" font-family="Helvetica,sans-Serif" font-size="10.00">getState()</text>
<text text-anchor="start" x="46.03" y="-297.5" font-family="Helvetica,sans-Serif" font-size="10.00">+</text>
<text text-anchor="start" x="59.03" y="-297.5" font-family="Helvetica,sans-Serif" font-size="10.00">setState()</text>
<text text-anchor="start" x="46.03" y="-282.5" font-family="Helvetica,sans-Serif" font-size="10.00">+</text>
<text text-anchor="start" x="59.03" y="-282.5" font-family="Helvetica,sans-Serif" font-size="10.00">getCoordinates()</text>
<text text-anchor="start" x="46.03" y="-267.5" font-family="Helvetica,sans-Serif" font-size="10.00">+</text>
<text text-anchor="start" x="59.03" y="-267.5" font-family="Helvetica,sans-Serif" font-size="10.00">getNeighbourIds()</text>
<text text-anchor="start" x="46.03" y="-252.5" font-family="Helvetica,sans-Serif" font-size="10.00">+</text>
<text text-anchor="start" x="59.03" y="-252.5" font-family="Helvetica,sans-Serif" font-size="10.00">setNeighbourPointers()</text>
<text text-anchor="start" x="46.03" y="-237.5" font-family="Helvetica,sans-Serif" font-size="10.00">+</text>
<text text-anchor="start" x="59.03" y="-237.5" font-family="Helvetica,sans-Serif" font-size="10.00">getNeighbours()</text>
<text text-anchor="start" x="46.03" y="-222.5" font-family="Helvetica,sans-Serif" font-size="10.00">+</text>
<text text-anchor="start" x="59.03" y="-222.5" font-family="Helvetica,sans-Serif" font-size="10.00">getLengthMeters()</text>
<text text-anchor="start" x="46.03" y="-207.5" font-family="Helvetica,sans-Serif" font-size="10.00">+</text>
<text text-anchor="start" x="59.03" y="-207.5" font-family="Helvetica,sans-Serif" font-size="10.00">toString()</text>
<text text-anchor="start" x="46.03" y="-192.5" font-family="Helvetica,sans-Serif" font-size="10.00">+</text>
<text text-anchor="start" x="59.03" y="-192.5" font-family="Helvetica,sans-Serif" font-size="10.00">addNeighbourId()</text>
<text text-anchor="start" x="46.03" y="-177.5" font-family="Helvetica,sans-Serif" font-size="10.00">+</text>
<text text-anchor="start" x="59.03" y="-177.5" font-family="Helvetica,sans-Serif" font-size="10.00">replaceNeighbourId()</text>
<text text-anchor="start" x="46.03" y="-162.5" font-family="Helvetica,sans-Serif" font-size="10.00">+</text>
<text text-anchor="start" x="59.03" y="-162.5" font-family="Helvetica,sans-Serif" font-size="10.00">setCoordinates()</text>
<text text-anchor="start" x="48.53" y="-147.5" font-family="Helvetica,sans-Serif" font-size="10.00">&#45;</text>
<text text-anchor="start" x="59.03" y="-147.5" font-family="Helvetica,sans-Serif" font-size="10.00">computeGeodesicLength()</text>
<text text-anchor="start" x="48.53" y="-132.5" font-family="Helvetica,sans-Serif" font-size="10.00">&#45;</text>
<text text-anchor="start" x="59.03" y="-132.5" font-family="Helvetica,sans-Serif" font-size="10.00">haversineDistanceMeters()</text>
<polygon fill="#666666" stroke="#666666" points="42.03,-427.5 42.03,-427.5 196.03,-427.5 196.03,-427.5 42.03,-427.5"/>
<polygon fill="#666666" stroke="#666666" points="42.03,-382.5 42.03,-382.5 57.03,-382.5 57.03,-382.5 42.03,-382.5"/>
<polygon fill="#666666" stroke="#666666" points="57.03,-382.5 57.03,-382.5 196.03,-382.5 196.03,-382.5 57.03,-382.5"/>
<polygon fill="none" stroke="#666666" points="42.03,-126 42.03,-445 196.03,-445 196.03,-126 42.03,-126"/>
</a>
</g>
</g>
<!-- Node3&#45;&gt;Node7 -->
<g id="edge7_Node000007_Node000003" class="edge">
<title>Node3&#45;&gt;Node7</title>
<g id="a_edge7_Node000007_Node000003"><a xlink:title=" ">
<path fill="none" stroke="#63b8ff" d="M52.52,-795.13C40.01,-776.95 28.75,-756.73 22.03,-736 -11.39,-632.83 -1.69,-597.82 22.03,-492 26.72,-471.12 33.77,-449.85 41.98,-429.31"/>
<polygon fill="none" stroke="#63b8ff" points="49.71,-797.21 58.35,-803.33 55.41,-793.15 49.71,-797.21"/>
</a>
</g>
</g>
<!-- Node8 -->
<g id="Node000008" class="node">
<title>Node8</title>
<g id="a_Node000008"><a xlink:href="structStraightBlock_1_1StraightNeighbours.html" target="_top" xlink:title="Voisins topologiques d&#39;un StraightBlock.">
<polygon fill="white" stroke="transparent" points="207.03,-638.5 31.03,-638.5 31.03,-589.5 207.03,-589.5 207.03,-638.5"/>
<text text-anchor="start" x="36.03" y="-626" font-family="Helvetica,sans-Serif" font-size="10.00">StraightBlock::StraightNeighbours</text>
<text text-anchor="start" x="117.03" y="-611" font-family="Helvetica,sans-Serif" font-size="10.00"> </text>
<text text-anchor="start" x="117.03" y="-596" font-family="Helvetica,sans-Serif" font-size="10.00"> </text>
<polygon fill="#666666" stroke="#666666" points="31.03,-621 31.03,-621 207.03,-621 207.03,-621 31.03,-621"/>
<polygon fill="#666666" stroke="#666666" points="31.03,-606 31.03,-606 207.03,-606 207.03,-606 31.03,-606"/>
<polygon fill="none" stroke="#666666" points="31.03,-589.5 31.03,-638.5 207.03,-638.5 207.03,-589.5 31.03,-589.5"/>
</a>
</g>
</g>
<!-- Node3&#45;&gt;Node8 -->
<g id="edge9_Node000008_Node000003" class="edge">
<title>Node3&#45;&gt;Node8</title>
<g id="a_edge9_Node000008_Node000003"><a xlink:title=" ">
<path fill="none" stroke="#63b8ff" d="M119.03,-793.84C119.03,-746.45 119.03,-687.69 119.03,-650.76"/>
<polygon fill="none" stroke="#63b8ff" points="119.03,-650.67 115.03,-644.67 119.03,-638.67 123.03,-644.67 119.03,-650.67"/>
</a>
</g>
<text text-anchor="middle" x="136.03" y="-768" font-family="Helvetica,sans-Serif" font-size="10.00" fill="grey"> +next</text>
<text text-anchor="middle" x="136.03" y="-757" font-family="Helvetica,sans-Serif" font-size="10.00" fill="grey">+prev</text>
</g>
<!-- Node4 -->
<g id="Node000004" class="node">
<title>Node4</title>
<g id="a_Node000004"><a xlink:href="classInteractiveElement.html" target="_top" xlink:title="Classe de base abstraite pour tous les éléments interactifs ferroviaires.">
<polygon fill="white" stroke="transparent" points="184.03,-1139 54.03,-1139 54.03,-985 184.03,-985 184.03,-1139"/>
<text text-anchor="start" x="72.03" y="-1127" font-family="Helvetica,sans-Serif" font-size="10.00">InteractiveElement</text>
<text text-anchor="start" x="58.03" y="-1112" font-family="Helvetica,sans-Serif" font-size="10.00">#</text>
<text text-anchor="start" x="71.03" y="-1112" font-family="Helvetica,sans-Serif" font-size="10.00">m_id</text>
<text text-anchor="start" x="58.03" y="-1097" font-family="Helvetica,sans-Serif" font-size="10.00">+</text>
<text text-anchor="start" x="71.03" y="-1097" font-family="Helvetica,sans-Serif" font-size="10.00">InteractiveElement()</text>
<text text-anchor="start" x="58.03" y="-1082" font-family="Helvetica,sans-Serif" font-size="10.00">+</text>
<text text-anchor="start" x="71.03" y="-1082" font-family="Helvetica,sans-Serif" font-size="10.00">~InteractiveElement()</text>
<text text-anchor="start" x="58.03" y="-1067" font-family="Helvetica,sans-Serif" font-size="10.00">+</text>
<text text-anchor="start" x="71.03" y="-1067" font-family="Helvetica,sans-Serif" font-size="10.00">InteractiveElement()</text>
<text text-anchor="start" x="58.03" y="-1052" font-family="Helvetica,sans-Serif" font-size="10.00">+</text>
<text text-anchor="start" x="71.03" y="-1052" font-family="Helvetica,sans-Serif" font-size="10.00">operator=()</text>
<text text-anchor="start" x="58.03" y="-1037" font-family="Helvetica,sans-Serif" font-size="10.00">+</text>
<text text-anchor="start" x="71.03" y="-1037" font-family="Helvetica,sans-Serif" font-size="10.00">InteractiveElement()</text>
<text text-anchor="start" x="58.03" y="-1022" font-family="Helvetica,sans-Serif" font-size="10.00">+</text>
<text text-anchor="start" x="71.03" y="-1022" font-family="Helvetica,sans-Serif" font-size="10.00">operator=()</text>
<text text-anchor="start" x="58.03" y="-1007" font-family="Helvetica,sans-Serif" font-size="10.00">+</text>
<text text-anchor="start" x="71.03" y="-1007" font-family="Helvetica,sans-Serif" font-size="10.00">getId()</text>
<text text-anchor="start" x="58.03" y="-992" font-family="Helvetica,sans-Serif" font-size="10.00">+</text>
<text text-anchor="start" x="71.03" y="-992" font-family="Helvetica,sans-Serif" font-size="10.00">getType()</text>
<polygon fill="#666666" stroke="#666666" points="54.03,-1122 54.03,-1122 184.03,-1122 184.03,-1122 54.03,-1122"/>
<polygon fill="#666666" stroke="#666666" points="54.03,-1107 54.03,-1107 69.03,-1107 69.03,-1107 54.03,-1107"/>
<polygon fill="#666666" stroke="#666666" points="69.03,-1107 69.03,-1107 184.03,-1107 184.03,-1107 69.03,-1107"/>
<polygon fill="none" stroke="#666666" points="54.03,-985 54.03,-1139 184.03,-1139 184.03,-985 54.03,-985"/>
</a>
</g>
</g>
<!-- Node4&#45;&gt;Node3 -->
<g id="edge3_Node000003_Node000004" class="edge">
<title>Node4&#45;&gt;Node3</title>
<g id="a_edge3_Node000003_Node000004"><a xlink:title=" ">
<path fill="none" stroke="#63b8ff" d="M119.03,-974.94C119.03,-966.02 119.03,-957.01 119.03,-948.21"/>
<polygon fill="none" stroke="#63b8ff" points="115.53,-974.94 119.03,-984.94 122.53,-974.94 115.53,-974.94"/>
</a>
</g>
</g>
<!-- Node5 -->
<g id="Node000005" class="node">
<title>Node5</title>
<g id="a_Node000005"><a xlink:href="classLogger.html" target="_top" xlink:title="Journaliseur associé à un moteur nommé.">
<polygon fill="white" stroke="transparent" points="187.03,-1475 51.03,-1475 51.03,-1186 187.03,-1186 187.03,-1475"/>
<text text-anchor="start" x="102.03" y="-1462.5" font-family="Helvetica,sans-Serif" font-size="10.00">Logger</text>
<text text-anchor="start" x="57.53" y="-1447.5" font-family="Helvetica,sans-Serif" font-size="10.00">&#45;</text>
<text text-anchor="start" x="68.03" y="-1447.5" font-family="Helvetica,sans-Serif" font-size="10.00">m_motorName</text>
<text text-anchor="start" x="57.53" y="-1432.5" font-family="Helvetica,sans-Serif" font-size="10.00">&#45;</text>
<text text-anchor="start" x="68.03" y="-1432.5" font-family="Helvetica,sans-Serif" font-size="10.00">m_outputFile</text>
<text text-anchor="start" x="57.53" y="-1417.5" font-family="Helvetica,sans-Serif" font-size="10.00">&#45;</text>
<text text-anchor="start" x="68.03" y="-1417.5" font-family="Helvetica,sans-Serif" font-size="10.00">m_writeMutex</text>
<text text-anchor="start" x="57.53" y="-1402.5" font-family="Helvetica,sans-Serif" font-size="10.00">&#45;</text>
<text text-anchor="start" x="68.03" y="-1402.5" font-family="Helvetica,sans-Serif" font-size="10.00">m_minimumLevel</text>
<text text-anchor="start" x="55.03" y="-1387.5" font-family="Helvetica,sans-Serif" font-size="10.00">+</text>
<text text-anchor="start" x="68.03" y="-1387.5" font-family="Helvetica,sans-Serif" font-size="10.00">Logger()</text>
<text text-anchor="start" x="55.03" y="-1372.5" font-family="Helvetica,sans-Serif" font-size="10.00">+</text>
<text text-anchor="start" x="68.03" y="-1372.5" font-family="Helvetica,sans-Serif" font-size="10.00">~Logger()</text>
<text text-anchor="start" x="55.03" y="-1357.5" font-family="Helvetica,sans-Serif" font-size="10.00">+</text>
<text text-anchor="start" x="68.03" y="-1357.5" font-family="Helvetica,sans-Serif" font-size="10.00">Logger()</text>
<text text-anchor="start" x="55.03" y="-1342.5" font-family="Helvetica,sans-Serif" font-size="10.00">+</text>
<text text-anchor="start" x="68.03" y="-1342.5" font-family="Helvetica,sans-Serif" font-size="10.00">operator=()</text>
<text text-anchor="start" x="55.03" y="-1327.5" font-family="Helvetica,sans-Serif" font-size="10.00">+</text>
<text text-anchor="start" x="68.03" y="-1327.5" font-family="Helvetica,sans-Serif" font-size="10.00">writeLog()</text>
<text text-anchor="start" x="55.03" y="-1312.5" font-family="Helvetica,sans-Serif" font-size="10.00">+</text>
<text text-anchor="start" x="68.03" y="-1312.5" font-family="Helvetica,sans-Serif" font-size="10.00">setMinimumLogLevel()</text>
<text text-anchor="start" x="55.03" y="-1297.5" font-family="Helvetica,sans-Serif" font-size="10.00">+</text>
<text text-anchor="start" x="68.03" y="-1297.5" font-family="Helvetica,sans-Serif" font-size="10.00">getMotorName()</text>
<text text-anchor="start" x="55.03" y="-1282.5" font-family="Helvetica,sans-Serif" font-size="10.00">+</text>
<text text-anchor="start" x="68.03" y="-1282.5" font-family="Helvetica,sans-Serif" font-size="10.00">triggerFatalCrash()</text>
<text text-anchor="start" x="57.53" y="-1267.5" font-family="Helvetica,sans-Serif" font-size="10.00">&#45;</text>
<text text-anchor="start" x="68.03" y="-1267.5" font-family="Helvetica,sans-Serif" font-size="10.00">extractClassName()</text>
<text text-anchor="start" x="57.53" y="-1252.5" font-family="Helvetica,sans-Serif" font-size="10.00">&#45;</text>
<text text-anchor="start" x="68.03" y="-1252.5" font-family="Helvetica,sans-Serif" font-size="10.00">extractFunctionName()</text>
<text text-anchor="start" x="57.53" y="-1237.5" font-family="Helvetica,sans-Serif" font-size="10.00">&#45;</text>
<text text-anchor="start" x="68.03" y="-1237.5" font-family="Helvetica,sans-Serif" font-size="10.00">formatLogLine()</text>
<text text-anchor="start" x="57.53" y="-1222.5" font-family="Helvetica,sans-Serif" font-size="10.00">&#45;</text>
<text text-anchor="start" x="68.03" y="-1222.5" font-family="Helvetica,sans-Serif" font-size="10.00">levelToString()</text>
<text text-anchor="start" x="57.53" y="-1207.5" font-family="Helvetica,sans-Serif" font-size="10.00">&#45;</text>
<text text-anchor="start" x="68.03" y="-1207.5" font-family="Helvetica,sans-Serif" font-size="10.00">getCurrentTimestamp()</text>
<text text-anchor="start" x="57.53" y="-1192.5" font-family="Helvetica,sans-Serif" font-size="10.00">&#45;</text>
<text text-anchor="start" x="68.03" y="-1192.5" font-family="Helvetica,sans-Serif" font-size="10.00">sendToDebugOutput()</text>
<polygon fill="#666666" stroke="#666666" points="51.03,-1457.5 51.03,-1457.5 187.03,-1457.5 187.03,-1457.5 51.03,-1457.5"/>
<polygon fill="#666666" stroke="#666666" points="51.03,-1397.5 51.03,-1397.5 66.03,-1397.5 66.03,-1397.5 51.03,-1397.5"/>
<polygon fill="#666666" stroke="#666666" points="66.03,-1397.5 66.03,-1397.5 187.03,-1397.5 187.03,-1397.5 66.03,-1397.5"/>
<polygon fill="none" stroke="#666666" points="51.03,-1186 51.03,-1475 187.03,-1475 187.03,-1186 51.03,-1186"/>
</a>
</g>
</g>
<!-- Node5&#45;&gt;Node4 -->
<g id="edge4_Node000004_Node000005" class="edge">
<title>Node5&#45;&gt;Node4</title>
<g id="a_edge4_Node000004_Node000005"><a xlink:title=" ">
<path fill="none" stroke="#63b8ff" d="M119.03,-1185.72C119.03,-1174.11 119.03,-1162.61 119.03,-1151.57"/>
<polygon fill="none" stroke="#63b8ff" points="119.03,-1151.32 115.03,-1145.32 119.03,-1139.32 123.03,-1145.32 119.03,-1151.32"/>
</a>
</g>
<text text-anchor="middle" x="148.03" y="-1160" font-family="Helvetica,sans-Serif" font-size="10.00" fill="grey"> #m_logger</text>
</g>
<!-- Node6 -->
<g id="Node000006" class="node">
<title>Node6</title>
<g id="a_Node000006"><a xlink:href="structPCCPosition.html" target="_top" xlink:title="Position logique d&#39;un nœud dans le schéma PCC.">
<polygon fill="white" stroke="transparent" points="305.53,-903 236.53,-903 236.53,-839 305.53,-839 305.53,-903"/>
<text text-anchor="start" x="242.03" y="-891" font-family="Helvetica,sans-Serif" font-size="10.00">PCCPosition</text>
<text text-anchor="start" x="251.03" y="-876" font-family="Helvetica,sans-Serif" font-size="10.00">+</text>
<text text-anchor="start" x="274.03" y="-876" font-family="Helvetica,sans-Serif" font-size="10.00">x</text>
<text text-anchor="start" x="251.03" y="-861" font-family="Helvetica,sans-Serif" font-size="10.00">+</text>
<text text-anchor="start" x="274.03" y="-861" font-family="Helvetica,sans-Serif" font-size="10.00">y</text>
<text text-anchor="start" x="269.53" y="-846" font-family="Helvetica,sans-Serif" font-size="10.00"> </text>
<polygon fill="#666666" stroke="#666666" points="237.03,-886 237.03,-886 306.03,-886 306.03,-886 237.03,-886"/>
<polygon fill="#666666" stroke="#666666" points="237.03,-856 237.03,-856 272.03,-856 272.03,-856 237.03,-856"/>
<polygon fill="#666666" stroke="#666666" points="272.03,-856 272.03,-856 306.03,-856 306.03,-856 272.03,-856"/>
<polygon fill="none" stroke="#666666" points="236.53,-839 236.53,-903 305.53,-903 305.53,-839 236.53,-839"/>
</a>
</g>
</g>
<!-- Node6&#45;&gt;Node2 -->
<g id="edge5_Node000002_Node000006" class="edge">
<title>Node6&#45;&gt;Node2</title>
<g id="a_edge5_Node000002_Node000006"><a xlink:title=" ">
<path fill="none" stroke="#63b8ff" d="M271.03,-838.99C271.03,-815.77 271.03,-782.29 271.03,-748.25"/>
<polygon fill="none" stroke="#63b8ff" points="271.03,-748.21 267.03,-742.21 271.03,-736.21 275.03,-742.21 271.03,-748.21"/>
</a>
</g>
<text text-anchor="middle" x="304.03" y="-762.5" font-family="Helvetica,sans-Serif" font-size="10.00" fill="grey"> #m_position</text>
</g>
<!-- Node7&#45;&gt;Node1 -->
<g id="edge6_Node000001_Node000007" class="edge">
<title>Node7&#45;&gt;Node1</title>
<g id="a_edge6_Node000001_Node000007"><a xlink:title=" ">
<path fill="none" stroke="#63b8ff" d="M142.35,-125.9C145.48,-115.97 149.02,-106.26 153.03,-97 154.1,-94.54 155.29,-92.09 156.58,-89.66"/>
<polygon fill="none" stroke="#63b8ff" points="156.65,-89.54 156.26,-82.34 162.76,-79.21 163.15,-86.41 156.65,-89.54"/>
</a>
</g>
<text text-anchor="middle" x="199.53" y="-100" font-family="Helvetica,sans-Serif" font-size="10.00" fill="grey"> &#45;m_straightSource</text>
</g>
<!-- Node8&#45;&gt;Node7 -->
<g id="edge8_Node000007_Node000008" class="edge">
<title>Node8&#45;&gt;Node7</title>
<g id="a_edge8_Node000007_Node000008"><a xlink:title=" ">
<path fill="none" stroke="#63b8ff" d="M119.03,-589.26C119.03,-560.53 119.03,-509.51 119.03,-457.45"/>
<polygon fill="none" stroke="#63b8ff" points="119.03,-457.28 115.03,-451.28 119.03,-445.28 123.03,-451.28 119.03,-457.28"/>
</a>
</g>
<text text-anchor="middle" x="157.03" y="-466" font-family="Helvetica,sans-Serif" font-size="10.00" fill="grey"> &#45;m_neighbours</text>
</g>
</g>
</svg>
