<?xml version="1.0" encoding="UTF-8" standalone="no"?>
<!DOCTYPE svg PUBLIC "-//W3C//DTD SVG 1.1//EN"
 "http://www.w3.org/Graphics/SVG/1.1/DTD/svg11.dtd">
<!-- Generated by graphviz version 2.43.0 (0)
 -->
<!-- Title: DoubleSwitchDetector::detectAndAbsorb Pages: 1 -->
<svg width="316pt" height="86pt"
 viewBox="0.00 0.00 316.00 86.00" xmlns="http://www.w3.org/2000/svg" xmlns:xlink="http://www.w3.org/1999/xlink">
<g id="graph0" class="graph" transform="scale(1 1) rotate(0) translate(4 82)">
<title>DoubleSwitchDetector::detectAndAbsorb</title>
<!-- Node1 -->
<g id="Node000001" class="node">
<title>Node1</title>
<g id="a_Node000001"><a xlink:title=" ">
<polygon fill="#999999" stroke="#666666" points="125,-54 0,-54 0,-24 125,-24 125,-54"/>
<text text-anchor="start" x="8" y="-42" font-family="Helvetica,sans-Serif" font-size="10.00">DoubleSwitchDetector</text>
<text text-anchor="middle" x="62.5" y="-31" font-family="Helvetica,sans-Serif" font-size="10.00">::detectAndAbsorb</text>
</a>
</g>
</g>
<!-- Node2 -->
<g id="Node000002" class="node">
<title>Node2</title>
<g id="a_Node000002"><a xlink:href="classDoubleSwitchDetector.html#a3be8598fec31308ef13ff0ccd942d319" target="_top" xlink:title=" ">
<polygon fill="white" stroke="#666666" points="297,-78 172,-78 172,-48 297,-48 297,-78"/>
<text text-anchor="start" x="180" y="-66" font-family="Helvetica,sans-Serif" font-size="10.00">DoubleSwitchDetector</text>
<text text-anchor="middle" x="234.5" y="-55" font-family="Helvetica,sans-Serif" font-size="10.00">::absorbLinkSegment</text>
</a>
</g>
</g>
<!-- Node1&#45;&gt;Node2 -->
<g id="edge1_Node000001_Node000002" class="edge">
<title>Node1&#45;&gt;Node2</title>
<g id="a_edge1_Node000001_Node000002"><a xlink:title=" ">
<path fill="none" stroke="#63b8ff" d="M125.35,-47.73C137.22,-49.41 149.74,-51.18 161.88,-52.89"/>
<polygon fill="#63b8ff" stroke="#63b8ff" points="161.58,-56.38 171.98,-54.31 162.56,-49.45 161.58,-56.38"/>
</a>
</g>
</g>
<!-- Node3 -->
<g id="Node000003" class="node">
<title>Node3</title>
<g id="a_Node000003"><a xlink:href="classDoubleSwitchDetector.html#a910540ff55f2d3523deab88d77fa185a" target="_top" xlink:title=" ">
<polygon fill="white" stroke="#666666" points="308,-30 161,-30 161,0 308,0 308,-30"/>
<text text-anchor="start" x="169" y="-18" font-family="Helvetica,sans-Serif" font-size="10.00">DoubleSwitchDetector</text>
<text text-anchor="middle" x="234.5" y="-7" font-family="Helvetica,sans-Serif" font-size="10.00">::findDoubleSwitchClusters</text>
</a>
</g>
</g>
<!-- Node1&#45;&gt;Node3 -->
<g id="edge2_Node000001_Node000003" class="edge">
<title>Node1&#45;&gt;Node3</title>
<g id="a_edge2_Node000001_Node000003"><a xlink:title=" ">
<path fill="none" stroke="#63b8ff" d="M125.35,-30.27C133.61,-29.1 142.18,-27.89 150.72,-26.69"/>
<polygon fill="#63b8ff" stroke="#63b8ff" points="151.31,-30.14 160.72,-25.28 150.33,-23.21 151.31,-30.14"/>
</a>
</g>
</g>
</g>
</svg>
