<?xml version="1.0" encoding="UTF-8" standalone="no"?>
<!DOCTYPE svg PUBLIC "-//W3C//DTD SVG 1.1//EN"
 "http://www.w3.org/Graphics/SVG/1.1/DTD/svg11.dtd">
<!-- Generated by graphviz version 2.43.0 (0)
 -->
<!-- Title: GeoJsonExporter::loadGeoJsonToWebView Pages: 1 -->
<svg width="553pt" height="409pt"
 viewBox="0.00 0.00 553.00 408.50" xmlns="http://www.w3.org/2000/svg" xmlns:xlink="http://www.w3.org/1999/xlink">
<g id="graph0" class="graph" transform="scale(1 1) rotate(0) translate(4 404.5)">
<title>GeoJsonExporter::loadGeoJsonToWebView</title>
<!-- Node1 -->
<g id="Node000001" class="node">
<title>Node1</title>
<g id="a_Node000001"><a xlink:title="Génère le script JavaScript d&#39;injection GeoJSON dans le WebView.">
<polygon fill="#999999" stroke="#666666" points="144,-144 0,-144 0,-114 144,-114 144,-144"/>
<text text-anchor="start" x="8" y="-132" font-family="Helvetica,sans-Serif" font-size="10.00">GeoJsonExporter::loadGeo</text>
<text text-anchor="middle" x="72" y="-121" font-family="Helvetica,sans-Serif" font-size="10.00">JsonToWebView</text>
</a>
</g>
</g>
<!-- Node2 -->
<g id="Node000002" class="node">
<title>Node2</title>
<g id="a_Node000002"><a xlink:href="classGeoJsonExporter.html#ae40aed3745c83a9e089cade7067ec11a" target="_top" xlink:title="Convertit un StraightBlock en feature GeoJSON de type LineString.">
<polygon fill="white" stroke="#666666" points="326.5,-347 186.5,-347 186.5,-317 326.5,-317 326.5,-347"/>
<text text-anchor="start" x="194.5" y="-335" font-family="Helvetica,sans-Serif" font-size="10.00">GeoJsonExporter::convert</text>
<text text-anchor="middle" x="256.5" y="-324" font-family="Helvetica,sans-Serif" font-size="10.00">StraightToFeature</text>
</a>
</g>
</g>
<!-- Node1&#45;&gt;Node2 -->
<g id="edge1_Node000001_Node000002" class="edge">
<title>Node1&#45;&gt;Node2</title>
<g id="a_edge1_Node000001_Node000002"><a xlink:title=" ">
<path fill="none" stroke="#63b8ff" d="M86.72,-144.26C118.57,-179.69 197.67,-267.67 235.17,-309.38"/>
<polygon fill="#63b8ff" stroke="#63b8ff" points="232.58,-311.75 241.87,-316.84 237.79,-307.07 232.58,-311.75"/>
</a>
</g>
</g>
<!-- Node6 -->
<g id="Node000006" class="node">
<title>Node6</title>
<g id="a_Node000006"><a xlink:href="classGeoJsonExporter.html#a4edb715ecc8bee30c4eb00e7dcb98e93" target="_top" xlink:title="Convertit un SwitchBlock en feature GeoJSON de type Point.">
<polygon fill="white" stroke="#666666" points="326.5,-192 186.5,-192 186.5,-162 326.5,-162 326.5,-192"/>
<text text-anchor="start" x="194.5" y="-180" font-family="Helvetica,sans-Serif" font-size="10.00">GeoJsonExporter::convert</text>
<text text-anchor="middle" x="256.5" y="-169" font-family="Helvetica,sans-Serif" font-size="10.00">SwitchToFeature</text>
</a>
</g>
</g>
<!-- Node1&#45;&gt;Node6 -->
<g id="edge5_Node000001_Node000006" class="edge">
<title>Node1&#45;&gt;Node6</title>
<g id="a_edge5_Node000001_Node000006"><a xlink:title=" ">
<path fill="none" stroke="#63b8ff" d="M130.24,-144.06C148.76,-148.93 169.45,-154.37 188.61,-159.41"/>
<polygon fill="#63b8ff" stroke="#63b8ff" points="187.9,-162.84 198.46,-162 189.68,-156.07 187.9,-162.84"/>
</a>
</g>
</g>
<!-- Node13 -->
<g id="Node000013" class="node">
<title>Node13</title>
<g id="a_Node000013"><a xlink:href="classTopologyRepository.html#a0179f504f5d22ea5b16926511a9cb027" target="_top" xlink:title="Retourne une référence mutable aux données topologiques.">
<polygon fill="white" stroke="#666666" points="313,-144 200,-144 200,-114 313,-114 313,-144"/>
<text text-anchor="start" x="208" y="-132" font-family="Helvetica,sans-Serif" font-size="10.00">TopologyRepository</text>
<text text-anchor="middle" x="256.5" y="-121" font-family="Helvetica,sans-Serif" font-size="10.00">::data</text>
</a>
</g>
</g>
<!-- Node1&#45;&gt;Node13 -->
<g id="edge12_Node000001_Node000013" class="edge">
<title>Node1&#45;&gt;Node13</title>
<g id="a_edge12_Node000001_Node000013"><a xlink:title=" ">
<path fill="none" stroke="#63b8ff" d="M144.08,-129C159.13,-129 174.94,-129 189.77,-129"/>
<polygon fill="#63b8ff" stroke="#63b8ff" points="189.87,-132.5 199.87,-129 189.87,-125.5 189.87,-132.5"/>
</a>
</g>
</g>
<!-- Node14 -->
<g id="Node000014" class="node">
<title>Node14</title>
<g id="a_Node000014"><a xlink:href="classGeoJsonExporter.html#a01038435d85225bf7f417711680ffdbe" target="_top" xlink:title="Échappe une chaîne JSON pour l&#39;injection dans JavaScript.">
<polygon fill="white" stroke="#666666" points="333,-96 180,-96 180,-66 333,-66 333,-96"/>
<text text-anchor="start" x="188" y="-84" font-family="Helvetica,sans-Serif" font-size="10.00">GeoJsonExporter::escapeFor</text>
<text text-anchor="middle" x="256.5" y="-73" font-family="Helvetica,sans-Serif" font-size="10.00">JavaScript</text>
</a>
</g>
</g>
<!-- Node1&#45;&gt;Node14 -->
<g id="edge13_Node000001_Node000014" class="edge">
<title>Node1&#45;&gt;Node14</title>
<g id="a_edge13_Node000001_Node000014"><a xlink:title=" ">
<path fill="none" stroke="#63b8ff" d="M130.24,-113.94C148.76,-109.07 169.45,-103.63 188.61,-98.59"/>
<polygon fill="#63b8ff" stroke="#63b8ff" points="189.68,-101.93 198.46,-96 187.9,-95.16 189.68,-101.93"/>
</a>
</g>
</g>
<!-- Node15 -->
<g id="Node000015" class="node">
<title>Node15</title>
<g id="a_Node000015"><a xlink:href="classTopologyRepository.html#adb001f817a74b4b81e05d0d22517f509" target="_top" xlink:title="Retourne l&#39;instance unique du repository (création paresseuse).">
<polygon fill="white" stroke="#666666" points="313,-30 200,-30 200,0 313,0 313,-30"/>
<text text-anchor="start" x="208" y="-18" font-family="Helvetica,sans-Serif" font-size="10.00">TopologyRepository</text>
<text text-anchor="middle" x="256.5" y="-7" font-family="Helvetica,sans-Serif" font-size="10.00">::instance</text>
</a>
</g>
</g>
<!-- Node1&#45;&gt;Node15 -->
<g id="edge14_Node000001_Node000015" class="edge">
<title>Node1&#45;&gt;Node15</title>
<g id="a_edge14_Node000001_Node000015"><a xlink:title=" ">
<path fill="none" stroke="#63b8ff" d="M94.37,-113.84C115.72,-98.88 149.65,-75.61 180,-57 192.23,-49.5 205.86,-41.75 218.13,-34.97"/>
<polygon fill="#63b8ff" stroke="#63b8ff" points="220.12,-37.87 227.21,-30 216.76,-31.73 220.12,-37.87"/>
</a>
</g>
</g>
<!-- Node3 -->
<g id="Node000003" class="node">
<title>Node3</title>
<g id="a_Node000003"><a xlink:href="classStraightBlock.html#a646d3135d365dcb832ff66b1304c6850" target="_top" xlink:title=" ">
<polygon fill="white" stroke="#666666" points="538,-400.5 376,-400.5 376,-381.5 538,-381.5 538,-400.5"/>
<text text-anchor="middle" x="457" y="-388.5" font-family="Helvetica,sans-Serif" font-size="10.00">StraightBlock::getCoordinates</text>
</a>
</g>
</g>
<!-- Node2&#45;&gt;Node3 -->
<g id="edge2_Node000002_Node000003" class="edge">
<title>Node2&#45;&gt;Node3</title>
<g id="a_edge2_Node000002_Node000003"><a xlink:title=" ">
<path fill="none" stroke="#63b8ff" d="M294.21,-347.06C315.74,-355.5 343.62,-365.75 369,-373 376.99,-375.28 385.48,-377.4 393.9,-379.33"/>
<polygon fill="#63b8ff" stroke="#63b8ff" points="393.19,-382.76 403.71,-381.49 394.7,-375.92 393.19,-382.76"/>
</a>
</g>
</g>
<!-- Node4 -->
<g id="Node000004" class="node">
<title>Node4</title>
<g id="a_Node000004"><a xlink:href="classStraightBlock.html#a295060fddd0675834ce4755ae4787780" target="_top" xlink:title="Retourne l&#39;identifiant unique de l&#39;élément (ex. &quot;sw/3&quot;, &quot;s/12&quot;).">
<polygon fill="white" stroke="#666666" points="513.5,-363.5 400.5,-363.5 400.5,-344.5 513.5,-344.5 513.5,-363.5"/>
<text text-anchor="middle" x="457" y="-351.5" font-family="Helvetica,sans-Serif" font-size="10.00">StraightBlock::getId</text>
</a>
</g>
</g>
<!-- Node2&#45;&gt;Node4 -->
<g id="edge3_Node000002_Node000004" class="edge">
<title>Node2&#45;&gt;Node4</title>
<g id="a_edge3_Node000002_Node000004"><a xlink:title=" ">
<path fill="none" stroke="#63b8ff" d="M326.65,-339.66C347.23,-341.94 369.71,-344.44 390.08,-346.69"/>
<polygon fill="#63b8ff" stroke="#63b8ff" points="389.88,-350.19 400.2,-347.82 390.65,-343.24 389.88,-350.19"/>
</a>
</g>
</g>
<!-- Node5 -->
<g id="Node000005" class="node">
<title>Node5</title>
<g id="a_Node000005"><a xlink:href="classStraightBlock.html#aebdce1e1b66d6b39376ae1a66c2d2d9e" target="_top" xlink:title=" ">
<polygon fill="white" stroke="#666666" points="525.5,-326 388.5,-326 388.5,-296 525.5,-296 525.5,-326"/>
<text text-anchor="start" x="396.5" y="-314" font-family="Helvetica,sans-Serif" font-size="10.00">StraightBlock::getLength</text>
<text text-anchor="middle" x="457" y="-303" font-family="Helvetica,sans-Serif" font-size="10.00">Meters</text>
</a>
</g>
</g>
<!-- Node2&#45;&gt;Node5 -->
<g id="edge4_Node000002_Node000005" class="edge">
<title>Node2&#45;&gt;Node5</title>
<g id="a_edge4_Node000002_Node000005"><a xlink:title=" ">
<path fill="none" stroke="#63b8ff" d="M326.65,-324.68C343.39,-322.91 361.39,-321.01 378.49,-319.2"/>
<polygon fill="#63b8ff" stroke="#63b8ff" points="378.86,-322.68 388.44,-318.15 378.13,-315.72 378.86,-322.68"/>
</a>
</g>
</g>
<!-- Node7 -->
<g id="Node000007" class="node">
<title>Node7</title>
<g id="a_Node000007"><a xlink:href="classSwitchBlock.html#a6ed34ef4ccea6e43e2c0d456f5eb29c0" target="_top" xlink:title=" ">
<polygon fill="white" stroke="#666666" points="529.5,-278 384.5,-278 384.5,-248 529.5,-248 529.5,-278"/>
<text text-anchor="start" x="392.5" y="-266" font-family="Helvetica,sans-Serif" font-size="10.00">SwitchBlock::getDeviation</text>
<text text-anchor="middle" x="457" y="-255" font-family="Helvetica,sans-Serif" font-size="10.00">BranchId</text>
</a>
</g>
</g>
<!-- Node6&#45;&gt;Node7 -->
<g id="edge6_Node000006_Node000007" class="edge">
<title>Node6&#45;&gt;Node7</title>
<g id="a_edge6_Node000006_Node000007"><a xlink:title=" ">
<path fill="none" stroke="#63b8ff" d="M280.61,-192C302.61,-205.76 337.02,-225.92 369,-239 373.98,-241.04 379.2,-242.96 384.49,-244.77"/>
<polygon fill="#63b8ff" stroke="#63b8ff" points="383.48,-248.12 394.07,-247.88 385.64,-241.46 383.48,-248.12"/>
</a>
</g>
</g>
<!-- Node8 -->
<g id="Node000008" class="node">
<title>Node8</title>
<g id="a_Node000008"><a xlink:href="classSwitchBlock.html#a4389341dc43ddfc247c34a160f1bbc7a" target="_top" xlink:title=" ">
<polygon fill="white" stroke="#666666" points="510.5,-229.5 403.5,-229.5 403.5,-210.5 510.5,-210.5 510.5,-229.5"/>
<text text-anchor="middle" x="457" y="-217.5" font-family="Helvetica,sans-Serif" font-size="10.00">SwitchBlock::getId</text>
</a>
</g>
</g>
<!-- Node6&#45;&gt;Node8 -->
<g id="edge7_Node000006_Node000008" class="edge">
<title>Node6&#45;&gt;Node8</title>
<g id="a_edge7_Node000006_Node000008"><a xlink:title=" ">
<path fill="none" stroke="#63b8ff" d="M326.65,-191.98C351.31,-197.32 378.7,-203.26 401.91,-208.28"/>
<polygon fill="#63b8ff" stroke="#63b8ff" points="401.4,-211.75 411.92,-210.45 402.89,-204.91 401.4,-211.75"/>
</a>
</g>
</g>
<!-- Node9 -->
<g id="Node000009" class="node">
<title>Node9</title>
<g id="a_Node000009"><a xlink:href="classSwitchBlock.html#a17420e8225a0637a6d38b73bee7d2526" target="_top" xlink:title=" ">
<polygon fill="white" stroke="#666666" points="525.5,-192 388.5,-192 388.5,-162 525.5,-162 525.5,-192"/>
<text text-anchor="start" x="396.5" y="-180" font-family="Helvetica,sans-Serif" font-size="10.00">SwitchBlock::getJunction</text>
<text text-anchor="middle" x="457" y="-169" font-family="Helvetica,sans-Serif" font-size="10.00">Coordinate</text>
</a>
</g>
</g>
<!-- Node6&#45;&gt;Node9 -->
<g id="edge8_Node000006_Node000009" class="edge">
<title>Node6&#45;&gt;Node9</title>
<g id="a_edge8_Node000006_Node000009"><a xlink:title=" ">
<path fill="none" stroke="#63b8ff" d="M326.65,-177C343.23,-177 361.06,-177 378.01,-177"/>
<polygon fill="#63b8ff" stroke="#63b8ff" points="378.44,-180.5 388.44,-177 378.44,-173.5 378.44,-180.5"/>
</a>
</g>
</g>
<!-- Node10 -->
<g id="Node000010" class="node">
<title>Node10</title>
<g id="a_Node000010"><a xlink:href="classSwitchBlock.html#a6838d033ec39e85a94c98a9559fcc532" target="_top" xlink:title=" ">
<polygon fill="white" stroke="#666666" points="545,-143.5 369,-143.5 369,-124.5 545,-124.5 545,-143.5"/>
<text text-anchor="middle" x="457" y="-131.5" font-family="Helvetica,sans-Serif" font-size="10.00">SwitchBlock::getNormalBranchId</text>
</a>
</g>
</g>
<!-- Node6&#45;&gt;Node10 -->
<g id="edge9_Node000006_Node000010" class="edge">
<title>Node6&#45;&gt;Node10</title>
<g id="a_edge9_Node000006_Node000010"><a xlink:title=" ">
<path fill="none" stroke="#63b8ff" d="M326.65,-162.02C351.31,-156.68 378.7,-150.74 401.91,-145.72"/>
<polygon fill="#63b8ff" stroke="#63b8ff" points="402.89,-149.09 411.92,-143.55 401.4,-142.25 402.89,-149.09"/>
</a>
</g>
</g>
<!-- Node11 -->
<g id="Node000011" class="node">
<title>Node11</title>
<g id="a_Node000011"><a xlink:href="classSwitchBlock.html#a55d04c13a5fba252ba2b840f6835a2a4" target="_top" xlink:title=" ">
<polygon fill="white" stroke="#666666" points="538.5,-106.5 375.5,-106.5 375.5,-87.5 538.5,-87.5 538.5,-106.5"/>
<text text-anchor="middle" x="457" y="-94.5" font-family="Helvetica,sans-Serif" font-size="10.00">SwitchBlock::getRootBranchId</text>
</a>
</g>
</g>
<!-- Node6&#45;&gt;Node11 -->
<g id="edge10_Node000006_Node000011" class="edge">
<title>Node6&#45;&gt;Node11</title>
<g id="a_edge10_Node000006_Node000011"><a xlink:title=" ">
<path fill="none" stroke="#63b8ff" d="M315.3,-161.92C321.48,-159.36 327.5,-156.4 333,-153 352.52,-140.94 348.94,-127.14 369,-116 373.17,-113.68 377.6,-111.65 382.17,-109.86"/>
<polygon fill="#63b8ff" stroke="#63b8ff" points="383.41,-113.13 391.7,-106.53 381.1,-106.53 383.41,-113.13"/>
</a>
</g>
</g>
<!-- Node12 -->
<g id="Node000012" class="node">
<title>Node12</title>
<g id="a_Node000012"><a xlink:href="classSwitchBlock.html#a13b991ec872f7ace3af3e00db8b12e3e" target="_top" xlink:title=" ">
<polygon fill="white" stroke="#666666" points="519.5,-69.5 394.5,-69.5 394.5,-50.5 519.5,-50.5 519.5,-69.5"/>
<text text-anchor="middle" x="457" y="-57.5" font-family="Helvetica,sans-Serif" font-size="10.00">SwitchBlock::isDouble</text>
</a>
</g>
</g>
<!-- Node6&#45;&gt;Node12 -->
<g id="edge11_Node000006_Node000012" class="edge">
<title>Node6&#45;&gt;Node12</title>
<g id="a_edge11_Node000006_Node000012"><a xlink:title=" ">
<path fill="none" stroke="#63b8ff" d="M319.92,-161.89C324.62,-159.37 329.06,-156.43 333,-153 360.91,-128.74 339.87,-100.78 369,-78 373.75,-74.29 379.07,-71.29 384.69,-68.87"/>
<polygon fill="#63b8ff" stroke="#63b8ff" points="386.18,-72.06 394.37,-65.33 383.77,-65.48 386.18,-72.06"/>
</a>
</g>
</g>
<!-- Node15&#45;&gt;Node15 -->
<g id="edge15_Node000015_Node000015" class="edge">
<title>Node15&#45;&gt;Node15</title>
<g id="a_edge15_Node000015_Node000015"><a xlink:title=" ">
<path fill="none" stroke="#63b8ff" d="M224.16,-30.28C216.97,-39.41 227.75,-48 256.5,-48 273.57,-48 284.31,-44.97 288.71,-40.6"/>
<polygon fill="#63b8ff" stroke="#63b8ff" points="292.21,-40.32 288.84,-30.28 285.21,-40.23 292.21,-40.32"/>
</a>
</g>
</g>
</g>
</svg>
