<?xml version="1.0" encoding="UTF-8" standalone="no"?>
<!DOCTYPE svg PUBLIC "-//W3C//DTD SVG 1.1//EN"
 "http://www.w3.org/Graphics/SVG/1.1/DTD/svg11.dtd">
<!-- Generated by graphviz version 2.43.0 (0)
 -->
<!-- Title: PCCNode Pages: 1 -->
<svg width="258pt" height="532pt"
 viewBox="0.00 0.00 258.00 532.00" xmlns="http://www.w3.org/2000/svg" xmlns:xlink="http://www.w3.org/1999/xlink">
<g id="graph0" class="graph" transform="scale(1 1) rotate(0) translate(4 528)">
<title>PCCNode</title>
<!-- Node1 -->
<g id="Node000001" class="node">
<title>Node1</title>
<g id="a_Node000001"><a xlink:title="Nœud abstrait du graphe PCC.">
<polygon fill="#999999" stroke="transparent" points="171.5,-524 78.5,-524 78.5,-250 171.5,-250 171.5,-524"/>
<text text-anchor="start" x="102.5" y="-512" font-family="Helvetica,sans-Serif" font-size="10.00">PCCNode</text>
<text text-anchor="start" x="83" y="-497" font-family="Helvetica,sans-Serif" font-size="10.00">#</text>
<text text-anchor="start" x="96" y="-497" font-family="Helvetica,sans-Serif" font-size="10.00">m_sourceId</text>
<text text-anchor="start" x="83" y="-482" font-family="Helvetica,sans-Serif" font-size="10.00">#</text>
<text text-anchor="start" x="96" y="-482" font-family="Helvetica,sans-Serif" font-size="10.00">m_source</text>
<text text-anchor="start" x="83" y="-467" font-family="Helvetica,sans-Serif" font-size="10.00">#</text>
<text text-anchor="start" x="96" y="-467" font-family="Helvetica,sans-Serif" font-size="10.00">m_position</text>
<text text-anchor="start" x="83" y="-452" font-family="Helvetica,sans-Serif" font-size="10.00">#</text>
<text text-anchor="start" x="96" y="-452" font-family="Helvetica,sans-Serif" font-size="10.00">m_edges</text>
<text text-anchor="start" x="83" y="-437" font-family="Helvetica,sans-Serif" font-size="10.00">+</text>
<text text-anchor="start" x="96" y="-437" font-family="Helvetica,sans-Serif" font-size="10.00">PCCNode()</text>
<text text-anchor="start" x="83" y="-422" font-family="Helvetica,sans-Serif" font-size="10.00">+</text>
<text text-anchor="start" x="96" y="-422" font-family="Helvetica,sans-Serif" font-size="10.00">PCCNode()</text>
<text text-anchor="start" x="83" y="-407" font-family="Helvetica,sans-Serif" font-size="10.00">+</text>
<text text-anchor="start" x="96" y="-407" font-family="Helvetica,sans-Serif" font-size="10.00">operator=()</text>
<text text-anchor="start" x="83" y="-392" font-family="Helvetica,sans-Serif" font-size="10.00">+</text>
<text text-anchor="start" x="96" y="-392" font-family="Helvetica,sans-Serif" font-size="10.00">PCCNode()</text>
<text text-anchor="start" x="83" y="-377" font-family="Helvetica,sans-Serif" font-size="10.00">+</text>
<text text-anchor="start" x="96" y="-377" font-family="Helvetica,sans-Serif" font-size="10.00">operator=()</text>
<text text-anchor="start" x="83" y="-362" font-family="Helvetica,sans-Serif" font-size="10.00">+</text>
<text text-anchor="start" x="96" y="-362" font-family="Helvetica,sans-Serif" font-size="10.00">~PCCNode()</text>
<text text-anchor="start" x="83" y="-347" font-family="Helvetica,sans-Serif" font-size="10.00">+</text>
<text text-anchor="start" x="96" y="-347" font-family="Helvetica,sans-Serif" font-size="10.00">getNodeType()</text>
<text text-anchor="start" x="83" y="-332" font-family="Helvetica,sans-Serif" font-size="10.00">+</text>
<text text-anchor="start" x="96" y="-332" font-family="Helvetica,sans-Serif" font-size="10.00">getSourceId()</text>
<text text-anchor="start" x="83" y="-317" font-family="Helvetica,sans-Serif" font-size="10.00">+</text>
<text text-anchor="start" x="96" y="-317" font-family="Helvetica,sans-Serif" font-size="10.00">getSource()</text>
<text text-anchor="start" x="83" y="-302" font-family="Helvetica,sans-Serif" font-size="10.00">+</text>
<text text-anchor="start" x="96" y="-302" font-family="Helvetica,sans-Serif" font-size="10.00">getPosition()</text>
<text text-anchor="start" x="83" y="-287" font-family="Helvetica,sans-Serif" font-size="10.00">+</text>
<text text-anchor="start" x="96" y="-287" font-family="Helvetica,sans-Serif" font-size="10.00">getEdges()</text>
<text text-anchor="start" x="83" y="-272" font-family="Helvetica,sans-Serif" font-size="10.00">+</text>
<text text-anchor="start" x="96" y="-272" font-family="Helvetica,sans-Serif" font-size="10.00">setPosition()</text>
<text text-anchor="start" x="83" y="-257" font-family="Helvetica,sans-Serif" font-size="10.00">+</text>
<text text-anchor="start" x="96" y="-257" font-family="Helvetica,sans-Serif" font-size="10.00">addEdge()</text>
<polygon fill="#666666" stroke="#666666" points="79,-507 79,-507 172,-507 172,-507 79,-507"/>
<polygon fill="#666666" stroke="#666666" points="79,-447 79,-447 94,-447 94,-447 79,-447"/>
<polygon fill="#666666" stroke="#666666" points="94,-447 94,-447 172,-447 172,-447 94,-447"/>
<polygon fill="none" stroke="#666666" points="78.5,-250 78.5,-524 171.5,-524 171.5,-250 78.5,-250"/>
</a>
</g>
</g>
<!-- Node2 -->
<g id="Node000002" class="node">
<title>Node2</title>
<g id="a_Node000002"><a xlink:href="classPCCStraightNode.html" target="_top" xlink:title="Nœud PCC issu d&#39;un StraightBlock.">
<polygon fill="white" stroke="transparent" points="116,-146.5 0,-146.5 0,-67.5 116,-67.5 116,-146.5"/>
<text text-anchor="start" x="16" y="-134" font-family="Helvetica,sans-Serif" font-size="10.00">PCCStraightNode</text>
<text text-anchor="start" x="6.5" y="-119" font-family="Helvetica,sans-Serif" font-size="10.00">&#45;</text>
<text text-anchor="start" x="17" y="-119" font-family="Helvetica,sans-Serif" font-size="10.00">m_straightSource</text>
<text text-anchor="start" x="4" y="-104" font-family="Helvetica,sans-Serif" font-size="10.00">+</text>
<text text-anchor="start" x="17" y="-104" font-family="Helvetica,sans-Serif" font-size="10.00">PCCStraightNode()</text>
<text text-anchor="start" x="4" y="-89" font-family="Helvetica,sans-Serif" font-size="10.00">+</text>
<text text-anchor="start" x="17" y="-89" font-family="Helvetica,sans-Serif" font-size="10.00">getNodeType()</text>
<text text-anchor="start" x="4" y="-74" font-family="Helvetica,sans-Serif" font-size="10.00">+</text>
<text text-anchor="start" x="17" y="-74" font-family="Helvetica,sans-Serif" font-size="10.00">getStraightSource()</text>
<polygon fill="#666666" stroke="#666666" points="0,-129 0,-129 116,-129 116,-129 0,-129"/>
<polygon fill="#666666" stroke="#666666" points="0,-114 0,-114 15,-114 15,-114 0,-114"/>
<polygon fill="#666666" stroke="#666666" points="15,-114 15,-114 116,-114 116,-114 15,-114"/>
<polygon fill="none" stroke="#666666" points="0,-67.5 0,-146.5 116,-146.5 116,-67.5 0,-67.5"/>
</a>
</g>
</g>
<!-- Node1&#45;&gt;Node2 -->
<g id="edge1_Node000001_Node000002" class="edge">
<title>Node1&#45;&gt;Node2</title>
<g id="a_edge1_Node000001_Node000002"><a xlink:title=" ">
<path fill="none" stroke="#63b8ff" d="M89.84,-240.1C81.51,-205.55 73.32,-171.57 67.33,-146.72"/>
<polygon fill="none" stroke="#63b8ff" points="86.44,-240.95 92.19,-249.85 93.25,-239.31 86.44,-240.95"/>
</a>
</g>
</g>
<!-- Node3 -->
<g id="Node000003" class="node">
<title>Node3</title>
<g id="a_Node000003"><a xlink:href="classPCCSwitchNode.html" target="_top" xlink:title="Nœud PCC issu d&#39;un SwitchBlock.">
<polygon fill="white" stroke="transparent" points="250,-214 134,-214 134,0 250,0 250,-214"/>
<text text-anchor="start" x="153" y="-202" font-family="Helvetica,sans-Serif" font-size="10.00">PCCSwitchNode</text>
<text text-anchor="start" x="140.5" y="-187" font-family="Helvetica,sans-Serif" font-size="10.00">&#45;</text>
<text text-anchor="start" x="151" y="-187" font-family="Helvetica,sans-Serif" font-size="10.00">m_switchSource</text>
<text text-anchor="start" x="140.5" y="-172" font-family="Helvetica,sans-Serif" font-size="10.00">&#45;</text>
<text text-anchor="start" x="151" y="-172" font-family="Helvetica,sans-Serif" font-size="10.00">m_rootEdge</text>
<text text-anchor="start" x="140.5" y="-157" font-family="Helvetica,sans-Serif" font-size="10.00">&#45;</text>
<text text-anchor="start" x="151" y="-157" font-family="Helvetica,sans-Serif" font-size="10.00">m_normalEdge</text>
<text text-anchor="start" x="140.5" y="-142" font-family="Helvetica,sans-Serif" font-size="10.00">&#45;</text>
<text text-anchor="start" x="151" y="-142" font-family="Helvetica,sans-Serif" font-size="10.00">m_deviationEdge</text>
<text text-anchor="start" x="138" y="-127" font-family="Helvetica,sans-Serif" font-size="10.00">+</text>
<text text-anchor="start" x="151" y="-127" font-family="Helvetica,sans-Serif" font-size="10.00">PCCSwitchNode()</text>
<text text-anchor="start" x="138" y="-112" font-family="Helvetica,sans-Serif" font-size="10.00">+</text>
<text text-anchor="start" x="151" y="-112" font-family="Helvetica,sans-Serif" font-size="10.00">getNodeType()</text>
<text text-anchor="start" x="138" y="-97" font-family="Helvetica,sans-Serif" font-size="10.00">+</text>
<text text-anchor="start" x="151" y="-97" font-family="Helvetica,sans-Serif" font-size="10.00">getSwitchSource()</text>
<text text-anchor="start" x="138" y="-82" font-family="Helvetica,sans-Serif" font-size="10.00">+</text>
<text text-anchor="start" x="151" y="-82" font-family="Helvetica,sans-Serif" font-size="10.00">getRootEdge()</text>
<text text-anchor="start" x="138" y="-67" font-family="Helvetica,sans-Serif" font-size="10.00">+</text>
<text text-anchor="start" x="151" y="-67" font-family="Helvetica,sans-Serif" font-size="10.00">getNormalEdge()</text>
<text text-anchor="start" x="138" y="-52" font-family="Helvetica,sans-Serif" font-size="10.00">+</text>
<text text-anchor="start" x="151" y="-52" font-family="Helvetica,sans-Serif" font-size="10.00">getDeviationEdge()</text>
<text text-anchor="start" x="138" y="-37" font-family="Helvetica,sans-Serif" font-size="10.00">+</text>
<text text-anchor="start" x="151" y="-37" font-family="Helvetica,sans-Serif" font-size="10.00">setRootEdge()</text>
<text text-anchor="start" x="138" y="-22" font-family="Helvetica,sans-Serif" font-size="10.00">+</text>
<text text-anchor="start" x="151" y="-22" font-family="Helvetica,sans-Serif" font-size="10.00">setNormalEdge()</text>
<text text-anchor="start" x="138" y="-7" font-family="Helvetica,sans-Serif" font-size="10.00">+</text>
<text text-anchor="start" x="151" y="-7" font-family="Helvetica,sans-Serif" font-size="10.00">setDeviationEdge()</text>
<polygon fill="#666666" stroke="#666666" points="134,-197 134,-197 250,-197 250,-197 134,-197"/>
<polygon fill="#666666" stroke="#666666" points="134,-137 134,-137 149,-137 149,-137 134,-137"/>
<polygon fill="#666666" stroke="#666666" points="149,-137 149,-137 250,-137 250,-137 149,-137"/>
<polygon fill="none" stroke="#666666" points="134,0 134,-214 250,-214 250,0 134,0"/>
</a>
</g>
</g>
<!-- Node1&#45;&gt;Node3 -->
<g id="edge2_Node000001_Node000003" class="edge">
<title>Node1&#45;&gt;Node3</title>
<g id="a_edge2_Node000001_Node000003"><a xlink:title=" ">
<path fill="none" stroke="#63b8ff" d="M160.18,-240.03C162.27,-231.35 164.36,-222.69 166.4,-214.21"/>
<polygon fill="none" stroke="#63b8ff" points="156.75,-239.31 157.81,-249.85 163.56,-240.95 156.75,-239.31"/>
</a>
</g>
</g>
</g>
</svg>
