<?xml version="1.0" encoding="UTF-8" standalone="no"?>
<!DOCTYPE svg PUBLIC "-//W3C//DTD SVG 1.1//EN"
 "http://www.w3.org/Graphics/SVG/1.1/DTD/svg11.dtd">
<!-- Generated by graphviz version 2.43.0 (0)
 -->
<!-- Title: MainWindow Pages: 1 -->
<svg width="371pt" height="1089pt"
 viewBox="0.00 0.00 370.50 1089.00" xmlns="http://www.w3.org/2000/svg" xmlns:xlink="http://www.w3.org/1999/xlink">
<g id="graph0" class="graph" transform="scale(1 1) rotate(0) translate(4 1085)">
<title>MainWindow</title>
<!-- Node1 -->
<g id="Node000001" class="node">
<title>Node1</title>
<g id="a_Node000001"><a xlink:title="Fenêtre principale de l&#39;application SimulateurFerroviaire.">
<polygon fill="#999999" stroke="transparent" points="207,-319 73,-319 73,0 207,0 207,-319"/>
<text text-anchor="start" x="108" y="-306.5" font-family="Helvetica,sans-Serif" font-size="10.00">MainWindow</text>
<text text-anchor="start" x="79.5" y="-291.5" font-family="Helvetica,sans-Serif" font-size="10.00">&#45;</text>
<text text-anchor="start" x="90" y="-291.5" font-family="Helvetica,sans-Serif" font-size="10.00">m_hWnd</text>
<text text-anchor="start" x="79.5" y="-276.5" font-family="Helvetica,sans-Serif" font-size="10.00">&#45;</text>
<text text-anchor="start" x="90" y="-276.5" font-family="Helvetica,sans-Serif" font-size="10.00">m_hInstance</text>
<text text-anchor="start" x="79.5" y="-261.5" font-family="Helvetica,sans-Serif" font-size="10.00">&#45;</text>
<text text-anchor="start" x="90" y="-261.5" font-family="Helvetica,sans-Serif" font-size="10.00">m_className</text>
<text text-anchor="start" x="79.5" y="-246.5" font-family="Helvetica,sans-Serif" font-size="10.00">&#45;</text>
<text text-anchor="start" x="90" y="-246.5" font-family="Helvetica,sans-Serif" font-size="10.00">m_title</text>
<text text-anchor="start" x="79.5" y="-231.5" font-family="Helvetica,sans-Serif" font-size="10.00">&#45;</text>
<text text-anchor="start" x="90" y="-231.5" font-family="Helvetica,sans-Serif" font-size="10.00">m_nCmdShow</text>
<text text-anchor="start" x="77" y="-216.5" font-family="Helvetica,sans-Serif" font-size="10.00">+</text>
<text text-anchor="start" x="90" y="-216.5" font-family="Helvetica,sans-Serif" font-size="10.00">MainWindow()</text>
<text text-anchor="start" x="77" y="-201.5" font-family="Helvetica,sans-Serif" font-size="10.00">+</text>
<text text-anchor="start" x="90" y="-201.5" font-family="Helvetica,sans-Serif" font-size="10.00">create()</text>
<text text-anchor="start" x="77" y="-186.5" font-family="Helvetica,sans-Serif" font-size="10.00">+</text>
<text text-anchor="start" x="90" y="-186.5" font-family="Helvetica,sans-Serif" font-size="10.00">windowProc()</text>
<text text-anchor="start" x="79.5" y="-171.5" font-family="Helvetica,sans-Serif" font-size="10.00">&#45;</text>
<text text-anchor="start" x="90" y="-171.5" font-family="Helvetica,sans-Serif" font-size="10.00">handleMessage()</text>
<text text-anchor="start" x="79.5" y="-156.5" font-family="Helvetica,sans-Serif" font-size="10.00">&#45;</text>
<text text-anchor="start" x="90" y="-156.5" font-family="Helvetica,sans-Serif" font-size="10.00">onCommand()</text>
<text text-anchor="start" x="79.5" y="-141.5" font-family="Helvetica,sans-Serif" font-size="10.00">&#45;</text>
<text text-anchor="start" x="90" y="-141.5" font-family="Helvetica,sans-Serif" font-size="10.00">onProgressUpdate()</text>
<text text-anchor="start" x="79.5" y="-126.5" font-family="Helvetica,sans-Serif" font-size="10.00">&#45;</text>
<text text-anchor="start" x="90" y="-126.5" font-family="Helvetica,sans-Serif" font-size="10.00">onParsingSuccess()</text>
<text text-anchor="start" x="79.5" y="-111.5" font-family="Helvetica,sans-Serif" font-size="10.00">&#45;</text>
<text text-anchor="start" x="90" y="-111.5" font-family="Helvetica,sans-Serif" font-size="10.00">onParsingError()</text>
<text text-anchor="start" x="79.5" y="-96.5" font-family="Helvetica,sans-Serif" font-size="10.00">&#45;</text>
<text text-anchor="start" x="90" y="-96.5" font-family="Helvetica,sans-Serif" font-size="10.00">onFileOpen()</text>
<text text-anchor="start" x="79.5" y="-81.5" font-family="Helvetica,sans-Serif" font-size="10.00">&#45;</text>
<text text-anchor="start" x="90" y="-81.5" font-family="Helvetica,sans-Serif" font-size="10.00">onFileExport()</text>
<text text-anchor="start" x="79.5" y="-66.5" font-family="Helvetica,sans-Serif" font-size="10.00">&#45;</text>
<text text-anchor="start" x="90" y="-66.5" font-family="Helvetica,sans-Serif" font-size="10.00">onSizeUpdate()</text>
<text text-anchor="start" x="79.5" y="-51.5" font-family="Helvetica,sans-Serif" font-size="10.00">&#45;</text>
<text text-anchor="start" x="90" y="-51.5" font-family="Helvetica,sans-Serif" font-size="10.00">onDestroy()</text>
<text text-anchor="start" x="79.5" y="-36.5" font-family="Helvetica,sans-Serif" font-size="10.00">&#45;</text>
<text text-anchor="start" x="90" y="-36.5" font-family="Helvetica,sans-Serif" font-size="10.00">onWebMessage()</text>
<text text-anchor="start" x="79.5" y="-21.5" font-family="Helvetica,sans-Serif" font-size="10.00">&#45;</text>
<text text-anchor="start" x="90" y="-21.5" font-family="Helvetica,sans-Serif" font-size="10.00">onSwitchClick()</text>
<text text-anchor="start" x="79.5" y="-6.5" font-family="Helvetica,sans-Serif" font-size="10.00">&#45;</text>
<text text-anchor="start" x="90" y="-6.5" font-family="Helvetica,sans-Serif" font-size="10.00">buildApplyStateScript()</text>
<polygon fill="#666666" stroke="#666666" points="73,-301.5 73,-301.5 207,-301.5 207,-301.5 73,-301.5"/>
<polygon fill="#666666" stroke="#666666" points="73,-226.5 73,-226.5 88,-226.5 88,-226.5 73,-226.5"/>
<polygon fill="#666666" stroke="#666666" points="88,-226.5 88,-226.5 207,-226.5 207,-226.5 88,-226.5"/>
<polygon fill="none" stroke="#666666" points="73,0 73,-319 207,-319 207,0 73,0"/>
</a>
</g>
</g>
<!-- Node2 -->
<g id="Node000002" class="node">
<title>Node2</title>
<g id="a_Node000002"><a xlink:href="classProgressBar.html" target="_top" xlink:title=" ">
<polygon fill="white" stroke="transparent" points="88,-602.5 0,-602.5 0,-508.5 88,-508.5 88,-602.5"/>
<text text-anchor="start" x="14.5" y="-590.5" font-family="Helvetica,sans-Serif" font-size="10.00">ProgressBar</text>
<text text-anchor="start" x="6.5" y="-575.5" font-family="Helvetica,sans-Serif" font-size="10.00">&#45;</text>
<text text-anchor="start" x="17" y="-575.5" font-family="Helvetica,sans-Serif" font-size="10.00">m_hwnd</text>
<text text-anchor="start" x="4" y="-560.5" font-family="Helvetica,sans-Serif" font-size="10.00">+</text>
<text text-anchor="start" x="17" y="-560.5" font-family="Helvetica,sans-Serif" font-size="10.00">ProgressBar()</text>
<text text-anchor="start" x="4" y="-545.5" font-family="Helvetica,sans-Serif" font-size="10.00">+</text>
<text text-anchor="start" x="17" y="-545.5" font-family="Helvetica,sans-Serif" font-size="10.00">create()</text>
<text text-anchor="start" x="4" y="-530.5" font-family="Helvetica,sans-Serif" font-size="10.00">+</text>
<text text-anchor="start" x="17" y="-530.5" font-family="Helvetica,sans-Serif" font-size="10.00">setProgress()</text>
<text text-anchor="start" x="4" y="-515.5" font-family="Helvetica,sans-Serif" font-size="10.00">+</text>
<text text-anchor="start" x="17" y="-515.5" font-family="Helvetica,sans-Serif" font-size="10.00">show()</text>
<polygon fill="#666666" stroke="#666666" points="0,-585.5 0,-585.5 88,-585.5 88,-585.5 0,-585.5"/>
<polygon fill="#666666" stroke="#666666" points="0,-570.5 0,-570.5 15,-570.5 15,-570.5 0,-570.5"/>
<polygon fill="#666666" stroke="#666666" points="15,-570.5 15,-570.5 88,-570.5 88,-570.5 15,-570.5"/>
<polygon fill="none" stroke="#666666" points="0,-508.5 0,-602.5 88,-602.5 88,-508.5 0,-508.5"/>
</a>
</g>
</g>
<!-- Node2&#45;&gt;Node1 -->
<g id="edge1_Node000001_Node000002" class="edge">
<title>Node2&#45;&gt;Node1</title>
<g id="a_edge1_Node000001_Node000002"><a xlink:title=" ">
<path fill="none" stroke="#63b8ff" d="M37.82,-508.28C33.33,-463.68 30.33,-394.64 45,-337 50.21,-316.51 58.3,-295.81 67.61,-276.15"/>
<polygon fill="none" stroke="#63b8ff" points="67.62,-276.12 66.66,-268.97 72.89,-265.34 73.85,-272.48 67.62,-276.12"/>
</a>
</g>
<text text-anchor="middle" x="85.5" y="-340" font-family="Helvetica,sans-Serif" font-size="10.00" fill="grey"> &#45;m_progressBar</text>
</g>
<!-- Node3 -->
<g id="Node000003" class="node">
<title>Node3</title>
<g id="a_Node000003"><a xlink:href="classLogger.html" target="_top" xlink:title="Journaliseur associé à un moteur nommé.">
<polygon fill="white" stroke="transparent" points="224,-1081 88,-1081 88,-792 224,-792 224,-1081"/>
<text text-anchor="start" x="139" y="-1068.5" font-family="Helvetica,sans-Serif" font-size="10.00">Logger</text>
<text text-anchor="start" x="94.5" y="-1053.5" font-family="Helvetica,sans-Serif" font-size="10.00">&#45;</text>
<text text-anchor="start" x="105" y="-1053.5" font-family="Helvetica,sans-Serif" font-size="10.00">m_motorName</text>
<text text-anchor="start" x="94.5" y="-1038.5" font-family="Helvetica,sans-Serif" font-size="10.00">&#45;</text>
<text text-anchor="start" x="105" y="-1038.5" font-family="Helvetica,sans-Serif" font-size="10.00">m_outputFile</text>
<text text-anchor="start" x="94.5" y="-1023.5" font-family="Helvetica,sans-Serif" font-size="10.00">&#45;</text>
<text text-anchor="start" x="105" y="-1023.5" font-family="Helvetica,sans-Serif" font-size="10.00">m_writeMutex</text>
<text text-anchor="start" x="94.5" y="-1008.5" font-family="Helvetica,sans-Serif" font-size="10.00">&#45;</text>
<text text-anchor="start" x="105" y="-1008.5" font-family="Helvetica,sans-Serif" font-size="10.00">m_minimumLevel</text>
<text text-anchor="start" x="92" y="-993.5" font-family="Helvetica,sans-Serif" font-size="10.00">+</text>
<text text-anchor="start" x="105" y="-993.5" font-family="Helvetica,sans-Serif" font-size="10.00">Logger()</text>
<text text-anchor="start" x="92" y="-978.5" font-family="Helvetica,sans-Serif" font-size="10.00">+</text>
<text text-anchor="start" x="105" y="-978.5" font-family="Helvetica,sans-Serif" font-size="10.00">~Logger()</text>
<text text-anchor="start" x="92" y="-963.5" font-family="Helvetica,sans-Serif" font-size="10.00">+</text>
<text text-anchor="start" x="105" y="-963.5" font-family="Helvetica,sans-Serif" font-size="10.00">Logger()</text>
<text text-anchor="start" x="92" y="-948.5" font-family="Helvetica,sans-Serif" font-size="10.00">+</text>
<text text-anchor="start" x="105" y="-948.5" font-family="Helvetica,sans-Serif" font-size="10.00">operator=()</text>
<text text-anchor="start" x="92" y="-933.5" font-family="Helvetica,sans-Serif" font-size="10.00">+</text>
<text text-anchor="start" x="105" y="-933.5" font-family="Helvetica,sans-Serif" font-size="10.00">writeLog()</text>
<text text-anchor="start" x="92" y="-918.5" font-family="Helvetica,sans-Serif" font-size="10.00">+</text>
<text text-anchor="start" x="105" y="-918.5" font-family="Helvetica,sans-Serif" font-size="10.00">setMinimumLogLevel()</text>
<text text-anchor="start" x="92" y="-903.5" font-family="Helvetica,sans-Serif" font-size="10.00">+</text>
<text text-anchor="start" x="105" y="-903.5" font-family="Helvetica,sans-Serif" font-size="10.00">getMotorName()</text>
<text text-anchor="start" x="92" y="-888.5" font-family="Helvetica,sans-Serif" font-size="10.00">+</text>
<text text-anchor="start" x="105" y="-888.5" font-family="Helvetica,sans-Serif" font-size="10.00">triggerFatalCrash()</text>
<text text-anchor="start" x="94.5" y="-873.5" font-family="Helvetica,sans-Serif" font-size="10.00">&#45;</text>
<text text-anchor="start" x="105" y="-873.5" font-family="Helvetica,sans-Serif" font-size="10.00">extractClassName()</text>
<text text-anchor="start" x="94.5" y="-858.5" font-family="Helvetica,sans-Serif" font-size="10.00">&#45;</text>
<text text-anchor="start" x="105" y="-858.5" font-family="Helvetica,sans-Serif" font-size="10.00">extractFunctionName()</text>
<text text-anchor="start" x="94.5" y="-843.5" font-family="Helvetica,sans-Serif" font-size="10.00">&#45;</text>
<text text-anchor="start" x="105" y="-843.5" font-family="Helvetica,sans-Serif" font-size="10.00">formatLogLine()</text>
<text text-anchor="start" x="94.5" y="-828.5" font-family="Helvetica,sans-Serif" font-size="10.00">&#45;</text>
<text text-anchor="start" x="105" y="-828.5" font-family="Helvetica,sans-Serif" font-size="10.00">levelToString()</text>
<text text-anchor="start" x="94.5" y="-813.5" font-family="Helvetica,sans-Serif" font-size="10.00">&#45;</text>
<text text-anchor="start" x="105" y="-813.5" font-family="Helvetica,sans-Serif" font-size="10.00">getCurrentTimestamp()</text>
<text text-anchor="start" x="94.5" y="-798.5" font-family="Helvetica,sans-Serif" font-size="10.00">&#45;</text>
<text text-anchor="start" x="105" y="-798.5" font-family="Helvetica,sans-Serif" font-size="10.00">sendToDebugOutput()</text>
<polygon fill="#666666" stroke="#666666" points="88,-1063.5 88,-1063.5 224,-1063.5 224,-1063.5 88,-1063.5"/>
<polygon fill="#666666" stroke="#666666" points="88,-1003.5 88,-1003.5 103,-1003.5 103,-1003.5 88,-1003.5"/>
<polygon fill="#666666" stroke="#666666" points="103,-1003.5 103,-1003.5 224,-1003.5 224,-1003.5 103,-1003.5"/>
<polygon fill="none" stroke="#666666" points="88,-792 88,-1081 224,-1081 224,-792 88,-792"/>
</a>
</g>
</g>
<!-- Node3&#45;&gt;Node1 -->
<g id="edge2_Node000001_Node000003" class="edge">
<title>Node3&#45;&gt;Node1</title>
<g id="a_edge2_Node000001_Node000003"><a xlink:title=" ">
<path fill="none" stroke="#63b8ff" d="M150.4,-791.96C149.88,-776.12 149.4,-760.22 149,-745 145.37,-605.86 143.05,-448.05 141.67,-331.5"/>
<polygon fill="none" stroke="#63b8ff" points="141.67,-331.29 137.6,-325.34 141.53,-319.29 145.6,-325.24 141.67,-331.29"/>
</a>
</g>
<text text-anchor="middle" x="175.5" y="-553" font-family="Helvetica,sans-Serif" font-size="10.00" fill="grey"> &#45;m_logger</text>
</g>
<!-- Node4 -->
<g id="Node000004" class="node">
<title>Node4</title>
<g id="a_Node000004"><a xlink:href="classWebViewPanel.html" target="_top" xlink:title="Wrapper Win32 autour de WebView2 pour affichage HTML embarqué.">
<polygon fill="white" stroke="transparent" points="362.5,-745 211.5,-745 211.5,-366 362.5,-366 362.5,-745"/>
<text text-anchor="start" x="251.5" y="-732.5" font-family="Helvetica,sans-Serif" font-size="10.00">WebViewPanel</text>
<text text-anchor="start" x="218.5" y="-717.5" font-family="Helvetica,sans-Serif" font-size="10.00">&#45;</text>
<text text-anchor="start" x="229" y="-717.5" font-family="Helvetica,sans-Serif" font-size="10.00">m_parentHwnd</text>
<text text-anchor="start" x="218.5" y="-702.5" font-family="Helvetica,sans-Serif" font-size="10.00">&#45;</text>
<text text-anchor="start" x="229" y="-702.5" font-family="Helvetica,sans-Serif" font-size="10.00">m_controller</text>
<text text-anchor="start" x="218.5" y="-687.5" font-family="Helvetica,sans-Serif" font-size="10.00">&#45;</text>
<text text-anchor="start" x="229" y="-687.5" font-family="Helvetica,sans-Serif" font-size="10.00">m_webview</text>
<text text-anchor="start" x="218.5" y="-672.5" font-family="Helvetica,sans-Serif" font-size="10.00">&#45;</text>
<text text-anchor="start" x="229" y="-672.5" font-family="Helvetica,sans-Serif" font-size="10.00">m_isInitialized</text>
<text text-anchor="start" x="218.5" y="-657.5" font-family="Helvetica,sans-Serif" font-size="10.00">&#45;</text>
<text text-anchor="start" x="229" y="-657.5" font-family="Helvetica,sans-Serif" font-size="10.00">m_onInitialized</text>
<text text-anchor="start" x="218.5" y="-642.5" font-family="Helvetica,sans-Serif" font-size="10.00">&#45;</text>
<text text-anchor="start" x="229" y="-642.5" font-family="Helvetica,sans-Serif" font-size="10.00">m_onMessageReceived</text>
<text text-anchor="start" x="216" y="-627.5" font-family="Helvetica,sans-Serif" font-size="10.00">+</text>
<text text-anchor="start" x="229" y="-627.5" font-family="Helvetica,sans-Serif" font-size="10.00">WebViewPanel()</text>
<text text-anchor="start" x="216" y="-612.5" font-family="Helvetica,sans-Serif" font-size="10.00">+</text>
<text text-anchor="start" x="229" y="-612.5" font-family="Helvetica,sans-Serif" font-size="10.00">~WebViewPanel()</text>
<text text-anchor="start" x="216" y="-597.5" font-family="Helvetica,sans-Serif" font-size="10.00">+</text>
<text text-anchor="start" x="229" y="-597.5" font-family="Helvetica,sans-Serif" font-size="10.00">WebViewPanel()</text>
<text text-anchor="start" x="216" y="-582.5" font-family="Helvetica,sans-Serif" font-size="10.00">+</text>
<text text-anchor="start" x="229" y="-582.5" font-family="Helvetica,sans-Serif" font-size="10.00">operator=()</text>
<text text-anchor="start" x="216" y="-567.5" font-family="Helvetica,sans-Serif" font-size="10.00">+</text>
<text text-anchor="start" x="229" y="-567.5" font-family="Helvetica,sans-Serif" font-size="10.00">create()</text>
<text text-anchor="start" x="216" y="-552.5" font-family="Helvetica,sans-Serif" font-size="10.00">+</text>
<text text-anchor="start" x="229" y="-552.5" font-family="Helvetica,sans-Serif" font-size="10.00">resize()</text>
<text text-anchor="start" x="216" y="-537.5" font-family="Helvetica,sans-Serif" font-size="10.00">+</text>
<text text-anchor="start" x="229" y="-537.5" font-family="Helvetica,sans-Serif" font-size="10.00">navigate()</text>
<text text-anchor="start" x="216" y="-522.5" font-family="Helvetica,sans-Serif" font-size="10.00">+</text>
<text text-anchor="start" x="229" y="-522.5" font-family="Helvetica,sans-Serif" font-size="10.00">navigateToString()</text>
<text text-anchor="start" x="216" y="-507.5" font-family="Helvetica,sans-Serif" font-size="10.00">+</text>
<text text-anchor="start" x="229" y="-507.5" font-family="Helvetica,sans-Serif" font-size="10.00">isInitialized()</text>
<text text-anchor="start" x="216" y="-492.5" font-family="Helvetica,sans-Serif" font-size="10.00">+</text>
<text text-anchor="start" x="229" y="-492.5" font-family="Helvetica,sans-Serif" font-size="10.00">executeScript()</text>
<text text-anchor="start" x="216" y="-477.5" font-family="Helvetica,sans-Serif" font-size="10.00">+</text>
<text text-anchor="start" x="229" y="-477.5" font-family="Helvetica,sans-Serif" font-size="10.00">setOnInitialized()</text>
<text text-anchor="start" x="216" y="-462.5" font-family="Helvetica,sans-Serif" font-size="10.00">+</text>
<text text-anchor="start" x="229" y="-462.5" font-family="Helvetica,sans-Serif" font-size="10.00">close()</text>
<text text-anchor="start" x="216" y="-447.5" font-family="Helvetica,sans-Serif" font-size="10.00">+</text>
<text text-anchor="start" x="229" y="-447.5" font-family="Helvetica,sans-Serif" font-size="10.00">setVirtualHostMapping()</text>
<text text-anchor="start" x="216" y="-432.5" font-family="Helvetica,sans-Serif" font-size="10.00">+</text>
<text text-anchor="start" x="229" y="-432.5" font-family="Helvetica,sans-Serif" font-size="10.00">setOnMessageReceived()</text>
<text text-anchor="start" x="218.5" y="-417.5" font-family="Helvetica,sans-Serif" font-size="10.00">&#45;</text>
<text text-anchor="start" x="229" y="-417.5" font-family="Helvetica,sans-Serif" font-size="10.00">initializeWebView()</text>
<text text-anchor="start" x="218.5" y="-402.5" font-family="Helvetica,sans-Serif" font-size="10.00">&#45;</text>
<text text-anchor="start" x="229" y="-402.5" font-family="Helvetica,sans-Serif" font-size="10.00">onEnvironmentCreated()</text>
<text text-anchor="start" x="218.5" y="-387.5" font-family="Helvetica,sans-Serif" font-size="10.00">&#45;</text>
<text text-anchor="start" x="229" y="-387.5" font-family="Helvetica,sans-Serif" font-size="10.00">onControllerCreated()</text>
<text text-anchor="start" x="218.5" y="-372.5" font-family="Helvetica,sans-Serif" font-size="10.00">&#45;</text>
<text text-anchor="start" x="229" y="-372.5" font-family="Helvetica,sans-Serif" font-size="10.00">onWebMessageReceived()</text>
<polygon fill="#666666" stroke="#666666" points="212,-727.5 212,-727.5 363,-727.5 363,-727.5 212,-727.5"/>
<polygon fill="#666666" stroke="#666666" points="212,-637.5 212,-637.5 227,-637.5 227,-637.5 212,-637.5"/>
<polygon fill="#666666" stroke="#666666" points="227,-637.5 227,-637.5 363,-637.5 363,-637.5 227,-637.5"/>
<polygon fill="none" stroke="#666666" points="211.5,-366 211.5,-745 362.5,-745 362.5,-366 211.5,-366"/>
</a>
</g>
</g>
<!-- Node3&#45;&gt;Node4 -->
<g id="edge4_Node000004_Node000003" class="edge">
<title>Node3&#45;&gt;Node4</title>
<g id="a_edge4_Node000004_Node000003"><a xlink:title=" ">
<path fill="none" stroke="#63b8ff" d="M205.62,-791.95C209.63,-780.36 213.72,-768.52 217.83,-756.63"/>
<polygon fill="none" stroke="#63b8ff" points="217.85,-756.56 216.03,-749.58 221.77,-745.22 223.59,-752.2 217.85,-756.56"/>
</a>
</g>
<text text-anchor="middle" x="240.5" y="-766" font-family="Helvetica,sans-Serif" font-size="10.00" fill="grey"> &#45;m_logger</text>
</g>
<!-- Node4&#45;&gt;Node1 -->
<g id="edge3_Node000001_Node000004" class="edge">
<title>Node4&#45;&gt;Node1</title>
<g id="a_edge3_Node000001_Node000004"><a xlink:title=" ">
<path fill="none" stroke="#63b8ff" d="M216.62,-365.87C212.25,-354.15 207.87,-342.4 203.53,-330.78"/>
<polygon fill="none" stroke="#63b8ff" points="203.41,-330.44 197.56,-326.22 199.21,-319.2 205.06,-323.42 203.41,-330.44"/>
</a>
</g>
<text text-anchor="middle" x="256.5" y="-340" font-family="Helvetica,sans-Serif" font-size="10.00" fill="grey"> &#45;m_webViewPanel</text>
</g>
</g>
</svg>
