<?xml version="1.0" encoding="UTF-8" standalone="no"?>
<!DOCTYPE svg PUBLIC "-//W3C//DTD SVG 1.1//EN"
 "http://www.w3.org/Graphics/SVG/1.1/DTD/svg11.dtd">
<!-- Generated by graphviz version 2.43.0 (0)
 -->
<!-- Title: PCCPanel::handleMessage Pages: 1 -->
<svg width="603pt" height="27pt"
 viewBox="0.00 0.00 603.00 27.00" xmlns="http://www.w3.org/2000/svg" xmlns:xlink="http://www.w3.org/1999/xlink">
<g id="graph0" class="graph" transform="scale(1 1) rotate(0) translate(4 23)">
<title>PCCPanel::handleMessage</title>
<!-- Node1 -->
<g id="Node000001" class="node">
<title>Node1</title>
<g id="a_Node000001"><a xlink:title="Dispatcher principal des messages de la fenêtre.">
<polygon fill="#999999" stroke="#666666" points="595,-19 450,-19 450,0 595,0 595,-19"/>
<text text-anchor="middle" x="522.5" y="-7" font-family="Helvetica,sans-Serif" font-size="10.00">PCCPanel::handleMessage</text>
</a>
</g>
</g>
<!-- Node2 -->
<g id="Node000002" class="node">
<title>Node2</title>
<g id="a_Node000002"><a xlink:href="classPCCPanel.html#ae4dd813f545a2e6aca3b63302a011603" target="_top" xlink:title="Procédure de fenêtre statique, point d&#39;entrée imposé par Win32.">
<polygon fill="white" stroke="#666666" points="414,-19 287,-19 287,0 414,0 414,-19"/>
<text text-anchor="middle" x="350.5" y="-7" font-family="Helvetica,sans-Serif" font-size="10.00">PCCPanel::windowProc</text>
</a>
</g>
</g>
<!-- Node1&#45;&gt;Node2 -->
<g id="edge1_Node000001_Node000002" class="edge">
<title>Node1&#45;&gt;Node2</title>
<g id="a_edge1_Node000001_Node000002"><a xlink:title=" ">
<path fill="none" stroke="#63b8ff" d="M439.8,-9.5C431.17,-9.5 422.49,-9.5 414.12,-9.5"/>
<polygon fill="#63b8ff" stroke="#63b8ff" points="439.9,-13 449.9,-9.5 439.9,-6 439.9,-13"/>
</a>
</g>
</g>
<!-- Node3 -->
<g id="Node000003" class="node">
<title>Node3</title>
<g id="a_Node000003"><a xlink:href="classPCCPanel.html#a8c381e0a06238c65ab19fdeba3c93608" target="_top" xlink:title="Enregistre la classe Win32 et crée la fenêtre enfant masquée.">
<polygon fill="white" stroke="#666666" points="251,-19 152,-19 152,0 251,0 251,-19"/>
<text text-anchor="middle" x="201.5" y="-7" font-family="Helvetica,sans-Serif" font-size="10.00">PCCPanel::create</text>
</a>
</g>
</g>
<!-- Node2&#45;&gt;Node3 -->
<g id="edge2_Node000002_Node000003" class="edge">
<title>Node2&#45;&gt;Node3</title>
<g id="a_edge2_Node000002_Node000003"><a xlink:title=" ">
<path fill="none" stroke="#63b8ff" d="M276.66,-9.5C268.06,-9.5 259.44,-9.5 251.28,-9.5"/>
<polygon fill="#63b8ff" stroke="#63b8ff" points="276.73,-13 286.73,-9.5 276.73,-6 276.73,-13"/>
</a>
</g>
</g>
<!-- Node4 -->
<g id="Node000004" class="node">
<title>Node4</title>
<g id="a_Node000004"><a xlink:href="classMainWindow.html#a627d9feed19c3096079d91d6d38b9bf9" target="_top" xlink:title="Crée et affiche la fenêtre Win32, puis initialise la ProgressBar.">
<polygon fill="white" stroke="#666666" points="116,-19 0,-19 0,0 116,0 116,-19"/>
<text text-anchor="middle" x="58" y="-7" font-family="Helvetica,sans-Serif" font-size="10.00">MainWindow::create</text>
</a>
</g>
</g>
<!-- Node3&#45;&gt;Node4 -->
<g id="edge3_Node000003_Node000004" class="edge">
<title>Node3&#45;&gt;Node4</title>
<g id="a_edge3_Node000003_Node000004"><a xlink:title=" ">
<path fill="none" stroke="#63b8ff" d="M141.64,-9.5C133.18,-9.5 124.49,-9.5 116.07,-9.5"/>
<polygon fill="#63b8ff" stroke="#63b8ff" points="141.8,-13 151.8,-9.5 141.8,-6 141.8,-13"/>
</a>
</g>
</g>
</g>
</svg>
