<?xml version="1.0" encoding="UTF-8" standalone="no"?>
<!DOCTYPE svg PUBLIC "-//W3C//DTD SVG 1.1//EN"
 "http://www.w3.org/Graphics/SVG/1.1/DTD/svg11.dtd">
<!-- Generated by graphviz version 2.43.0 (0)
 -->
<!-- Title: TCORenderer::drawStraights Pages: 1 -->
<svg width="345pt" height="217pt"
 viewBox="0.00 0.00 345.00 216.50" xmlns="http://www.w3.org/2000/svg" xmlns:xlink="http://www.w3.org/1999/xlink">
<g id="graph0" class="graph" transform="scale(1 1) rotate(0) translate(4 212.5)">
<title>TCORenderer::drawStraights</title>
<!-- Node1 -->
<g id="Node000001" class="node">
<title>Node1</title>
<g id="a_Node000001"><a xlink:title="Dessine tous les StraightBlocks sous forme de polyligne GDI.">
<polygon fill="#999999" stroke="#666666" points="154,-99 0,-99 0,-80 154,-80 154,-99"/>
<text text-anchor="middle" x="77" y="-87" font-family="Helvetica,sans-Serif" font-size="10.00">TCORenderer::drawStraights</text>
</a>
</g>
</g>
<!-- Node2 -->
<g id="Node000002" class="node">
<title>Node2</title>
<g id="a_Node000002"><a xlink:href="classTopologyRepository.html#a0179f504f5d22ea5b16926511a9cb027" target="_top" xlink:title="Retourne une référence mutable aux données topologiques.">
<polygon fill="white" stroke="#666666" points="320,-208.5 207,-208.5 207,-178.5 320,-178.5 320,-208.5"/>
<text text-anchor="start" x="215" y="-196.5" font-family="Helvetica,sans-Serif" font-size="10.00">TopologyRepository</text>
<text text-anchor="middle" x="263.5" y="-185.5" font-family="Helvetica,sans-Serif" font-size="10.00">::data</text>
</a>
</g>
</g>
<!-- Node1&#45;&gt;Node2 -->
<g id="edge1_Node000001_Node000002" class="edge">
<title>Node1&#45;&gt;Node2</title>
<g id="a_edge1_Node000001_Node000002"><a xlink:title=" ">
<path fill="none" stroke="#63b8ff" d="M89.03,-99.13C108.32,-115.55 149.95,-149.16 190,-169.5 193.56,-171.31 197.28,-173.02 201.07,-174.64"/>
<polygon fill="#63b8ff" stroke="#63b8ff" points="200.04,-177.99 210.63,-178.45 202.64,-171.49 200.04,-177.99"/>
</a>
</g>
</g>
<!-- Node3 -->
<g id="Node000003" class="node">
<title>Node3</title>
<g id="a_Node000003"><a xlink:href="classTCORenderer.html#ad888c0f18e1d658e017122e744d800af" target="_top" xlink:title="Dessine un segment GDI entre deux points écran.">
<polygon fill="white" stroke="#666666" points="329,-160 198,-160 198,-141 329,-141 329,-160"/>
<text text-anchor="middle" x="263.5" y="-148" font-family="Helvetica,sans-Serif" font-size="10.00">TCORenderer::drawLine</text>
</a>
</g>
</g>
<!-- Node1&#45;&gt;Node3 -->
<g id="edge2_Node000001_Node000003" class="edge">
<title>Node1&#45;&gt;Node3</title>
<g id="a_edge2_Node000001_Node000003"><a xlink:title=" ">
<path fill="none" stroke="#63b8ff" d="M101.35,-99.06C123.84,-108.07 158.93,-121.63 190,-131.5 197.5,-133.88 205.5,-136.2 213.35,-138.35"/>
<polygon fill="#63b8ff" stroke="#63b8ff" points="212.59,-141.77 223.16,-140.97 214.4,-135.01 212.59,-141.77"/>
</a>
</g>
</g>
<!-- Node4 -->
<g id="Node000004" class="node">
<title>Node4</title>
<g id="a_Node000004"><a xlink:href="classTopologyRepository.html#adb001f817a74b4b81e05d0d22517f509" target="_top" xlink:title="Retourne l&#39;instance unique du repository (création paresseuse).">
<polygon fill="white" stroke="#666666" points="320,-104.5 207,-104.5 207,-74.5 320,-74.5 320,-104.5"/>
<text text-anchor="start" x="215" y="-92.5" font-family="Helvetica,sans-Serif" font-size="10.00">TopologyRepository</text>
<text text-anchor="middle" x="263.5" y="-81.5" font-family="Helvetica,sans-Serif" font-size="10.00">::instance</text>
</a>
</g>
</g>
<!-- Node1&#45;&gt;Node4 -->
<g id="edge3_Node000001_Node000004" class="edge">
<title>Node1&#45;&gt;Node4</title>
<g id="a_edge3_Node000001_Node000004"><a xlink:title=" ">
<path fill="none" stroke="#63b8ff" d="M154.11,-89.5C168.19,-89.5 182.79,-89.5 196.53,-89.5"/>
<polygon fill="#63b8ff" stroke="#63b8ff" points="196.86,-93 206.86,-89.5 196.86,-86 196.86,-93"/>
</a>
</g>
</g>
<!-- Node5 -->
<g id="Node000005" class="node">
<title>Node5</title>
<g id="a_Node000005"><a xlink:href="classTCORenderer.html#a444e83112e1f98c00fce1194e8c8d313" target="_top" xlink:title="Projette un point GPS en coordonnées pixels.">
<polygon fill="white" stroke="#666666" points="323.5,-56 203.5,-56 203.5,-37 323.5,-37 323.5,-56"/>
<text text-anchor="middle" x="263.5" y="-44" font-family="Helvetica,sans-Serif" font-size="10.00">TCORenderer::project</text>
</a>
</g>
</g>
<!-- Node1&#45;&gt;Node5 -->
<g id="edge5_Node000001_Node000005" class="edge">
<title>Node1&#45;&gt;Node5</title>
<g id="a_edge5_Node000001_Node000005"><a xlink:title=" ">
<path fill="none" stroke="#63b8ff" d="M118.95,-79.96C146.3,-73.58 182.47,-65.15 211.66,-58.35"/>
<polygon fill="#63b8ff" stroke="#63b8ff" points="212.72,-61.69 221.67,-56.02 211.13,-54.88 212.72,-61.69"/>
</a>
</g>
</g>
<!-- Node6 -->
<g id="Node000006" class="node">
<title>Node6</title>
<g id="a_Node000006"><a xlink:href="classTCORenderer.html#a538d4c108ec65a52b98810f96e6662e1" target="_top" xlink:title="Mappe un ShuntingState vers une couleur GDI.">
<polygon fill="white" stroke="#666666" points="337,-19 190,-19 190,0 337,0 337,-19"/>
<text text-anchor="middle" x="263.5" y="-7" font-family="Helvetica,sans-Serif" font-size="10.00">TCORenderer::stateToColor</text>
</a>
</g>
</g>
<!-- Node1&#45;&gt;Node6 -->
<g id="edge6_Node000001_Node000006" class="edge">
<title>Node1&#45;&gt;Node6</title>
<g id="a_edge6_Node000001_Node000006"><a xlink:title=" ">
<path fill="none" stroke="#63b8ff" d="M93.01,-79.79C113.97,-66.58 153.57,-42.95 190,-28.5 196.18,-26.05 202.77,-23.82 209.38,-21.83"/>
<polygon fill="#63b8ff" stroke="#63b8ff" points="210.36,-25.18 219.01,-19.06 208.43,-18.46 210.36,-25.18"/>
</a>
</g>
</g>
<!-- Node4&#45;&gt;Node4 -->
<g id="edge4_Node000004_Node000004" class="edge">
<title>Node4&#45;&gt;Node4</title>
<g id="a_edge4_Node000004_Node000004"><a xlink:title=" ">
<path fill="none" stroke="#63b8ff" d="M230.8,-104.78C223.54,-113.91 234.44,-122.5 263.5,-122.5 280.76,-122.5 291.61,-119.47 296.06,-115.1"/>
<polygon fill="#63b8ff" stroke="#63b8ff" points="299.56,-114.82 296.2,-104.78 292.56,-114.73 299.56,-114.82"/>
</a>
</g>
</g>
</g>
</svg>
