<?xml version="1.0" encoding="UTF-8" standalone="no"?>
<!DOCTYPE svg PUBLIC "-//W3C//DTD SVG 1.1//EN"
 "http://www.w3.org/Graphics/SVG/1.1/DTD/svg11.dtd">
<!-- Generated by graphviz version 2.43.0 (0)
 -->
<!-- Title: TCORenderer::stateToColor Pages: 1 -->
<svg width="1262pt" height="64pt"
 viewBox="0.00 0.00 1262.00 64.00" xmlns="http://www.w3.org/2000/svg" xmlns:xlink="http://www.w3.org/1999/xlink">
<g id="graph0" class="graph" transform="scale(1 1) rotate(0) translate(4 60)">
<title>TCORenderer::stateToColor</title>
<!-- Node1 -->
<g id="Node000001" class="node">
<title>Node1</title>
<g id="a_Node000001"><a xlink:title="Mappe un ShuntingState vers une couleur GDI.">
<polygon fill="#999999" stroke="#666666" points="1254,-37 1107,-37 1107,-18 1254,-18 1254,-37"/>
<text text-anchor="middle" x="1180.5" y="-25" font-family="Helvetica,sans-Serif" font-size="10.00">TCORenderer::stateToColor</text>
</a>
</g>
</g>
<!-- Node2 -->
<g id="Node000002" class="node">
<title>Node2</title>
<g id="a_Node000002"><a xlink:href="classTCORenderer.html#aeed8cc58c834a65669010f32359d4610" target="_top" xlink:title="Dessine tous les StraightBlocks sous forme de polyligne GDI.">
<polygon fill="white" stroke="#666666" points="1071,-56 917,-56 917,-37 1071,-37 1071,-56"/>
<text text-anchor="middle" x="994" y="-44" font-family="Helvetica,sans-Serif" font-size="10.00">TCORenderer::drawStraights</text>
</a>
</g>
</g>
<!-- Node1&#45;&gt;Node2 -->
<g id="edge1_Node000001_Node000002" class="edge">
<title>Node1&#45;&gt;Node2</title>
<g id="a_edge1_Node000001_Node000002"><a xlink:title=" ">
<path fill="none" stroke="#63b8ff" d="M1096.89,-36.01C1088.35,-36.89 1079.7,-37.78 1071.23,-38.65"/>
<polygon fill="#63b8ff" stroke="#63b8ff" points="1097.26,-39.49 1106.85,-34.98 1096.54,-32.52 1097.26,-39.49"/>
</a>
</g>
</g>
<!-- Node9 -->
<g id="Node000009" class="node">
<title>Node9</title>
<g id="a_Node000009"><a xlink:href="classTCORenderer.html#abac93569443d9bdd38b2dfb5cbd7e30b" target="_top" xlink:title="Dessine tous les SwitchBlocks (jonction + 3 branches).">
<polygon fill="white" stroke="#666666" points="1071,-19 917,-19 917,0 1071,0 1071,-19"/>
<text text-anchor="middle" x="994" y="-7" font-family="Helvetica,sans-Serif" font-size="10.00">TCORenderer::drawSwitches</text>
</a>
</g>
</g>
<!-- Node1&#45;&gt;Node9 -->
<g id="edge8_Node000001_Node000009" class="edge">
<title>Node1&#45;&gt;Node9</title>
<g id="a_edge8_Node000001_Node000009"><a xlink:title=" ">
<path fill="none" stroke="#63b8ff" d="M1096.89,-19.44C1088.35,-18.61 1079.7,-17.76 1071.23,-16.94"/>
<polygon fill="#63b8ff" stroke="#63b8ff" points="1096.55,-22.92 1106.85,-20.41 1097.23,-15.96 1096.55,-22.92"/>
</a>
</g>
</g>
<!-- Node3 -->
<g id="Node000003" class="node">
<title>Node3</title>
<g id="a_Node000003"><a xlink:href="classTCORenderer.html#a84a480ca1f9b2d8dffd5a51148739898" target="_top" xlink:title="Point d&#39;entrée unique du rendu TCO.">
<polygon fill="white" stroke="#666666" points="881,-37 771,-37 771,-18 881,-18 881,-37"/>
<text text-anchor="middle" x="826" y="-25" font-family="Helvetica,sans-Serif" font-size="10.00">TCORenderer::draw</text>
</a>
</g>
</g>
<!-- Node2&#45;&gt;Node3 -->
<g id="edge2_Node000002_Node000003" class="edge">
<title>Node2&#45;&gt;Node3</title>
<g id="a_edge2_Node000002_Node000003"><a xlink:title=" ">
<path fill="none" stroke="#63b8ff" d="M906.71,-36.62C898.12,-35.64 889.57,-34.66 881.43,-33.73"/>
<polygon fill="#63b8ff" stroke="#63b8ff" points="906.47,-40.12 916.8,-37.78 907.26,-33.16 906.47,-40.12"/>
</a>
</g>
</g>
<!-- Node4 -->
<g id="Node000004" class="node">
<title>Node4</title>
<g id="a_Node000004"><a xlink:href="classPCCPanel.html#a8eecf984fba3d3b3bc86ea61b095e098" target="_top" xlink:title="Gestionnaire de WM_PAINT — délègue le dessin à TCORenderer.">
<polygon fill="white" stroke="#666666" points="735,-37 631,-37 631,-18 735,-18 735,-37"/>
<text text-anchor="middle" x="683" y="-25" font-family="Helvetica,sans-Serif" font-size="10.00">PCCPanel::onPaint</text>
</a>
</g>
</g>
<!-- Node3&#45;&gt;Node4 -->
<g id="edge3_Node000003_Node000004" class="edge">
<title>Node3&#45;&gt;Node4</title>
<g id="a_edge3_Node000003_Node000004"><a xlink:title=" ">
<path fill="none" stroke="#63b8ff" d="M760.66,-27.5C752.2,-27.5 743.62,-27.5 735.42,-27.5"/>
<polygon fill="#63b8ff" stroke="#63b8ff" points="760.89,-31 770.89,-27.5 760.89,-24 760.89,-31"/>
</a>
</g>
</g>
<!-- Node5 -->
<g id="Node000005" class="node">
<title>Node5</title>
<g id="a_Node000005"><a xlink:href="classPCCPanel.html#a4eb1ec290785cae336ff1f8e6bf0aafc" target="_top" xlink:title="Dispatcher principal des messages de la fenêtre.">
<polygon fill="white" stroke="#666666" points="595,-37 450,-37 450,-18 595,-18 595,-37"/>
<text text-anchor="middle" x="522.5" y="-25" font-family="Helvetica,sans-Serif" font-size="10.00">PCCPanel::handleMessage</text>
</a>
</g>
</g>
<!-- Node4&#45;&gt;Node5 -->
<g id="edge4_Node000004_Node000005" class="edge">
<title>Node4&#45;&gt;Node5</title>
<g id="a_edge4_Node000004_Node000005"><a xlink:title=" ">
<path fill="none" stroke="#63b8ff" d="M620.89,-27.5C612.48,-27.5 603.79,-27.5 595.21,-27.5"/>
<polygon fill="#63b8ff" stroke="#63b8ff" points="620.98,-31 630.98,-27.5 620.98,-24 620.98,-31"/>
</a>
</g>
</g>
<!-- Node6 -->
<g id="Node000006" class="node">
<title>Node6</title>
<g id="a_Node000006"><a xlink:href="classPCCPanel.html#ae4dd813f545a2e6aca3b63302a011603" target="_top" xlink:title="Procédure de fenêtre statique, point d&#39;entrée imposé par Win32.">
<polygon fill="white" stroke="#666666" points="414,-37 287,-37 287,-18 414,-18 414,-37"/>
<text text-anchor="middle" x="350.5" y="-25" font-family="Helvetica,sans-Serif" font-size="10.00">PCCPanel::windowProc</text>
</a>
</g>
</g>
<!-- Node5&#45;&gt;Node6 -->
<g id="edge5_Node000005_Node000006" class="edge">
<title>Node5&#45;&gt;Node6</title>
<g id="a_edge5_Node000005_Node000006"><a xlink:title=" ">
<path fill="none" stroke="#63b8ff" d="M439.8,-27.5C431.17,-27.5 422.49,-27.5 414.12,-27.5"/>
<polygon fill="#63b8ff" stroke="#63b8ff" points="439.9,-31 449.9,-27.5 439.9,-24 439.9,-31"/>
</a>
</g>
</g>
<!-- Node7 -->
<g id="Node000007" class="node">
<title>Node7</title>
<g id="a_Node000007"><a xlink:href="classPCCPanel.html#a8c381e0a06238c65ab19fdeba3c93608" target="_top" xlink:title="Enregistre la classe Win32 et crée la fenêtre enfant masquée.">
<polygon fill="white" stroke="#666666" points="251,-37 152,-37 152,-18 251,-18 251,-37"/>
<text text-anchor="middle" x="201.5" y="-25" font-family="Helvetica,sans-Serif" font-size="10.00">PCCPanel::create</text>
</a>
</g>
</g>
<!-- Node6&#45;&gt;Node7 -->
<g id="edge6_Node000006_Node000007" class="edge">
<title>Node6&#45;&gt;Node7</title>
<g id="a_edge6_Node000006_Node000007"><a xlink:title=" ">
<path fill="none" stroke="#63b8ff" d="M276.66,-27.5C268.06,-27.5 259.44,-27.5 251.28,-27.5"/>
<polygon fill="#63b8ff" stroke="#63b8ff" points="276.73,-31 286.73,-27.5 276.73,-24 276.73,-31"/>
</a>
</g>
</g>
<!-- Node8 -->
<g id="Node000008" class="node">
<title>Node8</title>
<g id="a_Node000008"><a xlink:href="classMainWindow.html#a627d9feed19c3096079d91d6d38b9bf9" target="_top" xlink:title="Crée et affiche la fenêtre Win32, puis initialise la ProgressBar.">
<polygon fill="white" stroke="#666666" points="116,-37 0,-37 0,-18 116,-18 116,-37"/>
<text text-anchor="middle" x="58" y="-25" font-family="Helvetica,sans-Serif" font-size="10.00">MainWindow::create</text>
</a>
</g>
</g>
<!-- Node7&#45;&gt;Node8 -->
<g id="edge7_Node000007_Node000008" class="edge">
<title>Node7&#45;&gt;Node8</title>
<g id="a_edge7_Node000007_Node000008"><a xlink:title=" ">
<path fill="none" stroke="#63b8ff" d="M141.64,-27.5C133.18,-27.5 124.49,-27.5 116.07,-27.5"/>
<polygon fill="#63b8ff" stroke="#63b8ff" points="141.8,-31 151.8,-27.5 141.8,-24 141.8,-31"/>
</a>
</g>
</g>
<!-- Node9&#45;&gt;Node3 -->
<g id="edge9_Node000009_Node000003" class="edge">
<title>Node9&#45;&gt;Node3</title>
<g id="a_edge9_Node000009_Node000003"><a xlink:title=" ">
<path fill="none" stroke="#63b8ff" d="M906.71,-18.86C898.12,-19.79 889.57,-20.72 881.43,-21.6"/>
<polygon fill="#63b8ff" stroke="#63b8ff" points="907.24,-22.32 916.8,-17.76 906.48,-15.36 907.24,-22.32"/>
</a>
</g>
</g>
</g>
</svg>
