<?xml version="1.0" encoding="UTF-8" standalone="no"?>
<!DOCTYPE svg PUBLIC "-//W3C//DTD SVG 1.1//EN"
 "http://www.w3.org/Graphics/SVG/1.1/DTD/svg11.dtd">
<!-- Generated by graphviz version 2.43.0 (0)
 -->
<!-- Title: MainWindow::onParsingSuccess Pages: 1 -->
<svg width="752pt" height="269pt"
 viewBox="0.00 0.00 752.00 269.00" xmlns="http://www.w3.org/2000/svg" xmlns:xlink="http://www.w3.org/1999/xlink">
<g id="graph0" class="graph" transform="scale(1 1) rotate(0) translate(4 265)">
<title>MainWindow::onParsingSuccess</title>
<!-- Node1 -->
<g id="Node000001" class="node">
<title>Node1</title>
<g id="a_Node000001"><a xlink:title="Gère la fin réussie du parsing (WM_PARSING_SUCCESS).">
<polygon fill="#999999" stroke="#666666" points="171,-123 0,-123 0,-104 171,-104 171,-123"/>
<text text-anchor="middle" x="85.5" y="-111" font-family="Helvetica,sans-Serif" font-size="10.00">MainWindow::onParsingSuccess</text>
</a>
</g>
</g>
<!-- Node2 -->
<g id="Node000002" class="node">
<title>Node2</title>
<g id="a_Node000002"><a xlink:href="classWebViewPanel.html#a5890da7c431554b9e864759f293dac1f" target="_top" xlink:title="Exécute un script JavaScript dans le contexte de la page chargée.">
<polygon fill="white" stroke="#666666" points="367,-238 207,-238 207,-219 367,-219 367,-238"/>
<text text-anchor="middle" x="287" y="-226" font-family="Helvetica,sans-Serif" font-size="10.00">WebViewPanel::executeScript</text>
</a>
</g>
</g>
<!-- Node1&#45;&gt;Node2 -->
<g id="edge1_Node000001_Node000002" class="edge">
<title>Node1&#45;&gt;Node2</title>
<g id="a_edge1_Node000001_Node000002"><a xlink:title=" ">
<path fill="none" stroke="#63b8ff" d="M95.49,-123.06C114.28,-142.44 159.89,-186.49 207,-209.5 211.91,-211.9 217.15,-214.01 222.49,-215.86"/>
<polygon fill="#63b8ff" stroke="#63b8ff" points="221.61,-219.25 232.2,-218.92 223.71,-212.57 221.61,-219.25"/>
</a>
</g>
</g>
<!-- Node3 -->
<g id="Node000003" class="node">
<title>Node3</title>
<g id="a_Node000003"><a xlink:href="classGeoJsonExporter.html#a9e109a8b505798f99c5aa2bd6fb538a3" target="_top" xlink:title="Efface puis redessine tous les StraightBlocks.">
<polygon fill="white" stroke="#666666" points="361,-152.5 213,-152.5 213,-122.5 361,-122.5 361,-152.5"/>
<text text-anchor="start" x="221" y="-140.5" font-family="Helvetica,sans-Serif" font-size="10.00">GeoJsonExporter::renderAll</text>
<text text-anchor="middle" x="287" y="-129.5" font-family="Helvetica,sans-Serif" font-size="10.00">StraightBlocks</text>
</a>
</g>
</g>
<!-- Node1&#45;&gt;Node3 -->
<g id="edge2_Node000001_Node000003" class="edge">
<title>Node1&#45;&gt;Node3</title>
<g id="a_edge2_Node000001_Node000003"><a xlink:title=" ">
<path fill="none" stroke="#63b8ff" d="M165.63,-123.02C177.79,-124.48 190.37,-126 202.61,-127.47"/>
<polygon fill="#63b8ff" stroke="#63b8ff" points="202.45,-130.97 212.8,-128.69 203.29,-124.02 202.45,-130.97"/>
</a>
</g>
</g>
<!-- Node7 -->
<g id="Node000007" class="node">
<title>Node7</title>
<g id="a_Node000007"><a xlink:href="classGeoJsonExporter.html#adbde98ddc849360ec945d84bde02d504" target="_top" xlink:title="Efface puis redessine tous les marqueurs de jonction.">
<polygon fill="white" stroke="#666666" points="361,-104.5 213,-104.5 213,-74.5 361,-74.5 361,-104.5"/>
<text text-anchor="start" x="221" y="-92.5" font-family="Helvetica,sans-Serif" font-size="10.00">GeoJsonExporter::renderAll</text>
<text text-anchor="middle" x="287" y="-81.5" font-family="Helvetica,sans-Serif" font-size="10.00">SwitchBlocksJunctions</text>
</a>
</g>
</g>
<!-- Node1&#45;&gt;Node7 -->
<g id="edge7_Node000001_Node000007" class="edge">
<title>Node1&#45;&gt;Node7</title>
<g id="a_edge7_Node000001_Node000007"><a xlink:title=" ">
<path fill="none" stroke="#63b8ff" d="M165.63,-103.98C177.79,-102.52 190.37,-101 202.61,-99.53"/>
<polygon fill="#63b8ff" stroke="#63b8ff" points="203.29,-102.98 212.8,-98.31 202.45,-96.03 203.29,-102.98"/>
</a>
</g>
</g>
<!-- Node9 -->
<g id="Node000009" class="node">
<title>Node9</title>
<g id="a_Node000009"><a xlink:href="classGeoJsonExporter.html#a75d6c6a4354d06d04a700b58d69e869f" target="_top" xlink:title="Efface puis redessine les branches de tous les switches.">
<polygon fill="white" stroke="#666666" points="361,-200.5 213,-200.5 213,-170.5 361,-170.5 361,-200.5"/>
<text text-anchor="start" x="221" y="-188.5" font-family="Helvetica,sans-Serif" font-size="10.00">GeoJsonExporter::renderAll</text>
<text text-anchor="middle" x="287" y="-177.5" font-family="Helvetica,sans-Serif" font-size="10.00">SwitchBranches</text>
</a>
</g>
</g>
<!-- Node1&#45;&gt;Node9 -->
<g id="edge11_Node000001_Node000009" class="edge">
<title>Node1&#45;&gt;Node9</title>
<g id="a_edge11_Node000001_Node000009"><a xlink:title=" ">
<path fill="none" stroke="#63b8ff" d="M108.94,-123.1C132.98,-133.22 172.36,-149.36 207,-161.5 212.55,-163.44 218.34,-165.38 224.17,-167.26"/>
<polygon fill="#63b8ff" stroke="#63b8ff" points="223.36,-170.68 233.95,-170.37 225.48,-164.01 223.36,-170.68"/>
</a>
</g>
</g>
<!-- Node13 -->
<g id="Node000013" class="node">
<title>Node13</title>
<g id="a_Node000013"><a xlink:href="classProgressBar.html#ad06234c2844ac3beb9f8e8532015c0cd" target="_top" xlink:title="Met à jour la progression.">
<polygon fill="white" stroke="#666666" points="356,-56 218,-56 218,-37 356,-37 356,-56"/>
<text text-anchor="middle" x="287" y="-44" font-family="Helvetica,sans-Serif" font-size="10.00">ProgressBar::setProgress</text>
</a>
</g>
</g>
<!-- Node1&#45;&gt;Node13 -->
<g id="edge17_Node000001_Node000013" class="edge">
<title>Node1&#45;&gt;Node13</title>
<g id="a_edge17_Node000001_Node000013"><a xlink:title=" ">
<path fill="none" stroke="#63b8ff" d="M107.93,-103.88C131.77,-93.44 171.59,-76.75 207,-65.5 214.84,-63.01 223.2,-60.67 231.45,-58.54"/>
<polygon fill="#63b8ff" stroke="#63b8ff" points="232.55,-61.87 241.4,-56.05 230.85,-55.08 232.55,-61.87"/>
</a>
</g>
</g>
<!-- Node14 -->
<g id="Node000014" class="node">
<title>Node14</title>
<g id="a_Node000014"><a xlink:href="classProgressBar.html#ac9fbcf04d7d4e8c5b3e332efcfc0d34c" target="_top" xlink:title="Show or hide the ProgressBar.">
<polygon fill="white" stroke="#666666" points="340.5,-19 233.5,-19 233.5,0 340.5,0 340.5,-19"/>
<text text-anchor="middle" x="287" y="-7" font-family="Helvetica,sans-Serif" font-size="10.00">ProgressBar::show</text>
</a>
</g>
</g>
<!-- Node1&#45;&gt;Node14 -->
<g id="edge18_Node000001_Node000014" class="edge">
<title>Node1&#45;&gt;Node14</title>
<g id="a_edge18_Node000001_Node000014"><a xlink:title=" ">
<path fill="none" stroke="#63b8ff" d="M96.89,-103.85C116.71,-85.98 161.98,-47.71 207,-27.5 212.26,-25.14 217.86,-23.07 223.56,-21.26"/>
<polygon fill="#63b8ff" stroke="#63b8ff" points="224.58,-24.62 233.2,-18.47 222.62,-17.89 224.58,-24.62"/>
</a>
</g>
</g>
<!-- Node4 -->
<g id="Node000004" class="node">
<title>Node4</title>
<g id="a_Node000004"><a xlink:href="classTopologyRepository.html#a0179f504f5d22ea5b16926511a9cb027" target="_top" xlink:title="Retourne une référence mutable aux données topologiques.">
<polygon fill="white" stroke="#666666" points="546,-200.5 433,-200.5 433,-170.5 546,-170.5 546,-200.5"/>
<text text-anchor="start" x="441" y="-188.5" font-family="Helvetica,sans-Serif" font-size="10.00">TopologyRepository</text>
<text text-anchor="middle" x="489.5" y="-177.5" font-family="Helvetica,sans-Serif" font-size="10.00">::data</text>
</a>
</g>
</g>
<!-- Node3&#45;&gt;Node4 -->
<g id="edge3_Node000003_Node000004" class="edge">
<title>Node3&#45;&gt;Node4</title>
<g id="a_edge3_Node000003_Node000004"><a xlink:title=" ">
<path fill="none" stroke="#63b8ff" d="M350.89,-152.56C373.9,-158.06 399.98,-164.31 423.2,-169.87"/>
<polygon fill="#63b8ff" stroke="#63b8ff" points="422.41,-173.28 432.95,-172.2 424.04,-166.47 422.41,-173.28"/>
</a>
</g>
</g>
<!-- Node5 -->
<g id="Node000005" class="node">
<title>Node5</title>
<g id="a_Node000005"><a xlink:href="classTopologyRepository.html#adb001f817a74b4b81e05d0d22517f509" target="_top" xlink:title="Retourne l&#39;instance unique du repository (création paresseuse).">
<polygon fill="white" stroke="#666666" points="546,-134.5 433,-134.5 433,-104.5 546,-104.5 546,-134.5"/>
<text text-anchor="start" x="441" y="-122.5" font-family="Helvetica,sans-Serif" font-size="10.00">TopologyRepository</text>
<text text-anchor="middle" x="489.5" y="-111.5" font-family="Helvetica,sans-Serif" font-size="10.00">::instance</text>
</a>
</g>
</g>
<!-- Node3&#45;&gt;Node5 -->
<g id="edge4_Node000003_Node000005" class="edge">
<title>Node3&#45;&gt;Node5</title>
<g id="a_edge4_Node000003_Node000005"><a xlink:title=" ">
<path fill="none" stroke="#63b8ff" d="M361.24,-130.93C381.34,-129.12 403,-127.18 422.66,-125.41"/>
<polygon fill="#63b8ff" stroke="#63b8ff" points="423.09,-128.89 432.74,-124.51 422.46,-121.91 423.09,-128.89"/>
</a>
</g>
</g>
<!-- Node6 -->
<g id="Node000006" class="node">
<title>Node6</title>
<g id="a_Node000006"><a xlink:href="classGeoJsonExporter.html#aceb585d865614f5183a3fd00dbf9a55d" target="_top" xlink:title="Construit l&#39;appel JS renderStraightBlock(id, coords) pour un bloc.">
<polygon fill="white" stroke="#666666" points="576,-86.5 403,-86.5 403,-56.5 576,-56.5 576,-86.5"/>
<text text-anchor="start" x="411" y="-74.5" font-family="Helvetica,sans-Serif" font-size="10.00">GeoJsonExporter::renderStraight</text>
<text text-anchor="middle" x="489.5" y="-63.5" font-family="Helvetica,sans-Serif" font-size="10.00">Block</text>
</a>
</g>
</g>
<!-- Node3&#45;&gt;Node6 -->
<g id="edge6_Node000003_Node000006" class="edge">
<title>Node3&#45;&gt;Node6</title>
<g id="a_edge6_Node000003_Node000006"><a xlink:title=" ">
<path fill="none" stroke="#63b8ff" d="M341.97,-122.44C350.43,-119.69 359.01,-116.68 367,-113.5 383.62,-106.88 386.31,-101.95 403,-95.5 408.34,-93.44 413.94,-91.46 419.6,-89.6"/>
<polygon fill="#63b8ff" stroke="#63b8ff" points="420.67,-92.94 429.15,-86.58 418.56,-86.26 420.67,-92.94"/>
</a>
</g>
</g>
<!-- Node5&#45;&gt;Node5 -->
<g id="edge5_Node000005_Node000005" class="edge">
<title>Node5&#45;&gt;Node5</title>
<g id="a_edge5_Node000005_Node000005"><a xlink:title=" ">
<path fill="none" stroke="#63b8ff" d="M456.45,-134.78C449.11,-143.91 460.12,-152.5 489.5,-152.5 506.94,-152.5 517.91,-149.47 522.41,-145.1"/>
<polygon fill="#63b8ff" stroke="#63b8ff" points="525.91,-144.82 522.55,-134.78 518.91,-144.73 525.91,-144.82"/>
</a>
</g>
</g>
<!-- Node7&#45;&gt;Node4 -->
<g id="edge8_Node000007_Node000004" class="edge">
<title>Node7&#45;&gt;Node4</title>
<g id="a_edge8_Node000007_Node000004"><a xlink:title=" ">
<path fill="none" stroke="#63b8ff" d="M350.98,-104.53C356.63,-107.08 362.07,-110.05 367,-113.5 388.84,-128.8 381,-146.43 403,-161.5 409.12,-165.69 415.96,-169.16 423.04,-172.02"/>
<polygon fill="#63b8ff" stroke="#63b8ff" points="422.19,-175.43 432.78,-175.56 424.58,-168.85 422.19,-175.43"/>
</a>
</g>
</g>
<!-- Node7&#45;&gt;Node5 -->
<g id="edge9_Node000007_Node000005" class="edge">
<title>Node7&#45;&gt;Node5</title>
<g id="a_edge9_Node000007_Node000005"><a xlink:title=" ">
<path fill="none" stroke="#63b8ff" d="M361.24,-100.46C381.34,-103.47 403,-106.71 422.66,-109.65"/>
<polygon fill="#63b8ff" stroke="#63b8ff" points="422.33,-113.14 432.74,-111.16 423.36,-106.21 422.33,-113.14"/>
</a>
</g>
</g>
<!-- Node8 -->
<g id="Node000008" class="node">
<title>Node8</title>
<g id="a_Node000008"><a xlink:href="classGeoJsonExporter.html#a94a0a86bf9fb71861ffd691bda77fd47" target="_top" xlink:title="Construit l&#39;appel JS renderSwitch(id, lat, lon, isDouble).">
<polygon fill="white" stroke="#666666" points="573,-38.5 406,-38.5 406,-8.5 573,-8.5 573,-38.5"/>
<text text-anchor="start" x="414" y="-26.5" font-family="Helvetica,sans-Serif" font-size="10.00">GeoJsonExporter::renderSwitch</text>
<text text-anchor="middle" x="489.5" y="-15.5" font-family="Helvetica,sans-Serif" font-size="10.00">Block</text>
</a>
</g>
</g>
<!-- Node7&#45;&gt;Node8 -->
<g id="edge10_Node000007_Node000008" class="edge">
<title>Node7&#45;&gt;Node8</title>
<g id="a_edge10_Node000007_Node000008"><a xlink:title=" ">
<path fill="none" stroke="#63b8ff" d="M338.93,-74.5C348.34,-71.41 358.03,-68.02 367,-64.5 383.47,-58.04 386.42,-53.69 403,-47.5 408.46,-45.46 414.17,-43.5 419.94,-41.64"/>
<polygon fill="#63b8ff" stroke="#63b8ff" points="421.16,-44.93 429.67,-38.61 419.08,-38.24 421.16,-44.93"/>
</a>
</g>
</g>
<!-- Node9&#45;&gt;Node4 -->
<g id="edge12_Node000009_Node000004" class="edge">
<title>Node9&#45;&gt;Node4</title>
<g id="a_edge12_Node000009_Node000004"><a xlink:title=" ">
<path fill="none" stroke="#63b8ff" d="M361.24,-185.5C381.34,-185.5 403,-185.5 422.66,-185.5"/>
<polygon fill="#63b8ff" stroke="#63b8ff" points="422.74,-189 432.74,-185.5 422.74,-182 422.74,-189"/>
</a>
</g>
</g>
<!-- Node9&#45;&gt;Node5 -->
<g id="edge13_Node000009_Node000005" class="edge">
<title>Node9&#45;&gt;Node5</title>
<g id="a_edge13_Node000009_Node000005"><a xlink:title=" ">
<path fill="none" stroke="#63b8ff" d="M338.66,-170.42C348.1,-167.52 357.87,-164.47 367,-161.5 389.92,-154.06 415.12,-145.43 436.59,-137.93"/>
<polygon fill="#63b8ff" stroke="#63b8ff" points="437.9,-141.18 446.18,-134.57 435.58,-134.57 437.9,-141.18"/>
</a>
</g>
</g>
<!-- Node10 -->
<g id="Node000010" class="node">
<title>Node10</title>
<g id="a_Node000010"><a xlink:href="classGeoJsonExporter.html#a125ac684007e9e1e93b6d11d695d7e9b" target="_top" xlink:title="Construit l&#39;appel JS renderSwitchBranches(...) pour un switch.">
<polygon fill="white" stroke="#666666" points="573,-248.5 406,-248.5 406,-218.5 573,-218.5 573,-248.5"/>
<text text-anchor="start" x="414" y="-236.5" font-family="Helvetica,sans-Serif" font-size="10.00">GeoJsonExporter::renderSwitch</text>
<text text-anchor="middle" x="489.5" y="-225.5" font-family="Helvetica,sans-Serif" font-size="10.00">Branches</text>
</a>
</g>
</g>
<!-- Node9&#45;&gt;Node10 -->
<g id="edge14_Node000009_Node000010" class="edge">
<title>Node9&#45;&gt;Node10</title>
<g id="a_edge14_Node000009_Node000010"><a xlink:title=" ">
<path fill="none" stroke="#63b8ff" d="M350.89,-200.56C371.51,-205.49 394.59,-211.02 415.88,-216.11"/>
<polygon fill="#63b8ff" stroke="#63b8ff" points="415.29,-219.57 425.83,-218.5 416.92,-212.77 415.29,-219.57"/>
</a>
</g>
</g>
<!-- Node11 -->
<g id="Node000011" class="node">
<title>Node11</title>
<g id="a_Node000011"><a xlink:href="GeoJsonExporter_8cpp.html#a804a0b5a3a71a7a209dfe8f50e2da7fc" target="_top" xlink:title=" ">
<polygon fill="white" stroke="#666666" points="711.5,-261 644.5,-261 644.5,-242 711.5,-242 711.5,-261"/>
<text text-anchor="middle" x="678" y="-249" font-family="Helvetica,sans-Serif" font-size="10.00">encodeTip</text>
</a>
</g>
</g>
<!-- Node10&#45;&gt;Node11 -->
<g id="edge15_Node000010_Node000011" class="edge">
<title>Node10&#45;&gt;Node11</title>
<g id="a_edge15_Node000010_Node000011"><a xlink:title=" ">
<path fill="none" stroke="#63b8ff" d="M573.12,-241.47C594.23,-243.51 616.08,-245.62 634.26,-247.37"/>
<polygon fill="#63b8ff" stroke="#63b8ff" points="633.94,-250.86 644.23,-248.34 634.61,-243.89 633.94,-250.86"/>
</a>
</g>
</g>
<!-- Node12 -->
<g id="Node000012" class="node">
<title>Node12</title>
<g id="a_Node000012"><a xlink:href="classSwitchBlock.html#a87eba553e6478990869ad5b1d9c4f4a7" target="_top" xlink:title="Indique si l&#39;aiguillage a été orienté (Phase 6 complète).">
<polygon fill="white" stroke="#666666" points="744,-224 612,-224 612,-205 744,-205 744,-224"/>
<text text-anchor="middle" x="678" y="-212" font-family="Helvetica,sans-Serif" font-size="10.00">SwitchBlock::isOriented</text>
</a>
</g>
</g>
<!-- Node10&#45;&gt;Node12 -->
<g id="edge16_Node000010_Node000012" class="edge">
<title>Node10&#45;&gt;Node12</title>
<g id="a_edge16_Node000010_Node000012"><a xlink:title=" ">
<path fill="none" stroke="#63b8ff" d="M573.12,-225.08C582.63,-224.11 592.3,-223.13 601.71,-222.17"/>
<polygon fill="#63b8ff" stroke="#63b8ff" points="602.21,-225.64 611.81,-221.14 601.5,-218.67 602.21,-225.64"/>
</a>
</g>
</g>
</g>
</svg>
