<?xml version="1.0" encoding="UTF-8" standalone="no"?>
<!DOCTYPE svg PUBLIC "-//W3C//DTD SVG 1.1//EN"
 "http://www.w3.org/Graphics/SVG/1.1/DTD/svg11.dtd">
<!-- Generated by graphviz version 2.43.0 (0)
 -->
<!-- Title: SwitchBlock::isOriented Pages: 1 -->
<svg width="1888pt" height="124pt"
 viewBox="0.00 0.00 1888.00 123.50" xmlns="http://www.w3.org/2000/svg" xmlns:xlink="http://www.w3.org/1999/xlink">
<g id="graph0" class="graph" transform="scale(1 1) rotate(0) translate(4 119.5)">
<title>SwitchBlock::isOriented</title>
<!-- Node1 -->
<g id="Node000001" class="node">
<title>Node1</title>
<g id="a_Node000001"><a xlink:title="Indique si l&#39;aiguillage a été orienté (Phase 6 complète).">
<polygon fill="#999999" stroke="#666666" points="1880,-62 1748,-62 1748,-43 1880,-43 1880,-62"/>
<text text-anchor="middle" x="1814" y="-50" font-family="Helvetica,sans-Serif" font-size="10.00">SwitchBlock::isOriented</text>
</a>
</g>
</g>
<!-- Node2 -->
<g id="Node000002" class="node">
<title>Node2</title>
<g id="a_Node000002"><a xlink:href="classSwitchOrientator.html#a8132fa3495845481fdb68a3ec695af15" target="_top" xlink:title="Calcule et assigne les points tip CDC sur un SwitchBlock orienté.">
<polygon fill="white" stroke="#666666" points="1711.5,-115.5 1564.5,-115.5 1564.5,-85.5 1711.5,-85.5 1711.5,-115.5"/>
<text text-anchor="start" x="1572.5" y="-103.5" font-family="Helvetica,sans-Serif" font-size="10.00">SwitchOrientator::compute</text>
<text text-anchor="middle" x="1638" y="-92.5" font-family="Helvetica,sans-Serif" font-size="10.00">BranchTipPoints</text>
</a>
</g>
</g>
<!-- Node1&#45;&gt;Node2 -->
<g id="edge1_Node000001_Node000002" class="edge">
<title>Node1&#45;&gt;Node2</title>
<g id="a_edge1_Node000001_Node000002"><a xlink:title=" ">
<path fill="none" stroke="#63b8ff" d="M1768.45,-64.79C1745.65,-71.08 1717.69,-78.79 1693.6,-85.44"/>
<polygon fill="#63b8ff" stroke="#63b8ff" points="1769.5,-68.13 1778.21,-62.1 1767.64,-61.38 1769.5,-68.13"/>
</a>
</g>
</g>
<!-- Node12 -->
<g id="Node000012" class="node">
<title>Node12</title>
<g id="a_Node000012"><a xlink:href="classSwitchBlock.html#a003ca555f7f3dfd8e8057ae23dba9381" target="_top" xlink:title="Calcule et mémorise totalLengthMeters.">
<polygon fill="white" stroke="#666666" points="1712,-67.5 1564,-67.5 1564,-37.5 1712,-37.5 1712,-67.5"/>
<text text-anchor="start" x="1572" y="-55.5" font-family="Helvetica,sans-Serif" font-size="10.00">SwitchBlock::computeTotal</text>
<text text-anchor="middle" x="1638" y="-44.5" font-family="Helvetica,sans-Serif" font-size="10.00">Length</text>
</a>
</g>
</g>
<!-- Node1&#45;&gt;Node12 -->
<g id="edge11_Node000001_Node000012" class="edge">
<title>Node1&#45;&gt;Node12</title>
<g id="a_edge11_Node000001_Node000012"><a xlink:title=" ">
<path fill="none" stroke="#63b8ff" d="M1737.56,-52.5C1729.16,-52.5 1720.62,-52.5 1712.25,-52.5"/>
<polygon fill="#63b8ff" stroke="#63b8ff" points="1737.71,-56 1747.71,-52.5 1737.71,-49 1737.71,-56"/>
</a>
</g>
</g>
<!-- Node13 -->
<g id="Node000013" class="node">
<title>Node13</title>
<g id="a_Node000013"><a xlink:href="classSwitchBlock.html#a7a81608dca0e1a59b20f6f0c480435c5" target="_top" xlink:title="Retourne une représentation textuelle pour le débogage.">
<polygon fill="white" stroke="#666666" points="1698,-19 1578,-19 1578,0 1698,0 1698,-19"/>
<text text-anchor="middle" x="1638" y="-7" font-family="Helvetica,sans-Serif" font-size="10.00">SwitchBlock::toString</text>
</a>
</g>
</g>
<!-- Node1&#45;&gt;Node13 -->
<g id="edge12_Node000001_Node000013" class="edge">
<title>Node1&#45;&gt;Node13</title>
<g id="a_edge12_Node000001_Node000013"><a xlink:title=" ">
<path fill="none" stroke="#63b8ff" d="M1764.58,-40.53C1737.09,-33.74 1703.17,-25.36 1677.51,-19.02"/>
<polygon fill="#63b8ff" stroke="#63b8ff" points="1763.84,-43.96 1774.38,-42.96 1765.52,-37.16 1763.84,-43.96"/>
</a>
</g>
</g>
<!-- Node3 -->
<g id="Node000003" class="node">
<title>Node3</title>
<g id="a_Node000003"><a xlink:href="classSwitchOrientator.html#a5af1a097baad421ce01bd013be602df7" target="_top" xlink:title="Exécute les phases 6, 6b et 6c en place sur topoResult.switches.">
<polygon fill="white" stroke="#666666" points="1528,-110 1395,-110 1395,-91 1528,-91 1528,-110"/>
<text text-anchor="middle" x="1461.5" y="-98" font-family="Helvetica,sans-Serif" font-size="10.00">SwitchOrientator::orient</text>
</a>
</g>
</g>
<!-- Node2&#45;&gt;Node3 -->
<g id="edge2_Node000002_Node000003" class="edge">
<title>Node2&#45;&gt;Node3</title>
<g id="a_edge2_Node000002_Node000003"><a xlink:title=" ">
<path fill="none" stroke="#63b8ff" d="M1554.09,-100.5C1545.39,-100.5 1536.63,-100.5 1528.16,-100.5"/>
<polygon fill="#63b8ff" stroke="#63b8ff" points="1554.26,-104 1564.26,-100.5 1554.26,-97 1554.26,-104"/>
</a>
</g>
</g>
<!-- Node4 -->
<g id="Node000004" class="node">
<title>Node4</title>
<g id="a_Node000004"><a xlink:href="classGeoParser.html#aa4acc69a49444b9aa06b2c028b2c1133" target="_top" xlink:title="Lance le pipeline complet.">
<polygon fill="white" stroke="#666666" points="1359,-110 1260,-110 1260,-91 1359,-91 1359,-110"/>
<text text-anchor="middle" x="1309.5" y="-98" font-family="Helvetica,sans-Serif" font-size="10.00">GeoParser::parse</text>
</a>
</g>
</g>
<!-- Node3&#45;&gt;Node4 -->
<g id="edge3_Node000003_Node000004" class="edge">
<title>Node3&#45;&gt;Node4</title>
<g id="a_edge3_Node000003_Node000004"><a xlink:title=" ">
<path fill="none" stroke="#63b8ff" d="M1384.56,-100.5C1375.91,-100.5 1367.27,-100.5 1359.1,-100.5"/>
<polygon fill="#63b8ff" stroke="#63b8ff" points="1384.71,-104 1394.71,-100.5 1384.71,-97 1384.71,-104"/>
</a>
</g>
</g>
<!-- Node5 -->
<g id="Node000005" class="node">
<title>Node5</title>
<g id="a_Node000005"><a xlink:href="classGeoParsingTask.html#affe9d461e96e029708ced380b63da972" target="_top" xlink:title="Lance le parsing GeoJSON dans un thread séparé et détaché.">
<polygon fill="white" stroke="#666666" points="1224,-110 1093,-110 1093,-91 1224,-91 1224,-110"/>
<text text-anchor="middle" x="1158.5" y="-98" font-family="Helvetica,sans-Serif" font-size="10.00">GeoParsingTask::launch</text>
</a>
</g>
</g>
<!-- Node4&#45;&gt;Node5 -->
<g id="edge4_Node000004_Node000005" class="edge">
<title>Node4&#45;&gt;Node5</title>
<g id="a_edge4_Node000004_Node000005"><a xlink:title=" ">
<path fill="none" stroke="#63b8ff" d="M1249.65,-100.5C1241.27,-100.5 1232.6,-100.5 1224.12,-100.5"/>
<polygon fill="#63b8ff" stroke="#63b8ff" points="1249.71,-104 1259.71,-100.5 1249.71,-97 1249.71,-104"/>
</a>
</g>
</g>
<!-- Node6 -->
<g id="Node000006" class="node">
<title>Node6</title>
<g id="a_Node000006"><a xlink:href="classMainWindow.html#a889cc45fb741e12015f4af9f01acaa96" target="_top" xlink:title="Ouvre le sélecteur de fichier et lance le parsing asynchrone.">
<polygon fill="white" stroke="#666666" points="1057,-110 917,-110 917,-91 1057,-91 1057,-110"/>
<text text-anchor="middle" x="987" y="-98" font-family="Helvetica,sans-Serif" font-size="10.00">MainWindow::onFileOpen</text>
</a>
</g>
</g>
<!-- Node5&#45;&gt;Node6 -->
<g id="edge5_Node000005_Node000006" class="edge">
<title>Node5&#45;&gt;Node6</title>
<g id="a_edge5_Node000005_Node000006"><a xlink:title=" ">
<path fill="none" stroke="#63b8ff" d="M1082.68,-100.5C1074.2,-100.5 1065.59,-100.5 1057.18,-100.5"/>
<polygon fill="#63b8ff" stroke="#63b8ff" points="1082.94,-104 1092.94,-100.5 1082.94,-97 1082.94,-104"/>
</a>
</g>
</g>
<!-- Node7 -->
<g id="Node000007" class="node">
<title>Node7</title>
<g id="a_Node000007"><a xlink:href="classMainWindow.html#afbecf0f64f48c5c868168884bab52356" target="_top" xlink:title="Gère les commandes menu (WM_COMMAND).">
<polygon fill="white" stroke="#666666" points="881,-110 734,-110 734,-91 881,-91 881,-110"/>
<text text-anchor="middle" x="807.5" y="-98" font-family="Helvetica,sans-Serif" font-size="10.00">MainWindow::onCommand</text>
</a>
</g>
</g>
<!-- Node6&#45;&gt;Node7 -->
<g id="edge6_Node000006_Node000007" class="edge">
<title>Node6&#45;&gt;Node7</title>
<g id="a_edge6_Node000006_Node000007"><a xlink:title=" ">
<path fill="none" stroke="#63b8ff" d="M906.64,-100.5C898.19,-100.5 889.62,-100.5 881.26,-100.5"/>
<polygon fill="#63b8ff" stroke="#63b8ff" points="906.87,-104 916.87,-100.5 906.87,-97 906.87,-104"/>
</a>
</g>
</g>
<!-- Node8 -->
<g id="Node000008" class="node">
<title>Node8</title>
<g id="a_Node000008"><a xlink:href="classMainWindow.html#ab85682874f3ab5dfa81f782f889d8556" target="_top" xlink:title="Dispatcher principal des messages de la fenêtre.">
<polygon fill="white" stroke="#666666" points="698,-110 537,-110 537,-91 698,-91 698,-110"/>
<text text-anchor="middle" x="617.5" y="-98" font-family="Helvetica,sans-Serif" font-size="10.00">MainWindow::handleMessage</text>
</a>
</g>
</g>
<!-- Node7&#45;&gt;Node8 -->
<g id="edge7_Node000007_Node000008" class="edge">
<title>Node7&#45;&gt;Node8</title>
<g id="a_edge7_Node000007_Node000008"><a xlink:title=" ">
<path fill="none" stroke="#63b8ff" d="M723.59,-100.5C715.15,-100.5 706.58,-100.5 698.17,-100.5"/>
<polygon fill="#63b8ff" stroke="#63b8ff" points="723.81,-104 733.81,-100.5 723.81,-97 723.81,-104"/>
</a>
</g>
</g>
<!-- Node9 -->
<g id="Node000009" class="node">
<title>Node9</title>
<g id="a_Node000009"><a xlink:href="classMainWindow.html#a332648d0a0caec8070b05bc27bb9a14b" target="_top" xlink:title="Procédure de fenêtre statique, point d&#39;entrée imposé par Win32.">
<polygon fill="white" stroke="#666666" points="501,-110 358,-110 358,-91 501,-91 501,-110"/>
<text text-anchor="middle" x="429.5" y="-98" font-family="Helvetica,sans-Serif" font-size="10.00">MainWindow::windowProc</text>
</a>
</g>
</g>
<!-- Node8&#45;&gt;Node9 -->
<g id="edge8_Node000008_Node000009" class="edge">
<title>Node8&#45;&gt;Node9</title>
<g id="a_edge8_Node000008_Node000009"><a xlink:title=" ">
<path fill="none" stroke="#63b8ff" d="M526.77,-100.5C518.2,-100.5 509.58,-100.5 501.22,-100.5"/>
<polygon fill="#63b8ff" stroke="#63b8ff" points="526.81,-104 536.81,-100.5 526.81,-97 526.81,-104"/>
</a>
</g>
</g>
<!-- Node10 -->
<g id="Node000010" class="node">
<title>Node10</title>
<g id="a_Node000010"><a xlink:href="classApplication.html#a0bda40de108938fd29374335bf4eac71" target="_top" xlink:title="Enregistre la classe de fenêtre Win32 (WNDCLASSEXW).">
<polygon fill="white" stroke="#666666" points="322,-115.5 168,-115.5 168,-85.5 322,-85.5 322,-115.5"/>
<text text-anchor="start" x="176" y="-103.5" font-family="Helvetica,sans-Serif" font-size="10.00">Application::registerWindow</text>
<text text-anchor="middle" x="245" y="-92.5" font-family="Helvetica,sans-Serif" font-size="10.00">Class</text>
</a>
</g>
</g>
<!-- Node9&#45;&gt;Node10 -->
<g id="edge9_Node000009_Node000010" class="edge">
<title>Node9&#45;&gt;Node10</title>
<g id="a_edge9_Node000009_Node000010"><a xlink:title=" ">
<path fill="none" stroke="#63b8ff" d="M347.66,-100.5C339.17,-100.5 330.56,-100.5 322.12,-100.5"/>
<polygon fill="#63b8ff" stroke="#63b8ff" points="347.94,-104 357.94,-100.5 347.94,-97 347.94,-104"/>
</a>
</g>
</g>
<!-- Node11 -->
<g id="Node000011" class="node">
<title>Node11</title>
<g id="a_Node000011"><a xlink:href="classApplication.html#a719cf091afd2276d52f9a58e4962ebfb" target="_top" xlink:title="Construit l&#39;application et enregistre la classe de fenêtre.">
<polygon fill="white" stroke="#666666" points="132,-110 0,-110 0,-91 132,-91 132,-110"/>
<text text-anchor="middle" x="66" y="-98" font-family="Helvetica,sans-Serif" font-size="10.00">Application::Application</text>
</a>
</g>
</g>
<!-- Node10&#45;&gt;Node11 -->
<g id="edge10_Node000010_Node000011" class="edge">
<title>Node10&#45;&gt;Node11</title>
<g id="a_edge10_Node000010_Node000011"><a xlink:title=" ">
<path fill="none" stroke="#63b8ff" d="M157.82,-100.5C149.19,-100.5 140.53,-100.5 132.18,-100.5"/>
<polygon fill="#63b8ff" stroke="#63b8ff" points="157.91,-104 167.91,-100.5 157.91,-97 157.91,-104"/>
</a>
</g>
</g>
</g>
</svg>
