<?xml version="1.0" encoding="UTF-8" standalone="no"?>
<!DOCTYPE svg PUBLIC "-//W3C//DTD SVG 1.1//EN"
 "http://www.w3.org/Graphics/SVG/1.1/DTD/svg11.dtd">
<!-- Generated by graphviz version 2.43.0 (0)
 -->
<!-- Title: GeoJsonExporter::renderAllStraightBlocks Pages: 1 -->
<svg width="563pt" height="165pt"
 viewBox="0.00 0.00 563.00 164.50" xmlns="http://www.w3.org/2000/svg" xmlns:xlink="http://www.w3.org/1999/xlink">
<g id="graph0" class="graph" transform="scale(1 1) rotate(0) translate(4 160.5)">
<title>GeoJsonExporter::renderAllStraightBlocks</title>
<!-- Node1 -->
<g id="Node000001" class="node">
<title>Node1</title>
<g id="a_Node000001"><a xlink:title="Efface puis redessine tous les StraightBlocks.">
<polygon fill="#999999" stroke="#666666" points="148,-90.5 0,-90.5 0,-60.5 148,-60.5 148,-90.5"/>
<text text-anchor="start" x="8" y="-78.5" font-family="Helvetica,sans-Serif" font-size="10.00">GeoJsonExporter::renderAll</text>
<text text-anchor="middle" x="74" y="-67.5" font-family="Helvetica,sans-Serif" font-size="10.00">StraightBlocks</text>
</a>
</g>
</g>
<!-- Node2 -->
<g id="Node000002" class="node">
<title>Node2</title>
<g id="a_Node000002"><a xlink:href="classTopologyRepository.html#a0179f504f5d22ea5b16926511a9cb027" target="_top" xlink:title="Retourne une référence mutable aux données topologiques.">
<polygon fill="white" stroke="#666666" points="327,-156.5 214,-156.5 214,-126.5 327,-126.5 327,-156.5"/>
<text text-anchor="start" x="222" y="-144.5" font-family="Helvetica,sans-Serif" font-size="10.00">TopologyRepository</text>
<text text-anchor="middle" x="270.5" y="-133.5" font-family="Helvetica,sans-Serif" font-size="10.00">::data</text>
</a>
</g>
</g>
<!-- Node1&#45;&gt;Node2 -->
<g id="edge1_Node000001_Node000002" class="edge">
<title>Node1&#45;&gt;Node2</title>
<g id="a_edge1_Node000001_Node000002"><a xlink:title=" ">
<path fill="none" stroke="#63b8ff" d="M111.52,-90.56C132.54,-98.98 159.56,-109.38 184,-117.5 190.39,-119.62 197.09,-121.72 203.8,-123.74"/>
<polygon fill="#63b8ff" stroke="#63b8ff" points="203.04,-127.16 213.62,-126.63 205.02,-120.45 203.04,-127.16"/>
</a>
</g>
</g>
<!-- Node3 -->
<g id="Node000003" class="node">
<title>Node3</title>
<g id="a_Node000003"><a xlink:href="classTopologyRepository.html#adb001f817a74b4b81e05d0d22517f509" target="_top" xlink:title="Retourne l&#39;instance unique du repository (création paresseuse).">
<polygon fill="white" stroke="#666666" points="327,-90.5 214,-90.5 214,-60.5 327,-60.5 327,-90.5"/>
<text text-anchor="start" x="222" y="-78.5" font-family="Helvetica,sans-Serif" font-size="10.00">TopologyRepository</text>
<text text-anchor="middle" x="270.5" y="-67.5" font-family="Helvetica,sans-Serif" font-size="10.00">::instance</text>
</a>
</g>
</g>
<!-- Node1&#45;&gt;Node3 -->
<g id="edge2_Node000001_Node000003" class="edge">
<title>Node1&#45;&gt;Node3</title>
<g id="a_edge2_Node000001_Node000003"><a xlink:title=" ">
<path fill="none" stroke="#63b8ff" d="M148.25,-75.5C166.44,-75.5 185.82,-75.5 203.62,-75.5"/>
<polygon fill="#63b8ff" stroke="#63b8ff" points="203.9,-79 213.9,-75.5 203.9,-72 203.9,-79"/>
</a>
</g>
</g>
<!-- Node4 -->
<g id="Node000004" class="node">
<title>Node4</title>
<g id="a_Node000004"><a xlink:href="classGeoJsonExporter.html#aceb585d865614f5183a3fd00dbf9a55d" target="_top" xlink:title="Construit l&#39;appel JS renderStraightBlock(id, coords) pour un bloc.">
<polygon fill="white" stroke="#666666" points="357,-42.5 184,-42.5 184,-12.5 357,-12.5 357,-42.5"/>
<text text-anchor="start" x="192" y="-30.5" font-family="Helvetica,sans-Serif" font-size="10.00">GeoJsonExporter::renderStraight</text>
<text text-anchor="middle" x="270.5" y="-19.5" font-family="Helvetica,sans-Serif" font-size="10.00">Block</text>
</a>
</g>
</g>
<!-- Node1&#45;&gt;Node4 -->
<g id="edge4_Node000001_Node000004" class="edge">
<title>Node1&#45;&gt;Node4</title>
<g id="a_edge4_Node000001_Node000004"><a xlink:title=" ">
<path fill="none" stroke="#63b8ff" d="M136.01,-60.44C155.92,-55.53 178.2,-50.03 198.77,-44.96"/>
<polygon fill="#63b8ff" stroke="#63b8ff" points="199.84,-48.3 208.71,-42.5 198.16,-41.5 199.84,-48.3"/>
</a>
</g>
</g>
<!-- Node3&#45;&gt;Node3 -->
<g id="edge3_Node000003_Node000003" class="edge">
<title>Node3&#45;&gt;Node3</title>
<g id="a_edge3_Node000003_Node000003"><a xlink:title=" ">
<path fill="none" stroke="#63b8ff" d="M236.05,-90.78C228.39,-99.91 239.88,-108.5 270.5,-108.5 288.68,-108.5 300.12,-105.47 304.81,-101.1"/>
<polygon fill="#63b8ff" stroke="#63b8ff" points="308.31,-100.82 304.95,-90.78 301.31,-100.72 308.31,-100.82"/>
</a>
</g>
</g>
<!-- Node5 -->
<g id="Node000005" class="node">
<title>Node5</title>
<g id="a_Node000005"><a xlink:href="classStraightBlock.html#a646d3135d365dcb832ff66b1304c6850" target="_top" xlink:title=" ">
<polygon fill="white" stroke="#666666" points="555,-56 393,-56 393,-37 555,-37 555,-56"/>
<text text-anchor="middle" x="474" y="-44" font-family="Helvetica,sans-Serif" font-size="10.00">StraightBlock::getCoordinates</text>
</a>
</g>
</g>
<!-- Node4&#45;&gt;Node5 -->
<g id="edge5_Node000004_Node000005" class="edge">
<title>Node4&#45;&gt;Node5</title>
<g id="a_edge5_Node000004_Node000005"><a xlink:title=" ">
<path fill="none" stroke="#63b8ff" d="M357.25,-35.59C365.62,-36.38 374.14,-37.18 382.56,-37.97"/>
<polygon fill="#63b8ff" stroke="#63b8ff" points="382.49,-41.48 392.77,-38.93 383.14,-34.51 382.49,-41.48"/>
</a>
</g>
</g>
<!-- Node6 -->
<g id="Node000006" class="node">
<title>Node6</title>
<g id="a_Node000006"><a xlink:href="classStraightBlock.html#a295060fddd0675834ce4755ae4787780" target="_top" xlink:title="Retourne l&#39;identifiant unique de l&#39;élément (ex. &quot;sw/3&quot;, &quot;s/12&quot;).">
<polygon fill="white" stroke="#666666" points="530.5,-19 417.5,-19 417.5,0 530.5,0 530.5,-19"/>
<text text-anchor="middle" x="474" y="-7" font-family="Helvetica,sans-Serif" font-size="10.00">StraightBlock::getId</text>
</a>
</g>
</g>
<!-- Node4&#45;&gt;Node6 -->
<g id="edge6_Node000004_Node000006" class="edge">
<title>Node4&#45;&gt;Node6</title>
<g id="a_edge6_Node000004_Node000006"><a xlink:title=" ">
<path fill="none" stroke="#63b8ff" d="M357.25,-19.84C373.94,-18.35 391.2,-16.81 407.13,-15.38"/>
<polygon fill="#63b8ff" stroke="#63b8ff" points="407.74,-18.84 417.39,-14.47 407.11,-11.87 407.74,-18.84"/>
</a>
</g>
</g>
</g>
</svg>
