<?xml version="1.0" encoding="UTF-8" standalone="no"?>
<!DOCTYPE svg PUBLIC "-//W3C//DTD SVG 1.1//EN"
 "http://www.w3.org/Graphics/SVG/1.1/DTD/svg11.dtd">
<!-- Generated by graphviz version 2.43.0 (0)
 -->
<!-- Title: ShuntingElement::getState Pages: 1 -->
<svg width="350pt" height="101pt"
 viewBox="0.00 0.00 350.00 101.00" xmlns="http://www.w3.org/2000/svg" xmlns:xlink="http://www.w3.org/1999/xlink">
<g id="graph0" class="graph" transform="scale(1 1) rotate(0) translate(4 97)">
<title>ShuntingElement::getState</title>
<!-- Node1 -->
<g id="Node000001" class="node">
<title>Node1</title>
<g id="a_Node000001"><a xlink:title="Retourne l&#39;état opérationnel courant de l&#39;élément.">
<polygon fill="#999999" stroke="#666666" points="342,-56 195,-56 195,-37 342,-37 342,-56"/>
<text text-anchor="middle" x="268.5" y="-44" font-family="Helvetica,sans-Serif" font-size="10.00">ShuntingElement::getState</text>
</a>
</g>
</g>
<!-- Node2 -->
<g id="Node000002" class="node">
<title>Node2</title>
<g id="a_Node000002"><a xlink:href="classShuntingElement.html#a679c294d3ca6d857e7ffa69eaed76c92" target="_top" xlink:title="Retourne true si l&#39;élément est libre.">
<polygon fill="white" stroke="#666666" points="147,-93 12,-93 12,-74 147,-74 147,-93"/>
<text text-anchor="middle" x="79.5" y="-81" font-family="Helvetica,sans-Serif" font-size="10.00">ShuntingElement::isFree</text>
</a>
</g>
</g>
<!-- Node1&#45;&gt;Node2 -->
<g id="edge1_Node000001_Node000002" class="edge">
<title>Node1&#45;&gt;Node2</title>
<g id="a_edge1_Node000001_Node000002"><a xlink:title=" ">
<path fill="none" stroke="#63b8ff" d="M209.3,-58.02C183.45,-63.13 153.4,-69.08 128.82,-73.94"/>
<polygon fill="#63b8ff" stroke="#63b8ff" points="210.21,-61.4 219.34,-56.03 208.85,-54.54 210.21,-61.4"/>
</a>
</g>
</g>
<!-- Node3 -->
<g id="Node000003" class="node">
<title>Node3</title>
<g id="a_Node000003"><a xlink:href="classShuntingElement.html#ac236019e6961a887732237cc5f1da697" target="_top" xlink:title="Retourne true si l&#39;élément est hors service.">
<polygon fill="white" stroke="#666666" points="156,-56 3,-56 3,-37 156,-37 156,-56"/>
<text text-anchor="middle" x="79.5" y="-44" font-family="Helvetica,sans-Serif" font-size="10.00">ShuntingElement::isInactive</text>
</a>
</g>
</g>
<!-- Node1&#45;&gt;Node3 -->
<g id="edge2_Node000001_Node000003" class="edge">
<title>Node1&#45;&gt;Node3</title>
<g id="a_edge2_Node000001_Node000003"><a xlink:title=" ">
<path fill="none" stroke="#63b8ff" d="M184.69,-46.5C175.18,-46.5 165.52,-46.5 156.12,-46.5"/>
<polygon fill="#63b8ff" stroke="#63b8ff" points="184.93,-50 194.93,-46.5 184.93,-43 184.93,-50"/>
</a>
</g>
</g>
<!-- Node4 -->
<g id="Node000004" class="node">
<title>Node4</title>
<g id="a_Node000004"><a xlink:href="classShuntingElement.html#a6b545a802c6d06e1f8fb77a59f4ed0a4" target="_top" xlink:title="Retourne true si l&#39;élément est occupé.">
<polygon fill="white" stroke="#666666" points="159,-19 0,-19 0,0 159,0 159,-19"/>
<text text-anchor="middle" x="79.5" y="-7" font-family="Helvetica,sans-Serif" font-size="10.00">ShuntingElement::isOccupied</text>
</a>
</g>
</g>
<!-- Node1&#45;&gt;Node4 -->
<g id="edge3_Node000001_Node000004" class="edge">
<title>Node1&#45;&gt;Node4</title>
<g id="a_edge3_Node000001_Node000004"><a xlink:title=" ">
<path fill="none" stroke="#63b8ff" d="M209.3,-34.98C183.45,-29.87 153.4,-23.92 128.82,-19.06"/>
<polygon fill="#63b8ff" stroke="#63b8ff" points="208.85,-38.46 219.34,-36.97 210.21,-31.6 208.85,-38.46"/>
</a>
</g>
</g>
</g>
</svg>
