<?xml version="1.0" encoding="UTF-8" standalone="no"?>
<!DOCTYPE svg PUBLIC "-//W3C//DTD SVG 1.1//EN"
 "http://www.w3.org/Graphics/SVG/1.1/DTD/svg11.dtd">
<!-- Generated by graphviz version 2.43.0 (0)
 -->
<!-- Title: TopologyExtractor::extract Pages: 1 -->
<svg width="902pt" height="386pt"
 viewBox="0.00 0.00 902.00 385.50" xmlns="http://www.w3.org/2000/svg" xmlns:xlink="http://www.w3.org/1999/xlink">
<g id="graph0" class="graph" transform="scale(1 1) rotate(0) translate(4 381.5)">
<title>TopologyExtractor::extract</title>
<!-- Node1 -->
<g id="Node000001" class="node">
<title>Node1</title>
<g id="a_Node000001"><a xlink:title="Exécute les phases 3, 4, 5a et 5b et retourne le résultat.">
<polygon fill="#999999" stroke="#666666" points="110,-149.5 0,-149.5 0,-119.5 110,-119.5 110,-149.5"/>
<text text-anchor="start" x="8" y="-137.5" font-family="Helvetica,sans-Serif" font-size="10.00">TopologyExtractor::</text>
<text text-anchor="middle" x="55" y="-126.5" font-family="Helvetica,sans-Serif" font-size="10.00">extract</text>
</a>
</g>
</g>
<!-- Node2 -->
<g id="Node000002" class="node">
<title>Node2</title>
<g id="a_Node000002"><a xlink:href="classTopologyExtractor.html#abfb30b40b7194303e6c828d802dd1175" target="_top" xlink:title=" ">
<polygon fill="white" stroke="#666666" points="256,-125.5 146,-125.5 146,-95.5 256,-95.5 256,-125.5"/>
<text text-anchor="start" x="154" y="-113.5" font-family="Helvetica,sans-Serif" font-size="10.00">TopologyExtractor::</text>
<text text-anchor="middle" x="201" y="-102.5" font-family="Helvetica,sans-Serif" font-size="10.00">detectSwitches</text>
</a>
</g>
</g>
<!-- Node1&#45;&gt;Node2 -->
<g id="edge1_Node000001_Node000002" class="edge">
<title>Node1&#45;&gt;Node2</title>
<g id="a_edge1_Node000001_Node000002"><a xlink:title=" ">
<path fill="none" stroke="#63b8ff" d="M110.03,-125.5C118.4,-124.1 127.13,-122.65 135.7,-121.22"/>
<polygon fill="#63b8ff" stroke="#63b8ff" points="136.38,-124.65 145.67,-119.56 135.23,-117.75 136.38,-124.65"/>
</a>
</g>
</g>
<!-- Node5 -->
<g id="Node000005" class="node">
<title>Node5</title>
<g id="a_Node000005"><a xlink:href="classTopologyExtractor.html#a8003022ac7f09c074969ec22d3305429" target="_top" xlink:title=" ">
<polygon fill="white" stroke="#666666" points="256,-249.5 146,-249.5 146,-219.5 256,-219.5 256,-249.5"/>
<text text-anchor="start" x="154" y="-237.5" font-family="Helvetica,sans-Serif" font-size="10.00">TopologyExtractor::</text>
<text text-anchor="middle" x="201" y="-226.5" font-family="Helvetica,sans-Serif" font-size="10.00">extractStraights</text>
</a>
</g>
</g>
<!-- Node1&#45;&gt;Node5 -->
<g id="edge4_Node000001_Node000005" class="edge">
<title>Node1&#45;&gt;Node5</title>
<g id="a_edge4_Node000001_Node000005"><a xlink:title=" ">
<path fill="none" stroke="#63b8ff" d="M75.29,-149.66C93.27,-163.6 120.98,-184.6 146,-201.5 152.2,-205.69 158.91,-209.98 165.44,-214.03"/>
<polygon fill="#63b8ff" stroke="#63b8ff" points="163.79,-217.12 174.15,-219.36 167.45,-211.15 163.79,-217.12"/>
</a>
</g>
</g>
<!-- Node12 -->
<g id="Node000012" class="node">
<title>Node12</title>
<g id="a_Node000012"><a xlink:href="classTopologyExtractor.html#a8fe29fd6ba117f652d0e545869a99c61" target="_top" xlink:title=" ">
<polygon fill="white" stroke="#666666" points="256,-192.5 146,-192.5 146,-162.5 256,-162.5 256,-192.5"/>
<text text-anchor="start" x="154" y="-180.5" font-family="Helvetica,sans-Serif" font-size="10.00">TopologyExtractor::</text>
<text text-anchor="middle" x="201" y="-169.5" font-family="Helvetica,sans-Serif" font-size="10.00">splitLongStraights</text>
</a>
</g>
</g>
<!-- Node1&#45;&gt;Node12 -->
<g id="edge12_Node000001_Node000012" class="edge">
<title>Node1&#45;&gt;Node12</title>
<g id="a_edge12_Node000001_Node000012"><a xlink:title=" ">
<path fill="none" stroke="#63b8ff" d="M106.36,-149.54C117.15,-152.76 128.66,-156.2 139.78,-159.52"/>
<polygon fill="#63b8ff" stroke="#63b8ff" points="138.84,-162.89 149.42,-162.4 140.84,-156.18 138.84,-162.89"/>
</a>
</g>
</g>
<!-- Node16 -->
<g id="Node000016" class="node">
<title>Node16</title>
<g id="a_Node000016"><a xlink:href="classTopologyExtractor.html#ad16f6760ca59d58d9e37dee7404071d6" target="_top" xlink:title=" ">
<polygon fill="white" stroke="#666666" points="256,-67.5 146,-67.5 146,-37.5 256,-37.5 256,-67.5"/>
<text text-anchor="start" x="154" y="-55.5" font-family="Helvetica,sans-Serif" font-size="10.00">TopologyExtractor::</text>
<text text-anchor="middle" x="201" y="-44.5" font-family="Helvetica,sans-Serif" font-size="10.00">wireTopology</text>
</a>
</g>
</g>
<!-- Node1&#45;&gt;Node16 -->
<g id="edge18_Node000001_Node000016" class="edge">
<title>Node1&#45;&gt;Node16</title>
<g id="a_edge18_Node000001_Node000016"><a xlink:title=" ">
<path fill="none" stroke="#63b8ff" d="M82.41,-119.46C105.41,-106.37 138.94,-87.27 164.32,-72.82"/>
<polygon fill="#63b8ff" stroke="#63b8ff" points="166.31,-75.71 173.27,-67.72 162.85,-69.63 166.31,-75.71"/>
</a>
</g>
</g>
<!-- Node3 -->
<g id="Node000003" class="node">
<title>Node3</title>
<g id="a_Node000003"><a xlink:href="classGeometryUtils.html#a0dfa23ddf2d80abfeaeac186ae124fd0" target="_top" xlink:title="Convertit une coordonnée métrique UTM en WGS&#45;84.">
<polygon fill="white" stroke="#666666" points="671,-233.5 525,-233.5 525,-203.5 671,-203.5 671,-233.5"/>
<text text-anchor="start" x="533" y="-221.5" font-family="Helvetica,sans-Serif" font-size="10.00">GeometryUtils::metricUtm</text>
<text text-anchor="middle" x="598" y="-210.5" font-family="Helvetica,sans-Serif" font-size="10.00">ToWgs84</text>
</a>
</g>
</g>
<!-- Node2&#45;&gt;Node3 -->
<g id="edge2_Node000002_Node000003" class="edge">
<title>Node2&#45;&gt;Node3</title>
<g id="a_edge2_Node000002_Node000003"><a xlink:title=" ">
<path fill="none" stroke="#63b8ff" d="M256.11,-95.5C313.62,-82.92 404.8,-72.96 468,-114.5 500.58,-135.92 474.19,-169.37 504,-194.5 507.54,-197.48 511.4,-200.1 515.48,-202.4"/>
<polygon fill="#63b8ff" stroke="#63b8ff" points="514.19,-205.66 524.7,-206.93 517.27,-199.38 514.19,-205.66"/>
</a>
</g>
</g>
<!-- Node4 -->
<g id="Node000004" class="node">
<title>Node4</title>
<g id="a_Node000004"><a xlink:href="classGeometryUtils.html#a0a57b43055d32f595a7c84dbd7d098e3" target="_top" xlink:title="Retourne le méridien central (degrés) d&#39;une zone UTM.">
<polygon fill="white" stroke="#666666" points="885.5,-212.5 736.5,-212.5 736.5,-182.5 885.5,-182.5 885.5,-212.5"/>
<text text-anchor="start" x="744.5" y="-200.5" font-family="Helvetica,sans-Serif" font-size="10.00">GeometryUtils::utmCentral</text>
<text text-anchor="middle" x="811" y="-189.5" font-family="Helvetica,sans-Serif" font-size="10.00">MeridianDegrees</text>
</a>
</g>
</g>
<!-- Node3&#45;&gt;Node4 -->
<g id="edge3_Node000003_Node000004" class="edge">
<title>Node3&#45;&gt;Node4</title>
<g id="a_edge3_Node000003_Node000004"><a xlink:title=" ">
<path fill="none" stroke="#63b8ff" d="M671.02,-211.33C688.75,-209.57 707.89,-207.66 726.12,-205.85"/>
<polygon fill="#63b8ff" stroke="#63b8ff" points="726.54,-209.32 736.15,-204.85 725.85,-202.36 726.54,-209.32"/>
</a>
</g>
</g>
<!-- Node6 -->
<g id="Node000006" class="node">
<title>Node6</title>
<g id="a_Node000006"><a xlink:href="classGeometryUtils.html#aba6963b2f6022f04e51fb716a11e3895" target="_top" xlink:title="Convertit une polyligne métrique UTM en WGS&#45;84.">
<polygon fill="white" stroke="#666666" points="465,-249.5 295,-249.5 295,-219.5 465,-219.5 465,-249.5"/>
<text text-anchor="start" x="303" y="-237.5" font-family="Helvetica,sans-Serif" font-size="10.00">GeometryUtils::convertPolyline</text>
<text text-anchor="middle" x="380" y="-226.5" font-family="Helvetica,sans-Serif" font-size="10.00">ToWgs84</text>
</a>
</g>
</g>
<!-- Node5&#45;&gt;Node6 -->
<g id="edge5_Node000005_Node000006" class="edge">
<title>Node5&#45;&gt;Node6</title>
<g id="a_edge5_Node000005_Node000006"><a xlink:title=" ">
<path fill="none" stroke="#63b8ff" d="M256.07,-234.5C265.2,-234.5 274.91,-234.5 284.71,-234.5"/>
<polygon fill="#63b8ff" stroke="#63b8ff" points="284.94,-238 294.94,-234.5 284.94,-231 284.94,-238"/>
</a>
</g>
</g>
<!-- Node7 -->
<g id="Node000007" class="node">
<title>Node7</title>
<g id="a_Node000007"><a xlink:href="classTopologyExtractor.html#a27bf51ac35232011f385f6d426b4ee89" target="_top" xlink:title="Marche le graphe depuis startNodeId le long de incomingEdgeId jusqu&#39;au prochain nœud frontière.">
<polygon fill="white" stroke="#666666" points="445.5,-318.5 314.5,-318.5 314.5,-288.5 445.5,-288.5 445.5,-318.5"/>
<text text-anchor="start" x="322.5" y="-306.5" font-family="Helvetica,sans-Serif" font-size="10.00">TopologyExtractor::</text>
<text text-anchor="middle" x="380" y="-295.5" font-family="Helvetica,sans-Serif" font-size="10.00">walkPathUntilBoundary</text>
</a>
</g>
</g>
<!-- Node5&#45;&gt;Node7 -->
<g id="edge7_Node000005_Node000007" class="edge">
<title>Node5&#45;&gt;Node7</title>
<g id="a_edge7_Node000005_Node000007"><a xlink:title=" ">
<path fill="none" stroke="#63b8ff" d="M240.84,-249.64C267.24,-259.93 302.36,-273.62 330.58,-284.62"/>
<polygon fill="#63b8ff" stroke="#63b8ff" points="329.66,-288.02 340.25,-288.39 332.2,-281.5 329.66,-288.02"/>
</a>
</g>
</g>
<!-- Node6&#45;&gt;Node3 -->
<g id="edge6_Node000006_Node000003" class="edge">
<title>Node6&#45;&gt;Node3</title>
<g id="a_edge6_Node000006_Node000003"><a xlink:title=" ">
<path fill="none" stroke="#63b8ff" d="M465.13,-228.27C481.41,-227.06 498.46,-225.8 514.68,-224.6"/>
<polygon fill="#63b8ff" stroke="#63b8ff" points="514.95,-228.09 524.67,-223.86 514.44,-221.11 514.95,-228.09"/>
</a>
</g>
</g>
<!-- Node8 -->
<g id="Node000008" class="node">
<title>Node8</title>
<g id="a_Node000008"><a xlink:href="classTopologyGraph.html#a07cb1a1808c40751d01dd7d43d335024" target="_top" xlink:title="Retourne l&#39;arête sortante en atNodeId la plus colinéaire à incomingEdgeId.">
<polygon fill="white" stroke="#666666" points="688.5,-281.5 507.5,-281.5 507.5,-251.5 688.5,-251.5 688.5,-281.5"/>
<text text-anchor="start" x="515.5" y="-269.5" font-family="Helvetica,sans-Serif" font-size="10.00">TopologyGraph::findMostCollinear</text>
<text text-anchor="middle" x="598" y="-258.5" font-family="Helvetica,sans-Serif" font-size="10.00">Continuation</text>
</a>
</g>
</g>
<!-- Node7&#45;&gt;Node8 -->
<g id="edge8_Node000007_Node000008" class="edge">
<title>Node7&#45;&gt;Node8</title>
<g id="a_edge8_Node000007_Node000008"><a xlink:title=" ">
<path fill="none" stroke="#63b8ff" d="M445.51,-292.45C462.4,-289.56 480.99,-286.37 499.19,-283.25"/>
<polygon fill="#63b8ff" stroke="#63b8ff" points="499.98,-286.67 509.25,-281.53 498.8,-279.77 499.98,-286.67"/>
</a>
</g>
</g>
<!-- Node10 -->
<g id="Node000010" class="node">
<title>Node10</title>
<g id="a_Node000010"><a xlink:href="classTopologyGraph.html#a7c086df2f9774459710f88d37158b745" target="_top" xlink:title="Retourne le degré d&#39;un nœud (nombre d&#39;arêtes incidentes).">
<polygon fill="white" stroke="#666666" points="671,-377.5 525,-377.5 525,-347.5 671,-347.5 671,-377.5"/>
<text text-anchor="start" x="533" y="-365.5" font-family="Helvetica,sans-Serif" font-size="10.00">TopologyGraph::getDegree</text>
<text text-anchor="middle" x="598" y="-354.5" font-family="Helvetica,sans-Serif" font-size="10.00">OfNode</text>
</a>
</g>
</g>
<!-- Node7&#45;&gt;Node10 -->
<g id="edge10_Node000007_Node000010" class="edge">
<title>Node7&#45;&gt;Node10</title>
<g id="a_edge10_Node000007_Node000010"><a xlink:title=" ">
<path fill="none" stroke="#63b8ff" d="M432.69,-318.51C454.64,-324.81 480.54,-332.14 504,-338.5 511.78,-340.61 519.94,-342.78 528.05,-344.91"/>
<polygon fill="#63b8ff" stroke="#63b8ff" points="527.34,-348.34 537.9,-347.48 529.11,-341.57 527.34,-348.34"/>
</a>
</g>
</g>
<!-- Node11 -->
<g id="Node000011" class="node">
<title>Node11</title>
<g id="a_Node000011"><a xlink:href="classTopologyGraph.html#aada47ec2c5b5ebc4ccf72b4b4c4f5e01" target="_top" xlink:title="Retourne l&#39;ID du nœud de l&#39;autre extrémité d&#39;une arête.">
<polygon fill="white" stroke="#666666" points="675.5,-329.5 520.5,-329.5 520.5,-299.5 675.5,-299.5 675.5,-329.5"/>
<text text-anchor="start" x="528.5" y="-317.5" font-family="Helvetica,sans-Serif" font-size="10.00">TopologyGraph::getOpposite</text>
<text text-anchor="middle" x="598" y="-306.5" font-family="Helvetica,sans-Serif" font-size="10.00">NodeId</text>
</a>
</g>
</g>
<!-- Node7&#45;&gt;Node11 -->
<g id="edge11_Node000007_Node000011" class="edge">
<title>Node7&#45;&gt;Node11</title>
<g id="a_edge11_Node000007_Node000011"><a xlink:title=" ">
<path fill="none" stroke="#63b8ff" d="M445.51,-306.79C465.8,-307.82 488.54,-308.98 510.11,-310.07"/>
<polygon fill="#63b8ff" stroke="#63b8ff" points="510.09,-313.58 520.25,-310.59 510.44,-306.59 510.09,-313.58"/>
</a>
</g>
</g>
<!-- Node9 -->
<g id="Node000009" class="node">
<title>Node9</title>
<g id="a_Node000009"><a xlink:href="classGeometryUtils.html#aa07ef087c8f85eb14e28f69875ecf41f" target="_top" xlink:title="Calcule l&#39;angle non&#45;signé (radians) entre deux vecteurs 2&#45;D.">
<polygon fill="white" stroke="#666666" points="894,-281.5 728,-281.5 728,-251.5 894,-251.5 894,-281.5"/>
<text text-anchor="start" x="736" y="-269.5" font-family="Helvetica,sans-Serif" font-size="10.00">GeometryUtils::unsignedAngle</text>
<text text-anchor="middle" x="811" y="-258.5" font-family="Helvetica,sans-Serif" font-size="10.00">BetweenVectors</text>
</a>
</g>
</g>
<!-- Node8&#45;&gt;Node9 -->
<g id="edge9_Node000008_Node000009" class="edge">
<title>Node8&#45;&gt;Node9</title>
<g id="a_edge9_Node000008_Node000009"><a xlink:title=" ">
<path fill="none" stroke="#63b8ff" d="M688.79,-266.5C698.45,-266.5 708.28,-266.5 717.96,-266.5"/>
<polygon fill="#63b8ff" stroke="#63b8ff" points="717.99,-270 727.99,-266.5 717.99,-263 717.99,-270"/>
</a>
</g>
</g>
<!-- Node12&#45;&gt;Node6 -->
<g id="edge17_Node000012_Node000006" class="edge">
<title>Node12&#45;&gt;Node6</title>
<g id="a_edge17_Node000012_Node000006"><a xlink:title=" ">
<path fill="none" stroke="#63b8ff" d="M241.19,-192.66C256.88,-198.53 275.2,-205.11 292,-210.5 298.42,-212.56 305.13,-214.6 311.86,-216.58"/>
<polygon fill="#63b8ff" stroke="#63b8ff" points="311.13,-220.01 321.71,-219.42 313.07,-213.28 311.13,-220.01"/>
</a>
</g>
</g>
<!-- Node13 -->
<g id="Node000013" class="node">
<title>Node13</title>
<g id="a_Node000013"><a xlink:href="classGeometryUtils.html#a95a8eb25c216b5416111a5b2f18ebb5f" target="_top" xlink:title="Calcule la longueur planaire totale d&#39;une polyligne métrique.">
<polygon fill="white" stroke="#666666" points="468,-153.5 292,-153.5 292,-123.5 468,-123.5 468,-153.5"/>
<text text-anchor="start" x="300" y="-141.5" font-family="Helvetica,sans-Serif" font-size="10.00">GeometryUtils::computePolyline</text>
<text text-anchor="middle" x="380" y="-130.5" font-family="Helvetica,sans-Serif" font-size="10.00">LengthMeters</text>
</a>
</g>
</g>
<!-- Node12&#45;&gt;Node13 -->
<g id="edge13_Node000012_Node000013" class="edge">
<title>Node12&#45;&gt;Node13</title>
<g id="a_edge13_Node000012_Node000013"><a xlink:title=" ">
<path fill="none" stroke="#63b8ff" d="M256.07,-165.59C270.25,-162.46 285.82,-159.03 300.98,-155.69"/>
<polygon fill="#63b8ff" stroke="#63b8ff" points="301.85,-159.08 310.86,-153.51 300.34,-152.25 301.85,-159.08"/>
</a>
</g>
</g>
<!-- Node14 -->
<g id="Node000014" class="node">
<title>Node14</title>
<g id="a_Node000014"><a xlink:href="classGeometryUtils.html#aa06e19f5aae6fce3108b2fcfc709fc53" target="_top" xlink:title="Convertit une polyligne WGS&#45;84 en coordonnées métriques UTM.">
<polygon fill="white" stroke="#666666" points="465,-201.5 295,-201.5 295,-171.5 465,-171.5 465,-201.5"/>
<text text-anchor="start" x="303" y="-189.5" font-family="Helvetica,sans-Serif" font-size="10.00">GeometryUtils::convertPolyline</text>
<text text-anchor="middle" x="380" y="-178.5" font-family="Helvetica,sans-Serif" font-size="10.00">ToMetric</text>
</a>
</g>
</g>
<!-- Node12&#45;&gt;Node14 -->
<g id="edge14_Node000012_Node000014" class="edge">
<title>Node12&#45;&gt;Node14</title>
<g id="a_edge14_Node000012_Node000014"><a xlink:title=" ">
<path fill="none" stroke="#63b8ff" d="M256.07,-180.25C265.2,-180.71 274.91,-181.21 284.71,-181.71"/>
<polygon fill="#63b8ff" stroke="#63b8ff" points="284.78,-185.21 294.94,-182.23 285.13,-178.22 284.78,-185.21"/>
</a>
</g>
</g>
<!-- Node15 -->
<g id="Node000015" class="node">
<title>Node15</title>
<g id="a_Node000015"><a xlink:href="classGeometryUtils.html#abcb43f3e49607318e07012e902febfdb" target="_top" xlink:title="Convertit une coordonnée WGS&#45;84 en mètres UTM.">
<polygon fill="white" stroke="#666666" points="692,-185 504,-185 504,-166 692,-166 692,-185"/>
<text text-anchor="middle" x="598" y="-173" font-family="Helvetica,sans-Serif" font-size="10.00">GeometryUtils::wgs84ToMetricUtm</text>
</a>
</g>
</g>
<!-- Node14&#45;&gt;Node15 -->
<g id="edge15_Node000014_Node000015" class="edge">
<title>Node14&#45;&gt;Node15</title>
<g id="a_edge15_Node000014_Node000015"><a xlink:title=" ">
<path fill="none" stroke="#63b8ff" d="M465.13,-182.22C474.44,-181.74 483.99,-181.25 493.51,-180.77"/>
<polygon fill="#63b8ff" stroke="#63b8ff" points="493.98,-184.25 503.79,-180.25 493.63,-177.26 493.98,-184.25"/>
</a>
</g>
</g>
<!-- Node15&#45;&gt;Node4 -->
<g id="edge16_Node000015_Node000004" class="edge">
<title>Node15&#45;&gt;Node4</title>
<g id="a_edge16_Node000015_Node000004"><a xlink:title=" ">
<path fill="none" stroke="#63b8ff" d="M690.32,-185.02C702.21,-186.26 714.34,-187.53 726.1,-188.75"/>
<polygon fill="#63b8ff" stroke="#63b8ff" points="726.01,-192.26 736.32,-189.82 726.74,-185.3 726.01,-192.26"/>
</a>
</g>
</g>
<!-- Node17 -->
<g id="Node000017" class="node">
<title>Node17</title>
<g id="a_Node000017"><a xlink:href="classStraightBlock.html#a31992cb0d660a2be22d99615c4be8c23" target="_top" xlink:title="Ajoute un voisin en maintenant l&#39;ordre lexicographique. Pas de doublon.">
<polygon fill="white" stroke="#666666" points="462.5,-19 297.5,-19 297.5,0 462.5,0 462.5,-19"/>
<text text-anchor="middle" x="380" y="-7" font-family="Helvetica,sans-Serif" font-size="10.00">StraightBlock::addNeighbourId</text>
</a>
</g>
</g>
<!-- Node16&#45;&gt;Node17 -->
<g id="edge19_Node000016_Node000017" class="edge">
<title>Node16&#45;&gt;Node17</title>
<g id="a_edge19_Node000016_Node000017"><a xlink:title=" ">
<path fill="none" stroke="#63b8ff" d="M256.15,-37.63C267.94,-34.51 280.37,-31.32 292,-28.5 302.13,-26.04 312.97,-23.56 323.43,-21.24"/>
<polygon fill="#63b8ff" stroke="#63b8ff" points="324.29,-24.63 333.31,-19.07 322.79,-17.8 324.29,-24.63"/>
</a>
</g>
</g>
<!-- Node18 -->
<g id="Node000018" class="node">
<title>Node18</title>
<g id="a_Node000018"><a xlink:href="classTopologyExtractor.html#a5f368f1d09c07d020c41711ffd3eb507" target="_top" xlink:title="Regroupe les IDs de morceaux par ID de base (ex. &quot;s/0&quot; → [&quot;s/0&quot;,&quot;s/0_c1&quot;]).">
<polygon fill="white" stroke="#666666" points="443,-67.5 317,-67.5 317,-37.5 443,-37.5 443,-67.5"/>
<text text-anchor="start" x="325" y="-55.5" font-family="Helvetica,sans-Serif" font-size="10.00">TopologyExtractor::</text>
<text text-anchor="middle" x="380" y="-44.5" font-family="Helvetica,sans-Serif" font-size="10.00">groupChunksByBaseId</text>
</a>
</g>
</g>
<!-- Node16&#45;&gt;Node18 -->
<g id="edge20_Node000016_Node000018" class="edge">
<title>Node16&#45;&gt;Node18</title>
<g id="a_edge20_Node000016_Node000018"><a xlink:title=" ">
<path fill="none" stroke="#63b8ff" d="M256.07,-52.5C271.98,-52.5 289.65,-52.5 306.52,-52.5"/>
<polygon fill="#63b8ff" stroke="#63b8ff" points="306.9,-56 316.9,-52.5 306.9,-49 306.9,-56"/>
</a>
</g>
</g>
</g>
</svg>
