<?xml version="1.0" encoding="UTF-8" standalone="no"?>
<!DOCTYPE svg PUBLIC "-//W3C//DTD SVG 1.1//EN"
 "http://www.w3.org/Graphics/SVG/1.1/DTD/svg11.dtd">
<!-- Generated by graphviz version 2.43.0 (0)
 -->
<!-- Title: SwitchBlock::isDouble Pages: 1 -->
<svg width="1658pt" height="161pt"
 viewBox="0.00 0.00 1658.00 161.00" xmlns="http://www.w3.org/2000/svg" xmlns:xlink="http://www.w3.org/1999/xlink">
<g id="graph0" class="graph" transform="scale(1 1) rotate(0) translate(4 157)">
<title>SwitchBlock::isDouble</title>
<!-- Node1 -->
<g id="Node000001" class="node">
<title>Node1</title>
<g id="a_Node000001"><a xlink:title=" ">
<polygon fill="#999999" stroke="#666666" points="1650,-62 1525,-62 1525,-43 1650,-43 1650,-62"/>
<text text-anchor="middle" x="1587.5" y="-50" font-family="Helvetica,sans-Serif" font-size="10.00">SwitchBlock::isDouble</text>
</a>
</g>
</g>
<!-- Node2 -->
<g id="Node000002" class="node">
<title>Node2</title>
<g id="a_Node000002"><a xlink:href="classGeoJsonExporter.html#a4edb715ecc8bee30c4eb00e7dcb98e93" target="_top" xlink:title="Convertit un SwitchBlock en feature GeoJSON de type Point.">
<polygon fill="white" stroke="#666666" points="1475.5,-115.5 1335.5,-115.5 1335.5,-85.5 1475.5,-85.5 1475.5,-115.5"/>
<text text-anchor="start" x="1343.5" y="-103.5" font-family="Helvetica,sans-Serif" font-size="10.00">GeoJsonExporter::convert</text>
<text text-anchor="middle" x="1405.5" y="-92.5" font-family="Helvetica,sans-Serif" font-size="10.00">SwitchToFeature</text>
</a>
</g>
</g>
<!-- Node1&#45;&gt;Node2 -->
<g id="edge1_Node000001_Node000002" class="edge">
<title>Node1&#45;&gt;Node2</title>
<g id="a_edge1_Node000001_Node000002"><a xlink:title=" ">
<path fill="none" stroke="#63b8ff" d="M1540.73,-64.7C1517.09,-71.01 1488.02,-78.76 1462.99,-85.44"/>
<polygon fill="#63b8ff" stroke="#63b8ff" points="1541.75,-68.06 1550.51,-62.1 1539.94,-61.29 1541.75,-68.06"/>
</a>
</g>
</g>
<!-- Node11 -->
<g id="Node000011" class="node">
<title>Node11</title>
<g id="a_Node000011"><a xlink:href="classGeoJsonExporter.html#a94a0a86bf9fb71861ffd691bda77fd47" target="_top" xlink:title="Construit l&#39;appel JS renderSwitch(id, lat, lon, isDouble).">
<polygon fill="white" stroke="#666666" points="1489,-67.5 1322,-67.5 1322,-37.5 1489,-37.5 1489,-67.5"/>
<text text-anchor="start" x="1330" y="-55.5" font-family="Helvetica,sans-Serif" font-size="10.00">GeoJsonExporter::renderSwitch</text>
<text text-anchor="middle" x="1405.5" y="-44.5" font-family="Helvetica,sans-Serif" font-size="10.00">Block</text>
</a>
</g>
</g>
<!-- Node1&#45;&gt;Node11 -->
<g id="edge10_Node000001_Node000011" class="edge">
<title>Node1&#45;&gt;Node11</title>
<g id="a_edge10_Node000001_Node000011"><a xlink:title=" ">
<path fill="none" stroke="#63b8ff" d="M1514.68,-52.5C1506.28,-52.5 1497.65,-52.5 1489.11,-52.5"/>
<polygon fill="#63b8ff" stroke="#63b8ff" points="1514.81,-56 1524.81,-52.5 1514.81,-49 1514.81,-56"/>
</a>
</g>
</g>
<!-- Node14 -->
<g id="Node000014" class="node">
<title>Node14</title>
<g id="a_Node000014"><a xlink:href="classSwitchBlock.html#a7a81608dca0e1a59b20f6f0c480435c5" target="_top" xlink:title="Représentation textuelle pour le débogage.">
<polygon fill="white" stroke="#666666" points="1465.5,-19 1345.5,-19 1345.5,0 1465.5,0 1465.5,-19"/>
<text text-anchor="middle" x="1405.5" y="-7" font-family="Helvetica,sans-Serif" font-size="10.00">SwitchBlock::toString</text>
</a>
</g>
</g>
<!-- Node1&#45;&gt;Node14 -->
<g id="edge14_Node000001_Node000014" class="edge">
<title>Node1&#45;&gt;Node14</title>
<g id="a_edge14_Node000001_Node000014"><a xlink:title=" ">
<path fill="none" stroke="#63b8ff" d="M1538.1,-40.43C1522.44,-36.57 1505,-32.31 1489,-28.5 1475.85,-25.37 1461.49,-22.03 1448.5,-19.04"/>
<polygon fill="#63b8ff" stroke="#63b8ff" points="1537.55,-43.9 1548.1,-42.91 1539.23,-37.11 1537.55,-43.9"/>
</a>
</g>
</g>
<!-- Node3 -->
<g id="Node000003" class="node">
<title>Node3</title>
<g id="a_Node000003"><a xlink:href="classGeoJsonExporter.html#a933abb8a4cbc84d34ced90a170d170d3" target="_top" xlink:title="Exporte la topologie ferroviaire dans un fichier GeoJSON.">
<polygon fill="white" stroke="#666666" points="1286,-153 1123,-153 1123,-134 1286,-134 1286,-153"/>
<text text-anchor="middle" x="1204.5" y="-141" font-family="Helvetica,sans-Serif" font-size="10.00">GeoJsonExporter::exportToFile</text>
</a>
</g>
</g>
<!-- Node2&#45;&gt;Node3 -->
<g id="edge2_Node000002_Node000003" class="edge">
<title>Node2&#45;&gt;Node3</title>
<g id="a_edge2_Node000002_Node000003"><a xlink:title=" ">
<path fill="none" stroke="#63b8ff" d="M1325.64,-117.54C1299.74,-123.14 1271.88,-129.16 1249.52,-133.99"/>
<polygon fill="#63b8ff" stroke="#63b8ff" points="1326.42,-120.95 1335.46,-115.42 1324.94,-114.11 1326.42,-120.95"/>
</a>
</g>
</g>
<!-- Node10 -->
<g id="Node000010" class="node">
<title>Node10</title>
<g id="a_Node000010"><a xlink:href="classGeoJsonExporter.html#a7f60c7ba7d8578832e4461fe50de931d" target="_top" xlink:title="Génère le script JavaScript d&#39;injection GeoJSON dans le WebView.">
<polygon fill="white" stroke="#666666" points="1276.5,-115.5 1132.5,-115.5 1132.5,-85.5 1276.5,-85.5 1276.5,-115.5"/>
<text text-anchor="start" x="1140.5" y="-103.5" font-family="Helvetica,sans-Serif" font-size="10.00">GeoJsonExporter::loadGeo</text>
<text text-anchor="middle" x="1204.5" y="-92.5" font-family="Helvetica,sans-Serif" font-size="10.00">JsonToWebView</text>
</a>
</g>
</g>
<!-- Node2&#45;&gt;Node10 -->
<g id="edge9_Node000002_Node000010" class="edge">
<title>Node2&#45;&gt;Node10</title>
<g id="a_edge9_Node000002_Node000010"><a xlink:title=" ">
<path fill="none" stroke="#63b8ff" d="M1325.09,-100.5C1309.13,-100.5 1292.45,-100.5 1276.78,-100.5"/>
<polygon fill="#63b8ff" stroke="#63b8ff" points="1325.46,-104 1335.46,-100.5 1325.46,-97 1325.46,-104"/>
</a>
</g>
</g>
<!-- Node4 -->
<g id="Node000004" class="node">
<title>Node4</title>
<g id="a_Node000004"><a xlink:href="classMainWindow.html#a4429f521642e48894e0efce5b41bd0ae" target="_top" xlink:title="Ouvre le dialogue d&#39;exportation et déclenche l&#39;export GeoJSON.">
<polygon fill="white" stroke="#666666" points="1087,-139 941,-139 941,-120 1087,-120 1087,-139"/>
<text text-anchor="middle" x="1014" y="-127" font-family="Helvetica,sans-Serif" font-size="10.00">MainWindow::onFileExport</text>
</a>
</g>
</g>
<!-- Node3&#45;&gt;Node4 -->
<g id="edge3_Node000003_Node000004" class="edge">
<title>Node3&#45;&gt;Node4</title>
<g id="a_edge3_Node000003_Node000004"><a xlink:title=" ">
<path fill="none" stroke="#63b8ff" d="M1112.74,-136.76C1104.19,-136.12 1095.6,-135.49 1087.26,-134.87"/>
<polygon fill="#63b8ff" stroke="#63b8ff" points="1112.51,-140.25 1122.74,-137.5 1113.03,-133.27 1112.51,-140.25"/>
</a>
</g>
</g>
<!-- Node5 -->
<g id="Node000005" class="node">
<title>Node5</title>
<g id="a_Node000005"><a xlink:href="classMainWindow.html#afbecf0f64f48c5c868168884bab52356" target="_top" xlink:title="Gère les commandes menu (WM_COMMAND).">
<polygon fill="white" stroke="#666666" points="893,-125 746,-125 746,-106 893,-106 893,-125"/>
<text text-anchor="middle" x="819.5" y="-113" font-family="Helvetica,sans-Serif" font-size="10.00">MainWindow::onCommand</text>
</a>
</g>
</g>
<!-- Node4&#45;&gt;Node5 -->
<g id="edge4_Node000004_Node000005" class="edge">
<title>Node4&#45;&gt;Node5</title>
<g id="a_edge4_Node000004_Node000005"><a xlink:title=" ">
<path fill="none" stroke="#63b8ff" d="M930.44,-123.5C918.03,-122.59 905.31,-121.67 893.13,-120.78"/>
<polygon fill="#63b8ff" stroke="#63b8ff" points="930.54,-127.01 940.77,-124.25 931.05,-120.03 930.54,-127.01"/>
</a>
</g>
</g>
<!-- Node6 -->
<g id="Node000006" class="node">
<title>Node6</title>
<g id="a_Node000006"><a xlink:href="classMainWindow.html#ab85682874f3ab5dfa81f782f889d8556" target="_top" xlink:title="Dispatcher principal des messages de la fenêtre.">
<polygon fill="white" stroke="#666666" points="698,-106 537,-106 537,-87 698,-87 698,-106"/>
<text text-anchor="middle" x="617.5" y="-94" font-family="Helvetica,sans-Serif" font-size="10.00">MainWindow::handleMessage</text>
</a>
</g>
</g>
<!-- Node5&#45;&gt;Node6 -->
<g id="edge5_Node000005_Node000006" class="edge">
<title>Node5&#45;&gt;Node6</title>
<g id="a_edge5_Node000005_Node000006"><a xlink:title=" ">
<path fill="none" stroke="#63b8ff" d="M735.5,-107.61C723.2,-106.45 710.54,-105.24 698.31,-104.08"/>
<polygon fill="#63b8ff" stroke="#63b8ff" points="735.44,-111.13 745.73,-108.59 736.11,-104.16 735.44,-111.13"/>
</a>
</g>
</g>
<!-- Node7 -->
<g id="Node000007" class="node">
<title>Node7</title>
<g id="a_Node000007"><a xlink:href="classMainWindow.html#a332648d0a0caec8070b05bc27bb9a14b" target="_top" xlink:title="Procédure de fenêtre statique, point d&#39;entrée imposé par Win32.">
<polygon fill="white" stroke="#666666" points="501,-106 358,-106 358,-87 501,-87 501,-106"/>
<text text-anchor="middle" x="429.5" y="-94" font-family="Helvetica,sans-Serif" font-size="10.00">MainWindow::windowProc</text>
</a>
</g>
</g>
<!-- Node6&#45;&gt;Node7 -->
<g id="edge6_Node000006_Node000007" class="edge">
<title>Node6&#45;&gt;Node7</title>
<g id="a_edge6_Node000006_Node000007"><a xlink:title=" ">
<path fill="none" stroke="#63b8ff" d="M526.77,-96.5C518.2,-96.5 509.58,-96.5 501.22,-96.5"/>
<polygon fill="#63b8ff" stroke="#63b8ff" points="526.81,-100 536.81,-96.5 526.81,-93 526.81,-100"/>
</a>
</g>
</g>
<!-- Node8 -->
<g id="Node000008" class="node">
<title>Node8</title>
<g id="a_Node000008"><a xlink:href="classApplication.html#a0bda40de108938fd29374335bf4eac71" target="_top" xlink:title="Enregistre la classe de fenêtre Win32 (WNDCLASSEXW).">
<polygon fill="white" stroke="#666666" points="322,-111.5 168,-111.5 168,-81.5 322,-81.5 322,-111.5"/>
<text text-anchor="start" x="176" y="-99.5" font-family="Helvetica,sans-Serif" font-size="10.00">Application::registerWindow</text>
<text text-anchor="middle" x="245" y="-88.5" font-family="Helvetica,sans-Serif" font-size="10.00">Class</text>
</a>
</g>
</g>
<!-- Node7&#45;&gt;Node8 -->
<g id="edge7_Node000007_Node000008" class="edge">
<title>Node7&#45;&gt;Node8</title>
<g id="a_edge7_Node000007_Node000008"><a xlink:title=" ">
<path fill="none" stroke="#63b8ff" d="M347.66,-96.5C339.17,-96.5 330.56,-96.5 322.12,-96.5"/>
<polygon fill="#63b8ff" stroke="#63b8ff" points="347.94,-100 357.94,-96.5 347.94,-93 347.94,-100"/>
</a>
</g>
</g>
<!-- Node9 -->
<g id="Node000009" class="node">
<title>Node9</title>
<g id="a_Node000009"><a xlink:href="classApplication.html#a719cf091afd2276d52f9a58e4962ebfb" target="_top" xlink:title="Construit l&#39;application et enregistre la classe de fenêtre.">
<polygon fill="white" stroke="#666666" points="132,-106 0,-106 0,-87 132,-87 132,-106"/>
<text text-anchor="middle" x="66" y="-94" font-family="Helvetica,sans-Serif" font-size="10.00">Application::Application</text>
</a>
</g>
</g>
<!-- Node8&#45;&gt;Node9 -->
<g id="edge8_Node000008_Node000009" class="edge">
<title>Node8&#45;&gt;Node9</title>
<g id="a_edge8_Node000008_Node000009"><a xlink:title=" ">
<path fill="none" stroke="#63b8ff" d="M157.82,-96.5C149.19,-96.5 140.53,-96.5 132.18,-96.5"/>
<polygon fill="#63b8ff" stroke="#63b8ff" points="157.91,-100 167.91,-96.5 157.91,-93 157.91,-100"/>
</a>
</g>
</g>
<!-- Node12 -->
<g id="Node000012" class="node">
<title>Node12</title>
<g id="a_Node000012"><a xlink:href="classGeoJsonExporter.html#adbde98ddc849360ec945d84bde02d504" target="_top" xlink:title="Efface puis redessine tous les marqueurs de jonction.">
<polygon fill="white" stroke="#666666" points="1278.5,-67.5 1130.5,-67.5 1130.5,-37.5 1278.5,-37.5 1278.5,-67.5"/>
<text text-anchor="start" x="1138.5" y="-55.5" font-family="Helvetica,sans-Serif" font-size="10.00">GeoJsonExporter::renderAll</text>
<text text-anchor="middle" x="1204.5" y="-44.5" font-family="Helvetica,sans-Serif" font-size="10.00">SwitchBlocksJunctions</text>
</a>
</g>
</g>
<!-- Node11&#45;&gt;Node12 -->
<g id="edge11_Node000011_Node000012" class="edge">
<title>Node11&#45;&gt;Node12</title>
<g id="a_edge11_Node000011_Node000012"><a xlink:title=" ">
<path fill="none" stroke="#63b8ff" d="M1311.71,-52.5C1300.63,-52.5 1289.45,-52.5 1278.7,-52.5"/>
<polygon fill="#63b8ff" stroke="#63b8ff" points="1311.83,-56 1321.83,-52.5 1311.83,-49 1311.83,-56"/>
</a>
</g>
</g>
<!-- Node13 -->
<g id="Node000013" class="node">
<title>Node13</title>
<g id="a_Node000013"><a xlink:href="classMainWindow.html#a90cae565f67d1291d690d974547041a0" target="_top" xlink:title="Gère la fin réussie du parsing (WM_PARSING_SUCCESS).">
<polygon fill="white" stroke="#666666" points="905,-88 734,-88 734,-69 905,-69 905,-88"/>
<text text-anchor="middle" x="819.5" y="-76" font-family="Helvetica,sans-Serif" font-size="10.00">MainWindow::onParsingSuccess</text>
</a>
</g>
</g>
<!-- Node12&#45;&gt;Node13 -->
<g id="edge12_Node000012_Node000013" class="edge">
<title>Node12&#45;&gt;Node13</title>
<g id="a_edge12_Node000012_Node000013"><a xlink:title=" ">
<path fill="none" stroke="#63b8ff" d="M1120.11,-58.16C1056.52,-62.48 969.27,-68.4 905.33,-72.74"/>
<polygon fill="#63b8ff" stroke="#63b8ff" points="1120.37,-61.65 1130.11,-57.48 1119.89,-54.67 1120.37,-61.65"/>
</a>
</g>
</g>
<!-- Node13&#45;&gt;Node6 -->
<g id="edge13_Node000013_Node000006" class="edge">
<title>Node13&#45;&gt;Node6</title>
<g id="a_edge13_Node000013_Node000006"><a xlink:title=" ">
<path fill="none" stroke="#63b8ff" d="M723.93,-87.01C715.35,-87.78 706.71,-88.56 698.27,-89.32"/>
<polygon fill="#63b8ff" stroke="#63b8ff" points="724.33,-90.49 733.97,-86.11 723.7,-83.52 724.33,-90.49"/>
</a>
</g>
</g>
</g>
</svg>
