<?xml version="1.0" encoding="UTF-8" standalone="no"?>
<!DOCTYPE svg PUBLIC "-//W3C//DTD SVG 1.1//EN"
 "http://www.w3.org/Graphics/SVG/1.1/DTD/svg11.dtd">
<!-- Generated by graphviz version 2.43.0 (0)
 -->
<!-- Title: MainWindow::create Pages: 1 -->
<svg width="661pt" height="251pt"
 viewBox="0.00 0.00 661.00 251.00" xmlns="http://www.w3.org/2000/svg" xmlns:xlink="http://www.w3.org/1999/xlink">
<g id="graph0" class="graph" transform="scale(1 1) rotate(0) translate(4 247)">
<title>MainWindow::create</title>
<!-- Node1 -->
<g id="Node000001" class="node">
<title>Node1</title>
<g id="a_Node000001"><a xlink:title="Crée et affiche la fenêtre Win32, puis initialise la ProgressBar.">
<polygon fill="#999999" stroke="#666666" points="116,-130 0,-130 0,-111 116,-111 116,-130"/>
<text text-anchor="middle" x="58" y="-118" font-family="Helvetica,sans-Serif" font-size="10.00">MainWindow::create</text>
</a>
</g>
</g>
<!-- Node2 -->
<g id="Node000002" class="node">
<title>Node2</title>
<g id="a_Node000002"><a xlink:href="classProgressBar.html#a608e19274cfd76f8874e4ef6e2dcb396" target="_top" xlink:title="Crée la ProgressBar dans une fenêtre parent.">
<polygon fill="white" stroke="#666666" points="293,-243 181,-243 181,-224 293,-224 293,-243"/>
<text text-anchor="middle" x="237" y="-231" font-family="Helvetica,sans-Serif" font-size="10.00">ProgressBar::create</text>
</a>
</g>
</g>
<!-- Node1&#45;&gt;Node2 -->
<g id="edge1_Node000001_Node000002" class="edge">
<title>Node1&#45;&gt;Node2</title>
<g id="a_edge1_Node000001_Node000002"><a xlink:title=" ">
<path fill="none" stroke="#63b8ff" d="M65.4,-130.11C78.91,-149.58 112.38,-193.67 152,-215.5 157.88,-218.74 164.29,-221.4 170.86,-223.58"/>
<polygon fill="#63b8ff" stroke="#63b8ff" points="169.98,-226.96 180.56,-226.44 171.96,-220.25 169.98,-226.96"/>
</a>
</g>
</g>
<!-- Node3 -->
<g id="Node000003" class="node">
<title>Node3</title>
<g id="a_Node000003"><a xlink:href="classWebViewPanel.html#a49887c0d1a400c93f002085a8994ece1" target="_top" xlink:title="Initialise WebView2 dans une fenêtre Win32 existante.">
<polygon fill="white" stroke="#666666" points="299.5,-206 174.5,-206 174.5,-187 299.5,-187 299.5,-206"/>
<text text-anchor="middle" x="237" y="-194" font-family="Helvetica,sans-Serif" font-size="10.00">WebViewPanel::create</text>
</a>
</g>
</g>
<!-- Node1&#45;&gt;Node3 -->
<g id="edge2_Node000001_Node000003" class="edge">
<title>Node1&#45;&gt;Node3</title>
<g id="a_edge2_Node000001_Node000003"><a xlink:title=" ">
<path fill="none" stroke="#63b8ff" d="M73.6,-130.07C91.48,-141.46 122.96,-160.43 152,-172.5 162.72,-176.96 174.55,-180.9 185.85,-184.23"/>
<polygon fill="#63b8ff" stroke="#63b8ff" points="185.04,-187.64 195.61,-187 186.95,-180.9 185.04,-187.64"/>
</a>
</g>
</g>
<!-- Node5 -->
<g id="Node000005" class="node">
<title>Node5</title>
<g id="a_Node000005"><a xlink:href="classWebViewPanel.html#a7a3796392183cbf2538ccb72f87c839a" target="_top" xlink:title="Redimensionne le WebView pour s&#39;adapter à la fenêtre.">
<polygon fill="white" stroke="#666666" points="653,-189 530,-189 530,-170 653,-170 653,-189"/>
<text text-anchor="middle" x="591.5" y="-177" font-family="Helvetica,sans-Serif" font-size="10.00">WebViewPanel::resize</text>
</a>
</g>
</g>
<!-- Node1&#45;&gt;Node5 -->
<g id="edge6_Node000001_Node000005" class="edge">
<title>Node1&#45;&gt;Node5</title>
<g id="a_edge6_Node000001_Node000005"><a xlink:title=" ">
<path fill="none" stroke="#63b8ff" d="M103.79,-130.09C119.03,-133.11 136.21,-136.24 152,-138.5 281.23,-157 433.14,-169.06 519.98,-175.04"/>
<polygon fill="#63b8ff" stroke="#63b8ff" points="519.77,-178.54 529.99,-175.72 520.25,-171.55 519.77,-178.54"/>
</a>
</g>
</g>
<!-- Node6 -->
<g id="Node000006" class="node">
<title>Node6</title>
<g id="a_Node000006"><a xlink:href="classWebViewPanel.html#a17fdacaf19c8e0830ae1ea7ee1632993" target="_top" xlink:title="Navigue vers une URL.">
<polygon fill="white" stroke="#666666" points="305.5,-130 168.5,-130 168.5,-111 305.5,-111 305.5,-130"/>
<text text-anchor="middle" x="237" y="-118" font-family="Helvetica,sans-Serif" font-size="10.00">WebViewPanel::navigate</text>
</a>
</g>
</g>
<!-- Node1&#45;&gt;Node6 -->
<g id="edge5_Node000001_Node000006" class="edge">
<title>Node1&#45;&gt;Node6</title>
<g id="a_edge5_Node000001_Node000006"><a xlink:title=" ">
<path fill="none" stroke="#63b8ff" d="M116.47,-120.5C129.79,-120.5 144.18,-120.5 158.21,-120.5"/>
<polygon fill="#63b8ff" stroke="#63b8ff" points="158.35,-124 168.35,-120.5 158.35,-117 158.35,-124"/>
</a>
</g>
</g>
<!-- Node7 -->
<g id="Node000007" class="node">
<title>Node7</title>
<g id="a_Node000007"><a xlink:href="classWebViewPanel.html#a118dd6f6115c00ad0d01b6c4238e5caf" target="_top" xlink:title="Définit un callback à appeler une fois l&#39;initialisation terminée.">
<polygon fill="white" stroke="#666666" points="322,-93 152,-93 152,-74 322,-74 322,-93"/>
<text text-anchor="middle" x="237" y="-81" font-family="Helvetica,sans-Serif" font-size="10.00">WebViewPanel::setOnInitialized</text>
</a>
</g>
</g>
<!-- Node1&#45;&gt;Node7 -->
<g id="edge7_Node000001_Node000007" class="edge">
<title>Node1&#45;&gt;Node7</title>
<g id="a_edge7_Node000001_Node000007"><a xlink:title=" ">
<path fill="none" stroke="#63b8ff" d="M104.58,-110.97C127.72,-106.14 156.02,-100.22 180.42,-95.12"/>
<polygon fill="#63b8ff" stroke="#63b8ff" points="181.19,-98.53 190.27,-93.06 179.76,-91.68 181.19,-98.53"/>
</a>
</g>
</g>
<!-- Node8 -->
<g id="Node000008" class="node">
<title>Node8</title>
<g id="a_Node000008"><a xlink:href="classProgressBar.html#ad06234c2844ac3beb9f8e8532015c0cd" target="_top" xlink:title="Met à jour la progression.">
<polygon fill="white" stroke="#666666" points="306,-56 168,-56 168,-37 306,-37 306,-56"/>
<text text-anchor="middle" x="237" y="-44" font-family="Helvetica,sans-Serif" font-size="10.00">ProgressBar::setProgress</text>
</a>
</g>
</g>
<!-- Node1&#45;&gt;Node8 -->
<g id="edge8_Node000001_Node000008" class="edge">
<title>Node1&#45;&gt;Node8</title>
<g id="a_edge8_Node000001_Node000008"><a xlink:title=" ">
<path fill="none" stroke="#63b8ff" d="M71.83,-110.87C89.13,-98.34 121.33,-76.63 152,-64.5 157.42,-62.36 163.14,-60.45 168.95,-58.75"/>
<polygon fill="#63b8ff" stroke="#63b8ff" points="170.02,-62.09 178.76,-56.1 168.19,-55.33 170.02,-62.09"/>
</a>
</g>
</g>
<!-- Node9 -->
<g id="Node000009" class="node">
<title>Node9</title>
<g id="a_Node000009"><a xlink:href="classProgressBar.html#ac9fbcf04d7d4e8c5b3e332efcfc0d34c" target="_top" xlink:title="Show or hide the ProgressBar.">
<polygon fill="white" stroke="#666666" points="290.5,-19 183.5,-19 183.5,0 290.5,0 290.5,-19"/>
<text text-anchor="middle" x="237" y="-7" font-family="Helvetica,sans-Serif" font-size="10.00">ProgressBar::show</text>
</a>
</g>
</g>
<!-- Node1&#45;&gt;Node9 -->
<g id="edge9_Node000001_Node000009" class="edge">
<title>Node1&#45;&gt;Node9</title>
<g id="a_edge9_Node000001_Node000009"><a xlink:title=" ">
<path fill="none" stroke="#63b8ff" d="M65.66,-110.8C79.4,-91.6 112.89,-48.78 152,-27.5 158.65,-23.88 165.96,-20.99 173.42,-18.68"/>
<polygon fill="#63b8ff" stroke="#63b8ff" points="174.55,-22 183.26,-15.97 172.69,-15.25 174.55,-22"/>
</a>
</g>
</g>
<!-- Node4 -->
<g id="Node000004" class="node">
<title>Node4</title>
<g id="a_Node000004"><a xlink:href="classWebViewPanel.html#a886fd07f1d23eec535d0b57215c6ce50" target="_top" xlink:title="Initialise le runtime WebView2 et crée le controller et le webview.">
<polygon fill="white" stroke="#666666" points="494,-216.5 358,-216.5 358,-186.5 494,-186.5 494,-216.5"/>
<text text-anchor="start" x="366" y="-204.5" font-family="Helvetica,sans-Serif" font-size="10.00">WebViewPanel::initialize</text>
<text text-anchor="middle" x="426" y="-193.5" font-family="Helvetica,sans-Serif" font-size="10.00">WebView</text>
</a>
</g>
</g>
<!-- Node3&#45;&gt;Node4 -->
<g id="edge3_Node000003_Node000004" class="edge">
<title>Node3&#45;&gt;Node4</title>
<g id="a_edge3_Node000003_Node000004"><a xlink:title=" ">
<path fill="none" stroke="#63b8ff" d="M299.75,-198.15C315.02,-198.56 331.58,-199 347.49,-199.43"/>
<polygon fill="#63b8ff" stroke="#63b8ff" points="347.75,-202.94 357.84,-199.7 347.94,-195.94 347.75,-202.94"/>
</a>
</g>
</g>
<!-- Node4&#45;&gt;Node5 -->
<g id="edge4_Node000004_Node000005" class="edge">
<title>Node4&#45;&gt;Node5</title>
<g id="a_edge4_Node000004_Node000005"><a xlink:title=" ">
<path fill="none" stroke="#63b8ff" d="M494.45,-192.42C502.76,-191.31 511.28,-190.16 519.65,-189.03"/>
<polygon fill="#63b8ff" stroke="#63b8ff" points="520.31,-192.48 529.75,-187.67 519.38,-185.54 520.31,-192.48"/>
</a>
</g>
</g>
</g>
</svg>
