<?xml version="1.0" encoding="UTF-8" standalone="no"?>
<!DOCTYPE svg PUBLIC "-//W3C//DTD SVG 1.1//EN"
 "http://www.w3.org/Graphics/SVG/1.1/DTD/svg11.dtd">
<!-- Generated by graphviz version 2.43.0 (0)
 -->
<!-- Title: MainWindow::onProgressUpdate Pages: 1 -->
<svg width="916pt" height="38pt"
 viewBox="0.00 0.00 916.00 38.00" xmlns="http://www.w3.org/2000/svg" xmlns:xlink="http://www.w3.org/1999/xlink">
<g id="graph0" class="graph" transform="scale(1 1) rotate(0) translate(4 34)">
<title>MainWindow::onProgressUpdate</title>
<!-- Node1 -->
<g id="Node000001" class="node">
<title>Node1</title>
<g id="a_Node000001"><a xlink:title="Gère la mise à jour de la progression (WM_PROGRESS_UPDATE).">
<polygon fill="#999999" stroke="#666666" points="908,-24.5 734,-24.5 734,-5.5 908,-5.5 908,-24.5"/>
<text text-anchor="middle" x="821" y="-12.5" font-family="Helvetica,sans-Serif" font-size="10.00">MainWindow::onProgressUpdate</text>
</a>
</g>
</g>
<!-- Node2 -->
<g id="Node000002" class="node">
<title>Node2</title>
<g id="a_Node000002"><a xlink:href="classMainWindow.html#ab85682874f3ab5dfa81f782f889d8556" target="_top" xlink:title="Dispatcher principal des messages de la fenêtre.">
<polygon fill="white" stroke="#666666" points="698,-24.5 537,-24.5 537,-5.5 698,-5.5 698,-24.5"/>
<text text-anchor="middle" x="617.5" y="-12.5" font-family="Helvetica,sans-Serif" font-size="10.00">MainWindow::handleMessage</text>
</a>
</g>
</g>
<!-- Node1&#45;&gt;Node2 -->
<g id="edge1_Node000001_Node000002" class="edge">
<title>Node1&#45;&gt;Node2</title>
<g id="a_edge1_Node000001_Node000002"><a xlink:title=" ">
<path fill="none" stroke="#63b8ff" d="M723.89,-15C715.28,-15 706.63,-15 698.18,-15"/>
<polygon fill="#63b8ff" stroke="#63b8ff" points="723.96,-18.5 733.96,-15 723.96,-11.5 723.96,-18.5"/>
</a>
</g>
</g>
<!-- Node3 -->
<g id="Node000003" class="node">
<title>Node3</title>
<g id="a_Node000003"><a xlink:href="classMainWindow.html#a332648d0a0caec8070b05bc27bb9a14b" target="_top" xlink:title="Procédure de fenêtre statique, point d&#39;entrée imposé par Win32.">
<polygon fill="white" stroke="#666666" points="501,-24.5 358,-24.5 358,-5.5 501,-5.5 501,-24.5"/>
<text text-anchor="middle" x="429.5" y="-12.5" font-family="Helvetica,sans-Serif" font-size="10.00">MainWindow::windowProc</text>
</a>
</g>
</g>
<!-- Node2&#45;&gt;Node3 -->
<g id="edge2_Node000002_Node000003" class="edge">
<title>Node2&#45;&gt;Node3</title>
<g id="a_edge2_Node000002_Node000003"><a xlink:title=" ">
<path fill="none" stroke="#63b8ff" d="M526.77,-15C518.2,-15 509.58,-15 501.22,-15"/>
<polygon fill="#63b8ff" stroke="#63b8ff" points="526.81,-18.5 536.81,-15 526.81,-11.5 526.81,-18.5"/>
</a>
</g>
</g>
<!-- Node4 -->
<g id="Node000004" class="node">
<title>Node4</title>
<g id="a_Node000004"><a xlink:href="classApplication.html#a0bda40de108938fd29374335bf4eac71" target="_top" xlink:title="Enregistre la classe de fenêtre Win32 (WNDCLASSEXW).">
<polygon fill="white" stroke="#666666" points="322,-30 168,-30 168,0 322,0 322,-30"/>
<text text-anchor="start" x="176" y="-18" font-family="Helvetica,sans-Serif" font-size="10.00">Application::registerWindow</text>
<text text-anchor="middle" x="245" y="-7" font-family="Helvetica,sans-Serif" font-size="10.00">Class</text>
</a>
</g>
</g>
<!-- Node3&#45;&gt;Node4 -->
<g id="edge3_Node000003_Node000004" class="edge">
<title>Node3&#45;&gt;Node4</title>
<g id="a_edge3_Node000003_Node000004"><a xlink:title=" ">
<path fill="none" stroke="#63b8ff" d="M347.66,-15C339.17,-15 330.56,-15 322.12,-15"/>
<polygon fill="#63b8ff" stroke="#63b8ff" points="347.94,-18.5 357.94,-15 347.94,-11.5 347.94,-18.5"/>
</a>
</g>
</g>
<!-- Node5 -->
<g id="Node000005" class="node">
<title>Node5</title>
<g id="a_Node000005"><a xlink:href="classApplication.html#a719cf091afd2276d52f9a58e4962ebfb" target="_top" xlink:title="Construit l&#39;application et enregistre la classe de fenêtre.">
<polygon fill="white" stroke="#666666" points="132,-24.5 0,-24.5 0,-5.5 132,-5.5 132,-24.5"/>
<text text-anchor="middle" x="66" y="-12.5" font-family="Helvetica,sans-Serif" font-size="10.00">Application::Application</text>
</a>
</g>
</g>
<!-- Node4&#45;&gt;Node5 -->
<g id="edge4_Node000004_Node000005" class="edge">
<title>Node4&#45;&gt;Node5</title>
<g id="a_edge4_Node000004_Node000005"><a xlink:title=" ">
<path fill="none" stroke="#63b8ff" d="M157.82,-15C149.19,-15 140.53,-15 132.18,-15"/>
<polygon fill="#63b8ff" stroke="#63b8ff" points="157.91,-18.5 167.91,-15 157.91,-11.5 157.91,-18.5"/>
</a>
</g>
</g>
</g>
</svg>
