<?xml version="1.0" encoding="UTF-8" standalone="no"?>
<!DOCTYPE svg PUBLIC "-//W3C//DTD SVG 1.1//EN"
 "http://www.w3.org/Graphics/SVG/1.1/DTD/svg11.dtd">
<!-- Generated by graphviz version 2.43.0 (0)
 -->
<!-- Title: MainWindow::create Pages: 1 -->
<svg width="1119pt" height="423pt"
 viewBox="0.00 0.00 1119.00 423.00" xmlns="http://www.w3.org/2000/svg" xmlns:xlink="http://www.w3.org/1999/xlink">
<g id="graph0" class="graph" transform="scale(1 1) rotate(0) translate(4 419)">
<title>MainWindow::create</title>
<!-- Node1 -->
<g id="Node000001" class="node">
<title>Node1</title>
<g id="a_Node000001"><a xlink:title="Crée et affiche la fenêtre Win32, puis initialise la ProgressBar.">
<polygon fill="#999999" stroke="#666666" points="116,-228 0,-228 0,-209 116,-209 116,-228"/>
<text text-anchor="middle" x="58" y="-216" font-family="Helvetica,sans-Serif" font-size="10.00">MainWindow::create</text>
</a>
</g>
</g>
<!-- Node2 -->
<g id="Node000002" class="node">
<title>Node2</title>
<g id="a_Node000002"><a xlink:href="classProgressBar.html#a608e19274cfd76f8874e4ef6e2dcb396" target="_top" xlink:title="Crée la ProgressBar dans une fenêtre parent.">
<polygon fill="white" stroke="#666666" points="293,-415 181,-415 181,-396 293,-396 293,-415"/>
<text text-anchor="middle" x="237" y="-403" font-family="Helvetica,sans-Serif" font-size="10.00">ProgressBar::create</text>
</a>
</g>
</g>
<!-- Node1&#45;&gt;Node2 -->
<g id="edge1_Node000001_Node000002" class="edge">
<title>Node1&#45;&gt;Node2</title>
<g id="a_edge1_Node000001_Node000002"><a xlink:title=" ">
<path fill="none" stroke="#63b8ff" d="M61.25,-228.01C68.64,-257.04 95.03,-345.13 152,-387.5 157.63,-391.69 164.02,-394.94 170.72,-397.47"/>
<polygon fill="#63b8ff" stroke="#63b8ff" points="170.08,-400.94 180.67,-400.67 172.23,-394.28 170.08,-400.94"/>
</a>
</g>
</g>
<!-- Node3 -->
<g id="Node000003" class="node">
<title>Node3</title>
<g id="a_Node000003"><a xlink:href="classWebViewPanel.html#a49887c0d1a400c93f002085a8994ece1" target="_top" xlink:title="Initialise WebView2 dans une fenêtre Win32 existante.">
<polygon fill="white" stroke="#666666" points="299.5,-378 174.5,-378 174.5,-359 299.5,-359 299.5,-378"/>
<text text-anchor="middle" x="237" y="-366" font-family="Helvetica,sans-Serif" font-size="10.00">WebViewPanel::create</text>
</a>
</g>
</g>
<!-- Node1&#45;&gt;Node3 -->
<g id="edge2_Node000001_Node000003" class="edge">
<title>Node1&#45;&gt;Node3</title>
<g id="a_edge2_Node000001_Node000003"><a xlink:title=" ">
<path fill="none" stroke="#63b8ff" d="M63.31,-228.07C74.43,-251.64 106.43,-312.88 152,-344.5 158.4,-348.94 165.6,-352.56 173.04,-355.52"/>
<polygon fill="#63b8ff" stroke="#63b8ff" points="171.95,-358.84 182.54,-358.92 174.3,-352.25 171.95,-358.84"/>
</a>
</g>
</g>
<!-- Node8 -->
<g id="Node000008" class="node">
<title>Node8</title>
<g id="a_Node000008"><a xlink:href="classWebViewPanel.html#a7a3796392183cbf2538ccb72f87c839a" target="_top" xlink:title="Redimensionne le WebView pour s&#39;adapter à la fenêtre.">
<polygon fill="white" stroke="#666666" points="1087.5,-340 964.5,-340 964.5,-321 1087.5,-321 1087.5,-340"/>
<text text-anchor="middle" x="1026" y="-328" font-family="Helvetica,sans-Serif" font-size="10.00">WebViewPanel::resize</text>
</a>
</g>
</g>
<!-- Node1&#45;&gt;Node8 -->
<g id="edge25_Node000001_Node000008" class="edge">
<title>Node1&#45;&gt;Node8</title>
<g id="a_edge25_Node000001_Node000008"><a xlink:title=" ">
<path fill="none" stroke="#63b8ff" d="M65.02,-228.08C78.05,-247.85 111.05,-292.9 152,-311.5 266.17,-363.36 308.1,-330.5 433.5,-330.5 433.5,-330.5 433.5,-330.5 632,-330.5 744.64,-330.5 875.44,-330.5 954.13,-330.5"/>
<polygon fill="#63b8ff" stroke="#63b8ff" points="954.41,-334 964.41,-330.5 954.41,-327 954.41,-334"/>
</a>
</g>
</g>
<!-- Node9 -->
<g id="Node000009" class="node">
<title>Node9</title>
<g id="a_Node000009"><a xlink:href="PathUtils_8h.html#ad3c857d595cfed1f004777b9307b8aa5" target="_top" xlink:title=" ">
<polygon fill="white" stroke="#666666" points="294.5,-302 179.5,-302 179.5,-283 294.5,-283 294.5,-302"/>
<text text-anchor="middle" x="237" y="-290" font-family="Helvetica,sans-Serif" font-size="10.00">executableDirectory</text>
</a>
</g>
</g>
<!-- Node1&#45;&gt;Node9 -->
<g id="edge8_Node000001_Node000009" class="edge">
<title>Node1&#45;&gt;Node9</title>
<g id="a_edge8_Node000001_Node000009"><a xlink:title=" ">
<path fill="none" stroke="#63b8ff" d="M71.83,-228.13C89.13,-240.66 121.33,-262.37 152,-274.5 157.51,-276.68 163.33,-278.61 169.23,-280.33"/>
<polygon fill="#63b8ff" stroke="#63b8ff" points="168.64,-283.8 179.21,-283.01 170.46,-277.04 168.64,-283.8"/>
</a>
</g>
</g>
<!-- Node10 -->
<g id="Node000010" class="node">
<title>Node10</title>
<g id="a_Node000010"><a xlink:href="classWebViewPanel.html#a17fdacaf19c8e0830ae1ea7ee1632993" target="_top" xlink:title="Navigue vers une URL.">
<polygon fill="white" stroke="#666666" points="305.5,-265 168.5,-265 168.5,-246 305.5,-246 305.5,-265"/>
<text text-anchor="middle" x="237" y="-253" font-family="Helvetica,sans-Serif" font-size="10.00">WebViewPanel::navigate</text>
</a>
</g>
</g>
<!-- Node1&#45;&gt;Node10 -->
<g id="edge9_Node000001_Node000010" class="edge">
<title>Node1&#45;&gt;Node10</title>
<g id="a_edge9_Node000001_Node000010"><a xlink:title=" ">
<path fill="none" stroke="#63b8ff" d="M104.58,-228.03C127.72,-232.86 156.02,-238.78 180.42,-243.88"/>
<polygon fill="#63b8ff" stroke="#63b8ff" points="179.76,-247.32 190.27,-245.94 181.19,-240.47 179.76,-247.32"/>
</a>
</g>
</g>
<!-- Node11 -->
<g id="Node000011" class="node">
<title>Node11</title>
<g id="a_Node000011"><a xlink:href="classMainWindow.html#a6e84464d583e27d6f978385b22a5945f" target="_top" xlink:title="Dispatcher principal des messages JSON reçus depuis Leaflet.">
<polygon fill="white" stroke="#666666" points="317.5,-228 156.5,-228 156.5,-209 317.5,-209 317.5,-228"/>
<text text-anchor="middle" x="237" y="-216" font-family="Helvetica,sans-Serif" font-size="10.00">MainWindow::onWebMessage</text>
</a>
</g>
</g>
<!-- Node1&#45;&gt;Node11 -->
<g id="edge10_Node000001_Node000011" class="edge">
<title>Node1&#45;&gt;Node11</title>
<g id="a_edge10_Node000001_Node000011"><a xlink:title=" ">
<path fill="none" stroke="#63b8ff" d="M116.47,-218.5C126.01,-218.5 136.1,-218.5 146.21,-218.5"/>
<polygon fill="#63b8ff" stroke="#63b8ff" points="146.31,-222 156.31,-218.5 146.31,-215 146.31,-222"/>
</a>
</g>
</g>
<!-- Node23 -->
<g id="Node000023" class="node">
<title>Node23</title>
<g id="a_Node000023"><a xlink:href="classWebViewPanel.html#a118dd6f6115c00ad0d01b6c4238e5caf" target="_top" xlink:title="Définit un callback à appeler une fois l&#39;initialisation terminée.">
<polygon fill="white" stroke="#666666" points="322,-191 152,-191 152,-172 322,-172 322,-191"/>
<text text-anchor="middle" x="237" y="-179" font-family="Helvetica,sans-Serif" font-size="10.00">WebViewPanel::setOnInitialized</text>
</a>
</g>
</g>
<!-- Node1&#45;&gt;Node23 -->
<g id="edge26_Node000001_Node000023" class="edge">
<title>Node1&#45;&gt;Node23</title>
<g id="a_edge26_Node000001_Node000023"><a xlink:title=" ">
<path fill="none" stroke="#63b8ff" d="M104.58,-208.97C127.72,-204.14 156.02,-198.22 180.42,-193.12"/>
<polygon fill="#63b8ff" stroke="#63b8ff" points="181.19,-196.53 190.27,-191.06 179.76,-189.68 181.19,-196.53"/>
</a>
</g>
</g>
<!-- Node24 -->
<g id="Node000024" class="node">
<title>Node24</title>
<g id="a_Node000024"><a xlink:href="classWebViewPanel.html#a71afad8b186e38cd35fded12d736b0c6" target="_top" xlink:title="Enregistre le handler des messages JS entrants.">
<polygon fill="white" stroke="#666666" points="320,-153.5 154,-153.5 154,-123.5 320,-123.5 320,-153.5"/>
<text text-anchor="start" x="162" y="-141.5" font-family="Helvetica,sans-Serif" font-size="10.00">WebViewPanel::setOnMessage</text>
<text text-anchor="middle" x="237" y="-130.5" font-family="Helvetica,sans-Serif" font-size="10.00">Received</text>
</a>
</g>
</g>
<!-- Node1&#45;&gt;Node24 -->
<g id="edge27_Node000001_Node000024" class="edge">
<title>Node1&#45;&gt;Node24</title>
<g id="a_edge27_Node000001_Node000024"><a xlink:title=" ">
<path fill="none" stroke="#63b8ff" d="M72.26,-208.97C89.77,-196.75 121.93,-175.58 152,-162.5 156.66,-160.47 161.54,-158.57 166.51,-156.78"/>
<polygon fill="#63b8ff" stroke="#63b8ff" points="167.78,-160.04 176.11,-153.5 165.52,-153.42 167.78,-160.04"/>
</a>
</g>
</g>
<!-- Node25 -->
<g id="Node000025" class="node">
<title>Node25</title>
<g id="a_Node000025"><a xlink:href="classProgressBar.html#ad06234c2844ac3beb9f8e8532015c0cd" target="_top" xlink:title="Met à jour la progression.">
<polygon fill="white" stroke="#666666" points="306,-105 168,-105 168,-86 306,-86 306,-105"/>
<text text-anchor="middle" x="237" y="-93" font-family="Helvetica,sans-Serif" font-size="10.00">ProgressBar::setProgress</text>
</a>
</g>
</g>
<!-- Node1&#45;&gt;Node25 -->
<g id="edge28_Node000001_Node000025" class="edge">
<title>Node1&#45;&gt;Node25</title>
<g id="a_edge28_Node000001_Node000025"><a xlink:title=" ">
<path fill="none" stroke="#63b8ff" d="M64.6,-208.96C77.3,-188.23 110.46,-138.94 152,-114.5 155.7,-112.32 159.62,-110.4 163.67,-108.69"/>
<polygon fill="#63b8ff" stroke="#63b8ff" points="165.17,-111.87 173.32,-105.1 162.72,-105.31 165.17,-111.87"/>
</a>
</g>
</g>
<!-- Node26 -->
<g id="Node000026" class="node">
<title>Node26</title>
<g id="a_Node000026"><a xlink:href="classWebViewPanel.html#a3d18421b35ea7ad55ff884ce299ac53c" target="_top" xlink:title="Mappe un nom d&#39;hôte virtuel vers un dossier local. Permet de servir des fichiers locaux via https://h...">
<polygon fill="white" stroke="#666666" points="307.5,-67.5 166.5,-67.5 166.5,-37.5 307.5,-37.5 307.5,-67.5"/>
<text text-anchor="start" x="174.5" y="-55.5" font-family="Helvetica,sans-Serif" font-size="10.00">WebViewPanel::setVirtual</text>
<text text-anchor="middle" x="237" y="-44.5" font-family="Helvetica,sans-Serif" font-size="10.00">HostMapping</text>
</a>
</g>
</g>
<!-- Node1&#45;&gt;Node26 -->
<g id="edge29_Node000001_Node000026" class="edge">
<title>Node1&#45;&gt;Node26</title>
<g id="a_edge29_Node000001_Node000026"><a xlink:title=" ">
<path fill="none" stroke="#63b8ff" d="M62.52,-208.86C72.39,-183.19 102.88,-112.67 152,-76.5 153.89,-75.11 155.85,-73.8 157.87,-72.57"/>
<polygon fill="#63b8ff" stroke="#63b8ff" points="159.93,-75.44 167.1,-67.64 156.63,-69.27 159.93,-75.44"/>
</a>
</g>
</g>
<!-- Node27 -->
<g id="Node000027" class="node">
<title>Node27</title>
<g id="a_Node000027"><a xlink:href="classProgressBar.html#ac9fbcf04d7d4e8c5b3e332efcfc0d34c" target="_top" xlink:title="Show or hide the ProgressBar.">
<polygon fill="white" stroke="#666666" points="290.5,-19 183.5,-19 183.5,0 290.5,0 290.5,-19"/>
<text text-anchor="middle" x="237" y="-7" font-family="Helvetica,sans-Serif" font-size="10.00">ProgressBar::show</text>
</a>
</g>
</g>
<!-- Node1&#45;&gt;Node27 -->
<g id="edge30_Node000001_Node000027" class="edge">
<title>Node1&#45;&gt;Node27</title>
<g id="a_edge30_Node000001_Node000027"><a xlink:title=" ">
<path fill="none" stroke="#63b8ff" d="M60.71,-208.77C66.78,-177.26 90.35,-77.25 152,-28.5 158.42,-23.42 165.94,-19.65 173.78,-16.85"/>
<polygon fill="#63b8ff" stroke="#63b8ff" points="174.93,-20.16 183.47,-13.9 172.89,-13.47 174.93,-20.16"/>
</a>
</g>
</g>
<!-- Node4 -->
<g id="Node000004" class="node">
<title>Node4</title>
<g id="a_Node000004"><a xlink:href="classWebViewPanel.html#a886fd07f1d23eec535d0b57215c6ce50" target="_top" xlink:title="Initialise l&#39;environnement WebView2 de manière asynchrone.">
<polygon fill="white" stroke="#666666" points="502.5,-388.5 366.5,-388.5 366.5,-358.5 502.5,-358.5 502.5,-388.5"/>
<text text-anchor="start" x="374.5" y="-376.5" font-family="Helvetica,sans-Serif" font-size="10.00">WebViewPanel::initialize</text>
<text text-anchor="middle" x="434.5" y="-365.5" font-family="Helvetica,sans-Serif" font-size="10.00">WebView</text>
</a>
</g>
</g>
<!-- Node3&#45;&gt;Node4 -->
<g id="edge3_Node000003_Node000004" class="edge">
<title>Node3&#45;&gt;Node4</title>
<g id="a_edge3_Node000003_Node000004"><a xlink:title=" ">
<path fill="none" stroke="#63b8ff" d="M299.59,-370.08C317.61,-370.54 337.55,-371.05 356.41,-371.53"/>
<polygon fill="#63b8ff" stroke="#63b8ff" points="356.37,-375.03 366.46,-371.79 356.55,-368.03 356.37,-375.03"/>
</a>
</g>
</g>
<!-- Node5 -->
<g id="Node000005" class="node">
<title>Node5</title>
<g id="a_Node000005"><a xlink:href="classWebViewPanel.html#a49d047e945df840f4c48dbf0a3264b16" target="_top" xlink:title="Callback déclenché à la fin de la création de l&#39;environnement WebView2.">
<polygon fill="white" stroke="#666666" points="715,-388.5 547,-388.5 547,-358.5 715,-358.5 715,-388.5"/>
<text text-anchor="start" x="555" y="-376.5" font-family="Helvetica,sans-Serif" font-size="10.00">WebViewPanel::onEnvironment</text>
<text text-anchor="middle" x="631" y="-365.5" font-family="Helvetica,sans-Serif" font-size="10.00">Created</text>
</a>
</g>
</g>
<!-- Node4&#45;&gt;Node5 -->
<g id="edge4_Node000004_Node000005" class="edge">
<title>Node4&#45;&gt;Node5</title>
<g id="a_edge4_Node000004_Node000005"><a xlink:title=" ">
<path fill="none" stroke="#63b8ff" d="M502.71,-373.5C513.75,-373.5 525.36,-373.5 536.9,-373.5"/>
<polygon fill="#63b8ff" stroke="#63b8ff" points="537,-377 547,-373.5 537,-370 537,-377"/>
</a>
</g>
</g>
<!-- Node6 -->
<g id="Node000006" class="node">
<title>Node6</title>
<g id="a_Node000006"><a xlink:href="classWebViewPanel.html#a2098e8aa83f6ab5b825514deda7fd846" target="_top" xlink:title="Callback déclenché à la fin de la création du contrôleur WebView2.">
<polygon fill="white" stroke="#666666" points="905,-388.5 751,-388.5 751,-358.5 905,-358.5 905,-388.5"/>
<text text-anchor="start" x="759" y="-376.5" font-family="Helvetica,sans-Serif" font-size="10.00">WebViewPanel::onController</text>
<text text-anchor="middle" x="828" y="-365.5" font-family="Helvetica,sans-Serif" font-size="10.00">Created</text>
</a>
</g>
</g>
<!-- Node5&#45;&gt;Node6 -->
<g id="edge5_Node000005_Node000006" class="edge">
<title>Node5&#45;&gt;Node6</title>
<g id="a_edge5_Node000005_Node000006"><a xlink:title=" ">
<path fill="none" stroke="#63b8ff" d="M715.26,-373.5C723.65,-373.5 732.19,-373.5 740.61,-373.5"/>
<polygon fill="#63b8ff" stroke="#63b8ff" points="740.81,-377 750.81,-373.5 740.81,-370 740.81,-377"/>
</a>
</g>
</g>
<!-- Node7 -->
<g id="Node000007" class="node">
<title>Node7</title>
<g id="a_Node000007"><a xlink:href="classWebViewPanel.html#ac77338c39cc87b2fb7b7bde9da2004b1" target="_top" xlink:title="Callback statique déclenché à la réception d&#39;un message JavaScript.">
<polygon fill="white" stroke="#666666" points="1111,-388.5 941,-388.5 941,-358.5 1111,-358.5 1111,-388.5"/>
<text text-anchor="start" x="949" y="-376.5" font-family="Helvetica,sans-Serif" font-size="10.00">WebViewPanel::onWebMessage</text>
<text text-anchor="middle" x="1026" y="-365.5" font-family="Helvetica,sans-Serif" font-size="10.00">Received</text>
</a>
</g>
</g>
<!-- Node6&#45;&gt;Node7 -->
<g id="edge6_Node000006_Node000007" class="edge">
<title>Node6&#45;&gt;Node7</title>
<g id="a_edge6_Node000006_Node000007"><a xlink:title=" ">
<path fill="none" stroke="#63b8ff" d="M905.06,-373.5C913.49,-373.5 922.15,-373.5 930.77,-373.5"/>
<polygon fill="#63b8ff" stroke="#63b8ff" points="930.85,-377 940.85,-373.5 930.85,-370 930.85,-377"/>
</a>
</g>
</g>
<!-- Node6&#45;&gt;Node8 -->
<g id="edge7_Node000006_Node000008" class="edge">
<title>Node6&#45;&gt;Node8</title>
<g id="a_edge7_Node000006_Node000008"><a xlink:title=" ">
<path fill="none" stroke="#63b8ff" d="M897.55,-358.46C921.88,-353.12 948.88,-347.2 971.74,-342.18"/>
<polygon fill="#63b8ff" stroke="#63b8ff" points="972.58,-345.58 981.6,-340.02 971.08,-338.75 972.58,-345.58"/>
</a>
</g>
</g>
<!-- Node12 -->
<g id="Node000012" class="node">
<title>Node12</title>
<g id="a_Node000012"><a xlink:href="classMainWindow.html#a242d9acf230544637908fc2cf31f1284" target="_top" xlink:title="Met à jour l&#39;état opérationnel d&#39;un SwitchBlock après un clic.">
<polygon fill="white" stroke="#666666" points="511,-217 358,-217 358,-198 511,-198 511,-217"/>
<text text-anchor="middle" x="434.5" y="-205" font-family="Helvetica,sans-Serif" font-size="10.00">MainWindow::onSwitchClick</text>
</a>
</g>
</g>
<!-- Node11&#45;&gt;Node12 -->
<g id="edge11_Node000011_Node000012" class="edge">
<title>Node11&#45;&gt;Node12</title>
<g id="a_edge11_Node000011_Node000012"><a xlink:title=" ">
<path fill="none" stroke="#63b8ff" d="M317.52,-214.03C327.51,-213.46 337.76,-212.89 347.84,-212.32"/>
<polygon fill="#63b8ff" stroke="#63b8ff" points="348.06,-215.81 357.84,-211.76 347.66,-208.82 348.06,-215.81"/>
</a>
</g>
</g>
<!-- Node13 -->
<g id="Node000013" class="node">
<title>Node13</title>
<g id="a_Node000013"><a xlink:href="classTopologyRepository.html#a0179f504f5d22ea5b16926511a9cb027" target="_top" xlink:title="Retourne une référence mutable aux données topologiques.">
<polygon fill="white" stroke="#666666" points="687.5,-254.5 574.5,-254.5 574.5,-224.5 687.5,-224.5 687.5,-254.5"/>
<text text-anchor="start" x="582.5" y="-242.5" font-family="Helvetica,sans-Serif" font-size="10.00">TopologyRepository</text>
<text text-anchor="middle" x="631" y="-231.5" font-family="Helvetica,sans-Serif" font-size="10.00">::data</text>
</a>
</g>
</g>
<!-- Node12&#45;&gt;Node13 -->
<g id="edge12_Node000012_Node000013" class="edge">
<title>Node12&#45;&gt;Node13</title>
<g id="a_edge12_Node000012_Node000013"><a xlink:title=" ">
<path fill="none" stroke="#63b8ff" d="M493.33,-217.01C515.67,-220.69 541.35,-224.91 564.37,-228.7"/>
<polygon fill="#63b8ff" stroke="#63b8ff" points="563.96,-232.18 574.4,-230.35 565.1,-225.27 563.96,-232.18"/>
</a>
</g>
</g>
<!-- Node14 -->
<g id="Node000014" class="node">
<title>Node14</title>
<g id="a_Node000014"><a xlink:href="classWebViewPanel.html#a5890da7c431554b9e864759f293dac1f" target="_top" xlink:title="Exécute un script JavaScript dans le contexte de la page chargée.">
<polygon fill="white" stroke="#666666" points="711,-206 551,-206 551,-187 711,-187 711,-206"/>
<text text-anchor="middle" x="631" y="-194" font-family="Helvetica,sans-Serif" font-size="10.00">WebViewPanel::executeScript</text>
</a>
</g>
</g>
<!-- Node12&#45;&gt;Node14 -->
<g id="edge13_Node000012_Node000014" class="edge">
<title>Node12&#45;&gt;Node14</title>
<g id="a_edge13_Node000012_Node000014"><a xlink:title=" ">
<path fill="none" stroke="#63b8ff" d="M511.26,-203.22C520.91,-202.67 530.87,-202.11 540.72,-201.55"/>
<polygon fill="#63b8ff" stroke="#63b8ff" points="541.13,-205.03 550.92,-200.97 540.74,-198.04 541.13,-205.03"/>
</a>
</g>
</g>
<!-- Node15 -->
<g id="Node000015" class="node">
<title>Node15</title>
<g id="a_Node000015"><a xlink:href="classTopologyRepository.html#adb001f817a74b4b81e05d0d22517f509" target="_top" xlink:title="Retourne l&#39;instance unique du repository (création paresseuse).">
<polygon fill="white" stroke="#666666" points="687.5,-150.5 574.5,-150.5 574.5,-120.5 687.5,-120.5 687.5,-150.5"/>
<text text-anchor="start" x="582.5" y="-138.5" font-family="Helvetica,sans-Serif" font-size="10.00">TopologyRepository</text>
<text text-anchor="middle" x="631" y="-127.5" font-family="Helvetica,sans-Serif" font-size="10.00">::instance</text>
</a>
</g>
</g>
<!-- Node12&#45;&gt;Node15 -->
<g id="edge14_Node000012_Node000015" class="edge">
<title>Node12&#45;&gt;Node15</title>
<g id="a_edge14_Node000012_Node000015"><a xlink:title=" ">
<path fill="none" stroke="#63b8ff" d="M461.33,-197.94C491.3,-186.84 541.46,-168.28 579.3,-154.27"/>
<polygon fill="#63b8ff" stroke="#63b8ff" points="580.96,-157.38 589.13,-150.63 578.53,-150.82 580.96,-157.38"/>
</a>
</g>
</g>
<!-- Node16 -->
<g id="Node000016" class="node">
<title>Node16</title>
<g id="a_Node000016"><a xlink:href="classSwitchBlock.html#a49ee6b32f553615447b412e58afca21a" target="_top" xlink:title="Alterne entre NORMAL et DEVIATION. Équivalent à setActiveBranch(!current).">
<polygon fill="white" stroke="#666666" points="702.5,-102.5 559.5,-102.5 559.5,-72.5 702.5,-72.5 702.5,-102.5"/>
<text text-anchor="start" x="567.5" y="-90.5" font-family="Helvetica,sans-Serif" font-size="10.00">SwitchBlock::toggleActive</text>
<text text-anchor="middle" x="631" y="-79.5" font-family="Helvetica,sans-Serif" font-size="10.00">Branch</text>
</a>
</g>
</g>
<!-- Node12&#45;&gt;Node16 -->
<g id="edge16_Node000012_Node000016" class="edge">
<title>Node12&#45;&gt;Node16</title>
<g id="a_edge16_Node000012_Node000016"><a xlink:title=" ">
<path fill="none" stroke="#63b8ff" d="M444.01,-197.78C461.43,-178.5 503.2,-135.21 547,-111.5 550.29,-109.72 553.73,-108.05 557.26,-106.5"/>
<polygon fill="#63b8ff" stroke="#63b8ff" points="558.81,-109.65 566.76,-102.66 556.18,-103.17 558.81,-109.65"/>
</a>
</g>
</g>
<!-- Node20 -->
<g id="Node000020" class="node">
<title>Node20</title>
<g id="a_Node000020"><a xlink:href="classTopologyRenderer.html#acf7559914d95f6d59c37106a11bd0df7" target="_top" xlink:title="Génère le script JS de mise à jour visuelle d&#39;un switch et ses partenaires.">
<polygon fill="white" stroke="#666666" points="703,-302.5 559,-302.5 559,-272.5 703,-272.5 703,-302.5"/>
<text text-anchor="start" x="567" y="-290.5" font-family="Helvetica,sans-Serif" font-size="10.00">TopologyRenderer::update</text>
<text text-anchor="middle" x="631" y="-279.5" font-family="Helvetica,sans-Serif" font-size="10.00">SwitchBlocks</text>
</a>
</g>
</g>
<!-- Node12&#45;&gt;Node20 -->
<g id="edge20_Node000012_Node000020" class="edge">
<title>Node12&#45;&gt;Node20</title>
<g id="a_edge20_Node000012_Node000020"><a xlink:title=" ">
<path fill="none" stroke="#63b8ff" d="M452.06,-217.03C473.45,-229.06 512.11,-249.83 547,-263.5 552.15,-265.52 557.54,-267.45 562.99,-269.29"/>
<polygon fill="#63b8ff" stroke="#63b8ff" points="562.24,-272.72 572.83,-272.47 564.4,-266.06 562.24,-272.72"/>
</a>
</g>
</g>
<!-- Node15&#45;&gt;Node15 -->
<g id="edge15_Node000015_Node000015" class="edge">
<title>Node15&#45;&gt;Node15</title>
<g id="a_edge15_Node000015_Node000015"><a xlink:title=" ">
<path fill="none" stroke="#63b8ff" d="M596.55,-150.78C588.89,-159.91 600.38,-168.5 631,-168.5 649.18,-168.5 660.62,-165.47 665.31,-161.1"/>
<polygon fill="#63b8ff" stroke="#63b8ff" points="668.81,-160.82 665.45,-150.78 661.81,-160.72 668.81,-160.82"/>
</a>
</g>
</g>
<!-- Node17 -->
<g id="Node000017" class="node">
<title>Node17</title>
<g id="a_Node000017"><a xlink:href="classSwitchBlock.html#a4c252f2bb90dbe50b8c9d8e8de0fc5b5" target="_top" xlink:title="Convertit l&#39;état ActiveBranch courant en chaîne lisible. Utilisé exclusivement par les appels de log.">
<polygon fill="white" stroke="#666666" points="901,-102.5 755,-102.5 755,-72.5 901,-72.5 901,-102.5"/>
<text text-anchor="start" x="763" y="-90.5" font-family="Helvetica,sans-Serif" font-size="10.00">SwitchBlock::activeBranch</text>
<text text-anchor="middle" x="828" y="-79.5" font-family="Helvetica,sans-Serif" font-size="10.00">ToString</text>
</a>
</g>
</g>
<!-- Node16&#45;&gt;Node17 -->
<g id="edge17_Node000016_Node000017" class="edge">
<title>Node16&#45;&gt;Node17</title>
<g id="a_edge17_Node000016_Node000017"><a xlink:title=" ">
<path fill="none" stroke="#63b8ff" d="M702.68,-87.5C716.36,-87.5 730.8,-87.5 744.82,-87.5"/>
<polygon fill="#63b8ff" stroke="#63b8ff" points="744.93,-91 754.93,-87.5 744.93,-84 744.93,-91"/>
</a>
</g>
</g>
<!-- Node18 -->
<g id="Node000018" class="node">
<title>Node18</title>
<g id="a_Node000018"><a xlink:href="classSwitchBlock.html#af65a62f314ce4544ce687eacc13786e8" target="_top" xlink:title="Retourne le switch partenaire côté deviation, ou nullptr.">
<polygon fill="white" stroke="#666666" points="901,-155.5 755,-155.5 755,-125.5 901,-125.5 901,-155.5"/>
<text text-anchor="start" x="763" y="-143.5" font-family="Helvetica,sans-Serif" font-size="10.00">SwitchBlock::getPartnerOn</text>
<text text-anchor="middle" x="828" y="-132.5" font-family="Helvetica,sans-Serif" font-size="10.00">Deviation</text>
</a>
</g>
</g>
<!-- Node16&#45;&gt;Node18 -->
<g id="edge18_Node000016_Node000018" class="edge">
<title>Node16&#45;&gt;Node18</title>
<g id="a_edge18_Node000016_Node000018"><a xlink:title=" ">
<path fill="none" stroke="#63b8ff" d="M687.36,-102.55C710.52,-108.84 737.6,-116.2 761.72,-122.76"/>
<polygon fill="#63b8ff" stroke="#63b8ff" points="760.94,-126.17 771.5,-125.42 762.77,-119.42 760.94,-126.17"/>
</a>
</g>
</g>
<!-- Node19 -->
<g id="Node000019" class="node">
<title>Node19</title>
<g id="a_Node000019"><a xlink:href="classSwitchBlock.html#a72cf7392935372bed47bccc9c1feb096" target="_top" xlink:title="Retourne le switch partenaire côté normal, ou nullptr. Cast valide uniquement si isDouble() &amp;&amp; getDou...">
<polygon fill="white" stroke="#666666" points="901,-212.5 755,-212.5 755,-182.5 901,-182.5 901,-212.5"/>
<text text-anchor="start" x="763" y="-200.5" font-family="Helvetica,sans-Serif" font-size="10.00">SwitchBlock::getPartnerOn</text>
<text text-anchor="middle" x="828" y="-189.5" font-family="Helvetica,sans-Serif" font-size="10.00">Normal</text>
</a>
</g>
</g>
<!-- Node16&#45;&gt;Node19 -->
<g id="edge19_Node000016_Node000019" class="edge">
<title>Node16&#45;&gt;Node19</title>
<g id="a_edge19_Node000016_Node000019"><a xlink:title=" ">
<path fill="none" stroke="#63b8ff" d="M699.6,-102.59C705.05,-105.12 710.27,-108.06 715,-111.5 738.05,-128.23 729.07,-146.33 751,-164.5 757.15,-169.6 764.21,-174.04 771.5,-177.86"/>
<polygon fill="#63b8ff" stroke="#63b8ff" points="770.27,-181.16 780.8,-182.39 773.33,-174.86 770.27,-181.16"/>
</a>
</g>
</g>
<!-- Node20&#45;&gt;Node18 -->
<g id="edge22_Node000020_Node000018" class="edge">
<title>Node20&#45;&gt;Node18</title>
<g id="a_edge22_Node000020_Node000018"><a xlink:title=" ">
<path fill="none" stroke="#63b8ff" d="M702.47,-272.38C706.98,-269.86 711.22,-266.92 715,-263.5 746.93,-234.58 720.98,-204.4 751,-173.5 755.85,-168.51 761.58,-164.22 767.68,-160.56"/>
<polygon fill="#63b8ff" stroke="#63b8ff" points="769.7,-163.45 776.84,-155.62 766.37,-157.29 769.7,-163.45"/>
</a>
</g>
</g>
<!-- Node20&#45;&gt;Node19 -->
<g id="edge23_Node000020_Node000019" class="edge">
<title>Node20&#45;&gt;Node19</title>
<g id="a_edge23_Node000020_Node000019"><a xlink:title=" ">
<path fill="none" stroke="#63b8ff" d="M696.89,-272.45C703.21,-269.89 709.36,-266.93 715,-263.5 734.87,-251.4 731.57,-238.3 751,-225.5 755.89,-222.28 761.2,-219.36 766.66,-216.74"/>
<polygon fill="#63b8ff" stroke="#63b8ff" points="768.24,-219.87 775.96,-212.6 765.4,-213.47 768.24,-219.87"/>
</a>
</g>
</g>
<!-- Node21 -->
<g id="Node000021" class="node">
<title>Node21</title>
<g id="a_Node000021"><a xlink:href="classSwitchBlock.html#adbf269599ac24cd670976368ae00b39f" target="_top" xlink:title="Retourne l&#39;identifiant unique de l&#39;élément (ex. &quot;sw/3&quot;, &quot;s/12&quot;).">
<polygon fill="white" stroke="#666666" points="881.5,-254 774.5,-254 774.5,-235 881.5,-235 881.5,-254"/>
<text text-anchor="middle" x="828" y="-242" font-family="Helvetica,sans-Serif" font-size="10.00">SwitchBlock::getId</text>
</a>
</g>
</g>
<!-- Node20&#45;&gt;Node21 -->
<g id="edge21_Node000020_Node000021" class="edge">
<title>Node20&#45;&gt;Node21</title>
<g id="a_edge21_Node000020_Node000021"><a xlink:title=" ">
<path fill="none" stroke="#63b8ff" d="M700.2,-272.46C724.41,-267.12 751.27,-261.2 774.01,-256.18"/>
<polygon fill="#63b8ff" stroke="#63b8ff" points="774.81,-259.59 783.82,-254.02 773.3,-252.76 774.81,-259.59"/>
</a>
</g>
</g>
<!-- Node22 -->
<g id="Node000022" class="node">
<title>Node22</title>
<g id="a_Node000022"><a xlink:href="classSwitchBlock.html#ada66b97802d45a8b3dfbbb05011ae9b6" target="_top" xlink:title=" ">
<polygon fill="white" stroke="#666666" points="896.5,-302.5 759.5,-302.5 759.5,-272.5 896.5,-272.5 896.5,-302.5"/>
<text text-anchor="start" x="767.5" y="-290.5" font-family="Helvetica,sans-Serif" font-size="10.00">SwitchBlock::isDeviation</text>
<text text-anchor="middle" x="828" y="-279.5" font-family="Helvetica,sans-Serif" font-size="10.00">Active</text>
</a>
</g>
</g>
<!-- Node20&#45;&gt;Node22 -->
<g id="edge24_Node000020_Node000022" class="edge">
<title>Node20&#45;&gt;Node22</title>
<g id="a_edge24_Node000020_Node000022"><a xlink:title=" ">
<path fill="none" stroke="#63b8ff" d="M703.23,-287.5C718.08,-287.5 733.81,-287.5 748.89,-287.5"/>
<polygon fill="#63b8ff" stroke="#63b8ff" points="749.21,-291 759.21,-287.5 749.21,-284 749.21,-291"/>
</a>
</g>
</g>
</g>
</svg>
