<?xml version="1.0" encoding="UTF-8" standalone="no"?>
<!DOCTYPE svg PUBLIC "-//W3C//DTD SVG 1.1//EN"
 "http://www.w3.org/Graphics/SVG/1.1/DTD/svg11.dtd">
<!-- Generated by graphviz version 2.43.0 (0)
 -->
<!-- Title: MainWindow Pages: 1 -->
<svg width="392pt" height="1014pt"
 viewBox="0.00 0.00 391.50 1014.00" xmlns="http://www.w3.org/2000/svg" xmlns:xlink="http://www.w3.org/1999/xlink">
<g id="graph0" class="graph" transform="scale(1 1) rotate(0) translate(4 1010)">
<title>MainWindow</title>
<!-- Node1 -->
<g id="Node000001" class="node">
<title>Node1</title>
<g id="a_Node000001"><a xlink:title="Fenêtre principale de l&#39;application SimulateurFerroviaire.">
<polygon fill="#999999" stroke="transparent" points="199,-274 81,-274 81,0 199,0 199,-274"/>
<text text-anchor="start" x="108" y="-262" font-family="Helvetica,sans-Serif" font-size="10.00">MainWindow</text>
<text text-anchor="start" x="87.5" y="-247" font-family="Helvetica,sans-Serif" font-size="10.00">&#45;</text>
<text text-anchor="start" x="98" y="-247" font-family="Helvetica,sans-Serif" font-size="10.00">m_hWnd</text>
<text text-anchor="start" x="87.5" y="-232" font-family="Helvetica,sans-Serif" font-size="10.00">&#45;</text>
<text text-anchor="start" x="98" y="-232" font-family="Helvetica,sans-Serif" font-size="10.00">m_hInstance</text>
<text text-anchor="start" x="87.5" y="-217" font-family="Helvetica,sans-Serif" font-size="10.00">&#45;</text>
<text text-anchor="start" x="98" y="-217" font-family="Helvetica,sans-Serif" font-size="10.00">m_className</text>
<text text-anchor="start" x="87.5" y="-202" font-family="Helvetica,sans-Serif" font-size="10.00">&#45;</text>
<text text-anchor="start" x="98" y="-202" font-family="Helvetica,sans-Serif" font-size="10.00">m_title</text>
<text text-anchor="start" x="87.5" y="-187" font-family="Helvetica,sans-Serif" font-size="10.00">&#45;</text>
<text text-anchor="start" x="98" y="-187" font-family="Helvetica,sans-Serif" font-size="10.00">m_nCmdShow</text>
<text text-anchor="start" x="85" y="-172" font-family="Helvetica,sans-Serif" font-size="10.00">+</text>
<text text-anchor="start" x="98" y="-172" font-family="Helvetica,sans-Serif" font-size="10.00">MainWindow()</text>
<text text-anchor="start" x="85" y="-157" font-family="Helvetica,sans-Serif" font-size="10.00">+</text>
<text text-anchor="start" x="98" y="-157" font-family="Helvetica,sans-Serif" font-size="10.00">create()</text>
<text text-anchor="start" x="85" y="-142" font-family="Helvetica,sans-Serif" font-size="10.00">+</text>
<text text-anchor="start" x="98" y="-142" font-family="Helvetica,sans-Serif" font-size="10.00">windowProc()</text>
<text text-anchor="start" x="87.5" y="-127" font-family="Helvetica,sans-Serif" font-size="10.00">&#45;</text>
<text text-anchor="start" x="98" y="-127" font-family="Helvetica,sans-Serif" font-size="10.00">handleMessage()</text>
<text text-anchor="start" x="87.5" y="-112" font-family="Helvetica,sans-Serif" font-size="10.00">&#45;</text>
<text text-anchor="start" x="98" y="-112" font-family="Helvetica,sans-Serif" font-size="10.00">onCommand()</text>
<text text-anchor="start" x="87.5" y="-97" font-family="Helvetica,sans-Serif" font-size="10.00">&#45;</text>
<text text-anchor="start" x="98" y="-97" font-family="Helvetica,sans-Serif" font-size="10.00">onProgressUpdate()</text>
<text text-anchor="start" x="87.5" y="-82" font-family="Helvetica,sans-Serif" font-size="10.00">&#45;</text>
<text text-anchor="start" x="98" y="-82" font-family="Helvetica,sans-Serif" font-size="10.00">onParsingSuccess()</text>
<text text-anchor="start" x="87.5" y="-67" font-family="Helvetica,sans-Serif" font-size="10.00">&#45;</text>
<text text-anchor="start" x="98" y="-67" font-family="Helvetica,sans-Serif" font-size="10.00">onParsingError()</text>
<text text-anchor="start" x="87.5" y="-52" font-family="Helvetica,sans-Serif" font-size="10.00">&#45;</text>
<text text-anchor="start" x="98" y="-52" font-family="Helvetica,sans-Serif" font-size="10.00">onFileOpen()</text>
<text text-anchor="start" x="87.5" y="-37" font-family="Helvetica,sans-Serif" font-size="10.00">&#45;</text>
<text text-anchor="start" x="98" y="-37" font-family="Helvetica,sans-Serif" font-size="10.00">onFileExport()</text>
<text text-anchor="start" x="87.5" y="-22" font-family="Helvetica,sans-Serif" font-size="10.00">&#45;</text>
<text text-anchor="start" x="98" y="-22" font-family="Helvetica,sans-Serif" font-size="10.00">onSizeUpdate()</text>
<text text-anchor="start" x="87.5" y="-7" font-family="Helvetica,sans-Serif" font-size="10.00">&#45;</text>
<text text-anchor="start" x="98" y="-7" font-family="Helvetica,sans-Serif" font-size="10.00">onDestroy()</text>
<polygon fill="#666666" stroke="#666666" points="81,-257 81,-257 199,-257 199,-257 81,-257"/>
<polygon fill="#666666" stroke="#666666" points="81,-182 81,-182 96,-182 96,-182 81,-182"/>
<polygon fill="#666666" stroke="#666666" points="96,-182 96,-182 199,-182 199,-182 96,-182"/>
<polygon fill="none" stroke="#666666" points="81,0 81,-274 199,-274 199,0 81,0"/>
</a>
</g>
</g>
<!-- Node2 -->
<g id="Node000002" class="node">
<title>Node2</title>
<g id="a_Node000002"><a xlink:href="classProgressBar.html" target="_top" xlink:title=" ">
<polygon fill="white" stroke="transparent" points="88,-542.5 0,-542.5 0,-448.5 88,-448.5 88,-542.5"/>
<text text-anchor="start" x="14.5" y="-530.5" font-family="Helvetica,sans-Serif" font-size="10.00">ProgressBar</text>
<text text-anchor="start" x="6.5" y="-515.5" font-family="Helvetica,sans-Serif" font-size="10.00">&#45;</text>
<text text-anchor="start" x="17" y="-515.5" font-family="Helvetica,sans-Serif" font-size="10.00">m_hwnd</text>
<text text-anchor="start" x="4" y="-500.5" font-family="Helvetica,sans-Serif" font-size="10.00">+</text>
<text text-anchor="start" x="17" y="-500.5" font-family="Helvetica,sans-Serif" font-size="10.00">ProgressBar()</text>
<text text-anchor="start" x="4" y="-485.5" font-family="Helvetica,sans-Serif" font-size="10.00">+</text>
<text text-anchor="start" x="17" y="-485.5" font-family="Helvetica,sans-Serif" font-size="10.00">create()</text>
<text text-anchor="start" x="4" y="-470.5" font-family="Helvetica,sans-Serif" font-size="10.00">+</text>
<text text-anchor="start" x="17" y="-470.5" font-family="Helvetica,sans-Serif" font-size="10.00">setProgress()</text>
<text text-anchor="start" x="4" y="-455.5" font-family="Helvetica,sans-Serif" font-size="10.00">+</text>
<text text-anchor="start" x="17" y="-455.5" font-family="Helvetica,sans-Serif" font-size="10.00">show()</text>
<polygon fill="#666666" stroke="#666666" points="0,-525.5 0,-525.5 88,-525.5 88,-525.5 0,-525.5"/>
<polygon fill="#666666" stroke="#666666" points="0,-510.5 0,-510.5 15,-510.5 15,-510.5 0,-510.5"/>
<polygon fill="#666666" stroke="#666666" points="15,-510.5 15,-510.5 88,-510.5 88,-510.5 15,-510.5"/>
<polygon fill="none" stroke="#666666" points="0,-448.5 0,-542.5 88,-542.5 88,-448.5 0,-448.5"/>
</a>
</g>
</g>
<!-- Node2&#45;&gt;Node1 -->
<g id="edge1_Node000001_Node000002" class="edge">
<title>Node2&#45;&gt;Node1</title>
<g id="a_edge1_Node000001_Node000002"><a xlink:title=" ">
<path fill="none" stroke="#63b8ff" d="M37.25,-448.46C32.76,-406.76 30.1,-344.05 45,-292 51.51,-269.26 62.41,-246.58 74.55,-225.89"/>
<polygon fill="none" stroke="#63b8ff" points="74.57,-225.85 74.26,-218.64 80.79,-215.58 81.1,-222.79 74.57,-225.85"/>
</a>
</g>
<text text-anchor="middle" x="85.5" y="-295" font-family="Helvetica,sans-Serif" font-size="10.00" fill="grey"> &#45;m_progressBar</text>
</g>
<!-- Node3 -->
<g id="Node000003" class="node">
<title>Node3</title>
<g id="a_Node000003"><a xlink:href="classLogger.html" target="_top" xlink:title="Journaliseur associé à un moteur nommé.">
<polygon fill="white" stroke="transparent" points="224,-1006 88,-1006 88,-717 224,-717 224,-1006"/>
<text text-anchor="start" x="139" y="-993.5" font-family="Helvetica,sans-Serif" font-size="10.00">Logger</text>
<text text-anchor="start" x="94.5" y="-978.5" font-family="Helvetica,sans-Serif" font-size="10.00">&#45;</text>
<text text-anchor="start" x="105" y="-978.5" font-family="Helvetica,sans-Serif" font-size="10.00">m_motorName</text>
<text text-anchor="start" x="94.5" y="-963.5" font-family="Helvetica,sans-Serif" font-size="10.00">&#45;</text>
<text text-anchor="start" x="105" y="-963.5" font-family="Helvetica,sans-Serif" font-size="10.00">m_outputFile</text>
<text text-anchor="start" x="94.5" y="-948.5" font-family="Helvetica,sans-Serif" font-size="10.00">&#45;</text>
<text text-anchor="start" x="105" y="-948.5" font-family="Helvetica,sans-Serif" font-size="10.00">m_writeMutex</text>
<text text-anchor="start" x="94.5" y="-933.5" font-family="Helvetica,sans-Serif" font-size="10.00">&#45;</text>
<text text-anchor="start" x="105" y="-933.5" font-family="Helvetica,sans-Serif" font-size="10.00">m_minimumLevel</text>
<text text-anchor="start" x="92" y="-918.5" font-family="Helvetica,sans-Serif" font-size="10.00">+</text>
<text text-anchor="start" x="105" y="-918.5" font-family="Helvetica,sans-Serif" font-size="10.00">Logger()</text>
<text text-anchor="start" x="92" y="-903.5" font-family="Helvetica,sans-Serif" font-size="10.00">+</text>
<text text-anchor="start" x="105" y="-903.5" font-family="Helvetica,sans-Serif" font-size="10.00">~Logger()</text>
<text text-anchor="start" x="92" y="-888.5" font-family="Helvetica,sans-Serif" font-size="10.00">+</text>
<text text-anchor="start" x="105" y="-888.5" font-family="Helvetica,sans-Serif" font-size="10.00">Logger()</text>
<text text-anchor="start" x="92" y="-873.5" font-family="Helvetica,sans-Serif" font-size="10.00">+</text>
<text text-anchor="start" x="105" y="-873.5" font-family="Helvetica,sans-Serif" font-size="10.00">operator=()</text>
<text text-anchor="start" x="92" y="-858.5" font-family="Helvetica,sans-Serif" font-size="10.00">+</text>
<text text-anchor="start" x="105" y="-858.5" font-family="Helvetica,sans-Serif" font-size="10.00">writeLog()</text>
<text text-anchor="start" x="92" y="-843.5" font-family="Helvetica,sans-Serif" font-size="10.00">+</text>
<text text-anchor="start" x="105" y="-843.5" font-family="Helvetica,sans-Serif" font-size="10.00">setMinimumLogLevel()</text>
<text text-anchor="start" x="92" y="-828.5" font-family="Helvetica,sans-Serif" font-size="10.00">+</text>
<text text-anchor="start" x="105" y="-828.5" font-family="Helvetica,sans-Serif" font-size="10.00">getMotorName()</text>
<text text-anchor="start" x="92" y="-813.5" font-family="Helvetica,sans-Serif" font-size="10.00">+</text>
<text text-anchor="start" x="105" y="-813.5" font-family="Helvetica,sans-Serif" font-size="10.00">triggerFatalCrash()</text>
<text text-anchor="start" x="94.5" y="-798.5" font-family="Helvetica,sans-Serif" font-size="10.00">&#45;</text>
<text text-anchor="start" x="105" y="-798.5" font-family="Helvetica,sans-Serif" font-size="10.00">extractClassName()</text>
<text text-anchor="start" x="94.5" y="-783.5" font-family="Helvetica,sans-Serif" font-size="10.00">&#45;</text>
<text text-anchor="start" x="105" y="-783.5" font-family="Helvetica,sans-Serif" font-size="10.00">extractFunctionName()</text>
<text text-anchor="start" x="94.5" y="-768.5" font-family="Helvetica,sans-Serif" font-size="10.00">&#45;</text>
<text text-anchor="start" x="105" y="-768.5" font-family="Helvetica,sans-Serif" font-size="10.00">formatLogLine()</text>
<text text-anchor="start" x="94.5" y="-753.5" font-family="Helvetica,sans-Serif" font-size="10.00">&#45;</text>
<text text-anchor="start" x="105" y="-753.5" font-family="Helvetica,sans-Serif" font-size="10.00">levelToString()</text>
<text text-anchor="start" x="94.5" y="-738.5" font-family="Helvetica,sans-Serif" font-size="10.00">&#45;</text>
<text text-anchor="start" x="105" y="-738.5" font-family="Helvetica,sans-Serif" font-size="10.00">getCurrentTimestamp()</text>
<text text-anchor="start" x="94.5" y="-723.5" font-family="Helvetica,sans-Serif" font-size="10.00">&#45;</text>
<text text-anchor="start" x="105" y="-723.5" font-family="Helvetica,sans-Serif" font-size="10.00">sendToDebugOutput()</text>
<polygon fill="#666666" stroke="#666666" points="88,-988.5 88,-988.5 224,-988.5 224,-988.5 88,-988.5"/>
<polygon fill="#666666" stroke="#666666" points="88,-928.5 88,-928.5 103,-928.5 103,-928.5 88,-928.5"/>
<polygon fill="#666666" stroke="#666666" points="103,-928.5 103,-928.5 224,-928.5 224,-928.5 103,-928.5"/>
<polygon fill="none" stroke="#666666" points="88,-717 88,-1006 224,-1006 224,-717 88,-717"/>
</a>
</g>
</g>
<!-- Node3&#45;&gt;Node1 -->
<g id="edge2_Node000001_Node000003" class="edge">
<title>Node3&#45;&gt;Node1</title>
<g id="a_edge2_Node000001_Node000003"><a xlink:title=" ">
<path fill="none" stroke="#63b8ff" d="M150.42,-716.96C149.9,-701.12 149.41,-685.22 149,-670 145.52,-540.41 143.15,-393.02 141.72,-286.29"/>
<polygon fill="none" stroke="#63b8ff" points="141.72,-286.14 137.64,-280.19 141.56,-274.14 145.64,-280.08 141.72,-286.14"/>
</a>
</g>
<text text-anchor="middle" x="186" y="-493" font-family="Helvetica,sans-Serif" font-size="10.00" fill="grey"> &#45;m_hmiLogger</text>
</g>
<!-- Node4 -->
<g id="Node000004" class="node">
<title>Node4</title>
<g id="a_Node000004"><a xlink:href="classWebViewPanel.html" target="_top" xlink:title="Wrapper Win32 autour de WebView2 pour affichage HTML embarqué.">
<polygon fill="white" stroke="transparent" points="383.5,-670 232.5,-670 232.5,-321 383.5,-321 383.5,-670"/>
<text text-anchor="start" x="272.5" y="-657.5" font-family="Helvetica,sans-Serif" font-size="10.00">WebViewPanel</text>
<text text-anchor="start" x="239.5" y="-642.5" font-family="Helvetica,sans-Serif" font-size="10.00">&#45;</text>
<text text-anchor="start" x="250" y="-642.5" font-family="Helvetica,sans-Serif" font-size="10.00">m_parentHwnd</text>
<text text-anchor="start" x="239.5" y="-627.5" font-family="Helvetica,sans-Serif" font-size="10.00">&#45;</text>
<text text-anchor="start" x="250" y="-627.5" font-family="Helvetica,sans-Serif" font-size="10.00">m_controller</text>
<text text-anchor="start" x="239.5" y="-612.5" font-family="Helvetica,sans-Serif" font-size="10.00">&#45;</text>
<text text-anchor="start" x="250" y="-612.5" font-family="Helvetica,sans-Serif" font-size="10.00">m_webview</text>
<text text-anchor="start" x="239.5" y="-597.5" font-family="Helvetica,sans-Serif" font-size="10.00">&#45;</text>
<text text-anchor="start" x="250" y="-597.5" font-family="Helvetica,sans-Serif" font-size="10.00">m_isInitialized</text>
<text text-anchor="start" x="239.5" y="-582.5" font-family="Helvetica,sans-Serif" font-size="10.00">&#45;</text>
<text text-anchor="start" x="250" y="-582.5" font-family="Helvetica,sans-Serif" font-size="10.00">m_onInitialized</text>
<text text-anchor="start" x="237" y="-567.5" font-family="Helvetica,sans-Serif" font-size="10.00">+</text>
<text text-anchor="start" x="250" y="-567.5" font-family="Helvetica,sans-Serif" font-size="10.00">WebViewPanel()</text>
<text text-anchor="start" x="237" y="-552.5" font-family="Helvetica,sans-Serif" font-size="10.00">+</text>
<text text-anchor="start" x="250" y="-552.5" font-family="Helvetica,sans-Serif" font-size="10.00">~WebViewPanel()</text>
<text text-anchor="start" x="237" y="-537.5" font-family="Helvetica,sans-Serif" font-size="10.00">+</text>
<text text-anchor="start" x="250" y="-537.5" font-family="Helvetica,sans-Serif" font-size="10.00">WebViewPanel()</text>
<text text-anchor="start" x="237" y="-522.5" font-family="Helvetica,sans-Serif" font-size="10.00">+</text>
<text text-anchor="start" x="250" y="-522.5" font-family="Helvetica,sans-Serif" font-size="10.00">operator=()</text>
<text text-anchor="start" x="237" y="-507.5" font-family="Helvetica,sans-Serif" font-size="10.00">+</text>
<text text-anchor="start" x="250" y="-507.5" font-family="Helvetica,sans-Serif" font-size="10.00">create()</text>
<text text-anchor="start" x="237" y="-492.5" font-family="Helvetica,sans-Serif" font-size="10.00">+</text>
<text text-anchor="start" x="250" y="-492.5" font-family="Helvetica,sans-Serif" font-size="10.00">resize()</text>
<text text-anchor="start" x="237" y="-477.5" font-family="Helvetica,sans-Serif" font-size="10.00">+</text>
<text text-anchor="start" x="250" y="-477.5" font-family="Helvetica,sans-Serif" font-size="10.00">navigate()</text>
<text text-anchor="start" x="237" y="-462.5" font-family="Helvetica,sans-Serif" font-size="10.00">+</text>
<text text-anchor="start" x="250" y="-462.5" font-family="Helvetica,sans-Serif" font-size="10.00">navigateToString()</text>
<text text-anchor="start" x="237" y="-447.5" font-family="Helvetica,sans-Serif" font-size="10.00">+</text>
<text text-anchor="start" x="250" y="-447.5" font-family="Helvetica,sans-Serif" font-size="10.00">isInitialized()</text>
<text text-anchor="start" x="237" y="-432.5" font-family="Helvetica,sans-Serif" font-size="10.00">+</text>
<text text-anchor="start" x="250" y="-432.5" font-family="Helvetica,sans-Serif" font-size="10.00">executeScript()</text>
<text text-anchor="start" x="237" y="-417.5" font-family="Helvetica,sans-Serif" font-size="10.00">+</text>
<text text-anchor="start" x="250" y="-417.5" font-family="Helvetica,sans-Serif" font-size="10.00">setOnInitialized()</text>
<text text-anchor="start" x="237" y="-402.5" font-family="Helvetica,sans-Serif" font-size="10.00">+</text>
<text text-anchor="start" x="250" y="-402.5" font-family="Helvetica,sans-Serif" font-size="10.00">close()</text>
<text text-anchor="start" x="237" y="-387.5" font-family="Helvetica,sans-Serif" font-size="10.00">+</text>
<text text-anchor="start" x="250" y="-387.5" font-family="Helvetica,sans-Serif" font-size="10.00">setVirtualHostMapping()</text>
<text text-anchor="start" x="239.5" y="-372.5" font-family="Helvetica,sans-Serif" font-size="10.00">&#45;</text>
<text text-anchor="start" x="250" y="-372.5" font-family="Helvetica,sans-Serif" font-size="10.00">initializeWebView()</text>
<text text-anchor="start" x="239.5" y="-357.5" font-family="Helvetica,sans-Serif" font-size="10.00">&#45;</text>
<text text-anchor="start" x="250" y="-357.5" font-family="Helvetica,sans-Serif" font-size="10.00">onEnvironmentCreated()</text>
<text text-anchor="start" x="239.5" y="-342.5" font-family="Helvetica,sans-Serif" font-size="10.00">&#45;</text>
<text text-anchor="start" x="250" y="-342.5" font-family="Helvetica,sans-Serif" font-size="10.00">onControllerCreated()</text>
<text text-anchor="start" x="239.5" y="-327.5" font-family="Helvetica,sans-Serif" font-size="10.00">&#45;</text>
<text text-anchor="start" x="250" y="-327.5" font-family="Helvetica,sans-Serif" font-size="10.00">onWebMessageReceived()</text>
<polygon fill="#666666" stroke="#666666" points="233,-652.5 233,-652.5 384,-652.5 384,-652.5 233,-652.5"/>
<polygon fill="#666666" stroke="#666666" points="233,-577.5 233,-577.5 248,-577.5 248,-577.5 233,-577.5"/>
<polygon fill="#666666" stroke="#666666" points="248,-577.5 248,-577.5 384,-577.5 384,-577.5 248,-577.5"/>
<polygon fill="none" stroke="#666666" points="232.5,-321 232.5,-670 383.5,-670 383.5,-321 232.5,-321"/>
</a>
</g>
</g>
<!-- Node3&#45;&gt;Node4 -->
<g id="edge4_Node000004_Node000003" class="edge">
<title>Node3&#45;&gt;Node4</title>
<g id="a_edge4_Node000004_Node000003"><a xlink:title=" ">
<path fill="none" stroke="#63b8ff" d="M215.97,-716.9C220.81,-705.3 225.75,-693.48 230.69,-681.64"/>
<polygon fill="none" stroke="#63b8ff" points="230.8,-681.36 229.43,-674.28 235.43,-670.29 236.81,-677.37 230.8,-681.36"/>
</a>
</g>
<text text-anchor="middle" x="254.5" y="-691" font-family="Helvetica,sans-Serif" font-size="10.00" fill="grey"> &#45;m_logger</text>
</g>
<!-- Node4&#45;&gt;Node1 -->
<g id="edge3_Node000001_Node000004" class="edge">
<title>Node4&#45;&gt;Node1</title>
<g id="a_edge3_Node000001_Node000004"><a xlink:title=" ">
<path fill="none" stroke="#63b8ff" d="M232.48,-334.24C223.07,-314.28 213.52,-294.01 204.31,-274.46"/>
<polygon fill="none" stroke="#63b8ff" points="204.19,-274.21 198.01,-270.49 199.07,-263.36 205.25,-267.08 204.19,-274.21"/>
</a>
</g>
<text text-anchor="middle" x="260.5" y="-295" font-family="Helvetica,sans-Serif" font-size="10.00" fill="grey"> &#45;m_webViewPanel</text>
</g>
</g>
</svg>
