<?xml version="1.0" encoding="UTF-8" standalone="no"?>
<!DOCTYPE svg PUBLIC "-//W3C//DTD SVG 1.1//EN"
 "http://www.w3.org/Graphics/SVG/1.1/DTD/svg11.dtd">
<!-- Generated by graphviz version 2.43.0 (0)
 -->
<!-- Title: TopologyRenderer::renderAllSwitchBranches Pages: 1 -->
<svg width="537pt" height="321pt"
 viewBox="0.00 0.00 537.00 320.50" xmlns="http://www.w3.org/2000/svg" xmlns:xlink="http://www.w3.org/1999/xlink">
<g id="graph0" class="graph" transform="scale(1 1) rotate(0) translate(4 316.5)">
<title>TopologyRenderer::renderAllSwitchBranches</title>
<!-- Node1 -->
<g id="Node000001" class="node">
<title>Node1</title>
<g id="a_Node000001"><a xlink:title="Efface puis redessine les branches de tous les switches.">
<polygon fill="#999999" stroke="#666666" points="142,-204.5 0,-204.5 0,-174.5 142,-174.5 142,-204.5"/>
<text text-anchor="start" x="8" y="-192.5" font-family="Helvetica,sans-Serif" font-size="10.00">TopologyRenderer::render</text>
<text text-anchor="middle" x="71" y="-181.5" font-family="Helvetica,sans-Serif" font-size="10.00">AllSwitchBranches</text>
</a>
</g>
</g>
<!-- Node2 -->
<g id="Node000002" class="node">
<title>Node2</title>
<g id="a_Node000002"><a xlink:href="classTopologyRepository.html#a0179f504f5d22ea5b16926511a9cb027" target="_top" xlink:title="Retourne une référence mutable aux données topologiques.">
<polygon fill="white" stroke="#666666" points="305.5,-270.5 192.5,-270.5 192.5,-240.5 305.5,-240.5 305.5,-270.5"/>
<text text-anchor="start" x="200.5" y="-258.5" font-family="Helvetica,sans-Serif" font-size="10.00">TopologyRepository</text>
<text text-anchor="middle" x="249" y="-247.5" font-family="Helvetica,sans-Serif" font-size="10.00">::data</text>
</a>
</g>
</g>
<!-- Node1&#45;&gt;Node2 -->
<g id="edge1_Node000001_Node000002" class="edge">
<title>Node1&#45;&gt;Node2</title>
<g id="a_edge1_Node000001_Node000002"><a xlink:title=" ">
<path fill="none" stroke="#63b8ff" d="M108.63,-204.5C128.97,-212.71 154.79,-222.93 178,-231.5 183.05,-233.36 188.32,-235.26 193.6,-237.13"/>
<polygon fill="#63b8ff" stroke="#63b8ff" points="192.48,-240.45 203.08,-240.45 194.8,-233.84 192.48,-240.45"/>
</a>
</g>
</g>
<!-- Node3 -->
<g id="Node000003" class="node">
<title>Node3</title>
<g id="a_Node000003"><a xlink:href="classTopologyRepository.html#adb001f817a74b4b81e05d0d22517f509" target="_top" xlink:title="Retourne l&#39;instance unique du repository (création paresseuse).">
<polygon fill="white" stroke="#666666" points="305.5,-204.5 192.5,-204.5 192.5,-174.5 305.5,-174.5 305.5,-204.5"/>
<text text-anchor="start" x="200.5" y="-192.5" font-family="Helvetica,sans-Serif" font-size="10.00">TopologyRepository</text>
<text text-anchor="middle" x="249" y="-181.5" font-family="Helvetica,sans-Serif" font-size="10.00">::instance</text>
</a>
</g>
</g>
<!-- Node1&#45;&gt;Node3 -->
<g id="edge2_Node000001_Node000003" class="edge">
<title>Node1&#45;&gt;Node3</title>
<g id="a_edge2_Node000001_Node000003"><a xlink:title=" ">
<path fill="none" stroke="#63b8ff" d="M142.07,-189.5C155.23,-189.5 168.95,-189.5 181.98,-189.5"/>
<polygon fill="#63b8ff" stroke="#63b8ff" points="182.26,-193 192.26,-189.5 182.26,-186 182.26,-193"/>
</a>
</g>
</g>
<!-- Node4 -->
<g id="Node000004" class="node">
<title>Node4</title>
<g id="a_Node000004"><a xlink:href="classTopologyRenderer.html#a94cd0b11ecdb050db826110fc4a9e175" target="_top" xlink:title="Construit l&#39;appel JS renderSwitchBranches(...) pour un switch.">
<polygon fill="white" stroke="#666666" points="320,-156.5 178,-156.5 178,-126.5 320,-126.5 320,-156.5"/>
<text text-anchor="start" x="186" y="-144.5" font-family="Helvetica,sans-Serif" font-size="10.00">TopologyRenderer::render</text>
<text text-anchor="middle" x="249" y="-133.5" font-family="Helvetica,sans-Serif" font-size="10.00">SwitchBranches</text>
</a>
</g>
</g>
<!-- Node1&#45;&gt;Node4 -->
<g id="edge4_Node000001_Node000004" class="edge">
<title>Node1&#45;&gt;Node4</title>
<g id="a_edge4_Node000001_Node000004"><a xlink:title=" ">
<path fill="none" stroke="#63b8ff" d="M127.2,-174.44C144.98,-169.6 164.84,-164.18 183.23,-159.16"/>
<polygon fill="#63b8ff" stroke="#63b8ff" points="184.26,-162.51 192.99,-156.5 182.42,-155.76 184.26,-162.51"/>
</a>
</g>
</g>
<!-- Node3&#45;&gt;Node3 -->
<g id="edge3_Node000003_Node000003" class="edge">
<title>Node3&#45;&gt;Node3</title>
<g id="a_edge3_Node000003_Node000003"><a xlink:title=" ">
<path fill="none" stroke="#63b8ff" d="M217.71,-204.78C210.76,-213.91 221.19,-222.5 249,-222.5 265.51,-222.5 275.9,-219.47 280.16,-215.1"/>
<polygon fill="#63b8ff" stroke="#63b8ff" points="283.66,-214.82 280.29,-204.78 276.66,-214.73 283.66,-214.82"/>
</a>
</g>
</g>
<!-- Node5 -->
<g id="Node000005" class="node">
<title>Node5</title>
<g id="a_Node000005"><a xlink:href="classSwitchBlock.html#aaca37431800ae6145596cc436d93ab92" target="_top" xlink:title="Polyligne complète du segment absorbé côté deviation.">
<polygon fill="white" stroke="#666666" points="514,-312.5 371,-312.5 371,-282.5 514,-282.5 514,-312.5"/>
<text text-anchor="start" x="379" y="-300.5" font-family="Helvetica,sans-Serif" font-size="10.00">SwitchBlock::getAbsorbed</text>
<text text-anchor="middle" x="442.5" y="-289.5" font-family="Helvetica,sans-Serif" font-size="10.00">DeviationCoords</text>
</a>
</g>
</g>
<!-- Node4&#45;&gt;Node5 -->
<g id="edge5_Node000004_Node000005" class="edge">
<title>Node4&#45;&gt;Node5</title>
<g id="a_edge5_Node000004_Node000005"><a xlink:title=" ">
<path fill="none" stroke="#63b8ff" d="M308.35,-156.53C312.6,-159.07 316.56,-162.03 320,-165.5 355.62,-201.43 319.37,-238.59 356,-273.5 357.9,-275.31 359.93,-276.99 362.07,-278.55"/>
<polygon fill="#63b8ff" stroke="#63b8ff" points="360.39,-281.63 370.73,-283.94 364.09,-275.69 360.39,-281.63"/>
</a>
</g>
</g>
<!-- Node6 -->
<g id="Node000006" class="node">
<title>Node6</title>
<g id="a_Node000006"><a xlink:href="classSwitchBlock.html#a1e0096ec969222b7244af2ad26f2be12" target="_top" xlink:title="Polyligne complète du segment absorbé côté normal.">
<polygon fill="white" stroke="#666666" points="514,-264.5 371,-264.5 371,-234.5 514,-234.5 514,-264.5"/>
<text text-anchor="start" x="379" y="-252.5" font-family="Helvetica,sans-Serif" font-size="10.00">SwitchBlock::getAbsorbed</text>
<text text-anchor="middle" x="442.5" y="-241.5" font-family="Helvetica,sans-Serif" font-size="10.00">NormalCoords</text>
</a>
</g>
</g>
<!-- Node4&#45;&gt;Node6 -->
<g id="edge6_Node000004_Node000006" class="edge">
<title>Node4&#45;&gt;Node6</title>
<g id="a_edge6_Node000004_Node000006"><a xlink:title=" ">
<path fill="none" stroke="#63b8ff" d="M306.17,-156.66C311.1,-159.18 315.81,-162.11 320,-165.5 344.17,-185.06 331.28,-206.63 356,-225.5 357.84,-226.91 359.76,-228.23 361.75,-229.48"/>
<polygon fill="#63b8ff" stroke="#63b8ff" points="360.35,-232.7 370.8,-234.46 363.72,-226.57 360.35,-232.7"/>
</a>
</g>
</g>
<!-- Node7 -->
<g id="Node000007" class="node">
<title>Node7</title>
<g id="a_Node000007"><a xlink:href="classSwitchBlock.html#adbf269599ac24cd670976368ae00b39f" target="_top" xlink:title="Retourne l&#39;identifiant unique de l&#39;élément (ex. &quot;sw/3&quot;, &quot;s/12&quot;).">
<polygon fill="white" stroke="#666666" points="496,-216 389,-216 389,-197 496,-197 496,-216"/>
<text text-anchor="middle" x="442.5" y="-204" font-family="Helvetica,sans-Serif" font-size="10.00">SwitchBlock::getId</text>
</a>
</g>
</g>
<!-- Node4&#45;&gt;Node7 -->
<g id="edge7_Node000004_Node000007" class="edge">
<title>Node4&#45;&gt;Node7</title>
<g id="a_edge7_Node000004_Node000007"><a xlink:title=" ">
<path fill="none" stroke="#63b8ff" d="M298.37,-156.53C305.72,-159.26 313.14,-162.28 320,-165.5 336.97,-173.48 338.61,-180.48 356,-187.5 363.24,-190.42 371.01,-192.93 378.81,-195.09"/>
<polygon fill="#63b8ff" stroke="#63b8ff" points="378.12,-198.52 388.67,-197.62 379.86,-191.74 378.12,-198.52"/>
</a>
</g>
</g>
<!-- Node8 -->
<g id="Node000008" class="node">
<title>Node8</title>
<g id="a_Node000008"><a xlink:href="classSwitchBlock.html#a17420e8225a0637a6d38b73bee7d2526" target="_top" xlink:title=" ">
<polygon fill="white" stroke="#666666" points="511,-178.5 374,-178.5 374,-148.5 511,-148.5 511,-178.5"/>
<text text-anchor="start" x="382" y="-166.5" font-family="Helvetica,sans-Serif" font-size="10.00">SwitchBlock::getJunction</text>
<text text-anchor="middle" x="442.5" y="-155.5" font-family="Helvetica,sans-Serif" font-size="10.00">Coordinate</text>
</a>
</g>
</g>
<!-- Node4&#45;&gt;Node8 -->
<g id="edge8_Node000004_Node000008" class="edge">
<title>Node4&#45;&gt;Node8</title>
<g id="a_edge8_Node000004_Node000008"><a xlink:title=" ">
<path fill="none" stroke="#63b8ff" d="M320.22,-149.57C334.31,-151.19 349.19,-152.9 363.52,-154.54"/>
<polygon fill="#63b8ff" stroke="#63b8ff" points="363.51,-158.06 373.84,-155.73 364.31,-151.11 363.51,-158.06"/>
</a>
</g>
</g>
<!-- Node9 -->
<g id="Node000009" class="node">
<title>Node9</title>
<g id="a_Node000009"><a xlink:href="classSwitchBlock.html#a6b66c9a47909473ed1952a1f6dfb7183" target="_top" xlink:title=" ">
<polygon fill="white" stroke="#666666" points="529,-130 356,-130 356,-111 529,-111 529,-130"/>
<text text-anchor="middle" x="442.5" y="-118" font-family="Helvetica,sans-Serif" font-size="10.00">SwitchBlock::getTipOnDeviation</text>
</a>
</g>
</g>
<!-- Node4&#45;&gt;Node9 -->
<g id="edge9_Node000004_Node000009" class="edge">
<title>Node4&#45;&gt;Node9</title>
<g id="a_edge9_Node000004_Node000009"><a xlink:title=" ">
<path fill="none" stroke="#63b8ff" d="M320.22,-133.8C328.58,-132.88 337.23,-131.93 345.87,-130.99"/>
<polygon fill="#63b8ff" stroke="#63b8ff" points="346.44,-134.45 356,-129.88 345.67,-127.49 346.44,-134.45"/>
</a>
</g>
</g>
<!-- Node10 -->
<g id="Node000010" class="node">
<title>Node10</title>
<g id="a_Node000010"><a xlink:href="classSwitchBlock.html#ad6735b53a83425ebf379eb210a5237ba" target="_top" xlink:title=" ">
<polygon fill="white" stroke="#666666" points="523.5,-93 361.5,-93 361.5,-74 523.5,-74 523.5,-93"/>
<text text-anchor="middle" x="442.5" y="-81" font-family="Helvetica,sans-Serif" font-size="10.00">SwitchBlock::getTipOnNormal</text>
</a>
</g>
</g>
<!-- Node4&#45;&gt;Node10 -->
<g id="edge10_Node000004_Node000010" class="edge">
<title>Node4&#45;&gt;Node10</title>
<g id="a_edge10_Node000004_Node000010"><a xlink:title=" ">
<path fill="none" stroke="#63b8ff" d="M287.37,-126.36C307.48,-118.56 332.86,-109.3 356,-102.5 364.79,-99.92 374.17,-97.5 383.38,-95.31"/>
<polygon fill="#63b8ff" stroke="#63b8ff" points="384.32,-98.69 393.28,-93.03 382.75,-91.87 384.32,-98.69"/>
</a>
</g>
</g>
<!-- Node11 -->
<g id="Node000011" class="node">
<title>Node11</title>
<g id="a_Node000011"><a xlink:href="classSwitchBlock.html#a5e408b95d90214d1db3d880d0c8e7527" target="_top" xlink:title=" ">
<polygon fill="white" stroke="#666666" points="517,-56 368,-56 368,-37 517,-37 517,-56"/>
<text text-anchor="middle" x="442.5" y="-44" font-family="Helvetica,sans-Serif" font-size="10.00">SwitchBlock::getTipOnRoot</text>
</a>
</g>
</g>
<!-- Node4&#45;&gt;Node11 -->
<g id="edge11_Node000004_Node000011" class="edge">
<title>Node4&#45;&gt;Node11</title>
<g id="a_edge11_Node000004_Node000011"><a xlink:title=" ">
<path fill="none" stroke="#63b8ff" d="M266.65,-126.24C286.47,-108.9 321.27,-81.02 356,-65.5 361.65,-62.98 367.66,-60.77 373.78,-58.85"/>
<polygon fill="#63b8ff" stroke="#63b8ff" points="374.81,-62.2 383.44,-56.07 372.87,-55.48 374.81,-62.2"/>
</a>
</g>
</g>
<!-- Node12 -->
<g id="Node000012" class="node">
<title>Node12</title>
<g id="a_Node000012"><a xlink:href="classSwitchBlock.html#a87eba553e6478990869ad5b1d9c4f4a7" target="_top" xlink:title=" ">
<polygon fill="white" stroke="#666666" points="508.5,-19 376.5,-19 376.5,0 508.5,0 508.5,-19"/>
<text text-anchor="middle" x="442.5" y="-7" font-family="Helvetica,sans-Serif" font-size="10.00">SwitchBlock::isOriented</text>
</a>
</g>
</g>
<!-- Node4&#45;&gt;Node12 -->
<g id="edge12_Node000004_Node000012" class="edge">
<title>Node4&#45;&gt;Node12</title>
<g id="a_edge12_Node000004_Node000012"><a xlink:title=" ">
<path fill="none" stroke="#63b8ff" d="M259.69,-126.33C276.27,-101.7 312.53,-53.27 356,-28.5 359.97,-26.24 364.19,-24.24 368.54,-22.49"/>
<polygon fill="#63b8ff" stroke="#63b8ff" points="370.01,-25.68 378.24,-19.01 367.64,-19.09 370.01,-25.68"/>
</a>
</g>
</g>
</g>
</svg>
