<?xml version="1.0" encoding="UTF-8" standalone="no"?>
<!DOCTYPE svg PUBLIC "-//W3C//DTD SVG 1.1//EN"
 "http://www.w3.org/Graphics/SVG/1.1/DTD/svg11.dtd">
<!-- Generated by graphviz version 2.43.0 (0)
 -->
<!-- Title: StraightBlock::haversineDistanceMeters Pages: 1 -->
<svg width="2308pt" height="76pt"
 viewBox="0.00 0.00 2308.00 75.50" xmlns="http://www.w3.org/2000/svg" xmlns:xlink="http://www.w3.org/1999/xlink">
<g id="graph0" class="graph" transform="scale(1 1) rotate(0) translate(4 71.5)">
<title>StraightBlock::haversineDistanceMeters</title>
<!-- Node1 -->
<g id="Node000001" class="node">
<title>Node1</title>
<g id="a_Node000001"><a xlink:title="Calcule la distance de Haversine entre deux points WGS&#45;84.">
<polygon fill="#999999" stroke="#666666" points="2300,-45.5 2164,-45.5 2164,-15.5 2300,-15.5 2300,-45.5"/>
<text text-anchor="start" x="2172" y="-33.5" font-family="Helvetica,sans-Serif" font-size="10.00">StraightBlock::haversine</text>
<text text-anchor="middle" x="2232" y="-22.5" font-family="Helvetica,sans-Serif" font-size="10.00">DistanceMeters</text>
</a>
</g>
</g>
<!-- Node2 -->
<g id="Node000002" class="node">
<title>Node2</title>
<g id="a_Node000002"><a xlink:href="classStraightBlock.html#a2c39df55b662a55c1de75659619bbacb" target="_top" xlink:title="Calcule la longueur géodésique totale via la formule de Haversine.">
<polygon fill="white" stroke="#666666" points="2128,-45.5 1952,-45.5 1952,-15.5 2128,-15.5 2128,-45.5"/>
<text text-anchor="start" x="1960" y="-33.5" font-family="Helvetica,sans-Serif" font-size="10.00">StraightBlock::computeGeodesic</text>
<text text-anchor="middle" x="2040" y="-22.5" font-family="Helvetica,sans-Serif" font-size="10.00">Length</text>
</a>
</g>
</g>
<!-- Node1&#45;&gt;Node2 -->
<g id="edge1_Node000001_Node000002" class="edge">
<title>Node1&#45;&gt;Node2</title>
<g id="a_edge1_Node000001_Node000002"><a xlink:title=" ">
<path fill="none" stroke="#63b8ff" d="M2153.62,-30.5C2145.22,-30.5 2136.63,-30.5 2128.13,-30.5"/>
<polygon fill="#63b8ff" stroke="#63b8ff" points="2153.75,-34 2163.75,-30.5 2153.75,-27 2153.75,-34"/>
</a>
</g>
</g>
<!-- Node3 -->
<g id="Node000003" class="node">
<title>Node3</title>
<g id="a_Node000003"><a xlink:href="classStraightBlock.html#a923ec2d60375b9760a734f3babe2150d" target="_top" xlink:title="Recalcule et met à jour lengthMeters depuis les coordonnées actuelles.">
<polygon fill="white" stroke="#666666" points="1909.5,-67.5 1769.5,-67.5 1769.5,-37.5 1909.5,-37.5 1909.5,-67.5"/>
<text text-anchor="start" x="1777.5" y="-55.5" font-family="Helvetica,sans-Serif" font-size="10.00">StraightBlock::recompute</text>
<text text-anchor="middle" x="1839.5" y="-44.5" font-family="Helvetica,sans-Serif" font-size="10.00">GeodesicLength</text>
</a>
</g>
</g>
<!-- Node2&#45;&gt;Node3 -->
<g id="edge2_Node000002_Node000003" class="edge">
<title>Node2&#45;&gt;Node3</title>
<g id="a_edge2_Node000002_Node000003"><a xlink:title=" ">
<path fill="none" stroke="#63b8ff" d="M1941.93,-41.26C1931.02,-42.47 1920.06,-43.68 1909.6,-44.84"/>
<polygon fill="#63b8ff" stroke="#63b8ff" points="1942.38,-44.73 1951.94,-40.15 1941.61,-37.77 1942.38,-44.73"/>
</a>
</g>
</g>
<!-- Node14 -->
<g id="Node000014" class="node">
<title>Node14</title>
<g id="a_Node000014"><a xlink:href="classStraightBlock.html#a6b5d2078a32199b21c8ab3117fc6c01f" target="_top" xlink:title="Construit un StraightBlock avec ses coordonnées.">
<polygon fill="white" stroke="#666666" points="1916,-19 1763,-19 1763,0 1916,0 1916,-19"/>
<text text-anchor="middle" x="1839.5" y="-7" font-family="Helvetica,sans-Serif" font-size="10.00">StraightBlock::StraightBlock</text>
</a>
</g>
</g>
<!-- Node2&#45;&gt;Node14 -->
<g id="edge13_Node000002_Node000014" class="edge">
<title>Node2&#45;&gt;Node14</title>
<g id="a_edge13_Node000002_Node000014"><a xlink:title=" ">
<path fill="none" stroke="#63b8ff" d="M1941.87,-20.22C1933.28,-19.32 1924.67,-18.4 1916.29,-17.52"/>
<polygon fill="#63b8ff" stroke="#63b8ff" points="1941.62,-23.72 1951.94,-21.29 1942.36,-16.76 1941.62,-23.72"/>
</a>
</g>
</g>
<!-- Node4 -->
<g id="Node000004" class="node">
<title>Node4</title>
<g id="a_Node000004"><a xlink:href="classSwitchOrientator.html#ac80814892c9baea379f2b4e9f22b966e" target="_top" xlink:title="Retaille chaque StraightBlock adjacent à une jonction pour qu&#39;il commence (ou se termine) exactement ...">
<polygon fill="white" stroke="#666666" points="1727,-67.5 1564,-67.5 1564,-37.5 1727,-37.5 1727,-67.5"/>
<text text-anchor="start" x="1572" y="-55.5" font-family="Helvetica,sans-Serif" font-size="10.00">SwitchOrientator::trimStraight</text>
<text text-anchor="middle" x="1645.5" y="-44.5" font-family="Helvetica,sans-Serif" font-size="10.00">Overlaps</text>
</a>
</g>
</g>
<!-- Node3&#45;&gt;Node4 -->
<g id="edge3_Node000003_Node000004" class="edge">
<title>Node3&#45;&gt;Node4</title>
<g id="a_edge3_Node000003_Node000004"><a xlink:title=" ">
<path fill="none" stroke="#63b8ff" d="M1759.33,-52.5C1748.67,-52.5 1737.71,-52.5 1727.02,-52.5"/>
<polygon fill="#63b8ff" stroke="#63b8ff" points="1759.45,-56 1769.45,-52.5 1759.45,-49 1759.45,-56"/>
</a>
</g>
</g>
<!-- Node5 -->
<g id="Node000005" class="node">
<title>Node5</title>
<g id="a_Node000005"><a xlink:href="classSwitchOrientator.html#a5af1a097baad421ce01bd013be602df7" target="_top" xlink:title="Exécute les phases 6, 6b, 6c et 6d en place sur topoResult.">
<polygon fill="white" stroke="#666666" points="1528,-62 1395,-62 1395,-43 1528,-43 1528,-62"/>
<text text-anchor="middle" x="1461.5" y="-50" font-family="Helvetica,sans-Serif" font-size="10.00">SwitchOrientator::orient</text>
</a>
</g>
</g>
<!-- Node4&#45;&gt;Node5 -->
<g id="edge4_Node000004_Node000005" class="edge">
<title>Node4&#45;&gt;Node5</title>
<g id="a_edge4_Node000004_Node000005"><a xlink:title=" ">
<path fill="none" stroke="#63b8ff" d="M1553.73,-52.5C1545.07,-52.5 1536.41,-52.5 1528.05,-52.5"/>
<polygon fill="#63b8ff" stroke="#63b8ff" points="1553.88,-56 1563.88,-52.5 1553.88,-49 1553.88,-56"/>
</a>
</g>
</g>
<!-- Node6 -->
<g id="Node000006" class="node">
<title>Node6</title>
<g id="a_Node000006"><a xlink:href="classGeoParser.html#aa4acc69a49444b9aa06b2c028b2c1133" target="_top" xlink:title="Lance le pipeline complet.">
<polygon fill="white" stroke="#666666" points="1359,-62 1260,-62 1260,-43 1359,-43 1359,-62"/>
<text text-anchor="middle" x="1309.5" y="-50" font-family="Helvetica,sans-Serif" font-size="10.00">GeoParser::parse</text>
</a>
</g>
</g>
<!-- Node5&#45;&gt;Node6 -->
<g id="edge5_Node000005_Node000006" class="edge">
<title>Node5&#45;&gt;Node6</title>
<g id="a_edge5_Node000005_Node000006"><a xlink:title=" ">
<path fill="none" stroke="#63b8ff" d="M1384.56,-52.5C1375.91,-52.5 1367.27,-52.5 1359.1,-52.5"/>
<polygon fill="#63b8ff" stroke="#63b8ff" points="1384.71,-56 1394.71,-52.5 1384.71,-49 1384.71,-56"/>
</a>
</g>
</g>
<!-- Node7 -->
<g id="Node000007" class="node">
<title>Node7</title>
<g id="a_Node000007"><a xlink:href="classGeoParsingTask.html#affe9d461e96e029708ced380b63da972" target="_top" xlink:title="Lance le parsing GeoJSON dans un thread séparé et détaché.">
<polygon fill="white" stroke="#666666" points="1224,-62 1093,-62 1093,-43 1224,-43 1224,-62"/>
<text text-anchor="middle" x="1158.5" y="-50" font-family="Helvetica,sans-Serif" font-size="10.00">GeoParsingTask::launch</text>
</a>
</g>
</g>
<!-- Node6&#45;&gt;Node7 -->
<g id="edge6_Node000006_Node000007" class="edge">
<title>Node6&#45;&gt;Node7</title>
<g id="a_edge6_Node000006_Node000007"><a xlink:title=" ">
<path fill="none" stroke="#63b8ff" d="M1249.65,-52.5C1241.27,-52.5 1232.6,-52.5 1224.12,-52.5"/>
<polygon fill="#63b8ff" stroke="#63b8ff" points="1249.71,-56 1259.71,-52.5 1249.71,-49 1249.71,-56"/>
</a>
</g>
</g>
<!-- Node8 -->
<g id="Node000008" class="node">
<title>Node8</title>
<g id="a_Node000008"><a xlink:href="classMainWindow.html#a889cc45fb741e12015f4af9f01acaa96" target="_top" xlink:title="Ouvre le sélecteur de fichier et lance le parsing asynchrone.">
<polygon fill="white" stroke="#666666" points="1057,-62 917,-62 917,-43 1057,-43 1057,-62"/>
<text text-anchor="middle" x="987" y="-50" font-family="Helvetica,sans-Serif" font-size="10.00">MainWindow::onFileOpen</text>
</a>
</g>
</g>
<!-- Node7&#45;&gt;Node8 -->
<g id="edge7_Node000007_Node000008" class="edge">
<title>Node7&#45;&gt;Node8</title>
<g id="a_edge7_Node000007_Node000008"><a xlink:title=" ">
<path fill="none" stroke="#63b8ff" d="M1082.68,-52.5C1074.2,-52.5 1065.59,-52.5 1057.18,-52.5"/>
<polygon fill="#63b8ff" stroke="#63b8ff" points="1082.94,-56 1092.94,-52.5 1082.94,-49 1082.94,-56"/>
</a>
</g>
</g>
<!-- Node9 -->
<g id="Node000009" class="node">
<title>Node9</title>
<g id="a_Node000009"><a xlink:href="classMainWindow.html#afbecf0f64f48c5c868168884bab52356" target="_top" xlink:title="Gère les commandes menu (WM_COMMAND).">
<polygon fill="white" stroke="#666666" points="881,-62 734,-62 734,-43 881,-43 881,-62"/>
<text text-anchor="middle" x="807.5" y="-50" font-family="Helvetica,sans-Serif" font-size="10.00">MainWindow::onCommand</text>
</a>
</g>
</g>
<!-- Node8&#45;&gt;Node9 -->
<g id="edge8_Node000008_Node000009" class="edge">
<title>Node8&#45;&gt;Node9</title>
<g id="a_edge8_Node000008_Node000009"><a xlink:title=" ">
<path fill="none" stroke="#63b8ff" d="M906.64,-52.5C898.19,-52.5 889.62,-52.5 881.26,-52.5"/>
<polygon fill="#63b8ff" stroke="#63b8ff" points="906.87,-56 916.87,-52.5 906.87,-49 906.87,-56"/>
</a>
</g>
</g>
<!-- Node10 -->
<g id="Node000010" class="node">
<title>Node10</title>
<g id="a_Node000010"><a xlink:href="classMainWindow.html#ab85682874f3ab5dfa81f782f889d8556" target="_top" xlink:title="Dispatcher principal des messages de la fenêtre.">
<polygon fill="white" stroke="#666666" points="698,-62 537,-62 537,-43 698,-43 698,-62"/>
<text text-anchor="middle" x="617.5" y="-50" font-family="Helvetica,sans-Serif" font-size="10.00">MainWindow::handleMessage</text>
</a>
</g>
</g>
<!-- Node9&#45;&gt;Node10 -->
<g id="edge9_Node000009_Node000010" class="edge">
<title>Node9&#45;&gt;Node10</title>
<g id="a_edge9_Node000009_Node000010"><a xlink:title=" ">
<path fill="none" stroke="#63b8ff" d="M723.59,-52.5C715.15,-52.5 706.58,-52.5 698.17,-52.5"/>
<polygon fill="#63b8ff" stroke="#63b8ff" points="723.81,-56 733.81,-52.5 723.81,-49 723.81,-56"/>
</a>
</g>
</g>
<!-- Node11 -->
<g id="Node000011" class="node">
<title>Node11</title>
<g id="a_Node000011"><a xlink:href="classMainWindow.html#a332648d0a0caec8070b05bc27bb9a14b" target="_top" xlink:title="Procédure de fenêtre statique, point d&#39;entrée imposé par Win32.">
<polygon fill="white" stroke="#666666" points="501,-62 358,-62 358,-43 501,-43 501,-62"/>
<text text-anchor="middle" x="429.5" y="-50" font-family="Helvetica,sans-Serif" font-size="10.00">MainWindow::windowProc</text>
</a>
</g>
</g>
<!-- Node10&#45;&gt;Node11 -->
<g id="edge10_Node000010_Node000011" class="edge">
<title>Node10&#45;&gt;Node11</title>
<g id="a_edge10_Node000010_Node000011"><a xlink:title=" ">
<path fill="none" stroke="#63b8ff" d="M526.77,-52.5C518.2,-52.5 509.58,-52.5 501.22,-52.5"/>
<polygon fill="#63b8ff" stroke="#63b8ff" points="526.81,-56 536.81,-52.5 526.81,-49 526.81,-56"/>
</a>
</g>
</g>
<!-- Node12 -->
<g id="Node000012" class="node">
<title>Node12</title>
<g id="a_Node000012"><a xlink:href="classApplication.html#a0bda40de108938fd29374335bf4eac71" target="_top" xlink:title="Enregistre la classe de fenêtre Win32 (WNDCLASSEXW).">
<polygon fill="white" stroke="#666666" points="322,-67.5 168,-67.5 168,-37.5 322,-37.5 322,-67.5"/>
<text text-anchor="start" x="176" y="-55.5" font-family="Helvetica,sans-Serif" font-size="10.00">Application::registerWindow</text>
<text text-anchor="middle" x="245" y="-44.5" font-family="Helvetica,sans-Serif" font-size="10.00">Class</text>
</a>
</g>
</g>
<!-- Node11&#45;&gt;Node12 -->
<g id="edge11_Node000011_Node000012" class="edge">
<title>Node11&#45;&gt;Node12</title>
<g id="a_edge11_Node000011_Node000012"><a xlink:title=" ">
<path fill="none" stroke="#63b8ff" d="M347.66,-52.5C339.17,-52.5 330.56,-52.5 322.12,-52.5"/>
<polygon fill="#63b8ff" stroke="#63b8ff" points="347.94,-56 357.94,-52.5 347.94,-49 347.94,-56"/>
</a>
</g>
</g>
<!-- Node13 -->
<g id="Node000013" class="node">
<title>Node13</title>
<g id="a_Node000013"><a xlink:href="classApplication.html#a719cf091afd2276d52f9a58e4962ebfb" target="_top" xlink:title="Construit l&#39;application et enregistre la classe de fenêtre.">
<polygon fill="white" stroke="#666666" points="132,-62 0,-62 0,-43 132,-43 132,-62"/>
<text text-anchor="middle" x="66" y="-50" font-family="Helvetica,sans-Serif" font-size="10.00">Application::Application</text>
</a>
</g>
</g>
<!-- Node12&#45;&gt;Node13 -->
<g id="edge12_Node000012_Node000013" class="edge">
<title>Node12&#45;&gt;Node13</title>
<g id="a_edge12_Node000012_Node000013"><a xlink:title=" ">
<path fill="none" stroke="#63b8ff" d="M157.82,-52.5C149.19,-52.5 140.53,-52.5 132.18,-52.5"/>
<polygon fill="#63b8ff" stroke="#63b8ff" points="157.91,-56 167.91,-52.5 157.91,-49 157.91,-56"/>
</a>
</g>
</g>
</g>
</svg>
