<?xml version="1.0" encoding="UTF-8" standalone="no"?>
<!DOCTYPE svg PUBLIC "-//W3C//DTD SVG 1.1//EN"
 "http://www.w3.org/Graphics/SVG/1.1/DTD/svg11.dtd">
<!-- Generated by graphviz version 2.43.0 (0)
 -->
<!-- Title: WebViewPanel::create Pages: 1 -->
<svg width="905pt" height="76pt"
 viewBox="0.00 0.00 905.00 75.50" xmlns="http://www.w3.org/2000/svg" xmlns:xlink="http://www.w3.org/1999/xlink">
<g id="graph0" class="graph" transform="scale(1 1) rotate(0) translate(4 71.5)">
<title>WebViewPanel::create</title>
<!-- Node1 -->
<g id="Node000001" class="node">
<title>Node1</title>
<g id="a_Node000001"><a xlink:title="Initialise WebView2 dans une fenêtre Win32 existante.">
<polygon fill="#999999" stroke="#666666" points="125,-40 0,-40 0,-21 125,-21 125,-40"/>
<text text-anchor="middle" x="62.5" y="-28" font-family="Helvetica,sans-Serif" font-size="10.00">WebViewPanel::create</text>
</a>
</g>
</g>
<!-- Node2 -->
<g id="Node000002" class="node">
<title>Node2</title>
<g id="a_Node000002"><a xlink:href="classWebViewPanel.html#a886fd07f1d23eec535d0b57215c6ce50" target="_top" xlink:title="Initialise l&#39;environnement WebView2 de manière asynchrone.">
<polygon fill="white" stroke="#666666" points="297,-45.5 161,-45.5 161,-15.5 297,-15.5 297,-45.5"/>
<text text-anchor="start" x="169" y="-33.5" font-family="Helvetica,sans-Serif" font-size="10.00">WebViewPanel::initialize</text>
<text text-anchor="middle" x="229" y="-22.5" font-family="Helvetica,sans-Serif" font-size="10.00">WebView</text>
</a>
</g>
</g>
<!-- Node1&#45;&gt;Node2 -->
<g id="edge1_Node000001_Node000002" class="edge">
<title>Node1&#45;&gt;Node2</title>
<g id="a_edge1_Node000001_Node000002"><a xlink:title=" ">
<path fill="none" stroke="#63b8ff" d="M125.22,-30.5C133.61,-30.5 142.3,-30.5 150.92,-30.5"/>
<polygon fill="#63b8ff" stroke="#63b8ff" points="150.97,-34 160.97,-30.5 150.97,-27 150.97,-34"/>
</a>
</g>
</g>
<!-- Node3 -->
<g id="Node000003" class="node">
<title>Node3</title>
<g id="a_Node000003"><a xlink:href="classWebViewPanel.html#a49d047e945df840f4c48dbf0a3264b16" target="_top" xlink:title="Callback déclenché à la fin de la création de l&#39;environnement WebView2.">
<polygon fill="white" stroke="#666666" points="501,-45.5 333,-45.5 333,-15.5 501,-15.5 501,-45.5"/>
<text text-anchor="start" x="341" y="-33.5" font-family="Helvetica,sans-Serif" font-size="10.00">WebViewPanel::onEnvironment</text>
<text text-anchor="middle" x="417" y="-22.5" font-family="Helvetica,sans-Serif" font-size="10.00">Created</text>
</a>
</g>
</g>
<!-- Node2&#45;&gt;Node3 -->
<g id="edge2_Node000002_Node000003" class="edge">
<title>Node2&#45;&gt;Node3</title>
<g id="a_edge2_Node000002_Node000003"><a xlink:title=" ">
<path fill="none" stroke="#63b8ff" d="M297.15,-30.5C305.45,-30.5 314.05,-30.5 322.66,-30.5"/>
<polygon fill="#63b8ff" stroke="#63b8ff" points="322.74,-34 332.74,-30.5 322.74,-27 322.74,-34"/>
</a>
</g>
</g>
<!-- Node4 -->
<g id="Node000004" class="node">
<title>Node4</title>
<g id="a_Node000004"><a xlink:href="classWebViewPanel.html#a2098e8aa83f6ab5b825514deda7fd846" target="_top" xlink:title="Callback déclenché à la fin de la création du contrôleur WebView2.">
<polygon fill="white" stroke="#666666" points="691,-45.5 537,-45.5 537,-15.5 691,-15.5 691,-45.5"/>
<text text-anchor="start" x="545" y="-33.5" font-family="Helvetica,sans-Serif" font-size="10.00">WebViewPanel::onController</text>
<text text-anchor="middle" x="614" y="-22.5" font-family="Helvetica,sans-Serif" font-size="10.00">Created</text>
</a>
</g>
</g>
<!-- Node3&#45;&gt;Node4 -->
<g id="edge3_Node000003_Node000004" class="edge">
<title>Node3&#45;&gt;Node4</title>
<g id="a_edge3_Node000003_Node000004"><a xlink:title=" ">
<path fill="none" stroke="#63b8ff" d="M501.26,-30.5C509.65,-30.5 518.19,-30.5 526.61,-30.5"/>
<polygon fill="#63b8ff" stroke="#63b8ff" points="526.81,-34 536.81,-30.5 526.81,-27 526.81,-34"/>
</a>
</g>
</g>
<!-- Node5 -->
<g id="Node000005" class="node">
<title>Node5</title>
<g id="a_Node000005"><a xlink:href="classWebViewPanel.html#ac77338c39cc87b2fb7b7bde9da2004b1" target="_top" xlink:title="Callback statique déclenché à la réception d&#39;un message JavaScript.">
<polygon fill="white" stroke="#666666" points="897,-67.5 727,-67.5 727,-37.5 897,-37.5 897,-67.5"/>
<text text-anchor="start" x="735" y="-55.5" font-family="Helvetica,sans-Serif" font-size="10.00">WebViewPanel::onWebMessage</text>
<text text-anchor="middle" x="812" y="-44.5" font-family="Helvetica,sans-Serif" font-size="10.00">Received</text>
</a>
</g>
</g>
<!-- Node4&#45;&gt;Node5 -->
<g id="edge4_Node000004_Node000005" class="edge">
<title>Node4&#45;&gt;Node5</title>
<g id="a_edge4_Node000004_Node000005"><a xlink:title=" ">
<path fill="none" stroke="#63b8ff" d="M691.06,-39.04C699.49,-39.98 708.15,-40.96 716.77,-41.92"/>
<polygon fill="#63b8ff" stroke="#63b8ff" points="716.52,-45.42 726.85,-43.05 717.31,-38.46 716.52,-45.42"/>
</a>
</g>
</g>
<!-- Node6 -->
<g id="Node000006" class="node">
<title>Node6</title>
<g id="a_Node000006"><a xlink:href="classWebViewPanel.html#a7a3796392183cbf2538ccb72f87c839a" target="_top" xlink:title="Redimensionne le WebView pour s&#39;adapter à la fenêtre.">
<polygon fill="white" stroke="#666666" points="873.5,-19 750.5,-19 750.5,0 873.5,0 873.5,-19"/>
<text text-anchor="middle" x="812" y="-7" font-family="Helvetica,sans-Serif" font-size="10.00">WebViewPanel::resize</text>
</a>
</g>
</g>
<!-- Node4&#45;&gt;Node6 -->
<g id="edge5_Node000004_Node000006" class="edge">
<title>Node4&#45;&gt;Node6</title>
<g id="a_edge5_Node000004_Node000006"><a xlink:title=" ">
<path fill="none" stroke="#63b8ff" d="M691.06,-22.35C707.21,-20.62 724.2,-18.8 740.15,-17.09"/>
<polygon fill="#63b8ff" stroke="#63b8ff" points="740.9,-20.53 750.47,-15.99 740.15,-13.57 740.9,-20.53"/>
</a>
</g>
</g>
</g>
</svg>
