<?xml version="1.0" encoding="UTF-8" standalone="no"?>
<!DOCTYPE svg PUBLIC "-//W3C//DTD SVG 1.1//EN"
 "http://www.w3.org/Graphics/SVG/1.1/DTD/svg11.dtd">
<!-- Generated by graphviz version 2.43.0 (0)
 -->
<!-- Title: GeoJsonExporter::exportToFile Pages: 1 -->
<svg width="559pt" height="361pt"
 viewBox="0.00 0.00 559.00 360.50" xmlns="http://www.w3.org/2000/svg" xmlns:xlink="http://www.w3.org/1999/xlink">
<g id="graph0" class="graph" transform="scale(1 1) rotate(0) translate(4 356.5)">
<title>GeoJsonExporter::exportToFile</title>
<!-- Node1 -->
<g id="Node000001" class="node">
<title>Node1</title>
<g id="a_Node000001"><a xlink:title="Exporte la topologie ferroviaire dans un fichier GeoJSON.">
<polygon fill="#999999" stroke="#666666" points="163,-114.5 0,-114.5 0,-95.5 163,-95.5 163,-114.5"/>
<text text-anchor="middle" x="81.5" y="-102.5" font-family="Helvetica,sans-Serif" font-size="10.00">GeoJsonExporter::exportToFile</text>
</a>
</g>
</g>
<!-- Node2 -->
<g id="Node000002" class="node">
<title>Node2</title>
<g id="a_Node000002"><a xlink:href="classGeoJsonExporter.html#ae40aed3745c83a9e089cade7067ec11a" target="_top" xlink:title="Convertit un StraightBlock en feature GeoJSON de type LineString.">
<polygon fill="white" stroke="#666666" points="339,-299 199,-299 199,-269 339,-269 339,-299"/>
<text text-anchor="start" x="207" y="-287" font-family="Helvetica,sans-Serif" font-size="10.00">GeoJsonExporter::convert</text>
<text text-anchor="middle" x="269" y="-276" font-family="Helvetica,sans-Serif" font-size="10.00">StraightToFeature</text>
</a>
</g>
</g>
<!-- Node1&#45;&gt;Node2 -->
<g id="edge1_Node000001_Node000002" class="edge">
<title>Node1&#45;&gt;Node2</title>
<g id="a_edge1_Node000001_Node000002"><a xlink:title=" ">
<path fill="none" stroke="#63b8ff" d="M92.47,-114.62C121.11,-142.25 204.11,-222.35 244.87,-261.68"/>
<polygon fill="#63b8ff" stroke="#63b8ff" points="242.57,-264.33 252.2,-268.75 247.43,-259.29 242.57,-264.33"/>
</a>
</g>
</g>
<!-- Node6 -->
<g id="Node000006" class="node">
<title>Node6</title>
<g id="a_Node000006"><a xlink:href="classGeoJsonExporter.html#a4edb715ecc8bee30c4eb00e7dcb98e93" target="_top" xlink:title="Convertit un SwitchBlock en feature GeoJSON de type Point.">
<polygon fill="white" stroke="#666666" points="339,-144 199,-144 199,-114 339,-114 339,-144"/>
<text text-anchor="start" x="207" y="-132" font-family="Helvetica,sans-Serif" font-size="10.00">GeoJsonExporter::convert</text>
<text text-anchor="middle" x="269" y="-121" font-family="Helvetica,sans-Serif" font-size="10.00">SwitchToFeature</text>
</a>
</g>
</g>
<!-- Node1&#45;&gt;Node6 -->
<g id="edge5_Node000001_Node000006" class="edge">
<title>Node1&#45;&gt;Node6</title>
<g id="a_edge5_Node000001_Node000006"><a xlink:title=" ">
<path fill="none" stroke="#63b8ff" d="M156.08,-114.52C166.74,-115.9 177.74,-117.32 188.51,-118.72"/>
<polygon fill="#63b8ff" stroke="#63b8ff" points="188.37,-122.23 198.74,-120.04 189.27,-115.28 188.37,-122.23"/>
</a>
</g>
</g>
<!-- Node13 -->
<g id="Node000013" class="node">
<title>Node13</title>
<g id="a_Node000013"><a xlink:href="classTopologyRepository.html#a0179f504f5d22ea5b16926511a9cb027" target="_top" xlink:title="Retourne une référence mutable aux données topologiques.">
<polygon fill="white" stroke="#666666" points="325.5,-96 212.5,-96 212.5,-66 325.5,-66 325.5,-96"/>
<text text-anchor="start" x="220.5" y="-84" font-family="Helvetica,sans-Serif" font-size="10.00">TopologyRepository</text>
<text text-anchor="middle" x="269" y="-73" font-family="Helvetica,sans-Serif" font-size="10.00">::data</text>
</a>
</g>
</g>
<!-- Node1&#45;&gt;Node13 -->
<g id="edge12_Node000001_Node000013" class="edge">
<title>Node1&#45;&gt;Node13</title>
<g id="a_edge12_Node000001_Node000013"><a xlink:title=" ">
<path fill="none" stroke="#63b8ff" d="M156.08,-95.48C171.29,-93.51 187.21,-91.45 202.12,-89.52"/>
<polygon fill="#63b8ff" stroke="#63b8ff" points="202.79,-92.97 212.26,-88.21 201.89,-86.02 202.79,-92.97"/>
</a>
</g>
</g>
<!-- Node14 -->
<g id="Node000014" class="node">
<title>Node14</title>
<g id="a_Node000014"><a xlink:href="classTopologyRepository.html#adb001f817a74b4b81e05d0d22517f509" target="_top" xlink:title="Retourne l&#39;instance unique du repository (création paresseuse).">
<polygon fill="white" stroke="#666666" points="325.5,-30 212.5,-30 212.5,0 325.5,0 325.5,-30"/>
<text text-anchor="start" x="220.5" y="-18" font-family="Helvetica,sans-Serif" font-size="10.00">TopologyRepository</text>
<text text-anchor="middle" x="269" y="-7" font-family="Helvetica,sans-Serif" font-size="10.00">::instance</text>
</a>
</g>
</g>
<!-- Node1&#45;&gt;Node14 -->
<g id="edge13_Node000001_Node000014" class="edge">
<title>Node1&#45;&gt;Node14</title>
<g id="a_edge13_Node000001_Node000014"><a xlink:title=" ">
<path fill="none" stroke="#63b8ff" d="M102.35,-95.37C132.08,-80.95 188.79,-53.43 227.49,-34.65"/>
<polygon fill="#63b8ff" stroke="#63b8ff" points="229.45,-37.59 236.92,-30.08 226.39,-31.3 229.45,-37.59"/>
</a>
</g>
</g>
<!-- Node3 -->
<g id="Node000003" class="node">
<title>Node3</title>
<g id="a_Node000003"><a xlink:href="classStraightBlock.html#a646d3135d365dcb832ff66b1304c6850" target="_top" xlink:title=" ">
<polygon fill="white" stroke="#666666" points="544,-352.5 382,-352.5 382,-333.5 544,-333.5 544,-352.5"/>
<text text-anchor="middle" x="463" y="-340.5" font-family="Helvetica,sans-Serif" font-size="10.00">StraightBlock::getCoordinates</text>
</a>
</g>
</g>
<!-- Node2&#45;&gt;Node3 -->
<g id="edge2_Node000002_Node000003" class="edge">
<title>Node2&#45;&gt;Node3</title>
<g id="a_edge2_Node000002_Node000003"><a xlink:title=" ">
<path fill="none" stroke="#63b8ff" d="M304.49,-299.16C324.73,-307.63 350.98,-317.88 375,-325 382.67,-327.27 390.81,-329.37 398.91,-331.26"/>
<polygon fill="#63b8ff" stroke="#63b8ff" points="398.21,-334.69 408.74,-333.46 399.75,-327.86 398.21,-334.69"/>
</a>
</g>
</g>
<!-- Node4 -->
<g id="Node000004" class="node">
<title>Node4</title>
<g id="a_Node000004"><a xlink:href="classStraightBlock.html#a295060fddd0675834ce4755ae4787780" target="_top" xlink:title="Retourne l&#39;identifiant unique de l&#39;élément (ex. &quot;sw/3&quot;, &quot;s/12&quot;).">
<polygon fill="white" stroke="#666666" points="519.5,-315.5 406.5,-315.5 406.5,-296.5 519.5,-296.5 519.5,-315.5"/>
<text text-anchor="middle" x="463" y="-303.5" font-family="Helvetica,sans-Serif" font-size="10.00">StraightBlock::getId</text>
</a>
</g>
</g>
<!-- Node2&#45;&gt;Node4 -->
<g id="edge3_Node000002_Node000004" class="edge">
<title>Node2&#45;&gt;Node4</title>
<g id="a_edge3_Node000002_Node000004"><a xlink:title=" ">
<path fill="none" stroke="#63b8ff" d="M339.05,-291.91C357.73,-294.05 377.9,-296.36 396.39,-298.48"/>
<polygon fill="#63b8ff" stroke="#63b8ff" points="396.14,-301.98 406.47,-299.64 396.94,-295.02 396.14,-301.98"/>
</a>
</g>
</g>
<!-- Node5 -->
<g id="Node000005" class="node">
<title>Node5</title>
<g id="a_Node000005"><a xlink:href="classStraightBlock.html#aebdce1e1b66d6b39376ae1a66c2d2d9e" target="_top" xlink:title=" ">
<polygon fill="white" stroke="#666666" points="531.5,-278 394.5,-278 394.5,-248 531.5,-248 531.5,-278"/>
<text text-anchor="start" x="402.5" y="-266" font-family="Helvetica,sans-Serif" font-size="10.00">StraightBlock::getLength</text>
<text text-anchor="middle" x="463" y="-255" font-family="Helvetica,sans-Serif" font-size="10.00">Meters</text>
</a>
</g>
</g>
<!-- Node2&#45;&gt;Node5 -->
<g id="edge4_Node000002_Node000005" class="edge">
<title>Node2&#45;&gt;Node5</title>
<g id="a_edge4_Node000002_Node000005"><a xlink:title=" ">
<path fill="none" stroke="#63b8ff" d="M339.05,-276.45C353.63,-274.85 369.12,-273.16 384.02,-271.53"/>
<polygon fill="#63b8ff" stroke="#63b8ff" points="384.65,-274.98 394.21,-270.41 383.89,-268.02 384.65,-274.98"/>
</a>
</g>
</g>
<!-- Node7 -->
<g id="Node000007" class="node">
<title>Node7</title>
<g id="a_Node000007"><a xlink:href="classSwitchBlock.html#a6ed34ef4ccea6e43e2c0d456f5eb29c0" target="_top" xlink:title=" ">
<polygon fill="white" stroke="#666666" points="535.5,-230 390.5,-230 390.5,-200 535.5,-200 535.5,-230"/>
<text text-anchor="start" x="398.5" y="-218" font-family="Helvetica,sans-Serif" font-size="10.00">SwitchBlock::getDeviation</text>
<text text-anchor="middle" x="463" y="-207" font-family="Helvetica,sans-Serif" font-size="10.00">BranchId</text>
</a>
</g>
</g>
<!-- Node6&#45;&gt;Node7 -->
<g id="edge6_Node000006_Node000007" class="edge">
<title>Node6&#45;&gt;Node7</title>
<g id="a_edge6_Node000006_Node000007"><a xlink:title=" ">
<path fill="none" stroke="#63b8ff" d="M291.63,-144.09C312.26,-157.9 344.6,-178.1 375,-191 379.75,-193.01 384.71,-194.91 389.76,-196.68"/>
<polygon fill="#63b8ff" stroke="#63b8ff" points="388.93,-200.09 399.53,-199.93 391.14,-193.45 388.93,-200.09"/>
</a>
</g>
</g>
<!-- Node8 -->
<g id="Node000008" class="node">
<title>Node8</title>
<g id="a_Node000008"><a xlink:href="classSwitchBlock.html#a4389341dc43ddfc247c34a160f1bbc7a" target="_top" xlink:title=" ">
<polygon fill="white" stroke="#666666" points="516.5,-181.5 409.5,-181.5 409.5,-162.5 516.5,-162.5 516.5,-181.5"/>
<text text-anchor="middle" x="463" y="-169.5" font-family="Helvetica,sans-Serif" font-size="10.00">SwitchBlock::getId</text>
</a>
</g>
</g>
<!-- Node6&#45;&gt;Node8 -->
<g id="edge7_Node000006_Node000008" class="edge">
<title>Node6&#45;&gt;Node8</title>
<g id="a_edge7_Node000006_Node000008"><a xlink:title=" ">
<path fill="none" stroke="#63b8ff" d="M335.23,-144.01C348.39,-147.01 362.13,-150.12 375,-153 385.63,-155.38 396.99,-157.88 407.89,-160.27"/>
<polygon fill="#63b8ff" stroke="#63b8ff" points="407.21,-163.7 417.72,-162.42 408.7,-156.86 407.21,-163.7"/>
</a>
</g>
</g>
<!-- Node9 -->
<g id="Node000009" class="node">
<title>Node9</title>
<g id="a_Node000009"><a xlink:href="classSwitchBlock.html#a17420e8225a0637a6d38b73bee7d2526" target="_top" xlink:title=" ">
<polygon fill="white" stroke="#666666" points="531.5,-144 394.5,-144 394.5,-114 531.5,-114 531.5,-144"/>
<text text-anchor="start" x="402.5" y="-132" font-family="Helvetica,sans-Serif" font-size="10.00">SwitchBlock::getJunction</text>
<text text-anchor="middle" x="463" y="-121" font-family="Helvetica,sans-Serif" font-size="10.00">Coordinate</text>
</a>
</g>
</g>
<!-- Node6&#45;&gt;Node9 -->
<g id="edge8_Node000006_Node000009" class="edge">
<title>Node6&#45;&gt;Node9</title>
<g id="a_edge8_Node000006_Node000009"><a xlink:title=" ">
<path fill="none" stroke="#63b8ff" d="M339.05,-129C353.63,-129 369.12,-129 384.02,-129"/>
<polygon fill="#63b8ff" stroke="#63b8ff" points="384.21,-132.5 394.21,-129 384.21,-125.5 384.21,-132.5"/>
</a>
</g>
</g>
<!-- Node10 -->
<g id="Node000010" class="node">
<title>Node10</title>
<g id="a_Node000010"><a xlink:href="classSwitchBlock.html#a6838d033ec39e85a94c98a9559fcc532" target="_top" xlink:title=" ">
<polygon fill="white" stroke="#666666" points="551,-95.5 375,-95.5 375,-76.5 551,-76.5 551,-95.5"/>
<text text-anchor="middle" x="463" y="-83.5" font-family="Helvetica,sans-Serif" font-size="10.00">SwitchBlock::getNormalBranchId</text>
</a>
</g>
</g>
<!-- Node6&#45;&gt;Node10 -->
<g id="edge9_Node000006_Node000010" class="edge">
<title>Node6&#45;&gt;Node10</title>
<g id="a_edge9_Node000006_Node000010"><a xlink:title=" ">
<path fill="none" stroke="#63b8ff" d="M335.23,-113.99C348.39,-110.99 362.13,-107.88 375,-105 385.63,-102.62 396.99,-100.12 407.89,-97.73"/>
<polygon fill="#63b8ff" stroke="#63b8ff" points="408.7,-101.14 417.72,-95.58 407.21,-94.3 408.7,-101.14"/>
</a>
</g>
</g>
<!-- Node11 -->
<g id="Node000011" class="node">
<title>Node11</title>
<g id="a_Node000011"><a xlink:href="classSwitchBlock.html#a55d04c13a5fba252ba2b840f6835a2a4" target="_top" xlink:title=" ">
<polygon fill="white" stroke="#666666" points="544.5,-58.5 381.5,-58.5 381.5,-39.5 544.5,-39.5 544.5,-58.5"/>
<text text-anchor="middle" x="463" y="-46.5" font-family="Helvetica,sans-Serif" font-size="10.00">SwitchBlock::getRootBranchId</text>
</a>
</g>
</g>
<!-- Node6&#45;&gt;Node11 -->
<g id="edge10_Node000006_Node000011" class="edge">
<title>Node6&#45;&gt;Node11</title>
<g id="a_edge10_Node000006_Node000011"><a xlink:title=" ">
<path fill="none" stroke="#63b8ff" d="M322.1,-113.85C327.99,-111.28 333.76,-108.34 339,-105 358.35,-92.68 354.94,-79.14 375,-68 379.17,-65.68 383.6,-63.65 388.17,-61.86"/>
<polygon fill="#63b8ff" stroke="#63b8ff" points="389.41,-65.13 397.7,-58.53 387.1,-58.53 389.41,-65.13"/>
</a>
</g>
</g>
<!-- Node12 -->
<g id="Node000012" class="node">
<title>Node12</title>
<g id="a_Node000012"><a xlink:href="classSwitchBlock.html#a13b991ec872f7ace3af3e00db8b12e3e" target="_top" xlink:title=" ">
<polygon fill="white" stroke="#666666" points="525.5,-21.5 400.5,-21.5 400.5,-2.5 525.5,-2.5 525.5,-21.5"/>
<text text-anchor="middle" x="463" y="-9.5" font-family="Helvetica,sans-Serif" font-size="10.00">SwitchBlock::isDouble</text>
</a>
</g>
</g>
<!-- Node6&#45;&gt;Node12 -->
<g id="edge11_Node000006_Node000012" class="edge">
<title>Node6&#45;&gt;Node12</title>
<g id="a_edge11_Node000006_Node000012"><a xlink:title=" ">
<path fill="none" stroke="#63b8ff" d="M326.05,-113.98C330.72,-111.43 335.12,-108.46 339,-105 366.58,-80.37 345.87,-52.78 375,-30 379.75,-26.29 385.07,-23.29 390.69,-20.87"/>
<polygon fill="#63b8ff" stroke="#63b8ff" points="392.18,-24.06 400.37,-17.33 389.77,-17.48 392.18,-24.06"/>
</a>
</g>
</g>
<!-- Node14&#45;&gt;Node14 -->
<g id="edge14_Node000014_Node000014" class="edge">
<title>Node14&#45;&gt;Node14</title>
<g id="a_edge14_Node000014_Node000014"><a xlink:title=" ">
<path fill="none" stroke="#63b8ff" d="M236.3,-30.28C229.04,-39.41 239.94,-48 269,-48 286.26,-48 297.11,-44.97 301.56,-40.6"/>
<polygon fill="#63b8ff" stroke="#63b8ff" points="305.06,-40.32 301.7,-30.28 298.06,-40.23 305.06,-40.32"/>
</a>
</g>
</g>
</g>
</svg>
