<?xml version="1.0" encoding="UTF-8" standalone="no"?>
<!DOCTYPE svg PUBLIC "-//W3C//DTD SVG 1.1//EN"
 "http://www.w3.org/Graphics/SVG/1.1/DTD/svg11.dtd">
<!-- Generated by graphviz version 2.43.0 (0)
 -->
<!-- Title: Logger::getCurrentTimestamp Pages: 1 -->
<svg width="467pt" height="64pt"
 viewBox="0.00 0.00 467.00 64.00" xmlns="http://www.w3.org/2000/svg" xmlns:xlink="http://www.w3.org/1999/xlink">
<g id="graph0" class="graph" transform="scale(1 1) rotate(0) translate(4 60)">
<title>Logger::getCurrentTimestamp</title>
<!-- Node1 -->
<g id="Node000001" class="node">
<title>Node1</title>
<g id="a_Node000001"><a xlink:title="Retourne l&#39;horodatage courant au format [HH:MM:SS].">
<polygon fill="#999999" stroke="#666666" points="459,-37 296,-37 296,-18 459,-18 459,-37"/>
<text text-anchor="middle" x="377.5" y="-25" font-family="Helvetica,sans-Serif" font-size="10.00">Logger::getCurrentTimestamp</text>
</a>
</g>
</g>
<!-- Node2 -->
<g id="Node000002" class="node">
<title>Node2</title>
<g id="a_Node000002"><a xlink:href="classLogger.html#a8f0182d5ff94d8b9585a1e75e7b02f1e" target="_top" xlink:title="Formate une ligne de trace complète.">
<polygon fill="white" stroke="#666666" points="260,-56 134,-56 134,-37 260,-37 260,-56"/>
<text text-anchor="middle" x="197" y="-44" font-family="Helvetica,sans-Serif" font-size="10.00">Logger::formatLogLine</text>
</a>
</g>
</g>
<!-- Node1&#45;&gt;Node2 -->
<g id="edge1_Node000001_Node000002" class="edge">
<title>Node1&#45;&gt;Node2</title>
<g id="a_edge1_Node000001_Node000002"><a xlink:title=" ">
<path fill="none" stroke="#63b8ff" d="M285.7,-37.16C277.03,-38.09 268.39,-39.01 260.09,-39.89"/>
<polygon fill="#63b8ff" stroke="#63b8ff" points="286.29,-40.62 295.87,-36.08 285.55,-33.66 286.29,-40.62"/>
</a>
</g>
</g>
<!-- Node4 -->
<g id="Node000004" class="node">
<title>Node4</title>
<g id="a_Node000004"><a xlink:href="classLogger.html#ac4b04901a1897aa98ddd2c860fa9e95b" target="_top" xlink:title="Construit un Logger pour le moteur spécifié.">
<polygon fill="white" stroke="#666666" points="241.5,-19 152.5,-19 152.5,0 241.5,0 241.5,-19"/>
<text text-anchor="middle" x="197" y="-7" font-family="Helvetica,sans-Serif" font-size="10.00">Logger::Logger</text>
</a>
</g>
</g>
<!-- Node1&#45;&gt;Node4 -->
<g id="edge3_Node000001_Node000004" class="edge">
<title>Node1&#45;&gt;Node4</title>
<g id="a_edge3_Node000001_Node000004"><a xlink:title=" ">
<path fill="none" stroke="#63b8ff" d="M285.78,-18.35C270.4,-16.8 255.09,-15.26 241.66,-13.9"/>
<polygon fill="#63b8ff" stroke="#63b8ff" points="285.57,-21.85 295.87,-19.37 286.27,-14.88 285.57,-21.85"/>
</a>
</g>
</g>
<!-- Node3 -->
<g id="Node000003" class="node">
<title>Node3</title>
<g id="a_Node000003"><a xlink:href="classLogger.html#ad3f8120f97679ef581fe34b3c220fe90" target="_top" xlink:title="Écrit une ligne de trace dans le fichier et la sortie de débogage.">
<polygon fill="white" stroke="#666666" points="98,-56 0,-56 0,-37 98,-37 98,-56"/>
<text text-anchor="middle" x="49" y="-44" font-family="Helvetica,sans-Serif" font-size="10.00">Logger::writeLog</text>
</a>
</g>
</g>
<!-- Node2&#45;&gt;Node3 -->
<g id="edge2_Node000002_Node000003" class="edge">
<title>Node2&#45;&gt;Node3</title>
<g id="a_edge2_Node000002_Node000003"><a xlink:title=" ">
<path fill="none" stroke="#63b8ff" d="M123.53,-46.5C114.86,-46.5 106.19,-46.5 98,-46.5"/>
<polygon fill="#63b8ff" stroke="#63b8ff" points="123.66,-50 133.66,-46.5 123.66,-43 123.66,-50"/>
</a>
</g>
</g>
</g>
</svg>
