<?xml version="1.0" encoding="UTF-8" standalone="no"?>
<!DOCTYPE svg PUBLIC "-//W3C//DTD SVG 1.1//EN"
 "http://www.w3.org/Graphics/SVG/1.1/DTD/svg11.dtd">
<!-- Generated by graphviz version 2.43.0 (0)
 -->
<!-- Title: MainWindow::create Pages: 1 -->
<svg width="661pt" height="337pt"
 viewBox="0.00 0.00 661.00 337.00" xmlns="http://www.w3.org/2000/svg" xmlns:xlink="http://www.w3.org/1999/xlink">
<g id="graph0" class="graph" transform="scale(1 1) rotate(0) translate(4 333)">
<title>MainWindow::create</title>
<!-- Node1 -->
<g id="Node000001" class="node">
<title>Node1</title>
<g id="a_Node000001"><a xlink:title="Crée et affiche la fenêtre Win32, puis initialise la ProgressBar.">
<polygon fill="#999999" stroke="#666666" points="116,-179 0,-179 0,-160 116,-160 116,-179"/>
<text text-anchor="middle" x="58" y="-167" font-family="Helvetica,sans-Serif" font-size="10.00">MainWindow::create</text>
</a>
</g>
</g>
<!-- Node2 -->
<g id="Node000002" class="node">
<title>Node2</title>
<g id="a_Node000002"><a xlink:href="classProgressBar.html#a608e19274cfd76f8874e4ef6e2dcb396" target="_top" xlink:title="Crée la ProgressBar dans une fenêtre parent.">
<polygon fill="white" stroke="#666666" points="293,-329 181,-329 181,-310 293,-310 293,-329"/>
<text text-anchor="middle" x="237" y="-317" font-family="Helvetica,sans-Serif" font-size="10.00">ProgressBar::create</text>
</a>
</g>
</g>
<!-- Node1&#45;&gt;Node2 -->
<g id="edge1_Node000001_Node000002" class="edge">
<title>Node1&#45;&gt;Node2</title>
<g id="a_edge1_Node000001_Node000002"><a xlink:title=" ">
<path fill="none" stroke="#63b8ff" d="M62.89,-179.36C73.26,-204.23 104.06,-269.81 152,-301.5 157.77,-305.31 164.2,-308.33 170.87,-310.73"/>
<polygon fill="#63b8ff" stroke="#63b8ff" points="170.17,-314.18 180.76,-313.8 172.25,-307.49 170.17,-314.18"/>
</a>
</g>
</g>
<!-- Node3 -->
<g id="Node000003" class="node">
<title>Node3</title>
<g id="a_Node000003"><a xlink:href="classWebViewPanel.html#a49887c0d1a400c93f002085a8994ece1" target="_top" xlink:title="Initialise WebView2 dans une fenêtre Win32 existante.">
<polygon fill="white" stroke="#666666" points="299.5,-292 174.5,-292 174.5,-273 299.5,-273 299.5,-292"/>
<text text-anchor="middle" x="237" y="-280" font-family="Helvetica,sans-Serif" font-size="10.00">WebViewPanel::create</text>
</a>
</g>
</g>
<!-- Node1&#45;&gt;Node3 -->
<g id="edge2_Node000001_Node000003" class="edge">
<title>Node1&#45;&gt;Node3</title>
<g id="a_edge2_Node000001_Node000003"><a xlink:title=" ">
<path fill="none" stroke="#63b8ff" d="M66.33,-179.12C80.73,-197.35 114.59,-237.04 152,-258.5 159.92,-263.04 168.77,-266.78 177.66,-269.83"/>
<polygon fill="#63b8ff" stroke="#63b8ff" points="176.69,-273.2 187.28,-272.89 178.81,-266.53 176.69,-273.2"/>
</a>
</g>
</g>
<!-- Node5 -->
<g id="Node000005" class="node">
<title>Node5</title>
<g id="a_Node000005"><a xlink:href="classWebViewPanel.html#a7a3796392183cbf2538ccb72f87c839a" target="_top" xlink:title="Redimensionne le WebView pour s&#39;adapter à la fenêtre.">
<polygon fill="white" stroke="#666666" points="653,-275 530,-275 530,-256 653,-256 653,-275"/>
<text text-anchor="middle" x="591.5" y="-263" font-family="Helvetica,sans-Serif" font-size="10.00">WebViewPanel::resize</text>
</a>
</g>
</g>
<!-- Node1&#45;&gt;Node5 -->
<g id="edge7_Node000001_Node000005" class="edge">
<title>Node1&#45;&gt;Node5</title>
<g id="a_edge7_Node000001_Node000005"><a xlink:title=" ">
<path fill="none" stroke="#63b8ff" d="M71.08,-179.05C88.05,-191.89 120.42,-214.26 152,-224.5 218.43,-246.05 413.32,-257.72 519.52,-262.64"/>
<polygon fill="#63b8ff" stroke="#63b8ff" points="519.68,-266.15 529.83,-263.11 520,-259.16 519.68,-266.15"/>
</a>
</g>
</g>
<!-- Node6 -->
<g id="Node000006" class="node">
<title>Node6</title>
<g id="a_Node000006"><a xlink:href="PathUtils_8h.html#ad3c857d595cfed1f004777b9307b8aa5" target="_top" xlink:title=" ">
<polygon fill="white" stroke="#666666" points="294.5,-216 179.5,-216 179.5,-197 294.5,-197 294.5,-216"/>
<text text-anchor="middle" x="237" y="-204" font-family="Helvetica,sans-Serif" font-size="10.00">executableDirectory</text>
</a>
</g>
</g>
<!-- Node1&#45;&gt;Node6 -->
<g id="edge5_Node000001_Node000006" class="edge">
<title>Node1&#45;&gt;Node6</title>
<g id="a_edge5_Node000001_Node000006"><a xlink:title=" ">
<path fill="none" stroke="#63b8ff" d="M104.58,-179.03C127.72,-183.86 156.02,-189.78 180.42,-194.88"/>
<polygon fill="#63b8ff" stroke="#63b8ff" points="179.76,-198.32 190.27,-196.94 181.19,-191.47 179.76,-198.32"/>
</a>
</g>
</g>
<!-- Node7 -->
<g id="Node000007" class="node">
<title>Node7</title>
<g id="a_Node000007"><a xlink:href="classWebViewPanel.html#a17fdacaf19c8e0830ae1ea7ee1632993" target="_top" xlink:title="Navigue vers une URL.">
<polygon fill="white" stroke="#666666" points="305.5,-179 168.5,-179 168.5,-160 305.5,-160 305.5,-179"/>
<text text-anchor="middle" x="237" y="-167" font-family="Helvetica,sans-Serif" font-size="10.00">WebViewPanel::navigate</text>
</a>
</g>
</g>
<!-- Node1&#45;&gt;Node7 -->
<g id="edge6_Node000001_Node000007" class="edge">
<title>Node1&#45;&gt;Node7</title>
<g id="a_edge6_Node000001_Node000007"><a xlink:title=" ">
<path fill="none" stroke="#63b8ff" d="M116.47,-169.5C129.79,-169.5 144.18,-169.5 158.21,-169.5"/>
<polygon fill="#63b8ff" stroke="#63b8ff" points="158.35,-173 168.35,-169.5 158.35,-166 158.35,-173"/>
</a>
</g>
</g>
<!-- Node8 -->
<g id="Node000008" class="node">
<title>Node8</title>
<g id="a_Node000008"><a xlink:href="classWebViewPanel.html#a118dd6f6115c00ad0d01b6c4238e5caf" target="_top" xlink:title="Définit un callback à appeler une fois l&#39;initialisation terminée.">
<polygon fill="white" stroke="#666666" points="322,-142 152,-142 152,-123 322,-123 322,-142"/>
<text text-anchor="middle" x="237" y="-130" font-family="Helvetica,sans-Serif" font-size="10.00">WebViewPanel::setOnInitialized</text>
</a>
</g>
</g>
<!-- Node1&#45;&gt;Node8 -->
<g id="edge8_Node000001_Node000008" class="edge">
<title>Node1&#45;&gt;Node8</title>
<g id="a_edge8_Node000001_Node000008"><a xlink:title=" ">
<path fill="none" stroke="#63b8ff" d="M104.58,-159.97C127.72,-155.14 156.02,-149.22 180.42,-144.12"/>
<polygon fill="#63b8ff" stroke="#63b8ff" points="181.19,-147.53 190.27,-142.06 179.76,-140.68 181.19,-147.53"/>
</a>
</g>
</g>
<!-- Node9 -->
<g id="Node000009" class="node">
<title>Node9</title>
<g id="a_Node000009"><a xlink:href="classProgressBar.html#ad06234c2844ac3beb9f8e8532015c0cd" target="_top" xlink:title="Met à jour la progression.">
<polygon fill="white" stroke="#666666" points="306,-105 168,-105 168,-86 306,-86 306,-105"/>
<text text-anchor="middle" x="237" y="-93" font-family="Helvetica,sans-Serif" font-size="10.00">ProgressBar::setProgress</text>
</a>
</g>
</g>
<!-- Node1&#45;&gt;Node9 -->
<g id="edge9_Node000001_Node000009" class="edge">
<title>Node1&#45;&gt;Node9</title>
<g id="a_edge9_Node000001_Node000009"><a xlink:title=" ">
<path fill="none" stroke="#63b8ff" d="M71.83,-159.87C89.13,-147.34 121.33,-125.63 152,-113.5 157.42,-111.36 163.14,-109.45 168.95,-107.75"/>
<polygon fill="#63b8ff" stroke="#63b8ff" points="170.02,-111.09 178.76,-105.1 168.19,-104.33 170.02,-111.09"/>
</a>
</g>
</g>
<!-- Node10 -->
<g id="Node000010" class="node">
<title>Node10</title>
<g id="a_Node000010"><a xlink:href="classWebViewPanel.html#a3d18421b35ea7ad55ff884ce299ac53c" target="_top" xlink:title="Mappe un nom d&#39;hôte virtuel vers un dossier local. Permet de servir des fichiers locaux via https://h...">
<polygon fill="white" stroke="#666666" points="307.5,-67.5 166.5,-67.5 166.5,-37.5 307.5,-37.5 307.5,-67.5"/>
<text text-anchor="start" x="174.5" y="-55.5" font-family="Helvetica,sans-Serif" font-size="10.00">WebViewPanel::setVirtual</text>
<text text-anchor="middle" x="237" y="-44.5" font-family="Helvetica,sans-Serif" font-size="10.00">HostMapping</text>
</a>
</g>
</g>
<!-- Node1&#45;&gt;Node10 -->
<g id="edge10_Node000001_Node000010" class="edge">
<title>Node1&#45;&gt;Node10</title>
<g id="a_edge10_Node000001_Node000010"><a xlink:title=" ">
<path fill="none" stroke="#63b8ff" d="M66,-159.73C80.1,-140.79 113.82,-98.96 152,-76.5 154.88,-74.81 157.88,-73.23 160.96,-71.76"/>
<polygon fill="#63b8ff" stroke="#63b8ff" points="162.64,-74.84 170.42,-67.65 159.86,-68.42 162.64,-74.84"/>
</a>
</g>
</g>
<!-- Node11 -->
<g id="Node000011" class="node">
<title>Node11</title>
<g id="a_Node000011"><a xlink:href="classProgressBar.html#ac9fbcf04d7d4e8c5b3e332efcfc0d34c" target="_top" xlink:title="Show or hide the ProgressBar.">
<polygon fill="white" stroke="#666666" points="290.5,-19 183.5,-19 183.5,0 290.5,0 290.5,-19"/>
<text text-anchor="middle" x="237" y="-7" font-family="Helvetica,sans-Serif" font-size="10.00">ProgressBar::show</text>
</a>
</g>
</g>
<!-- Node1&#45;&gt;Node11 -->
<g id="edge11_Node000001_Node000011" class="edge">
<title>Node1&#45;&gt;Node11</title>
<g id="a_edge11_Node000001_Node000011"><a xlink:title=" ">
<path fill="none" stroke="#63b8ff" d="M62.43,-159.78C72.08,-133.91 102.08,-63.03 152,-28.5 158.48,-24.01 165.86,-20.57 173.49,-17.93"/>
<polygon fill="#63b8ff" stroke="#63b8ff" points="174.67,-21.23 183.24,-15 172.65,-14.53 174.67,-21.23"/>
</a>
</g>
</g>
<!-- Node4 -->
<g id="Node000004" class="node">
<title>Node4</title>
<g id="a_Node000004"><a xlink:href="classWebViewPanel.html#a886fd07f1d23eec535d0b57215c6ce50" target="_top" xlink:title="Initialise le runtime WebView2 et crée le controller et le webview.">
<polygon fill="white" stroke="#666666" points="494,-302.5 358,-302.5 358,-272.5 494,-272.5 494,-302.5"/>
<text text-anchor="start" x="366" y="-290.5" font-family="Helvetica,sans-Serif" font-size="10.00">WebViewPanel::initialize</text>
<text text-anchor="middle" x="426" y="-279.5" font-family="Helvetica,sans-Serif" font-size="10.00">WebView</text>
</a>
</g>
</g>
<!-- Node3&#45;&gt;Node4 -->
<g id="edge3_Node000003_Node000004" class="edge">
<title>Node3&#45;&gt;Node4</title>
<g id="a_edge3_Node000003_Node000004"><a xlink:title=" ">
<path fill="none" stroke="#63b8ff" d="M299.75,-284.15C315.02,-284.56 331.58,-285 347.49,-285.43"/>
<polygon fill="#63b8ff" stroke="#63b8ff" points="347.75,-288.94 357.84,-285.7 347.94,-281.94 347.75,-288.94"/>
</a>
</g>
</g>
<!-- Node4&#45;&gt;Node5 -->
<g id="edge4_Node000004_Node000005" class="edge">
<title>Node4&#45;&gt;Node5</title>
<g id="a_edge4_Node000004_Node000005"><a xlink:title=" ">
<path fill="none" stroke="#63b8ff" d="M494.45,-278.42C502.76,-277.31 511.28,-276.16 519.65,-275.03"/>
<polygon fill="#63b8ff" stroke="#63b8ff" points="520.31,-278.48 529.75,-273.67 519.38,-271.54 520.31,-278.48"/>
</a>
</g>
</g>
</g>
</svg>
