<?xml version="1.0" encoding="UTF-8" standalone="no"?>
<!DOCTYPE svg PUBLIC "-//W3C//DTD SVG 1.1//EN"
 "http://www.w3.org/Graphics/SVG/1.1/DTD/svg11.dtd">
<!-- Generated by graphviz version 2.43.0 (0)
 -->
<!-- Title: SwitchOrientator Pages: 1 -->
<svg width="304pt" height="558pt"
 viewBox="0.00 0.00 304.00 558.00" xmlns="http://www.w3.org/2000/svg" xmlns:xlink="http://www.w3.org/1999/xlink">
<g id="graph0" class="graph" transform="scale(1 1) rotate(0) translate(4 554)">
<title>SwitchOrientator</title>
<!-- Node1 -->
<g id="Node000001" class="node">
<title>Node1</title>
<g id="a_Node000001"><a xlink:title="Oriente les aiguillages ferroviaires (root / normal / deviation / tips CDC) et supprime les chevauche...">
<polygon fill="#999999" stroke="transparent" points="236.5,-214 55.5,-214 55.5,0 236.5,0 236.5,-214"/>
<text text-anchor="start" x="105.5" y="-202" font-family="Helvetica,sans-Serif" font-size="10.00">SwitchOrientator</text>
<text text-anchor="start" x="62.5" y="-187" font-family="Helvetica,sans-Serif" font-size="10.00">&#45;</text>
<text text-anchor="start" x="73" y="-187" font-family="Helvetica,sans-Serif" font-size="10.00">m_utmZoneNumber</text>
<text text-anchor="start" x="62.5" y="-172" font-family="Helvetica,sans-Serif" font-size="10.00">&#45;</text>
<text text-anchor="start" x="73" y="-172" font-family="Helvetica,sans-Serif" font-size="10.00">m_isNorthernHemisphere</text>
<text text-anchor="start" x="62.5" y="-157" font-family="Helvetica,sans-Serif" font-size="10.00">&#45;</text>
<text text-anchor="start" x="73" y="-157" font-family="Helvetica,sans-Serif" font-size="10.00">m_doubleLinkMaxMeters</text>
<text text-anchor="start" x="62.5" y="-142" font-family="Helvetica,sans-Serif" font-size="10.00">&#45;</text>
<text text-anchor="start" x="73" y="-142" font-family="Helvetica,sans-Serif" font-size="10.00">m_branchTipDistanceMeters</text>
<text text-anchor="start" x="60" y="-127" font-family="Helvetica,sans-Serif" font-size="10.00">+</text>
<text text-anchor="start" x="73" y="-127" font-family="Helvetica,sans-Serif" font-size="10.00">SwitchOrientator()</text>
<text text-anchor="start" x="60" y="-112" font-family="Helvetica,sans-Serif" font-size="10.00">+</text>
<text text-anchor="start" x="73" y="-112" font-family="Helvetica,sans-Serif" font-size="10.00">orient()</text>
<text text-anchor="start" x="62.5" y="-97" font-family="Helvetica,sans-Serif" font-size="10.00">&#45;</text>
<text text-anchor="start" x="73" y="-97" font-family="Helvetica,sans-Serif" font-size="10.00">orientThreePortSwitch()</text>
<text text-anchor="start" x="62.5" y="-82" font-family="Helvetica,sans-Serif" font-size="10.00">&#45;</text>
<text text-anchor="start" x="73" y="-82" font-family="Helvetica,sans-Serif" font-size="10.00">computeBranchTipPoints()</text>
<text text-anchor="start" x="62.5" y="-67" font-family="Helvetica,sans-Serif" font-size="10.00">&#45;</text>
<text text-anchor="start" x="73" y="-67" font-family="Helvetica,sans-Serif" font-size="10.00">interpolateTipPoint()</text>
<text text-anchor="start" x="62.5" y="-52" font-family="Helvetica,sans-Serif" font-size="10.00">&#45;</text>
<text text-anchor="start" x="73" y="-52" font-family="Helvetica,sans-Serif" font-size="10.00">alignDoubleSwitchRoles()</text>
<text text-anchor="start" x="62.5" y="-37" font-family="Helvetica,sans-Serif" font-size="10.00">&#45;</text>
<text text-anchor="start" x="73" y="-37" font-family="Helvetica,sans-Serif" font-size="10.00">enforceCrossoverConsistency()</text>
<text text-anchor="start" x="62.5" y="-22" font-family="Helvetica,sans-Serif" font-size="10.00">&#45;</text>
<text text-anchor="start" x="73" y="-22" font-family="Helvetica,sans-Serif" font-size="10.00">trimStraightOverlaps()</text>
<text text-anchor="start" x="62.5" y="-7" font-family="Helvetica,sans-Serif" font-size="10.00">&#45;</text>
<text text-anchor="start" x="73" y="-7" font-family="Helvetica,sans-Serif" font-size="10.00">computeBranchDirectionVector()</text>
<polygon fill="#666666" stroke="#666666" points="56,-197 56,-197 237,-197 237,-197 56,-197"/>
<polygon fill="#666666" stroke="#666666" points="56,-137 56,-137 71,-137 71,-137 56,-137"/>
<polygon fill="#666666" stroke="#666666" points="71,-137 71,-137 237,-137 237,-137 71,-137"/>
<polygon fill="none" stroke="#666666" points="55.5,0 55.5,-214 236.5,-214 236.5,0 55.5,0"/>
</a>
</g>
</g>
<!-- Node2 -->
<g id="Node000002" class="node">
<title>Node2</title>
<g id="a_Node000002"><a xlink:href="classLogger.html" target="_top" xlink:title="Journaliseur associé à un moteur nommé.">
<polygon fill="white" stroke="transparent" points="136,-550 0,-550 0,-261 136,-261 136,-550"/>
<text text-anchor="start" x="51" y="-537.5" font-family="Helvetica,sans-Serif" font-size="10.00">Logger</text>
<text text-anchor="start" x="6.5" y="-522.5" font-family="Helvetica,sans-Serif" font-size="10.00">&#45;</text>
<text text-anchor="start" x="17" y="-522.5" font-family="Helvetica,sans-Serif" font-size="10.00">m_motorName</text>
<text text-anchor="start" x="6.5" y="-507.5" font-family="Helvetica,sans-Serif" font-size="10.00">&#45;</text>
<text text-anchor="start" x="17" y="-507.5" font-family="Helvetica,sans-Serif" font-size="10.00">m_outputFile</text>
<text text-anchor="start" x="6.5" y="-492.5" font-family="Helvetica,sans-Serif" font-size="10.00">&#45;</text>
<text text-anchor="start" x="17" y="-492.5" font-family="Helvetica,sans-Serif" font-size="10.00">m_writeMutex</text>
<text text-anchor="start" x="6.5" y="-477.5" font-family="Helvetica,sans-Serif" font-size="10.00">&#45;</text>
<text text-anchor="start" x="17" y="-477.5" font-family="Helvetica,sans-Serif" font-size="10.00">m_minimumLevel</text>
<text text-anchor="start" x="4" y="-462.5" font-family="Helvetica,sans-Serif" font-size="10.00">+</text>
<text text-anchor="start" x="17" y="-462.5" font-family="Helvetica,sans-Serif" font-size="10.00">Logger()</text>
<text text-anchor="start" x="4" y="-447.5" font-family="Helvetica,sans-Serif" font-size="10.00">+</text>
<text text-anchor="start" x="17" y="-447.5" font-family="Helvetica,sans-Serif" font-size="10.00">~Logger()</text>
<text text-anchor="start" x="4" y="-432.5" font-family="Helvetica,sans-Serif" font-size="10.00">+</text>
<text text-anchor="start" x="17" y="-432.5" font-family="Helvetica,sans-Serif" font-size="10.00">Logger()</text>
<text text-anchor="start" x="4" y="-417.5" font-family="Helvetica,sans-Serif" font-size="10.00">+</text>
<text text-anchor="start" x="17" y="-417.5" font-family="Helvetica,sans-Serif" font-size="10.00">operator=()</text>
<text text-anchor="start" x="4" y="-402.5" font-family="Helvetica,sans-Serif" font-size="10.00">+</text>
<text text-anchor="start" x="17" y="-402.5" font-family="Helvetica,sans-Serif" font-size="10.00">writeLog()</text>
<text text-anchor="start" x="4" y="-387.5" font-family="Helvetica,sans-Serif" font-size="10.00">+</text>
<text text-anchor="start" x="17" y="-387.5" font-family="Helvetica,sans-Serif" font-size="10.00">setMinimumLogLevel()</text>
<text text-anchor="start" x="4" y="-372.5" font-family="Helvetica,sans-Serif" font-size="10.00">+</text>
<text text-anchor="start" x="17" y="-372.5" font-family="Helvetica,sans-Serif" font-size="10.00">getMotorName()</text>
<text text-anchor="start" x="4" y="-357.5" font-family="Helvetica,sans-Serif" font-size="10.00">+</text>
<text text-anchor="start" x="17" y="-357.5" font-family="Helvetica,sans-Serif" font-size="10.00">triggerFatalCrash()</text>
<text text-anchor="start" x="6.5" y="-342.5" font-family="Helvetica,sans-Serif" font-size="10.00">&#45;</text>
<text text-anchor="start" x="17" y="-342.5" font-family="Helvetica,sans-Serif" font-size="10.00">extractClassName()</text>
<text text-anchor="start" x="6.5" y="-327.5" font-family="Helvetica,sans-Serif" font-size="10.00">&#45;</text>
<text text-anchor="start" x="17" y="-327.5" font-family="Helvetica,sans-Serif" font-size="10.00">extractFunctionName()</text>
<text text-anchor="start" x="6.5" y="-312.5" font-family="Helvetica,sans-Serif" font-size="10.00">&#45;</text>
<text text-anchor="start" x="17" y="-312.5" font-family="Helvetica,sans-Serif" font-size="10.00">formatLogLine()</text>
<text text-anchor="start" x="6.5" y="-297.5" font-family="Helvetica,sans-Serif" font-size="10.00">&#45;</text>
<text text-anchor="start" x="17" y="-297.5" font-family="Helvetica,sans-Serif" font-size="10.00">levelToString()</text>
<text text-anchor="start" x="6.5" y="-282.5" font-family="Helvetica,sans-Serif" font-size="10.00">&#45;</text>
<text text-anchor="start" x="17" y="-282.5" font-family="Helvetica,sans-Serif" font-size="10.00">getCurrentTimestamp()</text>
<text text-anchor="start" x="6.5" y="-267.5" font-family="Helvetica,sans-Serif" font-size="10.00">&#45;</text>
<text text-anchor="start" x="17" y="-267.5" font-family="Helvetica,sans-Serif" font-size="10.00">sendToDebugOutput()</text>
<polygon fill="#666666" stroke="#666666" points="0,-532.5 0,-532.5 136,-532.5 136,-532.5 0,-532.5"/>
<polygon fill="#666666" stroke="#666666" points="0,-472.5 0,-472.5 15,-472.5 15,-472.5 0,-472.5"/>
<polygon fill="#666666" stroke="#666666" points="15,-472.5 15,-472.5 136,-472.5 136,-472.5 15,-472.5"/>
<polygon fill="none" stroke="#666666" points="0,-261 0,-550 136,-550 136,-261 0,-261"/>
</a>
</g>
</g>
<!-- Node2&#45;&gt;Node1 -->
<g id="edge1_Node000001_Node000002" class="edge">
<title>Node2&#45;&gt;Node1</title>
<g id="a_edge1_Node000001_Node000002"><a xlink:title=" ">
<path fill="none" stroke="#63b8ff" d="M105.86,-260.59C108.91,-248.98 111.97,-237.34 114.97,-225.95"/>
<polygon fill="none" stroke="#63b8ff" points="115.02,-225.78 112.67,-218.96 118.07,-214.18 120.41,-221 115.02,-225.78"/>
</a>
</g>
<text text-anchor="middle" x="138.5" y="-235" font-family="Helvetica,sans-Serif" font-size="10.00" fill="grey"> &#45;m_logger</text>
</g>
<!-- Node3 -->
<g id="Node000003" class="node">
<title>Node3</title>
<g id="a_Node000003"><a xlink:href="structTopologyExtractResult.html" target="_top" xlink:title="Résultat complet de l&#39;extraction topologique (Phases 3–5b).">
<polygon fill="white" stroke="transparent" points="296,-460 154,-460 154,-351 296,-351 296,-460"/>
<text text-anchor="start" x="170.5" y="-447.5" font-family="Helvetica,sans-Serif" font-size="10.00">TopologyExtractResult</text>
<text text-anchor="start" x="158" y="-432.5" font-family="Helvetica,sans-Serif" font-size="10.00">+</text>
<text text-anchor="start" x="171" y="-432.5" font-family="Helvetica,sans-Serif" font-size="10.00">switches</text>
<text text-anchor="start" x="158" y="-417.5" font-family="Helvetica,sans-Serif" font-size="10.00">+</text>
<text text-anchor="start" x="171" y="-417.5" font-family="Helvetica,sans-Serif" font-size="10.00">straights</text>
<text text-anchor="start" x="158" y="-402.5" font-family="Helvetica,sans-Serif" font-size="10.00">+</text>
<text text-anchor="start" x="171" y="-402.5" font-family="Helvetica,sans-Serif" font-size="10.00">nodeIdToSwitchId</text>
<text text-anchor="start" x="158" y="-387.5" font-family="Helvetica,sans-Serif" font-size="10.00">+</text>
<text text-anchor="start" x="171" y="-387.5" font-family="Helvetica,sans-Serif" font-size="10.00">switchIdToNodeId</text>
<text text-anchor="start" x="158" y="-372.5" font-family="Helvetica,sans-Serif" font-size="10.00">+</text>
<text text-anchor="start" x="171" y="-372.5" font-family="Helvetica,sans-Serif" font-size="10.00">straightEndpointNodeIds</text>
<text text-anchor="start" x="223" y="-357.5" font-family="Helvetica,sans-Serif" font-size="10.00"> </text>
<polygon fill="#666666" stroke="#666666" points="154,-442.5 154,-442.5 296,-442.5 296,-442.5 154,-442.5"/>
<polygon fill="#666666" stroke="#666666" points="154,-367.5 154,-367.5 169,-367.5 169,-367.5 154,-367.5"/>
<polygon fill="#666666" stroke="#666666" points="169,-367.5 169,-367.5 296,-367.5 296,-367.5 169,-367.5"/>
<polygon fill="none" stroke="#666666" points="154,-351 154,-460 296,-460 296,-351 154,-351"/>
</a>
</g>
</g>
<!-- Node3&#45;&gt;Node1 -->
<g id="edge2_Node000001_Node000003" class="edge">
<title>Node3&#45;&gt;Node1</title>
<g id="a_edge2_Node000001_Node000003"><a xlink:title=" ">
<path fill="none" stroke="#63b8ff" d="M210.69,-350.81C201.41,-315.95 188.93,-269.13 177.42,-225.91"/>
<polygon fill="none" stroke="#63b8ff" points="177.36,-225.72 171.95,-220.95 174.28,-214.12 179.68,-218.89 177.36,-225.72"/>
</a>
</g>
<text text-anchor="middle" x="217.5" y="-235" font-family="Helvetica,sans-Serif" font-size="10.00" fill="grey"> &#45;m_topoResult</text>
</g>
</g>
</svg>
