<?xml version="1.0" encoding="UTF-8" standalone="no"?>
<!DOCTYPE svg PUBLIC "-//W3C//DTD SVG 1.1//EN"
 "http://www.w3.org/Graphics/SVG/1.1/DTD/svg11.dtd">
<!-- Generated by graphviz version 2.43.0 (0)
 -->
<!-- Title: Logger::writeLog Pages: 1 -->
<svg width="502pt" height="138pt"
 viewBox="0.00 0.00 502.00 138.00" xmlns="http://www.w3.org/2000/svg" xmlns:xlink="http://www.w3.org/1999/xlink">
<g id="graph0" class="graph" transform="scale(1 1) rotate(0) translate(4 134)">
<title>Logger::writeLog</title>
<!-- Node1 -->
<g id="Node000001" class="node">
<title>Node1</title>
<g id="a_Node000001"><a xlink:title="Écrit une ligne de trace dans le fichier et la sortie de débogage.">
<polygon fill="#999999" stroke="#666666" points="98,-74 0,-74 0,-55 98,-55 98,-74"/>
<text text-anchor="middle" x="49" y="-62" font-family="Helvetica,sans-Serif" font-size="10.00">Logger::writeLog</text>
</a>
</g>
</g>
<!-- Node2 -->
<g id="Node000002" class="node">
<title>Node2</title>
<g id="a_Node000002"><a xlink:href="classLogger.html#a73e58f91876b0b8c94dbef251965230b" target="_top" xlink:title="Extrait le nom de classe depuis la signature MSVC &quot;__FUNCTION__&quot;.">
<polygon fill="white" stroke="#666666" points="287.5,-130 141.5,-130 141.5,-111 287.5,-111 287.5,-130"/>
<text text-anchor="middle" x="214.5" y="-118" font-family="Helvetica,sans-Serif" font-size="10.00">Logger::extractClassName</text>
</a>
</g>
</g>
<!-- Node1&#45;&gt;Node2 -->
<g id="edge1_Node000001_Node000002" class="edge">
<title>Node1&#45;&gt;Node2</title>
<g id="a_edge1_Node000001_Node000002"><a xlink:title=" ">
<path fill="none" stroke="#63b8ff" d="M68.25,-74.06C84.98,-82.5 110.63,-94.66 134,-102.5 140.49,-104.68 147.37,-106.68 154.25,-108.48"/>
<polygon fill="#63b8ff" stroke="#63b8ff" points="153.75,-111.96 164.3,-110.99 155.45,-105.17 153.75,-111.96"/>
</a>
</g>
</g>
<!-- Node3 -->
<g id="Node000003" class="node">
<title>Node3</title>
<g id="a_Node000003"><a xlink:href="classLogger.html#aa91f92a5ffac3b66b91ba38fd0912560" target="_top" xlink:title="Extrait le nom de la fonction depuis la signature MSVC &quot;__FUNCTION__&quot;.">
<polygon fill="white" stroke="#666666" points="295,-93 134,-93 134,-74 295,-74 295,-93"/>
<text text-anchor="middle" x="214.5" y="-81" font-family="Helvetica,sans-Serif" font-size="10.00">Logger::extractFunctionName</text>
</a>
</g>
</g>
<!-- Node1&#45;&gt;Node3 -->
<g id="edge2_Node000001_Node000003" class="edge">
<title>Node1&#45;&gt;Node3</title>
<g id="a_edge2_Node000001_Node000003"><a xlink:title=" ">
<path fill="none" stroke="#63b8ff" d="M98.17,-70.1C106.32,-71.04 115,-72.05 123.8,-73.08"/>
<polygon fill="#63b8ff" stroke="#63b8ff" points="123.44,-76.56 133.78,-74.24 124.25,-69.6 123.44,-76.56"/>
</a>
</g>
</g>
<!-- Node4 -->
<g id="Node000004" class="node">
<title>Node4</title>
<g id="a_Node000004"><a xlink:href="classLogger.html#a8f0182d5ff94d8b9585a1e75e7b02f1e" target="_top" xlink:title="Formate une ligne de trace complète.">
<polygon fill="white" stroke="#666666" points="277.5,-56 151.5,-56 151.5,-37 277.5,-37 277.5,-56"/>
<text text-anchor="middle" x="214.5" y="-44" font-family="Helvetica,sans-Serif" font-size="10.00">Logger::formatLogLine</text>
</a>
</g>
</g>
<!-- Node1&#45;&gt;Node4 -->
<g id="edge3_Node000001_Node000004" class="edge">
<title>Node1&#45;&gt;Node4</title>
<g id="a_edge3_Node000001_Node000004"><a xlink:title=" ">
<path fill="none" stroke="#63b8ff" d="M98.17,-59.2C111.72,-57.71 126.75,-56.05 141.37,-54.44"/>
<polygon fill="#63b8ff" stroke="#63b8ff" points="141.85,-57.91 151.4,-53.34 141.08,-50.95 141.85,-57.91"/>
</a>
</g>
</g>
<!-- Node7 -->
<g id="Node000007" class="node">
<title>Node7</title>
<g id="a_Node000007"><a xlink:href="classLogger.html#aa7d10eb28cdcf56612e1604e7cd4b95b" target="_top" xlink:title="Envoie une chaîne vers la sortie de débogage Visual Studio.">
<polygon fill="white" stroke="#666666" points="291.5,-19 137.5,-19 137.5,0 291.5,0 291.5,-19"/>
<text text-anchor="middle" x="214.5" y="-7" font-family="Helvetica,sans-Serif" font-size="10.00">Logger::sendToDebugOutput</text>
</a>
</g>
</g>
<!-- Node1&#45;&gt;Node7 -->
<g id="edge6_Node000001_Node000007" class="edge">
<title>Node1&#45;&gt;Node7</title>
<g id="a_edge6_Node000001_Node000007"><a xlink:title=" ">
<path fill="none" stroke="#63b8ff" d="M69.66,-54.94C86.45,-47.05 111.41,-35.98 134,-28.5 141.66,-25.96 149.84,-23.62 157.94,-21.5"/>
<polygon fill="#63b8ff" stroke="#63b8ff" points="158.88,-24.87 167.72,-19.03 157.17,-18.08 158.88,-24.87"/>
</a>
</g>
</g>
<!-- Node5 -->
<g id="Node000005" class="node">
<title>Node5</title>
<g id="a_Node000005"><a xlink:href="classLogger.html#a44caa51276b396938aa0d2b0fa087a5b" target="_top" xlink:title="Retourne l&#39;horodatage courant au format [HH:MM:SS].">
<polygon fill="white" stroke="#666666" points="494,-74 331,-74 331,-55 494,-55 494,-74"/>
<text text-anchor="middle" x="412.5" y="-62" font-family="Helvetica,sans-Serif" font-size="10.00">Logger::getCurrentTimestamp</text>
</a>
</g>
</g>
<!-- Node4&#45;&gt;Node5 -->
<g id="edge4_Node000004_Node000005" class="edge">
<title>Node4&#45;&gt;Node5</title>
<g id="a_edge4_Node000004_Node000005"><a xlink:title=" ">
<path fill="none" stroke="#63b8ff" d="M277.52,-52.2C291.28,-53.46 306.13,-54.82 320.77,-56.17"/>
<polygon fill="#63b8ff" stroke="#63b8ff" points="320.58,-59.67 330.86,-57.09 321.22,-52.69 320.58,-59.67"/>
</a>
</g>
</g>
<!-- Node6 -->
<g id="Node000006" class="node">
<title>Node6</title>
<g id="a_Node000006"><a xlink:href="classLogger.html#acfb794ab842c63396ad1c6a771f43483" target="_top" xlink:title="Convertit un LogLevel en chaîne courte pour l&#39;affichage.">
<polygon fill="white" stroke="#666666" points="472,-37 353,-37 353,-18 472,-18 472,-37"/>
<text text-anchor="middle" x="412.5" y="-25" font-family="Helvetica,sans-Serif" font-size="10.00">Logger::levelToString</text>
</a>
</g>
</g>
<!-- Node4&#45;&gt;Node6 -->
<g id="edge5_Node000004_Node000006" class="edge">
<title>Node4&#45;&gt;Node6</title>
<g id="a_edge5_Node000004_Node000006"><a xlink:title=" ">
<path fill="none" stroke="#63b8ff" d="M277.52,-40.49C298.24,-38.48 321.45,-36.23 342.66,-34.17"/>
<polygon fill="#63b8ff" stroke="#63b8ff" points="343.28,-37.63 352.89,-33.18 342.6,-30.66 343.28,-37.63"/>
</a>
</g>
</g>
</g>
</svg>
