<?xml version="1.0" encoding="UTF-8" standalone="no"?>
<!DOCTYPE svg PUBLIC "-//W3C//DTD SVG 1.1//EN"
 "http://www.w3.org/Graphics/SVG/1.1/DTD/svg11.dtd">
<!-- Generated by graphviz version 2.43.0 (0)
 -->
<!-- Title: MainWindow::onSwitchClick Pages: 1 -->
<svg width="510pt" height="27pt"
 viewBox="0.00 0.00 510.00 27.00" xmlns="http://www.w3.org/2000/svg" xmlns:xlink="http://www.w3.org/1999/xlink">
<g id="graph0" class="graph" transform="scale(1 1) rotate(0) translate(4 23)">
<title>MainWindow::onSwitchClick</title>
<!-- Node1 -->
<g id="Node000001" class="node">
<title>Node1</title>
<g id="a_Node000001"><a xlink:title="Met à jour l&#39;état opérationnel d&#39;un SwitchBlock après un clic.">
<polygon fill="#999999" stroke="#666666" points="502,-19 349,-19 349,0 502,0 502,-19"/>
<text text-anchor="middle" x="425.5" y="-7" font-family="Helvetica,sans-Serif" font-size="10.00">MainWindow::onSwitchClick</text>
</a>
</g>
</g>
<!-- Node2 -->
<g id="Node000002" class="node">
<title>Node2</title>
<g id="a_Node000002"><a xlink:href="classMainWindow.html#a6e84464d583e27d6f978385b22a5945f" target="_top" xlink:title="Dispatcher principal des messages JSON reçus depuis Leaflet.">
<polygon fill="white" stroke="#666666" points="313,-19 152,-19 152,0 313,0 313,-19"/>
<text text-anchor="middle" x="232.5" y="-7" font-family="Helvetica,sans-Serif" font-size="10.00">MainWindow::onWebMessage</text>
</a>
</g>
</g>
<!-- Node1&#45;&gt;Node2 -->
<g id="edge1_Node000001_Node000002" class="edge">
<title>Node1&#45;&gt;Node2</title>
<g id="a_edge1_Node000001_Node000002"><a xlink:title=" ">
<path fill="none" stroke="#63b8ff" d="M338.54,-9.5C330.12,-9.5 321.6,-9.5 313.25,-9.5"/>
<polygon fill="#63b8ff" stroke="#63b8ff" points="338.74,-13 348.74,-9.5 338.74,-6 338.74,-13"/>
</a>
</g>
</g>
<!-- Node3 -->
<g id="Node000003" class="node">
<title>Node3</title>
<g id="a_Node000003"><a xlink:href="classMainWindow.html#a627d9feed19c3096079d91d6d38b9bf9" target="_top" xlink:title="Crée et affiche la fenêtre Win32, puis initialise la ProgressBar.">
<polygon fill="white" stroke="#666666" points="116,-19 0,-19 0,0 116,0 116,-19"/>
<text text-anchor="middle" x="58" y="-7" font-family="Helvetica,sans-Serif" font-size="10.00">MainWindow::create</text>
</a>
</g>
</g>
<!-- Node2&#45;&gt;Node3 -->
<g id="edge2_Node000002_Node000003" class="edge">
<title>Node2&#45;&gt;Node3</title>
<g id="a_edge2_Node000002_Node000003"><a xlink:title=" ">
<path fill="none" stroke="#63b8ff" d="M141.66,-9.5C133.02,-9.5 124.42,-9.5 116.22,-9.5"/>
<polygon fill="#63b8ff" stroke="#63b8ff" points="141.81,-13 151.81,-9.5 141.81,-6 141.81,-13"/>
</a>
</g>
</g>
</g>
</svg>
