<?xml version="1.0" encoding="UTF-8" standalone="no"?>
<!DOCTYPE svg PUBLIC "-//W3C//DTD SVG 1.1//EN"
 "http://www.w3.org/Graphics/SVG/1.1/DTD/svg11.dtd">
<!-- Generated by graphviz version 2.43.0 (0)
 -->
<!-- Title: GraphBuilder::buildTopologyGraph Pages: 1 -->
<svg width="796pt" height="213pt"
 viewBox="0.00 0.00 796.00 213.00" xmlns="http://www.w3.org/2000/svg" xmlns:xlink="http://www.w3.org/1999/xlink">
<g id="graph0" class="graph" transform="scale(1 1) rotate(0) translate(4 209)">
<title>GraphBuilder::buildTopologyGraph</title>
<!-- Node1 -->
<g id="Node000001" class="node">
<title>Node1</title>
<g id="a_Node000001"><a xlink:title="Phase 2 — Construit le TopologyGraph depuis les polylignes métriques.">
<polygon fill="#999999" stroke="#666666" points="154,-124.5 0,-124.5 0,-94.5 154,-94.5 154,-124.5"/>
<text text-anchor="start" x="8" y="-112.5" font-family="Helvetica,sans-Serif" font-size="10.00">GraphBuilder::buildTopology</text>
<text text-anchor="middle" x="77" y="-101.5" font-family="Helvetica,sans-Serif" font-size="10.00">Graph</text>
</a>
</g>
</g>
<!-- Node2 -->
<g id="Node000002" class="node">
<title>Node2</title>
<g id="a_Node000002"><a xlink:href="classTopologyGraph.html#a99f720078a226f9d62b284d67194153b" target="_top" xlink:title="Ajoute une arête non&#45;orientée entre les nœuds startNodeId et endNodeId.">
<polygon fill="white" stroke="#666666" points="348.5,-205 211.5,-205 211.5,-186 348.5,-186 348.5,-205"/>
<text text-anchor="middle" x="280" y="-193" font-family="Helvetica,sans-Serif" font-size="10.00">TopologyGraph::addEdge</text>
</a>
</g>
</g>
<!-- Node1&#45;&gt;Node2 -->
<g id="edge1_Node000001_Node000002" class="edge">
<title>Node1&#45;&gt;Node2</title>
<g id="a_edge1_Node000001_Node000002"><a xlink:title=" ">
<path fill="none" stroke="#63b8ff" d="M98.4,-124.53C120.06,-139.8 155.84,-163.07 190,-176.5 196.67,-179.12 203.77,-181.41 210.95,-183.41"/>
<polygon fill="#63b8ff" stroke="#63b8ff" points="210.17,-186.82 220.73,-185.94 211.93,-180.05 210.17,-186.82"/>
</a>
</g>
</g>
<!-- Node3 -->
<g id="Node000003" class="node">
<title>Node3</title>
<g id="a_Node000003"><a xlink:href="classGeometryUtils.html#aa06e19f5aae6fce3108b2fcfc709fc53" target="_top" xlink:title="Convertit une polyligne WGS&#45;84 en coordonnées métriques UTM.">
<polygon fill="white" stroke="#666666" points="365,-167.5 195,-167.5 195,-137.5 365,-137.5 365,-167.5"/>
<text text-anchor="start" x="203" y="-155.5" font-family="Helvetica,sans-Serif" font-size="10.00">GeometryUtils::convertPolyline</text>
<text text-anchor="middle" x="280" y="-144.5" font-family="Helvetica,sans-Serif" font-size="10.00">ToMetric</text>
</a>
</g>
</g>
<!-- Node1&#45;&gt;Node3 -->
<g id="edge2_Node000001_Node000003" class="edge">
<title>Node1&#45;&gt;Node3</title>
<g id="a_edge2_Node000001_Node000003"><a xlink:title=" ">
<path fill="none" stroke="#63b8ff" d="M148.3,-124.54C164.52,-128.01 181.89,-131.73 198.51,-135.28"/>
<polygon fill="#63b8ff" stroke="#63b8ff" points="198.23,-138.8 208.74,-137.47 199.69,-131.95 198.23,-138.8"/>
</a>
</g>
</g>
<!-- Node6 -->
<g id="Node000006" class="node">
<title>Node6</title>
<g id="a_Node000006"><a xlink:href="classTopologyGraph.html#aad7a0f965d35805d33c60bc8df0c2991" target="_top" xlink:title="Retourne l&#39;ID du nœud en (x, y), le créant si absent.">
<polygon fill="white" stroke="#666666" points="370,-119 190,-119 190,-100 370,-100 370,-119"/>
<text text-anchor="middle" x="280" y="-107" font-family="Helvetica,sans-Serif" font-size="10.00">TopologyGraph::getOrCreateNode</text>
</a>
</g>
</g>
<!-- Node1&#45;&gt;Node6 -->
<g id="edge5_Node000001_Node000006" class="edge">
<title>Node1&#45;&gt;Node6</title>
<g id="a_edge5_Node000001_Node000006"><a xlink:title=" ">
<path fill="none" stroke="#63b8ff" d="M154.28,-109.5C162.66,-109.5 171.28,-109.5 179.88,-109.5"/>
<polygon fill="#63b8ff" stroke="#63b8ff" points="179.97,-113 189.97,-109.5 179.97,-106 179.97,-113"/>
</a>
</g>
</g>
<!-- Node7 -->
<g id="Node000007" class="node">
<title>Node7</title>
<g id="a_Node000007"><a xlink:href="classGeometryUtils.html#a1f0bcf5c241331f56979b6d63b3412c1" target="_top" xlink:title="Accroche une coordonnée métrique au sommet le plus proche d&#39;une grille.">
<polygon fill="white" stroke="#666666" points="589.5,-107 410.5,-107 410.5,-88 589.5,-88 589.5,-107"/>
<text text-anchor="middle" x="500" y="-95" font-family="Helvetica,sans-Serif" font-size="10.00">GeometryUtils::snapToMetricGrid</text>
</a>
</g>
</g>
<!-- Node1&#45;&gt;Node7 -->
<g id="edge11_Node000001_Node000007" class="edge">
<title>Node1&#45;&gt;Node7</title>
<g id="a_edge11_Node000001_Node000007"><a xlink:title=" ">
<path fill="none" stroke="#63b8ff" d="M154.02,-95.61C166.02,-93.9 178.32,-92.43 190,-91.5 260.03,-85.91 339.25,-87.61 399.94,-90.6"/>
<polygon fill="#63b8ff" stroke="#63b8ff" points="400.12,-94.11 410.29,-91.13 400.48,-87.12 400.12,-94.11"/>
</a>
</g>
</g>
<!-- Node8 -->
<g id="Node000008" class="node">
<title>Node8</title>
<g id="a_Node000008"><a xlink:href="classTopologyGraph.html#a27cb3f78740d0cf268f2ea5f3bace6d7" target="_top" xlink:title="Fusionne les nœuds séparés de moins de toleranceMeters.">
<polygon fill="white" stroke="#666666" points="357,-43.5 203,-43.5 203,-13.5 357,-13.5 357,-43.5"/>
<text text-anchor="start" x="211" y="-31.5" font-family="Helvetica,sans-Serif" font-size="10.00">TopologyGraph::mergeClose</text>
<text text-anchor="middle" x="280" y="-20.5" font-family="Helvetica,sans-Serif" font-size="10.00">Nodes</text>
</a>
</g>
</g>
<!-- Node1&#45;&gt;Node8 -->
<g id="edge7_Node000001_Node000008" class="edge">
<title>Node1&#45;&gt;Node8</title>
<g id="a_edge7_Node000001_Node000008"><a xlink:title=" ">
<path fill="none" stroke="#63b8ff" d="M108,-94.38C130.31,-83.43 161.67,-68.65 190,-57.5 199.41,-53.8 209.51,-50.18 219.4,-46.83"/>
<polygon fill="#63b8ff" stroke="#63b8ff" points="220.81,-50.05 229.2,-43.57 218.6,-43.4 220.81,-50.05"/>
</a>
</g>
</g>
<!-- Node4 -->
<g id="Node000004" class="node">
<title>Node4</title>
<g id="a_Node000004"><a xlink:href="classGeometryUtils.html#abcb43f3e49607318e07012e902febfdb" target="_top" xlink:title="Convertit une coordonnée WGS&#45;84 en mètres UTM.">
<polygon fill="white" stroke="#666666" points="594,-162 406,-162 406,-143 594,-143 594,-162"/>
<text text-anchor="middle" x="500" y="-150" font-family="Helvetica,sans-Serif" font-size="10.00">GeometryUtils::wgs84ToMetricUtm</text>
</a>
</g>
</g>
<!-- Node3&#45;&gt;Node4 -->
<g id="edge3_Node000003_Node000004" class="edge">
<title>Node3&#45;&gt;Node4</title>
<g id="a_edge3_Node000003_Node000004"><a xlink:title=" ">
<path fill="none" stroke="#63b8ff" d="M365.28,-152.5C375.26,-152.5 385.53,-152.5 395.72,-152.5"/>
<polygon fill="#63b8ff" stroke="#63b8ff" points="395.89,-156 405.89,-152.5 395.89,-149 395.89,-156"/>
</a>
</g>
</g>
<!-- Node5 -->
<g id="Node000005" class="node">
<title>Node5</title>
<g id="a_Node000005"><a xlink:href="classGeometryUtils.html#a0a57b43055d32f595a7c84dbd7d098e3" target="_top" xlink:title="Retourne le méridien central (degrés) d&#39;une zone UTM.">
<polygon fill="white" stroke="#666666" points="783.5,-167.5 634.5,-167.5 634.5,-137.5 783.5,-137.5 783.5,-167.5"/>
<text text-anchor="start" x="642.5" y="-155.5" font-family="Helvetica,sans-Serif" font-size="10.00">GeometryUtils::utmCentral</text>
<text text-anchor="middle" x="709" y="-144.5" font-family="Helvetica,sans-Serif" font-size="10.00">MeridianDegrees</text>
</a>
</g>
</g>
<!-- Node4&#45;&gt;Node5 -->
<g id="edge4_Node000004_Node000005" class="edge">
<title>Node4&#45;&gt;Node5</title>
<g id="a_edge4_Node000004_Node000005"><a xlink:title=" ">
<path fill="none" stroke="#63b8ff" d="M594.21,-152.5C604.16,-152.5 614.25,-152.5 624.08,-152.5"/>
<polygon fill="#63b8ff" stroke="#63b8ff" points="624.23,-156 634.23,-152.5 624.23,-149 624.23,-156"/>
</a>
</g>
</g>
<!-- Node6&#45;&gt;Node7 -->
<g id="edge6_Node000006_Node000007" class="edge">
<title>Node6&#45;&gt;Node7</title>
<g id="a_edge6_Node000006_Node000007"><a xlink:title=" ">
<path fill="none" stroke="#63b8ff" d="M370.3,-104.58C380.07,-104.05 390.07,-103.5 399.95,-102.95"/>
<polygon fill="#63b8ff" stroke="#63b8ff" points="400.4,-106.43 410.19,-102.39 400.02,-99.44 400.4,-106.43"/>
</a>
</g>
</g>
<!-- Node9 -->
<g id="Node000009" class="node">
<title>Node9</title>
<g id="a_Node000009"><a xlink:href="classTopologyGraph.html#ae6743defffd4df65ccd2f59931281e7d" target="_top" xlink:title=" ">
<polygon fill="white" stroke="#666666" points="788,-43.5 630,-43.5 630,-13.5 788,-13.5 788,-43.5"/>
<text text-anchor="start" x="638" y="-31.5" font-family="Helvetica,sans-Serif" font-size="10.00">TopologyGraph::findRootWith</text>
<text text-anchor="middle" x="709" y="-20.5" font-family="Helvetica,sans-Serif" font-size="10.00">PathCompression</text>
</a>
</g>
</g>
<!-- Node8&#45;&gt;Node9 -->
<g id="edge8_Node000008_Node000009" class="edge">
<title>Node8&#45;&gt;Node9</title>
<g id="a_edge8_Node000008_Node000009"><a xlink:title=" ">
<path fill="none" stroke="#63b8ff" d="M357.34,-28.5C430.92,-28.5 542.19,-28.5 619.58,-28.5"/>
<polygon fill="#63b8ff" stroke="#63b8ff" points="619.8,-32 629.8,-28.5 619.8,-25 619.8,-32"/>
</a>
</g>
</g>
<!-- Node10 -->
<g id="Node000010" class="node">
<title>Node10</title>
<g id="a_Node000010"><a xlink:href="classTopologyGraph.html#a37b8517d94af461d5d7eb42e216a38e9" target="_top" xlink:title=" ">
<polygon fill="white" stroke="#666666" points="583.5,-19 416.5,-19 416.5,0 583.5,0 583.5,-19"/>
<text text-anchor="middle" x="500" y="-7" font-family="Helvetica,sans-Serif" font-size="10.00">TopologyGraph::uniteNodeSets</text>
</a>
</g>
</g>
<!-- Node8&#45;&gt;Node10 -->
<g id="edge9_Node000008_Node000010" class="edge">
<title>Node8&#45;&gt;Node10</title>
<g id="a_edge9_Node000008_Node000010"><a xlink:title=" ">
<path fill="none" stroke="#63b8ff" d="M357.25,-21.85C373.11,-20.47 389.99,-19 406.37,-17.57"/>
<polygon fill="#63b8ff" stroke="#63b8ff" points="406.83,-21.05 416.49,-16.69 406.22,-14.07 406.83,-21.05"/>
</a>
</g>
</g>
<!-- Node10&#45;&gt;Node9 -->
<g id="edge10_Node000010_Node000009" class="edge">
<title>Node10&#45;&gt;Node9</title>
<g id="a_edge10_Node000010_Node000009"><a xlink:title=" ">
<path fill="none" stroke="#63b8ff" d="M583.7,-17.09C595.58,-18.18 607.84,-19.31 619.82,-20.41"/>
<polygon fill="#63b8ff" stroke="#63b8ff" points="619.52,-23.89 629.8,-21.32 620.16,-16.92 619.52,-23.89"/>
</a>
</g>
</g>
</g>
</svg>
