<?xml version="1.0" encoding="UTF-8" standalone="no"?>
<!DOCTYPE svg PUBLIC "-//W3C//DTD SVG 1.1//EN"
 "http://www.w3.org/Graphics/SVG/1.1/DTD/svg11.dtd">
<!-- Generated by graphviz version 2.43.0 (0)
 -->
<!-- Title: TopologyGraph::computeReachableLength Pages: 1 -->
<svg width="413pt" height="76pt"
 viewBox="0.00 0.00 413.00 75.50" xmlns="http://www.w3.org/2000/svg" xmlns:xlink="http://www.w3.org/1999/xlink">
<g id="graph0" class="graph" transform="scale(1 1) rotate(0) translate(4 71.5)">
<title>TopologyGraph::computeReachableLength</title>
<!-- Node1 -->
<g id="Node000001" class="node">
<title>Node1</title>
<g id="a_Node000001"><a xlink:title="Marche le graphe depuis fromNodeId vers towardNodeId et accumule les longueurs.">
<polygon fill="#999999" stroke="#666666" points="189,-51 0,-51 0,-21 189,-21 189,-51"/>
<text text-anchor="start" x="8" y="-39" font-family="Helvetica,sans-Serif" font-size="10.00">TopologyGraph::computeReachable</text>
<text text-anchor="middle" x="94.5" y="-28" font-family="Helvetica,sans-Serif" font-size="10.00">Length</text>
</a>
</g>
</g>
<!-- Node2 -->
<g id="Node000002" class="node">
<title>Node2</title>
<g id="a_Node000002"><a xlink:href="classTopologyGraph.html#a8901749abf5847458808e8eec8a72af6" target="_top" xlink:title="Retourne l&#39;ID de l&#39;arête reliant nodeIdA et nodeIdB, ou nullopt.">
<polygon fill="white" stroke="#666666" points="405,-67.5 225,-67.5 225,-48.5 405,-48.5 405,-67.5"/>
<text text-anchor="middle" x="315" y="-55.5" font-family="Helvetica,sans-Serif" font-size="10.00">TopologyGraph::findEdgeBetween</text>
</a>
</g>
</g>
<!-- Node1&#45;&gt;Node2 -->
<g id="edge1_Node000001_Node000002" class="edge">
<title>Node1&#45;&gt;Node2</title>
<g id="a_edge1_Node000001_Node000002"><a xlink:title=" ">
<path fill="none" stroke="#63b8ff" d="M189.11,-45.43C197.61,-46.28 206.23,-47.15 214.76,-48.01"/>
<polygon fill="#63b8ff" stroke="#63b8ff" points="214.44,-51.49 224.74,-49.01 215.14,-44.53 214.44,-51.49"/>
</a>
</g>
</g>
<!-- Node3 -->
<g id="Node000003" class="node">
<title>Node3</title>
<g id="a_Node000003"><a xlink:href="classTopologyGraph.html#a7c086df2f9774459710f88d37158b745" target="_top" xlink:title="Retourne le degré d&#39;un nœud (nombre d&#39;arêtes incidentes).">
<polygon fill="white" stroke="#666666" points="388,-30 242,-30 242,0 388,0 388,-30"/>
<text text-anchor="start" x="250" y="-18" font-family="Helvetica,sans-Serif" font-size="10.00">TopologyGraph::getDegree</text>
<text text-anchor="middle" x="315" y="-7" font-family="Helvetica,sans-Serif" font-size="10.00">OfNode</text>
</a>
</g>
</g>
<!-- Node1&#45;&gt;Node3 -->
<g id="edge2_Node000001_Node000003" class="edge">
<title>Node1&#45;&gt;Node3</title>
<g id="a_edge2_Node000001_Node000003"><a xlink:title=" ">
<path fill="none" stroke="#63b8ff" d="M189.11,-27C203.28,-25.64 217.81,-24.25 231.71,-22.91"/>
<polygon fill="#63b8ff" stroke="#63b8ff" points="232.09,-26.39 241.71,-21.95 231.42,-19.42 232.09,-26.39"/>
</a>
</g>
</g>
</g>
</svg>
