<?xml version="1.0" encoding="UTF-8" standalone="no"?>
<!DOCTYPE svg PUBLIC "-//W3C//DTD SVG 1.1//EN"
 "http://www.w3.org/Graphics/SVG/1.1/DTD/svg11.dtd">
<!-- Generated by graphviz version 2.43.0 (0)
 -->
<!-- Title: SwitchBlock Pages: 1 -->
<svg width="394pt" height="1698pt"
 viewBox="0.00 0.00 394.00 1698.00" xmlns="http://www.w3.org/2000/svg" xmlns:xlink="http://www.w3.org/1999/xlink">
<g id="graph0" class="graph" transform="scale(1 1) rotate(0) translate(4 1694)">
<title>SwitchBlock</title>
<!-- Node1 -->
<g id="Node000001" class="node">
<title>Node1</title>
<g id="a_Node000001"><a xlink:title=" ">
<polygon fill="#999999" stroke="transparent" points="243,-784 71,-784 71,0 243,0 243,-784"/>
<text text-anchor="start" x="127" y="-772" font-family="Helvetica,sans-Serif" font-size="10.00">SwitchBlock</text>
<text text-anchor="start" x="77.5" y="-757" font-family="Helvetica,sans-Serif" font-size="10.00">&#45;</text>
<text text-anchor="start" x="88" y="-757" font-family="Helvetica,sans-Serif" font-size="10.00">m_branchIds</text>
<text text-anchor="start" x="77.5" y="-742" font-family="Helvetica,sans-Serif" font-size="10.00">&#45;</text>
<text text-anchor="start" x="88" y="-742" font-family="Helvetica,sans-Serif" font-size="10.00">m_rootBranchId</text>
<text text-anchor="start" x="77.5" y="-727" font-family="Helvetica,sans-Serif" font-size="10.00">&#45;</text>
<text text-anchor="start" x="88" y="-727" font-family="Helvetica,sans-Serif" font-size="10.00">m_normalBranchId</text>
<text text-anchor="start" x="77.5" y="-712" font-family="Helvetica,sans-Serif" font-size="10.00">&#45;</text>
<text text-anchor="start" x="88" y="-712" font-family="Helvetica,sans-Serif" font-size="10.00">m_deviationBranchId</text>
<text text-anchor="start" x="77.5" y="-697" font-family="Helvetica,sans-Serif" font-size="10.00">&#45;</text>
<text text-anchor="start" x="88" y="-697" font-family="Helvetica,sans-Serif" font-size="10.00">m_tipOnRoot</text>
<text text-anchor="start" x="77.5" y="-682" font-family="Helvetica,sans-Serif" font-size="10.00">&#45;</text>
<text text-anchor="start" x="88" y="-682" font-family="Helvetica,sans-Serif" font-size="10.00">m_tipOnNormal</text>
<text text-anchor="start" x="77.5" y="-667" font-family="Helvetica,sans-Serif" font-size="10.00">&#45;</text>
<text text-anchor="start" x="88" y="-667" font-family="Helvetica,sans-Serif" font-size="10.00">m_tipOnDeviation</text>
<text text-anchor="start" x="77.5" y="-652" font-family="Helvetica,sans-Serif" font-size="10.00">&#45;</text>
<text text-anchor="start" x="88" y="-652" font-family="Helvetica,sans-Serif" font-size="10.00">m_totalLengthMeters</text>
<text text-anchor="start" x="77.5" y="-637" font-family="Helvetica,sans-Serif" font-size="10.00">&#45;</text>
<text text-anchor="start" x="88" y="-637" font-family="Helvetica,sans-Serif" font-size="10.00">m_doubleOnNormal</text>
<text text-anchor="start" x="77.5" y="-622" font-family="Helvetica,sans-Serif" font-size="10.00">&#45;</text>
<text text-anchor="start" x="88" y="-622" font-family="Helvetica,sans-Serif" font-size="10.00">m_doubleOnDeviation</text>
<text text-anchor="start" x="77.5" y="-607" font-family="Helvetica,sans-Serif" font-size="10.00">&#45;</text>
<text text-anchor="start" x="88" y="-607" font-family="Helvetica,sans-Serif" font-size="10.00">m_absorbedNormalCoords</text>
<text text-anchor="start" x="77.5" y="-592" font-family="Helvetica,sans-Serif" font-size="10.00">&#45;</text>
<text text-anchor="start" x="88" y="-592" font-family="Helvetica,sans-Serif" font-size="10.00">m_absorbedDeviationCoords</text>
<text text-anchor="start" x="77.5" y="-577" font-family="Helvetica,sans-Serif" font-size="10.00">&#45;</text>
<text text-anchor="start" x="88" y="-577" font-family="Helvetica,sans-Serif" font-size="10.00">m_activeBranch</text>
<text text-anchor="start" x="75" y="-562" font-family="Helvetica,sans-Serif" font-size="10.00">+</text>
<text text-anchor="start" x="88" y="-562" font-family="Helvetica,sans-Serif" font-size="10.00">SwitchBlock()</text>
<text text-anchor="start" x="75" y="-547" font-family="Helvetica,sans-Serif" font-size="10.00">+</text>
<text text-anchor="start" x="88" y="-547" font-family="Helvetica,sans-Serif" font-size="10.00">SwitchBlock()</text>
<text text-anchor="start" x="75" y="-532" font-family="Helvetica,sans-Serif" font-size="10.00">+</text>
<text text-anchor="start" x="88" y="-532" font-family="Helvetica,sans-Serif" font-size="10.00">getId()</text>
<text text-anchor="start" x="75" y="-517" font-family="Helvetica,sans-Serif" font-size="10.00">+</text>
<text text-anchor="start" x="88" y="-517" font-family="Helvetica,sans-Serif" font-size="10.00">getType()</text>
<text text-anchor="start" x="75" y="-502" font-family="Helvetica,sans-Serif" font-size="10.00">+</text>
<text text-anchor="start" x="88" y="-502" font-family="Helvetica,sans-Serif" font-size="10.00">getState()</text>
<text text-anchor="start" x="75" y="-487" font-family="Helvetica,sans-Serif" font-size="10.00">+</text>
<text text-anchor="start" x="88" y="-487" font-family="Helvetica,sans-Serif" font-size="10.00">setState()</text>
<text text-anchor="start" x="75" y="-472" font-family="Helvetica,sans-Serif" font-size="10.00">+</text>
<text text-anchor="start" x="88" y="-472" font-family="Helvetica,sans-Serif" font-size="10.00">setBranchPointers()</text>
<text text-anchor="start" x="75" y="-457" font-family="Helvetica,sans-Serif" font-size="10.00">+</text>
<text text-anchor="start" x="88" y="-457" font-family="Helvetica,sans-Serif" font-size="10.00">getBranches()</text>
<text text-anchor="start" x="75" y="-442" font-family="Helvetica,sans-Serif" font-size="10.00">+</text>
<text text-anchor="start" x="88" y="-442" font-family="Helvetica,sans-Serif" font-size="10.00">getJunctionCoordinate()</text>
<text text-anchor="start" x="75" y="-427" font-family="Helvetica,sans-Serif" font-size="10.00">+</text>
<text text-anchor="start" x="88" y="-427" font-family="Helvetica,sans-Serif" font-size="10.00">getBranchIds()</text>
<text text-anchor="start" x="75" y="-412" font-family="Helvetica,sans-Serif" font-size="10.00">+</text>
<text text-anchor="start" x="88" y="-412" font-family="Helvetica,sans-Serif" font-size="10.00">isOriented()</text>
<text text-anchor="start" x="75" y="-397" font-family="Helvetica,sans-Serif" font-size="10.00">+</text>
<text text-anchor="start" x="88" y="-397" font-family="Helvetica,sans-Serif" font-size="10.00">isDouble()</text>
<text text-anchor="start" x="75" y="-382" font-family="Helvetica,sans-Serif" font-size="10.00">+</text>
<text text-anchor="start" x="88" y="-382" font-family="Helvetica,sans-Serif" font-size="10.00">getRootBranchId()</text>
<text text-anchor="start" x="75" y="-367" font-family="Helvetica,sans-Serif" font-size="10.00">+</text>
<text text-anchor="start" x="88" y="-367" font-family="Helvetica,sans-Serif" font-size="10.00">getNormalBranchId()</text>
<text text-anchor="start" x="75" y="-352" font-family="Helvetica,sans-Serif" font-size="10.00">+</text>
<text text-anchor="start" x="88" y="-352" font-family="Helvetica,sans-Serif" font-size="10.00">getDeviationBranchId()</text>
<text text-anchor="start" x="75" y="-337" font-family="Helvetica,sans-Serif" font-size="10.00">+</text>
<text text-anchor="start" x="88" y="-337" font-family="Helvetica,sans-Serif" font-size="10.00">getTipOnRoot()</text>
<text text-anchor="start" x="75" y="-322" font-family="Helvetica,sans-Serif" font-size="10.00">+</text>
<text text-anchor="start" x="88" y="-322" font-family="Helvetica,sans-Serif" font-size="10.00">getTipOnNormal()</text>
<text text-anchor="start" x="75" y="-307" font-family="Helvetica,sans-Serif" font-size="10.00">+</text>
<text text-anchor="start" x="88" y="-307" font-family="Helvetica,sans-Serif" font-size="10.00">getTipOnDeviation()</text>
<text text-anchor="start" x="75" y="-292" font-family="Helvetica,sans-Serif" font-size="10.00">+</text>
<text text-anchor="start" x="88" y="-292" font-family="Helvetica,sans-Serif" font-size="10.00">getDoubleOnNormal()</text>
<text text-anchor="start" x="75" y="-277" font-family="Helvetica,sans-Serif" font-size="10.00">+</text>
<text text-anchor="start" x="88" y="-277" font-family="Helvetica,sans-Serif" font-size="10.00">getDoubleOnDeviation()</text>
<text text-anchor="start" x="75" y="-262" font-family="Helvetica,sans-Serif" font-size="10.00">+</text>
<text text-anchor="start" x="88" y="-262" font-family="Helvetica,sans-Serif" font-size="10.00">getPartnerOnNormal()</text>
<text text-anchor="start" x="75" y="-247" font-family="Helvetica,sans-Serif" font-size="10.00">+</text>
<text text-anchor="start" x="88" y="-247" font-family="Helvetica,sans-Serif" font-size="10.00">getPartnerOnDeviation()</text>
<text text-anchor="start" x="75" y="-232" font-family="Helvetica,sans-Serif" font-size="10.00">+</text>
<text text-anchor="start" x="88" y="-232" font-family="Helvetica,sans-Serif" font-size="10.00">getAbsorbedNormalCoords()</text>
<text text-anchor="start" x="75" y="-217" font-family="Helvetica,sans-Serif" font-size="10.00">+</text>
<text text-anchor="start" x="88" y="-217" font-family="Helvetica,sans-Serif" font-size="10.00">getAbsorbedDeviationCoords()</text>
<text text-anchor="start" x="75" y="-202" font-family="Helvetica,sans-Serif" font-size="10.00">+</text>
<text text-anchor="start" x="88" y="-202" font-family="Helvetica,sans-Serif" font-size="10.00">getTotalLengthMeters()</text>
<text text-anchor="start" x="75" y="-187" font-family="Helvetica,sans-Serif" font-size="10.00">+</text>
<text text-anchor="start" x="88" y="-187" font-family="Helvetica,sans-Serif" font-size="10.00">getActiveBranch()</text>
<text text-anchor="start" x="75" y="-172" font-family="Helvetica,sans-Serif" font-size="10.00">+</text>
<text text-anchor="start" x="88" y="-172" font-family="Helvetica,sans-Serif" font-size="10.00">activeBranchToString()</text>
<text text-anchor="start" x="75" y="-157" font-family="Helvetica,sans-Serif" font-size="10.00">+</text>
<text text-anchor="start" x="88" y="-157" font-family="Helvetica,sans-Serif" font-size="10.00">isDeviationActive()</text>
<text text-anchor="start" x="75" y="-142" font-family="Helvetica,sans-Serif" font-size="10.00">+</text>
<text text-anchor="start" x="88" y="-142" font-family="Helvetica,sans-Serif" font-size="10.00">toString()</text>
<text text-anchor="start" x="75" y="-127" font-family="Helvetica,sans-Serif" font-size="10.00">+</text>
<text text-anchor="start" x="88" y="-127" font-family="Helvetica,sans-Serif" font-size="10.00">addBranchId()</text>
<text text-anchor="start" x="75" y="-112" font-family="Helvetica,sans-Serif" font-size="10.00">+</text>
<text text-anchor="start" x="88" y="-112" font-family="Helvetica,sans-Serif" font-size="10.00">orient()</text>
<text text-anchor="start" x="75" y="-97" font-family="Helvetica,sans-Serif" font-size="10.00">+</text>
<text text-anchor="start" x="88" y="-97" font-family="Helvetica,sans-Serif" font-size="10.00">setTips()</text>
<text text-anchor="start" x="75" y="-82" font-family="Helvetica,sans-Serif" font-size="10.00">+</text>
<text text-anchor="start" x="88" y="-82" font-family="Helvetica,sans-Serif" font-size="10.00">swapNormalDeviation()</text>
<text text-anchor="start" x="75" y="-67" font-family="Helvetica,sans-Serif" font-size="10.00">+</text>
<text text-anchor="start" x="88" y="-67" font-family="Helvetica,sans-Serif" font-size="10.00">computeTotalLength()</text>
<text text-anchor="start" x="75" y="-52" font-family="Helvetica,sans-Serif" font-size="10.00">+</text>
<text text-anchor="start" x="88" y="-52" font-family="Helvetica,sans-Serif" font-size="10.00">absorbLink()</text>
<text text-anchor="start" x="75" y="-37" font-family="Helvetica,sans-Serif" font-size="10.00">+</text>
<text text-anchor="start" x="88" y="-37" font-family="Helvetica,sans-Serif" font-size="10.00">setActiveBranch()</text>
<text text-anchor="start" x="75" y="-22" font-family="Helvetica,sans-Serif" font-size="10.00">+</text>
<text text-anchor="start" x="88" y="-22" font-family="Helvetica,sans-Serif" font-size="10.00">toggleActiveBranch()</text>
<text text-anchor="start" x="77.5" y="-7" font-family="Helvetica,sans-Serif" font-size="10.00">&#45;</text>
<text text-anchor="start" x="88" y="-7" font-family="Helvetica,sans-Serif" font-size="10.00">haversineDistanceMeters()</text>
<polygon fill="#666666" stroke="#666666" points="71,-767 71,-767 243,-767 243,-767 71,-767"/>
<polygon fill="#666666" stroke="#666666" points="71,-572 71,-572 86,-572 86,-572 71,-572"/>
<polygon fill="#666666" stroke="#666666" points="86,-572 86,-572 243,-572 243,-572 86,-572"/>
<polygon fill="none" stroke="#666666" points="71,0 71,-784 243,-784 243,0 71,0"/>
</a>
</g>
</g>
<!-- Node2 -->
<g id="Node000002" class="node">
<title>Node2</title>
<g id="a_Node000002"><a xlink:href="classShuntingElement.html" target="_top" xlink:title="Interface abstraite pour tous les éléments de shuntage ferroviaire.">
<polygon fill="white" stroke="transparent" points="128.5,-1163 7.5,-1163 7.5,-1009 128.5,-1009 128.5,-1163"/>
<text text-anchor="start" x="26.5" y="-1151" font-family="Helvetica,sans-Serif" font-size="10.00">ShuntingElement</text>
<text text-anchor="start" x="12" y="-1136" font-family="Helvetica,sans-Serif" font-size="10.00">#</text>
<text text-anchor="start" x="25" y="-1136" font-family="Helvetica,sans-Serif" font-size="10.00">m_state</text>
<text text-anchor="start" x="12" y="-1121" font-family="Helvetica,sans-Serif" font-size="10.00">+</text>
<text text-anchor="start" x="25" y="-1121" font-family="Helvetica,sans-Serif" font-size="10.00">ShuntingElement()</text>
<text text-anchor="start" x="12" y="-1106" font-family="Helvetica,sans-Serif" font-size="10.00">+</text>
<text text-anchor="start" x="25" y="-1106" font-family="Helvetica,sans-Serif" font-size="10.00">~ShuntingElement()</text>
<text text-anchor="start" x="12" y="-1091" font-family="Helvetica,sans-Serif" font-size="10.00">+</text>
<text text-anchor="start" x="25" y="-1091" font-family="Helvetica,sans-Serif" font-size="10.00">ShuntingElement()</text>
<text text-anchor="start" x="12" y="-1076" font-family="Helvetica,sans-Serif" font-size="10.00">+</text>
<text text-anchor="start" x="25" y="-1076" font-family="Helvetica,sans-Serif" font-size="10.00">operator=()</text>
<text text-anchor="start" x="12" y="-1061" font-family="Helvetica,sans-Serif" font-size="10.00">+</text>
<text text-anchor="start" x="25" y="-1061" font-family="Helvetica,sans-Serif" font-size="10.00">getState()</text>
<text text-anchor="start" x="12" y="-1046" font-family="Helvetica,sans-Serif" font-size="10.00">+</text>
<text text-anchor="start" x="25" y="-1046" font-family="Helvetica,sans-Serif" font-size="10.00">isFree()</text>
<text text-anchor="start" x="12" y="-1031" font-family="Helvetica,sans-Serif" font-size="10.00">+</text>
<text text-anchor="start" x="25" y="-1031" font-family="Helvetica,sans-Serif" font-size="10.00">isOccupied()</text>
<text text-anchor="start" x="12" y="-1016" font-family="Helvetica,sans-Serif" font-size="10.00">+</text>
<text text-anchor="start" x="25" y="-1016" font-family="Helvetica,sans-Serif" font-size="10.00">isInactive()</text>
<polygon fill="#666666" stroke="#666666" points="8,-1146 8,-1146 129,-1146 129,-1146 8,-1146"/>
<polygon fill="#666666" stroke="#666666" points="8,-1131 8,-1131 23,-1131 23,-1131 8,-1131"/>
<polygon fill="#666666" stroke="#666666" points="23,-1131 23,-1131 129,-1131 129,-1131 23,-1131"/>
<polygon fill="none" stroke="#666666" points="7.5,-1009 7.5,-1163 128.5,-1163 128.5,-1009 7.5,-1009"/>
</a>
</g>
</g>
<!-- Node2&#45;&gt;Node1 -->
<g id="edge1_Node000001_Node000002" class="edge">
<title>Node2&#45;&gt;Node1</title>
<g id="a_edge1_Node000001_Node000002"><a xlink:title=" ">
<path fill="none" stroke="#63b8ff" d="M65.13,-998.64C64.47,-949.4 65.26,-886.6 71,-831 72.59,-815.58 74.46,-799.9 76.55,-784.09"/>
<polygon fill="none" stroke="#63b8ff" points="61.64,-998.99 65.3,-1008.94 68.64,-998.88 61.64,-998.99"/>
</a>
</g>
</g>
<!-- Node6 -->
<g id="Node000006" class="node">
<title>Node6</title>
<g id="a_Node000006"><a xlink:href="structSwitchBlock_1_1SwitchBranches.html" target="_top" xlink:title="Branches topologiques d&#39;un SwitchBlock.">
<polygon fill="white" stroke="transparent" points="233.5,-910 80.5,-910 80.5,-861 233.5,-861 233.5,-910"/>
<text text-anchor="start" x="86" y="-897.5" font-family="Helvetica,sans-Serif" font-size="10.00">SwitchBlock::SwitchBranches</text>
<text text-anchor="start" x="155.5" y="-882.5" font-family="Helvetica,sans-Serif" font-size="10.00"> </text>
<text text-anchor="start" x="155.5" y="-867.5" font-family="Helvetica,sans-Serif" font-size="10.00"> </text>
<polygon fill="#666666" stroke="#666666" points="81,-892.5 81,-892.5 234,-892.5 234,-892.5 81,-892.5"/>
<polygon fill="#666666" stroke="#666666" points="81,-877.5 81,-877.5 234,-877.5 234,-877.5 81,-877.5"/>
<polygon fill="none" stroke="#666666" points="80.5,-861 80.5,-910 233.5,-910 233.5,-861 80.5,-861"/>
</a>
</g>
</g>
<!-- Node2&#45;&gt;Node6 -->
<g id="edge6_Node000006_Node000002" class="edge">
<title>Node2&#45;&gt;Node6</title>
<g id="a_edge6_Node000006_Node000002"><a xlink:title=" ">
<path fill="none" stroke="#63b8ff" d="M102.16,-1008.82C115.64,-978.76 130.46,-945.7 141.29,-921.54"/>
<polygon fill="none" stroke="#63b8ff" points="141.35,-921.39 140.16,-914.28 146.26,-910.44 147.46,-917.56 141.35,-921.39"/>
</a>
</g>
<text text-anchor="middle" x="153" y="-983" font-family="Helvetica,sans-Serif" font-size="10.00" fill="grey"> +deviation</text>
<text text-anchor="middle" x="153" y="-972" font-family="Helvetica,sans-Serif" font-size="10.00" fill="grey">+normal</text>
<text text-anchor="middle" x="153" y="-961" font-family="Helvetica,sans-Serif" font-size="10.00" fill="grey">+root</text>
</g>
<!-- Node3 -->
<g id="Node000003" class="node">
<title>Node3</title>
<g id="a_Node000003"><a xlink:href="classInteractiveElement.html" target="_top" xlink:title="Classe de base abstraite pour tous les éléments interactifs ferroviaires.">
<polygon fill="white" stroke="transparent" points="133,-1354 3,-1354 3,-1200 133,-1200 133,-1354"/>
<text text-anchor="start" x="21" y="-1342" font-family="Helvetica,sans-Serif" font-size="10.00">InteractiveElement</text>
<text text-anchor="start" x="7" y="-1327" font-family="Helvetica,sans-Serif" font-size="10.00">#</text>
<text text-anchor="start" x="20" y="-1327" font-family="Helvetica,sans-Serif" font-size="10.00">m_id</text>
<text text-anchor="start" x="7" y="-1312" font-family="Helvetica,sans-Serif" font-size="10.00">+</text>
<text text-anchor="start" x="20" y="-1312" font-family="Helvetica,sans-Serif" font-size="10.00">InteractiveElement()</text>
<text text-anchor="start" x="7" y="-1297" font-family="Helvetica,sans-Serif" font-size="10.00">+</text>
<text text-anchor="start" x="20" y="-1297" font-family="Helvetica,sans-Serif" font-size="10.00">~InteractiveElement()</text>
<text text-anchor="start" x="7" y="-1282" font-family="Helvetica,sans-Serif" font-size="10.00">+</text>
<text text-anchor="start" x="20" y="-1282" font-family="Helvetica,sans-Serif" font-size="10.00">InteractiveElement()</text>
<text text-anchor="start" x="7" y="-1267" font-family="Helvetica,sans-Serif" font-size="10.00">+</text>
<text text-anchor="start" x="20" y="-1267" font-family="Helvetica,sans-Serif" font-size="10.00">operator=()</text>
<text text-anchor="start" x="7" y="-1252" font-family="Helvetica,sans-Serif" font-size="10.00">+</text>
<text text-anchor="start" x="20" y="-1252" font-family="Helvetica,sans-Serif" font-size="10.00">InteractiveElement()</text>
<text text-anchor="start" x="7" y="-1237" font-family="Helvetica,sans-Serif" font-size="10.00">+</text>
<text text-anchor="start" x="20" y="-1237" font-family="Helvetica,sans-Serif" font-size="10.00">operator=()</text>
<text text-anchor="start" x="7" y="-1222" font-family="Helvetica,sans-Serif" font-size="10.00">+</text>
<text text-anchor="start" x="20" y="-1222" font-family="Helvetica,sans-Serif" font-size="10.00">getId()</text>
<text text-anchor="start" x="7" y="-1207" font-family="Helvetica,sans-Serif" font-size="10.00">+</text>
<text text-anchor="start" x="20" y="-1207" font-family="Helvetica,sans-Serif" font-size="10.00">getType()</text>
<polygon fill="#666666" stroke="#666666" points="3,-1337 3,-1337 133,-1337 133,-1337 3,-1337"/>
<polygon fill="#666666" stroke="#666666" points="3,-1322 3,-1322 18,-1322 18,-1322 3,-1322"/>
<polygon fill="#666666" stroke="#666666" points="18,-1322 18,-1322 133,-1322 133,-1322 18,-1322"/>
<polygon fill="none" stroke="#666666" points="3,-1200 3,-1354 133,-1354 133,-1200 3,-1200"/>
</a>
</g>
</g>
<!-- Node3&#45;&gt;Node2 -->
<g id="edge2_Node000002_Node000003" class="edge">
<title>Node3&#45;&gt;Node2</title>
<g id="a_edge2_Node000002_Node000003"><a xlink:title=" ">
<path fill="none" stroke="#63b8ff" d="M68,-1189.94C68,-1181.02 68,-1172.01 68,-1163.21"/>
<polygon fill="none" stroke="#63b8ff" points="64.5,-1189.94 68,-1199.94 71.5,-1189.94 64.5,-1189.94"/>
</a>
</g>
</g>
<!-- Node4 -->
<g id="Node000004" class="node">
<title>Node4</title>
<g id="a_Node000004"><a xlink:href="classLogger.html" target="_top" xlink:title="Journaliseur associé à un moteur nommé.">
<polygon fill="white" stroke="transparent" points="136,-1690 0,-1690 0,-1401 136,-1401 136,-1690"/>
<text text-anchor="start" x="51" y="-1677.5" font-family="Helvetica,sans-Serif" font-size="10.00">Logger</text>
<text text-anchor="start" x="6.5" y="-1662.5" font-family="Helvetica,sans-Serif" font-size="10.00">&#45;</text>
<text text-anchor="start" x="17" y="-1662.5" font-family="Helvetica,sans-Serif" font-size="10.00">m_motorName</text>
<text text-anchor="start" x="6.5" y="-1647.5" font-family="Helvetica,sans-Serif" font-size="10.00">&#45;</text>
<text text-anchor="start" x="17" y="-1647.5" font-family="Helvetica,sans-Serif" font-size="10.00">m_outputFile</text>
<text text-anchor="start" x="6.5" y="-1632.5" font-family="Helvetica,sans-Serif" font-size="10.00">&#45;</text>
<text text-anchor="start" x="17" y="-1632.5" font-family="Helvetica,sans-Serif" font-size="10.00">m_writeMutex</text>
<text text-anchor="start" x="6.5" y="-1617.5" font-family="Helvetica,sans-Serif" font-size="10.00">&#45;</text>
<text text-anchor="start" x="17" y="-1617.5" font-family="Helvetica,sans-Serif" font-size="10.00">m_minimumLevel</text>
<text text-anchor="start" x="4" y="-1602.5" font-family="Helvetica,sans-Serif" font-size="10.00">+</text>
<text text-anchor="start" x="17" y="-1602.5" font-family="Helvetica,sans-Serif" font-size="10.00">Logger()</text>
<text text-anchor="start" x="4" y="-1587.5" font-family="Helvetica,sans-Serif" font-size="10.00">+</text>
<text text-anchor="start" x="17" y="-1587.5" font-family="Helvetica,sans-Serif" font-size="10.00">~Logger()</text>
<text text-anchor="start" x="4" y="-1572.5" font-family="Helvetica,sans-Serif" font-size="10.00">+</text>
<text text-anchor="start" x="17" y="-1572.5" font-family="Helvetica,sans-Serif" font-size="10.00">Logger()</text>
<text text-anchor="start" x="4" y="-1557.5" font-family="Helvetica,sans-Serif" font-size="10.00">+</text>
<text text-anchor="start" x="17" y="-1557.5" font-family="Helvetica,sans-Serif" font-size="10.00">operator=()</text>
<text text-anchor="start" x="4" y="-1542.5" font-family="Helvetica,sans-Serif" font-size="10.00">+</text>
<text text-anchor="start" x="17" y="-1542.5" font-family="Helvetica,sans-Serif" font-size="10.00">writeLog()</text>
<text text-anchor="start" x="4" y="-1527.5" font-family="Helvetica,sans-Serif" font-size="10.00">+</text>
<text text-anchor="start" x="17" y="-1527.5" font-family="Helvetica,sans-Serif" font-size="10.00">setMinimumLogLevel()</text>
<text text-anchor="start" x="4" y="-1512.5" font-family="Helvetica,sans-Serif" font-size="10.00">+</text>
<text text-anchor="start" x="17" y="-1512.5" font-family="Helvetica,sans-Serif" font-size="10.00">getMotorName()</text>
<text text-anchor="start" x="4" y="-1497.5" font-family="Helvetica,sans-Serif" font-size="10.00">+</text>
<text text-anchor="start" x="17" y="-1497.5" font-family="Helvetica,sans-Serif" font-size="10.00">triggerFatalCrash()</text>
<text text-anchor="start" x="6.5" y="-1482.5" font-family="Helvetica,sans-Serif" font-size="10.00">&#45;</text>
<text text-anchor="start" x="17" y="-1482.5" font-family="Helvetica,sans-Serif" font-size="10.00">extractClassName()</text>
<text text-anchor="start" x="6.5" y="-1467.5" font-family="Helvetica,sans-Serif" font-size="10.00">&#45;</text>
<text text-anchor="start" x="17" y="-1467.5" font-family="Helvetica,sans-Serif" font-size="10.00">extractFunctionName()</text>
<text text-anchor="start" x="6.5" y="-1452.5" font-family="Helvetica,sans-Serif" font-size="10.00">&#45;</text>
<text text-anchor="start" x="17" y="-1452.5" font-family="Helvetica,sans-Serif" font-size="10.00">formatLogLine()</text>
<text text-anchor="start" x="6.5" y="-1437.5" font-family="Helvetica,sans-Serif" font-size="10.00">&#45;</text>
<text text-anchor="start" x="17" y="-1437.5" font-family="Helvetica,sans-Serif" font-size="10.00">levelToString()</text>
<text text-anchor="start" x="6.5" y="-1422.5" font-family="Helvetica,sans-Serif" font-size="10.00">&#45;</text>
<text text-anchor="start" x="17" y="-1422.5" font-family="Helvetica,sans-Serif" font-size="10.00">getCurrentTimestamp()</text>
<text text-anchor="start" x="6.5" y="-1407.5" font-family="Helvetica,sans-Serif" font-size="10.00">&#45;</text>
<text text-anchor="start" x="17" y="-1407.5" font-family="Helvetica,sans-Serif" font-size="10.00">sendToDebugOutput()</text>
<polygon fill="#666666" stroke="#666666" points="0,-1672.5 0,-1672.5 136,-1672.5 136,-1672.5 0,-1672.5"/>
<polygon fill="#666666" stroke="#666666" points="0,-1612.5 0,-1612.5 15,-1612.5 15,-1612.5 0,-1612.5"/>
<polygon fill="#666666" stroke="#666666" points="15,-1612.5 15,-1612.5 136,-1612.5 136,-1612.5 15,-1612.5"/>
<polygon fill="none" stroke="#666666" points="0,-1401 0,-1690 136,-1690 136,-1401 0,-1401"/>
</a>
</g>
</g>
<!-- Node4&#45;&gt;Node3 -->
<g id="edge3_Node000003_Node000004" class="edge">
<title>Node4&#45;&gt;Node3</title>
<g id="a_edge3_Node000003_Node000004"><a xlink:title=" ">
<path fill="none" stroke="#63b8ff" d="M68,-1400.72C68,-1389.11 68,-1377.61 68,-1366.57"/>
<polygon fill="none" stroke="#63b8ff" points="68,-1366.32 64,-1360.32 68,-1354.32 72,-1360.32 68,-1366.32"/>
</a>
</g>
<text text-anchor="middle" x="97" y="-1375" font-family="Helvetica,sans-Serif" font-size="10.00" fill="grey"> #m_logger</text>
</g>
<!-- Node5 -->
<g id="Node000005" class="node">
<title>Node5</title>
<g id="a_Node000005"><a xlink:href="classLatLon.html" target="_top" xlink:title="Coordonnée géographique WGS&#45;84 exprimée en degrés décimaux.">
<polygon fill="white" stroke="transparent" points="338.5,-940 251.5,-940 251.5,-831 338.5,-831 338.5,-940"/>
<text text-anchor="start" x="279" y="-927.5" font-family="Helvetica,sans-Serif" font-size="10.00">LatLon</text>
<text text-anchor="start" x="256" y="-912.5" font-family="Helvetica,sans-Serif" font-size="10.00">+</text>
<text text-anchor="start" x="269" y="-912.5" font-family="Helvetica,sans-Serif" font-size="10.00">latitude</text>
<text text-anchor="start" x="256" y="-897.5" font-family="Helvetica,sans-Serif" font-size="10.00">+</text>
<text text-anchor="start" x="269" y="-897.5" font-family="Helvetica,sans-Serif" font-size="10.00">longitude</text>
<text text-anchor="start" x="256" y="-882.5" font-family="Helvetica,sans-Serif" font-size="10.00">+</text>
<text text-anchor="start" x="269" y="-882.5" font-family="Helvetica,sans-Serif" font-size="10.00">LatLon()</text>
<text text-anchor="start" x="256" y="-867.5" font-family="Helvetica,sans-Serif" font-size="10.00">+</text>
<text text-anchor="start" x="269" y="-867.5" font-family="Helvetica,sans-Serif" font-size="10.00">LatLon()</text>
<text text-anchor="start" x="256" y="-852.5" font-family="Helvetica,sans-Serif" font-size="10.00">+</text>
<text text-anchor="start" x="269" y="-852.5" font-family="Helvetica,sans-Serif" font-size="10.00">operator==()</text>
<text text-anchor="start" x="256" y="-837.5" font-family="Helvetica,sans-Serif" font-size="10.00">+</text>
<text text-anchor="start" x="269" y="-837.5" font-family="Helvetica,sans-Serif" font-size="10.00">operator!=()</text>
<polygon fill="#666666" stroke="#666666" points="252,-922.5 252,-922.5 339,-922.5 339,-922.5 252,-922.5"/>
<polygon fill="#666666" stroke="#666666" points="252,-892.5 252,-892.5 267,-892.5 267,-892.5 252,-892.5"/>
<polygon fill="#666666" stroke="#666666" points="267,-892.5 267,-892.5 339,-892.5 339,-892.5 267,-892.5"/>
<polygon fill="none" stroke="#666666" points="251.5,-831 251.5,-940 338.5,-940 338.5,-831 251.5,-831"/>
</a>
</g>
</g>
<!-- Node5&#45;&gt;Node1 -->
<g id="edge4_Node000001_Node000005" class="edge">
<title>Node5&#45;&gt;Node1</title>
<g id="a_edge4_Node000001_Node000005"><a xlink:title=" ">
<path fill="none" stroke="#63b8ff" d="M279.97,-830.97C271.18,-799.66 259.28,-757.28 246.33,-711.17"/>
<polygon fill="none" stroke="#63b8ff" points="246.27,-710.93 240.79,-706.23 243.02,-699.38 248.5,-704.07 246.27,-710.93"/>
</a>
</g>
<text text-anchor="middle" x="328.5" y="-805" font-family="Helvetica,sans-Serif" font-size="10.00" fill="grey"> &#45;m_junctionCoordinate</text>
</g>
<!-- Node6&#45;&gt;Node1 -->
<g id="edge5_Node000001_Node000006" class="edge">
<title>Node6&#45;&gt;Node1</title>
<g id="a_edge5_Node000001_Node000006"><a xlink:title=" ">
<path fill="none" stroke="#63b8ff" d="M157,-860.79C157,-845.22 157,-822.81 157,-796.13"/>
<polygon fill="none" stroke="#63b8ff" points="157,-796.01 153,-790.01 157,-784.01 161,-790.01 157,-796.01"/>
</a>
</g>
<text text-anchor="middle" x="190.5" y="-805" font-family="Helvetica,sans-Serif" font-size="10.00" fill="grey"> &#45;m_branches</text>
</g>
</g>
</svg>
