<?xml version="1.0" encoding="UTF-8" standalone="no"?>
<!DOCTYPE svg PUBLIC "-//W3C//DTD SVG 1.1//EN"
 "http://www.w3.org/Graphics/SVG/1.1/DTD/svg11.dtd">
<!-- Generated by graphviz version 2.43.0 (0)
 -->
<!-- Title: GeometryUtils::metricUtmToWgs84 Pages: 1 -->
<svg width="2107pt" height="175pt"
 viewBox="0.00 0.00 2107.00 175.00" xmlns="http://www.w3.org/2000/svg" xmlns:xlink="http://www.w3.org/1999/xlink">
<g id="graph0" class="graph" transform="scale(1 1) rotate(0) translate(4 171)">
<title>GeometryUtils::metricUtmToWgs84</title>
<!-- Node1 -->
<g id="Node000001" class="node">
<title>Node1</title>
<g id="a_Node000001"><a xlink:title="Convertit une coordonnée métrique UTM en WGS&#45;84.">
<polygon fill="#999999" stroke="#666666" points="2099,-78 1953,-78 1953,-48 2099,-48 2099,-78"/>
<text text-anchor="start" x="1961" y="-66" font-family="Helvetica,sans-Serif" font-size="10.00">GeometryUtils::metricUtm</text>
<text text-anchor="middle" x="2026" y="-55" font-family="Helvetica,sans-Serif" font-size="10.00">ToWgs84</text>
</a>
</g>
</g>
<!-- Node2 -->
<g id="Node000002" class="node">
<title>Node2</title>
<g id="a_Node000002"><a xlink:href="classGeometryUtils.html#aba6963b2f6022f04e51fb716a11e3895" target="_top" xlink:title="Convertit une polyligne métrique UTM en WGS&#45;84.">
<polygon fill="white" stroke="#666666" points="1917,-126 1747,-126 1747,-96 1917,-96 1917,-126"/>
<text text-anchor="start" x="1755" y="-114" font-family="Helvetica,sans-Serif" font-size="10.00">GeometryUtils::convertPolyline</text>
<text text-anchor="middle" x="1832" y="-103" font-family="Helvetica,sans-Serif" font-size="10.00">ToWgs84</text>
</a>
</g>
</g>
<!-- Node1&#45;&gt;Node2 -->
<g id="edge1_Node000001_Node000002" class="edge">
<title>Node1&#45;&gt;Node2</title>
<g id="a_edge1_Node000001_Node000002"><a xlink:title=" ">
<path fill="none" stroke="#63b8ff" d="M1954.96,-80.51C1934.64,-85.59 1912.65,-91.09 1893.01,-96"/>
<polygon fill="#63b8ff" stroke="#63b8ff" points="1955.92,-83.88 1964.78,-78.06 1954.23,-77.09 1955.92,-83.88"/>
</a>
</g>
</g>
<!-- Node14 -->
<g id="Node000014" class="node">
<title>Node14</title>
<g id="a_Node000014"><a xlink:href="classTopologyExtractor.html#abfb30b40b7194303e6c828d802dd1175" target="_top" xlink:title=" ">
<polygon fill="white" stroke="#666666" points="1887,-78 1777,-78 1777,-48 1887,-48 1887,-78"/>
<text text-anchor="start" x="1785" y="-66" font-family="Helvetica,sans-Serif" font-size="10.00">TopologyExtractor::</text>
<text text-anchor="middle" x="1832" y="-55" font-family="Helvetica,sans-Serif" font-size="10.00">detectSwitches</text>
</a>
</g>
</g>
<!-- Node1&#45;&gt;Node14 -->
<g id="edge14_Node000001_Node000014" class="edge">
<title>Node1&#45;&gt;Node14</title>
<g id="a_edge14_Node000001_Node000014"><a xlink:title=" ">
<path fill="none" stroke="#63b8ff" d="M1942.89,-63C1924.04,-63 1904.46,-63 1887.14,-63"/>
<polygon fill="#63b8ff" stroke="#63b8ff" points="1942.96,-66.5 1952.96,-63 1942.96,-59.5 1942.96,-66.5"/>
</a>
</g>
</g>
<!-- Node15 -->
<g id="Node000015" class="node">
<title>Node15</title>
<g id="a_Node000015"><a xlink:href="classSwitchOrientator.html#af602429b8a3a2d38e92515cfd2d76ecd" target="_top" xlink:title="Interpole un point tip à distanceMeters depuis la jonction le long d&#39;un Straight.">
<polygon fill="white" stroke="#666666" points="1911,-30 1753,-30 1753,0 1911,0 1911,-30"/>
<text text-anchor="start" x="1761" y="-18" font-family="Helvetica,sans-Serif" font-size="10.00">SwitchOrientator::interpolate</text>
<text text-anchor="middle" x="1832" y="-7" font-family="Helvetica,sans-Serif" font-size="10.00">TipPoint</text>
</a>
</g>
</g>
<!-- Node1&#45;&gt;Node15 -->
<g id="edge16_Node000001_Node000015" class="edge">
<title>Node1&#45;&gt;Node15</title>
<g id="a_edge16_Node000001_Node000015"><a xlink:title=" ">
<path fill="none" stroke="#63b8ff" d="M1954.96,-45.49C1934.64,-40.41 1912.65,-34.91 1893.01,-30"/>
<polygon fill="#63b8ff" stroke="#63b8ff" points="1954.23,-48.91 1964.78,-47.94 1955.92,-42.12 1954.23,-48.91"/>
</a>
</g>
</g>
<!-- Node3 -->
<g id="Node000003" class="node">
<title>Node3</title>
<g id="a_Node000003"><a xlink:href="classTopologyExtractor.html#a8003022ac7f09c074969ec22d3305429" target="_top" xlink:title=" ">
<polygon fill="white" stroke="#666666" points="1692.5,-167 1582.5,-167 1582.5,-137 1692.5,-137 1692.5,-167"/>
<text text-anchor="start" x="1590.5" y="-155" font-family="Helvetica,sans-Serif" font-size="10.00">TopologyExtractor::</text>
<text text-anchor="middle" x="1637.5" y="-144" font-family="Helvetica,sans-Serif" font-size="10.00">extractStraights</text>
</a>
</g>
</g>
<!-- Node2&#45;&gt;Node3 -->
<g id="edge2_Node000002_Node000003" class="edge">
<title>Node2&#45;&gt;Node3</title>
<g id="a_edge2_Node000002_Node000003"><a xlink:title=" ">
<path fill="none" stroke="#63b8ff" d="M1750.63,-128.12C1731.14,-132.27 1710.75,-136.61 1692.79,-140.44"/>
<polygon fill="#63b8ff" stroke="#63b8ff" points="1751.36,-131.54 1760.41,-126.03 1749.9,-124.69 1751.36,-131.54"/>
</a>
</g>
</g>
<!-- Node13 -->
<g id="Node000013" class="node">
<title>Node13</title>
<g id="a_Node000013"><a xlink:href="classTopologyExtractor.html#ad1d5361674a11a78d2ea58a6024fb140" target="_top" xlink:title=" ">
<polygon fill="white" stroke="#666666" points="1692.5,-119 1582.5,-119 1582.5,-89 1692.5,-89 1692.5,-119"/>
<text text-anchor="start" x="1590.5" y="-107" font-family="Helvetica,sans-Serif" font-size="10.00">TopologyExtractor::</text>
<text text-anchor="middle" x="1637.5" y="-96" font-family="Helvetica,sans-Serif" font-size="10.00">splitLongStraights</text>
</a>
</g>
</g>
<!-- Node2&#45;&gt;Node13 -->
<g id="edge12_Node000002_Node000013" class="edge">
<title>Node2&#45;&gt;Node13</title>
<g id="a_edge12_Node000002_Node000013"><a xlink:title=" ">
<path fill="none" stroke="#63b8ff" d="M1736.44,-107.56C1721.38,-107.01 1706.26,-106.46 1692.56,-105.97"/>
<polygon fill="#63b8ff" stroke="#63b8ff" points="1736.73,-111.07 1746.85,-107.94 1736.98,-104.08 1736.73,-111.07"/>
</a>
</g>
</g>
<!-- Node4 -->
<g id="Node000004" class="node">
<title>Node4</title>
<g id="a_Node000004"><a xlink:href="classTopologyExtractor.html#a356459ec218bf270f643460da781bd0d" target="_top" xlink:title="Exécute les phases 3, 4, 5a et 5b et retourne le résultat.">
<polygon fill="white" stroke="#666666" points="1516.5,-107 1406.5,-107 1406.5,-77 1516.5,-77 1516.5,-107"/>
<text text-anchor="start" x="1414.5" y="-95" font-family="Helvetica,sans-Serif" font-size="10.00">TopologyExtractor::</text>
<text text-anchor="middle" x="1461.5" y="-84" font-family="Helvetica,sans-Serif" font-size="10.00">extract</text>
</a>
</g>
</g>
<!-- Node3&#45;&gt;Node4 -->
<g id="edge3_Node000003_Node000004" class="edge">
<title>Node3&#45;&gt;Node4</title>
<g id="a_edge3_Node000003_Node000004"><a xlink:title=" ">
<path fill="none" stroke="#63b8ff" d="M1580.87,-133.72C1575.17,-131.8 1569.46,-129.87 1564,-128 1544.37,-121.27 1522.68,-113.61 1504.41,-107.09"/>
<polygon fill="#63b8ff" stroke="#63b8ff" points="1579.83,-137.06 1590.43,-136.91 1582.05,-130.42 1579.83,-137.06"/>
</a>
</g>
</g>
<!-- Node5 -->
<g id="Node000005" class="node">
<title>Node5</title>
<g id="a_Node000005"><a xlink:href="classGeoParser.html#aa4acc69a49444b9aa06b2c028b2c1133" target="_top" xlink:title="Lance le pipeline complet.">
<polygon fill="white" stroke="#666666" points="1359,-68.5 1260,-68.5 1260,-49.5 1359,-49.5 1359,-68.5"/>
<text text-anchor="middle" x="1309.5" y="-56.5" font-family="Helvetica,sans-Serif" font-size="10.00">GeoParser::parse</text>
</a>
</g>
</g>
<!-- Node4&#45;&gt;Node5 -->
<g id="edge4_Node000004_Node000005" class="edge">
<title>Node4&#45;&gt;Node5</title>
<g id="a_edge4_Node000004_Node000005"><a xlink:title=" ">
<path fill="none" stroke="#63b8ff" d="M1396.48,-77.92C1382.06,-74.74 1367.09,-71.45 1353.76,-68.52"/>
<polygon fill="#63b8ff" stroke="#63b8ff" points="1395.83,-81.36 1406.35,-80.09 1397.33,-74.52 1395.83,-81.36"/>
</a>
</g>
</g>
<!-- Node6 -->
<g id="Node000006" class="node">
<title>Node6</title>
<g id="a_Node000006"><a xlink:href="classGeoParsingTask.html#affe9d461e96e029708ced380b63da972" target="_top" xlink:title="Lance le parsing GeoJSON dans un thread séparé et détaché.">
<polygon fill="white" stroke="#666666" points="1224,-68.5 1093,-68.5 1093,-49.5 1224,-49.5 1224,-68.5"/>
<text text-anchor="middle" x="1158.5" y="-56.5" font-family="Helvetica,sans-Serif" font-size="10.00">GeoParsingTask::launch</text>
</a>
</g>
</g>
<!-- Node5&#45;&gt;Node6 -->
<g id="edge5_Node000005_Node000006" class="edge">
<title>Node5&#45;&gt;Node6</title>
<g id="a_edge5_Node000005_Node000006"><a xlink:title=" ">
<path fill="none" stroke="#63b8ff" d="M1249.65,-59C1241.27,-59 1232.6,-59 1224.12,-59"/>
<polygon fill="#63b8ff" stroke="#63b8ff" points="1249.71,-62.5 1259.71,-59 1249.71,-55.5 1249.71,-62.5"/>
</a>
</g>
</g>
<!-- Node7 -->
<g id="Node000007" class="node">
<title>Node7</title>
<g id="a_Node000007"><a xlink:href="classMainWindow.html#a889cc45fb741e12015f4af9f01acaa96" target="_top" xlink:title="Ouvre le sélecteur de fichier et lance le parsing asynchrone.">
<polygon fill="white" stroke="#666666" points="1057,-68.5 917,-68.5 917,-49.5 1057,-49.5 1057,-68.5"/>
<text text-anchor="middle" x="987" y="-56.5" font-family="Helvetica,sans-Serif" font-size="10.00">MainWindow::onFileOpen</text>
</a>
</g>
</g>
<!-- Node6&#45;&gt;Node7 -->
<g id="edge6_Node000006_Node000007" class="edge">
<title>Node6&#45;&gt;Node7</title>
<g id="a_edge6_Node000006_Node000007"><a xlink:title=" ">
<path fill="none" stroke="#63b8ff" d="M1082.68,-59C1074.2,-59 1065.59,-59 1057.18,-59"/>
<polygon fill="#63b8ff" stroke="#63b8ff" points="1082.94,-62.5 1092.94,-59 1082.94,-55.5 1082.94,-62.5"/>
</a>
</g>
</g>
<!-- Node8 -->
<g id="Node000008" class="node">
<title>Node8</title>
<g id="a_Node000008"><a xlink:href="classMainWindow.html#afbecf0f64f48c5c868168884bab52356" target="_top" xlink:title="Gère les commandes menu (WM_COMMAND).">
<polygon fill="white" stroke="#666666" points="881,-68.5 734,-68.5 734,-49.5 881,-49.5 881,-68.5"/>
<text text-anchor="middle" x="807.5" y="-56.5" font-family="Helvetica,sans-Serif" font-size="10.00">MainWindow::onCommand</text>
</a>
</g>
</g>
<!-- Node7&#45;&gt;Node8 -->
<g id="edge7_Node000007_Node000008" class="edge">
<title>Node7&#45;&gt;Node8</title>
<g id="a_edge7_Node000007_Node000008"><a xlink:title=" ">
<path fill="none" stroke="#63b8ff" d="M906.64,-59C898.19,-59 889.62,-59 881.26,-59"/>
<polygon fill="#63b8ff" stroke="#63b8ff" points="906.87,-62.5 916.87,-59 906.87,-55.5 906.87,-62.5"/>
</a>
</g>
</g>
<!-- Node9 -->
<g id="Node000009" class="node">
<title>Node9</title>
<g id="a_Node000009"><a xlink:href="classMainWindow.html#ab85682874f3ab5dfa81f782f889d8556" target="_top" xlink:title="Dispatcher principal des messages de la fenêtre.">
<polygon fill="white" stroke="#666666" points="698,-68.5 537,-68.5 537,-49.5 698,-49.5 698,-68.5"/>
<text text-anchor="middle" x="617.5" y="-56.5" font-family="Helvetica,sans-Serif" font-size="10.00">MainWindow::handleMessage</text>
</a>
</g>
</g>
<!-- Node8&#45;&gt;Node9 -->
<g id="edge8_Node000008_Node000009" class="edge">
<title>Node8&#45;&gt;Node9</title>
<g id="a_edge8_Node000008_Node000009"><a xlink:title=" ">
<path fill="none" stroke="#63b8ff" d="M723.59,-59C715.15,-59 706.58,-59 698.17,-59"/>
<polygon fill="#63b8ff" stroke="#63b8ff" points="723.81,-62.5 733.81,-59 723.81,-55.5 723.81,-62.5"/>
</a>
</g>
</g>
<!-- Node10 -->
<g id="Node000010" class="node">
<title>Node10</title>
<g id="a_Node000010"><a xlink:href="classMainWindow.html#a332648d0a0caec8070b05bc27bb9a14b" target="_top" xlink:title="Procédure de fenêtre statique, point d&#39;entrée imposé par Win32.">
<polygon fill="white" stroke="#666666" points="501,-68.5 358,-68.5 358,-49.5 501,-49.5 501,-68.5"/>
<text text-anchor="middle" x="429.5" y="-56.5" font-family="Helvetica,sans-Serif" font-size="10.00">MainWindow::windowProc</text>
</a>
</g>
</g>
<!-- Node9&#45;&gt;Node10 -->
<g id="edge9_Node000009_Node000010" class="edge">
<title>Node9&#45;&gt;Node10</title>
<g id="a_edge9_Node000009_Node000010"><a xlink:title=" ">
<path fill="none" stroke="#63b8ff" d="M526.77,-59C518.2,-59 509.58,-59 501.22,-59"/>
<polygon fill="#63b8ff" stroke="#63b8ff" points="526.81,-62.5 536.81,-59 526.81,-55.5 526.81,-62.5"/>
</a>
</g>
</g>
<!-- Node11 -->
<g id="Node000011" class="node">
<title>Node11</title>
<g id="a_Node000011"><a xlink:href="classApplication.html#a0bda40de108938fd29374335bf4eac71" target="_top" xlink:title="Enregistre la classe de fenêtre Win32 (WNDCLASSEXW).">
<polygon fill="white" stroke="#666666" points="322,-74 168,-74 168,-44 322,-44 322,-74"/>
<text text-anchor="start" x="176" y="-62" font-family="Helvetica,sans-Serif" font-size="10.00">Application::registerWindow</text>
<text text-anchor="middle" x="245" y="-51" font-family="Helvetica,sans-Serif" font-size="10.00">Class</text>
</a>
</g>
</g>
<!-- Node10&#45;&gt;Node11 -->
<g id="edge10_Node000010_Node000011" class="edge">
<title>Node10&#45;&gt;Node11</title>
<g id="a_edge10_Node000010_Node000011"><a xlink:title=" ">
<path fill="none" stroke="#63b8ff" d="M347.66,-59C339.17,-59 330.56,-59 322.12,-59"/>
<polygon fill="#63b8ff" stroke="#63b8ff" points="347.94,-62.5 357.94,-59 347.94,-55.5 347.94,-62.5"/>
</a>
</g>
</g>
<!-- Node12 -->
<g id="Node000012" class="node">
<title>Node12</title>
<g id="a_Node000012"><a xlink:href="classApplication.html#a719cf091afd2276d52f9a58e4962ebfb" target="_top" xlink:title="Construit l&#39;application et enregistre la classe de fenêtre.">
<polygon fill="white" stroke="#666666" points="132,-68.5 0,-68.5 0,-49.5 132,-49.5 132,-68.5"/>
<text text-anchor="middle" x="66" y="-56.5" font-family="Helvetica,sans-Serif" font-size="10.00">Application::Application</text>
</a>
</g>
</g>
<!-- Node11&#45;&gt;Node12 -->
<g id="edge11_Node000011_Node000012" class="edge">
<title>Node11&#45;&gt;Node12</title>
<g id="a_edge11_Node000011_Node000012"><a xlink:title=" ">
<path fill="none" stroke="#63b8ff" d="M157.82,-59C149.19,-59 140.53,-59 132.18,-59"/>
<polygon fill="#63b8ff" stroke="#63b8ff" points="157.91,-62.5 167.91,-59 157.91,-55.5 157.91,-62.5"/>
</a>
</g>
</g>
<!-- Node13&#45;&gt;Node4 -->
<g id="edge13_Node000013_Node000004" class="edge">
<title>Node13&#45;&gt;Node4</title>
<g id="a_edge13_Node000013_Node000004"><a xlink:title=" ">
<path fill="none" stroke="#63b8ff" d="M1572.38,-99.58C1554.04,-98.31 1534.24,-96.95 1516.57,-95.73"/>
<polygon fill="#63b8ff" stroke="#63b8ff" points="1572.18,-103.07 1582.4,-100.27 1572.66,-96.09 1572.18,-103.07"/>
</a>
</g>
</g>
<!-- Node14&#45;&gt;Node4 -->
<g id="edge15_Node000014_Node000004" class="edge">
<title>Node14&#45;&gt;Node4</title>
<g id="a_edge15_Node000014_Node000004"><a xlink:title=" ">
<path fill="none" stroke="#63b8ff" d="M1766.84,-66.11C1712.71,-68.97 1633.2,-73.71 1564,-80 1548.63,-81.4 1531.98,-83.23 1516.7,-85.04"/>
<polygon fill="#63b8ff" stroke="#63b8ff" points="1767.18,-69.6 1776.98,-65.58 1766.81,-62.61 1767.18,-69.6"/>
</a>
</g>
</g>
<!-- Node16 -->
<g id="Node000016" class="node">
<title>Node16</title>
<g id="a_Node000016"><a xlink:href="classSwitchOrientator.html#a8132fa3495845481fdb68a3ec695af15" target="_top" xlink:title="Calcule et assigne les points tip CDC sur un SwitchBlock orienté.">
<polygon fill="white" stroke="#666666" points="1711,-32 1564,-32 1564,-2 1711,-2 1711,-32"/>
<text text-anchor="start" x="1572" y="-20" font-family="Helvetica,sans-Serif" font-size="10.00">SwitchOrientator::compute</text>
<text text-anchor="middle" x="1637.5" y="-9" font-family="Helvetica,sans-Serif" font-size="10.00">BranchTipPoints</text>
</a>
</g>
</g>
<!-- Node15&#45;&gt;Node16 -->
<g id="edge17_Node000015_Node000016" class="edge">
<title>Node15&#45;&gt;Node16</title>
<g id="a_edge17_Node000015_Node000016"><a xlink:title=" ">
<path fill="none" stroke="#63b8ff" d="M1742.83,-15.92C1732.19,-16.03 1721.42,-16.14 1711.03,-16.25"/>
<polygon fill="#63b8ff" stroke="#63b8ff" points="1743.02,-19.41 1752.98,-15.81 1742.94,-12.41 1743.02,-19.41"/>
</a>
</g>
</g>
<!-- Node17 -->
<g id="Node000017" class="node">
<title>Node17</title>
<g id="a_Node000017"><a xlink:href="classSwitchOrientator.html#a5af1a097baad421ce01bd013be602df7" target="_top" xlink:title="Exécute les phases 6, 6b et 6c en place sur topoResult.switches.">
<polygon fill="white" stroke="#666666" points="1528,-47.5 1395,-47.5 1395,-28.5 1528,-28.5 1528,-47.5"/>
<text text-anchor="middle" x="1461.5" y="-35.5" font-family="Helvetica,sans-Serif" font-size="10.00">SwitchOrientator::orient</text>
</a>
</g>
</g>
<!-- Node16&#45;&gt;Node17 -->
<g id="edge18_Node000016_Node000017" class="edge">
<title>Node16&#45;&gt;Node17</title>
<g id="a_edge18_Node000016_Node000017"><a xlink:title=" ">
<path fill="none" stroke="#63b8ff" d="M1553.91,-26.97C1545.3,-28.01 1536.63,-29.05 1528.25,-30.06"/>
<polygon fill="#63b8ff" stroke="#63b8ff" points="1554.46,-30.43 1563.97,-25.75 1553.62,-23.48 1554.46,-30.43"/>
</a>
</g>
</g>
<!-- Node17&#45;&gt;Node5 -->
<g id="edge19_Node000017_Node000005" class="edge">
<title>Node17&#45;&gt;Node5</title>
<g id="a_edge19_Node000017_Node000005"><a xlink:title=" ">
<path fill="none" stroke="#63b8ff" d="M1384.56,-48.63C1375.91,-49.84 1367.27,-51.05 1359.1,-52.2"/>
<polygon fill="#63b8ff" stroke="#63b8ff" points="1385.29,-52.06 1394.71,-47.21 1384.32,-45.13 1385.29,-52.06"/>
</a>
</g>
</g>
</g>
</svg>
