<?xml version="1.0" encoding="UTF-8" standalone="no"?>
<!DOCTYPE svg PUBLIC "-//W3C//DTD SVG 1.1//EN"
 "http://www.w3.org/Graphics/SVG/1.1/DTD/svg11.dtd">
<!-- Generated by graphviz version 2.43.0 (0)
 -->
<!-- Title: SwitchBlock::getRootBranchId Pages: 1 -->
<svg width="1967pt" height="182pt"
 viewBox="0.00 0.00 1967.00 182.00" xmlns="http://www.w3.org/2000/svg" xmlns:xlink="http://www.w3.org/1999/xlink">
<g id="graph0" class="graph" transform="scale(1 1) rotate(0) translate(4 178)">
<title>SwitchBlock::getRootBranchId</title>
<!-- Node1 -->
<g id="Node000001" class="node">
<title>Node1</title>
<g id="a_Node000001"><a xlink:title=" ">
<polygon fill="#999999" stroke="#666666" points="1959,-96.5 1796,-96.5 1796,-77.5 1959,-77.5 1959,-96.5"/>
<text text-anchor="middle" x="1877.5" y="-84.5" font-family="Helvetica,sans-Serif" font-size="10.00">SwitchBlock::getRootBranchId</text>
</a>
</g>
</g>
<!-- Node2 -->
<g id="Node000002" class="node">
<title>Node2</title>
<g id="a_Node000002"><a xlink:href="classSwitchOrientator.html#a2786825e04cc0836549bb23a2b6242b4" target="_top" xlink:title="Échange normal↔deviation sur l&#39;aiguillage non&#45;référence si les rôles diffèrent.">
<polygon fill="white" stroke="#666666" points="1760,-174 1597,-174 1597,-144 1760,-144 1760,-174"/>
<text text-anchor="start" x="1605" y="-162" font-family="Helvetica,sans-Serif" font-size="10.00">SwitchOrientator::alignDouble</text>
<text text-anchor="middle" x="1678.5" y="-151" font-family="Helvetica,sans-Serif" font-size="10.00">SwitchRoles</text>
</a>
</g>
</g>
<!-- Node1&#45;&gt;Node2 -->
<g id="edge1_Node000001_Node000002" class="edge">
<title>Node1&#45;&gt;Node2</title>
<g id="a_edge1_Node000001_Node000002"><a xlink:title=" ">
<path fill="none" stroke="#63b8ff" d="M1845.92,-100.59C1822.61,-110.71 1789.59,-124.52 1760,-135 1751.34,-138.07 1742.07,-141.08 1733.01,-143.87"/>
<polygon fill="#63b8ff" stroke="#63b8ff" points="1847.52,-103.71 1855.28,-96.5 1844.71,-97.3 1847.52,-103.71"/>
</a>
</g>
</g>
<!-- Node12 -->
<g id="Node000012" class="node">
<title>Node12</title>
<g id="a_Node000012"><a xlink:href="classSwitchOrientator.html#a8132fa3495845481fdb68a3ec695af15" target="_top" xlink:title="Calcule et assigne les points tip CDC sur un SwitchBlock orienté.">
<polygon fill="white" stroke="#666666" points="1752,-126 1605,-126 1605,-96 1752,-96 1752,-126"/>
<text text-anchor="start" x="1613" y="-114" font-family="Helvetica,sans-Serif" font-size="10.00">SwitchOrientator::compute</text>
<text text-anchor="middle" x="1678.5" y="-103" font-family="Helvetica,sans-Serif" font-size="10.00">BranchTipPoints</text>
</a>
</g>
</g>
<!-- Node1&#45;&gt;Node12 -->
<g id="edge11_Node000001_Node000012" class="edge">
<title>Node1&#45;&gt;Node12</title>
<g id="a_edge11_Node000001_Node000012"><a xlink:title=" ">
<path fill="none" stroke="#63b8ff" d="M1788.27,-97.75C1776.17,-99.22 1763.87,-100.72 1752.1,-102.16"/>
<polygon fill="#63b8ff" stroke="#63b8ff" points="1788.85,-101.2 1798.36,-96.52 1788.01,-94.26 1788.85,-101.2"/>
</a>
</g>
</g>
<!-- Node13 -->
<g id="Node000013" class="node">
<title>Node13</title>
<g id="a_Node000013"><a xlink:href="classTopologyRenderer.html#ab35534539fde31c290ce7e531fce86fe" target="_top" xlink:title="Convertit un SwitchBlock en feature GeoJSON de type Point.">
<polygon fill="white" stroke="#666666" points="1752,-30 1605,-30 1605,0 1752,0 1752,-30"/>
<text text-anchor="start" x="1613" y="-18" font-family="Helvetica,sans-Serif" font-size="10.00">TopologyRenderer::convert</text>
<text text-anchor="middle" x="1678.5" y="-7" font-family="Helvetica,sans-Serif" font-size="10.00">SwitchToFeature</text>
</a>
</g>
</g>
<!-- Node1&#45;&gt;Node13 -->
<g id="edge13_Node000001_Node000013" class="edge">
<title>Node1&#45;&gt;Node13</title>
<g id="a_edge13_Node000001_Node000013"><a xlink:title=" ">
<path fill="none" stroke="#63b8ff" d="M1845.92,-73.41C1822.61,-63.29 1789.59,-49.48 1760,-39 1751.34,-35.93 1742.07,-32.92 1733.01,-30.13"/>
<polygon fill="#63b8ff" stroke="#63b8ff" points="1844.71,-76.7 1855.28,-77.5 1847.52,-70.29 1844.71,-76.7"/>
</a>
</g>
</g>
<!-- Node17 -->
<g id="Node000017" class="node">
<title>Node17</title>
<g id="a_Node000017"><a xlink:href="classSwitchOrientator.html#acdcd6a442cb52bed611a302b1358c8bb" target="_top" xlink:title="Force la branche partagée au rôle DEVIATION sur les deux aiguillages formant un croisement mécanique ...">
<polygon fill="white" stroke="#666666" points="1749,-78 1608,-78 1608,-48 1749,-48 1749,-78"/>
<text text-anchor="start" x="1616" y="-66" font-family="Helvetica,sans-Serif" font-size="10.00">SwitchOrientator::enforce</text>
<text text-anchor="middle" x="1678.5" y="-55" font-family="Helvetica,sans-Serif" font-size="10.00">CrossoverConsistency</text>
</a>
</g>
</g>
<!-- Node1&#45;&gt;Node17 -->
<g id="edge18_Node000001_Node000017" class="edge">
<title>Node1&#45;&gt;Node17</title>
<g id="a_edge18_Node000001_Node000017"><a xlink:title=" ">
<path fill="none" stroke="#63b8ff" d="M1788.39,-76.27C1775.28,-74.67 1761.92,-73.04 1749.25,-71.5"/>
<polygon fill="#63b8ff" stroke="#63b8ff" points="1788.01,-79.74 1798.36,-77.48 1788.85,-72.8 1788.01,-79.74"/>
</a>
</g>
</g>
<!-- Node3 -->
<g id="Node000003" class="node">
<title>Node3</title>
<g id="a_Node000003"><a xlink:href="classSwitchOrientator.html#a5af1a097baad421ce01bd013be602df7" target="_top" xlink:title="Exécute les phases 6, 6b, 6c et 6d en place sur topoResult.">
<polygon fill="white" stroke="#666666" points="1552,-118.5 1419,-118.5 1419,-99.5 1552,-99.5 1552,-118.5"/>
<text text-anchor="middle" x="1485.5" y="-106.5" font-family="Helvetica,sans-Serif" font-size="10.00">SwitchOrientator::orient</text>
</a>
</g>
</g>
<!-- Node2&#45;&gt;Node3 -->
<g id="edge2_Node000002_Node000003" class="edge">
<title>Node2&#45;&gt;Node3</title>
<g id="a_edge2_Node000002_Node000003"><a xlink:title=" ">
<path fill="none" stroke="#63b8ff" d="M1610.4,-141.43C1581.01,-133.74 1547.68,-125.02 1522.99,-118.55"/>
<polygon fill="#63b8ff" stroke="#63b8ff" points="1609.63,-144.85 1620.19,-144 1611.41,-138.08 1609.63,-144.85"/>
</a>
</g>
</g>
<!-- Node4 -->
<g id="Node000004" class="node">
<title>Node4</title>
<g id="a_Node000004"><a xlink:href="classGeoParser.html#aa4acc69a49444b9aa06b2c028b2c1133" target="_top" xlink:title="Lance le pipeline complet.">
<polygon fill="white" stroke="#666666" points="1374,-117.5 1275,-117.5 1275,-98.5 1374,-98.5 1374,-117.5"/>
<text text-anchor="middle" x="1324.5" y="-105.5" font-family="Helvetica,sans-Serif" font-size="10.00">GeoParser::parse</text>
</a>
</g>
</g>
<!-- Node3&#45;&gt;Node4 -->
<g id="edge3_Node000003_Node000004" class="edge">
<title>Node3&#45;&gt;Node4</title>
<g id="a_edge3_Node000003_Node000004"><a xlink:title=" ">
<path fill="none" stroke="#63b8ff" d="M1408.72,-108.52C1397.05,-108.45 1385.29,-108.38 1374.42,-108.31"/>
<polygon fill="#63b8ff" stroke="#63b8ff" points="1408.89,-112.02 1418.91,-108.59 1408.93,-105.02 1408.89,-112.02"/>
</a>
</g>
</g>
<!-- Node5 -->
<g id="Node000005" class="node">
<title>Node5</title>
<g id="a_Node000005"><a xlink:href="classGeoParsingTask.html#affe9d461e96e029708ced380b63da972" target="_top" xlink:title="Lance le parsing GeoJSON dans un thread séparé et détaché.">
<polygon fill="white" stroke="#666666" points="1231.5,-117.5 1100.5,-117.5 1100.5,-98.5 1231.5,-98.5 1231.5,-117.5"/>
<text text-anchor="middle" x="1166" y="-105.5" font-family="Helvetica,sans-Serif" font-size="10.00">GeoParsingTask::launch</text>
</a>
</g>
</g>
<!-- Node4&#45;&gt;Node5 -->
<g id="edge4_Node000004_Node000005" class="edge">
<title>Node4&#45;&gt;Node5</title>
<g id="a_edge4_Node000004_Node000005"><a xlink:title=" ">
<path fill="none" stroke="#63b8ff" d="M1264.71,-108C1253.95,-108 1242.67,-108 1231.74,-108"/>
<polygon fill="#63b8ff" stroke="#63b8ff" points="1264.84,-111.5 1274.84,-108 1264.84,-104.5 1264.84,-111.5"/>
</a>
</g>
</g>
<!-- Node6 -->
<g id="Node000006" class="node">
<title>Node6</title>
<g id="a_Node000006"><a xlink:href="classMainWindow.html#a889cc45fb741e12015f4af9f01acaa96" target="_top" xlink:title="Ouvre le sélecteur de fichier et lance le parsing asynchrone.">
<polygon fill="white" stroke="#666666" points="1057,-117.5 917,-117.5 917,-98.5 1057,-98.5 1057,-117.5"/>
<text text-anchor="middle" x="987" y="-105.5" font-family="Helvetica,sans-Serif" font-size="10.00">MainWindow::onFileOpen</text>
</a>
</g>
</g>
<!-- Node5&#45;&gt;Node6 -->
<g id="edge5_Node000005_Node000006" class="edge">
<title>Node5&#45;&gt;Node6</title>
<g id="a_edge5_Node000005_Node000006"><a xlink:title=" ">
<path fill="none" stroke="#63b8ff" d="M1090.03,-108C1079.15,-108 1068,-108 1057.25,-108"/>
<polygon fill="#63b8ff" stroke="#63b8ff" points="1090.35,-111.5 1100.35,-108 1090.35,-104.5 1090.35,-111.5"/>
</a>
</g>
</g>
<!-- Node7 -->
<g id="Node000007" class="node">
<title>Node7</title>
<g id="a_Node000007"><a xlink:href="classMainWindow.html#afbecf0f64f48c5c868168884bab52356" target="_top" xlink:title="Gère les commandes menu (WM_COMMAND).">
<polygon fill="white" stroke="#666666" points="881,-98.5 734,-98.5 734,-79.5 881,-79.5 881,-98.5"/>
<text text-anchor="middle" x="807.5" y="-86.5" font-family="Helvetica,sans-Serif" font-size="10.00">MainWindow::onCommand</text>
</a>
</g>
</g>
<!-- Node6&#45;&gt;Node7 -->
<g id="edge6_Node000006_Node000007" class="edge">
<title>Node6&#45;&gt;Node7</title>
<g id="a_edge6_Node000006_Node000007"><a xlink:title=" ">
<path fill="none" stroke="#63b8ff" d="M906.92,-99.53C898.38,-98.62 889.72,-97.69 881.26,-96.79"/>
<polygon fill="#63b8ff" stroke="#63b8ff" points="906.55,-103.02 916.87,-100.6 907.29,-96.06 906.55,-103.02"/>
</a>
</g>
</g>
<!-- Node8 -->
<g id="Node000008" class="node">
<title>Node8</title>
<g id="a_Node000008"><a xlink:href="classMainWindow.html#ab85682874f3ab5dfa81f782f889d8556" target="_top" xlink:title="Dispatcher principal des messages de la fenêtre.">
<polygon fill="white" stroke="#666666" points="698,-98.5 537,-98.5 537,-79.5 698,-79.5 698,-98.5"/>
<text text-anchor="middle" x="617.5" y="-86.5" font-family="Helvetica,sans-Serif" font-size="10.00">MainWindow::handleMessage</text>
</a>
</g>
</g>
<!-- Node7&#45;&gt;Node8 -->
<g id="edge7_Node000007_Node000008" class="edge">
<title>Node7&#45;&gt;Node8</title>
<g id="a_edge7_Node000007_Node000008"><a xlink:title=" ">
<path fill="none" stroke="#63b8ff" d="M723.59,-89C715.15,-89 706.58,-89 698.17,-89"/>
<polygon fill="#63b8ff" stroke="#63b8ff" points="723.81,-92.5 733.81,-89 723.81,-85.5 723.81,-92.5"/>
</a>
</g>
</g>
<!-- Node9 -->
<g id="Node000009" class="node">
<title>Node9</title>
<g id="a_Node000009"><a xlink:href="classMainWindow.html#a332648d0a0caec8070b05bc27bb9a14b" target="_top" xlink:title="Procédure de fenêtre statique, point d&#39;entrée imposé par Win32.">
<polygon fill="white" stroke="#666666" points="501,-98.5 358,-98.5 358,-79.5 501,-79.5 501,-98.5"/>
<text text-anchor="middle" x="429.5" y="-86.5" font-family="Helvetica,sans-Serif" font-size="10.00">MainWindow::windowProc</text>
</a>
</g>
</g>
<!-- Node8&#45;&gt;Node9 -->
<g id="edge8_Node000008_Node000009" class="edge">
<title>Node8&#45;&gt;Node9</title>
<g id="a_edge8_Node000008_Node000009"><a xlink:title=" ">
<path fill="none" stroke="#63b8ff" d="M526.77,-89C518.2,-89 509.58,-89 501.22,-89"/>
<polygon fill="#63b8ff" stroke="#63b8ff" points="526.81,-92.5 536.81,-89 526.81,-85.5 526.81,-92.5"/>
</a>
</g>
</g>
<!-- Node10 -->
<g id="Node000010" class="node">
<title>Node10</title>
<g id="a_Node000010"><a xlink:href="classApplication.html#a0bda40de108938fd29374335bf4eac71" target="_top" xlink:title="Enregistre la classe de fenêtre Win32 (WNDCLASSEXW).">
<polygon fill="white" stroke="#666666" points="322,-104 168,-104 168,-74 322,-74 322,-104"/>
<text text-anchor="start" x="176" y="-92" font-family="Helvetica,sans-Serif" font-size="10.00">Application::registerWindow</text>
<text text-anchor="middle" x="245" y="-81" font-family="Helvetica,sans-Serif" font-size="10.00">Class</text>
</a>
</g>
</g>
<!-- Node9&#45;&gt;Node10 -->
<g id="edge9_Node000009_Node000010" class="edge">
<title>Node9&#45;&gt;Node10</title>
<g id="a_edge9_Node000009_Node000010"><a xlink:title=" ">
<path fill="none" stroke="#63b8ff" d="M347.66,-89C339.17,-89 330.56,-89 322.12,-89"/>
<polygon fill="#63b8ff" stroke="#63b8ff" points="347.94,-92.5 357.94,-89 347.94,-85.5 347.94,-92.5"/>
</a>
</g>
</g>
<!-- Node11 -->
<g id="Node000011" class="node">
<title>Node11</title>
<g id="a_Node000011"><a xlink:href="classApplication.html#a719cf091afd2276d52f9a58e4962ebfb" target="_top" xlink:title="Construit l&#39;application et enregistre la classe de fenêtre.">
<polygon fill="white" stroke="#666666" points="132,-98.5 0,-98.5 0,-79.5 132,-79.5 132,-98.5"/>
<text text-anchor="middle" x="66" y="-86.5" font-family="Helvetica,sans-Serif" font-size="10.00">Application::Application</text>
</a>
</g>
</g>
<!-- Node10&#45;&gt;Node11 -->
<g id="edge10_Node000010_Node000011" class="edge">
<title>Node10&#45;&gt;Node11</title>
<g id="a_edge10_Node000010_Node000011"><a xlink:title=" ">
<path fill="none" stroke="#63b8ff" d="M157.82,-89C149.19,-89 140.53,-89 132.18,-89"/>
<polygon fill="#63b8ff" stroke="#63b8ff" points="157.91,-92.5 167.91,-89 157.91,-85.5 157.91,-92.5"/>
</a>
</g>
</g>
<!-- Node12&#45;&gt;Node3 -->
<g id="edge12_Node000012_Node000003" class="edge">
<title>Node12&#45;&gt;Node3</title>
<g id="a_edge12_Node000012_Node000003"><a xlink:title=" ">
<path fill="none" stroke="#63b8ff" d="M1594.51,-110.13C1580.34,-109.98 1565.8,-109.83 1552.16,-109.69"/>
<polygon fill="#63b8ff" stroke="#63b8ff" points="1594.71,-113.63 1604.75,-110.24 1594.78,-106.63 1594.71,-113.63"/>
</a>
</g>
</g>
<!-- Node14 -->
<g id="Node000014" class="node">
<title>Node14</title>
<g id="a_Node000014"><a xlink:href="classTopologyRenderer.html#a5691412733606ec4139cac02585bd718" target="_top" xlink:title="Exporte la topologie ferroviaire dans un fichier GeoJSON.">
<polygon fill="white" stroke="#666666" points="1556.5,-80 1414.5,-80 1414.5,-50 1556.5,-50 1556.5,-80"/>
<text text-anchor="start" x="1422.5" y="-68" font-family="Helvetica,sans-Serif" font-size="10.00">TopologyRenderer::export</text>
<text text-anchor="middle" x="1485.5" y="-57" font-family="Helvetica,sans-Serif" font-size="10.00">ToFile</text>
</a>
</g>
</g>
<!-- Node13&#45;&gt;Node14 -->
<g id="edge14_Node000013_Node000014" class="edge">
<title>Node13&#45;&gt;Node14</title>
<g id="a_edge14_Node000013_Node000014"><a xlink:title=" ">
<path fill="none" stroke="#63b8ff" d="M1610.42,-32.56C1588.78,-38.23 1564.99,-44.45 1544.1,-49.92"/>
<polygon fill="#63b8ff" stroke="#63b8ff" points="1611.41,-35.92 1620.19,-30 1609.63,-29.15 1611.41,-35.92"/>
</a>
</g>
</g>
<!-- Node16 -->
<g id="Node000016" class="node">
<title>Node16</title>
<g id="a_Node000016"><a xlink:href="classTopologyRenderer.html#a53552ac3e53137c8510496ae2de4a4d8" target="_top" xlink:title="Génère le script JavaScript d&#39;injection GeoJSON dans le WebView.">
<polygon fill="white" stroke="#666666" points="1561,-30 1410,-30 1410,0 1561,0 1561,-30"/>
<text text-anchor="start" x="1418" y="-18" font-family="Helvetica,sans-Serif" font-size="10.00">TopologyRenderer::loadGeo</text>
<text text-anchor="middle" x="1485.5" y="-7" font-family="Helvetica,sans-Serif" font-size="10.00">JsonToWebView</text>
</a>
</g>
</g>
<!-- Node13&#45;&gt;Node16 -->
<g id="edge17_Node000013_Node000016" class="edge">
<title>Node13&#45;&gt;Node16</title>
<g id="a_edge17_Node000013_Node000016"><a xlink:title=" ">
<path fill="none" stroke="#63b8ff" d="M1594.64,-15C1583.54,-15 1572.22,-15 1561.27,-15"/>
<polygon fill="#63b8ff" stroke="#63b8ff" points="1594.75,-18.5 1604.75,-15 1594.75,-11.5 1594.75,-18.5"/>
</a>
</g>
</g>
<!-- Node15 -->
<g id="Node000015" class="node">
<title>Node15</title>
<g id="a_Node000015"><a xlink:href="classMainWindow.html#a4429f521642e48894e0efce5b41bd0ae" target="_top" xlink:title="Ouvre le dialogue d&#39;exportation et déclenche l&#39;export GeoJSON.">
<polygon fill="white" stroke="#666666" points="1239,-78.5 1093,-78.5 1093,-59.5 1239,-59.5 1239,-78.5"/>
<text text-anchor="middle" x="1166" y="-66.5" font-family="Helvetica,sans-Serif" font-size="10.00">MainWindow::onFileExport</text>
</a>
</g>
</g>
<!-- Node14&#45;&gt;Node15 -->
<g id="edge15_Node000014_Node000015" class="edge">
<title>Node14&#45;&gt;Node15</title>
<g id="a_edge15_Node000014_Node000015"><a xlink:title=" ">
<path fill="none" stroke="#63b8ff" d="M1404.14,-66.01C1353.34,-66.65 1288.23,-67.47 1239.09,-68.09"/>
<polygon fill="#63b8ff" stroke="#63b8ff" points="1404.48,-69.51 1414.43,-65.88 1404.39,-62.51 1404.48,-69.51"/>
</a>
</g>
</g>
<!-- Node15&#45;&gt;Node7 -->
<g id="edge16_Node000015_Node000007" class="edge">
<title>Node15&#45;&gt;Node7</title>
<g id="a_edge16_Node000015_Node000007"><a xlink:title=" ">
<path fill="none" stroke="#63b8ff" d="M1082.51,-73.63C1021.63,-77.04 939.56,-81.65 881.15,-84.92"/>
<polygon fill="#63b8ff" stroke="#63b8ff" points="1083.07,-77.1 1092.86,-73.05 1082.68,-70.11 1083.07,-77.1"/>
</a>
</g>
</g>
<!-- Node17&#45;&gt;Node3 -->
<g id="edge19_Node000017_Node000003" class="edge">
<title>Node17&#45;&gt;Node3</title>
<g id="a_edge19_Node000017_Node000003"><a xlink:title=" ">
<path fill="none" stroke="#63b8ff" d="M1605.2,-80.41C1578.36,-86.88 1548.91,-93.97 1526.06,-99.47"/>
<polygon fill="#63b8ff" stroke="#63b8ff" points="1606.06,-83.81 1614.96,-78.06 1604.42,-77 1606.06,-83.81"/>
</a>
</g>
</g>
</g>
</svg>
