<?xml version="1.0" encoding="UTF-8" standalone="no"?>
<!DOCTYPE svg PUBLIC "-//W3C//DTD SVG 1.1//EN"
 "http://www.w3.org/Graphics/SVG/1.1/DTD/svg11.dtd">
<!-- Generated by graphviz version 2.43.0 (0)
 -->
<!-- Title: RailwayParserException Pages: 1 -->
<svg width="556pt" height="227pt"
 viewBox="0.00 0.00 556.00 227.00" xmlns="http://www.w3.org/2000/svg" xmlns:xlink="http://www.w3.org/1999/xlink">
<g id="graph0" class="graph" transform="scale(1 1) rotate(0) translate(4 223)">
<title>RailwayParserException</title>
<!-- Node1 -->
<g id="Node000001" class="node">
<title>Node1</title>
<g id="a_Node000001"><a xlink:title="Classe de base pour toutes les erreurs du parseur ferroviaire.">
<polygon fill="#999999" stroke="transparent" points="362,-134 216,-134 216,-85 362,-85 362,-134"/>
<text text-anchor="start" x="230" y="-121.5" font-family="Helvetica,sans-Serif" font-size="10.00">RailwayParserException</text>
<text text-anchor="start" x="287" y="-106.5" font-family="Helvetica,sans-Serif" font-size="10.00"> </text>
<text text-anchor="start" x="220" y="-91.5" font-family="Helvetica,sans-Serif" font-size="10.00">+</text>
<text text-anchor="start" x="233" y="-91.5" font-family="Helvetica,sans-Serif" font-size="10.00">RailwayParserException()</text>
<polygon fill="#666666" stroke="#666666" points="216,-116.5 216,-116.5 362,-116.5 362,-116.5 216,-116.5"/>
<polygon fill="#666666" stroke="#666666" points="216,-101.5 216,-101.5 362,-101.5 362,-101.5 216,-101.5"/>
<polygon fill="none" stroke="#666666" points="216,-85 216,-134 362,-134 362,-85 216,-85"/>
</a>
</g>
</g>
<!-- Node3 -->
<g id="Node000003" class="node">
<title>Node3</title>
<g id="a_Node000003"><a xlink:href="classInvalidGeoJsonFormatException.html" target="_top" xlink:title="Levée quand le fichier GeoJSON est malformé ou ne contient aucune géométrie LineString exploitable.">
<polygon fill="white" stroke="transparent" points="184,-49 0,-49 0,0 184,0 184,-49"/>
<text text-anchor="start" x="14" y="-36.5" font-family="Helvetica,sans-Serif" font-size="10.00">InvalidGeoJsonFormatException</text>
<text text-anchor="start" x="90" y="-21.5" font-family="Helvetica,sans-Serif" font-size="10.00"> </text>
<text text-anchor="start" x="4" y="-6.5" font-family="Helvetica,sans-Serif" font-size="10.00">+</text>
<text text-anchor="start" x="17" y="-6.5" font-family="Helvetica,sans-Serif" font-size="10.00">InvalidGeoJsonFormatException()</text>
<polygon fill="#666666" stroke="#666666" points="0,-31.5 0,-31.5 184,-31.5 184,-31.5 0,-31.5"/>
<polygon fill="#666666" stroke="#666666" points="0,-16.5 0,-16.5 184,-16.5 184,-16.5 0,-16.5"/>
<polygon fill="none" stroke="#666666" points="0,0 0,-49 184,-49 184,0 0,0"/>
</a>
</g>
</g>
<!-- Node1&#45;&gt;Node3 -->
<g id="edge2_Node000001_Node000003" class="edge">
<title>Node1&#45;&gt;Node3</title>
<g id="a_edge2_Node000001_Node000003"><a xlink:title=" ">
<path fill="none" stroke="#63b8ff" d="M223.85,-81.05C199.33,-70.72 171.68,-59.07 148.07,-49.12"/>
<polygon fill="none" stroke="#63b8ff" points="222.5,-84.28 233.07,-84.94 225.22,-77.83 222.5,-84.28"/>
</a>
</g>
</g>
<!-- Node4 -->
<g id="Node000004" class="node">
<title>Node4</title>
<g id="a_Node000004"><a xlink:href="classInvalidSwitchConfigException.html" target="_top" xlink:title="Levée quand un aiguillage viole une contrainte géométrique du CDC.">
<polygon fill="white" stroke="transparent" points="375.5,-49 202.5,-49 202.5,0 375.5,0 375.5,-49"/>
<text text-anchor="start" x="217" y="-36.5" font-family="Helvetica,sans-Serif" font-size="10.00">InvalidSwitchConfigException</text>
<text text-anchor="start" x="287.5" y="-21.5" font-family="Helvetica,sans-Serif" font-size="10.00"> </text>
<text text-anchor="start" x="207" y="-6.5" font-family="Helvetica,sans-Serif" font-size="10.00">+</text>
<text text-anchor="start" x="220" y="-6.5" font-family="Helvetica,sans-Serif" font-size="10.00">InvalidSwitchConfigException()</text>
<polygon fill="#666666" stroke="#666666" points="203,-31.5 203,-31.5 376,-31.5 376,-31.5 203,-31.5"/>
<polygon fill="#666666" stroke="#666666" points="203,-16.5 203,-16.5 376,-16.5 376,-16.5 203,-16.5"/>
<polygon fill="none" stroke="#666666" points="202.5,0 202.5,-49 375.5,-49 375.5,0 202.5,0"/>
</a>
</g>
</g>
<!-- Node1&#45;&gt;Node4 -->
<g id="edge3_Node000001_Node000004" class="edge">
<title>Node1&#45;&gt;Node4</title>
<g id="a_edge3_Node000001_Node000004"><a xlink:title=" ">
<path fill="none" stroke="#63b8ff" d="M289,-74.77C289,-66.17 289,-57.1 289,-49.12"/>
<polygon fill="none" stroke="#63b8ff" points="285.5,-74.94 289,-84.94 292.5,-74.94 285.5,-74.94"/>
</a>
</g>
</g>
<!-- Node5 -->
<g id="Node000005" class="node">
<title>Node5</title>
<g id="a_Node000005"><a xlink:href="classInvalidTopologyException.html" target="_top" xlink:title="Levée quand la topologie du graphe parsé est structurellement incohérente.">
<polygon fill="white" stroke="transparent" points="548,-49 394,-49 394,0 548,0 548,-49"/>
<text text-anchor="start" x="408.5" y="-36.5" font-family="Helvetica,sans-Serif" font-size="10.00">InvalidTopologyException</text>
<text text-anchor="start" x="469" y="-21.5" font-family="Helvetica,sans-Serif" font-size="10.00"> </text>
<text text-anchor="start" x="398" y="-6.5" font-family="Helvetica,sans-Serif" font-size="10.00">+</text>
<text text-anchor="start" x="411" y="-6.5" font-family="Helvetica,sans-Serif" font-size="10.00">InvalidTopologyException()</text>
<polygon fill="#666666" stroke="#666666" points="394,-31.5 394,-31.5 548,-31.5 548,-31.5 394,-31.5"/>
<polygon fill="#666666" stroke="#666666" points="394,-16.5 394,-16.5 548,-16.5 548,-16.5 394,-16.5"/>
<polygon fill="none" stroke="#666666" points="394,0 394,-49 548,-49 548,0 394,0"/>
</a>
</g>
</g>
<!-- Node1&#45;&gt;Node5 -->
<g id="edge4_Node000001_Node000005" class="edge">
<title>Node1&#45;&gt;Node5</title>
<g id="a_edge4_Node000001_Node000005"><a xlink:title=" ">
<path fill="none" stroke="#63b8ff" d="M349.79,-80.78C372.29,-70.51 397.58,-58.98 419.2,-49.12"/>
<polygon fill="none" stroke="#63b8ff" points="348.31,-77.6 340.67,-84.94 351.22,-83.97 348.31,-77.6"/>
</a>
</g>
</g>
<!-- Node2 -->
<g id="Node000002" class="node">
<title>Node2</title>
<g id="a_Node000002"><a xlink:title=" ">
<polygon fill="white" stroke="transparent" points="338,-219 240,-219 240,-170 338,-170 338,-219"/>
<text text-anchor="start" x="245" y="-206.5" font-family="Helvetica,sans-Serif" font-size="10.00">std::runtime_error</text>
<text text-anchor="start" x="287" y="-191.5" font-family="Helvetica,sans-Serif" font-size="10.00"> </text>
<text text-anchor="start" x="287" y="-176.5" font-family="Helvetica,sans-Serif" font-size="10.00"> </text>
<polygon fill="#666666" stroke="#666666" points="240,-201.5 240,-201.5 338,-201.5 338,-201.5 240,-201.5"/>
<polygon fill="#666666" stroke="#666666" points="240,-186.5 240,-186.5 338,-186.5 338,-186.5 240,-186.5"/>
<polygon fill="none" stroke="#666666" points="240,-170 240,-219 338,-219 338,-170 240,-170"/>
</a>
</g>
</g>
<!-- Node2&#45;&gt;Node1 -->
<g id="edge1_Node000001_Node000002" class="edge">
<title>Node2&#45;&gt;Node1</title>
<g id="a_edge1_Node000001_Node000002"><a xlink:title=" ">
<path fill="none" stroke="#63b8ff" d="M289,-159.77C289,-151.17 289,-142.1 289,-134.12"/>
<polygon fill="none" stroke="#63b8ff" points="285.5,-159.94 289,-169.94 292.5,-159.94 285.5,-159.94"/>
</a>
</g>
</g>
</g>
</svg>
