<?xml version="1.0" encoding="UTF-8" standalone="no"?>
<!DOCTYPE svg PUBLIC "-//W3C//DTD SVG 1.1//EN"
 "http://www.w3.org/Graphics/SVG/1.1/DTD/svg11.dtd">
<!-- Generated by graphviz version 2.43.0 (0)
 -->
<!-- Title: WebViewPanel::create Pages: 1 -->
<svg width="464pt" height="38pt"
 viewBox="0.00 0.00 464.00 38.00" xmlns="http://www.w3.org/2000/svg" xmlns:xlink="http://www.w3.org/1999/xlink">
<g id="graph0" class="graph" transform="scale(1 1) rotate(0) translate(4 34)">
<title>WebViewPanel::create</title>
<!-- Node1 -->
<g id="Node000001" class="node">
<title>Node1</title>
<g id="a_Node000001"><a xlink:title="Initialise WebView2 dans une fenêtre Win32 existante.">
<polygon fill="#999999" stroke="#666666" points="125,-24.5 0,-24.5 0,-5.5 125,-5.5 125,-24.5"/>
<text text-anchor="middle" x="62.5" y="-12.5" font-family="Helvetica,sans-Serif" font-size="10.00">WebViewPanel::create</text>
</a>
</g>
</g>
<!-- Node2 -->
<g id="Node000002" class="node">
<title>Node2</title>
<g id="a_Node000002"><a xlink:href="classWebViewPanel.html#a886fd07f1d23eec535d0b57215c6ce50" target="_top" xlink:title="Initialise le runtime WebView2 et crée le controller et le webview.">
<polygon fill="white" stroke="#666666" points="297,-30 161,-30 161,0 297,0 297,-30"/>
<text text-anchor="start" x="169" y="-18" font-family="Helvetica,sans-Serif" font-size="10.00">WebViewPanel::initialize</text>
<text text-anchor="middle" x="229" y="-7" font-family="Helvetica,sans-Serif" font-size="10.00">WebView</text>
</a>
</g>
</g>
<!-- Node1&#45;&gt;Node2 -->
<g id="edge1_Node000001_Node000002" class="edge">
<title>Node1&#45;&gt;Node2</title>
<g id="a_edge1_Node000001_Node000002"><a xlink:title=" ">
<path fill="none" stroke="#63b8ff" d="M125.22,-15C133.61,-15 142.3,-15 150.92,-15"/>
<polygon fill="#63b8ff" stroke="#63b8ff" points="150.97,-18.5 160.97,-15 150.97,-11.5 150.97,-18.5"/>
</a>
</g>
</g>
<!-- Node3 -->
<g id="Node000003" class="node">
<title>Node3</title>
<g id="a_Node000003"><a xlink:href="classWebViewPanel.html#a7a3796392183cbf2538ccb72f87c839a" target="_top" xlink:title="Redimensionne le WebView pour s&#39;adapter à la fenêtre.">
<polygon fill="white" stroke="#666666" points="456,-24.5 333,-24.5 333,-5.5 456,-5.5 456,-24.5"/>
<text text-anchor="middle" x="394.5" y="-12.5" font-family="Helvetica,sans-Serif" font-size="10.00">WebViewPanel::resize</text>
</a>
</g>
</g>
<!-- Node2&#45;&gt;Node3 -->
<g id="edge2_Node000002_Node000003" class="edge">
<title>Node2&#45;&gt;Node3</title>
<g id="a_edge2_Node000002_Node000003"><a xlink:title=" ">
<path fill="none" stroke="#63b8ff" d="M297.45,-15C305.76,-15 314.28,-15 322.65,-15"/>
<polygon fill="#63b8ff" stroke="#63b8ff" points="322.75,-18.5 332.75,-15 322.75,-11.5 322.75,-18.5"/>
</a>
</g>
</g>
</g>
</svg>
