<?xml version="1.0" encoding="UTF-8" standalone="no"?>
<!DOCTYPE svg PUBLIC "-//W3C//DTD SVG 1.1//EN"
 "http://www.w3.org/Graphics/SVG/1.1/DTD/svg11.dtd">
<!-- Generated by graphviz version 2.43.0 (0)
 -->
<!-- Title: TopologyExtractor::walkPathUntilBoundary Pages: 1 -->
<svg width="558pt" height="134pt"
 viewBox="0.00 0.00 558.00 134.00" xmlns="http://www.w3.org/2000/svg" xmlns:xlink="http://www.w3.org/1999/xlink">
<g id="graph0" class="graph" transform="scale(1 1) rotate(0) translate(4 130)">
<title>TopologyExtractor::walkPathUntilBoundary</title>
<!-- Node1 -->
<g id="Node000001" class="node">
<title>Node1</title>
<g id="a_Node000001"><a xlink:title="Marche le graphe depuis startNodeId le long de incomingEdgeId jusqu&#39;au prochain nœud frontière.">
<polygon fill="#999999" stroke="#666666" points="131,-78 0,-78 0,-48 131,-48 131,-78"/>
<text text-anchor="start" x="8" y="-66" font-family="Helvetica,sans-Serif" font-size="10.00">TopologyExtractor::</text>
<text text-anchor="middle" x="65.5" y="-55" font-family="Helvetica,sans-Serif" font-size="10.00">walkPathUntilBoundary</text>
</a>
</g>
</g>
<!-- Node2 -->
<g id="Node000002" class="node">
<title>Node2</title>
<g id="a_Node000002"><a xlink:href="classTopologyGraph.html#a07cb1a1808c40751d01dd7d43d335024" target="_top" xlink:title="Retourne l&#39;arête sortante en atNodeId la plus colinéaire à incomingEdgeId.">
<polygon fill="white" stroke="#666666" points="348,-126 167,-126 167,-96 348,-96 348,-126"/>
<text text-anchor="start" x="175" y="-114" font-family="Helvetica,sans-Serif" font-size="10.00">TopologyGraph::findMostCollinear</text>
<text text-anchor="middle" x="257.5" y="-103" font-family="Helvetica,sans-Serif" font-size="10.00">Continuation</text>
</a>
</g>
</g>
<!-- Node1&#45;&gt;Node2 -->
<g id="edge1_Node000001_Node000002" class="edge">
<title>Node1&#45;&gt;Node2</title>
<g id="a_edge1_Node000001_Node000002"><a xlink:title=" ">
<path fill="none" stroke="#63b8ff" d="M126.1,-78.06C145.55,-82.97 167.31,-88.47 187.4,-93.54"/>
<polygon fill="#63b8ff" stroke="#63b8ff" points="186.56,-96.94 197.12,-96 188.28,-90.15 186.56,-96.94"/>
</a>
</g>
</g>
<!-- Node4 -->
<g id="Node000004" class="node">
<title>Node4</title>
<g id="a_Node000004"><a xlink:href="classTopologyGraph.html#a7c086df2f9774459710f88d37158b745" target="_top" xlink:title="Retourne le degré d&#39;un nœud (nombre d&#39;arêtes incidentes).">
<polygon fill="white" stroke="#666666" points="330.5,-78 184.5,-78 184.5,-48 330.5,-48 330.5,-78"/>
<text text-anchor="start" x="192.5" y="-66" font-family="Helvetica,sans-Serif" font-size="10.00">TopologyGraph::getDegree</text>
<text text-anchor="middle" x="257.5" y="-55" font-family="Helvetica,sans-Serif" font-size="10.00">OfNode</text>
</a>
</g>
</g>
<!-- Node1&#45;&gt;Node4 -->
<g id="edge3_Node000001_Node000004" class="edge">
<title>Node1&#45;&gt;Node4</title>
<g id="a_edge3_Node000001_Node000004"><a xlink:title=" ">
<path fill="none" stroke="#63b8ff" d="M131.09,-63C144.85,-63 159.57,-63 173.9,-63"/>
<polygon fill="#63b8ff" stroke="#63b8ff" points="174.25,-66.5 184.25,-63 174.25,-59.5 174.25,-66.5"/>
</a>
</g>
</g>
<!-- Node5 -->
<g id="Node000005" class="node">
<title>Node5</title>
<g id="a_Node000005"><a xlink:href="classTopologyGraph.html#aada47ec2c5b5ebc4ccf72b4b4c4f5e01" target="_top" xlink:title="Retourne l&#39;ID du nœud de l&#39;autre extrémité d&#39;une arête.">
<polygon fill="white" stroke="#666666" points="335,-30 180,-30 180,0 335,0 335,-30"/>
<text text-anchor="start" x="188" y="-18" font-family="Helvetica,sans-Serif" font-size="10.00">TopologyGraph::getOpposite</text>
<text text-anchor="middle" x="257.5" y="-7" font-family="Helvetica,sans-Serif" font-size="10.00">NodeId</text>
</a>
</g>
</g>
<!-- Node1&#45;&gt;Node5 -->
<g id="edge4_Node000001_Node000005" class="edge">
<title>Node1&#45;&gt;Node5</title>
<g id="a_edge4_Node000001_Node000005"><a xlink:title=" ">
<path fill="none" stroke="#63b8ff" d="M126.1,-47.94C145.55,-43.03 167.31,-37.53 187.4,-32.46"/>
<polygon fill="#63b8ff" stroke="#63b8ff" points="188.28,-35.85 197.12,-30 186.56,-29.06 188.28,-35.85"/>
</a>
</g>
</g>
<!-- Node3 -->
<g id="Node000003" class="node">
<title>Node3</title>
<g id="a_Node000003"><a xlink:href="classGeometryUtils.html#aa07ef087c8f85eb14e28f69875ecf41f" target="_top" xlink:title="Calcule l&#39;angle non&#45;signé (radians) entre deux vecteurs 2&#45;D.">
<polygon fill="white" stroke="#666666" points="550,-126 384,-126 384,-96 550,-96 550,-126"/>
<text text-anchor="start" x="392" y="-114" font-family="Helvetica,sans-Serif" font-size="10.00">GeometryUtils::unsignedAngle</text>
<text text-anchor="middle" x="467" y="-103" font-family="Helvetica,sans-Serif" font-size="10.00">BetweenVectors</text>
</a>
</g>
</g>
<!-- Node2&#45;&gt;Node3 -->
<g id="edge2_Node000002_Node000003" class="edge">
<title>Node2&#45;&gt;Node3</title>
<g id="a_edge2_Node000002_Node000003"><a xlink:title=" ">
<path fill="none" stroke="#63b8ff" d="M348,-111C356.6,-111 365.32,-111 373.94,-111"/>
<polygon fill="#63b8ff" stroke="#63b8ff" points="373.99,-114.5 383.99,-111 373.99,-107.5 373.99,-114.5"/>
</a>
</g>
</g>
</g>
</svg>
