<?xml version="1.0" encoding="UTF-8" standalone="no"?>
<!DOCTYPE svg PUBLIC "-//W3C//DTD SVG 1.1//EN"
 "http://www.w3.org/Graphics/SVG/1.1/DTD/svg11.dtd">
<!-- Generated by graphviz version 2.43.0 (0)
 -->
<!-- Title: GeoJsonExporter::exportToFile Pages: 1 -->
<svg width="347pt" height="200pt"
 viewBox="0.00 0.00 347.00 200.00" xmlns="http://www.w3.org/2000/svg" xmlns:xlink="http://www.w3.org/1999/xlink">
<g id="graph0" class="graph" transform="scale(1 1) rotate(0) translate(4 196)">
<title>GeoJsonExporter::exportToFile</title>
<!-- Node1 -->
<g id="Node000001" class="node">
<title>Node1</title>
<g id="a_Node000001"><a xlink:title="Exporte la topologie ferroviaire dans un fichier GeoJSON.">
<polygon fill="#999999" stroke="#666666" points="163,-114.5 0,-114.5 0,-95.5 163,-95.5 163,-114.5"/>
<text text-anchor="middle" x="81.5" y="-102.5" font-family="Helvetica,sans-Serif" font-size="10.00">GeoJsonExporter::exportToFile</text>
</a>
</g>
</g>
<!-- Node2 -->
<g id="Node000002" class="node">
<title>Node2</title>
<g id="a_Node000002"><a xlink:href="classGeoJsonExporter.html#ae40aed3745c83a9e089cade7067ec11a" target="_top" xlink:title=" ">
<polygon fill="white" stroke="#666666" points="339,-192 199,-192 199,-162 339,-162 339,-192"/>
<text text-anchor="start" x="207" y="-180" font-family="Helvetica,sans-Serif" font-size="10.00">GeoJsonExporter::convert</text>
<text text-anchor="middle" x="269" y="-169" font-family="Helvetica,sans-Serif" font-size="10.00">StraightToFeature</text>
</a>
</g>
</g>
<!-- Node1&#45;&gt;Node2 -->
<g id="edge1_Node000001_Node000002" class="edge">
<title>Node1&#45;&gt;Node2</title>
<g id="a_edge1_Node000001_Node000002"><a xlink:title=" ">
<path fill="none" stroke="#63b8ff" d="M104.69,-114.58C128.02,-124.54 165.87,-140.42 199,-153 203.77,-154.81 208.74,-156.64 213.74,-158.45"/>
<polygon fill="#63b8ff" stroke="#63b8ff" points="212.73,-161.81 223.33,-161.87 215.09,-155.21 212.73,-161.81"/>
</a>
</g>
</g>
<!-- Node3 -->
<g id="Node000003" class="node">
<title>Node3</title>
<g id="a_Node000003"><a xlink:href="classGeoJsonExporter.html#a4edb715ecc8bee30c4eb00e7dcb98e93" target="_top" xlink:title=" ">
<polygon fill="white" stroke="#666666" points="339,-144 199,-144 199,-114 339,-114 339,-144"/>
<text text-anchor="start" x="207" y="-132" font-family="Helvetica,sans-Serif" font-size="10.00">GeoJsonExporter::convert</text>
<text text-anchor="middle" x="269" y="-121" font-family="Helvetica,sans-Serif" font-size="10.00">SwitchToFeature</text>
</a>
</g>
</g>
<!-- Node1&#45;&gt;Node3 -->
<g id="edge2_Node000001_Node000003" class="edge">
<title>Node1&#45;&gt;Node3</title>
<g id="a_edge2_Node000001_Node000003"><a xlink:title=" ">
<path fill="none" stroke="#63b8ff" d="M156.08,-114.52C166.74,-115.9 177.74,-117.32 188.51,-118.72"/>
<polygon fill="#63b8ff" stroke="#63b8ff" points="188.37,-122.23 198.74,-120.04 189.27,-115.28 188.37,-122.23"/>
</a>
</g>
</g>
<!-- Node4 -->
<g id="Node000004" class="node">
<title>Node4</title>
<g id="a_Node000004"><a xlink:href="classTopologyRepository.html#a0179f504f5d22ea5b16926511a9cb027" target="_top" xlink:title="Retourne une référence mutable aux données topologiques.">
<polygon fill="white" stroke="#666666" points="325.5,-96 212.5,-96 212.5,-66 325.5,-66 325.5,-96"/>
<text text-anchor="start" x="220.5" y="-84" font-family="Helvetica,sans-Serif" font-size="10.00">TopologyRepository</text>
<text text-anchor="middle" x="269" y="-73" font-family="Helvetica,sans-Serif" font-size="10.00">::data</text>
</a>
</g>
</g>
<!-- Node1&#45;&gt;Node4 -->
<g id="edge3_Node000001_Node000004" class="edge">
<title>Node1&#45;&gt;Node4</title>
<g id="a_edge3_Node000001_Node000004"><a xlink:title=" ">
<path fill="none" stroke="#63b8ff" d="M156.08,-95.48C171.29,-93.51 187.21,-91.45 202.12,-89.52"/>
<polygon fill="#63b8ff" stroke="#63b8ff" points="202.79,-92.97 212.26,-88.21 201.89,-86.02 202.79,-92.97"/>
</a>
</g>
</g>
<!-- Node5 -->
<g id="Node000005" class="node">
<title>Node5</title>
<g id="a_Node000005"><a xlink:href="classTopologyRepository.html#adb001f817a74b4b81e05d0d22517f509" target="_top" xlink:title="Retourne l&#39;instance unique du repository (création paresseuse).">
<polygon fill="white" stroke="#666666" points="325.5,-30 212.5,-30 212.5,0 325.5,0 325.5,-30"/>
<text text-anchor="start" x="220.5" y="-18" font-family="Helvetica,sans-Serif" font-size="10.00">TopologyRepository</text>
<text text-anchor="middle" x="269" y="-7" font-family="Helvetica,sans-Serif" font-size="10.00">::instance</text>
</a>
</g>
</g>
<!-- Node1&#45;&gt;Node5 -->
<g id="edge4_Node000001_Node000005" class="edge">
<title>Node1&#45;&gt;Node5</title>
<g id="a_edge4_Node000001_Node000005"><a xlink:title=" ">
<path fill="none" stroke="#63b8ff" d="M102.35,-95.37C132.08,-80.95 188.79,-53.43 227.49,-34.65"/>
<polygon fill="#63b8ff" stroke="#63b8ff" points="229.45,-37.59 236.92,-30.08 226.39,-31.3 229.45,-37.59"/>
</a>
</g>
</g>
<!-- Node5&#45;&gt;Node5 -->
<g id="edge5_Node000005_Node000005" class="edge">
<title>Node5&#45;&gt;Node5</title>
<g id="a_edge5_Node000005_Node000005"><a xlink:title=" ">
<path fill="none" stroke="#63b8ff" d="M236.3,-30.28C229.04,-39.41 239.94,-48 269,-48 286.26,-48 297.11,-44.97 301.56,-40.6"/>
<polygon fill="#63b8ff" stroke="#63b8ff" points="305.06,-40.32 301.7,-30.28 298.06,-40.23 305.06,-40.32"/>
</a>
</g>
</g>
</g>
</svg>
