<?xml version="1.0" encoding="UTF-8" standalone="no"?>
<!DOCTYPE svg PUBLIC "-//W3C//DTD SVG 1.1//EN"
 "http://www.w3.org/Graphics/SVG/1.1/DTD/svg11.dtd">
<!-- Generated by graphviz version 2.43.0 (0)
 -->
<!-- Title: TopologyRenderer::exportToFile Pages: 1 -->
<svg width="545pt" height="361pt"
 viewBox="0.00 0.00 545.00 360.50" xmlns="http://www.w3.org/2000/svg" xmlns:xlink="http://www.w3.org/1999/xlink">
<g id="graph0" class="graph" transform="scale(1 1) rotate(0) translate(4 356.5)">
<title>TopologyRenderer::exportToFile</title>
<!-- Node1 -->
<g id="Node000001" class="node">
<title>Node1</title>
<g id="a_Node000001"><a xlink:title="Exporte la topologie ferroviaire dans un fichier GeoJSON.">
<polygon fill="#999999" stroke="#666666" points="142,-120 0,-120 0,-90 142,-90 142,-120"/>
<text text-anchor="start" x="8" y="-108" font-family="Helvetica,sans-Serif" font-size="10.00">TopologyRenderer::export</text>
<text text-anchor="middle" x="71" y="-97" font-family="Helvetica,sans-Serif" font-size="10.00">ToFile</text>
</a>
</g>
</g>
<!-- Node2 -->
<g id="Node000002" class="node">
<title>Node2</title>
<g id="a_Node000002"><a xlink:href="classTopologyRenderer.html#a39b4c82693790d5886076d62998362bc" target="_top" xlink:title="Convertit un StraightBlock en feature GeoJSON de type LineString.">
<polygon fill="white" stroke="#666666" points="325,-299 178,-299 178,-269 325,-269 325,-299"/>
<text text-anchor="start" x="186" y="-287" font-family="Helvetica,sans-Serif" font-size="10.00">TopologyRenderer::convert</text>
<text text-anchor="middle" x="251.5" y="-276" font-family="Helvetica,sans-Serif" font-size="10.00">StraightToFeature</text>
</a>
</g>
</g>
<!-- Node1&#45;&gt;Node2 -->
<g id="edge1_Node000001_Node000002" class="edge">
<title>Node1&#45;&gt;Node2</title>
<g id="a_edge1_Node000001_Node000002"><a xlink:title=" ">
<path fill="none" stroke="#63b8ff" d="M87.22,-120.26C118.7,-151.83 191.12,-224.46 228.01,-261.45"/>
<polygon fill="#63b8ff" stroke="#63b8ff" points="225.78,-264.17 235.32,-268.78 230.74,-259.22 225.78,-264.17"/>
</a>
</g>
</g>
<!-- Node6 -->
<g id="Node000006" class="node">
<title>Node6</title>
<g id="a_Node000006"><a xlink:href="classTopologyRenderer.html#ab35534539fde31c290ce7e531fce86fe" target="_top" xlink:title="Convertit un SwitchBlock en feature GeoJSON de type Point.">
<polygon fill="white" stroke="#666666" points="325,-144 178,-144 178,-114 325,-114 325,-144"/>
<text text-anchor="start" x="186" y="-132" font-family="Helvetica,sans-Serif" font-size="10.00">TopologyRenderer::convert</text>
<text text-anchor="middle" x="251.5" y="-121" font-family="Helvetica,sans-Serif" font-size="10.00">SwitchToFeature</text>
</a>
</g>
</g>
<!-- Node1&#45;&gt;Node6 -->
<g id="edge5_Node000001_Node000006" class="edge">
<title>Node1&#45;&gt;Node6</title>
<g id="a_edge5_Node000001_Node000006"><a xlink:title=" ">
<path fill="none" stroke="#63b8ff" d="M142.04,-114.42C150.46,-115.55 159.12,-116.71 167.71,-117.87"/>
<polygon fill="#63b8ff" stroke="#63b8ff" points="167.35,-121.35 177.73,-119.22 168.28,-114.41 167.35,-121.35"/>
</a>
</g>
</g>
<!-- Node13 -->
<g id="Node000013" class="node">
<title>Node13</title>
<g id="a_Node000013"><a xlink:href="classTopologyRepository.html#a0179f504f5d22ea5b16926511a9cb027" target="_top" xlink:title="Retourne une référence mutable aux données topologiques.">
<polygon fill="white" stroke="#666666" points="308,-96 195,-96 195,-66 308,-66 308,-96"/>
<text text-anchor="start" x="203" y="-84" font-family="Helvetica,sans-Serif" font-size="10.00">TopologyRepository</text>
<text text-anchor="middle" x="251.5" y="-73" font-family="Helvetica,sans-Serif" font-size="10.00">::data</text>
</a>
</g>
</g>
<!-- Node1&#45;&gt;Node13 -->
<g id="edge12_Node000001_Node000013" class="edge">
<title>Node1&#45;&gt;Node13</title>
<g id="a_edge12_Node000001_Node000013"><a xlink:title=" ">
<path fill="none" stroke="#63b8ff" d="M142.04,-95.58C156.1,-93.69 170.84,-91.71 184.76,-89.84"/>
<polygon fill="#63b8ff" stroke="#63b8ff" points="185.28,-93.3 194.72,-88.5 184.35,-86.36 185.28,-93.3"/>
</a>
</g>
</g>
<!-- Node14 -->
<g id="Node000014" class="node">
<title>Node14</title>
<g id="a_Node000014"><a xlink:href="classTopologyRepository.html#adb001f817a74b4b81e05d0d22517f509" target="_top" xlink:title="Retourne l&#39;instance unique du repository (création paresseuse).">
<polygon fill="white" stroke="#666666" points="308,-30 195,-30 195,0 308,0 308,-30"/>
<text text-anchor="start" x="203" y="-18" font-family="Helvetica,sans-Serif" font-size="10.00">TopologyRepository</text>
<text text-anchor="middle" x="251.5" y="-7" font-family="Helvetica,sans-Serif" font-size="10.00">::instance</text>
</a>
</g>
</g>
<!-- Node1&#45;&gt;Node14 -->
<g id="edge13_Node000001_Node000014" class="edge">
<title>Node1&#45;&gt;Node14</title>
<g id="a_edge13_Node000001_Node000014"><a xlink:title=" ">
<path fill="none" stroke="#63b8ff" d="M101.88,-89.94C131.87,-74.82 178.22,-51.44 211.19,-34.82"/>
<polygon fill="#63b8ff" stroke="#63b8ff" points="213.17,-37.74 220.53,-30.11 210.02,-31.49 213.17,-37.74"/>
</a>
</g>
</g>
<!-- Node3 -->
<g id="Node000003" class="node">
<title>Node3</title>
<g id="a_Node000003"><a xlink:href="classStraightBlock.html#a646d3135d365dcb832ff66b1304c6850" target="_top" xlink:title=" ">
<polygon fill="white" stroke="#666666" points="530,-352.5 368,-352.5 368,-333.5 530,-333.5 530,-352.5"/>
<text text-anchor="middle" x="449" y="-340.5" font-family="Helvetica,sans-Serif" font-size="10.00">StraightBlock::getCoordinates</text>
</a>
</g>
</g>
<!-- Node2&#45;&gt;Node3 -->
<g id="edge2_Node000002_Node000003" class="edge">
<title>Node2&#45;&gt;Node3</title>
<g id="a_edge2_Node000002_Node000003"><a xlink:title=" ">
<path fill="none" stroke="#63b8ff" d="M288.19,-299.11C309.12,-307.56 336.25,-317.81 361,-325 368.79,-327.26 377.06,-329.36 385.27,-331.25"/>
<polygon fill="#63b8ff" stroke="#63b8ff" points="384.7,-334.71 395.23,-333.47 386.22,-327.88 384.7,-334.71"/>
</a>
</g>
</g>
<!-- Node4 -->
<g id="Node000004" class="node">
<title>Node4</title>
<g id="a_Node000004"><a xlink:href="classStraightBlock.html#a295060fddd0675834ce4755ae4787780" target="_top" xlink:title="Retourne l&#39;identifiant unique de l&#39;élément (ex. &quot;sw/3&quot;, &quot;s/12&quot;).">
<polygon fill="white" stroke="#666666" points="505.5,-315.5 392.5,-315.5 392.5,-296.5 505.5,-296.5 505.5,-315.5"/>
<text text-anchor="middle" x="449" y="-303.5" font-family="Helvetica,sans-Serif" font-size="10.00">StraightBlock::getId</text>
</a>
</g>
</g>
<!-- Node2&#45;&gt;Node4 -->
<g id="edge3_Node000002_Node000004" class="edge">
<title>Node2&#45;&gt;Node4</title>
<g id="a_edge3_Node000002_Node000004"><a xlink:title=" ">
<path fill="none" stroke="#63b8ff" d="M325.02,-292.16C343.82,-294.28 363.95,-296.54 382.37,-298.61"/>
<polygon fill="#63b8ff" stroke="#63b8ff" points="382.08,-302.1 392.41,-299.74 382.86,-295.15 382.08,-302.1"/>
</a>
</g>
</g>
<!-- Node5 -->
<g id="Node000005" class="node">
<title>Node5</title>
<g id="a_Node000005"><a xlink:href="classStraightBlock.html#aebdce1e1b66d6b39376ae1a66c2d2d9e" target="_top" xlink:title=" ">
<polygon fill="white" stroke="#666666" points="517.5,-278 380.5,-278 380.5,-248 517.5,-248 517.5,-278"/>
<text text-anchor="start" x="388.5" y="-266" font-family="Helvetica,sans-Serif" font-size="10.00">StraightBlock::getLength</text>
<text text-anchor="middle" x="449" y="-255" font-family="Helvetica,sans-Serif" font-size="10.00">Meters</text>
</a>
</g>
</g>
<!-- Node2&#45;&gt;Node5 -->
<g id="edge4_Node000002_Node000005" class="edge">
<title>Node2&#45;&gt;Node5</title>
<g id="a_edge4_Node000002_Node000005"><a xlink:title=" ">
<path fill="none" stroke="#63b8ff" d="M325.02,-276.21C339.76,-274.63 355.33,-272.95 370.25,-271.35"/>
<polygon fill="#63b8ff" stroke="#63b8ff" points="370.89,-274.8 380.45,-270.26 370.14,-267.84 370.89,-274.8"/>
</a>
</g>
</g>
<!-- Node7 -->
<g id="Node000007" class="node">
<title>Node7</title>
<g id="a_Node000007"><a xlink:href="classSwitchBlock.html#a6ed34ef4ccea6e43e2c0d456f5eb29c0" target="_top" xlink:title=" ">
<polygon fill="white" stroke="#666666" points="521.5,-230 376.5,-230 376.5,-200 521.5,-200 521.5,-230"/>
<text text-anchor="start" x="384.5" y="-218" font-family="Helvetica,sans-Serif" font-size="10.00">SwitchBlock::getDeviation</text>
<text text-anchor="middle" x="449" y="-207" font-family="Helvetica,sans-Serif" font-size="10.00">BranchId</text>
</a>
</g>
</g>
<!-- Node6&#45;&gt;Node7 -->
<g id="edge6_Node000006_Node000007" class="edge">
<title>Node6&#45;&gt;Node7</title>
<g id="a_edge6_Node000006_Node000007"><a xlink:title=" ">
<path fill="none" stroke="#63b8ff" d="M274.93,-144.04C296.3,-157.82 329.75,-178 361,-191 365.97,-193.07 371.18,-195.01 376.47,-196.83"/>
<polygon fill="#63b8ff" stroke="#63b8ff" points="375.44,-200.18 386.04,-199.97 377.62,-193.53 375.44,-200.18"/>
</a>
</g>
</g>
<!-- Node8 -->
<g id="Node000008" class="node">
<title>Node8</title>
<g id="a_Node000008"><a xlink:href="classSwitchBlock.html#adbf269599ac24cd670976368ae00b39f" target="_top" xlink:title="Retourne l&#39;identifiant unique de l&#39;élément (ex. &quot;sw/3&quot;, &quot;s/12&quot;).">
<polygon fill="white" stroke="#666666" points="502.5,-181.5 395.5,-181.5 395.5,-162.5 502.5,-162.5 502.5,-181.5"/>
<text text-anchor="middle" x="449" y="-169.5" font-family="Helvetica,sans-Serif" font-size="10.00">SwitchBlock::getId</text>
</a>
</g>
</g>
<!-- Node6&#45;&gt;Node8 -->
<g id="edge7_Node000006_Node000008" class="edge">
<title>Node6&#45;&gt;Node8</title>
<g id="a_edge7_Node000006_Node000008"><a xlink:title=" ">
<path fill="none" stroke="#63b8ff" d="M320.21,-144.01C333.72,-146.99 347.81,-150.1 361,-153 371.75,-155.36 383.25,-157.88 394.25,-160.29"/>
<polygon fill="#63b8ff" stroke="#63b8ff" points="393.67,-163.74 404.18,-162.45 395.16,-156.9 393.67,-163.74"/>
</a>
</g>
</g>
<!-- Node9 -->
<g id="Node000009" class="node">
<title>Node9</title>
<g id="a_Node000009"><a xlink:href="classSwitchBlock.html#a17420e8225a0637a6d38b73bee7d2526" target="_top" xlink:title=" ">
<polygon fill="white" stroke="#666666" points="517.5,-144 380.5,-144 380.5,-114 517.5,-114 517.5,-144"/>
<text text-anchor="start" x="388.5" y="-132" font-family="Helvetica,sans-Serif" font-size="10.00">SwitchBlock::getJunction</text>
<text text-anchor="middle" x="449" y="-121" font-family="Helvetica,sans-Serif" font-size="10.00">Coordinate</text>
</a>
</g>
</g>
<!-- Node6&#45;&gt;Node9 -->
<g id="edge8_Node000006_Node000009" class="edge">
<title>Node6&#45;&gt;Node9</title>
<g id="a_edge8_Node000006_Node000009"><a xlink:title=" ">
<path fill="none" stroke="#63b8ff" d="M325.02,-129C339.76,-129 355.33,-129 370.25,-129"/>
<polygon fill="#63b8ff" stroke="#63b8ff" points="370.45,-132.5 380.45,-129 370.45,-125.5 370.45,-132.5"/>
</a>
</g>
</g>
<!-- Node10 -->
<g id="Node000010" class="node">
<title>Node10</title>
<g id="a_Node000010"><a xlink:href="classSwitchBlock.html#a6838d033ec39e85a94c98a9559fcc532" target="_top" xlink:title=" ">
<polygon fill="white" stroke="#666666" points="537,-95.5 361,-95.5 361,-76.5 537,-76.5 537,-95.5"/>
<text text-anchor="middle" x="449" y="-83.5" font-family="Helvetica,sans-Serif" font-size="10.00">SwitchBlock::getNormalBranchId</text>
</a>
</g>
</g>
<!-- Node6&#45;&gt;Node10 -->
<g id="edge9_Node000006_Node000010" class="edge">
<title>Node6&#45;&gt;Node10</title>
<g id="a_edge9_Node000006_Node000010"><a xlink:title=" ">
<path fill="none" stroke="#63b8ff" d="M320.21,-113.99C333.72,-111.01 347.81,-107.9 361,-105 371.75,-102.64 383.25,-100.12 394.25,-97.71"/>
<polygon fill="#63b8ff" stroke="#63b8ff" points="395.16,-101.1 404.18,-95.55 393.67,-94.26 395.16,-101.1"/>
</a>
</g>
</g>
<!-- Node11 -->
<g id="Node000011" class="node">
<title>Node11</title>
<g id="a_Node000011"><a xlink:href="classSwitchBlock.html#a55d04c13a5fba252ba2b840f6835a2a4" target="_top" xlink:title=" ">
<polygon fill="white" stroke="#666666" points="530.5,-58.5 367.5,-58.5 367.5,-39.5 530.5,-39.5 530.5,-58.5"/>
<text text-anchor="middle" x="449" y="-46.5" font-family="Helvetica,sans-Serif" font-size="10.00">SwitchBlock::getRootBranchId</text>
</a>
</g>
</g>
<!-- Node6&#45;&gt;Node11 -->
<g id="edge10_Node000006_Node000011" class="edge">
<title>Node6&#45;&gt;Node11</title>
<g id="a_edge10_Node000006_Node000011"><a xlink:title=" ">
<path fill="none" stroke="#63b8ff" d="M307.63,-113.9C313.69,-111.33 319.61,-108.38 325,-105 344.45,-92.82 340.94,-79.14 361,-68 365.17,-65.68 369.6,-63.65 374.17,-61.86"/>
<polygon fill="#63b8ff" stroke="#63b8ff" points="375.41,-65.13 383.7,-58.53 373.1,-58.53 375.41,-65.13"/>
</a>
</g>
</g>
<!-- Node12 -->
<g id="Node000012" class="node">
<title>Node12</title>
<g id="a_Node000012"><a xlink:href="classSwitchBlock.html#a13b991ec872f7ace3af3e00db8b12e3e" target="_top" xlink:title=" ">
<polygon fill="white" stroke="#666666" points="511.5,-21.5 386.5,-21.5 386.5,-2.5 511.5,-2.5 511.5,-21.5"/>
<text text-anchor="middle" x="449" y="-9.5" font-family="Helvetica,sans-Serif" font-size="10.00">SwitchBlock::isDouble</text>
</a>
</g>
</g>
<!-- Node6&#45;&gt;Node12 -->
<g id="edge11_Node000006_Node000012" class="edge">
<title>Node6&#45;&gt;Node12</title>
<g id="a_edge11_Node000006_Node000012"><a xlink:title=" ">
<path fill="none" stroke="#63b8ff" d="M312.1,-113.86C316.74,-111.35 321.12,-108.42 325,-105 352.76,-80.58 331.87,-52.78 361,-30 365.75,-26.29 371.07,-23.29 376.69,-20.87"/>
<polygon fill="#63b8ff" stroke="#63b8ff" points="378.18,-24.06 386.37,-17.33 375.77,-17.48 378.18,-24.06"/>
</a>
</g>
</g>
<!-- Node14&#45;&gt;Node14 -->
<g id="edge14_Node000014_Node000014" class="edge">
<title>Node14&#45;&gt;Node14</title>
<g id="a_edge14_Node000014_Node000014"><a xlink:title=" ">
<path fill="none" stroke="#63b8ff" d="M219.86,-30.28C212.83,-39.41 223.38,-48 251.5,-48 268.2,-48 278.7,-44.97 283.01,-40.6"/>
<polygon fill="#63b8ff" stroke="#63b8ff" points="286.51,-40.32 283.14,-30.28 279.51,-40.23 286.51,-40.32"/>
</a>
</g>
</g>
</g>
</svg>
