<?xml version="1.0" encoding="UTF-8" standalone="no"?>
<!DOCTYPE svg PUBLIC "-//W3C//DTD SVG 1.1//EN"
 "http://www.w3.org/Graphics/SVG/1.1/DTD/svg11.dtd">
<!-- Generated by graphviz version 2.43.0 (0)
 -->
<!-- Title: PCCPanel::onPaint Pages: 1 -->
<svg width="655pt" height="253pt"
 viewBox="0.00 0.00 655.00 252.50" xmlns="http://www.w3.org/2000/svg" xmlns:xlink="http://www.w3.org/1999/xlink">
<g id="graph0" class="graph" transform="scale(1 1) rotate(0) translate(4 248.5)">
<title>PCCPanel::onPaint</title>
<!-- Node1 -->
<g id="Node000001" class="node">
<title>Node1</title>
<g id="a_Node000001"><a xlink:title="Gestionnaire de WM_PAINT — délègue le dessin à TCORenderer.">
<polygon fill="#999999" stroke="#666666" points="104,-168 0,-168 0,-149 104,-149 104,-168"/>
<text text-anchor="middle" x="52" y="-156" font-family="Helvetica,sans-Serif" font-size="10.00">PCCPanel::onPaint</text>
</a>
</g>
</g>
<!-- Node2 -->
<g id="Node000002" class="node">
<title>Node2</title>
<g id="a_Node000002"><a xlink:href="classTCORenderer.html#a84a480ca1f9b2d8dffd5a51148739898" target="_top" xlink:title="Point d&#39;entrée unique du rendu TCO.">
<polygon fill="white" stroke="#666666" points="250,-168 140,-168 140,-149 250,-149 250,-168"/>
<text text-anchor="middle" x="195" y="-156" font-family="Helvetica,sans-Serif" font-size="10.00">TCORenderer::draw</text>
</a>
</g>
</g>
<!-- Node1&#45;&gt;Node2 -->
<g id="edge1_Node000001_Node000002" class="edge">
<title>Node1&#45;&gt;Node2</title>
<g id="a_edge1_Node000001_Node000002"><a xlink:title=" ">
<path fill="none" stroke="#63b8ff" d="M104.3,-158.5C112.48,-158.5 121.02,-158.5 129.45,-158.5"/>
<polygon fill="#63b8ff" stroke="#63b8ff" points="129.65,-162 139.65,-158.5 129.65,-155 129.65,-162"/>
</a>
</g>
</g>
<!-- Node3 -->
<g id="Node000003" class="node">
<title>Node3</title>
<g id="a_Node000003"><a xlink:href="classTCORenderer.html#abfcb79ee489f92d1e8ddd3cfe7ce7bb6" target="_top" xlink:title="Calcule la Projection à partir du contenu de TopologyRepository.">
<polygon fill="white" stroke="#666666" points="464,-206 286,-206 286,-187 464,-187 464,-206"/>
<text text-anchor="middle" x="375" y="-194" font-family="Helvetica,sans-Serif" font-size="10.00">TCORenderer::computeProjection</text>
</a>
</g>
</g>
<!-- Node2&#45;&gt;Node3 -->
<g id="edge2_Node000002_Node000003" class="edge">
<title>Node2&#45;&gt;Node3</title>
<g id="a_edge2_Node000002_Node000003"><a xlink:title=" ">
<path fill="none" stroke="#63b8ff" d="M240.92,-168.09C264.83,-173.19 294.42,-179.51 319.62,-184.89"/>
<polygon fill="#63b8ff" stroke="#63b8ff" points="318.9,-188.31 329.41,-186.98 320.36,-181.47 318.9,-188.31"/>
</a>
</g>
</g>
<!-- Node4 -->
<g id="Node000004" class="node">
<title>Node4</title>
<g id="a_Node000004"><a xlink:href="classTopologyRepository.html#a0179f504f5d22ea5b16926511a9cb027" target="_top" xlink:title="Retourne une référence mutable aux données topologiques.">
<polygon fill="white" stroke="#666666" points="630,-244.5 517,-244.5 517,-214.5 630,-214.5 630,-244.5"/>
<text text-anchor="start" x="525" y="-232.5" font-family="Helvetica,sans-Serif" font-size="10.00">TopologyRepository</text>
<text text-anchor="middle" x="573.5" y="-221.5" font-family="Helvetica,sans-Serif" font-size="10.00">::data</text>
</a>
</g>
</g>
<!-- Node2&#45;&gt;Node4 -->
<g id="edge6_Node000002_Node000004" class="edge">
<title>Node2&#45;&gt;Node4</title>
<g id="a_edge6_Node000002_Node000004"><a xlink:title=" ">
<path fill="none" stroke="#63b8ff" d="M206.96,-168.16C223.01,-181.62 254.44,-205.5 286,-215.5 358.89,-238.58 447.4,-239.01 506.58,-235.66"/>
<polygon fill="#63b8ff" stroke="#63b8ff" points="507.14,-239.13 516.91,-235.02 506.71,-232.15 507.14,-239.13"/>
</a>
</g>
</g>
<!-- Node5 -->
<g id="Node000005" class="node">
<title>Node5</title>
<g id="a_Node000005"><a xlink:href="classTopologyRepository.html#adb001f817a74b4b81e05d0d22517f509" target="_top" xlink:title="Retourne l&#39;instance unique du repository (création paresseuse).">
<polygon fill="white" stroke="#666666" points="630,-178.5 517,-178.5 517,-148.5 630,-148.5 630,-178.5"/>
<text text-anchor="start" x="525" y="-166.5" font-family="Helvetica,sans-Serif" font-size="10.00">TopologyRepository</text>
<text text-anchor="middle" x="573.5" y="-155.5" font-family="Helvetica,sans-Serif" font-size="10.00">::instance</text>
</a>
</g>
</g>
<!-- Node2&#45;&gt;Node5 -->
<g id="edge20_Node000002_Node000005" class="edge">
<title>Node2&#45;&gt;Node5</title>
<g id="a_edge20_Node000002_Node000005"><a xlink:title=" ">
<path fill="none" stroke="#63b8ff" d="M250.34,-159.22C318.08,-160.12 433.78,-161.66 506.53,-162.62"/>
<polygon fill="#63b8ff" stroke="#63b8ff" points="506.9,-166.13 516.95,-162.76 506.99,-159.13 506.9,-166.13"/>
</a>
</g>
</g>
<!-- Node6 -->
<g id="Node000006" class="node">
<title>Node6</title>
<g id="a_Node000006"><a xlink:href="classTCORenderer.html#aeed8cc58c834a65669010f32359d4610" target="_top" xlink:title="Dessine tous les StraightBlocks sous forme de polyligne GDI.">
<polygon fill="white" stroke="#666666" points="452,-130 298,-130 298,-111 452,-111 452,-130"/>
<text text-anchor="middle" x="375" y="-118" font-family="Helvetica,sans-Serif" font-size="10.00">TCORenderer::drawStraights</text>
</a>
</g>
</g>
<!-- Node2&#45;&gt;Node6 -->
<g id="edge7_Node000002_Node000006" class="edge">
<title>Node2&#45;&gt;Node6</title>
<g id="a_edge7_Node000002_Node000006"><a xlink:title=" ">
<path fill="none" stroke="#63b8ff" d="M240.92,-148.91C264.83,-143.81 294.42,-137.49 319.62,-132.11"/>
<polygon fill="#63b8ff" stroke="#63b8ff" points="320.36,-135.53 329.41,-130.02 318.9,-128.69 320.36,-135.53"/>
</a>
</g>
</g>
<!-- Node10 -->
<g id="Node000010" class="node">
<title>Node10</title>
<g id="a_Node000010"><a xlink:href="classTCORenderer.html#abac93569443d9bdd38b2dfb5cbd7e30b" target="_top" xlink:title="Dessine tous les SwitchBlocks (jonction + 3 branches).">
<polygon fill="white" stroke="#666666" points="452,-93 298,-93 298,-74 452,-74 452,-93"/>
<text text-anchor="middle" x="375" y="-81" font-family="Helvetica,sans-Serif" font-size="10.00">TCORenderer::drawSwitches</text>
</a>
</g>
</g>
<!-- Node2&#45;&gt;Node10 -->
<g id="edge13_Node000002_Node000010" class="edge">
<title>Node2&#45;&gt;Node10</title>
<g id="a_edge13_Node000002_Node000010"><a xlink:title=" ">
<path fill="none" stroke="#63b8ff" d="M208.36,-148.86C225.05,-136.32 256.15,-114.58 286,-102.5 292.33,-99.94 299.06,-97.7 305.87,-95.74"/>
<polygon fill="#63b8ff" stroke="#63b8ff" points="307.1,-99.04 315.87,-93.08 305.3,-92.27 307.1,-99.04"/>
</a>
</g>
</g>
<!-- Node3&#45;&gt;Node4 -->
<g id="edge3_Node000003_Node000004" class="edge">
<title>Node3&#45;&gt;Node4</title>
<g id="a_edge3_Node000003_Node000004"><a xlink:title=" ">
<path fill="none" stroke="#63b8ff" d="M432.57,-206C455.69,-209.88 482.58,-214.4 506.58,-218.43"/>
<polygon fill="#63b8ff" stroke="#63b8ff" points="506.22,-221.92 516.67,-220.12 507.38,-215.02 506.22,-221.92"/>
</a>
</g>
</g>
<!-- Node3&#45;&gt;Node5 -->
<g id="edge4_Node000003_Node000005" class="edge">
<title>Node3&#45;&gt;Node5</title>
<g id="a_edge4_Node000003_Node000005"><a xlink:title=" ">
<path fill="none" stroke="#63b8ff" d="M432.57,-187C455.69,-183.12 482.58,-178.6 506.58,-174.57"/>
<polygon fill="#63b8ff" stroke="#63b8ff" points="507.38,-177.98 516.67,-172.88 506.22,-171.08 507.38,-177.98"/>
</a>
</g>
</g>
<!-- Node5&#45;&gt;Node5 -->
<g id="edge5_Node000005_Node000005" class="edge">
<title>Node5&#45;&gt;Node5</title>
<g id="a_edge5_Node000005_Node000005"><a xlink:title=" ">
<path fill="none" stroke="#63b8ff" d="M538.7,-178.78C530.96,-187.91 542.56,-196.5 573.5,-196.5 591.87,-196.5 603.42,-193.47 608.16,-189.1"/>
<polygon fill="#63b8ff" stroke="#63b8ff" points="611.66,-188.82 608.3,-178.78 604.66,-188.72 611.66,-188.82"/>
</a>
</g>
</g>
<!-- Node6&#45;&gt;Node4 -->
<g id="edge8_Node000006_Node000004" class="edge">
<title>Node6&#45;&gt;Node4</title>
<g id="a_edge8_Node000006_Node000004"><a xlink:title=" ">
<path fill="none" stroke="#63b8ff" d="M391.13,-130.08C408.82,-141.36 438.86,-160.81 464,-178.5 480.36,-190.01 482.27,-196.24 500,-205.5 503.47,-207.31 507.1,-209.03 510.82,-210.64"/>
<polygon fill="#63b8ff" stroke="#63b8ff" points="509.59,-213.92 520.17,-214.45 512.23,-207.44 509.59,-213.92"/>
</a>
</g>
</g>
<!-- Node6&#45;&gt;Node5 -->
<g id="edge10_Node000006_Node000005" class="edge">
<title>Node6&#45;&gt;Node5</title>
<g id="a_edge10_Node000006_Node000005"><a xlink:title=" ">
<path fill="none" stroke="#63b8ff" d="M419.61,-130.04C445.2,-135.64 478.04,-142.83 506.72,-149.11"/>
<polygon fill="#63b8ff" stroke="#63b8ff" points="506.15,-152.56 516.67,-151.28 507.65,-145.73 506.15,-152.56"/>
</a>
</g>
</g>
<!-- Node7 -->
<g id="Node000007" class="node">
<title>Node7</title>
<g id="a_Node000007"><a xlink:href="classTCORenderer.html#ad888c0f18e1d658e017122e744d800af" target="_top" xlink:title="Dessine un segment GDI entre deux points écran.">
<polygon fill="white" stroke="#666666" points="639,-130 508,-130 508,-111 639,-111 639,-130"/>
<text text-anchor="middle" x="573.5" y="-118" font-family="Helvetica,sans-Serif" font-size="10.00">TCORenderer::drawLine</text>
</a>
</g>
</g>
<!-- Node6&#45;&gt;Node7 -->
<g id="edge9_Node000006_Node000007" class="edge">
<title>Node6&#45;&gt;Node7</title>
<g id="a_edge9_Node000006_Node000007"><a xlink:title=" ">
<path fill="none" stroke="#63b8ff" d="M452.25,-120.5C467.15,-120.5 482.77,-120.5 497.62,-120.5"/>
<polygon fill="#63b8ff" stroke="#63b8ff" points="497.77,-124 507.77,-120.5 497.77,-117 497.77,-124"/>
</a>
</g>
</g>
<!-- Node8 -->
<g id="Node000008" class="node">
<title>Node8</title>
<g id="a_Node000008"><a xlink:href="classTCORenderer.html#a444e83112e1f98c00fce1194e8c8d313" target="_top" xlink:title="Projette un point GPS en coordonnées pixels.">
<polygon fill="white" stroke="#666666" points="633.5,-93 513.5,-93 513.5,-74 633.5,-74 633.5,-93"/>
<text text-anchor="middle" x="573.5" y="-81" font-family="Helvetica,sans-Serif" font-size="10.00">TCORenderer::project</text>
</a>
</g>
</g>
<!-- Node6&#45;&gt;Node8 -->
<g id="edge11_Node000006_Node000008" class="edge">
<title>Node6&#45;&gt;Node8</title>
<g id="a_edge11_Node000006_Node000008"><a xlink:title=" ">
<path fill="none" stroke="#63b8ff" d="M426.6,-110.97C452.63,-106.07 484.55,-100.06 511.88,-94.91"/>
<polygon fill="#63b8ff" stroke="#63b8ff" points="512.55,-98.35 521.73,-93.06 511.25,-91.47 512.55,-98.35"/>
</a>
</g>
</g>
<!-- Node9 -->
<g id="Node000009" class="node">
<title>Node9</title>
<g id="a_Node000009"><a xlink:href="classTCORenderer.html#a538d4c108ec65a52b98810f96e6662e1" target="_top" xlink:title="Mappe un ShuntingState vers une couleur GDI.">
<polygon fill="white" stroke="#666666" points="647,-56 500,-56 500,-37 647,-37 647,-56"/>
<text text-anchor="middle" x="573.5" y="-44" font-family="Helvetica,sans-Serif" font-size="10.00">TCORenderer::stateToColor</text>
</a>
</g>
</g>
<!-- Node6&#45;&gt;Node9 -->
<g id="edge12_Node000006_Node000009" class="edge">
<title>Node6&#45;&gt;Node9</title>
<g id="a_edge12_Node000006_Node000009"><a xlink:title=" ">
<path fill="none" stroke="#63b8ff" d="M444.3,-110.92C451.17,-108.67 457.87,-105.91 464,-102.5 484.34,-91.2 479.9,-76.22 500,-64.5 503,-62.75 506.17,-61.17 509.44,-59.74"/>
<polygon fill="#63b8ff" stroke="#63b8ff" points="510.79,-62.97 518.86,-56.1 508.27,-56.44 510.79,-62.97"/>
</a>
</g>
</g>
<!-- Node10&#45;&gt;Node4 -->
<g id="edge14_Node000010_Node000004" class="edge">
<title>Node10&#45;&gt;Node4</title>
<g id="a_edge14_Node000010_Node000004"><a xlink:title=" ">
<path fill="none" stroke="#63b8ff" d="M449.5,-93.02C454.75,-95.55 459.67,-98.67 464,-102.5 500.34,-134.61 465.43,-171.5 500,-205.5 502.41,-207.87 505.06,-210.01 507.88,-211.93"/>
<polygon fill="#63b8ff" stroke="#63b8ff" points="506.36,-215.1 516.76,-217.1 509.88,-209.05 506.36,-215.1"/>
</a>
</g>
</g>
<!-- Node10&#45;&gt;Node5 -->
<g id="edge17_Node000010_Node000005" class="edge">
<title>Node10&#45;&gt;Node5</title>
<g id="a_edge17_Node000010_Node000005"><a xlink:title=" ">
<path fill="none" stroke="#63b8ff" d="M441.5,-93.11C449.34,-95.56 457.03,-98.64 464,-102.5 484.07,-113.62 480.55,-127.32 500,-139.5 502.61,-141.14 505.35,-142.67 508.16,-144.11"/>
<polygon fill="#63b8ff" stroke="#63b8ff" points="506.83,-147.35 517.37,-148.4 509.79,-141.01 506.83,-147.35"/>
</a>
</g>
</g>
<!-- Node10&#45;&gt;Node7 -->
<g id="edge16_Node000010_Node000007" class="edge">
<title>Node10&#45;&gt;Node7</title>
<g id="a_edge16_Node000010_Node000007"><a xlink:title=" ">
<path fill="none" stroke="#63b8ff" d="M426.6,-93.03C452.63,-97.93 484.55,-103.94 511.88,-109.09"/>
<polygon fill="#63b8ff" stroke="#63b8ff" points="511.25,-112.53 521.73,-110.94 512.55,-105.65 511.25,-112.53"/>
</a>
</g>
</g>
<!-- Node10&#45;&gt;Node8 -->
<g id="edge18_Node000010_Node000008" class="edge">
<title>Node10&#45;&gt;Node8</title>
<g id="a_edge18_Node000010_Node000008"><a xlink:title=" ">
<path fill="none" stroke="#63b8ff" d="M452.25,-83.5C469.05,-83.5 486.75,-83.5 503.25,-83.5"/>
<polygon fill="#63b8ff" stroke="#63b8ff" points="503.35,-87 513.35,-83.5 503.35,-80 503.35,-87"/>
</a>
</g>
</g>
<!-- Node10&#45;&gt;Node9 -->
<g id="edge19_Node000010_Node000009" class="edge">
<title>Node10&#45;&gt;Node9</title>
<g id="a_edge19_Node000010_Node000009"><a xlink:title=" ">
<path fill="none" stroke="#63b8ff" d="M426.6,-73.97C452.63,-69.07 484.55,-63.06 511.88,-57.91"/>
<polygon fill="#63b8ff" stroke="#63b8ff" points="512.55,-61.35 521.73,-56.06 511.25,-54.47 512.55,-61.35"/>
</a>
</g>
</g>
<!-- Node11 -->
<g id="Node000011" class="node">
<title>Node11</title>
<g id="a_Node000011"><a xlink:href="classTCORenderer.html#a16b62d2392d076c39684ef52fb11c84f" target="_top" xlink:title="Dessine un disque plein centré sur center.">
<polygon fill="white" stroke="#666666" points="637.5,-19 509.5,-19 509.5,0 637.5,0 637.5,-19"/>
<text text-anchor="middle" x="573.5" y="-7" font-family="Helvetica,sans-Serif" font-size="10.00">TCORenderer::drawDot</text>
</a>
</g>
</g>
<!-- Node10&#45;&gt;Node11 -->
<g id="edge15_Node000010_Node000011" class="edge">
<title>Node10&#45;&gt;Node11</title>
<g id="a_edge15_Node000010_Node000011"><a xlink:title=" ">
<path fill="none" stroke="#63b8ff" d="M394.48,-73.88C418.34,-61.76 461.39,-40.89 500,-27.5 505.95,-25.44 512.25,-23.51 518.56,-21.74"/>
<polygon fill="#63b8ff" stroke="#63b8ff" points="519.67,-25.06 528.42,-19.09 517.85,-18.3 519.67,-25.06"/>
</a>
</g>
</g>
</g>
</svg>
