<?xml version="1.0" encoding="UTF-8" standalone="no"?>
<!DOCTYPE svg PUBLIC "-//W3C//DTD SVG 1.1//EN"
 "http://www.w3.org/Graphics/SVG/1.1/DTD/svg11.dtd">
<!-- Generated by graphviz version 2.43.0 (0)
 -->
<!-- Title: MainWindow Pages: 1 -->
<svg width="356pt" height="924pt"
 viewBox="0.00 0.00 356.00 924.00" xmlns="http://www.w3.org/2000/svg" xmlns:xlink="http://www.w3.org/1999/xlink">
<g id="graph0" class="graph" transform="scale(1 1) rotate(0) translate(4 920)">
<title>MainWindow</title>
<!-- Node1 -->
<g id="Node000001" class="node">
<title>Node1</title>
<g id="a_Node000001"><a xlink:title="Fenêtre principale de l&#39;application SimulateurFerroviaire.">
<polygon fill="#999999" stroke="transparent" points="199,-259 81,-259 81,0 199,0 199,-259"/>
<text text-anchor="start" x="108" y="-246.5" font-family="Helvetica,sans-Serif" font-size="10.00">MainWindow</text>
<text text-anchor="start" x="87.5" y="-231.5" font-family="Helvetica,sans-Serif" font-size="10.00">&#45;</text>
<text text-anchor="start" x="98" y="-231.5" font-family="Helvetica,sans-Serif" font-size="10.00">m_hWnd</text>
<text text-anchor="start" x="87.5" y="-216.5" font-family="Helvetica,sans-Serif" font-size="10.00">&#45;</text>
<text text-anchor="start" x="98" y="-216.5" font-family="Helvetica,sans-Serif" font-size="10.00">m_hInstance</text>
<text text-anchor="start" x="87.5" y="-201.5" font-family="Helvetica,sans-Serif" font-size="10.00">&#45;</text>
<text text-anchor="start" x="98" y="-201.5" font-family="Helvetica,sans-Serif" font-size="10.00">m_className</text>
<text text-anchor="start" x="87.5" y="-186.5" font-family="Helvetica,sans-Serif" font-size="10.00">&#45;</text>
<text text-anchor="start" x="98" y="-186.5" font-family="Helvetica,sans-Serif" font-size="10.00">m_title</text>
<text text-anchor="start" x="87.5" y="-171.5" font-family="Helvetica,sans-Serif" font-size="10.00">&#45;</text>
<text text-anchor="start" x="98" y="-171.5" font-family="Helvetica,sans-Serif" font-size="10.00">m_nCmdShow</text>
<text text-anchor="start" x="85" y="-156.5" font-family="Helvetica,sans-Serif" font-size="10.00">+</text>
<text text-anchor="start" x="98" y="-156.5" font-family="Helvetica,sans-Serif" font-size="10.00">MainWindow()</text>
<text text-anchor="start" x="85" y="-141.5" font-family="Helvetica,sans-Serif" font-size="10.00">+</text>
<text text-anchor="start" x="98" y="-141.5" font-family="Helvetica,sans-Serif" font-size="10.00">create()</text>
<text text-anchor="start" x="85" y="-126.5" font-family="Helvetica,sans-Serif" font-size="10.00">+</text>
<text text-anchor="start" x="98" y="-126.5" font-family="Helvetica,sans-Serif" font-size="10.00">windowProc()</text>
<text text-anchor="start" x="87.5" y="-111.5" font-family="Helvetica,sans-Serif" font-size="10.00">&#45;</text>
<text text-anchor="start" x="98" y="-111.5" font-family="Helvetica,sans-Serif" font-size="10.00">handleMessage()</text>
<text text-anchor="start" x="87.5" y="-96.5" font-family="Helvetica,sans-Serif" font-size="10.00">&#45;</text>
<text text-anchor="start" x="98" y="-96.5" font-family="Helvetica,sans-Serif" font-size="10.00">onCommand()</text>
<text text-anchor="start" x="87.5" y="-81.5" font-family="Helvetica,sans-Serif" font-size="10.00">&#45;</text>
<text text-anchor="start" x="98" y="-81.5" font-family="Helvetica,sans-Serif" font-size="10.00">onProgressUpdate()</text>
<text text-anchor="start" x="87.5" y="-66.5" font-family="Helvetica,sans-Serif" font-size="10.00">&#45;</text>
<text text-anchor="start" x="98" y="-66.5" font-family="Helvetica,sans-Serif" font-size="10.00">onParsingSuccess()</text>
<text text-anchor="start" x="87.5" y="-51.5" font-family="Helvetica,sans-Serif" font-size="10.00">&#45;</text>
<text text-anchor="start" x="98" y="-51.5" font-family="Helvetica,sans-Serif" font-size="10.00">onParsingError()</text>
<text text-anchor="start" x="87.5" y="-36.5" font-family="Helvetica,sans-Serif" font-size="10.00">&#45;</text>
<text text-anchor="start" x="98" y="-36.5" font-family="Helvetica,sans-Serif" font-size="10.00">onFileOpen()</text>
<text text-anchor="start" x="87.5" y="-21.5" font-family="Helvetica,sans-Serif" font-size="10.00">&#45;</text>
<text text-anchor="start" x="98" y="-21.5" font-family="Helvetica,sans-Serif" font-size="10.00">onSizeUpdate()</text>
<text text-anchor="start" x="87.5" y="-6.5" font-family="Helvetica,sans-Serif" font-size="10.00">&#45;</text>
<text text-anchor="start" x="98" y="-6.5" font-family="Helvetica,sans-Serif" font-size="10.00">onDestroy()</text>
<polygon fill="#666666" stroke="#666666" points="81,-241.5 81,-241.5 199,-241.5 199,-241.5 81,-241.5"/>
<polygon fill="#666666" stroke="#666666" points="81,-166.5 81,-166.5 96,-166.5 96,-166.5 81,-166.5"/>
<polygon fill="#666666" stroke="#666666" points="96,-166.5 96,-166.5 199,-166.5 199,-166.5 96,-166.5"/>
<polygon fill="none" stroke="#666666" points="81,0 81,-259 199,-259 199,0 81,0"/>
</a>
</g>
</g>
<!-- Node2 -->
<g id="Node000002" class="node">
<title>Node2</title>
<g id="a_Node000002"><a xlink:href="classProgressBar.html" target="_top" xlink:title=" ">
<polygon fill="white" stroke="transparent" points="88,-490 0,-490 0,-396 88,-396 88,-490"/>
<text text-anchor="start" x="14.5" y="-478" font-family="Helvetica,sans-Serif" font-size="10.00">ProgressBar</text>
<text text-anchor="start" x="6.5" y="-463" font-family="Helvetica,sans-Serif" font-size="10.00">&#45;</text>
<text text-anchor="start" x="17" y="-463" font-family="Helvetica,sans-Serif" font-size="10.00">m_hwnd</text>
<text text-anchor="start" x="4" y="-448" font-family="Helvetica,sans-Serif" font-size="10.00">+</text>
<text text-anchor="start" x="17" y="-448" font-family="Helvetica,sans-Serif" font-size="10.00">ProgressBar()</text>
<text text-anchor="start" x="4" y="-433" font-family="Helvetica,sans-Serif" font-size="10.00">+</text>
<text text-anchor="start" x="17" y="-433" font-family="Helvetica,sans-Serif" font-size="10.00">create()</text>
<text text-anchor="start" x="4" y="-418" font-family="Helvetica,sans-Serif" font-size="10.00">+</text>
<text text-anchor="start" x="17" y="-418" font-family="Helvetica,sans-Serif" font-size="10.00">setProgress()</text>
<text text-anchor="start" x="4" y="-403" font-family="Helvetica,sans-Serif" font-size="10.00">+</text>
<text text-anchor="start" x="17" y="-403" font-family="Helvetica,sans-Serif" font-size="10.00">show()</text>
<polygon fill="#666666" stroke="#666666" points="0,-473 0,-473 88,-473 88,-473 0,-473"/>
<polygon fill="#666666" stroke="#666666" points="0,-458 0,-458 15,-458 15,-458 0,-458"/>
<polygon fill="#666666" stroke="#666666" points="15,-458 15,-458 88,-458 88,-458 15,-458"/>
<polygon fill="none" stroke="#666666" points="0,-396 0,-490 88,-490 88,-396 0,-396"/>
</a>
</g>
</g>
<!-- Node2&#45;&gt;Node1 -->
<g id="edge1_Node000001_Node000002" class="edge">
<title>Node2&#45;&gt;Node1</title>
<g id="a_edge1_Node000001_Node000002"><a xlink:title=" ">
<path fill="none" stroke="#63b8ff" d="M37.45,-395.81C34.3,-362.15 33.38,-315.83 45,-277 51.48,-255.34 62.25,-233.86 74.26,-214.3"/>
<polygon fill="none" stroke="#63b8ff" points="74.4,-214.08 74.24,-206.87 80.84,-203.95 80.99,-211.16 74.4,-214.08"/>
</a>
</g>
<text text-anchor="middle" x="85.5" y="-280" font-family="Helvetica,sans-Serif" font-size="10.00" fill="grey"> &#45;m_progressBar</text>
</g>
<!-- Node3 -->
<g id="Node000003" class="node">
<title>Node3</title>
<g id="a_Node000003"><a xlink:href="classLogger.html" target="_top" xlink:title="Journaliseur associé à un moteur nommé.">
<polygon fill="white" stroke="transparent" points="253,-916 117,-916 117,-627 253,-627 253,-916"/>
<text text-anchor="start" x="168" y="-903.5" font-family="Helvetica,sans-Serif" font-size="10.00">Logger</text>
<text text-anchor="start" x="123.5" y="-888.5" font-family="Helvetica,sans-Serif" font-size="10.00">&#45;</text>
<text text-anchor="start" x="134" y="-888.5" font-family="Helvetica,sans-Serif" font-size="10.00">m_motorName</text>
<text text-anchor="start" x="123.5" y="-873.5" font-family="Helvetica,sans-Serif" font-size="10.00">&#45;</text>
<text text-anchor="start" x="134" y="-873.5" font-family="Helvetica,sans-Serif" font-size="10.00">m_outputFile</text>
<text text-anchor="start" x="123.5" y="-858.5" font-family="Helvetica,sans-Serif" font-size="10.00">&#45;</text>
<text text-anchor="start" x="134" y="-858.5" font-family="Helvetica,sans-Serif" font-size="10.00">m_writeMutex</text>
<text text-anchor="start" x="123.5" y="-843.5" font-family="Helvetica,sans-Serif" font-size="10.00">&#45;</text>
<text text-anchor="start" x="134" y="-843.5" font-family="Helvetica,sans-Serif" font-size="10.00">m_minimumLevel</text>
<text text-anchor="start" x="121" y="-828.5" font-family="Helvetica,sans-Serif" font-size="10.00">+</text>
<text text-anchor="start" x="134" y="-828.5" font-family="Helvetica,sans-Serif" font-size="10.00">Logger()</text>
<text text-anchor="start" x="121" y="-813.5" font-family="Helvetica,sans-Serif" font-size="10.00">+</text>
<text text-anchor="start" x="134" y="-813.5" font-family="Helvetica,sans-Serif" font-size="10.00">~Logger()</text>
<text text-anchor="start" x="121" y="-798.5" font-family="Helvetica,sans-Serif" font-size="10.00">+</text>
<text text-anchor="start" x="134" y="-798.5" font-family="Helvetica,sans-Serif" font-size="10.00">Logger()</text>
<text text-anchor="start" x="121" y="-783.5" font-family="Helvetica,sans-Serif" font-size="10.00">+</text>
<text text-anchor="start" x="134" y="-783.5" font-family="Helvetica,sans-Serif" font-size="10.00">operator=()</text>
<text text-anchor="start" x="121" y="-768.5" font-family="Helvetica,sans-Serif" font-size="10.00">+</text>
<text text-anchor="start" x="134" y="-768.5" font-family="Helvetica,sans-Serif" font-size="10.00">writeLog()</text>
<text text-anchor="start" x="121" y="-753.5" font-family="Helvetica,sans-Serif" font-size="10.00">+</text>
<text text-anchor="start" x="134" y="-753.5" font-family="Helvetica,sans-Serif" font-size="10.00">setMinimumLogLevel()</text>
<text text-anchor="start" x="121" y="-738.5" font-family="Helvetica,sans-Serif" font-size="10.00">+</text>
<text text-anchor="start" x="134" y="-738.5" font-family="Helvetica,sans-Serif" font-size="10.00">getMotorName()</text>
<text text-anchor="start" x="121" y="-723.5" font-family="Helvetica,sans-Serif" font-size="10.00">+</text>
<text text-anchor="start" x="134" y="-723.5" font-family="Helvetica,sans-Serif" font-size="10.00">triggerFatalCrash()</text>
<text text-anchor="start" x="123.5" y="-708.5" font-family="Helvetica,sans-Serif" font-size="10.00">&#45;</text>
<text text-anchor="start" x="134" y="-708.5" font-family="Helvetica,sans-Serif" font-size="10.00">extractClassName()</text>
<text text-anchor="start" x="123.5" y="-693.5" font-family="Helvetica,sans-Serif" font-size="10.00">&#45;</text>
<text text-anchor="start" x="134" y="-693.5" font-family="Helvetica,sans-Serif" font-size="10.00">extractFunctionName()</text>
<text text-anchor="start" x="123.5" y="-678.5" font-family="Helvetica,sans-Serif" font-size="10.00">&#45;</text>
<text text-anchor="start" x="134" y="-678.5" font-family="Helvetica,sans-Serif" font-size="10.00">formatLogLine()</text>
<text text-anchor="start" x="123.5" y="-663.5" font-family="Helvetica,sans-Serif" font-size="10.00">&#45;</text>
<text text-anchor="start" x="134" y="-663.5" font-family="Helvetica,sans-Serif" font-size="10.00">levelToString()</text>
<text text-anchor="start" x="123.5" y="-648.5" font-family="Helvetica,sans-Serif" font-size="10.00">&#45;</text>
<text text-anchor="start" x="134" y="-648.5" font-family="Helvetica,sans-Serif" font-size="10.00">getCurrentTimestamp()</text>
<text text-anchor="start" x="123.5" y="-633.5" font-family="Helvetica,sans-Serif" font-size="10.00">&#45;</text>
<text text-anchor="start" x="134" y="-633.5" font-family="Helvetica,sans-Serif" font-size="10.00">sendToDebugOutput()</text>
<polygon fill="#666666" stroke="#666666" points="117,-898.5 117,-898.5 253,-898.5 253,-898.5 117,-898.5"/>
<polygon fill="#666666" stroke="#666666" points="117,-838.5 117,-838.5 132,-838.5 132,-838.5 117,-838.5"/>
<polygon fill="#666666" stroke="#666666" points="132,-838.5 132,-838.5 253,-838.5 253,-838.5 132,-838.5"/>
<polygon fill="none" stroke="#666666" points="117,-627 117,-916 253,-916 253,-627 117,-627"/>
</a>
</g>
</g>
<!-- Node3&#45;&gt;Node1 -->
<g id="edge2_Node000001_Node000003" class="edge">
<title>Node3&#45;&gt;Node1</title>
<g id="a_edge2_Node000001_Node000003"><a xlink:title=" ">
<path fill="none" stroke="#63b8ff" d="M155.21,-626.81C152.74,-611.07 150.58,-595.23 149,-580 138.31,-477.01 136.29,-360.06 136.81,-271.27"/>
<polygon fill="none" stroke="#63b8ff" points="136.81,-271.21 132.86,-265.18 136.9,-259.21 140.86,-265.24 136.81,-271.21"/>
</a>
</g>
<text text-anchor="middle" x="186" y="-440.5" font-family="Helvetica,sans-Serif" font-size="10.00" fill="grey"> &#45;m_hmiLogger</text>
</g>
<!-- Node4 -->
<g id="Node000004" class="node">
<title>Node4</title>
<g id="a_Node000004"><a xlink:href="classWebViewPanel.html" target="_top" xlink:title="Wrapper Win32 autour de WebView2 pour affichage HTML embarqué.">
<polygon fill="white" stroke="transparent" points="348,-580 232,-580 232,-306 348,-306 348,-580"/>
<text text-anchor="start" x="254" y="-568" font-family="Helvetica,sans-Serif" font-size="10.00">WebViewPanel</text>
<text text-anchor="start" x="238.5" y="-553" font-family="Helvetica,sans-Serif" font-size="10.00">&#45;</text>
<text text-anchor="start" x="249" y="-553" font-family="Helvetica,sans-Serif" font-size="10.00">m_parentHwnd</text>
<text text-anchor="start" x="238.5" y="-538" font-family="Helvetica,sans-Serif" font-size="10.00">&#45;</text>
<text text-anchor="start" x="249" y="-538" font-family="Helvetica,sans-Serif" font-size="10.00">m_controller</text>
<text text-anchor="start" x="238.5" y="-523" font-family="Helvetica,sans-Serif" font-size="10.00">&#45;</text>
<text text-anchor="start" x="249" y="-523" font-family="Helvetica,sans-Serif" font-size="10.00">m_webview</text>
<text text-anchor="start" x="238.5" y="-508" font-family="Helvetica,sans-Serif" font-size="10.00">&#45;</text>
<text text-anchor="start" x="249" y="-508" font-family="Helvetica,sans-Serif" font-size="10.00">m_isInitialized</text>
<text text-anchor="start" x="238.5" y="-493" font-family="Helvetica,sans-Serif" font-size="10.00">&#45;</text>
<text text-anchor="start" x="249" y="-493" font-family="Helvetica,sans-Serif" font-size="10.00">m_onInitialized</text>
<text text-anchor="start" x="236" y="-478" font-family="Helvetica,sans-Serif" font-size="10.00">+</text>
<text text-anchor="start" x="249" y="-478" font-family="Helvetica,sans-Serif" font-size="10.00">WebViewPanel()</text>
<text text-anchor="start" x="236" y="-463" font-family="Helvetica,sans-Serif" font-size="10.00">+</text>
<text text-anchor="start" x="249" y="-463" font-family="Helvetica,sans-Serif" font-size="10.00">~WebViewPanel()</text>
<text text-anchor="start" x="236" y="-448" font-family="Helvetica,sans-Serif" font-size="10.00">+</text>
<text text-anchor="start" x="249" y="-448" font-family="Helvetica,sans-Serif" font-size="10.00">WebViewPanel()</text>
<text text-anchor="start" x="236" y="-433" font-family="Helvetica,sans-Serif" font-size="10.00">+</text>
<text text-anchor="start" x="249" y="-433" font-family="Helvetica,sans-Serif" font-size="10.00">operator=()</text>
<text text-anchor="start" x="236" y="-418" font-family="Helvetica,sans-Serif" font-size="10.00">+</text>
<text text-anchor="start" x="249" y="-418" font-family="Helvetica,sans-Serif" font-size="10.00">create()</text>
<text text-anchor="start" x="236" y="-403" font-family="Helvetica,sans-Serif" font-size="10.00">+</text>
<text text-anchor="start" x="249" y="-403" font-family="Helvetica,sans-Serif" font-size="10.00">resize()</text>
<text text-anchor="start" x="236" y="-388" font-family="Helvetica,sans-Serif" font-size="10.00">+</text>
<text text-anchor="start" x="249" y="-388" font-family="Helvetica,sans-Serif" font-size="10.00">navigate()</text>
<text text-anchor="start" x="236" y="-373" font-family="Helvetica,sans-Serif" font-size="10.00">+</text>
<text text-anchor="start" x="249" y="-373" font-family="Helvetica,sans-Serif" font-size="10.00">navigateToString()</text>
<text text-anchor="start" x="236" y="-358" font-family="Helvetica,sans-Serif" font-size="10.00">+</text>
<text text-anchor="start" x="249" y="-358" font-family="Helvetica,sans-Serif" font-size="10.00">isInitialized()</text>
<text text-anchor="start" x="236" y="-343" font-family="Helvetica,sans-Serif" font-size="10.00">+</text>
<text text-anchor="start" x="249" y="-343" font-family="Helvetica,sans-Serif" font-size="10.00">setOnInitialized()</text>
<text text-anchor="start" x="236" y="-328" font-family="Helvetica,sans-Serif" font-size="10.00">+</text>
<text text-anchor="start" x="249" y="-328" font-family="Helvetica,sans-Serif" font-size="10.00">close()</text>
<text text-anchor="start" x="238.5" y="-313" font-family="Helvetica,sans-Serif" font-size="10.00">&#45;</text>
<text text-anchor="start" x="249" y="-313" font-family="Helvetica,sans-Serif" font-size="10.00">initializeWebView()</text>
<polygon fill="#666666" stroke="#666666" points="232,-563 232,-563 348,-563 348,-563 232,-563"/>
<polygon fill="#666666" stroke="#666666" points="232,-488 232,-488 247,-488 247,-488 232,-488"/>
<polygon fill="#666666" stroke="#666666" points="247,-488 247,-488 348,-488 348,-488 247,-488"/>
<polygon fill="none" stroke="#666666" points="232,-306 232,-580 348,-580 348,-306 232,-306"/>
</a>
</g>
</g>
<!-- Node3&#45;&gt;Node4 -->
<g id="edge4_Node000004_Node000003" class="edge">
<title>Node3&#45;&gt;Node4</title>
<g id="a_edge4_Node000004_Node000003"><a xlink:title=" ">
<path fill="none" stroke="#63b8ff" d="M231.21,-626.82C234.94,-615.2 238.72,-603.46 242.46,-591.82"/>
<polygon fill="none" stroke="#63b8ff" points="242.52,-591.64 240.55,-584.71 246.19,-580.22 248.16,-587.16 242.52,-591.64"/>
</a>
</g>
<text text-anchor="middle" x="263.5" y="-601" font-family="Helvetica,sans-Serif" font-size="10.00" fill="grey"> &#45;m_logger</text>
</g>
<!-- Node4&#45;&gt;Node1 -->
<g id="edge3_Node000001_Node000004" class="edge">
<title>Node4&#45;&gt;Node1</title>
<g id="a_edge3_Node000001_Node000004"><a xlink:title=" ">
<path fill="none" stroke="#63b8ff" d="M231.79,-321.12C222.77,-302.38 213.4,-282.92 204.25,-263.92"/>
<polygon fill="none" stroke="#63b8ff" points="204.25,-263.92 198.04,-260.25 199.04,-253.11 205.25,-256.78 204.25,-263.92"/>
</a>
</g>
<text text-anchor="middle" x="261.5" y="-280" font-family="Helvetica,sans-Serif" font-size="10.00" fill="grey"> &#45;m_webViewPanel</text>
</g>
</g>
</svg>
