<?xml version="1.0" encoding="UTF-8" standalone="no"?>
<!DOCTYPE svg PUBLIC "-//W3C//DTD SVG 1.1//EN"
 "http://www.w3.org/Graphics/SVG/1.1/DTD/svg11.dtd">
<!-- Generated by graphviz version 2.43.0 (0)
 -->
<!-- Title: SwitchBlock::isOriented Pages: 1 -->
<svg width="1962pt" height="172pt"
 viewBox="0.00 0.00 1962.00 171.50" xmlns="http://www.w3.org/2000/svg" xmlns:xlink="http://www.w3.org/1999/xlink">
<g id="graph0" class="graph" transform="scale(1 1) rotate(0) translate(4 167.5)">
<title>SwitchBlock::isOriented</title>
<!-- Node1 -->
<g id="Node000001" class="node">
<title>Node1</title>
<g id="a_Node000001"><a xlink:title="Indique si l&#39;aiguillage a été orienté (Phase 6 complète).">
<polygon fill="#999999" stroke="#666666" points="1954,-86 1822,-86 1822,-67 1954,-67 1954,-86"/>
<text text-anchor="middle" x="1888" y="-74" font-family="Helvetica,sans-Serif" font-size="10.00">SwitchBlock::isOriented</text>
</a>
</g>
</g>
<!-- Node2 -->
<g id="Node000002" class="node">
<title>Node2</title>
<g id="a_Node000002"><a xlink:href="classSwitchOrientator.html#a8132fa3495845481fdb68a3ec695af15" target="_top" xlink:title="Calcule et assigne les points tip CDC sur un SwitchBlock orienté.">
<polygon fill="white" stroke="#666666" points="1776,-163.5 1629,-163.5 1629,-133.5 1776,-133.5 1776,-163.5"/>
<text text-anchor="start" x="1637" y="-151.5" font-family="Helvetica,sans-Serif" font-size="10.00">SwitchOrientator::compute</text>
<text text-anchor="middle" x="1702.5" y="-140.5" font-family="Helvetica,sans-Serif" font-size="10.00">BranchTipPoints</text>
</a>
</g>
</g>
<!-- Node1&#45;&gt;Node2 -->
<g id="edge1_Node000001_Node000002" class="edge">
<title>Node1&#45;&gt;Node2</title>
<g id="a_edge1_Node000001_Node000002"><a xlink:title=" ">
<path fill="none" stroke="#63b8ff" d="M1860,-90.79C1839.94,-101.04 1811.73,-114.72 1786,-124.5 1777.63,-127.68 1768.66,-130.69 1759.82,-133.43"/>
<polygon fill="#63b8ff" stroke="#63b8ff" points="1861.86,-93.77 1869.14,-86.07 1858.65,-87.55 1861.86,-93.77"/>
</a>
</g>
</g>
<!-- Node12 -->
<g id="Node000012" class="node">
<title>Node12</title>
<g id="a_Node000012"><a xlink:href="classSwitchBlock.html#a003ca555f7f3dfd8e8057ae23dba9381" target="_top" xlink:title="Calcule et mémorise totalLengthMeters.">
<polygon fill="white" stroke="#666666" points="1776.5,-115.5 1628.5,-115.5 1628.5,-85.5 1776.5,-85.5 1776.5,-115.5"/>
<text text-anchor="start" x="1636.5" y="-103.5" font-family="Helvetica,sans-Serif" font-size="10.00">SwitchBlock::computeTotal</text>
<text text-anchor="middle" x="1702.5" y="-92.5" font-family="Helvetica,sans-Serif" font-size="10.00">Length</text>
</a>
</g>
</g>
<!-- Node1&#45;&gt;Node12 -->
<g id="edge11_Node000001_Node000012" class="edge">
<title>Node1&#45;&gt;Node12</title>
<g id="a_edge11_Node000001_Node000012"><a xlink:title=" ">
<path fill="none" stroke="#63b8ff" d="M1811.71,-86.35C1800.12,-87.86 1788.17,-89.43 1776.62,-90.94"/>
<polygon fill="#63b8ff" stroke="#63b8ff" points="1812.33,-89.8 1821.79,-85.03 1811.42,-82.86 1812.33,-89.8"/>
</a>
</g>
</g>
<!-- Node13 -->
<g id="Node000013" class="node">
<title>Node13</title>
<g id="a_Node000013"><a xlink:href="classGeoJsonExporter.html#a125ac684007e9e1e93b6d11d695d7e9b" target="_top" xlink:title="Construit l&#39;appel JS renderSwitchBranches(...) pour un switch.">
<polygon fill="white" stroke="#666666" points="1786,-67.5 1619,-67.5 1619,-37.5 1786,-37.5 1786,-67.5"/>
<text text-anchor="start" x="1627" y="-55.5" font-family="Helvetica,sans-Serif" font-size="10.00">GeoJsonExporter::renderSwitch</text>
<text text-anchor="middle" x="1702.5" y="-44.5" font-family="Helvetica,sans-Serif" font-size="10.00">Branches</text>
</a>
</g>
</g>
<!-- Node1&#45;&gt;Node13 -->
<g id="edge12_Node000001_Node000013" class="edge">
<title>Node1&#45;&gt;Node13</title>
<g id="a_edge12_Node000001_Node000013"><a xlink:title=" ">
<path fill="none" stroke="#63b8ff" d="M1811.65,-66.64C1803.24,-65.55 1794.65,-64.42 1786.16,-63.31"/>
<polygon fill="#63b8ff" stroke="#63b8ff" points="1811.42,-70.14 1821.79,-67.97 1812.33,-63.2 1811.42,-70.14"/>
</a>
</g>
</g>
<!-- Node16 -->
<g id="Node000016" class="node">
<title>Node16</title>
<g id="a_Node000016"><a xlink:href="classSwitchBlock.html#a7a81608dca0e1a59b20f6f0c480435c5" target="_top" xlink:title="Retourne une représentation textuelle pour le débogage.">
<polygon fill="white" stroke="#666666" points="1762.5,-19 1642.5,-19 1642.5,0 1762.5,0 1762.5,-19"/>
<text text-anchor="middle" x="1702.5" y="-7" font-family="Helvetica,sans-Serif" font-size="10.00">SwitchBlock::toString</text>
</a>
</g>
</g>
<!-- Node1&#45;&gt;Node16 -->
<g id="edge16_Node000001_Node000016" class="edge">
<title>Node1&#45;&gt;Node16</title>
<g id="a_edge16_Node000001_Node000016"><a xlink:title=" ">
<path fill="none" stroke="#63b8ff" d="M1860.88,-62.15C1840.87,-51.64 1812.31,-37.66 1786,-28.5 1775.45,-24.83 1763.89,-21.66 1752.86,-19.02"/>
<polygon fill="#63b8ff" stroke="#63b8ff" points="1859.5,-65.38 1869.97,-66.99 1862.79,-59.2 1859.5,-65.38"/>
</a>
</g>
</g>
<!-- Node3 -->
<g id="Node000003" class="node">
<title>Node3</title>
<g id="a_Node000003"><a xlink:href="classSwitchOrientator.html#a5af1a097baad421ce01bd013be602df7" target="_top" xlink:title="Exécute les phases 6, 6b, 6c et 6d en place sur topoResult.">
<polygon fill="white" stroke="#666666" points="1575.5,-144 1442.5,-144 1442.5,-125 1575.5,-125 1575.5,-144"/>
<text text-anchor="middle" x="1509" y="-132" font-family="Helvetica,sans-Serif" font-size="10.00">SwitchOrientator::orient</text>
</a>
</g>
</g>
<!-- Node2&#45;&gt;Node3 -->
<g id="edge2_Node000002_Node000003" class="edge">
<title>Node2&#45;&gt;Node3</title>
<g id="a_edge2_Node000002_Node000003"><a xlink:title=" ">
<path fill="none" stroke="#63b8ff" d="M1618.49,-142.43C1604.18,-141.39 1589.48,-140.31 1575.7,-139.3"/>
<polygon fill="#63b8ff" stroke="#63b8ff" points="1618.6,-145.95 1628.83,-143.19 1619.11,-138.97 1618.6,-145.95"/>
</a>
</g>
</g>
<!-- Node4 -->
<g id="Node000004" class="node">
<title>Node4</title>
<g id="a_Node000004"><a xlink:href="classGeoParser.html#aa4acc69a49444b9aa06b2c028b2c1133" target="_top" xlink:title="Lance le pipeline complet.">
<polygon fill="white" stroke="#666666" points="1399,-140 1300,-140 1300,-121 1399,-121 1399,-140"/>
<text text-anchor="middle" x="1349.5" y="-128" font-family="Helvetica,sans-Serif" font-size="10.00">GeoParser::parse</text>
</a>
</g>
</g>
<!-- Node3&#45;&gt;Node4 -->
<g id="edge3_Node000003_Node000004" class="edge">
<title>Node3&#45;&gt;Node4</title>
<g id="a_edge3_Node000003_Node000004"><a xlink:title=" ">
<path fill="none" stroke="#63b8ff" d="M1431.97,-132.57C1420.87,-132.29 1409.7,-132 1399.34,-131.74"/>
<polygon fill="#63b8ff" stroke="#63b8ff" points="1432.03,-136.07 1442.12,-132.83 1432.21,-129.07 1432.03,-136.07"/>
</a>
</g>
</g>
<!-- Node5 -->
<g id="Node000005" class="node">
<title>Node5</title>
<g id="a_Node000005"><a xlink:href="classGeoParsingTask.html#affe9d461e96e029708ced380b63da972" target="_top" xlink:title="Lance le parsing GeoJSON dans un thread séparé et détaché.">
<polygon fill="white" stroke="#666666" points="1244,-140 1113,-140 1113,-121 1244,-121 1244,-140"/>
<text text-anchor="middle" x="1178.5" y="-128" font-family="Helvetica,sans-Serif" font-size="10.00">GeoParsingTask::launch</text>
</a>
</g>
</g>
<!-- Node4&#45;&gt;Node5 -->
<g id="edge4_Node000004_Node000005" class="edge">
<title>Node4&#45;&gt;Node5</title>
<g id="a_edge4_Node000004_Node000005"><a xlink:title=" ">
<path fill="none" stroke="#63b8ff" d="M1289.2,-130.5C1274.58,-130.5 1258.86,-130.5 1244.01,-130.5"/>
<polygon fill="#63b8ff" stroke="#63b8ff" points="1289.62,-134 1299.62,-130.5 1289.62,-127 1289.62,-134"/>
</a>
</g>
</g>
<!-- Node6 -->
<g id="Node000006" class="node">
<title>Node6</title>
<g id="a_Node000006"><a xlink:href="classMainWindow.html#a889cc45fb741e12015f4af9f01acaa96" target="_top" xlink:title="Ouvre le sélecteur de fichier et lance le parsing asynchrone.">
<polygon fill="white" stroke="#666666" points="1057,-133 917,-133 917,-114 1057,-114 1057,-133"/>
<text text-anchor="middle" x="987" y="-121" font-family="Helvetica,sans-Serif" font-size="10.00">MainWindow::onFileOpen</text>
</a>
</g>
</g>
<!-- Node5&#45;&gt;Node6 -->
<g id="edge5_Node000005_Node000006" class="edge">
<title>Node5&#45;&gt;Node6</title>
<g id="a_edge5_Node000005_Node000006"><a xlink:title=" ">
<path fill="none" stroke="#63b8ff" d="M1102.59,-127.73C1087.64,-127.18 1072,-126.6 1057.25,-126.06"/>
<polygon fill="#63b8ff" stroke="#63b8ff" points="1102.69,-131.24 1112.81,-128.11 1102.95,-124.24 1102.69,-131.24"/>
</a>
</g>
</g>
<!-- Node7 -->
<g id="Node000007" class="node">
<title>Node7</title>
<g id="a_Node000007"><a xlink:href="classMainWindow.html#afbecf0f64f48c5c868168884bab52356" target="_top" xlink:title="Gère les commandes menu (WM_COMMAND).">
<polygon fill="white" stroke="#666666" points="881,-130 734,-130 734,-111 881,-111 881,-130"/>
<text text-anchor="middle" x="807.5" y="-118" font-family="Helvetica,sans-Serif" font-size="10.00">MainWindow::onCommand</text>
</a>
</g>
</g>
<!-- Node6&#45;&gt;Node7 -->
<g id="edge6_Node000006_Node000007" class="edge">
<title>Node6&#45;&gt;Node7</title>
<g id="a_edge6_Node000006_Node000007"><a xlink:title=" ">
<path fill="none" stroke="#63b8ff" d="M906.64,-122.16C898.19,-122.02 889.62,-121.87 881.26,-121.73"/>
<polygon fill="#63b8ff" stroke="#63b8ff" points="906.81,-125.66 916.87,-122.33 906.93,-118.66 906.81,-125.66"/>
</a>
</g>
</g>
<!-- Node8 -->
<g id="Node000008" class="node">
<title>Node8</title>
<g id="a_Node000008"><a xlink:href="classMainWindow.html#ab85682874f3ab5dfa81f782f889d8556" target="_top" xlink:title="Dispatcher principal des messages de la fenêtre.">
<polygon fill="white" stroke="#666666" points="698,-111 537,-111 537,-92 698,-92 698,-111"/>
<text text-anchor="middle" x="617.5" y="-99" font-family="Helvetica,sans-Serif" font-size="10.00">MainWindow::handleMessage</text>
</a>
</g>
</g>
<!-- Node7&#45;&gt;Node8 -->
<g id="edge7_Node000007_Node000008" class="edge">
<title>Node7&#45;&gt;Node8</title>
<g id="a_edge7_Node000007_Node000008"><a xlink:title=" ">
<path fill="none" stroke="#63b8ff" d="M723.59,-112.12C715.15,-111.27 706.58,-110.4 698.17,-109.55"/>
<polygon fill="#63b8ff" stroke="#63b8ff" points="723.51,-115.63 733.81,-113.15 724.22,-108.67 723.51,-115.63"/>
</a>
</g>
</g>
<!-- Node9 -->
<g id="Node000009" class="node">
<title>Node9</title>
<g id="a_Node000009"><a xlink:href="classMainWindow.html#a332648d0a0caec8070b05bc27bb9a14b" target="_top" xlink:title="Procédure de fenêtre statique, point d&#39;entrée imposé par Win32.">
<polygon fill="white" stroke="#666666" points="501,-111 358,-111 358,-92 501,-92 501,-111"/>
<text text-anchor="middle" x="429.5" y="-99" font-family="Helvetica,sans-Serif" font-size="10.00">MainWindow::windowProc</text>
</a>
</g>
</g>
<!-- Node8&#45;&gt;Node9 -->
<g id="edge8_Node000008_Node000009" class="edge">
<title>Node8&#45;&gt;Node9</title>
<g id="a_edge8_Node000008_Node000009"><a xlink:title=" ">
<path fill="none" stroke="#63b8ff" d="M526.77,-101.5C518.2,-101.5 509.58,-101.5 501.22,-101.5"/>
<polygon fill="#63b8ff" stroke="#63b8ff" points="526.81,-105 536.81,-101.5 526.81,-98 526.81,-105"/>
</a>
</g>
</g>
<!-- Node10 -->
<g id="Node000010" class="node">
<title>Node10</title>
<g id="a_Node000010"><a xlink:href="classApplication.html#a0bda40de108938fd29374335bf4eac71" target="_top" xlink:title="Enregistre la classe de fenêtre Win32 (WNDCLASSEXW).">
<polygon fill="white" stroke="#666666" points="322,-116.5 168,-116.5 168,-86.5 322,-86.5 322,-116.5"/>
<text text-anchor="start" x="176" y="-104.5" font-family="Helvetica,sans-Serif" font-size="10.00">Application::registerWindow</text>
<text text-anchor="middle" x="245" y="-93.5" font-family="Helvetica,sans-Serif" font-size="10.00">Class</text>
</a>
</g>
</g>
<!-- Node9&#45;&gt;Node10 -->
<g id="edge9_Node000009_Node000010" class="edge">
<title>Node9&#45;&gt;Node10</title>
<g id="a_edge9_Node000009_Node000010"><a xlink:title=" ">
<path fill="none" stroke="#63b8ff" d="M347.66,-101.5C339.17,-101.5 330.56,-101.5 322.12,-101.5"/>
<polygon fill="#63b8ff" stroke="#63b8ff" points="347.94,-105 357.94,-101.5 347.94,-98 347.94,-105"/>
</a>
</g>
</g>
<!-- Node11 -->
<g id="Node000011" class="node">
<title>Node11</title>
<g id="a_Node000011"><a xlink:href="classApplication.html#a719cf091afd2276d52f9a58e4962ebfb" target="_top" xlink:title="Construit l&#39;application et enregistre la classe de fenêtre.">
<polygon fill="white" stroke="#666666" points="132,-111 0,-111 0,-92 132,-92 132,-111"/>
<text text-anchor="middle" x="66" y="-99" font-family="Helvetica,sans-Serif" font-size="10.00">Application::Application</text>
</a>
</g>
</g>
<!-- Node10&#45;&gt;Node11 -->
<g id="edge10_Node000010_Node000011" class="edge">
<title>Node10&#45;&gt;Node11</title>
<g id="a_edge10_Node000010_Node000011"><a xlink:title=" ">
<path fill="none" stroke="#63b8ff" d="M157.82,-101.5C149.19,-101.5 140.53,-101.5 132.18,-101.5"/>
<polygon fill="#63b8ff" stroke="#63b8ff" points="157.91,-105 167.91,-101.5 157.91,-98 157.91,-105"/>
</a>
</g>
</g>
<!-- Node14 -->
<g id="Node000014" class="node">
<title>Node14</title>
<g id="a_Node000014"><a xlink:href="classGeoJsonExporter.html#a75d6c6a4354d06d04a700b58d69e869f" target="_top" xlink:title="Efface puis redessine les branches de tous les switches.">
<polygon fill="white" stroke="#666666" points="1583,-93.5 1435,-93.5 1435,-63.5 1583,-63.5 1583,-93.5"/>
<text text-anchor="start" x="1443" y="-81.5" font-family="Helvetica,sans-Serif" font-size="10.00">GeoJsonExporter::renderAll</text>
<text text-anchor="middle" x="1509" y="-70.5" font-family="Helvetica,sans-Serif" font-size="10.00">SwitchBranches</text>
</a>
</g>
</g>
<!-- Node13&#45;&gt;Node14 -->
<g id="edge13_Node000013_Node000014" class="edge">
<title>Node13&#45;&gt;Node14</title>
<g id="a_edge13_Node000013_Node000014"><a xlink:title=" ">
<path fill="none" stroke="#63b8ff" d="M1608.86,-65.08C1600.27,-66.24 1591.66,-67.41 1583.29,-68.55"/>
<polygon fill="#63b8ff" stroke="#63b8ff" points="1609.46,-68.53 1618.9,-63.71 1608.52,-61.59 1609.46,-68.53"/>
</a>
</g>
</g>
<!-- Node15 -->
<g id="Node000015" class="node">
<title>Node15</title>
<g id="a_Node000015"><a xlink:href="classMainWindow.html#a90cae565f67d1291d690d974547041a0" target="_top" xlink:title="Gère la fin réussie du parsing (WM_PARSING_SUCCESS).">
<polygon fill="white" stroke="#666666" points="1264,-91 1093,-91 1093,-72 1264,-72 1264,-91"/>
<text text-anchor="middle" x="1178.5" y="-79" font-family="Helvetica,sans-Serif" font-size="10.00">MainWindow::onParsingSuccess</text>
</a>
</g>
</g>
<!-- Node14&#45;&gt;Node15 -->
<g id="edge14_Node000014_Node000015" class="edge">
<title>Node14&#45;&gt;Node15</title>
<g id="a_edge14_Node000014_Node000015"><a xlink:title=" ">
<path fill="none" stroke="#63b8ff" d="M1424.42,-79.26C1375.33,-79.71 1313.47,-80.28 1264.19,-80.73"/>
<polygon fill="#63b8ff" stroke="#63b8ff" points="1424.72,-82.76 1434.69,-79.17 1424.66,-75.76 1424.72,-82.76"/>
</a>
</g>
</g>
<!-- Node15&#45;&gt;Node8 -->
<g id="edge15_Node000015_Node000008" class="edge">
<title>Node15&#45;&gt;Node8</title>
<g id="a_edge15_Node000015_Node000008"><a xlink:title=" ">
<path fill="none" stroke="#63b8ff" d="M1082.66,-84.89C974.57,-88.76 799.82,-95.01 698.39,-98.64"/>
<polygon fill="#63b8ff" stroke="#63b8ff" points="1083.04,-88.38 1092.9,-84.53 1082.78,-81.39 1083.04,-88.38"/>
</a>
</g>
</g>
</g>
</svg>
