<?xml version="1.0" encoding="UTF-8" standalone="no"?>
<!DOCTYPE svg PUBLIC "-//W3C//DTD SVG 1.1//EN"
 "http://www.w3.org/Graphics/SVG/1.1/DTD/svg11.dtd">
<!-- Generated by graphviz version 2.43.0 (0)
 -->
<!-- Title: GeometryUtils::metricUtmToWgs84 Pages: 1 -->
<svg width="2123pt" height="203pt"
 viewBox="0.00 0.00 2123.00 203.00" xmlns="http://www.w3.org/2000/svg" xmlns:xlink="http://www.w3.org/1999/xlink">
<g id="graph0" class="graph" transform="scale(1 1) rotate(0) translate(4 199)">
<title>GeometryUtils::metricUtmToWgs84</title>
<!-- Node1 -->
<g id="Node000001" class="node">
<title>Node1</title>
<g id="a_Node000001"><a xlink:title="Convertit une coordonnée métrique UTM en WGS&#45;84.">
<polygon fill="#999999" stroke="#666666" points="2115,-126 1969,-126 1969,-96 2115,-96 2115,-126"/>
<text text-anchor="start" x="1977" y="-114" font-family="Helvetica,sans-Serif" font-size="10.00">GeometryUtils::metricUtm</text>
<text text-anchor="middle" x="2042" y="-103" font-family="Helvetica,sans-Serif" font-size="10.00">ToWgs84</text>
</a>
</g>
</g>
<!-- Node2 -->
<g id="Node000002" class="node">
<title>Node2</title>
<g id="a_Node000002"><a xlink:href="classGeometryUtils.html#aba6963b2f6022f04e51fb716a11e3895" target="_top" xlink:title="Convertit une polyligne métrique UTM en WGS&#45;84.">
<polygon fill="white" stroke="#666666" points="1933,-126 1763,-126 1763,-96 1933,-96 1933,-126"/>
<text text-anchor="start" x="1771" y="-114" font-family="Helvetica,sans-Serif" font-size="10.00">GeometryUtils::convertPolyline</text>
<text text-anchor="middle" x="1848" y="-103" font-family="Helvetica,sans-Serif" font-size="10.00">ToWgs84</text>
</a>
</g>
</g>
<!-- Node1&#45;&gt;Node2 -->
<g id="edge1_Node000001_Node000002" class="edge">
<title>Node1&#45;&gt;Node2</title>
<g id="a_edge1_Node000001_Node000002"><a xlink:title=" ">
<path fill="none" stroke="#63b8ff" d="M1958.7,-111C1950.22,-111 1941.58,-111 1933.08,-111"/>
<polygon fill="#63b8ff" stroke="#63b8ff" points="1958.96,-114.5 1968.96,-111 1958.96,-107.5 1958.96,-114.5"/>
</a>
</g>
</g>
<!-- Node16 -->
<g id="Node000016" class="node">
<title>Node16</title>
<g id="a_Node000016"><a xlink:href="classTopologyExtractor.html#abfb30b40b7194303e6c828d802dd1175" target="_top" xlink:title=" ">
<polygon fill="white" stroke="#666666" points="1903,-195 1793,-195 1793,-165 1903,-165 1903,-195"/>
<text text-anchor="start" x="1801" y="-183" font-family="Helvetica,sans-Serif" font-size="10.00">TopologyExtractor::</text>
<text text-anchor="middle" x="1848" y="-172" font-family="Helvetica,sans-Serif" font-size="10.00">detectSwitches</text>
</a>
</g>
</g>
<!-- Node1&#45;&gt;Node16 -->
<g id="edge17_Node000001_Node000016" class="edge">
<title>Node1&#45;&gt;Node16</title>
<g id="a_edge17_Node000001_Node000016"><a xlink:title=" ">
<path fill="none" stroke="#63b8ff" d="M1989.17,-129.63C1958.41,-140.68 1919.9,-154.52 1891.04,-164.89"/>
<polygon fill="#63b8ff" stroke="#63b8ff" points="1990.64,-132.82 1998.86,-126.14 1988.27,-126.23 1990.64,-132.82"/>
</a>
</g>
</g>
<!-- Node17 -->
<g id="Node000017" class="node">
<title>Node17</title>
<g id="a_Node000017"><a xlink:href="classSwitchOrientator.html#af602429b8a3a2d38e92515cfd2d76ecd" target="_top" xlink:title="Interpole un point tip à distanceMeters depuis la jonction le long d&#39;un Straight.">
<polygon fill="white" stroke="#666666" points="1927,-54 1769,-54 1769,-24 1927,-24 1927,-54"/>
<text text-anchor="start" x="1777" y="-42" font-family="Helvetica,sans-Serif" font-size="10.00">SwitchOrientator::interpolate</text>
<text text-anchor="middle" x="1848" y="-31" font-family="Helvetica,sans-Serif" font-size="10.00">TipPoint</text>
</a>
</g>
</g>
<!-- Node1&#45;&gt;Node17 -->
<g id="edge19_Node000001_Node000017" class="edge">
<title>Node1&#45;&gt;Node17</title>
<g id="a_edge19_Node000001_Node000017"><a xlink:title=" ">
<path fill="none" stroke="#63b8ff" d="M1991.21,-92.33C1959.47,-80.43 1918.88,-65.21 1889.2,-54.07"/>
<polygon fill="#63b8ff" stroke="#63b8ff" points="1990.16,-95.67 2000.75,-95.91 1992.62,-89.12 1990.16,-95.67"/>
</a>
</g>
</g>
<!-- Node3 -->
<g id="Node000003" class="node">
<title>Node3</title>
<g id="a_Node000003"><a xlink:href="classTopologyExtractor.html#a8003022ac7f09c074969ec22d3305429" target="_top" xlink:title=" ">
<polygon fill="white" stroke="#666666" points="1700.5,-174 1590.5,-174 1590.5,-144 1700.5,-144 1700.5,-174"/>
<text text-anchor="start" x="1598.5" y="-162" font-family="Helvetica,sans-Serif" font-size="10.00">TopologyExtractor::</text>
<text text-anchor="middle" x="1645.5" y="-151" font-family="Helvetica,sans-Serif" font-size="10.00">extractStraights</text>
</a>
</g>
</g>
<!-- Node2&#45;&gt;Node3 -->
<g id="edge2_Node000002_Node000003" class="edge">
<title>Node2&#45;&gt;Node3</title>
<g id="a_edge2_Node000002_Node000003"><a xlink:title=" ">
<path fill="none" stroke="#63b8ff" d="M1774.22,-128.42C1749.94,-134.24 1723.33,-140.61 1700.72,-146.02"/>
<polygon fill="#63b8ff" stroke="#63b8ff" points="1775.2,-131.79 1784.11,-126.06 1773.57,-124.98 1775.2,-131.79"/>
</a>
</g>
</g>
<!-- Node13 -->
<g id="Node000013" class="node">
<title>Node13</title>
<g id="a_Node000013"><a xlink:href="classTopologyExtractor.html#a8fe29fd6ba117f652d0e545869a99c61" target="_top" xlink:title=" ">
<polygon fill="white" stroke="#666666" points="1700.5,-126 1590.5,-126 1590.5,-96 1700.5,-96 1700.5,-126"/>
<text text-anchor="start" x="1598.5" y="-114" font-family="Helvetica,sans-Serif" font-size="10.00">TopologyExtractor::</text>
<text text-anchor="middle" x="1645.5" y="-103" font-family="Helvetica,sans-Serif" font-size="10.00">splitLongStraights</text>
</a>
</g>
</g>
<!-- Node2&#45;&gt;Node13 -->
<g id="edge12_Node000002_Node000013" class="edge">
<title>Node2&#45;&gt;Node13</title>
<g id="a_edge12_Node000002_Node000013"><a xlink:title=" ">
<path fill="none" stroke="#63b8ff" d="M1752.44,-111C1734.7,-111 1716.73,-111 1700.74,-111"/>
<polygon fill="#63b8ff" stroke="#63b8ff" points="1752.84,-114.5 1762.84,-111 1752.84,-107.5 1752.84,-114.5"/>
</a>
</g>
</g>
<!-- Node14 -->
<g id="Node000014" class="node">
<title>Node14</title>
<g id="a_Node000014"><a xlink:href="classSwitchOrientator.html#ac80814892c9baea379f2b4e9f22b966e" target="_top" xlink:title="Retaille chaque StraightBlock adjacent à une jonction pour qu&#39;il commence (ou se termine) exactement ...">
<polygon fill="white" stroke="#666666" points="1727,-78 1564,-78 1564,-48 1727,-48 1727,-78"/>
<text text-anchor="start" x="1572" y="-66" font-family="Helvetica,sans-Serif" font-size="10.00">SwitchOrientator::trimStraight</text>
<text text-anchor="middle" x="1645.5" y="-55" font-family="Helvetica,sans-Serif" font-size="10.00">Overlaps</text>
</a>
</g>
</g>
<!-- Node2&#45;&gt;Node14 -->
<g id="edge14_Node000002_Node000014" class="edge">
<title>Node2&#45;&gt;Node14</title>
<g id="a_edge14_Node000002_Node000014"><a xlink:title=" ">
<path fill="none" stroke="#63b8ff" d="M1774.14,-93.56C1752.85,-88.46 1729.77,-82.93 1709.17,-78"/>
<polygon fill="#63b8ff" stroke="#63b8ff" points="1773.57,-97.02 1784.11,-95.94 1775.2,-90.21 1773.57,-97.02"/>
</a>
</g>
</g>
<!-- Node4 -->
<g id="Node000004" class="node">
<title>Node4</title>
<g id="a_Node000004"><a xlink:href="classTopologyExtractor.html#a356459ec218bf270f643460da781bd0d" target="_top" xlink:title="Exécute les phases 3, 4, 5a et 5b et retourne le résultat.">
<polygon fill="white" stroke="#666666" points="1516.5,-150 1406.5,-150 1406.5,-120 1516.5,-120 1516.5,-150"/>
<text text-anchor="start" x="1414.5" y="-138" font-family="Helvetica,sans-Serif" font-size="10.00">TopologyExtractor::</text>
<text text-anchor="middle" x="1461.5" y="-127" font-family="Helvetica,sans-Serif" font-size="10.00">extract</text>
</a>
</g>
</g>
<!-- Node3&#45;&gt;Node4 -->
<g id="edge3_Node000003_Node000004" class="edge">
<title>Node3&#45;&gt;Node4</title>
<g id="a_edge3_Node000003_Node000004"><a xlink:title=" ">
<path fill="none" stroke="#63b8ff" d="M1580.37,-150.54C1559.57,-147.8 1536.72,-144.79 1516.72,-142.15"/>
<polygon fill="#63b8ff" stroke="#63b8ff" points="1580.01,-154.03 1590.39,-151.86 1580.93,-147.09 1580.01,-154.03"/>
</a>
</g>
</g>
<!-- Node5 -->
<g id="Node000005" class="node">
<title>Node5</title>
<g id="a_Node000005"><a xlink:href="classGeoParser.html#aa4acc69a49444b9aa06b2c028b2c1133" target="_top" xlink:title="Lance le pipeline complet.">
<polygon fill="white" stroke="#666666" points="1359,-96.5 1260,-96.5 1260,-77.5 1359,-77.5 1359,-96.5"/>
<text text-anchor="middle" x="1309.5" y="-84.5" font-family="Helvetica,sans-Serif" font-size="10.00">GeoParser::parse</text>
</a>
</g>
</g>
<!-- Node4&#45;&gt;Node5 -->
<g id="edge4_Node000004_Node000005" class="edge">
<title>Node4&#45;&gt;Node5</title>
<g id="a_edge4_Node000004_Node000005"><a xlink:title=" ">
<path fill="none" stroke="#63b8ff" d="M1403.73,-116.83C1382.18,-109.94 1358.49,-102.36 1340.39,-96.56"/>
<polygon fill="#63b8ff" stroke="#63b8ff" points="1402.86,-120.23 1413.45,-119.94 1404.99,-113.56 1402.86,-120.23"/>
</a>
</g>
</g>
<!-- Node6 -->
<g id="Node000006" class="node">
<title>Node6</title>
<g id="a_Node000006"><a xlink:href="classGeoParsingTask.html#affe9d461e96e029708ced380b63da972" target="_top" xlink:title="Lance le parsing GeoJSON dans un thread séparé et détaché.">
<polygon fill="white" stroke="#666666" points="1224,-96.5 1093,-96.5 1093,-77.5 1224,-77.5 1224,-96.5"/>
<text text-anchor="middle" x="1158.5" y="-84.5" font-family="Helvetica,sans-Serif" font-size="10.00">GeoParsingTask::launch</text>
</a>
</g>
</g>
<!-- Node5&#45;&gt;Node6 -->
<g id="edge5_Node000005_Node000006" class="edge">
<title>Node5&#45;&gt;Node6</title>
<g id="a_edge5_Node000005_Node000006"><a xlink:title=" ">
<path fill="none" stroke="#63b8ff" d="M1249.65,-87C1241.27,-87 1232.6,-87 1224.12,-87"/>
<polygon fill="#63b8ff" stroke="#63b8ff" points="1249.71,-90.5 1259.71,-87 1249.71,-83.5 1249.71,-90.5"/>
</a>
</g>
</g>
<!-- Node7 -->
<g id="Node000007" class="node">
<title>Node7</title>
<g id="a_Node000007"><a xlink:href="classMainWindow.html#a889cc45fb741e12015f4af9f01acaa96" target="_top" xlink:title="Ouvre le sélecteur de fichier et lance le parsing asynchrone.">
<polygon fill="white" stroke="#666666" points="1057,-96.5 917,-96.5 917,-77.5 1057,-77.5 1057,-96.5"/>
<text text-anchor="middle" x="987" y="-84.5" font-family="Helvetica,sans-Serif" font-size="10.00">MainWindow::onFileOpen</text>
</a>
</g>
</g>
<!-- Node6&#45;&gt;Node7 -->
<g id="edge6_Node000006_Node000007" class="edge">
<title>Node6&#45;&gt;Node7</title>
<g id="a_edge6_Node000006_Node000007"><a xlink:title=" ">
<path fill="none" stroke="#63b8ff" d="M1082.68,-87C1074.2,-87 1065.59,-87 1057.18,-87"/>
<polygon fill="#63b8ff" stroke="#63b8ff" points="1082.94,-90.5 1092.94,-87 1082.94,-83.5 1082.94,-90.5"/>
</a>
</g>
</g>
<!-- Node8 -->
<g id="Node000008" class="node">
<title>Node8</title>
<g id="a_Node000008"><a xlink:href="classMainWindow.html#afbecf0f64f48c5c868168884bab52356" target="_top" xlink:title="Gère les commandes menu (WM_COMMAND).">
<polygon fill="white" stroke="#666666" points="881,-96.5 734,-96.5 734,-77.5 881,-77.5 881,-96.5"/>
<text text-anchor="middle" x="807.5" y="-84.5" font-family="Helvetica,sans-Serif" font-size="10.00">MainWindow::onCommand</text>
</a>
</g>
</g>
<!-- Node7&#45;&gt;Node8 -->
<g id="edge7_Node000007_Node000008" class="edge">
<title>Node7&#45;&gt;Node8</title>
<g id="a_edge7_Node000007_Node000008"><a xlink:title=" ">
<path fill="none" stroke="#63b8ff" d="M906.64,-87C898.19,-87 889.62,-87 881.26,-87"/>
<polygon fill="#63b8ff" stroke="#63b8ff" points="906.87,-90.5 916.87,-87 906.87,-83.5 906.87,-90.5"/>
</a>
</g>
</g>
<!-- Node9 -->
<g id="Node000009" class="node">
<title>Node9</title>
<g id="a_Node000009"><a xlink:href="classMainWindow.html#ab85682874f3ab5dfa81f782f889d8556" target="_top" xlink:title="Dispatcher principal des messages de la fenêtre.">
<polygon fill="white" stroke="#666666" points="698,-96.5 537,-96.5 537,-77.5 698,-77.5 698,-96.5"/>
<text text-anchor="middle" x="617.5" y="-84.5" font-family="Helvetica,sans-Serif" font-size="10.00">MainWindow::handleMessage</text>
</a>
</g>
</g>
<!-- Node8&#45;&gt;Node9 -->
<g id="edge8_Node000008_Node000009" class="edge">
<title>Node8&#45;&gt;Node9</title>
<g id="a_edge8_Node000008_Node000009"><a xlink:title=" ">
<path fill="none" stroke="#63b8ff" d="M723.59,-87C715.15,-87 706.58,-87 698.17,-87"/>
<polygon fill="#63b8ff" stroke="#63b8ff" points="723.81,-90.5 733.81,-87 723.81,-83.5 723.81,-90.5"/>
</a>
</g>
</g>
<!-- Node10 -->
<g id="Node000010" class="node">
<title>Node10</title>
<g id="a_Node000010"><a xlink:href="classMainWindow.html#a332648d0a0caec8070b05bc27bb9a14b" target="_top" xlink:title="Procédure de fenêtre statique, point d&#39;entrée imposé par Win32.">
<polygon fill="white" stroke="#666666" points="501,-96.5 358,-96.5 358,-77.5 501,-77.5 501,-96.5"/>
<text text-anchor="middle" x="429.5" y="-84.5" font-family="Helvetica,sans-Serif" font-size="10.00">MainWindow::windowProc</text>
</a>
</g>
</g>
<!-- Node9&#45;&gt;Node10 -->
<g id="edge9_Node000009_Node000010" class="edge">
<title>Node9&#45;&gt;Node10</title>
<g id="a_edge9_Node000009_Node000010"><a xlink:title=" ">
<path fill="none" stroke="#63b8ff" d="M526.77,-87C518.2,-87 509.58,-87 501.22,-87"/>
<polygon fill="#63b8ff" stroke="#63b8ff" points="526.81,-90.5 536.81,-87 526.81,-83.5 526.81,-90.5"/>
</a>
</g>
</g>
<!-- Node11 -->
<g id="Node000011" class="node">
<title>Node11</title>
<g id="a_Node000011"><a xlink:href="classApplication.html#a0bda40de108938fd29374335bf4eac71" target="_top" xlink:title="Enregistre la classe de fenêtre Win32 (WNDCLASSEXW).">
<polygon fill="white" stroke="#666666" points="322,-102 168,-102 168,-72 322,-72 322,-102"/>
<text text-anchor="start" x="176" y="-90" font-family="Helvetica,sans-Serif" font-size="10.00">Application::registerWindow</text>
<text text-anchor="middle" x="245" y="-79" font-family="Helvetica,sans-Serif" font-size="10.00">Class</text>
</a>
</g>
</g>
<!-- Node10&#45;&gt;Node11 -->
<g id="edge10_Node000010_Node000011" class="edge">
<title>Node10&#45;&gt;Node11</title>
<g id="a_edge10_Node000010_Node000011"><a xlink:title=" ">
<path fill="none" stroke="#63b8ff" d="M347.66,-87C339.17,-87 330.56,-87 322.12,-87"/>
<polygon fill="#63b8ff" stroke="#63b8ff" points="347.94,-90.5 357.94,-87 347.94,-83.5 347.94,-90.5"/>
</a>
</g>
</g>
<!-- Node12 -->
<g id="Node000012" class="node">
<title>Node12</title>
<g id="a_Node000012"><a xlink:href="classApplication.html#a719cf091afd2276d52f9a58e4962ebfb" target="_top" xlink:title="Construit l&#39;application et enregistre la classe de fenêtre.">
<polygon fill="white" stroke="#666666" points="132,-96.5 0,-96.5 0,-77.5 132,-77.5 132,-96.5"/>
<text text-anchor="middle" x="66" y="-84.5" font-family="Helvetica,sans-Serif" font-size="10.00">Application::Application</text>
</a>
</g>
</g>
<!-- Node11&#45;&gt;Node12 -->
<g id="edge11_Node000011_Node000012" class="edge">
<title>Node11&#45;&gt;Node12</title>
<g id="a_edge11_Node000011_Node000012"><a xlink:title=" ">
<path fill="none" stroke="#63b8ff" d="M157.82,-87C149.19,-87 140.53,-87 132.18,-87"/>
<polygon fill="#63b8ff" stroke="#63b8ff" points="157.91,-90.5 167.91,-87 157.91,-83.5 157.91,-90.5"/>
</a>
</g>
</g>
<!-- Node13&#45;&gt;Node4 -->
<g id="edge13_Node000013_Node000004" class="edge">
<title>Node13&#45;&gt;Node4</title>
<g id="a_edge13_Node000013_Node000004"><a xlink:title=" ">
<path fill="none" stroke="#63b8ff" d="M1580.37,-119.46C1559.57,-122.2 1536.72,-125.21 1516.72,-127.85"/>
<polygon fill="#63b8ff" stroke="#63b8ff" points="1580.93,-122.91 1590.39,-118.14 1580.01,-115.97 1580.93,-122.91"/>
</a>
</g>
</g>
<!-- Node15 -->
<g id="Node000015" class="node">
<title>Node15</title>
<g id="a_Node000015"><a xlink:href="classSwitchOrientator.html#a5af1a097baad421ce01bd013be602df7" target="_top" xlink:title="Exécute les phases 6, 6b, 6c et 6d en place sur topoResult.">
<polygon fill="white" stroke="#666666" points="1528,-72.5 1395,-72.5 1395,-53.5 1528,-53.5 1528,-72.5"/>
<text text-anchor="middle" x="1461.5" y="-60.5" font-family="Helvetica,sans-Serif" font-size="10.00">SwitchOrientator::orient</text>
</a>
</g>
</g>
<!-- Node14&#45;&gt;Node15 -->
<g id="edge15_Node000014_Node000015" class="edge">
<title>Node14&#45;&gt;Node15</title>
<g id="a_edge15_Node000014_Node000015"><a xlink:title=" ">
<path fill="none" stroke="#63b8ff" d="M1553.73,-63C1545.07,-63 1536.41,-63 1528.05,-63"/>
<polygon fill="#63b8ff" stroke="#63b8ff" points="1553.88,-66.5 1563.88,-63 1553.88,-59.5 1553.88,-66.5"/>
</a>
</g>
</g>
<!-- Node15&#45;&gt;Node5 -->
<g id="edge16_Node000015_Node000005" class="edge">
<title>Node15&#45;&gt;Node5</title>
<g id="a_edge16_Node000015_Node000005"><a xlink:title=" ">
<path fill="none" stroke="#63b8ff" d="M1390.71,-74.17C1380.14,-75.86 1369.42,-77.57 1359.41,-79.17"/>
<polygon fill="#63b8ff" stroke="#63b8ff" points="1391.46,-77.59 1400.79,-72.55 1390.36,-70.68 1391.46,-77.59"/>
</a>
</g>
</g>
<!-- Node16&#45;&gt;Node4 -->
<g id="edge18_Node000016_Node000004" class="edge">
<title>Node16&#45;&gt;Node4</title>
<g id="a_edge18_Node000016_Node000004"><a xlink:title=" ">
<path fill="none" stroke="#63b8ff" d="M1782.65,-189C1724.71,-195.15 1637.6,-199.53 1564,-183 1535.85,-176.68 1506.33,-161.62 1486.42,-150.05"/>
<polygon fill="#63b8ff" stroke="#63b8ff" points="1783.21,-192.46 1792.76,-187.88 1782.44,-185.5 1783.21,-192.46"/>
</a>
</g>
</g>
<!-- Node18 -->
<g id="Node000018" class="node">
<title>Node18</title>
<g id="a_Node000018"><a xlink:href="classSwitchOrientator.html#a8132fa3495845481fdb68a3ec695af15" target="_top" xlink:title="Calcule et assigne les points tip CDC sur un SwitchBlock orienté.">
<polygon fill="white" stroke="#666666" points="1719,-30 1572,-30 1572,0 1719,0 1719,-30"/>
<text text-anchor="start" x="1580" y="-18" font-family="Helvetica,sans-Serif" font-size="10.00">SwitchOrientator::compute</text>
<text text-anchor="middle" x="1645.5" y="-7" font-family="Helvetica,sans-Serif" font-size="10.00">BranchTipPoints</text>
</a>
</g>
</g>
<!-- Node17&#45;&gt;Node18 -->
<g id="edge20_Node000017_Node000018" class="edge">
<title>Node17&#45;&gt;Node18</title>
<g id="a_edge20_Node000017_Node000018"><a xlink:title=" ">
<path fill="none" stroke="#63b8ff" d="M1758.84,-28.45C1745.57,-26.86 1732.02,-25.24 1719.14,-23.69"/>
<polygon fill="#63b8ff" stroke="#63b8ff" points="1758.56,-31.94 1768.91,-29.65 1759.39,-24.99 1758.56,-31.94"/>
</a>
</g>
</g>
<!-- Node18&#45;&gt;Node15 -->
<g id="edge21_Node000018_Node000015" class="edge">
<title>Node18&#45;&gt;Node15</title>
<g id="a_edge21_Node000018_Node000015"><a xlink:title=" ">
<path fill="none" stroke="#63b8ff" d="M1577.73,-32.61C1551.03,-39.65 1521.33,-47.49 1498.77,-53.44"/>
<polygon fill="#63b8ff" stroke="#63b8ff" points="1578.64,-35.99 1587.41,-30.06 1576.85,-29.22 1578.64,-35.99"/>
</a>
</g>
</g>
</g>
</svg>
