<?xml version="1.0" encoding="UTF-8" standalone="no"?>
<!DOCTYPE svg PUBLIC "-//W3C//DTD SVG 1.1//EN"
 "http://www.w3.org/Graphics/SVG/1.1/DTD/svg11.dtd">
<!-- Generated by graphviz version 2.43.0 (0)
 -->
<!-- Title: SwitchOrientator Pages: 1 -->
<svg width="304pt" height="543pt"
 viewBox="0.00 0.00 304.00 543.00" xmlns="http://www.w3.org/2000/svg" xmlns:xlink="http://www.w3.org/1999/xlink">
<g id="graph0" class="graph" transform="scale(1 1) rotate(0) translate(4 539)">
<title>SwitchOrientator</title>
<!-- Node1 -->
<g id="Node000001" class="node">
<title>Node1</title>
<g id="a_Node000001"><a xlink:title="Oriente les aiguillages ferroviaires (root / normal / deviation / tips CDC).">
<polygon fill="#999999" stroke="transparent" points="236.5,-199 55.5,-199 55.5,0 236.5,0 236.5,-199"/>
<text text-anchor="start" x="105.5" y="-186.5" font-family="Helvetica,sans-Serif" font-size="10.00">SwitchOrientator</text>
<text text-anchor="start" x="62.5" y="-171.5" font-family="Helvetica,sans-Serif" font-size="10.00">&#45;</text>
<text text-anchor="start" x="73" y="-171.5" font-family="Helvetica,sans-Serif" font-size="10.00">m_utmZoneNumber</text>
<text text-anchor="start" x="62.5" y="-156.5" font-family="Helvetica,sans-Serif" font-size="10.00">&#45;</text>
<text text-anchor="start" x="73" y="-156.5" font-family="Helvetica,sans-Serif" font-size="10.00">m_isNorthernHemisphere</text>
<text text-anchor="start" x="62.5" y="-141.5" font-family="Helvetica,sans-Serif" font-size="10.00">&#45;</text>
<text text-anchor="start" x="73" y="-141.5" font-family="Helvetica,sans-Serif" font-size="10.00">m_doubleLinkMaxMeters</text>
<text text-anchor="start" x="62.5" y="-126.5" font-family="Helvetica,sans-Serif" font-size="10.00">&#45;</text>
<text text-anchor="start" x="73" y="-126.5" font-family="Helvetica,sans-Serif" font-size="10.00">m_branchTipDistanceMeters</text>
<text text-anchor="start" x="60" y="-111.5" font-family="Helvetica,sans-Serif" font-size="10.00">+</text>
<text text-anchor="start" x="73" y="-111.5" font-family="Helvetica,sans-Serif" font-size="10.00">SwitchOrientator()</text>
<text text-anchor="start" x="60" y="-96.5" font-family="Helvetica,sans-Serif" font-size="10.00">+</text>
<text text-anchor="start" x="73" y="-96.5" font-family="Helvetica,sans-Serif" font-size="10.00">orient()</text>
<text text-anchor="start" x="62.5" y="-81.5" font-family="Helvetica,sans-Serif" font-size="10.00">&#45;</text>
<text text-anchor="start" x="73" y="-81.5" font-family="Helvetica,sans-Serif" font-size="10.00">orientThreePortSwitch()</text>
<text text-anchor="start" x="62.5" y="-66.5" font-family="Helvetica,sans-Serif" font-size="10.00">&#45;</text>
<text text-anchor="start" x="73" y="-66.5" font-family="Helvetica,sans-Serif" font-size="10.00">computeBranchTipPoints()</text>
<text text-anchor="start" x="62.5" y="-51.5" font-family="Helvetica,sans-Serif" font-size="10.00">&#45;</text>
<text text-anchor="start" x="73" y="-51.5" font-family="Helvetica,sans-Serif" font-size="10.00">interpolateTipPoint()</text>
<text text-anchor="start" x="62.5" y="-36.5" font-family="Helvetica,sans-Serif" font-size="10.00">&#45;</text>
<text text-anchor="start" x="73" y="-36.5" font-family="Helvetica,sans-Serif" font-size="10.00">alignDoubleSwitchRoles()</text>
<text text-anchor="start" x="62.5" y="-21.5" font-family="Helvetica,sans-Serif" font-size="10.00">&#45;</text>
<text text-anchor="start" x="73" y="-21.5" font-family="Helvetica,sans-Serif" font-size="10.00">enforceCrossoverConsistency()</text>
<text text-anchor="start" x="62.5" y="-6.5" font-family="Helvetica,sans-Serif" font-size="10.00">&#45;</text>
<text text-anchor="start" x="73" y="-6.5" font-family="Helvetica,sans-Serif" font-size="10.00">computeBranchDirectionVector()</text>
<polygon fill="#666666" stroke="#666666" points="56,-181.5 56,-181.5 237,-181.5 237,-181.5 56,-181.5"/>
<polygon fill="#666666" stroke="#666666" points="56,-121.5 56,-121.5 71,-121.5 71,-121.5 56,-121.5"/>
<polygon fill="#666666" stroke="#666666" points="71,-121.5 71,-121.5 237,-121.5 237,-121.5 71,-121.5"/>
<polygon fill="none" stroke="#666666" points="55.5,0 55.5,-199 236.5,-199 236.5,0 55.5,0"/>
</a>
</g>
</g>
<!-- Node2 -->
<g id="Node000002" class="node">
<title>Node2</title>
<g id="a_Node000002"><a xlink:href="classLogger.html" target="_top" xlink:title="Journaliseur associé à un moteur nommé.">
<polygon fill="white" stroke="transparent" points="136,-535 0,-535 0,-246 136,-246 136,-535"/>
<text text-anchor="start" x="51" y="-522.5" font-family="Helvetica,sans-Serif" font-size="10.00">Logger</text>
<text text-anchor="start" x="6.5" y="-507.5" font-family="Helvetica,sans-Serif" font-size="10.00">&#45;</text>
<text text-anchor="start" x="17" y="-507.5" font-family="Helvetica,sans-Serif" font-size="10.00">m_motorName</text>
<text text-anchor="start" x="6.5" y="-492.5" font-family="Helvetica,sans-Serif" font-size="10.00">&#45;</text>
<text text-anchor="start" x="17" y="-492.5" font-family="Helvetica,sans-Serif" font-size="10.00">m_outputFile</text>
<text text-anchor="start" x="6.5" y="-477.5" font-family="Helvetica,sans-Serif" font-size="10.00">&#45;</text>
<text text-anchor="start" x="17" y="-477.5" font-family="Helvetica,sans-Serif" font-size="10.00">m_writeMutex</text>
<text text-anchor="start" x="6.5" y="-462.5" font-family="Helvetica,sans-Serif" font-size="10.00">&#45;</text>
<text text-anchor="start" x="17" y="-462.5" font-family="Helvetica,sans-Serif" font-size="10.00">m_minimumLevel</text>
<text text-anchor="start" x="4" y="-447.5" font-family="Helvetica,sans-Serif" font-size="10.00">+</text>
<text text-anchor="start" x="17" y="-447.5" font-family="Helvetica,sans-Serif" font-size="10.00">Logger()</text>
<text text-anchor="start" x="4" y="-432.5" font-family="Helvetica,sans-Serif" font-size="10.00">+</text>
<text text-anchor="start" x="17" y="-432.5" font-family="Helvetica,sans-Serif" font-size="10.00">~Logger()</text>
<text text-anchor="start" x="4" y="-417.5" font-family="Helvetica,sans-Serif" font-size="10.00">+</text>
<text text-anchor="start" x="17" y="-417.5" font-family="Helvetica,sans-Serif" font-size="10.00">Logger()</text>
<text text-anchor="start" x="4" y="-402.5" font-family="Helvetica,sans-Serif" font-size="10.00">+</text>
<text text-anchor="start" x="17" y="-402.5" font-family="Helvetica,sans-Serif" font-size="10.00">operator=()</text>
<text text-anchor="start" x="4" y="-387.5" font-family="Helvetica,sans-Serif" font-size="10.00">+</text>
<text text-anchor="start" x="17" y="-387.5" font-family="Helvetica,sans-Serif" font-size="10.00">writeLog()</text>
<text text-anchor="start" x="4" y="-372.5" font-family="Helvetica,sans-Serif" font-size="10.00">+</text>
<text text-anchor="start" x="17" y="-372.5" font-family="Helvetica,sans-Serif" font-size="10.00">setMinimumLogLevel()</text>
<text text-anchor="start" x="4" y="-357.5" font-family="Helvetica,sans-Serif" font-size="10.00">+</text>
<text text-anchor="start" x="17" y="-357.5" font-family="Helvetica,sans-Serif" font-size="10.00">getMotorName()</text>
<text text-anchor="start" x="4" y="-342.5" font-family="Helvetica,sans-Serif" font-size="10.00">+</text>
<text text-anchor="start" x="17" y="-342.5" font-family="Helvetica,sans-Serif" font-size="10.00">triggerFatalCrash()</text>
<text text-anchor="start" x="6.5" y="-327.5" font-family="Helvetica,sans-Serif" font-size="10.00">&#45;</text>
<text text-anchor="start" x="17" y="-327.5" font-family="Helvetica,sans-Serif" font-size="10.00">extractClassName()</text>
<text text-anchor="start" x="6.5" y="-312.5" font-family="Helvetica,sans-Serif" font-size="10.00">&#45;</text>
<text text-anchor="start" x="17" y="-312.5" font-family="Helvetica,sans-Serif" font-size="10.00">extractFunctionName()</text>
<text text-anchor="start" x="6.5" y="-297.5" font-family="Helvetica,sans-Serif" font-size="10.00">&#45;</text>
<text text-anchor="start" x="17" y="-297.5" font-family="Helvetica,sans-Serif" font-size="10.00">formatLogLine()</text>
<text text-anchor="start" x="6.5" y="-282.5" font-family="Helvetica,sans-Serif" font-size="10.00">&#45;</text>
<text text-anchor="start" x="17" y="-282.5" font-family="Helvetica,sans-Serif" font-size="10.00">levelToString()</text>
<text text-anchor="start" x="6.5" y="-267.5" font-family="Helvetica,sans-Serif" font-size="10.00">&#45;</text>
<text text-anchor="start" x="17" y="-267.5" font-family="Helvetica,sans-Serif" font-size="10.00">getCurrentTimestamp()</text>
<text text-anchor="start" x="6.5" y="-252.5" font-family="Helvetica,sans-Serif" font-size="10.00">&#45;</text>
<text text-anchor="start" x="17" y="-252.5" font-family="Helvetica,sans-Serif" font-size="10.00">sendToDebugOutput()</text>
<polygon fill="#666666" stroke="#666666" points="0,-517.5 0,-517.5 136,-517.5 136,-517.5 0,-517.5"/>
<polygon fill="#666666" stroke="#666666" points="0,-457.5 0,-457.5 15,-457.5 15,-457.5 0,-457.5"/>
<polygon fill="#666666" stroke="#666666" points="15,-457.5 15,-457.5 136,-457.5 136,-457.5 15,-457.5"/>
<polygon fill="none" stroke="#666666" points="0,-246 0,-535 136,-535 136,-246 0,-246"/>
</a>
</g>
</g>
<!-- Node2&#45;&gt;Node1 -->
<g id="edge1_Node000001_Node000002" class="edge">
<title>Node2&#45;&gt;Node1</title>
<g id="a_edge1_Node000001_Node000002"><a xlink:title=" ">
<path fill="none" stroke="#63b8ff" d="M106.77,-245.85C109.92,-234.18 113.07,-222.5 116.14,-211.12"/>
<polygon fill="none" stroke="#63b8ff" points="116.19,-210.96 113.89,-204.13 119.31,-199.38 121.61,-206.21 116.19,-210.96"/>
</a>
</g>
<text text-anchor="middle" x="140.5" y="-220" font-family="Helvetica,sans-Serif" font-size="10.00" fill="grey"> &#45;m_logger</text>
</g>
<!-- Node3 -->
<g id="Node000003" class="node">
<title>Node3</title>
<g id="a_Node000003"><a xlink:href="structTopologyExtractResult.html" target="_top" xlink:title="Résultat complet de l&#39;extraction topologique (Phases 3–5b).">
<polygon fill="white" stroke="transparent" points="296,-445 154,-445 154,-336 296,-336 296,-445"/>
<text text-anchor="start" x="170.5" y="-432.5" font-family="Helvetica,sans-Serif" font-size="10.00">TopologyExtractResult</text>
<text text-anchor="start" x="158" y="-417.5" font-family="Helvetica,sans-Serif" font-size="10.00">+</text>
<text text-anchor="start" x="171" y="-417.5" font-family="Helvetica,sans-Serif" font-size="10.00">switches</text>
<text text-anchor="start" x="158" y="-402.5" font-family="Helvetica,sans-Serif" font-size="10.00">+</text>
<text text-anchor="start" x="171" y="-402.5" font-family="Helvetica,sans-Serif" font-size="10.00">straights</text>
<text text-anchor="start" x="158" y="-387.5" font-family="Helvetica,sans-Serif" font-size="10.00">+</text>
<text text-anchor="start" x="171" y="-387.5" font-family="Helvetica,sans-Serif" font-size="10.00">nodeIdToSwitchId</text>
<text text-anchor="start" x="158" y="-372.5" font-family="Helvetica,sans-Serif" font-size="10.00">+</text>
<text text-anchor="start" x="171" y="-372.5" font-family="Helvetica,sans-Serif" font-size="10.00">switchIdToNodeId</text>
<text text-anchor="start" x="158" y="-357.5" font-family="Helvetica,sans-Serif" font-size="10.00">+</text>
<text text-anchor="start" x="171" y="-357.5" font-family="Helvetica,sans-Serif" font-size="10.00">straightEndpointNodeIds</text>
<text text-anchor="start" x="223" y="-342.5" font-family="Helvetica,sans-Serif" font-size="10.00"> </text>
<polygon fill="#666666" stroke="#666666" points="154,-427.5 154,-427.5 296,-427.5 296,-427.5 154,-427.5"/>
<polygon fill="#666666" stroke="#666666" points="154,-352.5 154,-352.5 169,-352.5 169,-352.5 154,-352.5"/>
<polygon fill="#666666" stroke="#666666" points="169,-352.5 169,-352.5 296,-352.5 296,-352.5 169,-352.5"/>
<polygon fill="none" stroke="#666666" points="154,-336 154,-445 296,-445 296,-336 154,-336"/>
</a>
</g>
</g>
<!-- Node3&#45;&gt;Node1 -->
<g id="edge2_Node000001_Node000003" class="edge">
<title>Node3&#45;&gt;Node1</title>
<g id="a_edge2_Node000001_Node000003"><a xlink:title=" ">
<path fill="none" stroke="#63b8ff" d="M210.33,-335.82C200.74,-300.75 187.88,-253.69 176.17,-210.87"/>
<polygon fill="none" stroke="#63b8ff" points="176.15,-210.79 170.71,-206.06 172.98,-199.21 178.42,-203.95 176.15,-210.79"/>
</a>
</g>
<text text-anchor="middle" x="217.5" y="-220" font-family="Helvetica,sans-Serif" font-size="10.00" fill="grey"> &#45;m_topoResult</text>
</g>
</g>
</svg>
