<?xml version="1.0" encoding="UTF-8" standalone="no"?>
<!DOCTYPE svg PUBLIC "-//W3C//DTD SVG 1.1//EN"
 "http://www.w3.org/Graphics/SVG/1.1/DTD/svg11.dtd">
<!-- Generated by graphviz version 2.43.0 (0)
 -->
<!-- Title: StraightBlock::getCoordinates Pages: 1 -->
<svg width="2229pt" height="215pt"
 viewBox="0.00 0.00 2229.00 215.00" xmlns="http://www.w3.org/2000/svg" xmlns:xlink="http://www.w3.org/1999/xlink">
<g id="graph0" class="graph" transform="scale(1 1) rotate(0) translate(4 211)">
<title>StraightBlock::getCoordinates</title>
<!-- Node1 -->
<g id="Node000001" class="node">
<title>Node1</title>
<g id="a_Node000001"><a xlink:title=" ">
<polygon fill="#999999" stroke="#666666" points="2221,-129.5 2059,-129.5 2059,-110.5 2221,-110.5 2221,-129.5"/>
<text text-anchor="middle" x="2140" y="-117.5" font-family="Helvetica,sans-Serif" font-size="10.00">StraightBlock::getCoordinates</text>
</a>
</g>
</g>
<!-- Node2 -->
<g id="Node000002" class="node">
<title>Node2</title>
<g id="a_Node000002"><a xlink:href="classGeoJsonExporter.html#ae40aed3745c83a9e089cade7067ec11a" target="_top" xlink:title="Convertit un StraightBlock en feature GeoJSON de type LineString.">
<polygon fill="white" stroke="#666666" points="2006.5,-111 1866.5,-111 1866.5,-81 2006.5,-81 2006.5,-111"/>
<text text-anchor="start" x="1874.5" y="-99" font-family="Helvetica,sans-Serif" font-size="10.00">GeoJsonExporter::convert</text>
<text text-anchor="middle" x="1936.5" y="-88" font-family="Helvetica,sans-Serif" font-size="10.00">StraightToFeature</text>
</a>
</g>
</g>
<!-- Node1&#45;&gt;Node2 -->
<g id="edge1_Node000001_Node000002" class="edge">
<title>Node1&#45;&gt;Node2</title>
<g id="a_edge1_Node000001_Node000002"><a xlink:title=" ">
<path fill="none" stroke="#63b8ff" d="M2048.82,-109.26C2034.64,-107.57 2020.19,-105.85 2006.59,-104.23"/>
<polygon fill="#63b8ff" stroke="#63b8ff" points="2048.73,-112.77 2059.07,-110.48 2049.56,-105.82 2048.73,-112.77"/>
</a>
</g>
</g>
<!-- Node11 -->
<g id="Node000011" class="node">
<title>Node11</title>
<g id="a_Node000011"><a xlink:href="classSwitchOrientator.html#af602429b8a3a2d38e92515cfd2d76ecd" target="_top" xlink:title="Interpole un point tip à distanceMeters depuis la jonction le long d&#39;un Straight.">
<polygon fill="white" stroke="#666666" points="2015.5,-159 1857.5,-159 1857.5,-129 2015.5,-129 2015.5,-159"/>
<text text-anchor="start" x="1865.5" y="-147" font-family="Helvetica,sans-Serif" font-size="10.00">SwitchOrientator::interpolate</text>
<text text-anchor="middle" x="1936.5" y="-136" font-family="Helvetica,sans-Serif" font-size="10.00">TipPoint</text>
</a>
</g>
</g>
<!-- Node1&#45;&gt;Node11 -->
<g id="edge10_Node000001_Node000011" class="edge">
<title>Node1&#45;&gt;Node11</title>
<g id="a_edge10_Node000001_Node000011"><a xlink:title=" ">
<path fill="none" stroke="#63b8ff" d="M2048.95,-130.73C2037.85,-132.05 2026.58,-133.39 2015.69,-134.69"/>
<polygon fill="#63b8ff" stroke="#63b8ff" points="2049.56,-134.18 2059.07,-129.52 2048.73,-127.23 2049.56,-134.18"/>
</a>
</g>
</g>
<!-- Node17 -->
<g id="Node000017" class="node">
<title>Node17</title>
<g id="a_Node000017"><a xlink:href="classGeoJsonExporter.html#aceb585d865614f5183a3fd00dbf9a55d" target="_top" xlink:title="Construit l&#39;appel JS renderStraightBlock(id, coords) pour un bloc.">
<polygon fill="white" stroke="#666666" points="2023,-47 1850,-47 1850,-17 2023,-17 2023,-47"/>
<text text-anchor="start" x="1858" y="-35" font-family="Helvetica,sans-Serif" font-size="10.00">GeoJsonExporter::renderStraight</text>
<text text-anchor="middle" x="1936.5" y="-24" font-family="Helvetica,sans-Serif" font-size="10.00">Block</text>
</a>
</g>
</g>
<!-- Node1&#45;&gt;Node17 -->
<g id="edge17_Node000001_Node000017" class="edge">
<title>Node1&#45;&gt;Node17</title>
<g id="a_edge17_Node000001_Node000017"><a xlink:title=" ">
<path fill="none" stroke="#63b8ff" d="M2107.82,-106.38C2071.13,-90.36 2010.36,-63.82 1972.2,-47.16"/>
<polygon fill="#63b8ff" stroke="#63b8ff" points="2106.49,-109.62 2117.05,-110.41 2109.29,-103.21 2106.49,-109.62"/>
</a>
</g>
</g>
<!-- Node20 -->
<g id="Node000020" class="node">
<title>Node20</title>
<g id="a_Node000020"><a xlink:href="classSwitchOrientator.html#ac80814892c9baea379f2b4e9f22b966e" target="_top" xlink:title="Retaille chaque StraightBlock adjacent à une jonction pour qu&#39;il commence (ou se termine) exactement ...">
<polygon fill="white" stroke="#666666" points="2018,-207 1855,-207 1855,-177 2018,-177 2018,-207"/>
<text text-anchor="start" x="1863" y="-195" font-family="Helvetica,sans-Serif" font-size="10.00">SwitchOrientator::trimStraight</text>
<text text-anchor="middle" x="1936.5" y="-184" font-family="Helvetica,sans-Serif" font-size="10.00">Overlaps</text>
</a>
</g>
</g>
<!-- Node1&#45;&gt;Node20 -->
<g id="edge21_Node000001_Node000020" class="edge">
<title>Node1&#45;&gt;Node20</title>
<g id="a_edge21_Node000001_Node000020"><a xlink:title=" ">
<path fill="none" stroke="#63b8ff" d="M2108.61,-133.74C2085.43,-143.93 2052.56,-157.78 2023,-168 2013.97,-171.12 2004.29,-174.14 1994.82,-176.92"/>
<polygon fill="#63b8ff" stroke="#63b8ff" points="2110.19,-136.87 2117.91,-129.62 2107.35,-130.47 2110.19,-136.87"/>
</a>
</g>
</g>
<!-- Node3 -->
<g id="Node000003" class="node">
<title>Node3</title>
<g id="a_Node000003"><a xlink:href="classGeoJsonExporter.html#a933abb8a4cbc84d34ced90a170d170d3" target="_top" xlink:title="Exporte la topologie ferroviaire dans un fichier GeoJSON.">
<polygon fill="white" stroke="#666666" points="1814,-67.5 1651,-67.5 1651,-48.5 1814,-48.5 1814,-67.5"/>
<text text-anchor="middle" x="1732.5" y="-55.5" font-family="Helvetica,sans-Serif" font-size="10.00">GeoJsonExporter::exportToFile</text>
</a>
</g>
</g>
<!-- Node2&#45;&gt;Node3 -->
<g id="edge2_Node000002_Node000003" class="edge">
<title>Node2&#45;&gt;Node3</title>
<g id="a_edge2_Node000002_Node000003"><a xlink:title=" ">
<path fill="none" stroke="#63b8ff" d="M1856.34,-81.11C1832.05,-76.54 1805.99,-71.64 1784.15,-67.53"/>
<polygon fill="#63b8ff" stroke="#63b8ff" points="1855.79,-84.57 1866.27,-82.98 1857.09,-77.69 1855.79,-84.57"/>
</a>
</g>
</g>
<!-- Node10 -->
<g id="Node000010" class="node">
<title>Node10</title>
<g id="a_Node000010"><a xlink:href="classGeoJsonExporter.html#a7f60c7ba7d8578832e4461fe50de931d" target="_top" xlink:title="Génère le script JavaScript d&#39;injection GeoJSON dans le WebView.">
<polygon fill="white" stroke="#666666" points="1804.5,-116 1660.5,-116 1660.5,-86 1804.5,-86 1804.5,-116"/>
<text text-anchor="start" x="1668.5" y="-104" font-family="Helvetica,sans-Serif" font-size="10.00">GeoJsonExporter::loadGeo</text>
<text text-anchor="middle" x="1732.5" y="-93" font-family="Helvetica,sans-Serif" font-size="10.00">JsonToWebView</text>
</a>
</g>
</g>
<!-- Node2&#45;&gt;Node10 -->
<g id="edge9_Node000002_Node000010" class="edge">
<title>Node2&#45;&gt;Node10</title>
<g id="a_edge9_Node000002_Node000010"><a xlink:title=" ">
<path fill="none" stroke="#63b8ff" d="M1855.88,-97.97C1838.98,-98.39 1821.26,-98.83 1804.71,-99.24"/>
<polygon fill="#63b8ff" stroke="#63b8ff" points="1856.36,-101.46 1866.27,-97.71 1856.18,-94.46 1856.36,-101.46"/>
</a>
</g>
</g>
<!-- Node4 -->
<g id="Node000004" class="node">
<title>Node4</title>
<g id="a_Node000004"><a xlink:href="classMainWindow.html#a4429f521642e48894e0efce5b41bd0ae" target="_top" xlink:title="Ouvre le dialogue d&#39;exportation et déclenche l&#39;export GeoJSON.">
<polygon fill="white" stroke="#666666" points="1446,-67.5 1300,-67.5 1300,-48.5 1446,-48.5 1446,-67.5"/>
<text text-anchor="middle" x="1373" y="-55.5" font-family="Helvetica,sans-Serif" font-size="10.00">MainWindow::onFileExport</text>
</a>
</g>
</g>
<!-- Node3&#45;&gt;Node4 -->
<g id="edge3_Node000003_Node000004" class="edge">
<title>Node3&#45;&gt;Node4</title>
<g id="a_edge3_Node000003_Node000004"><a xlink:title=" ">
<path fill="none" stroke="#63b8ff" d="M1640.55,-58C1580.25,-58 1502.22,-58 1446.19,-58"/>
<polygon fill="#63b8ff" stroke="#63b8ff" points="1640.82,-61.5 1650.82,-58 1640.82,-54.5 1640.82,-61.5"/>
</a>
</g>
</g>
<!-- Node5 -->
<g id="Node000005" class="node">
<title>Node5</title>
<g id="a_Node000005"><a xlink:href="classMainWindow.html#afbecf0f64f48c5c868168884bab52356" target="_top" xlink:title="Gère les commandes menu (WM_COMMAND).">
<polygon fill="white" stroke="#666666" points="881,-67.5 734,-67.5 734,-48.5 881,-48.5 881,-67.5"/>
<text text-anchor="middle" x="807.5" y="-55.5" font-family="Helvetica,sans-Serif" font-size="10.00">MainWindow::onCommand</text>
</a>
</g>
</g>
<!-- Node4&#45;&gt;Node5 -->
<g id="edge4_Node000004_Node000005" class="edge">
<title>Node4&#45;&gt;Node5</title>
<g id="a_edge4_Node000004_Node000005"><a xlink:title=" ">
<path fill="none" stroke="#63b8ff" d="M1289.71,-58C1179.66,-58 986.25,-58 881.27,-58"/>
<polygon fill="#63b8ff" stroke="#63b8ff" points="1289.77,-61.5 1299.77,-58 1289.77,-54.5 1289.77,-61.5"/>
</a>
</g>
</g>
<!-- Node6 -->
<g id="Node000006" class="node">
<title>Node6</title>
<g id="a_Node000006"><a xlink:href="classMainWindow.html#ab85682874f3ab5dfa81f782f889d8556" target="_top" xlink:title="Dispatcher principal des messages de la fenêtre.">
<polygon fill="white" stroke="#666666" points="698,-47.5 537,-47.5 537,-28.5 698,-28.5 698,-47.5"/>
<text text-anchor="middle" x="617.5" y="-35.5" font-family="Helvetica,sans-Serif" font-size="10.00">MainWindow::handleMessage</text>
</a>
</g>
</g>
<!-- Node5&#45;&gt;Node6 -->
<g id="edge5_Node000005_Node000006" class="edge">
<title>Node5&#45;&gt;Node6</title>
<g id="a_edge5_Node000005_Node000006"><a xlink:title=" ">
<path fill="none" stroke="#63b8ff" d="M723.87,-49.21C715.33,-48.3 706.67,-47.38 698.17,-46.48"/>
<polygon fill="#63b8ff" stroke="#63b8ff" points="723.5,-52.69 733.81,-50.27 724.24,-45.73 723.5,-52.69"/>
</a>
</g>
</g>
<!-- Node7 -->
<g id="Node000007" class="node">
<title>Node7</title>
<g id="a_Node000007"><a xlink:href="classMainWindow.html#a332648d0a0caec8070b05bc27bb9a14b" target="_top" xlink:title="Procédure de fenêtre statique, point d&#39;entrée imposé par Win32.">
<polygon fill="white" stroke="#666666" points="501,-47.5 358,-47.5 358,-28.5 501,-28.5 501,-47.5"/>
<text text-anchor="middle" x="429.5" y="-35.5" font-family="Helvetica,sans-Serif" font-size="10.00">MainWindow::windowProc</text>
</a>
</g>
</g>
<!-- Node6&#45;&gt;Node7 -->
<g id="edge6_Node000006_Node000007" class="edge">
<title>Node6&#45;&gt;Node7</title>
<g id="a_edge6_Node000006_Node000007"><a xlink:title=" ">
<path fill="none" stroke="#63b8ff" d="M526.77,-38C518.2,-38 509.58,-38 501.22,-38"/>
<polygon fill="#63b8ff" stroke="#63b8ff" points="526.81,-41.5 536.81,-38 526.81,-34.5 526.81,-41.5"/>
</a>
</g>
</g>
<!-- Node8 -->
<g id="Node000008" class="node">
<title>Node8</title>
<g id="a_Node000008"><a xlink:href="classApplication.html#a0bda40de108938fd29374335bf4eac71" target="_top" xlink:title="Enregistre la classe de fenêtre Win32 (WNDCLASSEXW).">
<polygon fill="white" stroke="#666666" points="322,-53 168,-53 168,-23 322,-23 322,-53"/>
<text text-anchor="start" x="176" y="-41" font-family="Helvetica,sans-Serif" font-size="10.00">Application::registerWindow</text>
<text text-anchor="middle" x="245" y="-30" font-family="Helvetica,sans-Serif" font-size="10.00">Class</text>
</a>
</g>
</g>
<!-- Node7&#45;&gt;Node8 -->
<g id="edge7_Node000007_Node000008" class="edge">
<title>Node7&#45;&gt;Node8</title>
<g id="a_edge7_Node000007_Node000008"><a xlink:title=" ">
<path fill="none" stroke="#63b8ff" d="M347.66,-38C339.17,-38 330.56,-38 322.12,-38"/>
<polygon fill="#63b8ff" stroke="#63b8ff" points="347.94,-41.5 357.94,-38 347.94,-34.5 347.94,-41.5"/>
</a>
</g>
</g>
<!-- Node9 -->
<g id="Node000009" class="node">
<title>Node9</title>
<g id="a_Node000009"><a xlink:href="classApplication.html#a719cf091afd2276d52f9a58e4962ebfb" target="_top" xlink:title="Construit l&#39;application et enregistre la classe de fenêtre.">
<polygon fill="white" stroke="#666666" points="132,-47.5 0,-47.5 0,-28.5 132,-28.5 132,-47.5"/>
<text text-anchor="middle" x="66" y="-35.5" font-family="Helvetica,sans-Serif" font-size="10.00">Application::Application</text>
</a>
</g>
</g>
<!-- Node8&#45;&gt;Node9 -->
<g id="edge8_Node000008_Node000009" class="edge">
<title>Node8&#45;&gt;Node9</title>
<g id="a_edge8_Node000008_Node000009"><a xlink:title=" ">
<path fill="none" stroke="#63b8ff" d="M157.82,-38C149.19,-38 140.53,-38 132.18,-38"/>
<polygon fill="#63b8ff" stroke="#63b8ff" points="157.91,-41.5 167.91,-38 157.91,-34.5 157.91,-41.5"/>
</a>
</g>
</g>
<!-- Node12 -->
<g id="Node000012" class="node">
<title>Node12</title>
<g id="a_Node000012"><a xlink:href="classSwitchOrientator.html#a8132fa3495845481fdb68a3ec695af15" target="_top" xlink:title="Calcule et assigne les points tip CDC sur un SwitchBlock orienté.">
<polygon fill="white" stroke="#666666" points="1806,-164 1659,-164 1659,-134 1806,-134 1806,-164"/>
<text text-anchor="start" x="1667" y="-152" font-family="Helvetica,sans-Serif" font-size="10.00">SwitchOrientator::compute</text>
<text text-anchor="middle" x="1732.5" y="-141" font-family="Helvetica,sans-Serif" font-size="10.00">BranchTipPoints</text>
</a>
</g>
</g>
<!-- Node11&#45;&gt;Node12 -->
<g id="edge11_Node000011_Node000012" class="edge">
<title>Node11&#45;&gt;Node12</title>
<g id="a_edge11_Node000011_Node000012"><a xlink:title=" ">
<path fill="none" stroke="#63b8ff" d="M1847.02,-146.19C1833.35,-146.53 1819.37,-146.87 1806.1,-147.2"/>
<polygon fill="#63b8ff" stroke="#63b8ff" points="1847.49,-149.68 1857.4,-145.93 1847.32,-142.68 1847.49,-149.68"/>
</a>
</g>
</g>
<!-- Node13 -->
<g id="Node000013" class="node">
<title>Node13</title>
<g id="a_Node000013"><a xlink:href="classSwitchOrientator.html#a5af1a097baad421ce01bd013be602df7" target="_top" xlink:title="Exécute les phases 6, 6b, 6c et 6d en place sur topoResult.">
<polygon fill="white" stroke="#666666" points="1615,-158.5 1482,-158.5 1482,-139.5 1615,-139.5 1615,-158.5"/>
<text text-anchor="middle" x="1548.5" y="-146.5" font-family="Helvetica,sans-Serif" font-size="10.00">SwitchOrientator::orient</text>
</a>
</g>
</g>
<!-- Node12&#45;&gt;Node13 -->
<g id="edge12_Node000012_Node000013" class="edge">
<title>Node12&#45;&gt;Node13</title>
<g id="a_edge12_Node000012_Node000013"><a xlink:title=" ">
<path fill="none" stroke="#63b8ff" d="M1648.53,-149C1637.3,-149 1625.9,-149 1615.03,-149"/>
<polygon fill="#63b8ff" stroke="#63b8ff" points="1648.78,-152.5 1658.78,-149 1648.78,-145.5 1648.78,-152.5"/>
</a>
</g>
</g>
<!-- Node14 -->
<g id="Node000014" class="node">
<title>Node14</title>
<g id="a_Node000014"><a xlink:href="classGeoParser.html#aa4acc69a49444b9aa06b2c028b2c1133" target="_top" xlink:title="Lance le pipeline complet.">
<polygon fill="white" stroke="#666666" points="1422.5,-151.5 1323.5,-151.5 1323.5,-132.5 1422.5,-132.5 1422.5,-151.5"/>
<text text-anchor="middle" x="1373" y="-139.5" font-family="Helvetica,sans-Serif" font-size="10.00">GeoParser::parse</text>
</a>
</g>
</g>
<!-- Node13&#45;&gt;Node14 -->
<g id="edge13_Node000013_Node000014" class="edge">
<title>Node13&#45;&gt;Node14</title>
<g id="a_edge13_Node000013_Node000014"><a xlink:title=" ">
<path fill="none" stroke="#63b8ff" d="M1471.65,-145.94C1455.03,-145.27 1437.86,-144.58 1422.64,-143.96"/>
<polygon fill="#63b8ff" stroke="#63b8ff" points="1471.77,-149.45 1481.91,-146.35 1472.06,-142.45 1471.77,-149.45"/>
</a>
</g>
</g>
<!-- Node15 -->
<g id="Node000015" class="node">
<title>Node15</title>
<g id="a_Node000015"><a xlink:href="classGeoParsingTask.html#affe9d461e96e029708ced380b63da972" target="_top" xlink:title="Lance le parsing GeoJSON dans un thread séparé et détaché.">
<polygon fill="white" stroke="#666666" points="1244,-138.5 1113,-138.5 1113,-119.5 1244,-119.5 1244,-138.5"/>
<text text-anchor="middle" x="1178.5" y="-126.5" font-family="Helvetica,sans-Serif" font-size="10.00">GeoParsingTask::launch</text>
</a>
</g>
</g>
<!-- Node14&#45;&gt;Node15 -->
<g id="edge14_Node000014_Node000015" class="edge">
<title>Node14&#45;&gt;Node15</title>
<g id="a_edge14_Node000014_Node000015"><a xlink:title=" ">
<path fill="none" stroke="#63b8ff" d="M1313.28,-138.03C1291.4,-136.56 1266.45,-134.87 1244.07,-133.36"/>
<polygon fill="#63b8ff" stroke="#63b8ff" points="1313.21,-141.54 1323.42,-138.72 1313.68,-134.55 1313.21,-141.54"/>
</a>
</g>
</g>
<!-- Node16 -->
<g id="Node000016" class="node">
<title>Node16</title>
<g id="a_Node000016"><a xlink:href="classMainWindow.html#a889cc45fb741e12015f4af9f01acaa96" target="_top" xlink:title="Ouvre le sélecteur de fichier et lance le parsing asynchrone.">
<polygon fill="white" stroke="#666666" points="1057,-131.5 917,-131.5 917,-112.5 1057,-112.5 1057,-131.5"/>
<text text-anchor="middle" x="987" y="-119.5" font-family="Helvetica,sans-Serif" font-size="10.00">MainWindow::onFileOpen</text>
</a>
</g>
</g>
<!-- Node15&#45;&gt;Node16 -->
<g id="edge15_Node000015_Node000016" class="edge">
<title>Node15&#45;&gt;Node16</title>
<g id="a_edge15_Node000015_Node000016"><a xlink:title=" ">
<path fill="none" stroke="#63b8ff" d="M1102.59,-126.23C1087.64,-125.68 1072,-125.1 1057.25,-124.56"/>
<polygon fill="#63b8ff" stroke="#63b8ff" points="1102.69,-129.74 1112.81,-126.61 1102.95,-122.74 1102.69,-129.74"/>
</a>
</g>
</g>
<!-- Node16&#45;&gt;Node5 -->
<g id="edge16_Node000016_Node000005" class="edge">
<title>Node16&#45;&gt;Node5</title>
<g id="a_edge16_Node000016_Node000005"><a xlink:title=" ">
<path fill="none" stroke="#63b8ff" d="M949.84,-108.96C915.75,-96.67 865.46,-78.54 834.96,-67.54"/>
<polygon fill="#63b8ff" stroke="#63b8ff" points="948.83,-112.32 959.43,-112.42 951.21,-105.73 948.83,-112.32"/>
</a>
</g>
</g>
<!-- Node18 -->
<g id="Node000018" class="node">
<title>Node18</title>
<g id="a_Node000018"><a xlink:href="classGeoJsonExporter.html#a9e109a8b505798f99c5aa2bd6fb538a3" target="_top" xlink:title="Efface puis redessine tous les StraightBlocks.">
<polygon fill="white" stroke="#666666" points="1806.5,-30 1658.5,-30 1658.5,0 1806.5,0 1806.5,-30"/>
<text text-anchor="start" x="1666.5" y="-18" font-family="Helvetica,sans-Serif" font-size="10.00">GeoJsonExporter::renderAll</text>
<text text-anchor="middle" x="1732.5" y="-7" font-family="Helvetica,sans-Serif" font-size="10.00">StraightBlocks</text>
</a>
</g>
</g>
<!-- Node17&#45;&gt;Node18 -->
<g id="edge18_Node000017_Node000018" class="edge">
<title>Node17&#45;&gt;Node18</title>
<g id="a_edge18_Node000017_Node000018"><a xlink:title=" ">
<path fill="none" stroke="#63b8ff" d="M1839.65,-23.93C1828.51,-23 1817.3,-22.05 1806.54,-21.15"/>
<polygon fill="#63b8ff" stroke="#63b8ff" points="1839.58,-27.44 1849.83,-24.79 1840.16,-20.46 1839.58,-27.44"/>
</a>
</g>
</g>
<!-- Node19 -->
<g id="Node000019" class="node">
<title>Node19</title>
<g id="a_Node000019"><a xlink:href="classMainWindow.html#a90cae565f67d1291d690d974547041a0" target="_top" xlink:title="Gère la fin réussie du parsing (WM_PARSING_SUCCESS).">
<polygon fill="white" stroke="#666666" points="1264,-27.5 1093,-27.5 1093,-8.5 1264,-8.5 1264,-27.5"/>
<text text-anchor="middle" x="1178.5" y="-15.5" font-family="Helvetica,sans-Serif" font-size="10.00">MainWindow::onParsingSuccess</text>
</a>
</g>
</g>
<!-- Node18&#45;&gt;Node19 -->
<g id="edge19_Node000018_Node000019" class="edge">
<title>Node18&#45;&gt;Node19</title>
<g id="a_edge19_Node000018_Node000019"><a xlink:title=" ">
<path fill="none" stroke="#63b8ff" d="M1648.37,-15.45C1544.69,-16.02 1368.41,-16.97 1264.06,-17.54"/>
<polygon fill="#63b8ff" stroke="#63b8ff" points="1648.5,-18.95 1658.48,-15.4 1648.46,-11.95 1648.5,-18.95"/>
</a>
</g>
</g>
<!-- Node19&#45;&gt;Node6 -->
<g id="edge20_Node000019_Node000006" class="edge">
<title>Node19&#45;&gt;Node6</title>
<g id="a_edge20_Node000019_Node000006"><a xlink:title=" ">
<path fill="none" stroke="#63b8ff" d="M1082.66,-21.39C974.57,-25.26 799.82,-31.51 698.39,-35.14"/>
<polygon fill="#63b8ff" stroke="#63b8ff" points="1083.04,-24.88 1092.9,-21.03 1082.78,-17.89 1083.04,-24.88"/>
</a>
</g>
</g>
<!-- Node20&#45;&gt;Node13 -->
<g id="edge22_Node000020_Node000013" class="edge">
<title>Node20&#45;&gt;Node13</title>
<g id="a_edge22_Node000020_Node000013"><a xlink:title=" ">
<path fill="none" stroke="#63b8ff" d="M1844.53,-189.76C1788.48,-187.43 1715.29,-182.68 1651,-173 1628.26,-169.58 1603.1,-163.64 1583.52,-158.53"/>
<polygon fill="#63b8ff" stroke="#63b8ff" points="1844.66,-193.26 1854.79,-190.16 1844.94,-186.27 1844.66,-193.26"/>
</a>
</g>
</g>
</g>
</svg>
