<?xml version="1.0" encoding="UTF-8" standalone="no"?>
<!DOCTYPE svg PUBLIC "-//W3C//DTD SVG 1.1//EN"
 "http://www.w3.org/Graphics/SVG/1.1/DTD/svg11.dtd">
<!-- Generated by graphviz version 2.43.0 (0)
 -->
<!-- Title: SwitchBlock::getDeviationBranchId Pages: 1 -->
<svg width="1933pt" height="129pt"
 viewBox="0.00 0.00 1933.00 129.00" xmlns="http://www.w3.org/2000/svg" xmlns:xlink="http://www.w3.org/1999/xlink">
<g id="graph0" class="graph" transform="scale(1 1) rotate(0) translate(4 125)">
<title>SwitchBlock::getDeviationBranchId</title>
<!-- Node1 -->
<g id="Node000001" class="node">
<title>Node1</title>
<g id="a_Node000001"><a xlink:title=" ">
<polygon fill="#999999" stroke="#666666" points="1925,-97 1780,-97 1780,-67 1925,-67 1925,-97"/>
<text text-anchor="start" x="1788" y="-85" font-family="Helvetica,sans-Serif" font-size="10.00">SwitchBlock::getDeviation</text>
<text text-anchor="middle" x="1852.5" y="-74" font-family="Helvetica,sans-Serif" font-size="10.00">BranchId</text>
</a>
</g>
</g>
<!-- Node2 -->
<g id="Node000002" class="node">
<title>Node2</title>
<g id="a_Node000002"><a xlink:href="classSwitchOrientator.html#a8132fa3495845481fdb68a3ec695af15" target="_top" xlink:title="Calcule et assigne les points tip CDC sur un SwitchBlock orienté.">
<polygon fill="white" stroke="#666666" points="1744,-121 1597,-121 1597,-91 1744,-91 1744,-121"/>
<text text-anchor="start" x="1605" y="-109" font-family="Helvetica,sans-Serif" font-size="10.00">SwitchOrientator::compute</text>
<text text-anchor="middle" x="1670.5" y="-98" font-family="Helvetica,sans-Serif" font-size="10.00">BranchTipPoints</text>
</a>
</g>
</g>
<!-- Node1&#45;&gt;Node2 -->
<g id="edge1_Node000001_Node000002" class="edge">
<title>Node1&#45;&gt;Node2</title>
<g id="a_edge1_Node000001_Node000002"><a xlink:title=" ">
<path fill="none" stroke="#63b8ff" d="M1769.83,-92.89C1761.25,-94.03 1752.56,-95.19 1744.09,-96.32"/>
<polygon fill="#63b8ff" stroke="#63b8ff" points="1770.39,-96.35 1779.84,-91.55 1769.47,-89.41 1770.39,-96.35"/>
</a>
</g>
</g>
<!-- Node12 -->
<g id="Node000012" class="node">
<title>Node12</title>
<g id="a_Node000012"><a xlink:href="classTopologyRenderer.html#ab35534539fde31c290ce7e531fce86fe" target="_top" xlink:title="Convertit un SwitchBlock en feature GeoJSON de type Point.">
<polygon fill="white" stroke="#666666" points="1744,-73 1597,-73 1597,-43 1744,-43 1744,-73"/>
<text text-anchor="start" x="1605" y="-61" font-family="Helvetica,sans-Serif" font-size="10.00">TopologyRenderer::convert</text>
<text text-anchor="middle" x="1670.5" y="-50" font-family="Helvetica,sans-Serif" font-size="10.00">SwitchToFeature</text>
</a>
</g>
</g>
<!-- Node1&#45;&gt;Node12 -->
<g id="edge11_Node000001_Node000012" class="edge">
<title>Node1&#45;&gt;Node12</title>
<g id="a_edge11_Node000001_Node000012"><a xlink:title=" ">
<path fill="none" stroke="#63b8ff" d="M1769.83,-71.11C1761.25,-69.97 1752.56,-68.81 1744.09,-67.68"/>
<polygon fill="#63b8ff" stroke="#63b8ff" points="1769.47,-74.59 1779.84,-72.45 1770.39,-67.65 1769.47,-74.59"/>
</a>
</g>
</g>
<!-- Node3 -->
<g id="Node000003" class="node">
<title>Node3</title>
<g id="a_Node000003"><a xlink:href="classSwitchOrientator.html#a5af1a097baad421ce01bd013be602df7" target="_top" xlink:title="Exécute les phases 6, 6b, 6c et 6d en place sur topoResult.">
<polygon fill="white" stroke="#666666" points="1552,-115.5 1419,-115.5 1419,-96.5 1552,-96.5 1552,-115.5"/>
<text text-anchor="middle" x="1485.5" y="-103.5" font-family="Helvetica,sans-Serif" font-size="10.00">SwitchOrientator::orient</text>
</a>
</g>
</g>
<!-- Node2&#45;&gt;Node3 -->
<g id="edge2_Node000002_Node000003" class="edge">
<title>Node2&#45;&gt;Node3</title>
<g id="a_edge2_Node000002_Node000003"><a xlink:title=" ">
<path fill="none" stroke="#63b8ff" d="M1586.79,-106C1575.19,-106 1563.4,-106 1552.17,-106"/>
<polygon fill="#63b8ff" stroke="#63b8ff" points="1586.91,-109.5 1596.91,-106 1586.91,-102.5 1586.91,-109.5"/>
</a>
</g>
</g>
<!-- Node4 -->
<g id="Node000004" class="node">
<title>Node4</title>
<g id="a_Node000004"><a xlink:href="classGeoParser.html#aa4acc69a49444b9aa06b2c028b2c1133" target="_top" xlink:title="Lance le pipeline complet.">
<polygon fill="white" stroke="#666666" points="1374,-113.5 1275,-113.5 1275,-94.5 1374,-94.5 1374,-113.5"/>
<text text-anchor="middle" x="1324.5" y="-101.5" font-family="Helvetica,sans-Serif" font-size="10.00">GeoParser::parse</text>
</a>
</g>
</g>
<!-- Node3&#45;&gt;Node4 -->
<g id="edge3_Node000003_Node000004" class="edge">
<title>Node3&#45;&gt;Node4</title>
<g id="a_edge3_Node000003_Node000004"><a xlink:title=" ">
<path fill="none" stroke="#63b8ff" d="M1408.72,-105.05C1397.05,-104.9 1385.29,-104.75 1374.42,-104.62"/>
<polygon fill="#63b8ff" stroke="#63b8ff" points="1408.87,-108.55 1418.91,-105.17 1408.96,-101.55 1408.87,-108.55"/>
</a>
</g>
</g>
<!-- Node5 -->
<g id="Node000005" class="node">
<title>Node5</title>
<g id="a_Node000005"><a xlink:href="classGeoParsingTask.html#affe9d461e96e029708ced380b63da972" target="_top" xlink:title="Lance le parsing GeoJSON dans un thread séparé et détaché.">
<polygon fill="white" stroke="#666666" points="1231.5,-112.5 1100.5,-112.5 1100.5,-93.5 1231.5,-93.5 1231.5,-112.5"/>
<text text-anchor="middle" x="1166" y="-100.5" font-family="Helvetica,sans-Serif" font-size="10.00">GeoParsingTask::launch</text>
</a>
</g>
</g>
<!-- Node4&#45;&gt;Node5 -->
<g id="edge4_Node000004_Node000005" class="edge">
<title>Node4&#45;&gt;Node5</title>
<g id="a_edge4_Node000004_Node000005"><a xlink:title=" ">
<path fill="none" stroke="#63b8ff" d="M1264.71,-103.62C1253.95,-103.56 1242.67,-103.48 1231.74,-103.41"/>
<polygon fill="#63b8ff" stroke="#63b8ff" points="1264.82,-107.13 1274.84,-103.69 1264.86,-100.13 1264.82,-107.13"/>
</a>
</g>
</g>
<!-- Node6 -->
<g id="Node000006" class="node">
<title>Node6</title>
<g id="a_Node000006"><a xlink:href="classMainWindow.html#a889cc45fb741e12015f4af9f01acaa96" target="_top" xlink:title="Ouvre le sélecteur de fichier et lance le parsing asynchrone.">
<polygon fill="white" stroke="#666666" points="1057,-112.5 917,-112.5 917,-93.5 1057,-93.5 1057,-112.5"/>
<text text-anchor="middle" x="987" y="-100.5" font-family="Helvetica,sans-Serif" font-size="10.00">MainWindow::onFileOpen</text>
</a>
</g>
</g>
<!-- Node5&#45;&gt;Node6 -->
<g id="edge5_Node000005_Node000006" class="edge">
<title>Node5&#45;&gt;Node6</title>
<g id="a_edge5_Node000005_Node000006"><a xlink:title=" ">
<path fill="none" stroke="#63b8ff" d="M1090.03,-103C1079.15,-103 1068,-103 1057.25,-103"/>
<polygon fill="#63b8ff" stroke="#63b8ff" points="1090.35,-106.5 1100.35,-103 1090.35,-99.5 1090.35,-106.5"/>
</a>
</g>
</g>
<!-- Node7 -->
<g id="Node000007" class="node">
<title>Node7</title>
<g id="a_Node000007"><a xlink:href="classMainWindow.html#afbecf0f64f48c5c868168884bab52356" target="_top" xlink:title="Gère les commandes menu (WM_COMMAND).">
<polygon fill="white" stroke="#666666" points="881,-93.5 734,-93.5 734,-74.5 881,-74.5 881,-93.5"/>
<text text-anchor="middle" x="807.5" y="-81.5" font-family="Helvetica,sans-Serif" font-size="10.00">MainWindow::onCommand</text>
</a>
</g>
</g>
<!-- Node6&#45;&gt;Node7 -->
<g id="edge6_Node000006_Node000007" class="edge">
<title>Node6&#45;&gt;Node7</title>
<g id="a_edge6_Node000006_Node000007"><a xlink:title=" ">
<path fill="none" stroke="#63b8ff" d="M906.92,-94.53C898.38,-93.62 889.72,-92.69 881.26,-91.79"/>
<polygon fill="#63b8ff" stroke="#63b8ff" points="906.55,-98.02 916.87,-95.6 907.29,-91.06 906.55,-98.02"/>
</a>
</g>
</g>
<!-- Node8 -->
<g id="Node000008" class="node">
<title>Node8</title>
<g id="a_Node000008"><a xlink:href="classMainWindow.html#ab85682874f3ab5dfa81f782f889d8556" target="_top" xlink:title="Dispatcher principal des messages de la fenêtre.">
<polygon fill="white" stroke="#666666" points="698,-93.5 537,-93.5 537,-74.5 698,-74.5 698,-93.5"/>
<text text-anchor="middle" x="617.5" y="-81.5" font-family="Helvetica,sans-Serif" font-size="10.00">MainWindow::handleMessage</text>
</a>
</g>
</g>
<!-- Node7&#45;&gt;Node8 -->
<g id="edge7_Node000007_Node000008" class="edge">
<title>Node7&#45;&gt;Node8</title>
<g id="a_edge7_Node000007_Node000008"><a xlink:title=" ">
<path fill="none" stroke="#63b8ff" d="M723.59,-84C715.15,-84 706.58,-84 698.17,-84"/>
<polygon fill="#63b8ff" stroke="#63b8ff" points="723.81,-87.5 733.81,-84 723.81,-80.5 723.81,-87.5"/>
</a>
</g>
</g>
<!-- Node9 -->
<g id="Node000009" class="node">
<title>Node9</title>
<g id="a_Node000009"><a xlink:href="classMainWindow.html#a332648d0a0caec8070b05bc27bb9a14b" target="_top" xlink:title="Procédure de fenêtre statique, point d&#39;entrée imposé par Win32.">
<polygon fill="white" stroke="#666666" points="501,-93.5 358,-93.5 358,-74.5 501,-74.5 501,-93.5"/>
<text text-anchor="middle" x="429.5" y="-81.5" font-family="Helvetica,sans-Serif" font-size="10.00">MainWindow::windowProc</text>
</a>
</g>
</g>
<!-- Node8&#45;&gt;Node9 -->
<g id="edge8_Node000008_Node000009" class="edge">
<title>Node8&#45;&gt;Node9</title>
<g id="a_edge8_Node000008_Node000009"><a xlink:title=" ">
<path fill="none" stroke="#63b8ff" d="M526.77,-84C518.2,-84 509.58,-84 501.22,-84"/>
<polygon fill="#63b8ff" stroke="#63b8ff" points="526.81,-87.5 536.81,-84 526.81,-80.5 526.81,-87.5"/>
</a>
</g>
</g>
<!-- Node10 -->
<g id="Node000010" class="node">
<title>Node10</title>
<g id="a_Node000010"><a xlink:href="classApplication.html#a0bda40de108938fd29374335bf4eac71" target="_top" xlink:title="Enregistre la classe de fenêtre Win32 (WNDCLASSEXW).">
<polygon fill="white" stroke="#666666" points="322,-99 168,-99 168,-69 322,-69 322,-99"/>
<text text-anchor="start" x="176" y="-87" font-family="Helvetica,sans-Serif" font-size="10.00">Application::registerWindow</text>
<text text-anchor="middle" x="245" y="-76" font-family="Helvetica,sans-Serif" font-size="10.00">Class</text>
</a>
</g>
</g>
<!-- Node9&#45;&gt;Node10 -->
<g id="edge9_Node000009_Node000010" class="edge">
<title>Node9&#45;&gt;Node10</title>
<g id="a_edge9_Node000009_Node000010"><a xlink:title=" ">
<path fill="none" stroke="#63b8ff" d="M347.66,-84C339.17,-84 330.56,-84 322.12,-84"/>
<polygon fill="#63b8ff" stroke="#63b8ff" points="347.94,-87.5 357.94,-84 347.94,-80.5 347.94,-87.5"/>
</a>
</g>
</g>
<!-- Node11 -->
<g id="Node000011" class="node">
<title>Node11</title>
<g id="a_Node000011"><a xlink:href="classApplication.html#a719cf091afd2276d52f9a58e4962ebfb" target="_top" xlink:title="Construit l&#39;application et enregistre la classe de fenêtre.">
<polygon fill="white" stroke="#666666" points="132,-93.5 0,-93.5 0,-74.5 132,-74.5 132,-93.5"/>
<text text-anchor="middle" x="66" y="-81.5" font-family="Helvetica,sans-Serif" font-size="10.00">Application::Application</text>
</a>
</g>
</g>
<!-- Node10&#45;&gt;Node11 -->
<g id="edge10_Node000010_Node000011" class="edge">
<title>Node10&#45;&gt;Node11</title>
<g id="a_edge10_Node000010_Node000011"><a xlink:title=" ">
<path fill="none" stroke="#63b8ff" d="M157.82,-84C149.19,-84 140.53,-84 132.18,-84"/>
<polygon fill="#63b8ff" stroke="#63b8ff" points="157.91,-87.5 167.91,-84 157.91,-80.5 157.91,-87.5"/>
</a>
</g>
</g>
<!-- Node13 -->
<g id="Node000013" class="node">
<title>Node13</title>
<g id="a_Node000013"><a xlink:href="classTopologyRenderer.html#a5691412733606ec4139cac02585bd718" target="_top" xlink:title="Exporte la topologie ferroviaire dans un fichier GeoJSON.">
<polygon fill="white" stroke="#666666" points="1556.5,-78 1414.5,-78 1414.5,-48 1556.5,-48 1556.5,-78"/>
<text text-anchor="start" x="1422.5" y="-66" font-family="Helvetica,sans-Serif" font-size="10.00">TopologyRenderer::export</text>
<text text-anchor="middle" x="1485.5" y="-55" font-family="Helvetica,sans-Serif" font-size="10.00">ToFile</text>
</a>
</g>
</g>
<!-- Node12&#45;&gt;Node13 -->
<g id="edge12_Node000012_Node000013" class="edge">
<title>Node12&#45;&gt;Node13</title>
<g id="a_edge12_Node000012_Node000013"><a xlink:title=" ">
<path fill="none" stroke="#63b8ff" d="M1586.87,-60.26C1576.76,-60.53 1566.51,-60.81 1556.61,-61.08"/>
<polygon fill="#63b8ff" stroke="#63b8ff" points="1587.01,-63.76 1596.91,-59.98 1586.82,-56.76 1587.01,-63.76"/>
</a>
</g>
</g>
<!-- Node15 -->
<g id="Node000015" class="node">
<title>Node15</title>
<g id="a_Node000015"><a xlink:href="classTopologyRenderer.html#a53552ac3e53137c8510496ae2de4a4d8" target="_top" xlink:title="Génère le script JavaScript d&#39;injection GeoJSON dans le WebView.">
<polygon fill="white" stroke="#666666" points="1561,-30 1410,-30 1410,0 1561,0 1561,-30"/>
<text text-anchor="start" x="1418" y="-18" font-family="Helvetica,sans-Serif" font-size="10.00">TopologyRenderer::loadGeo</text>
<text text-anchor="middle" x="1485.5" y="-7" font-family="Helvetica,sans-Serif" font-size="10.00">JsonToWebView</text>
</a>
</g>
</g>
<!-- Node12&#45;&gt;Node15 -->
<g id="edge15_Node000012_Node000015" class="edge">
<title>Node12&#45;&gt;Node15</title>
<g id="a_edge15_Node000012_Node000015"><a xlink:title=" ">
<path fill="none" stroke="#63b8ff" d="M1595.75,-40.67C1580.75,-37.15 1565.09,-33.47 1550.47,-30.03"/>
<polygon fill="#63b8ff" stroke="#63b8ff" points="1594.96,-44.08 1605.5,-42.96 1596.56,-37.27 1594.96,-44.08"/>
</a>
</g>
</g>
<!-- Node14 -->
<g id="Node000014" class="node">
<title>Node14</title>
<g id="a_Node000014"><a xlink:href="classMainWindow.html#a4429f521642e48894e0efce5b41bd0ae" target="_top" xlink:title="Ouvre le dialogue d&#39;exportation et déclenche l&#39;export GeoJSON.">
<polygon fill="white" stroke="#666666" points="1239,-74.5 1093,-74.5 1093,-55.5 1239,-55.5 1239,-74.5"/>
<text text-anchor="middle" x="1166" y="-62.5" font-family="Helvetica,sans-Serif" font-size="10.00">MainWindow::onFileExport</text>
</a>
</g>
</g>
<!-- Node13&#45;&gt;Node14 -->
<g id="edge13_Node000013_Node000014" class="edge">
<title>Node13&#45;&gt;Node14</title>
<g id="a_edge13_Node000013_Node000014"><a xlink:title=" ">
<path fill="none" stroke="#63b8ff" d="M1404.14,-63.51C1353.34,-63.83 1288.23,-64.24 1239.09,-64.55"/>
<polygon fill="#63b8ff" stroke="#63b8ff" points="1404.45,-67 1414.43,-63.44 1404.41,-60 1404.45,-67"/>
</a>
</g>
</g>
<!-- Node14&#45;&gt;Node7 -->
<g id="edge14_Node000014_Node000007" class="edge">
<title>Node14&#45;&gt;Node7</title>
<g id="a_edge14_Node000014_Node000007"><a xlink:title=" ">
<path fill="none" stroke="#63b8ff" d="M1082.51,-69.4C1021.63,-72.64 939.56,-77.02 881.15,-80.13"/>
<polygon fill="#63b8ff" stroke="#63b8ff" points="1083.06,-72.87 1092.86,-68.84 1082.68,-65.88 1083.06,-72.87"/>
</a>
</g>
</g>
</g>
</svg>
