<?xml version="1.0" encoding="UTF-8" standalone="no"?>
<!DOCTYPE svg PUBLIC "-//W3C//DTD SVG 1.1//EN"
 "http://www.w3.org/Graphics/SVG/1.1/DTD/svg11.dtd">
<!-- Generated by graphviz version 2.43.0 (0)
 -->
<!-- Title: WebViewPanel::initializeWebView Pages: 1 -->
<svg width="744pt" height="76pt"
 viewBox="0.00 0.00 744.00 75.50" xmlns="http://www.w3.org/2000/svg" xmlns:xlink="http://www.w3.org/1999/xlink">
<g id="graph0" class="graph" transform="scale(1 1) rotate(0) translate(4 71.5)">
<title>WebViewPanel::initializeWebView</title>
<!-- Node1 -->
<g id="Node000001" class="node">
<title>Node1</title>
<g id="a_Node000001"><a xlink:title="Initialise l&#39;environnement WebView2 de manière asynchrone.">
<polygon fill="#999999" stroke="#666666" points="136,-45.5 0,-45.5 0,-15.5 136,-15.5 136,-45.5"/>
<text text-anchor="start" x="8" y="-33.5" font-family="Helvetica,sans-Serif" font-size="10.00">WebViewPanel::initialize</text>
<text text-anchor="middle" x="68" y="-22.5" font-family="Helvetica,sans-Serif" font-size="10.00">WebView</text>
</a>
</g>
</g>
<!-- Node2 -->
<g id="Node000002" class="node">
<title>Node2</title>
<g id="a_Node000002"><a xlink:href="classWebViewPanel.html#a49d047e945df840f4c48dbf0a3264b16" target="_top" xlink:title="Callback déclenché à la fin de la création de l&#39;environnement WebView2.">
<polygon fill="white" stroke="#666666" points="340,-45.5 172,-45.5 172,-15.5 340,-15.5 340,-45.5"/>
<text text-anchor="start" x="180" y="-33.5" font-family="Helvetica,sans-Serif" font-size="10.00">WebViewPanel::onEnvironment</text>
<text text-anchor="middle" x="256" y="-22.5" font-family="Helvetica,sans-Serif" font-size="10.00">Created</text>
</a>
</g>
</g>
<!-- Node1&#45;&gt;Node2 -->
<g id="edge1_Node000001_Node000002" class="edge">
<title>Node1&#45;&gt;Node2</title>
<g id="a_edge1_Node000001_Node000002"><a xlink:title=" ">
<path fill="none" stroke="#63b8ff" d="M136.15,-30.5C144.45,-30.5 153.05,-30.5 161.66,-30.5"/>
<polygon fill="#63b8ff" stroke="#63b8ff" points="161.74,-34 171.74,-30.5 161.74,-27 161.74,-34"/>
</a>
</g>
</g>
<!-- Node3 -->
<g id="Node000003" class="node">
<title>Node3</title>
<g id="a_Node000003"><a xlink:href="classWebViewPanel.html#a2098e8aa83f6ab5b825514deda7fd846" target="_top" xlink:title="Callback déclenché à la fin de la création du contrôleur WebView2.">
<polygon fill="white" stroke="#666666" points="530,-45.5 376,-45.5 376,-15.5 530,-15.5 530,-45.5"/>
<text text-anchor="start" x="384" y="-33.5" font-family="Helvetica,sans-Serif" font-size="10.00">WebViewPanel::onController</text>
<text text-anchor="middle" x="453" y="-22.5" font-family="Helvetica,sans-Serif" font-size="10.00">Created</text>
</a>
</g>
</g>
<!-- Node2&#45;&gt;Node3 -->
<g id="edge2_Node000002_Node000003" class="edge">
<title>Node2&#45;&gt;Node3</title>
<g id="a_edge2_Node000002_Node000003"><a xlink:title=" ">
<path fill="none" stroke="#63b8ff" d="M340.26,-30.5C348.65,-30.5 357.19,-30.5 365.61,-30.5"/>
<polygon fill="#63b8ff" stroke="#63b8ff" points="365.81,-34 375.81,-30.5 365.81,-27 365.81,-34"/>
</a>
</g>
</g>
<!-- Node4 -->
<g id="Node000004" class="node">
<title>Node4</title>
<g id="a_Node000004"><a xlink:href="classWebViewPanel.html#ac77338c39cc87b2fb7b7bde9da2004b1" target="_top" xlink:title="Callback statique déclenché à la réception d&#39;un message JavaScript.">
<polygon fill="white" stroke="#666666" points="736,-67.5 566,-67.5 566,-37.5 736,-37.5 736,-67.5"/>
<text text-anchor="start" x="574" y="-55.5" font-family="Helvetica,sans-Serif" font-size="10.00">WebViewPanel::onWebMessage</text>
<text text-anchor="middle" x="651" y="-44.5" font-family="Helvetica,sans-Serif" font-size="10.00">Received</text>
</a>
</g>
</g>
<!-- Node3&#45;&gt;Node4 -->
<g id="edge3_Node000003_Node000004" class="edge">
<title>Node3&#45;&gt;Node4</title>
<g id="a_edge3_Node000003_Node000004"><a xlink:title=" ">
<path fill="none" stroke="#63b8ff" d="M530.06,-39.04C538.49,-39.98 547.15,-40.96 555.77,-41.92"/>
<polygon fill="#63b8ff" stroke="#63b8ff" points="555.52,-45.42 565.85,-43.05 556.31,-38.46 555.52,-45.42"/>
</a>
</g>
</g>
<!-- Node5 -->
<g id="Node000005" class="node">
<title>Node5</title>
<g id="a_Node000005"><a xlink:href="classWebViewPanel.html#a7a3796392183cbf2538ccb72f87c839a" target="_top" xlink:title="Redimensionne le WebView pour s&#39;adapter à la fenêtre.">
<polygon fill="white" stroke="#666666" points="712.5,-19 589.5,-19 589.5,0 712.5,0 712.5,-19"/>
<text text-anchor="middle" x="651" y="-7" font-family="Helvetica,sans-Serif" font-size="10.00">WebViewPanel::resize</text>
</a>
</g>
</g>
<!-- Node3&#45;&gt;Node5 -->
<g id="edge4_Node000003_Node000005" class="edge">
<title>Node3&#45;&gt;Node5</title>
<g id="a_edge4_Node000003_Node000005"><a xlink:title=" ">
<path fill="none" stroke="#63b8ff" d="M530.06,-22.35C546.21,-20.62 563.2,-18.8 579.15,-17.09"/>
<polygon fill="#63b8ff" stroke="#63b8ff" points="579.9,-20.53 589.47,-15.99 579.15,-13.57 579.9,-20.53"/>
</a>
</g>
</g>
</g>
</svg>
