<?xml version="1.0" encoding="UTF-8" standalone="no"?>
<!DOCTYPE svg PUBLIC "-//W3C//DTD SVG 1.1//EN"
 "http://www.w3.org/Graphics/SVG/1.1/DTD/svg11.dtd">
<!-- Generated by graphviz version 2.43.0 (0)
 -->
<!-- Title: MainWindow::onSizeUpdate Pages: 1 -->
<svg width="346pt" height="101pt"
 viewBox="0.00 0.00 346.00 101.00" xmlns="http://www.w3.org/2000/svg" xmlns:xlink="http://www.w3.org/1999/xlink">
<g id="graph0" class="graph" transform="scale(1 1) rotate(0) translate(4 97)">
<title>MainWindow::onSizeUpdate</title>
<!-- Node1 -->
<g id="Node000001" class="node">
<title>Node1</title>
<g id="a_Node000001"><a xlink:title="Quand la fenêtre est redimensionnée, ajuste les éléments graphiques en conséquence.">
<polygon fill="#999999" stroke="#666666" points="152,-56 0,-56 0,-37 152,-37 152,-56"/>
<text text-anchor="middle" x="76" y="-44" font-family="Helvetica,sans-Serif" font-size="10.00">MainWindow::onSizeUpdate</text>
</a>
</g>
</g>
<!-- Node2 -->
<g id="Node000002" class="node">
<title>Node2</title>
<g id="a_Node000002"><a xlink:href="classWebViewPanel.html#abea11ffd7181d2514edb9283256aa8e2" target="_top" xlink:title="Vérifie si le WebView est prêt.">
<polygon fill="white" stroke="#666666" points="338,-93 188,-93 188,-74 338,-74 338,-93"/>
<text text-anchor="middle" x="263" y="-81" font-family="Helvetica,sans-Serif" font-size="10.00">WebViewPanel::isInitialized</text>
</a>
</g>
</g>
<!-- Node1&#45;&gt;Node2 -->
<g id="edge1_Node000001_Node000002" class="edge">
<title>Node1&#45;&gt;Node2</title>
<g id="a_edge1_Node000001_Node000002"><a xlink:title=" ">
<path fill="none" stroke="#63b8ff" d="M124.64,-56.03C148.93,-60.89 178.67,-66.83 204.25,-71.95"/>
<polygon fill="#63b8ff" stroke="#63b8ff" points="203.71,-75.41 214.2,-73.94 205.08,-68.55 203.71,-75.41"/>
</a>
</g>
</g>
<!-- Node3 -->
<g id="Node000003" class="node">
<title>Node3</title>
<g id="a_Node000003"><a xlink:href="classPCCPanel.html#afddac4ff78519cb2a37e74b62ba76d3b" target="_top" xlink:title="Redimensionne le panneau pour couvrir toute la zone cliente du parent.">
<polygon fill="white" stroke="#666666" points="312,-56 214,-56 214,-37 312,-37 312,-56"/>
<text text-anchor="middle" x="263" y="-44" font-family="Helvetica,sans-Serif" font-size="10.00">PCCPanel::resize</text>
</a>
</g>
</g>
<!-- Node1&#45;&gt;Node3 -->
<g id="edge2_Node000001_Node000003" class="edge">
<title>Node1&#45;&gt;Node3</title>
<g id="a_edge2_Node000001_Node000003"><a xlink:title=" ">
<path fill="none" stroke="#63b8ff" d="M152.25,-46.5C169.32,-46.5 187.2,-46.5 203.45,-46.5"/>
<polygon fill="#63b8ff" stroke="#63b8ff" points="203.88,-50 213.88,-46.5 203.88,-43 203.88,-50"/>
</a>
</g>
</g>
<!-- Node4 -->
<g id="Node000004" class="node">
<title>Node4</title>
<g id="a_Node000004"><a xlink:href="classWebViewPanel.html#a7a3796392183cbf2538ccb72f87c839a" target="_top" xlink:title="Redimensionne le WebView pour s&#39;adapter à la fenêtre.">
<polygon fill="white" stroke="#666666" points="324.5,-19 201.5,-19 201.5,0 324.5,0 324.5,-19"/>
<text text-anchor="middle" x="263" y="-7" font-family="Helvetica,sans-Serif" font-size="10.00">WebViewPanel::resize</text>
</a>
</g>
</g>
<!-- Node1&#45;&gt;Node4 -->
<g id="edge3_Node000001_Node000004" class="edge">
<title>Node1&#45;&gt;Node4</title>
<g id="a_edge3_Node000001_Node000004"><a xlink:title=" ">
<path fill="none" stroke="#63b8ff" d="M124.64,-36.97C148.93,-32.11 178.67,-26.17 204.25,-21.05"/>
<polygon fill="#63b8ff" stroke="#63b8ff" points="205.08,-24.45 214.2,-19.06 203.71,-17.59 205.08,-24.45"/>
</a>
</g>
</g>
</g>
</svg>
