<?xml version="1.0" encoding="UTF-8" standalone="no"?>
<!DOCTYPE svg PUBLIC "-//W3C//DTD SVG 1.1//EN"
 "http://www.w3.org/Graphics/SVG/1.1/DTD/svg11.dtd">
<!-- Generated by graphviz version 2.43.0 (0)
 -->
<!-- Title: SwitchOrientator::computeBranchTipPoints Pages: 1 -->
<svg width="988pt" height="290pt"
 viewBox="0.00 0.00 988.00 290.00" xmlns="http://www.w3.org/2000/svg" xmlns:xlink="http://www.w3.org/1999/xlink">
<g id="graph0" class="graph" transform="scale(1 1) rotate(0) translate(4 286)">
<title>SwitchOrientator::computeBranchTipPoints</title>
<!-- Node1 -->
<g id="Node000001" class="node">
<title>Node1</title>
<g id="a_Node000001"><a xlink:title="Calcule et assigne les points tip CDC sur un SwitchBlock orienté.">
<polygon fill="#999999" stroke="#666666" points="147,-172 0,-172 0,-142 147,-142 147,-172"/>
<text text-anchor="start" x="8" y="-160" font-family="Helvetica,sans-Serif" font-size="10.00">SwitchOrientator::compute</text>
<text text-anchor="middle" x="73.5" y="-149" font-family="Helvetica,sans-Serif" font-size="10.00">BranchTipPoints</text>
</a>
</g>
</g>
<!-- Node2 -->
<g id="Node000002" class="node">
<title>Node2</title>
<g id="a_Node000002"><a xlink:href="classSwitchBlock.html#a6ed34ef4ccea6e43e2c0d456f5eb29c0" target="_top" xlink:title=" ">
<polygon fill="white" stroke="#666666" points="343.5,-282 198.5,-282 198.5,-252 343.5,-252 343.5,-282"/>
<text text-anchor="start" x="206.5" y="-270" font-family="Helvetica,sans-Serif" font-size="10.00">SwitchBlock::getDeviation</text>
<text text-anchor="middle" x="271" y="-259" font-family="Helvetica,sans-Serif" font-size="10.00">BranchId</text>
</a>
</g>
</g>
<!-- Node1&#45;&gt;Node2 -->
<g id="edge1_Node000001_Node000002" class="edge">
<title>Node1&#45;&gt;Node2</title>
<g id="a_edge1_Node000001_Node000002"><a xlink:title=" ">
<path fill="none" stroke="#63b8ff" d="M89.63,-172.32C109.41,-191.52 145.92,-224.18 183,-243 186.77,-244.91 190.72,-246.69 194.75,-248.34"/>
<polygon fill="#63b8ff" stroke="#63b8ff" points="193.72,-251.69 204.31,-251.96 196.2,-245.14 193.72,-251.69"/>
</a>
</g>
</g>
<!-- Node3 -->
<g id="Node000003" class="node">
<title>Node3</title>
<g id="a_Node000003"><a xlink:href="classSwitchBlock.html#a17420e8225a0637a6d38b73bee7d2526" target="_top" xlink:title=" ">
<polygon fill="white" stroke="#666666" points="339.5,-234 202.5,-234 202.5,-204 339.5,-204 339.5,-234"/>
<text text-anchor="start" x="210.5" y="-222" font-family="Helvetica,sans-Serif" font-size="10.00">SwitchBlock::getJunction</text>
<text text-anchor="middle" x="271" y="-211" font-family="Helvetica,sans-Serif" font-size="10.00">Coordinate</text>
</a>
</g>
</g>
<!-- Node1&#45;&gt;Node3 -->
<g id="edge2_Node000001_Node000003" class="edge">
<title>Node1&#45;&gt;Node3</title>
<g id="a_edge2_Node000001_Node000003"><a xlink:title=" ">
<path fill="none" stroke="#63b8ff" d="M115.24,-172C135.5,-179.28 160.43,-187.94 183,-195 189.53,-197.04 196.37,-199.09 203.21,-201.07"/>
<polygon fill="#63b8ff" stroke="#63b8ff" points="202.63,-204.55 213.21,-203.93 204.56,-197.82 202.63,-204.55"/>
</a>
</g>
</g>
<!-- Node4 -->
<g id="Node000004" class="node">
<title>Node4</title>
<g id="a_Node000004"><a xlink:href="classSwitchBlock.html#a6838d033ec39e85a94c98a9559fcc532" target="_top" xlink:title=" ">
<polygon fill="white" stroke="#666666" points="359,-185.5 183,-185.5 183,-166.5 359,-166.5 359,-185.5"/>
<text text-anchor="middle" x="271" y="-173.5" font-family="Helvetica,sans-Serif" font-size="10.00">SwitchBlock::getNormalBranchId</text>
</a>
</g>
</g>
<!-- Node1&#45;&gt;Node4 -->
<g id="edge3_Node000001_Node000004" class="edge">
<title>Node1&#45;&gt;Node4</title>
<g id="a_edge3_Node000001_Node000004"><a xlink:title=" ">
<path fill="none" stroke="#63b8ff" d="M147.02,-164.05C155.38,-164.86 164,-165.7 172.62,-166.54"/>
<polygon fill="#63b8ff" stroke="#63b8ff" points="172.42,-170.03 182.71,-167.52 173.1,-163.07 172.42,-170.03"/>
</a>
</g>
</g>
<!-- Node5 -->
<g id="Node000005" class="node">
<title>Node5</title>
<g id="a_Node000005"><a xlink:href="classSwitchBlock.html#a55d04c13a5fba252ba2b840f6835a2a4" target="_top" xlink:title=" ">
<polygon fill="white" stroke="#666666" points="352.5,-148.5 189.5,-148.5 189.5,-129.5 352.5,-129.5 352.5,-148.5"/>
<text text-anchor="middle" x="271" y="-136.5" font-family="Helvetica,sans-Serif" font-size="10.00">SwitchBlock::getRootBranchId</text>
</a>
</g>
</g>
<!-- Node1&#45;&gt;Node5 -->
<g id="edge4_Node000001_Node000005" class="edge">
<title>Node1&#45;&gt;Node5</title>
<g id="a_edge4_Node000001_Node000005"><a xlink:title=" ">
<path fill="none" stroke="#63b8ff" d="M147.02,-150.32C157.48,-149.36 168.35,-148.36 179.11,-147.37"/>
<polygon fill="#63b8ff" stroke="#63b8ff" points="179.74,-150.83 189.38,-146.42 179.1,-143.85 179.74,-150.83"/>
</a>
</g>
</g>
<!-- Node6 -->
<g id="Node000006" class="node">
<title>Node6</title>
<g id="a_Node000006"><a xlink:href="classSwitchOrientator.html#af602429b8a3a2d38e92515cfd2d76ecd" target="_top" xlink:title="Interpole un point tip à distanceMeters depuis la jonction le long d&#39;un Straight.">
<polygon fill="white" stroke="#666666" points="350,-111 192,-111 192,-81 350,-81 350,-111"/>
<text text-anchor="start" x="200" y="-99" font-family="Helvetica,sans-Serif" font-size="10.00">SwitchOrientator::interpolate</text>
<text text-anchor="middle" x="271" y="-88" font-family="Helvetica,sans-Serif" font-size="10.00">TipPoint</text>
</a>
</g>
</g>
<!-- Node1&#45;&gt;Node6 -->
<g id="edge5_Node000001_Node000006" class="edge">
<title>Node1&#45;&gt;Node6</title>
<g id="a_edge5_Node000001_Node000006"><a xlink:title=" ">
<path fill="none" stroke="#63b8ff" d="M118.45,-141.97C138.13,-135.35 161.67,-127.6 183,-121 190.49,-118.68 198.37,-116.32 206.21,-114.01"/>
<polygon fill="#63b8ff" stroke="#63b8ff" points="207.45,-117.29 216.06,-111.13 205.48,-110.57 207.45,-117.29"/>
</a>
</g>
</g>
<!-- Node14 -->
<g id="Node000014" class="node">
<title>Node14</title>
<g id="a_Node000014"><a xlink:href="classSwitchBlock.html#aeb09c2dc6dd9b40c71aa79ecef918e14" target="_top" xlink:title="Assigne les trois tips CDC en une seule opération.">
<polygon fill="white" stroke="#666666" points="329.5,-62.5 212.5,-62.5 212.5,-43.5 329.5,-43.5 329.5,-62.5"/>
<text text-anchor="middle" x="271" y="-50.5" font-family="Helvetica,sans-Serif" font-size="10.00">SwitchBlock::setTips</text>
</a>
</g>
</g>
<!-- Node1&#45;&gt;Node14 -->
<g id="edge14_Node000001_Node000014" class="edge">
<title>Node1&#45;&gt;Node14</title>
<g id="a_edge14_Node000001_Node000014"><a xlink:title=" ">
<path fill="none" stroke="#63b8ff" d="M89.17,-141.88C108.74,-122.62 145.33,-89.73 183,-72 189.11,-69.13 195.67,-66.68 202.34,-64.6"/>
<polygon fill="#63b8ff" stroke="#63b8ff" points="203.5,-67.91 212.16,-61.8 201.59,-61.17 203.5,-67.91"/>
</a>
</g>
</g>
<!-- Node7 -->
<g id="Node000007" class="node">
<title>Node7</title>
<g id="a_Node000007"><a xlink:href="classGeometryUtils.html#a95a8eb25c216b5416111a5b2f18ebb5f" target="_top" xlink:title="Calcule la longueur planaire totale d&#39;une polyligne métrique.">
<polygon fill="white" stroke="#666666" points="571,-202 395,-202 395,-172 571,-172 571,-202"/>
<text text-anchor="start" x="403" y="-190" font-family="Helvetica,sans-Serif" font-size="10.00">GeometryUtils::computePolyline</text>
<text text-anchor="middle" x="483" y="-179" font-family="Helvetica,sans-Serif" font-size="10.00">LengthMeters</text>
</a>
</g>
</g>
<!-- Node6&#45;&gt;Node7 -->
<g id="edge6_Node000006_Node000007" class="edge">
<title>Node6&#45;&gt;Node7</title>
<g id="a_edge6_Node000006_Node000007"><a xlink:title=" ">
<path fill="none" stroke="#63b8ff" d="M339.75,-111.16C346.5,-113.93 353.05,-117.18 359,-121 379.69,-134.29 374.24,-149.82 395,-163 397.63,-164.67 400.37,-166.22 403.19,-167.67"/>
<polygon fill="#63b8ff" stroke="#63b8ff" points="401.91,-170.93 412.46,-171.94 404.84,-164.57 401.91,-170.93"/>
</a>
</g>
</g>
<!-- Node8 -->
<g id="Node000008" class="node">
<title>Node8</title>
<g id="a_Node000008"><a xlink:href="classGeometryUtils.html#aa06e19f5aae6fce3108b2fcfc709fc53" target="_top" xlink:title="Convertit une polyligne WGS&#45;84 en coordonnées métriques UTM.">
<polygon fill="white" stroke="#666666" points="568,-154 398,-154 398,-124 568,-124 568,-154"/>
<text text-anchor="start" x="406" y="-142" font-family="Helvetica,sans-Serif" font-size="10.00">GeometryUtils::convertPolyline</text>
<text text-anchor="middle" x="483" y="-131" font-family="Helvetica,sans-Serif" font-size="10.00">ToMetric</text>
</a>
</g>
</g>
<!-- Node6&#45;&gt;Node8 -->
<g id="edge7_Node000006_Node000008" class="edge">
<title>Node6&#45;&gt;Node8</title>
<g id="a_edge7_Node000006_Node000008"><a xlink:title=" ">
<path fill="none" stroke="#63b8ff" d="M345.45,-111.04C362.55,-114.54 380.89,-118.3 398.4,-121.88"/>
<polygon fill="#63b8ff" stroke="#63b8ff" points="398.09,-125.39 408.59,-123.97 399.5,-118.53 398.09,-125.39"/>
</a>
</g>
</g>
<!-- Node11 -->
<g id="Node000011" class="node">
<title>Node11</title>
<g id="a_Node000011"><a xlink:href="classStraightBlock.html#a646d3135d365dcb832ff66b1304c6850" target="_top" xlink:title=" ">
<polygon fill="white" stroke="#666666" points="564,-105.5 402,-105.5 402,-86.5 564,-86.5 564,-105.5"/>
<text text-anchor="middle" x="483" y="-93.5" font-family="Helvetica,sans-Serif" font-size="10.00">StraightBlock::getCoordinates</text>
</a>
</g>
</g>
<!-- Node6&#45;&gt;Node11 -->
<g id="edge10_Node000006_Node000011" class="edge">
<title>Node6&#45;&gt;Node11</title>
<g id="a_edge10_Node000006_Node000011"><a xlink:title=" ">
<path fill="none" stroke="#63b8ff" d="M350.2,-96C363.8,-96 378.05,-96 391.95,-96"/>
<polygon fill="#63b8ff" stroke="#63b8ff" points="391.99,-99.5 401.99,-96 391.99,-92.5 391.99,-99.5"/>
</a>
</g>
</g>
<!-- Node12 -->
<g id="Node000012" class="node">
<title>Node12</title>
<g id="a_Node000012"><a xlink:href="classGeometryUtils.html#a0dfa23ddf2d80abfeaeac186ae124fd0" target="_top" xlink:title="Convertit une coordonnée métrique UTM en WGS&#45;84.">
<polygon fill="white" stroke="#666666" points="774,-92 628,-92 628,-62 774,-62 774,-92"/>
<text text-anchor="start" x="636" y="-80" font-family="Helvetica,sans-Serif" font-size="10.00">GeometryUtils::metricUtm</text>
<text text-anchor="middle" x="701" y="-69" font-family="Helvetica,sans-Serif" font-size="10.00">ToWgs84</text>
</a>
</g>
</g>
<!-- Node6&#45;&gt;Node12 -->
<g id="edge11_Node000006_Node000012" class="edge">
<title>Node6&#45;&gt;Node12</title>
<g id="a_edge11_Node000006_Node000012"><a xlink:title=" ">
<path fill="none" stroke="#63b8ff" d="M350.2,-82.08C365.03,-79.97 380.46,-78.12 395,-77 470.27,-71.22 556.29,-71.88 617.75,-73.6"/>
<polygon fill="#63b8ff" stroke="#63b8ff" points="617.68,-77.1 627.78,-73.89 617.89,-70.1 617.68,-77.1"/>
</a>
</g>
</g>
<!-- Node13 -->
<g id="Node000013" class="node">
<title>Node13</title>
<g id="a_Node000013"><a xlink:href="classGeometryUtils.html#a811846a194a09c97c258825df6accb9a" target="_top" xlink:title="Interpole un point à distanceMeters du premier sommet d&#39;une polyligne.">
<polygon fill="white" stroke="#666666" points="569,-30 397,-30 397,0 569,0 569,-30"/>
<text text-anchor="start" x="405" y="-18" font-family="Helvetica,sans-Serif" font-size="10.00">GeometryUtils::pointAtDistance</text>
<text text-anchor="middle" x="483" y="-7" font-family="Helvetica,sans-Serif" font-size="10.00">AlongLine</text>
</a>
</g>
</g>
<!-- Node6&#45;&gt;Node13 -->
<g id="edge13_Node000006_Node000013" class="edge">
<title>Node6&#45;&gt;Node13</title>
<g id="a_edge13_Node000006_Node000013"><a xlink:title=" ">
<path fill="none" stroke="#63b8ff" d="M334.83,-80.93C343.14,-78.08 351.4,-74.78 359,-71 376.91,-62.09 377.28,-53.28 395,-44 402.4,-40.12 410.42,-36.62 418.5,-33.49"/>
<polygon fill="#63b8ff" stroke="#63b8ff" points="419.8,-36.74 427.97,-30 417.38,-30.18 419.8,-36.74"/>
</a>
</g>
</g>
<!-- Node9 -->
<g id="Node000009" class="node">
<title>Node9</title>
<g id="a_Node000009"><a xlink:href="classGeometryUtils.html#abcb43f3e49607318e07012e902febfdb" target="_top" xlink:title="Convertit une coordonnée WGS&#45;84 en mètres UTM.">
<polygon fill="white" stroke="#666666" points="795,-138.5 607,-138.5 607,-119.5 795,-119.5 795,-138.5"/>
<text text-anchor="middle" x="701" y="-126.5" font-family="Helvetica,sans-Serif" font-size="10.00">GeometryUtils::wgs84ToMetricUtm</text>
</a>
</g>
</g>
<!-- Node8&#45;&gt;Node9 -->
<g id="edge8_Node000008_Node000009" class="edge">
<title>Node8&#45;&gt;Node9</title>
<g id="a_edge8_Node000008_Node000009"><a xlink:title=" ">
<path fill="none" stroke="#63b8ff" d="M568.13,-135.11C577.44,-134.67 586.99,-134.23 596.51,-133.79"/>
<polygon fill="#63b8ff" stroke="#63b8ff" points="596.97,-137.27 606.79,-133.32 596.64,-130.28 596.97,-137.27"/>
</a>
</g>
</g>
<!-- Node10 -->
<g id="Node000010" class="node">
<title>Node10</title>
<g id="a_Node000010"><a xlink:href="classGeometryUtils.html#a0a57b43055d32f595a7c84dbd7d098e3" target="_top" xlink:title="Retourne le méridien central (degrés) d&#39;une zone UTM.">
<polygon fill="white" stroke="#666666" points="980,-113 831,-113 831,-83 980,-83 980,-113"/>
<text text-anchor="start" x="839" y="-101" font-family="Helvetica,sans-Serif" font-size="10.00">GeometryUtils::utmCentral</text>
<text text-anchor="middle" x="905.5" y="-90" font-family="Helvetica,sans-Serif" font-size="10.00">MeridianDegrees</text>
</a>
</g>
</g>
<!-- Node9&#45;&gt;Node10 -->
<g id="edge9_Node000009_Node000010" class="edge">
<title>Node9&#45;&gt;Node10</title>
<g id="a_edge9_Node000009_Node000010"><a xlink:title=" ">
<path fill="none" stroke="#63b8ff" d="M764.13,-119.49C781.97,-116.76 801.72,-113.73 820.64,-110.84"/>
<polygon fill="#63b8ff" stroke="#63b8ff" points="821.39,-114.26 830.74,-109.29 820.33,-107.35 821.39,-114.26"/>
</a>
</g>
</g>
<!-- Node12&#45;&gt;Node10 -->
<g id="edge12_Node000012_Node000010" class="edge">
<title>Node12&#45;&gt;Node10</title>
<g id="a_edge12_Node000012_Node000010"><a xlink:title=" ">
<path fill="none" stroke="#63b8ff" d="M774.25,-84.49C789.34,-86.06 805.38,-87.72 820.85,-89.32"/>
<polygon fill="#63b8ff" stroke="#63b8ff" points="820.61,-92.82 830.91,-90.37 821.33,-85.86 820.61,-92.82"/>
</a>
</g>
</g>
</g>
</svg>
