<?xml version="1.0" encoding="UTF-8" standalone="no"?>
<!DOCTYPE svg PUBLIC "-//W3C//DTD SVG 1.1//EN"
 "http://www.w3.org/Graphics/SVG/1.1/DTD/svg11.dtd">
<!-- Generated by graphviz version 2.43.0 (0)
 -->
<!-- Title: SwitchBlock::isOriented Pages: 1 -->
<svg width="1468pt" height="124pt"
 viewBox="0.00 0.00 1468.00 123.50" xmlns="http://www.w3.org/2000/svg" xmlns:xlink="http://www.w3.org/1999/xlink">
<g id="graph0" class="graph" transform="scale(1 1) rotate(0) translate(4 119.5)">
<title>SwitchBlock::isOriented</title>
<!-- Node1 -->
<g id="Node000001" class="node">
<title>Node1</title>
<g id="a_Node000001"><a xlink:title=" ">
<polygon fill="#999999" stroke="#666666" points="1460,-62 1328,-62 1328,-43 1460,-43 1460,-62"/>
<text text-anchor="middle" x="1394" y="-50" font-family="Helvetica,sans-Serif" font-size="10.00">SwitchBlock::isOriented</text>
</a>
</g>
</g>
<!-- Node2 -->
<g id="Node000002" class="node">
<title>Node2</title>
<g id="a_Node000002"><a xlink:href="classSwitchBlock.html#a003ca555f7f3dfd8e8057ae23dba9381" target="_top" xlink:title="Calcule et mémorise totalLengthMeters. Formule : root_leg + max(normal_leg, deviation_leg)....">
<polygon fill="white" stroke="#666666" points="1282.5,-115.5 1134.5,-115.5 1134.5,-85.5 1282.5,-85.5 1282.5,-115.5"/>
<text text-anchor="start" x="1142.5" y="-103.5" font-family="Helvetica,sans-Serif" font-size="10.00">SwitchBlock::computeTotal</text>
<text text-anchor="middle" x="1208.5" y="-92.5" font-family="Helvetica,sans-Serif" font-size="10.00">Length</text>
</a>
</g>
</g>
<!-- Node1&#45;&gt;Node2 -->
<g id="edge1_Node000001_Node000002" class="edge">
<title>Node1&#45;&gt;Node2</title>
<g id="a_edge1_Node000001_Node000002"><a xlink:title=" ">
<path fill="none" stroke="#63b8ff" d="M1346.34,-64.7C1322.24,-71.01 1292.6,-78.76 1267.08,-85.44"/>
<polygon fill="#63b8ff" stroke="#63b8ff" points="1347.52,-68.01 1356.31,-62.1 1345.75,-61.24 1347.52,-68.01"/>
</a>
</g>
</g>
<!-- Node3 -->
<g id="Node000003" class="node">
<title>Node3</title>
<g id="a_Node000003"><a xlink:href="classGeoJsonExporter.html#a125ac684007e9e1e93b6d11d695d7e9b" target="_top" xlink:title="Construit l&#39;appel JS renderSwitchBranches(...) pour un switch.">
<polygon fill="white" stroke="#666666" points="1292,-67.5 1125,-67.5 1125,-37.5 1292,-37.5 1292,-67.5"/>
<text text-anchor="start" x="1133" y="-55.5" font-family="Helvetica,sans-Serif" font-size="10.00">GeoJsonExporter::renderSwitch</text>
<text text-anchor="middle" x="1208.5" y="-44.5" font-family="Helvetica,sans-Serif" font-size="10.00">Branches</text>
</a>
</g>
</g>
<!-- Node1&#45;&gt;Node3 -->
<g id="edge2_Node000001_Node000003" class="edge">
<title>Node1&#45;&gt;Node3</title>
<g id="a_edge2_Node000001_Node000003"><a xlink:title=" ">
<path fill="none" stroke="#63b8ff" d="M1317.65,-52.5C1309.24,-52.5 1300.65,-52.5 1292.16,-52.5"/>
<polygon fill="#63b8ff" stroke="#63b8ff" points="1317.79,-56 1327.79,-52.5 1317.79,-49 1317.79,-56"/>
</a>
</g>
</g>
<!-- Node10 -->
<g id="Node000010" class="node">
<title>Node10</title>
<g id="a_Node000010"><a xlink:href="classSwitchBlock.html#a7a81608dca0e1a59b20f6f0c480435c5" target="_top" xlink:title="Représentation textuelle pour le débogage.">
<polygon fill="white" stroke="#666666" points="1268.5,-19 1148.5,-19 1148.5,0 1268.5,0 1268.5,-19"/>
<text text-anchor="middle" x="1208.5" y="-7" font-family="Helvetica,sans-Serif" font-size="10.00">SwitchBlock::toString</text>
</a>
</g>
</g>
<!-- Node1&#45;&gt;Node10 -->
<g id="edge9_Node000001_Node000010" class="edge">
<title>Node1&#45;&gt;Node10</title>
<g id="a_edge9_Node000001_Node000010"><a xlink:title=" ">
<path fill="none" stroke="#63b8ff" d="M1343.31,-40.62C1326.97,-36.73 1308.71,-32.41 1292,-28.5 1278.69,-25.39 1264.16,-22.03 1251.06,-19.01"/>
<polygon fill="#63b8ff" stroke="#63b8ff" points="1342.66,-44.06 1353.2,-42.98 1344.28,-37.25 1342.66,-44.06"/>
</a>
</g>
</g>
<!-- Node4 -->
<g id="Node000004" class="node">
<title>Node4</title>
<g id="a_Node000004"><a xlink:href="classGeoJsonExporter.html#a75d6c6a4354d06d04a700b58d69e869f" target="_top" xlink:title="Efface puis redessine les branches de tous les switches.">
<polygon fill="white" stroke="#666666" points="1089,-67.5 941,-67.5 941,-37.5 1089,-37.5 1089,-67.5"/>
<text text-anchor="start" x="949" y="-55.5" font-family="Helvetica,sans-Serif" font-size="10.00">GeoJsonExporter::renderAll</text>
<text text-anchor="middle" x="1015" y="-44.5" font-family="Helvetica,sans-Serif" font-size="10.00">SwitchBranches</text>
</a>
</g>
</g>
<!-- Node3&#45;&gt;Node4 -->
<g id="edge3_Node000003_Node000004" class="edge">
<title>Node3&#45;&gt;Node4</title>
<g id="a_edge3_Node000003_Node000004"><a xlink:title=" ">
<path fill="none" stroke="#63b8ff" d="M1114.86,-52.5C1106.27,-52.5 1097.66,-52.5 1089.29,-52.5"/>
<polygon fill="#63b8ff" stroke="#63b8ff" points="1114.9,-56 1124.9,-52.5 1114.9,-49 1114.9,-56"/>
</a>
</g>
</g>
<!-- Node5 -->
<g id="Node000005" class="node">
<title>Node5</title>
<g id="a_Node000005"><a xlink:href="classMainWindow.html#a90cae565f67d1291d690d974547041a0" target="_top" xlink:title="Gère la fin réussie du parsing (WM_PARSING_SUCCESS).">
<polygon fill="white" stroke="#666666" points="905,-62 734,-62 734,-43 905,-43 905,-62"/>
<text text-anchor="middle" x="819.5" y="-50" font-family="Helvetica,sans-Serif" font-size="10.00">MainWindow::onParsingSuccess</text>
</a>
</g>
</g>
<!-- Node4&#45;&gt;Node5 -->
<g id="edge4_Node000004_Node000005" class="edge">
<title>Node4&#45;&gt;Node5</title>
<g id="a_edge4_Node000004_Node000005"><a xlink:title=" ">
<path fill="none" stroke="#63b8ff" d="M930.63,-52.5C922.18,-52.5 913.59,-52.5 905.12,-52.5"/>
<polygon fill="#63b8ff" stroke="#63b8ff" points="930.85,-56 940.85,-52.5 930.85,-49 930.85,-56"/>
</a>
</g>
</g>
<!-- Node6 -->
<g id="Node000006" class="node">
<title>Node6</title>
<g id="a_Node000006"><a xlink:href="classMainWindow.html#ab85682874f3ab5dfa81f782f889d8556" target="_top" xlink:title="Dispatcher principal des messages de la fenêtre.">
<polygon fill="white" stroke="#666666" points="698,-62 537,-62 537,-43 698,-43 698,-62"/>
<text text-anchor="middle" x="617.5" y="-50" font-family="Helvetica,sans-Serif" font-size="10.00">MainWindow::handleMessage</text>
</a>
</g>
</g>
<!-- Node5&#45;&gt;Node6 -->
<g id="edge5_Node000005_Node000006" class="edge">
<title>Node5&#45;&gt;Node6</title>
<g id="a_edge5_Node000005_Node000006"><a xlink:title=" ">
<path fill="none" stroke="#63b8ff" d="M723.93,-52.5C715.35,-52.5 706.71,-52.5 698.27,-52.5"/>
<polygon fill="#63b8ff" stroke="#63b8ff" points="723.97,-56 733.97,-52.5 723.97,-49 723.97,-56"/>
</a>
</g>
</g>
<!-- Node7 -->
<g id="Node000007" class="node">
<title>Node7</title>
<g id="a_Node000007"><a xlink:href="classMainWindow.html#a332648d0a0caec8070b05bc27bb9a14b" target="_top" xlink:title="Procédure de fenêtre statique, point d&#39;entrée imposé par Win32.">
<polygon fill="white" stroke="#666666" points="501,-62 358,-62 358,-43 501,-43 501,-62"/>
<text text-anchor="middle" x="429.5" y="-50" font-family="Helvetica,sans-Serif" font-size="10.00">MainWindow::windowProc</text>
</a>
</g>
</g>
<!-- Node6&#45;&gt;Node7 -->
<g id="edge6_Node000006_Node000007" class="edge">
<title>Node6&#45;&gt;Node7</title>
<g id="a_edge6_Node000006_Node000007"><a xlink:title=" ">
<path fill="none" stroke="#63b8ff" d="M526.77,-52.5C518.2,-52.5 509.58,-52.5 501.22,-52.5"/>
<polygon fill="#63b8ff" stroke="#63b8ff" points="526.81,-56 536.81,-52.5 526.81,-49 526.81,-56"/>
</a>
</g>
</g>
<!-- Node8 -->
<g id="Node000008" class="node">
<title>Node8</title>
<g id="a_Node000008"><a xlink:href="classApplication.html#a0bda40de108938fd29374335bf4eac71" target="_top" xlink:title="Enregistre la classe de fenêtre Win32 (WNDCLASSEXW).">
<polygon fill="white" stroke="#666666" points="322,-67.5 168,-67.5 168,-37.5 322,-37.5 322,-67.5"/>
<text text-anchor="start" x="176" y="-55.5" font-family="Helvetica,sans-Serif" font-size="10.00">Application::registerWindow</text>
<text text-anchor="middle" x="245" y="-44.5" font-family="Helvetica,sans-Serif" font-size="10.00">Class</text>
</a>
</g>
</g>
<!-- Node7&#45;&gt;Node8 -->
<g id="edge7_Node000007_Node000008" class="edge">
<title>Node7&#45;&gt;Node8</title>
<g id="a_edge7_Node000007_Node000008"><a xlink:title=" ">
<path fill="none" stroke="#63b8ff" d="M347.66,-52.5C339.17,-52.5 330.56,-52.5 322.12,-52.5"/>
<polygon fill="#63b8ff" stroke="#63b8ff" points="347.94,-56 357.94,-52.5 347.94,-49 347.94,-56"/>
</a>
</g>
</g>
<!-- Node9 -->
<g id="Node000009" class="node">
<title>Node9</title>
<g id="a_Node000009"><a xlink:href="classApplication.html#a719cf091afd2276d52f9a58e4962ebfb" target="_top" xlink:title="Construit l&#39;application et enregistre la classe de fenêtre.">
<polygon fill="white" stroke="#666666" points="132,-62 0,-62 0,-43 132,-43 132,-62"/>
<text text-anchor="middle" x="66" y="-50" font-family="Helvetica,sans-Serif" font-size="10.00">Application::Application</text>
</a>
</g>
</g>
<!-- Node8&#45;&gt;Node9 -->
<g id="edge8_Node000008_Node000009" class="edge">
<title>Node8&#45;&gt;Node9</title>
<g id="a_edge8_Node000008_Node000009"><a xlink:title=" ">
<path fill="none" stroke="#63b8ff" d="M157.82,-52.5C149.19,-52.5 140.53,-52.5 132.18,-52.5"/>
<polygon fill="#63b8ff" stroke="#63b8ff" points="157.91,-56 167.91,-52.5 157.91,-49 157.91,-56"/>
</a>
</g>
</g>
</g>
</svg>
