<?xml version="1.0" encoding="UTF-8" standalone="no"?>
<!DOCTYPE svg PUBLIC "-//W3C//DTD SVG 1.1//EN"
 "http://www.w3.org/Graphics/SVG/1.1/DTD/svg11.dtd">
<!-- Generated by graphviz version 2.43.0 (0)
 -->
<!-- Title: SwitchBlock::getId Pages: 1 -->
<svg width="1999pt" height="230pt"
 viewBox="0.00 0.00 1999.00 230.00" xmlns="http://www.w3.org/2000/svg" xmlns:xlink="http://www.w3.org/1999/xlink">
<g id="graph0" class="graph" transform="scale(1 1) rotate(0) translate(4 226)">
<title>SwitchBlock::getId</title>
<!-- Node1 -->
<g id="Node000001" class="node">
<title>Node1</title>
<g id="a_Node000001"><a xlink:title=" ">
<polygon fill="#999999" stroke="#666666" points="1991,-120.5 1884,-120.5 1884,-101.5 1991,-101.5 1991,-120.5"/>
<text text-anchor="middle" x="1937.5" y="-108.5" font-family="Helvetica,sans-Serif" font-size="10.00">SwitchBlock::getId</text>
</a>
</g>
</g>
<!-- Node2 -->
<g id="Node000002" class="node">
<title>Node2</title>
<g id="a_Node000002"><a xlink:href="classSwitchOrientator.html#a2786825e04cc0836549bb23a2b6242b4" target="_top" xlink:title="Échange normal↔deviation sur l&#39;aiguillage non&#45;référence si les rôles diffèrent.">
<polygon fill="white" stroke="#666666" points="1846,-222 1683,-222 1683,-192 1846,-192 1846,-222"/>
<text text-anchor="start" x="1691" y="-210" font-family="Helvetica,sans-Serif" font-size="10.00">SwitchOrientator::alignDouble</text>
<text text-anchor="middle" x="1764.5" y="-199" font-family="Helvetica,sans-Serif" font-size="10.00">SwitchRoles</text>
</a>
</g>
</g>
<!-- Node1&#45;&gt;Node2 -->
<g id="edge1_Node000001_Node000002" class="edge">
<title>Node1&#45;&gt;Node2</title>
<g id="a_edge1_Node000001_Node000002"><a xlink:title=" ">
<path fill="none" stroke="#63b8ff" d="M1919.75,-128.15C1902.97,-144.41 1875.74,-168.45 1848,-183 1841.53,-186.39 1834.51,-189.37 1827.39,-191.96"/>
<polygon fill="#63b8ff" stroke="#63b8ff" points="1922.45,-130.39 1927.1,-120.87 1917.53,-125.42 1922.45,-130.39"/>
</a>
</g>
</g>
<!-- Node12 -->
<g id="Node000012" class="node">
<title>Node12</title>
<g id="a_Node000012"><a xlink:href="classGeoJsonExporter.html#a4edb715ecc8bee30c4eb00e7dcb98e93" target="_top" xlink:title="Convertit un SwitchBlock en feature GeoJSON de type Point.">
<polygon fill="white" stroke="#666666" points="1834.5,-126 1694.5,-126 1694.5,-96 1834.5,-96 1834.5,-126"/>
<text text-anchor="start" x="1702.5" y="-114" font-family="Helvetica,sans-Serif" font-size="10.00">GeoJsonExporter::convert</text>
<text text-anchor="middle" x="1764.5" y="-103" font-family="Helvetica,sans-Serif" font-size="10.00">SwitchToFeature</text>
</a>
</g>
</g>
<!-- Node1&#45;&gt;Node12 -->
<g id="edge11_Node000001_Node000012" class="edge">
<title>Node1&#45;&gt;Node12</title>
<g id="a_edge11_Node000001_Node000012"><a xlink:title=" ">
<path fill="none" stroke="#63b8ff" d="M1873.78,-111C1861.07,-111 1847.64,-111 1834.72,-111"/>
<polygon fill="#63b8ff" stroke="#63b8ff" points="1873.8,-114.5 1883.8,-111 1873.8,-107.5 1873.8,-114.5"/>
</a>
</g>
</g>
<!-- Node16 -->
<g id="Node000016" class="node">
<title>Node16</title>
<g id="a_Node000016"><a xlink:href="classSwitchOrientator.html#acdcd6a442cb52bed611a302b1358c8bb" target="_top" xlink:title="Force la branche partagée au rôle DEVIATION sur les deux aiguillages formant un croisement mécanique ...">
<polygon fill="white" stroke="#666666" points="1835,-174 1694,-174 1694,-144 1835,-144 1835,-174"/>
<text text-anchor="start" x="1702" y="-162" font-family="Helvetica,sans-Serif" font-size="10.00">SwitchOrientator::enforce</text>
<text text-anchor="middle" x="1764.5" y="-151" font-family="Helvetica,sans-Serif" font-size="10.00">CrossoverConsistency</text>
</a>
</g>
</g>
<!-- Node1&#45;&gt;Node16 -->
<g id="edge16_Node000001_Node000016" class="edge">
<title>Node1&#45;&gt;Node16</title>
<g id="a_edge16_Node000001_Node000016"><a xlink:title=" ">
<path fill="none" stroke="#63b8ff" d="M1892.42,-123.37C1870.06,-129.65 1842.73,-137.32 1819.16,-143.94"/>
<polygon fill="#63b8ff" stroke="#63b8ff" points="1893.62,-126.67 1902.31,-120.6 1891.73,-119.93 1893.62,-126.67"/>
</a>
</g>
</g>
<!-- Node17 -->
<g id="Node000017" class="node">
<title>Node17</title>
<g id="a_Node000017"><a xlink:href="classGeoJsonExporter.html#a94a0a86bf9fb71861ffd691bda77fd47" target="_top" xlink:title="Construit l&#39;appel JS renderSwitch(id, lat, lon, isDouble).">
<polygon fill="white" stroke="#666666" points="1848,-78 1681,-78 1681,-48 1848,-48 1848,-78"/>
<text text-anchor="start" x="1689" y="-66" font-family="Helvetica,sans-Serif" font-size="10.00">GeoJsonExporter::renderSwitch</text>
<text text-anchor="middle" x="1764.5" y="-55" font-family="Helvetica,sans-Serif" font-size="10.00">Block</text>
</a>
</g>
</g>
<!-- Node1&#45;&gt;Node17 -->
<g id="edge18_Node000001_Node000017" class="edge">
<title>Node1&#45;&gt;Node17</title>
<g id="a_edge18_Node000001_Node000017"><a xlink:title=" ">
<path fill="none" stroke="#63b8ff" d="M1892.42,-98.63C1870.06,-92.35 1842.73,-84.68 1819.16,-78.06"/>
<polygon fill="#63b8ff" stroke="#63b8ff" points="1891.73,-102.07 1902.31,-101.4 1893.62,-95.33 1891.73,-102.07"/>
</a>
</g>
</g>
<!-- Node20 -->
<g id="Node000020" class="node">
<title>Node20</title>
<g id="a_Node000020"><a xlink:href="classGeoJsonExporter.html#a125ac684007e9e1e93b6d11d695d7e9b" target="_top" xlink:title="Construit l&#39;appel JS renderSwitchBranches(...) pour un switch.">
<polygon fill="white" stroke="#666666" points="1848,-30 1681,-30 1681,0 1848,0 1848,-30"/>
<text text-anchor="start" x="1689" y="-18" font-family="Helvetica,sans-Serif" font-size="10.00">GeoJsonExporter::renderSwitch</text>
<text text-anchor="middle" x="1764.5" y="-7" font-family="Helvetica,sans-Serif" font-size="10.00">Branches</text>
</a>
</g>
</g>
<!-- Node1&#45;&gt;Node20 -->
<g id="edge22_Node000001_Node000020" class="edge">
<title>Node1&#45;&gt;Node20</title>
<g id="a_edge22_Node000001_Node000020"><a xlink:title=" ">
<path fill="none" stroke="#63b8ff" d="M1919.75,-93.85C1902.97,-77.59 1875.74,-53.55 1848,-39 1841.53,-35.61 1834.51,-32.63 1827.39,-30.04"/>
<polygon fill="#63b8ff" stroke="#63b8ff" points="1917.53,-96.58 1927.1,-101.13 1922.45,-91.61 1917.53,-96.58"/>
</a>
</g>
</g>
<!-- Node3 -->
<g id="Node000003" class="node">
<title>Node3</title>
<g id="a_Node000003"><a xlink:href="classSwitchOrientator.html#a5af1a097baad421ce01bd013be602df7" target="_top" xlink:title="Exécute les phases 6, 6b, 6c et 6d en place sur topoResult.">
<polygon fill="white" stroke="#666666" points="1630,-200.5 1497,-200.5 1497,-181.5 1630,-181.5 1630,-200.5"/>
<text text-anchor="middle" x="1563.5" y="-188.5" font-family="Helvetica,sans-Serif" font-size="10.00">SwitchOrientator::orient</text>
</a>
</g>
</g>
<!-- Node2&#45;&gt;Node3 -->
<g id="edge2_Node000002_Node000003" class="edge">
<title>Node2&#45;&gt;Node3</title>
<g id="a_edge2_Node000002_Node000003"><a xlink:title=" ">
<path fill="none" stroke="#63b8ff" d="M1672.48,-199.68C1658.16,-198.53 1643.61,-197.36 1630.02,-196.27"/>
<polygon fill="#63b8ff" stroke="#63b8ff" points="1672.6,-203.2 1682.85,-200.52 1673.16,-196.22 1672.6,-203.2"/>
</a>
</g>
</g>
<!-- Node4 -->
<g id="Node000004" class="node">
<title>Node4</title>
<g id="a_Node000004"><a xlink:href="classGeoParser.html#aa4acc69a49444b9aa06b2c028b2c1133" target="_top" xlink:title="Lance le pipeline complet.">
<polygon fill="white" stroke="#666666" points="1410,-200.5 1311,-200.5 1311,-181.5 1410,-181.5 1410,-200.5"/>
<text text-anchor="middle" x="1360.5" y="-188.5" font-family="Helvetica,sans-Serif" font-size="10.00">GeoParser::parse</text>
</a>
</g>
</g>
<!-- Node3&#45;&gt;Node4 -->
<g id="edge3_Node000003_Node000004" class="edge">
<title>Node3&#45;&gt;Node4</title>
<g id="a_edge3_Node000003_Node000004"><a xlink:title=" ">
<path fill="none" stroke="#63b8ff" d="M1486.86,-191C1461.13,-191 1433.09,-191 1410.06,-191"/>
<polygon fill="#63b8ff" stroke="#63b8ff" points="1486.96,-194.5 1496.96,-191 1486.96,-187.5 1486.96,-194.5"/>
</a>
</g>
</g>
<!-- Node5 -->
<g id="Node000005" class="node">
<title>Node5</title>
<g id="a_Node000005"><a xlink:href="classGeoParsingTask.html#affe9d461e96e029708ced380b63da972" target="_top" xlink:title="Lance le parsing GeoJSON dans un thread séparé et détaché.">
<polygon fill="white" stroke="#666666" points="1231.5,-200.5 1100.5,-200.5 1100.5,-181.5 1231.5,-181.5 1231.5,-200.5"/>
<text text-anchor="middle" x="1166" y="-188.5" font-family="Helvetica,sans-Serif" font-size="10.00">GeoParsingTask::launch</text>
</a>
</g>
</g>
<!-- Node4&#45;&gt;Node5 -->
<g id="edge4_Node000004_Node000005" class="edge">
<title>Node4&#45;&gt;Node5</title>
<g id="a_edge4_Node000004_Node000005"><a xlink:title=" ">
<path fill="none" stroke="#63b8ff" d="M1300.78,-191C1278.9,-191 1253.95,-191 1231.57,-191"/>
<polygon fill="#63b8ff" stroke="#63b8ff" points="1300.92,-194.5 1310.92,-191 1300.92,-187.5 1300.92,-194.5"/>
</a>
</g>
</g>
<!-- Node6 -->
<g id="Node000006" class="node">
<title>Node6</title>
<g id="a_Node000006"><a xlink:href="classMainWindow.html#a889cc45fb741e12015f4af9f01acaa96" target="_top" xlink:title="Ouvre le sélecteur de fichier et lance le parsing asynchrone.">
<polygon fill="white" stroke="#666666" points="1057,-200.5 917,-200.5 917,-181.5 1057,-181.5 1057,-200.5"/>
<text text-anchor="middle" x="987" y="-188.5" font-family="Helvetica,sans-Serif" font-size="10.00">MainWindow::onFileOpen</text>
</a>
</g>
</g>
<!-- Node5&#45;&gt;Node6 -->
<g id="edge5_Node000005_Node000006" class="edge">
<title>Node5&#45;&gt;Node6</title>
<g id="a_edge5_Node000005_Node000006"><a xlink:title=" ">
<path fill="none" stroke="#63b8ff" d="M1090.03,-191C1079.15,-191 1068,-191 1057.25,-191"/>
<polygon fill="#63b8ff" stroke="#63b8ff" points="1090.35,-194.5 1100.35,-191 1090.35,-187.5 1090.35,-194.5"/>
</a>
</g>
</g>
<!-- Node7 -->
<g id="Node000007" class="node">
<title>Node7</title>
<g id="a_Node000007"><a xlink:href="classMainWindow.html#afbecf0f64f48c5c868168884bab52356" target="_top" xlink:title="Gère les commandes menu (WM_COMMAND).">
<polygon fill="white" stroke="#666666" points="881,-162.5 734,-162.5 734,-143.5 881,-143.5 881,-162.5"/>
<text text-anchor="middle" x="807.5" y="-150.5" font-family="Helvetica,sans-Serif" font-size="10.00">MainWindow::onCommand</text>
</a>
</g>
</g>
<!-- Node6&#45;&gt;Node7 -->
<g id="edge6_Node000006_Node000007" class="edge">
<title>Node6&#45;&gt;Node7</title>
<g id="a_edge6_Node000006_Node000007"><a xlink:title=" ">
<path fill="none" stroke="#63b8ff" d="M931.1,-179.25C906,-173.87 876.66,-167.59 852.97,-162.52"/>
<polygon fill="#63b8ff" stroke="#63b8ff" points="930.7,-182.74 941.21,-181.41 932.16,-175.9 930.7,-182.74"/>
</a>
</g>
</g>
<!-- Node8 -->
<g id="Node000008" class="node">
<title>Node8</title>
<g id="a_Node000008"><a xlink:href="classMainWindow.html#ab85682874f3ab5dfa81f782f889d8556" target="_top" xlink:title="Dispatcher principal des messages de la fenêtre.">
<polygon fill="white" stroke="#666666" points="698,-117.5 537,-117.5 537,-98.5 698,-98.5 698,-117.5"/>
<text text-anchor="middle" x="617.5" y="-105.5" font-family="Helvetica,sans-Serif" font-size="10.00">MainWindow::handleMessage</text>
</a>
</g>
</g>
<!-- Node7&#45;&gt;Node8 -->
<g id="edge7_Node000007_Node000008" class="edge">
<title>Node7&#45;&gt;Node8</title>
<g id="a_edge7_Node000007_Node000008"><a xlink:title=" ">
<path fill="none" stroke="#63b8ff" d="M756.55,-141.04C725.81,-133.69 686.96,-124.39 658.31,-117.53"/>
<polygon fill="#63b8ff" stroke="#63b8ff" points="756.09,-144.53 766.63,-143.46 757.72,-137.72 756.09,-144.53"/>
</a>
</g>
</g>
<!-- Node9 -->
<g id="Node000009" class="node">
<title>Node9</title>
<g id="a_Node000009"><a xlink:href="classMainWindow.html#a332648d0a0caec8070b05bc27bb9a14b" target="_top" xlink:title="Procédure de fenêtre statique, point d&#39;entrée imposé par Win32.">
<polygon fill="white" stroke="#666666" points="501,-117.5 358,-117.5 358,-98.5 501,-98.5 501,-117.5"/>
<text text-anchor="middle" x="429.5" y="-105.5" font-family="Helvetica,sans-Serif" font-size="10.00">MainWindow::windowProc</text>
</a>
</g>
</g>
<!-- Node8&#45;&gt;Node9 -->
<g id="edge8_Node000008_Node000009" class="edge">
<title>Node8&#45;&gt;Node9</title>
<g id="a_edge8_Node000008_Node000009"><a xlink:title=" ">
<path fill="none" stroke="#63b8ff" d="M526.77,-108C518.2,-108 509.58,-108 501.22,-108"/>
<polygon fill="#63b8ff" stroke="#63b8ff" points="526.81,-111.5 536.81,-108 526.81,-104.5 526.81,-111.5"/>
</a>
</g>
</g>
<!-- Node10 -->
<g id="Node000010" class="node">
<title>Node10</title>
<g id="a_Node000010"><a xlink:href="classApplication.html#a0bda40de108938fd29374335bf4eac71" target="_top" xlink:title="Enregistre la classe de fenêtre Win32 (WNDCLASSEXW).">
<polygon fill="white" stroke="#666666" points="322,-123 168,-123 168,-93 322,-93 322,-123"/>
<text text-anchor="start" x="176" y="-111" font-family="Helvetica,sans-Serif" font-size="10.00">Application::registerWindow</text>
<text text-anchor="middle" x="245" y="-100" font-family="Helvetica,sans-Serif" font-size="10.00">Class</text>
</a>
</g>
</g>
<!-- Node9&#45;&gt;Node10 -->
<g id="edge9_Node000009_Node000010" class="edge">
<title>Node9&#45;&gt;Node10</title>
<g id="a_edge9_Node000009_Node000010"><a xlink:title=" ">
<path fill="none" stroke="#63b8ff" d="M347.66,-108C339.17,-108 330.56,-108 322.12,-108"/>
<polygon fill="#63b8ff" stroke="#63b8ff" points="347.94,-111.5 357.94,-108 347.94,-104.5 347.94,-111.5"/>
</a>
</g>
</g>
<!-- Node11 -->
<g id="Node000011" class="node">
<title>Node11</title>
<g id="a_Node000011"><a xlink:href="classApplication.html#a719cf091afd2276d52f9a58e4962ebfb" target="_top" xlink:title="Construit l&#39;application et enregistre la classe de fenêtre.">
<polygon fill="white" stroke="#666666" points="132,-117.5 0,-117.5 0,-98.5 132,-98.5 132,-117.5"/>
<text text-anchor="middle" x="66" y="-105.5" font-family="Helvetica,sans-Serif" font-size="10.00">Application::Application</text>
</a>
</g>
</g>
<!-- Node10&#45;&gt;Node11 -->
<g id="edge10_Node000010_Node000011" class="edge">
<title>Node10&#45;&gt;Node11</title>
<g id="a_edge10_Node000010_Node000011"><a xlink:title=" ">
<path fill="none" stroke="#63b8ff" d="M157.82,-108C149.19,-108 140.53,-108 132.18,-108"/>
<polygon fill="#63b8ff" stroke="#63b8ff" points="157.91,-111.5 167.91,-108 157.91,-104.5 157.91,-111.5"/>
</a>
</g>
</g>
<!-- Node13 -->
<g id="Node000013" class="node">
<title>Node13</title>
<g id="a_Node000013"><a xlink:href="classGeoJsonExporter.html#a933abb8a4cbc84d34ced90a170d170d3" target="_top" xlink:title="Exporte la topologie ferroviaire dans un fichier GeoJSON.">
<polygon fill="white" stroke="#666666" points="1645,-163.5 1482,-163.5 1482,-144.5 1645,-144.5 1645,-163.5"/>
<text text-anchor="middle" x="1563.5" y="-151.5" font-family="Helvetica,sans-Serif" font-size="10.00">GeoJsonExporter::exportToFile</text>
</a>
</g>
</g>
<!-- Node12&#45;&gt;Node13 -->
<g id="edge12_Node000012_Node000013" class="edge">
<title>Node12&#45;&gt;Node13</title>
<g id="a_edge12_Node000012_Node000013"><a xlink:title=" ">
<path fill="none" stroke="#63b8ff" d="M1684.64,-128.04C1658.74,-133.64 1630.88,-139.66 1608.52,-144.49"/>
<polygon fill="#63b8ff" stroke="#63b8ff" points="1685.42,-131.45 1694.46,-125.92 1683.94,-124.61 1685.42,-131.45"/>
</a>
</g>
</g>
<!-- Node15 -->
<g id="Node000015" class="node">
<title>Node15</title>
<g id="a_Node000015"><a xlink:href="classGeoJsonExporter.html#a7f60c7ba7d8578832e4461fe50de931d" target="_top" xlink:title="Génère le script JavaScript d&#39;injection GeoJSON dans le WebView.">
<polygon fill="white" stroke="#666666" points="1635.5,-126 1491.5,-126 1491.5,-96 1635.5,-96 1635.5,-126"/>
<text text-anchor="start" x="1499.5" y="-114" font-family="Helvetica,sans-Serif" font-size="10.00">GeoJsonExporter::loadGeo</text>
<text text-anchor="middle" x="1563.5" y="-103" font-family="Helvetica,sans-Serif" font-size="10.00">JsonToWebView</text>
</a>
</g>
</g>
<!-- Node12&#45;&gt;Node15 -->
<g id="edge15_Node000012_Node000015" class="edge">
<title>Node12&#45;&gt;Node15</title>
<g id="a_edge15_Node000012_Node000015"><a xlink:title=" ">
<path fill="none" stroke="#63b8ff" d="M1684.09,-111C1668.13,-111 1651.45,-111 1635.78,-111"/>
<polygon fill="#63b8ff" stroke="#63b8ff" points="1684.46,-114.5 1694.46,-111 1684.46,-107.5 1684.46,-114.5"/>
</a>
</g>
</g>
<!-- Node14 -->
<g id="Node000014" class="node">
<title>Node14</title>
<g id="a_Node000014"><a xlink:href="classMainWindow.html#a4429f521642e48894e0efce5b41bd0ae" target="_top" xlink:title="Ouvre le dialogue d&#39;exportation et déclenche l&#39;export GeoJSON.">
<polygon fill="white" stroke="#666666" points="1239,-162.5 1093,-162.5 1093,-143.5 1239,-143.5 1239,-162.5"/>
<text text-anchor="middle" x="1166" y="-150.5" font-family="Helvetica,sans-Serif" font-size="10.00">MainWindow::onFileExport</text>
</a>
</g>
</g>
<!-- Node13&#45;&gt;Node14 -->
<g id="edge13_Node000013_Node000014" class="edge">
<title>Node13&#45;&gt;Node14</title>
<g id="a_edge13_Node000013_Node000014"><a xlink:title=" ">
<path fill="none" stroke="#63b8ff" d="M1471.76,-153.77C1401.15,-153.59 1304.47,-153.35 1239.09,-153.18"/>
<polygon fill="#63b8ff" stroke="#63b8ff" points="1471.98,-157.27 1481.99,-153.8 1472,-150.27 1471.98,-157.27"/>
</a>
</g>
</g>
<!-- Node14&#45;&gt;Node7 -->
<g id="edge14_Node000014_Node000007" class="edge">
<title>Node14&#45;&gt;Node7</title>
<g id="a_edge14_Node000014_Node000007"><a xlink:title=" ">
<path fill="none" stroke="#63b8ff" d="M1082.51,-153C1021.63,-153 939.56,-153 881.15,-153"/>
<polygon fill="#63b8ff" stroke="#63b8ff" points="1082.86,-156.5 1092.86,-153 1082.86,-149.5 1082.86,-156.5"/>
</a>
</g>
</g>
<!-- Node16&#45;&gt;Node3 -->
<g id="edge17_Node000016_Node000003" class="edge">
<title>Node16&#45;&gt;Node3</title>
<g id="a_edge17_Node000016_Node000003"><a xlink:title=" ">
<path fill="none" stroke="#63b8ff" d="M1683.86,-171.81C1663.82,-175.03 1642.66,-178.43 1623.82,-181.46"/>
<polygon fill="#63b8ff" stroke="#63b8ff" points="1684.58,-175.24 1693.9,-170.19 1683.47,-168.32 1684.58,-175.24"/>
</a>
</g>
</g>
<!-- Node18 -->
<g id="Node000018" class="node">
<title>Node18</title>
<g id="a_Node000018"><a xlink:href="classGeoJsonExporter.html#adbde98ddc849360ec945d84bde02d504" target="_top" xlink:title="Efface puis redessine tous les marqueurs de jonction.">
<polygon fill="white" stroke="#666666" points="1637.5,-78 1489.5,-78 1489.5,-48 1637.5,-48 1637.5,-78"/>
<text text-anchor="start" x="1497.5" y="-66" font-family="Helvetica,sans-Serif" font-size="10.00">GeoJsonExporter::renderAll</text>
<text text-anchor="middle" x="1563.5" y="-55" font-family="Helvetica,sans-Serif" font-size="10.00">SwitchBlocksJunctions</text>
</a>
</g>
</g>
<!-- Node17&#45;&gt;Node18 -->
<g id="edge19_Node000017_Node000018" class="edge">
<title>Node17&#45;&gt;Node18</title>
<g id="a_edge19_Node000017_Node000018"><a xlink:title=" ">
<path fill="none" stroke="#63b8ff" d="M1670.71,-63C1659.63,-63 1648.45,-63 1637.7,-63"/>
<polygon fill="#63b8ff" stroke="#63b8ff" points="1670.83,-66.5 1680.83,-63 1670.83,-59.5 1670.83,-66.5"/>
</a>
</g>
</g>
<!-- Node19 -->
<g id="Node000019" class="node">
<title>Node19</title>
<g id="a_Node000019"><a xlink:href="classMainWindow.html#a90cae565f67d1291d690d974547041a0" target="_top" xlink:title="Gère la fin réussie du parsing (WM_PARSING_SUCCESS).">
<polygon fill="white" stroke="#666666" points="1446,-72.5 1275,-72.5 1275,-53.5 1446,-53.5 1446,-72.5"/>
<text text-anchor="middle" x="1360.5" y="-60.5" font-family="Helvetica,sans-Serif" font-size="10.00">MainWindow::onParsingSuccess</text>
</a>
</g>
</g>
<!-- Node18&#45;&gt;Node19 -->
<g id="edge20_Node000018_Node000019" class="edge">
<title>Node18&#45;&gt;Node19</title>
<g id="a_edge20_Node000018_Node000019"><a xlink:title=" ">
<path fill="none" stroke="#63b8ff" d="M1479.05,-63C1468.19,-63 1457.06,-63 1446.17,-63"/>
<polygon fill="#63b8ff" stroke="#63b8ff" points="1479.37,-66.5 1489.37,-63 1479.37,-59.5 1479.37,-66.5"/>
</a>
</g>
</g>
<!-- Node19&#45;&gt;Node8 -->
<g id="edge21_Node000019_Node000008" class="edge">
<title>Node19&#45;&gt;Node8</title>
<g id="a_edge21_Node000019_Node000008"><a xlink:title=" ">
<path fill="none" stroke="#63b8ff" d="M1264.47,-68.77C1116.97,-77.73 835.6,-94.82 698.11,-103.17"/>
<polygon fill="#63b8ff" stroke="#63b8ff" points="1265.09,-72.24 1274.86,-68.14 1264.67,-65.25 1265.09,-72.24"/>
</a>
</g>
</g>
<!-- Node21 -->
<g id="Node000021" class="node">
<title>Node21</title>
<g id="a_Node000021"><a xlink:href="classGeoJsonExporter.html#a75d6c6a4354d06d04a700b58d69e869f" target="_top" xlink:title="Efface puis redessine les branches de tous les switches.">
<polygon fill="white" stroke="#666666" points="1637.5,-30 1489.5,-30 1489.5,0 1637.5,0 1637.5,-30"/>
<text text-anchor="start" x="1497.5" y="-18" font-family="Helvetica,sans-Serif" font-size="10.00">GeoJsonExporter::renderAll</text>
<text text-anchor="middle" x="1563.5" y="-7" font-family="Helvetica,sans-Serif" font-size="10.00">SwitchBranches</text>
</a>
</g>
</g>
<!-- Node20&#45;&gt;Node21 -->
<g id="edge23_Node000020_Node000021" class="edge">
<title>Node20&#45;&gt;Node21</title>
<g id="a_edge23_Node000020_Node000021"><a xlink:title=" ">
<path fill="none" stroke="#63b8ff" d="M1670.71,-15C1659.63,-15 1648.45,-15 1637.7,-15"/>
<polygon fill="#63b8ff" stroke="#63b8ff" points="1670.83,-18.5 1680.83,-15 1670.83,-11.5 1670.83,-18.5"/>
</a>
</g>
</g>
<!-- Node21&#45;&gt;Node19 -->
<g id="edge24_Node000021_Node000019" class="edge">
<title>Node21&#45;&gt;Node19</title>
<g id="a_edge24_Node000021_Node000019"><a xlink:title=" ">
<path fill="none" stroke="#63b8ff" d="M1489.54,-32.42C1459.85,-39.51 1426.69,-47.43 1401.55,-53.44"/>
<polygon fill="#63b8ff" stroke="#63b8ff" points="1490.54,-35.78 1499.45,-30.06 1488.91,-28.97 1490.54,-35.78"/>
</a>
</g>
</g>
</g>
</svg>
