<?xml version="1.0" encoding="UTF-8" standalone="no"?>
<!DOCTYPE svg PUBLIC "-//W3C//DTD SVG 1.1//EN"
 "http://www.w3.org/Graphics/SVG/1.1/DTD/svg11.dtd">
<!-- Generated by graphviz version 2.43.0 (0)
 -->
<!-- Title: PCCPanel::resize Pages: 1 -->
<svg width="1346pt" height="103pt"
 viewBox="0.00 0.00 1346.00 103.00" xmlns="http://www.w3.org/2000/svg" xmlns:xlink="http://www.w3.org/1999/xlink">
<g id="graph0" class="graph" transform="scale(1 1) rotate(0) translate(4 99)">
<title>PCCPanel::resize</title>
<!-- Node1 -->
<g id="Node000001" class="node">
<title>Node1</title>
<g id="a_Node000001"><a xlink:title="Redimensionne le panneau pour couvrir toute la zone cliente du parent.">
<polygon fill="#999999" stroke="#666666" points="1338,-76 1240,-76 1240,-57 1338,-57 1338,-76"/>
<text text-anchor="middle" x="1289" y="-64" font-family="Helvetica,sans-Serif" font-size="10.00">PCCPanel::resize</text>
</a>
</g>
</g>
<!-- Node2 -->
<g id="Node000002" class="node">
<title>Node2</title>
<g id="a_Node000002"><a xlink:href="classMainWindow.html#a74866b6b18c52698bdb52f339ad80830" target="_top" xlink:title="Quand la fenêtre est redimensionnée, ajuste les éléments graphiques en conséquence.">
<polygon fill="white" stroke="#666666" points="1069,-95 917,-95 917,-76 1069,-76 1069,-95"/>
<text text-anchor="middle" x="993" y="-83" font-family="Helvetica,sans-Serif" font-size="10.00">MainWindow::onSizeUpdate</text>
</a>
</g>
</g>
<!-- Node1&#45;&gt;Node2 -->
<g id="edge1_Node000001_Node000002" class="edge">
<title>Node1&#45;&gt;Node2</title>
<g id="a_edge1_Node000001_Node000002"><a xlink:title=" ">
<path fill="none" stroke="#63b8ff" d="M1229.66,-70.27C1183.57,-73.25 1118.93,-77.43 1069,-80.65"/>
<polygon fill="#63b8ff" stroke="#63b8ff" points="1230.03,-73.75 1239.78,-69.62 1229.58,-66.77 1230.03,-73.75"/>
</a>
</g>
</g>
<!-- Node7 -->
<g id="Node000007" class="node">
<title>Node7</title>
<g id="a_Node000007"><a xlink:href="classPCCPanel.html#a1b37a13eaa0a03be291722243c4daf52" target="_top" xlink:title="Alterne la visibilité du panneau (masqué ↔ visible).">
<polygon fill="white" stroke="#666666" points="1204,-57 1105,-57 1105,-38 1204,-38 1204,-57"/>
<text text-anchor="middle" x="1154.5" y="-45" font-family="Helvetica,sans-Serif" font-size="10.00">PCCPanel::toggle</text>
</a>
</g>
</g>
<!-- Node1&#45;&gt;Node7 -->
<g id="edge6_Node000001_Node000007" class="edge">
<title>Node1&#45;&gt;Node7</title>
<g id="a_edge6_Node000001_Node000007"><a xlink:title=" ">
<path fill="none" stroke="#63b8ff" d="M1229.62,-58.13C1221.18,-56.92 1212.57,-55.68 1204.34,-54.5"/>
<polygon fill="#63b8ff" stroke="#63b8ff" points="1229.39,-61.63 1239.79,-59.59 1230.39,-54.7 1229.39,-61.63"/>
</a>
</g>
</g>
<!-- Node3 -->
<g id="Node000003" class="node">
<title>Node3</title>
<g id="a_Node000003"><a xlink:href="classMainWindow.html#ab85682874f3ab5dfa81f782f889d8556" target="_top" xlink:title="Dispatcher principal des messages de la fenêtre.">
<polygon fill="white" stroke="#666666" points="698,-57 537,-57 537,-38 698,-38 698,-57"/>
<text text-anchor="middle" x="617.5" y="-45" font-family="Helvetica,sans-Serif" font-size="10.00">MainWindow::handleMessage</text>
</a>
</g>
</g>
<!-- Node2&#45;&gt;Node3 -->
<g id="edge2_Node000002_Node000003" class="edge">
<title>Node2&#45;&gt;Node3</title>
<g id="a_edge2_Node000002_Node000003"><a xlink:title=" ">
<path fill="none" stroke="#63b8ff" d="M906.69,-78.17C856.4,-73.69 791.54,-67.66 734,-61.5 721.25,-60.13 707.71,-58.58 694.57,-57.03"/>
<polygon fill="#63b8ff" stroke="#63b8ff" points="906.6,-81.67 916.87,-79.07 907.22,-74.7 906.6,-81.67"/>
</a>
</g>
</g>
<!-- Node4 -->
<g id="Node000004" class="node">
<title>Node4</title>
<g id="a_Node000004"><a xlink:href="classMainWindow.html#a332648d0a0caec8070b05bc27bb9a14b" target="_top" xlink:title="Procédure de fenêtre statique, point d&#39;entrée imposé par Win32.">
<polygon fill="white" stroke="#666666" points="501,-57 358,-57 358,-38 501,-38 501,-57"/>
<text text-anchor="middle" x="429.5" y="-45" font-family="Helvetica,sans-Serif" font-size="10.00">MainWindow::windowProc</text>
</a>
</g>
</g>
<!-- Node3&#45;&gt;Node4 -->
<g id="edge3_Node000003_Node000004" class="edge">
<title>Node3&#45;&gt;Node4</title>
<g id="a_edge3_Node000003_Node000004"><a xlink:title=" ">
<path fill="none" stroke="#63b8ff" d="M526.77,-47.5C518.2,-47.5 509.58,-47.5 501.22,-47.5"/>
<polygon fill="#63b8ff" stroke="#63b8ff" points="526.81,-51 536.81,-47.5 526.81,-44 526.81,-51"/>
</a>
</g>
</g>
<!-- Node5 -->
<g id="Node000005" class="node">
<title>Node5</title>
<g id="a_Node000005"><a xlink:href="classApplication.html#a0bda40de108938fd29374335bf4eac71" target="_top" xlink:title="Enregistre la classe de fenêtre Win32 (WNDCLASSEXW).">
<polygon fill="white" stroke="#666666" points="322,-62.5 168,-62.5 168,-32.5 322,-32.5 322,-62.5"/>
<text text-anchor="start" x="176" y="-50.5" font-family="Helvetica,sans-Serif" font-size="10.00">Application::registerWindow</text>
<text text-anchor="middle" x="245" y="-39.5" font-family="Helvetica,sans-Serif" font-size="10.00">Class</text>
</a>
</g>
</g>
<!-- Node4&#45;&gt;Node5 -->
<g id="edge4_Node000004_Node000005" class="edge">
<title>Node4&#45;&gt;Node5</title>
<g id="a_edge4_Node000004_Node000005"><a xlink:title=" ">
<path fill="none" stroke="#63b8ff" d="M347.66,-47.5C339.17,-47.5 330.56,-47.5 322.12,-47.5"/>
<polygon fill="#63b8ff" stroke="#63b8ff" points="347.94,-51 357.94,-47.5 347.94,-44 347.94,-51"/>
</a>
</g>
</g>
<!-- Node6 -->
<g id="Node000006" class="node">
<title>Node6</title>
<g id="a_Node000006"><a xlink:href="classApplication.html#a719cf091afd2276d52f9a58e4962ebfb" target="_top" xlink:title="Construit l&#39;application et enregistre la classe de fenêtre.">
<polygon fill="white" stroke="#666666" points="132,-57 0,-57 0,-38 132,-38 132,-57"/>
<text text-anchor="middle" x="66" y="-45" font-family="Helvetica,sans-Serif" font-size="10.00">Application::Application</text>
</a>
</g>
</g>
<!-- Node5&#45;&gt;Node6 -->
<g id="edge5_Node000005_Node000006" class="edge">
<title>Node5&#45;&gt;Node6</title>
<g id="a_edge5_Node000005_Node000006"><a xlink:title=" ">
<path fill="none" stroke="#63b8ff" d="M157.82,-47.5C149.19,-47.5 140.53,-47.5 132.18,-47.5"/>
<polygon fill="#63b8ff" stroke="#63b8ff" points="157.91,-51 167.91,-47.5 157.91,-44 157.91,-51"/>
</a>
</g>
</g>
<!-- Node8 -->
<g id="Node000008" class="node">
<title>Node8</title>
<g id="a_Node000008"><a xlink:href="classMainWindow.html#a1a4521cbfe1f7ce92f6a0e12ff836b9d" target="_top" xlink:title="Bascule la visibilité du panneau PCC.">
<polygon fill="white" stroke="#666666" points="1067,-57 919,-57 919,-38 1067,-38 1067,-57"/>
<text text-anchor="middle" x="993" y="-45" font-family="Helvetica,sans-Serif" font-size="10.00">MainWindow::onTogglePCC</text>
</a>
</g>
</g>
<!-- Node7&#45;&gt;Node8 -->
<g id="edge7_Node000007_Node000008" class="edge">
<title>Node7&#45;&gt;Node8</title>
<g id="a_edge7_Node000007_Node000008"><a xlink:title=" ">
<path fill="none" stroke="#63b8ff" d="M1094.5,-47.5C1085.57,-47.5 1076.27,-47.5 1067.09,-47.5"/>
<polygon fill="#63b8ff" stroke="#63b8ff" points="1094.78,-51 1104.78,-47.5 1094.78,-44 1094.78,-51"/>
</a>
</g>
</g>
<!-- Node8&#45;&gt;Node3 -->
<g id="edge8_Node000008_Node000003" class="edge">
<title>Node8&#45;&gt;Node3</title>
<g id="a_edge8_Node000008_Node000003"><a xlink:title=" ">
<path fill="none" stroke="#63b8ff" d="M908.38,-47.5C845.53,-47.5 759.99,-47.5 698.14,-47.5"/>
<polygon fill="#63b8ff" stroke="#63b8ff" points="908.65,-51 918.65,-47.5 908.65,-44 908.65,-51"/>
</a>
</g>
</g>
<!-- Node9 -->
<g id="Node000009" class="node">
<title>Node9</title>
<g id="a_Node000009"><a xlink:href="classMainWindow.html#afbecf0f64f48c5c868168884bab52356" target="_top" xlink:title="Gère les commandes menu (WM_COMMAND).">
<polygon fill="white" stroke="#666666" points="881,-19 734,-19 734,0 881,0 881,-19"/>
<text text-anchor="middle" x="807.5" y="-7" font-family="Helvetica,sans-Serif" font-size="10.00">MainWindow::onCommand</text>
</a>
</g>
</g>
<!-- Node8&#45;&gt;Node9 -->
<g id="edge9_Node000008_Node000009" class="edge">
<title>Node8&#45;&gt;Node9</title>
<g id="a_edge9_Node000008_Node000009"><a xlink:title=" ">
<path fill="none" stroke="#63b8ff" d="M935.59,-35.82C909.57,-30.43 879.07,-24.11 854.47,-19.02"/>
<polygon fill="#63b8ff" stroke="#63b8ff" points="935.19,-39.31 945.7,-37.91 936.61,-32.46 935.19,-39.31"/>
</a>
</g>
</g>
<!-- Node9&#45;&gt;Node3 -->
<g id="edge10_Node000009_Node000003" class="edge">
<title>Node9&#45;&gt;Node3</title>
<g id="a_edge10_Node000009_Node000003"><a xlink:title=" ">
<path fill="none" stroke="#63b8ff" d="M749.06,-21.11C722.33,-26.51 690.91,-32.86 665.6,-37.98"/>
<polygon fill="#63b8ff" stroke="#63b8ff" points="749.95,-24.5 759.06,-19.09 748.56,-17.64 749.95,-24.5"/>
</a>
</g>
</g>
</g>
</svg>
