<?xml version="1.0" encoding="UTF-8" standalone="no"?>
<!DOCTYPE svg PUBLIC "-//W3C//DTD SVG 1.1//EN"
 "http://www.w3.org/Graphics/SVG/1.1/DTD/svg11.dtd">
<!-- Generated by graphviz version 2.43.0 (0)
 -->
<!-- Title: GeoParser::parse Pages: 1 -->
<svg width="1379pt" height="590pt"
 viewBox="0.00 0.00 1379.00 590.00" xmlns="http://www.w3.org/2000/svg" xmlns:xlink="http://www.w3.org/1999/xlink">
<g id="graph0" class="graph" transform="scale(1 1) rotate(0) translate(4 586)">
<title>GeoParser::parse</title>
<!-- Node1 -->
<g id="Node000001" class="node">
<title>Node1</title>
<g id="a_Node000001"><a xlink:title="Lance le pipeline complet.">
<polygon fill="#999999" stroke="#666666" points="99,-241 0,-241 0,-222 99,-222 99,-241"/>
<text text-anchor="middle" x="49.5" y="-229" font-family="Helvetica,sans-Serif" font-size="10.00">GeoParser::parse</text>
</a>
</g>
</g>
<!-- Node2 -->
<g id="Node000002" class="node">
<title>Node2</title>
<g id="a_Node000002"><a xlink:href="classGraphBuilder.html#af2d714cb20595bdc76588d2512a0102a" target="_top" xlink:title="Exécute les phases 1 et 2 et retourne le résultat.">
<polygon fill="white" stroke="#666666" points="272,-437 162,-437 162,-418 272,-418 272,-437"/>
<text text-anchor="middle" x="217" y="-425" font-family="Helvetica,sans-Serif" font-size="10.00">GraphBuilder::build</text>
</a>
</g>
</g>
<!-- Node1&#45;&gt;Node2 -->
<g id="edge1_Node000001_Node000002" class="edge">
<title>Node1&#45;&gt;Node2</title>
<g id="a_edge1_Node000001_Node000002"><a xlink:title=" ">
<path fill="none" stroke="#63b8ff" d="M58.03,-241.18C72.61,-259.86 105.82,-302.03 135,-336.5 157.16,-362.68 183.75,-392.21 200.26,-410.34"/>
<polygon fill="#63b8ff" stroke="#63b8ff" points="197.76,-412.79 207.09,-417.81 202.93,-408.07 197.76,-412.79"/>
</a>
</g>
</g>
<!-- Node16 -->
<g id="Node000016" class="node">
<title>Node16</title>
<g id="a_Node000016"><a xlink:href="classDoubleSwitchDetector.html#a73ddfcab07564847dccd93c3c3b500e4" target="_top" xlink:title=" ">
<polygon fill="white" stroke="#666666" points="279.5,-327.5 154.5,-327.5 154.5,-297.5 279.5,-297.5 279.5,-327.5"/>
<text text-anchor="start" x="162.5" y="-315.5" font-family="Helvetica,sans-Serif" font-size="10.00">DoubleSwitchDetector</text>
<text text-anchor="middle" x="217" y="-304.5" font-family="Helvetica,sans-Serif" font-size="10.00">::detectAndAbsorb</text>
</a>
</g>
</g>
<!-- Node1&#45;&gt;Node16 -->
<g id="edge17_Node000001_Node000016" class="edge">
<title>Node1&#45;&gt;Node16</title>
<g id="a_edge17_Node000001_Node000016"><a xlink:title=" ">
<path fill="none" stroke="#63b8ff" d="M62.44,-241.02C78.23,-253.23 107.32,-274.39 135,-287.5 139.9,-289.82 145.08,-292 150.34,-294.01"/>
<polygon fill="#63b8ff" stroke="#63b8ff" points="149.27,-297.35 159.87,-297.47 151.66,-290.77 149.27,-297.35"/>
</a>
</g>
</g>
<!-- Node19 -->
<g id="Node000019" class="node">
<title>Node19</title>
<g id="a_Node000019"><a xlink:href="classGeoParser.html#a6b046fb217dd2d7240cde1aea4c9a5ec" target="_top" xlink:title="Dump debug.">
<polygon fill="white" stroke="#666666" points="299,-279 135,-279 135,-260 299,-260 299,-279"/>
<text text-anchor="middle" x="217" y="-267" font-family="Helvetica,sans-Serif" font-size="10.00">GeoParser::dumpDebugOutput</text>
</a>
</g>
</g>
<!-- Node1&#45;&gt;Node19 -->
<g id="edge20_Node000001_Node000019" class="edge">
<title>Node1&#45;&gt;Node19</title>
<g id="a_edge20_Node000001_Node000019"><a xlink:title=" ">
<path fill="none" stroke="#63b8ff" d="M92.26,-241.09C114.2,-246.13 141.28,-252.34 164.51,-257.68"/>
<polygon fill="#63b8ff" stroke="#63b8ff" points="164.01,-261.15 174.54,-259.98 165.57,-254.33 164.01,-261.15"/>
</a>
</g>
</g>
<!-- Node20 -->
<g id="Node000020" class="node">
<title>Node20</title>
<g id="a_Node000020"><a xlink:href="classTopologyExtractor.html#a356459ec218bf270f643460da781bd0d" target="_top" xlink:title="Exécute les phases 3, 4, 5a et 5b et retourne le résultat.">
<polygon fill="white" stroke="#666666" points="478,-274.5 368,-274.5 368,-244.5 478,-244.5 478,-274.5"/>
<text text-anchor="start" x="376" y="-262.5" font-family="Helvetica,sans-Serif" font-size="10.00">TopologyExtractor::</text>
<text text-anchor="middle" x="423" y="-251.5" font-family="Helvetica,sans-Serif" font-size="10.00">extract</text>
</a>
</g>
</g>
<!-- Node1&#45;&gt;Node20 -->
<g id="edge21_Node000001_Node000020" class="edge">
<title>Node1&#45;&gt;Node20</title>
<g id="a_edge21_Node000001_Node000020"><a xlink:title=" ">
<path fill="none" stroke="#63b8ff" d="M99.07,-235.16C165.38,-240.16 284.38,-249.13 357.93,-254.67"/>
<polygon fill="#63b8ff" stroke="#63b8ff" points="357.76,-258.17 368,-255.43 358.29,-251.19 357.76,-258.17"/>
</a>
</g>
</g>
<!-- Node34 -->
<g id="Node000034" class="node">
<title>Node34</title>
<g id="a_Node000034"><a xlink:href="classSwitchOrientator.html#a5af1a097baad421ce01bd013be602df7" target="_top" xlink:title="Exécute les phases 6, 6b et 6c en place sur topoResult.switches.">
<polygon fill="white" stroke="#666666" points="283.5,-203 150.5,-203 150.5,-184 283.5,-184 283.5,-203"/>
<text text-anchor="middle" x="217" y="-191" font-family="Helvetica,sans-Serif" font-size="10.00">SwitchOrientator::orient</text>
</a>
</g>
</g>
<!-- Node1&#45;&gt;Node34 -->
<g id="edge39_Node000001_Node000034" class="edge">
<title>Node1&#45;&gt;Node34</title>
<g id="a_edge39_Node000001_Node000034"><a xlink:title=" ">
<path fill="none" stroke="#63b8ff" d="M92.26,-221.91C114.2,-216.87 141.28,-210.66 164.51,-205.32"/>
<polygon fill="#63b8ff" stroke="#63b8ff" points="165.57,-208.67 174.54,-203.02 164.01,-201.85 165.57,-208.67"/>
</a>
</g>
</g>
<!-- Node44 -->
<g id="Node000044" class="node">
<title>Node44</title>
<g id="a_Node000044"><a xlink:href="classGeoParser.html#ac1bf91960abbe3c2b4a2090f5cb84c82" target="_top" xlink:title="Notifie la progression.">
<polygon fill="white" stroke="#666666" points="288.5,-166 145.5,-166 145.5,-147 288.5,-147 288.5,-166"/>
<text text-anchor="middle" x="217" y="-154" font-family="Helvetica,sans-Serif" font-size="10.00">GeoParser::reportProgress</text>
</a>
</g>
</g>
<!-- Node1&#45;&gt;Node44 -->
<g id="edge52_Node000001_Node000044" class="edge">
<title>Node1&#45;&gt;Node44</title>
<g id="a_edge52_Node000001_Node000044"><a xlink:title=" ">
<path fill="none" stroke="#63b8ff" d="M61.72,-221.88C77.18,-209.13 106.39,-186.8 135,-174.5 139.76,-172.45 144.78,-170.63 149.89,-169"/>
<polygon fill="#63b8ff" stroke="#63b8ff" points="151.18,-172.27 159.8,-166.11 149.22,-165.55 151.18,-172.27"/>
</a>
</g>
</g>
<!-- Node45 -->
<g id="Node000045" class="node">
<title>Node45</title>
<g id="a_Node000045"><a xlink:href="classDoubleSwitchDetector.html#aafcb2f1f89baf21706072a58a8f5b5f7" target="_top" xlink:title=" ">
<polygon fill="white" stroke="#666666" points="279.5,-128.5 154.5,-128.5 154.5,-98.5 279.5,-98.5 279.5,-128.5"/>
<text text-anchor="start" x="162.5" y="-116.5" font-family="Helvetica,sans-Serif" font-size="10.00">DoubleSwitchDetector</text>
<text text-anchor="middle" x="217" y="-105.5" font-family="Helvetica,sans-Serif" font-size="10.00">::validateSwitches</text>
</a>
</g>
</g>
<!-- Node1&#45;&gt;Node45 -->
<g id="edge53_Node000001_Node000045" class="edge">
<title>Node1&#45;&gt;Node45</title>
<g id="a_edge53_Node000001_Node000045"><a xlink:title=" ">
<path fill="none" stroke="#63b8ff" d="M56.44,-221.92C68.73,-202.93 98.82,-160.35 135,-137.5 138.16,-135.5 141.5,-133.67 144.94,-131.98"/>
<polygon fill="#63b8ff" stroke="#63b8ff" points="146.54,-135.09 154.26,-127.84 143.7,-128.7 146.54,-135.09"/>
</a>
</g>
</g>
<!-- Node3 -->
<g id="Node000003" class="node">
<title>Node3</title>
<g id="a_Node000003"><a xlink:href="classGraphBuilder.html#a978a9bb24411525583b8c2855db91c80" target="_top" xlink:title="Phase 2 — Construit le TopologyGraph depuis les polylignes métriques.">
<polygon fill="white" stroke="#666666" points="500,-466.5 346,-466.5 346,-436.5 500,-436.5 500,-466.5"/>
<text text-anchor="start" x="354" y="-454.5" font-family="Helvetica,sans-Serif" font-size="10.00">GraphBuilder::buildTopology</text>
<text text-anchor="middle" x="423" y="-443.5" font-family="Helvetica,sans-Serif" font-size="10.00">Graph</text>
</a>
</g>
</g>
<!-- Node2&#45;&gt;Node3 -->
<g id="edge2_Node000002_Node000003" class="edge">
<title>Node2&#45;&gt;Node3</title>
<g id="a_edge2_Node000002_Node000003"><a xlink:title=" ">
<path fill="none" stroke="#63b8ff" d="M272.13,-433.87C291.6,-436.16 314.07,-438.8 335.59,-441.33"/>
<polygon fill="#63b8ff" stroke="#63b8ff" points="335.39,-444.83 345.73,-442.53 336.2,-437.88 335.39,-444.83"/>
</a>
</g>
</g>
<!-- Node13 -->
<g id="Node000013" class="node">
<title>Node13</title>
<g id="a_Node000013"><a xlink:href="classGraphBuilder.html#aaa371c7490baaad1002240d7dc88da9c" target="_top" xlink:title="Calcule et retourne l&#39;ensemble des nœuds frontières du graphe.">
<polygon fill="white" stroke="#666666" points="511,-418.5 335,-418.5 335,-388.5 511,-388.5 511,-418.5"/>
<text text-anchor="start" x="343" y="-406.5" font-family="Helvetica,sans-Serif" font-size="10.00">GraphBuilder::computeBoundary</text>
<text text-anchor="middle" x="423" y="-395.5" font-family="Helvetica,sans-Serif" font-size="10.00">NodeIds</text>
</a>
</g>
</g>
<!-- Node2&#45;&gt;Node13 -->
<g id="edge14_Node000002_Node000013" class="edge">
<title>Node2&#45;&gt;Node13</title>
<g id="a_edge14_Node000002_Node000013"><a xlink:title=" ">
<path fill="none" stroke="#63b8ff" d="M272.13,-421.13C288.37,-419.22 306.69,-417.07 324.82,-414.93"/>
<polygon fill="#63b8ff" stroke="#63b8ff" points="325.33,-418.4 334.85,-413.75 324.51,-411.45 325.33,-418.4"/>
</a>
</g>
</g>
<!-- Node14 -->
<g id="Node000014" class="node">
<title>Node14</title>
<g id="a_Node000014"><a xlink:href="classGraphBuilder.html#aa6791cab236c871f53d8e7017875f7bc" target="_top" xlink:title="Phase 1 — Lit le GeoJSON et extrait les polylignes brutes WGS&#45;84.">
<polygon fill="white" stroke="#666666" points="505,-544 341,-544 341,-525 505,-525 505,-544"/>
<text text-anchor="middle" x="423" y="-532" font-family="Helvetica,sans-Serif" font-size="10.00">GraphBuilder::loadGeoJsonFile</text>
</a>
</g>
</g>
<!-- Node2&#45;&gt;Node14 -->
<g id="edge15_Node000002_Node000014" class="edge">
<title>Node2&#45;&gt;Node14</title>
<g id="a_edge15_Node000002_Node000014"><a xlink:title=" ">
<path fill="none" stroke="#63b8ff" d="M236.46,-437.18C272.57,-456.12 352.68,-498.14 394.85,-520.26"/>
<polygon fill="#63b8ff" stroke="#63b8ff" points="393.24,-523.37 403.73,-524.91 396.5,-517.17 393.24,-523.37"/>
</a>
</g>
</g>
<!-- Node4 -->
<g id="Node000004" class="node">
<title>Node4</title>
<g id="a_Node000004"><a xlink:href="classTopologyGraph.html#a99f720078a226f9d62b284d67194153b" target="_top" xlink:title="Ajoute une arête non&#45;orientée entre les nœuds startNodeId et endNodeId.">
<polygon fill="white" stroke="#666666" points="707,-421 570,-421 570,-402 707,-402 707,-421"/>
<text text-anchor="middle" x="638.5" y="-409" font-family="Helvetica,sans-Serif" font-size="10.00">TopologyGraph::addEdge</text>
</a>
</g>
</g>
<!-- Node3&#45;&gt;Node4 -->
<g id="edge3_Node000003_Node000004" class="edge">
<title>Node3&#45;&gt;Node4</title>
<g id="a_edge3_Node000003_Node000004"><a xlink:title=" ">
<path fill="none" stroke="#63b8ff" d="M500.17,-437.23C525.32,-432.52 552.94,-427.34 576.78,-422.88"/>
<polygon fill="#63b8ff" stroke="#63b8ff" points="577.56,-426.29 586.74,-421.01 576.27,-419.41 577.56,-426.29"/>
</a>
</g>
</g>
<!-- Node5 -->
<g id="Node000005" class="node">
<title>Node5</title>
<g id="a_Node000005"><a xlink:href="classGeometryUtils.html#aa06e19f5aae6fce3108b2fcfc709fc53" target="_top" xlink:title="Convertit une polyligne WGS&#45;84 en coordonnées métriques UTM.">
<polygon fill="white" stroke="#666666" points="940.5,-196.5 770.5,-196.5 770.5,-166.5 940.5,-166.5 940.5,-196.5"/>
<text text-anchor="start" x="778.5" y="-184.5" font-family="Helvetica,sans-Serif" font-size="10.00">GeometryUtils::convertPolyline</text>
<text text-anchor="middle" x="855.5" y="-173.5" font-family="Helvetica,sans-Serif" font-size="10.00">ToMetric</text>
</a>
</g>
</g>
<!-- Node3&#45;&gt;Node5 -->
<g id="edge4_Node000003_Node000005" class="edge">
<title>Node3&#45;&gt;Node5</title>
<g id="a_edge4_Node000003_Node000005"><a xlink:title=" ">
<path fill="none" stroke="#63b8ff" d="M500.16,-436.41C504.11,-433.87 507.78,-430.92 511,-427.5 563.67,-371.61 492.56,-312.66 547,-258.5 605.89,-199.91 650.64,-245.03 730,-220.5 746.56,-215.38 749.6,-211.11 766,-205.5 772.03,-203.44 778.34,-201.43 784.69,-199.52"/>
<polygon fill="#63b8ff" stroke="#63b8ff" points="786.06,-202.76 794.67,-196.59 784.09,-196.04 786.06,-202.76"/>
</a>
</g>
</g>
<!-- Node8 -->
<g id="Node000008" class="node">
<title>Node8</title>
<g id="a_Node000008"><a xlink:href="classTopologyGraph.html#aad7a0f965d35805d33c60bc8df0c2991" target="_top" xlink:title="Retourne l&#39;ID du nœud en (x, y), le créant si absent.">
<polygon fill="white" stroke="#666666" points="728.5,-458 548.5,-458 548.5,-439 728.5,-439 728.5,-458"/>
<text text-anchor="middle" x="638.5" y="-446" font-family="Helvetica,sans-Serif" font-size="10.00">TopologyGraph::getOrCreateNode</text>
</a>
</g>
</g>
<!-- Node3&#45;&gt;Node8 -->
<g id="edge7_Node000003_Node000008" class="edge">
<title>Node3&#45;&gt;Node8</title>
<g id="a_edge7_Node000003_Node000008"><a xlink:title=" ">
<path fill="none" stroke="#63b8ff" d="M500.17,-450.43C512.46,-450.26 525.33,-450.08 538.07,-449.9"/>
<polygon fill="#63b8ff" stroke="#63b8ff" points="538.29,-453.39 548.24,-449.75 538.19,-446.4 538.29,-453.39"/>
</a>
</g>
</g>
<!-- Node9 -->
<g id="Node000009" class="node">
<title>Node9</title>
<g id="a_Node000009"><a xlink:href="classGeometryUtils.html#a1f0bcf5c241331f56979b6d63b3412c1" target="_top" xlink:title="Accroche une coordonnée métrique au sommet le plus proche d&#39;une grille.">
<polygon fill="white" stroke="#666666" points="945,-460 766,-460 766,-441 945,-441 945,-460"/>
<text text-anchor="middle" x="855.5" y="-448" font-family="Helvetica,sans-Serif" font-size="10.00">GeometryUtils::snapToMetricGrid</text>
</a>
</g>
</g>
<!-- Node3&#45;&gt;Node9 -->
<g id="edge13_Node000003_Node000009" class="edge">
<title>Node3&#45;&gt;Node9</title>
<g id="a_edge13_Node000003_Node000009"><a xlink:title=" ">
<path fill="none" stroke="#63b8ff" d="M500.29,-462.98C515.72,-464.86 531.85,-466.52 547,-467.5 628.16,-472.76 648.85,-473.01 730,-467.5 748.55,-466.24 768.54,-463.93 786.97,-461.42"/>
<polygon fill="#63b8ff" stroke="#63b8ff" points="787.61,-464.86 797.02,-460.01 786.63,-457.93 787.61,-464.86"/>
</a>
</g>
</g>
<!-- Node10 -->
<g id="Node000010" class="node">
<title>Node10</title>
<g id="a_Node000010"><a xlink:href="classTopologyGraph.html#a27cb3f78740d0cf268f2ea5f3bace6d7" target="_top" xlink:title="Fusionne les nœuds séparés de moins de toleranceMeters.">
<polygon fill="white" stroke="#666666" points="715.5,-544.5 561.5,-544.5 561.5,-514.5 715.5,-514.5 715.5,-544.5"/>
<text text-anchor="start" x="569.5" y="-532.5" font-family="Helvetica,sans-Serif" font-size="10.00">TopologyGraph::mergeClose</text>
<text text-anchor="middle" x="638.5" y="-521.5" font-family="Helvetica,sans-Serif" font-size="10.00">Nodes</text>
</a>
</g>
</g>
<!-- Node3&#45;&gt;Node10 -->
<g id="edge9_Node000003_Node000010" class="edge">
<title>Node3&#45;&gt;Node10</title>
<g id="a_edge9_Node000003_Node000010"><a xlink:title=" ">
<path fill="none" stroke="#63b8ff" d="M459.81,-466.52C484.22,-476.58 517.36,-489.86 547,-500.5 557.22,-504.17 568.18,-507.87 578.81,-511.34"/>
<polygon fill="#63b8ff" stroke="#63b8ff" points="577.85,-514.71 588.45,-514.46 580.01,-508.05 577.85,-514.71"/>
</a>
</g>
</g>
<!-- Node6 -->
<g id="Node000006" class="node">
<title>Node6</title>
<g id="a_Node000006"><a xlink:href="classGeometryUtils.html#abcb43f3e49607318e07012e902febfdb" target="_top" xlink:title="Convertit une coordonnée WGS&#45;84 en mètres UTM.">
<polygon fill="white" stroke="#666666" points="1169,-193 981,-193 981,-174 1169,-174 1169,-193"/>
<text text-anchor="middle" x="1075" y="-181" font-family="Helvetica,sans-Serif" font-size="10.00">GeometryUtils::wgs84ToMetricUtm</text>
</a>
</g>
</g>
<!-- Node5&#45;&gt;Node6 -->
<g id="edge5_Node000005_Node000006" class="edge">
<title>Node5&#45;&gt;Node6</title>
<g id="a_edge5_Node000005_Node000006"><a xlink:title=" ">
<path fill="none" stroke="#63b8ff" d="M940.59,-182.27C950.45,-182.36 960.6,-182.46 970.69,-182.55"/>
<polygon fill="#63b8ff" stroke="#63b8ff" points="970.71,-186.05 980.74,-182.64 970.77,-179.05 970.71,-186.05"/>
</a>
</g>
</g>
<!-- Node7 -->
<g id="Node000007" class="node">
<title>Node7</title>
<g id="a_Node000007"><a xlink:href="classGeometryUtils.html#a0a57b43055d32f595a7c84dbd7d098e3" target="_top" xlink:title="Retourne le méridien central (degrés) d&#39;une zone UTM.">
<polygon fill="white" stroke="#666666" points="1362.5,-222.5 1213.5,-222.5 1213.5,-192.5 1362.5,-192.5 1362.5,-222.5"/>
<text text-anchor="start" x="1221.5" y="-210.5" font-family="Helvetica,sans-Serif" font-size="10.00">GeometryUtils::utmCentral</text>
<text text-anchor="middle" x="1288" y="-199.5" font-family="Helvetica,sans-Serif" font-size="10.00">MeridianDegrees</text>
</a>
</g>
</g>
<!-- Node6&#45;&gt;Node7 -->
<g id="edge6_Node000006_Node000007" class="edge">
<title>Node6&#45;&gt;Node7</title>
<g id="a_edge6_Node000006_Node000007"><a xlink:title=" ">
<path fill="none" stroke="#63b8ff" d="M1159.7,-193.02C1173.95,-194.64 1188.77,-196.33 1203.03,-197.95"/>
<polygon fill="#63b8ff" stroke="#63b8ff" points="1202.98,-201.47 1213.31,-199.12 1203.77,-194.51 1202.98,-201.47"/>
</a>
</g>
</g>
<!-- Node8&#45;&gt;Node9 -->
<g id="edge8_Node000008_Node000009" class="edge">
<title>Node8&#45;&gt;Node9</title>
<g id="a_edge8_Node000008_Node000009"><a xlink:title=" ">
<path fill="none" stroke="#63b8ff" d="M728.5,-449.33C737.48,-449.41 746.64,-449.5 755.72,-449.58"/>
<polygon fill="#63b8ff" stroke="#63b8ff" points="755.88,-453.08 765.91,-449.68 755.95,-446.08 755.88,-453.08"/>
</a>
</g>
</g>
<!-- Node11 -->
<g id="Node000011" class="node">
<title>Node11</title>
<g id="a_Node000011"><a xlink:href="classTopologyGraph.html#ae6743defffd4df65ccd2f59931281e7d" target="_top" xlink:title=" ">
<polygon fill="white" stroke="#666666" points="1154,-544.5 996,-544.5 996,-514.5 1154,-514.5 1154,-544.5"/>
<text text-anchor="start" x="1004" y="-532.5" font-family="Helvetica,sans-Serif" font-size="10.00">TopologyGraph::findRootWith</text>
<text text-anchor="middle" x="1075" y="-521.5" font-family="Helvetica,sans-Serif" font-size="10.00">PathCompression</text>
</a>
</g>
</g>
<!-- Node10&#45;&gt;Node11 -->
<g id="edge10_Node000010_Node000011" class="edge">
<title>Node10&#45;&gt;Node11</title>
<g id="a_edge10_Node000010_Node000011"><a xlink:title=" ">
<path fill="none" stroke="#63b8ff" d="M715.68,-529.5C790.92,-529.5 905.92,-529.5 985.24,-529.5"/>
<polygon fill="#63b8ff" stroke="#63b8ff" points="985.71,-533 995.71,-529.5 985.71,-526 985.71,-533"/>
</a>
</g>
</g>
<!-- Node12 -->
<g id="Node000012" class="node">
<title>Node12</title>
<g id="a_Node000012"><a xlink:href="classTopologyGraph.html#a37b8517d94af461d5d7eb42e216a38e9" target="_top" xlink:title=" ">
<polygon fill="white" stroke="#666666" points="939,-558 772,-558 772,-539 939,-539 939,-558"/>
<text text-anchor="middle" x="855.5" y="-546" font-family="Helvetica,sans-Serif" font-size="10.00">TopologyGraph::uniteNodeSets</text>
</a>
</g>
</g>
<!-- Node10&#45;&gt;Node12 -->
<g id="edge11_Node000010_Node000012" class="edge">
<title>Node10&#45;&gt;Node12</title>
<g id="a_edge11_Node000010_Node000012"><a xlink:title=" ">
<path fill="none" stroke="#63b8ff" d="M715.6,-536.23C730.57,-537.55 746.42,-538.95 761.85,-540.31"/>
<polygon fill="#63b8ff" stroke="#63b8ff" points="761.66,-543.81 771.92,-541.2 762.27,-536.84 761.66,-543.81"/>
</a>
</g>
</g>
<!-- Node12&#45;&gt;Node11 -->
<g id="edge12_Node000012_Node000011" class="edge">
<title>Node12&#45;&gt;Node11</title>
<g id="a_edge12_Node000012_Node000011"><a xlink:title=" ">
<path fill="none" stroke="#63b8ff" d="M939.04,-541.29C954.32,-539.96 970.33,-538.56 985.77,-537.21"/>
<polygon fill="#63b8ff" stroke="#63b8ff" points="986.17,-540.69 995.82,-536.33 985.56,-533.71 986.17,-540.69"/>
</a>
</g>
</g>
<!-- Node15 -->
<g id="Node000015" class="node">
<title>Node15</title>
<g id="a_Node000015"><a xlink:href="classGeometryUtils.html#a5614ece2f3da0feba6ca96ae0e9c3b0a" target="_top" xlink:title="Estime le numéro de zone UTM (1–60) depuis la longitude centre.">
<polygon fill="white" stroke="#666666" points="730,-582 547,-582 547,-563 730,-563 730,-582"/>
<text text-anchor="middle" x="638.5" y="-570" font-family="Helvetica,sans-Serif" font-size="10.00">GeometryUtils::estimateUtmZone</text>
</a>
</g>
</g>
<!-- Node14&#45;&gt;Node15 -->
<g id="edge16_Node000014_Node000015" class="edge">
<title>Node14&#45;&gt;Node15</title>
<g id="a_edge16_Node000014_Node000015"><a xlink:title=" ">
<path fill="none" stroke="#63b8ff" d="M477.6,-544.04C506.79,-549.23 543.09,-555.7 573.72,-561.15"/>
<polygon fill="#63b8ff" stroke="#63b8ff" points="573.42,-564.65 583.88,-562.96 574.65,-557.76 573.42,-564.65"/>
</a>
</g>
</g>
<!-- Node17 -->
<g id="Node000017" class="node">
<title>Node17</title>
<g id="a_Node000017"><a xlink:href="classDoubleSwitchDetector.html#a3be8598fec31308ef13ff0ccd942d319" target="_top" xlink:title=" ">
<polygon fill="white" stroke="#666666" points="485.5,-370.5 360.5,-370.5 360.5,-340.5 485.5,-340.5 485.5,-370.5"/>
<text text-anchor="start" x="368.5" y="-358.5" font-family="Helvetica,sans-Serif" font-size="10.00">DoubleSwitchDetector</text>
<text text-anchor="middle" x="423" y="-347.5" font-family="Helvetica,sans-Serif" font-size="10.00">::absorbLinkSegment</text>
</a>
</g>
</g>
<!-- Node16&#45;&gt;Node17 -->
<g id="edge18_Node000016_Node000017" class="edge">
<title>Node16&#45;&gt;Node17</title>
<g id="a_edge18_Node000016_Node000017"><a xlink:title=" ">
<path fill="none" stroke="#63b8ff" d="M279.76,-325.52C302.03,-330.21 327.35,-335.55 350.39,-340.41"/>
<polygon fill="#63b8ff" stroke="#63b8ff" points="349.94,-343.89 360.45,-342.53 351.39,-337.04 349.94,-343.89"/>
</a>
</g>
</g>
<!-- Node18 -->
<g id="Node000018" class="node">
<title>Node18</title>
<g id="a_Node000018"><a xlink:href="classDoubleSwitchDetector.html#a910540ff55f2d3523deab88d77fa185a" target="_top" xlink:title=" ">
<polygon fill="white" stroke="#666666" points="496.5,-322.5 349.5,-322.5 349.5,-292.5 496.5,-292.5 496.5,-322.5"/>
<text text-anchor="start" x="357.5" y="-310.5" font-family="Helvetica,sans-Serif" font-size="10.00">DoubleSwitchDetector</text>
<text text-anchor="middle" x="423" y="-299.5" font-family="Helvetica,sans-Serif" font-size="10.00">::findDoubleSwitchClusters</text>
</a>
</g>
</g>
<!-- Node16&#45;&gt;Node18 -->
<g id="edge19_Node000016_Node000018" class="edge">
<title>Node16&#45;&gt;Node18</title>
<g id="a_edge19_Node000016_Node000018"><a xlink:title=" ">
<path fill="none" stroke="#63b8ff" d="M279.76,-310.99C298.43,-310.53 319.25,-310.02 339.07,-309.53"/>
<polygon fill="#63b8ff" stroke="#63b8ff" points="339.42,-313.03 349.33,-309.28 339.25,-306.03 339.42,-313.03"/>
</a>
</g>
</g>
<!-- Node21 -->
<g id="Node000021" class="node">
<title>Node21</title>
<g id="a_Node000021"><a xlink:href="classTopologyExtractor.html#abfb30b40b7194303e6c828d802dd1175" target="_top" xlink:title=" ">
<polygon fill="white" stroke="#666666" points="910.5,-292.5 800.5,-292.5 800.5,-262.5 910.5,-262.5 910.5,-292.5"/>
<text text-anchor="start" x="808.5" y="-280.5" font-family="Helvetica,sans-Serif" font-size="10.00">TopologyExtractor::</text>
<text text-anchor="middle" x="855.5" y="-269.5" font-family="Helvetica,sans-Serif" font-size="10.00">detectSwitches</text>
</a>
</g>
</g>
<!-- Node20&#45;&gt;Node21 -->
<g id="edge22_Node000020_Node000021" class="edge">
<title>Node20&#45;&gt;Node21</title>
<g id="a_edge22_Node000020_Node000021"><a xlink:title=" ">
<path fill="none" stroke="#63b8ff" d="M478.25,-271.76C489.3,-275.01 500.69,-278.91 511,-283.5 528.35,-291.22 528.78,-301.18 547,-306.5 625.07,-329.31 649.2,-315.79 730,-306.5 750.46,-304.15 772.46,-299.69 792.18,-294.96"/>
<polygon fill="#63b8ff" stroke="#63b8ff" points="793.09,-298.34 801.96,-292.55 791.41,-291.54 793.09,-298.34"/>
</a>
</g>
</g>
<!-- Node23 -->
<g id="Node000023" class="node">
<title>Node23</title>
<g id="a_Node000023"><a xlink:href="classTopologyExtractor.html#a8003022ac7f09c074969ec22d3305429" target="_top" xlink:title=" ">
<polygon fill="white" stroke="#666666" points="693.5,-297.5 583.5,-297.5 583.5,-267.5 693.5,-267.5 693.5,-297.5"/>
<text text-anchor="start" x="591.5" y="-285.5" font-family="Helvetica,sans-Serif" font-size="10.00">TopologyExtractor::</text>
<text text-anchor="middle" x="638.5" y="-274.5" font-family="Helvetica,sans-Serif" font-size="10.00">extractStraights</text>
</a>
</g>
</g>
<!-- Node20&#45;&gt;Node23 -->
<g id="edge25_Node000020_Node000023" class="edge">
<title>Node20&#45;&gt;Node23</title>
<g id="a_edge25_Node000020_Node000023"><a xlink:title=" ">
<path fill="none" stroke="#63b8ff" d="M478.15,-265.33C507.12,-268.45 542.98,-272.32 573.34,-275.59"/>
<polygon fill="#63b8ff" stroke="#63b8ff" points="573.09,-279.08 583.41,-276.67 573.84,-272.12 573.09,-279.08"/>
</a>
</g>
</g>
<!-- Node30 -->
<g id="Node000030" class="node">
<title>Node30</title>
<g id="a_Node000030"><a xlink:href="classTopologyExtractor.html#ad1d5361674a11a78d2ea58a6024fb140" target="_top" xlink:title=" ">
<polygon fill="white" stroke="#666666" points="693.5,-211.5 583.5,-211.5 583.5,-181.5 693.5,-181.5 693.5,-211.5"/>
<text text-anchor="start" x="591.5" y="-199.5" font-family="Helvetica,sans-Serif" font-size="10.00">TopologyExtractor::</text>
<text text-anchor="middle" x="638.5" y="-188.5" font-family="Helvetica,sans-Serif" font-size="10.00">splitLongStraights</text>
</a>
</g>
</g>
<!-- Node20&#45;&gt;Node30 -->
<g id="edge33_Node000020_Node000030" class="edge">
<title>Node20&#45;&gt;Node30</title>
<g id="a_edge33_Node000020_Node000030"><a xlink:title=" ">
<path fill="none" stroke="#63b8ff" d="M474.87,-244.49C505.49,-235.45 544.67,-223.89 576.89,-214.38"/>
<polygon fill="#63b8ff" stroke="#63b8ff" points="578.05,-217.69 586.65,-211.5 576.07,-210.98 578.05,-217.69"/>
</a>
</g>
</g>
<!-- Node32 -->
<g id="Node000032" class="node">
<title>Node32</title>
<g id="a_Node000032"><a xlink:href="classTopologyExtractor.html#ad16f6760ca59d58d9e37dee7404071d6" target="_top" xlink:title=" ">
<polygon fill="white" stroke="#666666" points="693.5,-383.5 583.5,-383.5 583.5,-353.5 693.5,-353.5 693.5,-383.5"/>
<text text-anchor="start" x="591.5" y="-371.5" font-family="Helvetica,sans-Serif" font-size="10.00">TopologyExtractor::</text>
<text text-anchor="middle" x="638.5" y="-360.5" font-family="Helvetica,sans-Serif" font-size="10.00">wireTopology</text>
</a>
</g>
</g>
<!-- Node20&#45;&gt;Node32 -->
<g id="edge37_Node000020_Node000032" class="edge">
<title>Node20&#45;&gt;Node32</title>
<g id="a_edge37_Node000020_Node000032"><a xlink:title=" ">
<path fill="none" stroke="#63b8ff" d="M478.32,-267.94C489.84,-271.46 501.41,-276.44 511,-283.5 534.83,-301.03 523.53,-321.48 547,-339.5 554.95,-345.6 564.22,-350.44 573.74,-354.28"/>
<polygon fill="#63b8ff" stroke="#63b8ff" points="572.71,-357.63 583.31,-357.78 575.12,-351.05 572.71,-357.63"/>
</a>
</g>
</g>
<!-- Node22 -->
<g id="Node000022" class="node">
<title>Node22</title>
<g id="a_Node000022"><a xlink:href="classGeometryUtils.html#a0dfa23ddf2d80abfeaeac186ae124fd0" target="_top" xlink:title="Convertit une coordonnée métrique UTM en WGS&#45;84.">
<polygon fill="white" stroke="#666666" points="1148,-243.5 1002,-243.5 1002,-213.5 1148,-213.5 1148,-243.5"/>
<text text-anchor="start" x="1010" y="-231.5" font-family="Helvetica,sans-Serif" font-size="10.00">GeometryUtils::metricUtm</text>
<text text-anchor="middle" x="1075" y="-220.5" font-family="Helvetica,sans-Serif" font-size="10.00">ToWgs84</text>
</a>
</g>
</g>
<!-- Node21&#45;&gt;Node22 -->
<g id="edge23_Node000021_Node000022" class="edge">
<title>Node21&#45;&gt;Node22</title>
<g id="a_edge23_Node000021_Node000022"><a xlink:title=" ">
<path fill="none" stroke="#63b8ff" d="M910.54,-265.32C936.77,-259.42 968.73,-252.22 997.41,-245.76"/>
<polygon fill="#63b8ff" stroke="#63b8ff" points="998.41,-249.12 1007.4,-243.5 996.88,-242.29 998.41,-249.12"/>
</a>
</g>
</g>
<!-- Node22&#45;&gt;Node7 -->
<g id="edge24_Node000022_Node000007" class="edge">
<title>Node22&#45;&gt;Node7</title>
<g id="a_edge24_Node000022_Node000007"><a xlink:title=" ">
<path fill="none" stroke="#63b8ff" d="M1148.02,-221.33C1165.75,-219.57 1184.89,-217.66 1203.12,-215.85"/>
<polygon fill="#63b8ff" stroke="#63b8ff" points="1203.54,-219.32 1213.15,-214.85 1202.85,-212.36 1203.54,-219.32"/>
</a>
</g>
</g>
<!-- Node24 -->
<g id="Node000024" class="node">
<title>Node24</title>
<g id="a_Node000024"><a xlink:href="classGeometryUtils.html#aba6963b2f6022f04e51fb716a11e3895" target="_top" xlink:title="Convertit une polyligne métrique UTM en WGS&#45;84.">
<polygon fill="white" stroke="#666666" points="940.5,-244.5 770.5,-244.5 770.5,-214.5 940.5,-214.5 940.5,-244.5"/>
<text text-anchor="start" x="778.5" y="-232.5" font-family="Helvetica,sans-Serif" font-size="10.00">GeometryUtils::convertPolyline</text>
<text text-anchor="middle" x="855.5" y="-221.5" font-family="Helvetica,sans-Serif" font-size="10.00">ToWgs84</text>
</a>
</g>
</g>
<!-- Node23&#45;&gt;Node24 -->
<g id="edge26_Node000023_Node000024" class="edge">
<title>Node23&#45;&gt;Node24</title>
<g id="a_edge26_Node000023_Node000024"><a xlink:title=" ">
<path fill="none" stroke="#63b8ff" d="M693.75,-269.13C721.02,-262.4 754.41,-254.17 783.68,-246.96"/>
<polygon fill="#63b8ff" stroke="#63b8ff" points="784.56,-250.35 793.43,-244.55 782.88,-243.55 784.56,-250.35"/>
</a>
</g>
</g>
<!-- Node25 -->
<g id="Node000025" class="node">
<title>Node25</title>
<g id="a_Node000025"><a xlink:href="classTopologyExtractor.html#a27bf51ac35232011f385f6d426b4ee89" target="_top" xlink:title="Marche le graphe depuis startNodeId le long de incomingEdgeId jusqu&#39;au prochain nœud frontière.">
<polygon fill="white" stroke="#666666" points="921,-340.5 790,-340.5 790,-310.5 921,-310.5 921,-340.5"/>
<text text-anchor="start" x="798" y="-328.5" font-family="Helvetica,sans-Serif" font-size="10.00">TopologyExtractor::</text>
<text text-anchor="middle" x="855.5" y="-317.5" font-family="Helvetica,sans-Serif" font-size="10.00">walkPathUntilBoundary</text>
</a>
</g>
</g>
<!-- Node23&#45;&gt;Node25 -->
<g id="edge28_Node000023_Node000025" class="edge">
<title>Node23&#45;&gt;Node25</title>
<g id="a_edge28_Node000023_Node000025"><a xlink:title=" ">
<path fill="none" stroke="#63b8ff" d="M693.75,-293.35C719.9,-298.58 751.68,-304.94 780.05,-310.61"/>
<polygon fill="#63b8ff" stroke="#63b8ff" points="779.44,-314.06 789.93,-312.59 780.81,-307.19 779.44,-314.06"/>
</a>
</g>
</g>
<!-- Node24&#45;&gt;Node22 -->
<g id="edge27_Node000024_Node000022" class="edge">
<title>Node24&#45;&gt;Node22</title>
<g id="a_edge27_Node000024_Node000022"><a xlink:title=" ">
<path fill="none" stroke="#63b8ff" d="M940.59,-229.11C957.32,-229.04 974.87,-228.96 991.55,-228.88"/>
<polygon fill="#63b8ff" stroke="#63b8ff" points="991.82,-232.38 1001.8,-228.83 991.79,-225.38 991.82,-232.38"/>
</a>
</g>
</g>
<!-- Node26 -->
<g id="Node000026" class="node">
<title>Node26</title>
<g id="a_Node000026"><a xlink:href="classTopologyGraph.html#a07cb1a1808c40751d01dd7d43d335024" target="_top" xlink:title="Retourne l&#39;arête sortante en atNodeId la plus colinéaire à incomingEdgeId.">
<polygon fill="white" stroke="#666666" points="1165.5,-388.5 984.5,-388.5 984.5,-358.5 1165.5,-358.5 1165.5,-388.5"/>
<text text-anchor="start" x="992.5" y="-376.5" font-family="Helvetica,sans-Serif" font-size="10.00">TopologyGraph::findMostCollinear</text>
<text text-anchor="middle" x="1075" y="-365.5" font-family="Helvetica,sans-Serif" font-size="10.00">Continuation</text>
</a>
</g>
</g>
<!-- Node25&#45;&gt;Node26 -->
<g id="edge29_Node000025_Node000026" class="edge">
<title>Node25&#45;&gt;Node26</title>
<g id="a_edge29_Node000025_Node000026"><a xlink:title=" ">
<path fill="none" stroke="#63b8ff" d="M921.17,-339.77C944.61,-344.95 971.34,-350.84 995.82,-356.25"/>
<polygon fill="#63b8ff" stroke="#63b8ff" points="995.28,-359.71 1005.8,-358.45 996.79,-352.88 995.28,-359.71"/>
</a>
</g>
</g>
<!-- Node28 -->
<g id="Node000028" class="node">
<title>Node28</title>
<g id="a_Node000028"><a xlink:href="classTopologyGraph.html#a7c086df2f9774459710f88d37158b745" target="_top" xlink:title="Retourne le degré d&#39;un nœud (nombre d&#39;arêtes incidentes).">
<polygon fill="white" stroke="#666666" points="1148,-340.5 1002,-340.5 1002,-310.5 1148,-310.5 1148,-340.5"/>
<text text-anchor="start" x="1010" y="-328.5" font-family="Helvetica,sans-Serif" font-size="10.00">TopologyGraph::getDegree</text>
<text text-anchor="middle" x="1075" y="-317.5" font-family="Helvetica,sans-Serif" font-size="10.00">OfNode</text>
</a>
</g>
</g>
<!-- Node25&#45;&gt;Node28 -->
<g id="edge31_Node000025_Node000028" class="edge">
<title>Node25&#45;&gt;Node28</title>
<g id="a_edge31_Node000025_Node000028"><a xlink:title=" ">
<path fill="none" stroke="#63b8ff" d="M921.17,-325.5C943.31,-325.5 968.39,-325.5 991.73,-325.5"/>
<polygon fill="#63b8ff" stroke="#63b8ff" points="991.97,-329 1001.97,-325.5 991.97,-322 991.97,-329"/>
</a>
</g>
</g>
<!-- Node29 -->
<g id="Node000029" class="node">
<title>Node29</title>
<g id="a_Node000029"><a xlink:href="classTopologyGraph.html#aada47ec2c5b5ebc4ccf72b4b4c4f5e01" target="_top" xlink:title="Retourne l&#39;ID du nœud de l&#39;autre extrémité d&#39;une arête.">
<polygon fill="white" stroke="#666666" points="1152.5,-292.5 997.5,-292.5 997.5,-262.5 1152.5,-262.5 1152.5,-292.5"/>
<text text-anchor="start" x="1005.5" y="-280.5" font-family="Helvetica,sans-Serif" font-size="10.00">TopologyGraph::getOpposite</text>
<text text-anchor="middle" x="1075" y="-269.5" font-family="Helvetica,sans-Serif" font-size="10.00">NodeId</text>
</a>
</g>
</g>
<!-- Node25&#45;&gt;Node29 -->
<g id="edge32_Node000025_Node000029" class="edge">
<title>Node25&#45;&gt;Node29</title>
<g id="a_edge32_Node000025_Node000029"><a xlink:title=" ">
<path fill="none" stroke="#63b8ff" d="M921.17,-311.23C944.61,-306.05 971.34,-300.16 995.82,-294.75"/>
<polygon fill="#63b8ff" stroke="#63b8ff" points="996.79,-298.12 1005.8,-292.55 995.28,-291.29 996.79,-298.12"/>
</a>
</g>
</g>
<!-- Node27 -->
<g id="Node000027" class="node">
<title>Node27</title>
<g id="a_Node000027"><a xlink:href="classGeometryUtils.html#aa07ef087c8f85eb14e28f69875ecf41f" target="_top" xlink:title="Calcule l&#39;angle non&#45;signé (radians) entre deux vecteurs 2&#45;D.">
<polygon fill="white" stroke="#666666" points="1371,-388.5 1205,-388.5 1205,-358.5 1371,-358.5 1371,-388.5"/>
<text text-anchor="start" x="1213" y="-376.5" font-family="Helvetica,sans-Serif" font-size="10.00">GeometryUtils::unsignedAngle</text>
<text text-anchor="middle" x="1288" y="-365.5" font-family="Helvetica,sans-Serif" font-size="10.00">BetweenVectors</text>
</a>
</g>
</g>
<!-- Node26&#45;&gt;Node27 -->
<g id="edge30_Node000026_Node000027" class="edge">
<title>Node26&#45;&gt;Node27</title>
<g id="a_edge30_Node000026_Node000027"><a xlink:title=" ">
<path fill="none" stroke="#63b8ff" d="M1165.79,-373.5C1175.45,-373.5 1185.28,-373.5 1194.96,-373.5"/>
<polygon fill="#63b8ff" stroke="#63b8ff" points="1194.99,-377 1204.99,-373.5 1194.99,-370 1194.99,-377"/>
</a>
</g>
</g>
<!-- Node30&#45;&gt;Node5 -->
<g id="edge35_Node000030_Node000005" class="edge">
<title>Node30&#45;&gt;Node5</title>
<g id="a_edge35_Node000030_Node000005"><a xlink:title=" ">
<path fill="none" stroke="#63b8ff" d="M693.75,-192.71C713.91,-191.31 737.41,-189.67 760.11,-188.09"/>
<polygon fill="#63b8ff" stroke="#63b8ff" points="760.39,-191.57 770.12,-187.39 759.9,-184.59 760.39,-191.57"/>
</a>
</g>
</g>
<!-- Node30&#45;&gt;Node24 -->
<g id="edge36_Node000030_Node000024" class="edge">
<title>Node30&#45;&gt;Node24</title>
<g id="a_edge36_Node000030_Node000024"><a xlink:title=" ">
<path fill="none" stroke="#63b8ff" d="M693.75,-204.83C713.91,-207.92 737.41,-211.53 760.11,-215.01"/>
<polygon fill="#63b8ff" stroke="#63b8ff" points="759.71,-218.49 770.12,-216.55 760.77,-211.57 759.71,-218.49"/>
</a>
</g>
</g>
<!-- Node31 -->
<g id="Node000031" class="node">
<title>Node31</title>
<g id="a_Node000031"><a xlink:href="classGeometryUtils.html#a95a8eb25c216b5416111a5b2f18ebb5f" target="_top" xlink:title="Calcule la longueur planaire totale d&#39;une polyligne métrique.">
<polygon fill="white" stroke="#666666" points="943.5,-148.5 767.5,-148.5 767.5,-118.5 943.5,-118.5 943.5,-148.5"/>
<text text-anchor="start" x="775.5" y="-136.5" font-family="Helvetica,sans-Serif" font-size="10.00">GeometryUtils::computePolyline</text>
<text text-anchor="middle" x="855.5" y="-125.5" font-family="Helvetica,sans-Serif" font-size="10.00">LengthMeters</text>
</a>
</g>
</g>
<!-- Node30&#45;&gt;Node31 -->
<g id="edge34_Node000030_Node000031" class="edge">
<title>Node30&#45;&gt;Node31</title>
<g id="a_edge34_Node000030_Node000031"><a xlink:title=" ">
<path fill="none" stroke="#63b8ff" d="M693.93,-183.35C705.91,-180.1 718.45,-176.42 730,-172.5 746.41,-166.93 749.6,-163.11 766,-157.5 772.03,-155.44 778.34,-153.43 784.69,-151.52"/>
<polygon fill="#63b8ff" stroke="#63b8ff" points="786.06,-154.76 794.67,-148.59 784.09,-148.04 786.06,-154.76"/>
</a>
</g>
</g>
<!-- Node33 -->
<g id="Node000033" class="node">
<title>Node33</title>
<g id="a_Node000033"><a xlink:href="classTopologyExtractor.html#a5f368f1d09c07d020c41711ffd3eb507" target="_top" xlink:title="Regroupe les IDs de morceaux par ID de base (ex. &quot;s/0&quot; → [&quot;s/0&quot;,&quot;s/0_c1&quot;]).">
<polygon fill="white" stroke="#666666" points="918.5,-388.5 792.5,-388.5 792.5,-358.5 918.5,-358.5 918.5,-388.5"/>
<text text-anchor="start" x="800.5" y="-376.5" font-family="Helvetica,sans-Serif" font-size="10.00">TopologyExtractor::</text>
<text text-anchor="middle" x="855.5" y="-365.5" font-family="Helvetica,sans-Serif" font-size="10.00">groupChunksByBaseId</text>
</a>
</g>
</g>
<!-- Node32&#45;&gt;Node33 -->
<g id="edge38_Node000032_Node000033" class="edge">
<title>Node32&#45;&gt;Node33</title>
<g id="a_edge38_Node000032_Node000033"><a xlink:title=" ">
<path fill="none" stroke="#63b8ff" d="M693.75,-369.76C720.57,-370.39 753.3,-371.15 782.22,-371.82"/>
<polygon fill="#63b8ff" stroke="#63b8ff" points="782.19,-375.32 792.27,-372.05 782.35,-368.32 782.19,-375.32"/>
</a>
</g>
</g>
<!-- Node35 -->
<g id="Node000035" class="node">
<title>Node35</title>
<g id="a_Node000035"><a xlink:href="classSwitchOrientator.html#a2786825e04cc0836549bb23a2b6242b4" target="_top" xlink:title="Échange normal↔deviation sur l&#39;aiguillage non&#45;référence si les rôles diffèrent.">
<polygon fill="white" stroke="#666666" points="504.5,-115.5 341.5,-115.5 341.5,-85.5 504.5,-85.5 504.5,-115.5"/>
<text text-anchor="start" x="349.5" y="-103.5" font-family="Helvetica,sans-Serif" font-size="10.00">SwitchOrientator::alignDouble</text>
<text text-anchor="middle" x="423" y="-92.5" font-family="Helvetica,sans-Serif" font-size="10.00">SwitchRoles</text>
</a>
</g>
</g>
<!-- Node34&#45;&gt;Node35 -->
<g id="edge40_Node000034_Node000035" class="edge">
<title>Node34&#45;&gt;Node35</title>
<g id="a_edge40_Node000034_Node000035"><a xlink:title=" ">
<path fill="none" stroke="#63b8ff" d="M280.1,-183.88C286.78,-181.42 293.23,-178.35 299,-174.5 321.78,-159.3 312.52,-140.14 335,-124.5 337.14,-123.01 339.37,-121.62 341.66,-120.31"/>
<polygon fill="#63b8ff" stroke="#63b8ff" points="343.47,-123.31 350.81,-115.67 340.31,-117.07 343.47,-123.31"/>
</a>
</g>
</g>
<!-- Node36 -->
<g id="Node000036" class="node">
<title>Node36</title>
<g id="a_Node000036"><a xlink:href="classSwitchOrientator.html#a8132fa3495845481fdb68a3ec695af15" target="_top" xlink:title="Calcule et assigne les points tip CDC sur un SwitchBlock orienté.">
<polygon fill="white" stroke="#666666" points="496.5,-67.5 349.5,-67.5 349.5,-37.5 496.5,-37.5 496.5,-67.5"/>
<text text-anchor="start" x="357.5" y="-55.5" font-family="Helvetica,sans-Serif" font-size="10.00">SwitchOrientator::compute</text>
<text text-anchor="middle" x="423" y="-44.5" font-family="Helvetica,sans-Serif" font-size="10.00">BranchTipPoints</text>
</a>
</g>
</g>
<!-- Node34&#45;&gt;Node36 -->
<g id="edge41_Node000034_Node000036" class="edge">
<title>Node34&#45;&gt;Node36</title>
<g id="a_edge41_Node000034_Node000036"><a xlink:title=" ">
<path fill="none" stroke="#63b8ff" d="M283.65,-184.3C289.23,-181.73 294.46,-178.52 299,-174.5 333.74,-143.74 300.86,-107.92 335,-76.5 336.73,-74.91 338.56,-73.41 340.47,-72.02"/>
<polygon fill="#63b8ff" stroke="#63b8ff" points="342.66,-74.78 349.29,-66.52 338.95,-68.84 342.66,-74.78"/>
</a>
</g>
</g>
<!-- Node40 -->
<g id="Node000040" class="node">
<title>Node40</title>
<g id="a_Node000040"><a xlink:href="classSwitchOrientator.html#acdcd6a442cb52bed611a302b1358c8bb" target="_top" xlink:title="Force la branche partagée au rôle DEVIATION sur les deux aiguillages formant un croisement mécanique ...">
<polygon fill="white" stroke="#666666" points="493.5,-211.5 352.5,-211.5 352.5,-181.5 493.5,-181.5 493.5,-211.5"/>
<text text-anchor="start" x="360.5" y="-199.5" font-family="Helvetica,sans-Serif" font-size="10.00">SwitchOrientator::enforce</text>
<text text-anchor="middle" x="423" y="-188.5" font-family="Helvetica,sans-Serif" font-size="10.00">CrossoverConsistency</text>
</a>
</g>
</g>
<!-- Node34&#45;&gt;Node40 -->
<g id="edge48_Node000034_Node000040" class="edge">
<title>Node34&#45;&gt;Node40</title>
<g id="a_edge48_Node000034_Node000040"><a xlink:title=" ">
<path fill="none" stroke="#63b8ff" d="M283.67,-194.47C302.32,-194.74 322.83,-195.04 342.21,-195.33"/>
<polygon fill="#63b8ff" stroke="#63b8ff" points="342.18,-198.83 352.23,-195.47 342.28,-191.83 342.18,-198.83"/>
</a>
</g>
</g>
<!-- Node41 -->
<g id="Node000041" class="node">
<title>Node41</title>
<g id="a_Node000041"><a xlink:href="classSwitchOrientator.html#a0ed66205a222764fb0ad914425ba0f6e" target="_top" xlink:title="Oriente un SwitchBlock à 3 branches en place.">
<polygon fill="white" stroke="#666666" points="489.5,-163.5 356.5,-163.5 356.5,-133.5 489.5,-133.5 489.5,-163.5"/>
<text text-anchor="start" x="364.5" y="-151.5" font-family="Helvetica,sans-Serif" font-size="10.00">SwitchOrientator::orient</text>
<text text-anchor="middle" x="423" y="-140.5" font-family="Helvetica,sans-Serif" font-size="10.00">ThreePortSwitch</text>
</a>
</g>
</g>
<!-- Node34&#45;&gt;Node41 -->
<g id="edge49_Node000034_Node000041" class="edge">
<title>Node34&#45;&gt;Node41</title>
<g id="a_edge49_Node000034_Node000041"><a xlink:title=" ">
<path fill="none" stroke="#63b8ff" d="M261.26,-183.96C285.95,-178.51 317.61,-171.53 346.29,-165.2"/>
<polygon fill="#63b8ff" stroke="#63b8ff" points="347.28,-168.57 356.3,-162.99 345.78,-161.73 347.28,-168.57"/>
</a>
</g>
</g>
<!-- Node37 -->
<g id="Node000037" class="node">
<title>Node37</title>
<g id="a_Node000037"><a xlink:href="classSwitchOrientator.html#af602429b8a3a2d38e92515cfd2d76ecd" target="_top" xlink:title="Interpole un point tip à distanceMeters depuis la jonction le long d&#39;un Straight.">
<polygon fill="white" stroke="#666666" points="717.5,-67.5 559.5,-67.5 559.5,-37.5 717.5,-37.5 717.5,-67.5"/>
<text text-anchor="start" x="567.5" y="-55.5" font-family="Helvetica,sans-Serif" font-size="10.00">SwitchOrientator::interpolate</text>
<text text-anchor="middle" x="638.5" y="-44.5" font-family="Helvetica,sans-Serif" font-size="10.00">TipPoint</text>
</a>
</g>
</g>
<!-- Node36&#45;&gt;Node37 -->
<g id="edge42_Node000036_Node000037" class="edge">
<title>Node36&#45;&gt;Node37</title>
<g id="a_edge42_Node000036_Node000037"><a xlink:title=" ">
<path fill="none" stroke="#63b8ff" d="M496.58,-52.5C513.46,-52.5 531.6,-52.5 549.08,-52.5"/>
<polygon fill="#63b8ff" stroke="#63b8ff" points="549.27,-56 559.27,-52.5 549.27,-49 549.27,-56"/>
</a>
</g>
</g>
<!-- Node39 -->
<g id="Node000039" class="node">
<title>Node39</title>
<g id="a_Node000039"><a xlink:href="classSwitchBlock.html#a87eba553e6478990869ad5b1d9c4f4a7" target="_top" xlink:title="Indique si l&#39;aiguillage a été orienté (Phase 6 complète).">
<polygon fill="white" stroke="#666666" points="704.5,-19 572.5,-19 572.5,0 704.5,0 704.5,-19"/>
<text text-anchor="middle" x="638.5" y="-7" font-family="Helvetica,sans-Serif" font-size="10.00">SwitchBlock::isOriented</text>
</a>
</g>
</g>
<!-- Node36&#45;&gt;Node39 -->
<g id="edge47_Node000036_Node000039" class="edge">
<title>Node36&#45;&gt;Node39</title>
<g id="a_edge47_Node000036_Node000039"><a xlink:title=" ">
<path fill="none" stroke="#63b8ff" d="M496.58,-37.88C523.9,-32.38 554.56,-26.2 580.28,-21.02"/>
<polygon fill="#63b8ff" stroke="#63b8ff" points="581.14,-24.42 590.25,-19.02 579.76,-17.56 581.14,-24.42"/>
</a>
</g>
</g>
<!-- Node37&#45;&gt;Node5 -->
<g id="edge44_Node000037_Node000005" class="edge">
<title>Node37&#45;&gt;Node5</title>
<g id="a_edge44_Node000037_Node000005"><a xlink:title=" ">
<path fill="none" stroke="#63b8ff" d="M717.02,-67.72C721.66,-70.22 726.04,-73.13 730,-76.5 759.98,-102.06 736.09,-131.86 766,-157.5 767.37,-158.68 768.79,-159.79 770.26,-160.86"/>
<polygon fill="#63b8ff" stroke="#63b8ff" points="768.77,-164.05 779.11,-166.38 772.48,-158.12 768.77,-164.05"/>
</a>
</g>
</g>
<!-- Node37&#45;&gt;Node22 -->
<g id="edge45_Node000037_Node000022" class="edge">
<title>Node37&#45;&gt;Node22</title>
<g id="a_edge45_Node000037_Node000022"><a xlink:title=" ">
<path fill="none" stroke="#63b8ff" d="M717.55,-65.13C805.12,-79.59 936.19,-102.21 945,-109.5 978.83,-137.49 948.58,-171.89 981,-201.5 984.61,-204.8 988.6,-207.7 992.84,-210.24"/>
<polygon fill="#63b8ff" stroke="#63b8ff" points="991.37,-213.42 1001.85,-214.99 994.63,-207.23 991.37,-213.42"/>
</a>
</g>
</g>
<!-- Node37&#45;&gt;Node31 -->
<g id="edge43_Node000037_Node000031" class="edge">
<title>Node37&#45;&gt;Node31</title>
<g id="a_edge43_Node000037_Node000031"><a xlink:title=" ">
<path fill="none" stroke="#63b8ff" d="M708.28,-67.59C715.77,-70.15 723.15,-73.11 730,-76.5 748.16,-85.5 748.1,-94.98 766,-104.5 773.21,-108.33 781.01,-111.78 788.9,-114.85"/>
<polygon fill="#63b8ff" stroke="#63b8ff" points="787.93,-118.22 798.52,-118.4 790.35,-111.66 787.93,-118.22"/>
</a>
</g>
</g>
<!-- Node38 -->
<g id="Node000038" class="node">
<title>Node38</title>
<g id="a_Node000038"><a xlink:href="classGeometryUtils.html#a811846a194a09c97c258825df6accb9a" target="_top" xlink:title="Interpole un point à distanceMeters du premier sommet d&#39;une polyligne.">
<polygon fill="white" stroke="#666666" points="941.5,-62.5 769.5,-62.5 769.5,-32.5 941.5,-32.5 941.5,-62.5"/>
<text text-anchor="start" x="777.5" y="-50.5" font-family="Helvetica,sans-Serif" font-size="10.00">GeometryUtils::pointAtDistance</text>
<text text-anchor="middle" x="855.5" y="-39.5" font-family="Helvetica,sans-Serif" font-size="10.00">AlongLine</text>
</a>
</g>
</g>
<!-- Node37&#45;&gt;Node38 -->
<g id="edge46_Node000037_Node000038" class="edge">
<title>Node37&#45;&gt;Node38</title>
<g id="a_edge46_Node000037_Node000038"><a xlink:title=" ">
<path fill="none" stroke="#63b8ff" d="M717.73,-50.68C731.25,-50.37 745.45,-50.04 759.37,-49.71"/>
<polygon fill="#63b8ff" stroke="#63b8ff" points="759.52,-53.21 769.43,-49.48 759.36,-46.21 759.52,-53.21"/>
</a>
</g>
</g>
<!-- Node42 -->
<g id="Node000042" class="node">
<title>Node42</title>
<g id="a_Node000042"><a xlink:href="classGeometryUtils.html#a7fb1d9f796278db394fc82257347f514" target="_top" xlink:title="Variante &quot;pire cas&quot; de l&#39;angle entre deux vecteurs 2&#45;D.">
<polygon fill="white" stroke="#666666" points="720.5,-163.5 556.5,-163.5 556.5,-133.5 720.5,-133.5 720.5,-163.5"/>
<text text-anchor="start" x="564.5" y="-151.5" font-family="Helvetica,sans-Serif" font-size="10.00">GeometryUtils::angleBetween</text>
<text text-anchor="middle" x="638.5" y="-140.5" font-family="Helvetica,sans-Serif" font-size="10.00">VectorsPiFallback</text>
</a>
</g>
</g>
<!-- Node41&#45;&gt;Node42 -->
<g id="edge50_Node000041_Node000042" class="edge">
<title>Node41&#45;&gt;Node42</title>
<g id="a_edge50_Node000041_Node000042"><a xlink:title=" ">
<path fill="none" stroke="#63b8ff" d="M489.51,-148.5C507.38,-148.5 527.07,-148.5 546.1,-148.5"/>
<polygon fill="#63b8ff" stroke="#63b8ff" points="546.28,-152 556.28,-148.5 546.28,-145 546.28,-152"/>
</a>
</g>
</g>
<!-- Node43 -->
<g id="Node000043" class="node">
<title>Node43</title>
<g id="a_Node000043"><a xlink:href="classSwitchOrientator.html#aad2a4892eb6f9d716bd4703694813f46" target="_top" xlink:title="Retourne la direction (vecteur lat/lon) depuis junctionCoord vers l&#39;extrémité distale du StraightBloc...">
<polygon fill="white" stroke="#666666" points="712,-115.5 565,-115.5 565,-85.5 712,-85.5 712,-115.5"/>
<text text-anchor="start" x="573" y="-103.5" font-family="Helvetica,sans-Serif" font-size="10.00">SwitchOrientator::compute</text>
<text text-anchor="middle" x="638.5" y="-92.5" font-family="Helvetica,sans-Serif" font-size="10.00">BranchDirectionVector</text>
</a>
</g>
</g>
<!-- Node41&#45;&gt;Node43 -->
<g id="edge51_Node000041_Node000043" class="edge">
<title>Node41&#45;&gt;Node43</title>
<g id="a_edge51_Node000041_Node000043"><a xlink:title=" ">
<path fill="none" stroke="#63b8ff" d="M489.51,-133.77C512.03,-128.71 537.45,-122.99 560.78,-117.75"/>
<polygon fill="#63b8ff" stroke="#63b8ff" points="561.65,-121.14 570.64,-115.53 560.12,-114.31 561.65,-121.14"/>
</a>
</g>
</g>
</g>
</svg>
