<?xml version="1.0" encoding="UTF-8" standalone="no"?>
<!DOCTYPE svg PUBLIC "-//W3C//DTD SVG 1.1//EN"
 "http://www.w3.org/Graphics/SVG/1.1/DTD/svg11.dtd">
<!-- Generated by graphviz version 2.43.0 (0)
 -->
<!-- Title: WebViewPanel::resize Pages: 1 -->
<svg width="1062pt" height="109pt"
 viewBox="0.00 0.00 1062.00 109.00" xmlns="http://www.w3.org/2000/svg" xmlns:xlink="http://www.w3.org/1999/xlink">
<g id="graph0" class="graph" transform="scale(1 1) rotate(0) translate(4 105)">
<title>WebViewPanel::resize</title>
<!-- Node1 -->
<g id="Node000001" class="node">
<title>Node1</title>
<g id="a_Node000001"><a xlink:title="Redimensionne le WebView pour s&#39;adapter à la fenêtre.">
<polygon fill="#999999" stroke="#666666" points="1054,-67.5 931,-67.5 931,-48.5 1054,-48.5 1054,-67.5"/>
<text text-anchor="middle" x="992.5" y="-55.5" font-family="Helvetica,sans-Serif" font-size="10.00">WebViewPanel::resize</text>
</a>
</g>
</g>
<!-- Node2 -->
<g id="Node000002" class="node">
<title>Node2</title>
<g id="a_Node000002"><a xlink:href="classMainWindow.html#a627d9feed19c3096079d91d6d38b9bf9" target="_top" xlink:title="Crée et affiche la fenêtre Win32, puis initialise la ProgressBar.">
<polygon fill="white" stroke="#666666" points="124,-90.5 8,-90.5 8,-71.5 124,-71.5 124,-90.5"/>
<text text-anchor="middle" x="66" y="-78.5" font-family="Helvetica,sans-Serif" font-size="10.00">MainWindow::create</text>
</a>
</g>
</g>
<!-- Node1&#45;&gt;Node2 -->
<g id="edge1_Node000001_Node000002" class="edge">
<title>Node1&#45;&gt;Node2</title>
<g id="a_edge1_Node000001_Node000002"><a xlink:title=" ">
<path fill="none" stroke="#63b8ff" d="M949.16,-70.23C932.42,-74.61 912.93,-79.17 895,-82 774.86,-100.97 743.63,-101 622,-101 622,-101 622,-101 428.5,-101 320.86,-101 195.46,-92.05 124.23,-86.12"/>
<polygon fill="#63b8ff" stroke="#63b8ff" points="950.43,-73.51 959.18,-67.54 948.62,-66.75 950.43,-73.51"/>
</a>
</g>
</g>
<!-- Node3 -->
<g id="Node000003" class="node">
<title>Node3</title>
<g id="a_Node000003"><a xlink:href="classWebViewPanel.html#a2098e8aa83f6ab5b825514deda7fd846" target="_top" xlink:title="Callback déclenché à la fin de la création du contrôleur WebView2.">
<polygon fill="white" stroke="#666666" points="895,-73 741,-73 741,-43 895,-43 895,-73"/>
<text text-anchor="start" x="749" y="-61" font-family="Helvetica,sans-Serif" font-size="10.00">WebViewPanel::onController</text>
<text text-anchor="middle" x="818" y="-50" font-family="Helvetica,sans-Serif" font-size="10.00">Created</text>
</a>
</g>
</g>
<!-- Node1&#45;&gt;Node3 -->
<g id="edge2_Node000001_Node000003" class="edge">
<title>Node1&#45;&gt;Node3</title>
<g id="a_edge2_Node000001_Node000003"><a xlink:title=" ">
<path fill="none" stroke="#63b8ff" d="M920.61,-58C912.26,-58 903.71,-58 895.29,-58"/>
<polygon fill="#63b8ff" stroke="#63b8ff" points="920.68,-61.5 930.68,-58 920.68,-54.5 920.68,-61.5"/>
</a>
</g>
</g>
<!-- Node7 -->
<g id="Node000007" class="node">
<title>Node7</title>
<g id="a_Node000007"><a xlink:href="classMainWindow.html#a74866b6b18c52698bdb52f339ad80830" target="_top" xlink:title="Quand la fenêtre est redimensionnée, ajuste les éléments graphiques en conséquence.">
<polygon fill="white" stroke="#666666" points="894,-24.5 742,-24.5 742,-5.5 894,-5.5 894,-24.5"/>
<text text-anchor="middle" x="818" y="-12.5" font-family="Helvetica,sans-Serif" font-size="10.00">MainWindow::onSizeUpdate</text>
</a>
</g>
</g>
<!-- Node1&#45;&gt;Node7 -->
<g id="edge7_Node000001_Node000007" class="edge">
<title>Node1&#45;&gt;Node7</title>
<g id="a_edge7_Node000001_Node000007"><a xlink:title=" ">
<path fill="none" stroke="#63b8ff" d="M943.49,-46.03C916.25,-39.24 882.61,-30.86 857.18,-24.52"/>
<polygon fill="#63b8ff" stroke="#63b8ff" points="942.67,-49.43 953.22,-48.46 944.36,-42.64 942.67,-49.43"/>
</a>
</g>
</g>
<!-- Node4 -->
<g id="Node000004" class="node">
<title>Node4</title>
<g id="a_Node000004"><a xlink:href="classWebViewPanel.html#a49d047e945df840f4c48dbf0a3264b16" target="_top" xlink:title="Callback déclenché à la fin de la création de l&#39;environnement WebView2.">
<polygon fill="white" stroke="#666666" points="705,-73 537,-73 537,-43 705,-43 705,-73"/>
<text text-anchor="start" x="545" y="-61" font-family="Helvetica,sans-Serif" font-size="10.00">WebViewPanel::onEnvironment</text>
<text text-anchor="middle" x="621" y="-50" font-family="Helvetica,sans-Serif" font-size="10.00">Created</text>
</a>
</g>
</g>
<!-- Node3&#45;&gt;Node4 -->
<g id="edge3_Node000003_Node000004" class="edge">
<title>Node3&#45;&gt;Node4</title>
<g id="a_edge3_Node000003_Node000004"><a xlink:title=" ">
<path fill="none" stroke="#63b8ff" d="M730.58,-58C722.17,-58 713.65,-58 705.27,-58"/>
<polygon fill="#63b8ff" stroke="#63b8ff" points="730.77,-61.5 740.77,-58 730.77,-54.5 730.77,-61.5"/>
</a>
</g>
</g>
<!-- Node5 -->
<g id="Node000005" class="node">
<title>Node5</title>
<g id="a_Node000005"><a xlink:href="classWebViewPanel.html#a886fd07f1d23eec535d0b57215c6ce50" target="_top" xlink:title="Initialise l&#39;environnement WebView2 de manière asynchrone.">
<polygon fill="white" stroke="#666666" points="497.5,-73 361.5,-73 361.5,-43 497.5,-43 497.5,-73"/>
<text text-anchor="start" x="369.5" y="-61" font-family="Helvetica,sans-Serif" font-size="10.00">WebViewPanel::initialize</text>
<text text-anchor="middle" x="429.5" y="-50" font-family="Helvetica,sans-Serif" font-size="10.00">WebView</text>
</a>
</g>
</g>
<!-- Node4&#45;&gt;Node5 -->
<g id="edge4_Node000004_Node000005" class="edge">
<title>Node4&#45;&gt;Node5</title>
<g id="a_edge4_Node000004_Node000005"><a xlink:title=" ">
<path fill="none" stroke="#63b8ff" d="M526.69,-58C516.88,-58 507.05,-58 497.62,-58"/>
<polygon fill="#63b8ff" stroke="#63b8ff" points="526.88,-61.5 536.88,-58 526.88,-54.5 526.88,-61.5"/>
</a>
</g>
</g>
<!-- Node6 -->
<g id="Node000006" class="node">
<title>Node6</title>
<g id="a_Node000006"><a xlink:href="classWebViewPanel.html#a49887c0d1a400c93f002085a8994ece1" target="_top" xlink:title="Initialise WebView2 dans une fenêtre Win32 existante.">
<polygon fill="white" stroke="#666666" points="307.5,-69.5 182.5,-69.5 182.5,-50.5 307.5,-50.5 307.5,-69.5"/>
<text text-anchor="middle" x="245" y="-57.5" font-family="Helvetica,sans-Serif" font-size="10.00">WebViewPanel::create</text>
</a>
</g>
</g>
<!-- Node5&#45;&gt;Node6 -->
<g id="edge5_Node000005_Node000006" class="edge">
<title>Node5&#45;&gt;Node6</title>
<g id="a_edge5_Node000005_Node000006"><a xlink:title=" ">
<path fill="none" stroke="#63b8ff" d="M351.31,-58.85C336.72,-59.01 321.63,-59.17 307.6,-59.32"/>
<polygon fill="#63b8ff" stroke="#63b8ff" points="351.36,-62.35 361.32,-58.74 351.28,-55.35 351.36,-62.35"/>
</a>
</g>
</g>
<!-- Node6&#45;&gt;Node2 -->
<g id="edge6_Node000006_Node000002" class="edge">
<title>Node6&#45;&gt;Node2</title>
<g id="a_edge6_Node000006_Node000002"><a xlink:title=" ">
<path fill="none" stroke="#63b8ff" d="M171.79,-68.57C155.91,-70.45 139.31,-72.42 124.13,-74.22"/>
<polygon fill="#63b8ff" stroke="#63b8ff" points="172.58,-72 182.09,-67.34 171.75,-65.05 172.58,-72"/>
</a>
</g>
</g>
<!-- Node8 -->
<g id="Node000008" class="node">
<title>Node8</title>
<g id="a_Node000008"><a xlink:href="classMainWindow.html#ab85682874f3ab5dfa81f782f889d8556" target="_top" xlink:title="Dispatcher principal des messages de la fenêtre.">
<polygon fill="white" stroke="#666666" points="701.5,-24.5 540.5,-24.5 540.5,-5.5 701.5,-5.5 701.5,-24.5"/>
<text text-anchor="middle" x="621" y="-12.5" font-family="Helvetica,sans-Serif" font-size="10.00">MainWindow::handleMessage</text>
</a>
</g>
</g>
<!-- Node7&#45;&gt;Node8 -->
<g id="edge8_Node000007_Node000008" class="edge">
<title>Node7&#45;&gt;Node8</title>
<g id="a_edge8_Node000007_Node000008"><a xlink:title=" ">
<path fill="none" stroke="#63b8ff" d="M731.58,-15C721.62,-15 711.48,-15 701.6,-15"/>
<polygon fill="#63b8ff" stroke="#63b8ff" points="731.89,-18.5 741.89,-15 731.89,-11.5 731.89,-18.5"/>
</a>
</g>
</g>
<!-- Node9 -->
<g id="Node000009" class="node">
<title>Node9</title>
<g id="a_Node000009"><a xlink:href="classMainWindow.html#a332648d0a0caec8070b05bc27bb9a14b" target="_top" xlink:title="Procédure de fenêtre statique, point d&#39;entrée imposé par Win32.">
<polygon fill="white" stroke="#666666" points="501,-24.5 358,-24.5 358,-5.5 501,-5.5 501,-24.5"/>
<text text-anchor="middle" x="429.5" y="-12.5" font-family="Helvetica,sans-Serif" font-size="10.00">MainWindow::windowProc</text>
</a>
</g>
</g>
<!-- Node8&#45;&gt;Node9 -->
<g id="edge9_Node000008_Node000009" class="edge">
<title>Node8&#45;&gt;Node9</title>
<g id="a_edge9_Node000008_Node000009"><a xlink:title=" ">
<path fill="none" stroke="#63b8ff" d="M530.29,-15C520.49,-15 510.62,-15 501.1,-15"/>
<polygon fill="#63b8ff" stroke="#63b8ff" points="530.46,-18.5 540.46,-15 530.46,-11.5 530.46,-18.5"/>
</a>
</g>
</g>
<!-- Node10 -->
<g id="Node000010" class="node">
<title>Node10</title>
<g id="a_Node000010"><a xlink:href="classApplication.html#a0bda40de108938fd29374335bf4eac71" target="_top" xlink:title="Enregistre la classe de fenêtre Win32 (WNDCLASSEXW).">
<polygon fill="white" stroke="#666666" points="322,-30 168,-30 168,0 322,0 322,-30"/>
<text text-anchor="start" x="176" y="-18" font-family="Helvetica,sans-Serif" font-size="10.00">Application::registerWindow</text>
<text text-anchor="middle" x="245" y="-7" font-family="Helvetica,sans-Serif" font-size="10.00">Class</text>
</a>
</g>
</g>
<!-- Node9&#45;&gt;Node10 -->
<g id="edge10_Node000009_Node000010" class="edge">
<title>Node9&#45;&gt;Node10</title>
<g id="a_edge10_Node000009_Node000010"><a xlink:title=" ">
<path fill="none" stroke="#63b8ff" d="M347.66,-15C339.17,-15 330.56,-15 322.12,-15"/>
<polygon fill="#63b8ff" stroke="#63b8ff" points="347.94,-18.5 357.94,-15 347.94,-11.5 347.94,-18.5"/>
</a>
</g>
</g>
<!-- Node11 -->
<g id="Node000011" class="node">
<title>Node11</title>
<g id="a_Node000011"><a xlink:href="classApplication.html#a719cf091afd2276d52f9a58e4962ebfb" target="_top" xlink:title="Construit l&#39;application et enregistre la classe de fenêtre.">
<polygon fill="white" stroke="#666666" points="132,-24.5 0,-24.5 0,-5.5 132,-5.5 132,-24.5"/>
<text text-anchor="middle" x="66" y="-12.5" font-family="Helvetica,sans-Serif" font-size="10.00">Application::Application</text>
</a>
</g>
</g>
<!-- Node10&#45;&gt;Node11 -->
<g id="edge11_Node000010_Node000011" class="edge">
<title>Node10&#45;&gt;Node11</title>
<g id="a_edge11_Node000010_Node000011"><a xlink:title=" ">
<path fill="none" stroke="#63b8ff" d="M157.82,-15C149.19,-15 140.53,-15 132.18,-15"/>
<polygon fill="#63b8ff" stroke="#63b8ff" points="157.91,-18.5 167.91,-15 157.91,-11.5 157.91,-18.5"/>
</a>
</g>
</g>
</g>
</svg>
