<?xml version="1.0" encoding="UTF-8" standalone="no"?>
<!DOCTYPE svg PUBLIC "-//W3C//DTD SVG 1.1//EN"
 "http://www.w3.org/Graphics/SVG/1.1/DTD/svg11.dtd">
<!-- Generated by graphviz version 2.43.0 (0)
 -->
<!-- Title: Logger::sendToDebugOutput Pages: 1 -->
<svg width="296pt" height="64pt"
 viewBox="0.00 0.00 296.00 64.00" xmlns="http://www.w3.org/2000/svg" xmlns:xlink="http://www.w3.org/1999/xlink">
<g id="graph0" class="graph" transform="scale(1 1) rotate(0) translate(4 60)">
<title>Logger::sendToDebugOutput</title>
<!-- Node1 -->
<g id="Node000001" class="node">
<title>Node1</title>
<g id="a_Node000001"><a xlink:title="Envoie une chaîne vers la sortie de débogage Visual Studio.">
<polygon fill="#999999" stroke="#666666" points="288,-37 134,-37 134,-18 288,-18 288,-37"/>
<text text-anchor="middle" x="211" y="-25" font-family="Helvetica,sans-Serif" font-size="10.00">Logger::sendToDebugOutput</text>
</a>
</g>
</g>
<!-- Node2 -->
<g id="Node000002" class="node">
<title>Node2</title>
<g id="a_Node000002"><a xlink:href="classLogger.html#ac4b04901a1897aa98ddd2c860fa9e95b" target="_top" xlink:title="Construit un Logger pour le moteur spécifié.">
<polygon fill="white" stroke="#666666" points="93.5,-56 4.5,-56 4.5,-37 93.5,-37 93.5,-56"/>
<text text-anchor="middle" x="49" y="-44" font-family="Helvetica,sans-Serif" font-size="10.00">Logger::Logger</text>
</a>
</g>
</g>
<!-- Node1&#45;&gt;Node2 -->
<g id="edge1_Node000001_Node000002" class="edge">
<title>Node1&#45;&gt;Node2</title>
<g id="a_edge1_Node000001_Node000002"><a xlink:title=" ">
<path fill="none" stroke="#63b8ff" d="M123.8,-37.74C113.45,-38.96 103.24,-40.18 93.87,-41.29"/>
<polygon fill="#63b8ff" stroke="#63b8ff" points="124.23,-41.21 133.75,-36.55 123.41,-34.26 124.23,-41.21"/>
</a>
</g>
</g>
<!-- Node3 -->
<g id="Node000003" class="node">
<title>Node3</title>
<g id="a_Node000003"><a xlink:href="classLogger.html#ad3f8120f97679ef581fe34b3c220fe90" target="_top" xlink:title="Écrit une ligne de trace dans le fichier et la sortie de débogage.">
<polygon fill="white" stroke="#666666" points="98,-19 0,-19 0,0 98,0 98,-19"/>
<text text-anchor="middle" x="49" y="-7" font-family="Helvetica,sans-Serif" font-size="10.00">Logger::writeLog</text>
</a>
</g>
</g>
<!-- Node1&#45;&gt;Node3 -->
<g id="edge2_Node000001_Node000003" class="edge">
<title>Node1&#45;&gt;Node3</title>
<g id="a_edge2_Node000001_Node000003"><a xlink:title=" ">
<path fill="none" stroke="#63b8ff" d="M123.56,-17.78C114.9,-16.8 106.34,-15.84 98.29,-14.93"/>
<polygon fill="#63b8ff" stroke="#63b8ff" points="123.42,-21.28 133.75,-18.92 124.2,-14.33 123.42,-21.28"/>
</a>
</g>
</g>
</g>
</svg>
