<?xml version="1.0" encoding="UTF-8" standalone="no"?>
<!DOCTYPE svg PUBLIC "-//W3C//DTD SVG 1.1//EN"
 "http://www.w3.org/Graphics/SVG/1.1/DTD/svg11.dtd">
<!-- Generated by graphviz version 2.43.0 (0)
 -->
<!-- Title: SwitchBlock::setActiveBranch Pages: 1 -->
<svg width="351pt" height="134pt"
 viewBox="0.00 0.00 351.00 134.00" xmlns="http://www.w3.org/2000/svg" xmlns:xlink="http://www.w3.org/1999/xlink">
<g id="graph0" class="graph" transform="scale(1 1) rotate(0) translate(4 130)">
<title>SwitchBlock::setActiveBranch</title>
<!-- Node1 -->
<g id="Node000001" class="node">
<title>Node1</title>
<g id="a_Node000001"><a xlink:title="Assigne la branche active.">
<polygon fill="#999999" stroke="#666666" points="161,-72.5 0,-72.5 0,-53.5 161,-53.5 161,-72.5"/>
<text text-anchor="middle" x="80.5" y="-60.5" font-family="Helvetica,sans-Serif" font-size="10.00">SwitchBlock::setActiveBranch</text>
</a>
</g>
</g>
<!-- Node2 -->
<g id="Node000002" class="node">
<title>Node2</title>
<g id="a_Node000002"><a xlink:href="classSwitchBlock.html#a4c252f2bb90dbe50b8c9d8e8de0fc5b5" target="_top" xlink:title="Convertit l&#39;état ActiveBranch courant en chaîne lisible. Utilisé exclusivement par les appels de log.">
<polygon fill="white" stroke="#666666" points="343,-126 197,-126 197,-96 343,-96 343,-126"/>
<text text-anchor="start" x="205" y="-114" font-family="Helvetica,sans-Serif" font-size="10.00">SwitchBlock::activeBranch</text>
<text text-anchor="middle" x="270" y="-103" font-family="Helvetica,sans-Serif" font-size="10.00">ToString</text>
</a>
</g>
</g>
<!-- Node1&#45;&gt;Node2 -->
<g id="edge1_Node000001_Node000002" class="edge">
<title>Node1&#45;&gt;Node2</title>
<g id="a_edge1_Node000001_Node000002"><a xlink:title=" ">
<path fill="none" stroke="#63b8ff" d="M118.99,-72.6C142.22,-78.54 172.75,-86.36 200.2,-93.39"/>
<polygon fill="#63b8ff" stroke="#63b8ff" points="199.6,-96.85 210.16,-95.94 201.34,-90.07 199.6,-96.85"/>
</a>
</g>
</g>
<!-- Node3 -->
<g id="Node000003" class="node">
<title>Node3</title>
<g id="a_Node000003"><a xlink:href="classSwitchBlock.html#af65a62f314ce4544ce687eacc13786e8" target="_top" xlink:title="Retourne le switch partenaire côté deviation, ou nullptr.">
<polygon fill="white" stroke="#666666" points="343,-78 197,-78 197,-48 343,-48 343,-78"/>
<text text-anchor="start" x="205" y="-66" font-family="Helvetica,sans-Serif" font-size="10.00">SwitchBlock::getPartnerOn</text>
<text text-anchor="middle" x="270" y="-55" font-family="Helvetica,sans-Serif" font-size="10.00">Deviation</text>
</a>
</g>
</g>
<!-- Node1&#45;&gt;Node3 -->
<g id="edge2_Node000001_Node000003" class="edge">
<title>Node1&#45;&gt;Node3</title>
<g id="a_edge2_Node000001_Node000003"><a xlink:title=" ">
<path fill="none" stroke="#63b8ff" d="M161.02,-63C169.46,-63 178.06,-63 186.54,-63"/>
<polygon fill="#63b8ff" stroke="#63b8ff" points="186.8,-66.5 196.8,-63 186.8,-59.5 186.8,-66.5"/>
</a>
</g>
</g>
<!-- Node4 -->
<g id="Node000004" class="node">
<title>Node4</title>
<g id="a_Node000004"><a xlink:href="classSwitchBlock.html#a72cf7392935372bed47bccc9c1feb096" target="_top" xlink:title="Retourne le switch partenaire côté normal, ou nullptr. Cast valide uniquement si isDouble() &amp;&amp; getDou...">
<polygon fill="white" stroke="#666666" points="343,-30 197,-30 197,0 343,0 343,-30"/>
<text text-anchor="start" x="205" y="-18" font-family="Helvetica,sans-Serif" font-size="10.00">SwitchBlock::getPartnerOn</text>
<text text-anchor="middle" x="270" y="-7" font-family="Helvetica,sans-Serif" font-size="10.00">Normal</text>
</a>
</g>
</g>
<!-- Node1&#45;&gt;Node4 -->
<g id="edge3_Node000001_Node000004" class="edge">
<title>Node1&#45;&gt;Node4</title>
<g id="a_edge3_Node000001_Node000004"><a xlink:title=" ">
<path fill="none" stroke="#63b8ff" d="M118.99,-53.4C142.22,-47.46 172.75,-39.64 200.2,-32.61"/>
<polygon fill="#63b8ff" stroke="#63b8ff" points="201.34,-35.93 210.16,-30.06 199.6,-29.15 201.34,-35.93"/>
</a>
</g>
</g>
</g>
</svg>
