<?xml version="1.0" encoding="UTF-8" standalone="no"?>
<!DOCTYPE svg PUBLIC "-//W3C//DTD SVG 1.1//EN"
 "http://www.w3.org/Graphics/SVG/1.1/DTD/svg11.dtd">
<!-- Generated by graphviz version 2.43.0 (0)
 -->
<!-- Title: SwitchBlock::getNormalBranchId Pages: 1 -->
<svg width="1992pt" height="182pt"
 viewBox="0.00 0.00 1992.00 182.00" xmlns="http://www.w3.org/2000/svg" xmlns:xlink="http://www.w3.org/1999/xlink">
<g id="graph0" class="graph" transform="scale(1 1) rotate(0) translate(4 178)">
<title>SwitchBlock::getNormalBranchId</title>
<!-- Node1 -->
<g id="Node000001" class="node">
<title>Node1</title>
<g id="a_Node000001"><a xlink:title=" ">
<polygon fill="#999999" stroke="#666666" points="1984,-96.5 1808,-96.5 1808,-77.5 1984,-77.5 1984,-96.5"/>
<text text-anchor="middle" x="1896" y="-84.5" font-family="Helvetica,sans-Serif" font-size="10.00">SwitchBlock::getNormalBranchId</text>
</a>
</g>
</g>
<!-- Node2 -->
<g id="Node000002" class="node">
<title>Node2</title>
<g id="a_Node000002"><a xlink:href="classSwitchOrientator.html#a2786825e04cc0836549bb23a2b6242b4" target="_top" xlink:title="Échange normal↔deviation sur l&#39;aiguillage non&#45;référence si les rôles diffèrent.">
<polygon fill="white" stroke="#666666" points="1772,-174 1609,-174 1609,-144 1772,-144 1772,-174"/>
<text text-anchor="start" x="1617" y="-162" font-family="Helvetica,sans-Serif" font-size="10.00">SwitchOrientator::alignDouble</text>
<text text-anchor="middle" x="1690.5" y="-151" font-family="Helvetica,sans-Serif" font-size="10.00">SwitchRoles</text>
</a>
</g>
</g>
<!-- Node1&#45;&gt;Node2 -->
<g id="edge1_Node000001_Node000002" class="edge">
<title>Node1&#45;&gt;Node2</title>
<g id="a_edge1_Node000001_Node000002"><a xlink:title=" ">
<path fill="none" stroke="#63b8ff" d="M1862.52,-100.52C1837.87,-110.57 1803.06,-124.33 1772,-135 1763.03,-138.08 1753.43,-141.14 1744.09,-144"/>
<polygon fill="#63b8ff" stroke="#63b8ff" points="1864.16,-103.63 1872.09,-96.6 1861.51,-97.15 1864.16,-103.63"/>
</a>
</g>
</g>
<!-- Node12 -->
<g id="Node000012" class="node">
<title>Node12</title>
<g id="a_Node000012"><a xlink:href="classSwitchOrientator.html#a8132fa3495845481fdb68a3ec695af15" target="_top" xlink:title="Calcule et assigne les points tip CDC sur un SwitchBlock orienté.">
<polygon fill="white" stroke="#666666" points="1764,-126 1617,-126 1617,-96 1764,-96 1764,-126"/>
<text text-anchor="start" x="1625" y="-114" font-family="Helvetica,sans-Serif" font-size="10.00">SwitchOrientator::compute</text>
<text text-anchor="middle" x="1690.5" y="-103" font-family="Helvetica,sans-Serif" font-size="10.00">BranchTipPoints</text>
</a>
</g>
</g>
<!-- Node1&#45;&gt;Node12 -->
<g id="edge11_Node000001_Node000012" class="edge">
<title>Node1&#45;&gt;Node12</title>
<g id="a_edge11_Node000001_Node000012"><a xlink:title=" ">
<path fill="none" stroke="#63b8ff" d="M1804.12,-97.72C1790.76,-99.29 1777.14,-100.9 1764.2,-102.43"/>
<polygon fill="#63b8ff" stroke="#63b8ff" points="1804.76,-101.17 1814.28,-96.52 1803.94,-94.22 1804.76,-101.17"/>
</a>
</g>
</g>
<!-- Node13 -->
<g id="Node000013" class="node">
<title>Node13</title>
<g id="a_Node000013"><a xlink:href="classGeoJsonExporter.html#a4edb715ecc8bee30c4eb00e7dcb98e93" target="_top" xlink:title="Convertit un SwitchBlock en feature GeoJSON de type Point.">
<polygon fill="white" stroke="#666666" points="1760.5,-30 1620.5,-30 1620.5,0 1760.5,0 1760.5,-30"/>
<text text-anchor="start" x="1628.5" y="-18" font-family="Helvetica,sans-Serif" font-size="10.00">GeoJsonExporter::convert</text>
<text text-anchor="middle" x="1690.5" y="-7" font-family="Helvetica,sans-Serif" font-size="10.00">SwitchToFeature</text>
</a>
</g>
</g>
<!-- Node1&#45;&gt;Node13 -->
<g id="edge13_Node000001_Node000013" class="edge">
<title>Node1&#45;&gt;Node13</title>
<g id="a_edge13_Node000001_Node000013"><a xlink:title=" ">
<path fill="none" stroke="#63b8ff" d="M1862.52,-73.48C1837.87,-63.43 1803.06,-49.67 1772,-39 1763.03,-35.92 1753.43,-32.86 1744.09,-30"/>
<polygon fill="#63b8ff" stroke="#63b8ff" points="1861.51,-76.85 1872.09,-77.4 1864.16,-70.37 1861.51,-76.85"/>
</a>
</g>
</g>
<!-- Node17 -->
<g id="Node000017" class="node">
<title>Node17</title>
<g id="a_Node000017"><a xlink:href="classSwitchOrientator.html#acdcd6a442cb52bed611a302b1358c8bb" target="_top" xlink:title="Force la branche partagée au rôle DEVIATION sur les deux aiguillages formant un croisement mécanique ...">
<polygon fill="white" stroke="#666666" points="1761,-78 1620,-78 1620,-48 1761,-48 1761,-78"/>
<text text-anchor="start" x="1628" y="-66" font-family="Helvetica,sans-Serif" font-size="10.00">SwitchOrientator::enforce</text>
<text text-anchor="middle" x="1690.5" y="-55" font-family="Helvetica,sans-Serif" font-size="10.00">CrossoverConsistency</text>
</a>
</g>
</g>
<!-- Node1&#45;&gt;Node17 -->
<g id="edge18_Node000001_Node000017" class="edge">
<title>Node1&#45;&gt;Node17</title>
<g id="a_edge18_Node000001_Node000017"><a xlink:title=" ">
<path fill="none" stroke="#63b8ff" d="M1804.34,-76.31C1789.89,-74.6 1775.14,-72.86 1761.27,-71.23"/>
<polygon fill="#63b8ff" stroke="#63b8ff" points="1803.94,-79.78 1814.28,-77.48 1804.76,-72.83 1803.94,-79.78"/>
</a>
</g>
</g>
<!-- Node3 -->
<g id="Node000003" class="node">
<title>Node3</title>
<g id="a_Node000003"><a xlink:href="classSwitchOrientator.html#a5af1a097baad421ce01bd013be602df7" target="_top" xlink:title="Exécute les phases 6, 6b, 6c et 6d en place sur topoResult.">
<polygon fill="white" stroke="#666666" points="1558,-119.5 1425,-119.5 1425,-100.5 1558,-100.5 1558,-119.5"/>
<text text-anchor="middle" x="1491.5" y="-107.5" font-family="Helvetica,sans-Serif" font-size="10.00">SwitchOrientator::orient</text>
</a>
</g>
</g>
<!-- Node2&#45;&gt;Node3 -->
<g id="edge2_Node000002_Node000003" class="edge">
<title>Node2&#45;&gt;Node3</title>
<g id="a_edge2_Node000002_Node000003"><a xlink:title=" ">
<path fill="none" stroke="#63b8ff" d="M1619.12,-141.5C1589.37,-134.09 1555.87,-125.76 1530.81,-119.53"/>
<polygon fill="#63b8ff" stroke="#63b8ff" points="1618.51,-144.95 1629.05,-143.97 1620.2,-138.16 1618.51,-144.95"/>
</a>
</g>
</g>
<!-- Node4 -->
<g id="Node000004" class="node">
<title>Node4</title>
<g id="a_Node000004"><a xlink:href="classGeoParser.html#aa4acc69a49444b9aa06b2c028b2c1133" target="_top" xlink:title="Lance le pipeline complet.">
<polygon fill="white" stroke="#666666" points="1374,-119.5 1275,-119.5 1275,-100.5 1374,-100.5 1374,-119.5"/>
<text text-anchor="middle" x="1324.5" y="-107.5" font-family="Helvetica,sans-Serif" font-size="10.00">GeoParser::parse</text>
</a>
</g>
</g>
<!-- Node3&#45;&gt;Node4 -->
<g id="edge3_Node000003_Node000004" class="edge">
<title>Node3&#45;&gt;Node4</title>
<g id="a_edge3_Node000003_Node000004"><a xlink:title=" ">
<path fill="none" stroke="#63b8ff" d="M1414.42,-110C1400.74,-110 1386.82,-110 1374.18,-110"/>
<polygon fill="#63b8ff" stroke="#63b8ff" points="1414.81,-113.5 1424.81,-110 1414.81,-106.5 1414.81,-113.5"/>
</a>
</g>
</g>
<!-- Node5 -->
<g id="Node000005" class="node">
<title>Node5</title>
<g id="a_Node000005"><a xlink:href="classGeoParsingTask.html#affe9d461e96e029708ced380b63da972" target="_top" xlink:title="Lance le parsing GeoJSON dans un thread séparé et détaché.">
<polygon fill="white" stroke="#666666" points="1231.5,-119.5 1100.5,-119.5 1100.5,-100.5 1231.5,-100.5 1231.5,-119.5"/>
<text text-anchor="middle" x="1166" y="-107.5" font-family="Helvetica,sans-Serif" font-size="10.00">GeoParsingTask::launch</text>
</a>
</g>
</g>
<!-- Node4&#45;&gt;Node5 -->
<g id="edge4_Node000004_Node000005" class="edge">
<title>Node4&#45;&gt;Node5</title>
<g id="a_edge4_Node000004_Node000005"><a xlink:title=" ">
<path fill="none" stroke="#63b8ff" d="M1264.71,-110C1253.95,-110 1242.67,-110 1231.74,-110"/>
<polygon fill="#63b8ff" stroke="#63b8ff" points="1264.84,-113.5 1274.84,-110 1264.84,-106.5 1264.84,-113.5"/>
</a>
</g>
</g>
<!-- Node6 -->
<g id="Node000006" class="node">
<title>Node6</title>
<g id="a_Node000006"><a xlink:href="classMainWindow.html#a889cc45fb741e12015f4af9f01acaa96" target="_top" xlink:title="Ouvre le sélecteur de fichier et lance le parsing asynchrone.">
<polygon fill="white" stroke="#666666" points="1057,-119.5 917,-119.5 917,-100.5 1057,-100.5 1057,-119.5"/>
<text text-anchor="middle" x="987" y="-107.5" font-family="Helvetica,sans-Serif" font-size="10.00">MainWindow::onFileOpen</text>
</a>
</g>
</g>
<!-- Node5&#45;&gt;Node6 -->
<g id="edge5_Node000005_Node000006" class="edge">
<title>Node5&#45;&gt;Node6</title>
<g id="a_edge5_Node000005_Node000006"><a xlink:title=" ">
<path fill="none" stroke="#63b8ff" d="M1090.03,-110C1079.15,-110 1068,-110 1057.25,-110"/>
<polygon fill="#63b8ff" stroke="#63b8ff" points="1090.35,-113.5 1100.35,-110 1090.35,-106.5 1090.35,-113.5"/>
</a>
</g>
</g>
<!-- Node7 -->
<g id="Node000007" class="node">
<title>Node7</title>
<g id="a_Node000007"><a xlink:href="classMainWindow.html#afbecf0f64f48c5c868168884bab52356" target="_top" xlink:title="Gère les commandes menu (WM_COMMAND).">
<polygon fill="white" stroke="#666666" points="881,-100.5 734,-100.5 734,-81.5 881,-81.5 881,-100.5"/>
<text text-anchor="middle" x="807.5" y="-88.5" font-family="Helvetica,sans-Serif" font-size="10.00">MainWindow::onCommand</text>
</a>
</g>
</g>
<!-- Node6&#45;&gt;Node7 -->
<g id="edge6_Node000006_Node000007" class="edge">
<title>Node6&#45;&gt;Node7</title>
<g id="a_edge6_Node000006_Node000007"><a xlink:title=" ">
<path fill="none" stroke="#63b8ff" d="M906.92,-101.53C898.38,-100.62 889.72,-99.69 881.26,-98.79"/>
<polygon fill="#63b8ff" stroke="#63b8ff" points="906.55,-105.02 916.87,-102.6 907.29,-98.06 906.55,-105.02"/>
</a>
</g>
</g>
<!-- Node8 -->
<g id="Node000008" class="node">
<title>Node8</title>
<g id="a_Node000008"><a xlink:href="classMainWindow.html#ab85682874f3ab5dfa81f782f889d8556" target="_top" xlink:title="Dispatcher principal des messages de la fenêtre.">
<polygon fill="white" stroke="#666666" points="698,-100.5 537,-100.5 537,-81.5 698,-81.5 698,-100.5"/>
<text text-anchor="middle" x="617.5" y="-88.5" font-family="Helvetica,sans-Serif" font-size="10.00">MainWindow::handleMessage</text>
</a>
</g>
</g>
<!-- Node7&#45;&gt;Node8 -->
<g id="edge7_Node000007_Node000008" class="edge">
<title>Node7&#45;&gt;Node8</title>
<g id="a_edge7_Node000007_Node000008"><a xlink:title=" ">
<path fill="none" stroke="#63b8ff" d="M723.59,-91C715.15,-91 706.58,-91 698.17,-91"/>
<polygon fill="#63b8ff" stroke="#63b8ff" points="723.81,-94.5 733.81,-91 723.81,-87.5 723.81,-94.5"/>
</a>
</g>
</g>
<!-- Node9 -->
<g id="Node000009" class="node">
<title>Node9</title>
<g id="a_Node000009"><a xlink:href="classMainWindow.html#a332648d0a0caec8070b05bc27bb9a14b" target="_top" xlink:title="Procédure de fenêtre statique, point d&#39;entrée imposé par Win32.">
<polygon fill="white" stroke="#666666" points="501,-100.5 358,-100.5 358,-81.5 501,-81.5 501,-100.5"/>
<text text-anchor="middle" x="429.5" y="-88.5" font-family="Helvetica,sans-Serif" font-size="10.00">MainWindow::windowProc</text>
</a>
</g>
</g>
<!-- Node8&#45;&gt;Node9 -->
<g id="edge8_Node000008_Node000009" class="edge">
<title>Node8&#45;&gt;Node9</title>
<g id="a_edge8_Node000008_Node000009"><a xlink:title=" ">
<path fill="none" stroke="#63b8ff" d="M526.77,-91C518.2,-91 509.58,-91 501.22,-91"/>
<polygon fill="#63b8ff" stroke="#63b8ff" points="526.81,-94.5 536.81,-91 526.81,-87.5 526.81,-94.5"/>
</a>
</g>
</g>
<!-- Node10 -->
<g id="Node000010" class="node">
<title>Node10</title>
<g id="a_Node000010"><a xlink:href="classApplication.html#a0bda40de108938fd29374335bf4eac71" target="_top" xlink:title="Enregistre la classe de fenêtre Win32 (WNDCLASSEXW).">
<polygon fill="white" stroke="#666666" points="322,-106 168,-106 168,-76 322,-76 322,-106"/>
<text text-anchor="start" x="176" y="-94" font-family="Helvetica,sans-Serif" font-size="10.00">Application::registerWindow</text>
<text text-anchor="middle" x="245" y="-83" font-family="Helvetica,sans-Serif" font-size="10.00">Class</text>
</a>
</g>
</g>
<!-- Node9&#45;&gt;Node10 -->
<g id="edge9_Node000009_Node000010" class="edge">
<title>Node9&#45;&gt;Node10</title>
<g id="a_edge9_Node000009_Node000010"><a xlink:title=" ">
<path fill="none" stroke="#63b8ff" d="M347.66,-91C339.17,-91 330.56,-91 322.12,-91"/>
<polygon fill="#63b8ff" stroke="#63b8ff" points="347.94,-94.5 357.94,-91 347.94,-87.5 347.94,-94.5"/>
</a>
</g>
</g>
<!-- Node11 -->
<g id="Node000011" class="node">
<title>Node11</title>
<g id="a_Node000011"><a xlink:href="classApplication.html#a719cf091afd2276d52f9a58e4962ebfb" target="_top" xlink:title="Construit l&#39;application et enregistre la classe de fenêtre.">
<polygon fill="white" stroke="#666666" points="132,-100.5 0,-100.5 0,-81.5 132,-81.5 132,-100.5"/>
<text text-anchor="middle" x="66" y="-88.5" font-family="Helvetica,sans-Serif" font-size="10.00">Application::Application</text>
</a>
</g>
</g>
<!-- Node10&#45;&gt;Node11 -->
<g id="edge10_Node000010_Node000011" class="edge">
<title>Node10&#45;&gt;Node11</title>
<g id="a_edge10_Node000010_Node000011"><a xlink:title=" ">
<path fill="none" stroke="#63b8ff" d="M157.82,-91C149.19,-91 140.53,-91 132.18,-91"/>
<polygon fill="#63b8ff" stroke="#63b8ff" points="157.91,-94.5 167.91,-91 157.91,-87.5 157.91,-94.5"/>
</a>
</g>
</g>
<!-- Node12&#45;&gt;Node3 -->
<g id="edge12_Node000012_Node000003" class="edge">
<title>Node12&#45;&gt;Node3</title>
<g id="a_edge12_Node000012_Node000003"><a xlink:title=" ">
<path fill="none" stroke="#63b8ff" d="M1606.92,-110.58C1590.6,-110.5 1573.68,-110.41 1558.02,-110.33"/>
<polygon fill="#63b8ff" stroke="#63b8ff" points="1606.97,-114.08 1616.98,-110.63 1607,-107.08 1606.97,-114.08"/>
</a>
</g>
</g>
<!-- Node14 -->
<g id="Node000014" class="node">
<title>Node14</title>
<g id="a_Node000014"><a xlink:href="classGeoJsonExporter.html#a933abb8a4cbc84d34ced90a170d170d3" target="_top" xlink:title="Exporte la topologie ferroviaire dans un fichier GeoJSON.">
<polygon fill="white" stroke="#666666" points="1573,-74.5 1410,-74.5 1410,-55.5 1573,-55.5 1573,-74.5"/>
<text text-anchor="middle" x="1491.5" y="-62.5" font-family="Helvetica,sans-Serif" font-size="10.00">GeoJsonExporter::exportToFile</text>
</a>
</g>
</g>
<!-- Node13&#45;&gt;Node14 -->
<g id="edge14_Node000013_Node000014" class="edge">
<title>Node13&#45;&gt;Node14</title>
<g id="a_edge14_Node000013_Node000014"><a xlink:title=" ">
<path fill="none" stroke="#63b8ff" d="M1620.68,-32.47C1590.28,-40.18 1555.71,-48.96 1530.14,-55.45"/>
<polygon fill="#63b8ff" stroke="#63b8ff" points="1621.56,-35.85 1630.39,-30 1619.84,-29.07 1621.56,-35.85"/>
</a>
</g>
</g>
<!-- Node16 -->
<g id="Node000016" class="node">
<title>Node16</title>
<g id="a_Node000016"><a xlink:href="classGeoJsonExporter.html#a7f60c7ba7d8578832e4461fe50de931d" target="_top" xlink:title="Génère le script JavaScript d&#39;injection GeoJSON dans le WebView.">
<polygon fill="white" stroke="#666666" points="1563.5,-30 1419.5,-30 1419.5,0 1563.5,0 1563.5,-30"/>
<text text-anchor="start" x="1427.5" y="-18" font-family="Helvetica,sans-Serif" font-size="10.00">GeoJsonExporter::loadGeo</text>
<text text-anchor="middle" x="1491.5" y="-7" font-family="Helvetica,sans-Serif" font-size="10.00">JsonToWebView</text>
</a>
</g>
</g>
<!-- Node13&#45;&gt;Node16 -->
<g id="edge17_Node000013_Node000016" class="edge">
<title>Node13&#45;&gt;Node16</title>
<g id="a_edge17_Node000013_Node000016"><a xlink:title=" ">
<path fill="none" stroke="#63b8ff" d="M1610.27,-15C1594.81,-15 1578.69,-15 1563.51,-15"/>
<polygon fill="#63b8ff" stroke="#63b8ff" points="1610.32,-18.5 1620.32,-15 1610.32,-11.5 1610.32,-18.5"/>
</a>
</g>
</g>
<!-- Node15 -->
<g id="Node000015" class="node">
<title>Node15</title>
<g id="a_Node000015"><a xlink:href="classMainWindow.html#a4429f521642e48894e0efce5b41bd0ae" target="_top" xlink:title="Ouvre le dialogue d&#39;exportation et déclenche l&#39;export GeoJSON.">
<polygon fill="white" stroke="#666666" points="1239,-80.5 1093,-80.5 1093,-61.5 1239,-61.5 1239,-80.5"/>
<text text-anchor="middle" x="1166" y="-68.5" font-family="Helvetica,sans-Serif" font-size="10.00">MainWindow::onFileExport</text>
</a>
</g>
</g>
<!-- Node14&#45;&gt;Node15 -->
<g id="edge15_Node000014_Node000015" class="edge">
<title>Node14&#45;&gt;Node15</title>
<g id="a_edge15_Node000014_Node000015"><a xlink:title=" ">
<path fill="none" stroke="#63b8ff" d="M1399.39,-66.69C1348.65,-67.63 1286.37,-68.79 1239.06,-69.66"/>
<polygon fill="#63b8ff" stroke="#63b8ff" points="1399.77,-70.18 1409.7,-66.5 1399.64,-63.18 1399.77,-70.18"/>
</a>
</g>
</g>
<!-- Node15&#45;&gt;Node7 -->
<g id="edge16_Node000015_Node000007" class="edge">
<title>Node15&#45;&gt;Node7</title>
<g id="a_edge16_Node000015_Node000007"><a xlink:title=" ">
<path fill="none" stroke="#63b8ff" d="M1082.51,-75.63C1021.63,-79.04 939.56,-83.65 881.15,-86.92"/>
<polygon fill="#63b8ff" stroke="#63b8ff" points="1083.07,-79.1 1092.86,-75.05 1082.68,-72.11 1083.07,-79.1"/>
</a>
</g>
</g>
<!-- Node17&#45;&gt;Node3 -->
<g id="edge19_Node000017_Node000003" class="edge">
<title>Node17&#45;&gt;Node3</title>
<g id="a_edge19_Node000017_Node000003"><a xlink:title=" ">
<path fill="none" stroke="#63b8ff" d="M1616.7,-80.37C1588.23,-87.16 1556.68,-94.69 1532.5,-100.46"/>
<polygon fill="#63b8ff" stroke="#63b8ff" points="1617.71,-83.73 1626.63,-78 1616.09,-76.92 1617.71,-83.73"/>
</a>
</g>
</g>
</g>
</svg>
