<?xml version="1.0" encoding="UTF-8" standalone="no"?>
<!DOCTYPE svg PUBLIC "-//W3C//DTD SVG 1.1//EN"
 "http://www.w3.org/Graphics/SVG/1.1/DTD/svg11.dtd">
<!-- Generated by graphviz version 2.43.0 (0)
 -->
<!-- Title: GeometryUtils::estimateUtmZone Pages: 1 -->
<svg width="1932pt" height="38pt"
 viewBox="0.00 0.00 1932.00 38.00" xmlns="http://www.w3.org/2000/svg" xmlns:xlink="http://www.w3.org/1999/xlink">
<g id="graph0" class="graph" transform="scale(1 1) rotate(0) translate(4 34)">
<title>GeometryUtils::estimateUtmZone</title>
<!-- Node1 -->
<g id="Node000001" class="node">
<title>Node1</title>
<g id="a_Node000001"><a xlink:title="Estime le numéro de zone UTM (1–60) depuis la longitude centre.">
<polygon fill="#999999" stroke="#666666" points="1924,-24.5 1741,-24.5 1741,-5.5 1924,-5.5 1924,-24.5"/>
<text text-anchor="middle" x="1832.5" y="-12.5" font-family="Helvetica,sans-Serif" font-size="10.00">GeometryUtils::estimateUtmZone</text>
</a>
</g>
</g>
<!-- Node2 -->
<g id="Node000002" class="node">
<title>Node2</title>
<g id="a_Node000002"><a xlink:href="classGraphBuilder.html#aa6791cab236c871f53d8e7017875f7bc" target="_top" xlink:title="Phase 1 — Lit le GeoJSON et extrait les polylignes brutes WGS&#45;84.">
<polygon fill="white" stroke="#666666" points="1705,-24.5 1541,-24.5 1541,-5.5 1705,-5.5 1705,-24.5"/>
<text text-anchor="middle" x="1623" y="-12.5" font-family="Helvetica,sans-Serif" font-size="10.00">GraphBuilder::loadGeoJsonFile</text>
</a>
</g>
</g>
<!-- Node1&#45;&gt;Node2 -->
<g id="edge1_Node000001_Node000002" class="edge">
<title>Node1&#45;&gt;Node2</title>
<g id="a_edge1_Node000001_Node000002"><a xlink:title=" ">
<path fill="none" stroke="#63b8ff" d="M1730.72,-15C1722.12,-15 1713.49,-15 1705.07,-15"/>
<polygon fill="#63b8ff" stroke="#63b8ff" points="1730.79,-18.5 1740.79,-15 1730.79,-11.5 1730.79,-18.5"/>
</a>
</g>
</g>
<!-- Node3 -->
<g id="Node000003" class="node">
<title>Node3</title>
<g id="a_Node000003"><a xlink:href="classGraphBuilder.html#af2d714cb20595bdc76588d2512a0102a" target="_top" xlink:title="Exécute les phases 1 et 2 et retourne le résultat.">
<polygon fill="white" stroke="#666666" points="1505,-24.5 1395,-24.5 1395,-5.5 1505,-5.5 1505,-24.5"/>
<text text-anchor="middle" x="1450" y="-12.5" font-family="Helvetica,sans-Serif" font-size="10.00">GraphBuilder::build</text>
</a>
</g>
</g>
<!-- Node2&#45;&gt;Node3 -->
<g id="edge2_Node000002_Node000003" class="edge">
<title>Node2&#45;&gt;Node3</title>
<g id="a_edge2_Node000002_Node000003"><a xlink:title=" ">
<path fill="none" stroke="#63b8ff" d="M1530.57,-15C1521.91,-15 1513.33,-15 1505.19,-15"/>
<polygon fill="#63b8ff" stroke="#63b8ff" points="1530.76,-18.5 1540.76,-15 1530.76,-11.5 1530.76,-18.5"/>
</a>
</g>
</g>
<!-- Node4 -->
<g id="Node000004" class="node">
<title>Node4</title>
<g id="a_Node000004"><a xlink:href="classGeoParser.html#aa4acc69a49444b9aa06b2c028b2c1133" target="_top" xlink:title="Lance le pipeline complet.">
<polygon fill="white" stroke="#666666" points="1359,-24.5 1260,-24.5 1260,-5.5 1359,-5.5 1359,-24.5"/>
<text text-anchor="middle" x="1309.5" y="-12.5" font-family="Helvetica,sans-Serif" font-size="10.00">GeoParser::parse</text>
</a>
</g>
</g>
<!-- Node3&#45;&gt;Node4 -->
<g id="edge3_Node000003_Node000004" class="edge">
<title>Node3&#45;&gt;Node4</title>
<g id="a_edge3_Node000003_Node000004"><a xlink:title=" ">
<path fill="none" stroke="#63b8ff" d="M1384.42,-15C1375.97,-15 1367.42,-15 1359.28,-15"/>
<polygon fill="#63b8ff" stroke="#63b8ff" points="1384.66,-18.5 1394.66,-15 1384.66,-11.5 1384.66,-18.5"/>
</a>
</g>
</g>
<!-- Node5 -->
<g id="Node000005" class="node">
<title>Node5</title>
<g id="a_Node000005"><a xlink:href="classGeoParsingTask.html#affe9d461e96e029708ced380b63da972" target="_top" xlink:title="Lance le parsing GeoJSON dans un thread séparé et détaché.">
<polygon fill="white" stroke="#666666" points="1224,-24.5 1093,-24.5 1093,-5.5 1224,-5.5 1224,-24.5"/>
<text text-anchor="middle" x="1158.5" y="-12.5" font-family="Helvetica,sans-Serif" font-size="10.00">GeoParsingTask::launch</text>
</a>
</g>
</g>
<!-- Node4&#45;&gt;Node5 -->
<g id="edge4_Node000004_Node000005" class="edge">
<title>Node4&#45;&gt;Node5</title>
<g id="a_edge4_Node000004_Node000005"><a xlink:title=" ">
<path fill="none" stroke="#63b8ff" d="M1249.65,-15C1241.27,-15 1232.6,-15 1224.12,-15"/>
<polygon fill="#63b8ff" stroke="#63b8ff" points="1249.71,-18.5 1259.71,-15 1249.71,-11.5 1249.71,-18.5"/>
</a>
</g>
</g>
<!-- Node6 -->
<g id="Node000006" class="node">
<title>Node6</title>
<g id="a_Node000006"><a xlink:href="classMainWindow.html#a889cc45fb741e12015f4af9f01acaa96" target="_top" xlink:title="Ouvre le sélecteur de fichier et lance le parsing asynchrone.">
<polygon fill="white" stroke="#666666" points="1057,-24.5 917,-24.5 917,-5.5 1057,-5.5 1057,-24.5"/>
<text text-anchor="middle" x="987" y="-12.5" font-family="Helvetica,sans-Serif" font-size="10.00">MainWindow::onFileOpen</text>
</a>
</g>
</g>
<!-- Node5&#45;&gt;Node6 -->
<g id="edge5_Node000005_Node000006" class="edge">
<title>Node5&#45;&gt;Node6</title>
<g id="a_edge5_Node000005_Node000006"><a xlink:title=" ">
<path fill="none" stroke="#63b8ff" d="M1082.68,-15C1074.2,-15 1065.59,-15 1057.18,-15"/>
<polygon fill="#63b8ff" stroke="#63b8ff" points="1082.94,-18.5 1092.94,-15 1082.94,-11.5 1082.94,-18.5"/>
</a>
</g>
</g>
<!-- Node7 -->
<g id="Node000007" class="node">
<title>Node7</title>
<g id="a_Node000007"><a xlink:href="classMainWindow.html#afbecf0f64f48c5c868168884bab52356" target="_top" xlink:title="Gère les commandes menu (WM_COMMAND).">
<polygon fill="white" stroke="#666666" points="881,-24.5 734,-24.5 734,-5.5 881,-5.5 881,-24.5"/>
<text text-anchor="middle" x="807.5" y="-12.5" font-family="Helvetica,sans-Serif" font-size="10.00">MainWindow::onCommand</text>
</a>
</g>
</g>
<!-- Node6&#45;&gt;Node7 -->
<g id="edge6_Node000006_Node000007" class="edge">
<title>Node6&#45;&gt;Node7</title>
<g id="a_edge6_Node000006_Node000007"><a xlink:title=" ">
<path fill="none" stroke="#63b8ff" d="M906.64,-15C898.19,-15 889.62,-15 881.26,-15"/>
<polygon fill="#63b8ff" stroke="#63b8ff" points="906.87,-18.5 916.87,-15 906.87,-11.5 906.87,-18.5"/>
</a>
</g>
</g>
<!-- Node8 -->
<g id="Node000008" class="node">
<title>Node8</title>
<g id="a_Node000008"><a xlink:href="classMainWindow.html#ab85682874f3ab5dfa81f782f889d8556" target="_top" xlink:title="Dispatcher principal des messages de la fenêtre.">
<polygon fill="white" stroke="#666666" points="698,-24.5 537,-24.5 537,-5.5 698,-5.5 698,-24.5"/>
<text text-anchor="middle" x="617.5" y="-12.5" font-family="Helvetica,sans-Serif" font-size="10.00">MainWindow::handleMessage</text>
</a>
</g>
</g>
<!-- Node7&#45;&gt;Node8 -->
<g id="edge7_Node000007_Node000008" class="edge">
<title>Node7&#45;&gt;Node8</title>
<g id="a_edge7_Node000007_Node000008"><a xlink:title=" ">
<path fill="none" stroke="#63b8ff" d="M723.59,-15C715.15,-15 706.58,-15 698.17,-15"/>
<polygon fill="#63b8ff" stroke="#63b8ff" points="723.81,-18.5 733.81,-15 723.81,-11.5 723.81,-18.5"/>
</a>
</g>
</g>
<!-- Node9 -->
<g id="Node000009" class="node">
<title>Node9</title>
<g id="a_Node000009"><a xlink:href="classMainWindow.html#a332648d0a0caec8070b05bc27bb9a14b" target="_top" xlink:title="Procédure de fenêtre statique, point d&#39;entrée imposé par Win32.">
<polygon fill="white" stroke="#666666" points="501,-24.5 358,-24.5 358,-5.5 501,-5.5 501,-24.5"/>
<text text-anchor="middle" x="429.5" y="-12.5" font-family="Helvetica,sans-Serif" font-size="10.00">MainWindow::windowProc</text>
</a>
</g>
</g>
<!-- Node8&#45;&gt;Node9 -->
<g id="edge8_Node000008_Node000009" class="edge">
<title>Node8&#45;&gt;Node9</title>
<g id="a_edge8_Node000008_Node000009"><a xlink:title=" ">
<path fill="none" stroke="#63b8ff" d="M526.77,-15C518.2,-15 509.58,-15 501.22,-15"/>
<polygon fill="#63b8ff" stroke="#63b8ff" points="526.81,-18.5 536.81,-15 526.81,-11.5 526.81,-18.5"/>
</a>
</g>
</g>
<!-- Node10 -->
<g id="Node000010" class="node">
<title>Node10</title>
<g id="a_Node000010"><a xlink:href="classApplication.html#a0bda40de108938fd29374335bf4eac71" target="_top" xlink:title="Enregistre la classe de fenêtre Win32 (WNDCLASSEXW).">
<polygon fill="white" stroke="#666666" points="322,-30 168,-30 168,0 322,0 322,-30"/>
<text text-anchor="start" x="176" y="-18" font-family="Helvetica,sans-Serif" font-size="10.00">Application::registerWindow</text>
<text text-anchor="middle" x="245" y="-7" font-family="Helvetica,sans-Serif" font-size="10.00">Class</text>
</a>
</g>
</g>
<!-- Node9&#45;&gt;Node10 -->
<g id="edge9_Node000009_Node000010" class="edge">
<title>Node9&#45;&gt;Node10</title>
<g id="a_edge9_Node000009_Node000010"><a xlink:title=" ">
<path fill="none" stroke="#63b8ff" d="M347.66,-15C339.17,-15 330.56,-15 322.12,-15"/>
<polygon fill="#63b8ff" stroke="#63b8ff" points="347.94,-18.5 357.94,-15 347.94,-11.5 347.94,-18.5"/>
</a>
</g>
</g>
<!-- Node11 -->
<g id="Node000011" class="node">
<title>Node11</title>
<g id="a_Node000011"><a xlink:href="classApplication.html#a719cf091afd2276d52f9a58e4962ebfb" target="_top" xlink:title="Construit l&#39;application et enregistre la classe de fenêtre.">
<polygon fill="white" stroke="#666666" points="132,-24.5 0,-24.5 0,-5.5 132,-5.5 132,-24.5"/>
<text text-anchor="middle" x="66" y="-12.5" font-family="Helvetica,sans-Serif" font-size="10.00">Application::Application</text>
</a>
</g>
</g>
<!-- Node10&#45;&gt;Node11 -->
<g id="edge10_Node000010_Node000011" class="edge">
<title>Node10&#45;&gt;Node11</title>
<g id="a_edge10_Node000010_Node000011"><a xlink:title=" ">
<path fill="none" stroke="#63b8ff" d="M157.82,-15C149.19,-15 140.53,-15 132.18,-15"/>
<polygon fill="#63b8ff" stroke="#63b8ff" points="157.91,-18.5 167.91,-15 157.91,-11.5 157.91,-18.5"/>
</a>
</g>
</g>
</g>
</svg>
