<?xml version="1.0" encoding="UTF-8" standalone="no"?>
<!DOCTYPE svg PUBLIC "-//W3C//DTD SVG 1.1//EN"
 "http://www.w3.org/Graphics/SVG/1.1/DTD/svg11.dtd">
<!-- Generated by graphviz version 2.43.0 (0)
 -->
<!-- Title: Logger::levelToString Pages: 1 -->
<svg width="423pt" height="27pt"
 viewBox="0.00 0.00 423.00 27.00" xmlns="http://www.w3.org/2000/svg" xmlns:xlink="http://www.w3.org/1999/xlink">
<g id="graph0" class="graph" transform="scale(1 1) rotate(0) translate(4 23)">
<title>Logger::levelToString</title>
<!-- Node1 -->
<g id="Node000001" class="node">
<title>Node1</title>
<g id="a_Node000001"><a xlink:title="Convertit un LogLevel en chaîne courte pour l&#39;affichage.">
<polygon fill="#999999" stroke="#666666" points="415,-19 296,-19 296,0 415,0 415,-19"/>
<text text-anchor="middle" x="355.5" y="-7" font-family="Helvetica,sans-Serif" font-size="10.00">Logger::levelToString</text>
</a>
</g>
</g>
<!-- Node2 -->
<g id="Node000002" class="node">
<title>Node2</title>
<g id="a_Node000002"><a xlink:href="classLogger.html#a8f0182d5ff94d8b9585a1e75e7b02f1e" target="_top" xlink:title="Formate une ligne de trace complète.">
<polygon fill="white" stroke="#666666" points="260,-19 134,-19 134,0 260,0 260,-19"/>
<text text-anchor="middle" x="197" y="-7" font-family="Helvetica,sans-Serif" font-size="10.00">Logger::formatLogLine</text>
</a>
</g>
</g>
<!-- Node1&#45;&gt;Node2 -->
<g id="edge1_Node000001_Node000002" class="edge">
<title>Node1&#45;&gt;Node2</title>
<g id="a_edge1_Node000001_Node000002"><a xlink:title=" ">
<path fill="none" stroke="#63b8ff" d="M285.57,-9.5C277.13,-9.5 268.53,-9.5 260.19,-9.5"/>
<polygon fill="#63b8ff" stroke="#63b8ff" points="285.78,-13 295.78,-9.5 285.78,-6 285.78,-13"/>
</a>
</g>
</g>
<!-- Node3 -->
<g id="Node000003" class="node">
<title>Node3</title>
<g id="a_Node000003"><a xlink:href="classLogger.html#ad3f8120f97679ef581fe34b3c220fe90" target="_top" xlink:title="Écrit une ligne de trace dans le fichier et la sortie de débogage.">
<polygon fill="white" stroke="#666666" points="98,-19 0,-19 0,0 98,0 98,-19"/>
<text text-anchor="middle" x="49" y="-7" font-family="Helvetica,sans-Serif" font-size="10.00">Logger::writeLog</text>
</a>
</g>
</g>
<!-- Node2&#45;&gt;Node3 -->
<g id="edge2_Node000002_Node000003" class="edge">
<title>Node2&#45;&gt;Node3</title>
<g id="a_edge2_Node000002_Node000003"><a xlink:title=" ">
<path fill="none" stroke="#63b8ff" d="M123.53,-9.5C114.86,-9.5 106.19,-9.5 98,-9.5"/>
<polygon fill="#63b8ff" stroke="#63b8ff" points="123.66,-13 133.66,-9.5 123.66,-6 123.66,-13"/>
</a>
</g>
</g>
</g>
</svg>
