<?xml version="1.0" encoding="UTF-8" standalone="no"?>
<!DOCTYPE svg PUBLIC "-//W3C//DTD SVG 1.1//EN"
 "http://www.w3.org/Graphics/SVG/1.1/DTD/svg11.dtd">
<!-- Generated by graphviz version 2.43.0 (0)
 -->
<!-- Title: StraightBlock::getId Pages: 1 -->
<svg width="1652pt" height="124pt"
 viewBox="0.00 0.00 1652.00 123.50" xmlns="http://www.w3.org/2000/svg" xmlns:xlink="http://www.w3.org/1999/xlink">
<g id="graph0" class="graph" transform="scale(1 1) rotate(0) translate(4 119.5)">
<title>StraightBlock::getId</title>
<!-- Node1 -->
<g id="Node000001" class="node">
<title>Node1</title>
<g id="a_Node000001"><a xlink:title="Retourne l&#39;identifiant unique de l&#39;élément (ex. &quot;sw/3&quot;, &quot;s/12&quot;).">
<polygon fill="#999999" stroke="#666666" points="1644,-48.5 1531,-48.5 1531,-29.5 1644,-29.5 1644,-48.5"/>
<text text-anchor="middle" x="1587.5" y="-36.5" font-family="Helvetica,sans-Serif" font-size="10.00">StraightBlock::getId</text>
</a>
</g>
</g>
<!-- Node2 -->
<g id="Node000002" class="node">
<title>Node2</title>
<g id="a_Node000002"><a xlink:href="classGeoJsonExporter.html#ae40aed3745c83a9e089cade7067ec11a" target="_top" xlink:title="Convertit un StraightBlock en feature GeoJSON de type LineString.">
<polygon fill="white" stroke="#666666" points="1478.5,-78 1338.5,-78 1338.5,-48 1478.5,-48 1478.5,-78"/>
<text text-anchor="start" x="1346.5" y="-66" font-family="Helvetica,sans-Serif" font-size="10.00">GeoJsonExporter::convert</text>
<text text-anchor="middle" x="1408.5" y="-55" font-family="Helvetica,sans-Serif" font-size="10.00">StraightToFeature</text>
</a>
</g>
</g>
<!-- Node1&#45;&gt;Node2 -->
<g id="edge1_Node000001_Node000002" class="edge">
<title>Node1&#45;&gt;Node2</title>
<g id="a_edge1_Node000001_Node000002"><a xlink:title=" ">
<path fill="none" stroke="#63b8ff" d="M1521.05,-47.87C1507.19,-49.75 1492.52,-51.74 1478.53,-53.64"/>
<polygon fill="#63b8ff" stroke="#63b8ff" points="1521.54,-51.34 1530.98,-46.53 1520.6,-44.4 1521.54,-51.34"/>
</a>
</g>
</g>
<!-- Node11 -->
<g id="Node000011" class="node">
<title>Node11</title>
<g id="a_Node000011"><a xlink:href="classGeoJsonExporter.html#aceb585d865614f5183a3fd00dbf9a55d" target="_top" xlink:title="Construit l&#39;appel JS renderStraightBlock(id, coords) pour un bloc.">
<polygon fill="white" stroke="#666666" points="1495,-30 1322,-30 1322,0 1495,0 1495,-30"/>
<text text-anchor="start" x="1330" y="-18" font-family="Helvetica,sans-Serif" font-size="10.00">GeoJsonExporter::renderStraight</text>
<text text-anchor="middle" x="1408.5" y="-7" font-family="Helvetica,sans-Serif" font-size="10.00">Block</text>
</a>
</g>
</g>
<!-- Node1&#45;&gt;Node11 -->
<g id="edge10_Node000001_Node000011" class="edge">
<title>Node1&#45;&gt;Node11</title>
<g id="a_edge10_Node000001_Node000011"><a xlink:title=" ">
<path fill="none" stroke="#63b8ff" d="M1520.95,-30.11C1512.58,-28.98 1503.92,-27.8 1495.29,-26.63"/>
<polygon fill="#63b8ff" stroke="#63b8ff" points="1520.6,-33.6 1530.98,-31.47 1521.54,-26.66 1520.6,-33.6"/>
</a>
</g>
</g>
<!-- Node3 -->
<g id="Node000003" class="node">
<title>Node3</title>
<g id="a_Node000003"><a xlink:href="classGeoJsonExporter.html#a933abb8a4cbc84d34ced90a170d170d3" target="_top" xlink:title="Exporte la topologie ferroviaire dans un fichier GeoJSON.">
<polygon fill="white" stroke="#666666" points="1286,-115.5 1123,-115.5 1123,-96.5 1286,-96.5 1286,-115.5"/>
<text text-anchor="middle" x="1204.5" y="-103.5" font-family="Helvetica,sans-Serif" font-size="10.00">GeoJsonExporter::exportToFile</text>
</a>
</g>
</g>
<!-- Node2&#45;&gt;Node3 -->
<g id="edge2_Node000002_Node000003" class="edge">
<title>Node2&#45;&gt;Node3</title>
<g id="a_edge2_Node000002_Node000003"><a xlink:title=" ">
<path fill="none" stroke="#63b8ff" d="M1328.23,-79.87C1301.75,-85.51 1273.17,-91.6 1250.26,-96.47"/>
<polygon fill="#63b8ff" stroke="#63b8ff" points="1329.21,-83.24 1338.27,-77.74 1327.76,-76.4 1329.21,-83.24"/>
</a>
</g>
</g>
<!-- Node10 -->
<g id="Node000010" class="node">
<title>Node10</title>
<g id="a_Node000010"><a xlink:href="classGeoJsonExporter.html#a7f60c7ba7d8578832e4461fe50de931d" target="_top" xlink:title="Génère le script JavaScript d&#39;injection GeoJSON dans le WebView.">
<polygon fill="white" stroke="#666666" points="1276.5,-78 1132.5,-78 1132.5,-48 1276.5,-48 1276.5,-78"/>
<text text-anchor="start" x="1140.5" y="-66" font-family="Helvetica,sans-Serif" font-size="10.00">GeoJsonExporter::loadGeo</text>
<text text-anchor="middle" x="1204.5" y="-55" font-family="Helvetica,sans-Serif" font-size="10.00">JsonToWebView</text>
</a>
</g>
</g>
<!-- Node2&#45;&gt;Node10 -->
<g id="edge9_Node000002_Node000010" class="edge">
<title>Node2&#45;&gt;Node10</title>
<g id="a_edge9_Node000002_Node000010"><a xlink:title=" ">
<path fill="none" stroke="#63b8ff" d="M1327.88,-63C1310.98,-63 1293.26,-63 1276.71,-63"/>
<polygon fill="#63b8ff" stroke="#63b8ff" points="1328.27,-66.5 1338.27,-63 1328.27,-59.5 1328.27,-66.5"/>
</a>
</g>
</g>
<!-- Node4 -->
<g id="Node000004" class="node">
<title>Node4</title>
<g id="a_Node000004"><a xlink:href="classMainWindow.html#a4429f521642e48894e0efce5b41bd0ae" target="_top" xlink:title="Ouvre le dialogue d&#39;exportation et déclenche l&#39;export GeoJSON.">
<polygon fill="white" stroke="#666666" points="1087,-101.5 941,-101.5 941,-82.5 1087,-82.5 1087,-101.5"/>
<text text-anchor="middle" x="1014" y="-89.5" font-family="Helvetica,sans-Serif" font-size="10.00">MainWindow::onFileExport</text>
</a>
</g>
</g>
<!-- Node3&#45;&gt;Node4 -->
<g id="edge3_Node000003_Node000004" class="edge">
<title>Node3&#45;&gt;Node4</title>
<g id="a_edge3_Node000003_Node000004"><a xlink:title=" ">
<path fill="none" stroke="#63b8ff" d="M1112.74,-99.26C1104.19,-98.62 1095.6,-97.99 1087.26,-97.37"/>
<polygon fill="#63b8ff" stroke="#63b8ff" points="1112.51,-102.75 1122.74,-100 1113.03,-95.77 1112.51,-102.75"/>
</a>
</g>
</g>
<!-- Node5 -->
<g id="Node000005" class="node">
<title>Node5</title>
<g id="a_Node000005"><a xlink:href="classMainWindow.html#afbecf0f64f48c5c868168884bab52356" target="_top" xlink:title="Gère les commandes menu (WM_COMMAND).">
<polygon fill="white" stroke="#666666" points="893,-87.5 746,-87.5 746,-68.5 893,-68.5 893,-87.5"/>
<text text-anchor="middle" x="819.5" y="-75.5" font-family="Helvetica,sans-Serif" font-size="10.00">MainWindow::onCommand</text>
</a>
</g>
</g>
<!-- Node4&#45;&gt;Node5 -->
<g id="edge4_Node000004_Node000005" class="edge">
<title>Node4&#45;&gt;Node5</title>
<g id="a_edge4_Node000004_Node000005"><a xlink:title=" ">
<path fill="none" stroke="#63b8ff" d="M930.44,-86C918.03,-85.09 905.31,-84.17 893.13,-83.28"/>
<polygon fill="#63b8ff" stroke="#63b8ff" points="930.54,-89.51 940.77,-86.75 931.05,-82.53 930.54,-89.51"/>
</a>
</g>
</g>
<!-- Node6 -->
<g id="Node000006" class="node">
<title>Node6</title>
<g id="a_Node000006"><a xlink:href="classMainWindow.html#ab85682874f3ab5dfa81f782f889d8556" target="_top" xlink:title="Dispatcher principal des messages de la fenêtre.">
<polygon fill="white" stroke="#666666" points="698,-68.5 537,-68.5 537,-49.5 698,-49.5 698,-68.5"/>
<text text-anchor="middle" x="617.5" y="-56.5" font-family="Helvetica,sans-Serif" font-size="10.00">MainWindow::handleMessage</text>
</a>
</g>
</g>
<!-- Node5&#45;&gt;Node6 -->
<g id="edge5_Node000005_Node000006" class="edge">
<title>Node5&#45;&gt;Node6</title>
<g id="a_edge5_Node000005_Node000006"><a xlink:title=" ">
<path fill="none" stroke="#63b8ff" d="M735.5,-70.11C723.2,-68.95 710.54,-67.74 698.31,-66.58"/>
<polygon fill="#63b8ff" stroke="#63b8ff" points="735.44,-73.63 745.73,-71.09 736.11,-66.66 735.44,-73.63"/>
</a>
</g>
</g>
<!-- Node7 -->
<g id="Node000007" class="node">
<title>Node7</title>
<g id="a_Node000007"><a xlink:href="classMainWindow.html#a332648d0a0caec8070b05bc27bb9a14b" target="_top" xlink:title="Procédure de fenêtre statique, point d&#39;entrée imposé par Win32.">
<polygon fill="white" stroke="#666666" points="501,-68.5 358,-68.5 358,-49.5 501,-49.5 501,-68.5"/>
<text text-anchor="middle" x="429.5" y="-56.5" font-family="Helvetica,sans-Serif" font-size="10.00">MainWindow::windowProc</text>
</a>
</g>
</g>
<!-- Node6&#45;&gt;Node7 -->
<g id="edge6_Node000006_Node000007" class="edge">
<title>Node6&#45;&gt;Node7</title>
<g id="a_edge6_Node000006_Node000007"><a xlink:title=" ">
<path fill="none" stroke="#63b8ff" d="M526.77,-59C518.2,-59 509.58,-59 501.22,-59"/>
<polygon fill="#63b8ff" stroke="#63b8ff" points="526.81,-62.5 536.81,-59 526.81,-55.5 526.81,-62.5"/>
</a>
</g>
</g>
<!-- Node8 -->
<g id="Node000008" class="node">
<title>Node8</title>
<g id="a_Node000008"><a xlink:href="classApplication.html#a0bda40de108938fd29374335bf4eac71" target="_top" xlink:title="Enregistre la classe de fenêtre Win32 (WNDCLASSEXW).">
<polygon fill="white" stroke="#666666" points="322,-74 168,-74 168,-44 322,-44 322,-74"/>
<text text-anchor="start" x="176" y="-62" font-family="Helvetica,sans-Serif" font-size="10.00">Application::registerWindow</text>
<text text-anchor="middle" x="245" y="-51" font-family="Helvetica,sans-Serif" font-size="10.00">Class</text>
</a>
</g>
</g>
<!-- Node7&#45;&gt;Node8 -->
<g id="edge7_Node000007_Node000008" class="edge">
<title>Node7&#45;&gt;Node8</title>
<g id="a_edge7_Node000007_Node000008"><a xlink:title=" ">
<path fill="none" stroke="#63b8ff" d="M347.66,-59C339.17,-59 330.56,-59 322.12,-59"/>
<polygon fill="#63b8ff" stroke="#63b8ff" points="347.94,-62.5 357.94,-59 347.94,-55.5 347.94,-62.5"/>
</a>
</g>
</g>
<!-- Node9 -->
<g id="Node000009" class="node">
<title>Node9</title>
<g id="a_Node000009"><a xlink:href="classApplication.html#a719cf091afd2276d52f9a58e4962ebfb" target="_top" xlink:title="Construit l&#39;application et enregistre la classe de fenêtre.">
<polygon fill="white" stroke="#666666" points="132,-68.5 0,-68.5 0,-49.5 132,-49.5 132,-68.5"/>
<text text-anchor="middle" x="66" y="-56.5" font-family="Helvetica,sans-Serif" font-size="10.00">Application::Application</text>
</a>
</g>
</g>
<!-- Node8&#45;&gt;Node9 -->
<g id="edge8_Node000008_Node000009" class="edge">
<title>Node8&#45;&gt;Node9</title>
<g id="a_edge8_Node000008_Node000009"><a xlink:title=" ">
<path fill="none" stroke="#63b8ff" d="M157.82,-59C149.19,-59 140.53,-59 132.18,-59"/>
<polygon fill="#63b8ff" stroke="#63b8ff" points="157.91,-62.5 167.91,-59 157.91,-55.5 157.91,-62.5"/>
</a>
</g>
</g>
<!-- Node12 -->
<g id="Node000012" class="node">
<title>Node12</title>
<g id="a_Node000012"><a xlink:href="classGeoJsonExporter.html#a9e109a8b505798f99c5aa2bd6fb538a3" target="_top" xlink:title="Efface puis redessine tous les StraightBlocks.">
<polygon fill="white" stroke="#666666" points="1278.5,-30 1130.5,-30 1130.5,0 1278.5,0 1278.5,-30"/>
<text text-anchor="start" x="1138.5" y="-18" font-family="Helvetica,sans-Serif" font-size="10.00">GeoJsonExporter::renderAll</text>
<text text-anchor="middle" x="1204.5" y="-7" font-family="Helvetica,sans-Serif" font-size="10.00">StraightBlocks</text>
</a>
</g>
</g>
<!-- Node11&#45;&gt;Node12 -->
<g id="edge11_Node000011_Node000012" class="edge">
<title>Node11&#45;&gt;Node12</title>
<g id="a_edge11_Node000011_Node000012"><a xlink:title=" ">
<path fill="none" stroke="#63b8ff" d="M1311.65,-15C1300.51,-15 1289.3,-15 1278.54,-15"/>
<polygon fill="#63b8ff" stroke="#63b8ff" points="1311.83,-18.5 1321.83,-15 1311.83,-11.5 1311.83,-18.5"/>
</a>
</g>
</g>
<!-- Node13 -->
<g id="Node000013" class="node">
<title>Node13</title>
<g id="a_Node000013"><a xlink:href="classMainWindow.html#a90cae565f67d1291d690d974547041a0" target="_top" xlink:title="Gère la fin réussie du parsing (WM_PARSING_SUCCESS).">
<polygon fill="white" stroke="#666666" points="905,-50.5 734,-50.5 734,-31.5 905,-31.5 905,-50.5"/>
<text text-anchor="middle" x="819.5" y="-38.5" font-family="Helvetica,sans-Serif" font-size="10.00">MainWindow::onParsingSuccess</text>
</a>
</g>
</g>
<!-- Node12&#45;&gt;Node13 -->
<g id="edge12_Node000012_Node000013" class="edge">
<title>Node12&#45;&gt;Node13</title>
<g id="a_edge12_Node000012_Node000013"><a xlink:title=" ">
<path fill="none" stroke="#63b8ff" d="M1120.11,-20.66C1056.52,-24.98 969.27,-30.9 905.33,-35.24"/>
<polygon fill="#63b8ff" stroke="#63b8ff" points="1120.37,-24.15 1130.11,-19.98 1119.89,-17.17 1120.37,-24.15"/>
</a>
</g>
</g>
<!-- Node13&#45;&gt;Node6 -->
<g id="edge13_Node000013_Node000006" class="edge">
<title>Node13&#45;&gt;Node6</title>
<g id="a_edge13_Node000013_Node000006"><a xlink:title=" ">
<path fill="none" stroke="#63b8ff" d="M723.93,-49.51C715.35,-50.28 706.71,-51.06 698.27,-51.82"/>
<polygon fill="#63b8ff" stroke="#63b8ff" points="724.33,-52.99 733.97,-48.61 723.7,-46.02 724.33,-52.99"/>
</a>
</g>
</g>
</g>
</svg>
