<?xml version="1.0" encoding="UTF-8" standalone="no"?>
<!DOCTYPE svg PUBLIC "-//W3C//DTD SVG 1.1//EN"
 "http://www.w3.org/Graphics/SVG/1.1/DTD/svg11.dtd">
<!-- Generated by graphviz version 2.43.0 (0)
 -->
<!-- Title: InteractiveElement::getId Pages: 1 -->
<svg width="324pt" height="76pt"
 viewBox="0.00 0.00 324.00 75.50" xmlns="http://www.w3.org/2000/svg" xmlns:xlink="http://www.w3.org/1999/xlink">
<g id="graph0" class="graph" transform="scale(1 1) rotate(0) translate(4 71.5)">
<title>InteractiveElement::getId</title>
<!-- Node1 -->
<g id="Node000001" class="node">
<title>Node1</title>
<g id="a_Node000001"><a xlink:title="Retourne l&#39;identifiant unique de l&#39;élément (ex. &quot;sw/3&quot;, &quot;s/12&quot;).">
<polygon fill="#999999" stroke="#666666" points="316,-51 206,-51 206,-21 316,-21 316,-51"/>
<text text-anchor="start" x="214" y="-39" font-family="Helvetica,sans-Serif" font-size="10.00">InteractiveElement</text>
<text text-anchor="middle" x="261" y="-28" font-family="Helvetica,sans-Serif" font-size="10.00">::getId</text>
</a>
</g>
</g>
<!-- Node2 -->
<g id="Node000002" class="node">
<title>Node2</title>
<g id="a_Node000002"><a xlink:href="classSwitchBlock.html#ad175b6ec2b9f3f988eb10991f726c160" target="_top" xlink:title="Enregistre les pointeurs root/normal/deviation après parsing.">
<polygon fill="white" stroke="#666666" points="170,-67.5 0,-67.5 0,-48.5 170,-48.5 170,-67.5"/>
<text text-anchor="middle" x="85" y="-55.5" font-family="Helvetica,sans-Serif" font-size="10.00">SwitchBlock::setBranchPointers</text>
</a>
</g>
</g>
<!-- Node1&#45;&gt;Node2 -->
<g id="edge1_Node000001_Node000002" class="edge">
<title>Node1&#45;&gt;Node2</title>
<g id="a_edge1_Node000001_Node000002"><a xlink:title=" ">
<path fill="none" stroke="#63b8ff" d="M195.74,-44.13C184.48,-45.55 172.67,-47.04 161.15,-48.5"/>
<polygon fill="#63b8ff" stroke="#63b8ff" points="196.42,-47.57 205.9,-42.84 195.54,-40.62 196.42,-47.57"/>
</a>
</g>
</g>
<!-- Node3 -->
<g id="Node000003" class="node">
<title>Node3</title>
<g id="a_Node000003"><a xlink:href="classStraightBlock.html#a77cd67bf5f6e2d8b10fa845c63461c5c" target="_top" xlink:title="Enregistre les pointeurs prev/next après parsing.">
<polygon fill="white" stroke="#666666" points="161.5,-30 8.5,-30 8.5,0 161.5,0 161.5,-30"/>
<text text-anchor="start" x="16.5" y="-18" font-family="Helvetica,sans-Serif" font-size="10.00">StraightBlock::setNeighbour</text>
<text text-anchor="middle" x="85" y="-7" font-family="Helvetica,sans-Serif" font-size="10.00">Pointers</text>
</a>
</g>
</g>
<!-- Node1&#45;&gt;Node3 -->
<g id="edge2_Node000001_Node000003" class="edge">
<title>Node1&#45;&gt;Node3</title>
<g id="a_edge2_Node000001_Node000003"><a xlink:title=" ">
<path fill="none" stroke="#63b8ff" d="M195.88,-28.26C184.79,-26.92 173.16,-25.52 161.79,-24.15"/>
<polygon fill="#63b8ff" stroke="#63b8ff" points="195.55,-31.75 205.9,-29.47 196.39,-24.8 195.55,-31.75"/>
</a>
</g>
</g>
</g>
</svg>
