<?xml version="1.0" encoding="UTF-8" standalone="no"?>
<!DOCTYPE svg PUBLIC "-//W3C//DTD SVG 1.1//EN"
 "http://www.w3.org/Graphics/SVG/1.1/DTD/svg11.dtd">
<!-- Generated by graphviz version 2.43.0 (0)
 -->
<!-- Title: TopologyRenderer::loadGeoJsonToWebView Pages: 1 -->
<svg width="554pt" height="409pt"
 viewBox="0.00 0.00 554.00 408.50" xmlns="http://www.w3.org/2000/svg" xmlns:xlink="http://www.w3.org/1999/xlink">
<g id="graph0" class="graph" transform="scale(1 1) rotate(0) translate(4 404.5)">
<title>TopologyRenderer::loadGeoJsonToWebView</title>
<!-- Node1 -->
<g id="Node000001" class="node">
<title>Node1</title>
<g id="a_Node000001"><a xlink:title="Génère le script JavaScript d&#39;injection GeoJSON dans le WebView.">
<polygon fill="#999999" stroke="#666666" points="151,-144 0,-144 0,-114 151,-114 151,-144"/>
<text text-anchor="start" x="8" y="-132" font-family="Helvetica,sans-Serif" font-size="10.00">TopologyRenderer::loadGeo</text>
<text text-anchor="middle" x="75.5" y="-121" font-family="Helvetica,sans-Serif" font-size="10.00">JsonToWebView</text>
</a>
</g>
</g>
<!-- Node2 -->
<g id="Node000002" class="node">
<title>Node2</title>
<g id="a_Node000002"><a xlink:href="classTopologyRenderer.html#a39b4c82693790d5886076d62998362bc" target="_top" xlink:title="Convertit un StraightBlock en feature GeoJSON de type LineString.">
<polygon fill="white" stroke="#666666" points="334,-347 187,-347 187,-317 334,-317 334,-347"/>
<text text-anchor="start" x="195" y="-335" font-family="Helvetica,sans-Serif" font-size="10.00">TopologyRenderer::convert</text>
<text text-anchor="middle" x="260.5" y="-324" font-family="Helvetica,sans-Serif" font-size="10.00">StraightToFeature</text>
</a>
</g>
</g>
<!-- Node1&#45;&gt;Node2 -->
<g id="edge1_Node000001_Node000002" class="edge">
<title>Node1&#45;&gt;Node2</title>
<g id="a_edge1_Node000001_Node000002"><a xlink:title=" ">
<path fill="none" stroke="#63b8ff" d="M90.25,-144.26C122.19,-179.69 201.51,-267.67 239.11,-309.38"/>
<polygon fill="#63b8ff" stroke="#63b8ff" points="236.54,-311.76 245.84,-316.84 241.74,-307.07 236.54,-311.76"/>
</a>
</g>
</g>
<!-- Node6 -->
<g id="Node000006" class="node">
<title>Node6</title>
<g id="a_Node000006"><a xlink:href="classTopologyRenderer.html#ab35534539fde31c290ce7e531fce86fe" target="_top" xlink:title="Convertit un SwitchBlock en feature GeoJSON de type Point.">
<polygon fill="white" stroke="#666666" points="334,-192 187,-192 187,-162 334,-162 334,-192"/>
<text text-anchor="start" x="195" y="-180" font-family="Helvetica,sans-Serif" font-size="10.00">TopologyRenderer::convert</text>
<text text-anchor="middle" x="260.5" y="-169" font-family="Helvetica,sans-Serif" font-size="10.00">SwitchToFeature</text>
</a>
</g>
</g>
<!-- Node1&#45;&gt;Node6 -->
<g id="edge5_Node000001_Node000006" class="edge">
<title>Node1&#45;&gt;Node6</title>
<g id="a_edge5_Node000001_Node000006"><a xlink:title=" ">
<path fill="none" stroke="#63b8ff" d="M133.9,-144.06C152.47,-148.93 173.22,-154.37 192.42,-159.41"/>
<polygon fill="#63b8ff" stroke="#63b8ff" points="191.74,-162.85 202.3,-162 193.52,-156.07 191.74,-162.85"/>
</a>
</g>
</g>
<!-- Node13 -->
<g id="Node000013" class="node">
<title>Node13</title>
<g id="a_Node000013"><a xlink:href="classTopologyRepository.html#a0179f504f5d22ea5b16926511a9cb027" target="_top" xlink:title="Retourne une référence mutable aux données topologiques.">
<polygon fill="white" stroke="#666666" points="317,-144 204,-144 204,-114 317,-114 317,-144"/>
<text text-anchor="start" x="212" y="-132" font-family="Helvetica,sans-Serif" font-size="10.00">TopologyRepository</text>
<text text-anchor="middle" x="260.5" y="-121" font-family="Helvetica,sans-Serif" font-size="10.00">::data</text>
</a>
</g>
</g>
<!-- Node1&#45;&gt;Node13 -->
<g id="edge12_Node000001_Node000013" class="edge">
<title>Node1&#45;&gt;Node13</title>
<g id="a_edge12_Node000001_Node000013"><a xlink:title=" ">
<path fill="none" stroke="#63b8ff" d="M151.2,-129C165.22,-129 179.78,-129 193.51,-129"/>
<polygon fill="#63b8ff" stroke="#63b8ff" points="193.82,-132.5 203.82,-129 193.82,-125.5 193.82,-132.5"/>
</a>
</g>
</g>
<!-- Node14 -->
<g id="Node000014" class="node">
<title>Node14</title>
<g id="a_Node000014"><a xlink:href="classTopologyRenderer.html#acb79fe1282ba44552a79661c14f03083" target="_top" xlink:title="Échappe une chaîne JSON pour l&#39;injection dans JavaScript.">
<polygon fill="white" stroke="#666666" points="333,-96 188,-96 188,-66 333,-66 333,-96"/>
<text text-anchor="start" x="196" y="-84" font-family="Helvetica,sans-Serif" font-size="10.00">TopologyRenderer::escape</text>
<text text-anchor="middle" x="260.5" y="-73" font-family="Helvetica,sans-Serif" font-size="10.00">ForJavaScript</text>
</a>
</g>
</g>
<!-- Node1&#45;&gt;Node14 -->
<g id="edge13_Node000001_Node000014" class="edge">
<title>Node1&#45;&gt;Node14</title>
<g id="a_edge13_Node000001_Node000014"><a xlink:title=" ">
<path fill="none" stroke="#63b8ff" d="M133.9,-113.94C152.47,-109.07 173.22,-103.63 192.42,-98.59"/>
<polygon fill="#63b8ff" stroke="#63b8ff" points="193.52,-101.93 202.3,-96 191.74,-95.15 193.52,-101.93"/>
</a>
</g>
</g>
<!-- Node15 -->
<g id="Node000015" class="node">
<title>Node15</title>
<g id="a_Node000015"><a xlink:href="classTopologyRepository.html#adb001f817a74b4b81e05d0d22517f509" target="_top" xlink:title="Retourne l&#39;instance unique du repository (création paresseuse).">
<polygon fill="white" stroke="#666666" points="317,-30 204,-30 204,0 317,0 317,-30"/>
<text text-anchor="start" x="212" y="-18" font-family="Helvetica,sans-Serif" font-size="10.00">TopologyRepository</text>
<text text-anchor="middle" x="260.5" y="-7" font-family="Helvetica,sans-Serif" font-size="10.00">::instance</text>
</a>
</g>
</g>
<!-- Node1&#45;&gt;Node15 -->
<g id="edge14_Node000001_Node000015" class="edge">
<title>Node1&#45;&gt;Node15</title>
<g id="a_edge14_Node000001_Node000015"><a xlink:title=" ">
<path fill="none" stroke="#63b8ff" d="M99.13,-113.76C121.31,-98.93 156.18,-75.95 187,-57 198.95,-49.65 212.18,-41.88 224.04,-35.05"/>
<polygon fill="#63b8ff" stroke="#63b8ff" points="225.85,-38.04 232.79,-30.03 222.37,-31.97 225.85,-38.04"/>
</a>
</g>
</g>
<!-- Node3 -->
<g id="Node000003" class="node">
<title>Node3</title>
<g id="a_Node000003"><a xlink:href="classStraightBlock.html#a646d3135d365dcb832ff66b1304c6850" target="_top" xlink:title=" ">
<polygon fill="white" stroke="#666666" points="539,-400.5 377,-400.5 377,-381.5 539,-381.5 539,-400.5"/>
<text text-anchor="middle" x="458" y="-388.5" font-family="Helvetica,sans-Serif" font-size="10.00">StraightBlock::getCoordinates</text>
</a>
</g>
</g>
<!-- Node2&#45;&gt;Node3 -->
<g id="edge2_Node000002_Node000003" class="edge">
<title>Node2&#45;&gt;Node3</title>
<g id="a_edge2_Node000002_Node000003"><a xlink:title=" ">
<path fill="none" stroke="#63b8ff" d="M297.19,-347.11C318.12,-355.56 345.25,-365.81 370,-373 377.79,-375.26 386.06,-377.36 394.27,-379.25"/>
<polygon fill="#63b8ff" stroke="#63b8ff" points="393.7,-382.71 404.23,-381.47 395.22,-375.88 393.7,-382.71"/>
</a>
</g>
</g>
<!-- Node4 -->
<g id="Node000004" class="node">
<title>Node4</title>
<g id="a_Node000004"><a xlink:href="classStraightBlock.html#a295060fddd0675834ce4755ae4787780" target="_top" xlink:title="Retourne l&#39;identifiant unique de l&#39;élément (ex. &quot;sw/3&quot;, &quot;s/12&quot;).">
<polygon fill="white" stroke="#666666" points="514.5,-363.5 401.5,-363.5 401.5,-344.5 514.5,-344.5 514.5,-363.5"/>
<text text-anchor="middle" x="458" y="-351.5" font-family="Helvetica,sans-Serif" font-size="10.00">StraightBlock::getId</text>
</a>
</g>
</g>
<!-- Node2&#45;&gt;Node4 -->
<g id="edge3_Node000002_Node000004" class="edge">
<title>Node2&#45;&gt;Node4</title>
<g id="a_edge3_Node000002_Node000004"><a xlink:title=" ">
<path fill="none" stroke="#63b8ff" d="M334.02,-340.16C352.82,-342.28 372.95,-344.54 391.37,-346.61"/>
<polygon fill="#63b8ff" stroke="#63b8ff" points="391.08,-350.1 401.41,-347.74 391.86,-343.15 391.08,-350.1"/>
</a>
</g>
</g>
<!-- Node5 -->
<g id="Node000005" class="node">
<title>Node5</title>
<g id="a_Node000005"><a xlink:href="classStraightBlock.html#aebdce1e1b66d6b39376ae1a66c2d2d9e" target="_top" xlink:title=" ">
<polygon fill="white" stroke="#666666" points="526.5,-326 389.5,-326 389.5,-296 526.5,-296 526.5,-326"/>
<text text-anchor="start" x="397.5" y="-314" font-family="Helvetica,sans-Serif" font-size="10.00">StraightBlock::getLength</text>
<text text-anchor="middle" x="458" y="-303" font-family="Helvetica,sans-Serif" font-size="10.00">Meters</text>
</a>
</g>
</g>
<!-- Node2&#45;&gt;Node5 -->
<g id="edge4_Node000002_Node000005" class="edge">
<title>Node2&#45;&gt;Node5</title>
<g id="a_edge4_Node000002_Node000005"><a xlink:title=" ">
<path fill="none" stroke="#63b8ff" d="M334.02,-324.21C348.76,-322.63 364.33,-320.95 379.25,-319.35"/>
<polygon fill="#63b8ff" stroke="#63b8ff" points="379.89,-322.8 389.45,-318.26 379.14,-315.84 379.89,-322.8"/>
</a>
</g>
</g>
<!-- Node7 -->
<g id="Node000007" class="node">
<title>Node7</title>
<g id="a_Node000007"><a xlink:href="classSwitchBlock.html#a6ed34ef4ccea6e43e2c0d456f5eb29c0" target="_top" xlink:title=" ">
<polygon fill="white" stroke="#666666" points="530.5,-278 385.5,-278 385.5,-248 530.5,-248 530.5,-278"/>
<text text-anchor="start" x="393.5" y="-266" font-family="Helvetica,sans-Serif" font-size="10.00">SwitchBlock::getDeviation</text>
<text text-anchor="middle" x="458" y="-255" font-family="Helvetica,sans-Serif" font-size="10.00">BranchId</text>
</a>
</g>
</g>
<!-- Node6&#45;&gt;Node7 -->
<g id="edge6_Node000006_Node000007" class="edge">
<title>Node6&#45;&gt;Node7</title>
<g id="a_edge6_Node000006_Node000007"><a xlink:title=" ">
<path fill="none" stroke="#63b8ff" d="M283.93,-192.04C305.3,-205.82 338.75,-226 370,-239 374.97,-241.07 380.18,-243.01 385.47,-244.83"/>
<polygon fill="#63b8ff" stroke="#63b8ff" points="384.44,-248.18 395.04,-247.97 386.62,-241.53 384.44,-248.18"/>
</a>
</g>
</g>
<!-- Node8 -->
<g id="Node000008" class="node">
<title>Node8</title>
<g id="a_Node000008"><a xlink:href="classSwitchBlock.html#adbf269599ac24cd670976368ae00b39f" target="_top" xlink:title="Retourne l&#39;identifiant unique de l&#39;élément (ex. &quot;sw/3&quot;, &quot;s/12&quot;).">
<polygon fill="white" stroke="#666666" points="511.5,-229.5 404.5,-229.5 404.5,-210.5 511.5,-210.5 511.5,-229.5"/>
<text text-anchor="middle" x="458" y="-217.5" font-family="Helvetica,sans-Serif" font-size="10.00">SwitchBlock::getId</text>
</a>
</g>
</g>
<!-- Node6&#45;&gt;Node8 -->
<g id="edge7_Node000006_Node000008" class="edge">
<title>Node6&#45;&gt;Node8</title>
<g id="a_edge7_Node000006_Node000008"><a xlink:title=" ">
<path fill="none" stroke="#63b8ff" d="M329.21,-192.01C342.72,-194.99 356.81,-198.1 370,-201 380.75,-203.36 392.25,-205.88 403.25,-208.29"/>
<polygon fill="#63b8ff" stroke="#63b8ff" points="402.67,-211.74 413.18,-210.45 404.16,-204.9 402.67,-211.74"/>
</a>
</g>
</g>
<!-- Node9 -->
<g id="Node000009" class="node">
<title>Node9</title>
<g id="a_Node000009"><a xlink:href="classSwitchBlock.html#a17420e8225a0637a6d38b73bee7d2526" target="_top" xlink:title=" ">
<polygon fill="white" stroke="#666666" points="526.5,-192 389.5,-192 389.5,-162 526.5,-162 526.5,-192"/>
<text text-anchor="start" x="397.5" y="-180" font-family="Helvetica,sans-Serif" font-size="10.00">SwitchBlock::getJunction</text>
<text text-anchor="middle" x="458" y="-169" font-family="Helvetica,sans-Serif" font-size="10.00">Coordinate</text>
</a>
</g>
</g>
<!-- Node6&#45;&gt;Node9 -->
<g id="edge8_Node000006_Node000009" class="edge">
<title>Node6&#45;&gt;Node9</title>
<g id="a_edge8_Node000006_Node000009"><a xlink:title=" ">
<path fill="none" stroke="#63b8ff" d="M334.02,-177C348.76,-177 364.33,-177 379.25,-177"/>
<polygon fill="#63b8ff" stroke="#63b8ff" points="379.45,-180.5 389.45,-177 379.45,-173.5 379.45,-180.5"/>
</a>
</g>
</g>
<!-- Node10 -->
<g id="Node000010" class="node">
<title>Node10</title>
<g id="a_Node000010"><a xlink:href="classSwitchBlock.html#a6838d033ec39e85a94c98a9559fcc532" target="_top" xlink:title=" ">
<polygon fill="white" stroke="#666666" points="546,-143.5 370,-143.5 370,-124.5 546,-124.5 546,-143.5"/>
<text text-anchor="middle" x="458" y="-131.5" font-family="Helvetica,sans-Serif" font-size="10.00">SwitchBlock::getNormalBranchId</text>
</a>
</g>
</g>
<!-- Node6&#45;&gt;Node10 -->
<g id="edge9_Node000006_Node000010" class="edge">
<title>Node6&#45;&gt;Node10</title>
<g id="a_edge9_Node000006_Node000010"><a xlink:title=" ">
<path fill="none" stroke="#63b8ff" d="M329.21,-161.99C342.72,-159.01 356.81,-155.9 370,-153 380.75,-150.64 392.25,-148.12 403.25,-145.71"/>
<polygon fill="#63b8ff" stroke="#63b8ff" points="404.16,-149.1 413.18,-143.55 402.67,-142.26 404.16,-149.1"/>
</a>
</g>
</g>
<!-- Node11 -->
<g id="Node000011" class="node">
<title>Node11</title>
<g id="a_Node000011"><a xlink:href="classSwitchBlock.html#a55d04c13a5fba252ba2b840f6835a2a4" target="_top" xlink:title=" ">
<polygon fill="white" stroke="#666666" points="539.5,-106.5 376.5,-106.5 376.5,-87.5 539.5,-87.5 539.5,-106.5"/>
<text text-anchor="middle" x="458" y="-94.5" font-family="Helvetica,sans-Serif" font-size="10.00">SwitchBlock::getRootBranchId</text>
</a>
</g>
</g>
<!-- Node6&#45;&gt;Node11 -->
<g id="edge10_Node000006_Node000011" class="edge">
<title>Node6&#45;&gt;Node11</title>
<g id="a_edge10_Node000006_Node000011"><a xlink:title=" ">
<path fill="none" stroke="#63b8ff" d="M316.63,-161.9C322.69,-159.33 328.61,-156.38 334,-153 353.45,-140.82 349.94,-127.14 370,-116 374.17,-113.68 378.6,-111.65 383.17,-109.86"/>
<polygon fill="#63b8ff" stroke="#63b8ff" points="384.41,-113.13 392.7,-106.53 382.1,-106.53 384.41,-113.13"/>
</a>
</g>
</g>
<!-- Node12 -->
<g id="Node000012" class="node">
<title>Node12</title>
<g id="a_Node000012"><a xlink:href="classSwitchBlock.html#a13b991ec872f7ace3af3e00db8b12e3e" target="_top" xlink:title=" ">
<polygon fill="white" stroke="#666666" points="520.5,-69.5 395.5,-69.5 395.5,-50.5 520.5,-50.5 520.5,-69.5"/>
<text text-anchor="middle" x="458" y="-57.5" font-family="Helvetica,sans-Serif" font-size="10.00">SwitchBlock::isDouble</text>
</a>
</g>
</g>
<!-- Node6&#45;&gt;Node12 -->
<g id="edge11_Node000006_Node000012" class="edge">
<title>Node6&#45;&gt;Node12</title>
<g id="a_edge11_Node000006_Node000012"><a xlink:title=" ">
<path fill="none" stroke="#63b8ff" d="M321.1,-161.86C325.74,-159.35 330.12,-156.42 334,-153 361.76,-128.58 340.87,-100.78 370,-78 374.75,-74.29 380.07,-71.29 385.69,-68.87"/>
<polygon fill="#63b8ff" stroke="#63b8ff" points="387.18,-72.06 395.37,-65.33 384.77,-65.48 387.18,-72.06"/>
</a>
</g>
</g>
<!-- Node15&#45;&gt;Node15 -->
<g id="edge15_Node000015_Node000015" class="edge">
<title>Node15&#45;&gt;Node15</title>
<g id="a_edge15_Node000015_Node000015"><a xlink:title=" ">
<path fill="none" stroke="#63b8ff" d="M228.16,-30.28C220.97,-39.41 231.75,-48 260.5,-48 277.57,-48 288.31,-44.97 292.71,-40.6"/>
<polygon fill="#63b8ff" stroke="#63b8ff" points="296.21,-40.32 292.84,-30.28 289.21,-40.23 296.21,-40.32"/>
</a>
</g>
</g>
</g>
</svg>
