<?xml version="1.0" encoding="UTF-8" standalone="no"?>
<!DOCTYPE svg PUBLIC "-//W3C//DTD SVG 1.1//EN"
 "http://www.w3.org/Graphics/SVG/1.1/DTD/svg11.dtd">
<!-- Generated by graphviz version 2.43.0 (0)
 -->
<!-- Title: GeometryUtils::convertPolylineToWgs84 Pages: 1 -->
<svg width="1941pt" height="134pt"
 viewBox="0.00 0.00 1941.00 134.00" xmlns="http://www.w3.org/2000/svg" xmlns:xlink="http://www.w3.org/1999/xlink">
<g id="graph0" class="graph" transform="scale(1 1) rotate(0) translate(4 130)">
<title>GeometryUtils::convertPolylineToWgs84</title>
<!-- Node1 -->
<g id="Node000001" class="node">
<title>Node1</title>
<g id="a_Node000001"><a xlink:title="Convertit une polyligne métrique UTM en WGS&#45;84.">
<polygon fill="#999999" stroke="#666666" points="1933,-78 1763,-78 1763,-48 1933,-48 1933,-78"/>
<text text-anchor="start" x="1771" y="-66" font-family="Helvetica,sans-Serif" font-size="10.00">GeometryUtils::convertPolyline</text>
<text text-anchor="middle" x="1848" y="-55" font-family="Helvetica,sans-Serif" font-size="10.00">ToWgs84</text>
</a>
</g>
</g>
<!-- Node2 -->
<g id="Node000002" class="node">
<title>Node2</title>
<g id="a_Node000002"><a xlink:href="classTopologyExtractor.html#a8003022ac7f09c074969ec22d3305429" target="_top" xlink:title=" ">
<polygon fill="white" stroke="#666666" points="1700.5,-126 1590.5,-126 1590.5,-96 1700.5,-96 1700.5,-126"/>
<text text-anchor="start" x="1598.5" y="-114" font-family="Helvetica,sans-Serif" font-size="10.00">TopologyExtractor::</text>
<text text-anchor="middle" x="1645.5" y="-103" font-family="Helvetica,sans-Serif" font-size="10.00">extractStraights</text>
</a>
</g>
</g>
<!-- Node1&#45;&gt;Node2 -->
<g id="edge1_Node000001_Node000002" class="edge">
<title>Node1&#45;&gt;Node2</title>
<g id="a_edge1_Node000001_Node000002"><a xlink:title=" ">
<path fill="none" stroke="#63b8ff" d="M1774.22,-80.42C1749.94,-86.24 1723.33,-92.61 1700.72,-98.02"/>
<polygon fill="#63b8ff" stroke="#63b8ff" points="1775.2,-83.79 1784.11,-78.06 1773.57,-76.98 1775.2,-83.79"/>
</a>
</g>
</g>
<!-- Node12 -->
<g id="Node000012" class="node">
<title>Node12</title>
<g id="a_Node000012"><a xlink:href="classTopologyExtractor.html#a8fe29fd6ba117f652d0e545869a99c61" target="_top" xlink:title=" ">
<polygon fill="white" stroke="#666666" points="1700.5,-78 1590.5,-78 1590.5,-48 1700.5,-48 1700.5,-78"/>
<text text-anchor="start" x="1598.5" y="-66" font-family="Helvetica,sans-Serif" font-size="10.00">TopologyExtractor::</text>
<text text-anchor="middle" x="1645.5" y="-55" font-family="Helvetica,sans-Serif" font-size="10.00">splitLongStraights</text>
</a>
</g>
</g>
<!-- Node1&#45;&gt;Node12 -->
<g id="edge11_Node000001_Node000012" class="edge">
<title>Node1&#45;&gt;Node12</title>
<g id="a_edge11_Node000001_Node000012"><a xlink:title=" ">
<path fill="none" stroke="#63b8ff" d="M1752.44,-63C1734.7,-63 1716.73,-63 1700.74,-63"/>
<polygon fill="#63b8ff" stroke="#63b8ff" points="1752.84,-66.5 1762.84,-63 1752.84,-59.5 1752.84,-66.5"/>
</a>
</g>
</g>
<!-- Node13 -->
<g id="Node000013" class="node">
<title>Node13</title>
<g id="a_Node000013"><a xlink:href="classSwitchOrientator.html#ac80814892c9baea379f2b4e9f22b966e" target="_top" xlink:title="Retaille chaque StraightBlock adjacent à une jonction pour qu&#39;il commence (ou se termine) exactement ...">
<polygon fill="white" stroke="#666666" points="1727,-30 1564,-30 1564,0 1727,0 1727,-30"/>
<text text-anchor="start" x="1572" y="-18" font-family="Helvetica,sans-Serif" font-size="10.00">SwitchOrientator::trimStraight</text>
<text text-anchor="middle" x="1645.5" y="-7" font-family="Helvetica,sans-Serif" font-size="10.00">Overlaps</text>
</a>
</g>
</g>
<!-- Node1&#45;&gt;Node13 -->
<g id="edge13_Node000001_Node000013" class="edge">
<title>Node1&#45;&gt;Node13</title>
<g id="a_edge13_Node000001_Node000013"><a xlink:title=" ">
<path fill="none" stroke="#63b8ff" d="M1774.14,-45.56C1752.85,-40.46 1729.77,-34.93 1709.17,-30"/>
<polygon fill="#63b8ff" stroke="#63b8ff" points="1773.57,-49.02 1784.11,-47.94 1775.2,-42.21 1773.57,-49.02"/>
</a>
</g>
</g>
<!-- Node3 -->
<g id="Node000003" class="node">
<title>Node3</title>
<g id="a_Node000003"><a xlink:href="classTopologyExtractor.html#a356459ec218bf270f643460da781bd0d" target="_top" xlink:title="Exécute les phases 3, 4, 5a et 5b et retourne le résultat.">
<polygon fill="white" stroke="#666666" points="1516.5,-78 1406.5,-78 1406.5,-48 1516.5,-48 1516.5,-78"/>
<text text-anchor="start" x="1414.5" y="-66" font-family="Helvetica,sans-Serif" font-size="10.00">TopologyExtractor::</text>
<text text-anchor="middle" x="1461.5" y="-55" font-family="Helvetica,sans-Serif" font-size="10.00">extract</text>
</a>
</g>
</g>
<!-- Node2&#45;&gt;Node3 -->
<g id="edge2_Node000002_Node000003" class="edge">
<title>Node2&#45;&gt;Node3</title>
<g id="a_edge2_Node000002_Node000003"><a xlink:title=" ">
<path fill="none" stroke="#63b8ff" d="M1580.65,-94.16C1559.78,-88.66 1536.81,-82.6 1516.72,-77.3"/>
<polygon fill="#63b8ff" stroke="#63b8ff" points="1579.82,-97.56 1590.39,-96.73 1581.61,-90.79 1579.82,-97.56"/>
</a>
</g>
</g>
<!-- Node4 -->
<g id="Node000004" class="node">
<title>Node4</title>
<g id="a_Node000004"><a xlink:href="classGeoParser.html#aa4acc69a49444b9aa06b2c028b2c1133" target="_top" xlink:title="Lance le pipeline complet.">
<polygon fill="white" stroke="#666666" points="1359,-48.5 1260,-48.5 1260,-29.5 1359,-29.5 1359,-48.5"/>
<text text-anchor="middle" x="1309.5" y="-36.5" font-family="Helvetica,sans-Serif" font-size="10.00">GeoParser::parse</text>
</a>
</g>
</g>
<!-- Node3&#45;&gt;Node4 -->
<g id="edge3_Node000003_Node000004" class="edge">
<title>Node3&#45;&gt;Node4</title>
<g id="a_edge3_Node000003_Node000004"><a xlink:title=" ">
<path fill="none" stroke="#63b8ff" d="M1396.43,-52.75C1383.92,-50.75 1371,-48.68 1359.1,-46.78"/>
<polygon fill="#63b8ff" stroke="#63b8ff" points="1395.92,-56.21 1406.35,-54.34 1397.03,-49.3 1395.92,-56.21"/>
</a>
</g>
</g>
<!-- Node5 -->
<g id="Node000005" class="node">
<title>Node5</title>
<g id="a_Node000005"><a xlink:href="classGeoParsingTask.html#affe9d461e96e029708ced380b63da972" target="_top" xlink:title="Lance le parsing GeoJSON dans un thread séparé et détaché.">
<polygon fill="white" stroke="#666666" points="1224,-48.5 1093,-48.5 1093,-29.5 1224,-29.5 1224,-48.5"/>
<text text-anchor="middle" x="1158.5" y="-36.5" font-family="Helvetica,sans-Serif" font-size="10.00">GeoParsingTask::launch</text>
</a>
</g>
</g>
<!-- Node4&#45;&gt;Node5 -->
<g id="edge4_Node000004_Node000005" class="edge">
<title>Node4&#45;&gt;Node5</title>
<g id="a_edge4_Node000004_Node000005"><a xlink:title=" ">
<path fill="none" stroke="#63b8ff" d="M1249.65,-39C1241.27,-39 1232.6,-39 1224.12,-39"/>
<polygon fill="#63b8ff" stroke="#63b8ff" points="1249.71,-42.5 1259.71,-39 1249.71,-35.5 1249.71,-42.5"/>
</a>
</g>
</g>
<!-- Node6 -->
<g id="Node000006" class="node">
<title>Node6</title>
<g id="a_Node000006"><a xlink:href="classMainWindow.html#a889cc45fb741e12015f4af9f01acaa96" target="_top" xlink:title="Ouvre le sélecteur de fichier et lance le parsing asynchrone.">
<polygon fill="white" stroke="#666666" points="1057,-48.5 917,-48.5 917,-29.5 1057,-29.5 1057,-48.5"/>
<text text-anchor="middle" x="987" y="-36.5" font-family="Helvetica,sans-Serif" font-size="10.00">MainWindow::onFileOpen</text>
</a>
</g>
</g>
<!-- Node5&#45;&gt;Node6 -->
<g id="edge5_Node000005_Node000006" class="edge">
<title>Node5&#45;&gt;Node6</title>
<g id="a_edge5_Node000005_Node000006"><a xlink:title=" ">
<path fill="none" stroke="#63b8ff" d="M1082.68,-39C1074.2,-39 1065.59,-39 1057.18,-39"/>
<polygon fill="#63b8ff" stroke="#63b8ff" points="1082.94,-42.5 1092.94,-39 1082.94,-35.5 1082.94,-42.5"/>
</a>
</g>
</g>
<!-- Node7 -->
<g id="Node000007" class="node">
<title>Node7</title>
<g id="a_Node000007"><a xlink:href="classMainWindow.html#afbecf0f64f48c5c868168884bab52356" target="_top" xlink:title="Gère les commandes menu (WM_COMMAND).">
<polygon fill="white" stroke="#666666" points="881,-48.5 734,-48.5 734,-29.5 881,-29.5 881,-48.5"/>
<text text-anchor="middle" x="807.5" y="-36.5" font-family="Helvetica,sans-Serif" font-size="10.00">MainWindow::onCommand</text>
</a>
</g>
</g>
<!-- Node6&#45;&gt;Node7 -->
<g id="edge6_Node000006_Node000007" class="edge">
<title>Node6&#45;&gt;Node7</title>
<g id="a_edge6_Node000006_Node000007"><a xlink:title=" ">
<path fill="none" stroke="#63b8ff" d="M906.64,-39C898.19,-39 889.62,-39 881.26,-39"/>
<polygon fill="#63b8ff" stroke="#63b8ff" points="906.87,-42.5 916.87,-39 906.87,-35.5 906.87,-42.5"/>
</a>
</g>
</g>
<!-- Node8 -->
<g id="Node000008" class="node">
<title>Node8</title>
<g id="a_Node000008"><a xlink:href="classMainWindow.html#ab85682874f3ab5dfa81f782f889d8556" target="_top" xlink:title="Dispatcher principal des messages de la fenêtre.">
<polygon fill="white" stroke="#666666" points="698,-48.5 537,-48.5 537,-29.5 698,-29.5 698,-48.5"/>
<text text-anchor="middle" x="617.5" y="-36.5" font-family="Helvetica,sans-Serif" font-size="10.00">MainWindow::handleMessage</text>
</a>
</g>
</g>
<!-- Node7&#45;&gt;Node8 -->
<g id="edge7_Node000007_Node000008" class="edge">
<title>Node7&#45;&gt;Node8</title>
<g id="a_edge7_Node000007_Node000008"><a xlink:title=" ">
<path fill="none" stroke="#63b8ff" d="M723.59,-39C715.15,-39 706.58,-39 698.17,-39"/>
<polygon fill="#63b8ff" stroke="#63b8ff" points="723.81,-42.5 733.81,-39 723.81,-35.5 723.81,-42.5"/>
</a>
</g>
</g>
<!-- Node9 -->
<g id="Node000009" class="node">
<title>Node9</title>
<g id="a_Node000009"><a xlink:href="classMainWindow.html#a332648d0a0caec8070b05bc27bb9a14b" target="_top" xlink:title="Procédure de fenêtre statique, point d&#39;entrée imposé par Win32.">
<polygon fill="white" stroke="#666666" points="501,-48.5 358,-48.5 358,-29.5 501,-29.5 501,-48.5"/>
<text text-anchor="middle" x="429.5" y="-36.5" font-family="Helvetica,sans-Serif" font-size="10.00">MainWindow::windowProc</text>
</a>
</g>
</g>
<!-- Node8&#45;&gt;Node9 -->
<g id="edge8_Node000008_Node000009" class="edge">
<title>Node8&#45;&gt;Node9</title>
<g id="a_edge8_Node000008_Node000009"><a xlink:title=" ">
<path fill="none" stroke="#63b8ff" d="M526.77,-39C518.2,-39 509.58,-39 501.22,-39"/>
<polygon fill="#63b8ff" stroke="#63b8ff" points="526.81,-42.5 536.81,-39 526.81,-35.5 526.81,-42.5"/>
</a>
</g>
</g>
<!-- Node10 -->
<g id="Node000010" class="node">
<title>Node10</title>
<g id="a_Node000010"><a xlink:href="classApplication.html#a0bda40de108938fd29374335bf4eac71" target="_top" xlink:title="Enregistre la classe de fenêtre Win32 (WNDCLASSEXW).">
<polygon fill="white" stroke="#666666" points="322,-54 168,-54 168,-24 322,-24 322,-54"/>
<text text-anchor="start" x="176" y="-42" font-family="Helvetica,sans-Serif" font-size="10.00">Application::registerWindow</text>
<text text-anchor="middle" x="245" y="-31" font-family="Helvetica,sans-Serif" font-size="10.00">Class</text>
</a>
</g>
</g>
<!-- Node9&#45;&gt;Node10 -->
<g id="edge9_Node000009_Node000010" class="edge">
<title>Node9&#45;&gt;Node10</title>
<g id="a_edge9_Node000009_Node000010"><a xlink:title=" ">
<path fill="none" stroke="#63b8ff" d="M347.66,-39C339.17,-39 330.56,-39 322.12,-39"/>
<polygon fill="#63b8ff" stroke="#63b8ff" points="347.94,-42.5 357.94,-39 347.94,-35.5 347.94,-42.5"/>
</a>
</g>
</g>
<!-- Node11 -->
<g id="Node000011" class="node">
<title>Node11</title>
<g id="a_Node000011"><a xlink:href="classApplication.html#a719cf091afd2276d52f9a58e4962ebfb" target="_top" xlink:title="Construit l&#39;application et enregistre la classe de fenêtre.">
<polygon fill="white" stroke="#666666" points="132,-48.5 0,-48.5 0,-29.5 132,-29.5 132,-48.5"/>
<text text-anchor="middle" x="66" y="-36.5" font-family="Helvetica,sans-Serif" font-size="10.00">Application::Application</text>
</a>
</g>
</g>
<!-- Node10&#45;&gt;Node11 -->
<g id="edge10_Node000010_Node000011" class="edge">
<title>Node10&#45;&gt;Node11</title>
<g id="a_edge10_Node000010_Node000011"><a xlink:title=" ">
<path fill="none" stroke="#63b8ff" d="M157.82,-39C149.19,-39 140.53,-39 132.18,-39"/>
<polygon fill="#63b8ff" stroke="#63b8ff" points="157.91,-42.5 167.91,-39 157.91,-35.5 157.91,-42.5"/>
</a>
</g>
</g>
<!-- Node12&#45;&gt;Node3 -->
<g id="edge12_Node000012_Node000003" class="edge">
<title>Node12&#45;&gt;Node3</title>
<g id="a_edge12_Node000012_Node000003"><a xlink:title=" ">
<path fill="none" stroke="#63b8ff" d="M1580.37,-63C1559.57,-63 1536.72,-63 1516.72,-63"/>
<polygon fill="#63b8ff" stroke="#63b8ff" points="1580.39,-66.5 1590.39,-63 1580.39,-59.5 1580.39,-66.5"/>
</a>
</g>
</g>
<!-- Node14 -->
<g id="Node000014" class="node">
<title>Node14</title>
<g id="a_Node000014"><a xlink:href="classSwitchOrientator.html#a5af1a097baad421ce01bd013be602df7" target="_top" xlink:title="Exécute les phases 6, 6b, 6c et 6d en place sur topoResult.">
<polygon fill="white" stroke="#666666" points="1528,-27.5 1395,-27.5 1395,-8.5 1528,-8.5 1528,-27.5"/>
<text text-anchor="middle" x="1461.5" y="-15.5" font-family="Helvetica,sans-Serif" font-size="10.00">SwitchOrientator::orient</text>
</a>
</g>
</g>
<!-- Node13&#45;&gt;Node14 -->
<g id="edge14_Node000013_Node000014" class="edge">
<title>Node13&#45;&gt;Node14</title>
<g id="a_edge14_Node000013_Node000014"><a xlink:title=" ">
<path fill="none" stroke="#63b8ff" d="M1553.73,-16.5C1545.07,-16.64 1536.41,-16.78 1528.05,-16.92"/>
<polygon fill="#63b8ff" stroke="#63b8ff" points="1553.94,-19.99 1563.88,-16.33 1553.82,-12.99 1553.94,-19.99"/>
</a>
</g>
</g>
<!-- Node14&#45;&gt;Node4 -->
<g id="edge15_Node000014_Node000004" class="edge">
<title>Node14&#45;&gt;Node4</title>
<g id="a_edge15_Node000014_Node000004"><a xlink:title=" ">
<path fill="none" stroke="#63b8ff" d="M1384.56,-28.63C1375.91,-29.84 1367.27,-31.05 1359.1,-32.2"/>
<polygon fill="#63b8ff" stroke="#63b8ff" points="1385.29,-32.06 1394.71,-27.21 1384.32,-25.13 1385.29,-32.06"/>
</a>
</g>
</g>
</g>
</svg>
