<?xml version="1.0" encoding="UTF-8" standalone="no"?>
<!DOCTYPE svg PUBLIC "-//W3C//DTD SVG 1.1//EN"
 "http://www.w3.org/Graphics/SVG/1.1/DTD/svg11.dtd">
<!-- Generated by graphviz version 2.43.0 (0)
 -->
<!-- Title: SwitchBlock::getJunctionCoordinate Pages: 1 -->
<svg width="1997pt" height="230pt"
 viewBox="0.00 0.00 1997.00 230.00" xmlns="http://www.w3.org/2000/svg" xmlns:xlink="http://www.w3.org/1999/xlink">
<g id="graph0" class="graph" transform="scale(1 1) rotate(0) translate(4 226)">
<title>SwitchBlock::getJunctionCoordinate</title>
<!-- Node1 -->
<g id="Node000001" class="node">
<title>Node1</title>
<g id="a_Node000001"><a xlink:title=" ">
<polygon fill="#999999" stroke="#666666" points="1989,-126 1852,-126 1852,-96 1989,-96 1989,-126"/>
<text text-anchor="start" x="1860" y="-114" font-family="Helvetica,sans-Serif" font-size="10.00">SwitchBlock::getJunction</text>
<text text-anchor="middle" x="1920.5" y="-103" font-family="Helvetica,sans-Serif" font-size="10.00">Coordinate</text>
</a>
</g>
</g>
<!-- Node2 -->
<g id="Node000002" class="node">
<title>Node2</title>
<g id="a_Node000002"><a xlink:href="classSwitchOrientator.html#a8132fa3495845481fdb68a3ec695af15" target="_top" xlink:title="Calcule et assigne les points tip CDC sur un SwitchBlock orienté.">
<polygon fill="white" stroke="#666666" points="1816,-222 1669,-222 1669,-192 1816,-192 1816,-222"/>
<text text-anchor="start" x="1677" y="-210" font-family="Helvetica,sans-Serif" font-size="10.00">SwitchOrientator::compute</text>
<text text-anchor="middle" x="1742.5" y="-199" font-family="Helvetica,sans-Serif" font-size="10.00">BranchTipPoints</text>
</a>
</g>
</g>
<!-- Node1&#45;&gt;Node2 -->
<g id="edge1_Node000001_Node000002" class="edge">
<title>Node1&#45;&gt;Node2</title>
<g id="a_edge1_Node000001_Node000002"><a xlink:title=" ">
<path fill="none" stroke="#63b8ff" d="M1893.01,-132.64C1872.86,-148.28 1843.92,-169.04 1816,-183 1809.48,-186.26 1802.41,-189.23 1795.34,-191.88"/>
<polygon fill="#63b8ff" stroke="#63b8ff" points="1895.39,-135.22 1901.08,-126.28 1891.06,-129.72 1895.39,-135.22"/>
</a>
</g>
</g>
<!-- Node12 -->
<g id="Node000012" class="node">
<title>Node12</title>
<g id="a_Node000012"><a xlink:href="classTopologyRenderer.html#ab35534539fde31c290ce7e531fce86fe" target="_top" xlink:title="Convertit un SwitchBlock en feature GeoJSON de type Point.">
<polygon fill="white" stroke="#666666" points="1816,-126 1669,-126 1669,-96 1816,-96 1816,-126"/>
<text text-anchor="start" x="1677" y="-114" font-family="Helvetica,sans-Serif" font-size="10.00">TopologyRenderer::convert</text>
<text text-anchor="middle" x="1742.5" y="-103" font-family="Helvetica,sans-Serif" font-size="10.00">SwitchToFeature</text>
</a>
</g>
</g>
<!-- Node1&#45;&gt;Node12 -->
<g id="edge11_Node000001_Node000012" class="edge">
<title>Node1&#45;&gt;Node12</title>
<g id="a_edge11_Node000001_Node000012"><a xlink:title=" ">
<path fill="none" stroke="#63b8ff" d="M1841.68,-111C1833.18,-111 1824.56,-111 1816.13,-111"/>
<polygon fill="#63b8ff" stroke="#63b8ff" points="1841.96,-114.5 1851.96,-111 1841.96,-107.5 1841.96,-114.5"/>
</a>
</g>
</g>
<!-- Node16 -->
<g id="Node000016" class="node">
<title>Node16</title>
<g id="a_Node000016"><a xlink:href="classSwitchOrientator.html#a0ed66205a222764fb0ad914425ba0f6e" target="_top" xlink:title="Oriente un SwitchBlock à 3 branches en place.">
<polygon fill="white" stroke="#666666" points="1809,-174 1676,-174 1676,-144 1809,-144 1809,-174"/>
<text text-anchor="start" x="1684" y="-162" font-family="Helvetica,sans-Serif" font-size="10.00">SwitchOrientator::orient</text>
<text text-anchor="middle" x="1742.5" y="-151" font-family="Helvetica,sans-Serif" font-size="10.00">ThreePortSwitch</text>
</a>
</g>
</g>
<!-- Node1&#45;&gt;Node16 -->
<g id="edge16_Node000001_Node000016" class="edge">
<title>Node1&#45;&gt;Node16</title>
<g id="a_edge16_Node000001_Node000016"><a xlink:title=" ">
<path fill="none" stroke="#63b8ff" d="M1854.53,-128.72C1836.12,-133.74 1816.27,-139.15 1798.51,-144"/>
<polygon fill="#63b8ff" stroke="#63b8ff" points="1855.57,-132.06 1864.3,-126.06 1853.73,-125.31 1855.57,-132.06"/>
</a>
</g>
</g>
<!-- Node17 -->
<g id="Node000017" class="node">
<title>Node17</title>
<g id="a_Node000017"><a xlink:href="classTopologyRenderer.html#a1641df30af7ec14097c50b8cfc4a9824" target="_top" xlink:title="Construit l&#39;appel JS renderSwitch(id, lat, lon, isDouble).">
<polygon fill="white" stroke="#666666" points="1813.5,-78 1671.5,-78 1671.5,-48 1813.5,-48 1813.5,-78"/>
<text text-anchor="start" x="1679.5" y="-66" font-family="Helvetica,sans-Serif" font-size="10.00">TopologyRenderer::render</text>
<text text-anchor="middle" x="1742.5" y="-55" font-family="Helvetica,sans-Serif" font-size="10.00">SwitchBlock</text>
</a>
</g>
</g>
<!-- Node1&#45;&gt;Node17 -->
<g id="edge18_Node000001_Node000017" class="edge">
<title>Node1&#45;&gt;Node17</title>
<g id="a_edge18_Node000001_Node000017"><a xlink:title=" ">
<path fill="none" stroke="#63b8ff" d="M1854.53,-93.28C1836.12,-88.26 1816.27,-82.85 1798.51,-78"/>
<polygon fill="#63b8ff" stroke="#63b8ff" points="1853.73,-96.69 1864.3,-95.94 1855.57,-89.94 1853.73,-96.69"/>
</a>
</g>
</g>
<!-- Node20 -->
<g id="Node000020" class="node">
<title>Node20</title>
<g id="a_Node000020"><a xlink:href="classTopologyRenderer.html#a94cd0b11ecdb050db826110fc4a9e175" target="_top" xlink:title="Construit l&#39;appel JS renderSwitchBranches(...) pour un switch.">
<polygon fill="white" stroke="#666666" points="1813.5,-30 1671.5,-30 1671.5,0 1813.5,0 1813.5,-30"/>
<text text-anchor="start" x="1679.5" y="-18" font-family="Helvetica,sans-Serif" font-size="10.00">TopologyRenderer::render</text>
<text text-anchor="middle" x="1742.5" y="-7" font-family="Helvetica,sans-Serif" font-size="10.00">SwitchBranches</text>
</a>
</g>
</g>
<!-- Node1&#45;&gt;Node20 -->
<g id="edge22_Node000001_Node000020" class="edge">
<title>Node1&#45;&gt;Node20</title>
<g id="a_edge22_Node000001_Node000020"><a xlink:title=" ">
<path fill="none" stroke="#63b8ff" d="M1893.01,-89.36C1872.86,-73.72 1843.92,-52.96 1816,-39 1809.48,-35.74 1802.41,-32.77 1795.34,-30.12"/>
<polygon fill="#63b8ff" stroke="#63b8ff" points="1891.06,-92.28 1901.08,-95.72 1895.39,-86.78 1891.06,-92.28"/>
</a>
</g>
</g>
<!-- Node3 -->
<g id="Node000003" class="node">
<title>Node3</title>
<g id="a_Node000003"><a xlink:href="classSwitchOrientator.html#a5af1a097baad421ce01bd013be602df7" target="_top" xlink:title="Exécute les phases 6, 6b, 6c et 6d en place sur topoResult.">
<polygon fill="white" stroke="#666666" points="1624,-211.5 1491,-211.5 1491,-192.5 1624,-192.5 1624,-211.5"/>
<text text-anchor="middle" x="1557.5" y="-199.5" font-family="Helvetica,sans-Serif" font-size="10.00">SwitchOrientator::orient</text>
</a>
</g>
</g>
<!-- Node2&#45;&gt;Node3 -->
<g id="edge2_Node000002_Node000003" class="edge">
<title>Node2&#45;&gt;Node3</title>
<g id="a_edge2_Node000002_Node000003"><a xlink:title=" ">
<path fill="none" stroke="#63b8ff" d="M1658.79,-204.74C1647.19,-204.42 1635.4,-204.1 1624.17,-203.79"/>
<polygon fill="#63b8ff" stroke="#63b8ff" points="1658.82,-208.24 1668.91,-205.02 1659.01,-201.24 1658.82,-208.24"/>
</a>
</g>
</g>
<!-- Node4 -->
<g id="Node000004" class="node">
<title>Node4</title>
<g id="a_Node000004"><a xlink:href="classGeoParser.html#aa4acc69a49444b9aa06b2c028b2c1133" target="_top" xlink:title="Lance le pipeline complet.">
<polygon fill="white" stroke="#666666" points="1410,-208.5 1311,-208.5 1311,-189.5 1410,-189.5 1410,-208.5"/>
<text text-anchor="middle" x="1360.5" y="-196.5" font-family="Helvetica,sans-Serif" font-size="10.00">GeoParser::parse</text>
</a>
</g>
</g>
<!-- Node3&#45;&gt;Node4 -->
<g id="edge3_Node000003_Node000004" class="edge">
<title>Node3&#45;&gt;Node4</title>
<g id="a_edge3_Node000003_Node000004"><a xlink:title=" ">
<path fill="none" stroke="#63b8ff" d="M1480.7,-200.83C1456.93,-200.47 1431.36,-200.07 1410.02,-199.75"/>
<polygon fill="#63b8ff" stroke="#63b8ff" points="1480.7,-204.33 1490.75,-200.99 1480.81,-197.34 1480.7,-204.33"/>
</a>
</g>
</g>
<!-- Node5 -->
<g id="Node000005" class="node">
<title>Node5</title>
<g id="a_Node000005"><a xlink:href="classGeoParsingTask.html#affe9d461e96e029708ced380b63da972" target="_top" xlink:title="Lance le parsing GeoJSON dans un thread séparé et détaché.">
<polygon fill="white" stroke="#666666" points="1231.5,-208.5 1100.5,-208.5 1100.5,-189.5 1231.5,-189.5 1231.5,-208.5"/>
<text text-anchor="middle" x="1166" y="-196.5" font-family="Helvetica,sans-Serif" font-size="10.00">GeoParsingTask::launch</text>
</a>
</g>
</g>
<!-- Node4&#45;&gt;Node5 -->
<g id="edge4_Node000004_Node000005" class="edge">
<title>Node4&#45;&gt;Node5</title>
<g id="a_edge4_Node000004_Node000005"><a xlink:title=" ">
<path fill="none" stroke="#63b8ff" d="M1300.78,-199C1278.9,-199 1253.95,-199 1231.57,-199"/>
<polygon fill="#63b8ff" stroke="#63b8ff" points="1300.92,-202.5 1310.92,-199 1300.92,-195.5 1300.92,-202.5"/>
</a>
</g>
</g>
<!-- Node6 -->
<g id="Node000006" class="node">
<title>Node6</title>
<g id="a_Node000006"><a xlink:href="classMainWindow.html#a889cc45fb741e12015f4af9f01acaa96" target="_top" xlink:title="Ouvre le sélecteur de fichier et lance le parsing asynchrone.">
<polygon fill="white" stroke="#666666" points="1057,-207.5 917,-207.5 917,-188.5 1057,-188.5 1057,-207.5"/>
<text text-anchor="middle" x="987" y="-195.5" font-family="Helvetica,sans-Serif" font-size="10.00">MainWindow::onFileOpen</text>
</a>
</g>
</g>
<!-- Node5&#45;&gt;Node6 -->
<g id="edge5_Node000005_Node000006" class="edge">
<title>Node5&#45;&gt;Node6</title>
<g id="a_edge5_Node000005_Node000006"><a xlink:title=" ">
<path fill="none" stroke="#63b8ff" d="M1090.03,-198.58C1079.15,-198.51 1068,-198.45 1057.25,-198.39"/>
<polygon fill="#63b8ff" stroke="#63b8ff" points="1090.33,-202.08 1100.35,-198.63 1090.37,-195.08 1090.33,-202.08"/>
</a>
</g>
</g>
<!-- Node7 -->
<g id="Node000007" class="node">
<title>Node7</title>
<g id="a_Node000007"><a xlink:href="classMainWindow.html#afbecf0f64f48c5c868168884bab52356" target="_top" xlink:title="Gère les commandes menu (WM_COMMAND).">
<polygon fill="white" stroke="#666666" points="881,-168.5 734,-168.5 734,-149.5 881,-149.5 881,-168.5"/>
<text text-anchor="middle" x="807.5" y="-156.5" font-family="Helvetica,sans-Serif" font-size="10.00">MainWindow::onCommand</text>
</a>
</g>
</g>
<!-- Node6&#45;&gt;Node7 -->
<g id="edge6_Node000006_Node000007" class="edge">
<title>Node6&#45;&gt;Node7</title>
<g id="a_edge6_Node000006_Node000007"><a xlink:title=" ">
<path fill="none" stroke="#63b8ff" d="M932.57,-186.26C906.73,-180.58 876.13,-173.86 851.78,-168.51"/>
<polygon fill="#63b8ff" stroke="#63b8ff" points="932.06,-189.73 942.58,-188.46 933.56,-182.89 932.06,-189.73"/>
</a>
</g>
</g>
<!-- Node8 -->
<g id="Node000008" class="node">
<title>Node8</title>
<g id="a_Node000008"><a xlink:href="classMainWindow.html#ab85682874f3ab5dfa81f782f889d8556" target="_top" xlink:title="Dispatcher principal des messages de la fenêtre.">
<polygon fill="white" stroke="#666666" points="698,-120.5 537,-120.5 537,-101.5 698,-101.5 698,-120.5"/>
<text text-anchor="middle" x="617.5" y="-108.5" font-family="Helvetica,sans-Serif" font-size="10.00">MainWindow::handleMessage</text>
</a>
</g>
</g>
<!-- Node7&#45;&gt;Node8 -->
<g id="edge7_Node000007_Node000008" class="edge">
<title>Node7&#45;&gt;Node8</title>
<g id="a_edge7_Node000007_Node000008"><a xlink:title=" ">
<path fill="none" stroke="#63b8ff" d="M758.91,-146.85C727.01,-138.71 685.6,-128.13 656.03,-120.58"/>
<polygon fill="#63b8ff" stroke="#63b8ff" points="758.35,-150.32 768.91,-149.4 760.08,-143.54 758.35,-150.32"/>
</a>
</g>
</g>
<!-- Node9 -->
<g id="Node000009" class="node">
<title>Node9</title>
<g id="a_Node000009"><a xlink:href="classMainWindow.html#a332648d0a0caec8070b05bc27bb9a14b" target="_top" xlink:title="Procédure de fenêtre statique, point d&#39;entrée imposé par Win32.">
<polygon fill="white" stroke="#666666" points="501,-120.5 358,-120.5 358,-101.5 501,-101.5 501,-120.5"/>
<text text-anchor="middle" x="429.5" y="-108.5" font-family="Helvetica,sans-Serif" font-size="10.00">MainWindow::windowProc</text>
</a>
</g>
</g>
<!-- Node8&#45;&gt;Node9 -->
<g id="edge8_Node000008_Node000009" class="edge">
<title>Node8&#45;&gt;Node9</title>
<g id="a_edge8_Node000008_Node000009"><a xlink:title=" ">
<path fill="none" stroke="#63b8ff" d="M526.77,-111C518.2,-111 509.58,-111 501.22,-111"/>
<polygon fill="#63b8ff" stroke="#63b8ff" points="526.81,-114.5 536.81,-111 526.81,-107.5 526.81,-114.5"/>
</a>
</g>
</g>
<!-- Node10 -->
<g id="Node000010" class="node">
<title>Node10</title>
<g id="a_Node000010"><a xlink:href="classApplication.html#a0bda40de108938fd29374335bf4eac71" target="_top" xlink:title="Enregistre la classe de fenêtre Win32 (WNDCLASSEXW).">
<polygon fill="white" stroke="#666666" points="322,-126 168,-126 168,-96 322,-96 322,-126"/>
<text text-anchor="start" x="176" y="-114" font-family="Helvetica,sans-Serif" font-size="10.00">Application::registerWindow</text>
<text text-anchor="middle" x="245" y="-103" font-family="Helvetica,sans-Serif" font-size="10.00">Class</text>
</a>
</g>
</g>
<!-- Node9&#45;&gt;Node10 -->
<g id="edge9_Node000009_Node000010" class="edge">
<title>Node9&#45;&gt;Node10</title>
<g id="a_edge9_Node000009_Node000010"><a xlink:title=" ">
<path fill="none" stroke="#63b8ff" d="M347.66,-111C339.17,-111 330.56,-111 322.12,-111"/>
<polygon fill="#63b8ff" stroke="#63b8ff" points="347.94,-114.5 357.94,-111 347.94,-107.5 347.94,-114.5"/>
</a>
</g>
</g>
<!-- Node11 -->
<g id="Node000011" class="node">
<title>Node11</title>
<g id="a_Node000011"><a xlink:href="classApplication.html#a719cf091afd2276d52f9a58e4962ebfb" target="_top" xlink:title="Construit l&#39;application et enregistre la classe de fenêtre.">
<polygon fill="white" stroke="#666666" points="132,-120.5 0,-120.5 0,-101.5 132,-101.5 132,-120.5"/>
<text text-anchor="middle" x="66" y="-108.5" font-family="Helvetica,sans-Serif" font-size="10.00">Application::Application</text>
</a>
</g>
</g>
<!-- Node10&#45;&gt;Node11 -->
<g id="edge10_Node000010_Node000011" class="edge">
<title>Node10&#45;&gt;Node11</title>
<g id="a_edge10_Node000010_Node000011"><a xlink:title=" ">
<path fill="none" stroke="#63b8ff" d="M157.82,-111C149.19,-111 140.53,-111 132.18,-111"/>
<polygon fill="#63b8ff" stroke="#63b8ff" points="157.91,-114.5 167.91,-111 157.91,-107.5 157.91,-114.5"/>
</a>
</g>
</g>
<!-- Node13 -->
<g id="Node000013" class="node">
<title>Node13</title>
<g id="a_Node000013"><a xlink:href="classTopologyRenderer.html#a5691412733606ec4139cac02585bd718" target="_top" xlink:title="Exporte la topologie ferroviaire dans un fichier GeoJSON.">
<polygon fill="white" stroke="#666666" points="1628.5,-174 1486.5,-174 1486.5,-144 1628.5,-144 1628.5,-174"/>
<text text-anchor="start" x="1494.5" y="-162" font-family="Helvetica,sans-Serif" font-size="10.00">TopologyRenderer::export</text>
<text text-anchor="middle" x="1557.5" y="-151" font-family="Helvetica,sans-Serif" font-size="10.00">ToFile</text>
</a>
</g>
</g>
<!-- Node12&#45;&gt;Node13 -->
<g id="edge12_Node000012_Node000013" class="edge">
<title>Node12&#45;&gt;Node13</title>
<g id="a_edge12_Node000012_Node000013"><a xlink:title=" ">
<path fill="none" stroke="#63b8ff" d="M1674.21,-128.65C1655,-133.69 1634.25,-139.13 1615.7,-144"/>
<polygon fill="#63b8ff" stroke="#63b8ff" points="1675.31,-131.98 1684.1,-126.06 1673.54,-125.21 1675.31,-131.98"/>
</a>
</g>
</g>
<!-- Node15 -->
<g id="Node000015" class="node">
<title>Node15</title>
<g id="a_Node000015"><a xlink:href="classTopologyRenderer.html#a53552ac3e53137c8510496ae2de4a4d8" target="_top" xlink:title="Génère le script JavaScript d&#39;injection GeoJSON dans le WebView.">
<polygon fill="white" stroke="#666666" points="1633,-126 1482,-126 1482,-96 1633,-96 1633,-126"/>
<text text-anchor="start" x="1490" y="-114" font-family="Helvetica,sans-Serif" font-size="10.00">TopologyRenderer::loadGeo</text>
<text text-anchor="middle" x="1557.5" y="-103" font-family="Helvetica,sans-Serif" font-size="10.00">JsonToWebView</text>
</a>
</g>
</g>
<!-- Node12&#45;&gt;Node15 -->
<g id="edge15_Node000012_Node000015" class="edge">
<title>Node12&#45;&gt;Node15</title>
<g id="a_edge15_Node000012_Node000015"><a xlink:title=" ">
<path fill="none" stroke="#63b8ff" d="M1658.89,-111C1650.3,-111 1641.6,-111 1633.1,-111"/>
<polygon fill="#63b8ff" stroke="#63b8ff" points="1658.91,-114.5 1668.91,-111 1658.91,-107.5 1658.91,-114.5"/>
</a>
</g>
</g>
<!-- Node14 -->
<g id="Node000014" class="node">
<title>Node14</title>
<g id="a_Node000014"><a xlink:href="classMainWindow.html#a4429f521642e48894e0efce5b41bd0ae" target="_top" xlink:title="Ouvre le dialogue d&#39;exportation et déclenche l&#39;export GeoJSON.">
<polygon fill="white" stroke="#666666" points="1239,-168.5 1093,-168.5 1093,-149.5 1239,-149.5 1239,-168.5"/>
<text text-anchor="middle" x="1166" y="-156.5" font-family="Helvetica,sans-Serif" font-size="10.00">MainWindow::onFileExport</text>
</a>
</g>
</g>
<!-- Node13&#45;&gt;Node14 -->
<g id="edge13_Node000013_Node000014" class="edge">
<title>Node13&#45;&gt;Node14</title>
<g id="a_edge13_Node000013_Node000014"><a xlink:title=" ">
<path fill="none" stroke="#63b8ff" d="M1476.35,-159C1406.61,-159 1306.44,-159 1239.16,-159"/>
<polygon fill="#63b8ff" stroke="#63b8ff" points="1476.42,-162.5 1486.42,-159 1476.42,-155.5 1476.42,-162.5"/>
</a>
</g>
</g>
<!-- Node14&#45;&gt;Node7 -->
<g id="edge14_Node000014_Node000007" class="edge">
<title>Node14&#45;&gt;Node7</title>
<g id="a_edge14_Node000014_Node000007"><a xlink:title=" ">
<path fill="none" stroke="#63b8ff" d="M1082.51,-159C1021.63,-159 939.56,-159 881.15,-159"/>
<polygon fill="#63b8ff" stroke="#63b8ff" points="1082.86,-162.5 1092.86,-159 1082.86,-155.5 1082.86,-162.5"/>
</a>
</g>
</g>
<!-- Node16&#45;&gt;Node3 -->
<g id="edge17_Node000016_Node000003" class="edge">
<title>Node16&#45;&gt;Node3</title>
<g id="a_edge17_Node000016_Node000003"><a xlink:title=" ">
<path fill="none" stroke="#63b8ff" d="M1667.58,-176.37C1644.18,-181.87 1619.18,-187.74 1599.02,-192.48"/>
<polygon fill="#63b8ff" stroke="#63b8ff" points="1668.56,-179.73 1677.5,-174.04 1666.96,-172.92 1668.56,-179.73"/>
</a>
</g>
</g>
<!-- Node18 -->
<g id="Node000018" class="node">
<title>Node18</title>
<g id="a_Node000018"><a xlink:href="classTopologyRenderer.html#adc1a75eb69d37d7b15c7dc013fa32f0d" target="_top" xlink:title="Efface puis redessine tous les marqueurs de jonction.">
<polygon fill="white" stroke="#666666" points="1628.5,-78 1486.5,-78 1486.5,-48 1628.5,-48 1628.5,-78"/>
<text text-anchor="start" x="1494.5" y="-66" font-family="Helvetica,sans-Serif" font-size="10.00">TopologyRenderer::render</text>
<text text-anchor="middle" x="1557.5" y="-55" font-family="Helvetica,sans-Serif" font-size="10.00">AllSwitchBlocksJunctions</text>
</a>
</g>
</g>
<!-- Node17&#45;&gt;Node18 -->
<g id="edge19_Node000017_Node000018" class="edge">
<title>Node17&#45;&gt;Node18</title>
<g id="a_edge19_Node000017_Node000018"><a xlink:title=" ">
<path fill="none" stroke="#63b8ff" d="M1660.99,-63C1650.17,-63 1639.15,-63 1628.54,-63"/>
<polygon fill="#63b8ff" stroke="#63b8ff" points="1661.27,-66.5 1671.27,-63 1661.27,-59.5 1661.27,-66.5"/>
</a>
</g>
</g>
<!-- Node19 -->
<g id="Node000019" class="node">
<title>Node19</title>
<g id="a_Node000019"><a xlink:href="classMainWindow.html#a90cae565f67d1291d690d974547041a0" target="_top" xlink:title="Gère la fin réussie du parsing (WM_PARSING_SUCCESS).">
<polygon fill="white" stroke="#666666" points="1446,-72.5 1275,-72.5 1275,-53.5 1446,-53.5 1446,-72.5"/>
<text text-anchor="middle" x="1360.5" y="-60.5" font-family="Helvetica,sans-Serif" font-size="10.00">MainWindow::onParsingSuccess</text>
</a>
</g>
</g>
<!-- Node18&#45;&gt;Node19 -->
<g id="edge20_Node000018_Node000019" class="edge">
<title>Node18&#45;&gt;Node19</title>
<g id="a_edge20_Node000018_Node000019"><a xlink:title=" ">
<path fill="none" stroke="#63b8ff" d="M1476.2,-63C1466.34,-63 1456.23,-63 1446.31,-63"/>
<polygon fill="#63b8ff" stroke="#63b8ff" points="1476.38,-66.5 1486.38,-63 1476.38,-59.5 1476.38,-66.5"/>
</a>
</g>
</g>
<!-- Node19&#45;&gt;Node8 -->
<g id="edge21_Node000019_Node000008" class="edge">
<title>Node19&#45;&gt;Node8</title>
<g id="a_edge21_Node000019_Node000008"><a xlink:title=" ">
<path fill="none" stroke="#63b8ff" d="M1264.47,-69.16C1116.97,-78.71 835.6,-96.94 698.11,-105.84"/>
<polygon fill="#63b8ff" stroke="#63b8ff" points="1265.11,-72.62 1274.86,-68.48 1264.65,-65.64 1265.11,-72.62"/>
</a>
</g>
</g>
<!-- Node21 -->
<g id="Node000021" class="node">
<title>Node21</title>
<g id="a_Node000021"><a xlink:href="classTopologyRenderer.html#a82bdf3d4be07c75f7ff3e637b17d5f67" target="_top" xlink:title="Efface puis redessine les branches de tous les switches.">
<polygon fill="white" stroke="#666666" points="1628.5,-30 1486.5,-30 1486.5,0 1628.5,0 1628.5,-30"/>
<text text-anchor="start" x="1494.5" y="-18" font-family="Helvetica,sans-Serif" font-size="10.00">TopologyRenderer::render</text>
<text text-anchor="middle" x="1557.5" y="-7" font-family="Helvetica,sans-Serif" font-size="10.00">AllSwitchBranches</text>
</a>
</g>
</g>
<!-- Node20&#45;&gt;Node21 -->
<g id="edge23_Node000020_Node000021" class="edge">
<title>Node20&#45;&gt;Node21</title>
<g id="a_edge23_Node000020_Node000021"><a xlink:title=" ">
<path fill="none" stroke="#63b8ff" d="M1660.99,-15C1650.17,-15 1639.15,-15 1628.54,-15"/>
<polygon fill="#63b8ff" stroke="#63b8ff" points="1661.27,-18.5 1671.27,-15 1661.27,-11.5 1661.27,-18.5"/>
</a>
</g>
</g>
<!-- Node21&#45;&gt;Node19 -->
<g id="edge24_Node000021_Node000019" class="edge">
<title>Node21&#45;&gt;Node19</title>
<g id="a_edge24_Node000021_Node000019"><a xlink:title=" ">
<path fill="none" stroke="#63b8ff" d="M1485.34,-32.52C1456.63,-39.58 1424.63,-47.46 1400.36,-53.44"/>
<polygon fill="#63b8ff" stroke="#63b8ff" points="1486.46,-35.84 1495.34,-30.06 1484.79,-29.05 1486.46,-35.84"/>
</a>
</g>
</g>
</g>
</svg>
