<?xml version="1.0" encoding="UTF-8" standalone="no"?>
<!DOCTYPE svg PUBLIC "-//W3C//DTD SVG 1.1//EN"
 "http://www.w3.org/Graphics/SVG/1.1/DTD/svg11.dtd">
<!-- Generated by graphviz version 2.43.0 (0)
 -->
<!-- Title: SwitchOrientator::orient Pages: 1 -->
<svg width="1167pt" height="347pt"
 viewBox="0.00 0.00 1167.00 347.00" xmlns="http://www.w3.org/2000/svg" xmlns:xlink="http://www.w3.org/1999/xlink">
<g id="graph0" class="graph" transform="scale(1 1) rotate(0) translate(4 343)">
<title>SwitchOrientator::orient</title>
<!-- Node1 -->
<g id="Node000001" class="node">
<title>Node1</title>
<g id="a_Node000001"><a xlink:title="Exécute les phases 6, 6b, 6c et 6d en place sur topoResult.">
<polygon fill="#999999" stroke="#666666" points="133,-184.5 0,-184.5 0,-165.5 133,-165.5 133,-184.5"/>
<text text-anchor="middle" x="66.5" y="-172.5" font-family="Helvetica,sans-Serif" font-size="10.00">SwitchOrientator::orient</text>
</a>
</g>
</g>
<!-- Node2 -->
<g id="Node000002" class="node">
<title>Node2</title>
<g id="a_Node000002"><a xlink:href="classSwitchOrientator.html#a2786825e04cc0836549bb23a2b6242b4" target="_top" xlink:title="Échange normal↔deviation sur l&#39;aiguillage non&#45;référence si les rôles diffèrent.">
<polygon fill="white" stroke="#666666" points="332,-294 169,-294 169,-264 332,-264 332,-294"/>
<text text-anchor="start" x="177" y="-282" font-family="Helvetica,sans-Serif" font-size="10.00">SwitchOrientator::alignDouble</text>
<text text-anchor="middle" x="250.5" y="-271" font-family="Helvetica,sans-Serif" font-size="10.00">SwitchRoles</text>
</a>
</g>
</g>
<!-- Node1&#45;&gt;Node2 -->
<g id="edge1_Node000001_Node000002" class="edge">
<title>Node1&#45;&gt;Node2</title>
<g id="a_edge1_Node000001_Node000002"><a xlink:title=" ">
<path fill="none" stroke="#63b8ff" d="M76.98,-184.56C93.97,-201.17 131.36,-235.47 169,-255 172.54,-256.84 176.24,-258.55 180.03,-260.16"/>
<polygon fill="#63b8ff" stroke="#63b8ff" points="179,-263.51 189.59,-263.91 181.56,-257 179,-263.51"/>
</a>
</g>
</g>
<!-- Node3 -->
<g id="Node000003" class="node">
<title>Node3</title>
<g id="a_Node000003"><a xlink:href="classSwitchOrientator.html#a8132fa3495845481fdb68a3ec695af15" target="_top" xlink:title="Calcule et assigne les points tip CDC sur un SwitchBlock orienté.">
<polygon fill="white" stroke="#666666" points="324,-246 177,-246 177,-216 324,-216 324,-246"/>
<text text-anchor="start" x="185" y="-234" font-family="Helvetica,sans-Serif" font-size="10.00">SwitchOrientator::compute</text>
<text text-anchor="middle" x="250.5" y="-223" font-family="Helvetica,sans-Serif" font-size="10.00">BranchTipPoints</text>
</a>
</g>
</g>
<!-- Node1&#45;&gt;Node3 -->
<g id="edge2_Node000001_Node000003" class="edge">
<title>Node1&#45;&gt;Node3</title>
<g id="a_edge2_Node000001_Node000003"><a xlink:title=" ">
<path fill="none" stroke="#63b8ff" d="M98.79,-184.63C124.01,-192.39 160.18,-203.52 190.77,-212.93"/>
<polygon fill="#63b8ff" stroke="#63b8ff" points="189.9,-216.32 200.48,-215.92 191.95,-209.63 189.9,-216.32"/>
</a>
</g>
</g>
<!-- Node12 -->
<g id="Node000012" class="node">
<title>Node12</title>
<g id="a_Node000012"><a xlink:href="classSwitchOrientator.html#acdcd6a442cb52bed611a302b1358c8bb" target="_top" xlink:title="Force la branche partagée au rôle DEVIATION sur les deux aiguillages formant un croisement mécanique ...">
<polygon fill="white" stroke="#666666" points="321,-142 180,-142 180,-112 321,-112 321,-142"/>
<text text-anchor="start" x="188" y="-130" font-family="Helvetica,sans-Serif" font-size="10.00">SwitchOrientator::enforce</text>
<text text-anchor="middle" x="250.5" y="-119" font-family="Helvetica,sans-Serif" font-size="10.00">CrossoverConsistency</text>
</a>
</g>
</g>
<!-- Node1&#45;&gt;Node12 -->
<g id="edge12_Node000001_Node000012" class="edge">
<title>Node1&#45;&gt;Node12</title>
<g id="a_edge12_Node000001_Node000012"><a xlink:title=" ">
<path fill="none" stroke="#63b8ff" d="M103.89,-165.4C126.34,-159.48 155.81,-151.71 182.37,-144.7"/>
<polygon fill="#63b8ff" stroke="#63b8ff" points="183.61,-148 192.39,-142.06 181.82,-141.23 183.61,-148"/>
</a>
</g>
</g>
<!-- Node13 -->
<g id="Node000013" class="node">
<title>Node13</title>
<g id="a_Node000013"><a xlink:href="classSwitchOrientator.html#a0ed66205a222764fb0ad914425ba0f6e" target="_top" xlink:title="Oriente un SwitchBlock à 3 branches en place.">
<polygon fill="white" stroke="#666666" points="317,-78 184,-78 184,-48 317,-48 317,-78"/>
<text text-anchor="start" x="192" y="-66" font-family="Helvetica,sans-Serif" font-size="10.00">SwitchOrientator::orient</text>
<text text-anchor="middle" x="250.5" y="-55" font-family="Helvetica,sans-Serif" font-size="10.00">ThreePortSwitch</text>
</a>
</g>
</g>
<!-- Node1&#45;&gt;Node13 -->
<g id="edge13_Node000001_Node000013" class="edge">
<title>Node1&#45;&gt;Node13</title>
<g id="a_edge13_Node000001_Node000013"><a xlink:title=" ">
<path fill="none" stroke="#63b8ff" d="M79.58,-165.49C98.19,-151.06 135.26,-123.18 169,-103 181.06,-95.79 194.6,-88.7 207.08,-82.54"/>
<polygon fill="#63b8ff" stroke="#63b8ff" points="208.91,-85.54 216.37,-78.03 205.85,-79.25 208.91,-85.54"/>
</a>
</g>
</g>
<!-- Node16 -->
<g id="Node000016" class="node">
<title>Node16</title>
<g id="a_Node000016"><a xlink:href="classSwitchOrientator.html#ac80814892c9baea379f2b4e9f22b966e" target="_top" xlink:title="Retaille chaque StraightBlock adjacent à une jonction pour qu&#39;il commence (ou se termine) exactement ...">
<polygon fill="white" stroke="#666666" points="332,-190 169,-190 169,-160 332,-160 332,-190"/>
<text text-anchor="start" x="177" y="-178" font-family="Helvetica,sans-Serif" font-size="10.00">SwitchOrientator::trimStraight</text>
<text text-anchor="middle" x="250.5" y="-167" font-family="Helvetica,sans-Serif" font-size="10.00">Overlaps</text>
</a>
</g>
</g>
<!-- Node1&#45;&gt;Node16 -->
<g id="edge16_Node000001_Node000016" class="edge">
<title>Node1&#45;&gt;Node16</title>
<g id="a_edge16_Node000001_Node000016"><a xlink:title=" ">
<path fill="none" stroke="#63b8ff" d="M133.21,-175C141.55,-175 150.2,-175 158.85,-175"/>
<polygon fill="#63b8ff" stroke="#63b8ff" points="158.98,-178.5 168.98,-175 158.98,-171.5 158.98,-178.5"/>
</a>
</g>
</g>
<!-- Node4 -->
<g id="Node000004" class="node">
<title>Node4</title>
<g id="a_Node000004"><a xlink:href="classSwitchOrientator.html#af602429b8a3a2d38e92515cfd2d76ecd" target="_top" xlink:title="Interpole un point tip à distanceMeters depuis la jonction le long d&#39;un Straight.">
<polygon fill="white" stroke="#666666" points="532,-298 374,-298 374,-268 532,-268 532,-298"/>
<text text-anchor="start" x="382" y="-286" font-family="Helvetica,sans-Serif" font-size="10.00">SwitchOrientator::interpolate</text>
<text text-anchor="middle" x="453" y="-275" font-family="Helvetica,sans-Serif" font-size="10.00">TipPoint</text>
</a>
</g>
</g>
<!-- Node3&#45;&gt;Node4 -->
<g id="edge3_Node000003_Node000004" class="edge">
<title>Node3&#45;&gt;Node4</title>
<g id="a_edge3_Node000003_Node000004"><a xlink:title=" ">
<path fill="none" stroke="#63b8ff" d="M309.49,-246.04C332.87,-252.1 360,-259.14 384.28,-265.44"/>
<polygon fill="#63b8ff" stroke="#63b8ff" points="383.58,-268.87 394.14,-267.99 385.34,-262.09 383.58,-268.87"/>
</a>
</g>
</g>
<!-- Node11 -->
<g id="Node000011" class="node">
<title>Node11</title>
<g id="a_Node000011"><a xlink:href="classSwitchBlock.html#a87eba553e6478990869ad5b1d9c4f4a7" target="_top" xlink:title="Indique si l&#39;aiguillage a été orienté (Phase 6 complète).">
<polygon fill="white" stroke="#666666" points="519,-249.5 387,-249.5 387,-230.5 519,-230.5 519,-249.5"/>
<text text-anchor="middle" x="453" y="-237.5" font-family="Helvetica,sans-Serif" font-size="10.00">SwitchBlock::isOriented</text>
</a>
</g>
</g>
<!-- Node3&#45;&gt;Node11 -->
<g id="edge11_Node000003_Node000011" class="edge">
<title>Node3&#45;&gt;Node11</title>
<g id="a_edge11_Node000003_Node000011"><a xlink:title=" ">
<path fill="none" stroke="#63b8ff" d="M324.17,-234.26C341.31,-235.03 359.62,-235.85 376.87,-236.63"/>
<polygon fill="#63b8ff" stroke="#63b8ff" points="376.74,-240.13 386.89,-237.08 377.06,-233.13 376.74,-240.13"/>
</a>
</g>
</g>
<!-- Node5 -->
<g id="Node000005" class="node">
<title>Node5</title>
<g id="a_Node000005"><a xlink:href="classGeometryUtils.html#a95a8eb25c216b5416111a5b2f18ebb5f" target="_top" xlink:title="Calcule la longueur planaire totale d&#39;une polyligne métrique.">
<polygon fill="white" stroke="#666666" points="750,-339 574,-339 574,-309 750,-309 750,-339"/>
<text text-anchor="start" x="582" y="-327" font-family="Helvetica,sans-Serif" font-size="10.00">GeometryUtils::computePolyline</text>
<text text-anchor="middle" x="662" y="-316" font-family="Helvetica,sans-Serif" font-size="10.00">LengthMeters</text>
</a>
</g>
</g>
<!-- Node4&#45;&gt;Node5 -->
<g id="edge4_Node000004_Node000005" class="edge">
<title>Node4&#45;&gt;Node5</title>
<g id="a_edge4_Node000004_Node000005"><a xlink:title=" ">
<path fill="none" stroke="#63b8ff" d="M529.9,-298.03C544.53,-300.93 559.95,-303.98 574.87,-306.94"/>
<polygon fill="#63b8ff" stroke="#63b8ff" points="574.62,-310.46 585.11,-308.97 575.98,-303.59 574.62,-310.46"/>
</a>
</g>
</g>
<!-- Node6 -->
<g id="Node000006" class="node">
<title>Node6</title>
<g id="a_Node000006"><a xlink:href="classGeometryUtils.html#aa06e19f5aae6fce3108b2fcfc709fc53" target="_top" xlink:title="Convertit une polyligne WGS&#45;84 en coordonnées métriques UTM.">
<polygon fill="white" stroke="#666666" points="747,-188 577,-188 577,-158 747,-158 747,-188"/>
<text text-anchor="start" x="585" y="-176" font-family="Helvetica,sans-Serif" font-size="10.00">GeometryUtils::convertPolyline</text>
<text text-anchor="middle" x="662" y="-165" font-family="Helvetica,sans-Serif" font-size="10.00">ToMetric</text>
</a>
</g>
</g>
<!-- Node4&#45;&gt;Node6 -->
<g id="edge5_Node000004_Node000006" class="edge">
<title>Node4&#45;&gt;Node6</title>
<g id="a_edge5_Node000004_Node000006"><a xlink:title=" ">
<path fill="none" stroke="#63b8ff" d="M523.52,-267.93C528.67,-265.4 533.57,-262.45 538,-259 563.14,-239.43 548.77,-216.46 574,-197 575.81,-195.6 577.71,-194.28 579.66,-193.04"/>
<polygon fill="#63b8ff" stroke="#63b8ff" points="581.54,-196 588.57,-188.08 578.13,-189.88 581.54,-196"/>
</a>
</g>
</g>
<!-- Node9 -->
<g id="Node000009" class="node">
<title>Node9</title>
<g id="a_Node000009"><a xlink:href="classGeometryUtils.html#a0dfa23ddf2d80abfeaeac186ae124fd0" target="_top" xlink:title="Convertit une coordonnée métrique UTM en WGS&#45;84.">
<polygon fill="white" stroke="#666666" points="735,-236 589,-236 589,-206 735,-206 735,-236"/>
<text text-anchor="start" x="597" y="-224" font-family="Helvetica,sans-Serif" font-size="10.00">GeometryUtils::metricUtm</text>
<text text-anchor="middle" x="662" y="-213" font-family="Helvetica,sans-Serif" font-size="10.00">ToWgs84</text>
</a>
</g>
</g>
<!-- Node4&#45;&gt;Node9 -->
<g id="edge8_Node000004_Node000009" class="edge">
<title>Node4&#45;&gt;Node9</title>
<g id="a_edge8_Node000004_Node000009"><a xlink:title=" ">
<path fill="none" stroke="#63b8ff" d="M507.37,-267.94C517.55,-265.01 528.11,-261.94 538,-259 559.45,-252.62 582.94,-245.42 603.6,-239.01"/>
<polygon fill="#63b8ff" stroke="#63b8ff" points="604.66,-242.35 613.17,-236.04 602.59,-235.66 604.66,-242.35"/>
</a>
</g>
</g>
<!-- Node10 -->
<g id="Node000010" class="node">
<title>Node10</title>
<g id="a_Node000010"><a xlink:href="classGeometryUtils.html#a811846a194a09c97c258825df6accb9a" target="_top" xlink:title="Interpole un point à distanceMeters du premier sommet d&#39;une polyligne.">
<polygon fill="white" stroke="#666666" points="748,-291 576,-291 576,-261 748,-261 748,-291"/>
<text text-anchor="start" x="584" y="-279" font-family="Helvetica,sans-Serif" font-size="10.00">GeometryUtils::pointAtDistance</text>
<text text-anchor="middle" x="662" y="-268" font-family="Helvetica,sans-Serif" font-size="10.00">AlongLine</text>
</a>
</g>
</g>
<!-- Node4&#45;&gt;Node10 -->
<g id="edge10_Node000004_Node000010" class="edge">
<title>Node4&#45;&gt;Node10</title>
<g id="a_edge10_Node000004_Node000010"><a xlink:title=" ">
<path fill="none" stroke="#63b8ff" d="M532.26,-280.35C543.13,-279.99 554.39,-279.61 565.53,-279.23"/>
<polygon fill="#63b8ff" stroke="#63b8ff" points="565.84,-282.72 575.71,-278.88 565.6,-275.72 565.84,-282.72"/>
</a>
</g>
</g>
<!-- Node7 -->
<g id="Node000007" class="node">
<title>Node7</title>
<g id="a_Node000007"><a xlink:href="classGeometryUtils.html#abcb43f3e49607318e07012e902febfdb" target="_top" xlink:title="Convertit une coordonnée WGS&#45;84 en mètres UTM.">
<polygon fill="white" stroke="#666666" points="974,-184.5 786,-184.5 786,-165.5 974,-165.5 974,-184.5"/>
<text text-anchor="middle" x="880" y="-172.5" font-family="Helvetica,sans-Serif" font-size="10.00">GeometryUtils::wgs84ToMetricUtm</text>
</a>
</g>
</g>
<!-- Node6&#45;&gt;Node7 -->
<g id="edge6_Node000006_Node000007" class="edge">
<title>Node6&#45;&gt;Node7</title>
<g id="a_edge6_Node000006_Node000007"><a xlink:title=" ">
<path fill="none" stroke="#63b8ff" d="M747.13,-173.78C756.44,-173.87 765.99,-173.95 775.51,-174.04"/>
<polygon fill="#63b8ff" stroke="#63b8ff" points="775.76,-177.54 785.79,-174.14 775.83,-170.54 775.76,-177.54"/>
</a>
</g>
</g>
<!-- Node8 -->
<g id="Node000008" class="node">
<title>Node8</title>
<g id="a_Node000008"><a xlink:href="classGeometryUtils.html#a0a57b43055d32f595a7c84dbd7d098e3" target="_top" xlink:title="Retourne le méridien central (degrés) d&#39;une zone UTM.">
<polygon fill="white" stroke="#666666" points="1159,-211 1010,-211 1010,-181 1159,-181 1159,-211"/>
<text text-anchor="start" x="1018" y="-199" font-family="Helvetica,sans-Serif" font-size="10.00">GeometryUtils::utmCentral</text>
<text text-anchor="middle" x="1084.5" y="-188" font-family="Helvetica,sans-Serif" font-size="10.00">MeridianDegrees</text>
</a>
</g>
</g>
<!-- Node7&#45;&gt;Node8 -->
<g id="edge7_Node000007_Node000008" class="edge">
<title>Node7&#45;&gt;Node8</title>
<g id="a_edge7_Node000007_Node000008"><a xlink:title=" ">
<path fill="none" stroke="#63b8ff" d="M972.77,-184.52C981.82,-185.46 990.97,-186.4 999.93,-187.33"/>
<polygon fill="#63b8ff" stroke="#63b8ff" points="999.64,-190.82 1009.95,-188.37 1000.36,-183.86 999.64,-190.82"/>
</a>
</g>
</g>
<!-- Node9&#45;&gt;Node8 -->
<g id="edge9_Node000009_Node000008" class="edge">
<title>Node9&#45;&gt;Node8</title>
<g id="a_edge9_Node000009_Node000008"><a xlink:title=" ">
<path fill="none" stroke="#63b8ff" d="M735.29,-216.7C808.66,-212.34 922.17,-205.59 999.5,-200.99"/>
<polygon fill="#63b8ff" stroke="#63b8ff" points="999.91,-204.48 1009.69,-200.39 999.5,-197.49 999.91,-204.48"/>
</a>
</g>
</g>
<!-- Node14 -->
<g id="Node000014" class="node">
<title>Node14</title>
<g id="a_Node000014"><a xlink:href="classGeometryUtils.html#a7fb1d9f796278db394fc82257347f514" target="_top" xlink:title="Variante &quot;pire cas&quot; de l&#39;angle entre deux vecteurs 2&#45;D.">
<polygon fill="white" stroke="#666666" points="535,-78 371,-78 371,-48 535,-48 535,-78"/>
<text text-anchor="start" x="379" y="-66" font-family="Helvetica,sans-Serif" font-size="10.00">GeometryUtils::angleBetween</text>
<text text-anchor="middle" x="453" y="-55" font-family="Helvetica,sans-Serif" font-size="10.00">VectorsPiFallback</text>
</a>
</g>
</g>
<!-- Node13&#45;&gt;Node14 -->
<g id="edge14_Node000013_Node000014" class="edge">
<title>Node13&#45;&gt;Node14</title>
<g id="a_edge14_Node000013_Node000014"><a xlink:title=" ">
<path fill="none" stroke="#63b8ff" d="M317.15,-63C331.07,-63 346,-63 360.68,-63"/>
<polygon fill="#63b8ff" stroke="#63b8ff" points="360.78,-66.5 370.78,-63 360.78,-59.5 360.78,-66.5"/>
</a>
</g>
</g>
<!-- Node15 -->
<g id="Node000015" class="node">
<title>Node15</title>
<g id="a_Node000015"><a xlink:href="classSwitchOrientator.html#aad2a4892eb6f9d716bd4703694813f46" target="_top" xlink:title="Retourne la direction (vecteur lat/lon) depuis junctionCoord vers l&#39;extrémité distale du StraightBloc...">
<polygon fill="white" stroke="#666666" points="526.5,-30 379.5,-30 379.5,0 526.5,0 526.5,-30"/>
<text text-anchor="start" x="387.5" y="-18" font-family="Helvetica,sans-Serif" font-size="10.00">SwitchOrientator::compute</text>
<text text-anchor="middle" x="453" y="-7" font-family="Helvetica,sans-Serif" font-size="10.00">BranchDirectionVector</text>
</a>
</g>
</g>
<!-- Node13&#45;&gt;Node15 -->
<g id="edge15_Node000013_Node000015" class="edge">
<title>Node13&#45;&gt;Node15</title>
<g id="a_edge15_Node000013_Node000015"><a xlink:title=" ">
<path fill="none" stroke="#63b8ff" d="M314.39,-47.94C335.01,-43.01 358.09,-37.48 379.38,-32.39"/>
<polygon fill="#63b8ff" stroke="#63b8ff" points="380.42,-35.73 389.33,-30 378.79,-28.93 380.42,-35.73"/>
</a>
</g>
</g>
<!-- Node16&#45;&gt;Node6 -->
<g id="edge17_Node000016_Node000006" class="edge">
<title>Node16&#45;&gt;Node6</title>
<g id="a_edge17_Node000016_Node000006"><a xlink:title=" ">
<path fill="none" stroke="#63b8ff" d="M332.03,-173.44C344.09,-173.26 356.37,-173.1 368,-173 434.34,-172.43 509.13,-172.44 566.54,-172.59"/>
<polygon fill="#63b8ff" stroke="#63b8ff" points="566.68,-176.09 576.69,-172.62 566.7,-169.09 566.68,-176.09"/>
</a>
</g>
</g>
<!-- Node17 -->
<g id="Node000017" class="node">
<title>Node17</title>
<g id="a_Node000017"><a xlink:href="classGeometryUtils.html#aba6963b2f6022f04e51fb716a11e3895" target="_top" xlink:title="Convertit une polyligne métrique UTM en WGS&#45;84.">
<polygon fill="white" stroke="#666666" points="538,-212 368,-212 368,-182 538,-182 538,-212"/>
<text text-anchor="start" x="376" y="-200" font-family="Helvetica,sans-Serif" font-size="10.00">GeometryUtils::convertPolyline</text>
<text text-anchor="middle" x="453" y="-189" font-family="Helvetica,sans-Serif" font-size="10.00">ToWgs84</text>
</a>
</g>
</g>
<!-- Node16&#45;&gt;Node17 -->
<g id="edge18_Node000016_Node000017" class="edge">
<title>Node16&#45;&gt;Node17</title>
<g id="a_edge18_Node000016_Node000017"><a xlink:title=" ">
<path fill="none" stroke="#63b8ff" d="M332.18,-183.85C340.63,-184.78 349.27,-185.73 357.85,-186.67"/>
<polygon fill="#63b8ff" stroke="#63b8ff" points="357.56,-190.16 367.88,-187.77 358.32,-183.2 357.56,-190.16"/>
</a>
</g>
</g>
<!-- Node18 -->
<g id="Node000018" class="node">
<title>Node18</title>
<g id="a_Node000018"><a xlink:href="classStraightBlock.html#a923ec2d60375b9760a734f3babe2150d" target="_top" xlink:title="Recalcule et met à jour lengthMeters depuis les coordonnées actuelles.">
<polygon fill="white" stroke="#666666" points="523,-126 383,-126 383,-96 523,-96 523,-126"/>
<text text-anchor="start" x="391" y="-114" font-family="Helvetica,sans-Serif" font-size="10.00">StraightBlock::recompute</text>
<text text-anchor="middle" x="453" y="-103" font-family="Helvetica,sans-Serif" font-size="10.00">GeodesicLength</text>
</a>
</g>
</g>
<!-- Node16&#45;&gt;Node18 -->
<g id="edge20_Node000016_Node000018" class="edge">
<title>Node16&#45;&gt;Node18</title>
<g id="a_edge20_Node000016_Node000018"><a xlink:title=" ">
<path fill="none" stroke="#63b8ff" d="M303.11,-159.88C312.73,-156.99 322.68,-153.94 332,-151 353.78,-144.12 377.68,-136.23 398.37,-129.28"/>
<polygon fill="#63b8ff" stroke="#63b8ff" points="399.58,-132.57 407.94,-126.06 397.35,-125.94 399.58,-132.57"/>
</a>
</g>
</g>
<!-- Node17&#45;&gt;Node9 -->
<g id="edge19_Node000017_Node000009" class="edge">
<title>Node17&#45;&gt;Node9</title>
<g id="a_edge19_Node000017_Node000009"><a xlink:title=" ">
<path fill="none" stroke="#63b8ff" d="M538.19,-206.76C551.57,-208.31 565.4,-209.92 578.73,-211.46"/>
<polygon fill="#63b8ff" stroke="#63b8ff" points="578.48,-214.96 588.82,-212.63 579.29,-208 578.48,-214.96"/>
</a>
</g>
</g>
<!-- Node19 -->
<g id="Node000019" class="node">
<title>Node19</title>
<g id="a_Node000019"><a xlink:href="classStraightBlock.html#a2c39df55b662a55c1de75659619bbacb" target="_top" xlink:title="Calcule la longueur géodésique totale via la formule de Haversine.">
<polygon fill="white" stroke="#666666" points="750,-126 574,-126 574,-96 750,-96 750,-126"/>
<text text-anchor="start" x="582" y="-114" font-family="Helvetica,sans-Serif" font-size="10.00">StraightBlock::computeGeodesic</text>
<text text-anchor="middle" x="662" y="-103" font-family="Helvetica,sans-Serif" font-size="10.00">Length</text>
</a>
</g>
</g>
<!-- Node18&#45;&gt;Node19 -->
<g id="edge21_Node000018_Node000019" class="edge">
<title>Node18&#45;&gt;Node19</title>
<g id="a_edge21_Node000018_Node000019"><a xlink:title=" ">
<path fill="none" stroke="#63b8ff" d="M523.22,-111C536.14,-111 549.87,-111 563.46,-111"/>
<polygon fill="#63b8ff" stroke="#63b8ff" points="563.81,-114.5 573.81,-111 563.81,-107.5 563.81,-114.5"/>
</a>
</g>
</g>
<!-- Node20 -->
<g id="Node000020" class="node">
<title>Node20</title>
<g id="a_Node000020"><a xlink:href="classStraightBlock.html#aacbbde91378d4e080c3ca2cf0c4f801a" target="_top" xlink:title="Calcule la distance de Haversine entre deux points WGS&#45;84.">
<polygon fill="white" stroke="#666666" points="948,-126 812,-126 812,-96 948,-96 948,-126"/>
<text text-anchor="start" x="820" y="-114" font-family="Helvetica,sans-Serif" font-size="10.00">StraightBlock::haversine</text>
<text text-anchor="middle" x="880" y="-103" font-family="Helvetica,sans-Serif" font-size="10.00">DistanceMeters</text>
</a>
</g>
</g>
<!-- Node19&#45;&gt;Node20 -->
<g id="edge22_Node000019_Node000020" class="edge">
<title>Node19&#45;&gt;Node20</title>
<g id="a_edge22_Node000019_Node000020"><a xlink:title=" ">
<path fill="none" stroke="#63b8ff" d="M750.23,-111C767.2,-111 784.88,-111 801.51,-111"/>
<polygon fill="#63b8ff" stroke="#63b8ff" points="801.71,-114.5 811.71,-111 801.71,-107.5 801.71,-114.5"/>
</a>
</g>
</g>
</g>
</svg>
