<?xml version="1.0" encoding="UTF-8" standalone="no"?>
<!DOCTYPE svg PUBLIC "-//W3C//DTD SVG 1.1//EN"
 "http://www.w3.org/Graphics/SVG/1.1/DTD/svg11.dtd">
<!-- Generated by graphviz version 2.43.0 (0)
 -->
<!-- Title: MainWindow Pages: 1 -->
<svg width="356pt" height="939pt"
 viewBox="0.00 0.00 356.00 939.00" xmlns="http://www.w3.org/2000/svg" xmlns:xlink="http://www.w3.org/1999/xlink">
<g id="graph0" class="graph" transform="scale(1 1) rotate(0) translate(4 935)">
<title>MainWindow</title>
<!-- Node1 -->
<g id="Node000001" class="node">
<title>Node1</title>
<g id="a_Node000001"><a xlink:title="Fenêtre principale de l&#39;application SimulateurFerroviaire.">
<polygon fill="#999999" stroke="transparent" points="199,-259 81,-259 81,0 199,0 199,-259"/>
<text text-anchor="start" x="108" y="-246.5" font-family="Helvetica,sans-Serif" font-size="10.00">MainWindow</text>
<text text-anchor="start" x="87.5" y="-231.5" font-family="Helvetica,sans-Serif" font-size="10.00">&#45;</text>
<text text-anchor="start" x="98" y="-231.5" font-family="Helvetica,sans-Serif" font-size="10.00">m_hWnd</text>
<text text-anchor="start" x="87.5" y="-216.5" font-family="Helvetica,sans-Serif" font-size="10.00">&#45;</text>
<text text-anchor="start" x="98" y="-216.5" font-family="Helvetica,sans-Serif" font-size="10.00">m_hInstance</text>
<text text-anchor="start" x="87.5" y="-201.5" font-family="Helvetica,sans-Serif" font-size="10.00">&#45;</text>
<text text-anchor="start" x="98" y="-201.5" font-family="Helvetica,sans-Serif" font-size="10.00">m_className</text>
<text text-anchor="start" x="87.5" y="-186.5" font-family="Helvetica,sans-Serif" font-size="10.00">&#45;</text>
<text text-anchor="start" x="98" y="-186.5" font-family="Helvetica,sans-Serif" font-size="10.00">m_title</text>
<text text-anchor="start" x="87.5" y="-171.5" font-family="Helvetica,sans-Serif" font-size="10.00">&#45;</text>
<text text-anchor="start" x="98" y="-171.5" font-family="Helvetica,sans-Serif" font-size="10.00">m_nCmdShow</text>
<text text-anchor="start" x="85" y="-156.5" font-family="Helvetica,sans-Serif" font-size="10.00">+</text>
<text text-anchor="start" x="98" y="-156.5" font-family="Helvetica,sans-Serif" font-size="10.00">MainWindow()</text>
<text text-anchor="start" x="85" y="-141.5" font-family="Helvetica,sans-Serif" font-size="10.00">+</text>
<text text-anchor="start" x="98" y="-141.5" font-family="Helvetica,sans-Serif" font-size="10.00">create()</text>
<text text-anchor="start" x="85" y="-126.5" font-family="Helvetica,sans-Serif" font-size="10.00">+</text>
<text text-anchor="start" x="98" y="-126.5" font-family="Helvetica,sans-Serif" font-size="10.00">windowProc()</text>
<text text-anchor="start" x="87.5" y="-111.5" font-family="Helvetica,sans-Serif" font-size="10.00">&#45;</text>
<text text-anchor="start" x="98" y="-111.5" font-family="Helvetica,sans-Serif" font-size="10.00">handleMessage()</text>
<text text-anchor="start" x="87.5" y="-96.5" font-family="Helvetica,sans-Serif" font-size="10.00">&#45;</text>
<text text-anchor="start" x="98" y="-96.5" font-family="Helvetica,sans-Serif" font-size="10.00">onCommand()</text>
<text text-anchor="start" x="87.5" y="-81.5" font-family="Helvetica,sans-Serif" font-size="10.00">&#45;</text>
<text text-anchor="start" x="98" y="-81.5" font-family="Helvetica,sans-Serif" font-size="10.00">onProgressUpdate()</text>
<text text-anchor="start" x="87.5" y="-66.5" font-family="Helvetica,sans-Serif" font-size="10.00">&#45;</text>
<text text-anchor="start" x="98" y="-66.5" font-family="Helvetica,sans-Serif" font-size="10.00">onParsingSuccess()</text>
<text text-anchor="start" x="87.5" y="-51.5" font-family="Helvetica,sans-Serif" font-size="10.00">&#45;</text>
<text text-anchor="start" x="98" y="-51.5" font-family="Helvetica,sans-Serif" font-size="10.00">onParsingError()</text>
<text text-anchor="start" x="87.5" y="-36.5" font-family="Helvetica,sans-Serif" font-size="10.00">&#45;</text>
<text text-anchor="start" x="98" y="-36.5" font-family="Helvetica,sans-Serif" font-size="10.00">onFileOpen()</text>
<text text-anchor="start" x="87.5" y="-21.5" font-family="Helvetica,sans-Serif" font-size="10.00">&#45;</text>
<text text-anchor="start" x="98" y="-21.5" font-family="Helvetica,sans-Serif" font-size="10.00">onSizeUpdate()</text>
<text text-anchor="start" x="87.5" y="-6.5" font-family="Helvetica,sans-Serif" font-size="10.00">&#45;</text>
<text text-anchor="start" x="98" y="-6.5" font-family="Helvetica,sans-Serif" font-size="10.00">onDestroy()</text>
<polygon fill="#666666" stroke="#666666" points="81,-241.5 81,-241.5 199,-241.5 199,-241.5 81,-241.5"/>
<polygon fill="#666666" stroke="#666666" points="81,-166.5 81,-166.5 96,-166.5 96,-166.5 81,-166.5"/>
<polygon fill="#666666" stroke="#666666" points="96,-166.5 96,-166.5 199,-166.5 199,-166.5 96,-166.5"/>
<polygon fill="none" stroke="#666666" points="81,0 81,-259 199,-259 199,0 81,0"/>
</a>
</g>
</g>
<!-- Node2 -->
<g id="Node000002" class="node">
<title>Node2</title>
<g id="a_Node000002"><a xlink:href="classProgressBar.html" target="_top" xlink:title=" ">
<polygon fill="white" stroke="transparent" points="88,-497.5 0,-497.5 0,-403.5 88,-403.5 88,-497.5"/>
<text text-anchor="start" x="14.5" y="-485.5" font-family="Helvetica,sans-Serif" font-size="10.00">ProgressBar</text>
<text text-anchor="start" x="6.5" y="-470.5" font-family="Helvetica,sans-Serif" font-size="10.00">&#45;</text>
<text text-anchor="start" x="17" y="-470.5" font-family="Helvetica,sans-Serif" font-size="10.00">m_hwnd</text>
<text text-anchor="start" x="4" y="-455.5" font-family="Helvetica,sans-Serif" font-size="10.00">+</text>
<text text-anchor="start" x="17" y="-455.5" font-family="Helvetica,sans-Serif" font-size="10.00">ProgressBar()</text>
<text text-anchor="start" x="4" y="-440.5" font-family="Helvetica,sans-Serif" font-size="10.00">+</text>
<text text-anchor="start" x="17" y="-440.5" font-family="Helvetica,sans-Serif" font-size="10.00">create()</text>
<text text-anchor="start" x="4" y="-425.5" font-family="Helvetica,sans-Serif" font-size="10.00">+</text>
<text text-anchor="start" x="17" y="-425.5" font-family="Helvetica,sans-Serif" font-size="10.00">setProgress()</text>
<text text-anchor="start" x="4" y="-410.5" font-family="Helvetica,sans-Serif" font-size="10.00">+</text>
<text text-anchor="start" x="17" y="-410.5" font-family="Helvetica,sans-Serif" font-size="10.00">show()</text>
<polygon fill="#666666" stroke="#666666" points="0,-480.5 0,-480.5 88,-480.5 88,-480.5 0,-480.5"/>
<polygon fill="#666666" stroke="#666666" points="0,-465.5 0,-465.5 15,-465.5 15,-465.5 0,-465.5"/>
<polygon fill="#666666" stroke="#666666" points="15,-465.5 15,-465.5 88,-465.5 88,-465.5 15,-465.5"/>
<polygon fill="none" stroke="#666666" points="0,-403.5 0,-497.5 88,-497.5 88,-403.5 0,-403.5"/>
</a>
</g>
</g>
<!-- Node2&#45;&gt;Node1 -->
<g id="edge1_Node000001_Node000002" class="edge">
<title>Node2&#45;&gt;Node1</title>
<g id="a_edge1_Node000001_Node000002"><a xlink:title=" ">
<path fill="none" stroke="#63b8ff" d="M37.35,-403.43C33.88,-368.08 32.6,-318.46 45,-277 51.48,-255.34 62.25,-233.86 74.26,-214.3"/>
<polygon fill="none" stroke="#63b8ff" points="74.4,-214.08 74.24,-206.87 80.83,-203.95 80.99,-211.16 74.4,-214.08"/>
</a>
</g>
<text text-anchor="middle" x="85.5" y="-280" font-family="Helvetica,sans-Serif" font-size="10.00" fill="grey"> &#45;m_progressBar</text>
</g>
<!-- Node3 -->
<g id="Node000003" class="node">
<title>Node3</title>
<g id="a_Node000003"><a xlink:href="classLogger.html" target="_top" xlink:title="Journaliseur associé à un moteur nommé.">
<polygon fill="white" stroke="transparent" points="253,-931 117,-931 117,-642 253,-642 253,-931"/>
<text text-anchor="start" x="168" y="-918.5" font-family="Helvetica,sans-Serif" font-size="10.00">Logger</text>
<text text-anchor="start" x="123.5" y="-903.5" font-family="Helvetica,sans-Serif" font-size="10.00">&#45;</text>
<text text-anchor="start" x="134" y="-903.5" font-family="Helvetica,sans-Serif" font-size="10.00">m_motorName</text>
<text text-anchor="start" x="123.5" y="-888.5" font-family="Helvetica,sans-Serif" font-size="10.00">&#45;</text>
<text text-anchor="start" x="134" y="-888.5" font-family="Helvetica,sans-Serif" font-size="10.00">m_outputFile</text>
<text text-anchor="start" x="123.5" y="-873.5" font-family="Helvetica,sans-Serif" font-size="10.00">&#45;</text>
<text text-anchor="start" x="134" y="-873.5" font-family="Helvetica,sans-Serif" font-size="10.00">m_writeMutex</text>
<text text-anchor="start" x="123.5" y="-858.5" font-family="Helvetica,sans-Serif" font-size="10.00">&#45;</text>
<text text-anchor="start" x="134" y="-858.5" font-family="Helvetica,sans-Serif" font-size="10.00">m_minimumLevel</text>
<text text-anchor="start" x="121" y="-843.5" font-family="Helvetica,sans-Serif" font-size="10.00">+</text>
<text text-anchor="start" x="134" y="-843.5" font-family="Helvetica,sans-Serif" font-size="10.00">Logger()</text>
<text text-anchor="start" x="121" y="-828.5" font-family="Helvetica,sans-Serif" font-size="10.00">+</text>
<text text-anchor="start" x="134" y="-828.5" font-family="Helvetica,sans-Serif" font-size="10.00">~Logger()</text>
<text text-anchor="start" x="121" y="-813.5" font-family="Helvetica,sans-Serif" font-size="10.00">+</text>
<text text-anchor="start" x="134" y="-813.5" font-family="Helvetica,sans-Serif" font-size="10.00">Logger()</text>
<text text-anchor="start" x="121" y="-798.5" font-family="Helvetica,sans-Serif" font-size="10.00">+</text>
<text text-anchor="start" x="134" y="-798.5" font-family="Helvetica,sans-Serif" font-size="10.00">operator=()</text>
<text text-anchor="start" x="121" y="-783.5" font-family="Helvetica,sans-Serif" font-size="10.00">+</text>
<text text-anchor="start" x="134" y="-783.5" font-family="Helvetica,sans-Serif" font-size="10.00">writeLog()</text>
<text text-anchor="start" x="121" y="-768.5" font-family="Helvetica,sans-Serif" font-size="10.00">+</text>
<text text-anchor="start" x="134" y="-768.5" font-family="Helvetica,sans-Serif" font-size="10.00">setMinimumLogLevel()</text>
<text text-anchor="start" x="121" y="-753.5" font-family="Helvetica,sans-Serif" font-size="10.00">+</text>
<text text-anchor="start" x="134" y="-753.5" font-family="Helvetica,sans-Serif" font-size="10.00">getMotorName()</text>
<text text-anchor="start" x="121" y="-738.5" font-family="Helvetica,sans-Serif" font-size="10.00">+</text>
<text text-anchor="start" x="134" y="-738.5" font-family="Helvetica,sans-Serif" font-size="10.00">triggerFatalCrash()</text>
<text text-anchor="start" x="123.5" y="-723.5" font-family="Helvetica,sans-Serif" font-size="10.00">&#45;</text>
<text text-anchor="start" x="134" y="-723.5" font-family="Helvetica,sans-Serif" font-size="10.00">extractClassName()</text>
<text text-anchor="start" x="123.5" y="-708.5" font-family="Helvetica,sans-Serif" font-size="10.00">&#45;</text>
<text text-anchor="start" x="134" y="-708.5" font-family="Helvetica,sans-Serif" font-size="10.00">extractFunctionName()</text>
<text text-anchor="start" x="123.5" y="-693.5" font-family="Helvetica,sans-Serif" font-size="10.00">&#45;</text>
<text text-anchor="start" x="134" y="-693.5" font-family="Helvetica,sans-Serif" font-size="10.00">formatLogLine()</text>
<text text-anchor="start" x="123.5" y="-678.5" font-family="Helvetica,sans-Serif" font-size="10.00">&#45;</text>
<text text-anchor="start" x="134" y="-678.5" font-family="Helvetica,sans-Serif" font-size="10.00">levelToString()</text>
<text text-anchor="start" x="123.5" y="-663.5" font-family="Helvetica,sans-Serif" font-size="10.00">&#45;</text>
<text text-anchor="start" x="134" y="-663.5" font-family="Helvetica,sans-Serif" font-size="10.00">getCurrentTimestamp()</text>
<text text-anchor="start" x="123.5" y="-648.5" font-family="Helvetica,sans-Serif" font-size="10.00">&#45;</text>
<text text-anchor="start" x="134" y="-648.5" font-family="Helvetica,sans-Serif" font-size="10.00">sendToDebugOutput()</text>
<polygon fill="#666666" stroke="#666666" points="117,-913.5 117,-913.5 253,-913.5 253,-913.5 117,-913.5"/>
<polygon fill="#666666" stroke="#666666" points="117,-853.5 117,-853.5 132,-853.5 132,-853.5 117,-853.5"/>
<polygon fill="#666666" stroke="#666666" points="132,-853.5 132,-853.5 253,-853.5 253,-853.5 132,-853.5"/>
<polygon fill="none" stroke="#666666" points="117,-642 117,-931 253,-931 253,-642 117,-642"/>
</a>
</g>
</g>
<!-- Node3&#45;&gt;Node1 -->
<g id="edge2_Node000001_Node000003" class="edge">
<title>Node3&#45;&gt;Node1</title>
<g id="a_edge2_Node000001_Node000003"><a xlink:title=" ">
<path fill="none" stroke="#63b8ff" d="M155.2,-641.81C152.73,-626.07 150.58,-610.23 149,-595 137.8,-486.74 135.91,-363.55 136.62,-271.25"/>
<polygon fill="none" stroke="#63b8ff" points="136.62,-271.01 132.68,-264.97 136.73,-259.01 140.68,-265.04 136.62,-271.01"/>
</a>
</g>
<text text-anchor="middle" x="186" y="-448" font-family="Helvetica,sans-Serif" font-size="10.00" fill="grey"> &#45;m_hmiLogger</text>
</g>
<!-- Node4 -->
<g id="Node000004" class="node">
<title>Node4</title>
<g id="a_Node000004"><a xlink:href="classWebViewPanel.html" target="_top" xlink:title="Wrapper Win32 autour de WebView2 pour affichage HTML embarqué.">
<polygon fill="white" stroke="transparent" points="348,-595 232,-595 232,-306 348,-306 348,-595"/>
<text text-anchor="start" x="254" y="-582.5" font-family="Helvetica,sans-Serif" font-size="10.00">WebViewPanel</text>
<text text-anchor="start" x="238.5" y="-567.5" font-family="Helvetica,sans-Serif" font-size="10.00">&#45;</text>
<text text-anchor="start" x="249" y="-567.5" font-family="Helvetica,sans-Serif" font-size="10.00">m_parentHwnd</text>
<text text-anchor="start" x="238.5" y="-552.5" font-family="Helvetica,sans-Serif" font-size="10.00">&#45;</text>
<text text-anchor="start" x="249" y="-552.5" font-family="Helvetica,sans-Serif" font-size="10.00">m_controller</text>
<text text-anchor="start" x="238.5" y="-537.5" font-family="Helvetica,sans-Serif" font-size="10.00">&#45;</text>
<text text-anchor="start" x="249" y="-537.5" font-family="Helvetica,sans-Serif" font-size="10.00">m_webview</text>
<text text-anchor="start" x="238.5" y="-522.5" font-family="Helvetica,sans-Serif" font-size="10.00">&#45;</text>
<text text-anchor="start" x="249" y="-522.5" font-family="Helvetica,sans-Serif" font-size="10.00">m_isInitialized</text>
<text text-anchor="start" x="238.5" y="-507.5" font-family="Helvetica,sans-Serif" font-size="10.00">&#45;</text>
<text text-anchor="start" x="249" y="-507.5" font-family="Helvetica,sans-Serif" font-size="10.00">m_onInitialized</text>
<text text-anchor="start" x="236" y="-492.5" font-family="Helvetica,sans-Serif" font-size="10.00">+</text>
<text text-anchor="start" x="249" y="-492.5" font-family="Helvetica,sans-Serif" font-size="10.00">WebViewPanel()</text>
<text text-anchor="start" x="236" y="-477.5" font-family="Helvetica,sans-Serif" font-size="10.00">+</text>
<text text-anchor="start" x="249" y="-477.5" font-family="Helvetica,sans-Serif" font-size="10.00">~WebViewPanel()</text>
<text text-anchor="start" x="236" y="-462.5" font-family="Helvetica,sans-Serif" font-size="10.00">+</text>
<text text-anchor="start" x="249" y="-462.5" font-family="Helvetica,sans-Serif" font-size="10.00">WebViewPanel()</text>
<text text-anchor="start" x="236" y="-447.5" font-family="Helvetica,sans-Serif" font-size="10.00">+</text>
<text text-anchor="start" x="249" y="-447.5" font-family="Helvetica,sans-Serif" font-size="10.00">operator=()</text>
<text text-anchor="start" x="236" y="-432.5" font-family="Helvetica,sans-Serif" font-size="10.00">+</text>
<text text-anchor="start" x="249" y="-432.5" font-family="Helvetica,sans-Serif" font-size="10.00">create()</text>
<text text-anchor="start" x="236" y="-417.5" font-family="Helvetica,sans-Serif" font-size="10.00">+</text>
<text text-anchor="start" x="249" y="-417.5" font-family="Helvetica,sans-Serif" font-size="10.00">resize()</text>
<text text-anchor="start" x="236" y="-402.5" font-family="Helvetica,sans-Serif" font-size="10.00">+</text>
<text text-anchor="start" x="249" y="-402.5" font-family="Helvetica,sans-Serif" font-size="10.00">navigate()</text>
<text text-anchor="start" x="236" y="-387.5" font-family="Helvetica,sans-Serif" font-size="10.00">+</text>
<text text-anchor="start" x="249" y="-387.5" font-family="Helvetica,sans-Serif" font-size="10.00">navigateToString()</text>
<text text-anchor="start" x="236" y="-372.5" font-family="Helvetica,sans-Serif" font-size="10.00">+</text>
<text text-anchor="start" x="249" y="-372.5" font-family="Helvetica,sans-Serif" font-size="10.00">isInitialized()</text>
<text text-anchor="start" x="236" y="-357.5" font-family="Helvetica,sans-Serif" font-size="10.00">+</text>
<text text-anchor="start" x="249" y="-357.5" font-family="Helvetica,sans-Serif" font-size="10.00">executeScript()</text>
<text text-anchor="start" x="236" y="-342.5" font-family="Helvetica,sans-Serif" font-size="10.00">+</text>
<text text-anchor="start" x="249" y="-342.5" font-family="Helvetica,sans-Serif" font-size="10.00">setOnInitialized()</text>
<text text-anchor="start" x="236" y="-327.5" font-family="Helvetica,sans-Serif" font-size="10.00">+</text>
<text text-anchor="start" x="249" y="-327.5" font-family="Helvetica,sans-Serif" font-size="10.00">close()</text>
<text text-anchor="start" x="238.5" y="-312.5" font-family="Helvetica,sans-Serif" font-size="10.00">&#45;</text>
<text text-anchor="start" x="249" y="-312.5" font-family="Helvetica,sans-Serif" font-size="10.00">initializeWebView()</text>
<polygon fill="#666666" stroke="#666666" points="232,-577.5 232,-577.5 348,-577.5 348,-577.5 232,-577.5"/>
<polygon fill="#666666" stroke="#666666" points="232,-502.5 232,-502.5 247,-502.5 247,-502.5 232,-502.5"/>
<polygon fill="#666666" stroke="#666666" points="247,-502.5 247,-502.5 348,-502.5 348,-502.5 247,-502.5"/>
<polygon fill="none" stroke="#666666" points="232,-306 232,-595 348,-595 348,-306 232,-306"/>
</a>
</g>
</g>
<!-- Node3&#45;&gt;Node4 -->
<g id="edge4_Node000004_Node000003" class="edge">
<title>Node3&#45;&gt;Node4</title>
<g id="a_edge4_Node000004_Node000003"><a xlink:title=" ">
<path fill="none" stroke="#63b8ff" d="M230.14,-641.92C233.79,-630.31 237.48,-618.56 241.15,-606.88"/>
<polygon fill="none" stroke="#63b8ff" points="241.22,-606.68 239.2,-599.75 244.82,-595.23 246.83,-602.15 241.22,-606.68"/>
</a>
</g>
<text text-anchor="middle" x="263.5" y="-616" font-family="Helvetica,sans-Serif" font-size="10.00" fill="grey"> &#45;m_logger</text>
</g>
<!-- Node4&#45;&gt;Node1 -->
<g id="edge3_Node000001_Node000004" class="edge">
<title>Node4&#45;&gt;Node1</title>
<g id="a_edge3_Node000001_Node000004"><a xlink:title=" ">
<path fill="none" stroke="#63b8ff" d="M231.79,-325.71C222.77,-306.52 213.4,-286.59 204.25,-267.13"/>
<polygon fill="none" stroke="#63b8ff" points="204.15,-266.92 197.97,-263.19 199.04,-256.06 205.21,-259.79 204.15,-266.92"/>
</a>
</g>
<text text-anchor="middle" x="257.5" y="-280" font-family="Helvetica,sans-Serif" font-size="10.00" fill="grey"> &#45;m_webViewPanel</text>
</g>
</g>
</svg>
