<?xml version="1.0" encoding="UTF-8" standalone="no"?>
<!DOCTYPE svg PUBLIC "-//W3C//DTD SVG 1.1//EN"
 "http://www.w3.org/Graphics/SVG/1.1/DTD/svg11.dtd">
<!-- Generated by graphviz version 2.43.0 (0)
 -->
<!-- Title: SimulateurFerroviaire/Engine/HMI Pages: 1 -->
<svg width="288pt" height="196pt"
 viewBox="0.00 0.00 288.00 196.00" xmlns="http://www.w3.org/2000/svg" xmlns:xlink="http://www.w3.org/1999/xlink">
<g id="graph0" class="graph" transform="scale(1 1) rotate(0) translate(4 192)">
<title>SimulateurFerroviaire/Engine/HMI</title>
<g id="clust1" class="cluster">
<title>clusterdir_b70de4a9b2a9f967d011983a1fdf80d1</title>
<g id="a_clust1"><a xlink:href="dir_b70de4a9b2a9f967d011983a1fdf80d1.html" target="_top" xlink:title="Engine">
<polygon fill="#edf0f7" stroke="#7f7f7f" stroke-dasharray="5,2" points="8,-8 8,-180 212,-180 212,-8 8,-8"/>
<text text-anchor="middle" x="110" y="-168" font-family="Helvetica,sans-Serif" font-size="10.00">Engine</text>
</a>
</g>
</g>
<g id="clust2" class="cluster">
<title>clusterdir_fa749c79e99d4161e054d79886d12aa3</title>
<g id="a_clust2"><a xlink:href="dir_fa749c79e99d4161e054d79886d12aa3.html" target="_top">
<polygon fill="#edf0f7" stroke="#404040" stroke-width="2" points="16,-63 16,-153 192,-153 192,-63 16,-63"/>
</a>
</g>
</g>
<!-- dir_db532fcf2b7ab198586d05907cd2a60c -->
<g id="node1" class="node">
<title>dir_db532fcf2b7ab198586d05907cd2a60c</title>
<g id="a_node1"><a xlink:href="dir_db532fcf2b7ab198586d05907cd2a60c.html" target="_top" xlink:title="Core">
<polygon fill="#a2b4d6" stroke="red" points="181.5,-35 142.5,-35 142.5,-16 181.5,-16 181.5,-35"/>
<text text-anchor="middle" x="162" y="-23" font-family="Helvetica,sans-Serif" font-size="10.00">Core</text>
</a>
</g>
</g>
<!-- dir_fa749c79e99d4161e054d79886d12aa3 -->
<g id="node2" class="node">
<title>dir_fa749c79e99d4161e054d79886d12aa3</title>
<text text-anchor="middle" x="153" y="-133" font-family="Helvetica,sans-Serif" font-size="10.00">HMI</text>
</g>
<!-- dir_fa749c79e99d4161e054d79886d12aa3&#45;&gt;dir_db532fcf2b7ab198586d05907cd2a60c -->
<g id="edge4" class="edge">
<title>dir_fa749c79e99d4161e054d79886d12aa3&#45;&gt;dir_db532fcf2b7ab198586d05907cd2a60c</title>
<g id="a_edge4"><a xlink:href="dir_000009_000000.html" target="_top">
<path fill="none" stroke="#63b8ff" d="M164.64,-125.73C174.31,-117.67 187.35,-104.74 193,-90 197.3,-78.8 197.14,-74.26 193,-63 190.2,-55.38 185.03,-48.27 179.7,-42.38"/>
<polygon fill="#63b8ff" stroke="#63b8ff" points="182.08,-39.8 172.55,-35.18 177.11,-44.74 182.08,-39.8"/>
</a>
</g>
<g id="a_edge4&#45;headlabel"><a xlink:href="dir_000009_000000.html" target="_top" xlink:title="2">
<text text-anchor="middle" x="186.62" y="-37.85" font-family="Helvetica,sans-Serif" font-size="10.00" fill="#63b8ff">2</text>
</a>
</g>
</g>
<!-- dir_4c1c7a346f82d27fa8dc7bdfc7d4df65 -->
<g id="node3" class="node">
<title>dir_4c1c7a346f82d27fa8dc7bdfc7d4df65</title>
<g id="a_node3"><a xlink:href="dir_4c1c7a346f82d27fa8dc7bdfc7d4df65.html" target="_top" xlink:title="Dialogs">
<polygon fill="#a2b4d6" stroke="#404040" points="77.5,-90 24.5,-90 24.5,-71 77.5,-71 77.5,-90"/>
<text text-anchor="middle" x="51" y="-78" font-family="Helvetica,sans-Serif" font-size="10.00">Dialogs</text>
</a>
</g>
</g>
<!-- dir_fa749c79e99d4161e054d79886d12aa3&#45;&gt;dir_4c1c7a346f82d27fa8dc7bdfc7d4df65 -->
<g id="edge3" class="edge">
<title>dir_fa749c79e99d4161e054d79886d12aa3&#45;&gt;dir_4c1c7a346f82d27fa8dc7bdfc7d4df65</title>
<g id="a_edge3"><a xlink:href="dir_000009_000001.html" target="_top">
<path fill="none" stroke="#63b8ff" d="M136.61,-125.98C120.43,-117.57 95.43,-104.59 76.62,-94.81"/>
<polygon fill="#63b8ff" stroke="#63b8ff" points="78.17,-91.68 67.69,-90.17 74.95,-97.89 78.17,-91.68"/>
</a>
</g>
<g id="a_edge3&#45;headlabel"><a xlink:href="dir_000009_000001.html" target="_top" xlink:title="2">
<text text-anchor="middle" x="82.67" y="-88.31" font-family="Helvetica,sans-Serif" font-size="10.00" fill="#63b8ff">2</text>
</a>
</g>
</g>
<!-- dir_29002af622f034b8e7f3d38226cac7e0 -->
<g id="node4" class="node">
<title>dir_29002af622f034b8e7f3d38226cac7e0</title>
<g id="a_node4"><a xlink:href="dir_29002af622f034b8e7f3d38226cac7e0.html" target="_top" xlink:title="WebViewPanel">
<polygon fill="#a2b4d6" stroke="#404040" points="184,-90 96,-90 96,-71 184,-71 184,-90"/>
<text text-anchor="middle" x="140" y="-78" font-family="Helvetica,sans-Serif" font-size="10.00">WebViewPanel</text>
</a>
</g>
</g>
<!-- dir_fa749c79e99d4161e054d79886d12aa3&#45;&gt;dir_29002af622f034b8e7f3d38226cac7e0 -->
<g id="edge1" class="edge">
<title>dir_fa749c79e99d4161e054d79886d12aa3&#45;&gt;dir_29002af622f034b8e7f3d38226cac7e0</title>
<g id="a_edge1"><a xlink:href="dir_000009_000017.html" target="_top">
<path fill="none" stroke="#63b8ff" d="M150.85,-125.75C149.13,-118.72 146.65,-108.62 144.5,-99.84"/>
<polygon fill="#63b8ff" stroke="#63b8ff" points="147.89,-98.97 142.11,-90.09 141.09,-100.63 147.89,-98.97"/>
</a>
</g>
<g id="a_edge1&#45;headlabel"><a xlink:href="dir_000009_000017.html" target="_top" xlink:title="2">
<text text-anchor="middle" x="151.5" y="-99.28" font-family="Helvetica,sans-Serif" font-size="10.00" fill="#63b8ff">2</text>
</a>
</g>
</g>
<!-- dir_387a2147fe1fbdf0efef36368214e4d3 -->
<g id="node5" class="node">
<title>dir_387a2147fe1fbdf0efef36368214e4d3</title>
<g id="a_node5"><a xlink:href="dir_387a2147fe1fbdf0efef36368214e4d3.html" target="_top" xlink:title="Modules">
<polygon fill="#edf0f7" stroke="red" stroke-dasharray="5,2" points="280,-90 222,-90 222,-71 280,-71 280,-90"/>
<text text-anchor="middle" x="251" y="-78" font-family="Helvetica,sans-Serif" font-size="10.00">Modules</text>
</a>
</g>
</g>
<!-- dir_fa749c79e99d4161e054d79886d12aa3&#45;&gt;dir_387a2147fe1fbdf0efef36368214e4d3 -->
<g id="edge2" class="edge">
<title>dir_fa749c79e99d4161e054d79886d12aa3&#45;&gt;dir_387a2147fe1fbdf0efef36368214e4d3</title>
<g id="a_edge2"><a xlink:href="dir_000009_000014.html" target="_top">
<path fill="none" stroke="#63b8ff" d="M168.75,-125.98C184.23,-117.61 208.09,-104.7 226.14,-94.95"/>
<polygon fill="#63b8ff" stroke="#63b8ff" points="227.84,-98.01 234.97,-90.17 224.51,-91.85 227.84,-98.01"/>
</a>
</g>
<g id="a_edge2&#45;headlabel"><a xlink:href="dir_000009_000014.html" target="_top" xlink:title="1">
<text text-anchor="middle" x="226.03" y="-99.71" font-family="Helvetica,sans-Serif" font-size="10.00" fill="#63b8ff">1</text>
</a>
</g>
</g>
<!-- dir_29002af622f034b8e7f3d38226cac7e0&#45;&gt;dir_db532fcf2b7ab198586d05907cd2a60c -->
<g id="edge5" class="edge">
<title>dir_29002af622f034b8e7f3d38226cac7e0&#45;&gt;dir_db532fcf2b7ab198586d05907cd2a60c</title>
<g id="a_edge5"><a xlink:href="dir_000017_000000.html" target="_top">
<path fill="none" stroke="#63b8ff" d="M143.63,-70.75C146.58,-63.65 150.83,-53.4 154.51,-44.56"/>
<polygon fill="#63b8ff" stroke="#63b8ff" points="157.83,-45.67 158.43,-35.09 151.37,-42.98 157.83,-45.67"/>
</a>
</g>
<g id="a_edge5&#45;headlabel"><a xlink:href="dir_000017_000000.html" target="_top" xlink:title="1">
<text text-anchor="middle" x="159.08" y="-47.58" font-family="Helvetica,sans-Serif" font-size="10.00" fill="#63b8ff">1</text>
</a>
</g>
</g>
</g>
</svg>
