<?xml version="1.0" encoding="UTF-8" standalone="no"?>
<!DOCTYPE svg PUBLIC "-//W3C//DTD SVG 1.1//EN"
 "http://www.w3.org/Graphics/SVG/1.1/DTD/svg11.dtd">
<!-- Generated by graphviz version 2.43.0 (0)
 -->
<!-- Title: SimulateurFerroviaire/Modules Pages: 1 -->
<svg width="146pt" height="196pt"
 viewBox="0.00 0.00 146.00 196.00" xmlns="http://www.w3.org/2000/svg" xmlns:xlink="http://www.w3.org/1999/xlink">
<g id="graph0" class="graph" transform="scale(1 1) rotate(0) translate(4 192)">
<title>SimulateurFerroviaire/Modules</title>
<g id="clust1" class="cluster">
<title>clusterdir_d428d88fda432bf3dacc8225448b283a</title>
<g id="a_clust1"><a xlink:href="dir_d428d88fda432bf3dacc8225448b283a.html" target="_top" xlink:title="SimulateurFerroviaire">
<polygon fill="#edf0f7" stroke="#404040" stroke-dasharray="5,2" points="8,-8 8,-180 130,-180 130,-8 8,-8"/>
<text text-anchor="middle" x="69" y="-168" font-family="Helvetica,sans-Serif" font-size="10.00">SimulateurFerroviaire</text>
</a>
</g>
</g>
<g id="clust2" class="cluster">
<title>clusterdir_387a2147fe1fbdf0efef36368214e4d3</title>
<g id="a_clust2"><a xlink:href="dir_387a2147fe1fbdf0efef36368214e4d3.html" target="_top">
<polygon fill="#edf0f7" stroke="#404040" stroke-width="2" points="22,-63 22,-153 104,-153 104,-63 22,-63"/>
</a>
</g>
</g>
<!-- dir_b70de4a9b2a9f967d011983a1fdf80d1 -->
<g id="node1" class="node">
<title>dir_b70de4a9b2a9f967d011983a1fdf80d1</title>
<g id="a_node1"><a xlink:href="dir_b70de4a9b2a9f967d011983a1fdf80d1.html" target="_top" xlink:title="Engine">
<polygon fill="#a2b4d6" stroke="red" points="105,-35 55,-35 55,-16 105,-16 105,-35"/>
<text text-anchor="middle" x="80" y="-23" font-family="Helvetica,sans-Serif" font-size="10.00">Engine</text>
</a>
</g>
</g>
<!-- dir_387a2147fe1fbdf0efef36368214e4d3 -->
<g id="node2" class="node">
<title>dir_387a2147fe1fbdf0efef36368214e4d3</title>
<text text-anchor="middle" x="65" y="-133" font-family="Helvetica,sans-Serif" font-size="10.00">Modules</text>
</g>
<!-- dir_387a2147fe1fbdf0efef36368214e4d3&#45;&gt;dir_b70de4a9b2a9f967d011983a1fdf80d1 -->
<g id="edge2" class="edge">
<title>dir_387a2147fe1fbdf0efef36368214e4d3&#45;&gt;dir_b70de4a9b2a9f967d011983a1fdf80d1</title>
<g id="a_edge2"><a xlink:href="dir_000010_000002.html" target="_top">
<path fill="none" stroke="#63b8ff" d="M76.64,-125.73C86.31,-117.67 99.35,-104.74 105,-90 109.3,-78.8 108.55,-74.46 105,-63 102.85,-56.07 98.88,-49.28 94.73,-43.47"/>
<polygon fill="#63b8ff" stroke="#63b8ff" points="97.22,-40.98 88.29,-35.28 91.72,-45.3 97.22,-40.98"/>
</a>
</g>
<g id="a_edge2&#45;headlabel"><a xlink:href="dir_000010_000002.html" target="_top" xlink:title="6">
<text text-anchor="middle" x="101.68" y="-39.55" font-family="Helvetica,sans-Serif" font-size="10.00" fill="#63b8ff">6</text>
</a>
</g>
</g>
<!-- dir_a02795b5ac40d9afe5fe94a3ec34902b -->
<g id="node3" class="node">
<title>dir_a02795b5ac40d9afe5fe94a3ec34902b</title>
<g id="a_node3"><a xlink:href="dir_a02795b5ac40d9afe5fe94a3ec34902b.html" target="_top" xlink:title="GeoParser">
<polygon fill="#a2b4d6" stroke="#404040" points="96,-90 30,-90 30,-71 96,-71 96,-90"/>
<text text-anchor="middle" x="63" y="-78" font-family="Helvetica,sans-Serif" font-size="10.00">GeoParser</text>
</a>
</g>
</g>
<!-- dir_387a2147fe1fbdf0efef36368214e4d3&#45;&gt;dir_a02795b5ac40d9afe5fe94a3ec34902b -->
<g id="edge1" class="edge">
<title>dir_387a2147fe1fbdf0efef36368214e4d3&#45;&gt;dir_a02795b5ac40d9afe5fe94a3ec34902b</title>
<g id="a_edge1"><a xlink:href="dir_000010_000005.html" target="_top">
<path fill="none" stroke="#63b8ff" d="M64.67,-125.75C64.41,-118.8 64.03,-108.85 63.7,-100.13"/>
<polygon fill="#63b8ff" stroke="#63b8ff" points="67.2,-99.95 63.32,-90.09 60.2,-100.21 67.2,-99.95"/>
</a>
</g>
<g id="a_edge1&#45;headlabel"><a xlink:href="dir_000010_000005.html" target="_top" xlink:title="30">
<text text-anchor="middle" x="70.17" y="-100.93" font-family="Helvetica,sans-Serif" font-size="10.00" fill="#63b8ff">30</text>
</a>
</g>
</g>
<!-- dir_a02795b5ac40d9afe5fe94a3ec34902b&#45;&gt;dir_b70de4a9b2a9f967d011983a1fdf80d1 -->
<g id="edge3" class="edge">
<title>dir_a02795b5ac40d9afe5fe94a3ec34902b&#45;&gt;dir_b70de4a9b2a9f967d011983a1fdf80d1</title>
<g id="a_edge3"><a xlink:href="dir_000005_000002.html" target="_top">
<path fill="none" stroke="#63b8ff" d="M65.81,-70.75C68.06,-63.72 71.3,-53.62 74.12,-44.84"/>
<polygon fill="#63b8ff" stroke="#63b8ff" points="77.52,-45.68 77.25,-35.09 70.86,-43.54 77.52,-45.68"/>
</a>
</g>
<g id="a_edge3&#45;headlabel"><a xlink:href="dir_000005_000002.html" target="_top" xlink:title="5">
<text text-anchor="middle" x="79.13" y="-47.47" font-family="Helvetica,sans-Serif" font-size="10.00" fill="#63b8ff">5</text>
</a>
</g>
</g>
</g>
</svg>
