<?xml version="1.0" encoding="UTF-8" standalone="no"?>
<!DOCTYPE svg PUBLIC "-//W3C//DTD SVG 1.1//EN"
 "http://www.w3.org/Graphics/SVG/1.1/DTD/svg11.dtd">
<!-- Generated by graphviz version 2.43.0 (0)
 -->
<!-- Title: SimulateurFerroviaire/Modules Pages: 1 -->
<svg width="256pt" height="204pt"
 viewBox="0.00 0.00 256.00 204.00" xmlns="http://www.w3.org/2000/svg" xmlns:xlink="http://www.w3.org/1999/xlink">
<g id="graph0" class="graph" transform="scale(1 1) rotate(0) translate(4 200)">
<title>SimulateurFerroviaire/Modules</title>
<g id="clust1" class="cluster">
<title>clusterdir_d428d88fda432bf3dacc8225448b283a</title>
<g id="a_clust1"><a xlink:href="dir_d428d88fda432bf3dacc8225448b283a.html" target="_top" xlink:title="SimulateurFerroviaire">
<polygon fill="#edf0f7" stroke="#404040" stroke-dasharray="5,2" points="8,-8 8,-188 240,-188 240,-8 8,-8"/>
<text text-anchor="middle" x="124" y="-176" font-family="Helvetica,sans-Serif" font-size="10.00">SimulateurFerroviaire</text>
</a>
</g>
</g>
<g id="clust2" class="cluster">
<title>clusterdir_387a2147fe1fbdf0efef36368214e4d3</title>
<g id="a_clust2"><a xlink:href="dir_387a2147fe1fbdf0efef36368214e4d3.html" target="_top">
<polygon fill="#edf0f7" stroke="#404040" stroke-width="2" points="16,-16 16,-161 174,-161 174,-16 16,-16"/>
</a>
</g>
</g>
<!-- dir_b70de4a9b2a9f967d011983a1fdf80d1 -->
<g id="node1" class="node">
<title>dir_b70de4a9b2a9f967d011983a1fdf80d1</title>
<g id="a_node1"><a xlink:href="dir_b70de4a9b2a9f967d011983a1fdf80d1.html" target="_top" xlink:title="Engine">
<polygon fill="#a2b4d6" stroke="red" points="232,-43 182,-43 182,-24 232,-24 232,-43"/>
<text text-anchor="middle" x="207" y="-31" font-family="Helvetica,sans-Serif" font-size="10.00">Engine</text>
</a>
</g>
</g>
<!-- dir_387a2147fe1fbdf0efef36368214e4d3 -->
<g id="node2" class="node">
<title>dir_387a2147fe1fbdf0efef36368214e4d3</title>
<text text-anchor="middle" x="137" y="-141" font-family="Helvetica,sans-Serif" font-size="10.00">Modules</text>
</g>
<!-- dir_230a9058c252ac18d37b1c1fb0e46130 -->
<g id="node3" class="node">
<title>dir_230a9058c252ac18d37b1c1fb0e46130</title>
<g id="a_node3"><a xlink:href="dir_230a9058c252ac18d37b1c1fb0e46130.html" target="_top" xlink:title="GeoJsonExporter">
<polygon fill="#a2b4d6" stroke="#404040" points="166,-98 68,-98 68,-79 166,-79 166,-98"/>
<text text-anchor="middle" x="117" y="-86" font-family="Helvetica,sans-Serif" font-size="10.00">GeoJsonExporter</text>
</a>
</g>
</g>
<!-- dir_230a9058c252ac18d37b1c1fb0e46130&#45;&gt;dir_b70de4a9b2a9f967d011983a1fdf80d1 -->
<g id="edge1" class="edge">
<title>dir_230a9058c252ac18d37b1c1fb0e46130&#45;&gt;dir_b70de4a9b2a9f967d011983a1fdf80d1</title>
<g id="a_edge1"><a xlink:href="dir_000007_000004.html" target="_top">
<path fill="none" stroke="#63b8ff" d="M131.46,-78.98C145.42,-70.77 166.79,-58.18 183.25,-48.49"/>
<polygon fill="#63b8ff" stroke="#63b8ff" points="185.44,-51.26 192.28,-43.17 181.88,-45.23 185.44,-51.26"/>
</a>
</g>
<g id="a_edge1&#45;headlabel"><a xlink:href="dir_000007_000004.html" target="_top" xlink:title="1">
<text text-anchor="middle" x="183.78" y="-53.03" font-family="Helvetica,sans-Serif" font-size="10.00" fill="#63b8ff">1</text>
</a>
</g>
</g>
<!-- dir_fd597c8005e72be580bea8109789120d -->
<g id="node5" class="node">
<title>dir_fd597c8005e72be580bea8109789120d</title>
<g id="a_node5"><a xlink:href="dir_fd597c8005e72be580bea8109789120d.html" target="_top" xlink:title="Models">
<polygon fill="#a2b4d6" stroke="#404040" points="109,-43 57,-43 57,-24 109,-24 109,-43"/>
<text text-anchor="middle" x="83" y="-31" font-family="Helvetica,sans-Serif" font-size="10.00">Models</text>
</a>
</g>
</g>
<!-- dir_230a9058c252ac18d37b1c1fb0e46130&#45;&gt;dir_fd597c8005e72be580bea8109789120d -->
<g id="edge2" class="edge">
<title>dir_230a9058c252ac18d37b1c1fb0e46130&#45;&gt;dir_fd597c8005e72be580bea8109789120d</title>
<g id="a_edge2"><a xlink:href="dir_000007_000014.html" target="_top">
<path fill="none" stroke="#63b8ff" d="M111.39,-78.75C106.68,-71.42 99.83,-60.73 94.03,-51.7"/>
<polygon fill="#63b8ff" stroke="#63b8ff" points="96.86,-49.62 88.51,-43.09 90.96,-53.4 96.86,-49.62"/>
</a>
</g>
<g id="a_edge2&#45;headlabel"><a xlink:href="dir_000007_000014.html" target="_top" xlink:title="3">
<text text-anchor="middle" x="101.19" y="-48.61" font-family="Helvetica,sans-Serif" font-size="10.00" fill="#63b8ff">3</text>
</a>
</g>
</g>
<!-- dir_a02795b5ac40d9afe5fe94a3ec34902b -->
<g id="node4" class="node">
<title>dir_a02795b5ac40d9afe5fe94a3ec34902b</title>
<g id="a_node4"><a xlink:href="dir_a02795b5ac40d9afe5fe94a3ec34902b.html" target="_top" xlink:title="GeoParser">
<polygon fill="#a2b4d6" stroke="#404040" points="90,-153 24,-153 24,-134 90,-134 90,-153"/>
<text text-anchor="middle" x="57" y="-141" font-family="Helvetica,sans-Serif" font-size="10.00">GeoParser</text>
</a>
</g>
</g>
<!-- dir_a02795b5ac40d9afe5fe94a3ec34902b&#45;&gt;dir_b70de4a9b2a9f967d011983a1fdf80d1 -->
<g id="edge4" class="edge">
<title>dir_a02795b5ac40d9afe5fe94a3ec34902b&#45;&gt;dir_b70de4a9b2a9f967d011983a1fdf80d1</title>
<g id="a_edge4"><a xlink:href="dir_000008_000004.html" target="_top">
<path fill="none" stroke="#63b8ff" d="M86.87,-133.96C117.25,-124.8 161.69,-109.97 175,-98 188.46,-85.9 197,-66.83 201.84,-52.74"/>
<polygon fill="#63b8ff" stroke="#63b8ff" points="205.2,-53.73 204.84,-43.14 198.52,-51.64 205.2,-53.73"/>
</a>
</g>
<g id="a_edge4&#45;headlabel"><a xlink:href="dir_000008_000004.html" target="_top" xlink:title="6">
<text text-anchor="middle" x="206.84" y="-55.51" font-family="Helvetica,sans-Serif" font-size="10.00" fill="#63b8ff">6</text>
</a>
</g>
</g>
<!-- dir_a02795b5ac40d9afe5fe94a3ec34902b&#45;&gt;dir_230a9058c252ac18d37b1c1fb0e46130 -->
<g id="edge3" class="edge">
<title>dir_a02795b5ac40d9afe5fe94a3ec34902b&#45;&gt;dir_230a9058c252ac18d37b1c1fb0e46130</title>
<g id="a_edge3"><a xlink:href="dir_000008_000007.html" target="_top">
<path fill="none" stroke="#63b8ff" d="M66.64,-133.98C75.51,-126.15 88.87,-114.34 99.61,-104.86"/>
<polygon fill="#63b8ff" stroke="#63b8ff" points="102.01,-107.41 107.18,-98.17 97.37,-102.17 102.01,-107.41"/>
</a>
</g>
<g id="a_edge3&#45;headlabel"><a xlink:href="dir_000008_000007.html" target="_top" xlink:title="1">
<text text-anchor="middle" x="101.19" y="-109.42" font-family="Helvetica,sans-Serif" font-size="10.00" fill="#63b8ff">1</text>
</a>
</g>
</g>
<!-- dir_a02795b5ac40d9afe5fe94a3ec34902b&#45;&gt;dir_fd597c8005e72be580bea8109789120d -->
<g id="edge5" class="edge">
<title>dir_a02795b5ac40d9afe5fe94a3ec34902b&#45;&gt;dir_fd597c8005e72be580bea8109789120d</title>
<g id="a_edge5"><a xlink:href="dir_000008_000014.html" target="_top">
<path fill="none" stroke="#63b8ff" d="M56.02,-133.69C54.92,-121.25 53.89,-97.96 59,-79 61.56,-69.48 66.5,-59.75 71.23,-51.82"/>
<polygon fill="#63b8ff" stroke="#63b8ff" points="74.31,-53.5 76.73,-43.18 68.4,-49.74 74.31,-53.5"/>
</a>
</g>
<g id="a_edge5&#45;headlabel"><a xlink:href="dir_000008_000014.html" target="_top" xlink:title="15">
<text text-anchor="middle" x="74.77" y="-55.56" font-family="Helvetica,sans-Serif" font-size="10.00" fill="#63b8ff">15</text>
</a>
</g>
</g>
</g>
</svg>
