<?xml version="1.0" encoding="UTF-8" standalone="no"?>
<!DOCTYPE svg PUBLIC "-//W3C//DTD SVG 1.1//EN"
 "http://www.w3.org/Graphics/SVG/1.1/DTD/svg11.dtd">
<!-- Generated by graphviz version 2.43.0 (0)
 -->
<!-- Title: SimulateurFerroviaire/Modules Pages: 1 -->
<svg width="310pt" height="204pt"
 viewBox="0.00 0.00 310.00 204.00" xmlns="http://www.w3.org/2000/svg" xmlns:xlink="http://www.w3.org/1999/xlink">
<g id="graph0" class="graph" transform="scale(1 1) rotate(0) translate(4 200)">
<title>SimulateurFerroviaire/Modules</title>
<g id="clust1" class="cluster">
<title>clusterdir_d428d88fda432bf3dacc8225448b283a</title>
<g id="a_clust1"><a xlink:href="dir_d428d88fda432bf3dacc8225448b283a.html" target="_top" xlink:title="SimulateurFerroviaire">
<polygon fill="#edf0f7" stroke="#404040" stroke-dasharray="5,2" points="8,-8 8,-188 294,-188 294,-8 8,-8"/>
<text text-anchor="middle" x="151" y="-176" font-family="Helvetica,sans-Serif" font-size="10.00">SimulateurFerroviaire</text>
</a>
</g>
</g>
<g id="clust2" class="cluster">
<title>clusterdir_387a2147fe1fbdf0efef36368214e4d3</title>
<g id="a_clust2"><a xlink:href="dir_387a2147fe1fbdf0efef36368214e4d3.html" target="_top">
<polygon fill="#edf0f7" stroke="#404040" stroke-width="2" points="16,-16 16,-161 228,-161 228,-16 16,-16"/>
</a>
</g>
</g>
<!-- dir_b70de4a9b2a9f967d011983a1fdf80d1 -->
<g id="node1" class="node">
<title>dir_b70de4a9b2a9f967d011983a1fdf80d1</title>
<g id="a_node1"><a xlink:href="dir_b70de4a9b2a9f967d011983a1fdf80d1.html" target="_top" xlink:title="Engine">
<polygon fill="#a2b4d6" stroke="red" points="286,-43 236,-43 236,-24 286,-24 286,-43"/>
<text text-anchor="middle" x="261" y="-31" font-family="Helvetica,sans-Serif" font-size="10.00">Engine</text>
</a>
</g>
</g>
<!-- dir_387a2147fe1fbdf0efef36368214e4d3 -->
<g id="node2" class="node">
<title>dir_387a2147fe1fbdf0efef36368214e4d3</title>
<text text-anchor="middle" x="191" y="-141" font-family="Helvetica,sans-Serif" font-size="10.00">Modules</text>
</g>
<!-- dir_a2c10e0245c4d6d6087b65c22d77e4da -->
<g id="node3" class="node">
<title>dir_a2c10e0245c4d6d6087b65c22d77e4da</title>
<g id="a_node3"><a xlink:href="dir_a2c10e0245c4d6d6087b65c22d77e4da.html" target="_top" xlink:title="Coordinates">
<polygon fill="#a2b4d6" stroke="#404040" points="130.5,-43 55.5,-43 55.5,-24 130.5,-24 130.5,-43"/>
<text text-anchor="middle" x="93" y="-31" font-family="Helvetica,sans-Serif" font-size="10.00">Coordinates</text>
</a>
</g>
</g>
<!-- dir_a02795b5ac40d9afe5fe94a3ec34902b -->
<g id="node4" class="node">
<title>dir_a02795b5ac40d9afe5fe94a3ec34902b</title>
<g id="a_node4"><a xlink:href="dir_a02795b5ac40d9afe5fe94a3ec34902b.html" target="_top" xlink:title="GeoParser">
<polygon fill="#a2b4d6" stroke="#404040" points="90,-153 24,-153 24,-134 90,-134 90,-153"/>
<text text-anchor="middle" x="57" y="-141" font-family="Helvetica,sans-Serif" font-size="10.00">GeoParser</text>
</a>
</g>
</g>
<!-- dir_a02795b5ac40d9afe5fe94a3ec34902b&#45;&gt;dir_b70de4a9b2a9f967d011983a1fdf80d1 -->
<g id="edge3" class="edge">
<title>dir_a02795b5ac40d9afe5fe94a3ec34902b&#45;&gt;dir_b70de4a9b2a9f967d011983a1fdf80d1</title>
<g id="a_edge3"><a xlink:href="dir_000008_000005.html" target="_top">
<path fill="none" stroke="#63b8ff" d="M89.46,-133.97C124.56,-124.43 177.93,-108.88 196,-98 216.6,-85.6 235.7,-65.47 247.8,-51.2"/>
<polygon fill="#63b8ff" stroke="#63b8ff" points="250.73,-53.14 254.37,-43.19 245.32,-48.7 250.73,-53.14"/>
</a>
</g>
<g id="a_edge3&#45;headlabel"><a xlink:href="dir_000008_000005.html" target="_top" xlink:title="8">
<text text-anchor="middle" x="250.64" y="-55.22" font-family="Helvetica,sans-Serif" font-size="10.00" fill="#63b8ff">8</text>
</a>
</g>
</g>
<!-- dir_a02795b5ac40d9afe5fe94a3ec34902b&#45;&gt;dir_a2c10e0245c4d6d6087b65c22d77e4da -->
<g id="edge2" class="edge">
<title>dir_a02795b5ac40d9afe5fe94a3ec34902b&#45;&gt;dir_a2c10e0245c4d6d6087b65c22d77e4da</title>
<g id="a_edge2"><a xlink:href="dir_000008_000000.html" target="_top">
<path fill="none" stroke="#63b8ff" d="M56.5,-134C56.05,-121.54 56.28,-97.77 63,-79 66.56,-69.06 72.85,-59.2 78.75,-51.29"/>
<polygon fill="#63b8ff" stroke="#63b8ff" points="81.62,-53.31 85.09,-43.3 76.13,-48.96 81.62,-53.31"/>
</a>
</g>
<g id="a_edge2&#45;headlabel"><a xlink:href="dir_000008_000000.html" target="_top" xlink:title="6">
<text text-anchor="middle" x="81.61" y="-55.39" font-family="Helvetica,sans-Serif" font-size="10.00" fill="#63b8ff">6</text>
</a>
</g>
</g>
<!-- dir_713206489b3f2e638ce64611b3101c39 -->
<g id="node5" class="node">
<title>dir_713206489b3f2e638ce64611b3101c39</title>
<g id="a_node5"><a xlink:href="dir_713206489b3f2e638ce64611b3101c39.html" target="_top" xlink:title="InteractiveElements">
<polygon fill="#a2b4d6" stroke="#404040" points="187.5,-98 72.5,-98 72.5,-79 187.5,-79 187.5,-98"/>
<text text-anchor="middle" x="130" y="-86" font-family="Helvetica,sans-Serif" font-size="10.00">InteractiveElements</text>
</a>
</g>
</g>
<!-- dir_a02795b5ac40d9afe5fe94a3ec34902b&#45;&gt;dir_713206489b3f2e638ce64611b3101c39 -->
<g id="edge1" class="edge">
<title>dir_a02795b5ac40d9afe5fe94a3ec34902b&#45;&gt;dir_713206489b3f2e638ce64611b3101c39</title>
<g id="a_edge1"><a xlink:href="dir_000008_000012.html" target="_top">
<path fill="none" stroke="#63b8ff" d="M68.73,-133.98C79.73,-126 96.42,-113.88 109.6,-104.31"/>
<polygon fill="#63b8ff" stroke="#63b8ff" points="112.02,-106.88 118.06,-98.17 107.91,-101.21 112.02,-106.88"/>
</a>
</g>
<g id="a_edge1&#45;headlabel"><a xlink:href="dir_000008_000012.html" target="_top" xlink:title="8">
<text text-anchor="middle" x="110.78" y="-108.79" font-family="Helvetica,sans-Serif" font-size="10.00" fill="#63b8ff">8</text>
</a>
</g>
</g>
<!-- dir_713206489b3f2e638ce64611b3101c39&#45;&gt;dir_b70de4a9b2a9f967d011983a1fdf80d1 -->
<g id="edge4" class="edge">
<title>dir_713206489b3f2e638ce64611b3101c39&#45;&gt;dir_b70de4a9b2a9f967d011983a1fdf80d1</title>
<g id="a_edge4"><a xlink:href="dir_000012_000005.html" target="_top">
<path fill="none" stroke="#63b8ff" d="M151.05,-78.98C172.41,-70.34 205.7,-56.87 230.06,-47.02"/>
<polygon fill="#63b8ff" stroke="#63b8ff" points="231.61,-50.17 239.57,-43.17 228.99,-43.68 231.61,-50.17"/>
</a>
</g>
<g id="a_edge4&#45;headlabel"><a xlink:href="dir_000012_000005.html" target="_top" xlink:title="1">
<text text-anchor="middle" x="229.34" y="-51.65" font-family="Helvetica,sans-Serif" font-size="10.00" fill="#63b8ff">1</text>
</a>
</g>
</g>
<!-- dir_713206489b3f2e638ce64611b3101c39&#45;&gt;dir_a2c10e0245c4d6d6087b65c22d77e4da -->
<g id="edge5" class="edge">
<title>dir_713206489b3f2e638ce64611b3101c39&#45;&gt;dir_a2c10e0245c4d6d6087b65c22d77e4da</title>
<g id="a_edge5"><a xlink:href="dir_000012_000000.html" target="_top">
<path fill="none" stroke="#63b8ff" d="M123.89,-78.75C118.72,-71.34 111.15,-60.5 104.81,-51.41"/>
<polygon fill="#63b8ff" stroke="#63b8ff" points="107.59,-49.29 99,-43.09 101.85,-53.29 107.59,-49.29"/>
</a>
</g>
<g id="a_edge5&#45;headlabel"><a xlink:href="dir_000012_000000.html" target="_top" xlink:title="2">
<text text-anchor="middle" x="111.98" y="-48.11" font-family="Helvetica,sans-Serif" font-size="10.00" fill="#63b8ff">2</text>
</a>
</g>
</g>
<!-- dir_7c738cac3c5b225040bd3ab526c6dac3 -->
<g id="node6" class="node">
<title>dir_7c738cac3c5b225040bd3ab526c6dac3</title>
<g id="a_node6"><a xlink:href="dir_7c738cac3c5b225040bd3ab526c6dac3.html" target="_top" xlink:title="PCC">
<polygon fill="#a2b4d6" stroke="#404040" points="144,-153 108,-153 108,-134 144,-134 144,-153"/>
<text text-anchor="middle" x="126" y="-141" font-family="Helvetica,sans-Serif" font-size="10.00">PCC</text>
</a>
</g>
</g>
<!-- dir_7c738cac3c5b225040bd3ab526c6dac3&#45;&gt;dir_713206489b3f2e638ce64611b3101c39 -->
<g id="edge6" class="edge">
<title>dir_7c738cac3c5b225040bd3ab526c6dac3&#45;&gt;dir_713206489b3f2e638ce64611b3101c39</title>
<g id="a_edge6"><a xlink:href="dir_000016_000012.html" target="_top">
<path fill="none" stroke="#63b8ff" d="M126.66,-133.75C127.18,-126.8 127.94,-116.85 128.59,-108.13"/>
<polygon fill="#63b8ff" stroke="#63b8ff" points="132.09,-108.32 129.35,-98.09 125.11,-107.8 132.09,-108.32"/>
</a>
</g>
<g id="a_edge6&#45;headlabel"><a xlink:href="dir_000016_000012.html" target="_top" xlink:title="3">
<text text-anchor="middle" x="134.65" y="-109.62" font-family="Helvetica,sans-Serif" font-size="10.00" fill="#63b8ff">3</text>
</a>
</g>
</g>
</g>
</svg>
