<?xml version="1.0" encoding="UTF-8" standalone="no"?>
<!DOCTYPE svg PUBLIC "-//W3C//DTD SVG 1.1//EN"
 "http://www.w3.org/Graphics/SVG/1.1/DTD/svg11.dtd">
<!-- Generated by graphviz version 2.43.0 (0)
 -->
<!-- Title: SimulateurFerroviaire/Modules/GeoParser/DoubleSwitchDetector.h Pages: 1 -->
<svg width="1421pt" height="225pt"
 viewBox="0.00 0.00 1421.00 225.00" xmlns="http://www.w3.org/2000/svg" xmlns:xlink="http://www.w3.org/1999/xlink">
<g id="graph0" class="graph" transform="scale(1 1) rotate(0) translate(4 221)">
<title>SimulateurFerroviaire/Modules/GeoParser/DoubleSwitchDetector.h</title>
<!-- Node1 -->
<g id="Node000001" class="node">
<title>Node1</title>
<g id="a_Node000001"><a xlink:title="Phases 7 et 8 — détection des doubles aiguilles et validation CDC.">
<polygon fill="#999999" stroke="#666666" points="698,-217 515,-217 515,-176 698,-176 698,-217"/>
<text text-anchor="start" x="523" y="-205" font-family="Helvetica,sans-Serif" font-size="10.00">SimulateurFerroviaire</text>
<text text-anchor="start" x="523" y="-194" font-family="Helvetica,sans-Serif" font-size="10.00">/Modules/GeoParser/DoubleSwitch</text>
<text text-anchor="middle" x="606.5" y="-183" font-family="Helvetica,sans-Serif" font-size="10.00">Detector.h</text>
</a>
</g>
</g>
<!-- Node2 -->
<g id="Node000002" class="node">
<title>Node2</title>
<g id="a_Node000002"><a xlink:title=" ">
<polygon fill="#e0e0e0" stroke="#999999" points="218.5,-140 186.5,-140 186.5,-121 218.5,-121 218.5,-140"/>
<text text-anchor="middle" x="202.5" y="-128" font-family="Helvetica,sans-Serif" font-size="10.00">set</text>
</a>
</g>
</g>
<!-- Node1&#45;&gt;Node2 -->
<g id="edge1_Node000001_Node000002" class="edge">
<title>Node1&#45;&gt;Node2</title>
<g id="a_edge1_Node000001_Node000002"><a xlink:title=" ">
<path fill="none" stroke="#63b8ff" d="M514.84,-185.24C438.76,-175.93 327.96,-160.52 232.5,-140 231.22,-139.72 229.91,-139.43 228.6,-139.11"/>
<polygon fill="#63b8ff" stroke="#63b8ff" points="229.16,-135.64 218.6,-136.47 227.37,-142.41 229.16,-135.64"/>
</a>
</g>
</g>
<!-- Node3 -->
<g id="Node000003" class="node">
<title>Node3</title>
<g id="a_Node000003"><a xlink:title=" ">
<polygon fill="#e0e0e0" stroke="#999999" points="852.5,-19 808.5,-19 808.5,0 852.5,0 852.5,-19"/>
<text text-anchor="middle" x="830.5" y="-7" font-family="Helvetica,sans-Serif" font-size="10.00">string</text>
</a>
</g>
</g>
<!-- Node1&#45;&gt;Node3 -->
<g id="edge2_Node000001_Node000003" class="edge">
<title>Node1&#45;&gt;Node3</title>
<g id="a_edge2_Node000001_Node000003"><a xlink:title=" ">
<path fill="none" stroke="#63b8ff" d="M653.58,-175.91C693.88,-157.27 751.42,-126 790.5,-85 806.12,-68.61 817.44,-44.93 823.97,-28.69"/>
<polygon fill="#63b8ff" stroke="#63b8ff" points="827.27,-29.84 827.56,-19.25 820.73,-27.35 827.27,-29.84"/>
</a>
</g>
</g>
<!-- Node4 -->
<g id="Node000004" class="node">
<title>Node4</title>
<g id="a_Node000004"><a xlink:title=" ">
<polygon fill="#e0e0e0" stroke="#999999" points="93,-79.5 0,-79.5 0,-60.5 93,-60.5 93,-79.5"/>
<text text-anchor="middle" x="46.5" y="-67.5" font-family="Helvetica,sans-Serif" font-size="10.00">unordered_map</text>
</a>
</g>
</g>
<!-- Node1&#45;&gt;Node4 -->
<g id="edge3_Node000001_Node000004" class="edge">
<title>Node1&#45;&gt;Node4</title>
<g id="a_edge3_Node000001_Node000004"><a xlink:title=" ">
<path fill="none" stroke="#63b8ff" d="M514.66,-189.87C443.6,-183.37 343.64,-169.48 260.5,-140 244.55,-134.34 243.11,-127.53 227.5,-121 214.66,-115.63 138.44,-95.18 89.09,-82.16"/>
<polygon fill="#63b8ff" stroke="#63b8ff" points="89.86,-78.74 79.3,-79.58 88.08,-85.51 89.86,-78.74"/>
</a>
</g>
</g>
<!-- Node5 -->
<g id="Node000005" class="node">
<title>Node5</title>
<g id="a_Node000005"><a xlink:title=" ">
<polygon fill="#e0e0e0" stroke="#999999" points="156,-79.5 111,-79.5 111,-60.5 156,-60.5 156,-79.5"/>
<text text-anchor="middle" x="133.5" y="-67.5" font-family="Helvetica,sans-Serif" font-size="10.00">utility</text>
</a>
</g>
</g>
<!-- Node1&#45;&gt;Node5 -->
<g id="edge4_Node000001_Node000005" class="edge">
<title>Node1&#45;&gt;Node5</title>
<g id="a_edge4_Node000001_Node000005"><a xlink:title=" ">
<path fill="none" stroke="#63b8ff" d="M514.67,-184.4C453.88,-175.67 372.89,-161.36 303.5,-140 283.53,-133.85 279.85,-128.89 260.5,-121 218.31,-103.78 206.62,-102.39 164.5,-85 163.49,-84.58 162.46,-84.15 161.43,-83.71"/>
<polygon fill="#63b8ff" stroke="#63b8ff" points="162.67,-80.44 152.1,-79.64 159.86,-86.85 162.67,-80.44"/>
</a>
</g>
</g>
<!-- Node6 -->
<g id="Node000006" class="node">
<title>Node6</title>
<g id="a_Node000006"><a xlink:title=" ">
<polygon fill="#e0e0e0" stroke="#999999" points="585,-19 538,-19 538,0 585,0 585,-19"/>
<text text-anchor="middle" x="561.5" y="-7" font-family="Helvetica,sans-Serif" font-size="10.00">vector</text>
</a>
</g>
</g>
<!-- Node1&#45;&gt;Node6 -->
<g id="edge5_Node000001_Node000006" class="edge">
<title>Node1&#45;&gt;Node6</title>
<g id="a_edge5_Node000001_Node000006"><a xlink:title=" ">
<path fill="none" stroke="#63b8ff" d="M601.68,-175.7C592.93,-139.7 574.52,-64.02 566,-29"/>
<polygon fill="#63b8ff" stroke="#63b8ff" points="569.37,-28.05 563.61,-19.16 562.57,-29.7 569.37,-28.05"/>
</a>
</g>
</g>
<!-- Node7 -->
<g id="Node000007" class="node">
<title>Node7</title>
<g id="a_Node000007"><a xlink:href="TopologyGraph_8h.html" target="_top" xlink:title="Graphe planaire non&#45;orienté de nœuds et d&#39;arêtes ferroviaires accrochés.">
<polygon fill="white" stroke="#666666" points="450,-140 313,-140 313,-121 450,-121 450,-140"/>
<text text-anchor="middle" x="381.5" y="-128" font-family="Helvetica,sans-Serif" font-size="10.00">./Graph/TopologyGraph.h</text>
</a>
</g>
</g>
<!-- Node1&#45;&gt;Node7 -->
<g id="edge6_Node000001_Node000007" class="edge">
<title>Node1&#45;&gt;Node7</title>
<g id="a_edge6_Node000001_Node000007"><a xlink:title=" ">
<path fill="none" stroke="#63b8ff" d="M537.77,-175.95C499.64,-165.1 453.56,-152 421.35,-142.84"/>
<polygon fill="#63b8ff" stroke="#63b8ff" points="421.99,-139.38 411.41,-140.01 420.07,-146.11 421.99,-139.38"/>
</a>
</g>
</g>
<!-- Node15 -->
<g id="Node000015" class="node">
<title>Node15</title>
<g id="a_Node000015"><a xlink:href="GeoParserEnums_8h.html" target="_top" xlink:title="Constantes nommées et énumérations du pipeline ferroviaire GeoParser.">
<polygon fill="white" stroke="#666666" points="781,-79.5 628,-79.5 628,-60.5 781,-60.5 781,-79.5"/>
<text text-anchor="middle" x="704.5" y="-67.5" font-family="Helvetica,sans-Serif" font-size="10.00">../Enums/GeoParserEnums.h</text>
</a>
</g>
</g>
<!-- Node1&#45;&gt;Node15 -->
<g id="edge33_Node000001_Node000015" class="edge">
<title>Node1&#45;&gt;Node15</title>
<g id="a_edge33_Node000001_Node000015"><a xlink:title=" ">
<path fill="none" stroke="#63b8ff" d="M622.03,-175.77C641.18,-151.44 673.41,-110.5 691.38,-87.67"/>
<polygon fill="#63b8ff" stroke="#63b8ff" points="694.28,-89.64 697.72,-79.61 688.78,-85.31 694.28,-89.64"/>
</a>
</g>
</g>
<!-- Node16 -->
<g id="Node000016" class="node">
<title>Node16</title>
<g id="a_Node000016"><a xlink:href="StraightBlock_8h.html" target="_top" xlink:title="Modèle de domaine d&#39;un bloc de voie droite (Straight).">
<polygon fill="white" stroke="#666666" points="1195,-79.5 1022,-79.5 1022,-60.5 1195,-60.5 1195,-79.5"/>
<text text-anchor="middle" x="1108.5" y="-67.5" font-family="Helvetica,sans-Serif" font-size="10.00">Modules/Models/StraightBlock.h</text>
</a>
</g>
</g>
<!-- Node1&#45;&gt;Node16 -->
<g id="edge22_Node000001_Node000016" class="edge">
<title>Node1&#45;&gt;Node16</title>
<g id="a_edge22_Node000001_Node000016"><a xlink:title=" ">
<path fill="none" stroke="#63b8ff" d="M697.26,-175.96C743.78,-165.71 801.29,-152.67 852.5,-140 929.21,-121.02 1018.16,-96.47 1068.44,-82.35"/>
<polygon fill="#63b8ff" stroke="#63b8ff" points="1069.58,-85.66 1078.26,-79.59 1067.69,-78.92 1069.58,-85.66"/>
</a>
</g>
</g>
<!-- Node18 -->
<g id="Node000018" class="node">
<title>Node18</title>
<g id="a_Node000018"><a xlink:href="SwitchBlock_8h.html" target="_top" xlink:title="Modèle de domaine d&#39;un aiguillage ferroviaire à 3 branches (Switch).">
<polygon fill="white" stroke="#666666" points="1004,-79.5 837,-79.5 837,-60.5 1004,-60.5 1004,-79.5"/>
<text text-anchor="middle" x="920.5" y="-67.5" font-family="Helvetica,sans-Serif" font-size="10.00">Modules/Models/SwitchBlock.h</text>
</a>
</g>
</g>
<!-- Node1&#45;&gt;Node18 -->
<g id="edge27_Node000001_Node000018" class="edge">
<title>Node1&#45;&gt;Node18</title>
<g id="a_edge27_Node000001_Node000018"><a xlink:title=" ">
<path fill="none" stroke="#63b8ff" d="M698,-179.91C737.73,-171.18 784.08,-158.29 823.5,-140 853.93,-125.89 884.76,-101.93 903.26,-86.29"/>
<polygon fill="#63b8ff" stroke="#63b8ff" points="905.78,-88.74 911.06,-79.56 901.21,-83.44 905.78,-88.74"/>
</a>
</g>
</g>
<!-- Node19 -->
<g id="Node000019" class="node">
<title>Node19</title>
<g id="a_Node000019"><a xlink:href="Logger_8h.html" target="_top" xlink:title="Système de journalisation à 5 niveaux de trace, un fichier par moteur.">
<polygon fill="white" stroke="#666666" points="1324,-85 1213,-85 1213,-55 1324,-55 1324,-85"/>
<text text-anchor="start" x="1221" y="-73" font-family="Helvetica,sans-Serif" font-size="10.00">Engine/Core/Logger</text>
<text text-anchor="middle" x="1268.5" y="-62" font-family="Helvetica,sans-Serif" font-size="10.00">/Logger.h</text>
</a>
</g>
</g>
<!-- Node1&#45;&gt;Node19 -->
<g id="edge34_Node000001_Node000019" class="edge">
<title>Node1&#45;&gt;Node19</title>
<g id="a_edge34_Node000001_Node000019"><a xlink:title=" ">
<path fill="none" stroke="#63b8ff" d="M698.11,-179.53C813.55,-159.19 1018.23,-122.41 1202.79,-85.32"/>
<polygon fill="#63b8ff" stroke="#63b8ff" points="1203.56,-88.73 1212.67,-83.32 1202.18,-81.87 1203.56,-88.73"/>
</a>
</g>
</g>
<!-- Node7&#45;&gt;Node3 -->
<g id="edge10_Node000007_Node000003" class="edge">
<title>Node7&#45;&gt;Node3</title>
<g id="a_edge10_Node000007_Node000003"><a xlink:title=" ">
<path fill="none" stroke="#63b8ff" d="M416.35,-120.96C449.17,-112.66 499.57,-99.26 542.5,-85 577.36,-73.43 584.3,-65.49 619.5,-55 681.71,-36.46 756.46,-22.62 798.21,-15.62"/>
<polygon fill="#63b8ff" stroke="#63b8ff" points="799.04,-19.03 808.33,-13.95 797.9,-12.12 799.04,-19.03"/>
</a>
</g>
</g>
<!-- Node7&#45;&gt;Node4 -->
<g id="edge11_Node000007_Node000004" class="edge">
<title>Node7&#45;&gt;Node4</title>
<g id="a_edge11_Node000007_Node000004"><a xlink:title=" ">
<path fill="none" stroke="#63b8ff" d="M317.25,-121C260.3,-113.05 175.01,-100.16 101.5,-85 97.09,-84.09 92.51,-83.06 87.95,-81.98"/>
<polygon fill="#63b8ff" stroke="#63b8ff" points="88.63,-78.55 78.09,-79.57 86.97,-85.34 88.63,-78.55"/>
</a>
</g>
</g>
<!-- Node7&#45;&gt;Node5 -->
<g id="edge12_Node000007_Node000005" class="edge">
<title>Node7&#45;&gt;Node5</title>
<g id="a_edge12_Node000007_Node000005"><a xlink:title=" ">
<path fill="none" stroke="#63b8ff" d="M322.1,-120.97C277.97,-113.76 216.64,-101.89 164.5,-85 163.06,-84.53 161.6,-84.02 160.13,-83.47"/>
<polygon fill="#63b8ff" stroke="#63b8ff" points="161.19,-80.12 150.61,-79.54 158.52,-86.59 161.19,-80.12"/>
</a>
</g>
</g>
<!-- Node7&#45;&gt;Node6 -->
<g id="edge13_Node000007_Node000006" class="edge">
<title>Node7&#45;&gt;Node6</title>
<g id="a_edge13_Node000007_Node000006"><a xlink:title=" ">
<path fill="none" stroke="#63b8ff" d="M375.05,-120.65C364.88,-105.53 347.82,-74.49 363.5,-55 410.27,3.15 454.85,-36.05 527.5,-19 527.6,-18.98 527.71,-18.95 527.81,-18.93"/>
<polygon fill="#63b8ff" stroke="#63b8ff" points="528.84,-22.28 537.74,-16.53 527.2,-15.47 528.84,-22.28"/>
</a>
</g>
</g>
<!-- Node8 -->
<g id="Node000008" class="node">
<title>Node8</title>
<g id="a_Node000008"><a xlink:title=" ">
<polygon fill="#e0e0e0" stroke="#999999" points="533.5,-79.5 483.5,-79.5 483.5,-60.5 533.5,-60.5 533.5,-79.5"/>
<text text-anchor="middle" x="508.5" y="-67.5" font-family="Helvetica,sans-Serif" font-size="10.00">cstdint</text>
</a>
</g>
</g>
<!-- Node7&#45;&gt;Node8 -->
<g id="edge7_Node000007_Node000008" class="edge">
<title>Node7&#45;&gt;Node8</title>
<g id="a_edge7_Node000007_Node000008"><a xlink:title=" ">
<path fill="none" stroke="#63b8ff" d="M399.97,-120.99C421.22,-111.2 456.35,-95.02 480.87,-83.73"/>
<polygon fill="#63b8ff" stroke="#63b8ff" points="482.39,-86.88 490.01,-79.52 479.46,-80.52 482.39,-86.88"/>
</a>
</g>
</g>
<!-- Node9 -->
<g id="Node000009" class="node">
<title>Node9</title>
<g id="a_Node000009"><a xlink:title=" ">
<polygon fill="#e0e0e0" stroke="#999999" points="239,-79.5 174,-79.5 174,-60.5 239,-60.5 239,-79.5"/>
<text text-anchor="middle" x="206.5" y="-67.5" font-family="Helvetica,sans-Serif" font-size="10.00">functional</text>
</a>
</g>
</g>
<!-- Node7&#45;&gt;Node9 -->
<g id="edge8_Node000007_Node000009" class="edge">
<title>Node7&#45;&gt;Node9</title>
<g id="a_edge8_Node000007_Node000009"><a xlink:title=" ">
<path fill="none" stroke="#63b8ff" d="M356.05,-120.99C325.86,-110.9 275.34,-94.01 241.48,-82.69"/>
<polygon fill="#63b8ff" stroke="#63b8ff" points="242.57,-79.37 231.98,-79.52 240.35,-86.01 242.57,-79.37"/>
</a>
</g>
</g>
<!-- Node10 -->
<g id="Node000010" class="node">
<title>Node10</title>
<g id="a_Node000010"><a xlink:title=" ">
<polygon fill="#e0e0e0" stroke="#999999" points="518.5,-19 462.5,-19 462.5,0 518.5,0 518.5,-19"/>
<text text-anchor="middle" x="490.5" y="-7" font-family="Helvetica,sans-Serif" font-size="10.00">optional</text>
</a>
</g>
</g>
<!-- Node7&#45;&gt;Node10 -->
<g id="edge9_Node000007_Node000010" class="edge">
<title>Node7&#45;&gt;Node10</title>
<g id="a_edge9_Node000007_Node000010"><a xlink:title=" ">
<path fill="none" stroke="#63b8ff" d="M365.47,-120.95C353.09,-113.35 336.85,-100.97 329.5,-85 323.92,-72.89 321.42,-65.61 329.5,-55 333.31,-49.99 406.12,-31.28 452.5,-19.78"/>
<polygon fill="#63b8ff" stroke="#63b8ff" points="453.38,-23.17 462.25,-17.37 451.7,-16.37 453.38,-23.17"/>
</a>
</g>
</g>
<!-- Node11 -->
<g id="Node000011" class="node">
<title>Node11</title>
<g id="a_Node000011"><a xlink:href="TopologyEdge_8h.html" target="_top" xlink:title="Arête non&#45;orientée du graphe planaire de topologie ferroviaire.">
<polygon fill="white" stroke="#666666" points="465,-79.5 372,-79.5 372,-60.5 465,-60.5 465,-79.5"/>
<text text-anchor="middle" x="418.5" y="-67.5" font-family="Helvetica,sans-Serif" font-size="10.00">TopologyEdge.h</text>
</a>
</g>
</g>
<!-- Node7&#45;&gt;Node11 -->
<g id="edge14_Node000007_Node000011" class="edge">
<title>Node7&#45;&gt;Node11</title>
<g id="a_edge14_Node000007_Node000011"><a xlink:title=" ">
<path fill="none" stroke="#63b8ff" d="M386.96,-120.87C392.37,-112.31 400.81,-98.97 407.6,-88.24"/>
<polygon fill="#63b8ff" stroke="#63b8ff" points="410.63,-89.99 413.02,-79.67 404.71,-86.25 410.63,-89.99"/>
</a>
</g>
</g>
<!-- Node14 -->
<g id="Node000014" class="node">
<title>Node14</title>
<g id="a_Node000014"><a xlink:href="CoordinateXY_8h.html" target="_top" xlink:title="Représentation d&#39;une coordonnée plane en mètres (système métrique UTM).">
<polygon fill="white" stroke="#666666" points="365.5,-19 193.5,-19 193.5,0 365.5,0 365.5,-19"/>
<text text-anchor="middle" x="279.5" y="-7" font-family="Helvetica,sans-Serif" font-size="10.00">Modules/Models/CoordinateXY.h</text>
</a>
</g>
</g>
<!-- Node7&#45;&gt;Node14 -->
<g id="edge20_Node000007_Node000014" class="edge">
<title>Node7&#45;&gt;Node14</title>
<g id="a_edge20_Node000007_Node000014"><a xlink:title=" ">
<path fill="none" stroke="#63b8ff" d="M346.88,-120.87C327.6,-114.25 304.85,-103.09 291.5,-85 279.73,-69.05 277.68,-45.94 277.97,-29.69"/>
<polygon fill="#63b8ff" stroke="#63b8ff" points="281.49,-29.44 278.5,-19.28 274.5,-29.09 281.49,-29.44"/>
</a>
</g>
</g>
<!-- Node7&#45;&gt;Node15 -->
<g id="edge21_Node000007_Node000015" class="edge">
<title>Node7&#45;&gt;Node15</title>
<g id="a_edge21_Node000007_Node000015"><a xlink:title=" ">
<path fill="none" stroke="#63b8ff" d="M428.47,-120.99C486.48,-110.49 585.1,-92.62 647.42,-81.34"/>
<polygon fill="#63b8ff" stroke="#63b8ff" points="648.26,-84.74 657.48,-79.52 647.01,-77.85 648.26,-84.74"/>
</a>
</g>
</g>
<!-- Node11&#45;&gt;Node3 -->
<g id="edge17_Node000011_Node000003" class="edge">
<title>Node11&#45;&gt;Node3</title>
<g id="a_edge17_Node000011_Node000003"><a xlink:title=" ">
<path fill="none" stroke="#63b8ff" d="M449.75,-60.48C457.77,-58.49 466.42,-56.51 474.5,-55 592.86,-32.89 735.47,-18.8 798.21,-13.22"/>
<polygon fill="#63b8ff" stroke="#63b8ff" points="798.62,-16.7 808.28,-12.34 798.01,-9.72 798.62,-16.7"/>
</a>
</g>
</g>
<!-- Node11&#45;&gt;Node6 -->
<g id="edge18_Node000011_Node000006" class="edge">
<title>Node11&#45;&gt;Node6</title>
<g id="a_edge18_Node000011_Node000006"><a xlink:title=" ">
<path fill="none" stroke="#63b8ff" d="M439.29,-60.49C463.44,-50.62 503.48,-34.23 531.12,-22.93"/>
<polygon fill="#63b8ff" stroke="#63b8ff" points="532.75,-26.04 540.68,-19.02 530.1,-19.56 532.75,-26.04"/>
</a>
</g>
</g>
<!-- Node12 -->
<g id="Node000012" class="node">
<title>Node12</title>
<g id="a_Node000012"><a xlink:title=" ">
<polygon fill="#e0e0e0" stroke="#999999" points="442,-19 395,-19 395,0 442,0 442,-19"/>
<text text-anchor="middle" x="418.5" y="-7" font-family="Helvetica,sans-Serif" font-size="10.00">cmath</text>
</a>
</g>
</g>
<!-- Node11&#45;&gt;Node12 -->
<g id="edge15_Node000011_Node000012" class="edge">
<title>Node11&#45;&gt;Node12</title>
<g id="a_edge15_Node000011_Node000012"><a xlink:title=" ">
<path fill="none" stroke="#63b8ff" d="M418.5,-60.37C418.5,-52.25 418.5,-39.81 418.5,-29.39"/>
<polygon fill="#63b8ff" stroke="#63b8ff" points="422,-29.17 418.5,-19.17 415,-29.17 422,-29.17"/>
</a>
</g>
</g>
<!-- Node13 -->
<g id="Node000013" class="node">
<title>Node13</title>
<g id="a_Node000013"><a xlink:title=" ">
<polygon fill="#e0e0e0" stroke="#999999" points="1093.5,-19 1037.5,-19 1037.5,0 1093.5,0 1093.5,-19"/>
<text text-anchor="middle" x="1065.5" y="-7" font-family="Helvetica,sans-Serif" font-size="10.00">sstream</text>
</a>
</g>
</g>
<!-- Node11&#45;&gt;Node13 -->
<g id="edge16_Node000011_Node000013" class="edge">
<title>Node11&#45;&gt;Node13</title>
<g id="a_edge16_Node000011_Node000013"><a xlink:title=" ">
<path fill="none" stroke="#63b8ff" d="M448.53,-60.48C456.88,-58.39 465.99,-56.36 474.5,-55 694.51,-19.85 752.46,-37.36 974.5,-19 991.75,-17.57 1010.83,-15.82 1027.04,-14.28"/>
<polygon fill="#63b8ff" stroke="#63b8ff" points="1027.61,-17.74 1037.23,-13.3 1026.94,-10.77 1027.61,-17.74"/>
</a>
</g>
</g>
<!-- Node11&#45;&gt;Node14 -->
<g id="edge19_Node000011_Node000014" class="edge">
<title>Node11&#45;&gt;Node14</title>
<g id="a_edge19_Node000011_Node000014"><a xlink:title=" ">
<path fill="none" stroke="#63b8ff" d="M398.29,-60.49C374.82,-50.62 335.89,-34.23 309.04,-22.93"/>
<polygon fill="#63b8ff" stroke="#63b8ff" points="310.31,-19.67 299.74,-19.02 307.6,-26.12 310.31,-19.67"/>
</a>
</g>
</g>
<!-- Node16&#45;&gt;Node3 -->
<g id="edge24_Node000016_Node000003" class="edge">
<title>Node16&#45;&gt;Node3</title>
<g id="a_edge24_Node000016_Node000003"><a xlink:title=" ">
<path fill="none" stroke="#63b8ff" d="M1068.08,-60.49C1012.43,-48.78 913.35,-27.93 862.52,-17.24"/>
<polygon fill="#63b8ff" stroke="#63b8ff" points="863.24,-13.81 852.73,-15.18 861.79,-20.66 863.24,-13.81"/>
</a>
</g>
</g>
<!-- Node16&#45;&gt;Node6 -->
<g id="edge25_Node000016_Node000006" class="edge">
<title>Node16&#45;&gt;Node6</title>
<g id="a_edge25_Node000016_Node000006"><a xlink:title=" ">
<path fill="none" stroke="#63b8ff" d="M1053.8,-60.48C1040.62,-58.55 1026.57,-56.61 1013.5,-55 857.6,-35.85 670.64,-19.56 595.35,-13.27"/>
<polygon fill="#63b8ff" stroke="#63b8ff" points="595.33,-9.76 585.07,-12.42 594.75,-16.73 595.33,-9.76"/>
</a>
</g>
</g>
<!-- Node16&#45;&gt;Node13 -->
<g id="edge23_Node000016_Node000013" class="edge">
<title>Node16&#45;&gt;Node13</title>
<g id="a_edge23_Node000016_Node000013"><a xlink:title=" ">
<path fill="none" stroke="#63b8ff" d="M1102.16,-60.37C1095.8,-51.73 1085.86,-38.2 1077.93,-27.42"/>
<polygon fill="#63b8ff" stroke="#63b8ff" points="1080.61,-25.15 1071.87,-19.17 1074.97,-29.3 1080.61,-25.15"/>
</a>
</g>
</g>
<!-- Node17 -->
<g id="Node000017" class="node">
<title>Node17</title>
<g id="a_Node000017"><a xlink:href="LatLon_8h.html" target="_top" xlink:title="Représentation d&#39;une coordonnée géographique WGS&#45;84 (latitude, longitude).">
<polygon fill="white" stroke="#666666" points="965.5,-19 907.5,-19 907.5,0 965.5,0 965.5,-19"/>
<text text-anchor="middle" x="936.5" y="-7" font-family="Helvetica,sans-Serif" font-size="10.00">LatLon.h</text>
</a>
</g>
</g>
<!-- Node16&#45;&gt;Node17 -->
<g id="edge26_Node000016_Node000017" class="edge">
<title>Node16&#45;&gt;Node17</title>
<g id="a_edge26_Node000016_Node000017"><a xlink:title=" ">
<path fill="none" stroke="#63b8ff" d="M1083.49,-60.49C1053.94,-50.44 1004.59,-33.66 971.31,-22.34"/>
<polygon fill="#63b8ff" stroke="#63b8ff" points="972.13,-18.92 961.54,-19.02 969.88,-25.55 972.13,-18.92"/>
</a>
</g>
</g>
<!-- Node18&#45;&gt;Node3 -->
<g id="edge30_Node000018_Node000003" class="edge">
<title>Node18&#45;&gt;Node3</title>
<g id="a_edge30_Node000018_Node000003"><a xlink:title=" ">
<path fill="none" stroke="#63b8ff" d="M907.22,-60.37C892.86,-51.04 869.74,-36.01 852.63,-24.88"/>
<polygon fill="#63b8ff" stroke="#63b8ff" points="854.13,-21.68 843.83,-19.17 850.31,-27.55 854.13,-21.68"/>
</a>
</g>
</g>
<!-- Node18&#45;&gt;Node6 -->
<g id="edge31_Node000018_Node000006" class="edge">
<title>Node18&#45;&gt;Node6</title>
<g id="a_edge31_Node000018_Node000006"><a xlink:title=" ">
<path fill="none" stroke="#63b8ff" d="M868.3,-60.49C793.66,-48.33 658.53,-26.31 595.54,-16.05"/>
<polygon fill="#63b8ff" stroke="#63b8ff" points="595.79,-12.54 585.35,-14.39 594.66,-19.45 595.79,-12.54"/>
</a>
</g>
</g>
<!-- Node18&#45;&gt;Node10 -->
<g id="edge28_Node000018_Node000010" class="edge">
<title>Node18&#45;&gt;Node10</title>
<g id="a_edge28_Node000018_Node000010"><a xlink:title=" ">
<path fill="none" stroke="#63b8ff" d="M847.61,-60.45C751.86,-49.09 588.93,-29.26 529.5,-19 529.17,-18.94 528.83,-18.88 528.5,-18.83"/>
<polygon fill="#63b8ff" stroke="#63b8ff" points="529.04,-15.37 518.56,-16.92 527.73,-22.24 529.04,-15.37"/>
</a>
</g>
</g>
<!-- Node18&#45;&gt;Node13 -->
<g id="edge29_Node000018_Node000013" class="edge">
<title>Node18&#45;&gt;Node13</title>
<g id="a_edge29_Node000018_Node000013"><a xlink:title=" ">
<path fill="none" stroke="#63b8ff" d="M941.58,-60.49C966.18,-50.57 1007.03,-34.09 1035.06,-22.78"/>
<polygon fill="#63b8ff" stroke="#63b8ff" points="1036.43,-26 1044.39,-19.02 1033.81,-19.51 1036.43,-26"/>
</a>
</g>
</g>
<!-- Node18&#45;&gt;Node17 -->
<g id="edge32_Node000018_Node000017" class="edge">
<title>Node18&#45;&gt;Node17</title>
<g id="a_edge32_Node000018_Node000017"><a xlink:title=" ">
<path fill="none" stroke="#63b8ff" d="M922.86,-60.37C925.11,-52.16 928.56,-39.54 931.43,-29.05"/>
<polygon fill="#63b8ff" stroke="#63b8ff" points="934.87,-29.74 934.13,-19.17 928.12,-27.89 934.87,-29.74"/>
</a>
</g>
</g>
<!-- Node19&#45;&gt;Node3 -->
<g id="edge40_Node000019_Node000003" class="edge">
<title>Node19&#45;&gt;Node3</title>
<g id="a_edge40_Node000019_Node000003"><a xlink:title=" ">
<path fill="none" stroke="#63b8ff" d="M1212.71,-56.46C1209.94,-55.94 1207.19,-55.45 1204.5,-55 1069.45,-32.34 1034.44,-35.49 898.5,-19 886.74,-17.57 873.85,-15.97 862.48,-14.55"/>
<polygon fill="#63b8ff" stroke="#63b8ff" points="862.9,-11.07 852.54,-13.3 862.03,-18.02 862.9,-11.07"/>
</a>
</g>
</g>
<!-- Node19&#45;&gt;Node13 -->
<g id="edge39_Node000019_Node000013" class="edge">
<title>Node19&#45;&gt;Node13</title>
<g id="a_edge39_Node000019_Node000013"><a xlink:title=" ">
<path fill="none" stroke="#63b8ff" d="M1219.88,-54.99C1184.16,-44.7 1136.32,-30.91 1103.42,-21.43"/>
<polygon fill="#63b8ff" stroke="#63b8ff" points="1104.29,-18.04 1093.71,-18.63 1102.35,-24.76 1104.29,-18.04"/>
</a>
</g>
</g>
<!-- Node20 -->
<g id="Node000020" class="node">
<title>Node20</title>
<g id="a_Node000020"><a xlink:title=" ">
<polygon fill="#e0e0e0" stroke="#999999" points="1253.5,-19 1209.5,-19 1209.5,0 1253.5,0 1253.5,-19"/>
<text text-anchor="middle" x="1231.5" y="-7" font-family="Helvetica,sans-Serif" font-size="10.00">ctime</text>
</a>
</g>
</g>
<!-- Node19&#45;&gt;Node20 -->
<g id="edge35_Node000019_Node000020" class="edge">
<title>Node19&#45;&gt;Node20</title>
<g id="a_edge35_Node000019_Node000020"><a xlink:title=" ">
<path fill="none" stroke="#63b8ff" d="M1259.54,-54.84C1254.39,-46.69 1247.88,-36.4 1242.43,-27.78"/>
<polygon fill="#63b8ff" stroke="#63b8ff" points="1245.35,-25.85 1237.04,-19.27 1239.43,-29.59 1245.35,-25.85"/>
</a>
</g>
</g>
<!-- Node21 -->
<g id="Node000021" class="node">
<title>Node21</title>
<g id="a_Node000021"><a xlink:title=" ">
<polygon fill="#e0e0e0" stroke="#999999" points="1339.5,-19 1271.5,-19 1271.5,0 1339.5,0 1339.5,-19"/>
<text text-anchor="middle" x="1305.5" y="-7" font-family="Helvetica,sans-Serif" font-size="10.00">filesystem</text>
</a>
</g>
</g>
<!-- Node19&#45;&gt;Node21 -->
<g id="edge36_Node000019_Node000021" class="edge">
<title>Node19&#45;&gt;Node21</title>
<g id="a_edge36_Node000019_Node000021"><a xlink:title=" ">
<path fill="none" stroke="#63b8ff" d="M1277.46,-54.84C1282.61,-46.69 1289.12,-36.4 1294.57,-27.78"/>
<polygon fill="#63b8ff" stroke="#63b8ff" points="1297.57,-29.59 1299.96,-19.27 1291.65,-25.85 1297.57,-29.59"/>
</a>
</g>
</g>
<!-- Node22 -->
<g id="Node000022" class="node">
<title>Node22</title>
<g id="a_Node000022"><a xlink:title=" ">
<polygon fill="#e0e0e0" stroke="#999999" points="1413,-19 1358,-19 1358,0 1413,0 1413,-19"/>
<text text-anchor="middle" x="1385.5" y="-7" font-family="Helvetica,sans-Serif" font-size="10.00">fstream</text>
</a>
</g>
</g>
<!-- Node19&#45;&gt;Node22 -->
<g id="edge37_Node000019_Node000022" class="edge">
<title>Node19&#45;&gt;Node22</title>
<g id="a_edge37_Node000019_Node000022"><a xlink:title=" ">
<path fill="none" stroke="#63b8ff" d="M1296.52,-54.99C1315.52,-45.49 1340.47,-33.02 1359.11,-23.69"/>
<polygon fill="#63b8ff" stroke="#63b8ff" points="1360.84,-26.74 1368.22,-19.14 1357.71,-20.48 1360.84,-26.74"/>
</a>
</g>
</g>
<!-- Node23 -->
<g id="Node000023" class="node">
<title>Node23</title>
<g id="a_Node000023"><a xlink:title=" ">
<polygon fill="#e0e0e0" stroke="#999999" points="1191.5,-19 1143.5,-19 1143.5,0 1191.5,0 1191.5,-19"/>
<text text-anchor="middle" x="1167.5" y="-7" font-family="Helvetica,sans-Serif" font-size="10.00">mutex</text>
</a>
</g>
</g>
<!-- Node19&#45;&gt;Node23 -->
<g id="edge38_Node000019_Node000023" class="edge">
<title>Node19&#45;&gt;Node23</title>
<g id="a_edge38_Node000019_Node000023"><a xlink:title=" ">
<path fill="none" stroke="#63b8ff" d="M1244.31,-54.99C1228.21,-45.66 1207.16,-33.47 1191.17,-24.21"/>
<polygon fill="#63b8ff" stroke="#63b8ff" points="1192.82,-21.12 1182.42,-19.14 1189.31,-27.18 1192.82,-21.12"/>
</a>
</g>
</g>
</g>
</svg>
