<?xml version="1.0" encoding="UTF-8" standalone="no"?>
<!DOCTYPE svg PUBLIC "-//W3C//DTD SVG 1.1//EN"
 "http://www.w3.org/Graphics/SVG/1.1/DTD/svg11.dtd">
<!-- Generated by graphviz version 2.43.0 (0)
 -->
<!-- Title: SimulateurFerroviaire/Modules/GeoParser/DoubleSwitchDetector.h Pages: 1 -->
<svg width="1617pt" height="302pt"
 viewBox="0.00 0.00 1617.26 302.00" xmlns="http://www.w3.org/2000/svg" xmlns:xlink="http://www.w3.org/1999/xlink">
<g id="graph0" class="graph" transform="scale(1 1) rotate(0) translate(4 298)">
<title>SimulateurFerroviaire/Modules/GeoParser/DoubleSwitchDetector.h</title>
<!-- Node1 -->
<g id="Node000001" class="node">
<title>Node1</title>
<g id="a_Node000001"><a xlink:title="Phases 7 et 8 — détection des doubles aiguilles et validation CDC.">
<polygon fill="#999999" stroke="#666666" points="963,-294 780,-294 780,-253 963,-253 963,-294"/>
<text text-anchor="start" x="788" y="-282" font-family="Helvetica,sans-Serif" font-size="10.00">SimulateurFerroviaire</text>
<text text-anchor="start" x="788" y="-271" font-family="Helvetica,sans-Serif" font-size="10.00">/Modules/GeoParser/DoubleSwitch</text>
<text text-anchor="middle" x="871.5" y="-260" font-family="Helvetica,sans-Serif" font-size="10.00">Detector.h</text>
</a>
</g>
</g>
<!-- Node2 -->
<g id="Node000002" class="node">
<title>Node2</title>
<g id="a_Node000002"><a xlink:title=" ">
<polygon fill="#e0e0e0" stroke="#999999" points="345.5,-211.5 313.5,-211.5 313.5,-192.5 345.5,-192.5 345.5,-211.5"/>
<text text-anchor="middle" x="329.5" y="-199.5" font-family="Helvetica,sans-Serif" font-size="10.00">set</text>
</a>
</g>
</g>
<!-- Node1&#45;&gt;Node2 -->
<g id="edge1_Node000001_Node000002" class="edge">
<title>Node1&#45;&gt;Node2</title>
<g id="a_edge1_Node000001_Node000002"><a xlink:title=" ">
<path fill="none" stroke="#63b8ff" d="M779.62,-271.56C675.81,-268.44 502.67,-256.98 359.5,-217 357.86,-216.54 356.2,-216 354.55,-215.41"/>
<polygon fill="#63b8ff" stroke="#63b8ff" points="355.9,-212.18 345.32,-211.56 353.2,-218.64 355.9,-212.18"/>
</a>
</g>
</g>
<!-- Node3 -->
<g id="Node000003" class="node">
<title>Node3</title>
<g id="a_Node000003"><a xlink:title=" ">
<polygon fill="#e0e0e0" stroke="#999999" points="691.5,-19 647.5,-19 647.5,0 691.5,0 691.5,-19"/>
<text text-anchor="middle" x="669.5" y="-7" font-family="Helvetica,sans-Serif" font-size="10.00">string</text>
</a>
</g>
</g>
<!-- Node1&#45;&gt;Node3 -->
<g id="edge2_Node000001_Node000003" class="edge">
<title>Node1&#45;&gt;Node3</title>
<g id="a_edge2_Node000001_Node000003"><a xlink:title=" ">
<path fill="none" stroke="#63b8ff" d="M963.03,-269.02C1176.02,-259.15 1680.86,-224.61 1600.5,-121 1528.22,-27.82 1459.95,-73.63 1343.5,-55 1099.07,-15.89 799.48,-11.02 701.89,-10.52"/>
<polygon fill="#63b8ff" stroke="#63b8ff" points="701.79,-7.02 691.78,-10.48 701.76,-14.02 701.79,-7.02"/>
</a>
</g>
</g>
<!-- Node4 -->
<g id="Node000004" class="node">
<title>Node4</title>
<g id="a_Node000004"><a xlink:title=" ">
<polygon fill="#e0e0e0" stroke="#999999" points="979,-145.5 886,-145.5 886,-126.5 979,-126.5 979,-145.5"/>
<text text-anchor="middle" x="932.5" y="-133.5" font-family="Helvetica,sans-Serif" font-size="10.00">unordered_map</text>
</a>
</g>
</g>
<!-- Node1&#45;&gt;Node4 -->
<g id="edge3_Node000001_Node000004" class="edge">
<title>Node1&#45;&gt;Node4</title>
<g id="a_edge3_Node000001_Node000004"><a xlink:title=" ">
<path fill="none" stroke="#63b8ff" d="M880.37,-252.8C892.22,-226.48 913.04,-180.22 924.46,-154.87"/>
<polygon fill="#63b8ff" stroke="#63b8ff" points="927.68,-156.24 928.59,-145.69 921.29,-153.37 927.68,-156.24"/>
</a>
</g>
</g>
<!-- Node5 -->
<g id="Node000005" class="node">
<title>Node5</title>
<g id="a_Node000005"><a xlink:title=" ">
<polygon fill="#e0e0e0" stroke="#999999" points="1042,-145.5 997,-145.5 997,-126.5 1042,-126.5 1042,-145.5"/>
<text text-anchor="middle" x="1019.5" y="-133.5" font-family="Helvetica,sans-Serif" font-size="10.00">utility</text>
</a>
</g>
</g>
<!-- Node1&#45;&gt;Node5 -->
<g id="edge4_Node000001_Node000005" class="edge">
<title>Node1&#45;&gt;Node5</title>
<g id="a_edge4_Node000001_Node000005"><a xlink:title=" ">
<path fill="none" stroke="#63b8ff" d="M893.02,-252.8C922.66,-225.66 975.45,-177.33 1002.5,-152.56"/>
<polygon fill="#63b8ff" stroke="#63b8ff" points="1005,-155.02 1010.01,-145.69 1000.27,-149.86 1005,-155.02"/>
</a>
</g>
</g>
<!-- Node6 -->
<g id="Node000006" class="node">
<title>Node6</title>
<g id="a_Node000006"><a xlink:title=" ">
<polygon fill="#e0e0e0" stroke="#999999" points="819,-79.5 772,-79.5 772,-60.5 819,-60.5 819,-79.5"/>
<text text-anchor="middle" x="795.5" y="-67.5" font-family="Helvetica,sans-Serif" font-size="10.00">vector</text>
</a>
</g>
</g>
<!-- Node1&#45;&gt;Node6 -->
<g id="edge5_Node000001_Node000006" class="edge">
<title>Node1&#45;&gt;Node6</title>
<g id="a_edge5_Node000001_Node000006"><a xlink:title=" ">
<path fill="none" stroke="#63b8ff" d="M856.65,-252.68C840.24,-229.6 814.54,-189.68 802.5,-151 796.23,-130.86 794.93,-106.59 794.91,-90.1"/>
<polygon fill="#63b8ff" stroke="#63b8ff" points="798.41,-89.69 795.07,-79.64 791.42,-89.58 798.41,-89.69"/>
</a>
</g>
</g>
<!-- Node7 -->
<g id="Node000007" class="node">
<title>Node7</title>
<g id="a_Node000007"><a xlink:href="TopologyGraph_8h.html" target="_top" xlink:title="Graphe planaire non&#45;orienté de nœuds et d&#39;arêtes ferroviaires accrochés.">
<polygon fill="white" stroke="#666666" points="1222,-211.5 1085,-211.5 1085,-192.5 1222,-192.5 1222,-211.5"/>
<text text-anchor="middle" x="1153.5" y="-199.5" font-family="Helvetica,sans-Serif" font-size="10.00">./Graph/TopologyGraph.h</text>
</a>
</g>
</g>
<!-- Node1&#45;&gt;Node7 -->
<g id="edge6_Node000001_Node000007" class="edge">
<title>Node1&#45;&gt;Node7</title>
<g id="a_edge6_Node000001_Node000007"><a xlink:title=" ">
<path fill="none" stroke="#63b8ff" d="M950.8,-252.96C1002.08,-240.32 1066.92,-224.34 1109.26,-213.9"/>
<polygon fill="#63b8ff" stroke="#63b8ff" points="1110.12,-217.29 1119,-211.5 1108.45,-210.5 1110.12,-217.29"/>
</a>
</g>
</g>
<!-- Node15 -->
<g id="Node000015" class="node">
<title>Node15</title>
<g id="a_Node000015"><a xlink:href="GeoParserEnums_8h.html" target="_top" xlink:title="Constantes nommées et énumérations du pipeline ferroviaire GeoParser.">
<polygon fill="white" stroke="#666666" points="1591,-145.5 1438,-145.5 1438,-126.5 1591,-126.5 1591,-145.5"/>
<text text-anchor="middle" x="1514.5" y="-133.5" font-family="Helvetica,sans-Serif" font-size="10.00">../Enums/GeoParserEnums.h</text>
</a>
</g>
</g>
<!-- Node1&#45;&gt;Node15 -->
<g id="edge35_Node000001_Node000015" class="edge">
<title>Node1&#45;&gt;Node15</title>
<g id="a_edge35_Node000001_Node000015"><a xlink:title=" ">
<path fill="none" stroke="#63b8ff" d="M963.17,-261.44C1036.05,-251.91 1140.37,-236.59 1230.5,-217 1320.79,-197.38 1424.84,-165.69 1478.43,-148.68"/>
<polygon fill="#63b8ff" stroke="#63b8ff" points="1479.68,-151.96 1488.15,-145.58 1477.55,-145.29 1479.68,-151.96"/>
</a>
</g>
</g>
<!-- Node16 -->
<g id="Node000016" class="node">
<title>Node16</title>
<g id="a_Node000016"><a xlink:href="StraightBlock_8h.html" target="_top" xlink:title="Modèle de domaine d&#39;un bloc de voie droite (Straight).">
<polygon fill="white" stroke="#666666" points="586,-217 401,-217 401,-187 586,-187 586,-217"/>
<text text-anchor="start" x="409" y="-205" font-family="Helvetica,sans-Serif" font-size="10.00">Modules/InteractiveElements</text>
<text text-anchor="middle" x="493.5" y="-194" font-family="Helvetica,sans-Serif" font-size="10.00">/ShuntingElements/StraightBlock.h</text>
</a>
</g>
</g>
<!-- Node1&#45;&gt;Node16 -->
<g id="edge22_Node000001_Node000016" class="edge">
<title>Node1&#45;&gt;Node16</title>
<g id="a_edge22_Node000001_Node000016"><a xlink:title=" ">
<path fill="none" stroke="#63b8ff" d="M780,-255.68C719.17,-244.49 639.79,-229.9 580.01,-218.91"/>
<polygon fill="#63b8ff" stroke="#63b8ff" points="580.31,-215.4 569.84,-217.04 579.04,-222.29 580.31,-215.4"/>
</a>
</g>
</g>
<!-- Node20 -->
<g id="Node000020" class="node">
<title>Node20</title>
<g id="a_Node000020"><a xlink:href="SwitchBlock_8h.html" target="_top" xlink:title="Modèle de domaine d&#39;un aiguillage ferroviaire à 3 branches.">
<polygon fill="white" stroke="#666666" points="783,-217 604,-217 604,-187 783,-187 783,-217"/>
<text text-anchor="start" x="612" y="-205" font-family="Helvetica,sans-Serif" font-size="10.00">Modules/InteractiveElements</text>
<text text-anchor="middle" x="693.5" y="-194" font-family="Helvetica,sans-Serif" font-size="10.00">/ShuntingElements/SwitchBlock.h</text>
</a>
</g>
</g>
<!-- Node1&#45;&gt;Node20 -->
<g id="edge29_Node000001_Node000020" class="edge">
<title>Node1&#45;&gt;Node20</title>
<g id="a_edge29_Node000001_Node000020"><a xlink:title=" ">
<path fill="none" stroke="#63b8ff" d="M821.44,-252.96C795.46,-242.81 763.95,-230.51 738.71,-220.65"/>
<polygon fill="#63b8ff" stroke="#63b8ff" points="739.95,-217.38 729.37,-217 737.41,-223.9 739.95,-217.38"/>
</a>
</g>
</g>
<!-- Node21 -->
<g id="Node000021" class="node">
<title>Node21</title>
<g id="a_Node000021"><a xlink:href="Logger_8h.html" target="_top" xlink:title="Système de journalisation à 5 niveaux de trace, un fichier par moteur.">
<polygon fill="white" stroke="#666666" points="291,-151 180,-151 180,-121 291,-121 291,-151"/>
<text text-anchor="start" x="188" y="-139" font-family="Helvetica,sans-Serif" font-size="10.00">Engine/Core/Logger</text>
<text text-anchor="middle" x="235.5" y="-128" font-family="Helvetica,sans-Serif" font-size="10.00">/Logger.h</text>
</a>
</g>
</g>
<!-- Node1&#45;&gt;Node21 -->
<g id="edge36_Node000001_Node000021" class="edge">
<title>Node1&#45;&gt;Node21</title>
<g id="a_edge36_Node000001_Node000021"><a xlink:title=" ">
<path fill="none" stroke="#63b8ff" d="M779.85,-268C660.62,-261.1 459.5,-245.61 391.5,-217 371.99,-208.79 372.66,-197.88 354.5,-187 333.15,-174.21 307.92,-163.11 286.21,-154.64"/>
<polygon fill="#63b8ff" stroke="#63b8ff" points="287.41,-151.35 276.82,-151.05 284.91,-157.89 287.41,-151.35"/>
</a>
</g>
</g>
<!-- Node7&#45;&gt;Node3 -->
<g id="edge10_Node000007_Node000003" class="edge">
<title>Node7&#45;&gt;Node3</title>
<g id="a_edge10_Node000007_Node000003"><a xlink:title=" ">
<path fill="none" stroke="#63b8ff" d="M1190.46,-192.47C1228.71,-182.96 1284.98,-166.83 1300.5,-151 1331.08,-119.81 1351.31,-86.92 1321.5,-55 1278.89,-9.38 827.65,-9.31 701.88,-10.19"/>
<polygon fill="#63b8ff" stroke="#63b8ff" points="701.7,-6.69 691.73,-10.27 701.76,-13.69 701.7,-6.69"/>
</a>
</g>
</g>
<!-- Node7&#45;&gt;Node4 -->
<g id="edge11_Node000007_Node000004" class="edge">
<title>Node7&#45;&gt;Node4</title>
<g id="a_edge11_Node000007_Node000004"><a xlink:title=" ">
<path fill="none" stroke="#63b8ff" d="M1123.69,-192.37C1084.45,-181 1015.36,-161 971.86,-148.4"/>
<polygon fill="#63b8ff" stroke="#63b8ff" points="972.76,-145.02 962.18,-145.6 970.82,-151.74 972.76,-145.02"/>
</a>
</g>
</g>
<!-- Node7&#45;&gt;Node5 -->
<g id="edge12_Node000007_Node000005" class="edge">
<title>Node7&#45;&gt;Node5</title>
<g id="a_edge12_Node000007_Node000005"><a xlink:title=" ">
<path fill="none" stroke="#63b8ff" d="M1135.43,-192.37C1112.65,-181.49 1073.28,-162.69 1046.82,-150.05"/>
<polygon fill="#63b8ff" stroke="#63b8ff" points="1048.25,-146.85 1037.71,-145.7 1045.23,-153.17 1048.25,-146.85"/>
</a>
</g>
</g>
<!-- Node7&#45;&gt;Node6 -->
<g id="edge13_Node000007_Node000006" class="edge">
<title>Node7&#45;&gt;Node6</title>
<g id="a_edge13_Node000007_Node000006"><a xlink:title=" ">
<path fill="none" stroke="#63b8ff" d="M1154.17,-192.48C1154.95,-175.98 1154.08,-139.65 1133.5,-121 1089.32,-80.95 906.07,-72.97 829.43,-71.39"/>
<polygon fill="#63b8ff" stroke="#63b8ff" points="829.41,-67.89 819.35,-71.2 829.29,-74.88 829.41,-67.89"/>
</a>
</g>
</g>
<!-- Node8 -->
<g id="Node000008" class="node">
<title>Node8</title>
<g id="a_Node000008"><a xlink:title=" ">
<polygon fill="#e0e0e0" stroke="#999999" points="1419.5,-145.5 1369.5,-145.5 1369.5,-126.5 1419.5,-126.5 1419.5,-145.5"/>
<text text-anchor="middle" x="1394.5" y="-133.5" font-family="Helvetica,sans-Serif" font-size="10.00">cstdint</text>
</a>
</g>
</g>
<!-- Node7&#45;&gt;Node8 -->
<g id="edge7_Node000007_Node000008" class="edge">
<title>Node7&#45;&gt;Node8</title>
<g id="a_edge7_Node000007_Node000008"><a xlink:title=" ">
<path fill="none" stroke="#63b8ff" d="M1192.92,-192.49C1233.88,-183.37 1299.65,-167.89 1355.5,-151 1357.77,-150.31 1360.09,-149.57 1362.43,-148.8"/>
<polygon fill="#63b8ff" stroke="#63b8ff" points="1363.62,-152.1 1371.95,-145.54 1361.35,-145.47 1363.62,-152.1"/>
</a>
</g>
</g>
<!-- Node9 -->
<g id="Node000009" class="node">
<title>Node9</title>
<g id="a_Node000009"><a xlink:title=" ">
<polygon fill="#e0e0e0" stroke="#999999" points="1125,-145.5 1060,-145.5 1060,-126.5 1125,-126.5 1125,-145.5"/>
<text text-anchor="middle" x="1092.5" y="-133.5" font-family="Helvetica,sans-Serif" font-size="10.00">functional</text>
</a>
</g>
</g>
<!-- Node7&#45;&gt;Node9 -->
<g id="edge8_Node000007_Node000009" class="edge">
<title>Node7&#45;&gt;Node9</title>
<g id="a_edge8_Node000007_Node000009"><a xlink:title=" ">
<path fill="none" stroke="#63b8ff" d="M1145.27,-192.37C1135.78,-182.4 1119.94,-165.79 1108.09,-153.36"/>
<polygon fill="#63b8ff" stroke="#63b8ff" points="1110.42,-150.73 1100.99,-145.91 1105.35,-155.56 1110.42,-150.73"/>
</a>
</g>
</g>
<!-- Node10 -->
<g id="Node000010" class="node">
<title>Node10</title>
<g id="a_Node000010"><a xlink:title=" ">
<polygon fill="#e0e0e0" stroke="#999999" points="867.5,-145.5 811.5,-145.5 811.5,-126.5 867.5,-126.5 867.5,-145.5"/>
<text text-anchor="middle" x="839.5" y="-133.5" font-family="Helvetica,sans-Serif" font-size="10.00">optional</text>
</a>
</g>
</g>
<!-- Node7&#45;&gt;Node10 -->
<g id="edge9_Node000007_Node000010" class="edge">
<title>Node7&#45;&gt;Node10</title>
<g id="a_edge9_Node000007_Node000010"><a xlink:title=" ">
<path fill="none" stroke="#63b8ff" d="M1086.97,-192.48C1030.38,-184.41 947.26,-170.6 876.5,-151 874.21,-150.37 871.86,-149.65 869.52,-148.88"/>
<polygon fill="#63b8ff" stroke="#63b8ff" points="870.62,-145.56 860.02,-145.53 868.29,-152.16 870.62,-145.56"/>
</a>
</g>
</g>
<!-- Node11 -->
<g id="Node000011" class="node">
<title>Node11</title>
<g id="a_Node000011"><a xlink:href="TopologyEdge_8h.html" target="_top" xlink:title="Arête non&#45;orientée du graphe planaire de topologie ferroviaire.">
<polygon fill="white" stroke="#666666" points="1275,-145.5 1182,-145.5 1182,-126.5 1275,-126.5 1275,-145.5"/>
<text text-anchor="middle" x="1228.5" y="-133.5" font-family="Helvetica,sans-Serif" font-size="10.00">TopologyEdge.h</text>
</a>
</g>
</g>
<!-- Node7&#45;&gt;Node11 -->
<g id="edge14_Node000007_Node000011" class="edge">
<title>Node7&#45;&gt;Node11</title>
<g id="a_edge14_Node000007_Node000011"><a xlink:title=" ">
<path fill="none" stroke="#63b8ff" d="M1163.61,-192.37C1175.51,-182.21 1195.5,-165.16 1210.15,-152.65"/>
<polygon fill="#63b8ff" stroke="#63b8ff" points="1212.73,-155.06 1218.06,-145.91 1208.19,-149.73 1212.73,-155.06"/>
</a>
</g>
</g>
<!-- Node14 -->
<g id="Node000014" class="node">
<title>Node14</title>
<g id="a_Node000014"><a xlink:href="CoordinateXY_8h.html" target="_top" xlink:title="Représentation d&#39;une coordonnée plane en mètres (système métrique UTM).">
<polygon fill="white" stroke="#666666" points="1313,-85 1194,-85 1194,-55 1313,-55 1313,-85"/>
<text text-anchor="start" x="1202" y="-73" font-family="Helvetica,sans-Serif" font-size="10.00">Modules/Coordinates</text>
<text text-anchor="middle" x="1253.5" y="-62" font-family="Helvetica,sans-Serif" font-size="10.00">/CoordinateXY.h</text>
</a>
</g>
</g>
<!-- Node7&#45;&gt;Node14 -->
<g id="edge20_Node000007_Node000014" class="edge">
<title>Node7&#45;&gt;Node14</title>
<g id="a_edge20_Node000007_Node000014"><a xlink:title=" ">
<path fill="none" stroke="#63b8ff" d="M1216.41,-192.44C1241.61,-185.58 1268.24,-173.23 1283.5,-151 1295.59,-133.4 1284.6,-110.31 1272.67,-93.46"/>
<polygon fill="#63b8ff" stroke="#63b8ff" points="1275.29,-91.13 1266.46,-85.28 1269.72,-95.36 1275.29,-91.13"/>
</a>
</g>
</g>
<!-- Node7&#45;&gt;Node15 -->
<g id="edge21_Node000007_Node000015" class="edge">
<title>Node7&#45;&gt;Node15</title>
<g id="a_edge21_Node000007_Node000015"><a xlink:title=" ">
<path fill="none" stroke="#63b8ff" d="M1201.81,-192.44C1267.74,-180.75 1385.73,-159.83 1456.4,-147.3"/>
<polygon fill="#63b8ff" stroke="#63b8ff" points="1457.24,-150.71 1466.47,-145.51 1456.02,-143.81 1457.24,-150.71"/>
</a>
</g>
</g>
<!-- Node11&#45;&gt;Node3 -->
<g id="edge17_Node000011_Node000003" class="edge">
<title>Node11&#45;&gt;Node3</title>
<g id="a_edge17_Node000011_Node000003"><a xlink:title=" ">
<path fill="none" stroke="#63b8ff" d="M1220.93,-126.39C1204.12,-107.48 1163.69,-63.34 1145.5,-55 1066.05,-18.55 795.1,-11.96 701.56,-10.76"/>
<polygon fill="#63b8ff" stroke="#63b8ff" points="701.6,-7.26 691.56,-10.65 701.52,-14.26 701.6,-7.26"/>
</a>
</g>
</g>
<!-- Node11&#45;&gt;Node6 -->
<g id="edge18_Node000011_Node000006" class="edge">
<title>Node11&#45;&gt;Node6</title>
<g id="a_edge18_Node000011_Node000006"><a xlink:title=" ">
<path fill="none" stroke="#63b8ff" d="M1193.78,-126.45C1185.22,-124.5 1176.05,-122.55 1167.5,-121 1043.6,-98.5 894.79,-81.48 829.27,-74.49"/>
<polygon fill="#63b8ff" stroke="#63b8ff" points="829.43,-70.98 819.12,-73.41 828.7,-77.94 829.43,-70.98"/>
</a>
</g>
</g>
<!-- Node12 -->
<g id="Node000012" class="node">
<title>Node12</title>
<g id="a_Node000012"><a xlink:title=" ">
<polygon fill="#e0e0e0" stroke="#999999" points="1137,-79.5 1090,-79.5 1090,-60.5 1137,-60.5 1137,-79.5"/>
<text text-anchor="middle" x="1113.5" y="-67.5" font-family="Helvetica,sans-Serif" font-size="10.00">cmath</text>
</a>
</g>
</g>
<!-- Node11&#45;&gt;Node12 -->
<g id="edge15_Node000011_Node000012" class="edge">
<title>Node11&#45;&gt;Node12</title>
<g id="a_edge15_Node000011_Node000012"><a xlink:title=" ">
<path fill="none" stroke="#63b8ff" d="M1212.99,-126.37C1193.79,-115.68 1160.84,-97.35 1138.15,-84.72"/>
<polygon fill="#63b8ff" stroke="#63b8ff" points="1139.57,-81.5 1129.13,-79.7 1136.17,-87.62 1139.57,-81.5"/>
</a>
</g>
</g>
<!-- Node13 -->
<g id="Node000013" class="node">
<title>Node13</title>
<g id="a_Node000013"><a xlink:title=" ">
<polygon fill="#e0e0e0" stroke="#999999" points="753.5,-79.5 697.5,-79.5 697.5,-60.5 753.5,-60.5 753.5,-79.5"/>
<text text-anchor="middle" x="725.5" y="-67.5" font-family="Helvetica,sans-Serif" font-size="10.00">sstream</text>
</a>
</g>
</g>
<!-- Node11&#45;&gt;Node13 -->
<g id="edge16_Node000011_Node000013" class="edge">
<title>Node11&#45;&gt;Node13</title>
<g id="a_edge16_Node000011_Node000013"><a xlink:title=" ">
<path fill="none" stroke="#63b8ff" d="M1181.69,-127.63C1166.36,-125.34 1149.22,-122.92 1133.5,-121 969.06,-100.92 923.83,-122.64 762.5,-85 759.98,-84.41 757.41,-83.7 754.84,-82.9"/>
<polygon fill="#63b8ff" stroke="#63b8ff" points="755.76,-79.51 745.17,-79.55 753.47,-86.13 755.76,-79.51"/>
</a>
</g>
</g>
<!-- Node11&#45;&gt;Node14 -->
<g id="edge19_Node000011_Node000014" class="edge">
<title>Node11&#45;&gt;Node14</title>
<g id="a_edge19_Node000011_Node000014"><a xlink:title=" ">
<path fill="none" stroke="#63b8ff" d="M1231.87,-126.37C1235.01,-118.32 1239.85,-105.94 1244.15,-94.93"/>
<polygon fill="#63b8ff" stroke="#63b8ff" points="1247.51,-95.95 1247.89,-85.36 1240.99,-93.4 1247.51,-95.95"/>
</a>
</g>
</g>
<!-- Node16&#45;&gt;Node3 -->
<g id="edge23_Node000016_Node000003" class="edge">
<title>Node16&#45;&gt;Node3</title>
<g id="a_edge23_Node000016_Node000003"><a xlink:title=" ">
<path fill="none" stroke="#63b8ff" d="M400.68,-188.28C379.56,-180.84 359.53,-169.19 346.5,-151 338.74,-140.16 341.17,-133.22 346.5,-121 363.71,-81.5 378.93,-74.2 417.5,-55 490.12,-18.85 587.36,-11.63 637.14,-10.46"/>
<polygon fill="#63b8ff" stroke="#63b8ff" points="637.37,-13.96 647.31,-10.29 637.25,-6.96 637.37,-13.96"/>
</a>
</g>
</g>
<!-- Node16&#45;&gt;Node6 -->
<g id="edge24_Node000016_Node000006" class="edge">
<title>Node16&#45;&gt;Node6</title>
<g id="a_edge24_Node000016_Node000006"><a xlink:title=" ">
<path fill="none" stroke="#63b8ff" d="M492.46,-186.79C491.98,-168.69 494.16,-137.75 512.5,-121 553.94,-83.14 708.44,-100.09 762.5,-85 764.39,-84.47 766.31,-83.86 768.23,-83.2"/>
<polygon fill="#63b8ff" stroke="#63b8ff" points="769.58,-86.43 777.65,-79.56 767.06,-79.9 769.58,-86.43"/>
</a>
</g>
</g>
<!-- Node17 -->
<g id="Node000017" class="node">
<title>Node17</title>
<g id="a_Node000017"><a xlink:href="ShuntingElement_8h.html" target="_top" xlink:title="Interface abstraite pour tous les éléments de shuntage ferroviaire.">
<polygon fill="white" stroke="#666666" points="465,-145.5 356,-145.5 356,-126.5 465,-126.5 465,-145.5"/>
<text text-anchor="middle" x="410.5" y="-133.5" font-family="Helvetica,sans-Serif" font-size="10.00">ShuntingElement.h</text>
</a>
</g>
</g>
<!-- Node16&#45;&gt;Node17 -->
<g id="edge25_Node000016_Node000017" class="edge">
<title>Node16&#45;&gt;Node17</title>
<g id="a_edge25_Node000016_Node000017"><a xlink:title=" ">
<path fill="none" stroke="#63b8ff" d="M475.08,-186.8C461.76,-176.53 443.79,-162.67 430.19,-152.18"/>
<polygon fill="#63b8ff" stroke="#63b8ff" points="432.03,-149.18 421.97,-145.84 427.75,-154.72 432.03,-149.18"/>
</a>
</g>
</g>
<!-- Node19 -->
<g id="Node000019" class="node">
<title>Node19</title>
<g id="a_Node000019"><a xlink:href="LatLon_8h.html" target="_top" xlink:title="Représentation d&#39;une coordonnée géographique WGS&#45;84 (latitude, longitude).">
<polygon fill="white" stroke="#666666" points="641,-151 522,-151 522,-121 641,-121 641,-151"/>
<text text-anchor="start" x="530" y="-139" font-family="Helvetica,sans-Serif" font-size="10.00">Modules/Coordinates</text>
<text text-anchor="middle" x="581.5" y="-128" font-family="Helvetica,sans-Serif" font-size="10.00">/LatLon.h</text>
</a>
</g>
</g>
<!-- Node16&#45;&gt;Node19 -->
<g id="edge28_Node000016_Node000019" class="edge">
<title>Node16&#45;&gt;Node19</title>
<g id="a_edge28_Node000016_Node000019"><a xlink:title=" ">
<path fill="none" stroke="#63b8ff" d="M513.03,-186.8C524.99,-178.1 540.49,-166.82 553.72,-157.2"/>
<polygon fill="#63b8ff" stroke="#63b8ff" points="556,-159.88 562.02,-151.16 551.88,-154.22 556,-159.88"/>
</a>
</g>
</g>
<!-- Node18 -->
<g id="Node000018" class="node">
<title>Node18</title>
<g id="a_Node000018"><a xlink:href="InteractiveElement_8h.html" target="_top" xlink:title="Classe de base abstraite pour tous les éléments interactifs ferroviaires.">
<polygon fill="white" stroke="#666666" points="586,-85 427,-85 427,-55 586,-55 586,-85"/>
<text text-anchor="start" x="435" y="-73" font-family="Helvetica,sans-Serif" font-size="10.00">Modules/InteractiveElements</text>
<text text-anchor="middle" x="506.5" y="-62" font-family="Helvetica,sans-Serif" font-size="10.00">/InteractiveElement.h</text>
</a>
</g>
</g>
<!-- Node17&#45;&gt;Node18 -->
<g id="edge26_Node000017_Node000018" class="edge">
<title>Node17&#45;&gt;Node18</title>
<g id="a_edge26_Node000017_Node000018"><a xlink:title=" ">
<path fill="none" stroke="#63b8ff" d="M423.45,-126.37C437.08,-117.28 459.01,-102.66 476.92,-90.72"/>
<polygon fill="#63b8ff" stroke="#63b8ff" points="478.95,-93.57 485.33,-85.12 475.06,-87.75 478.95,-93.57"/>
</a>
</g>
</g>
<!-- Node18&#45;&gt;Node3 -->
<g id="edge27_Node000018_Node000003" class="edge">
<title>Node18&#45;&gt;Node3</title>
<g id="a_edge27_Node000018_Node000003"><a xlink:title=" ">
<path fill="none" stroke="#63b8ff" d="M545.54,-54.99C573.77,-44.86 611.43,-31.34 637.8,-21.88"/>
<polygon fill="#63b8ff" stroke="#63b8ff" points="639.08,-25.14 647.31,-18.46 636.72,-18.55 639.08,-25.14"/>
</a>
</g>
</g>
<!-- Node20&#45;&gt;Node3 -->
<g id="edge32_Node000020_Node000003" class="edge">
<title>Node20&#45;&gt;Node3</title>
<g id="a_edge32_Node000020_Node000003"><a xlink:title=" ">
<path fill="none" stroke="#63b8ff" d="M691.74,-186.99C687.5,-153.35 676.74,-67.97 671.91,-29.64"/>
<polygon fill="#63b8ff" stroke="#63b8ff" points="675.34,-28.85 670.62,-19.36 668.39,-29.72 675.34,-28.85"/>
</a>
</g>
</g>
<!-- Node20&#45;&gt;Node6 -->
<g id="edge33_Node000020_Node000006" class="edge">
<title>Node20&#45;&gt;Node6</title>
<g id="a_edge33_Node000020_Node000006"><a xlink:title=" ">
<path fill="none" stroke="#63b8ff" d="M704.61,-186.84C723.55,-162.71 761.99,-113.71 782.28,-87.85"/>
<polygon fill="#63b8ff" stroke="#63b8ff" points="785.22,-89.78 788.64,-79.75 779.71,-85.46 785.22,-89.78"/>
</a>
</g>
</g>
<!-- Node20&#45;&gt;Node10 -->
<g id="edge30_Node000020_Node000010" class="edge">
<title>Node20&#45;&gt;Node10</title>
<g id="a_edge30_Node000020_Node000010"><a xlink:title=" ">
<path fill="none" stroke="#63b8ff" d="M725.54,-186.95C750.92,-175.83 786.06,-160.42 810.59,-149.67"/>
<polygon fill="#63b8ff" stroke="#63b8ff" points="812.32,-152.74 820.07,-145.52 809.51,-146.33 812.32,-152.74"/>
</a>
</g>
</g>
<!-- Node20&#45;&gt;Node13 -->
<g id="edge31_Node000020_Node000013" class="edge">
<title>Node20&#45;&gt;Node13</title>
<g id="a_edge31_Node000020_Node000013"><a xlink:title=" ">
<path fill="none" stroke="#63b8ff" d="M696.99,-186.84C702.8,-163.23 714.46,-115.83 720.93,-89.58"/>
<polygon fill="#63b8ff" stroke="#63b8ff" points="724.35,-90.29 723.35,-79.75 717.56,-88.62 724.35,-90.29"/>
</a>
</g>
</g>
<!-- Node20&#45;&gt;Node19 -->
<g id="edge34_Node000020_Node000019" class="edge">
<title>Node20&#45;&gt;Node19</title>
<g id="a_edge34_Node000020_Node000019"><a xlink:title=" ">
<path fill="none" stroke="#63b8ff" d="M668.92,-186.95C653.02,-177.87 632.12,-165.93 614.74,-156"/>
<polygon fill="#63b8ff" stroke="#63b8ff" points="616.44,-152.93 606.02,-151.01 612.97,-159.01 616.44,-152.93"/>
</a>
</g>
</g>
<!-- Node21&#45;&gt;Node3 -->
<g id="edge42_Node000021_Node000003" class="edge">
<title>Node21&#45;&gt;Node3</title>
<g id="a_edge42_Node000021_Node000003"><a xlink:title=" ">
<path fill="none" stroke="#63b8ff" d="M245.93,-120.91C260.54,-102.33 289,-70.23 321.5,-55 377.22,-28.89 561.79,-16.27 637.09,-12.12"/>
<polygon fill="#63b8ff" stroke="#63b8ff" points="637.58,-15.6 647.37,-11.56 637.2,-8.61 637.58,-15.6"/>
</a>
</g>
</g>
<!-- Node21&#45;&gt;Node13 -->
<g id="edge41_Node000021_Node000013" class="edge">
<title>Node21&#45;&gt;Node13</title>
<g id="a_edge41_Node000021_Node000013"><a xlink:title=" ">
<path fill="none" stroke="#63b8ff" d="M291.23,-127.72C391.76,-114.59 601,-87.26 687.16,-76.01"/>
<polygon fill="#63b8ff" stroke="#63b8ff" points="687.82,-79.45 697.28,-74.69 686.91,-72.51 687.82,-79.45"/>
</a>
</g>
</g>
<!-- Node22 -->
<g id="Node000022" class="node">
<title>Node22</title>
<g id="a_Node000022"><a xlink:title=" ">
<polygon fill="#e0e0e0" stroke="#999999" points="183.5,-79.5 139.5,-79.5 139.5,-60.5 183.5,-60.5 183.5,-79.5"/>
<text text-anchor="middle" x="161.5" y="-67.5" font-family="Helvetica,sans-Serif" font-size="10.00">ctime</text>
</a>
</g>
</g>
<!-- Node21&#45;&gt;Node22 -->
<g id="edge37_Node000021_Node000022" class="edge">
<title>Node21&#45;&gt;Node22</title>
<g id="a_edge37_Node000021_Node000022"><a xlink:title=" ">
<path fill="none" stroke="#63b8ff" d="M219.08,-120.8C207.31,-110.62 191.48,-96.93 179.4,-86.48"/>
<polygon fill="#63b8ff" stroke="#63b8ff" points="181.58,-83.74 171.73,-79.84 177,-89.03 181.58,-83.74"/>
</a>
</g>
</g>
<!-- Node23 -->
<g id="Node000023" class="node">
<title>Node23</title>
<g id="a_Node000023"><a xlink:title=" ">
<polygon fill="#e0e0e0" stroke="#999999" points="269.5,-79.5 201.5,-79.5 201.5,-60.5 269.5,-60.5 269.5,-79.5"/>
<text text-anchor="middle" x="235.5" y="-67.5" font-family="Helvetica,sans-Serif" font-size="10.00">filesystem</text>
</a>
</g>
</g>
<!-- Node21&#45;&gt;Node23 -->
<g id="edge38_Node000021_Node000023" class="edge">
<title>Node21&#45;&gt;Node23</title>
<g id="a_edge38_Node000021_Node000023"><a xlink:title=" ">
<path fill="none" stroke="#63b8ff" d="M235.5,-120.8C235.5,-111.7 235.5,-99.79 235.5,-89.9"/>
<polygon fill="#63b8ff" stroke="#63b8ff" points="239,-89.84 235.5,-79.84 232,-89.84 239,-89.84"/>
</a>
</g>
</g>
<!-- Node24 -->
<g id="Node000024" class="node">
<title>Node24</title>
<g id="a_Node000024"><a xlink:title=" ">
<polygon fill="#e0e0e0" stroke="#999999" points="55,-79.5 0,-79.5 0,-60.5 55,-60.5 55,-79.5"/>
<text text-anchor="middle" x="27.5" y="-67.5" font-family="Helvetica,sans-Serif" font-size="10.00">fstream</text>
</a>
</g>
</g>
<!-- Node21&#45;&gt;Node24 -->
<g id="edge39_Node000021_Node000024" class="edge">
<title>Node21&#45;&gt;Node24</title>
<g id="a_edge39_Node000021_Node000024"><a xlink:title=" ">
<path fill="none" stroke="#63b8ff" d="M183.54,-120.93C149.48,-111.44 104.1,-98.26 64.5,-85 62.64,-84.38 60.74,-83.72 58.83,-83.05"/>
<polygon fill="#63b8ff" stroke="#63b8ff" points="59.91,-79.71 49.31,-79.57 57.51,-86.29 59.91,-79.71"/>
</a>
</g>
</g>
<!-- Node25 -->
<g id="Node000025" class="node">
<title>Node25</title>
<g id="a_Node000025"><a xlink:title=" ">
<polygon fill="#e0e0e0" stroke="#999999" points="121.5,-79.5 73.5,-79.5 73.5,-60.5 121.5,-60.5 121.5,-79.5"/>
<text text-anchor="middle" x="97.5" y="-67.5" font-family="Helvetica,sans-Serif" font-size="10.00">mutex</text>
</a>
</g>
</g>
<!-- Node21&#45;&gt;Node25 -->
<g id="edge40_Node000021_Node000025" class="edge">
<title>Node21&#45;&gt;Node25</title>
<g id="a_edge40_Node000021_Node000025"><a xlink:title=" ">
<path fill="none" stroke="#63b8ff" d="M205.22,-120.95C181.33,-109.88 148.3,-94.56 125.14,-83.82"/>
<polygon fill="#63b8ff" stroke="#63b8ff" points="126.41,-80.55 115.87,-79.52 123.46,-86.9 126.41,-80.55"/>
</a>
</g>
</g>
</g>
</svg>
