<?xml version="1.0" encoding="UTF-8" standalone="no"?>
<!DOCTYPE svg PUBLIC "-//W3C//DTD SVG 1.1//EN"
 "http://www.w3.org/Graphics/SVG/1.1/DTD/svg11.dtd">
<!-- Generated by graphviz version 2.43.0 (0)
 -->
<!-- Title: SimulateurFerroviaire/Modules/GeoParser/DoubleSwitchDetector.h Pages: 1 -->
<svg width="1344pt" height="225pt"
 viewBox="0.00 0.00 1344.00 225.00" xmlns="http://www.w3.org/2000/svg" xmlns:xlink="http://www.w3.org/1999/xlink">
<g id="graph0" class="graph" transform="scale(1 1) rotate(0) translate(4 221)">
<title>SimulateurFerroviaire/Modules/GeoParser/DoubleSwitchDetector.h</title>
<!-- Node1 -->
<g id="Node000001" class="node">
<title>Node1</title>
<g id="a_Node000001"><a xlink:title="Phases 7 et 8 — détection des doubles aiguilles et validation CDC.">
<polygon fill="#999999" stroke="#666666" points="698,-217 515,-217 515,-176 698,-176 698,-217"/>
<text text-anchor="start" x="523" y="-205" font-family="Helvetica,sans-Serif" font-size="10.00">SimulateurFerroviaire</text>
<text text-anchor="start" x="523" y="-194" font-family="Helvetica,sans-Serif" font-size="10.00">/Modules/GeoParser/DoubleSwitch</text>
<text text-anchor="middle" x="606.5" y="-183" font-family="Helvetica,sans-Serif" font-size="10.00">Detector.h</text>
</a>
</g>
</g>
<!-- Node2 -->
<g id="Node000002" class="node">
<title>Node2</title>
<g id="a_Node000002"><a xlink:title=" ">
<polygon fill="#e0e0e0" stroke="#999999" points="218.5,-140 186.5,-140 186.5,-121 218.5,-121 218.5,-140"/>
<text text-anchor="middle" x="202.5" y="-128" font-family="Helvetica,sans-Serif" font-size="10.00">set</text>
</a>
</g>
</g>
<!-- Node1&#45;&gt;Node2 -->
<g id="edge1_Node000001_Node000002" class="edge">
<title>Node1&#45;&gt;Node2</title>
<g id="a_edge1_Node000001_Node000002"><a xlink:title=" ">
<path fill="none" stroke="#63b8ff" d="M514.84,-185.24C438.76,-175.93 327.96,-160.52 232.5,-140 231.22,-139.72 229.91,-139.43 228.6,-139.11"/>
<polygon fill="#63b8ff" stroke="#63b8ff" points="229.16,-135.64 218.6,-136.47 227.37,-142.41 229.16,-135.64"/>
</a>
</g>
</g>
<!-- Node3 -->
<g id="Node000003" class="node">
<title>Node3</title>
<g id="a_Node000003"><a xlink:title=" ">
<polygon fill="#e0e0e0" stroke="#999999" points="843.5,-19 799.5,-19 799.5,0 843.5,0 843.5,-19"/>
<text text-anchor="middle" x="821.5" y="-7" font-family="Helvetica,sans-Serif" font-size="10.00">string</text>
</a>
</g>
</g>
<!-- Node1&#45;&gt;Node3 -->
<g id="edge2_Node000001_Node000003" class="edge">
<title>Node1&#45;&gt;Node3</title>
<g id="a_edge2_Node000001_Node000003"><a xlink:title=" ">
<path fill="none" stroke="#63b8ff" d="M656.64,-175.93C697.46,-157.77 754.1,-127.17 790.5,-85 804.48,-68.8 812.82,-45.41 817.26,-29.18"/>
<polygon fill="#63b8ff" stroke="#63b8ff" points="820.71,-29.81 819.74,-19.26 813.92,-28.11 820.71,-29.81"/>
</a>
</g>
</g>
<!-- Node4 -->
<g id="Node000004" class="node">
<title>Node4</title>
<g id="a_Node000004"><a xlink:title=" ">
<polygon fill="#e0e0e0" stroke="#999999" points="93,-79.5 0,-79.5 0,-60.5 93,-60.5 93,-79.5"/>
<text text-anchor="middle" x="46.5" y="-67.5" font-family="Helvetica,sans-Serif" font-size="10.00">unordered_map</text>
</a>
</g>
</g>
<!-- Node1&#45;&gt;Node4 -->
<g id="edge3_Node000001_Node000004" class="edge">
<title>Node1&#45;&gt;Node4</title>
<g id="a_edge3_Node000001_Node000004"><a xlink:title=" ">
<path fill="none" stroke="#63b8ff" d="M514.66,-189.87C443.6,-183.37 343.64,-169.48 260.5,-140 244.55,-134.34 243.11,-127.53 227.5,-121 214.66,-115.63 138.44,-95.18 89.09,-82.16"/>
<polygon fill="#63b8ff" stroke="#63b8ff" points="89.86,-78.74 79.3,-79.58 88.08,-85.51 89.86,-78.74"/>
</a>
</g>
</g>
<!-- Node5 -->
<g id="Node000005" class="node">
<title>Node5</title>
<g id="a_Node000005"><a xlink:title=" ">
<polygon fill="#e0e0e0" stroke="#999999" points="156,-79.5 111,-79.5 111,-60.5 156,-60.5 156,-79.5"/>
<text text-anchor="middle" x="133.5" y="-67.5" font-family="Helvetica,sans-Serif" font-size="10.00">utility</text>
</a>
</g>
</g>
<!-- Node1&#45;&gt;Node5 -->
<g id="edge4_Node000001_Node000005" class="edge">
<title>Node1&#45;&gt;Node5</title>
<g id="a_edge4_Node000001_Node000005"><a xlink:title=" ">
<path fill="none" stroke="#63b8ff" d="M514.67,-184.4C453.88,-175.67 372.89,-161.36 303.5,-140 283.53,-133.85 279.85,-128.89 260.5,-121 218.31,-103.78 206.62,-102.39 164.5,-85 163.49,-84.58 162.46,-84.15 161.43,-83.71"/>
<polygon fill="#63b8ff" stroke="#63b8ff" points="162.67,-80.44 152.1,-79.64 159.86,-86.85 162.67,-80.44"/>
</a>
</g>
</g>
<!-- Node6 -->
<g id="Node000006" class="node">
<title>Node6</title>
<g id="a_Node000006"><a xlink:title=" ">
<polygon fill="#e0e0e0" stroke="#999999" points="585,-19 538,-19 538,0 585,0 585,-19"/>
<text text-anchor="middle" x="561.5" y="-7" font-family="Helvetica,sans-Serif" font-size="10.00">vector</text>
</a>
</g>
</g>
<!-- Node1&#45;&gt;Node6 -->
<g id="edge5_Node000001_Node000006" class="edge">
<title>Node1&#45;&gt;Node6</title>
<g id="a_edge5_Node000001_Node000006"><a xlink:title=" ">
<path fill="none" stroke="#63b8ff" d="M601.68,-175.7C592.93,-139.7 574.52,-64.02 566,-29"/>
<polygon fill="#63b8ff" stroke="#63b8ff" points="569.37,-28.05 563.61,-19.16 562.57,-29.7 569.37,-28.05"/>
</a>
</g>
</g>
<!-- Node7 -->
<g id="Node000007" class="node">
<title>Node7</title>
<g id="a_Node000007"><a xlink:href="TopologyGraph_8h.html" target="_top" xlink:title="Graphe planaire non&#45;orienté de nœuds et d&#39;arêtes ferroviaires accrochés.">
<polygon fill="white" stroke="#666666" points="450,-140 313,-140 313,-121 450,-121 450,-140"/>
<text text-anchor="middle" x="381.5" y="-128" font-family="Helvetica,sans-Serif" font-size="10.00">./Graph/TopologyGraph.h</text>
</a>
</g>
</g>
<!-- Node1&#45;&gt;Node7 -->
<g id="edge6_Node000001_Node000007" class="edge">
<title>Node1&#45;&gt;Node7</title>
<g id="a_edge6_Node000001_Node000007"><a xlink:title=" ">
<path fill="none" stroke="#63b8ff" d="M537.77,-175.95C499.64,-165.1 453.56,-152 421.35,-142.84"/>
<polygon fill="#63b8ff" stroke="#63b8ff" points="421.99,-139.38 411.41,-140.01 420.07,-146.11 421.99,-139.38"/>
</a>
</g>
</g>
<!-- Node15 -->
<g id="Node000015" class="node">
<title>Node15</title>
<g id="a_Node000015"><a xlink:href="GeoParserEnums_8h.html" target="_top" xlink:title="Constantes nommées et énumérations du pipeline ferroviaire GeoParser.">
<polygon fill="white" stroke="#666666" points="781,-79.5 628,-79.5 628,-60.5 781,-60.5 781,-79.5"/>
<text text-anchor="middle" x="704.5" y="-67.5" font-family="Helvetica,sans-Serif" font-size="10.00">../Enums/GeoParserEnums.h</text>
</a>
</g>
</g>
<!-- Node1&#45;&gt;Node15 -->
<g id="edge33_Node000001_Node000015" class="edge">
<title>Node1&#45;&gt;Node15</title>
<g id="a_edge33_Node000001_Node000015"><a xlink:title=" ">
<path fill="none" stroke="#63b8ff" d="M622.03,-175.77C641.18,-151.44 673.41,-110.5 691.38,-87.67"/>
<polygon fill="#63b8ff" stroke="#63b8ff" points="694.28,-89.64 697.72,-79.61 688.78,-85.31 694.28,-89.64"/>
</a>
</g>
</g>
<!-- Node16 -->
<g id="Node000016" class="node">
<title>Node16</title>
<g id="a_Node000016"><a xlink:href="StraightBlock_8h.html" target="_top" xlink:title="Modèle de domaine d&#39;un bloc de voie droite (Straight).">
<polygon fill="white" stroke="#666666" points="1120,-79.5 985,-79.5 985,-60.5 1120,-60.5 1120,-79.5"/>
<text text-anchor="middle" x="1052.5" y="-67.5" font-family="Helvetica,sans-Serif" font-size="10.00">./Models/StraightBlock.h</text>
</a>
</g>
</g>
<!-- Node1&#45;&gt;Node16 -->
<g id="edge22_Node000001_Node000016" class="edge">
<title>Node1&#45;&gt;Node16</title>
<g id="a_edge22_Node000001_Node000016"><a xlink:title=" ">
<path fill="none" stroke="#63b8ff" d="M698.04,-177.07C744.07,-167.2 800.56,-154.17 850.5,-140 911.47,-122.71 981.12,-97.73 1020.65,-83.05"/>
<polygon fill="#63b8ff" stroke="#63b8ff" points="1021.88,-86.32 1030.03,-79.55 1019.43,-79.77 1021.88,-86.32"/>
</a>
</g>
</g>
<!-- Node18 -->
<g id="Node000018" class="node">
<title>Node18</title>
<g id="a_Node000018"><a xlink:href="SwitchBlock_8h.html" target="_top" xlink:title="Modèle de domaine d&#39;un aiguillage ferroviaire à 3 branches (Switch).">
<polygon fill="white" stroke="#666666" points="967,-79.5 838,-79.5 838,-60.5 967,-60.5 967,-79.5"/>
<text text-anchor="middle" x="902.5" y="-67.5" font-family="Helvetica,sans-Serif" font-size="10.00">./Models/SwitchBlock.h</text>
</a>
</g>
</g>
<!-- Node1&#45;&gt;Node18 -->
<g id="edge27_Node000001_Node000018" class="edge">
<title>Node1&#45;&gt;Node18</title>
<g id="a_edge27_Node000001_Node000018"><a xlink:title=" ">
<path fill="none" stroke="#63b8ff" d="M698.11,-181.93C738.19,-173.55 784.78,-160.36 823.5,-140 849.3,-126.43 873.73,-102.85 888.41,-87.08"/>
<polygon fill="#63b8ff" stroke="#63b8ff" points="891.03,-89.4 895.15,-79.65 885.84,-84.7 891.03,-89.4"/>
</a>
</g>
</g>
<!-- Node19 -->
<g id="Node000019" class="node">
<title>Node19</title>
<g id="a_Node000019"><a xlink:href="Logger_8h.html" target="_top" xlink:title="Système de journalisation à 5 niveaux de trace, un fichier par moteur.">
<polygon fill="white" stroke="#666666" points="1249,-85 1138,-85 1138,-55 1249,-55 1249,-85"/>
<text text-anchor="start" x="1146" y="-73" font-family="Helvetica,sans-Serif" font-size="10.00">Engine/Core/Logger</text>
<text text-anchor="middle" x="1193.5" y="-62" font-family="Helvetica,sans-Serif" font-size="10.00">/Logger.h</text>
</a>
</g>
</g>
<!-- Node1&#45;&gt;Node19 -->
<g id="edge34_Node000001_Node000019" class="edge">
<title>Node1&#45;&gt;Node19</title>
<g id="a_edge34_Node000001_Node000019"><a xlink:title=" ">
<path fill="none" stroke="#63b8ff" d="M698.11,-178.73C754.79,-168.13 828.99,-153.87 894.5,-140 975.22,-122.91 1067.71,-101.25 1128.18,-86.8"/>
<polygon fill="#63b8ff" stroke="#63b8ff" points="1129.07,-90.18 1137.98,-84.45 1127.44,-83.37 1129.07,-90.18"/>
</a>
</g>
</g>
<!-- Node7&#45;&gt;Node3 -->
<g id="edge10_Node000007_Node000003" class="edge">
<title>Node7&#45;&gt;Node3</title>
<g id="a_edge10_Node000007_Node000003"><a xlink:title=" ">
<path fill="none" stroke="#63b8ff" d="M416.35,-120.96C449.17,-112.66 499.57,-99.26 542.5,-85 577.36,-73.43 584.35,-65.65 619.5,-55 678.5,-37.13 749.2,-23.21 789.38,-15.99"/>
<polygon fill="#63b8ff" stroke="#63b8ff" points="790.16,-19.4 799.39,-14.21 788.94,-12.51 790.16,-19.4"/>
</a>
</g>
</g>
<!-- Node7&#45;&gt;Node4 -->
<g id="edge11_Node000007_Node000004" class="edge">
<title>Node7&#45;&gt;Node4</title>
<g id="a_edge11_Node000007_Node000004"><a xlink:title=" ">
<path fill="none" stroke="#63b8ff" d="M317.25,-121C260.3,-113.05 175.01,-100.16 101.5,-85 97.09,-84.09 92.51,-83.06 87.95,-81.98"/>
<polygon fill="#63b8ff" stroke="#63b8ff" points="88.63,-78.55 78.09,-79.57 86.97,-85.34 88.63,-78.55"/>
</a>
</g>
</g>
<!-- Node7&#45;&gt;Node5 -->
<g id="edge12_Node000007_Node000005" class="edge">
<title>Node7&#45;&gt;Node5</title>
<g id="a_edge12_Node000007_Node000005"><a xlink:title=" ">
<path fill="none" stroke="#63b8ff" d="M322.1,-120.97C277.97,-113.76 216.64,-101.89 164.5,-85 163.06,-84.53 161.6,-84.02 160.13,-83.47"/>
<polygon fill="#63b8ff" stroke="#63b8ff" points="161.19,-80.12 150.61,-79.54 158.52,-86.59 161.19,-80.12"/>
</a>
</g>
</g>
<!-- Node7&#45;&gt;Node6 -->
<g id="edge13_Node000007_Node000006" class="edge">
<title>Node7&#45;&gt;Node6</title>
<g id="a_edge13_Node000007_Node000006"><a xlink:title=" ">
<path fill="none" stroke="#63b8ff" d="M375.05,-120.65C364.88,-105.53 347.82,-74.49 363.5,-55 410.27,3.15 454.85,-36.05 527.5,-19 527.6,-18.98 527.71,-18.95 527.81,-18.93"/>
<polygon fill="#63b8ff" stroke="#63b8ff" points="528.84,-22.28 537.74,-16.53 527.2,-15.47 528.84,-22.28"/>
</a>
</g>
</g>
<!-- Node8 -->
<g id="Node000008" class="node">
<title>Node8</title>
<g id="a_Node000008"><a xlink:title=" ">
<polygon fill="#e0e0e0" stroke="#999999" points="533.5,-79.5 483.5,-79.5 483.5,-60.5 533.5,-60.5 533.5,-79.5"/>
<text text-anchor="middle" x="508.5" y="-67.5" font-family="Helvetica,sans-Serif" font-size="10.00">cstdint</text>
</a>
</g>
</g>
<!-- Node7&#45;&gt;Node8 -->
<g id="edge7_Node000007_Node000008" class="edge">
<title>Node7&#45;&gt;Node8</title>
<g id="a_edge7_Node000007_Node000008"><a xlink:title=" ">
<path fill="none" stroke="#63b8ff" d="M399.97,-120.99C421.22,-111.2 456.35,-95.02 480.87,-83.73"/>
<polygon fill="#63b8ff" stroke="#63b8ff" points="482.39,-86.88 490.01,-79.52 479.46,-80.52 482.39,-86.88"/>
</a>
</g>
</g>
<!-- Node9 -->
<g id="Node000009" class="node">
<title>Node9</title>
<g id="a_Node000009"><a xlink:title=" ">
<polygon fill="#e0e0e0" stroke="#999999" points="239,-79.5 174,-79.5 174,-60.5 239,-60.5 239,-79.5"/>
<text text-anchor="middle" x="206.5" y="-67.5" font-family="Helvetica,sans-Serif" font-size="10.00">functional</text>
</a>
</g>
</g>
<!-- Node7&#45;&gt;Node9 -->
<g id="edge8_Node000007_Node000009" class="edge">
<title>Node7&#45;&gt;Node9</title>
<g id="a_edge8_Node000007_Node000009"><a xlink:title=" ">
<path fill="none" stroke="#63b8ff" d="M356.05,-120.99C325.86,-110.9 275.34,-94.01 241.48,-82.69"/>
<polygon fill="#63b8ff" stroke="#63b8ff" points="242.57,-79.37 231.98,-79.52 240.35,-86.01 242.57,-79.37"/>
</a>
</g>
</g>
<!-- Node10 -->
<g id="Node000010" class="node">
<title>Node10</title>
<g id="a_Node000010"><a xlink:title=" ">
<polygon fill="#e0e0e0" stroke="#999999" points="518.5,-19 462.5,-19 462.5,0 518.5,0 518.5,-19"/>
<text text-anchor="middle" x="490.5" y="-7" font-family="Helvetica,sans-Serif" font-size="10.00">optional</text>
</a>
</g>
</g>
<!-- Node7&#45;&gt;Node10 -->
<g id="edge9_Node000007_Node000010" class="edge">
<title>Node7&#45;&gt;Node10</title>
<g id="a_edge9_Node000007_Node000010"><a xlink:title=" ">
<path fill="none" stroke="#63b8ff" d="M365.47,-120.95C353.09,-113.35 336.85,-100.97 329.5,-85 323.92,-72.89 321.42,-65.61 329.5,-55 333.31,-49.99 406.12,-31.28 452.5,-19.78"/>
<polygon fill="#63b8ff" stroke="#63b8ff" points="453.38,-23.17 462.25,-17.37 451.7,-16.37 453.38,-23.17"/>
</a>
</g>
</g>
<!-- Node11 -->
<g id="Node000011" class="node">
<title>Node11</title>
<g id="a_Node000011"><a xlink:href="TopologyEdge_8h.html" target="_top" xlink:title="Arête non&#45;orientée du graphe planaire de topologie ferroviaire.">
<polygon fill="white" stroke="#666666" points="465,-79.5 372,-79.5 372,-60.5 465,-60.5 465,-79.5"/>
<text text-anchor="middle" x="418.5" y="-67.5" font-family="Helvetica,sans-Serif" font-size="10.00">TopologyEdge.h</text>
</a>
</g>
</g>
<!-- Node7&#45;&gt;Node11 -->
<g id="edge14_Node000007_Node000011" class="edge">
<title>Node7&#45;&gt;Node11</title>
<g id="a_edge14_Node000007_Node000011"><a xlink:title=" ">
<path fill="none" stroke="#63b8ff" d="M386.96,-120.87C392.37,-112.31 400.81,-98.97 407.6,-88.24"/>
<polygon fill="#63b8ff" stroke="#63b8ff" points="410.63,-89.99 413.02,-79.67 404.71,-86.25 410.63,-89.99"/>
</a>
</g>
</g>
<!-- Node14 -->
<g id="Node000014" class="node">
<title>Node14</title>
<g id="a_Node000014"><a xlink:href="CoordinateXY_8h.html" target="_top" xlink:title="Représentation d&#39;une coordonnée plane en mètres (système métrique UTM).">
<polygon fill="white" stroke="#666666" points="357,-19 220,-19 220,0 357,0 357,-19"/>
<text text-anchor="middle" x="288.5" y="-7" font-family="Helvetica,sans-Serif" font-size="10.00">../Models/CoordinateXY.h</text>
</a>
</g>
</g>
<!-- Node7&#45;&gt;Node14 -->
<g id="edge20_Node000007_Node000014" class="edge">
<title>Node7&#45;&gt;Node14</title>
<g id="a_edge20_Node000007_Node000014"><a xlink:title=" ">
<path fill="none" stroke="#63b8ff" d="M344.7,-120.98C325.45,-114.49 303.46,-103.42 291.5,-85 280.73,-68.42 281.75,-45.1 284.32,-28.99"/>
<polygon fill="#63b8ff" stroke="#63b8ff" points="287.75,-29.64 286.22,-19.16 280.88,-28.31 287.75,-29.64"/>
</a>
</g>
</g>
<!-- Node7&#45;&gt;Node15 -->
<g id="edge21_Node000007_Node000015" class="edge">
<title>Node7&#45;&gt;Node15</title>
<g id="a_edge21_Node000007_Node000015"><a xlink:title=" ">
<path fill="none" stroke="#63b8ff" d="M428.47,-120.99C486.48,-110.49 585.1,-92.62 647.42,-81.34"/>
<polygon fill="#63b8ff" stroke="#63b8ff" points="648.26,-84.74 657.48,-79.52 647.01,-77.85 648.26,-84.74"/>
</a>
</g>
</g>
<!-- Node11&#45;&gt;Node3 -->
<g id="edge17_Node000011_Node000003" class="edge">
<title>Node11&#45;&gt;Node3</title>
<g id="a_edge17_Node000011_Node000003"><a xlink:title=" ">
<path fill="none" stroke="#63b8ff" d="M449.75,-60.5C457.78,-58.51 466.42,-56.52 474.5,-55 589.36,-33.35 727.63,-19.11 789.2,-13.36"/>
<polygon fill="#63b8ff" stroke="#63b8ff" points="789.8,-16.82 799.44,-12.42 789.16,-9.85 789.8,-16.82"/>
</a>
</g>
</g>
<!-- Node11&#45;&gt;Node6 -->
<g id="edge18_Node000011_Node000006" class="edge">
<title>Node11&#45;&gt;Node6</title>
<g id="a_edge18_Node000011_Node000006"><a xlink:title=" ">
<path fill="none" stroke="#63b8ff" d="M439.29,-60.49C463.44,-50.62 503.48,-34.23 531.12,-22.93"/>
<polygon fill="#63b8ff" stroke="#63b8ff" points="532.75,-26.04 540.68,-19.02 530.1,-19.56 532.75,-26.04"/>
</a>
</g>
</g>
<!-- Node12 -->
<g id="Node000012" class="node">
<title>Node12</title>
<g id="a_Node000012"><a xlink:title=" ">
<polygon fill="#e0e0e0" stroke="#999999" points="442,-19 395,-19 395,0 442,0 442,-19"/>
<text text-anchor="middle" x="418.5" y="-7" font-family="Helvetica,sans-Serif" font-size="10.00">cmath</text>
</a>
</g>
</g>
<!-- Node11&#45;&gt;Node12 -->
<g id="edge15_Node000011_Node000012" class="edge">
<title>Node11&#45;&gt;Node12</title>
<g id="a_edge15_Node000011_Node000012"><a xlink:title=" ">
<path fill="none" stroke="#63b8ff" d="M418.5,-60.37C418.5,-52.25 418.5,-39.81 418.5,-29.39"/>
<polygon fill="#63b8ff" stroke="#63b8ff" points="422,-29.17 418.5,-19.17 415,-29.17 422,-29.17"/>
</a>
</g>
</g>
<!-- Node13 -->
<g id="Node000013" class="node">
<title>Node13</title>
<g id="a_Node000013"><a xlink:title=" ">
<polygon fill="#e0e0e0" stroke="#999999" points="1044.5,-19 988.5,-19 988.5,0 1044.5,0 1044.5,-19"/>
<text text-anchor="middle" x="1016.5" y="-7" font-family="Helvetica,sans-Serif" font-size="10.00">sstream</text>
</a>
</g>
</g>
<!-- Node11&#45;&gt;Node13 -->
<g id="edge16_Node000011_Node000013" class="edge">
<title>Node11&#45;&gt;Node13</title>
<g id="a_edge16_Node000011_Node000013"><a xlink:title=" ">
<path fill="none" stroke="#63b8ff" d="M448.82,-60.43C457.09,-58.37 466.09,-56.36 474.5,-55 680.42,-21.58 734.84,-38.91 942.5,-19 954.13,-17.89 966.77,-16.5 978.25,-15.17"/>
<polygon fill="#63b8ff" stroke="#63b8ff" points="978.89,-18.62 988.41,-13.98 978.07,-11.67 978.89,-18.62"/>
</a>
</g>
</g>
<!-- Node11&#45;&gt;Node14 -->
<g id="edge19_Node000011_Node000014" class="edge">
<title>Node11&#45;&gt;Node14</title>
<g id="a_edge19_Node000011_Node000014"><a xlink:title=" ">
<path fill="none" stroke="#63b8ff" d="M399.6,-60.49C377.84,-50.7 341.88,-34.52 316.79,-23.23"/>
<polygon fill="#63b8ff" stroke="#63b8ff" points="317.98,-19.93 307.43,-19.02 315.11,-26.31 317.98,-19.93"/>
</a>
</g>
</g>
<!-- Node16&#45;&gt;Node3 -->
<g id="edge24_Node000016_Node000003" class="edge">
<title>Node16&#45;&gt;Node3</title>
<g id="a_edge24_Node000016_Node000003"><a xlink:title=" ">
<path fill="none" stroke="#63b8ff" d="M1018.91,-60.49C974.54,-49.26 896.95,-29.61 853.43,-18.59"/>
<polygon fill="#63b8ff" stroke="#63b8ff" points="854.21,-15.17 843.65,-16.11 852.49,-21.96 854.21,-15.17"/>
</a>
</g>
</g>
<!-- Node16&#45;&gt;Node6 -->
<g id="edge25_Node000016_Node000006" class="edge">
<title>Node16&#45;&gt;Node6</title>
<g id="a_edge25_Node000016_Node000006"><a xlink:title=" ">
<path fill="none" stroke="#63b8ff" d="M1009.19,-60.44C998.53,-58.49 987.12,-56.55 976.5,-55 835.66,-34.51 666.64,-19.26 595.59,-13.28"/>
<polygon fill="#63b8ff" stroke="#63b8ff" points="595.7,-9.78 585.44,-12.43 595.11,-16.75 595.7,-9.78"/>
</a>
</g>
</g>
<!-- Node16&#45;&gt;Node13 -->
<g id="edge23_Node000016_Node000013" class="edge">
<title>Node16&#45;&gt;Node13</title>
<g id="a_edge23_Node000016_Node000013"><a xlink:title=" ">
<path fill="none" stroke="#63b8ff" d="M1047.19,-60.37C1041.92,-51.81 1033.71,-38.47 1027.11,-27.74"/>
<polygon fill="#63b8ff" stroke="#63b8ff" points="1030.06,-25.85 1021.83,-19.17 1024.09,-29.52 1030.06,-25.85"/>
</a>
</g>
</g>
<!-- Node17 -->
<g id="Node000017" class="node">
<title>Node17</title>
<g id="a_Node000017"><a xlink:href="LatLon_8h.html" target="_top" xlink:title="Représentation d&#39;une coordonnée géographique WGS&#45;84 (latitude, longitude).">
<polygon fill="white" stroke="#666666" points="933.5,-19 875.5,-19 875.5,0 933.5,0 933.5,-19"/>
<text text-anchor="middle" x="904.5" y="-7" font-family="Helvetica,sans-Serif" font-size="10.00">LatLon.h</text>
</a>
</g>
</g>
<!-- Node16&#45;&gt;Node17 -->
<g id="edge26_Node000016_Node000017" class="edge">
<title>Node16&#45;&gt;Node17</title>
<g id="a_edge26_Node000016_Node000017"><a xlink:title=" ">
<path fill="none" stroke="#63b8ff" d="M1030.98,-60.49C1005.88,-50.57 964.18,-34.09 935.57,-22.78"/>
<polygon fill="#63b8ff" stroke="#63b8ff" points="936.63,-19.44 926.05,-19.02 934.06,-25.95 936.63,-19.44"/>
</a>
</g>
</g>
<!-- Node18&#45;&gt;Node3 -->
<g id="edge30_Node000018_Node000003" class="edge">
<title>Node18&#45;&gt;Node3</title>
<g id="a_edge30_Node000018_Node000003"><a xlink:title=" ">
<path fill="none" stroke="#63b8ff" d="M890.55,-60.37C877.75,-51.12 857.2,-36.28 841.85,-25.19"/>
<polygon fill="#63b8ff" stroke="#63b8ff" points="843.66,-22.18 833.5,-19.17 839.56,-27.86 843.66,-22.18"/>
</a>
</g>
</g>
<!-- Node18&#45;&gt;Node6 -->
<g id="edge31_Node000018_Node000006" class="edge">
<title>Node18&#45;&gt;Node6</title>
<g id="a_edge31_Node000018_Node000006"><a xlink:title=" ">
<path fill="none" stroke="#63b8ff" d="M852.92,-60.49C782.69,-48.45 656.08,-26.73 595.54,-16.34"/>
<polygon fill="#63b8ff" stroke="#63b8ff" points="595.83,-12.84 585.38,-14.6 594.64,-19.74 595.83,-12.84"/>
</a>
</g>
</g>
<!-- Node18&#45;&gt;Node10 -->
<g id="edge28_Node000018_Node000010" class="edge">
<title>Node18&#45;&gt;Node10</title>
<g id="a_edge28_Node000018_Node000010"><a xlink:title=" ">
<path fill="none" stroke="#63b8ff" d="M837.61,-60.59C738.84,-47.76 559.1,-24.2 529.5,-19 529.17,-18.94 528.83,-18.88 528.5,-18.82"/>
<polygon fill="#63b8ff" stroke="#63b8ff" points="529.05,-15.36 518.57,-16.9 527.72,-22.24 529.05,-15.36"/>
</a>
</g>
</g>
<!-- Node18&#45;&gt;Node13 -->
<g id="edge29_Node000018_Node000013" class="edge">
<title>Node18&#45;&gt;Node13</title>
<g id="a_edge29_Node000018_Node000013"><a xlink:title=" ">
<path fill="none" stroke="#63b8ff" d="M919.32,-60.37C938.1,-50.73 968.7,-35.03 990.55,-23.81"/>
<polygon fill="#63b8ff" stroke="#63b8ff" points="992.31,-26.85 999.61,-19.17 989.11,-20.62 992.31,-26.85"/>
</a>
</g>
</g>
<!-- Node18&#45;&gt;Node17 -->
<g id="edge32_Node000018_Node000017" class="edge">
<title>Node18&#45;&gt;Node17</title>
<g id="a_edge32_Node000018_Node000017"><a xlink:title=" ">
<path fill="none" stroke="#63b8ff" d="M902.8,-60.37C903.07,-52.25 903.5,-39.81 903.85,-29.39"/>
<polygon fill="#63b8ff" stroke="#63b8ff" points="907.36,-29.28 904.2,-19.17 900.36,-29.04 907.36,-29.28"/>
</a>
</g>
</g>
<!-- Node19&#45;&gt;Node3 -->
<g id="edge40_Node000019_Node000003" class="edge">
<title>Node19&#45;&gt;Node3</title>
<g id="a_edge40_Node000019_Node000003"><a xlink:title=" ">
<path fill="none" stroke="#63b8ff" d="M1137.7,-56.52C1134.93,-55.99 1132.19,-55.48 1129.5,-55 1013.34,-34.38 982.95,-37.95 866.5,-19 862.47,-18.34 858.24,-17.61 854.06,-16.85"/>
<polygon fill="#63b8ff" stroke="#63b8ff" points="854.36,-13.35 843.89,-14.96 853.08,-20.23 854.36,-13.35"/>
</a>
</g>
</g>
<!-- Node19&#45;&gt;Node13 -->
<g id="edge39_Node000019_Node000013" class="edge">
<title>Node19&#45;&gt;Node13</title>
<g id="a_edge39_Node000019_Node000013"><a xlink:title=" ">
<path fill="none" stroke="#63b8ff" d="M1151.1,-54.99C1120.82,-44.98 1080.55,-31.67 1051.97,-22.22"/>
<polygon fill="#63b8ff" stroke="#63b8ff" points="1052.97,-18.87 1042.38,-19.05 1050.78,-25.52 1052.97,-18.87"/>
</a>
</g>
</g>
<!-- Node20 -->
<g id="Node000020" class="node">
<title>Node20</title>
<g id="a_Node000020"><a xlink:title=" ">
<polygon fill="#e0e0e0" stroke="#999999" points="1176.5,-19 1132.5,-19 1132.5,0 1176.5,0 1176.5,-19"/>
<text text-anchor="middle" x="1154.5" y="-7" font-family="Helvetica,sans-Serif" font-size="10.00">ctime</text>
</a>
</g>
</g>
<!-- Node19&#45;&gt;Node20 -->
<g id="edge35_Node000019_Node000020" class="edge">
<title>Node19&#45;&gt;Node20</title>
<g id="a_edge35_Node000019_Node000020"><a xlink:title=" ">
<path fill="none" stroke="#63b8ff" d="M1184.06,-54.84C1178.63,-46.69 1171.77,-36.4 1166.02,-27.78"/>
<polygon fill="#63b8ff" stroke="#63b8ff" points="1168.8,-25.65 1160.34,-19.27 1162.98,-29.53 1168.8,-25.65"/>
</a>
</g>
</g>
<!-- Node21 -->
<g id="Node000021" class="node">
<title>Node21</title>
<g id="a_Node000021"><a xlink:title=" ">
<polygon fill="#e0e0e0" stroke="#999999" points="1262.5,-19 1194.5,-19 1194.5,0 1262.5,0 1262.5,-19"/>
<text text-anchor="middle" x="1228.5" y="-7" font-family="Helvetica,sans-Serif" font-size="10.00">filesystem</text>
</a>
</g>
</g>
<!-- Node19&#45;&gt;Node21 -->
<g id="edge36_Node000019_Node000021" class="edge">
<title>Node19&#45;&gt;Node21</title>
<g id="a_edge36_Node000019_Node000021"><a xlink:title=" ">
<path fill="none" stroke="#63b8ff" d="M1201.97,-54.84C1206.79,-46.78 1212.87,-36.62 1218,-28.06"/>
<polygon fill="#63b8ff" stroke="#63b8ff" points="1221.12,-29.64 1223.26,-19.27 1215.12,-26.05 1221.12,-29.64"/>
</a>
</g>
</g>
<!-- Node22 -->
<g id="Node000022" class="node">
<title>Node22</title>
<g id="a_Node000022"><a xlink:title=" ">
<polygon fill="#e0e0e0" stroke="#999999" points="1336,-19 1281,-19 1281,0 1336,0 1336,-19"/>
<text text-anchor="middle" x="1308.5" y="-7" font-family="Helvetica,sans-Serif" font-size="10.00">fstream</text>
</a>
</g>
</g>
<!-- Node19&#45;&gt;Node22 -->
<g id="edge37_Node000019_Node000022" class="edge">
<title>Node19&#45;&gt;Node22</title>
<g id="a_edge37_Node000019_Node000022"><a xlink:title=" ">
<path fill="none" stroke="#63b8ff" d="M1221.05,-54.99C1239.72,-45.49 1264.24,-33.02 1282.56,-23.69"/>
<polygon fill="#63b8ff" stroke="#63b8ff" points="1284.19,-26.79 1291.52,-19.14 1281.02,-20.55 1284.19,-26.79"/>
</a>
</g>
</g>
<!-- Node23 -->
<g id="Node000023" class="node">
<title>Node23</title>
<g id="a_Node000023"><a xlink:title=" ">
<polygon fill="#e0e0e0" stroke="#999999" points="1114.5,-19 1066.5,-19 1066.5,0 1114.5,0 1114.5,-19"/>
<text text-anchor="middle" x="1090.5" y="-7" font-family="Helvetica,sans-Serif" font-size="10.00">mutex</text>
</a>
</g>
</g>
<!-- Node19&#45;&gt;Node23 -->
<g id="edge38_Node000019_Node000023" class="edge">
<title>Node19&#45;&gt;Node23</title>
<g id="a_edge38_Node000019_Node000023"><a xlink:title=" ">
<path fill="none" stroke="#63b8ff" d="M1168.83,-54.99C1152.41,-45.66 1130.95,-33.47 1114.64,-24.21"/>
<polygon fill="#63b8ff" stroke="#63b8ff" points="1116.13,-21.03 1105.71,-19.14 1112.68,-27.12 1116.13,-21.03"/>
</a>
</g>
</g>
</g>
</svg>
