<?xml version="1.0" encoding="UTF-8" standalone="no"?>
<!DOCTYPE svg PUBLIC "-//W3C//DTD SVG 1.1//EN"
 "http://www.w3.org/Graphics/SVG/1.1/DTD/svg11.dtd">
<!-- Generated by graphviz version 2.43.0 (0)
 -->
<!-- Title: SimulateurFerroviaire/Modules/GeoParser/DoubleSwitchDetector.cpp Pages: 1 -->
<svg width="1547pt" height="423pt"
 viewBox="0.00 0.00 1546.50 423.00" xmlns="http://www.w3.org/2000/svg" xmlns:xlink="http://www.w3.org/1999/xlink">
<g id="graph0" class="graph" transform="scale(1 1) rotate(0) translate(4 419)">
<title>SimulateurFerroviaire/Modules/GeoParser/DoubleSwitchDetector.cpp</title>
<!-- Node1 -->
<g id="Node000001" class="node">
<title>Node1</title>
<g id="a_Node000001"><a xlink:title="Implémentation phases 7 et 8 — doubles aiguilles et validation CDC.">
<polygon fill="#999999" stroke="#666666" points="925,-415 742,-415 742,-374 925,-374 925,-415"/>
<text text-anchor="start" x="750" y="-403" font-family="Helvetica,sans-Serif" font-size="10.00">SimulateurFerroviaire</text>
<text text-anchor="start" x="750" y="-392" font-family="Helvetica,sans-Serif" font-size="10.00">/Modules/GeoParser/DoubleSwitch</text>
<text text-anchor="middle" x="833.5" y="-381" font-family="Helvetica,sans-Serif" font-size="10.00">Detector.cpp</text>
</a>
</g>
</g>
<!-- Node2 -->
<g id="Node000002" class="node">
<title>Node2</title>
<g id="a_Node000002"><a xlink:href="DoubleSwitchDetector_8h.html" target="_top" xlink:title="Phases 7 et 8 — détection des doubles aiguilles et validation CDC.">
<polygon fill="white" stroke="#666666" points="842.5,-338 708.5,-338 708.5,-319 842.5,-319 842.5,-338"/>
<text text-anchor="middle" x="775.5" y="-326" font-family="Helvetica,sans-Serif" font-size="10.00">DoubleSwitchDetector.h</text>
</a>
</g>
</g>
<!-- Node1&#45;&gt;Node2 -->
<g id="edge1_Node000001_Node000002" class="edge">
<title>Node1&#45;&gt;Node2</title>
<g id="a_edge1_Node000001_Node000002"><a xlink:title=" ">
<path fill="none" stroke="#63b8ff" d="M815.78,-373.95C807.6,-364.92 798,-354.33 790.23,-345.75"/>
<polygon fill="#63b8ff" stroke="#63b8ff" points="792.75,-343.32 783.44,-338.26 787.56,-348.02 792.75,-343.32"/>
</a>
</g>
</g>
<!-- Node27 -->
<g id="Node000027" class="node">
<title>Node27</title>
<g id="a_Node000027"><a xlink:title=" ">
<polygon fill="#e0e0e0" stroke="#999999" points="924.5,-338 860.5,-338 860.5,-319 924.5,-319 924.5,-338"/>
<text text-anchor="middle" x="892.5" y="-326" font-family="Helvetica,sans-Serif" font-size="10.00">algorithm</text>
</a>
</g>
</g>
<!-- Node1&#45;&gt;Node27 -->
<g id="edge46_Node000001_Node000027" class="edge">
<title>Node1&#45;&gt;Node27</title>
<g id="a_edge46_Node000001_Node000027"><a xlink:title=" ">
<path fill="none" stroke="#63b8ff" d="M851.52,-373.95C859.84,-364.92 869.61,-354.33 877.52,-345.75"/>
<polygon fill="#63b8ff" stroke="#63b8ff" points="880.22,-347.99 884.42,-338.26 875.07,-343.24 880.22,-347.99"/>
</a>
</g>
</g>
<!-- Node3 -->
<g id="Node000003" class="node">
<title>Node3</title>
<g id="a_Node000003"><a xlink:title=" ">
<polygon fill="#e0e0e0" stroke="#999999" points="179.5,-277.5 147.5,-277.5 147.5,-258.5 179.5,-258.5 179.5,-277.5"/>
<text text-anchor="middle" x="163.5" y="-265.5" font-family="Helvetica,sans-Serif" font-size="10.00">set</text>
</a>
</g>
</g>
<!-- Node2&#45;&gt;Node3 -->
<g id="edge2_Node000002_Node000003" class="edge">
<title>Node2&#45;&gt;Node3</title>
<g id="a_edge2_Node000002_Node000003"><a xlink:title=" ">
<path fill="none" stroke="#63b8ff" d="M708.39,-325.39C576.73,-320.76 289.07,-308.06 193.5,-283 191.82,-282.56 190.12,-282.03 188.42,-281.43"/>
<polygon fill="#63b8ff" stroke="#63b8ff" points="189.56,-278.11 178.98,-277.52 186.88,-284.58 189.56,-278.11"/>
</a>
</g>
</g>
<!-- Node4 -->
<g id="Node000004" class="node">
<title>Node4</title>
<g id="a_Node000004"><a xlink:title=" ">
<polygon fill="#e0e0e0" stroke="#999999" points="647.5,-19 603.5,-19 603.5,0 647.5,0 647.5,-19"/>
<text text-anchor="middle" x="625.5" y="-7" font-family="Helvetica,sans-Serif" font-size="10.00">string</text>
</a>
</g>
</g>
<!-- Node2&#45;&gt;Node4 -->
<g id="edge3_Node000002_Node000004" class="edge">
<title>Node2&#45;&gt;Node4</title>
<g id="a_edge3_Node000002_Node000004"><a xlink:title=" ">
<path fill="none" stroke="#63b8ff" d="M842.63,-319.94C845.63,-319.62 848.6,-319.31 851.5,-319 1005.48,-302.78 1538.5,-357.83 1538.5,-203 1538.5,-203 1538.5,-203 1538.5,-135 1538.5,-44.2 820.42,-16.53 657.92,-11.43"/>
<polygon fill="#63b8ff" stroke="#63b8ff" points="657.72,-7.93 647.62,-11.12 657.5,-14.92 657.72,-7.93"/>
</a>
</g>
</g>
<!-- Node5 -->
<g id="Node000005" class="node">
<title>Node5</title>
<g id="a_Node000005"><a xlink:title=" ">
<polygon fill="#e0e0e0" stroke="#999999" points="897,-211.5 804,-211.5 804,-192.5 897,-192.5 897,-211.5"/>
<text text-anchor="middle" x="850.5" y="-199.5" font-family="Helvetica,sans-Serif" font-size="10.00">unordered_map</text>
</a>
</g>
</g>
<!-- Node2&#45;&gt;Node5 -->
<g id="edge4_Node000002_Node000005" class="edge">
<title>Node2&#45;&gt;Node5</title>
<g id="a_edge4_Node000002_Node000005"><a xlink:title=" ">
<path fill="none" stroke="#63b8ff" d="M780.66,-318.94C792.86,-298.69 823.71,-247.47 840.02,-220.4"/>
<polygon fill="#63b8ff" stroke="#63b8ff" points="843.15,-221.99 845.31,-211.62 837.15,-218.38 843.15,-221.99"/>
</a>
</g>
</g>
<!-- Node6 -->
<g id="Node000006" class="node">
<title>Node6</title>
<g id="a_Node000006"><a xlink:title=" ">
<polygon fill="#e0e0e0" stroke="#999999" points="960,-211.5 915,-211.5 915,-192.5 960,-192.5 960,-211.5"/>
<text text-anchor="middle" x="937.5" y="-199.5" font-family="Helvetica,sans-Serif" font-size="10.00">utility</text>
</a>
</g>
</g>
<!-- Node2&#45;&gt;Node6 -->
<g id="edge5_Node000002_Node000006" class="edge">
<title>Node2&#45;&gt;Node6</title>
<g id="a_edge5_Node000002_Node000006"><a xlink:title=" ">
<path fill="none" stroke="#63b8ff" d="M786.63,-318.94C813.8,-298.06 883.76,-244.3 918.01,-217.97"/>
<polygon fill="#63b8ff" stroke="#63b8ff" points="920.49,-220.49 926.29,-211.62 916.23,-214.94 920.49,-220.49"/>
</a>
</g>
</g>
<!-- Node7 -->
<g id="Node000007" class="node">
<title>Node7</title>
<g id="a_Node000007"><a xlink:title=" ">
<polygon fill="#e0e0e0" stroke="#999999" points="725,-145.5 678,-145.5 678,-126.5 725,-126.5 725,-145.5"/>
<text text-anchor="middle" x="701.5" y="-133.5" font-family="Helvetica,sans-Serif" font-size="10.00">vector</text>
</a>
</g>
</g>
<!-- Node2&#45;&gt;Node7 -->
<g id="edge6_Node000002_Node000007" class="edge">
<title>Node2&#45;&gt;Node7</title>
<g id="a_edge6_Node000002_Node000007"><a xlink:title=" ">
<path fill="none" stroke="#63b8ff" d="M770.37,-318.92C759.7,-300.73 734.88,-256.69 720.5,-217 713.07,-196.5 707.75,-171.98 704.66,-155.54"/>
<polygon fill="#63b8ff" stroke="#63b8ff" points="708.08,-154.82 702.87,-145.59 701.19,-156.05 708.08,-154.82"/>
</a>
</g>
</g>
<!-- Node8 -->
<g id="Node000008" class="node">
<title>Node8</title>
<g id="a_Node000008"><a xlink:href="TopologyGraph_8h.html" target="_top" xlink:title="Graphe planaire non&#45;orienté de nœuds et d&#39;arêtes ferroviaires accrochés.">
<polygon fill="white" stroke="#666666" points="1132,-277.5 995,-277.5 995,-258.5 1132,-258.5 1132,-277.5"/>
<text text-anchor="middle" x="1063.5" y="-265.5" font-family="Helvetica,sans-Serif" font-size="10.00">./Graph/TopologyGraph.h</text>
</a>
</g>
</g>
<!-- Node2&#45;&gt;Node8 -->
<g id="edge7_Node000002_Node000008" class="edge">
<title>Node2&#45;&gt;Node8</title>
<g id="a_edge7_Node000002_Node000008"><a xlink:title=" ">
<path fill="none" stroke="#63b8ff" d="M817.38,-318.99C868.78,-308.55 955.95,-290.85 1011.57,-279.55"/>
<polygon fill="#63b8ff" stroke="#63b8ff" points="1012.47,-282.94 1021.57,-277.52 1011.08,-276.08 1012.47,-282.94"/>
</a>
</g>
</g>
<!-- Node16 -->
<g id="Node000016" class="node">
<title>Node16</title>
<g id="a_Node000016"><a xlink:href="GeoParserEnums_8h.html" target="_top" xlink:title="Constantes nommées et énumérations du pipeline ferroviaire GeoParser.">
<polygon fill="white" stroke="#666666" points="1510,-211.5 1357,-211.5 1357,-192.5 1510,-192.5 1510,-211.5"/>
<text text-anchor="middle" x="1433.5" y="-199.5" font-family="Helvetica,sans-Serif" font-size="10.00">../Enums/GeoParserEnums.h</text>
</a>
</g>
</g>
<!-- Node2&#45;&gt;Node16 -->
<g id="edge44_Node000002_Node000016" class="edge">
<title>Node2&#45;&gt;Node16</title>
<g id="a_edge44_Node000002_Node000016"><a xlink:title=" ">
<path fill="none" stroke="#63b8ff" d="M842.62,-319.85C940.01,-308.67 1112.04,-288.59 1140.5,-283 1234.51,-264.54 1342.67,-231.98 1397.53,-214.64"/>
<polygon fill="#63b8ff" stroke="#63b8ff" points="1398.67,-217.95 1407.14,-211.59 1396.55,-211.28 1398.67,-217.95"/>
</a>
</g>
</g>
<!-- Node17 -->
<g id="Node000017" class="node">
<title>Node17</title>
<g id="a_Node000017"><a xlink:href="StraightBlock_8h.html" target="_top" xlink:title="Modèle de domaine d&#39;un bloc de voie droite (Straight).">
<polygon fill="white" stroke="#666666" points="674,-283 489,-283 489,-253 674,-253 674,-283"/>
<text text-anchor="start" x="497" y="-271" font-family="Helvetica,sans-Serif" font-size="10.00">Modules/InteractiveElements</text>
<text text-anchor="middle" x="581.5" y="-260" font-family="Helvetica,sans-Serif" font-size="10.00">/ShuntingElements/StraightBlock.h</text>
</a>
</g>
</g>
<!-- Node2&#45;&gt;Node17 -->
<g id="edge23_Node000002_Node000017" class="edge">
<title>Node2&#45;&gt;Node17</title>
<g id="a_edge23_Node000002_Node000017"><a xlink:title=" ">
<path fill="none" stroke="#63b8ff" d="M747.29,-318.99C718.76,-310.39 673.88,-296.86 638,-286.04"/>
<polygon fill="#63b8ff" stroke="#63b8ff" points="638.73,-282.6 628.14,-283.06 636.7,-289.3 638.73,-282.6"/>
</a>
</g>
</g>
<!-- Node20 -->
<g id="Node000020" class="node">
<title>Node20</title>
<g id="a_Node000020"><a xlink:href="Logger_8h.html" target="_top" xlink:title="Système de journalisation à 5 niveaux de trace, un fichier par moteur.">
<polygon fill="white" stroke="#666666" points="217,-85 106,-85 106,-55 217,-55 217,-85"/>
<text text-anchor="start" x="114" y="-73" font-family="Helvetica,sans-Serif" font-size="10.00">Engine/Core/Logger</text>
<text text-anchor="middle" x="161.5" y="-62" font-family="Helvetica,sans-Serif" font-size="10.00">/Logger.h</text>
</a>
</g>
</g>
<!-- Node2&#45;&gt;Node20 -->
<g id="edge45_Node000002_Node000020" class="edge">
<title>Node2&#45;&gt;Node20</title>
<g id="a_edge45_Node000002_Node000020"><a xlink:title=" ">
<path fill="none" stroke="#63b8ff" d="M708.44,-324.88C581.92,-319.43 317.52,-305.5 282.5,-283 213.68,-238.78 179.85,-140.72 167.37,-95.15"/>
<polygon fill="#63b8ff" stroke="#63b8ff" points="170.7,-94.04 164.77,-85.25 163.93,-95.82 170.7,-94.04"/>
</a>
</g>
</g>
<!-- Node26 -->
<g id="Node000026" class="node">
<title>Node26</title>
<g id="a_Node000026"><a xlink:href="SwitchBlock_8h.html" target="_top" xlink:title="Modèle de domaine d&#39;un aiguillage ferroviaire à 3 branches.">
<polygon fill="white" stroke="#666666" points="471,-283 292,-283 292,-253 471,-253 471,-283"/>
<text text-anchor="start" x="300" y="-271" font-family="Helvetica,sans-Serif" font-size="10.00">Modules/InteractiveElements</text>
<text text-anchor="middle" x="381.5" y="-260" font-family="Helvetica,sans-Serif" font-size="10.00">/ShuntingElements/SwitchBlock.h</text>
</a>
</g>
</g>
<!-- Node2&#45;&gt;Node26 -->
<g id="edge37_Node000002_Node000026" class="edge">
<title>Node2&#45;&gt;Node26</title>
<g id="a_edge37_Node000002_Node000026"><a xlink:title=" ">
<path fill="none" stroke="#63b8ff" d="M718.21,-318.99C656.22,-309.79 556.2,-294.94 481.25,-283.81"/>
<polygon fill="#63b8ff" stroke="#63b8ff" points="481.72,-280.34 471.31,-282.33 480.69,-287.27 481.72,-280.34"/>
</a>
</g>
</g>
<!-- Node8&#45;&gt;Node4 -->
<g id="edge11_Node000008_Node000004" class="edge">
<title>Node8&#45;&gt;Node4</title>
<g id="a_edge11_Node000008_Node000004"><a xlink:title=" ">
<path fill="none" stroke="#63b8ff" d="M1078.39,-258.5C1091.71,-249.95 1110.36,-235.41 1118.5,-217 1136.25,-176.88 1127.36,-151.16 1095.5,-121 1031.25,-60.17 753.34,-24.52 657.85,-13.89"/>
<polygon fill="#63b8ff" stroke="#63b8ff" points="657.97,-10.38 647.65,-12.77 657.21,-17.34 657.97,-10.38"/>
</a>
</g>
</g>
<!-- Node8&#45;&gt;Node5 -->
<g id="edge12_Node000008_Node000005" class="edge">
<title>Node8&#45;&gt;Node5</title>
<g id="a_edge12_Node000008_Node000005"><a xlink:title=" ">
<path fill="none" stroke="#63b8ff" d="M1034.77,-258.37C997.03,-247.03 930.64,-227.08 888.7,-214.48"/>
<polygon fill="#63b8ff" stroke="#63b8ff" points="889.69,-211.12 879.11,-211.6 887.68,-217.83 889.69,-211.12"/>
</a>
</g>
</g>
<!-- Node8&#45;&gt;Node6 -->
<g id="edge13_Node000008_Node000006" class="edge">
<title>Node8&#45;&gt;Node6</title>
<g id="a_edge13_Node000008_Node000006"><a xlink:title=" ">
<path fill="none" stroke="#63b8ff" d="M1046.51,-258.37C1025.28,-247.59 988.72,-229.02 963.85,-216.38"/>
<polygon fill="#63b8ff" stroke="#63b8ff" points="965.13,-213.11 954.63,-211.7 961.96,-219.35 965.13,-213.11"/>
</a>
</g>
</g>
<!-- Node8&#45;&gt;Node7 -->
<g id="edge14_Node000008_Node000007" class="edge">
<title>Node8&#45;&gt;Node7</title>
<g id="a_edge14_Node000008_Node000007"><a xlink:title=" ">
<path fill="none" stroke="#63b8ff" d="M1053.92,-258.45C1031.8,-238.78 978.34,-191.66 968.5,-187 947.62,-177.1 802.18,-153.05 735.17,-142.32"/>
<polygon fill="#63b8ff" stroke="#63b8ff" points="735.55,-138.84 725.12,-140.72 734.44,-145.75 735.55,-138.84"/>
</a>
</g>
</g>
<!-- Node9 -->
<g id="Node000009" class="node">
<title>Node9</title>
<g id="a_Node000009"><a xlink:title=" ">
<polygon fill="#e0e0e0" stroke="#999999" points="1216.5,-211.5 1166.5,-211.5 1166.5,-192.5 1216.5,-192.5 1216.5,-211.5"/>
<text text-anchor="middle" x="1191.5" y="-199.5" font-family="Helvetica,sans-Serif" font-size="10.00">cstdint</text>
</a>
</g>
</g>
<!-- Node8&#45;&gt;Node9 -->
<g id="edge8_Node000008_Node000009" class="edge">
<title>Node8&#45;&gt;Node9</title>
<g id="a_edge8_Node000008_Node000009"><a xlink:title=" ">
<path fill="none" stroke="#63b8ff" d="M1080.76,-258.37C1102.42,-247.54 1139.79,-228.85 1165.07,-216.22"/>
<polygon fill="#63b8ff" stroke="#63b8ff" points="1166.72,-219.3 1174.1,-211.7 1163.59,-213.04 1166.72,-219.3"/>
</a>
</g>
</g>
<!-- Node10 -->
<g id="Node000010" class="node">
<title>Node10</title>
<g id="a_Node000010"><a xlink:title=" ">
<polygon fill="#e0e0e0" stroke="#999999" points="1300,-211.5 1235,-211.5 1235,-192.5 1300,-192.5 1300,-211.5"/>
<text text-anchor="middle" x="1267.5" y="-199.5" font-family="Helvetica,sans-Serif" font-size="10.00">functional</text>
</a>
</g>
</g>
<!-- Node8&#45;&gt;Node10 -->
<g id="edge9_Node000008_Node000010" class="edge">
<title>Node8&#45;&gt;Node10</title>
<g id="a_edge9_Node000008_Node000010"><a xlink:title=" ">
<path fill="none" stroke="#63b8ff" d="M1091.95,-258.43C1124.34,-248.62 1178.84,-231.98 1225.5,-217 1227.78,-216.27 1230.14,-215.5 1232.51,-214.73"/>
<polygon fill="#63b8ff" stroke="#63b8ff" points="1233.81,-217.99 1242.21,-211.53 1231.62,-211.34 1233.81,-217.99"/>
</a>
</g>
</g>
<!-- Node11 -->
<g id="Node000011" class="node">
<title>Node11</title>
<g id="a_Node000011"><a xlink:title=" ">
<polygon fill="#e0e0e0" stroke="#999999" points="785.5,-211.5 729.5,-211.5 729.5,-192.5 785.5,-192.5 785.5,-211.5"/>
<text text-anchor="middle" x="757.5" y="-199.5" font-family="Helvetica,sans-Serif" font-size="10.00">optional</text>
</a>
</g>
</g>
<!-- Node8&#45;&gt;Node11 -->
<g id="edge10_Node000008_Node000011" class="edge">
<title>Node8&#45;&gt;Node11</title>
<g id="a_edge10_Node000008_Node000011"><a xlink:title=" ">
<path fill="none" stroke="#63b8ff" d="M1000.27,-258.5C945.29,-250.34 863.8,-236.39 794.5,-217 792.21,-216.36 789.87,-215.64 787.52,-214.87"/>
<polygon fill="#63b8ff" stroke="#63b8ff" points="788.62,-211.54 778.03,-211.51 786.29,-218.14 788.62,-211.54"/>
</a>
</g>
</g>
<!-- Node12 -->
<g id="Node000012" class="node">
<title>Node12</title>
<g id="a_Node000012"><a xlink:href="TopologyEdge_8h.html" target="_top" xlink:title="Arête non&#45;orientée du graphe planaire de topologie ferroviaire.">
<polygon fill="white" stroke="#666666" points="1110,-211.5 1017,-211.5 1017,-192.5 1110,-192.5 1110,-211.5"/>
<text text-anchor="middle" x="1063.5" y="-199.5" font-family="Helvetica,sans-Serif" font-size="10.00">TopologyEdge.h</text>
</a>
</g>
</g>
<!-- Node8&#45;&gt;Node12 -->
<g id="edge15_Node000008_Node000012" class="edge">
<title>Node8&#45;&gt;Node12</title>
<g id="a_edge15_Node000008_Node000012"><a xlink:title=" ">
<path fill="none" stroke="#63b8ff" d="M1063.5,-258.37C1063.5,-249.16 1063.5,-234.29 1063.5,-222.27"/>
<polygon fill="#63b8ff" stroke="#63b8ff" points="1067,-221.91 1063.5,-211.91 1060,-221.91 1067,-221.91"/>
</a>
</g>
</g>
<!-- Node15 -->
<g id="Node000015" class="node">
<title>Node15</title>
<g id="a_Node000015"><a xlink:href="CoordinateXY_8h.html" target="_top" xlink:title="Représentation d&#39;une coordonnée plane en mètres (système métrique UTM).">
<polygon fill="white" stroke="#666666" points="1337,-151 1218,-151 1218,-121 1337,-121 1337,-151"/>
<text text-anchor="start" x="1226" y="-139" font-family="Helvetica,sans-Serif" font-size="10.00">Modules/Coordinates</text>
<text text-anchor="middle" x="1277.5" y="-128" font-family="Helvetica,sans-Serif" font-size="10.00">/CoordinateXY.h</text>
</a>
</g>
</g>
<!-- Node8&#45;&gt;Node15 -->
<g id="edge21_Node000008_Node000015" class="edge">
<title>Node8&#45;&gt;Node15</title>
<g id="a_edge21_Node000008_Node000015"><a xlink:title=" ">
<path fill="none" stroke="#63b8ff" d="M1132.03,-262.57C1196.86,-256.78 1287.44,-244 1309.5,-217 1323.41,-199.98 1310.81,-176.14 1297.54,-158.92"/>
<polygon fill="#63b8ff" stroke="#63b8ff" points="1300.14,-156.56 1291.09,-151.05 1294.73,-161 1300.14,-156.56"/>
</a>
</g>
</g>
<!-- Node8&#45;&gt;Node16 -->
<g id="edge22_Node000008_Node000016" class="edge">
<title>Node8&#45;&gt;Node16</title>
<g id="a_edge22_Node000008_Node000016"><a xlink:title=" ">
<path fill="none" stroke="#63b8ff" d="M1113.02,-258.44C1180.72,-246.72 1302.02,-225.74 1374.4,-213.22"/>
<polygon fill="#63b8ff" stroke="#63b8ff" points="1375.02,-216.67 1384.28,-211.51 1373.83,-209.77 1375.02,-216.67"/>
</a>
</g>
</g>
<!-- Node12&#45;&gt;Node4 -->
<g id="edge18_Node000012_Node000004" class="edge">
<title>Node12&#45;&gt;Node4</title>
<g id="a_edge18_Node000012_Node000004"><a xlink:title=" ">
<path fill="none" stroke="#63b8ff" d="M1052.18,-192.27C1018.91,-167.06 917.77,-93.43 822.5,-55 766.83,-32.54 697.51,-20.22 657.7,-14.52"/>
<polygon fill="#63b8ff" stroke="#63b8ff" points="658.15,-11.05 647.77,-13.15 657.19,-17.98 658.15,-11.05"/>
</a>
</g>
</g>
<!-- Node12&#45;&gt;Node7 -->
<g id="edge19_Node000012_Node000007" class="edge">
<title>Node12&#45;&gt;Node7</title>
<g id="a_edge19_Node000012_Node000007"><a xlink:title=" ">
<path fill="none" stroke="#63b8ff" d="M1028.1,-192.49C1019.73,-190.58 1010.81,-188.64 1002.5,-187 951.69,-176.96 802.89,-153.09 735.44,-142.37"/>
<polygon fill="#63b8ff" stroke="#63b8ff" points="735.76,-138.88 725.34,-140.77 734.66,-145.79 735.76,-138.88"/>
</a>
</g>
</g>
<!-- Node13 -->
<g id="Node000013" class="node">
<title>Node13</title>
<g id="a_Node000013"><a xlink:title=" ">
<polygon fill="#e0e0e0" stroke="#999999" points="1087,-145.5 1040,-145.5 1040,-126.5 1087,-126.5 1087,-145.5"/>
<text text-anchor="middle" x="1063.5" y="-133.5" font-family="Helvetica,sans-Serif" font-size="10.00">cmath</text>
</a>
</g>
</g>
<!-- Node12&#45;&gt;Node13 -->
<g id="edge16_Node000012_Node000013" class="edge">
<title>Node12&#45;&gt;Node13</title>
<g id="a_edge16_Node000012_Node000013"><a xlink:title=" ">
<path fill="none" stroke="#63b8ff" d="M1063.5,-192.37C1063.5,-183.16 1063.5,-168.29 1063.5,-156.27"/>
<polygon fill="#63b8ff" stroke="#63b8ff" points="1067,-155.91 1063.5,-145.91 1060,-155.91 1067,-155.91"/>
</a>
</g>
</g>
<!-- Node14 -->
<g id="Node000014" class="node">
<title>Node14</title>
<g id="a_Node000014"><a xlink:title=" ">
<polygon fill="#e0e0e0" stroke="#999999" points="343.5,-19 287.5,-19 287.5,0 343.5,0 343.5,-19"/>
<text text-anchor="middle" x="315.5" y="-7" font-family="Helvetica,sans-Serif" font-size="10.00">sstream</text>
</a>
</g>
</g>
<!-- Node12&#45;&gt;Node14 -->
<g id="edge17_Node000012_Node000014" class="edge">
<title>Node12&#45;&gt;Node14</title>
<g id="a_edge17_Node000012_Node000014"><a xlink:title=" ">
<path fill="none" stroke="#63b8ff" d="M1029.91,-192.44C907.16,-161.18 483.31,-53.24 353.55,-20.19"/>
<polygon fill="#63b8ff" stroke="#63b8ff" points="354.23,-16.75 343.67,-17.67 352.5,-23.53 354.23,-16.75"/>
</a>
</g>
</g>
<!-- Node12&#45;&gt;Node15 -->
<g id="edge20_Node000012_Node000015" class="edge">
<title>Node12&#45;&gt;Node15</title>
<g id="a_edge20_Node000012_Node000015"><a xlink:title=" ">
<path fill="none" stroke="#63b8ff" d="M1092.36,-192.37C1125.1,-182.58 1179.31,-166.37 1220.63,-154.01"/>
<polygon fill="#63b8ff" stroke="#63b8ff" points="1221.72,-157.33 1230.3,-151.12 1219.72,-150.63 1221.72,-157.33"/>
</a>
</g>
</g>
<!-- Node17&#45;&gt;Node4 -->
<g id="edge24_Node000017_Node000004" class="edge">
<title>Node17&#45;&gt;Node4</title>
<g id="a_edge24_Node000017_Node000004"><a xlink:title=" ">
<path fill="none" stroke="#63b8ff" d="M590.06,-252.66C595.43,-242.94 601.98,-229.61 605.5,-217 624.19,-150.01 626.06,-66.59 625.86,-29.64"/>
<polygon fill="#63b8ff" stroke="#63b8ff" points="629.35,-29.31 625.73,-19.36 622.35,-29.4 629.35,-29.31"/>
</a>
</g>
</g>
<!-- Node17&#45;&gt;Node7 -->
<g id="edge25_Node000017_Node000007" class="edge">
<title>Node17&#45;&gt;Node7</title>
<g id="a_edge25_Node000017_Node000007"><a xlink:title=" ">
<path fill="none" stroke="#63b8ff" d="M599.58,-252.99C611.46,-243.41 627.05,-230.11 639.5,-217 658.69,-196.78 677.9,-170.91 689.74,-154.14"/>
<polygon fill="#63b8ff" stroke="#63b8ff" points="692.67,-156.07 695.51,-145.86 686.92,-152.07 692.67,-156.07"/>
</a>
</g>
</g>
<!-- Node18 -->
<g id="Node000018" class="node">
<title>Node18</title>
<g id="a_Node000018"><a xlink:href="ShuntingElement_8h.html" target="_top" xlink:title="Interface abstraite pour tous les éléments de shuntage ferroviaire.">
<polygon fill="white" stroke="#666666" points="421,-211.5 312,-211.5 312,-192.5 421,-192.5 421,-211.5"/>
<text text-anchor="middle" x="366.5" y="-199.5" font-family="Helvetica,sans-Serif" font-size="10.00">ShuntingElement.h</text>
</a>
</g>
</g>
<!-- Node17&#45;&gt;Node18 -->
<g id="edge26_Node000017_Node000018" class="edge">
<title>Node17&#45;&gt;Node18</title>
<g id="a_edge26_Node000017_Node000018"><a xlink:title=" ">
<path fill="none" stroke="#63b8ff" d="M534.32,-252.95C495.45,-241.38 441.03,-225.18 404.82,-214.41"/>
<polygon fill="#63b8ff" stroke="#63b8ff" points="405.7,-211.02 395.11,-211.52 403.7,-217.72 405.7,-211.02"/>
</a>
</g>
</g>
<!-- Node25 -->
<g id="Node000025" class="node">
<title>Node25</title>
<g id="a_Node000025"><a xlink:href="LatLon_8h.html" target="_top" xlink:title="Représentation d&#39;une coordonnée géographique WGS&#45;84 (latitude, longitude).">
<polygon fill="white" stroke="#666666" points="597,-217 478,-217 478,-187 597,-187 597,-217"/>
<text text-anchor="start" x="486" y="-205" font-family="Helvetica,sans-Serif" font-size="10.00">Modules/Coordinates</text>
<text text-anchor="middle" x="537.5" y="-194" font-family="Helvetica,sans-Serif" font-size="10.00">/LatLon.h</text>
</a>
</g>
</g>
<!-- Node17&#45;&gt;Node25 -->
<g id="edge36_Node000017_Node000025" class="edge">
<title>Node17&#45;&gt;Node25</title>
<g id="a_edge36_Node000017_Node000025"><a xlink:title=" ">
<path fill="none" stroke="#63b8ff" d="M571.73,-252.8C566.21,-244.76 559.17,-234.53 552.92,-225.43"/>
<polygon fill="#63b8ff" stroke="#63b8ff" points="555.79,-223.42 547.24,-217.16 550.02,-227.39 555.79,-223.42"/>
</a>
</g>
</g>
<!-- Node19 -->
<g id="Node000019" class="node">
<title>Node19</title>
<g id="a_Node000019"><a xlink:href="InteractiveElement_8h.html" target="_top" xlink:title="Classe de base abstraite pour tous les éléments interactifs ferroviaires.">
<polygon fill="white" stroke="#666666" points="470,-151 311,-151 311,-121 470,-121 470,-151"/>
<text text-anchor="start" x="319" y="-139" font-family="Helvetica,sans-Serif" font-size="10.00">Modules/InteractiveElements</text>
<text text-anchor="middle" x="390.5" y="-128" font-family="Helvetica,sans-Serif" font-size="10.00">/InteractiveElement.h</text>
</a>
</g>
</g>
<!-- Node18&#45;&gt;Node19 -->
<g id="edge27_Node000018_Node000019" class="edge">
<title>Node18&#45;&gt;Node19</title>
<g id="a_edge27_Node000018_Node000019"><a xlink:title=" ">
<path fill="none" stroke="#63b8ff" d="M369.74,-192.37C372.75,-184.32 377.4,-171.94 381.53,-160.93"/>
<polygon fill="#63b8ff" stroke="#63b8ff" points="384.88,-161.95 385.11,-151.36 378.33,-159.49 384.88,-161.95"/>
</a>
</g>
</g>
<!-- Node19&#45;&gt;Node4 -->
<g id="edge28_Node000019_Node000004" class="edge">
<title>Node19&#45;&gt;Node4</title>
<g id="a_edge28_Node000019_Node000004"><a xlink:title=" ">
<path fill="none" stroke="#63b8ff" d="M417,-120.96C462.63,-96.79 555.42,-47.63 600.2,-23.9"/>
<polygon fill="#63b8ff" stroke="#63b8ff" points="602.05,-26.88 609.25,-19.11 598.77,-20.7 602.05,-26.88"/>
</a>
</g>
</g>
<!-- Node19&#45;&gt;Node20 -->
<g id="edge29_Node000019_Node000020" class="edge">
<title>Node19&#45;&gt;Node20</title>
<g id="a_edge29_Node000019_Node000020"><a xlink:title=" ">
<path fill="none" stroke="#63b8ff" d="M340.24,-120.95C305.2,-111.16 258.27,-98.05 221.3,-87.71"/>
<polygon fill="#63b8ff" stroke="#63b8ff" points="222.21,-84.33 211.64,-85.01 220.33,-91.07 222.21,-84.33"/>
</a>
</g>
</g>
<!-- Node20&#45;&gt;Node4 -->
<g id="edge35_Node000020_Node000004" class="edge">
<title>Node20&#45;&gt;Node4</title>
<g id="a_edge35_Node000020_Node000004"><a xlink:title=" ">
<path fill="none" stroke="#63b8ff" d="M217.27,-61.72C234.06,-59.54 252.53,-57.16 269.5,-55 388.95,-39.79 531,-22.18 593.4,-14.46"/>
<polygon fill="#63b8ff" stroke="#63b8ff" points="593.92,-17.93 603.42,-13.23 593.06,-10.98 593.92,-17.93"/>
</a>
</g>
</g>
<!-- Node20&#45;&gt;Node14 -->
<g id="edge34_Node000020_Node000014" class="edge">
<title>Node20&#45;&gt;Node14</title>
<g id="a_edge34_Node000020_Node000014"><a xlink:title=" ">
<path fill="none" stroke="#63b8ff" d="M198.39,-54.99C224.2,-45.18 258.35,-32.21 283.1,-22.81"/>
<polygon fill="#63b8ff" stroke="#63b8ff" points="284.65,-25.96 292.76,-19.14 282.17,-19.42 284.65,-25.96"/>
</a>
</g>
</g>
<!-- Node21 -->
<g id="Node000021" class="node">
<title>Node21</title>
<g id="a_Node000021"><a xlink:title=" ">
<polygon fill="#e0e0e0" stroke="#999999" points="183.5,-19 139.5,-19 139.5,0 183.5,0 183.5,-19"/>
<text text-anchor="middle" x="161.5" y="-7" font-family="Helvetica,sans-Serif" font-size="10.00">ctime</text>
</a>
</g>
</g>
<!-- Node20&#45;&gt;Node21 -->
<g id="edge30_Node000020_Node000021" class="edge">
<title>Node20&#45;&gt;Node21</title>
<g id="a_edge30_Node000020_Node000021"><a xlink:title=" ">
<path fill="none" stroke="#63b8ff" d="M161.5,-54.84C161.5,-47.21 161.5,-37.7 161.5,-29.45"/>
<polygon fill="#63b8ff" stroke="#63b8ff" points="165,-29.27 161.5,-19.27 158,-29.27 165,-29.27"/>
</a>
</g>
</g>
<!-- Node22 -->
<g id="Node000022" class="node">
<title>Node22</title>
<g id="a_Node000022"><a xlink:title=" ">
<polygon fill="#e0e0e0" stroke="#999999" points="269.5,-19 201.5,-19 201.5,0 269.5,0 269.5,-19"/>
<text text-anchor="middle" x="235.5" y="-7" font-family="Helvetica,sans-Serif" font-size="10.00">filesystem</text>
</a>
</g>
</g>
<!-- Node20&#45;&gt;Node22 -->
<g id="edge31_Node000020_Node000022" class="edge">
<title>Node20&#45;&gt;Node22</title>
<g id="a_edge31_Node000020_Node000022"><a xlink:title=" ">
<path fill="none" stroke="#63b8ff" d="M179.41,-54.84C190.59,-46 204.98,-34.63 216.38,-25.62"/>
<polygon fill="#63b8ff" stroke="#63b8ff" points="218.74,-28.21 224.41,-19.27 214.4,-22.72 218.74,-28.21"/>
</a>
</g>
</g>
<!-- Node23 -->
<g id="Node000023" class="node">
<title>Node23</title>
<g id="a_Node000023"><a xlink:title=" ">
<polygon fill="#e0e0e0" stroke="#999999" points="55,-19 0,-19 0,0 55,0 55,-19"/>
<text text-anchor="middle" x="27.5" y="-7" font-family="Helvetica,sans-Serif" font-size="10.00">fstream</text>
</a>
</g>
</g>
<!-- Node20&#45;&gt;Node23 -->
<g id="edge32_Node000020_Node000023" class="edge">
<title>Node20&#45;&gt;Node23</title>
<g id="a_edge32_Node000020_Node000023"><a xlink:title=" ">
<path fill="none" stroke="#63b8ff" d="M129.4,-54.99C107.25,-45.31 78.02,-32.56 56.55,-23.18"/>
<polygon fill="#63b8ff" stroke="#63b8ff" points="57.85,-19.93 47.29,-19.14 55.05,-26.35 57.85,-19.93"/>
</a>
</g>
</g>
<!-- Node24 -->
<g id="Node000024" class="node">
<title>Node24</title>
<g id="a_Node000024"><a xlink:title=" ">
<polygon fill="#e0e0e0" stroke="#999999" points="121.5,-19 73.5,-19 73.5,0 121.5,0 121.5,-19"/>
<text text-anchor="middle" x="97.5" y="-7" font-family="Helvetica,sans-Serif" font-size="10.00">mutex</text>
</a>
</g>
</g>
<!-- Node20&#45;&gt;Node24 -->
<g id="edge33_Node000020_Node000024" class="edge">
<title>Node20&#45;&gt;Node24</title>
<g id="a_edge33_Node000020_Node000024"><a xlink:title=" ">
<path fill="none" stroke="#63b8ff" d="M146.01,-54.84C136.53,-46.17 124.39,-35.08 114.62,-26.15"/>
<polygon fill="#63b8ff" stroke="#63b8ff" points="116.83,-23.43 107.09,-19.27 112.11,-28.6 116.83,-23.43"/>
</a>
</g>
</g>
<!-- Node26&#45;&gt;Node4 -->
<g id="edge40_Node000026_Node000004" class="edge">
<title>Node26&#45;&gt;Node4</title>
<g id="a_edge40_Node000026_Node000004"><a xlink:title=" ">
<path fill="none" stroke="#63b8ff" d="M343.9,-252.81C328.2,-244.82 311.55,-233.14 302.5,-217 281.64,-179.78 277.01,-155.94 301.5,-121 368.86,-24.92 525.04,-11.32 592.97,-10.12"/>
<polygon fill="#63b8ff" stroke="#63b8ff" points="593.12,-13.62 603.08,-10.02 593.05,-6.62 593.12,-13.62"/>
</a>
</g>
</g>
<!-- Node26&#45;&gt;Node7 -->
<g id="edge41_Node000026_Node000007" class="edge">
<title>Node26&#45;&gt;Node7</title>
<g id="a_edge41_Node000026_Node000007"><a xlink:title=" ">
<path fill="none" stroke="#63b8ff" d="M394.95,-252.96C414.94,-232.4 451.92,-195.58 468.5,-187 533.78,-153.22 620.67,-142.25 667.74,-138.69"/>
<polygon fill="#63b8ff" stroke="#63b8ff" points="668.24,-142.17 677.98,-137.99 667.77,-135.18 668.24,-142.17"/>
</a>
</g>
</g>
<!-- Node26&#45;&gt;Node11 -->
<g id="edge38_Node000026_Node000011" class="edge">
<title>Node26&#45;&gt;Node11</title>
<g id="a_edge38_Node000026_Node000011"><a xlink:title=" ">
<path fill="none" stroke="#63b8ff" d="M464.01,-252.95C543.34,-239.45 659.72,-219.64 719.29,-209.5"/>
<polygon fill="#63b8ff" stroke="#63b8ff" points="720.11,-212.91 729.38,-207.79 718.94,-206.01 720.11,-212.91"/>
</a>
</g>
</g>
<!-- Node26&#45;&gt;Node14 -->
<g id="edge39_Node000026_Node000014" class="edge">
<title>Node26&#45;&gt;Node14</title>
<g id="a_edge39_Node000026_Node000014"><a xlink:title=" ">
<path fill="none" stroke="#63b8ff" d="M317.97,-252.92C299.16,-245.47 280.63,-234.15 269.5,-217 230.32,-156.6 241.4,-121.29 269.5,-55 274.48,-43.25 284.25,-33.09 293.51,-25.45"/>
<polygon fill="#63b8ff" stroke="#63b8ff" points="295.9,-28.03 301.72,-19.18 291.65,-22.47 295.9,-28.03"/>
</a>
</g>
</g>
<!-- Node26&#45;&gt;Node18 -->
<g id="edge43_Node000026_Node000018" class="edge">
<title>Node26&#45;&gt;Node18</title>
<g id="a_edge43_Node000026_Node000018"><a xlink:title=" ">
<path fill="none" stroke="#63b8ff" d="M378.17,-252.8C376.04,-243.7 373.25,-231.79 370.93,-221.9"/>
<polygon fill="#63b8ff" stroke="#63b8ff" points="374.26,-220.78 368.57,-211.84 367.45,-222.38 374.26,-220.78"/>
</a>
</g>
</g>
<!-- Node26&#45;&gt;Node25 -->
<g id="edge42_Node000026_Node000025" class="edge">
<title>Node26&#45;&gt;Node25</title>
<g id="a_edge42_Node000026_Node000025"><a xlink:title=" ">
<path fill="none" stroke="#63b8ff" d="M415.73,-252.95C438.7,-243.53 469.14,-231.04 493.84,-220.91"/>
<polygon fill="#63b8ff" stroke="#63b8ff" points="495.42,-224.05 503.34,-217.01 492.76,-217.57 495.42,-224.05"/>
</a>
</g>
</g>
</g>
</svg>
