<?xml version="1.0" encoding="UTF-8" standalone="no"?>
<!DOCTYPE svg PUBLIC "-//W3C//DTD SVG 1.1//EN"
 "http://www.w3.org/Graphics/SVG/1.1/DTD/svg11.dtd">
<!-- Generated by graphviz version 2.43.0 (0)
 -->
<!-- Title: SimulateurFerroviaire/Modules/GeoJsonExporter/GeoJsonExporter.h Pages: 1 -->
<svg width="934pt" height="302pt"
 viewBox="0.00 0.00 934.24 302.00" xmlns="http://www.w3.org/2000/svg" xmlns:xlink="http://www.w3.org/1999/xlink">
<g id="graph0" class="graph" transform="scale(1 1) rotate(0) translate(4 298)">
<title>SimulateurFerroviaire/Modules/GeoJsonExporter/GeoJsonExporter.h</title>
<!-- Node1 -->
<g id="Node000001" class="node">
<title>Node1</title>
<g id="a_Node000001"><a xlink:title="Exporteur de topologie ferroviaire au format GeoJSON.">
<polygon fill="#999999" stroke="#666666" points="522.24,-294 377.24,-294 377.24,-253 522.24,-253 522.24,-294"/>
<text text-anchor="start" x="385.24" y="-282" font-family="Helvetica,sans-Serif" font-size="10.00">SimulateurFerroviaire</text>
<text text-anchor="start" x="385.24" y="-271" font-family="Helvetica,sans-Serif" font-size="10.00">/Modules/GeoJsonExporter</text>
<text text-anchor="middle" x="449.74" y="-260" font-family="Helvetica,sans-Serif" font-size="10.00">/GeoJsonExporter.h</text>
</a>
</g>
</g>
<!-- Node2 -->
<g id="Node000002" class="node">
<title>Node2</title>
<g id="a_Node000002"><a xlink:title=" ">
<polygon fill="#e0e0e0" stroke="#999999" points="229.74,-19 185.74,-19 185.74,0 229.74,0 229.74,-19"/>
<text text-anchor="middle" x="207.74" y="-7" font-family="Helvetica,sans-Serif" font-size="10.00">string</text>
</a>
</g>
</g>
<!-- Node1&#45;&gt;Node2 -->
<g id="edge1_Node000001_Node000002" class="edge">
<title>Node1&#45;&gt;Node2</title>
<g id="a_edge1_Node000001_Node000002"><a xlink:title=" ">
<path fill="none" stroke="#63b8ff" d="M377.01,-271.48C285.92,-266.14 131.12,-243 42.74,-151 11.68,-118.67 -16.23,-90.04 11.74,-55 31.86,-29.8 125.12,-17.79 175.4,-13.06"/>
<polygon fill="#63b8ff" stroke="#63b8ff" points="175.79,-16.54 185.44,-12.16 175.16,-9.57 175.79,-16.54"/>
</a>
</g>
</g>
<!-- Node3 -->
<g id="Node000003" class="node">
<title>Node3</title>
<g id="a_Node000003"><a xlink:title=" ">
<polygon fill="#e0e0e0" stroke="#999999" points="414.24,-145.5 367.24,-145.5 367.24,-126.5 414.24,-126.5 414.24,-145.5"/>
<text text-anchor="middle" x="390.74" y="-133.5" font-family="Helvetica,sans-Serif" font-size="10.00">vector</text>
</a>
</g>
</g>
<!-- Node1&#45;&gt;Node3 -->
<g id="edge2_Node000001_Node000003" class="edge">
<title>Node1&#45;&gt;Node3</title>
<g id="a_edge2_Node000001_Node000003"><a xlink:title=" ">
<path fill="none" stroke="#63b8ff" d="M433.19,-252.78C425.4,-242.63 416.57,-229.75 410.74,-217 401.65,-197.11 396.29,-172.47 393.44,-155.84"/>
<polygon fill="#63b8ff" stroke="#63b8ff" points="396.87,-155.09 391.86,-145.75 389.95,-156.18 396.87,-155.09"/>
</a>
</g>
</g>
<!-- Node4 -->
<g id="Node000004" class="node">
<title>Node4</title>
<g id="a_Node000004"><a xlink:href="StraightBlock_8h.html" target="_top" xlink:title="Modèle de domaine d&#39;un bloc de voie droite (Straight).">
<polygon fill="white" stroke="#666666" points="363.24,-217 178.24,-217 178.24,-187 363.24,-187 363.24,-217"/>
<text text-anchor="start" x="186.24" y="-205" font-family="Helvetica,sans-Serif" font-size="10.00">Modules/InteractiveElements</text>
<text text-anchor="middle" x="270.74" y="-194" font-family="Helvetica,sans-Serif" font-size="10.00">/ShuntingElements/StraightBlock.h</text>
</a>
</g>
</g>
<!-- Node1&#45;&gt;Node4 -->
<g id="edge3_Node000001_Node000004" class="edge">
<title>Node1&#45;&gt;Node4</title>
<g id="a_edge3_Node000001_Node000004"><a xlink:title=" ">
<path fill="none" stroke="#63b8ff" d="M399.4,-252.96C373.27,-242.81 341.59,-230.51 316.21,-220.65"/>
<polygon fill="#63b8ff" stroke="#63b8ff" points="317.4,-217.36 306.81,-217 314.86,-223.89 317.4,-217.36"/>
</a>
</g>
</g>
<!-- Node8 -->
<g id="Node000008" class="node">
<title>Node8</title>
<g id="a_Node000008"><a xlink:href="SwitchBlock_8h.html" target="_top" xlink:title="Modèle de domaine d&#39;un aiguillage ferroviaire à 3 branches.">
<polygon fill="white" stroke="#666666" points="598.24,-217 419.24,-217 419.24,-187 598.24,-187 598.24,-217"/>
<text text-anchor="start" x="427.24" y="-205" font-family="Helvetica,sans-Serif" font-size="10.00">Modules/InteractiveElements</text>
<text text-anchor="middle" x="508.74" y="-194" font-family="Helvetica,sans-Serif" font-size="10.00">/ShuntingElements/SwitchBlock.h</text>
</a>
</g>
</g>
<!-- Node1&#45;&gt;Node8 -->
<g id="edge10_Node000001_Node000008" class="edge">
<title>Node1&#45;&gt;Node8</title>
<g id="a_edge10_Node000001_Node000008"><a xlink:title=" ">
<path fill="none" stroke="#63b8ff" d="M466.49,-252.77C473.9,-244.04 482.63,-233.75 490.23,-224.8"/>
<polygon fill="#63b8ff" stroke="#63b8ff" points="493.02,-226.93 496.82,-217.04 487.68,-222.4 493.02,-226.93"/>
</a>
</g>
</g>
<!-- Node11 -->
<g id="Node000011" class="node">
<title>Node11</title>
<g id="a_Node000011"><a xlink:href="Logger_8h.html" target="_top" xlink:title="Système de journalisation à 5 niveaux de trace, un fichier par moteur.">
<polygon fill="white" stroke="#666666" points="738.24,-217 627.24,-217 627.24,-187 738.24,-187 738.24,-217"/>
<text text-anchor="start" x="635.24" y="-205" font-family="Helvetica,sans-Serif" font-size="10.00">Engine/Core/Logger</text>
<text text-anchor="middle" x="682.74" y="-194" font-family="Helvetica,sans-Serif" font-size="10.00">/Logger.h</text>
</a>
</g>
</g>
<!-- Node1&#45;&gt;Node11 -->
<g id="edge16_Node000001_Node000011" class="edge">
<title>Node1&#45;&gt;Node11</title>
<g id="a_edge16_Node000001_Node000011"><a xlink:title=" ">
<path fill="none" stroke="#63b8ff" d="M515.27,-252.96C550.18,-242.54 592.7,-229.86 626.17,-219.88"/>
<polygon fill="#63b8ff" stroke="#63b8ff" points="627.21,-223.22 635.79,-217 625.21,-216.51 627.21,-223.22"/>
</a>
</g>
</g>
<!-- Node16 -->
<g id="Node000016" class="node">
<title>Node16</title>
<g id="a_Node000016"><a xlink:title=" ">
<polygon fill="#e0e0e0" stroke="#999999" points="909.24,-211.5 756.24,-211.5 756.24,-192.5 909.24,-192.5 909.24,-211.5"/>
<text text-anchor="middle" x="832.74" y="-199.5" font-family="Helvetica,sans-Serif" font-size="10.00">External/nlohmann/json.hpp</text>
</a>
</g>
</g>
<!-- Node1&#45;&gt;Node16 -->
<g id="edge23_Node000001_Node000016" class="edge">
<title>Node1&#45;&gt;Node16</title>
<g id="a_edge23_Node000001_Node000016"><a xlink:title=" ">
<path fill="none" stroke="#63b8ff" d="M522.68,-259.26C596.28,-245.91 708.39,-225.56 775.72,-213.35"/>
<polygon fill="#63b8ff" stroke="#63b8ff" points="776.51,-216.76 785.73,-211.53 775.26,-209.87 776.51,-216.76"/>
</a>
</g>
</g>
<!-- Node4&#45;&gt;Node2 -->
<g id="edge4_Node000004_Node000002" class="edge">
<title>Node4&#45;&gt;Node2</title>
<g id="a_edge4_Node000004_Node000002"><a xlink:title=" ">
<path fill="none" stroke="#63b8ff" d="M251.68,-186.99C240.96,-177.98 228.43,-165.31 221.74,-151 202.95,-110.79 203.73,-57.18 205.81,-29.24"/>
<polygon fill="#63b8ff" stroke="#63b8ff" points="209.29,-29.52 206.69,-19.25 202.32,-28.9 209.29,-29.52"/>
</a>
</g>
</g>
<!-- Node4&#45;&gt;Node3 -->
<g id="edge5_Node000004_Node000003" class="edge">
<title>Node4&#45;&gt;Node3</title>
<g id="a_edge5_Node000004_Node000003"><a xlink:title=" ">
<path fill="none" stroke="#63b8ff" d="M297.08,-186.95C317.56,-176.03 345.8,-160.97 365.9,-150.25"/>
<polygon fill="#63b8ff" stroke="#63b8ff" points="367.6,-153.31 374.77,-145.52 364.3,-147.14 367.6,-153.31"/>
</a>
</g>
</g>
<!-- Node5 -->
<g id="Node000005" class="node">
<title>Node5</title>
<g id="a_Node000005"><a xlink:href="ShuntingElement_8h.html" target="_top" xlink:title="Interface abstraite pour tous les éléments de shuntage ferroviaire.">
<polygon fill="white" stroke="#666666" points="161.24,-145.5 52.24,-145.5 52.24,-126.5 161.24,-126.5 161.24,-145.5"/>
<text text-anchor="middle" x="106.74" y="-133.5" font-family="Helvetica,sans-Serif" font-size="10.00">ShuntingElement.h</text>
</a>
</g>
</g>
<!-- Node4&#45;&gt;Node5 -->
<g id="edge6_Node000004_Node000005" class="edge">
<title>Node4&#45;&gt;Node5</title>
<g id="a_edge6_Node000004_Node000005"><a xlink:title=" ">
<path fill="none" stroke="#63b8ff" d="M234.75,-186.95C205.86,-175.68 165.71,-160.01 138.12,-149.25"/>
<polygon fill="#63b8ff" stroke="#63b8ff" points="139.16,-145.89 128.57,-145.52 136.61,-152.41 139.16,-145.89"/>
</a>
</g>
</g>
<!-- Node7 -->
<g id="Node000007" class="node">
<title>Node7</title>
<g id="a_Node000007"><a xlink:href="LatLon_8h.html" target="_top" xlink:title="Représentation d&#39;une coordonnée géographique WGS&#45;84 (latitude, longitude).">
<polygon fill="white" stroke="#666666" points="349.24,-151 230.24,-151 230.24,-121 349.24,-121 349.24,-151"/>
<text text-anchor="start" x="238.24" y="-139" font-family="Helvetica,sans-Serif" font-size="10.00">Modules/Coordinates</text>
<text text-anchor="middle" x="289.74" y="-128" font-family="Helvetica,sans-Serif" font-size="10.00">/LatLon.h</text>
</a>
</g>
</g>
<!-- Node4&#45;&gt;Node7 -->
<g id="edge9_Node000004_Node000007" class="edge">
<title>Node4&#45;&gt;Node7</title>
<g id="a_edge9_Node000004_Node000007"><a xlink:title=" ">
<path fill="none" stroke="#63b8ff" d="M274.96,-186.8C277.22,-179.17 280.07,-169.57 282.66,-160.84"/>
<polygon fill="#63b8ff" stroke="#63b8ff" points="286.05,-161.75 285.54,-151.16 279.34,-159.75 286.05,-161.75"/>
</a>
</g>
</g>
<!-- Node6 -->
<g id="Node000006" class="node">
<title>Node6</title>
<g id="a_Node000006"><a xlink:href="InteractiveElement_8h.html" target="_top" xlink:title="Classe de base abstraite pour tous les éléments interactifs ferroviaires.">
<polygon fill="white" stroke="#666666" points="180.24,-85 21.24,-85 21.24,-55 180.24,-55 180.24,-85"/>
<text text-anchor="start" x="29.24" y="-73" font-family="Helvetica,sans-Serif" font-size="10.00">Modules/InteractiveElements</text>
<text text-anchor="middle" x="100.74" y="-62" font-family="Helvetica,sans-Serif" font-size="10.00">/InteractiveElement.h</text>
</a>
</g>
</g>
<!-- Node5&#45;&gt;Node6 -->
<g id="edge7_Node000005_Node000006" class="edge">
<title>Node5&#45;&gt;Node6</title>
<g id="a_edge7_Node000005_Node000006"><a xlink:title=" ">
<path fill="none" stroke="#63b8ff" d="M105.93,-126.37C105.19,-118.49 104.07,-106.45 103.05,-95.6"/>
<polygon fill="#63b8ff" stroke="#63b8ff" points="106.51,-94.99 102.09,-85.36 99.54,-95.64 106.51,-94.99"/>
</a>
</g>
</g>
<!-- Node6&#45;&gt;Node2 -->
<g id="edge8_Node000006_Node000002" class="edge">
<title>Node6&#45;&gt;Node2</title>
<g id="a_edge8_Node000006_Node000002"><a xlink:title=" ">
<path fill="none" stroke="#63b8ff" d="M126.37,-54.99C143.59,-45.58 166.14,-33.24 183.14,-23.95"/>
<polygon fill="#63b8ff" stroke="#63b8ff" points="184.84,-27.01 191.94,-19.14 181.49,-20.87 184.84,-27.01"/>
</a>
</g>
</g>
<!-- Node8&#45;&gt;Node2 -->
<g id="edge13_Node000008_Node000002" class="edge">
<title>Node8&#45;&gt;Node2</title>
<g id="a_edge13_Node000008_Node000002"><a xlink:title=" ">
<path fill="none" stroke="#63b8ff" d="M510.81,-186.91C512.56,-169.5 512.75,-139.88 497.74,-121 433.06,-39.64 301.18,-18.15 240.11,-12.5"/>
<polygon fill="#63b8ff" stroke="#63b8ff" points="240.16,-8.99 229.9,-11.65 239.58,-15.97 240.16,-8.99"/>
</a>
</g>
</g>
<!-- Node8&#45;&gt;Node3 -->
<g id="edge14_Node000008_Node000003" class="edge">
<title>Node8&#45;&gt;Node3</title>
<g id="a_edge14_Node000008_Node000003"><a xlink:title=" ">
<path fill="none" stroke="#63b8ff" d="M482.85,-186.95C462.79,-176.08 435.19,-161.11 415.44,-150.4"/>
<polygon fill="#63b8ff" stroke="#63b8ff" points="416.9,-147.21 406.45,-145.52 413.57,-153.36 416.9,-147.21"/>
</a>
</g>
</g>
<!-- Node8&#45;&gt;Node7 -->
<g id="edge15_Node000008_Node000007" class="edge">
<title>Node8&#45;&gt;Node7</title>
<g id="a_edge15_Node000008_Node000007"><a xlink:title=" ">
<path fill="none" stroke="#63b8ff" d="M460.68,-186.95C427.31,-177.2 382.67,-164.16 347.38,-153.84"/>
<polygon fill="#63b8ff" stroke="#63b8ff" points="348.27,-150.46 337.69,-151.01 346.31,-157.18 348.27,-150.46"/>
</a>
</g>
</g>
<!-- Node9 -->
<g id="Node000009" class="node">
<title>Node9</title>
<g id="a_Node000009"><a xlink:title=" ">
<polygon fill="#e0e0e0" stroke="#999999" points="488.74,-145.5 432.74,-145.5 432.74,-126.5 488.74,-126.5 488.74,-145.5"/>
<text text-anchor="middle" x="460.74" y="-133.5" font-family="Helvetica,sans-Serif" font-size="10.00">optional</text>
</a>
</g>
</g>
<!-- Node8&#45;&gt;Node9 -->
<g id="edge11_Node000008_Node000009" class="edge">
<title>Node8&#45;&gt;Node9</title>
<g id="a_edge11_Node000008_Node000009"><a xlink:title=" ">
<path fill="none" stroke="#63b8ff" d="M498.09,-186.8C490.83,-177.11 481.17,-164.24 473.5,-154.01"/>
<polygon fill="#63b8ff" stroke="#63b8ff" points="476.18,-151.74 467.38,-145.84 470.58,-155.94 476.18,-151.74"/>
</a>
</g>
</g>
<!-- Node10 -->
<g id="Node000010" class="node">
<title>Node10</title>
<g id="a_Node000010"><a xlink:title=" ">
<polygon fill="#e0e0e0" stroke="#999999" points="600.74,-145.5 544.74,-145.5 544.74,-126.5 600.74,-126.5 600.74,-145.5"/>
<text text-anchor="middle" x="572.74" y="-133.5" font-family="Helvetica,sans-Serif" font-size="10.00">sstream</text>
</a>
</g>
</g>
<!-- Node8&#45;&gt;Node10 -->
<g id="edge12_Node000008_Node000010" class="edge">
<title>Node8&#45;&gt;Node10</title>
<g id="a_edge12_Node000008_Node000010"><a xlink:title=" ">
<path fill="none" stroke="#63b8ff" d="M522.95,-186.8C532.92,-176.82 546.29,-163.46 556.66,-153.09"/>
<polygon fill="#63b8ff" stroke="#63b8ff" points="559.3,-155.39 563.9,-145.84 554.35,-150.44 559.3,-155.39"/>
</a>
</g>
</g>
<!-- Node11&#45;&gt;Node2 -->
<g id="edge22_Node000011_Node000002" class="edge">
<title>Node11&#45;&gt;Node2</title>
<g id="a_edge22_Node000011_Node000002"><a xlink:title=" ">
<path fill="none" stroke="#63b8ff" d="M685.89,-186.8C688.88,-169.28 690.95,-139.54 675.74,-121 619.73,-52.72 336.65,-21.83 240.08,-13.16"/>
<polygon fill="#63b8ff" stroke="#63b8ff" points="240.29,-9.67 230.03,-12.28 239.68,-16.64 240.29,-9.67"/>
</a>
</g>
</g>
<!-- Node11&#45;&gt;Node10 -->
<g id="edge21_Node000011_Node000010" class="edge">
<title>Node11&#45;&gt;Node10</title>
<g id="a_edge21_Node000011_Node000010"><a xlink:title=" ">
<path fill="none" stroke="#63b8ff" d="M658.6,-186.95C640.08,-176.18 614.64,-161.38 596.27,-150.69"/>
<polygon fill="#63b8ff" stroke="#63b8ff" points="597.78,-147.52 587.38,-145.52 594.26,-153.57 597.78,-147.52"/>
</a>
</g>
</g>
<!-- Node12 -->
<g id="Node000012" class="node">
<title>Node12</title>
<g id="a_Node000012"><a xlink:title=" ">
<polygon fill="#e0e0e0" stroke="#999999" points="766.74,-145.5 722.74,-145.5 722.74,-126.5 766.74,-126.5 766.74,-145.5"/>
<text text-anchor="middle" x="744.74" y="-133.5" font-family="Helvetica,sans-Serif" font-size="10.00">ctime</text>
</a>
</g>
</g>
<!-- Node11&#45;&gt;Node12 -->
<g id="edge17_Node000011_Node000012" class="edge">
<title>Node11&#45;&gt;Node12</title>
<g id="a_edge17_Node000011_Node000012"><a xlink:title=" ">
<path fill="none" stroke="#63b8ff" d="M696.5,-186.8C706.17,-176.82 719.11,-163.46 729.16,-153.09"/>
<polygon fill="#63b8ff" stroke="#63b8ff" points="731.73,-155.46 736.17,-145.84 726.7,-150.59 731.73,-155.46"/>
</a>
</g>
</g>
<!-- Node13 -->
<g id="Node000013" class="node">
<title>Node13</title>
<g id="a_Node000013"><a xlink:title=" ">
<polygon fill="#e0e0e0" stroke="#999999" points="852.74,-145.5 784.74,-145.5 784.74,-126.5 852.74,-126.5 852.74,-145.5"/>
<text text-anchor="middle" x="818.74" y="-133.5" font-family="Helvetica,sans-Serif" font-size="10.00">filesystem</text>
</a>
</g>
</g>
<!-- Node11&#45;&gt;Node13 -->
<g id="edge18_Node000011_Node000013" class="edge">
<title>Node11&#45;&gt;Node13</title>
<g id="a_edge18_Node000011_Node000013"><a xlink:title=" ">
<path fill="none" stroke="#63b8ff" d="M712.59,-186.95C736.12,-175.88 768.67,-160.56 791.51,-149.82"/>
<polygon fill="#63b8ff" stroke="#63b8ff" points="793.08,-152.94 800.64,-145.52 790.1,-146.61 793.08,-152.94"/>
</a>
</g>
</g>
<!-- Node14 -->
<g id="Node000014" class="node">
<title>Node14</title>
<g id="a_Node000014"><a xlink:title=" ">
<polygon fill="#e0e0e0" stroke="#999999" points="926.24,-145.5 871.24,-145.5 871.24,-126.5 926.24,-126.5 926.24,-145.5"/>
<text text-anchor="middle" x="898.74" y="-133.5" font-family="Helvetica,sans-Serif" font-size="10.00">fstream</text>
</a>
</g>
</g>
<!-- Node11&#45;&gt;Node14 -->
<g id="edge19_Node000011_Node000014" class="edge">
<title>Node11&#45;&gt;Node14</title>
<g id="a_edge19_Node000011_Node000014"><a xlink:title=" ">
<path fill="none" stroke="#63b8ff" d="M737.96,-186.94C773.54,-177.55 820.66,-164.48 861.74,-151 863.6,-150.39 865.51,-149.74 867.42,-149.07"/>
<polygon fill="#63b8ff" stroke="#63b8ff" points="868.74,-152.32 876.94,-145.62 866.35,-145.74 868.74,-152.32"/>
</a>
</g>
</g>
<!-- Node15 -->
<g id="Node000015" class="node">
<title>Node15</title>
<g id="a_Node000015"><a xlink:title=" ">
<polygon fill="#e0e0e0" stroke="#999999" points="666.74,-145.5 618.74,-145.5 618.74,-126.5 666.74,-126.5 666.74,-145.5"/>
<text text-anchor="middle" x="642.74" y="-133.5" font-family="Helvetica,sans-Serif" font-size="10.00">mutex</text>
</a>
</g>
</g>
<!-- Node11&#45;&gt;Node15 -->
<g id="edge20_Node000011_Node000015" class="edge">
<title>Node11&#45;&gt;Node15</title>
<g id="a_edge20_Node000011_Node000015"><a xlink:title=" ">
<path fill="none" stroke="#63b8ff" d="M673.86,-186.8C667.93,-177.31 660.09,-164.76 653.76,-154.63"/>
<polygon fill="#63b8ff" stroke="#63b8ff" points="656.54,-152.47 648.27,-145.84 650.6,-156.18 656.54,-152.47"/>
</a>
</g>
</g>
</g>
</svg>
