<?xml version="1.0" encoding="UTF-8" standalone="no"?>
<!DOCTYPE svg PUBLIC "-//W3C//DTD SVG 1.1//EN"
 "http://www.w3.org/Graphics/SVG/1.1/DTD/svg11.dtd">
<!-- Generated by graphviz version 2.43.0 (0)
 -->
<!-- Title: SimulateurFerroviaire/Modules/GeoJsonExporter/GeoJsonExporter.cpp Pages: 1 -->
<svg width="1023pt" height="423pt"
 viewBox="0.00 0.00 1022.50 423.00" xmlns="http://www.w3.org/2000/svg" xmlns:xlink="http://www.w3.org/1999/xlink">
<g id="graph0" class="graph" transform="scale(1 1) rotate(0) translate(4 419)">
<title>SimulateurFerroviaire/Modules/GeoJsonExporter/GeoJsonExporter.cpp</title>
<!-- Node1 -->
<g id="Node000001" class="node">
<title>Node1</title>
<g id="a_Node000001"><a xlink:title="Implémentation de l&#39;exporteur GeoJSON.">
<polygon fill="#999999" stroke="#666666" points="658,-415 513,-415 513,-374 658,-374 658,-415"/>
<text text-anchor="start" x="521" y="-403" font-family="Helvetica,sans-Serif" font-size="10.00">SimulateurFerroviaire</text>
<text text-anchor="start" x="521" y="-392" font-family="Helvetica,sans-Serif" font-size="10.00">/Modules/GeoJsonExporter</text>
<text text-anchor="middle" x="585.5" y="-381" font-family="Helvetica,sans-Serif" font-size="10.00">/GeoJsonExporter.cpp</text>
</a>
</g>
</g>
<!-- Node2 -->
<g id="Node000002" class="node">
<title>Node2</title>
<g id="a_Node000002"><a xlink:href="GeoJsonExporter_8h.html" target="_top" xlink:title="Exporteur de topologie ferroviaire au format GeoJSON.">
<polygon fill="white" stroke="#666666" points="531.5,-272 425.5,-272 425.5,-253 531.5,-253 531.5,-272"/>
<text text-anchor="middle" x="478.5" y="-260" font-family="Helvetica,sans-Serif" font-size="10.00">GeoJsonExporter.h</text>
</a>
</g>
</g>
<!-- Node1&#45;&gt;Node2 -->
<g id="edge1_Node000001_Node000002" class="edge">
<title>Node1&#45;&gt;Node2</title>
<g id="a_edge1_Node000001_Node000002"><a xlink:title=" ">
<path fill="none" stroke="#63b8ff" d="M540.5,-373.85C524.83,-364.97 508.44,-353.04 497.5,-338 485.62,-321.67 481.15,-298.62 479.47,-282.5"/>
<polygon fill="#63b8ff" stroke="#63b8ff" points="482.94,-281.89 478.68,-272.18 475.96,-282.42 482.94,-281.89"/>
</a>
</g>
</g>
<!-- Node15 -->
<g id="Node000015" class="node">
<title>Node15</title>
<g id="a_Node000015"><a xlink:title=" ">
<polygon fill="#e0e0e0" stroke="#999999" points="55,-145.5 0,-145.5 0,-126.5 55,-126.5 55,-145.5"/>
<text text-anchor="middle" x="27.5" y="-133.5" font-family="Helvetica,sans-Serif" font-size="10.00">fstream</text>
</a>
</g>
</g>
<!-- Node1&#45;&gt;Node15 -->
<g id="edge32_Node000001_Node000015" class="edge">
<title>Node1&#45;&gt;Node15</title>
<g id="a_edge32_Node000001_Node000015"><a xlink:title=" ">
<path fill="none" stroke="#63b8ff" d="M518.78,-373.98C428.05,-346.01 262.24,-289.79 132.5,-217 99.1,-198.26 64.56,-169.89 44.6,-152.46"/>
<polygon fill="#63b8ff" stroke="#63b8ff" points="46.79,-149.72 36.99,-145.71 42.15,-154.96 46.79,-149.72"/>
</a>
</g>
</g>
<!-- Node18 -->
<g id="Node000018" class="node">
<title>Node18</title>
<g id="a_Node000018"><a xlink:href="TopologyRepository_8h.html" target="_top" xlink:title="Singleton de stockage des données topologiques ferroviaires.">
<polygon fill="white" stroke="#666666" points="664,-338 507,-338 507,-308 664,-308 664,-338"/>
<text text-anchor="start" x="515" y="-326" font-family="Helvetica,sans-Serif" font-size="10.00">Modules/Stockages/Topology</text>
<text text-anchor="middle" x="585.5" y="-315" font-family="Helvetica,sans-Serif" font-size="10.00">Repository.h</text>
</a>
</g>
</g>
<!-- Node1&#45;&gt;Node18 -->
<g id="edge26_Node000001_Node000018" class="edge">
<title>Node1&#45;&gt;Node18</title>
<g id="a_edge26_Node000001_Node000018"><a xlink:title=" ">
<path fill="none" stroke="#63b8ff" d="M585.5,-373.77C585.5,-365.85 585.5,-356.63 585.5,-348.3"/>
<polygon fill="#63b8ff" stroke="#63b8ff" points="589,-348.04 585.5,-338.04 582,-348.04 589,-348.04"/>
</a>
</g>
</g>
<!-- Node21 -->
<g id="Node000021" class="node">
<title>Node21</title>
<g id="a_Node000021"><a xlink:title=" ">
<polygon fill="#e0e0e0" stroke="#999999" points="738.5,-332.5 682.5,-332.5 682.5,-313.5 738.5,-313.5 738.5,-332.5"/>
<text text-anchor="middle" x="710.5" y="-320.5" font-family="Helvetica,sans-Serif" font-size="10.00">iomanip</text>
</a>
</g>
</g>
<!-- Node1&#45;&gt;Node21 -->
<g id="edge33_Node000001_Node000021" class="edge">
<title>Node1&#45;&gt;Node21</title>
<g id="a_edge33_Node000001_Node000021"><a xlink:title=" ">
<path fill="none" stroke="#63b8ff" d="M620.65,-373.96C641.66,-362.28 667.79,-347.75 686.45,-337.37"/>
<polygon fill="#63b8ff" stroke="#63b8ff" points="688.17,-340.42 695.21,-332.5 684.77,-334.3 688.17,-340.42"/>
</a>
</g>
</g>
<!-- Node22 -->
<g id="Node000022" class="node">
<title>Node22</title>
<g id="a_Node000022"><a xlink:title=" ">
<polygon fill="#e0e0e0" stroke="#999999" points="822,-332.5 757,-332.5 757,-313.5 822,-313.5 822,-332.5"/>
<text text-anchor="middle" x="789.5" y="-320.5" font-family="Helvetica,sans-Serif" font-size="10.00">stdexcept</text>
</a>
</g>
</g>
<!-- Node1&#45;&gt;Node22 -->
<g id="edge34_Node000001_Node000022" class="edge">
<title>Node1&#45;&gt;Node22</title>
<g id="a_edge34_Node000001_Node000022"><a xlink:title=" ">
<path fill="none" stroke="#63b8ff" d="M642.87,-373.96C678.87,-361.69 724.1,-346.28 754.74,-335.84"/>
<polygon fill="#63b8ff" stroke="#63b8ff" points="756.2,-339.04 764.54,-332.5 753.95,-332.42 756.2,-339.04"/>
</a>
</g>
</g>
<!-- Node3 -->
<g id="Node000003" class="node">
<title>Node3</title>
<g id="a_Node000003"><a xlink:title=" ">
<polygon fill="#e0e0e0" stroke="#999999" points="471.5,-19 427.5,-19 427.5,0 471.5,0 471.5,-19"/>
<text text-anchor="middle" x="449.5" y="-7" font-family="Helvetica,sans-Serif" font-size="10.00">string</text>
</a>
</g>
</g>
<!-- Node2&#45;&gt;Node3 -->
<g id="edge2_Node000002_Node000003" class="edge">
<title>Node2&#45;&gt;Node3</title>
<g id="a_edge2_Node000002_Node000003"><a xlink:title=" ">
<path fill="none" stroke="#63b8ff" d="M425.24,-255.4C378.54,-248.82 315.79,-236.58 300.5,-217 272.33,-180.92 387.26,-68.06 432.19,-26.27"/>
<polygon fill="#63b8ff" stroke="#63b8ff" points="434.74,-28.68 439.71,-19.33 429.99,-23.54 434.74,-28.68"/>
</a>
</g>
</g>
<!-- Node4 -->
<g id="Node000004" class="node">
<title>Node4</title>
<g id="a_Node000004"><a xlink:title=" ">
<polygon fill="#e0e0e0" stroke="#999999" points="736,-145.5 689,-145.5 689,-126.5 736,-126.5 736,-145.5"/>
<text text-anchor="middle" x="712.5" y="-133.5" font-family="Helvetica,sans-Serif" font-size="10.00">vector</text>
</a>
</g>
</g>
<!-- Node2&#45;&gt;Node4 -->
<g id="edge3_Node000002_Node000004" class="edge">
<title>Node2&#45;&gt;Node4</title>
<g id="a_edge3_Node000002_Node000004"><a xlink:title=" ">
<path fill="none" stroke="#63b8ff" d="M531.7,-260.68C573.06,-257.51 629.89,-247.32 669.5,-217 689.71,-201.53 701.53,-173.76 707.5,-155.36"/>
<polygon fill="#63b8ff" stroke="#63b8ff" points="710.93,-156.12 710.43,-145.53 704.22,-154.12 710.93,-156.12"/>
</a>
</g>
</g>
<!-- Node5 -->
<g id="Node000005" class="node">
<title>Node5</title>
<g id="a_Node000005"><a xlink:href="StraightBlock_8h.html" target="_top" xlink:title="Modèle de domaine d&#39;un bloc de voie droite (Straight).">
<polygon fill="white" stroke="#666666" points="901,-217 716,-217 716,-187 901,-187 901,-217"/>
<text text-anchor="start" x="724" y="-205" font-family="Helvetica,sans-Serif" font-size="10.00">Modules/InteractiveElements</text>
<text text-anchor="middle" x="808.5" y="-194" font-family="Helvetica,sans-Serif" font-size="10.00">/ShuntingElements/StraightBlock.h</text>
</a>
</g>
</g>
<!-- Node2&#45;&gt;Node5 -->
<g id="edge4_Node000002_Node000005" class="edge">
<title>Node2&#45;&gt;Node5</title>
<g id="a_edge4_Node000002_Node000005"><a xlink:title=" ">
<path fill="none" stroke="#63b8ff" d="M526.48,-252.99C576.86,-244.06 657.22,-229.82 719.29,-218.81"/>
<polygon fill="#63b8ff" stroke="#63b8ff" points="720.25,-222.2 729.48,-217.01 719.02,-215.31 720.25,-222.2"/>
</a>
</g>
</g>
<!-- Node10 -->
<g id="Node000010" class="node">
<title>Node10</title>
<g id="a_Node000010"><a xlink:href="SwitchBlock_8h.html" target="_top" xlink:title="Modèle de domaine d&#39;un aiguillage ferroviaire à 3 branches (Switch).">
<polygon fill="white" stroke="#666666" points="660,-217 481,-217 481,-187 660,-187 660,-217"/>
<text text-anchor="start" x="489" y="-205" font-family="Helvetica,sans-Serif" font-size="10.00">Modules/InteractiveElements</text>
<text text-anchor="middle" x="570.5" y="-194" font-family="Helvetica,sans-Serif" font-size="10.00">/ShuntingElements/SwitchBlock.h</text>
</a>
</g>
</g>
<!-- Node2&#45;&gt;Node10 -->
<g id="edge12_Node000002_Node000010" class="edge">
<title>Node2&#45;&gt;Node10</title>
<g id="a_edge12_Node000002_Node000010"><a xlink:title=" ">
<path fill="none" stroke="#63b8ff" d="M492.07,-252.87C504.56,-244.93 523.52,-232.87 539.68,-222.6"/>
<polygon fill="#63b8ff" stroke="#63b8ff" points="541.74,-225.43 548.3,-217.11 537.99,-219.53 541.74,-225.43"/>
</a>
</g>
</g>
<!-- Node12 -->
<g id="Node000012" class="node">
<title>Node12</title>
<g id="a_Node000012"><a xlink:href="Logger_8h.html" target="_top" xlink:title="Système de journalisation à 5 niveaux de trace, un fichier par moteur.">
<polygon fill="white" stroke="#666666" points="253,-217 142,-217 142,-187 253,-187 253,-217"/>
<text text-anchor="start" x="150" y="-205" font-family="Helvetica,sans-Serif" font-size="10.00">Engine/Core/Logger</text>
<text text-anchor="middle" x="197.5" y="-194" font-family="Helvetica,sans-Serif" font-size="10.00">/Logger.h</text>
</a>
</g>
</g>
<!-- Node2&#45;&gt;Node12 -->
<g id="edge18_Node000002_Node000012" class="edge">
<title>Node2&#45;&gt;Node12</title>
<g id="a_edge18_Node000002_Node000012"><a xlink:title=" ">
<path fill="none" stroke="#63b8ff" d="M437.64,-252.99C391.86,-243.46 316.99,-227.88 263.01,-216.64"/>
<polygon fill="#63b8ff" stroke="#63b8ff" points="263.69,-213.21 253.19,-214.59 262.26,-220.06 263.69,-213.21"/>
</a>
</g>
</g>
<!-- Node17 -->
<g id="Node000017" class="node">
<title>Node17</title>
<g id="a_Node000017"><a xlink:title=" ">
<polygon fill="#e0e0e0" stroke="#999999" points="463,-211.5 310,-211.5 310,-192.5 463,-192.5 463,-211.5"/>
<text text-anchor="middle" x="386.5" y="-199.5" font-family="Helvetica,sans-Serif" font-size="10.00">External/nlohmann/json.hpp</text>
</a>
</g>
</g>
<!-- Node2&#45;&gt;Node17 -->
<g id="edge25_Node000002_Node000017" class="edge">
<title>Node2&#45;&gt;Node17</title>
<g id="a_edge25_Node000002_Node000017"><a xlink:title=" ">
<path fill="none" stroke="#63b8ff" d="M464.93,-252.87C450.11,-243.45 426.17,-228.23 408.64,-217.08"/>
<polygon fill="#63b8ff" stroke="#63b8ff" points="410.45,-214.08 400.13,-211.67 406.69,-219.99 410.45,-214.08"/>
</a>
</g>
</g>
<!-- Node5&#45;&gt;Node3 -->
<g id="edge6_Node000005_Node000003" class="edge">
<title>Node5&#45;&gt;Node3</title>
<g id="a_edge6_Node000005_Node000003"><a xlink:title=" ">
<path fill="none" stroke="#63b8ff" d="M836.55,-186.95C850.07,-178.54 864.96,-166.46 872.5,-151 878.35,-139.02 879.16,-132.55 872.5,-121 843.26,-70.28 813.81,-74.19 758.5,-55 661.57,-21.37 539.03,-13.15 481.76,-11.14"/>
<polygon fill="#63b8ff" stroke="#63b8ff" points="481.62,-7.63 471.52,-10.83 481.41,-14.63 481.62,-7.63"/>
</a>
</g>
</g>
<!-- Node5&#45;&gt;Node4 -->
<g id="edge7_Node000005_Node000004" class="edge">
<title>Node5&#45;&gt;Node4</title>
<g id="a_edge7_Node000005_Node000004"><a xlink:title=" ">
<path fill="none" stroke="#63b8ff" d="M787.19,-186.8C771.4,-176.27 749.96,-161.97 734.1,-151.4"/>
<polygon fill="#63b8ff" stroke="#63b8ff" points="735.75,-148.29 725.49,-145.66 731.87,-154.12 735.75,-148.29"/>
</a>
</g>
</g>
<!-- Node6 -->
<g id="Node000006" class="node">
<title>Node6</title>
<g id="a_Node000006"><a xlink:title=" ">
<polygon fill="#e0e0e0" stroke="#999999" points="421.5,-145.5 365.5,-145.5 365.5,-126.5 421.5,-126.5 421.5,-145.5"/>
<text text-anchor="middle" x="393.5" y="-133.5" font-family="Helvetica,sans-Serif" font-size="10.00">sstream</text>
</a>
</g>
</g>
<!-- Node5&#45;&gt;Node6 -->
<g id="edge5_Node000005_Node000006" class="edge">
<title>Node5&#45;&gt;Node6</title>
<g id="a_edge5_Node000005_Node000006"><a xlink:title=" ">
<path fill="none" stroke="#63b8ff" d="M715.99,-188.38C647.54,-178.8 552.07,-164.94 468.5,-151 456.47,-148.99 443.4,-146.62 431.59,-144.4"/>
<polygon fill="#63b8ff" stroke="#63b8ff" points="432.07,-140.93 421.59,-142.51 430.76,-147.81 432.07,-140.93"/>
</a>
</g>
</g>
<!-- Node7 -->
<g id="Node000007" class="node">
<title>Node7</title>
<g id="a_Node000007"><a xlink:href="ShuntingElement_8h.html" target="_top" xlink:title="Interface abstraite pour tous les éléments de shuntage ferroviaire.">
<polygon fill="white" stroke="#666666" points="863,-145.5 754,-145.5 754,-126.5 863,-126.5 863,-145.5"/>
<text text-anchor="middle" x="808.5" y="-133.5" font-family="Helvetica,sans-Serif" font-size="10.00">ShuntingElement.h</text>
</a>
</g>
</g>
<!-- Node5&#45;&gt;Node7 -->
<g id="edge8_Node000005_Node000007" class="edge">
<title>Node5&#45;&gt;Node7</title>
<g id="a_edge8_Node000005_Node000007"><a xlink:title=" ">
<path fill="none" stroke="#63b8ff" d="M808.5,-186.8C808.5,-177.7 808.5,-165.79 808.5,-155.9"/>
<polygon fill="#63b8ff" stroke="#63b8ff" points="812,-155.84 808.5,-145.84 805,-155.84 812,-155.84"/>
</a>
</g>
</g>
<!-- Node9 -->
<g id="Node000009" class="node">
<title>Node9</title>
<g id="a_Node000009"><a xlink:href="LatLon_8h.html" target="_top" xlink:title="Représentation d&#39;une coordonnée géographique WGS&#45;84 (latitude, longitude).">
<polygon fill="white" stroke="#666666" points="671,-151 552,-151 552,-121 671,-121 671,-151"/>
<text text-anchor="start" x="560" y="-139" font-family="Helvetica,sans-Serif" font-size="10.00">Modules/Coordinates</text>
<text text-anchor="middle" x="611.5" y="-128" font-family="Helvetica,sans-Serif" font-size="10.00">/LatLon.h</text>
</a>
</g>
</g>
<!-- Node5&#45;&gt;Node9 -->
<g id="edge11_Node000005_Node000009" class="edge">
<title>Node5&#45;&gt;Node9</title>
<g id="a_edge11_Node000005_Node000009"><a xlink:title=" ">
<path fill="none" stroke="#63b8ff" d="M765.27,-186.95C735.5,-177.28 695.78,-164.38 664.16,-154.11"/>
<polygon fill="#63b8ff" stroke="#63b8ff" points="665.22,-150.77 654.63,-151.01 663.06,-157.43 665.22,-150.77"/>
</a>
</g>
</g>
<!-- Node8 -->
<g id="Node000008" class="node">
<title>Node8</title>
<g id="a_Node000008"><a xlink:href="InteractiveElement_8h.html" target="_top" xlink:title="Classe de base abstraite pour tous les éléments interactifs ferroviaires.">
<polygon fill="white" stroke="#666666" points="750,-85 591,-85 591,-55 750,-55 750,-85"/>
<text text-anchor="start" x="599" y="-73" font-family="Helvetica,sans-Serif" font-size="10.00">Modules/InteractiveElements</text>
<text text-anchor="middle" x="670.5" y="-62" font-family="Helvetica,sans-Serif" font-size="10.00">/InteractiveElement.h</text>
</a>
</g>
</g>
<!-- Node7&#45;&gt;Node8 -->
<g id="edge9_Node000007_Node000008" class="edge">
<title>Node7&#45;&gt;Node8</title>
<g id="a_edge9_Node000007_Node000008"><a xlink:title=" ">
<path fill="none" stroke="#63b8ff" d="M789.89,-126.37C769.58,-116.95 736.45,-101.59 710.24,-89.43"/>
<polygon fill="#63b8ff" stroke="#63b8ff" points="711.48,-86.15 700.94,-85.12 708.54,-92.5 711.48,-86.15"/>
</a>
</g>
</g>
<!-- Node8&#45;&gt;Node3 -->
<g id="edge10_Node000008_Node000003" class="edge">
<title>Node8&#45;&gt;Node3</title>
<g id="a_edge10_Node000008_Node000003"><a xlink:title=" ">
<path fill="none" stroke="#63b8ff" d="M617.56,-54.99C575.14,-43.76 517.02,-28.37 481.42,-18.95"/>
<polygon fill="#63b8ff" stroke="#63b8ff" points="482.14,-15.52 471.58,-16.34 480.35,-22.29 482.14,-15.52"/>
</a>
</g>
</g>
<!-- Node10&#45;&gt;Node3 -->
<g id="edge15_Node000010_Node000003" class="edge">
<title>Node10&#45;&gt;Node3</title>
<g id="a_edge15_Node000010_Node000003"><a xlink:title=" ">
<path fill="none" stroke="#63b8ff" d="M518.81,-186.97C500.13,-179.33 480.67,-167.88 468.5,-151 442.06,-114.34 443.78,-57.98 446.86,-29.05"/>
<polygon fill="#63b8ff" stroke="#63b8ff" points="450.34,-29.44 448.1,-19.09 443.39,-28.58 450.34,-29.44"/>
</a>
</g>
</g>
<!-- Node10&#45;&gt;Node4 -->
<g id="edge16_Node000010_Node000004" class="edge">
<title>Node10&#45;&gt;Node4</title>
<g id="a_edge16_Node000010_Node000004"><a xlink:title=" ">
<path fill="none" stroke="#63b8ff" d="M601.66,-186.95C626.35,-175.83 660.53,-160.42 684.38,-149.67"/>
<polygon fill="#63b8ff" stroke="#63b8ff" points="685.92,-152.82 693.6,-145.52 683.05,-146.44 685.92,-152.82"/>
</a>
</g>
</g>
<!-- Node10&#45;&gt;Node6 -->
<g id="edge14_Node000010_Node000006" class="edge">
<title>Node10&#45;&gt;Node6</title>
<g id="a_edge14_Node000010_Node000006"><a xlink:title=" ">
<path fill="none" stroke="#63b8ff" d="M531.66,-186.95C500.21,-175.58 456.38,-159.74 426.59,-148.96"/>
<polygon fill="#63b8ff" stroke="#63b8ff" points="427.65,-145.63 417.06,-145.52 425.27,-152.21 427.65,-145.63"/>
</a>
</g>
</g>
<!-- Node10&#45;&gt;Node9 -->
<g id="edge17_Node000010_Node000009" class="edge">
<title>Node10&#45;&gt;Node9</title>
<g id="a_edge17_Node000010_Node000009"><a xlink:title=" ">
<path fill="none" stroke="#63b8ff" d="M579.6,-186.8C584.7,-178.84 591.17,-168.74 596.95,-159.71"/>
<polygon fill="#63b8ff" stroke="#63b8ff" points="599.98,-161.47 602.43,-151.16 594.08,-157.7 599.98,-161.47"/>
</a>
</g>
</g>
<!-- Node11 -->
<g id="Node000011" class="node">
<title>Node11</title>
<g id="a_Node000011"><a xlink:title=" ">
<polygon fill="#e0e0e0" stroke="#999999" points="533.5,-145.5 477.5,-145.5 477.5,-126.5 533.5,-126.5 533.5,-145.5"/>
<text text-anchor="middle" x="505.5" y="-133.5" font-family="Helvetica,sans-Serif" font-size="10.00">optional</text>
</a>
</g>
</g>
<!-- Node10&#45;&gt;Node11 -->
<g id="edge13_Node000010_Node000011" class="edge">
<title>Node10&#45;&gt;Node11</title>
<g id="a_edge13_Node000010_Node000011"><a xlink:title=" ">
<path fill="none" stroke="#63b8ff" d="M556.07,-186.8C545.94,-176.82 532.37,-163.46 521.84,-153.09"/>
<polygon fill="#63b8ff" stroke="#63b8ff" points="524.06,-150.37 514.48,-145.84 519.15,-155.35 524.06,-150.37"/>
</a>
</g>
</g>
<!-- Node12&#45;&gt;Node3 -->
<g id="edge24_Node000012_Node000003" class="edge">
<title>Node12&#45;&gt;Node3</title>
<g id="a_edge24_Node000012_Node000003"><a xlink:title=" ">
<path fill="none" stroke="#63b8ff" d="M184.98,-186.79C171.81,-170.04 154.78,-141.86 168.5,-121 224.07,-36.51 355.46,-16.61 416.84,-11.93"/>
<polygon fill="#63b8ff" stroke="#63b8ff" points="417.37,-15.4 427.11,-11.24 416.9,-8.42 417.37,-15.4"/>
</a>
</g>
</g>
<!-- Node12&#45;&gt;Node6 -->
<g id="edge23_Node000012_Node000006" class="edge">
<title>Node12&#45;&gt;Node6</title>
<g id="a_edge23_Node000012_Node000006"><a xlink:title=" ">
<path fill="none" stroke="#63b8ff" d="M240.51,-186.95C275.64,-175.48 324.71,-159.46 357.72,-148.68"/>
<polygon fill="#63b8ff" stroke="#63b8ff" points="359,-151.95 367.42,-145.52 356.82,-145.29 359,-151.95"/>
</a>
</g>
</g>
<!-- Node13 -->
<g id="Node000013" class="node">
<title>Node13</title>
<g id="a_Node000013"><a xlink:title=" ">
<polygon fill="#e0e0e0" stroke="#999999" points="221.5,-145.5 177.5,-145.5 177.5,-126.5 221.5,-126.5 221.5,-145.5"/>
<text text-anchor="middle" x="199.5" y="-133.5" font-family="Helvetica,sans-Serif" font-size="10.00">ctime</text>
</a>
</g>
</g>
<!-- Node12&#45;&gt;Node13 -->
<g id="edge19_Node000012_Node000013" class="edge">
<title>Node12&#45;&gt;Node13</title>
<g id="a_edge19_Node000012_Node000013"><a xlink:title=" ">
<path fill="none" stroke="#63b8ff" d="M197.94,-186.8C198.23,-177.7 198.6,-165.79 198.91,-155.9"/>
<polygon fill="#63b8ff" stroke="#63b8ff" points="202.41,-155.95 199.22,-145.84 195.41,-155.73 202.41,-155.95"/>
</a>
</g>
</g>
<!-- Node14 -->
<g id="Node000014" class="node">
<title>Node14</title>
<g id="a_Node000014"><a xlink:title=" ">
<polygon fill="#e0e0e0" stroke="#999999" points="307.5,-145.5 239.5,-145.5 239.5,-126.5 307.5,-126.5 307.5,-145.5"/>
<text text-anchor="middle" x="273.5" y="-133.5" font-family="Helvetica,sans-Serif" font-size="10.00">filesystem</text>
</a>
</g>
</g>
<!-- Node12&#45;&gt;Node14 -->
<g id="edge20_Node000012_Node000014" class="edge">
<title>Node12&#45;&gt;Node14</title>
<g id="a_edge20_Node000012_Node000014"><a xlink:title=" ">
<path fill="none" stroke="#63b8ff" d="M214.37,-186.8C226.45,-176.62 242.71,-162.93 255.12,-152.48"/>
<polygon fill="#63b8ff" stroke="#63b8ff" points="257.6,-154.96 263,-145.84 253.09,-149.61 257.6,-154.96"/>
</a>
</g>
</g>
<!-- Node12&#45;&gt;Node15 -->
<g id="edge21_Node000012_Node000015" class="edge">
<title>Node12&#45;&gt;Node15</title>
<g id="a_edge21_Node000012_Node000015"><a xlink:title=" ">
<path fill="none" stroke="#63b8ff" d="M159.94,-186.9C133.3,-176.9 96.7,-163.14 64.5,-151 62.91,-150.4 61.28,-149.79 59.64,-149.16"/>
<polygon fill="#63b8ff" stroke="#63b8ff" points="60.79,-145.86 50.2,-145.6 58.31,-152.41 60.79,-145.86"/>
</a>
</g>
</g>
<!-- Node16 -->
<g id="Node000016" class="node">
<title>Node16</title>
<g id="a_Node000016"><a xlink:title=" ">
<polygon fill="#e0e0e0" stroke="#999999" points="121.5,-145.5 73.5,-145.5 73.5,-126.5 121.5,-126.5 121.5,-145.5"/>
<text text-anchor="middle" x="97.5" y="-133.5" font-family="Helvetica,sans-Serif" font-size="10.00">mutex</text>
</a>
</g>
</g>
<!-- Node12&#45;&gt;Node16 -->
<g id="edge22_Node000012_Node000016" class="edge">
<title>Node12&#45;&gt;Node16</title>
<g id="a_edge22_Node000012_Node000016"><a xlink:title=" ">
<path fill="none" stroke="#63b8ff" d="M175.31,-186.8C158.7,-176.17 136.1,-161.7 119.53,-151.1"/>
<polygon fill="#63b8ff" stroke="#63b8ff" points="121.34,-148.1 111.03,-145.66 117.56,-154 121.34,-148.1"/>
</a>
</g>
</g>
<!-- Node19 -->
<g id="Node000019" class="node">
<title>Node19</title>
<g id="a_Node000019"><a xlink:href="TopologyData_8h.html" target="_top" xlink:title="Conteneur central des données topologiques ferroviaires.">
<polygon fill="white" stroke="#666666" points="854.5,-272 762.5,-272 762.5,-253 854.5,-253 854.5,-272"/>
<text text-anchor="middle" x="808.5" y="-260" font-family="Helvetica,sans-Serif" font-size="10.00">TopologyData.h</text>
</a>
</g>
</g>
<!-- Node18&#45;&gt;Node19 -->
<g id="edge27_Node000018_Node000019" class="edge">
<title>Node18&#45;&gt;Node19</title>
<g id="a_edge27_Node000018_Node000019"><a xlink:title=" ">
<path fill="none" stroke="#63b8ff" d="M638.91,-307.99C677.9,-297.76 730.03,-284.09 766.15,-274.61"/>
<polygon fill="#63b8ff" stroke="#63b8ff" points="767.11,-277.98 775.89,-272.05 765.33,-271.21 767.11,-277.98"/>
</a>
</g>
</g>
<!-- Node19&#45;&gt;Node4 -->
<g id="edge29_Node000019_Node000004" class="edge">
<title>Node19&#45;&gt;Node4</title>
<g id="a_edge29_Node000019_Node000004"><a xlink:title=" ">
<path fill="none" stroke="#63b8ff" d="M854.58,-253.28C875.36,-247.02 898.01,-236.07 910.5,-217 917.8,-205.85 918.86,-197.38 910.5,-187 863.42,-128.54 817.03,-173.76 745.5,-151 743.87,-150.48 742.21,-149.91 740.54,-149.31"/>
<polygon fill="#63b8ff" stroke="#63b8ff" points="741.71,-146.01 731.12,-145.61 739.15,-152.52 741.71,-146.01"/>
</a>
</g>
</g>
<!-- Node19&#45;&gt;Node5 -->
<g id="edge30_Node000019_Node000005" class="edge">
<title>Node19&#45;&gt;Node5</title>
<g id="a_edge30_Node000019_Node000005"><a xlink:title=" ">
<path fill="none" stroke="#63b8ff" d="M808.5,-252.87C808.5,-246.11 808.5,-236.35 808.5,-227.26"/>
<polygon fill="#63b8ff" stroke="#63b8ff" points="812,-227.11 808.5,-217.11 805,-227.11 812,-227.11"/>
</a>
</g>
</g>
<!-- Node19&#45;&gt;Node10 -->
<g id="edge31_Node000019_Node000010" class="edge">
<title>Node19&#45;&gt;Node10</title>
<g id="a_edge31_Node000019_Node000010"><a xlink:title=" ">
<path fill="none" stroke="#63b8ff" d="M773.89,-252.99C738.29,-244.24 681.94,-230.39 637.57,-219.48"/>
<polygon fill="#63b8ff" stroke="#63b8ff" points="638.27,-216.05 627.72,-217.06 636.59,-222.85 638.27,-216.05"/>
</a>
</g>
</g>
<!-- Node20 -->
<g id="Node000020" class="node">
<title>Node20</title>
<g id="a_Node000020"><a xlink:title=" ">
<polygon fill="#e0e0e0" stroke="#999999" points="1014.5,-211.5 956.5,-211.5 956.5,-192.5 1014.5,-192.5 1014.5,-211.5"/>
<text text-anchor="middle" x="985.5" y="-199.5" font-family="Helvetica,sans-Serif" font-size="10.00">memory</text>
</a>
</g>
</g>
<!-- Node19&#45;&gt;Node20 -->
<g id="edge28_Node000019_Node000020" class="edge">
<title>Node19&#45;&gt;Node20</title>
<g id="a_edge28_Node000019_Node000020"><a xlink:title=" ">
<path fill="none" stroke="#63b8ff" d="M834.24,-252.99C864.78,-242.9 915.87,-226.01 950.12,-214.69"/>
<polygon fill="#63b8ff" stroke="#63b8ff" points="951.34,-217.98 959.73,-211.52 949.14,-211.33 951.34,-217.98"/>
</a>
</g>
</g>
</g>
</svg>
