<?xml version="1.0" encoding="UTF-8" standalone="no"?>
<!DOCTYPE svg PUBLIC "-//W3C//DTD SVG 1.1//EN"
 "http://www.w3.org/Graphics/SVG/1.1/DTD/svg11.dtd">
<!-- Generated by graphviz version 2.43.0 (0)
 -->
<!-- Title: SimulateurFerroviaire/Modules/GeoJsonExporter/GeoJsonExporter.h Pages: 1 -->
<svg width="535pt" height="126pt"
 viewBox="0.00 0.00 535.00 126.00" xmlns="http://www.w3.org/2000/svg" xmlns:xlink="http://www.w3.org/1999/xlink">
<g id="graph0" class="graph" transform="scale(1 1) rotate(0) translate(4 122)">
<title>SimulateurFerroviaire/Modules/GeoJsonExporter/GeoJsonExporter.h</title>
<!-- Node1 -->
<g id="Node000001" class="node">
<title>Node1</title>
<g id="a_Node000001"><a xlink:title="Exporteur de topologie ferroviaire au format GeoJSON.">
<polygon fill="#999999" stroke="#666666" points="324,-118 179,-118 179,-77 324,-77 324,-118"/>
<text text-anchor="start" x="187" y="-106" font-family="Helvetica,sans-Serif" font-size="10.00">SimulateurFerroviaire</text>
<text text-anchor="start" x="187" y="-95" font-family="Helvetica,sans-Serif" font-size="10.00">/Modules/GeoJsonExporter</text>
<text text-anchor="middle" x="251.5" y="-84" font-family="Helvetica,sans-Serif" font-size="10.00">/GeoJsonExporter.h</text>
</a>
</g>
</g>
<!-- Node2 -->
<g id="Node000002" class="node">
<title>Node2</title>
<g id="a_Node000002"><a xlink:href="MainWindow_8cpp.html" target="_top" xlink:title="Implémentation de la fenêtre principale.">
<polygon fill="white" stroke="#666666" points="161,-35.5 0,-35.5 0,-5.5 161,-5.5 161,-35.5"/>
<text text-anchor="start" x="8" y="-23.5" font-family="Helvetica,sans-Serif" font-size="10.00">SimulateurFerroviaire</text>
<text text-anchor="middle" x="80.5" y="-12.5" font-family="Helvetica,sans-Serif" font-size="10.00">/Engine/HMI/MainWindow.cpp</text>
</a>
</g>
</g>
<!-- Node1&#45;&gt;Node2 -->
<g id="edge1_Node000001_Node000002" class="edge">
<title>Node1&#45;&gt;Node2</title>
<g id="a_edge1_Node000001_Node000002"><a xlink:title=" ">
<path fill="none" stroke="#63b8ff" d="M197.76,-72.93C169.79,-60.66 136.55,-46.08 112.61,-35.58"/>
<polygon fill="#63b8ff" stroke="#63b8ff" points="196.45,-76.18 207.02,-76.99 199.27,-69.77 196.45,-76.18"/>
</a>
</g>
</g>
<!-- Node3 -->
<g id="Node000003" class="node">
<title>Node3</title>
<g id="a_Node000003"><a xlink:href="GeoJsonExporter_8cpp.html" target="_top" xlink:title="Implémentation de l&#39;exporteur GeoJSON.">
<polygon fill="white" stroke="#666666" points="324,-41 179,-41 179,0 324,0 324,-41"/>
<text text-anchor="start" x="187" y="-29" font-family="Helvetica,sans-Serif" font-size="10.00">SimulateurFerroviaire</text>
<text text-anchor="start" x="187" y="-18" font-family="Helvetica,sans-Serif" font-size="10.00">/Modules/GeoJsonExporter</text>
<text text-anchor="middle" x="251.5" y="-7" font-family="Helvetica,sans-Serif" font-size="10.00">/GeoJsonExporter.cpp</text>
</a>
</g>
</g>
<!-- Node1&#45;&gt;Node3 -->
<g id="edge2_Node000001_Node000003" class="edge">
<title>Node1&#45;&gt;Node3</title>
<g id="a_edge2_Node000001_Node000003"><a xlink:title=" ">
<path fill="none" stroke="#63b8ff" d="M251.5,-66.69C251.5,-58.08 251.5,-48.9 251.5,-41.07"/>
<polygon fill="#63b8ff" stroke="#63b8ff" points="248,-66.79 251.5,-76.79 255,-66.79 248,-66.79"/>
</a>
</g>
</g>
<!-- Node4 -->
<g id="Node000004" class="node">
<title>Node4</title>
<g id="a_Node000004"><a xlink:href="GeoParser_8cpp.html" target="_top" xlink:title="Implémentation du pipeline GeoParser.">
<polygon fill="white" stroke="#666666" points="527,-35.5 342,-35.5 342,-5.5 527,-5.5 527,-35.5"/>
<text text-anchor="start" x="350" y="-23.5" font-family="Helvetica,sans-Serif" font-size="10.00">SimulateurFerroviaire</text>
<text text-anchor="middle" x="434.5" y="-12.5" font-family="Helvetica,sans-Serif" font-size="10.00">/Modules/GeoParser/GeoParser.cpp</text>
</a>
</g>
</g>
<!-- Node1&#45;&gt;Node4 -->
<g id="edge3_Node000001_Node000004" class="edge">
<title>Node1&#45;&gt;Node4</title>
<g id="a_edge3_Node000001_Node000004"><a xlink:title=" ">
<path fill="none" stroke="#63b8ff" d="M308.62,-73.09C338.63,-60.79 374.41,-46.13 400.14,-35.58"/>
<polygon fill="#63b8ff" stroke="#63b8ff" points="307.03,-69.96 299.1,-76.99 309.68,-76.44 307.03,-69.96"/>
</a>
</g>
</g>
</g>
</svg>
