<?xml version="1.0" encoding="UTF-8" standalone="no"?>
<!DOCTYPE svg PUBLIC "-//W3C//DTD SVG 1.1//EN"
 "http://www.w3.org/Graphics/SVG/1.1/DTD/svg11.dtd">
<!-- Generated by graphviz version 2.43.0 (0)
 -->
<!-- Title: SimulateurFerroviaire/Modules/GeoJsonExporter/GeoJsonExporter.cpp Pages: 1 -->
<svg width="808pt" height="280pt"
 viewBox="0.00 0.00 808.11 280.00" xmlns="http://www.w3.org/2000/svg" xmlns:xlink="http://www.w3.org/1999/xlink">
<g id="graph0" class="graph" transform="scale(1 1) rotate(0) translate(4 276)">
<title>SimulateurFerroviaire/Modules/GeoJsonExporter/GeoJsonExporter.cpp</title>
<!-- Node1 -->
<g id="Node000001" class="node">
<title>Node1</title>
<g id="a_Node000001"><a xlink:title="Implémentation de l&#39;exporteur GeoJSON.">
<polygon fill="#999999" stroke="#666666" points="528,-272 383,-272 383,-231 528,-231 528,-272"/>
<text text-anchor="start" x="391" y="-260" font-family="Helvetica,sans-Serif" font-size="10.00">SimulateurFerroviaire</text>
<text text-anchor="start" x="391" y="-249" font-family="Helvetica,sans-Serif" font-size="10.00">/Modules/GeoJsonExporter</text>
<text text-anchor="middle" x="455.5" y="-238" font-family="Helvetica,sans-Serif" font-size="10.00">/GeoJsonExporter.cpp</text>
</a>
</g>
</g>
<!-- Node2 -->
<g id="Node000002" class="node">
<title>Node2</title>
<g id="a_Node000002"><a xlink:href="GeoJsonExporter_8h.html" target="_top" xlink:title="Exporteur de topologie ferroviaire au format GeoJSON.">
<polygon fill="white" stroke="#666666" points="378.5,-140 272.5,-140 272.5,-121 378.5,-121 378.5,-140"/>
<text text-anchor="middle" x="325.5" y="-128" font-family="Helvetica,sans-Serif" font-size="10.00">GeoJsonExporter.h</text>
</a>
</g>
</g>
<!-- Node1&#45;&gt;Node2 -->
<g id="edge1_Node000001_Node000002" class="edge">
<title>Node1&#45;&gt;Node2</title>
<g id="a_edge1_Node000001_Node000002"><a xlink:title=" ">
<path fill="none" stroke="#63b8ff" d="M394.93,-230.98C376.55,-222.47 357.74,-210.75 344.5,-195 333.97,-182.47 329.28,-164.27 327.18,-150.57"/>
<polygon fill="#63b8ff" stroke="#63b8ff" points="330.62,-149.85 325.97,-140.33 323.67,-150.67 330.62,-149.85"/>
</a>
</g>
</g>
<!-- Node13 -->
<g id="Node000013" class="node">
<title>Node13</title>
<g id="a_Node000013"><a xlink:title=" ">
<polygon fill="#e0e0e0" stroke="#999999" points="55,-19 0,-19 0,0 55,0 55,-19"/>
<text text-anchor="middle" x="27.5" y="-7" font-family="Helvetica,sans-Serif" font-size="10.00">fstream</text>
</a>
</g>
</g>
<!-- Node1&#45;&gt;Node13 -->
<g id="edge28_Node000001_Node000013" class="edge">
<title>Node1&#45;&gt;Node13</title>
<g id="a_edge28_Node000001_Node000013"><a xlink:title=" ">
<path fill="none" stroke="#63b8ff" d="M382.69,-241.2C290.72,-225.53 133.93,-185.09 46.5,-85 33.09,-69.64 28.92,-46.09 27.73,-29.59"/>
<polygon fill="#63b8ff" stroke="#63b8ff" points="31.23,-29.32 27.32,-19.48 24.23,-29.61 31.23,-29.32"/>
</a>
</g>
</g>
<!-- Node16 -->
<g id="Node000016" class="node">
<title>Node16</title>
<g id="a_Node000016"><a xlink:href="TopologyRepository_8h.html" target="_top" xlink:title="Singleton de stockage des données topologiques ferroviaires.">
<polygon fill="white" stroke="#666666" points="557,-195 354,-195 354,-176 557,-176 557,-195"/>
<text text-anchor="middle" x="455.5" y="-183" font-family="Helvetica,sans-Serif" font-size="10.00">Modules/Models/TopologyRepository.h</text>
</a>
</g>
</g>
<!-- Node1&#45;&gt;Node16 -->
<g id="edge23_Node000001_Node000016" class="edge">
<title>Node1&#45;&gt;Node16</title>
<g id="a_edge23_Node000001_Node000016"><a xlink:title=" ">
<path fill="none" stroke="#63b8ff" d="M455.5,-230.95C455.5,-222.85 455.5,-213.5 455.5,-205.47"/>
<polygon fill="#63b8ff" stroke="#63b8ff" points="459,-205.26 455.5,-195.26 452,-205.26 459,-205.26"/>
</a>
</g>
</g>
<!-- Node18 -->
<g id="Node000018" class="node">
<title>Node18</title>
<g id="a_Node000018"><a xlink:title=" ">
<polygon fill="#e0e0e0" stroke="#999999" points="630.5,-195 574.5,-195 574.5,-176 630.5,-176 630.5,-195"/>
<text text-anchor="middle" x="602.5" y="-183" font-family="Helvetica,sans-Serif" font-size="10.00">iomanip</text>
</a>
</g>
</g>
<!-- Node1&#45;&gt;Node18 -->
<g id="edge29_Node000001_Node000018" class="edge">
<title>Node1&#45;&gt;Node18</title>
<g id="a_edge29_Node000001_Node000018"><a xlink:title=" ">
<path fill="none" stroke="#63b8ff" d="M500.4,-230.95C524.17,-220.6 552.65,-208.2 573.49,-199.13"/>
<polygon fill="#63b8ff" stroke="#63b8ff" points="574.99,-202.29 582.77,-195.09 572.2,-195.87 574.99,-202.29"/>
</a>
</g>
</g>
<!-- Node19 -->
<g id="Node000019" class="node">
<title>Node19</title>
<g id="a_Node000019"><a xlink:title=" ">
<polygon fill="#e0e0e0" stroke="#999999" points="714,-195 649,-195 649,-176 714,-176 714,-195"/>
<text text-anchor="middle" x="681.5" y="-183" font-family="Helvetica,sans-Serif" font-size="10.00">stdexcept</text>
</a>
</g>
</g>
<!-- Node1&#45;&gt;Node19 -->
<g id="edge30_Node000001_Node000019" class="edge">
<title>Node1&#45;&gt;Node19</title>
<g id="a_edge30_Node000001_Node000019"><a xlink:title=" ">
<path fill="none" stroke="#63b8ff" d="M524.54,-230.95C562.84,-220.1 609.12,-207 641.47,-197.84"/>
<polygon fill="#63b8ff" stroke="#63b8ff" points="642.79,-201.1 651.46,-195.01 640.88,-194.37 642.79,-201.1"/>
</a>
</g>
</g>
<!-- Node3 -->
<g id="Node000003" class="node">
<title>Node3</title>
<g id="a_Node000003"><a xlink:title=" ">
<polygon fill="#e0e0e0" stroke="#999999" points="383.5,-19 339.5,-19 339.5,0 383.5,0 383.5,-19"/>
<text text-anchor="middle" x="361.5" y="-7" font-family="Helvetica,sans-Serif" font-size="10.00">string</text>
</a>
</g>
</g>
<!-- Node2&#45;&gt;Node3 -->
<g id="edge2_Node000002_Node000003" class="edge">
<title>Node2&#45;&gt;Node3</title>
<g id="a_edge2_Node000002_Node000003"><a xlink:title=" ">
<path fill="none" stroke="#63b8ff" d="M272.3,-121.46C250.61,-115.28 227.59,-104.35 214.5,-85 207.03,-73.96 206.55,-65.71 214.5,-55 228.19,-36.55 290.04,-22.78 329.02,-15.74"/>
<polygon fill="#63b8ff" stroke="#63b8ff" points="330.1,-19.11 339.35,-13.94 328.9,-12.21 330.1,-19.11"/>
</a>
</g>
</g>
<!-- Node4 -->
<g id="Node000004" class="node">
<title>Node4</title>
<g id="a_Node000004"><a xlink:title=" ">
<polygon fill="#e0e0e0" stroke="#999999" points="783,-19 736,-19 736,0 783,0 783,-19"/>
<text text-anchor="middle" x="759.5" y="-7" font-family="Helvetica,sans-Serif" font-size="10.00">vector</text>
</a>
</g>
</g>
<!-- Node2&#45;&gt;Node4 -->
<g id="edge3_Node000002_Node000004" class="edge">
<title>Node2&#45;&gt;Node4</title>
<g id="a_edge3_Node000002_Node000004"><a xlink:title=" ">
<path fill="none" stroke="#63b8ff" d="M378.83,-125.95C492.39,-118.14 748.81,-99.05 761.5,-85 775.02,-70.03 771.33,-45.68 766.38,-28.91"/>
<polygon fill="#63b8ff" stroke="#63b8ff" points="769.61,-27.53 763.12,-19.16 762.98,-29.76 769.61,-27.53"/>
</a>
</g>
</g>
<!-- Node5 -->
<g id="Node000005" class="node">
<title>Node5</title>
<g id="a_Node000005"><a xlink:href="StraightBlock_8h.html" target="_top" xlink:title="Modèle de domaine d&#39;un bloc de voie droite (Straight).">
<polygon fill="white" stroke="#666666" points="568,-79.5 395,-79.5 395,-60.5 568,-60.5 568,-79.5"/>
<text text-anchor="middle" x="481.5" y="-67.5" font-family="Helvetica,sans-Serif" font-size="10.00">Modules/Models/StraightBlock.h</text>
</a>
</g>
</g>
<!-- Node2&#45;&gt;Node5 -->
<g id="edge4_Node000002_Node000005" class="edge">
<title>Node2&#45;&gt;Node5</title>
<g id="a_edge4_Node000002_Node000005"><a xlink:title=" ">
<path fill="none" stroke="#63b8ff" d="M348.18,-120.99C374.76,-111.03 418.98,-94.45 449.14,-83.13"/>
<polygon fill="#63b8ff" stroke="#63b8ff" points="450.65,-86.31 458.79,-79.52 448.2,-79.75 450.65,-86.31"/>
</a>
</g>
</g>
<!-- Node8 -->
<g id="Node000008" class="node">
<title>Node8</title>
<g id="a_Node000008"><a xlink:href="SwitchBlock_8h.html" target="_top" xlink:title="Modèle de domaine d&#39;un aiguillage ferroviaire à 3 branches (Switch).">
<polygon fill="white" stroke="#666666" points="753,-79.5 586,-79.5 586,-60.5 753,-60.5 753,-79.5"/>
<text text-anchor="middle" x="669.5" y="-67.5" font-family="Helvetica,sans-Serif" font-size="10.00">Modules/Models/SwitchBlock.h</text>
</a>
</g>
</g>
<!-- Node2&#45;&gt;Node8 -->
<g id="edge9_Node000002_Node000008" class="edge">
<title>Node2&#45;&gt;Node8</title>
<g id="a_edge9_Node000002_Node000008"><a xlink:title=" ">
<path fill="none" stroke="#63b8ff" d="M375.52,-120.99C437.56,-110.44 543.21,-92.48 609.53,-81.2"/>
<polygon fill="#63b8ff" stroke="#63b8ff" points="610.15,-84.64 619.42,-79.52 608.97,-77.74 610.15,-84.64"/>
</a>
</g>
</g>
<!-- Node10 -->
<g id="Node000010" class="node">
<title>Node10</title>
<g id="a_Node000010"><a xlink:href="Logger_8h.html" target="_top" xlink:title="Système de journalisation à 5 niveaux de trace, un fichier par moteur.">
<polygon fill="white" stroke="#666666" points="167,-85 56,-85 56,-55 167,-55 167,-85"/>
<text text-anchor="start" x="64" y="-73" font-family="Helvetica,sans-Serif" font-size="10.00">Engine/Core/Logger</text>
<text text-anchor="middle" x="111.5" y="-62" font-family="Helvetica,sans-Serif" font-size="10.00">/Logger.h</text>
</a>
</g>
</g>
<!-- Node2&#45;&gt;Node10 -->
<g id="edge15_Node000002_Node000010" class="edge">
<title>Node2&#45;&gt;Node10</title>
<g id="a_edge15_Node000002_Node000010"><a xlink:title=" ">
<path fill="none" stroke="#63b8ff" d="M294.38,-120.99C262.64,-112.32 212.55,-98.62 172.81,-87.76"/>
<polygon fill="#63b8ff" stroke="#63b8ff" points="173.52,-84.33 162.95,-85.06 171.67,-91.08 173.52,-84.33"/>
</a>
</g>
</g>
<!-- Node15 -->
<g id="Node000015" class="node">
<title>Node15</title>
<g id="a_Node000015"><a xlink:title=" ">
<polygon fill="#e0e0e0" stroke="#999999" points="377,-79.5 224,-79.5 224,-60.5 377,-60.5 377,-79.5"/>
<text text-anchor="middle" x="300.5" y="-67.5" font-family="Helvetica,sans-Serif" font-size="10.00">External/nlohmann/json.hpp</text>
</a>
</g>
</g>
<!-- Node2&#45;&gt;Node15 -->
<g id="edge22_Node000002_Node000015" class="edge">
<title>Node2&#45;&gt;Node15</title>
<g id="a_edge22_Node000002_Node000015"><a xlink:title=" ">
<path fill="none" stroke="#63b8ff" d="M321.81,-120.87C318.23,-112.49 312.68,-99.51 308.15,-88.89"/>
<polygon fill="#63b8ff" stroke="#63b8ff" points="311.35,-87.49 304.2,-79.67 304.92,-90.24 311.35,-87.49"/>
</a>
</g>
</g>
<!-- Node5&#45;&gt;Node3 -->
<g id="edge6_Node000005_Node000003" class="edge">
<title>Node5&#45;&gt;Node3</title>
<g id="a_edge6_Node000005_Node000003"><a xlink:title=" ">
<path fill="none" stroke="#63b8ff" d="M464.05,-60.49C444.14,-50.79 411.36,-34.81 388.23,-23.53"/>
<polygon fill="#63b8ff" stroke="#63b8ff" points="389.49,-20.25 378.97,-19.02 386.43,-26.54 389.49,-20.25"/>
</a>
</g>
</g>
<!-- Node5&#45;&gt;Node4 -->
<g id="edge7_Node000005_Node000004" class="edge">
<title>Node5&#45;&gt;Node4</title>
<g id="a_edge7_Node000005_Node000004"><a xlink:title=" ">
<path fill="none" stroke="#63b8ff" d="M521.92,-60.49C577.01,-48.9 674.65,-28.35 725.92,-17.57"/>
<polygon fill="#63b8ff" stroke="#63b8ff" points="726.77,-20.97 735.83,-15.48 725.32,-14.12 726.77,-20.97"/>
</a>
</g>
</g>
<!-- Node6 -->
<g id="Node000006" class="node">
<title>Node6</title>
<g id="a_Node000006"><a xlink:title=" ">
<polygon fill="#e0e0e0" stroke="#999999" points="509.5,-19 453.5,-19 453.5,0 509.5,0 509.5,-19"/>
<text text-anchor="middle" x="481.5" y="-7" font-family="Helvetica,sans-Serif" font-size="10.00">sstream</text>
</a>
</g>
</g>
<!-- Node5&#45;&gt;Node6 -->
<g id="edge5_Node000005_Node000006" class="edge">
<title>Node5&#45;&gt;Node6</title>
<g id="a_edge5_Node000005_Node000006"><a xlink:title=" ">
<path fill="none" stroke="#63b8ff" d="M481.5,-60.37C481.5,-52.25 481.5,-39.81 481.5,-29.39"/>
<polygon fill="#63b8ff" stroke="#63b8ff" points="485,-29.17 481.5,-19.17 478,-29.17 485,-29.17"/>
</a>
</g>
</g>
<!-- Node7 -->
<g id="Node000007" class="node">
<title>Node7</title>
<g id="a_Node000007"><a xlink:href="LatLon_8h.html" target="_top" xlink:title="Représentation d&#39;une coordonnée géographique WGS&#45;84 (latitude, longitude).">
<polygon fill="white" stroke="#666666" points="604.5,-19 546.5,-19 546.5,0 604.5,0 604.5,-19"/>
<text text-anchor="middle" x="575.5" y="-7" font-family="Helvetica,sans-Serif" font-size="10.00">LatLon.h</text>
</a>
</g>
</g>
<!-- Node5&#45;&gt;Node7 -->
<g id="edge8_Node000005_Node000007" class="edge">
<title>Node5&#45;&gt;Node7</title>
<g id="a_edge8_Node000005_Node000007"><a xlink:title=" ">
<path fill="none" stroke="#63b8ff" d="M495.37,-60.37C510.5,-50.95 534.96,-35.73 552.88,-24.58"/>
<polygon fill="#63b8ff" stroke="#63b8ff" points="554.93,-27.42 561.57,-19.17 551.23,-21.48 554.93,-27.42"/>
</a>
</g>
</g>
<!-- Node8&#45;&gt;Node3 -->
<g id="edge12_Node000008_Node000003" class="edge">
<title>Node8&#45;&gt;Node3</title>
<g id="a_edge12_Node000008_Node000003"><a xlink:title=" ">
<path fill="none" stroke="#63b8ff" d="M624.71,-60.49C561.86,-48.56 449,-27.12 393.75,-16.63"/>
<polygon fill="#63b8ff" stroke="#63b8ff" points="394.29,-13.17 383.82,-14.74 392.99,-20.04 394.29,-13.17"/>
</a>
</g>
</g>
<!-- Node8&#45;&gt;Node4 -->
<g id="edge13_Node000008_Node000004" class="edge">
<title>Node8&#45;&gt;Node4</title>
<g id="a_edge13_Node000008_Node000004"><a xlink:title=" ">
<path fill="none" stroke="#63b8ff" d="M682.78,-60.37C697.14,-51.04 720.26,-36.01 737.37,-24.88"/>
<polygon fill="#63b8ff" stroke="#63b8ff" points="739.69,-27.55 746.17,-19.17 735.87,-21.68 739.69,-27.55"/>
</a>
</g>
</g>
<!-- Node8&#45;&gt;Node6 -->
<g id="edge11_Node000008_Node000006" class="edge">
<title>Node8&#45;&gt;Node6</title>
<g id="a_edge11_Node000008_Node000006"><a xlink:title=" ">
<path fill="none" stroke="#63b8ff" d="M642.16,-60.49C609.58,-50.36 554.99,-33.37 518.61,-22.05"/>
<polygon fill="#63b8ff" stroke="#63b8ff" points="519.46,-18.65 508.87,-19.02 517.38,-25.33 519.46,-18.65"/>
</a>
</g>
</g>
<!-- Node8&#45;&gt;Node7 -->
<g id="edge14_Node000008_Node000007" class="edge">
<title>Node8&#45;&gt;Node7</title>
<g id="a_edge14_Node000008_Node000007"><a xlink:title=" ">
<path fill="none" stroke="#63b8ff" d="M655.63,-60.37C640.5,-50.95 616.04,-35.73 598.12,-24.58"/>
<polygon fill="#63b8ff" stroke="#63b8ff" points="599.77,-21.48 589.43,-19.17 596.07,-27.42 599.77,-21.48"/>
</a>
</g>
</g>
<!-- Node9 -->
<g id="Node000009" class="node">
<title>Node9</title>
<g id="a_Node000009"><a xlink:title=" ">
<polygon fill="#e0e0e0" stroke="#999999" points="697.5,-19 641.5,-19 641.5,0 697.5,0 697.5,-19"/>
<text text-anchor="middle" x="669.5" y="-7" font-family="Helvetica,sans-Serif" font-size="10.00">optional</text>
</a>
</g>
</g>
<!-- Node8&#45;&gt;Node9 -->
<g id="edge10_Node000008_Node000009" class="edge">
<title>Node8&#45;&gt;Node9</title>
<g id="a_edge10_Node000008_Node000009"><a xlink:title=" ">
<path fill="none" stroke="#63b8ff" d="M669.5,-60.37C669.5,-52.25 669.5,-39.81 669.5,-29.39"/>
<polygon fill="#63b8ff" stroke="#63b8ff" points="673,-29.17 669.5,-19.17 666,-29.17 673,-29.17"/>
</a>
</g>
</g>
<!-- Node10&#45;&gt;Node3 -->
<g id="edge21_Node000010_Node000003" class="edge">
<title>Node10&#45;&gt;Node3</title>
<g id="a_edge21_Node000010_Node000003"><a xlink:title=" ">
<path fill="none" stroke="#63b8ff" d="M167.29,-55.94C217.2,-44.27 288.6,-27.56 329.48,-17.99"/>
<polygon fill="#63b8ff" stroke="#63b8ff" points="330.49,-21.35 339.43,-15.66 328.9,-14.53 330.49,-21.35"/>
</a>
</g>
</g>
<!-- Node10&#45;&gt;Node6 -->
<g id="edge20_Node000010_Node000006" class="edge">
<title>Node10&#45;&gt;Node6</title>
<g id="a_edge20_Node000010_Node000006"><a xlink:title=" ">
<path fill="none" stroke="#63b8ff" d="M167.29,-60.18C243.37,-48.15 377.67,-26.92 443.28,-16.54"/>
<polygon fill="#63b8ff" stroke="#63b8ff" points="443.87,-19.99 453.2,-14.98 442.77,-13.08 443.87,-19.99"/>
</a>
</g>
</g>
<!-- Node11 -->
<g id="Node000011" class="node">
<title>Node11</title>
<g id="a_Node000011"><a xlink:title=" ">
<polygon fill="#e0e0e0" stroke="#999999" points="269.5,-19 225.5,-19 225.5,0 269.5,0 269.5,-19"/>
<text text-anchor="middle" x="247.5" y="-7" font-family="Helvetica,sans-Serif" font-size="10.00">ctime</text>
</a>
</g>
</g>
<!-- Node10&#45;&gt;Node11 -->
<g id="edge16_Node000010_Node000011" class="edge">
<title>Node10&#45;&gt;Node11</title>
<g id="a_edge16_Node000010_Node000011"><a xlink:title=" ">
<path fill="none" stroke="#63b8ff" d="M144.08,-54.99C166.56,-45.31 196.22,-32.56 218.01,-23.18"/>
<polygon fill="#63b8ff" stroke="#63b8ff" points="219.61,-26.31 227.42,-19.14 216.85,-19.88 219.61,-26.31"/>
</a>
</g>
</g>
<!-- Node12 -->
<g id="Node000012" class="node">
<title>Node12</title>
<g id="a_Node000012"><a xlink:title=" ">
<polygon fill="#e0e0e0" stroke="#999999" points="141.5,-19 73.5,-19 73.5,0 141.5,0 141.5,-19"/>
<text text-anchor="middle" x="107.5" y="-7" font-family="Helvetica,sans-Serif" font-size="10.00">filesystem</text>
</a>
</g>
</g>
<!-- Node10&#45;&gt;Node12 -->
<g id="edge17_Node000010_Node000012" class="edge">
<title>Node10&#45;&gt;Node12</title>
<g id="a_edge17_Node000010_Node000012"><a xlink:title=" ">
<path fill="none" stroke="#63b8ff" d="M110.53,-54.84C110.01,-47.21 109.36,-37.7 108.8,-29.45"/>
<polygon fill="#63b8ff" stroke="#63b8ff" points="112.27,-29 108.1,-19.27 105.29,-29.48 112.27,-29"/>
</a>
</g>
</g>
<!-- Node10&#45;&gt;Node13 -->
<g id="edge18_Node000010_Node000013" class="edge">
<title>Node10&#45;&gt;Node13</title>
<g id="a_edge18_Node000010_Node000013"><a xlink:title=" ">
<path fill="none" stroke="#63b8ff" d="M91.17,-54.84C78.23,-45.83 61.51,-34.18 48.45,-25.09"/>
<polygon fill="#63b8ff" stroke="#63b8ff" points="50.29,-22.11 40.09,-19.27 46.29,-27.85 50.29,-22.11"/>
</a>
</g>
</g>
<!-- Node14 -->
<g id="Node000014" class="node">
<title>Node14</title>
<g id="a_Node000014"><a xlink:title=" ">
<polygon fill="#e0e0e0" stroke="#999999" points="207.5,-19 159.5,-19 159.5,0 207.5,0 207.5,-19"/>
<text text-anchor="middle" x="183.5" y="-7" font-family="Helvetica,sans-Serif" font-size="10.00">mutex</text>
</a>
</g>
</g>
<!-- Node10&#45;&gt;Node14 -->
<g id="edge19_Node000010_Node000014" class="edge">
<title>Node10&#45;&gt;Node14</title>
<g id="a_edge19_Node000010_Node000014"><a xlink:title=" ">
<path fill="none" stroke="#63b8ff" d="M128.93,-54.84C139.81,-46 153.8,-34.63 164.89,-25.62"/>
<polygon fill="#63b8ff" stroke="#63b8ff" points="167.16,-28.29 172.71,-19.27 162.74,-22.86 167.16,-28.29"/>
</a>
</g>
</g>
<!-- Node17 -->
<g id="Node000017" class="node">
<title>Node17</title>
<g id="a_Node000017"><a xlink:href="TopologyData_8h.html" target="_top" xlink:title="Conteneur central des données topologiques ferroviaires.">
<polygon fill="white" stroke="#666666" points="621.5,-140 529.5,-140 529.5,-121 621.5,-121 621.5,-140"/>
<text text-anchor="middle" x="575.5" y="-128" font-family="Helvetica,sans-Serif" font-size="10.00">TopologyData.h</text>
</a>
</g>
</g>
<!-- Node16&#45;&gt;Node17 -->
<g id="edge24_Node000016_Node000017" class="edge">
<title>Node16&#45;&gt;Node17</title>
<g id="a_edge24_Node000016_Node000017"><a xlink:title=" ">
<path fill="none" stroke="#63b8ff" d="M474.78,-175.98C494.17,-167.42 524.31,-154.11 546.57,-144.28"/>
<polygon fill="#63b8ff" stroke="#63b8ff" points="548.14,-147.41 555.87,-140.17 545.31,-141.01 548.14,-147.41"/>
</a>
</g>
</g>
<!-- Node17&#45;&gt;Node4 -->
<g id="edge25_Node000017_Node000004" class="edge">
<title>Node17&#45;&gt;Node4</title>
<g id="a_edge25_Node000017_Node000004"><a xlink:title=" ">
<path fill="none" stroke="#63b8ff" d="M621.94,-126.77C679.64,-122.3 773.14,-111.14 794.5,-85 808.98,-67.29 791.66,-42.59 776.65,-26.58"/>
<polygon fill="#63b8ff" stroke="#63b8ff" points="778.73,-23.7 769.2,-19.07 773.76,-28.63 778.73,-23.7"/>
</a>
</g>
</g>
<!-- Node17&#45;&gt;Node5 -->
<g id="edge26_Node000017_Node000005" class="edge">
<title>Node17&#45;&gt;Node5</title>
<g id="a_edge26_Node000017_Node000005"><a xlink:title=" ">
<path fill="none" stroke="#63b8ff" d="M561.63,-120.87C546.5,-111.45 522.04,-96.23 504.12,-85.08"/>
<polygon fill="#63b8ff" stroke="#63b8ff" points="505.77,-81.98 495.43,-79.67 502.07,-87.92 505.77,-81.98"/>
</a>
</g>
</g>
<!-- Node17&#45;&gt;Node8 -->
<g id="edge27_Node000017_Node000008" class="edge">
<title>Node17&#45;&gt;Node8</title>
<g id="a_edge27_Node000017_Node000008"><a xlink:title=" ">
<path fill="none" stroke="#63b8ff" d="M589.37,-120.87C604.5,-111.45 628.96,-96.23 646.88,-85.08"/>
<polygon fill="#63b8ff" stroke="#63b8ff" points="648.93,-87.92 655.57,-79.67 645.23,-81.98 648.93,-87.92"/>
</a>
</g>
</g>
</g>
</svg>
