<?xml version="1.0" encoding="UTF-8" standalone="no"?>
<!DOCTYPE svg PUBLIC "-//W3C//DTD SVG 1.1//EN"
 "http://www.w3.org/Graphics/SVG/1.1/DTD/svg11.dtd">
<!-- Generated by graphviz version 2.43.0 (0)
 -->
<!-- Title: SimulateurFerroviaire/Modules/GeoJsonExporter/GeoJsonExporter.h Pages: 1 -->
<svg width="882pt" height="302pt"
 viewBox="0.00 0.00 882.30 302.00" xmlns="http://www.w3.org/2000/svg" xmlns:xlink="http://www.w3.org/1999/xlink">
<g id="graph0" class="graph" transform="scale(1 1) rotate(0) translate(4 298)">
<title>SimulateurFerroviaire/Modules/GeoJsonExporter/GeoJsonExporter.h</title>
<!-- Node1 -->
<g id="Node000001" class="node">
<title>Node1</title>
<g id="a_Node000001"><a xlink:title="Exporteur de topologie ferroviaire au format GeoJSON.">
<polygon fill="#999999" stroke="#666666" points="384.3,-294 239.3,-294 239.3,-253 384.3,-253 384.3,-294"/>
<text text-anchor="start" x="247.3" y="-282" font-family="Helvetica,sans-Serif" font-size="10.00">SimulateurFerroviaire</text>
<text text-anchor="start" x="247.3" y="-271" font-family="Helvetica,sans-Serif" font-size="10.00">/Modules/GeoJsonExporter</text>
<text text-anchor="middle" x="311.8" y="-260" font-family="Helvetica,sans-Serif" font-size="10.00">/GeoJsonExporter.h</text>
</a>
</g>
</g>
<!-- Node2 -->
<g id="Node000002" class="node">
<title>Node2</title>
<g id="a_Node000002"><a xlink:title=" ">
<polygon fill="#e0e0e0" stroke="#999999" points="236.8,-19 192.8,-19 192.8,0 236.8,0 236.8,-19"/>
<text text-anchor="middle" x="214.8" y="-7" font-family="Helvetica,sans-Serif" font-size="10.00">string</text>
</a>
</g>
</g>
<!-- Node1&#45;&gt;Node2 -->
<g id="edge1_Node000001_Node000002" class="edge">
<title>Node1&#45;&gt;Node2</title>
<g id="a_edge1_Node000001_Node000002"><a xlink:title=" ">
<path fill="none" stroke="#63b8ff" d="M239.2,-270.67C160.46,-264.09 40.89,-239.25 2.8,-151 -8.17,-125.57 18.44,-55.36 18.8,-55 41.66,-32.47 132.91,-19.34 182.43,-13.73"/>
<polygon fill="#63b8ff" stroke="#63b8ff" points="183.06,-17.19 192.62,-12.62 182.3,-10.23 183.06,-17.19"/>
</a>
</g>
</g>
<!-- Node3 -->
<g id="Node000003" class="node">
<title>Node3</title>
<g id="a_Node000003"><a xlink:title=" ">
<polygon fill="#e0e0e0" stroke="#999999" points="59.3,-145.5 12.3,-145.5 12.3,-126.5 59.3,-126.5 59.3,-145.5"/>
<text text-anchor="middle" x="35.8" y="-133.5" font-family="Helvetica,sans-Serif" font-size="10.00">vector</text>
</a>
</g>
</g>
<!-- Node1&#45;&gt;Node3 -->
<g id="edge2_Node000001_Node000003" class="edge">
<title>Node1&#45;&gt;Node3</title>
<g id="a_edge2_Node000001_Node000003"><a xlink:title=" ">
<path fill="none" stroke="#63b8ff" d="M239.15,-262.35C199.14,-254.4 149.84,-240.59 110.8,-217 84.16,-200.9 60.95,-172.73 47.66,-154.48"/>
<polygon fill="#63b8ff" stroke="#63b8ff" points="50.28,-152.11 41.65,-145.96 44.56,-156.15 50.28,-152.11"/>
</a>
</g>
</g>
<!-- Node4 -->
<g id="Node000004" class="node">
<title>Node4</title>
<g id="a_Node000004"><a xlink:href="StraightBlock_8h.html" target="_top" xlink:title="Modèle de domaine d&#39;un bloc de voie droite (Straight).">
<polygon fill="white" stroke="#666666" points="304.3,-217 119.3,-217 119.3,-187 304.3,-187 304.3,-217"/>
<text text-anchor="start" x="127.3" y="-205" font-family="Helvetica,sans-Serif" font-size="10.00">Modules/InteractiveElements</text>
<text text-anchor="middle" x="211.8" y="-194" font-family="Helvetica,sans-Serif" font-size="10.00">/ShuntingElements/StraightBlock.h</text>
</a>
</g>
</g>
<!-- Node1&#45;&gt;Node4 -->
<g id="edge3_Node000001_Node000004" class="edge">
<title>Node1&#45;&gt;Node4</title>
<g id="a_edge3_Node000001_Node000004"><a xlink:title=" ">
<path fill="none" stroke="#63b8ff" d="M283.68,-252.96C270.22,-243.6 254.13,-232.42 240.58,-223.01"/>
<polygon fill="#63b8ff" stroke="#63b8ff" points="242.31,-219.95 232.11,-217.11 238.32,-225.69 242.31,-219.95"/>
</a>
</g>
</g>
<!-- Node9 -->
<g id="Node000009" class="node">
<title>Node9</title>
<g id="a_Node000009"><a xlink:href="SwitchBlock_8h.html" target="_top" xlink:title="Modèle de domaine d&#39;un aiguillage ferroviaire à 3 branches (Switch).">
<polygon fill="white" stroke="#666666" points="501.3,-217 322.3,-217 322.3,-187 501.3,-187 501.3,-217"/>
<text text-anchor="start" x="330.3" y="-205" font-family="Helvetica,sans-Serif" font-size="10.00">Modules/InteractiveElements</text>
<text text-anchor="middle" x="411.8" y="-194" font-family="Helvetica,sans-Serif" font-size="10.00">/ShuntingElements/SwitchBlock.h</text>
</a>
</g>
</g>
<!-- Node1&#45;&gt;Node9 -->
<g id="edge11_Node000001_Node000009" class="edge">
<title>Node1&#45;&gt;Node9</title>
<g id="a_edge11_Node000001_Node000009"><a xlink:title=" ">
<path fill="none" stroke="#63b8ff" d="M339.92,-252.96C353.38,-243.6 369.47,-232.42 383.02,-223.01"/>
<polygon fill="#63b8ff" stroke="#63b8ff" points="385.28,-225.69 391.49,-217.11 381.28,-219.95 385.28,-225.69"/>
</a>
</g>
</g>
<!-- Node11 -->
<g id="Node000011" class="node">
<title>Node11</title>
<g id="a_Node000011"><a xlink:href="Logger_8h.html" target="_top" xlink:title="Système de journalisation à 5 niveaux de trace, un fichier par moteur.">
<polygon fill="white" stroke="#666666" points="672.3,-217 561.3,-217 561.3,-187 672.3,-187 672.3,-217"/>
<text text-anchor="start" x="569.3" y="-205" font-family="Helvetica,sans-Serif" font-size="10.00">Engine/Core/Logger</text>
<text text-anchor="middle" x="616.8" y="-194" font-family="Helvetica,sans-Serif" font-size="10.00">/Logger.h</text>
</a>
</g>
</g>
<!-- Node1&#45;&gt;Node11 -->
<g id="edge17_Node000001_Node000011" class="edge">
<title>Node1&#45;&gt;Node11</title>
<g id="a_edge17_Node000001_Node000011"><a xlink:title=" ">
<path fill="none" stroke="#63b8ff" d="M384.47,-255.94C435.07,-244.41 502.01,-229.16 551.04,-217.99"/>
<polygon fill="#63b8ff" stroke="#63b8ff" points="551.93,-221.37 560.9,-215.74 550.38,-214.55 551.93,-221.37"/>
</a>
</g>
</g>
<!-- Node16 -->
<g id="Node000016" class="node">
<title>Node16</title>
<g id="a_Node000016"><a xlink:title=" ">
<polygon fill="#e0e0e0" stroke="#999999" points="843.3,-211.5 690.3,-211.5 690.3,-192.5 843.3,-192.5 843.3,-211.5"/>
<text text-anchor="middle" x="766.8" y="-199.5" font-family="Helvetica,sans-Serif" font-size="10.00">External/nlohmann/json.hpp</text>
</a>
</g>
</g>
<!-- Node1&#45;&gt;Node16 -->
<g id="edge24_Node000001_Node000016" class="edge">
<title>Node1&#45;&gt;Node16</title>
<g id="a_edge24_Node000001_Node000016"><a xlink:title=" ">
<path fill="none" stroke="#63b8ff" d="M384.51,-261.91C459.16,-250.96 578.65,-233.23 681.8,-217 689.49,-215.79 697.56,-214.49 705.55,-213.2"/>
<polygon fill="#63b8ff" stroke="#63b8ff" points="706.27,-216.62 715.58,-211.56 705.14,-209.72 706.27,-216.62"/>
</a>
</g>
</g>
<!-- Node4&#45;&gt;Node2 -->
<g id="edge5_Node000004_Node000002" class="edge">
<title>Node4&#45;&gt;Node2</title>
<g id="a_edge5_Node000004_Node000002"><a xlink:title=" ">
<path fill="none" stroke="#63b8ff" d="M212.02,-186.99C212.55,-153.35 213.89,-67.97 214.5,-29.64"/>
<polygon fill="#63b8ff" stroke="#63b8ff" points="218,-29.42 214.66,-19.36 211,-29.31 218,-29.42"/>
</a>
</g>
</g>
<!-- Node4&#45;&gt;Node3 -->
<g id="edge6_Node000004_Node000003" class="edge">
<title>Node4&#45;&gt;Node3</title>
<g id="a_edge6_Node000004_Node000003"><a xlink:title=" ">
<path fill="none" stroke="#63b8ff" d="M168.63,-186.99C139.86,-177.42 101.31,-164.13 67.8,-151 66.59,-150.53 65.36,-150.04 64.13,-149.53"/>
<polygon fill="#63b8ff" stroke="#63b8ff" points="65.22,-146.2 54.65,-145.54 62.5,-152.65 65.22,-146.2"/>
</a>
</g>
</g>
<!-- Node5 -->
<g id="Node000005" class="node">
<title>Node5</title>
<g id="a_Node000005"><a xlink:title=" ">
<polygon fill="#e0e0e0" stroke="#999999" points="510.8,-145.5 454.8,-145.5 454.8,-126.5 510.8,-126.5 510.8,-145.5"/>
<text text-anchor="middle" x="482.8" y="-133.5" font-family="Helvetica,sans-Serif" font-size="10.00">sstream</text>
</a>
</g>
</g>
<!-- Node4&#45;&gt;Node5 -->
<g id="edge4_Node000004_Node000005" class="edge">
<title>Node4&#45;&gt;Node5</title>
<g id="a_edge4_Node000004_Node000005"><a xlink:title=" ">
<path fill="none" stroke="#63b8ff" d="M291.88,-187C337.43,-178.26 395.29,-165.86 445.8,-151 447.94,-150.37 450.13,-149.67 452.33,-148.94"/>
<polygon fill="#63b8ff" stroke="#63b8ff" points="453.61,-152.2 461.86,-145.55 451.26,-145.61 453.61,-152.2"/>
</a>
</g>
</g>
<!-- Node6 -->
<g id="Node000006" class="node">
<title>Node6</title>
<g id="a_Node000006"><a xlink:href="ShuntingElement_8h.html" target="_top" xlink:title="Interface abstraite pour tous les éléments de shuntage ferroviaire.">
<polygon fill="white" stroke="#666666" points="186.3,-145.5 77.3,-145.5 77.3,-126.5 186.3,-126.5 186.3,-145.5"/>
<text text-anchor="middle" x="131.8" y="-133.5" font-family="Helvetica,sans-Serif" font-size="10.00">ShuntingElement.h</text>
</a>
</g>
</g>
<!-- Node4&#45;&gt;Node6 -->
<g id="edge7_Node000004_Node000006" class="edge">
<title>Node4&#45;&gt;Node6</title>
<g id="a_edge7_Node000004_Node000006"><a xlink:title=" ">
<path fill="none" stroke="#63b8ff" d="M194.04,-186.8C181.21,-176.53 163.88,-162.67 150.77,-152.18"/>
<polygon fill="#63b8ff" stroke="#63b8ff" points="152.85,-149.36 142.85,-145.84 148.48,-154.82 152.85,-149.36"/>
</a>
</g>
</g>
<!-- Node8 -->
<g id="Node000008" class="node">
<title>Node8</title>
<g id="a_Node000008"><a xlink:href="LatLon_8h.html" target="_top" xlink:title="Représentation d&#39;une coordonnée géographique WGS&#45;84 (latitude, longitude).">
<polygon fill="white" stroke="#666666" points="362.3,-151 243.3,-151 243.3,-121 362.3,-121 362.3,-151"/>
<text text-anchor="start" x="251.3" y="-139" font-family="Helvetica,sans-Serif" font-size="10.00">Modules/Coordinates</text>
<text text-anchor="middle" x="302.8" y="-128" font-family="Helvetica,sans-Serif" font-size="10.00">/LatLon.h</text>
</a>
</g>
</g>
<!-- Node4&#45;&gt;Node8 -->
<g id="edge10_Node000004_Node000008" class="edge">
<title>Node4&#45;&gt;Node8</title>
<g id="a_edge10_Node000004_Node000008"><a xlink:title=" ">
<path fill="none" stroke="#63b8ff" d="M232,-186.8C244.48,-178.01 260.7,-166.61 274.46,-156.93"/>
<polygon fill="#63b8ff" stroke="#63b8ff" points="276.49,-159.78 282.66,-151.16 272.47,-154.05 276.49,-159.78"/>
</a>
</g>
</g>
<!-- Node7 -->
<g id="Node000007" class="node">
<title>Node7</title>
<g id="a_Node000007"><a xlink:href="InteractiveElement_8h.html" target="_top" xlink:title="Classe de base abstraite pour tous les éléments interactifs ferroviaires.">
<polygon fill="white" stroke="#666666" points="187.3,-85 28.3,-85 28.3,-55 187.3,-55 187.3,-85"/>
<text text-anchor="start" x="36.3" y="-73" font-family="Helvetica,sans-Serif" font-size="10.00">Modules/InteractiveElements</text>
<text text-anchor="middle" x="107.8" y="-62" font-family="Helvetica,sans-Serif" font-size="10.00">/InteractiveElement.h</text>
</a>
</g>
</g>
<!-- Node6&#45;&gt;Node7 -->
<g id="edge8_Node000006_Node000007" class="edge">
<title>Node6&#45;&gt;Node7</title>
<g id="a_edge8_Node000006_Node000007"><a xlink:title=" ">
<path fill="none" stroke="#63b8ff" d="M128.56,-126.37C125.55,-118.32 120.9,-105.94 116.77,-94.93"/>
<polygon fill="#63b8ff" stroke="#63b8ff" points="119.97,-93.49 113.18,-85.36 113.42,-95.95 119.97,-93.49"/>
</a>
</g>
</g>
<!-- Node7&#45;&gt;Node2 -->
<g id="edge9_Node000007_Node000002" class="edge">
<title>Node7&#45;&gt;Node2</title>
<g id="a_edge9_Node000007_Node000002"><a xlink:title=" ">
<path fill="none" stroke="#63b8ff" d="M133.43,-54.99C150.64,-45.58 173.2,-33.24 190.2,-23.95"/>
<polygon fill="#63b8ff" stroke="#63b8ff" points="191.9,-27.01 199,-19.14 188.54,-20.87 191.9,-27.01"/>
</a>
</g>
</g>
<!-- Node9&#45;&gt;Node2 -->
<g id="edge14_Node000009_Node000002" class="edge">
<title>Node9&#45;&gt;Node2</title>
<g id="a_edge14_Node000009_Node000002"><a xlink:title=" ">
<path fill="none" stroke="#63b8ff" d="M459.77,-186.9C497.44,-173.25 540.37,-150.32 519.8,-121 456.54,-30.8 311.88,-13.93 247.15,-10.99"/>
<polygon fill="#63b8ff" stroke="#63b8ff" points="247.23,-7.49 237.11,-10.62 246.97,-14.48 247.23,-7.49"/>
</a>
</g>
</g>
<!-- Node9&#45;&gt;Node3 -->
<g id="edge15_Node000009_Node000003" class="edge">
<title>Node9&#45;&gt;Node3</title>
<g id="a_edge15_Node000009_Node000003"><a xlink:title=" ">
<path fill="none" stroke="#63b8ff" d="M322.18,-188.27C222.32,-174.04 73.94,-152.75 67.8,-151 66.12,-150.52 64.41,-149.97 62.69,-149.37"/>
<polygon fill="#63b8ff" stroke="#63b8ff" points="63.68,-146 53.09,-145.57 61.1,-152.5 63.68,-146"/>
</a>
</g>
</g>
<!-- Node9&#45;&gt;Node5 -->
<g id="edge13_Node000009_Node000005" class="edge">
<title>Node9&#45;&gt;Node5</title>
<g id="a_edge13_Node000009_Node000005"><a xlink:title=" ">
<path fill="none" stroke="#63b8ff" d="M427.56,-186.8C438.73,-176.72 453.74,-163.19 465.29,-152.78"/>
<polygon fill="#63b8ff" stroke="#63b8ff" points="467.9,-155.14 472.99,-145.84 463.22,-149.94 467.9,-155.14"/>
</a>
</g>
</g>
<!-- Node9&#45;&gt;Node8 -->
<g id="edge16_Node000009_Node000008" class="edge">
<title>Node9&#45;&gt;Node8</title>
<g id="a_edge16_Node000009_Node000008"><a xlink:title=" ">
<path fill="none" stroke="#63b8ff" d="M387.88,-186.95C372.55,-177.95 352.44,-166.14 335.62,-156.27"/>
<polygon fill="#63b8ff" stroke="#63b8ff" points="337.06,-153.06 326.66,-151.01 333.52,-159.09 337.06,-153.06"/>
</a>
</g>
</g>
<!-- Node10 -->
<g id="Node000010" class="node">
<title>Node10</title>
<g id="a_Node000010"><a xlink:title=" ">
<polygon fill="#e0e0e0" stroke="#999999" points="436.8,-145.5 380.8,-145.5 380.8,-126.5 436.8,-126.5 436.8,-145.5"/>
<text text-anchor="middle" x="408.8" y="-133.5" font-family="Helvetica,sans-Serif" font-size="10.00">optional</text>
</a>
</g>
</g>
<!-- Node9&#45;&gt;Node10 -->
<g id="edge12_Node000009_Node000010" class="edge">
<title>Node9&#45;&gt;Node10</title>
<g id="a_edge12_Node000009_Node000010"><a xlink:title=" ">
<path fill="none" stroke="#63b8ff" d="M411.13,-186.8C410.71,-177.7 410.15,-165.79 409.69,-155.9"/>
<polygon fill="#63b8ff" stroke="#63b8ff" points="413.18,-155.67 409.21,-145.84 406.19,-156 413.18,-155.67"/>
</a>
</g>
</g>
<!-- Node11&#45;&gt;Node2 -->
<g id="edge23_Node000011_Node000002" class="edge">
<title>Node11&#45;&gt;Node2</title>
<g id="a_edge23_Node000011_Node000002"><a xlink:title=" ">
<path fill="none" stroke="#63b8ff" d="M623.02,-186.71C629.4,-169.63 636.73,-140.87 623.8,-121 581.88,-56.58 335.79,-23.69 246.85,-13.79"/>
<polygon fill="#63b8ff" stroke="#63b8ff" points="247.13,-10.3 236.81,-12.7 246.37,-17.26 247.13,-10.3"/>
</a>
</g>
</g>
<!-- Node11&#45;&gt;Node5 -->
<g id="edge22_Node000011_Node000005" class="edge">
<title>Node11&#45;&gt;Node5</title>
<g id="a_edge22_Node000011_Node000005"><a xlink:title=" ">
<path fill="none" stroke="#63b8ff" d="M587.39,-186.95C564.31,-175.93 532.42,-160.7 509.94,-149.96"/>
<polygon fill="#63b8ff" stroke="#63b8ff" points="511.16,-146.67 500.63,-145.52 508.15,-152.99 511.16,-146.67"/>
</a>
</g>
</g>
<!-- Node12 -->
<g id="Node000012" class="node">
<title>Node12</title>
<g id="a_Node000012"><a xlink:title=" ">
<polygon fill="#e0e0e0" stroke="#999999" points="714.8,-145.5 670.8,-145.5 670.8,-126.5 714.8,-126.5 714.8,-145.5"/>
<text text-anchor="middle" x="692.8" y="-133.5" font-family="Helvetica,sans-Serif" font-size="10.00">ctime</text>
</a>
</g>
</g>
<!-- Node11&#45;&gt;Node12 -->
<g id="edge18_Node000011_Node000012" class="edge">
<title>Node11&#45;&gt;Node12</title>
<g id="a_edge18_Node000011_Node000012"><a xlink:title=" ">
<path fill="none" stroke="#63b8ff" d="M633.67,-186.8C645.75,-176.62 662.01,-162.93 674.42,-152.48"/>
<polygon fill="#63b8ff" stroke="#63b8ff" points="676.9,-154.96 682.3,-145.84 672.39,-149.61 676.9,-154.96"/>
</a>
</g>
</g>
<!-- Node13 -->
<g id="Node000013" class="node">
<title>Node13</title>
<g id="a_Node000013"><a xlink:title=" ">
<polygon fill="#e0e0e0" stroke="#999999" points="800.8,-145.5 732.8,-145.5 732.8,-126.5 800.8,-126.5 800.8,-145.5"/>
<text text-anchor="middle" x="766.8" y="-133.5" font-family="Helvetica,sans-Serif" font-size="10.00">filesystem</text>
</a>
</g>
</g>
<!-- Node11&#45;&gt;Node13 -->
<g id="edge19_Node000011_Node000013" class="edge">
<title>Node11&#45;&gt;Node13</title>
<g id="a_edge19_Node000011_Node000013"><a xlink:title=" ">
<path fill="none" stroke="#63b8ff" d="M649.72,-186.95C675.91,-175.78 712.22,-160.29 737.43,-149.53"/>
<polygon fill="#63b8ff" stroke="#63b8ff" points="739.01,-152.66 746.84,-145.52 736.27,-146.22 739.01,-152.66"/>
</a>
</g>
</g>
<!-- Node14 -->
<g id="Node000014" class="node">
<title>Node14</title>
<g id="a_Node000014"><a xlink:title=" ">
<polygon fill="#e0e0e0" stroke="#999999" points="874.3,-145.5 819.3,-145.5 819.3,-126.5 874.3,-126.5 874.3,-145.5"/>
<text text-anchor="middle" x="846.8" y="-133.5" font-family="Helvetica,sans-Serif" font-size="10.00">fstream</text>
</a>
</g>
</g>
<!-- Node11&#45;&gt;Node14 -->
<g id="edge20_Node000011_Node000014" class="edge">
<title>Node11&#45;&gt;Node14</title>
<g id="a_edge20_Node000011_Node000014"><a xlink:title=" ">
<path fill="none" stroke="#63b8ff" d="M672.58,-188.24C711.37,-178.96 764.11,-165.52 809.8,-151 811.71,-150.39 813.67,-149.74 815.64,-149.06"/>
<polygon fill="#63b8ff" stroke="#63b8ff" points="817.2,-152.22 825.42,-145.54 814.82,-145.64 817.2,-152.22"/>
</a>
</g>
</g>
<!-- Node15 -->
<g id="Node000015" class="node">
<title>Node15</title>
<g id="a_Node000015"><a xlink:title=" ">
<polygon fill="#e0e0e0" stroke="#999999" points="614.8,-145.5 566.8,-145.5 566.8,-126.5 614.8,-126.5 614.8,-145.5"/>
<text text-anchor="middle" x="590.8" y="-133.5" font-family="Helvetica,sans-Serif" font-size="10.00">mutex</text>
</a>
</g>
</g>
<!-- Node11&#45;&gt;Node15 -->
<g id="edge21_Node000011_Node000015" class="edge">
<title>Node11&#45;&gt;Node15</title>
<g id="a_edge21_Node000011_Node000015"><a xlink:title=" ">
<path fill="none" stroke="#63b8ff" d="M611.03,-186.8C607.25,-177.5 602.29,-165.27 598.22,-155.26"/>
<polygon fill="#63b8ff" stroke="#63b8ff" points="601.4,-153.79 594.39,-145.84 594.91,-156.43 601.4,-153.79"/>
</a>
</g>
</g>
</g>
</svg>
