<?xml version="1.0" encoding="UTF-8" standalone="no"?>
<!DOCTYPE svg PUBLIC "-//W3C//DTD SVG 1.1//EN"
 "http://www.w3.org/Graphics/SVG/1.1/DTD/svg11.dtd">
<!-- Generated by graphviz version 2.43.0 (0)
 -->
<!-- Title: SimulateurFerroviaire/Modules/GeoParser/GeoParser.h Pages: 1 -->
<svg width="962pt" height="291pt"
 viewBox="0.00 0.00 962.49 291.00" xmlns="http://www.w3.org/2000/svg" xmlns:xlink="http://www.w3.org/1999/xlink">
<g id="graph0" class="graph" transform="scale(1 1) rotate(0) translate(4 287)">
<title>SimulateurFerroviaire/Modules/GeoParser/GeoParser.h</title>
<!-- Node1 -->
<g id="Node000001" class="node">
<title>Node1</title>
<g id="a_Node000001"><a xlink:title="Orchestrateur principal du pipeline GeoJSON ferroviaire.">
<polygon fill="#999999" stroke="#666666" points="572.49,-283 398.49,-283 398.49,-253 572.49,-253 572.49,-283"/>
<text text-anchor="start" x="406.49" y="-271" font-family="Helvetica,sans-Serif" font-size="10.00">SimulateurFerroviaire</text>
<text text-anchor="middle" x="485.49" y="-260" font-family="Helvetica,sans-Serif" font-size="10.00">/Modules/GeoParser/GeoParser.h</text>
</a>
</g>
</g>
<!-- Node2 -->
<g id="Node000002" class="node">
<title>Node2</title>
<g id="a_Node000002"><a xlink:title=" ">
<polygon fill="#e0e0e0" stroke="#999999" points="229.49,-19 185.49,-19 185.49,0 229.49,0 229.49,-19"/>
<text text-anchor="middle" x="207.49" y="-7" font-family="Helvetica,sans-Serif" font-size="10.00">string</text>
</a>
</g>
</g>
<!-- Node1&#45;&gt;Node2 -->
<g id="edge1_Node000001_Node000002" class="edge">
<title>Node1&#45;&gt;Node2</title>
<g id="a_edge1_Node000001_Node000002"><a xlink:title=" ">
<path fill="none" stroke="#63b8ff" d="M398.39,-264.12C328.4,-259.48 228.6,-247.53 146.49,-217 95.17,-197.92 78.67,-192.08 42.49,-151 12.85,-117.36 -16.49,-90.04 11.49,-55 31.61,-29.8 124.86,-17.79 175.15,-13.06"/>
<polygon fill="#63b8ff" stroke="#63b8ff" points="175.53,-16.54 185.18,-12.16 174.91,-9.57 175.53,-16.54"/>
</a>
</g>
</g>
<!-- Node3 -->
<g id="Node000003" class="node">
<title>Node3</title>
<g id="a_Node000003"><a xlink:title=" ">
<polygon fill="#e0e0e0" stroke="#999999" points="276.99,-145.5 229.99,-145.5 229.99,-126.5 276.99,-126.5 276.99,-145.5"/>
<text text-anchor="middle" x="253.49" y="-133.5" font-family="Helvetica,sans-Serif" font-size="10.00">vector</text>
</a>
</g>
</g>
<!-- Node1&#45;&gt;Node3 -->
<g id="edge2_Node000001_Node000003" class="edge">
<title>Node1&#45;&gt;Node3</title>
<g id="a_edge2_Node000001_Node000003"><a xlink:title=" ">
<path fill="none" stroke="#63b8ff" d="M454.17,-252.96C434.49,-243.67 408.87,-230.71 387.49,-217 369.37,-205.39 367.55,-198.69 349.49,-187 327.62,-172.85 301.3,-159.37 281.75,-149.98"/>
<polygon fill="#63b8ff" stroke="#63b8ff" points="283.01,-146.7 272.47,-145.58 280.01,-153.03 283.01,-146.7"/>
</a>
</g>
</g>
<!-- Node4 -->
<g id="Node000004" class="node">
<title>Node4</title>
<g id="a_Node000004"><a xlink:title=" ">
<polygon fill="#e0e0e0" stroke="#999999" points="786.99,-211.5 721.99,-211.5 721.99,-192.5 786.99,-192.5 786.99,-211.5"/>
<text text-anchor="middle" x="754.49" y="-199.5" font-family="Helvetica,sans-Serif" font-size="10.00">functional</text>
</a>
</g>
</g>
<!-- Node1&#45;&gt;Node4 -->
<g id="edge3_Node000001_Node000004" class="edge">
<title>Node1&#45;&gt;Node4</title>
<g id="a_edge3_Node000001_Node000004"><a xlink:title=" ">
<path fill="none" stroke="#63b8ff" d="M559.42,-252.99C604.3,-243.95 662.55,-231.23 713.49,-217 715.96,-216.31 718.5,-215.55 721.05,-214.76"/>
<polygon fill="#63b8ff" stroke="#63b8ff" points="722.35,-218.02 730.78,-211.6 720.19,-211.36 722.35,-218.02"/>
</a>
</g>
</g>
<!-- Node5 -->
<g id="Node000005" class="node">
<title>Node5</title>
<g id="a_Node000005"><a xlink:href="StraightBlock_8h.html" target="_top" xlink:title="Modèle de domaine d&#39;un bloc de voie droite (Straight).">
<polygon fill="white" stroke="#666666" points="339.99,-217 154.99,-217 154.99,-187 339.99,-187 339.99,-217"/>
<text text-anchor="start" x="162.99" y="-205" font-family="Helvetica,sans-Serif" font-size="10.00">Modules/InteractiveElements</text>
<text text-anchor="middle" x="247.49" y="-194" font-family="Helvetica,sans-Serif" font-size="10.00">/ShuntingElements/StraightBlock.h</text>
</a>
</g>
</g>
<!-- Node1&#45;&gt;Node5 -->
<g id="edge4_Node000001_Node000005" class="edge">
<title>Node1&#45;&gt;Node5</title>
<g id="a_edge4_Node000001_Node000005"><a xlink:title=" ">
<path fill="none" stroke="#63b8ff" d="M433.26,-252.95C396.83,-243.16 348.06,-230.05 309.63,-219.71"/>
<polygon fill="#63b8ff" stroke="#63b8ff" points="310.16,-216.23 299.59,-217.01 308.34,-222.99 310.16,-216.23"/>
</a>
</g>
</g>
<!-- Node10 -->
<g id="Node000010" class="node">
<title>Node10</title>
<g id="a_Node000010"><a xlink:href="SwitchBlock_8h.html" target="_top" xlink:title="Modèle de domaine d&#39;un aiguillage ferroviaire à 3 branches (Switch).">
<polygon fill="white" stroke="#666666" points="574.99,-217 395.99,-217 395.99,-187 574.99,-187 574.99,-217"/>
<text text-anchor="start" x="403.99" y="-205" font-family="Helvetica,sans-Serif" font-size="10.00">Modules/InteractiveElements</text>
<text text-anchor="middle" x="485.49" y="-194" font-family="Helvetica,sans-Serif" font-size="10.00">/ShuntingElements/SwitchBlock.h</text>
</a>
</g>
</g>
<!-- Node1&#45;&gt;Node10 -->
<g id="edge12_Node000001_Node000010" class="edge">
<title>Node1&#45;&gt;Node10</title>
<g id="a_edge12_Node000001_Node000010"><a xlink:title=" ">
<path fill="none" stroke="#63b8ff" d="M485.49,-252.8C485.49,-245.34 485.49,-235.99 485.49,-227.41"/>
<polygon fill="#63b8ff" stroke="#63b8ff" points="488.99,-227.16 485.49,-217.16 481.99,-227.16 488.99,-227.16"/>
</a>
</g>
</g>
<!-- Node12 -->
<g id="Node000012" class="node">
<title>Node12</title>
<g id="a_Node000012"><a xlink:href="GeoParserEnums_8h.html" target="_top" xlink:title="Constantes nommées et énumérations du pipeline ferroviaire GeoParser.">
<polygon fill="white" stroke="#666666" points="954.49,-211.5 804.49,-211.5 804.49,-192.5 954.49,-192.5 954.49,-211.5"/>
<text text-anchor="middle" x="879.49" y="-199.5" font-family="Helvetica,sans-Serif" font-size="10.00">./Enums/GeoParserEnums.h</text>
</a>
</g>
</g>
<!-- Node1&#45;&gt;Node12 -->
<g id="edge18_Node000001_Node000012" class="edge">
<title>Node1&#45;&gt;Node12</title>
<g id="a_edge18_Node000001_Node000012"><a xlink:title=" ">
<path fill="none" stroke="#63b8ff" d="M572.65,-253.17C635.01,-243.23 720.94,-229.44 796.49,-217 803.91,-215.78 811.7,-214.48 819.41,-213.19"/>
<polygon fill="#63b8ff" stroke="#63b8ff" points="820.18,-216.61 829.46,-211.5 819.02,-209.71 820.18,-216.61"/>
</a>
</g>
</g>
<!-- Node13 -->
<g id="Node000013" class="node">
<title>Node13</title>
<g id="a_Node000013"><a xlink:href="Logger_8h.html" target="_top" xlink:title="Système de journalisation à 5 niveaux de trace, un fichier par moteur.">
<polygon fill="white" stroke="#666666" points="703.99,-217 592.99,-217 592.99,-187 703.99,-187 703.99,-217"/>
<text text-anchor="start" x="600.99" y="-205" font-family="Helvetica,sans-Serif" font-size="10.00">Engine/Core/Logger</text>
<text text-anchor="middle" x="648.49" y="-194" font-family="Helvetica,sans-Serif" font-size="10.00">/Logger.h</text>
</a>
</g>
</g>
<!-- Node1&#45;&gt;Node13 -->
<g id="edge19_Node000001_Node000013" class="edge">
<title>Node1&#45;&gt;Node13</title>
<g id="a_edge19_Node000001_Node000013"><a xlink:title=" ">
<path fill="none" stroke="#63b8ff" d="M521.26,-252.95C545.36,-243.49 577.34,-230.93 603.21,-220.78"/>
<polygon fill="#63b8ff" stroke="#63b8ff" points="604.77,-223.93 612.8,-217.01 602.21,-217.41 604.77,-223.93"/>
</a>
</g>
</g>
<!-- Node5&#45;&gt;Node2 -->
<g id="edge6_Node000005_Node000002" class="edge">
<title>Node5&#45;&gt;Node2</title>
<g id="a_edge6_Node000005_Node000002"><a xlink:title=" ">
<path fill="none" stroke="#63b8ff" d="M238.21,-186.75C232.38,-177.07 225.28,-163.75 221.49,-151 208.94,-108.86 207.1,-56.79 207.13,-29.4"/>
<polygon fill="#63b8ff" stroke="#63b8ff" points="210.63,-29.31 207.22,-19.27 203.63,-29.24 210.63,-29.31"/>
</a>
</g>
</g>
<!-- Node5&#45;&gt;Node3 -->
<g id="edge7_Node000005_Node000003" class="edge">
<title>Node5&#45;&gt;Node3</title>
<g id="a_edge7_Node000005_Node000003"><a xlink:title=" ">
<path fill="none" stroke="#63b8ff" d="M248.82,-186.8C249.67,-177.7 250.79,-165.79 251.71,-155.9"/>
<polygon fill="#63b8ff" stroke="#63b8ff" points="255.21,-156.13 252.66,-145.84 248.24,-155.47 255.21,-156.13"/>
</a>
</g>
</g>
<!-- Node6 -->
<g id="Node000006" class="node">
<title>Node6</title>
<g id="a_Node000006"><a xlink:title=" ">
<polygon fill="#e0e0e0" stroke="#999999" points="562.49,-145.5 506.49,-145.5 506.49,-126.5 562.49,-126.5 562.49,-145.5"/>
<text text-anchor="middle" x="534.49" y="-133.5" font-family="Helvetica,sans-Serif" font-size="10.00">sstream</text>
</a>
</g>
</g>
<!-- Node5&#45;&gt;Node6 -->
<g id="edge5_Node000005_Node000006" class="edge">
<title>Node5&#45;&gt;Node6</title>
<g id="a_edge5_Node000005_Node000006"><a xlink:title=" ">
<path fill="none" stroke="#63b8ff" d="M335.98,-186.96C384.19,-178.4 444.63,-166.18 497.49,-151 499.63,-150.38 501.83,-149.7 504.03,-148.97"/>
<polygon fill="#63b8ff" stroke="#63b8ff" points="505.3,-152.24 513.56,-145.6 502.96,-145.64 505.3,-152.24"/>
</a>
</g>
</g>
<!-- Node7 -->
<g id="Node000007" class="node">
<title>Node7</title>
<g id="a_Node000007"><a xlink:href="ShuntingElement_8h.html" target="_top" xlink:title="Interface abstraite pour tous les éléments de shuntage ferroviaire.">
<polygon fill="white" stroke="#666666" points="160.99,-145.5 51.99,-145.5 51.99,-126.5 160.99,-126.5 160.99,-145.5"/>
<text text-anchor="middle" x="106.49" y="-133.5" font-family="Helvetica,sans-Serif" font-size="10.00">ShuntingElement.h</text>
</a>
</g>
</g>
<!-- Node5&#45;&gt;Node7 -->
<g id="edge8_Node000005_Node000007" class="edge">
<title>Node5&#45;&gt;Node7</title>
<g id="a_edge8_Node000005_Node000007"><a xlink:title=" ">
<path fill="none" stroke="#63b8ff" d="M216.54,-186.95C192.03,-175.83 158.09,-160.42 134.41,-149.67"/>
<polygon fill="#63b8ff" stroke="#63b8ff" points="135.8,-146.46 125.25,-145.52 132.91,-152.84 135.8,-146.46"/>
</a>
</g>
</g>
<!-- Node9 -->
<g id="Node000009" class="node">
<title>Node9</title>
<g id="a_Node000009"><a xlink:href="LatLon_8h.html" target="_top" xlink:title="Représentation d&#39;une coordonnée géographique WGS&#45;84 (latitude, longitude).">
<polygon fill="white" stroke="#666666" points="413.99,-151 294.99,-151 294.99,-121 413.99,-121 413.99,-151"/>
<text text-anchor="start" x="302.99" y="-139" font-family="Helvetica,sans-Serif" font-size="10.00">Modules/Coordinates</text>
<text text-anchor="middle" x="354.49" y="-128" font-family="Helvetica,sans-Serif" font-size="10.00">/LatLon.h</text>
</a>
</g>
</g>
<!-- Node5&#45;&gt;Node9 -->
<g id="edge11_Node000005_Node000009" class="edge">
<title>Node5&#45;&gt;Node9</title>
<g id="a_edge11_Node000005_Node000009"><a xlink:title=" ">
<path fill="none" stroke="#63b8ff" d="M270.97,-186.95C286.02,-177.95 305.76,-166.14 322.27,-156.27"/>
<polygon fill="#63b8ff" stroke="#63b8ff" points="324.27,-159.15 331.06,-151.01 320.68,-153.14 324.27,-159.15"/>
</a>
</g>
</g>
<!-- Node8 -->
<g id="Node000008" class="node">
<title>Node8</title>
<g id="a_Node000008"><a xlink:href="InteractiveElement_8h.html" target="_top" xlink:title="Classe de base abstraite pour tous les éléments interactifs ferroviaires.">
<polygon fill="white" stroke="#666666" points="179.99,-85 20.99,-85 20.99,-55 179.99,-55 179.99,-85"/>
<text text-anchor="start" x="28.99" y="-73" font-family="Helvetica,sans-Serif" font-size="10.00">Modules/InteractiveElements</text>
<text text-anchor="middle" x="100.49" y="-62" font-family="Helvetica,sans-Serif" font-size="10.00">/InteractiveElement.h</text>
</a>
</g>
</g>
<!-- Node7&#45;&gt;Node8 -->
<g id="edge9_Node000007_Node000008" class="edge">
<title>Node7&#45;&gt;Node8</title>
<g id="a_edge9_Node000007_Node000008"><a xlink:title=" ">
<path fill="none" stroke="#63b8ff" d="M105.68,-126.37C104.94,-118.49 103.81,-106.45 102.79,-95.6"/>
<polygon fill="#63b8ff" stroke="#63b8ff" points="106.25,-94.99 101.83,-85.36 99.28,-95.64 106.25,-94.99"/>
</a>
</g>
</g>
<!-- Node8&#45;&gt;Node2 -->
<g id="edge10_Node000008_Node000002" class="edge">
<title>Node8&#45;&gt;Node2</title>
<g id="a_edge10_Node000008_Node000002"><a xlink:title=" ">
<path fill="none" stroke="#63b8ff" d="M126.12,-54.99C143.33,-45.58 165.89,-33.24 182.88,-23.95"/>
<polygon fill="#63b8ff" stroke="#63b8ff" points="184.59,-27.01 191.68,-19.14 181.23,-20.87 184.59,-27.01"/>
</a>
</g>
</g>
<!-- Node10&#45;&gt;Node2 -->
<g id="edge15_Node000010_Node000002" class="edge">
<title>Node10&#45;&gt;Node2</title>
<g id="a_edge15_Node000010_Node000002"><a xlink:title=" ">
<path fill="none" stroke="#63b8ff" d="M528.25,-186.83C544.8,-179.01 562.01,-167.47 571.49,-151 578.14,-139.44 579.43,-131.71 571.49,-121 531.06,-66.49 320.94,-28.28 239.65,-15.34"/>
<polygon fill="#63b8ff" stroke="#63b8ff" points="239.92,-11.84 229.5,-13.75 238.84,-18.75 239.92,-11.84"/>
</a>
</g>
</g>
<!-- Node10&#45;&gt;Node3 -->
<g id="edge16_Node000010_Node000003" class="edge">
<title>Node10&#45;&gt;Node3</title>
<g id="a_edge16_Node000010_Node000003"><a xlink:title=" ">
<path fill="none" stroke="#63b8ff" d="M418.86,-186.98C379.85,-178.1 329.88,-165.56 286.49,-151 284.86,-150.46 283.21,-149.87 281.55,-149.25"/>
<polygon fill="#63b8ff" stroke="#63b8ff" points="282.73,-145.95 272.14,-145.51 280.14,-152.46 282.73,-145.95"/>
</a>
</g>
</g>
<!-- Node10&#45;&gt;Node6 -->
<g id="edge14_Node000010_Node000006" class="edge">
<title>Node10&#45;&gt;Node6</title>
<g id="a_edge14_Node000010_Node000006"><a xlink:title=" ">
<path fill="none" stroke="#63b8ff" d="M496.36,-186.8C503.78,-177.11 513.63,-164.24 521.46,-154.01"/>
<polygon fill="#63b8ff" stroke="#63b8ff" points="524.41,-155.91 527.71,-145.84 518.86,-151.66 524.41,-155.91"/>
</a>
</g>
</g>
<!-- Node10&#45;&gt;Node9 -->
<g id="edge17_Node000010_Node000009" class="edge">
<title>Node10&#45;&gt;Node9</title>
<g id="a_edge17_Node000010_Node000009"><a xlink:title=" ">
<path fill="none" stroke="#63b8ff" d="M456.74,-186.95C437.8,-177.7 412.79,-165.49 392.25,-155.45"/>
<polygon fill="#63b8ff" stroke="#63b8ff" points="393.69,-152.26 383.17,-151.01 390.62,-158.55 393.69,-152.26"/>
</a>
</g>
</g>
<!-- Node11 -->
<g id="Node000011" class="node">
<title>Node11</title>
<g id="a_Node000011"><a xlink:title=" ">
<polygon fill="#e0e0e0" stroke="#999999" points="488.49,-145.5 432.49,-145.5 432.49,-126.5 488.49,-126.5 488.49,-145.5"/>
<text text-anchor="middle" x="460.49" y="-133.5" font-family="Helvetica,sans-Serif" font-size="10.00">optional</text>
</a>
</g>
</g>
<!-- Node10&#45;&gt;Node11 -->
<g id="edge13_Node000010_Node000011" class="edge">
<title>Node10&#45;&gt;Node11</title>
<g id="a_edge13_Node000010_Node000011"><a xlink:title=" ">
<path fill="none" stroke="#63b8ff" d="M479.94,-186.8C476.31,-177.5 471.53,-165.27 467.62,-155.26"/>
<polygon fill="#63b8ff" stroke="#63b8ff" points="470.84,-153.89 463.94,-145.84 464.32,-156.43 470.84,-153.89"/>
</a>
</g>
</g>
<!-- Node13&#45;&gt;Node2 -->
<g id="edge25_Node000013_Node000002" class="edge">
<title>Node13&#45;&gt;Node2</title>
<g id="a_edge25_Node000013_Node000002"><a xlink:title=" ">
<path fill="none" stroke="#63b8ff" d="M660.45,-186.87C673.25,-169.95 689.88,-141.34 675.49,-121 624.36,-48.74 336.83,-20.37 239.61,-12.76"/>
<polygon fill="#63b8ff" stroke="#63b8ff" points="239.74,-9.26 229.5,-11.99 239.21,-16.24 239.74,-9.26"/>
</a>
</g>
</g>
<!-- Node13&#45;&gt;Node6 -->
<g id="edge24_Node000013_Node000006" class="edge">
<title>Node13&#45;&gt;Node6</title>
<g id="a_edge24_Node000013_Node000006"><a xlink:title=" ">
<path fill="none" stroke="#63b8ff" d="M623.47,-186.95C604.18,-176.13 577.67,-161.24 558.61,-150.54"/>
<polygon fill="#63b8ff" stroke="#63b8ff" points="560.09,-147.36 549.66,-145.52 556.66,-153.46 560.09,-147.36"/>
</a>
</g>
</g>
<!-- Node14 -->
<g id="Node000014" class="node">
<title>Node14</title>
<g id="a_Node000014"><a xlink:title=" ">
<polygon fill="#e0e0e0" stroke="#999999" points="766.49,-145.5 722.49,-145.5 722.49,-126.5 766.49,-126.5 766.49,-145.5"/>
<text text-anchor="middle" x="744.49" y="-133.5" font-family="Helvetica,sans-Serif" font-size="10.00">ctime</text>
</a>
</g>
</g>
<!-- Node13&#45;&gt;Node14 -->
<g id="edge20_Node000013_Node000014" class="edge">
<title>Node13&#45;&gt;Node14</title>
<g id="a_edge20_Node000013_Node000014"><a xlink:title=" ">
<path fill="none" stroke="#63b8ff" d="M669.79,-186.8C685.58,-176.27 707.03,-161.97 722.89,-151.4"/>
<polygon fill="#63b8ff" stroke="#63b8ff" points="725.12,-154.12 731.5,-145.66 721.24,-148.29 725.12,-154.12"/>
</a>
</g>
</g>
<!-- Node15 -->
<g id="Node000015" class="node">
<title>Node15</title>
<g id="a_Node000015"><a xlink:title=" ">
<polygon fill="#e0e0e0" stroke="#999999" points="852.49,-145.5 784.49,-145.5 784.49,-126.5 852.49,-126.5 852.49,-145.5"/>
<text text-anchor="middle" x="818.49" y="-133.5" font-family="Helvetica,sans-Serif" font-size="10.00">filesystem</text>
</a>
</g>
</g>
<!-- Node13&#45;&gt;Node15 -->
<g id="edge21_Node000013_Node000015" class="edge">
<title>Node13&#45;&gt;Node15</title>
<g id="a_edge21_Node000013_Node000015"><a xlink:title=" ">
<path fill="none" stroke="#63b8ff" d="M685.79,-186.95C715.87,-175.63 757.72,-159.88 786.34,-149.1"/>
<polygon fill="#63b8ff" stroke="#63b8ff" points="787.74,-152.32 795.86,-145.52 785.27,-145.77 787.74,-152.32"/>
</a>
</g>
</g>
<!-- Node16 -->
<g id="Node000016" class="node">
<title>Node16</title>
<g id="a_Node000016"><a xlink:title=" ">
<polygon fill="#e0e0e0" stroke="#999999" points="925.99,-145.5 870.99,-145.5 870.99,-126.5 925.99,-126.5 925.99,-145.5"/>
<text text-anchor="middle" x="898.49" y="-133.5" font-family="Helvetica,sans-Serif" font-size="10.00">fstream</text>
</a>
</g>
</g>
<!-- Node13&#45;&gt;Node16 -->
<g id="edge22_Node000013_Node000016" class="edge">
<title>Node13&#45;&gt;Node16</title>
<g id="a_edge22_Node000013_Node000016"><a xlink:title=" ">
<path fill="none" stroke="#63b8ff" d="M704.12,-188.81C756.96,-177.07 832.51,-159.84 861.49,-151 863.41,-150.41 865.37,-149.78 867.35,-149.11"/>
<polygon fill="#63b8ff" stroke="#63b8ff" points="868.89,-152.28 877.13,-145.63 866.53,-145.69 868.89,-152.28"/>
</a>
</g>
</g>
<!-- Node17 -->
<g id="Node000017" class="node">
<title>Node17</title>
<g id="a_Node000017"><a xlink:title=" ">
<polygon fill="#e0e0e0" stroke="#999999" points="666.49,-145.5 618.49,-145.5 618.49,-126.5 666.49,-126.5 666.49,-145.5"/>
<text text-anchor="middle" x="642.49" y="-133.5" font-family="Helvetica,sans-Serif" font-size="10.00">mutex</text>
</a>
</g>
</g>
<!-- Node13&#45;&gt;Node17 -->
<g id="edge23_Node000013_Node000017" class="edge">
<title>Node13&#45;&gt;Node17</title>
<g id="a_edge23_Node000013_Node000017"><a xlink:title=" ">
<path fill="none" stroke="#63b8ff" d="M647.15,-186.8C646.3,-177.7 645.19,-165.79 644.26,-155.9"/>
<polygon fill="#63b8ff" stroke="#63b8ff" points="647.73,-155.47 643.32,-145.84 640.76,-156.13 647.73,-155.47"/>
</a>
</g>
</g>
</g>
</svg>
