<?xml version="1.0" encoding="UTF-8" standalone="no"?>
<!DOCTYPE svg PUBLIC "-//W3C//DTD SVG 1.1//EN"
 "http://www.w3.org/Graphics/SVG/1.1/DTD/svg11.dtd">
<!-- Generated by graphviz version 2.43.0 (0)
 -->
<!-- Title: SimulateurFerroviaire/Modules/GeoParser/GeoParsingTask.cpp Pages: 1 -->
<svg width="1530pt" height="291pt"
 viewBox="0.00 0.00 1530.00 291.00" xmlns="http://www.w3.org/2000/svg" xmlns:xlink="http://www.w3.org/1999/xlink">
<g id="graph0" class="graph" transform="scale(1 1) rotate(0) translate(4 287)">
<title>SimulateurFerroviaire/Modules/GeoParser/GeoParsingTask.cpp</title>
<!-- Node1 -->
<g id="Node000001" class="node">
<title>Node1</title>
<g id="a_Node000001"><a xlink:title="Implémentation de la tâche de parsing GeoJSON asynchrone.">
<polygon fill="#999999" stroke="#666666" points="775.5,-283 604.5,-283 604.5,-242 775.5,-242 775.5,-283"/>
<text text-anchor="start" x="612.5" y="-271" font-family="Helvetica,sans-Serif" font-size="10.00">SimulateurFerroviaire</text>
<text text-anchor="start" x="612.5" y="-260" font-family="Helvetica,sans-Serif" font-size="10.00">/Modules/GeoParser/GeoParsing</text>
<text text-anchor="middle" x="690" y="-249" font-family="Helvetica,sans-Serif" font-size="10.00">Task.cpp</text>
</a>
</g>
</g>
<!-- Node2 -->
<g id="Node000002" class="node">
<title>Node2</title>
<g id="a_Node000002"><a xlink:href="framework_8h.html" target="_top" xlink:title=" ">
<polygon fill="white" stroke="#666666" points="408.5,-134.5 329.5,-134.5 329.5,-115.5 408.5,-115.5 408.5,-134.5"/>
<text text-anchor="middle" x="369" y="-122.5" font-family="Helvetica,sans-Serif" font-size="10.00">framework.h</text>
</a>
</g>
</g>
<!-- Node1&#45;&gt;Node2 -->
<g id="edge1_Node000001_Node000002" class="edge">
<title>Node1&#45;&gt;Node2</title>
<g id="a_edge1_Node000001_Node000002"><a xlink:title=" ">
<path fill="none" stroke="#63b8ff" d="M604.23,-256.64C524.76,-250.3 414.39,-236.21 384,-206 368.07,-190.16 366.14,-163.14 366.97,-144.93"/>
<polygon fill="#63b8ff" stroke="#63b8ff" points="370.46,-145.15 367.74,-134.91 363.48,-144.62 370.46,-145.15"/>
</a>
</g>
</g>
<!-- Node13 -->
<g id="Node000013" class="node">
<title>Node13</title>
<g id="a_Node000013"><a xlink:href="GeoParsingTask_8h.html" target="_top" xlink:title="Déclaration de la tâche de parsing GeoJSON asynchrone.">
<polygon fill="white" stroke="#666666" points="495,-200.5 393,-200.5 393,-181.5 495,-181.5 495,-200.5"/>
<text text-anchor="middle" x="444" y="-188.5" font-family="Helvetica,sans-Serif" font-size="10.00">GeoParsingTask.h</text>
</a>
</g>
</g>
<!-- Node1&#45;&gt;Node13 -->
<g id="edge12_Node000001_Node000013" class="edge">
<title>Node1&#45;&gt;Node13</title>
<g id="a_edge12_Node000001_Node000013"><a xlink:title=" ">
<path fill="none" stroke="#63b8ff" d="M620.82,-241.96C576.66,-229.48 520.96,-213.74 484,-203.3"/>
<polygon fill="#63b8ff" stroke="#63b8ff" points="484.67,-199.85 474.1,-200.5 482.77,-206.59 484.67,-199.85"/>
</a>
</g>
</g>
<!-- Node14 -->
<g id="Node000014" class="node">
<title>Node14</title>
<g id="a_Node000014"><a xlink:href="GeoParser_8h.html" target="_top" xlink:title="Orchestrateur principal du pipeline GeoJSON ferroviaire.">
<polygon fill="white" stroke="#666666" points="872.5,-200.5 701.5,-200.5 701.5,-181.5 872.5,-181.5 872.5,-200.5"/>
<text text-anchor="middle" x="787" y="-188.5" font-family="Helvetica,sans-Serif" font-size="10.00">Modules/GeoParser/GeoParser.h</text>
</a>
</g>
</g>
<!-- Node1&#45;&gt;Node14 -->
<g id="edge15_Node000001_Node000014" class="edge">
<title>Node1&#45;&gt;Node14</title>
<g id="a_edge15_Node000001_Node000014"><a xlink:title=" ">
<path fill="none" stroke="#63b8ff" d="M717.28,-241.96C733.06,-230.65 752.57,-216.67 766.93,-206.38"/>
<polygon fill="#63b8ff" stroke="#63b8ff" points="769.04,-209.17 775.13,-200.5 764.96,-203.48 769.04,-209.17"/>
</a>
</g>
</g>
<!-- Node23 -->
<g id="Node000023" class="node">
<title>Node23</title>
<g id="a_Node000023"><a xlink:href="Logger_8h.html" target="_top" xlink:title="Système de journalisation à 5 niveaux de trace, un fichier par moteur.">
<polygon fill="white" stroke="#666666" points="1405.5,-140 1294.5,-140 1294.5,-110 1405.5,-110 1405.5,-140"/>
<text text-anchor="start" x="1302.5" y="-128" font-family="Helvetica,sans-Serif" font-size="10.00">Engine/Core/Logger</text>
<text text-anchor="middle" x="1350" y="-117" font-family="Helvetica,sans-Serif" font-size="10.00">/Logger.h</text>
</a>
</g>
</g>
<!-- Node1&#45;&gt;Node23 -->
<g id="edge41_Node000001_Node000023" class="edge">
<title>Node1&#45;&gt;Node23</title>
<g id="a_edge41_Node000001_Node000023"><a xlink:title=" ">
<path fill="none" stroke="#63b8ff" d="M775.86,-244.23C810.02,-235.45 848.98,-222.97 882,-206 901.14,-196.16 900.04,-184.04 920,-176 1068.49,-116.15 1122.34,-163.48 1283.93,-140.16"/>
<polygon fill="#63b8ff" stroke="#63b8ff" points="1284.86,-143.56 1294.23,-138.6 1283.81,-136.64 1284.86,-143.56"/>
</a>
</g>
</g>
<!-- Node28 -->
<g id="Node000028" class="node">
<title>Node28</title>
<g id="a_Node000028"><a xlink:href="GeoParserException_8h.html" target="_top" xlink:title="Hiérarchie d&#39;exceptions du pipeline GeoJSON ferroviaire.">
<polygon fill="white" stroke="#666666" points="680.5,-206 513.5,-206 513.5,-176 680.5,-176 680.5,-206"/>
<text text-anchor="start" x="521.5" y="-194" font-family="Helvetica,sans-Serif" font-size="10.00">Modules/GeoParser/Exceptions</text>
<text text-anchor="middle" x="597" y="-183" font-family="Helvetica,sans-Serif" font-size="10.00">/GeoParserException.h</text>
</a>
</g>
</g>
<!-- Node1&#45;&gt;Node28 -->
<g id="edge38_Node000001_Node000028" class="edge">
<title>Node1&#45;&gt;Node28</title>
<g id="a_edge38_Node000001_Node000028"><a xlink:title=" ">
<path fill="none" stroke="#63b8ff" d="M663.6,-241.77C651.21,-232.51 636.46,-221.49 623.99,-212.17"/>
<polygon fill="#63b8ff" stroke="#63b8ff" points="625.89,-209.22 615.78,-206.04 621.7,-214.83 625.89,-209.22"/>
</a>
</g>
</g>
<!-- Node30 -->
<g id="Node000030" class="node">
<title>Node30</title>
<g id="a_Node000030"><a xlink:title=" ">
<polygon fill="#e0e0e0" stroke="#999999" points="977,-200.5 929,-200.5 929,-181.5 977,-181.5 977,-200.5"/>
<text text-anchor="middle" x="953" y="-188.5" font-family="Helvetica,sans-Serif" font-size="10.00">thread</text>
</a>
</g>
</g>
<!-- Node1&#45;&gt;Node30 -->
<g id="edge42_Node000001_Node000030" class="edge">
<title>Node1&#45;&gt;Node30</title>
<g id="a_edge42_Node000001_Node000030"><a xlink:title=" ">
<path fill="none" stroke="#63b8ff" d="M775.55,-242.76C817.82,-232.9 869.42,-219.97 915,-206 917.13,-205.35 919.31,-204.64 921.51,-203.91"/>
<polygon fill="#63b8ff" stroke="#63b8ff" points="922.76,-207.18 931.04,-200.56 920.44,-200.57 922.76,-207.18"/>
</a>
</g>
</g>
<!-- Node3 -->
<g id="Node000003" class="node">
<title>Node3</title>
<g id="a_Node000003"><a xlink:href="targetver_8h.html" target="_top" xlink:title=" ">
<polygon fill="white" stroke="#666666" points="238,-74 168,-74 168,-55 238,-55 238,-74"/>
<text text-anchor="middle" x="203" y="-62" font-family="Helvetica,sans-Serif" font-size="10.00">targetver.h</text>
</a>
</g>
</g>
<!-- Node2&#45;&gt;Node3 -->
<g id="edge2_Node000002_Node000003" class="edge">
<title>Node2&#45;&gt;Node3</title>
<g id="a_edge2_Node000002_Node000003"><a xlink:title=" ">
<path fill="none" stroke="#63b8ff" d="M344.86,-115.49C316.46,-105.49 269.12,-88.8 237.01,-77.49"/>
<polygon fill="#63b8ff" stroke="#63b8ff" points="237.76,-74.04 227.17,-74.02 235.44,-80.64 237.76,-74.04"/>
</a>
</g>
</g>
<!-- Node5 -->
<g id="Node000005" class="node">
<title>Node5</title>
<g id="a_Node000005"><a xlink:title=" ">
<polygon fill="#e0e0e0" stroke="#999999" points="324,-74 256,-74 256,-55 324,-55 324,-74"/>
<text text-anchor="middle" x="290" y="-62" font-family="Helvetica,sans-Serif" font-size="10.00">windows.h</text>
</a>
</g>
</g>
<!-- Node2&#45;&gt;Node5 -->
<g id="edge4_Node000002_Node000005" class="edge">
<title>Node2&#45;&gt;Node5</title>
<g id="a_edge4_Node000002_Node000005"><a xlink:title=" ">
<path fill="none" stroke="#63b8ff" d="M357.34,-115.37C344.86,-106.12 324.82,-91.28 309.84,-80.19"/>
<polygon fill="#63b8ff" stroke="#63b8ff" points="311.82,-77.31 301.7,-74.17 307.66,-82.93 311.82,-77.31"/>
</a>
</g>
</g>
<!-- Node6 -->
<g id="Node000006" class="node">
<title>Node6</title>
<g id="a_Node000006"><a xlink:title=" ">
<polygon fill="#e0e0e0" stroke="#999999" points="395.5,-74 342.5,-74 342.5,-55 395.5,-55 395.5,-74"/>
<text text-anchor="middle" x="369" y="-62" font-family="Helvetica,sans-Serif" font-size="10.00">stdlib.h</text>
</a>
</g>
</g>
<!-- Node2&#45;&gt;Node6 -->
<g id="edge5_Node000002_Node000006" class="edge">
<title>Node2&#45;&gt;Node6</title>
<g id="a_edge5_Node000002_Node000006"><a xlink:title=" ">
<path fill="none" stroke="#63b8ff" d="M369,-115.37C369,-107.25 369,-94.81 369,-84.39"/>
<polygon fill="#63b8ff" stroke="#63b8ff" points="372.5,-84.17 369,-74.17 365.5,-84.17 372.5,-84.17"/>
</a>
</g>
</g>
<!-- Node7 -->
<g id="Node000007" class="node">
<title>Node7</title>
<g id="a_Node000007"><a xlink:title=" ">
<polygon fill="#e0e0e0" stroke="#999999" points="472.5,-74 413.5,-74 413.5,-55 472.5,-55 472.5,-74"/>
<text text-anchor="middle" x="443" y="-62" font-family="Helvetica,sans-Serif" font-size="10.00">malloc.h</text>
</a>
</g>
</g>
<!-- Node2&#45;&gt;Node7 -->
<g id="edge6_Node000002_Node000007" class="edge">
<title>Node2&#45;&gt;Node7</title>
<g id="a_edge6_Node000002_Node000007"><a xlink:title=" ">
<path fill="none" stroke="#63b8ff" d="M379.92,-115.37C391.51,-106.21 410.03,-91.56 424.02,-80.51"/>
<polygon fill="#63b8ff" stroke="#63b8ff" points="426.36,-83.11 432.04,-74.17 422.02,-77.62 426.36,-83.11"/>
</a>
</g>
</g>
<!-- Node8 -->
<g id="Node000008" class="node">
<title>Node8</title>
<g id="a_Node000008"><a xlink:title=" ">
<polygon fill="#e0e0e0" stroke="#999999" points="555.5,-74 490.5,-74 490.5,-55 555.5,-55 555.5,-74"/>
<text text-anchor="middle" x="523" y="-62" font-family="Helvetica,sans-Serif" font-size="10.00">memory.h</text>
</a>
</g>
</g>
<!-- Node2&#45;&gt;Node8 -->
<g id="edge7_Node000002_Node000008" class="edge">
<title>Node2&#45;&gt;Node8</title>
<g id="a_edge7_Node000002_Node000008"><a xlink:title=" ">
<path fill="none" stroke="#63b8ff" d="M391.39,-115.49C417.62,-105.53 461.28,-88.95 491.06,-77.63"/>
<polygon fill="#63b8ff" stroke="#63b8ff" points="492.47,-80.84 500.58,-74.02 489.99,-74.3 492.47,-80.84"/>
</a>
</g>
</g>
<!-- Node9 -->
<g id="Node000009" class="node">
<title>Node9</title>
<g id="a_Node000009"><a xlink:title=" ">
<polygon fill="#e0e0e0" stroke="#999999" points="624,-74 574,-74 574,-55 624,-55 624,-74"/>
<text text-anchor="middle" x="599" y="-62" font-family="Helvetica,sans-Serif" font-size="10.00">tchar.h</text>
</a>
</g>
</g>
<!-- Node2&#45;&gt;Node9 -->
<g id="edge8_Node000002_Node000009" class="edge">
<title>Node2&#45;&gt;Node9</title>
<g id="a_edge8_Node000002_Node000009"><a xlink:title=" ">
<path fill="none" stroke="#63b8ff" d="M402.44,-115.49C445.47,-104.55 519.87,-85.63 563.75,-74.47"/>
<polygon fill="#63b8ff" stroke="#63b8ff" points="564.85,-77.8 573.68,-71.94 563.13,-71.01 564.85,-77.8"/>
</a>
</g>
</g>
<!-- Node10 -->
<g id="Node000010" class="node">
<title>Node10</title>
<g id="a_Node000010"><a xlink:title=" ">
<polygon fill="#e0e0e0" stroke="#999999" points="72,-74 0,-74 0,-55 72,-55 72,-74"/>
<text text-anchor="middle" x="36" y="-62" font-family="Helvetica,sans-Serif" font-size="10.00">commctrl.h</text>
</a>
</g>
</g>
<!-- Node2&#45;&gt;Node10 -->
<g id="edge9_Node000002_Node000010" class="edge">
<title>Node2&#45;&gt;Node10</title>
<g id="a_edge9_Node000002_Node000010"><a xlink:title=" ">
<path fill="none" stroke="#63b8ff" d="M329.37,-117.31C275.71,-108.21 176.7,-91.27 82.34,-74.22"/>
<polygon fill="#63b8ff" stroke="#63b8ff" points="82.8,-70.75 72.34,-72.41 81.56,-77.64 82.8,-70.75"/>
</a>
</g>
</g>
<!-- Node11 -->
<g id="Node000011" class="node">
<title>Node11</title>
<g id="a_Node000011"><a xlink:title=" ">
<polygon fill="#e0e0e0" stroke="#999999" points="686,-74 642,-74 642,-55 686,-55 686,-74"/>
<text text-anchor="middle" x="664" y="-62" font-family="Helvetica,sans-Serif" font-size="10.00">string</text>
</a>
</g>
</g>
<!-- Node2&#45;&gt;Node11 -->
<g id="edge10_Node000002_Node000011" class="edge">
<title>Node2&#45;&gt;Node11</title>
<g id="a_edge10_Node000002_Node000011"><a xlink:title=" ">
<path fill="none" stroke="#63b8ff" d="M402.65,-115.49C410.61,-113.59 419.09,-111.64 427,-110 514.89,-91.73 540.56,-94.12 631.78,-74.09"/>
<polygon fill="#63b8ff" stroke="#63b8ff" points="632.71,-77.47 641.71,-71.88 631.19,-70.64 632.71,-77.47"/>
</a>
</g>
</g>
<!-- Node12 -->
<g id="Node000012" class="node">
<title>Node12</title>
<g id="a_Node000012"><a xlink:title=" ">
<polygon fill="#e0e0e0" stroke="#999999" points="150,-74 90,-74 90,-55 150,-55 150,-74"/>
<text text-anchor="middle" x="120" y="-62" font-family="Helvetica,sans-Serif" font-size="10.00">iostream</text>
</a>
</g>
</g>
<!-- Node2&#45;&gt;Node12 -->
<g id="edge11_Node000002_Node000012" class="edge">
<title>Node2&#45;&gt;Node12</title>
<g id="a_edge11_Node000002_Node000012"><a xlink:title=" ">
<path fill="none" stroke="#63b8ff" d="M332.79,-115.49C286.93,-104.72 208.12,-86.2 160.36,-74.98"/>
<polygon fill="#63b8ff" stroke="#63b8ff" points="160.91,-71.52 150.38,-72.64 159.31,-78.33 160.91,-71.52"/>
</a>
</g>
</g>
<!-- Node4 -->
<g id="Node000004" class="node">
<title>Node4</title>
<g id="a_Node000004"><a xlink:title=" ">
<polygon fill="#e0e0e0" stroke="#999999" points="244.5,-19 161.5,-19 161.5,0 244.5,0 244.5,-19"/>
<text text-anchor="middle" x="203" y="-7" font-family="Helvetica,sans-Serif" font-size="10.00">SDKDDKVer.h</text>
</a>
</g>
</g>
<!-- Node3&#45;&gt;Node4 -->
<g id="edge3_Node000003_Node000004" class="edge">
<title>Node3&#45;&gt;Node4</title>
<g id="a_edge3_Node000003_Node000004"><a xlink:title=" ">
<path fill="none" stroke="#63b8ff" d="M203,-54.75C203,-47.8 203,-37.85 203,-29.13"/>
<polygon fill="#63b8ff" stroke="#63b8ff" points="206.5,-29.09 203,-19.09 199.5,-29.09 206.5,-29.09"/>
</a>
</g>
</g>
<!-- Node13&#45;&gt;Node2 -->
<g id="edge13_Node000013_Node000002" class="edge">
<title>Node13&#45;&gt;Node2</title>
<g id="a_edge13_Node000013_Node000002"><a xlink:title=" ">
<path fill="none" stroke="#63b8ff" d="M433.89,-181.37C421.99,-171.21 402,-154.16 387.35,-141.65"/>
<polygon fill="#63b8ff" stroke="#63b8ff" points="389.31,-138.73 379.44,-134.91 384.77,-144.06 389.31,-138.73"/>
</a>
</g>
</g>
<!-- Node13&#45;&gt;Node11 -->
<g id="edge14_Node000013_Node000011" class="edge">
<title>Node13&#45;&gt;Node11</title>
<g id="a_edge14_Node000013_Node000011"><a xlink:title=" ">
<path fill="none" stroke="#63b8ff" d="M442.91,-181.12C441.42,-164.65 440.85,-129.3 460,-110 513.16,-56.43 553.4,-89.56 631.92,-73.95"/>
<polygon fill="#63b8ff" stroke="#63b8ff" points="632.68,-77.37 641.69,-71.8 631.17,-70.53 632.68,-77.37"/>
</a>
</g>
</g>
<!-- Node14&#45;&gt;Node11 -->
<g id="edge16_Node000014_Node000011" class="edge">
<title>Node14&#45;&gt;Node11</title>
<g id="a_edge16_Node000014_Node000011"><a xlink:title=" ">
<path fill="none" stroke="#63b8ff" d="M735.95,-181.45C692.46,-173.01 634.87,-158.66 621,-140 606.76,-120.84 627.07,-96.56 644.33,-81.03"/>
<polygon fill="#63b8ff" stroke="#63b8ff" points="647.05,-83.31 652.4,-74.16 642.51,-77.98 647.05,-83.31"/>
</a>
</g>
</g>
<!-- Node15 -->
<g id="Node000015" class="node">
<title>Node15</title>
<g id="a_Node000015"><a xlink:title=" ">
<polygon fill="#e0e0e0" stroke="#999999" points="1009.5,-74 962.5,-74 962.5,-55 1009.5,-55 1009.5,-74"/>
<text text-anchor="middle" x="986" y="-62" font-family="Helvetica,sans-Serif" font-size="10.00">vector</text>
</a>
</g>
</g>
<!-- Node14&#45;&gt;Node15 -->
<g id="edge17_Node000014_Node000015" class="edge">
<title>Node14&#45;&gt;Node15</title>
<g id="a_edge17_Node000014_Node000015"><a xlink:title=" ">
<path fill="none" stroke="#63b8ff" d="M802.51,-181.5C819.63,-171.95 847.83,-155.73 871,-140 889.09,-127.72 891.86,-122.22 910,-110 926.59,-98.82 946.08,-87.45 961.16,-79"/>
<polygon fill="#63b8ff" stroke="#63b8ff" points="962.88,-82.05 969.92,-74.14 959.48,-75.93 962.88,-82.05"/>
</a>
</g>
</g>
<!-- Node16 -->
<g id="Node000016" class="node">
<title>Node16</title>
<g id="a_Node000016"><a xlink:title=" ">
<polygon fill="#e0e0e0" stroke="#999999" points="694.5,-134.5 629.5,-134.5 629.5,-115.5 694.5,-115.5 694.5,-134.5"/>
<text text-anchor="middle" x="662" y="-122.5" font-family="Helvetica,sans-Serif" font-size="10.00">functional</text>
</a>
</g>
</g>
<!-- Node14&#45;&gt;Node16 -->
<g id="edge18_Node000014_Node000016" class="edge">
<title>Node14&#45;&gt;Node16</title>
<g id="a_edge18_Node000014_Node000016"><a xlink:title=" ">
<path fill="none" stroke="#63b8ff" d="M770.14,-181.37C749.08,-170.59 712.82,-152.02 688.14,-139.38"/>
<polygon fill="#63b8ff" stroke="#63b8ff" points="689.49,-136.14 678.99,-134.7 686.3,-142.37 689.49,-136.14"/>
</a>
</g>
</g>
<!-- Node17 -->
<g id="Node000017" class="node">
<title>Node17</title>
<g id="a_Node000017"><a xlink:href="StraightBlock_8h.html" target="_top" xlink:title="Modèle de domaine d&#39;un bloc de voie droite (Straight).">
<polygon fill="white" stroke="#666666" points="1091.5,-134.5 918.5,-134.5 918.5,-115.5 1091.5,-115.5 1091.5,-134.5"/>
<text text-anchor="middle" x="1005" y="-122.5" font-family="Helvetica,sans-Serif" font-size="10.00">Modules/Models/StraightBlock.h</text>
</a>
</g>
</g>
<!-- Node14&#45;&gt;Node17 -->
<g id="edge19_Node000014_Node000017" class="edge">
<title>Node14&#45;&gt;Node17</title>
<g id="a_edge19_Node000014_Node000017"><a xlink:title=" ">
<path fill="none" stroke="#63b8ff" d="M816.4,-181.37C855.03,-170.03 922.98,-150.08 965.9,-137.48"/>
<polygon fill="#63b8ff" stroke="#63b8ff" points="967.11,-140.77 975.72,-134.6 965.14,-134.06 967.11,-140.77"/>
</a>
</g>
</g>
<!-- Node20 -->
<g id="Node000020" class="node">
<title>Node20</title>
<g id="a_Node000020"><a xlink:href="SwitchBlock_8h.html" target="_top" xlink:title="Modèle de domaine d&#39;un aiguillage ferroviaire à 3 branches (Switch).">
<polygon fill="white" stroke="#666666" points="1276.5,-134.5 1109.5,-134.5 1109.5,-115.5 1276.5,-115.5 1276.5,-134.5"/>
<text text-anchor="middle" x="1193" y="-122.5" font-family="Helvetica,sans-Serif" font-size="10.00">Modules/Models/SwitchBlock.h</text>
</a>
</g>
</g>
<!-- Node14&#45;&gt;Node20 -->
<g id="edge24_Node000014_Node000020" class="edge">
<title>Node14&#45;&gt;Node20</title>
<g id="a_edge24_Node000014_Node000020"><a xlink:title=" ">
<path fill="none" stroke="#63b8ff" d="M841.33,-181.44C915.78,-169.7 1049.27,-148.66 1128.64,-136.15"/>
<polygon fill="#63b8ff" stroke="#63b8ff" points="1129.66,-139.53 1138.99,-134.51 1128.56,-132.61 1129.66,-139.53"/>
</a>
</g>
</g>
<!-- Node22 -->
<g id="Node000022" class="node">
<title>Node22</title>
<g id="a_Node000022"><a xlink:href="GeoParserEnums_8h.html" target="_top" xlink:title="Constantes nommées et énumérations du pipeline ferroviaire GeoParser.">
<polygon fill="white" stroke="#666666" points="862,-134.5 712,-134.5 712,-115.5 862,-115.5 862,-134.5"/>
<text text-anchor="middle" x="787" y="-122.5" font-family="Helvetica,sans-Serif" font-size="10.00">./Enums/GeoParserEnums.h</text>
</a>
</g>
</g>
<!-- Node14&#45;&gt;Node22 -->
<g id="edge30_Node000014_Node000022" class="edge">
<title>Node14&#45;&gt;Node22</title>
<g id="a_edge30_Node000014_Node000022"><a xlink:title=" ">
<path fill="none" stroke="#63b8ff" d="M787,-181.37C787,-172.16 787,-157.29 787,-145.27"/>
<polygon fill="#63b8ff" stroke="#63b8ff" points="790.5,-144.91 787,-134.91 783.5,-144.91 790.5,-144.91"/>
</a>
</g>
</g>
<!-- Node14&#45;&gt;Node23 -->
<g id="edge31_Node000014_Node000023" class="edge">
<title>Node14&#45;&gt;Node23</title>
<g id="a_edge31_Node000014_Node000023"><a xlink:title=" ">
<path fill="none" stroke="#63b8ff" d="M844.31,-181.48C858.26,-179.55 873.15,-177.59 887,-176 1060.6,-156.03 1108.26,-166.66 1284.12,-140.17"/>
<polygon fill="#63b8ff" stroke="#63b8ff" points="1284.87,-143.6 1294.23,-138.63 1283.82,-136.68 1284.87,-143.6"/>
</a>
</g>
</g>
<!-- Node17&#45;&gt;Node11 -->
<g id="edge21_Node000017_Node000011" class="edge">
<title>Node17&#45;&gt;Node11</title>
<g id="a_edge21_Node000017_Node000011"><a xlink:title=" ">
<path fill="none" stroke="#63b8ff" d="M955.42,-115.49C884.49,-103.33 756.06,-81.29 696.26,-71.03"/>
<polygon fill="#63b8ff" stroke="#63b8ff" points="696.7,-67.56 686.26,-69.32 695.52,-74.46 696.7,-67.56"/>
</a>
</g>
</g>
<!-- Node17&#45;&gt;Node15 -->
<g id="edge22_Node000017_Node000015" class="edge">
<title>Node17&#45;&gt;Node15</title>
<g id="a_edge22_Node000017_Node000015"><a xlink:title=" ">
<path fill="none" stroke="#63b8ff" d="M1002.2,-115.37C999.5,-107.07 995.35,-94.28 991.92,-83.72"/>
<polygon fill="#63b8ff" stroke="#63b8ff" points="995.23,-82.6 988.82,-74.17 988.58,-84.76 995.23,-82.6"/>
</a>
</g>
</g>
<!-- Node18 -->
<g id="Node000018" class="node">
<title>Node18</title>
<g id="a_Node000018"><a xlink:title=" ">
<polygon fill="#e0e0e0" stroke="#999999" points="1160,-74 1104,-74 1104,-55 1160,-55 1160,-74"/>
<text text-anchor="middle" x="1132" y="-62" font-family="Helvetica,sans-Serif" font-size="10.00">sstream</text>
</a>
</g>
</g>
<!-- Node17&#45;&gt;Node18 -->
<g id="edge20_Node000017_Node000018" class="edge">
<title>Node17&#45;&gt;Node18</title>
<g id="a_edge20_Node000017_Node000018"><a xlink:title=" ">
<path fill="none" stroke="#63b8ff" d="M1023.47,-115.49C1044.72,-105.7 1079.85,-89.52 1104.37,-78.23"/>
<polygon fill="#63b8ff" stroke="#63b8ff" points="1105.89,-81.38 1113.51,-74.02 1102.96,-75.02 1105.89,-81.38"/>
</a>
</g>
</g>
<!-- Node19 -->
<g id="Node000019" class="node">
<title>Node19</title>
<g id="a_Node000019"><a xlink:href="LatLon_8h.html" target="_top" xlink:title="Représentation d&#39;une coordonnée géographique WGS&#45;84 (latitude, longitude).">
<polygon fill="white" stroke="#666666" points="1086,-74 1028,-74 1028,-55 1086,-55 1086,-74"/>
<text text-anchor="middle" x="1057" y="-62" font-family="Helvetica,sans-Serif" font-size="10.00">LatLon.h</text>
</a>
</g>
</g>
<!-- Node17&#45;&gt;Node19 -->
<g id="edge23_Node000017_Node000019" class="edge">
<title>Node17&#45;&gt;Node19</title>
<g id="a_edge23_Node000017_Node000019"><a xlink:title=" ">
<path fill="none" stroke="#63b8ff" d="M1012.67,-115.37C1020.51,-106.55 1032.86,-92.66 1042.54,-81.77"/>
<polygon fill="#63b8ff" stroke="#63b8ff" points="1045.27,-83.97 1049.3,-74.17 1040.04,-79.32 1045.27,-83.97"/>
</a>
</g>
</g>
<!-- Node20&#45;&gt;Node11 -->
<g id="edge27_Node000020_Node000011" class="edge">
<title>Node20&#45;&gt;Node11</title>
<g id="a_edge27_Node000020_Node000011"><a xlink:title=" ">
<path fill="none" stroke="#63b8ff" d="M1140.03,-115.48C1127.27,-113.56 1113.66,-111.61 1101,-110 950.24,-90.87 769.4,-74.56 696.66,-68.27"/>
<polygon fill="#63b8ff" stroke="#63b8ff" points="696.59,-64.75 686.33,-67.38 695.99,-71.72 696.59,-64.75"/>
</a>
</g>
</g>
<!-- Node20&#45;&gt;Node15 -->
<g id="edge28_Node000020_Node000015" class="edge">
<title>Node20&#45;&gt;Node15</title>
<g id="a_edge28_Node000020_Node000015"><a xlink:title=" ">
<path fill="none" stroke="#63b8ff" d="M1162.9,-115.49C1124.73,-104.71 1059.13,-86.17 1019.44,-74.95"/>
<polygon fill="#63b8ff" stroke="#63b8ff" points="1020.27,-71.55 1009.7,-72.2 1018.37,-78.29 1020.27,-71.55"/>
</a>
</g>
</g>
<!-- Node20&#45;&gt;Node18 -->
<g id="edge26_Node000020_Node000018" class="edge">
<title>Node20&#45;&gt;Node18</title>
<g id="a_edge26_Node000020_Node000018"><a xlink:title=" ">
<path fill="none" stroke="#63b8ff" d="M1184,-115.37C1174.63,-106.38 1159.75,-92.11 1148.3,-81.14"/>
<polygon fill="#63b8ff" stroke="#63b8ff" points="1150.68,-78.56 1141.04,-74.17 1145.83,-83.62 1150.68,-78.56"/>
</a>
</g>
</g>
<!-- Node20&#45;&gt;Node19 -->
<g id="edge29_Node000020_Node000019" class="edge">
<title>Node20&#45;&gt;Node19</title>
<g id="a_edge29_Node000020_Node000019"><a xlink:title=" ">
<path fill="none" stroke="#63b8ff" d="M1173.22,-115.49C1150.36,-105.66 1112.51,-89.38 1086.24,-78.08"/>
<polygon fill="#63b8ff" stroke="#63b8ff" points="1087.37,-74.75 1076.8,-74.02 1084.6,-81.18 1087.37,-74.75"/>
</a>
</g>
</g>
<!-- Node21 -->
<g id="Node000021" class="node">
<title>Node21</title>
<g id="a_Node000021"><a xlink:title=" ">
<polygon fill="#e0e0e0" stroke="#999999" points="1234,-74 1178,-74 1178,-55 1234,-55 1234,-74"/>
<text text-anchor="middle" x="1206" y="-62" font-family="Helvetica,sans-Serif" font-size="10.00">optional</text>
</a>
</g>
</g>
<!-- Node20&#45;&gt;Node21 -->
<g id="edge25_Node000020_Node000021" class="edge">
<title>Node20&#45;&gt;Node21</title>
<g id="a_edge25_Node000020_Node000021"><a xlink:title=" ">
<path fill="none" stroke="#63b8ff" d="M1194.92,-115.37C1196.74,-107.16 1199.55,-94.54 1201.88,-84.05"/>
<polygon fill="#63b8ff" stroke="#63b8ff" points="1205.32,-84.69 1204.07,-74.17 1198.49,-83.17 1205.32,-84.69"/>
</a>
</g>
</g>
<!-- Node23&#45;&gt;Node11 -->
<g id="edge37_Node000023_Node000011" class="edge">
<title>Node23&#45;&gt;Node11</title>
<g id="a_edge37_Node000023_Node000011"><a xlink:title=" ">
<path fill="none" stroke="#63b8ff" d="M1294.24,-111.31C1291.46,-110.83 1288.7,-110.39 1286,-110 1061.82,-77.63 788.63,-68.45 696.27,-66.17"/>
<polygon fill="#63b8ff" stroke="#63b8ff" points="696.24,-62.67 686.16,-65.93 696.07,-69.67 696.24,-62.67"/>
</a>
</g>
</g>
<!-- Node23&#45;&gt;Node18 -->
<g id="edge36_Node000023_Node000018" class="edge">
<title>Node23&#45;&gt;Node18</title>
<g id="a_edge36_Node000023_Node000018"><a xlink:title=" ">
<path fill="none" stroke="#63b8ff" d="M1297.78,-109.99C1258.46,-99.44 1205.46,-85.21 1170.07,-75.72"/>
<polygon fill="#63b8ff" stroke="#63b8ff" points="1170.71,-72.26 1160.14,-73.05 1168.89,-79.02 1170.71,-72.26"/>
</a>
</g>
</g>
<!-- Node24 -->
<g id="Node000024" class="node">
<title>Node24</title>
<g id="a_Node000024"><a xlink:title=" ">
<polygon fill="#e0e0e0" stroke="#999999" points="1436,-74 1392,-74 1392,-55 1436,-55 1436,-74"/>
<text text-anchor="middle" x="1414" y="-62" font-family="Helvetica,sans-Serif" font-size="10.00">ctime</text>
</a>
</g>
</g>
<!-- Node23&#45;&gt;Node24 -->
<g id="edge32_Node000023_Node000024" class="edge">
<title>Node23&#45;&gt;Node24</title>
<g id="a_edge32_Node000023_Node000024"><a xlink:title=" ">
<path fill="none" stroke="#63b8ff" d="M1365.49,-109.84C1374.97,-101.17 1387.11,-90.08 1396.88,-81.15"/>
<polygon fill="#63b8ff" stroke="#63b8ff" points="1399.39,-83.6 1404.41,-74.27 1394.67,-78.43 1399.39,-83.6"/>
</a>
</g>
</g>
<!-- Node25 -->
<g id="Node000025" class="node">
<title>Node25</title>
<g id="a_Node000025"><a xlink:title=" ">
<polygon fill="#e0e0e0" stroke="#999999" points="1522,-74 1454,-74 1454,-55 1522,-55 1522,-74"/>
<text text-anchor="middle" x="1488" y="-62" font-family="Helvetica,sans-Serif" font-size="10.00">filesystem</text>
</a>
</g>
</g>
<!-- Node23&#45;&gt;Node25 -->
<g id="edge33_Node000023_Node000025" class="edge">
<title>Node23&#45;&gt;Node25</title>
<g id="a_edge33_Node000023_Node000025"><a xlink:title=" ">
<path fill="none" stroke="#63b8ff" d="M1383.05,-109.99C1405.98,-100.27 1436.24,-87.44 1458.38,-78.06"/>
<polygon fill="#63b8ff" stroke="#63b8ff" points="1459.78,-81.26 1467.62,-74.14 1457.05,-74.82 1459.78,-81.26"/>
</a>
</g>
</g>
<!-- Node26 -->
<g id="Node000026" class="node">
<title>Node26</title>
<g id="a_Node000026"><a xlink:title=" ">
<polygon fill="#e0e0e0" stroke="#999999" points="1307.5,-74 1252.5,-74 1252.5,-55 1307.5,-55 1307.5,-74"/>
<text text-anchor="middle" x="1280" y="-62" font-family="Helvetica,sans-Serif" font-size="10.00">fstream</text>
</a>
</g>
</g>
<!-- Node23&#45;&gt;Node26 -->
<g id="edge34_Node000023_Node000026" class="edge">
<title>Node23&#45;&gt;Node26</title>
<g id="a_edge34_Node000023_Node000026"><a xlink:title=" ">
<path fill="none" stroke="#63b8ff" d="M1333.05,-109.84C1322.58,-101.09 1309.14,-89.85 1298.41,-80.88"/>
<polygon fill="#63b8ff" stroke="#63b8ff" points="1300.41,-77.99 1290.49,-74.27 1295.92,-83.36 1300.41,-77.99"/>
</a>
</g>
</g>
<!-- Node27 -->
<g id="Node000027" class="node">
<title>Node27</title>
<g id="a_Node000027"><a xlink:title=" ">
<polygon fill="#e0e0e0" stroke="#999999" points="1374,-74 1326,-74 1326,-55 1374,-55 1374,-74"/>
<text text-anchor="middle" x="1350" y="-62" font-family="Helvetica,sans-Serif" font-size="10.00">mutex</text>
</a>
</g>
</g>
<!-- Node23&#45;&gt;Node27 -->
<g id="edge35_Node000023_Node000027" class="edge">
<title>Node23&#45;&gt;Node27</title>
<g id="a_edge35_Node000023_Node000027"><a xlink:title=" ">
<path fill="none" stroke="#63b8ff" d="M1350,-109.84C1350,-102.21 1350,-92.7 1350,-84.45"/>
<polygon fill="#63b8ff" stroke="#63b8ff" points="1353.5,-84.27 1350,-74.27 1346.5,-84.27 1353.5,-84.27"/>
</a>
</g>
</g>
<!-- Node28&#45;&gt;Node11 -->
<g id="edge40_Node000028_Node000011" class="edge">
<title>Node28&#45;&gt;Node11</title>
<g id="a_edge40_Node000028_Node000011"><a xlink:title=" ">
<path fill="none" stroke="#63b8ff" d="M590.35,-175.96C583.42,-159.13 575.11,-130.61 587,-110 596.74,-93.12 615.6,-82.07 632.21,-75.2"/>
<polygon fill="#63b8ff" stroke="#63b8ff" points="633.53,-78.44 641.65,-71.63 631.05,-71.89 633.53,-78.44"/>
</a>
</g>
</g>
<!-- Node29 -->
<g id="Node000029" class="node">
<title>Node29</title>
<g id="a_Node000029"><a xlink:title=" ">
<polygon fill="#e0e0e0" stroke="#999999" points="534.5,-134.5 469.5,-134.5 469.5,-115.5 534.5,-115.5 534.5,-134.5"/>
<text text-anchor="middle" x="502" y="-122.5" font-family="Helvetica,sans-Serif" font-size="10.00">stdexcept</text>
</a>
</g>
</g>
<!-- Node28&#45;&gt;Node29 -->
<g id="edge39_Node000028_Node000029" class="edge">
<title>Node28&#45;&gt;Node29</title>
<g id="a_edge39_Node000028_Node000029"><a xlink:title=" ">
<path fill="none" stroke="#63b8ff" d="M575.92,-175.8C560.29,-165.27 539.07,-150.97 523.37,-140.4"/>
<polygon fill="#63b8ff" stroke="#63b8ff" points="525.1,-137.34 514.85,-134.66 521.19,-143.15 525.1,-137.34"/>
</a>
</g>
</g>
</g>
</svg>
