<?xml version="1.0" encoding="UTF-8" standalone="no"?>
<!DOCTYPE svg PUBLIC "-//W3C//DTD SVG 1.1//EN"
 "http://www.w3.org/Graphics/SVG/1.1/DTD/svg11.dtd">
<!-- Generated by graphviz version 2.43.0 (0)
 -->
<!-- Title: SimulateurFerroviaire/Modules/GeoParser/GeoParsingTask.cpp Pages: 1 -->
<svg width="1667pt" height="368pt"
 viewBox="0.00 0.00 1666.97 368.00" xmlns="http://www.w3.org/2000/svg" xmlns:xlink="http://www.w3.org/1999/xlink">
<g id="graph0" class="graph" transform="scale(1 1) rotate(0) translate(4 364)">
<title>SimulateurFerroviaire/Modules/GeoParser/GeoParsingTask.cpp</title>
<!-- Node1 -->
<g id="Node000001" class="node">
<title>Node1</title>
<g id="a_Node000001"><a xlink:title="Implémentation de la tâche de parsing GeoJSON asynchrone.">
<polygon fill="#999999" stroke="#666666" points="1226.76,-360 1055.76,-360 1055.76,-319 1226.76,-319 1226.76,-360"/>
<text text-anchor="start" x="1063.76" y="-348" font-family="Helvetica,sans-Serif" font-size="10.00">SimulateurFerroviaire</text>
<text text-anchor="start" x="1063.76" y="-337" font-family="Helvetica,sans-Serif" font-size="10.00">/Modules/GeoParser/GeoParsing</text>
<text text-anchor="middle" x="1141.26" y="-326" font-family="Helvetica,sans-Serif" font-size="10.00">Task.cpp</text>
</a>
</g>
</g>
<!-- Node2 -->
<g id="Node000002" class="node">
<title>Node2</title>
<g id="a_Node000002"><a xlink:href="framework_8h.html" target="_top" xlink:title=" ">
<polygon fill="white" stroke="#666666" points="1231.76,-211.5 1152.76,-211.5 1152.76,-192.5 1231.76,-192.5 1231.76,-211.5"/>
<text text-anchor="middle" x="1192.26" y="-199.5" font-family="Helvetica,sans-Serif" font-size="10.00">framework.h</text>
</a>
</g>
</g>
<!-- Node1&#45;&gt;Node2 -->
<g id="edge1_Node000001_Node000002" class="edge">
<title>Node1&#45;&gt;Node2</title>
<g id="a_edge1_Node000001_Node000002"><a xlink:title=" ">
<path fill="none" stroke="#63b8ff" d="M1148.66,-318.98C1152.69,-308.35 1157.76,-294.95 1162.26,-283 1170.24,-261.82 1179.36,-237.47 1185.43,-221.25"/>
<polygon fill="#63b8ff" stroke="#63b8ff" points="1188.71,-222.47 1188.94,-211.88 1182.16,-220.02 1188.71,-222.47"/>
</a>
</g>
</g>
<!-- Node13 -->
<g id="Node000013" class="node">
<title>Node13</title>
<g id="a_Node000013"><a xlink:href="GeoParsingTask_8h.html" target="_top" xlink:title="Déclaration de la tâche de parsing GeoJSON asynchrone.">
<polygon fill="white" stroke="#666666" points="1153.26,-277.5 1051.26,-277.5 1051.26,-258.5 1153.26,-258.5 1153.26,-277.5"/>
<text text-anchor="middle" x="1102.26" y="-265.5" font-family="Helvetica,sans-Serif" font-size="10.00">GeoParsingTask.h</text>
</a>
</g>
</g>
<!-- Node1&#45;&gt;Node13 -->
<g id="edge12_Node000001_Node000013" class="edge">
<title>Node1&#45;&gt;Node13</title>
<g id="a_edge12_Node000001_Node000013"><a xlink:title=" ">
<path fill="none" stroke="#63b8ff" d="M1130.19,-318.77C1124.51,-308.66 1117.66,-296.44 1112.16,-286.64"/>
<polygon fill="#63b8ff" stroke="#63b8ff" points="1115.15,-284.83 1107.21,-277.82 1109.05,-288.25 1115.15,-284.83"/>
</a>
</g>
</g>
<!-- Node14 -->
<g id="Node000014" class="node">
<title>Node14</title>
<g id="a_Node000014"><a xlink:href="GeoParser_8h.html" target="_top" xlink:title="Orchestrateur principal du pipeline GeoJSON ferroviaire.">
<polygon fill="white" stroke="#666666" points="442.76,-277.5 271.76,-277.5 271.76,-258.5 442.76,-258.5 442.76,-277.5"/>
<text text-anchor="middle" x="357.26" y="-265.5" font-family="Helvetica,sans-Serif" font-size="10.00">Modules/GeoParser/GeoParser.h</text>
</a>
</g>
</g>
<!-- Node1&#45;&gt;Node14 -->
<g id="edge15_Node000001_Node000014" class="edge">
<title>Node1&#45;&gt;Node14</title>
<g id="a_edge15_Node000001_Node000014"><a xlink:title=" ">
<path fill="none" stroke="#63b8ff" d="M1055.49,-330.9C908.09,-317.83 607.73,-291.2 453.45,-277.53"/>
<polygon fill="#63b8ff" stroke="#63b8ff" points="453.32,-274 443.05,-276.6 452.7,-280.97 453.32,-274"/>
</a>
</g>
</g>
<!-- Node25 -->
<g id="Node000025" class="node">
<title>Node25</title>
<g id="a_Node000025"><a xlink:href="Logger_8h.html" target="_top" xlink:title="Système de journalisation à 5 niveaux de trace, un fichier par moteur.">
<polygon fill="white" stroke="#666666" points="814.76,-217 703.76,-217 703.76,-187 814.76,-187 814.76,-217"/>
<text text-anchor="start" x="711.76" y="-205" font-family="Helvetica,sans-Serif" font-size="10.00">Engine/Core/Logger</text>
<text text-anchor="middle" x="759.26" y="-194" font-family="Helvetica,sans-Serif" font-size="10.00">/Logger.h</text>
</a>
</g>
</g>
<!-- Node1&#45;&gt;Node25 -->
<g id="edge44_Node000001_Node000025" class="edge">
<title>Node1&#45;&gt;Node25</title>
<g id="a_edge44_Node000001_Node000025"><a xlink:title=" ">
<path fill="none" stroke="#63b8ff" d="M1086.12,-318.94C1011.63,-292.52 879.97,-245.82 808.59,-220.5"/>
<polygon fill="#63b8ff" stroke="#63b8ff" points="809.52,-217.12 798.93,-217.07 807.18,-223.71 809.52,-217.12"/>
</a>
</g>
</g>
<!-- Node30 -->
<g id="Node000030" class="node">
<title>Node30</title>
<g id="a_Node000030"><a xlink:href="GeoParserException_8h.html" target="_top" xlink:title="Hiérarchie d&#39;exceptions du pipeline GeoJSON ferroviaire.">
<polygon fill="white" stroke="#666666" points="1375.76,-283 1208.76,-283 1208.76,-253 1375.76,-253 1375.76,-283"/>
<text text-anchor="start" x="1216.76" y="-271" font-family="Helvetica,sans-Serif" font-size="10.00">Modules/GeoParser/Exceptions</text>
<text text-anchor="middle" x="1292.26" y="-260" font-family="Helvetica,sans-Serif" font-size="10.00">/GeoParserException.h</text>
</a>
</g>
</g>
<!-- Node1&#45;&gt;Node30 -->
<g id="edge41_Node000001_Node000030" class="edge">
<title>Node1&#45;&gt;Node30</title>
<g id="a_edge41_Node000001_Node000030"><a xlink:title=" ">
<path fill="none" stroke="#63b8ff" d="M1183.72,-318.96C1205.21,-309.07 1231.14,-297.13 1252.26,-287.41"/>
<polygon fill="#63b8ff" stroke="#63b8ff" points="1253.98,-290.47 1261.6,-283.11 1251.05,-284.11 1253.98,-290.47"/>
</a>
</g>
</g>
<!-- Node32 -->
<g id="Node000032" class="node">
<title>Node32</title>
<g id="a_Node000032"><a xlink:title=" ">
<polygon fill="#e0e0e0" stroke="#999999" points="1441.26,-277.5 1393.26,-277.5 1393.26,-258.5 1441.26,-258.5 1441.26,-277.5"/>
<text text-anchor="middle" x="1417.26" y="-265.5" font-family="Helvetica,sans-Serif" font-size="10.00">thread</text>
</a>
</g>
</g>
<!-- Node1&#45;&gt;Node32 -->
<g id="edge45_Node000001_Node000032" class="edge">
<title>Node1&#45;&gt;Node32</title>
<g id="a_edge45_Node000001_Node000032"><a xlink:title=" ">
<path fill="none" stroke="#63b8ff" d="M1226.88,-322.8C1273.89,-313.22 1332.9,-299.62 1384.26,-283 1385.89,-282.47 1387.55,-281.9 1389.21,-281.29"/>
<polygon fill="#63b8ff" stroke="#63b8ff" points="1390.61,-284.5 1398.63,-277.58 1388.04,-277.99 1390.61,-284.5"/>
</a>
</g>
</g>
<!-- Node3 -->
<g id="Node000003" class="node">
<title>Node3</title>
<g id="a_Node000003"><a xlink:href="targetver_8h.html" target="_top" xlink:title=" ">
<polygon fill="white" stroke="#666666" points="1629.26,-145.5 1559.26,-145.5 1559.26,-126.5 1629.26,-126.5 1629.26,-145.5"/>
<text text-anchor="middle" x="1594.26" y="-133.5" font-family="Helvetica,sans-Serif" font-size="10.00">targetver.h</text>
</a>
</g>
</g>
<!-- Node2&#45;&gt;Node3 -->
<g id="edge2_Node000002_Node000003" class="edge">
<title>Node2&#45;&gt;Node3</title>
<g id="a_edge2_Node000002_Node000003"><a xlink:title=" ">
<path fill="none" stroke="#63b8ff" d="M1224.63,-192.48C1232.94,-190.48 1241.9,-188.51 1250.26,-187 1382.42,-163.2 1419.03,-179.49 1550.26,-151 1553.65,-150.26 1557.16,-149.38 1560.64,-148.41"/>
<polygon fill="#63b8ff" stroke="#63b8ff" points="1561.69,-151.75 1570.27,-145.53 1559.69,-145.04 1561.69,-151.75"/>
</a>
</g>
</g>
<!-- Node5 -->
<g id="Node000005" class="node">
<title>Node5</title>
<g id="a_Node000005"><a xlink:title=" ">
<polygon fill="#e0e0e0" stroke="#999999" points="1073.26,-145.5 1005.26,-145.5 1005.26,-126.5 1073.26,-126.5 1073.26,-145.5"/>
<text text-anchor="middle" x="1039.26" y="-133.5" font-family="Helvetica,sans-Serif" font-size="10.00">windows.h</text>
</a>
</g>
</g>
<!-- Node2&#45;&gt;Node5 -->
<g id="edge4_Node000002_Node000005" class="edge">
<title>Node2&#45;&gt;Node5</title>
<g id="a_edge4_Node000002_Node000005"><a xlink:title=" ">
<path fill="none" stroke="#63b8ff" d="M1171.63,-192.37C1145.39,-181.39 1099.88,-162.36 1069.67,-149.72"/>
<polygon fill="#63b8ff" stroke="#63b8ff" points="1070.63,-146.33 1060.06,-145.7 1067.93,-152.79 1070.63,-146.33"/>
</a>
</g>
</g>
<!-- Node6 -->
<g id="Node000006" class="node">
<title>Node6</title>
<g id="a_Node000006"><a xlink:title=" ">
<polygon fill="#e0e0e0" stroke="#999999" points="1144.76,-145.5 1091.76,-145.5 1091.76,-126.5 1144.76,-126.5 1144.76,-145.5"/>
<text text-anchor="middle" x="1118.26" y="-133.5" font-family="Helvetica,sans-Serif" font-size="10.00">stdlib.h</text>
</a>
</g>
</g>
<!-- Node2&#45;&gt;Node6 -->
<g id="edge5_Node000002_Node000006" class="edge">
<title>Node2&#45;&gt;Node6</title>
<g id="a_edge5_Node000002_Node000006"><a xlink:title=" ">
<path fill="none" stroke="#63b8ff" d="M1182.28,-192.37C1170.54,-182.21 1150.82,-165.16 1136.36,-152.65"/>
<polygon fill="#63b8ff" stroke="#63b8ff" points="1138.41,-149.8 1128.56,-145.91 1133.83,-155.09 1138.41,-149.8"/>
</a>
</g>
</g>
<!-- Node7 -->
<g id="Node000007" class="node">
<title>Node7</title>
<g id="a_Node000007"><a xlink:title=" ">
<polygon fill="#e0e0e0" stroke="#999999" points="1221.76,-145.5 1162.76,-145.5 1162.76,-126.5 1221.76,-126.5 1221.76,-145.5"/>
<text text-anchor="middle" x="1192.26" y="-133.5" font-family="Helvetica,sans-Serif" font-size="10.00">malloc.h</text>
</a>
</g>
</g>
<!-- Node2&#45;&gt;Node7 -->
<g id="edge6_Node000002_Node000007" class="edge">
<title>Node2&#45;&gt;Node7</title>
<g id="a_edge6_Node000002_Node000007"><a xlink:title=" ">
<path fill="none" stroke="#63b8ff" d="M1192.26,-192.37C1192.26,-183.16 1192.26,-168.29 1192.26,-156.27"/>
<polygon fill="#63b8ff" stroke="#63b8ff" points="1195.76,-155.91 1192.26,-145.91 1188.76,-155.91 1195.76,-155.91"/>
</a>
</g>
</g>
<!-- Node8 -->
<g id="Node000008" class="node">
<title>Node8</title>
<g id="a_Node000008"><a xlink:title=" ">
<polygon fill="#e0e0e0" stroke="#999999" points="1304.76,-145.5 1239.76,-145.5 1239.76,-126.5 1304.76,-126.5 1304.76,-145.5"/>
<text text-anchor="middle" x="1272.26" y="-133.5" font-family="Helvetica,sans-Serif" font-size="10.00">memory.h</text>
</a>
</g>
</g>
<!-- Node2&#45;&gt;Node8 -->
<g id="edge7_Node000002_Node000008" class="edge">
<title>Node2&#45;&gt;Node8</title>
<g id="a_edge7_Node000002_Node000008"><a xlink:title=" ">
<path fill="none" stroke="#63b8ff" d="M1203.05,-192.37C1215.93,-182.06 1237.7,-164.65 1253.39,-152.09"/>
<polygon fill="#63b8ff" stroke="#63b8ff" points="1255.76,-154.68 1261.39,-145.7 1251.39,-149.21 1255.76,-154.68"/>
</a>
</g>
</g>
<!-- Node9 -->
<g id="Node000009" class="node">
<title>Node9</title>
<g id="a_Node000009"><a xlink:title=" ">
<polygon fill="#e0e0e0" stroke="#999999" points="1373.26,-145.5 1323.26,-145.5 1323.26,-126.5 1373.26,-126.5 1373.26,-145.5"/>
<text text-anchor="middle" x="1348.26" y="-133.5" font-family="Helvetica,sans-Serif" font-size="10.00">tchar.h</text>
</a>
</g>
</g>
<!-- Node2&#45;&gt;Node9 -->
<g id="edge8_Node000002_Node000009" class="edge">
<title>Node2&#45;&gt;Node9</title>
<g id="a_edge8_Node000002_Node000009"><a xlink:title=" ">
<path fill="none" stroke="#63b8ff" d="M1213.42,-192.34C1237.76,-182.38 1278.9,-165.53 1314.26,-151 1315.46,-150.51 1316.67,-150.01 1317.91,-149.5"/>
<polygon fill="#63b8ff" stroke="#63b8ff" points="1319.49,-152.64 1327.4,-145.59 1316.82,-146.16 1319.49,-152.64"/>
</a>
</g>
</g>
<!-- Node10 -->
<g id="Node000010" class="node">
<title>Node10</title>
<g id="a_Node000010"><a xlink:title=" ">
<polygon fill="#e0e0e0" stroke="#999999" points="1463.26,-145.5 1391.26,-145.5 1391.26,-126.5 1463.26,-126.5 1463.26,-145.5"/>
<text text-anchor="middle" x="1427.26" y="-133.5" font-family="Helvetica,sans-Serif" font-size="10.00">commctrl.h</text>
</a>
</g>
</g>
<!-- Node2&#45;&gt;Node10 -->
<g id="edge9_Node000002_Node000010" class="edge">
<title>Node2&#45;&gt;Node10</title>
<g id="a_edge9_Node000002_Node000010"><a xlink:title=" ">
<path fill="none" stroke="#63b8ff" d="M1226.71,-192.42C1264.87,-182.81 1328.16,-166.52 1382.26,-151 1384.9,-150.24 1387.61,-149.44 1390.35,-148.63"/>
<polygon fill="#63b8ff" stroke="#63b8ff" points="1391.64,-151.89 1400.19,-145.63 1389.6,-145.2 1391.64,-151.89"/>
</a>
</g>
</g>
<!-- Node11 -->
<g id="Node000011" class="node">
<title>Node11</title>
<g id="a_Node000011"><a xlink:title=" ">
<polygon fill="#e0e0e0" stroke="#999999" points="575.26,-19 531.26,-19 531.26,0 575.26,0 575.26,-19"/>
<text text-anchor="middle" x="553.26" y="-7" font-family="Helvetica,sans-Serif" font-size="10.00">string</text>
</a>
</g>
</g>
<!-- Node2&#45;&gt;Node11 -->
<g id="edge10_Node000002_Node000011" class="edge">
<title>Node2&#45;&gt;Node11</title>
<g id="a_edge10_Node000002_Node000011"><a xlink:title=" ">
<path fill="none" stroke="#63b8ff" d="M1152.37,-200.68C1109.2,-198.3 1040.59,-188.32 996.26,-151 960.49,-120.89 991.03,-82.55 953.26,-55 894.86,-12.4 669.58,-9.59 585.31,-10.08"/>
<polygon fill="#63b8ff" stroke="#63b8ff" points="585.27,-6.58 575.3,-10.16 585.33,-13.58 585.27,-6.58"/>
</a>
</g>
</g>
<!-- Node12 -->
<g id="Node000012" class="node">
<title>Node12</title>
<g id="a_Node000012"><a xlink:title=" ">
<polygon fill="#e0e0e0" stroke="#999999" points="1541.26,-145.5 1481.26,-145.5 1481.26,-126.5 1541.26,-126.5 1541.26,-145.5"/>
<text text-anchor="middle" x="1511.26" y="-133.5" font-family="Helvetica,sans-Serif" font-size="10.00">iostream</text>
</a>
</g>
</g>
<!-- Node2&#45;&gt;Node12 -->
<g id="edge11_Node000002_Node000012" class="edge">
<title>Node2&#45;&gt;Node12</title>
<g id="a_edge11_Node000002_Node000012"><a xlink:title=" ">
<path fill="none" stroke="#63b8ff" d="M1225.59,-192.49C1233.64,-190.57 1242.24,-188.62 1250.26,-187 1348.25,-167.26 1375.48,-175.99 1472.26,-151 1474.76,-150.35 1477.32,-149.62 1479.89,-148.82"/>
<polygon fill="#63b8ff" stroke="#63b8ff" points="1481.24,-152.06 1489.62,-145.57 1479.02,-145.42 1481.24,-152.06"/>
</a>
</g>
</g>
<!-- Node4 -->
<g id="Node000004" class="node">
<title>Node4</title>
<g id="a_Node000004"><a xlink:title=" ">
<polygon fill="#e0e0e0" stroke="#999999" points="1628.76,-79.5 1545.76,-79.5 1545.76,-60.5 1628.76,-60.5 1628.76,-79.5"/>
<text text-anchor="middle" x="1587.26" y="-67.5" font-family="Helvetica,sans-Serif" font-size="10.00">SDKDDKVer.h</text>
</a>
</g>
</g>
<!-- Node3&#45;&gt;Node4 -->
<g id="edge3_Node000003_Node000004" class="edge">
<title>Node3&#45;&gt;Node4</title>
<g id="a_edge3_Node000003_Node000004"><a xlink:title=" ">
<path fill="none" stroke="#63b8ff" d="M1593.32,-126.37C1592.3,-117.07 1590.65,-101.98 1589.33,-89.9"/>
<polygon fill="#63b8ff" stroke="#63b8ff" points="1592.8,-89.47 1588.23,-79.91 1585.84,-90.23 1592.8,-89.47"/>
</a>
</g>
</g>
<!-- Node13&#45;&gt;Node2 -->
<g id="edge13_Node000013_Node000002" class="edge">
<title>Node13&#45;&gt;Node2</title>
<g id="a_edge13_Node000013_Node000002"><a xlink:title=" ">
<path fill="none" stroke="#63b8ff" d="M1114.4,-258.37C1129.02,-247.97 1153.84,-230.32 1171.52,-217.75"/>
<polygon fill="#63b8ff" stroke="#63b8ff" points="1173.91,-220.35 1180.03,-211.7 1169.85,-214.64 1173.91,-220.35"/>
</a>
</g>
</g>
<!-- Node13&#45;&gt;Node11 -->
<g id="edge14_Node000013_Node000011" class="edge">
<title>Node13&#45;&gt;Node11</title>
<g id="a_edge14_Node000013_Node000011"><a xlink:title=" ">
<path fill="none" stroke="#63b8ff" d="M1094.03,-258.39C1069.79,-233.48 995.54,-160.6 920.26,-121 805.07,-60.4 651.64,-27.89 585.66,-15.93"/>
<polygon fill="#63b8ff" stroke="#63b8ff" points="585.94,-12.42 575.48,-14.12 584.71,-19.32 585.94,-12.42"/>
</a>
</g>
</g>
<!-- Node14&#45;&gt;Node11 -->
<g id="edge16_Node000014_Node000011" class="edge">
<title>Node14&#45;&gt;Node11</title>
<g id="a_edge16_Node000014_Node000011"><a xlink:title=" ">
<path fill="none" stroke="#63b8ff" d="M271.46,-267.19C178.54,-265.34 39.04,-255.92 5.26,-217 -3.48,-206.93 0.66,-199.52 5.26,-187 32.27,-113.41 52.15,-90.07 122.26,-55 192.25,-19.99 433.19,-12.49 520.95,-10.91"/>
<polygon fill="#63b8ff" stroke="#63b8ff" points="521.17,-14.41 531.11,-10.75 521.06,-7.41 521.17,-14.41"/>
</a>
</g>
</g>
<!-- Node15 -->
<g id="Node000015" class="node">
<title>Node15</title>
<g id="a_Node000015"><a xlink:title=" ">
<polygon fill="#e0e0e0" stroke="#999999" points="337.76,-145.5 290.76,-145.5 290.76,-126.5 337.76,-126.5 337.76,-145.5"/>
<text text-anchor="middle" x="314.26" y="-133.5" font-family="Helvetica,sans-Serif" font-size="10.00">vector</text>
</a>
</g>
</g>
<!-- Node14&#45;&gt;Node15 -->
<g id="edge17_Node000014_Node000015" class="edge">
<title>Node14&#45;&gt;Node15</title>
<g id="a_edge17_Node000014_Node000015"><a xlink:title=" ">
<path fill="none" stroke="#63b8ff" d="M349.83,-258.47C342.05,-249.02 330.17,-233 324.26,-217 316.85,-196.94 314.72,-172.34 314.21,-155.76"/>
<polygon fill="#63b8ff" stroke="#63b8ff" points="317.71,-155.66 314.07,-145.71 310.71,-155.76 317.71,-155.66"/>
</a>
</g>
</g>
<!-- Node16 -->
<g id="Node000016" class="node">
<title>Node16</title>
<g id="a_Node000016"><a xlink:title=" ">
<polygon fill="#e0e0e0" stroke="#999999" points="276.76,-211.5 211.76,-211.5 211.76,-192.5 276.76,-192.5 276.76,-211.5"/>
<text text-anchor="middle" x="244.26" y="-199.5" font-family="Helvetica,sans-Serif" font-size="10.00">functional</text>
</a>
</g>
</g>
<!-- Node14&#45;&gt;Node16 -->
<g id="edge18_Node000014_Node000016" class="edge">
<title>Node14&#45;&gt;Node16</title>
<g id="a_edge18_Node000014_Node000016"><a xlink:title=" ">
<path fill="none" stroke="#63b8ff" d="M342.02,-258.37C323.15,-247.68 290.78,-229.35 268.49,-216.72"/>
<polygon fill="#63b8ff" stroke="#63b8ff" points="270.04,-213.58 259.62,-211.7 266.6,-219.67 270.04,-213.58"/>
</a>
</g>
</g>
<!-- Node17 -->
<g id="Node000017" class="node">
<title>Node17</title>
<g id="a_Node000017"><a xlink:href="StraightBlock_8h.html" target="_top" xlink:title="Modèle de domaine d&#39;un bloc de voie droite (Straight).">
<polygon fill="white" stroke="#666666" points="685.76,-217 500.76,-217 500.76,-187 685.76,-187 685.76,-217"/>
<text text-anchor="start" x="508.76" y="-205" font-family="Helvetica,sans-Serif" font-size="10.00">Modules/InteractiveElements</text>
<text text-anchor="middle" x="593.26" y="-194" font-family="Helvetica,sans-Serif" font-size="10.00">/ShuntingElements/StraightBlock.h</text>
</a>
</g>
</g>
<!-- Node14&#45;&gt;Node17 -->
<g id="edge19_Node000014_Node000017" class="edge">
<title>Node14&#45;&gt;Node17</title>
<g id="a_edge19_Node000014_Node000017"><a xlink:title=" ">
<path fill="none" stroke="#63b8ff" d="M389.09,-258.37C425.42,-248.51 485.73,-232.16 531.41,-219.77"/>
<polygon fill="#63b8ff" stroke="#63b8ff" points="532.47,-223.11 541.21,-217.12 530.64,-216.36 532.47,-223.11"/>
</a>
</g>
</g>
<!-- Node22 -->
<g id="Node000022" class="node">
<title>Node22</title>
<g id="a_Node000022"><a xlink:href="SwitchBlock_8h.html" target="_top" xlink:title="Modèle de domaine d&#39;un aiguillage ferroviaire à 3 branches (Switch).">
<polygon fill="white" stroke="#666666" points="193.76,-217 14.76,-217 14.76,-187 193.76,-187 193.76,-217"/>
<text text-anchor="start" x="22.76" y="-205" font-family="Helvetica,sans-Serif" font-size="10.00">Modules/InteractiveElements</text>
<text text-anchor="middle" x="104.26" y="-194" font-family="Helvetica,sans-Serif" font-size="10.00">/ShuntingElements/SwitchBlock.h</text>
</a>
</g>
</g>
<!-- Node14&#45;&gt;Node22 -->
<g id="edge27_Node000014_Node000022" class="edge">
<title>Node14&#45;&gt;Node22</title>
<g id="a_edge27_Node000014_Node000022"><a xlink:title=" ">
<path fill="none" stroke="#63b8ff" d="M323.4,-258.44C284.22,-248.52 218.81,-231.98 169.62,-219.53"/>
<polygon fill="#63b8ff" stroke="#63b8ff" points="170.25,-216.08 159.7,-217.02 168.54,-222.87 170.25,-216.08"/>
</a>
</g>
</g>
<!-- Node24 -->
<g id="Node000024" class="node">
<title>Node24</title>
<g id="a_Node000024"><a xlink:href="GeoParserEnums_8h.html" target="_top" xlink:title="Constantes nommées et énumérations du pipeline ferroviaire GeoParser.">
<polygon fill="white" stroke="#666666" points="483.26,-211.5 333.26,-211.5 333.26,-192.5 483.26,-192.5 483.26,-211.5"/>
<text text-anchor="middle" x="408.26" y="-199.5" font-family="Helvetica,sans-Serif" font-size="10.00">./Enums/GeoParserEnums.h</text>
</a>
</g>
</g>
<!-- Node14&#45;&gt;Node24 -->
<g id="edge33_Node000014_Node000024" class="edge">
<title>Node14&#45;&gt;Node24</title>
<g id="a_edge33_Node000014_Node000024"><a xlink:title=" ">
<path fill="none" stroke="#63b8ff" d="M364.14,-258.37C371.93,-248.59 384.81,-232.42 394.65,-220.08"/>
<polygon fill="#63b8ff" stroke="#63b8ff" points="397.67,-221.91 401.16,-211.91 392.19,-217.54 397.67,-221.91"/>
</a>
</g>
</g>
<!-- Node14&#45;&gt;Node25 -->
<g id="edge34_Node000014_Node000025" class="edge">
<title>Node14&#45;&gt;Node25</title>
<g id="a_edge34_Node000014_Node000025"><a xlink:title=" ">
<path fill="none" stroke="#63b8ff" d="M423.33,-258.49C489.24,-249.7 593.57,-235.01 693.66,-217.03"/>
<polygon fill="#63b8ff" stroke="#63b8ff" points="694.42,-220.45 703.64,-215.23 693.17,-213.56 694.42,-220.45"/>
</a>
</g>
</g>
<!-- Node17&#45;&gt;Node11 -->
<g id="edge21_Node000017_Node000011" class="edge">
<title>Node17&#45;&gt;Node11</title>
<g id="a_edge21_Node000017_Node000011"><a xlink:title=" ">
<path fill="none" stroke="#63b8ff" d="M518.3,-186.97C464.58,-176.15 400.34,-161.34 392.26,-151 378.16,-132.97 391.13,-69.67 404.26,-55 433.75,-22.06 486.49,-13.05 520.66,-10.84"/>
<polygon fill="#63b8ff" stroke="#63b8ff" points="521.23,-14.32 531.05,-10.34 520.89,-7.32 521.23,-14.32"/>
</a>
</g>
</g>
<!-- Node17&#45;&gt;Node15 -->
<g id="edge22_Node000017_Node000015" class="edge">
<title>Node17&#45;&gt;Node15</title>
<g id="a_edge22_Node000017_Node000015"><a xlink:title=" ">
<path fill="none" stroke="#63b8ff" d="M519.34,-187C473.09,-177.8 412.41,-164.91 359.26,-151 355.45,-150 351.48,-148.89 347.55,-147.73"/>
<polygon fill="#63b8ff" stroke="#63b8ff" points="348.55,-144.37 337.96,-144.82 346.52,-151.07 348.55,-144.37"/>
</a>
</g>
</g>
<!-- Node18 -->
<g id="Node000018" class="node">
<title>Node18</title>
<g id="a_Node000018"><a xlink:title=" ">
<polygon fill="#e0e0e0" stroke="#999999" points="585.26,-145.5 529.26,-145.5 529.26,-126.5 585.26,-126.5 585.26,-145.5"/>
<text text-anchor="middle" x="557.26" y="-133.5" font-family="Helvetica,sans-Serif" font-size="10.00">sstream</text>
</a>
</g>
</g>
<!-- Node17&#45;&gt;Node18 -->
<g id="edge20_Node000017_Node000018" class="edge">
<title>Node17&#45;&gt;Node18</title>
<g id="a_edge20_Node000017_Node000018"><a xlink:title=" ">
<path fill="none" stroke="#63b8ff" d="M585.27,-186.8C579.93,-177.31 572.87,-164.76 567.18,-154.63"/>
<polygon fill="#63b8ff" stroke="#63b8ff" points="570.19,-152.84 562.23,-145.84 564.09,-156.28 570.19,-152.84"/>
</a>
</g>
</g>
<!-- Node19 -->
<g id="Node000019" class="node">
<title>Node19</title>
<g id="a_Node000019"><a xlink:href="ShuntingElement_8h.html" target="_top" xlink:title="Interface abstraite pour tous les éléments de shuntage ferroviaire.">
<polygon fill="white" stroke="#666666" points="510.76,-145.5 401.76,-145.5 401.76,-126.5 510.76,-126.5 510.76,-145.5"/>
<text text-anchor="middle" x="456.26" y="-133.5" font-family="Helvetica,sans-Serif" font-size="10.00">ShuntingElement.h</text>
</a>
</g>
</g>
<!-- Node17&#45;&gt;Node19 -->
<g id="edge23_Node000017_Node000019" class="edge">
<title>Node17&#45;&gt;Node19</title>
<g id="a_edge23_Node000017_Node000019"><a xlink:title=" ">
<path fill="none" stroke="#63b8ff" d="M563.19,-186.95C539.49,-175.88 506.69,-160.56 483.69,-149.82"/>
<polygon fill="#63b8ff" stroke="#63b8ff" points="485.03,-146.58 474.49,-145.52 482.07,-152.92 485.03,-146.58"/>
</a>
</g>
</g>
<!-- Node21 -->
<g id="Node000021" class="node">
<title>Node21</title>
<g id="a_Node000021"><a xlink:href="LatLon_8h.html" target="_top" xlink:title="Représentation d&#39;une coordonnée géographique WGS&#45;84 (latitude, longitude).">
<polygon fill="white" stroke="#666666" points="272.76,-151 153.76,-151 153.76,-121 272.76,-121 272.76,-151"/>
<text text-anchor="start" x="161.76" y="-139" font-family="Helvetica,sans-Serif" font-size="10.00">Modules/Coordinates</text>
<text text-anchor="middle" x="213.26" y="-128" font-family="Helvetica,sans-Serif" font-size="10.00">/LatLon.h</text>
</a>
</g>
</g>
<!-- Node17&#45;&gt;Node21 -->
<g id="edge26_Node000017_Node000021" class="edge">
<title>Node17&#45;&gt;Node21</title>
<g id="a_edge26_Node000017_Node000021"><a xlink:title=" ">
<path fill="none" stroke="#63b8ff" d="M500.58,-187.24C440.97,-178.14 361.61,-165.54 283.01,-151.28"/>
<polygon fill="#63b8ff" stroke="#63b8ff" points="283.4,-147.79 272.93,-149.44 282.14,-154.68 283.4,-147.79"/>
</a>
</g>
</g>
<!-- Node20 -->
<g id="Node000020" class="node">
<title>Node20</title>
<g id="a_Node000020"><a xlink:href="InteractiveElement_8h.html" target="_top" xlink:title="Classe de base abstraite pour tous les éléments interactifs ferroviaires.">
<polygon fill="white" stroke="#666666" points="572.76,-85 413.76,-85 413.76,-55 572.76,-55 572.76,-85"/>
<text text-anchor="start" x="421.76" y="-73" font-family="Helvetica,sans-Serif" font-size="10.00">Modules/InteractiveElements</text>
<text text-anchor="middle" x="493.26" y="-62" font-family="Helvetica,sans-Serif" font-size="10.00">/InteractiveElement.h</text>
</a>
</g>
</g>
<!-- Node19&#45;&gt;Node20 -->
<g id="edge24_Node000019_Node000020" class="edge">
<title>Node19&#45;&gt;Node20</title>
<g id="a_edge24_Node000019_Node000020"><a xlink:title=" ">
<path fill="none" stroke="#63b8ff" d="M461.25,-126.37C466,-118.16 473.35,-105.44 479.81,-94.26"/>
<polygon fill="#63b8ff" stroke="#63b8ff" points="482.98,-95.77 484.96,-85.36 476.92,-92.27 482.98,-95.77"/>
</a>
</g>
</g>
<!-- Node20&#45;&gt;Node11 -->
<g id="edge25_Node000020_Node000011" class="edge">
<title>Node20&#45;&gt;Node11</title>
<g id="a_edge25_Node000020_Node000011"><a xlink:title=" ">
<path fill="none" stroke="#63b8ff" d="M507.78,-54.84C516.58,-46.26 527.83,-35.3 536.93,-26.42"/>
<polygon fill="#63b8ff" stroke="#63b8ff" points="539.55,-28.75 544.27,-19.27 534.67,-23.74 539.55,-28.75"/>
</a>
</g>
</g>
<!-- Node22&#45;&gt;Node11 -->
<g id="edge30_Node000022_Node000011" class="edge">
<title>Node22&#45;&gt;Node11</title>
<g id="a_edge30_Node000022_Node000011"><a xlink:title=" ">
<path fill="none" stroke="#63b8ff" d="M89.91,-186.77C74.51,-169.76 54.27,-141.06 70.26,-121 127.23,-49.53 422.44,-20.57 521.11,-12.8"/>
<polygon fill="#63b8ff" stroke="#63b8ff" points="521.38,-16.28 531.09,-12.03 520.85,-9.31 521.38,-16.28"/>
</a>
</g>
</g>
<!-- Node22&#45;&gt;Node15 -->
<g id="edge31_Node000022_Node000015" class="edge">
<title>Node22&#45;&gt;Node15</title>
<g id="a_edge31_Node000022_Node000015"><a xlink:title=" ">
<path fill="none" stroke="#63b8ff" d="M161.03,-186.91C196.03,-177.75 241.65,-164.93 281.26,-151 282.69,-150.5 284.15,-149.96 285.61,-149.41"/>
<polygon fill="#63b8ff" stroke="#63b8ff" points="287.24,-152.52 295.22,-145.56 284.64,-146.03 287.24,-152.52"/>
</a>
</g>
</g>
<!-- Node22&#45;&gt;Node18 -->
<g id="edge29_Node000022_Node000018" class="edge">
<title>Node22&#45;&gt;Node18</title>
<g id="a_edge29_Node000022_Node000018"><a xlink:title=" ">
<path fill="none" stroke="#63b8ff" d="M193.97,-188.08C196.76,-187.71 199.53,-187.35 202.26,-187 342.9,-168.97 381.3,-183.74 519.26,-151 521.77,-150.4 524.35,-149.69 526.92,-148.9"/>
<polygon fill="#63b8ff" stroke="#63b8ff" points="528.28,-152.14 536.63,-145.62 526.04,-145.51 528.28,-152.14"/>
</a>
</g>
</g>
<!-- Node22&#45;&gt;Node21 -->
<g id="edge32_Node000022_Node000021" class="edge">
<title>Node22&#45;&gt;Node21</title>
<g id="a_edge32_Node000022_Node000021"><a xlink:title=" ">
<path fill="none" stroke="#63b8ff" d="M128.18,-186.95C143.51,-177.95 163.62,-166.14 180.44,-156.27"/>
<polygon fill="#63b8ff" stroke="#63b8ff" points="182.54,-159.09 189.39,-151.01 179,-153.06 182.54,-159.09"/>
</a>
</g>
</g>
<!-- Node23 -->
<g id="Node000023" class="node">
<title>Node23</title>
<g id="a_Node000023"><a xlink:title=" ">
<polygon fill="#e0e0e0" stroke="#999999" points="135.26,-145.5 79.26,-145.5 79.26,-126.5 135.26,-126.5 135.26,-145.5"/>
<text text-anchor="middle" x="107.26" y="-133.5" font-family="Helvetica,sans-Serif" font-size="10.00">optional</text>
</a>
</g>
</g>
<!-- Node22&#45;&gt;Node23 -->
<g id="edge28_Node000022_Node000023" class="edge">
<title>Node22&#45;&gt;Node23</title>
<g id="a_edge28_Node000022_Node000023"><a xlink:title=" ">
<path fill="none" stroke="#63b8ff" d="M104.93,-186.8C105.35,-177.7 105.91,-165.79 106.37,-155.9"/>
<polygon fill="#63b8ff" stroke="#63b8ff" points="109.87,-156 106.84,-145.84 102.88,-155.67 109.87,-156"/>
</a>
</g>
</g>
<!-- Node25&#45;&gt;Node11 -->
<g id="edge40_Node000025_Node000011" class="edge">
<title>Node25&#45;&gt;Node11</title>
<g id="a_edge40_Node000025_Node000011"><a xlink:title=" ">
<path fill="none" stroke="#63b8ff" d="M703.67,-188.42C679.56,-180.77 652.32,-168.91 632.26,-151 596.22,-118.83 605.47,-96.81 581.26,-55 576,-45.92 569.81,-36.01 564.6,-27.86"/>
<polygon fill="#63b8ff" stroke="#63b8ff" points="567.4,-25.75 559.03,-19.25 561.52,-29.55 567.4,-25.75"/>
</a>
</g>
</g>
<!-- Node25&#45;&gt;Node18 -->
<g id="edge39_Node000025_Node000018" class="edge">
<title>Node25&#45;&gt;Node18</title>
<g id="a_edge39_Node000025_Node000018"><a xlink:title=" ">
<path fill="none" stroke="#63b8ff" d="M713.32,-186.9C681.3,-177 637.62,-163.38 599.26,-151 596.98,-150.26 594.63,-149.5 592.26,-148.72"/>
<polygon fill="#63b8ff" stroke="#63b8ff" points="593.15,-145.33 582.55,-145.52 590.95,-151.98 593.15,-145.33"/>
</a>
</g>
</g>
<!-- Node26 -->
<g id="Node000026" class="node">
<title>Node26</title>
<g id="a_Node000026"><a xlink:title=" ">
<polygon fill="#e0e0e0" stroke="#999999" points="911.26,-145.5 867.26,-145.5 867.26,-126.5 911.26,-126.5 911.26,-145.5"/>
<text text-anchor="middle" x="889.26" y="-133.5" font-family="Helvetica,sans-Serif" font-size="10.00">ctime</text>
</a>
</g>
</g>
<!-- Node25&#45;&gt;Node26 -->
<g id="edge35_Node000025_Node000026" class="edge">
<title>Node25&#45;&gt;Node26</title>
<g id="a_edge35_Node000025_Node000026"><a xlink:title=" ">
<path fill="none" stroke="#63b8ff" d="M787.79,-186.95C810.19,-175.93 841.12,-160.7 862.93,-149.96"/>
<polygon fill="#63b8ff" stroke="#63b8ff" points="864.53,-153.07 871.96,-145.52 861.44,-146.79 864.53,-153.07"/>
</a>
</g>
</g>
<!-- Node27 -->
<g id="Node000027" class="node">
<title>Node27</title>
<g id="a_Node000027"><a xlink:title=" ">
<polygon fill="#e0e0e0" stroke="#999999" points="709.26,-145.5 641.26,-145.5 641.26,-126.5 709.26,-126.5 709.26,-145.5"/>
<text text-anchor="middle" x="675.26" y="-133.5" font-family="Helvetica,sans-Serif" font-size="10.00">filesystem</text>
</a>
</g>
</g>
<!-- Node25&#45;&gt;Node27 -->
<g id="edge36_Node000025_Node000027" class="edge">
<title>Node25&#45;&gt;Node27</title>
<g id="a_edge36_Node000025_Node000027"><a xlink:title=" ">
<path fill="none" stroke="#63b8ff" d="M740.62,-186.8C727.14,-176.53 708.95,-162.67 695.18,-152.18"/>
<polygon fill="#63b8ff" stroke="#63b8ff" points="696.94,-149.12 686.87,-145.84 692.7,-154.69 696.94,-149.12"/>
</a>
</g>
</g>
<!-- Node28 -->
<g id="Node000028" class="node">
<title>Node28</title>
<g id="a_Node000028"><a xlink:title=" ">
<polygon fill="#e0e0e0" stroke="#999999" points="782.76,-145.5 727.76,-145.5 727.76,-126.5 782.76,-126.5 782.76,-145.5"/>
<text text-anchor="middle" x="755.26" y="-133.5" font-family="Helvetica,sans-Serif" font-size="10.00">fstream</text>
</a>
</g>
</g>
<!-- Node25&#45;&gt;Node28 -->
<g id="edge37_Node000025_Node000028" class="edge">
<title>Node25&#45;&gt;Node28</title>
<g id="a_edge37_Node000025_Node000028"><a xlink:title=" ">
<path fill="none" stroke="#63b8ff" d="M758.37,-186.8C757.8,-177.7 757.06,-165.79 756.44,-155.9"/>
<polygon fill="#63b8ff" stroke="#63b8ff" points="759.93,-155.61 755.81,-145.84 752.94,-156.04 759.93,-155.61"/>
</a>
</g>
</g>
<!-- Node29 -->
<g id="Node000029" class="node">
<title>Node29</title>
<g id="a_Node000029"><a xlink:title=" ">
<polygon fill="#e0e0e0" stroke="#999999" points="849.26,-145.5 801.26,-145.5 801.26,-126.5 849.26,-126.5 849.26,-145.5"/>
<text text-anchor="middle" x="825.26" y="-133.5" font-family="Helvetica,sans-Serif" font-size="10.00">mutex</text>
</a>
</g>
</g>
<!-- Node25&#45;&gt;Node29 -->
<g id="edge38_Node000025_Node000029" class="edge">
<title>Node25&#45;&gt;Node29</title>
<g id="a_edge38_Node000025_Node000029"><a xlink:title=" ">
<path fill="none" stroke="#63b8ff" d="M773.91,-186.8C784.2,-176.82 797.98,-163.46 808.67,-153.09"/>
<polygon fill="#63b8ff" stroke="#63b8ff" points="811.4,-155.32 816.14,-145.84 806.52,-150.29 811.4,-155.32"/>
</a>
</g>
</g>
<!-- Node30&#45;&gt;Node11 -->
<g id="edge43_Node000030_Node000011" class="edge">
<title>Node30&#45;&gt;Node11</title>
<g id="a_edge43_Node000030_Node000011"><a xlink:title=" ">
<path fill="none" stroke="#63b8ff" d="M1364.93,-252.94C1456.51,-233.58 1605.93,-195.94 1638.26,-151 1663.18,-116.37 1667.8,-85.78 1638.26,-55 1600.9,-16.07 762.5,-11.18 585.78,-10.58"/>
<polygon fill="#63b8ff" stroke="#63b8ff" points="585.57,-7.08 575.56,-10.55 585.55,-14.08 585.57,-7.08"/>
</a>
</g>
</g>
<!-- Node31 -->
<g id="Node000031" class="node">
<title>Node31</title>
<g id="a_Node000031"><a xlink:title=" ">
<polygon fill="#e0e0e0" stroke="#999999" points="1324.76,-211.5 1259.76,-211.5 1259.76,-192.5 1324.76,-192.5 1324.76,-211.5"/>
<text text-anchor="middle" x="1292.26" y="-199.5" font-family="Helvetica,sans-Serif" font-size="10.00">stdexcept</text>
</a>
</g>
</g>
<!-- Node30&#45;&gt;Node31 -->
<g id="edge42_Node000030_Node000031" class="edge">
<title>Node30&#45;&gt;Node31</title>
<g id="a_edge42_Node000030_Node000031"><a xlink:title=" ">
<path fill="none" stroke="#63b8ff" d="M1292.26,-252.8C1292.26,-243.7 1292.26,-231.79 1292.26,-221.9"/>
<polygon fill="#63b8ff" stroke="#63b8ff" points="1295.76,-221.84 1292.26,-211.84 1288.76,-221.84 1295.76,-221.84"/>
</a>
</g>
</g>
</g>
</svg>
