<?xml version="1.0" encoding="UTF-8" standalone="no"?>
<!DOCTYPE svg PUBLIC "-//W3C//DTD SVG 1.1//EN"
 "http://www.w3.org/Graphics/SVG/1.1/DTD/svg11.dtd">
<!-- Generated by graphviz version 2.43.0 (0)
 -->
<!-- Title: SimulateurFerroviaire/Modules/GeoParser/GeoParser.h Pages: 1 -->
<svg width="986pt" height="291pt"
 viewBox="0.00 0.00 985.74 291.00" xmlns="http://www.w3.org/2000/svg" xmlns:xlink="http://www.w3.org/1999/xlink">
<g id="graph0" class="graph" transform="scale(1 1) rotate(0) translate(4 287)">
<title>SimulateurFerroviaire/Modules/GeoParser/GeoParser.h</title>
<!-- Node1 -->
<g id="Node000001" class="node">
<title>Node1</title>
<g id="a_Node000001"><a xlink:title="Orchestrateur principal du pipeline GeoJSON ferroviaire.">
<polygon fill="#999999" stroke="#666666" points="595.74,-283 421.74,-283 421.74,-253 595.74,-253 595.74,-283"/>
<text text-anchor="start" x="429.74" y="-271" font-family="Helvetica,sans-Serif" font-size="10.00">SimulateurFerroviaire</text>
<text text-anchor="middle" x="508.74" y="-260" font-family="Helvetica,sans-Serif" font-size="10.00">/Modules/GeoParser/GeoParser.h</text>
</a>
</g>
</g>
<!-- Node2 -->
<g id="Node000002" class="node">
<title>Node2</title>
<g id="a_Node000002"><a xlink:title=" ">
<polygon fill="#e0e0e0" stroke="#999999" points="229.74,-19 185.74,-19 185.74,0 229.74,0 229.74,-19"/>
<text text-anchor="middle" x="207.74" y="-7" font-family="Helvetica,sans-Serif" font-size="10.00">string</text>
</a>
</g>
</g>
<!-- Node1&#45;&gt;Node2 -->
<g id="edge1_Node000001_Node000002" class="edge">
<title>Node1&#45;&gt;Node2</title>
<g id="a_edge1_Node000001_Node000002"><a xlink:title=" ">
<path fill="none" stroke="#63b8ff" d="M421.6,-262.13C352.04,-256.36 252.81,-243.87 169.74,-217 109.22,-197.42 86.81,-196.87 42.74,-151 11.68,-118.67 -16.23,-90.04 11.74,-55 31.86,-29.8 125.12,-17.79 175.4,-13.06"/>
<polygon fill="#63b8ff" stroke="#63b8ff" points="175.79,-16.54 185.44,-12.16 175.16,-9.57 175.79,-16.54"/>
</a>
</g>
</g>
<!-- Node3 -->
<g id="Node000003" class="node">
<title>Node3</title>
<g id="a_Node000003"><a xlink:title=" ">
<polygon fill="#e0e0e0" stroke="#999999" points="414.24,-145.5 367.24,-145.5 367.24,-126.5 414.24,-126.5 414.24,-145.5"/>
<text text-anchor="middle" x="390.74" y="-133.5" font-family="Helvetica,sans-Serif" font-size="10.00">vector</text>
</a>
</g>
</g>
<!-- Node1&#45;&gt;Node3 -->
<g id="edge2_Node000001_Node000003" class="edge">
<title>Node1&#45;&gt;Node3</title>
<g id="a_edge2_Node000001_Node000003"><a xlink:title=" ">
<path fill="none" stroke="#63b8ff" d="M462.49,-252.91C443.94,-245.09 423.88,-233.52 410.74,-217 396.78,-199.45 392.41,-173.41 391.13,-155.85"/>
<polygon fill="#63b8ff" stroke="#63b8ff" points="394.62,-155.54 390.66,-145.71 387.63,-155.87 394.62,-155.54"/>
</a>
</g>
</g>
<!-- Node4 -->
<g id="Node000004" class="node">
<title>Node4</title>
<g id="a_Node000004"><a xlink:title=" ">
<polygon fill="#e0e0e0" stroke="#999999" points="810.24,-211.5 745.24,-211.5 745.24,-192.5 810.24,-192.5 810.24,-211.5"/>
<text text-anchor="middle" x="777.74" y="-199.5" font-family="Helvetica,sans-Serif" font-size="10.00">functional</text>
</a>
</g>
</g>
<!-- Node1&#45;&gt;Node4 -->
<g id="edge3_Node000001_Node000004" class="edge">
<title>Node1&#45;&gt;Node4</title>
<g id="a_edge3_Node000001_Node000004"><a xlink:title=" ">
<path fill="none" stroke="#63b8ff" d="M582.68,-252.99C627.56,-243.95 685.81,-231.23 736.74,-217 739.21,-216.31 741.76,-215.55 744.3,-214.76"/>
<polygon fill="#63b8ff" stroke="#63b8ff" points="745.61,-218.02 754.04,-211.6 743.44,-211.36 745.61,-218.02"/>
</a>
</g>
</g>
<!-- Node5 -->
<g id="Node000005" class="node">
<title>Node5</title>
<g id="a_Node000005"><a xlink:href="StraightBlock_8h.html" target="_top" xlink:title="Modèle de domaine d&#39;un bloc de voie droite (Straight).">
<polygon fill="white" stroke="#666666" points="363.24,-217 178.24,-217 178.24,-187 363.24,-187 363.24,-217"/>
<text text-anchor="start" x="186.24" y="-205" font-family="Helvetica,sans-Serif" font-size="10.00">Modules/InteractiveElements</text>
<text text-anchor="middle" x="270.74" y="-194" font-family="Helvetica,sans-Serif" font-size="10.00">/ShuntingElements/StraightBlock.h</text>
</a>
</g>
</g>
<!-- Node1&#45;&gt;Node5 -->
<g id="edge4_Node000001_Node000005" class="edge">
<title>Node1&#45;&gt;Node5</title>
<g id="a_edge4_Node000001_Node000005"><a xlink:title=" ">
<path fill="none" stroke="#63b8ff" d="M456.51,-252.95C420.09,-243.16 371.32,-230.05 332.89,-219.71"/>
<polygon fill="#63b8ff" stroke="#63b8ff" points="333.42,-216.23 322.85,-217.01 331.6,-222.99 333.42,-216.23"/>
</a>
</g>
</g>
<!-- Node9 -->
<g id="Node000009" class="node">
<title>Node9</title>
<g id="a_Node000009"><a xlink:href="SwitchBlock_8h.html" target="_top" xlink:title="Modèle de domaine d&#39;un aiguillage ferroviaire à 3 branches.">
<polygon fill="white" stroke="#666666" points="598.24,-217 419.24,-217 419.24,-187 598.24,-187 598.24,-217"/>
<text text-anchor="start" x="427.24" y="-205" font-family="Helvetica,sans-Serif" font-size="10.00">Modules/InteractiveElements</text>
<text text-anchor="middle" x="508.74" y="-194" font-family="Helvetica,sans-Serif" font-size="10.00">/ShuntingElements/SwitchBlock.h</text>
</a>
</g>
</g>
<!-- Node1&#45;&gt;Node9 -->
<g id="edge11_Node000001_Node000009" class="edge">
<title>Node1&#45;&gt;Node9</title>
<g id="a_edge11_Node000001_Node000009"><a xlink:title=" ">
<path fill="none" stroke="#63b8ff" d="M508.74,-252.8C508.74,-245.34 508.74,-235.99 508.74,-227.41"/>
<polygon fill="#63b8ff" stroke="#63b8ff" points="512.24,-227.16 508.74,-217.16 505.24,-227.16 512.24,-227.16"/>
</a>
</g>
</g>
<!-- Node12 -->
<g id="Node000012" class="node">
<title>Node12</title>
<g id="a_Node000012"><a xlink:href="GeoParserEnums_8h.html" target="_top" xlink:title="Constantes nommées et énumérations du pipeline ferroviaire GeoParser.">
<polygon fill="white" stroke="#666666" points="977.74,-211.5 827.74,-211.5 827.74,-192.5 977.74,-192.5 977.74,-211.5"/>
<text text-anchor="middle" x="902.74" y="-199.5" font-family="Helvetica,sans-Serif" font-size="10.00">./Enums/GeoParserEnums.h</text>
</a>
</g>
</g>
<!-- Node1&#45;&gt;Node12 -->
<g id="edge17_Node000001_Node000012" class="edge">
<title>Node1&#45;&gt;Node12</title>
<g id="a_edge17_Node000001_Node000012"><a xlink:title=" ">
<path fill="none" stroke="#63b8ff" d="M595.91,-253.17C658.27,-243.23 744.2,-229.44 819.74,-217 827.16,-215.78 834.95,-214.48 842.66,-213.19"/>
<polygon fill="#63b8ff" stroke="#63b8ff" points="843.43,-216.61 852.72,-211.5 842.28,-209.71 843.43,-216.61"/>
</a>
</g>
</g>
<!-- Node13 -->
<g id="Node000013" class="node">
<title>Node13</title>
<g id="a_Node000013"><a xlink:href="Logger_8h.html" target="_top" xlink:title="Système de journalisation à 5 niveaux de trace, un fichier par moteur.">
<polygon fill="white" stroke="#666666" points="727.24,-217 616.24,-217 616.24,-187 727.24,-187 727.24,-217"/>
<text text-anchor="start" x="624.24" y="-205" font-family="Helvetica,sans-Serif" font-size="10.00">Engine/Core/Logger</text>
<text text-anchor="middle" x="671.74" y="-194" font-family="Helvetica,sans-Serif" font-size="10.00">/Logger.h</text>
</a>
</g>
</g>
<!-- Node1&#45;&gt;Node13 -->
<g id="edge18_Node000001_Node000013" class="edge">
<title>Node1&#45;&gt;Node13</title>
<g id="a_edge18_Node000001_Node000013"><a xlink:title=" ">
<path fill="none" stroke="#63b8ff" d="M544.51,-252.95C568.61,-243.49 600.6,-230.93 626.47,-220.78"/>
<polygon fill="#63b8ff" stroke="#63b8ff" points="628.03,-223.93 636.05,-217.01 625.47,-217.41 628.03,-223.93"/>
</a>
</g>
</g>
<!-- Node5&#45;&gt;Node2 -->
<g id="edge5_Node000005_Node000002" class="edge">
<title>Node5&#45;&gt;Node2</title>
<g id="a_edge5_Node000005_Node000002"><a xlink:title=" ">
<path fill="none" stroke="#63b8ff" d="M251.68,-186.99C240.96,-177.98 228.43,-165.31 221.74,-151 202.95,-110.79 203.73,-57.18 205.81,-29.24"/>
<polygon fill="#63b8ff" stroke="#63b8ff" points="209.29,-29.52 206.69,-19.25 202.32,-28.9 209.29,-29.52"/>
</a>
</g>
</g>
<!-- Node5&#45;&gt;Node3 -->
<g id="edge6_Node000005_Node000003" class="edge">
<title>Node5&#45;&gt;Node3</title>
<g id="a_edge6_Node000005_Node000003"><a xlink:title=" ">
<path fill="none" stroke="#63b8ff" d="M297.08,-186.95C317.56,-176.03 345.8,-160.97 365.9,-150.25"/>
<polygon fill="#63b8ff" stroke="#63b8ff" points="367.6,-153.31 374.77,-145.52 364.3,-147.14 367.6,-153.31"/>
</a>
</g>
</g>
<!-- Node6 -->
<g id="Node000006" class="node">
<title>Node6</title>
<g id="a_Node000006"><a xlink:href="ShuntingElement_8h.html" target="_top" xlink:title="Interface abstraite pour tous les éléments de shuntage ferroviaire.">
<polygon fill="white" stroke="#666666" points="161.24,-145.5 52.24,-145.5 52.24,-126.5 161.24,-126.5 161.24,-145.5"/>
<text text-anchor="middle" x="106.74" y="-133.5" font-family="Helvetica,sans-Serif" font-size="10.00">ShuntingElement.h</text>
</a>
</g>
</g>
<!-- Node5&#45;&gt;Node6 -->
<g id="edge7_Node000005_Node000006" class="edge">
<title>Node5&#45;&gt;Node6</title>
<g id="a_edge7_Node000005_Node000006"><a xlink:title=" ">
<path fill="none" stroke="#63b8ff" d="M234.75,-186.95C205.86,-175.68 165.71,-160.01 138.12,-149.25"/>
<polygon fill="#63b8ff" stroke="#63b8ff" points="139.16,-145.89 128.57,-145.52 136.61,-152.41 139.16,-145.89"/>
</a>
</g>
</g>
<!-- Node8 -->
<g id="Node000008" class="node">
<title>Node8</title>
<g id="a_Node000008"><a xlink:href="LatLon_8h.html" target="_top" xlink:title="Représentation d&#39;une coordonnée géographique WGS&#45;84 (latitude, longitude).">
<polygon fill="white" stroke="#666666" points="349.24,-151 230.24,-151 230.24,-121 349.24,-121 349.24,-151"/>
<text text-anchor="start" x="238.24" y="-139" font-family="Helvetica,sans-Serif" font-size="10.00">Modules/Coordinates</text>
<text text-anchor="middle" x="289.74" y="-128" font-family="Helvetica,sans-Serif" font-size="10.00">/LatLon.h</text>
</a>
</g>
</g>
<!-- Node5&#45;&gt;Node8 -->
<g id="edge10_Node000005_Node000008" class="edge">
<title>Node5&#45;&gt;Node8</title>
<g id="a_edge10_Node000005_Node000008"><a xlink:title=" ">
<path fill="none" stroke="#63b8ff" d="M274.96,-186.8C277.22,-179.17 280.07,-169.57 282.66,-160.84"/>
<polygon fill="#63b8ff" stroke="#63b8ff" points="286.05,-161.75 285.54,-151.16 279.34,-159.75 286.05,-161.75"/>
</a>
</g>
</g>
<!-- Node7 -->
<g id="Node000007" class="node">
<title>Node7</title>
<g id="a_Node000007"><a xlink:href="InteractiveElement_8h.html" target="_top" xlink:title="Classe de base abstraite pour tous les éléments interactifs ferroviaires.">
<polygon fill="white" stroke="#666666" points="180.24,-85 21.24,-85 21.24,-55 180.24,-55 180.24,-85"/>
<text text-anchor="start" x="29.24" y="-73" font-family="Helvetica,sans-Serif" font-size="10.00">Modules/InteractiveElements</text>
<text text-anchor="middle" x="100.74" y="-62" font-family="Helvetica,sans-Serif" font-size="10.00">/InteractiveElement.h</text>
</a>
</g>
</g>
<!-- Node6&#45;&gt;Node7 -->
<g id="edge8_Node000006_Node000007" class="edge">
<title>Node6&#45;&gt;Node7</title>
<g id="a_edge8_Node000006_Node000007"><a xlink:title=" ">
<path fill="none" stroke="#63b8ff" d="M105.93,-126.37C105.19,-118.49 104.07,-106.45 103.05,-95.6"/>
<polygon fill="#63b8ff" stroke="#63b8ff" points="106.51,-94.99 102.09,-85.36 99.54,-95.64 106.51,-94.99"/>
</a>
</g>
</g>
<!-- Node7&#45;&gt;Node2 -->
<g id="edge9_Node000007_Node000002" class="edge">
<title>Node7&#45;&gt;Node2</title>
<g id="a_edge9_Node000007_Node000002"><a xlink:title=" ">
<path fill="none" stroke="#63b8ff" d="M126.37,-54.99C143.59,-45.58 166.14,-33.24 183.14,-23.95"/>
<polygon fill="#63b8ff" stroke="#63b8ff" points="184.84,-27.01 191.94,-19.14 181.49,-20.87 184.84,-27.01"/>
</a>
</g>
</g>
<!-- Node9&#45;&gt;Node2 -->
<g id="edge14_Node000009_Node000002" class="edge">
<title>Node9&#45;&gt;Node2</title>
<g id="a_edge14_Node000009_Node000002"><a xlink:title=" ">
<path fill="none" stroke="#63b8ff" d="M510.81,-186.91C512.56,-169.5 512.75,-139.88 497.74,-121 433.06,-39.64 301.18,-18.15 240.11,-12.5"/>
<polygon fill="#63b8ff" stroke="#63b8ff" points="240.16,-8.99 229.9,-11.65 239.58,-15.97 240.16,-8.99"/>
</a>
</g>
</g>
<!-- Node9&#45;&gt;Node3 -->
<g id="edge15_Node000009_Node000003" class="edge">
<title>Node9&#45;&gt;Node3</title>
<g id="a_edge15_Node000009_Node000003"><a xlink:title=" ">
<path fill="none" stroke="#63b8ff" d="M482.85,-186.95C462.79,-176.08 435.19,-161.11 415.44,-150.4"/>
<polygon fill="#63b8ff" stroke="#63b8ff" points="416.9,-147.21 406.45,-145.52 413.57,-153.36 416.9,-147.21"/>
</a>
</g>
</g>
<!-- Node9&#45;&gt;Node8 -->
<g id="edge16_Node000009_Node000008" class="edge">
<title>Node9&#45;&gt;Node8</title>
<g id="a_edge16_Node000009_Node000008"><a xlink:title=" ">
<path fill="none" stroke="#63b8ff" d="M460.68,-186.95C427.31,-177.2 382.67,-164.16 347.38,-153.84"/>
<polygon fill="#63b8ff" stroke="#63b8ff" points="348.27,-150.46 337.69,-151.01 346.31,-157.18 348.27,-150.46"/>
</a>
</g>
</g>
<!-- Node10 -->
<g id="Node000010" class="node">
<title>Node10</title>
<g id="a_Node000010"><a xlink:title=" ">
<polygon fill="#e0e0e0" stroke="#999999" points="488.74,-145.5 432.74,-145.5 432.74,-126.5 488.74,-126.5 488.74,-145.5"/>
<text text-anchor="middle" x="460.74" y="-133.5" font-family="Helvetica,sans-Serif" font-size="10.00">optional</text>
</a>
</g>
</g>
<!-- Node9&#45;&gt;Node10 -->
<g id="edge12_Node000009_Node000010" class="edge">
<title>Node9&#45;&gt;Node10</title>
<g id="a_edge12_Node000009_Node000010"><a xlink:title=" ">
<path fill="none" stroke="#63b8ff" d="M498.09,-186.8C490.83,-177.11 481.17,-164.24 473.5,-154.01"/>
<polygon fill="#63b8ff" stroke="#63b8ff" points="476.18,-151.74 467.38,-145.84 470.58,-155.94 476.18,-151.74"/>
</a>
</g>
</g>
<!-- Node11 -->
<g id="Node000011" class="node">
<title>Node11</title>
<g id="a_Node000011"><a xlink:title=" ">
<polygon fill="#e0e0e0" stroke="#999999" points="600.74,-145.5 544.74,-145.5 544.74,-126.5 600.74,-126.5 600.74,-145.5"/>
<text text-anchor="middle" x="572.74" y="-133.5" font-family="Helvetica,sans-Serif" font-size="10.00">sstream</text>
</a>
</g>
</g>
<!-- Node9&#45;&gt;Node11 -->
<g id="edge13_Node000009_Node000011" class="edge">
<title>Node9&#45;&gt;Node11</title>
<g id="a_edge13_Node000009_Node000011"><a xlink:title=" ">
<path fill="none" stroke="#63b8ff" d="M522.95,-186.8C532.92,-176.82 546.29,-163.46 556.66,-153.09"/>
<polygon fill="#63b8ff" stroke="#63b8ff" points="559.3,-155.39 563.9,-145.84 554.35,-150.44 559.3,-155.39"/>
</a>
</g>
</g>
<!-- Node13&#45;&gt;Node2 -->
<g id="edge24_Node000013_Node000002" class="edge">
<title>Node13&#45;&gt;Node2</title>
<g id="a_edge24_Node000013_Node000002"><a xlink:title=" ">
<path fill="none" stroke="#63b8ff" d="M677.39,-186.99C683.35,-169.67 690.09,-140.14 675.74,-121 622.71,-50.26 337.06,-20.93 240.02,-12.92"/>
<polygon fill="#63b8ff" stroke="#63b8ff" points="240.17,-9.42 229.93,-12.1 239.61,-16.4 240.17,-9.42"/>
</a>
</g>
</g>
<!-- Node13&#45;&gt;Node11 -->
<g id="edge23_Node000013_Node000011" class="edge">
<title>Node13&#45;&gt;Node11</title>
<g id="a_edge23_Node000013_Node000011"><a xlink:title=" ">
<path fill="none" stroke="#63b8ff" d="M649.77,-186.8C633.33,-176.17 610.96,-161.7 594.56,-151.1"/>
<polygon fill="#63b8ff" stroke="#63b8ff" points="596.43,-148.15 586.14,-145.66 592.63,-154.03 596.43,-148.15"/>
</a>
</g>
</g>
<!-- Node14 -->
<g id="Node000014" class="node">
<title>Node14</title>
<g id="a_Node000014"><a xlink:title=" ">
<polygon fill="#e0e0e0" stroke="#999999" points="766.74,-145.5 722.74,-145.5 722.74,-126.5 766.74,-126.5 766.74,-145.5"/>
<text text-anchor="middle" x="744.74" y="-133.5" font-family="Helvetica,sans-Serif" font-size="10.00">ctime</text>
</a>
</g>
</g>
<!-- Node13&#45;&gt;Node14 -->
<g id="edge19_Node000013_Node000014" class="edge">
<title>Node13&#45;&gt;Node14</title>
<g id="a_edge19_Node000013_Node000014"><a xlink:title=" ">
<path fill="none" stroke="#63b8ff" d="M687.94,-186.8C699.55,-176.62 715.16,-162.93 727.09,-152.48"/>
<polygon fill="#63b8ff" stroke="#63b8ff" points="729.44,-155.07 734.65,-145.84 724.83,-149.8 729.44,-155.07"/>
</a>
</g>
</g>
<!-- Node15 -->
<g id="Node000015" class="node">
<title>Node15</title>
<g id="a_Node000015"><a xlink:title=" ">
<polygon fill="#e0e0e0" stroke="#999999" points="852.74,-145.5 784.74,-145.5 784.74,-126.5 852.74,-126.5 852.74,-145.5"/>
<text text-anchor="middle" x="818.74" y="-133.5" font-family="Helvetica,sans-Serif" font-size="10.00">filesystem</text>
</a>
</g>
</g>
<!-- Node13&#45;&gt;Node15 -->
<g id="edge20_Node000013_Node000015" class="edge">
<title>Node13&#45;&gt;Node15</title>
<g id="a_edge20_Node000013_Node000015"><a xlink:title=" ">
<path fill="none" stroke="#63b8ff" d="M704,-186.95C729.67,-175.78 765.25,-160.29 789.96,-149.53"/>
<polygon fill="#63b8ff" stroke="#63b8ff" points="791.41,-152.72 799.18,-145.52 788.61,-146.3 791.41,-152.72"/>
</a>
</g>
</g>
<!-- Node16 -->
<g id="Node000016" class="node">
<title>Node16</title>
<g id="a_Node000016"><a xlink:title=" ">
<polygon fill="#e0e0e0" stroke="#999999" points="926.24,-145.5 871.24,-145.5 871.24,-126.5 926.24,-126.5 926.24,-145.5"/>
<text text-anchor="middle" x="898.74" y="-133.5" font-family="Helvetica,sans-Serif" font-size="10.00">fstream</text>
</a>
</g>
</g>
<!-- Node13&#45;&gt;Node16 -->
<g id="edge21_Node000013_Node000016" class="edge">
<title>Node13&#45;&gt;Node16</title>
<g id="a_edge21_Node000013_Node000016"><a xlink:title=" ">
<path fill="none" stroke="#63b8ff" d="M727.47,-187.96C765.57,-178.65 817.07,-165.29 861.74,-151 863.66,-150.39 865.61,-149.73 867.58,-149.05"/>
<polygon fill="#63b8ff" stroke="#63b8ff" points="869.14,-152.21 877.35,-145.53 866.76,-145.63 869.14,-152.21"/>
</a>
</g>
</g>
<!-- Node17 -->
<g id="Node000017" class="node">
<title>Node17</title>
<g id="a_Node000017"><a xlink:title=" ">
<polygon fill="#e0e0e0" stroke="#999999" points="666.74,-145.5 618.74,-145.5 618.74,-126.5 666.74,-126.5 666.74,-145.5"/>
<text text-anchor="middle" x="642.74" y="-133.5" font-family="Helvetica,sans-Serif" font-size="10.00">mutex</text>
</a>
</g>
</g>
<!-- Node13&#45;&gt;Node17 -->
<g id="edge22_Node000013_Node000017" class="edge">
<title>Node13&#45;&gt;Node17</title>
<g id="a_edge22_Node000013_Node000017"><a xlink:title=" ">
<path fill="none" stroke="#63b8ff" d="M665.31,-186.8C661.1,-177.5 655.55,-165.27 651.02,-155.26"/>
<polygon fill="#63b8ff" stroke="#63b8ff" points="654.06,-153.51 646.75,-145.84 647.69,-156.4 654.06,-153.51"/>
</a>
</g>
</g>
</g>
</svg>
