<?xml version="1.0" encoding="UTF-8" standalone="no"?>
<!DOCTYPE svg PUBLIC "-//W3C//DTD SVG 1.1//EN"
 "http://www.w3.org/Graphics/SVG/1.1/DTD/svg11.dtd">
<!-- Generated by graphviz version 2.43.0 (0)
 -->
<!-- Title: SimulateurFerroviaire/Modules/GeoParser/Enums/GeoParserEnums.h Pages: 1 -->
<svg width="1317pt" height="423pt"
 viewBox="0.00 0.00 1317.00 423.00" xmlns="http://www.w3.org/2000/svg" xmlns:xlink="http://www.w3.org/1999/xlink">
<g id="graph0" class="graph" transform="scale(1 1) rotate(0) translate(4 419)">
<title>SimulateurFerroviaire/Modules/GeoParser/Enums/GeoParserEnums.h</title>
<!-- Node1 -->
<g id="Node000001" class="node">
<title>Node1</title>
<g id="a_Node000001"><a xlink:title="Constantes nommées et énumérations du pipeline ferroviaire GeoParser.">
<polygon fill="#999999" stroke="#666666" points="681,-415 532,-415 532,-374 681,-374 681,-415"/>
<text text-anchor="start" x="540" y="-403" font-family="Helvetica,sans-Serif" font-size="10.00">SimulateurFerroviaire</text>
<text text-anchor="start" x="540" y="-392" font-family="Helvetica,sans-Serif" font-size="10.00">/Modules/GeoParser/Enums</text>
<text text-anchor="middle" x="606.5" y="-381" font-family="Helvetica,sans-Serif" font-size="10.00">/GeoParserEnums.h</text>
</a>
</g>
</g>
<!-- Node2 -->
<g id="Node000002" class="node">
<title>Node2</title>
<g id="a_Node000002"><a xlink:href="DoubleSwitchDetector_8h.html" target="_top" xlink:title="Phases 7 et 8 — détection des doubles aiguilles et validation CDC.">
<polygon fill="white" stroke="#666666" points="458,-261 275,-261 275,-220 458,-220 458,-261"/>
<text text-anchor="start" x="283" y="-249" font-family="Helvetica,sans-Serif" font-size="10.00">SimulateurFerroviaire</text>
<text text-anchor="start" x="283" y="-238" font-family="Helvetica,sans-Serif" font-size="10.00">/Modules/GeoParser/DoubleSwitch</text>
<text text-anchor="middle" x="366.5" y="-227" font-family="Helvetica,sans-Serif" font-size="10.00">Detector.h</text>
</a>
</g>
</g>
<!-- Node1&#45;&gt;Node2 -->
<g id="edge1_Node000001_Node000002" class="edge">
<title>Node1&#45;&gt;Node2</title>
<g id="a_edge1_Node000001_Node000002"><a xlink:title=" ">
<path fill="none" stroke="#63b8ff" d="M551.26,-369.69C531.9,-360.6 510.3,-349.62 491.5,-338 453.49,-314.51 413.2,-281.81 388.95,-261.15"/>
<polygon fill="#63b8ff" stroke="#63b8ff" points="550.02,-372.97 560.56,-373.99 552.96,-366.62 550.02,-372.97"/>
</a>
</g>
</g>
<!-- Node5 -->
<g id="Node000005" class="node">
<title>Node5</title>
<g id="a_Node000005"><a xlink:href="GeoParser_8h.html" target="_top" xlink:title="Orchestrateur principal du pipeline GeoJSON ferroviaire.">
<polygon fill="white" stroke="#666666" points="276.5,-332.5 102.5,-332.5 102.5,-302.5 276.5,-302.5 276.5,-332.5"/>
<text text-anchor="start" x="110.5" y="-320.5" font-family="Helvetica,sans-Serif" font-size="10.00">SimulateurFerroviaire</text>
<text text-anchor="middle" x="189.5" y="-309.5" font-family="Helvetica,sans-Serif" font-size="10.00">/Modules/GeoParser/GeoParser.h</text>
</a>
</g>
</g>
<!-- Node1&#45;&gt;Node5 -->
<g id="edge4_Node000001_Node000005" class="edge">
<title>Node1&#45;&gt;Node5</title>
<g id="a_edge4_Node000001_Node000005"><a xlink:title=" ">
<path fill="none" stroke="#63b8ff" d="M521.68,-378.24C447.28,-364.86 339.99,-345.57 267.65,-332.56"/>
<polygon fill="#63b8ff" stroke="#63b8ff" points="521.49,-381.77 531.95,-380.09 522.73,-374.88 521.49,-381.77"/>
</a>
</g>
</g>
<!-- Node7 -->
<g id="Node000007" class="node">
<title>Node7</title>
<g id="a_Node000007"><a xlink:href="TopologyGraph_8h.html" target="_top" xlink:title="Graphe planaire non&#45;orienté de nœuds et d&#39;arêtes ferroviaires accrochés.">
<polygon fill="white" stroke="#666666" points="679.5,-338 533.5,-338 533.5,-297 679.5,-297 679.5,-338"/>
<text text-anchor="start" x="541.5" y="-326" font-family="Helvetica,sans-Serif" font-size="10.00">SimulateurFerroviaire</text>
<text text-anchor="start" x="541.5" y="-315" font-family="Helvetica,sans-Serif" font-size="10.00">/Modules/GeoParser/Graph</text>
<text text-anchor="middle" x="606.5" y="-304" font-family="Helvetica,sans-Serif" font-size="10.00">/TopologyGraph.h</text>
</a>
</g>
</g>
<!-- Node1&#45;&gt;Node7 -->
<g id="edge7_Node000001_Node000007" class="edge">
<title>Node1&#45;&gt;Node7</title>
<g id="a_edge7_Node000001_Node000007"><a xlink:title=" ">
<path fill="none" stroke="#63b8ff" d="M606.5,-363.69C606.5,-355.08 606.5,-345.9 606.5,-338.07"/>
<polygon fill="#63b8ff" stroke="#63b8ff" points="603,-363.79 606.5,-373.79 610,-363.79 603,-363.79"/>
</a>
</g>
</g>
<!-- Node9 -->
<g id="Node000009" class="node">
<title>Node9</title>
<g id="a_Node000009"><a xlink:href="GraphBuilder_8h.html" target="_top" xlink:title="Phases 1 et 2 du pipeline — chargement GeoJSON et construction du graphe métrique.">
<polygon fill="white" stroke="#666666" points="721.5,-255.5 533.5,-255.5 533.5,-225.5 721.5,-225.5 721.5,-255.5"/>
<text text-anchor="start" x="541.5" y="-243.5" font-family="Helvetica,sans-Serif" font-size="10.00">SimulateurFerroviaire</text>
<text text-anchor="middle" x="627.5" y="-232.5" font-family="Helvetica,sans-Serif" font-size="10.00">/Modules/GeoParser/GraphBuilder.h</text>
</a>
</g>
</g>
<!-- Node1&#45;&gt;Node9 -->
<g id="edge19_Node000001_Node000009" class="edge">
<title>Node1&#45;&gt;Node9</title>
<g id="a_edge19_Node000001_Node000009"><a xlink:title=" ">
<path fill="none" stroke="#63b8ff" d="M659.8,-368.48C671.3,-360.44 681.95,-350.34 688.5,-338 697.04,-321.9 695.87,-313.67 688.5,-297 680.8,-279.58 664.64,-265.28 650.88,-255.56"/>
<polygon fill="#63b8ff" stroke="#63b8ff" points="657.82,-365.59 651.33,-373.97 661.62,-371.47 657.82,-365.59"/>
</a>
</g>
</g>
<!-- Node11 -->
<g id="Node000011" class="node">
<title>Node11</title>
<g id="a_Node000011"><a xlink:href="TopologyExtractor_8h.html" target="_top" xlink:title="Phases 3, 4, 5a et 5b — extraction de la topologie ferroviaire depuis le graphe.">
<polygon fill="white" stroke="#666666" points="693.5,-184 533.5,-184 533.5,-143 693.5,-143 693.5,-184"/>
<text text-anchor="start" x="541.5" y="-172" font-family="Helvetica,sans-Serif" font-size="10.00">SimulateurFerroviaire</text>
<text text-anchor="start" x="541.5" y="-161" font-family="Helvetica,sans-Serif" font-size="10.00">/Modules/GeoParser/Topology</text>
<text text-anchor="middle" x="613.5" y="-150" font-family="Helvetica,sans-Serif" font-size="10.00">Extractor.h</text>
</a>
</g>
</g>
<!-- Node1&#45;&gt;Node11 -->
<g id="edge21_Node000001_Node000011" class="edge">
<title>Node1&#45;&gt;Node11</title>
<g id="a_edge21_Node000001_Node000011"><a xlink:title=" ">
<path fill="none" stroke="#63b8ff" d="M666.7,-369.11C681,-360.98 695.1,-350.68 705.5,-338 728.32,-310.18 724.88,-296.54 730.5,-261 733.35,-243 740.24,-235.4 730.5,-220 720.29,-203.85 703.96,-192.31 686.7,-184.09"/>
<polygon fill="#63b8ff" stroke="#63b8ff" points="664.96,-366.08 657.81,-373.89 668.27,-372.24 664.96,-366.08"/>
</a>
</g>
</g>
<!-- Node12 -->
<g id="Node000012" class="node">
<title>Node12</title>
<g id="a_Node000012"><a xlink:href="SwitchOrientator_8h.html" target="_top" xlink:title="Phases 6, 6b et 6c — orientation géométrique des aiguillages.">
<polygon fill="white" stroke="#666666" points="739.5,-101.5 533.5,-101.5 533.5,-71.5 739.5,-71.5 739.5,-101.5"/>
<text text-anchor="start" x="541.5" y="-89.5" font-family="Helvetica,sans-Serif" font-size="10.00">SimulateurFerroviaire</text>
<text text-anchor="middle" x="636.5" y="-78.5" font-family="Helvetica,sans-Serif" font-size="10.00">/Modules/GeoParser/SwitchOrientator.h</text>
</a>
</g>
</g>
<!-- Node1&#45;&gt;Node12 -->
<g id="edge20_Node000001_Node000012" class="edge">
<title>Node1&#45;&gt;Node12</title>
<g id="a_edge20_Node000001_Node000012"><a xlink:title=" ">
<path fill="none" stroke="#63b8ff" d="M553.2,-368.48C541.7,-360.44 531.05,-350.34 524.5,-338 483.87,-261.45 478.8,-216.64 524.5,-143 536.97,-122.9 559.13,-109.86 580.46,-101.5"/>
<polygon fill="#63b8ff" stroke="#63b8ff" points="551.38,-371.47 561.67,-373.97 555.18,-365.59 551.38,-371.47"/>
</a>
</g>
</g>
<!-- Node15 -->
<g id="Node000015" class="node">
<title>Node15</title>
<g id="a_Node000015"><a xlink:href="GeometryUtils_8h.html" target="_top" xlink:title="Utilitaires géométriques métriques pour le pipeline ferroviaire.">
<polygon fill="white" stroke="#666666" points="1122,-261 983,-261 983,-220 1122,-220 1122,-261"/>
<text text-anchor="start" x="991" y="-249" font-family="Helvetica,sans-Serif" font-size="10.00">SimulateurFerroviaire</text>
<text text-anchor="start" x="991" y="-238" font-family="Helvetica,sans-Serif" font-size="10.00">/Modules/GeoParser/Utils</text>
<text text-anchor="middle" x="1052.5" y="-227" font-family="Helvetica,sans-Serif" font-size="10.00">/GeometryUtils.h</text>
</a>
</g>
</g>
<!-- Node1&#45;&gt;Node15 -->
<g id="edge22_Node000001_Node000015" class="edge">
<title>Node1&#45;&gt;Node15</title>
<g id="a_edge22_Node000001_Node000015"><a xlink:title=" ">
<path fill="none" stroke="#63b8ff" d="M673.45,-370.68C760.88,-340.89 912.47,-289.22 994.97,-261.11"/>
<polygon fill="#63b8ff" stroke="#63b8ff" points="672.23,-367.4 663.89,-373.94 674.49,-374.03 672.23,-367.4"/>
</a>
</g>
</g>
<!-- Node3 -->
<g id="Node000003" class="node">
<title>Node3</title>
<g id="a_Node000003"><a xlink:href="DoubleSwitchDetector_8cpp.html" target="_top" xlink:title="Implémentation phases 7 et 8 — doubles aiguilles et validation CDC.">
<polygon fill="white" stroke="#666666" points="439,-184 256,-184 256,-143 439,-143 439,-184"/>
<text text-anchor="start" x="264" y="-172" font-family="Helvetica,sans-Serif" font-size="10.00">SimulateurFerroviaire</text>
<text text-anchor="start" x="264" y="-161" font-family="Helvetica,sans-Serif" font-size="10.00">/Modules/GeoParser/DoubleSwitch</text>
<text text-anchor="middle" x="347.5" y="-150" font-family="Helvetica,sans-Serif" font-size="10.00">Detector.cpp</text>
</a>
</g>
</g>
<!-- Node2&#45;&gt;Node3 -->
<g id="edge2_Node000002_Node000003" class="edge">
<title>Node2&#45;&gt;Node3</title>
<g id="a_edge2_Node000002_Node000003"><a xlink:title=" ">
<path fill="none" stroke="#63b8ff" d="M359.02,-209.98C356.82,-201.28 354.46,-191.98 352.46,-184.07"/>
<polygon fill="#63b8ff" stroke="#63b8ff" points="355.66,-210.96 361.51,-219.79 362.44,-209.24 355.66,-210.96"/>
</a>
</g>
</g>
<!-- Node4 -->
<g id="Node000004" class="node">
<title>Node4</title>
<g id="a_Node000004"><a xlink:href="GeoParser_8cpp.html" target="_top" xlink:title="Implémentation du pipeline GeoParser.">
<polygon fill="white" stroke="#666666" points="560,-30 375,-30 375,0 560,0 560,-30"/>
<text text-anchor="start" x="383" y="-18" font-family="Helvetica,sans-Serif" font-size="10.00">SimulateurFerroviaire</text>
<text text-anchor="middle" x="467.5" y="-7" font-family="Helvetica,sans-Serif" font-size="10.00">/Modules/GeoParser/GeoParser.cpp</text>
</a>
</g>
</g>
<!-- Node2&#45;&gt;Node4 -->
<g id="edge3_Node000002_Node000004" class="edge">
<title>Node2&#45;&gt;Node4</title>
<g id="a_edge3_Node000002_Node000004"><a xlink:title=" ">
<path fill="none" stroke="#63b8ff" d="M281.3,-215.11C267.5,-207.38 254.97,-197.25 246.5,-184 236.69,-168.65 237.37,-158.77 246.5,-143 282.19,-81.34 360.4,-47 413.53,-30.01"/>
<polygon fill="#63b8ff" stroke="#63b8ff" points="280.04,-218.4 290.53,-219.86 283.24,-212.17 280.04,-218.4"/>
</a>
</g>
</g>
<!-- Node5&#45;&gt;Node4 -->
<g id="edge5_Node000005_Node000004" class="edge">
<title>Node5&#45;&gt;Node4</title>
<g id="a_edge5_Node000005_Node000004"><a xlink:title=" ">
<path fill="none" stroke="#63b8ff" d="M189.64,-292.19C191.37,-241.21 203.19,-123.13 273.5,-66 301.98,-42.86 339.93,-30.3 374.72,-23.53"/>
<polygon fill="#63b8ff" stroke="#63b8ff" points="186.14,-292.2 189.4,-302.28 193.14,-292.36 186.14,-292.2"/>
</a>
</g>
</g>
<!-- Node6 -->
<g id="Node000006" class="node">
<title>Node6</title>
<g id="a_Node000006"><a xlink:href="GeoParsingTask_8cpp.html" target="_top" xlink:title="Implémentation de la tâche de parsing GeoJSON asynchrone.">
<polygon fill="white" stroke="#666666" points="161,-255.5 0,-255.5 0,-225.5 161,-225.5 161,-255.5"/>
<text text-anchor="start" x="8" y="-243.5" font-family="Helvetica,sans-Serif" font-size="10.00">SimulateurFerroviaire</text>
<text text-anchor="middle" x="80.5" y="-232.5" font-family="Helvetica,sans-Serif" font-size="10.00">/Modules/GeoParsingTask.cpp</text>
</a>
</g>
</g>
<!-- Node5&#45;&gt;Node6 -->
<g id="edge6_Node000005_Node000006" class="edge">
<title>Node5&#45;&gt;Node6</title>
<g id="a_edge6_Node000005_Node000006"><a xlink:title=" ">
<path fill="none" stroke="#63b8ff" d="M160.51,-296.55C141.72,-283.63 117.71,-267.1 100.91,-255.54"/>
<polygon fill="#63b8ff" stroke="#63b8ff" points="158.78,-299.61 169,-302.39 162.74,-293.84 158.78,-299.61"/>
</a>
</g>
</g>
<!-- Node7&#45;&gt;Node2 -->
<g id="edge8_Node000007_Node000002" class="edge">
<title>Node7&#45;&gt;Node2</title>
<g id="a_edge8_Node000007_Node000002"><a xlink:title=" ">
<path fill="none" stroke="#63b8ff" d="M534.32,-293.94C500.78,-283.46 461.28,-271.12 429.03,-261.04"/>
<polygon fill="#63b8ff" stroke="#63b8ff" points="533.48,-297.35 544.07,-296.99 535.57,-290.67 533.48,-297.35"/>
</a>
</g>
</g>
<!-- Node8 -->
<g id="Node000008" class="node">
<title>Node8</title>
<g id="a_Node000008"><a xlink:href="TopologyGraph_8cpp.html" target="_top" xlink:title="Implémentation du graphe planaire de topologie ferroviaire.">
<polygon fill="white" stroke="#666666" points="1075.5,-184 929.5,-184 929.5,-143 1075.5,-143 1075.5,-184"/>
<text text-anchor="start" x="937.5" y="-172" font-family="Helvetica,sans-Serif" font-size="10.00">SimulateurFerroviaire</text>
<text text-anchor="start" x="937.5" y="-161" font-family="Helvetica,sans-Serif" font-size="10.00">/Modules/GeoParser/Graph</text>
<text text-anchor="middle" x="1002.5" y="-150" font-family="Helvetica,sans-Serif" font-size="10.00">/TopologyGraph.cpp</text>
</a>
</g>
</g>
<!-- Node7&#45;&gt;Node8 -->
<g id="edge9_Node000007_Node000008" class="edge">
<title>Node7&#45;&gt;Node8</title>
<g id="a_edge9_Node000007_Node000008"><a xlink:title=" ">
<path fill="none" stroke="#63b8ff" d="M667.13,-293.23C744.93,-263.36 878.54,-212.08 951.42,-184.11"/>
<polygon fill="#63b8ff" stroke="#63b8ff" points="665.54,-290.09 657.46,-296.94 668.05,-296.62 665.54,-290.09"/>
</a>
</g>
</g>
<!-- Node7&#45;&gt;Node9 -->
<g id="edge10_Node000007_Node000009" class="edge">
<title>Node7&#45;&gt;Node9</title>
<g id="a_edge10_Node000007_Node000009"><a xlink:title=" ">
<path fill="none" stroke="#63b8ff" d="M614.78,-286.94C617.77,-276.25 621.01,-264.66 623.48,-255.86"/>
<polygon fill="#63b8ff" stroke="#63b8ff" points="611.34,-286.22 612.02,-296.79 618.08,-288.11 611.34,-286.22"/>
</a>
</g>
</g>
<!-- Node9&#45;&gt;Node4 -->
<g id="edge11_Node000009_Node000004" class="edge">
<title>Node9&#45;&gt;Node4</title>
<g id="a_edge11_Node000009_Node000004"><a xlink:title=" ">
<path fill="none" stroke="#63b8ff" d="M578.4,-221.18C559.64,-212.26 539.25,-199.95 524.5,-184 482.68,-138.77 471.42,-61.67 468.49,-30.11"/>
<polygon fill="#63b8ff" stroke="#63b8ff" points="577.18,-224.47 587.73,-225.42 580.07,-218.1 577.18,-224.47"/>
</a>
</g>
</g>
<!-- Node10 -->
<g id="Node000010" class="node">
<title>Node10</title>
<g id="a_Node000010"><a xlink:href="GraphBuilder_8cpp.html" target="_top" xlink:title="Implémentation des phases 1 et 2 — chargement GeoJSON et construction du graphe.">
<polygon fill="white" stroke="#666666" points="911.5,-178.5 711.5,-178.5 711.5,-148.5 911.5,-148.5 911.5,-178.5"/>
<text text-anchor="start" x="719.5" y="-166.5" font-family="Helvetica,sans-Serif" font-size="10.00">SimulateurFerroviaire</text>
<text text-anchor="middle" x="811.5" y="-155.5" font-family="Helvetica,sans-Serif" font-size="10.00">/Modules/GeoParser/GraphBuilder.cpp</text>
</a>
</g>
</g>
<!-- Node9&#45;&gt;Node10 -->
<g id="edge12_Node000009_Node000010" class="edge">
<title>Node9&#45;&gt;Node10</title>
<g id="a_edge12_Node000009_Node000010"><a xlink:title=" ">
<path fill="none" stroke="#63b8ff" d="M671.76,-221.46C704.09,-208.28 747.28,-190.68 777.05,-178.54"/>
<polygon fill="#63b8ff" stroke="#63b8ff" points="670.05,-218.38 662.11,-225.39 672.69,-224.86 670.05,-218.38"/>
</a>
</g>
</g>
<!-- Node9&#45;&gt;Node11 -->
<g id="edge13_Node000009_Node000011" class="edge">
<title>Node9&#45;&gt;Node11</title>
<g id="a_edge13_Node000009_Node000011"><a xlink:title=" ">
<path fill="none" stroke="#63b8ff" d="M623.03,-215.55C621.14,-205.44 618.97,-193.81 617.18,-184.2"/>
<polygon fill="#63b8ff" stroke="#63b8ff" points="619.59,-216.21 624.87,-225.39 626.47,-214.92 619.59,-216.21"/>
</a>
</g>
</g>
<!-- Node11&#45;&gt;Node4 -->
<g id="edge14_Node000011_Node000004" class="edge">
<title>Node11&#45;&gt;Node4</title>
<g id="a_edge14_Node000011_Node000004"><a xlink:title=" ">
<path fill="none" stroke="#63b8ff" d="M565.28,-137.9C551.16,-129.31 536.35,-118.82 524.5,-107 501.28,-83.82 483.04,-49.5 473.92,-30.32"/>
<polygon fill="#63b8ff" stroke="#63b8ff" points="563.56,-140.95 573.96,-143 567.11,-134.91 563.56,-140.95"/>
</a>
</g>
</g>
<!-- Node11&#45;&gt;Node12 -->
<g id="edge15_Node000011_Node000012" class="edge">
<title>Node11&#45;&gt;Node12</title>
<g id="a_edge15_Node000011_Node000012"><a xlink:title=" ">
<path fill="none" stroke="#63b8ff" d="M622.56,-132.94C625.84,-122.25 629.4,-110.66 632.1,-101.86"/>
<polygon fill="#63b8ff" stroke="#63b8ff" points="619.13,-132.21 619.54,-142.79 625.82,-134.26 619.13,-132.21"/>
</a>
</g>
</g>
<!-- Node14 -->
<g id="Node000014" class="node">
<title>Node14</title>
<g id="a_Node000014"><a xlink:href="TopologyExtractor_8cpp.html" target="_top" xlink:title="Implémentation des phases 3, 4, 5a et 5b du pipeline GeoParser.">
<polygon fill="white" stroke="#666666" points="1015.5,-107 855.5,-107 855.5,-66 1015.5,-66 1015.5,-107"/>
<text text-anchor="start" x="863.5" y="-95" font-family="Helvetica,sans-Serif" font-size="10.00">SimulateurFerroviaire</text>
<text text-anchor="start" x="863.5" y="-84" font-family="Helvetica,sans-Serif" font-size="10.00">/Modules/GeoParser/Topology</text>
<text text-anchor="middle" x="935.5" y="-73" font-family="Helvetica,sans-Serif" font-size="10.00">Extractor.cpp</text>
</a>
</g>
</g>
<!-- Node11&#45;&gt;Node14 -->
<g id="edge18_Node000011_Node000014" class="edge">
<title>Node11&#45;&gt;Node14</title>
<g id="a_edge18_Node000011_Node000014"><a xlink:title=" ">
<path fill="none" stroke="#63b8ff" d="M703.52,-141.53C751.19,-130.43 809.24,-116.91 855.34,-106.17"/>
<polygon fill="#63b8ff" stroke="#63b8ff" points="702.45,-138.19 693.51,-143.86 704.04,-145 702.45,-138.19"/>
</a>
</g>
</g>
<!-- Node12&#45;&gt;Node4 -->
<g id="edge16_Node000012_Node000004" class="edge">
<title>Node12&#45;&gt;Node4</title>
<g id="a_edge16_Node000012_Node000004"><a xlink:title=" ">
<path fill="none" stroke="#63b8ff" d="M593,-67.61C564.57,-55.92 527.98,-40.87 501.65,-30.04"/>
<polygon fill="#63b8ff" stroke="#63b8ff" points="591.72,-70.87 602.3,-71.44 594.38,-64.4 591.72,-70.87"/>
</a>
</g>
</g>
<!-- Node13 -->
<g id="Node000013" class="node">
<title>Node13</title>
<g id="a_Node000013"><a xlink:href="SwitchOrientator_8cpp.html" target="_top" xlink:title="Implémentation des phases 6, 6b et 6c — orientation des aiguillages.">
<polygon fill="white" stroke="#666666" points="1023.5,-30 805.5,-30 805.5,0 1023.5,0 1023.5,-30"/>
<text text-anchor="start" x="813.5" y="-18" font-family="Helvetica,sans-Serif" font-size="10.00">SimulateurFerroviaire</text>
<text text-anchor="middle" x="914.5" y="-7" font-family="Helvetica,sans-Serif" font-size="10.00">/Modules/GeoParser/SwitchOrientator.cpp</text>
</a>
</g>
</g>
<!-- Node12&#45;&gt;Node13 -->
<g id="edge17_Node000012_Node000013" class="edge">
<title>Node12&#45;&gt;Node13</title>
<g id="a_edge17_Node000012_Node000013"><a xlink:title=" ">
<path fill="none" stroke="#63b8ff" d="M702.63,-68.97C750.08,-57.11 813.32,-41.3 858.33,-30.04"/>
<polygon fill="#63b8ff" stroke="#63b8ff" points="701.61,-65.61 692.76,-71.44 703.31,-72.41 701.61,-65.61"/>
</a>
</g>
</g>
<!-- Node15&#45;&gt;Node8 -->
<g id="edge23_Node000015_Node000008" class="edge">
<title>Node15&#45;&gt;Node8</title>
<g id="a_edge23_Node000015_Node000008"><a xlink:title=" ">
<path fill="none" stroke="#63b8ff" d="M1033.76,-211.39C1027.7,-202.3 1021.11,-192.41 1015.55,-184.07"/>
<polygon fill="#63b8ff" stroke="#63b8ff" points="1030.9,-213.42 1039.36,-219.79 1036.73,-209.53 1030.9,-213.42"/>
</a>
</g>
</g>
<!-- Node15&#45;&gt;Node10 -->
<g id="edge24_Node000015_Node000010" class="edge">
<title>Node15&#45;&gt;Node10</title>
<g id="a_edge24_Node000015_Node000010"><a xlink:title=" ">
<path fill="none" stroke="#63b8ff" d="M980.08,-216.96C940.01,-204.49 891.44,-189.38 856.75,-178.58"/>
<polygon fill="#63b8ff" stroke="#63b8ff" points="979.22,-220.36 989.81,-219.99 981.3,-213.68 979.22,-220.36"/>
</a>
</g>
</g>
<!-- Node15&#45;&gt;Node13 -->
<g id="edge25_Node000015_Node000013" class="edge">
<title>Node15&#45;&gt;Node13</title>
<g id="a_edge25_Node000015_Node000013"><a xlink:title=" ">
<path fill="none" stroke="#63b8ff" d="M1083.12,-212.63C1090.57,-204.28 1097.53,-194.49 1101.5,-184 1107.95,-166.96 1108.47,-159.84 1101.5,-143 1076.72,-83.18 1006.2,-47.71 959.19,-30.06"/>
<polygon fill="#63b8ff" stroke="#63b8ff" points="1080.59,-210.21 1076.22,-219.87 1085.65,-215.05 1080.59,-210.21"/>
</a>
</g>
</g>
<!-- Node15&#45;&gt;Node14 -->
<g id="edge26_Node000015_Node000014" class="edge">
<title>Node15&#45;&gt;Node14</title>
<g id="a_edge26_Node000015_Node000014"><a xlink:title=" ">
<path fill="none" stroke="#63b8ff" d="M1074.4,-211.38C1087.39,-191.02 1098.8,-163.58 1084.5,-143 1068.59,-120.1 1042.05,-106.63 1015.73,-98.72"/>
<polygon fill="#63b8ff" stroke="#63b8ff" points="1071.33,-209.66 1068.6,-219.9 1077.12,-213.6 1071.33,-209.66"/>
</a>
</g>
</g>
<!-- Node16 -->
<g id="Node000016" class="node">
<title>Node16</title>
<g id="a_Node000016"><a xlink:href="GeometryUtils_8cpp.html" target="_top" xlink:title="Implémentation des utilitaires géométriques — projection UTM et géométrie pure.">
<polygon fill="white" stroke="#666666" points="1309,-184 1170,-184 1170,-143 1309,-143 1309,-184"/>
<text text-anchor="start" x="1178" y="-172" font-family="Helvetica,sans-Serif" font-size="10.00">SimulateurFerroviaire</text>
<text text-anchor="start" x="1178" y="-161" font-family="Helvetica,sans-Serif" font-size="10.00">/Modules/GeoParser/Utils</text>
<text text-anchor="middle" x="1239.5" y="-150" font-family="Helvetica,sans-Serif" font-size="10.00">/GeometryUtils.cpp</text>
</a>
</g>
</g>
<!-- Node15&#45;&gt;Node16 -->
<g id="edge27_Node000015_Node000016" class="edge">
<title>Node15&#45;&gt;Node16</title>
<g id="a_edge27_Node000015_Node000016"><a xlink:title=" ">
<path fill="none" stroke="#63b8ff" d="M1110.43,-216.27C1136.19,-205.94 1166.19,-193.9 1190.78,-184.04"/>
<polygon fill="#63b8ff" stroke="#63b8ff" points="1109.12,-213.02 1101.14,-219.99 1111.73,-219.52 1109.12,-213.02"/>
</a>
</g>
</g>
</g>
</svg>
