<?xml version="1.0" encoding="UTF-8" standalone="no"?>
<!DOCTYPE svg PUBLIC "-//W3C//DTD SVG 1.1//EN"
 "http://www.w3.org/Graphics/SVG/1.1/DTD/svg11.dtd">
<!-- Generated by graphviz version 2.43.0 (0)
 -->
<!-- Title: SimulateurFerroviaire/Modules/GeoParser/GeoParser.h Pages: 1 -->
<svg width="751pt" height="357pt"
 viewBox="0.00 0.00 751.00 357.00" xmlns="http://www.w3.org/2000/svg" xmlns:xlink="http://www.w3.org/1999/xlink">
<g id="graph0" class="graph" transform="scale(1 1) rotate(0) translate(4 353)">
<title>SimulateurFerroviaire/Modules/GeoParser/GeoParser.h</title>
<!-- Node1 -->
<g id="Node000001" class="node">
<title>Node1</title>
<g id="a_Node000001"><a xlink:title="Orchestrateur principal du pipeline GeoJSON ferroviaire.">
<polygon fill="#999999" stroke="#666666" points="334,-349 160,-349 160,-319 334,-319 334,-349"/>
<text text-anchor="start" x="168" y="-337" font-family="Helvetica,sans-Serif" font-size="10.00">SimulateurFerroviaire</text>
<text text-anchor="middle" x="247" y="-326" font-family="Helvetica,sans-Serif" font-size="10.00">/Modules/GeoParser/GeoParser.h</text>
</a>
</g>
</g>
<!-- Node2 -->
<g id="Node000002" class="node">
<title>Node2</title>
<g id="a_Node000002"><a xlink:title=" ">
<polygon fill="#e0e0e0" stroke="#999999" points="213,-19 169,-19 169,0 213,0 213,-19"/>
<text text-anchor="middle" x="191" y="-7" font-family="Helvetica,sans-Serif" font-size="10.00">string</text>
</a>
</g>
</g>
<!-- Node1&#45;&gt;Node2 -->
<g id="edge1_Node000001_Node000002" class="edge">
<title>Node1&#45;&gt;Node2</title>
<g id="a_edge1_Node000001_Node000002"><a xlink:title=" ">
<path fill="none" stroke="#63b8ff" d="M159.78,-326.62C121.78,-320.2 78.58,-307.58 46,-283 13.26,-258.3 0,-244.01 0,-203 0,-203 0,-203 0,-135 0,-60.07 104.44,-27.88 158.86,-16.19"/>
<polygon fill="#63b8ff" stroke="#63b8ff" points="159.62,-19.61 168.72,-14.18 158.22,-12.75 159.62,-19.61"/>
</a>
</g>
</g>
<!-- Node3 -->
<g id="Node000003" class="node">
<title>Node3</title>
<g id="a_Node000003"><a xlink:title=" ">
<polygon fill="#e0e0e0" stroke="#999999" points="75.5,-211.5 28.5,-211.5 28.5,-192.5 75.5,-192.5 75.5,-211.5"/>
<text text-anchor="middle" x="52" y="-199.5" font-family="Helvetica,sans-Serif" font-size="10.00">vector</text>
</a>
</g>
</g>
<!-- Node1&#45;&gt;Node3 -->
<g id="edge2_Node000001_Node000003" class="edge">
<title>Node1&#45;&gt;Node3</title>
<g id="a_edge2_Node000001_Node000003"><a xlink:title=" ">
<path fill="none" stroke="#63b8ff" d="M159.95,-319.04C118.66,-310.59 75.42,-298.44 62,-283 47.47,-266.28 47.08,-239.66 48.9,-221.77"/>
<polygon fill="#63b8ff" stroke="#63b8ff" points="52.4,-222.07 50.26,-211.7 45.46,-221.14 52.4,-222.07"/>
</a>
</g>
</g>
<!-- Node4 -->
<g id="Node000004" class="node">
<title>Node4</title>
<g id="a_Node000004"><a xlink:title=" ">
<polygon fill="#e0e0e0" stroke="#999999" points="136.5,-277.5 71.5,-277.5 71.5,-258.5 136.5,-258.5 136.5,-277.5"/>
<text text-anchor="middle" x="104" y="-265.5" font-family="Helvetica,sans-Serif" font-size="10.00">functional</text>
</a>
</g>
</g>
<!-- Node1&#45;&gt;Node4 -->
<g id="edge3_Node000001_Node000004" class="edge">
<title>Node1&#45;&gt;Node4</title>
<g id="a_edge3_Node000001_Node000004"><a xlink:title=" ">
<path fill="none" stroke="#63b8ff" d="M215.62,-318.95C190.76,-307.83 156.34,-292.42 132.32,-281.67"/>
<polygon fill="#63b8ff" stroke="#63b8ff" points="133.59,-278.41 123.03,-277.52 130.73,-284.8 133.59,-278.41"/>
</a>
</g>
</g>
<!-- Node5 -->
<g id="Node000005" class="node">
<title>Node5</title>
<g id="a_Node000005"><a xlink:href="StraightBlock_8h.html" target="_top" xlink:title="Modèle de domaine d&#39;un bloc de voie droite (Straight).">
<polygon fill="white" stroke="#666666" points="339.5,-283 154.5,-283 154.5,-253 339.5,-253 339.5,-283"/>
<text text-anchor="start" x="162.5" y="-271" font-family="Helvetica,sans-Serif" font-size="10.00">Modules/InteractiveElements</text>
<text text-anchor="middle" x="247" y="-260" font-family="Helvetica,sans-Serif" font-size="10.00">/ShuntingElements/StraightBlock.h</text>
</a>
</g>
</g>
<!-- Node1&#45;&gt;Node5 -->
<g id="edge4_Node000001_Node000005" class="edge">
<title>Node1&#45;&gt;Node5</title>
<g id="a_edge4_Node000001_Node000005"><a xlink:title=" ">
<path fill="none" stroke="#63b8ff" d="M247,-318.8C247,-311.34 247,-301.99 247,-293.41"/>
<polygon fill="#63b8ff" stroke="#63b8ff" points="250.5,-293.16 247,-283.16 243.5,-293.16 250.5,-293.16"/>
</a>
</g>
</g>
<!-- Node8 -->
<g id="Node000008" class="node">
<title>Node8</title>
<g id="a_Node000008"><a xlink:href="Logger_8h.html" target="_top" xlink:title="Système de journalisation à 5 niveaux de trace, un fichier par moteur.">
<polygon fill="white" stroke="#666666" points="462.5,-85 351.5,-85 351.5,-55 462.5,-55 462.5,-85"/>
<text text-anchor="start" x="359.5" y="-73" font-family="Helvetica,sans-Serif" font-size="10.00">Engine/Core/Logger</text>
<text text-anchor="middle" x="407" y="-62" font-family="Helvetica,sans-Serif" font-size="10.00">/Logger.h</text>
</a>
</g>
</g>
<!-- Node1&#45;&gt;Node8 -->
<g id="edge26_Node000001_Node000008" class="edge">
<title>Node1&#45;&gt;Node8</title>
<g id="a_edge26_Node000001_Node000008"><a xlink:title=" ">
<path fill="none" stroke="#63b8ff" d="M288.08,-318.9C307.82,-310.66 330.85,-298.75 348,-283 401.83,-233.57 408.16,-139.64 407.91,-95.31"/>
<polygon fill="#63b8ff" stroke="#63b8ff" points="411.41,-95.11 407.74,-85.17 404.41,-95.23 411.41,-95.11"/>
</a>
</g>
</g>
<!-- Node15 -->
<g id="Node000015" class="node">
<title>Node15</title>
<g id="a_Node000015"><a xlink:href="SwitchBlock_8h.html" target="_top" xlink:title="Modèle de domaine d&#39;un aiguillage ferroviaire à 3 branches.">
<polygon fill="white" stroke="#666666" points="574.5,-283 395.5,-283 395.5,-253 574.5,-253 574.5,-283"/>
<text text-anchor="start" x="403.5" y="-271" font-family="Helvetica,sans-Serif" font-size="10.00">Modules/InteractiveElements</text>
<text text-anchor="middle" x="485" y="-260" font-family="Helvetica,sans-Serif" font-size="10.00">/ShuntingElements/SwitchBlock.h</text>
</a>
</g>
</g>
<!-- Node1&#45;&gt;Node15 -->
<g id="edge18_Node000001_Node000015" class="edge">
<title>Node1&#45;&gt;Node15</title>
<g id="a_edge18_Node000001_Node000015"><a xlink:title=" ">
<path fill="none" stroke="#63b8ff" d="M299.23,-318.95C335.66,-309.16 384.43,-296.05 422.85,-285.71"/>
<polygon fill="#63b8ff" stroke="#63b8ff" points="424.14,-288.99 432.89,-283.01 422.33,-282.23 424.14,-288.99"/>
</a>
</g>
</g>
<!-- Node17 -->
<g id="Node000017" class="node">
<title>Node17</title>
<g id="a_Node000017"><a xlink:href="GeoParserEnums_8h.html" target="_top" xlink:title="Constantes nommées et énumérations du pipeline ferroviaire GeoParser.">
<polygon fill="white" stroke="#666666" points="743,-277.5 593,-277.5 593,-258.5 743,-258.5 743,-277.5"/>
<text text-anchor="middle" x="668" y="-265.5" font-family="Helvetica,sans-Serif" font-size="10.00">./Enums/GeoParserEnums.h</text>
</a>
</g>
</g>
<!-- Node1&#45;&gt;Node17 -->
<g id="edge25_Node000001_Node000017" class="edge">
<title>Node1&#45;&gt;Node17</title>
<g id="a_edge25_Node000001_Node000017"><a xlink:title=" ">
<path fill="none" stroke="#63b8ff" d="M334.35,-320.48C402.42,-310.61 499.28,-296.34 584,-283 591.7,-281.79 599.79,-280.48 607.79,-279.17"/>
<polygon fill="#63b8ff" stroke="#63b8ff" points="608.53,-282.59 617.83,-277.51 607.39,-275.69 608.53,-282.59"/>
</a>
</g>
</g>
<!-- Node5&#45;&gt;Node2 -->
<g id="edge5_Node000005_Node000002" class="edge">
<title>Node5&#45;&gt;Node2</title>
<g id="a_edge5_Node000005_Node000002"><a xlink:title=" ">
<path fill="none" stroke="#63b8ff" d="M173.11,-252.92C153.65,-245.52 134.82,-234.23 123,-217 80.3,-154.76 145.8,-63.76 176.52,-26.9"/>
<polygon fill="#63b8ff" stroke="#63b8ff" points="179.33,-29 183.16,-19.13 174,-24.46 179.33,-29"/>
</a>
</g>
</g>
<!-- Node5&#45;&gt;Node3 -->
<g id="edge6_Node000005_Node000003" class="edge">
<title>Node5&#45;&gt;Node3</title>
<g id="a_edge6_Node000005_Node000003"><a xlink:title=" ">
<path fill="none" stroke="#63b8ff" d="M201.14,-252.99C169.73,-243.25 127.2,-229.77 90,-217 88.15,-216.37 86.26,-215.71 84.36,-215.03"/>
<polygon fill="#63b8ff" stroke="#63b8ff" points="85.44,-211.7 74.85,-211.61 83.07,-218.29 85.44,-211.7"/>
</a>
</g>
</g>
<!-- Node6 -->
<g id="Node000006" class="node">
<title>Node6</title>
<g id="a_Node000006"><a xlink:href="ShuntingElement_8h.html" target="_top" xlink:title="Interface abstraite pour tous les éléments de shuntage ferroviaire.">
<polygon fill="white" stroke="#666666" points="241.5,-211.5 132.5,-211.5 132.5,-192.5 241.5,-192.5 241.5,-211.5"/>
<text text-anchor="middle" x="187" y="-199.5" font-family="Helvetica,sans-Serif" font-size="10.00">ShuntingElement.h</text>
</a>
</g>
</g>
<!-- Node5&#45;&gt;Node6 -->
<g id="edge7_Node000005_Node000006" class="edge">
<title>Node5&#45;&gt;Node6</title>
<g id="a_edge7_Node000005_Node000006"><a xlink:title=" ">
<path fill="none" stroke="#63b8ff" d="M233.68,-252.8C224.42,-242.92 212.05,-229.72 202.37,-219.39"/>
<polygon fill="#63b8ff" stroke="#63b8ff" points="204.68,-216.75 195.29,-211.84 199.58,-221.53 204.68,-216.75"/>
</a>
</g>
</g>
<!-- Node14 -->
<g id="Node000014" class="node">
<title>Node14</title>
<g id="a_Node000014"><a xlink:href="LatLon_8h.html" target="_top" xlink:title="Représentation d&#39;une coordonnée géographique WGS&#45;84 (latitude, longitude).">
<polygon fill="white" stroke="#666666" points="378.5,-217 259.5,-217 259.5,-187 378.5,-187 378.5,-217"/>
<text text-anchor="start" x="267.5" y="-205" font-family="Helvetica,sans-Serif" font-size="10.00">Modules/Coordinates</text>
<text text-anchor="middle" x="319" y="-194" font-family="Helvetica,sans-Serif" font-size="10.00">/LatLon.h</text>
</a>
</g>
</g>
<!-- Node5&#45;&gt;Node14 -->
<g id="edge17_Node000005_Node000014" class="edge">
<title>Node5&#45;&gt;Node14</title>
<g id="a_edge17_Node000005_Node000014"><a xlink:title=" ">
<path fill="none" stroke="#63b8ff" d="M262.98,-252.8C272.49,-244.34 284.73,-233.46 295.34,-224.03"/>
<polygon fill="#63b8ff" stroke="#63b8ff" points="297.92,-226.42 303.07,-217.16 293.27,-221.19 297.92,-226.42"/>
</a>
</g>
</g>
<!-- Node7 -->
<g id="Node000007" class="node">
<title>Node7</title>
<g id="a_Node000007"><a xlink:href="InteractiveElement_8h.html" target="_top" xlink:title="Classe de base abstraite pour tous les éléments interactifs ferroviaires.">
<polygon fill="white" stroke="#666666" points="290.5,-151 131.5,-151 131.5,-121 290.5,-121 290.5,-151"/>
<text text-anchor="start" x="139.5" y="-139" font-family="Helvetica,sans-Serif" font-size="10.00">Modules/InteractiveElements</text>
<text text-anchor="middle" x="211" y="-128" font-family="Helvetica,sans-Serif" font-size="10.00">/InteractiveElement.h</text>
</a>
</g>
</g>
<!-- Node6&#45;&gt;Node7 -->
<g id="edge8_Node000006_Node000007" class="edge">
<title>Node6&#45;&gt;Node7</title>
<g id="a_edge8_Node000006_Node000007"><a xlink:title=" ">
<path fill="none" stroke="#63b8ff" d="M190.24,-192.37C193.25,-184.32 197.9,-171.94 202.03,-160.93"/>
<polygon fill="#63b8ff" stroke="#63b8ff" points="205.38,-161.95 205.61,-151.36 198.83,-159.49 205.38,-161.95"/>
</a>
</g>
</g>
<!-- Node7&#45;&gt;Node2 -->
<g id="edge9_Node000007_Node000002" class="edge">
<title>Node7&#45;&gt;Node2</title>
<g id="a_edge9_Node000007_Node000002"><a xlink:title=" ">
<path fill="none" stroke="#63b8ff" d="M208.71,-120.72C205.08,-98.12 198.01,-54.12 193.99,-29.09"/>
<polygon fill="#63b8ff" stroke="#63b8ff" points="197.42,-28.39 192.38,-19.07 190.51,-29.5 197.42,-28.39"/>
</a>
</g>
</g>
<!-- Node7&#45;&gt;Node8 -->
<g id="edge10_Node000007_Node000008" class="edge">
<title>Node7&#45;&gt;Node8</title>
<g id="a_edge10_Node000007_Node000008"><a xlink:title=" ">
<path fill="none" stroke="#63b8ff" d="M254.01,-120.95C283.5,-111.33 322.81,-98.49 354.2,-88.24"/>
<polygon fill="#63b8ff" stroke="#63b8ff" points="355.67,-91.44 364.09,-85.01 353.49,-84.79 355.67,-91.44"/>
</a>
</g>
</g>
<!-- Node8&#45;&gt;Node2 -->
<g id="edge16_Node000008_Node000002" class="edge">
<title>Node8&#45;&gt;Node2</title>
<g id="a_edge16_Node000008_Node000002"><a xlink:title=" ">
<path fill="none" stroke="#63b8ff" d="M354.76,-54.93C319.94,-45.55 272.9,-32.84 222.75,-19.2"/>
<polygon fill="#63b8ff" stroke="#63b8ff" points="223.58,-15.8 213.01,-16.55 221.74,-22.55 223.58,-15.8"/>
</a>
</g>
</g>
<!-- Node9 -->
<g id="Node000009" class="node">
<title>Node9</title>
<g id="a_Node000009"><a xlink:title=" ">
<polygon fill="#e0e0e0" stroke="#999999" points="275,-19 231,-19 231,0 275,0 275,-19"/>
<text text-anchor="middle" x="253" y="-7" font-family="Helvetica,sans-Serif" font-size="10.00">ctime</text>
</a>
</g>
</g>
<!-- Node8&#45;&gt;Node9 -->
<g id="edge11_Node000008_Node000009" class="edge">
<title>Node8&#45;&gt;Node9</title>
<g id="a_edge11_Node000008_Node000009"><a xlink:title=" ">
<path fill="none" stroke="#63b8ff" d="M370.11,-54.99C344.15,-45.12 309.74,-32.05 284.95,-22.64"/>
<polygon fill="#63b8ff" stroke="#63b8ff" points="285.88,-19.25 275.29,-18.97 283.4,-25.79 285.88,-19.25"/>
</a>
</g>
</g>
<!-- Node10 -->
<g id="Node000010" class="node">
<title>Node10</title>
<g id="a_Node000010"><a xlink:title=" ">
<polygon fill="#e0e0e0" stroke="#999999" points="361,-19 293,-19 293,0 361,0 361,-19"/>
<text text-anchor="middle" x="327" y="-7" font-family="Helvetica,sans-Serif" font-size="10.00">filesystem</text>
</a>
</g>
</g>
<!-- Node8&#45;&gt;Node10 -->
<g id="edge12_Node000008_Node000010" class="edge">
<title>Node8&#45;&gt;Node10</title>
<g id="a_edge12_Node000008_Node000010"><a xlink:title=" ">
<path fill="none" stroke="#63b8ff" d="M387.63,-54.84C375.43,-45.91 359.69,-34.41 347.31,-25.35"/>
<polygon fill="#63b8ff" stroke="#63b8ff" points="349.13,-22.34 338.99,-19.27 344.99,-27.99 349.13,-22.34"/>
</a>
</g>
</g>
<!-- Node11 -->
<g id="Node000011" class="node">
<title>Node11</title>
<g id="a_Node000011"><a xlink:title=" ">
<polygon fill="#e0e0e0" stroke="#999999" points="434.5,-19 379.5,-19 379.5,0 434.5,0 434.5,-19"/>
<text text-anchor="middle" x="407" y="-7" font-family="Helvetica,sans-Serif" font-size="10.00">fstream</text>
</a>
</g>
</g>
<!-- Node8&#45;&gt;Node11 -->
<g id="edge13_Node000008_Node000011" class="edge">
<title>Node8&#45;&gt;Node11</title>
<g id="a_edge13_Node000008_Node000011"><a xlink:title=" ">
<path fill="none" stroke="#63b8ff" d="M407,-54.84C407,-47.21 407,-37.7 407,-29.45"/>
<polygon fill="#63b8ff" stroke="#63b8ff" points="410.5,-29.27 407,-19.27 403.5,-29.27 410.5,-29.27"/>
</a>
</g>
</g>
<!-- Node12 -->
<g id="Node000012" class="node">
<title>Node12</title>
<g id="a_Node000012"><a xlink:title=" ">
<polygon fill="#e0e0e0" stroke="#999999" points="501,-19 453,-19 453,0 501,0 501,-19"/>
<text text-anchor="middle" x="477" y="-7" font-family="Helvetica,sans-Serif" font-size="10.00">mutex</text>
</a>
</g>
</g>
<!-- Node8&#45;&gt;Node12 -->
<g id="edge14_Node000008_Node000012" class="edge">
<title>Node8&#45;&gt;Node12</title>
<g id="a_edge14_Node000008_Node000012"><a xlink:title=" ">
<path fill="none" stroke="#63b8ff" d="M423.95,-54.84C434.42,-46.09 447.86,-34.85 458.59,-25.88"/>
<polygon fill="#63b8ff" stroke="#63b8ff" points="461.08,-28.36 466.51,-19.27 456.59,-22.99 461.08,-28.36"/>
</a>
</g>
</g>
<!-- Node13 -->
<g id="Node000013" class="node">
<title>Node13</title>
<g id="a_Node000013"><a xlink:title=" ">
<polygon fill="#e0e0e0" stroke="#999999" points="575,-19 519,-19 519,0 575,0 575,-19"/>
<text text-anchor="middle" x="547" y="-7" font-family="Helvetica,sans-Serif" font-size="10.00">sstream</text>
</a>
</g>
</g>
<!-- Node8&#45;&gt;Node13 -->
<g id="edge15_Node000008_Node000013" class="edge">
<title>Node8&#45;&gt;Node13</title>
<g id="a_edge15_Node000008_Node000013"><a xlink:title=" ">
<path fill="none" stroke="#63b8ff" d="M440.53,-54.99C463.79,-45.27 494.49,-32.44 516.95,-23.06"/>
<polygon fill="#63b8ff" stroke="#63b8ff" points="518.45,-26.22 526.32,-19.14 515.75,-19.77 518.45,-26.22"/>
</a>
</g>
</g>
<!-- Node15&#45;&gt;Node2 -->
<g id="edge21_Node000015_Node000002" class="edge">
<title>Node15&#45;&gt;Node2</title>
<g id="a_edge21_Node000015_Node000002"><a xlink:title=" ">
<path fill="none" stroke="#63b8ff" d="M468.77,-252.84C417.92,-208.47 261.86,-72.32 208.84,-26.07"/>
<polygon fill="#63b8ff" stroke="#63b8ff" points="210.82,-23.14 200.98,-19.21 206.22,-28.42 210.82,-23.14"/>
</a>
</g>
</g>
<!-- Node15&#45;&gt;Node3 -->
<g id="edge22_Node000015_Node000003" class="edge">
<title>Node15&#45;&gt;Node3</title>
<g id="a_edge22_Node000015_Node000003"><a xlink:title=" ">
<path fill="none" stroke="#63b8ff" d="M395.15,-256.05C321.77,-246.75 215.45,-232.49 123,-217 110.73,-214.95 97.34,-212.39 85.52,-210.02"/>
<polygon fill="#63b8ff" stroke="#63b8ff" points="86.1,-206.57 75.6,-208.01 84.71,-213.43 86.1,-206.57"/>
</a>
</g>
</g>
<!-- Node15&#45;&gt;Node6 -->
<g id="edge24_Node000015_Node000006" class="edge">
<title>Node15&#45;&gt;Node6</title>
<g id="a_edge24_Node000015_Node000006"><a xlink:title=" ">
<path fill="none" stroke="#63b8ff" d="M418.36,-252.99C371.3,-243.05 306.76,-229.34 250,-217 245.25,-215.97 240.31,-214.88 235.37,-213.8"/>
<polygon fill="#63b8ff" stroke="#63b8ff" points="235.82,-210.31 225.3,-211.57 234.31,-217.15 235.82,-210.31"/>
</a>
</g>
</g>
<!-- Node15&#45;&gt;Node13 -->
<g id="edge20_Node000015_Node000013" class="edge">
<title>Node15&#45;&gt;Node13</title>
<g id="a_edge20_Node000015_Node000013"><a xlink:title=" ">
<path fill="none" stroke="#63b8ff" d="M488.42,-252.84C498.93,-209.39 530.71,-77.9 542.52,-29.04"/>
<polygon fill="#63b8ff" stroke="#63b8ff" points="545.95,-29.75 544.9,-19.21 539.14,-28.11 545.95,-29.75"/>
</a>
</g>
</g>
<!-- Node15&#45;&gt;Node14 -->
<g id="edge23_Node000015_Node000014" class="edge">
<title>Node15&#45;&gt;Node14</title>
<g id="a_edge23_Node000015_Node000014"><a xlink:title=" ">
<path fill="none" stroke="#63b8ff" d="M448.57,-252.95C423.92,-243.45 391.17,-230.82 364.76,-220.64"/>
<polygon fill="#63b8ff" stroke="#63b8ff" points="365.93,-217.34 355.34,-217.01 363.42,-223.88 365.93,-217.34"/>
</a>
</g>
</g>
<!-- Node16 -->
<g id="Node000016" class="node">
<title>Node16</title>
<g id="a_Node000016"><a xlink:title=" ">
<polygon fill="#e0e0e0" stroke="#999999" points="575,-211.5 519,-211.5 519,-192.5 575,-192.5 575,-211.5"/>
<text text-anchor="middle" x="547" y="-199.5" font-family="Helvetica,sans-Serif" font-size="10.00">optional</text>
</a>
</g>
</g>
<!-- Node15&#45;&gt;Node16 -->
<g id="edge19_Node000015_Node000016" class="edge">
<title>Node15&#45;&gt;Node16</title>
<g id="a_edge19_Node000015_Node000016"><a xlink:title=" ">
<path fill="none" stroke="#63b8ff" d="M498.76,-252.8C508.43,-242.82 521.37,-229.46 531.42,-219.09"/>
<polygon fill="#63b8ff" stroke="#63b8ff" points="533.99,-221.46 538.43,-211.84 528.96,-216.59 533.99,-221.46"/>
</a>
</g>
</g>
</g>
</svg>
