<?xml version="1.0" encoding="UTF-8" standalone="no"?>
<!DOCTYPE svg PUBLIC "-//W3C//DTD SVG 1.1//EN"
 "http://www.w3.org/Graphics/SVG/1.1/DTD/svg11.dtd">
<!-- Generated by graphviz version 2.43.0 (0)
 -->
<!-- Title: SimulateurFerroviaire/Modules/GeoParser/Enums/GeoParserEnums.h Pages: 1 -->
<svg width="1327pt" height="423pt"
 viewBox="0.00 0.00 1327.00 423.00" xmlns="http://www.w3.org/2000/svg" xmlns:xlink="http://www.w3.org/1999/xlink">
<g id="graph0" class="graph" transform="scale(1 1) rotate(0) translate(4 419)">
<title>SimulateurFerroviaire/Modules/GeoParser/Enums/GeoParserEnums.h</title>
<!-- Node1 -->
<g id="Node000001" class="node">
<title>Node1</title>
<g id="a_Node000001"><a xlink:title="Constantes nommées et énumérations du pipeline ferroviaire GeoParser.">
<polygon fill="#999999" stroke="#666666" points="691,-415 542,-415 542,-374 691,-374 691,-415"/>
<text text-anchor="start" x="550" y="-403" font-family="Helvetica,sans-Serif" font-size="10.00">SimulateurFerroviaire</text>
<text text-anchor="start" x="550" y="-392" font-family="Helvetica,sans-Serif" font-size="10.00">/Modules/GeoParser/Enums</text>
<text text-anchor="middle" x="616.5" y="-381" font-family="Helvetica,sans-Serif" font-size="10.00">/GeoParserEnums.h</text>
</a>
</g>
</g>
<!-- Node2 -->
<g id="Node000002" class="node">
<title>Node2</title>
<g id="a_Node000002"><a xlink:href="DoubleSwitchDetector_8h.html" target="_top" xlink:title="Phases 7 et 8 — détection des doubles aiguilles et validation CDC.">
<polygon fill="white" stroke="#666666" points="468,-261 285,-261 285,-220 468,-220 468,-261"/>
<text text-anchor="start" x="293" y="-249" font-family="Helvetica,sans-Serif" font-size="10.00">SimulateurFerroviaire</text>
<text text-anchor="start" x="293" y="-238" font-family="Helvetica,sans-Serif" font-size="10.00">/Modules/GeoParser/DoubleSwitch</text>
<text text-anchor="middle" x="376.5" y="-227" font-family="Helvetica,sans-Serif" font-size="10.00">Detector.h</text>
</a>
</g>
</g>
<!-- Node1&#45;&gt;Node2 -->
<g id="edge1_Node000001_Node000002" class="edge">
<title>Node1&#45;&gt;Node2</title>
<g id="a_edge1_Node000001_Node000002"><a xlink:title=" ">
<path fill="none" stroke="#63b8ff" d="M561.26,-369.69C541.9,-360.6 520.3,-349.62 501.5,-338 463.49,-314.51 423.2,-281.81 398.95,-261.15"/>
<polygon fill="#63b8ff" stroke="#63b8ff" points="560.02,-372.97 570.56,-373.99 562.96,-366.62 560.02,-372.97"/>
</a>
</g>
</g>
<!-- Node5 -->
<g id="Node000005" class="node">
<title>Node5</title>
<g id="a_Node000005"><a xlink:href="GeoParser_8h.html" target="_top" xlink:title="Orchestrateur principal du pipeline GeoJSON ferroviaire.">
<polygon fill="white" stroke="#666666" points="286.5,-332.5 112.5,-332.5 112.5,-302.5 286.5,-302.5 286.5,-332.5"/>
<text text-anchor="start" x="120.5" y="-320.5" font-family="Helvetica,sans-Serif" font-size="10.00">SimulateurFerroviaire</text>
<text text-anchor="middle" x="199.5" y="-309.5" font-family="Helvetica,sans-Serif" font-size="10.00">/Modules/GeoParser/GeoParser.h</text>
</a>
</g>
</g>
<!-- Node1&#45;&gt;Node5 -->
<g id="edge4_Node000001_Node000005" class="edge">
<title>Node1&#45;&gt;Node5</title>
<g id="a_edge4_Node000001_Node000005"><a xlink:title=" ">
<path fill="none" stroke="#63b8ff" d="M531.68,-378.24C457.28,-364.86 349.99,-345.57 277.65,-332.56"/>
<polygon fill="#63b8ff" stroke="#63b8ff" points="531.49,-381.77 541.95,-380.09 532.73,-374.88 531.49,-381.77"/>
</a>
</g>
</g>
<!-- Node7 -->
<g id="Node000007" class="node">
<title>Node7</title>
<g id="a_Node000007"><a xlink:href="TopologyGraph_8h.html" target="_top" xlink:title="Graphe planaire non&#45;orienté de nœuds et d&#39;arêtes ferroviaires accrochés.">
<polygon fill="white" stroke="#666666" points="689.5,-338 543.5,-338 543.5,-297 689.5,-297 689.5,-338"/>
<text text-anchor="start" x="551.5" y="-326" font-family="Helvetica,sans-Serif" font-size="10.00">SimulateurFerroviaire</text>
<text text-anchor="start" x="551.5" y="-315" font-family="Helvetica,sans-Serif" font-size="10.00">/Modules/GeoParser/Graph</text>
<text text-anchor="middle" x="616.5" y="-304" font-family="Helvetica,sans-Serif" font-size="10.00">/TopologyGraph.h</text>
</a>
</g>
</g>
<!-- Node1&#45;&gt;Node7 -->
<g id="edge7_Node000001_Node000007" class="edge">
<title>Node1&#45;&gt;Node7</title>
<g id="a_edge7_Node000001_Node000007"><a xlink:title=" ">
<path fill="none" stroke="#63b8ff" d="M616.5,-363.69C616.5,-355.08 616.5,-345.9 616.5,-338.07"/>
<polygon fill="#63b8ff" stroke="#63b8ff" points="613,-363.79 616.5,-373.79 620,-363.79 613,-363.79"/>
</a>
</g>
</g>
<!-- Node9 -->
<g id="Node000009" class="node">
<title>Node9</title>
<g id="a_Node000009"><a xlink:href="GraphBuilder_8h.html" target="_top" xlink:title="Phases 1 et 2 du pipeline — chargement GeoJSON et construction du graphe métrique.">
<polygon fill="white" stroke="#666666" points="731.5,-255.5 543.5,-255.5 543.5,-225.5 731.5,-225.5 731.5,-255.5"/>
<text text-anchor="start" x="551.5" y="-243.5" font-family="Helvetica,sans-Serif" font-size="10.00">SimulateurFerroviaire</text>
<text text-anchor="middle" x="637.5" y="-232.5" font-family="Helvetica,sans-Serif" font-size="10.00">/Modules/GeoParser/GraphBuilder.h</text>
</a>
</g>
</g>
<!-- Node1&#45;&gt;Node9 -->
<g id="edge19_Node000001_Node000009" class="edge">
<title>Node1&#45;&gt;Node9</title>
<g id="a_edge19_Node000001_Node000009"><a xlink:title=" ">
<path fill="none" stroke="#63b8ff" d="M669.8,-368.48C681.3,-360.44 691.95,-350.34 698.5,-338 707.04,-321.9 705.87,-313.67 698.5,-297 690.8,-279.58 674.64,-265.28 660.88,-255.56"/>
<polygon fill="#63b8ff" stroke="#63b8ff" points="667.82,-365.59 661.33,-373.97 671.62,-371.47 667.82,-365.59"/>
</a>
</g>
</g>
<!-- Node11 -->
<g id="Node000011" class="node">
<title>Node11</title>
<g id="a_Node000011"><a xlink:href="TopologyExtractor_8h.html" target="_top" xlink:title="Phases 3, 4, 5a et 5b — extraction de la topologie ferroviaire depuis le graphe.">
<polygon fill="white" stroke="#666666" points="703.5,-184 543.5,-184 543.5,-143 703.5,-143 703.5,-184"/>
<text text-anchor="start" x="551.5" y="-172" font-family="Helvetica,sans-Serif" font-size="10.00">SimulateurFerroviaire</text>
<text text-anchor="start" x="551.5" y="-161" font-family="Helvetica,sans-Serif" font-size="10.00">/Modules/GeoParser/Topology</text>
<text text-anchor="middle" x="623.5" y="-150" font-family="Helvetica,sans-Serif" font-size="10.00">Extractor.h</text>
</a>
</g>
</g>
<!-- Node1&#45;&gt;Node11 -->
<g id="edge21_Node000001_Node000011" class="edge">
<title>Node1&#45;&gt;Node11</title>
<g id="a_edge21_Node000001_Node000011"><a xlink:title=" ">
<path fill="none" stroke="#63b8ff" d="M676.7,-369.11C691,-360.98 705.1,-350.68 715.5,-338 738.32,-310.18 734.88,-296.54 740.5,-261 743.35,-243 750.24,-235.4 740.5,-220 730.29,-203.85 713.96,-192.31 696.7,-184.09"/>
<polygon fill="#63b8ff" stroke="#63b8ff" points="674.96,-366.08 667.81,-373.89 678.27,-372.24 674.96,-366.08"/>
</a>
</g>
</g>
<!-- Node12 -->
<g id="Node000012" class="node">
<title>Node12</title>
<g id="a_Node000012"><a xlink:href="SwitchOrientator_8h.html" target="_top" xlink:title="Phases 6, 6b, 6c et 6d — orientation géométrique des aiguillages.">
<polygon fill="white" stroke="#666666" points="749.5,-101.5 543.5,-101.5 543.5,-71.5 749.5,-71.5 749.5,-101.5"/>
<text text-anchor="start" x="551.5" y="-89.5" font-family="Helvetica,sans-Serif" font-size="10.00">SimulateurFerroviaire</text>
<text text-anchor="middle" x="646.5" y="-78.5" font-family="Helvetica,sans-Serif" font-size="10.00">/Modules/GeoParser/SwitchOrientator.h</text>
</a>
</g>
</g>
<!-- Node1&#45;&gt;Node12 -->
<g id="edge20_Node000001_Node000012" class="edge">
<title>Node1&#45;&gt;Node12</title>
<g id="a_edge20_Node000001_Node000012"><a xlink:title=" ">
<path fill="none" stroke="#63b8ff" d="M563.2,-368.48C551.7,-360.44 541.05,-350.34 534.5,-338 493.87,-261.45 488.8,-216.64 534.5,-143 546.97,-122.9 569.13,-109.86 590.46,-101.5"/>
<polygon fill="#63b8ff" stroke="#63b8ff" points="561.38,-371.47 571.67,-373.97 565.18,-365.59 561.38,-371.47"/>
</a>
</g>
</g>
<!-- Node15 -->
<g id="Node000015" class="node">
<title>Node15</title>
<g id="a_Node000015"><a xlink:href="GeometryUtils_8h.html" target="_top" xlink:title="Utilitaires géométriques métriques pour le pipeline ferroviaire.">
<polygon fill="white" stroke="#666666" points="1132,-261 993,-261 993,-220 1132,-220 1132,-261"/>
<text text-anchor="start" x="1001" y="-249" font-family="Helvetica,sans-Serif" font-size="10.00">SimulateurFerroviaire</text>
<text text-anchor="start" x="1001" y="-238" font-family="Helvetica,sans-Serif" font-size="10.00">/Modules/GeoParser/Utils</text>
<text text-anchor="middle" x="1062.5" y="-227" font-family="Helvetica,sans-Serif" font-size="10.00">/GeometryUtils.h</text>
</a>
</g>
</g>
<!-- Node1&#45;&gt;Node15 -->
<g id="edge22_Node000001_Node000015" class="edge">
<title>Node1&#45;&gt;Node15</title>
<g id="a_edge22_Node000001_Node000015"><a xlink:title=" ">
<path fill="none" stroke="#63b8ff" d="M683.45,-370.68C770.88,-340.89 922.47,-289.22 1004.97,-261.11"/>
<polygon fill="#63b8ff" stroke="#63b8ff" points="682.23,-367.4 673.89,-373.94 684.49,-374.03 682.23,-367.4"/>
</a>
</g>
</g>
<!-- Node3 -->
<g id="Node000003" class="node">
<title>Node3</title>
<g id="a_Node000003"><a xlink:href="DoubleSwitchDetector_8cpp.html" target="_top" xlink:title="Implémentation phases 7 et 8 — doubles aiguilles et validation CDC.">
<polygon fill="white" stroke="#666666" points="449,-184 266,-184 266,-143 449,-143 449,-184"/>
<text text-anchor="start" x="274" y="-172" font-family="Helvetica,sans-Serif" font-size="10.00">SimulateurFerroviaire</text>
<text text-anchor="start" x="274" y="-161" font-family="Helvetica,sans-Serif" font-size="10.00">/Modules/GeoParser/DoubleSwitch</text>
<text text-anchor="middle" x="357.5" y="-150" font-family="Helvetica,sans-Serif" font-size="10.00">Detector.cpp</text>
</a>
</g>
</g>
<!-- Node2&#45;&gt;Node3 -->
<g id="edge2_Node000002_Node000003" class="edge">
<title>Node2&#45;&gt;Node3</title>
<g id="a_edge2_Node000002_Node000003"><a xlink:title=" ">
<path fill="none" stroke="#63b8ff" d="M369.02,-209.98C366.82,-201.28 364.46,-191.98 362.46,-184.07"/>
<polygon fill="#63b8ff" stroke="#63b8ff" points="365.66,-210.96 371.51,-219.79 372.44,-209.24 365.66,-210.96"/>
</a>
</g>
</g>
<!-- Node4 -->
<g id="Node000004" class="node">
<title>Node4</title>
<g id="a_Node000004"><a xlink:href="GeoParser_8cpp.html" target="_top" xlink:title="Implémentation du pipeline GeoParser.">
<polygon fill="white" stroke="#666666" points="570,-30 385,-30 385,0 570,0 570,-30"/>
<text text-anchor="start" x="393" y="-18" font-family="Helvetica,sans-Serif" font-size="10.00">SimulateurFerroviaire</text>
<text text-anchor="middle" x="477.5" y="-7" font-family="Helvetica,sans-Serif" font-size="10.00">/Modules/GeoParser/GeoParser.cpp</text>
</a>
</g>
</g>
<!-- Node2&#45;&gt;Node4 -->
<g id="edge3_Node000002_Node000004" class="edge">
<title>Node2&#45;&gt;Node4</title>
<g id="a_edge3_Node000002_Node000004"><a xlink:title=" ">
<path fill="none" stroke="#63b8ff" d="M291.3,-215.11C277.5,-207.38 264.97,-197.25 256.5,-184 246.69,-168.65 247.37,-158.77 256.5,-143 292.19,-81.34 370.4,-47 423.53,-30.01"/>
<polygon fill="#63b8ff" stroke="#63b8ff" points="290.04,-218.4 300.53,-219.86 293.24,-212.17 290.04,-218.4"/>
</a>
</g>
</g>
<!-- Node5&#45;&gt;Node4 -->
<g id="edge5_Node000005_Node000004" class="edge">
<title>Node5&#45;&gt;Node4</title>
<g id="a_edge5_Node000005_Node000004"><a xlink:title=" ">
<path fill="none" stroke="#63b8ff" d="M199.64,-292.19C201.37,-241.21 213.19,-123.13 283.5,-66 311.98,-42.86 349.93,-30.3 384.72,-23.53"/>
<polygon fill="#63b8ff" stroke="#63b8ff" points="196.14,-292.2 199.4,-302.28 203.14,-292.36 196.14,-292.2"/>
</a>
</g>
</g>
<!-- Node6 -->
<g id="Node000006" class="node">
<title>Node6</title>
<g id="a_Node000006"><a xlink:href="GeoParsingTask_8cpp.html" target="_top" xlink:title="Implémentation de la tâche de parsing GeoJSON asynchrone.">
<polygon fill="white" stroke="#666666" points="171,-261 0,-261 0,-220 171,-220 171,-261"/>
<text text-anchor="start" x="8" y="-249" font-family="Helvetica,sans-Serif" font-size="10.00">SimulateurFerroviaire</text>
<text text-anchor="start" x="8" y="-238" font-family="Helvetica,sans-Serif" font-size="10.00">/Modules/GeoParser/GeoParsing</text>
<text text-anchor="middle" x="85.5" y="-227" font-family="Helvetica,sans-Serif" font-size="10.00">Task.cpp</text>
</a>
</g>
</g>
<!-- Node5&#45;&gt;Node6 -->
<g id="edge6_Node000005_Node000006" class="edge">
<title>Node5&#45;&gt;Node6</title>
<g id="a_edge6_Node000005_Node000006"><a xlink:title=" ">
<path fill="none" stroke="#63b8ff" d="M169.27,-296.61C152.63,-285.66 132.05,-272.12 115.45,-261.2"/>
<polygon fill="#63b8ff" stroke="#63b8ff" points="167.78,-299.82 178.06,-302.39 171.63,-293.97 167.78,-299.82"/>
</a>
</g>
</g>
<!-- Node7&#45;&gt;Node2 -->
<g id="edge8_Node000007_Node000002" class="edge">
<title>Node7&#45;&gt;Node2</title>
<g id="a_edge8_Node000007_Node000002"><a xlink:title=" ">
<path fill="none" stroke="#63b8ff" d="M544.32,-293.94C510.78,-283.46 471.28,-271.12 439.03,-261.04"/>
<polygon fill="#63b8ff" stroke="#63b8ff" points="543.48,-297.35 554.07,-296.99 545.57,-290.67 543.48,-297.35"/>
</a>
</g>
</g>
<!-- Node8 -->
<g id="Node000008" class="node">
<title>Node8</title>
<g id="a_Node000008"><a xlink:href="TopologyGraph_8cpp.html" target="_top" xlink:title="Implémentation du graphe planaire de topologie ferroviaire.">
<polygon fill="white" stroke="#666666" points="1085.5,-184 939.5,-184 939.5,-143 1085.5,-143 1085.5,-184"/>
<text text-anchor="start" x="947.5" y="-172" font-family="Helvetica,sans-Serif" font-size="10.00">SimulateurFerroviaire</text>
<text text-anchor="start" x="947.5" y="-161" font-family="Helvetica,sans-Serif" font-size="10.00">/Modules/GeoParser/Graph</text>
<text text-anchor="middle" x="1012.5" y="-150" font-family="Helvetica,sans-Serif" font-size="10.00">/TopologyGraph.cpp</text>
</a>
</g>
</g>
<!-- Node7&#45;&gt;Node8 -->
<g id="edge9_Node000007_Node000008" class="edge">
<title>Node7&#45;&gt;Node8</title>
<g id="a_edge9_Node000007_Node000008"><a xlink:title=" ">
<path fill="none" stroke="#63b8ff" d="M677.13,-293.23C754.93,-263.36 888.54,-212.08 961.42,-184.11"/>
<polygon fill="#63b8ff" stroke="#63b8ff" points="675.54,-290.09 667.46,-296.94 678.05,-296.62 675.54,-290.09"/>
</a>
</g>
</g>
<!-- Node7&#45;&gt;Node9 -->
<g id="edge10_Node000007_Node000009" class="edge">
<title>Node7&#45;&gt;Node9</title>
<g id="a_edge10_Node000007_Node000009"><a xlink:title=" ">
<path fill="none" stroke="#63b8ff" d="M624.78,-286.94C627.77,-276.25 631.01,-264.66 633.48,-255.86"/>
<polygon fill="#63b8ff" stroke="#63b8ff" points="621.34,-286.22 622.02,-296.79 628.08,-288.11 621.34,-286.22"/>
</a>
</g>
</g>
<!-- Node9&#45;&gt;Node4 -->
<g id="edge11_Node000009_Node000004" class="edge">
<title>Node9&#45;&gt;Node4</title>
<g id="a_edge11_Node000009_Node000004"><a xlink:title=" ">
<path fill="none" stroke="#63b8ff" d="M588.4,-221.18C569.64,-212.26 549.25,-199.95 534.5,-184 492.68,-138.77 481.42,-61.67 478.49,-30.11"/>
<polygon fill="#63b8ff" stroke="#63b8ff" points="587.18,-224.47 597.73,-225.42 590.07,-218.1 587.18,-224.47"/>
</a>
</g>
</g>
<!-- Node10 -->
<g id="Node000010" class="node">
<title>Node10</title>
<g id="a_Node000010"><a xlink:href="GraphBuilder_8cpp.html" target="_top" xlink:title="Implémentation des phases 1 et 2 — chargement GeoJSON et construction du graphe.">
<polygon fill="white" stroke="#666666" points="921.5,-178.5 721.5,-178.5 721.5,-148.5 921.5,-148.5 921.5,-178.5"/>
<text text-anchor="start" x="729.5" y="-166.5" font-family="Helvetica,sans-Serif" font-size="10.00">SimulateurFerroviaire</text>
<text text-anchor="middle" x="821.5" y="-155.5" font-family="Helvetica,sans-Serif" font-size="10.00">/Modules/GeoParser/GraphBuilder.cpp</text>
</a>
</g>
</g>
<!-- Node9&#45;&gt;Node10 -->
<g id="edge12_Node000009_Node000010" class="edge">
<title>Node9&#45;&gt;Node10</title>
<g id="a_edge12_Node000009_Node000010"><a xlink:title=" ">
<path fill="none" stroke="#63b8ff" d="M681.76,-221.46C714.09,-208.28 757.28,-190.68 787.05,-178.54"/>
<polygon fill="#63b8ff" stroke="#63b8ff" points="680.05,-218.38 672.11,-225.39 682.69,-224.86 680.05,-218.38"/>
</a>
</g>
</g>
<!-- Node9&#45;&gt;Node11 -->
<g id="edge13_Node000009_Node000011" class="edge">
<title>Node9&#45;&gt;Node11</title>
<g id="a_edge13_Node000009_Node000011"><a xlink:title=" ">
<path fill="none" stroke="#63b8ff" d="M633.03,-215.55C631.14,-205.44 628.97,-193.81 627.18,-184.2"/>
<polygon fill="#63b8ff" stroke="#63b8ff" points="629.59,-216.21 634.87,-225.39 636.47,-214.92 629.59,-216.21"/>
</a>
</g>
</g>
<!-- Node11&#45;&gt;Node4 -->
<g id="edge14_Node000011_Node000004" class="edge">
<title>Node11&#45;&gt;Node4</title>
<g id="a_edge14_Node000011_Node000004"><a xlink:title=" ">
<path fill="none" stroke="#63b8ff" d="M575.28,-137.9C561.16,-129.31 546.35,-118.82 534.5,-107 511.28,-83.82 493.04,-49.5 483.92,-30.32"/>
<polygon fill="#63b8ff" stroke="#63b8ff" points="573.56,-140.95 583.96,-143 577.11,-134.91 573.56,-140.95"/>
</a>
</g>
</g>
<!-- Node11&#45;&gt;Node12 -->
<g id="edge15_Node000011_Node000012" class="edge">
<title>Node11&#45;&gt;Node12</title>
<g id="a_edge15_Node000011_Node000012"><a xlink:title=" ">
<path fill="none" stroke="#63b8ff" d="M632.56,-132.94C635.84,-122.25 639.4,-110.66 642.1,-101.86"/>
<polygon fill="#63b8ff" stroke="#63b8ff" points="629.13,-132.21 629.54,-142.79 635.82,-134.26 629.13,-132.21"/>
</a>
</g>
</g>
<!-- Node14 -->
<g id="Node000014" class="node">
<title>Node14</title>
<g id="a_Node000014"><a xlink:href="TopologyExtractor_8cpp.html" target="_top" xlink:title="Implémentation des phases 3, 4, 5a et 5b du pipeline GeoParser.">
<polygon fill="white" stroke="#666666" points="1025.5,-107 865.5,-107 865.5,-66 1025.5,-66 1025.5,-107"/>
<text text-anchor="start" x="873.5" y="-95" font-family="Helvetica,sans-Serif" font-size="10.00">SimulateurFerroviaire</text>
<text text-anchor="start" x="873.5" y="-84" font-family="Helvetica,sans-Serif" font-size="10.00">/Modules/GeoParser/Topology</text>
<text text-anchor="middle" x="945.5" y="-73" font-family="Helvetica,sans-Serif" font-size="10.00">Extractor.cpp</text>
</a>
</g>
</g>
<!-- Node11&#45;&gt;Node14 -->
<g id="edge18_Node000011_Node000014" class="edge">
<title>Node11&#45;&gt;Node14</title>
<g id="a_edge18_Node000011_Node000014"><a xlink:title=" ">
<path fill="none" stroke="#63b8ff" d="M713.52,-141.53C761.19,-130.43 819.24,-116.91 865.34,-106.17"/>
<polygon fill="#63b8ff" stroke="#63b8ff" points="712.45,-138.19 703.51,-143.86 714.04,-145 712.45,-138.19"/>
</a>
</g>
</g>
<!-- Node12&#45;&gt;Node4 -->
<g id="edge16_Node000012_Node000004" class="edge">
<title>Node12&#45;&gt;Node4</title>
<g id="a_edge16_Node000012_Node000004"><a xlink:title=" ">
<path fill="none" stroke="#63b8ff" d="M603,-67.61C574.57,-55.92 537.98,-40.87 511.65,-30.04"/>
<polygon fill="#63b8ff" stroke="#63b8ff" points="601.72,-70.87 612.3,-71.44 604.38,-64.4 601.72,-70.87"/>
</a>
</g>
</g>
<!-- Node13 -->
<g id="Node000013" class="node">
<title>Node13</title>
<g id="a_Node000013"><a xlink:href="SwitchOrientator_8cpp.html" target="_top" xlink:title="Implémentation des phases 6, 6b, 6c et 6d — orientation des aiguillages.">
<polygon fill="white" stroke="#666666" points="1033.5,-30 815.5,-30 815.5,0 1033.5,0 1033.5,-30"/>
<text text-anchor="start" x="823.5" y="-18" font-family="Helvetica,sans-Serif" font-size="10.00">SimulateurFerroviaire</text>
<text text-anchor="middle" x="924.5" y="-7" font-family="Helvetica,sans-Serif" font-size="10.00">/Modules/GeoParser/SwitchOrientator.cpp</text>
</a>
</g>
</g>
<!-- Node12&#45;&gt;Node13 -->
<g id="edge17_Node000012_Node000013" class="edge">
<title>Node12&#45;&gt;Node13</title>
<g id="a_edge17_Node000012_Node000013"><a xlink:title=" ">
<path fill="none" stroke="#63b8ff" d="M712.63,-68.97C760.08,-57.11 823.32,-41.3 868.33,-30.04"/>
<polygon fill="#63b8ff" stroke="#63b8ff" points="711.61,-65.61 702.76,-71.44 713.31,-72.41 711.61,-65.61"/>
</a>
</g>
</g>
<!-- Node15&#45;&gt;Node8 -->
<g id="edge23_Node000015_Node000008" class="edge">
<title>Node15&#45;&gt;Node8</title>
<g id="a_edge23_Node000015_Node000008"><a xlink:title=" ">
<path fill="none" stroke="#63b8ff" d="M1043.76,-211.39C1037.7,-202.3 1031.11,-192.41 1025.55,-184.07"/>
<polygon fill="#63b8ff" stroke="#63b8ff" points="1040.9,-213.42 1049.36,-219.79 1046.73,-209.53 1040.9,-213.42"/>
</a>
</g>
</g>
<!-- Node15&#45;&gt;Node10 -->
<g id="edge24_Node000015_Node000010" class="edge">
<title>Node15&#45;&gt;Node10</title>
<g id="a_edge24_Node000015_Node000010"><a xlink:title=" ">
<path fill="none" stroke="#63b8ff" d="M990.08,-216.96C950.01,-204.49 901.44,-189.38 866.75,-178.58"/>
<polygon fill="#63b8ff" stroke="#63b8ff" points="989.22,-220.36 999.81,-219.99 991.3,-213.68 989.22,-220.36"/>
</a>
</g>
</g>
<!-- Node15&#45;&gt;Node13 -->
<g id="edge25_Node000015_Node000013" class="edge">
<title>Node15&#45;&gt;Node13</title>
<g id="a_edge25_Node000015_Node000013"><a xlink:title=" ">
<path fill="none" stroke="#63b8ff" d="M1093.12,-212.63C1100.57,-204.28 1107.53,-194.49 1111.5,-184 1117.95,-166.96 1118.47,-159.84 1111.5,-143 1086.72,-83.18 1016.2,-47.71 969.19,-30.06"/>
<polygon fill="#63b8ff" stroke="#63b8ff" points="1090.59,-210.21 1086.22,-219.87 1095.65,-215.05 1090.59,-210.21"/>
</a>
</g>
</g>
<!-- Node15&#45;&gt;Node14 -->
<g id="edge26_Node000015_Node000014" class="edge">
<title>Node15&#45;&gt;Node14</title>
<g id="a_edge26_Node000015_Node000014"><a xlink:title=" ">
<path fill="none" stroke="#63b8ff" d="M1084.4,-211.38C1097.39,-191.02 1108.8,-163.58 1094.5,-143 1078.59,-120.1 1052.05,-106.63 1025.73,-98.72"/>
<polygon fill="#63b8ff" stroke="#63b8ff" points="1081.33,-209.66 1078.6,-219.9 1087.12,-213.6 1081.33,-209.66"/>
</a>
</g>
</g>
<!-- Node16 -->
<g id="Node000016" class="node">
<title>Node16</title>
<g id="a_Node000016"><a xlink:href="GeometryUtils_8cpp.html" target="_top" xlink:title="Implémentation des utilitaires géométriques — projection UTM et géométrie pure.">
<polygon fill="white" stroke="#666666" points="1319,-184 1180,-184 1180,-143 1319,-143 1319,-184"/>
<text text-anchor="start" x="1188" y="-172" font-family="Helvetica,sans-Serif" font-size="10.00">SimulateurFerroviaire</text>
<text text-anchor="start" x="1188" y="-161" font-family="Helvetica,sans-Serif" font-size="10.00">/Modules/GeoParser/Utils</text>
<text text-anchor="middle" x="1249.5" y="-150" font-family="Helvetica,sans-Serif" font-size="10.00">/GeometryUtils.cpp</text>
</a>
</g>
</g>
<!-- Node15&#45;&gt;Node16 -->
<g id="edge27_Node000015_Node000016" class="edge">
<title>Node15&#45;&gt;Node16</title>
<g id="a_edge27_Node000015_Node000016"><a xlink:title=" ">
<path fill="none" stroke="#63b8ff" d="M1120.43,-216.27C1146.19,-205.94 1176.19,-193.9 1200.78,-184.04"/>
<polygon fill="#63b8ff" stroke="#63b8ff" points="1119.12,-213.02 1111.14,-219.99 1121.73,-219.52 1119.12,-213.02"/>
</a>
</g>
</g>
</g>
</svg>
