<?xml version="1.0" encoding="UTF-8" standalone="no"?>
<!DOCTYPE svg PUBLIC "-//W3C//DTD SVG 1.1//EN"
 "http://www.w3.org/Graphics/SVG/1.1/DTD/svg11.dtd">
<!-- Generated by graphviz version 2.43.0 (0)
 -->
<!-- Title: SimulateurFerroviaire/Modules/GeoParser/GeoParser.cpp Pages: 1 -->
<svg width="1843pt" height="379pt"
 viewBox="0.00 0.00 1842.57 379.00" xmlns="http://www.w3.org/2000/svg" xmlns:xlink="http://www.w3.org/1999/xlink">
<g id="graph0" class="graph" transform="scale(1 1) rotate(0) translate(4 375)">
<title>SimulateurFerroviaire/Modules/GeoParser/GeoParser.cpp</title>
<!-- Node1 -->
<g id="Node000001" class="node">
<title>Node1</title>
<g id="a_Node000001"><a xlink:title="Implémentation du pipeline GeoParser.">
<polygon fill="#999999" stroke="#666666" points="1147.5,-371 962.5,-371 962.5,-341 1147.5,-341 1147.5,-371"/>
<text text-anchor="start" x="970.5" y="-359" font-family="Helvetica,sans-Serif" font-size="10.00">SimulateurFerroviaire</text>
<text text-anchor="middle" x="1055" y="-348" font-family="Helvetica,sans-Serif" font-size="10.00">/Modules/GeoParser/GeoParser.cpp</text>
</a>
</g>
</g>
<!-- Node2 -->
<g id="Node000002" class="node">
<title>Node2</title>
<g id="a_Node000002"><a xlink:href="GeoParser_8h.html" target="_top" xlink:title="Orchestrateur principal du pipeline GeoJSON ferroviaire.">
<polygon fill="white" stroke="#666666" points="611,-195 537,-195 537,-176 611,-176 611,-195"/>
<text text-anchor="middle" x="574" y="-183" font-family="Helvetica,sans-Serif" font-size="10.00">GeoParser.h</text>
</a>
</g>
</g>
<!-- Node1&#45;&gt;Node2 -->
<g id="edge1_Node000001_Node000002" class="edge">
<title>Node1&#45;&gt;Node2</title>
<g id="a_edge1_Node000001_Node000002"><a xlink:title=" ">
<path fill="none" stroke="#63b8ff" d="M962.15,-349.06C871.3,-339.53 732.07,-314.69 630,-250 611.26,-238.12 595.15,-218.18 585.09,-203.81"/>
<polygon fill="#63b8ff" stroke="#63b8ff" points="587.86,-201.66 579.38,-195.31 582.05,-205.56 587.86,-201.66"/>
</a>
</g>
</g>
<!-- Node17 -->
<g id="Node000017" class="node">
<title>Node17</title>
<g id="a_Node000017"><a xlink:href="GraphBuilder_8h.html" target="_top" xlink:title="Phases 1 et 2 du pipeline — chargement GeoJSON et construction du graphe métrique.">
<polygon fill="white" stroke="#666666" points="1172.5,-195 1083.5,-195 1083.5,-176 1172.5,-176 1172.5,-195"/>
<text text-anchor="middle" x="1128" y="-183" font-family="Helvetica,sans-Serif" font-size="10.00">GraphBuilder.h</text>
</a>
</g>
</g>
<!-- Node1&#45;&gt;Node17 -->
<g id="edge24_Node000001_Node000017" class="edge">
<title>Node1&#45;&gt;Node17</title>
<g id="a_edge24_Node000001_Node000017"><a xlink:title=" ">
<path fill="none" stroke="#63b8ff" d="M1054.03,-340.94C1053.01,-316.79 1053.77,-266.6 1074,-231 1081.06,-218.58 1093.02,-208.18 1103.9,-200.57"/>
<polygon fill="#63b8ff" stroke="#63b8ff" points="1105.83,-203.49 1112.27,-195.08 1101.99,-197.64 1105.83,-203.49"/>
</a>
</g>
</g>
<!-- Node26 -->
<g id="Node000026" class="node">
<title>Node26</title>
<g id="a_Node000026"><a xlink:href="TopologyExtractor_8h.html" target="_top" xlink:title="Phases 3, 4, 5a et 5b — extraction de la topologie ferroviaire depuis le graphe.">
<polygon fill="white" stroke="#666666" points="1196.5,-250 1083.5,-250 1083.5,-231 1196.5,-231 1196.5,-250"/>
<text text-anchor="middle" x="1140" y="-238" font-family="Helvetica,sans-Serif" font-size="10.00">TopologyExtractor.h</text>
</a>
</g>
</g>
<!-- Node1&#45;&gt;Node26 -->
<g id="edge48_Node000001_Node000026" class="edge">
<title>Node1&#45;&gt;Node26</title>
<g id="a_edge48_Node000001_Node000026"><a xlink:title=" ">
<path fill="none" stroke="#63b8ff" d="M1065.77,-340.63C1081.47,-319.65 1110.61,-280.75 1127.33,-258.42"/>
<polygon fill="#63b8ff" stroke="#63b8ff" points="1130.27,-260.33 1133.46,-250.23 1124.67,-256.14 1130.27,-260.33"/>
</a>
</g>
</g>
<!-- Node27 -->
<g id="Node000027" class="node">
<title>Node27</title>
<g id="a_Node000027"><a xlink:href="SwitchOrientator_8h.html" target="_top" xlink:title="Phases 6, 6b et 6c — orientation géométrique des aiguillages.">
<polygon fill="white" stroke="#666666" points="936.5,-305 829.5,-305 829.5,-286 936.5,-286 936.5,-305"/>
<text text-anchor="middle" x="883" y="-293" font-family="Helvetica,sans-Serif" font-size="10.00">SwitchOrientator.h</text>
</a>
</g>
</g>
<!-- Node1&#45;&gt;Node27 -->
<g id="edge59_Node000001_Node000027" class="edge">
<title>Node1&#45;&gt;Node27</title>
<g id="a_edge59_Node000001_Node000027"><a xlink:title=" ">
<path fill="none" stroke="#63b8ff" d="M1013.8,-340.99C984.5,-331.02 945.58,-317.78 917.83,-308.35"/>
<polygon fill="#63b8ff" stroke="#63b8ff" points="918.74,-304.96 908.15,-305.05 916.49,-311.59 918.74,-304.96"/>
</a>
</g>
</g>
<!-- Node28 -->
<g id="Node000028" class="node">
<title>Node28</title>
<g id="a_Node000028"><a xlink:href="DoubleSwitchDetector_8h.html" target="_top" xlink:title="Phases 7 et 8 — détection des doubles aiguilles et validation CDC.">
<polygon fill="white" stroke="#666666" points="1363,-195 1229,-195 1229,-176 1363,-176 1363,-195"/>
<text text-anchor="middle" x="1296" y="-183" font-family="Helvetica,sans-Serif" font-size="10.00">DoubleSwitchDetector.h</text>
</a>
</g>
</g>
<!-- Node1&#45;&gt;Node28 -->
<g id="edge68_Node000001_Node000028" class="edge">
<title>Node1&#45;&gt;Node28</title>
<g id="a_edge68_Node000001_Node000028"><a xlink:title=" ">
<path fill="none" stroke="#63b8ff" d="M1075.13,-340.92C1120.42,-309.26 1229.91,-232.71 1275.52,-200.82"/>
<polygon fill="#63b8ff" stroke="#63b8ff" points="1277.56,-203.66 1283.75,-195.06 1273.55,-197.92 1277.56,-203.66"/>
</a>
</g>
</g>
<!-- Node3 -->
<g id="Node000003" class="node">
<title>Node3</title>
<g id="a_Node000003"><a xlink:title=" ">
<polygon fill="#e0e0e0" stroke="#999999" points="1053,-19 1009,-19 1009,0 1053,0 1053,-19"/>
<text text-anchor="middle" x="1031" y="-7" font-family="Helvetica,sans-Serif" font-size="10.00">string</text>
</a>
</g>
</g>
<!-- Node2&#45;&gt;Node3 -->
<g id="edge2_Node000002_Node000003" class="edge">
<title>Node2&#45;&gt;Node3</title>
<g id="a_edge2_Node000002_Node000003"><a xlink:title=" ">
<path fill="none" stroke="#63b8ff" d="M568.29,-175.92C553.85,-153.04 519.16,-89.93 551,-55 581.15,-21.92 896.11,-13.05 998.81,-11.03"/>
<polygon fill="#63b8ff" stroke="#63b8ff" points="998.97,-14.53 1008.9,-10.84 998.83,-7.53 998.97,-14.53"/>
</a>
</g>
</g>
<!-- Node4 -->
<g id="Node000004" class="node">
<title>Node4</title>
<g id="a_Node000004"><a xlink:title=" ">
<polygon fill="#e0e0e0" stroke="#999999" points="175.5,-19 128.5,-19 128.5,0 175.5,0 175.5,-19"/>
<text text-anchor="middle" x="152" y="-7" font-family="Helvetica,sans-Serif" font-size="10.00">vector</text>
</a>
</g>
</g>
<!-- Node2&#45;&gt;Node4 -->
<g id="edge3_Node000002_Node000004" class="edge">
<title>Node2&#45;&gt;Node4</title>
<g id="a_edge3_Node000002_Node000004"><a xlink:title=" ">
<path fill="none" stroke="#63b8ff" d="M536.8,-183.82C430.17,-181.5 129.25,-172.12 100,-140 74.57,-112.07 84.2,-89.32 100,-55 105.75,-42.52 116.91,-32.24 127.42,-24.71"/>
<polygon fill="#63b8ff" stroke="#63b8ff" points="129.57,-27.49 135.97,-19.05 125.7,-21.65 129.57,-27.49"/>
</a>
</g>
</g>
<!-- Node5 -->
<g id="Node000005" class="node">
<title>Node5</title>
<g id="a_Node000005"><a xlink:title=" ">
<polygon fill="#e0e0e0" stroke="#999999" points="1063.5,-74 998.5,-74 998.5,-55 1063.5,-55 1063.5,-74"/>
<text text-anchor="middle" x="1031" y="-62" font-family="Helvetica,sans-Serif" font-size="10.00">functional</text>
</a>
</g>
</g>
<!-- Node2&#45;&gt;Node5 -->
<g id="edge4_Node000002_Node000005" class="edge">
<title>Node2&#45;&gt;Node5</title>
<g id="a_edge4_Node000002_Node000005"><a xlink:title=" ">
<path fill="none" stroke="#63b8ff" d="M611.2,-182.88C693.31,-178.85 887.51,-166.72 947,-140 976.34,-126.82 1002.75,-99.68 1017.83,-82.05"/>
<polygon fill="#63b8ff" stroke="#63b8ff" points="1020.59,-84.2 1024.28,-74.27 1015.2,-79.73 1020.59,-84.2"/>
</a>
</g>
</g>
<!-- Node6 -->
<g id="Node000006" class="node">
<title>Node6</title>
<g id="a_Node000006"><a xlink:href="StraightBlock_8h.html" target="_top" xlink:title="Modèle de domaine d&#39;un bloc de voie droite (Straight).">
<polygon fill="white" stroke="#666666" points="316.5,-134.5 143.5,-134.5 143.5,-115.5 316.5,-115.5 316.5,-134.5"/>
<text text-anchor="middle" x="230" y="-122.5" font-family="Helvetica,sans-Serif" font-size="10.00">Modules/Models/StraightBlock.h</text>
</a>
</g>
</g>
<!-- Node2&#45;&gt;Node6 -->
<g id="edge5_Node000002_Node000006" class="edge">
<title>Node2&#45;&gt;Node6</title>
<g id="a_edge5_Node000002_Node000006"><a xlink:title=" ">
<path fill="none" stroke="#63b8ff" d="M536.86,-178.18C477.66,-168.12 361.35,-148.34 290.16,-136.23"/>
<polygon fill="#63b8ff" stroke="#63b8ff" points="290.44,-132.73 280,-134.5 289.27,-139.63 290.44,-132.73"/>
</a>
</g>
</g>
<!-- Node9 -->
<g id="Node000009" class="node">
<title>Node9</title>
<g id="a_Node000009"><a xlink:href="SwitchBlock_8h.html" target="_top" xlink:title="Modèle de domaine d&#39;un aiguillage ferroviaire à 3 branches (Switch).">
<polygon fill="white" stroke="#666666" points="501.5,-134.5 334.5,-134.5 334.5,-115.5 501.5,-115.5 501.5,-134.5"/>
<text text-anchor="middle" x="418" y="-122.5" font-family="Helvetica,sans-Serif" font-size="10.00">Modules/Models/SwitchBlock.h</text>
</a>
</g>
</g>
<!-- Node2&#45;&gt;Node9 -->
<g id="edge10_Node000002_Node000009" class="edge">
<title>Node2&#45;&gt;Node9</title>
<g id="a_edge10_Node000002_Node000009"><a xlink:title=" ">
<path fill="none" stroke="#63b8ff" d="M551.32,-175.99C524.74,-166.03 480.52,-149.45 450.36,-138.13"/>
<polygon fill="#63b8ff" stroke="#63b8ff" points="451.3,-134.75 440.71,-134.52 448.85,-141.31 451.3,-134.75"/>
</a>
</g>
</g>
<!-- Node11 -->
<g id="Node000011" class="node">
<title>Node11</title>
<g id="a_Node000011"><a xlink:href="GeoParserEnums_8h.html" target="_top" xlink:title="Constantes nommées et énumérations du pipeline ferroviaire GeoParser.">
<polygon fill="white" stroke="#666666" points="1270,-74 1120,-74 1120,-55 1270,-55 1270,-74"/>
<text text-anchor="middle" x="1195" y="-62" font-family="Helvetica,sans-Serif" font-size="10.00">./Enums/GeoParserEnums.h</text>
</a>
</g>
</g>
<!-- Node2&#45;&gt;Node11 -->
<g id="edge16_Node000002_Node000011" class="edge">
<title>Node2&#45;&gt;Node11</title>
<g id="a_edge16_Node000002_Node000011"><a xlink:title=" ">
<path fill="none" stroke="#63b8ff" d="M611.13,-183.31C683.52,-180.36 848.22,-170.59 983,-140 1050.34,-124.72 1125.91,-94.95 1166.13,-78.04"/>
<polygon fill="#63b8ff" stroke="#63b8ff" points="1167.73,-81.16 1175.57,-74.03 1165,-74.72 1167.73,-81.16"/>
</a>
</g>
</g>
<!-- Node12 -->
<g id="Node000012" class="node">
<title>Node12</title>
<g id="a_Node000012"><a xlink:href="Logger_8h.html" target="_top" xlink:title="Système de journalisation à 5 niveaux de trace, un fichier par moteur.">
<polygon fill="white" stroke="#666666" points="938.5,-140 827.5,-140 827.5,-110 938.5,-110 938.5,-140"/>
<text text-anchor="start" x="835.5" y="-128" font-family="Helvetica,sans-Serif" font-size="10.00">Engine/Core/Logger</text>
<text text-anchor="middle" x="883" y="-117" font-family="Helvetica,sans-Serif" font-size="10.00">/Logger.h</text>
</a>
</g>
</g>
<!-- Node2&#45;&gt;Node12 -->
<g id="edge17_Node000002_Node000012" class="edge">
<title>Node2&#45;&gt;Node12</title>
<g id="a_edge17_Node000002_Node000012"><a xlink:title=" ">
<path fill="none" stroke="#63b8ff" d="M611.27,-177.44C662.21,-167.8 754.39,-150.35 817.12,-138.47"/>
<polygon fill="#63b8ff" stroke="#63b8ff" points="818.13,-141.84 827.31,-136.54 816.83,-134.96 818.13,-141.84"/>
</a>
</g>
</g>
<!-- Node6&#45;&gt;Node3 -->
<g id="edge7_Node000006_Node000003" class="edge">
<title>Node6&#45;&gt;Node3</title>
<g id="a_edge7_Node000006_Node000003"><a xlink:title=" ">
<path fill="none" stroke="#63b8ff" d="M240.19,-115.26C260.27,-98.24 304.59,-61.73 323,-55 449.6,-8.71 877.33,-9.05 998.67,-10.12"/>
<polygon fill="#63b8ff" stroke="#63b8ff" points="998.77,-13.62 1008.8,-10.21 998.83,-6.62 998.77,-13.62"/>
</a>
</g>
</g>
<!-- Node6&#45;&gt;Node4 -->
<g id="edge8_Node000006_Node000004" class="edge">
<title>Node6&#45;&gt;Node4</title>
<g id="a_edge8_Node000006_Node000004"><a xlink:title=" ">
<path fill="none" stroke="#63b8ff" d="M217.73,-115.33C205.66,-106.25 187.42,-90.96 176,-74 166.74,-60.25 160.41,-42.45 156.59,-29.19"/>
<polygon fill="#63b8ff" stroke="#63b8ff" points="159.91,-28.08 153.96,-19.31 153.15,-29.88 159.91,-28.08"/>
</a>
</g>
</g>
<!-- Node7 -->
<g id="Node000007" class="node">
<title>Node7</title>
<g id="a_Node000007"><a xlink:title=" ">
<polygon fill="#e0e0e0" stroke="#999999" points="427,-19 371,-19 371,0 427,0 427,-19"/>
<text text-anchor="middle" x="399" y="-7" font-family="Helvetica,sans-Serif" font-size="10.00">sstream</text>
</a>
</g>
</g>
<!-- Node6&#45;&gt;Node7 -->
<g id="edge6_Node000006_Node000007" class="edge">
<title>Node6&#45;&gt;Node7</title>
<g id="a_edge6_Node000006_Node000007"><a xlink:title=" ">
<path fill="none" stroke="#63b8ff" d="M239.61,-115.31C255.05,-101.57 286.62,-74.42 316,-55 333.79,-43.24 354.99,-31.92 371.51,-23.63"/>
<polygon fill="#63b8ff" stroke="#63b8ff" points="373.22,-26.69 380.64,-19.13 370.12,-20.41 373.22,-26.69"/>
</a>
</g>
</g>
<!-- Node8 -->
<g id="Node000008" class="node">
<title>Node8</title>
<g id="a_Node000008"><a xlink:href="LatLon_8h.html" target="_top" xlink:title="Représentation d&#39;une coordonnée géographique WGS&#45;84 (latitude, longitude).">
<polygon fill="white" stroke="#666666" points="390,-74 332,-74 332,-55 390,-55 390,-74"/>
<text text-anchor="middle" x="361" y="-62" font-family="Helvetica,sans-Serif" font-size="10.00">LatLon.h</text>
</a>
</g>
</g>
<!-- Node6&#45;&gt;Node8 -->
<g id="edge9_Node000006_Node000008" class="edge">
<title>Node6&#45;&gt;Node8</title>
<g id="a_edge9_Node000006_Node000008"><a xlink:title=" ">
<path fill="none" stroke="#63b8ff" d="M249.05,-115.49C270.97,-105.7 307.21,-89.52 332.5,-78.23"/>
<polygon fill="#63b8ff" stroke="#63b8ff" points="334.22,-81.29 341.93,-74.02 331.37,-74.9 334.22,-81.29"/>
</a>
</g>
</g>
<!-- Node9&#45;&gt;Node3 -->
<g id="edge13_Node000009_Node000003" class="edge">
<title>Node9&#45;&gt;Node3</title>
<g id="a_edge13_Node000009_Node000003"><a xlink:title=" ">
<path fill="none" stroke="#63b8ff" d="M418.18,-115.06C419.02,-99.94 423.1,-69.54 442,-55 486.29,-20.93 882.07,-12.62 998.76,-10.9"/>
<polygon fill="#63b8ff" stroke="#63b8ff" points="998.9,-14.4 1008.85,-10.76 998.81,-7.4 998.9,-14.4"/>
</a>
</g>
</g>
<!-- Node9&#45;&gt;Node4 -->
<g id="edge14_Node000009_Node000004" class="edge">
<title>Node9&#45;&gt;Node4</title>
<g id="a_edge14_Node000009_Node000004"><a xlink:title=" ">
<path fill="none" stroke="#63b8ff" d="M398.01,-115.47C351.6,-95.67 236.37,-46.5 181.7,-23.17"/>
<polygon fill="#63b8ff" stroke="#63b8ff" points="182.8,-19.84 172.23,-19.13 180.05,-26.27 182.8,-19.84"/>
</a>
</g>
</g>
<!-- Node9&#45;&gt;Node7 -->
<g id="edge12_Node000009_Node000007" class="edge">
<title>Node9&#45;&gt;Node7</title>
<g id="a_edge12_Node000009_Node000007"><a xlink:title=" ">
<path fill="none" stroke="#63b8ff" d="M383.11,-115.49C361.71,-108.27 336,-95.54 323,-74 309.7,-51.98 337.91,-34 363.65,-22.87"/>
<polygon fill="#63b8ff" stroke="#63b8ff" points="365,-26.1 372.94,-19.09 362.36,-19.62 365,-26.1"/>
</a>
</g>
</g>
<!-- Node9&#45;&gt;Node8 -->
<g id="edge15_Node000009_Node000008" class="edge">
<title>Node9&#45;&gt;Node8</title>
<g id="a_edge15_Node000009_Node000008"><a xlink:title=" ">
<path fill="none" stroke="#63b8ff" d="M409.59,-115.37C400.92,-106.47 387.2,-92.39 376.54,-81.45"/>
<polygon fill="#63b8ff" stroke="#63b8ff" points="378.93,-78.89 369.45,-74.17 373.92,-83.77 378.93,-78.89"/>
</a>
</g>
</g>
<!-- Node10 -->
<g id="Node000010" class="node">
<title>Node10</title>
<g id="a_Node000010"><a xlink:title=" ">
<polygon fill="#e0e0e0" stroke="#999999" points="616,-74 560,-74 560,-55 616,-55 616,-74"/>
<text text-anchor="middle" x="588" y="-62" font-family="Helvetica,sans-Serif" font-size="10.00">optional</text>
</a>
</g>
</g>
<!-- Node9&#45;&gt;Node10 -->
<g id="edge11_Node000009_Node000010" class="edge">
<title>Node9&#45;&gt;Node10</title>
<g id="a_edge11_Node000009_Node000010"><a xlink:title=" ">
<path fill="none" stroke="#63b8ff" d="M442.72,-115.49C471.93,-105.44 520.7,-88.66 553.59,-77.34"/>
<polygon fill="#63b8ff" stroke="#63b8ff" points="554.93,-80.58 563.25,-74.02 552.66,-73.96 554.93,-80.58"/>
</a>
</g>
</g>
<!-- Node12&#45;&gt;Node3 -->
<g id="edge23_Node000012_Node000003" class="edge">
<title>Node12&#45;&gt;Node3</title>
<g id="a_edge23_Node000012_Node000003"><a xlink:title=" ">
<path fill="none" stroke="#63b8ff" d="M902.49,-109.96C916.16,-100.04 934.82,-86.37 951,-74 972.28,-57.74 996.3,-38.56 1012.41,-25.57"/>
<polygon fill="#63b8ff" stroke="#63b8ff" points="1014.91,-28.06 1020.49,-19.05 1010.51,-22.61 1014.91,-28.06"/>
</a>
</g>
</g>
<!-- Node12&#45;&gt;Node7 -->
<g id="edge22_Node000012_Node000007" class="edge">
<title>Node12&#45;&gt;Node7</title>
<g id="a_edge22_Node000012_Node000007"><a xlink:title=" ">
<path fill="none" stroke="#63b8ff" d="M827.4,-120.17C760.66,-114.55 645.88,-101.57 551,-74 530.94,-68.17 527.23,-63.17 508,-55 481.74,-43.84 451.7,-31.62 429.82,-22.81"/>
<polygon fill="#63b8ff" stroke="#63b8ff" points="430.96,-19.5 420.38,-19.02 428.35,-25.99 430.96,-19.5"/>
</a>
</g>
</g>
<!-- Node13 -->
<g id="Node000013" class="node">
<title>Node13</title>
<g id="a_Node000013"><a xlink:title=" ">
<polygon fill="#e0e0e0" stroke="#999999" points="716,-74 672,-74 672,-55 716,-55 716,-74"/>
<text text-anchor="middle" x="694" y="-62" font-family="Helvetica,sans-Serif" font-size="10.00">ctime</text>
</a>
</g>
</g>
<!-- Node12&#45;&gt;Node13 -->
<g id="edge18_Node000012_Node000013" class="edge">
<title>Node12&#45;&gt;Node13</title>
<g id="a_edge18_Node000012_Node000013"><a xlink:title=" ">
<path fill="none" stroke="#63b8ff" d="M837.73,-109.99C803.19,-99.3 756.49,-84.84 725.82,-75.35"/>
<polygon fill="#63b8ff" stroke="#63b8ff" points="726.66,-71.95 716.07,-72.33 724.59,-78.63 726.66,-71.95"/>
</a>
</g>
</g>
<!-- Node14 -->
<g id="Node000014" class="node">
<title>Node14</title>
<g id="a_Node000014"><a xlink:title=" ">
<polygon fill="#e0e0e0" stroke="#999999" points="802,-74 734,-74 734,-55 802,-55 802,-74"/>
<text text-anchor="middle" x="768" y="-62" font-family="Helvetica,sans-Serif" font-size="10.00">filesystem</text>
</a>
</g>
</g>
<!-- Node12&#45;&gt;Node14 -->
<g id="edge19_Node000012_Node000014" class="edge">
<title>Node12&#45;&gt;Node14</title>
<g id="a_edge19_Node000012_Node000014"><a xlink:title=" ">
<path fill="none" stroke="#63b8ff" d="M855.45,-109.99C836.78,-100.49 812.26,-88.02 793.94,-78.69"/>
<polygon fill="#63b8ff" stroke="#63b8ff" points="795.48,-75.55 784.98,-74.14 792.31,-81.79 795.48,-75.55"/>
</a>
</g>
</g>
<!-- Node15 -->
<g id="Node000015" class="node">
<title>Node15</title>
<g id="a_Node000015"><a xlink:title=" ">
<polygon fill="#e0e0e0" stroke="#999999" points="875.5,-74 820.5,-74 820.5,-55 875.5,-55 875.5,-74"/>
<text text-anchor="middle" x="848" y="-62" font-family="Helvetica,sans-Serif" font-size="10.00">fstream</text>
</a>
</g>
</g>
<!-- Node12&#45;&gt;Node15 -->
<g id="edge20_Node000012_Node000015" class="edge">
<title>Node12&#45;&gt;Node15</title>
<g id="a_edge20_Node000012_Node000015"><a xlink:title=" ">
<path fill="none" stroke="#63b8ff" d="M874.53,-109.84C869.71,-101.78 863.63,-91.62 858.5,-83.06"/>
<polygon fill="#63b8ff" stroke="#63b8ff" points="861.38,-81.05 853.24,-74.27 855.38,-84.64 861.38,-81.05"/>
</a>
</g>
</g>
<!-- Node16 -->
<g id="Node000016" class="node">
<title>Node16</title>
<g id="a_Node000016"><a xlink:title=" ">
<polygon fill="#e0e0e0" stroke="#999999" points="942,-74 894,-74 894,-55 942,-55 942,-74"/>
<text text-anchor="middle" x="918" y="-62" font-family="Helvetica,sans-Serif" font-size="10.00">mutex</text>
</a>
</g>
</g>
<!-- Node12&#45;&gt;Node16 -->
<g id="edge21_Node000012_Node000016" class="edge">
<title>Node12&#45;&gt;Node16</title>
<g id="a_edge21_Node000012_Node000016"><a xlink:title=" ">
<path fill="none" stroke="#63b8ff" d="M891.47,-109.84C896.29,-101.78 902.37,-91.62 907.5,-83.06"/>
<polygon fill="#63b8ff" stroke="#63b8ff" points="910.62,-84.64 912.76,-74.27 904.62,-81.05 910.62,-84.64"/>
</a>
</g>
</g>
<!-- Node17&#45;&gt;Node3 -->
<g id="edge26_Node000017_Node000003" class="edge">
<title>Node17&#45;&gt;Node3</title>
<g id="a_edge26_Node000017_Node000003"><a xlink:title=" ">
<path fill="none" stroke="#63b8ff" d="M1125.38,-175.83C1118.62,-154.25 1099.23,-96.9 1072,-55 1065.3,-44.69 1056.16,-34.51 1048.21,-26.5"/>
<polygon fill="#63b8ff" stroke="#63b8ff" points="1050.4,-23.74 1040.79,-19.28 1045.52,-28.76 1050.4,-23.74"/>
</a>
</g>
</g>
<!-- Node17&#45;&gt;Node4 -->
<g id="edge27_Node000017_Node000004" class="edge">
<title>Node17&#45;&gt;Node4</title>
<g id="a_edge27_Node000017_Node000004"><a xlink:title=" ">
<path fill="none" stroke="#63b8ff" d="M1083.21,-183.33C891.71,-178.23 150.63,-157.39 134,-140 105.08,-109.76 127.15,-55.91 141.77,-28.14"/>
<polygon fill="#63b8ff" stroke="#63b8ff" points="144.94,-29.63 146.71,-19.18 138.81,-26.25 144.94,-29.63"/>
</a>
</g>
</g>
<!-- Node17&#45;&gt;Node8 -->
<g id="edge45_Node000017_Node000008" class="edge">
<title>Node17&#45;&gt;Node8</title>
<g id="a_edge45_Node000017_Node000008"><a xlink:title=" ">
<path fill="none" stroke="#63b8ff" d="M1083.18,-184.87C990.24,-184.74 770.22,-179.83 591,-140 553.52,-131.67 546.41,-122.17 510,-110 472.85,-97.59 429.94,-84.95 399.74,-76.33"/>
<polygon fill="#63b8ff" stroke="#63b8ff" points="400.59,-72.93 390.02,-73.57 398.68,-79.67 400.59,-72.93"/>
</a>
</g>
</g>
<!-- Node17&#45;&gt;Node11 -->
<g id="edge44_Node000017_Node000011" class="edge">
<title>Node17&#45;&gt;Node11</title>
<g id="a_edge44_Node000017_Node000011"><a xlink:title=" ">
<path fill="none" stroke="#63b8ff" d="M1132.82,-175.94C1143.73,-156.57 1170.5,-109.02 1185.1,-83.08"/>
<polygon fill="#63b8ff" stroke="#63b8ff" points="1188.19,-84.73 1190.04,-74.3 1182.09,-81.3 1188.19,-84.73"/>
</a>
</g>
</g>
<!-- Node17&#45;&gt;Node12 -->
<g id="edge47_Node000017_Node000012" class="edge">
<title>Node17&#45;&gt;Node12</title>
<g id="a_edge47_Node000017_Node000012"><a xlink:title=" ">
<path fill="none" stroke="#63b8ff" d="M1092.37,-175.99C1054.79,-167.02 994.72,-152.68 948.54,-141.65"/>
<polygon fill="#63b8ff" stroke="#63b8ff" points="949.15,-138.2 938.61,-139.28 947.53,-145.01 949.15,-138.2"/>
</a>
</g>
</g>
<!-- Node18 -->
<g id="Node000018" class="node">
<title>Node18</title>
<g id="a_Node000018"><a xlink:title=" ">
<polygon fill="#e0e0e0" stroke="#999999" points="1614,-134.5 1582,-134.5 1582,-115.5 1614,-115.5 1614,-134.5"/>
<text text-anchor="middle" x="1598" y="-122.5" font-family="Helvetica,sans-Serif" font-size="10.00">set</text>
</a>
</g>
</g>
<!-- Node17&#45;&gt;Node18 -->
<g id="edge25_Node000017_Node000018" class="edge">
<title>Node17&#45;&gt;Node18</title>
<g id="a_edge25_Node000017_Node000018"><a xlink:title=" ">
<path fill="none" stroke="#63b8ff" d="M1172.7,-180.08C1262.49,-171.12 1462.03,-150.74 1530,-140 1543.95,-137.8 1559.38,-134.68 1572.01,-131.94"/>
<polygon fill="#63b8ff" stroke="#63b8ff" points="1572.86,-135.34 1581.86,-129.76 1571.34,-128.5 1572.86,-135.34"/>
</a>
</g>
</g>
<!-- Node19 -->
<g id="Node000019" class="node">
<title>Node19</title>
<g id="a_Node000019"><a xlink:href="TopologyGraph_8h.html" target="_top" xlink:title="Graphe planaire non&#45;orienté de nœuds et d&#39;arêtes ferroviaires accrochés.">
<polygon fill="white" stroke="#666666" points="1404.5,-134.5 1267.5,-134.5 1267.5,-115.5 1404.5,-115.5 1404.5,-134.5"/>
<text text-anchor="middle" x="1336" y="-122.5" font-family="Helvetica,sans-Serif" font-size="10.00">./Graph/TopologyGraph.h</text>
</a>
</g>
</g>
<!-- Node17&#45;&gt;Node19 -->
<g id="edge28_Node000017_Node000019" class="edge">
<title>Node17&#45;&gt;Node19</title>
<g id="a_edge28_Node000017_Node000019"><a xlink:title=" ">
<path fill="none" stroke="#63b8ff" d="M1158.24,-175.99C1194.6,-165.77 1255.73,-148.58 1295.97,-137.26"/>
<polygon fill="#63b8ff" stroke="#63b8ff" points="1297.04,-140.59 1305.72,-134.52 1295.14,-133.85 1297.04,-140.59"/>
</a>
</g>
</g>
<!-- Node25 -->
<g id="Node000025" class="node">
<title>Node25</title>
<g id="a_Node000025"><a xlink:href="CoordinateXY_8h.html" target="_top" xlink:title="Représentation d&#39;une coordonnée plane en mètres (système métrique UTM).">
<polygon fill="white" stroke="#666666" points="1678,-19 1506,-19 1506,0 1678,0 1678,-19"/>
<text text-anchor="middle" x="1592" y="-7" font-family="Helvetica,sans-Serif" font-size="10.00">Modules/Models/CoordinateXY.h</text>
</a>
</g>
</g>
<!-- Node17&#45;&gt;Node25 -->
<g id="edge46_Node000017_Node000025" class="edge">
<title>Node17&#45;&gt;Node25</title>
<g id="a_edge46_Node000017_Node000025"><a xlink:title=" ">
<path fill="none" stroke="#63b8ff" d="M1172.63,-179.06C1241.34,-170.44 1369.71,-153.25 1414,-140 1481.83,-119.7 1507.64,-122.75 1559,-74 1572.21,-61.46 1581.12,-42.45 1586.31,-28.5"/>
<polygon fill="#63b8ff" stroke="#63b8ff" points="1589.63,-29.6 1589.57,-19.01 1583.01,-27.33 1589.63,-29.6"/>
</a>
</g>
</g>
<!-- Node19&#45;&gt;Node3 -->
<g id="edge32_Node000019_Node000003" class="edge">
<title>Node19&#45;&gt;Node3</title>
<g id="a_edge32_Node000019_Node000003"><a xlink:title=" ">
<path fill="none" stroke="#63b8ff" d="M1335.69,-115.22C1334.66,-100.34 1330.29,-70.3 1312,-55 1274.77,-23.86 1129.05,-14.3 1063.39,-11.55"/>
<polygon fill="#63b8ff" stroke="#63b8ff" points="1063.33,-8.04 1053.2,-11.15 1063.06,-15.04 1063.33,-8.04"/>
</a>
</g>
</g>
<!-- Node19&#45;&gt;Node4 -->
<g id="edge35_Node000019_Node000004" class="edge">
<title>Node19&#45;&gt;Node4</title>
<g id="a_edge35_Node000019_Node000004"><a xlink:title=" ">
<path fill="none" stroke="#63b8ff" d="M1331.86,-115.22C1324.04,-99.76 1305.46,-68.1 1279,-55 1187.62,-9.75 463.89,-23.06 362,-19 299.78,-16.52 227.2,-13.57 185.72,-11.88"/>
<polygon fill="#63b8ff" stroke="#63b8ff" points="185.75,-8.38 175.62,-11.47 185.47,-15.37 185.75,-8.38"/>
</a>
</g>
</g>
<!-- Node19&#45;&gt;Node5 -->
<g id="edge30_Node000019_Node000005" class="edge">
<title>Node19&#45;&gt;Node5</title>
<g id="a_edge30_Node000019_Node000005"><a xlink:title=" ">
<path fill="none" stroke="#63b8ff" d="M1291.65,-115.49C1233.2,-104.28 1131.09,-84.7 1073.55,-73.66"/>
<polygon fill="#63b8ff" stroke="#63b8ff" points="1074.17,-70.22 1063.69,-71.77 1072.85,-77.09 1074.17,-70.22"/>
</a>
</g>
</g>
<!-- Node19&#45;&gt;Node10 -->
<g id="edge31_Node000019_Node000010" class="edge">
<title>Node19&#45;&gt;Node10</title>
<g id="a_edge31_Node000019_Node000010"><a xlink:title=" ">
<path fill="none" stroke="#63b8ff" d="M1267.14,-119.77C1145.23,-112.08 883.47,-94.68 663,-74 650.99,-72.87 637.92,-71.46 626.11,-70.11"/>
<polygon fill="#63b8ff" stroke="#63b8ff" points="626.45,-66.62 616.11,-68.95 625.64,-73.58 626.45,-66.62"/>
</a>
</g>
</g>
<!-- Node19&#45;&gt;Node11 -->
<g id="edge43_Node000019_Node000011" class="edge">
<title>Node19&#45;&gt;Node11</title>
<g id="a_edge43_Node000019_Node000011"><a xlink:title=" ">
<path fill="none" stroke="#63b8ff" d="M1315.5,-115.49C1291.69,-105.62 1252.21,-89.23 1224.96,-77.93"/>
<polygon fill="#63b8ff" stroke="#63b8ff" points="1226.11,-74.62 1215.53,-74.02 1223.42,-81.08 1226.11,-74.62"/>
</a>
</g>
</g>
<!-- Node20 -->
<g id="Node000020" class="node">
<title>Node20</title>
<g id="a_Node000020"><a xlink:title=" ">
<polygon fill="#e0e0e0" stroke="#999999" points="1526,-74 1476,-74 1476,-55 1526,-55 1526,-74"/>
<text text-anchor="middle" x="1501" y="-62" font-family="Helvetica,sans-Serif" font-size="10.00">cstdint</text>
</a>
</g>
</g>
<!-- Node19&#45;&gt;Node20 -->
<g id="edge29_Node000019_Node000020" class="edge">
<title>Node19&#45;&gt;Node20</title>
<g id="a_edge29_Node000019_Node000020"><a xlink:title=" ">
<path fill="none" stroke="#63b8ff" d="M1359.99,-115.49C1388.22,-105.49 1435.28,-88.8 1467.19,-77.49"/>
<polygon fill="#63b8ff" stroke="#63b8ff" points="1468.72,-80.66 1476.98,-74.02 1466.38,-74.06 1468.72,-80.66"/>
</a>
</g>
</g>
<!-- Node21 -->
<g id="Node000021" class="node">
<title>Node21</title>
<g id="a_Node000021"><a xlink:title=" ">
<polygon fill="#e0e0e0" stroke="#999999" points="1814.5,-74 1721.5,-74 1721.5,-55 1814.5,-55 1814.5,-74"/>
<text text-anchor="middle" x="1768" y="-62" font-family="Helvetica,sans-Serif" font-size="10.00">unordered_map</text>
</a>
</g>
</g>
<!-- Node19&#45;&gt;Node21 -->
<g id="edge33_Node000019_Node000021" class="edge">
<title>Node19&#45;&gt;Node21</title>
<g id="a_edge33_Node000019_Node000021"><a xlink:title=" ">
<path fill="none" stroke="#63b8ff" d="M1403.48,-115.49C1476.82,-106.15 1597.75,-90.45 1711.57,-74.18"/>
<polygon fill="#63b8ff" stroke="#63b8ff" points="1712.1,-77.64 1721.5,-72.76 1711.1,-70.71 1712.1,-77.64"/>
</a>
</g>
</g>
<!-- Node22 -->
<g id="Node000022" class="node">
<title>Node22</title>
<g id="a_Node000022"><a xlink:title=" ">
<polygon fill="#e0e0e0" stroke="#999999" points="1703.5,-74 1658.5,-74 1658.5,-55 1703.5,-55 1703.5,-74"/>
<text text-anchor="middle" x="1681" y="-62" font-family="Helvetica,sans-Serif" font-size="10.00">utility</text>
</a>
</g>
</g>
<!-- Node19&#45;&gt;Node22 -->
<g id="edge34_Node000019_Node000022" class="edge">
<title>Node19&#45;&gt;Node22</title>
<g id="a_edge34_Node000019_Node000022"><a xlink:title=" ">
<path fill="none" stroke="#63b8ff" d="M1386.17,-115.49C1457.92,-103.33 1587.86,-81.29 1648.36,-71.03"/>
<polygon fill="#63b8ff" stroke="#63b8ff" points="1649.21,-74.44 1658.48,-69.32 1648.04,-67.54 1649.21,-74.44"/>
</a>
</g>
</g>
<!-- Node23 -->
<g id="Node000023" class="node">
<title>Node23</title>
<g id="a_Node000023"><a xlink:href="TopologyEdge_8h.html" target="_top" xlink:title="Arête non&#45;orientée du graphe planaire de topologie ferroviaire.">
<polygon fill="white" stroke="#666666" points="1457.5,-74 1364.5,-74 1364.5,-55 1457.5,-55 1457.5,-74"/>
<text text-anchor="middle" x="1411" y="-62" font-family="Helvetica,sans-Serif" font-size="10.00">TopologyEdge.h</text>
</a>
</g>
</g>
<!-- Node19&#45;&gt;Node23 -->
<g id="edge36_Node000019_Node000023" class="edge">
<title>Node19&#45;&gt;Node23</title>
<g id="a_edge36_Node000019_Node000023"><a xlink:title=" ">
<path fill="none" stroke="#63b8ff" d="M1347.07,-115.37C1358.81,-106.21 1377.59,-91.56 1391.76,-80.51"/>
<polygon fill="#63b8ff" stroke="#63b8ff" points="1394.16,-83.08 1399.89,-74.17 1389.85,-77.56 1394.16,-83.08"/>
</a>
</g>
</g>
<!-- Node19&#45;&gt;Node25 -->
<g id="edge42_Node000019_Node000025" class="edge">
<title>Node19&#45;&gt;Node25</title>
<g id="a_edge42_Node000019_Node000025"><a xlink:title=" ">
<path fill="none" stroke="#63b8ff" d="M1404.81,-116.89C1445.04,-110.34 1495.5,-97.83 1535,-74 1554.15,-62.45 1570.53,-42.45 1580.75,-27.97"/>
<polygon fill="#63b8ff" stroke="#63b8ff" points="1583.85,-29.65 1586.55,-19.4 1578.05,-25.73 1583.85,-29.65"/>
</a>
</g>
</g>
<!-- Node23&#45;&gt;Node3 -->
<g id="edge39_Node000023_Node000003" class="edge">
<title>Node23&#45;&gt;Node3</title>
<g id="a_edge39_Node000023_Node000003"><a xlink:title=" ">
<path fill="none" stroke="#63b8ff" d="M1364.4,-57C1286.15,-46.09 1130.29,-24.35 1063.07,-14.97"/>
<polygon fill="#63b8ff" stroke="#63b8ff" points="1063.46,-11.49 1053.07,-13.58 1062.49,-18.43 1063.46,-11.49"/>
</a>
</g>
</g>
<!-- Node23&#45;&gt;Node4 -->
<g id="edge40_Node000023_Node000004" class="edge">
<title>Node23&#45;&gt;Node4</title>
<g id="a_edge40_Node000023_Node000004"><a xlink:title=" ">
<path fill="none" stroke="#63b8ff" d="M1364.45,-59.04C1347.9,-57.58 1329.13,-56.06 1312,-55 890.28,-28.92 784.2,-35.54 362,-19 299.78,-16.56 227.2,-13.6 185.72,-11.89"/>
<polygon fill="#63b8ff" stroke="#63b8ff" points="185.75,-8.39 175.62,-11.48 185.47,-15.38 185.75,-8.39"/>
</a>
</g>
</g>
<!-- Node23&#45;&gt;Node7 -->
<g id="edge38_Node000023_Node000007" class="edge">
<title>Node23&#45;&gt;Node7</title>
<g id="a_edge38_Node000023_Node000007"><a xlink:title=" ">
<path fill="none" stroke="#63b8ff" d="M1364.44,-59.15C1347.89,-57.69 1329.13,-56.15 1312,-55 973.14,-32.2 562.77,-16.42 437.28,-11.86"/>
<polygon fill="#63b8ff" stroke="#63b8ff" points="437.16,-8.35 427.04,-11.49 436.91,-15.35 437.16,-8.35"/>
</a>
</g>
</g>
<!-- Node24 -->
<g id="Node000024" class="node">
<title>Node24</title>
<g id="a_Node000024"><a xlink:title=" ">
<polygon fill="#e0e0e0" stroke="#999999" points="1434.5,-19 1387.5,-19 1387.5,0 1434.5,0 1434.5,-19"/>
<text text-anchor="middle" x="1411" y="-7" font-family="Helvetica,sans-Serif" font-size="10.00">cmath</text>
</a>
</g>
</g>
<!-- Node23&#45;&gt;Node24 -->
<g id="edge37_Node000023_Node000024" class="edge">
<title>Node23&#45;&gt;Node24</title>
<g id="a_edge37_Node000023_Node000024"><a xlink:title=" ">
<path fill="none" stroke="#63b8ff" d="M1411,-54.75C1411,-47.8 1411,-37.85 1411,-29.13"/>
<polygon fill="#63b8ff" stroke="#63b8ff" points="1414.5,-29.09 1411,-19.09 1407.5,-29.09 1414.5,-29.09"/>
</a>
</g>
</g>
<!-- Node23&#45;&gt;Node25 -->
<g id="edge41_Node000023_Node000025" class="edge">
<title>Node23&#45;&gt;Node25</title>
<g id="a_edge41_Node000023_Node000025"><a xlink:title=" ">
<path fill="none" stroke="#63b8ff" d="M1440.08,-54.98C1470.6,-46.05 1518.76,-31.94 1552.66,-22.02"/>
<polygon fill="#63b8ff" stroke="#63b8ff" points="1554.08,-25.25 1562.69,-19.08 1552.11,-18.53 1554.08,-25.25"/>
</a>
</g>
</g>
<!-- Node26&#45;&gt;Node3 -->
<g id="edge50_Node000026_Node000003" class="edge">
<title>Node26&#45;&gt;Node3</title>
<g id="a_edge50_Node000026_Node000003"><a xlink:title=" ">
<path fill="none" stroke="#63b8ff" d="M1196.77,-240.03C1285.3,-239.54 1460.93,-233.23 1604,-195 1661.07,-179.75 1673.37,-168.7 1725,-140 1775.69,-111.83 1863.84,-97.14 1824,-55 1797.43,-26.9 1208.21,-13.87 1063.08,-11.08"/>
<polygon fill="#63b8ff" stroke="#63b8ff" points="1063.1,-7.58 1053.03,-10.89 1062.97,-14.58 1063.1,-7.58"/>
</a>
</g>
</g>
<!-- Node26&#45;&gt;Node4 -->
<g id="edge53_Node000026_Node000004" class="edge">
<title>Node26&#45;&gt;Node4</title>
<g id="a_edge53_Node000026_Node000004"><a xlink:title=" ">
<path fill="none" stroke="#63b8ff" d="M1083.39,-238.7C873.15,-235.14 146,-217.29 81,-140 70.69,-127.74 82.48,-65.63 89,-55 97.17,-41.68 110.98,-31.26 123.59,-23.86"/>
<polygon fill="#63b8ff" stroke="#63b8ff" points="125.37,-26.88 132.46,-19.01 122.01,-20.73 125.37,-26.88"/>
</a>
</g>
</g>
<!-- Node26&#45;&gt;Node6 -->
<g id="edge55_Node000026_Node000006" class="edge">
<title>Node26&#45;&gt;Node6</title>
<g id="a_edge55_Node000026_Node000006"><a xlink:title=" ">
<path fill="none" stroke="#63b8ff" d="M1083.14,-239.35C969.09,-238.24 704.6,-231.54 486,-195 405.47,-181.54 313.63,-153.61 264.82,-137.72"/>
<polygon fill="#63b8ff" stroke="#63b8ff" points="265.67,-134.31 255.07,-134.52 263.48,-140.96 265.67,-134.31"/>
</a>
</g>
</g>
<!-- Node26&#45;&gt;Node9 -->
<g id="edge56_Node000026_Node000009" class="edge">
<title>Node26&#45;&gt;Node9</title>
<g id="a_edge56_Node000026_Node000009"><a xlink:title=" ">
<path fill="none" stroke="#63b8ff" d="M1083.45,-238.86C952.18,-236.83 630.25,-228.48 528,-195 492.38,-183.34 456.63,-157.72 435.95,-141.2"/>
<polygon fill="#63b8ff" stroke="#63b8ff" points="438,-138.36 428.05,-134.74 433.57,-143.78 438,-138.36"/>
</a>
</g>
</g>
<!-- Node26&#45;&gt;Node11 -->
<g id="edge57_Node000026_Node000011" class="edge">
<title>Node26&#45;&gt;Node11</title>
<g id="a_edge57_Node000026_Node000011"><a xlink:title=" ">
<path fill="none" stroke="#63b8ff" d="M1151.16,-230.95C1160.83,-222.84 1174.31,-209.73 1181,-195 1197.61,-158.41 1197.91,-110.22 1196.53,-84.16"/>
<polygon fill="#63b8ff" stroke="#63b8ff" points="1200.02,-83.9 1195.86,-74.16 1193.04,-84.37 1200.02,-83.9"/>
</a>
</g>
</g>
<!-- Node26&#45;&gt;Node12 -->
<g id="edge58_Node000026_Node000012" class="edge">
<title>Node26&#45;&gt;Node12</title>
<g id="a_edge58_Node000026_Node000012"><a xlink:title=" ">
<path fill="none" stroke="#63b8ff" d="M1120.68,-230.97C1079.19,-212.64 980.76,-169.17 924.44,-144.3"/>
<polygon fill="#63b8ff" stroke="#63b8ff" points="925.67,-141.02 915.11,-140.18 922.84,-147.42 925.67,-141.02"/>
</a>
</g>
</g>
<!-- Node26&#45;&gt;Node17 -->
<g id="edge54_Node000026_Node000017" class="edge">
<title>Node26&#45;&gt;Node17</title>
<g id="a_edge54_Node000026_Node000017"><a xlink:title=" ">
<path fill="none" stroke="#63b8ff" d="M1138.02,-230.75C1136.43,-223.72 1134.14,-213.62 1132.15,-204.84"/>
<polygon fill="#63b8ff" stroke="#63b8ff" points="1135.57,-204.07 1129.94,-195.09 1128.74,-205.62 1135.57,-204.07"/>
</a>
</g>
</g>
<!-- Node26&#45;&gt;Node18 -->
<g id="edge49_Node000026_Node000018" class="edge">
<title>Node26&#45;&gt;Node18</title>
<g id="a_edge49_Node000026_Node000018"><a xlink:title=" ">
<path fill="none" stroke="#63b8ff" d="M1196.73,-231.02C1279.96,-217.54 1439.25,-187.74 1568,-140 1569.41,-139.48 1570.85,-138.91 1572.3,-138.32"/>
<polygon fill="#63b8ff" stroke="#63b8ff" points="1573.95,-141.42 1581.7,-134.19 1571.14,-135.01 1573.95,-141.42"/>
</a>
</g>
</g>
<!-- Node26&#45;&gt;Node21 -->
<g id="edge51_Node000026_Node000021" class="edge">
<title>Node26&#45;&gt;Node21</title>
<g id="a_edge51_Node000026_Node000021"><a xlink:title=" ">
<path fill="none" stroke="#63b8ff" d="M1196.69,-238.31C1277.55,-235.52 1430.15,-226.19 1556,-195 1620.09,-179.12 1638.92,-176.4 1694,-140 1718.35,-123.91 1741.18,-98.81 1754.88,-82.26"/>
<polygon fill="#63b8ff" stroke="#63b8ff" points="1757.6,-84.46 1761.16,-74.48 1752.16,-80.06 1757.6,-84.46"/>
</a>
</g>
</g>
<!-- Node26&#45;&gt;Node22 -->
<g id="edge52_Node000026_Node000022" class="edge">
<title>Node26&#45;&gt;Node22</title>
<g id="a_edge52_Node000026_Node000022"><a xlink:title=" ">
<path fill="none" stroke="#63b8ff" d="M1196.58,-235.62C1315.24,-226.38 1584.74,-199.26 1652,-140 1668.23,-125.7 1675.45,-101.2 1678.61,-84.22"/>
<polygon fill="#63b8ff" stroke="#63b8ff" points="1682.07,-84.75 1680.16,-74.33 1675.15,-83.66 1682.07,-84.75"/>
</a>
</g>
</g>
<!-- Node27&#45;&gt;Node3 -->
<g id="edge60_Node000027_Node000003" class="edge">
<title>Node27&#45;&gt;Node3</title>
<g id="a_edge60_Node000027_Node000003"><a xlink:title=" ">
<path fill="none" stroke="#63b8ff" d="M829.36,-293.06C758.9,-287.99 644,-267.32 644,-186.5 644,-186.5 644,-186.5 644,-124 644,-92.19 638.9,-75.76 663,-55 712.92,-11.98 918.5,-9.31 998.72,-9.97"/>
<polygon fill="#63b8ff" stroke="#63b8ff" points="998.71,-13.47 1008.75,-10.07 998.78,-6.47 998.71,-13.47"/>
</a>
</g>
</g>
<!-- Node27&#45;&gt;Node4 -->
<g id="edge62_Node000027_Node000004" class="edge">
<title>Node27&#45;&gt;Node4</title>
<g id="a_edge62_Node000027_Node000004"><a xlink:title=" ">
<path fill="none" stroke="#63b8ff" d="M829.42,-293.61C638.11,-289.74 0,-270.53 0,-186.5 0,-186.5 0,-186.5 0,-124 0,-65.21 73.9,-33.22 118.64,-19.24"/>
<polygon fill="#63b8ff" stroke="#63b8ff" points="119.67,-22.59 128.25,-16.38 117.67,-15.88 119.67,-22.59"/>
</a>
</g>
</g>
<!-- Node27&#45;&gt;Node6 -->
<g id="edge64_Node000027_Node000006" class="edge">
<title>Node27&#45;&gt;Node6</title>
<g id="a_edge64_Node000027_Node000006"><a xlink:title=" ">
<path fill="none" stroke="#63b8ff" d="M829.34,-290.73C763.35,-285.3 648.23,-273.27 552,-250 480.95,-232.82 465.25,-221.19 397,-195 348.29,-176.31 292.4,-152.79 259.2,-138.59"/>
<polygon fill="#63b8ff" stroke="#63b8ff" points="260.23,-135.23 249.66,-134.51 257.48,-141.66 260.23,-135.23"/>
</a>
</g>
</g>
<!-- Node27&#45;&gt;Node9 -->
<g id="edge65_Node000027_Node000009" class="edge">
<title>Node27&#45;&gt;Node9</title>
<g id="a_edge65_Node000027_Node000009"><a xlink:title=" ">
<path fill="none" stroke="#63b8ff" d="M829.47,-292.07C748.82,-286.13 594.11,-265.64 486,-195 464.11,-180.7 443.72,-158.31 431.09,-142.94"/>
<polygon fill="#63b8ff" stroke="#63b8ff" points="433.58,-140.44 424.6,-134.82 428.11,-144.81 433.58,-140.44"/>
</a>
</g>
</g>
<!-- Node27&#45;&gt;Node11 -->
<g id="edge66_Node000027_Node000011" class="edge">
<title>Node27&#45;&gt;Node11</title>
<g id="a_edge66_Node000027_Node000011"><a xlink:title=" ">
<path fill="none" stroke="#63b8ff" d="M894.85,-285.8C941.86,-251.3 1115.53,-123.83 1174.93,-80.23"/>
<polygon fill="#63b8ff" stroke="#63b8ff" points="1177.15,-82.94 1183.14,-74.21 1173.01,-77.3 1177.15,-82.94"/>
</a>
</g>
</g>
<!-- Node27&#45;&gt;Node12 -->
<g id="edge67_Node000027_Node000012" class="edge">
<title>Node27&#45;&gt;Node12</title>
<g id="a_edge67_Node000027_Node000012"><a xlink:title=" ">
<path fill="none" stroke="#63b8ff" d="M883,-285.91C883,-261.13 883,-188.82 883,-150.5"/>
<polygon fill="#63b8ff" stroke="#63b8ff" points="886.5,-150.22 883,-140.22 879.5,-150.22 886.5,-150.22"/>
</a>
</g>
</g>
<!-- Node27&#45;&gt;Node21 -->
<g id="edge61_Node000027_Node000021" class="edge">
<title>Node27&#45;&gt;Node21</title>
<g id="a_edge61_Node000027_Node000021"><a xlink:title=" ">
<path fill="none" stroke="#63b8ff" d="M936.56,-292.39C1057.74,-286.49 1361.25,-265.3 1604,-195 1660.74,-178.57 1681.26,-179.7 1725,-140 1742.05,-124.52 1754.17,-100.66 1761.1,-84.13"/>
<polygon fill="#63b8ff" stroke="#63b8ff" points="1764.49,-85.07 1764.91,-74.48 1757.98,-82.5 1764.49,-85.07"/>
</a>
</g>
</g>
<!-- Node27&#45;&gt;Node26 -->
<g id="edge63_Node000027_Node000026" class="edge">
<title>Node27&#45;&gt;Node26</title>
<g id="a_edge63_Node000027_Node000026"><a xlink:title=" ">
<path fill="none" stroke="#63b8ff" d="M924.29,-285.98C968.93,-276.78 1040.16,-262.09 1088.45,-252.13"/>
<polygon fill="#63b8ff" stroke="#63b8ff" points="1089.3,-255.53 1098.38,-250.08 1087.88,-248.67 1089.3,-255.53"/>
</a>
</g>
</g>
<!-- Node28&#45;&gt;Node3 -->
<g id="edge70_Node000028_Node000003" class="edge">
<title>Node28&#45;&gt;Node3</title>
<g id="a_edge70_Node000028_Node000003"><a xlink:title=" ">
<path fill="none" stroke="#63b8ff" d="M1349.27,-175.99C1436.68,-159.92 1595.15,-120.7 1535,-55 1503.14,-20.2 1169.7,-12.47 1063.38,-10.88"/>
<polygon fill="#63b8ff" stroke="#63b8ff" points="1063.3,-7.38 1053.25,-10.74 1063.2,-14.38 1063.3,-7.38"/>
</a>
</g>
</g>
<!-- Node28&#45;&gt;Node4 -->
<g id="edge73_Node000028_Node000004" class="edge">
<title>Node28&#45;&gt;Node4</title>
<g id="a_edge73_Node000028_Node000004"><a xlink:title=" ">
<path fill="none" stroke="#63b8ff" d="M1228.7,-179.13C1116.37,-170.02 895.4,-151.42 818,-140 630.02,-112.26 585.62,-90.74 399,-55 322.81,-40.41 233.13,-24.59 185.57,-16.31"/>
<polygon fill="#63b8ff" stroke="#63b8ff" points="185.98,-12.83 175.53,-14.56 184.78,-19.72 185.98,-12.83"/>
</a>
</g>
</g>
<!-- Node28&#45;&gt;Node6 -->
<g id="edge75_Node000028_Node000006" class="edge">
<title>Node28&#45;&gt;Node6</title>
<g id="a_edge75_Node000028_Node000006"><a xlink:title=" ">
<path fill="none" stroke="#63b8ff" d="M1228.83,-179.18C1213.14,-178.03 1196.49,-176.9 1181,-176 800.86,-153.96 704.09,-175.81 325,-140 314.07,-138.97 302.48,-137.54 291.29,-135.99"/>
<polygon fill="#63b8ff" stroke="#63b8ff" points="291.55,-132.49 281.16,-134.54 290.56,-139.42 291.55,-132.49"/>
</a>
</g>
</g>
<!-- Node28&#45;&gt;Node9 -->
<g id="edge76_Node000028_Node000009" class="edge">
<title>Node28&#45;&gt;Node9</title>
<g id="a_edge76_Node000028_Node000009"><a xlink:title=" ">
<path fill="none" stroke="#63b8ff" d="M1228.82,-179.39C1213.13,-178.24 1196.48,-177.04 1181,-176 918.89,-158.32 853.05,-158.6 591,-140 565.26,-138.17 537.38,-136 511.68,-133.92"/>
<polygon fill="#63b8ff" stroke="#63b8ff" points="511.82,-130.42 501.57,-133.1 511.25,-137.4 511.82,-130.42"/>
</a>
</g>
</g>
<!-- Node28&#45;&gt;Node11 -->
<g id="edge77_Node000028_Node000011" class="edge">
<title>Node28&#45;&gt;Node11</title>
<g id="a_edge77_Node000028_Node000011"><a xlink:title=" ">
<path fill="none" stroke="#63b8ff" d="M1288.74,-175.94C1272.07,-156.31 1230.87,-107.76 1209.06,-82.07"/>
<polygon fill="#63b8ff" stroke="#63b8ff" points="1211.61,-79.66 1202.47,-74.3 1206.27,-84.19 1211.61,-79.66"/>
</a>
</g>
</g>
<!-- Node28&#45;&gt;Node12 -->
<g id="edge78_Node000028_Node000012" class="edge">
<title>Node28&#45;&gt;Node12</title>
<g id="a_edge78_Node000028_Node000012"><a xlink:title=" ">
<path fill="none" stroke="#63b8ff" d="M1235.95,-175.99C1159.62,-165.18 1028.29,-146.58 949.16,-135.37"/>
<polygon fill="#63b8ff" stroke="#63b8ff" points="949.21,-131.84 938.82,-133.91 948.23,-138.77 949.21,-131.84"/>
</a>
</g>
</g>
<!-- Node28&#45;&gt;Node18 -->
<g id="edge69_Node000028_Node000018" class="edge">
<title>Node28&#45;&gt;Node18</title>
<g id="a_edge69_Node000028_Node000018"><a xlink:title=" ">
<path fill="none" stroke="#63b8ff" d="M1363.13,-178.7C1418.91,-172.65 1499.88,-161.03 1568,-140 1569.44,-139.56 1570.9,-139.05 1572.36,-138.51"/>
<polygon fill="#63b8ff" stroke="#63b8ff" points="1573.96,-141.64 1581.82,-134.54 1571.24,-135.19 1573.96,-141.64"/>
</a>
</g>
</g>
<!-- Node28&#45;&gt;Node19 -->
<g id="edge74_Node000028_Node000019" class="edge">
<title>Node28&#45;&gt;Node19</title>
<g id="a_edge74_Node000028_Node000019"><a xlink:title=" ">
<path fill="none" stroke="#63b8ff" d="M1301.9,-175.87C1307.75,-167.31 1316.87,-153.97 1324.21,-143.24"/>
<polygon fill="#63b8ff" stroke="#63b8ff" points="1327.32,-144.9 1330.07,-134.67 1321.54,-140.95 1327.32,-144.9"/>
</a>
</g>
</g>
<!-- Node28&#45;&gt;Node21 -->
<g id="edge71_Node000028_Node000021" class="edge">
<title>Node28&#45;&gt;Node21</title>
<g id="a_edge71_Node000028_Node000021"><a xlink:title=" ">
<path fill="none" stroke="#63b8ff" d="M1363.01,-184.89C1436.14,-183.33 1555.67,-174.91 1652,-140 1689.97,-126.24 1728.29,-98.25 1749.99,-80.77"/>
<polygon fill="#63b8ff" stroke="#63b8ff" points="1752.47,-83.26 1757.98,-74.21 1748.03,-77.85 1752.47,-83.26"/>
</a>
</g>
</g>
<!-- Node28&#45;&gt;Node22 -->
<g id="edge72_Node000028_Node000022" class="edge">
<title>Node28&#45;&gt;Node22</title>
<g id="a_edge72_Node000028_Node000022"><a xlink:title=" ">
<path fill="none" stroke="#63b8ff" d="M1363.29,-181.3C1445.81,-176.35 1580.05,-164.72 1623,-140 1645.8,-126.88 1662.81,-100.92 1672.33,-83.39"/>
<polygon fill="#63b8ff" stroke="#63b8ff" points="1675.59,-84.69 1677.05,-74.2 1669.37,-81.49 1675.59,-84.69"/>
</a>
</g>
</g>
</g>
</svg>
