<?xml version="1.0" encoding="UTF-8" standalone="no"?>
<!DOCTYPE svg PUBLIC "-//W3C//DTD SVG 1.1//EN"
 "http://www.w3.org/Graphics/SVG/1.1/DTD/svg11.dtd">
<!-- Generated by graphviz version 2.43.0 (0)
 -->
<!-- Title: SimulateurFerroviaire/Modules/GeoParser/GraphBuilder.h Pages: 1 -->
<svg width="1302pt" height="236pt"
 viewBox="0.00 0.00 1301.50 236.00" xmlns="http://www.w3.org/2000/svg" xmlns:xlink="http://www.w3.org/1999/xlink">
<g id="graph0" class="graph" transform="scale(1 1) rotate(0) translate(4 232)">
<title>SimulateurFerroviaire/Modules/GeoParser/GraphBuilder.h</title>
<!-- Node1 -->
<g id="Node000001" class="node">
<title>Node1</title>
<g id="a_Node000001"><a xlink:title="Phases 1 et 2 du pipeline — chargement GeoJSON et construction du graphe métrique.">
<polygon fill="#999999" stroke="#666666" points="925,-228 737,-228 737,-198 925,-198 925,-228"/>
<text text-anchor="start" x="745" y="-216" font-family="Helvetica,sans-Serif" font-size="10.00">SimulateurFerroviaire</text>
<text text-anchor="middle" x="831" y="-205" font-family="Helvetica,sans-Serif" font-size="10.00">/Modules/GeoParser/GraphBuilder.h</text>
</a>
</g>
</g>
<!-- Node2 -->
<g id="Node000002" class="node">
<title>Node2</title>
<g id="a_Node000002"><a xlink:title=" ">
<polygon fill="#e0e0e0" stroke="#999999" points="206,-156.5 174,-156.5 174,-137.5 206,-137.5 206,-156.5"/>
<text text-anchor="middle" x="190" y="-144.5" font-family="Helvetica,sans-Serif" font-size="10.00">set</text>
</a>
</g>
</g>
<!-- Node1&#45;&gt;Node2 -->
<g id="edge1_Node000001_Node000002" class="edge">
<title>Node1&#45;&gt;Node2</title>
<g id="a_edge1_Node000001_Node000002"><a xlink:title=" ">
<path fill="none" stroke="#63b8ff" d="M736.85,-208.37C590.37,-202.02 314.9,-187.16 220,-162 218.51,-161.6 217,-161.14 215.49,-160.62"/>
<polygon fill="#63b8ff" stroke="#63b8ff" points="216.38,-157.2 205.8,-156.65 213.72,-163.68 216.38,-157.2"/>
</a>
</g>
</g>
<!-- Node3 -->
<g id="Node000003" class="node">
<title>Node3</title>
<g id="a_Node000003"><a xlink:title=" ">
<polygon fill="#e0e0e0" stroke="#999999" points="332,-24.5 288,-24.5 288,-5.5 332,-5.5 332,-24.5"/>
<text text-anchor="middle" x="310" y="-12.5" font-family="Helvetica,sans-Serif" font-size="10.00">string</text>
</a>
</g>
</g>
<!-- Node1&#45;&gt;Node3 -->
<g id="edge2_Node000001_Node000003" class="edge">
<title>Node1&#45;&gt;Node3</title>
<g id="a_edge2_Node000001_Node000003"><a xlink:title=" ">
<path fill="none" stroke="#63b8ff" d="M736.94,-204.89C601.41,-192.47 361.64,-161.63 309,-96 295.18,-78.77 298.91,-52.08 303.73,-34.33"/>
<polygon fill="#63b8ff" stroke="#63b8ff" points="307.13,-35.19 306.71,-24.6 300.43,-33.13 307.13,-35.19"/>
</a>
</g>
</g>
<!-- Node4 -->
<g id="Node000004" class="node">
<title>Node4</title>
<g id="a_Node000004"><a xlink:title=" ">
<polygon fill="#e0e0e0" stroke="#999999" points="815.5,-24.5 768.5,-24.5 768.5,-5.5 815.5,-5.5 815.5,-24.5"/>
<text text-anchor="middle" x="792" y="-12.5" font-family="Helvetica,sans-Serif" font-size="10.00">vector</text>
</a>
</g>
</g>
<!-- Node1&#45;&gt;Node4 -->
<g id="edge3_Node000001_Node000004" class="edge">
<title>Node1&#45;&gt;Node4</title>
<g id="a_edge3_Node000001_Node000004"><a xlink:title=" ">
<path fill="none" stroke="#63b8ff" d="M908.8,-197.92C1004.41,-177.33 1147.13,-133.92 1088,-66 1049.84,-22.17 885.3,-44.37 829,-30 826.55,-29.38 824.05,-28.64 821.55,-27.84"/>
<polygon fill="#63b8ff" stroke="#63b8ff" points="822.69,-24.53 812.09,-24.53 820.38,-31.14 822.69,-24.53"/>
</a>
</g>
</g>
<!-- Node5 -->
<g id="Node000005" class="node">
<title>Node5</title>
<g id="a_Node000005"><a xlink:href="TopologyGraph_8h.html" target="_top" xlink:title="Graphe planaire non&#45;orienté de nœuds et d&#39;arêtes ferroviaires accrochés.">
<polygon fill="white" stroke="#666666" points="809.5,-156.5 672.5,-156.5 672.5,-137.5 809.5,-137.5 809.5,-156.5"/>
<text text-anchor="middle" x="741" y="-144.5" font-family="Helvetica,sans-Serif" font-size="10.00">./Graph/TopologyGraph.h</text>
</a>
</g>
</g>
<!-- Node1&#45;&gt;Node5 -->
<g id="edge4_Node000001_Node000005" class="edge">
<title>Node1&#45;&gt;Node5</title>
<g id="a_edge4_Node000001_Node000005"><a xlink:title=" ">
<path fill="none" stroke="#63b8ff" d="M811.03,-197.8C796.36,-187.37 776.49,-173.24 761.66,-162.69"/>
<polygon fill="#63b8ff" stroke="#63b8ff" points="763.35,-159.6 753.18,-156.66 759.3,-165.31 763.35,-159.6"/>
</a>
</g>
</g>
<!-- Node14 -->
<g id="Node000014" class="node">
<title>Node14</title>
<g id="a_Node000014"><a xlink:href="CoordinateXY_8h.html" target="_top" xlink:title="Représentation d&#39;une coordonnée plane en mètres (système métrique UTM).">
<polygon fill="white" stroke="#666666" points="957.5,-30 838.5,-30 838.5,0 957.5,0 957.5,-30"/>
<text text-anchor="start" x="846.5" y="-18" font-family="Helvetica,sans-Serif" font-size="10.00">Modules/Coordinates</text>
<text text-anchor="middle" x="898" y="-7" font-family="Helvetica,sans-Serif" font-size="10.00">/CoordinateXY.h</text>
</a>
</g>
</g>
<!-- Node1&#45;&gt;Node14 -->
<g id="edge22_Node000001_Node000014" class="edge">
<title>Node1&#45;&gt;Node14</title>
<g id="a_edge22_Node000001_Node000014"><a xlink:title=" ">
<path fill="none" stroke="#63b8ff" d="M925.22,-200.79C982.73,-192.39 1049.56,-179.37 1073,-162 1099.85,-142.11 1100.74,-128.38 1109,-96 1112.29,-83.08 1117.27,-76.46 1109,-66 1091.5,-43.86 1022.13,-30.51 967.65,-23.24"/>
<polygon fill="#63b8ff" stroke="#63b8ff" points="968.03,-19.76 957.67,-21.95 967.14,-26.7 968.03,-19.76"/>
</a>
</g>
</g>
<!-- Node15 -->
<g id="Node000015" class="node">
<title>Node15</title>
<g id="a_Node000015"><a xlink:href="GeoParserEnums_8h.html" target="_top" xlink:title="Constantes nommées et énumérations du pipeline ferroviaire GeoParser.">
<polygon fill="white" stroke="#666666" points="1079.5,-90.5 926.5,-90.5 926.5,-71.5 1079.5,-71.5 1079.5,-90.5"/>
<text text-anchor="middle" x="1003" y="-78.5" font-family="Helvetica,sans-Serif" font-size="10.00">../Enums/GeoParserEnums.h</text>
</a>
</g>
</g>
<!-- Node1&#45;&gt;Node15 -->
<g id="edge20_Node000001_Node000015" class="edge">
<title>Node1&#45;&gt;Node15</title>
<g id="a_edge20_Node000001_Node000015"><a xlink:title=" ">
<path fill="none" stroke="#63b8ff" d="M849.73,-197.84C882.5,-173.07 949.91,-122.12 983.33,-96.87"/>
<polygon fill="#63b8ff" stroke="#63b8ff" points="985.56,-99.57 991.43,-90.75 981.34,-93.99 985.56,-99.57"/>
</a>
</g>
</g>
<!-- Node16 -->
<g id="Node000016" class="node">
<title>Node16</title>
<g id="a_Node000016"><a xlink:href="LatLon_8h.html" target="_top" xlink:title="Représentation d&#39;une coordonnée géographique WGS&#45;84 (latitude, longitude).">
<polygon fill="white" stroke="#666666" points="1293.5,-162 1174.5,-162 1174.5,-132 1293.5,-132 1293.5,-162"/>
<text text-anchor="start" x="1182.5" y="-150" font-family="Helvetica,sans-Serif" font-size="10.00">Modules/Coordinates</text>
<text text-anchor="middle" x="1234" y="-139" font-family="Helvetica,sans-Serif" font-size="10.00">/LatLon.h</text>
</a>
</g>
</g>
<!-- Node1&#45;&gt;Node16 -->
<g id="edge21_Node000001_Node000016" class="edge">
<title>Node1&#45;&gt;Node16</title>
<g id="a_edge21_Node000001_Node000016"><a xlink:title=" ">
<path fill="none" stroke="#63b8ff" d="M925.1,-198.62C990.97,-189.03 1080.98,-175.47 1160,-162 1161.45,-161.75 1162.92,-161.5 1164.39,-161.24"/>
<polygon fill="#63b8ff" stroke="#63b8ff" points="1165.02,-164.69 1174.26,-159.49 1163.8,-157.79 1165.02,-164.69"/>
</a>
</g>
</g>
<!-- Node17 -->
<g id="Node000017" class="node">
<title>Node17</title>
<g id="a_Node000017"><a xlink:href="Logger_8h.html" target="_top" xlink:title="Système de journalisation à 5 niveaux de trace, un fichier par moteur.">
<polygon fill="white" stroke="#666666" points="243.5,-96 132.5,-96 132.5,-66 243.5,-66 243.5,-96"/>
<text text-anchor="start" x="140.5" y="-84" font-family="Helvetica,sans-Serif" font-size="10.00">Engine/Core/Logger</text>
<text text-anchor="middle" x="188" y="-73" font-family="Helvetica,sans-Serif" font-size="10.00">/Logger.h</text>
</a>
</g>
</g>
<!-- Node1&#45;&gt;Node17 -->
<g id="edge23_Node000001_Node000017" class="edge">
<title>Node1&#45;&gt;Node17</title>
<g id="a_edge23_Node000001_Node000017"><a xlink:title=" ">
<path fill="none" stroke="#63b8ff" d="M736.81,-212.2C596.22,-211.09 339.32,-203.25 258,-162 233.11,-149.37 213.19,-123.74 201.07,-104.88"/>
<polygon fill="#63b8ff" stroke="#63b8ff" points="203.97,-102.93 195.75,-96.25 198.01,-106.6 203.97,-102.93"/>
</a>
</g>
</g>
<!-- Node5&#45;&gt;Node3 -->
<g id="edge8_Node000005_Node000003" class="edge">
<title>Node5&#45;&gt;Node3</title>
<g id="a_edge8_Node000005_Node000003"><a xlink:title=" ">
<path fill="none" stroke="#63b8ff" d="M672.45,-146.84C568.61,-146.64 378.3,-140.05 329,-96 311.9,-80.72 308.78,-53.11 308.83,-34.67"/>
<polygon fill="#63b8ff" stroke="#63b8ff" points="312.33,-34.67 309.17,-24.56 305.33,-34.43 312.33,-34.67"/>
</a>
</g>
</g>
<!-- Node5&#45;&gt;Node4 -->
<g id="edge11_Node000005_Node000004" class="edge">
<title>Node5&#45;&gt;Node4</title>
<g id="a_edge11_Node000005_Node000004"><a xlink:title=" ">
<path fill="none" stroke="#63b8ff" d="M747.61,-137.25C754.59,-127.61 765.48,-111.43 772,-96 780.52,-75.86 785.99,-51.27 789.02,-34.71"/>
<polygon fill="#63b8ff" stroke="#63b8ff" points="792.5,-35.13 790.73,-24.69 785.6,-33.95 792.5,-35.13"/>
</a>
</g>
</g>
<!-- Node6 -->
<g id="Node000006" class="node">
<title>Node6</title>
<g id="a_Node000006"><a xlink:title=" ">
<polygon fill="#e0e0e0" stroke="#999999" points="870,-90.5 820,-90.5 820,-71.5 870,-71.5 870,-90.5"/>
<text text-anchor="middle" x="845" y="-78.5" font-family="Helvetica,sans-Serif" font-size="10.00">cstdint</text>
</a>
</g>
</g>
<!-- Node5&#45;&gt;Node6 -->
<g id="edge5_Node000005_Node000006" class="edge">
<title>Node5&#45;&gt;Node6</title>
<g id="a_edge5_Node000005_Node000006"><a xlink:title=" ">
<path fill="none" stroke="#63b8ff" d="M755.03,-137.37C772.24,-126.78 801.66,-108.67 822.15,-96.06"/>
<polygon fill="#63b8ff" stroke="#63b8ff" points="824.18,-98.92 830.86,-90.7 820.51,-92.96 824.18,-98.92"/>
</a>
</g>
</g>
<!-- Node7 -->
<g id="Node000007" class="node">
<title>Node7</title>
<g id="a_Node000007"><a xlink:title=" ">
<polygon fill="#e0e0e0" stroke="#999999" points="514.5,-90.5 449.5,-90.5 449.5,-71.5 514.5,-71.5 514.5,-90.5"/>
<text text-anchor="middle" x="482" y="-78.5" font-family="Helvetica,sans-Serif" font-size="10.00">functional</text>
</a>
</g>
</g>
<!-- Node5&#45;&gt;Node7 -->
<g id="edge6_Node000005_Node000007" class="edge">
<title>Node5&#45;&gt;Node7</title>
<g id="a_edge6_Node000005_Node000007"><a xlink:title=" ">
<path fill="none" stroke="#63b8ff" d="M698.69,-137.5C654.74,-128.38 584.11,-112.9 524,-96 521.38,-95.26 518.69,-94.47 515.99,-93.63"/>
<polygon fill="#63b8ff" stroke="#63b8ff" points="516.9,-90.25 506.31,-90.54 514.77,-96.92 516.9,-90.25"/>
</a>
</g>
</g>
<!-- Node8 -->
<g id="Node000008" class="node">
<title>Node8</title>
<g id="a_Node000008"><a xlink:title=" ">
<polygon fill="#e0e0e0" stroke="#999999" points="589,-90.5 533,-90.5 533,-71.5 589,-71.5 589,-90.5"/>
<text text-anchor="middle" x="561" y="-78.5" font-family="Helvetica,sans-Serif" font-size="10.00">optional</text>
</a>
</g>
</g>
<!-- Node5&#45;&gt;Node8 -->
<g id="edge7_Node000005_Node000008" class="edge">
<title>Node5&#45;&gt;Node8</title>
<g id="a_edge7_Node000005_Node000008"><a xlink:title=" ">
<path fill="none" stroke="#63b8ff" d="M715.87,-137.43C687.26,-127.62 639.15,-110.98 598,-96 596.36,-95.4 594.68,-94.79 592.98,-94.16"/>
<polygon fill="#63b8ff" stroke="#63b8ff" points="593.86,-90.75 583.27,-90.53 591.41,-97.31 593.86,-90.75"/>
</a>
</g>
</g>
<!-- Node9 -->
<g id="Node000009" class="node">
<title>Node9</title>
<g id="a_Node000009"><a xlink:title=" ">
<polygon fill="#e0e0e0" stroke="#999999" points="700.5,-90.5 607.5,-90.5 607.5,-71.5 700.5,-71.5 700.5,-90.5"/>
<text text-anchor="middle" x="654" y="-78.5" font-family="Helvetica,sans-Serif" font-size="10.00">unordered_map</text>
</a>
</g>
</g>
<!-- Node5&#45;&gt;Node9 -->
<g id="edge9_Node000005_Node000009" class="edge">
<title>Node5&#45;&gt;Node9</title>
<g id="a_edge9_Node000005_Node000009"><a xlink:title=" ">
<path fill="none" stroke="#63b8ff" d="M729.27,-137.37C715.13,-126.97 691.14,-109.32 674.05,-96.75"/>
<polygon fill="#63b8ff" stroke="#63b8ff" points="675.95,-93.81 665.83,-90.7 671.81,-99.44 675.95,-93.81"/>
</a>
</g>
</g>
<!-- Node10 -->
<g id="Node000010" class="node">
<title>Node10</title>
<g id="a_Node000010"><a xlink:title=" ">
<polygon fill="#e0e0e0" stroke="#999999" points="763.5,-90.5 718.5,-90.5 718.5,-71.5 763.5,-71.5 763.5,-90.5"/>
<text text-anchor="middle" x="741" y="-78.5" font-family="Helvetica,sans-Serif" font-size="10.00">utility</text>
</a>
</g>
</g>
<!-- Node5&#45;&gt;Node10 -->
<g id="edge10_Node000005_Node000010" class="edge">
<title>Node5&#45;&gt;Node10</title>
<g id="a_edge10_Node000005_Node000010"><a xlink:title=" ">
<path fill="none" stroke="#63b8ff" d="M741,-137.37C741,-128.16 741,-113.29 741,-101.27"/>
<polygon fill="#63b8ff" stroke="#63b8ff" points="744.5,-100.91 741,-90.91 737.5,-100.91 744.5,-100.91"/>
</a>
</g>
</g>
<!-- Node11 -->
<g id="Node000011" class="node">
<title>Node11</title>
<g id="a_Node000011"><a xlink:href="TopologyEdge_8h.html" target="_top" xlink:title="Arête non&#45;orientée du graphe planaire de topologie ferroviaire.">
<polygon fill="white" stroke="#666666" points="431.5,-90.5 338.5,-90.5 338.5,-71.5 431.5,-71.5 431.5,-90.5"/>
<text text-anchor="middle" x="385" y="-78.5" font-family="Helvetica,sans-Serif" font-size="10.00">TopologyEdge.h</text>
</a>
</g>
</g>
<!-- Node5&#45;&gt;Node11 -->
<g id="edge12_Node000005_Node000011" class="edge">
<title>Node5&#45;&gt;Node11</title>
<g id="a_edge12_Node000005_Node000011"><a xlink:title=" ">
<path fill="none" stroke="#63b8ff" d="M680.47,-137.48C619.49,-128.54 522.82,-113.39 440,-96 435.6,-95.08 431.01,-94.04 426.45,-92.95"/>
<polygon fill="#63b8ff" stroke="#63b8ff" points="427.14,-89.51 416.59,-90.53 425.47,-96.31 427.14,-89.51"/>
</a>
</g>
</g>
<!-- Node5&#45;&gt;Node14 -->
<g id="edge18_Node000005_Node000014" class="edge">
<title>Node5&#45;&gt;Node14</title>
<g id="a_edge18_Node000005_Node000014"><a xlink:title=" ">
<path fill="none" stroke="#63b8ff" d="M801.32,-137.47C828.63,-130.61 859.16,-118.25 879,-96 892.53,-80.82 896.89,-57.77 898.09,-40.3"/>
<polygon fill="#63b8ff" stroke="#63b8ff" points="901.59,-40.4 898.48,-30.27 894.59,-40.12 901.59,-40.4"/>
</a>
</g>
</g>
<!-- Node5&#45;&gt;Node15 -->
<g id="edge19_Node000005_Node000015" class="edge">
<title>Node5&#45;&gt;Node15</title>
<g id="a_edge19_Node000005_Node000015"><a xlink:title=" ">
<path fill="none" stroke="#63b8ff" d="M776.06,-137.44C823.12,-125.94 906.75,-105.51 958.29,-92.92"/>
<polygon fill="#63b8ff" stroke="#63b8ff" points="959.26,-96.29 968.14,-90.51 957.6,-89.49 959.26,-96.29"/>
</a>
</g>
</g>
<!-- Node11&#45;&gt;Node3 -->
<g id="edge15_Node000011_Node000003" class="edge">
<title>Node11&#45;&gt;Node3</title>
<g id="a_edge15_Node000011_Node000003"><a xlink:title=" ">
<path fill="none" stroke="#63b8ff" d="M374.89,-71.37C362.99,-61.21 343,-44.16 328.35,-31.65"/>
<polygon fill="#63b8ff" stroke="#63b8ff" points="330.31,-28.73 320.44,-24.91 325.77,-34.06 330.31,-28.73"/>
</a>
</g>
</g>
<!-- Node11&#45;&gt;Node4 -->
<g id="edge16_Node000011_Node000004" class="edge">
<title>Node11&#45;&gt;Node4</title>
<g id="a_edge16_Node000011_Node000004"><a xlink:title=" ">
<path fill="none" stroke="#63b8ff" d="M415.99,-71.49C423.79,-69.52 432.17,-67.55 440,-66 555.91,-43.08 695.29,-26.48 758.23,-19.56"/>
<polygon fill="#63b8ff" stroke="#63b8ff" points="758.81,-23.02 768.37,-18.46 758.05,-16.06 758.81,-23.02"/>
</a>
</g>
</g>
<!-- Node12 -->
<g id="Node000012" class="node">
<title>Node12</title>
<g id="a_Node000012"><a xlink:title=" ">
<polygon fill="#e0e0e0" stroke="#999999" points="471.5,-24.5 424.5,-24.5 424.5,-5.5 471.5,-5.5 471.5,-24.5"/>
<text text-anchor="middle" x="448" y="-12.5" font-family="Helvetica,sans-Serif" font-size="10.00">cmath</text>
</a>
</g>
</g>
<!-- Node11&#45;&gt;Node12 -->
<g id="edge13_Node000011_Node000012" class="edge">
<title>Node11&#45;&gt;Node12</title>
<g id="a_edge13_Node000011_Node000012"><a xlink:title=" ">
<path fill="none" stroke="#63b8ff" d="M393.5,-71.37C403.3,-61.4 419.66,-44.79 431.89,-32.36"/>
<polygon fill="#63b8ff" stroke="#63b8ff" points="434.71,-34.49 439.23,-24.91 429.72,-29.58 434.71,-34.49"/>
</a>
</g>
</g>
<!-- Node13 -->
<g id="Node000013" class="node">
<title>Node13</title>
<g id="a_Node000013"><a xlink:title=" ">
<polygon fill="#e0e0e0" stroke="#999999" points="406,-24.5 350,-24.5 350,-5.5 406,-5.5 406,-24.5"/>
<text text-anchor="middle" x="378" y="-12.5" font-family="Helvetica,sans-Serif" font-size="10.00">sstream</text>
</a>
</g>
</g>
<!-- Node11&#45;&gt;Node13 -->
<g id="edge14_Node000011_Node000013" class="edge">
<title>Node11&#45;&gt;Node13</title>
<g id="a_edge14_Node000011_Node000013"><a xlink:title=" ">
<path fill="none" stroke="#63b8ff" d="M384.06,-71.37C383.04,-62.07 381.39,-46.98 380.07,-34.9"/>
<polygon fill="#63b8ff" stroke="#63b8ff" points="383.54,-34.47 378.97,-24.91 376.58,-35.23 383.54,-34.47"/>
</a>
</g>
</g>
<!-- Node11&#45;&gt;Node14 -->
<g id="edge17_Node000011_Node000014" class="edge">
<title>Node11&#45;&gt;Node14</title>
<g id="a_edge17_Node000011_Node000014"><a xlink:title=" ">
<path fill="none" stroke="#63b8ff" d="M415.08,-71.44C423.12,-69.4 431.84,-67.41 440,-66 608.9,-36.77 654.27,-53.96 824,-30 825.46,-29.79 826.93,-29.58 828.41,-29.36"/>
<polygon fill="#63b8ff" stroke="#63b8ff" points="828.98,-32.81 838.31,-27.79 827.88,-25.9 828.98,-32.81"/>
</a>
</g>
</g>
<!-- Node17&#45;&gt;Node3 -->
<g id="edge29_Node000017_Node000003" class="edge">
<title>Node17&#45;&gt;Node3</title>
<g id="a_edge29_Node000017_Node000003"><a xlink:title=" ">
<path fill="none" stroke="#63b8ff" d="M214.77,-65.95C235.6,-55.03 264.31,-39.97 284.74,-29.25"/>
<polygon fill="#63b8ff" stroke="#63b8ff" points="286.53,-32.26 293.76,-24.52 283.28,-26.06 286.53,-32.26"/>
</a>
</g>
</g>
<!-- Node17&#45;&gt;Node13 -->
<g id="edge28_Node000017_Node000013" class="edge">
<title>Node17&#45;&gt;Node13</title>
<g id="a_edge28_Node000017_Node000013"><a xlink:title=" ">
<path fill="none" stroke="#63b8ff" d="M232.7,-65.99C263.31,-56.25 304.76,-42.77 341,-30 342.65,-29.42 344.33,-28.82 346.03,-28.2"/>
<polygon fill="#63b8ff" stroke="#63b8ff" points="347.59,-31.36 355.76,-24.61 345.16,-24.79 347.59,-31.36"/>
</a>
</g>
</g>
<!-- Node18 -->
<g id="Node000018" class="node">
<title>Node18</title>
<g id="a_Node000018"><a xlink:title=" ">
<polygon fill="#e0e0e0" stroke="#999999" points="270,-24.5 226,-24.5 226,-5.5 270,-5.5 270,-24.5"/>
<text text-anchor="middle" x="248" y="-12.5" font-family="Helvetica,sans-Serif" font-size="10.00">ctime</text>
</a>
</g>
</g>
<!-- Node17&#45;&gt;Node18 -->
<g id="edge24_Node000017_Node000018" class="edge">
<title>Node17&#45;&gt;Node18</title>
<g id="a_edge24_Node000017_Node000018"><a xlink:title=" ">
<path fill="none" stroke="#63b8ff" d="M201.32,-65.8C210.58,-55.92 222.95,-42.72 232.63,-32.39"/>
<polygon fill="#63b8ff" stroke="#63b8ff" points="235.42,-34.53 239.71,-24.84 230.32,-29.75 235.42,-34.53"/>
</a>
</g>
</g>
<!-- Node19 -->
<g id="Node000019" class="node">
<title>Node19</title>
<g id="a_Node000019"><a xlink:title=" ">
<polygon fill="#e0e0e0" stroke="#999999" points="68,-24.5 0,-24.5 0,-5.5 68,-5.5 68,-24.5"/>
<text text-anchor="middle" x="34" y="-12.5" font-family="Helvetica,sans-Serif" font-size="10.00">filesystem</text>
</a>
</g>
</g>
<!-- Node17&#45;&gt;Node19 -->
<g id="edge25_Node000017_Node000019" class="edge">
<title>Node17&#45;&gt;Node19</title>
<g id="a_edge25_Node000017_Node000019"><a xlink:title=" ">
<path fill="none" stroke="#63b8ff" d="M154.2,-65.95C127.2,-54.73 89.7,-39.15 63.81,-28.39"/>
<polygon fill="#63b8ff" stroke="#63b8ff" points="65.07,-25.12 54.49,-24.52 62.39,-31.59 65.07,-25.12"/>
</a>
</g>
</g>
<!-- Node20 -->
<g id="Node000020" class="node">
<title>Node20</title>
<g id="a_Node000020"><a xlink:title=" ">
<polygon fill="#e0e0e0" stroke="#999999" points="141.5,-24.5 86.5,-24.5 86.5,-5.5 141.5,-5.5 141.5,-24.5"/>
<text text-anchor="middle" x="114" y="-12.5" font-family="Helvetica,sans-Serif" font-size="10.00">fstream</text>
</a>
</g>
</g>
<!-- Node17&#45;&gt;Node20 -->
<g id="edge26_Node000017_Node000020" class="edge">
<title>Node17&#45;&gt;Node20</title>
<g id="a_edge26_Node000017_Node000020"><a xlink:title=" ">
<path fill="none" stroke="#63b8ff" d="M171.58,-65.8C159.81,-55.62 143.98,-41.93 131.9,-31.48"/>
<polygon fill="#63b8ff" stroke="#63b8ff" points="134.08,-28.74 124.23,-24.84 129.5,-34.03 134.08,-28.74"/>
</a>
</g>
</g>
<!-- Node21 -->
<g id="Node000021" class="node">
<title>Node21</title>
<g id="a_Node000021"><a xlink:title=" ">
<polygon fill="#e0e0e0" stroke="#999999" points="208,-24.5 160,-24.5 160,-5.5 208,-5.5 208,-24.5"/>
<text text-anchor="middle" x="184" y="-12.5" font-family="Helvetica,sans-Serif" font-size="10.00">mutex</text>
</a>
</g>
</g>
<!-- Node17&#45;&gt;Node21 -->
<g id="edge27_Node000017_Node000021" class="edge">
<title>Node17&#45;&gt;Node21</title>
<g id="a_edge27_Node000017_Node000021"><a xlink:title=" ">
<path fill="none" stroke="#63b8ff" d="M187.11,-65.8C186.54,-56.7 185.8,-44.79 185.18,-34.9"/>
<polygon fill="#63b8ff" stroke="#63b8ff" points="188.67,-34.61 184.55,-24.84 181.68,-35.04 188.67,-34.61"/>
</a>
</g>
</g>
</g>
</svg>
