<?xml version="1.0" encoding="UTF-8" standalone="no"?>
<!DOCTYPE svg PUBLIC "-//W3C//DTD SVG 1.1//EN"
 "http://www.w3.org/Graphics/SVG/1.1/DTD/svg11.dtd">
<!-- Generated by graphviz version 2.43.0 (0)
 -->
<!-- Title: SimulateurFerroviaire/Modules/GeoParser/GraphBuilder.cpp Pages: 1 -->
<svg width="1672pt" height="269pt"
 viewBox="0.00 0.00 1672.32 269.00" xmlns="http://www.w3.org/2000/svg" xmlns:xlink="http://www.w3.org/1999/xlink">
<g id="graph0" class="graph" transform="scale(1 1) rotate(0) translate(4 265)">
<title>SimulateurFerroviaire/Modules/GeoParser/GraphBuilder.cpp</title>
<!-- Node1 -->
<g id="Node000001" class="node">
<title>Node1</title>
<g id="a_Node000001"><a xlink:title="Implémentation des phases 1 et 2 — chargement GeoJSON et construction du graphe.">
<polygon fill="#999999" stroke="#666666" points="963.82,-261 763.82,-261 763.82,-231 963.82,-231 963.82,-261"/>
<text text-anchor="start" x="771.82" y="-249" font-family="Helvetica,sans-Serif" font-size="10.00">SimulateurFerroviaire</text>
<text text-anchor="middle" x="863.82" y="-238" font-family="Helvetica,sans-Serif" font-size="10.00">/Modules/GeoParser/GraphBuilder.cpp</text>
</a>
</g>
</g>
<!-- Node2 -->
<g id="Node000002" class="node">
<title>Node2</title>
<g id="a_Node000002"><a xlink:href="GraphBuilder_8h.html" target="_top" xlink:title="Phases 1 et 2 du pipeline — chargement GeoJSON et construction du graphe métrique.">
<polygon fill="white" stroke="#666666" points="908.32,-195 819.32,-195 819.32,-176 908.32,-176 908.32,-195"/>
<text text-anchor="middle" x="863.82" y="-183" font-family="Helvetica,sans-Serif" font-size="10.00">GraphBuilder.h</text>
</a>
</g>
</g>
<!-- Node1&#45;&gt;Node2 -->
<g id="edge1_Node000001_Node000002" class="edge">
<title>Node1&#45;&gt;Node2</title>
<g id="a_edge1_Node000001_Node000002"><a xlink:title=" ">
<path fill="none" stroke="#63b8ff" d="M863.82,-230.84C863.82,-223.21 863.82,-213.7 863.82,-205.45"/>
<polygon fill="#63b8ff" stroke="#63b8ff" points="867.32,-205.27 863.82,-195.27 860.32,-205.27 867.32,-205.27"/>
</a>
</g>
</g>
<!-- Node14 -->
<g id="Node000014" class="node">
<title>Node14</title>
<g id="a_Node000014"><a xlink:title=" ">
<polygon fill="#e0e0e0" stroke="#999999" points="338.82,-19 282.82,-19 282.82,0 338.82,0 338.82,-19"/>
<text text-anchor="middle" x="310.82" y="-7" font-family="Helvetica,sans-Serif" font-size="10.00">sstream</text>
</a>
</g>
</g>
<!-- Node1&#45;&gt;Node14 -->
<g id="edge32_Node000001_Node000014" class="edge">
<title>Node1&#45;&gt;Node14</title>
<g id="a_edge32_Node000001_Node000014"><a xlink:title=" ">
<path fill="none" stroke="#63b8ff" d="M763.46,-242.72C553.21,-235.36 79.64,-204.36 3.82,-74 -0.42,-66.7 -1.7,-61.39 3.82,-55 38.13,-15.36 197.79,-10.28 272.32,-10.11"/>
<polygon fill="#63b8ff" stroke="#63b8ff" points="272.67,-13.61 282.67,-10.12 272.68,-6.61 272.67,-13.61"/>
</a>
</g>
</g>
<!-- Node21 -->
<g id="Node000021" class="node">
<title>Node21</title>
<g id="a_Node000021"><a xlink:title=" ">
<polygon fill="#e0e0e0" stroke="#999999" points="68.32,-74 13.32,-74 13.32,-55 68.32,-55 68.32,-74"/>
<text text-anchor="middle" x="40.82" y="-62" font-family="Helvetica,sans-Serif" font-size="10.00">fstream</text>
</a>
</g>
</g>
<!-- Node1&#45;&gt;Node21 -->
<g id="edge31_Node000001_Node000021" class="edge">
<title>Node1&#45;&gt;Node21</title>
<g id="a_edge31_Node000001_Node000021"><a xlink:title=" ">
<path fill="none" stroke="#63b8ff" d="M763.8,-238.64C630.97,-228.1 390.26,-201.69 193.82,-140 145.46,-124.81 93.18,-96.51 63.98,-79.5"/>
<polygon fill="#63b8ff" stroke="#63b8ff" points="65.39,-76.27 54.99,-74.2 61.83,-82.3 65.39,-76.27"/>
</a>
</g>
</g>
<!-- Node23 -->
<g id="Node000023" class="node">
<title>Node23</title>
<g id="a_Node000023"><a xlink:href="GeoParserException_8h.html" target="_top" xlink:title="Hiérarchie d&#39;exceptions du pipeline GeoJSON ferroviaire.">
<polygon fill="white" stroke="#666666" points="1149.32,-195 964.32,-195 964.32,-176 1149.32,-176 1149.32,-195"/>
<text text-anchor="middle" x="1056.82" y="-183" font-family="Helvetica,sans-Serif" font-size="10.00">./Exceptions/GeoParserException.h</text>
</a>
</g>
</g>
<!-- Node1&#45;&gt;Node23 -->
<g id="edge33_Node000001_Node000023" class="edge">
<title>Node1&#45;&gt;Node23</title>
<g id="a_edge33_Node000001_Node000023"><a xlink:title=" ">
<path fill="none" stroke="#63b8ff" d="M910.05,-230.99C943.36,-220.89 987.75,-207.44 1018.97,-197.98"/>
<polygon fill="#63b8ff" stroke="#63b8ff" points="1020.05,-201.3 1028.6,-195.05 1018.02,-194.6 1020.05,-201.3"/>
</a>
</g>
</g>
<!-- Node25 -->
<g id="Node000025" class="node">
<title>Node25</title>
<g id="a_Node000025"><a xlink:href="GeometryUtils_8h.html" target="_top" xlink:title="Utilitaires géométriques métriques pour le pipeline ferroviaire.">
<polygon fill="white" stroke="#666666" points="1422.82,-134.5 1294.82,-134.5 1294.82,-115.5 1422.82,-115.5 1422.82,-134.5"/>
<text text-anchor="middle" x="1358.82" y="-122.5" font-family="Helvetica,sans-Serif" font-size="10.00">./Utils/GeometryUtils.h</text>
</a>
</g>
</g>
<!-- Node1&#45;&gt;Node25 -->
<g id="edge36_Node000001_Node000025" class="edge">
<title>Node1&#45;&gt;Node25</title>
<g id="a_edge36_Node000001_Node000025"><a xlink:title=" ">
<path fill="none" stroke="#63b8ff" d="M877.64,-230.88C894.46,-214.65 924.53,-188.62 955.82,-176 1013.82,-152.6 1184.97,-137.62 1284.6,-130.63"/>
<polygon fill="#63b8ff" stroke="#63b8ff" points="1284.86,-134.12 1294.6,-129.94 1284.38,-127.13 1284.86,-134.12"/>
</a>
</g>
</g>
<!-- Node3 -->
<g id="Node000003" class="node">
<title>Node3</title>
<g id="a_Node000003"><a xlink:title=" ">
<polygon fill="#e0e0e0" stroke="#999999" points="776.82,-134.5 744.82,-134.5 744.82,-115.5 776.82,-115.5 776.82,-134.5"/>
<text text-anchor="middle" x="760.82" y="-122.5" font-family="Helvetica,sans-Serif" font-size="10.00">set</text>
</a>
</g>
</g>
<!-- Node2&#45;&gt;Node3 -->
<g id="edge2_Node000002_Node000003" class="edge">
<title>Node2&#45;&gt;Node3</title>
<g id="a_edge2_Node000002_Node000003"><a xlink:title=" ">
<path fill="none" stroke="#63b8ff" d="M848.63,-175.87C831.82,-166.32 804.5,-150.81 784.8,-139.62"/>
<polygon fill="#63b8ff" stroke="#63b8ff" points="786.51,-136.56 776.08,-134.67 783.05,-142.65 786.51,-136.56"/>
</a>
</g>
</g>
<!-- Node4 -->
<g id="Node000004" class="node">
<title>Node4</title>
<g id="a_Node000004"><a xlink:title=" ">
<polygon fill="#e0e0e0" stroke="#999999" points="446.82,-19 402.82,-19 402.82,0 446.82,0 446.82,-19"/>
<text text-anchor="middle" x="424.82" y="-7" font-family="Helvetica,sans-Serif" font-size="10.00">string</text>
</a>
</g>
</g>
<!-- Node2&#45;&gt;Node4 -->
<g id="edge3_Node000002_Node000004" class="edge">
<title>Node2&#45;&gt;Node4</title>
<g id="a_edge3_Node000002_Node000004"><a xlink:title=" ">
<path fill="none" stroke="#63b8ff" d="M818.97,-179.81C717.94,-168.24 477.47,-134.78 427.82,-74 417.69,-61.59 418.08,-42.83 420.33,-28.92"/>
<polygon fill="#63b8ff" stroke="#63b8ff" points="423.78,-29.51 422.35,-19.01 416.92,-28.11 423.78,-29.51"/>
</a>
</g>
</g>
<!-- Node5 -->
<g id="Node000005" class="node">
<title>Node5</title>
<g id="a_Node000005"><a xlink:title=" ">
<polygon fill="#e0e0e0" stroke="#999999" points="1012.32,-19 965.32,-19 965.32,0 1012.32,0 1012.32,-19"/>
<text text-anchor="middle" x="988.82" y="-7" font-family="Helvetica,sans-Serif" font-size="10.00">vector</text>
</a>
</g>
</g>
<!-- Node2&#45;&gt;Node5 -->
<g id="edge4_Node000002_Node000005" class="edge">
<title>Node2&#45;&gt;Node5</title>
<g id="a_edge4_Node000002_Node000005"><a xlink:title=" ">
<path fill="none" stroke="#63b8ff" d="M890.28,-175.97C915.61,-167.57 954.76,-154.01 987.82,-140 1015.64,-128.21 1020.15,-119.53 1048.82,-110 1131.63,-82.49 1186.07,-141.12 1241.82,-74 1247.22,-67.5 1247.25,-61.47 1241.82,-55 1214.24,-22.15 1085.25,-13.54 1022.83,-11.29"/>
<polygon fill="#63b8ff" stroke="#63b8ff" points="1022.81,-7.79 1012.7,-10.96 1022.58,-14.79 1022.81,-7.79"/>
</a>
</g>
</g>
<!-- Node6 -->
<g id="Node000006" class="node">
<title>Node6</title>
<g id="a_Node000006"><a xlink:href="TopologyGraph_8h.html" target="_top" xlink:title="Graphe planaire non&#45;orienté de nœuds et d&#39;arêtes ferroviaires accrochés.">
<polygon fill="white" stroke="#666666" points="932.32,-134.5 795.32,-134.5 795.32,-115.5 932.32,-115.5 932.32,-134.5"/>
<text text-anchor="middle" x="863.82" y="-122.5" font-family="Helvetica,sans-Serif" font-size="10.00">./Graph/TopologyGraph.h</text>
</a>
</g>
</g>
<!-- Node2&#45;&gt;Node6 -->
<g id="edge5_Node000002_Node000006" class="edge">
<title>Node2&#45;&gt;Node6</title>
<g id="a_edge5_Node000002_Node000006"><a xlink:title=" ">
<path fill="none" stroke="#63b8ff" d="M863.82,-175.87C863.82,-167.75 863.82,-155.31 863.82,-144.89"/>
<polygon fill="#63b8ff" stroke="#63b8ff" points="867.32,-144.67 863.82,-134.67 860.32,-144.67 867.32,-144.67"/>
</a>
</g>
</g>
<!-- Node15 -->
<g id="Node000015" class="node">
<title>Node15</title>
<g id="a_Node000015"><a xlink:href="CoordinateXY_8h.html" target="_top" xlink:title="Représentation d&#39;une coordonnée plane en mètres (système métrique UTM).">
<polygon fill="white" stroke="#666666" points="1567.82,-19 1395.82,-19 1395.82,0 1567.82,0 1567.82,-19"/>
<text text-anchor="middle" x="1481.82" y="-7" font-family="Helvetica,sans-Serif" font-size="10.00">Modules/Models/CoordinateXY.h</text>
</a>
</g>
</g>
<!-- Node2&#45;&gt;Node15 -->
<g id="edge23_Node000002_Node000015" class="edge">
<title>Node2&#45;&gt;Node15</title>
<g id="a_edge23_Node000002_Node000015"><a xlink:title=" ">
<path fill="none" stroke="#63b8ff" d="M908.73,-180.2C923.71,-178.81 940.48,-177.29 955.82,-176 1061.53,-167.12 1334.63,-182.5 1431.82,-140 1471.3,-122.74 1485.61,-113.5 1502.82,-74 1509.47,-58.75 1502.1,-40.69 1494.33,-27.73"/>
<polygon fill="#63b8ff" stroke="#63b8ff" points="1497.21,-25.74 1488.78,-19.32 1491.36,-29.59 1497.21,-25.74"/>
</a>
</g>
</g>
<!-- Node16 -->
<g id="Node000016" class="node">
<title>Node16</title>
<g id="a_Node000016"><a xlink:href="GeoParserEnums_8h.html" target="_top" xlink:title="Constantes nommées et énumérations du pipeline ferroviaire GeoParser.">
<polygon fill="white" stroke="#666666" points="1158.32,-74 1005.32,-74 1005.32,-55 1158.32,-55 1158.32,-74"/>
<text text-anchor="middle" x="1081.82" y="-62" font-family="Helvetica,sans-Serif" font-size="10.00">../Enums/GeoParserEnums.h</text>
</a>
</g>
</g>
<!-- Node2&#45;&gt;Node16 -->
<g id="edge21_Node000002_Node000016" class="edge">
<title>Node2&#45;&gt;Node16</title>
<g id="a_edge21_Node000002_Node000016"><a xlink:title=" ">
<path fill="none" stroke="#63b8ff" d="M879.31,-175.99C904.55,-162.13 956.1,-133.84 999.82,-110 1019.08,-99.5 1040.91,-87.66 1057.2,-78.83"/>
<polygon fill="#63b8ff" stroke="#63b8ff" points="1058.97,-81.85 1066.09,-74.01 1055.63,-75.7 1058.97,-81.85"/>
</a>
</g>
</g>
<!-- Node17 -->
<g id="Node000017" class="node">
<title>Node17</title>
<g id="a_Node000017"><a xlink:href="LatLon_8h.html" target="_top" xlink:title="Représentation d&#39;une coordonnée géographique WGS&#45;84 (latitude, longitude).">
<polygon fill="white" stroke="#666666" points="1428.82,-74 1288.82,-74 1288.82,-55 1428.82,-55 1428.82,-74"/>
<text text-anchor="middle" x="1358.82" y="-62" font-family="Helvetica,sans-Serif" font-size="10.00">Modules/Models/LatLon.h</text>
</a>
</g>
</g>
<!-- Node2&#45;&gt;Node17 -->
<g id="edge22_Node000002_Node000017" class="edge">
<title>Node2&#45;&gt;Node17</title>
<g id="a_edge22_Node000002_Node000017"><a xlink:title=" ">
<path fill="none" stroke="#63b8ff" d="M899.42,-175.94C987.53,-154.76 1215.66,-99.92 1313.35,-76.43"/>
<polygon fill="#63b8ff" stroke="#63b8ff" points="1314.31,-79.8 1323.22,-74.06 1312.67,-72.99 1314.31,-79.8"/>
</a>
</g>
</g>
<!-- Node18 -->
<g id="Node000018" class="node">
<title>Node18</title>
<g id="a_Node000018"><a xlink:href="Logger_8h.html" target="_top" xlink:title="Système de journalisation à 5 niveaux de trace, un fichier par moteur.">
<polygon fill="white" stroke="#666666" points="314.32,-140 203.32,-140 203.32,-110 314.32,-110 314.32,-140"/>
<text text-anchor="start" x="211.32" y="-128" font-family="Helvetica,sans-Serif" font-size="10.00">Engine/Core/Logger</text>
<text text-anchor="middle" x="258.82" y="-117" font-family="Helvetica,sans-Serif" font-size="10.00">/Logger.h</text>
</a>
</g>
</g>
<!-- Node2&#45;&gt;Node18 -->
<g id="edge24_Node000002_Node000018" class="edge">
<title>Node2&#45;&gt;Node18</title>
<g id="a_edge24_Node000002_Node000018"><a xlink:title=" ">
<path fill="none" stroke="#63b8ff" d="M819.1,-180.93C732.74,-173.92 537.09,-157.53 372.82,-140 357.21,-138.33 340.41,-136.37 324.64,-134.44"/>
<polygon fill="#63b8ff" stroke="#63b8ff" points="324.8,-130.94 314.45,-133.19 323.95,-137.89 324.8,-130.94"/>
</a>
</g>
</g>
<!-- Node6&#45;&gt;Node4 -->
<g id="edge9_Node000006_Node000004" class="edge">
<title>Node6&#45;&gt;Node4</title>
<g id="a_edge9_Node000006_Node000004"><a xlink:title=" ">
<path fill="none" stroke="#63b8ff" d="M819.37,-115.44C808.42,-113.5 796.72,-111.55 785.82,-110 710.17,-99.24 502.64,-122.79 443.82,-74 430.83,-63.22 426.49,-43.93 425.15,-29.43"/>
<polygon fill="#63b8ff" stroke="#63b8ff" points="428.63,-28.89 424.61,-19.08 421.64,-29.25 428.63,-28.89"/>
</a>
</g>
</g>
<!-- Node6&#45;&gt;Node5 -->
<g id="edge12_Node000006_Node000005" class="edge">
<title>Node6&#45;&gt;Node5</title>
<g id="a_edge12_Node000006_Node000005"><a xlink:title=" ">
<path fill="none" stroke="#63b8ff" d="M873.22,-115.47C894.21,-96.41 945.18,-50.13 971.87,-25.89"/>
<polygon fill="#63b8ff" stroke="#63b8ff" points="974.27,-28.44 979.32,-19.13 969.56,-23.26 974.27,-28.44"/>
</a>
</g>
</g>
<!-- Node7 -->
<g id="Node000007" class="node">
<title>Node7</title>
<g id="a_Node000007"><a xlink:title=" ">
<polygon fill="#e0e0e0" stroke="#999999" points="502.82,-74 452.82,-74 452.82,-55 502.82,-55 502.82,-74"/>
<text text-anchor="middle" x="477.82" y="-62" font-family="Helvetica,sans-Serif" font-size="10.00">cstdint</text>
</a>
</g>
</g>
<!-- Node6&#45;&gt;Node7 -->
<g id="edge6_Node000006_Node000007" class="edge">
<title>Node6&#45;&gt;Node7</title>
<g id="a_edge6_Node000006_Node000007"><a xlink:title=" ">
<path fill="none" stroke="#63b8ff" d="M818.52,-115.5C807.81,-113.59 796.43,-111.65 785.82,-110 667.66,-91.64 634.24,-96.64 513.05,-74.03"/>
<polygon fill="#63b8ff" stroke="#63b8ff" points="513.48,-70.55 503,-72.14 512.18,-77.43 513.48,-70.55"/>
</a>
</g>
</g>
<!-- Node8 -->
<g id="Node000008" class="node">
<title>Node8</title>
<g id="a_Node000008"><a xlink:title=" ">
<polygon fill="#e0e0e0" stroke="#999999" points="586.32,-74 521.32,-74 521.32,-55 586.32,-55 586.32,-74"/>
<text text-anchor="middle" x="553.82" y="-62" font-family="Helvetica,sans-Serif" font-size="10.00">functional</text>
</a>
</g>
</g>
<!-- Node6&#45;&gt;Node8 -->
<g id="edge7_Node000006_Node000008" class="edge">
<title>Node6&#45;&gt;Node8</title>
<g id="a_edge7_Node000006_Node000008"><a xlink:title=" ">
<path fill="none" stroke="#63b8ff" d="M816.15,-115.45C764.44,-106.1 679.18,-90.49 596.55,-74.31"/>
<polygon fill="#63b8ff" stroke="#63b8ff" points="596.97,-70.83 586.49,-72.33 595.62,-77.7 596.97,-70.83"/>
</a>
</g>
</g>
<!-- Node9 -->
<g id="Node000009" class="node">
<title>Node9</title>
<g id="a_Node000009"><a xlink:title=" ">
<polygon fill="#e0e0e0" stroke="#999999" points="1232.82,-74 1176.82,-74 1176.82,-55 1232.82,-55 1232.82,-74"/>
<text text-anchor="middle" x="1204.82" y="-62" font-family="Helvetica,sans-Serif" font-size="10.00">optional</text>
</a>
</g>
</g>
<!-- Node6&#45;&gt;Node9 -->
<g id="edge8_Node000006_Node000009" class="edge">
<title>Node6&#45;&gt;Node9</title>
<g id="a_edge8_Node000006_Node000009"><a xlink:title=" ">
<path fill="none" stroke="#63b8ff" d="M922.3,-115.5C981.5,-106.64 1075.88,-91.83 1166.67,-74.13"/>
<polygon fill="#63b8ff" stroke="#63b8ff" points="1167.44,-77.54 1176.58,-72.18 1166.09,-70.67 1167.44,-77.54"/>
</a>
</g>
</g>
<!-- Node10 -->
<g id="Node000010" class="node">
<title>Node10</title>
<g id="a_Node000010"><a xlink:title=" ">
<polygon fill="#e0e0e0" stroke="#999999" points="697.32,-74 604.32,-74 604.32,-55 697.32,-55 697.32,-74"/>
<text text-anchor="middle" x="650.82" y="-62" font-family="Helvetica,sans-Serif" font-size="10.00">unordered_map</text>
</a>
</g>
</g>
<!-- Node6&#45;&gt;Node10 -->
<g id="edge10_Node000006_Node000010" class="edge">
<title>Node6&#45;&gt;Node10</title>
<g id="a_edge10_Node000006_Node000010"><a xlink:title=" ">
<path fill="none" stroke="#63b8ff" d="M832.85,-115.49C795.55,-105.25 732.76,-88 691.56,-76.69"/>
<polygon fill="#63b8ff" stroke="#63b8ff" points="692.4,-73.29 681.83,-74.02 690.55,-80.04 692.4,-73.29"/>
</a>
</g>
</g>
<!-- Node11 -->
<g id="Node000011" class="node">
<title>Node11</title>
<g id="a_Node000011"><a xlink:title=" ">
<polygon fill="#e0e0e0" stroke="#999999" points="760.32,-74 715.32,-74 715.32,-55 760.32,-55 760.32,-74"/>
<text text-anchor="middle" x="737.82" y="-62" font-family="Helvetica,sans-Serif" font-size="10.00">utility</text>
</a>
</g>
</g>
<!-- Node6&#45;&gt;Node11 -->
<g id="edge11_Node000006_Node000011" class="edge">
<title>Node6&#45;&gt;Node11</title>
<g id="a_edge11_Node000006_Node000011"><a xlink:title=" ">
<path fill="none" stroke="#63b8ff" d="M845.5,-115.49C824.41,-105.7 789.56,-89.52 765.24,-78.23"/>
<polygon fill="#63b8ff" stroke="#63b8ff" points="766.71,-75.05 756.17,-74.02 763.76,-81.4 766.71,-75.05"/>
</a>
</g>
</g>
<!-- Node12 -->
<g id="Node000012" class="node">
<title>Node12</title>
<g id="a_Node000012"><a xlink:href="TopologyEdge_8h.html" target="_top" xlink:title="Arête non&#45;orientée du graphe planaire de topologie ferroviaire.">
<polygon fill="white" stroke="#666666" points="910.32,-74 817.32,-74 817.32,-55 910.32,-55 910.32,-74"/>
<text text-anchor="middle" x="863.82" y="-62" font-family="Helvetica,sans-Serif" font-size="10.00">TopologyEdge.h</text>
</a>
</g>
</g>
<!-- Node6&#45;&gt;Node12 -->
<g id="edge13_Node000006_Node000012" class="edge">
<title>Node6&#45;&gt;Node12</title>
<g id="a_edge13_Node000006_Node000012"><a xlink:title=" ">
<path fill="none" stroke="#63b8ff" d="M863.82,-115.37C863.82,-107.25 863.82,-94.81 863.82,-84.39"/>
<polygon fill="#63b8ff" stroke="#63b8ff" points="867.32,-84.17 863.82,-74.17 860.32,-84.17 867.32,-84.17"/>
</a>
</g>
</g>
<!-- Node6&#45;&gt;Node15 -->
<g id="edge19_Node000006_Node000015" class="edge">
<title>Node6&#45;&gt;Node15</title>
<g id="a_edge19_Node000006_Node000015"><a xlink:title=" ">
<path fill="none" stroke="#63b8ff" d="M876.22,-115.37C898.81,-100.17 948.7,-68.88 995.82,-55 1066.41,-34.21 1264.93,-21.14 1385.29,-14.89"/>
<polygon fill="#63b8ff" stroke="#63b8ff" points="1385.81,-18.37 1395.61,-14.37 1385.45,-11.38 1385.81,-18.37"/>
</a>
</g>
</g>
<!-- Node6&#45;&gt;Node16 -->
<g id="edge20_Node000006_Node000016" class="edge">
<title>Node6&#45;&gt;Node16</title>
<g id="a_edge20_Node000006_Node000016"><a xlink:title=" ">
<path fill="none" stroke="#63b8ff" d="M895.52,-115.49C933.79,-105.23 998.24,-87.93 1040.4,-76.62"/>
<polygon fill="#63b8ff" stroke="#63b8ff" points="1041.34,-79.99 1050.09,-74.02 1039.52,-73.23 1041.34,-79.99"/>
</a>
</g>
</g>
<!-- Node12&#45;&gt;Node4 -->
<g id="edge16_Node000012_Node000004" class="edge">
<title>Node12&#45;&gt;Node4</title>
<g id="a_edge16_Node000012_Node000004"><a xlink:title=" ">
<path fill="none" stroke="#63b8ff" d="M817.21,-56.9C812.36,-56.24 807.49,-55.6 802.82,-55 674.93,-38.56 522.38,-21.33 457.08,-14.06"/>
<polygon fill="#63b8ff" stroke="#63b8ff" points="457.32,-10.57 447,-12.94 456.55,-17.53 457.32,-10.57"/>
</a>
</g>
</g>
<!-- Node12&#45;&gt;Node5 -->
<g id="edge17_Node000012_Node000005" class="edge">
<title>Node12&#45;&gt;Node5</title>
<g id="a_edge17_Node000012_Node000005"><a xlink:title=" ">
<path fill="none" stroke="#63b8ff" d="M883.91,-54.98C904.2,-46.38 935.78,-32.99 959,-23.15"/>
<polygon fill="#63b8ff" stroke="#63b8ff" points="960.54,-26.3 968.38,-19.17 957.8,-19.85 960.54,-26.3"/>
</a>
</g>
</g>
<!-- Node13 -->
<g id="Node000013" class="node">
<title>Node13</title>
<g id="a_Node000013"><a xlink:title=" ">
<polygon fill="#e0e0e0" stroke="#999999" points="1277.32,-19 1230.32,-19 1230.32,0 1277.32,0 1277.32,-19"/>
<text text-anchor="middle" x="1253.82" y="-7" font-family="Helvetica,sans-Serif" font-size="10.00">cmath</text>
</a>
</g>
</g>
<!-- Node12&#45;&gt;Node13 -->
<g id="edge14_Node000012_Node000013" class="edge">
<title>Node12&#45;&gt;Node13</title>
<g id="a_edge14_Node000012_Node000013"><a xlink:title=" ">
<path fill="none" stroke="#63b8ff" d="M910.48,-57.16C990.1,-46.34 1150.34,-24.56 1220.1,-15.08"/>
<polygon fill="#63b8ff" stroke="#63b8ff" points="1220.67,-18.54 1230.1,-13.72 1219.72,-11.6 1220.67,-18.54"/>
</a>
</g>
</g>
<!-- Node12&#45;&gt;Node14 -->
<g id="edge15_Node000012_Node000014" class="edge">
<title>Node12&#45;&gt;Node14</title>
<g id="a_edge15_Node000012_Node000014"><a xlink:title=" ">
<path fill="none" stroke="#63b8ff" d="M817.12,-59.2C732.63,-51.39 548.8,-34.27 393.82,-19 379.24,-17.56 363.21,-15.93 349.16,-14.49"/>
<polygon fill="#63b8ff" stroke="#63b8ff" points="349.17,-10.97 338.86,-13.43 348.45,-17.93 349.17,-10.97"/>
</a>
</g>
</g>
<!-- Node12&#45;&gt;Node15 -->
<g id="edge18_Node000012_Node000015" class="edge">
<title>Node12&#45;&gt;Node15</title>
<g id="a_edge18_Node000012_Node000015"><a xlink:title=" ">
<path fill="none" stroke="#63b8ff" d="M910.41,-59.5C926.96,-58.08 945.72,-56.47 962.82,-55 1110.19,-42.36 1281.1,-27.7 1385.32,-18.77"/>
<polygon fill="#63b8ff" stroke="#63b8ff" points="1385.84,-22.24 1395.5,-17.9 1385.24,-15.27 1385.84,-22.24"/>
</a>
</g>
</g>
<!-- Node18&#45;&gt;Node4 -->
<g id="edge30_Node000018_Node000004" class="edge">
<title>Node18&#45;&gt;Node4</title>
<g id="a_edge30_Node000018_Node000004"><a xlink:title=" ">
<path fill="none" stroke="#63b8ff" d="M279.51,-109.85C311.15,-88.22 371.27,-47.12 403.37,-25.17"/>
<polygon fill="#63b8ff" stroke="#63b8ff" points="405.72,-27.8 412,-19.27 401.77,-22.03 405.72,-27.8"/>
</a>
</g>
</g>
<!-- Node18&#45;&gt;Node14 -->
<g id="edge29_Node000018_Node000014" class="edge">
<title>Node18&#45;&gt;Node14</title>
<g id="a_edge29_Node000018_Node000014"><a xlink:title=" ">
<path fill="none" stroke="#63b8ff" d="M269.83,-109.79C276.9,-100.13 285.84,-86.82 291.82,-74 298.61,-59.49 303.63,-41.98 306.8,-29.03"/>
<polygon fill="#63b8ff" stroke="#63b8ff" points="310.28,-29.54 309.11,-19 303.46,-27.96 310.28,-29.54"/>
</a>
</g>
</g>
<!-- Node19 -->
<g id="Node000019" class="node">
<title>Node19</title>
<g id="a_Node000019"><a xlink:title=" ">
<polygon fill="#e0e0e0" stroke="#999999" points="130.82,-74 86.82,-74 86.82,-55 130.82,-55 130.82,-74"/>
<text text-anchor="middle" x="108.82" y="-62" font-family="Helvetica,sans-Serif" font-size="10.00">ctime</text>
</a>
</g>
</g>
<!-- Node18&#45;&gt;Node19 -->
<g id="edge25_Node000018_Node000019" class="edge">
<title>Node18&#45;&gt;Node19</title>
<g id="a_edge25_Node000018_Node000019"><a xlink:title=" ">
<path fill="none" stroke="#63b8ff" d="M222.9,-109.99C197.76,-100.18 164.49,-87.21 140.38,-77.81"/>
<polygon fill="#63b8ff" stroke="#63b8ff" points="141.56,-74.51 130.98,-74.14 139.02,-81.03 141.56,-74.51"/>
</a>
</g>
</g>
<!-- Node20 -->
<g id="Node000020" class="node">
<title>Node20</title>
<g id="a_Node000020"><a xlink:title=" ">
<polygon fill="#e0e0e0" stroke="#999999" points="216.82,-74 148.82,-74 148.82,-55 216.82,-55 216.82,-74"/>
<text text-anchor="middle" x="182.82" y="-62" font-family="Helvetica,sans-Serif" font-size="10.00">filesystem</text>
</a>
</g>
</g>
<!-- Node18&#45;&gt;Node20 -->
<g id="edge26_Node000018_Node000020" class="edge">
<title>Node18&#45;&gt;Node20</title>
<g id="a_edge26_Node000018_Node000020"><a xlink:title=" ">
<path fill="none" stroke="#63b8ff" d="M240.43,-109.84C228.94,-101 214.17,-89.63 202.46,-80.62"/>
<polygon fill="#63b8ff" stroke="#63b8ff" points="204.27,-77.59 194.21,-74.27 200,-83.14 204.27,-77.59"/>
</a>
</g>
</g>
<!-- Node18&#45;&gt;Node21 -->
<g id="edge27_Node000018_Node000021" class="edge">
<title>Node18&#45;&gt;Node21</title>
<g id="a_edge27_Node000018_Node000021"><a xlink:title=" ">
<path fill="none" stroke="#63b8ff" d="M206.61,-109.99C167.05,-99.37 113.66,-85.05 78.28,-75.55"/>
<polygon fill="#63b8ff" stroke="#63b8ff" points="78.93,-72.1 68.36,-72.89 77.11,-78.86 78.93,-72.1"/>
</a>
</g>
</g>
<!-- Node22 -->
<g id="Node000022" class="node">
<title>Node22</title>
<g id="a_Node000022"><a xlink:title=" ">
<polygon fill="#e0e0e0" stroke="#999999" points="282.82,-74 234.82,-74 234.82,-55 282.82,-55 282.82,-74"/>
<text text-anchor="middle" x="258.82" y="-62" font-family="Helvetica,sans-Serif" font-size="10.00">mutex</text>
</a>
</g>
</g>
<!-- Node18&#45;&gt;Node22 -->
<g id="edge28_Node000018_Node000022" class="edge">
<title>Node18&#45;&gt;Node22</title>
<g id="a_edge28_Node000018_Node000022"><a xlink:title=" ">
<path fill="none" stroke="#63b8ff" d="M258.82,-109.84C258.82,-102.21 258.82,-92.7 258.82,-84.45"/>
<polygon fill="#63b8ff" stroke="#63b8ff" points="262.32,-84.27 258.82,-74.27 255.32,-84.27 262.32,-84.27"/>
</a>
</g>
</g>
<!-- Node23&#45;&gt;Node4 -->
<g id="edge35_Node000023_Node000004" class="edge">
<title>Node23&#45;&gt;Node4</title>
<g id="a_edge35_Node000023_Node000004"><a xlink:title=" ">
<path fill="none" stroke="#63b8ff" d="M1045.96,-175.88C1026.16,-160.55 982.39,-128.44 940.82,-110 884.85,-85.16 865.16,-95.51 807.82,-74 789.77,-67.23 787.29,-60.53 768.82,-55 657.81,-21.75 519.3,-13.34 457.38,-11.22"/>
<polygon fill="#63b8ff" stroke="#63b8ff" points="457.18,-7.71 447.07,-10.9 456.96,-14.71 457.18,-7.71"/>
</a>
</g>
</g>
<!-- Node24 -->
<g id="Node000024" class="node">
<title>Node24</title>
<g id="a_Node000024"><a xlink:title=" ">
<polygon fill="#e0e0e0" stroke="#999999" points="1664.32,-134.5 1599.32,-134.5 1599.32,-115.5 1664.32,-115.5 1664.32,-134.5"/>
<text text-anchor="middle" x="1631.82" y="-122.5" font-family="Helvetica,sans-Serif" font-size="10.00">stdexcept</text>
</a>
</g>
</g>
<!-- Node23&#45;&gt;Node24 -->
<g id="edge34_Node000023_Node000024" class="edge">
<title>Node23&#45;&gt;Node24</title>
<g id="a_edge34_Node000023_Node000024"><a xlink:title=" ">
<path fill="none" stroke="#63b8ff" d="M1149.64,-182.43C1255.71,-178.74 1434.1,-168.49 1584.82,-140 1588.76,-139.26 1592.83,-138.31 1596.87,-137.27"/>
<polygon fill="#63b8ff" stroke="#63b8ff" points="1598,-140.59 1606.69,-134.52 1596.12,-133.84 1598,-140.59"/>
</a>
</g>
</g>
<!-- Node25&#45;&gt;Node5 -->
<g id="edge39_Node000025_Node000005" class="edge">
<title>Node25&#45;&gt;Node5</title>
<g id="a_edge39_Node000025_Node000005"><a xlink:title=" ">
<path fill="none" stroke="#63b8ff" d="M1382.16,-115.48C1412.63,-103.13 1459.65,-79.09 1437.82,-55 1410.04,-24.33 1122.23,-13.97 1022.57,-11.29"/>
<polygon fill="#63b8ff" stroke="#63b8ff" points="1022.53,-7.79 1012.45,-11.03 1022.35,-14.79 1022.53,-7.79"/>
</a>
</g>
</g>
<!-- Node25&#45;&gt;Node9 -->
<g id="edge38_Node000025_Node000009" class="edge">
<title>Node25&#45;&gt;Node9</title>
<g id="a_edge38_Node000025_Node000009"><a xlink:title=" ">
<path fill="none" stroke="#63b8ff" d="M1336.43,-115.49C1310.2,-105.53 1266.55,-88.95 1236.77,-77.63"/>
<polygon fill="#63b8ff" stroke="#63b8ff" points="1237.84,-74.3 1227.24,-74.02 1235.35,-80.84 1237.84,-74.3"/>
</a>
</g>
</g>
<!-- Node25&#45;&gt;Node13 -->
<g id="edge37_Node000025_Node000013" class="edge">
<title>Node25&#45;&gt;Node13</title>
<g id="a_edge37_Node000025_Node000013"><a xlink:title=" ">
<path fill="none" stroke="#63b8ff" d="M1398.76,-115.5C1439.93,-104.91 1494.93,-84.55 1470.82,-55 1448.09,-27.13 1342.75,-16.23 1287.64,-12.38"/>
<polygon fill="#63b8ff" stroke="#63b8ff" points="1287.53,-8.87 1277.33,-11.7 1287.07,-15.85 1287.53,-8.87"/>
</a>
</g>
</g>
<!-- Node25&#45;&gt;Node15 -->
<g id="edge41_Node000025_Node000015" class="edge">
<title>Node25&#45;&gt;Node15</title>
<g id="a_edge41_Node000025_Node000015"><a xlink:title=" ">
<path fill="none" stroke="#63b8ff" d="M1419.79,-115.46C1444.9,-108.61 1471.62,-96.26 1486.82,-74 1495.78,-60.89 1493.12,-42.5 1489.05,-28.89"/>
<polygon fill="#63b8ff" stroke="#63b8ff" points="1492.27,-27.48 1485.68,-19.18 1485.65,-29.78 1492.27,-27.48"/>
</a>
</g>
</g>
<!-- Node25&#45;&gt;Node16 -->
<g id="edge42_Node000025_Node000016" class="edge">
<title>Node25&#45;&gt;Node16</title>
<g id="a_edge42_Node000025_Node000016"><a xlink:title=" ">
<path fill="none" stroke="#63b8ff" d="M1318.55,-115.49C1269.21,-105.07 1185.61,-87.42 1132.1,-76.12"/>
<polygon fill="#63b8ff" stroke="#63b8ff" points="1132.66,-72.66 1122.15,-74.02 1131.21,-79.51 1132.66,-72.66"/>
</a>
</g>
</g>
<!-- Node25&#45;&gt;Node17 -->
<g id="edge40_Node000025_Node000017" class="edge">
<title>Node25&#45;&gt;Node17</title>
<g id="a_edge40_Node000025_Node000017"><a xlink:title=" ">
<path fill="none" stroke="#63b8ff" d="M1358.82,-115.37C1358.82,-107.25 1358.82,-94.81 1358.82,-84.39"/>
<polygon fill="#63b8ff" stroke="#63b8ff" points="1362.32,-84.17 1358.82,-74.17 1355.32,-84.17 1362.32,-84.17"/>
</a>
</g>
</g>
</g>
</svg>
