<?xml version="1.0" encoding="UTF-8" standalone="no"?>
<!DOCTYPE svg PUBLIC "-//W3C//DTD SVG 1.1//EN"
 "http://www.w3.org/Graphics/SVG/1.1/DTD/svg11.dtd">
<!-- Generated by graphviz version 2.43.0 (0)
 -->
<!-- Title: SimulateurFerroviaire/Modules/GeoParser/GraphBuilder.h Pages: 1 -->
<svg width="1322pt" height="214pt"
 viewBox="0.00 0.00 1322.00 214.00" xmlns="http://www.w3.org/2000/svg" xmlns:xlink="http://www.w3.org/1999/xlink">
<g id="graph0" class="graph" transform="scale(1 1) rotate(0) translate(4 210)">
<title>SimulateurFerroviaire/Modules/GeoParser/GraphBuilder.h</title>
<!-- Node1 -->
<g id="Node000001" class="node">
<title>Node1</title>
<g id="a_Node000001"><a xlink:title="Phases 1 et 2 du pipeline — chargement GeoJSON et construction du graphe métrique.">
<polygon fill="#999999" stroke="#666666" points="925,-206 737,-206 737,-176 925,-176 925,-206"/>
<text text-anchor="start" x="745" y="-194" font-family="Helvetica,sans-Serif" font-size="10.00">SimulateurFerroviaire</text>
<text text-anchor="middle" x="831" y="-183" font-family="Helvetica,sans-Serif" font-size="10.00">/Modules/GeoParser/GraphBuilder.h</text>
</a>
</g>
</g>
<!-- Node2 -->
<g id="Node000002" class="node">
<title>Node2</title>
<g id="a_Node000002"><a xlink:title=" ">
<polygon fill="#e0e0e0" stroke="#999999" points="206,-140 174,-140 174,-121 206,-121 206,-140"/>
<text text-anchor="middle" x="190" y="-128" font-family="Helvetica,sans-Serif" font-size="10.00">set</text>
</a>
</g>
</g>
<!-- Node1&#45;&gt;Node2 -->
<g id="edge1_Node000001_Node000002" class="edge">
<title>Node1&#45;&gt;Node2</title>
<g id="a_edge1_Node000001_Node000002"><a xlink:title=" ">
<path fill="none" stroke="#63b8ff" d="M736.84,-187.96C616.21,-184.06 401.06,-172.74 220,-140 218.71,-139.77 217.4,-139.5 216.08,-139.21"/>
<polygon fill="#63b8ff" stroke="#63b8ff" points="216.61,-135.74 206.06,-136.67 214.89,-142.52 216.61,-135.74"/>
</a>
</g>
</g>
<!-- Node3 -->
<g id="Node000003" class="node">
<title>Node3</title>
<g id="a_Node000003"><a xlink:title=" ">
<polygon fill="#e0e0e0" stroke="#999999" points="332,-19 288,-19 288,0 332,0 332,-19"/>
<text text-anchor="middle" x="310" y="-7" font-family="Helvetica,sans-Serif" font-size="10.00">string</text>
</a>
</g>
</g>
<!-- Node1&#45;&gt;Node3 -->
<g id="edge2_Node000001_Node000003" class="edge">
<title>Node1&#45;&gt;Node3</title>
<g id="a_edge2_Node000001_Node000003"><a xlink:title=" ">
<path fill="none" stroke="#63b8ff" d="M736.77,-184.93C601.33,-175.45 362.04,-149.77 309,-85 296.23,-69.4 299.38,-45.18 303.8,-28.62"/>
<polygon fill="#63b8ff" stroke="#63b8ff" points="307.16,-29.6 306.73,-19.01 300.46,-27.55 307.16,-29.6"/>
</a>
</g>
</g>
<!-- Node4 -->
<g id="Node000004" class="node">
<title>Node4</title>
<g id="a_Node000004"><a xlink:title=" ">
<polygon fill="#e0e0e0" stroke="#999999" points="804.5,-19 757.5,-19 757.5,0 804.5,0 804.5,-19"/>
<text text-anchor="middle" x="781" y="-7" font-family="Helvetica,sans-Serif" font-size="10.00">vector</text>
</a>
</g>
</g>
<!-- Node1&#45;&gt;Node4 -->
<g id="edge3_Node000001_Node000004" class="edge">
<title>Node1&#45;&gt;Node4</title>
<g id="a_edge3_Node000001_Node000004"><a xlink:title=" ">
<path fill="none" stroke="#63b8ff" d="M919.75,-175.92C1014.56,-157.24 1144.08,-118.94 1088,-55 1049.32,-10.91 889.59,-28.86 814.7,-18.62"/>
<polygon fill="#63b8ff" stroke="#63b8ff" points="815.15,-15.14 804.71,-16.98 814.01,-22.05 815.15,-15.14"/>
</a>
</g>
</g>
<!-- Node5 -->
<g id="Node000005" class="node">
<title>Node5</title>
<g id="a_Node000005"><a xlink:href="TopologyGraph_8h.html" target="_top" xlink:title="Graphe planaire non&#45;orienté de nœuds et d&#39;arêtes ferroviaires accrochés.">
<polygon fill="white" stroke="#666666" points="809.5,-140 672.5,-140 672.5,-121 809.5,-121 809.5,-140"/>
<text text-anchor="middle" x="741" y="-128" font-family="Helvetica,sans-Serif" font-size="10.00">./Graph/TopologyGraph.h</text>
</a>
</g>
</g>
<!-- Node1&#45;&gt;Node5 -->
<g id="edge4_Node000001_Node000005" class="edge">
<title>Node1&#45;&gt;Node5</title>
<g id="a_edge4_Node000001_Node000005"><a xlink:title=" ">
<path fill="none" stroke="#63b8ff" d="M809.21,-175.84C795.13,-166.68 776.87,-154.82 762.79,-145.66"/>
<polygon fill="#63b8ff" stroke="#63b8ff" points="764.51,-142.61 754.22,-140.09 760.7,-148.48 764.51,-142.61"/>
</a>
</g>
</g>
<!-- Node14 -->
<g id="Node000014" class="node">
<title>Node14</title>
<g id="a_Node000014"><a xlink:href="CoordinateXY_8h.html" target="_top" xlink:title="Représentation d&#39;une coordonnée plane en mètres (système métrique UTM).">
<polygon fill="white" stroke="#666666" points="995,-19 823,-19 823,0 995,0 995,-19"/>
<text text-anchor="middle" x="909" y="-7" font-family="Helvetica,sans-Serif" font-size="10.00">Modules/Models/CoordinateXY.h</text>
</a>
</g>
</g>
<!-- Node1&#45;&gt;Node14 -->
<g id="edge22_Node000001_Node000014" class="edge">
<title>Node1&#45;&gt;Node14</title>
<g id="a_edge22_Node000001_Node000014"><a xlink:title=" ">
<path fill="none" stroke="#63b8ff" d="M925.19,-178.72C983.52,-170.24 1051.77,-157.15 1076,-140 1099.27,-123.53 1101.39,-112.47 1109,-85 1112.56,-72.15 1117.34,-65.4 1109,-55 1095.45,-38.1 1049.53,-27.21 1005.1,-20.43"/>
<polygon fill="#63b8ff" stroke="#63b8ff" points="1005.46,-16.95 995.06,-18.97 1004.45,-23.88 1005.46,-16.95"/>
</a>
</g>
</g>
<!-- Node15 -->
<g id="Node000015" class="node">
<title>Node15</title>
<g id="a_Node000015"><a xlink:href="GeoParserEnums_8h.html" target="_top" xlink:title="Constantes nommées et énumérations du pipeline ferroviaire GeoParser.">
<polygon fill="white" stroke="#666666" points="1079.5,-79.5 926.5,-79.5 926.5,-60.5 1079.5,-60.5 1079.5,-79.5"/>
<text text-anchor="middle" x="1003" y="-67.5" font-family="Helvetica,sans-Serif" font-size="10.00">../Enums/GeoParserEnums.h</text>
</a>
</g>
</g>
<!-- Node1&#45;&gt;Node15 -->
<g id="edge20_Node000001_Node000015" class="edge">
<title>Node1&#45;&gt;Node15</title>
<g id="a_edge20_Node000001_Node000015"><a xlink:title=" ">
<path fill="none" stroke="#63b8ff" d="M851.41,-175.88C884.27,-153.15 948.59,-108.65 981.89,-85.61"/>
<polygon fill="#63b8ff" stroke="#63b8ff" points="984.18,-88.28 990.41,-79.71 980.19,-82.52 984.18,-88.28"/>
</a>
</g>
</g>
<!-- Node16 -->
<g id="Node000016" class="node">
<title>Node16</title>
<g id="a_Node000016"><a xlink:href="LatLon_8h.html" target="_top" xlink:title="Représentation d&#39;une coordonnée géographique WGS&#45;84 (latitude, longitude).">
<polygon fill="white" stroke="#666666" points="1314,-140 1174,-140 1174,-121 1314,-121 1314,-140"/>
<text text-anchor="middle" x="1244" y="-128" font-family="Helvetica,sans-Serif" font-size="10.00">Modules/Models/LatLon.h</text>
</a>
</g>
</g>
<!-- Node1&#45;&gt;Node16 -->
<g id="edge21_Node000001_Node000016" class="edge">
<title>Node1&#45;&gt;Node16</title>
<g id="a_edge21_Node000001_Node000016"><a xlink:title=" ">
<path fill="none" stroke="#63b8ff" d="M925.23,-176.65C1000.75,-165.96 1105.06,-151.18 1173.49,-141.49"/>
<polygon fill="#63b8ff" stroke="#63b8ff" points="1174.32,-144.9 1183.73,-140.04 1173.34,-137.97 1174.32,-144.9"/>
</a>
</g>
</g>
<!-- Node17 -->
<g id="Node000017" class="node">
<title>Node17</title>
<g id="a_Node000017"><a xlink:href="Logger_8h.html" target="_top" xlink:title="Système de journalisation à 5 niveaux de trace, un fichier par moteur.">
<polygon fill="white" stroke="#666666" points="243.5,-85 132.5,-85 132.5,-55 243.5,-55 243.5,-85"/>
<text text-anchor="start" x="140.5" y="-73" font-family="Helvetica,sans-Serif" font-size="10.00">Engine/Core/Logger</text>
<text text-anchor="middle" x="188" y="-62" font-family="Helvetica,sans-Serif" font-size="10.00">/Logger.h</text>
</a>
</g>
</g>
<!-- Node1&#45;&gt;Node17 -->
<g id="edge23_Node000001_Node000017" class="edge">
<title>Node1&#45;&gt;Node17</title>
<g id="a_edge23_Node000001_Node000017"><a xlink:title=" ">
<path fill="none" stroke="#63b8ff" d="M736.88,-189.45C596.71,-187.35 340.72,-178.2 258,-140 235.78,-129.74 216.48,-109.31 203.81,-93.34"/>
<polygon fill="#63b8ff" stroke="#63b8ff" points="206.32,-90.85 197.48,-85.01 200.75,-95.09 206.32,-90.85"/>
</a>
</g>
</g>
<!-- Node5&#45;&gt;Node3 -->
<g id="edge8_Node000005_Node000003" class="edge">
<title>Node5&#45;&gt;Node3</title>
<g id="a_edge8_Node000005_Node000003"><a xlink:title=" ">
<path fill="none" stroke="#63b8ff" d="M672.44,-126.32C561.98,-120.59 354.38,-107 329,-85 313.2,-71.3 309.62,-46.46 309.23,-29.25"/>
<polygon fill="#63b8ff" stroke="#63b8ff" points="312.73,-29.27 309.33,-19.24 305.73,-29.2 312.73,-29.27"/>
</a>
</g>
</g>
<!-- Node5&#45;&gt;Node4 -->
<g id="edge11_Node000005_Node000004" class="edge">
<title>Node5&#45;&gt;Node4</title>
<g id="a_edge11_Node000005_Node000004"><a xlink:title=" ">
<path fill="none" stroke="#63b8ff" d="M749.1,-120.72C756.4,-112.25 766.77,-98.72 772,-85 778.88,-66.96 780.81,-44.83 781.22,-29.4"/>
<polygon fill="#63b8ff" stroke="#63b8ff" points="784.72,-29.11 781.29,-19.09 777.72,-29.06 784.72,-29.11"/>
</a>
</g>
</g>
<!-- Node6 -->
<g id="Node000006" class="node">
<title>Node6</title>
<g id="a_Node000006"><a xlink:title=" ">
<polygon fill="#e0e0e0" stroke="#999999" points="870,-79.5 820,-79.5 820,-60.5 870,-60.5 870,-79.5"/>
<text text-anchor="middle" x="845" y="-67.5" font-family="Helvetica,sans-Serif" font-size="10.00">cstdint</text>
</a>
</g>
</g>
<!-- Node5&#45;&gt;Node6 -->
<g id="edge5_Node000005_Node000006" class="edge">
<title>Node5&#45;&gt;Node6</title>
<g id="a_edge5_Node000005_Node000006"><a xlink:title=" ">
<path fill="none" stroke="#63b8ff" d="M756.35,-120.87C773.32,-111.32 800.9,-95.81 820.79,-84.62"/>
<polygon fill="#63b8ff" stroke="#63b8ff" points="822.59,-87.62 829.59,-79.67 819.16,-81.52 822.59,-87.62"/>
</a>
</g>
</g>
<!-- Node7 -->
<g id="Node000007" class="node">
<title>Node7</title>
<g id="a_Node000007"><a xlink:title=" ">
<polygon fill="#e0e0e0" stroke="#999999" points="514.5,-79.5 449.5,-79.5 449.5,-60.5 514.5,-60.5 514.5,-79.5"/>
<text text-anchor="middle" x="482" y="-67.5" font-family="Helvetica,sans-Serif" font-size="10.00">functional</text>
</a>
</g>
</g>
<!-- Node5&#45;&gt;Node7 -->
<g id="edge6_Node000005_Node000007" class="edge">
<title>Node5&#45;&gt;Node7</title>
<g id="a_edge6_Node000005_Node000007"><a xlink:title=" ">
<path fill="none" stroke="#63b8ff" d="M690.61,-120.93C646.38,-112.99 580.46,-100.14 524,-85 521.38,-84.3 518.68,-83.52 515.97,-82.7"/>
<polygon fill="#63b8ff" stroke="#63b8ff" points="516.87,-79.32 506.28,-79.64 514.76,-85.99 516.87,-79.32"/>
</a>
</g>
</g>
<!-- Node8 -->
<g id="Node000008" class="node">
<title>Node8</title>
<g id="a_Node000008"><a xlink:title=" ">
<polygon fill="#e0e0e0" stroke="#999999" points="589,-79.5 533,-79.5 533,-60.5 589,-60.5 589,-79.5"/>
<text text-anchor="middle" x="561" y="-67.5" font-family="Helvetica,sans-Serif" font-size="10.00">optional</text>
</a>
</g>
</g>
<!-- Node5&#45;&gt;Node8 -->
<g id="edge7_Node000005_Node000008" class="edge">
<title>Node5&#45;&gt;Node8</title>
<g id="a_edge7_Node000005_Node000008"><a xlink:title=" ">
<path fill="none" stroke="#63b8ff" d="M711.8,-120.97C682.78,-112.37 637.09,-98.46 598,-85 596.15,-84.36 594.25,-83.69 592.34,-83.01"/>
<polygon fill="#63b8ff" stroke="#63b8ff" points="593.43,-79.68 582.83,-79.51 591.01,-86.25 593.43,-79.68"/>
</a>
</g>
</g>
<!-- Node9 -->
<g id="Node000009" class="node">
<title>Node9</title>
<g id="a_Node000009"><a xlink:title=" ">
<polygon fill="#e0e0e0" stroke="#999999" points="700.5,-79.5 607.5,-79.5 607.5,-60.5 700.5,-60.5 700.5,-79.5"/>
<text text-anchor="middle" x="654" y="-67.5" font-family="Helvetica,sans-Serif" font-size="10.00">unordered_map</text>
</a>
</g>
</g>
<!-- Node5&#45;&gt;Node9 -->
<g id="edge9_Node000005_Node000009" class="edge">
<title>Node5&#45;&gt;Node9</title>
<g id="a_edge9_Node000005_Node000009"><a xlink:title=" ">
<path fill="none" stroke="#63b8ff" d="M728.16,-120.87C714.28,-111.54 691.93,-96.51 675.39,-85.38"/>
<polygon fill="#63b8ff" stroke="#63b8ff" points="677.14,-82.34 666.89,-79.67 673.24,-88.15 677.14,-82.34"/>
</a>
</g>
</g>
<!-- Node10 -->
<g id="Node000010" class="node">
<title>Node10</title>
<g id="a_Node000010"><a xlink:title=" ">
<polygon fill="#e0e0e0" stroke="#999999" points="763.5,-79.5 718.5,-79.5 718.5,-60.5 763.5,-60.5 763.5,-79.5"/>
<text text-anchor="middle" x="741" y="-67.5" font-family="Helvetica,sans-Serif" font-size="10.00">utility</text>
</a>
</g>
</g>
<!-- Node5&#45;&gt;Node10 -->
<g id="edge10_Node000005_Node000010" class="edge">
<title>Node5&#45;&gt;Node10</title>
<g id="a_edge10_Node000005_Node000010"><a xlink:title=" ">
<path fill="none" stroke="#63b8ff" d="M741,-120.87C741,-112.75 741,-100.31 741,-89.89"/>
<polygon fill="#63b8ff" stroke="#63b8ff" points="744.5,-89.67 741,-79.67 737.5,-89.67 744.5,-89.67"/>
</a>
</g>
</g>
<!-- Node11 -->
<g id="Node000011" class="node">
<title>Node11</title>
<g id="a_Node000011"><a xlink:href="TopologyEdge_8h.html" target="_top" xlink:title="Arête non&#45;orientée du graphe planaire de topologie ferroviaire.">
<polygon fill="white" stroke="#666666" points="431.5,-79.5 338.5,-79.5 338.5,-60.5 431.5,-60.5 431.5,-79.5"/>
<text text-anchor="middle" x="385" y="-67.5" font-family="Helvetica,sans-Serif" font-size="10.00">TopologyEdge.h</text>
</a>
</g>
</g>
<!-- Node5&#45;&gt;Node11 -->
<g id="edge12_Node000005_Node000011" class="edge">
<title>Node5&#45;&gt;Node11</title>
<g id="a_edge12_Node000005_Node000011"><a xlink:title=" ">
<path fill="none" stroke="#63b8ff" d="M672.21,-121.37C610.98,-113.65 519.11,-100.87 440,-85 435.53,-84.1 430.88,-83.07 426.26,-81.99"/>
<polygon fill="#63b8ff" stroke="#63b8ff" points="426.83,-78.52 416.28,-79.55 425.17,-85.32 426.83,-78.52"/>
</a>
</g>
</g>
<!-- Node5&#45;&gt;Node14 -->
<g id="edge18_Node000005_Node000014" class="edge">
<title>Node5&#45;&gt;Node14</title>
<g id="a_edge18_Node000005_Node000014"><a xlink:title=" ">
<path fill="none" stroke="#63b8ff" d="M805.04,-120.92C830.67,-114.65 858.83,-103.79 879,-85 894.75,-70.33 902.41,-46.26 906.02,-29.46"/>
<polygon fill="#63b8ff" stroke="#63b8ff" points="909.54,-29.67 907.91,-19.2 902.65,-28.4 909.54,-29.67"/>
</a>
</g>
</g>
<!-- Node5&#45;&gt;Node15 -->
<g id="edge19_Node000005_Node000015" class="edge">
<title>Node5&#45;&gt;Node15</title>
<g id="a_edge19_Node000005_Node000015"><a xlink:title=" ">
<path fill="none" stroke="#63b8ff" d="M779.1,-120.99C825.57,-110.62 904.18,-93.07 954.81,-81.76"/>
<polygon fill="#63b8ff" stroke="#63b8ff" points="955.86,-85.11 964.86,-79.52 954.33,-78.28 955.86,-85.11"/>
</a>
</g>
</g>
<!-- Node11&#45;&gt;Node3 -->
<g id="edge15_Node000011_Node000003" class="edge">
<title>Node11&#45;&gt;Node3</title>
<g id="a_edge15_Node000011_Node000003"><a xlink:title=" ">
<path fill="none" stroke="#63b8ff" d="M373.93,-60.37C362.19,-51.21 343.41,-36.56 329.24,-25.51"/>
<polygon fill="#63b8ff" stroke="#63b8ff" points="331.15,-22.56 321.11,-19.17 326.84,-28.08 331.15,-22.56"/>
</a>
</g>
</g>
<!-- Node11&#45;&gt;Node4 -->
<g id="edge16_Node000011_Node000004" class="edge">
<title>Node11&#45;&gt;Node4</title>
<g id="a_edge16_Node000011_Node000004"><a xlink:title=" ">
<path fill="none" stroke="#63b8ff" d="M415.69,-60.5C423.57,-58.51 432.07,-56.52 440,-55 551.46,-33.62 685.4,-19.46 746.99,-13.58"/>
<polygon fill="#63b8ff" stroke="#63b8ff" points="747.65,-17.03 757.28,-12.61 747,-10.06 747.65,-17.03"/>
</a>
</g>
</g>
<!-- Node12 -->
<g id="Node000012" class="node">
<title>Node12</title>
<g id="a_Node000012"><a xlink:title=" ">
<polygon fill="#e0e0e0" stroke="#999999" points="471.5,-19 424.5,-19 424.5,0 471.5,0 471.5,-19"/>
<text text-anchor="middle" x="448" y="-7" font-family="Helvetica,sans-Serif" font-size="10.00">cmath</text>
</a>
</g>
</g>
<!-- Node11&#45;&gt;Node12 -->
<g id="edge13_Node000011_Node000012" class="edge">
<title>Node11&#45;&gt;Node12</title>
<g id="a_edge13_Node000011_Node000012"><a xlink:title=" ">
<path fill="none" stroke="#63b8ff" d="M394.3,-60.37C403.97,-51.38 419.34,-37.11 431.16,-26.14"/>
<polygon fill="#63b8ff" stroke="#63b8ff" points="433.72,-28.54 438.67,-19.17 428.96,-23.41 433.72,-28.54"/>
</a>
</g>
</g>
<!-- Node13 -->
<g id="Node000013" class="node">
<title>Node13</title>
<g id="a_Node000013"><a xlink:title=" ">
<polygon fill="#e0e0e0" stroke="#999999" points="406,-19 350,-19 350,0 406,0 406,-19"/>
<text text-anchor="middle" x="378" y="-7" font-family="Helvetica,sans-Serif" font-size="10.00">sstream</text>
</a>
</g>
</g>
<!-- Node11&#45;&gt;Node13 -->
<g id="edge14_Node000011_Node000013" class="edge">
<title>Node11&#45;&gt;Node13</title>
<g id="a_edge14_Node000011_Node000013"><a xlink:title=" ">
<path fill="none" stroke="#63b8ff" d="M383.97,-60.37C383,-52.25 381.51,-39.81 380.26,-29.39"/>
<polygon fill="#63b8ff" stroke="#63b8ff" points="383.7,-28.68 379.04,-19.17 376.75,-29.51 383.7,-28.68"/>
</a>
</g>
</g>
<!-- Node11&#45;&gt;Node14 -->
<g id="edge17_Node000011_Node000014" class="edge">
<title>Node11&#45;&gt;Node14</title>
<g id="a_edge17_Node000011_Node000014"><a xlink:title=" ">
<path fill="none" stroke="#63b8ff" d="M415.08,-60.45C423.12,-58.41 431.85,-56.42 440,-55 458.06,-51.86 680.96,-31.29 812.85,-19.24"/>
<polygon fill="#63b8ff" stroke="#63b8ff" points="813.33,-22.71 822.97,-18.32 812.69,-15.74 813.33,-22.71"/>
</a>
</g>
</g>
<!-- Node17&#45;&gt;Node3 -->
<g id="edge29_Node000017_Node000003" class="edge">
<title>Node17&#45;&gt;Node3</title>
<g id="a_edge29_Node000017_Node000003"><a xlink:title=" ">
<path fill="none" stroke="#63b8ff" d="M217.22,-54.99C237.12,-45.45 263.28,-32.9 282.75,-23.57"/>
<polygon fill="#63b8ff" stroke="#63b8ff" points="284.48,-26.62 291.98,-19.14 281.45,-20.31 284.48,-26.62"/>
</a>
</g>
</g>
<!-- Node17&#45;&gt;Node13 -->
<g id="edge28_Node000017_Node000013" class="edge">
<title>Node17&#45;&gt;Node13</title>
<g id="a_edge28_Node000017_Node000013"><a xlink:title=" ">
<path fill="none" stroke="#63b8ff" d="M233.51,-54.99C266.16,-44.94 309.63,-31.55 340.33,-22.1"/>
<polygon fill="#63b8ff" stroke="#63b8ff" points="341.69,-25.34 350.22,-19.05 339.63,-18.65 341.69,-25.34"/>
</a>
</g>
</g>
<!-- Node18 -->
<g id="Node000018" class="node">
<title>Node18</title>
<g id="a_Node000018"><a xlink:title=" ">
<polygon fill="#e0e0e0" stroke="#999999" points="270,-19 226,-19 226,0 270,0 270,-19"/>
<text text-anchor="middle" x="248" y="-7" font-family="Helvetica,sans-Serif" font-size="10.00">ctime</text>
</a>
</g>
</g>
<!-- Node17&#45;&gt;Node18 -->
<g id="edge24_Node000017_Node000018" class="edge">
<title>Node17&#45;&gt;Node18</title>
<g id="a_edge24_Node000017_Node000018"><a xlink:title=" ">
<path fill="none" stroke="#63b8ff" d="M202.52,-54.84C211.32,-46.26 222.57,-35.3 231.67,-26.42"/>
<polygon fill="#63b8ff" stroke="#63b8ff" points="234.29,-28.75 239.01,-19.27 229.41,-23.74 234.29,-28.75"/>
</a>
</g>
</g>
<!-- Node19 -->
<g id="Node000019" class="node">
<title>Node19</title>
<g id="a_Node000019"><a xlink:title=" ">
<polygon fill="#e0e0e0" stroke="#999999" points="68,-19 0,-19 0,0 68,0 68,-19"/>
<text text-anchor="middle" x="34" y="-7" font-family="Helvetica,sans-Serif" font-size="10.00">filesystem</text>
</a>
</g>
</g>
<!-- Node17&#45;&gt;Node19 -->
<g id="edge25_Node000017_Node000019" class="edge">
<title>Node17&#45;&gt;Node19</title>
<g id="a_edge25_Node000017_Node000019"><a xlink:title=" ">
<path fill="none" stroke="#63b8ff" d="M151.11,-54.99C125.3,-45.18 91.15,-32.21 66.4,-22.81"/>
<polygon fill="#63b8ff" stroke="#63b8ff" points="67.33,-19.42 56.74,-19.14 64.85,-25.96 67.33,-19.42"/>
</a>
</g>
</g>
<!-- Node20 -->
<g id="Node000020" class="node">
<title>Node20</title>
<g id="a_Node000020"><a xlink:title=" ">
<polygon fill="#e0e0e0" stroke="#999999" points="141.5,-19 86.5,-19 86.5,0 141.5,0 141.5,-19"/>
<text text-anchor="middle" x="114" y="-7" font-family="Helvetica,sans-Serif" font-size="10.00">fstream</text>
</a>
</g>
</g>
<!-- Node17&#45;&gt;Node20 -->
<g id="edge26_Node000017_Node000020" class="edge">
<title>Node17&#45;&gt;Node20</title>
<g id="a_edge26_Node000017_Node000020"><a xlink:title=" ">
<path fill="none" stroke="#63b8ff" d="M170.09,-54.84C158.91,-46 144.52,-34.63 133.12,-25.62"/>
<polygon fill="#63b8ff" stroke="#63b8ff" points="135.1,-22.72 125.09,-19.27 130.76,-28.21 135.1,-22.72"/>
</a>
</g>
</g>
<!-- Node21 -->
<g id="Node000021" class="node">
<title>Node21</title>
<g id="a_Node000021"><a xlink:title=" ">
<polygon fill="#e0e0e0" stroke="#999999" points="208,-19 160,-19 160,0 208,0 208,-19"/>
<text text-anchor="middle" x="184" y="-7" font-family="Helvetica,sans-Serif" font-size="10.00">mutex</text>
</a>
</g>
</g>
<!-- Node17&#45;&gt;Node21 -->
<g id="edge27_Node000017_Node000021" class="edge">
<title>Node17&#45;&gt;Node21</title>
<g id="a_edge27_Node000017_Node000021"><a xlink:title=" ">
<path fill="none" stroke="#63b8ff" d="M187.03,-54.84C186.51,-47.21 185.86,-37.7 185.3,-29.45"/>
<polygon fill="#63b8ff" stroke="#63b8ff" points="188.77,-29 184.6,-19.27 181.79,-29.48 188.77,-29"/>
</a>
</g>
</g>
</g>
</svg>
