<?xml version="1.0" encoding="UTF-8" standalone="no"?>
<!DOCTYPE svg PUBLIC "-//W3C//DTD SVG 1.1//EN"
 "http://www.w3.org/Graphics/SVG/1.1/DTD/svg11.dtd">
<!-- Generated by graphviz version 2.43.0 (0)
 -->
<!-- Title: Graphe hiérarchique des classes Pages: 1 -->
<svg width="612pt" height="101pt"
 viewBox="0.00 0.00 612.00 101.00" xmlns="http://www.w3.org/2000/svg" xmlns:xlink="http://www.w3.org/1999/xlink">
<g id="graph0" class="graph" transform="scale(1 1) rotate(0) translate(4 97)">
<title>Graphe hiérarchique des classes</title>
<!-- Node0 -->
<g id="Node000000" class="node">
<title>Node0</title>
<g id="a_Node000000"><a xlink:title=" ">
<polygon fill="#e0e0e0" stroke="#999999" points="86,-56 0,-56 0,-37 86,-37 86,-56"/>
<text text-anchor="middle" x="43" y="-44" font-family="Helvetica,sans-Serif" font-size="10.00">std::exception</text>
</a>
</g>
</g>
<!-- Node1 -->
<g id="Node000001" class="node">
<title>Node1</title>
<g id="a_Node000001"><a xlink:title=" ">
<polygon fill="#e0e0e0" stroke="#999999" points="226,-56 122,-56 122,-37 226,-37 226,-56"/>
<text text-anchor="middle" x="174" y="-44" font-family="Helvetica,sans-Serif" font-size="10.00">std::runtime_error</text>
</a>
</g>
</g>
<!-- Node0&#45;&gt;Node1 -->
<g id="edge6_Node000000_Node000001" class="edge">
<title>Node0&#45;&gt;Node1</title>
<g id="a_edge6_Node000000_Node000001"><a xlink:title=" ">
<path fill="none" stroke="#63b8ff" d="M96.27,-46.5C104.65,-46.5 113.31,-46.5 121.66,-46.5"/>
<polygon fill="#63b8ff" stroke="#63b8ff" points="96.24,-43 86.24,-46.5 96.24,-50 96.24,-43"/>
</a>
</g>
</g>
<!-- Node2 -->
<g id="Node000002" class="node">
<title>Node2</title>
<g id="a_Node000002"><a xlink:href="de/d00/classRailwayParserException.html" target="_top" xlink:title="Classe de base pour toutes les erreurs du parseur ferroviaire.">
<polygon fill="white" stroke="#666666" points="396,-56 262,-56 262,-37 396,-37 396,-56"/>
<text text-anchor="middle" x="329" y="-44" font-family="Helvetica,sans-Serif" font-size="10.00">RailwayParserException</text>
</a>
</g>
</g>
<!-- Node1&#45;&gt;Node2 -->
<g id="edge7_Node000001_Node000002" class="edge">
<title>Node1&#45;&gt;Node2</title>
<g id="a_edge7_Node000001_Node000002"><a xlink:title=" ">
<path fill="none" stroke="#63b8ff" d="M236.42,-46.5C244.77,-46.5 253.38,-46.5 261.82,-46.5"/>
<polygon fill="#63b8ff" stroke="#63b8ff" points="236.37,-43 226.37,-46.5 236.37,-50 236.37,-43"/>
</a>
</g>
</g>
<!-- Node3 -->
<g id="Node000003" class="node">
<title>Node3</title>
<g id="a_Node000003"><a xlink:href="d4/d01/classInvalidGeoJsonFormatException.html" target="_top" xlink:title="Levée quand le fichier GeoJSON est malformé ou ne contient aucune géométrie LineString exploitable.">
<polygon fill="white" stroke="#666666" points="604,-93 432,-93 432,-74 604,-74 604,-93"/>
<text text-anchor="middle" x="518" y="-81" font-family="Helvetica,sans-Serif" font-size="10.00">InvalidGeoJsonFormatException</text>
</a>
</g>
</g>
<!-- Node2&#45;&gt;Node3 -->
<g id="edge8_Node000002_Node000003" class="edge">
<title>Node2&#45;&gt;Node3</title>
<g id="a_edge8_Node000002_Node000003"><a xlink:title=" ">
<path fill="none" stroke="#63b8ff" d="M388.2,-58.02C414.05,-63.13 444.1,-69.08 468.68,-73.94"/>
<polygon fill="#63b8ff" stroke="#63b8ff" points="388.65,-54.54 378.16,-56.03 387.29,-61.4 388.65,-54.54"/>
</a>
</g>
</g>
<!-- Node4 -->
<g id="Node000004" class="node">
<title>Node4</title>
<g id="a_Node000004"><a xlink:href="d3/d03/classInvalidSwitchConfigException.html" target="_top" xlink:title="Levée quand un aiguillage viole une contrainte géométrique du CDC.">
<polygon fill="white" stroke="#666666" points="598.5,-56 437.5,-56 437.5,-37 598.5,-37 598.5,-56"/>
<text text-anchor="middle" x="518" y="-44" font-family="Helvetica,sans-Serif" font-size="10.00">InvalidSwitchConfigException</text>
</a>
</g>
</g>
<!-- Node2&#45;&gt;Node4 -->
<g id="edge9_Node000002_Node000004" class="edge">
<title>Node2&#45;&gt;Node4</title>
<g id="a_edge9_Node000002_Node000004"><a xlink:title=" ">
<path fill="none" stroke="#63b8ff" d="M406.33,-46.5C416.59,-46.5 427.13,-46.5 437.44,-46.5"/>
<polygon fill="#63b8ff" stroke="#63b8ff" points="406.19,-43 396.19,-46.5 406.19,-50 406.19,-43"/>
</a>
</g>
</g>
<!-- Node5 -->
<g id="Node000005" class="node">
<title>Node5</title>
<g id="a_Node000005"><a xlink:href="d7/d00/classInvalidTopologyException.html" target="_top" xlink:title="Levée quand la topologie du graphe parsé est structurellement incohérente.">
<polygon fill="white" stroke="#666666" points="588.5,-19 447.5,-19 447.5,0 588.5,0 588.5,-19"/>
<text text-anchor="middle" x="518" y="-7" font-family="Helvetica,sans-Serif" font-size="10.00">InvalidTopologyException</text>
</a>
</g>
</g>
<!-- Node2&#45;&gt;Node5 -->
<g id="edge10_Node000002_Node000005" class="edge">
<title>Node2&#45;&gt;Node5</title>
<g id="a_edge10_Node000002_Node000005"><a xlink:title=" ">
<path fill="none" stroke="#63b8ff" d="M388.2,-34.98C414.05,-29.87 444.1,-23.92 468.68,-19.06"/>
<polygon fill="#63b8ff" stroke="#63b8ff" points="387.29,-31.6 378.16,-36.97 388.65,-38.46 387.29,-31.6"/>
</a>
</g>
</g>
</g>
</svg>
