<?xml version="1.0" encoding="UTF-8" standalone="no"?>
<!DOCTYPE svg PUBLIC "-//W3C//DTD SVG 1.1//EN"
 "http://www.w3.org/Graphics/SVG/1.1/DTD/svg11.dtd">
<!-- Generated by graphviz version 2.43.0 (0)
 -->
<!-- Title: Graphe hiérarchique des classes Pages: 1 -->
<svg width="319pt" height="64pt"
 viewBox="0.00 0.00 319.00 64.00" xmlns="http://www.w3.org/2000/svg" xmlns:xlink="http://www.w3.org/1999/xlink">
<g id="graph0" class="graph" transform="scale(1 1) rotate(0) translate(4 60)">
<title>Graphe hiérarchique des classes</title>
<!-- Node0 -->
<g id="Node000000" class="node">
<title>Node0</title>
<g id="a_Node000000"><a xlink:href="d5/d00/classElement.html" target="_top" xlink:title="Classe de base abstraite pour tous les éléments interactifs ferroviaires.">
<polygon fill="white" stroke="#666666" points="57,-37 0,-37 0,-18 57,-18 57,-37"/>
<text text-anchor="middle" x="28.5" y="-25" font-family="Helvetica,sans-Serif" font-size="10.00">Element</text>
</a>
</g>
</g>
<!-- Node1 -->
<g id="Node000001" class="node">
<title>Node1</title>
<g id="a_Node000001"><a xlink:href="d2/d00/classShuntingElement.html" target="_top" xlink:title="Interface abstraite pour tous les éléments de shuntage ferroviaire.">
<polygon fill="white" stroke="#666666" points="193,-37 93,-37 93,-18 193,-18 193,-37"/>
<text text-anchor="middle" x="143" y="-25" font-family="Helvetica,sans-Serif" font-size="10.00">ShuntingElement</text>
</a>
</g>
</g>
<!-- Node0&#45;&gt;Node1 -->
<g id="edge1_Node000000_Node000001" class="edge">
<title>Node0&#45;&gt;Node1</title>
<g id="a_edge1_Node000000_Node000001"><a xlink:title=" ">
<path fill="none" stroke="#63b8ff" d="M67.09,-27.5C75.34,-27.5 84.19,-27.5 92.82,-27.5"/>
<polygon fill="#63b8ff" stroke="#63b8ff" points="67.02,-24 57.02,-27.5 67.02,-31 67.02,-24"/>
</a>
</g>
</g>
<!-- Node2 -->
<g id="Node000002" class="node">
<title>Node2</title>
<g id="a_Node000002"><a xlink:href="da/d01/classStraightBlock.html" target="_top" xlink:title=" ">
<polygon fill="white" stroke="#666666" points="311,-56 229,-56 229,-37 311,-37 311,-56"/>
<text text-anchor="middle" x="270" y="-44" font-family="Helvetica,sans-Serif" font-size="10.00">StraightBlock</text>
</a>
</g>
</g>
<!-- Node1&#45;&gt;Node2 -->
<g id="edge2_Node000001_Node000002" class="edge">
<title>Node1&#45;&gt;Node2</title>
<g id="a_edge2_Node000001_Node000002"><a xlink:title=" ">
<path fill="none" stroke="#63b8ff" d="M203.21,-36.5C211.93,-37.83 220.74,-39.17 228.96,-40.41"/>
<polygon fill="#63b8ff" stroke="#63b8ff" points="203.46,-33 193.04,-34.95 202.41,-39.92 203.46,-33"/>
</a>
</g>
</g>
<!-- Node3 -->
<g id="Node000003" class="node">
<title>Node3</title>
<g id="a_Node000003"><a xlink:href="d9/d02/classSwitchBlock.html" target="_top" xlink:title=" ">
<polygon fill="white" stroke="#666666" points="308,-19 232,-19 232,0 308,0 308,-19"/>
<text text-anchor="middle" x="270" y="-7" font-family="Helvetica,sans-Serif" font-size="10.00">SwitchBlock</text>
</a>
</g>
</g>
<!-- Node1&#45;&gt;Node3 -->
<g id="edge3_Node000001_Node000003" class="edge">
<title>Node1&#45;&gt;Node3</title>
<g id="a_edge3_Node000001_Node000003"><a xlink:title=" ">
<path fill="none" stroke="#63b8ff" d="M203.11,-18.99C212.84,-17.59 222.69,-16.17 231.69,-14.87"/>
<polygon fill="#63b8ff" stroke="#63b8ff" points="202.44,-15.55 193.04,-20.44 203.44,-22.48 202.44,-15.55"/>
</a>
</g>
</g>
</g>
</svg>
