<?xml version="1.0" encoding="UTF-8" standalone="no"?>
<!DOCTYPE svg PUBLIC "-//W3C//DTD SVG 1.1//EN"
 "http://www.w3.org/Graphics/SVG/1.1/DTD/svg11.dtd">
<!-- Generated by graphviz version 2.43.0 (0)
 -->
<!-- Title: Graphical Class Hierarchy Pages: 1 -->
<svg width="206pt" height="64pt"
 viewBox="0.00 0.00 206.00 64.00" xmlns="http://www.w3.org/2000/svg" xmlns:xlink="http://www.w3.org/1999/xlink">
<g id="graph0" class="graph" transform="scale(1 1) rotate(0) translate(4 60)">
<title>Graphical Class Hierarchy</title>
<!-- Node0 -->
<g id="Node000000" class="node">
<title>Node0</title>
<g id="a_Node000000"><a xlink:href="classPCCNode.html" target="_top" xlink:title="Nœud abstrait du graphe PCC.">
<polygon fill="white" stroke="#666666" points="62,-37 0,-37 0,-18 62,-18 62,-37"/>
<text text-anchor="middle" x="31" y="-25" font-family="Helvetica,sans-Serif" font-size="10.00">PCCNode</text>
</a>
</g>
</g>
<!-- Node1 -->
<g id="Node000001" class="node">
<title>Node1</title>
<g id="a_Node000001"><a xlink:href="classPCCStraightNode.html" target="_top" xlink:title="Nœud PCC issu d&#39;un StraightBlock.">
<polygon fill="white" stroke="#666666" points="198,-56 98,-56 98,-37 198,-37 198,-56"/>
<text text-anchor="middle" x="148" y="-44" font-family="Helvetica,sans-Serif" font-size="10.00">PCCStraightNode</text>
</a>
</g>
</g>
<!-- Node0&#45;&gt;Node1 -->
<g id="edge4_Node000000_Node000001" class="edge">
<title>Node0&#45;&gt;Node1</title>
<g id="a_edge4_Node000000_Node000001"><a xlink:title=" ">
<path fill="none" stroke="#63b8ff" d="M72.33,-34.16C80.58,-35.53 89.35,-36.97 97.86,-38.38"/>
<polygon fill="#63b8ff" stroke="#63b8ff" points="72.65,-30.67 62.21,-32.49 71.51,-37.58 72.65,-30.67"/>
</a>
</g>
</g>
<!-- Node2 -->
<g id="Node000002" class="node">
<title>Node2</title>
<g id="a_Node000002"><a xlink:href="classPCCSwitchNode.html" target="_top" xlink:title="Nœud PCC issu d&#39;un SwitchBlock.">
<polygon fill="white" stroke="#666666" points="195,-19 101,-19 101,0 195,0 195,-19"/>
<text text-anchor="middle" x="148" y="-7" font-family="Helvetica,sans-Serif" font-size="10.00">PCCSwitchNode</text>
</a>
</g>
</g>
<!-- Node0&#45;&gt;Node2 -->
<g id="edge5_Node000000_Node000002" class="edge">
<title>Node0&#45;&gt;Node2</title>
<g id="a_edge5_Node000000_Node000002"><a xlink:title=" ">
<path fill="none" stroke="#63b8ff" d="M72.33,-21.19C81.58,-19.74 91.48,-18.19 100.95,-16.71"/>
<polygon fill="#63b8ff" stroke="#63b8ff" points="71.55,-17.77 62.21,-22.77 72.64,-24.68 71.55,-17.77"/>
</a>
</g>
</g>
</g>
</svg>
