<?xml version="1.0" encoding="UTF-8" standalone="no"?>
<!DOCTYPE svg PUBLIC "-//W3C//DTD SVG 1.1//EN"
 "http://www.w3.org/Graphics/SVG/1.1/DTD/svg11.dtd">
<!-- Generated by graphviz version 2.43.0 (0)
 -->
<!-- Title: SimulateurFerroviaire/Modules/InteractiveElements/InteractiveElement.h Pages: 1 -->
<svg width="2211pt" height="511pt"
 viewBox="0.00 0.00 2211.00 511.00" xmlns="http://www.w3.org/2000/svg" xmlns:xlink="http://www.w3.org/1999/xlink">
<g id="graph0" class="graph" transform="scale(1 1) rotate(0) translate(4 507)">
<title>SimulateurFerroviaire/Modules/InteractiveElements/InteractiveElement.h</title>
<!-- Node1 -->
<g id="Node000001" class="node">
<title>Node1</title>
<g id="a_Node000001"><a xlink:title="Classe de base abstraite pour tous les éléments interactifs ferroviaires.">
<polygon fill="#999999" stroke="#666666" points="1091,-503 929,-503 929,-462 1091,-462 1091,-503"/>
<text text-anchor="start" x="937" y="-491" font-family="Helvetica,sans-Serif" font-size="10.00">SimulateurFerroviaire</text>
<text text-anchor="start" x="937" y="-480" font-family="Helvetica,sans-Serif" font-size="10.00">/Modules/InteractiveElements</text>
<text text-anchor="middle" x="1010" y="-469" font-family="Helvetica,sans-Serif" font-size="10.00">/InteractiveElement.h</text>
</a>
</g>
</g>
<!-- Node2 -->
<g id="Node000002" class="node">
<title>Node2</title>
<g id="a_Node000002"><a xlink:href="InteractiveElement_8cpp.html" target="_top" xlink:title=" ">
<polygon fill="white" stroke="#666666" points="991,-426 829,-426 829,-385 991,-385 991,-426"/>
<text text-anchor="start" x="837" y="-414" font-family="Helvetica,sans-Serif" font-size="10.00">SimulateurFerroviaire</text>
<text text-anchor="start" x="837" y="-403" font-family="Helvetica,sans-Serif" font-size="10.00">/Modules/InteractiveElements</text>
<text text-anchor="middle" x="910" y="-392" font-family="Helvetica,sans-Serif" font-size="10.00">/InteractiveElement.cpp</text>
</a>
</g>
</g>
<!-- Node1&#45;&gt;Node2 -->
<g id="edge1_Node000001_Node000002" class="edge">
<title>Node1&#45;&gt;Node2</title>
<g id="a_edge1_Node000001_Node000002"><a xlink:title=" ">
<path fill="none" stroke="#63b8ff" d="M975.75,-455.82C962.82,-446.11 948.32,-435.24 936.23,-426.17"/>
<polygon fill="#63b8ff" stroke="#63b8ff" points="973.89,-458.79 983.99,-461.99 978.09,-453.19 973.89,-458.79"/>
</a>
</g>
</g>
<!-- Node3 -->
<g id="Node000003" class="node">
<title>Node3</title>
<g id="a_Node000003"><a xlink:href="ShuntingElement_8h.html" target="_top" xlink:title="Interface abstraite pour tous les éléments de shuntage ferroviaire.">
<polygon fill="white" stroke="#666666" points="1212.5,-426 1009.5,-426 1009.5,-385 1212.5,-385 1212.5,-426"/>
<text text-anchor="start" x="1017.5" y="-414" font-family="Helvetica,sans-Serif" font-size="10.00">SimulateurFerroviaire</text>
<text text-anchor="start" x="1017.5" y="-403" font-family="Helvetica,sans-Serif" font-size="10.00">/Modules/InteractiveElements</text>
<text text-anchor="middle" x="1111" y="-392" font-family="Helvetica,sans-Serif" font-size="10.00">/ShuntingElements/ShuntingElement.h</text>
</a>
</g>
</g>
<!-- Node1&#45;&gt;Node3 -->
<g id="edge2_Node000001_Node000003" class="edge">
<title>Node1&#45;&gt;Node3</title>
<g id="a_edge2_Node000001_Node000003"><a xlink:title=" ">
<path fill="none" stroke="#63b8ff" d="M1044.59,-455.82C1057.65,-446.11 1072.3,-435.24 1084.51,-426.17"/>
<polygon fill="#63b8ff" stroke="#63b8ff" points="1042.21,-453.22 1036.27,-461.99 1046.39,-458.84 1042.21,-453.22"/>
</a>
</g>
</g>
<!-- Node4 -->
<g id="Node000004" class="node">
<title>Node4</title>
<g id="a_Node000004"><a xlink:href="StraightBlock_8h.html" target="_top" xlink:title="Modèle de domaine d&#39;un bloc de voie droite (Straight).">
<polygon fill="white" stroke="#666666" points="1003.5,-349 818.5,-349 818.5,-308 1003.5,-308 1003.5,-349"/>
<text text-anchor="start" x="826.5" y="-337" font-family="Helvetica,sans-Serif" font-size="10.00">SimulateurFerroviaire</text>
<text text-anchor="start" x="826.5" y="-326" font-family="Helvetica,sans-Serif" font-size="10.00">/Modules/InteractiveElements</text>
<text text-anchor="middle" x="911" y="-315" font-family="Helvetica,sans-Serif" font-size="10.00">/ShuntingElements/StraightBlock.h</text>
</a>
</g>
</g>
<!-- Node3&#45;&gt;Node4 -->
<g id="edge3_Node000003_Node000004" class="edge">
<title>Node3&#45;&gt;Node4</title>
<g id="a_edge3_Node000003_Node000004"><a xlink:title=" ">
<path fill="none" stroke="#63b8ff" d="M1049.41,-381.4C1021.77,-371.04 989.53,-358.95 963.11,-349.04"/>
<polygon fill="#63b8ff" stroke="#63b8ff" points="1048.38,-384.76 1058.97,-384.99 1050.84,-378.2 1048.38,-384.76"/>
</a>
</g>
</g>
<!-- Node25 -->
<g id="Node000025" class="node">
<title>Node25</title>
<g id="a_Node000025"><a xlink:href="SwitchBlock_8h.html" target="_top" xlink:title="Modèle de domaine d&#39;un aiguillage ferroviaire à 3 branches.">
<polygon fill="white" stroke="#666666" points="1200.5,-349 1021.5,-349 1021.5,-308 1200.5,-308 1200.5,-349"/>
<text text-anchor="start" x="1029.5" y="-337" font-family="Helvetica,sans-Serif" font-size="10.00">SimulateurFerroviaire</text>
<text text-anchor="start" x="1029.5" y="-326" font-family="Helvetica,sans-Serif" font-size="10.00">/Modules/InteractiveElements</text>
<text text-anchor="middle" x="1111" y="-315" font-family="Helvetica,sans-Serif" font-size="10.00">/ShuntingElements/SwitchBlock.h</text>
</a>
</g>
</g>
<!-- Node3&#45;&gt;Node25 -->
<g id="edge32_Node000003_Node000025" class="edge">
<title>Node3&#45;&gt;Node25</title>
<g id="a_edge32_Node000003_Node000025"><a xlink:title=" ">
<path fill="none" stroke="#63b8ff" d="M1111,-374.69C1111,-366.08 1111,-356.9 1111,-349.07"/>
<polygon fill="#63b8ff" stroke="#63b8ff" points="1107.5,-374.79 1111,-384.79 1114.5,-374.79 1107.5,-374.79"/>
</a>
</g>
</g>
<!-- Node29 -->
<g id="Node000029" class="node">
<title>Node29</title>
<g id="a_Node000029"><a xlink:href="PCCNode_8h.html" target="_top" xlink:title="Nœud abstrait du graphe PCC représentant un bloc ferroviaire.">
<polygon fill="white" stroke="#666666" points="1848,-343.5 1708,-343.5 1708,-313.5 1848,-313.5 1848,-343.5"/>
<text text-anchor="start" x="1716" y="-331.5" font-family="Helvetica,sans-Serif" font-size="10.00">SimulateurFerroviaire</text>
<text text-anchor="middle" x="1778" y="-320.5" font-family="Helvetica,sans-Serif" font-size="10.00">/Modules/PCC/PCCNode.h</text>
</a>
</g>
</g>
<!-- Node3&#45;&gt;Node29 -->
<g id="edge42_Node000003_Node000029" class="edge">
<title>Node3&#45;&gt;Node29</title>
<g id="a_edge42_Node000003_Node000029"><a xlink:title=" ">
<path fill="none" stroke="#63b8ff" d="M1222.86,-391.92C1361.05,-376.38 1592.01,-350.41 1707.61,-337.42"/>
<polygon fill="#63b8ff" stroke="#63b8ff" points="1222.21,-388.47 1212.67,-393.07 1222.99,-395.43 1222.21,-388.47"/>
</a>
</g>
</g>
<!-- Node5 -->
<g id="Node000005" class="node">
<title>Node5</title>
<g id="a_Node000005"><a xlink:href="TopologyData_8h.html" target="_top" xlink:title="Conteneur central des données topologiques ferroviaires.">
<polygon fill="white" stroke="#666666" points="580.5,-272 455.5,-272 455.5,-231 580.5,-231 580.5,-272"/>
<text text-anchor="start" x="463.5" y="-260" font-family="Helvetica,sans-Serif" font-size="10.00">SimulateurFerroviaire</text>
<text text-anchor="start" x="463.5" y="-249" font-family="Helvetica,sans-Serif" font-size="10.00">/Engine/Core/Topology</text>
<text text-anchor="middle" x="518" y="-238" font-family="Helvetica,sans-Serif" font-size="10.00">/TopologyData.h</text>
</a>
</g>
</g>
<!-- Node4&#45;&gt;Node5 -->
<g id="edge4_Node000004_Node000005" class="edge">
<title>Node4&#45;&gt;Node5</title>
<g id="a_edge4_Node000004_Node000005"><a xlink:title=" ">
<path fill="none" stroke="#63b8ff" d="M808.18,-311.42C746.2,-301.24 665.81,-287.16 595,-272 590.28,-270.99 585.41,-269.89 580.52,-268.75"/>
<polygon fill="#63b8ff" stroke="#63b8ff" points="807.92,-314.93 818.35,-313.09 809.05,-308.02 807.92,-314.93"/>
</a>
</g>
</g>
<!-- Node13 -->
<g id="Node000013" class="node">
<title>Node13</title>
<g id="a_Node000013"><a xlink:href="TopologyRenderer_8h.html" target="_top" xlink:title="Exporteur de topologie ferroviaire au format GeoJSON.">
<polygon fill="white" stroke="#666666" points="499.5,-195 374.5,-195 374.5,-154 499.5,-154 499.5,-195"/>
<text text-anchor="start" x="382.5" y="-183" font-family="Helvetica,sans-Serif" font-size="10.00">SimulateurFerroviaire</text>
<text text-anchor="start" x="382.5" y="-172" font-family="Helvetica,sans-Serif" font-size="10.00">/Engine/Core/Topology</text>
<text text-anchor="middle" x="437" y="-161" font-family="Helvetica,sans-Serif" font-size="10.00">/TopologyRenderer.h</text>
</a>
</g>
</g>
<!-- Node4&#45;&gt;Node13 -->
<g id="edge12_Node000004_Node000013" class="edge">
<title>Node4&#45;&gt;Node13</title>
<g id="a_edge12_Node000004_Node000013"><a xlink:title=" ">
<path fill="none" stroke="#63b8ff" d="M808,-321.91C679.03,-313.9 471.87,-297.26 447,-272 427.27,-251.95 429.02,-217 432.63,-195.11"/>
<polygon fill="#63b8ff" stroke="#63b8ff" points="808.11,-325.43 818.3,-322.54 808.54,-318.44 808.11,-325.43"/>
</a>
</g>
</g>
<!-- Node14 -->
<g id="Node000014" class="node">
<title>Node14</title>
<g id="a_Node000014"><a xlink:href="DoubleSwitchDetector_8h.html" target="_top" xlink:title="Phases 7 et 8 — détection des doubles aiguilles et validation CDC.">
<polygon fill="white" stroke="#666666" points="820.5,-272 637.5,-272 637.5,-231 820.5,-231 820.5,-272"/>
<text text-anchor="start" x="645.5" y="-260" font-family="Helvetica,sans-Serif" font-size="10.00">SimulateurFerroviaire</text>
<text text-anchor="start" x="645.5" y="-249" font-family="Helvetica,sans-Serif" font-size="10.00">/Modules/GeoParser/DoubleSwitch</text>
<text text-anchor="middle" x="729" y="-238" font-family="Helvetica,sans-Serif" font-size="10.00">Detector.h</text>
</a>
</g>
</g>
<!-- Node4&#45;&gt;Node14 -->
<g id="edge16_Node000004_Node000014" class="edge">
<title>Node4&#45;&gt;Node14</title>
<g id="a_edge16_Node000004_Node000014"><a xlink:title=" ">
<path fill="none" stroke="#63b8ff" d="M854.29,-304.13C829.29,-293.83 800.25,-281.86 776.42,-272.04"/>
<polygon fill="#63b8ff" stroke="#63b8ff" points="853.08,-307.42 863.66,-307.99 855.74,-300.94 853.08,-307.42"/>
</a>
</g>
</g>
<!-- Node16 -->
<g id="Node000016" class="node">
<title>Node16</title>
<g id="a_Node000016"><a xlink:href="GeoParser_8h.html" target="_top" xlink:title="Orchestrateur principal du pipeline GeoJSON ferroviaire.">
<polygon fill="white" stroke="#666666" points="1013,-266.5 839,-266.5 839,-236.5 1013,-236.5 1013,-266.5"/>
<text text-anchor="start" x="847" y="-254.5" font-family="Helvetica,sans-Serif" font-size="10.00">SimulateurFerroviaire</text>
<text text-anchor="middle" x="926" y="-243.5" font-family="Helvetica,sans-Serif" font-size="10.00">/Modules/GeoParser/GeoParser.h</text>
</a>
</g>
</g>
<!-- Node4&#45;&gt;Node16 -->
<g id="edge19_Node000004_Node000016" class="edge">
<title>Node4&#45;&gt;Node16</title>
<g id="a_edge19_Node000004_Node000016"><a xlink:title=" ">
<path fill="none" stroke="#63b8ff" d="M916.91,-297.94C919.05,-287.25 921.37,-275.66 923.13,-266.86"/>
<polygon fill="#63b8ff" stroke="#63b8ff" points="913.47,-297.3 914.94,-307.79 920.33,-298.68 913.47,-297.3"/>
</a>
</g>
</g>
<!-- Node18 -->
<g id="Node000018" class="node">
<title>Node18</title>
<g id="a_Node000018"><a xlink:href="SwitchOrientator_8h.html" target="_top" xlink:title="Phases 6, 6b, 6c et 6d — orientation géométrique des aiguillages.">
<polygon fill="white" stroke="#666666" points="1407,-189.5 1201,-189.5 1201,-159.5 1407,-159.5 1407,-189.5"/>
<text text-anchor="start" x="1209" y="-177.5" font-family="Helvetica,sans-Serif" font-size="10.00">SimulateurFerroviaire</text>
<text text-anchor="middle" x="1304" y="-166.5" font-family="Helvetica,sans-Serif" font-size="10.00">/Modules/GeoParser/SwitchOrientator.h</text>
</a>
</g>
</g>
<!-- Node4&#45;&gt;Node18 -->
<g id="edge22_Node000004_Node000018" class="edge">
<title>Node4&#45;&gt;Node18</title>
<g id="a_edge22_Node000004_Node000018"><a xlink:title=" ">
<path fill="none" stroke="#63b8ff" d="M1013.53,-307.86C1096.52,-291.96 1199.74,-272.16 1200,-272 1220.05,-259.95 1216.34,-247.42 1233,-231 1248.71,-215.51 1268.65,-200.25 1283.4,-189.66"/>
<polygon fill="#63b8ff" stroke="#63b8ff" points="1012.68,-304.46 1003.52,-309.78 1014,-311.34 1012.68,-304.46"/>
</a>
</g>
</g>
<!-- Node20 -->
<g id="Node000020" class="node">
<title>Node20</title>
<g id="a_Node000020"><a xlink:href="TopologyExtractor_8h.html" target="_top" xlink:title="Phases 3, 4, 5a et 5b — extraction de la topologie ferroviaire depuis le graphe.">
<polygon fill="white" stroke="#666666" points="1191,-272 1031,-272 1031,-231 1191,-231 1191,-272"/>
<text text-anchor="start" x="1039" y="-260" font-family="Helvetica,sans-Serif" font-size="10.00">SimulateurFerroviaire</text>
<text text-anchor="start" x="1039" y="-249" font-family="Helvetica,sans-Serif" font-size="10.00">/Modules/GeoParser/Topology</text>
<text text-anchor="middle" x="1111" y="-238" font-family="Helvetica,sans-Serif" font-size="10.00">Extractor.h</text>
</a>
</g>
</g>
<!-- Node4&#45;&gt;Node20 -->
<g id="edge25_Node000004_Node000020" class="edge">
<title>Node4&#45;&gt;Node20</title>
<g id="a_edge25_Node000004_Node000020"><a xlink:title=" ">
<path fill="none" stroke="#63b8ff" d="M972.59,-304.4C1000.23,-294.04 1032.47,-281.95 1058.89,-272.04"/>
<polygon fill="#63b8ff" stroke="#63b8ff" points="971.16,-301.2 963.03,-307.99 973.62,-307.76 971.16,-301.2"/>
</a>
</g>
</g>
<!-- Node22 -->
<g id="Node000022" class="node">
<title>Node22</title>
<g id="a_Node000022"><a xlink:href="StraightBlock_8cpp.html" target="_top" xlink:title="Implémentation du bloc de voie droite StraightBlock.">
<polygon fill="white" stroke="#666666" points="398.5,-272 201.5,-272 201.5,-231 398.5,-231 398.5,-272"/>
<text text-anchor="start" x="209.5" y="-260" font-family="Helvetica,sans-Serif" font-size="10.00">SimulateurFerroviaire</text>
<text text-anchor="start" x="209.5" y="-249" font-family="Helvetica,sans-Serif" font-size="10.00">/Modules/InteractiveElements</text>
<text text-anchor="middle" x="300" y="-238" font-family="Helvetica,sans-Serif" font-size="10.00">/ShuntingElements/StraightBlock.cpp</text>
</a>
</g>
</g>
<!-- Node4&#45;&gt;Node22 -->
<g id="edge29_Node000004_Node000022" class="edge">
<title>Node4&#45;&gt;Node22</title>
<g id="a_edge29_Node000004_Node000022"><a xlink:title=" ">
<path fill="none" stroke="#63b8ff" d="M807.9,-317.83C707.03,-307.94 549.15,-291.32 413,-272 408.27,-271.33 403.43,-270.61 398.55,-269.86"/>
<polygon fill="#63b8ff" stroke="#63b8ff" points="807.8,-321.34 818.09,-318.82 808.48,-314.37 807.8,-321.34"/>
</a>
</g>
</g>
<!-- Node23 -->
<g id="Node000023" class="node">
<title>Node23</title>
<g id="a_Node000023"><a xlink:href="PCCStraightNode_8h.html" target="_top" xlink:title="Nœud PCC représentant un StraightBlock.">
<polygon fill="white" stroke="#666666" points="1464.5,-266.5 1285.5,-266.5 1285.5,-236.5 1464.5,-236.5 1464.5,-266.5"/>
<text text-anchor="start" x="1293.5" y="-254.5" font-family="Helvetica,sans-Serif" font-size="10.00">SimulateurFerroviaire</text>
<text text-anchor="middle" x="1375" y="-243.5" font-family="Helvetica,sans-Serif" font-size="10.00">/Modules/PCC/PCCStraightNode.h</text>
</a>
</g>
</g>
<!-- Node4&#45;&gt;Node23 -->
<g id="edge30_Node000004_Node000023" class="edge">
<title>Node4&#45;&gt;Node23</title>
<g id="a_edge30_Node000004_Node000023"><a xlink:title=" ">
<path fill="none" stroke="#63b8ff" d="M1013.42,-307.96C1112.4,-291.03 1214.24,-275.69 1285.22,-265.33"/>
<polygon fill="#63b8ff" stroke="#63b8ff" points="1012.8,-304.51 1003.54,-309.65 1013.99,-311.41 1012.8,-304.51"/>
</a>
</g>
</g>
<!-- Node6 -->
<g id="Node000006" class="node">
<title>Node6</title>
<g id="a_Node000006"><a xlink:href="TopologyRepository_8h.html" target="_top" xlink:title="Singleton de stockage des données topologiques ferroviaires.">
<polygon fill="white" stroke="#666666" points="356.5,-195 231.5,-195 231.5,-154 356.5,-154 356.5,-195"/>
<text text-anchor="start" x="239.5" y="-183" font-family="Helvetica,sans-Serif" font-size="10.00">SimulateurFerroviaire</text>
<text text-anchor="start" x="239.5" y="-172" font-family="Helvetica,sans-Serif" font-size="10.00">/Engine/Core/Topology</text>
<text text-anchor="middle" x="294" y="-161" font-family="Helvetica,sans-Serif" font-size="10.00">/TopologyRepository.h</text>
</a>
</g>
</g>
<!-- Node5&#45;&gt;Node6 -->
<g id="edge5_Node000005_Node000006" class="edge">
<title>Node5&#45;&gt;Node6</title>
<g id="a_edge5_Node000005_Node000006"><a xlink:title=" ">
<path fill="none" stroke="#63b8ff" d="M450.23,-227.81C419.02,-217.36 382.34,-205.08 352.37,-195.04"/>
<polygon fill="#63b8ff" stroke="#63b8ff" points="449.14,-231.13 459.73,-230.99 451.36,-224.5 449.14,-231.13"/>
</a>
</g>
</g>
<!-- Node7 -->
<g id="Node000007" class="node">
<title>Node7</title>
<g id="a_Node000007"><a xlink:href="TopologyRenderer_8cpp.html" target="_top" xlink:title="Implémentation de l&#39;exporteur GeoJSON.">
<polygon fill="white" stroke="#666666" points="519.5,-118 392.5,-118 392.5,-77 519.5,-77 519.5,-118"/>
<text text-anchor="start" x="400.5" y="-106" font-family="Helvetica,sans-Serif" font-size="10.00">SimulateurFerroviaire</text>
<text text-anchor="start" x="400.5" y="-95" font-family="Helvetica,sans-Serif" font-size="10.00">/Engine/Core/Topology</text>
<text text-anchor="middle" x="456" y="-84" font-family="Helvetica,sans-Serif" font-size="10.00">/TopologyRenderer.cpp</text>
</a>
</g>
</g>
<!-- Node6&#45;&gt;Node7 -->
<g id="edge6_Node000006_Node000007" class="edge">
<title>Node6&#45;&gt;Node7</title>
<g id="a_edge6_Node000006_Node000007"><a xlink:title=" ">
<path fill="none" stroke="#63b8ff" d="M345.36,-149.72C367.41,-139.51 392.86,-127.73 413.79,-118.04"/>
<polygon fill="#63b8ff" stroke="#63b8ff" points="343.74,-146.61 336.14,-153.99 346.69,-152.97 343.74,-146.61"/>
</a>
</g>
</g>
<!-- Node8 -->
<g id="Node000008" class="node">
<title>Node8</title>
<g id="a_Node000008"><a xlink:href="MainWindow_8cpp.html" target="_top" xlink:title="Implémentation de la fenêtre principale.">
<polygon fill="white" stroke="#666666" points="374.5,-112.5 213.5,-112.5 213.5,-82.5 374.5,-82.5 374.5,-112.5"/>
<text text-anchor="start" x="221.5" y="-100.5" font-family="Helvetica,sans-Serif" font-size="10.00">SimulateurFerroviaire</text>
<text text-anchor="middle" x="294" y="-89.5" font-family="Helvetica,sans-Serif" font-size="10.00">/Engine/HMI/MainWindow.cpp</text>
</a>
</g>
</g>
<!-- Node6&#45;&gt;Node8 -->
<g id="edge7_Node000006_Node000008" class="edge">
<title>Node6&#45;&gt;Node8</title>
<g id="a_edge7_Node000006_Node000008"><a xlink:title=" ">
<path fill="none" stroke="#63b8ff" d="M294,-143.61C294,-133.01 294,-121.57 294,-112.86"/>
<polygon fill="#63b8ff" stroke="#63b8ff" points="290.5,-143.79 294,-153.79 297.5,-143.79 290.5,-143.79"/>
</a>
</g>
</g>
<!-- Node9 -->
<g id="Node000009" class="node">
<title>Node9</title>
<g id="a_Node000009"><a xlink:href="TCORenderer_8h.html" target="_top" xlink:title="Renderer GDI du schéma TCO (Tableau de Contrôle Optique) ferroviaire.">
<polygon fill="white" stroke="#666666" points="195,-118 71,-118 71,-77 195,-77 195,-118"/>
<text text-anchor="start" x="79" y="-106" font-family="Helvetica,sans-Serif" font-size="10.00">SimulateurFerroviaire</text>
<text text-anchor="start" x="79" y="-95" font-family="Helvetica,sans-Serif" font-size="10.00">/Engine/HMI/PCCPanel</text>
<text text-anchor="middle" x="133" y="-84" font-family="Helvetica,sans-Serif" font-size="10.00">/TCORenderer.h</text>
</a>
</g>
</g>
<!-- Node6&#45;&gt;Node9 -->
<g id="edge8_Node000006_Node000009" class="edge">
<title>Node6&#45;&gt;Node9</title>
<g id="a_edge8_Node000006_Node000009"><a xlink:title=" ">
<path fill="none" stroke="#63b8ff" d="M242.96,-149.72C221.04,-139.51 195.75,-127.73 174.95,-118.04"/>
<polygon fill="#63b8ff" stroke="#63b8ff" points="241.58,-152.94 252.12,-153.99 244.53,-146.6 241.58,-152.94"/>
</a>
</g>
</g>
<!-- Node12 -->
<g id="Node000012" class="node">
<title>Node12</title>
<g id="a_Node000012"><a xlink:href="GeoParser_8cpp.html" target="_top" xlink:title="Implémentation du pipeline GeoParser.">
<polygon fill="white" stroke="#666666" points="935.5,-112.5 750.5,-112.5 750.5,-82.5 935.5,-82.5 935.5,-112.5"/>
<text text-anchor="start" x="758.5" y="-100.5" font-family="Helvetica,sans-Serif" font-size="10.00">SimulateurFerroviaire</text>
<text text-anchor="middle" x="843" y="-89.5" font-family="Helvetica,sans-Serif" font-size="10.00">/Modules/GeoParser/GeoParser.cpp</text>
</a>
</g>
</g>
<!-- Node6&#45;&gt;Node12 -->
<g id="edge11_Node000006_Node000012" class="edge">
<title>Node6&#45;&gt;Node12</title>
<g id="a_edge11_Node000006_Node000012"><a xlink:title=" ">
<path fill="none" stroke="#63b8ff" d="M366.69,-154.02C505.68,-127.79 656.2,-112.89 750.49,-105.16"/>
<polygon fill="#63b8ff" stroke="#63b8ff" points="365.87,-150.61 356.7,-155.93 367.18,-157.49 365.87,-150.61"/>
</a>
</g>
</g>
<!-- Node10 -->
<g id="Node000010" class="node">
<title>Node10</title>
<g id="a_Node000010"><a xlink:href="PCCPanel_8cpp.html" target="_top" xlink:title="Implémentation du panneau PCC superposé togglable.">
<polygon fill="white" stroke="#666666" points="124,-41 0,-41 0,0 124,0 124,-41"/>
<text text-anchor="start" x="8" y="-29" font-family="Helvetica,sans-Serif" font-size="10.00">SimulateurFerroviaire</text>
<text text-anchor="start" x="8" y="-18" font-family="Helvetica,sans-Serif" font-size="10.00">/Engine/HMI/PCCPanel</text>
<text text-anchor="middle" x="62" y="-7" font-family="Helvetica,sans-Serif" font-size="10.00">/PCCPanel.cpp</text>
</a>
</g>
</g>
<!-- Node9&#45;&gt;Node10 -->
<g id="edge9_Node000009_Node000010" class="edge">
<title>Node9&#45;&gt;Node10</title>
<g id="a_edge9_Node000009_Node000010"><a xlink:title=" ">
<path fill="none" stroke="#63b8ff" d="M107.45,-69.51C98.55,-60.11 88.75,-49.76 80.53,-41.07"/>
<polygon fill="#63b8ff" stroke="#63b8ff" points="104.93,-71.94 114.35,-76.79 110.01,-67.13 104.93,-71.94"/>
</a>
</g>
</g>
<!-- Node11 -->
<g id="Node000011" class="node">
<title>Node11</title>
<g id="a_Node000011"><a xlink:href="TCORenderer_8cpp.html" target="_top" xlink:title="Implémentation du renderer GDI TCO.">
<polygon fill="white" stroke="#666666" points="266,-41 142,-41 142,0 266,0 266,-41"/>
<text text-anchor="start" x="150" y="-29" font-family="Helvetica,sans-Serif" font-size="10.00">SimulateurFerroviaire</text>
<text text-anchor="start" x="150" y="-18" font-family="Helvetica,sans-Serif" font-size="10.00">/Engine/HMI/PCCPanel</text>
<text text-anchor="middle" x="204" y="-7" font-family="Helvetica,sans-Serif" font-size="10.00">/TCORenderer.cpp</text>
</a>
</g>
</g>
<!-- Node9&#45;&gt;Node11 -->
<g id="edge10_Node000009_Node000011" class="edge">
<title>Node9&#45;&gt;Node11</title>
<g id="a_edge10_Node000009_Node000011"><a xlink:title=" ">
<path fill="none" stroke="#63b8ff" d="M158.55,-69.51C167.45,-60.11 177.25,-49.76 185.47,-41.07"/>
<polygon fill="#63b8ff" stroke="#63b8ff" points="155.99,-67.13 151.65,-76.79 161.07,-71.94 155.99,-67.13"/>
</a>
</g>
</g>
<!-- Node13&#45;&gt;Node7 -->
<g id="edge13_Node000013_Node000007" class="edge">
<title>Node13&#45;&gt;Node7</title>
<g id="a_edge13_Node000013_Node000007"><a xlink:title=" ">
<path fill="none" stroke="#63b8ff" d="M444.48,-143.98C446.68,-135.28 449.04,-125.98 451.04,-118.07"/>
<polygon fill="#63b8ff" stroke="#63b8ff" points="441.06,-143.24 441.99,-153.79 447.84,-144.96 441.06,-143.24"/>
</a>
</g>
</g>
<!-- Node13&#45;&gt;Node8 -->
<g id="edge14_Node000013_Node000008" class="edge">
<title>Node13&#45;&gt;Node8</title>
<g id="a_edge14_Node000013_Node000008"><a xlink:title=" ">
<path fill="none" stroke="#63b8ff" d="M390.86,-149.3C367.82,-137.22 340.74,-123.01 321.07,-112.7"/>
<polygon fill="#63b8ff" stroke="#63b8ff" points="389.32,-152.45 399.8,-153.99 392.57,-146.25 389.32,-152.45"/>
</a>
</g>
</g>
<!-- Node13&#45;&gt;Node12 -->
<g id="edge15_Node000013_Node000012" class="edge">
<title>Node13&#45;&gt;Node12</title>
<g id="a_edge15_Node000013_Node000012"><a xlink:title=" ">
<path fill="none" stroke="#63b8ff" d="M509.53,-153.99C596.67,-135.27 685.51,-120.95 750.38,-111.35"/>
<polygon fill="#63b8ff" stroke="#63b8ff" points="508.77,-150.57 499.74,-156.11 510.25,-157.41 508.77,-150.57"/>
</a>
</g>
</g>
<!-- Node14&#45;&gt;Node12 -->
<g id="edge18_Node000014_Node000012" class="edge">
<title>Node14&#45;&gt;Node12</title>
<g id="a_edge18_Node000014_Node000012"><a xlink:title=" ">
<path fill="none" stroke="#63b8ff" d="M729.02,-220.86C730.41,-200.38 735.1,-173.43 749,-154 762.56,-135.04 784.79,-121.49 804.23,-112.52"/>
<polygon fill="#63b8ff" stroke="#63b8ff" points="725.53,-220.76 728.57,-230.91 732.52,-221.08 725.53,-220.76"/>
</a>
</g>
</g>
<!-- Node15 -->
<g id="Node000015" class="node">
<title>Node15</title>
<g id="a_Node000015"><a xlink:href="DoubleSwitchDetector_8cpp.html" target="_top" xlink:title="Implémentation phases 7 et 8 — doubles aiguilles et validation CDC.">
<polygon fill="white" stroke="#666666" points="700.5,-195 517.5,-195 517.5,-154 700.5,-154 700.5,-195"/>
<text text-anchor="start" x="525.5" y="-183" font-family="Helvetica,sans-Serif" font-size="10.00">SimulateurFerroviaire</text>
<text text-anchor="start" x="525.5" y="-172" font-family="Helvetica,sans-Serif" font-size="10.00">/Modules/GeoParser/DoubleSwitch</text>
<text text-anchor="middle" x="609" y="-161" font-family="Helvetica,sans-Serif" font-size="10.00">Detector.cpp</text>
</a>
</g>
</g>
<!-- Node14&#45;&gt;Node15 -->
<g id="edge17_Node000014_Node000015" class="edge">
<title>Node14&#45;&gt;Node15</title>
<g id="a_edge17_Node000014_Node000015"><a xlink:title=" ">
<path fill="none" stroke="#63b8ff" d="M689.23,-225.64C673.38,-215.74 655.39,-204.5 640.48,-195.17"/>
<polygon fill="#63b8ff" stroke="#63b8ff" points="687.45,-228.66 697.78,-230.99 691.16,-222.72 687.45,-228.66"/>
</a>
</g>
</g>
<!-- Node16&#45;&gt;Node12 -->
<g id="edge20_Node000016_Node000012" class="edge">
<title>Node16&#45;&gt;Node12</title>
<g id="a_edge20_Node000016_Node000012"><a xlink:title=" ">
<path fill="none" stroke="#63b8ff" d="M936.62,-226.79C944.12,-206.21 950.8,-176.3 938,-154 926.88,-134.62 906.08,-121.36 886.77,-112.68"/>
<polygon fill="#63b8ff" stroke="#63b8ff" points="933.26,-225.76 932.83,-236.34 939.77,-228.34 933.26,-225.76"/>
</a>
</g>
</g>
<!-- Node17 -->
<g id="Node000017" class="node">
<title>Node17</title>
<g id="a_Node000017"><a xlink:href="GeoParsingTask_8cpp.html" target="_top" xlink:title="Implémentation de la tâche de parsing GeoJSON asynchrone.">
<polygon fill="white" stroke="#666666" points="928.5,-195 757.5,-195 757.5,-154 928.5,-154 928.5,-195"/>
<text text-anchor="start" x="765.5" y="-183" font-family="Helvetica,sans-Serif" font-size="10.00">SimulateurFerroviaire</text>
<text text-anchor="start" x="765.5" y="-172" font-family="Helvetica,sans-Serif" font-size="10.00">/Modules/GeoParser/GeoParsing</text>
<text text-anchor="middle" x="843" y="-161" font-family="Helvetica,sans-Serif" font-size="10.00">Task.cpp</text>
</a>
</g>
</g>
<!-- Node16&#45;&gt;Node17 -->
<g id="edge21_Node000016_Node000017" class="edge">
<title>Node16&#45;&gt;Node17</title>
<g id="a_edge21_Node000016_Node000017"><a xlink:title=" ">
<path fill="none" stroke="#63b8ff" d="M902.63,-229.38C890.77,-218.66 876.44,-205.72 864.81,-195.2"/>
<polygon fill="#63b8ff" stroke="#63b8ff" points="900.62,-232.29 910.39,-236.39 905.32,-227.09 900.62,-232.29"/>
</a>
</g>
</g>
<!-- Node18&#45;&gt;Node12 -->
<g id="edge23_Node000018_Node000012" class="edge">
<title>Node18&#45;&gt;Node12</title>
<g id="a_edge23_Node000018_Node000012"><a xlink:title=" ">
<path fill="none" stroke="#63b8ff" d="M1214.28,-157.76C1206.74,-156.47 1199.24,-155.21 1192,-154 1104.25,-139.38 1003.94,-123.52 933.45,-112.51"/>
<polygon fill="#63b8ff" stroke="#63b8ff" points="1213.73,-161.22 1224.18,-159.46 1214.92,-154.32 1213.73,-161.22"/>
</a>
</g>
</g>
<!-- Node19 -->
<g id="Node000019" class="node">
<title>Node19</title>
<g id="a_Node000019"><a xlink:href="SwitchOrientator_8cpp.html" target="_top" xlink:title="Implémentation des phases 6, 6b, 6c et 6d — orientation des aiguillages.">
<polygon fill="white" stroke="#666666" points="1413,-112.5 1195,-112.5 1195,-82.5 1413,-82.5 1413,-112.5"/>
<text text-anchor="start" x="1203" y="-100.5" font-family="Helvetica,sans-Serif" font-size="10.00">SimulateurFerroviaire</text>
<text text-anchor="middle" x="1304" y="-89.5" font-family="Helvetica,sans-Serif" font-size="10.00">/Modules/GeoParser/SwitchOrientator.cpp</text>
</a>
</g>
</g>
<!-- Node18&#45;&gt;Node19 -->
<g id="edge24_Node000018_Node000019" class="edge">
<title>Node18&#45;&gt;Node19</title>
<g id="a_edge24_Node000018_Node000019"><a xlink:title=" ">
<path fill="none" stroke="#63b8ff" d="M1304,-149.04C1304,-136.95 1304,-122.79 1304,-112.54"/>
<polygon fill="#63b8ff" stroke="#63b8ff" points="1300.5,-149.39 1304,-159.39 1307.5,-149.39 1300.5,-149.39"/>
</a>
</g>
</g>
<!-- Node20&#45;&gt;Node12 -->
<g id="edge26_Node000020_Node000012" class="edge">
<title>Node20&#45;&gt;Node12</title>
<g id="a_edge26_Node000020_Node000012"><a xlink:title=" ">
<path fill="none" stroke="#63b8ff" d="M1066.13,-225.91C1049.56,-216.55 1030.75,-205.58 1014,-195 987.01,-177.94 982.49,-170.24 955,-154 928.66,-138.43 897.36,-123.18 874.55,-112.61"/>
<polygon fill="#63b8ff" stroke="#63b8ff" points="1064.65,-229.09 1075.08,-230.94 1068.08,-222.99 1064.65,-229.09"/>
</a>
</g>
</g>
<!-- Node20&#45;&gt;Node18 -->
<g id="edge27_Node000020_Node000018" class="edge">
<title>Node20&#45;&gt;Node18</title>
<g id="a_edge27_Node000020_Node000018"><a xlink:title=" ">
<path fill="none" stroke="#63b8ff" d="M1170.83,-227.25C1202.56,-214.92 1240.51,-200.17 1267.76,-189.58"/>
<polygon fill="#63b8ff" stroke="#63b8ff" points="1169.26,-224.11 1161.2,-230.99 1171.79,-230.63 1169.26,-224.11"/>
</a>
</g>
</g>
<!-- Node21 -->
<g id="Node000021" class="node">
<title>Node21</title>
<g id="a_Node000021"><a xlink:href="TopologyExtractor_8cpp.html" target="_top" xlink:title="Implémentation des phases 3, 4, 5a et 5b du pipeline GeoParser.">
<polygon fill="white" stroke="#666666" points="1183,-195 1023,-195 1023,-154 1183,-154 1183,-195"/>
<text text-anchor="start" x="1031" y="-183" font-family="Helvetica,sans-Serif" font-size="10.00">SimulateurFerroviaire</text>
<text text-anchor="start" x="1031" y="-172" font-family="Helvetica,sans-Serif" font-size="10.00">/Modules/GeoParser/Topology</text>
<text text-anchor="middle" x="1103" y="-161" font-family="Helvetica,sans-Serif" font-size="10.00">Extractor.cpp</text>
</a>
</g>
</g>
<!-- Node20&#45;&gt;Node21 -->
<g id="edge28_Node000020_Node000021" class="edge">
<title>Node20&#45;&gt;Node21</title>
<g id="a_edge28_Node000020_Node000021"><a xlink:title=" ">
<path fill="none" stroke="#63b8ff" d="M1107.82,-220.69C1106.9,-212.08 1105.92,-202.9 1105.09,-195.07"/>
<polygon fill="#63b8ff" stroke="#63b8ff" points="1104.36,-221.22 1108.9,-230.79 1111.32,-220.48 1104.36,-221.22"/>
</a>
</g>
</g>
<!-- Node24 -->
<g id="Node000024" class="node">
<title>Node24</title>
<g id="a_Node000024"><a xlink:href="PCCStraightNode_8cpp.html" target="_top" xlink:title="Implémentation du nœud PCC pour voie droite.">
<polygon fill="white" stroke="#666666" points="1615,-189.5 1425,-189.5 1425,-159.5 1615,-159.5 1615,-189.5"/>
<text text-anchor="start" x="1433" y="-177.5" font-family="Helvetica,sans-Serif" font-size="10.00">SimulateurFerroviaire</text>
<text text-anchor="middle" x="1520" y="-166.5" font-family="Helvetica,sans-Serif" font-size="10.00">/Modules/PCC/PCCStraightNode.cpp</text>
</a>
</g>
</g>
<!-- Node23&#45;&gt;Node24 -->
<g id="edge31_Node000023_Node000024" class="edge">
<title>Node23&#45;&gt;Node24</title>
<g id="a_edge31_Node000023_Node000024"><a xlink:title=" ">
<path fill="none" stroke="#63b8ff" d="M1411.21,-231.77C1436.52,-218.68 1469.8,-201.47 1492.85,-189.54"/>
<polygon fill="#63b8ff" stroke="#63b8ff" points="1409.55,-228.69 1402.27,-236.39 1412.76,-234.91 1409.55,-228.69"/>
</a>
</g>
</g>
<!-- Node25&#45;&gt;Node5 -->
<g id="edge33_Node000025_Node000005" class="edge">
<title>Node25&#45;&gt;Node5</title>
<g id="a_edge33_Node000025_Node000005"><a xlink:title=" ">
<path fill="none" stroke="#63b8ff" d="M1011.3,-307.84C826.61,-282.5 775.64,-302.45 595,-272 590.38,-271.22 585.62,-270.3 580.86,-269.3"/>
<polygon fill="#63b8ff" stroke="#63b8ff" points="1010.96,-311.33 1021.35,-309.25 1011.93,-304.4 1010.96,-311.33"/>
</a>
</g>
</g>
<!-- Node25&#45;&gt;Node13 -->
<g id="edge34_Node000025_Node000013" class="edge">
<title>Node25&#45;&gt;Node13</title>
<g id="a_edge34_Node000025_Node000013"><a xlink:title=" ">
<path fill="none" stroke="#63b8ff" d="M1011.35,-307.97C913.18,-296.5 703.47,-308.15 629,-272 606.38,-261.02 611.05,-244.77 590,-231 574.51,-220.87 534.81,-206.57 499.73,-195.03"/>
<polygon fill="#63b8ff" stroke="#63b8ff" points="1010.97,-311.45 1021.34,-309.28 1011.88,-304.51 1010.97,-311.45"/>
</a>
</g>
</g>
<!-- Node25&#45;&gt;Node14 -->
<g id="edge35_Node000025_Node000014" class="edge">
<title>Node25&#45;&gt;Node14</title>
<g id="a_edge35_Node000025_Node000014"><a xlink:title=" ">
<path fill="none" stroke="#63b8ff" d="M1011.09,-307.63C942.05,-294.02 873.8,-280.69 820.78,-270.35"/>
<polygon fill="#63b8ff" stroke="#63b8ff" points="1010.79,-311.13 1021.28,-309.63 1012.15,-304.27 1010.79,-311.13"/>
</a>
</g>
</g>
<!-- Node25&#45;&gt;Node16 -->
<g id="edge36_Node000025_Node000016" class="edge">
<title>Node25&#45;&gt;Node16</title>
<g id="a_edge36_Node000025_Node000016"><a xlink:title=" ">
<path fill="none" stroke="#63b8ff" d="M1053.25,-304.09C1022.92,-291.79 986.75,-277.13 960.74,-266.58"/>
<polygon fill="#63b8ff" stroke="#63b8ff" points="1052.29,-307.48 1062.88,-307.99 1054.92,-300.99 1052.29,-307.48"/>
</a>
</g>
</g>
<!-- Node25&#45;&gt;Node18 -->
<g id="edge37_Node000025_Node000018" class="edge">
<title>Node25&#45;&gt;Node18</title>
<g id="a_edge37_Node000025_Node000018"><a xlink:title=" ">
<path fill="none" stroke="#63b8ff" d="M1179.05,-303.87C1197.66,-295.52 1217.08,-284.92 1233,-272 1262.07,-248.41 1285.36,-210.28 1296.63,-189.73"/>
<polygon fill="#63b8ff" stroke="#63b8ff" points="1177.49,-300.73 1169.7,-307.91 1180.27,-307.15 1177.49,-300.73"/>
</a>
</g>
</g>
<!-- Node25&#45;&gt;Node20 -->
<g id="edge38_Node000025_Node000020" class="edge">
<title>Node25&#45;&gt;Node20</title>
<g id="a_edge38_Node000025_Node000020"><a xlink:title=" ">
<path fill="none" stroke="#63b8ff" d="M1111,-297.69C1111,-289.08 1111,-279.9 1111,-272.07"/>
<polygon fill="#63b8ff" stroke="#63b8ff" points="1107.5,-297.79 1111,-307.79 1114.5,-297.79 1107.5,-297.79"/>
</a>
</g>
</g>
<!-- Node26 -->
<g id="Node000026" class="node">
<title>Node26</title>
<g id="a_Node000026"><a xlink:href="SwitchBlock_8cpp.html" target="_top" xlink:title="Implémentation du modèle d&#39;aiguillage SwitchBlock.">
<polygon fill="white" stroke="#666666" points="1673.5,-272 1482.5,-272 1482.5,-231 1673.5,-231 1673.5,-272"/>
<text text-anchor="start" x="1490.5" y="-260" font-family="Helvetica,sans-Serif" font-size="10.00">SimulateurFerroviaire</text>
<text text-anchor="start" x="1490.5" y="-249" font-family="Helvetica,sans-Serif" font-size="10.00">/Modules/InteractiveElements</text>
<text text-anchor="middle" x="1578" y="-238" font-family="Helvetica,sans-Serif" font-size="10.00">/ShuntingElements/SwitchBlock.cpp</text>
</a>
</g>
</g>
<!-- Node25&#45;&gt;Node26 -->
<g id="edge39_Node000025_Node000026" class="edge">
<title>Node25&#45;&gt;Node26</title>
<g id="a_edge39_Node000025_Node000026"><a xlink:title=" ">
<path fill="none" stroke="#63b8ff" d="M1210.75,-313.17C1283.76,-302.46 1385.16,-287.12 1474,-272 1476.72,-271.54 1479.47,-271.06 1482.25,-270.58"/>
<polygon fill="#63b8ff" stroke="#63b8ff" points="1210.03,-309.74 1200.64,-314.65 1211.04,-316.67 1210.03,-309.74"/>
</a>
</g>
</g>
<!-- Node27 -->
<g id="Node000027" class="node">
<title>Node27</title>
<g id="a_Node000027"><a xlink:href="PCCSwitchNode_8h.html" target="_top" xlink:title="Nœud PCC représentant un SwitchBlock.">
<polygon fill="white" stroke="#666666" points="1864.5,-266.5 1691.5,-266.5 1691.5,-236.5 1864.5,-236.5 1864.5,-266.5"/>
<text text-anchor="start" x="1699.5" y="-254.5" font-family="Helvetica,sans-Serif" font-size="10.00">SimulateurFerroviaire</text>
<text text-anchor="middle" x="1778" y="-243.5" font-family="Helvetica,sans-Serif" font-size="10.00">/Modules/PCC/PCCSwitchNode.h</text>
</a>
</g>
</g>
<!-- Node25&#45;&gt;Node27 -->
<g id="edge40_Node000025_Node000027" class="edge">
<title>Node25&#45;&gt;Node27</title>
<g id="a_edge40_Node000025_Node000027"><a xlink:title=" ">
<path fill="none" stroke="#63b8ff" d="M1210.67,-321.04C1325.12,-312.88 1518.28,-296.83 1683,-272 1693.16,-270.47 1703.87,-268.56 1714.29,-266.54"/>
<polygon fill="#63b8ff" stroke="#63b8ff" points="1210.26,-317.56 1200.53,-321.76 1210.75,-324.54 1210.26,-317.56"/>
</a>
</g>
</g>
<!-- Node28 -->
<g id="Node000028" class="node">
<title>Node28</title>
<g id="a_Node000028"><a xlink:href="PCCSwitchNode_8cpp.html" target="_top" xlink:title="Implémentation du nœud PCC pour aiguillage.">
<polygon fill="white" stroke="#666666" points="1870,-189.5 1686,-189.5 1686,-159.5 1870,-159.5 1870,-189.5"/>
<text text-anchor="start" x="1694" y="-177.5" font-family="Helvetica,sans-Serif" font-size="10.00">SimulateurFerroviaire</text>
<text text-anchor="middle" x="1778" y="-166.5" font-family="Helvetica,sans-Serif" font-size="10.00">/Modules/PCC/PCCSwitchNode.cpp</text>
</a>
</g>
</g>
<!-- Node27&#45;&gt;Node28 -->
<g id="edge41_Node000027_Node000028" class="edge">
<title>Node27&#45;&gt;Node28</title>
<g id="a_edge41_Node000027_Node000028"><a xlink:title=" ">
<path fill="none" stroke="#63b8ff" d="M1778,-226.04C1778,-213.95 1778,-199.79 1778,-189.54"/>
<polygon fill="#63b8ff" stroke="#63b8ff" points="1774.5,-226.39 1778,-236.39 1781.5,-226.39 1774.5,-226.39"/>
</a>
</g>
</g>
<!-- Node29&#45;&gt;Node23 -->
<g id="edge45_Node000029_Node000023" class="edge">
<title>Node29&#45;&gt;Node23</title>
<g id="a_edge45_Node000029_Node000023"><a xlink:title=" ">
<path fill="none" stroke="#63b8ff" d="M1697.92,-313.19C1636.58,-302.16 1549.89,-286.4 1474,-272 1464.79,-270.25 1455.11,-268.38 1445.55,-266.52"/>
<polygon fill="#63b8ff" stroke="#63b8ff" points="1697.46,-316.67 1707.92,-314.99 1698.69,-309.78 1697.46,-316.67"/>
</a>
</g>
</g>
<!-- Node29&#45;&gt;Node27 -->
<g id="edge46_Node000029_Node000027" class="edge">
<title>Node29&#45;&gt;Node27</title>
<g id="a_edge46_Node000029_Node000027"><a xlink:title=" ">
<path fill="none" stroke="#63b8ff" d="M1778,-303.04C1778,-290.95 1778,-276.79 1778,-266.54"/>
<polygon fill="#63b8ff" stroke="#63b8ff" points="1774.5,-303.39 1778,-313.39 1781.5,-303.39 1774.5,-303.39"/>
</a>
</g>
</g>
<!-- Node30 -->
<g id="Node000030" class="node">
<title>Node30</title>
<g id="a_Node000030"><a xlink:href="PCCEdge_8cpp.html" target="_top" xlink:title="Implémentation de l&#39;arête orientée du graphe PCC.">
<polygon fill="white" stroke="#666666" points="2033,-266.5 1883,-266.5 1883,-236.5 2033,-236.5 2033,-266.5"/>
<text text-anchor="start" x="1891" y="-254.5" font-family="Helvetica,sans-Serif" font-size="10.00">SimulateurFerroviaire</text>
<text text-anchor="middle" x="1958" y="-243.5" font-family="Helvetica,sans-Serif" font-size="10.00">/Modules/PCC/PCCEdge.cpp</text>
</a>
</g>
</g>
<!-- Node29&#45;&gt;Node30 -->
<g id="edge43_Node000029_Node000030" class="edge">
<title>Node29&#45;&gt;Node30</title>
<g id="a_edge43_Node000029_Node000030"><a xlink:title=" ">
<path fill="none" stroke="#63b8ff" d="M1821.3,-309.46C1852.92,-296.28 1895.18,-278.68 1924.3,-266.54"/>
<polygon fill="#63b8ff" stroke="#63b8ff" points="1819.74,-306.32 1811.86,-313.39 1822.43,-312.78 1819.74,-306.32"/>
</a>
</g>
</g>
<!-- Node31 -->
<g id="Node000031" class="node">
<title>Node31</title>
<g id="a_Node000031"><a xlink:href="PCCNode_8cpp.html" target="_top" xlink:title="Implémentation du nœud abstrait du graphe PCC.">
<polygon fill="white" stroke="#666666" points="2203,-266.5 2051,-266.5 2051,-236.5 2203,-236.5 2203,-266.5"/>
<text text-anchor="start" x="2059" y="-254.5" font-family="Helvetica,sans-Serif" font-size="10.00">SimulateurFerroviaire</text>
<text text-anchor="middle" x="2127" y="-243.5" font-family="Helvetica,sans-Serif" font-size="10.00">/Modules/PCC/PCCNode.cpp</text>
</a>
</g>
</g>
<!-- Node29&#45;&gt;Node31 -->
<g id="edge44_Node000029_Node000031" class="edge">
<title>Node29&#45;&gt;Node31</title>
<g id="a_edge44_Node000029_Node000031"><a xlink:title=" ">
<path fill="none" stroke="#63b8ff" d="M1856.38,-311.41C1908.94,-300.53 1979.69,-285.7 2042,-272 2049.84,-270.28 2058.07,-268.43 2066.21,-266.59"/>
<polygon fill="#63b8ff" stroke="#63b8ff" points="1855.53,-308.02 1846.45,-313.47 1856.95,-314.87 1855.53,-308.02"/>
</a>
</g>
</g>
</g>
</svg>
