<?xml version="1.0" encoding="UTF-8" standalone="no"?>
<!DOCTYPE svg PUBLIC "-//W3C//DTD SVG 1.1//EN"
 "http://www.w3.org/Graphics/SVG/1.1/DTD/svg11.dtd">
<!-- Generated by graphviz version 2.43.0 (0)
 -->
<!-- Title: SimulateurFerroviaire/Modules/Coordinates/LatLon.h Pages: 1 -->
<svg width="1925pt" height="357pt"
 viewBox="0.00 0.00 1925.16 357.00" xmlns="http://www.w3.org/2000/svg" xmlns:xlink="http://www.w3.org/1999/xlink">
<g id="graph0" class="graph" transform="scale(1 1) rotate(0) translate(4 353)">
<title>SimulateurFerroviaire/Modules/Coordinates/LatLon.h</title>
<!-- Node1 -->
<g id="Node000001" class="node">
<title>Node1</title>
<g id="a_Node000001"><a xlink:title="Représentation d&#39;une coordonnée géographique WGS&#45;84 (latitude, longitude).">
<polygon fill="#999999" stroke="#666666" points="894.13,-349 772.13,-349 772.13,-308 894.13,-308 894.13,-349"/>
<text text-anchor="start" x="780.13" y="-337" font-family="Helvetica,sans-Serif" font-size="10.00">SimulateurFerroviaire</text>
<text text-anchor="start" x="780.13" y="-326" font-family="Helvetica,sans-Serif" font-size="10.00">/Modules/Coordinates</text>
<text text-anchor="middle" x="833.13" y="-315" font-family="Helvetica,sans-Serif" font-size="10.00">/LatLon.h</text>
</a>
</g>
</g>
<!-- Node2 -->
<g id="Node000002" class="node">
<title>Node2</title>
<g id="a_Node000002"><a xlink:href="GraphBuilder_8h.html" target="_top" xlink:title="Phases 1 et 2 du pipeline — chargement GeoJSON et construction du graphe métrique.">
<polygon fill="white" stroke="#666666" points="756.13,-266.5 568.13,-266.5 568.13,-236.5 756.13,-236.5 756.13,-266.5"/>
<text text-anchor="start" x="576.13" y="-254.5" font-family="Helvetica,sans-Serif" font-size="10.00">SimulateurFerroviaire</text>
<text text-anchor="middle" x="662.13" y="-243.5" font-family="Helvetica,sans-Serif" font-size="10.00">/Modules/GeoParser/GraphBuilder.h</text>
</a>
</g>
</g>
<!-- Node1&#45;&gt;Node2 -->
<g id="edge1_Node000001_Node000002" class="edge">
<title>Node1&#45;&gt;Node2</title>
<g id="a_edge1_Node000001_Node000002"><a xlink:title=" ">
<path fill="none" stroke="#63b8ff" d="M779.39,-303.93C751.43,-291.66 718.18,-277.08 694.24,-266.58"/>
<polygon fill="#63b8ff" stroke="#63b8ff" points="778.09,-307.18 788.65,-307.99 780.9,-300.77 778.09,-307.18"/>
</a>
</g>
</g>
<!-- Node9 -->
<g id="Node000009" class="node">
<title>Node9</title>
<g id="a_Node000009"><a xlink:href="GeometryUtils_8h.html" target="_top" xlink:title="Utilitaires géométriques métriques pour le pipeline ferroviaire.">
<polygon fill="white" stroke="#666666" points="371.63,-272 232.63,-272 232.63,-231 371.63,-231 371.63,-272"/>
<text text-anchor="start" x="240.63" y="-260" font-family="Helvetica,sans-Serif" font-size="10.00">SimulateurFerroviaire</text>
<text text-anchor="start" x="240.63" y="-249" font-family="Helvetica,sans-Serif" font-size="10.00">/Modules/GeoParser/Utils</text>
<text text-anchor="middle" x="302.13" y="-238" font-family="Helvetica,sans-Serif" font-size="10.00">/GeometryUtils.h</text>
</a>
</g>
</g>
<!-- Node1&#45;&gt;Node9 -->
<g id="edge10_Node000001_Node000009" class="edge">
<title>Node1&#45;&gt;Node9</title>
<g id="a_edge10_Node000001_Node000009"><a xlink:title=" ">
<path fill="none" stroke="#63b8ff" d="M762.06,-317.46C660.02,-303.05 473.2,-276.66 371.9,-262.35"/>
<polygon fill="#63b8ff" stroke="#63b8ff" points="761.57,-320.93 771.96,-318.86 762.55,-314 761.57,-320.93"/>
</a>
</g>
</g>
<!-- Node12 -->
<g id="Node000012" class="node">
<title>Node12</title>
<g id="a_Node000012"><a xlink:href="StraightBlock_8h.html" target="_top" xlink:title="Modèle de domaine d&#39;un bloc de voie droite (Straight).">
<polygon fill="white" stroke="#666666" points="1066.63,-272 881.63,-272 881.63,-231 1066.63,-231 1066.63,-272"/>
<text text-anchor="start" x="889.63" y="-260" font-family="Helvetica,sans-Serif" font-size="10.00">SimulateurFerroviaire</text>
<text text-anchor="start" x="889.63" y="-249" font-family="Helvetica,sans-Serif" font-size="10.00">/Modules/InteractiveElements</text>
<text text-anchor="middle" x="974.13" y="-238" font-family="Helvetica,sans-Serif" font-size="10.00">/ShuntingElements/StraightBlock.h</text>
</a>
</g>
</g>
<!-- Node1&#45;&gt;Node12 -->
<g id="edge16_Node000001_Node000012" class="edge">
<title>Node1&#45;&gt;Node12</title>
<g id="a_edge16_Node000001_Node000012"><a xlink:title=" ">
<path fill="none" stroke="#63b8ff" d="M878.83,-303.19C897.7,-293.15 919.3,-281.67 937.15,-272.17"/>
<polygon fill="#63b8ff" stroke="#63b8ff" points="877,-300.2 869.81,-307.99 880.29,-306.38 877,-300.2"/>
</a>
</g>
</g>
<!-- Node23 -->
<g id="Node000023" class="node">
<title>Node23</title>
<g id="a_Node000023"><a xlink:href="SwitchBlock_8h.html" target="_top" xlink:title="Modèle de domaine d&#39;un aiguillage ferroviaire à 3 branches.">
<polygon fill="white" stroke="#666666" points="1385.63,-272 1206.63,-272 1206.63,-231 1385.63,-231 1385.63,-272"/>
<text text-anchor="start" x="1214.63" y="-260" font-family="Helvetica,sans-Serif" font-size="10.00">SimulateurFerroviaire</text>
<text text-anchor="start" x="1214.63" y="-249" font-family="Helvetica,sans-Serif" font-size="10.00">/Modules/InteractiveElements</text>
<text text-anchor="middle" x="1296.13" y="-238" font-family="Helvetica,sans-Serif" font-size="10.00">/ShuntingElements/SwitchBlock.h</text>
</a>
</g>
</g>
<!-- Node1&#45;&gt;Node23 -->
<g id="edge35_Node000001_Node000023" class="edge">
<title>Node1&#45;&gt;Node23</title>
<g id="a_edge35_Node000001_Node000023"><a xlink:title=" ">
<path fill="none" stroke="#63b8ff" d="M904.26,-315.98C985.39,-302.84 1118.18,-281.33 1206.37,-267.04"/>
<polygon fill="#63b8ff" stroke="#63b8ff" points="903.45,-312.56 894.14,-317.62 904.57,-319.47 903.45,-312.56"/>
</a>
</g>
</g>
<!-- Node3 -->
<g id="Node000003" class="node">
<title>Node3</title>
<g id="a_Node000003"><a xlink:href="GeoParser_8cpp.html" target="_top" xlink:title="Implémentation du pipeline GeoParser.">
<polygon fill="white" stroke="#666666" points="1076.63,-35.5 891.63,-35.5 891.63,-5.5 1076.63,-5.5 1076.63,-35.5"/>
<text text-anchor="start" x="899.63" y="-23.5" font-family="Helvetica,sans-Serif" font-size="10.00">SimulateurFerroviaire</text>
<text text-anchor="middle" x="984.13" y="-12.5" font-family="Helvetica,sans-Serif" font-size="10.00">/Modules/GeoParser/GeoParser.cpp</text>
</a>
</g>
</g>
<!-- Node2&#45;&gt;Node3 -->
<g id="edge2_Node000002_Node000003" class="edge">
<title>Node2&#45;&gt;Node3</title>
<g id="a_edge2_Node000002_Node000003"><a xlink:title=" ">
<path fill="none" stroke="#63b8ff" d="M644.14,-228.08C630.58,-208.28 616.05,-178.8 627.13,-154 648.07,-107.16 667.3,-100.06 713.13,-77 768.59,-49.1 837.12,-35.23 891.4,-28.33"/>
<polygon fill="#63b8ff" stroke="#63b8ff" points="641.32,-230.14 650.02,-236.18 646.98,-226.03 641.32,-230.14"/>
</a>
</g>
</g>
<!-- Node4 -->
<g id="Node000004" class="node">
<title>Node4</title>
<g id="a_Node000004"><a xlink:href="GraphBuilder_8cpp.html" target="_top" xlink:title="Implémentation des phases 1 et 2 — chargement GeoJSON et construction du graphe.">
<polygon fill="white" stroke="#666666" points="580.13,-189.5 380.13,-189.5 380.13,-159.5 580.13,-159.5 580.13,-189.5"/>
<text text-anchor="start" x="388.13" y="-177.5" font-family="Helvetica,sans-Serif" font-size="10.00">SimulateurFerroviaire</text>
<text text-anchor="middle" x="480.13" y="-166.5" font-family="Helvetica,sans-Serif" font-size="10.00">/Modules/GeoParser/GraphBuilder.cpp</text>
</a>
</g>
</g>
<!-- Node2&#45;&gt;Node4 -->
<g id="edge3_Node000002_Node000004" class="edge">
<title>Node2&#45;&gt;Node4</title>
<g id="a_edge3_Node000002_Node000004"><a xlink:title=" ">
<path fill="none" stroke="#63b8ff" d="M618.35,-232.46C586.38,-219.28 543.66,-201.68 514.21,-189.54"/>
<polygon fill="#63b8ff" stroke="#63b8ff" points="617.32,-235.82 627.9,-236.39 619.99,-229.35 617.32,-235.82"/>
</a>
</g>
</g>
<!-- Node5 -->
<g id="Node000005" class="node">
<title>Node5</title>
<g id="a_Node000005"><a xlink:href="TopologyExtractor_8h.html" target="_top" xlink:title="Phases 3, 4, 5a et 5b — extraction de la topologie ferroviaire depuis le graphe.">
<polygon fill="white" stroke="#666666" points="796.13,-195 636.13,-195 636.13,-154 796.13,-154 796.13,-195"/>
<text text-anchor="start" x="644.13" y="-183" font-family="Helvetica,sans-Serif" font-size="10.00">SimulateurFerroviaire</text>
<text text-anchor="start" x="644.13" y="-172" font-family="Helvetica,sans-Serif" font-size="10.00">/Modules/GeoParser/Topology</text>
<text text-anchor="middle" x="716.13" y="-161" font-family="Helvetica,sans-Serif" font-size="10.00">Extractor.h</text>
</a>
</g>
</g>
<!-- Node2&#45;&gt;Node5 -->
<g id="edge4_Node000002_Node000005" class="edge">
<title>Node2&#45;&gt;Node5</title>
<g id="a_edge4_Node000002_Node000005"><a xlink:title=" ">
<path fill="none" stroke="#63b8ff" d="M678.24,-228.14C685.77,-217.67 694.67,-205.31 701.95,-195.2"/>
<polygon fill="#63b8ff" stroke="#63b8ff" points="675.29,-226.23 672.29,-236.39 680.98,-230.32 675.29,-226.23"/>
</a>
</g>
</g>
<!-- Node5&#45;&gt;Node3 -->
<g id="edge5_Node000005_Node000003" class="edge">
<title>Node5&#45;&gt;Node3</title>
<g id="a_edge5_Node000005_Node000003"><a xlink:title=" ">
<path fill="none" stroke="#63b8ff" d="M714.01,-143.46C714.21,-122.15 718.2,-94.36 735.13,-77 756.9,-54.69 830,-40.13 891.41,-31.55"/>
<polygon fill="#63b8ff" stroke="#63b8ff" points="710.51,-143.69 714.19,-153.63 717.51,-143.57 710.51,-143.69"/>
</a>
</g>
</g>
<!-- Node6 -->
<g id="Node000006" class="node">
<title>Node6</title>
<g id="a_Node000006"><a xlink:href="SwitchOrientator_8h.html" target="_top" xlink:title="Phases 6, 6b, 6c et 6d — orientation géométrique des aiguillages.">
<polygon fill="white" stroke="#666666" points="950.13,-112.5 744.13,-112.5 744.13,-82.5 950.13,-82.5 950.13,-112.5"/>
<text text-anchor="start" x="752.13" y="-100.5" font-family="Helvetica,sans-Serif" font-size="10.00">SimulateurFerroviaire</text>
<text text-anchor="middle" x="847.13" y="-89.5" font-family="Helvetica,sans-Serif" font-size="10.00">/Modules/GeoParser/SwitchOrientator.h</text>
</a>
</g>
</g>
<!-- Node5&#45;&gt;Node6 -->
<g id="edge6_Node000005_Node000006" class="edge">
<title>Node5&#45;&gt;Node6</title>
<g id="a_edge6_Node000005_Node000006"><a xlink:title=" ">
<path fill="none" stroke="#63b8ff" d="M758.96,-148.98C779.95,-136.97 804.48,-122.92 822.33,-112.7"/>
<polygon fill="#63b8ff" stroke="#63b8ff" points="757.15,-145.98 750.21,-153.99 760.63,-152.06 757.15,-145.98"/>
</a>
</g>
</g>
<!-- Node8 -->
<g id="Node000008" class="node">
<title>Node8</title>
<g id="a_Node000008"><a xlink:href="TopologyExtractor_8cpp.html" target="_top" xlink:title="Implémentation des phases 3, 4, 5a et 5b du pipeline GeoParser.">
<polygon fill="white" stroke="#666666" points="506.13,-118 346.13,-118 346.13,-77 506.13,-77 506.13,-118"/>
<text text-anchor="start" x="354.13" y="-106" font-family="Helvetica,sans-Serif" font-size="10.00">SimulateurFerroviaire</text>
<text text-anchor="start" x="354.13" y="-95" font-family="Helvetica,sans-Serif" font-size="10.00">/Modules/GeoParser/Topology</text>
<text text-anchor="middle" x="426.13" y="-84" font-family="Helvetica,sans-Serif" font-size="10.00">Extractor.cpp</text>
</a>
</g>
</g>
<!-- Node5&#45;&gt;Node8 -->
<g id="edge9_Node000005_Node000008" class="edge">
<title>Node5&#45;&gt;Node8</title>
<g id="a_edge9_Node000005_Node000008"><a xlink:title=" ">
<path fill="none" stroke="#63b8ff" d="M631,-151.48C590.04,-140.89 541.34,-128.29 501.7,-118.04"/>
<polygon fill="#63b8ff" stroke="#63b8ff" points="630.14,-154.88 640.7,-153.99 631.89,-148.1 630.14,-154.88"/>
</a>
</g>
</g>
<!-- Node6&#45;&gt;Node3 -->
<g id="edge7_Node000006_Node000003" class="edge">
<title>Node6&#45;&gt;Node3</title>
<g id="a_edge7_Node000006_Node000003"><a xlink:title=" ">
<path fill="none" stroke="#63b8ff" d="M881.98,-77.43C905.81,-64.38 936.89,-47.36 958.48,-35.54"/>
<polygon fill="#63b8ff" stroke="#63b8ff" points="879.99,-74.52 872.9,-82.39 883.36,-80.66 879.99,-74.52"/>
</a>
</g>
</g>
<!-- Node7 -->
<g id="Node000007" class="node">
<title>Node7</title>
<g id="a_Node000007"><a xlink:href="SwitchOrientator_8cpp.html" target="_top" xlink:title="Implémentation des phases 6, 6b, 6c et 6d — orientation des aiguillages.">
<polygon fill="white" stroke="#666666" points="490.13,-35.5 272.13,-35.5 272.13,-5.5 490.13,-5.5 490.13,-35.5"/>
<text text-anchor="start" x="280.13" y="-23.5" font-family="Helvetica,sans-Serif" font-size="10.00">SimulateurFerroviaire</text>
<text text-anchor="middle" x="381.13" y="-12.5" font-family="Helvetica,sans-Serif" font-size="10.00">/Modules/GeoParser/SwitchOrientator.cpp</text>
</a>
</g>
</g>
<!-- Node6&#45;&gt;Node7 -->
<g id="edge8_Node000006_Node000007" class="edge">
<title>Node6&#45;&gt;Node7</title>
<g id="a_edge8_Node000006_Node000007"><a xlink:title=" ">
<path fill="none" stroke="#63b8ff" d="M750.07,-80.88C666.95,-67.5 548.32,-48.41 468.21,-35.51"/>
<polygon fill="#63b8ff" stroke="#63b8ff" points="749.6,-84.35 760.03,-82.48 750.71,-77.44 749.6,-84.35"/>
</a>
</g>
</g>
<!-- Node9&#45;&gt;Node4 -->
<g id="edge12_Node000009_Node000004" class="edge">
<title>Node9&#45;&gt;Node4</title>
<g id="a_edge12_Node000009_Node000004"><a xlink:title=" ">
<path fill="none" stroke="#63b8ff" d="M357.7,-227.09C386.88,-214.79 421.69,-200.13 446.71,-189.58"/>
<polygon fill="#63b8ff" stroke="#63b8ff" points="356.29,-223.88 348.44,-230.99 359.01,-230.33 356.29,-223.88"/>
</a>
</g>
</g>
<!-- Node9&#45;&gt;Node7 -->
<g id="edge13_Node000009_Node000007" class="edge">
<title>Node9&#45;&gt;Node7</title>
<g id="a_edge13_Node000009_Node000007"><a xlink:title=" ">
<path fill="none" stroke="#63b8ff" d="M222.06,-250.65C118.27,-247.83 -43.36,-231.39 11.13,-154 69.66,-70.87 185.4,-39.63 271.93,-28.03"/>
<polygon fill="#63b8ff" stroke="#63b8ff" points="222.15,-254.15 232.23,-250.89 222.31,-247.16 222.15,-254.15"/>
</a>
</g>
</g>
<!-- Node9&#45;&gt;Node8 -->
<g id="edge14_Node000009_Node000008" class="edge">
<title>Node9&#45;&gt;Node8</title>
<g id="a_edge14_Node000009_Node000008"><a xlink:title=" ">
<path fill="none" stroke="#63b8ff" d="M320.45,-222.43C333.75,-202.69 352.59,-175.98 371.13,-154 381.72,-141.45 394.59,-128.37 405.21,-118.06"/>
<polygon fill="#63b8ff" stroke="#63b8ff" points="317.4,-220.71 314.76,-230.97 323.22,-224.59 317.4,-220.71"/>
</a>
</g>
</g>
<!-- Node10 -->
<g id="Node000010" class="node">
<title>Node10</title>
<g id="a_Node000010"><a xlink:href="TopologyGraph_8cpp.html" target="_top" xlink:title="Implémentation du graphe planaire de topologie ferroviaire.">
<polygon fill="white" stroke="#666666" points="324.13,-195 178.13,-195 178.13,-154 324.13,-154 324.13,-195"/>
<text text-anchor="start" x="186.13" y="-183" font-family="Helvetica,sans-Serif" font-size="10.00">SimulateurFerroviaire</text>
<text text-anchor="start" x="186.13" y="-172" font-family="Helvetica,sans-Serif" font-size="10.00">/Modules/GeoParser/Graph</text>
<text text-anchor="middle" x="251.13" y="-161" font-family="Helvetica,sans-Serif" font-size="10.00">/TopologyGraph.cpp</text>
</a>
</g>
</g>
<!-- Node9&#45;&gt;Node10 -->
<g id="edge11_Node000009_Node000010" class="edge">
<title>Node9&#45;&gt;Node10</title>
<g id="a_edge11_Node000009_Node000010"><a xlink:title=" ">
<path fill="none" stroke="#63b8ff" d="M283.02,-222.39C276.84,-213.3 270.11,-203.41 264.45,-195.07"/>
<polygon fill="#63b8ff" stroke="#63b8ff" points="280.22,-224.49 288.74,-230.79 286.01,-220.56 280.22,-224.49"/>
</a>
</g>
</g>
<!-- Node11 -->
<g id="Node000011" class="node">
<title>Node11</title>
<g id="a_Node000011"><a xlink:href="GeometryUtils_8cpp.html" target="_top" xlink:title="Implémentation des utilitaires géométriques — projection UTM et géométrie pure.">
<polygon fill="white" stroke="#666666" points="159.63,-195 20.63,-195 20.63,-154 159.63,-154 159.63,-195"/>
<text text-anchor="start" x="28.63" y="-183" font-family="Helvetica,sans-Serif" font-size="10.00">SimulateurFerroviaire</text>
<text text-anchor="start" x="28.63" y="-172" font-family="Helvetica,sans-Serif" font-size="10.00">/Modules/GeoParser/Utils</text>
<text text-anchor="middle" x="90.13" y="-161" font-family="Helvetica,sans-Serif" font-size="10.00">/GeometryUtils.cpp</text>
</a>
</g>
</g>
<!-- Node9&#45;&gt;Node11 -->
<g id="edge15_Node000009_Node000011" class="edge">
<title>Node9&#45;&gt;Node11</title>
<g id="a_edge15_Node000009_Node000011"><a xlink:title=" ">
<path fill="none" stroke="#63b8ff" d="M237.23,-227.54C207.85,-217.15 173.49,-204.99 145.37,-195.04"/>
<polygon fill="#63b8ff" stroke="#63b8ff" points="236.39,-230.95 246.99,-230.99 238.73,-224.36 236.39,-230.95"/>
</a>
</g>
</g>
<!-- Node12&#45;&gt;Node5 -->
<g id="edge33_Node000012_Node000005" class="edge">
<title>Node12&#45;&gt;Node5</title>
<g id="a_edge33_Node000012_Node000005"><a xlink:title=" ">
<path fill="none" stroke="#63b8ff" d="M897.01,-228.08C860.85,-217.57 818.18,-205.16 783.36,-195.04"/>
<polygon fill="#63b8ff" stroke="#63b8ff" points="896.44,-231.56 907.02,-230.99 898.4,-224.84 896.44,-231.56"/>
</a>
</g>
</g>
<!-- Node12&#45;&gt;Node6 -->
<g id="edge32_Node000012_Node000006" class="edge">
<title>Node12&#45;&gt;Node6</title>
<g id="a_edge32_Node000012_Node000006"><a xlink:title=" ">
<path fill="none" stroke="#63b8ff" d="M879.26,-226.42C864.98,-218.68 852.06,-208.47 843.13,-195 826.56,-169.98 835.12,-132.77 841.77,-112.65"/>
<polygon fill="#63b8ff" stroke="#63b8ff" points="877.8,-229.6 888.31,-230.92 880.92,-223.33 877.8,-229.6"/>
</a>
</g>
</g>
<!-- Node13 -->
<g id="Node000013" class="node">
<title>Node13</title>
<g id="a_Node000013"><a xlink:href="TopologyData_8h.html" target="_top" xlink:title="Conteneur central des données topologiques ferroviaires.">
<polygon fill="white" stroke="#666666" points="1663.63,-195 1538.63,-195 1538.63,-154 1663.63,-154 1663.63,-195"/>
<text text-anchor="start" x="1546.63" y="-183" font-family="Helvetica,sans-Serif" font-size="10.00">SimulateurFerroviaire</text>
<text text-anchor="start" x="1546.63" y="-172" font-family="Helvetica,sans-Serif" font-size="10.00">/Engine/Core/Topology</text>
<text text-anchor="middle" x="1601.13" y="-161" font-family="Helvetica,sans-Serif" font-size="10.00">/TopologyData.h</text>
</a>
</g>
</g>
<!-- Node12&#45;&gt;Node13 -->
<g id="edge17_Node000012_Node000013" class="edge">
<title>Node12&#45;&gt;Node13</title>
<g id="a_edge17_Node000012_Node000013"><a xlink:title=" ">
<path fill="none" stroke="#63b8ff" d="M1077.31,-240.92C1224.39,-227.13 1481.39,-202.53 1524.13,-195 1528.75,-194.19 1533.5,-193.25 1538.27,-192.23"/>
<polygon fill="#63b8ff" stroke="#63b8ff" points="1076.54,-237.47 1066.91,-241.89 1077.19,-244.44 1076.54,-237.47"/>
</a>
</g>
</g>
<!-- Node17 -->
<g id="Node000017" class="node">
<title>Node17</title>
<g id="a_Node000017"><a xlink:href="TopologyRenderer_8h.html" target="_top" xlink:title="Exporteur de topologie ferroviaire au format GeoJSON.">
<polygon fill="white" stroke="#666666" points="1566.63,-118 1441.63,-118 1441.63,-77 1566.63,-77 1566.63,-118"/>
<text text-anchor="start" x="1449.63" y="-106" font-family="Helvetica,sans-Serif" font-size="10.00">SimulateurFerroviaire</text>
<text text-anchor="start" x="1449.63" y="-95" font-family="Helvetica,sans-Serif" font-size="10.00">/Engine/Core/Topology</text>
<text text-anchor="middle" x="1504.13" y="-84" font-family="Helvetica,sans-Serif" font-size="10.00">/TopologyRenderer.h</text>
</a>
</g>
</g>
<!-- Node12&#45;&gt;Node17 -->
<g id="edge22_Node000012_Node000017" class="edge">
<title>Node12&#45;&gt;Node17</title>
<g id="a_edge22_Node000012_Node000017"><a xlink:title=" ">
<path fill="none" stroke="#63b8ff" d="M1076.75,-241.08C1225.38,-227.21 1483.77,-202.16 1491.13,-195 1511.36,-175.31 1510.73,-140.24 1507.85,-118.24"/>
<polygon fill="#63b8ff" stroke="#63b8ff" points="1076.31,-237.6 1066.68,-242.02 1076.96,-244.57 1076.31,-237.6"/>
</a>
</g>
</g>
<!-- Node18 -->
<g id="Node000018" class="node">
<title>Node18</title>
<g id="a_Node000018"><a xlink:href="DoubleSwitchDetector_8h.html" target="_top" xlink:title="Phases 7 et 8 — détection des doubles aiguilles et validation CDC.">
<polygon fill="white" stroke="#666666" points="1289.63,-195 1106.63,-195 1106.63,-154 1289.63,-154 1289.63,-195"/>
<text text-anchor="start" x="1114.63" y="-183" font-family="Helvetica,sans-Serif" font-size="10.00">SimulateurFerroviaire</text>
<text text-anchor="start" x="1114.63" y="-172" font-family="Helvetica,sans-Serif" font-size="10.00">/Modules/GeoParser/DoubleSwitch</text>
<text text-anchor="middle" x="1198.13" y="-161" font-family="Helvetica,sans-Serif" font-size="10.00">Detector.h</text>
</a>
</g>
</g>
<!-- Node12&#45;&gt;Node18 -->
<g id="edge26_Node000012_Node000018" class="edge">
<title>Node12&#45;&gt;Node18</title>
<g id="a_edge26_Node000012_Node000018"><a xlink:title=" ">
<path fill="none" stroke="#63b8ff" d="M1041.9,-227.81C1073.12,-217.36 1109.8,-205.08 1139.77,-195.04"/>
<polygon fill="#63b8ff" stroke="#63b8ff" points="1040.77,-224.5 1032.4,-230.99 1043,-231.13 1040.77,-224.5"/>
</a>
</g>
</g>
<!-- Node20 -->
<g id="Node000020" class="node">
<title>Node20</title>
<g id="a_Node000020"><a xlink:href="GeoParser_8h.html" target="_top" xlink:title="Orchestrateur principal du pipeline GeoJSON ferroviaire.">
<polygon fill="white" stroke="#666666" points="1482.13,-189.5 1308.13,-189.5 1308.13,-159.5 1482.13,-159.5 1482.13,-189.5"/>
<text text-anchor="start" x="1316.13" y="-177.5" font-family="Helvetica,sans-Serif" font-size="10.00">SimulateurFerroviaire</text>
<text text-anchor="middle" x="1395.13" y="-166.5" font-family="Helvetica,sans-Serif" font-size="10.00">/Modules/GeoParser/GeoParser.h</text>
</a>
</g>
</g>
<!-- Node12&#45;&gt;Node20 -->
<g id="edge29_Node000012_Node000020" class="edge">
<title>Node12&#45;&gt;Node20</title>
<g id="a_edge29_Node000012_Node000020"><a xlink:title=" ">
<path fill="none" stroke="#63b8ff" d="M1076.85,-233.68C1140.62,-223.05 1224.24,-208.75 1298.13,-195 1307.34,-193.29 1317.02,-191.42 1326.56,-189.54"/>
<polygon fill="#63b8ff" stroke="#63b8ff" points="1076.07,-230.26 1066.78,-235.36 1077.22,-237.17 1076.07,-230.26"/>
</a>
</g>
</g>
<!-- Node22 -->
<g id="Node000022" class="node">
<title>Node22</title>
<g id="a_Node000022"><a xlink:href="StraightBlock_8cpp.html" target="_top" xlink:title="Implémentation du bloc de voie droite StraightBlock.">
<polygon fill="white" stroke="#666666" points="1049.63,-195 852.63,-195 852.63,-154 1049.63,-154 1049.63,-195"/>
<text text-anchor="start" x="860.63" y="-183" font-family="Helvetica,sans-Serif" font-size="10.00">SimulateurFerroviaire</text>
<text text-anchor="start" x="860.63" y="-172" font-family="Helvetica,sans-Serif" font-size="10.00">/Modules/InteractiveElements</text>
<text text-anchor="middle" x="951.13" y="-161" font-family="Helvetica,sans-Serif" font-size="10.00">/ShuntingElements/StraightBlock.cpp</text>
</a>
</g>
</g>
<!-- Node12&#45;&gt;Node22 -->
<g id="edge34_Node000012_Node000022" class="edge">
<title>Node12&#45;&gt;Node22</title>
<g id="a_edge34_Node000012_Node000022"><a xlink:title=" ">
<path fill="none" stroke="#63b8ff" d="M965.08,-220.98C962.41,-212.28 959.56,-202.98 957.14,-195.07"/>
<polygon fill="#63b8ff" stroke="#63b8ff" points="961.81,-222.26 968.09,-230.79 968.51,-220.21 961.81,-222.26"/>
</a>
</g>
</g>
<!-- Node14 -->
<g id="Node000014" class="node">
<title>Node14</title>
<g id="a_Node000014"><a xlink:href="TopologyRepository_8h.html" target="_top" xlink:title="Singleton de stockage des données topologiques ferroviaires.">
<polygon fill="white" stroke="#666666" points="1709.63,-118 1584.63,-118 1584.63,-77 1709.63,-77 1709.63,-118"/>
<text text-anchor="start" x="1592.63" y="-106" font-family="Helvetica,sans-Serif" font-size="10.00">SimulateurFerroviaire</text>
<text text-anchor="start" x="1592.63" y="-95" font-family="Helvetica,sans-Serif" font-size="10.00">/Engine/Core/Topology</text>
<text text-anchor="middle" x="1647.13" y="-84" font-family="Helvetica,sans-Serif" font-size="10.00">/TopologyRepository.h</text>
</a>
</g>
</g>
<!-- Node13&#45;&gt;Node14 -->
<g id="edge18_Node000013_Node000014" class="edge">
<title>Node13&#45;&gt;Node14</title>
<g id="a_edge18_Node000013_Node000014"><a xlink:title=" ">
<path fill="none" stroke="#63b8ff" d="M1618.55,-145.11C1624.08,-136.09 1630.07,-126.33 1635.13,-118.07"/>
<polygon fill="#63b8ff" stroke="#63b8ff" points="1615.47,-143.44 1613.22,-153.79 1621.43,-147.1 1615.47,-143.44"/>
</a>
</g>
</g>
<!-- Node14&#45;&gt;Node3 -->
<g id="edge21_Node000014_Node000003" class="edge">
<title>Node14&#45;&gt;Node3</title>
<g id="a_edge21_Node000014_Node000003"><a xlink:title=" ">
<path fill="none" stroke="#63b8ff" d="M1574.46,-77.05C1393.14,-44.9 1191.47,-31.1 1076.68,-25.29"/>
<polygon fill="#63b8ff" stroke="#63b8ff" points="1573.99,-80.52 1584.45,-78.85 1575.23,-73.63 1573.99,-80.52"/>
</a>
</g>
</g>
<!-- Node15 -->
<g id="Node000015" class="node">
<title>Node15</title>
<g id="a_Node000015"><a xlink:href="TopologyRenderer_8cpp.html" target="_top" xlink:title="Implémentation de l&#39;exporteur GeoJSON.">
<polygon fill="white" stroke="#666666" points="1719.63,-41 1592.63,-41 1592.63,0 1719.63,0 1719.63,-41"/>
<text text-anchor="start" x="1600.63" y="-29" font-family="Helvetica,sans-Serif" font-size="10.00">SimulateurFerroviaire</text>
<text text-anchor="start" x="1600.63" y="-18" font-family="Helvetica,sans-Serif" font-size="10.00">/Engine/Core/Topology</text>
<text text-anchor="middle" x="1656.13" y="-7" font-family="Helvetica,sans-Serif" font-size="10.00">/TopologyRenderer.cpp</text>
</a>
</g>
</g>
<!-- Node14&#45;&gt;Node15 -->
<g id="edge19_Node000014_Node000015" class="edge">
<title>Node14&#45;&gt;Node15</title>
<g id="a_edge19_Node000014_Node000015"><a xlink:title=" ">
<path fill="none" stroke="#63b8ff" d="M1650.71,-66.69C1651.75,-58.08 1652.85,-48.9 1653.79,-41.07"/>
<polygon fill="#63b8ff" stroke="#63b8ff" points="1647.22,-66.45 1649.5,-76.79 1654.17,-67.28 1647.22,-66.45"/>
</a>
</g>
</g>
<!-- Node16 -->
<g id="Node000016" class="node">
<title>Node16</title>
<g id="a_Node000016"><a xlink:href="MainWindow_8cpp.html" target="_top" xlink:title="Implémentation de la fenêtre principale.">
<polygon fill="white" stroke="#666666" points="1574.63,-35.5 1413.63,-35.5 1413.63,-5.5 1574.63,-5.5 1574.63,-35.5"/>
<text text-anchor="start" x="1421.63" y="-23.5" font-family="Helvetica,sans-Serif" font-size="10.00">SimulateurFerroviaire</text>
<text text-anchor="middle" x="1494.13" y="-12.5" font-family="Helvetica,sans-Serif" font-size="10.00">/Engine/HMI/MainWindow.cpp</text>
</a>
</g>
</g>
<!-- Node14&#45;&gt;Node16 -->
<g id="edge20_Node000014_Node000016" class="edge">
<title>Node14&#45;&gt;Node16</title>
<g id="a_edge20_Node000014_Node000016"><a xlink:title=" ">
<path fill="none" stroke="#63b8ff" d="M1598.1,-72.46C1573.37,-60.34 1544.23,-46.06 1523.1,-35.7"/>
<polygon fill="#63b8ff" stroke="#63b8ff" points="1596.82,-75.73 1607.34,-76.99 1599.9,-69.45 1596.82,-75.73"/>
</a>
</g>
</g>
<!-- Node17&#45;&gt;Node3 -->
<g id="edge25_Node000017_Node000003" class="edge">
<title>Node17&#45;&gt;Node3</title>
<g id="a_edge25_Node000017_Node000003"><a xlink:title=" ">
<path fill="none" stroke="#63b8ff" d="M1431.05,-77.76C1429.74,-77.5 1428.43,-77.24 1427.13,-77 1306.98,-54.35 1166.69,-38.54 1076.71,-29.74"/>
<polygon fill="#63b8ff" stroke="#63b8ff" points="1430.74,-81.27 1441.24,-79.9 1432.18,-74.42 1430.74,-81.27"/>
</a>
</g>
</g>
<!-- Node17&#45;&gt;Node15 -->
<g id="edge23_Node000017_Node000015" class="edge">
<title>Node17&#45;&gt;Node15</title>
<g id="a_edge23_Node000017_Node000015"><a xlink:title=" ">
<path fill="none" stroke="#63b8ff" d="M1552.88,-72.45C1573.44,-62.3 1597.07,-50.64 1616.53,-41.04"/>
<polygon fill="#63b8ff" stroke="#63b8ff" points="1551.09,-69.43 1543.67,-76.99 1554.19,-75.7 1551.09,-69.43"/>
</a>
</g>
</g>
<!-- Node17&#45;&gt;Node16 -->
<g id="edge24_Node000017_Node000016" class="edge">
<title>Node17&#45;&gt;Node16</title>
<g id="a_edge24_Node000017_Node000016"><a xlink:title=" ">
<path fill="none" stroke="#63b8ff" d="M1500.15,-66.61C1498.74,-56.01 1497.21,-44.57 1496.05,-35.86"/>
<polygon fill="#63b8ff" stroke="#63b8ff" points="1496.72,-67.34 1501.51,-76.79 1503.66,-66.42 1496.72,-67.34"/>
</a>
</g>
</g>
<!-- Node18&#45;&gt;Node3 -->
<g id="edge28_Node000018_Node000003" class="edge">
<title>Node18&#45;&gt;Node3</title>
<g id="a_edge28_Node000018_Node000003"><a xlink:title=" ">
<path fill="none" stroke="#63b8ff" d="M1096.61,-154.69C1056.45,-145.25 1016.65,-132.68 1003.13,-118 982.21,-95.26 981.37,-56.44 982.68,-35.64"/>
<polygon fill="#63b8ff" stroke="#63b8ff" points="1096,-158.14 1106.53,-156.96 1097.56,-151.32 1096,-158.14"/>
</a>
</g>
</g>
<!-- Node19 -->
<g id="Node000019" class="node">
<title>Node19</title>
<g id="a_Node000019"><a xlink:href="DoubleSwitchDetector_8cpp.html" target="_top" xlink:title="Implémentation phases 7 et 8 — doubles aiguilles et validation CDC.">
<polygon fill="white" stroke="#666666" points="1195.63,-118 1012.63,-118 1012.63,-77 1195.63,-77 1195.63,-118"/>
<text text-anchor="start" x="1020.63" y="-106" font-family="Helvetica,sans-Serif" font-size="10.00">SimulateurFerroviaire</text>
<text text-anchor="start" x="1020.63" y="-95" font-family="Helvetica,sans-Serif" font-size="10.00">/Modules/GeoParser/DoubleSwitch</text>
<text text-anchor="middle" x="1104.13" y="-84" font-family="Helvetica,sans-Serif" font-size="10.00">Detector.cpp</text>
</a>
</g>
</g>
<!-- Node18&#45;&gt;Node19 -->
<g id="edge27_Node000018_Node000019" class="edge">
<title>Node18&#45;&gt;Node19</title>
<g id="a_edge27_Node000018_Node000019"><a xlink:title=" ">
<path fill="none" stroke="#63b8ff" d="M1165.36,-147.35C1153.3,-137.73 1139.87,-127.01 1128.67,-118.07"/>
<polygon fill="#63b8ff" stroke="#63b8ff" points="1163.44,-150.29 1173.44,-153.79 1167.8,-144.82 1163.44,-150.29"/>
</a>
</g>
</g>
<!-- Node20&#45;&gt;Node3 -->
<g id="edge30_Node000020_Node000003" class="edge">
<title>Node20&#45;&gt;Node3</title>
<g id="a_edge30_Node000020_Node000003"><a xlink:title=" ">
<path fill="none" stroke="#63b8ff" d="M1402.47,-149.57C1407.49,-127.89 1410.48,-96.45 1393.13,-77 1352.47,-31.41 1184.55,-21.93 1076.92,-20.68"/>
<polygon fill="#63b8ff" stroke="#63b8ff" points="1399.06,-148.77 1399.92,-159.33 1405.83,-150.54 1399.06,-148.77"/>
</a>
</g>
</g>
<!-- Node21 -->
<g id="Node000021" class="node">
<title>Node21</title>
<g id="a_Node000021"><a xlink:href="GeoParsingTask_8cpp.html" target="_top" xlink:title="Implémentation de la tâche de parsing GeoJSON asynchrone.">
<polygon fill="white" stroke="#666666" points="1384.63,-118 1213.63,-118 1213.63,-77 1384.63,-77 1384.63,-118"/>
<text text-anchor="start" x="1221.63" y="-106" font-family="Helvetica,sans-Serif" font-size="10.00">SimulateurFerroviaire</text>
<text text-anchor="start" x="1221.63" y="-95" font-family="Helvetica,sans-Serif" font-size="10.00">/Modules/GeoParser/GeoParsing</text>
<text text-anchor="middle" x="1299.13" y="-84" font-family="Helvetica,sans-Serif" font-size="10.00">Task.cpp</text>
</a>
</g>
</g>
<!-- Node20&#45;&gt;Node21 -->
<g id="edge31_Node000020_Node000021" class="edge">
<title>Node20&#45;&gt;Node21</title>
<g id="a_edge31_Node000020_Node000021"><a xlink:title=" ">
<path fill="none" stroke="#63b8ff" d="M1368.89,-153C1355.02,-142.16 1338.07,-128.92 1324.36,-118.2"/>
<polygon fill="#63b8ff" stroke="#63b8ff" points="1367.04,-155.99 1377.08,-159.39 1371.35,-150.48 1367.04,-155.99"/>
</a>
</g>
</g>
<!-- Node23&#45;&gt;Node5 -->
<g id="edge41_Node000023_Node000005" class="edge">
<title>Node23&#45;&gt;Node5</title>
<g id="a_edge41_Node000023_Node000005"><a xlink:title=" ">
<path fill="none" stroke="#63b8ff" d="M1196.09,-239.13C1104.22,-228.48 964.37,-211.73 843.13,-195 828,-192.91 811.87,-190.54 796.36,-188.2"/>
<polygon fill="#63b8ff" stroke="#63b8ff" points="1195.88,-242.63 1206.21,-240.3 1196.68,-235.67 1195.88,-242.63"/>
</a>
</g>
</g>
<!-- Node23&#45;&gt;Node6 -->
<g id="edge40_Node000023_Node000006" class="edge">
<title>Node23&#45;&gt;Node6</title>
<g id="a_edge40_Node000023_Node000006"><a xlink:title=" ">
<path fill="none" stroke="#63b8ff" d="M1196.56,-233.82C1163.37,-225.44 1127.21,-213.08 1097.13,-195 1075.58,-182.04 1079.79,-166.8 1058.13,-154 1023.9,-133.76 982.25,-120.79 945.03,-112.53"/>
<polygon fill="#63b8ff" stroke="#63b8ff" points="1195.75,-237.23 1206.3,-236.19 1197.41,-230.43 1195.75,-237.23"/>
</a>
</g>
</g>
<!-- Node23&#45;&gt;Node13 -->
<g id="edge36_Node000023_Node000013" class="edge">
<title>Node23&#45;&gt;Node13</title>
<g id="a_edge36_Node000023_Node000013"><a xlink:title=" ">
<path fill="none" stroke="#63b8ff" d="M1387.05,-228.57C1428.83,-218.45 1479.02,-206.2 1524.13,-195 1528.82,-193.84 1533.66,-192.63 1538.53,-191.41"/>
<polygon fill="#63b8ff" stroke="#63b8ff" points="1386.06,-225.21 1377.17,-230.97 1387.71,-232.01 1386.06,-225.21"/>
</a>
</g>
</g>
<!-- Node23&#45;&gt;Node17 -->
<g id="edge37_Node000023_Node000017" class="edge">
<title>Node23&#45;&gt;Node17</title>
<g id="a_edge37_Node000023_Node000017"><a xlink:title=" ">
<path fill="none" stroke="#63b8ff" d="M1396.03,-248.22C1554.79,-243.54 1850.13,-230.18 1882.13,-195 1957.92,-111.7 1932.62,-186.85 1576.13,-118 1573.08,-117.41 1569.97,-116.76 1566.84,-116.07"/>
<polygon fill="#63b8ff" stroke="#63b8ff" points="1395.67,-244.73 1385.77,-248.51 1395.87,-251.72 1395.67,-244.73"/>
</a>
</g>
</g>
<!-- Node23&#45;&gt;Node18 -->
<g id="edge38_Node000023_Node000018" class="edge">
<title>Node23&#45;&gt;Node18</title>
<g id="a_edge38_Node000023_Node000018"><a xlink:title=" ">
<path fill="none" stroke="#63b8ff" d="M1262.57,-224.82C1249.9,-215.11 1235.69,-204.24 1223.84,-195.17"/>
<polygon fill="#63b8ff" stroke="#63b8ff" points="1260.57,-227.69 1270.64,-230.99 1264.83,-222.13 1260.57,-227.69"/>
</a>
</g>
</g>
<!-- Node23&#45;&gt;Node20 -->
<g id="edge39_Node000023_Node000020" class="edge">
<title>Node23&#45;&gt;Node20</title>
<g id="a_edge39_Node000023_Node000020"><a xlink:title=" ">
<path fill="none" stroke="#63b8ff" d="M1330.21,-224.69C1345.68,-212.97 1363.38,-199.56 1376.39,-189.7"/>
<polygon fill="#63b8ff" stroke="#63b8ff" points="1327.74,-222.16 1321.89,-230.99 1331.97,-227.74 1327.74,-222.16"/>
</a>
</g>
</g>
<!-- Node24 -->
<g id="Node000024" class="node">
<title>Node24</title>
<g id="a_Node000024"><a xlink:href="SwitchBlock_8cpp.html" target="_top" xlink:title="Implémentation du modèle d&#39;aiguillage SwitchBlock.">
<polygon fill="white" stroke="#666666" points="1872.63,-195 1681.63,-195 1681.63,-154 1872.63,-154 1872.63,-195"/>
<text text-anchor="start" x="1689.63" y="-183" font-family="Helvetica,sans-Serif" font-size="10.00">SimulateurFerroviaire</text>
<text text-anchor="start" x="1689.63" y="-172" font-family="Helvetica,sans-Serif" font-size="10.00">/Modules/InteractiveElements</text>
<text text-anchor="middle" x="1777.13" y="-161" font-family="Helvetica,sans-Serif" font-size="10.00">/ShuntingElements/SwitchBlock.cpp</text>
</a>
</g>
</g>
<!-- Node23&#45;&gt;Node24 -->
<g id="edge42_Node000023_Node000024" class="edge">
<title>Node23&#45;&gt;Node24</title>
<g id="a_edge42_Node000023_Node000024"><a xlink:title=" ">
<path fill="none" stroke="#63b8ff" d="M1395.85,-236.91C1471.94,-226.27 1579.31,-210.7 1673.13,-195 1675.85,-194.55 1678.61,-194.08 1681.39,-193.6"/>
<polygon fill="#63b8ff" stroke="#63b8ff" points="1395.21,-233.46 1385.79,-238.31 1396.18,-240.39 1395.21,-233.46"/>
</a>
</g>
</g>
</g>
</svg>
