<?xml version="1.0" encoding="UTF-8" standalone="no"?>
<!DOCTYPE svg PUBLIC "-//W3C//DTD SVG 1.1//EN"
 "http://www.w3.org/Graphics/SVG/1.1/DTD/svg11.dtd">
<!-- Generated by graphviz version 2.43.0 (0)
 -->
<!-- Title: SimulateurFerroviaire/Modules/Models/LatLon.h Pages: 1 -->
<svg width="2040pt" height="346pt"
 viewBox="0.00 0.00 2039.59 346.00" xmlns="http://www.w3.org/2000/svg" xmlns:xlink="http://www.w3.org/1999/xlink">
<g id="graph0" class="graph" transform="scale(1 1) rotate(0) translate(4 342)">
<title>SimulateurFerroviaire/Modules/Models/LatLon.h</title>
<!-- Node1 -->
<g id="Node000001" class="node">
<title>Node1</title>
<g id="a_Node000001"><a xlink:title="Représentation d&#39;une coordonnée géographique WGS&#45;84 (latitude, longitude).">
<polygon fill="#999999" stroke="#666666" points="903.09,-338 760.09,-338 760.09,-308 903.09,-308 903.09,-338"/>
<text text-anchor="start" x="768.09" y="-326" font-family="Helvetica,sans-Serif" font-size="10.00">SimulateurFerroviaire</text>
<text text-anchor="middle" x="831.59" y="-315" font-family="Helvetica,sans-Serif" font-size="10.00">/Modules/Models/LatLon.h</text>
</a>
</g>
</g>
<!-- Node2 -->
<g id="Node000002" class="node">
<title>Node2</title>
<g id="a_Node000002"><a xlink:href="GraphBuilder_8h.html" target="_top" xlink:title="Phases 1 et 2 du pipeline — chargement GeoJSON et construction du graphe métrique.">
<polygon fill="white" stroke="#666666" points="756.59,-266.5 568.59,-266.5 568.59,-236.5 756.59,-236.5 756.59,-266.5"/>
<text text-anchor="start" x="576.59" y="-254.5" font-family="Helvetica,sans-Serif" font-size="10.00">SimulateurFerroviaire</text>
<text text-anchor="middle" x="662.59" y="-243.5" font-family="Helvetica,sans-Serif" font-size="10.00">/Modules/GeoParser/GraphBuilder.h</text>
</a>
</g>
</g>
<!-- Node1&#45;&gt;Node2 -->
<g id="edge1_Node000001_Node000002" class="edge">
<title>Node1&#45;&gt;Node2</title>
<g id="a_edge1_Node000001_Node000002"><a xlink:title=" ">
<path fill="none" stroke="#63b8ff" d="M788.09,-304.11C759.67,-292.42 723.07,-277.37 696.74,-266.54"/>
<polygon fill="#63b8ff" stroke="#63b8ff" points="786.81,-307.37 797.39,-307.94 789.48,-300.9 786.81,-307.37"/>
</a>
</g>
</g>
<!-- Node9 -->
<g id="Node000009" class="node">
<title>Node9</title>
<g id="a_Node000009"><a xlink:href="GeometryUtils_8h.html" target="_top" xlink:title="Utilitaires géométriques métriques pour le pipeline ferroviaire.">
<polygon fill="white" stroke="#666666" points="373.09,-272 234.09,-272 234.09,-231 373.09,-231 373.09,-272"/>
<text text-anchor="start" x="242.09" y="-260" font-family="Helvetica,sans-Serif" font-size="10.00">SimulateurFerroviaire</text>
<text text-anchor="start" x="242.09" y="-249" font-family="Helvetica,sans-Serif" font-size="10.00">/Modules/GeoParser/Utils</text>
<text text-anchor="middle" x="303.59" y="-238" font-family="Helvetica,sans-Serif" font-size="10.00">/GeometryUtils.h</text>
</a>
</g>
</g>
<!-- Node1&#45;&gt;Node9 -->
<g id="edge10_Node000001_Node000009" class="edge">
<title>Node1&#45;&gt;Node9</title>
<g id="a_edge10_Node000001_Node000009"><a xlink:title=" ">
<path fill="none" stroke="#63b8ff" d="M749.76,-311.23C646.37,-297.62 470.26,-274.44 373.09,-261.65"/>
<polygon fill="#63b8ff" stroke="#63b8ff" points="749.46,-314.72 759.84,-312.55 750.38,-307.78 749.46,-314.72"/>
</a>
</g>
</g>
<!-- Node12 -->
<g id="Node000012" class="node">
<title>Node12</title>
<g id="a_Node000012"><a xlink:href="StraightBlock_8h.html" target="_top" xlink:title="Modèle de domaine d&#39;un bloc de voie droite (Straight).">
<polygon fill="white" stroke="#666666" points="1057.59,-266.5 881.59,-266.5 881.59,-236.5 1057.59,-236.5 1057.59,-266.5"/>
<text text-anchor="start" x="889.59" y="-254.5" font-family="Helvetica,sans-Serif" font-size="10.00">SimulateurFerroviaire</text>
<text text-anchor="middle" x="969.59" y="-243.5" font-family="Helvetica,sans-Serif" font-size="10.00">/Modules/Models/StraightBlock.h</text>
</a>
</g>
</g>
<!-- Node1&#45;&gt;Node12 -->
<g id="edge16_Node000001_Node000012" class="edge">
<title>Node1&#45;&gt;Node12</title>
<g id="a_edge16_Node000001_Node000012"><a xlink:title=" ">
<path fill="none" stroke="#63b8ff" d="M868.64,-303.34C891.62,-291.77 920.68,-277.14 941.71,-266.54"/>
<polygon fill="#63b8ff" stroke="#63b8ff" points="866.88,-300.31 859.52,-307.94 870.03,-306.56 866.88,-300.31"/>
</a>
</g>
</g>
<!-- Node23 -->
<g id="Node000023" class="node">
<title>Node23</title>
<g id="a_Node000023"><a xlink:href="SwitchBlock_8h.html" target="_top" xlink:title="Modèle de domaine d&#39;un aiguillage ferroviaire à 3 branches (Switch).">
<polygon fill="white" stroke="#666666" points="1366.59,-266.5 1196.59,-266.5 1196.59,-236.5 1366.59,-236.5 1366.59,-266.5"/>
<text text-anchor="start" x="1204.59" y="-254.5" font-family="Helvetica,sans-Serif" font-size="10.00">SimulateurFerroviaire</text>
<text text-anchor="middle" x="1281.59" y="-243.5" font-family="Helvetica,sans-Serif" font-size="10.00">/Modules/Models/SwitchBlock.h</text>
</a>
</g>
</g>
<!-- Node1&#45;&gt;Node23 -->
<g id="edge34_Node000001_Node000023" class="edge">
<title>Node1&#45;&gt;Node23</title>
<g id="a_edge34_Node000001_Node000023"><a xlink:title=" ">
<path fill="none" stroke="#63b8ff" d="M913.44,-309.36C993.51,-296.99 1114.96,-278.24 1196.22,-265.69"/>
<polygon fill="#63b8ff" stroke="#63b8ff" points="912.74,-305.93 903.4,-310.91 913.81,-312.84 912.74,-305.93"/>
</a>
</g>
</g>
<!-- Node3 -->
<g id="Node000003" class="node">
<title>Node3</title>
<g id="a_Node000003"><a xlink:href="GeoParser_8cpp.html" target="_top" xlink:title="Implémentation du pipeline GeoParser.">
<polygon fill="white" stroke="#666666" points="1162.09,-35.5 977.09,-35.5 977.09,-5.5 1162.09,-5.5 1162.09,-35.5"/>
<text text-anchor="start" x="985.09" y="-23.5" font-family="Helvetica,sans-Serif" font-size="10.00">SimulateurFerroviaire</text>
<text text-anchor="middle" x="1069.59" y="-12.5" font-family="Helvetica,sans-Serif" font-size="10.00">/Modules/GeoParser/GeoParser.cpp</text>
</a>
</g>
</g>
<!-- Node2&#45;&gt;Node3 -->
<g id="edge2_Node000002_Node000003" class="edge">
<title>Node2&#45;&gt;Node3</title>
<g id="a_edge2_Node000002_Node000003"><a xlink:title=" ">
<path fill="none" stroke="#63b8ff" d="M644.39,-228.54C616.87,-192.59 571.78,-120.79 610.59,-77 634.45,-50.08 849.94,-33.65 977,-26.22"/>
<polygon fill="#63b8ff" stroke="#63b8ff" points="641.69,-230.77 650.62,-236.47 647.19,-226.44 641.69,-230.77"/>
</a>
</g>
</g>
<!-- Node4 -->
<g id="Node000004" class="node">
<title>Node4</title>
<g id="a_Node000004"><a xlink:href="GraphBuilder_8cpp.html" target="_top" xlink:title="Implémentation des phases 1 et 2 — chargement GeoJSON et construction du graphe.">
<polygon fill="white" stroke="#666666" points="580.59,-189.5 380.59,-189.5 380.59,-159.5 580.59,-159.5 580.59,-189.5"/>
<text text-anchor="start" x="388.59" y="-177.5" font-family="Helvetica,sans-Serif" font-size="10.00">SimulateurFerroviaire</text>
<text text-anchor="middle" x="480.59" y="-166.5" font-family="Helvetica,sans-Serif" font-size="10.00">/Modules/GeoParser/GraphBuilder.cpp</text>
</a>
</g>
</g>
<!-- Node2&#45;&gt;Node4 -->
<g id="edge3_Node000002_Node000004" class="edge">
<title>Node2&#45;&gt;Node4</title>
<g id="a_edge3_Node000002_Node000004"><a xlink:title=" ">
<path fill="none" stroke="#63b8ff" d="M618.81,-232.46C586.84,-219.28 544.12,-201.68 514.67,-189.54"/>
<polygon fill="#63b8ff" stroke="#63b8ff" points="617.78,-235.82 628.36,-236.39 620.45,-229.35 617.78,-235.82"/>
</a>
</g>
</g>
<!-- Node5 -->
<g id="Node000005" class="node">
<title>Node5</title>
<g id="a_Node000005"><a xlink:href="TopologyExtractor_8h.html" target="_top" xlink:title="Phases 3, 4, 5a et 5b — extraction de la topologie ferroviaire depuis le graphe.">
<polygon fill="white" stroke="#666666" points="796.59,-195 636.59,-195 636.59,-154 796.59,-154 796.59,-195"/>
<text text-anchor="start" x="644.59" y="-183" font-family="Helvetica,sans-Serif" font-size="10.00">SimulateurFerroviaire</text>
<text text-anchor="start" x="644.59" y="-172" font-family="Helvetica,sans-Serif" font-size="10.00">/Modules/GeoParser/Topology</text>
<text text-anchor="middle" x="716.59" y="-161" font-family="Helvetica,sans-Serif" font-size="10.00">Extractor.h</text>
</a>
</g>
</g>
<!-- Node2&#45;&gt;Node5 -->
<g id="edge4_Node000002_Node000005" class="edge">
<title>Node2&#45;&gt;Node5</title>
<g id="a_edge4_Node000002_Node000005"><a xlink:title=" ">
<path fill="none" stroke="#63b8ff" d="M678.7,-228.14C686.23,-217.67 695.13,-205.31 702.41,-195.2"/>
<polygon fill="#63b8ff" stroke="#63b8ff" points="675.75,-226.23 672.75,-236.39 681.43,-230.32 675.75,-226.23"/>
</a>
</g>
</g>
<!-- Node5&#45;&gt;Node3 -->
<g id="edge5_Node000005_Node000003" class="edge">
<title>Node5&#45;&gt;Node3</title>
<g id="a_edge5_Node000005_Node000003"><a xlink:title=" ">
<path fill="none" stroke="#63b8ff" d="M752.15,-147.95C764.08,-138.9 777.23,-128.38 788.59,-118 806.94,-101.25 805.08,-89.43 826.59,-77 872.21,-50.64 929.4,-36.8 976.84,-29.53"/>
<polygon fill="#63b8ff" stroke="#63b8ff" points="750.03,-145.17 744.12,-153.96 754.23,-150.77 750.03,-145.17"/>
</a>
</g>
</g>
<!-- Node6 -->
<g id="Node000006" class="node">
<title>Node6</title>
<g id="a_Node000006"><a xlink:href="SwitchOrientator_8h.html" target="_top" xlink:title="Phases 6, 6b, 6c et 6d — orientation géométrique des aiguillages.">
<polygon fill="white" stroke="#666666" points="1041.59,-112.5 835.59,-112.5 835.59,-82.5 1041.59,-82.5 1041.59,-112.5"/>
<text text-anchor="start" x="843.59" y="-100.5" font-family="Helvetica,sans-Serif" font-size="10.00">SimulateurFerroviaire</text>
<text text-anchor="middle" x="938.59" y="-89.5" font-family="Helvetica,sans-Serif" font-size="10.00">/Modules/GeoParser/SwitchOrientator.h</text>
</a>
</g>
</g>
<!-- Node5&#45;&gt;Node6 -->
<g id="edge6_Node000005_Node000006" class="edge">
<title>Node5&#45;&gt;Node6</title>
<g id="a_edge6_Node000005_Node000006"><a xlink:title=" ">
<path fill="none" stroke="#63b8ff" d="M784.01,-150.73C820.79,-138.3 865.16,-123.31 896.91,-112.58"/>
<polygon fill="#63b8ff" stroke="#63b8ff" points="782.7,-147.47 774.34,-153.99 784.94,-154.11 782.7,-147.47"/>
</a>
</g>
</g>
<!-- Node8 -->
<g id="Node000008" class="node">
<title>Node8</title>
<g id="a_Node000008"><a xlink:href="TopologyExtractor_8cpp.html" target="_top" xlink:title="Implémentation des phases 3, 4, 5a et 5b du pipeline GeoParser.">
<polygon fill="white" stroke="#666666" points="779.59,-118 619.59,-118 619.59,-77 779.59,-77 779.59,-118"/>
<text text-anchor="start" x="627.59" y="-106" font-family="Helvetica,sans-Serif" font-size="10.00">SimulateurFerroviaire</text>
<text text-anchor="start" x="627.59" y="-95" font-family="Helvetica,sans-Serif" font-size="10.00">/Modules/GeoParser/Topology</text>
<text text-anchor="middle" x="699.59" y="-84" font-family="Helvetica,sans-Serif" font-size="10.00">Extractor.cpp</text>
</a>
</g>
</g>
<!-- Node5&#45;&gt;Node8 -->
<g id="edge9_Node000005_Node000008" class="edge">
<title>Node5&#45;&gt;Node8</title>
<g id="a_edge9_Node000005_Node000008"><a xlink:title=" ">
<path fill="none" stroke="#63b8ff" d="M709.9,-143.98C707.93,-135.28 705.82,-125.98 704.03,-118.07"/>
<polygon fill="#63b8ff" stroke="#63b8ff" points="706.5,-144.82 712.13,-153.79 713.33,-143.27 706.5,-144.82"/>
</a>
</g>
</g>
<!-- Node6&#45;&gt;Node3 -->
<g id="edge7_Node000006_Node000003" class="edge">
<title>Node6&#45;&gt;Node3</title>
<g id="a_edge7_Node000006_Node000003"><a xlink:title=" ">
<path fill="none" stroke="#63b8ff" d="M972.21,-77.25C994.97,-64.23 1024.51,-47.31 1045.06,-35.54"/>
<polygon fill="#63b8ff" stroke="#63b8ff" points="970.17,-74.39 963.23,-82.39 973.65,-80.46 970.17,-74.39"/>
</a>
</g>
</g>
<!-- Node7 -->
<g id="Node000007" class="node">
<title>Node7</title>
<g id="a_Node000007"><a xlink:href="SwitchOrientator_8cpp.html" target="_top" xlink:title="Implémentation des phases 6, 6b, 6c et 6d — orientation des aiguillages.">
<polygon fill="white" stroke="#666666" points="530.59,-35.5 312.59,-35.5 312.59,-5.5 530.59,-5.5 530.59,-35.5"/>
<text text-anchor="start" x="320.59" y="-23.5" font-family="Helvetica,sans-Serif" font-size="10.00">SimulateurFerroviaire</text>
<text text-anchor="middle" x="421.59" y="-12.5" font-family="Helvetica,sans-Serif" font-size="10.00">/Modules/GeoParser/SwitchOrientator.cpp</text>
</a>
</g>
</g>
<!-- Node6&#45;&gt;Node7 -->
<g id="edge8_Node000006_Node000007" class="edge">
<title>Node6&#45;&gt;Node7</title>
<g id="a_edge8_Node000006_Node000007"><a xlink:title=" ">
<path fill="none" stroke="#63b8ff" d="M832.03,-81.04C739.76,-67.65 607.43,-48.46 518.2,-35.51"/>
<polygon fill="#63b8ff" stroke="#63b8ff" points="831.56,-84.51 841.96,-82.48 832.56,-77.58 831.56,-84.51"/>
</a>
</g>
</g>
<!-- Node9&#45;&gt;Node4 -->
<g id="edge12_Node000009_Node000004" class="edge">
<title>Node9&#45;&gt;Node4</title>
<g id="a_edge12_Node000009_Node000004"><a xlink:title=" ">
<path fill="none" stroke="#63b8ff" d="M358.84,-227.09C387.87,-214.79 422.47,-200.13 447.36,-189.58"/>
<polygon fill="#63b8ff" stroke="#63b8ff" points="357.48,-223.87 349.64,-230.99 360.21,-230.31 357.48,-223.87"/>
</a>
</g>
</g>
<!-- Node9&#45;&gt;Node7 -->
<g id="edge13_Node000009_Node000007" class="edge">
<title>Node9&#45;&gt;Node7</title>
<g id="a_edge13_Node000009_Node000007"><a xlink:title=" ">
<path fill="none" stroke="#63b8ff" d="M223.77,-250.5C119.26,-247.54 -44.43,-230.98 11.59,-154 50.99,-99.87 235.74,-56.66 343.32,-35.56"/>
<polygon fill="#63b8ff" stroke="#63b8ff" points="223.91,-254 234,-250.75 224.09,-247.01 223.91,-254"/>
</a>
</g>
</g>
<!-- Node9&#45;&gt;Node8 -->
<g id="edge14_Node000009_Node000008" class="edge">
<title>Node9&#45;&gt;Node8</title>
<g id="a_edge14_Node000009_Node000008"><a xlink:title=" ">
<path fill="none" stroke="#63b8ff" d="M320.2,-222.09C335.56,-196.82 358,-162.56 371.59,-154 411.78,-128.68 535.76,-112.98 619.24,-105"/>
<polygon fill="#63b8ff" stroke="#63b8ff" points="317.04,-220.56 314.9,-230.94 323.04,-224.16 317.04,-220.56"/>
</a>
</g>
</g>
<!-- Node10 -->
<g id="Node000010" class="node">
<title>Node10</title>
<g id="a_Node000010"><a xlink:href="TopologyGraph_8cpp.html" target="_top" xlink:title="Implémentation du graphe planaire de topologie ferroviaire.">
<polygon fill="white" stroke="#666666" points="166.59,-195 20.59,-195 20.59,-154 166.59,-154 166.59,-195"/>
<text text-anchor="start" x="28.59" y="-183" font-family="Helvetica,sans-Serif" font-size="10.00">SimulateurFerroviaire</text>
<text text-anchor="start" x="28.59" y="-172" font-family="Helvetica,sans-Serif" font-size="10.00">/Modules/GeoParser/Graph</text>
<text text-anchor="middle" x="93.59" y="-161" font-family="Helvetica,sans-Serif" font-size="10.00">/TopologyGraph.cpp</text>
</a>
</g>
</g>
<!-- Node9&#45;&gt;Node10 -->
<g id="edge11_Node000009_Node000010" class="edge">
<title>Node9&#45;&gt;Node10</title>
<g id="a_edge11_Node000009_Node000010"><a xlink:title=" ">
<path fill="none" stroke="#63b8ff" d="M239.3,-227.54C210.2,-217.15 176.17,-204.99 148.31,-195.04"/>
<polygon fill="#63b8ff" stroke="#63b8ff" points="238.37,-230.92 248.97,-230.99 240.73,-224.33 238.37,-230.92"/>
</a>
</g>
</g>
<!-- Node11 -->
<g id="Node000011" class="node">
<title>Node11</title>
<g id="a_Node000011"><a xlink:href="GeometryUtils_8cpp.html" target="_top" xlink:title="Implémentation des utilitaires géométriques — projection UTM et géométrie pure.">
<polygon fill="white" stroke="#666666" points="324.09,-195 185.09,-195 185.09,-154 324.09,-154 324.09,-195"/>
<text text-anchor="start" x="193.09" y="-183" font-family="Helvetica,sans-Serif" font-size="10.00">SimulateurFerroviaire</text>
<text text-anchor="start" x="193.09" y="-172" font-family="Helvetica,sans-Serif" font-size="10.00">/Modules/GeoParser/Utils</text>
<text text-anchor="middle" x="254.59" y="-161" font-family="Helvetica,sans-Serif" font-size="10.00">/GeometryUtils.cpp</text>
</a>
</g>
</g>
<!-- Node9&#45;&gt;Node11 -->
<g id="edge15_Node000009_Node000011" class="edge">
<title>Node9&#45;&gt;Node11</title>
<g id="a_edge15_Node000009_Node000011"><a xlink:title=" ">
<path fill="none" stroke="#63b8ff" d="M285.23,-222.39C279.29,-213.3 272.83,-203.41 267.38,-195.07"/>
<polygon fill="#63b8ff" stroke="#63b8ff" points="282.32,-224.34 290.72,-230.79 288.18,-220.51 282.32,-224.34"/>
</a>
</g>
</g>
<!-- Node12&#45;&gt;Node5 -->
<g id="edge28_Node000012_Node000005" class="edge">
<title>Node12&#45;&gt;Node5</title>
<g id="a_edge28_Node000012_Node000005"><a xlink:title=" ">
<path fill="none" stroke="#63b8ff" d="M912.3,-233.51C873.8,-222.1 822.95,-207.03 782.74,-195.11"/>
<polygon fill="#63b8ff" stroke="#63b8ff" points="911.72,-236.99 922.3,-236.48 913.71,-230.28 911.72,-236.99"/>
</a>
</g>
</g>
<!-- Node12&#45;&gt;Node6 -->
<g id="edge27_Node000012_Node000006" class="edge">
<title>Node12&#45;&gt;Node6</title>
<g id="a_edge27_Node000012_Node000006"><a xlink:title=" ">
<path fill="none" stroke="#63b8ff" d="M892.36,-232.71C873.24,-224.47 854.98,-212.46 843.59,-195 833.64,-179.74 834.52,-169.8 843.59,-154 854.72,-134.62 875.52,-121.36 894.83,-112.68"/>
<polygon fill="#63b8ff" stroke="#63b8ff" points="891.21,-236.02 901.79,-236.46 893.79,-229.51 891.21,-236.02"/>
</a>
</g>
</g>
<!-- Node13 -->
<g id="Node000013" class="node">
<title>Node13</title>
<g id="a_Node000013"><a xlink:href="GeoJsonExporter_8h.html" target="_top" xlink:title="Exporteur de topologie ferroviaire au format GeoJSON.">
<polygon fill="white" stroke="#666666" points="1635.09,-195 1490.09,-195 1490.09,-154 1635.09,-154 1635.09,-195"/>
<text text-anchor="start" x="1498.09" y="-183" font-family="Helvetica,sans-Serif" font-size="10.00">SimulateurFerroviaire</text>
<text text-anchor="start" x="1498.09" y="-172" font-family="Helvetica,sans-Serif" font-size="10.00">/Modules/GeoJsonExporter</text>
<text text-anchor="middle" x="1562.59" y="-161" font-family="Helvetica,sans-Serif" font-size="10.00">/GeoJsonExporter.h</text>
</a>
</g>
</g>
<!-- Node12&#45;&gt;Node13 -->
<g id="edge17_Node000012_Node000013" class="edge">
<title>Node12&#45;&gt;Node13</title>
<g id="a_edge17_Node000012_Node000013"><a xlink:title=" ">
<path fill="none" stroke="#63b8ff" d="M1067.76,-241.37C1193.54,-229.42 1404.51,-208.4 1481.59,-195 1484.3,-194.53 1487.05,-194.02 1489.83,-193.48"/>
<polygon fill="#63b8ff" stroke="#63b8ff" points="1067.36,-237.9 1057.73,-242.32 1068.02,-244.86 1067.36,-237.9"/>
</a>
</g>
</g>
<!-- Node16 -->
<g id="Node000016" class="node">
<title>Node16</title>
<g id="a_Node000016"><a xlink:href="DoubleSwitchDetector_8h.html" target="_top" xlink:title="Phases 7 et 8 — détection des doubles aiguilles et validation CDC.">
<polygon fill="white" stroke="#666666" points="1472.09,-195 1289.09,-195 1289.09,-154 1472.09,-154 1472.09,-195"/>
<text text-anchor="start" x="1297.09" y="-183" font-family="Helvetica,sans-Serif" font-size="10.00">SimulateurFerroviaire</text>
<text text-anchor="start" x="1297.09" y="-172" font-family="Helvetica,sans-Serif" font-size="10.00">/Modules/GeoParser/DoubleSwitch</text>
<text text-anchor="middle" x="1380.59" y="-161" font-family="Helvetica,sans-Serif" font-size="10.00">Detector.h</text>
</a>
</g>
</g>
<!-- Node12&#45;&gt;Node16 -->
<g id="edge21_Node000012_Node000016" class="edge">
<title>Node12&#45;&gt;Node16</title>
<g id="a_edge21_Node000012_Node000016"><a xlink:title=" ">
<path fill="none" stroke="#63b8ff" d="M1059.74,-234.69C1121.63,-223.76 1205.64,-208.76 1279.59,-195 1282.67,-194.43 1285.79,-193.84 1288.95,-193.25"/>
<polygon fill="#63b8ff" stroke="#63b8ff" points="1058.85,-231.3 1049.61,-236.48 1060.07,-238.19 1058.85,-231.3"/>
</a>
</g>
</g>
<!-- Node18 -->
<g id="Node000018" class="node">
<title>Node18</title>
<g id="a_Node000018"><a xlink:href="GeoParser_8h.html" target="_top" xlink:title="Orchestrateur principal du pipeline GeoJSON ferroviaire.">
<polygon fill="white" stroke="#666666" points="1270.59,-189.5 1096.59,-189.5 1096.59,-159.5 1270.59,-159.5 1270.59,-189.5"/>
<text text-anchor="start" x="1104.59" y="-177.5" font-family="Helvetica,sans-Serif" font-size="10.00">SimulateurFerroviaire</text>
<text text-anchor="middle" x="1183.59" y="-166.5" font-family="Helvetica,sans-Serif" font-size="10.00">/Modules/GeoParser/GeoParser.h</text>
</a>
</g>
</g>
<!-- Node12&#45;&gt;Node18 -->
<g id="edge24_Node000012_Node000018" class="edge">
<title>Node12&#45;&gt;Node18</title>
<g id="a_edge24_Node000012_Node000018"><a xlink:title=" ">
<path fill="none" stroke="#63b8ff" d="M1019.37,-233.06C1057.1,-219.83 1108.28,-201.89 1143.43,-189.58"/>
<polygon fill="#63b8ff" stroke="#63b8ff" points="1017.87,-229.87 1009.59,-236.48 1020.19,-236.48 1017.87,-229.87"/>
</a>
</g>
</g>
<!-- Node20 -->
<g id="Node000020" class="node">
<title>Node20</title>
<g id="a_Node000020"><a xlink:href="StraightBlock_8cpp.html" target="_top" xlink:title="Implémentation du bloc de voie droite StraightBlock.">
<polygon fill="white" stroke="#666666" points="1040.59,-189.5 852.59,-189.5 852.59,-159.5 1040.59,-159.5 1040.59,-189.5"/>
<text text-anchor="start" x="860.59" y="-177.5" font-family="Helvetica,sans-Serif" font-size="10.00">SimulateurFerroviaire</text>
<text text-anchor="middle" x="946.59" y="-166.5" font-family="Helvetica,sans-Serif" font-size="10.00">/Modules/Models/StraightBlock.cpp</text>
</a>
</g>
</g>
<!-- Node12&#45;&gt;Node20 -->
<g id="edge29_Node000012_Node000020" class="edge">
<title>Node12&#45;&gt;Node20</title>
<g id="a_edge29_Node000012_Node000020"><a xlink:title=" ">
<path fill="none" stroke="#63b8ff" d="M962.32,-226.78C958.56,-214.53 954.11,-200 950.9,-189.54"/>
<polygon fill="#63b8ff" stroke="#63b8ff" points="958.99,-227.86 965.27,-236.39 965.68,-225.81 958.99,-227.86"/>
</a>
</g>
</g>
<!-- Node21 -->
<g id="Node000021" class="node">
<title>Node21</title>
<g id="a_Node000021"><a xlink:href="TopologyData_8h.html" target="_top" xlink:title="Conteneur central des données topologiques ferroviaires.">
<polygon fill="white" stroke="#666666" points="1831.59,-189.5 1653.59,-189.5 1653.59,-159.5 1831.59,-159.5 1831.59,-189.5"/>
<text text-anchor="start" x="1661.59" y="-177.5" font-family="Helvetica,sans-Serif" font-size="10.00">SimulateurFerroviaire</text>
<text text-anchor="middle" x="1742.59" y="-166.5" font-family="Helvetica,sans-Serif" font-size="10.00">/Modules/Models/TopologyData.h</text>
</a>
</g>
</g>
<!-- Node12&#45;&gt;Node21 -->
<g id="edge30_Node000012_Node000021" class="edge">
<title>Node12&#45;&gt;Node21</title>
<g id="a_edge30_Node000012_Node000021"><a xlink:title=" ">
<path fill="none" stroke="#63b8ff" d="M1068.02,-241.47C1105.45,-238.1 1148.48,-234.29 1187.59,-231 1390.62,-213.92 1442.78,-222.93 1644.59,-195 1655.33,-193.51 1666.67,-191.59 1677.67,-189.53"/>
<polygon fill="#63b8ff" stroke="#63b8ff" points="1067.26,-238.03 1057.61,-242.41 1067.89,-245 1067.26,-238.03"/>
</a>
</g>
</g>
<!-- Node13&#45;&gt;Node3 -->
<g id="edge20_Node000013_Node000003" class="edge">
<title>Node13&#45;&gt;Node3</title>
<g id="a_edge20_Node000013_Node000003"><a xlink:title=" ">
<path fill="none" stroke="#63b8ff" d="M1550.77,-144.5C1540.07,-122.19 1522.07,-92.62 1496.59,-77 1442.27,-43.68 1270.9,-30.13 1162.49,-24.79"/>
<polygon fill="#63b8ff" stroke="#63b8ff" points="1547.7,-146.21 1555.04,-153.85 1554.07,-143.3 1547.7,-146.21"/>
</a>
</g>
</g>
<!-- Node14 -->
<g id="Node000014" class="node">
<title>Node14</title>
<g id="a_Node000014"><a xlink:href="MainWindow_8cpp.html" target="_top" xlink:title="Implémentation de la fenêtre principale.">
<polygon fill="white" stroke="#666666" points="1726.09,-112.5 1565.09,-112.5 1565.09,-82.5 1726.09,-82.5 1726.09,-112.5"/>
<text text-anchor="start" x="1573.09" y="-100.5" font-family="Helvetica,sans-Serif" font-size="10.00">SimulateurFerroviaire</text>
<text text-anchor="middle" x="1645.59" y="-89.5" font-family="Helvetica,sans-Serif" font-size="10.00">/Engine/HMI/MainWindow.cpp</text>
</a>
</g>
</g>
<!-- Node13&#45;&gt;Node14 -->
<g id="edge18_Node000013_Node000014" class="edge">
<title>Node13&#45;&gt;Node14</title>
<g id="a_edge18_Node000013_Node000014"><a xlink:title=" ">
<path fill="none" stroke="#63b8ff" d="M1592.09,-146.84C1604.87,-135.3 1619.31,-122.25 1629.96,-112.63"/>
<polygon fill="#63b8ff" stroke="#63b8ff" points="1589.47,-144.49 1584.4,-153.79 1594.17,-149.69 1589.47,-144.49"/>
</a>
</g>
</g>
<!-- Node15 -->
<g id="Node000015" class="node">
<title>Node15</title>
<g id="a_Node000015"><a xlink:href="GeoJsonExporter_8cpp.html" target="_top" xlink:title="Implémentation de l&#39;exporteur GeoJSON.">
<polygon fill="white" stroke="#666666" points="1892.09,-41 1747.09,-41 1747.09,0 1892.09,0 1892.09,-41"/>
<text text-anchor="start" x="1755.09" y="-29" font-family="Helvetica,sans-Serif" font-size="10.00">SimulateurFerroviaire</text>
<text text-anchor="start" x="1755.09" y="-18" font-family="Helvetica,sans-Serif" font-size="10.00">/Modules/GeoJsonExporter</text>
<text text-anchor="middle" x="1819.59" y="-7" font-family="Helvetica,sans-Serif" font-size="10.00">/GeoJsonExporter.cpp</text>
</a>
</g>
</g>
<!-- Node13&#45;&gt;Node15 -->
<g id="edge19_Node000013_Node000015" class="edge">
<title>Node13&#45;&gt;Node15</title>
<g id="a_edge19_Node000013_Node000015"><a xlink:title=" ">
<path fill="none" stroke="#63b8ff" d="M1645.27,-151.54C1681.81,-140.92 1720,-128.27 1735.59,-118 1743.85,-112.56 1781.23,-68.03 1803.25,-41.4"/>
<polygon fill="#63b8ff" stroke="#63b8ff" points="1644.18,-148.21 1635.54,-154.34 1646.11,-154.94 1644.18,-148.21"/>
</a>
</g>
</g>
<!-- Node16&#45;&gt;Node3 -->
<g id="edge23_Node000016_Node000003" class="edge">
<title>Node16&#45;&gt;Node3</title>
<g id="a_edge23_Node000016_Node000003"><a xlink:title=" ">
<path fill="none" stroke="#63b8ff" d="M1447.59,-148.8C1460.36,-140.95 1472.07,-130.85 1479.59,-118 1488.8,-102.28 1491.58,-90.72 1479.59,-77 1459.04,-53.47 1277.01,-36.29 1162.52,-27.69"/>
<polygon fill="#63b8ff" stroke="#63b8ff" points="1445.6,-145.91 1438.63,-153.88 1449.05,-152 1445.6,-145.91"/>
</a>
</g>
</g>
<!-- Node17 -->
<g id="Node000017" class="node">
<title>Node17</title>
<g id="a_Node000017"><a xlink:href="DoubleSwitchDetector_8cpp.html" target="_top" xlink:title="Implémentation phases 7 et 8 — doubles aiguilles et validation CDC.">
<polygon fill="white" stroke="#666666" points="1470.09,-118 1287.09,-118 1287.09,-77 1470.09,-77 1470.09,-118"/>
<text text-anchor="start" x="1295.09" y="-106" font-family="Helvetica,sans-Serif" font-size="10.00">SimulateurFerroviaire</text>
<text text-anchor="start" x="1295.09" y="-95" font-family="Helvetica,sans-Serif" font-size="10.00">/Modules/GeoParser/DoubleSwitch</text>
<text text-anchor="middle" x="1378.59" y="-84" font-family="Helvetica,sans-Serif" font-size="10.00">Detector.cpp</text>
</a>
</g>
</g>
<!-- Node16&#45;&gt;Node17 -->
<g id="edge22_Node000016_Node000017" class="edge">
<title>Node16&#45;&gt;Node17</title>
<g id="a_edge22_Node000016_Node000017"><a xlink:title=" ">
<path fill="none" stroke="#63b8ff" d="M1379.8,-143.69C1379.57,-135.08 1379.32,-125.9 1379.12,-118.07"/>
<polygon fill="#63b8ff" stroke="#63b8ff" points="1376.3,-143.89 1380.07,-153.79 1383.3,-143.7 1376.3,-143.89"/>
</a>
</g>
</g>
<!-- Node18&#45;&gt;Node3 -->
<g id="edge25_Node000018_Node000003" class="edge">
<title>Node18&#45;&gt;Node3</title>
<g id="a_edge25_Node000018_Node000003"><a xlink:title=" ">
<path fill="none" stroke="#63b8ff" d="M1134.54,-154.89C1117.58,-146.13 1099.99,-134.02 1088.59,-118 1070.88,-93.09 1068.65,-55.84 1068.91,-35.68"/>
<polygon fill="#63b8ff" stroke="#63b8ff" points="1133.33,-158.19 1143.86,-159.41 1136.39,-151.89 1133.33,-158.19"/>
</a>
</g>
</g>
<!-- Node19 -->
<g id="Node000019" class="node">
<title>Node19</title>
<g id="a_Node000019"><a xlink:href="GeoParsingTask_8cpp.html" target="_top" xlink:title="Implémentation de la tâche de parsing GeoJSON asynchrone.">
<polygon fill="white" stroke="#666666" points="1269.09,-118 1098.09,-118 1098.09,-77 1269.09,-77 1269.09,-118"/>
<text text-anchor="start" x="1106.09" y="-106" font-family="Helvetica,sans-Serif" font-size="10.00">SimulateurFerroviaire</text>
<text text-anchor="start" x="1106.09" y="-95" font-family="Helvetica,sans-Serif" font-size="10.00">/Modules/GeoParser/GeoParsing</text>
<text text-anchor="middle" x="1183.59" y="-84" font-family="Helvetica,sans-Serif" font-size="10.00">Task.cpp</text>
</a>
</g>
</g>
<!-- Node18&#45;&gt;Node19 -->
<g id="edge26_Node000018_Node000019" class="edge">
<title>Node18&#45;&gt;Node19</title>
<g id="a_edge26_Node000018_Node000019"><a xlink:title=" ">
<path fill="none" stroke="#63b8ff" d="M1183.59,-149.23C1183.59,-139.2 1183.59,-127.71 1183.59,-118.2"/>
<polygon fill="#63b8ff" stroke="#63b8ff" points="1180.09,-149.39 1183.59,-159.39 1187.09,-149.39 1180.09,-149.39"/>
</a>
</g>
</g>
<!-- Node22 -->
<g id="Node000022" class="node">
<title>Node22</title>
<g id="a_Node000022"><a xlink:href="TopologyRepository_8h.html" target="_top" xlink:title="Singleton de stockage des données topologiques ferroviaires.">
<polygon fill="white" stroke="#666666" points="1988.59,-112.5 1782.59,-112.5 1782.59,-82.5 1988.59,-82.5 1988.59,-112.5"/>
<text text-anchor="start" x="1790.59" y="-100.5" font-family="Helvetica,sans-Serif" font-size="10.00">SimulateurFerroviaire</text>
<text text-anchor="middle" x="1885.59" y="-89.5" font-family="Helvetica,sans-Serif" font-size="10.00">/Modules/Models/TopologyRepository.h</text>
</a>
</g>
</g>
<!-- Node21&#45;&gt;Node22 -->
<g id="edge31_Node000021_Node000022" class="edge">
<title>Node21&#45;&gt;Node22</title>
<g id="a_edge31_Node000021_Node000022"><a xlink:title=" ">
<path fill="none" stroke="#63b8ff" d="M1778.63,-154.6C1803.56,-141.53 1836.18,-124.41 1858.82,-112.54"/>
<polygon fill="#63b8ff" stroke="#63b8ff" points="1776.72,-151.65 1769.49,-159.39 1779.97,-157.85 1776.72,-151.65"/>
</a>
</g>
</g>
<!-- Node22&#45;&gt;Node3 -->
<g id="edge33_Node000022_Node000003" class="edge">
<title>Node22&#45;&gt;Node3</title>
<g id="a_edge33_Node000022_Node000003"><a xlink:title=" ">
<path fill="none" stroke="#63b8ff" d="M1772.76,-81.26C1760.23,-79.74 1747.65,-78.29 1735.59,-77 1531.24,-55.21 1290.84,-37.01 1162.11,-27.85"/>
<polygon fill="#63b8ff" stroke="#63b8ff" points="1772.44,-84.75 1782.79,-82.5 1773.29,-77.8 1772.44,-84.75"/>
</a>
</g>
</g>
<!-- Node22&#45;&gt;Node15 -->
<g id="edge32_Node000022_Node000015" class="edge">
<title>Node22&#45;&gt;Node15</title>
<g id="a_edge32_Node000022_Node000015"><a xlink:title=" ">
<path fill="none" stroke="#63b8ff" d="M1866.47,-74.76C1857.14,-64.17 1846.01,-51.52 1836.93,-41.2"/>
<polygon fill="#63b8ff" stroke="#63b8ff" points="1863.95,-77.2 1873.18,-82.39 1869.2,-72.57 1863.95,-77.2"/>
</a>
</g>
</g>
<!-- Node23&#45;&gt;Node5 -->
<g id="edge39_Node000023_Node000005" class="edge">
<title>Node23&#45;&gt;Node5</title>
<g id="a_edge39_Node000023_Node000005"><a xlink:title=" ">
<path fill="none" stroke="#63b8ff" d="M1186.26,-239.15C1097.47,-228.41 961.45,-211.51 843.59,-195 828.46,-192.88 812.33,-190.5 796.83,-188.15"/>
<polygon fill="#63b8ff" stroke="#63b8ff" points="1185.96,-242.64 1196.31,-240.37 1186.8,-235.69 1185.96,-242.64"/>
</a>
</g>
</g>
<!-- Node23&#45;&gt;Node6 -->
<g id="edge38_Node000023_Node000006" class="edge">
<title>Node23&#45;&gt;Node6</title>
<g id="a_edge38_Node000023_Node000006"><a xlink:title=" ">
<path fill="none" stroke="#63b8ff" d="M1186.21,-234.14C1153.35,-225.74 1117.35,-213.28 1087.59,-195 1066.43,-181.99 1069.47,-168.91 1049.59,-154 1026.58,-136.74 997.39,-122.39 974.71,-112.61"/>
<polygon fill="#63b8ff" stroke="#63b8ff" points="1185.76,-237.63 1196.3,-236.62 1187.43,-230.84 1185.76,-237.63"/>
</a>
</g>
</g>
<!-- Node23&#45;&gt;Node13 -->
<g id="edge35_Node000023_Node000013" class="edge">
<title>Node23&#45;&gt;Node13</title>
<g id="a_edge35_Node000023_Node000013"><a xlink:title=" ">
<path fill="none" stroke="#63b8ff" d="M1343.93,-233.86C1387.09,-222.34 1444.68,-206.97 1489.93,-194.9"/>
<polygon fill="#63b8ff" stroke="#63b8ff" points="1342.88,-230.52 1334.12,-236.48 1344.68,-237.28 1342.88,-230.52"/>
</a>
</g>
</g>
<!-- Node23&#45;&gt;Node16 -->
<g id="edge36_Node000023_Node000016" class="edge">
<title>Node23&#45;&gt;Node16</title>
<g id="a_edge36_Node000023_Node000016"><a xlink:title=" ">
<path fill="none" stroke="#63b8ff" d="M1308.25,-230.31C1322.63,-219.41 1340.31,-206.02 1354.59,-195.2"/>
<polygon fill="#63b8ff" stroke="#63b8ff" points="1306.07,-227.56 1300.22,-236.39 1310.3,-233.14 1306.07,-227.56"/>
</a>
</g>
</g>
<!-- Node23&#45;&gt;Node18 -->
<g id="edge37_Node000023_Node000018" class="edge">
<title>Node23&#45;&gt;Node18</title>
<g id="a_edge37_Node000023_Node000018"><a xlink:title=" ">
<path fill="none" stroke="#63b8ff" d="M1254.84,-230.03C1238.05,-217.18 1216.84,-200.94 1201.94,-189.54"/>
<polygon fill="#63b8ff" stroke="#63b8ff" points="1253.09,-233.09 1263.16,-236.39 1257.35,-227.54 1253.09,-233.09"/>
</a>
</g>
</g>
<!-- Node23&#45;&gt;Node21 -->
<g id="edge41_Node000023_Node000021" class="edge">
<title>Node23&#45;&gt;Node21</title>
<g id="a_edge41_Node000023_Node000021"><a xlink:title=" ">
<path fill="none" stroke="#63b8ff" d="M1376.99,-237.1C1450.31,-226.52 1554.04,-210.92 1644.59,-195 1654.16,-193.32 1664.23,-191.44 1674.13,-189.53"/>
<polygon fill="#63b8ff" stroke="#63b8ff" points="1376.25,-233.67 1366.85,-238.56 1377.25,-240.6 1376.25,-233.67"/>
</a>
</g>
</g>
<!-- Node24 -->
<g id="Node000024" class="node">
<title>Node24</title>
<g id="a_Node000024"><a xlink:href="SwitchBlock_8cpp.html" target="_top" xlink:title="Implémentation du modèle d&#39;aiguillage SwitchBlock.">
<polygon fill="white" stroke="#666666" points="2031.59,-189.5 1849.59,-189.5 1849.59,-159.5 2031.59,-159.5 2031.59,-189.5"/>
<text text-anchor="start" x="1857.59" y="-177.5" font-family="Helvetica,sans-Serif" font-size="10.00">SimulateurFerroviaire</text>
<text text-anchor="middle" x="1940.59" y="-166.5" font-family="Helvetica,sans-Serif" font-size="10.00">/Modules/Models/SwitchBlock.cpp</text>
</a>
</g>
</g>
<!-- Node23&#45;&gt;Node24 -->
<g id="edge40_Node000023_Node000024" class="edge">
<title>Node23&#45;&gt;Node24</title>
<g id="a_edge40_Node000023_Node000024"><a xlink:title=" ">
<path fill="none" stroke="#63b8ff" d="M1376.87,-243.77C1488.39,-235.26 1678.48,-218.8 1840.59,-195 1851.18,-193.45 1862.35,-191.54 1873.23,-189.53"/>
<polygon fill="#63b8ff" stroke="#63b8ff" points="1376.36,-240.3 1366.66,-244.55 1376.89,-247.28 1376.36,-240.3"/>
</a>
</g>
</g>
</g>
</svg>
