<?xml version="1.0" encoding="UTF-8" standalone="no"?>
<!DOCTYPE svg PUBLIC "-//W3C//DTD SVG 1.1//EN"
 "http://www.w3.org/Graphics/SVG/1.1/DTD/svg11.dtd">
<!-- Generated by graphviz version 2.43.0 (0)
 -->
<!-- Title: SimulateurFerroviaire/Modules/GeoParser/Models/LatLon.h Pages: 1 -->
<svg width="1591pt" height="346pt"
 viewBox="0.00 0.00 1590.82 346.00" xmlns="http://www.w3.org/2000/svg" xmlns:xlink="http://www.w3.org/1999/xlink">
<g id="graph0" class="graph" transform="scale(1 1) rotate(0) translate(4 342)">
<title>SimulateurFerroviaire/Modules/GeoParser/Models/LatLon.h</title>
<!-- Node1 -->
<g id="Node000001" class="node">
<title>Node1</title>
<g id="a_Node000001"><a xlink:title="Représentation d&#39;une coordonnée géographique WGS&#45;84 (latitude, longitude).">
<polygon fill="#999999" stroke="#666666" points="870,-338 718,-338 718,-297 870,-297 870,-338"/>
<text text-anchor="start" x="726" y="-326" font-family="Helvetica,sans-Serif" font-size="10.00">SimulateurFerroviaire</text>
<text text-anchor="start" x="726" y="-315" font-family="Helvetica,sans-Serif" font-size="10.00">/Modules/GeoParser/Models</text>
<text text-anchor="middle" x="794" y="-304" font-family="Helvetica,sans-Serif" font-size="10.00">/LatLon.h</text>
</a>
</g>
</g>
<!-- Node2 -->
<g id="Node000002" class="node">
<title>Node2</title>
<g id="a_Node000002"><a xlink:href="GraphBuilder_8h.html" target="_top" xlink:title="Phases 1 et 2 du pipeline — chargement GeoJSON et construction du graphe métrique.">
<polygon fill="white" stroke="#666666" points="1000,-255.5 812,-255.5 812,-225.5 1000,-225.5 1000,-255.5"/>
<text text-anchor="start" x="820" y="-243.5" font-family="Helvetica,sans-Serif" font-size="10.00">SimulateurFerroviaire</text>
<text text-anchor="middle" x="906" y="-232.5" font-family="Helvetica,sans-Serif" font-size="10.00">/Modules/GeoParser/GraphBuilder.h</text>
</a>
</g>
</g>
<!-- Node1&#45;&gt;Node2 -->
<g id="edge1_Node000001_Node000002" class="edge">
<title>Node1&#45;&gt;Node2</title>
<g id="a_edge1_Node000001_Node000002"><a xlink:title=" ">
<path fill="none" stroke="#63b8ff" d="M831.58,-291.34C849.31,-279.47 869.8,-265.74 884.79,-255.7"/>
<polygon fill="#63b8ff" stroke="#63b8ff" points="829.5,-288.52 823.13,-296.99 833.39,-294.33 829.5,-288.52"/>
</a>
</g>
</g>
<!-- Node9 -->
<g id="Node000009" class="node">
<title>Node9</title>
<g id="a_Node000009"><a xlink:href="StraightBlock_8h.html" target="_top" xlink:title="Modèle de domaine d&#39;un bloc de voie droite (Straight).">
<polygon fill="white" stroke="#666666" points="570,-261 418,-261 418,-220 570,-220 570,-261"/>
<text text-anchor="start" x="426" y="-249" font-family="Helvetica,sans-Serif" font-size="10.00">SimulateurFerroviaire</text>
<text text-anchor="start" x="426" y="-238" font-family="Helvetica,sans-Serif" font-size="10.00">/Modules/GeoParser/Models</text>
<text text-anchor="middle" x="494" y="-227" font-family="Helvetica,sans-Serif" font-size="10.00">/StraightBlock.h</text>
</a>
</g>
</g>
<!-- Node1&#45;&gt;Node9 -->
<g id="edge10_Node000001_Node000009" class="edge">
<title>Node1&#45;&gt;Node9</title>
<g id="a_edge10_Node000001_Node000009"><a xlink:title=" ">
<path fill="none" stroke="#63b8ff" d="M708.18,-295.05C664.6,-284.15 612.12,-271.03 570.01,-260.5"/>
<polygon fill="#63b8ff" stroke="#63b8ff" points="707.36,-298.45 717.91,-297.48 709.06,-291.66 707.36,-298.45"/>
</a>
</g>
</g>
<!-- Node15 -->
<g id="Node000015" class="node">
<title>Node15</title>
<g id="a_Node000015"><a xlink:href="SwitchBlock_8h.html" target="_top" xlink:title="Modèle de domaine d&#39;un aiguillage ferroviaire à 3 branches (Switch).">
<polygon fill="white" stroke="#666666" points="776,-261 624,-261 624,-220 776,-220 776,-261"/>
<text text-anchor="start" x="632" y="-249" font-family="Helvetica,sans-Serif" font-size="10.00">SimulateurFerroviaire</text>
<text text-anchor="start" x="632" y="-238" font-family="Helvetica,sans-Serif" font-size="10.00">/Modules/GeoParser/Models</text>
<text text-anchor="middle" x="700" y="-227" font-family="Helvetica,sans-Serif" font-size="10.00">/SwitchBlock.h</text>
</a>
</g>
</g>
<!-- Node1&#45;&gt;Node15 -->
<g id="edge20_Node000001_Node000015" class="edge">
<title>Node1&#45;&gt;Node15</title>
<g id="a_edge20_Node000001_Node000015"><a xlink:title=" ">
<path fill="none" stroke="#63b8ff" d="M761.22,-290.35C749.17,-280.73 735.74,-270.01 724.53,-261.07"/>
<polygon fill="#63b8ff" stroke="#63b8ff" points="759.3,-293.29 769.3,-296.79 763.67,-287.82 759.3,-293.29"/>
</a>
</g>
</g>
<!-- Node17 -->
<g id="Node000017" class="node">
<title>Node17</title>
<g id="a_Node000017"><a xlink:href="GeometryUtils_8h.html" target="_top" xlink:title="Utilitaires géométriques métriques pour le pipeline ferroviaire.">
<polygon fill="white" stroke="#666666" points="1466.5,-261 1327.5,-261 1327.5,-220 1466.5,-220 1466.5,-261"/>
<text text-anchor="start" x="1335.5" y="-249" font-family="Helvetica,sans-Serif" font-size="10.00">SimulateurFerroviaire</text>
<text text-anchor="start" x="1335.5" y="-238" font-family="Helvetica,sans-Serif" font-size="10.00">/Modules/GeoParser/Utils</text>
<text text-anchor="middle" x="1397" y="-227" font-family="Helvetica,sans-Serif" font-size="10.00">/GeometryUtils.h</text>
</a>
</g>
</g>
<!-- Node1&#45;&gt;Node17 -->
<g id="edge26_Node000001_Node000017" class="edge">
<title>Node1&#45;&gt;Node17</title>
<g id="a_edge26_Node000001_Node000017"><a xlink:title=" ">
<path fill="none" stroke="#63b8ff" d="M880.34,-305.76C1000.67,-290.79 1216.47,-263.95 1327.23,-250.18"/>
<polygon fill="#63b8ff" stroke="#63b8ff" points="879.56,-302.33 870.06,-307.04 880.42,-309.28 879.56,-302.33"/>
</a>
</g>
</g>
<!-- Node3 -->
<g id="Node000003" class="node">
<title>Node3</title>
<g id="a_Node000003"><a xlink:href="GeoParser_8cpp.html" target="_top" xlink:title="Implémentation du pipeline GeoParser.">
<polygon fill="white" stroke="#666666" points="840.5,-30 655.5,-30 655.5,0 840.5,0 840.5,-30"/>
<text text-anchor="start" x="663.5" y="-18" font-family="Helvetica,sans-Serif" font-size="10.00">SimulateurFerroviaire</text>
<text text-anchor="middle" x="748" y="-7" font-family="Helvetica,sans-Serif" font-size="10.00">/Modules/GeoParser/GeoParser.cpp</text>
</a>
</g>
</g>
<!-- Node2&#45;&gt;Node3 -->
<g id="edge2_Node000002_Node000003" class="edge">
<title>Node2&#45;&gt;Node3</title>
<g id="a_edge2_Node000002_Node000003"><a xlink:title=" ">
<path fill="none" stroke="#63b8ff" d="M944.48,-219.98C957.96,-211 971.57,-198.98 979,-184 987.1,-167.67 986.8,-159.47 979,-143 948.79,-79.2 871.12,-46.17 814.15,-30"/>
<polygon fill="#63b8ff" stroke="#63b8ff" points="942.35,-217.19 935.71,-225.44 946.05,-223.13 942.35,-217.19"/>
</a>
</g>
</g>
<!-- Node4 -->
<g id="Node000004" class="node">
<title>Node4</title>
<g id="a_Node000004"><a xlink:href="GraphBuilder_8cpp.html" target="_top" xlink:title="Implémentation des phases 1 et 2 — chargement GeoJSON et construction du graphe.">
<polygon fill="white" stroke="#666666" points="1226,-178.5 1026,-178.5 1026,-148.5 1226,-148.5 1226,-178.5"/>
<text text-anchor="start" x="1034" y="-166.5" font-family="Helvetica,sans-Serif" font-size="10.00">SimulateurFerroviaire</text>
<text text-anchor="middle" x="1126" y="-155.5" font-family="Helvetica,sans-Serif" font-size="10.00">/Modules/GeoParser/GraphBuilder.cpp</text>
</a>
</g>
</g>
<!-- Node2&#45;&gt;Node4 -->
<g id="edge3_Node000002_Node000004" class="edge">
<title>Node2&#45;&gt;Node4</title>
<g id="a_edge3_Node000002_Node000004"><a xlink:title=" ">
<path fill="none" stroke="#63b8ff" d="M956.67,-222.22C995.51,-208.99 1048.42,-190.95 1084.71,-178.58"/>
<polygon fill="#63b8ff" stroke="#63b8ff" points="955.46,-218.94 947.12,-225.48 957.72,-225.57 955.46,-218.94"/>
</a>
</g>
</g>
<!-- Node5 -->
<g id="Node000005" class="node">
<title>Node5</title>
<g id="a_Node000005"><a xlink:href="TopologyExtractor_8h.html" target="_top" xlink:title="Phases 3, 4, 5a et 5b — extraction de la topologie ferroviaire depuis le graphe.">
<polygon fill="white" stroke="#666666" points="970,-184 810,-184 810,-143 970,-143 970,-184"/>
<text text-anchor="start" x="818" y="-172" font-family="Helvetica,sans-Serif" font-size="10.00">SimulateurFerroviaire</text>
<text text-anchor="start" x="818" y="-161" font-family="Helvetica,sans-Serif" font-size="10.00">/Modules/GeoParser/Topology</text>
<text text-anchor="middle" x="890" y="-150" font-family="Helvetica,sans-Serif" font-size="10.00">Extractor.h</text>
</a>
</g>
</g>
<!-- Node2&#45;&gt;Node5 -->
<g id="edge4_Node000002_Node000005" class="edge">
<title>Node2&#45;&gt;Node5</title>
<g id="a_edge4_Node000002_Node000005"><a xlink:title=" ">
<path fill="none" stroke="#63b8ff" d="M900.89,-215.55C898.73,-205.44 896.25,-193.81 894.2,-184.2"/>
<polygon fill="#63b8ff" stroke="#63b8ff" points="897.48,-216.34 902.99,-225.39 904.33,-214.88 897.48,-216.34"/>
</a>
</g>
</g>
<!-- Node5&#45;&gt;Node3 -->
<g id="edge5_Node000005_Node000003" class="edge">
<title>Node5&#45;&gt;Node3</title>
<g id="a_edge5_Node000005_Node000003"><a xlink:title=" ">
<path fill="none" stroke="#63b8ff" d="M887.23,-132.84C883.87,-111.95 876.44,-84.52 860,-66 845.08,-49.2 823.44,-37.76 803.15,-30.11"/>
<polygon fill="#63b8ff" stroke="#63b8ff" points="883.77,-133.37 888.61,-142.79 890.71,-132.41 883.77,-133.37"/>
</a>
</g>
</g>
<!-- Node6 -->
<g id="Node000006" class="node">
<title>Node6</title>
<g id="a_Node000006"><a xlink:href="SwitchOrientator_8h.html" target="_top" xlink:title="Phases 6, 6b et 6c — orientation géométrique des aiguillages.">
<polygon fill="white" stroke="#666666" points="851,-101.5 645,-101.5 645,-71.5 851,-71.5 851,-101.5"/>
<text text-anchor="start" x="653" y="-89.5" font-family="Helvetica,sans-Serif" font-size="10.00">SimulateurFerroviaire</text>
<text text-anchor="middle" x="748" y="-78.5" font-family="Helvetica,sans-Serif" font-size="10.00">/Modules/GeoParser/SwitchOrientator.h</text>
</a>
</g>
</g>
<!-- Node5&#45;&gt;Node6 -->
<g id="edge6_Node000005_Node000006" class="edge">
<title>Node5&#45;&gt;Node6</title>
<g id="a_edge6_Node000005_Node000006"><a xlink:title=" ">
<path fill="none" stroke="#63b8ff" d="M844.19,-138.3C821.3,-126.22 794.41,-112.01 774.89,-101.7"/>
<polygon fill="#63b8ff" stroke="#63b8ff" points="842.58,-141.41 853.06,-142.99 845.85,-135.23 842.58,-141.41"/>
</a>
</g>
</g>
<!-- Node8 -->
<g id="Node000008" class="node">
<title>Node8</title>
<g id="a_Node000008"><a xlink:href="TopologyExtractor_8cpp.html" target="_top" xlink:title="Implémentation des phases 3, 4, 5a et 5b du pipeline GeoParser.">
<polygon fill="white" stroke="#666666" points="1386,-107 1226,-107 1226,-66 1386,-66 1386,-107"/>
<text text-anchor="start" x="1234" y="-95" font-family="Helvetica,sans-Serif" font-size="10.00">SimulateurFerroviaire</text>
<text text-anchor="start" x="1234" y="-84" font-family="Helvetica,sans-Serif" font-size="10.00">/Modules/GeoParser/Topology</text>
<text text-anchor="middle" x="1306" y="-73" font-family="Helvetica,sans-Serif" font-size="10.00">Extractor.cpp</text>
</a>
</g>
</g>
<!-- Node5&#45;&gt;Node8 -->
<g id="edge9_Node000005_Node000008" class="edge">
<title>Node5&#45;&gt;Node8</title>
<g id="a_edge9_Node000005_Node000008"><a xlink:title=" ">
<path fill="none" stroke="#63b8ff" d="M980.32,-146.22C1053.42,-133.04 1155.41,-114.65 1225.68,-101.98"/>
<polygon fill="#63b8ff" stroke="#63b8ff" points="979.43,-142.82 970.21,-148.04 980.67,-149.71 979.43,-142.82"/>
</a>
</g>
</g>
<!-- Node6&#45;&gt;Node3 -->
<g id="edge7_Node000006_Node000003" class="edge">
<title>Node6&#45;&gt;Node3</title>
<g id="a_edge7_Node000006_Node000003"><a xlink:title=" ">
<path fill="none" stroke="#63b8ff" d="M748,-61.25C748,-50.81 748,-38.99 748,-30.04"/>
<polygon fill="#63b8ff" stroke="#63b8ff" points="744.5,-61.44 748,-71.44 751.5,-61.44 744.5,-61.44"/>
</a>
</g>
</g>
<!-- Node7 -->
<g id="Node000007" class="node">
<title>Node7</title>
<g id="a_Node000007"><a xlink:href="SwitchOrientator_8cpp.html" target="_top" xlink:title="Implémentation des phases 6, 6b et 6c — orientation des aiguillages.">
<polygon fill="white" stroke="#666666" points="1402,-30 1184,-30 1184,0 1402,0 1402,-30"/>
<text text-anchor="start" x="1192" y="-18" font-family="Helvetica,sans-Serif" font-size="10.00">SimulateurFerroviaire</text>
<text text-anchor="middle" x="1293" y="-7" font-family="Helvetica,sans-Serif" font-size="10.00">/Modules/GeoParser/SwitchOrientator.cpp</text>
</a>
</g>
</g>
<!-- Node6&#45;&gt;Node7 -->
<g id="edge8_Node000006_Node000007" class="edge">
<title>Node6&#45;&gt;Node7</title>
<g id="a_edge8_Node000006_Node000007"><a xlink:title=" ">
<path fill="none" stroke="#63b8ff" d="M861.34,-71.05C956.03,-58.97 1090.2,-41.86 1183.73,-29.93"/>
<polygon fill="#63b8ff" stroke="#63b8ff" points="860.63,-67.61 851.15,-72.35 861.51,-74.55 860.63,-67.61"/>
</a>
</g>
</g>
<!-- Node9&#45;&gt;Node5 -->
<g id="edge19_Node000009_Node000005" class="edge">
<title>Node9&#45;&gt;Node5</title>
<g id="a_edge19_Node000009_Node000005"><a xlink:title=" ">
<path fill="none" stroke="#63b8ff" d="M580.23,-224.79C641.85,-214.06 726.67,-198.86 801,-184 803.95,-183.41 806.95,-182.8 809.98,-182.18"/>
<polygon fill="#63b8ff" stroke="#63b8ff" points="579.41,-221.37 570.16,-226.53 580.61,-228.27 579.41,-221.37"/>
</a>
</g>
</g>
<!-- Node9&#45;&gt;Node6 -->
<g id="edge18_Node000009_Node000006" class="edge">
<title>Node9&#45;&gt;Node6</title>
<g id="a_edge18_Node000009_Node000006"><a xlink:title=" ">
<path fill="none" stroke="#63b8ff" d="M524.2,-213.27C549.06,-192.5 585.81,-163.66 621,-143 649.43,-126.31 683.8,-111.59 709.61,-101.51"/>
<polygon fill="#63b8ff" stroke="#63b8ff" points="521.63,-210.86 516.24,-219.98 526.14,-216.21 521.63,-210.86"/>
</a>
</g>
</g>
<!-- Node10 -->
<g id="Node000010" class="node">
<title>Node10</title>
<g id="a_Node000010"><a xlink:href="DoubleSwitchDetector_8h.html" target="_top" xlink:title="Phases 7 et 8 — détection des doubles aiguilles et validation CDC.">
<polygon fill="white" stroke="#666666" points="353.5,-184 170.5,-184 170.5,-143 353.5,-143 353.5,-184"/>
<text text-anchor="start" x="178.5" y="-172" font-family="Helvetica,sans-Serif" font-size="10.00">SimulateurFerroviaire</text>
<text text-anchor="start" x="178.5" y="-161" font-family="Helvetica,sans-Serif" font-size="10.00">/Modules/GeoParser/DoubleSwitch</text>
<text text-anchor="middle" x="262" y="-150" font-family="Helvetica,sans-Serif" font-size="10.00">Detector.h</text>
</a>
</g>
</g>
<!-- Node9&#45;&gt;Node10 -->
<g id="edge11_Node000009_Node000010" class="edge">
<title>Node9&#45;&gt;Node10</title>
<g id="a_edge11_Node000009_Node000010"><a xlink:title=" ">
<path fill="none" stroke="#63b8ff" d="M423.81,-216.81C391.48,-206.36 353.49,-194.08 322.45,-184.04"/>
<polygon fill="#63b8ff" stroke="#63b8ff" points="423.06,-220.24 433.65,-219.99 425.21,-213.58 423.06,-220.24"/>
</a>
</g>
</g>
<!-- Node12 -->
<g id="Node000012" class="node">
<title>Node12</title>
<g id="a_Node000012"><a xlink:href="GeoParser_8h.html" target="_top" xlink:title="Orchestrateur principal du pipeline GeoJSON ferroviaire.">
<polygon fill="white" stroke="#666666" points="546,-178.5 372,-178.5 372,-148.5 546,-148.5 546,-178.5"/>
<text text-anchor="start" x="380" y="-166.5" font-family="Helvetica,sans-Serif" font-size="10.00">SimulateurFerroviaire</text>
<text text-anchor="middle" x="459" y="-155.5" font-family="Helvetica,sans-Serif" font-size="10.00">/Modules/GeoParser/GeoParser.h</text>
</a>
</g>
</g>
<!-- Node9&#45;&gt;Node12 -->
<g id="edge14_Node000009_Node000012" class="edge">
<title>Node9&#45;&gt;Node12</title>
<g id="a_edge14_Node000009_Node000012"><a xlink:title=" ">
<path fill="none" stroke="#63b8ff" d="M480.51,-210.6C475.44,-199.73 469.89,-187.84 465.7,-178.86"/>
<polygon fill="#63b8ff" stroke="#63b8ff" points="477.4,-212.21 484.8,-219.79 483.75,-209.25 477.4,-212.21"/>
</a>
</g>
</g>
<!-- Node14 -->
<g id="Node000014" class="node">
<title>Node14</title>
<g id="a_Node000014"><a xlink:href="StraightBlock_8cpp.html" target="_top" xlink:title="Implémentation du bloc de voie droite StraightBlock.">
<polygon fill="white" stroke="#666666" points="152,-184 0,-184 0,-143 152,-143 152,-184"/>
<text text-anchor="start" x="8" y="-172" font-family="Helvetica,sans-Serif" font-size="10.00">SimulateurFerroviaire</text>
<text text-anchor="start" x="8" y="-161" font-family="Helvetica,sans-Serif" font-size="10.00">/Modules/GeoParser/Models</text>
<text text-anchor="middle" x="76" y="-150" font-family="Helvetica,sans-Serif" font-size="10.00">/StraightBlock.cpp</text>
</a>
</g>
</g>
<!-- Node9&#45;&gt;Node14 -->
<g id="edge17_Node000009_Node000014" class="edge">
<title>Node9&#45;&gt;Node14</title>
<g id="a_edge17_Node000009_Node000014"><a xlink:title=" ">
<path fill="none" stroke="#63b8ff" d="M407.57,-226.56C340.2,-216.12 244.4,-200.5 161,-184 158.18,-183.44 155.31,-182.86 152.41,-182.26"/>
<polygon fill="#63b8ff" stroke="#63b8ff" points="407.3,-230.06 417.72,-228.13 408.37,-223.14 407.3,-230.06"/>
</a>
</g>
</g>
<!-- Node10&#45;&gt;Node3 -->
<g id="edge13_Node000010_Node000003" class="edge">
<title>Node10&#45;&gt;Node3</title>
<g id="a_edge13_Node000010_Node000003"><a xlink:title=" ">
<path fill="none" stroke="#63b8ff" d="M202.12,-137.47C190.08,-129.55 178.98,-119.51 172,-107 163.12,-91.09 159.68,-79.43 172,-66 203.95,-31.16 500.76,-20.52 655.34,-17.33"/>
<polygon fill="#63b8ff" stroke="#63b8ff" points="200.65,-140.67 211.02,-142.86 204.28,-134.68 200.65,-140.67"/>
</a>
</g>
</g>
<!-- Node11 -->
<g id="Node000011" class="node">
<title>Node11</title>
<g id="a_Node000011"><a xlink:href="DoubleSwitchDetector_8cpp.html" target="_top" xlink:title="Implémentation phases 7 et 8 — doubles aiguilles et validation CDC.">
<polygon fill="white" stroke="#666666" points="364.5,-107 181.5,-107 181.5,-66 364.5,-66 364.5,-107"/>
<text text-anchor="start" x="189.5" y="-95" font-family="Helvetica,sans-Serif" font-size="10.00">SimulateurFerroviaire</text>
<text text-anchor="start" x="189.5" y="-84" font-family="Helvetica,sans-Serif" font-size="10.00">/Modules/GeoParser/DoubleSwitch</text>
<text text-anchor="middle" x="273" y="-73" font-family="Helvetica,sans-Serif" font-size="10.00">Detector.cpp</text>
</a>
</g>
</g>
<!-- Node10&#45;&gt;Node11 -->
<g id="edge12_Node000010_Node000011" class="edge">
<title>Node10&#45;&gt;Node11</title>
<g id="a_edge12_Node000010_Node000011"><a xlink:title=" ">
<path fill="none" stroke="#63b8ff" d="M266.37,-132.69C267.64,-124.08 268.98,-114.9 270.13,-107.07"/>
<polygon fill="#63b8ff" stroke="#63b8ff" points="262.88,-132.39 264.89,-142.79 269.8,-133.41 262.88,-132.39"/>
</a>
</g>
</g>
<!-- Node12&#45;&gt;Node3 -->
<g id="edge15_Node000012_Node000003" class="edge">
<title>Node12&#45;&gt;Node3</title>
<g id="a_edge15_Node000012_Node000003"><a xlink:title=" ">
<path fill="none" stroke="#63b8ff" d="M492.2,-143.37C527.46,-123.3 585.03,-91.22 636,-66 661.96,-53.16 691.94,-39.85 714.35,-30.19"/>
<polygon fill="#63b8ff" stroke="#63b8ff" points="490.25,-140.45 483.3,-148.45 493.72,-146.53 490.25,-140.45"/>
</a>
</g>
</g>
<!-- Node13 -->
<g id="Node000013" class="node">
<title>Node13</title>
<g id="a_Node000013"><a xlink:href="GeoParsingTask_8cpp.html" target="_top" xlink:title="Implémentation de la tâche de parsing GeoJSON asynchrone.">
<polygon fill="white" stroke="#666666" points="543.5,-101.5 382.5,-101.5 382.5,-71.5 543.5,-71.5 543.5,-101.5"/>
<text text-anchor="start" x="390.5" y="-89.5" font-family="Helvetica,sans-Serif" font-size="10.00">SimulateurFerroviaire</text>
<text text-anchor="middle" x="463" y="-78.5" font-family="Helvetica,sans-Serif" font-size="10.00">/Modules/GeoParsingTask.cpp</text>
</a>
</g>
</g>
<!-- Node12&#45;&gt;Node13 -->
<g id="edge16_Node000012_Node000013" class="edge">
<title>Node12&#45;&gt;Node13</title>
<g id="a_edge16_Node000012_Node000013"><a xlink:title=" ">
<path fill="none" stroke="#63b8ff" d="M460.3,-138.04C460.95,-125.95 461.7,-111.79 462.25,-101.54"/>
<polygon fill="#63b8ff" stroke="#63b8ff" points="456.79,-138.22 459.75,-148.39 463.78,-138.59 456.79,-138.22"/>
</a>
</g>
</g>
<!-- Node15&#45;&gt;Node5 -->
<g id="edge25_Node000015_Node000005" class="edge">
<title>Node15&#45;&gt;Node5</title>
<g id="a_edge25_Node000015_Node000005"><a xlink:title=" ">
<path fill="none" stroke="#63b8ff" d="M758.86,-216.27C785.03,-205.94 815.51,-193.9 840.49,-184.04"/>
<polygon fill="#63b8ff" stroke="#63b8ff" points="757.44,-213.06 749.42,-219.99 760.01,-219.57 757.44,-213.06"/>
</a>
</g>
</g>
<!-- Node15&#45;&gt;Node6 -->
<g id="edge24_Node000015_Node000006" class="edge">
<title>Node15&#45;&gt;Node6</title>
<g id="a_edge24_Node000015_Node000006"><a xlink:title=" ">
<path fill="none" stroke="#63b8ff" d="M655.84,-213.67C645.85,-205.54 636.55,-195.6 631,-184 623.13,-167.57 621.26,-158.4 631,-143 643.74,-122.86 665.99,-109.88 687.69,-101.59"/>
<polygon fill="#63b8ff" stroke="#63b8ff" points="653.86,-216.56 663.94,-219.8 658.08,-210.98 653.86,-216.56"/>
</a>
</g>
</g>
<!-- Node15&#45;&gt;Node10 -->
<g id="edge21_Node000015_Node000010" class="edge">
<title>Node15&#45;&gt;Node10</title>
<g id="a_edge21_Node000015_Node000010"><a xlink:title=" ">
<path fill="none" stroke="#63b8ff" d="M613.81,-225.58C530.38,-212.06 409.83,-192.38 363,-184 359.92,-183.45 356.8,-182.88 353.64,-182.31"/>
<polygon fill="#63b8ff" stroke="#63b8ff" points="613.37,-229.06 623.8,-227.2 614.49,-222.15 613.37,-229.06"/>
</a>
</g>
</g>
<!-- Node15&#45;&gt;Node12 -->
<g id="edge22_Node000015_Node000012" class="edge">
<title>Node15&#45;&gt;Node12</title>
<g id="a_edge22_Node000015_Node000012"><a xlink:title=" ">
<path fill="none" stroke="#63b8ff" d="M627.58,-216.96C587.51,-204.49 538.94,-189.38 504.25,-178.58"/>
<polygon fill="#63b8ff" stroke="#63b8ff" points="626.72,-220.36 637.31,-219.99 628.8,-213.68 626.72,-220.36"/>
</a>
</g>
</g>
<!-- Node16 -->
<g id="Node000016" class="node">
<title>Node16</title>
<g id="a_Node000016"><a xlink:href="SwitchBlock_8cpp.html" target="_top" xlink:title="Implémentation du modèle d&#39;aiguillage SwitchBlock.">
<polygon fill="white" stroke="#666666" points="792,-184 640,-184 640,-143 792,-143 792,-184"/>
<text text-anchor="start" x="648" y="-172" font-family="Helvetica,sans-Serif" font-size="10.00">SimulateurFerroviaire</text>
<text text-anchor="start" x="648" y="-161" font-family="Helvetica,sans-Serif" font-size="10.00">/Modules/GeoParser/Models</text>
<text text-anchor="middle" x="716" y="-150" font-family="Helvetica,sans-Serif" font-size="10.00">/SwitchBlock.cpp</text>
</a>
</g>
</g>
<!-- Node15&#45;&gt;Node16 -->
<g id="edge23_Node000015_Node000016" class="edge">
<title>Node15&#45;&gt;Node16</title>
<g id="a_edge23_Node000015_Node000016"><a xlink:title=" ">
<path fill="none" stroke="#63b8ff" d="M706.3,-209.98C708.15,-201.28 710.14,-191.98 711.82,-184.07"/>
<polygon fill="#63b8ff" stroke="#63b8ff" points="702.87,-209.28 704.2,-219.79 709.71,-210.74 702.87,-209.28"/>
</a>
</g>
</g>
<!-- Node17&#45;&gt;Node4 -->
<g id="edge28_Node000017_Node000004" class="edge">
<title>Node17&#45;&gt;Node4</title>
<g id="a_edge28_Node000017_Node000004"><a xlink:title=" ">
<path fill="none" stroke="#63b8ff" d="M1317.38,-217.46C1271.91,-204.88 1216.27,-189.48 1176.72,-178.54"/>
<polygon fill="#63b8ff" stroke="#63b8ff" points="1316.64,-220.89 1327.21,-220.19 1318.51,-214.15 1316.64,-220.89"/>
</a>
</g>
</g>
<!-- Node17&#45;&gt;Node7 -->
<g id="edge29_Node000017_Node000007" class="edge">
<title>Node17&#45;&gt;Node7</title>
<g id="a_edge29_Node000017_Node000007"><a xlink:title=" ">
<path fill="none" stroke="#63b8ff" d="M1476.75,-235.31C1512.84,-228.94 1552.38,-214.75 1575,-184 1585.8,-169.32 1584.89,-158.3 1575,-143 1532.74,-77.61 1447.88,-45.55 1382.24,-30.05"/>
<polygon fill="#63b8ff" stroke="#63b8ff" points="1476.02,-231.89 1466.69,-236.91 1477.11,-238.8 1476.02,-231.89"/>
</a>
</g>
</g>
<!-- Node17&#45;&gt;Node8 -->
<g id="edge30_Node000017_Node000008" class="edge">
<title>Node17&#45;&gt;Node8</title>
<g id="a_edge30_Node000017_Node000008"><a xlink:title=" ">
<path fill="none" stroke="#63b8ff" d="M1476.53,-231.39C1506.81,-223.98 1538.47,-210.05 1557,-184 1567.56,-169.15 1568.41,-157.21 1557,-143 1535.76,-116.55 1451.26,-101.95 1386.1,-94.44"/>
<polygon fill="#63b8ff" stroke="#63b8ff" points="1475.75,-227.98 1466.76,-233.58 1477.28,-234.81 1475.75,-227.98"/>
</a>
</g>
</g>
<!-- Node18 -->
<g id="Node000018" class="node">
<title>Node18</title>
<g id="a_Node000018"><a xlink:href="TopologyGraph_8cpp.html" target="_top" xlink:title="Implémentation du graphe planaire de topologie ferroviaire.">
<polygon fill="white" stroke="#666666" points="1390,-184 1244,-184 1244,-143 1390,-143 1390,-184"/>
<text text-anchor="start" x="1252" y="-172" font-family="Helvetica,sans-Serif" font-size="10.00">SimulateurFerroviaire</text>
<text text-anchor="start" x="1252" y="-161" font-family="Helvetica,sans-Serif" font-size="10.00">/Modules/GeoParser/Graph</text>
<text text-anchor="middle" x="1317" y="-150" font-family="Helvetica,sans-Serif" font-size="10.00">/TopologyGraph.cpp</text>
</a>
</g>
</g>
<!-- Node17&#45;&gt;Node18 -->
<g id="edge27_Node000017_Node000018" class="edge">
<title>Node17&#45;&gt;Node18</title>
<g id="a_edge27_Node000017_Node000018"><a xlink:title=" ">
<path fill="none" stroke="#63b8ff" d="M1368.51,-212.79C1358.41,-203.32 1347.23,-192.84 1337.88,-184.07"/>
<polygon fill="#63b8ff" stroke="#63b8ff" points="1366.29,-215.51 1375.98,-219.79 1371.08,-210.4 1366.29,-215.51"/>
</a>
</g>
</g>
<!-- Node19 -->
<g id="Node000019" class="node">
<title>Node19</title>
<g id="a_Node000019"><a xlink:href="GeometryUtils_8cpp.html" target="_top" xlink:title="Implémentation des utilitaires géométriques — projection UTM et géométrie pure.">
<polygon fill="white" stroke="#666666" points="1547.5,-184 1408.5,-184 1408.5,-143 1547.5,-143 1547.5,-184"/>
<text text-anchor="start" x="1416.5" y="-172" font-family="Helvetica,sans-Serif" font-size="10.00">SimulateurFerroviaire</text>
<text text-anchor="start" x="1416.5" y="-161" font-family="Helvetica,sans-Serif" font-size="10.00">/Modules/GeoParser/Utils</text>
<text text-anchor="middle" x="1478" y="-150" font-family="Helvetica,sans-Serif" font-size="10.00">/GeometryUtils.cpp</text>
</a>
</g>
</g>
<!-- Node17&#45;&gt;Node19 -->
<g id="edge31_Node000017_Node000019" class="edge">
<title>Node17&#45;&gt;Node19</title>
<g id="a_edge31_Node000017_Node000019"><a xlink:title=" ">
<path fill="none" stroke="#63b8ff" d="M1425.85,-212.79C1436.08,-203.32 1447.39,-192.84 1456.86,-184.07"/>
<polygon fill="#63b8ff" stroke="#63b8ff" points="1423.24,-210.43 1418.28,-219.79 1428,-215.57 1423.24,-210.43"/>
</a>
</g>
</g>
</g>
</svg>
