<?xml version="1.0" encoding="UTF-8" standalone="no"?>
<!DOCTYPE svg PUBLIC "-//W3C//DTD SVG 1.1//EN"
 "http://www.w3.org/Graphics/SVG/1.1/DTD/svg11.dtd">
<!-- Generated by graphviz version 2.43.0 (0)
 -->
<!-- Title: SimulateurFerroviaire/Modules/Coordinates/LatLon.h Pages: 1 -->
<svg width="1949pt" height="434pt"
 viewBox="0.00 0.00 1949.13 434.00" xmlns="http://www.w3.org/2000/svg" xmlns:xlink="http://www.w3.org/1999/xlink">
<g id="graph0" class="graph" transform="scale(1 1) rotate(0) translate(4 430)">
<title>SimulateurFerroviaire/Modules/Coordinates/LatLon.h</title>
<!-- Node1 -->
<g id="Node000001" class="node">
<title>Node1</title>
<g id="a_Node000001"><a xlink:title="Représentation d&#39;une coordonnée géographique WGS&#45;84 (latitude, longitude).">
<polygon fill="#999999" stroke="#666666" points="894.13,-426 772.13,-426 772.13,-385 894.13,-385 894.13,-426"/>
<text text-anchor="start" x="780.13" y="-414" font-family="Helvetica,sans-Serif" font-size="10.00">SimulateurFerroviaire</text>
<text text-anchor="start" x="780.13" y="-403" font-family="Helvetica,sans-Serif" font-size="10.00">/Modules/Coordinates</text>
<text text-anchor="middle" x="833.13" y="-392" font-family="Helvetica,sans-Serif" font-size="10.00">/LatLon.h</text>
</a>
</g>
</g>
<!-- Node2 -->
<g id="Node000002" class="node">
<title>Node2</title>
<g id="a_Node000002"><a xlink:href="GraphBuilder_8h.html" target="_top" xlink:title="Phases 1 et 2 du pipeline — chargement GeoJSON et construction du graphe métrique.">
<polygon fill="white" stroke="#666666" points="756.13,-343.5 568.13,-343.5 568.13,-313.5 756.13,-313.5 756.13,-343.5"/>
<text text-anchor="start" x="576.13" y="-331.5" font-family="Helvetica,sans-Serif" font-size="10.00">SimulateurFerroviaire</text>
<text text-anchor="middle" x="662.13" y="-320.5" font-family="Helvetica,sans-Serif" font-size="10.00">/Modules/GeoParser/GraphBuilder.h</text>
</a>
</g>
</g>
<!-- Node1&#45;&gt;Node2 -->
<g id="edge1_Node000001_Node000002" class="edge">
<title>Node1&#45;&gt;Node2</title>
<g id="a_edge1_Node000001_Node000002"><a xlink:title=" ">
<path fill="none" stroke="#63b8ff" d="M779.39,-380.93C751.43,-368.66 718.18,-354.08 694.24,-343.58"/>
<polygon fill="#63b8ff" stroke="#63b8ff" points="778.09,-384.18 788.65,-384.99 780.9,-377.77 778.09,-384.18"/>
</a>
</g>
</g>
<!-- Node9 -->
<g id="Node000009" class="node">
<title>Node9</title>
<g id="a_Node000009"><a xlink:href="GeometryUtils_8h.html" target="_top" xlink:title="Utilitaires géométriques métriques pour le pipeline ferroviaire.">
<polygon fill="white" stroke="#666666" points="371.63,-349 232.63,-349 232.63,-308 371.63,-308 371.63,-349"/>
<text text-anchor="start" x="240.63" y="-337" font-family="Helvetica,sans-Serif" font-size="10.00">SimulateurFerroviaire</text>
<text text-anchor="start" x="240.63" y="-326" font-family="Helvetica,sans-Serif" font-size="10.00">/Modules/GeoParser/Utils</text>
<text text-anchor="middle" x="302.13" y="-315" font-family="Helvetica,sans-Serif" font-size="10.00">/GeometryUtils.h</text>
</a>
</g>
</g>
<!-- Node1&#45;&gt;Node9 -->
<g id="edge10_Node000001_Node000009" class="edge">
<title>Node1&#45;&gt;Node9</title>
<g id="a_edge10_Node000001_Node000009"><a xlink:title=" ">
<path fill="none" stroke="#63b8ff" d="M762.06,-394.46C660.02,-380.05 473.2,-353.66 371.9,-339.35"/>
<polygon fill="#63b8ff" stroke="#63b8ff" points="761.57,-397.93 771.96,-395.86 762.55,-391 761.57,-397.93"/>
</a>
</g>
</g>
<!-- Node12 -->
<g id="Node000012" class="node">
<title>Node12</title>
<g id="a_Node000012"><a xlink:href="StraightBlock_8h.html" target="_top" xlink:title="Modèle de domaine d&#39;un bloc de voie droite (Straight).">
<polygon fill="white" stroke="#666666" points="1064.63,-349 879.63,-349 879.63,-308 1064.63,-308 1064.63,-349"/>
<text text-anchor="start" x="887.63" y="-337" font-family="Helvetica,sans-Serif" font-size="10.00">SimulateurFerroviaire</text>
<text text-anchor="start" x="887.63" y="-326" font-family="Helvetica,sans-Serif" font-size="10.00">/Modules/InteractiveElements</text>
<text text-anchor="middle" x="972.13" y="-315" font-family="Helvetica,sans-Serif" font-size="10.00">/ShuntingElements/StraightBlock.h</text>
</a>
</g>
</g>
<!-- Node1&#45;&gt;Node12 -->
<g id="edge16_Node000001_Node000012" class="edge">
<title>Node1&#45;&gt;Node12</title>
<g id="a_edge16_Node000001_Node000012"><a xlink:title=" ">
<path fill="none" stroke="#63b8ff" d="M878.18,-380.19C896.79,-370.15 918.07,-358.67 935.68,-349.17"/>
<polygon fill="#63b8ff" stroke="#63b8ff" points="876.43,-377.16 869.29,-384.99 879.76,-383.32 876.43,-377.16"/>
</a>
</g>
</g>
<!-- Node26 -->
<g id="Node000026" class="node">
<title>Node26</title>
<g id="a_Node000026"><a xlink:href="SwitchBlock_8h.html" target="_top" xlink:title="Modèle de domaine d&#39;un aiguillage ferroviaire à 3 branches.">
<polygon fill="white" stroke="#666666" points="1380.63,-349 1201.63,-349 1201.63,-308 1380.63,-308 1380.63,-349"/>
<text text-anchor="start" x="1209.63" y="-337" font-family="Helvetica,sans-Serif" font-size="10.00">SimulateurFerroviaire</text>
<text text-anchor="start" x="1209.63" y="-326" font-family="Helvetica,sans-Serif" font-size="10.00">/Modules/InteractiveElements</text>
<text text-anchor="middle" x="1291.13" y="-315" font-family="Helvetica,sans-Serif" font-size="10.00">/ShuntingElements/SwitchBlock.h</text>
</a>
</g>
</g>
<!-- Node1&#45;&gt;Node26 -->
<g id="edge38_Node000001_Node000026" class="edge">
<title>Node1&#45;&gt;Node26</title>
<g id="a_edge38_Node000001_Node000026"><a xlink:title=" ">
<path fill="none" stroke="#63b8ff" d="M904.42,-392.83C984.49,-379.72 1114.58,-358.41 1201.48,-344.18"/>
<polygon fill="#63b8ff" stroke="#63b8ff" points="903.73,-389.39 894.43,-394.46 904.86,-396.3 903.73,-389.39"/>
</a>
</g>
</g>
<!-- Node3 -->
<g id="Node000003" class="node">
<title>Node3</title>
<g id="a_Node000003"><a xlink:href="GeoParser_8cpp.html" target="_top" xlink:title="Implémentation du pipeline GeoParser.">
<polygon fill="white" stroke="#666666" points="1076.63,-112.5 891.63,-112.5 891.63,-82.5 1076.63,-82.5 1076.63,-112.5"/>
<text text-anchor="start" x="899.63" y="-100.5" font-family="Helvetica,sans-Serif" font-size="10.00">SimulateurFerroviaire</text>
<text text-anchor="middle" x="984.13" y="-89.5" font-family="Helvetica,sans-Serif" font-size="10.00">/Modules/GeoParser/GeoParser.cpp</text>
</a>
</g>
</g>
<!-- Node2&#45;&gt;Node3 -->
<g id="edge2_Node000002_Node000003" class="edge">
<title>Node2&#45;&gt;Node3</title>
<g id="a_edge2_Node000002_Node000003"><a xlink:title=" ">
<path fill="none" stroke="#63b8ff" d="M644.14,-305.08C630.58,-285.28 616.05,-255.8 627.13,-231 648.07,-184.16 667.3,-177.06 713.13,-154 768.59,-126.1 837.12,-112.23 891.4,-105.33"/>
<polygon fill="#63b8ff" stroke="#63b8ff" points="641.32,-307.14 650.02,-313.18 646.98,-303.03 641.32,-307.14"/>
</a>
</g>
</g>
<!-- Node4 -->
<g id="Node000004" class="node">
<title>Node4</title>
<g id="a_Node000004"><a xlink:href="GraphBuilder_8cpp.html" target="_top" xlink:title="Implémentation des phases 1 et 2 — chargement GeoJSON et construction du graphe.">
<polygon fill="white" stroke="#666666" points="580.13,-266.5 380.13,-266.5 380.13,-236.5 580.13,-236.5 580.13,-266.5"/>
<text text-anchor="start" x="388.13" y="-254.5" font-family="Helvetica,sans-Serif" font-size="10.00">SimulateurFerroviaire</text>
<text text-anchor="middle" x="480.13" y="-243.5" font-family="Helvetica,sans-Serif" font-size="10.00">/Modules/GeoParser/GraphBuilder.cpp</text>
</a>
</g>
</g>
<!-- Node2&#45;&gt;Node4 -->
<g id="edge3_Node000002_Node000004" class="edge">
<title>Node2&#45;&gt;Node4</title>
<g id="a_edge3_Node000002_Node000004"><a xlink:title=" ">
<path fill="none" stroke="#63b8ff" d="M618.35,-309.46C586.38,-296.28 543.66,-278.68 514.21,-266.54"/>
<polygon fill="#63b8ff" stroke="#63b8ff" points="617.32,-312.82 627.9,-313.39 619.99,-306.35 617.32,-312.82"/>
</a>
</g>
</g>
<!-- Node5 -->
<g id="Node000005" class="node">
<title>Node5</title>
<g id="a_Node000005"><a xlink:href="TopologyExtractor_8h.html" target="_top" xlink:title="Phases 3, 4, 5a et 5b — extraction de la topologie ferroviaire depuis le graphe.">
<polygon fill="white" stroke="#666666" points="796.13,-272 636.13,-272 636.13,-231 796.13,-231 796.13,-272"/>
<text text-anchor="start" x="644.13" y="-260" font-family="Helvetica,sans-Serif" font-size="10.00">SimulateurFerroviaire</text>
<text text-anchor="start" x="644.13" y="-249" font-family="Helvetica,sans-Serif" font-size="10.00">/Modules/GeoParser/Topology</text>
<text text-anchor="middle" x="716.13" y="-238" font-family="Helvetica,sans-Serif" font-size="10.00">Extractor.h</text>
</a>
</g>
</g>
<!-- Node2&#45;&gt;Node5 -->
<g id="edge4_Node000002_Node000005" class="edge">
<title>Node2&#45;&gt;Node5</title>
<g id="a_edge4_Node000002_Node000005"><a xlink:title=" ">
<path fill="none" stroke="#63b8ff" d="M678.24,-305.14C685.77,-294.67 694.67,-282.31 701.95,-272.2"/>
<polygon fill="#63b8ff" stroke="#63b8ff" points="675.29,-303.23 672.29,-313.39 680.98,-307.32 675.29,-303.23"/>
</a>
</g>
</g>
<!-- Node5&#45;&gt;Node3 -->
<g id="edge5_Node000005_Node000003" class="edge">
<title>Node5&#45;&gt;Node3</title>
<g id="a_edge5_Node000005_Node000003"><a xlink:title=" ">
<path fill="none" stroke="#63b8ff" d="M714.01,-220.46C714.21,-199.15 718.2,-171.36 735.13,-154 756.9,-131.69 830,-117.13 891.41,-108.55"/>
<polygon fill="#63b8ff" stroke="#63b8ff" points="710.51,-220.69 714.19,-230.63 717.51,-220.57 710.51,-220.69"/>
</a>
</g>
</g>
<!-- Node6 -->
<g id="Node000006" class="node">
<title>Node6</title>
<g id="a_Node000006"><a xlink:href="SwitchOrientator_8h.html" target="_top" xlink:title="Phases 6, 6b, 6c et 6d — orientation géométrique des aiguillages.">
<polygon fill="white" stroke="#666666" points="950.13,-189.5 744.13,-189.5 744.13,-159.5 950.13,-159.5 950.13,-189.5"/>
<text text-anchor="start" x="752.13" y="-177.5" font-family="Helvetica,sans-Serif" font-size="10.00">SimulateurFerroviaire</text>
<text text-anchor="middle" x="847.13" y="-166.5" font-family="Helvetica,sans-Serif" font-size="10.00">/Modules/GeoParser/SwitchOrientator.h</text>
</a>
</g>
</g>
<!-- Node5&#45;&gt;Node6 -->
<g id="edge6_Node000005_Node000006" class="edge">
<title>Node5&#45;&gt;Node6</title>
<g id="a_edge6_Node000005_Node000006"><a xlink:title=" ">
<path fill="none" stroke="#63b8ff" d="M758.96,-225.98C779.95,-213.97 804.48,-199.92 822.33,-189.7"/>
<polygon fill="#63b8ff" stroke="#63b8ff" points="757.15,-222.98 750.21,-230.99 760.63,-229.06 757.15,-222.98"/>
</a>
</g>
</g>
<!-- Node8 -->
<g id="Node000008" class="node">
<title>Node8</title>
<g id="a_Node000008"><a xlink:href="TopologyExtractor_8cpp.html" target="_top" xlink:title="Implémentation des phases 3, 4, 5a et 5b du pipeline GeoParser.">
<polygon fill="white" stroke="#666666" points="506.13,-195 346.13,-195 346.13,-154 506.13,-154 506.13,-195"/>
<text text-anchor="start" x="354.13" y="-183" font-family="Helvetica,sans-Serif" font-size="10.00">SimulateurFerroviaire</text>
<text text-anchor="start" x="354.13" y="-172" font-family="Helvetica,sans-Serif" font-size="10.00">/Modules/GeoParser/Topology</text>
<text text-anchor="middle" x="426.13" y="-161" font-family="Helvetica,sans-Serif" font-size="10.00">Extractor.cpp</text>
</a>
</g>
</g>
<!-- Node5&#45;&gt;Node8 -->
<g id="edge9_Node000005_Node000008" class="edge">
<title>Node5&#45;&gt;Node8</title>
<g id="a_edge9_Node000005_Node000008"><a xlink:title=" ">
<path fill="none" stroke="#63b8ff" d="M631,-228.48C590.04,-217.89 541.34,-205.29 501.7,-195.04"/>
<polygon fill="#63b8ff" stroke="#63b8ff" points="630.14,-231.88 640.7,-230.99 631.89,-225.1 630.14,-231.88"/>
</a>
</g>
</g>
<!-- Node6&#45;&gt;Node3 -->
<g id="edge7_Node000006_Node000003" class="edge">
<title>Node6&#45;&gt;Node3</title>
<g id="a_edge7_Node000006_Node000003"><a xlink:title=" ">
<path fill="none" stroke="#63b8ff" d="M881.98,-154.43C905.81,-141.38 936.89,-124.36 958.48,-112.54"/>
<polygon fill="#63b8ff" stroke="#63b8ff" points="879.99,-151.52 872.9,-159.39 883.36,-157.66 879.99,-151.52"/>
</a>
</g>
</g>
<!-- Node7 -->
<g id="Node000007" class="node">
<title>Node7</title>
<g id="a_Node000007"><a xlink:href="SwitchOrientator_8cpp.html" target="_top" xlink:title="Implémentation des phases 6, 6b, 6c et 6d — orientation des aiguillages.">
<polygon fill="white" stroke="#666666" points="490.13,-112.5 272.13,-112.5 272.13,-82.5 490.13,-82.5 490.13,-112.5"/>
<text text-anchor="start" x="280.13" y="-100.5" font-family="Helvetica,sans-Serif" font-size="10.00">SimulateurFerroviaire</text>
<text text-anchor="middle" x="381.13" y="-89.5" font-family="Helvetica,sans-Serif" font-size="10.00">/Modules/GeoParser/SwitchOrientator.cpp</text>
</a>
</g>
</g>
<!-- Node6&#45;&gt;Node7 -->
<g id="edge8_Node000006_Node000007" class="edge">
<title>Node6&#45;&gt;Node7</title>
<g id="a_edge8_Node000006_Node000007"><a xlink:title=" ">
<path fill="none" stroke="#63b8ff" d="M750.07,-157.88C666.95,-144.5 548.32,-125.41 468.21,-112.51"/>
<polygon fill="#63b8ff" stroke="#63b8ff" points="749.6,-161.35 760.03,-159.48 750.71,-154.44 749.6,-161.35"/>
</a>
</g>
</g>
<!-- Node9&#45;&gt;Node4 -->
<g id="edge12_Node000009_Node000004" class="edge">
<title>Node9&#45;&gt;Node4</title>
<g id="a_edge12_Node000009_Node000004"><a xlink:title=" ">
<path fill="none" stroke="#63b8ff" d="M357.7,-304.09C386.88,-291.79 421.69,-277.13 446.71,-266.58"/>
<polygon fill="#63b8ff" stroke="#63b8ff" points="356.29,-300.88 348.44,-307.99 359.01,-307.33 356.29,-300.88"/>
</a>
</g>
</g>
<!-- Node9&#45;&gt;Node7 -->
<g id="edge13_Node000009_Node000007" class="edge">
<title>Node9&#45;&gt;Node7</title>
<g id="a_edge13_Node000009_Node000007"><a xlink:title=" ">
<path fill="none" stroke="#63b8ff" d="M222.06,-327.65C118.27,-324.83 -43.36,-308.39 11.13,-231 69.66,-147.87 185.4,-116.63 271.93,-105.03"/>
<polygon fill="#63b8ff" stroke="#63b8ff" points="222.15,-331.15 232.23,-327.89 222.31,-324.16 222.15,-331.15"/>
</a>
</g>
</g>
<!-- Node9&#45;&gt;Node8 -->
<g id="edge14_Node000009_Node000008" class="edge">
<title>Node9&#45;&gt;Node8</title>
<g id="a_edge14_Node000009_Node000008"><a xlink:title=" ">
<path fill="none" stroke="#63b8ff" d="M320.45,-299.43C333.75,-279.69 352.59,-252.98 371.13,-231 381.72,-218.45 394.59,-205.37 405.21,-195.06"/>
<polygon fill="#63b8ff" stroke="#63b8ff" points="317.4,-297.71 314.76,-307.97 323.22,-301.59 317.4,-297.71"/>
</a>
</g>
</g>
<!-- Node10 -->
<g id="Node000010" class="node">
<title>Node10</title>
<g id="a_Node000010"><a xlink:href="TopologyGraph_8cpp.html" target="_top" xlink:title="Implémentation du graphe planaire de topologie ferroviaire.">
<polygon fill="white" stroke="#666666" points="324.13,-272 178.13,-272 178.13,-231 324.13,-231 324.13,-272"/>
<text text-anchor="start" x="186.13" y="-260" font-family="Helvetica,sans-Serif" font-size="10.00">SimulateurFerroviaire</text>
<text text-anchor="start" x="186.13" y="-249" font-family="Helvetica,sans-Serif" font-size="10.00">/Modules/GeoParser/Graph</text>
<text text-anchor="middle" x="251.13" y="-238" font-family="Helvetica,sans-Serif" font-size="10.00">/TopologyGraph.cpp</text>
</a>
</g>
</g>
<!-- Node9&#45;&gt;Node10 -->
<g id="edge11_Node000009_Node000010" class="edge">
<title>Node9&#45;&gt;Node10</title>
<g id="a_edge11_Node000009_Node000010"><a xlink:title=" ">
<path fill="none" stroke="#63b8ff" d="M283.02,-299.39C276.84,-290.3 270.11,-280.41 264.45,-272.07"/>
<polygon fill="#63b8ff" stroke="#63b8ff" points="280.22,-301.49 288.74,-307.79 286.01,-297.56 280.22,-301.49"/>
</a>
</g>
</g>
<!-- Node11 -->
<g id="Node000011" class="node">
<title>Node11</title>
<g id="a_Node000011"><a xlink:href="GeometryUtils_8cpp.html" target="_top" xlink:title="Implémentation des utilitaires géométriques — projection UTM et géométrie pure.">
<polygon fill="white" stroke="#666666" points="159.63,-272 20.63,-272 20.63,-231 159.63,-231 159.63,-272"/>
<text text-anchor="start" x="28.63" y="-260" font-family="Helvetica,sans-Serif" font-size="10.00">SimulateurFerroviaire</text>
<text text-anchor="start" x="28.63" y="-249" font-family="Helvetica,sans-Serif" font-size="10.00">/Modules/GeoParser/Utils</text>
<text text-anchor="middle" x="90.13" y="-238" font-family="Helvetica,sans-Serif" font-size="10.00">/GeometryUtils.cpp</text>
</a>
</g>
</g>
<!-- Node9&#45;&gt;Node11 -->
<g id="edge15_Node000009_Node000011" class="edge">
<title>Node9&#45;&gt;Node11</title>
<g id="a_edge15_Node000009_Node000011"><a xlink:title=" ">
<path fill="none" stroke="#63b8ff" d="M237.23,-304.54C207.85,-294.15 173.49,-281.99 145.37,-272.04"/>
<polygon fill="#63b8ff" stroke="#63b8ff" points="236.39,-307.95 246.99,-307.99 238.73,-301.36 236.39,-307.95"/>
</a>
</g>
</g>
<!-- Node12&#45;&gt;Node5 -->
<g id="edge36_Node000012_Node000005" class="edge">
<title>Node12&#45;&gt;Node5</title>
<g id="a_edge36_Node000012_Node000005"><a xlink:title=" ">
<path fill="none" stroke="#63b8ff" d="M895.61,-305.08C859.73,-294.57 817.39,-282.16 782.84,-272.04"/>
<polygon fill="#63b8ff" stroke="#63b8ff" points="894.96,-308.54 905.54,-307.99 896.93,-301.82 894.96,-308.54"/>
</a>
</g>
</g>
<!-- Node12&#45;&gt;Node6 -->
<g id="edge35_Node000012_Node000006" class="edge">
<title>Node12&#45;&gt;Node6</title>
<g id="a_edge35_Node000012_Node000006"><a xlink:title=" ">
<path fill="none" stroke="#63b8ff" d="M879.22,-303.46C864.94,-295.72 852.02,-285.49 843.13,-272 826.63,-246.93 835.16,-209.74 841.79,-189.64"/>
<polygon fill="#63b8ff" stroke="#63b8ff" points="877.75,-306.64 888.26,-307.97 880.88,-300.38 877.75,-306.64"/>
</a>
</g>
</g>
<!-- Node13 -->
<g id="Node000013" class="node">
<title>Node13</title>
<g id="a_Node000013"><a xlink:href="TopologyData_8h.html" target="_top" xlink:title="Conteneur central des données topologiques ferroviaires.">
<polygon fill="white" stroke="#666666" points="1663.63,-272 1538.63,-272 1538.63,-231 1663.63,-231 1663.63,-272"/>
<text text-anchor="start" x="1546.63" y="-260" font-family="Helvetica,sans-Serif" font-size="10.00">SimulateurFerroviaire</text>
<text text-anchor="start" x="1546.63" y="-249" font-family="Helvetica,sans-Serif" font-size="10.00">/Engine/Core/Topology</text>
<text text-anchor="middle" x="1601.13" y="-238" font-family="Helvetica,sans-Serif" font-size="10.00">/TopologyData.h</text>
</a>
</g>
</g>
<!-- Node12&#45;&gt;Node13 -->
<g id="edge17_Node000012_Node000013" class="edge">
<title>Node12&#45;&gt;Node13</title>
<g id="a_edge17_Node000012_Node000013"><a xlink:title=" ">
<path fill="none" stroke="#63b8ff" d="M1074.64,-318.02C1222.09,-304.26 1481.13,-279.56 1524.13,-272 1528.75,-271.19 1533.5,-270.25 1538.27,-269.23"/>
<polygon fill="#63b8ff" stroke="#63b8ff" points="1074.29,-314.54 1064.66,-318.95 1074.94,-321.51 1074.29,-314.54"/>
</a>
</g>
</g>
<!-- Node20 -->
<g id="Node000020" class="node">
<title>Node20</title>
<g id="a_Node000020"><a xlink:href="TopologyRenderer_8h.html" target="_top" xlink:title="Exporteur de topologie ferroviaire au format GeoJSON.">
<polygon fill="white" stroke="#666666" points="1566.63,-195 1441.63,-195 1441.63,-154 1566.63,-154 1566.63,-195"/>
<text text-anchor="start" x="1449.63" y="-183" font-family="Helvetica,sans-Serif" font-size="10.00">SimulateurFerroviaire</text>
<text text-anchor="start" x="1449.63" y="-172" font-family="Helvetica,sans-Serif" font-size="10.00">/Engine/Core/Topology</text>
<text text-anchor="middle" x="1504.13" y="-161" font-family="Helvetica,sans-Serif" font-size="10.00">/TopologyRenderer.h</text>
</a>
</g>
</g>
<!-- Node12&#45;&gt;Node20 -->
<g id="edge25_Node000012_Node000020" class="edge">
<title>Node12&#45;&gt;Node20</title>
<g id="a_edge25_Node000012_Node000020"><a xlink:title=" ">
<path fill="none" stroke="#63b8ff" d="M1074.94,-318.07C1223.85,-304.2 1482.72,-279.14 1490.13,-272 1510.5,-252.39 1510.25,-217.3 1507.62,-195.27"/>
<polygon fill="#63b8ff" stroke="#63b8ff" points="1074.49,-314.6 1064.85,-319.01 1075.13,-321.57 1074.49,-314.6"/>
</a>
</g>
</g>
<!-- Node21 -->
<g id="Node000021" class="node">
<title>Node21</title>
<g id="a_Node000021"><a xlink:href="DoubleSwitchDetector_8h.html" target="_top" xlink:title="Phases 7 et 8 — détection des doubles aiguilles et validation CDC.">
<polygon fill="white" stroke="#666666" points="1481.63,-272 1298.63,-272 1298.63,-231 1481.63,-231 1481.63,-272"/>
<text text-anchor="start" x="1306.63" y="-260" font-family="Helvetica,sans-Serif" font-size="10.00">SimulateurFerroviaire</text>
<text text-anchor="start" x="1306.63" y="-249" font-family="Helvetica,sans-Serif" font-size="10.00">/Modules/GeoParser/DoubleSwitch</text>
<text text-anchor="middle" x="1390.13" y="-238" font-family="Helvetica,sans-Serif" font-size="10.00">Detector.h</text>
</a>
</g>
</g>
<!-- Node12&#45;&gt;Node21 -->
<g id="edge29_Node000012_Node000021" class="edge">
<title>Node12&#45;&gt;Node21</title>
<g id="a_edge29_Node000012_Node000021"><a xlink:title=" ">
<path fill="none" stroke="#63b8ff" d="M1074.99,-309.96C1137.06,-299.26 1217.69,-285.15 1289.13,-272 1292.21,-271.43 1295.33,-270.85 1298.49,-270.27"/>
<polygon fill="#63b8ff" stroke="#63b8ff" points="1074.06,-306.57 1064.8,-311.71 1075.25,-313.47 1074.06,-306.57"/>
</a>
</g>
</g>
<!-- Node23 -->
<g id="Node000023" class="node">
<title>Node23</title>
<g id="a_Node000023"><a xlink:href="GeoParser_8h.html" target="_top" xlink:title="Orchestrateur principal du pipeline GeoJSON ferroviaire.">
<polygon fill="white" stroke="#666666" points="1280.13,-266.5 1106.13,-266.5 1106.13,-236.5 1280.13,-236.5 1280.13,-266.5"/>
<text text-anchor="start" x="1114.13" y="-254.5" font-family="Helvetica,sans-Serif" font-size="10.00">SimulateurFerroviaire</text>
<text text-anchor="middle" x="1193.13" y="-243.5" font-family="Helvetica,sans-Serif" font-size="10.00">/Modules/GeoParser/GeoParser.h</text>
</a>
</g>
</g>
<!-- Node12&#45;&gt;Node23 -->
<g id="edge32_Node000012_Node000023" class="edge">
<title>Node12&#45;&gt;Node23</title>
<g id="a_edge32_Node000012_Node000023"><a xlink:title=" ">
<path fill="none" stroke="#63b8ff" d="M1039.24,-304.73C1075.86,-292.3 1120.03,-277.31 1151.64,-266.58"/>
<polygon fill="#63b8ff" stroke="#63b8ff" points="1037.97,-301.46 1029.62,-307.99 1040.22,-308.09 1037.97,-301.46"/>
</a>
</g>
</g>
<!-- Node25 -->
<g id="Node000025" class="node">
<title>Node25</title>
<g id="a_Node000025"><a xlink:href="StraightBlock_8cpp.html" target="_top" xlink:title="Implémentation du bloc de voie droite StraightBlock.">
<polygon fill="white" stroke="#666666" points="1049.63,-272 852.63,-272 852.63,-231 1049.63,-231 1049.63,-272"/>
<text text-anchor="start" x="860.63" y="-260" font-family="Helvetica,sans-Serif" font-size="10.00">SimulateurFerroviaire</text>
<text text-anchor="start" x="860.63" y="-249" font-family="Helvetica,sans-Serif" font-size="10.00">/Modules/InteractiveElements</text>
<text text-anchor="middle" x="951.13" y="-238" font-family="Helvetica,sans-Serif" font-size="10.00">/ShuntingElements/StraightBlock.cpp</text>
</a>
</g>
</g>
<!-- Node12&#45;&gt;Node25 -->
<g id="edge37_Node000012_Node000025" class="edge">
<title>Node12&#45;&gt;Node25</title>
<g id="a_edge37_Node000012_Node000025"><a xlink:title=" ">
<path fill="none" stroke="#63b8ff" d="M963.87,-297.98C961.43,-289.28 958.83,-279.98 956.62,-272.07"/>
<polygon fill="#63b8ff" stroke="#63b8ff" points="960.55,-299.11 966.62,-307.79 967.29,-297.22 960.55,-299.11"/>
</a>
</g>
</g>
<!-- Node14 -->
<g id="Node000014" class="node">
<title>Node14</title>
<g id="a_Node000014"><a xlink:href="TopologyRepository_8h.html" target="_top" xlink:title="Singleton de stockage des données topologiques ferroviaires.">
<polygon fill="white" stroke="#666666" points="1709.63,-195 1584.63,-195 1584.63,-154 1709.63,-154 1709.63,-195"/>
<text text-anchor="start" x="1592.63" y="-183" font-family="Helvetica,sans-Serif" font-size="10.00">SimulateurFerroviaire</text>
<text text-anchor="start" x="1592.63" y="-172" font-family="Helvetica,sans-Serif" font-size="10.00">/Engine/Core/Topology</text>
<text text-anchor="middle" x="1647.13" y="-161" font-family="Helvetica,sans-Serif" font-size="10.00">/TopologyRepository.h</text>
</a>
</g>
</g>
<!-- Node13&#45;&gt;Node14 -->
<g id="edge18_Node000013_Node000014" class="edge">
<title>Node13&#45;&gt;Node14</title>
<g id="a_edge18_Node000013_Node000014"><a xlink:title=" ">
<path fill="none" stroke="#63b8ff" d="M1618.55,-222.11C1624.08,-213.09 1630.07,-203.33 1635.13,-195.07"/>
<polygon fill="#63b8ff" stroke="#63b8ff" points="1615.47,-220.44 1613.22,-230.79 1621.43,-224.1 1615.47,-220.44"/>
</a>
</g>
</g>
<!-- Node14&#45;&gt;Node3 -->
<g id="edge24_Node000014_Node000003" class="edge">
<title>Node14&#45;&gt;Node3</title>
<g id="a_edge24_Node000014_Node000003"><a xlink:title=" ">
<path fill="none" stroke="#63b8ff" d="M1574.46,-154.05C1393.14,-121.9 1191.47,-108.1 1076.68,-102.29"/>
<polygon fill="#63b8ff" stroke="#63b8ff" points="1573.99,-157.52 1584.45,-155.85 1575.23,-150.63 1573.99,-157.52"/>
</a>
</g>
</g>
<!-- Node15 -->
<g id="Node000015" class="node">
<title>Node15</title>
<g id="a_Node000015"><a xlink:href="TopologyRenderer_8cpp.html" target="_top" xlink:title="Implémentation de l&#39;exporteur GeoJSON.">
<polygon fill="white" stroke="#666666" points="1548.63,-118 1421.63,-118 1421.63,-77 1548.63,-77 1548.63,-118"/>
<text text-anchor="start" x="1429.63" y="-106" font-family="Helvetica,sans-Serif" font-size="10.00">SimulateurFerroviaire</text>
<text text-anchor="start" x="1429.63" y="-95" font-family="Helvetica,sans-Serif" font-size="10.00">/Engine/Core/Topology</text>
<text text-anchor="middle" x="1485.13" y="-84" font-family="Helvetica,sans-Serif" font-size="10.00">/TopologyRenderer.cpp</text>
</a>
</g>
</g>
<!-- Node14&#45;&gt;Node15 -->
<g id="edge19_Node000014_Node000015" class="edge">
<title>Node14&#45;&gt;Node15</title>
<g id="a_edge19_Node000014_Node000015"><a xlink:title=" ">
<path fill="none" stroke="#63b8ff" d="M1595.78,-149.72C1573.72,-139.51 1548.27,-127.73 1527.35,-118.04"/>
<polygon fill="#63b8ff" stroke="#63b8ff" points="1594.45,-152.97 1604.99,-153.99 1597.39,-146.61 1594.45,-152.97"/>
</a>
</g>
</g>
<!-- Node16 -->
<g id="Node000016" class="node">
<title>Node16</title>
<g id="a_Node000016"><a xlink:href="MainWindow_8cpp.html" target="_top" xlink:title="Implémentation de la fenêtre principale.">
<polygon fill="white" stroke="#666666" points="1727.63,-112.5 1566.63,-112.5 1566.63,-82.5 1727.63,-82.5 1727.63,-112.5"/>
<text text-anchor="start" x="1574.63" y="-100.5" font-family="Helvetica,sans-Serif" font-size="10.00">SimulateurFerroviaire</text>
<text text-anchor="middle" x="1647.13" y="-89.5" font-family="Helvetica,sans-Serif" font-size="10.00">/Engine/HMI/MainWindow.cpp</text>
</a>
</g>
</g>
<!-- Node14&#45;&gt;Node16 -->
<g id="edge20_Node000014_Node000016" class="edge">
<title>Node14&#45;&gt;Node16</title>
<g id="a_edge20_Node000014_Node000016"><a xlink:title=" ">
<path fill="none" stroke="#63b8ff" d="M1647.13,-143.61C1647.13,-133.01 1647.13,-121.57 1647.13,-112.86"/>
<polygon fill="#63b8ff" stroke="#63b8ff" points="1643.63,-143.79 1647.13,-153.79 1650.63,-143.79 1643.63,-143.79"/>
</a>
</g>
</g>
<!-- Node17 -->
<g id="Node000017" class="node">
<title>Node17</title>
<g id="a_Node000017"><a xlink:href="TCORenderer_8h.html" target="_top" xlink:title="Renderer GDI du schéma TCO (Tableau de Contrôle Optique) ferroviaire.">
<polygon fill="white" stroke="#666666" points="1870.13,-118 1746.13,-118 1746.13,-77 1870.13,-77 1870.13,-118"/>
<text text-anchor="start" x="1754.13" y="-106" font-family="Helvetica,sans-Serif" font-size="10.00">SimulateurFerroviaire</text>
<text text-anchor="start" x="1754.13" y="-95" font-family="Helvetica,sans-Serif" font-size="10.00">/Engine/HMI/PCCPanel</text>
<text text-anchor="middle" x="1808.13" y="-84" font-family="Helvetica,sans-Serif" font-size="10.00">/TCORenderer.h</text>
</a>
</g>
</g>
<!-- Node14&#45;&gt;Node17 -->
<g id="edge21_Node000014_Node000017" class="edge">
<title>Node14&#45;&gt;Node17</title>
<g id="a_edge21_Node000014_Node000017"><a xlink:title=" ">
<path fill="none" stroke="#63b8ff" d="M1698.18,-149.72C1720.09,-139.51 1745.39,-127.73 1766.18,-118.04"/>
<polygon fill="#63b8ff" stroke="#63b8ff" points="1696.6,-146.6 1689.02,-153.99 1699.56,-152.94 1696.6,-146.6"/>
</a>
</g>
</g>
<!-- Node18 -->
<g id="Node000018" class="node">
<title>Node18</title>
<g id="a_Node000018"><a xlink:href="PCCPanel_8cpp.html" target="_top" xlink:title="Implémentation du panneau PCC superposé togglable.">
<polygon fill="white" stroke="#666666" points="1799.13,-41 1675.13,-41 1675.13,0 1799.13,0 1799.13,-41"/>
<text text-anchor="start" x="1683.13" y="-29" font-family="Helvetica,sans-Serif" font-size="10.00">SimulateurFerroviaire</text>
<text text-anchor="start" x="1683.13" y="-18" font-family="Helvetica,sans-Serif" font-size="10.00">/Engine/HMI/PCCPanel</text>
<text text-anchor="middle" x="1737.13" y="-7" font-family="Helvetica,sans-Serif" font-size="10.00">/PCCPanel.cpp</text>
</a>
</g>
</g>
<!-- Node17&#45;&gt;Node18 -->
<g id="edge22_Node000017_Node000018" class="edge">
<title>Node17&#45;&gt;Node18</title>
<g id="a_edge22_Node000017_Node000018"><a xlink:title=" ">
<path fill="none" stroke="#63b8ff" d="M1782.59,-69.51C1773.69,-60.11 1763.88,-49.76 1755.66,-41.07"/>
<polygon fill="#63b8ff" stroke="#63b8ff" points="1780.06,-71.94 1789.48,-76.79 1785.15,-67.13 1780.06,-71.94"/>
</a>
</g>
</g>
<!-- Node19 -->
<g id="Node000019" class="node">
<title>Node19</title>
<g id="a_Node000019"><a xlink:href="TCORenderer_8cpp.html" target="_top" xlink:title="Implémentation du renderer GDI TCO.">
<polygon fill="white" stroke="#666666" points="1941.13,-41 1817.13,-41 1817.13,0 1941.13,0 1941.13,-41"/>
<text text-anchor="start" x="1825.13" y="-29" font-family="Helvetica,sans-Serif" font-size="10.00">SimulateurFerroviaire</text>
<text text-anchor="start" x="1825.13" y="-18" font-family="Helvetica,sans-Serif" font-size="10.00">/Engine/HMI/PCCPanel</text>
<text text-anchor="middle" x="1879.13" y="-7" font-family="Helvetica,sans-Serif" font-size="10.00">/TCORenderer.cpp</text>
</a>
</g>
</g>
<!-- Node17&#45;&gt;Node19 -->
<g id="edge23_Node000017_Node000019" class="edge">
<title>Node17&#45;&gt;Node19</title>
<g id="a_edge23_Node000017_Node000019"><a xlink:title=" ">
<path fill="none" stroke="#63b8ff" d="M1833.68,-69.51C1842.58,-60.11 1852.39,-49.76 1860.61,-41.07"/>
<polygon fill="#63b8ff" stroke="#63b8ff" points="1831.12,-67.13 1826.79,-76.79 1836.21,-71.94 1831.12,-67.13"/>
</a>
</g>
</g>
<!-- Node20&#45;&gt;Node3 -->
<g id="edge28_Node000020_Node000003" class="edge">
<title>Node20&#45;&gt;Node3</title>
<g id="a_edge28_Node000020_Node000003"><a xlink:title=" ">
<path fill="none" stroke="#63b8ff" d="M1431.05,-154.76C1429.74,-154.5 1428.43,-154.24 1427.13,-154 1306.98,-131.35 1166.69,-115.54 1076.71,-106.74"/>
<polygon fill="#63b8ff" stroke="#63b8ff" points="1430.74,-158.27 1441.24,-156.9 1432.18,-151.42 1430.74,-158.27"/>
</a>
</g>
</g>
<!-- Node20&#45;&gt;Node15 -->
<g id="edge26_Node000020_Node000015" class="edge">
<title>Node20&#45;&gt;Node15</title>
<g id="a_edge26_Node000020_Node000015"><a xlink:title=" ">
<path fill="none" stroke="#63b8ff" d="M1496.66,-143.98C1494.45,-135.28 1492.1,-125.98 1490.09,-118.07"/>
<polygon fill="#63b8ff" stroke="#63b8ff" points="1493.29,-144.96 1499.14,-153.79 1500.08,-143.24 1493.29,-144.96"/>
</a>
</g>
</g>
<!-- Node20&#45;&gt;Node16 -->
<g id="edge27_Node000020_Node000016" class="edge">
<title>Node20&#45;&gt;Node16</title>
<g id="a_edge27_Node000020_Node000016"><a xlink:title=" ">
<path fill="none" stroke="#63b8ff" d="M1550.27,-149.3C1573.32,-137.22 1600.4,-123.01 1620.06,-112.7"/>
<polygon fill="#63b8ff" stroke="#63b8ff" points="1548.56,-146.25 1541.33,-153.99 1551.81,-152.45 1548.56,-146.25"/>
</a>
</g>
</g>
<!-- Node21&#45;&gt;Node3 -->
<g id="edge31_Node000021_Node000003" class="edge">
<title>Node21&#45;&gt;Node3</title>
<g id="a_edge31_Node000021_Node000003"><a xlink:title=" ">
<path fill="none" stroke="#63b8ff" d="M1400.63,-221.09C1406.13,-199.91 1408.87,-172.01 1393.13,-154 1372.63,-130.52 1191.05,-113.32 1076.83,-104.71"/>
<polygon fill="#63b8ff" stroke="#63b8ff" points="1397.22,-220.3 1397.77,-230.88 1403.94,-222.26 1397.22,-220.3"/>
</a>
</g>
</g>
<!-- Node22 -->
<g id="Node000022" class="node">
<title>Node22</title>
<g id="a_Node000022"><a xlink:href="DoubleSwitchDetector_8cpp.html" target="_top" xlink:title="Implémentation phases 7 et 8 — doubles aiguilles et validation CDC.">
<polygon fill="white" stroke="#666666" points="1384.63,-195 1201.63,-195 1201.63,-154 1384.63,-154 1384.63,-195"/>
<text text-anchor="start" x="1209.63" y="-183" font-family="Helvetica,sans-Serif" font-size="10.00">SimulateurFerroviaire</text>
<text text-anchor="start" x="1209.63" y="-172" font-family="Helvetica,sans-Serif" font-size="10.00">/Modules/GeoParser/DoubleSwitch</text>
<text text-anchor="middle" x="1293.13" y="-161" font-family="Helvetica,sans-Serif" font-size="10.00">Detector.cpp</text>
</a>
</g>
</g>
<!-- Node21&#45;&gt;Node22 -->
<g id="edge30_Node000021_Node000022" class="edge">
<title>Node21&#45;&gt;Node22</title>
<g id="a_edge30_Node000021_Node000022"><a xlink:title=" ">
<path fill="none" stroke="#63b8ff" d="M1356.92,-224.82C1344.37,-215.11 1330.3,-204.24 1318.58,-195.17"/>
<polygon fill="#63b8ff" stroke="#63b8ff" points="1354.85,-227.64 1364.9,-230.99 1359.13,-222.1 1354.85,-227.64"/>
</a>
</g>
</g>
<!-- Node23&#45;&gt;Node3 -->
<g id="edge33_Node000023_Node000003" class="edge">
<title>Node23&#45;&gt;Node3</title>
<g id="a_edge33_Node000023_Node000003"><a xlink:title=" ">
<path fill="none" stroke="#63b8ff" d="M1106.43,-234.29C1063.44,-224.51 1017.65,-210.88 1003.13,-195 982.28,-172.19 981.42,-133.39 982.7,-112.62"/>
<polygon fill="#63b8ff" stroke="#63b8ff" points="1105.89,-237.75 1116.41,-236.5 1107.4,-230.92 1105.89,-237.75"/>
</a>
</g>
</g>
<!-- Node24 -->
<g id="Node000024" class="node">
<title>Node24</title>
<g id="a_Node000024"><a xlink:href="GeoParsingTask_8cpp.html" target="_top" xlink:title="Implémentation de la tâche de parsing GeoJSON asynchrone.">
<polygon fill="white" stroke="#666666" points="1183.63,-195 1012.63,-195 1012.63,-154 1183.63,-154 1183.63,-195"/>
<text text-anchor="start" x="1020.63" y="-183" font-family="Helvetica,sans-Serif" font-size="10.00">SimulateurFerroviaire</text>
<text text-anchor="start" x="1020.63" y="-172" font-family="Helvetica,sans-Serif" font-size="10.00">/Modules/GeoParser/GeoParsing</text>
<text text-anchor="middle" x="1098.13" y="-161" font-family="Helvetica,sans-Serif" font-size="10.00">Task.cpp</text>
</a>
</g>
</g>
<!-- Node23&#45;&gt;Node24 -->
<g id="edge34_Node000023_Node000024" class="edge">
<title>Node23&#45;&gt;Node24</title>
<g id="a_edge34_Node000023_Node000024"><a xlink:title=" ">
<path fill="none" stroke="#63b8ff" d="M1167.17,-230C1153.44,-219.16 1136.67,-205.92 1123.09,-195.2"/>
<polygon fill="#63b8ff" stroke="#63b8ff" points="1165.25,-232.94 1175.27,-236.39 1169.59,-227.45 1165.25,-232.94"/>
</a>
</g>
</g>
<!-- Node26&#45;&gt;Node5 -->
<g id="edge44_Node000026_Node000005" class="edge">
<title>Node26&#45;&gt;Node5</title>
<g id="a_edge44_Node000026_Node000005"><a xlink:title=" ">
<path fill="none" stroke="#63b8ff" d="M1191.34,-315.98C1100.48,-305.29 962.67,-288.58 843.13,-272 828,-269.9 811.87,-267.53 796.36,-265.18"/>
<polygon fill="#63b8ff" stroke="#63b8ff" points="1191.02,-319.47 1201.36,-317.16 1191.84,-312.51 1191.02,-319.47"/>
</a>
</g>
</g>
<!-- Node26&#45;&gt;Node6 -->
<g id="edge43_Node000026_Node000006" class="edge">
<title>Node26&#45;&gt;Node6</title>
<g id="a_edge43_Node000026_Node000006"><a xlink:title=" ">
<path fill="none" stroke="#63b8ff" d="M1191.84,-309.87C1160.09,-301.48 1125.78,-289.35 1097.13,-272 1075.62,-258.97 1079.79,-243.8 1058.13,-231 1023.9,-210.76 982.25,-197.79 945.03,-189.53"/>
<polygon fill="#63b8ff" stroke="#63b8ff" points="1191.05,-313.28 1201.6,-312.36 1192.77,-306.5 1191.05,-313.28"/>
</a>
</g>
</g>
<!-- Node26&#45;&gt;Node13 -->
<g id="edge39_Node000026_Node000013" class="edge">
<title>Node26&#45;&gt;Node13</title>
<g id="a_edge39_Node000026_Node000013"><a xlink:title=" ">
<path fill="none" stroke="#63b8ff" d="M1384.32,-305.62C1426.97,-295.53 1478.15,-283.3 1524.13,-272 1528.82,-270.85 1533.67,-269.65 1538.54,-268.43"/>
<polygon fill="#63b8ff" stroke="#63b8ff" points="1383.44,-302.24 1374.51,-307.94 1385.05,-309.05 1383.44,-302.24"/>
</a>
</g>
</g>
<!-- Node26&#45;&gt;Node20 -->
<g id="edge40_Node000026_Node000020" class="edge">
<title>Node26&#45;&gt;Node20</title>
<g id="a_edge40_Node000026_Node000020"><a xlink:title=" ">
<path fill="none" stroke="#63b8ff" d="M1391.07,-327.17C1491.52,-324.46 1636.47,-313.24 1672.13,-272 1684.06,-258.22 1682.81,-245.77 1672.13,-231 1668.81,-226.39 1613.18,-208.56 1566.83,-194.34"/>
<polygon fill="#63b8ff" stroke="#63b8ff" points="1390.79,-323.67 1380.88,-327.42 1390.96,-330.67 1390.79,-323.67"/>
</a>
</g>
</g>
<!-- Node26&#45;&gt;Node21 -->
<g id="edge41_Node000026_Node000021" class="edge">
<title>Node26&#45;&gt;Node21</title>
<g id="a_edge41_Node000026_Node000021"><a xlink:title=" ">
<path fill="none" stroke="#63b8ff" d="M1325.04,-301.82C1337.84,-292.11 1352.2,-281.24 1364.17,-272.17"/>
<polygon fill="#63b8ff" stroke="#63b8ff" points="1322.74,-299.16 1316.89,-307.99 1326.97,-304.74 1322.74,-299.16"/>
</a>
</g>
</g>
<!-- Node26&#45;&gt;Node23 -->
<g id="edge42_Node000026_Node000023" class="edge">
<title>Node26&#45;&gt;Node23</title>
<g id="a_edge42_Node000026_Node000023"><a xlink:title=" ">
<path fill="none" stroke="#63b8ff" d="M1257.41,-301.69C1242.09,-289.97 1224.57,-276.56 1211.69,-266.7"/>
<polygon fill="#63b8ff" stroke="#63b8ff" points="1255.57,-304.69 1265.64,-307.99 1259.83,-299.13 1255.57,-304.69"/>
</a>
</g>
</g>
<!-- Node27 -->
<g id="Node000027" class="node">
<title>Node27</title>
<g id="a_Node000027"><a xlink:href="SwitchBlock_8cpp.html" target="_top" xlink:title="Implémentation du modèle d&#39;aiguillage SwitchBlock.">
<polygon fill="white" stroke="#666666" points="1911.63,-272 1720.63,-272 1720.63,-231 1911.63,-231 1911.63,-272"/>
<text text-anchor="start" x="1728.63" y="-260" font-family="Helvetica,sans-Serif" font-size="10.00">SimulateurFerroviaire</text>
<text text-anchor="start" x="1728.63" y="-249" font-family="Helvetica,sans-Serif" font-size="10.00">/Modules/InteractiveElements</text>
<text text-anchor="middle" x="1816.13" y="-238" font-family="Helvetica,sans-Serif" font-size="10.00">/ShuntingElements/SwitchBlock.cpp</text>
</a>
</g>
</g>
<!-- Node26&#45;&gt;Node27 -->
<g id="edge45_Node000026_Node000027" class="edge">
<title>Node26&#45;&gt;Node27</title>
<g id="a_edge45_Node000026_Node000027"><a xlink:title=" ">
<path fill="none" stroke="#63b8ff" d="M1390.81,-315.38C1474.98,-304.85 1598.63,-288.71 1706.13,-272 1710.83,-271.27 1715.63,-270.5 1720.48,-269.71"/>
<polygon fill="#63b8ff" stroke="#63b8ff" points="1390.24,-311.92 1380.75,-316.63 1391.1,-318.87 1390.24,-311.92"/>
</a>
</g>
</g>
</g>
</svg>
