<?xml version="1.0" encoding="UTF-8" standalone="no"?>
<!DOCTYPE svg PUBLIC "-//W3C//DTD SVG 1.1//EN"
 "http://www.w3.org/Graphics/SVG/1.1/DTD/svg11.dtd">
<!-- Generated by graphviz version 2.43.0 (0)
 -->
<!-- Title: SimulateurFerroviaire/Engine/HMI/WebViewPanel/Leaflet/Leaflet.cpp Pages: 1 -->
<svg width="547pt" height="159pt"
 viewBox="0.00 0.00 547.00 159.00" xmlns="http://www.w3.org/2000/svg" xmlns:xlink="http://www.w3.org/1999/xlink">
<g id="graph0" class="graph" transform="scale(1 1) rotate(0) translate(4 155)">
<title>SimulateurFerroviaire/Engine/HMI/WebViewPanel/Leaflet/Leaflet.cpp</title>
<!-- Node1 -->
<g id="Node000001" class="node">
<title>Node1</title>
<g id="a_Node000001"><a xlink:title="Implémentation du générateur HTML Leaflet.">
<polygon fill="#999999" stroke="#666666" points="372,-151 223,-151 223,-110 372,-110 372,-151"/>
<text text-anchor="start" x="231" y="-139" font-family="Helvetica,sans-Serif" font-size="10.00">SimulateurFerroviaire</text>
<text text-anchor="start" x="231" y="-128" font-family="Helvetica,sans-Serif" font-size="10.00">/Engine/HMI/WebViewPanel</text>
<text text-anchor="middle" x="297.5" y="-117" font-family="Helvetica,sans-Serif" font-size="10.00">/Leaflet/Leaflet.cpp</text>
</a>
</g>
</g>
<!-- Node2 -->
<g id="Node000002" class="node">
<title>Node2</title>
<g id="a_Node000002"><a xlink:href="Leaflet_8h.html" target="_top" xlink:title="Génération du HTML Leaflet pour intégration dans un WebView.">
<polygon fill="white" stroke="#666666" points="59,-74 0,-74 0,-55 59,-55 59,-74"/>
<text text-anchor="middle" x="29.5" y="-62" font-family="Helvetica,sans-Serif" font-size="10.00">Leaflet.h</text>
</a>
</g>
</g>
<!-- Node1&#45;&gt;Node2 -->
<g id="edge1_Node000001_Node000002" class="edge">
<title>Node1&#45;&gt;Node2</title>
<g id="a_edge1_Node000001_Node000002"><a xlink:title=" ">
<path fill="none" stroke="#63b8ff" d="M222.85,-111.67C172.87,-99.74 109.1,-84.51 68.77,-74.88"/>
<polygon fill="#63b8ff" stroke="#63b8ff" points="69.58,-71.47 59.04,-72.55 67.95,-78.28 69.58,-71.47"/>
</a>
</g>
</g>
<!-- Node4 -->
<g id="Node000004" class="node">
<title>Node4</title>
<g id="a_Node000004"><a xlink:href="PathUtils_8h.html" target="_top" xlink:title=" ">
<polygon fill="white" stroke="#666666" points="269,-74 116,-74 116,-55 269,-55 269,-74"/>
<text text-anchor="middle" x="192.5" y="-62" font-family="Helvetica,sans-Serif" font-size="10.00">Engine/HMI/Utils/PathUtils.h</text>
</a>
</g>
</g>
<!-- Node1&#45;&gt;Node4 -->
<g id="edge3_Node000001_Node000004" class="edge">
<title>Node1&#45;&gt;Node4</title>
<g id="a_edge3_Node000001_Node000004"><a xlink:title=" ">
<path fill="none" stroke="#63b8ff" d="M265.43,-109.95C249.3,-100.12 230.12,-88.43 215.48,-79.51"/>
<polygon fill="#63b8ff" stroke="#63b8ff" points="216.96,-76.31 206.6,-74.09 213.31,-82.29 216.96,-76.31"/>
</a>
</g>
</g>
<!-- Node5 -->
<g id="Node000005" class="node">
<title>Node5</title>
<g id="a_Node000005"><a xlink:title=" ">
<polygon fill="#e0e0e0" stroke="#999999" points="182.5,-19 114.5,-19 114.5,0 182.5,0 182.5,-19"/>
<text text-anchor="middle" x="148.5" y="-7" font-family="Helvetica,sans-Serif" font-size="10.00">filesystem</text>
</a>
</g>
</g>
<!-- Node1&#45;&gt;Node5 -->
<g id="edge7_Node000001_Node000005" class="edge">
<title>Node1&#45;&gt;Node5</title>
<g id="a_edge7_Node000001_Node000005"><a xlink:title=" ">
<path fill="none" stroke="#63b8ff" d="M222.8,-117.24C175.58,-107.8 120.86,-93.12 106.5,-74 94.4,-57.89 111.6,-38.45 127.5,-25.36"/>
<polygon fill="#63b8ff" stroke="#63b8ff" points="129.76,-28.03 135.53,-19.14 125.48,-22.5 129.76,-28.03"/>
</a>
</g>
</g>
<!-- Node6 -->
<g id="Node000006" class="node">
<title>Node6</title>
<g id="a_Node000006"><a xlink:title=" ">
<polygon fill="#e0e0e0" stroke="#999999" points="269.5,-19 201.5,-19 201.5,0 269.5,0 269.5,-19"/>
<text text-anchor="middle" x="235.5" y="-7" font-family="Helvetica,sans-Serif" font-size="10.00">windows.h</text>
</a>
</g>
</g>
<!-- Node1&#45;&gt;Node6 -->
<g id="edge6_Node000001_Node000006" class="edge">
<title>Node1&#45;&gt;Node6</title>
<g id="a_edge6_Node000001_Node000006"><a xlink:title=" ">
<path fill="none" stroke="#63b8ff" d="M295.3,-109.8C292.91,-94.16 288.06,-72.13 278.5,-55 272.39,-44.05 262.92,-33.84 254.41,-25.96"/>
<polygon fill="#63b8ff" stroke="#63b8ff" points="256.52,-23.16 246.7,-19.18 251.9,-28.41 256.52,-23.16"/>
</a>
</g>
</g>
<!-- Node7 -->
<g id="Node000007" class="node">
<title>Node7</title>
<g id="a_Node000007"><a xlink:title=" ">
<polygon fill="#e0e0e0" stroke="#999999" points="381,-74 326,-74 326,-55 381,-55 381,-74"/>
<text text-anchor="middle" x="353.5" y="-62" font-family="Helvetica,sans-Serif" font-size="10.00">fstream</text>
</a>
</g>
</g>
<!-- Node1&#45;&gt;Node7 -->
<g id="edge8_Node000001_Node000007" class="edge">
<title>Node1&#45;&gt;Node7</title>
<g id="a_edge8_Node000001_Node000007"><a xlink:title=" ">
<path fill="none" stroke="#63b8ff" d="M314.61,-109.95C322.42,-101.02 331.58,-90.55 339.05,-82.02"/>
<polygon fill="#63b8ff" stroke="#63b8ff" points="341.88,-84.09 345.83,-74.26 336.62,-79.48 341.88,-84.09"/>
</a>
</g>
</g>
<!-- Node8 -->
<g id="Node000008" class="node">
<title>Node8</title>
<g id="a_Node000008"><a xlink:title=" ">
<polygon fill="#e0e0e0" stroke="#999999" points="455.5,-74 399.5,-74 399.5,-55 455.5,-55 455.5,-74"/>
<text text-anchor="middle" x="427.5" y="-62" font-family="Helvetica,sans-Serif" font-size="10.00">sstream</text>
</a>
</g>
</g>
<!-- Node1&#45;&gt;Node8 -->
<g id="edge9_Node000001_Node000008" class="edge">
<title>Node1&#45;&gt;Node8</title>
<g id="a_edge9_Node000001_Node000008"><a xlink:title=" ">
<path fill="none" stroke="#63b8ff" d="M337.21,-109.95C357.84,-99.79 382.51,-87.65 400.84,-78.63"/>
<polygon fill="#63b8ff" stroke="#63b8ff" points="402.62,-81.65 410.05,-74.09 399.53,-75.37 402.62,-81.65"/>
</a>
</g>
</g>
<!-- Node9 -->
<g id="Node000009" class="node">
<title>Node9</title>
<g id="a_Node000009"><a xlink:title=" ">
<polygon fill="#e0e0e0" stroke="#999999" points="539,-74 474,-74 474,-55 539,-55 539,-74"/>
<text text-anchor="middle" x="506.5" y="-62" font-family="Helvetica,sans-Serif" font-size="10.00">stdexcept</text>
</a>
</g>
</g>
<!-- Node1&#45;&gt;Node9 -->
<g id="edge10_Node000001_Node000009" class="edge">
<title>Node1&#45;&gt;Node9</title>
<g id="a_edge10_Node000001_Node000009"><a xlink:title=" ">
<path fill="none" stroke="#63b8ff" d="M361.34,-109.95C396.61,-99.15 439.2,-86.11 469.09,-76.95"/>
<polygon fill="#63b8ff" stroke="#63b8ff" points="470.18,-80.28 478.72,-74.01 468.13,-73.59 470.18,-80.28"/>
</a>
</g>
</g>
<!-- Node3 -->
<g id="Node000003" class="node">
<title>Node3</title>
<g id="a_Node000003"><a xlink:title=" ">
<polygon fill="#e0e0e0" stroke="#999999" points="51.5,-19 7.5,-19 7.5,0 51.5,0 51.5,-19"/>
<text text-anchor="middle" x="29.5" y="-7" font-family="Helvetica,sans-Serif" font-size="10.00">string</text>
</a>
</g>
</g>
<!-- Node2&#45;&gt;Node3 -->
<g id="edge2_Node000002_Node000003" class="edge">
<title>Node2&#45;&gt;Node3</title>
<g id="a_edge2_Node000002_Node000003"><a xlink:title=" ">
<path fill="none" stroke="#63b8ff" d="M29.5,-54.75C29.5,-47.8 29.5,-37.85 29.5,-29.13"/>
<polygon fill="#63b8ff" stroke="#63b8ff" points="33,-29.09 29.5,-19.09 26,-29.09 33,-29.09"/>
</a>
</g>
</g>
<!-- Node4&#45;&gt;Node5 -->
<g id="edge4_Node000004_Node000005" class="edge">
<title>Node4&#45;&gt;Node5</title>
<g id="a_edge4_Node000004_Node000005"><a xlink:title=" ">
<path fill="none" stroke="#63b8ff" d="M185.23,-54.75C178.96,-47.18 169.71,-36.05 162.07,-26.84"/>
<polygon fill="#63b8ff" stroke="#63b8ff" points="164.71,-24.55 155.63,-19.09 159.33,-29.02 164.71,-24.55"/>
</a>
</g>
</g>
<!-- Node4&#45;&gt;Node6 -->
<g id="edge5_Node000004_Node000006" class="edge">
<title>Node4&#45;&gt;Node6</title>
<g id="a_edge5_Node000004_Node000006"><a xlink:title=" ">
<path fill="none" stroke="#63b8ff" d="M199.6,-54.75C205.67,-47.26 214.59,-36.28 222.01,-27.13"/>
<polygon fill="#63b8ff" stroke="#63b8ff" points="224.95,-29.06 228.53,-19.09 219.51,-24.65 224.95,-29.06"/>
</a>
</g>
</g>
</g>
</svg>
