<?xml version="1.0" encoding="UTF-8" standalone="no"?>
<!DOCTYPE svg PUBLIC "-//W3C//DTD SVG 1.1//EN"
 "http://www.w3.org/Graphics/SVG/1.1/DTD/svg11.dtd">
<!-- Generated by graphviz version 2.43.0 (0)
 -->
<!-- Title: SimulateurFerroviaire/Engine/Core/Logger/Logger.h Pages: 1 -->
<svg width="1640pt" height="335pt"
 viewBox="0.00 0.00 1640.00 335.00" xmlns="http://www.w3.org/2000/svg" xmlns:xlink="http://www.w3.org/1999/xlink">
<g id="graph0" class="graph" transform="scale(1 1) rotate(0) translate(4 331)">
<title>SimulateurFerroviaire/Engine/Core/Logger/Logger.h</title>
<!-- Node1 -->
<g id="Node000001" class="node">
<title>Node1</title>
<g id="a_Node000001"><a xlink:title="Système de journalisation à 5 niveaux de trace, un fichier par moteur.">
<polygon fill="#999999" stroke="#666666" points="862,-327 704,-327 704,-297 862,-297 862,-327"/>
<text text-anchor="start" x="712" y="-315" font-family="Helvetica,sans-Serif" font-size="10.00">SimulateurFerroviaire</text>
<text text-anchor="middle" x="783" y="-304" font-family="Helvetica,sans-Serif" font-size="10.00">/Engine/Core/Logger/Logger.h</text>
</a>
</g>
</g>
<!-- Node2 -->
<g id="Node000002" class="node">
<title>Node2</title>
<g id="a_Node000002"><a xlink:href="Logger_8cpp.html" target="_top" xlink:title="Implémentation du Logger à 5 niveaux de trace.">
<polygon fill="white" stroke="#666666" points="279,-255.5 109,-255.5 109,-225.5 279,-225.5 279,-255.5"/>
<text text-anchor="start" x="117" y="-243.5" font-family="Helvetica,sans-Serif" font-size="10.00">SimulateurFerroviaire</text>
<text text-anchor="middle" x="194" y="-232.5" font-family="Helvetica,sans-Serif" font-size="10.00">/Engine/Core/Logger/Logger.cpp</text>
</a>
</g>
</g>
<!-- Node1&#45;&gt;Node2 -->
<g id="edge1_Node000001_Node000002" class="edge">
<title>Node1&#45;&gt;Node2</title>
<g id="a_edge1_Node000001_Node000002"><a xlink:title=" ">
<path fill="none" stroke="#63b8ff" d="M693.58,-304.38C595.12,-296.51 432.27,-281.78 293,-261 282.52,-259.44 271.46,-257.52 260.69,-255.51"/>
<polygon fill="#63b8ff" stroke="#63b8ff" points="693.55,-307.89 703.79,-305.19 694.1,-300.91 693.55,-307.89"/>
</a>
</g>
</g>
<!-- Node3 -->
<g id="Node000003" class="node">
<title>Node3</title>
<g id="a_Node000003"><a xlink:href="MainWindow_8h.html" target="_top" xlink:title="Déclaration de la fenêtre principale de l&#39;application.">
<polygon fill="white" stroke="#666666" points="284.5,-178.5 135.5,-178.5 135.5,-148.5 284.5,-148.5 284.5,-178.5"/>
<text text-anchor="start" x="143.5" y="-166.5" font-family="Helvetica,sans-Serif" font-size="10.00">SimulateurFerroviaire</text>
<text text-anchor="middle" x="210" y="-155.5" font-family="Helvetica,sans-Serif" font-size="10.00">/Engine/HMI/MainWindow.h</text>
</a>
</g>
</g>
<!-- Node1&#45;&gt;Node3 -->
<g id="edge2_Node000001_Node000003" class="edge">
<title>Node1&#45;&gt;Node3</title>
<g id="a_edge2_Node000001_Node000003"><a xlink:title=" ">
<path fill="none" stroke="#63b8ff" d="M693.85,-308.59C579.5,-304.26 388.46,-292.43 326,-261 303.81,-249.83 306.66,-236.4 288,-220 270.4,-204.53 248.52,-189.27 232.42,-178.67"/>
<polygon fill="#63b8ff" stroke="#63b8ff" points="693.87,-312.1 703.99,-308.97 694.12,-305.1 693.87,-312.1"/>
</a>
</g>
</g>
<!-- Node8 -->
<g id="Node000008" class="node">
<title>Node8</title>
<g id="a_Node000008"><a xlink:href="WebViewPanel_8h.html" target="_top" xlink:title=" ">
<polygon fill="white" stroke="#666666" points="483.5,-261 334.5,-261 334.5,-220 483.5,-220 483.5,-261"/>
<text text-anchor="start" x="342.5" y="-249" font-family="Helvetica,sans-Serif" font-size="10.00">SimulateurFerroviaire</text>
<text text-anchor="start" x="342.5" y="-238" font-family="Helvetica,sans-Serif" font-size="10.00">/Engine/HMI/WebViewPanel</text>
<text text-anchor="middle" x="409" y="-227" font-family="Helvetica,sans-Serif" font-size="10.00">/WebViewPanel.h</text>
</a>
</g>
</g>
<!-- Node1&#45;&gt;Node8 -->
<g id="edge7_Node000001_Node000008" class="edge">
<title>Node1&#45;&gt;Node8</title>
<g id="a_edge7_Node000001_Node000008"><a xlink:title=" ">
<path fill="none" stroke="#63b8ff" d="M697.17,-295.05C632.68,-283.07 545.21,-266.81 483.61,-255.37"/>
<polygon fill="#63b8ff" stroke="#63b8ff" points="696.84,-298.55 707.32,-296.94 698.12,-291.67 696.84,-298.55"/>
</a>
</g>
</g>
<!-- Node10 -->
<g id="Node000010" class="node">
<title>Node10</title>
<g id="a_Node000010"><a xlink:href="GeoJsonExporter_8h.html" target="_top" xlink:title="Exporteur de topologie ferroviaire au format GeoJSON.">
<polygon fill="white" stroke="#666666" points="614.5,-184 469.5,-184 469.5,-143 614.5,-143 614.5,-184"/>
<text text-anchor="start" x="477.5" y="-172" font-family="Helvetica,sans-Serif" font-size="10.00">SimulateurFerroviaire</text>
<text text-anchor="start" x="477.5" y="-161" font-family="Helvetica,sans-Serif" font-size="10.00">/Modules/GeoJsonExporter</text>
<text text-anchor="middle" x="542" y="-150" font-family="Helvetica,sans-Serif" font-size="10.00">/GeoJsonExporter.h</text>
</a>
</g>
</g>
<!-- Node1&#45;&gt;Node10 -->
<g id="edge10_Node000001_Node000010" class="edge">
<title>Node1&#45;&gt;Node10</title>
<g id="a_edge10_Node000001_Node000010"><a xlink:title=" ">
<path fill="none" stroke="#63b8ff" d="M693.43,-305.44C656.38,-299.12 615.13,-286.35 585,-261 561.56,-241.28 550.4,-206.22 545.48,-184.23"/>
<polygon fill="#63b8ff" stroke="#63b8ff" points="693.34,-308.97 703.76,-307.06 694.42,-302.06 693.34,-308.97"/>
</a>
</g>
</g>
<!-- Node13 -->
<g id="Node000013" class="node">
<title>Node13</title>
<g id="a_Node000013"><a xlink:href="DoubleSwitchDetector_8h.html" target="_top" xlink:title="Phases 7 et 8 — détection des doubles aiguilles et validation CDC.">
<polygon fill="white" stroke="#666666" points="776.5,-261 593.5,-261 593.5,-220 776.5,-220 776.5,-261"/>
<text text-anchor="start" x="601.5" y="-249" font-family="Helvetica,sans-Serif" font-size="10.00">SimulateurFerroviaire</text>
<text text-anchor="start" x="601.5" y="-238" font-family="Helvetica,sans-Serif" font-size="10.00">/Modules/GeoParser/DoubleSwitch</text>
<text text-anchor="middle" x="685" y="-227" font-family="Helvetica,sans-Serif" font-size="10.00">Detector.h</text>
</a>
</g>
</g>
<!-- Node1&#45;&gt;Node13 -->
<g id="edge14_Node000001_Node000013" class="edge">
<title>Node1&#45;&gt;Node13</title>
<g id="a_edge14_Node000001_Node000013"><a xlink:title=" ">
<path fill="none" stroke="#63b8ff" d="M754.86,-291.04C741.59,-281.63 725.8,-270.44 712.6,-261.07"/>
<polygon fill="#63b8ff" stroke="#63b8ff" points="752.99,-294.01 763.17,-296.94 757.04,-288.3 752.99,-294.01"/>
</a>
</g>
</g>
<!-- Node15 -->
<g id="Node000015" class="node">
<title>Node15</title>
<g id="a_Node000015"><a xlink:href="GeoParser_8h.html" target="_top" xlink:title="Orchestrateur principal du pipeline GeoJSON ferroviaire.">
<polygon fill="white" stroke="#666666" points="969,-255.5 795,-255.5 795,-225.5 969,-225.5 969,-255.5"/>
<text text-anchor="start" x="803" y="-243.5" font-family="Helvetica,sans-Serif" font-size="10.00">SimulateurFerroviaire</text>
<text text-anchor="middle" x="882" y="-232.5" font-family="Helvetica,sans-Serif" font-size="10.00">/Modules/GeoParser/GeoParser.h</text>
</a>
</g>
</g>
<!-- Node1&#45;&gt;Node15 -->
<g id="edge17_Node000001_Node000015" class="edge">
<title>Node1&#45;&gt;Node15</title>
<g id="a_edge17_Node000001_Node000015"><a xlink:title=" ">
<path fill="none" stroke="#63b8ff" d="M811.57,-290.94C827.72,-279.6 847.51,-265.71 862,-255.54"/>
<polygon fill="#63b8ff" stroke="#63b8ff" points="809.21,-288.33 803.03,-296.94 813.23,-294.05 809.21,-288.33"/>
</a>
</g>
</g>
<!-- Node16 -->
<g id="Node000016" class="node">
<title>Node16</title>
<g id="a_Node000016"><a xlink:href="GeoParsingTask_8cpp.html" target="_top" xlink:title="Implémentation de la tâche de parsing GeoJSON asynchrone.">
<polygon fill="white" stroke="#666666" points="1082.5,-184 911.5,-184 911.5,-143 1082.5,-143 1082.5,-184"/>
<text text-anchor="start" x="919.5" y="-172" font-family="Helvetica,sans-Serif" font-size="10.00">SimulateurFerroviaire</text>
<text text-anchor="start" x="919.5" y="-161" font-family="Helvetica,sans-Serif" font-size="10.00">/Modules/GeoParser/GeoParsing</text>
<text text-anchor="middle" x="997" y="-150" font-family="Helvetica,sans-Serif" font-size="10.00">Task.cpp</text>
</a>
</g>
</g>
<!-- Node1&#45;&gt;Node16 -->
<g id="edge20_Node000001_Node000016" class="edge">
<title>Node1&#45;&gt;Node16</title>
<g id="a_edge20_Node000001_Node000016"><a xlink:title=" ">
<path fill="none" stroke="#63b8ff" d="M872.1,-297.6C916.12,-289.18 962.99,-276.88 978,-261 997.47,-240.4 999.68,-205.94 998.82,-184.26"/>
<polygon fill="#63b8ff" stroke="#63b8ff" points="871.36,-294.18 862.17,-299.45 872.64,-301.06 871.36,-294.18"/>
</a>
</g>
</g>
<!-- Node17 -->
<g id="Node000017" class="node">
<title>Node17</title>
<g id="a_Node000017"><a xlink:href="GraphBuilder_8h.html" target="_top" xlink:title="Phases 1 et 2 du pipeline — chargement GeoJSON et construction du graphe métrique.">
<polygon fill="white" stroke="#666666" points="1273,-255.5 1085,-255.5 1085,-225.5 1273,-225.5 1273,-255.5"/>
<text text-anchor="start" x="1093" y="-243.5" font-family="Helvetica,sans-Serif" font-size="10.00">SimulateurFerroviaire</text>
<text text-anchor="middle" x="1179" y="-232.5" font-family="Helvetica,sans-Serif" font-size="10.00">/Modules/GeoParser/GraphBuilder.h</text>
</a>
</g>
</g>
<!-- Node1&#45;&gt;Node17 -->
<g id="edge21_Node000001_Node000017" class="edge">
<title>Node1&#45;&gt;Node17</title>
<g id="a_edge21_Node000001_Node000017"><a xlink:title=" ">
<path fill="none" stroke="#63b8ff" d="M872.04,-295.37C940.13,-283.42 1033.18,-267.09 1098.94,-255.55"/>
<polygon fill="#63b8ff" stroke="#63b8ff" points="871.43,-291.93 862.18,-297.1 872.64,-298.82 871.43,-291.93"/>
</a>
</g>
</g>
<!-- Node19 -->
<g id="Node000019" class="node">
<title>Node19</title>
<g id="a_Node000019"><a xlink:href="TopologyExtractor_8h.html" target="_top" xlink:title="Phases 3, 4, 5a et 5b — extraction de la topologie ferroviaire depuis le graphe.">
<polygon fill="white" stroke="#666666" points="1517,-184 1357,-184 1357,-143 1517,-143 1517,-184"/>
<text text-anchor="start" x="1365" y="-172" font-family="Helvetica,sans-Serif" font-size="10.00">SimulateurFerroviaire</text>
<text text-anchor="start" x="1365" y="-161" font-family="Helvetica,sans-Serif" font-size="10.00">/Modules/GeoParser/Topology</text>
<text text-anchor="middle" x="1437" y="-150" font-family="Helvetica,sans-Serif" font-size="10.00">Extractor.h</text>
</a>
</g>
</g>
<!-- Node1&#45;&gt;Node19 -->
<g id="edge31_Node000001_Node000019" class="edge">
<title>Node1&#45;&gt;Node19</title>
<g id="a_edge31_Node000001_Node000019"><a xlink:title=" ">
<path fill="none" stroke="#63b8ff" d="M872.32,-306.92C994.9,-300.48 1208.45,-286.06 1282,-261 1332.86,-243.67 1384.32,-206.99 1413.29,-184.17"/>
<polygon fill="#63b8ff" stroke="#63b8ff" points="872.01,-303.43 862.2,-307.44 872.37,-310.42 872.01,-303.43"/>
</a>
</g>
</g>
<!-- Node20 -->
<g id="Node000020" class="node">
<title>Node20</title>
<g id="a_Node000020"><a xlink:href="SwitchOrientator_8h.html" target="_top" xlink:title="Phases 6, 6b, 6c et 6d — orientation géométrique des aiguillages.">
<polygon fill="white" stroke="#666666" points="1626,-101.5 1420,-101.5 1420,-71.5 1626,-71.5 1626,-101.5"/>
<text text-anchor="start" x="1428" y="-89.5" font-family="Helvetica,sans-Serif" font-size="10.00">SimulateurFerroviaire</text>
<text text-anchor="middle" x="1523" y="-78.5" font-family="Helvetica,sans-Serif" font-size="10.00">/Modules/GeoParser/SwitchOrientator.h</text>
</a>
</g>
</g>
<!-- Node1&#45;&gt;Node20 -->
<g id="edge30_Node000001_Node000020" class="edge">
<title>Node1&#45;&gt;Node20</title>
<g id="a_edge30_Node000001_Node000020"><a xlink:title=" ">
<path fill="none" stroke="#63b8ff" d="M872.42,-310.89C982.68,-308.93 1175.13,-299.58 1335,-261 1423.97,-239.53 1474.79,-259.86 1526,-184 1542.79,-159.13 1534.63,-121.86 1528.21,-101.69"/>
<polygon fill="#63b8ff" stroke="#63b8ff" points="872.28,-307.39 862.33,-311.05 872.39,-314.39 872.28,-307.39"/>
</a>
</g>
</g>
<!-- Node4 -->
<g id="Node000004" class="node">
<title>Node4</title>
<g id="a_Node000004"><a xlink:href="Application_8h.html" target="_top" xlink:title="Gestion du cycle de vie de l&#39;application Win32.">
<polygon fill="white" stroke="#666666" points="234.5,-101.5 89.5,-101.5 89.5,-71.5 234.5,-71.5 234.5,-101.5"/>
<text text-anchor="start" x="97.5" y="-89.5" font-family="Helvetica,sans-Serif" font-size="10.00">SimulateurFerroviaire</text>
<text text-anchor="middle" x="162" y="-78.5" font-family="Helvetica,sans-Serif" font-size="10.00">/Engine/Core/Application.h</text>
</a>
</g>
</g>
<!-- Node3&#45;&gt;Node4 -->
<g id="edge3_Node000003_Node000004" class="edge">
<title>Node3&#45;&gt;Node4</title>
<g id="a_edge3_Node000003_Node000004"><a xlink:title=" ">
<path fill="none" stroke="#63b8ff" d="M195.52,-139.88C187.54,-127.41 177.88,-112.32 170.99,-101.54"/>
<polygon fill="#63b8ff" stroke="#63b8ff" points="192.63,-141.86 200.97,-148.39 198.53,-138.08 192.63,-141.86"/>
</a>
</g>
</g>
<!-- Node7 -->
<g id="Node000007" class="node">
<title>Node7</title>
<g id="a_Node000007"><a xlink:href="MainWindow_8cpp.html" target="_top" xlink:title="Implémentation de la fenêtre principale.">
<polygon fill="white" stroke="#666666" points="413.5,-101.5 252.5,-101.5 252.5,-71.5 413.5,-71.5 413.5,-101.5"/>
<text text-anchor="start" x="260.5" y="-89.5" font-family="Helvetica,sans-Serif" font-size="10.00">SimulateurFerroviaire</text>
<text text-anchor="middle" x="333" y="-78.5" font-family="Helvetica,sans-Serif" font-size="10.00">/Engine/HMI/MainWindow.cpp</text>
</a>
</g>
</g>
<!-- Node3&#45;&gt;Node7 -->
<g id="edge6_Node000003_Node000007" class="edge">
<title>Node3&#45;&gt;Node7</title>
<g id="a_edge6_Node000003_Node000007"><a xlink:title=" ">
<path fill="none" stroke="#63b8ff" d="M241.85,-143.08C263.18,-130.08 290.76,-113.26 309.97,-101.54"/>
<polygon fill="#63b8ff" stroke="#63b8ff" points="239.85,-140.2 233.14,-148.39 243.5,-146.18 239.85,-140.2"/>
</a>
</g>
</g>
<!-- Node5 -->
<g id="Node000005" class="node">
<title>Node5</title>
<g id="a_Node000005"><a xlink:href="Application_8cpp.html" target="_top" xlink:title="Implémentation du cycle de vie de l&#39;application Win32.">
<polygon fill="white" stroke="#666666" points="156,-30 0,-30 0,0 156,0 156,-30"/>
<text text-anchor="start" x="8" y="-18" font-family="Helvetica,sans-Serif" font-size="10.00">SimulateurFerroviaire</text>
<text text-anchor="middle" x="78" y="-7" font-family="Helvetica,sans-Serif" font-size="10.00">/Engine/Core/Application.cpp</text>
</a>
</g>
</g>
<!-- Node4&#45;&gt;Node5 -->
<g id="edge4_Node000004_Node000005" class="edge">
<title>Node4&#45;&gt;Node5</title>
<g id="a_edge4_Node000004_Node000005"><a xlink:title=" ">
<path fill="none" stroke="#63b8ff" d="M136.99,-64.81C123.43,-53.59 107.04,-40.02 94.97,-30.04"/>
<polygon fill="#63b8ff" stroke="#63b8ff" points="135.07,-67.76 145,-71.44 139.53,-62.36 135.07,-67.76"/>
</a>
</g>
</g>
<!-- Node6 -->
<g id="Node000006" class="node">
<title>Node6</title>
<g id="a_Node000006"><a xlink:href="SimulateurFerroviaire_8cpp.html" target="_top" xlink:title="Point d&#39;entrée unique de l&#39;application Win32.">
<polygon fill="white" stroke="#666666" points="320,-30 174,-30 174,0 320,0 320,-30"/>
<text text-anchor="start" x="182" y="-18" font-family="Helvetica,sans-Serif" font-size="10.00">SimulateurFerroviaire</text>
<text text-anchor="middle" x="247" y="-7" font-family="Helvetica,sans-Serif" font-size="10.00">/SimulateurFerroviaire.cpp</text>
</a>
</g>
</g>
<!-- Node4&#45;&gt;Node6 -->
<g id="edge5_Node000004_Node000006" class="edge">
<title>Node4&#45;&gt;Node6</title>
<g id="a_edge5_Node000004_Node000006"><a xlink:title=" ">
<path fill="none" stroke="#63b8ff" d="M187.31,-64.81C201.02,-53.59 217.62,-40.02 229.82,-30.04"/>
<polygon fill="#63b8ff" stroke="#63b8ff" points="184.73,-62.4 179.2,-71.44 189.16,-67.82 184.73,-62.4"/>
</a>
</g>
</g>
<!-- Node8&#45;&gt;Node3 -->
<g id="edge8_Node000008_Node000003" class="edge">
<title>Node8&#45;&gt;Node3</title>
<g id="a_edge8_Node000008_Node000003"><a xlink:title=" ">
<path fill="none" stroke="#63b8ff" d="M347.73,-216.41C314.93,-204.05 275.59,-189.22 247.37,-178.58"/>
<polygon fill="#63b8ff" stroke="#63b8ff" points="346.64,-219.74 357.23,-219.99 349.11,-213.19 346.64,-219.74"/>
</a>
</g>
</g>
<!-- Node9 -->
<g id="Node000009" class="node">
<title>Node9</title>
<g id="a_Node000009"><a xlink:href="WebViewPanel_8cpp.html" target="_top" xlink:title=" ">
<polygon fill="white" stroke="#666666" points="451.5,-184 302.5,-184 302.5,-143 451.5,-143 451.5,-184"/>
<text text-anchor="start" x="310.5" y="-172" font-family="Helvetica,sans-Serif" font-size="10.00">SimulateurFerroviaire</text>
<text text-anchor="start" x="310.5" y="-161" font-family="Helvetica,sans-Serif" font-size="10.00">/Engine/HMI/WebViewPanel</text>
<text text-anchor="middle" x="377" y="-150" font-family="Helvetica,sans-Serif" font-size="10.00">/WebViewPanel.cpp</text>
</a>
</g>
</g>
<!-- Node8&#45;&gt;Node9 -->
<g id="edge9_Node000008_Node000009" class="edge">
<title>Node8&#45;&gt;Node9</title>
<g id="a_edge9_Node000008_Node000009"><a xlink:title=" ">
<path fill="none" stroke="#63b8ff" d="M396.65,-210.55C392.87,-201.69 388.8,-192.15 385.35,-184.07"/>
<polygon fill="#63b8ff" stroke="#63b8ff" points="393.45,-211.97 400.59,-219.79 399.89,-209.22 393.45,-211.97"/>
</a>
</g>
</g>
<!-- Node10&#45;&gt;Node7 -->
<g id="edge11_Node000010_Node000007" class="edge">
<title>Node10&#45;&gt;Node7</title>
<g id="a_edge11_Node000010_Node000007"><a xlink:title=" ">
<path fill="none" stroke="#63b8ff" d="M478.09,-139.57C443.55,-127.17 402.01,-112.26 372.24,-101.58"/>
<polygon fill="#63b8ff" stroke="#63b8ff" points="477.04,-142.91 487.63,-142.99 479.4,-136.32 477.04,-142.91"/>
</a>
</g>
</g>
<!-- Node11 -->
<g id="Node000011" class="node">
<title>Node11</title>
<g id="a_Node000011"><a xlink:href="GeoJsonExporter_8cpp.html" target="_top" xlink:title="Implémentation de l&#39;exporteur GeoJSON.">
<polygon fill="white" stroke="#666666" points="576.5,-107 431.5,-107 431.5,-66 576.5,-66 576.5,-107"/>
<text text-anchor="start" x="439.5" y="-95" font-family="Helvetica,sans-Serif" font-size="10.00">SimulateurFerroviaire</text>
<text text-anchor="start" x="439.5" y="-84" font-family="Helvetica,sans-Serif" font-size="10.00">/Modules/GeoJsonExporter</text>
<text text-anchor="middle" x="504" y="-73" font-family="Helvetica,sans-Serif" font-size="10.00">/GeoJsonExporter.cpp</text>
</a>
</g>
</g>
<!-- Node10&#45;&gt;Node11 -->
<g id="edge12_Node000010_Node000011" class="edge">
<title>Node10&#45;&gt;Node11</title>
<g id="a_edge12_Node000010_Node000011"><a xlink:title=" ">
<path fill="none" stroke="#63b8ff" d="M527.47,-133.83C522.94,-124.89 518.05,-115.24 513.92,-107.07"/>
<polygon fill="#63b8ff" stroke="#63b8ff" points="524.37,-135.46 532.02,-142.79 530.62,-132.29 524.37,-135.46"/>
</a>
</g>
</g>
<!-- Node12 -->
<g id="Node000012" class="node">
<title>Node12</title>
<g id="a_Node000012"><a xlink:href="GeoParser_8cpp.html" target="_top" xlink:title="Implémentation du pipeline GeoParser.">
<polygon fill="white" stroke="#666666" points="1089.5,-30 904.5,-30 904.5,0 1089.5,0 1089.5,-30"/>
<text text-anchor="start" x="912.5" y="-18" font-family="Helvetica,sans-Serif" font-size="10.00">SimulateurFerroviaire</text>
<text text-anchor="middle" x="997" y="-7" font-family="Helvetica,sans-Serif" font-size="10.00">/Modules/GeoParser/GeoParser.cpp</text>
</a>
</g>
</g>
<!-- Node10&#45;&gt;Node12 -->
<g id="edge13_Node000010_Node000012" class="edge">
<title>Node10&#45;&gt;Node12</title>
<g id="a_edge13_Node000010_Node000012"><a xlink:title=" ">
<path fill="none" stroke="#63b8ff" d="M563.25,-134.95C583.49,-109.49 613.16,-74.37 629,-66 675.32,-41.53 811.11,-27.98 904.13,-21.34"/>
<polygon fill="#63b8ff" stroke="#63b8ff" points="560.48,-132.81 557.04,-142.84 565.98,-137.15 560.48,-132.81"/>
</a>
</g>
</g>
<!-- Node13&#45;&gt;Node12 -->
<g id="edge16_Node000013_Node000012" class="edge">
<title>Node13&#45;&gt;Node12</title>
<g id="a_edge16_Node000013_Node000012"><a xlink:title=" ">
<path fill="none" stroke="#63b8ff" d="M667.42,-210.8C657.36,-190.33 649.21,-163 663,-143 716.88,-64.86 825.66,-34.76 904.47,-23.19"/>
<polygon fill="#63b8ff" stroke="#63b8ff" points="664.34,-212.47 672.1,-219.68 670.53,-209.2 664.34,-212.47"/>
</a>
</g>
</g>
<!-- Node14 -->
<g id="Node000014" class="node">
<title>Node14</title>
<g id="a_Node000014"><a xlink:href="DoubleSwitchDetector_8cpp.html" target="_top" xlink:title="Implémentation phases 7 et 8 — doubles aiguilles et validation CDC.">
<polygon fill="white" stroke="#666666" points="854.5,-184 671.5,-184 671.5,-143 854.5,-143 854.5,-184"/>
<text text-anchor="start" x="679.5" y="-172" font-family="Helvetica,sans-Serif" font-size="10.00">SimulateurFerroviaire</text>
<text text-anchor="start" x="679.5" y="-161" font-family="Helvetica,sans-Serif" font-size="10.00">/Modules/GeoParser/DoubleSwitch</text>
<text text-anchor="middle" x="763" y="-150" font-family="Helvetica,sans-Serif" font-size="10.00">Detector.cpp</text>
</a>
</g>
</g>
<!-- Node13&#45;&gt;Node14 -->
<g id="edge15_Node000013_Node000014" class="edge">
<title>Node13&#45;&gt;Node14</title>
<g id="a_edge15_Node000013_Node000014"><a xlink:title=" ">
<path fill="none" stroke="#63b8ff" d="M712.78,-212.79C722.63,-203.32 733.53,-192.84 742.64,-184.07"/>
<polygon fill="#63b8ff" stroke="#63b8ff" points="710.28,-210.34 705.49,-219.79 715.13,-215.39 710.28,-210.34"/>
</a>
</g>
</g>
<!-- Node15&#45;&gt;Node12 -->
<g id="edge18_Node000015_Node000012" class="edge">
<title>Node15&#45;&gt;Node12</title>
<g id="a_edge18_Node000015_Node000012"><a xlink:title=" ">
<path fill="none" stroke="#63b8ff" d="M884.39,-215.35C887.04,-195.27 892.43,-166.32 903,-143 923.62,-97.53 962.43,-52.52 983.15,-30.3"/>
<polygon fill="#63b8ff" stroke="#63b8ff" points="880.89,-215.16 883.18,-225.5 887.84,-215.98 880.89,-215.16"/>
</a>
</g>
</g>
<!-- Node15&#45;&gt;Node16 -->
<g id="edge19_Node000015_Node000016" class="edge">
<title>Node15&#45;&gt;Node16</title>
<g id="a_edge19_Node000015_Node000016"><a xlink:title=" ">
<path fill="none" stroke="#63b8ff" d="M912.03,-219.91C928.9,-208.91 949.89,-195.22 966.79,-184.2"/>
<polygon fill="#63b8ff" stroke="#63b8ff" points="910.09,-217 903.63,-225.39 913.92,-222.86 910.09,-217"/>
</a>
</g>
</g>
<!-- Node17&#45;&gt;Node12 -->
<g id="edge22_Node000017_Node000012" class="edge">
<title>Node17&#45;&gt;Node12</title>
<g id="a_edge22_Node000017_Node000012"><a xlink:title=" ">
<path fill="none" stroke="#63b8ff" d="M1159.08,-217.49C1150.07,-207.4 1139.37,-195.2 1130,-184 1083.23,-128.07 1030.11,-59.3 1007.79,-30.14"/>
<polygon fill="#63b8ff" stroke="#63b8ff" points="1156.61,-219.97 1165.89,-225.08 1161.82,-215.3 1156.61,-219.97"/>
</a>
</g>
</g>
<!-- Node18 -->
<g id="Node000018" class="node">
<title>Node18</title>
<g id="a_Node000018"><a xlink:href="GraphBuilder_8cpp.html" target="_top" xlink:title="Implémentation des phases 1 et 2 — chargement GeoJSON et construction du graphe.">
<polygon fill="white" stroke="#666666" points="1339,-178.5 1139,-178.5 1139,-148.5 1339,-148.5 1339,-178.5"/>
<text text-anchor="start" x="1147" y="-166.5" font-family="Helvetica,sans-Serif" font-size="10.00">SimulateurFerroviaire</text>
<text text-anchor="middle" x="1239" y="-155.5" font-family="Helvetica,sans-Serif" font-size="10.00">/Modules/GeoParser/GraphBuilder.cpp</text>
</a>
</g>
</g>
<!-- Node17&#45;&gt;Node18 -->
<g id="edge23_Node000017_Node000018" class="edge">
<title>Node17&#45;&gt;Node18</title>
<g id="a_edge23_Node000017_Node000018"><a xlink:title=" ">
<path fill="none" stroke="#63b8ff" d="M1196.81,-217.24C1206.84,-204.7 1219.06,-189.42 1227.77,-178.54"/>
<polygon fill="#63b8ff" stroke="#63b8ff" points="1193.8,-215.4 1190.29,-225.39 1199.27,-219.77 1193.8,-215.4"/>
</a>
</g>
</g>
<!-- Node17&#45;&gt;Node19 -->
<g id="edge24_Node000017_Node000019" class="edge">
<title>Node17&#45;&gt;Node19</title>
<g id="a_edge24_Node000017_Node000019"><a xlink:title=" ">
<path fill="none" stroke="#63b8ff" d="M1236.93,-222.66C1276.25,-211.23 1328.36,-196.08 1369.55,-184.11"/>
<polygon fill="#63b8ff" stroke="#63b8ff" points="1235.85,-219.33 1227.23,-225.48 1237.8,-226.05 1235.85,-219.33"/>
</a>
</g>
</g>
<!-- Node19&#45;&gt;Node12 -->
<g id="edge25_Node000019_Node000012" class="edge">
<title>Node19&#45;&gt;Node12</title>
<g id="a_edge25_Node000019_Node000012"><a xlink:title=" ">
<path fill="none" stroke="#63b8ff" d="M1347.53,-140.28C1311.68,-130.83 1270.14,-119.18 1233,-107 1213.28,-100.54 1094.05,-54.02 1032.98,-30.11"/>
<polygon fill="#63b8ff" stroke="#63b8ff" points="1346.93,-143.74 1357.49,-142.89 1348.7,-136.97 1346.93,-143.74"/>
</a>
</g>
</g>
<!-- Node19&#45;&gt;Node20 -->
<g id="edge26_Node000019_Node000020" class="edge">
<title>Node19&#45;&gt;Node20</title>
<g id="a_edge26_Node000019_Node000020"><a xlink:title=" ">
<path fill="none" stroke="#63b8ff" d="M1467.19,-136.17C1480.52,-124.55 1495.66,-111.34 1506.8,-101.63"/>
<polygon fill="#63b8ff" stroke="#63b8ff" points="1464.83,-133.58 1459.6,-142.79 1469.43,-138.86 1464.83,-133.58"/>
</a>
</g>
</g>
<!-- Node22 -->
<g id="Node000022" class="node">
<title>Node22</title>
<g id="a_Node000022"><a xlink:href="TopologyExtractor_8cpp.html" target="_top" xlink:title="Implémentation des phases 3, 4, 5a et 5b du pipeline GeoParser.">
<polygon fill="white" stroke="#666666" points="1402,-107 1242,-107 1242,-66 1402,-66 1402,-107"/>
<text text-anchor="start" x="1250" y="-95" font-family="Helvetica,sans-Serif" font-size="10.00">SimulateurFerroviaire</text>
<text text-anchor="start" x="1250" y="-84" font-family="Helvetica,sans-Serif" font-size="10.00">/Modules/GeoParser/Topology</text>
<text text-anchor="middle" x="1322" y="-73" font-family="Helvetica,sans-Serif" font-size="10.00">Extractor.cpp</text>
</a>
</g>
</g>
<!-- Node19&#45;&gt;Node22 -->
<g id="edge29_Node000019_Node000022" class="edge">
<title>Node19&#45;&gt;Node22</title>
<g id="a_edge29_Node000019_Node000022"><a xlink:title=" ">
<path fill="none" stroke="#63b8ff" d="M1398.47,-137.37C1383.38,-127.53 1366.33,-116.41 1352.16,-107.17"/>
<polygon fill="#63b8ff" stroke="#63b8ff" points="1396.8,-140.46 1407.09,-142.99 1400.62,-134.6 1396.8,-140.46"/>
</a>
</g>
</g>
<!-- Node20&#45;&gt;Node12 -->
<g id="edge27_Node000020_Node000012" class="edge">
<title>Node20&#45;&gt;Node12</title>
<g id="a_edge27_Node000020_Node000012"><a xlink:title=" ">
<path fill="none" stroke="#63b8ff" d="M1435.56,-69.82C1427.27,-68.47 1418.98,-67.18 1411,-66 1300.88,-49.77 1173.7,-35 1089.67,-25.79"/>
<polygon fill="#63b8ff" stroke="#63b8ff" points="1435.23,-73.32 1445.66,-71.49 1436.37,-66.41 1435.23,-73.32"/>
</a>
</g>
</g>
<!-- Node21 -->
<g id="Node000021" class="node">
<title>Node21</title>
<g id="a_Node000021"><a xlink:href="SwitchOrientator_8cpp.html" target="_top" xlink:title="Implémentation des phases 6, 6b, 6c et 6d — orientation des aiguillages.">
<polygon fill="white" stroke="#666666" points="1632,-30 1414,-30 1414,0 1632,0 1632,-30"/>
<text text-anchor="start" x="1422" y="-18" font-family="Helvetica,sans-Serif" font-size="10.00">SimulateurFerroviaire</text>
<text text-anchor="middle" x="1523" y="-7" font-family="Helvetica,sans-Serif" font-size="10.00">/Modules/GeoParser/SwitchOrientator.cpp</text>
</a>
</g>
</g>
<!-- Node20&#45;&gt;Node21 -->
<g id="edge28_Node000020_Node000021" class="edge">
<title>Node20&#45;&gt;Node21</title>
<g id="a_edge28_Node000020_Node000021"><a xlink:title=" ">
<path fill="none" stroke="#63b8ff" d="M1523,-61.25C1523,-50.81 1523,-38.99 1523,-30.04"/>
<polygon fill="#63b8ff" stroke="#63b8ff" points="1519.5,-61.44 1523,-71.44 1526.5,-61.44 1519.5,-61.44"/>
</a>
</g>
</g>
</g>
</svg>
