<?xml version="1.0" encoding="UTF-8" standalone="no"?>
<!DOCTYPE svg PUBLIC "-//W3C//DTD SVG 1.1//EN"
 "http://www.w3.org/Graphics/SVG/1.1/DTD/svg11.dtd">
<!-- Generated by graphviz version 2.43.0 (0)
 -->
<!-- Title: SimulateurFerroviaire/Engine/Core/Logger/Logger.h Pages: 1 -->
<svg width="1115pt" height="335pt"
 viewBox="0.00 0.00 1115.00 335.00" xmlns="http://www.w3.org/2000/svg" xmlns:xlink="http://www.w3.org/1999/xlink">
<g id="graph0" class="graph" transform="scale(1 1) rotate(0) translate(4 331)">
<title>SimulateurFerroviaire/Engine/Core/Logger/Logger.h</title>
<!-- Node1 -->
<g id="Node000001" class="node">
<title>Node1</title>
<g id="a_Node000001"><a xlink:title="Système de journalisation à 5 niveaux de trace, un fichier par moteur.">
<polygon fill="#999999" stroke="#666666" points="671,-327 513,-327 513,-297 671,-297 671,-327"/>
<text text-anchor="start" x="521" y="-315" font-family="Helvetica,sans-Serif" font-size="10.00">SimulateurFerroviaire</text>
<text text-anchor="middle" x="592" y="-304" font-family="Helvetica,sans-Serif" font-size="10.00">/Engine/Core/Logger/Logger.h</text>
</a>
</g>
</g>
<!-- Node2 -->
<g id="Node000002" class="node">
<title>Node2</title>
<g id="a_Node000002"><a xlink:href="Logger_8cpp.html" target="_top" xlink:title="Implémentation du Logger à 5 niveaux de trace.">
<polygon fill="white" stroke="#666666" points="170,-255.5 0,-255.5 0,-225.5 170,-225.5 170,-255.5"/>
<text text-anchor="start" x="8" y="-243.5" font-family="Helvetica,sans-Serif" font-size="10.00">SimulateurFerroviaire</text>
<text text-anchor="middle" x="85" y="-232.5" font-family="Helvetica,sans-Serif" font-size="10.00">/Engine/Core/Logger/Logger.cpp</text>
</a>
</g>
</g>
<!-- Node1&#45;&gt;Node2 -->
<g id="edge1_Node000001_Node000002" class="edge">
<title>Node1&#45;&gt;Node2</title>
<g id="a_edge1_Node000001_Node000002"><a xlink:title=" ">
<path fill="none" stroke="#63b8ff" d="M502.93,-302.4C419.08,-293.79 290.12,-279.22 179,-261 169.3,-259.41 159.07,-257.52 149.08,-255.54"/>
<polygon fill="#63b8ff" stroke="#63b8ff" points="502.63,-305.89 512.93,-303.42 503.34,-298.93 502.63,-305.89"/>
</a>
</g>
</g>
<!-- Node3 -->
<g id="Node000003" class="node">
<title>Node3</title>
<g id="a_Node000003"><a xlink:href="DoubleSwitchDetector_8h.html" target="_top" xlink:title="Phases 7 et 8 — détection des doubles aiguilles et validation CDC.">
<polygon fill="white" stroke="#666666" points="371.5,-261 188.5,-261 188.5,-220 371.5,-220 371.5,-261"/>
<text text-anchor="start" x="196.5" y="-249" font-family="Helvetica,sans-Serif" font-size="10.00">SimulateurFerroviaire</text>
<text text-anchor="start" x="196.5" y="-238" font-family="Helvetica,sans-Serif" font-size="10.00">/Modules/GeoParser/DoubleSwitch</text>
<text text-anchor="middle" x="280" y="-227" font-family="Helvetica,sans-Serif" font-size="10.00">Detector.h</text>
</a>
</g>
</g>
<!-- Node1&#45;&gt;Node3 -->
<g id="edge2_Node000001_Node000003" class="edge">
<title>Node1&#45;&gt;Node3</title>
<g id="a_edge2_Node000001_Node000003"><a xlink:title=" ">
<path fill="none" stroke="#63b8ff" d="M518.83,-294.7C473.59,-284.62 415.26,-271.63 367.57,-261.01"/>
<polygon fill="#63b8ff" stroke="#63b8ff" points="518.34,-298.18 528.86,-296.94 519.86,-291.35 518.34,-298.18"/>
</a>
</g>
</g>
<!-- Node6 -->
<g id="Node000006" class="node">
<title>Node6</title>
<g id="a_Node000006"><a xlink:href="GeoParser_8h.html" target="_top" xlink:title="Orchestrateur principal du pipeline GeoJSON ferroviaire.">
<polygon fill="white" stroke="#666666" points="564,-255.5 390,-255.5 390,-225.5 564,-225.5 564,-255.5"/>
<text text-anchor="start" x="398" y="-243.5" font-family="Helvetica,sans-Serif" font-size="10.00">SimulateurFerroviaire</text>
<text text-anchor="middle" x="477" y="-232.5" font-family="Helvetica,sans-Serif" font-size="10.00">/Modules/GeoParser/GeoParser.h</text>
</a>
</g>
</g>
<!-- Node1&#45;&gt;Node6 -->
<g id="edge5_Node000001_Node000006" class="edge">
<title>Node1&#45;&gt;Node6</title>
<g id="a_edge5_Node000001_Node000006"><a xlink:title=" ">
<path fill="none" stroke="#63b8ff" d="M560.1,-291.72C541.12,-280.25 517.45,-265.95 500.24,-255.54"/>
<polygon fill="#63b8ff" stroke="#63b8ff" points="558.36,-294.76 568.73,-296.94 561.98,-288.77 558.36,-294.76"/>
</a>
</g>
</g>
<!-- Node7 -->
<g id="Node000007" class="node">
<title>Node7</title>
<g id="a_Node000007"><a xlink:href="GeoParsingTask_8cpp.html" target="_top" xlink:title="Implémentation de la tâche de parsing GeoJSON asynchrone.">
<polygon fill="white" stroke="#666666" points="557.5,-178.5 396.5,-178.5 396.5,-148.5 557.5,-148.5 557.5,-178.5"/>
<text text-anchor="start" x="404.5" y="-166.5" font-family="Helvetica,sans-Serif" font-size="10.00">SimulateurFerroviaire</text>
<text text-anchor="middle" x="477" y="-155.5" font-family="Helvetica,sans-Serif" font-size="10.00">/Modules/GeoParsingTask.cpp</text>
</a>
</g>
</g>
<!-- Node1&#45;&gt;Node7 -->
<g id="edge19_Node000001_Node000007" class="edge">
<title>Node1&#45;&gt;Node7</title>
<g id="a_edge19_Node000001_Node000007"><a xlink:title=" ">
<path fill="none" stroke="#63b8ff" d="M592.21,-286.94C591.24,-267.24 587.13,-239.53 573,-220 559.23,-200.97 536.79,-187.47 517.06,-178.56"/>
<polygon fill="#63b8ff" stroke="#63b8ff" points="588.71,-287.06 592.47,-296.96 595.71,-286.88 588.71,-287.06"/>
</a>
</g>
</g>
<!-- Node8 -->
<g id="Node000008" class="node">
<title>Node8</title>
<g id="a_Node000008"><a xlink:href="GraphBuilder_8h.html" target="_top" xlink:title="Phases 1 et 2 du pipeline — chargement GeoJSON et construction du graphe métrique.">
<polygon fill="white" stroke="#666666" points="808,-255.5 620,-255.5 620,-225.5 808,-225.5 808,-255.5"/>
<text text-anchor="start" x="628" y="-243.5" font-family="Helvetica,sans-Serif" font-size="10.00">SimulateurFerroviaire</text>
<text text-anchor="middle" x="714" y="-232.5" font-family="Helvetica,sans-Serif" font-size="10.00">/Modules/GeoParser/GraphBuilder.h</text>
</a>
</g>
</g>
<!-- Node1&#45;&gt;Node8 -->
<g id="edge8_Node000001_Node000008" class="edge">
<title>Node1&#45;&gt;Node8</title>
<g id="a_edge8_Node000001_Node000008"><a xlink:title=" ">
<path fill="none" stroke="#63b8ff" d="M625.56,-291.88C645.75,-280.38 671,-265.99 689.35,-255.54"/>
<polygon fill="#63b8ff" stroke="#63b8ff" points="623.65,-288.94 616.69,-296.94 627.11,-295.03 623.65,-288.94"/>
</a>
</g>
</g>
<!-- Node10 -->
<g id="Node000010" class="node">
<title>Node10</title>
<g id="a_Node000010"><a xlink:href="TopologyExtractor_8h.html" target="_top" xlink:title="Phases 3, 4, 5a et 5b — extraction de la topologie ferroviaire depuis le graphe.">
<polygon fill="white" stroke="#666666" points="992,-184 832,-184 832,-143 992,-143 992,-184"/>
<text text-anchor="start" x="840" y="-172" font-family="Helvetica,sans-Serif" font-size="10.00">SimulateurFerroviaire</text>
<text text-anchor="start" x="840" y="-161" font-family="Helvetica,sans-Serif" font-size="10.00">/Modules/GeoParser/Topology</text>
<text text-anchor="middle" x="912" y="-150" font-family="Helvetica,sans-Serif" font-size="10.00">Extractor.h</text>
</a>
</g>
</g>
<!-- Node1&#45;&gt;Node10 -->
<g id="edge18_Node000001_Node000010" class="edge">
<title>Node1&#45;&gt;Node10</title>
<g id="a_edge18_Node000001_Node000010"><a xlink:title=" ">
<path fill="none" stroke="#63b8ff" d="M681.08,-303.11C724.22,-296.4 775.52,-283.98 817,-261 851.55,-241.86 881.66,-206.28 898.29,-184.08"/>
<polygon fill="#63b8ff" stroke="#63b8ff" points="680.54,-299.66 671.16,-304.58 681.57,-306.58 680.54,-299.66"/>
</a>
</g>
</g>
<!-- Node11 -->
<g id="Node000011" class="node">
<title>Node11</title>
<g id="a_Node000011"><a xlink:href="SwitchOrientator_8h.html" target="_top" xlink:title="Phases 6, 6b et 6c — orientation géométrique des aiguillages.">
<polygon fill="white" stroke="#666666" points="1101,-101.5 895,-101.5 895,-71.5 1101,-71.5 1101,-101.5"/>
<text text-anchor="start" x="903" y="-89.5" font-family="Helvetica,sans-Serif" font-size="10.00">SimulateurFerroviaire</text>
<text text-anchor="middle" x="998" y="-78.5" font-family="Helvetica,sans-Serif" font-size="10.00">/Modules/GeoParser/SwitchOrientator.h</text>
</a>
</g>
</g>
<!-- Node1&#45;&gt;Node11 -->
<g id="edge17_Node000001_Node000011" class="edge">
<title>Node1&#45;&gt;Node11</title>
<g id="a_edge17_Node000001_Node000011"><a xlink:title=" ">
<path fill="none" stroke="#63b8ff" d="M681.21,-300.91C733.21,-293.37 799.47,-280.85 856,-261 924.85,-236.83 963.4,-246.54 1001,-184 1016.37,-158.43 1008.92,-121.76 1002.95,-101.8"/>
<polygon fill="#63b8ff" stroke="#63b8ff" points="680.42,-297.49 671.01,-302.36 681.4,-304.42 680.42,-297.49"/>
</a>
</g>
</g>
<!-- Node4 -->
<g id="Node000004" class="node">
<title>Node4</title>
<g id="a_Node000004"><a xlink:href="DoubleSwitchDetector_8cpp.html" target="_top" xlink:title="Implémentation phases 7 et 8 — doubles aiguilles et validation CDC.">
<polygon fill="white" stroke="#666666" points="301.5,-184 118.5,-184 118.5,-143 301.5,-143 301.5,-184"/>
<text text-anchor="start" x="126.5" y="-172" font-family="Helvetica,sans-Serif" font-size="10.00">SimulateurFerroviaire</text>
<text text-anchor="start" x="126.5" y="-161" font-family="Helvetica,sans-Serif" font-size="10.00">/Modules/GeoParser/DoubleSwitch</text>
<text text-anchor="middle" x="210" y="-150" font-family="Helvetica,sans-Serif" font-size="10.00">Detector.cpp</text>
</a>
</g>
</g>
<!-- Node3&#45;&gt;Node4 -->
<g id="edge3_Node000003_Node000004" class="edge">
<title>Node3&#45;&gt;Node4</title>
<g id="a_edge3_Node000003_Node000004"><a xlink:title=" ">
<path fill="none" stroke="#63b8ff" d="M254.55,-212.23C245.85,-202.91 236.29,-192.67 228.27,-184.07"/>
<polygon fill="#63b8ff" stroke="#63b8ff" points="252.23,-214.87 261.61,-219.79 257.34,-210.1 252.23,-214.87"/>
</a>
</g>
</g>
<!-- Node5 -->
<g id="Node000005" class="node">
<title>Node5</title>
<g id="a_Node000005"><a xlink:href="GeoParser_8cpp.html" target="_top" xlink:title="Implémentation du pipeline GeoParser.">
<polygon fill="white" stroke="#666666" points="678.5,-30 493.5,-30 493.5,0 678.5,0 678.5,-30"/>
<text text-anchor="start" x="501.5" y="-18" font-family="Helvetica,sans-Serif" font-size="10.00">SimulateurFerroviaire</text>
<text text-anchor="middle" x="586" y="-7" font-family="Helvetica,sans-Serif" font-size="10.00">/Modules/GeoParser/GeoParser.cpp</text>
</a>
</g>
</g>
<!-- Node3&#45;&gt;Node5 -->
<g id="edge4_Node000003_Node000005" class="edge">
<title>Node3&#45;&gt;Node5</title>
<g id="a_edge4_Node000003_Node000005"><a xlink:title=" ">
<path fill="none" stroke="#63b8ff" d="M297.94,-211.25C326.33,-167.34 381.35,-85.7 410,-66 435,-48.81 465.84,-37.49 494.68,-30.05"/>
<polygon fill="#63b8ff" stroke="#63b8ff" points="294.93,-209.46 292.46,-219.76 300.82,-213.24 294.93,-209.46"/>
</a>
</g>
</g>
<!-- Node6&#45;&gt;Node5 -->
<g id="edge6_Node000006_Node000005" class="edge">
<title>Node6&#45;&gt;Node5</title>
<g id="a_edge6_Node000006_Node000005"><a xlink:title=" ">
<path fill="none" stroke="#63b8ff" d="M427.59,-220.73C411.74,-212.08 395.98,-200.08 387,-184 378.12,-168.09 378.24,-158.98 387,-143 419.6,-83.52 493.22,-47.87 541.2,-30.09"/>
<polygon fill="#63b8ff" stroke="#63b8ff" points="426.38,-224.04 436.88,-225.44 429.54,-217.79 426.38,-224.04"/>
</a>
</g>
</g>
<!-- Node6&#45;&gt;Node7 -->
<g id="edge7_Node000006_Node000007" class="edge">
<title>Node6&#45;&gt;Node7</title>
<g id="a_edge7_Node000006_Node000007"><a xlink:title=" ">
<path fill="none" stroke="#63b8ff" d="M477,-215.04C477,-202.95 477,-188.79 477,-178.54"/>
<polygon fill="#63b8ff" stroke="#63b8ff" points="473.5,-215.39 477,-225.39 480.5,-215.39 473.5,-215.39"/>
</a>
</g>
</g>
<!-- Node8&#45;&gt;Node5 -->
<g id="edge9_Node000008_Node000005" class="edge">
<title>Node8&#45;&gt;Node5</title>
<g id="a_edge9_Node000008_Node000005"><a xlink:title=" ">
<path fill="none" stroke="#63b8ff" d="M653.73,-221.48C635.26,-213.02 616.75,-200.94 605,-184 571.72,-136 578.7,-61.11 583.46,-30.14"/>
<polygon fill="#63b8ff" stroke="#63b8ff" points="652.47,-224.75 663.04,-225.47 655.23,-218.32 652.47,-224.75"/>
</a>
</g>
</g>
<!-- Node9 -->
<g id="Node000009" class="node">
<title>Node9</title>
<g id="a_Node000009"><a xlink:href="GraphBuilder_8cpp.html" target="_top" xlink:title="Implémentation des phases 1 et 2 — chargement GeoJSON et construction du graphe.">
<polygon fill="white" stroke="#666666" points="814,-178.5 614,-178.5 614,-148.5 814,-148.5 814,-178.5"/>
<text text-anchor="start" x="622" y="-166.5" font-family="Helvetica,sans-Serif" font-size="10.00">SimulateurFerroviaire</text>
<text text-anchor="middle" x="714" y="-155.5" font-family="Helvetica,sans-Serif" font-size="10.00">/Modules/GeoParser/GraphBuilder.cpp</text>
</a>
</g>
</g>
<!-- Node8&#45;&gt;Node9 -->
<g id="edge10_Node000008_Node000009" class="edge">
<title>Node8&#45;&gt;Node9</title>
<g id="a_edge10_Node000008_Node000009"><a xlink:title=" ">
<path fill="none" stroke="#63b8ff" d="M714,-215.04C714,-202.95 714,-188.79 714,-178.54"/>
<polygon fill="#63b8ff" stroke="#63b8ff" points="710.5,-215.39 714,-225.39 717.5,-215.39 710.5,-215.39"/>
</a>
</g>
</g>
<!-- Node8&#45;&gt;Node10 -->
<g id="edge11_Node000008_Node000010" class="edge">
<title>Node8&#45;&gt;Node10</title>
<g id="a_edge11_Node000008_Node000010"><a xlink:title=" ">
<path fill="none" stroke="#63b8ff" d="M760.63,-221.84C790.57,-210.5 829.48,-195.76 860.36,-184.06"/>
<polygon fill="#63b8ff" stroke="#63b8ff" points="759.35,-218.58 751.24,-225.39 761.83,-225.12 759.35,-218.58"/>
</a>
</g>
</g>
<!-- Node10&#45;&gt;Node5 -->
<g id="edge12_Node000010_Node000005" class="edge">
<title>Node10&#45;&gt;Node5</title>
<g id="a_edge12_Node000010_Node000005"><a xlink:title=" ">
<path fill="none" stroke="#63b8ff" d="M822.19,-141.56C777.44,-130.43 728.56,-117.01 708,-107 665.48,-86.29 622.77,-50.05 600.93,-30.12"/>
<polygon fill="#63b8ff" stroke="#63b8ff" points="821.42,-144.97 831.97,-143.97 823.1,-138.18 821.42,-144.97"/>
</a>
</g>
</g>
<!-- Node10&#45;&gt;Node11 -->
<g id="edge13_Node000010_Node000011" class="edge">
<title>Node10&#45;&gt;Node11</title>
<g id="a_edge13_Node000010_Node000011"><a xlink:title=" ">
<path fill="none" stroke="#63b8ff" d="M942.19,-136.17C955.52,-124.55 970.66,-111.34 981.8,-101.63"/>
<polygon fill="#63b8ff" stroke="#63b8ff" points="939.83,-133.58 934.6,-142.79 944.43,-138.86 939.83,-133.58"/>
</a>
</g>
</g>
<!-- Node13 -->
<g id="Node000013" class="node">
<title>Node13</title>
<g id="a_Node000013"><a xlink:href="TopologyExtractor_8cpp.html" target="_top" xlink:title="Implémentation des phases 3, 4, 5a et 5b du pipeline GeoParser.">
<polygon fill="white" stroke="#666666" points="877,-107 717,-107 717,-66 877,-66 877,-107"/>
<text text-anchor="start" x="725" y="-95" font-family="Helvetica,sans-Serif" font-size="10.00">SimulateurFerroviaire</text>
<text text-anchor="start" x="725" y="-84" font-family="Helvetica,sans-Serif" font-size="10.00">/Modules/GeoParser/Topology</text>
<text text-anchor="middle" x="797" y="-73" font-family="Helvetica,sans-Serif" font-size="10.00">Extractor.cpp</text>
</a>
</g>
</g>
<!-- Node10&#45;&gt;Node13 -->
<g id="edge16_Node000010_Node000013" class="edge">
<title>Node10&#45;&gt;Node13</title>
<g id="a_edge16_Node000010_Node000013"><a xlink:title=" ">
<path fill="none" stroke="#63b8ff" d="M873.47,-137.37C858.38,-127.53 841.33,-116.41 827.16,-107.17"/>
<polygon fill="#63b8ff" stroke="#63b8ff" points="871.8,-140.46 882.09,-142.99 875.62,-134.6 871.8,-140.46"/>
</a>
</g>
</g>
<!-- Node11&#45;&gt;Node5 -->
<g id="edge14_Node000011_Node000005" class="edge">
<title>Node11&#45;&gt;Node5</title>
<g id="a_edge14_Node000011_Node000005"><a xlink:title=" ">
<path fill="none" stroke="#63b8ff" d="M907.81,-69.74C900.43,-68.47 893.09,-67.21 886,-66 813.52,-53.65 731.13,-39.94 671.05,-30.01"/>
<polygon fill="#63b8ff" stroke="#63b8ff" points="907.42,-73.22 917.87,-71.48 908.61,-66.32 907.42,-73.22"/>
</a>
</g>
</g>
<!-- Node12 -->
<g id="Node000012" class="node">
<title>Node12</title>
<g id="a_Node000012"><a xlink:href="SwitchOrientator_8cpp.html" target="_top" xlink:title="Implémentation des phases 6, 6b et 6c — orientation des aiguillages.">
<polygon fill="white" stroke="#666666" points="1107,-30 889,-30 889,0 1107,0 1107,-30"/>
<text text-anchor="start" x="897" y="-18" font-family="Helvetica,sans-Serif" font-size="10.00">SimulateurFerroviaire</text>
<text text-anchor="middle" x="998" y="-7" font-family="Helvetica,sans-Serif" font-size="10.00">/Modules/GeoParser/SwitchOrientator.cpp</text>
</a>
</g>
</g>
<!-- Node11&#45;&gt;Node12 -->
<g id="edge15_Node000011_Node000012" class="edge">
<title>Node11&#45;&gt;Node12</title>
<g id="a_edge15_Node000011_Node000012"><a xlink:title=" ">
<path fill="none" stroke="#63b8ff" d="M998,-61.25C998,-50.81 998,-38.99 998,-30.04"/>
<polygon fill="#63b8ff" stroke="#63b8ff" points="994.5,-61.44 998,-71.44 1001.5,-61.44 994.5,-61.44"/>
</a>
</g>
</g>
</g>
</svg>
