<?xml version="1.0" encoding="UTF-8" standalone="no"?>
<!DOCTYPE svg PUBLIC "-//W3C//DTD SVG 1.1//EN"
 "http://www.w3.org/Graphics/SVG/1.1/DTD/svg11.dtd">
<!-- Generated by graphviz version 2.43.0 (0)
 -->
<!-- Title: SimulateurFerroviaire/Engine/HMI/MainWindow.h Pages: 1 -->
<svg width="1063pt" height="280pt"
 viewBox="0.00 0.00 1062.50 280.00" xmlns="http://www.w3.org/2000/svg" xmlns:xlink="http://www.w3.org/1999/xlink">
<g id="graph0" class="graph" transform="scale(1 1) rotate(0) translate(4 276)">
<title>SimulateurFerroviaire/Engine/HMI/MainWindow.h</title>
<!-- Node1 -->
<g id="Node000001" class="node">
<title>Node1</title>
<g id="a_Node000001"><a xlink:title="Déclaration de la fenêtre principale de l&#39;application.">
<polygon fill="#999999" stroke="#666666" points="743,-272 594,-272 594,-242 743,-242 743,-272"/>
<text text-anchor="start" x="602" y="-260" font-family="Helvetica,sans-Serif" font-size="10.00">SimulateurFerroviaire</text>
<text text-anchor="middle" x="668.5" y="-249" font-family="Helvetica,sans-Serif" font-size="10.00">/Engine/HMI/MainWindow.h</text>
</a>
</g>
</g>
<!-- Node2 -->
<g id="Node000002" class="node">
<title>Node2</title>
<g id="a_Node000002"><a xlink:href="framework_8h.html" target="_top" xlink:title=" ">
<polygon fill="white" stroke="#666666" points="412,-134.5 333,-134.5 333,-115.5 412,-115.5 412,-134.5"/>
<text text-anchor="middle" x="372.5" y="-122.5" font-family="Helvetica,sans-Serif" font-size="10.00">framework.h</text>
</a>
</g>
</g>
<!-- Node1&#45;&gt;Node2 -->
<g id="edge1_Node000001_Node000002" class="edge">
<title>Node1&#45;&gt;Node2</title>
<g id="a_edge1_Node000001_Node000002"><a xlink:title=" ">
<path fill="none" stroke="#63b8ff" d="M593.84,-251.6C521.94,-245.81 420.02,-233 391.5,-206 374.93,-190.31 371.65,-163.03 371.52,-144.75"/>
<polygon fill="#63b8ff" stroke="#63b8ff" points="375.02,-144.79 371.75,-134.71 368.02,-144.62 375.02,-144.79"/>
</a>
</g>
</g>
<!-- Node13 -->
<g id="Node000013" class="node">
<title>Node13</title>
<g id="a_Node000013"><a xlink:href="GeoParsingTask_8h.html" target="_top" xlink:title="Déclaration de la tâche de parsing GeoJSON asynchrone.">
<polygon fill="white" stroke="#666666" points="568.5,-206 400.5,-206 400.5,-176 568.5,-176 568.5,-206"/>
<text text-anchor="start" x="408.5" y="-194" font-family="Helvetica,sans-Serif" font-size="10.00">Modules/GeoParser/GeoParsing</text>
<text text-anchor="middle" x="484.5" y="-183" font-family="Helvetica,sans-Serif" font-size="10.00">Task.h</text>
</a>
</g>
</g>
<!-- Node1&#45;&gt;Node13 -->
<g id="edge12_Node000001_Node000013" class="edge">
<title>Node1&#45;&gt;Node13</title>
<g id="a_edge12_Node000001_Node000013"><a xlink:title=" ">
<path fill="none" stroke="#63b8ff" d="M628.12,-241.95C600.56,-232.37 563.86,-219.6 534.45,-209.37"/>
<polygon fill="#63b8ff" stroke="#63b8ff" points="535.38,-205.99 524.79,-206.01 533.08,-212.6 535.38,-205.99"/>
</a>
</g>
</g>
<!-- Node14 -->
<g id="Node000014" class="node">
<title>Node14</title>
<g id="a_Node000014"><a xlink:href="ProgressBar_8h.html" target="_top" xlink:title="Wrapper minimaliste d&#39;une ProgressBar Win32.">
<polygon fill="white" stroke="#666666" points="939.5,-200.5 797.5,-200.5 797.5,-181.5 939.5,-181.5 939.5,-200.5"/>
<text text-anchor="middle" x="868.5" y="-188.5" font-family="Helvetica,sans-Serif" font-size="10.00">Engine/HMI/ProgressBar.h</text>
</a>
</g>
</g>
<!-- Node1&#45;&gt;Node14 -->
<g id="edge15_Node000001_Node000014" class="edge">
<title>Node1&#45;&gt;Node14</title>
<g id="a_edge15_Node000001_Node000014"><a xlink:title=" ">
<path fill="none" stroke="#63b8ff" d="M712.39,-241.95C748.24,-230.48 798.31,-214.46 831.99,-203.68"/>
<polygon fill="#63b8ff" stroke="#63b8ff" points="833.43,-206.9 841.88,-200.52 831.29,-200.23 833.43,-206.9"/>
</a>
</g>
</g>
<!-- Node15 -->
<g id="Node000015" class="node">
<title>Node15</title>
<g id="a_Node000015"><a xlink:href="WebViewPanel_8h.html" target="_top" xlink:title=" ">
<polygon fill="white" stroke="#666666" points="741.5,-206 595.5,-206 595.5,-176 741.5,-176 741.5,-206"/>
<text text-anchor="start" x="603.5" y="-194" font-family="Helvetica,sans-Serif" font-size="10.00">Engine/HMI/WebViewPanel</text>
<text text-anchor="middle" x="668.5" y="-183" font-family="Helvetica,sans-Serif" font-size="10.00">/WebViewPanel.h</text>
</a>
</g>
</g>
<!-- Node1&#45;&gt;Node15 -->
<g id="edge16_Node000001_Node000015" class="edge">
<title>Node1&#45;&gt;Node15</title>
<g id="a_edge16_Node000001_Node000015"><a xlink:title=" ">
<path fill="none" stroke="#63b8ff" d="M668.5,-241.8C668.5,-234.34 668.5,-224.99 668.5,-216.41"/>
<polygon fill="#63b8ff" stroke="#63b8ff" points="672,-216.16 668.5,-206.16 665,-216.16 672,-216.16"/>
</a>
</g>
</g>
<!-- Node19 -->
<g id="Node000019" class="node">
<title>Node19</title>
<g id="a_Node000019"><a xlink:href="Logger_8h.html" target="_top" xlink:title="Système de journalisation à 5 niveaux de trace, un fichier par moteur.">
<polygon fill="white" stroke="#666666" points="928,-140 817,-140 817,-110 928,-110 928,-140"/>
<text text-anchor="start" x="825" y="-128" font-family="Helvetica,sans-Serif" font-size="10.00">Engine/Core/Logger</text>
<text text-anchor="middle" x="872.5" y="-117" font-family="Helvetica,sans-Serif" font-size="10.00">/Logger.h</text>
</a>
</g>
</g>
<!-- Node1&#45;&gt;Node19 -->
<g id="edge29_Node000001_Node000019" class="edge">
<title>Node1&#45;&gt;Node19</title>
<g id="a_edge29_Node000001_Node000019"><a xlink:title=" ">
<path fill="none" stroke="#63b8ff" d="M693.39,-241.88C709.91,-232.25 731.89,-218.95 750.5,-206 768.16,-193.71 770.77,-188.2 788.5,-176 804.4,-165.06 822.74,-153.98 838.22,-145.04"/>
<polygon fill="#63b8ff" stroke="#63b8ff" points="840.02,-148.04 846.97,-140.04 836.55,-141.96 840.02,-148.04"/>
</a>
</g>
</g>
<!-- Node3 -->
<g id="Node000003" class="node">
<title>Node3</title>
<g id="a_Node000003"><a xlink:href="targetver_8h.html" target="_top" xlink:title=" ">
<polygon fill="white" stroke="#666666" points="76.5,-74 6.5,-74 6.5,-55 76.5,-55 76.5,-74"/>
<text text-anchor="middle" x="41.5" y="-62" font-family="Helvetica,sans-Serif" font-size="10.00">targetver.h</text>
</a>
</g>
</g>
<!-- Node2&#45;&gt;Node3 -->
<g id="edge2_Node000002_Node000003" class="edge">
<title>Node2&#45;&gt;Node3</title>
<g id="a_edge2_Node000002_Node000003"><a xlink:title=" ">
<path fill="none" stroke="#63b8ff" d="M333,-117.35C279.52,-108.3 180.84,-91.42 86.55,-74.17"/>
<polygon fill="#63b8ff" stroke="#63b8ff" points="87.02,-70.69 76.55,-72.33 85.76,-77.58 87.02,-70.69"/>
</a>
</g>
</g>
<!-- Node5 -->
<g id="Node000005" class="node">
<title>Node5</title>
<g id="a_Node000005"><a xlink:title=" ">
<polygon fill="#e0e0e0" stroke="#999999" points="630.5,-74 562.5,-74 562.5,-55 630.5,-55 630.5,-74"/>
<text text-anchor="middle" x="596.5" y="-62" font-family="Helvetica,sans-Serif" font-size="10.00">windows.h</text>
</a>
</g>
</g>
<!-- Node2&#45;&gt;Node5 -->
<g id="edge4_Node000002_Node000005" class="edge">
<title>Node2&#45;&gt;Node5</title>
<g id="a_edge4_Node000002_Node000005"><a xlink:title=" ">
<path fill="none" stroke="#63b8ff" d="M405.07,-115.49C444.47,-105.2 510.89,-87.86 554.21,-76.54"/>
<polygon fill="#63b8ff" stroke="#63b8ff" points="555.1,-79.93 563.89,-74.02 553.33,-73.16 555.1,-79.93"/>
</a>
</g>
</g>
<!-- Node6 -->
<g id="Node000006" class="node">
<title>Node6</title>
<g id="a_Node000006"><a xlink:title=" ">
<polygon fill="#e0e0e0" stroke="#999999" points="148,-74 95,-74 95,-55 148,-55 148,-74"/>
<text text-anchor="middle" x="121.5" y="-62" font-family="Helvetica,sans-Serif" font-size="10.00">stdlib.h</text>
</a>
</g>
</g>
<!-- Node2&#45;&gt;Node6 -->
<g id="edge5_Node000002_Node000006" class="edge">
<title>Node2&#45;&gt;Node6</title>
<g id="a_edge5_Node000002_Node000006"><a xlink:title=" ">
<path fill="none" stroke="#63b8ff" d="M335.01,-115.45C293.93,-106.05 225.81,-90.39 158.21,-74.39"/>
<polygon fill="#63b8ff" stroke="#63b8ff" points="158.78,-70.93 148.25,-72.03 157.17,-77.74 158.78,-70.93"/>
</a>
</g>
</g>
<!-- Node7 -->
<g id="Node000007" class="node">
<title>Node7</title>
<g id="a_Node000007"><a xlink:title=" ">
<polygon fill="#e0e0e0" stroke="#999999" points="225,-74 166,-74 166,-55 225,-55 225,-74"/>
<text text-anchor="middle" x="195.5" y="-62" font-family="Helvetica,sans-Serif" font-size="10.00">malloc.h</text>
</a>
</g>
</g>
<!-- Node2&#45;&gt;Node7 -->
<g id="edge6_Node000002_Node000007" class="edge">
<title>Node2&#45;&gt;Node7</title>
<g id="a_edge6_Node000002_Node000007"><a xlink:title=" ">
<path fill="none" stroke="#63b8ff" d="M346.76,-115.49C316.22,-105.4 265.13,-88.51 230.88,-77.19"/>
<polygon fill="#63b8ff" stroke="#63b8ff" points="231.86,-73.83 221.27,-74.02 229.66,-80.48 231.86,-73.83"/>
</a>
</g>
</g>
<!-- Node8 -->
<g id="Node000008" class="node">
<title>Node8</title>
<g id="a_Node000008"><a xlink:title=" ">
<polygon fill="#e0e0e0" stroke="#999999" points="308,-74 243,-74 243,-55 308,-55 308,-74"/>
<text text-anchor="middle" x="275.5" y="-62" font-family="Helvetica,sans-Serif" font-size="10.00">memory.h</text>
</a>
</g>
</g>
<!-- Node2&#45;&gt;Node8 -->
<g id="edge7_Node000002_Node000008" class="edge">
<title>Node2&#45;&gt;Node8</title>
<g id="a_edge7_Node000002_Node000008"><a xlink:title=" ">
<path fill="none" stroke="#63b8ff" d="M358.19,-115.37C342.5,-105.91 317.1,-90.59 298.59,-79.42"/>
<polygon fill="#63b8ff" stroke="#63b8ff" points="300.24,-76.33 289.87,-74.17 296.63,-82.33 300.24,-76.33"/>
</a>
</g>
</g>
<!-- Node9 -->
<g id="Node000009" class="node">
<title>Node9</title>
<g id="a_Node000009"><a xlink:title=" ">
<polygon fill="#e0e0e0" stroke="#999999" points="376.5,-74 326.5,-74 326.5,-55 376.5,-55 376.5,-74"/>
<text text-anchor="middle" x="351.5" y="-62" font-family="Helvetica,sans-Serif" font-size="10.00">tchar.h</text>
</a>
</g>
</g>
<!-- Node2&#45;&gt;Node9 -->
<g id="edge8_Node000002_Node000009" class="edge">
<title>Node2&#45;&gt;Node9</title>
<g id="a_edge8_Node000002_Node000009"><a xlink:title=" ">
<path fill="none" stroke="#63b8ff" d="M369.4,-115.37C366.42,-107.07 361.83,-94.28 358.04,-83.72"/>
<polygon fill="#63b8ff" stroke="#63b8ff" points="361.28,-82.4 354.61,-74.17 354.7,-84.76 361.28,-82.4"/>
</a>
</g>
</g>
<!-- Node10 -->
<g id="Node000010" class="node">
<title>Node10</title>
<g id="a_Node000010"><a xlink:title=" ">
<polygon fill="#e0e0e0" stroke="#999999" points="466.5,-74 394.5,-74 394.5,-55 466.5,-55 466.5,-74"/>
<text text-anchor="middle" x="430.5" y="-62" font-family="Helvetica,sans-Serif" font-size="10.00">commctrl.h</text>
</a>
</g>
</g>
<!-- Node2&#45;&gt;Node10 -->
<g id="edge9_Node000002_Node000010" class="edge">
<title>Node2&#45;&gt;Node10</title>
<g id="a_edge9_Node000002_Node000010"><a xlink:title=" ">
<path fill="none" stroke="#63b8ff" d="M381.06,-115.37C389.88,-106.47 403.84,-92.39 414.68,-81.45"/>
<polygon fill="#63b8ff" stroke="#63b8ff" points="417.35,-83.73 421.91,-74.17 412.38,-78.8 417.35,-83.73"/>
</a>
</g>
</g>
<!-- Node11 -->
<g id="Node000011" class="node">
<title>Node11</title>
<g id="a_Node000011"><a xlink:title=" ">
<polygon fill="#e0e0e0" stroke="#999999" points="692.5,-74 648.5,-74 648.5,-55 692.5,-55 692.5,-74"/>
<text text-anchor="middle" x="670.5" y="-62" font-family="Helvetica,sans-Serif" font-size="10.00">string</text>
</a>
</g>
</g>
<!-- Node2&#45;&gt;Node11 -->
<g id="edge10_Node000002_Node000011" class="edge">
<title>Node2&#45;&gt;Node11</title>
<g id="a_edge10_Node000002_Node000011"><a xlink:title=" ">
<path fill="none" stroke="#63b8ff" d="M412.07,-117.64C462.44,-109.31 552.32,-93.69 638.29,-74.13"/>
<polygon fill="#63b8ff" stroke="#63b8ff" points="639.24,-77.5 648.2,-71.85 637.67,-70.68 639.24,-77.5"/>
</a>
</g>
</g>
<!-- Node12 -->
<g id="Node000012" class="node">
<title>Node12</title>
<g id="a_Node000012"><a xlink:title=" ">
<polygon fill="#e0e0e0" stroke="#999999" points="544.5,-74 484.5,-74 484.5,-55 544.5,-55 544.5,-74"/>
<text text-anchor="middle" x="514.5" y="-62" font-family="Helvetica,sans-Serif" font-size="10.00">iostream</text>
</a>
</g>
</g>
<!-- Node2&#45;&gt;Node12 -->
<g id="edge11_Node000002_Node000012" class="edge">
<title>Node2&#45;&gt;Node12</title>
<g id="a_edge11_Node000002_Node000012"><a xlink:title=" ">
<path fill="none" stroke="#63b8ff" d="M393.15,-115.49C417.13,-105.62 456.89,-89.23 484.33,-77.93"/>
<polygon fill="#63b8ff" stroke="#63b8ff" points="485.91,-81.06 493.83,-74.02 483.25,-74.59 485.91,-81.06"/>
</a>
</g>
</g>
<!-- Node4 -->
<g id="Node000004" class="node">
<title>Node4</title>
<g id="a_Node000004"><a xlink:title=" ">
<polygon fill="#e0e0e0" stroke="#999999" points="83,-19 0,-19 0,0 83,0 83,-19"/>
<text text-anchor="middle" x="41.5" y="-7" font-family="Helvetica,sans-Serif" font-size="10.00">SDKDDKVer.h</text>
</a>
</g>
</g>
<!-- Node3&#45;&gt;Node4 -->
<g id="edge3_Node000003_Node000004" class="edge">
<title>Node3&#45;&gt;Node4</title>
<g id="a_edge3_Node000003_Node000004"><a xlink:title=" ">
<path fill="none" stroke="#63b8ff" d="M41.5,-54.75C41.5,-47.8 41.5,-37.85 41.5,-29.13"/>
<polygon fill="#63b8ff" stroke="#63b8ff" points="45,-29.09 41.5,-19.09 38,-29.09 45,-29.09"/>
</a>
</g>
</g>
<!-- Node13&#45;&gt;Node2 -->
<g id="edge13_Node000013_Node000002" class="edge">
<title>Node13&#45;&gt;Node2</title>
<g id="a_edge13_Node000013_Node000002"><a xlink:title=" ">
<path fill="none" stroke="#63b8ff" d="M459.92,-175.95C440.97,-165.13 414.92,-150.24 396.2,-139.54"/>
<polygon fill="#63b8ff" stroke="#63b8ff" points="397.82,-136.44 387.41,-134.52 394.35,-142.52 397.82,-136.44"/>
</a>
</g>
</g>
<!-- Node13&#45;&gt;Node11 -->
<g id="edge14_Node000013_Node000011" class="edge">
<title>Node13&#45;&gt;Node11</title>
<g id="a_edge14_Node000013_Node000011"><a xlink:title=" ">
<path fill="none" stroke="#63b8ff" d="M489.26,-175.71C495.93,-157.82 509.74,-127.41 531.5,-110 540.04,-103.17 600.23,-85.33 638.56,-74.42"/>
<polygon fill="#63b8ff" stroke="#63b8ff" points="639.59,-77.77 648.26,-71.68 637.68,-71.03 639.59,-77.77"/>
</a>
</g>
</g>
<!-- Node15&#45;&gt;Node5 -->
<g id="edge17_Node000015_Node000005" class="edge">
<title>Node15&#45;&gt;Node5</title>
<g id="a_edge17_Node000015_Node000005"><a xlink:title=" ">
<path fill="none" stroke="#63b8ff" d="M595.49,-180.46C571.06,-173.4 546.3,-161.16 531.5,-140 523.86,-129.07 525.28,-121.79 531.5,-110 538.74,-96.27 552.33,-85.97 565.22,-78.76"/>
<polygon fill="#63b8ff" stroke="#63b8ff" points="567.09,-81.73 574.38,-74.05 563.89,-75.51 567.09,-81.73"/>
</a>
</g>
</g>
<!-- Node15&#45;&gt;Node11 -->
<g id="edge18_Node000015_Node000011" class="edge">
<title>Node15&#45;&gt;Node11</title>
<g id="a_edge18_Node000015_Node000011"><a xlink:title=" ">
<path fill="none" stroke="#63b8ff" d="M721.7,-175.99C739.75,-168.42 757.99,-157.01 768.5,-140 775.51,-128.66 775.72,-121.21 768.5,-110 760.86,-98.14 728.15,-84.8 702.6,-75.84"/>
<polygon fill="#63b8ff" stroke="#63b8ff" points="703.47,-72.44 692.88,-72.52 701.21,-79.06 703.47,-72.44"/>
</a>
</g>
</g>
<!-- Node16 -->
<g id="Node000016" class="node">
<title>Node16</title>
<g id="a_Node000016"><a xlink:title=" ">
<polygon fill="#e0e0e0" stroke="#999999" points="760,-134.5 719,-134.5 719,-115.5 760,-115.5 760,-134.5"/>
<text text-anchor="middle" x="739.5" y="-122.5" font-family="Helvetica,sans-Serif" font-size="10.00">wrl.h</text>
</a>
</g>
</g>
<!-- Node15&#45;&gt;Node16 -->
<g id="edge19_Node000015_Node000016" class="edge">
<title>Node15&#45;&gt;Node16</title>
<g id="a_edge19_Node000015_Node000016"><a xlink:title=" ">
<path fill="none" stroke="#63b8ff" d="M684.26,-175.8C695.43,-165.72 710.44,-152.19 721.99,-141.78"/>
<polygon fill="#63b8ff" stroke="#63b8ff" points="724.6,-144.14 729.69,-134.84 719.92,-138.94 724.6,-144.14"/>
</a>
</g>
</g>
<!-- Node17 -->
<g id="Node000017" class="node">
<title>Node17</title>
<g id="a_Node000017"><a xlink:title=" ">
<polygon fill="#e0e0e0" stroke="#999999" points="618,-134.5 541,-134.5 541,-115.5 618,-115.5 618,-134.5"/>
<text text-anchor="middle" x="579.5" y="-122.5" font-family="Helvetica,sans-Serif" font-size="10.00">WebView2.h</text>
</a>
</g>
</g>
<!-- Node15&#45;&gt;Node17 -->
<g id="edge20_Node000015_Node000017" class="edge">
<title>Node15&#45;&gt;Node17</title>
<g id="a_edge20_Node000015_Node000017"><a xlink:title=" ">
<path fill="none" stroke="#63b8ff" d="M648.75,-175.8C634.24,-165.37 614.6,-151.24 599.94,-140.69"/>
<polygon fill="#63b8ff" stroke="#63b8ff" points="601.7,-137.66 591.54,-134.66 597.62,-143.34 601.7,-137.66"/>
</a>
</g>
</g>
<!-- Node18 -->
<g id="Node000018" class="node">
<title>Node18</title>
<g id="a_Node000018"><a xlink:title=" ">
<polygon fill="#e0e0e0" stroke="#999999" points="701,-134.5 636,-134.5 636,-115.5 701,-115.5 701,-134.5"/>
<text text-anchor="middle" x="668.5" y="-122.5" font-family="Helvetica,sans-Serif" font-size="10.00">functional</text>
</a>
</g>
</g>
<!-- Node15&#45;&gt;Node18 -->
<g id="edge21_Node000015_Node000018" class="edge">
<title>Node15&#45;&gt;Node18</title>
<g id="a_edge21_Node000015_Node000018"><a xlink:title=" ">
<path fill="none" stroke="#63b8ff" d="M668.5,-175.8C668.5,-166.7 668.5,-154.79 668.5,-144.9"/>
<polygon fill="#63b8ff" stroke="#63b8ff" points="672,-144.84 668.5,-134.84 665,-144.84 672,-144.84"/>
</a>
</g>
</g>
<!-- Node15&#45;&gt;Node19 -->
<g id="edge22_Node000015_Node000019" class="edge">
<title>Node15&#45;&gt;Node19</title>
<g id="a_edge22_Node000015_Node000019"><a xlink:title=" ">
<path fill="none" stroke="#63b8ff" d="M713.27,-175.95C744.09,-166.28 785.23,-153.38 817.97,-143.11"/>
<polygon fill="#63b8ff" stroke="#63b8ff" points="819.34,-146.35 827.84,-140.01 817.25,-139.67 819.34,-146.35"/>
</a>
</g>
</g>
<!-- Node19&#45;&gt;Node11 -->
<g id="edge28_Node000019_Node000011" class="edge">
<title>Node19&#45;&gt;Node11</title>
<g id="a_edge28_Node000019_Node000011"><a xlink:title=" ">
<path fill="none" stroke="#63b8ff" d="M824.12,-109.99C786.52,-99.1 735.42,-84.3 702.69,-74.82"/>
<polygon fill="#63b8ff" stroke="#63b8ff" points="703.33,-71.37 692.76,-71.95 701.39,-78.09 703.33,-71.37"/>
</a>
</g>
</g>
<!-- Node20 -->
<g id="Node000020" class="node">
<title>Node20</title>
<g id="a_Node000020"><a xlink:title=" ">
<polygon fill="#e0e0e0" stroke="#999999" points="1054.5,-74 1010.5,-74 1010.5,-55 1054.5,-55 1054.5,-74"/>
<text text-anchor="middle" x="1032.5" y="-62" font-family="Helvetica,sans-Serif" font-size="10.00">ctime</text>
</a>
</g>
</g>
<!-- Node19&#45;&gt;Node20 -->
<g id="edge23_Node000019_Node000020" class="edge">
<title>Node19&#45;&gt;Node20</title>
<g id="a_edge23_Node000019_Node000020"><a xlink:title=" ">
<path fill="none" stroke="#63b8ff" d="M910.82,-109.99C938.25,-99.96 974.73,-86.62 1000.58,-77.17"/>
<polygon fill="#63b8ff" stroke="#63b8ff" points="1002.07,-80.35 1010.26,-73.63 999.67,-73.78 1002.07,-80.35"/>
</a>
</g>
</g>
<!-- Node21 -->
<g id="Node000021" class="node">
<title>Node21</title>
<g id="a_Node000021"><a xlink:title=" ">
<polygon fill="#e0e0e0" stroke="#999999" points="778.5,-74 710.5,-74 710.5,-55 778.5,-55 778.5,-74"/>
<text text-anchor="middle" x="744.5" y="-62" font-family="Helvetica,sans-Serif" font-size="10.00">filesystem</text>
</a>
</g>
</g>
<!-- Node19&#45;&gt;Node21 -->
<g id="edge24_Node000019_Node000021" class="edge">
<title>Node19&#45;&gt;Node21</title>
<g id="a_edge24_Node000019_Node000021"><a xlink:title=" ">
<path fill="none" stroke="#63b8ff" d="M841.84,-109.99C820.77,-100.36 793.01,-87.67 772.53,-78.31"/>
<polygon fill="#63b8ff" stroke="#63b8ff" points="773.95,-75.11 763.4,-74.14 771.04,-81.48 773.95,-75.11"/>
</a>
</g>
</g>
<!-- Node22 -->
<g id="Node000022" class="node">
<title>Node22</title>
<g id="a_Node000022"><a xlink:title=" ">
<polygon fill="#e0e0e0" stroke="#999999" points="852,-74 797,-74 797,-55 852,-55 852,-74"/>
<text text-anchor="middle" x="824.5" y="-62" font-family="Helvetica,sans-Serif" font-size="10.00">fstream</text>
</a>
</g>
</g>
<!-- Node19&#45;&gt;Node22 -->
<g id="edge25_Node000019_Node000022" class="edge">
<title>Node19&#45;&gt;Node22</title>
<g id="a_edge25_Node000019_Node000022"><a xlink:title=" ">
<path fill="none" stroke="#63b8ff" d="M860.88,-109.84C854.06,-101.52 845.39,-90.96 838.23,-82.23"/>
<polygon fill="#63b8ff" stroke="#63b8ff" points="840.74,-79.78 831.69,-74.27 835.33,-84.22 840.74,-79.78"/>
</a>
</g>
</g>
<!-- Node23 -->
<g id="Node000023" class="node">
<title>Node23</title>
<g id="a_Node000023"><a xlink:title=" ">
<polygon fill="#e0e0e0" stroke="#999999" points="918.5,-74 870.5,-74 870.5,-55 918.5,-55 918.5,-74"/>
<text text-anchor="middle" x="894.5" y="-62" font-family="Helvetica,sans-Serif" font-size="10.00">mutex</text>
</a>
</g>
</g>
<!-- Node19&#45;&gt;Node23 -->
<g id="edge26_Node000019_Node000023" class="edge">
<title>Node19&#45;&gt;Node23</title>
<g id="a_edge26_Node000019_Node000023"><a xlink:title=" ">
<path fill="none" stroke="#63b8ff" d="M877.83,-109.84C880.76,-102.04 884.43,-92.27 887.58,-83.89"/>
<polygon fill="#63b8ff" stroke="#63b8ff" points="890.96,-84.86 891.2,-74.27 884.41,-82.39 890.96,-84.86"/>
</a>
</g>
</g>
<!-- Node24 -->
<g id="Node000024" class="node">
<title>Node24</title>
<g id="a_Node000024"><a xlink:title=" ">
<polygon fill="#e0e0e0" stroke="#999999" points="992.5,-74 936.5,-74 936.5,-55 992.5,-55 992.5,-74"/>
<text text-anchor="middle" x="964.5" y="-62" font-family="Helvetica,sans-Serif" font-size="10.00">sstream</text>
</a>
</g>
</g>
<!-- Node19&#45;&gt;Node24 -->
<g id="edge27_Node000019_Node000024" class="edge">
<title>Node19&#45;&gt;Node24</title>
<g id="a_edge27_Node000019_Node000024"><a xlink:title=" ">
<path fill="none" stroke="#63b8ff" d="M894.77,-109.84C909.17,-100.68 927.83,-88.82 942.23,-79.66"/>
<polygon fill="#63b8ff" stroke="#63b8ff" points="944.42,-82.41 950.98,-74.09 940.67,-76.51 944.42,-82.41"/>
</a>
</g>
</g>
</g>
</svg>
