<?xml version="1.0" encoding="UTF-8" standalone="no"?>
<!DOCTYPE svg PUBLIC "-//W3C//DTD SVG 1.1//EN"
 "http://www.w3.org/Graphics/SVG/1.1/DTD/svg11.dtd">
<!-- Generated by graphviz version 2.43.0 (0)
 -->
<!-- Title: SimulateurFerroviaire/Engine/HMI/MainWindow.cpp Pages: 1 -->
<svg width="928pt" height="313pt"
 viewBox="0.00 0.00 928.49 313.00" xmlns="http://www.w3.org/2000/svg" xmlns:xlink="http://www.w3.org/1999/xlink">
<g id="graph0" class="graph" transform="scale(1 1) rotate(0) translate(4 309)">
<title>SimulateurFerroviaire/Engine/HMI/MainWindow.cpp</title>
<!-- Node1 -->
<g id="Node000001" class="node">
<title>Node1</title>
<g id="a_Node000001"><a xlink:title="Implémentation de la fenêtre principale.">
<polygon fill="#999999" stroke="#666666" points="615.49,-305 454.49,-305 454.49,-275 615.49,-275 615.49,-305"/>
<text text-anchor="start" x="462.49" y="-293" font-family="Helvetica,sans-Serif" font-size="10.00">SimulateurFerroviaire</text>
<text text-anchor="middle" x="534.99" y="-282" font-family="Helvetica,sans-Serif" font-size="10.00">/Engine/HMI/MainWindow.cpp</text>
</a>
</g>
</g>
<!-- Node2 -->
<g id="Node000002" class="node">
<title>Node2</title>
<g id="a_Node000002"><a xlink:href="framework_8h.html" target="_top" xlink:title=" ">
<polygon fill="white" stroke="#666666" points="390.49,-129 311.49,-129 311.49,-110 390.49,-110 390.49,-129"/>
<text text-anchor="middle" x="350.99" y="-117" font-family="Helvetica,sans-Serif" font-size="10.00">framework.h</text>
</a>
</g>
</g>
<!-- Node1&#45;&gt;Node2 -->
<g id="edge1_Node000001_Node000002" class="edge">
<title>Node1&#45;&gt;Node2</title>
<g id="a_edge1_Node000001_Node000002"><a xlink:title=" ">
<path fill="none" stroke="#63b8ff" d="M539.32,-274.85C546.08,-249.67 555.85,-196.73 529.99,-165 513.79,-145.11 447.73,-132.68 400.59,-126.17"/>
<polygon fill="#63b8ff" stroke="#63b8ff" points="400.92,-122.69 390.54,-124.83 399.99,-129.62 400.92,-122.69"/>
</a>
</g>
</g>
<!-- Node11 -->
<g id="Node000011" class="node">
<title>Node11</title>
<g id="a_Node000011"><a xlink:title=" ">
<polygon fill="#e0e0e0" stroke="#999999" points="67.99,-74 23.99,-74 23.99,-55 67.99,-55 67.99,-74"/>
<text text-anchor="middle" x="45.99" y="-62" font-family="Helvetica,sans-Serif" font-size="10.00">string</text>
</a>
</g>
</g>
<!-- Node1&#45;&gt;Node11 -->
<g id="edge26_Node000001_Node000011" class="edge">
<title>Node1&#45;&gt;Node11</title>
<g id="a_edge26_Node000001_Node000011"><a xlink:title=" ">
<path fill="none" stroke="#63b8ff" d="M454.39,-285.03C321.32,-276.6 64.88,-251.76 9.99,-184 -14.47,-153.79 13.57,-107.15 32.16,-82.35"/>
<polygon fill="#63b8ff" stroke="#63b8ff" points="35.07,-84.31 38.47,-74.27 29.56,-80 35.07,-84.31"/>
</a>
</g>
</g>
<!-- Node13 -->
<g id="Node000013" class="node">
<title>Node13</title>
<g id="a_Node000013"><a xlink:href="MainWindow_8h.html" target="_top" xlink:title="Déclaration de la fenêtre principale de l&#39;application.">
<polygon fill="white" stroke="#666666" points="470.99,-239 382.99,-239 382.99,-220 470.99,-220 470.99,-239"/>
<text text-anchor="middle" x="426.99" y="-227" font-family="Helvetica,sans-Serif" font-size="10.00">MainWindow.h</text>
</a>
</g>
</g>
<!-- Node1&#45;&gt;Node13 -->
<g id="edge12_Node000001_Node000013" class="edge">
<title>Node1&#45;&gt;Node13</title>
<g id="a_edge12_Node000001_Node000013"><a xlink:title=" ">
<path fill="none" stroke="#63b8ff" d="M509.12,-274.99C491.75,-265.58 468.98,-253.24 451.83,-243.95"/>
<polygon fill="#63b8ff" stroke="#63b8ff" points="453.4,-240.82 442.94,-239.14 450.07,-246.98 453.4,-240.82"/>
</a>
</g>
</g>
<!-- Node16 -->
<g id="Node000016" class="node">
<title>Node16</title>
<g id="a_Node000016"><a xlink:href="AboutDialog_8h.html" target="_top" xlink:title="Déclaration de la boîte de dialogue &quot;À propos&quot;.">
<polygon fill="white" stroke="#666666" points="688.49,-239 563.49,-239 563.49,-220 688.49,-220 688.49,-239"/>
<text text-anchor="middle" x="625.99" y="-227" font-family="Helvetica,sans-Serif" font-size="10.00">Dialogs/AboutDialog.h</text>
</a>
</g>
</g>
<!-- Node1&#45;&gt;Node16 -->
<g id="edge18_Node000001_Node000016" class="edge">
<title>Node1&#45;&gt;Node16</title>
<g id="a_edge18_Node000001_Node000016"><a xlink:title=" ">
<path fill="none" stroke="#63b8ff" d="M557.02,-274.84C571.26,-265.68 589.72,-253.82 603.96,-244.66"/>
<polygon fill="#63b8ff" stroke="#63b8ff" points="606.1,-247.45 612.62,-239.09 602.32,-241.56 606.1,-247.45"/>
</a>
</g>
</g>
<!-- Node17 -->
<g id="Node000017" class="node">
<title>Node17</title>
<g id="a_Node000017"><a xlink:href="FileOpenDialog_8h.html" target="_top" xlink:title="Déclaration du sélecteur de fichier GeoJSON.">
<polygon fill="white" stroke="#666666" points="158.99,-184 18.99,-184 18.99,-165 158.99,-165 158.99,-184"/>
<text text-anchor="middle" x="88.99" y="-172" font-family="Helvetica,sans-Serif" font-size="10.00">Dialogs/FileOpenDialog.h</text>
</a>
</g>
</g>
<!-- Node1&#45;&gt;Node17 -->
<g id="edge20_Node000001_Node000017" class="edge">
<title>Node1&#45;&gt;Node17</title>
<g id="a_edge20_Node000001_Node000017"><a xlink:title=" ">
<path fill="none" stroke="#63b8ff" d="M479.86,-274.97C390.03,-252.11 213.95,-207.3 132.38,-186.54"/>
<polygon fill="#63b8ff" stroke="#63b8ff" points="133.23,-183.15 122.68,-184.07 131.5,-189.93 133.23,-183.15"/>
</a>
</g>
</g>
<!-- Node19 -->
<g id="Node000019" class="node">
<title>Node19</title>
<g id="a_Node000019"><a xlink:href="SimulateurFerroviaire_8h.html" target="_top" xlink:title=" ">
<polygon fill="white" stroke="#666666" points="837.49,-239 706.49,-239 706.49,-220 837.49,-220 837.49,-239"/>
<text text-anchor="middle" x="771.99" y="-227" font-family="Helvetica,sans-Serif" font-size="10.00">SimulateurFerroviaire.h</text>
</a>
</g>
</g>
<!-- Node1&#45;&gt;Node19 -->
<g id="edge24_Node000001_Node000019" class="edge">
<title>Node1&#45;&gt;Node19</title>
<g id="a_edge24_Node000001_Node000019"><a xlink:title=" ">
<path fill="none" stroke="#63b8ff" d="M591.76,-274.99C633.37,-264.72 689.07,-250.97 727.48,-241.49"/>
<polygon fill="#63b8ff" stroke="#63b8ff" points="728.47,-244.85 737.34,-239.05 726.79,-238.05 728.47,-244.85"/>
</a>
</g>
</g>
<!-- Node21 -->
<g id="Node000021" class="node">
<title>Node21</title>
<g id="a_Node000021"><a xlink:title=" ">
<polygon fill="#e0e0e0" stroke="#999999" points="920.49,-239 855.49,-239 855.49,-220 920.49,-220 920.49,-239"/>
<text text-anchor="middle" x="887.99" y="-227" font-family="Helvetica,sans-Serif" font-size="10.00">stdexcept</text>
</a>
</g>
</g>
<!-- Node1&#45;&gt;Node21 -->
<g id="edge27_Node000001_Node000021" class="edge">
<title>Node1&#45;&gt;Node21</title>
<g id="a_edge27_Node000001_Node000021"><a xlink:title=" ">
<path fill="none" stroke="#63b8ff" d="M615.65,-277.11C676.34,-267.92 761.82,-254.47 845.42,-239.23"/>
<polygon fill="#63b8ff" stroke="#63b8ff" points="846.14,-242.65 855.35,-237.41 844.88,-235.77 846.14,-242.65"/>
</a>
</g>
</g>
<!-- Node3 -->
<g id="Node000003" class="node">
<title>Node3</title>
<g id="a_Node000003"><a xlink:href="targetver_8h.html" target="_top" xlink:title=" ">
<polygon fill="white" stroke="#666666" points="552.99,-74 482.99,-74 482.99,-55 552.99,-55 552.99,-74"/>
<text text-anchor="middle" x="517.99" y="-62" font-family="Helvetica,sans-Serif" font-size="10.00">targetver.h</text>
</a>
</g>
</g>
<!-- Node2&#45;&gt;Node3 -->
<g id="edge2_Node000002_Node000003" class="edge">
<title>Node2&#45;&gt;Node3</title>
<g id="a_edge2_Node000002_Node000003"><a xlink:title=" ">
<path fill="none" stroke="#63b8ff" d="M377.82,-109.98C405.86,-101.09 450.04,-87.07 481.29,-77.15"/>
<polygon fill="#63b8ff" stroke="#63b8ff" points="482.48,-80.44 490.95,-74.08 480.36,-73.77 482.48,-80.44"/>
</a>
</g>
</g>
<!-- Node5 -->
<g id="Node000005" class="node">
<title>Node5</title>
<g id="a_Node000005"><a xlink:title=" ">
<polygon fill="#e0e0e0" stroke="#999999" points="638.99,-74 570.99,-74 570.99,-55 638.99,-55 638.99,-74"/>
<text text-anchor="middle" x="604.99" y="-62" font-family="Helvetica,sans-Serif" font-size="10.00">windows.h</text>
</a>
</g>
</g>
<!-- Node2&#45;&gt;Node5 -->
<g id="edge4_Node000002_Node000005" class="edge">
<title>Node2&#45;&gt;Node5</title>
<g id="a_edge4_Node000002_Node000005"><a xlink:title=" ">
<path fill="none" stroke="#63b8ff" d="M390.68,-110.22C436.92,-100.57 513.1,-84.67 561.08,-74.66"/>
<polygon fill="#63b8ff" stroke="#63b8ff" points="561.79,-78.09 570.87,-72.62 560.36,-71.24 561.79,-78.09"/>
</a>
</g>
</g>
<!-- Node6 -->
<g id="Node000006" class="node">
<title>Node6</title>
<g id="a_Node000006"><a xlink:title=" ">
<polygon fill="#e0e0e0" stroke="#999999" points="710.49,-74 657.49,-74 657.49,-55 710.49,-55 710.49,-74"/>
<text text-anchor="middle" x="683.99" y="-62" font-family="Helvetica,sans-Serif" font-size="10.00">stdlib.h</text>
</a>
</g>
</g>
<!-- Node2&#45;&gt;Node6 -->
<g id="edge5_Node000002_Node000006" class="edge">
<title>Node2&#45;&gt;Node6</title>
<g id="a_edge5_Node000002_Node000006"><a xlink:title=" ">
<path fill="none" stroke="#63b8ff" d="M390.56,-113.64C445.76,-106.62 549.19,-92.62 647.23,-74"/>
<polygon fill="#63b8ff" stroke="#63b8ff" points="648.15,-77.38 657.31,-72.06 646.83,-70.51 648.15,-77.38"/>
</a>
</g>
</g>
<!-- Node7 -->
<g id="Node000007" class="node">
<title>Node7</title>
<g id="a_Node000007"><a xlink:title=" ">
<polygon fill="#e0e0e0" stroke="#999999" points="145.49,-74 86.49,-74 86.49,-55 145.49,-55 145.49,-74"/>
<text text-anchor="middle" x="115.99" y="-62" font-family="Helvetica,sans-Serif" font-size="10.00">malloc.h</text>
</a>
</g>
</g>
<!-- Node2&#45;&gt;Node7 -->
<g id="edge6_Node000002_Node000007" class="edge">
<title>Node2&#45;&gt;Node7</title>
<g id="a_edge6_Node000002_Node000007"><a xlink:title=" ">
<path fill="none" stroke="#63b8ff" d="M313.24,-109.98C270.02,-100.24 199.57,-84.35 155.6,-74.43"/>
<polygon fill="#63b8ff" stroke="#63b8ff" points="156.35,-71.01 145.83,-72.23 154.81,-77.84 156.35,-71.01"/>
</a>
</g>
</g>
<!-- Node8 -->
<g id="Node000008" class="node">
<title>Node8</title>
<g id="a_Node000008"><a xlink:title=" ">
<polygon fill="#e0e0e0" stroke="#999999" points="228.49,-74 163.49,-74 163.49,-55 228.49,-55 228.49,-74"/>
<text text-anchor="middle" x="195.99" y="-62" font-family="Helvetica,sans-Serif" font-size="10.00">memory.h</text>
</a>
</g>
</g>
<!-- Node2&#45;&gt;Node8 -->
<g id="edge7_Node000002_Node000008" class="edge">
<title>Node2&#45;&gt;Node8</title>
<g id="a_edge7_Node000002_Node000008"><a xlink:title=" ">
<path fill="none" stroke="#63b8ff" d="M326.09,-109.98C300.29,-101.16 259.77,-87.31 230.81,-77.41"/>
<polygon fill="#63b8ff" stroke="#63b8ff" points="231.69,-74.01 221.09,-74.08 229.42,-80.63 231.69,-74.01"/>
</a>
</g>
</g>
<!-- Node9 -->
<g id="Node000009" class="node">
<title>Node9</title>
<g id="a_Node000009"><a xlink:title=" ">
<polygon fill="#e0e0e0" stroke="#999999" points="296.99,-74 246.99,-74 246.99,-55 296.99,-55 296.99,-74"/>
<text text-anchor="middle" x="271.99" y="-62" font-family="Helvetica,sans-Serif" font-size="10.00">tchar.h</text>
</a>
</g>
</g>
<!-- Node2&#45;&gt;Node9 -->
<g id="edge8_Node000002_Node000009" class="edge">
<title>Node2&#45;&gt;Node9</title>
<g id="a_edge8_Node000002_Node000009"><a xlink:title=" ">
<path fill="none" stroke="#63b8ff" d="M338.3,-109.98C326.16,-101.84 307.64,-89.41 293.25,-79.76"/>
<polygon fill="#63b8ff" stroke="#63b8ff" points="295.17,-76.84 284.92,-74.17 291.27,-82.65 295.17,-76.84"/>
</a>
</g>
</g>
<!-- Node10 -->
<g id="Node000010" class="node">
<title>Node10</title>
<g id="a_Node000010"><a xlink:title=" ">
<polygon fill="#e0e0e0" stroke="#999999" points="386.99,-74 314.99,-74 314.99,-55 386.99,-55 386.99,-74"/>
<text text-anchor="middle" x="350.99" y="-62" font-family="Helvetica,sans-Serif" font-size="10.00">commctrl.h</text>
</a>
</g>
</g>
<!-- Node2&#45;&gt;Node10 -->
<g id="edge9_Node000002_Node000010" class="edge">
<title>Node2&#45;&gt;Node10</title>
<g id="a_edge9_Node000002_Node000010"><a xlink:title=" ">
<path fill="none" stroke="#63b8ff" d="M350.99,-109.75C350.99,-102.8 350.99,-92.85 350.99,-84.13"/>
<polygon fill="#63b8ff" stroke="#63b8ff" points="354.49,-84.09 350.99,-74.09 347.49,-84.09 354.49,-84.09"/>
</a>
</g>
</g>
<!-- Node2&#45;&gt;Node11 -->
<g id="edge10_Node000002_Node000011" class="edge">
<title>Node2&#45;&gt;Node11</title>
<g id="a_edge10_Node000002_Node000011"><a xlink:title=" ">
<path fill="none" stroke="#63b8ff" d="M311.27,-113.4C259.67,-106.49 166.67,-93.01 78.2,-74.07"/>
<polygon fill="#63b8ff" stroke="#63b8ff" points="78.79,-70.61 68.27,-71.91 77.3,-77.45 78.79,-70.61"/>
</a>
</g>
</g>
<!-- Node12 -->
<g id="Node000012" class="node">
<title>Node12</title>
<g id="a_Node000012"><a xlink:title=" ">
<polygon fill="#e0e0e0" stroke="#999999" points="464.99,-74 404.99,-74 404.99,-55 464.99,-55 464.99,-74"/>
<text text-anchor="middle" x="434.99" y="-62" font-family="Helvetica,sans-Serif" font-size="10.00">iostream</text>
</a>
</g>
</g>
<!-- Node2&#45;&gt;Node12 -->
<g id="edge11_Node000002_Node000012" class="edge">
<title>Node2&#45;&gt;Node12</title>
<g id="a_edge11_Node000002_Node000012"><a xlink:title=" ">
<path fill="none" stroke="#63b8ff" d="M364.49,-109.98C377.39,-101.84 397.09,-89.41 412.39,-79.76"/>
<polygon fill="#63b8ff" stroke="#63b8ff" points="414.66,-82.47 421.25,-74.17 410.93,-76.55 414.66,-82.47"/>
</a>
</g>
</g>
<!-- Node4 -->
<g id="Node000004" class="node">
<title>Node4</title>
<g id="a_Node000004"><a xlink:title=" ">
<polygon fill="#e0e0e0" stroke="#999999" points="559.49,-19 476.49,-19 476.49,0 559.49,0 559.49,-19"/>
<text text-anchor="middle" x="517.99" y="-7" font-family="Helvetica,sans-Serif" font-size="10.00">SDKDDKVer.h</text>
</a>
</g>
</g>
<!-- Node3&#45;&gt;Node4 -->
<g id="edge3_Node000003_Node000004" class="edge">
<title>Node3&#45;&gt;Node4</title>
<g id="a_edge3_Node000003_Node000004"><a xlink:title=" ">
<path fill="none" stroke="#63b8ff" d="M517.99,-54.75C517.99,-47.8 517.99,-37.85 517.99,-29.13"/>
<polygon fill="#63b8ff" stroke="#63b8ff" points="521.49,-29.09 517.99,-19.09 514.49,-29.09 521.49,-29.09"/>
</a>
</g>
</g>
<!-- Node13&#45;&gt;Node2 -->
<g id="edge13_Node000013_Node000002" class="edge">
<title>Node13&#45;&gt;Node2</title>
<g id="a_edge13_Node000013_Node000002"><a xlink:title=" ">
<path fill="none" stroke="#63b8ff" d="M411.23,-219.93C398.36,-212.15 380.62,-199.55 369.99,-184 360.76,-170.49 355.92,-152.4 353.45,-138.98"/>
<polygon fill="#63b8ff" stroke="#63b8ff" points="356.89,-138.35 351.88,-129.02 349.98,-139.44 356.89,-138.35"/>
</a>
</g>
</g>
<!-- Node14 -->
<g id="Node000014" class="node">
<title>Node14</title>
<g id="a_Node000014"><a xlink:href="GeoParsingTask_8h.html" target="_top" xlink:title="Déclaration de la tâche de parsing GeoJSON asynchrone.">
<polygon fill="white" stroke="#666666" points="322.99,-184 176.99,-184 176.99,-165 322.99,-165 322.99,-184"/>
<text text-anchor="middle" x="249.99" y="-172" font-family="Helvetica,sans-Serif" font-size="10.00">Modules/GeoParsingTask.h</text>
</a>
</g>
</g>
<!-- Node13&#45;&gt;Node14 -->
<g id="edge14_Node000013_Node000014" class="edge">
<title>Node13&#45;&gt;Node14</title>
<g id="a_edge14_Node000013_Node000014"><a xlink:title=" ">
<path fill="none" stroke="#63b8ff" d="M398.55,-219.98C368.71,-211.05 321.61,-196.94 288.46,-187.02"/>
<polygon fill="#63b8ff" stroke="#63b8ff" points="289.24,-183.6 278.65,-184.08 287.23,-190.3 289.24,-183.6"/>
</a>
</g>
</g>
<!-- Node15 -->
<g id="Node000015" class="node">
<title>Node15</title>
<g id="a_Node000015"><a xlink:href="ProgressBar_8h.html" target="_top" xlink:title="Wrapper minimaliste d&#39;une ProgressBar Win32.">
<polygon fill="white" stroke="#666666" points="520.99,-184 378.99,-184 378.99,-165 520.99,-165 520.99,-184"/>
<text text-anchor="middle" x="449.99" y="-172" font-family="Helvetica,sans-Serif" font-size="10.00">Engine/HMI/ProgressBar.h</text>
</a>
</g>
</g>
<!-- Node13&#45;&gt;Node15 -->
<g id="edge17_Node000013_Node000015" class="edge">
<title>Node13&#45;&gt;Node15</title>
<g id="a_edge17_Node000013_Node000015"><a xlink:title=" ">
<path fill="none" stroke="#63b8ff" d="M430.79,-219.75C433.91,-212.57 438.42,-202.18 442.28,-193.27"/>
<polygon fill="#63b8ff" stroke="#63b8ff" points="445.5,-194.66 446.27,-184.09 439.07,-191.87 445.5,-194.66"/>
</a>
</g>
</g>
<!-- Node14&#45;&gt;Node2 -->
<g id="edge15_Node000014_Node000002" class="edge">
<title>Node14&#45;&gt;Node2</title>
<g id="a_edge15_Node000014_Node000002"><a xlink:title=" ">
<path fill="none" stroke="#63b8ff" d="M266.22,-164.98C282.18,-156.61 306.77,-143.7 325.37,-133.95"/>
<polygon fill="#63b8ff" stroke="#63b8ff" points="327.24,-136.92 334.47,-129.17 323.99,-130.72 327.24,-136.92"/>
</a>
</g>
</g>
<!-- Node14&#45;&gt;Node11 -->
<g id="edge16_Node000014_Node000011" class="edge">
<title>Node14&#45;&gt;Node11</title>
<g id="a_edge16_Node000014_Node000011"><a xlink:title=" ">
<path fill="none" stroke="#63b8ff" d="M235.81,-164.94C214.88,-152.41 174.38,-128.56 138.99,-110 117.53,-98.75 92.75,-86.95 74.18,-78.33"/>
<polygon fill="#63b8ff" stroke="#63b8ff" points="75.62,-75.14 65.07,-74.13 72.69,-81.5 75.62,-75.14"/>
</a>
</g>
</g>
<!-- Node16&#45;&gt;Node2 -->
<g id="edge19_Node000016_Node000002" class="edge">
<title>Node16&#45;&gt;Node2</title>
<g id="a_edge19_Node000016_Node000002"><a xlink:title=" ">
<path fill="none" stroke="#63b8ff" d="M620.13,-219.95C610.13,-206.07 588.37,-178.8 562.99,-165 512.11,-137.33 445.73,-126.85 400.91,-122.89"/>
<polygon fill="#63b8ff" stroke="#63b8ff" points="401.09,-119.39 390.84,-122.07 400.53,-126.37 401.09,-119.39"/>
</a>
</g>
</g>
<!-- Node17&#45;&gt;Node2 -->
<g id="edge21_Node000017_Node000002" class="edge">
<title>Node17&#45;&gt;Node2</title>
<g id="a_edge21_Node000017_Node000002"><a xlink:title=" ">
<path fill="none" stroke="#63b8ff" d="M131.09,-164.98C177.41,-155.61 251.81,-140.56 301.04,-130.6"/>
<polygon fill="#63b8ff" stroke="#63b8ff" points="302.04,-133.97 311.15,-128.56 300.65,-127.11 302.04,-133.97"/>
</a>
</g>
</g>
<!-- Node17&#45;&gt;Node11 -->
<g id="edge23_Node000017_Node000011" class="edge">
<title>Node17&#45;&gt;Node11</title>
<g id="a_edge23_Node000017_Node000011"><a xlink:title=" ">
<path fill="none" stroke="#63b8ff" d="M83.67,-164.89C78.4,-156.11 70.37,-141.98 64.99,-129 58.93,-114.36 53.89,-97.1 50.53,-84.28"/>
<polygon fill="#63b8ff" stroke="#63b8ff" points="53.86,-83.17 48.03,-74.32 47.07,-84.87 53.86,-83.17"/>
</a>
</g>
</g>
<!-- Node18 -->
<g id="Node000018" class="node">
<title>Node18</title>
<g id="a_Node000018"><a xlink:title=" ">
<polygon fill="#e0e0e0" stroke="#999999" points="129.99,-129 73.99,-129 73.99,-110 129.99,-110 129.99,-129"/>
<text text-anchor="middle" x="101.99" y="-117" font-family="Helvetica,sans-Serif" font-size="10.00">optional</text>
</a>
</g>
</g>
<!-- Node17&#45;&gt;Node18 -->
<g id="edge22_Node000017_Node000018" class="edge">
<title>Node17&#45;&gt;Node18</title>
<g id="a_edge22_Node000017_Node000018"><a xlink:title=" ">
<path fill="none" stroke="#63b8ff" d="M91.14,-164.75C92.86,-157.72 95.34,-147.62 97.49,-138.84"/>
<polygon fill="#63b8ff" stroke="#63b8ff" points="100.9,-139.63 99.89,-129.09 94.1,-137.97 100.9,-139.63"/>
</a>
</g>
</g>
<!-- Node20 -->
<g id="Node000020" class="node">
<title>Node20</title>
<g id="a_Node000020"><a xlink:title=" ">
<polygon fill="#e0e0e0" stroke="#999999" points="805.99,-184 737.99,-184 737.99,-165 805.99,-165 805.99,-184"/>
<text text-anchor="middle" x="771.99" y="-172" font-family="Helvetica,sans-Serif" font-size="10.00">resource.h</text>
</a>
</g>
</g>
<!-- Node19&#45;&gt;Node20 -->
<g id="edge25_Node000019_Node000020" class="edge">
<title>Node19&#45;&gt;Node20</title>
<g id="a_edge25_Node000019_Node000020"><a xlink:title=" ">
<path fill="none" stroke="#63b8ff" d="M771.99,-219.75C771.99,-212.8 771.99,-202.85 771.99,-194.13"/>
<polygon fill="#63b8ff" stroke="#63b8ff" points="775.49,-194.09 771.99,-184.09 768.49,-194.09 775.49,-194.09"/>
</a>
</g>
</g>
</g>
</svg>
