<?xml version="1.0" encoding="UTF-8" standalone="no"?>
<!DOCTYPE svg PUBLIC "-//W3C//DTD SVG 1.1//EN"
 "http://www.w3.org/Graphics/SVG/1.1/DTD/svg11.dtd">
<!-- Generated by graphviz version 2.43.0 (0)
 -->
<!-- Title: SimulateurFerroviaire/Engine/HMI/MainWindow.cpp Pages: 1 -->
<svg width="1332pt" height="346pt"
 viewBox="0.00 0.00 1331.50 346.00" xmlns="http://www.w3.org/2000/svg" xmlns:xlink="http://www.w3.org/1999/xlink">
<g id="graph0" class="graph" transform="scale(1 1) rotate(0) translate(4 342)">
<title>SimulateurFerroviaire/Engine/HMI/MainWindow.cpp</title>
<!-- Node1 -->
<g id="Node000001" class="node">
<title>Node1</title>
<g id="a_Node000001"><a xlink:title="Implémentation de la fenêtre principale.">
<polygon fill="#999999" stroke="#666666" points="943.5,-338 782.5,-338 782.5,-308 943.5,-308 943.5,-338"/>
<text text-anchor="start" x="790.5" y="-326" font-family="Helvetica,sans-Serif" font-size="10.00">SimulateurFerroviaire</text>
<text text-anchor="middle" x="863" y="-315" font-family="Helvetica,sans-Serif" font-size="10.00">/Engine/HMI/MainWindow.cpp</text>
</a>
</g>
</g>
<!-- Node2 -->
<g id="Node000002" class="node">
<title>Node2</title>
<g id="a_Node000002"><a xlink:href="framework_8h.html" target="_top" xlink:title=" ">
<polygon fill="white" stroke="#666666" points="341.5,-134.5 262.5,-134.5 262.5,-115.5 341.5,-115.5 341.5,-134.5"/>
<text text-anchor="middle" x="302" y="-122.5" font-family="Helvetica,sans-Serif" font-size="10.00">framework.h</text>
</a>
</g>
</g>
<!-- Node1&#45;&gt;Node2 -->
<g id="edge1_Node000001_Node000002" class="edge">
<title>Node1&#45;&gt;Node2</title>
<g id="a_edge1_Node000001_Node000002"><a xlink:title=" ">
<path fill="none" stroke="#63b8ff" d="M782.39,-319.71C659.74,-315.28 432.63,-303.05 358,-272 315.44,-254.29 297.65,-247.69 278,-206 268.28,-185.39 279.54,-159.93 289.68,-143.35"/>
<polygon fill="#63b8ff" stroke="#63b8ff" points="292.79,-144.99 295.36,-134.72 286.94,-141.15 292.79,-144.99"/>
</a>
</g>
</g>
<!-- Node11 -->
<g id="Node000011" class="node">
<title>Node11</title>
<g id="a_Node000011"><a xlink:title=" ">
<polygon fill="#e0e0e0" stroke="#999999" points="726,-74 682,-74 682,-55 726,-55 726,-74"/>
<text text-anchor="middle" x="704" y="-62" font-family="Helvetica,sans-Serif" font-size="10.00">string</text>
</a>
</g>
</g>
<!-- Node1&#45;&gt;Node11 -->
<g id="edge42_Node000001_Node000011" class="edge">
<title>Node1&#45;&gt;Node11</title>
<g id="a_edge42_Node000001_Node000011"><a xlink:title=" ">
<path fill="none" stroke="#63b8ff" d="M875.9,-307.87C901.47,-279.68 956.56,-218.13 961,-206 975.66,-165.93 988.48,-142.64 961,-110 932.61,-76.27 798.7,-68.11 736.23,-66.13"/>
<polygon fill="#63b8ff" stroke="#63b8ff" points="736.24,-62.63 726.14,-65.85 736.04,-69.63 736.24,-62.63"/>
</a>
</g>
</g>
<!-- Node13 -->
<g id="Node000013" class="node">
<title>Node13</title>
<g id="a_Node000013"><a xlink:href="MainWindow_8h.html" target="_top" xlink:title="Déclaration de la fenêtre principale de l&#39;application.">
<polygon fill="white" stroke="#666666" points="801,-266.5 713,-266.5 713,-247.5 801,-247.5 801,-266.5"/>
<text text-anchor="middle" x="757" y="-254.5" font-family="Helvetica,sans-Serif" font-size="10.00">MainWindow.h</text>
</a>
</g>
</g>
<!-- Node1&#45;&gt;Node13 -->
<g id="edge12_Node000001_Node000013" class="edge">
<title>Node1&#45;&gt;Node13</title>
<g id="a_edge12_Node000001_Node000013"><a xlink:title=" ">
<path fill="none" stroke="#63b8ff" d="M839.74,-307.95C821.89,-297.18 797.38,-282.38 779.67,-271.69"/>
<polygon fill="#63b8ff" stroke="#63b8ff" points="781.48,-268.69 771.11,-266.52 777.86,-274.68 781.48,-268.69"/>
</a>
</g>
</g>
<!-- Node26 -->
<g id="Node000026" class="node">
<title>Node26</title>
<g id="a_Node000026"><a xlink:href="AboutDialog_8h.html" target="_top" xlink:title="Déclaration de la boîte de dialogue &quot;À propos&quot;.">
<polygon fill="white" stroke="#666666" points="479,-272 367,-272 367,-242 479,-242 479,-272"/>
<text text-anchor="start" x="375" y="-260" font-family="Helvetica,sans-Serif" font-size="10.00">Engine/HMI/Dialogs</text>
<text text-anchor="middle" x="423" y="-249" font-family="Helvetica,sans-Serif" font-size="10.00">/AboutDialog.h</text>
</a>
</g>
</g>
<!-- Node1&#45;&gt;Node26 -->
<g id="edge32_Node000001_Node000026" class="edge">
<title>Node1&#45;&gt;Node26</title>
<g id="a_edge32_Node000001_Node000026"><a xlink:title=" ">
<path fill="none" stroke="#63b8ff" d="M782.3,-310.26C698.13,-298.02 567.74,-279.05 489.35,-267.65"/>
<polygon fill="#63b8ff" stroke="#63b8ff" points="489.51,-264.14 479.11,-266.16 488.51,-271.07 489.51,-264.14"/>
</a>
</g>
</g>
<!-- Node27 -->
<g id="Node000027" class="node">
<title>Node27</title>
<g id="a_Node000027"><a xlink:href="FileOpenDialog_8h.html" target="_top" xlink:title="Déclaration du sélecteur de fichier GeoJSON.">
<polygon fill="white" stroke="#666666" points="442,-206 330,-206 330,-176 442,-176 442,-206"/>
<text text-anchor="start" x="338" y="-194" font-family="Helvetica,sans-Serif" font-size="10.00">Engine/HMI/Dialogs</text>
<text text-anchor="middle" x="386" y="-183" font-family="Helvetica,sans-Serif" font-size="10.00">/FileOpenDialog.h</text>
</a>
</g>
</g>
<!-- Node1&#45;&gt;Node27 -->
<g id="edge34_Node000001_Node000027" class="edge">
<title>Node1&#45;&gt;Node27</title>
<g id="a_edge34_Node000001_Node000027"><a xlink:title=" ">
<path fill="none" stroke="#63b8ff" d="M811.5,-307.96C722.97,-283.84 542.32,-234.6 447.39,-208.73"/>
<polygon fill="#63b8ff" stroke="#63b8ff" points="448.21,-205.33 437.65,-206.08 446.37,-212.08 448.21,-205.33"/>
</a>
</g>
</g>
<!-- Node29 -->
<g id="Node000029" class="node">
<title>Node29</title>
<g id="a_Node000029"><a xlink:href="SimulateurFerroviaire_8h.html" target="_top" xlink:title=" ">
<polygon fill="white" stroke="#666666" points="1240.5,-266.5 1109.5,-266.5 1109.5,-247.5 1240.5,-247.5 1240.5,-266.5"/>
<text text-anchor="middle" x="1175" y="-254.5" font-family="Helvetica,sans-Serif" font-size="10.00">SimulateurFerroviaire.h</text>
</a>
</g>
</g>
<!-- Node1&#45;&gt;Node29 -->
<g id="edge38_Node000001_Node000029" class="edge">
<title>Node1&#45;&gt;Node29</title>
<g id="a_edge38_Node000001_Node000029"><a xlink:title=" ">
<path fill="none" stroke="#63b8ff" d="M931.47,-307.95C989.32,-296.09 1070.91,-279.35 1123.39,-268.59"/>
<polygon fill="#63b8ff" stroke="#63b8ff" points="1124.39,-271.96 1133.48,-266.52 1122.98,-265.1 1124.39,-271.96"/>
</a>
</g>
</g>
<!-- Node31 -->
<g id="Node000031" class="node">
<title>Node31</title>
<g id="a_Node000031"><a xlink:href="LeafletEnums_8h.html" target="_top" xlink:title=" ">
<polygon fill="white" stroke="#666666" points="1091,-272 945,-272 945,-242 1091,-242 1091,-272"/>
<text text-anchor="start" x="953" y="-260" font-family="Helvetica,sans-Serif" font-size="10.00">Engine/HMI/WebViewPanel</text>
<text text-anchor="middle" x="1018" y="-249" font-family="Helvetica,sans-Serif" font-size="10.00">/Leaflet/LeafletEnums.h</text>
</a>
</g>
</g>
<!-- Node1&#45;&gt;Node31 -->
<g id="edge40_Node000001_Node000031" class="edge">
<title>Node1&#45;&gt;Node31</title>
<g id="a_edge40_Node000001_Node000031"><a xlink:title=" ">
<path fill="none" stroke="#63b8ff" d="M897.02,-307.95C919.83,-298.53 950.08,-286.04 974.62,-275.91"/>
<polygon fill="#63b8ff" stroke="#63b8ff" points="976.16,-279.06 984.06,-272.01 973.49,-272.59 976.16,-279.06"/>
</a>
</g>
</g>
<!-- Node32 -->
<g id="Node000032" class="node">
<title>Node32</title>
<g id="a_Node000032"><a xlink:title=" ">
<polygon fill="#e0e0e0" stroke="#999999" points="1323.5,-266.5 1258.5,-266.5 1258.5,-247.5 1323.5,-247.5 1323.5,-266.5"/>
<text text-anchor="middle" x="1291" y="-254.5" font-family="Helvetica,sans-Serif" font-size="10.00">stdexcept</text>
</a>
</g>
</g>
<!-- Node1&#45;&gt;Node32 -->
<g id="edge43_Node000001_Node000032" class="edge">
<title>Node1&#45;&gt;Node32</title>
<g id="a_edge43_Node000001_Node000032"><a xlink:title=" ">
<path fill="none" stroke="#63b8ff" d="M943.51,-316.33C1022.38,-309.67 1145.59,-296.31 1250,-272 1252.98,-271.31 1256.05,-270.48 1259.1,-269.58"/>
<polygon fill="#63b8ff" stroke="#63b8ff" points="1260.21,-272.9 1268.68,-266.53 1258.09,-266.23 1260.21,-272.9"/>
</a>
</g>
</g>
<!-- Node3 -->
<g id="Node000003" class="node">
<title>Node3</title>
<g id="a_Node000003"><a xlink:href="targetver_8h.html" target="_top" xlink:title=" ">
<polygon fill="white" stroke="#666666" points="148,-74 78,-74 78,-55 148,-55 148,-74"/>
<text text-anchor="middle" x="113" y="-62" font-family="Helvetica,sans-Serif" font-size="10.00">targetver.h</text>
</a>
</g>
</g>
<!-- Node2&#45;&gt;Node3 -->
<g id="edge2_Node000002_Node000003" class="edge">
<title>Node2&#45;&gt;Node3</title>
<g id="a_edge2_Node000002_Node000003"><a xlink:title=" ">
<path fill="none" stroke="#63b8ff" d="M274.52,-115.49C241.76,-105.36 186.88,-88.37 150.31,-77.05"/>
<polygon fill="#63b8ff" stroke="#63b8ff" points="151.1,-73.63 140.52,-74.02 149.03,-80.32 151.1,-73.63"/>
</a>
</g>
</g>
<!-- Node5 -->
<g id="Node000005" class="node">
<title>Node5</title>
<g id="a_Node000005"><a xlink:title=" ">
<polygon fill="#e0e0e0" stroke="#999999" points="624,-74 556,-74 556,-55 624,-55 624,-74"/>
<text text-anchor="middle" x="590" y="-62" font-family="Helvetica,sans-Serif" font-size="10.00">windows.h</text>
</a>
</g>
</g>
<!-- Node2&#45;&gt;Node5 -->
<g id="edge4_Node000002_Node000005" class="edge">
<title>Node2&#45;&gt;Node5</title>
<g id="a_edge4_Node000002_Node000005"><a xlink:title=" ">
<path fill="none" stroke="#63b8ff" d="M329.54,-115.44C336.2,-113.52 343.33,-111.58 350,-110 433.57,-90.23 457.87,-90.58 545.86,-74.18"/>
<polygon fill="#63b8ff" stroke="#63b8ff" points="546.56,-77.61 555.74,-72.32 545.27,-70.73 546.56,-77.61"/>
</a>
</g>
</g>
<!-- Node6 -->
<g id="Node000006" class="node">
<title>Node6</title>
<g id="a_Node000006"><a xlink:title=" ">
<polygon fill="#e0e0e0" stroke="#999999" points="219.5,-74 166.5,-74 166.5,-55 219.5,-55 219.5,-74"/>
<text text-anchor="middle" x="193" y="-62" font-family="Helvetica,sans-Serif" font-size="10.00">stdlib.h</text>
</a>
</g>
</g>
<!-- Node2&#45;&gt;Node6 -->
<g id="edge5_Node000002_Node000006" class="edge">
<title>Node2&#45;&gt;Node6</title>
<g id="a_edge5_Node000002_Node000006"><a xlink:title=" ">
<path fill="none" stroke="#63b8ff" d="M285.92,-115.37C268.05,-105.78 238.96,-90.17 218.09,-78.97"/>
<polygon fill="#63b8ff" stroke="#63b8ff" points="219.62,-75.81 209.15,-74.17 216.31,-81.98 219.62,-75.81"/>
</a>
</g>
</g>
<!-- Node7 -->
<g id="Node000007" class="node">
<title>Node7</title>
<g id="a_Node000007"><a xlink:title=" ">
<polygon fill="#e0e0e0" stroke="#999999" points="296.5,-74 237.5,-74 237.5,-55 296.5,-55 296.5,-74"/>
<text text-anchor="middle" x="267" y="-62" font-family="Helvetica,sans-Serif" font-size="10.00">malloc.h</text>
</a>
</g>
</g>
<!-- Node2&#45;&gt;Node7 -->
<g id="edge6_Node000002_Node000007" class="edge">
<title>Node2&#45;&gt;Node7</title>
<g id="a_edge6_Node000002_Node000007"><a xlink:title=" ">
<path fill="none" stroke="#63b8ff" d="M296.84,-115.37C291.77,-106.9 283.9,-93.74 277.51,-83.07"/>
<polygon fill="#63b8ff" stroke="#63b8ff" points="280.32,-80.95 272.19,-74.17 274.32,-84.55 280.32,-80.95"/>
</a>
</g>
</g>
<!-- Node8 -->
<g id="Node000008" class="node">
<title>Node8</title>
<g id="a_Node000008"><a xlink:title=" ">
<polygon fill="#e0e0e0" stroke="#999999" points="379.5,-74 314.5,-74 314.5,-55 379.5,-55 379.5,-74"/>
<text text-anchor="middle" x="347" y="-62" font-family="Helvetica,sans-Serif" font-size="10.00">memory.h</text>
</a>
</g>
</g>
<!-- Node2&#45;&gt;Node8 -->
<g id="edge7_Node000002_Node000008" class="edge">
<title>Node2&#45;&gt;Node8</title>
<g id="a_edge7_Node000002_Node000008"><a xlink:title=" ">
<path fill="none" stroke="#63b8ff" d="M308.64,-115.37C315.29,-106.73 325.69,-93.2 333.99,-82.42"/>
<polygon fill="#63b8ff" stroke="#63b8ff" points="337.01,-84.23 340.33,-74.17 331.46,-79.96 337.01,-84.23"/>
</a>
</g>
</g>
<!-- Node9 -->
<g id="Node000009" class="node">
<title>Node9</title>
<g id="a_Node000009"><a xlink:title=" ">
<polygon fill="#e0e0e0" stroke="#999999" points="448,-74 398,-74 398,-55 448,-55 448,-74"/>
<text text-anchor="middle" x="423" y="-62" font-family="Helvetica,sans-Serif" font-size="10.00">tchar.h</text>
</a>
</g>
</g>
<!-- Node2&#45;&gt;Node9 -->
<g id="edge8_Node000002_Node000009" class="edge">
<title>Node2&#45;&gt;Node9</title>
<g id="a_edge8_Node000002_Node000009"><a xlink:title=" ">
<path fill="none" stroke="#63b8ff" d="M319.59,-115.49C339.76,-105.75 373.02,-89.66 396.36,-78.38"/>
<polygon fill="#63b8ff" stroke="#63b8ff" points="397.9,-81.52 405.38,-74.02 394.86,-75.22 397.9,-81.52"/>
</a>
</g>
</g>
<!-- Node10 -->
<g id="Node000010" class="node">
<title>Node10</title>
<g id="a_Node000010"><a xlink:title=" ">
<polygon fill="#e0e0e0" stroke="#999999" points="538,-74 466,-74 466,-55 538,-55 538,-74"/>
<text text-anchor="middle" x="502" y="-62" font-family="Helvetica,sans-Serif" font-size="10.00">commctrl.h</text>
</a>
</g>
</g>
<!-- Node2&#45;&gt;Node10 -->
<g id="edge9_Node000002_Node000010" class="edge">
<title>Node2&#45;&gt;Node10</title>
<g id="a_edge9_Node000002_Node000010"><a xlink:title=" ">
<path fill="none" stroke="#63b8ff" d="M331.08,-115.49C365.89,-105.31 424.32,-88.22 463.01,-76.9"/>
<polygon fill="#63b8ff" stroke="#63b8ff" points="464.27,-80.18 472.88,-74.02 462.3,-73.46 464.27,-80.18"/>
</a>
</g>
</g>
<!-- Node2&#45;&gt;Node11 -->
<g id="edge10_Node000002_Node000011" class="edge">
<title>Node2&#45;&gt;Node11</title>
<g id="a_edge10_Node000002_Node000011"><a xlink:title=" ">
<path fill="none" stroke="#63b8ff" d="M328.47,-115.46C335.42,-113.45 342.95,-111.46 350,-110 365.7,-106.74 587.76,-79.62 671.95,-69.39"/>
<polygon fill="#63b8ff" stroke="#63b8ff" points="672.47,-72.85 681.97,-68.17 671.62,-65.9 672.47,-72.85"/>
</a>
</g>
</g>
<!-- Node12 -->
<g id="Node000012" class="node">
<title>Node12</title>
<g id="a_Node000012"><a xlink:title=" ">
<polygon fill="#e0e0e0" stroke="#999999" points="60,-74 0,-74 0,-55 60,-55 60,-74"/>
<text text-anchor="middle" x="30" y="-62" font-family="Helvetica,sans-Serif" font-size="10.00">iostream</text>
</a>
</g>
</g>
<!-- Node2&#45;&gt;Node12 -->
<g id="edge11_Node000002_Node000012" class="edge">
<title>Node2&#45;&gt;Node12</title>
<g id="a_edge11_Node000002_Node000012"><a xlink:title=" ">
<path fill="none" stroke="#63b8ff" d="M262.41,-115.55C218.04,-106.06 143.67,-90.14 70.13,-74.24"/>
<polygon fill="#63b8ff" stroke="#63b8ff" points="70.75,-70.79 60.23,-72.1 69.27,-77.63 70.75,-70.79"/>
</a>
</g>
</g>
<!-- Node4 -->
<g id="Node000004" class="node">
<title>Node4</title>
<g id="a_Node000004"><a xlink:title=" ">
<polygon fill="#e0e0e0" stroke="#999999" points="154.5,-19 71.5,-19 71.5,0 154.5,0 154.5,-19"/>
<text text-anchor="middle" x="113" y="-7" font-family="Helvetica,sans-Serif" font-size="10.00">SDKDDKVer.h</text>
</a>
</g>
</g>
<!-- Node3&#45;&gt;Node4 -->
<g id="edge3_Node000003_Node000004" class="edge">
<title>Node3&#45;&gt;Node4</title>
<g id="a_edge3_Node000003_Node000004"><a xlink:title=" ">
<path fill="none" stroke="#63b8ff" d="M113,-54.75C113,-47.8 113,-37.85 113,-29.13"/>
<polygon fill="#63b8ff" stroke="#63b8ff" points="116.5,-29.09 113,-19.09 109.5,-29.09 116.5,-29.09"/>
</a>
</g>
</g>
<!-- Node13&#45;&gt;Node2 -->
<g id="edge13_Node000013_Node000002" class="edge">
<title>Node13&#45;&gt;Node2</title>
<g id="a_edge13_Node000013_Node000002"><a xlink:title=" ">
<path fill="none" stroke="#63b8ff" d="M712.78,-253.78C607.76,-248.11 349.95,-231.7 321,-206 303.85,-190.78 300.74,-163.15 300.81,-144.69"/>
<polygon fill="#63b8ff" stroke="#63b8ff" points="304.31,-144.69 301.16,-134.57 297.31,-144.44 304.31,-144.69"/>
</a>
</g>
</g>
<!-- Node14 -->
<g id="Node000014" class="node">
<title>Node14</title>
<g id="a_Node000014"><a xlink:href="GeoParsingTask_8h.html" target="_top" xlink:title="Déclaration de la tâche de parsing GeoJSON asynchrone.">
<polygon fill="white" stroke="#666666" points="788,-206 620,-206 620,-176 788,-176 788,-206"/>
<text text-anchor="start" x="628" y="-194" font-family="Helvetica,sans-Serif" font-size="10.00">Modules/GeoParser/GeoParsing</text>
<text text-anchor="middle" x="704" y="-183" font-family="Helvetica,sans-Serif" font-size="10.00">Task.h</text>
</a>
</g>
</g>
<!-- Node13&#45;&gt;Node14 -->
<g id="edge14_Node000013_Node000014" class="edge">
<title>Node13&#45;&gt;Node14</title>
<g id="a_edge14_Node000013_Node000014"><a xlink:title=" ">
<path fill="none" stroke="#63b8ff" d="M749.85,-247.37C742.85,-238.91 731.88,-225.67 722.43,-214.25"/>
<polygon fill="#63b8ff" stroke="#63b8ff" points="724.97,-211.83 715.89,-206.36 719.57,-216.29 724.97,-211.83"/>
</a>
</g>
</g>
<!-- Node15 -->
<g id="Node000015" class="node">
<title>Node15</title>
<g id="a_Node000015"><a xlink:href="ProgressBar_8h.html" target="_top" xlink:title="Wrapper minimaliste d&#39;une ProgressBar Win32.">
<polygon fill="white" stroke="#666666" points="602,-200.5 460,-200.5 460,-181.5 602,-181.5 602,-200.5"/>
<text text-anchor="middle" x="531" y="-188.5" font-family="Helvetica,sans-Serif" font-size="10.00">Engine/HMI/ProgressBar.h</text>
</a>
</g>
</g>
<!-- Node13&#45;&gt;Node15 -->
<g id="edge17_Node000013_Node000015" class="edge">
<title>Node13&#45;&gt;Node15</title>
<g id="a_edge17_Node000013_Node000015"><a xlink:title=" ">
<path fill="none" stroke="#63b8ff" d="M726.52,-247.37C686.39,-236 615.74,-216 571.25,-203.4"/>
<polygon fill="#63b8ff" stroke="#63b8ff" points="571.93,-199.95 561.36,-200.6 570.02,-206.69 571.93,-199.95"/>
</a>
</g>
</g>
<!-- Node16 -->
<g id="Node000016" class="node">
<title>Node16</title>
<g id="a_Node000016"><a xlink:href="WebViewPanel_8h.html" target="_top" xlink:title=" ">
<polygon fill="white" stroke="#666666" points="952,-206 806,-206 806,-176 952,-176 952,-206"/>
<text text-anchor="start" x="814" y="-194" font-family="Helvetica,sans-Serif" font-size="10.00">Engine/HMI/WebViewPanel</text>
<text text-anchor="middle" x="879" y="-183" font-family="Helvetica,sans-Serif" font-size="10.00">/WebViewPanel.h</text>
</a>
</g>
</g>
<!-- Node13&#45;&gt;Node16 -->
<g id="edge18_Node000013_Node000016" class="edge">
<title>Node13&#45;&gt;Node16</title>
<g id="a_edge18_Node000013_Node000016"><a xlink:title=" ">
<path fill="none" stroke="#63b8ff" d="M773.45,-247.37C791.17,-238.07 819.92,-222.99 842.95,-210.91"/>
<polygon fill="#63b8ff" stroke="#63b8ff" points="844.86,-213.86 852.09,-206.12 841.61,-207.66 844.86,-213.86"/>
</a>
</g>
</g>
<!-- Node20 -->
<g id="Node000020" class="node">
<title>Node20</title>
<g id="a_Node000020"><a xlink:href="Logger_8h.html" target="_top" xlink:title="Système de journalisation à 5 niveaux de trace, un fichier par moteur.">
<polygon fill="white" stroke="#666666" points="1157.5,-140 1046.5,-140 1046.5,-110 1157.5,-110 1157.5,-140"/>
<text text-anchor="start" x="1054.5" y="-128" font-family="Helvetica,sans-Serif" font-size="10.00">Engine/Core/Logger</text>
<text text-anchor="middle" x="1102" y="-117" font-family="Helvetica,sans-Serif" font-size="10.00">/Logger.h</text>
</a>
</g>
</g>
<!-- Node13&#45;&gt;Node20 -->
<g id="edge31_Node000013_Node000020" class="edge">
<title>Node13&#45;&gt;Node20</title>
<g id="a_edge31_Node000013_Node000020"><a xlink:title=" ">
<path fill="none" stroke="#63b8ff" d="M801.06,-248.84C843.12,-241.16 907.8,-227.14 961,-206 1001.83,-189.78 1045.29,-163.59 1073,-145.63"/>
<polygon fill="#63b8ff" stroke="#63b8ff" points="1074.97,-148.52 1081.42,-140.11 1071.13,-142.66 1074.97,-148.52"/>
</a>
</g>
</g>
<!-- Node14&#45;&gt;Node2 -->
<g id="edge15_Node000014_Node000002" class="edge">
<title>Node14&#45;&gt;Node2</title>
<g id="a_edge15_Node000014_Node000002"><a xlink:title=" ">
<path fill="none" stroke="#63b8ff" d="M619.86,-177.29C616.87,-176.85 613.91,-176.42 611,-176 495.1,-159.28 464.52,-164.46 350,-140 346.3,-139.21 342.47,-138.28 338.66,-137.29"/>
<polygon fill="#63b8ff" stroke="#63b8ff" points="339.3,-133.84 328.73,-134.55 337.44,-140.58 339.3,-133.84"/>
</a>
</g>
</g>
<!-- Node14&#45;&gt;Node11 -->
<g id="edge16_Node000014_Node000011" class="edge">
<title>Node14&#45;&gt;Node11</title>
<g id="a_edge16_Node000014_Node000011"><a xlink:title=" ">
<path fill="none" stroke="#63b8ff" d="M698.9,-175.78C695.63,-165.89 691.69,-152.32 690,-140 688.19,-126.79 687.98,-123.18 690,-110 691.35,-101.19 694.13,-91.74 696.85,-83.82"/>
<polygon fill="#63b8ff" stroke="#63b8ff" points="700.23,-84.77 700.4,-74.18 693.66,-82.35 700.23,-84.77"/>
</a>
</g>
</g>
<!-- Node16&#45;&gt;Node5 -->
<g id="edge19_Node000016_Node000005" class="edge">
<title>Node16&#45;&gt;Node5</title>
<g id="a_edge19_Node000016_Node000005"><a xlink:title=" ">
<path fill="none" stroke="#63b8ff" d="M812.09,-175.9C778.76,-167.63 738.34,-155.69 704,-140 668.09,-123.59 630.52,-96.89 608.74,-80.31"/>
<polygon fill="#63b8ff" stroke="#63b8ff" points="610.73,-77.42 600.68,-74.08 606.45,-82.96 610.73,-77.42"/>
</a>
</g>
</g>
<!-- Node16&#45;&gt;Node11 -->
<g id="edge20_Node000016_Node000011" class="edge">
<title>Node16&#45;&gt;Node11</title>
<g id="a_edge20_Node000016_Node000011"><a xlink:title=" ">
<path fill="none" stroke="#63b8ff" d="M815.01,-175.9C778.29,-166.59 736.96,-153.62 724,-140 709.75,-125.02 705.41,-101.02 704.22,-84.32"/>
<polygon fill="#63b8ff" stroke="#63b8ff" points="707.71,-83.98 703.81,-74.13 700.71,-84.26 707.71,-83.98"/>
</a>
</g>
</g>
<!-- Node17 -->
<g id="Node000017" class="node">
<title>Node17</title>
<g id="a_Node000017"><a xlink:title=" ">
<polygon fill="#e0e0e0" stroke="#999999" points="773.5,-134.5 732.5,-134.5 732.5,-115.5 773.5,-115.5 773.5,-134.5"/>
<text text-anchor="middle" x="753" y="-122.5" font-family="Helvetica,sans-Serif" font-size="10.00">wrl.h</text>
</a>
</g>
</g>
<!-- Node16&#45;&gt;Node17 -->
<g id="edge21_Node000016_Node000017" class="edge">
<title>Node16&#45;&gt;Node17</title>
<g id="a_edge21_Node000016_Node000017"><a xlink:title=" ">
<path fill="none" stroke="#63b8ff" d="M851.35,-175.95C829.74,-164.98 799.92,-149.83 778.8,-139.11"/>
<polygon fill="#63b8ff" stroke="#63b8ff" points="780.27,-135.93 769.77,-134.52 777.1,-142.17 780.27,-135.93"/>
</a>
</g>
</g>
<!-- Node18 -->
<g id="Node000018" class="node">
<title>Node18</title>
<g id="a_Node000018"><a xlink:title=" ">
<polygon fill="#e0e0e0" stroke="#999999" points="868.5,-134.5 791.5,-134.5 791.5,-115.5 868.5,-115.5 868.5,-134.5"/>
<text text-anchor="middle" x="830" y="-122.5" font-family="Helvetica,sans-Serif" font-size="10.00">WebView2.h</text>
</a>
</g>
</g>
<!-- Node16&#45;&gt;Node18 -->
<g id="edge22_Node000016_Node000018" class="edge">
<title>Node16&#45;&gt;Node18</title>
<g id="a_edge22_Node000016_Node000018"><a xlink:title=" ">
<path fill="none" stroke="#63b8ff" d="M868.13,-175.8C860.71,-166.11 850.86,-153.24 843.02,-143.01"/>
<polygon fill="#63b8ff" stroke="#63b8ff" points="845.63,-140.66 836.77,-134.84 840.07,-144.91 845.63,-140.66"/>
</a>
</g>
</g>
<!-- Node19 -->
<g id="Node000019" class="node">
<title>Node19</title>
<g id="a_Node000019"><a xlink:title=" ">
<polygon fill="#e0e0e0" stroke="#999999" points="951.5,-134.5 886.5,-134.5 886.5,-115.5 951.5,-115.5 951.5,-134.5"/>
<text text-anchor="middle" x="919" y="-122.5" font-family="Helvetica,sans-Serif" font-size="10.00">functional</text>
</a>
</g>
</g>
<!-- Node16&#45;&gt;Node19 -->
<g id="edge23_Node000016_Node000019" class="edge">
<title>Node16&#45;&gt;Node19</title>
<g id="a_edge23_Node000016_Node000019"><a xlink:title=" ">
<path fill="none" stroke="#63b8ff" d="M887.88,-175.8C893.81,-166.31 901.65,-153.76 907.98,-143.63"/>
<polygon fill="#63b8ff" stroke="#63b8ff" points="911.14,-145.18 913.47,-134.84 905.2,-141.47 911.14,-145.18"/>
</a>
</g>
</g>
<!-- Node16&#45;&gt;Node20 -->
<g id="edge24_Node000016_Node000020" class="edge">
<title>Node16&#45;&gt;Node20</title>
<g id="a_edge24_Node000016_Node000020"><a xlink:title=" ">
<path fill="none" stroke="#63b8ff" d="M927.94,-175.95C961.92,-166.2 1007.38,-153.16 1043.31,-142.84"/>
<polygon fill="#63b8ff" stroke="#63b8ff" points="1044.53,-146.14 1053.18,-140.01 1042.6,-139.41 1044.53,-146.14"/>
</a>
</g>
</g>
<!-- Node20&#45;&gt;Node11 -->
<g id="edge30_Node000020_Node000011" class="edge">
<title>Node20&#45;&gt;Node11</title>
<g id="a_edge30_Node000020_Node000011"><a xlink:title=" ">
<path fill="none" stroke="#63b8ff" d="M1046.27,-112.53C1041.45,-111.63 1036.64,-110.78 1032,-110 924.22,-91.93 795.58,-76.15 736.54,-69.23"/>
<polygon fill="#63b8ff" stroke="#63b8ff" points="736.68,-65.72 726.34,-68.04 735.87,-72.68 736.68,-65.72"/>
</a>
</g>
</g>
<!-- Node21 -->
<g id="Node000021" class="node">
<title>Node21</title>
<g id="a_Node000021"><a xlink:title=" ">
<polygon fill="#e0e0e0" stroke="#999999" points="1262,-74 1218,-74 1218,-55 1262,-55 1262,-74"/>
<text text-anchor="middle" x="1240" y="-62" font-family="Helvetica,sans-Serif" font-size="10.00">ctime</text>
</a>
</g>
</g>
<!-- Node20&#45;&gt;Node21 -->
<g id="edge25_Node000020_Node000021" class="edge">
<title>Node20&#45;&gt;Node21</title>
<g id="a_edge25_Node000020_Node000021"><a xlink:title=" ">
<path fill="none" stroke="#63b8ff" d="M1135.05,-109.99C1157.98,-100.27 1188.24,-87.44 1210.38,-78.06"/>
<polygon fill="#63b8ff" stroke="#63b8ff" points="1211.78,-81.26 1219.62,-74.14 1209.05,-74.82 1211.78,-81.26"/>
</a>
</g>
</g>
<!-- Node22 -->
<g id="Node000022" class="node">
<title>Node22</title>
<g id="a_Node000022"><a xlink:title=" ">
<polygon fill="#e0e0e0" stroke="#999999" points="986,-74 918,-74 918,-55 986,-55 986,-74"/>
<text text-anchor="middle" x="952" y="-62" font-family="Helvetica,sans-Serif" font-size="10.00">filesystem</text>
</a>
</g>
</g>
<!-- Node20&#45;&gt;Node22 -->
<g id="edge26_Node000020_Node000022" class="edge">
<title>Node20&#45;&gt;Node22</title>
<g id="a_edge26_Node000020_Node000022"><a xlink:title=" ">
<path fill="none" stroke="#63b8ff" d="M1066.07,-109.99C1040.93,-100.18 1007.67,-87.21 983.55,-77.81"/>
<polygon fill="#63b8ff" stroke="#63b8ff" points="984.74,-74.51 974.15,-74.14 982.2,-81.03 984.74,-74.51"/>
</a>
</g>
</g>
<!-- Node23 -->
<g id="Node000023" class="node">
<title>Node23</title>
<g id="a_Node000023"><a xlink:title=" ">
<polygon fill="#e0e0e0" stroke="#999999" points="1059.5,-74 1004.5,-74 1004.5,-55 1059.5,-55 1059.5,-74"/>
<text text-anchor="middle" x="1032" y="-62" font-family="Helvetica,sans-Serif" font-size="10.00">fstream</text>
</a>
</g>
</g>
<!-- Node20&#45;&gt;Node23 -->
<g id="edge27_Node000020_Node000023" class="edge">
<title>Node20&#45;&gt;Node23</title>
<g id="a_edge27_Node000020_Node000023"><a xlink:title=" ">
<path fill="none" stroke="#63b8ff" d="M1085.05,-109.84C1074.58,-101.09 1061.14,-89.85 1050.41,-80.88"/>
<polygon fill="#63b8ff" stroke="#63b8ff" points="1052.41,-77.99 1042.49,-74.27 1047.92,-83.36 1052.41,-77.99"/>
</a>
</g>
</g>
<!-- Node24 -->
<g id="Node000024" class="node">
<title>Node24</title>
<g id="a_Node000024"><a xlink:title=" ">
<polygon fill="#e0e0e0" stroke="#999999" points="1126,-74 1078,-74 1078,-55 1126,-55 1126,-74"/>
<text text-anchor="middle" x="1102" y="-62" font-family="Helvetica,sans-Serif" font-size="10.00">mutex</text>
</a>
</g>
</g>
<!-- Node20&#45;&gt;Node24 -->
<g id="edge28_Node000020_Node000024" class="edge">
<title>Node20&#45;&gt;Node24</title>
<g id="a_edge28_Node000020_Node000024"><a xlink:title=" ">
<path fill="none" stroke="#63b8ff" d="M1102,-109.84C1102,-102.21 1102,-92.7 1102,-84.45"/>
<polygon fill="#63b8ff" stroke="#63b8ff" points="1105.5,-84.27 1102,-74.27 1098.5,-84.27 1105.5,-84.27"/>
</a>
</g>
</g>
<!-- Node25 -->
<g id="Node000025" class="node">
<title>Node25</title>
<g id="a_Node000025"><a xlink:title=" ">
<polygon fill="#e0e0e0" stroke="#999999" points="1200,-74 1144,-74 1144,-55 1200,-55 1200,-74"/>
<text text-anchor="middle" x="1172" y="-62" font-family="Helvetica,sans-Serif" font-size="10.00">sstream</text>
</a>
</g>
</g>
<!-- Node20&#45;&gt;Node25 -->
<g id="edge29_Node000020_Node000025" class="edge">
<title>Node20&#45;&gt;Node25</title>
<g id="a_edge29_Node000020_Node000025"><a xlink:title=" ">
<path fill="none" stroke="#63b8ff" d="M1118.95,-109.84C1129.42,-101.09 1142.86,-89.85 1153.59,-80.88"/>
<polygon fill="#63b8ff" stroke="#63b8ff" points="1156.08,-83.36 1161.51,-74.27 1151.59,-77.99 1156.08,-83.36"/>
</a>
</g>
</g>
<!-- Node26&#45;&gt;Node2 -->
<g id="edge33_Node000026_Node000002" class="edge">
<title>Node26&#45;&gt;Node2</title>
<g id="a_edge33_Node000026_Node000002"><a xlink:title=" ">
<path fill="none" stroke="#63b8ff" d="M366.8,-250.19C338.19,-244.06 305.78,-231.54 288,-206 275.14,-187.52 283.77,-160.97 292.08,-143.61"/>
<polygon fill="#63b8ff" stroke="#63b8ff" points="295.27,-145.07 296.78,-134.58 289.06,-141.84 295.27,-145.07"/>
</a>
</g>
</g>
<!-- Node27&#45;&gt;Node2 -->
<g id="edge35_Node000027_Node000002" class="edge">
<title>Node27&#45;&gt;Node2</title>
<g id="a_edge35_Node000027_Node000002"><a xlink:title=" ">
<path fill="none" stroke="#63b8ff" d="M367.36,-175.8C353.88,-165.53 335.69,-151.67 321.92,-141.18"/>
<polygon fill="#63b8ff" stroke="#63b8ff" points="323.68,-138.12 313.61,-134.84 319.44,-143.69 323.68,-138.12"/>
</a>
</g>
</g>
<!-- Node27&#45;&gt;Node11 -->
<g id="edge37_Node000027_Node000011" class="edge">
<title>Node27&#45;&gt;Node11</title>
<g id="a_edge37_Node000027_Node000011"><a xlink:title=" ">
<path fill="none" stroke="#63b8ff" d="M421.86,-175.96C484.51,-151.43 612.87,-101.18 672.4,-77.87"/>
<polygon fill="#63b8ff" stroke="#63b8ff" points="673.97,-81.01 682.01,-74.11 671.42,-74.5 673.97,-81.01"/>
</a>
</g>
</g>
<!-- Node28 -->
<g id="Node000028" class="node">
<title>Node28</title>
<g id="a_Node000028"><a xlink:title=" ">
<polygon fill="#e0e0e0" stroke="#999999" points="415,-134.5 359,-134.5 359,-115.5 415,-115.5 415,-134.5"/>
<text text-anchor="middle" x="387" y="-122.5" font-family="Helvetica,sans-Serif" font-size="10.00">optional</text>
</a>
</g>
</g>
<!-- Node27&#45;&gt;Node28 -->
<g id="edge36_Node000027_Node000028" class="edge">
<title>Node27&#45;&gt;Node28</title>
<g id="a_edge36_Node000027_Node000028"><a xlink:title=" ">
<path fill="none" stroke="#63b8ff" d="M386.22,-175.8C386.36,-166.7 386.55,-154.79 386.7,-144.9"/>
<polygon fill="#63b8ff" stroke="#63b8ff" points="390.21,-144.9 386.86,-134.84 383.21,-144.79 390.21,-144.9"/>
</a>
</g>
</g>
<!-- Node30 -->
<g id="Node000030" class="node">
<title>Node30</title>
<g id="a_Node000030"><a xlink:title=" ">
<polygon fill="#e0e0e0" stroke="#999999" points="1209,-200.5 1141,-200.5 1141,-181.5 1209,-181.5 1209,-200.5"/>
<text text-anchor="middle" x="1175" y="-188.5" font-family="Helvetica,sans-Serif" font-size="10.00">resource.h</text>
</a>
</g>
</g>
<!-- Node29&#45;&gt;Node30 -->
<g id="edge39_Node000029_Node000030" class="edge">
<title>Node29&#45;&gt;Node30</title>
<g id="a_edge39_Node000029_Node000030"><a xlink:title=" ">
<path fill="none" stroke="#63b8ff" d="M1175,-247.37C1175,-238.16 1175,-223.29 1175,-211.27"/>
<polygon fill="#63b8ff" stroke="#63b8ff" points="1178.5,-210.91 1175,-200.91 1171.5,-210.91 1178.5,-210.91"/>
</a>
</g>
</g>
<!-- Node31&#45;&gt;Node11 -->
<g id="edge41_Node000031_Node000011" class="edge">
<title>Node31&#45;&gt;Node11</title>
<g id="a_edge41_Node000031_Node000011"><a xlink:title=" ">
<path fill="none" stroke="#63b8ff" d="M1020.5,-241.98C1024.79,-212.86 1029.97,-145.59 994,-110 958.17,-74.55 804.41,-67.32 736.48,-65.86"/>
<polygon fill="#63b8ff" stroke="#63b8ff" points="736.41,-62.36 726.35,-65.67 736.28,-69.35 736.41,-62.36"/>
</a>
</g>
</g>
</g>
</svg>
