<?xml version="1.0" encoding="UTF-8" standalone="no"?>
<!DOCTYPE svg PUBLIC "-//W3C//DTD SVG 1.1//EN"
 "http://www.w3.org/Graphics/SVG/1.1/DTD/svg11.dtd">
<!-- Generated by graphviz version 2.43.0 (0)
 -->
<!-- Title: SimulateurFerroviaire/Modules/PCC/PCCEdge.h Pages: 1 -->
<svg width="730pt" height="236pt"
 viewBox="0.00 0.00 730.00 236.00" xmlns="http://www.w3.org/2000/svg" xmlns:xlink="http://www.w3.org/1999/xlink">
<g id="graph0" class="graph" transform="scale(1 1) rotate(0) translate(4 232)">
<title>SimulateurFerroviaire/Modules/PCC/PCCEdge.h</title>
<!-- Node1 -->
<g id="Node000001" class="node">
<title>Node1</title>
<g id="a_Node000001"><a xlink:title="Connexion orientée entre deux nœuds du graphe PCC.">
<polygon fill="#999999" stroke="#666666" points="229.5,-228 90.5,-228 90.5,-198 229.5,-198 229.5,-228"/>
<text text-anchor="start" x="98.5" y="-216" font-family="Helvetica,sans-Serif" font-size="10.00">SimulateurFerroviaire</text>
<text text-anchor="middle" x="160" y="-205" font-family="Helvetica,sans-Serif" font-size="10.00">/Modules/PCC/PCCEdge.h</text>
</a>
</g>
</g>
<!-- Node2 -->
<g id="Node000002" class="node">
<title>Node2</title>
<g id="a_Node000002"><a xlink:href="PCCEdge_8cpp.html" target="_top" xlink:title="Implémentation de l&#39;arête orientée du graphe PCC.">
<polygon fill="white" stroke="#666666" points="150,-96 0,-96 0,-66 150,-66 150,-96"/>
<text text-anchor="start" x="8" y="-84" font-family="Helvetica,sans-Serif" font-size="10.00">SimulateurFerroviaire</text>
<text text-anchor="middle" x="75" y="-73" font-family="Helvetica,sans-Serif" font-size="10.00">/Modules/PCC/PCCEdge.cpp</text>
</a>
</g>
</g>
<!-- Node1&#45;&gt;Node2 -->
<g id="edge1_Node000001_Node000002" class="edge">
<title>Node1&#45;&gt;Node2</title>
<g id="a_edge1_Node000001_Node000002"><a xlink:title=" ">
<path fill="none" stroke="#63b8ff" d="M145.26,-189.45C127.71,-162.61 98.93,-118.6 84.25,-96.14"/>
<polygon fill="#63b8ff" stroke="#63b8ff" points="142.34,-191.39 150.74,-197.84 148.2,-187.56 142.34,-191.39"/>
</a>
</g>
</g>
<!-- Node3 -->
<g id="Node000003" class="node">
<title>Node3</title>
<g id="a_Node000003"><a xlink:href="PCCNode_8h.html" target="_top" xlink:title="Nœud abstrait du graphe PCC représentant un bloc ferroviaire.">
<polygon fill="white" stroke="#666666" points="314,-162 174,-162 174,-132 314,-132 314,-162"/>
<text text-anchor="start" x="182" y="-150" font-family="Helvetica,sans-Serif" font-size="10.00">SimulateurFerroviaire</text>
<text text-anchor="middle" x="244" y="-139" font-family="Helvetica,sans-Serif" font-size="10.00">/Modules/PCC/PCCNode.h</text>
</a>
</g>
</g>
<!-- Node1&#45;&gt;Node3 -->
<g id="edge2_Node000001_Node000003" class="edge">
<title>Node1&#45;&gt;Node3</title>
<g id="a_edge2_Node000001_Node000003"><a xlink:title=" ">
<path fill="none" stroke="#63b8ff" d="M186.94,-191.48C199.49,-181.91 214.11,-170.77 225.41,-162.16"/>
<polygon fill="#63b8ff" stroke="#63b8ff" points="184.48,-188.95 178.64,-197.8 188.72,-194.52 184.48,-188.95"/>
</a>
</g>
</g>
<!-- Node3&#45;&gt;Node2 -->
<g id="edge3_Node000003_Node000002" class="edge">
<title>Node3&#45;&gt;Node2</title>
<g id="a_edge3_Node000003_Node000002"><a xlink:title=" ">
<path fill="none" stroke="#63b8ff" d="M197.32,-128.32C170.42,-118.14 137.08,-105.51 112,-96.01"/>
<polygon fill="#63b8ff" stroke="#63b8ff" points="196.32,-131.69 206.91,-131.95 198.8,-125.14 196.32,-131.69"/>
</a>
</g>
</g>
<!-- Node4 -->
<g id="Node000004" class="node">
<title>Node4</title>
<g id="a_Node000004"><a xlink:href="PCCNode_8cpp.html" target="_top" xlink:title="Implémentation du nœud abstrait du graphe PCC.">
<polygon fill="white" stroke="#666666" points="320,-96 168,-96 168,-66 320,-66 320,-96"/>
<text text-anchor="start" x="176" y="-84" font-family="Helvetica,sans-Serif" font-size="10.00">SimulateurFerroviaire</text>
<text text-anchor="middle" x="244" y="-73" font-family="Helvetica,sans-Serif" font-size="10.00">/Modules/PCC/PCCNode.cpp</text>
</a>
</g>
</g>
<!-- Node3&#45;&gt;Node4 -->
<g id="edge4_Node000003_Node000004" class="edge">
<title>Node3&#45;&gt;Node4</title>
<g id="a_edge4_Node000003_Node000004"><a xlink:title=" ">
<path fill="none" stroke="#63b8ff" d="M244,-121.54C244,-112.96 244,-103.61 244,-96.16"/>
<polygon fill="#63b8ff" stroke="#63b8ff" points="240.5,-121.8 244,-131.8 247.5,-121.8 240.5,-121.8"/>
</a>
</g>
</g>
<!-- Node5 -->
<g id="Node000005" class="node">
<title>Node5</title>
<g id="a_Node000005"><a xlink:href="PCCStraightNode_8h.html" target="_top" xlink:title="Nœud PCC représentant un StraightBlock.">
<polygon fill="white" stroke="#666666" points="517.5,-96 338.5,-96 338.5,-66 517.5,-66 517.5,-96"/>
<text text-anchor="start" x="346.5" y="-84" font-family="Helvetica,sans-Serif" font-size="10.00">SimulateurFerroviaire</text>
<text text-anchor="middle" x="428" y="-73" font-family="Helvetica,sans-Serif" font-size="10.00">/Modules/PCC/PCCStraightNode.h</text>
</a>
</g>
</g>
<!-- Node3&#45;&gt;Node5 -->
<g id="edge5_Node000003_Node000005" class="edge">
<title>Node3&#45;&gt;Node5</title>
<g id="a_edge5_Node000003_Node000005"><a xlink:title=" ">
<path fill="none" stroke="#63b8ff" d="M294.05,-128.59C323.47,-118.36 360.17,-105.59 387.71,-96.01"/>
<polygon fill="#63b8ff" stroke="#63b8ff" points="292.67,-125.36 284.38,-131.95 294.97,-131.98 292.67,-125.36"/>
</a>
</g>
</g>
<!-- Node7 -->
<g id="Node000007" class="node">
<title>Node7</title>
<g id="a_Node000007"><a xlink:href="PCCSwitchNode_8h.html" target="_top" xlink:title="Nœud PCC représentant un SwitchBlock.">
<polygon fill="white" stroke="#666666" points="713.5,-96 540.5,-96 540.5,-66 713.5,-66 713.5,-96"/>
<text text-anchor="start" x="548.5" y="-84" font-family="Helvetica,sans-Serif" font-size="10.00">SimulateurFerroviaire</text>
<text text-anchor="middle" x="627" y="-73" font-family="Helvetica,sans-Serif" font-size="10.00">/Modules/PCC/PCCSwitchNode.h</text>
</a>
</g>
</g>
<!-- Node3&#45;&gt;Node7 -->
<g id="edge7_Node000003_Node000007" class="edge">
<title>Node3&#45;&gt;Node7</title>
<g id="a_edge7_Node000003_Node000007"><a xlink:title=" ">
<path fill="none" stroke="#63b8ff" d="M324.32,-132.58C388.48,-121.86 478.11,-106.88 543.18,-96.01"/>
<polygon fill="#63b8ff" stroke="#63b8ff" points="323.53,-129.16 314.25,-134.26 324.69,-136.07 323.53,-129.16"/>
</a>
</g>
</g>
<!-- Node6 -->
<g id="Node000006" class="node">
<title>Node6</title>
<g id="a_Node000006"><a xlink:href="PCCStraightNode_8cpp.html" target="_top" xlink:title="Implémentation du nœud PCC pour voie droite.">
<polygon fill="white" stroke="#666666" points="520,-30 330,-30 330,0 520,0 520,-30"/>
<text text-anchor="start" x="338" y="-18" font-family="Helvetica,sans-Serif" font-size="10.00">SimulateurFerroviaire</text>
<text text-anchor="middle" x="425" y="-7" font-family="Helvetica,sans-Serif" font-size="10.00">/Modules/PCC/PCCStraightNode.cpp</text>
</a>
</g>
</g>
<!-- Node5&#45;&gt;Node6 -->
<g id="edge6_Node000005_Node000006" class="edge">
<title>Node5&#45;&gt;Node6</title>
<g id="a_edge6_Node000005_Node000006"><a xlink:title=" ">
<path fill="none" stroke="#63b8ff" d="M426.85,-55.54C426.45,-46.96 426.01,-37.61 425.66,-30.16"/>
<polygon fill="#63b8ff" stroke="#63b8ff" points="423.37,-55.97 427.33,-65.8 430.36,-55.64 423.37,-55.97"/>
</a>
</g>
</g>
<!-- Node8 -->
<g id="Node000008" class="node">
<title>Node8</title>
<g id="a_Node000008"><a xlink:href="PCCSwitchNode_8cpp.html" target="_top" xlink:title="Implémentation du nœud PCC pour aiguillage.">
<polygon fill="white" stroke="#666666" points="722,-30 538,-30 538,0 722,0 722,-30"/>
<text text-anchor="start" x="546" y="-18" font-family="Helvetica,sans-Serif" font-size="10.00">SimulateurFerroviaire</text>
<text text-anchor="middle" x="630" y="-7" font-family="Helvetica,sans-Serif" font-size="10.00">/Modules/PCC/PCCSwitchNode.cpp</text>
</a>
</g>
</g>
<!-- Node7&#45;&gt;Node8 -->
<g id="edge8_Node000007_Node000008" class="edge">
<title>Node7&#45;&gt;Node8</title>
<g id="a_edge8_Node000007_Node000008"><a xlink:title=" ">
<path fill="none" stroke="#63b8ff" d="M628.15,-55.54C628.55,-46.96 628.99,-37.61 629.34,-30.16"/>
<polygon fill="#63b8ff" stroke="#63b8ff" points="624.64,-55.64 627.67,-65.8 631.63,-55.97 624.64,-55.64"/>
</a>
</g>
</g>
</g>
</svg>
