<?xml version="1.0" encoding="UTF-8" standalone="no"?>
<!DOCTYPE svg PUBLIC "-//W3C//DTD SVG 1.1//EN"
 "http://www.w3.org/Graphics/SVG/1.1/DTD/svg11.dtd">
<!-- Generated by graphviz version 2.43.0 (0)
 -->
<!-- Title: SimulateurFerroviaire/Modules/PCC/PCCNode.cpp Pages: 1 -->
<svg width="458pt" height="346pt"
 viewBox="0.00 0.00 458.19 346.00" xmlns="http://www.w3.org/2000/svg" xmlns:xlink="http://www.w3.org/1999/xlink">
<g id="graph0" class="graph" transform="scale(1 1) rotate(0) translate(4 342)">
<title>SimulateurFerroviaire/Modules/PCC/PCCNode.cpp</title>
<!-- Node1 -->
<g id="Node000001" class="node">
<title>Node1</title>
<g id="a_Node000001"><a xlink:title="Implémentation du nœud abstrait du graphe PCC.">
<polygon fill="#999999" stroke="#666666" points="202.19,-338 50.19,-338 50.19,-308 202.19,-308 202.19,-338"/>
<text text-anchor="start" x="58.19" y="-326" font-family="Helvetica,sans-Serif" font-size="10.00">SimulateurFerroviaire</text>
<text text-anchor="middle" x="126.19" y="-315" font-family="Helvetica,sans-Serif" font-size="10.00">/Modules/PCC/PCCNode.cpp</text>
</a>
</g>
</g>
<!-- Node2 -->
<g id="Node000002" class="node">
<title>Node2</title>
<g id="a_Node000002"><a xlink:href="PCCNode_8h.html" target="_top" xlink:title="Nœud abstrait du graphe PCC représentant un bloc ferroviaire.">
<polygon fill="white" stroke="#666666" points="118.69,-272 47.69,-272 47.69,-253 118.69,-253 118.69,-272"/>
<text text-anchor="middle" x="83.19" y="-260" font-family="Helvetica,sans-Serif" font-size="10.00">PCCNode.h</text>
</a>
</g>
</g>
<!-- Node1&#45;&gt;Node2 -->
<g id="edge1_Node000001_Node000002" class="edge">
<title>Node1&#45;&gt;Node2</title>
<g id="a_edge1_Node000001_Node000002"><a xlink:title=" ">
<path fill="none" stroke="#63b8ff" d="M115.78,-307.84C109.73,-299.61 102.06,-289.18 95.69,-280.51"/>
<polygon fill="#63b8ff" stroke="#63b8ff" points="98.37,-278.25 89.63,-272.27 92.73,-282.4 98.37,-278.25"/>
</a>
</g>
</g>
<!-- Node14 -->
<g id="Node000014" class="node">
<title>Node14</title>
<g id="a_Node000014"><a xlink:title=" ">
<polygon fill="#e0e0e0" stroke="#999999" points="201.69,-272 136.69,-272 136.69,-253 201.69,-253 201.69,-272"/>
<text text-anchor="middle" x="169.19" y="-260" font-family="Helvetica,sans-Serif" font-size="10.00">stdexcept</text>
</a>
</g>
</g>
<!-- Node1&#45;&gt;Node14 -->
<g id="edge15_Node000001_Node000014" class="edge">
<title>Node1&#45;&gt;Node14</title>
<g id="a_edge15_Node000001_Node000014"><a xlink:title=" ">
<path fill="none" stroke="#63b8ff" d="M136.6,-307.84C142.65,-299.61 150.31,-289.18 156.69,-280.51"/>
<polygon fill="#63b8ff" stroke="#63b8ff" points="159.64,-282.4 162.75,-272.27 154,-278.25 159.64,-282.4"/>
</a>
</g>
</g>
<!-- Node3 -->
<g id="Node000003" class="node">
<title>Node3</title>
<g id="a_Node000003"><a xlink:title=" ">
<polygon fill="#e0e0e0" stroke="#999999" points="88.19,-19 44.19,-19 44.19,0 88.19,0 88.19,-19"/>
<text text-anchor="middle" x="66.19" y="-7" font-family="Helvetica,sans-Serif" font-size="10.00">string</text>
</a>
</g>
</g>
<!-- Node2&#45;&gt;Node3 -->
<g id="edge2_Node000002_Node000003" class="edge">
<title>Node2&#45;&gt;Node3</title>
<g id="a_edge2_Node000002_Node000003"><a xlink:title=" ">
<path fill="none" stroke="#63b8ff" d="M57.68,-252.9C41.49,-245.96 21.84,-234.44 12.19,-217 -23.38,-152.74 28.5,-64.2 53.74,-27.5"/>
<polygon fill="#63b8ff" stroke="#63b8ff" points="56.6,-29.52 59.51,-19.33 50.88,-25.48 56.6,-29.52"/>
</a>
</g>
</g>
<!-- Node4 -->
<g id="Node000004" class="node">
<title>Node4</title>
<g id="a_Node000004"><a xlink:title=" ">
<polygon fill="#e0e0e0" stroke="#999999" points="68.69,-211.5 21.69,-211.5 21.69,-192.5 68.69,-192.5 68.69,-211.5"/>
<text text-anchor="middle" x="45.19" y="-199.5" font-family="Helvetica,sans-Serif" font-size="10.00">vector</text>
</a>
</g>
</g>
<!-- Node2&#45;&gt;Node4 -->
<g id="edge3_Node000002_Node000004" class="edge">
<title>Node2&#45;&gt;Node4</title>
<g id="a_edge3_Node000002_Node000004"><a xlink:title=" ">
<path fill="none" stroke="#63b8ff" d="M77.58,-252.87C72.03,-244.31 63.36,-230.97 56.39,-220.24"/>
<polygon fill="#63b8ff" stroke="#63b8ff" points="59.2,-218.15 50.82,-211.67 53.33,-221.96 59.2,-218.15"/>
</a>
</g>
</g>
<!-- Node5 -->
<g id="Node000005" class="node">
<title>Node5</title>
<g id="a_Node000005"><a xlink:href="PCCEdge_8h.html" target="_top" xlink:title="Connexion orientée entre deux nœuds du graphe PCC.">
<polygon fill="white" stroke="#666666" points="155.69,-211.5 86.69,-211.5 86.69,-192.5 155.69,-192.5 155.69,-211.5"/>
<text text-anchor="middle" x="121.19" y="-199.5" font-family="Helvetica,sans-Serif" font-size="10.00">PCCEdge.h</text>
</a>
</g>
</g>
<!-- Node2&#45;&gt;Node5 -->
<g id="edge4_Node000002_Node000005" class="edge">
<title>Node2&#45;&gt;Node5</title>
<g id="a_edge4_Node000002_Node000005"><a xlink:title=" ">
<path fill="none" stroke="#63b8ff" d="M88.8,-252.87C94.35,-244.31 103.02,-230.97 109.99,-220.24"/>
<polygon fill="#63b8ff" stroke="#63b8ff" points="113.05,-221.96 115.56,-211.67 107.18,-218.15 113.05,-221.96"/>
</a>
</g>
</g>
<!-- Node6 -->
<g id="Node000006" class="node">
<title>Node6</title>
<g id="a_Node000006"><a xlink:href="ShuntingElement_8h.html" target="_top" xlink:title="Interface abstraite pour tous les éléments de shuntage ferroviaire.">
<polygon fill="white" stroke="#666666" points="376.69,-217 173.69,-217 173.69,-187 376.69,-187 376.69,-217"/>
<text text-anchor="start" x="181.69" y="-205" font-family="Helvetica,sans-Serif" font-size="10.00">Modules/InteractiveElements</text>
<text text-anchor="middle" x="275.19" y="-194" font-family="Helvetica,sans-Serif" font-size="10.00">/ShuntingElements/ShuntingElement.h</text>
</a>
</g>
</g>
<!-- Node2&#45;&gt;Node6 -->
<g id="edge5_Node000002_Node000006" class="edge">
<title>Node2&#45;&gt;Node6</title>
<g id="a_edge5_Node000002_Node000006"><a xlink:title=" ">
<path fill="none" stroke="#63b8ff" d="M111.11,-252.99C139.34,-244.39 183.77,-230.86 219.27,-220.04"/>
<polygon fill="#63b8ff" stroke="#63b8ff" points="220.48,-223.33 229.03,-217.06 218.44,-216.63 220.48,-223.33"/>
</a>
</g>
</g>
<!-- Node7 -->
<g id="Node000007" class="node">
<title>Node7</title>
<g id="a_Node000007"><a xlink:href="InteractiveElement_8h.html" target="_top" xlink:title="Classe de base abstraite pour tous les éléments interactifs ferroviaires.">
<polygon fill="white" stroke="#666666" points="317.69,-151 158.69,-151 158.69,-121 317.69,-121 317.69,-151"/>
<text text-anchor="start" x="166.69" y="-139" font-family="Helvetica,sans-Serif" font-size="10.00">Modules/InteractiveElements</text>
<text text-anchor="middle" x="238.19" y="-128" font-family="Helvetica,sans-Serif" font-size="10.00">/InteractiveElement.h</text>
</a>
</g>
</g>
<!-- Node6&#45;&gt;Node7 -->
<g id="edge6_Node000006_Node000007" class="edge">
<title>Node6&#45;&gt;Node7</title>
<g id="a_edge6_Node000006_Node000007"><a xlink:title=" ">
<path fill="none" stroke="#63b8ff" d="M266.98,-186.8C262.43,-178.92 256.66,-168.95 251.48,-159.99"/>
<polygon fill="#63b8ff" stroke="#63b8ff" points="254.41,-158.07 246.38,-151.16 248.35,-161.57 254.41,-158.07"/>
</a>
</g>
</g>
<!-- Node7&#45;&gt;Node3 -->
<g id="edge7_Node000007_Node000003" class="edge">
<title>Node7&#45;&gt;Node3</title>
<g id="a_edge7_Node000007_Node000003"><a xlink:title=" ">
<path fill="none" stroke="#63b8ff" d="M218.79,-120.96C186.03,-97.24 120.03,-49.47 86.6,-25.27"/>
<polygon fill="#63b8ff" stroke="#63b8ff" points="88.24,-22.14 78.08,-19.11 84.13,-27.81 88.24,-22.14"/>
</a>
</g>
</g>
<!-- Node8 -->
<g id="Node000008" class="node">
<title>Node8</title>
<g id="a_Node000008"><a xlink:href="Logger_8h.html" target="_top" xlink:title="Système de journalisation à 5 niveaux de trace, un fichier par moteur.">
<polygon fill="white" stroke="#666666" points="293.69,-85 182.69,-85 182.69,-55 293.69,-55 293.69,-85"/>
<text text-anchor="start" x="190.69" y="-73" font-family="Helvetica,sans-Serif" font-size="10.00">Engine/Core/Logger</text>
<text text-anchor="middle" x="238.19" y="-62" font-family="Helvetica,sans-Serif" font-size="10.00">/Logger.h</text>
</a>
</g>
</g>
<!-- Node7&#45;&gt;Node8 -->
<g id="edge8_Node000007_Node000008" class="edge">
<title>Node7&#45;&gt;Node8</title>
<g id="a_edge8_Node000007_Node000008"><a xlink:title=" ">
<path fill="none" stroke="#63b8ff" d="M238.19,-120.8C238.19,-113.34 238.19,-103.99 238.19,-95.41"/>
<polygon fill="#63b8ff" stroke="#63b8ff" points="241.69,-95.16 238.19,-85.16 234.69,-95.16 241.69,-95.16"/>
</a>
</g>
</g>
<!-- Node8&#45;&gt;Node3 -->
<g id="edge14_Node000008_Node000003" class="edge">
<title>Node8&#45;&gt;Node3</title>
<g id="a_edge14_Node000008_Node000003"><a xlink:title=" ">
<path fill="none" stroke="#63b8ff" d="M196.99,-54.99C166.72,-44.69 126.17,-30.9 98.29,-21.42"/>
<polygon fill="#63b8ff" stroke="#63b8ff" points="99.23,-18.04 88.63,-18.13 96.97,-24.67 99.23,-18.04"/>
</a>
</g>
</g>
<!-- Node9 -->
<g id="Node000009" class="node">
<title>Node9</title>
<g id="a_Node000009"><a xlink:title=" ">
<polygon fill="#e0e0e0" stroke="#999999" points="150.19,-19 106.19,-19 106.19,0 150.19,0 150.19,-19"/>
<text text-anchor="middle" x="128.19" y="-7" font-family="Helvetica,sans-Serif" font-size="10.00">ctime</text>
</a>
</g>
</g>
<!-- Node8&#45;&gt;Node9 -->
<g id="edge9_Node000008_Node000009" class="edge">
<title>Node8&#45;&gt;Node9</title>
<g id="a_edge9_Node000008_Node000009"><a xlink:title=" ">
<path fill="none" stroke="#63b8ff" d="M211.84,-54.99C194.14,-45.58 170.96,-33.24 153.48,-23.95"/>
<polygon fill="#63b8ff" stroke="#63b8ff" points="154.91,-20.74 144.43,-19.14 151.62,-26.92 154.91,-20.74"/>
</a>
</g>
</g>
<!-- Node10 -->
<g id="Node000010" class="node">
<title>Node10</title>
<g id="a_Node000010"><a xlink:title=" ">
<polygon fill="#e0e0e0" stroke="#999999" points="236.19,-19 168.19,-19 168.19,0 236.19,0 236.19,-19"/>
<text text-anchor="middle" x="202.19" y="-7" font-family="Helvetica,sans-Serif" font-size="10.00">filesystem</text>
</a>
</g>
</g>
<!-- Node8&#45;&gt;Node10 -->
<g id="edge10_Node000008_Node000010" class="edge">
<title>Node8&#45;&gt;Node10</title>
<g id="a_edge10_Node000008_Node000010"><a xlink:title=" ">
<path fill="none" stroke="#63b8ff" d="M229.47,-54.84C224.52,-46.78 218.26,-36.62 212.99,-28.06"/>
<polygon fill="#63b8ff" stroke="#63b8ff" points="215.81,-25.95 207.58,-19.27 209.84,-29.62 215.81,-25.95"/>
</a>
</g>
</g>
<!-- Node11 -->
<g id="Node000011" class="node">
<title>Node11</title>
<g id="a_Node000011"><a xlink:title=" ">
<polygon fill="#e0e0e0" stroke="#999999" points="309.69,-19 254.69,-19 254.69,0 309.69,0 309.69,-19"/>
<text text-anchor="middle" x="282.19" y="-7" font-family="Helvetica,sans-Serif" font-size="10.00">fstream</text>
</a>
</g>
</g>
<!-- Node8&#45;&gt;Node11 -->
<g id="edge11_Node000008_Node000011" class="edge">
<title>Node8&#45;&gt;Node11</title>
<g id="a_edge11_Node000008_Node000011"><a xlink:title=" ">
<path fill="none" stroke="#63b8ff" d="M248.84,-54.84C255.03,-46.61 262.87,-36.18 269.4,-27.51"/>
<polygon fill="#63b8ff" stroke="#63b8ff" points="272.38,-29.36 275.6,-19.27 266.79,-25.15 272.38,-29.36"/>
</a>
</g>
</g>
<!-- Node12 -->
<g id="Node000012" class="node">
<title>Node12</title>
<g id="a_Node000012"><a xlink:title=" ">
<polygon fill="#e0e0e0" stroke="#999999" points="376.19,-19 328.19,-19 328.19,0 376.19,0 376.19,-19"/>
<text text-anchor="middle" x="352.19" y="-7" font-family="Helvetica,sans-Serif" font-size="10.00">mutex</text>
</a>
</g>
</g>
<!-- Node8&#45;&gt;Node12 -->
<g id="edge12_Node000008_Node000012" class="edge">
<title>Node8&#45;&gt;Node12</title>
<g id="a_edge12_Node000008_Node000012"><a xlink:title=" ">
<path fill="none" stroke="#63b8ff" d="M265.49,-54.99C283.84,-45.58 307.87,-33.24 325.98,-23.95"/>
<polygon fill="#63b8ff" stroke="#63b8ff" points="328.05,-26.82 335.35,-19.14 324.86,-20.59 328.05,-26.82"/>
</a>
</g>
</g>
<!-- Node13 -->
<g id="Node000013" class="node">
<title>Node13</title>
<g id="a_Node000013"><a xlink:title=" ">
<polygon fill="#e0e0e0" stroke="#999999" points="450.19,-19 394.19,-19 394.19,0 450.19,0 450.19,-19"/>
<text text-anchor="middle" x="422.19" y="-7" font-family="Helvetica,sans-Serif" font-size="10.00">sstream</text>
</a>
</g>
</g>
<!-- Node8&#45;&gt;Node13 -->
<g id="edge13_Node000008_Node000013" class="edge">
<title>Node8&#45;&gt;Node13</title>
<g id="a_edge13_Node000008_Node000013"><a xlink:title=" ">
<path fill="none" stroke="#63b8ff" d="M282.26,-54.99C313.88,-44.94 355.97,-31.55 385.71,-22.1"/>
<polygon fill="#63b8ff" stroke="#63b8ff" points="386.82,-25.42 395.29,-19.05 384.69,-18.75 386.82,-25.42"/>
</a>
</g>
</g>
</g>
</svg>
