<?xml version="1.0" encoding="UTF-8" standalone="no"?>
<!DOCTYPE svg PUBLIC "-//W3C//DTD SVG 1.1//EN"
 "http://www.w3.org/Graphics/SVG/1.1/DTD/svg11.dtd">
<!-- Generated by graphviz version 2.43.0 (0)
 -->
<!-- Title: SimulateurFerroviaire/Modules/PCC/PCCNode.h Pages: 1 -->
<svg width="457pt" height="291pt"
 viewBox="0.00 0.00 457.40 291.00" xmlns="http://www.w3.org/2000/svg" xmlns:xlink="http://www.w3.org/1999/xlink">
<g id="graph0" class="graph" transform="scale(1 1) rotate(0) translate(4 287)">
<title>SimulateurFerroviaire/Modules/PCC/PCCNode.h</title>
<!-- Node1 -->
<g id="Node000001" class="node">
<title>Node1</title>
<g id="a_Node000001"><a xlink:title="Nœud abstrait du graphe PCC représentant un bloc ferroviaire.">
<polygon fill="#999999" stroke="#666666" points="152.4,-283 12.4,-283 12.4,-253 152.4,-253 152.4,-283"/>
<text text-anchor="start" x="20.4" y="-271" font-family="Helvetica,sans-Serif" font-size="10.00">SimulateurFerroviaire</text>
<text text-anchor="middle" x="82.4" y="-260" font-family="Helvetica,sans-Serif" font-size="10.00">/Modules/PCC/PCCNode.h</text>
</a>
</g>
</g>
<!-- Node2 -->
<g id="Node000002" class="node">
<title>Node2</title>
<g id="a_Node000002"><a xlink:title=" ">
<polygon fill="#e0e0e0" stroke="#999999" points="87.4,-19 43.4,-19 43.4,0 87.4,0 87.4,-19"/>
<text text-anchor="middle" x="65.4" y="-7" font-family="Helvetica,sans-Serif" font-size="10.00">string</text>
</a>
</g>
</g>
<!-- Node1&#45;&gt;Node2 -->
<g id="edge1_Node000001_Node000002" class="edge">
<title>Node1&#45;&gt;Node2</title>
<g id="a_edge1_Node000001_Node000002"><a xlink:title=" ">
<path fill="none" stroke="#63b8ff" d="M49.89,-252.84C35.32,-244.65 19.6,-232.79 11.4,-217 -22.28,-152.08 28.07,-64.53 52.9,-27.82"/>
<polygon fill="#63b8ff" stroke="#63b8ff" points="56.03,-29.46 58.87,-19.25 50.28,-25.46 56.03,-29.46"/>
</a>
</g>
</g>
<!-- Node3 -->
<g id="Node000003" class="node">
<title>Node3</title>
<g id="a_Node000003"><a xlink:title=" ">
<polygon fill="#e0e0e0" stroke="#999999" points="67.9,-211.5 20.9,-211.5 20.9,-192.5 67.9,-192.5 67.9,-211.5"/>
<text text-anchor="middle" x="44.4" y="-199.5" font-family="Helvetica,sans-Serif" font-size="10.00">vector</text>
</a>
</g>
</g>
<!-- Node1&#45;&gt;Node3 -->
<g id="edge2_Node000001_Node000003" class="edge">
<title>Node1&#45;&gt;Node3</title>
<g id="a_edge2_Node000001_Node000003"><a xlink:title=" ">
<path fill="none" stroke="#63b8ff" d="M73.97,-252.8C68.34,-243.31 60.89,-230.76 54.87,-220.63"/>
<polygon fill="#63b8ff" stroke="#63b8ff" points="57.77,-218.66 49.66,-211.84 51.75,-222.23 57.77,-218.66"/>
</a>
</g>
</g>
<!-- Node4 -->
<g id="Node000004" class="node">
<title>Node4</title>
<g id="a_Node000004"><a xlink:href="PCCEdge_8h.html" target="_top" xlink:title="Connexion orientée entre deux nœuds du graphe PCC.">
<polygon fill="white" stroke="#666666" points="154.9,-211.5 85.9,-211.5 85.9,-192.5 154.9,-192.5 154.9,-211.5"/>
<text text-anchor="middle" x="120.4" y="-199.5" font-family="Helvetica,sans-Serif" font-size="10.00">PCCEdge.h</text>
</a>
</g>
</g>
<!-- Node1&#45;&gt;Node4 -->
<g id="edge3_Node000001_Node000004" class="edge">
<title>Node1&#45;&gt;Node4</title>
<g id="a_edge3_Node000001_Node000004"><a xlink:title=" ">
<path fill="none" stroke="#63b8ff" d="M90.84,-252.8C96.47,-243.31 103.92,-230.76 109.93,-220.63"/>
<polygon fill="#63b8ff" stroke="#63b8ff" points="113.06,-222.23 115.15,-211.84 107.04,-218.66 113.06,-222.23"/>
</a>
</g>
</g>
<!-- Node5 -->
<g id="Node000005" class="node">
<title>Node5</title>
<g id="a_Node000005"><a xlink:href="ShuntingElement_8h.html" target="_top" xlink:title="Interface abstraite pour tous les éléments de shuntage ferroviaire.">
<polygon fill="white" stroke="#666666" points="375.9,-217 172.9,-217 172.9,-187 375.9,-187 375.9,-217"/>
<text text-anchor="start" x="180.9" y="-205" font-family="Helvetica,sans-Serif" font-size="10.00">Modules/InteractiveElements</text>
<text text-anchor="middle" x="274.4" y="-194" font-family="Helvetica,sans-Serif" font-size="10.00">/ShuntingElements/ShuntingElement.h</text>
</a>
</g>
</g>
<!-- Node1&#45;&gt;Node5 -->
<g id="edge4_Node000001_Node000005" class="edge">
<title>Node1&#45;&gt;Node5</title>
<g id="a_edge4_Node000001_Node000005"><a xlink:title=" ">
<path fill="none" stroke="#63b8ff" d="M124.54,-252.95C153.43,-243.33 191.93,-230.49 222.68,-220.24"/>
<polygon fill="#63b8ff" stroke="#63b8ff" points="223.99,-223.5 232.37,-217.01 221.77,-216.85 223.99,-223.5"/>
</a>
</g>
</g>
<!-- Node6 -->
<g id="Node000006" class="node">
<title>Node6</title>
<g id="a_Node000006"><a xlink:href="InteractiveElement_8h.html" target="_top" xlink:title="Classe de base abstraite pour tous les éléments interactifs ferroviaires.">
<polygon fill="white" stroke="#666666" points="316.9,-151 157.9,-151 157.9,-121 316.9,-121 316.9,-151"/>
<text text-anchor="start" x="165.9" y="-139" font-family="Helvetica,sans-Serif" font-size="10.00">Modules/InteractiveElements</text>
<text text-anchor="middle" x="237.4" y="-128" font-family="Helvetica,sans-Serif" font-size="10.00">/InteractiveElement.h</text>
</a>
</g>
</g>
<!-- Node5&#45;&gt;Node6 -->
<g id="edge5_Node000005_Node000006" class="edge">
<title>Node5&#45;&gt;Node6</title>
<g id="a_edge5_Node000005_Node000006"><a xlink:title=" ">
<path fill="none" stroke="#63b8ff" d="M266.19,-186.8C261.64,-178.92 255.87,-168.95 250.7,-159.99"/>
<polygon fill="#63b8ff" stroke="#63b8ff" points="253.63,-158.07 245.59,-151.16 247.57,-161.57 253.63,-158.07"/>
</a>
</g>
</g>
<!-- Node6&#45;&gt;Node2 -->
<g id="edge6_Node000006_Node000002" class="edge">
<title>Node6&#45;&gt;Node2</title>
<g id="a_edge6_Node000006_Node000002"><a xlink:title=" ">
<path fill="none" stroke="#63b8ff" d="M218.01,-120.96C185.24,-97.24 119.24,-49.47 85.81,-25.27"/>
<polygon fill="#63b8ff" stroke="#63b8ff" points="87.45,-22.14 77.3,-19.11 83.35,-27.81 87.45,-22.14"/>
</a>
</g>
</g>
<!-- Node7 -->
<g id="Node000007" class="node">
<title>Node7</title>
<g id="a_Node000007"><a xlink:href="Logger_8h.html" target="_top" xlink:title="Système de journalisation à 5 niveaux de trace, un fichier par moteur.">
<polygon fill="white" stroke="#666666" points="292.9,-85 181.9,-85 181.9,-55 292.9,-55 292.9,-85"/>
<text text-anchor="start" x="189.9" y="-73" font-family="Helvetica,sans-Serif" font-size="10.00">Engine/Core/Logger</text>
<text text-anchor="middle" x="237.4" y="-62" font-family="Helvetica,sans-Serif" font-size="10.00">/Logger.h</text>
</a>
</g>
</g>
<!-- Node6&#45;&gt;Node7 -->
<g id="edge7_Node000006_Node000007" class="edge">
<title>Node6&#45;&gt;Node7</title>
<g id="a_edge7_Node000006_Node000007"><a xlink:title=" ">
<path fill="none" stroke="#63b8ff" d="M237.4,-120.8C237.4,-113.34 237.4,-103.99 237.4,-95.41"/>
<polygon fill="#63b8ff" stroke="#63b8ff" points="240.9,-95.16 237.4,-85.16 233.9,-95.16 240.9,-95.16"/>
</a>
</g>
</g>
<!-- Node7&#45;&gt;Node2 -->
<g id="edge13_Node000007_Node000002" class="edge">
<title>Node7&#45;&gt;Node2</title>
<g id="a_edge13_Node000007_Node000002"><a xlink:title=" ">
<path fill="none" stroke="#63b8ff" d="M196.21,-54.99C165.93,-44.69 125.39,-30.9 97.5,-21.42"/>
<polygon fill="#63b8ff" stroke="#63b8ff" points="98.44,-18.04 87.85,-18.13 96.19,-24.67 98.44,-18.04"/>
</a>
</g>
</g>
<!-- Node8 -->
<g id="Node000008" class="node">
<title>Node8</title>
<g id="a_Node000008"><a xlink:title=" ">
<polygon fill="#e0e0e0" stroke="#999999" points="149.4,-19 105.4,-19 105.4,0 149.4,0 149.4,-19"/>
<text text-anchor="middle" x="127.4" y="-7" font-family="Helvetica,sans-Serif" font-size="10.00">ctime</text>
</a>
</g>
</g>
<!-- Node7&#45;&gt;Node8 -->
<g id="edge8_Node000007_Node000008" class="edge">
<title>Node7&#45;&gt;Node8</title>
<g id="a_edge8_Node000007_Node000008"><a xlink:title=" ">
<path fill="none" stroke="#63b8ff" d="M211.06,-54.99C193.36,-45.58 170.17,-33.24 152.7,-23.95"/>
<polygon fill="#63b8ff" stroke="#63b8ff" points="154.12,-20.74 143.65,-19.14 150.83,-26.92 154.12,-20.74"/>
</a>
</g>
</g>
<!-- Node9 -->
<g id="Node000009" class="node">
<title>Node9</title>
<g id="a_Node000009"><a xlink:title=" ">
<polygon fill="#e0e0e0" stroke="#999999" points="235.4,-19 167.4,-19 167.4,0 235.4,0 235.4,-19"/>
<text text-anchor="middle" x="201.4" y="-7" font-family="Helvetica,sans-Serif" font-size="10.00">filesystem</text>
</a>
</g>
</g>
<!-- Node7&#45;&gt;Node9 -->
<g id="edge9_Node000007_Node000009" class="edge">
<title>Node7&#45;&gt;Node9</title>
<g id="a_edge9_Node000007_Node000009"><a xlink:title=" ">
<path fill="none" stroke="#63b8ff" d="M228.69,-54.84C223.73,-46.78 217.48,-36.62 212.21,-28.06"/>
<polygon fill="#63b8ff" stroke="#63b8ff" points="215.02,-25.95 206.8,-19.27 209.06,-29.62 215.02,-25.95"/>
</a>
</g>
</g>
<!-- Node10 -->
<g id="Node000010" class="node">
<title>Node10</title>
<g id="a_Node000010"><a xlink:title=" ">
<polygon fill="#e0e0e0" stroke="#999999" points="308.9,-19 253.9,-19 253.9,0 308.9,0 308.9,-19"/>
<text text-anchor="middle" x="281.4" y="-7" font-family="Helvetica,sans-Serif" font-size="10.00">fstream</text>
</a>
</g>
</g>
<!-- Node7&#45;&gt;Node10 -->
<g id="edge10_Node000007_Node000010" class="edge">
<title>Node7&#45;&gt;Node10</title>
<g id="a_edge10_Node000007_Node000010"><a xlink:title=" ">
<path fill="none" stroke="#63b8ff" d="M248.05,-54.84C254.25,-46.61 262.09,-36.18 268.61,-27.51"/>
<polygon fill="#63b8ff" stroke="#63b8ff" points="271.6,-29.36 274.81,-19.27 266,-25.15 271.6,-29.36"/>
</a>
</g>
</g>
<!-- Node11 -->
<g id="Node000011" class="node">
<title>Node11</title>
<g id="a_Node000011"><a xlink:title=" ">
<polygon fill="#e0e0e0" stroke="#999999" points="375.4,-19 327.4,-19 327.4,0 375.4,0 375.4,-19"/>
<text text-anchor="middle" x="351.4" y="-7" font-family="Helvetica,sans-Serif" font-size="10.00">mutex</text>
</a>
</g>
</g>
<!-- Node7&#45;&gt;Node11 -->
<g id="edge11_Node000007_Node000011" class="edge">
<title>Node7&#45;&gt;Node11</title>
<g id="a_edge11_Node000007_Node000011"><a xlink:title=" ">
<path fill="none" stroke="#63b8ff" d="M264.71,-54.99C283.05,-45.58 307.08,-33.24 325.19,-23.95"/>
<polygon fill="#63b8ff" stroke="#63b8ff" points="327.27,-26.82 334.57,-19.14 324.07,-20.59 327.27,-26.82"/>
</a>
</g>
</g>
<!-- Node12 -->
<g id="Node000012" class="node">
<title>Node12</title>
<g id="a_Node000012"><a xlink:title=" ">
<polygon fill="#e0e0e0" stroke="#999999" points="449.4,-19 393.4,-19 393.4,0 449.4,0 449.4,-19"/>
<text text-anchor="middle" x="421.4" y="-7" font-family="Helvetica,sans-Serif" font-size="10.00">sstream</text>
</a>
</g>
</g>
<!-- Node7&#45;&gt;Node12 -->
<g id="edge12_Node000007_Node000012" class="edge">
<title>Node7&#45;&gt;Node12</title>
<g id="a_edge12_Node000007_Node000012"><a xlink:title=" ">
<path fill="none" stroke="#63b8ff" d="M281.48,-54.99C313.09,-44.94 355.19,-31.55 384.92,-22.1"/>
<polygon fill="#63b8ff" stroke="#63b8ff" points="386.03,-25.42 394.5,-19.05 383.91,-18.75 386.03,-25.42"/>
</a>
</g>
</g>
</g>
</svg>
