<?xml version="1.0" encoding="UTF-8" standalone="no"?>
<!DOCTYPE svg PUBLIC "-//W3C//DTD SVG 1.1//EN"
 "http://www.w3.org/Graphics/SVG/1.1/DTD/svg11.dtd">
<!-- Generated by graphviz version 2.43.0 (0)
 -->
<!-- Title: SimulateurFerroviaire/Engine/HMI/PCCPanel/PCCPanel.cpp Pages: 1 -->
<svg width="1340pt" height="544pt"
 viewBox="0.00 0.00 1340.00 544.00" xmlns="http://www.w3.org/2000/svg" xmlns:xlink="http://www.w3.org/1999/xlink">
<g id="graph0" class="graph" transform="scale(1 1) rotate(0) translate(4 540)">
<title>SimulateurFerroviaire/Engine/HMI/PCCPanel/PCCPanel.cpp</title>
<!-- Node1 -->
<g id="Node000001" class="node">
<title>Node1</title>
<g id="a_Node000001"><a xlink:title="Implémentation du panneau PCC superposé togglable.">
<polygon fill="#999999" stroke="#666666" points="557,-536 433,-536 433,-495 557,-495 557,-536"/>
<text text-anchor="start" x="441" y="-524" font-family="Helvetica,sans-Serif" font-size="10.00">SimulateurFerroviaire</text>
<text text-anchor="start" x="441" y="-513" font-family="Helvetica,sans-Serif" font-size="10.00">/Engine/HMI/PCCPanel</text>
<text text-anchor="middle" x="495" y="-502" font-family="Helvetica,sans-Serif" font-size="10.00">/PCCPanel.cpp</text>
</a>
</g>
</g>
<!-- Node2 -->
<g id="Node000002" class="node">
<title>Node2</title>
<g id="a_Node000002"><a xlink:href="framework_8h.html" target="_top" xlink:title=" ">
<polygon fill="white" stroke="#666666" points="466.5,-398.5 387.5,-398.5 387.5,-379.5 466.5,-379.5 466.5,-398.5"/>
<text text-anchor="middle" x="427" y="-386.5" font-family="Helvetica,sans-Serif" font-size="10.00">framework.h</text>
</a>
</g>
</g>
<!-- Node1&#45;&gt;Node2 -->
<g id="edge1_Node000001_Node000002" class="edge">
<title>Node1&#45;&gt;Node2</title>
<g id="a_edge1_Node000001_Node000002"><a xlink:title=" ">
<path fill="none" stroke="#63b8ff" d="M484.23,-494.77C471.11,-470.76 449.17,-430.58 436.61,-407.59"/>
<polygon fill="#63b8ff" stroke="#63b8ff" points="439.57,-405.71 431.7,-398.61 433.43,-409.07 439.57,-405.71"/>
</a>
</g>
</g>
<!-- Node13 -->
<g id="Node000013" class="node">
<title>Node13</title>
<g id="a_Node000013"><a xlink:href="PCCPanel_8h.html" target="_top" xlink:title="Panneau PCC superposé togglable, affiché par&#45;dessus la carte Leaflet.">
<polygon fill="white" stroke="#666666" points="430.5,-459 359.5,-459 359.5,-440 430.5,-440 430.5,-459"/>
<text text-anchor="middle" x="395" y="-447" font-family="Helvetica,sans-Serif" font-size="10.00">PCCPanel.h</text>
</a>
</g>
</g>
<!-- Node1&#45;&gt;Node13 -->
<g id="edge12_Node000001_Node000013" class="edge">
<title>Node1&#45;&gt;Node13</title>
<g id="a_edge12_Node000001_Node000013"><a xlink:title=" ">
<path fill="none" stroke="#63b8ff" d="M464.45,-494.95C449.09,-485.12 430.83,-473.43 416.89,-464.51"/>
<polygon fill="#63b8ff" stroke="#63b8ff" points="418.73,-461.53 408.42,-459.09 414.96,-467.43 418.73,-461.53"/>
</a>
</g>
</g>
<!-- Node20 -->
<g id="Node000020" class="node">
<title>Node20</title>
<g id="a_Node000020"><a xlink:href="TCORenderer_8h.html" target="_top" xlink:title="Renderer GDI du schéma TCO (Tableau de Contrôle Optique) ferroviaire.">
<polygon fill="white" stroke="#666666" points="576.5,-459 487.5,-459 487.5,-440 576.5,-440 576.5,-459"/>
<text text-anchor="middle" x="532" y="-447" font-family="Helvetica,sans-Serif" font-size="10.00">TCORenderer.h</text>
</a>
</g>
</g>
<!-- Node1&#45;&gt;Node20 -->
<g id="edge21_Node000001_Node000020" class="edge">
<title>Node1&#45;&gt;Node20</title>
<g id="a_edge21_Node000001_Node000020"><a xlink:title=" ">
<path fill="none" stroke="#63b8ff" d="M506.3,-494.95C511.25,-486.39 517.01,-476.42 521.83,-468.1"/>
<polygon fill="#63b8ff" stroke="#63b8ff" points="524.96,-469.67 526.94,-459.26 518.9,-466.17 524.96,-469.67"/>
</a>
</g>
</g>
<!-- Node32 -->
<g id="Node000032" class="node">
<title>Node32</title>
<g id="a_Node000032"><a xlink:title=" ">
<polygon fill="#e0e0e0" stroke="#999999" points="659.5,-459 594.5,-459 594.5,-440 659.5,-440 659.5,-459"/>
<text text-anchor="middle" x="627" y="-447" font-family="Helvetica,sans-Serif" font-size="10.00">stdexcept</text>
</a>
</g>
</g>
<!-- Node1&#45;&gt;Node32 -->
<g id="edge44_Node000001_Node000032" class="edge">
<title>Node1&#45;&gt;Node32</title>
<g id="a_edge44_Node000001_Node000032"><a xlink:title=" ">
<path fill="none" stroke="#63b8ff" d="M535.32,-494.95C556.37,-484.75 581.54,-472.54 600.18,-463.5"/>
<polygon fill="#63b8ff" stroke="#63b8ff" points="601.81,-466.6 609.28,-459.09 598.75,-460.31 601.81,-466.6"/>
</a>
</g>
</g>
<!-- Node3 -->
<g id="Node000003" class="node">
<title>Node3</title>
<g id="a_Node000003"><a xlink:href="targetver_8h.html" target="_top" xlink:title=" ">
<polygon fill="white" stroke="#666666" points="418,-338 348,-338 348,-319 418,-319 418,-338"/>
<text text-anchor="middle" x="383" y="-326" font-family="Helvetica,sans-Serif" font-size="10.00">targetver.h</text>
</a>
</g>
</g>
<!-- Node2&#45;&gt;Node3 -->
<g id="edge2_Node000002_Node000003" class="edge">
<title>Node2&#45;&gt;Node3</title>
<g id="a_edge2_Node000002_Node000003"><a xlink:title=" ">
<path fill="none" stroke="#63b8ff" d="M420.51,-379.37C414.01,-370.73 403.84,-357.2 395.72,-346.42"/>
<polygon fill="#63b8ff" stroke="#63b8ff" points="398.33,-344.06 389.52,-338.17 392.73,-348.26 398.33,-344.06"/>
</a>
</g>
</g>
<!-- Node5 -->
<g id="Node000005" class="node">
<title>Node5</title>
<g id="a_Node000005"><a xlink:title=" ">
<polygon fill="#e0e0e0" stroke="#999999" points="504,-338 436,-338 436,-319 504,-319 504,-338"/>
<text text-anchor="middle" x="470" y="-326" font-family="Helvetica,sans-Serif" font-size="10.00">windows.h</text>
</a>
</g>
</g>
<!-- Node2&#45;&gt;Node5 -->
<g id="edge4_Node000002_Node000005" class="edge">
<title>Node2&#45;&gt;Node5</title>
<g id="a_edge4_Node000002_Node000005"><a xlink:title=" ">
<path fill="none" stroke="#63b8ff" d="M433.34,-379.37C439.7,-370.73 449.64,-357.2 457.57,-346.42"/>
<polygon fill="#63b8ff" stroke="#63b8ff" points="460.53,-348.3 463.63,-338.17 454.89,-344.15 460.53,-348.3"/>
</a>
</g>
</g>
<!-- Node6 -->
<g id="Node000006" class="node">
<title>Node6</title>
<g id="a_Node000006"><a xlink:title=" ">
<polygon fill="#e0e0e0" stroke="#999999" points="575.5,-338 522.5,-338 522.5,-319 575.5,-319 575.5,-338"/>
<text text-anchor="middle" x="549" y="-326" font-family="Helvetica,sans-Serif" font-size="10.00">stdlib.h</text>
</a>
</g>
</g>
<!-- Node2&#45;&gt;Node6 -->
<g id="edge5_Node000002_Node000006" class="edge">
<title>Node2&#45;&gt;Node6</title>
<g id="a_edge5_Node000002_Node000006"><a xlink:title=" ">
<path fill="none" stroke="#63b8ff" d="M444.74,-379.49C465.07,-369.75 498.61,-353.66 522.14,-342.38"/>
<polygon fill="#63b8ff" stroke="#63b8ff" points="523.74,-345.5 531.24,-338.02 520.71,-339.18 523.74,-345.5"/>
</a>
</g>
</g>
<!-- Node7 -->
<g id="Node000007" class="node">
<title>Node7</title>
<g id="a_Node000007"><a xlink:title=" ">
<polygon fill="#e0e0e0" stroke="#999999" points="652.5,-338 593.5,-338 593.5,-319 652.5,-319 652.5,-338"/>
<text text-anchor="middle" x="623" y="-326" font-family="Helvetica,sans-Serif" font-size="10.00">malloc.h</text>
</a>
</g>
</g>
<!-- Node2&#45;&gt;Node7 -->
<g id="edge6_Node000002_Node000007" class="edge">
<title>Node2&#45;&gt;Node7</title>
<g id="a_edge6_Node000002_Node000007"><a xlink:title=" ">
<path fill="none" stroke="#63b8ff" d="M455.5,-379.49C489.61,-369.31 546.87,-352.22 584.79,-340.9"/>
<polygon fill="#63b8ff" stroke="#63b8ff" points="585.88,-344.23 594.47,-338.02 583.88,-337.52 585.88,-344.23"/>
</a>
</g>
</g>
<!-- Node8 -->
<g id="Node000008" class="node">
<title>Node8</title>
<g id="a_Node000008"><a xlink:title=" ">
<polygon fill="#e0e0e0" stroke="#999999" points="93.5,-338 28.5,-338 28.5,-319 93.5,-319 93.5,-338"/>
<text text-anchor="middle" x="61" y="-326" font-family="Helvetica,sans-Serif" font-size="10.00">memory.h</text>
</a>
</g>
</g>
<!-- Node2&#45;&gt;Node8 -->
<g id="edge7_Node000002_Node000008" class="edge">
<title>Node2&#45;&gt;Node8</title>
<g id="a_edge7_Node000002_Node000008"><a xlink:title=" ">
<path fill="none" stroke="#63b8ff" d="M387.25,-382.47C327.9,-374.09 212.39,-357.26 103.69,-338.05"/>
<polygon fill="#63b8ff" stroke="#63b8ff" points="103.99,-334.54 93.53,-336.24 102.76,-341.44 103.99,-334.54"/>
</a>
</g>
</g>
<!-- Node9 -->
<g id="Node000009" class="node">
<title>Node9</title>
<g id="a_Node000009"><a xlink:title=" ">
<polygon fill="#e0e0e0" stroke="#999999" points="162,-338 112,-338 112,-319 162,-319 162,-338"/>
<text text-anchor="middle" x="137" y="-326" font-family="Helvetica,sans-Serif" font-size="10.00">tchar.h</text>
</a>
</g>
</g>
<!-- Node2&#45;&gt;Node9 -->
<g id="edge8_Node000002_Node000009" class="edge">
<title>Node2&#45;&gt;Node9</title>
<g id="a_edge8_Node000002_Node000009"><a xlink:title=" ">
<path fill="none" stroke="#63b8ff" d="M387.4,-380.93C338.95,-372.13 254.2,-356.27 172.2,-338.18"/>
<polygon fill="#63b8ff" stroke="#63b8ff" points="172.74,-334.71 162.22,-335.96 171.22,-341.54 172.74,-334.71"/>
</a>
</g>
</g>
<!-- Node10 -->
<g id="Node000010" class="node">
<title>Node10</title>
<g id="a_Node000010"><a xlink:title=" ">
<polygon fill="#e0e0e0" stroke="#999999" points="252,-338 180,-338 180,-319 252,-319 252,-338"/>
<text text-anchor="middle" x="216" y="-326" font-family="Helvetica,sans-Serif" font-size="10.00">commctrl.h</text>
</a>
</g>
</g>
<!-- Node2&#45;&gt;Node10 -->
<g id="edge9_Node000002_Node000010" class="edge">
<title>Node2&#45;&gt;Node10</title>
<g id="a_edge9_Node000002_Node000010"><a xlink:title=" ">
<path fill="none" stroke="#63b8ff" d="M396.32,-379.49C359.44,-369.27 297.43,-352.08 256.61,-340.76"/>
<polygon fill="#63b8ff" stroke="#63b8ff" points="257.29,-337.32 246.72,-338.02 255.42,-344.06 257.29,-337.32"/>
</a>
</g>
</g>
<!-- Node11 -->
<g id="Node000011" class="node">
<title>Node11</title>
<g id="a_Node000011"><a xlink:title=" ">
<polygon fill="#e0e0e0" stroke="#999999" points="853,-19 809,-19 809,0 853,0 853,-19"/>
<text text-anchor="middle" x="831" y="-7" font-family="Helvetica,sans-Serif" font-size="10.00">string</text>
</a>
</g>
</g>
<!-- Node2&#45;&gt;Node11 -->
<g id="edge10_Node000002_Node000011" class="edge">
<title>Node2&#45;&gt;Node11</title>
<g id="a_edge10_Node000002_Node000011"><a xlink:title=" ">
<path fill="none" stroke="#63b8ff" d="M466.65,-384.51C526.08,-378.48 634.23,-364.18 662,-338 685.15,-316.18 681,-300.81 681,-269 681,-269 681,-269 681,-201 681,-119.62 766.54,-52.52 808.42,-24.53"/>
<polygon fill="#63b8ff" stroke="#63b8ff" points="810.42,-27.41 816.89,-19.02 806.6,-21.55 810.42,-27.41"/>
</a>
</g>
</g>
<!-- Node12 -->
<g id="Node000012" class="node">
<title>Node12</title>
<g id="a_Node000012"><a xlink:title=" ">
<polygon fill="#e0e0e0" stroke="#999999" points="330,-338 270,-338 270,-319 330,-319 330,-338"/>
<text text-anchor="middle" x="300" y="-326" font-family="Helvetica,sans-Serif" font-size="10.00">iostream</text>
</a>
</g>
</g>
<!-- Node2&#45;&gt;Node12 -->
<g id="edge11_Node000002_Node000012" class="edge">
<title>Node2&#45;&gt;Node12</title>
<g id="a_edge11_Node000002_Node000012"><a xlink:title=" ">
<path fill="none" stroke="#63b8ff" d="M408.53,-379.49C387.28,-369.7 352.15,-353.52 327.63,-342.23"/>
<polygon fill="#63b8ff" stroke="#63b8ff" points="329.04,-339.02 318.49,-338.02 326.11,-345.38 329.04,-339.02"/>
</a>
</g>
</g>
<!-- Node4 -->
<g id="Node000004" class="node">
<title>Node4</title>
<g id="a_Node000004"><a xlink:title=" ">
<polygon fill="#e0e0e0" stroke="#999999" points="424.5,-277.5 341.5,-277.5 341.5,-258.5 424.5,-258.5 424.5,-277.5"/>
<text text-anchor="middle" x="383" y="-265.5" font-family="Helvetica,sans-Serif" font-size="10.00">SDKDDKVer.h</text>
</a>
</g>
</g>
<!-- Node3&#45;&gt;Node4 -->
<g id="edge3_Node000003_Node000004" class="edge">
<title>Node3&#45;&gt;Node4</title>
<g id="a_edge3_Node000003_Node000004"><a xlink:title=" ">
<path fill="none" stroke="#63b8ff" d="M383,-318.87C383,-310.75 383,-298.31 383,-287.89"/>
<polygon fill="#63b8ff" stroke="#63b8ff" points="386.5,-287.67 383,-277.67 379.5,-287.67 386.5,-287.67"/>
</a>
</g>
</g>
<!-- Node13&#45;&gt;Node2 -->
<g id="edge13_Node000013_Node000002" class="edge">
<title>Node13&#45;&gt;Node2</title>
<g id="a_edge13_Node000013_Node000002"><a xlink:title=" ">
<path fill="none" stroke="#63b8ff" d="M399.72,-439.87C404.35,-431.4 411.55,-418.24 417.39,-407.57"/>
<polygon fill="#63b8ff" stroke="#63b8ff" points="420.53,-409.12 422.26,-398.67 414.39,-405.76 420.53,-409.12"/>
</a>
</g>
</g>
<!-- Node14 -->
<g id="Node000014" class="node">
<title>Node14</title>
<g id="a_Node000014"><a xlink:href="Logger_8h.html" target="_top" xlink:title="Système de journalisation à 5 niveaux de trace, un fichier par moteur.">
<polygon fill="white" stroke="#666666" points="690.5,-85 579.5,-85 579.5,-55 690.5,-55 690.5,-85"/>
<text text-anchor="start" x="587.5" y="-73" font-family="Helvetica,sans-Serif" font-size="10.00">Engine/Core/Logger</text>
<text text-anchor="middle" x="635" y="-62" font-family="Helvetica,sans-Serif" font-size="10.00">/Logger.h</text>
</a>
</g>
</g>
<!-- Node13&#45;&gt;Node14 -->
<g id="edge14_Node000013_Node000014" class="edge">
<title>Node13&#45;&gt;Node14</title>
<g id="a_edge14_Node000013_Node000014"><a xlink:title=" ">
<path fill="none" stroke="#63b8ff" d="M359.25,-445.44C262.02,-436.14 0,-404.16 0,-329.5 0,-329.5 0,-329.5 0,-201 0,-85.73 406.7,-71.7 569.14,-70.69"/>
<polygon fill="#63b8ff" stroke="#63b8ff" points="569.5,-74.19 579.48,-70.64 569.47,-67.19 569.5,-74.19"/>
</a>
</g>
</g>
<!-- Node14&#45;&gt;Node11 -->
<g id="edge20_Node000014_Node000011" class="edge">
<title>Node14&#45;&gt;Node11</title>
<g id="a_edge20_Node000014_Node000011"><a xlink:title=" ">
<path fill="none" stroke="#63b8ff" d="M681.95,-54.99C718.23,-44.16 767.45,-29.47 799.23,-19.98"/>
<polygon fill="#63b8ff" stroke="#63b8ff" points="800.31,-23.31 808.89,-17.1 798.31,-16.61 800.31,-23.31"/>
</a>
</g>
</g>
<!-- Node15 -->
<g id="Node000015" class="node">
<title>Node15</title>
<g id="a_Node000015"><a xlink:title=" ">
<polygon fill="#e0e0e0" stroke="#999999" points="535,-19 491,-19 491,0 535,0 535,-19"/>
<text text-anchor="middle" x="513" y="-7" font-family="Helvetica,sans-Serif" font-size="10.00">ctime</text>
</a>
</g>
</g>
<!-- Node14&#45;&gt;Node15 -->
<g id="edge15_Node000014_Node000015" class="edge">
<title>Node14&#45;&gt;Node15</title>
<g id="a_edge15_Node000014_Node000015"><a xlink:title=" ">
<path fill="none" stroke="#63b8ff" d="M605.78,-54.99C585.88,-45.45 559.72,-32.9 540.25,-23.57"/>
<polygon fill="#63b8ff" stroke="#63b8ff" points="541.55,-20.31 531.02,-19.14 538.52,-26.62 541.55,-20.31"/>
</a>
</g>
</g>
<!-- Node16 -->
<g id="Node000016" class="node">
<title>Node16</title>
<g id="a_Node000016"><a xlink:title=" ">
<polygon fill="#e0e0e0" stroke="#999999" points="621,-19 553,-19 553,0 621,0 621,-19"/>
<text text-anchor="middle" x="587" y="-7" font-family="Helvetica,sans-Serif" font-size="10.00">filesystem</text>
</a>
</g>
</g>
<!-- Node14&#45;&gt;Node16 -->
<g id="edge16_Node000014_Node000016" class="edge">
<title>Node14&#45;&gt;Node16</title>
<g id="a_edge16_Node000014_Node000016"><a xlink:title=" ">
<path fill="none" stroke="#63b8ff" d="M623.38,-54.84C616.56,-46.52 607.89,-35.96 600.73,-27.23"/>
<polygon fill="#63b8ff" stroke="#63b8ff" points="603.24,-24.78 594.19,-19.27 597.83,-29.22 603.24,-24.78"/>
</a>
</g>
</g>
<!-- Node17 -->
<g id="Node000017" class="node">
<title>Node17</title>
<g id="a_Node000017"><a xlink:title=" ">
<polygon fill="#e0e0e0" stroke="#999999" points="694.5,-19 639.5,-19 639.5,0 694.5,0 694.5,-19"/>
<text text-anchor="middle" x="667" y="-7" font-family="Helvetica,sans-Serif" font-size="10.00">fstream</text>
</a>
</g>
</g>
<!-- Node14&#45;&gt;Node17 -->
<g id="edge17_Node000014_Node000017" class="edge">
<title>Node14&#45;&gt;Node17</title>
<g id="a_edge17_Node000014_Node000017"><a xlink:title=" ">
<path fill="none" stroke="#63b8ff" d="M642.75,-54.84C647.15,-46.78 652.71,-36.62 657.4,-28.06"/>
<polygon fill="#63b8ff" stroke="#63b8ff" points="660.48,-29.72 662.2,-19.27 654.34,-26.36 660.48,-29.72"/>
</a>
</g>
</g>
<!-- Node18 -->
<g id="Node000018" class="node">
<title>Node18</title>
<g id="a_Node000018"><a xlink:title=" ">
<polygon fill="#e0e0e0" stroke="#999999" points="473,-19 425,-19 425,0 473,0 473,-19"/>
<text text-anchor="middle" x="449" y="-7" font-family="Helvetica,sans-Serif" font-size="10.00">mutex</text>
</a>
</g>
</g>
<!-- Node14&#45;&gt;Node18 -->
<g id="edge18_Node000014_Node000018" class="edge">
<title>Node14&#45;&gt;Node18</title>
<g id="a_edge18_Node000014_Node000018"><a xlink:title=" ">
<path fill="none" stroke="#63b8ff" d="M590.45,-54.99C557.33,-44.57 512.84,-30.58 482.66,-21.09"/>
<polygon fill="#63b8ff" stroke="#63b8ff" points="483.6,-17.71 473.01,-18.05 481.5,-24.39 483.6,-17.71"/>
</a>
</g>
</g>
<!-- Node19 -->
<g id="Node000019" class="node">
<title>Node19</title>
<g id="a_Node000019"><a xlink:title=" ">
<polygon fill="#e0e0e0" stroke="#999999" points="769,-19 713,-19 713,0 769,0 769,-19"/>
<text text-anchor="middle" x="741" y="-7" font-family="Helvetica,sans-Serif" font-size="10.00">sstream</text>
</a>
</g>
</g>
<!-- Node14&#45;&gt;Node19 -->
<g id="edge19_Node000014_Node000019" class="edge">
<title>Node14&#45;&gt;Node19</title>
<g id="a_edge19_Node000014_Node000019"><a xlink:title=" ">
<path fill="none" stroke="#63b8ff" d="M660.39,-54.99C677.29,-45.66 699.38,-33.47 716.16,-24.21"/>
<polygon fill="#63b8ff" stroke="#63b8ff" points="718.28,-27.04 725.35,-19.14 714.9,-20.91 718.28,-27.04"/>
</a>
</g>
</g>
<!-- Node20&#45;&gt;Node2 -->
<g id="edge22_Node000020_Node000002" class="edge">
<title>Node20&#45;&gt;Node2</title>
<g id="a_edge22_Node000020_Node000002"><a xlink:title=" ">
<path fill="none" stroke="#63b8ff" d="M516.51,-439.87C499.37,-430.32 471.53,-414.81 451.44,-403.62"/>
<polygon fill="#63b8ff" stroke="#63b8ff" points="453,-400.48 442.56,-398.67 449.59,-406.59 453,-400.48"/>
</a>
</g>
</g>
<!-- Node20&#45;&gt;Node14 -->
<g id="edge23_Node000020_Node000014" class="edge">
<title>Node20&#45;&gt;Node14</title>
<g id="a_edge23_Node000020_Node000014"><a xlink:title=" ">
<path fill="none" stroke="#63b8ff" d="M549.7,-439.95C579.47,-424.45 638.63,-388.54 662,-338 700.34,-255.09 664.12,-142.57 645.05,-94.43"/>
<polygon fill="#63b8ff" stroke="#63b8ff" points="648.29,-93.1 641.28,-85.16 641.81,-95.74 648.29,-93.1"/>
</a>
</g>
</g>
<!-- Node21 -->
<g id="Node000021" class="node">
<title>Node21</title>
<g id="a_Node000021"><a xlink:href="TopologyRepository_8h.html" target="_top" xlink:title="Singleton de stockage des données topologiques ferroviaires.">
<polygon fill="white" stroke="#666666" points="1036.5,-404 913.5,-404 913.5,-374 1036.5,-374 1036.5,-404"/>
<text text-anchor="start" x="921.5" y="-392" font-family="Helvetica,sans-Serif" font-size="10.00">Engine/Core/Topology</text>
<text text-anchor="middle" x="975" y="-381" font-family="Helvetica,sans-Serif" font-size="10.00">/TopologyRepository.h</text>
</a>
</g>
</g>
<!-- Node20&#45;&gt;Node21 -->
<g id="edge24_Node000020_Node000021" class="edge">
<title>Node20&#45;&gt;Node21</title>
<g id="a_edge24_Node000020_Node000021"><a xlink:title=" ">
<path fill="none" stroke="#63b8ff" d="M576.77,-441.35C579.9,-440.88 582.99,-440.43 586,-440 696.47,-424.21 824.93,-408.14 903.07,-398.63"/>
<polygon fill="#63b8ff" stroke="#63b8ff" points="903.78,-402.07 913.28,-397.39 902.93,-395.12 903.78,-402.07"/>
</a>
</g>
</g>
<!-- Node22 -->
<g id="Node000022" class="node">
<title>Node22</title>
<g id="a_Node000022"><a xlink:href="TopologyData_8h.html" target="_top" xlink:title="Conteneur central des données topologiques ferroviaires.">
<polygon fill="white" stroke="#666666" points="1097,-338 1005,-338 1005,-319 1097,-319 1097,-338"/>
<text text-anchor="middle" x="1051" y="-326" font-family="Helvetica,sans-Serif" font-size="10.00">TopologyData.h</text>
</a>
</g>
</g>
<!-- Node21&#45;&gt;Node22 -->
<g id="edge25_Node000021_Node000022" class="edge">
<title>Node21&#45;&gt;Node22</title>
<g id="a_edge25_Node000021_Node000022"><a xlink:title=" ">
<path fill="none" stroke="#63b8ff" d="M993.4,-373.84C1004.88,-365 1019.65,-353.63 1031.36,-344.62"/>
<polygon fill="#63b8ff" stroke="#63b8ff" points="1033.82,-347.14 1039.61,-338.27 1029.55,-341.59 1033.82,-347.14"/>
</a>
</g>
</g>
<!-- Node23 -->
<g id="Node000023" class="node">
<title>Node23</title>
<g id="a_Node000023"><a xlink:title=" ">
<polygon fill="#e0e0e0" stroke="#999999" points="1332,-277.5 1274,-277.5 1274,-258.5 1332,-258.5 1332,-277.5"/>
<text text-anchor="middle" x="1303" y="-265.5" font-family="Helvetica,sans-Serif" font-size="10.00">memory</text>
</a>
</g>
</g>
<!-- Node22&#45;&gt;Node23 -->
<g id="edge26_Node000022_Node000023" class="edge">
<title>Node22&#45;&gt;Node23</title>
<g id="a_edge26_Node000022_Node000023"><a xlink:title=" ">
<path fill="none" stroke="#63b8ff" d="M1097.41,-319.07C1139.98,-310.99 1204.64,-297.86 1260,-283 1262.77,-282.26 1265.63,-281.44 1268.49,-280.58"/>
<polygon fill="#63b8ff" stroke="#63b8ff" points="1269.61,-283.9 1278.12,-277.59 1267.53,-277.22 1269.61,-283.9"/>
</a>
</g>
</g>
<!-- Node24 -->
<g id="Node000024" class="node">
<title>Node24</title>
<g id="a_Node000024"><a xlink:title=" ">
<polygon fill="#e0e0e0" stroke="#999999" points="1170.5,-211.5 1123.5,-211.5 1123.5,-192.5 1170.5,-192.5 1170.5,-211.5"/>
<text text-anchor="middle" x="1147" y="-199.5" font-family="Helvetica,sans-Serif" font-size="10.00">vector</text>
</a>
</g>
</g>
<!-- Node22&#45;&gt;Node24 -->
<g id="edge27_Node000022_Node000024" class="edge">
<title>Node22&#45;&gt;Node24</title>
<g id="a_edge27_Node000022_Node000024"><a xlink:title=" ">
<path fill="none" stroke="#63b8ff" d="M1097.39,-322.27C1144.29,-315.91 1212.07,-303.43 1228,-283 1248.27,-257.01 1207.76,-230.93 1177.06,-215.91"/>
<polygon fill="#63b8ff" stroke="#63b8ff" points="1178.46,-212.71 1167.92,-211.62 1175.49,-219.04 1178.46,-212.71"/>
</a>
</g>
</g>
<!-- Node25 -->
<g id="Node000025" class="node">
<title>Node25</title>
<g id="a_Node000025"><a xlink:title=" ">
<polygon fill="#e0e0e0" stroke="#999999" points="1015.5,-277.5 922.5,-277.5 922.5,-258.5 1015.5,-258.5 1015.5,-277.5"/>
<text text-anchor="middle" x="969" y="-265.5" font-family="Helvetica,sans-Serif" font-size="10.00">unordered_map</text>
</a>
</g>
</g>
<!-- Node22&#45;&gt;Node25 -->
<g id="edge28_Node000022_Node000025" class="edge">
<title>Node22&#45;&gt;Node25</title>
<g id="a_edge28_Node000022_Node000025"><a xlink:title=" ">
<path fill="none" stroke="#63b8ff" d="M1038.9,-318.87C1025.94,-309.62 1005.14,-294.78 989.6,-283.69"/>
<polygon fill="#63b8ff" stroke="#63b8ff" points="991.32,-280.63 981.15,-277.67 987.26,-286.32 991.32,-280.63"/>
</a>
</g>
</g>
<!-- Node26 -->
<g id="Node000026" class="node">
<title>Node26</title>
<g id="a_Node000026"><a xlink:href="StraightBlock_8h.html" target="_top" xlink:title="Modèle de domaine d&#39;un bloc de voie droite (Straight).">
<polygon fill="white" stroke="#666666" points="1218.5,-283 1033.5,-283 1033.5,-253 1218.5,-253 1218.5,-283"/>
<text text-anchor="start" x="1041.5" y="-271" font-family="Helvetica,sans-Serif" font-size="10.00">Modules/InteractiveElements</text>
<text text-anchor="middle" x="1126" y="-260" font-family="Helvetica,sans-Serif" font-size="10.00">/ShuntingElements/StraightBlock.h</text>
</a>
</g>
</g>
<!-- Node22&#45;&gt;Node26 -->
<g id="edge29_Node000022_Node000026" class="edge">
<title>Node22&#45;&gt;Node26</title>
<g id="a_edge29_Node000022_Node000026"><a xlink:title=" ">
<path fill="none" stroke="#63b8ff" d="M1062.07,-318.87C1071.96,-311.15 1086.85,-299.54 1099.77,-289.46"/>
<polygon fill="#63b8ff" stroke="#63b8ff" points="1102.17,-292.02 1107.9,-283.11 1097.87,-286.51 1102.17,-292.02"/>
</a>
</g>
</g>
<!-- Node30 -->
<g id="Node000030" class="node">
<title>Node30</title>
<g id="a_Node000030"><a xlink:href="SwitchBlock_8h.html" target="_top" xlink:title="Modèle de domaine d&#39;un aiguillage ferroviaire à 3 branches.">
<polygon fill="white" stroke="#666666" points="904.5,-283 725.5,-283 725.5,-253 904.5,-253 904.5,-283"/>
<text text-anchor="start" x="733.5" y="-271" font-family="Helvetica,sans-Serif" font-size="10.00">Modules/InteractiveElements</text>
<text text-anchor="middle" x="815" y="-260" font-family="Helvetica,sans-Serif" font-size="10.00">/ShuntingElements/SwitchBlock.h</text>
</a>
</g>
</g>
<!-- Node22&#45;&gt;Node30 -->
<g id="edge37_Node000022_Node000030" class="edge">
<title>Node22&#45;&gt;Node30</title>
<g id="a_edge37_Node000022_Node000030"><a xlink:title=" ">
<path fill="none" stroke="#63b8ff" d="M1016.68,-318.99C981.38,-310.24 925.5,-296.39 881.5,-285.48"/>
<polygon fill="#63b8ff" stroke="#63b8ff" points="882.29,-282.07 871.74,-283.06 880.6,-288.87 882.29,-282.07"/>
</a>
</g>
</g>
<!-- Node26&#45;&gt;Node11 -->
<g id="edge30_Node000026_Node000011" class="edge">
<title>Node26&#45;&gt;Node11</title>
<g id="a_edge30_Node000026_Node000011"><a xlink:title=" ">
<path fill="none" stroke="#63b8ff" d="M1147.11,-252.79C1167.86,-236.98 1194.48,-210.55 1180,-187 1108.79,-71.19 935.49,-28.57 863.34,-15.49"/>
<polygon fill="#63b8ff" stroke="#63b8ff" points="863.51,-11.97 853.06,-13.71 862.31,-18.87 863.51,-11.97"/>
</a>
</g>
</g>
<!-- Node26&#45;&gt;Node24 -->
<g id="edge31_Node000026_Node000024" class="edge">
<title>Node26&#45;&gt;Node24</title>
<g id="a_edge31_Node000026_Node000024"><a xlink:title=" ">
<path fill="none" stroke="#63b8ff" d="M1130.66,-252.8C1133.68,-243.6 1137.64,-231.53 1140.9,-221.58"/>
<polygon fill="#63b8ff" stroke="#63b8ff" points="1144.31,-222.44 1144.1,-211.84 1137.65,-220.25 1144.31,-222.44"/>
</a>
</g>
</g>
<!-- Node27 -->
<g id="Node000027" class="node">
<title>Node27</title>
<g id="a_Node000027"><a xlink:href="ShuntingElement_8h.html" target="_top" xlink:title="Interface abstraite pour tous les éléments de shuntage ferroviaire.">
<polygon fill="white" stroke="#666666" points="968.5,-211.5 859.5,-211.5 859.5,-192.5 968.5,-192.5 968.5,-211.5"/>
<text text-anchor="middle" x="914" y="-199.5" font-family="Helvetica,sans-Serif" font-size="10.00">ShuntingElement.h</text>
</a>
</g>
</g>
<!-- Node26&#45;&gt;Node27 -->
<g id="edge32_Node000026_Node000027" class="edge">
<title>Node26&#45;&gt;Node27</title>
<g id="a_edge32_Node000026_Node000027"><a xlink:title=" ">
<path fill="none" stroke="#63b8ff" d="M1079.48,-252.95C1041.31,-241.43 987.95,-225.32 952.24,-214.54"/>
<polygon fill="#63b8ff" stroke="#63b8ff" points="952.8,-211.06 942.21,-211.52 950.78,-217.76 952.8,-211.06"/>
</a>
</g>
</g>
<!-- Node29 -->
<g id="Node000029" class="node">
<title>Node29</title>
<g id="a_Node000029"><a xlink:href="LatLon_8h.html" target="_top" xlink:title="Représentation d&#39;une coordonnée géographique WGS&#45;84 (latitude, longitude).">
<polygon fill="white" stroke="#666666" points="1105.5,-217 986.5,-217 986.5,-187 1105.5,-187 1105.5,-217"/>
<text text-anchor="start" x="994.5" y="-205" font-family="Helvetica,sans-Serif" font-size="10.00">Modules/Coordinates</text>
<text text-anchor="middle" x="1046" y="-194" font-family="Helvetica,sans-Serif" font-size="10.00">/LatLon.h</text>
</a>
</g>
</g>
<!-- Node26&#45;&gt;Node29 -->
<g id="edge36_Node000026_Node000029" class="edge">
<title>Node26&#45;&gt;Node29</title>
<g id="a_edge36_Node000026_Node000029"><a xlink:title=" ">
<path fill="none" stroke="#63b8ff" d="M1108.25,-252.8C1097.47,-244.18 1083.55,-233.04 1071.6,-223.48"/>
<polygon fill="#63b8ff" stroke="#63b8ff" points="1073.7,-220.68 1063.7,-217.16 1069.33,-226.14 1073.7,-220.68"/>
</a>
</g>
</g>
<!-- Node28 -->
<g id="Node000028" class="node">
<title>Node28</title>
<g id="a_Node000028"><a xlink:href="InteractiveElement_8h.html" target="_top" xlink:title="Classe de base abstraite pour tous les éléments interactifs ferroviaires.">
<polygon fill="white" stroke="#666666" points="1017.5,-151 858.5,-151 858.5,-121 1017.5,-121 1017.5,-151"/>
<text text-anchor="start" x="866.5" y="-139" font-family="Helvetica,sans-Serif" font-size="10.00">Modules/InteractiveElements</text>
<text text-anchor="middle" x="938" y="-128" font-family="Helvetica,sans-Serif" font-size="10.00">/InteractiveElement.h</text>
</a>
</g>
</g>
<!-- Node27&#45;&gt;Node28 -->
<g id="edge33_Node000027_Node000028" class="edge">
<title>Node27&#45;&gt;Node28</title>
<g id="a_edge33_Node000027_Node000028"><a xlink:title=" ">
<path fill="none" stroke="#63b8ff" d="M917.24,-192.37C920.25,-184.32 924.9,-171.94 929.03,-160.93"/>
<polygon fill="#63b8ff" stroke="#63b8ff" points="932.38,-161.95 932.61,-151.36 925.83,-159.49 932.38,-161.95"/>
</a>
</g>
</g>
<!-- Node28&#45;&gt;Node11 -->
<g id="edge34_Node000028_Node000011" class="edge">
<title>Node28&#45;&gt;Node11</title>
<g id="a_edge34_Node000028_Node000011"><a xlink:title=" ">
<path fill="none" stroke="#63b8ff" d="M925.73,-120.72C905.69,-97.41 866.09,-51.33 844.99,-26.78"/>
<polygon fill="#63b8ff" stroke="#63b8ff" points="847.54,-24.37 838.37,-19.07 842.23,-28.93 847.54,-24.37"/>
</a>
</g>
</g>
<!-- Node28&#45;&gt;Node14 -->
<g id="edge35_Node000028_Node000014" class="edge">
<title>Node28&#45;&gt;Node14</title>
<g id="a_edge35_Node000028_Node000014"><a xlink:title=" ">
<path fill="none" stroke="#63b8ff" d="M871.51,-120.95C820.71,-110.23 751.07,-95.52 700.53,-84.84"/>
<polygon fill="#63b8ff" stroke="#63b8ff" points="701.19,-81.4 690.68,-82.76 699.74,-88.25 701.19,-81.4"/>
</a>
</g>
</g>
<!-- Node30&#45;&gt;Node11 -->
<g id="edge40_Node000030_Node000011" class="edge">
<title>Node30&#45;&gt;Node11</title>
<g id="a_edge40_Node000030_Node000011"><a xlink:title=" ">
<path fill="none" stroke="#63b8ff" d="M815.88,-252.84C818.59,-209.48 826.76,-78.45 829.82,-29.35"/>
<polygon fill="#63b8ff" stroke="#63b8ff" points="833.33,-29.41 830.46,-19.21 826.34,-28.97 833.33,-29.41"/>
</a>
</g>
</g>
<!-- Node30&#45;&gt;Node19 -->
<g id="edge39_Node000030_Node000019" class="edge">
<title>Node30&#45;&gt;Node19</title>
<g id="a_edge39_Node000030_Node000019"><a xlink:title=" ">
<path fill="none" stroke="#63b8ff" d="M778.62,-252.86C763.17,-244.83 746.75,-233.11 738,-217 704.36,-155.05 724.16,-66.47 735.16,-28.69"/>
<polygon fill="#63b8ff" stroke="#63b8ff" points="738.52,-29.65 738.1,-19.06 731.83,-27.61 738.52,-29.65"/>
</a>
</g>
</g>
<!-- Node30&#45;&gt;Node24 -->
<g id="edge41_Node000030_Node000024" class="edge">
<title>Node30&#45;&gt;Node24</title>
<g id="a_edge41_Node000030_Node000024"><a xlink:title=" ">
<path fill="none" stroke="#63b8ff" d="M904.83,-253.18C985.76,-240.54 1095.04,-222.93 1115,-217 1116.68,-216.5 1118.39,-215.94 1120.09,-215.33"/>
<polygon fill="#63b8ff" stroke="#63b8ff" points="1121.7,-218.46 1129.69,-211.5 1119.1,-211.96 1121.7,-218.46"/>
</a>
</g>
</g>
<!-- Node30&#45;&gt;Node27 -->
<g id="edge43_Node000030_Node000027" class="edge">
<title>Node30&#45;&gt;Node27</title>
<g id="a_edge43_Node000030_Node000027"><a xlink:title=" ">
<path fill="none" stroke="#63b8ff" d="M836.97,-252.8C853.41,-242.17 875.79,-227.7 892.19,-217.1"/>
<polygon fill="#63b8ff" stroke="#63b8ff" points="894.11,-220.03 900.61,-211.66 890.31,-214.15 894.11,-220.03"/>
</a>
</g>
</g>
<!-- Node30&#45;&gt;Node29 -->
<g id="edge42_Node000030_Node000029" class="edge">
<title>Node30&#45;&gt;Node29</title>
<g id="a_edge42_Node000030_Node000029"><a xlink:title=" ">
<path fill="none" stroke="#63b8ff" d="M865.69,-252.95C901.05,-243.16 948.38,-230.05 985.68,-219.71"/>
<polygon fill="#63b8ff" stroke="#63b8ff" points="986.72,-223.06 995.42,-217.01 984.85,-216.31 986.72,-223.06"/>
</a>
</g>
</g>
<!-- Node31 -->
<g id="Node000031" class="node">
<title>Node31</title>
<g id="a_Node000031"><a xlink:title=" ">
<polygon fill="#e0e0e0" stroke="#999999" points="803,-211.5 747,-211.5 747,-192.5 803,-192.5 803,-211.5"/>
<text text-anchor="middle" x="775" y="-199.5" font-family="Helvetica,sans-Serif" font-size="10.00">optional</text>
</a>
</g>
</g>
<!-- Node30&#45;&gt;Node31 -->
<g id="edge38_Node000030_Node000031" class="edge">
<title>Node30&#45;&gt;Node31</title>
<g id="a_edge38_Node000030_Node000031"><a xlink:title=" ">
<path fill="none" stroke="#63b8ff" d="M806.12,-252.8C800.19,-243.31 792.35,-230.76 786.02,-220.63"/>
<polygon fill="#63b8ff" stroke="#63b8ff" points="788.8,-218.47 780.53,-211.84 782.86,-222.18 788.8,-218.47"/>
</a>
</g>
</g>
</g>
</svg>
