<?xml version="1.0" encoding="UTF-8" standalone="no"?>
<!DOCTYPE svg PUBLIC "-//W3C//DTD SVG 1.1//EN"
 "http://www.w3.org/Graphics/SVG/1.1/DTD/svg11.dtd">
<!-- Generated by graphviz version 2.43.0 (0)
 -->
<!-- Title: SimulateurFerroviaire/Modules/PCC/PCCSwitchNode.cpp Pages: 1 -->
<svg width="697pt" height="412pt"
 viewBox="0.00 0.00 697.00 412.00" xmlns="http://www.w3.org/2000/svg" xmlns:xlink="http://www.w3.org/1999/xlink">
<g id="graph0" class="graph" transform="scale(1 1) rotate(0) translate(4 408)">
<title>SimulateurFerroviaire/Modules/PCC/PCCSwitchNode.cpp</title>
<!-- Node1 -->
<g id="Node000001" class="node">
<title>Node1</title>
<g id="a_Node000001"><a xlink:title="Implémentation du nœud PCC pour aiguillage.">
<polygon fill="#999999" stroke="#666666" points="467.5,-404 283.5,-404 283.5,-374 467.5,-374 467.5,-404"/>
<text text-anchor="start" x="291.5" y="-392" font-family="Helvetica,sans-Serif" font-size="10.00">SimulateurFerroviaire</text>
<text text-anchor="middle" x="375.5" y="-381" font-family="Helvetica,sans-Serif" font-size="10.00">/Modules/PCC/PCCSwitchNode.cpp</text>
</a>
</g>
</g>
<!-- Node2 -->
<g id="Node000002" class="node">
<title>Node2</title>
<g id="a_Node000002"><a xlink:href="PCCSwitchNode_8h.html" target="_top" xlink:title="Nœud PCC représentant un SwitchBlock.">
<polygon fill="white" stroke="#666666" points="376,-338 273,-338 273,-319 376,-319 376,-338"/>
<text text-anchor="middle" x="324.5" y="-326" font-family="Helvetica,sans-Serif" font-size="10.00">PCCSwitchNode.h</text>
</a>
</g>
</g>
<!-- Node1&#45;&gt;Node2 -->
<g id="edge1_Node000001_Node000002" class="edge">
<title>Node1&#45;&gt;Node2</title>
<g id="a_edge1_Node000001_Node000002"><a xlink:title=" ">
<path fill="none" stroke="#63b8ff" d="M363.15,-373.84C355.83,-365.43 346.5,-354.74 338.85,-345.96"/>
<polygon fill="#63b8ff" stroke="#63b8ff" points="341.35,-343.5 332.14,-338.27 336.08,-348.1 341.35,-343.5"/>
</a>
</g>
</g>
<!-- Node18 -->
<g id="Node000018" class="node">
<title>Node18</title>
<g id="a_Node000018"><a xlink:title=" ">
<polygon fill="#e0e0e0" stroke="#999999" points="459,-338 394,-338 394,-319 459,-319 459,-338"/>
<text text-anchor="middle" x="426.5" y="-326" font-family="Helvetica,sans-Serif" font-size="10.00">stdexcept</text>
</a>
</g>
</g>
<!-- Node1&#45;&gt;Node18 -->
<g id="edge23_Node000001_Node000018" class="edge">
<title>Node1&#45;&gt;Node18</title>
<g id="a_edge23_Node000001_Node000018"><a xlink:title=" ">
<path fill="none" stroke="#63b8ff" d="M387.85,-373.84C395.17,-365.43 404.5,-354.74 412.15,-345.96"/>
<polygon fill="#63b8ff" stroke="#63b8ff" points="414.92,-348.1 418.86,-338.27 409.65,-343.5 414.92,-348.1"/>
</a>
</g>
</g>
<!-- Node3 -->
<g id="Node000003" class="node">
<title>Node3</title>
<g id="a_Node000003"><a xlink:href="PCCNode_8h.html" target="_top" xlink:title="Nœud abstrait du graphe PCC représentant un bloc ferroviaire.">
<polygon fill="white" stroke="#666666" points="263,-277.5 192,-277.5 192,-258.5 263,-258.5 263,-277.5"/>
<text text-anchor="middle" x="227.5" y="-265.5" font-family="Helvetica,sans-Serif" font-size="10.00">PCCNode.h</text>
</a>
</g>
</g>
<!-- Node2&#45;&gt;Node3 -->
<g id="edge2_Node000002_Node000003" class="edge">
<title>Node2&#45;&gt;Node3</title>
<g id="a_edge2_Node000002_Node000003"><a xlink:title=" ">
<path fill="none" stroke="#63b8ff" d="M310.19,-318.87C294.5,-309.41 269.1,-294.09 250.59,-282.92"/>
<polygon fill="#63b8ff" stroke="#63b8ff" points="252.24,-279.83 241.87,-277.67 248.63,-285.83 252.24,-279.83"/>
</a>
</g>
</g>
<!-- Node15 -->
<g id="Node000015" class="node">
<title>Node15</title>
<g id="a_Node000015"><a xlink:href="SwitchBlock_8h.html" target="_top" xlink:title="Modèle de domaine d&#39;un aiguillage ferroviaire à 3 branches.">
<polygon fill="white" stroke="#666666" points="512,-283 333,-283 333,-253 512,-253 512,-283"/>
<text text-anchor="start" x="341" y="-271" font-family="Helvetica,sans-Serif" font-size="10.00">Modules/InteractiveElements</text>
<text text-anchor="middle" x="422.5" y="-260" font-family="Helvetica,sans-Serif" font-size="10.00">/ShuntingElements/SwitchBlock.h</text>
</a>
</g>
</g>
<!-- Node2&#45;&gt;Node15 -->
<g id="edge16_Node000002_Node000015" class="edge">
<title>Node2&#45;&gt;Node15</title>
<g id="a_edge16_Node000002_Node000015"><a xlink:title=" ">
<path fill="none" stroke="#63b8ff" d="M338.96,-318.87C352.38,-310.86 372.83,-298.65 390.14,-288.31"/>
<polygon fill="#63b8ff" stroke="#63b8ff" points="392.06,-291.25 398.86,-283.11 388.47,-285.23 392.06,-291.25"/>
</a>
</g>
</g>
<!-- Node4 -->
<g id="Node000004" class="node">
<title>Node4</title>
<g id="a_Node000004"><a xlink:title=" ">
<polygon fill="#e0e0e0" stroke="#999999" points="216.5,-19 172.5,-19 172.5,0 216.5,0 216.5,-19"/>
<text text-anchor="middle" x="194.5" y="-7" font-family="Helvetica,sans-Serif" font-size="10.00">string</text>
</a>
</g>
</g>
<!-- Node3&#45;&gt;Node4 -->
<g id="edge3_Node000003_Node000004" class="edge">
<title>Node3&#45;&gt;Node4</title>
<g id="a_edge3_Node000003_Node000004"><a xlink:title=" ">
<path fill="none" stroke="#63b8ff" d="M191.88,-261.18C166.39,-254.96 133.8,-242.31 117.5,-217 76.27,-152.97 145.7,-63.67 178.64,-27.11"/>
<polygon fill="#63b8ff" stroke="#63b8ff" points="181.57,-29.09 185.78,-19.37 176.43,-24.35 181.57,-29.09"/>
</a>
</g>
</g>
<!-- Node5 -->
<g id="Node000005" class="node">
<title>Node5</title>
<g id="a_Node000005"><a xlink:title=" ">
<polygon fill="#e0e0e0" stroke="#999999" points="394,-211.5 347,-211.5 347,-192.5 394,-192.5 394,-211.5"/>
<text text-anchor="middle" x="370.5" y="-199.5" font-family="Helvetica,sans-Serif" font-size="10.00">vector</text>
</a>
</g>
</g>
<!-- Node3&#45;&gt;Node5 -->
<g id="edge4_Node000003_Node000005" class="edge">
<title>Node3&#45;&gt;Node5</title>
<g id="a_edge4_Node000003_Node000005"><a xlink:title=" ">
<path fill="none" stroke="#63b8ff" d="M246.79,-258.37C271.2,-247.44 313.47,-228.52 341.71,-215.88"/>
<polygon fill="#63b8ff" stroke="#63b8ff" points="343.37,-218.98 351.06,-211.7 340.51,-212.59 343.37,-218.98"/>
</a>
</g>
</g>
<!-- Node6 -->
<g id="Node000006" class="node">
<title>Node6</title>
<g id="a_Node000006"><a xlink:href="PCCEdge_8h.html" target="_top" xlink:title="Connexion orientée entre deux nœuds du graphe PCC.">
<polygon fill="white" stroke="#666666" points="69,-211.5 0,-211.5 0,-192.5 69,-192.5 69,-211.5"/>
<text text-anchor="middle" x="34.5" y="-199.5" font-family="Helvetica,sans-Serif" font-size="10.00">PCCEdge.h</text>
</a>
</g>
</g>
<!-- Node3&#45;&gt;Node6 -->
<g id="edge5_Node000003_Node000006" class="edge">
<title>Node3&#45;&gt;Node6</title>
<g id="a_edge5_Node000003_Node000006"><a xlink:title=" ">
<path fill="none" stroke="#63b8ff" d="M201.47,-258.37C167.56,-247.12 108.13,-227.42 70.08,-214.8"/>
<polygon fill="#63b8ff" stroke="#63b8ff" points="71.02,-211.42 60.42,-211.6 68.81,-218.07 71.02,-211.42"/>
</a>
</g>
</g>
<!-- Node7 -->
<g id="Node000007" class="node">
<title>Node7</title>
<g id="a_Node000007"><a xlink:href="ShuntingElement_8h.html" target="_top" xlink:title="Interface abstraite pour tous les éléments de shuntage ferroviaire.">
<polygon fill="white" stroke="#666666" points="329,-217 126,-217 126,-187 329,-187 329,-217"/>
<text text-anchor="start" x="134" y="-205" font-family="Helvetica,sans-Serif" font-size="10.00">Modules/InteractiveElements</text>
<text text-anchor="middle" x="227.5" y="-194" font-family="Helvetica,sans-Serif" font-size="10.00">/ShuntingElements/ShuntingElement.h</text>
</a>
</g>
</g>
<!-- Node3&#45;&gt;Node7 -->
<g id="edge6_Node000003_Node000007" class="edge">
<title>Node3&#45;&gt;Node7</title>
<g id="a_edge6_Node000003_Node000007"><a xlink:title=" ">
<path fill="none" stroke="#63b8ff" d="M227.5,-258.37C227.5,-250.49 227.5,-238.45 227.5,-227.6"/>
<polygon fill="#63b8ff" stroke="#63b8ff" points="231,-227.36 227.5,-217.36 224,-227.36 231,-227.36"/>
</a>
</g>
</g>
<!-- Node8 -->
<g id="Node000008" class="node">
<title>Node8</title>
<g id="a_Node000008"><a xlink:href="InteractiveElement_8h.html" target="_top" xlink:title="Classe de base abstraite pour tous les éléments interactifs ferroviaires.">
<polygon fill="white" stroke="#666666" points="307,-151 148,-151 148,-121 307,-121 307,-151"/>
<text text-anchor="start" x="156" y="-139" font-family="Helvetica,sans-Serif" font-size="10.00">Modules/InteractiveElements</text>
<text text-anchor="middle" x="227.5" y="-128" font-family="Helvetica,sans-Serif" font-size="10.00">/InteractiveElement.h</text>
</a>
</g>
</g>
<!-- Node7&#45;&gt;Node8 -->
<g id="edge7_Node000007_Node000008" class="edge">
<title>Node7&#45;&gt;Node8</title>
<g id="a_edge7_Node000007_Node000008"><a xlink:title=" ">
<path fill="none" stroke="#63b8ff" d="M227.5,-186.8C227.5,-179.34 227.5,-169.99 227.5,-161.41"/>
<polygon fill="#63b8ff" stroke="#63b8ff" points="231,-161.16 227.5,-151.16 224,-161.16 231,-161.16"/>
</a>
</g>
</g>
<!-- Node8&#45;&gt;Node4 -->
<g id="edge8_Node000008_Node000004" class="edge">
<title>Node8&#45;&gt;Node4</title>
<g id="a_edge8_Node000008_Node000004"><a xlink:title=" ">
<path fill="none" stroke="#63b8ff" d="M223.71,-120.72C217.7,-98.02 205.96,-53.72 199.34,-28.75"/>
<polygon fill="#63b8ff" stroke="#63b8ff" points="202.72,-27.84 196.77,-19.07 195.95,-29.63 202.72,-27.84"/>
</a>
</g>
</g>
<!-- Node9 -->
<g id="Node000009" class="node">
<title>Node9</title>
<g id="a_Node000009"><a xlink:href="Logger_8h.html" target="_top" xlink:title="Système de journalisation à 5 niveaux de trace, un fichier par moteur.">
<polygon fill="white" stroke="#666666" points="439,-85 328,-85 328,-55 439,-55 439,-85"/>
<text text-anchor="start" x="336" y="-73" font-family="Helvetica,sans-Serif" font-size="10.00">Engine/Core/Logger</text>
<text text-anchor="middle" x="383.5" y="-62" font-family="Helvetica,sans-Serif" font-size="10.00">/Logger.h</text>
</a>
</g>
</g>
<!-- Node8&#45;&gt;Node9 -->
<g id="edge9_Node000008_Node000009" class="edge">
<title>Node8&#45;&gt;Node9</title>
<g id="a_edge9_Node000008_Node000009"><a xlink:title=" ">
<path fill="none" stroke="#63b8ff" d="M261.73,-120.95C284.7,-111.53 315.14,-99.04 339.84,-88.91"/>
<polygon fill="#63b8ff" stroke="#63b8ff" points="341.42,-92.05 349.34,-85.01 338.76,-85.57 341.42,-92.05"/>
</a>
</g>
</g>
<!-- Node9&#45;&gt;Node4 -->
<g id="edge15_Node000009_Node000004" class="edge">
<title>Node9&#45;&gt;Node4</title>
<g id="a_edge15_Node000009_Node000004"><a xlink:title=" ">
<path fill="none" stroke="#63b8ff" d="M338.23,-54.99C303.69,-44.3 256.99,-29.84 226.32,-20.35"/>
<polygon fill="#63b8ff" stroke="#63b8ff" points="227.16,-16.95 216.57,-17.33 225.09,-23.63 227.16,-16.95"/>
</a>
</g>
</g>
<!-- Node10 -->
<g id="Node000010" class="node">
<title>Node10</title>
<g id="a_Node000010"><a xlink:title=" ">
<polygon fill="#e0e0e0" stroke="#999999" points="418.5,-19 374.5,-19 374.5,0 418.5,0 418.5,-19"/>
<text text-anchor="middle" x="396.5" y="-7" font-family="Helvetica,sans-Serif" font-size="10.00">ctime</text>
</a>
</g>
</g>
<!-- Node9&#45;&gt;Node10 -->
<g id="edge10_Node000009_Node000010" class="edge">
<title>Node9&#45;&gt;Node10</title>
<g id="a_edge10_Node000009_Node000010"><a xlink:title=" ">
<path fill="none" stroke="#63b8ff" d="M386.65,-54.84C388.36,-47.13 390.5,-37.49 392.35,-29.17"/>
<polygon fill="#63b8ff" stroke="#63b8ff" points="395.8,-29.79 394.55,-19.27 388.97,-28.27 395.8,-29.79"/>
</a>
</g>
</g>
<!-- Node11 -->
<g id="Node000011" class="node">
<title>Node11</title>
<g id="a_Node000011"><a xlink:title=" ">
<polygon fill="#e0e0e0" stroke="#999999" points="504.5,-19 436.5,-19 436.5,0 504.5,0 504.5,-19"/>
<text text-anchor="middle" x="470.5" y="-7" font-family="Helvetica,sans-Serif" font-size="10.00">filesystem</text>
</a>
</g>
</g>
<!-- Node9&#45;&gt;Node11 -->
<g id="edge11_Node000009_Node000011" class="edge">
<title>Node9&#45;&gt;Node11</title>
<g id="a_edge11_Node000009_Node000011"><a xlink:title=" ">
<path fill="none" stroke="#63b8ff" d="M404.56,-54.84C418.04,-45.77 435.49,-34.04 449.05,-24.92"/>
<polygon fill="#63b8ff" stroke="#63b8ff" points="451.37,-27.58 457.72,-19.09 447.47,-21.77 451.37,-27.58"/>
</a>
</g>
</g>
<!-- Node12 -->
<g id="Node000012" class="node">
<title>Node12</title>
<g id="a_Node000012"><a xlink:title=" ">
<polygon fill="#e0e0e0" stroke="#999999" points="290,-19 235,-19 235,0 290,0 290,-19"/>
<text text-anchor="middle" x="262.5" y="-7" font-family="Helvetica,sans-Serif" font-size="10.00">fstream</text>
</a>
</g>
</g>
<!-- Node9&#45;&gt;Node12 -->
<g id="edge12_Node000009_Node000012" class="edge">
<title>Node9&#45;&gt;Node12</title>
<g id="a_edge12_Node000009_Node000012"><a xlink:title=" ">
<path fill="none" stroke="#63b8ff" d="M354.52,-54.99C334.78,-45.45 308.83,-32.9 289.53,-23.57"/>
<polygon fill="#63b8ff" stroke="#63b8ff" points="290.9,-20.34 280.37,-19.14 287.85,-26.64 290.9,-20.34"/>
</a>
</g>
</g>
<!-- Node13 -->
<g id="Node000013" class="node">
<title>Node13</title>
<g id="a_Node000013"><a xlink:title=" ">
<polygon fill="#e0e0e0" stroke="#999999" points="356.5,-19 308.5,-19 308.5,0 356.5,0 356.5,-19"/>
<text text-anchor="middle" x="332.5" y="-7" font-family="Helvetica,sans-Serif" font-size="10.00">mutex</text>
</a>
</g>
</g>
<!-- Node9&#45;&gt;Node13 -->
<g id="edge13_Node000009_Node000013" class="edge">
<title>Node9&#45;&gt;Node13</title>
<g id="a_edge13_Node000009_Node000013"><a xlink:title=" ">
<path fill="none" stroke="#63b8ff" d="M371.15,-54.84C363.83,-46.43 354.5,-35.74 346.85,-26.96"/>
<polygon fill="#63b8ff" stroke="#63b8ff" points="349.35,-24.5 340.14,-19.27 344.08,-29.1 349.35,-24.5"/>
</a>
</g>
</g>
<!-- Node14 -->
<g id="Node000014" class="node">
<title>Node14</title>
<g id="a_Node000014"><a xlink:title=" ">
<polygon fill="#e0e0e0" stroke="#999999" points="578.5,-19 522.5,-19 522.5,0 578.5,0 578.5,-19"/>
<text text-anchor="middle" x="550.5" y="-7" font-family="Helvetica,sans-Serif" font-size="10.00">sstream</text>
</a>
</g>
</g>
<!-- Node9&#45;&gt;Node14 -->
<g id="edge14_Node000009_Node000014" class="edge">
<title>Node9&#45;&gt;Node14</title>
<g id="a_edge14_Node000009_Node000014"><a xlink:title=" ">
<path fill="none" stroke="#63b8ff" d="M423.5,-54.99C451.74,-45.1 489.18,-31.98 516.08,-22.56"/>
<polygon fill="#63b8ff" stroke="#63b8ff" points="517.56,-25.75 525.84,-19.14 515.24,-19.14 517.56,-25.75"/>
</a>
</g>
</g>
<!-- Node15&#45;&gt;Node4 -->
<g id="edge19_Node000015_Node000004" class="edge">
<title>Node15&#45;&gt;Node4</title>
<g id="a_edge19_Node000015_Node000004"><a xlink:title=" ">
<path fill="none" stroke="#63b8ff" d="M421.81,-252.98C420.42,-236.17 416.21,-207.67 403.5,-187 356.1,-109.92 263.5,-49.81 219.22,-24.11"/>
<polygon fill="#63b8ff" stroke="#63b8ff" points="220.71,-20.93 210.29,-19.01 217.24,-27.01 220.71,-20.93"/>
</a>
</g>
</g>
<!-- Node15&#45;&gt;Node5 -->
<g id="edge20_Node000015_Node000005" class="edge">
<title>Node15&#45;&gt;Node5</title>
<g id="a_edge20_Node000015_Node000005"><a xlink:title=" ">
<path fill="none" stroke="#63b8ff" d="M410.96,-252.8C403.01,-243.01 392.42,-229.98 384.07,-219.7"/>
<polygon fill="#63b8ff" stroke="#63b8ff" points="386.71,-217.4 377.69,-211.84 381.28,-221.81 386.71,-217.4"/>
</a>
</g>
</g>
<!-- Node15&#45;&gt;Node7 -->
<g id="edge22_Node000015_Node000007" class="edge">
<title>Node15&#45;&gt;Node7</title>
<g id="a_edge22_Node000015_Node000007"><a xlink:title=" ">
<path fill="none" stroke="#63b8ff" d="M379.71,-252.95C350.37,-243.33 311.26,-230.49 280.03,-220.24"/>
<polygon fill="#63b8ff" stroke="#63b8ff" points="280.79,-216.81 270.19,-217.01 278.6,-223.46 280.79,-216.81"/>
</a>
</g>
</g>
<!-- Node15&#45;&gt;Node14 -->
<g id="edge18_Node000015_Node000014" class="edge">
<title>Node15&#45;&gt;Node14</title>
<g id="a_edge18_Node000015_Node000014"><a xlink:title=" ">
<path fill="none" stroke="#63b8ff" d="M429.56,-252.84C451.34,-209.21 517.42,-76.79 541.55,-28.43"/>
<polygon fill="#63b8ff" stroke="#63b8ff" points="544.82,-29.72 546.15,-19.21 538.56,-26.59 544.82,-29.72"/>
</a>
</g>
</g>
<!-- Node16 -->
<g id="Node000016" class="node">
<title>Node16</title>
<g id="a_Node000016"><a xlink:title=" ">
<polygon fill="#e0e0e0" stroke="#999999" points="551.5,-211.5 495.5,-211.5 495.5,-192.5 551.5,-192.5 551.5,-211.5"/>
<text text-anchor="middle" x="523.5" y="-199.5" font-family="Helvetica,sans-Serif" font-size="10.00">optional</text>
</a>
</g>
</g>
<!-- Node15&#45;&gt;Node16 -->
<g id="edge17_Node000015_Node000016" class="edge">
<title>Node15&#45;&gt;Node16</title>
<g id="a_edge17_Node000015_Node000016"><a xlink:title=" ">
<path fill="none" stroke="#63b8ff" d="M444.92,-252.8C461.69,-242.17 484.51,-227.7 501.25,-217.1"/>
<polygon fill="#63b8ff" stroke="#63b8ff" points="503.26,-219.97 509.84,-211.66 499.52,-214.05 503.26,-219.97"/>
</a>
</g>
</g>
<!-- Node17 -->
<g id="Node000017" class="node">
<title>Node17</title>
<g id="a_Node000017"><a xlink:href="LatLon_8h.html" target="_top" xlink:title="Représentation d&#39;une coordonnée géographique WGS&#45;84 (latitude, longitude).">
<polygon fill="white" stroke="#666666" points="689,-217 570,-217 570,-187 689,-187 689,-217"/>
<text text-anchor="start" x="578" y="-205" font-family="Helvetica,sans-Serif" font-size="10.00">Modules/Coordinates</text>
<text text-anchor="middle" x="629.5" y="-194" font-family="Helvetica,sans-Serif" font-size="10.00">/LatLon.h</text>
</a>
</g>
</g>
<!-- Node15&#45;&gt;Node17 -->
<g id="edge21_Node000015_Node000017" class="edge">
<title>Node15&#45;&gt;Node17</title>
<g id="a_edge21_Node000015_Node000017"><a xlink:title=" ">
<path fill="none" stroke="#63b8ff" d="M467.93,-252.95C499.34,-243.24 541.3,-230.27 574.59,-219.98"/>
<polygon fill="#63b8ff" stroke="#63b8ff" points="575.66,-223.31 584.18,-217.01 573.59,-216.62 575.66,-223.31"/>
</a>
</g>
</g>
</g>
</svg>
