<?xml version="1.0" encoding="UTF-8" standalone="no"?>
<!DOCTYPE svg PUBLIC "-//W3C//DTD SVG 1.1//EN"
 "http://www.w3.org/Graphics/SVG/1.1/DTD/svg11.dtd">
<!-- Generated by graphviz version 2.43.0 (0)
 -->
<!-- Title: SimulateurFerroviaire/Modules/InteractiveElements/ShuntingElements/ShuntingElement.h Pages: 1 -->
<svg width="1424pt" height="434pt"
 viewBox="0.00 0.00 1424.26 434.00" xmlns="http://www.w3.org/2000/svg" xmlns:xlink="http://www.w3.org/1999/xlink">
<g id="graph0" class="graph" transform="scale(1 1) rotate(0) translate(4 430)">
<title>SimulateurFerroviaire/Modules/InteractiveElements/ShuntingElements/ShuntingElement.h</title>
<!-- Node1 -->
<g id="Node000001" class="node">
<title>Node1</title>
<g id="a_Node000001"><a xlink:title="Interface abstraite pour tous les éléments de shuntage ferroviaire.">
<polygon fill="#999999" stroke="#666666" points="735.76,-426 532.76,-426 532.76,-385 735.76,-385 735.76,-426"/>
<text text-anchor="start" x="540.76" y="-414" font-family="Helvetica,sans-Serif" font-size="10.00">SimulateurFerroviaire</text>
<text text-anchor="start" x="540.76" y="-403" font-family="Helvetica,sans-Serif" font-size="10.00">/Modules/InteractiveElements</text>
<text text-anchor="middle" x="634.26" y="-392" font-family="Helvetica,sans-Serif" font-size="10.00">/ShuntingElements/ShuntingElement.h</text>
</a>
</g>
</g>
<!-- Node2 -->
<g id="Node000002" class="node">
<title>Node2</title>
<g id="a_Node000002"><a xlink:href="StraightBlock_8h.html" target="_top" xlink:title="Modèle de domaine d&#39;un bloc de voie droite (Straight).">
<polygon fill="white" stroke="#666666" points="626.76,-349 441.76,-349 441.76,-308 626.76,-308 626.76,-349"/>
<text text-anchor="start" x="449.76" y="-337" font-family="Helvetica,sans-Serif" font-size="10.00">SimulateurFerroviaire</text>
<text text-anchor="start" x="449.76" y="-326" font-family="Helvetica,sans-Serif" font-size="10.00">/Modules/InteractiveElements</text>
<text text-anchor="middle" x="534.26" y="-315" font-family="Helvetica,sans-Serif" font-size="10.00">/ShuntingElements/StraightBlock.h</text>
</a>
</g>
</g>
<!-- Node1&#45;&gt;Node2 -->
<g id="edge1_Node000001_Node000002" class="edge">
<title>Node1&#45;&gt;Node2</title>
<g id="a_edge1_Node000001_Node000002"><a xlink:title=" ">
<path fill="none" stroke="#63b8ff" d="M600.02,-378.82C587.08,-369.11 572.58,-358.24 560.49,-349.17"/>
<polygon fill="#63b8ff" stroke="#63b8ff" points="598.15,-381.79 608.25,-384.99 602.35,-376.19 598.15,-381.79"/>
</a>
</g>
</g>
<!-- Node21 -->
<g id="Node000021" class="node">
<title>Node21</title>
<g id="a_Node000021"><a xlink:href="SwitchBlock_8h.html" target="_top" xlink:title="Modèle de domaine d&#39;un aiguillage ferroviaire à 3 branches.">
<polygon fill="white" stroke="#666666" points="823.76,-349 644.76,-349 644.76,-308 823.76,-308 823.76,-349"/>
<text text-anchor="start" x="652.76" y="-337" font-family="Helvetica,sans-Serif" font-size="10.00">SimulateurFerroviaire</text>
<text text-anchor="start" x="652.76" y="-326" font-family="Helvetica,sans-Serif" font-size="10.00">/Modules/InteractiveElements</text>
<text text-anchor="middle" x="734.26" y="-315" font-family="Helvetica,sans-Serif" font-size="10.00">/ShuntingElements/SwitchBlock.h</text>
</a>
</g>
</g>
<!-- Node1&#45;&gt;Node21 -->
<g id="edge28_Node000001_Node000021" class="edge">
<title>Node1&#45;&gt;Node21</title>
<g id="a_edge28_Node000001_Node000021"><a xlink:title=" ">
<path fill="none" stroke="#63b8ff" d="M668.51,-378.82C681.44,-369.11 695.95,-358.24 708.03,-349.17"/>
<polygon fill="#63b8ff" stroke="#63b8ff" points="666.18,-376.19 660.28,-384.99 670.38,-381.79 666.18,-376.19"/>
</a>
</g>
</g>
<!-- Node3 -->
<g id="Node000003" class="node">
<title>Node3</title>
<g id="a_Node000003"><a xlink:href="TopologyData_8h.html" target="_top" xlink:title="Conteneur central des données topologiques ferroviaires.">
<polygon fill="white" stroke="#666666" points="1006.76,-272 881.76,-272 881.76,-231 1006.76,-231 1006.76,-272"/>
<text text-anchor="start" x="889.76" y="-260" font-family="Helvetica,sans-Serif" font-size="10.00">SimulateurFerroviaire</text>
<text text-anchor="start" x="889.76" y="-249" font-family="Helvetica,sans-Serif" font-size="10.00">/Engine/Core/Topology</text>
<text text-anchor="middle" x="944.26" y="-238" font-family="Helvetica,sans-Serif" font-size="10.00">/TopologyData.h</text>
</a>
</g>
</g>
<!-- Node2&#45;&gt;Node3 -->
<g id="edge2_Node000002_Node000003" class="edge">
<title>Node2&#45;&gt;Node3</title>
<g id="a_edge2_Node000002_Node000003"><a xlink:title=" ">
<path fill="none" stroke="#63b8ff" d="M636.84,-307.76C739.76,-290.25 768.11,-292.2 867.26,-272 871.99,-271.04 876.87,-269.97 881.76,-268.85"/>
<polygon fill="#63b8ff" stroke="#63b8ff" points="636.24,-304.32 626.98,-309.46 637.42,-311.21 636.24,-304.32"/>
</a>
</g>
</g>
<!-- Node11 -->
<g id="Node000011" class="node">
<title>Node11</title>
<g id="a_Node000011"><a xlink:href="TopologyRenderer_8h.html" target="_top" xlink:title="Exporteur de topologie ferroviaire au format GeoJSON.">
<polygon fill="white" stroke="#666666" points="1041.76,-195 916.76,-195 916.76,-154 1041.76,-154 1041.76,-195"/>
<text text-anchor="start" x="924.76" y="-183" font-family="Helvetica,sans-Serif" font-size="10.00">SimulateurFerroviaire</text>
<text text-anchor="start" x="924.76" y="-172" font-family="Helvetica,sans-Serif" font-size="10.00">/Engine/Core/Topology</text>
<text text-anchor="middle" x="979.26" y="-161" font-family="Helvetica,sans-Serif" font-size="10.00">/TopologyRenderer.h</text>
</a>
</g>
</g>
<!-- Node2&#45;&gt;Node11 -->
<g id="edge10_Node000002_Node000011" class="edge">
<title>Node2&#45;&gt;Node11</title>
<g id="a_edge10_Node000002_Node000011"><a xlink:title=" ">
<path fill="none" stroke="#63b8ff" d="M636.9,-307.8C725.44,-293.06 757.33,-313 833.26,-272 855.39,-260.05 852.16,-246.11 872.26,-231 891,-216.92 913.82,-204.54 933.57,-195.06"/>
<polygon fill="#63b8ff" stroke="#63b8ff" points="636.23,-304.37 626.99,-309.56 637.45,-311.26 636.23,-304.37"/>
</a>
</g>
</g>
<!-- Node12 -->
<g id="Node000012" class="node">
<title>Node12</title>
<g id="a_Node000012"><a xlink:href="DoubleSwitchDetector_8h.html" target="_top" xlink:title="Phases 7 et 8 — détection des doubles aiguilles et validation CDC.">
<polygon fill="white" stroke="#666666" points="824.76,-272 641.76,-272 641.76,-231 824.76,-231 824.76,-272"/>
<text text-anchor="start" x="649.76" y="-260" font-family="Helvetica,sans-Serif" font-size="10.00">SimulateurFerroviaire</text>
<text text-anchor="start" x="649.76" y="-249" font-family="Helvetica,sans-Serif" font-size="10.00">/Modules/GeoParser/DoubleSwitch</text>
<text text-anchor="middle" x="733.26" y="-238" font-family="Helvetica,sans-Serif" font-size="10.00">Detector.h</text>
</a>
</g>
</g>
<!-- Node2&#45;&gt;Node12 -->
<g id="edge14_Node000002_Node000012" class="edge">
<title>Node2&#45;&gt;Node12</title>
<g id="a_edge14_Node000002_Node000012"><a xlink:title=" ">
<path fill="none" stroke="#63b8ff" d="M595.55,-304.4C623.04,-294.04 655.13,-281.95 681.41,-272.04"/>
<polygon fill="#63b8ff" stroke="#63b8ff" points="594.15,-301.19 586.03,-307.99 596.62,-307.74 594.15,-301.19"/>
</a>
</g>
</g>
<!-- Node14 -->
<g id="Node000014" class="node">
<title>Node14</title>
<g id="a_Node000014"><a xlink:href="GeoParser_8h.html" target="_top" xlink:title="Orchestrateur principal du pipeline GeoJSON ferroviaire.">
<polygon fill="white" stroke="#666666" points="623.26,-266.5 449.26,-266.5 449.26,-236.5 623.26,-236.5 623.26,-266.5"/>
<text text-anchor="start" x="457.26" y="-254.5" font-family="Helvetica,sans-Serif" font-size="10.00">SimulateurFerroviaire</text>
<text text-anchor="middle" x="536.26" y="-243.5" font-family="Helvetica,sans-Serif" font-size="10.00">/Modules/GeoParser/GeoParser.h</text>
</a>
</g>
</g>
<!-- Node2&#45;&gt;Node14 -->
<g id="edge17_Node000002_Node000014" class="edge">
<title>Node2&#45;&gt;Node14</title>
<g id="a_edge17_Node000002_Node000014"><a xlink:title=" ">
<path fill="none" stroke="#63b8ff" d="M535.06,-297.61C535.34,-287.01 535.65,-275.57 535.88,-266.86"/>
<polygon fill="#63b8ff" stroke="#63b8ff" points="531.56,-297.7 534.79,-307.79 538.55,-297.89 531.56,-297.7"/>
</a>
</g>
</g>
<!-- Node16 -->
<g id="Node000016" class="node">
<title>Node16</title>
<g id="a_Node000016"><a xlink:href="SwitchOrientator_8h.html" target="_top" xlink:title="Phases 6, 6b, 6c et 6d — orientation géométrique des aiguillages.">
<polygon fill="white" stroke="#666666" points="215.26,-189.5 9.26,-189.5 9.26,-159.5 215.26,-159.5 215.26,-189.5"/>
<text text-anchor="start" x="17.26" y="-177.5" font-family="Helvetica,sans-Serif" font-size="10.00">SimulateurFerroviaire</text>
<text text-anchor="middle" x="112.26" y="-166.5" font-family="Helvetica,sans-Serif" font-size="10.00">/Modules/GeoParser/SwitchOrientator.h</text>
</a>
</g>
</g>
<!-- Node2&#45;&gt;Node16 -->
<g id="edge20_Node000002_Node000016" class="edge">
<title>Node2&#45;&gt;Node16</title>
<g id="a_edge20_Node000002_Node000016"><a xlink:title=" ">
<path fill="none" stroke="#63b8ff" d="M431.33,-323.91C286.22,-317.76 35.99,-302.81 8.26,-272 -3.93,-258.46 -1.11,-246.63 8.26,-231 20.16,-211.17 41.82,-198.03 62.3,-189.54"/>
<polygon fill="#63b8ff" stroke="#63b8ff" points="431.45,-327.41 441.59,-324.33 431.75,-320.42 431.45,-327.41"/>
</a>
</g>
</g>
<!-- Node18 -->
<g id="Node000018" class="node">
<title>Node18</title>
<g id="a_Node000018"><a xlink:href="TopologyExtractor_8h.html" target="_top" xlink:title="Phases 3, 4, 5a et 5b — extraction de la topologie ferroviaire depuis le graphe.">
<polygon fill="white" stroke="#666666" points="431.26,-272 271.26,-272 271.26,-231 431.26,-231 431.26,-272"/>
<text text-anchor="start" x="279.26" y="-260" font-family="Helvetica,sans-Serif" font-size="10.00">SimulateurFerroviaire</text>
<text text-anchor="start" x="279.26" y="-249" font-family="Helvetica,sans-Serif" font-size="10.00">/Modules/GeoParser/Topology</text>
<text text-anchor="middle" x="351.26" y="-238" font-family="Helvetica,sans-Serif" font-size="10.00">Extractor.h</text>
</a>
</g>
</g>
<!-- Node2&#45;&gt;Node18 -->
<g id="edge23_Node000002_Node000018" class="edge">
<title>Node2&#45;&gt;Node18</title>
<g id="a_edge23_Node000002_Node000018"><a xlink:title=" ">
<path fill="none" stroke="#63b8ff" d="M477.24,-304.13C452.11,-293.83 422.9,-281.86 398.95,-272.04"/>
<polygon fill="#63b8ff" stroke="#63b8ff" points="476.08,-307.44 486.66,-307.99 478.73,-300.96 476.08,-307.44"/>
</a>
</g>
</g>
<!-- Node20 -->
<g id="Node000020" class="node">
<title>Node20</title>
<g id="a_Node000020"><a xlink:href="StraightBlock_8cpp.html" target="_top" xlink:title="Implémentation du bloc de voie droite StraightBlock.">
<polygon fill="white" stroke="#666666" points="214.76,-272 17.76,-272 17.76,-231 214.76,-231 214.76,-272"/>
<text text-anchor="start" x="25.76" y="-260" font-family="Helvetica,sans-Serif" font-size="10.00">SimulateurFerroviaire</text>
<text text-anchor="start" x="25.76" y="-249" font-family="Helvetica,sans-Serif" font-size="10.00">/Modules/InteractiveElements</text>
<text text-anchor="middle" x="116.26" y="-238" font-family="Helvetica,sans-Serif" font-size="10.00">/ShuntingElements/StraightBlock.cpp</text>
</a>
</g>
</g>
<!-- Node2&#45;&gt;Node20 -->
<g id="edge27_Node000002_Node000020" class="edge">
<title>Node2&#45;&gt;Node20</title>
<g id="a_edge27_Node000002_Node000020"><a xlink:title=" ">
<path fill="none" stroke="#63b8ff" d="M431.74,-309.11C365.73,-297.26 280.36,-281.94 215.08,-270.23"/>
<polygon fill="#63b8ff" stroke="#63b8ff" points="431.29,-312.58 441.75,-310.9 432.53,-305.69 431.29,-312.58"/>
</a>
</g>
</g>
<!-- Node4 -->
<g id="Node000004" class="node">
<title>Node4</title>
<g id="a_Node000004"><a xlink:href="TopologyRepository_8h.html" target="_top" xlink:title="Singleton de stockage des données topologiques ferroviaires.">
<polygon fill="white" stroke="#666666" points="1184.76,-195 1059.76,-195 1059.76,-154 1184.76,-154 1184.76,-195"/>
<text text-anchor="start" x="1067.76" y="-183" font-family="Helvetica,sans-Serif" font-size="10.00">SimulateurFerroviaire</text>
<text text-anchor="start" x="1067.76" y="-172" font-family="Helvetica,sans-Serif" font-size="10.00">/Engine/Core/Topology</text>
<text text-anchor="middle" x="1122.26" y="-161" font-family="Helvetica,sans-Serif" font-size="10.00">/TopologyRepository.h</text>
</a>
</g>
</g>
<!-- Node3&#45;&gt;Node4 -->
<g id="edge3_Node000003_Node000004" class="edge">
<title>Node3&#45;&gt;Node4</title>
<g id="a_edge3_Node000003_Node000004"><a xlink:title=" ">
<path fill="none" stroke="#63b8ff" d="M1000.05,-227C1024.42,-216.72 1052.68,-204.82 1075.88,-195.04"/>
<polygon fill="#63b8ff" stroke="#63b8ff" points="998.42,-223.88 990.57,-230.99 1001.14,-230.33 998.42,-223.88"/>
</a>
</g>
</g>
<!-- Node5 -->
<g id="Node000005" class="node">
<title>Node5</title>
<g id="a_Node000005"><a xlink:href="TopologyRenderer_8cpp.html" target="_top" xlink:title="Implémentation de l&#39;exporteur GeoJSON.">
<polygon fill="white" stroke="#666666" points="1023.76,-118 896.76,-118 896.76,-77 1023.76,-77 1023.76,-118"/>
<text text-anchor="start" x="904.76" y="-106" font-family="Helvetica,sans-Serif" font-size="10.00">SimulateurFerroviaire</text>
<text text-anchor="start" x="904.76" y="-95" font-family="Helvetica,sans-Serif" font-size="10.00">/Engine/Core/Topology</text>
<text text-anchor="middle" x="960.26" y="-84" font-family="Helvetica,sans-Serif" font-size="10.00">/TopologyRenderer.cpp</text>
</a>
</g>
</g>
<!-- Node4&#45;&gt;Node5 -->
<g id="edge4_Node000004_Node000005" class="edge">
<title>Node4&#45;&gt;Node5</title>
<g id="a_edge4_Node000004_Node000005"><a xlink:title=" ">
<path fill="none" stroke="#63b8ff" d="M1070.9,-149.72C1048.85,-139.51 1023.4,-127.73 1002.47,-118.04"/>
<polygon fill="#63b8ff" stroke="#63b8ff" points="1069.58,-152.97 1080.12,-153.99 1072.52,-146.61 1069.58,-152.97"/>
</a>
</g>
</g>
<!-- Node6 -->
<g id="Node000006" class="node">
<title>Node6</title>
<g id="a_Node000006"><a xlink:href="MainWindow_8cpp.html" target="_top" xlink:title="Implémentation de la fenêtre principale.">
<polygon fill="white" stroke="#666666" points="1202.76,-112.5 1041.76,-112.5 1041.76,-82.5 1202.76,-82.5 1202.76,-112.5"/>
<text text-anchor="start" x="1049.76" y="-100.5" font-family="Helvetica,sans-Serif" font-size="10.00">SimulateurFerroviaire</text>
<text text-anchor="middle" x="1122.26" y="-89.5" font-family="Helvetica,sans-Serif" font-size="10.00">/Engine/HMI/MainWindow.cpp</text>
</a>
</g>
</g>
<!-- Node4&#45;&gt;Node6 -->
<g id="edge5_Node000004_Node000006" class="edge">
<title>Node4&#45;&gt;Node6</title>
<g id="a_edge5_Node000004_Node000006"><a xlink:title=" ">
<path fill="none" stroke="#63b8ff" d="M1122.26,-143.61C1122.26,-133.01 1122.26,-121.57 1122.26,-112.86"/>
<polygon fill="#63b8ff" stroke="#63b8ff" points="1118.76,-143.79 1122.26,-153.79 1125.76,-143.79 1118.76,-143.79"/>
</a>
</g>
</g>
<!-- Node7 -->
<g id="Node000007" class="node">
<title>Node7</title>
<g id="a_Node000007"><a xlink:href="TCORenderer_8h.html" target="_top" xlink:title="Renderer GDI du schéma TCO (Tableau de Contrôle Optique) ferroviaire.">
<polygon fill="white" stroke="#666666" points="1345.26,-118 1221.26,-118 1221.26,-77 1345.26,-77 1345.26,-118"/>
<text text-anchor="start" x="1229.26" y="-106" font-family="Helvetica,sans-Serif" font-size="10.00">SimulateurFerroviaire</text>
<text text-anchor="start" x="1229.26" y="-95" font-family="Helvetica,sans-Serif" font-size="10.00">/Engine/HMI/PCCPanel</text>
<text text-anchor="middle" x="1283.26" y="-84" font-family="Helvetica,sans-Serif" font-size="10.00">/TCORenderer.h</text>
</a>
</g>
</g>
<!-- Node4&#45;&gt;Node7 -->
<g id="edge6_Node000004_Node000007" class="edge">
<title>Node4&#45;&gt;Node7</title>
<g id="a_edge6_Node000004_Node000007"><a xlink:title=" ">
<path fill="none" stroke="#63b8ff" d="M1173.31,-149.72C1195.22,-139.51 1220.51,-127.73 1241.31,-118.04"/>
<polygon fill="#63b8ff" stroke="#63b8ff" points="1171.73,-146.6 1164.14,-153.99 1174.69,-152.94 1171.73,-146.6"/>
</a>
</g>
</g>
<!-- Node10 -->
<g id="Node000010" class="node">
<title>Node10</title>
<g id="a_Node000010"><a xlink:href="GeoParser_8cpp.html" target="_top" xlink:title="Implémentation du pipeline GeoParser.">
<polygon fill="white" stroke="#666666" points="665.76,-112.5 480.76,-112.5 480.76,-82.5 665.76,-82.5 665.76,-112.5"/>
<text text-anchor="start" x="488.76" y="-100.5" font-family="Helvetica,sans-Serif" font-size="10.00">SimulateurFerroviaire</text>
<text text-anchor="middle" x="573.26" y="-89.5" font-family="Helvetica,sans-Serif" font-size="10.00">/Modules/GeoParser/GeoParser.cpp</text>
</a>
</g>
</g>
<!-- Node4&#45;&gt;Node10 -->
<g id="edge9_Node000004_Node000010" class="edge">
<title>Node4&#45;&gt;Node10</title>
<g id="a_edge9_Node000004_Node000010"><a xlink:title=" ">
<path fill="none" stroke="#63b8ff" d="M1049.58,-154.02C910.58,-127.79 760.07,-112.89 665.77,-105.16"/>
<polygon fill="#63b8ff" stroke="#63b8ff" points="1049.08,-157.49 1059.56,-155.93 1050.4,-150.61 1049.08,-157.49"/>
</a>
</g>
</g>
<!-- Node8 -->
<g id="Node000008" class="node">
<title>Node8</title>
<g id="a_Node000008"><a xlink:href="PCCPanel_8cpp.html" target="_top" xlink:title="Implémentation du panneau PCC superposé togglable.">
<polygon fill="white" stroke="#666666" points="1274.26,-41 1150.26,-41 1150.26,0 1274.26,0 1274.26,-41"/>
<text text-anchor="start" x="1158.26" y="-29" font-family="Helvetica,sans-Serif" font-size="10.00">SimulateurFerroviaire</text>
<text text-anchor="start" x="1158.26" y="-18" font-family="Helvetica,sans-Serif" font-size="10.00">/Engine/HMI/PCCPanel</text>
<text text-anchor="middle" x="1212.26" y="-7" font-family="Helvetica,sans-Serif" font-size="10.00">/PCCPanel.cpp</text>
</a>
</g>
</g>
<!-- Node7&#45;&gt;Node8 -->
<g id="edge7_Node000007_Node000008" class="edge">
<title>Node7&#45;&gt;Node8</title>
<g id="a_edge7_Node000007_Node000008"><a xlink:title=" ">
<path fill="none" stroke="#63b8ff" d="M1257.71,-69.51C1248.82,-60.11 1239.01,-49.76 1230.79,-41.07"/>
<polygon fill="#63b8ff" stroke="#63b8ff" points="1255.19,-71.94 1264.61,-76.79 1260.27,-67.13 1255.19,-71.94"/>
</a>
</g>
</g>
<!-- Node9 -->
<g id="Node000009" class="node">
<title>Node9</title>
<g id="a_Node000009"><a xlink:href="TCORenderer_8cpp.html" target="_top" xlink:title="Implémentation du renderer GDI TCO.">
<polygon fill="white" stroke="#666666" points="1416.26,-41 1292.26,-41 1292.26,0 1416.26,0 1416.26,-41"/>
<text text-anchor="start" x="1300.26" y="-29" font-family="Helvetica,sans-Serif" font-size="10.00">SimulateurFerroviaire</text>
<text text-anchor="start" x="1300.26" y="-18" font-family="Helvetica,sans-Serif" font-size="10.00">/Engine/HMI/PCCPanel</text>
<text text-anchor="middle" x="1354.26" y="-7" font-family="Helvetica,sans-Serif" font-size="10.00">/TCORenderer.cpp</text>
</a>
</g>
</g>
<!-- Node7&#45;&gt;Node9 -->
<g id="edge8_Node000007_Node000009" class="edge">
<title>Node7&#45;&gt;Node9</title>
<g id="a_edge8_Node000007_Node000009"><a xlink:title=" ">
<path fill="none" stroke="#63b8ff" d="M1308.81,-69.51C1317.71,-60.11 1327.51,-49.76 1335.73,-41.07"/>
<polygon fill="#63b8ff" stroke="#63b8ff" points="1306.25,-67.13 1301.92,-76.79 1311.33,-71.94 1306.25,-67.13"/>
</a>
</g>
</g>
<!-- Node11&#45;&gt;Node5 -->
<g id="edge11_Node000011_Node000005" class="edge">
<title>Node11&#45;&gt;Node5</title>
<g id="a_edge11_Node000011_Node000005"><a xlink:title=" ">
<path fill="none" stroke="#63b8ff" d="M971.78,-143.98C969.58,-135.28 967.22,-125.98 965.22,-118.07"/>
<polygon fill="#63b8ff" stroke="#63b8ff" points="968.42,-144.96 974.27,-153.79 975.21,-143.24 968.42,-144.96"/>
</a>
</g>
</g>
<!-- Node11&#45;&gt;Node6 -->
<g id="edge12_Node000011_Node000006" class="edge">
<title>Node11&#45;&gt;Node6</title>
<g id="a_edge12_Node000011_Node000006"><a xlink:title=" ">
<path fill="none" stroke="#63b8ff" d="M1025.4,-149.3C1048.44,-137.22 1075.53,-123.01 1095.19,-112.7"/>
<polygon fill="#63b8ff" stroke="#63b8ff" points="1023.69,-146.25 1016.46,-153.99 1026.94,-152.45 1023.69,-146.25"/>
</a>
</g>
</g>
<!-- Node11&#45;&gt;Node10 -->
<g id="edge13_Node000011_Node000010" class="edge">
<title>Node11&#45;&gt;Node10</title>
<g id="a_edge13_Node000011_Node000010"><a xlink:title=" ">
<path fill="none" stroke="#63b8ff" d="M906.73,-153.99C819.59,-135.27 730.75,-120.95 665.88,-111.35"/>
<polygon fill="#63b8ff" stroke="#63b8ff" points="906.01,-157.41 916.52,-156.11 907.49,-150.57 906.01,-157.41"/>
</a>
</g>
</g>
<!-- Node12&#45;&gt;Node10 -->
<g id="edge16_Node000012_Node000010" class="edge">
<title>Node12&#45;&gt;Node10</title>
<g id="a_edge16_Node000012_Node000010"><a xlink:title=" ">
<path fill="none" stroke="#63b8ff" d="M718.23,-221.94C706.37,-201.31 688.34,-173.72 667.26,-154 648.86,-136.78 624.2,-122.47 604.76,-112.7"/>
<polygon fill="#63b8ff" stroke="#63b8ff" points="715.29,-223.87 723.24,-230.88 721.4,-220.45 715.29,-223.87"/>
</a>
</g>
</g>
<!-- Node13 -->
<g id="Node000013" class="node">
<title>Node13</title>
<g id="a_Node000013"><a xlink:href="DoubleSwitchDetector_8cpp.html" target="_top" xlink:title="Implémentation phases 7 et 8 — doubles aiguilles et validation CDC.">
<polygon fill="white" stroke="#666666" points="898.76,-195 715.76,-195 715.76,-154 898.76,-154 898.76,-195"/>
<text text-anchor="start" x="723.76" y="-183" font-family="Helvetica,sans-Serif" font-size="10.00">SimulateurFerroviaire</text>
<text text-anchor="start" x="723.76" y="-172" font-family="Helvetica,sans-Serif" font-size="10.00">/Modules/GeoParser/DoubleSwitch</text>
<text text-anchor="middle" x="807.26" y="-161" font-family="Helvetica,sans-Serif" font-size="10.00">Detector.cpp</text>
</a>
</g>
</g>
<!-- Node12&#45;&gt;Node13 -->
<g id="edge15_Node000012_Node000013" class="edge">
<title>Node12&#45;&gt;Node13</title>
<g id="a_edge15_Node000012_Node000013"><a xlink:title=" ">
<path fill="none" stroke="#63b8ff" d="M759.89,-223.51C769.16,-214.11 779.38,-203.76 787.95,-195.07"/>
<polygon fill="#63b8ff" stroke="#63b8ff" points="757.24,-221.22 752.71,-230.79 762.22,-226.13 757.24,-221.22"/>
</a>
</g>
</g>
<!-- Node14&#45;&gt;Node10 -->
<g id="edge18_Node000014_Node000010" class="edge">
<title>Node14&#45;&gt;Node10</title>
<g id="a_edge18_Node000014_Node000010"><a xlink:title=" ">
<path fill="none" stroke="#63b8ff" d="M506.4,-230.13C495.39,-220.84 484.17,-208.82 478.26,-195 471.1,-178.24 469.19,-169.8 478.26,-154 489.39,-134.62 510.19,-121.36 529.49,-112.68"/>
<polygon fill="#63b8ff" stroke="#63b8ff" points="504.29,-232.93 514.3,-236.4 508.64,-227.44 504.29,-232.93"/>
</a>
</g>
</g>
<!-- Node15 -->
<g id="Node000015" class="node">
<title>Node15</title>
<g id="a_Node000015"><a xlink:href="GeoParsingTask_8cpp.html" target="_top" xlink:title="Implémentation de la tâche de parsing GeoJSON asynchrone.">
<polygon fill="white" stroke="#666666" points="658.76,-195 487.76,-195 487.76,-154 658.76,-154 658.76,-195"/>
<text text-anchor="start" x="495.76" y="-183" font-family="Helvetica,sans-Serif" font-size="10.00">SimulateurFerroviaire</text>
<text text-anchor="start" x="495.76" y="-172" font-family="Helvetica,sans-Serif" font-size="10.00">/Modules/GeoParser/GeoParsing</text>
<text text-anchor="middle" x="573.26" y="-161" font-family="Helvetica,sans-Serif" font-size="10.00">Task.cpp</text>
</a>
</g>
</g>
<!-- Node14&#45;&gt;Node15 -->
<g id="edge19_Node000014_Node000015" class="edge">
<title>Node14&#45;&gt;Node15</title>
<g id="a_edge19_Node000014_Node000015"><a xlink:title=" ">
<path fill="none" stroke="#63b8ff" d="M547.76,-227.19C552.82,-216.93 558.7,-205.01 563.54,-195.2"/>
<polygon fill="#63b8ff" stroke="#63b8ff" points="544.51,-225.88 543.22,-236.39 550.78,-228.97 544.51,-225.88"/>
</a>
</g>
</g>
<!-- Node16&#45;&gt;Node10 -->
<g id="edge21_Node000016_Node000010" class="edge">
<title>Node16&#45;&gt;Node10</title>
<g id="a_edge21_Node000016_Node000010"><a xlink:title=" ">
<path fill="none" stroke="#63b8ff" d="M201.98,-157.76C209.52,-156.47 217.02,-155.21 224.26,-154 312.01,-139.38 412.32,-123.52 482.81,-112.51"/>
<polygon fill="#63b8ff" stroke="#63b8ff" points="201.35,-154.32 192.08,-159.46 202.53,-161.22 201.35,-154.32"/>
</a>
</g>
</g>
<!-- Node17 -->
<g id="Node000017" class="node">
<title>Node17</title>
<g id="a_Node000017"><a xlink:href="SwitchOrientator_8cpp.html" target="_top" xlink:title="Implémentation des phases 6, 6b, 6c et 6d — orientation des aiguillages.">
<polygon fill="white" stroke="#666666" points="221.26,-112.5 3.26,-112.5 3.26,-82.5 221.26,-82.5 221.26,-112.5"/>
<text text-anchor="start" x="11.26" y="-100.5" font-family="Helvetica,sans-Serif" font-size="10.00">SimulateurFerroviaire</text>
<text text-anchor="middle" x="112.26" y="-89.5" font-family="Helvetica,sans-Serif" font-size="10.00">/Modules/GeoParser/SwitchOrientator.cpp</text>
</a>
</g>
</g>
<!-- Node16&#45;&gt;Node17 -->
<g id="edge22_Node000016_Node000017" class="edge">
<title>Node16&#45;&gt;Node17</title>
<g id="a_edge22_Node000016_Node000017"><a xlink:title=" ">
<path fill="none" stroke="#63b8ff" d="M112.26,-149.04C112.26,-136.95 112.26,-122.79 112.26,-112.54"/>
<polygon fill="#63b8ff" stroke="#63b8ff" points="108.76,-149.39 112.26,-159.39 115.76,-149.39 108.76,-149.39"/>
</a>
</g>
</g>
<!-- Node18&#45;&gt;Node10 -->
<g id="edge24_Node000018_Node000010" class="edge">
<title>Node18&#45;&gt;Node10</title>
<g id="a_edge24_Node000018_Node000010"><a xlink:title=" ">
<path fill="none" stroke="#63b8ff" d="M379.88,-224.09C402.81,-203.64 436.32,-175.29 468.26,-154 492.11,-138.1 521.02,-123.11 542.46,-112.72"/>
<polygon fill="#63b8ff" stroke="#63b8ff" points="377.32,-221.68 372.23,-230.97 382,-226.89 377.32,-221.68"/>
</a>
</g>
</g>
<!-- Node18&#45;&gt;Node16 -->
<g id="edge25_Node000018_Node000016" class="edge">
<title>Node18&#45;&gt;Node16</title>
<g id="a_edge25_Node000018_Node000016"><a xlink:title=" ">
<path fill="none" stroke="#63b8ff" d="M279.45,-227.96C239.7,-215.49 191.54,-200.38 157.14,-189.58"/>
<polygon fill="#63b8ff" stroke="#63b8ff" points="278.5,-231.34 289.09,-230.99 280.6,-224.66 278.5,-231.34"/>
</a>
</g>
</g>
<!-- Node19 -->
<g id="Node000019" class="node">
<title>Node19</title>
<g id="a_Node000019"><a xlink:href="TopologyExtractor_8cpp.html" target="_top" xlink:title="Implémentation des phases 3, 4, 5a et 5b du pipeline GeoParser.">
<polygon fill="white" stroke="#666666" points="393.26,-195 233.26,-195 233.26,-154 393.26,-154 393.26,-195"/>
<text text-anchor="start" x="241.26" y="-183" font-family="Helvetica,sans-Serif" font-size="10.00">SimulateurFerroviaire</text>
<text text-anchor="start" x="241.26" y="-172" font-family="Helvetica,sans-Serif" font-size="10.00">/Modules/GeoParser/Topology</text>
<text text-anchor="middle" x="313.26" y="-161" font-family="Helvetica,sans-Serif" font-size="10.00">Extractor.cpp</text>
</a>
</g>
</g>
<!-- Node18&#45;&gt;Node19 -->
<g id="edge26_Node000018_Node000019" class="edge">
<title>Node18&#45;&gt;Node19</title>
<g id="a_edge26_Node000018_Node000019"><a xlink:title=" ">
<path fill="none" stroke="#63b8ff" d="M336.74,-221.83C332.21,-212.89 327.32,-203.24 323.18,-195.07"/>
<polygon fill="#63b8ff" stroke="#63b8ff" points="333.64,-223.46 341.28,-230.79 339.88,-220.29 333.64,-223.46"/>
</a>
</g>
</g>
<!-- Node21&#45;&gt;Node3 -->
<g id="edge29_Node000021_Node000003" class="edge">
<title>Node21&#45;&gt;Node3</title>
<g id="a_edge29_Node000021_Node000003"><a xlink:title=" ">
<path fill="none" stroke="#63b8ff" d="M798.55,-304.54C827.65,-294.15 861.69,-281.99 889.54,-272.04"/>
<polygon fill="#63b8ff" stroke="#63b8ff" points="797.13,-301.33 788.89,-307.99 799.48,-307.92 797.13,-301.33"/>
</a>
</g>
</g>
<!-- Node21&#45;&gt;Node11 -->
<g id="edge30_Node000021_Node000011" class="edge">
<title>Node21&#45;&gt;Node11</title>
<g id="a_edge30_Node000021_Node000011"><a xlink:title=" ">
<path fill="none" stroke="#63b8ff" d="M834.21,-320.94C905.41,-313.93 992.39,-299.83 1015.26,-272 1033.88,-249.34 1013.87,-216.11 997.08,-195.15"/>
<polygon fill="#63b8ff" stroke="#63b8ff" points="833.46,-317.49 823.83,-321.92 834.11,-324.46 833.46,-317.49"/>
</a>
</g>
</g>
<!-- Node21&#45;&gt;Node12 -->
<g id="edge31_Node000021_Node000012" class="edge">
<title>Node21&#45;&gt;Node12</title>
<g id="a_edge31_Node000021_Node000012"><a xlink:title=" ">
<path fill="none" stroke="#63b8ff" d="M733.87,-297.69C733.75,-289.08 733.63,-279.9 733.52,-272.07"/>
<polygon fill="#63b8ff" stroke="#63b8ff" points="730.37,-297.84 734,-307.79 737.37,-297.75 730.37,-297.84"/>
</a>
</g>
</g>
<!-- Node21&#45;&gt;Node14 -->
<g id="edge32_Node000021_Node000014" class="edge">
<title>Node21&#45;&gt;Node14</title>
<g id="a_edge32_Node000021_Node000014"><a xlink:title=" ">
<path fill="none" stroke="#63b8ff" d="M673.3,-304.41C640.66,-292.05 601.52,-277.22 573.44,-266.58"/>
<polygon fill="#63b8ff" stroke="#63b8ff" points="672.17,-307.72 682.76,-307.99 674.65,-301.18 672.17,-307.72"/>
</a>
</g>
</g>
<!-- Node21&#45;&gt;Node16 -->
<g id="edge33_Node000021_Node000016" class="edge">
<title>Node21&#45;&gt;Node16</title>
<g id="a_edge33_Node000021_Node000016"><a xlink:title=" ">
<path fill="none" stroke="#63b8ff" d="M634.61,-308.13C537.87,-296.76 334.49,-307.19 262.26,-272 239.65,-260.99 243.48,-245.96 223.26,-231 200.05,-213.83 170.73,-199.43 148.05,-189.6"/>
<polygon fill="#63b8ff" stroke="#63b8ff" points="634.38,-311.63 644.75,-309.46 635.29,-304.69 634.38,-311.63"/>
</a>
</g>
</g>
<!-- Node21&#45;&gt;Node18 -->
<g id="edge34_Node000021_Node000018" class="edge">
<title>Node21&#45;&gt;Node18</title>
<g id="a_edge34_Node000021_Node000018"><a xlink:title=" ">
<path fill="none" stroke="#63b8ff" d="M634.84,-307.93C547.06,-291.32 523.62,-288.82 440.26,-272 437.32,-271.41 434.32,-270.79 431.29,-270.17"/>
<polygon fill="#63b8ff" stroke="#63b8ff" points="634.22,-311.38 644.69,-309.81 635.52,-304.5 634.22,-311.38"/>
</a>
</g>
</g>
<!-- Node22 -->
<g id="Node000022" class="node">
<title>Node22</title>
<g id="a_Node000022"><a xlink:href="SwitchBlock_8cpp.html" target="_top" xlink:title="Implémentation du modèle d&#39;aiguillage SwitchBlock.">
<polygon fill="white" stroke="#666666" points="1254.76,-272 1063.76,-272 1063.76,-231 1254.76,-231 1254.76,-272"/>
<text text-anchor="start" x="1071.76" y="-260" font-family="Helvetica,sans-Serif" font-size="10.00">SimulateurFerroviaire</text>
<text text-anchor="start" x="1071.76" y="-249" font-family="Helvetica,sans-Serif" font-size="10.00">/Modules/InteractiveElements</text>
<text text-anchor="middle" x="1159.26" y="-238" font-family="Helvetica,sans-Serif" font-size="10.00">/ShuntingElements/SwitchBlock.cpp</text>
</a>
</g>
</g>
<!-- Node21&#45;&gt;Node22 -->
<g id="edge35_Node000021_Node000022" class="edge">
<title>Node21&#45;&gt;Node22</title>
<g id="a_edge35_Node000021_Node000022"><a xlink:title=" ">
<path fill="none" stroke="#63b8ff" d="M834.04,-309.95C896,-299.04 977.26,-284.72 1049.26,-272 1053.94,-271.17 1058.73,-270.33 1063.57,-269.47"/>
<polygon fill="#63b8ff" stroke="#63b8ff" points="833.12,-306.56 823.88,-311.74 834.34,-313.45 833.12,-306.56"/>
</a>
</g>
</g>
</g>
</svg>
