<?xml version="1.0" encoding="UTF-8" standalone="no"?>
<!DOCTYPE svg PUBLIC "-//W3C//DTD SVG 1.1//EN"
 "http://www.w3.org/Graphics/SVG/1.1/DTD/svg11.dtd">
<!-- Generated by graphviz version 2.43.0 (0)
 -->
<!-- Title: SimulateurFerroviaire/SimulateurFerroviaire.cpp Pages: 1 -->
<svg width="780pt" height="368pt"
 viewBox="0.00 0.00 779.50 368.00" xmlns="http://www.w3.org/2000/svg" xmlns:xlink="http://www.w3.org/1999/xlink">
<g id="graph0" class="graph" transform="scale(1 1) rotate(0) translate(4 364)">
<title>SimulateurFerroviaire/SimulateurFerroviaire.cpp</title>
<!-- Node1 -->
<g id="Node000001" class="node">
<title>Node1</title>
<g id="a_Node000001"><a xlink:title="Point d&#39;entrée unique de l&#39;application Win32.">
<polygon fill="#999999" stroke="#666666" points="430.5,-360 284.5,-360 284.5,-330 430.5,-330 430.5,-360"/>
<text text-anchor="start" x="292.5" y="-348" font-family="Helvetica,sans-Serif" font-size="10.00">SimulateurFerroviaire</text>
<text text-anchor="middle" x="357.5" y="-337" font-family="Helvetica,sans-Serif" font-size="10.00">/SimulateurFerroviaire.cpp</text>
</a>
</g>
</g>
<!-- Node2 -->
<g id="Node000002" class="node">
<title>Node2</title>
<g id="a_Node000002"><a xlink:href="framework_8h.html" target="_top" xlink:title=" ">
<polygon fill="white" stroke="#666666" points="439,-129 360,-129 360,-110 439,-110 439,-129"/>
<text text-anchor="middle" x="399.5" y="-117" font-family="Helvetica,sans-Serif" font-size="10.00">framework.h</text>
</a>
</g>
</g>
<!-- Node1&#45;&gt;Node2 -->
<g id="edge1_Node000001_Node000002" class="edge">
<title>Node1&#45;&gt;Node2</title>
<g id="a_edge1_Node000001_Node000002"><a xlink:title=" ">
<path fill="none" stroke="#63b8ff" d="M323.27,-329.95C308.2,-321.84 292.01,-310.02 283.5,-294 279.54,-286.54 282.67,-283.4 283.5,-275 285.96,-250.19 282.44,-241.82 294.5,-220 314.84,-183.2 353.49,-151.97 377.8,-134.77"/>
<polygon fill="#63b8ff" stroke="#63b8ff" points="379.8,-137.64 386.04,-129.08 375.82,-131.88 379.8,-137.64"/>
</a>
</g>
</g>
<!-- Node13 -->
<g id="Node000013" class="node">
<title>Node13</title>
<g id="a_Node000013"><a xlink:href="SimulateurFerroviaire_8h.html" target="_top" xlink:title=" ">
<polygon fill="white" stroke="#666666" points="423,-294 292,-294 292,-275 423,-275 423,-294"/>
<text text-anchor="middle" x="357.5" y="-282" font-family="Helvetica,sans-Serif" font-size="10.00">SimulateurFerroviaire.h</text>
</a>
</g>
</g>
<!-- Node1&#45;&gt;Node13 -->
<g id="edge12_Node000001_Node000013" class="edge">
<title>Node1&#45;&gt;Node13</title>
<g id="a_edge12_Node000001_Node000013"><a xlink:title=" ">
<path fill="none" stroke="#63b8ff" d="M357.5,-329.84C357.5,-322.21 357.5,-312.7 357.5,-304.45"/>
<polygon fill="#63b8ff" stroke="#63b8ff" points="361,-304.27 357.5,-294.27 354,-304.27 361,-304.27"/>
</a>
</g>
</g>
<!-- Node15 -->
<g id="Node000015" class="node">
<title>Node15</title>
<g id="a_Node000015"><a xlink:href="Application_8h.html" target="_top" xlink:title="Gestion du cycle de vie de l&#39;application Win32.">
<polygon fill="white" stroke="#666666" points="583.5,-294 441.5,-294 441.5,-275 583.5,-275 583.5,-294"/>
<text text-anchor="middle" x="512.5" y="-282" font-family="Helvetica,sans-Serif" font-size="10.00">Engine/Core/Application.h</text>
</a>
</g>
</g>
<!-- Node1&#45;&gt;Node15 -->
<g id="edge14_Node000001_Node000015" class="edge">
<title>Node1&#45;&gt;Node15</title>
<g id="a_edge14_Node000001_Node000015"><a xlink:title=" ">
<path fill="none" stroke="#63b8ff" d="M394.63,-329.99C420.72,-320.14 455.28,-307.1 480.23,-297.68"/>
<polygon fill="#63b8ff" stroke="#63b8ff" points="481.49,-300.94 489.61,-294.14 479.02,-294.4 481.49,-300.94"/>
</a>
</g>
</g>
<!-- Node3 -->
<g id="Node000003" class="node">
<title>Node3</title>
<g id="a_Node000003"><a xlink:href="targetver_8h.html" target="_top" xlink:title=" ">
<polygon fill="white" stroke="#666666" points="76.5,-74 6.5,-74 6.5,-55 76.5,-55 76.5,-74"/>
<text text-anchor="middle" x="41.5" y="-62" font-family="Helvetica,sans-Serif" font-size="10.00">targetver.h</text>
</a>
</g>
</g>
<!-- Node2&#45;&gt;Node3 -->
<g id="edge2_Node000002_Node000003" class="edge">
<title>Node2&#45;&gt;Node3</title>
<g id="a_edge2_Node000002_Node000003"><a xlink:title=" ">
<path fill="none" stroke="#63b8ff" d="M359.75,-113.51C301.92,-106.12 191,-91.41 86.62,-74.11"/>
<polygon fill="#63b8ff" stroke="#63b8ff" points="86.98,-70.63 76.54,-72.43 85.82,-77.53 86.98,-70.63"/>
</a>
</g>
</g>
<!-- Node5 -->
<g id="Node000005" class="node">
<title>Node5</title>
<g id="a_Node000005"><a xlink:title=" ">
<polygon fill="#e0e0e0" stroke="#999999" points="162.5,-74 94.5,-74 94.5,-55 162.5,-55 162.5,-74"/>
<text text-anchor="middle" x="128.5" y="-62" font-family="Helvetica,sans-Serif" font-size="10.00">windows.h</text>
</a>
</g>
</g>
<!-- Node2&#45;&gt;Node5 -->
<g id="edge4_Node000002_Node000005" class="edge">
<title>Node2&#45;&gt;Node5</title>
<g id="a_edge4_Node000002_Node000005"><a xlink:title=" ">
<path fill="none" stroke="#63b8ff" d="M359.95,-110.81C316.52,-102.36 244.43,-88.32 172.86,-74.26"/>
<polygon fill="#63b8ff" stroke="#63b8ff" points="173.25,-70.77 162.77,-72.28 171.9,-77.64 173.25,-70.77"/>
</a>
</g>
</g>
<!-- Node6 -->
<g id="Node000006" class="node">
<title>Node6</title>
<g id="a_Node000006"><a xlink:title=" ">
<polygon fill="#e0e0e0" stroke="#999999" points="234,-74 181,-74 181,-55 234,-55 234,-74"/>
<text text-anchor="middle" x="207.5" y="-62" font-family="Helvetica,sans-Serif" font-size="10.00">stdlib.h</text>
</a>
</g>
</g>
<!-- Node2&#45;&gt;Node6 -->
<g id="edge5_Node000002_Node000006" class="edge">
<title>Node2&#45;&gt;Node6</title>
<g id="a_edge5_Node000002_Node000006"><a xlink:title=" ">
<path fill="none" stroke="#63b8ff" d="M368.65,-109.98C334.64,-100.6 279.98,-85.51 243.9,-75.55"/>
<polygon fill="#63b8ff" stroke="#63b8ff" points="244.82,-72.17 234.25,-72.88 242.95,-78.92 244.82,-72.17"/>
</a>
</g>
</g>
<!-- Node7 -->
<g id="Node000007" class="node">
<title>Node7</title>
<g id="a_Node000007"><a xlink:title=" ">
<polygon fill="#e0e0e0" stroke="#999999" points="311,-74 252,-74 252,-55 311,-55 311,-74"/>
<text text-anchor="middle" x="281.5" y="-62" font-family="Helvetica,sans-Serif" font-size="10.00">malloc.h</text>
</a>
</g>
</g>
<!-- Node2&#45;&gt;Node7 -->
<g id="edge6_Node000002_Node000007" class="edge">
<title>Node2&#45;&gt;Node7</title>
<g id="a_edge6_Node000002_Node000007"><a xlink:title=" ">
<path fill="none" stroke="#63b8ff" d="M380.54,-109.98C361.47,-101.42 331.84,-88.11 309.95,-78.28"/>
<polygon fill="#63b8ff" stroke="#63b8ff" points="311.36,-75.07 300.8,-74.17 308.49,-81.46 311.36,-75.07"/>
</a>
</g>
</g>
<!-- Node8 -->
<g id="Node000008" class="node">
<title>Node8</title>
<g id="a_Node000008"><a xlink:title=" ">
<polygon fill="#e0e0e0" stroke="#999999" points="394,-74 329,-74 329,-55 394,-55 394,-74"/>
<text text-anchor="middle" x="361.5" y="-62" font-family="Helvetica,sans-Serif" font-size="10.00">memory.h</text>
</a>
</g>
</g>
<!-- Node2&#45;&gt;Node8 -->
<g id="edge7_Node000002_Node000008" class="edge">
<title>Node2&#45;&gt;Node8</title>
<g id="a_edge7_Node000002_Node000008"><a xlink:title=" ">
<path fill="none" stroke="#63b8ff" d="M393.23,-109.75C387.91,-102.34 380.14,-91.5 373.62,-82.41"/>
<polygon fill="#63b8ff" stroke="#63b8ff" points="376.33,-80.18 367.66,-74.09 370.64,-84.26 376.33,-80.18"/>
</a>
</g>
</g>
<!-- Node9 -->
<g id="Node000009" class="node">
<title>Node9</title>
<g id="a_Node000009"><a xlink:title=" ">
<polygon fill="#e0e0e0" stroke="#999999" points="462.5,-74 412.5,-74 412.5,-55 462.5,-55 462.5,-74"/>
<text text-anchor="middle" x="437.5" y="-62" font-family="Helvetica,sans-Serif" font-size="10.00">tchar.h</text>
</a>
</g>
</g>
<!-- Node2&#45;&gt;Node9 -->
<g id="edge8_Node000002_Node000009" class="edge">
<title>Node2&#45;&gt;Node9</title>
<g id="a_edge8_Node000002_Node000009"><a xlink:title=" ">
<path fill="none" stroke="#63b8ff" d="M405.77,-109.75C411.09,-102.34 418.86,-91.5 425.38,-82.41"/>
<polygon fill="#63b8ff" stroke="#63b8ff" points="428.36,-84.26 431.34,-74.09 422.67,-80.18 428.36,-84.26"/>
</a>
</g>
</g>
<!-- Node10 -->
<g id="Node000010" class="node">
<title>Node10</title>
<g id="a_Node000010"><a xlink:title=" ">
<polygon fill="#e0e0e0" stroke="#999999" points="552.5,-74 480.5,-74 480.5,-55 552.5,-55 552.5,-74"/>
<text text-anchor="middle" x="516.5" y="-62" font-family="Helvetica,sans-Serif" font-size="10.00">commctrl.h</text>
</a>
</g>
</g>
<!-- Node2&#45;&gt;Node10 -->
<g id="edge9_Node000002_Node000010" class="edge">
<title>Node2&#45;&gt;Node10</title>
<g id="a_edge9_Node000002_Node000010"><a xlink:title=" ">
<path fill="none" stroke="#63b8ff" d="M418.3,-109.98C437.12,-101.46 466.32,-88.23 488,-78.41"/>
<polygon fill="#63b8ff" stroke="#63b8ff" points="489.7,-81.48 497.36,-74.17 486.81,-75.11 489.7,-81.48"/>
</a>
</g>
</g>
<!-- Node11 -->
<g id="Node000011" class="node">
<title>Node11</title>
<g id="a_Node000011"><a xlink:title=" ">
<polygon fill="#e0e0e0" stroke="#999999" points="692.5,-74 648.5,-74 648.5,-55 692.5,-55 692.5,-74"/>
<text text-anchor="middle" x="670.5" y="-62" font-family="Helvetica,sans-Serif" font-size="10.00">string</text>
</a>
</g>
</g>
<!-- Node2&#45;&gt;Node11 -->
<g id="edge10_Node000002_Node000011" class="edge">
<title>Node2&#45;&gt;Node11</title>
<g id="a_edge10_Node000002_Node000011"><a xlink:title=" ">
<path fill="none" stroke="#63b8ff" d="M439.21,-112.19C484.92,-104.7 562.46,-91.28 638.04,-74.18"/>
<polygon fill="#63b8ff" stroke="#63b8ff" points="639.24,-77.5 648.21,-71.85 637.68,-70.67 639.24,-77.5"/>
</a>
</g>
</g>
<!-- Node12 -->
<g id="Node000012" class="node">
<title>Node12</title>
<g id="a_Node000012"><a xlink:title=" ">
<polygon fill="#e0e0e0" stroke="#999999" points="630.5,-74 570.5,-74 570.5,-55 630.5,-55 630.5,-74"/>
<text text-anchor="middle" x="600.5" y="-62" font-family="Helvetica,sans-Serif" font-size="10.00">iostream</text>
</a>
</g>
</g>
<!-- Node2&#45;&gt;Node12 -->
<g id="edge11_Node000002_Node000012" class="edge">
<title>Node2&#45;&gt;Node12</title>
<g id="a_edge11_Node000002_Node000012"><a xlink:title=" ">
<path fill="none" stroke="#63b8ff" d="M431.79,-109.98C466.69,-100.78 522.35,-86.11 560.11,-76.15"/>
<polygon fill="#63b8ff" stroke="#63b8ff" points="561.48,-79.41 570.26,-73.47 559.7,-72.64 561.48,-79.41"/>
</a>
</g>
</g>
<!-- Node4 -->
<g id="Node000004" class="node">
<title>Node4</title>
<g id="a_Node000004"><a xlink:title=" ">
<polygon fill="#e0e0e0" stroke="#999999" points="83,-19 0,-19 0,0 83,0 83,-19"/>
<text text-anchor="middle" x="41.5" y="-7" font-family="Helvetica,sans-Serif" font-size="10.00">SDKDDKVer.h</text>
</a>
</g>
</g>
<!-- Node3&#45;&gt;Node4 -->
<g id="edge3_Node000003_Node000004" class="edge">
<title>Node3&#45;&gt;Node4</title>
<g id="a_edge3_Node000003_Node000004"><a xlink:title=" ">
<path fill="none" stroke="#63b8ff" d="M41.5,-54.75C41.5,-47.8 41.5,-37.85 41.5,-29.13"/>
<polygon fill="#63b8ff" stroke="#63b8ff" points="45,-29.09 41.5,-19.09 38,-29.09 45,-29.09"/>
</a>
</g>
</g>
<!-- Node14 -->
<g id="Node000014" class="node">
<title>Node14</title>
<g id="a_Node000014"><a xlink:title=" ">
<polygon fill="#e0e0e0" stroke="#999999" points="371.5,-239 303.5,-239 303.5,-220 371.5,-220 371.5,-239"/>
<text text-anchor="middle" x="337.5" y="-227" font-family="Helvetica,sans-Serif" font-size="10.00">resource.h</text>
</a>
</g>
</g>
<!-- Node13&#45;&gt;Node14 -->
<g id="edge13_Node000013_Node000014" class="edge">
<title>Node13&#45;&gt;Node14</title>
<g id="a_edge13_Node000013_Node000014"><a xlink:title=" ">
<path fill="none" stroke="#63b8ff" d="M354.2,-274.75C351.52,-267.65 347.65,-257.4 344.31,-248.56"/>
<polygon fill="#63b8ff" stroke="#63b8ff" points="347.55,-247.21 340.74,-239.09 341,-249.68 347.55,-247.21"/>
</a>
</g>
</g>
<!-- Node15&#45;&gt;Node2 -->
<g id="edge15_Node000015_Node000002" class="edge">
<title>Node15&#45;&gt;Node2</title>
<g id="a_edge15_Node000015_Node000002"><a xlink:title=" ">
<path fill="none" stroke="#63b8ff" d="M484.69,-274.91C466.71,-267.98 444.19,-256.47 430.5,-239 407.41,-209.54 401.42,-164.56 399.93,-139.34"/>
<polygon fill="#63b8ff" stroke="#63b8ff" points="403.42,-139.11 399.51,-129.27 396.43,-139.4 403.42,-139.11"/>
</a>
</g>
</g>
<!-- Node16 -->
<g id="Node000016" class="node">
<title>Node16</title>
<g id="a_Node000016"><a xlink:href="MainWindow_8h.html" target="_top" xlink:title="Déclaration de la fenêtre principale de l&#39;application.">
<polygon fill="white" stroke="#666666" points="585.5,-239 439.5,-239 439.5,-220 585.5,-220 585.5,-239"/>
<text text-anchor="middle" x="512.5" y="-227" font-family="Helvetica,sans-Serif" font-size="10.00">Engine/HMI/MainWindow.h</text>
</a>
</g>
</g>
<!-- Node15&#45;&gt;Node16 -->
<g id="edge16_Node000015_Node000016" class="edge">
<title>Node15&#45;&gt;Node16</title>
<g id="a_edge16_Node000015_Node000016"><a xlink:title=" ">
<path fill="none" stroke="#63b8ff" d="M512.5,-274.75C512.5,-267.8 512.5,-257.85 512.5,-249.13"/>
<polygon fill="#63b8ff" stroke="#63b8ff" points="516,-249.09 512.5,-239.09 509,-249.09 516,-249.09"/>
</a>
</g>
</g>
<!-- Node19 -->
<g id="Node000019" class="node">
<title>Node19</title>
<g id="a_Node000019"><a xlink:title=" ">
<polygon fill="#e0e0e0" stroke="#999999" points="661.5,-239 603.5,-239 603.5,-220 661.5,-220 661.5,-239"/>
<text text-anchor="middle" x="632.5" y="-227" font-family="Helvetica,sans-Serif" font-size="10.00">memory</text>
</a>
</g>
</g>
<!-- Node15&#45;&gt;Node19 -->
<g id="edge22_Node000015_Node000019" class="edge">
<title>Node15&#45;&gt;Node19</title>
<g id="a_edge22_Node000015_Node000019"><a xlink:title=" ">
<path fill="none" stroke="#63b8ff" d="M531.78,-274.98C551.17,-266.42 581.31,-253.11 603.57,-243.28"/>
<polygon fill="#63b8ff" stroke="#63b8ff" points="605.14,-246.41 612.87,-239.17 602.31,-240.01 605.14,-246.41"/>
</a>
</g>
</g>
<!-- Node16&#45;&gt;Node2 -->
<g id="edge17_Node000016_Node000002" class="edge">
<title>Node16&#45;&gt;Node2</title>
<g id="a_edge17_Node000016_Node000002"><a xlink:title=" ">
<path fill="none" stroke="#63b8ff" d="M500.44,-219.84C488.77,-211.25 470.78,-197.45 456.5,-184 440.58,-169 424.06,-150.18 412.93,-136.94"/>
<polygon fill="#63b8ff" stroke="#63b8ff" points="415.53,-134.59 406.46,-129.13 410.15,-139.06 415.53,-134.59"/>
</a>
</g>
</g>
<!-- Node17 -->
<g id="Node000017" class="node">
<title>Node17</title>
<g id="a_Node000017"><a xlink:href="GeoParsingTask_8h.html" target="_top" xlink:title="Déclaration de la tâche de parsing GeoJSON asynchrone.">
<polygon fill="white" stroke="#666666" points="611.5,-184 465.5,-184 465.5,-165 611.5,-165 611.5,-184"/>
<text text-anchor="middle" x="538.5" y="-172" font-family="Helvetica,sans-Serif" font-size="10.00">Modules/GeoParsingTask.h</text>
</a>
</g>
</g>
<!-- Node16&#45;&gt;Node17 -->
<g id="edge18_Node000016_Node000017" class="edge">
<title>Node16&#45;&gt;Node17</title>
<g id="a_edge18_Node000016_Node000017"><a xlink:title=" ">
<path fill="none" stroke="#63b8ff" d="M516.79,-219.75C520.31,-212.57 525.41,-202.18 529.78,-193.27"/>
<polygon fill="#63b8ff" stroke="#63b8ff" points="533.02,-194.61 534.29,-184.09 526.74,-191.53 533.02,-194.61"/>
</a>
</g>
</g>
<!-- Node18 -->
<g id="Node000018" class="node">
<title>Node18</title>
<g id="a_Node000018"><a xlink:href="ProgressBar_8h.html" target="_top" xlink:title="Wrapper minimaliste d&#39;une ProgressBar Win32.">
<polygon fill="white" stroke="#666666" points="771.5,-184 629.5,-184 629.5,-165 771.5,-165 771.5,-184"/>
<text text-anchor="middle" x="700.5" y="-172" font-family="Helvetica,sans-Serif" font-size="10.00">Engine/HMI/ProgressBar.h</text>
</a>
</g>
</g>
<!-- Node16&#45;&gt;Node18 -->
<g id="edge21_Node000016_Node000018" class="edge">
<title>Node16&#45;&gt;Node18</title>
<g id="a_edge21_Node000016_Node000018"><a xlink:title=" ">
<path fill="none" stroke="#63b8ff" d="M542.71,-219.98C574.54,-211.01 624.86,-196.82 660.1,-186.89"/>
<polygon fill="#63b8ff" stroke="#63b8ff" points="661.38,-190.16 670.06,-184.08 659.48,-183.43 661.38,-190.16"/>
</a>
</g>
</g>
<!-- Node17&#45;&gt;Node2 -->
<g id="edge19_Node000017_Node000002" class="edge">
<title>Node17&#45;&gt;Node2</title>
<g id="a_edge19_Node000017_Node000002"><a xlink:title=" ">
<path fill="none" stroke="#63b8ff" d="M516.17,-164.98C493.3,-156.27 457.54,-142.63 431.64,-132.75"/>
<polygon fill="#63b8ff" stroke="#63b8ff" points="432.83,-129.46 422.24,-129.17 430.34,-136 432.83,-129.46"/>
</a>
</g>
</g>
<!-- Node17&#45;&gt;Node11 -->
<g id="edge20_Node000017_Node000011" class="edge">
<title>Node17&#45;&gt;Node11</title>
<g id="a_edge20_Node000017_Node000011"><a xlink:title=" ">
<path fill="none" stroke="#63b8ff" d="M549.3,-164.66C571.85,-146.22 624.12,-103.45 652.08,-80.57"/>
<polygon fill="#63b8ff" stroke="#63b8ff" points="654.39,-83.2 659.92,-74.16 649.96,-77.78 654.39,-83.2"/>
</a>
</g>
</g>
</g>
</svg>
