<?xml version="1.0" encoding="UTF-8" standalone="no"?>
<!DOCTYPE svg PUBLIC "-//W3C//DTD SVG 1.1//EN"
 "http://www.w3.org/Graphics/SVG/1.1/DTD/svg11.dtd">
<!-- Generated by graphviz version 2.43.0 (0)
 -->
<!-- Title: SimulateurFerroviaire/Modules/InteractiveElements/ShuntingElements/StraightBlock.h Pages: 1 -->
<svg width="432pt" height="236pt"
 viewBox="0.00 0.00 431.50 236.00" xmlns="http://www.w3.org/2000/svg" xmlns:xlink="http://www.w3.org/1999/xlink">
<g id="graph0" class="graph" transform="scale(1 1) rotate(0) translate(4 232)">
<title>SimulateurFerroviaire/Modules/InteractiveElements/ShuntingElements/StraightBlock.h</title>
<!-- Node1 -->
<g id="Node000001" class="node">
<title>Node1</title>
<g id="a_Node000001"><a xlink:title="Modèle de domaine d&#39;un bloc de voie droite (Straight).">
<polygon fill="#999999" stroke="#666666" points="228.5,-228 43.5,-228 43.5,-187 228.5,-187 228.5,-228"/>
<text text-anchor="start" x="51.5" y="-216" font-family="Helvetica,sans-Serif" font-size="10.00">SimulateurFerroviaire</text>
<text text-anchor="start" x="51.5" y="-205" font-family="Helvetica,sans-Serif" font-size="10.00">/Modules/InteractiveElements</text>
<text text-anchor="middle" x="136" y="-194" font-family="Helvetica,sans-Serif" font-size="10.00">/ShuntingElements/StraightBlock.h</text>
</a>
</g>
</g>
<!-- Node2 -->
<g id="Node000002" class="node">
<title>Node2</title>
<g id="a_Node000002"><a xlink:title=" ">
<polygon fill="#e0e0e0" stroke="#999999" points="56,-145.5 0,-145.5 0,-126.5 56,-126.5 56,-145.5"/>
<text text-anchor="middle" x="28" y="-133.5" font-family="Helvetica,sans-Serif" font-size="10.00">sstream</text>
</a>
</g>
</g>
<!-- Node1&#45;&gt;Node2 -->
<g id="edge1_Node000001_Node000002" class="edge">
<title>Node1&#45;&gt;Node2</title>
<g id="a_edge1_Node000001_Node000002"><a xlink:title=" ">
<path fill="none" stroke="#63b8ff" d="M105.63,-186.96C87.9,-175.54 65.93,-161.41 49.89,-151.09"/>
<polygon fill="#63b8ff" stroke="#63b8ff" points="51.52,-147.97 41.21,-145.5 47.73,-153.86 51.52,-147.97"/>
</a>
</g>
</g>
<!-- Node3 -->
<g id="Node000003" class="node">
<title>Node3</title>
<g id="a_Node000003"><a xlink:title=" ">
<polygon fill="#e0e0e0" stroke="#999999" points="159,-19 115,-19 115,0 159,0 159,-19"/>
<text text-anchor="middle" x="137" y="-7" font-family="Helvetica,sans-Serif" font-size="10.00">string</text>
</a>
</g>
</g>
<!-- Node1&#45;&gt;Node3 -->
<g id="edge2_Node000001_Node000003" class="edge">
<title>Node1&#45;&gt;Node3</title>
<g id="a_edge2_Node000001_Node000003"><a xlink:title=" ">
<path fill="none" stroke="#63b8ff" d="M121.26,-186.81C114.58,-176.68 107.42,-163.79 104,-151 92.22,-107 113.81,-54.65 127.32,-27.99"/>
<polygon fill="#63b8ff" stroke="#63b8ff" points="130.44,-29.58 132.01,-19.1 124.25,-26.31 130.44,-29.58"/>
</a>
</g>
</g>
<!-- Node4 -->
<g id="Node000004" class="node">
<title>Node4</title>
<g id="a_Node000004"><a xlink:title=" ">
<polygon fill="#e0e0e0" stroke="#999999" points="159.5,-145.5 112.5,-145.5 112.5,-126.5 159.5,-126.5 159.5,-145.5"/>
<text text-anchor="middle" x="136" y="-133.5" font-family="Helvetica,sans-Serif" font-size="10.00">vector</text>
</a>
</g>
</g>
<!-- Node1&#45;&gt;Node4 -->
<g id="edge3_Node000001_Node000004" class="edge">
<title>Node1&#45;&gt;Node4</title>
<g id="a_edge3_Node000001_Node000004"><a xlink:title=" ">
<path fill="none" stroke="#63b8ff" d="M136,-186.77C136,-177.08 136,-165.46 136,-155.88"/>
<polygon fill="#63b8ff" stroke="#63b8ff" points="139.5,-155.82 136,-145.82 132.5,-155.82 139.5,-155.82"/>
</a>
</g>
</g>
<!-- Node5 -->
<g id="Node000005" class="node">
<title>Node5</title>
<g id="a_Node000005"><a xlink:href="ShuntingElement_8h.html" target="_top" xlink:title="Interface abstraite pour tous les éléments de shuntage ferroviaire.">
<polygon fill="white" stroke="#666666" points="286.5,-145.5 177.5,-145.5 177.5,-126.5 286.5,-126.5 286.5,-145.5"/>
<text text-anchor="middle" x="232" y="-133.5" font-family="Helvetica,sans-Serif" font-size="10.00">ShuntingElement.h</text>
</a>
</g>
</g>
<!-- Node1&#45;&gt;Node5 -->
<g id="edge4_Node000001_Node000005" class="edge">
<title>Node1&#45;&gt;Node5</title>
<g id="a_edge4_Node000001_Node000005"><a xlink:title=" ">
<path fill="none" stroke="#63b8ff" d="M163,-186.96C178.61,-175.65 197.92,-161.67 212.14,-151.38"/>
<polygon fill="#63b8ff" stroke="#63b8ff" points="214.21,-154.2 220.25,-145.5 210.1,-148.53 214.21,-154.2"/>
</a>
</g>
</g>
<!-- Node7 -->
<g id="Node000007" class="node">
<title>Node7</title>
<g id="a_Node000007"><a xlink:href="LatLon_8h.html" target="_top" xlink:title="Représentation d&#39;une coordonnée géographique WGS&#45;84 (latitude, longitude).">
<polygon fill="white" stroke="#666666" points="423.5,-151 304.5,-151 304.5,-121 423.5,-121 423.5,-151"/>
<text text-anchor="start" x="312.5" y="-139" font-family="Helvetica,sans-Serif" font-size="10.00">Modules/Coordinates</text>
<text text-anchor="middle" x="364" y="-128" font-family="Helvetica,sans-Serif" font-size="10.00">/LatLon.h</text>
</a>
</g>
</g>
<!-- Node1&#45;&gt;Node7 -->
<g id="edge7_Node000001_Node000007" class="edge">
<title>Node1&#45;&gt;Node7</title>
<g id="a_edge7_Node000001_Node000007"><a xlink:title=" ">
<path fill="none" stroke="#63b8ff" d="M200.12,-186.96C234.14,-176.59 275.54,-163.97 308.22,-154"/>
<polygon fill="#63b8ff" stroke="#63b8ff" points="309.51,-157.27 318.06,-151 307.47,-150.57 309.51,-157.27"/>
</a>
</g>
</g>
<!-- Node6 -->
<g id="Node000006" class="node">
<title>Node6</title>
<g id="a_Node000006"><a xlink:href="InteractiveElement_8h.html" target="_top" xlink:title="Classe de base abstraite pour tous les éléments interactifs ferroviaires.">
<polygon fill="white" stroke="#666666" points="290.5,-85 131.5,-85 131.5,-55 290.5,-55 290.5,-85"/>
<text text-anchor="start" x="139.5" y="-73" font-family="Helvetica,sans-Serif" font-size="10.00">Modules/InteractiveElements</text>
<text text-anchor="middle" x="211" y="-62" font-family="Helvetica,sans-Serif" font-size="10.00">/InteractiveElement.h</text>
</a>
</g>
</g>
<!-- Node5&#45;&gt;Node6 -->
<g id="edge5_Node000005_Node000006" class="edge">
<title>Node5&#45;&gt;Node6</title>
<g id="a_edge5_Node000005_Node000006"><a xlink:title=" ">
<path fill="none" stroke="#63b8ff" d="M229.17,-126.37C226.53,-118.32 222.47,-105.94 218.85,-94.93"/>
<polygon fill="#63b8ff" stroke="#63b8ff" points="222.16,-93.77 215.71,-85.36 215.5,-95.95 222.16,-93.77"/>
</a>
</g>
</g>
<!-- Node6&#45;&gt;Node3 -->
<g id="edge6_Node000006_Node000003" class="edge">
<title>Node6&#45;&gt;Node3</title>
<g id="a_edge6_Node000006_Node000003"><a xlink:title=" ">
<path fill="none" stroke="#63b8ff" d="M193.09,-54.84C181.91,-46 167.52,-34.63 156.12,-25.62"/>
<polygon fill="#63b8ff" stroke="#63b8ff" points="158.1,-22.72 148.09,-19.27 153.76,-28.21 158.1,-22.72"/>
</a>
</g>
</g>
</g>
</svg>
