<?xml version="1.0" encoding="UTF-8" standalone="no"?>
<!DOCTYPE svg PUBLIC "-//W3C//DTD SVG 1.1//EN"
 "http://www.w3.org/Graphics/SVG/1.1/DTD/svg11.dtd">
<!-- Generated by graphviz version 2.43.0 (0)
 -->
<!-- Title: SimulateurFerroviaire/Modules/Models/StraightBlock.h Pages: 1 -->
<svg width="1300pt" height="269pt"
 viewBox="0.00 0.00 1299.50 269.00" xmlns="http://www.w3.org/2000/svg" xmlns:xlink="http://www.w3.org/1999/xlink">
<g id="graph0" class="graph" transform="scale(1 1) rotate(0) translate(4 265)">
<title>SimulateurFerroviaire/Modules/Models/StraightBlock.h</title>
<!-- Node1 -->
<g id="Node000001" class="node">
<title>Node1</title>
<g id="a_Node000001"><a xlink:title="Modèle de domaine d&#39;un bloc de voie droite (Straight).">
<polygon fill="#999999" stroke="#666666" points="846.5,-261 670.5,-261 670.5,-231 846.5,-231 846.5,-261"/>
<text text-anchor="start" x="678.5" y="-249" font-family="Helvetica,sans-Serif" font-size="10.00">SimulateurFerroviaire</text>
<text text-anchor="middle" x="758.5" y="-238" font-family="Helvetica,sans-Serif" font-size="10.00">/Modules/Models/StraightBlock.h</text>
</a>
</g>
</g>
<!-- Node2 -->
<g id="Node000002" class="node">
<title>Node2</title>
<g id="a_Node000002"><a xlink:href="GeoJsonExporter_8h.html" target="_top" xlink:title="Exporteur de topologie ferroviaire au format GeoJSON.">
<polygon fill="white" stroke="#666666" points="153,-118 8,-118 8,-77 153,-77 153,-118"/>
<text text-anchor="start" x="16" y="-106" font-family="Helvetica,sans-Serif" font-size="10.00">SimulateurFerroviaire</text>
<text text-anchor="start" x="16" y="-95" font-family="Helvetica,sans-Serif" font-size="10.00">/Modules/GeoJsonExporter</text>
<text text-anchor="middle" x="80.5" y="-84" font-family="Helvetica,sans-Serif" font-size="10.00">/GeoJsonExporter.h</text>
</a>
</g>
</g>
<!-- Node1&#45;&gt;Node2 -->
<g id="edge1_Node000001_Node000002" class="edge">
<title>Node1&#45;&gt;Node2</title>
<g id="a_edge1_Node000001_Node000002"><a xlink:title=" ">
<path fill="none" stroke="#63b8ff" d="M660.24,-240.76C532.02,-234.33 315.09,-220.11 239.5,-195 187.56,-177.74 134.7,-141.03 104.9,-118.2"/>
<polygon fill="#63b8ff" stroke="#63b8ff" points="660.3,-244.27 670.46,-241.27 660.64,-237.28 660.3,-244.27"/>
</a>
</g>
</g>
<!-- Node6 -->
<g id="Node000006" class="node">
<title>Node6</title>
<g id="a_Node000006"><a xlink:href="DoubleSwitchDetector_8h.html" target="_top" xlink:title="Phases 7 et 8 — détection des doubles aiguilles et validation CDC.">
<polygon fill="white" stroke="#666666" points="653,-195 470,-195 470,-154 653,-154 653,-195"/>
<text text-anchor="start" x="478" y="-183" font-family="Helvetica,sans-Serif" font-size="10.00">SimulateurFerroviaire</text>
<text text-anchor="start" x="478" y="-172" font-family="Helvetica,sans-Serif" font-size="10.00">/Modules/GeoParser/DoubleSwitch</text>
<text text-anchor="middle" x="561.5" y="-161" font-family="Helvetica,sans-Serif" font-size="10.00">Detector.h</text>
</a>
</g>
</g>
<!-- Node1&#45;&gt;Node6 -->
<g id="edge5_Node000001_Node000006" class="edge">
<title>Node1&#45;&gt;Node6</title>
<g id="a_edge5_Node000001_Node000006"><a xlink:title=" ">
<path fill="none" stroke="#63b8ff" d="M709.05,-227.55C681.04,-217.67 645.93,-205.28 616.98,-195.07"/>
<polygon fill="#63b8ff" stroke="#63b8ff" points="708.04,-230.91 718.63,-230.94 710.37,-224.31 708.04,-230.91"/>
</a>
</g>
</g>
<!-- Node8 -->
<g id="Node000008" class="node">
<title>Node8</title>
<g id="a_Node000008"><a xlink:href="GeoParser_8h.html" target="_top" xlink:title="Orchestrateur principal du pipeline GeoJSON ferroviaire.">
<polygon fill="white" stroke="#666666" points="845.5,-189.5 671.5,-189.5 671.5,-159.5 845.5,-159.5 845.5,-189.5"/>
<text text-anchor="start" x="679.5" y="-177.5" font-family="Helvetica,sans-Serif" font-size="10.00">SimulateurFerroviaire</text>
<text text-anchor="middle" x="758.5" y="-166.5" font-family="Helvetica,sans-Serif" font-size="10.00">/Modules/GeoParser/GeoParser.h</text>
</a>
</g>
</g>
<!-- Node1&#45;&gt;Node8 -->
<g id="edge8_Node000001_Node000008" class="edge">
<title>Node1&#45;&gt;Node8</title>
<g id="a_edge8_Node000001_Node000008"><a xlink:title=" ">
<path fill="none" stroke="#63b8ff" d="M758.5,-220.75C758.5,-210.31 758.5,-198.49 758.5,-189.54"/>
<polygon fill="#63b8ff" stroke="#63b8ff" points="755,-220.94 758.5,-230.94 762,-220.94 755,-220.94"/>
</a>
</g>
</g>
<!-- Node10 -->
<g id="Node000010" class="node">
<title>Node10</title>
<g id="a_Node000010"><a xlink:href="SwitchOrientator_8h.html" target="_top" xlink:title="Phases 6, 6b, 6c et 6d — orientation géométrique des aiguillages.">
<polygon fill="white" stroke="#666666" points="1285.5,-112.5 1079.5,-112.5 1079.5,-82.5 1285.5,-82.5 1285.5,-112.5"/>
<text text-anchor="start" x="1087.5" y="-100.5" font-family="Helvetica,sans-Serif" font-size="10.00">SimulateurFerroviaire</text>
<text text-anchor="middle" x="1182.5" y="-89.5" font-family="Helvetica,sans-Serif" font-size="10.00">/Modules/GeoParser/SwitchOrientator.h</text>
</a>
</g>
</g>
<!-- Node1&#45;&gt;Node10 -->
<g id="edge11_Node000001_Node000010" class="edge">
<title>Node1&#45;&gt;Node10</title>
<g id="a_edge11_Node000001_Node000010"><a xlink:title=" ">
<path fill="none" stroke="#63b8ff" d="M856.59,-242.17C911.22,-237.01 978.83,-224.46 1032.5,-195 1054.28,-183.05 1050.6,-168.87 1070.5,-154 1093.71,-136.66 1123.17,-122.31 1146.05,-112.55"/>
<polygon fill="#63b8ff" stroke="#63b8ff" points="856.2,-238.69 846.54,-243.05 856.81,-245.66 856.2,-238.69"/>
</a>
</g>
</g>
<!-- Node12 -->
<g id="Node000012" class="node">
<title>Node12</title>
<g id="a_Node000012"><a xlink:href="TopologyExtractor_8h.html" target="_top" xlink:title="Phases 3, 4, 5a et 5b — extraction de la topologie ferroviaire depuis le graphe.">
<polygon fill="white" stroke="#666666" points="1023.5,-195 863.5,-195 863.5,-154 1023.5,-154 1023.5,-195"/>
<text text-anchor="start" x="871.5" y="-183" font-family="Helvetica,sans-Serif" font-size="10.00">SimulateurFerroviaire</text>
<text text-anchor="start" x="871.5" y="-172" font-family="Helvetica,sans-Serif" font-size="10.00">/Modules/GeoParser/Topology</text>
<text text-anchor="middle" x="943.5" y="-161" font-family="Helvetica,sans-Serif" font-size="10.00">Extractor.h</text>
</a>
</g>
</g>
<!-- Node1&#45;&gt;Node12 -->
<g id="edge14_Node000001_Node000012" class="edge">
<title>Node1&#45;&gt;Node12</title>
<g id="a_edge14_Node000001_Node000012"><a xlink:title=" ">
<path fill="none" stroke="#63b8ff" d="M805.63,-227.29C831.82,-217.46 864.45,-205.2 891.4,-195.07"/>
<polygon fill="#63b8ff" stroke="#63b8ff" points="804.07,-224.14 795.94,-230.94 806.53,-230.7 804.07,-224.14"/>
</a>
</g>
</g>
<!-- Node14 -->
<g id="Node000014" class="node">
<title>Node14</title>
<g id="a_Node000014"><a xlink:href="StraightBlock_8cpp.html" target="_top" xlink:title="Implémentation du bloc de voie droite StraightBlock.">
<polygon fill="white" stroke="#666666" points="1267.5,-189.5 1079.5,-189.5 1079.5,-159.5 1267.5,-159.5 1267.5,-189.5"/>
<text text-anchor="start" x="1087.5" y="-177.5" font-family="Helvetica,sans-Serif" font-size="10.00">SimulateurFerroviaire</text>
<text text-anchor="middle" x="1173.5" y="-166.5" font-family="Helvetica,sans-Serif" font-size="10.00">/Modules/Models/StraightBlock.cpp</text>
</a>
</g>
</g>
<!-- Node1&#45;&gt;Node14 -->
<g id="edge18_Node000001_Node000014" class="edge">
<title>Node1&#45;&gt;Node14</title>
<g id="a_edge18_Node000001_Node000014"><a xlink:title=" ">
<path fill="none" stroke="#63b8ff" d="M856.47,-229.48C916.79,-219.82 995.67,-206.99 1065.5,-195 1075.64,-193.26 1086.31,-191.38 1096.83,-189.51"/>
<polygon fill="#63b8ff" stroke="#63b8ff" points="855.89,-226.03 846.57,-231.07 857,-232.94 855.89,-226.03"/>
</a>
</g>
</g>
<!-- Node15 -->
<g id="Node000015" class="node">
<title>Node15</title>
<g id="a_Node000015"><a xlink:href="TopologyData_8h.html" target="_top" xlink:title="Conteneur central des données topologiques ferroviaires.">
<polygon fill="white" stroke="#666666" points="426.5,-189.5 248.5,-189.5 248.5,-159.5 426.5,-159.5 426.5,-189.5"/>
<text text-anchor="start" x="256.5" y="-177.5" font-family="Helvetica,sans-Serif" font-size="10.00">SimulateurFerroviaire</text>
<text text-anchor="middle" x="337.5" y="-166.5" font-family="Helvetica,sans-Serif" font-size="10.00">/Modules/Models/TopologyData.h</text>
</a>
</g>
</g>
<!-- Node1&#45;&gt;Node15 -->
<g id="edge19_Node000001_Node000015" class="edge">
<title>Node1&#45;&gt;Node15</title>
<g id="a_edge19_Node000001_Node000015"><a xlink:title=" ">
<path fill="none" stroke="#63b8ff" d="M663.51,-229.32C591.05,-217.36 492.13,-201.03 422.31,-189.5"/>
<polygon fill="#63b8ff" stroke="#63b8ff" points="663.12,-232.8 673.56,-230.98 664.26,-225.9 663.12,-232.8"/>
</a>
</g>
</g>
<!-- Node3 -->
<g id="Node000003" class="node">
<title>Node3</title>
<g id="a_Node000003"><a xlink:href="MainWindow_8cpp.html" target="_top" xlink:title="Implémentation de la fenêtre principale.">
<polygon fill="white" stroke="#666666" points="161,-35.5 0,-35.5 0,-5.5 161,-5.5 161,-35.5"/>
<text text-anchor="start" x="8" y="-23.5" font-family="Helvetica,sans-Serif" font-size="10.00">SimulateurFerroviaire</text>
<text text-anchor="middle" x="80.5" y="-12.5" font-family="Helvetica,sans-Serif" font-size="10.00">/Engine/HMI/MainWindow.cpp</text>
</a>
</g>
</g>
<!-- Node2&#45;&gt;Node3 -->
<g id="edge2_Node000002_Node000003" class="edge">
<title>Node2&#45;&gt;Node3</title>
<g id="a_edge2_Node000002_Node000003"><a xlink:title=" ">
<path fill="none" stroke="#63b8ff" d="M80.5,-66.61C80.5,-56.01 80.5,-44.57 80.5,-35.86"/>
<polygon fill="#63b8ff" stroke="#63b8ff" points="77,-66.79 80.5,-76.79 84,-66.79 77,-66.79"/>
</a>
</g>
</g>
<!-- Node4 -->
<g id="Node000004" class="node">
<title>Node4</title>
<g id="a_Node000004"><a xlink:href="GeoJsonExporter_8cpp.html" target="_top" xlink:title="Implémentation de l&#39;exporteur GeoJSON.">
<polygon fill="white" stroke="#666666" points="336,-41 191,-41 191,0 336,0 336,-41"/>
<text text-anchor="start" x="199" y="-29" font-family="Helvetica,sans-Serif" font-size="10.00">SimulateurFerroviaire</text>
<text text-anchor="start" x="199" y="-18" font-family="Helvetica,sans-Serif" font-size="10.00">/Modules/GeoJsonExporter</text>
<text text-anchor="middle" x="263.5" y="-7" font-family="Helvetica,sans-Serif" font-size="10.00">/GeoJsonExporter.cpp</text>
</a>
</g>
</g>
<!-- Node2&#45;&gt;Node4 -->
<g id="edge3_Node000002_Node000004" class="edge">
<title>Node2&#45;&gt;Node4</title>
<g id="a_edge3_Node000002_Node000004"><a xlink:title=" ">
<path fill="none" stroke="#63b8ff" d="M137.52,-73.13C162.66,-62.83 191.86,-50.86 215.82,-41.04"/>
<polygon fill="#63b8ff" stroke="#63b8ff" points="136.03,-69.96 128.1,-76.99 138.68,-76.44 136.03,-69.96"/>
</a>
</g>
</g>
<!-- Node5 -->
<g id="Node000005" class="node">
<title>Node5</title>
<g id="a_Node000005"><a xlink:href="GeoParser_8cpp.html" target="_top" xlink:title="Implémentation du pipeline GeoParser.">
<polygon fill="white" stroke="#666666" points="814,-35.5 629,-35.5 629,-5.5 814,-5.5 814,-35.5"/>
<text text-anchor="start" x="637" y="-23.5" font-family="Helvetica,sans-Serif" font-size="10.00">SimulateurFerroviaire</text>
<text text-anchor="middle" x="721.5" y="-12.5" font-family="Helvetica,sans-Serif" font-size="10.00">/Modules/GeoParser/GeoParser.cpp</text>
</a>
</g>
</g>
<!-- Node2&#45;&gt;Node5 -->
<g id="edge4_Node000002_Node000005" class="edge">
<title>Node2&#45;&gt;Node5</title>
<g id="a_edge4_Node000002_Node000005"><a xlink:title=" ">
<path fill="none" stroke="#63b8ff" d="M163.37,-76.98C332.75,-49.09 519.34,-34.09 628.51,-26.89"/>
<polygon fill="#63b8ff" stroke="#63b8ff" points="162.56,-73.56 153.27,-78.66 163.71,-80.47 162.56,-73.56"/>
</a>
</g>
</g>
<!-- Node6&#45;&gt;Node5 -->
<g id="edge7_Node000006_Node000005" class="edge">
<title>Node6&#45;&gt;Node5</title>
<g id="a_edge7_Node000006_Node000005"><a xlink:title=" ">
<path fill="none" stroke="#63b8ff" d="M576.53,-144.94C588.39,-124.31 606.42,-96.72 627.5,-77 645.91,-59.78 670.56,-45.47 690,-35.7"/>
<polygon fill="#63b8ff" stroke="#63b8ff" points="573.36,-143.45 571.53,-153.88 579.47,-146.87 573.36,-143.45"/>
</a>
</g>
</g>
<!-- Node7 -->
<g id="Node000007" class="node">
<title>Node7</title>
<g id="a_Node000007"><a xlink:href="DoubleSwitchDetector_8cpp.html" target="_top" xlink:title="Implémentation phases 7 et 8 — doubles aiguilles et validation CDC.">
<polygon fill="white" stroke="#666666" points="579,-118 396,-118 396,-77 579,-77 579,-118"/>
<text text-anchor="start" x="404" y="-106" font-family="Helvetica,sans-Serif" font-size="10.00">SimulateurFerroviaire</text>
<text text-anchor="start" x="404" y="-95" font-family="Helvetica,sans-Serif" font-size="10.00">/Modules/GeoParser/DoubleSwitch</text>
<text text-anchor="middle" x="487.5" y="-84" font-family="Helvetica,sans-Serif" font-size="10.00">Detector.cpp</text>
</a>
</g>
</g>
<!-- Node6&#45;&gt;Node7 -->
<g id="edge6_Node000006_Node000007" class="edge">
<title>Node6&#45;&gt;Node7</title>
<g id="a_edge6_Node000006_Node000007"><a xlink:title=" ">
<path fill="none" stroke="#63b8ff" d="M534.87,-146.51C525.6,-137.11 515.38,-126.76 506.81,-118.07"/>
<polygon fill="#63b8ff" stroke="#63b8ff" points="532.54,-149.13 542.06,-153.79 537.53,-144.22 532.54,-149.13"/>
</a>
</g>
</g>
<!-- Node8&#45;&gt;Node5 -->
<g id="edge9_Node000008_Node000005" class="edge">
<title>Node8&#45;&gt;Node5</title>
<g id="a_edge9_Node000008_Node000005"><a xlink:title=" ">
<path fill="none" stroke="#63b8ff" d="M788.37,-153.13C799.38,-143.84 810.6,-131.82 816.5,-118 823.66,-101.24 825.57,-92.8 816.5,-77 805.38,-57.62 784.58,-44.36 765.27,-35.68"/>
<polygon fill="#63b8ff" stroke="#63b8ff" points="786.12,-150.44 780.46,-159.4 790.47,-155.93 786.12,-150.44"/>
</a>
</g>
</g>
<!-- Node9 -->
<g id="Node000009" class="node">
<title>Node9</title>
<g id="a_Node000009"><a xlink:href="GeoParsingTask_8cpp.html" target="_top" xlink:title="Implémentation de la tâche de parsing GeoJSON asynchrone.">
<polygon fill="white" stroke="#666666" points="807,-118 636,-118 636,-77 807,-77 807,-118"/>
<text text-anchor="start" x="644" y="-106" font-family="Helvetica,sans-Serif" font-size="10.00">SimulateurFerroviaire</text>
<text text-anchor="start" x="644" y="-95" font-family="Helvetica,sans-Serif" font-size="10.00">/Modules/GeoParser/GeoParsing</text>
<text text-anchor="middle" x="721.5" y="-84" font-family="Helvetica,sans-Serif" font-size="10.00">Task.cpp</text>
</a>
</g>
</g>
<!-- Node8&#45;&gt;Node9 -->
<g id="edge10_Node000008_Node000009" class="edge">
<title>Node8&#45;&gt;Node9</title>
<g id="a_edge10_Node000008_Node000009"><a xlink:title=" ">
<path fill="none" stroke="#63b8ff" d="M747,-150.19C741.94,-139.93 736.06,-128.01 731.22,-118.2"/>
<polygon fill="#63b8ff" stroke="#63b8ff" points="743.98,-151.97 751.54,-159.39 750.26,-148.88 743.98,-151.97"/>
</a>
</g>
</g>
<!-- Node10&#45;&gt;Node5 -->
<g id="edge12_Node000010_Node000005" class="edge">
<title>Node10&#45;&gt;Node5</title>
<g id="a_edge12_Node000010_Node000005"><a xlink:title=" ">
<path fill="none" stroke="#63b8ff" d="M1092.78,-80.76C1085.24,-79.47 1077.74,-78.21 1070.5,-77 982.75,-62.38 882.44,-46.52 811.95,-35.51"/>
<polygon fill="#63b8ff" stroke="#63b8ff" points="1092.23,-84.22 1102.68,-82.46 1093.42,-77.32 1092.23,-84.22"/>
</a>
</g>
</g>
<!-- Node11 -->
<g id="Node000011" class="node">
<title>Node11</title>
<g id="a_Node000011"><a xlink:href="SwitchOrientator_8cpp.html" target="_top" xlink:title="Implémentation des phases 6, 6b, 6c et 6d — orientation des aiguillages.">
<polygon fill="white" stroke="#666666" points="1291.5,-35.5 1073.5,-35.5 1073.5,-5.5 1291.5,-5.5 1291.5,-35.5"/>
<text text-anchor="start" x="1081.5" y="-23.5" font-family="Helvetica,sans-Serif" font-size="10.00">SimulateurFerroviaire</text>
<text text-anchor="middle" x="1182.5" y="-12.5" font-family="Helvetica,sans-Serif" font-size="10.00">/Modules/GeoParser/SwitchOrientator.cpp</text>
</a>
</g>
</g>
<!-- Node10&#45;&gt;Node11 -->
<g id="edge13_Node000010_Node000011" class="edge">
<title>Node10&#45;&gt;Node11</title>
<g id="a_edge13_Node000010_Node000011"><a xlink:title=" ">
<path fill="none" stroke="#63b8ff" d="M1182.5,-72.04C1182.5,-59.95 1182.5,-45.79 1182.5,-35.54"/>
<polygon fill="#63b8ff" stroke="#63b8ff" points="1179,-72.39 1182.5,-82.39 1186,-72.39 1179,-72.39"/>
</a>
</g>
</g>
<!-- Node12&#45;&gt;Node5 -->
<g id="edge15_Node000012_Node000005" class="edge">
<title>Node12&#45;&gt;Node5</title>
<g id="a_edge15_Node000012_Node000005"><a xlink:title=" ">
<path fill="none" stroke="#63b8ff" d="M916.73,-146.44C895.41,-125.8 864.14,-97.52 833.5,-77 808.8,-60.46 778.46,-45.73 755.59,-35.6"/>
<polygon fill="#63b8ff" stroke="#63b8ff" points="914.52,-149.18 924.12,-153.67 919.42,-144.17 914.52,-149.18"/>
</a>
</g>
</g>
<!-- Node12&#45;&gt;Node10 -->
<g id="edge16_Node000012_Node000010" class="edge">
<title>Node12&#45;&gt;Node10</title>
<g id="a_edge16_Node000012_Node000010"><a xlink:title=" ">
<path fill="none" stroke="#63b8ff" d="M1015.32,-150.96C1055.06,-138.49 1103.22,-123.38 1137.62,-112.58"/>
<polygon fill="#63b8ff" stroke="#63b8ff" points="1014.16,-147.66 1005.67,-153.99 1016.26,-154.34 1014.16,-147.66"/>
</a>
</g>
</g>
<!-- Node13 -->
<g id="Node000013" class="node">
<title>Node13</title>
<g id="a_Node000013"><a xlink:href="TopologyExtractor_8cpp.html" target="_top" xlink:title="Implémentation des phases 3, 4, 5a et 5b du pipeline GeoParser.">
<polygon fill="white" stroke="#666666" points="1061.5,-118 901.5,-118 901.5,-77 1061.5,-77 1061.5,-118"/>
<text text-anchor="start" x="909.5" y="-106" font-family="Helvetica,sans-Serif" font-size="10.00">SimulateurFerroviaire</text>
<text text-anchor="start" x="909.5" y="-95" font-family="Helvetica,sans-Serif" font-size="10.00">/Modules/GeoParser/Topology</text>
<text text-anchor="middle" x="981.5" y="-84" font-family="Helvetica,sans-Serif" font-size="10.00">Extractor.cpp</text>
</a>
</g>
</g>
<!-- Node12&#45;&gt;Node13 -->
<g id="edge17_Node000012_Node000013" class="edge">
<title>Node12&#45;&gt;Node13</title>
<g id="a_edge17_Node000012_Node000013"><a xlink:title=" ">
<path fill="none" stroke="#63b8ff" d="M958.03,-144.83C962.56,-135.89 967.45,-126.24 971.58,-118.07"/>
<polygon fill="#63b8ff" stroke="#63b8ff" points="954.88,-143.29 953.48,-153.79 961.13,-146.46 954.88,-143.29"/>
</a>
</g>
</g>
<!-- Node16 -->
<g id="Node000016" class="node">
<title>Node16</title>
<g id="a_Node000016"><a xlink:href="TopologyRepository_8h.html" target="_top" xlink:title="Singleton de stockage des données topologiques ferroviaires.">
<polygon fill="white" stroke="#666666" points="377.5,-112.5 171.5,-112.5 171.5,-82.5 377.5,-82.5 377.5,-112.5"/>
<text text-anchor="start" x="179.5" y="-100.5" font-family="Helvetica,sans-Serif" font-size="10.00">SimulateurFerroviaire</text>
<text text-anchor="middle" x="274.5" y="-89.5" font-family="Helvetica,sans-Serif" font-size="10.00">/Modules/Models/TopologyRepository.h</text>
</a>
</g>
</g>
<!-- Node15&#45;&gt;Node16 -->
<g id="edge20_Node000015_Node000016" class="edge">
<title>Node15&#45;&gt;Node16</title>
<g id="a_edge20_Node000015_Node000016"><a xlink:title=" ">
<path fill="none" stroke="#63b8ff" d="M319.1,-151.6C308.51,-138.99 295.52,-123.53 286.3,-112.54"/>
<polygon fill="#63b8ff" stroke="#63b8ff" points="316.54,-153.99 325.65,-159.39 321.9,-149.48 316.54,-153.99"/>
</a>
</g>
</g>
<!-- Node16&#45;&gt;Node4 -->
<g id="edge21_Node000016_Node000004" class="edge">
<title>Node16&#45;&gt;Node4</title>
<g id="a_edge21_Node000016_Node000004"><a xlink:title=" ">
<path fill="none" stroke="#63b8ff" d="M270.94,-72.23C269.47,-62.2 267.78,-50.71 266.39,-41.2"/>
<polygon fill="#63b8ff" stroke="#63b8ff" points="267.52,-73.01 272.43,-82.39 274.44,-71.99 267.52,-73.01"/>
</a>
</g>
</g>
<!-- Node16&#45;&gt;Node5 -->
<g id="edge22_Node000016_Node000005" class="edge">
<title>Node16&#45;&gt;Node5</title>
<g id="a_edge22_Node000016_Node000005"><a xlink:title=" ">
<path fill="none" stroke="#63b8ff" d="M364.69,-80.73C372.07,-79.46 379.41,-78.2 386.5,-77 471.21,-62.61 568.05,-46.61 635.75,-35.51"/>
<polygon fill="#63b8ff" stroke="#63b8ff" points="363.89,-77.32 354.63,-82.47 365.08,-84.22 363.89,-77.32"/>
</a>
</g>
</g>
</g>
</svg>
