<?xml version="1.0" encoding="UTF-8" standalone="no"?>
<!DOCTYPE svg PUBLIC "-//W3C//DTD SVG 1.1//EN"
 "http://www.w3.org/Graphics/SVG/1.1/DTD/svg11.dtd">
<!-- Generated by graphviz version 2.43.0 (0)
 -->
<!-- Title: SimulateurFerroviaire/Modules/Models/StraightBlock.h Pages: 1 -->
<svg width="896pt" height="258pt"
 viewBox="0.00 0.00 896.14 258.00" xmlns="http://www.w3.org/2000/svg" xmlns:xlink="http://www.w3.org/1999/xlink">
<g id="graph0" class="graph" transform="scale(1 1) rotate(0) translate(4 254)">
<title>SimulateurFerroviaire/Modules/Models/StraightBlock.h</title>
<!-- Node1 -->
<g id="Node000001" class="node">
<title>Node1</title>
<g id="a_Node000001"><a xlink:title="Modèle de domaine d&#39;un bloc de voie droite (Straight).">
<polygon fill="#999999" stroke="#666666" points="652.14,-250 476.14,-250 476.14,-220 652.14,-220 652.14,-250"/>
<text text-anchor="start" x="484.14" y="-238" font-family="Helvetica,sans-Serif" font-size="10.00">SimulateurFerroviaire</text>
<text text-anchor="middle" x="564.14" y="-227" font-family="Helvetica,sans-Serif" font-size="10.00">/Modules/Models/StraightBlock.h</text>
</a>
</g>
</g>
<!-- Node2 -->
<g id="Node000002" class="node">
<title>Node2</title>
<g id="a_Node000002"><a xlink:href="DoubleSwitchDetector_8h.html" target="_top" xlink:title="Phases 7 et 8 — détection des doubles aiguilles et validation CDC.">
<polygon fill="white" stroke="#666666" points="465.64,-184 282.64,-184 282.64,-143 465.64,-143 465.64,-184"/>
<text text-anchor="start" x="290.64" y="-172" font-family="Helvetica,sans-Serif" font-size="10.00">SimulateurFerroviaire</text>
<text text-anchor="start" x="290.64" y="-161" font-family="Helvetica,sans-Serif" font-size="10.00">/Modules/GeoParser/DoubleSwitch</text>
<text text-anchor="middle" x="374.14" y="-150" font-family="Helvetica,sans-Serif" font-size="10.00">Detector.h</text>
</a>
</g>
</g>
<!-- Node1&#45;&gt;Node2 -->
<g id="edge1_Node000001_Node000002" class="edge">
<title>Node1&#45;&gt;Node2</title>
<g id="a_edge1_Node000001_Node000002"><a xlink:title=" ">
<path fill="none" stroke="#63b8ff" d="M516.08,-216.42C489.13,-206.56 455.44,-194.24 427.65,-184.07"/>
<polygon fill="#63b8ff" stroke="#63b8ff" points="515.09,-219.79 525.69,-219.94 517.5,-213.21 515.09,-219.79"/>
</a>
</g>
</g>
<!-- Node5 -->
<g id="Node000005" class="node">
<title>Node5</title>
<g id="a_Node000005"><a xlink:href="GeoParser_8h.html" target="_top" xlink:title="Orchestrateur principal du pipeline GeoJSON ferroviaire.">
<polygon fill="white" stroke="#666666" points="190.14,-178.5 16.14,-178.5 16.14,-148.5 190.14,-148.5 190.14,-178.5"/>
<text text-anchor="start" x="24.14" y="-166.5" font-family="Helvetica,sans-Serif" font-size="10.00">SimulateurFerroviaire</text>
<text text-anchor="middle" x="103.14" y="-155.5" font-family="Helvetica,sans-Serif" font-size="10.00">/Modules/GeoParser/GeoParser.h</text>
</a>
</g>
</g>
<!-- Node1&#45;&gt;Node5 -->
<g id="edge4_Node000001_Node000005" class="edge">
<title>Node1&#45;&gt;Node5</title>
<g id="a_edge4_Node000001_Node000005"><a xlink:title=" ">
<path fill="none" stroke="#63b8ff" d="M465.78,-219.17C384.09,-206.86 268.98,-189.5 190.5,-177.67"/>
<polygon fill="#63b8ff" stroke="#63b8ff" points="465.66,-222.69 476.07,-220.72 466.7,-215.77 465.66,-222.69"/>
</a>
</g>
</g>
<!-- Node7 -->
<g id="Node000007" class="node">
<title>Node7</title>
<g id="a_Node000007"><a xlink:href="SwitchOrientator_8h.html" target="_top" xlink:title="Phases 6, 6b et 6c — orientation géométrique des aiguillages.">
<polygon fill="white" stroke="#666666" points="868.14,-101.5 662.14,-101.5 662.14,-71.5 868.14,-71.5 868.14,-101.5"/>
<text text-anchor="start" x="670.14" y="-89.5" font-family="Helvetica,sans-Serif" font-size="10.00">SimulateurFerroviaire</text>
<text text-anchor="middle" x="765.14" y="-78.5" font-family="Helvetica,sans-Serif" font-size="10.00">/Modules/GeoParser/SwitchOrientator.h</text>
</a>
</g>
</g>
<!-- Node1&#45;&gt;Node7 -->
<g id="edge7_Node000001_Node000007" class="edge">
<title>Node1&#45;&gt;Node7</title>
<g id="a_edge7_Node000001_Node000007"><a xlink:title=" ">
<path fill="none" stroke="#63b8ff" d="M603.61,-215.23C619.69,-206.73 638.01,-195.92 653.14,-184 672.65,-168.62 672.68,-159.63 691.14,-143 708.08,-127.73 728.99,-112.33 744.26,-101.63"/>
<polygon fill="#63b8ff" stroke="#63b8ff" points="601.73,-212.26 594.44,-219.95 604.94,-218.48 601.73,-212.26"/>
</a>
</g>
</g>
<!-- Node9 -->
<g id="Node000009" class="node">
<title>Node9</title>
<g id="a_Node000009"><a xlink:href="TopologyExtractor_8h.html" target="_top" xlink:title="Phases 3, 4, 5a et 5b — extraction de la topologie ferroviaire depuis le graphe.">
<polygon fill="white" stroke="#666666" points="644.14,-184 484.14,-184 484.14,-143 644.14,-143 644.14,-184"/>
<text text-anchor="start" x="492.14" y="-172" font-family="Helvetica,sans-Serif" font-size="10.00">SimulateurFerroviaire</text>
<text text-anchor="start" x="492.14" y="-161" font-family="Helvetica,sans-Serif" font-size="10.00">/Modules/GeoParser/Topology</text>
<text text-anchor="middle" x="564.14" y="-150" font-family="Helvetica,sans-Serif" font-size="10.00">Extractor.h</text>
</a>
</g>
</g>
<!-- Node1&#45;&gt;Node9 -->
<g id="edge10_Node000001_Node000009" class="edge">
<title>Node1&#45;&gt;Node9</title>
<g id="a_edge10_Node000001_Node000009"><a xlink:title=" ">
<path fill="none" stroke="#63b8ff" d="M564.14,-209.91C564.14,-201.47 564.14,-192.1 564.14,-184.07"/>
<polygon fill="#63b8ff" stroke="#63b8ff" points="560.64,-209.94 564.14,-219.94 567.64,-209.94 560.64,-209.94"/>
</a>
</g>
</g>
<!-- Node11 -->
<g id="Node000011" class="node">
<title>Node11</title>
<g id="a_Node000011"><a xlink:href="StraightBlock_8cpp.html" target="_top" xlink:title="Implémentation du bloc de voie droite StraightBlock.">
<polygon fill="white" stroke="#666666" points="888.14,-178.5 700.14,-178.5 700.14,-148.5 888.14,-148.5 888.14,-178.5"/>
<text text-anchor="start" x="708.14" y="-166.5" font-family="Helvetica,sans-Serif" font-size="10.00">SimulateurFerroviaire</text>
<text text-anchor="middle" x="794.14" y="-155.5" font-family="Helvetica,sans-Serif" font-size="10.00">/Modules/Models/StraightBlock.cpp</text>
</a>
</g>
</g>
<!-- Node1&#45;&gt;Node11 -->
<g id="edge14_Node000001_Node000011" class="edge">
<title>Node1&#45;&gt;Node11</title>
<g id="a_edge14_Node000001_Node000011"><a xlink:title=" ">
<path fill="none" stroke="#63b8ff" d="M620.33,-217.02C659.41,-205.21 710.89,-189.65 747.66,-178.54"/>
<polygon fill="#63b8ff" stroke="#63b8ff" points="619.24,-213.69 610.68,-219.94 621.26,-220.39 619.24,-213.69"/>
</a>
</g>
</g>
<!-- Node3 -->
<g id="Node000003" class="node">
<title>Node3</title>
<g id="a_Node000003"><a xlink:href="DoubleSwitchDetector_8cpp.html" target="_top" xlink:title="Implémentation phases 7 et 8 — doubles aiguilles et validation CDC.">
<polygon fill="white" stroke="#666666" points="389.64,-107 206.64,-107 206.64,-66 389.64,-66 389.64,-107"/>
<text text-anchor="start" x="214.64" y="-95" font-family="Helvetica,sans-Serif" font-size="10.00">SimulateurFerroviaire</text>
<text text-anchor="start" x="214.64" y="-84" font-family="Helvetica,sans-Serif" font-size="10.00">/Modules/GeoParser/DoubleSwitch</text>
<text text-anchor="middle" x="298.14" y="-73" font-family="Helvetica,sans-Serif" font-size="10.00">Detector.cpp</text>
</a>
</g>
</g>
<!-- Node2&#45;&gt;Node3 -->
<g id="edge2_Node000002_Node000003" class="edge">
<title>Node2&#45;&gt;Node3</title>
<g id="a_edge2_Node000002_Node000003"><a xlink:title=" ">
<path fill="none" stroke="#63b8ff" d="M346.79,-135.51C337.26,-126.11 326.77,-115.76 317.97,-107.07"/>
<polygon fill="#63b8ff" stroke="#63b8ff" points="344.59,-138.26 354.17,-142.79 349.51,-133.28 344.59,-138.26"/>
</a>
</g>
</g>
<!-- Node4 -->
<g id="Node000004" class="node">
<title>Node4</title>
<g id="a_Node000004"><a xlink:href="GeoParser_8cpp.html" target="_top" xlink:title="Implémentation du pipeline GeoParser.">
<polygon fill="white" stroke="#666666" points="529.64,-30 344.64,-30 344.64,0 529.64,0 529.64,-30"/>
<text text-anchor="start" x="352.64" y="-18" font-family="Helvetica,sans-Serif" font-size="10.00">SimulateurFerroviaire</text>
<text text-anchor="middle" x="437.14" y="-7" font-family="Helvetica,sans-Serif" font-size="10.00">/Modules/GeoParser/GeoParser.cpp</text>
</a>
</g>
</g>
<!-- Node2&#45;&gt;Node4 -->
<g id="edge3_Node000002_Node000004" class="edge">
<title>Node2&#45;&gt;Node4</title>
<g id="a_edge3_Node000002_Node000004"><a xlink:title=" ">
<path fill="none" stroke="#63b8ff" d="M386.6,-133.73C390.32,-125.13 394.4,-115.69 398.14,-107 409.83,-79.85 423.41,-48.1 431.07,-30.19"/>
<polygon fill="#63b8ff" stroke="#63b8ff" points="383.35,-132.42 382.59,-142.99 389.78,-135.2 383.35,-132.42"/>
</a>
</g>
</g>
<!-- Node5&#45;&gt;Node4 -->
<g id="edge5_Node000005_Node000004" class="edge">
<title>Node5&#45;&gt;Node4</title>
<g id="a_edge5_Node000005_Node000004"><a xlink:title=" ">
<path fill="none" stroke="#63b8ff" d="M50.25,-143.91C33.8,-135.35 17.52,-123.35 8.14,-107 -0.94,-91.2 -3.98,-79.61 8.14,-66 30.1,-41.32 225.17,-26.92 344.57,-20.35"/>
<polygon fill="#63b8ff" stroke="#63b8ff" points="48.84,-147.12 59.37,-148.32 51.89,-140.82 48.84,-147.12"/>
</a>
</g>
</g>
<!-- Node6 -->
<g id="Node000006" class="node">
<title>Node6</title>
<g id="a_Node000006"><a xlink:href="GeoParsingTask_8cpp.html" target="_top" xlink:title="Implémentation de la tâche de parsing GeoJSON asynchrone.">
<polygon fill="white" stroke="#666666" points="188.64,-107 17.64,-107 17.64,-66 188.64,-66 188.64,-107"/>
<text text-anchor="start" x="25.64" y="-95" font-family="Helvetica,sans-Serif" font-size="10.00">SimulateurFerroviaire</text>
<text text-anchor="start" x="25.64" y="-84" font-family="Helvetica,sans-Serif" font-size="10.00">/Modules/GeoParser/GeoParsing</text>
<text text-anchor="middle" x="103.14" y="-73" font-family="Helvetica,sans-Serif" font-size="10.00">Task.cpp</text>
</a>
</g>
</g>
<!-- Node5&#45;&gt;Node6 -->
<g id="edge6_Node000005_Node000006" class="edge">
<title>Node5&#45;&gt;Node6</title>
<g id="a_edge6_Node000005_Node000006"><a xlink:title=" ">
<path fill="none" stroke="#63b8ff" d="M103.14,-138.23C103.14,-128.2 103.14,-116.71 103.14,-107.2"/>
<polygon fill="#63b8ff" stroke="#63b8ff" points="99.64,-138.39 103.14,-148.39 106.64,-138.39 99.64,-138.39"/>
</a>
</g>
</g>
<!-- Node7&#45;&gt;Node4 -->
<g id="edge8_Node000007_Node000004" class="edge">
<title>Node7&#45;&gt;Node4</title>
<g id="a_edge8_Node000007_Node000004"><a xlink:title=" ">
<path fill="none" stroke="#63b8ff" d="M688.86,-69.34C632.69,-57.44 557.07,-41.41 503.41,-30.04"/>
<polygon fill="#63b8ff" stroke="#63b8ff" points="688.25,-72.79 698.76,-71.44 689.7,-65.94 688.25,-72.79"/>
</a>
</g>
</g>
<!-- Node8 -->
<g id="Node000008" class="node">
<title>Node8</title>
<g id="a_Node000008"><a xlink:href="SwitchOrientator_8cpp.html" target="_top" xlink:title="Implémentation des phases 6, 6b et 6c — orientation des aiguillages.">
<polygon fill="white" stroke="#666666" points="874.14,-30 656.14,-30 656.14,0 874.14,0 874.14,-30"/>
<text text-anchor="start" x="664.14" y="-18" font-family="Helvetica,sans-Serif" font-size="10.00">SimulateurFerroviaire</text>
<text text-anchor="middle" x="765.14" y="-7" font-family="Helvetica,sans-Serif" font-size="10.00">/Modules/GeoParser/SwitchOrientator.cpp</text>
</a>
</g>
</g>
<!-- Node7&#45;&gt;Node8 -->
<g id="edge9_Node000007_Node000008" class="edge">
<title>Node7&#45;&gt;Node8</title>
<g id="a_edge9_Node000007_Node000008"><a xlink:title=" ">
<path fill="none" stroke="#63b8ff" d="M765.14,-61.25C765.14,-50.81 765.14,-38.99 765.14,-30.04"/>
<polygon fill="#63b8ff" stroke="#63b8ff" points="761.64,-61.44 765.14,-71.44 768.64,-61.44 761.64,-61.44"/>
</a>
</g>
</g>
<!-- Node9&#45;&gt;Node4 -->
<g id="edge11_Node000009_Node000004" class="edge">
<title>Node9&#45;&gt;Node4</title>
<g id="a_edge11_Node000009_Node000004"><a xlink:title=" ">
<path fill="none" stroke="#63b8ff" d="M512.38,-137.64C498.94,-129.34 485.39,-119.07 475.14,-107 455.51,-83.91 444.86,-49.25 440.15,-30.05"/>
<polygon fill="#63b8ff" stroke="#63b8ff" points="510.76,-140.75 521.15,-142.82 514.31,-134.72 510.76,-140.75"/>
</a>
</g>
</g>
<!-- Node9&#45;&gt;Node7 -->
<g id="edge12_Node000009_Node000007" class="edge">
<title>Node9&#45;&gt;Node7</title>
<g id="a_edge12_Node000009_Node000007"><a xlink:title=" ">
<path fill="none" stroke="#63b8ff" d="M626.02,-139.41C659.15,-127.05 698.89,-112.22 727.39,-101.58"/>
<polygon fill="#63b8ff" stroke="#63b8ff" points="624.57,-136.22 616.42,-142.99 627.01,-142.77 624.57,-136.22"/>
</a>
</g>
</g>
<!-- Node10 -->
<g id="Node000010" class="node">
<title>Node10</title>
<g id="a_Node000010"><a xlink:href="TopologyExtractor_8cpp.html" target="_top" xlink:title="Implémentation des phases 3, 4, 5a et 5b du pipeline GeoParser.">
<polygon fill="white" stroke="#666666" points="644.14,-107 484.14,-107 484.14,-66 644.14,-66 644.14,-107"/>
<text text-anchor="start" x="492.14" y="-95" font-family="Helvetica,sans-Serif" font-size="10.00">SimulateurFerroviaire</text>
<text text-anchor="start" x="492.14" y="-84" font-family="Helvetica,sans-Serif" font-size="10.00">/Modules/GeoParser/Topology</text>
<text text-anchor="middle" x="564.14" y="-73" font-family="Helvetica,sans-Serif" font-size="10.00">Extractor.cpp</text>
</a>
</g>
</g>
<!-- Node9&#45;&gt;Node10 -->
<g id="edge13_Node000009_Node000010" class="edge">
<title>Node9&#45;&gt;Node10</title>
<g id="a_edge13_Node000009_Node000010"><a xlink:title=" ">
<path fill="none" stroke="#63b8ff" d="M564.14,-132.69C564.14,-124.08 564.14,-114.9 564.14,-107.07"/>
<polygon fill="#63b8ff" stroke="#63b8ff" points="560.64,-132.79 564.14,-142.79 567.64,-132.79 560.64,-132.79"/>
</a>
</g>
</g>
</g>
</svg>
