<?xml version="1.0" encoding="UTF-8" standalone="no"?>
<!DOCTYPE svg PUBLIC "-//W3C//DTD SVG 1.1//EN"
 "http://www.w3.org/Graphics/SVG/1.1/DTD/svg11.dtd">
<!-- Generated by graphviz version 2.43.0 (0)
 -->
<!-- Title: SimulateurFerroviaire/Modules/InteractiveElements/ShuntingElements/StraightBlock.h Pages: 1 -->
<svg width="1421pt" height="357pt"
 viewBox="0.00 0.00 1421.00 357.00" xmlns="http://www.w3.org/2000/svg" xmlns:xlink="http://www.w3.org/1999/xlink">
<g id="graph0" class="graph" transform="scale(1 1) rotate(0) translate(4 353)">
<title>SimulateurFerroviaire/Modules/InteractiveElements/ShuntingElements/StraightBlock.h</title>
<!-- Node1 -->
<g id="Node000001" class="node">
<title>Node1</title>
<g id="a_Node000001"><a xlink:title="Modèle de domaine d&#39;un bloc de voie droite (Straight).">
<polygon fill="#999999" stroke="#666666" points="972.5,-349 787.5,-349 787.5,-308 972.5,-308 972.5,-349"/>
<text text-anchor="start" x="795.5" y="-337" font-family="Helvetica,sans-Serif" font-size="10.00">SimulateurFerroviaire</text>
<text text-anchor="start" x="795.5" y="-326" font-family="Helvetica,sans-Serif" font-size="10.00">/Modules/InteractiveElements</text>
<text text-anchor="middle" x="880" y="-315" font-family="Helvetica,sans-Serif" font-size="10.00">/ShuntingElements/StraightBlock.h</text>
</a>
</g>
</g>
<!-- Node2 -->
<g id="Node000002" class="node">
<title>Node2</title>
<g id="a_Node000002"><a xlink:href="TopologyData_8h.html" target="_top" xlink:title="Conteneur central des données topologiques ferroviaires.">
<polygon fill="white" stroke="#666666" points="429.5,-272 304.5,-272 304.5,-231 429.5,-231 429.5,-272"/>
<text text-anchor="start" x="312.5" y="-260" font-family="Helvetica,sans-Serif" font-size="10.00">SimulateurFerroviaire</text>
<text text-anchor="start" x="312.5" y="-249" font-family="Helvetica,sans-Serif" font-size="10.00">/Engine/Core/Topology</text>
<text text-anchor="middle" x="367" y="-238" font-family="Helvetica,sans-Serif" font-size="10.00">/TopologyData.h</text>
</a>
</g>
</g>
<!-- Node1&#45;&gt;Node2 -->
<g id="edge1_Node000001_Node000002" class="edge">
<title>Node1&#45;&gt;Node2</title>
<g id="a_edge1_Node000001_Node000002"><a xlink:title=" ">
<path fill="none" stroke="#63b8ff" d="M777.21,-312.47C673.4,-297.29 516.37,-274.34 429.8,-261.68"/>
<polygon fill="#63b8ff" stroke="#63b8ff" points="777,-315.98 787.4,-313.96 778.01,-309.05 777,-315.98"/>
</a>
</g>
</g>
<!-- Node10 -->
<g id="Node000010" class="node">
<title>Node10</title>
<g id="a_Node000010"><a xlink:href="TopologyRenderer_8h.html" target="_top" xlink:title="Exporteur de topologie ferroviaire au format GeoJSON.">
<polygon fill="white" stroke="#666666" points="499.5,-195 374.5,-195 374.5,-154 499.5,-154 499.5,-195"/>
<text text-anchor="start" x="382.5" y="-183" font-family="Helvetica,sans-Serif" font-size="10.00">SimulateurFerroviaire</text>
<text text-anchor="start" x="382.5" y="-172" font-family="Helvetica,sans-Serif" font-size="10.00">/Engine/Core/Topology</text>
<text text-anchor="middle" x="437" y="-161" font-family="Helvetica,sans-Serif" font-size="10.00">/TopologyRenderer.h</text>
</a>
</g>
</g>
<!-- Node1&#45;&gt;Node10 -->
<g id="edge9_Node000001_Node000010" class="edge">
<title>Node1&#45;&gt;Node10</title>
<g id="a_edge9_Node000001_Node000010"><a xlink:title=" ">
<path fill="none" stroke="#63b8ff" d="M777.33,-318.52C718.77,-310.92 644.94,-297.06 583,-272 535.68,-252.86 487.59,-217.28 460.12,-195.08"/>
<polygon fill="#63b8ff" stroke="#63b8ff" points="776.97,-322.01 787.33,-319.78 777.85,-315.06 776.97,-322.01"/>
</a>
</g>
</g>
<!-- Node11 -->
<g id="Node000011" class="node">
<title>Node11</title>
<g id="a_Node000011"><a xlink:href="DoubleSwitchDetector_8h.html" target="_top" xlink:title="Phases 7 et 8 — détection des doubles aiguilles et validation CDC.">
<polygon fill="white" stroke="#666666" points="774.5,-272 591.5,-272 591.5,-231 774.5,-231 774.5,-272"/>
<text text-anchor="start" x="599.5" y="-260" font-family="Helvetica,sans-Serif" font-size="10.00">SimulateurFerroviaire</text>
<text text-anchor="start" x="599.5" y="-249" font-family="Helvetica,sans-Serif" font-size="10.00">/Modules/GeoParser/DoubleSwitch</text>
<text text-anchor="middle" x="683" y="-238" font-family="Helvetica,sans-Serif" font-size="10.00">Detector.h</text>
</a>
</g>
</g>
<!-- Node1&#45;&gt;Node11 -->
<g id="edge13_Node000001_Node000011" class="edge">
<title>Node1&#45;&gt;Node11</title>
<g id="a_edge13_Node000001_Node000011"><a xlink:title=" ">
<path fill="none" stroke="#63b8ff" d="M819.33,-304.4C792.11,-294.04 760.35,-281.95 734.33,-272.04"/>
<polygon fill="#63b8ff" stroke="#63b8ff" points="818.16,-307.7 828.75,-307.99 820.65,-301.16 818.16,-307.7"/>
</a>
</g>
</g>
<!-- Node13 -->
<g id="Node000013" class="node">
<title>Node13</title>
<g id="a_Node000013"><a xlink:href="GeoParser_8h.html" target="_top" xlink:title="Orchestrateur principal du pipeline GeoJSON ferroviaire.">
<polygon fill="white" stroke="#666666" points="967,-266.5 793,-266.5 793,-236.5 967,-236.5 967,-266.5"/>
<text text-anchor="start" x="801" y="-254.5" font-family="Helvetica,sans-Serif" font-size="10.00">SimulateurFerroviaire</text>
<text text-anchor="middle" x="880" y="-243.5" font-family="Helvetica,sans-Serif" font-size="10.00">/Modules/GeoParser/GeoParser.h</text>
</a>
</g>
</g>
<!-- Node1&#45;&gt;Node13 -->
<g id="edge16_Node000001_Node000013" class="edge">
<title>Node1&#45;&gt;Node13</title>
<g id="a_edge16_Node000001_Node000013"><a xlink:title=" ">
<path fill="none" stroke="#63b8ff" d="M880,-297.61C880,-287.01 880,-275.57 880,-266.86"/>
<polygon fill="#63b8ff" stroke="#63b8ff" points="876.5,-297.79 880,-307.79 883.5,-297.79 876.5,-297.79"/>
</a>
</g>
</g>
<!-- Node15 -->
<g id="Node000015" class="node">
<title>Node15</title>
<g id="a_Node000015"><a xlink:href="SwitchOrientator_8h.html" target="_top" xlink:title="Phases 6, 6b, 6c et 6d — orientation géométrique des aiguillages.">
<polygon fill="white" stroke="#666666" points="1407,-189.5 1201,-189.5 1201,-159.5 1407,-159.5 1407,-189.5"/>
<text text-anchor="start" x="1209" y="-177.5" font-family="Helvetica,sans-Serif" font-size="10.00">SimulateurFerroviaire</text>
<text text-anchor="middle" x="1304" y="-166.5" font-family="Helvetica,sans-Serif" font-size="10.00">/Modules/GeoParser/SwitchOrientator.h</text>
</a>
</g>
</g>
<!-- Node1&#45;&gt;Node15 -->
<g id="edge19_Node000001_Node000015" class="edge">
<title>Node1&#45;&gt;Node15</title>
<g id="a_edge19_Node000001_Node000015"><a xlink:title=" ">
<path fill="none" stroke="#63b8ff" d="M982.94,-321.49C1036.64,-314.79 1101.83,-300.85 1154,-272 1176.01,-259.83 1172.78,-245.96 1193,-231 1216.21,-213.83 1245.53,-199.43 1268.21,-189.6"/>
<polygon fill="#63b8ff" stroke="#63b8ff" points="982.23,-318.05 972.7,-322.7 983.05,-325 982.23,-318.05"/>
</a>
</g>
</g>
<!-- Node17 -->
<g id="Node000017" class="node">
<title>Node17</title>
<g id="a_Node000017"><a xlink:href="TopologyExtractor_8h.html" target="_top" xlink:title="Phases 3, 4, 5a et 5b — extraction de la topologie ferroviaire depuis le graphe.">
<polygon fill="white" stroke="#666666" points="1145,-272 985,-272 985,-231 1145,-231 1145,-272"/>
<text text-anchor="start" x="993" y="-260" font-family="Helvetica,sans-Serif" font-size="10.00">SimulateurFerroviaire</text>
<text text-anchor="start" x="993" y="-249" font-family="Helvetica,sans-Serif" font-size="10.00">/Modules/GeoParser/Topology</text>
<text text-anchor="middle" x="1065" y="-238" font-family="Helvetica,sans-Serif" font-size="10.00">Extractor.h</text>
</a>
</g>
</g>
<!-- Node1&#45;&gt;Node17 -->
<g id="edge22_Node000001_Node000017" class="edge">
<title>Node1&#45;&gt;Node17</title>
<g id="a_edge22_Node000001_Node000017"><a xlink:title=" ">
<path fill="none" stroke="#63b8ff" d="M937.64,-304.13C963.05,-293.83 992.58,-281.86 1016.8,-272.04"/>
<polygon fill="#63b8ff" stroke="#63b8ff" points="936.08,-300.99 928.12,-307.99 938.71,-307.48 936.08,-300.99"/>
</a>
</g>
</g>
<!-- Node19 -->
<g id="Node000019" class="node">
<title>Node19</title>
<g id="a_Node000019"><a xlink:href="StraightBlock_8cpp.html" target="_top" xlink:title="Implémentation du bloc de voie droite StraightBlock.">
<polygon fill="white" stroke="#666666" points="1398.5,-272 1201.5,-272 1201.5,-231 1398.5,-231 1398.5,-272"/>
<text text-anchor="start" x="1209.5" y="-260" font-family="Helvetica,sans-Serif" font-size="10.00">SimulateurFerroviaire</text>
<text text-anchor="start" x="1209.5" y="-249" font-family="Helvetica,sans-Serif" font-size="10.00">/Modules/InteractiveElements</text>
<text text-anchor="middle" x="1300" y="-238" font-family="Helvetica,sans-Serif" font-size="10.00">/ShuntingElements/StraightBlock.cpp</text>
</a>
</g>
</g>
<!-- Node1&#45;&gt;Node19 -->
<g id="edge26_Node000001_Node000019" class="edge">
<title>Node1&#45;&gt;Node19</title>
<g id="a_edge26_Node000001_Node000019"><a xlink:title=" ">
<path fill="none" stroke="#63b8ff" d="M982.78,-309.15C1049.36,-297.26 1135.58,-281.86 1201.33,-270.12"/>
<polygon fill="#63b8ff" stroke="#63b8ff" points="981.92,-305.74 972.69,-310.95 983.15,-312.64 981.92,-305.74"/>
</a>
</g>
</g>
<!-- Node3 -->
<g id="Node000003" class="node">
<title>Node3</title>
<g id="a_Node000003"><a xlink:href="TopologyRepository_8h.html" target="_top" xlink:title="Singleton de stockage des données topologiques ferroviaires.">
<polygon fill="white" stroke="#666666" points="356.5,-195 231.5,-195 231.5,-154 356.5,-154 356.5,-195"/>
<text text-anchor="start" x="239.5" y="-183" font-family="Helvetica,sans-Serif" font-size="10.00">SimulateurFerroviaire</text>
<text text-anchor="start" x="239.5" y="-172" font-family="Helvetica,sans-Serif" font-size="10.00">/Engine/Core/Topology</text>
<text text-anchor="middle" x="294" y="-161" font-family="Helvetica,sans-Serif" font-size="10.00">/TopologyRepository.h</text>
</a>
</g>
</g>
<!-- Node2&#45;&gt;Node3 -->
<g id="edge2_Node000002_Node000003" class="edge">
<title>Node2&#45;&gt;Node3</title>
<g id="a_edge2_Node000002_Node000003"><a xlink:title=" ">
<path fill="none" stroke="#63b8ff" d="M340.73,-223.51C331.58,-214.11 321.5,-203.76 313.05,-195.07"/>
<polygon fill="#63b8ff" stroke="#63b8ff" points="338.34,-226.07 347.82,-230.79 343.35,-221.19 338.34,-226.07"/>
</a>
</g>
</g>
<!-- Node4 -->
<g id="Node000004" class="node">
<title>Node4</title>
<g id="a_Node000004"><a xlink:href="TopologyRenderer_8cpp.html" target="_top" xlink:title="Implémentation de l&#39;exporteur GeoJSON.">
<polygon fill="white" stroke="#666666" points="519.5,-118 392.5,-118 392.5,-77 519.5,-77 519.5,-118"/>
<text text-anchor="start" x="400.5" y="-106" font-family="Helvetica,sans-Serif" font-size="10.00">SimulateurFerroviaire</text>
<text text-anchor="start" x="400.5" y="-95" font-family="Helvetica,sans-Serif" font-size="10.00">/Engine/Core/Topology</text>
<text text-anchor="middle" x="456" y="-84" font-family="Helvetica,sans-Serif" font-size="10.00">/TopologyRenderer.cpp</text>
</a>
</g>
</g>
<!-- Node3&#45;&gt;Node4 -->
<g id="edge3_Node000003_Node000004" class="edge">
<title>Node3&#45;&gt;Node4</title>
<g id="a_edge3_Node000003_Node000004"><a xlink:title=" ">
<path fill="none" stroke="#63b8ff" d="M345.36,-149.72C367.41,-139.51 392.86,-127.73 413.79,-118.04"/>
<polygon fill="#63b8ff" stroke="#63b8ff" points="343.74,-146.61 336.14,-153.99 346.69,-152.97 343.74,-146.61"/>
</a>
</g>
</g>
<!-- Node5 -->
<g id="Node000005" class="node">
<title>Node5</title>
<g id="a_Node000005"><a xlink:href="MainWindow_8cpp.html" target="_top" xlink:title="Implémentation de la fenêtre principale.">
<polygon fill="white" stroke="#666666" points="374.5,-112.5 213.5,-112.5 213.5,-82.5 374.5,-82.5 374.5,-112.5"/>
<text text-anchor="start" x="221.5" y="-100.5" font-family="Helvetica,sans-Serif" font-size="10.00">SimulateurFerroviaire</text>
<text text-anchor="middle" x="294" y="-89.5" font-family="Helvetica,sans-Serif" font-size="10.00">/Engine/HMI/MainWindow.cpp</text>
</a>
</g>
</g>
<!-- Node3&#45;&gt;Node5 -->
<g id="edge4_Node000003_Node000005" class="edge">
<title>Node3&#45;&gt;Node5</title>
<g id="a_edge4_Node000003_Node000005"><a xlink:title=" ">
<path fill="none" stroke="#63b8ff" d="M294,-143.61C294,-133.01 294,-121.57 294,-112.86"/>
<polygon fill="#63b8ff" stroke="#63b8ff" points="290.5,-143.79 294,-153.79 297.5,-143.79 290.5,-143.79"/>
</a>
</g>
</g>
<!-- Node6 -->
<g id="Node000006" class="node">
<title>Node6</title>
<g id="a_Node000006"><a xlink:href="TCORenderer_8h.html" target="_top" xlink:title="Renderer GDI du schéma TCO (Tableau de Contrôle Optique) ferroviaire.">
<polygon fill="white" stroke="#666666" points="195,-118 71,-118 71,-77 195,-77 195,-118"/>
<text text-anchor="start" x="79" y="-106" font-family="Helvetica,sans-Serif" font-size="10.00">SimulateurFerroviaire</text>
<text text-anchor="start" x="79" y="-95" font-family="Helvetica,sans-Serif" font-size="10.00">/Engine/HMI/PCCPanel</text>
<text text-anchor="middle" x="133" y="-84" font-family="Helvetica,sans-Serif" font-size="10.00">/TCORenderer.h</text>
</a>
</g>
</g>
<!-- Node3&#45;&gt;Node6 -->
<g id="edge5_Node000003_Node000006" class="edge">
<title>Node3&#45;&gt;Node6</title>
<g id="a_edge5_Node000003_Node000006"><a xlink:title=" ">
<path fill="none" stroke="#63b8ff" d="M242.96,-149.72C221.04,-139.51 195.75,-127.73 174.95,-118.04"/>
<polygon fill="#63b8ff" stroke="#63b8ff" points="241.58,-152.94 252.12,-153.99 244.53,-146.6 241.58,-152.94"/>
</a>
</g>
</g>
<!-- Node9 -->
<g id="Node000009" class="node">
<title>Node9</title>
<g id="a_Node000009"><a xlink:href="GeoParser_8cpp.html" target="_top" xlink:title="Implémentation du pipeline GeoParser.">
<polygon fill="white" stroke="#666666" points="935.5,-112.5 750.5,-112.5 750.5,-82.5 935.5,-82.5 935.5,-112.5"/>
<text text-anchor="start" x="758.5" y="-100.5" font-family="Helvetica,sans-Serif" font-size="10.00">SimulateurFerroviaire</text>
<text text-anchor="middle" x="843" y="-89.5" font-family="Helvetica,sans-Serif" font-size="10.00">/Modules/GeoParser/GeoParser.cpp</text>
</a>
</g>
</g>
<!-- Node3&#45;&gt;Node9 -->
<g id="edge8_Node000003_Node000009" class="edge">
<title>Node3&#45;&gt;Node9</title>
<g id="a_edge8_Node000003_Node000009"><a xlink:title=" ">
<path fill="none" stroke="#63b8ff" d="M366.69,-154.02C505.68,-127.79 656.2,-112.89 750.49,-105.16"/>
<polygon fill="#63b8ff" stroke="#63b8ff" points="365.87,-150.61 356.7,-155.93 367.18,-157.49 365.87,-150.61"/>
</a>
</g>
</g>
<!-- Node7 -->
<g id="Node000007" class="node">
<title>Node7</title>
<g id="a_Node000007"><a xlink:href="PCCPanel_8cpp.html" target="_top" xlink:title="Implémentation du panneau PCC superposé togglable.">
<polygon fill="white" stroke="#666666" points="124,-41 0,-41 0,0 124,0 124,-41"/>
<text text-anchor="start" x="8" y="-29" font-family="Helvetica,sans-Serif" font-size="10.00">SimulateurFerroviaire</text>
<text text-anchor="start" x="8" y="-18" font-family="Helvetica,sans-Serif" font-size="10.00">/Engine/HMI/PCCPanel</text>
<text text-anchor="middle" x="62" y="-7" font-family="Helvetica,sans-Serif" font-size="10.00">/PCCPanel.cpp</text>
</a>
</g>
</g>
<!-- Node6&#45;&gt;Node7 -->
<g id="edge6_Node000006_Node000007" class="edge">
<title>Node6&#45;&gt;Node7</title>
<g id="a_edge6_Node000006_Node000007"><a xlink:title=" ">
<path fill="none" stroke="#63b8ff" d="M107.45,-69.51C98.55,-60.11 88.75,-49.76 80.53,-41.07"/>
<polygon fill="#63b8ff" stroke="#63b8ff" points="104.93,-71.94 114.35,-76.79 110.01,-67.13 104.93,-71.94"/>
</a>
</g>
</g>
<!-- Node8 -->
<g id="Node000008" class="node">
<title>Node8</title>
<g id="a_Node000008"><a xlink:href="TCORenderer_8cpp.html" target="_top" xlink:title="Implémentation du renderer GDI TCO.">
<polygon fill="white" stroke="#666666" points="266,-41 142,-41 142,0 266,0 266,-41"/>
<text text-anchor="start" x="150" y="-29" font-family="Helvetica,sans-Serif" font-size="10.00">SimulateurFerroviaire</text>
<text text-anchor="start" x="150" y="-18" font-family="Helvetica,sans-Serif" font-size="10.00">/Engine/HMI/PCCPanel</text>
<text text-anchor="middle" x="204" y="-7" font-family="Helvetica,sans-Serif" font-size="10.00">/TCORenderer.cpp</text>
</a>
</g>
</g>
<!-- Node6&#45;&gt;Node8 -->
<g id="edge7_Node000006_Node000008" class="edge">
<title>Node6&#45;&gt;Node8</title>
<g id="a_edge7_Node000006_Node000008"><a xlink:title=" ">
<path fill="none" stroke="#63b8ff" d="M158.55,-69.51C167.45,-60.11 177.25,-49.76 185.47,-41.07"/>
<polygon fill="#63b8ff" stroke="#63b8ff" points="155.99,-67.13 151.65,-76.79 161.07,-71.94 155.99,-67.13"/>
</a>
</g>
</g>
<!-- Node10&#45;&gt;Node4 -->
<g id="edge10_Node000010_Node000004" class="edge">
<title>Node10&#45;&gt;Node4</title>
<g id="a_edge10_Node000010_Node000004"><a xlink:title=" ">
<path fill="none" stroke="#63b8ff" d="M444.48,-143.98C446.68,-135.28 449.04,-125.98 451.04,-118.07"/>
<polygon fill="#63b8ff" stroke="#63b8ff" points="441.06,-143.24 441.99,-153.79 447.84,-144.96 441.06,-143.24"/>
</a>
</g>
</g>
<!-- Node10&#45;&gt;Node5 -->
<g id="edge11_Node000010_Node000005" class="edge">
<title>Node10&#45;&gt;Node5</title>
<g id="a_edge11_Node000010_Node000005"><a xlink:title=" ">
<path fill="none" stroke="#63b8ff" d="M390.86,-149.3C367.82,-137.22 340.74,-123.01 321.07,-112.7"/>
<polygon fill="#63b8ff" stroke="#63b8ff" points="389.32,-152.45 399.8,-153.99 392.57,-146.25 389.32,-152.45"/>
</a>
</g>
</g>
<!-- Node10&#45;&gt;Node9 -->
<g id="edge12_Node000010_Node000009" class="edge">
<title>Node10&#45;&gt;Node9</title>
<g id="a_edge12_Node000010_Node000009"><a xlink:title=" ">
<path fill="none" stroke="#63b8ff" d="M509.53,-153.99C596.67,-135.27 685.51,-120.95 750.38,-111.35"/>
<polygon fill="#63b8ff" stroke="#63b8ff" points="508.77,-150.57 499.74,-156.11 510.25,-157.41 508.77,-150.57"/>
</a>
</g>
</g>
<!-- Node11&#45;&gt;Node9 -->
<g id="edge15_Node000011_Node000009" class="edge">
<title>Node11&#45;&gt;Node9</title>
<g id="a_edge15_Node000011_Node000009"><a xlink:title=" ">
<path fill="none" stroke="#63b8ff" d="M698.03,-221.94C709.89,-201.31 727.92,-173.72 749,-154 767.41,-136.78 792.06,-122.47 811.5,-112.7"/>
<polygon fill="#63b8ff" stroke="#63b8ff" points="694.86,-220.45 693.03,-230.88 700.97,-223.87 694.86,-220.45"/>
</a>
</g>
</g>
<!-- Node12 -->
<g id="Node000012" class="node">
<title>Node12</title>
<g id="a_Node000012"><a xlink:href="DoubleSwitchDetector_8cpp.html" target="_top" xlink:title="Implémentation phases 7 et 8 — doubles aiguilles et validation CDC.">
<polygon fill="white" stroke="#666666" points="700.5,-195 517.5,-195 517.5,-154 700.5,-154 700.5,-195"/>
<text text-anchor="start" x="525.5" y="-183" font-family="Helvetica,sans-Serif" font-size="10.00">SimulateurFerroviaire</text>
<text text-anchor="start" x="525.5" y="-172" font-family="Helvetica,sans-Serif" font-size="10.00">/Modules/GeoParser/DoubleSwitch</text>
<text text-anchor="middle" x="609" y="-161" font-family="Helvetica,sans-Serif" font-size="10.00">Detector.cpp</text>
</a>
</g>
</g>
<!-- Node11&#45;&gt;Node12 -->
<g id="edge14_Node000011_Node000012" class="edge">
<title>Node11&#45;&gt;Node12</title>
<g id="a_edge14_Node000011_Node000012"><a xlink:title=" ">
<path fill="none" stroke="#63b8ff" d="M656.37,-223.51C647.1,-214.11 636.88,-203.76 628.31,-195.07"/>
<polygon fill="#63b8ff" stroke="#63b8ff" points="654.04,-226.13 663.56,-230.79 659.03,-221.22 654.04,-226.13"/>
</a>
</g>
</g>
<!-- Node13&#45;&gt;Node9 -->
<g id="edge17_Node000013_Node000009" class="edge">
<title>Node13&#45;&gt;Node9</title>
<g id="a_edge17_Node000013_Node000009"><a xlink:title=" ">
<path fill="none" stroke="#63b8ff" d="M909.87,-230.13C920.88,-220.84 932.1,-208.82 938,-195 945.16,-178.24 947.07,-169.8 938,-154 926.88,-134.62 906.08,-121.36 886.77,-112.68"/>
<polygon fill="#63b8ff" stroke="#63b8ff" points="907.62,-227.44 901.96,-236.4 911.97,-232.93 907.62,-227.44"/>
</a>
</g>
</g>
<!-- Node14 -->
<g id="Node000014" class="node">
<title>Node14</title>
<g id="a_Node000014"><a xlink:href="GeoParsingTask_8cpp.html" target="_top" xlink:title="Implémentation de la tâche de parsing GeoJSON asynchrone.">
<polygon fill="white" stroke="#666666" points="928.5,-195 757.5,-195 757.5,-154 928.5,-154 928.5,-195"/>
<text text-anchor="start" x="765.5" y="-183" font-family="Helvetica,sans-Serif" font-size="10.00">SimulateurFerroviaire</text>
<text text-anchor="start" x="765.5" y="-172" font-family="Helvetica,sans-Serif" font-size="10.00">/Modules/GeoParser/GeoParsing</text>
<text text-anchor="middle" x="843" y="-161" font-family="Helvetica,sans-Serif" font-size="10.00">Task.cpp</text>
</a>
</g>
</g>
<!-- Node13&#45;&gt;Node14 -->
<g id="edge18_Node000013_Node000014" class="edge">
<title>Node13&#45;&gt;Node14</title>
<g id="a_edge18_Node000013_Node000014"><a xlink:title=" ">
<path fill="none" stroke="#63b8ff" d="M868.5,-227.19C863.44,-216.93 857.56,-205.01 852.72,-195.2"/>
<polygon fill="#63b8ff" stroke="#63b8ff" points="865.48,-228.97 873.04,-236.39 871.76,-225.88 865.48,-228.97"/>
</a>
</g>
</g>
<!-- Node15&#45;&gt;Node9 -->
<g id="edge20_Node000015_Node000009" class="edge">
<title>Node15&#45;&gt;Node9</title>
<g id="a_edge20_Node000015_Node000009"><a xlink:title=" ">
<path fill="none" stroke="#63b8ff" d="M1214.28,-157.76C1206.74,-156.47 1199.24,-155.21 1192,-154 1104.25,-139.38 1003.94,-123.52 933.45,-112.51"/>
<polygon fill="#63b8ff" stroke="#63b8ff" points="1213.73,-161.22 1224.18,-159.46 1214.92,-154.32 1213.73,-161.22"/>
</a>
</g>
</g>
<!-- Node16 -->
<g id="Node000016" class="node">
<title>Node16</title>
<g id="a_Node000016"><a xlink:href="SwitchOrientator_8cpp.html" target="_top" xlink:title="Implémentation des phases 6, 6b, 6c et 6d — orientation des aiguillages.">
<polygon fill="white" stroke="#666666" points="1413,-112.5 1195,-112.5 1195,-82.5 1413,-82.5 1413,-112.5"/>
<text text-anchor="start" x="1203" y="-100.5" font-family="Helvetica,sans-Serif" font-size="10.00">SimulateurFerroviaire</text>
<text text-anchor="middle" x="1304" y="-89.5" font-family="Helvetica,sans-Serif" font-size="10.00">/Modules/GeoParser/SwitchOrientator.cpp</text>
</a>
</g>
</g>
<!-- Node15&#45;&gt;Node16 -->
<g id="edge21_Node000015_Node000016" class="edge">
<title>Node15&#45;&gt;Node16</title>
<g id="a_edge21_Node000015_Node000016"><a xlink:title=" ">
<path fill="none" stroke="#63b8ff" d="M1304,-149.04C1304,-136.95 1304,-122.79 1304,-112.54"/>
<polygon fill="#63b8ff" stroke="#63b8ff" points="1300.5,-149.39 1304,-159.39 1307.5,-149.39 1300.5,-149.39"/>
</a>
</g>
</g>
<!-- Node17&#45;&gt;Node9 -->
<g id="edge23_Node000017_Node000009" class="edge">
<title>Node17&#45;&gt;Node9</title>
<g id="a_edge23_Node000017_Node000009"><a xlink:title=" ">
<path fill="none" stroke="#63b8ff" d="M1038.23,-223.44C1016.91,-202.8 985.64,-174.52 955,-154 930.3,-137.46 899.96,-122.73 877.09,-112.6"/>
<polygon fill="#63b8ff" stroke="#63b8ff" points="1036.02,-226.18 1045.62,-230.67 1040.92,-221.17 1036.02,-226.18"/>
</a>
</g>
</g>
<!-- Node17&#45;&gt;Node15 -->
<g id="edge24_Node000017_Node000015" class="edge">
<title>Node17&#45;&gt;Node15</title>
<g id="a_edge24_Node000017_Node000015"><a xlink:title=" ">
<path fill="none" stroke="#63b8ff" d="M1136.82,-227.96C1176.56,-215.49 1224.72,-200.38 1259.12,-189.58"/>
<polygon fill="#63b8ff" stroke="#63b8ff" points="1135.66,-224.66 1127.17,-230.99 1137.76,-231.34 1135.66,-224.66"/>
</a>
</g>
</g>
<!-- Node18 -->
<g id="Node000018" class="node">
<title>Node18</title>
<g id="a_Node000018"><a xlink:href="TopologyExtractor_8cpp.html" target="_top" xlink:title="Implémentation des phases 3, 4, 5a et 5b du pipeline GeoParser.">
<polygon fill="white" stroke="#666666" points="1183,-195 1023,-195 1023,-154 1183,-154 1183,-195"/>
<text text-anchor="start" x="1031" y="-183" font-family="Helvetica,sans-Serif" font-size="10.00">SimulateurFerroviaire</text>
<text text-anchor="start" x="1031" y="-172" font-family="Helvetica,sans-Serif" font-size="10.00">/Modules/GeoParser/Topology</text>
<text text-anchor="middle" x="1103" y="-161" font-family="Helvetica,sans-Serif" font-size="10.00">Extractor.cpp</text>
</a>
</g>
</g>
<!-- Node17&#45;&gt;Node18 -->
<g id="edge25_Node000017_Node000018" class="edge">
<title>Node17&#45;&gt;Node18</title>
<g id="a_edge25_Node000017_Node000018"><a xlink:title=" ">
<path fill="none" stroke="#63b8ff" d="M1079.53,-221.83C1084.06,-212.89 1088.95,-203.24 1093.08,-195.07"/>
<polygon fill="#63b8ff" stroke="#63b8ff" points="1076.38,-220.29 1074.98,-230.79 1082.63,-223.46 1076.38,-220.29"/>
</a>
</g>
</g>
</g>
</svg>
