<?xml version="1.0" encoding="UTF-8" standalone="no"?>
<!DOCTYPE svg PUBLIC "-//W3C//DTD SVG 1.1//EN"
 "http://www.w3.org/Graphics/SVG/1.1/DTD/svg11.dtd">
<!-- Generated by graphviz version 2.43.0 (0)
 -->
<!-- Title: SimulateurFerroviaire/Modules/InteractiveElements/ShuntingElements/StraightBlock.h Pages: 1 -->
<svg width="1606pt" height="357pt"
 viewBox="0.00 0.00 1606.00 357.00" xmlns="http://www.w3.org/2000/svg" xmlns:xlink="http://www.w3.org/1999/xlink">
<g id="graph0" class="graph" transform="scale(1 1) rotate(0) translate(4 353)">
<title>SimulateurFerroviaire/Modules/InteractiveElements/ShuntingElements/StraightBlock.h</title>
<!-- Node1 -->
<g id="Node000001" class="node">
<title>Node1</title>
<g id="a_Node000001"><a xlink:title="Modèle de domaine d&#39;un bloc de voie droite (Straight).">
<polygon fill="#999999" stroke="#666666" points="1048.5,-349 863.5,-349 863.5,-308 1048.5,-308 1048.5,-349"/>
<text text-anchor="start" x="871.5" y="-337" font-family="Helvetica,sans-Serif" font-size="10.00">SimulateurFerroviaire</text>
<text text-anchor="start" x="871.5" y="-326" font-family="Helvetica,sans-Serif" font-size="10.00">/Modules/InteractiveElements</text>
<text text-anchor="middle" x="956" y="-315" font-family="Helvetica,sans-Serif" font-size="10.00">/ShuntingElements/StraightBlock.h</text>
</a>
</g>
</g>
<!-- Node2 -->
<g id="Node000002" class="node">
<title>Node2</title>
<g id="a_Node000002"><a xlink:href="TopologyData_8h.html" target="_top" xlink:title="Conteneur central des données topologiques ferroviaires.">
<polygon fill="white" stroke="#666666" points="384.5,-272 259.5,-272 259.5,-231 384.5,-231 384.5,-272"/>
<text text-anchor="start" x="267.5" y="-260" font-family="Helvetica,sans-Serif" font-size="10.00">SimulateurFerroviaire</text>
<text text-anchor="start" x="267.5" y="-249" font-family="Helvetica,sans-Serif" font-size="10.00">/Engine/Core/Topology</text>
<text text-anchor="middle" x="322" y="-238" font-family="Helvetica,sans-Serif" font-size="10.00">/TopologyData.h</text>
</a>
</g>
</g>
<!-- Node1&#45;&gt;Node2 -->
<g id="edge1_Node000001_Node000002" class="edge">
<title>Node1&#45;&gt;Node2</title>
<g id="a_edge1_Node000001_Node000002"><a xlink:title=" ">
<path fill="none" stroke="#63b8ff" d="M853.31,-315.35C720.82,-299.68 494.39,-272.89 384.93,-259.94"/>
<polygon fill="#63b8ff" stroke="#63b8ff" points="853.13,-318.86 863.47,-316.55 853.95,-311.9 853.13,-318.86"/>
</a>
</g>
</g>
<!-- Node10 -->
<g id="Node000010" class="node">
<title>Node10</title>
<g id="a_Node000010"><a xlink:href="TopologyRenderer_8h.html" target="_top" xlink:title="Exporteur de topologie ferroviaire au format GeoJSON.">
<polygon fill="white" stroke="#666666" points="482.5,-195 357.5,-195 357.5,-154 482.5,-154 482.5,-195"/>
<text text-anchor="start" x="365.5" y="-183" font-family="Helvetica,sans-Serif" font-size="10.00">SimulateurFerroviaire</text>
<text text-anchor="start" x="365.5" y="-172" font-family="Helvetica,sans-Serif" font-size="10.00">/Engine/Core/Topology</text>
<text text-anchor="middle" x="420" y="-161" font-family="Helvetica,sans-Serif" font-size="10.00">/TopologyRenderer.h</text>
</a>
</g>
</g>
<!-- Node1&#45;&gt;Node10 -->
<g id="edge9_Node000001_Node000010" class="edge">
<title>Node1&#45;&gt;Node10</title>
<g id="a_edge9_Node000001_Node000010"><a xlink:title=" ">
<path fill="none" stroke="#63b8ff" d="M853.08,-325.02C772.85,-320.22 659.87,-307.09 567,-272 518.74,-253.76 470.13,-217.55 442.67,-195.04"/>
<polygon fill="#63b8ff" stroke="#63b8ff" points="853.01,-328.52 863.19,-325.59 853.4,-321.53 853.01,-328.52"/>
</a>
</g>
</g>
<!-- Node11 -->
<g id="Node000011" class="node">
<title>Node11</title>
<g id="a_Node000011"><a xlink:href="DoubleSwitchDetector_8h.html" target="_top" xlink:title="Phases 7 et 8 — détection des doubles aiguilles et validation CDC.">
<polygon fill="white" stroke="#666666" points="758.5,-272 575.5,-272 575.5,-231 758.5,-231 758.5,-272"/>
<text text-anchor="start" x="583.5" y="-260" font-family="Helvetica,sans-Serif" font-size="10.00">SimulateurFerroviaire</text>
<text text-anchor="start" x="583.5" y="-249" font-family="Helvetica,sans-Serif" font-size="10.00">/Modules/GeoParser/DoubleSwitch</text>
<text text-anchor="middle" x="667" y="-238" font-family="Helvetica,sans-Serif" font-size="10.00">Detector.h</text>
</a>
</g>
</g>
<!-- Node1&#45;&gt;Node11 -->
<g id="edge13_Node000001_Node000011" class="edge">
<title>Node1&#45;&gt;Node11</title>
<g id="a_edge13_Node000001_Node000011"><a xlink:title=" ">
<path fill="none" stroke="#63b8ff" d="M870.9,-305.42C830.13,-294.84 781.72,-282.27 742.3,-272.04"/>
<polygon fill="#63b8ff" stroke="#63b8ff" points="870.26,-308.87 880.82,-307.99 872.02,-302.09 870.26,-308.87"/>
</a>
</g>
</g>
<!-- Node13 -->
<g id="Node000013" class="node">
<title>Node13</title>
<g id="a_Node000013"><a xlink:href="GeoParser_8h.html" target="_top" xlink:title="Orchestrateur principal du pipeline GeoJSON ferroviaire.">
<polygon fill="white" stroke="#666666" points="951,-266.5 777,-266.5 777,-236.5 951,-236.5 951,-266.5"/>
<text text-anchor="start" x="785" y="-254.5" font-family="Helvetica,sans-Serif" font-size="10.00">SimulateurFerroviaire</text>
<text text-anchor="middle" x="864" y="-243.5" font-family="Helvetica,sans-Serif" font-size="10.00">/Modules/GeoParser/GeoParser.h</text>
</a>
</g>
</g>
<!-- Node1&#45;&gt;Node13 -->
<g id="edge16_Node000001_Node000013" class="edge">
<title>Node1&#45;&gt;Node13</title>
<g id="a_edge16_Node000001_Node000013"><a xlink:title=" ">
<path fill="none" stroke="#63b8ff" d="M923.7,-301.17C909.44,-289.55 893.25,-276.34 881.33,-266.63"/>
<polygon fill="#63b8ff" stroke="#63b8ff" points="921.87,-304.19 931.83,-307.79 926.29,-298.76 921.87,-304.19"/>
</a>
</g>
</g>
<!-- Node15 -->
<g id="Node000015" class="node">
<title>Node15</title>
<g id="a_Node000015"><a xlink:href="SwitchOrientator_8h.html" target="_top" xlink:title="Phases 6, 6b, 6c et 6d — orientation géométrique des aiguillages.">
<polygon fill="white" stroke="#666666" points="1390,-189.5 1184,-189.5 1184,-159.5 1390,-159.5 1390,-189.5"/>
<text text-anchor="start" x="1192" y="-177.5" font-family="Helvetica,sans-Serif" font-size="10.00">SimulateurFerroviaire</text>
<text text-anchor="middle" x="1287" y="-166.5" font-family="Helvetica,sans-Serif" font-size="10.00">/Modules/GeoParser/SwitchOrientator.h</text>
</a>
</g>
</g>
<!-- Node1&#45;&gt;Node15 -->
<g id="edge19_Node000001_Node000015" class="edge">
<title>Node1&#45;&gt;Node15</title>
<g id="a_edge19_Node000001_Node000015"><a xlink:title=" ">
<path fill="none" stroke="#63b8ff" d="M1058.68,-306.18C1085.69,-297.96 1113.97,-286.84 1138,-272 1159.4,-258.79 1156.81,-246 1177,-231 1200.1,-213.85 1229.29,-199.4 1251.79,-189.55"/>
<polygon fill="#63b8ff" stroke="#63b8ff" points="1057.4,-302.91 1048.79,-309.09 1059.37,-309.63 1057.4,-302.91"/>
</a>
</g>
</g>
<!-- Node17 -->
<g id="Node000017" class="node">
<title>Node17</title>
<g id="a_Node000017"><a xlink:href="TopologyExtractor_8h.html" target="_top" xlink:title="Phases 3, 4, 5a et 5b — extraction de la topologie ferroviaire depuis le graphe.">
<polygon fill="white" stroke="#666666" points="1129,-272 969,-272 969,-231 1129,-231 1129,-272"/>
<text text-anchor="start" x="977" y="-260" font-family="Helvetica,sans-Serif" font-size="10.00">SimulateurFerroviaire</text>
<text text-anchor="start" x="977" y="-249" font-family="Helvetica,sans-Serif" font-size="10.00">/Modules/GeoParser/Topology</text>
<text text-anchor="middle" x="1049" y="-238" font-family="Helvetica,sans-Serif" font-size="10.00">Extractor.h</text>
</a>
</g>
</g>
<!-- Node1&#45;&gt;Node17 -->
<g id="edge22_Node000001_Node000017" class="edge">
<title>Node1&#45;&gt;Node17</title>
<g id="a_edge22_Node000001_Node000017"><a xlink:title=" ">
<path fill="none" stroke="#63b8ff" d="M988.43,-301.35C1000.35,-291.73 1013.64,-281.01 1024.73,-272.07"/>
<polygon fill="#63b8ff" stroke="#63b8ff" points="986.02,-298.79 980.43,-307.79 990.42,-304.24 986.02,-298.79"/>
</a>
</g>
</g>
<!-- Node19 -->
<g id="Node000019" class="node">
<title>Node19</title>
<g id="a_Node000019"><a xlink:href="StraightBlock_8cpp.html" target="_top" xlink:title="Implémentation du bloc de voie droite StraightBlock.">
<polygon fill="white" stroke="#666666" points="1382.5,-272 1185.5,-272 1185.5,-231 1382.5,-231 1382.5,-272"/>
<text text-anchor="start" x="1193.5" y="-260" font-family="Helvetica,sans-Serif" font-size="10.00">SimulateurFerroviaire</text>
<text text-anchor="start" x="1193.5" y="-249" font-family="Helvetica,sans-Serif" font-size="10.00">/Modules/InteractiveElements</text>
<text text-anchor="middle" x="1284" y="-238" font-family="Helvetica,sans-Serif" font-size="10.00">/ShuntingElements/StraightBlock.cpp</text>
</a>
</g>
</g>
<!-- Node1&#45;&gt;Node19 -->
<g id="edge26_Node000001_Node000019" class="edge">
<title>Node1&#45;&gt;Node19</title>
<g id="a_edge26_Node000001_Node000019"><a xlink:title=" ">
<path fill="none" stroke="#63b8ff" d="M1051.12,-305.75C1097.69,-295.1 1153.33,-282.38 1198.54,-272.04"/>
<polygon fill="#63b8ff" stroke="#63b8ff" points="1050.29,-302.35 1041.32,-307.99 1051.85,-309.17 1050.29,-302.35"/>
</a>
</g>
</g>
<!-- Node20 -->
<g id="Node000020" class="node">
<title>Node20</title>
<g id="a_Node000020"><a xlink:href="PCCStraightNode_8h.html" target="_top" xlink:title="Nœud PCC représentant un StraightBlock.">
<polygon fill="white" stroke="#666666" points="1585.5,-266.5 1406.5,-266.5 1406.5,-236.5 1585.5,-236.5 1585.5,-266.5"/>
<text text-anchor="start" x="1414.5" y="-254.5" font-family="Helvetica,sans-Serif" font-size="10.00">SimulateurFerroviaire</text>
<text text-anchor="middle" x="1496" y="-243.5" font-family="Helvetica,sans-Serif" font-size="10.00">/Modules/PCC/PCCStraightNode.h</text>
</a>
</g>
</g>
<!-- Node1&#45;&gt;Node20 -->
<g id="edge27_Node000001_Node000020" class="edge">
<title>Node1&#45;&gt;Node20</title>
<g id="a_edge27_Node000001_Node000020"><a xlink:title=" ">
<path fill="none" stroke="#63b8ff" d="M1058.55,-316.17C1147.06,-305.98 1278.23,-289.89 1392,-272 1402.43,-270.36 1413.43,-268.47 1424.2,-266.53"/>
<polygon fill="#63b8ff" stroke="#63b8ff" points="1058.04,-312.7 1048.51,-317.32 1058.84,-319.66 1058.04,-312.7"/>
</a>
</g>
</g>
<!-- Node3 -->
<g id="Node000003" class="node">
<title>Node3</title>
<g id="a_Node000003"><a xlink:href="TopologyRepository_8h.html" target="_top" xlink:title="Singleton de stockage des données topologiques ferroviaires.">
<polygon fill="white" stroke="#666666" points="339.5,-195 214.5,-195 214.5,-154 339.5,-154 339.5,-195"/>
<text text-anchor="start" x="222.5" y="-183" font-family="Helvetica,sans-Serif" font-size="10.00">SimulateurFerroviaire</text>
<text text-anchor="start" x="222.5" y="-172" font-family="Helvetica,sans-Serif" font-size="10.00">/Engine/Core/Topology</text>
<text text-anchor="middle" x="277" y="-161" font-family="Helvetica,sans-Serif" font-size="10.00">/TopologyRepository.h</text>
</a>
</g>
</g>
<!-- Node2&#45;&gt;Node3 -->
<g id="edge2_Node000002_Node000003" class="edge">
<title>Node2&#45;&gt;Node3</title>
<g id="a_edge2_Node000002_Node000003"><a xlink:title=" ">
<path fill="none" stroke="#63b8ff" d="M304.97,-222.11C299.56,-213.09 293.7,-203.33 288.74,-195.07"/>
<polygon fill="#63b8ff" stroke="#63b8ff" points="302.03,-224.02 310.18,-230.79 308.03,-220.42 302.03,-224.02"/>
</a>
</g>
</g>
<!-- Node4 -->
<g id="Node000004" class="node">
<title>Node4</title>
<g id="a_Node000004"><a xlink:href="TopologyRenderer_8cpp.html" target="_top" xlink:title="Implémentation de l&#39;exporteur GeoJSON.">
<polygon fill="white" stroke="#666666" points="340.5,-118 213.5,-118 213.5,-77 340.5,-77 340.5,-118"/>
<text text-anchor="start" x="221.5" y="-106" font-family="Helvetica,sans-Serif" font-size="10.00">SimulateurFerroviaire</text>
<text text-anchor="start" x="221.5" y="-95" font-family="Helvetica,sans-Serif" font-size="10.00">/Engine/Core/Topology</text>
<text text-anchor="middle" x="277" y="-84" font-family="Helvetica,sans-Serif" font-size="10.00">/TopologyRenderer.cpp</text>
</a>
</g>
</g>
<!-- Node3&#45;&gt;Node4 -->
<g id="edge3_Node000003_Node000004" class="edge">
<title>Node3&#45;&gt;Node4</title>
<g id="a_edge3_Node000003_Node000004"><a xlink:title=" ">
<path fill="none" stroke="#63b8ff" d="M277,-143.69C277,-135.08 277,-125.9 277,-118.07"/>
<polygon fill="#63b8ff" stroke="#63b8ff" points="273.5,-143.79 277,-153.79 280.5,-143.79 273.5,-143.79"/>
</a>
</g>
</g>
<!-- Node5 -->
<g id="Node000005" class="node">
<title>Node5</title>
<g id="a_Node000005"><a xlink:href="MainWindow_8cpp.html" target="_top" xlink:title="Implémentation de la fenêtre principale.">
<polygon fill="white" stroke="#666666" points="519.5,-112.5 358.5,-112.5 358.5,-82.5 519.5,-82.5 519.5,-112.5"/>
<text text-anchor="start" x="366.5" y="-100.5" font-family="Helvetica,sans-Serif" font-size="10.00">SimulateurFerroviaire</text>
<text text-anchor="middle" x="439" y="-89.5" font-family="Helvetica,sans-Serif" font-size="10.00">/Engine/HMI/MainWindow.cpp</text>
</a>
</g>
</g>
<!-- Node3&#45;&gt;Node5 -->
<g id="edge4_Node000003_Node000005" class="edge">
<title>Node3&#45;&gt;Node5</title>
<g id="a_edge4_Node000003_Node000005"><a xlink:title=" ">
<path fill="none" stroke="#63b8ff" d="M328.26,-149.77C354.68,-137.54 386,-123.04 408.58,-112.58"/>
<polygon fill="#63b8ff" stroke="#63b8ff" points="326.74,-146.61 319.14,-153.99 329.69,-152.97 326.74,-146.61"/>
</a>
</g>
</g>
<!-- Node6 -->
<g id="Node000006" class="node">
<title>Node6</title>
<g id="a_Node000006"><a xlink:href="TCORenderer_8h.html" target="_top" xlink:title="Renderer GDI du schéma TCO (Tableau de Contrôle Optique) ferroviaire.">
<polygon fill="white" stroke="#666666" points="195,-118 71,-118 71,-77 195,-77 195,-118"/>
<text text-anchor="start" x="79" y="-106" font-family="Helvetica,sans-Serif" font-size="10.00">SimulateurFerroviaire</text>
<text text-anchor="start" x="79" y="-95" font-family="Helvetica,sans-Serif" font-size="10.00">/Engine/HMI/PCCPanel</text>
<text text-anchor="middle" x="133" y="-84" font-family="Helvetica,sans-Serif" font-size="10.00">/TCORenderer.h</text>
</a>
</g>
</g>
<!-- Node3&#45;&gt;Node6 -->
<g id="edge5_Node000003_Node000006" class="edge">
<title>Node3&#45;&gt;Node6</title>
<g id="a_edge5_Node000003_Node000006"><a xlink:title=" ">
<path fill="none" stroke="#63b8ff" d="M230.56,-149.31C211.14,-139.2 188.87,-127.6 170.52,-118.04"/>
<polygon fill="#63b8ff" stroke="#63b8ff" points="229.06,-152.48 239.54,-153.99 232.29,-146.27 229.06,-152.48"/>
</a>
</g>
</g>
<!-- Node9 -->
<g id="Node000009" class="node">
<title>Node9</title>
<g id="a_Node000009"><a xlink:href="GeoParser_8cpp.html" target="_top" xlink:title="Implémentation du pipeline GeoParser.">
<polygon fill="white" stroke="#666666" points="823.5,-112.5 638.5,-112.5 638.5,-82.5 823.5,-82.5 823.5,-112.5"/>
<text text-anchor="start" x="646.5" y="-100.5" font-family="Helvetica,sans-Serif" font-size="10.00">SimulateurFerroviaire</text>
<text text-anchor="middle" x="731" y="-89.5" font-family="Helvetica,sans-Serif" font-size="10.00">/Modules/GeoParser/GeoParser.cpp</text>
</a>
</g>
</g>
<!-- Node3&#45;&gt;Node9 -->
<g id="edge8_Node000003_Node000009" class="edge">
<title>Node3&#45;&gt;Node9</title>
<g id="a_edge8_Node000003_Node000009"><a xlink:title=" ">
<path fill="none" stroke="#63b8ff" d="M349.64,-153.77C453.42,-132.5 562.86,-117.69 638.34,-108.66"/>
<polygon fill="#63b8ff" stroke="#63b8ff" points="348.7,-150.39 339.62,-155.85 350.12,-157.25 348.7,-150.39"/>
</a>
</g>
</g>
<!-- Node7 -->
<g id="Node000007" class="node">
<title>Node7</title>
<g id="a_Node000007"><a xlink:href="PCCPanel_8cpp.html" target="_top" xlink:title="Implémentation du panneau PCC superposé togglable.">
<polygon fill="white" stroke="#666666" points="124,-41 0,-41 0,0 124,0 124,-41"/>
<text text-anchor="start" x="8" y="-29" font-family="Helvetica,sans-Serif" font-size="10.00">SimulateurFerroviaire</text>
<text text-anchor="start" x="8" y="-18" font-family="Helvetica,sans-Serif" font-size="10.00">/Engine/HMI/PCCPanel</text>
<text text-anchor="middle" x="62" y="-7" font-family="Helvetica,sans-Serif" font-size="10.00">/PCCPanel.cpp</text>
</a>
</g>
</g>
<!-- Node6&#45;&gt;Node7 -->
<g id="edge6_Node000006_Node000007" class="edge">
<title>Node6&#45;&gt;Node7</title>
<g id="a_edge6_Node000006_Node000007"><a xlink:title=" ">
<path fill="none" stroke="#63b8ff" d="M107.45,-69.51C98.55,-60.11 88.75,-49.76 80.53,-41.07"/>
<polygon fill="#63b8ff" stroke="#63b8ff" points="104.93,-71.94 114.35,-76.79 110.01,-67.13 104.93,-71.94"/>
</a>
</g>
</g>
<!-- Node8 -->
<g id="Node000008" class="node">
<title>Node8</title>
<g id="a_Node000008"><a xlink:href="TCORenderer_8cpp.html" target="_top" xlink:title="Implémentation du renderer GDI TCO.">
<polygon fill="white" stroke="#666666" points="266,-41 142,-41 142,0 266,0 266,-41"/>
<text text-anchor="start" x="150" y="-29" font-family="Helvetica,sans-Serif" font-size="10.00">SimulateurFerroviaire</text>
<text text-anchor="start" x="150" y="-18" font-family="Helvetica,sans-Serif" font-size="10.00">/Engine/HMI/PCCPanel</text>
<text text-anchor="middle" x="204" y="-7" font-family="Helvetica,sans-Serif" font-size="10.00">/TCORenderer.cpp</text>
</a>
</g>
</g>
<!-- Node6&#45;&gt;Node8 -->
<g id="edge7_Node000006_Node000008" class="edge">
<title>Node6&#45;&gt;Node8</title>
<g id="a_edge7_Node000006_Node000008"><a xlink:title=" ">
<path fill="none" stroke="#63b8ff" d="M158.55,-69.51C167.45,-60.11 177.25,-49.76 185.47,-41.07"/>
<polygon fill="#63b8ff" stroke="#63b8ff" points="155.99,-67.13 151.65,-76.79 161.07,-71.94 155.99,-67.13"/>
</a>
</g>
</g>
<!-- Node10&#45;&gt;Node4 -->
<g id="edge10_Node000010_Node000004" class="edge">
<title>Node10&#45;&gt;Node4</title>
<g id="a_edge10_Node000010_Node000004"><a xlink:title=" ">
<path fill="none" stroke="#63b8ff" d="M373.92,-149.33C354.71,-139.26 332.7,-127.71 314.51,-118.17"/>
<polygon fill="#63b8ff" stroke="#63b8ff" points="372.32,-152.45 382.8,-153.99 375.57,-146.25 372.32,-152.45"/>
</a>
</g>
</g>
<!-- Node10&#45;&gt;Node5 -->
<g id="edge11_Node000010_Node000005" class="edge">
<title>Node10&#45;&gt;Node5</title>
<g id="a_edge11_Node000010_Node000005"><a xlink:title=" ">
<path fill="none" stroke="#63b8ff" d="M427.49,-143.94C430.2,-133.25 433.13,-121.66 435.36,-112.86"/>
<polygon fill="#63b8ff" stroke="#63b8ff" points="424.06,-143.24 424.99,-153.79 430.84,-144.96 424.06,-143.24"/>
</a>
</g>
</g>
<!-- Node10&#45;&gt;Node9 -->
<g id="edge12_Node000010_Node000009" class="edge">
<title>Node10&#45;&gt;Node9</title>
<g id="a_edge12_Node000010_Node000009"><a xlink:title=" ">
<path fill="none" stroke="#63b8ff" d="M492.83,-153.83C557.98,-137.55 621.79,-122.88 667.7,-112.54"/>
<polygon fill="#63b8ff" stroke="#63b8ff" points="491.64,-150.52 482.79,-156.35 493.34,-157.31 491.64,-150.52"/>
</a>
</g>
</g>
<!-- Node11&#45;&gt;Node9 -->
<g id="edge15_Node000011_Node000009" class="edge">
<title>Node11&#45;&gt;Node9</title>
<g id="a_edge15_Node000011_Node000009"><a xlink:title=" ">
<path fill="none" stroke="#63b8ff" d="M680.93,-221.67C684.94,-213.13 689.24,-203.73 693,-195 705.46,-166.06 718.64,-131.59 725.74,-112.68"/>
<polygon fill="#63b8ff" stroke="#63b8ff" points="677.69,-220.32 676.57,-230.86 684.02,-223.32 677.69,-220.32"/>
</a>
</g>
</g>
<!-- Node12 -->
<g id="Node000012" class="node">
<title>Node12</title>
<g id="a_Node000012"><a xlink:href="DoubleSwitchDetector_8cpp.html" target="_top" xlink:title="Implémentation phases 7 et 8 — doubles aiguilles et validation CDC.">
<polygon fill="white" stroke="#666666" points="683.5,-195 500.5,-195 500.5,-154 683.5,-154 683.5,-195"/>
<text text-anchor="start" x="508.5" y="-183" font-family="Helvetica,sans-Serif" font-size="10.00">SimulateurFerroviaire</text>
<text text-anchor="start" x="508.5" y="-172" font-family="Helvetica,sans-Serif" font-size="10.00">/Modules/GeoParser/DoubleSwitch</text>
<text text-anchor="middle" x="592" y="-161" font-family="Helvetica,sans-Serif" font-size="10.00">Detector.cpp</text>
</a>
</g>
</g>
<!-- Node11&#45;&gt;Node12 -->
<g id="edge14_Node000011_Node000012" class="edge">
<title>Node11&#45;&gt;Node12</title>
<g id="a_edge14_Node000011_Node000012"><a xlink:title=" ">
<path fill="none" stroke="#63b8ff" d="M640.01,-223.51C630.61,-214.11 620.26,-203.76 611.57,-195.07"/>
<polygon fill="#63b8ff" stroke="#63b8ff" points="637.75,-226.2 647.29,-230.79 642.7,-221.25 637.75,-226.2"/>
</a>
</g>
</g>
<!-- Node13&#45;&gt;Node9 -->
<g id="edge17_Node000013_Node000009" class="edge">
<title>Node13&#45;&gt;Node9</title>
<g id="a_edge17_Node000013_Node000009"><a xlink:title=" ">
<path fill="none" stroke="#63b8ff" d="M819.06,-231.64C801.88,-222.62 783.25,-210.39 770,-195 748.9,-170.49 738.24,-133.07 733.74,-112.79"/>
<polygon fill="#63b8ff" stroke="#63b8ff" points="817.9,-234.98 828.41,-236.32 821.03,-228.72 817.9,-234.98"/>
</a>
</g>
</g>
<!-- Node14 -->
<g id="Node000014" class="node">
<title>Node14</title>
<g id="a_Node000014"><a xlink:href="GeoParsingTask_8cpp.html" target="_top" xlink:title="Implémentation de la tâche de parsing GeoJSON asynchrone.">
<polygon fill="white" stroke="#666666" points="949.5,-195 778.5,-195 778.5,-154 949.5,-154 949.5,-195"/>
<text text-anchor="start" x="786.5" y="-183" font-family="Helvetica,sans-Serif" font-size="10.00">SimulateurFerroviaire</text>
<text text-anchor="start" x="786.5" y="-172" font-family="Helvetica,sans-Serif" font-size="10.00">/Modules/GeoParser/GeoParsing</text>
<text text-anchor="middle" x="864" y="-161" font-family="Helvetica,sans-Serif" font-size="10.00">Task.cpp</text>
</a>
</g>
</g>
<!-- Node13&#45;&gt;Node14 -->
<g id="edge18_Node000013_Node000014" class="edge">
<title>Node13&#45;&gt;Node14</title>
<g id="a_edge18_Node000013_Node000014"><a xlink:title=" ">
<path fill="none" stroke="#63b8ff" d="M864,-226.23C864,-216.2 864,-204.71 864,-195.2"/>
<polygon fill="#63b8ff" stroke="#63b8ff" points="860.5,-226.39 864,-236.39 867.5,-226.39 860.5,-226.39"/>
</a>
</g>
</g>
<!-- Node15&#45;&gt;Node9 -->
<g id="edge20_Node000015_Node000009" class="edge">
<title>Node15&#45;&gt;Node9</title>
<g id="a_edge20_Node000015_Node000009"><a xlink:title=" ">
<path fill="none" stroke="#63b8ff" d="M1199.34,-157.82C1191.12,-156.48 1182.91,-155.18 1175,-154 1053.99,-135.91 913.82,-119.07 823.87,-108.79"/>
<polygon fill="#63b8ff" stroke="#63b8ff" points="1198.92,-161.3 1209.35,-159.48 1200.06,-154.4 1198.92,-161.3"/>
</a>
</g>
</g>
<!-- Node16 -->
<g id="Node000016" class="node">
<title>Node16</title>
<g id="a_Node000016"><a xlink:href="SwitchOrientator_8cpp.html" target="_top" xlink:title="Implémentation des phases 6, 6b, 6c et 6d — orientation des aiguillages.">
<polygon fill="white" stroke="#666666" points="1396,-112.5 1178,-112.5 1178,-82.5 1396,-82.5 1396,-112.5"/>
<text text-anchor="start" x="1186" y="-100.5" font-family="Helvetica,sans-Serif" font-size="10.00">SimulateurFerroviaire</text>
<text text-anchor="middle" x="1287" y="-89.5" font-family="Helvetica,sans-Serif" font-size="10.00">/Modules/GeoParser/SwitchOrientator.cpp</text>
</a>
</g>
</g>
<!-- Node15&#45;&gt;Node16 -->
<g id="edge21_Node000015_Node000016" class="edge">
<title>Node15&#45;&gt;Node16</title>
<g id="a_edge21_Node000015_Node000016"><a xlink:title=" ">
<path fill="none" stroke="#63b8ff" d="M1287,-149.04C1287,-136.95 1287,-122.79 1287,-112.54"/>
<polygon fill="#63b8ff" stroke="#63b8ff" points="1283.5,-149.39 1287,-159.39 1290.5,-149.39 1283.5,-149.39"/>
</a>
</g>
</g>
<!-- Node17&#45;&gt;Node9 -->
<g id="edge23_Node000017_Node000009" class="edge">
<title>Node17&#45;&gt;Node9</title>
<g id="a_edge23_Node000017_Node000009"><a xlink:title=" ">
<path fill="none" stroke="#63b8ff" d="M1023.35,-223.18C1014.94,-214.21 1005.56,-204.19 997,-195 980.06,-176.82 980.42,-166.58 959,-154 917.99,-129.91 866.96,-116.25 823.59,-108.52"/>
<polygon fill="#63b8ff" stroke="#63b8ff" points="1021.05,-225.85 1030.44,-230.75 1026.16,-221.06 1021.05,-225.85"/>
</a>
</g>
</g>
<!-- Node17&#45;&gt;Node15 -->
<g id="edge24_Node000017_Node000015" class="edge">
<title>Node17&#45;&gt;Node15</title>
<g id="a_edge24_Node000017_Node000015"><a xlink:title=" ">
<path fill="none" stroke="#63b8ff" d="M1120.52,-227.96C1160.09,-215.49 1208.05,-200.38 1242.31,-189.58"/>
<polygon fill="#63b8ff" stroke="#63b8ff" points="1119.4,-224.65 1110.91,-230.99 1121.5,-231.32 1119.4,-224.65"/>
</a>
</g>
</g>
<!-- Node18 -->
<g id="Node000018" class="node">
<title>Node18</title>
<g id="a_Node000018"><a xlink:href="TopologyExtractor_8cpp.html" target="_top" xlink:title="Implémentation des phases 3, 4, 5a et 5b du pipeline GeoParser.">
<polygon fill="white" stroke="#666666" points="1166,-195 1006,-195 1006,-154 1166,-154 1166,-195"/>
<text text-anchor="start" x="1014" y="-183" font-family="Helvetica,sans-Serif" font-size="10.00">SimulateurFerroviaire</text>
<text text-anchor="start" x="1014" y="-172" font-family="Helvetica,sans-Serif" font-size="10.00">/Modules/GeoParser/Topology</text>
<text text-anchor="middle" x="1086" y="-161" font-family="Helvetica,sans-Serif" font-size="10.00">Extractor.cpp</text>
</a>
</g>
</g>
<!-- Node17&#45;&gt;Node18 -->
<g id="edge25_Node000017_Node000018" class="edge">
<title>Node17&#45;&gt;Node18</title>
<g id="a_edge25_Node000017_Node000018"><a xlink:title=" ">
<path fill="none" stroke="#63b8ff" d="M1063.28,-221.55C1067.66,-212.69 1072.36,-203.15 1076.34,-195.07"/>
<polygon fill="#63b8ff" stroke="#63b8ff" points="1060.01,-220.28 1058.72,-230.79 1066.28,-223.38 1060.01,-220.28"/>
</a>
</g>
</g>
<!-- Node21 -->
<g id="Node000021" class="node">
<title>Node21</title>
<g id="a_Node000021"><a xlink:href="PCCStraightNode_8cpp.html" target="_top" xlink:title="Implémentation du nœud PCC pour voie droite.">
<polygon fill="white" stroke="#666666" points="1598,-189.5 1408,-189.5 1408,-159.5 1598,-159.5 1598,-189.5"/>
<text text-anchor="start" x="1416" y="-177.5" font-family="Helvetica,sans-Serif" font-size="10.00">SimulateurFerroviaire</text>
<text text-anchor="middle" x="1503" y="-166.5" font-family="Helvetica,sans-Serif" font-size="10.00">/Modules/PCC/PCCStraightNode.cpp</text>
</a>
</g>
</g>
<!-- Node20&#45;&gt;Node21 -->
<g id="edge28_Node000020_Node000021" class="edge">
<title>Node20&#45;&gt;Node21</title>
<g id="a_edge28_Node000020_Node000021"><a xlink:title=" ">
<path fill="none" stroke="#63b8ff" d="M1498.25,-226.41C1499.38,-214.24 1500.72,-199.9 1501.69,-189.54"/>
<polygon fill="#63b8ff" stroke="#63b8ff" points="1494.76,-226.11 1497.32,-236.39 1501.73,-226.76 1494.76,-226.11"/>
</a>
</g>
</g>
</g>
</svg>
