<?xml version="1.0" encoding="UTF-8" standalone="no"?>
<!DOCTYPE svg PUBLIC "-//W3C//DTD SVG 1.1//EN"
 "http://www.w3.org/Graphics/SVG/1.1/DTD/svg11.dtd">
<!-- Generated by graphviz version 2.43.0 (0)
 -->
<!-- Title: SimulateurFerroviaire/Modules/InteractiveElements/ShuntingElements/StraightBlock.h Pages: 1 -->
<svg width="340pt" height="236pt"
 viewBox="0.00 0.00 340.00 236.00" xmlns="http://www.w3.org/2000/svg" xmlns:xlink="http://www.w3.org/1999/xlink">
<g id="graph0" class="graph" transform="scale(1 1) rotate(0) translate(4 232)">
<title>SimulateurFerroviaire/Modules/InteractiveElements/ShuntingElements/StraightBlock.h</title>
<!-- Node1 -->
<g id="Node000001" class="node">
<title>Node1</title>
<g id="a_Node000001"><a xlink:title="Modèle de domaine d&#39;un bloc de voie droite (Straight).">
<polygon fill="#999999" stroke="#666666" points="185,-228 0,-228 0,-187 185,-187 185,-228"/>
<text text-anchor="start" x="8" y="-216" font-family="Helvetica,sans-Serif" font-size="10.00">SimulateurFerroviaire</text>
<text text-anchor="start" x="8" y="-205" font-family="Helvetica,sans-Serif" font-size="10.00">/Modules/InteractiveElements</text>
<text text-anchor="middle" x="92.5" y="-194" font-family="Helvetica,sans-Serif" font-size="10.00">/ShuntingElements/StraightBlock.h</text>
</a>
</g>
</g>
<!-- Node2 -->
<g id="Node000002" class="node">
<title>Node2</title>
<g id="a_Node000002"><a xlink:title=" ">
<polygon fill="#e0e0e0" stroke="#999999" points="67.5,-19 23.5,-19 23.5,0 67.5,0 67.5,-19"/>
<text text-anchor="middle" x="45.5" y="-7" font-family="Helvetica,sans-Serif" font-size="10.00">string</text>
</a>
</g>
</g>
<!-- Node1&#45;&gt;Node2 -->
<g id="edge1_Node000001_Node000002" class="edge">
<title>Node1&#45;&gt;Node2</title>
<g id="a_edge1_Node000001_Node000002"><a xlink:title=" ">
<path fill="none" stroke="#63b8ff" d="M49.16,-187C34.82,-178.19 20.49,-166.28 12.5,-151 -8.91,-110.09 17.6,-55.28 34.14,-27.77"/>
<polygon fill="#63b8ff" stroke="#63b8ff" points="37.13,-29.58 39.48,-19.25 31.2,-25.87 37.13,-29.58"/>
</a>
</g>
</g>
<!-- Node3 -->
<g id="Node000003" class="node">
<title>Node3</title>
<g id="a_Node000003"><a xlink:title=" ">
<polygon fill="#e0e0e0" stroke="#999999" points="68,-145.5 21,-145.5 21,-126.5 68,-126.5 68,-145.5"/>
<text text-anchor="middle" x="44.5" y="-133.5" font-family="Helvetica,sans-Serif" font-size="10.00">vector</text>
</a>
</g>
</g>
<!-- Node1&#45;&gt;Node3 -->
<g id="edge2_Node000001_Node000003" class="edge">
<title>Node1&#45;&gt;Node3</title>
<g id="a_edge2_Node000001_Node000003"><a xlink:title=" ">
<path fill="none" stroke="#63b8ff" d="M78.87,-186.77C71.82,-176.55 63.28,-164.19 56.48,-154.34"/>
<polygon fill="#63b8ff" stroke="#63b8ff" points="59.15,-152.06 50.59,-145.82 53.39,-156.04 59.15,-152.06"/>
</a>
</g>
</g>
<!-- Node4 -->
<g id="Node000004" class="node">
<title>Node4</title>
<g id="a_Node000004"><a xlink:href="ShuntingElement_8h.html" target="_top" xlink:title="Interface abstraite pour tous les éléments de shuntage ferroviaire.">
<polygon fill="white" stroke="#666666" points="195,-145.5 86,-145.5 86,-126.5 195,-126.5 195,-145.5"/>
<text text-anchor="middle" x="140.5" y="-133.5" font-family="Helvetica,sans-Serif" font-size="10.00">ShuntingElement.h</text>
</a>
</g>
</g>
<!-- Node1&#45;&gt;Node4 -->
<g id="edge3_Node000001_Node000004" class="edge">
<title>Node1&#45;&gt;Node4</title>
<g id="a_edge3_Node000001_Node000004"><a xlink:title=" ">
<path fill="none" stroke="#63b8ff" d="M106.13,-186.77C113.18,-176.55 121.72,-164.19 128.52,-154.34"/>
<polygon fill="#63b8ff" stroke="#63b8ff" points="131.61,-156.04 134.41,-145.82 125.85,-152.06 131.61,-156.04"/>
</a>
</g>
</g>
<!-- Node6 -->
<g id="Node000006" class="node">
<title>Node6</title>
<g id="a_Node000006"><a xlink:href="LatLon_8h.html" target="_top" xlink:title="Représentation d&#39;une coordonnée géographique WGS&#45;84 (latitude, longitude).">
<polygon fill="white" stroke="#666666" points="332,-151 213,-151 213,-121 332,-121 332,-151"/>
<text text-anchor="start" x="221" y="-139" font-family="Helvetica,sans-Serif" font-size="10.00">Modules/Coordinates</text>
<text text-anchor="middle" x="272.5" y="-128" font-family="Helvetica,sans-Serif" font-size="10.00">/LatLon.h</text>
</a>
</g>
</g>
<!-- Node1&#45;&gt;Node6 -->
<g id="edge6_Node000001_Node000006" class="edge">
<title>Node1&#45;&gt;Node6</title>
<g id="a_edge6_Node000001_Node000006"><a xlink:title=" ">
<path fill="none" stroke="#63b8ff" d="M143.12,-186.96C169.4,-176.81 201.25,-164.51 226.78,-154.65"/>
<polygon fill="#63b8ff" stroke="#63b8ff" points="228.16,-157.87 236.23,-151 225.64,-151.34 228.16,-157.87"/>
</a>
</g>
</g>
<!-- Node5 -->
<g id="Node000005" class="node">
<title>Node5</title>
<g id="a_Node000005"><a xlink:href="InteractiveElement_8h.html" target="_top" xlink:title="Classe de base abstraite pour tous les éléments interactifs ferroviaires.">
<polygon fill="white" stroke="#666666" points="199,-85 40,-85 40,-55 199,-55 199,-85"/>
<text text-anchor="start" x="48" y="-73" font-family="Helvetica,sans-Serif" font-size="10.00">Modules/InteractiveElements</text>
<text text-anchor="middle" x="119.5" y="-62" font-family="Helvetica,sans-Serif" font-size="10.00">/InteractiveElement.h</text>
</a>
</g>
</g>
<!-- Node4&#45;&gt;Node5 -->
<g id="edge4_Node000004_Node000005" class="edge">
<title>Node4&#45;&gt;Node5</title>
<g id="a_edge4_Node000004_Node000005"><a xlink:title=" ">
<path fill="none" stroke="#63b8ff" d="M137.67,-126.37C135.03,-118.32 130.97,-105.94 127.35,-94.93"/>
<polygon fill="#63b8ff" stroke="#63b8ff" points="130.66,-93.77 124.21,-85.36 124,-95.95 130.66,-93.77"/>
</a>
</g>
</g>
<!-- Node5&#45;&gt;Node2 -->
<g id="edge5_Node000005_Node000002" class="edge">
<title>Node5&#45;&gt;Node2</title>
<g id="a_edge5_Node000005_Node000002"><a xlink:title=" ">
<path fill="none" stroke="#63b8ff" d="M101.59,-54.84C90.41,-46 76.02,-34.63 64.62,-25.62"/>
<polygon fill="#63b8ff" stroke="#63b8ff" points="66.6,-22.72 56.59,-19.27 62.26,-28.21 66.6,-22.72"/>
</a>
</g>
</g>
</g>
</svg>
