<?xml version="1.0" encoding="UTF-8" standalone="no"?>
<!DOCTYPE svg PUBLIC "-//W3C//DTD SVG 1.1//EN"
 "http://www.w3.org/Graphics/SVG/1.1/DTD/svg11.dtd">
<!-- Generated by graphviz version 2.43.0 (0)
 -->
<!-- Title: GraphBuilder::RawPolyline Pages: 1 -->
<svg width="148pt" height="72pt"
 viewBox="0.00 0.00 148.00 72.00" xmlns="http://www.w3.org/2000/svg" xmlns:xlink="http://www.w3.org/1999/xlink">
<g id="graph0" class="graph" transform="scale(1 1) rotate(0) translate(4 68)">
<title>GraphBuilder::RawPolyline</title>
<!-- Node1 -->
<g id="Node000001" class="node">
<title>Node1</title>
<g id="a_Node000001"><a xlink:title="Polyligne brute extraite d&#39;un feature GeoJSON (avant projection).">
<polygon fill="#999999" stroke="transparent" points="140,-64 0,-64 0,0 140,0 140,-64"/>
<text text-anchor="start" x="5" y="-52" font-family="Helvetica,sans-Serif" font-size="10.00">GraphBuilder::RawPolyline</text>
<text text-anchor="start" x="17" y="-37" font-family="Helvetica,sans-Serif" font-size="10.00">+</text>
<text text-anchor="start" x="43" y="-37" font-family="Helvetica,sans-Serif" font-size="10.00">featureId</text>
<text text-anchor="start" x="17" y="-22" font-family="Helvetica,sans-Serif" font-size="10.00">+</text>
<text text-anchor="start" x="43" y="-22" font-family="Helvetica,sans-Serif" font-size="10.00">wgs84Coords</text>
<text text-anchor="start" x="68" y="-7" font-family="Helvetica,sans-Serif" font-size="10.00"> </text>
<polygon fill="#666666" stroke="#666666" points="0,-47 0,-47 140,-47 140,-47 0,-47"/>
<polygon fill="#666666" stroke="#666666" points="0,-17 0,-17 41,-17 41,-17 0,-17"/>
<polygon fill="#666666" stroke="#666666" points="41,-17 41,-17 140,-17 140,-17 41,-17"/>
<polygon fill="none" stroke="#666666" points="0,0 0,-64 140,-64 140,0 0,0"/>
</a>
</g>
</g>
</g>
</svg>
