<?xml version="1.0" encoding="UTF-8" standalone="no"?>
<!DOCTYPE svg PUBLIC "-//W3C//DTD SVG 1.1//EN"
 "http://www.w3.org/Graphics/SVG/1.1/DTD/svg11.dtd">
<!-- Generated by graphviz version 2.43.0 (0)
 -->
<!-- Title: SwitchBlock::SwitchBranches Pages: 1 -->
<svg width="161pt" height="807pt"
 viewBox="0.00 0.00 161.00 807.00" xmlns="http://www.w3.org/2000/svg" xmlns:xlink="http://www.w3.org/1999/xlink">
<g id="graph0" class="graph" transform="scale(1 1) rotate(0) translate(4 803)">
<title>SwitchBlock::SwitchBranches</title>
<!-- Node1 -->
<g id="Node000001" class="node">
<title>Node1</title>
<g id="a_Node000001"><a xlink:title="Branches topologiques d&#39;un SwitchBlock.">
<polygon fill="#999999" stroke="transparent" points="153,-49 0,-49 0,0 153,0 153,-49"/>
<text text-anchor="start" x="5.5" y="-36.5" font-family="Helvetica,sans-Serif" font-size="10.00">SwitchBlock::SwitchBranches</text>
<text text-anchor="start" x="75" y="-21.5" font-family="Helvetica,sans-Serif" font-size="10.00"> </text>
<text text-anchor="start" x="75" y="-6.5" font-family="Helvetica,sans-Serif" font-size="10.00"> </text>
<polygon fill="#666666" stroke="#666666" points="0.5,-31.5 0.5,-31.5 153.5,-31.5 153.5,-31.5 0.5,-31.5"/>
<polygon fill="#666666" stroke="#666666" points="0.5,-16.5 0.5,-16.5 153.5,-16.5 153.5,-16.5 0.5,-16.5"/>
<polygon fill="none" stroke="#666666" points="0,0 0,-49 153,-49 153,0 0,0"/>
</a>
</g>
</g>
<!-- Node2 -->
<g id="Node000002" class="node">
<title>Node2</title>
<g id="a_Node000002"><a xlink:href="classShuntingElement.html" target="_top" xlink:title="Interface abstraite pour tous les éléments de shuntage ferroviaire.">
<polygon fill="white" stroke="transparent" points="137,-272 16,-272 16,-118 137,-118 137,-272"/>
<text text-anchor="start" x="35" y="-260" font-family="Helvetica,sans-Serif" font-size="10.00">ShuntingElement</text>
<text text-anchor="start" x="20.5" y="-245" font-family="Helvetica,sans-Serif" font-size="10.00">#</text>
<text text-anchor="start" x="33.5" y="-245" font-family="Helvetica,sans-Serif" font-size="10.00">m_state</text>
<text text-anchor="start" x="20.5" y="-230" font-family="Helvetica,sans-Serif" font-size="10.00">+</text>
<text text-anchor="start" x="33.5" y="-230" font-family="Helvetica,sans-Serif" font-size="10.00">ShuntingElement()</text>
<text text-anchor="start" x="20.5" y="-215" font-family="Helvetica,sans-Serif" font-size="10.00">+</text>
<text text-anchor="start" x="33.5" y="-215" font-family="Helvetica,sans-Serif" font-size="10.00">~ShuntingElement()</text>
<text text-anchor="start" x="20.5" y="-200" font-family="Helvetica,sans-Serif" font-size="10.00">+</text>
<text text-anchor="start" x="33.5" y="-200" font-family="Helvetica,sans-Serif" font-size="10.00">ShuntingElement()</text>
<text text-anchor="start" x="20.5" y="-185" font-family="Helvetica,sans-Serif" font-size="10.00">+</text>
<text text-anchor="start" x="33.5" y="-185" font-family="Helvetica,sans-Serif" font-size="10.00">operator=()</text>
<text text-anchor="start" x="20.5" y="-170" font-family="Helvetica,sans-Serif" font-size="10.00">+</text>
<text text-anchor="start" x="33.5" y="-170" font-family="Helvetica,sans-Serif" font-size="10.00">getState()</text>
<text text-anchor="start" x="20.5" y="-155" font-family="Helvetica,sans-Serif" font-size="10.00">+</text>
<text text-anchor="start" x="33.5" y="-155" font-family="Helvetica,sans-Serif" font-size="10.00">isFree()</text>
<text text-anchor="start" x="20.5" y="-140" font-family="Helvetica,sans-Serif" font-size="10.00">+</text>
<text text-anchor="start" x="33.5" y="-140" font-family="Helvetica,sans-Serif" font-size="10.00">isOccupied()</text>
<text text-anchor="start" x="20.5" y="-125" font-family="Helvetica,sans-Serif" font-size="10.00">+</text>
<text text-anchor="start" x="33.5" y="-125" font-family="Helvetica,sans-Serif" font-size="10.00">isInactive()</text>
<polygon fill="#666666" stroke="#666666" points="16.5,-255 16.5,-255 137.5,-255 137.5,-255 16.5,-255"/>
<polygon fill="#666666" stroke="#666666" points="16.5,-240 16.5,-240 31.5,-240 31.5,-240 16.5,-240"/>
<polygon fill="#666666" stroke="#666666" points="31.5,-240 31.5,-240 137.5,-240 137.5,-240 31.5,-240"/>
<polygon fill="none" stroke="#666666" points="16,-118 16,-272 137,-272 137,-118 16,-118"/>
</a>
</g>
</g>
<!-- Node2&#45;&gt;Node1 -->
<g id="edge1_Node000001_Node000002" class="edge">
<title>Node2&#45;&gt;Node1</title>
<g id="a_edge1_Node000001_Node000002"><a xlink:title=" ">
<path fill="none" stroke="#63b8ff" d="M76.5,-117.64C76.5,-98.12 76.5,-78.04 76.5,-61.63"/>
<polygon fill="none" stroke="#63b8ff" points="76.5,-61.33 72.5,-55.33 76.5,-49.33 80.5,-55.33 76.5,-61.33"/>
</a>
</g>
<text text-anchor="middle" x="105.5" y="-92" font-family="Helvetica,sans-Serif" font-size="10.00" fill="grey"> +deviation</text>
<text text-anchor="middle" x="105.5" y="-81" font-family="Helvetica,sans-Serif" font-size="10.00" fill="grey">+normal</text>
<text text-anchor="middle" x="105.5" y="-70" font-family="Helvetica,sans-Serif" font-size="10.00" fill="grey">+root</text>
</g>
<!-- Node3 -->
<g id="Node000003" class="node">
<title>Node3</title>
<g id="a_Node000003"><a xlink:href="classInteractiveElement.html" target="_top" xlink:title="Classe de base abstraite pour tous les éléments interactifs ferroviaires.">
<polygon fill="white" stroke="transparent" points="141.5,-463 11.5,-463 11.5,-309 141.5,-309 141.5,-463"/>
<text text-anchor="start" x="29.5" y="-451" font-family="Helvetica,sans-Serif" font-size="10.00">InteractiveElement</text>
<text text-anchor="start" x="15.5" y="-436" font-family="Helvetica,sans-Serif" font-size="10.00">#</text>
<text text-anchor="start" x="28.5" y="-436" font-family="Helvetica,sans-Serif" font-size="10.00">m_id</text>
<text text-anchor="start" x="15.5" y="-421" font-family="Helvetica,sans-Serif" font-size="10.00">+</text>
<text text-anchor="start" x="28.5" y="-421" font-family="Helvetica,sans-Serif" font-size="10.00">InteractiveElement()</text>
<text text-anchor="start" x="15.5" y="-406" font-family="Helvetica,sans-Serif" font-size="10.00">+</text>
<text text-anchor="start" x="28.5" y="-406" font-family="Helvetica,sans-Serif" font-size="10.00">~InteractiveElement()</text>
<text text-anchor="start" x="15.5" y="-391" font-family="Helvetica,sans-Serif" font-size="10.00">+</text>
<text text-anchor="start" x="28.5" y="-391" font-family="Helvetica,sans-Serif" font-size="10.00">InteractiveElement()</text>
<text text-anchor="start" x="15.5" y="-376" font-family="Helvetica,sans-Serif" font-size="10.00">+</text>
<text text-anchor="start" x="28.5" y="-376" font-family="Helvetica,sans-Serif" font-size="10.00">operator=()</text>
<text text-anchor="start" x="15.5" y="-361" font-family="Helvetica,sans-Serif" font-size="10.00">+</text>
<text text-anchor="start" x="28.5" y="-361" font-family="Helvetica,sans-Serif" font-size="10.00">InteractiveElement()</text>
<text text-anchor="start" x="15.5" y="-346" font-family="Helvetica,sans-Serif" font-size="10.00">+</text>
<text text-anchor="start" x="28.5" y="-346" font-family="Helvetica,sans-Serif" font-size="10.00">operator=()</text>
<text text-anchor="start" x="15.5" y="-331" font-family="Helvetica,sans-Serif" font-size="10.00">+</text>
<text text-anchor="start" x="28.5" y="-331" font-family="Helvetica,sans-Serif" font-size="10.00">getId()</text>
<text text-anchor="start" x="15.5" y="-316" font-family="Helvetica,sans-Serif" font-size="10.00">+</text>
<text text-anchor="start" x="28.5" y="-316" font-family="Helvetica,sans-Serif" font-size="10.00">getType()</text>
<polygon fill="#666666" stroke="#666666" points="11.5,-446 11.5,-446 141.5,-446 141.5,-446 11.5,-446"/>
<polygon fill="#666666" stroke="#666666" points="11.5,-431 11.5,-431 26.5,-431 26.5,-431 11.5,-431"/>
<polygon fill="#666666" stroke="#666666" points="26.5,-431 26.5,-431 141.5,-431 141.5,-431 26.5,-431"/>
<polygon fill="none" stroke="#666666" points="11.5,-309 11.5,-463 141.5,-463 141.5,-309 11.5,-309"/>
</a>
</g>
</g>
<!-- Node3&#45;&gt;Node2 -->
<g id="edge2_Node000002_Node000003" class="edge">
<title>Node3&#45;&gt;Node2</title>
<g id="a_edge2_Node000002_Node000003"><a xlink:title=" ">
<path fill="none" stroke="#63b8ff" d="M76.5,-298.94C76.5,-290.02 76.5,-281.01 76.5,-272.21"/>
<polygon fill="none" stroke="#63b8ff" points="73,-298.94 76.5,-308.94 80,-298.94 73,-298.94"/>
</a>
</g>
</g>
<!-- Node4 -->
<g id="Node000004" class="node">
<title>Node4</title>
<g id="a_Node000004"><a xlink:href="classLogger.html" target="_top" xlink:title="Journaliseur associé à un moteur nommé.">
<polygon fill="white" stroke="transparent" points="144.5,-799 8.5,-799 8.5,-510 144.5,-510 144.5,-799"/>
<text text-anchor="start" x="59.5" y="-786.5" font-family="Helvetica,sans-Serif" font-size="10.00">Logger</text>
<text text-anchor="start" x="15" y="-771.5" font-family="Helvetica,sans-Serif" font-size="10.00">&#45;</text>
<text text-anchor="start" x="25.5" y="-771.5" font-family="Helvetica,sans-Serif" font-size="10.00">m_motorName</text>
<text text-anchor="start" x="15" y="-756.5" font-family="Helvetica,sans-Serif" font-size="10.00">&#45;</text>
<text text-anchor="start" x="25.5" y="-756.5" font-family="Helvetica,sans-Serif" font-size="10.00">m_outputFile</text>
<text text-anchor="start" x="15" y="-741.5" font-family="Helvetica,sans-Serif" font-size="10.00">&#45;</text>
<text text-anchor="start" x="25.5" y="-741.5" font-family="Helvetica,sans-Serif" font-size="10.00">m_writeMutex</text>
<text text-anchor="start" x="15" y="-726.5" font-family="Helvetica,sans-Serif" font-size="10.00">&#45;</text>
<text text-anchor="start" x="25.5" y="-726.5" font-family="Helvetica,sans-Serif" font-size="10.00">m_minimumLevel</text>
<text text-anchor="start" x="12.5" y="-711.5" font-family="Helvetica,sans-Serif" font-size="10.00">+</text>
<text text-anchor="start" x="25.5" y="-711.5" font-family="Helvetica,sans-Serif" font-size="10.00">Logger()</text>
<text text-anchor="start" x="12.5" y="-696.5" font-family="Helvetica,sans-Serif" font-size="10.00">+</text>
<text text-anchor="start" x="25.5" y="-696.5" font-family="Helvetica,sans-Serif" font-size="10.00">~Logger()</text>
<text text-anchor="start" x="12.5" y="-681.5" font-family="Helvetica,sans-Serif" font-size="10.00">+</text>
<text text-anchor="start" x="25.5" y="-681.5" font-family="Helvetica,sans-Serif" font-size="10.00">Logger()</text>
<text text-anchor="start" x="12.5" y="-666.5" font-family="Helvetica,sans-Serif" font-size="10.00">+</text>
<text text-anchor="start" x="25.5" y="-666.5" font-family="Helvetica,sans-Serif" font-size="10.00">operator=()</text>
<text text-anchor="start" x="12.5" y="-651.5" font-family="Helvetica,sans-Serif" font-size="10.00">+</text>
<text text-anchor="start" x="25.5" y="-651.5" font-family="Helvetica,sans-Serif" font-size="10.00">writeLog()</text>
<text text-anchor="start" x="12.5" y="-636.5" font-family="Helvetica,sans-Serif" font-size="10.00">+</text>
<text text-anchor="start" x="25.5" y="-636.5" font-family="Helvetica,sans-Serif" font-size="10.00">setMinimumLogLevel()</text>
<text text-anchor="start" x="12.5" y="-621.5" font-family="Helvetica,sans-Serif" font-size="10.00">+</text>
<text text-anchor="start" x="25.5" y="-621.5" font-family="Helvetica,sans-Serif" font-size="10.00">getMotorName()</text>
<text text-anchor="start" x="12.5" y="-606.5" font-family="Helvetica,sans-Serif" font-size="10.00">+</text>
<text text-anchor="start" x="25.5" y="-606.5" font-family="Helvetica,sans-Serif" font-size="10.00">triggerFatalCrash()</text>
<text text-anchor="start" x="15" y="-591.5" font-family="Helvetica,sans-Serif" font-size="10.00">&#45;</text>
<text text-anchor="start" x="25.5" y="-591.5" font-family="Helvetica,sans-Serif" font-size="10.00">extractClassName()</text>
<text text-anchor="start" x="15" y="-576.5" font-family="Helvetica,sans-Serif" font-size="10.00">&#45;</text>
<text text-anchor="start" x="25.5" y="-576.5" font-family="Helvetica,sans-Serif" font-size="10.00">extractFunctionName()</text>
<text text-anchor="start" x="15" y="-561.5" font-family="Helvetica,sans-Serif" font-size="10.00">&#45;</text>
<text text-anchor="start" x="25.5" y="-561.5" font-family="Helvetica,sans-Serif" font-size="10.00">formatLogLine()</text>
<text text-anchor="start" x="15" y="-546.5" font-family="Helvetica,sans-Serif" font-size="10.00">&#45;</text>
<text text-anchor="start" x="25.5" y="-546.5" font-family="Helvetica,sans-Serif" font-size="10.00">levelToString()</text>
<text text-anchor="start" x="15" y="-531.5" font-family="Helvetica,sans-Serif" font-size="10.00">&#45;</text>
<text text-anchor="start" x="25.5" y="-531.5" font-family="Helvetica,sans-Serif" font-size="10.00">getCurrentTimestamp()</text>
<text text-anchor="start" x="15" y="-516.5" font-family="Helvetica,sans-Serif" font-size="10.00">&#45;</text>
<text text-anchor="start" x="25.5" y="-516.5" font-family="Helvetica,sans-Serif" font-size="10.00">sendToDebugOutput()</text>
<polygon fill="#666666" stroke="#666666" points="8.5,-781.5 8.5,-781.5 144.5,-781.5 144.5,-781.5 8.5,-781.5"/>
<polygon fill="#666666" stroke="#666666" points="8.5,-721.5 8.5,-721.5 23.5,-721.5 23.5,-721.5 8.5,-721.5"/>
<polygon fill="#666666" stroke="#666666" points="23.5,-721.5 23.5,-721.5 144.5,-721.5 144.5,-721.5 23.5,-721.5"/>
<polygon fill="none" stroke="#666666" points="8.5,-510 8.5,-799 144.5,-799 144.5,-510 8.5,-510"/>
</a>
</g>
</g>
<!-- Node4&#45;&gt;Node3 -->
<g id="edge3_Node000003_Node000004" class="edge">
<title>Node4&#45;&gt;Node3</title>
<g id="a_edge3_Node000003_Node000004"><a xlink:title=" ">
<path fill="none" stroke="#63b8ff" d="M76.5,-509.72C76.5,-498.11 76.5,-486.61 76.5,-475.57"/>
<polygon fill="none" stroke="#63b8ff" points="76.5,-475.32 72.5,-469.32 76.5,-463.32 80.5,-469.32 76.5,-475.32"/>
</a>
</g>
<text text-anchor="middle" x="105.5" y="-484" font-family="Helvetica,sans-Serif" font-size="10.00" fill="grey"> #m_logger</text>
</g>
</g>
</svg>
