<?xml version="1.0" encoding="UTF-8" standalone="no"?>
<!DOCTYPE svg PUBLIC "-//W3C//DTD SVG 1.1//EN"
 "http://www.w3.org/Graphics/SVG/1.1/DTD/svg11.dtd">
<!-- Generated by graphviz version 2.43.0 (0)
 -->
<!-- Title: SimulateurFerroviaire/Modules/GeoParser/SwitchOrientator.h Pages: 1 -->
<svg width="1786pt" height="357pt"
 viewBox="0.00 0.00 1786.41 357.00" xmlns="http://www.w3.org/2000/svg" xmlns:xlink="http://www.w3.org/1999/xlink">
<g id="graph0" class="graph" transform="scale(1 1) rotate(0) translate(4 353)">
<title>SimulateurFerroviaire/Modules/GeoParser/SwitchOrientator.h</title>
<!-- Node1 -->
<g id="Node000001" class="node">
<title>Node1</title>
<g id="a_Node000001"><a xlink:title="Phases 6, 6b, 6c et 6d — orientation géométrique des aiguillages.">
<polygon fill="#999999" stroke="#666666" points="454.09,-349 248.09,-349 248.09,-319 454.09,-319 454.09,-349"/>
<text text-anchor="start" x="256.09" y="-337" font-family="Helvetica,sans-Serif" font-size="10.00">SimulateurFerroviaire</text>
<text text-anchor="middle" x="351.09" y="-326" font-family="Helvetica,sans-Serif" font-size="10.00">/Modules/GeoParser/SwitchOrientator.h</text>
</a>
</g>
</g>
<!-- Node2 -->
<g id="Node000002" class="node">
<title>Node2</title>
<g id="a_Node000002"><a xlink:title=" ">
<polygon fill="#e0e0e0" stroke="#999999" points="323.09,-156.5 291.09,-156.5 291.09,-137.5 323.09,-137.5 323.09,-156.5"/>
<text text-anchor="middle" x="307.09" y="-144.5" font-family="Helvetica,sans-Serif" font-size="10.00">set</text>
</a>
</g>
</g>
<!-- Node1&#45;&gt;Node2 -->
<g id="edge1_Node000001_Node000002" class="edge">
<title>Node1&#45;&gt;Node2</title>
<g id="a_edge1_Node000001_Node000002"><a xlink:title=" ">
<path fill="none" stroke="#63b8ff" d="M345,-318.69C336.79,-298.76 322.36,-261.32 315.09,-228 310.58,-207.37 308.61,-183.19 307.75,-166.85"/>
<polygon fill="#63b8ff" stroke="#63b8ff" points="311.23,-166.35 307.3,-156.51 304.24,-166.65 311.23,-166.35"/>
</a>
</g>
</g>
<!-- Node3 -->
<g id="Node000003" class="node">
<title>Node3</title>
<g id="a_Node000003"><a xlink:title=" ">
<polygon fill="#e0e0e0" stroke="#999999" points="1377.09,-24.5 1333.09,-24.5 1333.09,-5.5 1377.09,-5.5 1377.09,-24.5"/>
<text text-anchor="middle" x="1355.09" y="-12.5" font-family="Helvetica,sans-Serif" font-size="10.00">string</text>
</a>
</g>
</g>
<!-- Node1&#45;&gt;Node3 -->
<g id="edge2_Node000001_Node000003" class="edge">
<title>Node1&#45;&gt;Node3</title>
<g id="a_edge2_Node000001_Node000003"><a xlink:title=" ">
<path fill="none" stroke="#63b8ff" d="M454.34,-329.43C773.23,-317.71 1721.09,-277.55 1721.09,-214 1721.09,-214 1721.09,-214 1721.09,-146 1721.09,-109.56 1729.85,-90.74 1703.09,-66 1657.5,-23.86 1464.61,-17.12 1387.32,-16.13"/>
<polygon fill="#63b8ff" stroke="#63b8ff" points="1387.24,-12.63 1377.2,-16.02 1387.17,-19.63 1387.24,-12.63"/>
</a>
</g>
</g>
<!-- Node4 -->
<g id="Node000004" class="node">
<title>Node4</title>
<g id="a_Node000004"><a xlink:title=" ">
<polygon fill="#e0e0e0" stroke="#999999" points="123.59,-90.5 30.59,-90.5 30.59,-71.5 123.59,-71.5 123.59,-90.5"/>
<text text-anchor="middle" x="77.09" y="-78.5" font-family="Helvetica,sans-Serif" font-size="10.00">unordered_map</text>
</a>
</g>
</g>
<!-- Node1&#45;&gt;Node4 -->
<g id="edge3_Node000001_Node000004" class="edge">
<title>Node1&#45;&gt;Node4</title>
<g id="a_edge3_Node000001_Node000004"><a xlink:title=" ">
<path fill="none" stroke="#63b8ff" d="M334.52,-318.68C323.09,-308.74 307.58,-295.16 294.09,-283 218.52,-214.88 129.95,-131.81 93.76,-97.73"/>
<polygon fill="#63b8ff" stroke="#63b8ff" points="95.78,-94.83 86.1,-90.51 90.98,-99.92 95.78,-94.83"/>
</a>
</g>
</g>
<!-- Node5 -->
<g id="Node000005" class="node">
<title>Node5</title>
<g id="a_Node000005"><a xlink:title=" ">
<polygon fill="#e0e0e0" stroke="#999999" points="225.59,-90.5 180.59,-90.5 180.59,-71.5 225.59,-71.5 225.59,-90.5"/>
<text text-anchor="middle" x="203.09" y="-78.5" font-family="Helvetica,sans-Serif" font-size="10.00">utility</text>
</a>
</g>
</g>
<!-- Node1&#45;&gt;Node5 -->
<g id="edge4_Node000001_Node000005" class="edge">
<title>Node1&#45;&gt;Node5</title>
<g id="a_edge4_Node000001_Node000005"><a xlink:title=" ">
<path fill="none" stroke="#63b8ff" d="M337.72,-318.77C329.01,-309.11 317.69,-295.79 309.09,-283 266.21,-219.24 227.22,-136.15 211.02,-100.05"/>
<polygon fill="#63b8ff" stroke="#63b8ff" points="214.17,-98.51 206.91,-90.8 207.77,-101.36 214.17,-98.51"/>
</a>
</g>
</g>
<!-- Node6 -->
<g id="Node000006" class="node">
<title>Node6</title>
<g id="a_Node000006"><a xlink:title=" ">
<polygon fill="#e0e0e0" stroke="#999999" points="486.59,-24.5 439.59,-24.5 439.59,-5.5 486.59,-5.5 486.59,-24.5"/>
<text text-anchor="middle" x="463.09" y="-12.5" font-family="Helvetica,sans-Serif" font-size="10.00">vector</text>
</a>
</g>
</g>
<!-- Node1&#45;&gt;Node6 -->
<g id="edge5_Node000001_Node000006" class="edge">
<title>Node1&#45;&gt;Node6</title>
<g id="a_edge5_Node000001_Node000006"><a xlink:title=" ">
<path fill="none" stroke="#63b8ff" d="M252.48,-319C149.27,-301.5 2.09,-267.21 2.09,-214 2.09,-214 2.09,-214 2.09,-146 2.09,-109.46 -6.26,-90.24 21.09,-66 51.52,-39.03 331.02,-22.6 429.19,-17.62"/>
<polygon fill="#63b8ff" stroke="#63b8ff" points="429.63,-21.1 439.45,-17.1 429.28,-14.11 429.63,-21.1"/>
</a>
</g>
</g>
<!-- Node7 -->
<g id="Node000007" class="node">
<title>Node7</title>
<g id="a_Node000007"><a xlink:href="TopologyExtractor_8h.html" target="_top" xlink:title="Phases 3, 4, 5a et 5b — extraction de la topologie ferroviaire depuis le graphe.">
<polygon fill="white" stroke="#666666" points="483.59,-283 370.59,-283 370.59,-264 483.59,-264 483.59,-283"/>
<text text-anchor="middle" x="427.09" y="-271" font-family="Helvetica,sans-Serif" font-size="10.00">TopologyExtractor.h</text>
</a>
</g>
</g>
<!-- Node1&#45;&gt;Node7 -->
<g id="edge6_Node000001_Node000007" class="edge">
<title>Node1&#45;&gt;Node7</title>
<g id="a_edge6_Node000001_Node000007"><a xlink:title=" ">
<path fill="none" stroke="#63b8ff" d="M369.49,-318.84C380.97,-310 395.74,-298.63 407.45,-289.62"/>
<polygon fill="#63b8ff" stroke="#63b8ff" points="409.91,-292.14 415.7,-283.27 405.64,-286.59 409.91,-292.14"/>
</a>
</g>
</g>
<!-- Node17 -->
<g id="Node000017" class="node">
<title>Node17</title>
<g id="a_Node000017"><a xlink:href="GeoParserEnums_8h.html" target="_top" xlink:title="Constantes nommées et énumérations du pipeline ferroviaire GeoParser.">
<polygon fill="white" stroke="#666666" points="396.59,-90.5 243.59,-90.5 243.59,-71.5 396.59,-71.5 396.59,-90.5"/>
<text text-anchor="middle" x="320.09" y="-78.5" font-family="Helvetica,sans-Serif" font-size="10.00">../Enums/GeoParserEnums.h</text>
</a>
</g>
</g>
<!-- Node1&#45;&gt;Node17 -->
<g id="edge60_Node000001_Node000017" class="edge">
<title>Node1&#45;&gt;Node17</title>
<g id="a_edge60_Node000001_Node000017"><a xlink:title=" ">
<path fill="none" stroke="#63b8ff" d="M341.24,-318.6C334.89,-308.86 326.78,-295.54 321.09,-283 297.73,-231.55 290.86,-217.82 282.09,-162 280.02,-148.83 277.83,-144.64 282.09,-132 286.4,-119.18 295.46,-107.05 303.65,-97.95"/>
<polygon fill="#63b8ff" stroke="#63b8ff" points="306.38,-100.15 310.76,-90.5 301.32,-95.31 306.38,-100.15"/>
</a>
</g>
</g>
<!-- Node19 -->
<g id="Node000019" class="node">
<title>Node19</title>
<g id="a_Node000019"><a xlink:href="Logger_8h.html" target="_top" xlink:title="Système de journalisation à 5 niveaux de trace, un fichier par moteur.">
<polygon fill="white" stroke="#666666" points="1112.59,-162 1001.59,-162 1001.59,-132 1112.59,-132 1112.59,-162"/>
<text text-anchor="start" x="1009.59" y="-150" font-family="Helvetica,sans-Serif" font-size="10.00">Engine/Core/Logger</text>
<text text-anchor="middle" x="1057.09" y="-139" font-family="Helvetica,sans-Serif" font-size="10.00">/Logger.h</text>
</a>
</g>
</g>
<!-- Node1&#45;&gt;Node19 -->
<g id="edge61_Node000001_Node000019" class="edge">
<title>Node1&#45;&gt;Node19</title>
<g id="a_edge61_Node000001_Node000019"><a xlink:title=" ">
<path fill="none" stroke="#63b8ff" d="M404.73,-318.94C532.82,-285.38 856.02,-200.69 993.55,-164.65"/>
<polygon fill="#63b8ff" stroke="#63b8ff" points="994.74,-167.96 1003.53,-162.04 992.96,-161.18 994.74,-167.96"/>
</a>
</g>
</g>
<!-- Node24 -->
<g id="Node000024" class="node">
<title>Node24</title>
<g id="a_Node000024"><a xlink:href="StraightBlock_8h.html" target="_top" xlink:title="Modèle de domaine d&#39;un bloc de voie droite (Straight).">
<polygon fill="white" stroke="#666666" points="1551.59,-228 1366.59,-228 1366.59,-198 1551.59,-198 1551.59,-228"/>
<text text-anchor="start" x="1374.59" y="-216" font-family="Helvetica,sans-Serif" font-size="10.00">Modules/InteractiveElements</text>
<text text-anchor="middle" x="1459.09" y="-205" font-family="Helvetica,sans-Serif" font-size="10.00">/ShuntingElements/StraightBlock.h</text>
</a>
</g>
</g>
<!-- Node1&#45;&gt;Node24 -->
<g id="edge58_Node000001_Node000024" class="edge">
<title>Node1&#45;&gt;Node24</title>
<g id="a_edge58_Node000001_Node000024"><a xlink:title=" ">
<path fill="none" stroke="#63b8ff" d="M454.28,-326.16C574.84,-317.78 780.21,-302.28 956.09,-283 1132.11,-263.7 1177.81,-252.99 1356.36,-228.24"/>
<polygon fill="#63b8ff" stroke="#63b8ff" points="1356.92,-231.7 1366.35,-226.86 1355.97,-224.76 1356.92,-231.7"/>
</a>
</g>
</g>
<!-- Node27 -->
<g id="Node000027" class="node">
<title>Node27</title>
<g id="a_Node000027"><a xlink:href="SwitchBlock_8h.html" target="_top" xlink:title="Modèle de domaine d&#39;un aiguillage ferroviaire à 3 branches (Switch).">
<polygon fill="white" stroke="#666666" points="1348.59,-228 1169.59,-228 1169.59,-198 1348.59,-198 1348.59,-228"/>
<text text-anchor="start" x="1177.59" y="-216" font-family="Helvetica,sans-Serif" font-size="10.00">Modules/InteractiveElements</text>
<text text-anchor="middle" x="1259.09" y="-205" font-family="Helvetica,sans-Serif" font-size="10.00">/ShuntingElements/SwitchBlock.h</text>
</a>
</g>
</g>
<!-- Node1&#45;&gt;Node27 -->
<g id="edge59_Node000001_Node000027" class="edge">
<title>Node1&#45;&gt;Node27</title>
<g id="a_edge59_Node000001_Node000027"><a xlink:title=" ">
<path fill="none" stroke="#63b8ff" d="M454.22,-326.12C562.19,-318.27 736.52,-303.78 886.09,-283 989.72,-268.6 1108.37,-245.5 1183.5,-230.04"/>
<polygon fill="#63b8ff" stroke="#63b8ff" points="1184.26,-233.46 1193.35,-228.01 1182.85,-226.6 1184.26,-233.46"/>
</a>
</g>
</g>
<!-- Node7&#45;&gt;Node2 -->
<g id="edge7_Node000007_Node000002" class="edge">
<title>Node7&#45;&gt;Node2</title>
<g id="a_edge7_Node000007_Node000002"><a xlink:title=" ">
<path fill="none" stroke="#63b8ff" d="M396.78,-263.92C377.39,-257.04 352.99,-245.58 337.09,-228 321.34,-210.59 313.6,-184.13 309.98,-166.47"/>
<polygon fill="#63b8ff" stroke="#63b8ff" points="313.41,-165.76 308.19,-156.54 306.52,-167 313.41,-165.76"/>
</a>
</g>
</g>
<!-- Node7&#45;&gt;Node3 -->
<g id="edge8_Node000007_Node000003" class="edge">
<title>Node7&#45;&gt;Node3</title>
<g id="a_edge8_Node000007_Node000003"><a xlink:title=" ">
<path fill="none" stroke="#63b8ff" d="M483.86,-273.08C606.03,-272.32 900.73,-259.58 1122.09,-162 1142.1,-153.18 1141.48,-141.69 1161.09,-132 1216.37,-104.67 1244.01,-130.56 1295.09,-96 1318.5,-80.16 1336.41,-52.1 1346.34,-33.78"/>
<polygon fill="#63b8ff" stroke="#63b8ff" points="1349.53,-35.23 1351.02,-24.74 1343.31,-32.01 1349.53,-35.23"/>
</a>
</g>
</g>
<!-- Node7&#45;&gt;Node4 -->
<g id="edge9_Node000007_Node000004" class="edge">
<title>Node7&#45;&gt;Node4</title>
<g id="a_edge9_Node000007_Node000004"><a xlink:title=" ">
<path fill="none" stroke="#63b8ff" d="M402.08,-263.97C379.03,-255.77 344.09,-242.52 315.09,-228 231.27,-186.03 138.28,-124.16 97.8,-96.4"/>
<polygon fill="#63b8ff" stroke="#63b8ff" points="99.76,-93.5 89.54,-90.71 95.79,-99.27 99.76,-93.5"/>
</a>
</g>
</g>
<!-- Node7&#45;&gt;Node5 -->
<g id="edge10_Node000007_Node000005" class="edge">
<title>Node7&#45;&gt;Node5</title>
<g id="a_edge10_Node000007_Node000005"><a xlink:title=" ">
<path fill="none" stroke="#63b8ff" d="M425.85,-263.71C421.91,-239.01 407.28,-168.39 365.09,-132 319.36,-92.56 290.89,-116.49 234.09,-96 232.87,-95.56 231.63,-95.09 230.39,-94.61"/>
<polygon fill="#63b8ff" stroke="#63b8ff" points="231.5,-91.28 220.92,-90.63 228.78,-97.73 231.5,-91.28"/>
</a>
</g>
</g>
<!-- Node7&#45;&gt;Node6 -->
<g id="edge11_Node000007_Node000006" class="edge">
<title>Node7&#45;&gt;Node6</title>
<g id="a_edge11_Node000007_Node000006"><a xlink:title=" ">
<path fill="none" stroke="#63b8ff" d="M422.36,-263.83C407.02,-236 358.12,-149.74 332.09,-132 268.18,-88.45 121.23,-125.12 171.09,-66 203.81,-27.2 359.64,-18.51 429.3,-16.56"/>
<polygon fill="#63b8ff" stroke="#63b8ff" points="429.41,-20.06 439.32,-16.31 429.24,-13.06 429.41,-20.06"/>
</a>
</g>
</g>
<!-- Node8 -->
<g id="Node000008" class="node">
<title>Node8</title>
<g id="a_Node000008"><a xlink:href="GraphBuilder_8h.html" target="_top" xlink:title="Phases 1 et 2 du pipeline — chargement GeoJSON et construction du graphe métrique.">
<polygon fill="white" stroke="#666666" points="654.59,-222.5 565.59,-222.5 565.59,-203.5 654.59,-203.5 654.59,-222.5"/>
<text text-anchor="middle" x="610.09" y="-210.5" font-family="Helvetica,sans-Serif" font-size="10.00">GraphBuilder.h</text>
</a>
</g>
</g>
<!-- Node7&#45;&gt;Node8 -->
<g id="edge12_Node000007_Node000008" class="edge">
<title>Node7&#45;&gt;Node8</title>
<g id="a_edge12_Node000007_Node000008"><a xlink:title=" ">
<path fill="none" stroke="#63b8ff" d="M453.7,-263.99C485.28,-253.9 538.1,-237.01 573.51,-225.69"/>
<polygon fill="#63b8ff" stroke="#63b8ff" points="574.99,-228.9 583.45,-222.52 572.85,-222.23 574.99,-228.9"/>
</a>
</g>
</g>
<!-- Node7&#45;&gt;Node17 -->
<g id="edge56_Node000007_Node000017" class="edge">
<title>Node7&#45;&gt;Node17</title>
<g id="a_edge56_Node000007_Node000017"><a xlink:title=" ">
<path fill="none" stroke="#63b8ff" d="M427.96,-263.68C429.83,-240.06 431.96,-174.31 403.09,-132 391.41,-114.88 371.75,-102.66 354.49,-94.59"/>
<polygon fill="#63b8ff" stroke="#63b8ff" points="355.79,-91.33 345.22,-90.52 352.98,-97.74 355.79,-91.33"/>
</a>
</g>
</g>
<!-- Node7&#45;&gt;Node19 -->
<g id="edge57_Node000007_Node000019" class="edge">
<title>Node7&#45;&gt;Node19</title>
<g id="a_edge57_Node000007_Node000019"><a xlink:title=" ">
<path fill="none" stroke="#63b8ff" d="M473.9,-263.93C521.73,-255.12 598.14,-240.9 664.09,-228 779.35,-205.45 913.34,-177.88 991.34,-161.7"/>
<polygon fill="#63b8ff" stroke="#63b8ff" points="992.42,-165.05 1001.5,-159.59 990.99,-158.2 992.42,-165.05"/>
</a>
</g>
</g>
<!-- Node7&#45;&gt;Node24 -->
<g id="edge42_Node000007_Node000024" class="edge">
<title>Node7&#45;&gt;Node24</title>
<g id="a_edge42_Node000007_Node000024"><a xlink:title=" ">
<path fill="none" stroke="#63b8ff" d="M483.62,-271.57C627.5,-268.82 1019.44,-258.95 1355.95,-228.14"/>
<polygon fill="#63b8ff" stroke="#63b8ff" points="1356.75,-231.58 1366.39,-227.18 1356.11,-224.61 1356.75,-231.58"/>
</a>
</g>
</g>
<!-- Node7&#45;&gt;Node27 -->
<g id="edge50_Node000007_Node000027" class="edge">
<title>Node7&#45;&gt;Node27</title>
<g id="a_edge50_Node000007_Node000027"><a xlink:title=" ">
<path fill="none" stroke="#63b8ff" d="M483.84,-270.44C606.53,-265.67 905.56,-252.39 1155.09,-228 1156.56,-227.86 1158.05,-227.71 1159.54,-227.55"/>
<polygon fill="#63b8ff" stroke="#63b8ff" points="1159.94,-231.03 1169.5,-226.48 1159.19,-224.07 1159.94,-231.03"/>
</a>
</g>
</g>
<!-- Node8&#45;&gt;Node2 -->
<g id="edge13_Node000008_Node000002" class="edge">
<title>Node8&#45;&gt;Node2</title>
<g id="a_edge13_Node000008_Node000002"><a xlink:title=" ">
<path fill="none" stroke="#63b8ff" d="M569.54,-203.44C506.33,-190.08 386.07,-164.68 333.17,-153.51"/>
<polygon fill="#63b8ff" stroke="#63b8ff" points="333.74,-150.05 323.23,-151.41 332.29,-156.9 333.74,-150.05"/>
</a>
</g>
</g>
<!-- Node8&#45;&gt;Node3 -->
<g id="edge14_Node000008_Node000003" class="edge">
<title>Node8&#45;&gt;Node3</title>
<g id="a_edge14_Node000008_Node000003"><a xlink:title=" ">
<path fill="none" stroke="#63b8ff" d="M639.92,-203.49C646.55,-201.64 653.55,-199.73 660.09,-198 724.29,-181.05 743.49,-186.79 805.09,-162 844.8,-146.02 931.53,-79.7 972.09,-66 1096.66,-23.92 1255.1,-16.97 1322.44,-16.02"/>
<polygon fill="#63b8ff" stroke="#63b8ff" points="1322.85,-19.52 1332.82,-15.91 1322.78,-12.52 1322.85,-19.52"/>
</a>
</g>
</g>
<!-- Node8&#45;&gt;Node6 -->
<g id="edge15_Node000008_Node000006" class="edge">
<title>Node8&#45;&gt;Node6</title>
<g id="a_edge15_Node000008_Node000006"><a xlink:title=" ">
<path fill="none" stroke="#63b8ff" d="M589.52,-203.49C555.36,-188.02 488.29,-151.67 464.09,-96 455.63,-76.54 456.91,-51.82 459.32,-35.05"/>
<polygon fill="#63b8ff" stroke="#63b8ff" points="462.82,-35.31 461.06,-24.87 455.92,-34.13 462.82,-35.31"/>
</a>
</g>
</g>
<!-- Node9 -->
<g id="Node000009" class="node">
<title>Node9</title>
<g id="a_Node000009"><a xlink:href="TopologyGraph_8h.html" target="_top" xlink:title="Graphe planaire non&#45;orienté de nœuds et d&#39;arêtes ferroviaires accrochés.">
<polygon fill="white" stroke="#666666" points="678.59,-156.5 541.59,-156.5 541.59,-137.5 678.59,-137.5 678.59,-156.5"/>
<text text-anchor="middle" x="610.09" y="-144.5" font-family="Helvetica,sans-Serif" font-size="10.00">./Graph/TopologyGraph.h</text>
</a>
</g>
</g>
<!-- Node8&#45;&gt;Node9 -->
<g id="edge16_Node000008_Node000009" class="edge">
<title>Node8&#45;&gt;Node9</title>
<g id="a_edge16_Node000008_Node000009"><a xlink:title=" ">
<path fill="none" stroke="#63b8ff" d="M610.09,-203.37C610.09,-194.16 610.09,-179.29 610.09,-167.27"/>
<polygon fill="#63b8ff" stroke="#63b8ff" points="613.59,-166.91 610.09,-156.91 606.59,-166.91 613.59,-166.91"/>
</a>
</g>
</g>
<!-- Node16 -->
<g id="Node000016" class="node">
<title>Node16</title>
<g id="a_Node000016"><a xlink:href="CoordinateXY_8h.html" target="_top" xlink:title="Représentation d&#39;une coordonnée plane en mètres (système métrique UTM).">
<polygon fill="white" stroke="#666666" points="824.59,-30 705.59,-30 705.59,0 824.59,0 824.59,-30"/>
<text text-anchor="start" x="713.59" y="-18" font-family="Helvetica,sans-Serif" font-size="10.00">Modules/Coordinates</text>
<text text-anchor="middle" x="765.09" y="-7" font-family="Helvetica,sans-Serif" font-size="10.00">/CoordinateXY.h</text>
</a>
</g>
</g>
<!-- Node8&#45;&gt;Node16 -->
<g id="edge34_Node000008_Node000016" class="edge">
<title>Node8&#45;&gt;Node16</title>
<g id="a_edge34_Node000008_Node000016"><a xlink:title=" ">
<path fill="none" stroke="#63b8ff" d="M635.81,-203.41C703.16,-180.65 880.6,-119 896.09,-96 916.87,-65.14 876.02,-44.14 834.58,-31.43"/>
<polygon fill="#63b8ff" stroke="#63b8ff" points="835.49,-28.05 824.91,-28.61 833.53,-34.77 835.49,-28.05"/>
</a>
</g>
</g>
<!-- Node8&#45;&gt;Node17 -->
<g id="edge32_Node000008_Node000017" class="edge">
<title>Node8&#45;&gt;Node17</title>
<g id="a_edge32_Node000008_Node000017"><a xlink:title=" ">
<path fill="none" stroke="#63b8ff" d="M585.91,-203.37C561.1,-194.2 521.63,-178.74 489.09,-162 466.72,-150.49 463.46,-143.51 441.09,-132 412.49,-117.28 378.54,-103.56 353.89,-94.23"/>
<polygon fill="#63b8ff" stroke="#63b8ff" points="354.86,-90.85 344.27,-90.63 352.41,-97.41 354.86,-90.85"/>
</a>
</g>
</g>
<!-- Node18 -->
<g id="Node000018" class="node">
<title>Node18</title>
<g id="a_Node000018"><a xlink:href="LatLon_8h.html" target="_top" xlink:title="Représentation d&#39;une coordonnée géographique WGS&#45;84 (latitude, longitude).">
<polygon fill="white" stroke="#666666" points="1288.59,-162 1169.59,-162 1169.59,-132 1288.59,-132 1288.59,-162"/>
<text text-anchor="start" x="1177.59" y="-150" font-family="Helvetica,sans-Serif" font-size="10.00">Modules/Coordinates</text>
<text text-anchor="middle" x="1229.09" y="-139" font-family="Helvetica,sans-Serif" font-size="10.00">/LatLon.h</text>
</a>
</g>
</g>
<!-- Node8&#45;&gt;Node18 -->
<g id="edge33_Node000008_Node000018" class="edge">
<title>Node8&#45;&gt;Node18</title>
<g id="a_edge33_Node000008_Node000018"><a xlink:title=" ">
<path fill="none" stroke="#63b8ff" d="M654.66,-208.14C743.62,-200.33 949.5,-181.71 1122.09,-162 1134.08,-160.63 1146.82,-159.06 1159.17,-157.48"/>
<polygon fill="#63b8ff" stroke="#63b8ff" points="1159.95,-160.91 1169.42,-156.16 1159.06,-153.97 1159.95,-160.91"/>
</a>
</g>
</g>
<!-- Node8&#45;&gt;Node19 -->
<g id="edge35_Node000008_Node000019" class="edge">
<title>Node8&#45;&gt;Node19</title>
<g id="a_edge35_Node000008_Node000019"><a xlink:title=" ">
<path fill="none" stroke="#63b8ff" d="M654.64,-205.98C722.24,-196.8 854.72,-178.61 967.09,-162 974.98,-160.83 983.26,-159.58 991.47,-158.33"/>
<polygon fill="#63b8ff" stroke="#63b8ff" points="992.07,-161.78 1001.42,-156.79 991,-154.86 992.07,-161.78"/>
</a>
</g>
</g>
<!-- Node9&#45;&gt;Node3 -->
<g id="edge20_Node000009_Node000003" class="edge">
<title>Node9&#45;&gt;Node3</title>
<g id="a_edge20_Node000009_Node000003"><a xlink:title=" ">
<path fill="none" stroke="#63b8ff" d="M643.22,-137.44C675.46,-128.64 725.53,-113.76 767.09,-96 792.69,-85.06 795.46,-74.13 822.09,-66 916.64,-37.12 1222.15,-21.71 1322.68,-17.33"/>
<polygon fill="#63b8ff" stroke="#63b8ff" points="1322.99,-20.82 1332.84,-16.89 1322.69,-13.82 1322.99,-20.82"/>
</a>
</g>
</g>
<!-- Node9&#45;&gt;Node4 -->
<g id="edge21_Node000009_Node000004" class="edge">
<title>Node9&#45;&gt;Node4</title>
<g id="a_edge21_Node000009_Node000004"><a xlink:title=" ">
<path fill="none" stroke="#63b8ff" d="M541.56,-138.93C455.11,-129.85 301.9,-113.19 171.09,-96 159.07,-94.42 146.22,-92.6 133.99,-90.8"/>
<polygon fill="#63b8ff" stroke="#63b8ff" points="134.31,-87.31 123.9,-89.3 133.28,-94.23 134.31,-87.31"/>
</a>
</g>
</g>
<!-- Node9&#45;&gt;Node5 -->
<g id="edge22_Node000009_Node000005" class="edge">
<title>Node9&#45;&gt;Node5</title>
<g id="a_edge22_Node000009_Node000005"><a xlink:title=" ">
<path fill="none" stroke="#63b8ff" d="M541.28,-142.87C464.95,-138.02 338.72,-125.88 234.09,-96 232.45,-95.53 230.78,-94.99 229.12,-94.4"/>
<polygon fill="#63b8ff" stroke="#63b8ff" points="230.39,-91.14 219.81,-90.62 227.76,-97.62 230.39,-91.14"/>
</a>
</g>
</g>
<!-- Node9&#45;&gt;Node6 -->
<g id="edge23_Node000009_Node000006" class="edge">
<title>Node9&#45;&gt;Node6</title>
<g id="a_edge23_Node000009_Node000006"><a xlink:title=" ">
<path fill="none" stroke="#63b8ff" d="M559.07,-137.44C532.87,-130.5 502.47,-118.08 483.09,-96 468.14,-78.97 464.03,-52.43 463.07,-34.64"/>
<polygon fill="#63b8ff" stroke="#63b8ff" points="466.57,-34.53 462.81,-24.63 459.57,-34.71 466.57,-34.53"/>
</a>
</g>
</g>
<!-- Node10 -->
<g id="Node000010" class="node">
<title>Node10</title>
<g id="a_Node000010"><a xlink:title=" ">
<polygon fill="#e0e0e0" stroke="#999999" points="653.09,-90.5 603.09,-90.5 603.09,-71.5 653.09,-71.5 653.09,-90.5"/>
<text text-anchor="middle" x="628.09" y="-78.5" font-family="Helvetica,sans-Serif" font-size="10.00">cstdint</text>
</a>
</g>
</g>
<!-- Node9&#45;&gt;Node10 -->
<g id="edge17_Node000009_Node000010" class="edge">
<title>Node9&#45;&gt;Node10</title>
<g id="a_edge17_Node000009_Node000010"><a xlink:title=" ">
<path fill="none" stroke="#63b8ff" d="M612.52,-137.37C615.13,-128.07 619.37,-112.98 622.77,-100.9"/>
<polygon fill="#63b8ff" stroke="#63b8ff" points="626.24,-101.48 625.58,-90.91 619.51,-99.58 626.24,-101.48"/>
</a>
</g>
</g>
<!-- Node11 -->
<g id="Node000011" class="node">
<title>Node11</title>
<g id="a_Node000011"><a xlink:title=" ">
<polygon fill="#e0e0e0" stroke="#999999" points="736.59,-90.5 671.59,-90.5 671.59,-71.5 736.59,-71.5 736.59,-90.5"/>
<text text-anchor="middle" x="704.09" y="-78.5" font-family="Helvetica,sans-Serif" font-size="10.00">functional</text>
</a>
</g>
</g>
<!-- Node9&#45;&gt;Node11 -->
<g id="edge18_Node000009_Node000011" class="edge">
<title>Node9&#45;&gt;Node11</title>
<g id="a_edge18_Node000009_Node000011"><a xlink:title=" ">
<path fill="none" stroke="#63b8ff" d="M622.76,-137.37C638.18,-126.87 664.43,-109 682.93,-96.4"/>
<polygon fill="#63b8ff" stroke="#63b8ff" points="685.01,-99.22 691.31,-90.7 681.08,-93.43 685.01,-99.22"/>
</a>
</g>
</g>
<!-- Node12 -->
<g id="Node000012" class="node">
<title>Node12</title>
<g id="a_Node000012"><a xlink:title=" ">
<polygon fill="#e0e0e0" stroke="#999999" points="887.09,-90.5 831.09,-90.5 831.09,-71.5 887.09,-71.5 887.09,-90.5"/>
<text text-anchor="middle" x="859.09" y="-78.5" font-family="Helvetica,sans-Serif" font-size="10.00">optional</text>
</a>
</g>
</g>
<!-- Node9&#45;&gt;Node12 -->
<g id="edge19_Node000009_Node000012" class="edge">
<title>Node9&#45;&gt;Node12</title>
<g id="a_edge19_Node000009_Node000012"><a xlink:title=" ">
<path fill="none" stroke="#63b8ff" d="M649.65,-137.49C691.5,-128.25 759.34,-112.57 817.09,-96 819.54,-95.3 822.07,-94.54 824.61,-93.75"/>
<polygon fill="#63b8ff" stroke="#63b8ff" points="825.87,-97.02 834.32,-90.64 823.73,-90.36 825.87,-97.02"/>
</a>
</g>
</g>
<!-- Node13 -->
<g id="Node000013" class="node">
<title>Node13</title>
<g id="a_Node000013"><a xlink:href="TopologyEdge_8h.html" target="_top" xlink:title="Arête non&#45;orientée du graphe planaire de topologie ferroviaire.">
<polygon fill="white" stroke="#666666" points="584.59,-90.5 491.59,-90.5 491.59,-71.5 584.59,-71.5 584.59,-90.5"/>
<text text-anchor="middle" x="538.09" y="-78.5" font-family="Helvetica,sans-Serif" font-size="10.00">TopologyEdge.h</text>
</a>
</g>
</g>
<!-- Node9&#45;&gt;Node13 -->
<g id="edge24_Node000009_Node000013" class="edge">
<title>Node9&#45;&gt;Node13</title>
<g id="a_edge24_Node000009_Node000013"><a xlink:title=" ">
<path fill="none" stroke="#63b8ff" d="M600.38,-137.37C588.95,-127.21 569.77,-110.16 555.7,-97.65"/>
<polygon fill="#63b8ff" stroke="#63b8ff" points="557.91,-94.93 548.11,-90.91 553.25,-100.16 557.91,-94.93"/>
</a>
</g>
</g>
<!-- Node9&#45;&gt;Node16 -->
<g id="edge30_Node000009_Node000016" class="edge">
<title>Node9&#45;&gt;Node16</title>
<g id="a_edge30_Node000009_Node000016"><a xlink:title=" ">
<path fill="none" stroke="#63b8ff" d="M668.86,-137.43C695.95,-130.56 726.38,-118.2 746.09,-96 759.58,-80.79 763.94,-57.74 765.16,-40.28"/>
<polygon fill="#63b8ff" stroke="#63b8ff" points="768.65,-40.39 765.56,-30.26 761.66,-40.11 768.65,-40.39"/>
</a>
</g>
</g>
<!-- Node9&#45;&gt;Node17 -->
<g id="edge31_Node000009_Node000017" class="edge">
<title>Node9&#45;&gt;Node17</title>
<g id="a_edge31_Node000009_Node000017"><a xlink:title=" ">
<path fill="none" stroke="#63b8ff" d="M571.28,-137.44C518.86,-125.87 425.47,-105.26 368.51,-92.69"/>
<polygon fill="#63b8ff" stroke="#63b8ff" points="369.19,-89.25 358.67,-90.51 367.68,-96.09 369.19,-89.25"/>
</a>
</g>
</g>
<!-- Node13&#45;&gt;Node3 -->
<g id="edge27_Node000013_Node000003" class="edge">
<title>Node13&#45;&gt;Node3</title>
<g id="a_edge27_Node000013_Node000003"><a xlink:title=" ">
<path fill="none" stroke="#63b8ff" d="M568.11,-71.44C576.46,-69.35 585.57,-67.33 594.09,-66 873.89,-22.2 1217.41,-16.69 1322.82,-16.06"/>
<polygon fill="#63b8ff" stroke="#63b8ff" points="1322.84,-19.56 1332.83,-16.01 1322.81,-12.56 1322.84,-19.56"/>
</a>
</g>
</g>
<!-- Node13&#45;&gt;Node6 -->
<g id="edge28_Node000013_Node000006" class="edge">
<title>Node13&#45;&gt;Node6</title>
<g id="a_edge28_Node000013_Node000006"><a xlink:title=" ">
<path fill="none" stroke="#63b8ff" d="M527.97,-71.37C516.07,-61.21 496.09,-44.16 481.43,-31.65"/>
<polygon fill="#63b8ff" stroke="#63b8ff" points="483.4,-28.73 473.52,-24.91 478.86,-34.06 483.4,-28.73"/>
</a>
</g>
</g>
<!-- Node14 -->
<g id="Node000014" class="node">
<title>Node14</title>
<g id="a_Node000014"><a xlink:title=" ">
<polygon fill="#e0e0e0" stroke="#999999" points="561.59,-24.5 514.59,-24.5 514.59,-5.5 561.59,-5.5 561.59,-24.5"/>
<text text-anchor="middle" x="538.09" y="-12.5" font-family="Helvetica,sans-Serif" font-size="10.00">cmath</text>
</a>
</g>
</g>
<!-- Node13&#45;&gt;Node14 -->
<g id="edge25_Node000013_Node000014" class="edge">
<title>Node13&#45;&gt;Node14</title>
<g id="a_edge25_Node000013_Node000014"><a xlink:title=" ">
<path fill="none" stroke="#63b8ff" d="M538.09,-71.37C538.09,-62.16 538.09,-47.29 538.09,-35.27"/>
<polygon fill="#63b8ff" stroke="#63b8ff" points="541.59,-34.91 538.09,-24.91 534.59,-34.91 541.59,-34.91"/>
</a>
</g>
</g>
<!-- Node15 -->
<g id="Node000015" class="node">
<title>Node15</title>
<g id="a_Node000015"><a xlink:title=" ">
<polygon fill="#e0e0e0" stroke="#999999" points="1661.09,-24.5 1605.09,-24.5 1605.09,-5.5 1661.09,-5.5 1661.09,-24.5"/>
<text text-anchor="middle" x="1633.09" y="-12.5" font-family="Helvetica,sans-Serif" font-size="10.00">sstream</text>
</a>
</g>
</g>
<!-- Node13&#45;&gt;Node15 -->
<g id="edge26_Node000013_Node000015" class="edge">
<title>Node13&#45;&gt;Node15</title>
<g id="a_edge26_Node000013_Node000015"><a xlink:title=" ">
<path fill="none" stroke="#63b8ff" d="M567.51,-71.47C576.02,-69.33 585.36,-67.28 594.09,-66 942.74,-15.02 1034.18,-47.97 1386.09,-30 1460.02,-26.22 1546.36,-21.19 1594.89,-18.3"/>
<polygon fill="#63b8ff" stroke="#63b8ff" points="1595.17,-21.79 1604.94,-17.7 1594.75,-14.8 1595.17,-21.79"/>
</a>
</g>
</g>
<!-- Node13&#45;&gt;Node16 -->
<g id="edge29_Node000013_Node000016" class="edge">
<title>Node13&#45;&gt;Node16</title>
<g id="a_edge29_Node000013_Node000016"><a xlink:title=" ">
<path fill="none" stroke="#63b8ff" d="M568.7,-71.37C603.58,-61.54 661.42,-45.23 705.32,-32.85"/>
<polygon fill="#63b8ff" stroke="#63b8ff" points="706.35,-36.2 715.02,-30.12 704.45,-29.46 706.35,-36.2"/>
</a>
</g>
</g>
<!-- Node19&#45;&gt;Node3 -->
<g id="edge41_Node000019_Node000003" class="edge">
<title>Node19&#45;&gt;Node3</title>
<g id="a_edge41_Node000019_Node000003"><a xlink:title=" ">
<path fill="none" stroke="#63b8ff" d="M1112.78,-133.65C1168.21,-121.14 1246.91,-102.71 1260.09,-96 1292.25,-79.63 1322.96,-50.47 1340.38,-32.24"/>
<polygon fill="#63b8ff" stroke="#63b8ff" points="1343.13,-34.42 1347.4,-24.72 1338.02,-29.64 1343.13,-34.42"/>
</a>
</g>
</g>
<!-- Node19&#45;&gt;Node15 -->
<g id="edge40_Node000019_Node000015" class="edge">
<title>Node19&#45;&gt;Node15</title>
<g id="a_edge40_Node000019_Node000015"><a xlink:title=" ">
<path fill="none" stroke="#63b8ff" d="M1112.96,-134.68C1161.24,-124.8 1232.87,-109.9 1295.09,-96 1404.08,-71.66 1532.26,-40.67 1594.83,-25.39"/>
<polygon fill="#63b8ff" stroke="#63b8ff" points="1595.77,-28.76 1604.66,-22.99 1594.11,-21.96 1595.77,-28.76"/>
</a>
</g>
</g>
<!-- Node20 -->
<g id="Node000020" class="node">
<title>Node20</title>
<g id="a_Node000020"><a xlink:title=" ">
<polygon fill="#e0e0e0" stroke="#999999" points="1091.09,-90.5 1047.09,-90.5 1047.09,-71.5 1091.09,-71.5 1091.09,-90.5"/>
<text text-anchor="middle" x="1069.09" y="-78.5" font-family="Helvetica,sans-Serif" font-size="10.00">ctime</text>
</a>
</g>
</g>
<!-- Node19&#45;&gt;Node20 -->
<g id="edge36_Node000019_Node000020" class="edge">
<title>Node19&#45;&gt;Node20</title>
<g id="a_edge36_Node000019_Node000020"><a xlink:title=" ">
<path fill="none" stroke="#63b8ff" d="M1059.75,-131.8C1061.46,-122.7 1063.69,-110.79 1065.54,-100.9"/>
<polygon fill="#63b8ff" stroke="#63b8ff" points="1069.03,-101.32 1067.43,-90.84 1062.15,-100.03 1069.03,-101.32"/>
</a>
</g>
</g>
<!-- Node21 -->
<g id="Node000021" class="node">
<title>Node21</title>
<g id="a_Node000021"><a xlink:title=" ">
<polygon fill="#e0e0e0" stroke="#999999" points="1177.09,-90.5 1109.09,-90.5 1109.09,-71.5 1177.09,-71.5 1177.09,-90.5"/>
<text text-anchor="middle" x="1143.09" y="-78.5" font-family="Helvetica,sans-Serif" font-size="10.00">filesystem</text>
</a>
</g>
</g>
<!-- Node19&#45;&gt;Node21 -->
<g id="edge37_Node000019_Node000021" class="edge">
<title>Node19&#45;&gt;Node21</title>
<g id="a_edge37_Node000019_Node000021"><a xlink:title=" ">
<path fill="none" stroke="#63b8ff" d="M1076.17,-131.8C1090.11,-121.43 1108.95,-107.4 1123.09,-96.88"/>
<polygon fill="#63b8ff" stroke="#63b8ff" points="1125.27,-99.62 1131.2,-90.84 1121.09,-94.01 1125.27,-99.62"/>
</a>
</g>
</g>
<!-- Node22 -->
<g id="Node000022" class="node">
<title>Node22</title>
<g id="a_Node000022"><a xlink:title=" ">
<polygon fill="#e0e0e0" stroke="#999999" points="1250.59,-90.5 1195.59,-90.5 1195.59,-71.5 1250.59,-71.5 1250.59,-90.5"/>
<text text-anchor="middle" x="1223.09" y="-78.5" font-family="Helvetica,sans-Serif" font-size="10.00">fstream</text>
</a>
</g>
</g>
<!-- Node19&#45;&gt;Node22 -->
<g id="edge38_Node000019_Node000022" class="edge">
<title>Node19&#45;&gt;Node22</title>
<g id="a_edge38_Node000019_Node000022"><a xlink:title=" ">
<path fill="none" stroke="#63b8ff" d="M1093.52,-131.95C1122.76,-120.68 1163.4,-105.01 1191.33,-94.25"/>
<polygon fill="#63b8ff" stroke="#63b8ff" points="1192.92,-97.38 1201,-90.52 1190.41,-90.85 1192.92,-97.38"/>
</a>
</g>
</g>
<!-- Node23 -->
<g id="Node000023" class="node">
<title>Node23</title>
<g id="a_Node000023"><a xlink:title=" ">
<polygon fill="#e0e0e0" stroke="#999999" points="1029.09,-90.5 981.09,-90.5 981.09,-71.5 1029.09,-71.5 1029.09,-90.5"/>
<text text-anchor="middle" x="1005.09" y="-78.5" font-family="Helvetica,sans-Serif" font-size="10.00">mutex</text>
</a>
</g>
</g>
<!-- Node19&#45;&gt;Node23 -->
<g id="edge39_Node000019_Node000023" class="edge">
<title>Node19&#45;&gt;Node23</title>
<g id="a_edge39_Node000019_Node000023"><a xlink:title=" ">
<path fill="none" stroke="#63b8ff" d="M1045.55,-131.8C1037.6,-122.01 1027.01,-108.98 1018.66,-98.7"/>
<polygon fill="#63b8ff" stroke="#63b8ff" points="1021.3,-96.4 1012.27,-90.84 1015.86,-100.81 1021.3,-96.4"/>
</a>
</g>
</g>
<!-- Node24&#45;&gt;Node3 -->
<g id="edge44_Node000024_Node000003" class="edge">
<title>Node24&#45;&gt;Node3</title>
<g id="a_edge44_Node000024_Node000003"><a xlink:title=" ">
<path fill="none" stroke="#63b8ff" d="M1458.66,-197.82C1457.71,-181.35 1454.67,-153.66 1445.09,-132 1427.16,-91.49 1392.1,-52.52 1371.42,-31.67"/>
<polygon fill="#63b8ff" stroke="#63b8ff" points="1373.84,-29.14 1364.27,-24.6 1368.92,-34.12 1373.84,-29.14"/>
</a>
</g>
</g>
<!-- Node24&#45;&gt;Node6 -->
<g id="edge45_Node000024_Node000006" class="edge">
<title>Node24&#45;&gt;Node6</title>
<g id="a_edge45_Node000024_Node000006"><a xlink:title=" ">
<path fill="none" stroke="#63b8ff" d="M1448.34,-197.76C1424.13,-166.94 1361.76,-94.56 1290.09,-66 1128.07,-1.44 677.67,-61.28 506.09,-30 502.58,-29.36 498.97,-28.51 495.4,-27.54"/>
<polygon fill="#63b8ff" stroke="#63b8ff" points="496.14,-24.11 485.56,-24.57 494.12,-30.81 496.14,-24.11"/>
</a>
</g>
</g>
<!-- Node24&#45;&gt;Node15 -->
<g id="edge43_Node000024_Node000015" class="edge">
<title>Node24&#45;&gt;Node15</title>
<g id="a_edge43_Node000024_Node000015"><a xlink:title=" ">
<path fill="none" stroke="#63b8ff" d="M1551.67,-207.31C1626.91,-197.86 1727.73,-170.96 1773.09,-96 1798.92,-53.31 1720.93,-31.29 1671.16,-21.85"/>
<polygon fill="#63b8ff" stroke="#63b8ff" points="1671.78,-18.4 1661.31,-20.07 1670.53,-25.29 1671.78,-18.4"/>
</a>
</g>
</g>
<!-- Node24&#45;&gt;Node18 -->
<g id="edge49_Node000024_Node000018" class="edge">
<title>Node24&#45;&gt;Node18</title>
<g id="a_edge49_Node000024_Node000018"><a xlink:title=" ">
<path fill="none" stroke="#63b8ff" d="M1408.61,-197.95C1373.41,-188.16 1326.28,-175.05 1289.15,-164.71"/>
<polygon fill="#63b8ff" stroke="#63b8ff" points="1290.02,-161.32 1279.44,-162.01 1288.14,-168.07 1290.02,-161.32"/>
</a>
</g>
</g>
<!-- Node25 -->
<g id="Node000025" class="node">
<title>Node25</title>
<g id="a_Node000025"><a xlink:href="ShuntingElement_8h.html" target="_top" xlink:title="Interface abstraite pour tous les éléments de shuntage ferroviaire.">
<polygon fill="white" stroke="#666666" points="1637.59,-156.5 1528.59,-156.5 1528.59,-137.5 1637.59,-137.5 1637.59,-156.5"/>
<text text-anchor="middle" x="1583.09" y="-144.5" font-family="Helvetica,sans-Serif" font-size="10.00">ShuntingElement.h</text>
</a>
</g>
</g>
<!-- Node24&#45;&gt;Node25 -->
<g id="edge46_Node000024_Node000025" class="edge">
<title>Node24&#45;&gt;Node25</title>
<g id="a_edge46_Node000024_Node000025"><a xlink:title=" ">
<path fill="none" stroke="#63b8ff" d="M1486.3,-197.95C1507.57,-186.98 1536.91,-171.83 1557.7,-161.11"/>
<polygon fill="#63b8ff" stroke="#63b8ff" points="1559.3,-164.21 1566.59,-156.52 1556.09,-157.99 1559.3,-164.21"/>
</a>
</g>
</g>
<!-- Node26 -->
<g id="Node000026" class="node">
<title>Node26</title>
<g id="a_Node000026"><a xlink:href="InteractiveElement_8h.html" target="_top" xlink:title="Classe de base abstraite pour tous les éléments interactifs ferroviaires.">
<polygon fill="white" stroke="#666666" points="1693.59,-96 1534.59,-96 1534.59,-66 1693.59,-66 1693.59,-96"/>
<text text-anchor="start" x="1542.59" y="-84" font-family="Helvetica,sans-Serif" font-size="10.00">Modules/InteractiveElements</text>
<text text-anchor="middle" x="1614.09" y="-73" font-family="Helvetica,sans-Serif" font-size="10.00">/InteractiveElement.h</text>
</a>
</g>
</g>
<!-- Node25&#45;&gt;Node26 -->
<g id="edge47_Node000025_Node000026" class="edge">
<title>Node25&#45;&gt;Node26</title>
<g id="a_edge47_Node000025_Node000026"><a xlink:title=" ">
<path fill="none" stroke="#63b8ff" d="M1587.27,-137.37C1591.21,-129.24 1597.28,-116.69 1602.66,-105.59"/>
<polygon fill="#63b8ff" stroke="#63b8ff" points="1605.92,-106.89 1607.13,-96.36 1599.62,-103.83 1605.92,-106.89"/>
</a>
</g>
</g>
<!-- Node26&#45;&gt;Node3 -->
<g id="edge48_Node000026_Node000003" class="edge">
<title>Node26&#45;&gt;Node3</title>
<g id="a_edge48_Node000026_Node000003"><a xlink:title=" ">
<path fill="none" stroke="#63b8ff" d="M1557.25,-65.95C1504.97,-53.04 1429.34,-34.35 1386.96,-23.88"/>
<polygon fill="#63b8ff" stroke="#63b8ff" points="1387.73,-20.46 1377.19,-21.46 1386.06,-27.26 1387.73,-20.46"/>
</a>
</g>
</g>
<!-- Node27&#45;&gt;Node3 -->
<g id="edge53_Node000027_Node000003" class="edge">
<title>Node27&#45;&gt;Node3</title>
<g id="a_edge53_Node000027_Node000003"><a xlink:title=" ">
<path fill="none" stroke="#63b8ff" d="M1284.86,-197.97C1299.63,-189.04 1317.81,-176.46 1331.09,-162 1353.99,-137.08 1360.35,-128.7 1369.09,-96 1374.7,-74.99 1368.47,-50.26 1362.63,-33.92"/>
<polygon fill="#63b8ff" stroke="#63b8ff" points="1365.86,-32.57 1358.98,-24.51 1359.33,-35.1 1365.86,-32.57"/>
</a>
</g>
</g>
<!-- Node27&#45;&gt;Node6 -->
<g id="edge54_Node000027_Node000006" class="edge">
<title>Node27&#45;&gt;Node6</title>
<g id="a_edge54_Node000027_Node000006"><a xlink:title=" ">
<path fill="none" stroke="#63b8ff" d="M1274.35,-197.84C1283.14,-188.61 1293.36,-175.74 1298.09,-162 1313.01,-118.61 1299.25,-89.91 1260.09,-66 1188.5,-22.3 588.59,-45.12 506.09,-30 502.58,-29.36 498.97,-28.5 495.4,-27.53"/>
<polygon fill="#63b8ff" stroke="#63b8ff" points="496.14,-24.1 485.56,-24.57 494.12,-30.8 496.14,-24.1"/>
</a>
</g>
</g>
<!-- Node27&#45;&gt;Node12 -->
<g id="edge51_Node000027_Node000012" class="edge">
<title>Node27&#45;&gt;Node12</title>
<g id="a_edge51_Node000027_Node000012"><a xlink:title=" ">
<path fill="none" stroke="#63b8ff" d="M1169.5,-203.14C1116.88,-196 1049.78,-183.47 993.09,-162 949.31,-145.42 903.58,-114.78 878.48,-96.61"/>
<polygon fill="#63b8ff" stroke="#63b8ff" points="880.34,-93.63 870.21,-90.53 876.19,-99.27 880.34,-93.63"/>
</a>
</g>
</g>
<!-- Node27&#45;&gt;Node15 -->
<g id="edge52_Node000027_Node000015" class="edge">
<title>Node27&#45;&gt;Node15</title>
<g id="a_edge52_Node000027_Node000015"><a xlink:title=" ">
<path fill="none" stroke="#63b8ff" d="M1300.3,-197.92C1351.43,-180.79 1441.48,-151.72 1520.09,-132 1600.49,-111.83 1650.43,-160.02 1703.09,-96 1722.68,-72.18 1686.86,-45.37 1659.63,-29.62"/>
<polygon fill="#63b8ff" stroke="#63b8ff" points="1661.26,-26.52 1650.82,-24.73 1657.86,-32.64 1661.26,-26.52"/>
</a>
</g>
</g>
<!-- Node27&#45;&gt;Node18 -->
<g id="edge55_Node000027_Node000018" class="edge">
<title>Node27&#45;&gt;Node18</title>
<g id="a_edge55_Node000027_Node000018"><a xlink:title=" ">
<path fill="none" stroke="#63b8ff" d="M1252.43,-197.8C1248.78,-190.01 1244.16,-180.16 1240,-171.28"/>
<polygon fill="#63b8ff" stroke="#63b8ff" points="1243.14,-169.73 1235.73,-162.16 1236.8,-172.7 1243.14,-169.73"/>
</a>
</g>
</g>
</g>
</svg>
