<?xml version="1.0" encoding="UTF-8" standalone="no"?>
<!DOCTYPE svg PUBLIC "-//W3C//DTD SVG 1.1//EN"
 "http://www.w3.org/Graphics/SVG/1.1/DTD/svg11.dtd">
<!-- Generated by graphviz version 2.43.0 (0)
 -->
<!-- Title: SimulateurFerroviaire/Modules/GeoParser/SwitchOrientator.h Pages: 1 -->
<svg width="1748pt" height="324pt"
 viewBox="0.00 0.00 1748.35 324.00" xmlns="http://www.w3.org/2000/svg" xmlns:xlink="http://www.w3.org/1999/xlink">
<g id="graph0" class="graph" transform="scale(1 1) rotate(0) translate(4 320)">
<title>SimulateurFerroviaire/Modules/GeoParser/SwitchOrientator.h</title>
<!-- Node1 -->
<g id="Node000001" class="node">
<title>Node1</title>
<g id="a_Node000001"><a xlink:title="Phases 6, 6b, 6c et 6d — orientation géométrique des aiguillages.">
<polygon fill="#999999" stroke="#666666" points="942.35,-316 736.35,-316 736.35,-286 942.35,-286 942.35,-316"/>
<text text-anchor="start" x="744.35" y="-304" font-family="Helvetica,sans-Serif" font-size="10.00">SimulateurFerroviaire</text>
<text text-anchor="middle" x="839.35" y="-293" font-family="Helvetica,sans-Serif" font-size="10.00">/Modules/GeoParser/SwitchOrientator.h</text>
</a>
</g>
</g>
<!-- Node2 -->
<g id="Node000002" class="node">
<title>Node2</title>
<g id="a_Node000002"><a xlink:title=" ">
<polygon fill="#e0e0e0" stroke="#999999" points="288.35,-134.5 256.35,-134.5 256.35,-115.5 288.35,-115.5 288.35,-134.5"/>
<text text-anchor="middle" x="272.35" y="-122.5" font-family="Helvetica,sans-Serif" font-size="10.00">set</text>
</a>
</g>
</g>
<!-- Node1&#45;&gt;Node2 -->
<g id="edge1_Node000001_Node000002" class="edge">
<title>Node1&#45;&gt;Node2</title>
<g id="a_edge1_Node000001_Node000002"><a xlink:title=" ">
<path fill="none" stroke="#63b8ff" d="M736.23,-294.39C593.08,-284.37 344.75,-258.18 283.35,-195 270.56,-181.84 269.04,-160.14 269.94,-144.59"/>
<polygon fill="#63b8ff" stroke="#63b8ff" points="273.44,-144.84 270.9,-134.56 266.47,-144.18 273.44,-144.84"/>
</a>
</g>
</g>
<!-- Node3 -->
<g id="Node000003" class="node">
<title>Node3</title>
<g id="a_Node000003"><a xlink:title=" ">
<polygon fill="#e0e0e0" stroke="#999999" points="1043.35,-19 999.35,-19 999.35,0 1043.35,0 1043.35,-19"/>
<text text-anchor="middle" x="1021.35" y="-7" font-family="Helvetica,sans-Serif" font-size="10.00">string</text>
</a>
</g>
</g>
<!-- Node1&#45;&gt;Node3 -->
<g id="edge2_Node000001_Node000003" class="edge">
<title>Node1&#45;&gt;Node3</title>
<g id="a_edge2_Node000001_Node000003"><a xlink:title=" ">
<path fill="none" stroke="#63b8ff" d="M942.7,-297.61C1179.37,-290.76 1740.35,-266.12 1740.35,-186.5 1740.35,-186.5 1740.35,-186.5 1740.35,-124 1740.35,-11.99 1475.95,-48.01 1112.35,-19 1092.83,-17.44 1070.99,-15.41 1053.59,-13.73"/>
<polygon fill="#63b8ff" stroke="#63b8ff" points="1053.69,-10.22 1043.4,-12.73 1053.01,-17.19 1053.69,-10.22"/>
</a>
</g>
</g>
<!-- Node4 -->
<g id="Node000004" class="node">
<title>Node4</title>
<g id="a_Node000004"><a xlink:title=" ">
<polygon fill="#e0e0e0" stroke="#999999" points="122.85,-74 29.85,-74 29.85,-55 122.85,-55 122.85,-74"/>
<text text-anchor="middle" x="76.35" y="-62" font-family="Helvetica,sans-Serif" font-size="10.00">unordered_map</text>
</a>
</g>
</g>
<!-- Node1&#45;&gt;Node4 -->
<g id="edge3_Node000001_Node000004" class="edge">
<title>Node1&#45;&gt;Node4</title>
<g id="a_edge3_Node000001_Node000004"><a xlink:title=" ">
<path fill="none" stroke="#63b8ff" d="M736.3,-297.28C602.55,-292.57 377.17,-280.31 300.35,-250 206.2,-212.85 121.87,-120.39 89.93,-82.3"/>
<polygon fill="#63b8ff" stroke="#63b8ff" points="92.35,-79.73 83.28,-74.25 86.95,-84.19 92.35,-79.73"/>
</a>
</g>
</g>
<!-- Node5 -->
<g id="Node000005" class="node">
<title>Node5</title>
<g id="a_Node000005"><a xlink:title=" ">
<polygon fill="#e0e0e0" stroke="#999999" points="185.85,-74 140.85,-74 140.85,-55 185.85,-55 185.85,-74"/>
<text text-anchor="middle" x="163.35" y="-62" font-family="Helvetica,sans-Serif" font-size="10.00">utility</text>
</a>
</g>
</g>
<!-- Node1&#45;&gt;Node5 -->
<g id="edge4_Node000001_Node000005" class="edge">
<title>Node1&#45;&gt;Node5</title>
<g id="a_edge4_Node000001_Node000005"><a xlink:title=" ">
<path fill="none" stroke="#63b8ff" d="M736.23,-295.76C613.17,-289.63 415.37,-276.03 346.35,-250 270.66,-221.45 252.29,-202.84 201.35,-140 187.53,-122.95 176.78,-100.07 170.3,-84.18"/>
<polygon fill="#63b8ff" stroke="#63b8ff" points="173.4,-82.5 166.5,-74.46 166.88,-85.05 173.4,-82.5"/>
</a>
</g>
</g>
<!-- Node6 -->
<g id="Node000006" class="node">
<title>Node6</title>
<g id="a_Node000006"><a xlink:title=" ">
<polygon fill="#e0e0e0" stroke="#999999" points="468.85,-19 421.85,-19 421.85,0 468.85,0 468.85,-19"/>
<text text-anchor="middle" x="445.35" y="-7" font-family="Helvetica,sans-Serif" font-size="10.00">vector</text>
</a>
</g>
</g>
<!-- Node1&#45;&gt;Node6 -->
<g id="edge5_Node000001_Node000006" class="edge">
<title>Node1&#45;&gt;Node6</title>
<g id="a_edge5_Node000001_Node000006"><a xlink:title=" ">
<path fill="none" stroke="#63b8ff" d="M736.17,-296.6C512.18,-287.86 1.35,-259.86 1.35,-186.5 1.35,-186.5 1.35,-186.5 1.35,-124 1.35,-92.19 -4.04,-75.41 20.35,-55 85.21,-0.72 310.5,-31.73 411.68,-18.6"/>
<polygon fill="#63b8ff" stroke="#63b8ff" points="412.29,-22.05 421.65,-17.09 411.24,-15.13 412.29,-22.05"/>
</a>
</g>
</g>
<!-- Node7 -->
<g id="Node000007" class="node">
<title>Node7</title>
<g id="a_Node000007"><a xlink:href="TopologyExtractor_8h.html" target="_top" xlink:title="Phases 3, 4, 5a et 5b — extraction de la topologie ferroviaire depuis le graphe.">
<polygon fill="white" stroke="#666666" points="838.85,-250 725.85,-250 725.85,-231 838.85,-231 838.85,-250"/>
<text text-anchor="middle" x="782.35" y="-238" font-family="Helvetica,sans-Serif" font-size="10.00">TopologyExtractor.h</text>
</a>
</g>
</g>
<!-- Node1&#45;&gt;Node7 -->
<g id="edge6_Node000001_Node000007" class="edge">
<title>Node1&#45;&gt;Node7</title>
<g id="a_edge6_Node000001_Node000007"><a xlink:title=" ">
<path fill="none" stroke="#63b8ff" d="M825.55,-285.84C817.28,-277.35 806.73,-266.52 798.12,-257.69"/>
<polygon fill="#63b8ff" stroke="#63b8ff" points="800.37,-254.99 790.89,-250.27 795.36,-259.87 800.37,-254.99"/>
</a>
</g>
</g>
<!-- Node17 -->
<g id="Node000017" class="node">
<title>Node17</title>
<g id="a_Node000017"><a xlink:href="GeoParserEnums_8h.html" target="_top" xlink:title="Constantes nommées et énumérations du pipeline ferroviaire GeoParser.">
<polygon fill="white" stroke="#666666" points="887.85,-74 734.85,-74 734.85,-55 887.85,-55 887.85,-74"/>
<text text-anchor="middle" x="811.35" y="-62" font-family="Helvetica,sans-Serif" font-size="10.00">../Enums/GeoParserEnums.h</text>
</a>
</g>
</g>
<!-- Node1&#45;&gt;Node17 -->
<g id="edge57_Node000001_Node000017" class="edge">
<title>Node1&#45;&gt;Node17</title>
<g id="a_edge57_Node000001_Node000017"><a xlink:title=" ">
<path fill="none" stroke="#63b8ff" d="M842.63,-285.65C844.74,-275.71 847.27,-262.12 848.35,-250 853.86,-188.31 830.92,-116.82 818.64,-83.86"/>
<polygon fill="#63b8ff" stroke="#63b8ff" points="821.8,-82.31 814.94,-74.23 815.26,-84.82 821.8,-82.31"/>
</a>
</g>
</g>
<!-- Node19 -->
<g id="Node000019" class="node">
<title>Node19</title>
<g id="a_Node000019"><a xlink:href="Logger_8h.html" target="_top" xlink:title="Système de journalisation à 5 niveaux de trace, un fichier par moteur.">
<polygon fill="white" stroke="#666666" points="1405.85,-140 1294.85,-140 1294.85,-110 1405.85,-110 1405.85,-140"/>
<text text-anchor="start" x="1302.85" y="-128" font-family="Helvetica,sans-Serif" font-size="10.00">Engine/Core/Logger</text>
<text text-anchor="middle" x="1350.35" y="-117" font-family="Helvetica,sans-Serif" font-size="10.00">/Logger.h</text>
</a>
</g>
</g>
<!-- Node1&#45;&gt;Node19 -->
<g id="edge58_Node000001_Node000019" class="edge">
<title>Node1&#45;&gt;Node19</title>
<g id="a_edge58_Node000001_Node000019"><a xlink:title=" ">
<path fill="none" stroke="#63b8ff" d="M880.73,-285.91C973.51,-254.32 1197.94,-177.9 1299.23,-143.4"/>
<polygon fill="#63b8ff" stroke="#63b8ff" points="1300.6,-146.64 1308.93,-140.1 1298.34,-140.01 1300.6,-146.64"/>
</a>
</g>
</g>
<!-- Node24 -->
<g id="Node000024" class="node">
<title>Node24</title>
<g id="a_Node000024"><a xlink:href="StraightBlock_8h.html" target="_top" xlink:title="Modèle de domaine d&#39;un bloc de voie droite (Straight).">
<polygon fill="white" stroke="#666666" points="1654.85,-134.5 1481.85,-134.5 1481.85,-115.5 1654.85,-115.5 1654.85,-134.5"/>
<text text-anchor="middle" x="1568.35" y="-122.5" font-family="Helvetica,sans-Serif" font-size="10.00">Modules/Models/StraightBlock.h</text>
</a>
</g>
</g>
<!-- Node1&#45;&gt;Node24 -->
<g id="edge55_Node000001_Node000024" class="edge">
<title>Node1&#45;&gt;Node24</title>
<g id="a_edge55_Node000001_Node000024"><a xlink:title=" ">
<path fill="none" stroke="#63b8ff" d="M898.08,-285.98C1039.43,-252.24 1396.24,-167.08 1522.89,-136.85"/>
<polygon fill="#63b8ff" stroke="#63b8ff" points="1523.75,-140.24 1532.66,-134.52 1522.12,-133.43 1523.75,-140.24"/>
</a>
</g>
</g>
<!-- Node25 -->
<g id="Node000025" class="node">
<title>Node25</title>
<g id="a_Node000025"><a xlink:href="SwitchBlock_8h.html" target="_top" xlink:title="Modèle de domaine d&#39;un aiguillage ferroviaire à 3 branches (Switch).">
<polygon fill="white" stroke="#666666" points="1111.85,-134.5 944.85,-134.5 944.85,-115.5 1111.85,-115.5 1111.85,-134.5"/>
<text text-anchor="middle" x="1028.35" y="-122.5" font-family="Helvetica,sans-Serif" font-size="10.00">Modules/Models/SwitchBlock.h</text>
</a>
</g>
</g>
<!-- Node1&#45;&gt;Node25 -->
<g id="edge56_Node000001_Node000025" class="edge">
<title>Node1&#45;&gt;Node25</title>
<g id="a_edge56_Node000001_Node000025"><a xlink:title=" ">
<path fill="none" stroke="#63b8ff" d="M861.61,-285.96C876.04,-276.47 894.94,-263.3 910.35,-250 951.21,-214.75 993.47,-167.12 1014.59,-142.4"/>
<polygon fill="#63b8ff" stroke="#63b8ff" points="1017.35,-144.57 1021.14,-134.68 1012.01,-140.04 1017.35,-144.57"/>
</a>
</g>
</g>
<!-- Node7&#45;&gt;Node2 -->
<g id="edge7_Node000007_Node000002" class="edge">
<title>Node7&#45;&gt;Node2</title>
<g id="a_edge7_Node000007_Node000002"><a xlink:title=" ">
<path fill="none" stroke="#63b8ff" d="M725.67,-237.46C606.05,-232.69 335.99,-219.35 302.35,-195 286.19,-183.3 278.63,-161 275.16,-144.91"/>
<polygon fill="#63b8ff" stroke="#63b8ff" points="278.59,-144.19 273.36,-134.97 271.7,-145.43 278.59,-144.19"/>
</a>
</g>
</g>
<!-- Node7&#45;&gt;Node3 -->
<g id="edge8_Node000007_Node000003" class="edge">
<title>Node7&#45;&gt;Node3</title>
<g id="a_edge8_Node000007_Node000003"><a xlink:title=" ">
<path fill="none" stroke="#63b8ff" d="M787.75,-230.74C805.68,-202.25 865.99,-110.85 935.35,-55 951.66,-41.87 972.45,-30.98 989.51,-23.26"/>
<polygon fill="#63b8ff" stroke="#63b8ff" points="991.3,-26.3 999.06,-19.09 988.49,-19.89 991.3,-26.3"/>
</a>
</g>
</g>
<!-- Node7&#45;&gt;Node4 -->
<g id="edge9_Node000007_Node000004" class="edge">
<title>Node7&#45;&gt;Node4</title>
<g id="a_edge9_Node000007_Node000004"><a xlink:title=" ">
<path fill="none" stroke="#63b8ff" d="M725.71,-238.31C609.32,-235.26 347.16,-225.18 263.35,-195 192.37,-169.44 123.19,-109.91 92.65,-81.35"/>
<polygon fill="#63b8ff" stroke="#63b8ff" points="94.75,-78.52 85.09,-74.16 89.93,-83.59 94.75,-78.52"/>
</a>
</g>
</g>
<!-- Node7&#45;&gt;Node5 -->
<g id="edge10_Node000007_Node000005" class="edge">
<title>Node7&#45;&gt;Node5</title>
<g id="a_edge10_Node000007_Node000005"><a xlink:title=" ">
<path fill="none" stroke="#63b8ff" d="M725.57,-239.5C611.72,-238.69 359.87,-232.55 283.35,-195 282.49,-194.58 210.42,-116.53 178.4,-81.82"/>
<polygon fill="#63b8ff" stroke="#63b8ff" points="180.88,-79.34 171.53,-74.37 175.73,-84.09 180.88,-79.34"/>
</a>
</g>
</g>
<!-- Node7&#45;&gt;Node6 -->
<g id="edge11_Node000007_Node000006" class="edge">
<title>Node7&#45;&gt;Node6</title>
<g id="a_edge11_Node000007_Node000006"><a xlink:title=" ">
<path fill="none" stroke="#63b8ff" d="M734.61,-230.93C623.18,-209.74 352.12,-151.01 309.35,-74 305.25,-66.62 304.39,-61.84 309.35,-55 315.56,-46.44 373.68,-29.58 411.9,-19.25"/>
<polygon fill="#63b8ff" stroke="#63b8ff" points="412.87,-22.61 421.62,-16.64 411.06,-15.85 412.87,-22.61"/>
</a>
</g>
</g>
<!-- Node8 -->
<g id="Node000008" class="node">
<title>Node8</title>
<g id="a_Node000008"><a xlink:href="GraphBuilder_8h.html" target="_top" xlink:title="Phases 1 et 2 du pipeline — chargement GeoJSON et construction du graphe métrique.">
<polygon fill="white" stroke="#666666" points="750.85,-195 661.85,-195 661.85,-176 750.85,-176 750.85,-195"/>
<text text-anchor="middle" x="706.35" y="-183" font-family="Helvetica,sans-Serif" font-size="10.00">GraphBuilder.h</text>
</a>
</g>
</g>
<!-- Node7&#45;&gt;Node8 -->
<g id="edge12_Node000007_Node000008" class="edge">
<title>Node7&#45;&gt;Node8</title>
<g id="a_edge12_Node000007_Node000008"><a xlink:title=" ">
<path fill="none" stroke="#63b8ff" d="M770.14,-230.98C758.57,-222.92 740.97,-210.65 727.19,-201.03"/>
<polygon fill="#63b8ff" stroke="#63b8ff" points="728.99,-198.02 718.78,-195.17 724.98,-203.76 728.99,-198.02"/>
</a>
</g>
</g>
<!-- Node7&#45;&gt;Node17 -->
<g id="edge53_Node000007_Node000017" class="edge">
<title>Node7&#45;&gt;Node17</title>
<g id="a_edge53_Node000007_Node000017"><a xlink:title=" ">
<path fill="none" stroke="#63b8ff" d="M783.83,-230.63C788.34,-203.52 802.04,-121.32 808.24,-84.13"/>
<polygon fill="#63b8ff" stroke="#63b8ff" points="811.72,-84.58 809.91,-74.14 804.81,-83.43 811.72,-84.58"/>
</a>
</g>
</g>
<!-- Node7&#45;&gt;Node19 -->
<g id="edge54_Node000007_Node000019" class="edge">
<title>Node7&#45;&gt;Node19</title>
<g id="a_edge54_Node000007_Node000019"><a xlink:title=" ">
<path fill="none" stroke="#63b8ff" d="M825.04,-230.97C923.56,-211.28 1167.34,-162.57 1284.89,-139.08"/>
<polygon fill="#63b8ff" stroke="#63b8ff" points="1285.72,-142.48 1294.84,-137.09 1284.35,-135.62 1285.72,-142.48"/>
</a>
</g>
</g>
<!-- Node7&#45;&gt;Node24 -->
<g id="edge42_Node000007_Node000024" class="edge">
<title>Node7&#45;&gt;Node24</title>
<g id="a_edge42_Node000007_Node000024"><a xlink:title=" ">
<path fill="none" stroke="#63b8ff" d="M838.88,-231.34C979.69,-211 1345.82,-158.13 1499.18,-135.99"/>
<polygon fill="#63b8ff" stroke="#63b8ff" points="1500.01,-139.4 1509.41,-134.51 1499.01,-132.48 1500.01,-139.4"/>
</a>
</g>
</g>
<!-- Node7&#45;&gt;Node25 -->
<g id="edge47_Node000007_Node000025" class="edge">
<title>Node7&#45;&gt;Node25</title>
<g id="a_edge47_Node000007_Node000025"><a xlink:title=" ">
<path fill="none" stroke="#63b8ff" d="M800.84,-230.97C843.58,-211.25 949.44,-162.41 1000.25,-138.96"/>
<polygon fill="#63b8ff" stroke="#63b8ff" points="1002.03,-142 1009.64,-134.63 999.1,-135.64 1002.03,-142"/>
</a>
</g>
</g>
<!-- Node8&#45;&gt;Node2 -->
<g id="edge13_Node000008_Node000002" class="edge">
<title>Node8&#45;&gt;Node2</title>
<g id="a_edge13_Node000008_Node000002"><a xlink:title=" ">
<path fill="none" stroke="#63b8ff" d="M661.67,-180.26C592.55,-173.44 455.64,-158.84 340.35,-140 326.41,-137.72 310.98,-134.6 298.35,-131.88"/>
<polygon fill="#63b8ff" stroke="#63b8ff" points="299.01,-128.44 288.49,-129.71 297.51,-135.27 299.01,-128.44"/>
</a>
</g>
</g>
<!-- Node8&#45;&gt;Node3 -->
<g id="edge14_Node000008_Node000003" class="edge">
<title>Node8&#45;&gt;Node3</title>
<g id="a_edge14_Node000008_Node000003"><a xlink:title=" ">
<path fill="none" stroke="#63b8ff" d="M704.6,-175.74C700.5,-152.39 692.99,-88.24 726.35,-55 762.74,-18.73 919.89,-11.95 988.78,-10.74"/>
<polygon fill="#63b8ff" stroke="#63b8ff" points="989.1,-14.23 999.05,-10.59 989,-7.23 989.1,-14.23"/>
</a>
</g>
</g>
<!-- Node8&#45;&gt;Node6 -->
<g id="edge15_Node000008_Node000006" class="edge">
<title>Node8&#45;&gt;Node6</title>
<g id="a_edge15_Node000008_Node000006"><a xlink:title=" ">
<path fill="none" stroke="#63b8ff" d="M702.48,-175.66C691.7,-152.14 658.99,-87.59 611.35,-55 571.29,-27.6 515.11,-17.05 479.48,-13.01"/>
<polygon fill="#63b8ff" stroke="#63b8ff" points="479.42,-9.48 469.12,-11.95 478.71,-16.45 479.42,-9.48"/>
</a>
</g>
</g>
<!-- Node9 -->
<g id="Node000009" class="node">
<title>Node9</title>
<g id="a_Node000009"><a xlink:href="TopologyGraph_8h.html" target="_top" xlink:title="Graphe planaire non&#45;orienté de nœuds et d&#39;arêtes ferroviaires accrochés.">
<polygon fill="white" stroke="#666666" points="561.85,-134.5 424.85,-134.5 424.85,-115.5 561.85,-115.5 561.85,-134.5"/>
<text text-anchor="middle" x="493.35" y="-122.5" font-family="Helvetica,sans-Serif" font-size="10.00">./Graph/TopologyGraph.h</text>
</a>
</g>
</g>
<!-- Node8&#45;&gt;Node9 -->
<g id="edge16_Node000008_Node000009" class="edge">
<title>Node8&#45;&gt;Node9</title>
<g id="a_edge16_Node000008_Node000009"><a xlink:title=" ">
<path fill="none" stroke="#63b8ff" d="M675.38,-175.99C638.07,-165.75 575.29,-148.5 534.08,-137.19"/>
<polygon fill="#63b8ff" stroke="#63b8ff" points="534.93,-133.79 524.36,-134.52 533.07,-140.54 534.93,-133.79"/>
</a>
</g>
</g>
<!-- Node16 -->
<g id="Node000016" class="node">
<title>Node16</title>
<g id="a_Node000016"><a xlink:href="CoordinateXY_8h.html" target="_top" xlink:title="Représentation d&#39;une coordonnée plane en mètres (système métrique UTM).">
<polygon fill="white" stroke="#666666" points="338.35,-19 166.35,-19 166.35,0 338.35,0 338.35,-19"/>
<text text-anchor="middle" x="252.35" y="-7" font-family="Helvetica,sans-Serif" font-size="10.00">Modules/Models/CoordinateXY.h</text>
</a>
</g>
</g>
<!-- Node8&#45;&gt;Node16 -->
<g id="edge34_Node000008_Node000016" class="edge">
<title>Node8&#45;&gt;Node16</title>
<g id="a_edge34_Node000008_Node000016"><a xlink:title=" ">
<path fill="none" stroke="#63b8ff" d="M661.73,-182.04C603.75,-177.86 499.94,-167.02 415.35,-140 353.25,-120.16 330.45,-120.1 284.35,-74 271.81,-61.46 263.27,-43.01 258.19,-29.22"/>
<polygon fill="#63b8ff" stroke="#63b8ff" points="261.37,-27.71 254.84,-19.37 254.74,-29.96 261.37,-27.71"/>
</a>
</g>
</g>
<!-- Node8&#45;&gt;Node17 -->
<g id="edge32_Node000008_Node000017" class="edge">
<title>Node8&#45;&gt;Node17</title>
<g id="a_edge32_Node000008_Node000017"><a xlink:title=" ">
<path fill="none" stroke="#63b8ff" d="M713.4,-175.61C724.69,-161.45 747.67,-133.05 768.35,-110 777.05,-100.3 787.15,-89.81 795.38,-81.45"/>
<polygon fill="#63b8ff" stroke="#63b8ff" points="798.03,-83.75 802.58,-74.18 793.06,-78.82 798.03,-83.75"/>
</a>
</g>
</g>
<!-- Node18 -->
<g id="Node000018" class="node">
<title>Node18</title>
<g id="a_Node000018"><a xlink:href="LatLon_8h.html" target="_top" xlink:title="Représentation d&#39;une coordonnée géographique WGS&#45;84 (latitude, longitude).">
<polygon fill="white" stroke="#666666" points="1272.35,-74 1132.35,-74 1132.35,-55 1272.35,-55 1272.35,-74"/>
<text text-anchor="middle" x="1202.35" y="-62" font-family="Helvetica,sans-Serif" font-size="10.00">Modules/Models/LatLon.h</text>
</a>
</g>
</g>
<!-- Node8&#45;&gt;Node18 -->
<g id="edge33_Node000008_Node000018" class="edge">
<title>Node8&#45;&gt;Node18</title>
<g id="a_edge33_Node000008_Node000018"><a xlink:title=" ">
<path fill="none" stroke="#63b8ff" d="M750.89,-183.23C844.02,-180 1056.08,-169.56 1121.35,-140 1149.8,-127.11 1174.95,-100.3 1189.41,-82.6"/>
<polygon fill="#63b8ff" stroke="#63b8ff" points="1192.51,-84.32 1195.96,-74.3 1187.02,-79.99 1192.51,-84.32"/>
</a>
</g>
</g>
<!-- Node8&#45;&gt;Node19 -->
<g id="edge35_Node000008_Node000019" class="edge">
<title>Node8&#45;&gt;Node19</title>
<g id="a_edge35_Node000008_Node000019"><a xlink:title=" ">
<path fill="none" stroke="#63b8ff" d="M750.87,-180.46C862.16,-170.35 1152.97,-143.93 1284.29,-132"/>
<polygon fill="#63b8ff" stroke="#63b8ff" points="1284.96,-135.45 1294.61,-131.06 1284.33,-128.48 1284.96,-135.45"/>
</a>
</g>
</g>
<!-- Node9&#45;&gt;Node3 -->
<g id="edge20_Node000009_Node000003" class="edge">
<title>Node9&#45;&gt;Node3</title>
<g id="a_edge20_Node000009_Node000003"><a xlink:title=" ">
<path fill="none" stroke="#63b8ff" d="M513.57,-115.47C549.1,-100.84 625.3,-70.99 692.35,-55 799.23,-29.51 929.37,-17.31 988.86,-12.74"/>
<polygon fill="#63b8ff" stroke="#63b8ff" points="989.41,-16.21 999.12,-11.97 988.89,-9.22 989.41,-16.21"/>
</a>
</g>
</g>
<!-- Node9&#45;&gt;Node4 -->
<g id="edge21_Node000009_Node000004" class="edge">
<title>Node9&#45;&gt;Node4</title>
<g id="a_edge21_Node000009_Node000004"><a xlink:title=" ">
<path fill="none" stroke="#63b8ff" d="M429.22,-115.46C358.95,-106.03 242.62,-90.21 132.78,-74.19"/>
<polygon fill="#63b8ff" stroke="#63b8ff" points="133.25,-70.72 122.85,-72.74 132.24,-77.65 133.25,-70.72"/>
</a>
</g>
</g>
<!-- Node9&#45;&gt;Node5 -->
<g id="edge22_Node000009_Node000005" class="edge">
<title>Node9&#45;&gt;Node5</title>
<g id="a_edge22_Node000009_Node000005"><a xlink:title=" ">
<path fill="none" stroke="#63b8ff" d="M445.36,-115.49C377.38,-103.44 254.78,-81.71 196.22,-71.33"/>
<polygon fill="#63b8ff" stroke="#63b8ff" points="196.52,-67.83 186.06,-69.53 195.29,-74.72 196.52,-67.83"/>
</a>
</g>
</g>
<!-- Node9&#45;&gt;Node6 -->
<g id="edge23_Node000009_Node000006" class="edge">
<title>Node9&#45;&gt;Node6</title>
<g id="a_edge23_Node000009_Node000006"><a xlink:title=" ">
<path fill="none" stroke="#63b8ff" d="M485.97,-115.39C478.2,-105.88 466.16,-89.81 459.35,-74 453.13,-59.57 449.53,-42.05 447.55,-29.08"/>
<polygon fill="#63b8ff" stroke="#63b8ff" points="451,-28.48 446.19,-19.03 444.06,-29.41 451,-28.48"/>
</a>
</g>
</g>
<!-- Node10 -->
<g id="Node000010" class="node">
<title>Node10</title>
<g id="a_Node000010"><a xlink:title=" ">
<polygon fill="#e0e0e0" stroke="#999999" points="518.35,-74 468.35,-74 468.35,-55 518.35,-55 518.35,-74"/>
<text text-anchor="middle" x="493.35" y="-62" font-family="Helvetica,sans-Serif" font-size="10.00">cstdint</text>
</a>
</g>
</g>
<!-- Node9&#45;&gt;Node10 -->
<g id="edge17_Node000009_Node000010" class="edge">
<title>Node9&#45;&gt;Node10</title>
<g id="a_edge17_Node000009_Node000010"><a xlink:title=" ">
<path fill="none" stroke="#63b8ff" d="M493.35,-115.37C493.35,-107.25 493.35,-94.81 493.35,-84.39"/>
<polygon fill="#63b8ff" stroke="#63b8ff" points="496.85,-84.17 493.35,-74.17 489.85,-84.17 496.85,-84.17"/>
</a>
</g>
</g>
<!-- Node11 -->
<g id="Node000011" class="node">
<title>Node11</title>
<g id="a_Node000011"><a xlink:title=" ">
<polygon fill="#e0e0e0" stroke="#999999" points="601.85,-74 536.85,-74 536.85,-55 601.85,-55 601.85,-74"/>
<text text-anchor="middle" x="569.35" y="-62" font-family="Helvetica,sans-Serif" font-size="10.00">functional</text>
</a>
</g>
</g>
<!-- Node9&#45;&gt;Node11 -->
<g id="edge18_Node000009_Node000011" class="edge">
<title>Node9&#45;&gt;Node11</title>
<g id="a_edge18_Node000009_Node000011"><a xlink:title=" ">
<path fill="none" stroke="#63b8ff" d="M504.56,-115.37C516.46,-106.21 535.49,-91.56 549.85,-80.51"/>
<polygon fill="#63b8ff" stroke="#63b8ff" points="552.3,-83.04 558.09,-74.17 548.03,-77.49 552.3,-83.04"/>
</a>
</g>
</g>
<!-- Node12 -->
<g id="Node000012" class="node">
<title>Node12</title>
<g id="a_Node000012"><a xlink:title=" ">
<polygon fill="#e0e0e0" stroke="#999999" points="1000.35,-74 944.35,-74 944.35,-55 1000.35,-55 1000.35,-74"/>
<text text-anchor="middle" x="972.35" y="-62" font-family="Helvetica,sans-Serif" font-size="10.00">optional</text>
</a>
</g>
</g>
<!-- Node9&#45;&gt;Node12 -->
<g id="edge19_Node000009_Node000012" class="edge">
<title>Node9&#45;&gt;Node12</title>
<g id="a_edge19_Node000009_Node000012"><a xlink:title=" ">
<path fill="none" stroke="#63b8ff" d="M561.98,-115.62C664.22,-103.13 853.17,-80.06 934.02,-70.18"/>
<polygon fill="#63b8ff" stroke="#63b8ff" points="934.73,-73.62 944.24,-68.93 933.89,-66.67 934.73,-73.62"/>
</a>
</g>
</g>
<!-- Node13 -->
<g id="Node000013" class="node">
<title>Node13</title>
<g id="a_Node000013"><a xlink:href="TopologyEdge_8h.html" target="_top" xlink:title="Arête non&#45;orientée du graphe planaire de topologie ferroviaire.">
<polygon fill="white" stroke="#666666" points="411.85,-74 318.85,-74 318.85,-55 411.85,-55 411.85,-74"/>
<text text-anchor="middle" x="365.35" y="-62" font-family="Helvetica,sans-Serif" font-size="10.00">TopologyEdge.h</text>
</a>
</g>
</g>
<!-- Node9&#45;&gt;Node13 -->
<g id="edge24_Node000009_Node000013" class="edge">
<title>Node9&#45;&gt;Node13</title>
<g id="a_edge24_Node000009_Node000013"><a xlink:title=" ">
<path fill="none" stroke="#63b8ff" d="M474.74,-115.49C453.31,-105.7 417.91,-89.52 393.2,-78.23"/>
<polygon fill="#63b8ff" stroke="#63b8ff" points="394.53,-74.99 383.98,-74.02 391.62,-81.36 394.53,-74.99"/>
</a>
</g>
</g>
<!-- Node9&#45;&gt;Node16 -->
<g id="edge30_Node000009_Node000016" class="edge">
<title>Node9&#45;&gt;Node16</title>
<g id="a_edge30_Node000009_Node000016"><a xlink:title=" ">
<path fill="none" stroke="#63b8ff" d="M427.1,-115.43C390.34,-108.44 345,-95.97 309.35,-74 290.31,-62.27 273.91,-42.3 263.65,-27.88"/>
<polygon fill="#63b8ff" stroke="#63b8ff" points="266.36,-25.64 257.83,-19.35 260.58,-29.58 266.36,-25.64"/>
</a>
</g>
</g>
<!-- Node9&#45;&gt;Node17 -->
<g id="edge31_Node000009_Node000017" class="edge">
<title>Node9&#45;&gt;Node17</title>
<g id="a_edge31_Node000009_Node000017"><a xlink:title=" ">
<path fill="none" stroke="#63b8ff" d="M539.59,-115.49C596.7,-104.99 693.8,-87.12 755.15,-75.84"/>
<polygon fill="#63b8ff" stroke="#63b8ff" points="755.85,-79.27 765.05,-74.02 754.58,-72.38 755.85,-79.27"/>
</a>
</g>
</g>
<!-- Node13&#45;&gt;Node3 -->
<g id="edge27_Node000013_Node000003" class="edge">
<title>Node13&#45;&gt;Node3</title>
<g id="a_edge27_Node000013_Node000003"><a xlink:title=" ">
<path fill="none" stroke="#63b8ff" d="M412.2,-59.16C427.25,-57.79 444,-56.3 459.35,-55 660.66,-37.93 902.72,-19.45 988.93,-12.94"/>
<polygon fill="#63b8ff" stroke="#63b8ff" points="989.41,-16.41 999.12,-12.17 988.88,-9.43 989.41,-16.41"/>
</a>
</g>
</g>
<!-- Node13&#45;&gt;Node6 -->
<g id="edge28_Node000013_Node000006" class="edge">
<title>Node13&#45;&gt;Node6</title>
<g id="a_edge28_Node000013_Node000006"><a xlink:title=" ">
<path fill="none" stroke="#63b8ff" d="M378.2,-54.98C390.49,-46.84 409.25,-34.41 423.83,-24.76"/>
<polygon fill="#63b8ff" stroke="#63b8ff" points="425.86,-27.61 432.26,-19.17 421.99,-21.78 425.86,-27.61"/>
</a>
</g>
</g>
<!-- Node14 -->
<g id="Node000014" class="node">
<title>Node14</title>
<g id="a_Node000014"><a xlink:title=" ">
<polygon fill="#e0e0e0" stroke="#999999" points="403.85,-19 356.85,-19 356.85,0 403.85,0 403.85,-19"/>
<text text-anchor="middle" x="380.35" y="-7" font-family="Helvetica,sans-Serif" font-size="10.00">cmath</text>
</a>
</g>
</g>
<!-- Node13&#45;&gt;Node14 -->
<g id="edge25_Node000013_Node000014" class="edge">
<title>Node13&#45;&gt;Node14</title>
<g id="a_edge25_Node000013_Node000014"><a xlink:title=" ">
<path fill="none" stroke="#63b8ff" d="M367.83,-54.75C369.81,-47.72 372.67,-37.62 375.16,-28.84"/>
<polygon fill="#63b8ff" stroke="#63b8ff" points="378.56,-29.66 377.92,-19.09 371.83,-27.76 378.56,-29.66"/>
</a>
</g>
</g>
<!-- Node15 -->
<g id="Node000015" class="node">
<title>Node15</title>
<g id="a_Node000015"><a xlink:title=" ">
<polygon fill="#e0e0e0" stroke="#999999" points="1177.35,-19 1121.35,-19 1121.35,0 1177.35,0 1177.35,-19"/>
<text text-anchor="middle" x="1149.35" y="-7" font-family="Helvetica,sans-Serif" font-size="10.00">sstream</text>
</a>
</g>
</g>
<!-- Node13&#45;&gt;Node15 -->
<g id="edge26_Node000013_Node000015" class="edge">
<title>Node13&#45;&gt;Node15</title>
<g id="a_edge26_Node000013_Node000015"><a xlink:title=" ">
<path fill="none" stroke="#63b8ff" d="M412.18,-58.99C427.24,-57.61 443.99,-56.16 459.35,-55 722.64,-35.11 789.03,-38.53 1052.35,-19 1071.66,-17.57 1093.1,-15.72 1110.91,-14.11"/>
<polygon fill="#63b8ff" stroke="#63b8ff" points="1111.29,-17.59 1120.93,-13.19 1110.65,-10.62 1111.29,-17.59"/>
</a>
</g>
</g>
<!-- Node13&#45;&gt;Node16 -->
<g id="edge29_Node000013_Node000016" class="edge">
<title>Node13&#45;&gt;Node16</title>
<g id="a_edge29_Node000013_Node000016"><a xlink:title=" ">
<path fill="none" stroke="#63b8ff" d="M347.19,-54.98C329.1,-46.5 301.06,-33.35 280.16,-23.54"/>
<polygon fill="#63b8ff" stroke="#63b8ff" points="281.37,-20.25 270.83,-19.17 278.4,-26.59 281.37,-20.25"/>
</a>
</g>
</g>
<!-- Node19&#45;&gt;Node3 -->
<g id="edge41_Node000019_Node000003" class="edge">
<title>Node19&#45;&gt;Node3</title>
<g id="a_edge41_Node000019_Node000003"><a xlink:title=" ">
<path fill="none" stroke="#63b8ff" d="M1340.45,-109.78C1328.44,-93.71 1306.63,-68.08 1281.35,-55 1242.11,-34.7 1114.36,-19.73 1053.78,-13.58"/>
<polygon fill="#63b8ff" stroke="#63b8ff" points="1053.93,-10.07 1043.63,-12.57 1053.24,-17.04 1053.93,-10.07"/>
</a>
</g>
</g>
<!-- Node19&#45;&gt;Node15 -->
<g id="edge40_Node000019_Node000015" class="edge">
<title>Node19&#45;&gt;Node15</title>
<g id="a_edge40_Node000019_Node000015"><a xlink:title=" ">
<path fill="none" stroke="#63b8ff" d="M1405.92,-116.97C1477.59,-107.33 1594.61,-89.46 1607.35,-74 1612.72,-67.48 1613.02,-61.25 1607.35,-55 1579.35,-24.15 1292.92,-14.03 1187.78,-11.34"/>
<polygon fill="#63b8ff" stroke="#63b8ff" points="1187.69,-7.84 1177.61,-11.09 1187.52,-14.83 1187.69,-7.84"/>
</a>
</g>
</g>
<!-- Node20 -->
<g id="Node000020" class="node">
<title>Node20</title>
<g id="a_Node000020"><a xlink:title=" ">
<polygon fill="#e0e0e0" stroke="#999999" points="1372.35,-74 1328.35,-74 1328.35,-55 1372.35,-55 1372.35,-74"/>
<text text-anchor="middle" x="1350.35" y="-62" font-family="Helvetica,sans-Serif" font-size="10.00">ctime</text>
</a>
</g>
</g>
<!-- Node19&#45;&gt;Node20 -->
<g id="edge36_Node000019_Node000020" class="edge">
<title>Node19&#45;&gt;Node20</title>
<g id="a_edge36_Node000019_Node000020"><a xlink:title=" ">
<path fill="none" stroke="#63b8ff" d="M1350.35,-109.84C1350.35,-102.21 1350.35,-92.7 1350.35,-84.45"/>
<polygon fill="#63b8ff" stroke="#63b8ff" points="1353.85,-84.27 1350.35,-74.27 1346.85,-84.27 1353.85,-84.27"/>
</a>
</g>
</g>
<!-- Node21 -->
<g id="Node000021" class="node">
<title>Node21</title>
<g id="a_Node000021"><a xlink:title=" ">
<polygon fill="#e0e0e0" stroke="#999999" points="1458.35,-74 1390.35,-74 1390.35,-55 1458.35,-55 1458.35,-74"/>
<text text-anchor="middle" x="1424.35" y="-62" font-family="Helvetica,sans-Serif" font-size="10.00">filesystem</text>
</a>
</g>
</g>
<!-- Node19&#45;&gt;Node21 -->
<g id="edge37_Node000019_Node000021" class="edge">
<title>Node19&#45;&gt;Node21</title>
<g id="a_edge37_Node000019_Node000021"><a xlink:title=" ">
<path fill="none" stroke="#63b8ff" d="M1368.26,-109.84C1379.44,-101 1393.82,-89.63 1405.22,-80.62"/>
<polygon fill="#63b8ff" stroke="#63b8ff" points="1407.59,-83.21 1413.26,-74.27 1403.24,-77.72 1407.59,-83.21"/>
</a>
</g>
</g>
<!-- Node22 -->
<g id="Node000022" class="node">
<title>Node22</title>
<g id="a_Node000022"><a xlink:title=" ">
<polygon fill="#e0e0e0" stroke="#999999" points="1531.85,-74 1476.85,-74 1476.85,-55 1531.85,-55 1531.85,-74"/>
<text text-anchor="middle" x="1504.35" y="-62" font-family="Helvetica,sans-Serif" font-size="10.00">fstream</text>
</a>
</g>
</g>
<!-- Node19&#45;&gt;Node22 -->
<g id="edge38_Node000019_Node000022" class="edge">
<title>Node19&#45;&gt;Node22</title>
<g id="a_edge38_Node000019_Node000022"><a xlink:title=" ">
<path fill="none" stroke="#63b8ff" d="M1387.24,-109.99C1413.04,-100.18 1447.19,-87.21 1471.95,-77.81"/>
<polygon fill="#63b8ff" stroke="#63b8ff" points="1473.5,-80.96 1481.61,-74.14 1471.01,-74.42 1473.5,-80.96"/>
</a>
</g>
</g>
<!-- Node23 -->
<g id="Node000023" class="node">
<title>Node23</title>
<g id="a_Node000023"><a xlink:title=" ">
<polygon fill="#e0e0e0" stroke="#999999" points="1598.35,-74 1550.35,-74 1550.35,-55 1598.35,-55 1598.35,-74"/>
<text text-anchor="middle" x="1574.35" y="-62" font-family="Helvetica,sans-Serif" font-size="10.00">mutex</text>
</a>
</g>
</g>
<!-- Node19&#45;&gt;Node23 -->
<g id="edge39_Node000019_Node000023" class="edge">
<title>Node19&#45;&gt;Node23</title>
<g id="a_edge39_Node000019_Node000023"><a xlink:title=" ">
<path fill="none" stroke="#63b8ff" d="M1404,-109.99C1446.29,-98.94 1503.98,-83.88 1540.19,-74.42"/>
<polygon fill="#63b8ff" stroke="#63b8ff" points="1541.46,-77.71 1550.25,-71.79 1539.69,-70.93 1541.46,-77.71"/>
</a>
</g>
</g>
<!-- Node24&#45;&gt;Node3 -->
<g id="edge44_Node000024_Node000003" class="edge">
<title>Node24&#45;&gt;Node3</title>
<g id="a_edge44_Node000024_Node000003"><a xlink:title=" ">
<path fill="none" stroke="#63b8ff" d="M1589.24,-115.39C1617.38,-102.63 1661.62,-77.77 1640.35,-55 1600.21,-12.03 1170.96,-23.73 1112.35,-19 1092.83,-17.42 1070.99,-15.39 1053.6,-13.71"/>
<polygon fill="#63b8ff" stroke="#63b8ff" points="1053.69,-10.2 1043.4,-12.72 1053.01,-17.17 1053.69,-10.2"/>
</a>
</g>
</g>
<!-- Node24&#45;&gt;Node6 -->
<g id="edge45_Node000024_Node000006" class="edge">
<title>Node24&#45;&gt;Node6</title>
<g id="a_edge45_Node000024_Node000006"><a xlink:title=" ">
<path fill="none" stroke="#63b8ff" d="M1579.48,-115.48C1596.47,-101.51 1625.1,-73.44 1607.35,-55 1587.25,-34.12 667.98,-14.89 479.07,-11.15"/>
<polygon fill="#63b8ff" stroke="#63b8ff" points="478.97,-7.65 468.9,-10.95 478.83,-14.65 478.97,-7.65"/>
</a>
</g>
</g>
<!-- Node24&#45;&gt;Node15 -->
<g id="edge43_Node000024_Node000015" class="edge">
<title>Node24&#45;&gt;Node15</title>
<g id="a_edge43_Node000024_Node000015"><a xlink:title=" ">
<path fill="none" stroke="#63b8ff" d="M1632.45,-115.46C1685.04,-105.93 1746.32,-87.42 1716.35,-55 1680.56,-16.29 1309.91,-11.2 1187.99,-10.57"/>
<polygon fill="#63b8ff" stroke="#63b8ff" points="1187.66,-7.07 1177.65,-10.53 1187.63,-14.07 1187.66,-7.07"/>
</a>
</g>
</g>
<!-- Node24&#45;&gt;Node18 -->
<g id="edge46_Node000024_Node000018" class="edge">
<title>Node24&#45;&gt;Node18</title>
<g id="a_edge46_Node000024_Node000018"><a xlink:title=" ">
<path fill="none" stroke="#63b8ff" d="M1515.13,-115.49C1448.99,-104.92 1336.26,-86.9 1265.72,-75.63"/>
<polygon fill="#63b8ff" stroke="#63b8ff" points="1266.06,-72.14 1255.63,-74.02 1264.95,-79.05 1266.06,-72.14"/>
</a>
</g>
</g>
<!-- Node25&#45;&gt;Node3 -->
<g id="edge50_Node000025_Node000003" class="edge">
<title>Node25&#45;&gt;Node3</title>
<g id="a_edge50_Node000025_Node000003"><a xlink:title=" ">
<path fill="none" stroke="#63b8ff" d="M1032.4,-115.48C1038.08,-102.42 1047.21,-76.71 1042.35,-55 1040.27,-45.74 1036.04,-36.14 1031.92,-28.23"/>
<polygon fill="#63b8ff" stroke="#63b8ff" points="1034.86,-26.31 1026.93,-19.28 1028.74,-29.72 1034.86,-26.31"/>
</a>
</g>
</g>
<!-- Node25&#45;&gt;Node6 -->
<g id="edge51_Node000025_Node000006" class="edge">
<title>Node25&#45;&gt;Node6</title>
<g id="a_edge51_Node000025_Node000006"><a xlink:title=" ">
<path fill="none" stroke="#63b8ff" d="M1028.85,-115.13C1029.16,-100.12 1027.36,-69.88 1009.35,-55 968.41,-21.18 594.19,-12.74 478.96,-10.94"/>
<polygon fill="#63b8ff" stroke="#63b8ff" points="478.99,-7.44 468.94,-10.79 478.89,-14.44 478.99,-7.44"/>
</a>
</g>
</g>
<!-- Node25&#45;&gt;Node12 -->
<g id="edge48_Node000025_Node000012" class="edge">
<title>Node25&#45;&gt;Node12</title>
<g id="a_edge48_Node000025_Node000012"><a xlink:title=" ">
<path fill="none" stroke="#63b8ff" d="M1020.09,-115.37C1011.57,-106.47 998.09,-92.39 987.62,-81.45"/>
<polygon fill="#63b8ff" stroke="#63b8ff" points="990.09,-78.97 980.65,-74.17 985.03,-83.81 990.09,-78.97"/>
</a>
</g>
</g>
<!-- Node25&#45;&gt;Node15 -->
<g id="edge49_Node000025_Node000015" class="edge">
<title>Node25&#45;&gt;Node15</title>
<g id="a_edge49_Node000025_Node000015"><a xlink:title=" ">
<path fill="none" stroke="#63b8ff" d="M1037.44,-115.47C1057.68,-96.49 1106.67,-50.53 1132.6,-26.21"/>
<polygon fill="#63b8ff" stroke="#63b8ff" points="1135.25,-28.52 1140.15,-19.13 1130.46,-23.42 1135.25,-28.52"/>
</a>
</g>
</g>
<!-- Node25&#45;&gt;Node18 -->
<g id="edge52_Node000025_Node000018" class="edge">
<title>Node25&#45;&gt;Node18</title>
<g id="a_edge52_Node000025_Node000018"><a xlink:title=" ">
<path fill="none" stroke="#63b8ff" d="M1053.65,-115.49C1083.55,-105.44 1133.47,-88.66 1167.13,-77.34"/>
<polygon fill="#63b8ff" stroke="#63b8ff" points="1168.65,-80.52 1177.02,-74.02 1166.42,-73.89 1168.65,-80.52"/>
</a>
</g>
</g>
</g>
</svg>
