<?xml version="1.0" encoding="UTF-8" standalone="no"?>
<!DOCTYPE svg PUBLIC "-//W3C//DTD SVG 1.1//EN"
 "http://www.w3.org/Graphics/SVG/1.1/DTD/svg11.dtd">
<!-- Generated by graphviz version 2.43.0 (0)
 -->
<!-- Title: SimulateurFerroviaire/Modules/GeoParser/SwitchOrientator.cpp Pages: 1 -->
<svg width="2229pt" height="412pt"
 viewBox="0.00 0.00 2229.37 412.00" xmlns="http://www.w3.org/2000/svg" xmlns:xlink="http://www.w3.org/1999/xlink">
<g id="graph0" class="graph" transform="scale(1 1) rotate(0) translate(4 408)">
<title>SimulateurFerroviaire/Modules/GeoParser/SwitchOrientator.cpp</title>
<!-- Node1 -->
<g id="Node000001" class="node">
<title>Node1</title>
<g id="a_Node000001"><a xlink:title="Implémentation des phases 6, 6b, 6c et 6d — orientation des aiguillages.">
<polygon fill="#999999" stroke="#666666" points="1513.37,-404 1295.37,-404 1295.37,-374 1513.37,-374 1513.37,-404"/>
<text text-anchor="start" x="1303.37" y="-392" font-family="Helvetica,sans-Serif" font-size="10.00">SimulateurFerroviaire</text>
<text text-anchor="middle" x="1404.37" y="-381" font-family="Helvetica,sans-Serif" font-size="10.00">/Modules/GeoParser/SwitchOrientator.cpp</text>
</a>
</g>
</g>
<!-- Node2 -->
<g id="Node000002" class="node">
<title>Node2</title>
<g id="a_Node000002"><a xlink:href="SwitchOrientator_8h.html" target="_top" xlink:title="Phases 6, 6b, 6c et 6d — orientation géométrique des aiguillages.">
<polygon fill="white" stroke="#666666" points="771.87,-338 664.87,-338 664.87,-319 771.87,-319 771.87,-338"/>
<text text-anchor="middle" x="718.37" y="-326" font-family="Helvetica,sans-Serif" font-size="10.00">SwitchOrientator.h</text>
</a>
</g>
</g>
<!-- Node1&#45;&gt;Node2 -->
<g id="edge1_Node000001_Node000002" class="edge">
<title>Node1&#45;&gt;Node2</title>
<g id="a_edge1_Node000001_Node000002"><a xlink:title=" ">
<path fill="none" stroke="#63b8ff" d="M1295.3,-378.7C1150.53,-366.35 899.58,-344.95 782.27,-334.95"/>
<polygon fill="#63b8ff" stroke="#63b8ff" points="782.28,-331.44 772.02,-334.07 781.68,-338.41 782.28,-331.44"/>
</a>
</g>
</g>
<!-- Node3 -->
<g id="Node000003" class="node">
<title>Node3</title>
<g id="a_Node000003"><a xlink:title=" ">
<polygon fill="#e0e0e0" stroke="#999999" points="206.37,-156.5 174.37,-156.5 174.37,-137.5 206.37,-137.5 206.37,-156.5"/>
<text text-anchor="middle" x="190.37" y="-144.5" font-family="Helvetica,sans-Serif" font-size="10.00">set</text>
</a>
</g>
</g>
<!-- Node1&#45;&gt;Node3 -->
<g id="edge64_Node000001_Node000003" class="edge">
<title>Node1&#45;&gt;Node3</title>
<g id="a_edge64_Node000001_Node000003"><a xlink:title=" ">
<path fill="none" stroke="#63b8ff" d="M1295.2,-383.81C1021.93,-372.54 323.92,-338.6 235.37,-283 196.41,-258.54 190.32,-198.23 189.9,-167.17"/>
<polygon fill="#63b8ff" stroke="#63b8ff" points="193.4,-166.86 189.95,-156.84 186.4,-166.82 193.4,-166.86"/>
</a>
</g>
</g>
<!-- Node6 -->
<g id="Node000006" class="node">
<title>Node6</title>
<g id="a_Node000006"><a xlink:title=" ">
<polygon fill="#e0e0e0" stroke="#999999" points="190.87,-90.5 145.87,-90.5 145.87,-71.5 190.87,-71.5 190.87,-90.5"/>
<text text-anchor="middle" x="168.37" y="-78.5" font-family="Helvetica,sans-Serif" font-size="10.00">utility</text>
</a>
</g>
</g>
<!-- Node1&#45;&gt;Node6 -->
<g id="edge65_Node000001_Node000006" class="edge">
<title>Node1&#45;&gt;Node6</title>
<g id="a_edge65_Node000001_Node000006"><a xlink:title=" ">
<path fill="none" stroke="#63b8ff" d="M1295.28,-387.96C1109.7,-386.7 721.02,-378.86 395.37,-338 254.53,-320.33 82.37,-416.45 82.37,-274.5 82.37,-274.5 82.37,-274.5 82.37,-212 82.37,-163.86 123.9,-119.85 149.24,-97.48"/>
<polygon fill="#63b8ff" stroke="#63b8ff" points="151.8,-99.9 157.13,-90.74 147.25,-94.57 151.8,-99.9"/>
</a>
</g>
</g>
<!-- Node15 -->
<g id="Node000015" class="node">
<title>Node15</title>
<g id="a_Node000015"><a xlink:title=" ">
<polygon fill="#e0e0e0" stroke="#999999" points="1924.87,-24.5 1877.87,-24.5 1877.87,-5.5 1924.87,-5.5 1924.87,-24.5"/>
<text text-anchor="middle" x="1901.37" y="-12.5" font-family="Helvetica,sans-Serif" font-size="10.00">cmath</text>
</a>
</g>
</g>
<!-- Node1&#45;&gt;Node15 -->
<g id="edge66_Node000001_Node000015" class="edge">
<title>Node1&#45;&gt;Node15</title>
<g id="a_edge66_Node000001_Node000015"><a xlink:title=" ">
<path fill="none" stroke="#63b8ff" d="M1513.7,-381.98C1716.23,-369.35 2129.37,-336.05 2129.37,-274.5 2129.37,-274.5 2129.37,-274.5 2129.37,-146 2129.37,-57.52 1998.18,-28.47 1934.83,-19.6"/>
<polygon fill="#63b8ff" stroke="#63b8ff" points="1935.29,-16.13 1924.92,-18.3 1934.38,-23.07 1935.29,-16.13"/>
</a>
</g>
</g>
<!-- Node29 -->
<g id="Node000029" class="node">
<title>Node29</title>
<g id="a_Node000029"><a xlink:title=" ">
<polygon fill="#e0e0e0" stroke="#999999" points="2221.37,-338 2157.37,-338 2157.37,-319 2221.37,-319 2221.37,-338"/>
<text text-anchor="middle" x="2189.37" y="-326" font-family="Helvetica,sans-Serif" font-size="10.00">algorithm</text>
</a>
</g>
</g>
<!-- Node1&#45;&gt;Node29 -->
<g id="edge63_Node000001_Node000029" class="edge">
<title>Node1&#45;&gt;Node29</title>
<g id="a_edge63_Node000001_Node000029"><a xlink:title=" ">
<path fill="none" stroke="#63b8ff" d="M1513.38,-384.55C1657.88,-379.08 1920.58,-366.03 2143.37,-338 2144.64,-337.84 2145.93,-337.67 2147.23,-337.49"/>
<polygon fill="#63b8ff" stroke="#63b8ff" points="2147.94,-340.92 2157.28,-335.92 2146.86,-334 2147.94,-340.92"/>
</a>
</g>
</g>
<!-- Node30 -->
<g id="Node000030" class="node">
<title>Node30</title>
<g id="a_Node000030"><a xlink:href="GeometryUtils_8h.html" target="_top" xlink:title="Utilitaires géométriques métriques pour le pipeline ferroviaire.">
<polygon fill="white" stroke="#666666" points="1728.37,-156.5 1600.37,-156.5 1600.37,-137.5 1728.37,-137.5 1728.37,-156.5"/>
<text text-anchor="middle" x="1664.37" y="-144.5" font-family="Helvetica,sans-Serif" font-size="10.00">./Utils/GeometryUtils.h</text>
</a>
</g>
</g>
<!-- Node1&#45;&gt;Node30 -->
<g id="edge67_Node000001_Node000030" class="edge">
<title>Node1&#45;&gt;Node30</title>
<g id="a_edge67_Node000001_Node000030"><a xlink:title=" ">
<path fill="none" stroke="#63b8ff" d="M1419.86,-373.71C1465.65,-331.44 1600.16,-207.28 1647.59,-163.5"/>
<polygon fill="#63b8ff" stroke="#63b8ff" points="1650.17,-165.87 1655.15,-156.52 1645.43,-160.73 1650.17,-165.87"/>
</a>
</g>
</g>
<!-- Node2&#45;&gt;Node3 -->
<g id="edge2_Node000002_Node000003" class="edge">
<title>Node2&#45;&gt;Node3</title>
<g id="a_edge2_Node000002_Node000003"><a xlink:title=" ">
<path fill="none" stroke="#63b8ff" d="M664.58,-325.2C550.35,-319.89 291.27,-305.52 258.37,-283 218.24,-255.53 200.58,-197.08 193.88,-166.91"/>
<polygon fill="#63b8ff" stroke="#63b8ff" points="197.26,-165.95 191.83,-156.85 190.4,-167.35 197.26,-165.95"/>
</a>
</g>
</g>
<!-- Node4 -->
<g id="Node000004" class="node">
<title>Node4</title>
<g id="a_Node000004"><a xlink:title=" ">
<polygon fill="#e0e0e0" stroke="#999999" points="824.37,-24.5 780.37,-24.5 780.37,-5.5 824.37,-5.5 824.37,-24.5"/>
<text text-anchor="middle" x="802.37" y="-12.5" font-family="Helvetica,sans-Serif" font-size="10.00">string</text>
</a>
</g>
</g>
<!-- Node2&#45;&gt;Node4 -->
<g id="edge3_Node000002_Node000004" class="edge">
<title>Node2&#45;&gt;Node4</title>
<g id="a_edge3_Node000002_Node000004"><a xlink:title=" ">
<path fill="none" stroke="#63b8ff" d="M664.53,-326.75C555.22,-324.54 311.26,-315.96 235.37,-283 112.27,-229.54 -66.43,-163.9 25.37,-66 51.23,-38.43 625.06,-20.87 769.57,-16.87"/>
<polygon fill="#63b8ff" stroke="#63b8ff" points="770.07,-20.36 779.97,-16.59 769.88,-13.36 770.07,-20.36"/>
</a>
</g>
</g>
<!-- Node5 -->
<g id="Node000005" class="node">
<title>Node5</title>
<g id="a_Node000005"><a xlink:title=" ">
<polygon fill="#e0e0e0" stroke="#999999" points="127.87,-90.5 34.87,-90.5 34.87,-71.5 127.87,-71.5 127.87,-90.5"/>
<text text-anchor="middle" x="81.37" y="-78.5" font-family="Helvetica,sans-Serif" font-size="10.00">unordered_map</text>
</a>
</g>
</g>
<!-- Node2&#45;&gt;Node5 -->
<g id="edge4_Node000002_Node000005" class="edge">
<title>Node2&#45;&gt;Node5</title>
<g id="a_edge4_Node000002_Node000005"><a xlink:title=" ">
<path fill="none" stroke="#63b8ff" d="M664.81,-327.89C554.87,-327.83 307.99,-323.09 235.37,-283 158.2,-240.39 107.43,-141.19 89.06,-100.21"/>
<polygon fill="#63b8ff" stroke="#63b8ff" points="92.21,-98.68 85,-90.91 85.79,-101.48 92.21,-98.68"/>
</a>
</g>
</g>
<!-- Node2&#45;&gt;Node6 -->
<g id="edge5_Node000002_Node000006" class="edge">
<title>Node2&#45;&gt;Node6</title>
<g id="a_edge5_Node000002_Node000006"><a xlink:title=" ">
<path fill="none" stroke="#63b8ff" d="M686.3,-318.93C655.56,-310.51 607.96,-296.92 567.37,-283 443.37,-240.46 412.64,-226.26 298.37,-162 259.49,-140.13 215.54,-112.44 189.99,-96.03"/>
<polygon fill="#63b8ff" stroke="#63b8ff" points="191.76,-93 181.46,-90.53 187.96,-98.89 191.76,-93"/>
</a>
</g>
</g>
<!-- Node7 -->
<g id="Node000007" class="node">
<title>Node7</title>
<g id="a_Node000007"><a xlink:title=" ">
<polygon fill="#e0e0e0" stroke="#999999" points="1784.87,-24.5 1737.87,-24.5 1737.87,-5.5 1784.87,-5.5 1784.87,-24.5"/>
<text text-anchor="middle" x="1761.37" y="-12.5" font-family="Helvetica,sans-Serif" font-size="10.00">vector</text>
</a>
</g>
</g>
<!-- Node2&#45;&gt;Node7 -->
<g id="edge6_Node000002_Node000007" class="edge">
<title>Node2&#45;&gt;Node7</title>
<g id="a_edge6_Node000002_Node000007"><a xlink:title=" ">
<path fill="none" stroke="#63b8ff" d="M771.95,-325.8C1020.97,-317.56 2053.37,-279.46 2053.37,-214 2053.37,-214 2053.37,-214 2053.37,-146 2053.37,-101.82 2031.49,-89.97 1994.37,-66 1961.72,-44.92 1851.49,-27.85 1795.14,-20.26"/>
<polygon fill="#63b8ff" stroke="#63b8ff" points="1795.33,-16.75 1784.95,-18.91 1794.41,-23.69 1795.33,-16.75"/>
</a>
</g>
</g>
<!-- Node8 -->
<g id="Node000008" class="node">
<title>Node8</title>
<g id="a_Node000008"><a xlink:href="TopologyExtractor_8h.html" target="_top" xlink:title="Phases 3, 4, 5a et 5b — extraction de la topologie ferroviaire depuis le graphe.">
<polygon fill="white" stroke="#666666" points="689.87,-283 576.87,-283 576.87,-264 689.87,-264 689.87,-283"/>
<text text-anchor="middle" x="633.37" y="-271" font-family="Helvetica,sans-Serif" font-size="10.00">TopologyExtractor.h</text>
</a>
</g>
</g>
<!-- Node2&#45;&gt;Node8 -->
<g id="edge7_Node000002_Node000008" class="edge">
<title>Node2&#45;&gt;Node8</title>
<g id="a_edge7_Node000002_Node000008"><a xlink:title=" ">
<path fill="none" stroke="#63b8ff" d="M704.72,-318.98C691.54,-310.77 671.35,-298.18 655.8,-288.49"/>
<polygon fill="#63b8ff" stroke="#63b8ff" points="657.62,-285.49 647.28,-283.17 653.91,-291.43 657.62,-285.49"/>
</a>
</g>
</g>
<!-- Node18 -->
<g id="Node000018" class="node">
<title>Node18</title>
<g id="a_Node000018"><a xlink:href="GeoParserEnums_8h.html" target="_top" xlink:title="Constantes nommées et énumérations du pipeline ferroviaire GeoParser.">
<polygon fill="white" stroke="#666666" points="704.87,-90.5 551.87,-90.5 551.87,-71.5 704.87,-71.5 704.87,-90.5"/>
<text text-anchor="middle" x="628.37" y="-78.5" font-family="Helvetica,sans-Serif" font-size="10.00">../Enums/GeoParserEnums.h</text>
</a>
</g>
</g>
<!-- Node2&#45;&gt;Node18 -->
<g id="edge61_Node000002_Node000018" class="edge">
<title>Node2&#45;&gt;Node18</title>
<g id="a_edge61_Node000002_Node000018"><a xlink:title=" ">
<path fill="none" stroke="#63b8ff" d="M715.79,-318.83C712.11,-306.56 705.05,-283.46 698.37,-264 678.08,-204.8 672.38,-190.19 649.37,-132 645.15,-121.33 640.19,-109.48 636.15,-100"/>
<polygon fill="#63b8ff" stroke="#63b8ff" points="639.36,-98.61 632.2,-90.81 632.93,-101.38 639.36,-98.61"/>
</a>
</g>
</g>
<!-- Node20 -->
<g id="Node000020" class="node">
<title>Node20</title>
<g id="a_Node000020"><a xlink:href="Logger_8h.html" target="_top" xlink:title="Système de journalisation à 5 niveaux de trace, un fichier par moteur.">
<polygon fill="white" stroke="#666666" points="1014.87,-162 903.87,-162 903.87,-132 1014.87,-132 1014.87,-162"/>
<text text-anchor="start" x="911.87" y="-150" font-family="Helvetica,sans-Serif" font-size="10.00">Engine/Core/Logger</text>
<text text-anchor="middle" x="959.37" y="-139" font-family="Helvetica,sans-Serif" font-size="10.00">/Logger.h</text>
</a>
</g>
</g>
<!-- Node2&#45;&gt;Node20 -->
<g id="edge62_Node000002_Node000020" class="edge">
<title>Node2&#45;&gt;Node20</title>
<g id="a_edge62_Node000002_Node000020"><a xlink:title=" ">
<path fill="none" stroke="#63b8ff" d="M730,-318.84C766.52,-291.64 879.62,-207.41 932.1,-168.31"/>
<polygon fill="#63b8ff" stroke="#63b8ff" points="934.35,-171 940.28,-162.22 930.17,-165.39 934.35,-171"/>
</a>
</g>
</g>
<!-- Node25 -->
<g id="Node000025" class="node">
<title>Node25</title>
<g id="a_Node000025"><a xlink:href="StraightBlock_8h.html" target="_top" xlink:title="Modèle de domaine d&#39;un bloc de voie droite (Straight).">
<polygon fill="white" stroke="#666666" points="1327.87,-228 1142.87,-228 1142.87,-198 1327.87,-198 1327.87,-228"/>
<text text-anchor="start" x="1150.87" y="-216" font-family="Helvetica,sans-Serif" font-size="10.00">Modules/InteractiveElements</text>
<text text-anchor="middle" x="1235.37" y="-205" font-family="Helvetica,sans-Serif" font-size="10.00">/ShuntingElements/StraightBlock.h</text>
</a>
</g>
</g>
<!-- Node2&#45;&gt;Node25 -->
<g id="edge59_Node000002_Node000025" class="edge">
<title>Node2&#45;&gt;Node25</title>
<g id="a_edge59_Node000002_Node000025"><a xlink:title=" ">
<path fill="none" stroke="#63b8ff" d="M771.97,-326.45C845.07,-323.81 979.5,-314.64 1089.37,-283 1130.21,-271.24 1173.88,-249.21 1202.71,-233.2"/>
<polygon fill="#63b8ff" stroke="#63b8ff" points="1204.53,-236.19 1211.52,-228.23 1201.09,-230.09 1204.53,-236.19"/>
</a>
</g>
</g>
<!-- Node28 -->
<g id="Node000028" class="node">
<title>Node28</title>
<g id="a_Node000028"><a xlink:href="SwitchBlock_8h.html" target="_top" xlink:title="Modèle de domaine d&#39;un aiguillage ferroviaire à 3 branches (Switch).">
<polygon fill="white" stroke="#666666" points="1581.87,-162 1402.87,-162 1402.87,-132 1581.87,-132 1581.87,-162"/>
<text text-anchor="start" x="1410.87" y="-150" font-family="Helvetica,sans-Serif" font-size="10.00">Modules/InteractiveElements</text>
<text text-anchor="middle" x="1492.37" y="-139" font-family="Helvetica,sans-Serif" font-size="10.00">/ShuntingElements/SwitchBlock.h</text>
</a>
</g>
</g>
<!-- Node2&#45;&gt;Node28 -->
<g id="edge60_Node000002_Node000028" class="edge">
<title>Node2&#45;&gt;Node28</title>
<g id="a_edge60_Node000002_Node000028"><a xlink:title=" ">
<path fill="none" stroke="#63b8ff" d="M741.47,-318.84C803.89,-295.77 981.58,-232.21 1134.37,-198 1220.64,-178.68 1320.38,-165.48 1392.63,-157.52"/>
<polygon fill="#63b8ff" stroke="#63b8ff" points="1393.08,-160.99 1402.64,-156.43 1392.32,-154.03 1393.08,-160.99"/>
</a>
</g>
</g>
<!-- Node8&#45;&gt;Node3 -->
<g id="edge8_Node000008_Node000003" class="edge">
<title>Node8&#45;&gt;Node3</title>
<g id="a_edge8_Node000008_Node000003"><a xlink:title=" ">
<path fill="none" stroke="#63b8ff" d="M576.61,-268.52C494.2,-262.15 345.86,-248.28 296.37,-228 259.97,-213.08 225.01,-182.51 205.73,-163.78"/>
<polygon fill="#63b8ff" stroke="#63b8ff" points="208.03,-161.13 198.48,-156.56 203.09,-166.09 208.03,-161.13"/>
</a>
</g>
</g>
<!-- Node8&#45;&gt;Node4 -->
<g id="edge9_Node000008_Node000004" class="edge">
<title>Node8&#45;&gt;Node4</title>
<g id="a_edge9_Node000008_Node000004"><a xlink:title=" ">
<path fill="none" stroke="#63b8ff" d="M605.33,-263.99C554.29,-247.92 443.65,-210.32 358.37,-162 308.28,-133.61 232.61,-108.58 271.37,-66 305.04,-29.01 660.1,-18.84 770.08,-16.57"/>
<polygon fill="#63b8ff" stroke="#63b8ff" points="770.31,-20.07 780.23,-16.37 770.17,-13.07 770.31,-20.07"/>
</a>
</g>
</g>
<!-- Node8&#45;&gt;Node5 -->
<g id="edge10_Node000008_Node000005" class="edge">
<title>Node8&#45;&gt;Node5</title>
<g id="a_edge10_Node000008_Node000005"><a xlink:title=" ">
<path fill="none" stroke="#63b8ff" d="M576.67,-272.8C514.66,-271.19 413.56,-262.73 334.37,-228 272.14,-200.71 274.41,-165.65 215.37,-132 185.88,-115.19 149.67,-102.08 122.33,-93.5"/>
<polygon fill="#63b8ff" stroke="#63b8ff" points="123.28,-90.13 112.69,-90.55 121.23,-96.83 123.28,-90.13"/>
</a>
</g>
</g>
<!-- Node8&#45;&gt;Node6 -->
<g id="edge11_Node000008_Node000006" class="edge">
<title>Node8&#45;&gt;Node6</title>
<g id="a_edge11_Node000008_Node000006"><a xlink:title=" ">
<path fill="none" stroke="#63b8ff" d="M612.28,-263.93C566.66,-245.4 455.45,-200.17 362.37,-162 304.36,-138.21 236.66,-110.25 198.52,-94.48"/>
<polygon fill="#63b8ff" stroke="#63b8ff" points="199.61,-91.14 189.04,-90.55 196.94,-97.61 199.61,-91.14"/>
</a>
</g>
</g>
<!-- Node8&#45;&gt;Node7 -->
<g id="edge12_Node000008_Node000007" class="edge">
<title>Node8&#45;&gt;Node7</title>
<g id="a_edge12_Node000008_Node000007"><a xlink:title=" ">
<path fill="none" stroke="#63b8ff" d="M690.21,-272.29C934.78,-270.82 1889.01,-258.85 1976.37,-162 1986.65,-150.61 1996.45,-92.16 1975.37,-66 1964.05,-51.95 1852.55,-31.35 1795.15,-21.56"/>
<polygon fill="#63b8ff" stroke="#63b8ff" points="1795.54,-18.08 1785.1,-19.86 1794.37,-24.98 1795.54,-18.08"/>
</a>
</g>
</g>
<!-- Node9 -->
<g id="Node000009" class="node">
<title>Node9</title>
<g id="a_Node000009"><a xlink:href="GraphBuilder_8h.html" target="_top" xlink:title="Phases 1 et 2 du pipeline — chargement GeoJSON et construction du graphe métrique.">
<polygon fill="white" stroke="#666666" points="628.87,-222.5 539.87,-222.5 539.87,-203.5 628.87,-203.5 628.87,-222.5"/>
<text text-anchor="middle" x="584.37" y="-210.5" font-family="Helvetica,sans-Serif" font-size="10.00">GraphBuilder.h</text>
</a>
</g>
</g>
<!-- Node8&#45;&gt;Node9 -->
<g id="edge13_Node000008_Node000009" class="edge">
<title>Node8&#45;&gt;Node9</title>
<g id="a_edge13_Node000008_Node000009"><a xlink:title=" ">
<path fill="none" stroke="#63b8ff" d="M626.14,-263.87C618.83,-255.14 607.35,-241.43 598.27,-230.59"/>
<polygon fill="#63b8ff" stroke="#63b8ff" points="600.74,-228.09 591.63,-222.67 595.37,-232.58 600.74,-228.09"/>
</a>
</g>
</g>
<!-- Node8&#45;&gt;Node18 -->
<g id="edge57_Node000008_Node000018" class="edge">
<title>Node8&#45;&gt;Node18</title>
<g id="a_edge57_Node000008_Node000018"><a xlink:title=" ">
<path fill="none" stroke="#63b8ff" d="M634.37,-263.98C635.36,-255.04 636.81,-240.55 637.37,-228 639.43,-182.27 634.13,-128.56 630.81,-100.77"/>
<polygon fill="#63b8ff" stroke="#63b8ff" points="634.25,-100.04 629.54,-90.55 627.3,-100.91 634.25,-100.04"/>
</a>
</g>
</g>
<!-- Node8&#45;&gt;Node20 -->
<g id="edge58_Node000008_Node000020" class="edge">
<title>Node8&#45;&gt;Node20</title>
<g id="a_edge58_Node000008_Node000020"><a xlink:title=" ">
<path fill="none" stroke="#63b8ff" d="M655.78,-263.94C708.61,-243.77 841.83,-192.89 912.95,-165.73"/>
<polygon fill="#63b8ff" stroke="#63b8ff" points="914.47,-168.9 922.56,-162.06 911.97,-162.36 914.47,-168.9"/>
</a>
</g>
</g>
<!-- Node8&#45;&gt;Node25 -->
<g id="edge43_Node000008_Node000025" class="edge">
<title>Node8&#45;&gt;Node25</title>
<g id="a_edge43_Node000008_Node000025"><a xlink:title=" ">
<path fill="none" stroke="#63b8ff" d="M690.01,-267C791.32,-257.15 1004.89,-236.4 1132.64,-223.98"/>
<polygon fill="#63b8ff" stroke="#63b8ff" points="1133.21,-227.44 1142.83,-222.99 1132.54,-220.48 1133.21,-227.44"/>
</a>
</g>
</g>
<!-- Node8&#45;&gt;Node28 -->
<g id="edge51_Node000008_Node000028" class="edge">
<title>Node8&#45;&gt;Node28</title>
<g id="a_edge51_Node000008_Node000028"><a xlink:title=" ">
<path fill="none" stroke="#63b8ff" d="M677.6,-263.95C755.12,-249.15 920.67,-218.39 1061.37,-198 1174.5,-181.61 1304.94,-167.08 1392.43,-157.97"/>
<polygon fill="#63b8ff" stroke="#63b8ff" points="1393.03,-161.42 1402.62,-156.91 1392.31,-154.46 1393.03,-161.42"/>
</a>
</g>
</g>
<!-- Node9&#45;&gt;Node3 -->
<g id="edge14_Node000009_Node000003" class="edge">
<title>Node9&#45;&gt;Node3</title>
<g id="a_edge14_Node000009_Node000003"><a xlink:title=" ">
<path fill="none" stroke="#63b8ff" d="M539.56,-204.72C456.83,-191.28 282.55,-162.97 216.5,-152.24"/>
<polygon fill="#63b8ff" stroke="#63b8ff" points="216.94,-148.77 206.51,-150.62 215.82,-155.68 216.94,-148.77"/>
</a>
</g>
</g>
<!-- Node9&#45;&gt;Node4 -->
<g id="edge15_Node000009_Node000004" class="edge">
<title>Node9&#45;&gt;Node4</title>
<g id="a_edge15_Node000009_Node000004"><a xlink:title=" ">
<path fill="none" stroke="#63b8ff" d="M542.81,-203.5C506.82,-195.33 453.87,-181.38 410.37,-162 387.39,-151.76 384.59,-143.8 362.37,-132 327.58,-113.51 302.84,-129.03 281.37,-96 274.11,-84.82 272.41,-75.87 281.37,-66 314.34,-29.72 661.99,-19.07 770.33,-16.63"/>
<polygon fill="#63b8ff" stroke="#63b8ff" points="770.41,-20.13 780.33,-16.41 770.26,-13.13 770.41,-20.13"/>
</a>
</g>
</g>
<!-- Node9&#45;&gt;Node7 -->
<g id="edge16_Node000009_Node000007" class="edge">
<title>Node9&#45;&gt;Node7</title>
<g id="a_edge16_Node000009_Node000007"><a xlink:title=" ">
<path fill="none" stroke="#63b8ff" d="M628.95,-210.89C837.42,-205.59 1708.43,-182.31 1762.37,-162 1814.89,-142.23 1871.98,-114.85 1844.37,-66 1833.71,-47.13 1812.76,-34.59 1794.57,-26.79"/>
<polygon fill="#63b8ff" stroke="#63b8ff" points="1795.7,-23.47 1785.11,-23.03 1793.11,-29.97 1795.7,-23.47"/>
</a>
</g>
</g>
<!-- Node10 -->
<g id="Node000010" class="node">
<title>Node10</title>
<g id="a_Node000010"><a xlink:href="TopologyGraph_8h.html" target="_top" xlink:title="Graphe planaire non&#45;orienté de nœuds et d&#39;arêtes ferroviaires accrochés.">
<polygon fill="white" stroke="#666666" points="590.87,-156.5 453.87,-156.5 453.87,-137.5 590.87,-137.5 590.87,-156.5"/>
<text text-anchor="middle" x="522.37" y="-144.5" font-family="Helvetica,sans-Serif" font-size="10.00">./Graph/TopologyGraph.h</text>
</a>
</g>
</g>
<!-- Node9&#45;&gt;Node10 -->
<g id="edge17_Node000009_Node000010" class="edge">
<title>Node9&#45;&gt;Node10</title>
<g id="a_edge17_Node000009_Node000010"><a xlink:title=" ">
<path fill="none" stroke="#63b8ff" d="M576.01,-203.37C566.36,-193.4 550.27,-176.79 538.22,-164.36"/>
<polygon fill="#63b8ff" stroke="#63b8ff" points="540.47,-161.65 531,-156.91 535.44,-166.52 540.47,-161.65"/>
</a>
</g>
</g>
<!-- Node17 -->
<g id="Node000017" class="node">
<title>Node17</title>
<g id="a_Node000017"><a xlink:href="CoordinateXY_8h.html" target="_top" xlink:title="Représentation d&#39;une coordonnée plane en mètres (système métrique UTM).">
<polygon fill="white" stroke="#666666" points="1166.87,-30 1047.87,-30 1047.87,0 1166.87,0 1166.87,-30"/>
<text text-anchor="start" x="1055.87" y="-18" font-family="Helvetica,sans-Serif" font-size="10.00">Modules/Coordinates</text>
<text text-anchor="middle" x="1107.37" y="-7" font-family="Helvetica,sans-Serif" font-size="10.00">/CoordinateXY.h</text>
</a>
</g>
</g>
<!-- Node9&#45;&gt;Node17 -->
<g id="edge35_Node000009_Node000017" class="edge">
<title>Node9&#45;&gt;Node17</title>
<g id="a_edge35_Node000009_Node000017"><a xlink:title=" ">
<path fill="none" stroke="#63b8ff" d="M553.4,-203.43C524.4,-194.83 480.26,-180.26 444.37,-162 423.28,-151.27 420.21,-144.91 400.37,-132 374.95,-115.45 357.12,-122.51 342.37,-96 335.89,-84.35 333.26,-75.73 342.37,-66 348.29,-59.68 849.84,-30.61 1037.53,-19.94"/>
<polygon fill="#63b8ff" stroke="#63b8ff" points="1037.78,-23.43 1047.56,-19.37 1037.38,-16.44 1037.78,-23.43"/>
</a>
</g>
</g>
<!-- Node9&#45;&gt;Node18 -->
<g id="edge33_Node000009_Node000018" class="edge">
<title>Node9&#45;&gt;Node18</title>
<g id="a_edge33_Node000009_Node000018"><a xlink:title=" ">
<path fill="none" stroke="#63b8ff" d="M587.26,-203.47C594.31,-182.63 612.54,-128.77 622.19,-100.28"/>
<polygon fill="#63b8ff" stroke="#63b8ff" points="625.53,-101.33 625.42,-90.73 618.9,-99.08 625.53,-101.33"/>
</a>
</g>
</g>
<!-- Node19 -->
<g id="Node000019" class="node">
<title>Node19</title>
<g id="a_Node000019"><a xlink:href="LatLon_8h.html" target="_top" xlink:title="Représentation d&#39;une coordonnée géographique WGS&#45;84 (latitude, longitude).">
<polygon fill="white" stroke="#666666" points="1834.87,-96 1715.87,-96 1715.87,-66 1834.87,-66 1834.87,-96"/>
<text text-anchor="start" x="1723.87" y="-84" font-family="Helvetica,sans-Serif" font-size="10.00">Modules/Coordinates</text>
<text text-anchor="middle" x="1775.37" y="-73" font-family="Helvetica,sans-Serif" font-size="10.00">/LatLon.h</text>
</a>
</g>
</g>
<!-- Node9&#45;&gt;Node19 -->
<g id="edge34_Node000009_Node000019" class="edge">
<title>Node9&#45;&gt;Node19</title>
<g id="a_edge34_Node000009_Node000019"><a xlink:title=" ">
<path fill="none" stroke="#63b8ff" d="M628.92,-210.69C838.11,-204.48 1713.85,-177.59 1737.37,-162 1756.32,-149.44 1766.05,-124.72 1770.9,-106.06"/>
<polygon fill="#63b8ff" stroke="#63b8ff" points="1774.34,-106.7 1773.17,-96.17 1767.52,-105.14 1774.34,-106.7"/>
</a>
</g>
</g>
<!-- Node9&#45;&gt;Node20 -->
<g id="edge36_Node000009_Node000020" class="edge">
<title>Node9&#45;&gt;Node20</title>
<g id="a_edge36_Node000009_Node000020"><a xlink:title=" ">
<path fill="none" stroke="#63b8ff" d="M628.93,-204.65C687.05,-195.04 791.87,-177.57 881.37,-162 885.3,-161.32 889.34,-160.61 893.42,-159.89"/>
<polygon fill="#63b8ff" stroke="#63b8ff" points="894.33,-163.28 903.57,-158.09 893.11,-156.39 894.33,-163.28"/>
</a>
</g>
</g>
<!-- Node10&#45;&gt;Node4 -->
<g id="edge21_Node000010_Node000004" class="edge">
<title>Node10&#45;&gt;Node4</title>
<g id="a_edge21_Node000010_Node000004"><a xlink:title=" ">
<path fill="none" stroke="#63b8ff" d="M521.76,-137.04C521.14,-120.45 522.41,-84.89 542.37,-66 574.8,-35.31 707.73,-22.41 769.96,-17.97"/>
<polygon fill="#63b8ff" stroke="#63b8ff" points="770.28,-21.45 780.02,-17.28 769.8,-14.47 770.28,-21.45"/>
</a>
</g>
</g>
<!-- Node10&#45;&gt;Node5 -->
<g id="edge22_Node000010_Node000005" class="edge">
<title>Node10&#45;&gt;Node5</title>
<g id="a_edge22_Node000010_Node000005"><a xlink:title=" ">
<path fill="none" stroke="#63b8ff" d="M453.65,-139.62C376.14,-131.84 246.55,-117.08 136.37,-96 131.66,-95.1 126.75,-94.03 121.89,-92.9"/>
<polygon fill="#63b8ff" stroke="#63b8ff" points="122.61,-89.47 112.06,-90.51 120.95,-96.27 122.61,-89.47"/>
</a>
</g>
</g>
<!-- Node10&#45;&gt;Node6 -->
<g id="edge23_Node000010_Node000006" class="edge">
<title>Node10&#45;&gt;Node6</title>
<g id="a_edge23_Node000010_Node000006"><a xlink:title=" ">
<path fill="none" stroke="#63b8ff" d="M475,-137.44C402.16,-124.27 264.48,-99.37 201.42,-87.97"/>
<polygon fill="#63b8ff" stroke="#63b8ff" points="201.72,-84.47 191.25,-86.14 200.47,-91.36 201.72,-84.47"/>
</a>
</g>
</g>
<!-- Node10&#45;&gt;Node7 -->
<g id="edge24_Node000010_Node000007" class="edge">
<title>Node10&#45;&gt;Node7</title>
<g id="a_edge24_Node000010_Node000007"><a xlink:title=" ">
<path fill="none" stroke="#63b8ff" d="M590.89,-141.72C637.07,-138.87 699.38,-135.1 754.37,-132 907.23,-123.39 1292.77,-128.53 1442.37,-96 1477.86,-88.28 1483.57,-76.36 1518.37,-66 1591.67,-44.17 1680.2,-28.57 1727.57,-21.06"/>
<polygon fill="#63b8ff" stroke="#63b8ff" points="1728.24,-24.49 1737.58,-19.49 1727.16,-17.58 1728.24,-24.49"/>
</a>
</g>
</g>
<!-- Node11 -->
<g id="Node000011" class="node">
<title>Node11</title>
<g id="a_Node000011"><a xlink:title=" ">
<polygon fill="#e0e0e0" stroke="#999999" points="495.37,-90.5 445.37,-90.5 445.37,-71.5 495.37,-71.5 495.37,-90.5"/>
<text text-anchor="middle" x="470.37" y="-78.5" font-family="Helvetica,sans-Serif" font-size="10.00">cstdint</text>
</a>
</g>
</g>
<!-- Node10&#45;&gt;Node11 -->
<g id="edge18_Node000010_Node000011" class="edge">
<title>Node10&#45;&gt;Node11</title>
<g id="a_edge18_Node000010_Node000011"><a xlink:title=" ">
<path fill="none" stroke="#63b8ff" d="M515.36,-137.37C507.34,-127.5 494.03,-111.11 483.96,-98.72"/>
<polygon fill="#63b8ff" stroke="#63b8ff" points="486.63,-96.46 477.61,-90.91 481.2,-100.87 486.63,-96.46"/>
</a>
</g>
</g>
<!-- Node12 -->
<g id="Node000012" class="node">
<title>Node12</title>
<g id="a_Node000012"><a xlink:title=" ">
<polygon fill="#e0e0e0" stroke="#999999" points="426.87,-90.5 361.87,-90.5 361.87,-71.5 426.87,-71.5 426.87,-90.5"/>
<text text-anchor="middle" x="394.37" y="-78.5" font-family="Helvetica,sans-Serif" font-size="10.00">functional</text>
</a>
</g>
</g>
<!-- Node10&#45;&gt;Node12 -->
<g id="edge19_Node000010_Node000012" class="edge">
<title>Node10&#45;&gt;Node12</title>
<g id="a_edge19_Node000010_Node000012"><a xlink:title=" ">
<path fill="none" stroke="#63b8ff" d="M505.11,-137.37C483.45,-126.54 446.08,-107.85 420.81,-95.22"/>
<polygon fill="#63b8ff" stroke="#63b8ff" points="422.28,-92.04 411.77,-90.7 419.15,-98.3 422.28,-92.04"/>
</a>
</g>
</g>
<!-- Node13 -->
<g id="Node000013" class="node">
<title>Node13</title>
<g id="a_Node000013"><a xlink:title=" ">
<polygon fill="#e0e0e0" stroke="#999999" points="1583.37,-90.5 1527.37,-90.5 1527.37,-71.5 1583.37,-71.5 1583.37,-90.5"/>
<text text-anchor="middle" x="1555.37" y="-78.5" font-family="Helvetica,sans-Serif" font-size="10.00">optional</text>
</a>
</g>
</g>
<!-- Node10&#45;&gt;Node13 -->
<g id="edge20_Node000010_Node000013" class="edge">
<title>Node10&#45;&gt;Node13</title>
<g id="a_edge20_Node000010_Node000013"><a xlink:title=" ">
<path fill="none" stroke="#63b8ff" d="M590.88,-141.63C637.07,-138.75 699.37,-134.96 754.37,-132 1091.6,-113.83 1181.4,-157.98 1513.37,-96 1516.8,-95.36 1520.33,-94.51 1523.83,-93.54"/>
<polygon fill="#63b8ff" stroke="#63b8ff" points="1524.92,-96.86 1533.44,-90.57 1522.85,-90.17 1524.92,-96.86"/>
</a>
</g>
</g>
<!-- Node14 -->
<g id="Node000014" class="node">
<title>Node14</title>
<g id="a_Node000014"><a xlink:href="TopologyEdge_8h.html" target="_top" xlink:title="Arête non&#45;orientée du graphe planaire de topologie ferroviaire.">
<polygon fill="white" stroke="#666666" points="1432.87,-90.5 1339.87,-90.5 1339.87,-71.5 1432.87,-71.5 1432.87,-90.5"/>
<text text-anchor="middle" x="1386.37" y="-78.5" font-family="Helvetica,sans-Serif" font-size="10.00">TopologyEdge.h</text>
</a>
</g>
</g>
<!-- Node10&#45;&gt;Node14 -->
<g id="edge25_Node000010_Node000014" class="edge">
<title>Node10&#45;&gt;Node14</title>
<g id="a_edge25_Node000010_Node000014"><a xlink:title=" ">
<path fill="none" stroke="#63b8ff" d="M591.34,-141.27C716.1,-132.65 987.54,-113.67 1216.37,-96 1254.07,-93.09 1296.46,-89.6 1329.47,-86.83"/>
<polygon fill="#63b8ff" stroke="#63b8ff" points="1330.17,-90.29 1339.84,-85.96 1329.59,-83.31 1330.17,-90.29"/>
</a>
</g>
</g>
<!-- Node10&#45;&gt;Node17 -->
<g id="edge31_Node000010_Node000017" class="edge">
<title>Node10&#45;&gt;Node17</title>
<g id="a_edge31_Node000010_Node000017"><a xlink:title=" ">
<path fill="none" stroke="#63b8ff" d="M469.24,-137.46C424.82,-129.12 366.52,-114.91 352.37,-96 344.39,-85.32 343.26,-75.73 352.37,-66 358.2,-59.78 851.55,-30.74 1037.51,-20"/>
<polygon fill="#63b8ff" stroke="#63b8ff" points="1037.94,-23.48 1047.72,-19.41 1037.53,-16.5 1037.94,-23.48"/>
</a>
</g>
</g>
<!-- Node10&#45;&gt;Node18 -->
<g id="edge32_Node000010_Node000018" class="edge">
<title>Node10&#45;&gt;Node18</title>
<g id="a_edge32_Node000010_Node000018"><a xlink:title=" ">
<path fill="none" stroke="#63b8ff" d="M536.67,-137.37C554.29,-126.73 584.47,-108.51 605.37,-95.89"/>
<polygon fill="#63b8ff" stroke="#63b8ff" points="607.21,-98.86 613.97,-90.7 603.6,-92.87 607.21,-98.86"/>
</a>
</g>
</g>
<!-- Node14&#45;&gt;Node4 -->
<g id="edge28_Node000014_Node000004" class="edge">
<title>Node14&#45;&gt;Node4</title>
<g id="a_edge28_Node000014_Node000004"><a xlink:title=" ">
<path fill="none" stroke="#63b8ff" d="M1339.84,-73.05C1323.29,-70.68 1304.52,-68.1 1287.37,-66 1117.25,-45.21 912.84,-26.03 834.8,-18.92"/>
<polygon fill="#63b8ff" stroke="#63b8ff" points="834.92,-15.41 824.64,-17.99 834.29,-22.38 834.92,-15.41"/>
</a>
</g>
</g>
<!-- Node14&#45;&gt;Node7 -->
<g id="edge29_Node000014_Node000007" class="edge">
<title>Node14&#45;&gt;Node7</title>
<g id="a_edge29_Node000014_Node000007"><a xlink:title=" ">
<path fill="none" stroke="#63b8ff" d="M1433.11,-72.02C1509.71,-58.95 1660.16,-33.27 1727.45,-21.79"/>
<polygon fill="#63b8ff" stroke="#63b8ff" points="1728.24,-25.2 1737.51,-20.07 1727.07,-18.3 1728.24,-25.2"/>
</a>
</g>
</g>
<!-- Node14&#45;&gt;Node15 -->
<g id="edge26_Node000014_Node000015" class="edge">
<title>Node14&#45;&gt;Node15</title>
<g id="a_edge26_Node000014_Node000015"><a xlink:title=" ">
<path fill="none" stroke="#63b8ff" d="M1432.89,-74.42C1508.65,-65.32 1663.4,-46.59 1794.37,-30 1818.86,-26.9 1846.48,-23.28 1867.53,-20.5"/>
<polygon fill="#63b8ff" stroke="#63b8ff" points="1868.13,-23.95 1877.58,-19.17 1867.21,-17.01 1868.13,-23.95"/>
</a>
</g>
</g>
<!-- Node16 -->
<g id="Node000016" class="node">
<title>Node16</title>
<g id="a_Node000016"><a xlink:title=" ">
<polygon fill="#e0e0e0" stroke="#999999" points="1564.37,-24.5 1508.37,-24.5 1508.37,-5.5 1564.37,-5.5 1564.37,-24.5"/>
<text text-anchor="middle" x="1536.37" y="-12.5" font-family="Helvetica,sans-Serif" font-size="10.00">sstream</text>
</a>
</g>
</g>
<!-- Node14&#45;&gt;Node16 -->
<g id="edge27_Node000014_Node000016" class="edge">
<title>Node14&#45;&gt;Node16</title>
<g id="a_edge27_Node000014_Node000016"><a xlink:title=" ">
<path fill="none" stroke="#63b8ff" d="M1406.6,-71.37C1432.32,-60.39 1476.94,-41.36 1506.56,-28.72"/>
<polygon fill="#63b8ff" stroke="#63b8ff" points="1508.16,-31.84 1515.99,-24.7 1505.41,-25.4 1508.16,-31.84"/>
</a>
</g>
</g>
<!-- Node14&#45;&gt;Node17 -->
<g id="edge30_Node000014_Node000017" class="edge">
<title>Node14&#45;&gt;Node17</title>
<g id="a_edge30_Node000014_Node000017"><a xlink:title=" ">
<path fill="none" stroke="#63b8ff" d="M1349.04,-71.44C1305.14,-61.37 1231.38,-44.45 1176.87,-31.94"/>
<polygon fill="#63b8ff" stroke="#63b8ff" points="1177.46,-28.49 1166.93,-29.66 1175.89,-35.31 1177.46,-28.49"/>
</a>
</g>
</g>
<!-- Node20&#45;&gt;Node4 -->
<g id="edge42_Node000020_Node000004" class="edge">
<title>Node20&#45;&gt;Node4</title>
<g id="a_edge42_Node000020_Node000004"><a xlink:title=" ">
<path fill="none" stroke="#63b8ff" d="M949.82,-131.95C937.69,-114.86 915.43,-85.82 891.37,-66 873.05,-50.91 849.54,-37.92 831.29,-28.97"/>
<polygon fill="#63b8ff" stroke="#63b8ff" points="832.55,-25.69 822.01,-24.54 829.53,-32.01 832.55,-25.69"/>
</a>
</g>
</g>
<!-- Node20&#45;&gt;Node16 -->
<g id="edge41_Node000020_Node000016" class="edge">
<title>Node20&#45;&gt;Node16</title>
<g id="a_edge41_Node000020_Node000016"><a xlink:title=" ">
<path fill="none" stroke="#63b8ff" d="M1015.28,-144.36C1125.5,-140.44 1366.7,-128.36 1442.37,-96 1475.69,-81.75 1506.01,-51.42 1522.75,-32.47"/>
<polygon fill="#63b8ff" stroke="#63b8ff" points="1525.59,-34.53 1529.45,-24.66 1520.28,-29.97 1525.59,-34.53"/>
</a>
</g>
</g>
<!-- Node21 -->
<g id="Node000021" class="node">
<title>Node21</title>
<g id="a_Node000021"><a xlink:title=" ">
<polygon fill="#e0e0e0" stroke="#999999" points="981.37,-90.5 937.37,-90.5 937.37,-71.5 981.37,-71.5 981.37,-90.5"/>
<text text-anchor="middle" x="959.37" y="-78.5" font-family="Helvetica,sans-Serif" font-size="10.00">ctime</text>
</a>
</g>
</g>
<!-- Node20&#45;&gt;Node21 -->
<g id="edge37_Node000020_Node000021" class="edge">
<title>Node20&#45;&gt;Node21</title>
<g id="a_edge37_Node000020_Node000021"><a xlink:title=" ">
<path fill="none" stroke="#63b8ff" d="M959.37,-131.8C959.37,-122.7 959.37,-110.79 959.37,-100.9"/>
<polygon fill="#63b8ff" stroke="#63b8ff" points="962.87,-100.84 959.37,-90.84 955.87,-100.84 962.87,-100.84"/>
</a>
</g>
</g>
<!-- Node22 -->
<g id="Node000022" class="node">
<title>Node22</title>
<g id="a_Node000022"><a xlink:title=" ">
<polygon fill="#e0e0e0" stroke="#999999" points="1067.37,-90.5 999.37,-90.5 999.37,-71.5 1067.37,-71.5 1067.37,-90.5"/>
<text text-anchor="middle" x="1033.37" y="-78.5" font-family="Helvetica,sans-Serif" font-size="10.00">filesystem</text>
</a>
</g>
</g>
<!-- Node20&#45;&gt;Node22 -->
<g id="edge38_Node000020_Node000022" class="edge">
<title>Node20&#45;&gt;Node22</title>
<g id="a_edge38_Node000020_Node000022"><a xlink:title=" ">
<path fill="none" stroke="#63b8ff" d="M975.8,-131.8C987.56,-121.62 1003.39,-107.93 1015.48,-97.48"/>
<polygon fill="#63b8ff" stroke="#63b8ff" points="1017.87,-100.03 1023.15,-90.84 1013.29,-94.74 1017.87,-100.03"/>
</a>
</g>
</g>
<!-- Node23 -->
<g id="Node000023" class="node">
<title>Node23</title>
<g id="a_Node000023"><a xlink:title=" ">
<polygon fill="#e0e0e0" stroke="#999999" points="1140.87,-90.5 1085.87,-90.5 1085.87,-71.5 1140.87,-71.5 1140.87,-90.5"/>
<text text-anchor="middle" x="1113.37" y="-78.5" font-family="Helvetica,sans-Serif" font-size="10.00">fstream</text>
</a>
</g>
</g>
<!-- Node20&#45;&gt;Node23 -->
<g id="edge39_Node000020_Node000023" class="edge">
<title>Node20&#45;&gt;Node23</title>
<g id="a_edge39_Node000020_Node000023"><a xlink:title=" ">
<path fill="none" stroke="#63b8ff" d="M993.17,-131.95C1020.18,-120.73 1057.67,-105.15 1083.57,-94.39"/>
<polygon fill="#63b8ff" stroke="#63b8ff" points="1084.99,-97.59 1092.88,-90.52 1082.3,-91.12 1084.99,-97.59"/>
</a>
</g>
</g>
<!-- Node24 -->
<g id="Node000024" class="node">
<title>Node24</title>
<g id="a_Node000024"><a xlink:title=" ">
<polygon fill="#e0e0e0" stroke="#999999" points="1207.37,-90.5 1159.37,-90.5 1159.37,-71.5 1207.37,-71.5 1207.37,-90.5"/>
<text text-anchor="middle" x="1183.37" y="-78.5" font-family="Helvetica,sans-Serif" font-size="10.00">mutex</text>
</a>
</g>
</g>
<!-- Node20&#45;&gt;Node24 -->
<g id="edge40_Node000020_Node000024" class="edge">
<title>Node20&#45;&gt;Node24</title>
<g id="a_edge40_Node000020_Node000024"><a xlink:title=" ">
<path fill="none" stroke="#63b8ff" d="M1015.17,-133.65C1053.6,-124.6 1105.6,-111.27 1150.37,-96 1151.81,-95.51 1153.27,-94.99 1154.74,-94.44"/>
<polygon fill="#63b8ff" stroke="#63b8ff" points="1156.36,-97.56 1164.36,-90.62 1153.78,-91.06 1156.36,-97.56"/>
</a>
</g>
</g>
<!-- Node25&#45;&gt;Node4 -->
<g id="edge45_Node000025_Node000004" class="edge">
<title>Node25&#45;&gt;Node4</title>
<g id="a_edge45_Node000025_Node000004"><a xlink:title=" ">
<path fill="none" stroke="#63b8ff" d="M1238.51,-197.96C1244.11,-168.79 1252.14,-101.44 1216.37,-66 1189.35,-39.23 927.64,-22.71 834.82,-17.66"/>
<polygon fill="#63b8ff" stroke="#63b8ff" points="834.79,-14.15 824.61,-17.11 834.41,-21.14 834.79,-14.15"/>
</a>
</g>
</g>
<!-- Node25&#45;&gt;Node7 -->
<g id="edge46_Node000025_Node000007" class="edge">
<title>Node25&#45;&gt;Node7</title>
<g id="a_edge46_Node000025_Node000007"><a xlink:title=" ">
<path fill="none" stroke="#63b8ff" d="M1327.97,-212.43C1512.41,-212.3 1911.58,-206.8 1953.37,-162 1982.48,-130.8 1979.47,-99.76 1953.37,-66 1934.15,-41.13 1844.74,-26.31 1795,-19.85"/>
<polygon fill="#63b8ff" stroke="#63b8ff" points="1795.38,-16.37 1785.03,-18.59 1794.51,-23.31 1795.38,-16.37"/>
</a>
</g>
</g>
<!-- Node25&#45;&gt;Node16 -->
<g id="edge44_Node000025_Node000016" class="edge">
<title>Node25&#45;&gt;Node16</title>
<g id="a_edge44_Node000025_Node000016"><a xlink:title=" ">
<path fill="none" stroke="#63b8ff" d="M1327.91,-212.22C1464.55,-211.12 1712.54,-203.26 1790.37,-162 1823.86,-144.25 1831.63,-131.69 1844.37,-96 1848.86,-83.44 1853.01,-76.16 1844.37,-66 1827.03,-45.61 1652.91,-26.91 1574.41,-19.43"/>
<polygon fill="#63b8ff" stroke="#63b8ff" points="1574.72,-15.95 1564.43,-18.5 1574.06,-22.92 1574.72,-15.95"/>
</a>
</g>
</g>
<!-- Node25&#45;&gt;Node19 -->
<g id="edge50_Node000025_Node000019" class="edge">
<title>Node25&#45;&gt;Node19</title>
<g id="a_edge50_Node000025_Node000019"><a xlink:title=" ">
<path fill="none" stroke="#63b8ff" d="M1327.9,-209.78C1472.88,-205.36 1740.26,-193.06 1770.37,-162 1784.4,-147.54 1784.16,-123.85 1781.31,-105.99"/>
<polygon fill="#63b8ff" stroke="#63b8ff" points="1784.71,-105.16 1779.35,-96.02 1777.84,-106.5 1784.71,-105.16"/>
</a>
</g>
</g>
<!-- Node26 -->
<g id="Node000026" class="node">
<title>Node26</title>
<g id="a_Node000026"><a xlink:href="ShuntingElement_8h.html" target="_top" xlink:title="Interface abstraite pour tous les éléments de shuntage ferroviaire.">
<polygon fill="white" stroke="#666666" points="871.87,-156.5 762.87,-156.5 762.87,-137.5 871.87,-137.5 871.87,-156.5"/>
<text text-anchor="middle" x="817.37" y="-144.5" font-family="Helvetica,sans-Serif" font-size="10.00">ShuntingElement.h</text>
</a>
</g>
</g>
<!-- Node25&#45;&gt;Node26 -->
<g id="edge47_Node000025_Node000026" class="edge">
<title>Node25&#45;&gt;Node26</title>
<g id="a_edge47_Node000025_Node000026"><a xlink:title=" ">
<path fill="none" stroke="#63b8ff" d="M1142.53,-199.15C1074.12,-189.49 978.84,-175.62 895.37,-162 888.28,-160.84 880.83,-159.57 873.47,-158.29"/>
<polygon fill="#63b8ff" stroke="#63b8ff" points="873.98,-154.82 863.53,-156.53 872.77,-161.72 873.98,-154.82"/>
</a>
</g>
</g>
<!-- Node27 -->
<g id="Node000027" class="node">
<title>Node27</title>
<g id="a_Node000027"><a xlink:href="InteractiveElement_8h.html" target="_top" xlink:title="Classe de base abstraite pour tous les éléments interactifs ferroviaires.">
<polygon fill="white" stroke="#666666" points="881.87,-96 722.87,-96 722.87,-66 881.87,-66 881.87,-96"/>
<text text-anchor="start" x="730.87" y="-84" font-family="Helvetica,sans-Serif" font-size="10.00">Modules/InteractiveElements</text>
<text text-anchor="middle" x="802.37" y="-73" font-family="Helvetica,sans-Serif" font-size="10.00">/InteractiveElement.h</text>
</a>
</g>
</g>
<!-- Node26&#45;&gt;Node27 -->
<g id="edge48_Node000026_Node000027" class="edge">
<title>Node26&#45;&gt;Node27</title>
<g id="a_edge48_Node000026_Node000027"><a xlink:title=" ">
<path fill="none" stroke="#63b8ff" d="M815.35,-137.37C813.48,-129.4 810.62,-117.2 808.06,-106.27"/>
<polygon fill="#63b8ff" stroke="#63b8ff" points="811.43,-105.3 805.74,-96.36 804.61,-106.9 811.43,-105.3"/>
</a>
</g>
</g>
<!-- Node27&#45;&gt;Node4 -->
<g id="edge49_Node000027_Node000004" class="edge">
<title>Node27&#45;&gt;Node4</title>
<g id="a_edge49_Node000027_Node000004"><a xlink:title=" ">
<path fill="none" stroke="#63b8ff" d="M802.37,-65.8C802.37,-56.7 802.37,-44.79 802.37,-34.9"/>
<polygon fill="#63b8ff" stroke="#63b8ff" points="805.87,-34.84 802.37,-24.84 798.87,-34.84 805.87,-34.84"/>
</a>
</g>
</g>
<!-- Node28&#45;&gt;Node4 -->
<g id="edge54_Node000028_Node000004" class="edge">
<title>Node28&#45;&gt;Node4</title>
<g id="a_edge54_Node000028_Node000004"><a xlink:title=" ">
<path fill="none" stroke="#63b8ff" d="M1402.72,-132.79C1365.76,-125.17 1323.26,-113.5 1287.37,-96 1268.03,-86.57 1269.28,-74.18 1249.37,-66 1173.98,-35.02 924.29,-21.32 834.71,-17.31"/>
<polygon fill="#63b8ff" stroke="#63b8ff" points="834.75,-13.81 824.61,-16.87 834.44,-20.81 834.75,-13.81"/>
</a>
</g>
</g>
<!-- Node28&#45;&gt;Node7 -->
<g id="edge55_Node000028_Node000007" class="edge">
<title>Node28&#45;&gt;Node7</title>
<g id="a_edge55_Node000028_Node000007"><a xlink:title=" ">
<path fill="none" stroke="#63b8ff" d="M1526.94,-131.9C1550.16,-122.23 1581.35,-108.87 1608.37,-96 1654.53,-74.02 1707.09,-45.82 1737.04,-29.45"/>
<polygon fill="#63b8ff" stroke="#63b8ff" points="1738.85,-32.45 1745.93,-24.57 1735.48,-26.31 1738.85,-32.45"/>
</a>
</g>
</g>
<!-- Node28&#45;&gt;Node13 -->
<g id="edge52_Node000028_Node000013" class="edge">
<title>Node28&#45;&gt;Node13</title>
<g id="a_edge52_Node000028_Node000013"><a xlink:title=" ">
<path fill="none" stroke="#63b8ff" d="M1506.36,-131.8C1516.18,-121.82 1529.33,-108.46 1539.54,-98.09"/>
<polygon fill="#63b8ff" stroke="#63b8ff" points="1542.15,-100.43 1546.67,-90.84 1537.16,-95.52 1542.15,-100.43"/>
</a>
</g>
</g>
<!-- Node28&#45;&gt;Node16 -->
<g id="edge53_Node000028_Node000016" class="edge">
<title>Node28&#45;&gt;Node16</title>
<g id="a_edge53_Node000028_Node000016"><a xlink:title=" ">
<path fill="none" stroke="#63b8ff" d="M1545.57,-131.99C1563.62,-124.42 1581.86,-113.01 1592.37,-96 1599.38,-84.66 1597.82,-78.17 1592.37,-66 1585.73,-51.16 1572.27,-38.91 1560.21,-30.25"/>
<polygon fill="#63b8ff" stroke="#63b8ff" points="1562.04,-27.27 1551.79,-24.6 1558.14,-33.08 1562.04,-27.27"/>
</a>
</g>
</g>
<!-- Node28&#45;&gt;Node19 -->
<g id="edge56_Node000028_Node000019" class="edge">
<title>Node28&#45;&gt;Node19</title>
<g id="a_edge56_Node000028_Node000019"><a xlink:title=" ">
<path fill="none" stroke="#63b8ff" d="M1554.48,-131.95C1599.2,-121.84 1659.56,-108.19 1705.88,-97.72"/>
<polygon fill="#63b8ff" stroke="#63b8ff" points="1706.85,-101.08 1715.84,-95.46 1705.31,-94.26 1706.85,-101.08"/>
</a>
</g>
</g>
<!-- Node30&#45;&gt;Node7 -->
<g id="edge70_Node000030_Node000007" class="edge">
<title>Node30&#45;&gt;Node7</title>
<g id="a_edge70_Node000030_Node000007"><a xlink:title=" ">
<path fill="none" stroke="#63b8ff" d="M1668.02,-137.03C1674.55,-121.6 1689.23,-89.45 1707.37,-66 1717.47,-52.96 1731.11,-40.35 1742.16,-31.06"/>
<polygon fill="#63b8ff" stroke="#63b8ff" points="1744.48,-33.69 1750,-24.65 1740.04,-28.27 1744.48,-33.69"/>
</a>
</g>
</g>
<!-- Node30&#45;&gt;Node13 -->
<g id="edge69_Node000030_Node000013" class="edge">
<title>Node30&#45;&gt;Node13</title>
<g id="a_edge69_Node000030_Node000013"><a xlink:title=" ">
<path fill="none" stroke="#63b8ff" d="M1649.67,-137.37C1631.55,-126.73 1600.52,-108.51 1579.03,-95.89"/>
<polygon fill="#63b8ff" stroke="#63b8ff" points="1580.58,-92.74 1570.19,-90.7 1577.04,-98.78 1580.58,-92.74"/>
</a>
</g>
</g>
<!-- Node30&#45;&gt;Node15 -->
<g id="edge68_Node000030_Node000015" class="edge">
<title>Node30&#45;&gt;Node15</title>
<g id="a_edge68_Node000030_Node000015"><a xlink:title=" ">
<path fill="none" stroke="#63b8ff" d="M1728.45,-138.95C1765.03,-132.43 1810.25,-119.92 1844.37,-96 1867.11,-80.06 1883.99,-52.03 1893.26,-33.74"/>
<polygon fill="#63b8ff" stroke="#63b8ff" points="1896.42,-35.25 1897.61,-24.72 1890.11,-32.2 1896.42,-35.25"/>
</a>
</g>
</g>
<!-- Node30&#45;&gt;Node17 -->
<g id="edge72_Node000030_Node000017" class="edge">
<title>Node30&#45;&gt;Node17</title>
<g id="a_edge72_Node000030_Node000017"><a xlink:title=" ">
<path fill="none" stroke="#63b8ff" d="M1621.98,-137.48C1611.96,-135.58 1601.31,-133.64 1591.37,-132 1476.27,-113.01 1440.22,-137.97 1331.37,-96 1309.29,-87.49 1308.84,-75.97 1287.37,-66 1252.43,-49.78 1211.17,-37.84 1176.97,-29.71"/>
<polygon fill="#63b8ff" stroke="#63b8ff" points="1177.59,-26.27 1167.06,-27.42 1176.01,-33.08 1177.59,-26.27"/>
</a>
</g>
</g>
<!-- Node30&#45;&gt;Node18 -->
<g id="edge73_Node000030_Node000018" class="edge">
<title>Node30&#45;&gt;Node18</title>
<g id="a_edge73_Node000030_Node000018"><a xlink:title=" ">
<path fill="none" stroke="#63b8ff" d="M1625.52,-137.44C1614.53,-135.32 1602.53,-133.29 1591.37,-132 1203.86,-87.14 1102.48,-135.41 714.37,-96 704.55,-95 694.15,-93.6 684.1,-92.07"/>
<polygon fill="#63b8ff" stroke="#63b8ff" points="684.63,-88.61 674.21,-90.51 683.54,-95.53 684.63,-88.61"/>
</a>
</g>
</g>
<!-- Node30&#45;&gt;Node19 -->
<g id="edge71_Node000030_Node000019" class="edge">
<title>Node30&#45;&gt;Node19</title>
<g id="a_edge71_Node000030_Node000019"><a xlink:title=" ">
<path fill="none" stroke="#63b8ff" d="M1679.34,-137.37C1695.32,-128.16 1721.16,-113.26 1742.01,-101.24"/>
<polygon fill="#63b8ff" stroke="#63b8ff" points="1743.98,-104.14 1750.89,-96.12 1740.48,-98.08 1743.98,-104.14"/>
</a>
</g>
</g>
</g>
</svg>
