<?xml version="1.0" encoding="UTF-8" standalone="no"?>
<!DOCTYPE svg PUBLIC "-//W3C//DTD SVG 1.1//EN"
 "http://www.w3.org/Graphics/SVG/1.1/DTD/svg11.dtd">
<!-- Generated by graphviz version 2.43.0 (0)
 -->
<!-- Title: SimulateurFerroviaire/Modules/GeoParser/SwitchOrientator.cpp Pages: 1 -->
<svg width="2014pt" height="379pt"
 viewBox="0.00 0.00 2013.75 379.00" xmlns="http://www.w3.org/2000/svg" xmlns:xlink="http://www.w3.org/1999/xlink">
<g id="graph0" class="graph" transform="scale(1 1) rotate(0) translate(4 375)">
<title>SimulateurFerroviaire/Modules/GeoParser/SwitchOrientator.cpp</title>
<!-- Node1 -->
<g id="Node000001" class="node">
<title>Node1</title>
<g id="a_Node000001"><a xlink:title="Implémentation des phases 6, 6b, 6c et 6d — orientation des aiguillages.">
<polygon fill="#999999" stroke="#666666" points="1548.75,-371 1330.75,-371 1330.75,-341 1548.75,-341 1548.75,-371"/>
<text text-anchor="start" x="1338.75" y="-359" font-family="Helvetica,sans-Serif" font-size="10.00">SimulateurFerroviaire</text>
<text text-anchor="middle" x="1439.75" y="-348" font-family="Helvetica,sans-Serif" font-size="10.00">/Modules/GeoParser/SwitchOrientator.cpp</text>
</a>
</g>
</g>
<!-- Node2 -->
<g id="Node000002" class="node">
<title>Node2</title>
<g id="a_Node000002"><a xlink:href="SwitchOrientator_8h.html" target="_top" xlink:title="Phases 6, 6b, 6c et 6d — orientation géométrique des aiguillages.">
<polygon fill="white" stroke="#666666" points="1124.25,-305 1017.25,-305 1017.25,-286 1124.25,-286 1124.25,-305"/>
<text text-anchor="middle" x="1070.75" y="-293" font-family="Helvetica,sans-Serif" font-size="10.00">SwitchOrientator.h</text>
</a>
</g>
</g>
<!-- Node1&#45;&gt;Node2 -->
<g id="edge1_Node000001_Node000002" class="edge">
<title>Node1&#45;&gt;Node2</title>
<g id="a_edge1_Node000001_Node000002"><a xlink:title=" ">
<path fill="none" stroke="#63b8ff" d="M1351.37,-340.99C1284.55,-330.4 1194.4,-316.1 1134.52,-306.61"/>
<polygon fill="#63b8ff" stroke="#63b8ff" points="1134.86,-303.12 1124.44,-305.01 1133.76,-310.03 1134.86,-303.12"/>
</a>
</g>
</g>
<!-- Node3 -->
<g id="Node000003" class="node">
<title>Node3</title>
<g id="a_Node000003"><a xlink:title=" ">
<polygon fill="#e0e0e0" stroke="#999999" points="216.75,-134.5 184.75,-134.5 184.75,-115.5 216.75,-115.5 216.75,-134.5"/>
<text text-anchor="middle" x="200.75" y="-122.5" font-family="Helvetica,sans-Serif" font-size="10.00">set</text>
</a>
</g>
</g>
<!-- Node1&#45;&gt;Node3 -->
<g id="edge61_Node000001_Node000003" class="edge">
<title>Node1&#45;&gt;Node3</title>
<g id="a_edge61_Node000001_Node000003"><a xlink:title=" ">
<path fill="none" stroke="#63b8ff" d="M1330.46,-350.18C1089.74,-338.66 520.59,-306.22 336.75,-250 287.87,-235.05 271.36,-231.67 235.75,-195 221.75,-180.58 212.15,-159.43 206.6,-144.36"/>
<polygon fill="#63b8ff" stroke="#63b8ff" points="209.82,-142.96 203.27,-134.64 203.2,-145.23 209.82,-142.96"/>
</a>
</g>
</g>
<!-- Node6 -->
<g id="Node000006" class="node">
<title>Node6</title>
<g id="a_Node000006"><a xlink:title=" ">
<polygon fill="#e0e0e0" stroke="#999999" points="58.25,-74 13.25,-74 13.25,-55 58.25,-55 58.25,-74"/>
<text text-anchor="middle" x="35.75" y="-62" font-family="Helvetica,sans-Serif" font-size="10.00">utility</text>
</a>
</g>
</g>
<!-- Node1&#45;&gt;Node6 -->
<g id="edge62_Node000001_Node000006" class="edge">
<title>Node1&#45;&gt;Node6</title>
<g id="a_edge62_Node000001_Node000006"><a xlink:title=" ">
<path fill="none" stroke="#63b8ff" d="M1330.72,-352.07C995.84,-342.35 4.75,-307.96 4.75,-241.5 4.75,-241.5 4.75,-241.5 4.75,-184.5 4.75,-147.82 18.71,-106.78 27.9,-83.75"/>
<polygon fill="#63b8ff" stroke="#63b8ff" points="31.24,-84.83 31.83,-74.25 24.77,-82.16 31.24,-84.83"/>
</a>
</g>
</g>
<!-- Node15 -->
<g id="Node000015" class="node">
<title>Node15</title>
<g id="a_Node000015"><a xlink:title=" ">
<polygon fill="#e0e0e0" stroke="#999999" points="1899.25,-19 1852.25,-19 1852.25,0 1899.25,0 1899.25,-19"/>
<text text-anchor="middle" x="1875.75" y="-7" font-family="Helvetica,sans-Serif" font-size="10.00">cmath</text>
</a>
</g>
</g>
<!-- Node1&#45;&gt;Node15 -->
<g id="edge63_Node000001_Node000015" class="edge">
<title>Node1&#45;&gt;Node15</title>
<g id="a_edge63_Node000001_Node000015"><a xlink:title=" ">
<path fill="none" stroke="#63b8ff" d="M1548.79,-350.55C1688.76,-341.8 1913.75,-316.12 1913.75,-241.5 1913.75,-241.5 1913.75,-241.5 1913.75,-124 1913.75,-88.48 1896.81,-49.79 1885.55,-28"/>
<polygon fill="#63b8ff" stroke="#63b8ff" points="1888.53,-26.16 1880.72,-19 1882.37,-29.47 1888.53,-26.16"/>
</a>
</g>
</g>
<!-- Node27 -->
<g id="Node000027" class="node">
<title>Node27</title>
<g id="a_Node000027"><a xlink:title=" ">
<polygon fill="#e0e0e0" stroke="#999999" points="2005.75,-305 1941.75,-305 1941.75,-286 2005.75,-286 2005.75,-305"/>
<text text-anchor="middle" x="1973.75" y="-293" font-family="Helvetica,sans-Serif" font-size="10.00">algorithm</text>
</a>
</g>
</g>
<!-- Node1&#45;&gt;Node27 -->
<g id="edge60_Node000001_Node000027" class="edge">
<title>Node1&#45;&gt;Node27</title>
<g id="a_edge60_Node000001_Node000027"><a xlink:title=" ">
<path fill="none" stroke="#63b8ff" d="M1549.08,-346.34C1648.19,-337.88 1798.14,-323.58 1927.75,-305 1929.02,-304.82 1930.3,-304.63 1931.6,-304.43"/>
<polygon fill="#63b8ff" stroke="#63b8ff" points="1932.34,-307.85 1941.64,-302.78 1931.2,-300.95 1932.34,-307.85"/>
</a>
</g>
</g>
<!-- Node28 -->
<g id="Node000028" class="node">
<title>Node28</title>
<g id="a_Node000028"><a xlink:href="GeometryUtils_8h.html" target="_top" xlink:title="Utilitaires géométriques métriques pour le pipeline ferroviaire.">
<polygon fill="white" stroke="#666666" points="1614.75,-134.5 1486.75,-134.5 1486.75,-115.5 1614.75,-115.5 1614.75,-134.5"/>
<text text-anchor="middle" x="1550.75" y="-122.5" font-family="Helvetica,sans-Serif" font-size="10.00">./Utils/GeometryUtils.h</text>
</a>
</g>
</g>
<!-- Node1&#45;&gt;Node28 -->
<g id="edge64_Node000001_Node000028" class="edge">
<title>Node1&#45;&gt;Node28</title>
<g id="a_edge64_Node000001_Node000028"><a xlink:title=" ">
<path fill="none" stroke="#63b8ff" d="M1446.7,-340.68C1466.12,-300.61 1520.96,-187.46 1542.2,-143.64"/>
<polygon fill="#63b8ff" stroke="#63b8ff" points="1545.41,-145.04 1546.62,-134.51 1539.11,-141.99 1545.41,-145.04"/>
</a>
</g>
</g>
<!-- Node2&#45;&gt;Node3 -->
<g id="edge2_Node000002_Node000003" class="edge">
<title>Node2&#45;&gt;Node3</title>
<g id="a_edge2_Node000002_Node000003"><a xlink:title=" ">
<path fill="none" stroke="#63b8ff" d="M1017.24,-294.28C909.92,-293.05 661.07,-286.14 455.75,-250 367.49,-234.46 337.61,-242.72 261.75,-195 240.68,-181.74 222.68,-159.09 211.8,-143.37"/>
<polygon fill="#63b8ff" stroke="#63b8ff" points="214.44,-141.02 205.99,-134.63 208.61,-144.9 214.44,-141.02"/>
</a>
</g>
</g>
<!-- Node4 -->
<g id="Node000004" class="node">
<title>Node4</title>
<g id="a_Node000004"><a xlink:title=" ">
<polygon fill="#e0e0e0" stroke="#999999" points="491.75,-19 447.75,-19 447.75,0 491.75,0 491.75,-19"/>
<text text-anchor="middle" x="469.75" y="-7" font-family="Helvetica,sans-Serif" font-size="10.00">string</text>
</a>
</g>
</g>
<!-- Node2&#45;&gt;Node4 -->
<g id="edge3_Node000002_Node000004" class="edge">
<title>Node2&#45;&gt;Node4</title>
<g id="a_edge3_Node000002_Node000004"><a xlink:title=" ">
<path fill="none" stroke="#63b8ff" d="M1016.99,-294.47C862.79,-293.91 421.28,-288.85 282.75,-250 141.59,-210.41 67.07,-206.23 3.75,-74 0.11,-66.38 -1.93,-61.25 3.75,-55 32.89,-22.94 336.79,-13.42 437.52,-11.13"/>
<polygon fill="#63b8ff" stroke="#63b8ff" points="437.77,-14.62 447.7,-10.9 437.62,-7.62 437.77,-14.62"/>
</a>
</g>
</g>
<!-- Node5 -->
<g id="Node000005" class="node">
<title>Node5</title>
<g id="a_Node000005"><a xlink:title=" ">
<polygon fill="#e0e0e0" stroke="#999999" points="1064.25,-74 971.25,-74 971.25,-55 1064.25,-55 1064.25,-74"/>
<text text-anchor="middle" x="1017.75" y="-62" font-family="Helvetica,sans-Serif" font-size="10.00">unordered_map</text>
</a>
</g>
</g>
<!-- Node2&#45;&gt;Node5 -->
<g id="edge4_Node000002_Node000005" class="edge">
<title>Node2&#45;&gt;Node5</title>
<g id="a_edge4_Node000002_Node000005"><a xlink:title=" ">
<path fill="none" stroke="#63b8ff" d="M1068.74,-285.8C1060.98,-252.29 1032.93,-131.08 1022.08,-84.2"/>
<polygon fill="#63b8ff" stroke="#63b8ff" points="1025.43,-83.16 1019.77,-74.21 1018.61,-84.74 1025.43,-83.16"/>
</a>
</g>
</g>
<!-- Node2&#45;&gt;Node6 -->
<g id="edge5_Node000002_Node000006" class="edge">
<title>Node2&#45;&gt;Node6</title>
<g id="a_edge5_Node000002_Node000006"><a xlink:title=" ">
<path fill="none" stroke="#63b8ff" d="M1017,-294.26C870.14,-293.13 464.52,-286.69 336.75,-250 216.35,-215.43 96.35,-118.47 52.85,-80.77"/>
<polygon fill="#63b8ff" stroke="#63b8ff" points="55.02,-78.01 45.19,-74.05 50.4,-83.28 55.02,-78.01"/>
</a>
</g>
</g>
<!-- Node7 -->
<g id="Node000007" class="node">
<title>Node7</title>
<g id="a_Node000007"><a xlink:title=" ">
<polygon fill="#e0e0e0" stroke="#999999" points="1454.25,-19 1407.25,-19 1407.25,0 1454.25,0 1454.25,-19"/>
<text text-anchor="middle" x="1430.75" y="-7" font-family="Helvetica,sans-Serif" font-size="10.00">vector</text>
</a>
</g>
</g>
<!-- Node2&#45;&gt;Node7 -->
<g id="edge6_Node000002_Node000007" class="edge">
<title>Node2&#45;&gt;Node7</title>
<g id="a_edge6_Node000002_Node000007"><a xlink:title=" ">
<path fill="none" stroke="#63b8ff" d="M1124.46,-291.88C1280.57,-283.04 1728.66,-248.47 1815.75,-140 1910.61,-21.86 1575.08,-10.8 1464.76,-10.3"/>
<polygon fill="#63b8ff" stroke="#63b8ff" points="1464.51,-6.8 1454.51,-10.29 1464.5,-13.8 1464.51,-6.8"/>
</a>
</g>
</g>
<!-- Node8 -->
<g id="Node000008" class="node">
<title>Node8</title>
<g id="a_Node000008"><a xlink:href="TopologyExtractor_8h.html" target="_top" xlink:title="Phases 3, 4, 5a et 5b — extraction de la topologie ferroviaire depuis le graphe.">
<polygon fill="white" stroke="#666666" points="1042.25,-250 929.25,-250 929.25,-231 1042.25,-231 1042.25,-250"/>
<text text-anchor="middle" x="985.75" y="-238" font-family="Helvetica,sans-Serif" font-size="10.00">TopologyExtractor.h</text>
</a>
</g>
</g>
<!-- Node2&#45;&gt;Node8 -->
<g id="edge7_Node000002_Node000008" class="edge">
<title>Node2&#45;&gt;Node8</title>
<g id="a_edge7_Node000002_Node000008"><a xlink:title=" ">
<path fill="none" stroke="#63b8ff" d="M1057.1,-285.98C1043.91,-277.77 1023.72,-265.18 1008.18,-255.49"/>
<polygon fill="#63b8ff" stroke="#63b8ff" points="1009.99,-252.49 999.66,-250.17 1006.29,-258.43 1009.99,-252.49"/>
</a>
</g>
</g>
<!-- Node18 -->
<g id="Node000018" class="node">
<title>Node18</title>
<g id="a_Node000018"><a xlink:href="GeoParserEnums_8h.html" target="_top" xlink:title="Constantes nommées et énumérations du pipeline ferroviaire GeoParser.">
<polygon fill="white" stroke="#666666" points="1235.25,-74 1082.25,-74 1082.25,-55 1235.25,-55 1235.25,-74"/>
<text text-anchor="middle" x="1158.75" y="-62" font-family="Helvetica,sans-Serif" font-size="10.00">../Enums/GeoParserEnums.h</text>
</a>
</g>
</g>
<!-- Node2&#45;&gt;Node18 -->
<g id="edge58_Node000002_Node000018" class="edge">
<title>Node2&#45;&gt;Node18</title>
<g id="a_edge58_Node000002_Node000018"><a xlink:title=" ">
<path fill="none" stroke="#63b8ff" d="M1074.09,-285.8C1087.03,-252.15 1133.94,-130.05 1151.79,-83.61"/>
<polygon fill="#63b8ff" stroke="#63b8ff" points="1155.09,-84.8 1155.41,-74.21 1148.55,-82.29 1155.09,-84.8"/>
</a>
</g>
</g>
<!-- Node20 -->
<g id="Node000020" class="node">
<title>Node20</title>
<g id="a_Node000020"><a xlink:href="Logger_8h.html" target="_top" xlink:title="Système de journalisation à 5 niveaux de trace, un fichier par moteur.">
<polygon fill="white" stroke="#666666" points="384.25,-140 273.25,-140 273.25,-110 384.25,-110 384.25,-140"/>
<text text-anchor="start" x="281.25" y="-128" font-family="Helvetica,sans-Serif" font-size="10.00">Engine/Core/Logger</text>
<text text-anchor="middle" x="328.75" y="-117" font-family="Helvetica,sans-Serif" font-size="10.00">/Logger.h</text>
</a>
</g>
</g>
<!-- Node2&#45;&gt;Node20 -->
<g id="edge59_Node000002_Node000020" class="edge">
<title>Node2&#45;&gt;Node20</title>
<g id="a_edge59_Node000002_Node000020"><a xlink:title=" ">
<path fill="none" stroke="#63b8ff" d="M1017.16,-292.86C871.99,-287.52 474.9,-266.55 368.75,-195 352.93,-184.33 342.55,-165.16 336.34,-149.72"/>
<polygon fill="#63b8ff" stroke="#63b8ff" points="339.59,-148.42 332.84,-140.25 333.02,-150.84 339.59,-148.42"/>
</a>
</g>
</g>
<!-- Node25 -->
<g id="Node000025" class="node">
<title>Node25</title>
<g id="a_Node000025"><a xlink:href="StraightBlock_8h.html" target="_top" xlink:title="Modèle de domaine d&#39;un bloc de voie droite (Straight).">
<polygon fill="white" stroke="#666666" points="1806.25,-134.5 1633.25,-134.5 1633.25,-115.5 1806.25,-115.5 1806.25,-134.5"/>
<text text-anchor="middle" x="1719.75" y="-122.5" font-family="Helvetica,sans-Serif" font-size="10.00">Modules/Models/StraightBlock.h</text>
</a>
</g>
</g>
<!-- Node2&#45;&gt;Node25 -->
<g id="edge56_Node000002_Node000025" class="edge">
<title>Node2&#45;&gt;Node25</title>
<g id="a_edge56_Node000002_Node000025"><a xlink:title=" ">
<path fill="none" stroke="#63b8ff" d="M1111.67,-285.96C1152,-277.4 1215.31,-263.58 1269.75,-250 1422.7,-211.85 1603.02,-160.09 1680.82,-137.42"/>
<polygon fill="#63b8ff" stroke="#63b8ff" points="1682.04,-140.71 1690.66,-134.55 1680.08,-133.99 1682.04,-140.71"/>
</a>
</g>
</g>
<!-- Node26 -->
<g id="Node000026" class="node">
<title>Node26</title>
<g id="a_Node000026"><a xlink:href="SwitchBlock_8h.html" target="_top" xlink:title="Modèle de domaine d&#39;un aiguillage ferroviaire à 3 branches (Switch).">
<polygon fill="white" stroke="#666666" points="1425.25,-134.5 1258.25,-134.5 1258.25,-115.5 1425.25,-115.5 1425.25,-134.5"/>
<text text-anchor="middle" x="1341.75" y="-122.5" font-family="Helvetica,sans-Serif" font-size="10.00">Modules/Models/SwitchBlock.h</text>
</a>
</g>
</g>
<!-- Node2&#45;&gt;Node26 -->
<g id="edge57_Node000002_Node000026" class="edge">
<title>Node2&#45;&gt;Node26</title>
<g id="a_edge57_Node000002_Node000026"><a xlink:title=" ">
<path fill="none" stroke="#63b8ff" d="M1124.62,-289.85C1160.98,-284.63 1208.73,-273.53 1244.75,-250 1286.55,-222.69 1318.08,-171.22 1332.72,-143.98"/>
<polygon fill="#63b8ff" stroke="#63b8ff" points="1335.98,-145.3 1337.49,-134.82 1329.77,-142.07 1335.98,-145.3"/>
</a>
</g>
</g>
<!-- Node8&#45;&gt;Node3 -->
<g id="edge8_Node000008_Node000003" class="edge">
<title>Node8&#45;&gt;Node3</title>
<g id="a_edge8_Node000008_Node000003"><a xlink:title=" ">
<path fill="none" stroke="#63b8ff" d="M929.02,-239.68C786.43,-239.52 416.21,-235.12 300.75,-195 267.75,-183.53 235.59,-158.02 217,-141.44"/>
<polygon fill="#63b8ff" stroke="#63b8ff" points="219.2,-138.7 209.46,-134.53 214.47,-143.86 219.2,-138.7"/>
</a>
</g>
</g>
<!-- Node8&#45;&gt;Node4 -->
<g id="edge9_Node000008_Node000004" class="edge">
<title>Node8&#45;&gt;Node4</title>
<g id="a_edge9_Node000008_Node000004"><a xlink:title=" ">
<path fill="none" stroke="#63b8ff" d="M929.08,-238.18C843.3,-233.68 678.36,-215.05 563.75,-140 520.7,-111.81 490.73,-56.6 477.46,-28.25"/>
<polygon fill="#63b8ff" stroke="#63b8ff" points="480.64,-26.78 473.33,-19.11 474.26,-29.67 480.64,-26.78"/>
</a>
</g>
</g>
<!-- Node8&#45;&gt;Node5 -->
<g id="edge10_Node000008_Node000005" class="edge">
<title>Node8&#45;&gt;Node5</title>
<g id="a_edge10_Node000008_Node000005"><a xlink:title=" ">
<path fill="none" stroke="#63b8ff" d="M987.38,-230.63C992.37,-203.52 1007.49,-121.32 1014.33,-84.13"/>
<polygon fill="#63b8ff" stroke="#63b8ff" points="1017.8,-84.61 1016.16,-74.14 1010.91,-83.35 1017.8,-84.61"/>
</a>
</g>
</g>
<!-- Node8&#45;&gt;Node6 -->
<g id="edge11_Node000008_Node000006" class="edge">
<title>Node8&#45;&gt;Node6</title>
<g id="a_edge11_Node000008_Node000006"><a xlink:title=" ">
<path fill="none" stroke="#63b8ff" d="M928.9,-238.36C796.92,-235.23 473.08,-224.69 368.75,-195 318.08,-180.58 307.95,-168.67 263.75,-140 245.7,-128.29 245.14,-119.34 225.75,-110 198.23,-96.73 115.18,-80.07 68.5,-71.38"/>
<polygon fill="#63b8ff" stroke="#63b8ff" points="69.05,-67.93 58.58,-69.56 67.78,-74.81 69.05,-67.93"/>
</a>
</g>
</g>
<!-- Node8&#45;&gt;Node7 -->
<g id="edge12_Node000008_Node000007" class="edge">
<title>Node8&#45;&gt;Node7</title>
<g id="a_edge12_Node000008_Node000007"><a xlink:title=" ">
<path fill="none" stroke="#63b8ff" d="M1002.38,-230.94C1069.7,-196.3 1322.29,-66.32 1404.62,-23.95"/>
<polygon fill="#63b8ff" stroke="#63b8ff" points="1406.51,-26.91 1413.8,-19.22 1403.3,-20.69 1406.51,-26.91"/>
</a>
</g>
</g>
<!-- Node9 -->
<g id="Node000009" class="node">
<title>Node9</title>
<g id="a_Node000009"><a xlink:href="GraphBuilder_8h.html" target="_top" xlink:title="Phases 1 et 2 du pipeline — chargement GeoJSON et construction du graphe métrique.">
<polygon fill="white" stroke="#666666" points="829.25,-195 740.25,-195 740.25,-176 829.25,-176 829.25,-195"/>
<text text-anchor="middle" x="784.75" y="-183" font-family="Helvetica,sans-Serif" font-size="10.00">GraphBuilder.h</text>
</a>
</g>
</g>
<!-- Node8&#45;&gt;Node9 -->
<g id="edge13_Node000008_Node000009" class="edge">
<title>Node8&#45;&gt;Node9</title>
<g id="a_edge13_Node000008_Node000009"><a xlink:title=" ">
<path fill="none" stroke="#63b8ff" d="M953.46,-230.98C919.13,-221.93 864.69,-207.58 826.98,-197.64"/>
<polygon fill="#63b8ff" stroke="#63b8ff" points="827.86,-194.25 817.3,-195.08 826.08,-201.02 827.86,-194.25"/>
</a>
</g>
</g>
<!-- Node8&#45;&gt;Node18 -->
<g id="edge54_Node000008_Node000018" class="edge">
<title>Node8&#45;&gt;Node18</title>
<g id="a_edge54_Node000008_Node000018"><a xlink:title=" ">
<path fill="none" stroke="#63b8ff" d="M994.57,-230.63C1022.22,-202.82 1107.52,-117.03 1143.01,-81.34"/>
<polygon fill="#63b8ff" stroke="#63b8ff" points="1145.59,-83.7 1150.16,-74.14 1140.63,-78.77 1145.59,-83.7"/>
</a>
</g>
</g>
<!-- Node8&#45;&gt;Node20 -->
<g id="edge55_Node000008_Node000020" class="edge">
<title>Node8&#45;&gt;Node20</title>
<g id="a_edge55_Node000008_Node000020"><a xlink:title=" ">
<path fill="none" stroke="#63b8ff" d="M929.06,-240.11C800.79,-240.71 492.25,-237.53 398.75,-195 376.47,-184.86 357.18,-164.43 344.53,-148.41"/>
<polygon fill="#63b8ff" stroke="#63b8ff" points="347.03,-145.92 338.2,-140.06 341.45,-150.15 347.03,-145.92"/>
</a>
</g>
</g>
<!-- Node8&#45;&gt;Node25 -->
<g id="edge43_Node000008_Node000025" class="edge">
<title>Node8&#45;&gt;Node25</title>
<g id="a_edge43_Node000008_Node000025"><a xlink:title=" ">
<path fill="none" stroke="#63b8ff" d="M1040.92,-230.97C1173.92,-210.4 1511.77,-158.16 1654.51,-136.09"/>
<polygon fill="#63b8ff" stroke="#63b8ff" points="1655.1,-139.54 1664.44,-134.55 1654.03,-132.62 1655.1,-139.54"/>
</a>
</g>
</g>
<!-- Node8&#45;&gt;Node26 -->
<g id="edge48_Node000008_Node000026" class="edge">
<title>Node8&#45;&gt;Node26</title>
<g id="a_edge48_Node000008_Node000026"><a xlink:title=" ">
<path fill="none" stroke="#63b8ff" d="M1015.97,-230.98C1045.46,-222.49 1091.49,-208.77 1130.75,-195 1152.4,-187.41 1157.1,-183.59 1178.75,-176 1220.27,-161.44 1268.52,-146.93 1301.69,-137.33"/>
<polygon fill="#63b8ff" stroke="#63b8ff" points="1302.84,-140.64 1311.48,-134.51 1300.9,-133.91 1302.84,-140.64"/>
</a>
</g>
</g>
<!-- Node9&#45;&gt;Node3 -->
<g id="edge14_Node000009_Node000003" class="edge">
<title>Node9&#45;&gt;Node3</title>
<g id="a_edge14_Node000009_Node000003"><a xlink:title=" ">
<path fill="none" stroke="#63b8ff" d="M739.91,-182.69C649.43,-178.59 438.73,-166.79 263.75,-140 251.58,-138.14 238.25,-135.29 227,-132.66"/>
<polygon fill="#63b8ff" stroke="#63b8ff" points="227.5,-129.17 216.96,-130.23 225.85,-135.98 227.5,-129.17"/>
</a>
</g>
</g>
<!-- Node9&#45;&gt;Node4 -->
<g id="edge15_Node000009_Node000004" class="edge">
<title>Node9&#45;&gt;Node4</title>
<g id="a_edge15_Node000009_Node000004"><a xlink:title=" ">
<path fill="none" stroke="#63b8ff" d="M740.01,-179.22C703.49,-173.5 651.46,-162.06 610.75,-140 556.17,-110.42 506.17,-55.06 483.13,-27.29"/>
<polygon fill="#63b8ff" stroke="#63b8ff" points="485.66,-24.85 476.62,-19.31 480.23,-29.28 485.66,-24.85"/>
</a>
</g>
</g>
<!-- Node9&#45;&gt;Node7 -->
<g id="edge16_Node000009_Node000007" class="edge">
<title>Node9&#45;&gt;Node7</title>
<g id="a_edge16_Node000009_Node000007"><a xlink:title=" ">
<path fill="none" stroke="#63b8ff" d="M801.49,-175.93C817.44,-167.51 841.91,-153.92 861.75,-140 909.78,-106.3 908.65,-77.7 962.75,-55 1041.38,-22.02 1303.43,-13.23 1397.1,-11.11"/>
<polygon fill="#63b8ff" stroke="#63b8ff" points="1397.24,-14.61 1407.16,-10.9 1397.09,-7.61 1397.24,-14.61"/>
</a>
</g>
</g>
<!-- Node10 -->
<g id="Node000010" class="node">
<title>Node10</title>
<g id="a_Node000010"><a xlink:href="TopologyGraph_8h.html" target="_top" xlink:title="Graphe planaire non&#45;orienté de nœuds et d&#39;arêtes ferroviaires accrochés.">
<polygon fill="white" stroke="#666666" points="853.25,-134.5 716.25,-134.5 716.25,-115.5 853.25,-115.5 853.25,-134.5"/>
<text text-anchor="middle" x="784.75" y="-122.5" font-family="Helvetica,sans-Serif" font-size="10.00">./Graph/TopologyGraph.h</text>
</a>
</g>
</g>
<!-- Node9&#45;&gt;Node10 -->
<g id="edge17_Node000009_Node000010" class="edge">
<title>Node9&#45;&gt;Node10</title>
<g id="a_edge17_Node000009_Node000010"><a xlink:title=" ">
<path fill="none" stroke="#63b8ff" d="M784.75,-175.87C784.75,-167.75 784.75,-155.31 784.75,-144.89"/>
<polygon fill="#63b8ff" stroke="#63b8ff" points="788.25,-144.67 784.75,-134.67 781.25,-144.67 788.25,-144.67"/>
</a>
</g>
</g>
<!-- Node17 -->
<g id="Node000017" class="node">
<title>Node17</title>
<g id="a_Node000017"><a xlink:href="CoordinateXY_8h.html" target="_top" xlink:title="Représentation d&#39;une coordonnée plane en mètres (système métrique UTM).">
<polygon fill="white" stroke="#666666" points="844.75,-19 672.75,-19 672.75,0 844.75,0 844.75,-19"/>
<text text-anchor="middle" x="758.75" y="-7" font-family="Helvetica,sans-Serif" font-size="10.00">Modules/Models/CoordinateXY.h</text>
</a>
</g>
</g>
<!-- Node9&#45;&gt;Node17 -->
<g id="edge35_Node000009_Node000017" class="edge">
<title>Node9&#45;&gt;Node17</title>
<g id="a_edge35_Node000009_Node000017"><a xlink:title=" ">
<path fill="none" stroke="#63b8ff" d="M746.54,-176C698.74,-163.08 618.92,-133.47 583.75,-74 561.69,-36.69 610.76,-21.05 662.5,-14.6"/>
<polygon fill="#63b8ff" stroke="#63b8ff" points="662.98,-18.07 672.52,-13.47 662.19,-11.12 662.98,-18.07"/>
</a>
</g>
</g>
<!-- Node9&#45;&gt;Node18 -->
<g id="edge33_Node000009_Node000018" class="edge">
<title>Node9&#45;&gt;Node18</title>
<g id="a_edge33_Node000009_Node000018"><a xlink:title=" ">
<path fill="none" stroke="#63b8ff" d="M822.3,-175.93C857.35,-167.66 910.98,-154.32 956.75,-140 1018.45,-120.7 1088.97,-93.47 1128.24,-77.84"/>
<polygon fill="#63b8ff" stroke="#63b8ff" points="1129.78,-81 1137.76,-74.04 1127.18,-74.5 1129.78,-81"/>
</a>
</g>
</g>
<!-- Node19 -->
<g id="Node000019" class="node">
<title>Node19</title>
<g id="a_Node000019"><a xlink:href="LatLon_8h.html" target="_top" xlink:title="Représentation d&#39;une coordonnée géographique WGS&#45;84 (latitude, longitude).">
<polygon fill="white" stroke="#666666" points="1619.75,-74 1479.75,-74 1479.75,-55 1619.75,-55 1619.75,-74"/>
<text text-anchor="middle" x="1549.75" y="-62" font-family="Helvetica,sans-Serif" font-size="10.00">Modules/Models/LatLon.h</text>
</a>
</g>
</g>
<!-- Node9&#45;&gt;Node19 -->
<g id="edge34_Node000009_Node000019" class="edge">
<title>Node9&#45;&gt;Node19</title>
<g id="a_edge34_Node000009_Node000019"><a xlink:title=" ">
<path fill="none" stroke="#63b8ff" d="M829.32,-184.53C957.1,-184.13 1322.73,-179.47 1434.75,-140 1456.73,-132.26 1458.28,-122.8 1477.75,-110 1493.87,-99.41 1512.39,-87.98 1526.61,-79.36"/>
<polygon fill="#63b8ff" stroke="#63b8ff" points="1528.51,-82.3 1535.26,-74.13 1524.89,-76.3 1528.51,-82.3"/>
</a>
</g>
</g>
<!-- Node9&#45;&gt;Node20 -->
<g id="edge36_Node000009_Node000020" class="edge">
<title>Node9&#45;&gt;Node20</title>
<g id="a_edge36_Node000009_Node000020"><a xlink:title=" ">
<path fill="none" stroke="#63b8ff" d="M739.98,-178.8C673.72,-170.36 545.64,-154.02 436.75,-140 423.1,-138.24 408.47,-136.35 394.53,-134.55"/>
<polygon fill="#63b8ff" stroke="#63b8ff" points="394.89,-131.06 384.53,-133.25 393.99,-138 394.89,-131.06"/>
</a>
</g>
</g>
<!-- Node10&#45;&gt;Node4 -->
<g id="edge21_Node000010_Node000004" class="edge">
<title>Node10&#45;&gt;Node4</title>
<g id="a_edge21_Node000010_Node000004"><a xlink:title=" ">
<path fill="none" stroke="#63b8ff" d="M735.3,-115.49C693.9,-107.48 633.76,-93.74 583.75,-74 549.83,-60.61 513.48,-38.94 491.18,-24.71"/>
<polygon fill="#63b8ff" stroke="#63b8ff" points="492.83,-21.61 482.53,-19.11 489.02,-27.48 492.83,-21.61"/>
</a>
</g>
</g>
<!-- Node10&#45;&gt;Node5 -->
<g id="edge22_Node000010_Node000005" class="edge">
<title>Node10&#45;&gt;Node5</title>
<g id="a_edge22_Node000010_Node000005"><a xlink:title=" ">
<path fill="none" stroke="#63b8ff" d="M818.63,-115.49C859.7,-105.18 928.99,-87.78 974.05,-76.47"/>
<polygon fill="#63b8ff" stroke="#63b8ff" points="974.98,-79.85 983.83,-74.02 973.28,-73.06 974.98,-79.85"/>
</a>
</g>
</g>
<!-- Node10&#45;&gt;Node6 -->
<g id="edge23_Node000010_Node000006" class="edge">
<title>Node10&#45;&gt;Node6</title>
<g id="a_edge23_Node000010_Node000006"><a xlink:title=" ">
<path fill="none" stroke="#63b8ff" d="M716.23,-120.03C593.63,-112.69 328.69,-95.73 105.75,-74 93.62,-72.82 80.35,-71.27 68.64,-69.82"/>
<polygon fill="#63b8ff" stroke="#63b8ff" points="68.78,-66.31 58.42,-68.53 67.9,-73.25 68.78,-66.31"/>
</a>
</g>
</g>
<!-- Node10&#45;&gt;Node7 -->
<g id="edge24_Node000010_Node000007" class="edge">
<title>Node10&#45;&gt;Node7</title>
<g id="a_edge24_Node000010_Node000007"><a xlink:title=" ">
<path fill="none" stroke="#63b8ff" d="M801.81,-115.4C837.01,-97.72 915.55,-58.62 928.75,-55 1017.5,-30.66 1299.37,-16.27 1397.04,-11.92"/>
<polygon fill="#63b8ff" stroke="#63b8ff" points="1397.39,-15.41 1407.23,-11.47 1397.09,-8.41 1397.39,-15.41"/>
</a>
</g>
</g>
<!-- Node11 -->
<g id="Node000011" class="node">
<title>Node11</title>
<g id="a_Node000011"><a xlink:title=" ">
<polygon fill="#e0e0e0" stroke="#999999" points="764.75,-74 714.75,-74 714.75,-55 764.75,-55 764.75,-74"/>
<text text-anchor="middle" x="739.75" y="-62" font-family="Helvetica,sans-Serif" font-size="10.00">cstdint</text>
</a>
</g>
</g>
<!-- Node10&#45;&gt;Node11 -->
<g id="edge18_Node000010_Node000011" class="edge">
<title>Node10&#45;&gt;Node11</title>
<g id="a_edge18_Node000010_Node000011"><a xlink:title=" ">
<path fill="none" stroke="#63b8ff" d="M778.11,-115.37C771.47,-106.73 761.06,-93.2 752.76,-82.42"/>
<polygon fill="#63b8ff" stroke="#63b8ff" points="755.29,-79.96 746.42,-74.17 749.74,-84.23 755.29,-79.96"/>
</a>
</g>
</g>
<!-- Node12 -->
<g id="Node000012" class="node">
<title>Node12</title>
<g id="a_Node000012"><a xlink:title=" ">
<polygon fill="#e0e0e0" stroke="#999999" points="658.25,-74 593.25,-74 593.25,-55 658.25,-55 658.25,-74"/>
<text text-anchor="middle" x="625.75" y="-62" font-family="Helvetica,sans-Serif" font-size="10.00">functional</text>
</a>
</g>
</g>
<!-- Node10&#45;&gt;Node12 -->
<g id="edge19_Node000010_Node000012" class="edge">
<title>Node10&#45;&gt;Node12</title>
<g id="a_edge19_Node000010_Node000012"><a xlink:title=" ">
<path fill="none" stroke="#63b8ff" d="M761.63,-115.49C734.43,-105.49 689.09,-88.8 658.33,-77.49"/>
<polygon fill="#63b8ff" stroke="#63b8ff" points="659.49,-74.18 648.9,-74.02 657.08,-80.75 659.49,-74.18"/>
</a>
</g>
</g>
<!-- Node13 -->
<g id="Node000013" class="node">
<title>Node13</title>
<g id="a_Node000013"><a xlink:title=" ">
<polygon fill="#e0e0e0" stroke="#999999" points="1423.75,-74 1367.75,-74 1367.75,-55 1423.75,-55 1423.75,-74"/>
<text text-anchor="middle" x="1395.75" y="-62" font-family="Helvetica,sans-Serif" font-size="10.00">optional</text>
</a>
</g>
</g>
<!-- Node10&#45;&gt;Node13 -->
<g id="edge20_Node000010_Node000013" class="edge">
<title>Node10&#45;&gt;Node13</title>
<g id="a_edge20_Node000010_Node000013"><a xlink:title=" ">
<path fill="none" stroke="#63b8ff" d="M853.36,-117.43C982.23,-105.09 1256.56,-78.83 1357.47,-69.17"/>
<polygon fill="#63b8ff" stroke="#63b8ff" points="1357.9,-72.64 1367.52,-68.2 1357.23,-65.67 1357.9,-72.64"/>
</a>
</g>
</g>
<!-- Node14 -->
<g id="Node000014" class="node">
<title>Node14</title>
<g id="a_Node000014"><a xlink:href="TopologyEdge_8h.html" target="_top" xlink:title="Arête non&#45;orientée du graphe planaire de topologie ferroviaire.">
<polygon fill="white" stroke="#666666" points="876.25,-74 783.25,-74 783.25,-55 876.25,-55 876.25,-74"/>
<text text-anchor="middle" x="829.75" y="-62" font-family="Helvetica,sans-Serif" font-size="10.00">TopologyEdge.h</text>
</a>
</g>
</g>
<!-- Node10&#45;&gt;Node14 -->
<g id="edge25_Node000010_Node000014" class="edge">
<title>Node10&#45;&gt;Node14</title>
<g id="a_edge25_Node000010_Node000014"><a xlink:title=" ">
<path fill="none" stroke="#63b8ff" d="M791.39,-115.37C798.04,-106.73 808.44,-93.2 816.74,-82.42"/>
<polygon fill="#63b8ff" stroke="#63b8ff" points="819.76,-84.23 823.08,-74.17 814.21,-79.96 819.76,-84.23"/>
</a>
</g>
</g>
<!-- Node10&#45;&gt;Node17 -->
<g id="edge31_Node000010_Node000017" class="edge">
<title>Node10&#45;&gt;Node17</title>
<g id="a_edge31_Node000010_Node000017"><a xlink:title=" ">
<path fill="none" stroke="#63b8ff" d="M759.09,-115.42C740.61,-107.74 717.02,-94.48 705.75,-74 695.4,-55.19 715.22,-36.69 733.5,-24.55"/>
<polygon fill="#63b8ff" stroke="#63b8ff" points="735.57,-27.39 742.21,-19.13 731.87,-21.45 735.57,-27.39"/>
</a>
</g>
</g>
<!-- Node10&#45;&gt;Node18 -->
<g id="edge32_Node000010_Node000018" class="edge">
<title>Node10&#45;&gt;Node18</title>
<g id="a_edge32_Node000010_Node000018"><a xlink:title=" ">
<path fill="none" stroke="#63b8ff" d="M839.13,-115.49C906.72,-104.92 1021.92,-86.9 1093.99,-75.63"/>
<polygon fill="#63b8ff" stroke="#63b8ff" points="1094.96,-79.02 1104.3,-74.02 1093.88,-72.1 1094.96,-79.02"/>
</a>
</g>
</g>
<!-- Node14&#45;&gt;Node4 -->
<g id="edge28_Node000014_Node000004" class="edge">
<title>Node14&#45;&gt;Node4</title>
<g id="a_edge28_Node000014_Node000004"><a xlink:title=" ">
<path fill="none" stroke="#63b8ff" d="M783,-56.39C779.87,-55.91 776.77,-55.45 773.75,-55 674.63,-40.22 557.25,-23.17 501.81,-15.14"/>
<polygon fill="#63b8ff" stroke="#63b8ff" points="502.28,-11.67 491.88,-13.7 501.28,-18.6 502.28,-11.67"/>
</a>
</g>
</g>
<!-- Node14&#45;&gt;Node7 -->
<g id="edge29_Node000014_Node000007" class="edge">
<title>Node14&#45;&gt;Node7</title>
<g id="a_edge29_Node000014_Node000007"><a xlink:title=" ">
<path fill="none" stroke="#63b8ff" d="M876.34,-56.73C881.2,-56.11 886.08,-55.52 890.75,-55 1081.73,-33.84 1311.74,-18.12 1396.9,-12.63"/>
<polygon fill="#63b8ff" stroke="#63b8ff" points="1397.26,-16.11 1407.02,-11.98 1396.82,-9.12 1397.26,-16.11"/>
</a>
</g>
</g>
<!-- Node14&#45;&gt;Node15 -->
<g id="edge26_Node000014_Node000015" class="edge">
<title>Node14&#45;&gt;Node15</title>
<g id="a_edge26_Node000014_Node000015"><a xlink:title=" ">
<path fill="none" stroke="#63b8ff" d="M876.52,-60.34C902.01,-58.66 934.11,-56.61 962.75,-55 1306.11,-35.66 1722.4,-17.18 1842.1,-11.96"/>
<polygon fill="#63b8ff" stroke="#63b8ff" points="1842.28,-15.45 1852.12,-11.52 1841.97,-8.46 1842.28,-15.45"/>
</a>
</g>
</g>
<!-- Node16 -->
<g id="Node000016" class="node">
<title>Node16</title>
<g id="a_Node000016"><a xlink:title=" ">
<polygon fill="#e0e0e0" stroke="#999999" points="1143.75,-19 1087.75,-19 1087.75,0 1143.75,0 1143.75,-19"/>
<text text-anchor="middle" x="1115.75" y="-7" font-family="Helvetica,sans-Serif" font-size="10.00">sstream</text>
</a>
</g>
</g>
<!-- Node14&#45;&gt;Node16 -->
<g id="edge27_Node000014_Node000016" class="edge">
<title>Node14&#45;&gt;Node16</title>
<g id="a_edge27_Node000014_Node000016"><a xlink:title=" ">
<path fill="none" stroke="#63b8ff" d="M875.7,-54.98C931.81,-44.59 1025.65,-27.2 1077.83,-17.53"/>
<polygon fill="#63b8ff" stroke="#63b8ff" points="1078.49,-20.96 1087.69,-15.7 1077.22,-14.08 1078.49,-20.96"/>
</a>
</g>
</g>
<!-- Node14&#45;&gt;Node17 -->
<g id="edge30_Node000014_Node000017" class="edge">
<title>Node14&#45;&gt;Node17</title>
<g id="a_edge30_Node000014_Node000017"><a xlink:title=" ">
<path fill="none" stroke="#63b8ff" d="M818.34,-54.98C807.64,-47 791.41,-34.88 778.59,-25.31"/>
<polygon fill="#63b8ff" stroke="#63b8ff" points="780.47,-22.35 770.37,-19.17 776.29,-27.96 780.47,-22.35"/>
</a>
</g>
</g>
<!-- Node20&#45;&gt;Node4 -->
<g id="edge42_Node000020_Node000004" class="edge">
<title>Node20&#45;&gt;Node4</title>
<g id="a_edge42_Node000020_Node000004"><a xlink:title=" ">
<path fill="none" stroke="#63b8ff" d="M273.06,-112.4C207.88,-98.69 108.41,-77.32 105.75,-74 100.47,-67.41 100.15,-61.32 105.75,-55 127.6,-30.31 352.41,-16.44 437.42,-12.05"/>
<polygon fill="#63b8ff" stroke="#63b8ff" points="437.73,-15.54 447.54,-11.53 437.37,-8.54 437.73,-15.54"/>
</a>
</g>
</g>
<!-- Node20&#45;&gt;Node16 -->
<g id="edge41_Node000020_Node000016" class="edge">
<title>Node20&#45;&gt;Node16</title>
<g id="a_edge41_Node000020_Node000016"><a xlink:title=" ">
<path fill="none" stroke="#63b8ff" d="M371.53,-109.87C421.76,-93.88 507.86,-68.33 583.75,-55 766.87,-22.84 989.66,-13.76 1077.51,-11.33"/>
<polygon fill="#63b8ff" stroke="#63b8ff" points="1077.64,-14.83 1087.55,-11.07 1077.46,-7.83 1077.64,-14.83"/>
</a>
</g>
</g>
<!-- Node21 -->
<g id="Node000021" class="node">
<title>Node21</title>
<g id="a_Node000021"><a xlink:title=" ">
<polygon fill="#e0e0e0" stroke="#999999" points="224.75,-74 180.75,-74 180.75,-55 224.75,-55 224.75,-74"/>
<text text-anchor="middle" x="202.75" y="-62" font-family="Helvetica,sans-Serif" font-size="10.00">ctime</text>
</a>
</g>
</g>
<!-- Node20&#45;&gt;Node21 -->
<g id="edge37_Node000020_Node000021" class="edge">
<title>Node20&#45;&gt;Node21</title>
<g id="a_edge37_Node000020_Node000021"><a xlink:title=" ">
<path fill="none" stroke="#63b8ff" d="M298.57,-109.99C277.92,-100.4 250.75,-87.79 230.62,-78.44"/>
<polygon fill="#63b8ff" stroke="#63b8ff" points="231.9,-75.18 221.36,-74.14 228.96,-81.52 231.9,-75.18"/>
</a>
</g>
</g>
<!-- Node22 -->
<g id="Node000022" class="node">
<title>Node22</title>
<g id="a_Node000022"><a xlink:title=" ">
<polygon fill="#e0e0e0" stroke="#999999" points="310.75,-74 242.75,-74 242.75,-55 310.75,-55 310.75,-74"/>
<text text-anchor="middle" x="276.75" y="-62" font-family="Helvetica,sans-Serif" font-size="10.00">filesystem</text>
</a>
</g>
</g>
<!-- Node20&#45;&gt;Node22 -->
<g id="edge38_Node000020_Node000022" class="edge">
<title>Node20&#45;&gt;Node22</title>
<g id="a_edge38_Node000020_Node000022"><a xlink:title=" ">
<path fill="none" stroke="#63b8ff" d="M316.16,-109.84C308.69,-101.43 299.19,-90.74 291.38,-81.96"/>
<polygon fill="#63b8ff" stroke="#63b8ff" points="293.8,-79.41 284.54,-74.27 288.57,-84.07 293.8,-79.41"/>
</a>
</g>
</g>
<!-- Node23 -->
<g id="Node000023" class="node">
<title>Node23</title>
<g id="a_Node000023"><a xlink:title=" ">
<polygon fill="#e0e0e0" stroke="#999999" points="384.25,-74 329.25,-74 329.25,-55 384.25,-55 384.25,-74"/>
<text text-anchor="middle" x="356.75" y="-62" font-family="Helvetica,sans-Serif" font-size="10.00">fstream</text>
</a>
</g>
</g>
<!-- Node20&#45;&gt;Node23 -->
<g id="edge39_Node000020_Node000023" class="edge">
<title>Node20&#45;&gt;Node23</title>
<g id="a_edge39_Node000020_Node000023"><a xlink:title=" ">
<path fill="none" stroke="#63b8ff" d="M335.53,-109.84C339.35,-101.87 344.15,-91.84 348.22,-83.33"/>
<polygon fill="#63b8ff" stroke="#63b8ff" points="351.4,-84.8 352.56,-74.27 345.08,-81.77 351.4,-84.8"/>
</a>
</g>
</g>
<!-- Node24 -->
<g id="Node000024" class="node">
<title>Node24</title>
<g id="a_Node000024"><a xlink:title=" ">
<polygon fill="#e0e0e0" stroke="#999999" points="162.75,-74 114.75,-74 114.75,-55 162.75,-55 162.75,-74"/>
<text text-anchor="middle" x="138.75" y="-62" font-family="Helvetica,sans-Serif" font-size="10.00">mutex</text>
</a>
</g>
</g>
<!-- Node20&#45;&gt;Node24 -->
<g id="edge40_Node000020_Node000024" class="edge">
<title>Node20&#45;&gt;Node24</title>
<g id="a_edge40_Node000020_Node000024"><a xlink:title=" ">
<path fill="none" stroke="#63b8ff" d="M283.24,-109.99C249.31,-99.54 203.7,-85.5 172.86,-76"/>
<polygon fill="#63b8ff" stroke="#63b8ff" points="173.6,-72.57 163.01,-72.97 171.54,-79.26 173.6,-72.57"/>
</a>
</g>
</g>
<!-- Node25&#45;&gt;Node4 -->
<g id="edge45_Node000025_Node000004" class="edge">
<title>Node25&#45;&gt;Node4</title>
<g id="a_edge45_Node000025_Node000004"><a xlink:title=" ">
<path fill="none" stroke="#63b8ff" d="M1711.8,-115.13C1697.17,-99.54 1664.23,-67.67 1628.75,-55 1527.71,-18.91 770.96,-23.35 663.75,-19 606.79,-16.69 540.43,-13.72 501.95,-11.97"/>
<polygon fill="#63b8ff" stroke="#63b8ff" points="502.01,-8.47 491.86,-11.52 501.69,-15.47 502.01,-8.47"/>
</a>
</g>
</g>
<!-- Node25&#45;&gt;Node7 -->
<g id="edge46_Node000025_Node000007" class="edge">
<title>Node25&#45;&gt;Node7</title>
<g id="a_edge46_Node000025_Node000007"><a xlink:title=" ">
<path fill="none" stroke="#63b8ff" d="M1735.73,-115.32C1758.17,-102.07 1794.29,-76.09 1775.75,-55 1755.36,-31.81 1547.32,-17.27 1464.5,-12.36"/>
<polygon fill="#63b8ff" stroke="#63b8ff" points="1464.55,-8.86 1454.36,-11.77 1464.14,-15.85 1464.55,-8.86"/>
</a>
</g>
</g>
<!-- Node25&#45;&gt;Node16 -->
<g id="edge44_Node000025_Node000016" class="edge">
<title>Node25&#45;&gt;Node16</title>
<g id="a_edge44_Node000025_Node000016"><a xlink:title=" ">
<path fill="none" stroke="#63b8ff" d="M1720.12,-115.11C1720.21,-100.07 1717.95,-69.79 1699.75,-55 1678.52,-37.75 1280.3,-18.06 1153.91,-12.22"/>
<polygon fill="#63b8ff" stroke="#63b8ff" points="1154.06,-8.72 1143.91,-11.76 1153.74,-15.71 1154.06,-8.72"/>
</a>
</g>
</g>
<!-- Node25&#45;&gt;Node19 -->
<g id="edge47_Node000025_Node000019" class="edge">
<title>Node25&#45;&gt;Node19</title>
<g id="a_edge47_Node000025_Node000019"><a xlink:title=" ">
<path fill="none" stroke="#63b8ff" d="M1695.03,-115.49C1665.82,-105.44 1617.05,-88.66 1584.16,-77.34"/>
<polygon fill="#63b8ff" stroke="#63b8ff" points="1585.1,-73.96 1574.5,-74.02 1582.82,-80.58 1585.1,-73.96"/>
</a>
</g>
</g>
<!-- Node26&#45;&gt;Node4 -->
<g id="edge51_Node000026_Node000004" class="edge">
<title>Node26&#45;&gt;Node4</title>
<g id="a_edge51_Node000026_Node000004"><a xlink:title=" ">
<path fill="none" stroke="#63b8ff" d="M1331.09,-115.25C1310.09,-98.22 1263.76,-61.68 1244.75,-55 1226.94,-48.74 646.21,-19.33 501.95,-12.11"/>
<polygon fill="#63b8ff" stroke="#63b8ff" points="502.11,-8.61 491.95,-11.61 501.76,-15.6 502.11,-8.61"/>
</a>
</g>
</g>
<!-- Node26&#45;&gt;Node7 -->
<g id="edge52_Node000026_Node000007" class="edge">
<title>Node26&#45;&gt;Node7</title>
<g id="a_edge52_Node000026_Node000007"><a xlink:title=" ">
<path fill="none" stroke="#63b8ff" d="M1374.31,-115.41C1395,-108.08 1420.18,-95.26 1432.75,-74 1440.74,-60.5 1439.23,-42.41 1436.32,-28.99"/>
<polygon fill="#63b8ff" stroke="#63b8ff" points="1439.63,-27.81 1433.72,-19.02 1432.86,-29.58 1439.63,-27.81"/>
</a>
</g>
</g>
<!-- Node26&#45;&gt;Node13 -->
<g id="edge49_Node000026_Node000013" class="edge">
<title>Node26&#45;&gt;Node13</title>
<g id="a_edge49_Node000026_Node000013"><a xlink:title=" ">
<path fill="none" stroke="#63b8ff" d="M1349.72,-115.37C1357.86,-106.55 1370.68,-92.66 1380.73,-81.77"/>
<polygon fill="#63b8ff" stroke="#63b8ff" points="1383.54,-83.89 1387.75,-74.17 1378.4,-79.14 1383.54,-83.89"/>
</a>
</g>
</g>
<!-- Node26&#45;&gt;Node16 -->
<g id="edge50_Node000026_Node000016" class="edge">
<title>Node26&#45;&gt;Node16</title>
<g id="a_edge50_Node000026_Node000016"><a xlink:title=" ">
<path fill="none" stroke="#63b8ff" d="M1336.16,-115.35C1326.22,-100.68 1304.01,-70.94 1277.75,-55 1239.34,-31.68 1188.49,-20.32 1154.08,-14.96"/>
<polygon fill="#63b8ff" stroke="#63b8ff" points="1154.37,-11.46 1143.96,-13.48 1153.35,-18.39 1154.37,-11.46"/>
</a>
</g>
</g>
<!-- Node26&#45;&gt;Node19 -->
<g id="edge53_Node000026_Node000019" class="edge">
<title>Node26&#45;&gt;Node19</title>
<g id="a_edge53_Node000026_Node000019"><a xlink:title=" ">
<path fill="none" stroke="#63b8ff" d="M1372,-115.49C1408.35,-105.27 1469.48,-88.08 1509.72,-76.76"/>
<polygon fill="#63b8ff" stroke="#63b8ff" points="1510.79,-80.09 1519.47,-74.02 1508.9,-73.35 1510.79,-80.09"/>
</a>
</g>
</g>
<!-- Node28&#45;&gt;Node7 -->
<g id="edge67_Node000028_Node000007" class="edge">
<title>Node28&#45;&gt;Node7</title>
<g id="a_edge67_Node000028_Node000007"><a xlink:title=" ">
<path fill="none" stroke="#63b8ff" d="M1590.05,-115.47C1630.96,-104.8 1685.95,-84.31 1661.75,-55 1637.15,-25.2 1522.71,-15.14 1464.68,-11.92"/>
<polygon fill="#63b8ff" stroke="#63b8ff" points="1464.71,-8.42 1454.54,-11.4 1464.34,-15.41 1464.71,-8.42"/>
</a>
</g>
</g>
<!-- Node28&#45;&gt;Node13 -->
<g id="edge66_Node000028_Node000013" class="edge">
<title>Node28&#45;&gt;Node13</title>
<g id="a_edge66_Node000028_Node000013"><a xlink:title=" ">
<path fill="none" stroke="#63b8ff" d="M1528.21,-115.49C1501.81,-105.53 1457.88,-88.95 1427.9,-77.63"/>
<polygon fill="#63b8ff" stroke="#63b8ff" points="1428.91,-74.27 1418.32,-74.02 1426.44,-80.82 1428.91,-74.27"/>
</a>
</g>
</g>
<!-- Node28&#45;&gt;Node15 -->
<g id="edge65_Node000028_Node000015" class="edge">
<title>Node28&#45;&gt;Node15</title>
<g id="a_edge65_Node000028_Node000015"><a xlink:title=" ">
<path fill="none" stroke="#63b8ff" d="M1575.18,-115.47C1632.63,-95.41 1776.41,-45.19 1842.08,-22.26"/>
<polygon fill="#63b8ff" stroke="#63b8ff" points="1843.64,-25.42 1851.92,-18.82 1841.33,-18.81 1843.64,-25.42"/>
</a>
</g>
</g>
<!-- Node28&#45;&gt;Node17 -->
<g id="edge69_Node000028_Node000017" class="edge">
<title>Node28&#45;&gt;Node17</title>
<g id="a_edge69_Node000028_Node000017"><a xlink:title=" ">
<path fill="none" stroke="#63b8ff" d="M1573.73,-115.4C1604.03,-102.85 1651.04,-78.46 1628.75,-55 1615.57,-41.12 1078.81,-21.35 855.09,-13.7"/>
<polygon fill="#63b8ff" stroke="#63b8ff" points="855.11,-10.2 845,-13.35 854.88,-17.19 855.11,-10.2"/>
</a>
</g>
</g>
<!-- Node28&#45;&gt;Node18 -->
<g id="edge70_Node000028_Node000018" class="edge">
<title>Node28&#45;&gt;Node18</title>
<g id="a_edge70_Node000028_Node000018"><a xlink:title=" ">
<path fill="none" stroke="#63b8ff" d="M1493.75,-115.49C1422.77,-104.9 1301.68,-86.83 1226.16,-75.56"/>
<polygon fill="#63b8ff" stroke="#63b8ff" points="1226.23,-72.03 1215.82,-74.02 1225.19,-78.95 1226.23,-72.03"/>
</a>
</g>
</g>
<!-- Node28&#45;&gt;Node19 -->
<g id="edge68_Node000028_Node000019" class="edge">
<title>Node28&#45;&gt;Node19</title>
<g id="a_edge68_Node000028_Node000019"><a xlink:title=" ">
<path fill="none" stroke="#63b8ff" d="M1550.6,-115.37C1550.47,-107.25 1550.25,-94.81 1550.07,-84.39"/>
<polygon fill="#63b8ff" stroke="#63b8ff" points="1553.57,-84.11 1549.9,-74.17 1546.57,-84.23 1553.57,-84.11"/>
</a>
</g>
</g>
</g>
</svg>
