<?xml version="1.0" encoding="UTF-8" standalone="no"?>
<!DOCTYPE svg PUBLIC "-//W3C//DTD SVG 1.1//EN"
 "http://www.w3.org/Graphics/SVG/1.1/DTD/svg11.dtd">
<!-- Generated by graphviz version 2.43.0 (0)
 -->
<!-- Title: SimulateurFerroviaire/Modules/GeoParser/SwitchOrientator.h Pages: 1 -->
<svg width="1748pt" height="324pt"
 viewBox="0.00 0.00 1748.00 324.00" xmlns="http://www.w3.org/2000/svg" xmlns:xlink="http://www.w3.org/1999/xlink">
<g id="graph0" class="graph" transform="scale(1 1) rotate(0) translate(4 320)">
<title>SimulateurFerroviaire/Modules/GeoParser/SwitchOrientator.h</title>
<!-- Node1 -->
<g id="Node000001" class="node">
<title>Node1</title>
<g id="a_Node000001"><a xlink:title="Phases 6, 6b et 6c — orientation géométrique des aiguillages.">
<polygon fill="#999999" stroke="#666666" points="900,-316 694,-316 694,-286 900,-286 900,-316"/>
<text text-anchor="start" x="702" y="-304" font-family="Helvetica,sans-Serif" font-size="10.00">SimulateurFerroviaire</text>
<text text-anchor="middle" x="797" y="-293" font-family="Helvetica,sans-Serif" font-size="10.00">/Modules/GeoParser/SwitchOrientator.h</text>
</a>
</g>
</g>
<!-- Node2 -->
<g id="Node000002" class="node">
<title>Node2</title>
<g id="a_Node000002"><a xlink:title=" ">
<polygon fill="#e0e0e0" stroke="#999999" points="670,-19 626,-19 626,0 670,0 670,-19"/>
<text text-anchor="middle" x="648" y="-7" font-family="Helvetica,sans-Serif" font-size="10.00">string</text>
</a>
</g>
</g>
<!-- Node1&#45;&gt;Node2 -->
<g id="edge1_Node000001_Node000002" class="edge">
<title>Node1&#45;&gt;Node2</title>
<g id="a_edge1_Node000001_Node000002"><a xlink:title=" ">
<path fill="none" stroke="#63b8ff" d="M693.62,-295.85C477.97,-285.82 0,-255.77 0,-186.5 0,-186.5 0,-186.5 0,-124 0,-76.37 37.93,-73.06 82,-55 106.85,-44.82 499.62,-19.72 615.85,-12.48"/>
<polygon fill="#63b8ff" stroke="#63b8ff" points="616.14,-15.97 625.9,-11.86 615.7,-8.98 616.14,-15.97"/>
</a>
</g>
</g>
<!-- Node3 -->
<g id="Node000003" class="node">
<title>Node3</title>
<g id="a_Node000003"><a xlink:title=" ">
<polygon fill="#e0e0e0" stroke="#999999" points="945.5,-74 852.5,-74 852.5,-55 945.5,-55 945.5,-74"/>
<text text-anchor="middle" x="899" y="-62" font-family="Helvetica,sans-Serif" font-size="10.00">unordered_map</text>
</a>
</g>
</g>
<!-- Node1&#45;&gt;Node3 -->
<g id="edge2_Node000001_Node000003" class="edge">
<title>Node1&#45;&gt;Node3</title>
<g id="a_edge2_Node000001_Node000003"><a xlink:title=" ">
<path fill="none" stroke="#63b8ff" d="M803.23,-285.68C820.93,-244.99 871.51,-128.7 891.11,-83.64"/>
<polygon fill="#63b8ff" stroke="#63b8ff" points="894.41,-84.82 895.19,-74.26 887.99,-82.03 894.41,-84.82"/>
</a>
</g>
</g>
<!-- Node4 -->
<g id="Node000004" class="node">
<title>Node4</title>
<g id="a_Node000004"><a xlink:title=" ">
<polygon fill="#e0e0e0" stroke="#999999" points="1375.5,-19 1328.5,-19 1328.5,0 1375.5,0 1375.5,-19"/>
<text text-anchor="middle" x="1352" y="-7" font-family="Helvetica,sans-Serif" font-size="10.00">vector</text>
</a>
</g>
</g>
<!-- Node1&#45;&gt;Node4 -->
<g id="edge3_Node000001_Node000004" class="edge">
<title>Node1&#45;&gt;Node4</title>
<g id="a_edge3_Node000001_Node000004"><a xlink:title=" ">
<path fill="none" stroke="#63b8ff" d="M900.16,-298.21C1144.85,-292.6 1740,-270.34 1740,-186.5 1740,-186.5 1740,-186.5 1740,-124 1740,-88.1 1728.11,-74.55 1698,-55 1646.94,-21.84 1462.69,-13.32 1385.93,-11.19"/>
<polygon fill="#63b8ff" stroke="#63b8ff" points="1385.93,-7.69 1375.84,-10.93 1385.74,-14.68 1385.93,-7.69"/>
</a>
</g>
</g>
<!-- Node5 -->
<g id="Node000005" class="node">
<title>Node5</title>
<g id="a_Node000005"><a xlink:href="TopologyExtractor_8h.html" target="_top" xlink:title="Phases 3, 4, 5a et 5b — extraction de la topologie ferroviaire depuis le graphe.">
<polygon fill="white" stroke="#666666" points="991.5,-250 878.5,-250 878.5,-231 991.5,-231 991.5,-250"/>
<text text-anchor="middle" x="935" y="-238" font-family="Helvetica,sans-Serif" font-size="10.00">TopologyExtractor.h</text>
</a>
</g>
</g>
<!-- Node1&#45;&gt;Node5 -->
<g id="edge4_Node000001_Node000005" class="edge">
<title>Node1&#45;&gt;Node5</title>
<g id="a_edge4_Node000001_Node000005"><a xlink:title=" ">
<path fill="none" stroke="#63b8ff" d="M830.05,-285.99C852.98,-276.27 883.24,-263.44 905.38,-254.06"/>
<polygon fill="#63b8ff" stroke="#63b8ff" points="906.78,-257.26 914.62,-250.14 904.05,-250.82 906.78,-257.26"/>
</a>
</g>
</g>
<!-- Node17 -->
<g id="Node000017" class="node">
<title>Node17</title>
<g id="a_Node000017"><a xlink:href="GeoParserEnums_8h.html" target="_top" xlink:title="Constantes nommées et énumérations du pipeline ferroviaire GeoParser.">
<polygon fill="white" stroke="#666666" points="1673.5,-74 1520.5,-74 1520.5,-55 1673.5,-55 1673.5,-74"/>
<text text-anchor="middle" x="1597" y="-62" font-family="Helvetica,sans-Serif" font-size="10.00">../Enums/GeoParserEnums.h</text>
</a>
</g>
</g>
<!-- Node1&#45;&gt;Node17 -->
<g id="edge55_Node000001_Node000017" class="edge">
<title>Node1&#45;&gt;Node17</title>
<g id="a_edge55_Node000001_Node000017"><a xlink:title=" ">
<path fill="none" stroke="#63b8ff" d="M900.16,-299.93C1041.08,-296.46 1299.3,-278 1501,-195 1539.23,-179.27 1552.44,-173.97 1576,-140 1587.59,-123.3 1592.81,-100.32 1595.15,-84.31"/>
<polygon fill="#63b8ff" stroke="#63b8ff" points="1598.66,-84.43 1596.39,-74.08 1591.71,-83.59 1598.66,-84.43"/>
</a>
</g>
</g>
<!-- Node19 -->
<g id="Node000019" class="node">
<title>Node19</title>
<g id="a_Node000019"><a xlink:href="Logger_8h.html" target="_top" xlink:title="Système de journalisation à 5 niveaux de trace, un fichier par moteur.">
<polygon fill="white" stroke="#666666" points="335.5,-140 224.5,-140 224.5,-110 335.5,-110 335.5,-140"/>
<text text-anchor="start" x="232.5" y="-128" font-family="Helvetica,sans-Serif" font-size="10.00">Engine/Core/Logger</text>
<text text-anchor="middle" x="280" y="-117" font-family="Helvetica,sans-Serif" font-size="10.00">/Logger.h</text>
</a>
</g>
</g>
<!-- Node1&#45;&gt;Node19 -->
<g id="edge56_Node000001_Node000019" class="edge">
<title>Node1&#45;&gt;Node19</title>
<g id="a_edge56_Node000001_Node000019"><a xlink:title=" ">
<path fill="none" stroke="#63b8ff" d="M693.93,-286.39C605.35,-271.97 475.87,-244.26 372,-195 345.88,-182.61 319.87,-162.16 302.2,-146.73"/>
<polygon fill="#63b8ff" stroke="#63b8ff" points="304.5,-144.08 294.7,-140.04 299.84,-149.31 304.5,-144.08"/>
</a>
</g>
</g>
<!-- Node24 -->
<g id="Node000024" class="node">
<title>Node24</title>
<g id="a_Node000024"><a xlink:href="StraightBlock_8h.html" target="_top" xlink:title="Modèle de domaine d&#39;un bloc de voie droite (Straight).">
<polygon fill="white" stroke="#666666" points="603.5,-134.5 468.5,-134.5 468.5,-115.5 603.5,-115.5 603.5,-134.5"/>
<text text-anchor="middle" x="536" y="-122.5" font-family="Helvetica,sans-Serif" font-size="10.00">./Models/StraightBlock.h</text>
</a>
</g>
</g>
<!-- Node1&#45;&gt;Node24 -->
<g id="edge53_Node000001_Node000024" class="edge">
<title>Node1&#45;&gt;Node24</title>
<g id="a_edge53_Node000001_Node000024"><a xlink:title=" ">
<path fill="none" stroke="#63b8ff" d="M775.64,-285.76C726.69,-253.13 606.83,-173.22 557.62,-140.41"/>
<polygon fill="#63b8ff" stroke="#63b8ff" points="559.29,-137.32 549.03,-134.68 555.41,-143.14 559.29,-137.32"/>
</a>
</g>
</g>
<!-- Node25 -->
<g id="Node000025" class="node">
<title>Node25</title>
<g id="a_Node000025"><a xlink:href="SwitchBlock_8h.html" target="_top" xlink:title="Modèle de domaine d&#39;un aiguillage ferroviaire à 3 branches (Switch).">
<polygon fill="white" stroke="#666666" points="792.5,-134.5 663.5,-134.5 663.5,-115.5 792.5,-115.5 792.5,-134.5"/>
<text text-anchor="middle" x="728" y="-122.5" font-family="Helvetica,sans-Serif" font-size="10.00">./Models/SwitchBlock.h</text>
</a>
</g>
</g>
<!-- Node1&#45;&gt;Node25 -->
<g id="edge54_Node000001_Node000025" class="edge">
<title>Node1&#45;&gt;Node25</title>
<g id="a_edge54_Node000001_Node000025"><a xlink:title=" ">
<path fill="none" stroke="#63b8ff" d="M791.35,-285.76C778.87,-254.28 748.94,-178.81 735.16,-144.07"/>
<polygon fill="#63b8ff" stroke="#63b8ff" points="738.38,-142.69 731.44,-134.68 731.88,-145.27 738.38,-142.69"/>
</a>
</g>
</g>
<!-- Node5&#45;&gt;Node2 -->
<g id="edge6_Node000005_Node000002" class="edge">
<title>Node5&#45;&gt;Node2</title>
<g id="a_edge6_Node000005_Node000002"><a xlink:title=" ">
<path fill="none" stroke="#63b8ff" d="M878.28,-236.31C763.74,-228.57 511.26,-204.42 459,-140 409.29,-78.72 550.13,-34.65 616.04,-17.91"/>
<polygon fill="#63b8ff" stroke="#63b8ff" points="617.07,-21.26 625.93,-15.46 615.38,-14.47 617.07,-21.26"/>
</a>
</g>
</g>
<!-- Node5&#45;&gt;Node3 -->
<g id="edge7_Node000005_Node000003" class="edge">
<title>Node5&#45;&gt;Node3</title>
<g id="a_edge7_Node000005_Node000003"><a xlink:title=" ">
<path fill="none" stroke="#63b8ff" d="M933.17,-230.63C927.56,-203.52 910.55,-121.32 902.85,-84.13"/>
<polygon fill="#63b8ff" stroke="#63b8ff" points="906.24,-83.23 900.79,-74.14 899.39,-84.65 906.24,-83.23"/>
</a>
</g>
</g>
<!-- Node5&#45;&gt;Node4 -->
<g id="edge9_Node000005_Node000004" class="edge">
<title>Node5&#45;&gt;Node4</title>
<g id="a_edge9_Node000005_Node000004"><a xlink:title=" ">
<path fill="none" stroke="#63b8ff" d="M991.97,-238.66C1116.26,-236.25 1408.11,-227.22 1501,-195 1592.42,-163.29 1636.4,-159.34 1682,-74 1685.98,-66.55 1687.56,-61.36 1682,-55 1643.75,-11.25 1462.05,-8.77 1385.81,-9.72"/>
<polygon fill="#63b8ff" stroke="#63b8ff" points="1385.72,-6.22 1375.77,-9.88 1385.83,-13.22 1385.72,-6.22"/>
</a>
</g>
</g>
<!-- Node6 -->
<g id="Node000006" class="node">
<title>Node6</title>
<g id="a_Node000006"><a xlink:title=" ">
<polygon fill="#e0e0e0" stroke="#999999" points="1524,-134.5 1492,-134.5 1492,-115.5 1524,-115.5 1524,-134.5"/>
<text text-anchor="middle" x="1508" y="-122.5" font-family="Helvetica,sans-Serif" font-size="10.00">set</text>
</a>
</g>
</g>
<!-- Node5&#45;&gt;Node6 -->
<g id="edge5_Node000005_Node000006" class="edge">
<title>Node5&#45;&gt;Node6</title>
<g id="a_edge5_Node000005_Node000006"><a xlink:title=" ">
<path fill="none" stroke="#63b8ff" d="M991.58,-234.33C1091.48,-224.06 1304.74,-196.98 1476,-140 1478.15,-139.28 1480.36,-138.48 1482.55,-137.63"/>
<polygon fill="#63b8ff" stroke="#63b8ff" points="1484.06,-140.79 1491.95,-133.71 1481.37,-134.33 1484.06,-140.79"/>
</a>
</g>
</g>
<!-- Node7 -->
<g id="Node000007" class="node">
<title>Node7</title>
<g id="a_Node000007"><a xlink:title=" ">
<polygon fill="#e0e0e0" stroke="#999999" points="1463.5,-74 1418.5,-74 1418.5,-55 1463.5,-55 1463.5,-74"/>
<text text-anchor="middle" x="1441" y="-62" font-family="Helvetica,sans-Serif" font-size="10.00">utility</text>
</a>
</g>
</g>
<!-- Node5&#45;&gt;Node7 -->
<g id="edge8_Node000005_Node000007" class="edge">
<title>Node5&#45;&gt;Node7</title>
<g id="a_edge8_Node000005_Node000007"><a xlink:title=" ">
<path fill="none" stroke="#63b8ff" d="M991.63,-239.36C1127.87,-237.66 1467.53,-224.83 1533,-140 1541.15,-129.44 1540.08,-121.3 1533,-110 1520.04,-89.33 1494.46,-78.03 1473.56,-71.99"/>
<polygon fill="#63b8ff" stroke="#63b8ff" points="1474.31,-68.57 1463.75,-69.43 1472.54,-75.34 1474.31,-68.57"/>
</a>
</g>
</g>
<!-- Node8 -->
<g id="Node000008" class="node">
<title>Node8</title>
<g id="a_Node000008"><a xlink:href="GraphBuilder_8h.html" target="_top" xlink:title="Phases 1 et 2 du pipeline — chargement GeoJSON et construction du graphe métrique.">
<polygon fill="white" stroke="#666666" points="1232.5,-195 1143.5,-195 1143.5,-176 1232.5,-176 1232.5,-195"/>
<text text-anchor="middle" x="1188" y="-183" font-family="Helvetica,sans-Serif" font-size="10.00">GraphBuilder.h</text>
</a>
</g>
</g>
<!-- Node5&#45;&gt;Node8 -->
<g id="edge10_Node000005_Node000008" class="edge">
<title>Node5&#45;&gt;Node8</title>
<g id="a_edge10_Node000005_Node000008"><a xlink:title=" ">
<path fill="none" stroke="#63b8ff" d="M975.65,-230.98C1019.5,-221.8 1089.42,-207.15 1136.95,-197.19"/>
<polygon fill="#63b8ff" stroke="#63b8ff" points="1137.96,-200.56 1147.03,-195.08 1136.53,-193.71 1137.96,-200.56"/>
</a>
</g>
</g>
<!-- Node5&#45;&gt;Node17 -->
<g id="edge51_Node000005_Node000017" class="edge">
<title>Node5&#45;&gt;Node17</title>
<g id="a_edge51_Node000005_Node000017"><a xlink:title=" ">
<path fill="none" stroke="#63b8ff" d="M991.53,-238.26C1109.8,-235.11 1379.51,-224.78 1466,-195 1508.19,-180.47 1518.71,-171.82 1550,-140 1566.54,-123.18 1580.2,-99.59 1588.46,-83.49"/>
<polygon fill="#63b8ff" stroke="#63b8ff" points="1591.79,-84.65 1593.08,-74.14 1585.51,-81.55 1591.79,-84.65"/>
</a>
</g>
</g>
<!-- Node5&#45;&gt;Node19 -->
<g id="edge52_Node000005_Node000019" class="edge">
<title>Node5&#45;&gt;Node19</title>
<g id="a_edge52_Node000005_Node000019"><a xlink:title=" ">
<path fill="none" stroke="#63b8ff" d="M878.49,-237.08C764.35,-231.77 510.02,-217.74 426,-195 384.73,-183.83 340.82,-161.48 312.06,-145.24"/>
<polygon fill="#63b8ff" stroke="#63b8ff" points="313.7,-142.14 303.28,-140.2 310.21,-148.21 313.7,-142.14"/>
</a>
</g>
</g>
<!-- Node5&#45;&gt;Node24 -->
<g id="edge40_Node000005_Node000024" class="edge">
<title>Node5&#45;&gt;Node24</title>
<g id="a_edge40_Node000005_Node000024"><a xlink:title=" ">
<path fill="none" stroke="#63b8ff" d="M905.01,-230.97C834.01,-210.77 655.63,-160.03 575.76,-137.31"/>
<polygon fill="#63b8ff" stroke="#63b8ff" points="576.64,-133.92 566.07,-134.55 574.73,-140.65 576.64,-133.92"/>
</a>
</g>
</g>
<!-- Node5&#45;&gt;Node25 -->
<g id="edge45_Node000005_Node000025" class="edge">
<title>Node5&#45;&gt;Node25</title>
<g id="a_edge45_Node000005_Node000025"><a xlink:title=" ">
<path fill="none" stroke="#63b8ff" d="M928.73,-230.86C918.5,-217.34 896.95,-191.17 873,-176 844.02,-157.64 807.5,-145.1 778.35,-137.17"/>
<polygon fill="#63b8ff" stroke="#63b8ff" points="778.94,-133.7 768.38,-134.55 777.16,-140.48 778.94,-133.7"/>
</a>
</g>
</g>
<!-- Node8&#45;&gt;Node2 -->
<g id="edge12_Node000008_Node000002" class="edge">
<title>Node8&#45;&gt;Node2</title>
<g id="a_edge12_Node000008_Node000002"><a xlink:title=" ">
<path fill="none" stroke="#63b8ff" d="M1172.43,-175.93C1138.75,-157.39 1056.66,-112.15 988,-74 972.87,-65.59 970.39,-60.56 954,-55 858,-22.44 737.13,-13.7 680.32,-11.36"/>
<polygon fill="#63b8ff" stroke="#63b8ff" points="680.28,-7.85 670.15,-10.98 680.02,-14.85 680.28,-7.85"/>
</a>
</g>
</g>
<!-- Node8&#45;&gt;Node4 -->
<g id="edge13_Node000008_Node000004" class="edge">
<title>Node8&#45;&gt;Node4</title>
<g id="a_edge13_Node000008_Node000004"><a xlink:title=" ">
<path fill="none" stroke="#63b8ff" d="M1224.17,-175.97C1294.2,-158.61 1443.9,-117.18 1472,-74 1494.74,-39.05 1428.74,-22.08 1385.79,-14.93"/>
<polygon fill="#63b8ff" stroke="#63b8ff" points="1386.12,-11.44 1375.7,-13.36 1385.04,-18.36 1386.12,-11.44"/>
</a>
</g>
</g>
<!-- Node8&#45;&gt;Node6 -->
<g id="edge11_Node000008_Node000006" class="edge">
<title>Node8&#45;&gt;Node6</title>
<g id="a_edge11_Node000008_Node000006"><a xlink:title=" ">
<path fill="none" stroke="#63b8ff" d="M1232.59,-181.6C1290.29,-176.97 1393.43,-165.65 1478,-140 1479.44,-139.56 1480.91,-139.07 1482.37,-138.53"/>
<polygon fill="#63b8ff" stroke="#63b8ff" points="1483.96,-141.66 1491.83,-134.57 1481.25,-135.2 1483.96,-141.66"/>
</a>
</g>
</g>
<!-- Node9 -->
<g id="Node000009" class="node">
<title>Node9</title>
<g id="a_Node000009"><a xlink:href="TopologyGraph_8h.html" target="_top" xlink:title="Graphe planaire non&#45;orienté de nœuds et d&#39;arêtes ferroviaires accrochés.">
<polygon fill="white" stroke="#666666" points="1256.5,-134.5 1119.5,-134.5 1119.5,-115.5 1256.5,-115.5 1256.5,-134.5"/>
<text text-anchor="middle" x="1188" y="-122.5" font-family="Helvetica,sans-Serif" font-size="10.00">./Graph/TopologyGraph.h</text>
</a>
</g>
</g>
<!-- Node8&#45;&gt;Node9 -->
<g id="edge14_Node000008_Node000009" class="edge">
<title>Node8&#45;&gt;Node9</title>
<g id="a_edge14_Node000008_Node000009"><a xlink:title=" ">
<path fill="none" stroke="#63b8ff" d="M1188,-175.87C1188,-167.75 1188,-155.31 1188,-144.89"/>
<polygon fill="#63b8ff" stroke="#63b8ff" points="1191.5,-144.67 1188,-134.67 1184.5,-144.67 1191.5,-144.67"/>
</a>
</g>
</g>
<!-- Node16 -->
<g id="Node000016" class="node">
<title>Node16</title>
<g id="a_Node000016"><a xlink:href="CoordinateXY_8h.html" target="_top" xlink:title="Représentation d&#39;une coordonnée plane en mètres (système métrique UTM).">
<polygon fill="white" stroke="#666666" points="1248.5,-19 1111.5,-19 1111.5,0 1248.5,0 1248.5,-19"/>
<text text-anchor="middle" x="1180" y="-7" font-family="Helvetica,sans-Serif" font-size="10.00">../Models/CoordinateXY.h</text>
</a>
</g>
</g>
<!-- Node8&#45;&gt;Node16 -->
<g id="edge32_Node000008_Node000016" class="edge">
<title>Node8&#45;&gt;Node16</title>
<g id="a_edge32_Node000008_Node000016"><a xlink:title=" ">
<path fill="none" stroke="#63b8ff" d="M1212.59,-175.92C1263.4,-156.85 1372.02,-108.41 1332,-55 1320.92,-40.22 1279.6,-28.69 1242.83,-21.08"/>
<polygon fill="#63b8ff" stroke="#63b8ff" points="1243.1,-17.56 1232.61,-19.04 1241.73,-24.43 1243.1,-17.56"/>
</a>
</g>
</g>
<!-- Node8&#45;&gt;Node17 -->
<g id="edge30_Node000008_Node000017" class="edge">
<title>Node8&#45;&gt;Node17</title>
<g id="a_edge30_Node000008_Node000017"><a xlink:title=" ">
<path fill="none" stroke="#63b8ff" d="M1232.87,-182.41C1284.57,-178.71 1371.23,-168.43 1440,-140 1461.54,-131.1 1462.45,-120.98 1483,-110 1507.81,-96.74 1537.45,-85.3 1560.29,-77.33"/>
<polygon fill="#63b8ff" stroke="#63b8ff" points="1561.62,-80.58 1569.95,-74.03 1559.35,-73.96 1561.62,-80.58"/>
</a>
</g>
</g>
<!-- Node18 -->
<g id="Node000018" class="node">
<title>Node18</title>
<g id="a_Node000018"><a xlink:href="LatLon_8h.html" target="_top" xlink:title="Représentation d&#39;une coordonnée géographique WGS&#45;84 (latitude, longitude).">
<polygon fill="white" stroke="#666666" points="684,-74 582,-74 582,-55 684,-55 684,-74"/>
<text text-anchor="middle" x="633" y="-62" font-family="Helvetica,sans-Serif" font-size="10.00">./Models/LatLon.h</text>
</a>
</g>
</g>
<!-- Node8&#45;&gt;Node18 -->
<g id="edge31_Node000008_Node000018" class="edge">
<title>Node8&#45;&gt;Node18</title>
<g id="a_edge31_Node000008_Node000018"><a xlink:title=" ">
<path fill="none" stroke="#63b8ff" d="M1143.1,-183.65C1021.31,-180.94 691.37,-170.81 654,-140 637.67,-126.53 633.49,-101.44 632.68,-84.12"/>
<polygon fill="#63b8ff" stroke="#63b8ff" points="636.18,-84.02 632.55,-74.06 629.18,-84.11 636.18,-84.02"/>
</a>
</g>
</g>
<!-- Node8&#45;&gt;Node19 -->
<g id="edge33_Node000008_Node000019" class="edge">
<title>Node8&#45;&gt;Node19</title>
<g id="a_edge33_Node000008_Node000019"><a xlink:title=" ">
<path fill="none" stroke="#63b8ff" d="M1143.19,-182.03C1029.03,-175.69 717.99,-158.03 459,-140 421.52,-137.39 379.65,-134.13 345.84,-131.42"/>
<polygon fill="#63b8ff" stroke="#63b8ff" points="345.87,-127.91 335.62,-130.6 345.3,-134.89 345.87,-127.91"/>
</a>
</g>
</g>
<!-- Node9&#45;&gt;Node2 -->
<g id="edge18_Node000009_Node000002" class="edge">
<title>Node9&#45;&gt;Node2</title>
<g id="a_edge18_Node000009_Node000002"><a xlink:title=" ">
<path fill="none" stroke="#63b8ff" d="M1157.86,-115.45C1126.01,-106.18 1074.47,-90.47 1031,-74 1011.46,-66.6 1008.12,-60.64 988,-55 877.95,-24.18 741.76,-14.56 680.51,-11.67"/>
<polygon fill="#63b8ff" stroke="#63b8ff" points="680.46,-8.17 670.31,-11.22 680.15,-15.16 680.46,-8.17"/>
</a>
</g>
</g>
<!-- Node9&#45;&gt;Node3 -->
<g id="edge19_Node000009_Node000003" class="edge">
<title>Node9&#45;&gt;Node3</title>
<g id="a_edge19_Node000009_Node000003"><a xlink:title=" ">
<path fill="none" stroke="#63b8ff" d="M1145.98,-115.49C1094.4,-105.05 1006.92,-87.35 951.11,-76.05"/>
<polygon fill="#63b8ff" stroke="#63b8ff" points="951.57,-72.57 941.07,-74.02 950.18,-79.43 951.57,-72.57"/>
</a>
</g>
</g>
<!-- Node9&#45;&gt;Node4 -->
<g id="edge21_Node000009_Node000004" class="edge">
<title>Node9&#45;&gt;Node4</title>
<g id="a_edge21_Node000009_Node000004"><a xlink:title=" ">
<path fill="none" stroke="#63b8ff" d="M1250.18,-115.43C1278.49,-108.56 1310.43,-96.21 1332,-74 1343.69,-61.96 1348.56,-43.15 1350.57,-29.13"/>
<polygon fill="#63b8ff" stroke="#63b8ff" points="1354.06,-29.44 1351.66,-19.12 1347.1,-28.69 1354.06,-29.44"/>
</a>
</g>
</g>
<!-- Node9&#45;&gt;Node7 -->
<g id="edge20_Node000009_Node000007" class="edge">
<title>Node9&#45;&gt;Node7</title>
<g id="a_edge20_Node000009_Node000007"><a xlink:title=" ">
<path fill="none" stroke="#63b8ff" d="M1224.79,-115.49C1274.22,-104.06 1361.32,-83.92 1408.47,-73.02"/>
<polygon fill="#63b8ff" stroke="#63b8ff" points="1409.5,-76.38 1418.45,-70.71 1407.92,-69.56 1409.5,-76.38"/>
</a>
</g>
</g>
<!-- Node10 -->
<g id="Node000010" class="node">
<title>Node10</title>
<g id="a_Node000010"><a xlink:title=" ">
<polygon fill="#e0e0e0" stroke="#999999" points="1240,-74 1190,-74 1190,-55 1240,-55 1240,-74"/>
<text text-anchor="middle" x="1215" y="-62" font-family="Helvetica,sans-Serif" font-size="10.00">cstdint</text>
</a>
</g>
</g>
<!-- Node9&#45;&gt;Node10 -->
<g id="edge15_Node000009_Node000010" class="edge">
<title>Node9&#45;&gt;Node10</title>
<g id="a_edge15_Node000009_Node000010"><a xlink:title=" ">
<path fill="none" stroke="#63b8ff" d="M1191.98,-115.37C1195.85,-106.99 1201.84,-94.01 1206.74,-83.39"/>
<polygon fill="#63b8ff" stroke="#63b8ff" points="1209.99,-84.71 1211,-74.17 1203.63,-81.78 1209.99,-84.71"/>
</a>
</g>
</g>
<!-- Node11 -->
<g id="Node000011" class="node">
<title>Node11</title>
<g id="a_Node000011"><a xlink:title=" ">
<polygon fill="#e0e0e0" stroke="#999999" points="1323.5,-74 1258.5,-74 1258.5,-55 1323.5,-55 1323.5,-74"/>
<text text-anchor="middle" x="1291" y="-62" font-family="Helvetica,sans-Serif" font-size="10.00">functional</text>
</a>
</g>
</g>
<!-- Node9&#45;&gt;Node11 -->
<g id="edge16_Node000009_Node000011" class="edge">
<title>Node9&#45;&gt;Node11</title>
<g id="a_edge16_Node000009_Node000011"><a xlink:title=" ">
<path fill="none" stroke="#63b8ff" d="M1203.2,-115.37C1220.01,-105.82 1247.32,-90.31 1267.02,-79.12"/>
<polygon fill="#63b8ff" stroke="#63b8ff" points="1268.77,-82.15 1275.74,-74.17 1265.32,-76.06 1268.77,-82.15"/>
</a>
</g>
</g>
<!-- Node12 -->
<g id="Node000012" class="node">
<title>Node12</title>
<g id="a_Node000012"><a xlink:title=" ">
<polygon fill="#e0e0e0" stroke="#999999" points="834,-74 778,-74 778,-55 834,-55 834,-74"/>
<text text-anchor="middle" x="806" y="-62" font-family="Helvetica,sans-Serif" font-size="10.00">optional</text>
</a>
</g>
</g>
<!-- Node9&#45;&gt;Node12 -->
<g id="edge17_Node000009_Node000012" class="edge">
<title>Node9&#45;&gt;Node12</title>
<g id="a_edge17_Node000009_Node000012"><a xlink:title=" ">
<path fill="none" stroke="#63b8ff" d="M1119.32,-115.73C1051.75,-107.21 945.46,-92.79 844.32,-74.12"/>
<polygon fill="#63b8ff" stroke="#63b8ff" points="844.7,-70.63 834.23,-72.24 843.42,-77.51 844.7,-70.63"/>
</a>
</g>
</g>
<!-- Node13 -->
<g id="Node000013" class="node">
<title>Node13</title>
<g id="a_Node000013"><a xlink:href="TopologyEdge_8h.html" target="_top" xlink:title="Arête non&#45;orientée du graphe planaire de topologie ferroviaire.">
<polygon fill="white" stroke="#666666" points="1133.5,-74 1040.5,-74 1040.5,-55 1133.5,-55 1133.5,-74"/>
<text text-anchor="middle" x="1087" y="-62" font-family="Helvetica,sans-Serif" font-size="10.00">TopologyEdge.h</text>
</a>
</g>
</g>
<!-- Node9&#45;&gt;Node13 -->
<g id="edge22_Node000009_Node000013" class="edge">
<title>Node9&#45;&gt;Node13</title>
<g id="a_edge22_Node000009_Node000013"><a xlink:title=" ">
<path fill="none" stroke="#63b8ff" d="M1173.1,-115.37C1156.69,-105.86 1130.07,-90.45 1110.77,-79.27"/>
<polygon fill="#63b8ff" stroke="#63b8ff" points="1112.37,-76.15 1101.96,-74.17 1108.86,-82.21 1112.37,-76.15"/>
</a>
</g>
</g>
<!-- Node9&#45;&gt;Node16 -->
<g id="edge28_Node000009_Node000016" class="edge">
<title>Node9&#45;&gt;Node16</title>
<g id="a_edge28_Node000009_Node000016"><a xlink:title=" ">
<path fill="none" stroke="#63b8ff" d="M1186.43,-115.18C1184.73,-105.22 1182.13,-88.51 1181,-74 1179.84,-59.02 1179.63,-41.99 1179.69,-29.34"/>
<polygon fill="#63b8ff" stroke="#63b8ff" points="1183.19,-29.18 1179.8,-19.14 1176.19,-29.1 1183.19,-29.18"/>
</a>
</g>
</g>
<!-- Node9&#45;&gt;Node17 -->
<g id="edge29_Node000009_Node000017" class="edge">
<title>Node9&#45;&gt;Node17</title>
<g id="a_edge29_Node000009_Node000017"><a xlink:title=" ">
<path fill="none" stroke="#63b8ff" d="M1247.47,-115.49C1321.68,-104.88 1448.39,-86.76 1527.15,-75.49"/>
<polygon fill="#63b8ff" stroke="#63b8ff" points="1528.05,-78.9 1537.46,-74.02 1527.06,-71.97 1528.05,-78.9"/>
</a>
</g>
</g>
<!-- Node13&#45;&gt;Node2 -->
<g id="edge25_Node000013_Node000002" class="edge">
<title>Node13&#45;&gt;Node2</title>
<g id="a_edge25_Node000013_Node000002"><a xlink:title=" ">
<path fill="none" stroke="#63b8ff" d="M1040.39,-56.9C1035.53,-56.24 1030.67,-55.6 1026,-55 898.11,-38.56 745.56,-21.33 680.25,-14.06"/>
<polygon fill="#63b8ff" stroke="#63b8ff" points="680.5,-10.57 670.18,-12.94 679.73,-17.53 680.5,-10.57"/>
</a>
</g>
</g>
<!-- Node13&#45;&gt;Node4 -->
<g id="edge26_Node000013_Node000004" class="edge">
<title>Node13&#45;&gt;Node4</title>
<g id="a_edge26_Node000013_Node000004"><a xlink:title=" ">
<path fill="none" stroke="#63b8ff" d="M1129.58,-54.98C1182.19,-44.46 1270.62,-26.78 1318.6,-17.18"/>
<polygon fill="#63b8ff" stroke="#63b8ff" points="1319.36,-20.6 1328.48,-15.2 1317.99,-13.73 1319.36,-20.6"/>
</a>
</g>
</g>
<!-- Node14 -->
<g id="Node000014" class="node">
<title>Node14</title>
<g id="a_Node000014"><a xlink:title=" ">
<polygon fill="#e0e0e0" stroke="#999999" points="1093.5,-19 1046.5,-19 1046.5,0 1093.5,0 1093.5,-19"/>
<text text-anchor="middle" x="1070" y="-7" font-family="Helvetica,sans-Serif" font-size="10.00">cmath</text>
</a>
</g>
</g>
<!-- Node13&#45;&gt;Node14 -->
<g id="edge23_Node000013_Node000014" class="edge">
<title>Node13&#45;&gt;Node14</title>
<g id="a_edge23_Node000013_Node000014"><a xlink:title=" ">
<path fill="none" stroke="#63b8ff" d="M1084.19,-54.75C1081.94,-47.72 1078.7,-37.62 1075.88,-28.84"/>
<polygon fill="#63b8ff" stroke="#63b8ff" points="1079.14,-27.54 1072.75,-19.09 1072.48,-29.68 1079.14,-27.54"/>
</a>
</g>
</g>
<!-- Node15 -->
<g id="Node000015" class="node">
<title>Node15</title>
<g id="a_Node000015"><a xlink:title=" ">
<polygon fill="#e0e0e0" stroke="#999999" points="487,-19 431,-19 431,0 487,0 487,-19"/>
<text text-anchor="middle" x="459" y="-7" font-family="Helvetica,sans-Serif" font-size="10.00">sstream</text>
</a>
</g>
</g>
<!-- Node13&#45;&gt;Node15 -->
<g id="edge24_Node000013_Node000015" class="edge">
<title>Node13&#45;&gt;Node15</title>
<g id="a_edge24_Node000013_Node000015"><a xlink:title=" ">
<path fill="none" stroke="#63b8ff" d="M1040.31,-59.56C921.06,-49.5 606.94,-22.99 497.37,-13.74"/>
<polygon fill="#63b8ff" stroke="#63b8ff" points="497.37,-10.23 487.11,-12.87 496.78,-17.2 497.37,-10.23"/>
</a>
</g>
</g>
<!-- Node13&#45;&gt;Node16 -->
<g id="edge27_Node000013_Node000016" class="edge">
<title>Node13&#45;&gt;Node16</title>
<g id="a_edge27_Node000013_Node000016"><a xlink:title=" ">
<path fill="none" stroke="#63b8ff" d="M1101.94,-54.98C1116.5,-46.69 1138.87,-33.94 1155.93,-24.22"/>
<polygon fill="#63b8ff" stroke="#63b8ff" points="1157.83,-27.16 1164.79,-19.17 1154.36,-21.08 1157.83,-27.16"/>
</a>
</g>
</g>
<!-- Node19&#45;&gt;Node2 -->
<g id="edge39_Node000019_Node000002" class="edge">
<title>Node19&#45;&gt;Node2</title>
<g id="a_edge39_Node000019_Node000002"><a xlink:title=" ">
<path fill="none" stroke="#63b8ff" d="M224.23,-120.91C156,-115.19 54.26,-99.15 95,-55 103.9,-45.36 498.46,-19.88 615.56,-12.52"/>
<polygon fill="#63b8ff" stroke="#63b8ff" points="615.94,-16 625.7,-11.88 615.5,-9.02 615.94,-16"/>
</a>
</g>
</g>
<!-- Node19&#45;&gt;Node15 -->
<g id="edge38_Node000019_Node000015" class="edge">
<title>Node19&#45;&gt;Node15</title>
<g id="a_edge38_Node000019_Node000015"><a xlink:title=" ">
<path fill="none" stroke="#63b8ff" d="M224.47,-123.56C145.06,-121.08 13.71,-109.01 62,-55 85.7,-28.5 326.16,-15.9 420.92,-11.94"/>
<polygon fill="#63b8ff" stroke="#63b8ff" points="421.09,-15.43 430.94,-11.53 420.81,-8.44 421.09,-15.43"/>
</a>
</g>
</g>
<!-- Node20 -->
<g id="Node000020" class="node">
<title>Node20</title>
<g id="a_Node000020"><a xlink:title=" ">
<polygon fill="#e0e0e0" stroke="#999999" points="148,-74 104,-74 104,-55 148,-55 148,-74"/>
<text text-anchor="middle" x="126" y="-62" font-family="Helvetica,sans-Serif" font-size="10.00">ctime</text>
</a>
</g>
</g>
<!-- Node19&#45;&gt;Node20 -->
<g id="edge34_Node000019_Node000020" class="edge">
<title>Node19&#45;&gt;Node20</title>
<g id="a_edge34_Node000019_Node000020"><a xlink:title=" ">
<path fill="none" stroke="#63b8ff" d="M243.11,-109.99C217.15,-100.12 182.74,-87.05 157.95,-77.64"/>
<polygon fill="#63b8ff" stroke="#63b8ff" points="158.88,-74.25 148.29,-73.97 156.4,-80.79 158.88,-74.25"/>
</a>
</g>
</g>
<!-- Node21 -->
<g id="Node000021" class="node">
<title>Node21</title>
<g id="a_Node000021"><a xlink:title=" ">
<polygon fill="#e0e0e0" stroke="#999999" points="234,-74 166,-74 166,-55 234,-55 234,-74"/>
<text text-anchor="middle" x="200" y="-62" font-family="Helvetica,sans-Serif" font-size="10.00">filesystem</text>
</a>
</g>
</g>
<!-- Node19&#45;&gt;Node21 -->
<g id="edge35_Node000019_Node000021" class="edge">
<title>Node19&#45;&gt;Node21</title>
<g id="a_edge35_Node000019_Node000021"><a xlink:title=" ">
<path fill="none" stroke="#63b8ff" d="M260.63,-109.84C248.43,-100.91 232.69,-89.41 220.31,-80.35"/>
<polygon fill="#63b8ff" stroke="#63b8ff" points="222.13,-77.34 211.99,-74.27 217.99,-82.99 222.13,-77.34"/>
</a>
</g>
</g>
<!-- Node22 -->
<g id="Node000022" class="node">
<title>Node22</title>
<g id="a_Node000022"><a xlink:title=" ">
<polygon fill="#e0e0e0" stroke="#999999" points="307.5,-74 252.5,-74 252.5,-55 307.5,-55 307.5,-74"/>
<text text-anchor="middle" x="280" y="-62" font-family="Helvetica,sans-Serif" font-size="10.00">fstream</text>
</a>
</g>
</g>
<!-- Node19&#45;&gt;Node22 -->
<g id="edge36_Node000019_Node000022" class="edge">
<title>Node19&#45;&gt;Node22</title>
<g id="a_edge36_Node000019_Node000022"><a xlink:title=" ">
<path fill="none" stroke="#63b8ff" d="M280,-109.84C280,-102.21 280,-92.7 280,-84.45"/>
<polygon fill="#63b8ff" stroke="#63b8ff" points="283.5,-84.27 280,-74.27 276.5,-84.27 283.5,-84.27"/>
</a>
</g>
</g>
<!-- Node23 -->
<g id="Node000023" class="node">
<title>Node23</title>
<g id="a_Node000023"><a xlink:title=" ">
<polygon fill="#e0e0e0" stroke="#999999" points="374,-74 326,-74 326,-55 374,-55 374,-74"/>
<text text-anchor="middle" x="350" y="-62" font-family="Helvetica,sans-Serif" font-size="10.00">mutex</text>
</a>
</g>
</g>
<!-- Node19&#45;&gt;Node23 -->
<g id="edge37_Node000019_Node000023" class="edge">
<title>Node19&#45;&gt;Node23</title>
<g id="a_edge37_Node000019_Node000023"><a xlink:title=" ">
<path fill="none" stroke="#63b8ff" d="M296.95,-109.84C307.42,-101.09 320.86,-89.85 331.59,-80.88"/>
<polygon fill="#63b8ff" stroke="#63b8ff" points="334.08,-83.36 339.51,-74.27 329.59,-77.99 334.08,-83.36"/>
</a>
</g>
</g>
<!-- Node24&#45;&gt;Node2 -->
<g id="edge42_Node000024_Node000002" class="edge">
<title>Node24&#45;&gt;Node2</title>
<g id="a_edge42_Node000024_Node000002"><a xlink:title=" ">
<path fill="none" stroke="#63b8ff" d="M533.83,-115.42C530.81,-101.37 527.05,-73.18 540,-55 557.4,-30.57 590.73,-19.52 615.79,-14.54"/>
<polygon fill="#63b8ff" stroke="#63b8ff" points="616.7,-17.93 625.95,-12.75 615.49,-11.04 616.7,-17.93"/>
</a>
</g>
</g>
<!-- Node24&#45;&gt;Node4 -->
<g id="edge43_Node000024_Node000004" class="edge">
<title>Node24&#45;&gt;Node4</title>
<g id="a_edge43_Node000024_Node000004"><a xlink:title=" ">
<path fill="none" stroke="#63b8ff" d="M537.76,-115.37C541.38,-100.14 551.2,-68.84 573,-55 637.25,-14.21 1181.09,-24.39 1257,-19 1277.3,-17.56 1300,-15.54 1318.12,-13.84"/>
<polygon fill="#63b8ff" stroke="#63b8ff" points="1318.58,-17.31 1328.2,-12.87 1317.92,-10.34 1318.58,-17.31"/>
</a>
</g>
</g>
<!-- Node24&#45;&gt;Node15 -->
<g id="edge41_Node000024_Node000015" class="edge">
<title>Node24&#45;&gt;Node15</title>
<g id="a_edge41_Node000024_Node000015"><a xlink:title=" ">
<path fill="none" stroke="#63b8ff" d="M514.7,-115.4C497.83,-107.38 475.29,-93.66 464,-74 456.26,-60.51 455.51,-42.68 456.41,-29.35"/>
<polygon fill="#63b8ff" stroke="#63b8ff" points="459.89,-29.71 457.44,-19.4 452.93,-28.99 459.89,-29.71"/>
</a>
</g>
</g>
<!-- Node24&#45;&gt;Node18 -->
<g id="edge44_Node000024_Node000018" class="edge">
<title>Node24&#45;&gt;Node18</title>
<g id="a_edge44_Node000024_Node000018"><a xlink:title=" ">
<path fill="none" stroke="#63b8ff" d="M550.31,-115.37C566,-105.91 591.4,-90.59 609.91,-79.42"/>
<polygon fill="#63b8ff" stroke="#63b8ff" points="611.87,-82.33 618.63,-74.17 608.26,-76.33 611.87,-82.33"/>
</a>
</g>
</g>
<!-- Node25&#45;&gt;Node2 -->
<g id="edge48_Node000025_Node000002" class="edge">
<title>Node25&#45;&gt;Node2</title>
<g id="a_edge48_Node000025_Node000002"><a xlink:title=" ">
<path fill="none" stroke="#63b8ff" d="M724.71,-115.43C719.27,-101.88 707.56,-74.97 693,-55 685.27,-44.4 674.95,-34 666.15,-25.93"/>
<polygon fill="#63b8ff" stroke="#63b8ff" points="668.41,-23.25 658.61,-19.23 663.76,-28.49 668.41,-23.25"/>
</a>
</g>
</g>
<!-- Node25&#45;&gt;Node4 -->
<g id="edge49_Node000025_Node000004" class="edge">
<title>Node25&#45;&gt;Node4</title>
<g id="a_edge49_Node000025_Node000004"><a xlink:title=" ">
<path fill="none" stroke="#63b8ff" d="M730.28,-115.38C734.81,-100.19 746.49,-68.93 769,-55 815.23,-26.39 1202.81,-23.42 1257,-19 1277.28,-17.34 1299.98,-15.32 1318.1,-13.66"/>
<polygon fill="#63b8ff" stroke="#63b8ff" points="1318.56,-17.14 1328.19,-12.73 1317.91,-10.16 1318.56,-17.14"/>
</a>
</g>
</g>
<!-- Node25&#45;&gt;Node12 -->
<g id="edge46_Node000025_Node000012" class="edge">
<title>Node25&#45;&gt;Node12</title>
<g id="a_edge46_Node000025_Node000012"><a xlink:title=" ">
<path fill="none" stroke="#63b8ff" d="M739.51,-115.37C751.84,-106.12 771.62,-91.28 786.41,-80.19"/>
<polygon fill="#63b8ff" stroke="#63b8ff" points="788.54,-82.97 794.44,-74.17 784.34,-77.37 788.54,-82.97"/>
</a>
</g>
</g>
<!-- Node25&#45;&gt;Node15 -->
<g id="edge47_Node000025_Node000015" class="edge">
<title>Node25&#45;&gt;Node15</title>
<g id="a_edge47_Node000025_Node000015"><a xlink:title=" ">
<path fill="none" stroke="#63b8ff" d="M695.26,-115.46C663.41,-106.68 613.97,-91.81 573,-74 539.73,-59.54 503.48,-38.32 480.99,-24.46"/>
<polygon fill="#63b8ff" stroke="#63b8ff" points="482.59,-21.33 472.25,-19.01 478.88,-27.27 482.59,-21.33"/>
</a>
</g>
</g>
<!-- Node25&#45;&gt;Node18 -->
<g id="edge50_Node000025_Node000018" class="edge">
<title>Node25&#45;&gt;Node18</title>
<g id="a_edge50_Node000025_Node000018"><a xlink:title=" ">
<path fill="none" stroke="#63b8ff" d="M713.98,-115.37C698.69,-105.95 673.97,-90.73 655.86,-79.58"/>
<polygon fill="#63b8ff" stroke="#63b8ff" points="657.43,-76.43 647.08,-74.17 653.75,-82.39 657.43,-76.43"/>
</a>
</g>
</g>
</g>
</svg>
