<?xml version="1.0" encoding="UTF-8" standalone="no"?>
<!DOCTYPE svg PUBLIC "-//W3C//DTD SVG 1.1//EN"
 "http://www.w3.org/Graphics/SVG/1.1/DTD/svg11.dtd">
<!-- Generated by graphviz version 2.43.0 (0)
 -->
<!-- Title: SimulateurFerroviaire/Modules/GeoParser/SwitchOrientator.h Pages: 1 -->
<svg width="1605pt" height="412pt"
 viewBox="0.00 0.00 1605.00 412.00" xmlns="http://www.w3.org/2000/svg" xmlns:xlink="http://www.w3.org/1999/xlink">
<g id="graph0" class="graph" transform="scale(1 1) rotate(0) translate(4 408)">
<title>SimulateurFerroviaire/Modules/GeoParser/SwitchOrientator.h</title>
<!-- Node1 -->
<g id="Node000001" class="node">
<title>Node1</title>
<g id="a_Node000001"><a xlink:title="Phases 6, 6b, 6c et 6d — orientation géométrique des aiguillages.">
<polygon fill="#999999" stroke="#666666" points="858,-404 652,-404 652,-374 858,-374 858,-404"/>
<text text-anchor="start" x="660" y="-392" font-family="Helvetica,sans-Serif" font-size="10.00">SimulateurFerroviaire</text>
<text text-anchor="middle" x="755" y="-381" font-family="Helvetica,sans-Serif" font-size="10.00">/Modules/GeoParser/SwitchOrientator.h</text>
</a>
</g>
</g>
<!-- Node2 -->
<g id="Node000002" class="node">
<title>Node2</title>
<g id="a_Node000002"><a xlink:title=" ">
<polygon fill="#e0e0e0" stroke="#999999" points="309,-211.5 277,-211.5 277,-192.5 309,-192.5 309,-211.5"/>
<text text-anchor="middle" x="293" y="-199.5" font-family="Helvetica,sans-Serif" font-size="10.00">set</text>
</a>
</g>
</g>
<!-- Node1&#45;&gt;Node2 -->
<g id="edge1_Node000001_Node000002" class="edge">
<title>Node1&#45;&gt;Node2</title>
<g id="a_edge1_Node000001_Node000002"><a xlink:title=" ">
<path fill="none" stroke="#63b8ff" d="M705.49,-373.93C643.21,-355.64 533.47,-321.46 443,-283 384.46,-258.11 371.42,-248.22 316,-217 315.91,-216.95 315.82,-216.9 315.72,-216.84"/>
<polygon fill="#63b8ff" stroke="#63b8ff" points="317.42,-213.78 307.02,-211.74 313.88,-219.82 317.42,-213.78"/>
</a>
</g>
</g>
<!-- Node3 -->
<g id="Node000003" class="node">
<title>Node3</title>
<g id="a_Node000003"><a xlink:title=" ">
<polygon fill="#e0e0e0" stroke="#999999" points="966,-19 922,-19 922,0 966,0 966,-19"/>
<text text-anchor="middle" x="944" y="-7" font-family="Helvetica,sans-Serif" font-size="10.00">string</text>
</a>
</g>
</g>
<!-- Node1&#45;&gt;Node3 -->
<g id="edge2_Node000001_Node000003" class="edge">
<title>Node1&#45;&gt;Node3</title>
<g id="a_edge2_Node000001_Node000003"><a xlink:title=" ">
<path fill="none" stroke="#63b8ff" d="M652,-382.29C445.39,-369.46 0,-334.23 0,-269 0,-269 0,-269 0,-135 0,-40.98 745.54,-15.74 911.52,-11.29"/>
<polygon fill="#63b8ff" stroke="#63b8ff" points="911.69,-14.79 921.6,-11.03 911.51,-7.79 911.69,-14.79"/>
</a>
</g>
</g>
<!-- Node4 -->
<g id="Node000004" class="node">
<title>Node4</title>
<g id="a_Node000004"><a xlink:title=" ">
<polygon fill="#e0e0e0" stroke="#999999" points="121.5,-145.5 28.5,-145.5 28.5,-126.5 121.5,-126.5 121.5,-145.5"/>
<text text-anchor="middle" x="75" y="-133.5" font-family="Helvetica,sans-Serif" font-size="10.00">unordered_map</text>
</a>
</g>
</g>
<!-- Node1&#45;&gt;Node4 -->
<g id="edge3_Node000001_Node000004" class="edge">
<title>Node1&#45;&gt;Node4</title>
<g id="a_edge3_Node000001_Node000004"><a xlink:title=" ">
<path fill="none" stroke="#63b8ff" d="M651.77,-377.34C549.83,-364.22 391.05,-336.73 263,-283 207.59,-259.75 191.69,-254.83 145,-217 121.89,-198.28 100.14,-171.42 87.19,-154.1"/>
<polygon fill="#63b8ff" stroke="#63b8ff" points="89.68,-151.57 80.95,-145.56 84.03,-155.7 89.68,-151.57"/>
</a>
</g>
</g>
<!-- Node5 -->
<g id="Node000005" class="node">
<title>Node5</title>
<g id="a_Node000005"><a xlink:title=" ">
<polygon fill="#e0e0e0" stroke="#999999" points="184.5,-145.5 139.5,-145.5 139.5,-126.5 184.5,-126.5 184.5,-145.5"/>
<text text-anchor="middle" x="162" y="-133.5" font-family="Helvetica,sans-Serif" font-size="10.00">utility</text>
</a>
</g>
</g>
<!-- Node1&#45;&gt;Node5 -->
<g id="edge4_Node000001_Node000005" class="edge">
<title>Node1&#45;&gt;Node5</title>
<g id="a_edge4_Node000001_Node000005"><a xlink:title=" ">
<path fill="none" stroke="#63b8ff" d="M674.82,-373.96C590.71,-357.74 455.62,-327.46 345,-283 286.34,-259.43 266.65,-258.55 219,-217 198.48,-199.1 181.38,-172.41 171.42,-154.86"/>
<polygon fill="#63b8ff" stroke="#63b8ff" points="174.29,-152.8 166.41,-145.71 168.15,-156.16 174.29,-152.8"/>
</a>
</g>
</g>
<!-- Node6 -->
<g id="Node000006" class="node">
<title>Node6</title>
<g id="a_Node000006"><a xlink:title=" ">
<polygon fill="#e0e0e0" stroke="#999999" points="1019.5,-79.5 972.5,-79.5 972.5,-60.5 1019.5,-60.5 1019.5,-79.5"/>
<text text-anchor="middle" x="996" y="-67.5" font-family="Helvetica,sans-Serif" font-size="10.00">vector</text>
</a>
</g>
</g>
<!-- Node1&#45;&gt;Node6 -->
<g id="edge5_Node000001_Node000006" class="edge">
<title>Node1&#45;&gt;Node6</title>
<g id="a_edge5_Node000001_Node000006"><a xlink:title=" ">
<path fill="none" stroke="#63b8ff" d="M858.22,-383.21C935.17,-373.42 1027,-345.67 1027,-269 1027,-269 1027,-269 1027,-201 1027,-160.17 1012.35,-114.05 1003.2,-89.2"/>
<polygon fill="#63b8ff" stroke="#63b8ff" points="1006.39,-87.75 999.56,-79.66 999.85,-90.25 1006.39,-87.75"/>
</a>
</g>
</g>
<!-- Node7 -->
<g id="Node000007" class="node">
<title>Node7</title>
<g id="a_Node000007"><a xlink:href="TopologyExtractor_8h.html" target="_top" xlink:title="Phases 3, 4, 5a et 5b — extraction de la topologie ferroviaire depuis le graphe.">
<polygon fill="white" stroke="#666666" points="889.5,-338 776.5,-338 776.5,-319 889.5,-319 889.5,-338"/>
<text text-anchor="middle" x="833" y="-326" font-family="Helvetica,sans-Serif" font-size="10.00">TopologyExtractor.h</text>
</a>
</g>
</g>
<!-- Node1&#45;&gt;Node7 -->
<g id="edge6_Node000001_Node000007" class="edge">
<title>Node1&#45;&gt;Node7</title>
<g id="a_edge6_Node000001_Node000007"><a xlink:title=" ">
<path fill="none" stroke="#63b8ff" d="M773.88,-373.84C785.78,-364.91 801.12,-353.41 813.2,-344.35"/>
<polygon fill="#63b8ff" stroke="#63b8ff" points="815.41,-347.07 821.31,-338.27 811.21,-341.47 815.41,-347.07"/>
</a>
</g>
</g>
<!-- Node17 -->
<g id="Node000017" class="node">
<title>Node17</title>
<g id="a_Node000017"><a xlink:href="GeoParserEnums_8h.html" target="_top" xlink:title="Constantes nommées et énumérations du pipeline ferroviaire GeoParser.">
<polygon fill="white" stroke="#666666" points="772.5,-145.5 619.5,-145.5 619.5,-126.5 772.5,-126.5 772.5,-145.5"/>
<text text-anchor="middle" x="696" y="-133.5" font-family="Helvetica,sans-Serif" font-size="10.00">../Enums/GeoParserEnums.h</text>
</a>
</g>
</g>
<!-- Node1&#45;&gt;Node17 -->
<g id="edge61_Node000001_Node000017" class="edge">
<title>Node1&#45;&gt;Node17</title>
<g id="a_edge61_Node000001_Node000017"><a xlink:title=" ">
<path fill="none" stroke="#63b8ff" d="M751.66,-373.79C741.62,-331.06 711.7,-203.79 700.39,-155.69"/>
<polygon fill="#63b8ff" stroke="#63b8ff" points="703.75,-154.67 698.05,-145.73 696.93,-156.27 703.75,-154.67"/>
</a>
</g>
</g>
<!-- Node19 -->
<g id="Node000019" class="node">
<title>Node19</title>
<g id="a_Node000019"><a xlink:href="Logger_8h.html" target="_top" xlink:title="Système de journalisation à 5 niveaux de trace, un fichier par moteur.">
<polygon fill="white" stroke="#666666" points="1450.5,-85 1339.5,-85 1339.5,-55 1450.5,-55 1450.5,-85"/>
<text text-anchor="start" x="1347.5" y="-73" font-family="Helvetica,sans-Serif" font-size="10.00">Engine/Core/Logger</text>
<text text-anchor="middle" x="1395" y="-62" font-family="Helvetica,sans-Serif" font-size="10.00">/Logger.h</text>
</a>
</g>
</g>
<!-- Node1&#45;&gt;Node19 -->
<g id="edge62_Node000001_Node000019" class="edge">
<title>Node1&#45;&gt;Node19</title>
<g id="a_edge62_Node000001_Node000019"><a xlink:title=" ">
<path fill="none" stroke="#63b8ff" d="M858.25,-384C1083.08,-373.93 1597,-342.82 1597,-269 1597,-269 1597,-269 1597,-201 1597,-134.83 1519.4,-100.74 1460.4,-84.39"/>
<polygon fill="#63b8ff" stroke="#63b8ff" points="1461.3,-81.01 1450.73,-81.82 1459.5,-87.77 1461.3,-81.01"/>
</a>
</g>
</g>
<!-- Node24 -->
<g id="Node000024" class="node">
<title>Node24</title>
<g id="a_Node000024"><a xlink:href="StraightBlock_8h.html" target="_top" xlink:title="Modèle de domaine d&#39;un bloc de voie droite (Straight).">
<polygon fill="white" stroke="#666666" points="1442.5,-283 1257.5,-283 1257.5,-253 1442.5,-253 1442.5,-283"/>
<text text-anchor="start" x="1265.5" y="-271" font-family="Helvetica,sans-Serif" font-size="10.00">Modules/InteractiveElements</text>
<text text-anchor="middle" x="1350" y="-260" font-family="Helvetica,sans-Serif" font-size="10.00">/ShuntingElements/StraightBlock.h</text>
</a>
</g>
</g>
<!-- Node1&#45;&gt;Node24 -->
<g id="edge59_Node000001_Node000024" class="edge">
<title>Node1&#45;&gt;Node24</title>
<g id="a_edge59_Node000001_Node000024"><a xlink:title=" ">
<path fill="none" stroke="#63b8ff" d="M858.17,-374.13C920.59,-365.15 1001.66,-352.46 1073,-338 1148.26,-322.74 1233.89,-300.68 1289.77,-285.63"/>
<polygon fill="#63b8ff" stroke="#63b8ff" points="1290.76,-288.99 1299.51,-283 1288.94,-282.23 1290.76,-288.99"/>
</a>
</g>
</g>
<!-- Node27 -->
<g id="Node000027" class="node">
<title>Node27</title>
<g id="a_Node000027"><a xlink:href="SwitchBlock_8h.html" target="_top" xlink:title="Modèle de domaine d&#39;un aiguillage ferroviaire à 3 branches.">
<polygon fill="white" stroke="#666666" points="1234.5,-283 1055.5,-283 1055.5,-253 1234.5,-253 1234.5,-283"/>
<text text-anchor="start" x="1063.5" y="-271" font-family="Helvetica,sans-Serif" font-size="10.00">Modules/InteractiveElements</text>
<text text-anchor="middle" x="1145" y="-260" font-family="Helvetica,sans-Serif" font-size="10.00">/ShuntingElements/SwitchBlock.h</text>
</a>
</g>
</g>
<!-- Node1&#45;&gt;Node27 -->
<g id="edge60_Node000001_Node000027" class="edge">
<title>Node1&#45;&gt;Node27</title>
<g id="a_edge60_Node000001_Node000027"><a xlink:title=" ">
<path fill="none" stroke="#63b8ff" d="M858.06,-380.33C913.75,-373.66 982.83,-361.2 1041,-338 1070.59,-326.2 1100.49,-305.2 1120.58,-289.46"/>
<polygon fill="#63b8ff" stroke="#63b8ff" points="1122.94,-292.05 1128.57,-283.07 1118.57,-286.59 1122.94,-292.05"/>
</a>
</g>
</g>
<!-- Node7&#45;&gt;Node2 -->
<g id="edge7_Node000007_Node000002" class="edge">
<title>Node7&#45;&gt;Node2</title>
<g id="a_edge7_Node000007_Node000002"><a xlink:title=" ">
<path fill="none" stroke="#63b8ff" d="M776.43,-319.48C681.14,-305.03 483.33,-271.02 323,-217 321.57,-216.52 320.12,-215.99 318.66,-215.42"/>
<polygon fill="#63b8ff" stroke="#63b8ff" points="319.8,-212.11 309.23,-211.38 317.04,-218.54 319.8,-212.11"/>
</a>
</g>
</g>
<!-- Node7&#45;&gt;Node3 -->
<g id="edge8_Node000007_Node000003" class="edge">
<title>Node7&#45;&gt;Node3</title>
<g id="a_edge8_Node000007_Node000003"><a xlink:title=" ">
<path fill="none" stroke="#63b8ff" d="M848.23,-318.93C860.6,-311.16 877.51,-298.56 887,-283 938.28,-198.93 944.04,-76.08 944.25,-29.43"/>
<polygon fill="#63b8ff" stroke="#63b8ff" points="947.75,-29.26 944.21,-19.27 940.75,-29.29 947.75,-29.26"/>
</a>
</g>
</g>
<!-- Node7&#45;&gt;Node4 -->
<g id="edge9_Node000007_Node000004" class="edge">
<title>Node7&#45;&gt;Node4</title>
<g id="a_edge9_Node000007_Node000004"><a xlink:title=" ">
<path fill="none" stroke="#63b8ff" d="M776.21,-325.1C665.44,-319.96 424.46,-306.43 345,-283 243.83,-253.17 137.71,-182.2 94.76,-151.53"/>
<polygon fill="#63b8ff" stroke="#63b8ff" points="96.74,-148.64 86.58,-145.62 92.64,-154.31 96.74,-148.64"/>
</a>
</g>
</g>
<!-- Node7&#45;&gt;Node5 -->
<g id="edge10_Node000007_Node000005" class="edge">
<title>Node7&#45;&gt;Node5</title>
<g id="a_edge10_Node000007_Node000005"><a xlink:title=" ">
<path fill="none" stroke="#63b8ff" d="M776.23,-327.6C669.85,-325.46 436.08,-309.6 268,-217 234.25,-198.41 199.39,-169.99 179.25,-152.51"/>
<polygon fill="#63b8ff" stroke="#63b8ff" points="181.39,-149.73 171.57,-145.74 176.76,-154.98 181.39,-149.73"/>
</a>
</g>
</g>
<!-- Node7&#45;&gt;Node6 -->
<g id="edge11_Node000007_Node000006" class="edge">
<title>Node7&#45;&gt;Node6</title>
<g id="a_edge11_Node000007_Node000006"><a xlink:title=" ">
<path fill="none" stroke="#63b8ff" d="M889.77,-321.96C916.49,-316.36 946.48,-305.19 965,-283 1012.39,-226.21 1004.86,-129.74 999.14,-89.49"/>
<polygon fill="#63b8ff" stroke="#63b8ff" points="1002.58,-88.85 997.59,-79.51 995.67,-89.93 1002.58,-88.85"/>
</a>
</g>
</g>
<!-- Node8 -->
<g id="Node000008" class="node">
<title>Node8</title>
<g id="a_Node000008"><a xlink:href="GraphBuilder_8h.html" target="_top" xlink:title="Phases 1 et 2 du pipeline — chargement GeoJSON et construction du graphe métrique.">
<polygon fill="white" stroke="#666666" points="877.5,-277.5 788.5,-277.5 788.5,-258.5 877.5,-258.5 877.5,-277.5"/>
<text text-anchor="middle" x="833" y="-265.5" font-family="Helvetica,sans-Serif" font-size="10.00">GraphBuilder.h</text>
</a>
</g>
</g>
<!-- Node7&#45;&gt;Node8 -->
<g id="edge12_Node000007_Node000008" class="edge">
<title>Node7&#45;&gt;Node8</title>
<g id="a_edge12_Node000007_Node000008"><a xlink:title=" ">
<path fill="none" stroke="#63b8ff" d="M833,-318.87C833,-310.75 833,-298.31 833,-287.89"/>
<polygon fill="#63b8ff" stroke="#63b8ff" points="836.5,-287.67 833,-277.67 829.5,-287.67 836.5,-287.67"/>
</a>
</g>
</g>
<!-- Node7&#45;&gt;Node17 -->
<g id="edge57_Node000007_Node000017" class="edge">
<title>Node7&#45;&gt;Node17</title>
<g id="a_edge57_Node000007_Node000017"><a xlink:title=" ">
<path fill="none" stroke="#63b8ff" d="M820.12,-318.69C808.65,-310.41 791.88,-297.18 780,-283 745.22,-241.47 716.79,-183.59 703.73,-154.77"/>
<polygon fill="#63b8ff" stroke="#63b8ff" points="706.89,-153.27 699.63,-145.56 700.5,-156.12 706.89,-153.27"/>
</a>
</g>
</g>
<!-- Node7&#45;&gt;Node19 -->
<g id="edge58_Node000007_Node000019" class="edge">
<title>Node7&#45;&gt;Node19</title>
<g id="a_edge58_Node000007_Node000019"><a xlink:title=" ">
<path fill="none" stroke="#63b8ff" d="M889.68,-328.14C1022.81,-328.89 1351.82,-326.17 1452,-283 1524.53,-251.75 1569.71,-186.1 1525,-121 1510.2,-99.44 1484.7,-87.18 1460.19,-80.2"/>
<polygon fill="#63b8ff" stroke="#63b8ff" points="1461.06,-76.81 1450.51,-77.69 1459.31,-83.59 1461.06,-76.81"/>
</a>
</g>
</g>
<!-- Node7&#45;&gt;Node24 -->
<g id="edge42_Node000007_Node000024" class="edge">
<title>Node7&#45;&gt;Node24</title>
<g id="a_edge42_Node000007_Node000024"><a xlink:title=" ">
<path fill="none" stroke="#63b8ff" d="M889.56,-321.8C968.84,-313.71 1117.52,-298.2 1244,-283 1245.08,-282.87 1246.17,-282.74 1247.27,-282.61"/>
<polygon fill="#63b8ff" stroke="#63b8ff" points="1247.73,-286.07 1257.23,-281.38 1246.88,-279.13 1247.73,-286.07"/>
</a>
</g>
</g>
<!-- Node7&#45;&gt;Node27 -->
<g id="edge50_Node000007_Node000027" class="edge">
<title>Node7&#45;&gt;Node27</title>
<g id="a_edge50_Node000007_Node000027"><a xlink:title=" ">
<path fill="none" stroke="#63b8ff" d="M878.37,-318.99C925.9,-310.08 1001.66,-295.88 1060.3,-284.88"/>
<polygon fill="#63b8ff" stroke="#63b8ff" points="1061.11,-288.29 1070.29,-283.01 1059.82,-281.41 1061.11,-288.29"/>
</a>
</g>
</g>
<!-- Node8&#45;&gt;Node2 -->
<g id="edge13_Node000008_Node000002" class="edge">
<title>Node8&#45;&gt;Node2</title>
<g id="a_edge13_Node000008_Node000002"><a xlink:title=" ">
<path fill="none" stroke="#63b8ff" d="M788.43,-267.64C698.65,-267.84 490.33,-262.8 323,-217 321.51,-216.59 320,-216.12 318.5,-215.59"/>
<polygon fill="#63b8ff" stroke="#63b8ff" points="319.39,-212.17 308.81,-211.6 316.72,-218.64 319.39,-212.17"/>
</a>
</g>
</g>
<!-- Node8&#45;&gt;Node3 -->
<g id="edge14_Node000008_Node000003" class="edge">
<title>Node8&#45;&gt;Node3</title>
<g id="a_edge14_Node000008_Node000003"><a xlink:title=" ">
<path fill="none" stroke="#63b8ff" d="M836.69,-258.47C852.46,-222.03 914.34,-79.04 936.25,-28.4"/>
<polygon fill="#63b8ff" stroke="#63b8ff" points="939.53,-29.63 940.29,-19.07 933.11,-26.85 939.53,-29.63"/>
</a>
</g>
</g>
<!-- Node8&#45;&gt;Node6 -->
<g id="edge15_Node000008_Node000006" class="edge">
<title>Node8&#45;&gt;Node6</title>
<g id="a_edge15_Node000008_Node000006"><a xlink:title=" ">
<path fill="none" stroke="#63b8ff" d="M840.21,-258.33C865.36,-228.09 949.38,-127.06 982.45,-87.29"/>
<polygon fill="#63b8ff" stroke="#63b8ff" points="985.17,-89.5 988.87,-79.57 979.78,-85.03 985.17,-89.5"/>
</a>
</g>
</g>
<!-- Node9 -->
<g id="Node000009" class="node">
<title>Node9</title>
<g id="a_Node000009"><a xlink:href="TopologyGraph_8h.html" target="_top" xlink:title="Graphe planaire non&#45;orienté de nœuds et d&#39;arêtes ferroviaires accrochés.">
<polygon fill="white" stroke="#666666" points="509.5,-211.5 372.5,-211.5 372.5,-192.5 509.5,-192.5 509.5,-211.5"/>
<text text-anchor="middle" x="441" y="-199.5" font-family="Helvetica,sans-Serif" font-size="10.00">./Graph/TopologyGraph.h</text>
</a>
</g>
</g>
<!-- Node8&#45;&gt;Node9 -->
<g id="edge16_Node000008_Node000009" class="edge">
<title>Node8&#45;&gt;Node9</title>
<g id="a_edge16_Node000008_Node000009"><a xlink:title=" ">
<path fill="none" stroke="#63b8ff" d="M788.41,-259.72C718.46,-248.3 582.72,-226.14 503.2,-213.16"/>
<polygon fill="#63b8ff" stroke="#63b8ff" points="503.75,-209.7 493.31,-211.54 502.62,-216.61 503.75,-209.7"/>
</a>
</g>
</g>
<!-- Node16 -->
<g id="Node000016" class="node">
<title>Node16</title>
<g id="a_Node000016"><a xlink:href="CoordinateXY_8h.html" target="_top" xlink:title="Représentation d&#39;une coordonnée plane en mètres (système métrique UTM).">
<polygon fill="white" stroke="#666666" points="487.5,-85 368.5,-85 368.5,-55 487.5,-55 487.5,-85"/>
<text text-anchor="start" x="376.5" y="-73" font-family="Helvetica,sans-Serif" font-size="10.00">Modules/Coordinates</text>
<text text-anchor="middle" x="428" y="-62" font-family="Helvetica,sans-Serif" font-size="10.00">/CoordinateXY.h</text>
</a>
</g>
</g>
<!-- Node8&#45;&gt;Node16 -->
<g id="edge34_Node000008_Node000016" class="edge">
<title>Node8&#45;&gt;Node16</title>
<g id="a_edge34_Node000008_Node000016"><a xlink:title=" ">
<path fill="none" stroke="#63b8ff" d="M788.3,-265.13C686.5,-260.39 440.23,-246.21 363,-217 360.04,-215.88 271.45,-153.81 270,-151 248.79,-109.94 306.96,-89.52 358.6,-79.65"/>
<polygon fill="#63b8ff" stroke="#63b8ff" points="359.26,-83.09 368.48,-77.87 358.02,-76.2 359.26,-83.09"/>
</a>
</g>
</g>
<!-- Node8&#45;&gt;Node17 -->
<g id="edge32_Node000008_Node000017" class="edge">
<title>Node8&#45;&gt;Node17</title>
<g id="a_edge32_Node000008_Node000017"><a xlink:title=" ">
<path fill="none" stroke="#63b8ff" d="M825.63,-258.18C812.77,-242.99 785.08,-211.18 759,-187 745.36,-174.35 728.85,-161.32 716.15,-151.74"/>
<polygon fill="#63b8ff" stroke="#63b8ff" points="718.16,-148.87 708.05,-145.7 713.98,-154.48 718.16,-148.87"/>
</a>
</g>
</g>
<!-- Node18 -->
<g id="Node000018" class="node">
<title>Node18</title>
<g id="a_Node000018"><a xlink:href="LatLon_8h.html" target="_top" xlink:title="Représentation d&#39;une coordonnée géographique WGS&#45;84 (latitude, longitude).">
<polygon fill="white" stroke="#666666" points="1288.5,-217 1169.5,-217 1169.5,-187 1288.5,-187 1288.5,-217"/>
<text text-anchor="start" x="1177.5" y="-205" font-family="Helvetica,sans-Serif" font-size="10.00">Modules/Coordinates</text>
<text text-anchor="middle" x="1229" y="-194" font-family="Helvetica,sans-Serif" font-size="10.00">/LatLon.h</text>
</a>
</g>
</g>
<!-- Node8&#45;&gt;Node18 -->
<g id="edge33_Node000008_Node000018" class="edge">
<title>Node8&#45;&gt;Node18</title>
<g id="a_edge33_Node000008_Node000018"><a xlink:title=" ">
<path fill="none" stroke="#63b8ff" d="M877.61,-260.55C939.84,-251.44 1056.18,-234.02 1155,-217 1156.45,-216.75 1157.91,-216.5 1159.39,-216.24"/>
<polygon fill="#63b8ff" stroke="#63b8ff" points="1160.03,-219.68 1169.26,-214.48 1158.8,-212.79 1160.03,-219.68"/>
</a>
</g>
</g>
<!-- Node8&#45;&gt;Node19 -->
<g id="edge35_Node000008_Node000019" class="edge">
<title>Node8&#45;&gt;Node19</title>
<g id="a_edge35_Node000008_Node000019"><a xlink:title=" ">
<path fill="none" stroke="#63b8ff" d="M857.51,-258.45C942.91,-228.67 1228.48,-129.08 1344.93,-88.46"/>
<polygon fill="#63b8ff" stroke="#63b8ff" points="1346.38,-91.66 1354.67,-85.07 1344.07,-85.05 1346.38,-91.66"/>
</a>
</g>
</g>
<!-- Node9&#45;&gt;Node3 -->
<g id="edge20_Node000009_Node000003" class="edge">
<title>Node9&#45;&gt;Node3</title>
<g id="a_edge20_Node000009_Node000003"><a xlink:title=" ">
<path fill="none" stroke="#63b8ff" d="M372.31,-194.78C315.32,-186.32 247.05,-166.6 270,-121 292.14,-77.01 312.86,-72.21 359,-55 461.53,-16.76 804.07,-11.36 911.49,-10.62"/>
<polygon fill="#63b8ff" stroke="#63b8ff" points="911.73,-14.11 921.71,-10.55 911.69,-7.11 911.73,-14.11"/>
</a>
</g>
</g>
<!-- Node9&#45;&gt;Node4 -->
<g id="edge21_Node000009_Node000004" class="edge">
<title>Node9&#45;&gt;Node4</title>
<g id="a_edge21_Node000009_Node000004"><a xlink:title=" ">
<path fill="none" stroke="#63b8ff" d="M377.26,-192.46C314.18,-183.61 215.01,-168.62 130,-151 125.59,-150.09 121.01,-149.05 116.45,-147.97"/>
<polygon fill="#63b8ff" stroke="#63b8ff" points="117.13,-144.54 106.59,-145.56 115.47,-151.34 117.13,-144.54"/>
</a>
</g>
</g>
<!-- Node9&#45;&gt;Node5 -->
<g id="edge22_Node000009_Node000005" class="edge">
<title>Node9&#45;&gt;Node5</title>
<g id="a_edge22_Node000009_Node000005"><a xlink:title=" ">
<path fill="none" stroke="#63b8ff" d="M403.66,-192.44C348.65,-179.82 246.72,-156.43 194.58,-144.47"/>
<polygon fill="#63b8ff" stroke="#63b8ff" points="195.07,-140.99 184.54,-142.17 193.5,-147.82 195.07,-140.99"/>
</a>
</g>
</g>
<!-- Node9&#45;&gt;Node6 -->
<g id="edge23_Node000009_Node000006" class="edge">
<title>Node9&#45;&gt;Node6</title>
<g id="a_edge23_Node000009_Node000006"><a xlink:title=" ">
<path fill="none" stroke="#63b8ff" d="M470.44,-192.48C497.73,-183.96 538.97,-169.48 572,-151 591.08,-140.32 590.74,-129.23 611,-121 739.1,-68.97 783.27,-105.54 920,-85 933.92,-82.91 949.2,-80.18 962.39,-77.69"/>
<polygon fill="#63b8ff" stroke="#63b8ff" points="963.29,-81.08 972.45,-75.75 961.97,-74.2 963.29,-81.08"/>
</a>
</g>
</g>
<!-- Node10 -->
<g id="Node000010" class="node">
<title>Node10</title>
<g id="a_Node000010"><a xlink:title=" ">
<polygon fill="#e0e0e0" stroke="#999999" points="413,-145.5 363,-145.5 363,-126.5 413,-126.5 413,-145.5"/>
<text text-anchor="middle" x="388" y="-133.5" font-family="Helvetica,sans-Serif" font-size="10.00">cstdint</text>
</a>
</g>
</g>
<!-- Node9&#45;&gt;Node10 -->
<g id="edge17_Node000009_Node000010" class="edge">
<title>Node9&#45;&gt;Node10</title>
<g id="a_edge17_Node000009_Node000010"><a xlink:title=" ">
<path fill="none" stroke="#63b8ff" d="M433.85,-192.37C425.68,-182.5 412.11,-166.11 401.84,-153.72"/>
<polygon fill="#63b8ff" stroke="#63b8ff" points="404.45,-151.37 395.37,-145.91 399.06,-155.84 404.45,-151.37"/>
</a>
</g>
</g>
<!-- Node11 -->
<g id="Node000011" class="node">
<title>Node11</title>
<g id="a_Node000011"><a xlink:title=" ">
<polygon fill="#e0e0e0" stroke="#999999" points="344.5,-145.5 279.5,-145.5 279.5,-126.5 344.5,-126.5 344.5,-145.5"/>
<text text-anchor="middle" x="312" y="-133.5" font-family="Helvetica,sans-Serif" font-size="10.00">functional</text>
</a>
</g>
</g>
<!-- Node9&#45;&gt;Node11 -->
<g id="edge18_Node000009_Node000011" class="edge">
<title>Node9&#45;&gt;Node11</title>
<g id="a_edge18_Node000009_Node000011"><a xlink:title=" ">
<path fill="none" stroke="#63b8ff" d="M423.6,-192.37C401.77,-181.54 364.11,-162.85 338.64,-150.22"/>
<polygon fill="#63b8ff" stroke="#63b8ff" points="340.05,-147.01 329.53,-145.7 336.94,-153.28 340.05,-147.01"/>
</a>
</g>
</g>
<!-- Node12 -->
<g id="Node000012" class="node">
<title>Node12</title>
<g id="a_Node000012"><a xlink:title=" ">
<polygon fill="#e0e0e0" stroke="#999999" points="847,-145.5 791,-145.5 791,-126.5 847,-126.5 847,-145.5"/>
<text text-anchor="middle" x="819" y="-133.5" font-family="Helvetica,sans-Serif" font-size="10.00">optional</text>
</a>
</g>
</g>
<!-- Node9&#45;&gt;Node12 -->
<g id="edge19_Node000009_Node000012" class="edge">
<title>Node9&#45;&gt;Node12</title>
<g id="a_edge19_Node000009_Node000012"><a xlink:title=" ">
<path fill="none" stroke="#63b8ff" d="M509.8,-195.32C579.29,-188.55 689.33,-175.02 782,-151 784.44,-150.37 786.95,-149.63 789.44,-148.82"/>
<polygon fill="#63b8ff" stroke="#63b8ff" points="790.62,-152.12 798.9,-145.51 788.3,-145.51 790.62,-152.12"/>
</a>
</g>
</g>
<!-- Node13 -->
<g id="Node000013" class="node">
<title>Node13</title>
<g id="a_Node000013"><a xlink:href="TopologyEdge_8h.html" target="_top" xlink:title="Arête non&#45;orientée du graphe planaire de topologie ferroviaire.">
<polygon fill="white" stroke="#666666" points="562.5,-145.5 469.5,-145.5 469.5,-126.5 562.5,-126.5 562.5,-145.5"/>
<text text-anchor="middle" x="516" y="-133.5" font-family="Helvetica,sans-Serif" font-size="10.00">TopologyEdge.h</text>
</a>
</g>
</g>
<!-- Node9&#45;&gt;Node13 -->
<g id="edge24_Node000009_Node000013" class="edge">
<title>Node9&#45;&gt;Node13</title>
<g id="a_edge24_Node000009_Node000013"><a xlink:title=" ">
<path fill="none" stroke="#63b8ff" d="M451.11,-192.37C463.01,-182.21 483,-165.16 497.65,-152.65"/>
<polygon fill="#63b8ff" stroke="#63b8ff" points="500.23,-155.06 505.56,-145.91 495.69,-149.73 500.23,-155.06"/>
</a>
</g>
</g>
<!-- Node9&#45;&gt;Node16 -->
<g id="edge30_Node000009_Node000016" class="edge">
<title>Node9&#45;&gt;Node16</title>
<g id="a_edge30_Node000009_Node000016"><a xlink:title=" ">
<path fill="none" stroke="#63b8ff" d="M440.15,-192.47C438.2,-173.04 433.39,-124.87 430.44,-95.36"/>
<polygon fill="#63b8ff" stroke="#63b8ff" points="433.88,-94.67 429.41,-85.07 426.92,-95.37 433.88,-94.67"/>
</a>
</g>
</g>
<!-- Node9&#45;&gt;Node17 -->
<g id="edge31_Node000009_Node000017" class="edge">
<title>Node9&#45;&gt;Node17</title>
<g id="a_edge31_Node000009_Node000017"><a xlink:title=" ">
<path fill="none" stroke="#63b8ff" d="M475.13,-192.44C520.83,-180.96 601.98,-160.6 652.17,-148"/>
<polygon fill="#63b8ff" stroke="#63b8ff" points="653.23,-151.34 662.08,-145.51 651.52,-144.55 653.23,-151.34"/>
</a>
</g>
</g>
<!-- Node13&#45;&gt;Node3 -->
<g id="edge27_Node000013_Node000003" class="edge">
<title>Node13&#45;&gt;Node3</title>
<g id="a_edge27_Node000013_Node000003"><a xlink:title=" ">
<path fill="none" stroke="#63b8ff" d="M545.42,-126.44C622.78,-103.94 831.46,-43.24 911.84,-19.86"/>
<polygon fill="#63b8ff" stroke="#63b8ff" points="913.24,-23.09 921.86,-16.94 911.28,-16.37 913.24,-23.09"/>
</a>
</g>
</g>
<!-- Node13&#45;&gt;Node6 -->
<g id="edge28_Node000013_Node000006" class="edge">
<title>Node13&#45;&gt;Node6</title>
<g id="a_edge28_Node000013_Node000006"><a xlink:title=" ">
<path fill="none" stroke="#63b8ff" d="M549.73,-126.49C558.56,-124.47 568.1,-122.48 577,-121 728.2,-95.81 768.29,-106.9 920,-85 933.94,-82.99 949.22,-80.27 962.4,-77.77"/>
<polygon fill="#63b8ff" stroke="#63b8ff" points="963.3,-81.16 972.46,-75.82 961.97,-74.29 963.3,-81.16"/>
</a>
</g>
</g>
<!-- Node14 -->
<g id="Node000014" class="node">
<title>Node14</title>
<g id="a_Node000014"><a xlink:title=" ">
<polygon fill="#e0e0e0" stroke="#999999" points="552.5,-79.5 505.5,-79.5 505.5,-60.5 552.5,-60.5 552.5,-79.5"/>
<text text-anchor="middle" x="529" y="-67.5" font-family="Helvetica,sans-Serif" font-size="10.00">cmath</text>
</a>
</g>
</g>
<!-- Node13&#45;&gt;Node14 -->
<g id="edge25_Node000013_Node000014" class="edge">
<title>Node13&#45;&gt;Node14</title>
<g id="a_edge25_Node000013_Node000014"><a xlink:title=" ">
<path fill="none" stroke="#63b8ff" d="M517.75,-126.37C519.64,-117.07 522.71,-101.98 525.16,-89.9"/>
<polygon fill="#63b8ff" stroke="#63b8ff" points="528.63,-90.4 527.19,-79.91 521.77,-89.01 528.63,-90.4"/>
</a>
</g>
</g>
<!-- Node15 -->
<g id="Node000015" class="node">
<title>Node15</title>
<g id="a_Node000015"><a xlink:title=" ">
<polygon fill="#e0e0e0" stroke="#999999" points="1259,-19 1203,-19 1203,0 1259,0 1259,-19"/>
<text text-anchor="middle" x="1231" y="-7" font-family="Helvetica,sans-Serif" font-size="10.00">sstream</text>
</a>
</g>
</g>
<!-- Node13&#45;&gt;Node15 -->
<g id="edge26_Node000013_Node000015" class="edge">
<title>Node13&#45;&gt;Node15</title>
<g id="a_edge26_Node000013_Node000015"><a xlink:title=" ">
<path fill="none" stroke="#63b8ff" d="M545.85,-126.43C553.07,-124.5 560.78,-122.57 568,-121 689.88,-94.5 1070.51,-35.21 1192.78,-16.37"/>
<polygon fill="#63b8ff" stroke="#63b8ff" points="1193.44,-19.8 1202.8,-14.82 1192.38,-12.89 1193.44,-19.8"/>
</a>
</g>
</g>
<!-- Node13&#45;&gt;Node16 -->
<g id="edge29_Node000013_Node000016" class="edge">
<title>Node13&#45;&gt;Node16</title>
<g id="a_edge29_Node000013_Node000016"><a xlink:title=" ">
<path fill="none" stroke="#63b8ff" d="M504.13,-126.37C491.75,-117.36 471.89,-102.92 455.57,-91.05"/>
<polygon fill="#63b8ff" stroke="#63b8ff" points="457.55,-88.17 447.41,-85.12 453.44,-93.83 457.55,-88.17"/>
</a>
</g>
</g>
<!-- Node19&#45;&gt;Node3 -->
<g id="edge41_Node000019_Node000003" class="edge">
<title>Node19&#45;&gt;Node3</title>
<g id="a_edge41_Node000019_Node000003"><a xlink:title=" ">
<path fill="none" stroke="#63b8ff" d="M1339.25,-61.77C1243.81,-49.39 1052.09,-24.52 976.09,-14.66"/>
<polygon fill="#63b8ff" stroke="#63b8ff" points="976.53,-11.19 966.16,-13.37 975.63,-18.13 976.53,-11.19"/>
</a>
</g>
</g>
<!-- Node19&#45;&gt;Node15 -->
<g id="edge40_Node000019_Node000015" class="edge">
<title>Node19&#45;&gt;Node15</title>
<g id="a_edge40_Node000019_Node000015"><a xlink:title=" ">
<path fill="none" stroke="#63b8ff" d="M1355.72,-54.99C1327.99,-45.1 1291.22,-31.98 1264.8,-22.56"/>
<polygon fill="#63b8ff" stroke="#63b8ff" points="1265.81,-19.2 1255.22,-19.14 1263.46,-25.8 1265.81,-19.2"/>
</a>
</g>
</g>
<!-- Node20 -->
<g id="Node000020" class="node">
<title>Node20</title>
<g id="a_Node000020"><a xlink:title=" ">
<polygon fill="#e0e0e0" stroke="#999999" points="1471,-19 1427,-19 1427,0 1471,0 1471,-19"/>
<text text-anchor="middle" x="1449" y="-7" font-family="Helvetica,sans-Serif" font-size="10.00">ctime</text>
</a>
</g>
</g>
<!-- Node19&#45;&gt;Node20 -->
<g id="edge36_Node000019_Node000020" class="edge">
<title>Node19&#45;&gt;Node20</title>
<g id="a_edge36_Node000019_Node000020"><a xlink:title=" ">
<path fill="none" stroke="#63b8ff" d="M1408.07,-54.84C1415.91,-46.35 1425.91,-35.52 1434.06,-26.69"/>
<polygon fill="#63b8ff" stroke="#63b8ff" points="1436.7,-28.99 1440.91,-19.27 1431.55,-24.24 1436.7,-28.99"/>
</a>
</g>
</g>
<!-- Node21 -->
<g id="Node000021" class="node">
<title>Node21</title>
<g id="a_Node000021"><a xlink:title=" ">
<polygon fill="#e0e0e0" stroke="#999999" points="1557,-19 1489,-19 1489,0 1557,0 1557,-19"/>
<text text-anchor="middle" x="1523" y="-7" font-family="Helvetica,sans-Serif" font-size="10.00">filesystem</text>
</a>
</g>
</g>
<!-- Node19&#45;&gt;Node21 -->
<g id="edge37_Node000019_Node000021" class="edge">
<title>Node19&#45;&gt;Node21</title>
<g id="a_edge37_Node000019_Node000021"><a xlink:title=" ">
<path fill="none" stroke="#63b8ff" d="M1425.66,-54.99C1446.73,-45.36 1474.49,-32.67 1494.97,-23.31"/>
<polygon fill="#63b8ff" stroke="#63b8ff" points="1496.46,-26.48 1504.1,-19.14 1493.55,-20.11 1496.46,-26.48"/>
</a>
</g>
</g>
<!-- Node22 -->
<g id="Node000022" class="node">
<title>Node22</title>
<g id="a_Node000022"><a xlink:title=" ">
<polygon fill="#e0e0e0" stroke="#999999" points="1342.5,-19 1287.5,-19 1287.5,0 1342.5,0 1342.5,-19"/>
<text text-anchor="middle" x="1315" y="-7" font-family="Helvetica,sans-Serif" font-size="10.00">fstream</text>
</a>
</g>
</g>
<!-- Node19&#45;&gt;Node22 -->
<g id="edge38_Node000019_Node000022" class="edge">
<title>Node19&#45;&gt;Node22</title>
<g id="a_edge38_Node000019_Node000022"><a xlink:title=" ">
<path fill="none" stroke="#63b8ff" d="M1375.63,-54.84C1363.43,-45.91 1347.69,-34.41 1335.31,-25.35"/>
<polygon fill="#63b8ff" stroke="#63b8ff" points="1337.13,-22.34 1326.99,-19.27 1332.99,-27.99 1337.13,-22.34"/>
</a>
</g>
</g>
<!-- Node23 -->
<g id="Node000023" class="node">
<title>Node23</title>
<g id="a_Node000023"><a xlink:title=" ">
<polygon fill="#e0e0e0" stroke="#999999" points="1409,-19 1361,-19 1361,0 1409,0 1409,-19"/>
<text text-anchor="middle" x="1385" y="-7" font-family="Helvetica,sans-Serif" font-size="10.00">mutex</text>
</a>
</g>
</g>
<!-- Node19&#45;&gt;Node23 -->
<g id="edge39_Node000019_Node000023" class="edge">
<title>Node19&#45;&gt;Node23</title>
<g id="a_edge39_Node000019_Node000023"><a xlink:title=" ">
<path fill="none" stroke="#63b8ff" d="M1392.58,-54.84C1391.26,-47.13 1389.61,-37.49 1388.19,-29.17"/>
<polygon fill="#63b8ff" stroke="#63b8ff" points="1391.63,-28.53 1386.5,-19.27 1384.73,-29.71 1391.63,-28.53"/>
</a>
</g>
</g>
<!-- Node24&#45;&gt;Node3 -->
<g id="edge43_Node000024_Node000003" class="edge">
<title>Node24&#45;&gt;Node3</title>
<g id="a_edge43_Node000024_Node000003"><a xlink:title=" ">
<path fill="none" stroke="#63b8ff" d="M1442.55,-255.86C1465.54,-248.48 1487.68,-236.47 1502,-217 1527.28,-182.62 1530.09,-153.97 1503,-121 1500.85,-118.39 1094.59,-39.63 976.09,-16.7"/>
<polygon fill="#63b8ff" stroke="#63b8ff" points="976.65,-13.25 966.16,-14.78 975.32,-20.12 976.65,-13.25"/>
</a>
</g>
</g>
<!-- Node24&#45;&gt;Node6 -->
<g id="edge44_Node000024_Node000006" class="edge">
<title>Node24&#45;&gt;Node6</title>
<g id="a_edge44_Node000024_Node000006"><a xlink:title=" ">
<path fill="none" stroke="#63b8ff" d="M1344.17,-252.91C1336.19,-235.23 1320.27,-205.03 1298,-187 1215.23,-119.99 1089.39,-88.61 1029.69,-76.84"/>
<polygon fill="#63b8ff" stroke="#63b8ff" points="1030.16,-73.36 1019.68,-74.93 1028.85,-80.24 1030.16,-73.36"/>
</a>
</g>
</g>
<!-- Node24&#45;&gt;Node18 -->
<g id="edge49_Node000024_Node000018" class="edge">
<title>Node24&#45;&gt;Node18</title>
<g id="a_edge49_Node000024_Node000018"><a xlink:title=" ">
<path fill="none" stroke="#63b8ff" d="M1323.45,-252.95C1306.11,-243.78 1283.27,-231.71 1264.4,-221.72"/>
<polygon fill="#63b8ff" stroke="#63b8ff" points="1265.97,-218.59 1255.49,-217.01 1262.7,-224.78 1265.97,-218.59"/>
</a>
</g>
</g>
<!-- Node25 -->
<g id="Node000025" class="node">
<title>Node25</title>
<g id="a_Node000025"><a xlink:href="ShuntingElement_8h.html" target="_top" xlink:title="Interface abstraite pour tous les éléments de shuntage ferroviaire.">
<polygon fill="white" stroke="#666666" points="1492.5,-211.5 1383.5,-211.5 1383.5,-192.5 1492.5,-192.5 1492.5,-211.5"/>
<text text-anchor="middle" x="1438" y="-199.5" font-family="Helvetica,sans-Serif" font-size="10.00">ShuntingElement.h</text>
</a>
</g>
</g>
<!-- Node24&#45;&gt;Node25 -->
<g id="edge45_Node000024_Node000025" class="edge">
<title>Node24&#45;&gt;Node25</title>
<g id="a_edge45_Node000024_Node000025"><a xlink:title=" ">
<path fill="none" stroke="#63b8ff" d="M1369.53,-252.8C1383.87,-242.37 1403.3,-228.24 1417.79,-217.69"/>
<polygon fill="#63b8ff" stroke="#63b8ff" points="1420.07,-220.37 1426.09,-211.66 1415.95,-214.71 1420.07,-220.37"/>
</a>
</g>
</g>
<!-- Node26 -->
<g id="Node000026" class="node">
<title>Node26</title>
<g id="a_Node000026"><a xlink:href="InteractiveElement_8h.html" target="_top" xlink:title="Classe de base abstraite pour tous les éléments interactifs ferroviaires.">
<polygon fill="white" stroke="#666666" points="1493.5,-151 1334.5,-151 1334.5,-121 1493.5,-121 1493.5,-151"/>
<text text-anchor="start" x="1342.5" y="-139" font-family="Helvetica,sans-Serif" font-size="10.00">Modules/InteractiveElements</text>
<text text-anchor="middle" x="1414" y="-128" font-family="Helvetica,sans-Serif" font-size="10.00">/InteractiveElement.h</text>
</a>
</g>
</g>
<!-- Node25&#45;&gt;Node26 -->
<g id="edge46_Node000025_Node000026" class="edge">
<title>Node25&#45;&gt;Node26</title>
<g id="a_edge46_Node000025_Node000026"><a xlink:title=" ">
<path fill="none" stroke="#63b8ff" d="M1434.76,-192.37C1431.75,-184.32 1427.1,-171.94 1422.97,-160.93"/>
<polygon fill="#63b8ff" stroke="#63b8ff" points="1426.17,-159.49 1419.39,-151.36 1419.62,-161.95 1426.17,-159.49"/>
</a>
</g>
</g>
<!-- Node26&#45;&gt;Node3 -->
<g id="edge47_Node000026_Node000003" class="edge">
<title>Node26&#45;&gt;Node3</title>
<g id="a_edge47_Node000026_Node000003"><a xlink:title=" ">
<path fill="none" stroke="#63b8ff" d="M1334.38,-122.98C1288.26,-114.81 1229.51,-102.31 1179,-85 1150.04,-75.08 1145.74,-65.53 1117,-55 1069.24,-37.5 1011.65,-24.16 976.45,-16.83"/>
<polygon fill="#63b8ff" stroke="#63b8ff" points="976.77,-13.32 966.27,-14.75 975.37,-20.18 976.77,-13.32"/>
</a>
</g>
</g>
<!-- Node26&#45;&gt;Node19 -->
<g id="edge48_Node000026_Node000019" class="edge">
<title>Node26&#45;&gt;Node19</title>
<g id="a_edge48_Node000026_Node000019"><a xlink:title=" ">
<path fill="none" stroke="#63b8ff" d="M1409.78,-120.8C1407.52,-113.17 1404.67,-103.57 1402.08,-94.84"/>
<polygon fill="#63b8ff" stroke="#63b8ff" points="1405.41,-93.75 1399.2,-85.16 1398.7,-95.75 1405.41,-93.75"/>
</a>
</g>
</g>
<!-- Node27&#45;&gt;Node3 -->
<g id="edge53_Node000027_Node000003" class="edge">
<title>Node27&#45;&gt;Node3</title>
<g id="a_edge53_Node000027_Node000003"><a xlink:title=" ">
<path fill="none" stroke="#63b8ff" d="M1140.51,-252.83C1128.2,-215.93 1090.67,-115.55 1029,-55 1014,-40.27 993.12,-29.25 975.82,-21.86"/>
<polygon fill="#63b8ff" stroke="#63b8ff" points="976.69,-18.44 966.11,-17.92 974.06,-24.92 976.69,-18.44"/>
</a>
</g>
</g>
<!-- Node27&#45;&gt;Node6 -->
<g id="edge54_Node000027_Node000006" class="edge">
<title>Node27&#45;&gt;Node6</title>
<g id="a_edge54_Node000027_Node000006"><a xlink:title=" ">
<path fill="none" stroke="#63b8ff" d="M1125.67,-252.79C1114.01,-243.53 1099.45,-230.67 1089,-217 1060.02,-179.11 1067.87,-160.42 1041,-121 1032.57,-108.64 1021.31,-96.12 1012.16,-86.71"/>
<polygon fill="#63b8ff" stroke="#63b8ff" points="1014.62,-84.21 1005.08,-79.6 1009.66,-89.15 1014.62,-84.21"/>
</a>
</g>
</g>
<!-- Node27&#45;&gt;Node12 -->
<g id="edge51_Node000027_Node000012" class="edge">
<title>Node27&#45;&gt;Node12</title>
<g id="a_edge51_Node000027_Node000012"><a xlink:title=" ">
<path fill="none" stroke="#63b8ff" d="M1109.8,-252.96C1045.7,-227.4 910.94,-173.66 850.04,-149.38"/>
<polygon fill="#63b8ff" stroke="#63b8ff" points="851.17,-146.06 840.58,-145.61 848.58,-152.56 851.17,-146.06"/>
</a>
</g>
</g>
<!-- Node27&#45;&gt;Node15 -->
<g id="edge52_Node000027_Node000015" class="edge">
<title>Node27&#45;&gt;Node15</title>
<g id="a_edge52_Node000027_Node000015"><a xlink:title=" ">
<path fill="none" stroke="#63b8ff" d="M1234.74,-257.24C1259.16,-249.99 1282.99,-237.7 1298,-217 1342.25,-155.99 1276.49,-64.29 1245.58,-27.08"/>
<polygon fill="#63b8ff" stroke="#63b8ff" points="1248.04,-24.57 1238.9,-19.22 1242.71,-29.11 1248.04,-24.57"/>
</a>
</g>
</g>
<!-- Node27&#45;&gt;Node18 -->
<g id="edge55_Node000027_Node000018" class="edge">
<title>Node27&#45;&gt;Node18</title>
<g id="a_edge55_Node000027_Node000018"><a xlink:title=" ">
<path fill="none" stroke="#63b8ff" d="M1163.64,-252.8C1174.95,-244.18 1189.58,-233.04 1202.12,-223.48"/>
<polygon fill="#63b8ff" stroke="#63b8ff" points="1204.58,-226.01 1210.41,-217.16 1200.33,-220.44 1204.58,-226.01"/>
</a>
</g>
</g>
<!-- Node27&#45;&gt;Node25 -->
<g id="edge56_Node000027_Node000025" class="edge">
<title>Node27&#45;&gt;Node25</title>
<g id="a_edge56_Node000027_Node000025"><a xlink:title=" ">
<path fill="none" stroke="#63b8ff" d="M1209.3,-252.95C1263.51,-241.11 1339.93,-224.42 1389.22,-213.65"/>
<polygon fill="#63b8ff" stroke="#63b8ff" points="1389.98,-217.07 1399.01,-211.52 1388.49,-210.23 1389.98,-217.07"/>
</a>
</g>
</g>
</g>
</svg>
