<?xml version="1.0" encoding="UTF-8" standalone="no"?>
<!DOCTYPE svg PUBLIC "-//W3C//DTD SVG 1.1//EN"
 "http://www.w3.org/Graphics/SVG/1.1/DTD/svg11.dtd">
<!-- Generated by graphviz version 2.43.0 (0)
 -->
<!-- Title: SimulateurFerroviaire/Modules/GeoParser/SwitchOrientator.h Pages: 1 -->
<svg width="1786pt" height="324pt"
 viewBox="0.00 0.00 1786.00 324.00" xmlns="http://www.w3.org/2000/svg" xmlns:xlink="http://www.w3.org/1999/xlink">
<g id="graph0" class="graph" transform="scale(1 1) rotate(0) translate(4 320)">
<title>SimulateurFerroviaire/Modules/GeoParser/SwitchOrientator.h</title>
<!-- Node1 -->
<g id="Node000001" class="node">
<title>Node1</title>
<g id="a_Node000001"><a xlink:title="Phases 6, 6b et 6c — orientation géométrique des aiguillages.">
<polygon fill="#999999" stroke="#666666" points="943,-316 737,-316 737,-286 943,-286 943,-316"/>
<text text-anchor="start" x="745" y="-304" font-family="Helvetica,sans-Serif" font-size="10.00">SimulateurFerroviaire</text>
<text text-anchor="middle" x="840" y="-293" font-family="Helvetica,sans-Serif" font-size="10.00">/Modules/GeoParser/SwitchOrientator.h</text>
</a>
</g>
</g>
<!-- Node2 -->
<g id="Node000002" class="node">
<title>Node2</title>
<g id="a_Node000002"><a xlink:title=" ">
<polygon fill="#e0e0e0" stroke="#999999" points="689,-19 645,-19 645,0 689,0 689,-19"/>
<text text-anchor="middle" x="667" y="-7" font-family="Helvetica,sans-Serif" font-size="10.00">string</text>
</a>
</g>
</g>
<!-- Node1&#45;&gt;Node2 -->
<g id="edge1_Node000001_Node000002" class="edge">
<title>Node1&#45;&gt;Node2</title>
<g id="a_edge1_Node000001_Node000002"><a xlink:title=" ">
<path fill="none" stroke="#63b8ff" d="M737,-296.65C512.7,-287.97 0,-260.08 0,-186.5 0,-186.5 0,-186.5 0,-124 0,-76.37 37.91,-73.01 82,-55 107.75,-44.49 515.45,-19.52 634.56,-12.41"/>
<polygon fill="#63b8ff" stroke="#63b8ff" points="635.08,-15.89 644.86,-11.8 634.67,-8.9 635.08,-15.89"/>
</a>
</g>
</g>
<!-- Node3 -->
<g id="Node000003" class="node">
<title>Node3</title>
<g id="a_Node000003"><a xlink:title=" ">
<polygon fill="#e0e0e0" stroke="#999999" points="983.5,-74 890.5,-74 890.5,-55 983.5,-55 983.5,-74"/>
<text text-anchor="middle" x="937" y="-62" font-family="Helvetica,sans-Serif" font-size="10.00">unordered_map</text>
</a>
</g>
</g>
<!-- Node1&#45;&gt;Node3 -->
<g id="edge2_Node000001_Node000003" class="edge">
<title>Node1&#45;&gt;Node3</title>
<g id="a_edge2_Node000001_Node000003"><a xlink:title=" ">
<path fill="none" stroke="#63b8ff" d="M845.92,-285.68C862.75,-244.99 910.86,-128.7 929.49,-83.64"/>
<polygon fill="#63b8ff" stroke="#63b8ff" points="932.79,-84.84 933.38,-74.26 926.32,-82.16 932.79,-84.84"/>
</a>
</g>
</g>
<!-- Node4 -->
<g id="Node000004" class="node">
<title>Node4</title>
<g id="a_Node000004"><a xlink:title=" ">
<polygon fill="#e0e0e0" stroke="#999999" points="1413.5,-19 1366.5,-19 1366.5,0 1413.5,0 1413.5,-19"/>
<text text-anchor="middle" x="1390" y="-7" font-family="Helvetica,sans-Serif" font-size="10.00">vector</text>
</a>
</g>
</g>
<!-- Node1&#45;&gt;Node4 -->
<g id="edge3_Node000001_Node000004" class="edge">
<title>Node1&#45;&gt;Node4</title>
<g id="a_edge3_Node000001_Node000004"><a xlink:title=" ">
<path fill="none" stroke="#63b8ff" d="M943.07,-298.15C1186.73,-292.39 1778,-269.85 1778,-186.5 1778,-186.5 1778,-186.5 1778,-124 1778,-88.1 1766.11,-74.55 1736,-55 1684.94,-21.84 1500.69,-13.32 1423.93,-11.19"/>
<polygon fill="#63b8ff" stroke="#63b8ff" points="1423.93,-7.69 1413.84,-10.93 1423.74,-14.68 1423.93,-7.69"/>
</a>
</g>
</g>
<!-- Node5 -->
<g id="Node000005" class="node">
<title>Node5</title>
<g id="a_Node000005"><a xlink:href="TopologyExtractor_8h.html" target="_top" xlink:title="Phases 3, 4, 5a et 5b — extraction de la topologie ferroviaire depuis le graphe.">
<polygon fill="white" stroke="#666666" points="1030.5,-250 917.5,-250 917.5,-231 1030.5,-231 1030.5,-250"/>
<text text-anchor="middle" x="974" y="-238" font-family="Helvetica,sans-Serif" font-size="10.00">TopologyExtractor.h</text>
</a>
</g>
</g>
<!-- Node1&#45;&gt;Node5 -->
<g id="edge4_Node000001_Node000005" class="edge">
<title>Node1&#45;&gt;Node5</title>
<g id="a_edge4_Node000001_Node000005"><a xlink:title=" ">
<path fill="none" stroke="#63b8ff" d="M872.1,-285.99C894.25,-276.31 923.48,-263.56 944.95,-254.18"/>
<polygon fill="#63b8ff" stroke="#63b8ff" points="946.45,-257.35 954.21,-250.14 943.65,-250.93 946.45,-257.35"/>
</a>
</g>
</g>
<!-- Node17 -->
<g id="Node000017" class="node">
<title>Node17</title>
<g id="a_Node000017"><a xlink:href="GeoParserEnums_8h.html" target="_top" xlink:title="Constantes nommées et énumérations du pipeline ferroviaire GeoParser.">
<polygon fill="white" stroke="#666666" points="1711.5,-74 1558.5,-74 1558.5,-55 1711.5,-55 1711.5,-74"/>
<text text-anchor="middle" x="1635" y="-62" font-family="Helvetica,sans-Serif" font-size="10.00">../Enums/GeoParserEnums.h</text>
</a>
</g>
</g>
<!-- Node1&#45;&gt;Node17 -->
<g id="edge55_Node000001_Node000017" class="edge">
<title>Node1&#45;&gt;Node17</title>
<g id="a_edge55_Node000001_Node000017"><a xlink:title=" ">
<path fill="none" stroke="#63b8ff" d="M943.02,-299.77C1083.08,-296.12 1339.03,-277.41 1539,-195 1577.22,-179.25 1590.44,-173.97 1614,-140 1625.59,-123.3 1630.81,-100.32 1633.15,-84.31"/>
<polygon fill="#63b8ff" stroke="#63b8ff" points="1636.66,-84.43 1634.39,-74.08 1629.71,-83.59 1636.66,-84.43"/>
</a>
</g>
</g>
<!-- Node19 -->
<g id="Node000019" class="node">
<title>Node19</title>
<g id="a_Node000019"><a xlink:href="Logger_8h.html" target="_top" xlink:title="Système de journalisation à 5 niveaux de trace, un fichier par moteur.">
<polygon fill="white" stroke="#666666" points="335.5,-140 224.5,-140 224.5,-110 335.5,-110 335.5,-140"/>
<text text-anchor="start" x="232.5" y="-128" font-family="Helvetica,sans-Serif" font-size="10.00">Engine/Core/Logger</text>
<text text-anchor="middle" x="280" y="-117" font-family="Helvetica,sans-Serif" font-size="10.00">/Logger.h</text>
</a>
</g>
</g>
<!-- Node1&#45;&gt;Node19 -->
<g id="edge56_Node000001_Node000019" class="edge">
<title>Node1&#45;&gt;Node19</title>
<g id="a_edge56_Node000001_Node000019"><a xlink:title=" ">
<path fill="none" stroke="#63b8ff" d="M736.96,-289.54C639.37,-276.75 490.53,-249.66 372,-195 345.74,-182.89 319.75,-162.4 302.13,-146.89"/>
<polygon fill="#63b8ff" stroke="#63b8ff" points="304.42,-144.24 294.65,-140.16 299.74,-149.45 304.42,-144.24"/>
</a>
</g>
</g>
<!-- Node24 -->
<g id="Node000024" class="node">
<title>Node24</title>
<g id="a_Node000024"><a xlink:href="StraightBlock_8h.html" target="_top" xlink:title="Modèle de domaine d&#39;un bloc de voie droite (Straight).">
<polygon fill="white" stroke="#666666" points="641.5,-134.5 468.5,-134.5 468.5,-115.5 641.5,-115.5 641.5,-134.5"/>
<text text-anchor="middle" x="555" y="-122.5" font-family="Helvetica,sans-Serif" font-size="10.00">Modules/Models/StraightBlock.h</text>
</a>
</g>
</g>
<!-- Node1&#45;&gt;Node24 -->
<g id="edge53_Node000001_Node000024" class="edge">
<title>Node1&#45;&gt;Node24</title>
<g id="a_edge53_Node000001_Node000024"><a xlink:title=" ">
<path fill="none" stroke="#63b8ff" d="M816.68,-285.76C763,-252.99 631.25,-172.55 577.94,-140.01"/>
<polygon fill="#63b8ff" stroke="#63b8ff" points="579.58,-136.91 569.22,-134.68 575.94,-142.88 579.58,-136.91"/>
</a>
</g>
</g>
<!-- Node25 -->
<g id="Node000025" class="node">
<title>Node25</title>
<g id="a_Node000025"><a xlink:href="SwitchBlock_8h.html" target="_top" xlink:title="Modèle de domaine d&#39;un aiguillage ferroviaire à 3 branches (Switch).">
<polygon fill="white" stroke="#666666" points="864.5,-134.5 697.5,-134.5 697.5,-115.5 864.5,-115.5 864.5,-134.5"/>
<text text-anchor="middle" x="781" y="-122.5" font-family="Helvetica,sans-Serif" font-size="10.00">Modules/Models/SwitchBlock.h</text>
</a>
</g>
</g>
<!-- Node1&#45;&gt;Node25 -->
<g id="edge54_Node000001_Node000025" class="edge">
<title>Node1&#45;&gt;Node25</title>
<g id="a_edge54_Node000001_Node000025"><a xlink:title=" ">
<path fill="none" stroke="#63b8ff" d="M835.17,-285.76C824.54,-254.41 799.13,-179.46 787.28,-144.52"/>
<polygon fill="#63b8ff" stroke="#63b8ff" points="790.47,-143.03 783.94,-134.68 783.84,-145.28 790.47,-143.03"/>
</a>
</g>
</g>
<!-- Node5&#45;&gt;Node2 -->
<g id="edge6_Node000005_Node000002" class="edge">
<title>Node5&#45;&gt;Node2</title>
<g id="a_edge6_Node000005_Node000002"><a xlink:title=" ">
<path fill="none" stroke="#63b8ff" d="M917.35,-237.29C795.88,-231.24 516.67,-209.88 459,-140 404.66,-74.16 563.36,-31.96 634.47,-16.8"/>
<polygon fill="#63b8ff" stroke="#63b8ff" points="635.6,-20.14 644.68,-14.68 634.18,-13.29 635.6,-20.14"/>
</a>
</g>
</g>
<!-- Node5&#45;&gt;Node3 -->
<g id="edge7_Node000005_Node000003" class="edge">
<title>Node5&#45;&gt;Node3</title>
<g id="a_edge7_Node000005_Node000003"><a xlink:title=" ">
<path fill="none" stroke="#63b8ff" d="M972.11,-230.63C966.35,-203.52 948.87,-121.32 940.96,-84.13"/>
<polygon fill="#63b8ff" stroke="#63b8ff" points="944.34,-83.2 938.84,-74.14 937.49,-84.65 944.34,-83.2"/>
</a>
</g>
</g>
<!-- Node5&#45;&gt;Node4 -->
<g id="edge9_Node000005_Node000004" class="edge">
<title>Node5&#45;&gt;Node4</title>
<g id="a_edge9_Node000005_Node000004"><a xlink:title=" ">
<path fill="none" stroke="#63b8ff" d="M1030.87,-238.65C1154.94,-236.22 1446.27,-227.17 1539,-195 1630.42,-163.28 1674.4,-159.34 1720,-74 1723.98,-66.55 1725.56,-61.36 1720,-55 1681.75,-11.25 1500.05,-8.77 1423.81,-9.72"/>
<polygon fill="#63b8ff" stroke="#63b8ff" points="1423.72,-6.22 1413.77,-9.88 1423.83,-13.22 1423.72,-6.22"/>
</a>
</g>
</g>
<!-- Node6 -->
<g id="Node000006" class="node">
<title>Node6</title>
<g id="a_Node000006"><a xlink:title=" ">
<polygon fill="#e0e0e0" stroke="#999999" points="1562,-134.5 1530,-134.5 1530,-115.5 1562,-115.5 1562,-134.5"/>
<text text-anchor="middle" x="1546" y="-122.5" font-family="Helvetica,sans-Serif" font-size="10.00">set</text>
</a>
</g>
</g>
<!-- Node5&#45;&gt;Node6 -->
<g id="edge5_Node000005_Node000006" class="edge">
<title>Node5&#45;&gt;Node6</title>
<g id="a_edge5_Node000005_Node000006"><a xlink:title=" ">
<path fill="none" stroke="#63b8ff" d="M1030.87,-234.27C1130.75,-223.93 1343.27,-196.8 1514,-140 1516.15,-139.28 1518.36,-138.48 1520.55,-137.63"/>
<polygon fill="#63b8ff" stroke="#63b8ff" points="1522.06,-140.79 1529.95,-133.71 1519.37,-134.33 1522.06,-140.79"/>
</a>
</g>
</g>
<!-- Node7 -->
<g id="Node000007" class="node">
<title>Node7</title>
<g id="a_Node000007"><a xlink:title=" ">
<polygon fill="#e0e0e0" stroke="#999999" points="1501.5,-74 1456.5,-74 1456.5,-55 1501.5,-55 1501.5,-74"/>
<text text-anchor="middle" x="1479" y="-62" font-family="Helvetica,sans-Serif" font-size="10.00">utility</text>
</a>
</g>
</g>
<!-- Node5&#45;&gt;Node7 -->
<g id="edge8_Node000005_Node000007" class="edge">
<title>Node5&#45;&gt;Node7</title>
<g id="a_edge8_Node000005_Node000007"><a xlink:title=" ">
<path fill="none" stroke="#63b8ff" d="M1030.53,-239.34C1166.55,-237.6 1505.64,-224.69 1571,-140 1579.15,-129.44 1578.08,-121.3 1571,-110 1558.04,-89.33 1532.46,-78.03 1511.56,-71.99"/>
<polygon fill="#63b8ff" stroke="#63b8ff" points="1512.31,-68.57 1501.75,-69.43 1510.54,-75.34 1512.31,-68.57"/>
</a>
</g>
</g>
<!-- Node8 -->
<g id="Node000008" class="node">
<title>Node8</title>
<g id="a_Node000008"><a xlink:href="GraphBuilder_8h.html" target="_top" xlink:title="Phases 1 et 2 du pipeline — chargement GeoJSON et construction du graphe métrique.">
<polygon fill="white" stroke="#666666" points="1270.5,-195 1181.5,-195 1181.5,-176 1270.5,-176 1270.5,-195"/>
<text text-anchor="middle" x="1226" y="-183" font-family="Helvetica,sans-Serif" font-size="10.00">GraphBuilder.h</text>
</a>
</g>
</g>
<!-- Node5&#45;&gt;Node8 -->
<g id="edge10_Node000005_Node000008" class="edge">
<title>Node5&#45;&gt;Node8</title>
<g id="a_edge10_Node000005_Node000008"><a xlink:title=" ">
<path fill="none" stroke="#63b8ff" d="M1014.49,-230.98C1058.17,-221.8 1127.81,-207.15 1175.15,-197.19"/>
<polygon fill="#63b8ff" stroke="#63b8ff" points="1176.13,-200.57 1185.19,-195.08 1174.69,-193.72 1176.13,-200.57"/>
</a>
</g>
</g>
<!-- Node5&#45;&gt;Node17 -->
<g id="edge51_Node000005_Node000017" class="edge">
<title>Node5&#45;&gt;Node17</title>
<g id="a_edge51_Node000005_Node000017"><a xlink:title=" ">
<path fill="none" stroke="#63b8ff" d="M1030.87,-238.24C1149.15,-235.06 1417.79,-224.7 1504,-195 1546.19,-180.47 1556.71,-171.82 1588,-140 1604.54,-123.18 1618.2,-99.59 1626.46,-83.49"/>
<polygon fill="#63b8ff" stroke="#63b8ff" points="1629.79,-84.65 1631.08,-74.14 1623.51,-81.55 1629.79,-84.65"/>
</a>
</g>
</g>
<!-- Node5&#45;&gt;Node19 -->
<g id="edge52_Node000005_Node000019" class="edge">
<title>Node5&#45;&gt;Node19</title>
<g id="a_edge52_Node000005_Node000019"><a xlink:title=" ">
<path fill="none" stroke="#63b8ff" d="M917.33,-237.48C796.59,-232.75 517.52,-219.47 426,-195 384.7,-183.96 340.79,-161.59 312.05,-145.3"/>
<polygon fill="#63b8ff" stroke="#63b8ff" points="313.68,-142.2 303.27,-140.25 310.19,-148.27 313.68,-142.2"/>
</a>
</g>
</g>
<!-- Node5&#45;&gt;Node24 -->
<g id="edge40_Node000005_Node000024" class="edge">
<title>Node5&#45;&gt;Node24</title>
<g id="a_edge40_Node000005_Node000024"><a xlink:title=" ">
<path fill="none" stroke="#63b8ff" d="M942.51,-230.97C867.8,-210.73 679.87,-159.82 596.24,-137.17"/>
<polygon fill="#63b8ff" stroke="#63b8ff" points="597.14,-133.79 586.57,-134.55 595.31,-140.55 597.14,-133.79"/>
</a>
</g>
</g>
<!-- Node5&#45;&gt;Node25 -->
<g id="edge45_Node000005_Node000025" class="edge">
<title>Node5&#45;&gt;Node25</title>
<g id="a_edge45_Node000005_Node000025"><a xlink:title=" ">
<path fill="none" stroke="#63b8ff" d="M967.67,-230.95C957.36,-217.56 935.7,-191.56 912,-176 885.2,-158.41 851.32,-145.68 824.72,-137.48"/>
<polygon fill="#63b8ff" stroke="#63b8ff" points="825.5,-134.05 814.91,-134.55 823.5,-140.76 825.5,-134.05"/>
</a>
</g>
</g>
<!-- Node8&#45;&gt;Node2 -->
<g id="edge12_Node000008_Node000002" class="edge">
<title>Node8&#45;&gt;Node2</title>
<g id="a_edge12_Node000008_Node000002"><a xlink:title=" ">
<path fill="none" stroke="#63b8ff" d="M1210.43,-175.93C1176.75,-157.39 1094.66,-112.15 1026,-74 1010.87,-65.59 1008.42,-60.49 992,-55 889.04,-20.56 759.2,-12.73 699.61,-10.99"/>
<polygon fill="#63b8ff" stroke="#63b8ff" points="699.41,-7.48 689.32,-10.72 699.23,-14.48 699.41,-7.48"/>
</a>
</g>
</g>
<!-- Node8&#45;&gt;Node4 -->
<g id="edge13_Node000008_Node000004" class="edge">
<title>Node8&#45;&gt;Node4</title>
<g id="a_edge13_Node000008_Node000004"><a xlink:title=" ">
<path fill="none" stroke="#63b8ff" d="M1262.16,-175.96C1332.17,-158.59 1481.85,-117.14 1510,-74 1532.79,-39.08 1466.77,-22.1 1423.81,-14.94"/>
<polygon fill="#63b8ff" stroke="#63b8ff" points="1424.13,-11.45 1413.71,-13.36 1423.05,-18.36 1424.13,-11.45"/>
</a>
</g>
</g>
<!-- Node8&#45;&gt;Node6 -->
<g id="edge11_Node000008_Node000006" class="edge">
<title>Node8&#45;&gt;Node6</title>
<g id="a_edge11_Node000008_Node000006"><a xlink:title=" ">
<path fill="none" stroke="#63b8ff" d="M1270.59,-181.6C1328.29,-176.97 1431.43,-165.65 1516,-140 1517.44,-139.56 1518.91,-139.07 1520.37,-138.53"/>
<polygon fill="#63b8ff" stroke="#63b8ff" points="1521.96,-141.66 1529.83,-134.57 1519.25,-135.2 1521.96,-141.66"/>
</a>
</g>
</g>
<!-- Node9 -->
<g id="Node000009" class="node">
<title>Node9</title>
<g id="a_Node000009"><a xlink:href="TopologyGraph_8h.html" target="_top" xlink:title="Graphe planaire non&#45;orienté de nœuds et d&#39;arêtes ferroviaires accrochés.">
<polygon fill="white" stroke="#666666" points="1294.5,-134.5 1157.5,-134.5 1157.5,-115.5 1294.5,-115.5 1294.5,-134.5"/>
<text text-anchor="middle" x="1226" y="-122.5" font-family="Helvetica,sans-Serif" font-size="10.00">./Graph/TopologyGraph.h</text>
</a>
</g>
</g>
<!-- Node8&#45;&gt;Node9 -->
<g id="edge14_Node000008_Node000009" class="edge">
<title>Node8&#45;&gt;Node9</title>
<g id="a_edge14_Node000008_Node000009"><a xlink:title=" ">
<path fill="none" stroke="#63b8ff" d="M1226,-175.87C1226,-167.75 1226,-155.31 1226,-144.89"/>
<polygon fill="#63b8ff" stroke="#63b8ff" points="1229.5,-144.67 1226,-134.67 1222.5,-144.67 1229.5,-144.67"/>
</a>
</g>
</g>
<!-- Node16 -->
<g id="Node000016" class="node">
<title>Node16</title>
<g id="a_Node000016"><a xlink:href="CoordinateXY_8h.html" target="_top" xlink:title="Représentation d&#39;une coordonnée plane en mètres (système métrique UTM).">
<polygon fill="white" stroke="#666666" points="1313,-19 1141,-19 1141,0 1313,0 1313,-19"/>
<text text-anchor="middle" x="1227" y="-7" font-family="Helvetica,sans-Serif" font-size="10.00">Modules/Models/CoordinateXY.h</text>
</a>
</g>
</g>
<!-- Node8&#45;&gt;Node16 -->
<g id="edge32_Node000008_Node000016" class="edge">
<title>Node8&#45;&gt;Node16</title>
<g id="a_edge32_Node000008_Node000016"><a xlink:title=" ">
<path fill="none" stroke="#63b8ff" d="M1250.52,-175.97C1301.2,-157 1409.56,-108.75 1370,-55 1358.38,-39.22 1341.21,-28.87 1322.77,-22.13"/>
<polygon fill="#63b8ff" stroke="#63b8ff" points="1323.62,-18.73 1313.03,-18.92 1321.43,-25.37 1323.62,-18.73"/>
</a>
</g>
</g>
<!-- Node8&#45;&gt;Node17 -->
<g id="edge30_Node000008_Node000017" class="edge">
<title>Node8&#45;&gt;Node17</title>
<g id="a_edge30_Node000008_Node000017"><a xlink:title=" ">
<path fill="none" stroke="#63b8ff" d="M1270.87,-182.41C1322.57,-178.71 1409.23,-168.43 1478,-140 1499.54,-131.1 1500.45,-120.98 1521,-110 1545.81,-96.74 1575.45,-85.3 1598.29,-77.33"/>
<polygon fill="#63b8ff" stroke="#63b8ff" points="1599.62,-80.58 1607.95,-74.03 1597.35,-73.96 1599.62,-80.58"/>
</a>
</g>
</g>
<!-- Node18 -->
<g id="Node000018" class="node">
<title>Node18</title>
<g id="a_Node000018"><a xlink:href="LatLon_8h.html" target="_top" xlink:title="Représentation d&#39;une coordonnée géographique WGS&#45;84 (latitude, longitude).">
<polygon fill="white" stroke="#666666" points="722,-74 582,-74 582,-55 722,-55 722,-74"/>
<text text-anchor="middle" x="652" y="-62" font-family="Helvetica,sans-Serif" font-size="10.00">Modules/Models/LatLon.h</text>
</a>
</g>
</g>
<!-- Node8&#45;&gt;Node18 -->
<g id="edge31_Node000008_Node000018" class="edge">
<title>Node8&#45;&gt;Node18</title>
<g id="a_edge31_Node000008_Node000018"><a xlink:title=" ">
<path fill="none" stroke="#63b8ff" d="M1181.47,-183.33C1059.82,-179.78 728.28,-167.65 688,-140 669.35,-127.2 660.02,-101.95 655.6,-84.41"/>
<polygon fill="#63b8ff" stroke="#63b8ff" points="658.93,-83.23 653.36,-74.21 652.09,-84.73 658.93,-83.23"/>
</a>
</g>
</g>
<!-- Node8&#45;&gt;Node19 -->
<g id="edge33_Node000008_Node000019" class="edge">
<title>Node8&#45;&gt;Node19</title>
<g id="a_edge33_Node000008_Node000019"><a xlink:title=" ">
<path fill="none" stroke="#63b8ff" d="M1181.46,-182.23C1063.53,-176.15 733.47,-158.69 459,-140 421.52,-137.45 379.65,-134.19 345.83,-131.47"/>
<polygon fill="#63b8ff" stroke="#63b8ff" points="345.86,-127.96 335.61,-130.64 345.3,-134.94 345.86,-127.96"/>
</a>
</g>
</g>
<!-- Node9&#45;&gt;Node2 -->
<g id="edge18_Node000009_Node000002" class="edge">
<title>Node9&#45;&gt;Node2</title>
<g id="a_edge18_Node000009_Node000002"><a xlink:title=" ">
<path fill="none" stroke="#63b8ff" d="M1195.86,-115.45C1164.01,-106.18 1112.47,-90.47 1069,-74 1049.46,-66.6 1046.14,-60.57 1026,-55 908.69,-22.57 763.27,-13.74 699.52,-11.36"/>
<polygon fill="#63b8ff" stroke="#63b8ff" points="699.41,-7.86 689.29,-11.01 699.17,-14.85 699.41,-7.86"/>
</a>
</g>
</g>
<!-- Node9&#45;&gt;Node3 -->
<g id="edge19_Node000009_Node000003" class="edge">
<title>Node9&#45;&gt;Node3</title>
<g id="a_edge19_Node000009_Node000003"><a xlink:title=" ">
<path fill="none" stroke="#63b8ff" d="M1183.98,-115.49C1132.4,-105.05 1044.92,-87.35 989.11,-76.05"/>
<polygon fill="#63b8ff" stroke="#63b8ff" points="989.57,-72.57 979.07,-74.02 988.18,-79.43 989.57,-72.57"/>
</a>
</g>
</g>
<!-- Node9&#45;&gt;Node4 -->
<g id="edge21_Node000009_Node000004" class="edge">
<title>Node9&#45;&gt;Node4</title>
<g id="a_edge21_Node000009_Node000004"><a xlink:title=" ">
<path fill="none" stroke="#63b8ff" d="M1288.18,-115.43C1316.49,-108.56 1348.43,-96.21 1370,-74 1381.69,-61.96 1386.56,-43.15 1388.57,-29.13"/>
<polygon fill="#63b8ff" stroke="#63b8ff" points="1392.06,-29.44 1389.66,-19.12 1385.1,-28.69 1392.06,-29.44"/>
</a>
</g>
</g>
<!-- Node9&#45;&gt;Node7 -->
<g id="edge20_Node000009_Node000007" class="edge">
<title>Node9&#45;&gt;Node7</title>
<g id="a_edge20_Node000009_Node000007"><a xlink:title=" ">
<path fill="none" stroke="#63b8ff" d="M1262.79,-115.49C1312.22,-104.06 1399.32,-83.92 1446.47,-73.02"/>
<polygon fill="#63b8ff" stroke="#63b8ff" points="1447.5,-76.38 1456.45,-70.71 1445.92,-69.56 1447.5,-76.38"/>
</a>
</g>
</g>
<!-- Node10 -->
<g id="Node000010" class="node">
<title>Node10</title>
<g id="a_Node000010"><a xlink:title=" ">
<polygon fill="#e0e0e0" stroke="#999999" points="1278,-74 1228,-74 1228,-55 1278,-55 1278,-74"/>
<text text-anchor="middle" x="1253" y="-62" font-family="Helvetica,sans-Serif" font-size="10.00">cstdint</text>
</a>
</g>
</g>
<!-- Node9&#45;&gt;Node10 -->
<g id="edge15_Node000009_Node000010" class="edge">
<title>Node9&#45;&gt;Node10</title>
<g id="a_edge15_Node000009_Node000010"><a xlink:title=" ">
<path fill="none" stroke="#63b8ff" d="M1229.98,-115.37C1233.85,-106.99 1239.84,-94.01 1244.74,-83.39"/>
<polygon fill="#63b8ff" stroke="#63b8ff" points="1247.99,-84.71 1249,-74.17 1241.63,-81.78 1247.99,-84.71"/>
</a>
</g>
</g>
<!-- Node11 -->
<g id="Node000011" class="node">
<title>Node11</title>
<g id="a_Node000011"><a xlink:title=" ">
<polygon fill="#e0e0e0" stroke="#999999" points="1361.5,-74 1296.5,-74 1296.5,-55 1361.5,-55 1361.5,-74"/>
<text text-anchor="middle" x="1329" y="-62" font-family="Helvetica,sans-Serif" font-size="10.00">functional</text>
</a>
</g>
</g>
<!-- Node9&#45;&gt;Node11 -->
<g id="edge16_Node000009_Node000011" class="edge">
<title>Node9&#45;&gt;Node11</title>
<g id="a_edge16_Node000009_Node000011"><a xlink:title=" ">
<path fill="none" stroke="#63b8ff" d="M1241.2,-115.37C1258.01,-105.82 1285.32,-90.31 1305.02,-79.12"/>
<polygon fill="#63b8ff" stroke="#63b8ff" points="1306.77,-82.15 1313.74,-74.17 1303.32,-76.06 1306.77,-82.15"/>
</a>
</g>
</g>
<!-- Node12 -->
<g id="Node000012" class="node">
<title>Node12</title>
<g id="a_Node000012"><a xlink:title=" ">
<polygon fill="#e0e0e0" stroke="#999999" points="872,-74 816,-74 816,-55 872,-55 872,-74"/>
<text text-anchor="middle" x="844" y="-62" font-family="Helvetica,sans-Serif" font-size="10.00">optional</text>
</a>
</g>
</g>
<!-- Node9&#45;&gt;Node12 -->
<g id="edge17_Node000009_Node000012" class="edge">
<title>Node9&#45;&gt;Node12</title>
<g id="a_edge17_Node000009_Node000012"><a xlink:title=" ">
<path fill="none" stroke="#63b8ff" d="M1157.32,-115.73C1089.75,-107.21 983.46,-92.79 882.32,-74.12"/>
<polygon fill="#63b8ff" stroke="#63b8ff" points="882.7,-70.63 872.23,-72.24 881.42,-77.51 882.7,-70.63"/>
</a>
</g>
</g>
<!-- Node13 -->
<g id="Node000013" class="node">
<title>Node13</title>
<g id="a_Node000013"><a xlink:href="TopologyEdge_8h.html" target="_top" xlink:title="Arête non&#45;orientée du graphe planaire de topologie ferroviaire.">
<polygon fill="white" stroke="#666666" points="1171.5,-74 1078.5,-74 1078.5,-55 1171.5,-55 1171.5,-74"/>
<text text-anchor="middle" x="1125" y="-62" font-family="Helvetica,sans-Serif" font-size="10.00">TopologyEdge.h</text>
</a>
</g>
</g>
<!-- Node9&#45;&gt;Node13 -->
<g id="edge22_Node000009_Node000013" class="edge">
<title>Node9&#45;&gt;Node13</title>
<g id="a_edge22_Node000009_Node000013"><a xlink:title=" ">
<path fill="none" stroke="#63b8ff" d="M1211.1,-115.37C1194.69,-105.86 1168.07,-90.45 1148.77,-79.27"/>
<polygon fill="#63b8ff" stroke="#63b8ff" points="1150.37,-76.15 1139.96,-74.17 1146.86,-82.21 1150.37,-76.15"/>
</a>
</g>
</g>
<!-- Node9&#45;&gt;Node16 -->
<g id="edge28_Node000009_Node000016" class="edge">
<title>Node9&#45;&gt;Node16</title>
<g id="a_edge28_Node000009_Node000016"><a xlink:title=" ">
<path fill="none" stroke="#63b8ff" d="M1224.01,-115.07C1221.32,-101.93 1217.07,-76.59 1219,-55 1219.76,-46.5 1221.32,-37.19 1222.86,-29.29"/>
<polygon fill="#63b8ff" stroke="#63b8ff" points="1226.32,-29.81 1224.94,-19.3 1219.47,-28.38 1226.32,-29.81"/>
</a>
</g>
</g>
<!-- Node9&#45;&gt;Node17 -->
<g id="edge29_Node000009_Node000017" class="edge">
<title>Node9&#45;&gt;Node17</title>
<g id="a_edge29_Node000009_Node000017"><a xlink:title=" ">
<path fill="none" stroke="#63b8ff" d="M1285.47,-115.49C1359.68,-104.88 1486.39,-86.76 1565.15,-75.49"/>
<polygon fill="#63b8ff" stroke="#63b8ff" points="1566.05,-78.9 1575.46,-74.02 1565.06,-71.97 1566.05,-78.9"/>
</a>
</g>
</g>
<!-- Node13&#45;&gt;Node2 -->
<g id="edge25_Node000013_Node000002" class="edge">
<title>Node13&#45;&gt;Node2</title>
<g id="a_edge25_Node000013_Node000002"><a xlink:title=" ">
<path fill="none" stroke="#63b8ff" d="M1078.39,-56.87C1073.53,-56.22 1068.67,-55.59 1064,-55 928.79,-38 767.26,-20.88 699.47,-13.84"/>
<polygon fill="#63b8ff" stroke="#63b8ff" points="699.72,-10.35 689.41,-12.8 699,-17.31 699.72,-10.35"/>
</a>
</g>
</g>
<!-- Node13&#45;&gt;Node4 -->
<g id="edge26_Node000013_Node000004" class="edge">
<title>Node13&#45;&gt;Node4</title>
<g id="a_edge26_Node000013_Node000004"><a xlink:title=" ">
<path fill="none" stroke="#63b8ff" d="M1167.58,-54.98C1220.19,-44.46 1308.62,-26.78 1356.6,-17.18"/>
<polygon fill="#63b8ff" stroke="#63b8ff" points="1357.36,-20.6 1366.48,-15.2 1355.99,-13.73 1357.36,-20.6"/>
</a>
</g>
</g>
<!-- Node14 -->
<g id="Node000014" class="node">
<title>Node14</title>
<g id="a_Node000014"><a xlink:title=" ">
<polygon fill="#e0e0e0" stroke="#999999" points="1122.5,-19 1075.5,-19 1075.5,0 1122.5,0 1122.5,-19"/>
<text text-anchor="middle" x="1099" y="-7" font-family="Helvetica,sans-Serif" font-size="10.00">cmath</text>
</a>
</g>
</g>
<!-- Node13&#45;&gt;Node14 -->
<g id="edge23_Node000013_Node000014" class="edge">
<title>Node13&#45;&gt;Node14</title>
<g id="a_edge23_Node000013_Node000014"><a xlink:title=" ">
<path fill="none" stroke="#63b8ff" d="M1120.71,-54.75C1117.19,-47.57 1112.09,-37.18 1107.72,-28.27"/>
<polygon fill="#63b8ff" stroke="#63b8ff" points="1110.76,-26.53 1103.21,-19.09 1104.48,-29.61 1110.76,-26.53"/>
</a>
</g>
</g>
<!-- Node15 -->
<g id="Node000015" class="node">
<title>Node15</title>
<g id="a_Node000015"><a xlink:title=" ">
<polygon fill="#e0e0e0" stroke="#999999" points="487,-19 431,-19 431,0 487,0 487,-19"/>
<text text-anchor="middle" x="459" y="-7" font-family="Helvetica,sans-Serif" font-size="10.00">sstream</text>
</a>
</g>
</g>
<!-- Node13&#45;&gt;Node15 -->
<g id="edge24_Node000013_Node000015" class="edge">
<title>Node13&#45;&gt;Node15</title>
<g id="a_edge24_Node000013_Node000015"><a xlink:title=" ">
<path fill="none" stroke="#63b8ff" d="M1078.43,-59.79C953.34,-49.84 611.71,-22.65 497.08,-13.53"/>
<polygon fill="#63b8ff" stroke="#63b8ff" points="497.27,-10.03 487.02,-12.73 496.71,-17.01 497.27,-10.03"/>
</a>
</g>
</g>
<!-- Node13&#45;&gt;Node16 -->
<g id="edge27_Node000013_Node000016" class="edge">
<title>Node13&#45;&gt;Node16</title>
<g id="a_edge27_Node000013_Node000016"><a xlink:title=" ">
<path fill="none" stroke="#63b8ff" d="M1141.39,-54.98C1157.57,-46.57 1182.57,-33.59 1201.38,-23.81"/>
<polygon fill="#63b8ff" stroke="#63b8ff" points="1203.05,-26.89 1210.31,-19.17 1199.83,-20.68 1203.05,-26.89"/>
</a>
</g>
</g>
<!-- Node19&#45;&gt;Node2 -->
<g id="edge39_Node000019_Node000002" class="edge">
<title>Node19&#45;&gt;Node2</title>
<g id="a_edge39_Node000019_Node000002"><a xlink:title=" ">
<path fill="none" stroke="#63b8ff" d="M224.21,-120.9C155.96,-115.15 54.2,-99.1 95,-55 104.25,-45.01 515.05,-19.62 634.65,-12.42"/>
<polygon fill="#63b8ff" stroke="#63b8ff" points="635.21,-15.9 644.98,-11.81 634.79,-8.91 635.21,-15.9"/>
</a>
</g>
</g>
<!-- Node19&#45;&gt;Node15 -->
<g id="edge38_Node000019_Node000015" class="edge">
<title>Node19&#45;&gt;Node15</title>
<g id="a_edge38_Node000019_Node000015"><a xlink:title=" ">
<path fill="none" stroke="#63b8ff" d="M224.47,-123.56C145.06,-121.08 13.71,-109.01 62,-55 85.7,-28.5 326.16,-15.9 420.92,-11.94"/>
<polygon fill="#63b8ff" stroke="#63b8ff" points="421.09,-15.43 430.94,-11.53 420.81,-8.44 421.09,-15.43"/>
</a>
</g>
</g>
<!-- Node20 -->
<g id="Node000020" class="node">
<title>Node20</title>
<g id="a_Node000020"><a xlink:title=" ">
<polygon fill="#e0e0e0" stroke="#999999" points="148,-74 104,-74 104,-55 148,-55 148,-74"/>
<text text-anchor="middle" x="126" y="-62" font-family="Helvetica,sans-Serif" font-size="10.00">ctime</text>
</a>
</g>
</g>
<!-- Node19&#45;&gt;Node20 -->
<g id="edge34_Node000019_Node000020" class="edge">
<title>Node19&#45;&gt;Node20</title>
<g id="a_edge34_Node000019_Node000020"><a xlink:title=" ">
<path fill="none" stroke="#63b8ff" d="M243.11,-109.99C217.15,-100.12 182.74,-87.05 157.95,-77.64"/>
<polygon fill="#63b8ff" stroke="#63b8ff" points="158.88,-74.25 148.29,-73.97 156.4,-80.79 158.88,-74.25"/>
</a>
</g>
</g>
<!-- Node21 -->
<g id="Node000021" class="node">
<title>Node21</title>
<g id="a_Node000021"><a xlink:title=" ">
<polygon fill="#e0e0e0" stroke="#999999" points="234,-74 166,-74 166,-55 234,-55 234,-74"/>
<text text-anchor="middle" x="200" y="-62" font-family="Helvetica,sans-Serif" font-size="10.00">filesystem</text>
</a>
</g>
</g>
<!-- Node19&#45;&gt;Node21 -->
<g id="edge35_Node000019_Node000021" class="edge">
<title>Node19&#45;&gt;Node21</title>
<g id="a_edge35_Node000019_Node000021"><a xlink:title=" ">
<path fill="none" stroke="#63b8ff" d="M260.63,-109.84C248.43,-100.91 232.69,-89.41 220.31,-80.35"/>
<polygon fill="#63b8ff" stroke="#63b8ff" points="222.13,-77.34 211.99,-74.27 217.99,-82.99 222.13,-77.34"/>
</a>
</g>
</g>
<!-- Node22 -->
<g id="Node000022" class="node">
<title>Node22</title>
<g id="a_Node000022"><a xlink:title=" ">
<polygon fill="#e0e0e0" stroke="#999999" points="307.5,-74 252.5,-74 252.5,-55 307.5,-55 307.5,-74"/>
<text text-anchor="middle" x="280" y="-62" font-family="Helvetica,sans-Serif" font-size="10.00">fstream</text>
</a>
</g>
</g>
<!-- Node19&#45;&gt;Node22 -->
<g id="edge36_Node000019_Node000022" class="edge">
<title>Node19&#45;&gt;Node22</title>
<g id="a_edge36_Node000019_Node000022"><a xlink:title=" ">
<path fill="none" stroke="#63b8ff" d="M280,-109.84C280,-102.21 280,-92.7 280,-84.45"/>
<polygon fill="#63b8ff" stroke="#63b8ff" points="283.5,-84.27 280,-74.27 276.5,-84.27 283.5,-84.27"/>
</a>
</g>
</g>
<!-- Node23 -->
<g id="Node000023" class="node">
<title>Node23</title>
<g id="a_Node000023"><a xlink:title=" ">
<polygon fill="#e0e0e0" stroke="#999999" points="374,-74 326,-74 326,-55 374,-55 374,-74"/>
<text text-anchor="middle" x="350" y="-62" font-family="Helvetica,sans-Serif" font-size="10.00">mutex</text>
</a>
</g>
</g>
<!-- Node19&#45;&gt;Node23 -->
<g id="edge37_Node000019_Node000023" class="edge">
<title>Node19&#45;&gt;Node23</title>
<g id="a_edge37_Node000019_Node000023"><a xlink:title=" ">
<path fill="none" stroke="#63b8ff" d="M296.95,-109.84C307.42,-101.09 320.86,-89.85 331.59,-80.88"/>
<polygon fill="#63b8ff" stroke="#63b8ff" points="334.08,-83.36 339.51,-74.27 329.59,-77.99 334.08,-83.36"/>
</a>
</g>
</g>
<!-- Node24&#45;&gt;Node2 -->
<g id="edge42_Node000024_Node000002" class="edge">
<title>Node24&#45;&gt;Node2</title>
<g id="a_edge42_Node000024_Node000002"><a xlink:title=" ">
<path fill="none" stroke="#63b8ff" d="M549.01,-115.06C540.41,-100.99 526.95,-73.4 540,-55 561.28,-25 604.42,-15.07 634.48,-11.87"/>
<polygon fill="#63b8ff" stroke="#63b8ff" points="634.85,-15.35 644.51,-10.99 634.25,-8.37 634.85,-15.35"/>
</a>
</g>
</g>
<!-- Node24&#45;&gt;Node4 -->
<g id="edge43_Node000024_Node000004" class="edge">
<title>Node24&#45;&gt;Node4</title>
<g id="a_edge43_Node000024_Node000004"><a xlink:title=" ">
<path fill="none" stroke="#63b8ff" d="M554.31,-115.09C553.69,-100 554.93,-69.67 573,-55 637.69,-2.49 1238.99,-26.17 1322,-19 1333.23,-18.03 1345.46,-16.61 1356.41,-15.21"/>
<polygon fill="#63b8ff" stroke="#63b8ff" points="1356.99,-18.67 1366.44,-13.89 1356.07,-11.73 1356.99,-18.67"/>
</a>
</g>
</g>
<!-- Node24&#45;&gt;Node15 -->
<g id="edge41_Node000024_Node000015" class="edge">
<title>Node24&#45;&gt;Node15</title>
<g id="a_edge41_Node000024_Node000015"><a xlink:title=" ">
<path fill="none" stroke="#63b8ff" d="M523.87,-115.4C503.25,-107.98 477.59,-95.05 464,-74 455.47,-60.79 454.87,-42.67 456.03,-29.16"/>
<polygon fill="#63b8ff" stroke="#63b8ff" points="459.52,-29.47 457.27,-19.11 452.57,-28.61 459.52,-29.47"/>
</a>
</g>
</g>
<!-- Node24&#45;&gt;Node18 -->
<g id="edge44_Node000024_Node000018" class="edge">
<title>Node24&#45;&gt;Node18</title>
<g id="a_edge44_Node000024_Node000018"><a xlink:title=" ">
<path fill="none" stroke="#63b8ff" d="M569.31,-115.37C585,-105.91 610.4,-90.59 628.91,-79.42"/>
<polygon fill="#63b8ff" stroke="#63b8ff" points="630.87,-82.33 637.63,-74.17 627.26,-76.33 630.87,-82.33"/>
</a>
</g>
</g>
<!-- Node25&#45;&gt;Node2 -->
<g id="edge48_Node000025_Node000002" class="edge">
<title>Node25&#45;&gt;Node2</title>
<g id="a_edge48_Node000025_Node000002"><a xlink:title=" ">
<path fill="none" stroke="#63b8ff" d="M775.97,-115.22C767.76,-101.37 750.43,-74.06 731,-55 719.03,-43.26 703.65,-32.46 690.97,-24.44"/>
<polygon fill="#63b8ff" stroke="#63b8ff" points="692.65,-21.36 682.3,-19.11 688.99,-27.33 692.65,-21.36"/>
</a>
</g>
</g>
<!-- Node25&#45;&gt;Node4 -->
<g id="edge49_Node000025_Node000004" class="edge">
<title>Node25&#45;&gt;Node4</title>
<g id="a_edge49_Node000025_Node000004"><a xlink:title=" ">
<path fill="none" stroke="#63b8ff" d="M781.44,-115.02C782.72,-99.85 787.7,-69.37 807,-55 853.01,-20.74 1264.91,-24.56 1322,-19 1333.22,-17.91 1345.44,-16.46 1356.4,-15.07"/>
<polygon fill="#63b8ff" stroke="#63b8ff" points="1356.97,-18.52 1366.43,-13.77 1356.07,-11.58 1356.97,-18.52"/>
</a>
</g>
</g>
<!-- Node25&#45;&gt;Node12 -->
<g id="edge46_Node000025_Node000012" class="edge">
<title>Node25&#45;&gt;Node12</title>
<g id="a_edge46_Node000025_Node000012"><a xlink:title=" ">
<path fill="none" stroke="#63b8ff" d="M790.3,-115.37C799.97,-106.38 815.34,-92.11 827.16,-81.14"/>
<polygon fill="#63b8ff" stroke="#63b8ff" points="829.72,-83.54 834.67,-74.17 824.96,-78.41 829.72,-83.54"/>
</a>
</g>
</g>
<!-- Node25&#45;&gt;Node15 -->
<g id="edge47_Node000025_Node000015" class="edge">
<title>Node25&#45;&gt;Node15</title>
<g id="a_edge47_Node000025_Node000015"><a xlink:title=" ">
<path fill="none" stroke="#63b8ff" d="M728.52,-115.48C685.72,-107.57 624.21,-93.98 573,-74 539.02,-60.74 502.69,-39.04 480.41,-24.77"/>
<polygon fill="#63b8ff" stroke="#63b8ff" points="482.06,-21.66 471.77,-19.15 478.24,-27.53 482.06,-21.66"/>
</a>
</g>
</g>
<!-- Node25&#45;&gt;Node18 -->
<g id="edge50_Node000025_Node000018" class="edge">
<title>Node25&#45;&gt;Node18</title>
<g id="a_edge50_Node000025_Node000018"><a xlink:title=" ">
<path fill="none" stroke="#63b8ff" d="M762.24,-115.49C740.65,-105.7 704.97,-89.52 680.07,-78.23"/>
<polygon fill="#63b8ff" stroke="#63b8ff" points="681.33,-74.96 670.78,-74.02 678.44,-81.33 681.33,-74.96"/>
</a>
</g>
</g>
</g>
</svg>
