<?xml version="1.0" encoding="UTF-8" standalone="no"?>
<!DOCTYPE svg PUBLIC "-//W3C//DTD SVG 1.1//EN"
 "http://www.w3.org/Graphics/SVG/1.1/DTD/svg11.dtd">
<!-- Generated by graphviz version 2.43.0 (0)
 -->
<!-- Title: SimulateurFerroviaire/Modules/InteractiveElements/ShuntingElements/SwitchBlock.h Pages: 1 -->
<svg width="1200pt" height="280pt"
 viewBox="0.00 0.00 1199.50 280.00" xmlns="http://www.w3.org/2000/svg" xmlns:xlink="http://www.w3.org/1999/xlink">
<g id="graph0" class="graph" transform="scale(1 1) rotate(0) translate(4 276)">
<title>SimulateurFerroviaire/Modules/InteractiveElements/ShuntingElements/SwitchBlock.h</title>
<!-- Node1 -->
<g id="Node000001" class="node">
<title>Node1</title>
<g id="a_Node000001"><a xlink:title="Modèle de domaine d&#39;un aiguillage ferroviaire à 3 branches.">
<polygon fill="#999999" stroke="#666666" points="748,-272 569,-272 569,-231 748,-231 748,-272"/>
<text text-anchor="start" x="577" y="-260" font-family="Helvetica,sans-Serif" font-size="10.00">SimulateurFerroviaire</text>
<text text-anchor="start" x="577" y="-249" font-family="Helvetica,sans-Serif" font-size="10.00">/Modules/InteractiveElements</text>
<text text-anchor="middle" x="658.5" y="-238" font-family="Helvetica,sans-Serif" font-size="10.00">/ShuntingElements/SwitchBlock.h</text>
</a>
</g>
</g>
<!-- Node2 -->
<g id="Node000002" class="node">
<title>Node2</title>
<g id="a_Node000002"><a xlink:href="TopologyData_8h.html" target="_top" xlink:title="Conteneur central des données topologiques ferroviaires.">
<polygon fill="white" stroke="#666666" points="334,-195 209,-195 209,-154 334,-154 334,-195"/>
<text text-anchor="start" x="217" y="-183" font-family="Helvetica,sans-Serif" font-size="10.00">SimulateurFerroviaire</text>
<text text-anchor="start" x="217" y="-172" font-family="Helvetica,sans-Serif" font-size="10.00">/Engine/Core/Topology</text>
<text text-anchor="middle" x="271.5" y="-161" font-family="Helvetica,sans-Serif" font-size="10.00">/TopologyData.h</text>
</a>
</g>
</g>
<!-- Node1&#45;&gt;Node2 -->
<g id="edge1_Node000001_Node000002" class="edge">
<title>Node1&#45;&gt;Node2</title>
<g id="a_edge1_Node000001_Node000002"><a xlink:title=" ">
<path fill="none" stroke="#63b8ff" d="M558.82,-232.75C500.85,-222.22 426.44,-208.36 360.5,-195 351.97,-193.27 343,-191.39 334.17,-189.49"/>
<polygon fill="#63b8ff" stroke="#63b8ff" points="558.24,-236.2 568.71,-234.54 559.49,-229.31 558.24,-236.2"/>
</a>
</g>
</g>
<!-- Node7 -->
<g id="Node000007" class="node">
<title>Node7</title>
<g id="a_Node000007"><a xlink:href="TopologyRenderer_8h.html" target="_top" xlink:title="Exporteur de topologie ferroviaire au format GeoJSON.">
<polygon fill="white" stroke="#666666" points="135,-118 10,-118 10,-77 135,-77 135,-118"/>
<text text-anchor="start" x="18" y="-106" font-family="Helvetica,sans-Serif" font-size="10.00">SimulateurFerroviaire</text>
<text text-anchor="start" x="18" y="-95" font-family="Helvetica,sans-Serif" font-size="10.00">/Engine/Core/Topology</text>
<text text-anchor="middle" x="72.5" y="-84" font-family="Helvetica,sans-Serif" font-size="10.00">/TopologyRenderer.h</text>
</a>
</g>
</g>
<!-- Node1&#45;&gt;Node7 -->
<g id="edge6_Node000001_Node000007" class="edge">
<title>Node1&#45;&gt;Node7</title>
<g id="a_edge6_Node000001_Node000007"><a xlink:title=" ">
<path fill="none" stroke="#63b8ff" d="M558.56,-244.54C443.6,-236.62 262.59,-220.57 199.5,-195 156.13,-177.42 114.67,-141 91.51,-118.27"/>
<polygon fill="#63b8ff" stroke="#63b8ff" points="558.57,-248.05 568.78,-245.24 559.04,-241.07 558.57,-248.05"/>
</a>
</g>
</g>
<!-- Node8 -->
<g id="Node000008" class="node">
<title>Node8</title>
<g id="a_Node000008"><a xlink:href="DoubleSwitchDetector_8h.html" target="_top" xlink:title="Phases 7 et 8 — détection des doubles aiguilles et validation CDC.">
<polygon fill="white" stroke="#666666" points="553,-195 370,-195 370,-154 553,-154 553,-195"/>
<text text-anchor="start" x="378" y="-183" font-family="Helvetica,sans-Serif" font-size="10.00">SimulateurFerroviaire</text>
<text text-anchor="start" x="378" y="-172" font-family="Helvetica,sans-Serif" font-size="10.00">/Modules/GeoParser/DoubleSwitch</text>
<text text-anchor="middle" x="461.5" y="-161" font-family="Helvetica,sans-Serif" font-size="10.00">Detector.h</text>
</a>
</g>
</g>
<!-- Node1&#45;&gt;Node8 -->
<g id="edge10_Node000001_Node000008" class="edge">
<title>Node1&#45;&gt;Node8</title>
<g id="a_edge10_Node000001_Node000008"><a xlink:title=" ">
<path fill="none" stroke="#63b8ff" d="M597.83,-227.4C570.61,-217.04 538.85,-204.95 512.83,-195.04"/>
<polygon fill="#63b8ff" stroke="#63b8ff" points="596.66,-230.7 607.25,-230.99 599.15,-224.16 596.66,-230.7"/>
</a>
</g>
</g>
<!-- Node10 -->
<g id="Node000010" class="node">
<title>Node10</title>
<g id="a_Node000010"><a xlink:href="GeoParser_8h.html" target="_top" xlink:title="Orchestrateur principal du pipeline GeoJSON ferroviaire.">
<polygon fill="white" stroke="#666666" points="745.5,-189.5 571.5,-189.5 571.5,-159.5 745.5,-159.5 745.5,-189.5"/>
<text text-anchor="start" x="579.5" y="-177.5" font-family="Helvetica,sans-Serif" font-size="10.00">SimulateurFerroviaire</text>
<text text-anchor="middle" x="658.5" y="-166.5" font-family="Helvetica,sans-Serif" font-size="10.00">/Modules/GeoParser/GeoParser.h</text>
</a>
</g>
</g>
<!-- Node1&#45;&gt;Node10 -->
<g id="edge13_Node000001_Node000010" class="edge">
<title>Node1&#45;&gt;Node10</title>
<g id="a_edge13_Node000001_Node000010"><a xlink:title=" ">
<path fill="none" stroke="#63b8ff" d="M658.5,-220.61C658.5,-210.01 658.5,-198.57 658.5,-189.86"/>
<polygon fill="#63b8ff" stroke="#63b8ff" points="655,-220.79 658.5,-230.79 662,-220.79 655,-220.79"/>
</a>
</g>
</g>
<!-- Node12 -->
<g id="Node000012" class="node">
<title>Node12</title>
<g id="a_Node000012"><a xlink:href="SwitchOrientator_8h.html" target="_top" xlink:title="Phases 6, 6b, 6c et 6d — orientation géométrique des aiguillages.">
<polygon fill="white" stroke="#666666" points="1185.5,-112.5 979.5,-112.5 979.5,-82.5 1185.5,-82.5 1185.5,-112.5"/>
<text text-anchor="start" x="987.5" y="-100.5" font-family="Helvetica,sans-Serif" font-size="10.00">SimulateurFerroviaire</text>
<text text-anchor="middle" x="1082.5" y="-89.5" font-family="Helvetica,sans-Serif" font-size="10.00">/Modules/GeoParser/SwitchOrientator.h</text>
</a>
</g>
</g>
<!-- Node1&#45;&gt;Node12 -->
<g id="edge16_Node000001_Node000012" class="edge">
<title>Node1&#45;&gt;Node12</title>
<g id="a_edge16_Node000001_Node000012"><a xlink:title=" ">
<path fill="none" stroke="#63b8ff" d="M758.03,-244.91C812.36,-238.38 879.22,-224.46 932.5,-195 954.51,-182.83 951.28,-168.96 971.5,-154 994.71,-136.83 1024.03,-122.43 1046.71,-112.6"/>
<polygon fill="#63b8ff" stroke="#63b8ff" points="757.58,-241.44 748.04,-246.04 758.37,-248.39 757.58,-241.44"/>
</a>
</g>
</g>
<!-- Node14 -->
<g id="Node000014" class="node">
<title>Node14</title>
<g id="a_Node000014"><a xlink:href="TopologyExtractor_8h.html" target="_top" xlink:title="Phases 3, 4, 5a et 5b — extraction de la topologie ferroviaire depuis le graphe.">
<polygon fill="white" stroke="#666666" points="923.5,-195 763.5,-195 763.5,-154 923.5,-154 923.5,-195"/>
<text text-anchor="start" x="771.5" y="-183" font-family="Helvetica,sans-Serif" font-size="10.00">SimulateurFerroviaire</text>
<text text-anchor="start" x="771.5" y="-172" font-family="Helvetica,sans-Serif" font-size="10.00">/Modules/GeoParser/Topology</text>
<text text-anchor="middle" x="843.5" y="-161" font-family="Helvetica,sans-Serif" font-size="10.00">Extractor.h</text>
</a>
</g>
</g>
<!-- Node1&#45;&gt;Node14 -->
<g id="edge19_Node000001_Node000014" class="edge">
<title>Node1&#45;&gt;Node14</title>
<g id="a_edge19_Node000001_Node000014"><a xlink:title=" ">
<path fill="none" stroke="#63b8ff" d="M716.14,-227.13C741.55,-216.83 771.08,-204.86 795.3,-195.04"/>
<polygon fill="#63b8ff" stroke="#63b8ff" points="714.58,-223.99 706.62,-230.99 717.21,-230.48 714.58,-223.99"/>
</a>
</g>
</g>
<!-- Node16 -->
<g id="Node000016" class="node">
<title>Node16</title>
<g id="a_Node000016"><a xlink:href="SwitchBlock_8cpp.html" target="_top" xlink:title="Implémentation du modèle d&#39;aiguillage SwitchBlock.">
<polygon fill="white" stroke="#666666" points="1171,-195 980,-195 980,-154 1171,-154 1171,-195"/>
<text text-anchor="start" x="988" y="-183" font-family="Helvetica,sans-Serif" font-size="10.00">SimulateurFerroviaire</text>
<text text-anchor="start" x="988" y="-172" font-family="Helvetica,sans-Serif" font-size="10.00">/Modules/InteractiveElements</text>
<text text-anchor="middle" x="1075.5" y="-161" font-family="Helvetica,sans-Serif" font-size="10.00">/ShuntingElements/SwitchBlock.cpp</text>
</a>
</g>
</g>
<!-- Node1&#45;&gt;Node16 -->
<g id="edge23_Node000001_Node000016" class="edge">
<title>Node1&#45;&gt;Node16</title>
<g id="a_edge23_Node000001_Node000016"><a xlink:title=" ">
<path fill="none" stroke="#63b8ff" d="M758.38,-232.54C825.52,-220.46 913.52,-204.63 979.77,-192.72"/>
<polygon fill="#63b8ff" stroke="#63b8ff" points="757.44,-229.15 748.21,-234.36 758.67,-236.04 757.44,-229.15"/>
</a>
</g>
</g>
<!-- Node3 -->
<g id="Node000003" class="node">
<title>Node3</title>
<g id="a_Node000003"><a xlink:href="TopologyRepository_8h.html" target="_top" xlink:title="Singleton de stockage des données topologiques ferroviaires.">
<polygon fill="white" stroke="#666666" points="278,-118 153,-118 153,-77 278,-77 278,-118"/>
<text text-anchor="start" x="161" y="-106" font-family="Helvetica,sans-Serif" font-size="10.00">SimulateurFerroviaire</text>
<text text-anchor="start" x="161" y="-95" font-family="Helvetica,sans-Serif" font-size="10.00">/Engine/Core/Topology</text>
<text text-anchor="middle" x="215.5" y="-84" font-family="Helvetica,sans-Serif" font-size="10.00">/TopologyRepository.h</text>
</a>
</g>
</g>
<!-- Node2&#45;&gt;Node3 -->
<g id="edge2_Node000002_Node000003" class="edge">
<title>Node2&#45;&gt;Node3</title>
<g id="a_edge2_Node000002_Node000003"><a xlink:title=" ">
<path fill="none" stroke="#63b8ff" d="M250.72,-145.67C243.87,-136.5 236.4,-126.5 230.12,-118.07"/>
<polygon fill="#63b8ff" stroke="#63b8ff" points="248,-147.88 256.79,-153.79 253.61,-143.69 248,-147.88"/>
</a>
</g>
</g>
<!-- Node4 -->
<g id="Node000004" class="node">
<title>Node4</title>
<g id="a_Node000004"><a xlink:href="TopologyRenderer_8cpp.html" target="_top" xlink:title="Implémentation de l&#39;exporteur GeoJSON.">
<polygon fill="white" stroke="#666666" points="127,-41 0,-41 0,0 127,0 127,-41"/>
<text text-anchor="start" x="8" y="-29" font-family="Helvetica,sans-Serif" font-size="10.00">SimulateurFerroviaire</text>
<text text-anchor="start" x="8" y="-18" font-family="Helvetica,sans-Serif" font-size="10.00">/Engine/Core/Topology</text>
<text text-anchor="middle" x="63.5" y="-7" font-family="Helvetica,sans-Serif" font-size="10.00">/TopologyRenderer.cpp</text>
</a>
</g>
</g>
<!-- Node3&#45;&gt;Node4 -->
<g id="edge3_Node000003_Node000004" class="edge">
<title>Node3&#45;&gt;Node4</title>
<g id="a_edge3_Node000003_Node000004"><a xlink:title=" ">
<path fill="none" stroke="#63b8ff" d="M166.76,-72.45C146.19,-62.3 122.57,-50.64 103.11,-41.04"/>
<polygon fill="#63b8ff" stroke="#63b8ff" points="165.44,-75.7 175.96,-76.99 168.54,-69.43 165.44,-75.7"/>
</a>
</g>
</g>
<!-- Node5 -->
<g id="Node000005" class="node">
<title>Node5</title>
<g id="a_Node000005"><a xlink:href="MainWindow_8cpp.html" target="_top" xlink:title="Implémentation de la fenêtre principale.">
<polygon fill="white" stroke="#666666" points="306,-35.5 145,-35.5 145,-5.5 306,-5.5 306,-35.5"/>
<text text-anchor="start" x="153" y="-23.5" font-family="Helvetica,sans-Serif" font-size="10.00">SimulateurFerroviaire</text>
<text text-anchor="middle" x="225.5" y="-12.5" font-family="Helvetica,sans-Serif" font-size="10.00">/Engine/HMI/MainWindow.cpp</text>
</a>
</g>
</g>
<!-- Node3&#45;&gt;Node5 -->
<g id="edge4_Node000003_Node000005" class="edge">
<title>Node3&#45;&gt;Node5</title>
<g id="a_edge4_Node000003_Node000005"><a xlink:title=" ">
<path fill="none" stroke="#63b8ff" d="M219.49,-66.61C220.9,-56.01 222.42,-44.57 223.59,-35.86"/>
<polygon fill="#63b8ff" stroke="#63b8ff" points="215.98,-66.42 218.13,-76.79 222.92,-67.34 215.98,-66.42"/>
</a>
</g>
</g>
<!-- Node6 -->
<g id="Node000006" class="node">
<title>Node6</title>
<g id="a_Node000006"><a xlink:href="GeoParser_8cpp.html" target="_top" xlink:title="Implémentation du pipeline GeoParser.">
<polygon fill="white" stroke="#666666" points="714,-35.5 529,-35.5 529,-5.5 714,-5.5 714,-35.5"/>
<text text-anchor="start" x="537" y="-23.5" font-family="Helvetica,sans-Serif" font-size="10.00">SimulateurFerroviaire</text>
<text text-anchor="middle" x="621.5" y="-12.5" font-family="Helvetica,sans-Serif" font-size="10.00">/Modules/GeoParser/GeoParser.cpp</text>
</a>
</g>
</g>
<!-- Node3&#45;&gt;Node6 -->
<g id="edge5_Node000003_Node000006" class="edge">
<title>Node3&#45;&gt;Node6</title>
<g id="a_edge5_Node000003_Node000006"><a xlink:title=" ">
<path fill="none" stroke="#63b8ff" d="M288.13,-76.74C374.74,-58.03 463.91,-43.73 528.94,-34.19"/>
<polygon fill="#63b8ff" stroke="#63b8ff" points="287.16,-73.37 278.13,-78.92 288.65,-80.21 287.16,-73.37"/>
</a>
</g>
</g>
<!-- Node7&#45;&gt;Node4 -->
<g id="edge7_Node000007_Node000004" class="edge">
<title>Node7&#45;&gt;Node4</title>
<g id="a_edge7_Node000007_Node000004"><a xlink:title=" ">
<path fill="none" stroke="#63b8ff" d="M68.92,-66.69C67.89,-58.08 66.79,-48.9 65.85,-41.07"/>
<polygon fill="#63b8ff" stroke="#63b8ff" points="65.47,-67.28 70.14,-76.79 72.42,-66.45 65.47,-67.28"/>
</a>
</g>
</g>
<!-- Node7&#45;&gt;Node5 -->
<g id="edge8_Node000007_Node000005" class="edge">
<title>Node7&#45;&gt;Node5</title>
<g id="a_edge8_Node000007_Node000005"><a xlink:title=" ">
<path fill="none" stroke="#63b8ff" d="M121.53,-72.46C146.26,-60.34 175.4,-46.06 196.53,-35.7"/>
<polygon fill="#63b8ff" stroke="#63b8ff" points="119.74,-69.45 112.3,-76.99 122.82,-75.73 119.74,-69.45"/>
</a>
</g>
</g>
<!-- Node7&#45;&gt;Node6 -->
<g id="edge9_Node000007_Node000006" class="edge">
<title>Node7&#45;&gt;Node6</title>
<g id="a_edge9_Node000007_Node000006"><a xlink:title=" ">
<path fill="none" stroke="#63b8ff" d="M145.04,-76.84C283.43,-50.52 434.27,-35.69 528.78,-28.05"/>
<polygon fill="#63b8ff" stroke="#63b8ff" points="144.26,-73.42 135.1,-78.75 145.58,-80.3 144.26,-73.42"/>
</a>
</g>
</g>
<!-- Node8&#45;&gt;Node6 -->
<g id="edge12_Node000008_Node000006" class="edge">
<title>Node8&#45;&gt;Node6</title>
<g id="a_edge12_Node000008_Node000006"><a xlink:title=" ">
<path fill="none" stroke="#63b8ff" d="M476.53,-144.94C488.39,-124.31 506.42,-96.72 527.5,-77 545.91,-59.78 570.56,-45.47 590,-35.7"/>
<polygon fill="#63b8ff" stroke="#63b8ff" points="473.36,-143.45 471.53,-153.88 479.47,-146.87 473.36,-143.45"/>
</a>
</g>
</g>
<!-- Node9 -->
<g id="Node000009" class="node">
<title>Node9</title>
<g id="a_Node000009"><a xlink:href="DoubleSwitchDetector_8cpp.html" target="_top" xlink:title="Implémentation phases 7 et 8 — doubles aiguilles et validation CDC.">
<polygon fill="white" stroke="#666666" points="479,-118 296,-118 296,-77 479,-77 479,-118"/>
<text text-anchor="start" x="304" y="-106" font-family="Helvetica,sans-Serif" font-size="10.00">SimulateurFerroviaire</text>
<text text-anchor="start" x="304" y="-95" font-family="Helvetica,sans-Serif" font-size="10.00">/Modules/GeoParser/DoubleSwitch</text>
<text text-anchor="middle" x="387.5" y="-84" font-family="Helvetica,sans-Serif" font-size="10.00">Detector.cpp</text>
</a>
</g>
</g>
<!-- Node8&#45;&gt;Node9 -->
<g id="edge11_Node000008_Node000009" class="edge">
<title>Node8&#45;&gt;Node9</title>
<g id="a_edge11_Node000008_Node000009"><a xlink:title=" ">
<path fill="none" stroke="#63b8ff" d="M434.87,-146.51C425.6,-137.11 415.38,-126.76 406.81,-118.07"/>
<polygon fill="#63b8ff" stroke="#63b8ff" points="432.54,-149.13 442.06,-153.79 437.53,-144.22 432.54,-149.13"/>
</a>
</g>
</g>
<!-- Node10&#45;&gt;Node6 -->
<g id="edge14_Node000010_Node000006" class="edge">
<title>Node10&#45;&gt;Node6</title>
<g id="a_edge14_Node000010_Node000006"><a xlink:title=" ">
<path fill="none" stroke="#63b8ff" d="M688.37,-153.13C699.38,-143.84 710.6,-131.82 716.5,-118 723.66,-101.24 725.57,-92.8 716.5,-77 705.38,-57.62 684.58,-44.36 665.27,-35.68"/>
<polygon fill="#63b8ff" stroke="#63b8ff" points="686.12,-150.44 680.46,-159.4 690.47,-155.93 686.12,-150.44"/>
</a>
</g>
</g>
<!-- Node11 -->
<g id="Node000011" class="node">
<title>Node11</title>
<g id="a_Node000011"><a xlink:href="GeoParsingTask_8cpp.html" target="_top" xlink:title="Implémentation de la tâche de parsing GeoJSON asynchrone.">
<polygon fill="white" stroke="#666666" points="707,-118 536,-118 536,-77 707,-77 707,-118"/>
<text text-anchor="start" x="544" y="-106" font-family="Helvetica,sans-Serif" font-size="10.00">SimulateurFerroviaire</text>
<text text-anchor="start" x="544" y="-95" font-family="Helvetica,sans-Serif" font-size="10.00">/Modules/GeoParser/GeoParsing</text>
<text text-anchor="middle" x="621.5" y="-84" font-family="Helvetica,sans-Serif" font-size="10.00">Task.cpp</text>
</a>
</g>
</g>
<!-- Node10&#45;&gt;Node11 -->
<g id="edge15_Node000010_Node000011" class="edge">
<title>Node10&#45;&gt;Node11</title>
<g id="a_edge15_Node000010_Node000011"><a xlink:title=" ">
<path fill="none" stroke="#63b8ff" d="M647,-150.19C641.94,-139.93 636.06,-128.01 631.22,-118.2"/>
<polygon fill="#63b8ff" stroke="#63b8ff" points="643.98,-151.97 651.54,-159.39 650.26,-148.88 643.98,-151.97"/>
</a>
</g>
</g>
<!-- Node12&#45;&gt;Node6 -->
<g id="edge17_Node000012_Node000006" class="edge">
<title>Node12&#45;&gt;Node6</title>
<g id="a_edge17_Node000012_Node000006"><a xlink:title=" ">
<path fill="none" stroke="#63b8ff" d="M992.78,-80.76C985.24,-79.47 977.74,-78.21 970.5,-77 882.75,-62.38 782.44,-46.52 711.95,-35.51"/>
<polygon fill="#63b8ff" stroke="#63b8ff" points="992.23,-84.22 1002.68,-82.46 993.42,-77.32 992.23,-84.22"/>
</a>
</g>
</g>
<!-- Node13 -->
<g id="Node000013" class="node">
<title>Node13</title>
<g id="a_Node000013"><a xlink:href="SwitchOrientator_8cpp.html" target="_top" xlink:title="Implémentation des phases 6, 6b, 6c et 6d — orientation des aiguillages.">
<polygon fill="white" stroke="#666666" points="1191.5,-35.5 973.5,-35.5 973.5,-5.5 1191.5,-5.5 1191.5,-35.5"/>
<text text-anchor="start" x="981.5" y="-23.5" font-family="Helvetica,sans-Serif" font-size="10.00">SimulateurFerroviaire</text>
<text text-anchor="middle" x="1082.5" y="-12.5" font-family="Helvetica,sans-Serif" font-size="10.00">/Modules/GeoParser/SwitchOrientator.cpp</text>
</a>
</g>
</g>
<!-- Node12&#45;&gt;Node13 -->
<g id="edge18_Node000012_Node000013" class="edge">
<title>Node12&#45;&gt;Node13</title>
<g id="a_edge18_Node000012_Node000013"><a xlink:title=" ">
<path fill="none" stroke="#63b8ff" d="M1082.5,-72.04C1082.5,-59.95 1082.5,-45.79 1082.5,-35.54"/>
<polygon fill="#63b8ff" stroke="#63b8ff" points="1079,-72.39 1082.5,-82.39 1086,-72.39 1079,-72.39"/>
</a>
</g>
</g>
<!-- Node14&#45;&gt;Node6 -->
<g id="edge20_Node000014_Node000006" class="edge">
<title>Node14&#45;&gt;Node6</title>
<g id="a_edge20_Node000014_Node000006"><a xlink:title=" ">
<path fill="none" stroke="#63b8ff" d="M816.73,-146.44C795.41,-125.8 764.14,-97.52 733.5,-77 708.8,-60.46 678.46,-45.73 655.59,-35.6"/>
<polygon fill="#63b8ff" stroke="#63b8ff" points="814.52,-149.18 824.12,-153.67 819.42,-144.17 814.52,-149.18"/>
</a>
</g>
</g>
<!-- Node14&#45;&gt;Node12 -->
<g id="edge21_Node000014_Node000012" class="edge">
<title>Node14&#45;&gt;Node12</title>
<g id="a_edge21_Node000014_Node000012"><a xlink:title=" ">
<path fill="none" stroke="#63b8ff" d="M915.32,-150.96C955.06,-138.49 1003.22,-123.38 1037.62,-112.58"/>
<polygon fill="#63b8ff" stroke="#63b8ff" points="914.16,-147.66 905.67,-153.99 916.26,-154.34 914.16,-147.66"/>
</a>
</g>
</g>
<!-- Node15 -->
<g id="Node000015" class="node">
<title>Node15</title>
<g id="a_Node000015"><a xlink:href="TopologyExtractor_8cpp.html" target="_top" xlink:title="Implémentation des phases 3, 4, 5a et 5b du pipeline GeoParser.">
<polygon fill="white" stroke="#666666" points="961.5,-118 801.5,-118 801.5,-77 961.5,-77 961.5,-118"/>
<text text-anchor="start" x="809.5" y="-106" font-family="Helvetica,sans-Serif" font-size="10.00">SimulateurFerroviaire</text>
<text text-anchor="start" x="809.5" y="-95" font-family="Helvetica,sans-Serif" font-size="10.00">/Modules/GeoParser/Topology</text>
<text text-anchor="middle" x="881.5" y="-84" font-family="Helvetica,sans-Serif" font-size="10.00">Extractor.cpp</text>
</a>
</g>
</g>
<!-- Node14&#45;&gt;Node15 -->
<g id="edge22_Node000014_Node000015" class="edge">
<title>Node14&#45;&gt;Node15</title>
<g id="a_edge22_Node000014_Node000015"><a xlink:title=" ">
<path fill="none" stroke="#63b8ff" d="M858.03,-144.83C862.56,-135.89 867.45,-126.24 871.58,-118.07"/>
<polygon fill="#63b8ff" stroke="#63b8ff" points="854.88,-143.29 853.48,-153.79 861.13,-146.46 854.88,-143.29"/>
</a>
</g>
</g>
</g>
</svg>
