<?xml version="1.0" encoding="UTF-8" standalone="no"?>
<!DOCTYPE svg PUBLIC "-//W3C//DTD SVG 1.1//EN"
 "http://www.w3.org/Graphics/SVG/1.1/DTD/svg11.dtd">
<!-- Generated by graphviz version 2.43.0 (0)
 -->
<!-- Title: SimulateurFerroviaire/Modules/GeoParser/SwitchOrientator.cpp Pages: 1 -->
<svg width="1965pt" height="456pt"
 viewBox="0.00 0.00 1964.73 456.00" xmlns="http://www.w3.org/2000/svg" xmlns:xlink="http://www.w3.org/1999/xlink">
<g id="graph0" class="graph" transform="scale(1 1) rotate(0) translate(4 452)">
<title>SimulateurFerroviaire/Modules/GeoParser/SwitchOrientator.cpp</title>
<!-- Node1 -->
<g id="Node000001" class="node">
<title>Node1</title>
<g id="a_Node000001"><a xlink:title="Implémentation des phases 6, 6b, 6c et 6d — orientation des aiguillages.">
<polygon fill="#999999" stroke="#666666" points="1774,-448 1556,-448 1556,-418 1774,-418 1774,-448"/>
<text text-anchor="start" x="1564" y="-436" font-family="Helvetica,sans-Serif" font-size="10.00">SimulateurFerroviaire</text>
<text text-anchor="middle" x="1665" y="-425" font-family="Helvetica,sans-Serif" font-size="10.00">/Modules/GeoParser/SwitchOrientator.cpp</text>
</a>
</g>
</g>
<!-- Node2 -->
<g id="Node000002" class="node">
<title>Node2</title>
<g id="a_Node000002"><a xlink:href="SwitchOrientator_8h.html" target="_top" xlink:title="Phases 6, 6b, 6c et 6d — orientation géométrique des aiguillages.">
<polygon fill="white" stroke="#666666" points="1544.5,-382 1437.5,-382 1437.5,-363 1544.5,-363 1544.5,-382"/>
<text text-anchor="middle" x="1491" y="-370" font-family="Helvetica,sans-Serif" font-size="10.00">SwitchOrientator.h</text>
</a>
</g>
</g>
<!-- Node1&#45;&gt;Node2 -->
<g id="edge1_Node000001_Node000002" class="edge">
<title>Node1&#45;&gt;Node2</title>
<g id="a_edge1_Node000001_Node000002"><a xlink:title=" ">
<path fill="none" stroke="#63b8ff" d="M1623.32,-417.99C1593.68,-408.02 1554.31,-394.78 1526.23,-385.35"/>
<polygon fill="#63b8ff" stroke="#63b8ff" points="1527.04,-381.92 1516.44,-382.05 1524.8,-388.56 1527.04,-381.92"/>
</a>
</g>
</g>
<!-- Node3 -->
<g id="Node000003" class="node">
<title>Node3</title>
<g id="a_Node000003"><a xlink:title=" ">
<polygon fill="#e0e0e0" stroke="#999999" points="1735,-206 1703,-206 1703,-187 1735,-187 1735,-206"/>
<text text-anchor="middle" x="1719" y="-194" font-family="Helvetica,sans-Serif" font-size="10.00">set</text>
</a>
</g>
</g>
<!-- Node1&#45;&gt;Node3 -->
<g id="edge65_Node000001_Node000003" class="edge">
<title>Node1&#45;&gt;Node3</title>
<g id="a_edge65_Node000001_Node000003"><a xlink:title=" ">
<path fill="none" stroke="#63b8ff" d="M1670.41,-417.69C1680.63,-390.01 1702.65,-327.01 1713,-272 1716.52,-253.3 1717.97,-231.58 1718.58,-216.44"/>
<polygon fill="#63b8ff" stroke="#63b8ff" points="1722.08,-216.4 1718.89,-206.3 1715.08,-216.18 1722.08,-216.4"/>
</a>
</g>
</g>
<!-- Node6 -->
<g id="Node000006" class="node">
<title>Node6</title>
<g id="a_Node000006"><a xlink:title=" ">
<polygon fill="#e0e0e0" stroke="#999999" points="1746.5,-145.5 1701.5,-145.5 1701.5,-126.5 1746.5,-126.5 1746.5,-145.5"/>
<text text-anchor="middle" x="1724" y="-133.5" font-family="Helvetica,sans-Serif" font-size="10.00">utility</text>
</a>
</g>
</g>
<!-- Node1&#45;&gt;Node6 -->
<g id="edge66_Node000001_Node000006" class="edge">
<title>Node1&#45;&gt;Node6</title>
<g id="a_edge66_Node000001_Node000006"><a xlink:title=" ">
<path fill="none" stroke="#63b8ff" d="M1774.04,-423.51C1838.82,-416.31 1912.91,-403.59 1937,-382 1958.93,-362.33 1956,-347.96 1956,-318.5 1956,-318.5 1956,-318.5 1956,-256 1956,-167.45 1820.55,-144.75 1756.64,-138.96"/>
<polygon fill="#63b8ff" stroke="#63b8ff" points="1756.92,-135.47 1746.67,-138.14 1756.35,-142.45 1756.92,-135.47"/>
</a>
</g>
</g>
<!-- Node15 -->
<g id="Node000015" class="node">
<title>Node15</title>
<g id="a_Node000015"><a xlink:title=" ">
<polygon fill="#e0e0e0" stroke="#999999" points="153.5,-79.5 106.5,-79.5 106.5,-60.5 153.5,-60.5 153.5,-79.5"/>
<text text-anchor="middle" x="130" y="-67.5" font-family="Helvetica,sans-Serif" font-size="10.00">cmath</text>
</a>
</g>
</g>
<!-- Node1&#45;&gt;Node15 -->
<g id="edge67_Node000001_Node000015" class="edge">
<title>Node1&#45;&gt;Node15</title>
<g id="a_edge67_Node000001_Node000015"><a xlink:title=" ">
<path fill="none" stroke="#63b8ff" d="M1555.75,-430.28C1185.34,-423.75 0,-396.73 0,-318.5 0,-318.5 0,-318.5 0,-256 0,-180.77 72.85,-114.5 109.48,-85.94"/>
<polygon fill="#63b8ff" stroke="#63b8ff" points="111.7,-88.65 117.54,-79.81 107.46,-83.08 111.7,-88.65"/>
</a>
</g>
</g>
<!-- Node29 -->
<g id="Node000029" class="node">
<title>Node29</title>
<g id="a_Node000029"><a xlink:title=" ">
<polygon fill="#e0e0e0" stroke="#999999" points="1928,-382 1864,-382 1864,-363 1928,-363 1928,-382"/>
<text text-anchor="middle" x="1896" y="-370" font-family="Helvetica,sans-Serif" font-size="10.00">algorithm</text>
</a>
</g>
</g>
<!-- Node1&#45;&gt;Node29 -->
<g id="edge64_Node000001_Node000029" class="edge">
<title>Node1&#45;&gt;Node29</title>
<g id="a_edge64_Node000001_Node000029"><a xlink:title=" ">
<path fill="none" stroke="#63b8ff" d="M1720.33,-417.99C1761.32,-407.61 1816.35,-393.67 1853.82,-384.18"/>
<polygon fill="#63b8ff" stroke="#63b8ff" points="1855.06,-387.48 1863.9,-381.63 1853.34,-380.69 1855.06,-387.48"/>
</a>
</g>
</g>
<!-- Node30 -->
<g id="Node000030" class="node">
<title>Node30</title>
<g id="a_Node000030"><a xlink:href="GeometryUtils_8h.html" target="_top" xlink:title="Utilitaires géométriques métriques pour le pipeline ferroviaire.">
<polygon fill="white" stroke="#666666" points="232,-206 104,-206 104,-187 232,-187 232,-206"/>
<text text-anchor="middle" x="168" y="-194" font-family="Helvetica,sans-Serif" font-size="10.00">./Utils/GeometryUtils.h</text>
</a>
</g>
</g>
<!-- Node1&#45;&gt;Node30 -->
<g id="edge68_Node000001_Node000030" class="edge">
<title>Node1&#45;&gt;Node30</title>
<g id="a_edge68_Node000001_Node000030"><a xlink:title=" ">
<path fill="none" stroke="#63b8ff" d="M1555.98,-423.81C1365.56,-408.89 960.19,-374.39 620,-327 482.28,-307.81 443.68,-316.67 312,-272 266.46,-256.55 217.56,-228.54 190.08,-211.61"/>
<polygon fill="#63b8ff" stroke="#63b8ff" points="191.63,-208.45 181.29,-206.13 187.92,-214.39 191.63,-208.45"/>
</a>
</g>
</g>
<!-- Node2&#45;&gt;Node3 -->
<g id="edge2_Node000002_Node000003" class="edge">
<title>Node2&#45;&gt;Node3</title>
<g id="a_edge2_Node000002_Node000003"><a xlink:title=" ">
<path fill="none" stroke="#63b8ff" d="M1525.12,-362.94C1569.2,-350.22 1645.65,-322.23 1691,-272 1705.14,-256.33 1712.38,-232.84 1715.91,-216.44"/>
<polygon fill="#63b8ff" stroke="#63b8ff" points="1719.39,-216.87 1717.81,-206.4 1712.51,-215.57 1719.39,-216.87"/>
</a>
</g>
</g>
<!-- Node4 -->
<g id="Node000004" class="node">
<title>Node4</title>
<g id="a_Node000004"><a xlink:title=" ">
<polygon fill="#e0e0e0" stroke="#999999" points="1169,-19 1125,-19 1125,0 1169,0 1169,-19"/>
<text text-anchor="middle" x="1147" y="-7" font-family="Helvetica,sans-Serif" font-size="10.00">string</text>
</a>
</g>
</g>
<!-- Node2&#45;&gt;Node4 -->
<g id="edge3_Node000002_Node000004" class="edge">
<title>Node2&#45;&gt;Node4</title>
<g id="a_edge3_Node000002_Node000004"><a xlink:title=" ">
<path fill="none" stroke="#63b8ff" d="M1437.29,-371.1C1300.49,-369.57 928.01,-362.23 620,-327 481.85,-311.2 447.63,-302.69 312,-272 204.1,-247.58 154.49,-279.72 72,-206 52.37,-188.46 54.98,-176.85 50,-151 41.77,-108.29 34.8,-81.87 69,-55 111.16,-21.88 940.18,-12.41 1114.86,-10.78"/>
<polygon fill="#63b8ff" stroke="#63b8ff" points="1114.99,-14.28 1124.96,-10.68 1114.93,-7.28 1114.99,-14.28"/>
</a>
</g>
</g>
<!-- Node5 -->
<g id="Node000005" class="node">
<title>Node5</title>
<g id="a_Node000005"><a xlink:title=" ">
<polygon fill="#e0e0e0" stroke="#999999" points="1644.5,-145.5 1551.5,-145.5 1551.5,-126.5 1644.5,-126.5 1644.5,-145.5"/>
<text text-anchor="middle" x="1598" y="-133.5" font-family="Helvetica,sans-Serif" font-size="10.00">unordered_map</text>
</a>
</g>
</g>
<!-- Node2&#45;&gt;Node5 -->
<g id="edge4_Node000002_Node000005" class="edge">
<title>Node2&#45;&gt;Node5</title>
<g id="a_edge4_Node000002_Node000005"><a xlink:title=" ">
<path fill="none" stroke="#63b8ff" d="M1540.08,-362.98C1571.84,-356.17 1613.39,-344.77 1647,-327 1707.93,-294.79 1728.99,-273.27 1744,-206 1745.84,-197.76 1748.91,-193.87 1744,-187 1732.6,-171.04 1686.48,-156.98 1649.09,-147.87"/>
<polygon fill="#63b8ff" stroke="#63b8ff" points="1649.84,-144.45 1639.3,-145.55 1648.22,-151.26 1649.84,-144.45"/>
</a>
</g>
</g>
<!-- Node2&#45;&gt;Node6 -->
<g id="edge5_Node000002_Node000006" class="edge">
<title>Node2&#45;&gt;Node6</title>
<g id="a_edge5_Node000002_Node000006"><a xlink:title=" ">
<path fill="none" stroke="#63b8ff" d="M1544.69,-367.63C1604.46,-360.08 1698.14,-337.79 1740,-272 1760.78,-239.34 1770.64,-223.92 1759,-187 1755.09,-174.59 1746.88,-162.59 1739.39,-153.45"/>
<polygon fill="#63b8ff" stroke="#63b8ff" points="1741.81,-150.9 1732.6,-145.65 1736.53,-155.49 1741.81,-150.9"/>
</a>
</g>
</g>
<!-- Node7 -->
<g id="Node000007" class="node">
<title>Node7</title>
<g id="a_Node000007"><a xlink:title=" ">
<polygon fill="#e0e0e0" stroke="#999999" points="1118.5,-79.5 1071.5,-79.5 1071.5,-60.5 1118.5,-60.5 1118.5,-79.5"/>
<text text-anchor="middle" x="1095" y="-67.5" font-family="Helvetica,sans-Serif" font-size="10.00">vector</text>
</a>
</g>
</g>
<!-- Node2&#45;&gt;Node7 -->
<g id="edge6_Node000002_Node000007" class="edge">
<title>Node2&#45;&gt;Node7</title>
<g id="a_edge6_Node000002_Node000007"><a xlink:title=" ">
<path fill="none" stroke="#63b8ff" d="M1437.28,-368.54C1272.29,-358.73 784,-324.12 784,-258 784,-258 784,-258 784,-195.5 784,-161.22 778.3,-143.69 804,-121 847.56,-82.54 1007.08,-100.79 1063,-85 1064.69,-84.52 1066.4,-83.98 1068.11,-83.38"/>
<polygon fill="#63b8ff" stroke="#63b8ff" points="1069.7,-86.52 1077.71,-79.59 1067.13,-80.01 1069.7,-86.52"/>
</a>
</g>
</g>
<!-- Node8 -->
<g id="Node000008" class="node">
<title>Node8</title>
<g id="a_Node000008"><a xlink:href="TopologyExtractor_8h.html" target="_top" xlink:title="Phases 3, 4, 5a et 5b — extraction de la topologie ferroviaire depuis le graphe.">
<polygon fill="white" stroke="#666666" points="1547.5,-327 1434.5,-327 1434.5,-308 1547.5,-308 1547.5,-327"/>
<text text-anchor="middle" x="1491" y="-315" font-family="Helvetica,sans-Serif" font-size="10.00">TopologyExtractor.h</text>
</a>
</g>
</g>
<!-- Node2&#45;&gt;Node8 -->
<g id="edge7_Node000002_Node000008" class="edge">
<title>Node2&#45;&gt;Node8</title>
<g id="a_edge7_Node000002_Node000008"><a xlink:title=" ">
<path fill="none" stroke="#63b8ff" d="M1491,-362.75C1491,-355.8 1491,-345.85 1491,-337.13"/>
<polygon fill="#63b8ff" stroke="#63b8ff" points="1494.5,-337.09 1491,-327.09 1487.5,-337.09 1494.5,-337.09"/>
</a>
</g>
</g>
<!-- Node18 -->
<g id="Node000018" class="node">
<title>Node18</title>
<g id="a_Node000018"><a xlink:href="GeoParserEnums_8h.html" target="_top" xlink:title="Constantes nommées et énumérations du pipeline ferroviaire GeoParser.">
<polygon fill="white" stroke="#666666" points="965.5,-145.5 812.5,-145.5 812.5,-126.5 965.5,-126.5 965.5,-145.5"/>
<text text-anchor="middle" x="889" y="-133.5" font-family="Helvetica,sans-Serif" font-size="10.00">../Enums/GeoParserEnums.h</text>
</a>
</g>
</g>
<!-- Node2&#45;&gt;Node18 -->
<g id="edge62_Node000002_Node000018" class="edge">
<title>Node2&#45;&gt;Node18</title>
<g id="a_edge62_Node000002_Node000018"><a xlink:title=" ">
<path fill="none" stroke="#63b8ff" d="M1437.36,-364.92C1350.77,-353.18 1175.77,-324.74 1036,-272 979.42,-250.65 957.1,-251.27 917,-206 904.29,-191.66 896.91,-170.79 892.95,-155.77"/>
<polygon fill="#63b8ff" stroke="#63b8ff" points="896.26,-154.55 890.56,-145.62 889.45,-156.15 896.26,-154.55"/>
</a>
</g>
</g>
<!-- Node20 -->
<g id="Node000020" class="node">
<title>Node20</title>
<g id="a_Node000020"><a xlink:href="Logger_8h.html" target="_top" xlink:title="Système de journalisation à 5 niveaux de trace, un fichier par moteur.">
<polygon fill="white" stroke="#666666" points="1812.5,-85 1701.5,-85 1701.5,-55 1812.5,-55 1812.5,-85"/>
<text text-anchor="start" x="1709.5" y="-73" font-family="Helvetica,sans-Serif" font-size="10.00">Engine/Core/Logger</text>
<text text-anchor="middle" x="1757" y="-62" font-family="Helvetica,sans-Serif" font-size="10.00">/Logger.h</text>
</a>
</g>
</g>
<!-- Node2&#45;&gt;Node20 -->
<g id="edge63_Node000002_Node000020" class="edge">
<title>Node2&#45;&gt;Node20</title>
<g id="a_edge63_Node000002_Node000020"><a xlink:title=" ">
<path fill="none" stroke="#63b8ff" d="M1544.65,-371.12C1611.38,-367.28 1721.43,-348.91 1762,-272 1793.41,-212.45 1785.49,-187.34 1774,-121 1772.47,-112.14 1769.61,-102.72 1766.67,-94.48"/>
<polygon fill="#63b8ff" stroke="#63b8ff" points="1769.94,-93.24 1763.13,-85.13 1763.4,-95.72 1769.94,-93.24"/>
</a>
</g>
</g>
<!-- Node25 -->
<g id="Node000025" class="node">
<title>Node25</title>
<g id="a_Node000025"><a xlink:href="StraightBlock_8h.html" target="_top" xlink:title="Modèle de domaine d&#39;un bloc de voie droite (Straight).">
<polygon fill="white" stroke="#666666" points="506.5,-272 321.5,-272 321.5,-242 506.5,-242 506.5,-272"/>
<text text-anchor="start" x="329.5" y="-260" font-family="Helvetica,sans-Serif" font-size="10.00">Modules/InteractiveElements</text>
<text text-anchor="middle" x="414" y="-249" font-family="Helvetica,sans-Serif" font-size="10.00">/ShuntingElements/StraightBlock.h</text>
</a>
</g>
</g>
<!-- Node2&#45;&gt;Node25 -->
<g id="edge60_Node000002_Node000025" class="edge">
<title>Node2&#45;&gt;Node25</title>
<g id="a_edge60_Node000002_Node000025"><a xlink:title=" ">
<path fill="none" stroke="#63b8ff" d="M1437.13,-371.26C1312.13,-370.06 992.86,-363.37 729,-327 640.03,-314.74 538.87,-290.75 475.74,-274.54"/>
<polygon fill="#63b8ff" stroke="#63b8ff" points="476.5,-271.13 465.94,-272.01 474.75,-277.9 476.5,-271.13"/>
</a>
</g>
</g>
<!-- Node28 -->
<g id="Node000028" class="node">
<title>Node28</title>
<g id="a_Node000028"><a xlink:href="SwitchBlock_8h.html" target="_top" xlink:title="Modèle de domaine d&#39;un aiguillage ferroviaire à 3 branches.">
<polygon fill="white" stroke="#666666" points="755.5,-272 576.5,-272 576.5,-242 755.5,-242 755.5,-272"/>
<text text-anchor="start" x="584.5" y="-260" font-family="Helvetica,sans-Serif" font-size="10.00">Modules/InteractiveElements</text>
<text text-anchor="middle" x="666" y="-249" font-family="Helvetica,sans-Serif" font-size="10.00">/ShuntingElements/SwitchBlock.h</text>
</a>
</g>
</g>
<!-- Node2&#45;&gt;Node28 -->
<g id="edge61_Node000002_Node000028" class="edge">
<title>Node2&#45;&gt;Node28</title>
<g id="a_edge61_Node000002_Node000028"><a xlink:title=" ">
<path fill="none" stroke="#63b8ff" d="M1437.24,-371.77C1291.86,-371.93 893.58,-368.46 770,-327 739.44,-316.75 709.28,-295.11 689.38,-278.79"/>
<polygon fill="#63b8ff" stroke="#63b8ff" points="691.41,-275.92 681.5,-272.16 686.9,-281.28 691.41,-275.92"/>
</a>
</g>
</g>
<!-- Node8&#45;&gt;Node3 -->
<g id="edge8_Node000008_Node000003" class="edge">
<title>Node8&#45;&gt;Node3</title>
<g id="a_edge8_Node000008_Node000003"><a xlink:title=" ">
<path fill="none" stroke="#63b8ff" d="M1547.55,-311.47C1583.13,-306.1 1628.65,-294.98 1663,-272 1684.47,-257.63 1700.94,-232.21 1710.3,-215.11"/>
<polygon fill="#63b8ff" stroke="#63b8ff" points="1713.45,-216.63 1714.97,-206.15 1707.24,-213.4 1713.45,-216.63"/>
</a>
</g>
</g>
<!-- Node8&#45;&gt;Node4 -->
<g id="edge9_Node000008_Node000004" class="edge">
<title>Node8&#45;&gt;Node4</title>
<g id="a_edge9_Node000008_Node000004"><a xlink:title=" ">
<path fill="none" stroke="#63b8ff" d="M1502.13,-307.79C1543.49,-274.96 1684.35,-158.68 1654,-121 1593.62,-46.04 1280.79,-19.23 1179.02,-12.41"/>
<polygon fill="#63b8ff" stroke="#63b8ff" points="1179.24,-8.92 1169.03,-11.77 1178.79,-15.91 1179.24,-8.92"/>
</a>
</g>
</g>
<!-- Node8&#45;&gt;Node5 -->
<g id="edge10_Node000008_Node000005" class="edge">
<title>Node8&#45;&gt;Node5</title>
<g id="a_edge10_Node000008_Node000005"><a xlink:title=" ">
<path fill="none" stroke="#63b8ff" d="M1496.16,-307.84C1512.79,-279.94 1565.2,-192.02 1587.64,-154.38"/>
<polygon fill="#63b8ff" stroke="#63b8ff" points="1590.78,-155.95 1592.89,-145.57 1584.76,-152.37 1590.78,-155.95"/>
</a>
</g>
</g>
<!-- Node8&#45;&gt;Node6 -->
<g id="edge11_Node000008_Node000006" class="edge">
<title>Node8&#45;&gt;Node6</title>
<g id="a_edge11_Node000008_Node000006"><a xlink:title=" ">
<path fill="none" stroke="#63b8ff" d="M1516.65,-307.99C1536.96,-300.48 1565.41,-288.22 1587,-272 1627.05,-241.92 1624.79,-221.6 1661,-187 1674.45,-174.15 1690.97,-161.13 1703.72,-151.6"/>
<polygon fill="#63b8ff" stroke="#63b8ff" points="1705.88,-154.35 1711.85,-145.6 1701.73,-148.71 1705.88,-154.35"/>
</a>
</g>
</g>
<!-- Node8&#45;&gt;Node7 -->
<g id="edge12_Node000008_Node000007" class="edge">
<title>Node8&#45;&gt;Node7</title>
<g id="a_edge12_Node000008_Node000007"><a xlink:title=" ">
<path fill="none" stroke="#63b8ff" d="M1487.73,-307.68C1475.64,-276.37 1430.22,-169.91 1355,-121 1318.02,-96.96 1190.39,-80.87 1128.79,-74.31"/>
<polygon fill="#63b8ff" stroke="#63b8ff" points="1129.1,-70.83 1118.79,-73.27 1128.37,-77.79 1129.1,-70.83"/>
</a>
</g>
</g>
<!-- Node9 -->
<g id="Node000009" class="node">
<title>Node9</title>
<g id="a_Node000009"><a xlink:href="GraphBuilder_8h.html" target="_top" xlink:title="Phases 1 et 2 du pipeline — chargement GeoJSON et construction du graphe métrique.">
<polygon fill="white" stroke="#666666" points="1418.5,-266.5 1329.5,-266.5 1329.5,-247.5 1418.5,-247.5 1418.5,-266.5"/>
<text text-anchor="middle" x="1374" y="-254.5" font-family="Helvetica,sans-Serif" font-size="10.00">GraphBuilder.h</text>
</a>
</g>
</g>
<!-- Node8&#45;&gt;Node9 -->
<g id="edge13_Node000008_Node000009" class="edge">
<title>Node8&#45;&gt;Node9</title>
<g id="a_edge13_Node000008_Node000009"><a xlink:title=" ">
<path fill="none" stroke="#63b8ff" d="M1473.99,-307.99C1454.58,-298.29 1422.61,-282.31 1400.06,-271.03"/>
<polygon fill="#63b8ff" stroke="#63b8ff" points="1401.54,-267.86 1391.03,-266.52 1398.41,-274.12 1401.54,-267.86"/>
</a>
</g>
</g>
<!-- Node8&#45;&gt;Node18 -->
<g id="edge58_Node000008_Node000018" class="edge">
<title>Node8&#45;&gt;Node18</title>
<g id="a_edge58_Node000008_Node000018"><a xlink:title=" ">
<path fill="none" stroke="#63b8ff" d="M1434.28,-310.1C1311.45,-295.45 1025.29,-256.77 943,-206 922.85,-193.56 907.23,-170.73 898.09,-154.75"/>
<polygon fill="#63b8ff" stroke="#63b8ff" points="901.1,-152.96 893.25,-145.84 894.95,-156.3 901.1,-152.96"/>
</a>
</g>
</g>
<!-- Node8&#45;&gt;Node20 -->
<g id="edge59_Node000008_Node000020" class="edge">
<title>Node8&#45;&gt;Node20</title>
<g id="a_edge59_Node000008_Node000020"><a xlink:title=" ">
<path fill="none" stroke="#63b8ff" d="M1529.58,-307.97C1555.49,-301.03 1589.6,-289.49 1616,-272 1658.74,-243.68 1654.04,-219.13 1694,-187 1718.83,-167.03 1739.93,-178.51 1756,-151 1765.77,-134.27 1765.19,-112.03 1762.64,-95.25"/>
<polygon fill="#63b8ff" stroke="#63b8ff" points="1766.03,-94.31 1760.77,-85.12 1759.14,-95.59 1766.03,-94.31"/>
</a>
</g>
</g>
<!-- Node8&#45;&gt;Node25 -->
<g id="edge43_Node000008_Node000025" class="edge">
<title>Node8&#45;&gt;Node25</title>
<g id="a_edge43_Node000008_Node000025"><a xlink:title=" ">
<path fill="none" stroke="#63b8ff" d="M1434.5,-314.61C1290.12,-309.61 895.89,-294.8 568,-272 551.43,-270.85 533.88,-269.44 516.79,-267.96"/>
<polygon fill="#63b8ff" stroke="#63b8ff" points="517.05,-264.47 506.79,-267.08 516.44,-271.44 517.05,-264.47"/>
</a>
</g>
</g>
<!-- Node8&#45;&gt;Node28 -->
<g id="edge51_Node000008_Node000028" class="edge">
<title>Node8&#45;&gt;Node28</title>
<g id="a_edge51_Node000008_Node000028"><a xlink:title=" ">
<path fill="none" stroke="#63b8ff" d="M1434.29,-312.48C1296.16,-302.68 940.8,-277.49 766.05,-265.09"/>
<polygon fill="#63b8ff" stroke="#63b8ff" points="766.05,-261.59 755.83,-264.37 765.56,-268.57 766.05,-261.59"/>
</a>
</g>
</g>
<!-- Node9&#45;&gt;Node3 -->
<g id="edge14_Node000009_Node000003" class="edge">
<title>Node9&#45;&gt;Node3</title>
<g id="a_edge14_Node000009_Node000003"><a xlink:title=" ">
<path fill="none" stroke="#63b8ff" d="M1418.75,-248.41C1491.7,-236.04 1633.98,-211.92 1692.7,-201.96"/>
<polygon fill="#63b8ff" stroke="#63b8ff" points="1693.38,-205.39 1702.65,-200.27 1692.21,-198.49 1693.38,-205.39"/>
</a>
</g>
</g>
<!-- Node9&#45;&gt;Node4 -->
<g id="edge15_Node000009_Node000004" class="edge">
<title>Node9&#45;&gt;Node4</title>
<g id="a_edge15_Node000009_Node000004"><a xlink:title=" ">
<path fill="none" stroke="#63b8ff" d="M1376.68,-247.44C1380.4,-234.33 1386.23,-208.54 1382,-187 1368.44,-118.06 1354.44,-92.47 1295,-55 1258.91,-32.24 1210.55,-20.59 1179.09,-15.02"/>
<polygon fill="#63b8ff" stroke="#63b8ff" points="1179.55,-11.55 1169.11,-13.36 1178.4,-18.46 1179.55,-11.55"/>
</a>
</g>
</g>
<!-- Node9&#45;&gt;Node7 -->
<g id="edge16_Node000009_Node000007" class="edge">
<title>Node9&#45;&gt;Node7</title>
<g id="a_edge16_Node000009_Node000007"><a xlink:title=" ">
<path fill="none" stroke="#63b8ff" d="M1374.11,-247.33C1373.92,-223.02 1369.75,-153.78 1330,-121 1299.63,-95.95 1186.29,-80.66 1128.84,-74.35"/>
<polygon fill="#63b8ff" stroke="#63b8ff" points="1129.11,-70.86 1118.8,-73.28 1128.37,-77.82 1129.11,-70.86"/>
</a>
</g>
</g>
<!-- Node10 -->
<g id="Node000010" class="node">
<title>Node10</title>
<g id="a_Node000010"><a xlink:href="TopologyGraph_8h.html" target="_top" xlink:title="Graphe planaire non&#45;orienté de nœuds et d&#39;arêtes ferroviaires accrochés.">
<polygon fill="white" stroke="#666666" points="1348.5,-206 1211.5,-206 1211.5,-187 1348.5,-187 1348.5,-206"/>
<text text-anchor="middle" x="1280" y="-194" font-family="Helvetica,sans-Serif" font-size="10.00">./Graph/TopologyGraph.h</text>
</a>
</g>
</g>
<!-- Node9&#45;&gt;Node10 -->
<g id="edge17_Node000009_Node000010" class="edge">
<title>Node9&#45;&gt;Node10</title>
<g id="a_edge17_Node000009_Node000010"><a xlink:title=" ">
<path fill="none" stroke="#63b8ff" d="M1360.13,-247.37C1345,-237.95 1320.54,-222.73 1302.62,-211.58"/>
<polygon fill="#63b8ff" stroke="#63b8ff" points="1304.27,-208.48 1293.93,-206.17 1300.57,-214.42 1304.27,-208.48"/>
</a>
</g>
</g>
<!-- Node17 -->
<g id="Node000017" class="node">
<title>Node17</title>
<g id="a_Node000017"><a xlink:href="CoordinateXY_8h.html" target="_top" xlink:title="Représentation d&#39;une coordonnée plane en mètres (système métrique UTM).">
<polygon fill="white" stroke="#666666" points="1053.5,-85 934.5,-85 934.5,-55 1053.5,-55 1053.5,-85"/>
<text text-anchor="start" x="942.5" y="-73" font-family="Helvetica,sans-Serif" font-size="10.00">Modules/Coordinates</text>
<text text-anchor="middle" x="994" y="-62" font-family="Helvetica,sans-Serif" font-size="10.00">/CoordinateXY.h</text>
</a>
</g>
</g>
<!-- Node9&#45;&gt;Node17 -->
<g id="edge35_Node000009_Node000017" class="edge">
<title>Node9&#45;&gt;Node17</title>
<g id="a_edge35_Node000009_Node000017"><a xlink:title=" ">
<path fill="none" stroke="#63b8ff" d="M1329.33,-255.94C1254.17,-253.34 1102.33,-236.98 1017,-151 1002.42,-136.3 996.95,-113 994.97,-95.33"/>
<polygon fill="#63b8ff" stroke="#63b8ff" points="998.44,-94.86 994.13,-85.18 991.46,-95.43 998.44,-94.86"/>
</a>
</g>
</g>
<!-- Node9&#45;&gt;Node18 -->
<g id="edge33_Node000009_Node000018" class="edge">
<title>Node9&#45;&gt;Node18</title>
<g id="a_edge33_Node000009_Node000018"><a xlink:title=" ">
<path fill="none" stroke="#63b8ff" d="M1329.18,-253.23C1239.78,-247.24 1042.48,-231.5 980,-206 950.03,-193.77 921.27,-169.07 904.37,-152.78"/>
<polygon fill="#63b8ff" stroke="#63b8ff" points="906.64,-150.11 897.07,-145.56 901.71,-155.08 906.64,-150.11"/>
</a>
</g>
</g>
<!-- Node19 -->
<g id="Node000019" class="node">
<title>Node19</title>
<g id="a_Node000019"><a xlink:href="LatLon_8h.html" target="_top" xlink:title="Représentation d&#39;une coordonnée géographique WGS&#45;84 (latitude, longitude).">
<polygon fill="white" stroke="#666666" points="391.5,-151 272.5,-151 272.5,-121 391.5,-121 391.5,-151"/>
<text text-anchor="start" x="280.5" y="-139" font-family="Helvetica,sans-Serif" font-size="10.00">Modules/Coordinates</text>
<text text-anchor="middle" x="332" y="-128" font-family="Helvetica,sans-Serif" font-size="10.00">/LatLon.h</text>
</a>
</g>
</g>
<!-- Node9&#45;&gt;Node19 -->
<g id="edge34_Node000009_Node000019" class="edge">
<title>Node9&#45;&gt;Node19</title>
<g id="a_edge34_Node000009_Node000019"><a xlink:title=" ">
<path fill="none" stroke="#63b8ff" d="M1329.14,-252.7C1191.67,-242.26 764.05,-207.38 401.54,-151.16"/>
<polygon fill="#63b8ff" stroke="#63b8ff" points="402.07,-147.7 391.65,-149.62 400.99,-154.61 402.07,-147.7"/>
</a>
</g>
</g>
<!-- Node9&#45;&gt;Node20 -->
<g id="edge36_Node000009_Node000020" class="edge">
<title>Node9&#45;&gt;Node20</title>
<g id="a_edge36_Node000009_Node000020"><a xlink:title=" ">
<path fill="none" stroke="#63b8ff" d="M1415.13,-247.42C1441.65,-240.14 1475.46,-227.36 1499,-206 1530.5,-177.42 1509.43,-147.13 1543,-121 1585.27,-88.1 1645.53,-76.25 1691.34,-72.25"/>
<polygon fill="#63b8ff" stroke="#63b8ff" points="1691.77,-75.73 1701.48,-71.48 1691.24,-68.75 1691.77,-75.73"/>
</a>
</g>
</g>
<!-- Node10&#45;&gt;Node4 -->
<g id="edge21_Node000010_Node000004" class="edge">
<title>Node10&#45;&gt;Node4</title>
<g id="a_edge21_Node000010_Node000004"><a xlink:title=" ">
<path fill="none" stroke="#63b8ff" d="M1295.43,-186.8C1307.35,-179.11 1322.96,-166.69 1330,-151 1335.46,-138.84 1336.55,-132.61 1330,-121 1297.58,-63.55 1221.95,-32.61 1178.75,-19.06"/>
<polygon fill="#63b8ff" stroke="#63b8ff" points="1179.61,-15.66 1169.03,-16.13 1177.59,-22.36 1179.61,-15.66"/>
</a>
</g>
</g>
<!-- Node10&#45;&gt;Node5 -->
<g id="edge22_Node000010_Node000005" class="edge">
<title>Node10&#45;&gt;Node5</title>
<g id="a_edge22_Node000010_Node000005"><a xlink:title=" ">
<path fill="none" stroke="#63b8ff" d="M1326.24,-186.99C1383.35,-176.49 1480.45,-158.62 1541.8,-147.34"/>
<polygon fill="#63b8ff" stroke="#63b8ff" points="1542.5,-150.77 1551.7,-145.52 1541.24,-143.88 1542.5,-150.77"/>
</a>
</g>
</g>
<!-- Node10&#45;&gt;Node6 -->
<g id="edge23_Node000010_Node000006" class="edge">
<title>Node10&#45;&gt;Node6</title>
<g id="a_edge23_Node000010_Node000006"><a xlink:title=" ">
<path fill="none" stroke="#63b8ff" d="M1348.81,-188.96C1424.02,-181.42 1547.94,-167.89 1654,-151 1666.31,-149.04 1679.74,-146.46 1691.53,-144.05"/>
<polygon fill="#63b8ff" stroke="#63b8ff" points="1692.31,-147.46 1701.38,-141.99 1690.88,-140.61 1692.31,-147.46"/>
</a>
</g>
</g>
<!-- Node10&#45;&gt;Node7 -->
<g id="edge24_Node000010_Node000007" class="edge">
<title>Node10&#45;&gt;Node7</title>
<g id="a_edge24_Node000010_Node000007"><a xlink:title=" ">
<path fill="none" stroke="#63b8ff" d="M1289.45,-186.95C1304.52,-172.28 1330.66,-141.9 1314,-121 1291.21,-92.43 1184.41,-78.89 1128.82,-73.69"/>
<polygon fill="#63b8ff" stroke="#63b8ff" points="1129.02,-70.19 1118.75,-72.79 1128.4,-77.17 1129.02,-70.19"/>
</a>
</g>
</g>
<!-- Node11 -->
<g id="Node000011" class="node">
<title>Node11</title>
<g id="a_Node000011"><a xlink:title=" ">
<polygon fill="#e0e0e0" stroke="#999999" points="1305,-145.5 1255,-145.5 1255,-126.5 1305,-126.5 1305,-145.5"/>
<text text-anchor="middle" x="1280" y="-133.5" font-family="Helvetica,sans-Serif" font-size="10.00">cstdint</text>
</a>
</g>
</g>
<!-- Node10&#45;&gt;Node11 -->
<g id="edge18_Node000010_Node000011" class="edge">
<title>Node10&#45;&gt;Node11</title>
<g id="a_edge18_Node000010_Node000011"><a xlink:title=" ">
<path fill="none" stroke="#63b8ff" d="M1280,-186.87C1280,-178.75 1280,-166.31 1280,-155.89"/>
<polygon fill="#63b8ff" stroke="#63b8ff" points="1283.5,-155.67 1280,-145.67 1276.5,-155.67 1283.5,-155.67"/>
</a>
</g>
</g>
<!-- Node12 -->
<g id="Node000012" class="node">
<title>Node12</title>
<g id="a_Node000012"><a xlink:title=" ">
<polygon fill="#e0e0e0" stroke="#999999" points="1236.5,-145.5 1171.5,-145.5 1171.5,-126.5 1236.5,-126.5 1236.5,-145.5"/>
<text text-anchor="middle" x="1204" y="-133.5" font-family="Helvetica,sans-Serif" font-size="10.00">functional</text>
</a>
</g>
</g>
<!-- Node10&#45;&gt;Node12 -->
<g id="edge19_Node000010_Node000012" class="edge">
<title>Node10&#45;&gt;Node12</title>
<g id="a_edge19_Node000010_Node000012"><a xlink:title=" ">
<path fill="none" stroke="#63b8ff" d="M1268.79,-186.87C1256.89,-177.71 1237.86,-163.06 1223.49,-152.01"/>
<polygon fill="#63b8ff" stroke="#63b8ff" points="1225.32,-148.99 1215.26,-145.67 1221.05,-154.54 1225.32,-148.99"/>
</a>
</g>
</g>
<!-- Node13 -->
<g id="Node000013" class="node">
<title>Node13</title>
<g id="a_Node000013"><a xlink:title=" ">
<polygon fill="#e0e0e0" stroke="#999999" points="680,-145.5 624,-145.5 624,-126.5 680,-126.5 680,-145.5"/>
<text text-anchor="middle" x="652" y="-133.5" font-family="Helvetica,sans-Serif" font-size="10.00">optional</text>
</a>
</g>
</g>
<!-- Node10&#45;&gt;Node13 -->
<g id="edge20_Node000010_Node000013" class="edge">
<title>Node10&#45;&gt;Node13</title>
<g id="a_edge20_Node000010_Node000013"><a xlink:title=" ">
<path fill="none" stroke="#63b8ff" d="M1211.3,-189.1C1079.14,-176.79 793.47,-150.18 690.22,-140.56"/>
<polygon fill="#63b8ff" stroke="#63b8ff" points="690.52,-137.07 680.24,-139.63 689.87,-144.04 690.52,-137.07"/>
</a>
</g>
</g>
<!-- Node14 -->
<g id="Node000014" class="node">
<title>Node14</title>
<g id="a_Node000014"><a xlink:href="TopologyEdge_8h.html" target="_top" xlink:title="Arête non&#45;orientée du graphe planaire de topologie ferroviaire.">
<polygon fill="white" stroke="#666666" points="1153.5,-145.5 1060.5,-145.5 1060.5,-126.5 1153.5,-126.5 1153.5,-145.5"/>
<text text-anchor="middle" x="1107" y="-133.5" font-family="Helvetica,sans-Serif" font-size="10.00">TopologyEdge.h</text>
</a>
</g>
</g>
<!-- Node10&#45;&gt;Node14 -->
<g id="edge25_Node000010_Node000014" class="edge">
<title>Node10&#45;&gt;Node14</title>
<g id="a_edge25_Node000010_Node000014"><a xlink:title=" ">
<path fill="none" stroke="#63b8ff" d="M1254.84,-186.99C1225.12,-176.94 1175.48,-160.16 1142.01,-148.84"/>
<polygon fill="#63b8ff" stroke="#63b8ff" points="1142.78,-145.4 1132.19,-145.52 1140.54,-152.04 1142.78,-145.4"/>
</a>
</g>
</g>
<!-- Node10&#45;&gt;Node17 -->
<g id="edge31_Node000010_Node000017" class="edge">
<title>Node10&#45;&gt;Node17</title>
<g id="a_edge31_Node000010_Node000017"><a xlink:title=" ">
<path fill="none" stroke="#63b8ff" d="M1211.3,-195.08C1163.32,-191.84 1099.59,-181.38 1052,-151 1030.55,-137.31 1014.48,-112.62 1004.76,-94.28"/>
<polygon fill="#63b8ff" stroke="#63b8ff" points="1007.77,-92.46 1000.15,-85.11 1001.52,-95.61 1007.77,-92.46"/>
</a>
</g>
</g>
<!-- Node10&#45;&gt;Node18 -->
<g id="edge32_Node000010_Node000018" class="edge">
<title>Node10&#45;&gt;Node18</title>
<g id="a_edge32_Node000010_Node000018"><a xlink:title=" ">
<path fill="none" stroke="#63b8ff" d="M1223.15,-186.99C1152.34,-176.4 1031.56,-158.33 956.24,-147.06"/>
<polygon fill="#63b8ff" stroke="#63b8ff" points="956.33,-143.53 945.92,-145.52 955.3,-150.46 956.33,-143.53"/>
</a>
</g>
</g>
<!-- Node14&#45;&gt;Node4 -->
<g id="edge28_Node000014_Node000004" class="edge">
<title>Node14&#45;&gt;Node4</title>
<g id="a_edge28_Node000014_Node000004"><a xlink:title=" ">
<path fill="none" stroke="#63b8ff" d="M1111.12,-126.3C1115.68,-116.44 1123.03,-99.82 1128,-85 1134.22,-66.44 1139.55,-44.71 1142.97,-29.52"/>
<polygon fill="#63b8ff" stroke="#63b8ff" points="1146.48,-29.86 1145.19,-19.34 1139.64,-28.36 1146.48,-29.86"/>
</a>
</g>
</g>
<!-- Node14&#45;&gt;Node7 -->
<g id="edge29_Node000014_Node000007" class="edge">
<title>Node14&#45;&gt;Node7</title>
<g id="a_edge29_Node000014_Node000007"><a xlink:title=" ">
<path fill="none" stroke="#63b8ff" d="M1105.38,-126.37C1103.64,-117.07 1100.81,-101.98 1098.54,-89.9"/>
<polygon fill="#63b8ff" stroke="#63b8ff" points="1101.95,-89.09 1096.67,-79.91 1095.07,-90.38 1101.95,-89.09"/>
</a>
</g>
</g>
<!-- Node14&#45;&gt;Node15 -->
<g id="edge26_Node000014_Node000015" class="edge">
<title>Node14&#45;&gt;Node15</title>
<g id="a_edge26_Node000014_Node000015"><a xlink:title=" ">
<path fill="none" stroke="#63b8ff" d="M1060.32,-129.51C1035.08,-126.68 1003.36,-123.34 975,-121 660.02,-94.99 277.91,-77.39 163.75,-72.43"/>
<polygon fill="#63b8ff" stroke="#63b8ff" points="163.69,-68.93 153.55,-71.99 163.39,-75.92 163.69,-68.93"/>
</a>
</g>
</g>
<!-- Node16 -->
<g id="Node000016" class="node">
<title>Node16</title>
<g id="a_Node000016"><a xlink:title=" ">
<polygon fill="#e0e0e0" stroke="#999999" points="1551,-19 1495,-19 1495,0 1551,0 1551,-19"/>
<text text-anchor="middle" x="1523" y="-7" font-family="Helvetica,sans-Serif" font-size="10.00">sstream</text>
</a>
</g>
</g>
<!-- Node14&#45;&gt;Node16 -->
<g id="edge27_Node000014_Node000016" class="edge">
<title>Node14&#45;&gt;Node16</title>
<g id="a_edge27_Node000014_Node000016"><a xlink:title=" ">
<path fill="none" stroke="#63b8ff" d="M1135.59,-126.44C1208.72,-104.56 1402.6,-46.53 1485.04,-21.86"/>
<polygon fill="#63b8ff" stroke="#63b8ff" points="1486.18,-25.17 1494.76,-18.95 1484.17,-18.47 1486.18,-25.17"/>
</a>
</g>
</g>
<!-- Node14&#45;&gt;Node17 -->
<g id="edge30_Node000014_Node000017" class="edge">
<title>Node14&#45;&gt;Node17</title>
<g id="a_edge30_Node000014_Node000017"><a xlink:title=" ">
<path fill="none" stroke="#63b8ff" d="M1091.76,-126.37C1075.42,-117.11 1048.95,-102.12 1027.68,-90.07"/>
<polygon fill="#63b8ff" stroke="#63b8ff" points="1029.35,-87 1018.92,-85.12 1025.9,-93.09 1029.35,-87"/>
</a>
</g>
</g>
<!-- Node20&#45;&gt;Node4 -->
<g id="edge42_Node000020_Node000004" class="edge">
<title>Node20&#45;&gt;Node4</title>
<g id="a_edge42_Node000020_Node000004"><a xlink:title=" ">
<path fill="none" stroke="#63b8ff" d="M1701.31,-57.26C1696.48,-56.43 1691.66,-55.66 1687,-55 1495.58,-28.06 1263.53,-15.7 1179.41,-11.87"/>
<polygon fill="#63b8ff" stroke="#63b8ff" points="1179.37,-8.36 1169.22,-11.41 1179.05,-15.35 1179.37,-8.36"/>
</a>
</g>
</g>
<!-- Node20&#45;&gt;Node16 -->
<g id="edge41_Node000020_Node000016" class="edge">
<title>Node20&#45;&gt;Node16</title>
<g id="a_edge41_Node000020_Node000016"><a xlink:title=" ">
<path fill="none" stroke="#63b8ff" d="M1701.25,-55.06C1658,-44.25 1599.21,-29.55 1561.18,-20.04"/>
<polygon fill="#63b8ff" stroke="#63b8ff" points="1561.58,-16.54 1551.03,-17.51 1559.88,-23.33 1561.58,-16.54"/>
</a>
</g>
</g>
<!-- Node21 -->
<g id="Node000021" class="node">
<title>Node21</title>
<g id="a_Node000021"><a xlink:title=" ">
<polygon fill="#e0e0e0" stroke="#999999" points="1811,-19 1767,-19 1767,0 1811,0 1811,-19"/>
<text text-anchor="middle" x="1789" y="-7" font-family="Helvetica,sans-Serif" font-size="10.00">ctime</text>
</a>
</g>
</g>
<!-- Node20&#45;&gt;Node21 -->
<g id="edge37_Node000020_Node000021" class="edge">
<title>Node20&#45;&gt;Node21</title>
<g id="a_edge37_Node000020_Node000021"><a xlink:title=" ">
<path fill="none" stroke="#63b8ff" d="M1764.75,-54.84C1769.15,-46.78 1774.71,-36.62 1779.4,-28.06"/>
<polygon fill="#63b8ff" stroke="#63b8ff" points="1782.48,-29.72 1784.2,-19.27 1776.34,-26.36 1782.48,-29.72"/>
</a>
</g>
</g>
<!-- Node22 -->
<g id="Node000022" class="node">
<title>Node22</title>
<g id="a_Node000022"><a xlink:title=" ">
<polygon fill="#e0e0e0" stroke="#999999" points="1897,-19 1829,-19 1829,0 1897,0 1897,-19"/>
<text text-anchor="middle" x="1863" y="-7" font-family="Helvetica,sans-Serif" font-size="10.00">filesystem</text>
</a>
</g>
</g>
<!-- Node20&#45;&gt;Node22 -->
<g id="edge38_Node000020_Node000022" class="edge">
<title>Node20&#45;&gt;Node22</title>
<g id="a_edge38_Node000020_Node000022"><a xlink:title=" ">
<path fill="none" stroke="#63b8ff" d="M1782.39,-54.99C1799.29,-45.66 1821.38,-33.47 1838.16,-24.21"/>
<polygon fill="#63b8ff" stroke="#63b8ff" points="1840.28,-27.04 1847.35,-19.14 1836.9,-20.91 1840.28,-27.04"/>
</a>
</g>
</g>
<!-- Node23 -->
<g id="Node000023" class="node">
<title>Node23</title>
<g id="a_Node000023"><a xlink:title=" ">
<polygon fill="#e0e0e0" stroke="#999999" points="1682.5,-19 1627.5,-19 1627.5,0 1682.5,0 1682.5,-19"/>
<text text-anchor="middle" x="1655" y="-7" font-family="Helvetica,sans-Serif" font-size="10.00">fstream</text>
</a>
</g>
</g>
<!-- Node20&#45;&gt;Node23 -->
<g id="edge39_Node000020_Node000023" class="edge">
<title>Node20&#45;&gt;Node23</title>
<g id="a_edge39_Node000020_Node000023"><a xlink:title=" ">
<path fill="none" stroke="#63b8ff" d="M1732.57,-54.99C1716.31,-45.66 1695.05,-33.47 1678.9,-24.21"/>
<polygon fill="#63b8ff" stroke="#63b8ff" points="1680.48,-21.08 1670.06,-19.14 1677,-27.15 1680.48,-21.08"/>
</a>
</g>
</g>
<!-- Node24 -->
<g id="Node000024" class="node">
<title>Node24</title>
<g id="a_Node000024"><a xlink:title=" ">
<polygon fill="#e0e0e0" stroke="#999999" points="1749,-19 1701,-19 1701,0 1749,0 1749,-19"/>
<text text-anchor="middle" x="1725" y="-7" font-family="Helvetica,sans-Serif" font-size="10.00">mutex</text>
</a>
</g>
</g>
<!-- Node20&#45;&gt;Node24 -->
<g id="edge40_Node000020_Node000024" class="edge">
<title>Node20&#45;&gt;Node24</title>
<g id="a_edge40_Node000020_Node000024"><a xlink:title=" ">
<path fill="none" stroke="#63b8ff" d="M1749.25,-54.84C1744.85,-46.78 1739.29,-36.62 1734.6,-28.06"/>
<polygon fill="#63b8ff" stroke="#63b8ff" points="1737.66,-26.36 1729.8,-19.27 1731.52,-29.72 1737.66,-26.36"/>
</a>
</g>
</g>
<!-- Node25&#45;&gt;Node4 -->
<g id="edge44_Node000025_Node000004" class="edge">
<title>Node25&#45;&gt;Node4</title>
<g id="a_edge44_Node000025_Node000004"><a xlink:title=" ">
<path fill="none" stroke="#63b8ff" d="M321.41,-254.39C237.83,-250.74 123.7,-239.55 95,-206 81.83,-190.6 6.86,-147.62 97,-55 133.36,-17.64 942.03,-11.52 1114.73,-10.64"/>
<polygon fill="#63b8ff" stroke="#63b8ff" points="1114.97,-14.14 1124.95,-10.59 1114.94,-7.14 1114.97,-14.14"/>
</a>
</g>
</g>
<!-- Node25&#45;&gt;Node7 -->
<g id="edge45_Node000025_Node000007" class="edge">
<title>Node25&#45;&gt;Node7</title>
<g id="a_edge45_Node000025_Node000007"><a xlink:title=" ">
<path fill="none" stroke="#63b8ff" d="M376.17,-241.84C317.99,-218.12 217.8,-168.28 263,-121 324.49,-56.68 976.34,-105.17 1063,-85 1064.95,-84.55 1066.93,-83.98 1068.89,-83.33"/>
<polygon fill="#63b8ff" stroke="#63b8ff" points="1070.41,-86.5 1078.46,-79.61 1067.87,-79.97 1070.41,-86.5"/>
</a>
</g>
</g>
<!-- Node25&#45;&gt;Node19 -->
<g id="edge50_Node000025_Node000019" class="edge">
<title>Node25&#45;&gt;Node19</title>
<g id="a_edge50_Node000025_Node000019"><a xlink:title=" ">
<path fill="none" stroke="#63b8ff" d="M404.27,-241.88C390.22,-221.48 364.09,-183.57 347.4,-159.35"/>
<polygon fill="#63b8ff" stroke="#63b8ff" points="350.27,-157.35 341.72,-151.1 344.51,-161.32 350.27,-157.35"/>
</a>
</g>
</g>
<!-- Node26 -->
<g id="Node000026" class="node">
<title>Node26</title>
<g id="a_Node000026"><a xlink:href="ShuntingElement_8h.html" target="_top" xlink:title="Interface abstraite pour tous les éléments de shuntage ferroviaire.">
<polygon fill="white" stroke="#666666" points="527.5,-206 418.5,-206 418.5,-187 527.5,-187 527.5,-206"/>
<text text-anchor="middle" x="473" y="-194" font-family="Helvetica,sans-Serif" font-size="10.00">ShuntingElement.h</text>
</a>
</g>
</g>
<!-- Node25&#45;&gt;Node26 -->
<g id="edge46_Node000025_Node000026" class="edge">
<title>Node25&#45;&gt;Node26</title>
<g id="a_edge46_Node000025_Node000026"><a xlink:title=" ">
<path fill="none" stroke="#63b8ff" d="M428.28,-241.84C436.93,-233.26 447.99,-222.3 456.94,-213.42"/>
<polygon fill="#63b8ff" stroke="#63b8ff" points="459.52,-215.79 464.16,-206.27 454.59,-210.82 459.52,-215.79"/>
</a>
</g>
</g>
<!-- Node27 -->
<g id="Node000027" class="node">
<title>Node27</title>
<g id="a_Node000027"><a xlink:href="InteractiveElement_8h.html" target="_top" xlink:title="Classe de base abstraite pour tous les éléments interactifs ferroviaires.">
<polygon fill="white" stroke="#666666" points="568.5,-151 409.5,-151 409.5,-121 568.5,-121 568.5,-151"/>
<text text-anchor="start" x="417.5" y="-139" font-family="Helvetica,sans-Serif" font-size="10.00">Modules/InteractiveElements</text>
<text text-anchor="middle" x="489" y="-128" font-family="Helvetica,sans-Serif" font-size="10.00">/InteractiveElement.h</text>
</a>
</g>
</g>
<!-- Node26&#45;&gt;Node27 -->
<g id="edge47_Node000026_Node000027" class="edge">
<title>Node26&#45;&gt;Node27</title>
<g id="a_edge47_Node000026_Node000027"><a xlink:title=" ">
<path fill="none" stroke="#63b8ff" d="M475.36,-186.87C477.23,-180.03 479.94,-170.14 482.44,-160.97"/>
<polygon fill="#63b8ff" stroke="#63b8ff" points="485.88,-161.68 485.14,-151.11 479.13,-159.84 485.88,-161.68"/>
</a>
</g>
</g>
<!-- Node27&#45;&gt;Node4 -->
<g id="edge48_Node000027_Node000004" class="edge">
<title>Node27&#45;&gt;Node4</title>
<g id="a_edge48_Node000027_Node000004"><a xlink:title=" ">
<path fill="none" stroke="#63b8ff" d="M500.16,-120.99C516.06,-102.19 547.2,-69.49 582,-55 679.27,-14.5 1009.23,-10.62 1114.47,-10.43"/>
<polygon fill="#63b8ff" stroke="#63b8ff" points="1114.78,-13.93 1124.77,-10.42 1114.77,-6.93 1114.78,-13.93"/>
</a>
</g>
</g>
<!-- Node27&#45;&gt;Node20 -->
<g id="edge49_Node000027_Node000020" class="edge">
<title>Node27&#45;&gt;Node20</title>
<g id="a_edge49_Node000027_Node000020"><a xlink:title=" ">
<path fill="none" stroke="#63b8ff" d="M568.57,-125.34C583.96,-123.71 599.97,-122.16 615,-121 1023.61,-89.39 1516.13,-76.24 1691.28,-72.34"/>
<polygon fill="#63b8ff" stroke="#63b8ff" points="1691.44,-75.84 1701.36,-72.12 1691.29,-68.84 1691.44,-75.84"/>
</a>
</g>
</g>
<!-- Node28&#45;&gt;Node4 -->
<g id="edge54_Node000028_Node000004" class="edge">
<title>Node28&#45;&gt;Node4</title>
<g id="a_edge54_Node000028_Node000004"><a xlink:title=" ">
<path fill="none" stroke="#63b8ff" d="M670.08,-242C678.71,-214.82 701.32,-154.64 741,-121 853.06,-26 1039.61,-12.07 1114.46,-10.46"/>
<polygon fill="#63b8ff" stroke="#63b8ff" points="1114.73,-13.96 1124.67,-10.3 1114.62,-6.96 1114.73,-13.96"/>
</a>
</g>
</g>
<!-- Node28&#45;&gt;Node7 -->
<g id="edge55_Node000028_Node000007" class="edge">
<title>Node28&#45;&gt;Node7</title>
<g id="a_edge55_Node000028_Node000007"><a xlink:title=" ">
<path fill="none" stroke="#63b8ff" d="M684.83,-241.81C696.44,-232.47 711.13,-219.5 722,-206 749.21,-172.21 733.94,-145.12 770,-121 879.06,-48.06 936.46,-119.66 1063,-85 1064.69,-84.54 1066.4,-84 1068.12,-83.41"/>
<polygon fill="#63b8ff" stroke="#63b8ff" points="1069.7,-86.55 1077.73,-79.64 1067.14,-80.04 1069.7,-86.55"/>
</a>
</g>
</g>
<!-- Node28&#45;&gt;Node13 -->
<g id="edge52_Node000028_Node000013" class="edge">
<title>Node28&#45;&gt;Node13</title>
<g id="a_edge52_Node000028_Node000013"><a xlink:title=" ">
<path fill="none" stroke="#63b8ff" d="M664.34,-241.88C661.82,-220.51 657.05,-179.89 654.23,-155.96"/>
<polygon fill="#63b8ff" stroke="#63b8ff" points="657.67,-155.23 653.02,-145.71 650.72,-156.05 657.67,-155.23"/>
</a>
</g>
</g>
<!-- Node28&#45;&gt;Node16 -->
<g id="edge53_Node000028_Node000016" class="edge">
<title>Node28&#45;&gt;Node16</title>
<g id="a_edge53_Node000028_Node000016"><a xlink:title=" ">
<path fill="none" stroke="#63b8ff" d="M652.35,-241.91C628.55,-215.63 584.72,-158.38 615,-121 670.75,-52.18 1318.95,-19.39 1484.63,-12.1"/>
<polygon fill="#63b8ff" stroke="#63b8ff" points="1485,-15.58 1494.83,-11.65 1484.69,-8.59 1485,-15.58"/>
</a>
</g>
</g>
<!-- Node28&#45;&gt;Node19 -->
<g id="edge56_Node000028_Node000019" class="edge">
<title>Node28&#45;&gt;Node19</title>
<g id="a_edge56_Node000028_Node000019"><a xlink:title=" ">
<path fill="none" stroke="#63b8ff" d="M643.33,-241.73C618.01,-226.34 575.4,-202.02 536,-187 511.61,-177.7 450.72,-163.17 401.77,-152.17"/>
<polygon fill="#63b8ff" stroke="#63b8ff" points="402.36,-148.71 391.84,-149.94 400.83,-155.54 402.36,-148.71"/>
</a>
</g>
</g>
<!-- Node28&#45;&gt;Node26 -->
<g id="edge57_Node000028_Node000026" class="edge">
<title>Node28&#45;&gt;Node26</title>
<g id="a_edge57_Node000028_Node000026"><a xlink:title=" ">
<path fill="none" stroke="#63b8ff" d="M619.77,-241.99C586.46,-231.89 542.07,-218.44 510.86,-208.98"/>
<polygon fill="#63b8ff" stroke="#63b8ff" points="511.8,-205.6 501.22,-206.05 509.77,-212.3 511.8,-205.6"/>
</a>
</g>
</g>
<!-- Node30&#45;&gt;Node7 -->
<g id="edge71_Node000030_Node000007" class="edge">
<title>Node30&#45;&gt;Node7</title>
<g id="a_edge71_Node000030_Node000007"><a xlink:title=" ">
<path fill="none" stroke="#63b8ff" d="M172.26,-186.55C180.65,-170.08 201.05,-135.34 230,-121 313.01,-79.88 972.75,-105.92 1063,-85 1064.95,-84.55 1066.93,-83.98 1068.9,-83.33"/>
<polygon fill="#63b8ff" stroke="#63b8ff" points="1070.41,-86.5 1078.46,-79.62 1067.87,-79.98 1070.41,-86.5"/>
</a>
</g>
</g>
<!-- Node30&#45;&gt;Node13 -->
<g id="edge70_Node000030_Node000013" class="edge">
<title>Node30&#45;&gt;Node13</title>
<g id="a_edge70_Node000030_Node000013"><a xlink:title=" ">
<path fill="none" stroke="#63b8ff" d="M232.3,-190.03C313.03,-182.81 455.64,-168.9 577,-151 589.06,-149.22 602.14,-146.91 613.95,-144.68"/>
<polygon fill="#63b8ff" stroke="#63b8ff" points="614.79,-148.09 623.95,-142.76 613.47,-141.21 614.79,-148.09"/>
</a>
</g>
</g>
<!-- Node30&#45;&gt;Node15 -->
<g id="edge69_Node000030_Node000015" class="edge">
<title>Node30&#45;&gt;Node15</title>
<g id="a_edge69_Node000030_Node000015"><a xlink:title=" ">
<path fill="none" stroke="#63b8ff" d="M165.28,-186.98C162.44,-178.03 157.85,-163.54 154,-151 147.56,-130.05 140.36,-105.96 135.54,-89.73"/>
<polygon fill="#63b8ff" stroke="#63b8ff" points="138.82,-88.48 132.62,-79.89 132.11,-90.47 138.82,-88.48"/>
</a>
</g>
</g>
<!-- Node30&#45;&gt;Node17 -->
<g id="edge73_Node000030_Node000017" class="edge">
<title>Node30&#45;&gt;Node17</title>
<g id="a_edge73_Node000030_Node000017"><a xlink:title=" ">
<path fill="none" stroke="#63b8ff" d="M167.89,-186.86C168.2,-170.91 171.4,-137.01 192,-121 249.09,-76.63 739.75,-71.33 924.25,-70.92"/>
<polygon fill="#63b8ff" stroke="#63b8ff" points="924.39,-74.42 934.38,-70.9 924.37,-67.42 924.39,-74.42"/>
</a>
</g>
</g>
<!-- Node30&#45;&gt;Node18 -->
<g id="edge74_Node000030_Node000018" class="edge">
<title>Node30&#45;&gt;Node18</title>
<g id="a_edge74_Node000030_Node000018"><a xlink:title=" ">
<path fill="none" stroke="#63b8ff" d="M232.3,-190.28C362.07,-179.75 655.37,-155.96 802.05,-144.05"/>
<polygon fill="#63b8ff" stroke="#63b8ff" points="802.67,-147.52 812.36,-143.22 802.11,-140.54 802.67,-147.52"/>
</a>
</g>
</g>
<!-- Node30&#45;&gt;Node19 -->
<g id="edge72_Node000030_Node000019" class="edge">
<title>Node30&#45;&gt;Node19</title>
<g id="a_edge72_Node000030_Node000019"><a xlink:title=" ">
<path fill="none" stroke="#63b8ff" d="M191.85,-186.99C215.66,-178.5 252.94,-165.2 283.07,-154.45"/>
<polygon fill="#63b8ff" stroke="#63b8ff" points="284.33,-157.72 292.57,-151.06 281.98,-151.13 284.33,-157.72"/>
</a>
</g>
</g>
</g>
</svg>
