<?xml version="1.0" encoding="UTF-8" standalone="no"?>
<!DOCTYPE svg PUBLIC "-//W3C//DTD SVG 1.1//EN"
 "http://www.w3.org/Graphics/SVG/1.1/DTD/svg11.dtd">
<!-- Generated by graphviz version 2.43.0 (0)
 -->
<!-- Title: SimulateurFerroviaire/Modules/InteractiveElements/ShuntingElements/SwitchBlock.cpp Pages: 1 -->
<svg width="527pt" height="170pt"
 viewBox="0.00 0.00 526.50 170.00" xmlns="http://www.w3.org/2000/svg" xmlns:xlink="http://www.w3.org/1999/xlink">
<g id="graph0" class="graph" transform="scale(1 1) rotate(0) translate(4 166)">
<title>SimulateurFerroviaire/Modules/InteractiveElements/ShuntingElements/SwitchBlock.cpp</title>
<!-- Node1 -->
<g id="Node000001" class="node">
<title>Node1</title>
<g id="a_Node000001"><a xlink:title="Implémentation du modèle d&#39;aiguillage SwitchBlock.">
<polygon fill="#999999" stroke="#666666" points="432.5,-162 241.5,-162 241.5,-121 432.5,-121 432.5,-162"/>
<text text-anchor="start" x="249.5" y="-150" font-family="Helvetica,sans-Serif" font-size="10.00">SimulateurFerroviaire</text>
<text text-anchor="start" x="249.5" y="-139" font-family="Helvetica,sans-Serif" font-size="10.00">/Modules/InteractiveElements</text>
<text text-anchor="middle" x="337" y="-128" font-family="Helvetica,sans-Serif" font-size="10.00">/ShuntingElements/SwitchBlock.cpp</text>
</a>
</g>
</g>
<!-- Node2 -->
<g id="Node000002" class="node">
<title>Node2</title>
<g id="a_Node000002"><a xlink:href="SwitchBlock_8h.html" target="_top" xlink:title="Modèle de domaine d&#39;un aiguillage ferroviaire à 3 branches.">
<polygon fill="white" stroke="#666666" points="212.5,-85 127.5,-85 127.5,-66 212.5,-66 212.5,-85"/>
<text text-anchor="middle" x="170" y="-73" font-family="Helvetica,sans-Serif" font-size="10.00">SwitchBlock.h</text>
</a>
</g>
</g>
<!-- Node1&#45;&gt;Node2 -->
<g id="edge1_Node000001_Node000002" class="edge">
<title>Node1&#45;&gt;Node2</title>
<g id="a_edge1_Node000001_Node000002"><a xlink:title=" ">
<path fill="none" stroke="#63b8ff" d="M285.99,-120.95C258.63,-110.46 225.75,-97.87 202,-88.76"/>
<polygon fill="#63b8ff" stroke="#63b8ff" points="203.01,-85.4 192.42,-85.09 200.5,-91.94 203.01,-85.4"/>
</a>
</g>
</g>
<!-- Node8 -->
<g id="Node000008" class="node">
<title>Node8</title>
<g id="a_Node000008"><a xlink:title=" ">
<polygon fill="#e0e0e0" stroke="#999999" points="295,-85 231,-85 231,-66 295,-66 295,-85"/>
<text text-anchor="middle" x="263" y="-73" font-family="Helvetica,sans-Serif" font-size="10.00">algorithm</text>
</a>
</g>
</g>
<!-- Node1&#45;&gt;Node8 -->
<g id="edge7_Node000001_Node000008" class="edge">
<title>Node1&#45;&gt;Node8</title>
<g id="a_edge7_Node000001_Node000008"><a xlink:title=" ">
<path fill="none" stroke="#63b8ff" d="M314.4,-120.95C303.64,-111.65 290.95,-100.68 280.88,-91.96"/>
<polygon fill="#63b8ff" stroke="#63b8ff" points="282.98,-89.15 273.13,-85.26 278.4,-94.45 282.98,-89.15"/>
</a>
</g>
</g>
<!-- Node9 -->
<g id="Node000009" class="node">
<title>Node9</title>
<g id="a_Node000009"><a xlink:title=" ">
<polygon fill="#e0e0e0" stroke="#999999" points="360.5,-85 313.5,-85 313.5,-66 360.5,-66 360.5,-85"/>
<text text-anchor="middle" x="337" y="-73" font-family="Helvetica,sans-Serif" font-size="10.00">cmath</text>
</a>
</g>
</g>
<!-- Node1&#45;&gt;Node9 -->
<g id="edge8_Node000001_Node000009" class="edge">
<title>Node1&#45;&gt;Node9</title>
<g id="a_edge8_Node000001_Node000009"><a xlink:title=" ">
<path fill="none" stroke="#63b8ff" d="M337,-120.95C337,-112.85 337,-103.5 337,-95.47"/>
<polygon fill="#63b8ff" stroke="#63b8ff" points="340.5,-95.26 337,-85.26 333.5,-95.26 340.5,-95.26"/>
</a>
</g>
</g>
<!-- Node10 -->
<g id="Node000010" class="node">
<title>Node10</title>
<g id="a_Node000010"><a xlink:title=" ">
<polygon fill="#e0e0e0" stroke="#999999" points="435,-85 379,-85 379,-66 435,-66 435,-85"/>
<text text-anchor="middle" x="407" y="-73" font-family="Helvetica,sans-Serif" font-size="10.00">iomanip</text>
</a>
</g>
</g>
<!-- Node1&#45;&gt;Node10 -->
<g id="edge9_Node000001_Node000010" class="edge">
<title>Node1&#45;&gt;Node10</title>
<g id="a_edge9_Node000001_Node000010"><a xlink:title=" ">
<path fill="none" stroke="#63b8ff" d="M358.38,-120.95C368.46,-111.74 380.32,-100.9 389.8,-92.23"/>
<polygon fill="#63b8ff" stroke="#63b8ff" points="392.4,-94.59 397.42,-85.26 387.68,-89.43 392.4,-94.59"/>
</a>
</g>
</g>
<!-- Node11 -->
<g id="Node000011" class="node">
<title>Node11</title>
<g id="a_Node000011"><a xlink:title=" ">
<polygon fill="#e0e0e0" stroke="#999999" points="518.5,-85 453.5,-85 453.5,-66 518.5,-66 518.5,-85"/>
<text text-anchor="middle" x="486" y="-73" font-family="Helvetica,sans-Serif" font-size="10.00">stdexcept</text>
</a>
</g>
</g>
<!-- Node1&#45;&gt;Node11 -->
<g id="edge10_Node000001_Node000011" class="edge">
<title>Node1&#45;&gt;Node11</title>
<g id="a_edge10_Node000001_Node000011"><a xlink:title=" ">
<path fill="none" stroke="#63b8ff" d="M382.51,-120.95C406.6,-110.6 435.47,-98.2 456.6,-89.13"/>
<polygon fill="#63b8ff" stroke="#63b8ff" points="458.19,-92.25 466,-85.09 455.43,-85.82 458.19,-92.25"/>
</a>
</g>
</g>
<!-- Node3 -->
<g id="Node000003" class="node">
<title>Node3</title>
<g id="a_Node000003"><a xlink:title=" ">
<polygon fill="#e0e0e0" stroke="#999999" points="56,-24.5 0,-24.5 0,-5.5 56,-5.5 56,-24.5"/>
<text text-anchor="middle" x="28" y="-12.5" font-family="Helvetica,sans-Serif" font-size="10.00">optional</text>
</a>
</g>
</g>
<!-- Node2&#45;&gt;Node3 -->
<g id="edge2_Node000002_Node000003" class="edge">
<title>Node2&#45;&gt;Node3</title>
<g id="a_edge2_Node000002_Node000003"><a xlink:title=" ">
<path fill="none" stroke="#63b8ff" d="M149.35,-65.99C125.37,-56.12 85.61,-39.73 58.17,-28.43"/>
<polygon fill="#63b8ff" stroke="#63b8ff" points="59.25,-25.09 48.67,-24.52 56.59,-31.56 59.25,-25.09"/>
</a>
</g>
</g>
<!-- Node4 -->
<g id="Node000004" class="node">
<title>Node4</title>
<g id="a_Node000004"><a xlink:title=" ">
<polygon fill="#e0e0e0" stroke="#999999" points="130,-24.5 74,-24.5 74,-5.5 130,-5.5 130,-24.5"/>
<text text-anchor="middle" x="102" y="-12.5" font-family="Helvetica,sans-Serif" font-size="10.00">sstream</text>
</a>
</g>
</g>
<!-- Node2&#45;&gt;Node4 -->
<g id="edge3_Node000002_Node000004" class="edge">
<title>Node2&#45;&gt;Node4</title>
<g id="a_edge3_Node000002_Node000004"><a xlink:title=" ">
<path fill="none" stroke="#63b8ff" d="M159.97,-65.87C149.42,-56.8 132.61,-42.34 119.81,-31.32"/>
<polygon fill="#63b8ff" stroke="#63b8ff" points="121.94,-28.54 112.07,-24.67 117.37,-33.84 121.94,-28.54"/>
</a>
</g>
</g>
<!-- Node5 -->
<g id="Node000005" class="node">
<title>Node5</title>
<g id="a_Node000005"><a xlink:title=" ">
<polygon fill="#e0e0e0" stroke="#999999" points="192,-24.5 148,-24.5 148,-5.5 192,-5.5 192,-24.5"/>
<text text-anchor="middle" x="170" y="-12.5" font-family="Helvetica,sans-Serif" font-size="10.00">string</text>
</a>
</g>
</g>
<!-- Node2&#45;&gt;Node5 -->
<g id="edge4_Node000002_Node000005" class="edge">
<title>Node2&#45;&gt;Node5</title>
<g id="a_edge4_Node000002_Node000005"><a xlink:title=" ">
<path fill="none" stroke="#63b8ff" d="M170,-65.87C170,-57.75 170,-45.31 170,-34.89"/>
<polygon fill="#63b8ff" stroke="#63b8ff" points="173.5,-34.67 170,-24.67 166.5,-34.67 173.5,-34.67"/>
</a>
</g>
</g>
<!-- Node6 -->
<g id="Node000006" class="node">
<title>Node6</title>
<g id="a_Node000006"><a xlink:title=" ">
<polygon fill="#e0e0e0" stroke="#999999" points="257.5,-24.5 210.5,-24.5 210.5,-5.5 257.5,-5.5 257.5,-24.5"/>
<text text-anchor="middle" x="234" y="-12.5" font-family="Helvetica,sans-Serif" font-size="10.00">vector</text>
</a>
</g>
</g>
<!-- Node2&#45;&gt;Node6 -->
<g id="edge5_Node000002_Node000006" class="edge">
<title>Node2&#45;&gt;Node6</title>
<g id="a_edge5_Node000002_Node000006"><a xlink:title=" ">
<path fill="none" stroke="#63b8ff" d="M179.44,-65.87C189.27,-56.88 204.89,-42.61 216.89,-31.64"/>
<polygon fill="#63b8ff" stroke="#63b8ff" points="219.5,-34 224.52,-24.67 214.78,-28.83 219.5,-34"/>
</a>
</g>
</g>
<!-- Node7 -->
<g id="Node000007" class="node">
<title>Node7</title>
<g id="a_Node000007"><a xlink:href="LatLon_8h.html" target="_top" xlink:title="Représentation d&#39;une coordonnée géographique WGS&#45;84 (latitude, longitude).">
<polygon fill="white" stroke="#666666" points="394.5,-30 275.5,-30 275.5,0 394.5,0 394.5,-30"/>
<text text-anchor="start" x="283.5" y="-18" font-family="Helvetica,sans-Serif" font-size="10.00">Modules/Coordinates</text>
<text text-anchor="middle" x="335" y="-7" font-family="Helvetica,sans-Serif" font-size="10.00">/LatLon.h</text>
</a>
</g>
</g>
<!-- Node2&#45;&gt;Node7 -->
<g id="edge6_Node000002_Node000007" class="edge">
<title>Node2&#45;&gt;Node7</title>
<g id="a_edge6_Node000002_Node000007"><a xlink:title=" ">
<path fill="none" stroke="#63b8ff" d="M193.99,-65.99C217.95,-57.5 255.46,-44.2 285.77,-33.45"/>
<polygon fill="#63b8ff" stroke="#63b8ff" points="287.08,-36.7 295.33,-30.06 284.74,-30.11 287.08,-36.7"/>
</a>
</g>
</g>
</g>
</svg>
