<?xml version="1.0" encoding="UTF-8" standalone="no"?>
<!DOCTYPE svg PUBLIC "-//W3C//DTD SVG 1.1//EN"
 "http://www.w3.org/Graphics/SVG/1.1/DTD/svg11.dtd">
<!-- Generated by graphviz version 2.43.0 (0)
 -->
<!-- Title: SimulateurFerroviaire/targetver.h Pages: 1 -->
<svg width="1192pt" height="390pt"
 viewBox="0.00 0.00 1191.50 390.00" xmlns="http://www.w3.org/2000/svg" xmlns:xlink="http://www.w3.org/1999/xlink">
<g id="graph0" class="graph" transform="scale(1 1) rotate(0) translate(4 386)">
<title>SimulateurFerroviaire/targetver.h</title>
<!-- Node1 -->
<g id="Node000001" class="node">
<title>Node1</title>
<g id="a_Node000001"><a xlink:title=" ">
<polygon fill="#999999" stroke="#666666" points="605,-382 483,-382 483,-352 605,-352 605,-382"/>
<text text-anchor="start" x="491" y="-370" font-family="Helvetica,sans-Serif" font-size="10.00">SimulateurFerroviaire</text>
<text text-anchor="middle" x="544" y="-359" font-family="Helvetica,sans-Serif" font-size="10.00">/targetver.h</text>
</a>
</g>
</g>
<!-- Node2 -->
<g id="Node000002" class="node">
<title>Node2</title>
<g id="a_Node000002"><a xlink:href="framework_8h.html" target="_top" xlink:title=" ">
<polygon fill="white" stroke="#666666" points="605,-316 483,-316 483,-286 605,-286 605,-316"/>
<text text-anchor="start" x="491" y="-304" font-family="Helvetica,sans-Serif" font-size="10.00">SimulateurFerroviaire</text>
<text text-anchor="middle" x="544" y="-293" font-family="Helvetica,sans-Serif" font-size="10.00">/framework.h</text>
</a>
</g>
</g>
<!-- Node1&#45;&gt;Node2 -->
<g id="edge1_Node000001_Node000002" class="edge">
<title>Node1&#45;&gt;Node2</title>
<g id="a_edge1_Node000001_Node000002"><a xlink:title=" ">
<path fill="none" stroke="#63b8ff" d="M544,-341.54C544,-332.96 544,-323.61 544,-316.16"/>
<polygon fill="#63b8ff" stroke="#63b8ff" points="540.5,-341.8 544,-351.8 547.5,-341.8 540.5,-341.8"/>
</a>
</g>
</g>
<!-- Node3 -->
<g id="Node000003" class="node">
<title>Node3</title>
<g id="a_Node000003"><a xlink:href="Application_8cpp.html" target="_top" xlink:title="Implémentation du cycle de vie de l&#39;application Win32.">
<polygon fill="white" stroke="#666666" points="156,-30 0,-30 0,0 156,0 156,-30"/>
<text text-anchor="start" x="8" y="-18" font-family="Helvetica,sans-Serif" font-size="10.00">SimulateurFerroviaire</text>
<text text-anchor="middle" x="78" y="-7" font-family="Helvetica,sans-Serif" font-size="10.00">/Engine/Core/Application.cpp</text>
</a>
</g>
</g>
<!-- Node2&#45;&gt;Node3 -->
<g id="edge2_Node000002_Node000003" class="edge">
<title>Node2&#45;&gt;Node3</title>
<g id="a_edge2_Node000002_Node000003"><a xlink:title=" ">
<path fill="none" stroke="#63b8ff" d="M472.65,-295.31C388.02,-288.74 252.89,-274.71 209,-250 131.45,-206.34 112.81,-179.12 81,-96 72.66,-74.19 73.97,-46.55 75.86,-30.13"/>
<polygon fill="#63b8ff" stroke="#63b8ff" points="472.47,-298.81 482.71,-296.08 473,-291.83 472.47,-298.81"/>
</a>
</g>
</g>
<!-- Node4 -->
<g id="Node000004" class="node">
<title>Node4</title>
<g id="a_Node000004"><a xlink:href="Application_8h.html" target="_top" xlink:title="Gestion du cycle de vie de l&#39;application Win32.">
<polygon fill="white" stroke="#666666" points="235.5,-96 90.5,-96 90.5,-66 235.5,-66 235.5,-96"/>
<text text-anchor="start" x="98.5" y="-84" font-family="Helvetica,sans-Serif" font-size="10.00">SimulateurFerroviaire</text>
<text text-anchor="middle" x="163" y="-73" font-family="Helvetica,sans-Serif" font-size="10.00">/Engine/Core/Application.h</text>
</a>
</g>
</g>
<!-- Node2&#45;&gt;Node4 -->
<g id="edge3_Node000002_Node000004" class="edge">
<title>Node2&#45;&gt;Node4</title>
<g id="a_edge3_Node000002_Node000004"><a xlink:title=" ">
<path fill="none" stroke="#63b8ff" d="M472.35,-295.11C396.97,-288.72 284.54,-275.22 250,-250 196.42,-210.87 173.23,-128.89 165.83,-96.05"/>
<polygon fill="#63b8ff" stroke="#63b8ff" points="472.48,-298.64 482.73,-295.97 473.05,-291.66 472.48,-298.64"/>
</a>
</g>
</g>
<!-- Node5 -->
<g id="Node000005" class="node">
<title>Node5</title>
<g id="a_Node000005"><a xlink:href="SimulateurFerroviaire_8cpp.html" target="_top" xlink:title="Point d&#39;entrée unique de l&#39;application Win32.">
<polygon fill="white" stroke="#666666" points="328,-30 182,-30 182,0 328,0 328,-30"/>
<text text-anchor="start" x="190" y="-18" font-family="Helvetica,sans-Serif" font-size="10.00">SimulateurFerroviaire</text>
<text text-anchor="middle" x="255" y="-7" font-family="Helvetica,sans-Serif" font-size="10.00">/SimulateurFerroviaire.cpp</text>
</a>
</g>
</g>
<!-- Node2&#45;&gt;Node5 -->
<g id="edge22_Node000002_Node000005" class="edge">
<title>Node2&#45;&gt;Node5</title>
<g id="a_edge22_Node000002_Node000005"><a xlink:title=" ">
<path fill="none" stroke="#63b8ff" d="M472.8,-298.57C426.35,-294.32 366.64,-282.24 324,-250 252.72,-196.1 252.07,-72.08 254.04,-30.15"/>
<polygon fill="#63b8ff" stroke="#63b8ff" points="472.55,-302.06 482.8,-299.38 473.12,-295.08 472.55,-302.06"/>
</a>
</g>
</g>
<!-- Node6 -->
<g id="Node000006" class="node">
<title>Node6</title>
<g id="a_Node000006"><a xlink:href="AboutDialog_8cpp.html" target="_top" xlink:title="Implémentation de la boîte de dialogue &quot;À propos&quot;.">
<polygon fill="white" stroke="#666666" points="884,-167.5 686,-167.5 686,-137.5 884,-137.5 884,-167.5"/>
<text text-anchor="start" x="694" y="-155.5" font-family="Helvetica,sans-Serif" font-size="10.00">SimulateurFerroviaire</text>
<text text-anchor="middle" x="785" y="-144.5" font-family="Helvetica,sans-Serif" font-size="10.00">/Engine/HMI/Dialogs/AboutDialog.cpp</text>
</a>
</g>
</g>
<!-- Node2&#45;&gt;Node6 -->
<g id="edge6_Node000002_Node000006" class="edge">
<title>Node2&#45;&gt;Node6</title>
<g id="a_edge6_Node000002_Node000006"><a xlink:title=" ">
<path fill="none" stroke="#63b8ff" d="M615.18,-292.7C672.61,-285.31 747.16,-271.81 768,-250 789.27,-227.74 788.96,-188.72 786.96,-167.76"/>
<polygon fill="#63b8ff" stroke="#63b8ff" points="614.53,-289.26 605.04,-293.97 615.39,-296.2 614.53,-289.26"/>
</a>
</g>
</g>
<!-- Node7 -->
<g id="Node000007" class="node">
<title>Node7</title>
<g id="a_Node000007"><a xlink:href="AboutDialog_8h.html" target="_top" xlink:title="Déclaration de la boîte de dialogue &quot;À propos&quot;.">
<polygon fill="white" stroke="#666666" points="758.5,-244.5 571.5,-244.5 571.5,-214.5 758.5,-214.5 758.5,-244.5"/>
<text text-anchor="start" x="579.5" y="-232.5" font-family="Helvetica,sans-Serif" font-size="10.00">SimulateurFerroviaire</text>
<text text-anchor="middle" x="665" y="-221.5" font-family="Helvetica,sans-Serif" font-size="10.00">/Engine/HMI/Dialogs/AboutDialog.h</text>
</a>
</g>
</g>
<!-- Node2&#45;&gt;Node7 -->
<g id="edge7_Node000002_Node000007" class="edge">
<title>Node2&#45;&gt;Node7</title>
<g id="a_edge7_Node000002_Node000007"><a xlink:title=" ">
<path fill="none" stroke="#63b8ff" d="M577.29,-280.88C597.31,-269.38 622.35,-254.99 640.55,-244.54"/>
<polygon fill="#63b8ff" stroke="#63b8ff" points="575.41,-277.92 568.49,-285.94 578.9,-283.99 575.41,-277.92"/>
</a>
</g>
</g>
<!-- Node8 -->
<g id="Node000008" class="node">
<title>Node8</title>
<g id="a_Node000008"><a xlink:href="MainWindow_8cpp.html" target="_top" xlink:title="Implémentation de la fenêtre principale.">
<polygon fill="white" stroke="#666666" points="865.5,-96 704.5,-96 704.5,-66 865.5,-66 865.5,-96"/>
<text text-anchor="start" x="712.5" y="-84" font-family="Helvetica,sans-Serif" font-size="10.00">SimulateurFerroviaire</text>
<text text-anchor="middle" x="785" y="-73" font-family="Helvetica,sans-Serif" font-size="10.00">/Engine/HMI/MainWindow.cpp</text>
</a>
</g>
</g>
<!-- Node2&#45;&gt;Node8 -->
<g id="edge14_Node000002_Node000008" class="edge">
<title>Node2&#45;&gt;Node8</title>
<g id="a_edge14_Node000002_Node000008"><a xlink:title=" ">
<path fill="none" stroke="#63b8ff" d="M615.38,-300.01C702.17,-295.51 843.2,-272.4 893,-173 901.16,-156.71 902.81,-147.35 893,-132 882.04,-114.85 863.53,-103.5 844.89,-96.02"/>
<polygon fill="#63b8ff" stroke="#63b8ff" points="615.17,-296.52 605.34,-300.46 615.49,-303.51 615.17,-296.52"/>
</a>
</g>
</g>
<!-- Node9 -->
<g id="Node000009" class="node">
<title>Node9</title>
<g id="a_Node000009"><a xlink:href="FileOpenDialog_8cpp.html" target="_top" xlink:title="Implémentation du sélecteur de fichier GeoJSON natif Win32.">
<polygon fill="white" stroke="#666666" points="1183.5,-173 1022.5,-173 1022.5,-132 1183.5,-132 1183.5,-173"/>
<text text-anchor="start" x="1030.5" y="-161" font-family="Helvetica,sans-Serif" font-size="10.00">SimulateurFerroviaire</text>
<text text-anchor="start" x="1030.5" y="-150" font-family="Helvetica,sans-Serif" font-size="10.00">/Engine/HMI/Dialogs/FileOpen</text>
<text text-anchor="middle" x="1103" y="-139" font-family="Helvetica,sans-Serif" font-size="10.00">Dialog.cpp</text>
</a>
</g>
</g>
<!-- Node2&#45;&gt;Node9 -->
<g id="edge10_Node000002_Node000009" class="edge">
<title>Node2&#45;&gt;Node9</title>
<g id="a_edge10_Node000002_Node000009"><a xlink:title=" ">
<path fill="none" stroke="#63b8ff" d="M615.43,-298.46C756.39,-294.72 1059.68,-282.91 1093,-250 1113.01,-230.23 1111.17,-195.19 1107.47,-173.21"/>
<polygon fill="#63b8ff" stroke="#63b8ff" points="615.06,-294.97 605.16,-298.73 615.24,-301.97 615.06,-294.97"/>
</a>
</g>
</g>
<!-- Node10 -->
<g id="Node000010" class="node">
<title>Node10</title>
<g id="a_Node000010"><a xlink:href="FileOpenDialog_8h.html" target="_top" xlink:title="Déclaration du sélecteur de fichier GeoJSON.">
<polygon fill="white" stroke="#666666" points="1083.5,-250 922.5,-250 922.5,-209 1083.5,-209 1083.5,-250"/>
<text text-anchor="start" x="930.5" y="-238" font-family="Helvetica,sans-Serif" font-size="10.00">SimulateurFerroviaire</text>
<text text-anchor="start" x="930.5" y="-227" font-family="Helvetica,sans-Serif" font-size="10.00">/Engine/HMI/Dialogs/FileOpen</text>
<text text-anchor="middle" x="1003" y="-216" font-family="Helvetica,sans-Serif" font-size="10.00">Dialog.h</text>
</a>
</g>
</g>
<!-- Node2&#45;&gt;Node10 -->
<g id="edge11_Node000002_Node000010" class="edge">
<title>Node2&#45;&gt;Node10</title>
<g id="a_edge11_Node000002_Node000010"><a xlink:title=" ">
<path fill="none" stroke="#63b8ff" d="M615.12,-291.64C688.65,-282.66 806.67,-267.34 908,-250 912.73,-249.19 917.58,-248.32 922.48,-247.41"/>
<polygon fill="#63b8ff" stroke="#63b8ff" points="614.56,-288.18 605.05,-292.86 615.4,-295.13 614.56,-288.18"/>
</a>
</g>
</g>
<!-- Node11 -->
<g id="Node000011" class="node">
<title>Node11</title>
<g id="a_Node000011"><a xlink:href="MainWindow_8h.html" target="_top" xlink:title="Déclaration de la fenêtre principale de l&#39;application.">
<polygon fill="white" stroke="#666666" points="440.5,-167.5 291.5,-167.5 291.5,-137.5 440.5,-137.5 440.5,-167.5"/>
<text text-anchor="start" x="299.5" y="-155.5" font-family="Helvetica,sans-Serif" font-size="10.00">SimulateurFerroviaire</text>
<text text-anchor="middle" x="366" y="-144.5" font-family="Helvetica,sans-Serif" font-size="10.00">/Engine/HMI/MainWindow.h</text>
</a>
</g>
</g>
<!-- Node2&#45;&gt;Node11 -->
<g id="edge15_Node000002_Node000011" class="edge">
<title>Node2&#45;&gt;Node11</title>
<g id="a_edge15_Node000002_Node000011"><a xlink:title=" ">
<path fill="none" stroke="#63b8ff" d="M472.63,-292.34C419.04,-284.95 352.07,-271.63 335,-250 315.49,-225.27 338.42,-187.94 353.98,-167.73"/>
<polygon fill="#63b8ff" stroke="#63b8ff" points="472.43,-295.85 482.81,-293.7 473.36,-288.91 472.43,-295.85"/>
</a>
</g>
</g>
<!-- Node12 -->
<g id="Node000012" class="node">
<title>Node12</title>
<g id="a_Node000012"><a xlink:href="GeoParsingTask_8cpp.html" target="_top" xlink:title="Implémentation de la tâche de parsing GeoJSON asynchrone.">
<polygon fill="white" stroke="#666666" points="629.5,-173 458.5,-173 458.5,-132 629.5,-132 629.5,-173"/>
<text text-anchor="start" x="466.5" y="-161" font-family="Helvetica,sans-Serif" font-size="10.00">SimulateurFerroviaire</text>
<text text-anchor="start" x="466.5" y="-150" font-family="Helvetica,sans-Serif" font-size="10.00">/Modules/GeoParser/GeoParsing</text>
<text text-anchor="middle" x="544" y="-139" font-family="Helvetica,sans-Serif" font-size="10.00">Task.cpp</text>
</a>
</g>
</g>
<!-- Node2&#45;&gt;Node12 -->
<g id="edge18_Node000002_Node000012" class="edge">
<title>Node2&#45;&gt;Node12</title>
<g id="a_edge18_Node000002_Node000012"><a xlink:title=" ">
<path fill="none" stroke="#63b8ff" d="M544,-275.58C544,-246.88 544,-199.8 544,-173.27"/>
<polygon fill="#63b8ff" stroke="#63b8ff" points="540.5,-275.95 544,-285.95 547.5,-275.95 540.5,-275.95"/>
</a>
</g>
</g>
<!-- Node13 -->
<g id="Node000013" class="node">
<title>Node13</title>
<g id="a_Node000013"><a xlink:href="GeoParsingTask_8h.html" target="_top" xlink:title="Déclaration de la tâche de parsing GeoJSON asynchrone.">
<polygon fill="white" stroke="#666666" points="515.5,-250 344.5,-250 344.5,-209 515.5,-209 515.5,-250"/>
<text text-anchor="start" x="352.5" y="-238" font-family="Helvetica,sans-Serif" font-size="10.00">SimulateurFerroviaire</text>
<text text-anchor="start" x="352.5" y="-227" font-family="Helvetica,sans-Serif" font-size="10.00">/Modules/GeoParser/GeoParsing</text>
<text text-anchor="middle" x="430" y="-216" font-family="Helvetica,sans-Serif" font-size="10.00">Task.h</text>
</a>
</g>
</g>
<!-- Node2&#45;&gt;Node13 -->
<g id="edge19_Node000002_Node000013" class="edge">
<title>Node2&#45;&gt;Node13</title>
<g id="a_edge19_Node000002_Node000013"><a xlink:title=" ">
<path fill="none" stroke="#63b8ff" d="M512.15,-280.58C496.53,-271.06 477.76,-259.62 462.11,-250.07"/>
<polygon fill="#63b8ff" stroke="#63b8ff" points="510.57,-283.72 520.93,-285.94 514.21,-277.74 510.57,-283.72"/>
</a>
</g>
</g>
<!-- Node4&#45;&gt;Node3 -->
<g id="edge4_Node000004_Node000003" class="edge">
<title>Node4&#45;&gt;Node3</title>
<g id="a_edge4_Node000004_Node000003"><a xlink:title=" ">
<path fill="none" stroke="#63b8ff" d="M136.11,-59.75C123.33,-50.13 108.36,-38.86 96.81,-30.16"/>
<polygon fill="#63b8ff" stroke="#63b8ff" points="134.04,-62.58 144.14,-65.8 138.25,-56.99 134.04,-62.58"/>
</a>
</g>
</g>
<!-- Node4&#45;&gt;Node5 -->
<g id="edge5_Node000004_Node000005" class="edge">
<title>Node4&#45;&gt;Node5</title>
<g id="a_edge5_Node000004_Node000005"><a xlink:title=" ">
<path fill="none" stroke="#63b8ff" d="M191.71,-60.03C205.63,-50.34 222.03,-38.94 234.64,-30.16"/>
<polygon fill="#63b8ff" stroke="#63b8ff" points="189.63,-57.21 183.42,-65.8 193.63,-62.96 189.63,-57.21"/>
</a>
</g>
</g>
<!-- Node7&#45;&gt;Node6 -->
<g id="edge8_Node000007_Node000006" class="edge">
<title>Node7&#45;&gt;Node6</title>
<g id="a_edge8_Node000007_Node000006"><a xlink:title=" ">
<path fill="none" stroke="#63b8ff" d="M696.07,-209.08C716.88,-196.08 743.79,-179.26 762.53,-167.54"/>
<polygon fill="#63b8ff" stroke="#63b8ff" points="694.2,-206.13 687.57,-214.39 697.91,-212.06 694.2,-206.13"/>
</a>
</g>
</g>
<!-- Node7&#45;&gt;Node8 -->
<g id="edge9_Node000007_Node000008" class="edge">
<title>Node7&#45;&gt;Node8</title>
<g id="a_edge9_Node000007_Node000008"><a xlink:title=" ">
<path fill="none" stroke="#63b8ff" d="M661.85,-204.1C660.47,-183.03 661.83,-152.79 677,-132 689.42,-114.98 709.09,-103.58 728.26,-96.03"/>
<polygon fill="#63b8ff" stroke="#63b8ff" points="658.38,-204.54 662.77,-214.19 665.35,-203.91 658.38,-204.54"/>
</a>
</g>
</g>
<!-- Node10&#45;&gt;Node8 -->
<g id="edge13_Node000010_Node000008" class="edge">
<title>Node10&#45;&gt;Node8</title>
<g id="a_edge13_Node000010_Node000008"><a xlink:title=" ">
<path fill="none" stroke="#63b8ff" d="M986.47,-200.09C972.73,-178.7 951.35,-150.06 926,-132 902.73,-115.42 873.43,-103.86 847.57,-96.06"/>
<polygon fill="#63b8ff" stroke="#63b8ff" points="983.62,-202.13 991.89,-208.76 989.56,-198.42 983.62,-202.13"/>
</a>
</g>
</g>
<!-- Node10&#45;&gt;Node9 -->
<g id="edge12_Node000010_Node000009" class="edge">
<title>Node10&#45;&gt;Node9</title>
<g id="a_edge12_Node000010_Node000009"><a xlink:title=" ">
<path fill="none" stroke="#63b8ff" d="M1037.25,-202.82C1050.18,-193.11 1064.68,-182.24 1076.77,-173.17"/>
<polygon fill="#63b8ff" stroke="#63b8ff" points="1034.91,-200.19 1029.01,-208.99 1039.11,-205.79 1034.91,-200.19"/>
</a>
</g>
</g>
<!-- Node11&#45;&gt;Node4 -->
<g id="edge16_Node000011_Node000004" class="edge">
<title>Node11&#45;&gt;Node4</title>
<g id="a_edge16_Node000011_Node000004"><a xlink:title=" ">
<path fill="none" stroke="#63b8ff" d="M315.08,-134.07C280.75,-122.31 236.06,-107.01 204.02,-96.04"/>
<polygon fill="#63b8ff" stroke="#63b8ff" points="314.33,-137.51 324.92,-137.44 316.59,-130.89 314.33,-137.51"/>
</a>
</g>
</g>
<!-- Node11&#45;&gt;Node8 -->
<g id="edge17_Node000011_Node000008" class="edge">
<title>Node11&#45;&gt;Node8</title>
<g id="a_edge17_Node000011_Node000008"><a xlink:title=" ">
<path fill="none" stroke="#63b8ff" d="M433.64,-135.31C439.16,-134.13 444.67,-133.01 450,-132 536.51,-115.53 636.44,-101.22 704.49,-92.18"/>
<polygon fill="#63b8ff" stroke="#63b8ff" points="432.74,-131.92 423.71,-137.46 434.23,-138.76 432.74,-131.92"/>
</a>
</g>
</g>
<!-- Node13&#45;&gt;Node11 -->
<g id="edge20_Node000013_Node000011" class="edge">
<title>Node13&#45;&gt;Node11</title>
<g id="a_edge20_Node000013_Node000011"><a xlink:title=" ">
<path fill="none" stroke="#63b8ff" d="M406.46,-200.92C396.89,-189.7 386.23,-177.21 378.25,-167.86"/>
<polygon fill="#63b8ff" stroke="#63b8ff" points="404.03,-203.46 413.18,-208.79 409.36,-198.92 404.03,-203.46"/>
</a>
</g>
</g>
<!-- Node13&#45;&gt;Node12 -->
<g id="edge21_Node000013_Node000012" class="edge">
<title>Node13&#45;&gt;Node12</title>
<g id="a_edge21_Node000013_Node000012"><a xlink:title=" ">
<path fill="none" stroke="#63b8ff" d="M468.2,-203.37C483.16,-193.53 500.06,-182.41 514.1,-173.17"/>
<polygon fill="#63b8ff" stroke="#63b8ff" points="466.09,-200.57 459.65,-208.99 469.93,-206.42 466.09,-200.57"/>
</a>
</g>
</g>
</g>
</svg>
