<?xml version="1.0" encoding="UTF-8" standalone="no"?>
<!DOCTYPE svg PUBLIC "-//W3C//DTD SVG 1.1//EN"
 "http://www.w3.org/Graphics/SVG/1.1/DTD/svg11.dtd">
<!-- Generated by graphviz version 2.43.0 (0)
 -->
<!-- Title: SimulateurFerroviaire/Engine/Core/Topology/TopologyRenderer.cpp Pages: 1 -->
<svg width="894pt" height="489pt"
 viewBox="0.00 0.00 893.84 489.00" xmlns="http://www.w3.org/2000/svg" xmlns:xlink="http://www.w3.org/1999/xlink">
<g id="graph0" class="graph" transform="scale(1 1) rotate(0) translate(4 485)">
<title>SimulateurFerroviaire/Engine/Core/Topology/TopologyRenderer.cpp</title>
<!-- Node1 -->
<g id="Node000001" class="node">
<title>Node1</title>
<g id="a_Node000001"><a xlink:title="Implémentation de l&#39;exporteur GeoJSON.">
<polygon fill="#999999" stroke="#666666" points="816.34,-481 689.34,-481 689.34,-440 816.34,-440 816.34,-481"/>
<text text-anchor="start" x="697.34" y="-469" font-family="Helvetica,sans-Serif" font-size="10.00">SimulateurFerroviaire</text>
<text text-anchor="start" x="697.34" y="-458" font-family="Helvetica,sans-Serif" font-size="10.00">/Engine/Core/Topology</text>
<text text-anchor="middle" x="752.84" y="-447" font-family="Helvetica,sans-Serif" font-size="10.00">/TopologyRenderer.cpp</text>
</a>
</g>
</g>
<!-- Node2 -->
<g id="Node000002" class="node">
<title>Node2</title>
<g id="a_Node000002"><a xlink:href="TopologyRenderer_8h.html" target="_top" xlink:title="Exporteur de topologie ferroviaire au format GeoJSON.">
<polygon fill="white" stroke="#666666" points="306.34,-338 193.34,-338 193.34,-319 306.34,-319 306.34,-338"/>
<text text-anchor="middle" x="249.84" y="-326" font-family="Helvetica,sans-Serif" font-size="10.00">TopologyRenderer.h</text>
</a>
</g>
</g>
<!-- Node1&#45;&gt;Node2 -->
<g id="edge1_Node000001_Node000002" class="edge">
<title>Node1&#45;&gt;Node2</title>
<g id="a_edge1_Node000001_Node000002"><a xlink:title=" ">
<path fill="none" stroke="#63b8ff" d="M689.14,-443.04C585.03,-416.13 381.17,-363.44 292.61,-340.55"/>
<polygon fill="#63b8ff" stroke="#63b8ff" points="293.45,-337.16 282.9,-338.04 291.7,-343.93 293.45,-337.16"/>
</a>
</g>
</g>
<!-- Node11 -->
<g id="Node000011" class="node">
<title>Node11</title>
<g id="a_Node000011"><a xlink:title=" ">
<polygon fill="#e0e0e0" stroke="#999999" points="831.34,-19 776.34,-19 776.34,0 831.34,0 831.34,-19"/>
<text text-anchor="middle" x="803.84" y="-7" font-family="Helvetica,sans-Serif" font-size="10.00">fstream</text>
</a>
</g>
</g>
<!-- Node1&#45;&gt;Node11 -->
<g id="edge33_Node000001_Node000011" class="edge">
<title>Node1&#45;&gt;Node11</title>
<g id="a_edge33_Node000001_Node000011"><a xlink:title=" ">
<path fill="none" stroke="#63b8ff" d="M765.46,-439.66C779.98,-414.89 801.84,-370.74 801.84,-329.5 801.84,-329.5 801.84,-329.5 801.84,-135 801.84,-97.49 802.76,-53.63 803.35,-29.26"/>
<polygon fill="#63b8ff" stroke="#63b8ff" points="806.85,-29.34 803.6,-19.25 799.85,-29.16 806.85,-29.34"/>
</a>
</g>
</g>
<!-- Node18 -->
<g id="Node000018" class="node">
<title>Node18</title>
<g id="a_Node000018"><a xlink:href="TopologyRepository_8h.html" target="_top" xlink:title="Singleton de stockage des données topologiques ferroviaires.">
<polygon fill="white" stroke="#666666" points="717.34,-404 594.34,-404 594.34,-374 717.34,-374 717.34,-404"/>
<text text-anchor="start" x="602.34" y="-392" font-family="Helvetica,sans-Serif" font-size="10.00">Engine/Core/Topology</text>
<text text-anchor="middle" x="655.84" y="-381" font-family="Helvetica,sans-Serif" font-size="10.00">/TopologyRepository.h</text>
</a>
</g>
</g>
<!-- Node1&#45;&gt;Node18 -->
<g id="edge27_Node000001_Node000018" class="edge">
<title>Node1&#45;&gt;Node18</title>
<g id="a_edge27_Node000001_Node000018"><a xlink:title=" ">
<path fill="none" stroke="#63b8ff" d="M725.56,-439.96C712.51,-430.6 696.9,-419.42 683.76,-410.01"/>
<polygon fill="#63b8ff" stroke="#63b8ff" points="685.71,-407.09 675.54,-404.11 681.63,-412.78 685.71,-407.09"/>
</a>
</g>
</g>
<!-- Node21 -->
<g id="Node000021" class="node">
<title>Node21</title>
<g id="a_Node000021"><a xlink:title=" ">
<polygon fill="#e0e0e0" stroke="#999999" points="885.84,-398.5 829.84,-398.5 829.84,-379.5 885.84,-379.5 885.84,-398.5"/>
<text text-anchor="middle" x="857.84" y="-386.5" font-family="Helvetica,sans-Serif" font-size="10.00">iomanip</text>
</a>
</g>
</g>
<!-- Node1&#45;&gt;Node21 -->
<g id="edge34_Node000001_Node000021" class="edge">
<title>Node1&#45;&gt;Node21</title>
<g id="a_edge34_Node000001_Node000021"><a xlink:title=" ">
<path fill="none" stroke="#63b8ff" d="M782.37,-439.96C799.61,-428.54 820.97,-414.41 836.56,-404.09"/>
<polygon fill="#63b8ff" stroke="#63b8ff" points="838.59,-406.94 844.99,-398.5 834.72,-401.1 838.59,-406.94"/>
</a>
</g>
</g>
<!-- Node3 -->
<g id="Node000003" class="node">
<title>Node3</title>
<g id="a_Node000003"><a xlink:title=" ">
<polygon fill="#e0e0e0" stroke="#999999" points="469.84,-19 425.84,-19 425.84,0 469.84,0 469.84,-19"/>
<text text-anchor="middle" x="447.84" y="-7" font-family="Helvetica,sans-Serif" font-size="10.00">string</text>
</a>
</g>
</g>
<!-- Node2&#45;&gt;Node3 -->
<g id="edge2_Node000002_Node000003" class="edge">
<title>Node2&#45;&gt;Node3</title>
<g id="a_edge2_Node000002_Node000003"><a xlink:title=" ">
<path fill="none" stroke="#63b8ff" d="M193.29,-323.45C133.65,-318 45.02,-306.2 20.84,-283 -5.53,-257.7 1.84,-239.54 1.84,-203 1.84,-203 1.84,-203 1.84,-135 1.84,-49.01 313.3,-19.8 415.67,-12.52"/>
<polygon fill="#63b8ff" stroke="#63b8ff" points="415.99,-16 425.72,-11.82 415.51,-9.02 415.99,-16"/>
</a>
</g>
</g>
<!-- Node4 -->
<g id="Node000004" class="node">
<title>Node4</title>
<g id="a_Node000004"><a xlink:title=" ">
<polygon fill="#e0e0e0" stroke="#999999" points="287.34,-211.5 240.34,-211.5 240.34,-192.5 287.34,-192.5 287.34,-211.5"/>
<text text-anchor="middle" x="263.84" y="-199.5" font-family="Helvetica,sans-Serif" font-size="10.00">vector</text>
</a>
</g>
</g>
<!-- Node2&#45;&gt;Node4 -->
<g id="edge3_Node000002_Node000004" class="edge">
<title>Node2&#45;&gt;Node4</title>
<g id="a_edge3_Node000002_Node000004"><a xlink:title=" ">
<path fill="none" stroke="#63b8ff" d="M250.8,-318.94C253.04,-299.04 258.64,-249.26 261.72,-221.85"/>
<polygon fill="#63b8ff" stroke="#63b8ff" points="265.23,-221.95 262.87,-211.62 258.28,-221.16 265.23,-221.95"/>
</a>
</g>
</g>
<!-- Node5 -->
<g id="Node000005" class="node">
<title>Node5</title>
<g id="a_Node000005"><a xlink:href="StraightBlock_8h.html" target="_top" xlink:title="Modèle de domaine d&#39;un bloc de voie droite (Straight).">
<polygon fill="white" stroke="#666666" points="500.34,-283 315.34,-283 315.34,-253 500.34,-253 500.34,-283"/>
<text text-anchor="start" x="323.34" y="-271" font-family="Helvetica,sans-Serif" font-size="10.00">Modules/InteractiveElements</text>
<text text-anchor="middle" x="407.84" y="-260" font-family="Helvetica,sans-Serif" font-size="10.00">/ShuntingElements/StraightBlock.h</text>
</a>
</g>
</g>
<!-- Node2&#45;&gt;Node5 -->
<g id="edge4_Node000002_Node000005" class="edge">
<title>Node2&#45;&gt;Node5</title>
<g id="a_edge4_Node000002_Node000005"><a xlink:title=" ">
<path fill="none" stroke="#63b8ff" d="M272.82,-318.99C295.65,-310.54 331.36,-297.32 360.32,-286.59"/>
<polygon fill="#63b8ff" stroke="#63b8ff" points="361.69,-289.82 369.86,-283.06 359.26,-283.25 361.69,-289.82"/>
</a>
</g>
</g>
<!-- Node8 -->
<g id="Node000008" class="node">
<title>Node8</title>
<g id="a_Node000008"><a xlink:href="Logger_8h.html" target="_top" xlink:title="Système de journalisation à 5 niveaux de trace, un fichier par moteur.">
<polygon fill="white" stroke="#666666" points="702.34,-85 591.34,-85 591.34,-55 702.34,-55 702.34,-85"/>
<text text-anchor="start" x="599.34" y="-73" font-family="Helvetica,sans-Serif" font-size="10.00">Engine/Core/Logger</text>
<text text-anchor="middle" x="646.84" y="-62" font-family="Helvetica,sans-Serif" font-size="10.00">/Logger.h</text>
</a>
</g>
</g>
<!-- Node2&#45;&gt;Node8 -->
<g id="edge25_Node000002_Node000008" class="edge">
<title>Node2&#45;&gt;Node8</title>
<g id="a_edge25_Node000002_Node000008"><a xlink:title=" ">
<path fill="none" stroke="#63b8ff" d="M244.95,-318.93C232.23,-295.38 201.1,-228.67 230.84,-187 271.56,-129.95 474.7,-94.36 581.29,-79.31"/>
<polygon fill="#63b8ff" stroke="#63b8ff" points="581.87,-82.76 591.3,-77.92 580.91,-75.83 581.87,-82.76"/>
</a>
</g>
</g>
<!-- Node15 -->
<g id="Node000015" class="node">
<title>Node15</title>
<g id="a_Node000015"><a xlink:href="SwitchBlock_8h.html" target="_top" xlink:title="Modèle de domaine d&#39;un aiguillage ferroviaire à 3 branches.">
<polygon fill="white" stroke="#666666" points="697.34,-283 518.34,-283 518.34,-253 697.34,-253 697.34,-283"/>
<text text-anchor="start" x="526.34" y="-271" font-family="Helvetica,sans-Serif" font-size="10.00">Modules/InteractiveElements</text>
<text text-anchor="middle" x="607.84" y="-260" font-family="Helvetica,sans-Serif" font-size="10.00">/ShuntingElements/SwitchBlock.h</text>
</a>
</g>
</g>
<!-- Node2&#45;&gt;Node15 -->
<g id="edge18_Node000002_Node000015" class="edge">
<title>Node2&#45;&gt;Node15</title>
<g id="a_edge18_Node000002_Node000015"><a xlink:title=" ">
<path fill="none" stroke="#63b8ff" d="M301.9,-318.99C356.77,-310.03 444.45,-295.7 511.9,-284.68"/>
<polygon fill="#63b8ff" stroke="#63b8ff" points="512.82,-288.07 522.12,-283.01 511.69,-281.17 512.82,-288.07"/>
</a>
</g>
</g>
<!-- Node17 -->
<g id="Node000017" class="node">
<title>Node17</title>
<g id="a_Node000017"><a xlink:title=" ">
<polygon fill="#e0e0e0" stroke="#999999" points="183.34,-277.5 30.34,-277.5 30.34,-258.5 183.34,-258.5 183.34,-277.5"/>
<text text-anchor="middle" x="106.84" y="-265.5" font-family="Helvetica,sans-Serif" font-size="10.00">External/nlohmann/json.hpp</text>
</a>
</g>
</g>
<!-- Node2&#45;&gt;Node17 -->
<g id="edge26_Node000002_Node000017" class="edge">
<title>Node2&#45;&gt;Node17</title>
<g id="a_edge26_Node000002_Node000017"><a xlink:title=" ">
<path fill="none" stroke="#63b8ff" d="M229.05,-318.99C204.9,-309.12 164.86,-292.73 137.23,-281.43"/>
<polygon fill="#63b8ff" stroke="#63b8ff" points="138.24,-278.06 127.66,-277.52 135.59,-284.54 138.24,-278.06"/>
</a>
</g>
</g>
<!-- Node5&#45;&gt;Node3 -->
<g id="edge5_Node000005_Node000003" class="edge">
<title>Node5&#45;&gt;Node3</title>
<g id="a_edge5_Node000005_Node000003"><a xlink:title=" ">
<path fill="none" stroke="#63b8ff" d="M374.06,-252.85C359.19,-244.71 343.22,-232.9 334.84,-217 328.62,-205.21 331.1,-199.8 334.84,-187 354.19,-120.89 406.72,-56.04 432.77,-26.73"/>
<polygon fill="#63b8ff" stroke="#63b8ff" points="435.54,-28.89 439.66,-19.13 430.35,-24.19 435.54,-28.89"/>
</a>
</g>
</g>
<!-- Node5&#45;&gt;Node4 -->
<g id="edge6_Node000005_Node000004" class="edge">
<title>Node5&#45;&gt;Node4</title>
<g id="a_edge6_Node000005_Node000004"><a xlink:title=" ">
<path fill="none" stroke="#63b8ff" d="M376.24,-252.95C351.21,-241.83 316.55,-226.42 292.36,-215.67"/>
<polygon fill="#63b8ff" stroke="#63b8ff" points="293.57,-212.38 283.01,-211.52 290.72,-218.78 293.57,-212.38"/>
</a>
</g>
</g>
<!-- Node6 -->
<g id="Node000006" class="node">
<title>Node6</title>
<g id="a_Node000006"><a xlink:href="ShuntingElement_8h.html" target="_top" xlink:title="Interface abstraite pour tous les éléments de shuntage ferroviaire.">
<polygon fill="white" stroke="#666666" points="590.34,-211.5 481.34,-211.5 481.34,-192.5 590.34,-192.5 590.34,-211.5"/>
<text text-anchor="middle" x="535.84" y="-199.5" font-family="Helvetica,sans-Serif" font-size="10.00">ShuntingElement.h</text>
</a>
</g>
</g>
<!-- Node5&#45;&gt;Node6 -->
<g id="edge7_Node000005_Node000006" class="edge">
<title>Node5&#45;&gt;Node6</title>
<g id="a_edge7_Node000005_Node000006"><a xlink:title=" ">
<path fill="none" stroke="#63b8ff" d="M435.93,-252.95C457.89,-241.98 488.17,-226.83 509.63,-216.11"/>
<polygon fill="#63b8ff" stroke="#63b8ff" points="511.43,-219.12 518.81,-211.52 508.3,-212.86 511.43,-219.12"/>
</a>
</g>
</g>
<!-- Node14 -->
<g id="Node000014" class="node">
<title>Node14</title>
<g id="a_Node000014"><a xlink:href="LatLon_8h.html" target="_top" xlink:title="Représentation d&#39;une coordonnée géographique WGS&#45;84 (latitude, longitude).">
<polygon fill="white" stroke="#666666" points="463.34,-217 344.34,-217 344.34,-187 463.34,-187 463.34,-217"/>
<text text-anchor="start" x="352.34" y="-205" font-family="Helvetica,sans-Serif" font-size="10.00">Modules/Coordinates</text>
<text text-anchor="middle" x="403.84" y="-194" font-family="Helvetica,sans-Serif" font-size="10.00">/LatLon.h</text>
</a>
</g>
</g>
<!-- Node5&#45;&gt;Node14 -->
<g id="edge17_Node000005_Node000014" class="edge">
<title>Node5&#45;&gt;Node14</title>
<g id="a_edge17_Node000005_Node000014"><a xlink:title=" ">
<path fill="none" stroke="#63b8ff" d="M406.95,-252.8C406.49,-245.34 405.9,-235.99 405.37,-227.41"/>
<polygon fill="#63b8ff" stroke="#63b8ff" points="408.84,-226.93 404.73,-217.16 401.86,-227.36 408.84,-226.93"/>
</a>
</g>
</g>
<!-- Node7 -->
<g id="Node000007" class="node">
<title>Node7</title>
<g id="a_Node000007"><a xlink:href="InteractiveElement_8h.html" target="_top" xlink:title="Classe de base abstraite pour tous les éléments interactifs ferroviaires.">
<polygon fill="white" stroke="#666666" points="591.34,-151 432.34,-151 432.34,-121 591.34,-121 591.34,-151"/>
<text text-anchor="start" x="440.34" y="-139" font-family="Helvetica,sans-Serif" font-size="10.00">Modules/InteractiveElements</text>
<text text-anchor="middle" x="511.84" y="-128" font-family="Helvetica,sans-Serif" font-size="10.00">/InteractiveElement.h</text>
</a>
</g>
</g>
<!-- Node6&#45;&gt;Node7 -->
<g id="edge8_Node000006_Node000007" class="edge">
<title>Node6&#45;&gt;Node7</title>
<g id="a_edge8_Node000006_Node000007"><a xlink:title=" ">
<path fill="none" stroke="#63b8ff" d="M532.61,-192.37C529.59,-184.32 524.95,-171.94 520.82,-160.93"/>
<polygon fill="#63b8ff" stroke="#63b8ff" points="524.02,-159.49 517.23,-151.36 517.46,-161.95 524.02,-159.49"/>
</a>
</g>
</g>
<!-- Node7&#45;&gt;Node3 -->
<g id="edge9_Node000007_Node000003" class="edge">
<title>Node7&#45;&gt;Node3</title>
<g id="a_edge9_Node000007_Node000003"><a xlink:title=" ">
<path fill="none" stroke="#63b8ff" d="M504.5,-120.72C492.73,-97.81 469.65,-52.93 456.88,-28.09"/>
<polygon fill="#63b8ff" stroke="#63b8ff" points="459.93,-26.36 452.25,-19.07 453.71,-29.56 459.93,-26.36"/>
</a>
</g>
</g>
<!-- Node7&#45;&gt;Node8 -->
<g id="edge10_Node000007_Node000008" class="edge">
<title>Node7&#45;&gt;Node8</title>
<g id="a_edge10_Node000007_Node000008"><a xlink:title=" ">
<path fill="none" stroke="#63b8ff" d="M541.47,-120.95C561.08,-111.66 586.99,-99.38 608.21,-89.32"/>
<polygon fill="#63b8ff" stroke="#63b8ff" points="609.75,-92.46 617.28,-85.01 606.75,-86.13 609.75,-92.46"/>
</a>
</g>
</g>
<!-- Node8&#45;&gt;Node3 -->
<g id="edge16_Node000008_Node000003" class="edge">
<title>Node8&#45;&gt;Node3</title>
<g id="a_edge16_Node000008_Node000003"><a xlink:title=" ">
<path fill="none" stroke="#63b8ff" d="M599.18,-54.99C562.24,-44.13 512.08,-29.38 479.83,-19.9"/>
<polygon fill="#63b8ff" stroke="#63b8ff" points="480.61,-16.48 470.03,-17.02 478.63,-23.2 480.61,-16.48"/>
</a>
</g>
</g>
<!-- Node9 -->
<g id="Node000009" class="node">
<title>Node9</title>
<g id="a_Node000009"><a xlink:title=" ">
<polygon fill="#e0e0e0" stroke="#999999" points="683.84,-19 639.84,-19 639.84,0 683.84,0 683.84,-19"/>
<text text-anchor="middle" x="661.84" y="-7" font-family="Helvetica,sans-Serif" font-size="10.00">ctime</text>
</a>
</g>
</g>
<!-- Node8&#45;&gt;Node9 -->
<g id="edge11_Node000008_Node000009" class="edge">
<title>Node8&#45;&gt;Node9</title>
<g id="a_edge11_Node000008_Node000009"><a xlink:title=" ">
<path fill="none" stroke="#63b8ff" d="M650.47,-54.84C652.45,-47.13 654.92,-37.49 657.06,-29.17"/>
<polygon fill="#63b8ff" stroke="#63b8ff" points="660.5,-29.82 659.59,-19.27 653.72,-28.08 660.5,-29.82"/>
</a>
</g>
</g>
<!-- Node10 -->
<g id="Node000010" class="node">
<title>Node10</title>
<g id="a_Node000010"><a xlink:title=" ">
<polygon fill="#e0e0e0" stroke="#999999" points="555.84,-19 487.84,-19 487.84,0 555.84,0 555.84,-19"/>
<text text-anchor="middle" x="521.84" y="-7" font-family="Helvetica,sans-Serif" font-size="10.00">filesystem</text>
</a>
</g>
</g>
<!-- Node8&#45;&gt;Node10 -->
<g id="edge12_Node000008_Node000010" class="edge">
<title>Node8&#45;&gt;Node10</title>
<g id="a_edge12_Node000008_Node000010"><a xlink:title=" ">
<path fill="none" stroke="#63b8ff" d="M616.9,-54.99C596.42,-45.4 569.46,-32.79 549.49,-23.44"/>
<polygon fill="#63b8ff" stroke="#63b8ff" points="550.84,-20.21 540.3,-19.14 547.88,-26.55 550.84,-20.21"/>
</a>
</g>
</g>
<!-- Node8&#45;&gt;Node11 -->
<g id="edge13_Node000008_Node000011" class="edge">
<title>Node8&#45;&gt;Node11</title>
<g id="a_edge13_Node000008_Node000011"><a xlink:title=" ">
<path fill="none" stroke="#63b8ff" d="M684.45,-54.99C710.88,-45.14 745.88,-32.1 771.15,-22.68"/>
<polygon fill="#63b8ff" stroke="#63b8ff" points="772.51,-25.91 780.66,-19.14 770.06,-19.35 772.51,-25.91"/>
</a>
</g>
</g>
<!-- Node12 -->
<g id="Node000012" class="node">
<title>Node12</title>
<g id="a_Node000012"><a xlink:title=" ">
<polygon fill="#e0e0e0" stroke="#999999" points="621.84,-19 573.84,-19 573.84,0 621.84,0 621.84,-19"/>
<text text-anchor="middle" x="597.84" y="-7" font-family="Helvetica,sans-Serif" font-size="10.00">mutex</text>
</a>
</g>
</g>
<!-- Node8&#45;&gt;Node12 -->
<g id="edge14_Node000008_Node000012" class="edge">
<title>Node8&#45;&gt;Node12</title>
<g id="a_edge14_Node000008_Node000012"><a xlink:title=" ">
<path fill="none" stroke="#63b8ff" d="M634.98,-54.84C627.94,-46.43 618.98,-35.74 611.63,-26.96"/>
<polygon fill="#63b8ff" stroke="#63b8ff" points="614.29,-24.68 605.18,-19.27 608.92,-29.18 614.29,-24.68"/>
</a>
</g>
</g>
<!-- Node13 -->
<g id="Node000013" class="node">
<title>Node13</title>
<g id="a_Node000013"><a xlink:title=" ">
<polygon fill="#e0e0e0" stroke="#999999" points="757.84,-19 701.84,-19 701.84,0 757.84,0 757.84,-19"/>
<text text-anchor="middle" x="729.84" y="-7" font-family="Helvetica,sans-Serif" font-size="10.00">sstream</text>
</a>
</g>
</g>
<!-- Node8&#45;&gt;Node13 -->
<g id="edge15_Node000008_Node000013" class="edge">
<title>Node8&#45;&gt;Node13</title>
<g id="a_edge15_Node000008_Node000013"><a xlink:title=" ">
<path fill="none" stroke="#63b8ff" d="M666.93,-54.84C679.72,-45.83 696.24,-34.18 709.14,-25.09"/>
<polygon fill="#63b8ff" stroke="#63b8ff" points="711.25,-27.89 717.4,-19.27 707.21,-22.17 711.25,-27.89"/>
</a>
</g>
</g>
<!-- Node15&#45;&gt;Node3 -->
<g id="edge21_Node000015_Node000003" class="edge">
<title>Node15&#45;&gt;Node3</title>
<g id="a_edge21_Node000015_Node000003"><a xlink:title=" ">
<path fill="none" stroke="#63b8ff" d="M610.88,-252.64C615.92,-225.16 623.26,-164.03 599.84,-121 573.47,-72.54 515.61,-39.89 479.38,-23.3"/>
<polygon fill="#63b8ff" stroke="#63b8ff" points="480.33,-19.9 469.77,-19.05 477.5,-26.3 480.33,-19.9"/>
</a>
</g>
</g>
<!-- Node15&#45;&gt;Node4 -->
<g id="edge22_Node000015_Node000004" class="edge">
<title>Node15&#45;&gt;Node4</title>
<g id="a_edge22_Node000015_Node000004"><a xlink:title=" ">
<path fill="none" stroke="#63b8ff" d="M529.53,-252.95C474.93,-243.08 400.4,-229.47 334.84,-217 322.62,-214.68 309.24,-212.06 297.41,-209.72"/>
<polygon fill="#63b8ff" stroke="#63b8ff" points="297.98,-206.26 287.49,-207.75 296.62,-213.13 297.98,-206.26"/>
</a>
</g>
</g>
<!-- Node15&#45;&gt;Node6 -->
<g id="edge24_Node000015_Node000006" class="edge">
<title>Node15&#45;&gt;Node6</title>
<g id="a_edge24_Node000015_Node000006"><a xlink:title=" ">
<path fill="none" stroke="#63b8ff" d="M591.86,-252.8C580.53,-242.72 565.31,-229.19 553.6,-218.78"/>
<polygon fill="#63b8ff" stroke="#63b8ff" points="555.59,-215.87 545.79,-211.84 550.94,-221.1 555.59,-215.87"/>
</a>
</g>
</g>
<!-- Node15&#45;&gt;Node13 -->
<g id="edge20_Node000015_Node000013" class="edge">
<title>Node15&#45;&gt;Node13</title>
<g id="a_edge20_Node000015_Node000013"><a xlink:title=" ">
<path fill="none" stroke="#63b8ff" d="M662.31,-252.96C680.98,-245.38 700.11,-233.97 711.84,-217 752.07,-158.8 741.13,-68.21 733.88,-29.3"/>
<polygon fill="#63b8ff" stroke="#63b8ff" points="737.29,-28.49 731.9,-19.37 730.43,-29.86 737.29,-28.49"/>
</a>
</g>
</g>
<!-- Node15&#45;&gt;Node14 -->
<g id="edge23_Node000015_Node000014" class="edge">
<title>Node15&#45;&gt;Node14</title>
<g id="a_edge23_Node000015_Node000014"><a xlink:title=" ">
<path fill="none" stroke="#63b8ff" d="M563.07,-252.95C532.25,-243.28 491.11,-230.38 458.38,-220.11"/>
<polygon fill="#63b8ff" stroke="#63b8ff" points="459.1,-216.67 448.51,-217.01 457,-223.35 459.1,-216.67"/>
</a>
</g>
</g>
<!-- Node16 -->
<g id="Node000016" class="node">
<title>Node16</title>
<g id="a_Node000016"><a xlink:title=" ">
<polygon fill="#e0e0e0" stroke="#999999" points="702.84,-211.5 646.84,-211.5 646.84,-192.5 702.84,-192.5 702.84,-211.5"/>
<text text-anchor="middle" x="674.84" y="-199.5" font-family="Helvetica,sans-Serif" font-size="10.00">optional</text>
</a>
</g>
</g>
<!-- Node15&#45;&gt;Node16 -->
<g id="edge19_Node000015_Node000016" class="edge">
<title>Node15&#45;&gt;Node16</title>
<g id="a_edge19_Node000015_Node000016"><a xlink:title=" ">
<path fill="none" stroke="#63b8ff" d="M622.71,-252.8C633.26,-242.72 647.42,-229.19 658.32,-218.78"/>
<polygon fill="#63b8ff" stroke="#63b8ff" points="660.77,-221.28 665.58,-211.84 655.93,-216.22 660.77,-221.28"/>
</a>
</g>
</g>
<!-- Node19 -->
<g id="Node000019" class="node">
<title>Node19</title>
<g id="a_Node000019"><a xlink:href="TopologyData_8h.html" target="_top" xlink:title="Conteneur central des données topologiques ferroviaires.">
<polygon fill="white" stroke="#666666" points="653.84,-338 561.84,-338 561.84,-319 653.84,-319 653.84,-338"/>
<text text-anchor="middle" x="607.84" y="-326" font-family="Helvetica,sans-Serif" font-size="10.00">TopologyData.h</text>
</a>
</g>
</g>
<!-- Node18&#45;&gt;Node19 -->
<g id="edge28_Node000018_Node000019" class="edge">
<title>Node18&#45;&gt;Node19</title>
<g id="a_edge28_Node000018_Node000019"><a xlink:title=" ">
<path fill="none" stroke="#63b8ff" d="M644.22,-373.84C637.4,-365.52 628.73,-354.96 621.57,-346.23"/>
<polygon fill="#63b8ff" stroke="#63b8ff" points="624.08,-343.78 615.03,-338.27 618.67,-348.22 624.08,-343.78"/>
</a>
</g>
</g>
<!-- Node19&#45;&gt;Node4 -->
<g id="edge30_Node000019_Node000004" class="edge">
<title>Node19&#45;&gt;Node4</title>
<g id="a_edge30_Node000019_Node000004"><a xlink:title=" ">
<path fill="none" stroke="#63b8ff" d="M561.77,-325.75C487.63,-322.11 346.1,-311.55 305.84,-283 285.09,-268.28 273.78,-240.11 268.27,-221.43"/>
<polygon fill="#63b8ff" stroke="#63b8ff" points="271.63,-220.46 265.67,-211.71 264.87,-222.27 271.63,-220.46"/>
</a>
</g>
</g>
<!-- Node19&#45;&gt;Node5 -->
<g id="edge31_Node000019_Node000005" class="edge">
<title>Node19&#45;&gt;Node5</title>
<g id="a_edge31_Node000019_Node000005"><a xlink:title=" ">
<path fill="none" stroke="#63b8ff" d="M578.76,-318.99C549.22,-310.35 502.68,-296.74 465.62,-285.9"/>
<polygon fill="#63b8ff" stroke="#63b8ff" points="466.51,-282.51 455.92,-283.06 464.54,-289.23 466.51,-282.51"/>
</a>
</g>
</g>
<!-- Node19&#45;&gt;Node15 -->
<g id="edge32_Node000019_Node000015" class="edge">
<title>Node19&#45;&gt;Node15</title>
<g id="a_edge32_Node000019_Node000015"><a xlink:title=" ">
<path fill="none" stroke="#63b8ff" d="M607.84,-318.87C607.84,-312.11 607.84,-302.35 607.84,-293.26"/>
<polygon fill="#63b8ff" stroke="#63b8ff" points="611.34,-293.11 607.84,-283.11 604.34,-293.11 611.34,-293.11"/>
</a>
</g>
</g>
<!-- Node20 -->
<g id="Node000020" class="node">
<title>Node20</title>
<g id="a_Node000020"><a xlink:title=" ">
<polygon fill="#e0e0e0" stroke="#999999" points="773.84,-277.5 715.84,-277.5 715.84,-258.5 773.84,-258.5 773.84,-277.5"/>
<text text-anchor="middle" x="744.84" y="-265.5" font-family="Helvetica,sans-Serif" font-size="10.00">memory</text>
</a>
</g>
</g>
<!-- Node19&#45;&gt;Node20 -->
<g id="edge29_Node000019_Node000020" class="edge">
<title>Node19&#45;&gt;Node20</title>
<g id="a_edge29_Node000019_Node000020"><a xlink:title=" ">
<path fill="none" stroke="#63b8ff" d="M627.76,-318.99C650.79,-309.16 688.92,-292.88 715.38,-281.58"/>
<polygon fill="#63b8ff" stroke="#63b8ff" points="717.07,-284.66 724.9,-277.52 714.33,-278.22 717.07,-284.66"/>
</a>
</g>
</g>
</g>
</svg>
