<?xml version="1.0" encoding="UTF-8" standalone="no"?>
<!DOCTYPE svg PUBLIC "-//W3C//DTD SVG 1.1//EN"
 "http://www.w3.org/Graphics/SVG/1.1/DTD/svg11.dtd">
<!-- Generated by graphviz version 2.43.0 (0)
 -->
<!-- Title: SimulateurFerroviaire/Modules/GeoParser/Graph/TopologyEdge.h Pages: 1 -->
<svg width="412pt" height="104pt"
 viewBox="0.00 0.00 412.00 104.00" xmlns="http://www.w3.org/2000/svg" xmlns:xlink="http://www.w3.org/1999/xlink">
<g id="graph0" class="graph" transform="scale(1 1) rotate(0) translate(4 100)">
<title>SimulateurFerroviaire/Modules/GeoParser/Graph/TopologyEdge.h</title>
<!-- Node1 -->
<g id="Node000001" class="node">
<title>Node1</title>
<g id="a_Node000001"><a xlink:title="Arête non&#45;orientée du graphe planaire de topologie ferroviaire.">
<polygon fill="#999999" stroke="#666666" points="234.5,-96 88.5,-96 88.5,-55 234.5,-55 234.5,-96"/>
<text text-anchor="start" x="96.5" y="-84" font-family="Helvetica,sans-Serif" font-size="10.00">SimulateurFerroviaire</text>
<text text-anchor="start" x="96.5" y="-73" font-family="Helvetica,sans-Serif" font-size="10.00">/Modules/GeoParser/Graph</text>
<text text-anchor="middle" x="161.5" y="-62" font-family="Helvetica,sans-Serif" font-size="10.00">/TopologyEdge.h</text>
</a>
</g>
</g>
<!-- Node2 -->
<g id="Node000002" class="node">
<title>Node2</title>
<g id="a_Node000002"><a xlink:title=" ">
<polygon fill="#e0e0e0" stroke="#999999" points="47,-19 0,-19 0,0 47,0 47,-19"/>
<text text-anchor="middle" x="23.5" y="-7" font-family="Helvetica,sans-Serif" font-size="10.00">cmath</text>
</a>
</g>
</g>
<!-- Node1&#45;&gt;Node2 -->
<g id="edge1_Node000001_Node000002" class="edge">
<title>Node1&#45;&gt;Node2</title>
<g id="a_edge1_Node000001_Node000002"><a xlink:title=" ">
<path fill="none" stroke="#63b8ff" d="M119.35,-54.95C97.24,-44.7 70.78,-32.43 51.27,-23.38"/>
<polygon fill="#63b8ff" stroke="#63b8ff" points="52.57,-20.12 42.03,-19.09 49.63,-26.47 52.57,-20.12"/>
</a>
</g>
</g>
<!-- Node3 -->
<g id="Node000003" class="node">
<title>Node3</title>
<g id="a_Node000003"><a xlink:title=" ">
<polygon fill="#e0e0e0" stroke="#999999" points="121.5,-19 65.5,-19 65.5,0 121.5,0 121.5,-19"/>
<text text-anchor="middle" x="93.5" y="-7" font-family="Helvetica,sans-Serif" font-size="10.00">sstream</text>
</a>
</g>
</g>
<!-- Node1&#45;&gt;Node3 -->
<g id="edge2_Node000001_Node000003" class="edge">
<title>Node1&#45;&gt;Node3</title>
<g id="a_edge2_Node000001_Node000003"><a xlink:title=" ">
<path fill="none" stroke="#63b8ff" d="M140.73,-54.95C130.94,-45.74 119.42,-34.9 110.21,-26.23"/>
<polygon fill="#63b8ff" stroke="#63b8ff" points="112.49,-23.57 102.81,-19.26 107.69,-28.66 112.49,-23.57"/>
</a>
</g>
</g>
<!-- Node4 -->
<g id="Node000004" class="node">
<title>Node4</title>
<g id="a_Node000004"><a xlink:title=" ">
<polygon fill="#e0e0e0" stroke="#999999" points="183.5,-19 139.5,-19 139.5,0 183.5,0 183.5,-19"/>
<text text-anchor="middle" x="161.5" y="-7" font-family="Helvetica,sans-Serif" font-size="10.00">string</text>
</a>
</g>
</g>
<!-- Node1&#45;&gt;Node4 -->
<g id="edge3_Node000001_Node000004" class="edge">
<title>Node1&#45;&gt;Node4</title>
<g id="a_edge3_Node000001_Node000004"><a xlink:title=" ">
<path fill="none" stroke="#63b8ff" d="M161.5,-54.95C161.5,-46.85 161.5,-37.5 161.5,-29.47"/>
<polygon fill="#63b8ff" stroke="#63b8ff" points="165,-29.26 161.5,-19.26 158,-29.26 165,-29.26"/>
</a>
</g>
</g>
<!-- Node5 -->
<g id="Node000005" class="node">
<title>Node5</title>
<g id="a_Node000005"><a xlink:title=" ">
<polygon fill="#e0e0e0" stroke="#999999" points="249,-19 202,-19 202,0 249,0 249,-19"/>
<text text-anchor="middle" x="225.5" y="-7" font-family="Helvetica,sans-Serif" font-size="10.00">vector</text>
</a>
</g>
</g>
<!-- Node1&#45;&gt;Node5 -->
<g id="edge4_Node000001_Node000005" class="edge">
<title>Node1&#45;&gt;Node5</title>
<g id="a_edge4_Node000001_Node000005"><a xlink:title=" ">
<path fill="none" stroke="#63b8ff" d="M181.05,-54.95C190.17,-45.83 200.89,-35.11 209.51,-26.49"/>
<polygon fill="#63b8ff" stroke="#63b8ff" points="212.14,-28.81 216.74,-19.26 207.19,-23.86 212.14,-28.81"/>
</a>
</g>
</g>
<!-- Node6 -->
<g id="Node000006" class="node">
<title>Node6</title>
<g id="a_Node000006"><a xlink:href="CoordinateXY_8h.html" target="_top" xlink:title="Représentation d&#39;une coordonnée plane en mètres (système métrique UTM).">
<polygon fill="white" stroke="#666666" points="404,-19 267,-19 267,0 404,0 404,-19"/>
<text text-anchor="middle" x="335.5" y="-7" font-family="Helvetica,sans-Serif" font-size="10.00">../Models/CoordinateXY.h</text>
</a>
</g>
</g>
<!-- Node1&#45;&gt;Node6 -->
<g id="edge5_Node000001_Node000006" class="edge">
<title>Node1&#45;&gt;Node6</title>
<g id="a_edge5_Node000001_Node000006"><a xlink:title=" ">
<path fill="none" stroke="#63b8ff" d="M214.65,-54.95C243.29,-44.42 277.72,-31.75 302.49,-22.64"/>
<polygon fill="#63b8ff" stroke="#63b8ff" points="303.96,-25.83 312.14,-19.09 301.55,-19.26 303.96,-25.83"/>
</a>
</g>
</g>
</g>
</svg>
