<?xml version="1.0" encoding="UTF-8" standalone="no"?>
<!DOCTYPE svg PUBLIC "-//W3C//DTD SVG 1.1//EN"
 "http://www.w3.org/Graphics/SVG/1.1/DTD/svg11.dtd">
<!-- Generated by graphviz version 2.43.0 (0)
 -->
<!-- Title: SimulateurFerroviaire/Modules/GeoParser/Graph/TopologyGraph.cpp Pages: 1 -->
<svg width="1060pt" height="214pt"
 viewBox="0.00 0.00 1060.46 214.00" xmlns="http://www.w3.org/2000/svg" xmlns:xlink="http://www.w3.org/1999/xlink">
<g id="graph0" class="graph" transform="scale(1 1) rotate(0) translate(4 210)">
<title>SimulateurFerroviaire/Modules/GeoParser/Graph/TopologyGraph.cpp</title>
<!-- Node1 -->
<g id="Node000001" class="node">
<title>Node1</title>
<g id="a_Node000001"><a xlink:title="Implémentation du graphe planaire de topologie ferroviaire.">
<polygon fill="#999999" stroke="#666666" points="984.19,-206 838.19,-206 838.19,-165 984.19,-165 984.19,-206"/>
<text text-anchor="start" x="846.19" y="-194" font-family="Helvetica,sans-Serif" font-size="10.00">SimulateurFerroviaire</text>
<text text-anchor="start" x="846.19" y="-183" font-family="Helvetica,sans-Serif" font-size="10.00">/Modules/GeoParser/Graph</text>
<text text-anchor="middle" x="911.19" y="-172" font-family="Helvetica,sans-Serif" font-size="10.00">/TopologyGraph.cpp</text>
</a>
</g>
</g>
<!-- Node2 -->
<g id="Node000002" class="node">
<title>Node2</title>
<g id="a_Node000002"><a xlink:href="TopologyGraph_8h.html" target="_top" xlink:title="Graphe planaire non&#45;orienté de nœuds et d&#39;arêtes ferroviaires accrochés.">
<polygon fill="white" stroke="#666666" points="389.19,-129 291.19,-129 291.19,-110 389.19,-110 389.19,-129"/>
<text text-anchor="middle" x="340.19" y="-117" font-family="Helvetica,sans-Serif" font-size="10.00">TopologyGraph.h</text>
</a>
</g>
</g>
<!-- Node1&#45;&gt;Node2 -->
<g id="edge1_Node000001_Node000002" class="edge">
<title>Node1&#45;&gt;Node2</title>
<g id="a_edge1_Node000001_Node000002"><a xlink:title=" ">
<path fill="none" stroke="#63b8ff" d="M838,-176.3C723.54,-163.47 504.43,-138.91 399.31,-127.13"/>
<polygon fill="#63b8ff" stroke="#63b8ff" points="399.52,-123.63 389.2,-125.99 398.74,-130.59 399.52,-123.63"/>
</a>
</g>
</g>
<!-- Node11 -->
<g id="Node000011" class="node">
<title>Node11</title>
<g id="a_Node000011"><a xlink:title=" ">
<polygon fill="#e0e0e0" stroke="#999999" points="1009.69,-19 962.69,-19 962.69,0 1009.69,0 1009.69,-19"/>
<text text-anchor="middle" x="986.19" y="-7" font-family="Helvetica,sans-Serif" font-size="10.00">cmath</text>
</a>
</g>
</g>
<!-- Node1&#45;&gt;Node11 -->
<g id="edge18_Node000001_Node000011" class="edge">
<title>Node1&#45;&gt;Node11</title>
<g id="a_edge18_Node000001_Node000011"><a xlink:title=" ">
<path fill="none" stroke="#63b8ff" d="M984.24,-171.11C1007.69,-162.98 1031.2,-149.94 1045.19,-129 1068.35,-94.34 1029.07,-49.31 1004.21,-26"/>
<polygon fill="#63b8ff" stroke="#63b8ff" points="1006.5,-23.36 996.74,-19.24 1001.8,-28.55 1006.5,-23.36"/>
</a>
</g>
</g>
<!-- Node15 -->
<g id="Node000015" class="node">
<title>Node15</title>
<g id="a_Node000015"><a xlink:title=" ">
<polygon fill="#e0e0e0" stroke="#999999" points="906.19,-129 842.19,-129 842.19,-110 906.19,-110 906.19,-129"/>
<text text-anchor="middle" x="874.19" y="-117" font-family="Helvetica,sans-Serif" font-size="10.00">algorithm</text>
</a>
</g>
</g>
<!-- Node1&#45;&gt;Node15 -->
<g id="edge17_Node000001_Node000015" class="edge">
<title>Node1&#45;&gt;Node15</title>
<g id="a_edge17_Node000001_Node000015"><a xlink:title=" ">
<path fill="none" stroke="#63b8ff" d="M899.89,-164.95C894.94,-156.39 889.17,-146.42 884.36,-138.1"/>
<polygon fill="#63b8ff" stroke="#63b8ff" points="887.29,-136.17 879.25,-129.26 881.23,-139.67 887.29,-136.17"/>
</a>
</g>
</g>
<!-- Node16 -->
<g id="Node000016" class="node">
<title>Node16</title>
<g id="a_Node000016"><a xlink:title=" ">
<polygon fill="#e0e0e0" stroke="#999999" points="974.19,-129 924.19,-129 924.19,-110 974.19,-110 974.19,-129"/>
<text text-anchor="middle" x="949.19" y="-117" font-family="Helvetica,sans-Serif" font-size="10.00">cstring</text>
</a>
</g>
</g>
<!-- Node1&#45;&gt;Node16 -->
<g id="edge19_Node000001_Node000016" class="edge">
<title>Node1&#45;&gt;Node16</title>
<g id="a_edge19_Node000001_Node000016"><a xlink:title=" ">
<path fill="none" stroke="#63b8ff" d="M922.8,-164.95C927.88,-156.39 933.8,-146.42 938.74,-138.1"/>
<polygon fill="#63b8ff" stroke="#63b8ff" points="941.89,-139.65 943.99,-129.26 935.87,-136.07 941.89,-139.65"/>
</a>
</g>
</g>
<!-- Node17 -->
<g id="Node000017" class="node">
<title>Node17</title>
<g id="a_Node000017"><a xlink:title=" ">
<polygon fill="#e0e0e0" stroke="#999999" points="1036.19,-129 992.19,-129 992.19,-110 1036.19,-110 1036.19,-129"/>
<text text-anchor="middle" x="1014.19" y="-117" font-family="Helvetica,sans-Serif" font-size="10.00">limits</text>
</a>
</g>
</g>
<!-- Node1&#45;&gt;Node17 -->
<g id="edge20_Node000001_Node000017" class="edge">
<title>Node1&#45;&gt;Node17</title>
<g id="a_edge20_Node000001_Node000017"><a xlink:title=" ">
<path fill="none" stroke="#63b8ff" d="M942.65,-164.95C958.47,-155.12 977.28,-143.43 991.64,-134.51"/>
<polygon fill="#63b8ff" stroke="#63b8ff" points="993.71,-137.34 1000.36,-129.09 990.02,-131.4 993.71,-137.34"/>
</a>
</g>
</g>
<!-- Node18 -->
<g id="Node000018" class="node">
<title>Node18</title>
<g id="a_Node000018"><a xlink:href="GeometryUtils_8h.html" target="_top" xlink:title="Utilitaires géométriques métriques pour le pipeline ferroviaire.">
<polygon fill="white" stroke="#666666" points="823.69,-129 692.69,-129 692.69,-110 823.69,-110 823.69,-129"/>
<text text-anchor="middle" x="758.19" y="-117" font-family="Helvetica,sans-Serif" font-size="10.00">../Utils/GeometryUtils.h</text>
</a>
</g>
</g>
<!-- Node1&#45;&gt;Node18 -->
<g id="edge21_Node000001_Node000018" class="edge">
<title>Node1&#45;&gt;Node18</title>
<g id="a_edge21_Node000001_Node000018"><a xlink:title=" ">
<path fill="none" stroke="#63b8ff" d="M864.45,-164.95C839.61,-154.56 809.8,-142.09 788.09,-133.01"/>
<polygon fill="#63b8ff" stroke="#63b8ff" points="789.3,-129.72 778.73,-129.09 786.6,-136.18 789.3,-129.72"/>
</a>
</g>
</g>
<!-- Node3 -->
<g id="Node000003" class="node">
<title>Node3</title>
<g id="a_Node000003"><a xlink:title=" ">
<polygon fill="#e0e0e0" stroke="#999999" points="66.19,-74 16.19,-74 16.19,-55 66.19,-55 66.19,-74"/>
<text text-anchor="middle" x="41.19" y="-62" font-family="Helvetica,sans-Serif" font-size="10.00">cstdint</text>
</a>
</g>
</g>
<!-- Node2&#45;&gt;Node3 -->
<g id="edge2_Node000002_Node000003" class="edge">
<title>Node2&#45;&gt;Node3</title>
<g id="a_edge2_Node000002_Node000003"><a xlink:title=" ">
<path fill="none" stroke="#63b8ff" d="M291.13,-111.44C239.86,-103.8 156.88,-90.7 76.21,-74.08"/>
<polygon fill="#63b8ff" stroke="#63b8ff" points="76.89,-70.65 66.39,-72.03 75.46,-77.5 76.89,-70.65"/>
</a>
</g>
</g>
<!-- Node4 -->
<g id="Node000004" class="node">
<title>Node4</title>
<g id="a_Node000004"><a xlink:title=" ">
<polygon fill="#e0e0e0" stroke="#999999" points="149.69,-74 84.69,-74 84.69,-55 149.69,-55 149.69,-74"/>
<text text-anchor="middle" x="117.19" y="-62" font-family="Helvetica,sans-Serif" font-size="10.00">functional</text>
</a>
</g>
</g>
<!-- Node2&#45;&gt;Node4 -->
<g id="edge3_Node000002_Node000004" class="edge">
<title>Node2&#45;&gt;Node4</title>
<g id="a_edge3_Node000002_Node000004"><a xlink:title=" ">
<path fill="none" stroke="#63b8ff" d="M304.36,-109.98C265,-100.63 201.84,-85.62 159.93,-75.66"/>
<polygon fill="#63b8ff" stroke="#63b8ff" points="160.56,-72.21 150.02,-73.3 158.94,-79.02 160.56,-72.21"/>
</a>
</g>
</g>
<!-- Node5 -->
<g id="Node000005" class="node">
<title>Node5</title>
<g id="a_Node000005"><a xlink:title=" ">
<polygon fill="#e0e0e0" stroke="#999999" points="758.19,-74 702.19,-74 702.19,-55 758.19,-55 758.19,-74"/>
<text text-anchor="middle" x="730.19" y="-62" font-family="Helvetica,sans-Serif" font-size="10.00">optional</text>
</a>
</g>
</g>
<!-- Node2&#45;&gt;Node5 -->
<g id="edge4_Node000002_Node000005" class="edge">
<title>Node2&#45;&gt;Node5</title>
<g id="a_edge4_Node000002_Node000005"><a xlink:title=" ">
<path fill="none" stroke="#63b8ff" d="M389.24,-113.89C455.7,-107.29 578.2,-93.91 692.04,-74.04"/>
<polygon fill="#63b8ff" stroke="#63b8ff" points="692.73,-77.48 701.97,-72.29 691.51,-70.58 692.73,-77.48"/>
</a>
</g>
</g>
<!-- Node6 -->
<g id="Node000006" class="node">
<title>Node6</title>
<g id="a_Node000006"><a xlink:title=" ">
<polygon fill="#e0e0e0" stroke="#999999" points="161.19,-19 117.19,-19 117.19,0 161.19,0 161.19,-19"/>
<text text-anchor="middle" x="139.19" y="-7" font-family="Helvetica,sans-Serif" font-size="10.00">string</text>
</a>
</g>
</g>
<!-- Node2&#45;&gt;Node6 -->
<g id="edge5_Node000002_Node000006" class="edge">
<title>Node2&#45;&gt;Node6</title>
<g id="a_edge5_Node000002_Node000006"><a xlink:title=" ">
<path fill="none" stroke="#63b8ff" d="M290.93,-115.45C202.79,-109.49 25.58,-95.01 7.19,-74 -23.79,-38.61 58.87,-21.21 107.15,-14.28"/>
<polygon fill="#63b8ff" stroke="#63b8ff" points="107.73,-17.74 117.17,-12.92 106.79,-10.8 107.73,-17.74"/>
</a>
</g>
</g>
<!-- Node7 -->
<g id="Node000007" class="node">
<title>Node7</title>
<g id="a_Node000007"><a xlink:title=" ">
<polygon fill="#e0e0e0" stroke="#999999" points="299.69,-74 206.69,-74 206.69,-55 299.69,-55 299.69,-74"/>
<text text-anchor="middle" x="253.19" y="-62" font-family="Helvetica,sans-Serif" font-size="10.00">unordered_map</text>
</a>
</g>
</g>
<!-- Node2&#45;&gt;Node7 -->
<g id="edge6_Node000002_Node000007" class="edge">
<title>Node2&#45;&gt;Node7</title>
<g id="a_edge6_Node000002_Node000007"><a xlink:title=" ">
<path fill="none" stroke="#63b8ff" d="M326.21,-109.98C312.72,-101.77 292.05,-89.18 276.15,-79.49"/>
<polygon fill="#63b8ff" stroke="#63b8ff" points="277.78,-76.38 267.42,-74.17 274.14,-82.36 277.78,-76.38"/>
</a>
</g>
</g>
<!-- Node8 -->
<g id="Node000008" class="node">
<title>Node8</title>
<g id="a_Node000008"><a xlink:title=" ">
<polygon fill="#e0e0e0" stroke="#999999" points="362.69,-74 317.69,-74 317.69,-55 362.69,-55 362.69,-74"/>
<text text-anchor="middle" x="340.19" y="-62" font-family="Helvetica,sans-Serif" font-size="10.00">utility</text>
</a>
</g>
</g>
<!-- Node2&#45;&gt;Node8 -->
<g id="edge7_Node000002_Node000008" class="edge">
<title>Node2&#45;&gt;Node8</title>
<g id="a_edge7_Node000002_Node000008"><a xlink:title=" ">
<path fill="none" stroke="#63b8ff" d="M340.19,-109.75C340.19,-102.8 340.19,-92.85 340.19,-84.13"/>
<polygon fill="#63b8ff" stroke="#63b8ff" points="343.69,-84.09 340.19,-74.09 336.69,-84.09 343.69,-84.09"/>
</a>
</g>
</g>
<!-- Node9 -->
<g id="Node000009" class="node">
<title>Node9</title>
<g id="a_Node000009"><a xlink:title=" ">
<polygon fill="#e0e0e0" stroke="#999999" points="450.69,-19 403.69,-19 403.69,0 450.69,0 450.69,-19"/>
<text text-anchor="middle" x="427.19" y="-7" font-family="Helvetica,sans-Serif" font-size="10.00">vector</text>
</a>
</g>
</g>
<!-- Node2&#45;&gt;Node9 -->
<g id="edge8_Node000002_Node000009" class="edge">
<title>Node2&#45;&gt;Node9</title>
<g id="a_edge8_Node000002_Node000009"><a xlink:title=" ">
<path fill="none" stroke="#63b8ff" d="M290.75,-113.57C238.68,-106.44 167.96,-90.05 197.19,-55 224.02,-22.82 336.4,-27.79 393.46,-18.7"/>
<polygon fill="#63b8ff" stroke="#63b8ff" points="394.26,-22.12 403.44,-16.83 392.97,-15.24 394.26,-22.12"/>
</a>
</g>
</g>
<!-- Node10 -->
<g id="Node000010" class="node">
<title>Node10</title>
<g id="a_Node000010"><a xlink:href="TopologyEdge_8h.html" target="_top" xlink:title="Arête non&#45;orientée du graphe planaire de topologie ferroviaire.">
<polygon fill="white" stroke="#666666" points="473.69,-74 380.69,-74 380.69,-55 473.69,-55 473.69,-74"/>
<text text-anchor="middle" x="427.19" y="-62" font-family="Helvetica,sans-Serif" font-size="10.00">TopologyEdge.h</text>
</a>
</g>
</g>
<!-- Node2&#45;&gt;Node10 -->
<g id="edge9_Node000002_Node000010" class="edge">
<title>Node2&#45;&gt;Node10</title>
<g id="a_edge9_Node000002_Node000010"><a xlink:title=" ">
<path fill="none" stroke="#63b8ff" d="M354.17,-109.98C367.66,-101.77 388.32,-89.18 404.23,-79.49"/>
<polygon fill="#63b8ff" stroke="#63b8ff" points="406.24,-82.36 412.96,-74.17 402.59,-76.38 406.24,-82.36"/>
</a>
</g>
</g>
<!-- Node13 -->
<g id="Node000013" class="node">
<title>Node13</title>
<g id="a_Node000013"><a xlink:href="CoordinateXY_8h.html" target="_top" xlink:title="Représentation d&#39;une coordonnée plane en mètres (système métrique UTM).">
<polygon fill="white" stroke="#666666" points="605.69,-19 468.69,-19 468.69,0 605.69,0 605.69,-19"/>
<text text-anchor="middle" x="537.19" y="-7" font-family="Helvetica,sans-Serif" font-size="10.00">../Models/CoordinateXY.h</text>
</a>
</g>
</g>
<!-- Node2&#45;&gt;Node13 -->
<g id="edge15_Node000002_Node000013" class="edge">
<title>Node2&#45;&gt;Node13</title>
<g id="a_edge15_Node000002_Node000013"><a xlink:title=" ">
<path fill="none" stroke="#63b8ff" d="M389.44,-110.08C418.2,-103.52 454.21,-92.34 482.19,-74 500.6,-61.93 516.42,-42.02 526.3,-27.71"/>
<polygon fill="#63b8ff" stroke="#63b8ff" points="529.3,-29.52 531.91,-19.25 523.47,-25.65 529.3,-29.52"/>
</a>
</g>
</g>
<!-- Node14 -->
<g id="Node000014" class="node">
<title>Node14</title>
<g id="a_Node000014"><a xlink:href="GeoParserEnums_8h.html" target="_top" xlink:title="Constantes nommées et énumérations du pipeline ferroviaire GeoParser.">
<polygon fill="white" stroke="#666666" points="683.69,-74 530.69,-74 530.69,-55 683.69,-55 683.69,-74"/>
<text text-anchor="middle" x="607.19" y="-62" font-family="Helvetica,sans-Serif" font-size="10.00">../Enums/GeoParserEnums.h</text>
</a>
</g>
</g>
<!-- Node2&#45;&gt;Node14 -->
<g id="edge16_Node000002_Node000014" class="edge">
<title>Node2&#45;&gt;Node14</title>
<g id="a_edge16_Node000002_Node000014"><a xlink:title=" ">
<path fill="none" stroke="#63b8ff" d="M383.09,-109.98C429.56,-100.76 503.78,-86.03 553.94,-76.07"/>
<polygon fill="#63b8ff" stroke="#63b8ff" points="554.83,-79.46 563.95,-74.08 553.46,-72.6 554.83,-79.46"/>
</a>
</g>
</g>
<!-- Node10&#45;&gt;Node6 -->
<g id="edge12_Node000010_Node000006" class="edge">
<title>Node10&#45;&gt;Node6</title>
<g id="a_edge12_Node000010_Node000006"><a xlink:title=" ">
<path fill="none" stroke="#63b8ff" d="M380.92,-54.98C322.28,-44.19 222.71,-25.87 171.59,-16.46"/>
<polygon fill="#63b8ff" stroke="#63b8ff" points="171.92,-12.96 161.45,-14.6 170.65,-19.85 171.92,-12.96"/>
</a>
</g>
</g>
<!-- Node10&#45;&gt;Node9 -->
<g id="edge13_Node000010_Node000009" class="edge">
<title>Node10&#45;&gt;Node9</title>
<g id="a_edge13_Node000010_Node000009"><a xlink:title=" ">
<path fill="none" stroke="#63b8ff" d="M427.19,-54.75C427.19,-47.8 427.19,-37.85 427.19,-29.13"/>
<polygon fill="#63b8ff" stroke="#63b8ff" points="430.69,-29.09 427.19,-19.09 423.69,-29.09 430.69,-29.09"/>
</a>
</g>
</g>
<!-- Node10&#45;&gt;Node11 -->
<g id="edge10_Node000010_Node000011" class="edge">
<title>Node10&#45;&gt;Node11</title>
<g id="a_edge10_Node000010_Node000011"><a xlink:title=" ">
<path fill="none" stroke="#63b8ff" d="M473.89,-59.07C583.91,-48.64 857.29,-22.72 952.7,-13.68"/>
<polygon fill="#63b8ff" stroke="#63b8ff" points="953.03,-17.16 962.66,-12.73 952.37,-10.19 953.03,-17.16"/>
</a>
</g>
</g>
<!-- Node12 -->
<g id="Node000012" class="node">
<title>Node12</title>
<g id="a_Node000012"><a xlink:title=" ">
<polygon fill="#e0e0e0" stroke="#999999" points="385.19,-19 329.19,-19 329.19,0 385.19,0 385.19,-19"/>
<text text-anchor="middle" x="357.19" y="-7" font-family="Helvetica,sans-Serif" font-size="10.00">sstream</text>
</a>
</g>
</g>
<!-- Node10&#45;&gt;Node12 -->
<g id="edge11_Node000010_Node000012" class="edge">
<title>Node10&#45;&gt;Node12</title>
<g id="a_edge11_Node000010_Node000012"><a xlink:title=" ">
<path fill="none" stroke="#63b8ff" d="M415.94,-54.98C405.39,-47 389.39,-34.88 376.75,-25.31"/>
<polygon fill="#63b8ff" stroke="#63b8ff" points="378.72,-22.42 368.64,-19.17 374.5,-28 378.72,-22.42"/>
</a>
</g>
</g>
<!-- Node10&#45;&gt;Node13 -->
<g id="edge14_Node000010_Node000013" class="edge">
<title>Node10&#45;&gt;Node13</title>
<g id="a_edge14_Node000010_Node000013"><a xlink:title=" ">
<path fill="none" stroke="#63b8ff" d="M444.86,-54.98C462.48,-46.5 489.77,-33.35 510.11,-23.54"/>
<polygon fill="#63b8ff" stroke="#63b8ff" points="511.7,-26.66 519.19,-19.17 508.66,-20.36 511.7,-26.66"/>
</a>
</g>
</g>
<!-- Node18&#45;&gt;Node5 -->
<g id="edge23_Node000018_Node000005" class="edge">
<title>Node18&#45;&gt;Node5</title>
<g id="a_edge23_Node000018_Node000005"><a xlink:title=" ">
<path fill="none" stroke="#63b8ff" d="M753.56,-109.75C749.73,-102.49 744.16,-91.95 739.42,-82.98"/>
<polygon fill="#63b8ff" stroke="#63b8ff" points="742.49,-81.3 734.73,-74.09 736.3,-84.57 742.49,-81.3"/>
</a>
</g>
</g>
<!-- Node18&#45;&gt;Node9 -->
<g id="edge24_Node000018_Node000009" class="edge">
<title>Node18&#45;&gt;Node9</title>
<g id="a_edge24_Node000018_Node000009"><a xlink:title=" ">
<path fill="none" stroke="#63b8ff" d="M763.15,-109.89C770.2,-96.41 780.81,-70.3 767.19,-55 723.26,-5.63 542.59,-29.69 460.8,-18.79"/>
<polygon fill="#63b8ff" stroke="#63b8ff" points="461.3,-15.33 450.87,-17.19 460.18,-22.24 461.3,-15.33"/>
</a>
</g>
</g>
<!-- Node18&#45;&gt;Node11 -->
<g id="edge22_Node000018_Node000011" class="edge">
<title>Node18&#45;&gt;Node11</title>
<g id="a_edge22_Node000018_Node000011"><a xlink:title=" ">
<path fill="none" stroke="#63b8ff" d="M811.76,-110C869.82,-100.33 955.77,-84.53 967.19,-74 979.47,-62.67 983.93,-43.77 985.49,-29.53"/>
<polygon fill="#63b8ff" stroke="#63b8ff" points="989,-29.56 986.22,-19.34 982.02,-29.06 989,-29.56"/>
</a>
</g>
</g>
<!-- Node18&#45;&gt;Node13 -->
<g id="edge26_Node000018_Node000013" class="edge">
<title>Node18&#45;&gt;Node13</title>
<g id="a_edge26_Node000018_Node000013"><a xlink:title=" ">
<path fill="none" stroke="#63b8ff" d="M771.15,-109.84C788.54,-97.18 815.54,-73.17 800.19,-55 776.95,-27.5 684.88,-16.99 616.2,-12.97"/>
<polygon fill="#63b8ff" stroke="#63b8ff" points="615.99,-9.46 605.81,-12.41 615.61,-16.45 615.99,-9.46"/>
</a>
</g>
</g>
<!-- Node18&#45;&gt;Node14 -->
<g id="edge27_Node000018_Node000014" class="edge">
<title>Node18&#45;&gt;Node14</title>
<g id="a_edge27_Node000018_Node000014"><a xlink:title=" ">
<path fill="none" stroke="#63b8ff" d="M733.93,-109.98C708.87,-101.19 669.56,-87.39 641.36,-77.49"/>
<polygon fill="#63b8ff" stroke="#63b8ff" points="642.48,-74.18 631.89,-74.17 640.17,-80.78 642.48,-74.18"/>
</a>
</g>
</g>
<!-- Node19 -->
<g id="Node000019" class="node">
<title>Node19</title>
<g id="a_Node000019"><a xlink:href="LatLon_8h.html" target="_top" xlink:title="Représentation d&#39;une coordonnée géographique WGS&#45;84 (latitude, longitude).">
<polygon fill="white" stroke="#666666" points="957.69,-74 852.69,-74 852.69,-55 957.69,-55 957.69,-74"/>
<text text-anchor="middle" x="905.19" y="-62" font-family="Helvetica,sans-Serif" font-size="10.00">../Models/LatLon.h</text>
</a>
</g>
</g>
<!-- Node18&#45;&gt;Node19 -->
<g id="edge25_Node000018_Node000019" class="edge">
<title>Node18&#45;&gt;Node19</title>
<g id="a_edge25_Node000018_Node000019"><a xlink:title=" ">
<path fill="none" stroke="#63b8ff" d="M781.81,-109.98C806.09,-101.23 844.14,-87.51 871.56,-77.62"/>
<polygon fill="#63b8ff" stroke="#63b8ff" points="872.92,-80.85 881.14,-74.17 870.55,-74.27 872.92,-80.85"/>
</a>
</g>
</g>
</g>
</svg>
