<?xml version="1.0" encoding="UTF-8" standalone="no"?>
<!DOCTYPE svg PUBLIC "-//W3C//DTD SVG 1.1//EN"
 "http://www.w3.org/Graphics/SVG/1.1/DTD/svg11.dtd">
<!-- Generated by graphviz version 2.43.0 (0)
 -->
<!-- Title: SimulateurFerroviaire/Engine/Core/Topology/TopologyData.h Pages: 1 -->
<svg width="517pt" height="203pt"
 viewBox="0.00 0.00 517.00 203.00" xmlns="http://www.w3.org/2000/svg" xmlns:xlink="http://www.w3.org/1999/xlink">
<g id="graph0" class="graph" transform="scale(1 1) rotate(0) translate(4 199)">
<title>SimulateurFerroviaire/Engine/Core/Topology/TopologyData.h</title>
<!-- Node1 -->
<g id="Node000001" class="node">
<title>Node1</title>
<g id="a_Node000001"><a xlink:title="Conteneur central des données topologiques ferroviaires.">
<polygon fill="#999999" stroke="#666666" points="288,-195 163,-195 163,-154 288,-154 288,-195"/>
<text text-anchor="start" x="171" y="-183" font-family="Helvetica,sans-Serif" font-size="10.00">SimulateurFerroviaire</text>
<text text-anchor="start" x="171" y="-172" font-family="Helvetica,sans-Serif" font-size="10.00">/Engine/Core/Topology</text>
<text text-anchor="middle" x="225.5" y="-161" font-family="Helvetica,sans-Serif" font-size="10.00">/TopologyData.h</text>
</a>
</g>
</g>
<!-- Node2 -->
<g id="Node000002" class="node">
<title>Node2</title>
<g id="a_Node000002"><a xlink:href="TopologyRepository_8h.html" target="_top" xlink:title="Singleton de stockage des données topologiques ferroviaires.">
<polygon fill="white" stroke="#666666" points="288,-118 163,-118 163,-77 288,-77 288,-118"/>
<text text-anchor="start" x="171" y="-106" font-family="Helvetica,sans-Serif" font-size="10.00">SimulateurFerroviaire</text>
<text text-anchor="start" x="171" y="-95" font-family="Helvetica,sans-Serif" font-size="10.00">/Engine/Core/Topology</text>
<text text-anchor="middle" x="225.5" y="-84" font-family="Helvetica,sans-Serif" font-size="10.00">/TopologyRepository.h</text>
</a>
</g>
</g>
<!-- Node1&#45;&gt;Node2 -->
<g id="edge1_Node000001_Node000002" class="edge">
<title>Node1&#45;&gt;Node2</title>
<g id="a_edge1_Node000001_Node000002"><a xlink:title=" ">
<path fill="none" stroke="#63b8ff" d="M225.5,-143.69C225.5,-135.08 225.5,-125.9 225.5,-118.07"/>
<polygon fill="#63b8ff" stroke="#63b8ff" points="222,-143.79 225.5,-153.79 229,-143.79 222,-143.79"/>
</a>
</g>
</g>
<!-- Node3 -->
<g id="Node000003" class="node">
<title>Node3</title>
<g id="a_Node000003"><a xlink:href="TopologyRenderer_8cpp.html" target="_top" xlink:title="Implémentation de l&#39;exporteur GeoJSON.">
<polygon fill="white" stroke="#666666" points="127,-41 0,-41 0,0 127,0 127,-41"/>
<text text-anchor="start" x="8" y="-29" font-family="Helvetica,sans-Serif" font-size="10.00">SimulateurFerroviaire</text>
<text text-anchor="start" x="8" y="-18" font-family="Helvetica,sans-Serif" font-size="10.00">/Engine/Core/Topology</text>
<text text-anchor="middle" x="63.5" y="-7" font-family="Helvetica,sans-Serif" font-size="10.00">/TopologyRenderer.cpp</text>
</a>
</g>
</g>
<!-- Node2&#45;&gt;Node3 -->
<g id="edge2_Node000002_Node000003" class="edge">
<title>Node2&#45;&gt;Node3</title>
<g id="a_edge2_Node000002_Node000003"><a xlink:title=" ">
<path fill="none" stroke="#63b8ff" d="M174.14,-72.72C152.09,-62.51 126.64,-50.73 105.71,-41.04"/>
<polygon fill="#63b8ff" stroke="#63b8ff" points="172.81,-75.97 183.36,-76.99 175.76,-69.61 172.81,-75.97"/>
</a>
</g>
</g>
<!-- Node4 -->
<g id="Node000004" class="node">
<title>Node4</title>
<g id="a_Node000004"><a xlink:href="MainWindow_8cpp.html" target="_top" xlink:title="Implémentation de la fenêtre principale.">
<polygon fill="white" stroke="#666666" points="306,-35.5 145,-35.5 145,-5.5 306,-5.5 306,-35.5"/>
<text text-anchor="start" x="153" y="-23.5" font-family="Helvetica,sans-Serif" font-size="10.00">SimulateurFerroviaire</text>
<text text-anchor="middle" x="225.5" y="-12.5" font-family="Helvetica,sans-Serif" font-size="10.00">/Engine/HMI/MainWindow.cpp</text>
</a>
</g>
</g>
<!-- Node2&#45;&gt;Node4 -->
<g id="edge3_Node000002_Node000004" class="edge">
<title>Node2&#45;&gt;Node4</title>
<g id="a_edge3_Node000002_Node000004"><a xlink:title=" ">
<path fill="none" stroke="#63b8ff" d="M225.5,-66.61C225.5,-56.01 225.5,-44.57 225.5,-35.86"/>
<polygon fill="#63b8ff" stroke="#63b8ff" points="222,-66.79 225.5,-76.79 229,-66.79 222,-66.79"/>
</a>
</g>
</g>
<!-- Node5 -->
<g id="Node000005" class="node">
<title>Node5</title>
<g id="a_Node000005"><a xlink:href="GeoParser_8cpp.html" target="_top" xlink:title="Implémentation du pipeline GeoParser.">
<polygon fill="white" stroke="#666666" points="509,-35.5 324,-35.5 324,-5.5 509,-5.5 509,-35.5"/>
<text text-anchor="start" x="332" y="-23.5" font-family="Helvetica,sans-Serif" font-size="10.00">SimulateurFerroviaire</text>
<text text-anchor="middle" x="416.5" y="-12.5" font-family="Helvetica,sans-Serif" font-size="10.00">/Modules/GeoParser/GeoParser.cpp</text>
</a>
</g>
</g>
<!-- Node2&#45;&gt;Node5 -->
<g id="edge4_Node000002_Node000005" class="edge">
<title>Node2&#45;&gt;Node5</title>
<g id="a_edge4_Node000002_Node000005"><a xlink:title=" ">
<path fill="none" stroke="#63b8ff" d="M284.71,-73.25C316.12,-60.92 353.67,-46.17 380.64,-35.58"/>
<polygon fill="#63b8ff" stroke="#63b8ff" points="283.21,-70.08 275.18,-76.99 285.77,-76.59 283.21,-70.08"/>
</a>
</g>
</g>
</g>
</svg>
