<?xml version="1.0" encoding="UTF-8" standalone="no"?>
<!DOCTYPE svg PUBLIC "-//W3C//DTD SVG 1.1//EN"
 "http://www.w3.org/Graphics/SVG/1.1/DTD/svg11.dtd">
<!-- Generated by graphviz version 2.43.0 (0)
 -->
<!-- Title: SimulateurFerroviaire/Modules/Models/TopologyRepository.h Pages: 1 -->
<svg width="349pt" height="203pt"
 viewBox="0.00 0.00 349.00 203.00" xmlns="http://www.w3.org/2000/svg" xmlns:xlink="http://www.w3.org/1999/xlink">
<g id="graph0" class="graph" transform="scale(1 1) rotate(0) translate(4 199)">
<title>SimulateurFerroviaire/Modules/Models/TopologyRepository.h</title>
<!-- Node1 -->
<g id="Node000001" class="node">
<title>Node1</title>
<g id="a_Node000001"><a xlink:title="Singleton de stockage des données topologiques ferroviaires.">
<polygon fill="#999999" stroke="#666666" points="206,-195 0,-195 0,-165 206,-165 206,-195"/>
<text text-anchor="start" x="8" y="-183" font-family="Helvetica,sans-Serif" font-size="10.00">SimulateurFerroviaire</text>
<text text-anchor="middle" x="103" y="-172" font-family="Helvetica,sans-Serif" font-size="10.00">/Modules/Models/TopologyRepository.h</text>
</a>
</g>
</g>
<!-- Node2 -->
<g id="Node000002" class="node">
<title>Node2</title>
<g id="a_Node000002"><a xlink:href="TopologyData_8h.html" target="_top" xlink:title="Conteneur central des données topologiques ferroviaires.">
<polygon fill="white" stroke="#666666" points="149,-129 57,-129 57,-110 149,-110 149,-129"/>
<text text-anchor="middle" x="103" y="-117" font-family="Helvetica,sans-Serif" font-size="10.00">TopologyData.h</text>
</a>
</g>
</g>
<!-- Node1&#45;&gt;Node2 -->
<g id="edge1_Node000001_Node000002" class="edge">
<title>Node1&#45;&gt;Node2</title>
<g id="a_edge1_Node000001_Node000002"><a xlink:title=" ">
<path fill="none" stroke="#63b8ff" d="M103,-164.84C103,-157.21 103,-147.7 103,-139.45"/>
<polygon fill="#63b8ff" stroke="#63b8ff" points="106.5,-139.27 103,-129.27 99.5,-139.27 106.5,-139.27"/>
</a>
</g>
</g>
<!-- Node3 -->
<g id="Node000003" class="node">
<title>Node3</title>
<g id="a_Node000003"><a xlink:title=" ">
<polygon fill="#e0e0e0" stroke="#999999" points="54.5,-19 7.5,-19 7.5,0 54.5,0 54.5,-19"/>
<text text-anchor="middle" x="31" y="-7" font-family="Helvetica,sans-Serif" font-size="10.00">vector</text>
</a>
</g>
</g>
<!-- Node2&#45;&gt;Node3 -->
<g id="edge2_Node000002_Node000003" class="edge">
<title>Node2&#45;&gt;Node3</title>
<g id="a_edge2_Node000002_Node000003"><a xlink:title=" ">
<path fill="none" stroke="#63b8ff" d="M87.68,-109.88C75.19,-102.07 58.04,-89.45 48,-74 39.26,-60.54 34.99,-42.71 32.92,-29.37"/>
<polygon fill="#63b8ff" stroke="#63b8ff" points="36.39,-28.89 31.65,-19.41 29.44,-29.77 36.39,-28.89"/>
</a>
</g>
</g>
<!-- Node4 -->
<g id="Node000004" class="node">
<title>Node4</title>
<g id="a_Node000004"><a xlink:href="StraightBlock_8h.html" target="_top" xlink:title="Modèle de domaine d&#39;un bloc de voie droite (Straight).">
<polygon fill="white" stroke="#666666" points="148.5,-74 57.5,-74 57.5,-55 148.5,-55 148.5,-74"/>
<text text-anchor="middle" x="103" y="-62" font-family="Helvetica,sans-Serif" font-size="10.00">StraightBlock.h</text>
</a>
</g>
</g>
<!-- Node2&#45;&gt;Node4 -->
<g id="edge3_Node000002_Node000004" class="edge">
<title>Node2&#45;&gt;Node4</title>
<g id="a_edge3_Node000002_Node000004"><a xlink:title=" ">
<path fill="none" stroke="#63b8ff" d="M103,-109.75C103,-102.8 103,-92.85 103,-84.13"/>
<polygon fill="#63b8ff" stroke="#63b8ff" points="106.5,-84.09 103,-74.09 99.5,-84.09 106.5,-84.09"/>
</a>
</g>
</g>
<!-- Node8 -->
<g id="Node000008" class="node">
<title>Node8</title>
<g id="a_Node000008"><a xlink:href="SwitchBlock_8h.html" target="_top" xlink:title="Modèle de domaine d&#39;un aiguillage ferroviaire à 3 branches (Switch).">
<polygon fill="white" stroke="#666666" points="251.5,-74 166.5,-74 166.5,-55 251.5,-55 251.5,-74"/>
<text text-anchor="middle" x="209" y="-62" font-family="Helvetica,sans-Serif" font-size="10.00">SwitchBlock.h</text>
</a>
</g>
</g>
<!-- Node2&#45;&gt;Node8 -->
<g id="edge8_Node000002_Node000008" class="edge">
<title>Node2&#45;&gt;Node8</title>
<g id="a_edge8_Node000002_Node000008"><a xlink:title=" ">
<path fill="none" stroke="#63b8ff" d="M120.03,-109.98C136.93,-101.54 163.06,-88.47 182.64,-78.68"/>
<polygon fill="#63b8ff" stroke="#63b8ff" points="184.28,-81.77 191.66,-74.17 181.15,-75.51 184.28,-81.77"/>
</a>
</g>
</g>
<!-- Node4&#45;&gt;Node3 -->
<g id="edge6_Node000004_Node000003" class="edge">
<title>Node4&#45;&gt;Node3</title>
<g id="a_edge6_Node000004_Node000003"><a xlink:title=" ">
<path fill="none" stroke="#63b8ff" d="M91.43,-54.98C80.58,-47 64.12,-34.88 51.12,-25.31"/>
<polygon fill="#63b8ff" stroke="#63b8ff" points="52.91,-22.28 42.78,-19.17 48.76,-27.92 52.91,-22.28"/>
</a>
</g>
</g>
<!-- Node5 -->
<g id="Node000005" class="node">
<title>Node5</title>
<g id="a_Node000005"><a xlink:title=" ">
<polygon fill="#e0e0e0" stroke="#999999" points="129,-19 73,-19 73,0 129,0 129,-19"/>
<text text-anchor="middle" x="101" y="-7" font-family="Helvetica,sans-Serif" font-size="10.00">sstream</text>
</a>
</g>
</g>
<!-- Node4&#45;&gt;Node5 -->
<g id="edge4_Node000004_Node000005" class="edge">
<title>Node4&#45;&gt;Node5</title>
<g id="a_edge4_Node000004_Node000005"><a xlink:title=" ">
<path fill="none" stroke="#63b8ff" d="M102.67,-54.75C102.41,-47.8 102.03,-37.85 101.7,-29.13"/>
<polygon fill="#63b8ff" stroke="#63b8ff" points="105.2,-28.95 101.32,-19.09 98.2,-29.21 105.2,-28.95"/>
</a>
</g>
</g>
<!-- Node6 -->
<g id="Node000006" class="node">
<title>Node6</title>
<g id="a_Node000006"><a xlink:title=" ">
<polygon fill="#e0e0e0" stroke="#999999" points="191,-19 147,-19 147,0 191,0 191,-19"/>
<text text-anchor="middle" x="169" y="-7" font-family="Helvetica,sans-Serif" font-size="10.00">string</text>
</a>
</g>
</g>
<!-- Node4&#45;&gt;Node6 -->
<g id="edge5_Node000004_Node000006" class="edge">
<title>Node4&#45;&gt;Node6</title>
<g id="a_edge5_Node000004_Node000006"><a xlink:title=" ">
<path fill="none" stroke="#63b8ff" d="M113.6,-54.98C123.46,-47.07 138.35,-35.11 150.22,-25.58"/>
<polygon fill="#63b8ff" stroke="#63b8ff" points="152.6,-28.16 158.2,-19.17 148.21,-22.7 152.6,-28.16"/>
</a>
</g>
</g>
<!-- Node7 -->
<g id="Node000007" class="node">
<title>Node7</title>
<g id="a_Node000007"><a xlink:href="LatLon_8h.html" target="_top" xlink:title="Représentation d&#39;une coordonnée géographique WGS&#45;84 (latitude, longitude).">
<polygon fill="white" stroke="#666666" points="267,-19 209,-19 209,0 267,0 267,-19"/>
<text text-anchor="middle" x="238" y="-7" font-family="Helvetica,sans-Serif" font-size="10.00">LatLon.h</text>
</a>
</g>
</g>
<!-- Node4&#45;&gt;Node7 -->
<g id="edge7_Node000004_Node000007" class="edge">
<title>Node4&#45;&gt;Node7</title>
<g id="a_edge7_Node000004_Node000007"><a xlink:title=" ">
<path fill="none" stroke="#63b8ff" d="M124.69,-54.98C146.8,-46.3 181.32,-32.75 206.45,-22.88"/>
<polygon fill="#63b8ff" stroke="#63b8ff" points="207.89,-26.08 215.92,-19.17 205.33,-19.57 207.89,-26.08"/>
</a>
</g>
</g>
<!-- Node8&#45;&gt;Node3 -->
<g id="edge12_Node000008_Node000003" class="edge">
<title>Node8&#45;&gt;Node3</title>
<g id="a_edge12_Node000008_Node000003"><a xlink:title=" ">
<path fill="none" stroke="#63b8ff" d="M180.4,-54.98C148.78,-45.57 97.91,-30.42 64.47,-20.46"/>
<polygon fill="#63b8ff" stroke="#63b8ff" points="65.27,-17.05 54.69,-17.55 63.27,-23.76 65.27,-17.05"/>
</a>
</g>
</g>
<!-- Node8&#45;&gt;Node5 -->
<g id="edge10_Node000008_Node000005" class="edge">
<title>Node8&#45;&gt;Node5</title>
<g id="a_edge10_Node000008_Node000005"><a xlink:title=" ">
<path fill="none" stroke="#63b8ff" d="M191.65,-54.98C174.43,-46.54 147.8,-33.47 127.85,-23.68"/>
<polygon fill="#63b8ff" stroke="#63b8ff" points="129.19,-20.43 118.67,-19.17 126.1,-26.72 129.19,-20.43"/>
</a>
</g>
</g>
<!-- Node8&#45;&gt;Node6 -->
<g id="edge11_Node000008_Node000006" class="edge">
<title>Node8&#45;&gt;Node6</title>
<g id="a_edge11_Node000008_Node000006"><a xlink:title=" ">
<path fill="none" stroke="#63b8ff" d="M202.39,-54.75C196.74,-47.26 188.46,-36.28 181.55,-27.13"/>
<polygon fill="#63b8ff" stroke="#63b8ff" points="184.3,-24.96 175.48,-19.09 178.71,-29.18 184.3,-24.96"/>
</a>
</g>
</g>
<!-- Node8&#45;&gt;Node7 -->
<g id="edge13_Node000008_Node000007" class="edge">
<title>Node8&#45;&gt;Node7</title>
<g id="a_edge13_Node000008_Node000007"><a xlink:title=" ">
<path fill="none" stroke="#63b8ff" d="M213.79,-54.75C217.76,-47.49 223.53,-36.95 228.43,-27.98"/>
<polygon fill="#63b8ff" stroke="#63b8ff" points="231.57,-29.54 233.3,-19.09 225.43,-26.18 231.57,-29.54"/>
</a>
</g>
</g>
<!-- Node9 -->
<g id="Node000009" class="node">
<title>Node9</title>
<g id="a_Node000009"><a xlink:title=" ">
<polygon fill="#e0e0e0" stroke="#999999" points="341,-19 285,-19 285,0 341,0 341,-19"/>
<text text-anchor="middle" x="313" y="-7" font-family="Helvetica,sans-Serif" font-size="10.00">optional</text>
</a>
</g>
</g>
<!-- Node8&#45;&gt;Node9 -->
<g id="edge9_Node000008_Node000009" class="edge">
<title>Node8&#45;&gt;Node9</title>
<g id="a_edge9_Node000008_Node000009"><a xlink:title=" ">
<path fill="none" stroke="#63b8ff" d="M225.71,-54.98C242.21,-46.57 267.7,-33.59 286.88,-23.81"/>
<polygon fill="#63b8ff" stroke="#63b8ff" points="288.67,-26.83 295.99,-19.17 285.49,-20.59 288.67,-26.83"/>
</a>
</g>
</g>
</g>
</svg>
