<?xml version="1.0" encoding="UTF-8" standalone="no"?>
<!DOCTYPE svg PUBLIC "-//W3C//DTD SVG 1.1//EN"
 "http://www.w3.org/Graphics/SVG/1.1/DTD/svg11.dtd">
<!-- Generated by graphviz version 2.43.0 (0)
 -->
<!-- Title: SimulateurFerroviaire/Modules/GeoParser/TopologyExtractor.h Pages: 1 -->
<svg width="1805pt" height="313pt"
 viewBox="0.00 0.00 1804.97 313.00" xmlns="http://www.w3.org/2000/svg" xmlns:xlink="http://www.w3.org/1999/xlink">
<g id="graph0" class="graph" transform="scale(1 1) rotate(0) translate(4 309)">
<title>SimulateurFerroviaire/Modules/GeoParser/TopologyExtractor.h</title>
<!-- Node1 -->
<g id="Node000001" class="node">
<title>Node1</title>
<g id="a_Node000001"><a xlink:title="Phases 3, 4, 5a et 5b — extraction de la topologie ferroviaire depuis le graphe.">
<polygon fill="#999999" stroke="#666666" points="395.48,-305 235.48,-305 235.48,-264 395.48,-264 395.48,-305"/>
<text text-anchor="start" x="243.48" y="-293" font-family="Helvetica,sans-Serif" font-size="10.00">SimulateurFerroviaire</text>
<text text-anchor="start" x="243.48" y="-282" font-family="Helvetica,sans-Serif" font-size="10.00">/Modules/GeoParser/Topology</text>
<text text-anchor="middle" x="315.48" y="-271" font-family="Helvetica,sans-Serif" font-size="10.00">Extractor.h</text>
</a>
</g>
</g>
<!-- Node2 -->
<g id="Node000002" class="node">
<title>Node2</title>
<g id="a_Node000002"><a xlink:title=" ">
<polygon fill="#e0e0e0" stroke="#999999" points="243.48,-156.5 211.48,-156.5 211.48,-137.5 243.48,-137.5 243.48,-156.5"/>
<text text-anchor="middle" x="227.48" y="-144.5" font-family="Helvetica,sans-Serif" font-size="10.00">set</text>
</a>
</g>
</g>
<!-- Node1&#45;&gt;Node2 -->
<g id="edge1_Node000001_Node000002" class="edge">
<title>Node1&#45;&gt;Node2</title>
<g id="a_edge1_Node000001_Node000002"><a xlink:title=" ">
<path fill="none" stroke="#63b8ff" d="M302.68,-263.8C285.44,-237.24 255.01,-190.4 238.65,-165.2"/>
<polygon fill="#63b8ff" stroke="#63b8ff" points="241.5,-163.17 233.12,-156.69 235.63,-166.98 241.5,-163.17"/>
</a>
</g>
</g>
<!-- Node3 -->
<g id="Node000003" class="node">
<title>Node3</title>
<g id="a_Node000003"><a xlink:title=" ">
<polygon fill="#e0e0e0" stroke="#999999" points="1301.48,-24.5 1257.48,-24.5 1257.48,-5.5 1301.48,-5.5 1301.48,-24.5"/>
<text text-anchor="middle" x="1279.48" y="-12.5" font-family="Helvetica,sans-Serif" font-size="10.00">string</text>
</a>
</g>
</g>
<!-- Node1&#45;&gt;Node3 -->
<g id="edge2_Node000001_Node000003" class="edge">
<title>Node1&#45;&gt;Node3</title>
<g id="a_edge2_Node000001_Node000003"><a xlink:title=" ">
<path fill="none" stroke="#63b8ff" d="M395.63,-283.03C668.48,-281.05 1550.95,-271.33 1670.48,-228 1715.77,-211.58 1726.99,-200.1 1756.48,-162 1783.68,-126.85 1814.32,-98.94 1784.48,-66 1752.7,-30.93 1418.5,-19.51 1311.93,-16.74"/>
<polygon fill="#63b8ff" stroke="#63b8ff" points="1311.87,-13.24 1301.78,-16.49 1311.69,-20.24 1311.87,-13.24"/>
</a>
</g>
</g>
<!-- Node4 -->
<g id="Node000004" class="node">
<title>Node4</title>
<g id="a_Node000004"><a xlink:title=" ">
<polygon fill="#e0e0e0" stroke="#999999" points="121.98,-90.5 28.98,-90.5 28.98,-71.5 121.98,-71.5 121.98,-90.5"/>
<text text-anchor="middle" x="75.48" y="-78.5" font-family="Helvetica,sans-Serif" font-size="10.00">unordered_map</text>
</a>
</g>
</g>
<!-- Node1&#45;&gt;Node4 -->
<g id="edge3_Node000001_Node000004" class="edge">
<title>Node1&#45;&gt;Node4</title>
<g id="a_edge3_Node000001_Node000004"><a xlink:title=" ">
<path fill="none" stroke="#63b8ff" d="M252.54,-263.91C230.29,-255.12 205.97,-243.24 186.48,-228 139.37,-191.18 101.65,-129.82 84.89,-99.74"/>
<polygon fill="#63b8ff" stroke="#63b8ff" points="87.89,-97.92 80.03,-90.81 81.74,-101.27 87.89,-97.92"/>
</a>
</g>
</g>
<!-- Node5 -->
<g id="Node000005" class="node">
<title>Node5</title>
<g id="a_Node000005"><a xlink:title=" ">
<polygon fill="#e0e0e0" stroke="#999999" points="223.98,-90.5 178.98,-90.5 178.98,-71.5 223.98,-71.5 223.98,-90.5"/>
<text text-anchor="middle" x="201.48" y="-78.5" font-family="Helvetica,sans-Serif" font-size="10.00">utility</text>
</a>
</g>
</g>
<!-- Node1&#45;&gt;Node5 -->
<g id="edge4_Node000001_Node000005" class="edge">
<title>Node1&#45;&gt;Node5</title>
<g id="a_edge4_Node000001_Node000005"><a xlink:title=" ">
<path fill="none" stroke="#63b8ff" d="M253.54,-263.99C235.41,-255.53 217.09,-243.84 204.48,-228 175.08,-191.08 186.85,-130.66 195.46,-100.44"/>
<polygon fill="#63b8ff" stroke="#63b8ff" points="198.84,-101.35 198.41,-90.77 192.14,-99.31 198.84,-101.35"/>
</a>
</g>
</g>
<!-- Node6 -->
<g id="Node000006" class="node">
<title>Node6</title>
<g id="a_Node000006"><a xlink:title=" ">
<polygon fill="#e0e0e0" stroke="#999999" points="560.98,-24.5 513.98,-24.5 513.98,-5.5 560.98,-5.5 560.98,-24.5"/>
<text text-anchor="middle" x="537.48" y="-12.5" font-family="Helvetica,sans-Serif" font-size="10.00">vector</text>
</a>
</g>
</g>
<!-- Node1&#45;&gt;Node6 -->
<g id="edge5_Node000001_Node000006" class="edge">
<title>Node1&#45;&gt;Node6</title>
<g id="a_edge5_Node000001_Node000006"><a xlink:title=" ">
<path fill="none" stroke="#63b8ff" d="M245.76,-263.94C134.72,-229.56 -61.89,-153.62 19.48,-66 56.32,-26.32 452.92,-43.04 505.48,-30 507.42,-29.52 509.39,-28.93 511.36,-28.27"/>
<polygon fill="#63b8ff" stroke="#63b8ff" points="512.88,-31.43 520.91,-24.51 510.33,-24.91 512.88,-31.43"/>
</a>
</g>
</g>
<!-- Node7 -->
<g id="Node000007" class="node">
<title>Node7</title>
<g id="a_Node000007"><a xlink:href="GraphBuilder_8h.html" target="_top" xlink:title="Phases 1 et 2 du pipeline — chargement GeoJSON et construction du graphe métrique.">
<polygon fill="white" stroke="#666666" points="401.98,-222.5 312.98,-222.5 312.98,-203.5 401.98,-203.5 401.98,-222.5"/>
<text text-anchor="middle" x="357.48" y="-210.5" font-family="Helvetica,sans-Serif" font-size="10.00">GraphBuilder.h</text>
</a>
</g>
</g>
<!-- Node1&#45;&gt;Node7 -->
<g id="edge6_Node000001_Node000007" class="edge">
<title>Node1&#45;&gt;Node7</title>
<g id="a_edge6_Node000001_Node000007"><a xlink:title=" ">
<path fill="none" stroke="#63b8ff" d="M327.4,-263.77C333.51,-253.66 340.89,-241.44 346.81,-231.64"/>
<polygon fill="#63b8ff" stroke="#63b8ff" points="349.97,-233.19 352.15,-222.82 343.98,-229.57 349.97,-233.19"/>
</a>
</g>
</g>
<!-- Node16 -->
<g id="Node000016" class="node">
<title>Node16</title>
<g id="a_Node000016"><a xlink:href="GeoParserEnums_8h.html" target="_top" xlink:title="Constantes nommées et énumérations du pipeline ferroviaire GeoParser.">
<polygon fill="white" stroke="#666666" points="433.98,-90.5 280.98,-90.5 280.98,-71.5 433.98,-71.5 433.98,-90.5"/>
<text text-anchor="middle" x="357.48" y="-78.5" font-family="Helvetica,sans-Serif" font-size="10.00">../Enums/GeoParserEnums.h</text>
</a>
</g>
</g>
<!-- Node1&#45;&gt;Node16 -->
<g id="edge49_Node000001_Node000016" class="edge">
<title>Node1&#45;&gt;Node16</title>
<g id="a_edge49_Node000001_Node000016"><a xlink:title=" ">
<path fill="none" stroke="#63b8ff" d="M282.32,-263.99C237.7,-235.25 167.71,-179.75 202.48,-132 218.56,-109.91 244.6,-97.37 270.78,-90.32"/>
<polygon fill="#63b8ff" stroke="#63b8ff" points="271.91,-93.65 280.79,-87.88 270.25,-86.85 271.91,-93.65"/>
</a>
</g>
</g>
<!-- Node18 -->
<g id="Node000018" class="node">
<title>Node18</title>
<g id="a_Node000018"><a xlink:href="Logger_8h.html" target="_top" xlink:title="Système de journalisation à 5 niveaux de trace, un fichier par moteur.">
<polygon fill="white" stroke="#666666" points="1385.98,-162 1274.98,-162 1274.98,-132 1385.98,-132 1385.98,-162"/>
<text text-anchor="start" x="1282.98" y="-150" font-family="Helvetica,sans-Serif" font-size="10.00">Engine/Core/Logger</text>
<text text-anchor="middle" x="1330.48" y="-139" font-family="Helvetica,sans-Serif" font-size="10.00">/Logger.h</text>
</a>
</g>
</g>
<!-- Node1&#45;&gt;Node18 -->
<g id="edge50_Node000001_Node000018" class="edge">
<title>Node1&#45;&gt;Node18</title>
<g id="a_edge50_Node000001_Node000018"><a xlink:title=" ">
<path fill="none" stroke="#63b8ff" d="M395.55,-272.81C590.25,-246.82 1085.6,-180.69 1264.64,-156.79"/>
<polygon fill="#63b8ff" stroke="#63b8ff" points="1265.26,-160.24 1274.71,-155.45 1264.33,-153.3 1265.26,-160.24"/>
</a>
</g>
</g>
<!-- Node23 -->
<g id="Node000023" class="node">
<title>Node23</title>
<g id="a_Node000023"><a xlink:href="StraightBlock_8h.html" target="_top" xlink:title="Modèle de domaine d&#39;un bloc de voie droite (Straight).">
<polygon fill="white" stroke="#666666" points="1660.98,-228 1475.98,-228 1475.98,-198 1660.98,-198 1660.98,-228"/>
<text text-anchor="start" x="1483.98" y="-216" font-family="Helvetica,sans-Serif" font-size="10.00">Modules/InteractiveElements</text>
<text text-anchor="middle" x="1568.48" y="-205" font-family="Helvetica,sans-Serif" font-size="10.00">/ShuntingElements/StraightBlock.h</text>
</a>
</g>
</g>
<!-- Node1&#45;&gt;Node23 -->
<g id="edge36_Node000001_Node000023" class="edge">
<title>Node1&#45;&gt;Node23</title>
<g id="a_edge36_Node000001_Node000023"><a xlink:title=" ">
<path fill="none" stroke="#63b8ff" d="M395.76,-279.05C614.75,-266.9 1222.25,-233.2 1465.66,-219.7"/>
<polygon fill="#63b8ff" stroke="#63b8ff" points="1466.13,-223.18 1475.93,-219.13 1465.75,-216.19 1466.13,-223.18"/>
</a>
</g>
</g>
<!-- Node26 -->
<g id="Node000026" class="node">
<title>Node26</title>
<g id="a_Node000026"><a xlink:href="SwitchBlock_8h.html" target="_top" xlink:title="Modèle de domaine d&#39;un aiguillage ferroviaire à 3 branches.">
<polygon fill="white" stroke="#666666" points="999.98,-162 820.98,-162 820.98,-132 999.98,-132 999.98,-162"/>
<text text-anchor="start" x="828.98" y="-150" font-family="Helvetica,sans-Serif" font-size="10.00">Modules/InteractiveElements</text>
<text text-anchor="middle" x="910.48" y="-139" font-family="Helvetica,sans-Serif" font-size="10.00">/ShuntingElements/SwitchBlock.h</text>
</a>
</g>
</g>
<!-- Node1&#45;&gt;Node26 -->
<g id="edge43_Node000001_Node000026" class="edge">
<title>Node1&#45;&gt;Node26</title>
<g id="a_edge43_Node000001_Node000026"><a xlink:title=" ">
<path fill="none" stroke="#63b8ff" d="M395.72,-265.23C512.42,-238.65 727.19,-189.74 838.83,-164.32"/>
<polygon fill="#63b8ff" stroke="#63b8ff" points="839.68,-167.71 848.66,-162.08 838.13,-160.89 839.68,-167.71"/>
</a>
</g>
</g>
<!-- Node7&#45;&gt;Node2 -->
<g id="edge7_Node000007_Node000002" class="edge">
<title>Node7&#45;&gt;Node2</title>
<g id="a_edge7_Node000007_Node000002"><a xlink:title=" ">
<path fill="none" stroke="#63b8ff" d="M339.95,-203.37C317.45,-192.3 278.29,-173.01 252.62,-160.38"/>
<polygon fill="#63b8ff" stroke="#63b8ff" points="254.03,-157.17 243.51,-155.89 250.94,-163.45 254.03,-157.17"/>
</a>
</g>
</g>
<!-- Node7&#45;&gt;Node3 -->
<g id="edge8_Node000007_Node000003" class="edge">
<title>Node7&#45;&gt;Node3</title>
<g id="a_edge8_Node000007_Node000003"><a xlink:title=" ">
<path fill="none" stroke="#63b8ff" d="M402.39,-209.85C545.82,-202.82 984.95,-179.91 1009.48,-162 1046.67,-134.84 1013.23,-95.63 1048.48,-66 1078.28,-40.95 1190.83,-25.56 1247.08,-19.28"/>
<polygon fill="#63b8ff" stroke="#63b8ff" points="1247.65,-22.74 1257.21,-18.18 1246.89,-15.78 1247.65,-22.74"/>
</a>
</g>
</g>
<!-- Node7&#45;&gt;Node6 -->
<g id="edge9_Node000007_Node000006" class="edge">
<title>Node7&#45;&gt;Node6</title>
<g id="a_edge9_Node000007_Node000006"><a xlink:title=" ">
<path fill="none" stroke="#63b8ff" d="M347.88,-203.26C329.01,-185.36 287.62,-142.27 272.48,-96 268.33,-83.33 263.8,-76.12 272.48,-66 306.58,-26.23 455.17,-44.62 505.48,-30 507.16,-29.51 508.87,-28.95 510.58,-28.35"/>
<polygon fill="#63b8ff" stroke="#63b8ff" points="512.17,-31.48 520.18,-24.54 509.59,-24.98 512.17,-31.48"/>
</a>
</g>
</g>
<!-- Node8 -->
<g id="Node000008" class="node">
<title>Node8</title>
<g id="a_Node000008"><a xlink:href="TopologyGraph_8h.html" target="_top" xlink:title="Graphe planaire non&#45;orienté de nœuds et d&#39;arêtes ferroviaires accrochés.">
<polygon fill="white" stroke="#666666" points="568.98,-156.5 431.98,-156.5 431.98,-137.5 568.98,-137.5 568.98,-156.5"/>
<text text-anchor="middle" x="500.48" y="-144.5" font-family="Helvetica,sans-Serif" font-size="10.00">./Graph/TopologyGraph.h</text>
</a>
</g>
</g>
<!-- Node7&#45;&gt;Node8 -->
<g id="edge10_Node000007_Node000008" class="edge">
<title>Node7&#45;&gt;Node8</title>
<g id="a_edge10_Node000007_Node000008"><a xlink:title=" ">
<path fill="none" stroke="#63b8ff" d="M376.76,-203.37C401.18,-192.44 443.45,-173.52 471.69,-160.88"/>
<polygon fill="#63b8ff" stroke="#63b8ff" points="473.34,-163.98 481.04,-156.7 470.48,-157.59 473.34,-163.98"/>
</a>
</g>
</g>
<!-- Node15 -->
<g id="Node000015" class="node">
<title>Node15</title>
<g id="a_Node000015"><a xlink:href="CoordinateXY_8h.html" target="_top" xlink:title="Représentation d&#39;une coordonnée plane en mètres (système métrique UTM).">
<polygon fill="white" stroke="#666666" points="495.98,-30 376.98,-30 376.98,0 495.98,0 495.98,-30"/>
<text text-anchor="start" x="384.98" y="-18" font-family="Helvetica,sans-Serif" font-size="10.00">Modules/Coordinates</text>
<text text-anchor="middle" x="436.48" y="-7" font-family="Helvetica,sans-Serif" font-size="10.00">/CoordinateXY.h</text>
</a>
</g>
</g>
<!-- Node7&#45;&gt;Node15 -->
<g id="edge28_Node000007_Node000015" class="edge">
<title>Node7&#45;&gt;Node15</title>
<g id="a_edge28_Node000007_Node000015"><a xlink:title=" ">
<path fill="none" stroke="#63b8ff" d="M346.77,-203.31C324.16,-185.06 272.05,-143.47 252.48,-132 217.79,-111.67 191.54,-129.62 169.48,-96 162.16,-84.85 160.96,-76.26 169.48,-66 194.1,-36.34 296.13,-24.17 366.69,-19.25"/>
<polygon fill="#63b8ff" stroke="#63b8ff" points="367.11,-22.73 376.85,-18.58 366.64,-15.75 367.11,-22.73"/>
</a>
</g>
</g>
<!-- Node7&#45;&gt;Node16 -->
<g id="edge26_Node000007_Node000016" class="edge">
<title>Node7&#45;&gt;Node16</title>
<g id="a_edge26_Node000007_Node000016"><a xlink:title=" ">
<path fill="none" stroke="#63b8ff" d="M357.48,-203.47C357.48,-182.82 357.48,-129.72 357.48,-101.04"/>
<polygon fill="#63b8ff" stroke="#63b8ff" points="360.98,-100.73 357.48,-90.73 353.98,-100.73 360.98,-100.73"/>
</a>
</g>
</g>
<!-- Node17 -->
<g id="Node000017" class="node">
<title>Node17</title>
<g id="a_Node000017"><a xlink:href="LatLon_8h.html" target="_top" xlink:title="Représentation d&#39;une coordonnée géographique WGS&#45;84 (latitude, longitude).">
<polygon fill="white" stroke="#666666" points="1175.98,-96 1056.98,-96 1056.98,-66 1175.98,-66 1175.98,-96"/>
<text text-anchor="start" x="1064.98" y="-84" font-family="Helvetica,sans-Serif" font-size="10.00">Modules/Coordinates</text>
<text text-anchor="middle" x="1116.48" y="-73" font-family="Helvetica,sans-Serif" font-size="10.00">/LatLon.h</text>
</a>
</g>
</g>
<!-- Node7&#45;&gt;Node17 -->
<g id="edge27_Node000007_Node000017" class="edge">
<title>Node7&#45;&gt;Node17</title>
<g id="a_edge27_Node000007_Node000017"><a xlink:title=" ">
<path fill="none" stroke="#63b8ff" d="M402.1,-210.64C544.94,-206.02 985,-189.67 1042.48,-162 1068.53,-149.46 1089.84,-123.39 1102.8,-104.41"/>
<polygon fill="#63b8ff" stroke="#63b8ff" points="1105.75,-106.29 1108.31,-96 1099.9,-102.45 1105.75,-106.29"/>
</a>
</g>
</g>
<!-- Node7&#45;&gt;Node18 -->
<g id="edge29_Node000007_Node000018" class="edge">
<title>Node7&#45;&gt;Node18</title>
<g id="a_edge29_Node000007_Node000018"><a xlink:title=" ">
<path fill="none" stroke="#63b8ff" d="M402.13,-209.06C558.17,-198.8 1079.57,-164.5 1264.63,-152.33"/>
<polygon fill="#63b8ff" stroke="#63b8ff" points="1265.01,-155.81 1274.76,-151.66 1264.55,-148.83 1265.01,-155.81"/>
</a>
</g>
</g>
<!-- Node8&#45;&gt;Node3 -->
<g id="edge14_Node000008_Node000003" class="edge">
<title>Node8&#45;&gt;Node3</title>
<g id="a_edge14_Node000008_Node000003"><a xlink:title=" ">
<path fill="none" stroke="#63b8ff" d="M569.26,-143.25C628.34,-138.72 714.62,-126.88 783.48,-96 803.11,-87.19 801.56,-74.15 821.48,-66 899,-34.27 1156.27,-20.99 1247.25,-17.21"/>
<polygon fill="#63b8ff" stroke="#63b8ff" points="1247.41,-20.71 1257.26,-16.81 1247.12,-13.71 1247.41,-20.71"/>
</a>
</g>
</g>
<!-- Node8&#45;&gt;Node4 -->
<g id="edge15_Node000008_Node000004" class="edge">
<title>Node8&#45;&gt;Node4</title>
<g id="a_edge15_Node000008_Node000004"><a xlink:title=" ">
<path fill="none" stroke="#63b8ff" d="M443.6,-137.44C362.26,-125.19 213.57,-102.8 132.28,-90.55"/>
<polygon fill="#63b8ff" stroke="#63b8ff" points="132.63,-87.07 122.22,-89.04 131.59,-93.99 132.63,-87.07"/>
</a>
</g>
</g>
<!-- Node8&#45;&gt;Node5 -->
<g id="edge16_Node000008_Node000005" class="edge">
<title>Node8&#45;&gt;Node5</title>
<g id="a_edge16_Node000008_Node000005"><a xlink:title=" ">
<path fill="none" stroke="#63b8ff" d="M460.46,-137.44C400.67,-124.64 289.13,-100.76 234.02,-88.97"/>
<polygon fill="#63b8ff" stroke="#63b8ff" points="234.61,-85.51 224.1,-86.84 233.14,-92.36 234.61,-85.51"/>
</a>
</g>
</g>
<!-- Node8&#45;&gt;Node6 -->
<g id="edge17_Node000008_Node000006" class="edge">
<title>Node8&#45;&gt;Node6</title>
<g id="a_edge17_Node000008_Node000006"><a xlink:title=" ">
<path fill="none" stroke="#63b8ff" d="M502.46,-137.06C505.81,-122.2 512.96,-91.54 520.48,-66 523.6,-55.39 527.56,-43.68 530.86,-34.26"/>
<polygon fill="#63b8ff" stroke="#63b8ff" points="534.18,-35.38 534.25,-24.78 527.59,-33.02 534.18,-35.38"/>
</a>
</g>
</g>
<!-- Node9 -->
<g id="Node000009" class="node">
<title>Node9</title>
<g id="a_Node000009"><a xlink:title=" ">
<polygon fill="#e0e0e0" stroke="#999999" points="690.48,-90.5 640.48,-90.5 640.48,-71.5 690.48,-71.5 690.48,-90.5"/>
<text text-anchor="middle" x="665.48" y="-78.5" font-family="Helvetica,sans-Serif" font-size="10.00">cstdint</text>
</a>
</g>
</g>
<!-- Node8&#45;&gt;Node9 -->
<g id="edge11_Node000008_Node000009" class="edge">
<title>Node8&#45;&gt;Node9</title>
<g id="a_edge11_Node000008_Node000009"><a xlink:title=" ">
<path fill="none" stroke="#63b8ff" d="M523.74,-137.33C549.98,-127.5 593.91,-110.9 631.48,-96 632.85,-95.46 634.25,-94.9 635.67,-94.33"/>
<polygon fill="#63b8ff" stroke="#63b8ff" points="637.07,-97.53 645.02,-90.53 634.43,-91.05 637.07,-97.53"/>
</a>
</g>
</g>
<!-- Node10 -->
<g id="Node000010" class="node">
<title>Node10</title>
<g id="a_Node000010"><a xlink:title=" ">
<polygon fill="#e0e0e0" stroke="#999999" points="773.98,-90.5 708.98,-90.5 708.98,-71.5 773.98,-71.5 773.98,-90.5"/>
<text text-anchor="middle" x="741.48" y="-78.5" font-family="Helvetica,sans-Serif" font-size="10.00">functional</text>
</a>
</g>
</g>
<!-- Node8&#45;&gt;Node10 -->
<g id="edge12_Node000008_Node000010" class="edge">
<title>Node8&#45;&gt;Node10</title>
<g id="a_edge12_Node000008_Node000010"><a xlink:title=" ">
<path fill="none" stroke="#63b8ff" d="M538.12,-137.44C578.3,-128.09 643.74,-112.27 699.48,-96 701.93,-95.28 704.46,-94.52 706.99,-93.73"/>
<polygon fill="#63b8ff" stroke="#63b8ff" points="708.25,-97 716.7,-90.6 706.11,-90.33 708.25,-97"/>
</a>
</g>
</g>
<!-- Node11 -->
<g id="Node000011" class="node">
<title>Node11</title>
<g id="a_Node000011"><a xlink:title=" ">
<polygon fill="#e0e0e0" stroke="#999999" points="886.48,-90.5 830.48,-90.5 830.48,-71.5 886.48,-71.5 886.48,-90.5"/>
<text text-anchor="middle" x="858.48" y="-78.5" font-family="Helvetica,sans-Serif" font-size="10.00">optional</text>
</a>
</g>
</g>
<!-- Node8&#45;&gt;Node11 -->
<g id="edge13_Node000008_Node000011" class="edge">
<title>Node8&#45;&gt;Node11</title>
<g id="a_edge13_Node000008_Node000011"><a xlink:title=" ">
<path fill="none" stroke="#63b8ff" d="M569.24,-138.44C633.69,-130.57 732.43,-116.51 816.48,-96 819.44,-95.28 822.5,-94.44 825.55,-93.54"/>
<polygon fill="#63b8ff" stroke="#63b8ff" points="826.64,-96.87 835.13,-90.54 824.54,-90.19 826.64,-96.87"/>
</a>
</g>
</g>
<!-- Node12 -->
<g id="Node000012" class="node">
<title>Node12</title>
<g id="a_Node000012"><a xlink:href="TopologyEdge_8h.html" target="_top" xlink:title="Arête non&#45;orientée du graphe planaire de topologie ferroviaire.">
<polygon fill="white" stroke="#666666" points="621.98,-90.5 528.98,-90.5 528.98,-71.5 621.98,-71.5 621.98,-90.5"/>
<text text-anchor="middle" x="575.48" y="-78.5" font-family="Helvetica,sans-Serif" font-size="10.00">TopologyEdge.h</text>
</a>
</g>
</g>
<!-- Node8&#45;&gt;Node12 -->
<g id="edge18_Node000008_Node000012" class="edge">
<title>Node8&#45;&gt;Node12</title>
<g id="a_edge18_Node000008_Node000012"><a xlink:title=" ">
<path fill="none" stroke="#63b8ff" d="M510.59,-137.37C522.49,-127.21 542.48,-110.16 557.13,-97.65"/>
<polygon fill="#63b8ff" stroke="#63b8ff" points="559.71,-100.06 565.04,-90.91 555.16,-94.73 559.71,-100.06"/>
</a>
</g>
</g>
<!-- Node8&#45;&gt;Node15 -->
<g id="edge24_Node000008_Node000015" class="edge">
<title>Node8&#45;&gt;Node15</title>
<g id="a_edge24_Node000008_Node000015"><a xlink:title=" ">
<path fill="none" stroke="#63b8ff" d="M496.28,-137.47C486.58,-117.78 462.37,-68.59 447.9,-39.2"/>
<polygon fill="#63b8ff" stroke="#63b8ff" points="450.96,-37.49 443.4,-30.07 444.68,-40.58 450.96,-37.49"/>
</a>
</g>
</g>
<!-- Node8&#45;&gt;Node16 -->
<g id="edge25_Node000008_Node000016" class="edge">
<title>Node8&#45;&gt;Node16</title>
<g id="a_edge25_Node000008_Node000016"><a xlink:title=" ">
<path fill="none" stroke="#63b8ff" d="M481.19,-137.37C456.78,-126.44 414.51,-107.52 386.27,-94.88"/>
<polygon fill="#63b8ff" stroke="#63b8ff" points="387.47,-91.59 376.91,-90.7 384.61,-97.98 387.47,-91.59"/>
</a>
</g>
</g>
<!-- Node12&#45;&gt;Node3 -->
<g id="edge21_Node000012_Node000003" class="edge">
<title>Node12&#45;&gt;Node3</title>
<g id="a_edge21_Node000012_Node000003"><a xlink:title=" ">
<path fill="none" stroke="#63b8ff" d="M605.8,-71.43C614.07,-69.37 623.07,-67.37 631.48,-66 752.19,-46.4 1133.05,-24.14 1246.98,-17.78"/>
<polygon fill="#63b8ff" stroke="#63b8ff" points="1247.36,-21.27 1257.15,-17.22 1246.97,-14.28 1247.36,-21.27"/>
</a>
</g>
</g>
<!-- Node12&#45;&gt;Node6 -->
<g id="edge22_Node000012_Node000006" class="edge">
<title>Node12&#45;&gt;Node6</title>
<g id="a_edge22_Node000012_Node000006"><a xlink:title=" ">
<path fill="none" stroke="#63b8ff" d="M570.35,-71.37C564.66,-61.78 555.32,-46.05 548.05,-33.8"/>
<polygon fill="#63b8ff" stroke="#63b8ff" points="550.88,-31.72 542.77,-24.91 544.86,-35.29 550.88,-31.72"/>
</a>
</g>
</g>
<!-- Node13 -->
<g id="Node000013" class="node">
<title>Node13</title>
<g id="a_Node000013"><a xlink:title=" ">
<polygon fill="#e0e0e0" stroke="#999999" points="625.98,-24.5 578.98,-24.5 578.98,-5.5 625.98,-5.5 625.98,-24.5"/>
<text text-anchor="middle" x="602.48" y="-12.5" font-family="Helvetica,sans-Serif" font-size="10.00">cmath</text>
</a>
</g>
</g>
<!-- Node12&#45;&gt;Node13 -->
<g id="edge19_Node000012_Node000013" class="edge">
<title>Node12&#45;&gt;Node13</title>
<g id="a_edge19_Node000012_Node000013"><a xlink:title=" ">
<path fill="none" stroke="#63b8ff" d="M579.12,-71.37C583.12,-61.88 589.67,-46.36 594.81,-34.16"/>
<polygon fill="#63b8ff" stroke="#63b8ff" points="598.06,-35.48 598.72,-24.91 591.61,-32.76 598.06,-35.48"/>
</a>
</g>
</g>
<!-- Node14 -->
<g id="Node000014" class="node">
<title>Node14</title>
<g id="a_Node000014"><a xlink:title=" ">
<polygon fill="#e0e0e0" stroke="#999999" points="980.48,-24.5 924.48,-24.5 924.48,-5.5 980.48,-5.5 980.48,-24.5"/>
<text text-anchor="middle" x="952.48" y="-12.5" font-family="Helvetica,sans-Serif" font-size="10.00">sstream</text>
</a>
</g>
</g>
<!-- Node12&#45;&gt;Node14 -->
<g id="edge20_Node000012_Node000014" class="edge">
<title>Node12&#45;&gt;Node14</title>
<g id="a_edge20_Node000012_Node000014"><a xlink:title=" ">
<path fill="none" stroke="#63b8ff" d="M607.64,-71.43C615.41,-69.51 623.72,-67.57 631.48,-66 732.91,-45.47 853.84,-28.68 914.21,-20.82"/>
<polygon fill="#63b8ff" stroke="#63b8ff" points="914.95,-24.25 924.42,-19.5 914.05,-17.31 914.95,-24.25"/>
</a>
</g>
</g>
<!-- Node12&#45;&gt;Node15 -->
<g id="edge23_Node000012_Node000015" class="edge">
<title>Node12&#45;&gt;Node15</title>
<g id="a_edge23_Node000012_Node000015"><a xlink:title=" ">
<path fill="none" stroke="#63b8ff" d="M556.73,-71.37C536.27,-61.95 502.91,-46.59 476.51,-34.43"/>
<polygon fill="#63b8ff" stroke="#63b8ff" points="477.68,-31.12 467.14,-30.12 474.75,-37.48 477.68,-31.12"/>
</a>
</g>
</g>
<!-- Node18&#45;&gt;Node3 -->
<g id="edge35_Node000018_Node000003" class="edge">
<title>Node18&#45;&gt;Node3</title>
<g id="a_edge35_Node000018_Node000003"><a xlink:title=" ">
<path fill="none" stroke="#63b8ff" d="M1386.01,-140.42C1450.23,-131.76 1542.75,-111.13 1506.48,-66 1482.43,-36.08 1368.77,-23.02 1311.96,-18.28"/>
<polygon fill="#63b8ff" stroke="#63b8ff" points="1311.97,-14.77 1301.72,-17.47 1311.41,-21.75 1311.97,-14.77"/>
</a>
</g>
</g>
<!-- Node18&#45;&gt;Node14 -->
<g id="edge34_Node000018_Node000014" class="edge">
<title>Node18&#45;&gt;Node14</title>
<g id="a_edge34_Node000018_Node000014"><a xlink:title=" ">
<path fill="none" stroke="#63b8ff" d="M1386.21,-135.47C1438.57,-123.23 1504.56,-100.21 1473.48,-66 1457.24,-48.13 1108.61,-25.45 990.9,-18.28"/>
<polygon fill="#63b8ff" stroke="#63b8ff" points="990.76,-14.77 980.57,-17.66 990.34,-21.75 990.76,-14.77"/>
</a>
</g>
</g>
<!-- Node19 -->
<g id="Node000019" class="node">
<title>Node19</title>
<g id="a_Node000019"><a xlink:title=" ">
<polygon fill="#e0e0e0" stroke="#999999" points="1238.48,-90.5 1194.48,-90.5 1194.48,-71.5 1238.48,-71.5 1238.48,-90.5"/>
<text text-anchor="middle" x="1216.48" y="-78.5" font-family="Helvetica,sans-Serif" font-size="10.00">ctime</text>
</a>
</g>
</g>
<!-- Node18&#45;&gt;Node19 -->
<g id="edge30_Node000018_Node000019" class="edge">
<title>Node18&#45;&gt;Node19</title>
<g id="a_edge30_Node000018_Node000019"><a xlink:title=" ">
<path fill="none" stroke="#63b8ff" d="M1305.46,-131.95C1286.17,-121.13 1259.66,-106.24 1240.6,-95.54"/>
<polygon fill="#63b8ff" stroke="#63b8ff" points="1242.08,-92.36 1231.65,-90.52 1238.66,-98.46 1242.08,-92.36"/>
</a>
</g>
</g>
<!-- Node20 -->
<g id="Node000020" class="node">
<title>Node20</title>
<g id="a_Node000020"><a xlink:title=" ">
<polygon fill="#e0e0e0" stroke="#999999" points="1324.48,-90.5 1256.48,-90.5 1256.48,-71.5 1324.48,-71.5 1324.48,-90.5"/>
<text text-anchor="middle" x="1290.48" y="-78.5" font-family="Helvetica,sans-Serif" font-size="10.00">filesystem</text>
</a>
</g>
</g>
<!-- Node18&#45;&gt;Node20 -->
<g id="edge31_Node000018_Node000020" class="edge">
<title>Node18&#45;&gt;Node20</title>
<g id="a_edge31_Node000018_Node000020"><a xlink:title=" ">
<path fill="none" stroke="#63b8ff" d="M1321.6,-131.8C1315.67,-122.31 1307.83,-109.76 1301.5,-99.63"/>
<polygon fill="#63b8ff" stroke="#63b8ff" points="1304.27,-97.47 1296.01,-90.84 1298.34,-101.18 1304.27,-97.47"/>
</a>
</g>
</g>
<!-- Node21 -->
<g id="Node000021" class="node">
<title>Node21</title>
<g id="a_Node000021"><a xlink:title=" ">
<polygon fill="#e0e0e0" stroke="#999999" points="1397.98,-90.5 1342.98,-90.5 1342.98,-71.5 1397.98,-71.5 1397.98,-90.5"/>
<text text-anchor="middle" x="1370.48" y="-78.5" font-family="Helvetica,sans-Serif" font-size="10.00">fstream</text>
</a>
</g>
</g>
<!-- Node18&#45;&gt;Node21 -->
<g id="edge32_Node000018_Node000021" class="edge">
<title>Node18&#45;&gt;Node21</title>
<g id="a_edge32_Node000018_Node000021"><a xlink:title=" ">
<path fill="none" stroke="#63b8ff" d="M1339.36,-131.8C1345.29,-122.31 1353.13,-109.76 1359.46,-99.63"/>
<polygon fill="#63b8ff" stroke="#63b8ff" points="1362.62,-101.18 1364.95,-90.84 1356.68,-97.47 1362.62,-101.18"/>
</a>
</g>
</g>
<!-- Node22 -->
<g id="Node000022" class="node">
<title>Node22</title>
<g id="a_Node000022"><a xlink:title=" ">
<polygon fill="#e0e0e0" stroke="#999999" points="1464.48,-90.5 1416.48,-90.5 1416.48,-71.5 1464.48,-71.5 1464.48,-90.5"/>
<text text-anchor="middle" x="1440.48" y="-78.5" font-family="Helvetica,sans-Serif" font-size="10.00">mutex</text>
</a>
</g>
</g>
<!-- Node18&#45;&gt;Node22 -->
<g id="edge33_Node000018_Node000022" class="edge">
<title>Node18&#45;&gt;Node22</title>
<g id="a_edge33_Node000018_Node000022"><a xlink:title=" ">
<path fill="none" stroke="#63b8ff" d="M1354.62,-131.95C1373.14,-121.18 1398.58,-106.38 1416.95,-95.69"/>
<polygon fill="#63b8ff" stroke="#63b8ff" points="1418.96,-98.57 1425.84,-90.52 1415.44,-92.52 1418.96,-98.57"/>
</a>
</g>
</g>
<!-- Node23&#45;&gt;Node3 -->
<g id="edge37_Node000023_Node000003" class="edge">
<title>Node23&#45;&gt;Node3</title>
<g id="a_edge37_Node000023_Node000003"><a xlink:title=" ">
<path fill="none" stroke="#63b8ff" d="M1653.13,-198C1679.03,-190.57 1706.25,-179.24 1727.48,-162 1762.97,-133.17 1795.11,-99.95 1764.48,-66 1734.12,-32.35 1415.1,-20.01 1311.66,-16.87"/>
<polygon fill="#63b8ff" stroke="#63b8ff" points="1311.61,-13.37 1301.51,-16.57 1311.4,-20.37 1311.61,-13.37"/>
</a>
</g>
</g>
<!-- Node23&#45;&gt;Node6 -->
<g id="edge38_Node000023_Node000006" class="edge">
<title>Node23&#45;&gt;Node6</title>
<g id="a_edge38_Node000023_Node000006"><a xlink:title=" ">
<path fill="none" stroke="#63b8ff" d="M1564.23,-197.93C1554.18,-167.47 1525.8,-95.74 1473.48,-66 1386.18,-16.38 668.46,-51.97 570.48,-30 568.31,-29.51 566.1,-28.89 563.91,-28.18"/>
<polygon fill="#63b8ff" stroke="#63b8ff" points="565.15,-24.9 554.56,-24.63 562.66,-31.45 565.15,-24.9"/>
</a>
</g>
</g>
<!-- Node23&#45;&gt;Node17 -->
<g id="edge42_Node000023_Node000017" class="edge">
<title>Node23&#45;&gt;Node17</title>
<g id="a_edge42_Node000023_Node000017"><a xlink:title=" ">
<path fill="none" stroke="#63b8ff" d="M1475.73,-204.53C1414.99,-197.74 1334.55,-185.09 1266.48,-162 1222.4,-147.05 1175.71,-120.16 1146.35,-101.72"/>
<polygon fill="#63b8ff" stroke="#63b8ff" points="1148.14,-98.7 1137.82,-96.29 1144.38,-104.61 1148.14,-98.7"/>
</a>
</g>
</g>
<!-- Node24 -->
<g id="Node000024" class="node">
<title>Node24</title>
<g id="a_Node000024"><a xlink:href="ShuntingElement_8h.html" target="_top" xlink:title="Interface abstraite pour tous les éléments de shuntage ferroviaire.">
<polygon fill="white" stroke="#666666" points="1717.98,-156.5 1608.98,-156.5 1608.98,-137.5 1717.98,-137.5 1717.98,-156.5"/>
<text text-anchor="middle" x="1663.48" y="-144.5" font-family="Helvetica,sans-Serif" font-size="10.00">ShuntingElement.h</text>
</a>
</g>
</g>
<!-- Node23&#45;&gt;Node24 -->
<g id="edge39_Node000023_Node000024" class="edge">
<title>Node23&#45;&gt;Node24</title>
<g id="a_edge39_Node000023_Node000024"><a xlink:title=" ">
<path fill="none" stroke="#63b8ff" d="M1589.56,-197.8C1605.19,-187.27 1626.41,-172.97 1642.11,-162.4"/>
<polygon fill="#63b8ff" stroke="#63b8ff" points="1644.29,-165.15 1650.63,-156.66 1640.38,-159.34 1644.29,-165.15"/>
</a>
</g>
</g>
<!-- Node25 -->
<g id="Node000025" class="node">
<title>Node25</title>
<g id="a_Node000025"><a xlink:href="InteractiveElement_8h.html" target="_top" xlink:title="Classe de base abstraite pour tous les éléments interactifs ferroviaires.">
<polygon fill="white" stroke="#666666" points="1754.98,-96 1595.98,-96 1595.98,-66 1754.98,-66 1754.98,-96"/>
<text text-anchor="start" x="1603.98" y="-84" font-family="Helvetica,sans-Serif" font-size="10.00">Modules/InteractiveElements</text>
<text text-anchor="middle" x="1675.48" y="-73" font-family="Helvetica,sans-Serif" font-size="10.00">/InteractiveElement.h</text>
</a>
</g>
</g>
<!-- Node24&#45;&gt;Node25 -->
<g id="edge40_Node000024_Node000025" class="edge">
<title>Node24&#45;&gt;Node25</title>
<g id="a_edge40_Node000024_Node000025"><a xlink:title=" ">
<path fill="none" stroke="#63b8ff" d="M1665.1,-137.37C1666.59,-129.4 1668.88,-117.2 1670.93,-106.27"/>
<polygon fill="#63b8ff" stroke="#63b8ff" points="1674.38,-106.83 1672.79,-96.36 1667.5,-105.54 1674.38,-106.83"/>
</a>
</g>
</g>
<!-- Node25&#45;&gt;Node3 -->
<g id="edge41_Node000025_Node000003" class="edge">
<title>Node25&#45;&gt;Node3</title>
<g id="a_edge41_Node000025_Node000003"><a xlink:title=" ">
<path fill="none" stroke="#63b8ff" d="M1595.82,-67.13C1508.67,-53.04 1373.23,-31.15 1311.76,-21.22"/>
<polygon fill="#63b8ff" stroke="#63b8ff" points="1311.95,-17.7 1301.52,-19.56 1310.83,-24.61 1311.95,-17.7"/>
</a>
</g>
</g>
<!-- Node26&#45;&gt;Node3 -->
<g id="edge46_Node000026_Node000003" class="edge">
<title>Node26&#45;&gt;Node3</title>
<g id="a_edge46_Node000026_Node000003"><a xlink:title=" ">
<path fill="none" stroke="#63b8ff" d="M924.2,-131.94C942.86,-113.7 978.1,-82.29 1014.48,-66 1093.06,-30.8 1195.51,-20.37 1246.97,-17.29"/>
<polygon fill="#63b8ff" stroke="#63b8ff" points="1247.36,-20.77 1257.15,-16.74 1246.98,-13.78 1247.36,-20.77"/>
</a>
</g>
</g>
<!-- Node26&#45;&gt;Node6 -->
<g id="edge47_Node000026_Node000006" class="edge">
<title>Node26&#45;&gt;Node6</title>
<g id="a_edge47_Node000026_Node000006"><a xlink:title=" ">
<path fill="none" stroke="#63b8ff" d="M912.4,-131.78C913.96,-113.67 913.5,-82.72 895.48,-66 842.21,-16.58 640.78,-48.38 570.48,-30 568.54,-29.49 566.56,-28.89 564.59,-28.23"/>
<polygon fill="#63b8ff" stroke="#63b8ff" points="565.55,-24.84 554.96,-24.53 563.04,-31.38 565.55,-24.84"/>
</a>
</g>
</g>
<!-- Node26&#45;&gt;Node11 -->
<g id="edge44_Node000026_Node000011" class="edge">
<title>Node26&#45;&gt;Node11</title>
<g id="a_edge44_Node000026_Node000011"><a xlink:title=" ">
<path fill="none" stroke="#63b8ff" d="M898.94,-131.8C890.99,-122.01 880.4,-108.98 872.05,-98.7"/>
<polygon fill="#63b8ff" stroke="#63b8ff" points="874.69,-96.4 865.66,-90.84 869.25,-100.81 874.69,-96.4"/>
</a>
</g>
</g>
<!-- Node26&#45;&gt;Node14 -->
<g id="edge45_Node000026_Node000014" class="edge">
<title>Node26&#45;&gt;Node14</title>
<g id="a_edge45_Node000026_Node000014"><a xlink:title=" ">
<path fill="none" stroke="#63b8ff" d="M915.88,-131.63C919.57,-121.68 924.49,-108.09 928.48,-96 935.34,-75.19 942.46,-51.07 947.15,-34.8"/>
<polygon fill="#63b8ff" stroke="#63b8ff" points="950.59,-35.5 949.97,-24.93 943.86,-33.58 950.59,-35.5"/>
</a>
</g>
</g>
<!-- Node26&#45;&gt;Node17 -->
<g id="edge48_Node000026_Node000017" class="edge">
<title>Node26&#45;&gt;Node17</title>
<g id="a_edge48_Node000026_Node000017"><a xlink:title=" ">
<path fill="none" stroke="#63b8ff" d="M955.69,-131.95C986.81,-122.28 1028.35,-109.38 1061.41,-99.11"/>
<polygon fill="#63b8ff" stroke="#63b8ff" points="1062.86,-102.32 1071.38,-96.01 1060.79,-95.64 1062.86,-102.32"/>
</a>
</g>
</g>
</g>
</svg>
