<?xml version="1.0" encoding="UTF-8" standalone="no"?>
<!DOCTYPE svg PUBLIC "-//W3C//DTD SVG 1.1//EN"
 "http://www.w3.org/Graphics/SVG/1.1/DTD/svg11.dtd">
<!-- Generated by graphviz version 2.43.0 (0)
 -->
<!-- Title: SimulateurFerroviaire/Modules/GeoParser/TopologyExtractor.cpp Pages: 1 -->
<svg width="1764pt" height="335pt"
 viewBox="0.00 0.00 1763.91 335.00" xmlns="http://www.w3.org/2000/svg" xmlns:xlink="http://www.w3.org/1999/xlink">
<g id="graph0" class="graph" transform="scale(1 1) rotate(0) translate(4 331)">
<title>SimulateurFerroviaire/Modules/GeoParser/TopologyExtractor.cpp</title>
<!-- Node1 -->
<g id="Node000001" class="node">
<title>Node1</title>
<g id="a_Node000001"><a xlink:title="Implémentation des phases 3, 4, 5a et 5b du pipeline GeoParser.">
<polygon fill="#999999" stroke="#666666" points="1626.41,-327 1466.41,-327 1466.41,-286 1626.41,-286 1626.41,-327"/>
<text text-anchor="start" x="1474.41" y="-315" font-family="Helvetica,sans-Serif" font-size="10.00">SimulateurFerroviaire</text>
<text text-anchor="start" x="1474.41" y="-304" font-family="Helvetica,sans-Serif" font-size="10.00">/Modules/GeoParser/Topology</text>
<text text-anchor="middle" x="1546.41" y="-293" font-family="Helvetica,sans-Serif" font-size="10.00">Extractor.cpp</text>
</a>
</g>
</g>
<!-- Node2 -->
<g id="Node000002" class="node">
<title>Node2</title>
<g id="a_Node000002"><a xlink:href="TopologyExtractor_8h.html" target="_top" xlink:title="Phases 3, 4, 5a et 5b — extraction de la topologie ferroviaire depuis le graphe.">
<polygon fill="white" stroke="#666666" points="812.91,-250 699.91,-250 699.91,-231 812.91,-231 812.91,-250"/>
<text text-anchor="middle" x="756.41" y="-238" font-family="Helvetica,sans-Serif" font-size="10.00">TopologyExtractor.h</text>
</a>
</g>
</g>
<!-- Node1&#45;&gt;Node2 -->
<g id="edge1_Node000001_Node000002" class="edge">
<title>Node1&#45;&gt;Node2</title>
<g id="a_edge1_Node000001_Node000002"><a xlink:title=" ">
<path fill="none" stroke="#63b8ff" d="M1466.31,-299.01C1310.21,-286.36 967.91,-258.63 823.15,-246.91"/>
<polygon fill="#63b8ff" stroke="#63b8ff" points="823.33,-243.41 813.08,-246.09 822.76,-250.39 823.33,-243.41"/>
</a>
</g>
</g>
<!-- Node14 -->
<g id="Node000014" class="node">
<title>Node14</title>
<g id="a_Node000014"><a xlink:title=" ">
<polygon fill="#e0e0e0" stroke="#999999" points="1553.91,-19 1506.91,-19 1506.91,0 1553.91,0 1553.91,-19"/>
<text text-anchor="middle" x="1530.41" y="-7" font-family="Helvetica,sans-Serif" font-size="10.00">cmath</text>
</a>
</g>
</g>
<!-- Node1&#45;&gt;Node14 -->
<g id="edge51_Node000001_Node000014" class="edge">
<title>Node1&#45;&gt;Node14</title>
<g id="a_edge51_Node000001_Node000014"><a xlink:title=" ">
<path fill="none" stroke="#63b8ff" d="M1569.21,-285.62C1591.6,-263.78 1622.41,-226.46 1622.41,-186.5 1622.41,-186.5 1622.41,-186.5 1622.41,-124 1622.41,-92.19 1622.56,-80.4 1603.41,-55 1593,-41.19 1576.95,-30.74 1562.55,-23.44"/>
<polygon fill="#63b8ff" stroke="#63b8ff" points="1563.93,-20.23 1553.4,-19.1 1560.93,-26.55 1563.93,-20.23"/>
</a>
</g>
</g>
<!-- Node15 -->
<g id="Node000015" class="node">
<title>Node15</title>
<g id="a_Node000015"><a xlink:title=" ">
<polygon fill="#e0e0e0" stroke="#999999" points="841.41,-19 785.41,-19 785.41,0 841.41,0 841.41,-19"/>
<text text-anchor="middle" x="813.41" y="-7" font-family="Helvetica,sans-Serif" font-size="10.00">sstream</text>
</a>
</g>
</g>
<!-- Node1&#45;&gt;Node15 -->
<g id="edge52_Node000001_Node000015" class="edge">
<title>Node1&#45;&gt;Node15</title>
<g id="a_edge52_Node000001_Node000015"><a xlink:title=" ">
<path fill="none" stroke="#63b8ff" d="M1466.16,-305.73C1305.67,-304.02 960.41,-288.5 960.41,-186.5 960.41,-186.5 960.41,-186.5 960.41,-124 960.41,-92.07 962.36,-78.19 940.41,-55 927.96,-41.85 884.05,-28.32 851.32,-19.68"/>
<polygon fill="#63b8ff" stroke="#63b8ff" points="852.13,-16.27 841.57,-17.16 850.38,-23.05 852.13,-16.27"/>
</a>
</g>
</g>
<!-- Node26 -->
<g id="Node000026" class="node">
<title>Node26</title>
<g id="a_Node000026"><a xlink:title=" ">
<polygon fill="#e0e0e0" stroke="#999999" points="1714.41,-250 1650.41,-250 1650.41,-231 1714.41,-231 1714.41,-250"/>
<text text-anchor="middle" x="1682.41" y="-238" font-family="Helvetica,sans-Serif" font-size="10.00">algorithm</text>
</a>
</g>
</g>
<!-- Node1&#45;&gt;Node26 -->
<g id="edge50_Node000001_Node000026" class="edge">
<title>Node1&#45;&gt;Node26</title>
<g id="a_edge50_Node000001_Node000026"><a xlink:title=" ">
<path fill="none" stroke="#63b8ff" d="M1587.95,-285.95C1609.74,-275.7 1635.81,-263.43 1655.04,-254.38"/>
<polygon fill="#63b8ff" stroke="#63b8ff" points="1656.59,-257.52 1664.15,-250.09 1653.61,-251.18 1656.59,-257.52"/>
</a>
</g>
</g>
<!-- Node27 -->
<g id="Node000027" class="node">
<title>Node27</title>
<g id="a_Node000027"><a xlink:href="GeometryUtils_8h.html" target="_top" xlink:title="Utilitaires géométriques métriques pour le pipeline ferroviaire.">
<polygon fill="white" stroke="#666666" points="1594.41,-74 1466.41,-74 1466.41,-55 1594.41,-55 1594.41,-74"/>
<text text-anchor="middle" x="1530.41" y="-62" font-family="Helvetica,sans-Serif" font-size="10.00">./Utils/GeometryUtils.h</text>
</a>
</g>
</g>
<!-- Node1&#45;&gt;Node27 -->
<g id="edge53_Node000001_Node000027" class="edge">
<title>Node1&#45;&gt;Node27</title>
<g id="a_edge53_Node000001_Node000027"><a xlink:title=" ">
<path fill="none" stroke="#63b8ff" d="M1545.1,-285.86C1542.08,-240.55 1534.65,-129.16 1531.67,-84.49"/>
<polygon fill="#63b8ff" stroke="#63b8ff" points="1535.16,-84.17 1531,-74.43 1528.18,-84.64 1535.16,-84.17"/>
</a>
</g>
</g>
<!-- Node3 -->
<g id="Node000003" class="node">
<title>Node3</title>
<g id="a_Node000003"><a xlink:title=" ">
<polygon fill="#e0e0e0" stroke="#999999" points="1134.41,-134.5 1102.41,-134.5 1102.41,-115.5 1134.41,-115.5 1134.41,-134.5"/>
<text text-anchor="middle" x="1118.41" y="-122.5" font-family="Helvetica,sans-Serif" font-size="10.00">set</text>
</a>
</g>
</g>
<!-- Node2&#45;&gt;Node3 -->
<g id="edge2_Node000002_Node000003" class="edge">
<title>Node2&#45;&gt;Node3</title>
<g id="a_edge2_Node000002_Node000003"><a xlink:title=" ">
<path fill="none" stroke="#63b8ff" d="M813.23,-238.58C896.72,-236.13 1047.25,-227.24 1089.41,-195 1105.17,-182.94 1112.45,-160.71 1115.76,-144.73"/>
<polygon fill="#63b8ff" stroke="#63b8ff" points="1119.2,-145.33 1117.46,-134.88 1112.31,-144.13 1119.2,-145.33"/>
</a>
</g>
</g>
<!-- Node4 -->
<g id="Node000004" class="node">
<title>Node4</title>
<g id="a_Node000004"><a xlink:title=" ">
<polygon fill="#e0e0e0" stroke="#999999" points="406.41,-19 362.41,-19 362.41,0 406.41,0 406.41,-19"/>
<text text-anchor="middle" x="384.41" y="-7" font-family="Helvetica,sans-Serif" font-size="10.00">string</text>
</a>
</g>
</g>
<!-- Node2&#45;&gt;Node4 -->
<g id="edge3_Node000002_Node000004" class="edge">
<title>Node2&#45;&gt;Node4</title>
<g id="a_edge3_Node000002_Node000004"><a xlink:title=" ">
<path fill="none" stroke="#63b8ff" d="M699.7,-238.4C550.23,-234.44 149.87,-216.75 46.41,-140 18.29,-119.14 13.38,-107.56 3.41,-74 1,-65.91 -2.21,-61.31 3.41,-55 26.47,-29.09 264.27,-15.88 352.07,-11.86"/>
<polygon fill="#63b8ff" stroke="#63b8ff" points="352.41,-15.35 362.25,-11.4 352.1,-8.36 352.41,-15.35"/>
</a>
</g>
</g>
<!-- Node5 -->
<g id="Node000005" class="node">
<title>Node5</title>
<g id="a_Node000005"><a xlink:title=" ">
<polygon fill="#e0e0e0" stroke="#999999" points="113.91,-74 20.91,-74 20.91,-55 113.91,-55 113.91,-74"/>
<text text-anchor="middle" x="67.41" y="-62" font-family="Helvetica,sans-Serif" font-size="10.00">unordered_map</text>
</a>
</g>
</g>
<!-- Node2&#45;&gt;Node5 -->
<g id="edge4_Node000002_Node000005" class="edge">
<title>Node2&#45;&gt;Node5</title>
<g id="a_edge4_Node000002_Node000005"><a xlink:title=" ">
<path fill="none" stroke="#63b8ff" d="M699.69,-238.59C620.77,-236.12 473.96,-227.17 353.41,-195 294.37,-179.25 283.11,-165.12 227.41,-140 180.58,-118.88 126.46,-93.47 94.69,-78.45"/>
<polygon fill="#63b8ff" stroke="#63b8ff" points="96.11,-75.25 85.58,-74.14 93.12,-81.58 96.11,-75.25"/>
</a>
</g>
</g>
<!-- Node6 -->
<g id="Node000006" class="node">
<title>Node6</title>
<g id="a_Node000006"><a xlink:title=" ">
<polygon fill="#e0e0e0" stroke="#999999" points="215.91,-74 170.91,-74 170.91,-55 215.91,-55 215.91,-74"/>
<text text-anchor="middle" x="193.41" y="-62" font-family="Helvetica,sans-Serif" font-size="10.00">utility</text>
</a>
</g>
</g>
<!-- Node2&#45;&gt;Node6 -->
<g id="edge5_Node000002_Node000006" class="edge">
<title>Node2&#45;&gt;Node6</title>
<g id="a_edge5_Node000002_Node000006"><a xlink:title=" ">
<path fill="none" stroke="#63b8ff" d="M699.85,-238.33C605.12,-234.19 410.76,-216.22 268.41,-140 241.95,-125.84 218.7,-99.38 205.35,-82.1"/>
<polygon fill="#63b8ff" stroke="#63b8ff" points="208.09,-79.93 199.3,-74.02 202.49,-84.13 208.09,-79.93"/>
</a>
</g>
</g>
<!-- Node7 -->
<g id="Node000007" class="node">
<title>Node7</title>
<g id="a_Node000007"><a xlink:title=" ">
<polygon fill="#e0e0e0" stroke="#999999" points="471.91,-19 424.91,-19 424.91,0 471.91,0 471.91,-19"/>
<text text-anchor="middle" x="448.41" y="-7" font-family="Helvetica,sans-Serif" font-size="10.00">vector</text>
</a>
</g>
</g>
<!-- Node2&#45;&gt;Node7 -->
<g id="edge6_Node000002_Node000007" class="edge">
<title>Node2&#45;&gt;Node7</title>
<g id="a_edge6_Node000002_Node000007"><a xlink:title=" ">
<path fill="none" stroke="#63b8ff" d="M699.58,-239.27C611.82,-237.74 438.58,-230.04 296.41,-195 233.5,-179.5 221.06,-165.27 161.41,-140 94.34,-111.59 51.21,-135 11.41,-74 -36.56,-0.49 303.76,-32.22 414.71,-18.56"/>
<polygon fill="#63b8ff" stroke="#63b8ff" points="415.33,-22.01 424.72,-17.1 414.31,-15.09 415.33,-22.01"/>
</a>
</g>
</g>
<!-- Node8 -->
<g id="Node000008" class="node">
<title>Node8</title>
<g id="a_Node000008"><a xlink:href="GraphBuilder_8h.html" target="_top" xlink:title="Phases 1 et 2 du pipeline — chargement GeoJSON et construction du graphe métrique.">
<polygon fill="white" stroke="#666666" points="1080.91,-195 991.91,-195 991.91,-176 1080.91,-176 1080.91,-195"/>
<text text-anchor="middle" x="1036.41" y="-183" font-family="Helvetica,sans-Serif" font-size="10.00">GraphBuilder.h</text>
</a>
</g>
</g>
<!-- Node2&#45;&gt;Node8 -->
<g id="edge7_Node000002_Node000008" class="edge">
<title>Node2&#45;&gt;Node8</title>
<g id="a_edge7_Node000002_Node000008"><a xlink:title=" ">
<path fill="none" stroke="#63b8ff" d="M801.39,-230.98C850.48,-221.69 929.08,-206.82 981.7,-196.86"/>
<polygon fill="#63b8ff" stroke="#63b8ff" points="982.36,-200.29 991.53,-194.99 981.06,-193.42 982.36,-200.29"/>
</a>
</g>
</g>
<!-- Node17 -->
<g id="Node000017" class="node">
<title>Node17</title>
<g id="a_Node000017"><a xlink:href="GeoParserEnums_8h.html" target="_top" xlink:title="Constantes nommées et énumérations du pipeline ferroviaire GeoParser.">
<polygon fill="white" stroke="#666666" points="1755.91,-19 1602.91,-19 1602.91,0 1755.91,0 1755.91,-19"/>
<text text-anchor="middle" x="1679.41" y="-7" font-family="Helvetica,sans-Serif" font-size="10.00">../Enums/GeoParserEnums.h</text>
</a>
</g>
</g>
<!-- Node2&#45;&gt;Node17 -->
<g id="edge48_Node000002_Node000017" class="edge">
<title>Node2&#45;&gt;Node17</title>
<g id="a_edge48_Node000002_Node000017"><a xlink:title=" ">
<path fill="none" stroke="#63b8ff" d="M813.33,-236.72C937.64,-229.56 1241.94,-206.21 1487.41,-140 1566.06,-118.79 1602.23,-133 1658.41,-74 1670.03,-61.79 1675.23,-43.01 1677.54,-29.03"/>
<polygon fill="#63b8ff" stroke="#63b8ff" points="1681.02,-29.44 1678.86,-19.07 1674.08,-28.53 1681.02,-29.44"/>
</a>
</g>
</g>
<!-- Node19 -->
<g id="Node000019" class="node">
<title>Node19</title>
<g id="a_Node000019"><a xlink:href="Logger_8h.html" target="_top" xlink:title="Système de journalisation à 5 niveaux de trace, un fichier par moteur.">
<polygon fill="white" stroke="#666666" points="1263.91,-140 1152.91,-140 1152.91,-110 1263.91,-110 1263.91,-140"/>
<text text-anchor="start" x="1160.91" y="-128" font-family="Helvetica,sans-Serif" font-size="10.00">Engine/Core/Logger</text>
<text text-anchor="middle" x="1208.41" y="-117" font-family="Helvetica,sans-Serif" font-size="10.00">/Logger.h</text>
</a>
</g>
</g>
<!-- Node2&#45;&gt;Node19 -->
<g id="edge49_Node000002_Node000019" class="edge">
<title>Node2&#45;&gt;Node19</title>
<g id="a_edge49_Node000002_Node000019"><a xlink:title=" ">
<path fill="none" stroke="#63b8ff" d="M812.92,-235.79C898.93,-229.58 1058.31,-215.69 1111.41,-195 1139.76,-183.96 1167.58,-162.8 1186.1,-146.81"/>
<polygon fill="#63b8ff" stroke="#63b8ff" points="1188.52,-149.34 1193.69,-140.1 1183.88,-144.1 1188.52,-149.34"/>
</a>
</g>
</g>
<!-- Node24 -->
<g id="Node000024" class="node">
<title>Node24</title>
<g id="a_Node000024"><a xlink:href="StraightBlock_8h.html" target="_top" xlink:title="Modèle de domaine d&#39;un bloc de voie droite (Straight).">
<polygon fill="white" stroke="#666666" points="483.91,-74 348.91,-74 348.91,-55 483.91,-55 483.91,-74"/>
<text text-anchor="middle" x="416.41" y="-62" font-family="Helvetica,sans-Serif" font-size="10.00">./Models/StraightBlock.h</text>
</a>
</g>
</g>
<!-- Node2&#45;&gt;Node24 -->
<g id="edge37_Node000002_Node000024" class="edge">
<title>Node2&#45;&gt;Node24</title>
<g id="a_edge37_Node000002_Node000024"><a xlink:title=" ">
<path fill="none" stroke="#63b8ff" d="M734.26,-230.97C693.43,-214.97 603.95,-178.57 532.41,-140 497.78,-121.33 459.8,-95.93 437.05,-80.13"/>
<polygon fill="#63b8ff" stroke="#63b8ff" points="438.76,-77.05 428.56,-74.19 434.75,-82.79 438.76,-77.05"/>
</a>
</g>
</g>
<!-- Node25 -->
<g id="Node000025" class="node">
<title>Node25</title>
<g id="a_Node000025"><a xlink:href="SwitchBlock_8h.html" target="_top" xlink:title="Modèle de domaine d&#39;un aiguillage ferroviaire à 3 branches (Switch).">
<polygon fill="white" stroke="#666666" points="820.91,-74 691.91,-74 691.91,-55 820.91,-55 820.91,-74"/>
<text text-anchor="middle" x="756.41" y="-62" font-family="Helvetica,sans-Serif" font-size="10.00">./Models/SwitchBlock.h</text>
</a>
</g>
</g>
<!-- Node2&#45;&gt;Node25 -->
<g id="edge42_Node000002_Node000025" class="edge">
<title>Node2&#45;&gt;Node25</title>
<g id="a_edge42_Node000002_Node000025"><a xlink:title=" ">
<path fill="none" stroke="#63b8ff" d="M756.41,-230.63C756.41,-203.64 756.41,-122.03 756.41,-84.61"/>
<polygon fill="#63b8ff" stroke="#63b8ff" points="759.91,-84.14 756.41,-74.14 752.91,-84.14 759.91,-84.14"/>
</a>
</g>
</g>
<!-- Node8&#45;&gt;Node3 -->
<g id="edge8_Node000008_Node000003" class="edge">
<title>Node8&#45;&gt;Node3</title>
<g id="a_edge8_Node000008_Node000003"><a xlink:title=" ">
<path fill="none" stroke="#63b8ff" d="M1048.51,-175.87C1061.47,-166.62 1082.27,-151.78 1097.81,-140.69"/>
<polygon fill="#63b8ff" stroke="#63b8ff" points="1100.15,-143.32 1106.26,-134.67 1096.09,-137.63 1100.15,-143.32"/>
</a>
</g>
</g>
<!-- Node8&#45;&gt;Node4 -->
<g id="edge9_Node000008_Node000004" class="edge">
<title>Node8&#45;&gt;Node4</title>
<g id="a_edge9_Node000008_Node000004"><a xlink:title=" ">
<path fill="none" stroke="#63b8ff" d="M991.7,-182.34C820.76,-173.64 215.4,-138.44 161.41,-74 155.99,-67.53 156.05,-61.53 161.41,-55 185.16,-26.04 296.24,-15.56 352.12,-12.08"/>
<polygon fill="#63b8ff" stroke="#63b8ff" points="352.42,-15.57 362.2,-11.49 352.02,-8.58 352.42,-15.57"/>
</a>
</g>
</g>
<!-- Node8&#45;&gt;Node7 -->
<g id="edge10_Node000008_Node000007" class="edge">
<title>Node8&#45;&gt;Node7</title>
<g id="a_edge10_Node000008_Node000007"><a xlink:title=" ">
<path fill="none" stroke="#63b8ff" d="M991.79,-185.22C849.29,-186.41 409.93,-181.21 332.41,-74 327.46,-67.16 327.62,-61.96 332.41,-55 337.36,-47.79 382.62,-31.85 415.11,-21.14"/>
<polygon fill="#63b8ff" stroke="#63b8ff" points="416.3,-24.43 424.72,-18 414.13,-17.78 416.3,-24.43"/>
</a>
</g>
</g>
<!-- Node9 -->
<g id="Node000009" class="node">
<title>Node9</title>
<g id="a_Node000009"><a xlink:href="TopologyGraph_8h.html" target="_top" xlink:title="Graphe planaire non&#45;orienté de nœuds et d&#39;arêtes ferroviaires accrochés.">
<polygon fill="white" stroke="#666666" points="678.91,-134.5 541.91,-134.5 541.91,-115.5 678.91,-115.5 678.91,-134.5"/>
<text text-anchor="middle" x="610.41" y="-122.5" font-family="Helvetica,sans-Serif" font-size="10.00">./Graph/TopologyGraph.h</text>
</a>
</g>
</g>
<!-- Node8&#45;&gt;Node9 -->
<g id="edge11_Node000008_Node000009" class="edge">
<title>Node8&#45;&gt;Node9</title>
<g id="a_edge11_Node000008_Node000009"><a xlink:title=" ">
<path fill="none" stroke="#63b8ff" d="M991.62,-178.35C917.99,-168.24 770.7,-148.01 682.32,-135.88"/>
<polygon fill="#63b8ff" stroke="#63b8ff" points="682.75,-132.4 672.37,-134.51 681.8,-139.34 682.75,-132.4"/>
</a>
</g>
</g>
<!-- Node16 -->
<g id="Node000016" class="node">
<title>Node16</title>
<g id="a_Node000016"><a xlink:href="CoordinateXY_8h.html" target="_top" xlink:title="Représentation d&#39;une coordonnée plane en mètres (système métrique UTM).">
<polygon fill="white" stroke="#666666" points="1200.91,-19 1063.91,-19 1063.91,0 1200.91,0 1200.91,-19"/>
<text text-anchor="middle" x="1132.41" y="-7" font-family="Helvetica,sans-Serif" font-size="10.00">../Models/CoordinateXY.h</text>
</a>
</g>
</g>
<!-- Node8&#45;&gt;Node16 -->
<g id="edge29_Node000008_Node000016" class="edge">
<title>Node8&#45;&gt;Node16</title>
<g id="a_edge29_Node000008_Node000016"><a xlink:title=" ">
<path fill="none" stroke="#63b8ff" d="M1041.3,-175.63C1056.39,-148.29 1102.4,-64.9 1122.65,-28.18"/>
<polygon fill="#63b8ff" stroke="#63b8ff" points="1125.87,-29.59 1127.64,-19.14 1119.74,-26.21 1125.87,-29.59"/>
</a>
</g>
</g>
<!-- Node8&#45;&gt;Node17 -->
<g id="edge27_Node000008_Node000017" class="edge">
<title>Node8&#45;&gt;Node17</title>
<g id="a_edge27_Node000008_Node000017"><a xlink:title=" ">
<path fill="none" stroke="#63b8ff" d="M1081.29,-180.52C1203.73,-168.99 1540.62,-132.62 1633.41,-74 1650.8,-63.01 1663.69,-42.87 1671.33,-28.21"/>
<polygon fill="#63b8ff" stroke="#63b8ff" points="1674.53,-29.63 1675.77,-19.11 1668.24,-26.56 1674.53,-29.63"/>
</a>
</g>
</g>
<!-- Node18 -->
<g id="Node000018" class="node">
<title>Node18</title>
<g id="a_Node000018"><a xlink:href="LatLon_8h.html" target="_top" xlink:title="Représentation d&#39;une coordonnée géographique WGS&#45;84 (latitude, longitude).">
<polygon fill="white" stroke="#666666" points="961.41,-19 859.41,-19 859.41,0 961.41,0 961.41,-19"/>
<text text-anchor="middle" x="910.41" y="-7" font-family="Helvetica,sans-Serif" font-size="10.00">./Models/LatLon.h</text>
</a>
</g>
</g>
<!-- Node8&#45;&gt;Node18 -->
<g id="edge28_Node000008_Node000018" class="edge">
<title>Node8&#45;&gt;Node18</title>
<g id="a_edge28_Node000008_Node000018"><a xlink:title=" ">
<path fill="none" stroke="#63b8ff" d="M1033.95,-175.76C1027.36,-153.55 1007.52,-93.92 974.41,-55 963.82,-42.56 948.99,-31.96 936.27,-24.22"/>
<polygon fill="#63b8ff" stroke="#63b8ff" points="937.88,-21.11 927.47,-19.12 934.37,-27.16 937.88,-21.11"/>
</a>
</g>
</g>
<!-- Node8&#45;&gt;Node19 -->
<g id="edge30_Node000008_Node000019" class="edge">
<title>Node8&#45;&gt;Node19</title>
<g id="a_edge30_Node000008_Node000019"><a xlink:title=" ">
<path fill="none" stroke="#63b8ff" d="M1061.42,-175.99C1086.5,-167.46 1125.83,-154.09 1157.5,-143.32"/>
<polygon fill="#63b8ff" stroke="#63b8ff" points="1158.72,-146.6 1167.06,-140.06 1156.46,-139.97 1158.72,-146.6"/>
</a>
</g>
</g>
<!-- Node9&#45;&gt;Node4 -->
<g id="edge15_Node000009_Node000004" class="edge">
<title>Node9&#45;&gt;Node4</title>
<g id="a_edge15_Node000009_Node000004"><a xlink:title=" ">
<path fill="none" stroke="#63b8ff" d="M541.83,-121.42C468.32,-117.05 358.6,-105.32 332.41,-74 318.3,-57.13 340.11,-37.52 359.65,-24.6"/>
<polygon fill="#63b8ff" stroke="#63b8ff" points="361.71,-27.44 368.34,-19.17 358,-21.51 361.71,-27.44"/>
</a>
</g>
</g>
<!-- Node9&#45;&gt;Node5 -->
<g id="edge16_Node000009_Node000005" class="edge">
<title>Node9&#45;&gt;Node5</title>
<g id="a_edge16_Node000009_Node000005"><a xlink:title=" ">
<path fill="none" stroke="#63b8ff" d="M541.64,-116.59C433.21,-104.91 224.55,-82.43 124.13,-71.61"/>
<polygon fill="#63b8ff" stroke="#63b8ff" points="124.5,-68.13 114.18,-70.54 123.75,-75.09 124.5,-68.13"/>
</a>
</g>
</g>
<!-- Node9&#45;&gt;Node6 -->
<g id="edge17_Node000009_Node000006" class="edge">
<title>Node9&#45;&gt;Node6</title>
<g id="a_edge17_Node000009_Node000006"><a xlink:title=" ">
<path fill="none" stroke="#63b8ff" d="M541.8,-116.96C465.47,-108.66 338.62,-93.5 230.41,-74 228.95,-73.74 227.46,-73.45 225.96,-73.16"/>
<polygon fill="#63b8ff" stroke="#63b8ff" points="226.54,-69.7 216.04,-71.06 225.09,-76.55 226.54,-69.7"/>
</a>
</g>
</g>
<!-- Node9&#45;&gt;Node7 -->
<g id="edge18_Node000009_Node000007" class="edge">
<title>Node9&#45;&gt;Node7</title>
<g id="a_edge18_Node000009_Node000007"><a xlink:title=" ">
<path fill="none" stroke="#63b8ff" d="M541.6,-121.04C469.94,-116.34 364.66,-104.34 339.41,-74 334.01,-67.51 334.7,-62.01 339.41,-55 348.25,-41.83 386.44,-28.28 415.13,-19.64"/>
<polygon fill="#63b8ff" stroke="#63b8ff" points="416.21,-22.97 424.82,-16.8 414.24,-16.25 416.21,-22.97"/>
</a>
</g>
</g>
<!-- Node10 -->
<g id="Node000010" class="node">
<title>Node10</title>
<g id="a_Node000010"><a xlink:title=" ">
<polygon fill="#e0e0e0" stroke="#999999" points="635.41,-74 585.41,-74 585.41,-55 635.41,-55 635.41,-74"/>
<text text-anchor="middle" x="610.41" y="-62" font-family="Helvetica,sans-Serif" font-size="10.00">cstdint</text>
</a>
</g>
</g>
<!-- Node9&#45;&gt;Node10 -->
<g id="edge12_Node000009_Node000010" class="edge">
<title>Node9&#45;&gt;Node10</title>
<g id="a_edge12_Node000009_Node000010"><a xlink:title=" ">
<path fill="none" stroke="#63b8ff" d="M610.41,-115.37C610.41,-107.25 610.41,-94.81 610.41,-84.39"/>
<polygon fill="#63b8ff" stroke="#63b8ff" points="613.91,-84.17 610.41,-74.17 606.91,-84.17 613.91,-84.17"/>
</a>
</g>
</g>
<!-- Node11 -->
<g id="Node000011" class="node">
<title>Node11</title>
<g id="a_Node000011"><a xlink:title=" ">
<polygon fill="#e0e0e0" stroke="#999999" points="566.91,-74 501.91,-74 501.91,-55 566.91,-55 566.91,-74"/>
<text text-anchor="middle" x="534.41" y="-62" font-family="Helvetica,sans-Serif" font-size="10.00">functional</text>
</a>
</g>
</g>
<!-- Node9&#45;&gt;Node11 -->
<g id="edge13_Node000009_Node000011" class="edge">
<title>Node9&#45;&gt;Node11</title>
<g id="a_edge13_Node000009_Node000011"><a xlink:title=" ">
<path fill="none" stroke="#63b8ff" d="M599.19,-115.37C587.29,-106.21 568.27,-91.56 553.9,-80.51"/>
<polygon fill="#63b8ff" stroke="#63b8ff" points="555.73,-77.49 545.67,-74.17 551.46,-83.04 555.73,-77.49"/>
</a>
</g>
</g>
<!-- Node12 -->
<g id="Node000012" class="node">
<title>Node12</title>
<g id="a_Node000012"><a xlink:title=" ">
<polygon fill="#e0e0e0" stroke="#999999" points="1035.41,-19 979.41,-19 979.41,0 1035.41,0 1035.41,-19"/>
<text text-anchor="middle" x="1007.41" y="-7" font-family="Helvetica,sans-Serif" font-size="10.00">optional</text>
</a>
</g>
</g>
<!-- Node9&#45;&gt;Node12 -->
<g id="edge14_Node000009_Node000012" class="edge">
<title>Node9&#45;&gt;Node12</title>
<g id="a_edge14_Node000009_Node000012"><a xlink:title=" ">
<path fill="none" stroke="#63b8ff" d="M679.22,-118.45C762.06,-110.93 895.63,-95.88 940.41,-74 962.8,-63.06 982.7,-41.99 994.89,-27.12"/>
<polygon fill="#63b8ff" stroke="#63b8ff" points="997.68,-29.23 1001.13,-19.21 992.19,-24.9 997.68,-29.23"/>
</a>
</g>
</g>
<!-- Node13 -->
<g id="Node000013" class="node">
<title>Node13</title>
<g id="a_Node000013"><a xlink:href="TopologyEdge_8h.html" target="_top" xlink:title="Arête non&#45;orientée du graphe planaire de topologie ferroviaire.">
<polygon fill="white" stroke="#666666" points="931.91,-74 838.91,-74 838.91,-55 931.91,-55 931.91,-74"/>
<text text-anchor="middle" x="885.41" y="-62" font-family="Helvetica,sans-Serif" font-size="10.00">TopologyEdge.h</text>
</a>
</g>
</g>
<!-- Node9&#45;&gt;Node13 -->
<g id="edge19_Node000009_Node000013" class="edge">
<title>Node9&#45;&gt;Node13</title>
<g id="a_edge19_Node000009_Node000013"><a xlink:title=" ">
<path fill="none" stroke="#63b8ff" d="M650.4,-115.49C699.38,-105.07 782.37,-87.42 835.49,-76.12"/>
<polygon fill="#63b8ff" stroke="#63b8ff" points="836.32,-79.52 845.37,-74.02 834.86,-72.67 836.32,-79.52"/>
</a>
</g>
</g>
<!-- Node9&#45;&gt;Node16 -->
<g id="edge25_Node000009_Node000016" class="edge">
<title>Node9&#45;&gt;Node16</title>
<g id="a_edge25_Node000009_Node000016"><a xlink:title=" ">
<path fill="none" stroke="#63b8ff" d="M678.96,-119.15C751.7,-112.91 869.55,-99.67 968.41,-74 1017.95,-61.13 1072.94,-37.88 1105,-23.37"/>
<polygon fill="#63b8ff" stroke="#63b8ff" points="1106.54,-26.51 1114.18,-19.17 1103.63,-20.15 1106.54,-26.51"/>
</a>
</g>
</g>
<!-- Node9&#45;&gt;Node17 -->
<g id="edge26_Node000009_Node000017" class="edge">
<title>Node9&#45;&gt;Node17</title>
<g id="a_edge26_Node000009_Node000017"><a xlink:title=" ">
<path fill="none" stroke="#63b8ff" d="M679.11,-121.74C896.95,-114.41 1560.46,-90.81 1603.41,-74 1628.8,-64.06 1651.91,-42.06 1665.81,-26.76"/>
<polygon fill="#63b8ff" stroke="#63b8ff" points="1668.59,-28.9 1672.54,-19.07 1663.32,-24.29 1668.59,-28.9"/>
</a>
</g>
</g>
<!-- Node13&#45;&gt;Node4 -->
<g id="edge22_Node000013_Node000004" class="edge">
<title>Node13&#45;&gt;Node4</title>
<g id="a_edge22_Node000013_Node000004"><a xlink:title=" ">
<path fill="none" stroke="#63b8ff" d="M838.69,-56.18C835.55,-55.76 832.44,-55.36 829.41,-55 649.24,-33.52 598.97,-50.92 416.57,-18.88"/>
<polygon fill="#63b8ff" stroke="#63b8ff" points="417.11,-15.42 406.65,-17.12 415.88,-22.32 417.11,-15.42"/>
</a>
</g>
</g>
<!-- Node13&#45;&gt;Node7 -->
<g id="edge23_Node000013_Node000007" class="edge">
<title>Node13&#45;&gt;Node7</title>
<g id="a_edge23_Node000013_Node000007"><a xlink:title=" ">
<path fill="none" stroke="#63b8ff" d="M838.67,-56.28C835.54,-55.84 832.43,-55.41 829.41,-55 701.55,-37.83 549.03,-21.17 482.39,-14.07"/>
<polygon fill="#63b8ff" stroke="#63b8ff" points="482.39,-10.55 472.07,-12.98 481.65,-17.51 482.39,-10.55"/>
</a>
</g>
</g>
<!-- Node13&#45;&gt;Node14 -->
<g id="edge20_Node000013_Node000014" class="edge">
<title>Node13&#45;&gt;Node14</title>
<g id="a_edge20_Node000013_Node000014"><a xlink:title=" ">
<path fill="none" stroke="#63b8ff" d="M932.05,-59.67C1055.57,-49.52 1389.01,-22.12 1496.51,-13.29"/>
<polygon fill="#63b8ff" stroke="#63b8ff" points="1497.09,-16.75 1506.76,-12.44 1496.51,-9.77 1497.09,-16.75"/>
</a>
</g>
</g>
<!-- Node13&#45;&gt;Node15 -->
<g id="edge21_Node000013_Node000015" class="edge">
<title>Node13&#45;&gt;Node15</title>
<g id="a_edge21_Node000013_Node000015"><a xlink:title=" ">
<path fill="none" stroke="#63b8ff" d="M873.84,-54.98C862.99,-47 846.53,-34.88 833.52,-25.31"/>
<polygon fill="#63b8ff" stroke="#63b8ff" points="835.31,-22.28 825.19,-19.17 831.17,-27.92 835.31,-22.28"/>
</a>
</g>
</g>
<!-- Node13&#45;&gt;Node16 -->
<g id="edge24_Node000013_Node000016" class="edge">
<title>Node13&#45;&gt;Node16</title>
<g id="a_edge24_Node000013_Node000016"><a xlink:title=" ">
<path fill="none" stroke="#63b8ff" d="M925.09,-54.98C967.91,-45.8 1036.17,-31.15 1082.57,-21.19"/>
<polygon fill="#63b8ff" stroke="#63b8ff" points="1083.37,-24.6 1092.41,-19.08 1081.9,-17.76 1083.37,-24.6"/>
</a>
</g>
</g>
<!-- Node19&#45;&gt;Node4 -->
<g id="edge36_Node000019_Node000004" class="edge">
<title>Node19&#45;&gt;Node4</title>
<g id="a_edge36_Node000019_Node000004"><a xlink:title=" ">
<path fill="none" stroke="#63b8ff" d="M1152.83,-111.52C1149.65,-110.96 1146.49,-110.45 1143.41,-110 940.05,-80.3 880.43,-128.97 682.41,-74 664.21,-68.95 662.39,-60.76 644.41,-55 549.35,-24.57 518.09,-39.64 416.72,-19.04"/>
<polygon fill="#63b8ff" stroke="#63b8ff" points="417.19,-15.56 406.69,-16.93 415.75,-22.41 417.19,-15.56"/>
</a>
</g>
</g>
<!-- Node19&#45;&gt;Node15 -->
<g id="edge35_Node000019_Node000015" class="edge">
<title>Node19&#45;&gt;Node15</title>
<g id="a_edge35_Node000019_Node000015"><a xlink:title=" ">
<path fill="none" stroke="#63b8ff" d="M1161.42,-109.89C1114.22,-95.77 1039.37,-73.55 974.41,-55 932.51,-43.03 884.34,-29.79 851.69,-20.88"/>
<polygon fill="#63b8ff" stroke="#63b8ff" points="852.23,-17.4 841.66,-18.15 850.39,-24.16 852.23,-17.4"/>
</a>
</g>
</g>
<!-- Node20 -->
<g id="Node000020" class="node">
<title>Node20</title>
<g id="a_Node000020"><a xlink:title=" ">
<polygon fill="#e0e0e0" stroke="#999999" points="1222.41,-74 1178.41,-74 1178.41,-55 1222.41,-55 1222.41,-74"/>
<text text-anchor="middle" x="1200.41" y="-62" font-family="Helvetica,sans-Serif" font-size="10.00">ctime</text>
</a>
</g>
</g>
<!-- Node19&#45;&gt;Node20 -->
<g id="edge31_Node000019_Node000020" class="edge">
<title>Node19&#45;&gt;Node20</title>
<g id="a_edge31_Node000019_Node000020"><a xlink:title=" ">
<path fill="none" stroke="#63b8ff" d="M1206.47,-109.84C1205.43,-102.21 1204.13,-92.7 1203,-84.45"/>
<polygon fill="#63b8ff" stroke="#63b8ff" points="1206.43,-83.7 1201.61,-74.27 1199.49,-84.65 1206.43,-83.7"/>
</a>
</g>
</g>
<!-- Node21 -->
<g id="Node000021" class="node">
<title>Node21</title>
<g id="a_Node000021"><a xlink:title=" ">
<polygon fill="#e0e0e0" stroke="#999999" points="1308.41,-74 1240.41,-74 1240.41,-55 1308.41,-55 1308.41,-74"/>
<text text-anchor="middle" x="1274.41" y="-62" font-family="Helvetica,sans-Serif" font-size="10.00">filesystem</text>
</a>
</g>
</g>
<!-- Node19&#45;&gt;Node21 -->
<g id="edge32_Node000019_Node000021" class="edge">
<title>Node19&#45;&gt;Node21</title>
<g id="a_edge32_Node000019_Node000021"><a xlink:title=" ">
<path fill="none" stroke="#63b8ff" d="M1224.38,-109.84C1234.16,-101.17 1246.68,-90.08 1256.75,-81.15"/>
<polygon fill="#63b8ff" stroke="#63b8ff" points="1259.36,-83.52 1264.52,-74.27 1254.71,-78.28 1259.36,-83.52"/>
</a>
</g>
</g>
<!-- Node22 -->
<g id="Node000022" class="node">
<title>Node22</title>
<g id="a_Node000022"><a xlink:title=" ">
<polygon fill="#e0e0e0" stroke="#999999" points="1381.91,-74 1326.91,-74 1326.91,-55 1381.91,-55 1381.91,-74"/>
<text text-anchor="middle" x="1354.41" y="-62" font-family="Helvetica,sans-Serif" font-size="10.00">fstream</text>
</a>
</g>
</g>
<!-- Node19&#45;&gt;Node22 -->
<g id="edge33_Node000019_Node000022" class="edge">
<title>Node19&#45;&gt;Node22</title>
<g id="a_edge33_Node000019_Node000022"><a xlink:title=" ">
<path fill="none" stroke="#63b8ff" d="M1243.38,-109.99C1267.74,-100.23 1299.94,-87.33 1323.38,-77.93"/>
<polygon fill="#63b8ff" stroke="#63b8ff" points="1324.87,-81.11 1332.85,-74.14 1322.26,-74.61 1324.87,-81.11"/>
</a>
</g>
</g>
<!-- Node23 -->
<g id="Node000023" class="node">
<title>Node23</title>
<g id="a_Node000023"><a xlink:title=" ">
<polygon fill="#e0e0e0" stroke="#999999" points="1448.41,-74 1400.41,-74 1400.41,-55 1448.41,-55 1448.41,-74"/>
<text text-anchor="middle" x="1424.41" y="-62" font-family="Helvetica,sans-Serif" font-size="10.00">mutex</text>
</a>
</g>
</g>
<!-- Node19&#45;&gt;Node23 -->
<g id="edge34_Node000019_Node000023" class="edge">
<title>Node19&#45;&gt;Node23</title>
<g id="a_edge34_Node000019_Node000023"><a xlink:title=" ">
<path fill="none" stroke="#63b8ff" d="M1260.15,-109.99C1300.59,-99.04 1355.63,-84.13 1390.59,-74.66"/>
<polygon fill="#63b8ff" stroke="#63b8ff" points="1391.59,-78.01 1400.33,-72.02 1389.76,-71.26 1391.59,-78.01"/>
</a>
</g>
</g>
<!-- Node24&#45;&gt;Node4 -->
<g id="edge39_Node000024_Node000004" class="edge">
<title>Node24&#45;&gt;Node4</title>
<g id="a_edge39_Node000024_Node000004"><a xlink:title=" ">
<path fill="none" stroke="#63b8ff" d="M411.12,-54.75C406.7,-47.42 400.24,-36.73 394.79,-27.7"/>
<polygon fill="#63b8ff" stroke="#63b8ff" points="397.76,-25.84 389.59,-19.09 391.77,-29.46 397.76,-25.84"/>
</a>
</g>
</g>
<!-- Node24&#45;&gt;Node7 -->
<g id="edge40_Node000024_Node000007" class="edge">
<title>Node24&#45;&gt;Node7</title>
<g id="a_edge40_Node000024_Node000007"><a xlink:title=" ">
<path fill="none" stroke="#63b8ff" d="M421.69,-54.75C426.12,-47.42 432.57,-36.73 438.03,-27.7"/>
<polygon fill="#63b8ff" stroke="#63b8ff" points="441.05,-29.46 443.22,-19.09 435.06,-25.84 441.05,-29.46"/>
</a>
</g>
</g>
<!-- Node24&#45;&gt;Node15 -->
<g id="edge38_Node000024_Node000015" class="edge">
<title>Node24&#45;&gt;Node15</title>
<g id="a_edge38_Node000024_Node000015"><a xlink:title=" ">
<path fill="none" stroke="#63b8ff" d="M480.19,-54.98C563.41,-43.87 706.45,-24.78 774.82,-15.65"/>
<polygon fill="#63b8ff" stroke="#63b8ff" points="775.69,-19.07 785.14,-14.27 774.76,-12.13 775.69,-19.07"/>
</a>
</g>
</g>
<!-- Node24&#45;&gt;Node18 -->
<g id="edge41_Node000024_Node000018" class="edge">
<title>Node24&#45;&gt;Node18</title>
<g id="a_edge41_Node000024_Node000018"><a xlink:title=" ">
<path fill="none" stroke="#63b8ff" d="M483.95,-55.91C486.81,-55.6 489.64,-55.29 492.41,-55 648.17,-38.46 689.95,-38.22 849.2,-19.1"/>
<polygon fill="#63b8ff" stroke="#63b8ff" points="849.86,-22.55 859.36,-17.87 849.02,-15.6 849.86,-22.55"/>
</a>
</g>
</g>
<!-- Node25&#45;&gt;Node4 -->
<g id="edge45_Node000025_Node000004" class="edge">
<title>Node25&#45;&gt;Node4</title>
<g id="a_edge45_Node000025_Node000004"><a xlink:title=" ">
<path fill="none" stroke="#63b8ff" d="M691.69,-56.13C612.38,-46.93 481.5,-31.12 416.83,-18.99"/>
<polygon fill="#63b8ff" stroke="#63b8ff" points="417.16,-15.49 406.67,-17 415.81,-22.36 417.16,-15.49"/>
</a>
</g>
</g>
<!-- Node25&#45;&gt;Node7 -->
<g id="edge46_Node000025_Node000007" class="edge">
<title>Node25&#45;&gt;Node7</title>
<g id="a_edge46_Node000025_Node000007"><a xlink:title=" ">
<path fill="none" stroke="#63b8ff" d="M706.92,-54.98C643.95,-44.15 536.84,-25.72 482.38,-16.35"/>
<polygon fill="#63b8ff" stroke="#63b8ff" points="482.66,-12.84 472.21,-14.6 481.48,-19.74 482.66,-12.84"/>
</a>
</g>
</g>
<!-- Node25&#45;&gt;Node12 -->
<g id="edge43_Node000025_Node000012" class="edge">
<title>Node25&#45;&gt;Node12</title>
<g id="a_edge43_Node000025_Node000012"><a xlink:title=" ">
<path fill="none" stroke="#63b8ff" d="M798.69,-54.98C839.79,-46.63 904.23,-33.39 969.14,-19.24"/>
<polygon fill="#63b8ff" stroke="#63b8ff" points="970.12,-22.61 979.14,-17.06 968.62,-15.77 970.12,-22.61"/>
</a>
</g>
</g>
<!-- Node25&#45;&gt;Node15 -->
<g id="edge44_Node000025_Node000015" class="edge">
<title>Node25&#45;&gt;Node15</title>
<g id="a_edge44_Node000025_Node000015"><a xlink:title=" ">
<path fill="none" stroke="#63b8ff" d="M765.57,-54.98C773.91,-47.23 786.44,-35.58 796.59,-26.14"/>
<polygon fill="#63b8ff" stroke="#63b8ff" points="799.14,-28.54 804.08,-19.17 794.38,-23.42 799.14,-28.54"/>
</a>
</g>
</g>
<!-- Node25&#45;&gt;Node18 -->
<g id="edge47_Node000025_Node000018" class="edge">
<title>Node25&#45;&gt;Node18</title>
<g id="a_edge47_Node000025_Node000018"><a xlink:title=" ">
<path fill="none" stroke="#63b8ff" d="M781.15,-54.98C806.78,-46.16 847.04,-32.31 875.81,-22.41"/>
<polygon fill="#63b8ff" stroke="#63b8ff" points="877.15,-25.65 885.47,-19.08 874.88,-19.03 877.15,-25.65"/>
</a>
</g>
</g>
<!-- Node27&#45;&gt;Node7 -->
<g id="edge56_Node000027_Node000007" class="edge">
<title>Node27&#45;&gt;Node7</title>
<g id="a_edge56_Node000027_Node000007"><a xlink:title=" ">
<path fill="none" stroke="#63b8ff" d="M1466.34,-55.78C1463.32,-55.5 1460.33,-55.23 1457.41,-55 1075.28,-24.37 609.93,-13.6 482.21,-11.11"/>
<polygon fill="#63b8ff" stroke="#63b8ff" points="481.98,-7.6 471.91,-10.91 481.84,-14.6 481.98,-7.6"/>
</a>
</g>
</g>
<!-- Node27&#45;&gt;Node12 -->
<g id="edge55_Node000027_Node000012" class="edge">
<title>Node27&#45;&gt;Node12</title>
<g id="a_edge55_Node000027_Node000012"><a xlink:title=" ">
<path fill="none" stroke="#63b8ff" d="M1466.32,-55.94C1463.31,-55.62 1460.33,-55.3 1457.41,-55 1278.53,-36.6 1232.62,-43.03 1054.41,-19 1051.56,-18.62 1048.62,-18.18 1045.66,-17.71"/>
<polygon fill="#63b8ff" stroke="#63b8ff" points="1046.12,-14.24 1035.68,-16.04 1044.96,-21.14 1046.12,-14.24"/>
</a>
</g>
</g>
<!-- Node27&#45;&gt;Node14 -->
<g id="edge54_Node000027_Node000014" class="edge">
<title>Node27&#45;&gt;Node14</title>
<g id="a_edge54_Node000027_Node000014"><a xlink:title=" ">
<path fill="none" stroke="#63b8ff" d="M1530.41,-54.75C1530.41,-47.8 1530.41,-37.85 1530.41,-29.13"/>
<polygon fill="#63b8ff" stroke="#63b8ff" points="1533.91,-29.09 1530.41,-19.09 1526.91,-29.09 1533.91,-29.09"/>
</a>
</g>
</g>
<!-- Node27&#45;&gt;Node16 -->
<g id="edge58_Node000027_Node000016" class="edge">
<title>Node27&#45;&gt;Node16</title>
<g id="a_edge58_Node000027_Node000016"><a xlink:title=" ">
<path fill="none" stroke="#63b8ff" d="M1466.46,-54.98C1395.63,-45.55 1281.58,-30.36 1206.81,-20.41"/>
<polygon fill="#63b8ff" stroke="#63b8ff" points="1206.9,-16.89 1196.52,-19.04 1205.98,-23.83 1206.9,-16.89"/>
</a>
</g>
</g>
<!-- Node27&#45;&gt;Node17 -->
<g id="edge59_Node000027_Node000017" class="edge">
<title>Node27&#45;&gt;Node17</title>
<g id="a_edge59_Node000027_Node000017"><a xlink:title=" ">
<path fill="none" stroke="#63b8ff" d="M1554.35,-54.98C1578.96,-46.23 1617.53,-32.51 1645.32,-22.62"/>
<polygon fill="#63b8ff" stroke="#63b8ff" points="1646.78,-25.82 1655.03,-19.17 1644.44,-19.22 1646.78,-25.82"/>
</a>
</g>
</g>
<!-- Node27&#45;&gt;Node18 -->
<g id="edge57_Node000027_Node000018" class="edge">
<title>Node27&#45;&gt;Node18</title>
<g id="a_edge57_Node000027_Node000018"><a xlink:title=" ">
<path fill="none" stroke="#63b8ff" d="M1466.33,-55.88C1463.32,-55.57 1460.33,-55.28 1457.41,-55 1244.62,-34.76 1187.9,-42.01 971.53,-19.05"/>
<polygon fill="#63b8ff" stroke="#63b8ff" points="971.76,-15.55 961.44,-17.97 971.01,-22.51 971.76,-15.55"/>
</a>
</g>
</g>
</g>
</svg>
