<?xml version="1.0" encoding="UTF-8" standalone="no"?>
<!DOCTYPE svg PUBLIC "-//W3C//DTD SVG 1.1//EN"
 "http://www.w3.org/Graphics/SVG/1.1/DTD/svg11.dtd">
<!-- Generated by graphviz version 2.43.0 (0)
 -->
<!-- Title: SimulateurFerroviaire/Modules/GeoParser/TopologyExtractor.h Pages: 1 -->
<svg width="1568pt" height="280pt"
 viewBox="0.00 0.00 1568.01 280.00" xmlns="http://www.w3.org/2000/svg" xmlns:xlink="http://www.w3.org/1999/xlink">
<g id="graph0" class="graph" transform="scale(1 1) rotate(0) translate(4 276)">
<title>SimulateurFerroviaire/Modules/GeoParser/TopologyExtractor.h</title>
<!-- Node1 -->
<g id="Node000001" class="node">
<title>Node1</title>
<g id="a_Node000001"><a xlink:title="Phases 3, 4, 5a et 5b — extraction de la topologie ferroviaire depuis le graphe.">
<polygon fill="#999999" stroke="#666666" points="819.05,-272 659.05,-272 659.05,-231 819.05,-231 819.05,-272"/>
<text text-anchor="start" x="667.05" y="-260" font-family="Helvetica,sans-Serif" font-size="10.00">SimulateurFerroviaire</text>
<text text-anchor="start" x="667.05" y="-249" font-family="Helvetica,sans-Serif" font-size="10.00">/Modules/GeoParser/Topology</text>
<text text-anchor="middle" x="739.05" y="-238" font-family="Helvetica,sans-Serif" font-size="10.00">Extractor.h</text>
</a>
</g>
</g>
<!-- Node2 -->
<g id="Node000002" class="node">
<title>Node2</title>
<g id="a_Node000002"><a xlink:title=" ">
<polygon fill="#e0e0e0" stroke="#999999" points="780.05,-134.5 748.05,-134.5 748.05,-115.5 780.05,-115.5 780.05,-134.5"/>
<text text-anchor="middle" x="764.05" y="-122.5" font-family="Helvetica,sans-Serif" font-size="10.00">set</text>
</a>
</g>
</g>
<!-- Node1&#45;&gt;Node2 -->
<g id="edge1_Node000001_Node000002" class="edge">
<title>Node1&#45;&gt;Node2</title>
<g id="a_edge1_Node000001_Node000002"><a xlink:title=" ">
<path fill="none" stroke="#63b8ff" d="M743.01,-230.77C747.77,-207.09 755.68,-167.66 760.33,-144.52"/>
<polygon fill="#63b8ff" stroke="#63b8ff" points="763.78,-145.11 762.32,-134.61 756.92,-143.73 763.78,-145.11"/>
</a>
</g>
</g>
<!-- Node3 -->
<g id="Node000003" class="node">
<title>Node3</title>
<g id="a_Node000003"><a xlink:title=" ">
<polygon fill="#e0e0e0" stroke="#999999" points="626.05,-19 582.05,-19 582.05,0 626.05,0 626.05,-19"/>
<text text-anchor="middle" x="604.05" y="-7" font-family="Helvetica,sans-Serif" font-size="10.00">string</text>
</a>
</g>
</g>
<!-- Node1&#45;&gt;Node3 -->
<g id="edge2_Node000001_Node000003" class="edge">
<title>Node1&#45;&gt;Node3</title>
<g id="a_edge2_Node000001_Node000003"><a xlink:title=" ">
<path fill="none" stroke="#63b8ff" d="M699.17,-230.84C648.9,-203.55 564.85,-148.95 530.05,-74 519.16,-50.55 547.6,-32.48 572.32,-21.72"/>
<polygon fill="#63b8ff" stroke="#63b8ff" points="573.93,-24.84 581.87,-17.82 571.29,-18.36 573.93,-24.84"/>
</a>
</g>
</g>
<!-- Node4 -->
<g id="Node000004" class="node">
<title>Node4</title>
<g id="a_Node000004"><a xlink:title=" ">
<polygon fill="#e0e0e0" stroke="#999999" points="779.55,-74 686.55,-74 686.55,-55 779.55,-55 779.55,-74"/>
<text text-anchor="middle" x="733.05" y="-62" font-family="Helvetica,sans-Serif" font-size="10.00">unordered_map</text>
</a>
</g>
</g>
<!-- Node1&#45;&gt;Node4 -->
<g id="edge3_Node000001_Node000004" class="edge">
<title>Node1&#45;&gt;Node4</title>
<g id="a_edge3_Node000001_Node000004"><a xlink:title=" ">
<path fill="none" stroke="#63b8ff" d="M738.41,-230.7C737.24,-194.86 734.81,-119.67 733.66,-84.46"/>
<polygon fill="#63b8ff" stroke="#63b8ff" points="737.15,-84.04 733.33,-74.16 730.16,-84.27 737.15,-84.04"/>
</a>
</g>
</g>
<!-- Node5 -->
<g id="Node000005" class="node">
<title>Node5</title>
<g id="a_Node000005"><a xlink:title=" ">
<polygon fill="#e0e0e0" stroke="#999999" points="1545.55,-74 1500.55,-74 1500.55,-55 1545.55,-55 1545.55,-74"/>
<text text-anchor="middle" x="1523.05" y="-62" font-family="Helvetica,sans-Serif" font-size="10.00">utility</text>
</a>
</g>
</g>
<!-- Node1&#45;&gt;Node5 -->
<g id="edge4_Node000001_Node000005" class="edge">
<title>Node1&#45;&gt;Node5</title>
<g id="a_edge4_Node000001_Node000005"><a xlink:title=" ">
<path fill="none" stroke="#63b8ff" d="M819.28,-246.1C910.05,-239.86 1061.81,-225.6 1189.05,-195 1258.49,-178.3 1273.41,-165.69 1340.05,-140 1394.47,-119.02 1457.32,-93.05 1493.4,-77.97"/>
<polygon fill="#63b8ff" stroke="#63b8ff" points="1494.96,-81.11 1502.84,-74.02 1492.26,-74.65 1494.96,-81.11"/>
</a>
</g>
</g>
<!-- Node6 -->
<g id="Node000006" class="node">
<title>Node6</title>
<g id="a_Node000006"><a xlink:title=" ">
<polygon fill="#e0e0e0" stroke="#999999" points="1124.55,-19 1077.55,-19 1077.55,0 1124.55,0 1124.55,-19"/>
<text text-anchor="middle" x="1101.05" y="-7" font-family="Helvetica,sans-Serif" font-size="10.00">vector</text>
</a>
</g>
</g>
<!-- Node1&#45;&gt;Node6 -->
<g id="edge5_Node000001_Node000006" class="edge">
<title>Node1&#45;&gt;Node6</title>
<g id="a_edge5_Node000001_Node000006"><a xlink:title=" ">
<path fill="none" stroke="#63b8ff" d="M819.24,-246.58C1008.37,-235.38 1472.62,-195.75 1555.05,-74 1606.34,1.76 1237.7,-31.35 1147.05,-19 1143.09,-18.46 1138.95,-17.81 1134.85,-17.12"/>
<polygon fill="#63b8ff" stroke="#63b8ff" points="1135.31,-13.65 1124.85,-15.34 1134.09,-20.54 1135.31,-13.65"/>
</a>
</g>
</g>
<!-- Node7 -->
<g id="Node000007" class="node">
<title>Node7</title>
<g id="a_Node000007"><a xlink:href="GraphBuilder_8h.html" target="_top" xlink:title="Phases 1 et 2 du pipeline — chargement GeoJSON et construction du graphe métrique.">
<polygon fill="white" stroke="#666666" points="875.55,-195 786.55,-195 786.55,-176 875.55,-176 875.55,-195"/>
<text text-anchor="middle" x="831.05" y="-183" font-family="Helvetica,sans-Serif" font-size="10.00">GraphBuilder.h</text>
</a>
</g>
</g>
<!-- Node1&#45;&gt;Node7 -->
<g id="edge6_Node000001_Node000007" class="edge">
<title>Node1&#45;&gt;Node7</title>
<g id="a_edge6_Node000001_Node000007"><a xlink:title=" ">
<path fill="none" stroke="#63b8ff" d="M767.15,-230.95C780.93,-221.37 797.24,-210.02 809.94,-201.19"/>
<polygon fill="#63b8ff" stroke="#63b8ff" points="812.25,-203.84 818.46,-195.26 808.25,-198.1 812.25,-203.84"/>
</a>
</g>
</g>
<!-- Node16 -->
<g id="Node000016" class="node">
<title>Node16</title>
<g id="a_Node000016"><a xlink:href="GeoParserEnums_8h.html" target="_top" xlink:title="Constantes nommées et énumérations du pipeline ferroviaire GeoParser.">
<polygon fill="white" stroke="#666666" points="1443.55,-74 1290.55,-74 1290.55,-55 1443.55,-55 1443.55,-74"/>
<text text-anchor="middle" x="1367.05" y="-62" font-family="Helvetica,sans-Serif" font-size="10.00">../Enums/GeoParserEnums.h</text>
</a>
</g>
</g>
<!-- Node1&#45;&gt;Node16 -->
<g id="edge47_Node000001_Node000016" class="edge">
<title>Node1&#45;&gt;Node16</title>
<g id="a_edge47_Node000001_Node000016"><a xlink:title=" ">
<path fill="none" stroke="#63b8ff" d="M819.06,-242.31C956.62,-227.06 1230.96,-191.14 1312.05,-140 1333.87,-126.24 1349.95,-100.45 1358.91,-83.12"/>
<polygon fill="#63b8ff" stroke="#63b8ff" points="1362.1,-84.57 1363.35,-74.05 1355.81,-81.49 1362.1,-84.57"/>
</a>
</g>
</g>
<!-- Node18 -->
<g id="Node000018" class="node">
<title>Node18</title>
<g id="a_Node000018"><a xlink:href="Logger_8h.html" target="_top" xlink:title="Système de journalisation à 5 niveaux de trace, un fichier par moteur.">
<polygon fill="white" stroke="#666666" points="429.55,-140 318.55,-140 318.55,-110 429.55,-110 429.55,-140"/>
<text text-anchor="start" x="326.55" y="-128" font-family="Helvetica,sans-Serif" font-size="10.00">Engine/Core/Logger</text>
<text text-anchor="middle" x="374.05" y="-117" font-family="Helvetica,sans-Serif" font-size="10.00">/Logger.h</text>
</a>
</g>
</g>
<!-- Node1&#45;&gt;Node18 -->
<g id="edge48_Node000001_Node000018" class="edge">
<title>Node1&#45;&gt;Node18</title>
<g id="a_edge48_Node000001_Node000018"><a xlink:title=" ">
<path fill="none" stroke="#63b8ff" d="M658.88,-238.06C610.92,-229.17 549.33,-215.18 497.05,-195 463.43,-182.02 427.8,-161.16 403.6,-145.77"/>
<polygon fill="#63b8ff" stroke="#63b8ff" points="405.21,-142.64 394.91,-140.16 401.41,-148.52 405.21,-142.64"/>
</a>
</g>
</g>
<!-- Node23 -->
<g id="Node000023" class="node">
<title>Node23</title>
<g id="a_Node000023"><a xlink:href="StraightBlock_8h.html" target="_top" xlink:title="Modèle de domaine d&#39;un bloc de voie droite (Straight).">
<polygon fill="white" stroke="#666666" points="157.55,-74 22.55,-74 22.55,-55 157.55,-55 157.55,-74"/>
<text text-anchor="middle" x="90.05" y="-62" font-family="Helvetica,sans-Serif" font-size="10.00">./Models/StraightBlock.h</text>
</a>
</g>
</g>
<!-- Node1&#45;&gt;Node23 -->
<g id="edge36_Node000001_Node000023" class="edge">
<title>Node1&#45;&gt;Node23</title>
<g id="a_edge36_Node000001_Node000023"><a xlink:title=" ">
<path fill="none" stroke="#63b8ff" d="M658.75,-238.07C601.47,-228.41 522.89,-213.55 455.05,-195 328.18,-160.3 182.09,-103.02 120.22,-77.93"/>
<polygon fill="#63b8ff" stroke="#63b8ff" points="121.27,-74.58 110.69,-74.04 118.63,-81.06 121.27,-74.58"/>
</a>
</g>
</g>
<!-- Node24 -->
<g id="Node000024" class="node">
<title>Node24</title>
<g id="a_Node000024"><a xlink:href="SwitchBlock_8h.html" target="_top" xlink:title="Modèle de domaine d&#39;un aiguillage ferroviaire à 3 branches (Switch).">
<polygon fill="white" stroke="#666666" points="668.55,-74 539.55,-74 539.55,-55 668.55,-55 668.55,-74"/>
<text text-anchor="middle" x="604.05" y="-62" font-family="Helvetica,sans-Serif" font-size="10.00">./Models/SwitchBlock.h</text>
</a>
</g>
</g>
<!-- Node1&#45;&gt;Node24 -->
<g id="edge41_Node000001_Node000024" class="edge">
<title>Node1&#45;&gt;Node24</title>
<g id="a_edge41_Node000001_Node000024"><a xlink:title=" ">
<path fill="none" stroke="#63b8ff" d="M724.6,-230.7C697.99,-194.24 641.66,-117.04 616.57,-82.65"/>
<polygon fill="#63b8ff" stroke="#63b8ff" points="619.09,-80.17 610.37,-74.16 613.44,-84.3 619.09,-80.17"/>
</a>
</g>
</g>
<!-- Node7&#45;&gt;Node2 -->
<g id="edge7_Node000007_Node000002" class="edge">
<title>Node7&#45;&gt;Node2</title>
<g id="a_edge7_Node000007_Node000002"><a xlink:title=" ">
<path fill="none" stroke="#63b8ff" d="M821.16,-175.87C810.77,-166.8 794.21,-152.34 781.59,-141.32"/>
<polygon fill="#63b8ff" stroke="#63b8ff" points="783.81,-138.61 773.98,-134.67 779.21,-143.88 783.81,-138.61"/>
</a>
</g>
</g>
<!-- Node7&#45;&gt;Node3 -->
<g id="edge8_Node000007_Node000003" class="edge">
<title>Node7&#45;&gt;Node3</title>
<g id="a_edge8_Node000007_Node000003"><a xlink:title=" ">
<path fill="none" stroke="#63b8ff" d="M830.89,-175.73C829.98,-152.38 824.14,-88.2 788.05,-55 766.11,-34.82 682.9,-20.9 636.25,-14.5"/>
<polygon fill="#63b8ff" stroke="#63b8ff" points="636.43,-10.99 626.06,-13.14 635.51,-17.93 636.43,-10.99"/>
</a>
</g>
</g>
<!-- Node7&#45;&gt;Node6 -->
<g id="edge9_Node000007_Node000006" class="edge">
<title>Node7&#45;&gt;Node6</title>
<g id="a_edge9_Node000007_Node000006"><a xlink:title=" ">
<path fill="none" stroke="#63b8ff" d="M875.62,-184.81C956.85,-184.41 1124.41,-178.76 1165.05,-140 1192.66,-113.67 1196.02,-88.1 1177.05,-55 1167.79,-38.85 1150.15,-28 1134.2,-21.06"/>
<polygon fill="#63b8ff" stroke="#63b8ff" points="1135.16,-17.67 1124.57,-17.23 1132.57,-24.18 1135.16,-17.67"/>
</a>
</g>
</g>
<!-- Node8 -->
<g id="Node000008" class="node">
<title>Node8</title>
<g id="a_Node000008"><a xlink:href="TopologyGraph_8h.html" target="_top" xlink:title="Graphe planaire non&#45;orienté de nœuds et d&#39;arêtes ferroviaires accrochés.">
<polygon fill="white" stroke="#666666" points="1155.55,-134.5 1018.55,-134.5 1018.55,-115.5 1155.55,-115.5 1155.55,-134.5"/>
<text text-anchor="middle" x="1087.05" y="-122.5" font-family="Helvetica,sans-Serif" font-size="10.00">./Graph/TopologyGraph.h</text>
</a>
</g>
</g>
<!-- Node7&#45;&gt;Node8 -->
<g id="edge10_Node000007_Node000008" class="edge">
<title>Node7&#45;&gt;Node8</title>
<g id="a_edge10_Node000007_Node000008"><a xlink:title=" ">
<path fill="none" stroke="#63b8ff" d="M868.27,-175.99C913.68,-165.62 990.49,-148.07 1039.96,-136.76"/>
<polygon fill="#63b8ff" stroke="#63b8ff" points="1040.81,-140.16 1049.78,-134.52 1039.25,-133.33 1040.81,-140.16"/>
</a>
</g>
</g>
<!-- Node15 -->
<g id="Node000015" class="node">
<title>Node15</title>
<g id="a_Node000015"><a xlink:href="CoordinateXY_8h.html" target="_top" xlink:title="Représentation d&#39;une coordonnée plane en mètres (système métrique UTM).">
<polygon fill="white" stroke="#666666" points="1292.55,-19 1155.55,-19 1155.55,0 1292.55,0 1292.55,-19"/>
<text text-anchor="middle" x="1224.05" y="-7" font-family="Helvetica,sans-Serif" font-size="10.00">../Models/CoordinateXY.h</text>
</a>
</g>
</g>
<!-- Node7&#45;&gt;Node15 -->
<g id="edge28_Node000007_Node000015" class="edge">
<title>Node7&#45;&gt;Node15</title>
<g id="a_edge28_Node000007_Node000015"><a xlink:title=" ">
<path fill="none" stroke="#63b8ff" d="M875.72,-184.51C1007.76,-183.42 1390.88,-171.75 1453.05,-74 1457.58,-66.87 1458.42,-61.52 1453.05,-55 1434.08,-31.99 1361.19,-20.73 1302.67,-15.31"/>
<polygon fill="#63b8ff" stroke="#63b8ff" points="1302.94,-11.82 1292.67,-14.43 1302.32,-18.8 1302.94,-11.82"/>
</a>
</g>
</g>
<!-- Node7&#45;&gt;Node16 -->
<g id="edge26_Node000007_Node000016" class="edge">
<title>Node7&#45;&gt;Node16</title>
<g id="a_edge26_Node000007_Node000016"><a xlink:title=" ">
<path fill="none" stroke="#63b8ff" d="M875.69,-183.3C973.64,-180.14 1204.41,-169.69 1276.05,-140 1307.17,-127.1 1335.98,-99.88 1352.53,-82.16"/>
<polygon fill="#63b8ff" stroke="#63b8ff" points="1355.5,-84.09 1359.62,-74.33 1350.31,-79.39 1355.5,-84.09"/>
</a>
</g>
</g>
<!-- Node17 -->
<g id="Node000017" class="node">
<title>Node17</title>
<g id="a_Node000017"><a xlink:href="LatLon_8h.html" target="_top" xlink:title="Représentation d&#39;une coordonnée géographique WGS&#45;84 (latitude, longitude).">
<polygon fill="white" stroke="#666666" points="141.05,-19 39.05,-19 39.05,0 141.05,0 141.05,-19"/>
<text text-anchor="middle" x="90.05" y="-7" font-family="Helvetica,sans-Serif" font-size="10.00">./Models/LatLon.h</text>
</a>
</g>
</g>
<!-- Node7&#45;&gt;Node17 -->
<g id="edge27_Node000007_Node000017" class="edge">
<title>Node7&#45;&gt;Node17</title>
<g id="a_edge27_Node000007_Node000017"><a xlink:title=" ">
<path fill="none" stroke="#63b8ff" d="M786.55,-182.06C621.96,-172.57 54.68,-135.56 5.05,-74 -12.63,-52.07 21.15,-33.68 51.22,-22.42"/>
<polygon fill="#63b8ff" stroke="#63b8ff" points="52.53,-25.67 60.78,-19.02 50.19,-19.08 52.53,-25.67"/>
</a>
</g>
</g>
<!-- Node7&#45;&gt;Node18 -->
<g id="edge29_Node000007_Node000018" class="edge">
<title>Node7&#45;&gt;Node18</title>
<g id="a_edge29_Node000007_Node000018"><a xlink:title=" ">
<path fill="none" stroke="#63b8ff" d="M786.4,-178.78C705.46,-168.42 534.18,-146.5 439.83,-134.42"/>
<polygon fill="#63b8ff" stroke="#63b8ff" points="440.19,-130.94 429.83,-133.14 439.3,-137.88 440.19,-130.94"/>
</a>
</g>
</g>
<!-- Node8&#45;&gt;Node3 -->
<g id="edge14_Node000008_Node000003" class="edge">
<title>Node8&#45;&gt;Node3</title>
<g id="a_edge14_Node000008_Node000003"><a xlink:title=" ">
<path fill="none" stroke="#63b8ff" d="M1036.03,-115.43C990.54,-107.1 922.45,-92.95 865.05,-74 845.21,-67.45 841.95,-61.35 822.05,-55 757.59,-34.44 679.28,-21.18 636.25,-14.86"/>
<polygon fill="#63b8ff" stroke="#63b8ff" points="636.5,-11.36 626.1,-13.4 635.5,-18.29 636.5,-11.36"/>
</a>
</g>
</g>
<!-- Node8&#45;&gt;Node4 -->
<g id="edge15_Node000008_Node000004" class="edge">
<title>Node8&#45;&gt;Node4</title>
<g id="a_edge15_Node000008_Node000004"><a xlink:title=" ">
<path fill="none" stroke="#63b8ff" d="M1035.57,-115.49C970.19,-104.69 857.71,-86.1 789.87,-74.89"/>
<polygon fill="#63b8ff" stroke="#63b8ff" points="790.22,-71.4 779.78,-73.22 789.08,-78.31 790.22,-71.4"/>
</a>
</g>
</g>
<!-- Node8&#45;&gt;Node5 -->
<g id="edge16_Node000008_Node000005" class="edge">
<title>Node8&#45;&gt;Node5</title>
<g id="a_edge16_Node000008_Node000005"><a xlink:title=" ">
<path fill="none" stroke="#63b8ff" d="M1150.45,-115.49C1244.57,-102.86 1417.93,-79.6 1490.13,-69.92"/>
<polygon fill="#63b8ff" stroke="#63b8ff" points="1490.98,-73.33 1500.43,-68.53 1490.05,-66.4 1490.98,-73.33"/>
</a>
</g>
</g>
<!-- Node8&#45;&gt;Node6 -->
<g id="edge17_Node000008_Node000006" class="edge">
<title>Node8&#45;&gt;Node6</title>
<g id="a_edge17_Node000008_Node000006"><a xlink:title=" ">
<path fill="none" stroke="#63b8ff" d="M1110.72,-115.4C1128.39,-107.57 1151.27,-94.14 1162.05,-74 1172.86,-53.81 1150.12,-35.5 1129.4,-23.79"/>
<polygon fill="#63b8ff" stroke="#63b8ff" points="1130.92,-20.63 1120.45,-19.04 1127.64,-26.82 1130.92,-20.63"/>
</a>
</g>
</g>
<!-- Node9 -->
<g id="Node000009" class="node">
<title>Node9</title>
<g id="a_Node000009"><a xlink:title=" ">
<polygon fill="#e0e0e0" stroke="#999999" points="1036.05,-74 986.05,-74 986.05,-55 1036.05,-55 1036.05,-74"/>
<text text-anchor="middle" x="1011.05" y="-62" font-family="Helvetica,sans-Serif" font-size="10.00">cstdint</text>
</a>
</g>
</g>
<!-- Node8&#45;&gt;Node9 -->
<g id="edge11_Node000008_Node000009" class="edge">
<title>Node8&#45;&gt;Node9</title>
<g id="a_edge11_Node000008_Node000009"><a xlink:title=" ">
<path fill="none" stroke="#63b8ff" d="M1075.83,-115.37C1063.94,-106.21 1044.91,-91.56 1030.54,-80.51"/>
<polygon fill="#63b8ff" stroke="#63b8ff" points="1032.37,-77.49 1022.31,-74.17 1028.1,-83.04 1032.37,-77.49"/>
</a>
</g>
</g>
<!-- Node10 -->
<g id="Node000010" class="node">
<title>Node10</title>
<g id="a_Node000010"><a xlink:title=" ">
<polygon fill="#e0e0e0" stroke="#999999" points="1119.55,-74 1054.55,-74 1054.55,-55 1119.55,-55 1119.55,-74"/>
<text text-anchor="middle" x="1087.05" y="-62" font-family="Helvetica,sans-Serif" font-size="10.00">functional</text>
</a>
</g>
</g>
<!-- Node8&#45;&gt;Node10 -->
<g id="edge12_Node000008_Node000010" class="edge">
<title>Node8&#45;&gt;Node10</title>
<g id="a_edge12_Node000008_Node000010"><a xlink:title=" ">
<path fill="none" stroke="#63b8ff" d="M1087.05,-115.37C1087.05,-107.25 1087.05,-94.81 1087.05,-84.39"/>
<polygon fill="#63b8ff" stroke="#63b8ff" points="1090.55,-84.17 1087.05,-74.17 1083.55,-84.17 1090.55,-84.17"/>
</a>
</g>
</g>
<!-- Node11 -->
<g id="Node000011" class="node">
<title>Node11</title>
<g id="a_Node000011"><a xlink:title=" ">
<polygon fill="#e0e0e0" stroke="#999999" points="1033.05,-19 977.05,-19 977.05,0 1033.05,0 1033.05,-19"/>
<text text-anchor="middle" x="1005.05" y="-7" font-family="Helvetica,sans-Serif" font-size="10.00">optional</text>
</a>
</g>
</g>
<!-- Node8&#45;&gt;Node11 -->
<g id="edge13_Node000008_Node000011" class="edge">
<title>Node8&#45;&gt;Node11</title>
<g id="a_edge13_Node000008_Node000011"><a xlink:title=" ">
<path fill="none" stroke="#63b8ff" d="M1098.95,-115.49C1116.01,-102.23 1143.82,-75.99 1129.05,-55 1118.85,-40.51 1075.56,-27.25 1042.98,-19.05"/>
<polygon fill="#63b8ff" stroke="#63b8ff" points="1043.81,-15.65 1033.26,-16.67 1042.14,-22.45 1043.81,-15.65"/>
</a>
</g>
</g>
<!-- Node12 -->
<g id="Node000012" class="node">
<title>Node12</title>
<g id="a_Node000012"><a xlink:href="TopologyEdge_8h.html" target="_top" xlink:title="Arête non&#45;orientée du graphe planaire de topologie ferroviaire.">
<polygon fill="white" stroke="#666666" points="967.55,-74 874.55,-74 874.55,-55 967.55,-55 967.55,-74"/>
<text text-anchor="middle" x="921.05" y="-62" font-family="Helvetica,sans-Serif" font-size="10.00">TopologyEdge.h</text>
</a>
</g>
</g>
<!-- Node8&#45;&gt;Node12 -->
<g id="edge18_Node000008_Node000012" class="edge">
<title>Node8&#45;&gt;Node12</title>
<g id="a_edge18_Node000008_Node000012"><a xlink:title=" ">
<path fill="none" stroke="#63b8ff" d="M1062.91,-115.49C1034.51,-105.49 987.17,-88.8 955.06,-77.49"/>
<polygon fill="#63b8ff" stroke="#63b8ff" points="955.81,-74.04 945.22,-74.02 953.48,-80.64 955.81,-74.04"/>
</a>
</g>
</g>
<!-- Node8&#45;&gt;Node15 -->
<g id="edge24_Node000008_Node000015" class="edge">
<title>Node8&#45;&gt;Node15</title>
<g id="a_edge24_Node000008_Node000015"><a xlink:title=" ">
<path fill="none" stroke="#63b8ff" d="M1107.93,-115.49C1127.26,-106.94 1156.09,-92.39 1177.05,-74 1192.15,-60.75 1205.35,-41.88 1213.89,-28.15"/>
<polygon fill="#63b8ff" stroke="#63b8ff" points="1217.1,-29.6 1219.24,-19.22 1211.1,-26 1217.1,-29.6"/>
</a>
</g>
</g>
<!-- Node8&#45;&gt;Node16 -->
<g id="edge25_Node000008_Node000016" class="edge">
<title>Node8&#45;&gt;Node16</title>
<g id="a_edge25_Node000008_Node000016"><a xlink:title=" ">
<path fill="none" stroke="#63b8ff" d="M1127.76,-115.49C1177.64,-105.07 1262.14,-87.42 1316.22,-76.12"/>
<polygon fill="#63b8ff" stroke="#63b8ff" points="1317.21,-79.49 1326.29,-74.02 1315.78,-72.64 1317.21,-79.49"/>
</a>
</g>
</g>
<!-- Node12&#45;&gt;Node3 -->
<g id="edge21_Node000012_Node000003" class="edge">
<title>Node12&#45;&gt;Node3</title>
<g id="a_edge21_Node000012_Node000003"><a xlink:title=" ">
<path fill="none" stroke="#63b8ff" d="M874.27,-55.68C809.07,-44.78 692.54,-25.3 636.24,-15.88"/>
<polygon fill="#63b8ff" stroke="#63b8ff" points="636.58,-12.39 626.14,-14.19 635.43,-19.29 636.58,-12.39"/>
</a>
</g>
</g>
<!-- Node12&#45;&gt;Node6 -->
<g id="edge22_Node000012_Node000006" class="edge">
<title>Node12&#45;&gt;Node6</title>
<g id="a_edge22_Node000012_Node000006"><a xlink:title=" ">
<path fill="none" stroke="#63b8ff" d="M949.97,-54.98C982.03,-45.54 1033.67,-30.34 1067.49,-20.38"/>
<polygon fill="#63b8ff" stroke="#63b8ff" points="1068.77,-23.65 1077.37,-17.47 1066.79,-16.94 1068.77,-23.65"/>
</a>
</g>
</g>
<!-- Node13 -->
<g id="Node000013" class="node">
<title>Node13</title>
<g id="a_Node000013"><a xlink:title=" ">
<polygon fill="#e0e0e0" stroke="#999999" points="944.55,-19 897.55,-19 897.55,0 944.55,0 944.55,-19"/>
<text text-anchor="middle" x="921.05" y="-7" font-family="Helvetica,sans-Serif" font-size="10.00">cmath</text>
</a>
</g>
</g>
<!-- Node12&#45;&gt;Node13 -->
<g id="edge19_Node000012_Node000013" class="edge">
<title>Node12&#45;&gt;Node13</title>
<g id="a_edge19_Node000012_Node000013"><a xlink:title=" ">
<path fill="none" stroke="#63b8ff" d="M921.05,-54.75C921.05,-47.8 921.05,-37.85 921.05,-29.13"/>
<polygon fill="#63b8ff" stroke="#63b8ff" points="924.55,-29.09 921.05,-19.09 917.55,-29.09 924.55,-29.09"/>
</a>
</g>
</g>
<!-- Node14 -->
<g id="Node000014" class="node">
<title>Node14</title>
<g id="a_Node000014"><a xlink:title=" ">
<polygon fill="#e0e0e0" stroke="#999999" points="390.05,-19 334.05,-19 334.05,0 390.05,0 390.05,-19"/>
<text text-anchor="middle" x="362.05" y="-7" font-family="Helvetica,sans-Serif" font-size="10.00">sstream</text>
</a>
</g>
</g>
<!-- Node12&#45;&gt;Node14 -->
<g id="edge20_Node000012_Node000014" class="edge">
<title>Node12&#45;&gt;Node14</title>
<g id="a_edge20_Node000012_Node000014"><a xlink:title=" ">
<path fill="none" stroke="#63b8ff" d="M874.35,-59.07C766.12,-48.81 499.79,-23.56 400.33,-14.13"/>
<polygon fill="#63b8ff" stroke="#63b8ff" points="400.42,-10.62 390.14,-13.16 399.76,-17.59 400.42,-10.62"/>
</a>
</g>
</g>
<!-- Node12&#45;&gt;Node15 -->
<g id="edge23_Node000012_Node000015" class="edge">
<title>Node12&#45;&gt;Node15</title>
<g id="a_edge23_Node000012_Node000015"><a xlink:title=" ">
<path fill="none" stroke="#63b8ff" d="M967.73,-55.33C1020.82,-46.05 1107.59,-30.87 1165.25,-20.79"/>
<polygon fill="#63b8ff" stroke="#63b8ff" points="1166.06,-24.2 1175.31,-19.03 1164.85,-17.3 1166.06,-24.2"/>
</a>
</g>
</g>
<!-- Node18&#45;&gt;Node3 -->
<g id="edge35_Node000018_Node000003" class="edge">
<title>Node18&#45;&gt;Node3</title>
<g id="a_edge35_Node000018_Node000003"><a xlink:title=" ">
<path fill="none" stroke="#63b8ff" d="M397.19,-109.94C421.6,-95.37 461.38,-72.35 497.05,-55 522,-42.87 551.11,-30.89 572.66,-22.43"/>
<polygon fill="#63b8ff" stroke="#63b8ff" points="573.94,-25.69 581.99,-18.8 571.41,-19.16 573.94,-25.69"/>
</a>
</g>
</g>
<!-- Node18&#45;&gt;Node14 -->
<g id="edge34_Node000018_Node000014" class="edge">
<title>Node18&#45;&gt;Node14</title>
<g id="a_edge34_Node000018_Node000014"><a xlink:title=" ">
<path fill="none" stroke="#63b8ff" d="M318.34,-124.78C227.09,-124.74 51.96,-118.67 13.05,-74 -28.76,-26 224.51,-14.12 323.58,-11.32"/>
<polygon fill="#63b8ff" stroke="#63b8ff" points="323.87,-14.81 333.77,-11.05 323.68,-7.81 323.87,-14.81"/>
</a>
</g>
</g>
<!-- Node19 -->
<g id="Node000019" class="node">
<title>Node19</title>
<g id="a_Node000019"><a xlink:title=" ">
<polygon fill="#e0e0e0" stroke="#999999" points="359.05,-74 315.05,-74 315.05,-55 359.05,-55 359.05,-74"/>
<text text-anchor="middle" x="337.05" y="-62" font-family="Helvetica,sans-Serif" font-size="10.00">ctime</text>
</a>
</g>
</g>
<!-- Node18&#45;&gt;Node19 -->
<g id="edge30_Node000018_Node000019" class="edge">
<title>Node18&#45;&gt;Node19</title>
<g id="a_edge30_Node000018_Node000019"><a xlink:title=" ">
<path fill="none" stroke="#63b8ff" d="M365.09,-109.84C359.94,-101.69 353.43,-91.4 347.98,-82.78"/>
<polygon fill="#63b8ff" stroke="#63b8ff" points="350.9,-80.85 342.59,-74.27 344.98,-84.59 350.9,-80.85"/>
</a>
</g>
</g>
<!-- Node20 -->
<g id="Node000020" class="node">
<title>Node20</title>
<g id="a_Node000020"><a xlink:title=" ">
<polygon fill="#e0e0e0" stroke="#999999" points="445.05,-74 377.05,-74 377.05,-55 445.05,-55 445.05,-74"/>
<text text-anchor="middle" x="411.05" y="-62" font-family="Helvetica,sans-Serif" font-size="10.00">filesystem</text>
</a>
</g>
</g>
<!-- Node18&#45;&gt;Node20 -->
<g id="edge31_Node000018_Node000020" class="edge">
<title>Node18&#45;&gt;Node20</title>
<g id="a_edge31_Node000018_Node000020"><a xlink:title=" ">
<path fill="none" stroke="#63b8ff" d="M383.01,-109.84C388.16,-101.69 394.67,-91.4 400.12,-82.78"/>
<polygon fill="#63b8ff" stroke="#63b8ff" points="403.12,-84.59 405.5,-74.27 397.2,-80.85 403.12,-84.59"/>
</a>
</g>
</g>
<!-- Node21 -->
<g id="Node000021" class="node">
<title>Node21</title>
<g id="a_Node000021"><a xlink:title=" ">
<polygon fill="#e0e0e0" stroke="#999999" points="230.55,-74 175.55,-74 175.55,-55 230.55,-55 230.55,-74"/>
<text text-anchor="middle" x="203.05" y="-62" font-family="Helvetica,sans-Serif" font-size="10.00">fstream</text>
</a>
</g>
</g>
<!-- Node18&#45;&gt;Node21 -->
<g id="edge32_Node000018_Node000021" class="edge">
<title>Node18&#45;&gt;Node21</title>
<g id="a_edge32_Node000018_Node000021"><a xlink:title=" ">
<path fill="none" stroke="#63b8ff" d="M333.09,-109.99C304.05,-100.05 265.5,-86.86 237.93,-77.43"/>
<polygon fill="#63b8ff" stroke="#63b8ff" points="238.9,-74.06 228.3,-74.14 236.63,-80.69 238.9,-74.06"/>
</a>
</g>
</g>
<!-- Node22 -->
<g id="Node000022" class="node">
<title>Node22</title>
<g id="a_Node000022"><a xlink:title=" ">
<polygon fill="#e0e0e0" stroke="#999999" points="297.05,-74 249.05,-74 249.05,-55 297.05,-55 297.05,-74"/>
<text text-anchor="middle" x="273.05" y="-62" font-family="Helvetica,sans-Serif" font-size="10.00">mutex</text>
</a>
</g>
</g>
<!-- Node18&#45;&gt;Node22 -->
<g id="edge33_Node000018_Node000022" class="edge">
<title>Node18&#45;&gt;Node22</title>
<g id="a_edge33_Node000018_Node000022"><a xlink:title=" ">
<path fill="none" stroke="#63b8ff" d="M349.86,-109.99C333.76,-100.66 312.71,-88.47 296.72,-79.21"/>
<polygon fill="#63b8ff" stroke="#63b8ff" points="298.37,-76.12 287.96,-74.14 294.86,-82.18 298.37,-76.12"/>
</a>
</g>
</g>
<!-- Node23&#45;&gt;Node3 -->
<g id="edge38_Node000023_Node000003" class="edge">
<title>Node23&#45;&gt;Node3</title>
<g id="a_edge38_Node000023_Node000003"><a xlink:title=" ">
<path fill="none" stroke="#63b8ff" d="M157.59,-55.91C160.45,-55.6 163.28,-55.3 166.05,-55 317.5,-38.84 498.56,-20.87 571.37,-13.71"/>
<polygon fill="#63b8ff" stroke="#63b8ff" points="572.1,-17.15 581.71,-12.69 571.41,-10.19 572.1,-17.15"/>
</a>
</g>
</g>
<!-- Node23&#45;&gt;Node6 -->
<g id="edge39_Node000023_Node000006" class="edge">
<title>Node23&#45;&gt;Node6</title>
<g id="a_edge39_Node000023_Node000006"><a xlink:title=" ">
<path fill="none" stroke="#63b8ff" d="M157.57,-55.7C160.43,-55.45 163.27,-55.21 166.05,-55 554.58,-25.33 654.04,-54.83 1042.05,-19 1050.24,-18.24 1059.03,-17.14 1067.25,-15.97"/>
<polygon fill="#63b8ff" stroke="#63b8ff" points="1067.91,-19.41 1077.29,-14.49 1066.88,-12.49 1067.91,-19.41"/>
</a>
</g>
</g>
<!-- Node23&#45;&gt;Node14 -->
<g id="edge37_Node000023_Node000014" class="edge">
<title>Node23&#45;&gt;Node14</title>
<g id="a_edge37_Node000023_Node000014"><a xlink:title=" ">
<path fill="none" stroke="#63b8ff" d="M133.75,-54.98C186.33,-44.74 273.74,-27.71 323.77,-17.96"/>
<polygon fill="#63b8ff" stroke="#63b8ff" points="324.71,-21.34 333.86,-15.99 323.37,-14.47 324.71,-21.34"/>
</a>
</g>
</g>
<!-- Node23&#45;&gt;Node17 -->
<g id="edge40_Node000023_Node000017" class="edge">
<title>Node23&#45;&gt;Node17</title>
<g id="a_edge40_Node000023_Node000017"><a xlink:title=" ">
<path fill="none" stroke="#63b8ff" d="M90.05,-54.75C90.05,-47.8 90.05,-37.85 90.05,-29.13"/>
<polygon fill="#63b8ff" stroke="#63b8ff" points="93.55,-29.09 90.05,-19.09 86.55,-29.09 93.55,-29.09"/>
</a>
</g>
</g>
<!-- Node24&#45;&gt;Node3 -->
<g id="edge44_Node000024_Node000003" class="edge">
<title>Node24&#45;&gt;Node3</title>
<g id="a_edge44_Node000024_Node000003"><a xlink:title=" ">
<path fill="none" stroke="#63b8ff" d="M604.05,-54.75C604.05,-47.8 604.05,-37.85 604.05,-29.13"/>
<polygon fill="#63b8ff" stroke="#63b8ff" points="607.55,-29.09 604.05,-19.09 600.55,-29.09 607.55,-29.09"/>
</a>
</g>
</g>
<!-- Node24&#45;&gt;Node6 -->
<g id="edge45_Node000024_Node000006" class="edge">
<title>Node24&#45;&gt;Node6</title>
<g id="a_edge45_Node000024_Node000006"><a xlink:title=" ">
<path fill="none" stroke="#63b8ff" d="M668.92,-55.89C671.67,-55.58 674.38,-55.29 677.05,-55 839.12,-37.57 880.23,-38.63 1042.05,-19 1050.28,-18 1059.15,-16.79 1067.44,-15.61"/>
<polygon fill="#63b8ff" stroke="#63b8ff" points="1068.15,-19.04 1077.54,-14.13 1067.14,-12.11 1068.15,-19.04"/>
</a>
</g>
</g>
<!-- Node24&#45;&gt;Node11 -->
<g id="edge42_Node000024_Node000011" class="edge">
<title>Node24&#45;&gt;Node11</title>
<g id="a_edge42_Node000024_Node000011"><a xlink:title=" ">
<path fill="none" stroke="#63b8ff" d="M668.79,-55.94C738.92,-47.58 854.07,-33.4 953.05,-19 957.55,-18.35 962.26,-17.62 966.94,-16.89"/>
<polygon fill="#63b8ff" stroke="#63b8ff" points="967.69,-20.31 977.01,-15.27 966.58,-13.4 967.69,-20.31"/>
</a>
</g>
</g>
<!-- Node24&#45;&gt;Node14 -->
<g id="edge43_Node000024_Node000014" class="edge">
<title>Node24&#45;&gt;Node14</title>
<g id="a_edge43_Node000024_Node000014"><a xlink:title=" ">
<path fill="none" stroke="#63b8ff" d="M565.17,-54.98C519.8,-45.05 445.27,-28.73 400.21,-18.86"/>
<polygon fill="#63b8ff" stroke="#63b8ff" points="400.77,-15.4 390.25,-16.68 399.27,-22.23 400.77,-15.4"/>
</a>
</g>
</g>
<!-- Node24&#45;&gt;Node17 -->
<g id="edge46_Node000024_Node000017" class="edge">
<title>Node24&#45;&gt;Node17</title>
<g id="a_edge46_Node000024_Node000017"><a xlink:title=" ">
<path fill="none" stroke="#63b8ff" d="M539.47,-56.84C439.6,-46.54 249.03,-26.89 151.25,-16.81"/>
<polygon fill="#63b8ff" stroke="#63b8ff" points="151.53,-13.32 141.23,-15.78 150.81,-20.28 151.53,-13.32"/>
</a>
</g>
</g>
</g>
</svg>
