<?xml version="1.0" encoding="UTF-8" standalone="no"?>
<!DOCTYPE svg PUBLIC "-//W3C//DTD SVG 1.1//EN"
 "http://www.w3.org/Graphics/SVG/1.1/DTD/svg11.dtd">
<!-- Generated by graphviz version 2.43.0 (0)
 -->
<!-- Title: SimulateurFerroviaire/Modules/Stockages/TopologyData.h Pages: 1 -->
<svg width="571pt" height="302pt"
 viewBox="0.00 0.00 570.64 302.00" xmlns="http://www.w3.org/2000/svg" xmlns:xlink="http://www.w3.org/1999/xlink">
<g id="graph0" class="graph" transform="scale(1 1) rotate(0) translate(4 298)">
<title>SimulateurFerroviaire/Modules/Stockages/TopologyData.h</title>
<!-- Node1 -->
<g id="Node000001" class="node">
<title>Node1</title>
<g id="a_Node000001"><a xlink:title="Conteneur central des données topologiques ferroviaires.">
<polygon fill="#999999" stroke="#666666" points="226,-294 66,-294 66,-253 226,-253 226,-294"/>
<text text-anchor="start" x="74" y="-282" font-family="Helvetica,sans-Serif" font-size="10.00">SimulateurFerroviaire</text>
<text text-anchor="start" x="74" y="-271" font-family="Helvetica,sans-Serif" font-size="10.00">/Modules/Stockages/Topology</text>
<text text-anchor="middle" x="146" y="-260" font-family="Helvetica,sans-Serif" font-size="10.00">Data.h</text>
</a>
</g>
</g>
<!-- Node2 -->
<g id="Node000002" class="node">
<title>Node2</title>
<g id="a_Node000002"><a xlink:title=" ">
<polygon fill="#e0e0e0" stroke="#999999" points="58,-211.5 0,-211.5 0,-192.5 58,-192.5 58,-211.5"/>
<text text-anchor="middle" x="29" y="-199.5" font-family="Helvetica,sans-Serif" font-size="10.00">memory</text>
</a>
</g>
</g>
<!-- Node1&#45;&gt;Node2 -->
<g id="edge1_Node000001_Node000002" class="edge">
<title>Node1&#45;&gt;Node2</title>
<g id="a_edge1_Node000001_Node000002"><a xlink:title=" ">
<path fill="none" stroke="#63b8ff" d="M113.1,-252.96C93.71,-241.44 69.64,-227.14 52.23,-216.8"/>
<polygon fill="#63b8ff" stroke="#63b8ff" points="53.7,-213.6 43.32,-211.5 50.13,-219.62 53.7,-213.6"/>
</a>
</g>
</g>
<!-- Node3 -->
<g id="Node000003" class="node">
<title>Node3</title>
<g id="a_Node000003"><a xlink:title=" ">
<polygon fill="#e0e0e0" stroke="#999999" points="94.5,-145.5 47.5,-145.5 47.5,-126.5 94.5,-126.5 94.5,-145.5"/>
<text text-anchor="middle" x="71" y="-133.5" font-family="Helvetica,sans-Serif" font-size="10.00">vector</text>
</a>
</g>
</g>
<!-- Node1&#45;&gt;Node3 -->
<g id="edge2_Node000001_Node000003" class="edge">
<title>Node1&#45;&gt;Node3</title>
<g id="a_edge2_Node000001_Node000003"><a xlink:title=" ">
<path fill="none" stroke="#63b8ff" d="M129.82,-252.98C121.74,-242.67 112.19,-229.59 105,-217 93.45,-196.79 83.48,-171.9 77.37,-155.3"/>
<polygon fill="#63b8ff" stroke="#63b8ff" points="80.61,-153.95 73.94,-145.72 74.02,-156.32 80.61,-153.95"/>
</a>
</g>
</g>
<!-- Node4 -->
<g id="Node000004" class="node">
<title>Node4</title>
<g id="a_Node000004"><a xlink:href="StraightBlock_8h.html" target="_top" xlink:title="Modèle de domaine d&#39;un bloc de voie droite (Straight).">
<polygon fill="white" stroke="#666666" points="298.5,-217 113.5,-217 113.5,-187 298.5,-187 298.5,-217"/>
<text text-anchor="start" x="121.5" y="-205" font-family="Helvetica,sans-Serif" font-size="10.00">Modules/InteractiveElements</text>
<text text-anchor="middle" x="206" y="-194" font-family="Helvetica,sans-Serif" font-size="10.00">/ShuntingElements/StraightBlock.h</text>
</a>
</g>
</g>
<!-- Node1&#45;&gt;Node4 -->
<g id="edge3_Node000001_Node000004" class="edge">
<title>Node1&#45;&gt;Node4</title>
<g id="a_edge3_Node000001_Node000004"><a xlink:title=" ">
<path fill="none" stroke="#63b8ff" d="M163.03,-252.77C170.57,-244.04 179.45,-233.75 187.18,-224.8"/>
<polygon fill="#63b8ff" stroke="#63b8ff" points="190,-226.89 193.88,-217.04 184.7,-222.32 190,-226.89"/>
</a>
</g>
</g>
<!-- Node10 -->
<g id="Node000010" class="node">
<title>Node10</title>
<g id="a_Node000010"><a xlink:href="SwitchBlock_8h.html" target="_top" xlink:title="Modèle de domaine d&#39;un aiguillage ferroviaire à 3 branches (Switch).">
<polygon fill="white" stroke="#666666" points="499.5,-217 320.5,-217 320.5,-187 499.5,-187 499.5,-217"/>
<text text-anchor="start" x="328.5" y="-205" font-family="Helvetica,sans-Serif" font-size="10.00">Modules/InteractiveElements</text>
<text text-anchor="middle" x="410" y="-194" font-family="Helvetica,sans-Serif" font-size="10.00">/ShuntingElements/SwitchBlock.h</text>
</a>
</g>
</g>
<!-- Node1&#45;&gt;Node10 -->
<g id="edge11_Node000001_Node000010" class="edge">
<title>Node1&#45;&gt;Node10</title>
<g id="a_edge11_Node000001_Node000010"><a xlink:title=" ">
<path fill="none" stroke="#63b8ff" d="M220.24,-252.96C260.14,-242.45 308.81,-229.64 346.87,-219.62"/>
<polygon fill="#63b8ff" stroke="#63b8ff" points="348.03,-222.93 356.81,-217 346.24,-216.17 348.03,-222.93"/>
</a>
</g>
</g>
<!-- Node4&#45;&gt;Node3 -->
<g id="edge6_Node000004_Node000003" class="edge">
<title>Node4&#45;&gt;Node3</title>
<g id="a_edge6_Node000004_Node000003"><a xlink:title=" ">
<path fill="none" stroke="#63b8ff" d="M176.37,-186.95C153.01,-175.88 120.7,-160.56 98.03,-149.82"/>
<polygon fill="#63b8ff" stroke="#63b8ff" points="99.5,-146.64 88.97,-145.52 96.5,-152.96 99.5,-146.64"/>
</a>
</g>
</g>
<!-- Node5 -->
<g id="Node000005" class="node">
<title>Node5</title>
<g id="a_Node000005"><a xlink:title=" ">
<polygon fill="#e0e0e0" stroke="#999999" points="335,-145.5 279,-145.5 279,-126.5 335,-126.5 335,-145.5"/>
<text text-anchor="middle" x="307" y="-133.5" font-family="Helvetica,sans-Serif" font-size="10.00">sstream</text>
</a>
</g>
</g>
<!-- Node4&#45;&gt;Node5 -->
<g id="edge4_Node000004_Node000005" class="edge">
<title>Node4&#45;&gt;Node5</title>
<g id="a_edge4_Node000004_Node000005"><a xlink:title=" ">
<path fill="none" stroke="#63b8ff" d="M228.42,-186.8C245.19,-176.17 268.01,-161.7 284.75,-151.1"/>
<polygon fill="#63b8ff" stroke="#63b8ff" points="286.76,-153.97 293.34,-145.66 283.02,-148.05 286.76,-153.97"/>
</a>
</g>
</g>
<!-- Node6 -->
<g id="Node000006" class="node">
<title>Node6</title>
<g id="a_Node000006"><a xlink:title=" ">
<polygon fill="#e0e0e0" stroke="#999999" points="252,-19 208,-19 208,0 252,0 252,-19"/>
<text text-anchor="middle" x="230" y="-7" font-family="Helvetica,sans-Serif" font-size="10.00">string</text>
</a>
</g>
</g>
<!-- Node4&#45;&gt;Node6 -->
<g id="edge5_Node000004_Node000006" class="edge">
<title>Node4&#45;&gt;Node6</title>
<g id="a_edge5_Node000004_Node000006"><a xlink:title=" ">
<path fill="none" stroke="#63b8ff" d="M178.47,-186.81C165.19,-178.36 150.53,-166.28 143,-151 124.15,-112.72 119.65,-91.35 142,-55 154.2,-35.16 178.28,-23.84 198.17,-17.59"/>
<polygon fill="#63b8ff" stroke="#63b8ff" points="199.16,-20.95 207.81,-14.84 197.24,-14.22 199.16,-20.95"/>
</a>
</g>
</g>
<!-- Node7 -->
<g id="Node000007" class="node">
<title>Node7</title>
<g id="a_Node000007"><a xlink:href="ShuntingElement_8h.html" target="_top" xlink:title="Interface abstraite pour tous les éléments de shuntage ferroviaire.">
<polygon fill="white" stroke="#666666" points="260.5,-145.5 151.5,-145.5 151.5,-126.5 260.5,-126.5 260.5,-145.5"/>
<text text-anchor="middle" x="206" y="-133.5" font-family="Helvetica,sans-Serif" font-size="10.00">ShuntingElement.h</text>
</a>
</g>
</g>
<!-- Node4&#45;&gt;Node7 -->
<g id="edge7_Node000004_Node000007" class="edge">
<title>Node4&#45;&gt;Node7</title>
<g id="a_edge7_Node000004_Node000007"><a xlink:title=" ">
<path fill="none" stroke="#63b8ff" d="M206,-186.8C206,-177.7 206,-165.79 206,-155.9"/>
<polygon fill="#63b8ff" stroke="#63b8ff" points="209.5,-155.84 206,-145.84 202.5,-155.84 209.5,-155.84"/>
</a>
</g>
</g>
<!-- Node9 -->
<g id="Node000009" class="node">
<title>Node9</title>
<g id="a_Node000009"><a xlink:href="LatLon_8h.html" target="_top" xlink:title="Représentation d&#39;une coordonnée géographique WGS&#45;84 (latitude, longitude).">
<polygon fill="white" stroke="#666666" points="472.5,-151 353.5,-151 353.5,-121 472.5,-121 472.5,-151"/>
<text text-anchor="start" x="361.5" y="-139" font-family="Helvetica,sans-Serif" font-size="10.00">Modules/Coordinates</text>
<text text-anchor="middle" x="413" y="-128" font-family="Helvetica,sans-Serif" font-size="10.00">/LatLon.h</text>
</a>
</g>
</g>
<!-- Node4&#45;&gt;Node9 -->
<g id="edge10_Node000004_Node000009" class="edge">
<title>Node4&#45;&gt;Node9</title>
<g id="a_edge10_Node000004_Node000009"><a xlink:title=" ">
<path fill="none" stroke="#63b8ff" d="M251.43,-186.95C282.84,-177.24 324.8,-164.27 358.09,-153.98"/>
<polygon fill="#63b8ff" stroke="#63b8ff" points="359.16,-157.31 367.68,-151.01 357.09,-150.62 359.16,-157.31"/>
</a>
</g>
</g>
<!-- Node8 -->
<g id="Node000008" class="node">
<title>Node8</title>
<g id="a_Node000008"><a xlink:href="InteractiveElement_8h.html" target="_top" xlink:title="Classe de base abstraite pour tous les éléments interactifs ferroviaires.">
<polygon fill="white" stroke="#666666" points="309.5,-85 150.5,-85 150.5,-55 309.5,-55 309.5,-85"/>
<text text-anchor="start" x="158.5" y="-73" font-family="Helvetica,sans-Serif" font-size="10.00">Modules/InteractiveElements</text>
<text text-anchor="middle" x="230" y="-62" font-family="Helvetica,sans-Serif" font-size="10.00">/InteractiveElement.h</text>
</a>
</g>
</g>
<!-- Node7&#45;&gt;Node8 -->
<g id="edge8_Node000007_Node000008" class="edge">
<title>Node7&#45;&gt;Node8</title>
<g id="a_edge8_Node000007_Node000008"><a xlink:title=" ">
<path fill="none" stroke="#63b8ff" d="M209.24,-126.37C212.25,-118.32 216.9,-105.94 221.03,-94.93"/>
<polygon fill="#63b8ff" stroke="#63b8ff" points="224.38,-95.95 224.61,-85.36 217.83,-93.49 224.38,-95.95"/>
</a>
</g>
</g>
<!-- Node8&#45;&gt;Node6 -->
<g id="edge9_Node000008_Node000006" class="edge">
<title>Node8&#45;&gt;Node6</title>
<g id="a_edge9_Node000008_Node000006"><a xlink:title=" ">
<path fill="none" stroke="#63b8ff" d="M230,-54.84C230,-47.21 230,-37.7 230,-29.45"/>
<polygon fill="#63b8ff" stroke="#63b8ff" points="233.5,-29.27 230,-19.27 226.5,-29.27 233.5,-29.27"/>
</a>
</g>
</g>
<!-- Node10&#45;&gt;Node3 -->
<g id="edge15_Node000010_Node000003" class="edge">
<title>Node10&#45;&gt;Node3</title>
<g id="a_edge15_Node000010_Node000003"><a xlink:title=" ">
<path fill="none" stroke="#63b8ff" d="M334.3,-186.97C280.84,-177.02 207.51,-163.31 143,-151 130.52,-148.62 116.83,-145.97 104.77,-143.62"/>
<polygon fill="#63b8ff" stroke="#63b8ff" points="105.15,-140.12 94.66,-141.64 103.81,-147 105.15,-140.12"/>
</a>
</g>
</g>
<!-- Node10&#45;&gt;Node5 -->
<g id="edge13_Node000010_Node000005" class="edge">
<title>Node10&#45;&gt;Node5</title>
<g id="a_edge13_Node000010_Node000005"><a xlink:title=" ">
<path fill="none" stroke="#63b8ff" d="M387.4,-186.95C370.21,-176.27 346.67,-161.65 329.51,-150.98"/>
<polygon fill="#63b8ff" stroke="#63b8ff" points="331.05,-147.82 320.71,-145.52 327.35,-153.77 331.05,-147.82"/>
</a>
</g>
</g>
<!-- Node10&#45;&gt;Node6 -->
<g id="edge14_Node000010_Node000006" class="edge">
<title>Node10&#45;&gt;Node6</title>
<g id="a_edge14_Node000010_Node000006"><a xlink:title=" ">
<path fill="none" stroke="#63b8ff" d="M486.79,-186.99C533.37,-174.88 579.66,-154 556,-121 487.09,-24.88 329.88,-11.34 262.09,-10.14"/>
<polygon fill="#63b8ff" stroke="#63b8ff" points="262.04,-6.64 252.01,-10.04 261.97,-13.64 262.04,-6.64"/>
</a>
</g>
</g>
<!-- Node10&#45;&gt;Node9 -->
<g id="edge16_Node000010_Node000009" class="edge">
<title>Node10&#45;&gt;Node9</title>
<g id="a_edge16_Node000010_Node000009"><a xlink:title=" ">
<path fill="none" stroke="#63b8ff" d="M410.67,-186.8C411.02,-179.34 411.45,-169.99 411.86,-161.41"/>
<polygon fill="#63b8ff" stroke="#63b8ff" points="415.36,-161.32 412.34,-151.16 408.37,-160.99 415.36,-161.32"/>
</a>
</g>
</g>
<!-- Node11 -->
<g id="Node000011" class="node">
<title>Node11</title>
<g id="a_Node000011"><a xlink:title=" ">
<polygon fill="#e0e0e0" stroke="#999999" points="547,-145.5 491,-145.5 491,-126.5 547,-126.5 547,-145.5"/>
<text text-anchor="middle" x="519" y="-133.5" font-family="Helvetica,sans-Serif" font-size="10.00">optional</text>
</a>
</g>
</g>
<!-- Node10&#45;&gt;Node11 -->
<g id="edge12_Node000010_Node000011" class="edge">
<title>Node10&#45;&gt;Node11</title>
<g id="a_edge12_Node000010_Node000011"><a xlink:title=" ">
<path fill="none" stroke="#63b8ff" d="M433.92,-186.95C452.28,-176.18 477.48,-161.38 495.69,-150.69"/>
<polygon fill="#63b8ff" stroke="#63b8ff" points="497.64,-153.6 504.49,-145.52 494.1,-147.56 497.64,-153.6"/>
</a>
</g>
</g>
</g>
</svg>
