<?xml version="1.0" encoding="UTF-8" standalone="no"?>
<!DOCTYPE svg PUBLIC "-//W3C//DTD SVG 1.1//EN"
 "http://www.w3.org/Graphics/SVG/1.1/DTD/svg11.dtd">
<!-- Generated by graphviz version 2.43.0 (0)
 -->
<!-- Title: SimulateurFerroviaire/Modules/Stockages/TopologyData.h Pages: 1 -->
<svg width="608pt" height="302pt"
 viewBox="0.00 0.00 608.00 302.00" xmlns="http://www.w3.org/2000/svg" xmlns:xlink="http://www.w3.org/1999/xlink">
<g id="graph0" class="graph" transform="scale(1 1) rotate(0) translate(4 298)">
<title>SimulateurFerroviaire/Modules/Stockages/TopologyData.h</title>
<!-- Node1 -->
<g id="Node000001" class="node">
<title>Node1</title>
<g id="a_Node000001"><a xlink:title="Conteneur central des données topologiques ferroviaires.">
<polygon fill="#999999" stroke="#666666" points="309,-294 149,-294 149,-253 309,-253 309,-294"/>
<text text-anchor="start" x="157" y="-282" font-family="Helvetica,sans-Serif" font-size="10.00">SimulateurFerroviaire</text>
<text text-anchor="start" x="157" y="-271" font-family="Helvetica,sans-Serif" font-size="10.00">/Modules/Stockages/Topology</text>
<text text-anchor="middle" x="229" y="-260" font-family="Helvetica,sans-Serif" font-size="10.00">Data.h</text>
</a>
</g>
</g>
<!-- Node2 -->
<g id="Node000002" class="node">
<title>Node2</title>
<g id="a_Node000002"><a xlink:title=" ">
<polygon fill="#e0e0e0" stroke="#999999" points="58,-211.5 0,-211.5 0,-192.5 58,-192.5 58,-211.5"/>
<text text-anchor="middle" x="29" y="-199.5" font-family="Helvetica,sans-Serif" font-size="10.00">memory</text>
</a>
</g>
</g>
<!-- Node1&#45;&gt;Node2 -->
<g id="edge1_Node000001_Node000002" class="edge">
<title>Node1&#45;&gt;Node2</title>
<g id="a_edge1_Node000001_Node000002"><a xlink:title=" ">
<path fill="none" stroke="#63b8ff" d="M170.78,-252.91C139.88,-242.43 101.32,-229.2 67,-217 65.16,-216.35 63.28,-215.67 61.37,-214.98"/>
<polygon fill="#63b8ff" stroke="#63b8ff" points="62.47,-211.66 51.88,-211.52 60.08,-218.24 62.47,-211.66"/>
</a>
</g>
</g>
<!-- Node3 -->
<g id="Node000003" class="node">
<title>Node3</title>
<g id="a_Node000003"><a xlink:title=" ">
<polygon fill="#e0e0e0" stroke="#999999" points="276.5,-145.5 229.5,-145.5 229.5,-126.5 276.5,-126.5 276.5,-145.5"/>
<text text-anchor="middle" x="253" y="-133.5" font-family="Helvetica,sans-Serif" font-size="10.00">vector</text>
</a>
</g>
</g>
<!-- Node1&#45;&gt;Node3 -->
<g id="edge2_Node000001_Node000003" class="edge">
<title>Node1&#45;&gt;Node3</title>
<g id="a_edge2_Node000001_Node000003"><a xlink:title=" ">
<path fill="none" stroke="#63b8ff" d="M248.26,-252.96C256.68,-243.05 265.62,-230.31 270,-217 276.85,-196.2 269.28,-171.43 262.17,-155.02"/>
<polygon fill="#63b8ff" stroke="#63b8ff" points="265.15,-153.13 257.73,-145.57 258.82,-156.11 265.15,-153.13"/>
</a>
</g>
</g>
<!-- Node4 -->
<g id="Node000004" class="node">
<title>Node4</title>
<g id="a_Node000004"><a xlink:href="StraightBlock_8h.html" target="_top" xlink:title="Modèle de domaine d&#39;un bloc de voie droite (Straight).">
<polygon fill="white" stroke="#666666" points="261.5,-217 76.5,-217 76.5,-187 261.5,-187 261.5,-217"/>
<text text-anchor="start" x="84.5" y="-205" font-family="Helvetica,sans-Serif" font-size="10.00">Modules/InteractiveElements</text>
<text text-anchor="middle" x="169" y="-194" font-family="Helvetica,sans-Serif" font-size="10.00">/ShuntingElements/StraightBlock.h</text>
</a>
</g>
</g>
<!-- Node1&#45;&gt;Node4 -->
<g id="edge3_Node000001_Node000004" class="edge">
<title>Node1&#45;&gt;Node4</title>
<g id="a_edge3_Node000001_Node000004"><a xlink:title=" ">
<path fill="none" stroke="#63b8ff" d="M211.97,-252.77C204.43,-244.04 195.55,-233.75 187.82,-224.8"/>
<polygon fill="#63b8ff" stroke="#63b8ff" points="190.3,-222.32 181.12,-217.04 185,-226.89 190.3,-222.32"/>
</a>
</g>
</g>
<!-- Node9 -->
<g id="Node000009" class="node">
<title>Node9</title>
<g id="a_Node000009"><a xlink:href="SwitchBlock_8h.html" target="_top" xlink:title="Modèle de domaine d&#39;un aiguillage ferroviaire à 3 branches.">
<polygon fill="white" stroke="#666666" points="519.5,-217 340.5,-217 340.5,-187 519.5,-187 519.5,-217"/>
<text text-anchor="start" x="348.5" y="-205" font-family="Helvetica,sans-Serif" font-size="10.00">Modules/InteractiveElements</text>
<text text-anchor="middle" x="430" y="-194" font-family="Helvetica,sans-Serif" font-size="10.00">/ShuntingElements/SwitchBlock.h</text>
</a>
</g>
</g>
<!-- Node1&#45;&gt;Node9 -->
<g id="edge10_Node000001_Node000009" class="edge">
<title>Node1&#45;&gt;Node9</title>
<g id="a_edge10_Node000001_Node000009"><a xlink:title=" ">
<path fill="none" stroke="#63b8ff" d="M285.52,-252.96C315.13,-242.72 351.07,-230.29 379.7,-220.39"/>
<polygon fill="#63b8ff" stroke="#63b8ff" points="381.19,-223.58 389.5,-217 378.9,-216.96 381.19,-223.58"/>
</a>
</g>
</g>
<!-- Node4&#45;&gt;Node3 -->
<g id="edge5_Node000004_Node000003" class="edge">
<title>Node4&#45;&gt;Node3</title>
<g id="a_edge5_Node000004_Node000003"><a xlink:title=" ">
<path fill="none" stroke="#63b8ff" d="M187.64,-186.8C201.12,-176.53 219.31,-162.67 233.08,-152.18"/>
<polygon fill="#63b8ff" stroke="#63b8ff" points="235.56,-154.69 241.39,-145.84 231.32,-149.12 235.56,-154.69"/>
</a>
</g>
</g>
<!-- Node5 -->
<g id="Node000005" class="node">
<title>Node5</title>
<g id="a_Node000005"><a xlink:title=" ">
<polygon fill="#e0e0e0" stroke="#999999" points="203,-19 159,-19 159,0 203,0 203,-19"/>
<text text-anchor="middle" x="181" y="-7" font-family="Helvetica,sans-Serif" font-size="10.00">string</text>
</a>
</g>
</g>
<!-- Node4&#45;&gt;Node5 -->
<g id="edge4_Node000004_Node000005" class="edge">
<title>Node4&#45;&gt;Node5</title>
<g id="a_edge4_Node000004_Node000005"><a xlink:title=" ">
<path fill="none" stroke="#63b8ff" d="M133.58,-186.9C118.25,-178.83 101.82,-167.06 93,-151 72.47,-113.6 69.57,-91.3 92,-55 104.43,-34.89 129.01,-23.56 149.2,-17.37"/>
<polygon fill="#63b8ff" stroke="#63b8ff" points="150.27,-20.71 158.97,-14.66 148.4,-13.96 150.27,-20.71"/>
</a>
</g>
</g>
<!-- Node6 -->
<g id="Node000006" class="node">
<title>Node6</title>
<g id="a_Node000006"><a xlink:href="ShuntingElement_8h.html" target="_top" xlink:title="Interface abstraite pour tous les éléments de shuntage ferroviaire.">
<polygon fill="white" stroke="#666666" points="211.5,-145.5 102.5,-145.5 102.5,-126.5 211.5,-126.5 211.5,-145.5"/>
<text text-anchor="middle" x="157" y="-133.5" font-family="Helvetica,sans-Serif" font-size="10.00">ShuntingElement.h</text>
</a>
</g>
</g>
<!-- Node4&#45;&gt;Node6 -->
<g id="edge6_Node000004_Node000006" class="edge">
<title>Node4&#45;&gt;Node6</title>
<g id="a_edge6_Node000004_Node000006"><a xlink:title=" ">
<path fill="none" stroke="#63b8ff" d="M166.34,-186.8C164.63,-177.7 162.4,-165.79 160.54,-155.9"/>
<polygon fill="#63b8ff" stroke="#63b8ff" points="163.94,-155.03 158.66,-145.84 157.06,-156.32 163.94,-155.03"/>
</a>
</g>
</g>
<!-- Node8 -->
<g id="Node000008" class="node">
<title>Node8</title>
<g id="a_Node000008"><a xlink:href="LatLon_8h.html" target="_top" xlink:title="Représentation d&#39;une coordonnée géographique WGS&#45;84 (latitude, longitude).">
<polygon fill="white" stroke="#666666" points="413.5,-151 294.5,-151 294.5,-121 413.5,-121 413.5,-151"/>
<text text-anchor="start" x="302.5" y="-139" font-family="Helvetica,sans-Serif" font-size="10.00">Modules/Coordinates</text>
<text text-anchor="middle" x="354" y="-128" font-family="Helvetica,sans-Serif" font-size="10.00">/LatLon.h</text>
</a>
</g>
</g>
<!-- Node4&#45;&gt;Node8 -->
<g id="edge9_Node000004_Node000008" class="edge">
<title>Node4&#45;&gt;Node8</title>
<g id="a_edge9_Node000004_Node000008"><a xlink:title=" ">
<path fill="none" stroke="#63b8ff" d="M209.6,-186.95C237.31,-177.37 274.21,-164.6 303.78,-154.37"/>
<polygon fill="#63b8ff" stroke="#63b8ff" points="305.19,-157.59 313.5,-151.01 302.9,-150.97 305.19,-157.59"/>
</a>
</g>
</g>
<!-- Node7 -->
<g id="Node000007" class="node">
<title>Node7</title>
<g id="a_Node000007"><a xlink:href="InteractiveElement_8h.html" target="_top" xlink:title="Classe de base abstraite pour tous les éléments interactifs ferroviaires.">
<polygon fill="white" stroke="#666666" points="260.5,-85 101.5,-85 101.5,-55 260.5,-55 260.5,-85"/>
<text text-anchor="start" x="109.5" y="-73" font-family="Helvetica,sans-Serif" font-size="10.00">Modules/InteractiveElements</text>
<text text-anchor="middle" x="181" y="-62" font-family="Helvetica,sans-Serif" font-size="10.00">/InteractiveElement.h</text>
</a>
</g>
</g>
<!-- Node6&#45;&gt;Node7 -->
<g id="edge7_Node000006_Node000007" class="edge">
<title>Node6&#45;&gt;Node7</title>
<g id="a_edge7_Node000006_Node000007"><a xlink:title=" ">
<path fill="none" stroke="#63b8ff" d="M160.24,-126.37C163.25,-118.32 167.9,-105.94 172.03,-94.93"/>
<polygon fill="#63b8ff" stroke="#63b8ff" points="175.38,-95.95 175.61,-85.36 168.83,-93.49 175.38,-95.95"/>
</a>
</g>
</g>
<!-- Node7&#45;&gt;Node5 -->
<g id="edge8_Node000007_Node000005" class="edge">
<title>Node7&#45;&gt;Node5</title>
<g id="a_edge8_Node000007_Node000005"><a xlink:title=" ">
<path fill="none" stroke="#63b8ff" d="M181,-54.84C181,-47.21 181,-37.7 181,-29.45"/>
<polygon fill="#63b8ff" stroke="#63b8ff" points="184.5,-29.27 181,-19.27 177.5,-29.27 184.5,-29.27"/>
</a>
</g>
</g>
<!-- Node9&#45;&gt;Node3 -->
<g id="edge14_Node000009_Node000003" class="edge">
<title>Node9&#45;&gt;Node3</title>
<g id="a_edge14_Node000009_Node000003"><a xlink:title=" ">
<path fill="none" stroke="#63b8ff" d="M386.21,-186.92C357.26,-177.36 318.61,-164.12 285,-151 283.79,-150.53 282.56,-150.04 281.33,-149.54"/>
<polygon fill="#63b8ff" stroke="#63b8ff" points="282.42,-146.2 271.85,-145.54 279.7,-152.65 282.42,-146.2"/>
</a>
</g>
</g>
<!-- Node9&#45;&gt;Node5 -->
<g id="edge13_Node000009_Node000005" class="edge">
<title>Node9&#45;&gt;Node5</title>
<g id="a_edge13_Node000009_Node000005"><a xlink:title=" ">
<path fill="none" stroke="#63b8ff" d="M432.75,-186.84C435.26,-169.63 436.75,-140.47 423,-121 373.04,-50.26 266.45,-23.87 212.98,-14.81"/>
<polygon fill="#63b8ff" stroke="#63b8ff" points="213.45,-11.34 203.02,-13.22 212.35,-18.25 213.45,-11.34"/>
</a>
</g>
</g>
<!-- Node9&#45;&gt;Node8 -->
<g id="edge15_Node000009_Node000008" class="edge">
<title>Node9&#45;&gt;Node8</title>
<g id="a_edge15_Node000009_Node000008"><a xlink:title=" ">
<path fill="none" stroke="#63b8ff" d="M413.13,-186.8C403,-178.26 389.92,-167.25 378.65,-157.75"/>
<polygon fill="#63b8ff" stroke="#63b8ff" points="380.72,-154.93 370.82,-151.16 376.21,-160.28 380.72,-154.93"/>
</a>
</g>
</g>
<!-- Node10 -->
<g id="Node000010" class="node">
<title>Node10</title>
<g id="a_Node000010"><a xlink:title=" ">
<polygon fill="#e0e0e0" stroke="#999999" points="526,-145.5 470,-145.5 470,-126.5 526,-126.5 526,-145.5"/>
<text text-anchor="middle" x="498" y="-133.5" font-family="Helvetica,sans-Serif" font-size="10.00">optional</text>
</a>
</g>
</g>
<!-- Node9&#45;&gt;Node10 -->
<g id="edge11_Node000009_Node000010" class="edge">
<title>Node9&#45;&gt;Node10</title>
<g id="a_edge11_Node000009_Node000010"><a xlink:title=" ">
<path fill="none" stroke="#63b8ff" d="M445.09,-186.8C455.8,-176.72 470.17,-163.19 481.23,-152.78"/>
<polygon fill="#63b8ff" stroke="#63b8ff" points="483.72,-155.25 488.6,-145.84 478.92,-150.15 483.72,-155.25"/>
</a>
</g>
</g>
<!-- Node11 -->
<g id="Node000011" class="node">
<title>Node11</title>
<g id="a_Node000011"><a xlink:title=" ">
<polygon fill="#e0e0e0" stroke="#999999" points="600,-145.5 544,-145.5 544,-126.5 600,-126.5 600,-145.5"/>
<text text-anchor="middle" x="572" y="-133.5" font-family="Helvetica,sans-Serif" font-size="10.00">sstream</text>
</a>
</g>
</g>
<!-- Node9&#45;&gt;Node11 -->
<g id="edge12_Node000009_Node000011" class="edge">
<title>Node9&#45;&gt;Node11</title>
<g id="a_edge12_Node000009_Node000011"><a xlink:title=" ">
<path fill="none" stroke="#63b8ff" d="M461.16,-186.95C485.85,-175.83 520.03,-160.42 543.88,-149.67"/>
<polygon fill="#63b8ff" stroke="#63b8ff" points="545.42,-152.82 553.1,-145.52 542.55,-146.44 545.42,-152.82"/>
</a>
</g>
</g>
</g>
</svg>
