<?xml version="1.0" encoding="UTF-8" standalone="no"?>
<!DOCTYPE svg PUBLIC "-//W3C//DTD SVG 1.1//EN"
 "http://www.w3.org/Graphics/SVG/1.1/DTD/svg11.dtd">
<!-- Generated by graphviz version 2.43.0 (0)
 -->
<!-- Title: SimulateurFerroviaire/Modules/GeoParser/TopologyExtractor.h Pages: 1 -->
<svg width="1644pt" height="280pt"
 viewBox="0.00 0.00 1643.87 280.00" xmlns="http://www.w3.org/2000/svg" xmlns:xlink="http://www.w3.org/1999/xlink">
<g id="graph0" class="graph" transform="scale(1 1) rotate(0) translate(4 276)">
<title>SimulateurFerroviaire/Modules/GeoParser/TopologyExtractor.h</title>
<!-- Node1 -->
<g id="Node000001" class="node">
<title>Node1</title>
<g id="a_Node000001"><a xlink:title="Phases 3, 4, 5a et 5b — extraction de la topologie ferroviaire depuis le graphe.">
<polygon fill="#999999" stroke="#666666" points="894.7,-272 734.7,-272 734.7,-231 894.7,-231 894.7,-272"/>
<text text-anchor="start" x="742.7" y="-260" font-family="Helvetica,sans-Serif" font-size="10.00">SimulateurFerroviaire</text>
<text text-anchor="start" x="742.7" y="-249" font-family="Helvetica,sans-Serif" font-size="10.00">/Modules/GeoParser/Topology</text>
<text text-anchor="middle" x="814.7" y="-238" font-family="Helvetica,sans-Serif" font-size="10.00">Extractor.h</text>
</a>
</g>
</g>
<!-- Node2 -->
<g id="Node000002" class="node">
<title>Node2</title>
<g id="a_Node000002"><a xlink:title=" ">
<polygon fill="#e0e0e0" stroke="#999999" points="855.7,-134.5 823.7,-134.5 823.7,-115.5 855.7,-115.5 855.7,-134.5"/>
<text text-anchor="middle" x="839.7" y="-122.5" font-family="Helvetica,sans-Serif" font-size="10.00">set</text>
</a>
</g>
</g>
<!-- Node1&#45;&gt;Node2 -->
<g id="edge1_Node000001_Node000002" class="edge">
<title>Node1&#45;&gt;Node2</title>
<g id="a_edge1_Node000001_Node000002"><a xlink:title=" ">
<path fill="none" stroke="#63b8ff" d="M818.66,-230.77C823.42,-207.09 831.33,-167.66 835.98,-144.52"/>
<polygon fill="#63b8ff" stroke="#63b8ff" points="839.43,-145.11 837.97,-134.61 832.57,-143.73 839.43,-145.11"/>
</a>
</g>
</g>
<!-- Node3 -->
<g id="Node000003" class="node">
<title>Node3</title>
<g id="a_Node000003"><a xlink:title=" ">
<polygon fill="#e0e0e0" stroke="#999999" points="682.7,-19 638.7,-19 638.7,0 682.7,0 682.7,-19"/>
<text text-anchor="middle" x="660.7" y="-7" font-family="Helvetica,sans-Serif" font-size="10.00">string</text>
</a>
</g>
</g>
<!-- Node1&#45;&gt;Node3 -->
<g id="edge2_Node000001_Node000003" class="edge">
<title>Node1&#45;&gt;Node3</title>
<g id="a_edge2_Node000001_Node000003"><a xlink:title=" ">
<path fill="none" stroke="#63b8ff" d="M763.42,-230.99C703.88,-205.21 608.63,-153.55 567.7,-74 552.89,-45.21 596.14,-27.1 628.54,-17.9"/>
<polygon fill="#63b8ff" stroke="#63b8ff" points="629.83,-21.17 638.6,-15.22 628.03,-14.41 629.83,-21.17"/>
</a>
</g>
</g>
<!-- Node4 -->
<g id="Node000004" class="node">
<title>Node4</title>
<g id="a_Node000004"><a xlink:title=" ">
<polygon fill="#e0e0e0" stroke="#999999" points="855.2,-74 762.2,-74 762.2,-55 855.2,-55 855.2,-74"/>
<text text-anchor="middle" x="808.7" y="-62" font-family="Helvetica,sans-Serif" font-size="10.00">unordered_map</text>
</a>
</g>
</g>
<!-- Node1&#45;&gt;Node4 -->
<g id="edge3_Node000001_Node000004" class="edge">
<title>Node1&#45;&gt;Node4</title>
<g id="a_edge3_Node000001_Node000004"><a xlink:title=" ">
<path fill="none" stroke="#63b8ff" d="M814.06,-230.7C812.89,-194.86 810.45,-119.67 809.31,-84.46"/>
<polygon fill="#63b8ff" stroke="#63b8ff" points="812.8,-84.04 808.98,-74.16 805.8,-84.27 812.8,-84.04"/>
</a>
</g>
</g>
<!-- Node5 -->
<g id="Node000005" class="node">
<title>Node5</title>
<g id="a_Node000005"><a xlink:title=" ">
<polygon fill="#e0e0e0" stroke="#999999" points="1621.2,-74 1576.2,-74 1576.2,-55 1621.2,-55 1621.2,-74"/>
<text text-anchor="middle" x="1598.7" y="-62" font-family="Helvetica,sans-Serif" font-size="10.00">utility</text>
</a>
</g>
</g>
<!-- Node1&#45;&gt;Node5 -->
<g id="edge4_Node000001_Node000005" class="edge">
<title>Node1&#45;&gt;Node5</title>
<g id="a_edge4_Node000001_Node000005"><a xlink:title=" ">
<path fill="none" stroke="#63b8ff" d="M894.93,-246.1C985.7,-239.86 1137.46,-225.6 1264.7,-195 1334.14,-178.3 1349.05,-165.69 1415.7,-140 1470.11,-119.02 1532.97,-93.05 1569.05,-77.97"/>
<polygon fill="#63b8ff" stroke="#63b8ff" points="1570.61,-81.11 1578.49,-74.02 1567.91,-74.65 1570.61,-81.11"/>
</a>
</g>
</g>
<!-- Node6 -->
<g id="Node000006" class="node">
<title>Node6</title>
<g id="a_Node000006"><a xlink:title=" ">
<polygon fill="#e0e0e0" stroke="#999999" points="1186.2,-19 1139.2,-19 1139.2,0 1186.2,0 1186.2,-19"/>
<text text-anchor="middle" x="1162.7" y="-7" font-family="Helvetica,sans-Serif" font-size="10.00">vector</text>
</a>
</g>
</g>
<!-- Node1&#45;&gt;Node6 -->
<g id="edge5_Node000001_Node000006" class="edge">
<title>Node1&#45;&gt;Node6</title>
<g id="a_edge5_Node000001_Node000006"><a xlink:title=" ">
<path fill="none" stroke="#63b8ff" d="M894.89,-246.58C1084.02,-235.38 1548.27,-195.75 1630.7,-74 1684.21,5.04 1299.19,-32.51 1204.7,-19 1202.03,-18.62 1199.27,-18.17 1196.51,-17.69"/>
<polygon fill="#63b8ff" stroke="#63b8ff" points="1197.08,-14.24 1186.6,-15.83 1195.78,-21.12 1197.08,-14.24"/>
</a>
</g>
</g>
<!-- Node7 -->
<g id="Node000007" class="node">
<title>Node7</title>
<g id="a_Node000007"><a xlink:href="GraphBuilder_8h.html" target="_top" xlink:title="Phases 1 et 2 du pipeline — chargement GeoJSON et construction du graphe métrique.">
<polygon fill="white" stroke="#666666" points="951.2,-195 862.2,-195 862.2,-176 951.2,-176 951.2,-195"/>
<text text-anchor="middle" x="906.7" y="-183" font-family="Helvetica,sans-Serif" font-size="10.00">GraphBuilder.h</text>
</a>
</g>
</g>
<!-- Node1&#45;&gt;Node7 -->
<g id="edge6_Node000001_Node000007" class="edge">
<title>Node1&#45;&gt;Node7</title>
<g id="a_edge6_Node000001_Node000007"><a xlink:title=" ">
<path fill="none" stroke="#63b8ff" d="M842.8,-230.95C856.58,-221.37 872.89,-210.02 885.59,-201.19"/>
<polygon fill="#63b8ff" stroke="#63b8ff" points="887.89,-203.84 894.1,-195.26 883.9,-198.1 887.89,-203.84"/>
</a>
</g>
</g>
<!-- Node16 -->
<g id="Node000016" class="node">
<title>Node16</title>
<g id="a_Node000016"><a xlink:href="GeoParserEnums_8h.html" target="_top" xlink:title="Constantes nommées et énumérations du pipeline ferroviaire GeoParser.">
<polygon fill="white" stroke="#666666" points="1519.2,-74 1366.2,-74 1366.2,-55 1519.2,-55 1519.2,-74"/>
<text text-anchor="middle" x="1442.7" y="-62" font-family="Helvetica,sans-Serif" font-size="10.00">../Enums/GeoParserEnums.h</text>
</a>
</g>
</g>
<!-- Node1&#45;&gt;Node16 -->
<g id="edge47_Node000001_Node000016" class="edge">
<title>Node1&#45;&gt;Node16</title>
<g id="a_edge47_Node000001_Node000016"><a xlink:title=" ">
<path fill="none" stroke="#63b8ff" d="M894.71,-242.31C1032.27,-227.06 1306.61,-191.14 1387.7,-140 1409.52,-126.24 1425.6,-100.45 1434.56,-83.12"/>
<polygon fill="#63b8ff" stroke="#63b8ff" points="1437.74,-84.57 1439,-74.05 1431.46,-81.49 1437.74,-84.57"/>
</a>
</g>
</g>
<!-- Node18 -->
<g id="Node000018" class="node">
<title>Node18</title>
<g id="a_Node000018"><a xlink:href="Logger_8h.html" target="_top" xlink:title="Système de journalisation à 5 niveaux de trace, un fichier par moteur.">
<polygon fill="white" stroke="#666666" points="468.2,-140 357.2,-140 357.2,-110 468.2,-110 468.2,-140"/>
<text text-anchor="start" x="365.2" y="-128" font-family="Helvetica,sans-Serif" font-size="10.00">Engine/Core/Logger</text>
<text text-anchor="middle" x="412.7" y="-117" font-family="Helvetica,sans-Serif" font-size="10.00">/Logger.h</text>
</a>
</g>
</g>
<!-- Node1&#45;&gt;Node18 -->
<g id="edge48_Node000001_Node000018" class="edge">
<title>Node1&#45;&gt;Node18</title>
<g id="a_edge48_Node000001_Node000018"><a xlink:title=" ">
<path fill="none" stroke="#63b8ff" d="M734.4,-241.35C677.64,-233.26 600.44,-218.91 535.7,-195 501.69,-182.44 465.87,-161.32 441.71,-145.75"/>
<polygon fill="#63b8ff" stroke="#63b8ff" points="443.34,-142.63 433.05,-140.08 439.5,-148.49 443.34,-142.63"/>
</a>
</g>
</g>
<!-- Node23 -->
<g id="Node000023" class="node">
<title>Node23</title>
<g id="a_Node000023"><a xlink:href="StraightBlock_8h.html" target="_top" xlink:title="Modèle de domaine d&#39;un bloc de voie droite (Straight).">
<polygon fill="white" stroke="#666666" points="196.2,-74 23.2,-74 23.2,-55 196.2,-55 196.2,-74"/>
<text text-anchor="middle" x="109.7" y="-62" font-family="Helvetica,sans-Serif" font-size="10.00">Modules/Models/StraightBlock.h</text>
</a>
</g>
</g>
<!-- Node1&#45;&gt;Node23 -->
<g id="edge36_Node000001_Node000023" class="edge">
<title>Node1&#45;&gt;Node23</title>
<g id="a_edge36_Node000001_Node000023"><a xlink:title=" ">
<path fill="none" stroke="#63b8ff" d="M734.5,-240.13C669.12,-230.85 574.7,-215.53 493.7,-195 360.02,-161.12 205.92,-103.2 141.05,-77.92"/>
<polygon fill="#63b8ff" stroke="#63b8ff" points="142.01,-74.53 131.42,-74.15 139.46,-81.05 142.01,-74.53"/>
</a>
</g>
</g>
<!-- Node24 -->
<g id="Node000024" class="node">
<title>Node24</title>
<g id="a_Node000024"><a xlink:href="SwitchBlock_8h.html" target="_top" xlink:title="Modèle de domaine d&#39;un aiguillage ferroviaire à 3 branches (Switch).">
<polygon fill="white" stroke="#666666" points="744.2,-74 577.2,-74 577.2,-55 744.2,-55 744.2,-74"/>
<text text-anchor="middle" x="660.7" y="-62" font-family="Helvetica,sans-Serif" font-size="10.00">Modules/Models/SwitchBlock.h</text>
</a>
</g>
</g>
<!-- Node1&#45;&gt;Node24 -->
<g id="edge41_Node000001_Node000024" class="edge">
<title>Node1&#45;&gt;Node24</title>
<g id="a_edge41_Node000001_Node000024"><a xlink:title=" ">
<path fill="none" stroke="#63b8ff" d="M798.22,-230.7C767.73,-194.08 703.05,-116.38 674.61,-82.22"/>
<polygon fill="#63b8ff" stroke="#63b8ff" points="676.99,-79.61 667.91,-74.16 671.61,-84.08 676.99,-79.61"/>
</a>
</g>
</g>
<!-- Node7&#45;&gt;Node2 -->
<g id="edge7_Node000007_Node000002" class="edge">
<title>Node7&#45;&gt;Node2</title>
<g id="a_edge7_Node000007_Node000002"><a xlink:title=" ">
<path fill="none" stroke="#63b8ff" d="M896.81,-175.87C886.42,-166.8 869.86,-152.34 857.24,-141.32"/>
<polygon fill="#63b8ff" stroke="#63b8ff" points="859.46,-138.61 849.62,-134.67 854.85,-143.88 859.46,-138.61"/>
</a>
</g>
</g>
<!-- Node7&#45;&gt;Node3 -->
<g id="edge8_Node000007_Node000003" class="edge">
<title>Node7&#45;&gt;Node3</title>
<g id="a_edge8_Node000007_Node000003"><a xlink:title=" ">
<path fill="none" stroke="#63b8ff" d="M906.58,-175.69C905.76,-152.23 900.14,-87.81 863.7,-55 838.85,-32.63 743.6,-19.33 692.9,-13.69"/>
<polygon fill="#63b8ff" stroke="#63b8ff" points="693.11,-10.19 682.79,-12.6 692.36,-17.15 693.11,-10.19"/>
</a>
</g>
</g>
<!-- Node7&#45;&gt;Node6 -->
<g id="edge9_Node000007_Node000006" class="edge">
<title>Node7&#45;&gt;Node6</title>
<g id="a_edge9_Node000007_Node000006"><a xlink:title=" ">
<path fill="none" stroke="#63b8ff" d="M951.26,-184.81C1032.5,-184.41 1200.06,-178.76 1240.7,-140 1268.31,-113.67 1272.83,-87.41 1252.7,-55 1240.42,-35.24 1216.49,-23.99 1196.39,-17.74"/>
<polygon fill="#63b8ff" stroke="#63b8ff" points="1197.17,-14.33 1186.6,-14.99 1195.28,-21.07 1197.17,-14.33"/>
</a>
</g>
</g>
<!-- Node8 -->
<g id="Node000008" class="node">
<title>Node8</title>
<g id="a_Node000008"><a xlink:href="TopologyGraph_8h.html" target="_top" xlink:title="Graphe planaire non&#45;orienté de nœuds et d&#39;arêtes ferroviaires accrochés.">
<polygon fill="white" stroke="#666666" points="1231.2,-134.5 1094.2,-134.5 1094.2,-115.5 1231.2,-115.5 1231.2,-134.5"/>
<text text-anchor="middle" x="1162.7" y="-122.5" font-family="Helvetica,sans-Serif" font-size="10.00">./Graph/TopologyGraph.h</text>
</a>
</g>
</g>
<!-- Node7&#45;&gt;Node8 -->
<g id="edge10_Node000007_Node000008" class="edge">
<title>Node7&#45;&gt;Node8</title>
<g id="a_edge10_Node000007_Node000008"><a xlink:title=" ">
<path fill="none" stroke="#63b8ff" d="M943.92,-175.99C989.33,-165.62 1066.14,-148.07 1115.61,-136.76"/>
<polygon fill="#63b8ff" stroke="#63b8ff" points="1116.46,-140.16 1125.43,-134.52 1114.9,-133.33 1116.46,-140.16"/>
</a>
</g>
</g>
<!-- Node15 -->
<g id="Node000015" class="node">
<title>Node15</title>
<g id="a_Node000015"><a xlink:href="CoordinateXY_8h.html" target="_top" xlink:title="Représentation d&#39;une coordonnée plane en mètres (système métrique UTM).">
<polygon fill="white" stroke="#666666" points="1385.7,-19 1213.7,-19 1213.7,0 1385.7,0 1385.7,-19"/>
<text text-anchor="middle" x="1299.7" y="-7" font-family="Helvetica,sans-Serif" font-size="10.00">Modules/Models/CoordinateXY.h</text>
</a>
</g>
</g>
<!-- Node7&#45;&gt;Node15 -->
<g id="edge28_Node000007_Node000015" class="edge">
<title>Node7&#45;&gt;Node15</title>
<g id="a_edge28_Node000007_Node000015"><a xlink:title=" ">
<path fill="none" stroke="#63b8ff" d="M951.37,-184.51C1083.41,-183.42 1466.52,-171.75 1528.7,-74 1533.23,-66.87 1534.07,-61.52 1528.7,-55 1511.6,-34.26 1450.67,-23.06 1395.95,-17.09"/>
<polygon fill="#63b8ff" stroke="#63b8ff" points="1396.13,-13.59 1385.82,-16.03 1395.4,-20.55 1396.13,-13.59"/>
</a>
</g>
</g>
<!-- Node7&#45;&gt;Node16 -->
<g id="edge26_Node000007_Node000016" class="edge">
<title>Node7&#45;&gt;Node16</title>
<g id="a_edge26_Node000007_Node000016"><a xlink:title=" ">
<path fill="none" stroke="#63b8ff" d="M951.33,-183.3C1049.29,-180.14 1280.06,-169.69 1351.7,-140 1382.82,-127.1 1411.63,-99.88 1428.17,-82.16"/>
<polygon fill="#63b8ff" stroke="#63b8ff" points="1431.15,-84.09 1435.27,-74.33 1425.96,-79.39 1431.15,-84.09"/>
</a>
</g>
</g>
<!-- Node17 -->
<g id="Node000017" class="node">
<title>Node17</title>
<g id="a_Node000017"><a xlink:href="LatLon_8h.html" target="_top" xlink:title="Représentation d&#39;une coordonnée géographique WGS&#45;84 (latitude, longitude).">
<polygon fill="white" stroke="#666666" points="179.7,-19 39.7,-19 39.7,0 179.7,0 179.7,-19"/>
<text text-anchor="middle" x="109.7" y="-7" font-family="Helvetica,sans-Serif" font-size="10.00">Modules/Models/LatLon.h</text>
</a>
</g>
</g>
<!-- Node7&#45;&gt;Node17 -->
<g id="edge27_Node000007_Node000017" class="edge">
<title>Node7&#45;&gt;Node17</title>
<g id="a_edge27_Node000007_Node000017"><a xlink:title=" ">
<path fill="none" stroke="#63b8ff" d="M862.12,-182.55C688.05,-174.48 60.94,-140.92 5.7,-74 -14.37,-49.69 24.15,-32.17 59.86,-21.77"/>
<polygon fill="#63b8ff" stroke="#63b8ff" points="61.09,-25.06 69.8,-19.02 59.23,-18.31 61.09,-25.06"/>
</a>
</g>
</g>
<!-- Node7&#45;&gt;Node18 -->
<g id="edge29_Node000007_Node000018" class="edge">
<title>Node7&#45;&gt;Node18</title>
<g id="a_edge29_Node000007_Node000018"><a xlink:title=" ">
<path fill="none" stroke="#63b8ff" d="M861.99,-179.21C774.62,-168.86 580.86,-145.91 478.7,-133.82"/>
<polygon fill="#63b8ff" stroke="#63b8ff" points="478.84,-130.31 468.5,-132.61 478.02,-137.26 478.84,-130.31"/>
</a>
</g>
</g>
<!-- Node8&#45;&gt;Node3 -->
<g id="edge14_Node000008_Node000003" class="edge">
<title>Node8&#45;&gt;Node3</title>
<g id="a_edge14_Node000008_Node000003"><a xlink:title=" ">
<path fill="none" stroke="#63b8ff" d="M1111.68,-115.43C1066.18,-107.1 998.1,-92.95 940.7,-74 920.86,-67.45 917.65,-61.19 897.7,-55 826.29,-32.85 739.17,-19.95 693.02,-14.17"/>
<polygon fill="#63b8ff" stroke="#63b8ff" points="693.35,-10.68 683,-12.95 692.5,-17.63 693.35,-10.68"/>
</a>
</g>
</g>
<!-- Node8&#45;&gt;Node4 -->
<g id="edge15_Node000008_Node000004" class="edge">
<title>Node8&#45;&gt;Node4</title>
<g id="a_edge15_Node000008_Node000004"><a xlink:title=" ">
<path fill="none" stroke="#63b8ff" d="M1111.22,-115.49C1045.83,-104.69 933.35,-86.1 865.51,-74.89"/>
<polygon fill="#63b8ff" stroke="#63b8ff" points="865.87,-71.4 855.43,-73.22 864.73,-78.31 865.87,-71.4"/>
</a>
</g>
</g>
<!-- Node8&#45;&gt;Node5 -->
<g id="edge16_Node000008_Node000005" class="edge">
<title>Node8&#45;&gt;Node5</title>
<g id="a_edge16_Node000008_Node000005"><a xlink:title=" ">
<path fill="none" stroke="#63b8ff" d="M1226.1,-115.49C1320.22,-102.86 1493.57,-79.6 1565.78,-69.92"/>
<polygon fill="#63b8ff" stroke="#63b8ff" points="1566.63,-73.33 1576.08,-68.53 1565.7,-66.4 1566.63,-73.33"/>
</a>
</g>
</g>
<!-- Node8&#45;&gt;Node6 -->
<g id="edge17_Node000008_Node000006" class="edge">
<title>Node8&#45;&gt;Node6</title>
<g id="a_edge17_Node000008_Node000006"><a xlink:title=" ">
<path fill="none" stroke="#63b8ff" d="M1186.01,-115.33C1213.27,-103.76 1252.84,-81.6 1237.7,-55 1228.64,-39.09 1211.41,-28.29 1195.74,-21.31"/>
<polygon fill="#63b8ff" stroke="#63b8ff" points="1196.86,-17.98 1186.28,-17.45 1194.22,-24.47 1196.86,-17.98"/>
</a>
</g>
</g>
<!-- Node9 -->
<g id="Node000009" class="node">
<title>Node9</title>
<g id="a_Node000009"><a xlink:title=" ">
<polygon fill="#e0e0e0" stroke="#999999" points="1111.7,-74 1061.7,-74 1061.7,-55 1111.7,-55 1111.7,-74"/>
<text text-anchor="middle" x="1086.7" y="-62" font-family="Helvetica,sans-Serif" font-size="10.00">cstdint</text>
</a>
</g>
</g>
<!-- Node8&#45;&gt;Node9 -->
<g id="edge11_Node000008_Node000009" class="edge">
<title>Node8&#45;&gt;Node9</title>
<g id="a_edge11_Node000008_Node000009"><a xlink:title=" ">
<path fill="none" stroke="#63b8ff" d="M1151.48,-115.37C1139.58,-106.21 1120.55,-91.56 1106.19,-80.51"/>
<polygon fill="#63b8ff" stroke="#63b8ff" points="1108.02,-77.49 1097.96,-74.17 1103.75,-83.04 1108.02,-77.49"/>
</a>
</g>
</g>
<!-- Node10 -->
<g id="Node000010" class="node">
<title>Node10</title>
<g id="a_Node000010"><a xlink:title=" ">
<polygon fill="#e0e0e0" stroke="#999999" points="1195.2,-74 1130.2,-74 1130.2,-55 1195.2,-55 1195.2,-74"/>
<text text-anchor="middle" x="1162.7" y="-62" font-family="Helvetica,sans-Serif" font-size="10.00">functional</text>
</a>
</g>
</g>
<!-- Node8&#45;&gt;Node10 -->
<g id="edge12_Node000008_Node000010" class="edge">
<title>Node8&#45;&gt;Node10</title>
<g id="a_edge12_Node000008_Node000010"><a xlink:title=" ">
<path fill="none" stroke="#63b8ff" d="M1162.7,-115.37C1162.7,-107.25 1162.7,-94.81 1162.7,-84.39"/>
<polygon fill="#63b8ff" stroke="#63b8ff" points="1166.2,-84.17 1162.7,-74.17 1159.2,-84.17 1166.2,-84.17"/>
</a>
</g>
</g>
<!-- Node11 -->
<g id="Node000011" class="node">
<title>Node11</title>
<g id="a_Node000011"><a xlink:title=" ">
<polygon fill="#e0e0e0" stroke="#999999" points="1103.7,-19 1047.7,-19 1047.7,0 1103.7,0 1103.7,-19"/>
<text text-anchor="middle" x="1075.7" y="-7" font-family="Helvetica,sans-Serif" font-size="10.00">optional</text>
</a>
</g>
</g>
<!-- Node8&#45;&gt;Node11 -->
<g id="edge13_Node000008_Node000011" class="edge">
<title>Node8&#45;&gt;Node11</title>
<g id="a_edge13_Node000008_Node000011"><a xlink:title=" ">
<path fill="none" stroke="#63b8ff" d="M1174.63,-115.47C1191.73,-102.18 1219.59,-75.9 1204.7,-55 1193.92,-39.88 1147.96,-26.59 1113.95,-18.56"/>
<polygon fill="#63b8ff" stroke="#63b8ff" points="1114.36,-15.06 1103.83,-16.24 1112.8,-21.88 1114.36,-15.06"/>
</a>
</g>
</g>
<!-- Node12 -->
<g id="Node000012" class="node">
<title>Node12</title>
<g id="a_Node000012"><a xlink:href="TopologyEdge_8h.html" target="_top" xlink:title="Arête non&#45;orientée du graphe planaire de topologie ferroviaire.">
<polygon fill="white" stroke="#666666" points="1043.2,-74 950.2,-74 950.2,-55 1043.2,-55 1043.2,-74"/>
<text text-anchor="middle" x="996.7" y="-62" font-family="Helvetica,sans-Serif" font-size="10.00">TopologyEdge.h</text>
</a>
</g>
</g>
<!-- Node8&#45;&gt;Node12 -->
<g id="edge18_Node000008_Node000012" class="edge">
<title>Node8&#45;&gt;Node12</title>
<g id="a_edge18_Node000008_Node000012"><a xlink:title=" ">
<path fill="none" stroke="#63b8ff" d="M1138.56,-115.49C1110.16,-105.49 1062.82,-88.8 1030.71,-77.49"/>
<polygon fill="#63b8ff" stroke="#63b8ff" points="1031.46,-74.04 1020.86,-74.02 1029.13,-80.64 1031.46,-74.04"/>
</a>
</g>
</g>
<!-- Node8&#45;&gt;Node15 -->
<g id="edge24_Node000008_Node000015" class="edge">
<title>Node8&#45;&gt;Node15</title>
<g id="a_edge24_Node000008_Node000015"><a xlink:title=" ">
<path fill="none" stroke="#63b8ff" d="M1183.57,-115.49C1202.9,-106.94 1231.74,-92.39 1252.7,-74 1267.79,-60.75 1281,-41.88 1289.54,-28.15"/>
<polygon fill="#63b8ff" stroke="#63b8ff" points="1292.75,-29.6 1294.89,-19.22 1286.75,-26 1292.75,-29.6"/>
</a>
</g>
</g>
<!-- Node8&#45;&gt;Node16 -->
<g id="edge25_Node000008_Node000016" class="edge">
<title>Node8&#45;&gt;Node16</title>
<g id="a_edge25_Node000008_Node000016"><a xlink:title=" ">
<path fill="none" stroke="#63b8ff" d="M1203.41,-115.49C1253.28,-105.07 1337.79,-87.42 1391.87,-76.12"/>
<polygon fill="#63b8ff" stroke="#63b8ff" points="1392.86,-79.49 1401.93,-74.02 1391.43,-72.64 1392.86,-79.49"/>
</a>
</g>
</g>
<!-- Node12&#45;&gt;Node3 -->
<g id="edge21_Node000012_Node000003" class="edge">
<title>Node12&#45;&gt;Node3</title>
<g id="a_edge21_Node000012_Node000003"><a xlink:title=" ">
<path fill="none" stroke="#63b8ff" d="M949.98,-56.13C880.74,-45.21 752.67,-25.01 692.94,-15.59"/>
<polygon fill="#63b8ff" stroke="#63b8ff" points="693.37,-12.11 682.95,-14.01 692.28,-19.02 693.37,-12.11"/>
</a>
</g>
</g>
<!-- Node12&#45;&gt;Node6 -->
<g id="edge22_Node000012_Node000006" class="edge">
<title>Node12&#45;&gt;Node6</title>
<g id="a_edge22_Node000012_Node000006"><a xlink:title=" ">
<path fill="none" stroke="#63b8ff" d="M1023.37,-54.98C1052.23,-45.77 1098.3,-31.06 1129.49,-21.1"/>
<polygon fill="#63b8ff" stroke="#63b8ff" points="1130.59,-24.43 1139.05,-18.05 1128.46,-17.76 1130.59,-24.43"/>
</a>
</g>
</g>
<!-- Node13 -->
<g id="Node000013" class="node">
<title>Node13</title>
<g id="a_Node000013"><a xlink:title=" ">
<polygon fill="#e0e0e0" stroke="#999999" points="1020.2,-19 973.2,-19 973.2,0 1020.2,0 1020.2,-19"/>
<text text-anchor="middle" x="996.7" y="-7" font-family="Helvetica,sans-Serif" font-size="10.00">cmath</text>
</a>
</g>
</g>
<!-- Node12&#45;&gt;Node13 -->
<g id="edge19_Node000012_Node000013" class="edge">
<title>Node12&#45;&gt;Node13</title>
<g id="a_edge19_Node000012_Node000013"><a xlink:title=" ">
<path fill="none" stroke="#63b8ff" d="M996.7,-54.75C996.7,-47.8 996.7,-37.85 996.7,-29.13"/>
<polygon fill="#63b8ff" stroke="#63b8ff" points="1000.2,-29.09 996.7,-19.09 993.2,-29.09 1000.2,-29.09"/>
</a>
</g>
</g>
<!-- Node14 -->
<g id="Node000014" class="node">
<title>Node14</title>
<g id="a_Node000014"><a xlink:title=" ">
<polygon fill="#e0e0e0" stroke="#999999" points="437.7,-19 381.7,-19 381.7,0 437.7,0 437.7,-19"/>
<text text-anchor="middle" x="409.7" y="-7" font-family="Helvetica,sans-Serif" font-size="10.00">sstream</text>
</a>
</g>
</g>
<!-- Node12&#45;&gt;Node14 -->
<g id="edge20_Node000012_Node000014" class="edge">
<title>Node12&#45;&gt;Node14</title>
<g id="a_edge20_Node000012_Node000014"><a xlink:title=" ">
<path fill="none" stroke="#63b8ff" d="M950.15,-59.3C837.42,-49.12 551.44,-23.3 447.88,-13.95"/>
<polygon fill="#63b8ff" stroke="#63b8ff" points="448.15,-10.46 437.87,-13.04 447.52,-17.43 448.15,-10.46"/>
</a>
</g>
</g>
<!-- Node12&#45;&gt;Node15 -->
<g id="edge23_Node000012_Node000015" class="edge">
<title>Node12&#45;&gt;Node15</title>
<g id="a_edge23_Node000012_Node000015"><a xlink:title=" ">
<path fill="none" stroke="#63b8ff" d="M1043.38,-55.33C1096.47,-46.05 1183.23,-30.87 1240.9,-20.79"/>
<polygon fill="#63b8ff" stroke="#63b8ff" points="1241.71,-24.2 1250.96,-19.03 1240.5,-17.3 1241.71,-24.2"/>
</a>
</g>
</g>
<!-- Node18&#45;&gt;Node3 -->
<g id="edge35_Node000018_Node000003" class="edge">
<title>Node18&#45;&gt;Node3</title>
<g id="a_edge35_Node000018_Node000003"><a xlink:title=" ">
<path fill="none" stroke="#63b8ff" d="M435.22,-109.84C459.43,-94.97 499.36,-71.51 535.7,-55 566.61,-40.95 603.38,-28.32 629,-20.14"/>
<polygon fill="#63b8ff" stroke="#63b8ff" points="630.09,-23.47 638.58,-17.12 627.99,-16.79 630.09,-23.47"/>
</a>
</g>
</g>
<!-- Node18&#45;&gt;Node14 -->
<g id="edge34_Node000018_Node000014" class="edge">
<title>Node18&#45;&gt;Node14</title>
<g id="a_edge34_Node000018_Node000014"><a xlink:title=" ">
<path fill="none" stroke="#63b8ff" d="M356.96,-121.04C252.57,-114.93 36.04,-99.32 13.7,-74 8.11,-67.67 8.07,-61.3 13.7,-55 37.31,-28.59 276.63,-15.95 371.38,-11.96"/>
<polygon fill="#63b8ff" stroke="#63b8ff" points="371.56,-15.45 381.4,-11.54 371.27,-8.46 371.56,-15.45"/>
</a>
</g>
</g>
<!-- Node19 -->
<g id="Node000019" class="node">
<title>Node19</title>
<g id="a_Node000019"><a xlink:title=" ">
<polygon fill="#e0e0e0" stroke="#999999" points="397.7,-74 353.7,-74 353.7,-55 397.7,-55 397.7,-74"/>
<text text-anchor="middle" x="375.7" y="-62" font-family="Helvetica,sans-Serif" font-size="10.00">ctime</text>
</a>
</g>
</g>
<!-- Node18&#45;&gt;Node19 -->
<g id="edge30_Node000018_Node000019" class="edge">
<title>Node18&#45;&gt;Node19</title>
<g id="a_edge30_Node000018_Node000019"><a xlink:title=" ">
<path fill="none" stroke="#63b8ff" d="M403.74,-109.84C398.59,-101.69 392.08,-91.4 386.63,-82.78"/>
<polygon fill="#63b8ff" stroke="#63b8ff" points="389.55,-80.85 381.24,-74.27 383.63,-84.59 389.55,-80.85"/>
</a>
</g>
</g>
<!-- Node20 -->
<g id="Node000020" class="node">
<title>Node20</title>
<g id="a_Node000020"><a xlink:title=" ">
<polygon fill="#e0e0e0" stroke="#999999" points="483.7,-74 415.7,-74 415.7,-55 483.7,-55 483.7,-74"/>
<text text-anchor="middle" x="449.7" y="-62" font-family="Helvetica,sans-Serif" font-size="10.00">filesystem</text>
</a>
</g>
</g>
<!-- Node18&#45;&gt;Node20 -->
<g id="edge31_Node000018_Node000020" class="edge">
<title>Node18&#45;&gt;Node20</title>
<g id="a_edge31_Node000018_Node000020"><a xlink:title=" ">
<path fill="none" stroke="#63b8ff" d="M421.65,-109.84C426.81,-101.69 433.32,-91.4 438.77,-82.78"/>
<polygon fill="#63b8ff" stroke="#63b8ff" points="441.77,-84.59 444.15,-74.27 435.85,-80.85 441.77,-84.59"/>
</a>
</g>
</g>
<!-- Node21 -->
<g id="Node000021" class="node">
<title>Node21</title>
<g id="a_Node000021"><a xlink:title=" ">
<polygon fill="#e0e0e0" stroke="#999999" points="269.2,-74 214.2,-74 214.2,-55 269.2,-55 269.2,-74"/>
<text text-anchor="middle" x="241.7" y="-62" font-family="Helvetica,sans-Serif" font-size="10.00">fstream</text>
</a>
</g>
</g>
<!-- Node18&#45;&gt;Node21 -->
<g id="edge32_Node000018_Node000021" class="edge">
<title>Node18&#45;&gt;Node21</title>
<g id="a_edge32_Node000018_Node000021"><a xlink:title=" ">
<path fill="none" stroke="#63b8ff" d="M371.74,-109.99C342.7,-100.05 304.15,-86.86 276.57,-77.43"/>
<polygon fill="#63b8ff" stroke="#63b8ff" points="277.55,-74.06 266.95,-74.14 275.28,-80.69 277.55,-74.06"/>
</a>
</g>
</g>
<!-- Node22 -->
<g id="Node000022" class="node">
<title>Node22</title>
<g id="a_Node000022"><a xlink:title=" ">
<polygon fill="#e0e0e0" stroke="#999999" points="335.7,-74 287.7,-74 287.7,-55 335.7,-55 335.7,-74"/>
<text text-anchor="middle" x="311.7" y="-62" font-family="Helvetica,sans-Serif" font-size="10.00">mutex</text>
</a>
</g>
</g>
<!-- Node18&#45;&gt;Node22 -->
<g id="edge33_Node000018_Node000022" class="edge">
<title>Node18&#45;&gt;Node22</title>
<g id="a_edge33_Node000018_Node000022"><a xlink:title=" ">
<path fill="none" stroke="#63b8ff" d="M388.51,-109.99C372.41,-100.66 351.36,-88.47 335.37,-79.21"/>
<polygon fill="#63b8ff" stroke="#63b8ff" points="337.02,-76.12 326.61,-74.14 333.51,-82.18 337.02,-76.12"/>
</a>
</g>
</g>
<!-- Node23&#45;&gt;Node3 -->
<g id="edge38_Node000023_Node000003" class="edge">
<title>Node23&#45;&gt;Node3</title>
<g id="a_edge38_Node000023_Node000003"><a xlink:title=" ">
<path fill="none" stroke="#63b8ff" d="M196.4,-55.16C321.1,-43.17 545.23,-21.61 628.45,-13.6"/>
<polygon fill="#63b8ff" stroke="#63b8ff" points="628.94,-17.07 638.56,-12.63 628.27,-10.1 628.94,-17.07"/>
</a>
</g>
</g>
<!-- Node23&#45;&gt;Node6 -->
<g id="edge39_Node000023_Node000006" class="edge">
<title>Node23&#45;&gt;Node6</title>
<g id="a_edge39_Node000023_Node000006"><a xlink:title=" ">
<path fill="none" stroke="#63b8ff" d="M196.41,-55.56C199.2,-55.36 201.97,-55.18 204.7,-55 607.73,-29 711.01,-60.93 1112.7,-19 1117.98,-18.45 1123.55,-17.68 1128.98,-16.84"/>
<polygon fill="#63b8ff" stroke="#63b8ff" points="1129.84,-20.24 1139.13,-15.15 1128.69,-13.34 1129.84,-20.24"/>
</a>
</g>
</g>
<!-- Node23&#45;&gt;Node14 -->
<g id="edge37_Node000023_Node000014" class="edge">
<title>Node23&#45;&gt;Node14</title>
<g id="a_edge37_Node000023_Node000014"><a xlink:title=" ">
<path fill="none" stroke="#63b8ff" d="M157.9,-54.98C217.34,-44.48 317.16,-26.85 371.55,-17.24"/>
<polygon fill="#63b8ff" stroke="#63b8ff" points="372.24,-20.67 381.48,-15.49 371.02,-13.78 372.24,-20.67"/>
</a>
</g>
</g>
<!-- Node23&#45;&gt;Node17 -->
<g id="edge40_Node000023_Node000017" class="edge">
<title>Node23&#45;&gt;Node17</title>
<g id="a_edge40_Node000023_Node000017"><a xlink:title=" ">
<path fill="none" stroke="#63b8ff" d="M109.7,-54.75C109.7,-47.8 109.7,-37.85 109.7,-29.13"/>
<polygon fill="#63b8ff" stroke="#63b8ff" points="113.2,-29.09 109.7,-19.09 106.2,-29.09 113.2,-29.09"/>
</a>
</g>
</g>
<!-- Node24&#45;&gt;Node3 -->
<g id="edge44_Node000024_Node000003" class="edge">
<title>Node24&#45;&gt;Node3</title>
<g id="a_edge44_Node000024_Node000003"><a xlink:title=" ">
<path fill="none" stroke="#63b8ff" d="M660.7,-54.75C660.7,-47.8 660.7,-37.85 660.7,-29.13"/>
<polygon fill="#63b8ff" stroke="#63b8ff" points="664.2,-29.09 660.7,-19.09 657.2,-29.09 664.2,-29.09"/>
</a>
</g>
</g>
<!-- Node24&#45;&gt;Node6 -->
<g id="edge45_Node000024_Node000006" class="edge">
<title>Node24&#45;&gt;Node6</title>
<g id="a_edge45_Node000024_Node000006"><a xlink:title=" ">
<path fill="none" stroke="#63b8ff" d="M744.25,-55.6C864.86,-44.14 1077.24,-23.75 1112.7,-19 1117.96,-18.29 1123.52,-17.45 1128.95,-16.57"/>
<polygon fill="#63b8ff" stroke="#63b8ff" points="1129.81,-19.97 1139.1,-14.86 1128.65,-13.07 1129.81,-19.97"/>
</a>
</g>
</g>
<!-- Node24&#45;&gt;Node11 -->
<g id="edge42_Node000024_Node000011" class="edge">
<title>Node24&#45;&gt;Node11</title>
<g id="a_edge42_Node000024_Node000011"><a xlink:title=" ">
<path fill="none" stroke="#63b8ff" d="M742.73,-54.97C817.43,-46.88 930.7,-33.77 1028.7,-19 1031.54,-18.57 1034.48,-18.1 1037.43,-17.61"/>
<polygon fill="#63b8ff" stroke="#63b8ff" points="1038.15,-21.04 1047.41,-15.89 1036.96,-14.14 1038.15,-21.04"/>
</a>
</g>
</g>
<!-- Node24&#45;&gt;Node14 -->
<g id="edge43_Node000024_Node000014" class="edge">
<title>Node24&#45;&gt;Node14</title>
<g id="a_edge43_Node000024_Node000014"><a xlink:title=" ">
<path fill="none" stroke="#63b8ff" d="M620.37,-54.98C572.83,-44.95 494.42,-28.39 447.85,-18.56"/>
<polygon fill="#63b8ff" stroke="#63b8ff" points="448.36,-15.09 437.85,-16.45 446.91,-21.94 448.36,-15.09"/>
</a>
</g>
</g>
<!-- Node24&#45;&gt;Node17 -->
<g id="edge46_Node000024_Node000017" class="edge">
<title>Node24&#45;&gt;Node17</title>
<g id="a_edge46_Node000024_Node000017"><a xlink:title=" ">
<path fill="none" stroke="#63b8ff" d="M577.01,-55.45C471.98,-45.35 293.1,-28.14 189.79,-18.2"/>
<polygon fill="#63b8ff" stroke="#63b8ff" points="190.01,-14.71 179.72,-17.24 189.34,-21.68 190.01,-14.71"/>
</a>
</g>
</g>
</g>
</svg>
