<?xml version="1.0" encoding="UTF-8" standalone="no"?>
<!DOCTYPE svg PUBLIC "-//W3C//DTD SVG 1.1//EN"
 "http://www.w3.org/Graphics/SVG/1.1/DTD/svg11.dtd">
<!-- Generated by graphviz version 2.43.0 (0)
 -->
<!-- Title: SimulateurFerroviaire/Modules/Models/TopologyData.h Pages: 1 -->
<svg width="356pt" height="181pt"
 viewBox="0.00 0.00 356.00 181.00" xmlns="http://www.w3.org/2000/svg" xmlns:xlink="http://www.w3.org/1999/xlink">
<g id="graph0" class="graph" transform="scale(1 1) rotate(0) translate(4 177)">
<title>SimulateurFerroviaire/Modules/Models/TopologyData.h</title>
<!-- Node1 -->
<g id="Node000001" class="node">
<title>Node1</title>
<g id="a_Node000001"><a xlink:title="Conteneur central des données topologiques ferroviaires.">
<polygon fill="#999999" stroke="#666666" points="252.5,-173 74.5,-173 74.5,-143 252.5,-143 252.5,-173"/>
<text text-anchor="start" x="82.5" y="-161" font-family="Helvetica,sans-Serif" font-size="10.00">SimulateurFerroviaire</text>
<text text-anchor="middle" x="163.5" y="-150" font-family="Helvetica,sans-Serif" font-size="10.00">/Modules/Models/TopologyData.h</text>
</a>
</g>
</g>
<!-- Node2 -->
<g id="Node000002" class="node">
<title>Node2</title>
<g id="a_Node000002"><a xlink:href="TopologyRepository_8h.html" target="_top" xlink:title="Singleton de stockage des données topologiques ferroviaires.">
<polygon fill="white" stroke="#666666" points="266.5,-107 60.5,-107 60.5,-77 266.5,-77 266.5,-107"/>
<text text-anchor="start" x="68.5" y="-95" font-family="Helvetica,sans-Serif" font-size="10.00">SimulateurFerroviaire</text>
<text text-anchor="middle" x="163.5" y="-84" font-family="Helvetica,sans-Serif" font-size="10.00">/Modules/Models/TopologyRepository.h</text>
</a>
</g>
</g>
<!-- Node1&#45;&gt;Node2 -->
<g id="edge1_Node000001_Node000002" class="edge">
<title>Node1&#45;&gt;Node2</title>
<g id="a_edge1_Node000001_Node000002"><a xlink:title=" ">
<path fill="none" stroke="#63b8ff" d="M163.5,-132.54C163.5,-123.96 163.5,-114.61 163.5,-107.16"/>
<polygon fill="#63b8ff" stroke="#63b8ff" points="160,-132.8 163.5,-142.8 167,-132.8 160,-132.8"/>
</a>
</g>
</g>
<!-- Node3 -->
<g id="Node000003" class="node">
<title>Node3</title>
<g id="a_Node000003"><a xlink:href="GeoJsonExporter_8cpp.html" target="_top" xlink:title="Implémentation de l&#39;exporteur GeoJSON.">
<polygon fill="white" stroke="#666666" points="145,-41 0,-41 0,0 145,0 145,-41"/>
<text text-anchor="start" x="8" y="-29" font-family="Helvetica,sans-Serif" font-size="10.00">SimulateurFerroviaire</text>
<text text-anchor="start" x="8" y="-18" font-family="Helvetica,sans-Serif" font-size="10.00">/Modules/GeoJsonExporter</text>
<text text-anchor="middle" x="72.5" y="-7" font-family="Helvetica,sans-Serif" font-size="10.00">/GeoJsonExporter.cpp</text>
</a>
</g>
</g>
<!-- Node2&#45;&gt;Node3 -->
<g id="edge2_Node000002_Node000003" class="edge">
<title>Node2&#45;&gt;Node3</title>
<g id="a_edge2_Node000002_Node000003"><a xlink:title=" ">
<path fill="none" stroke="#63b8ff" d="M137.02,-70.77C124.77,-61.42 110.27,-50.35 98.13,-41.07"/>
<polygon fill="#63b8ff" stroke="#63b8ff" points="135.01,-73.65 145.08,-76.94 139.26,-68.08 135.01,-73.65"/>
</a>
</g>
</g>
<!-- Node4 -->
<g id="Node000004" class="node">
<title>Node4</title>
<g id="a_Node000004"><a xlink:href="GeoParser_8cpp.html" target="_top" xlink:title="Implémentation du pipeline GeoParser.">
<polygon fill="white" stroke="#666666" points="348,-35.5 163,-35.5 163,-5.5 348,-5.5 348,-35.5"/>
<text text-anchor="start" x="171" y="-23.5" font-family="Helvetica,sans-Serif" font-size="10.00">SimulateurFerroviaire</text>
<text text-anchor="middle" x="255.5" y="-12.5" font-family="Helvetica,sans-Serif" font-size="10.00">/Modules/GeoParser/GeoParser.cpp</text>
</a>
</g>
</g>
<!-- Node2&#45;&gt;Node4 -->
<g id="edge3_Node000002_Node000004" class="edge">
<title>Node2&#45;&gt;Node4</title>
<g id="a_edge3_Node000002_Node000004"><a xlink:title=" ">
<path fill="none" stroke="#63b8ff" d="M190.47,-70.63C205.4,-59.35 223.57,-45.62 236.91,-35.54"/>
<polygon fill="#63b8ff" stroke="#63b8ff" points="187.99,-68.12 182.12,-76.94 192.21,-73.7 187.99,-68.12"/>
</a>
</g>
</g>
</g>
</svg>
