<?xml version="1.0" encoding="UTF-8" standalone="no"?>
<!DOCTYPE svg PUBLIC "-//W3C//DTD SVG 1.1//EN"
 "http://www.w3.org/Graphics/SVG/1.1/DTD/svg11.dtd">
<!-- Generated by graphviz version 2.43.0 (0)
 -->
<!-- Title: SimulateurFerroviaire/Modules/Models/TopologyData.h Pages: 1 -->
<svg width="342pt" height="148pt"
 viewBox="0.00 0.00 341.50 148.00" xmlns="http://www.w3.org/2000/svg" xmlns:xlink="http://www.w3.org/1999/xlink">
<g id="graph0" class="graph" transform="scale(1 1) rotate(0) translate(4 144)">
<title>SimulateurFerroviaire/Modules/Models/TopologyData.h</title>
<!-- Node1 -->
<g id="Node000001" class="node">
<title>Node1</title>
<g id="a_Node000001"><a xlink:title="Conteneur central des données topologiques ferroviaires.">
<polygon fill="#999999" stroke="#666666" points="184.5,-140 6.5,-140 6.5,-110 184.5,-110 184.5,-140"/>
<text text-anchor="start" x="14.5" y="-128" font-family="Helvetica,sans-Serif" font-size="10.00">SimulateurFerroviaire</text>
<text text-anchor="middle" x="95.5" y="-117" font-family="Helvetica,sans-Serif" font-size="10.00">/Modules/Models/TopologyData.h</text>
</a>
</g>
</g>
<!-- Node2 -->
<g id="Node000002" class="node">
<title>Node2</title>
<g id="a_Node000002"><a xlink:title=" ">
<polygon fill="#e0e0e0" stroke="#999999" points="47,-19 0,-19 0,0 47,0 47,-19"/>
<text text-anchor="middle" x="23.5" y="-7" font-family="Helvetica,sans-Serif" font-size="10.00">vector</text>
</a>
</g>
</g>
<!-- Node1&#45;&gt;Node2 -->
<g id="edge1_Node000001_Node000002" class="edge">
<title>Node1&#45;&gt;Node2</title>
<g id="a_edge1_Node000001_Node000002"><a xlink:title=" ">
<path fill="none" stroke="#63b8ff" d="M74.99,-110C63.28,-101 49.23,-88.33 40.5,-74 32.23,-60.43 27.93,-42.84 25.72,-29.62"/>
<polygon fill="#63b8ff" stroke="#63b8ff" points="29.14,-28.74 24.28,-19.33 22.2,-29.72 29.14,-28.74"/>
</a>
</g>
</g>
<!-- Node3 -->
<g id="Node000003" class="node">
<title>Node3</title>
<g id="a_Node000003"><a xlink:href="StraightBlock_8h.html" target="_top" xlink:title="Modèle de domaine d&#39;un bloc de voie droite (Straight).">
<polygon fill="white" stroke="#666666" points="141,-74 50,-74 50,-55 141,-55 141,-74"/>
<text text-anchor="middle" x="95.5" y="-62" font-family="Helvetica,sans-Serif" font-size="10.00">StraightBlock.h</text>
</a>
</g>
</g>
<!-- Node1&#45;&gt;Node3 -->
<g id="edge2_Node000001_Node000003" class="edge">
<title>Node1&#45;&gt;Node3</title>
<g id="a_edge2_Node000001_Node000003"><a xlink:title=" ">
<path fill="none" stroke="#63b8ff" d="M95.5,-109.84C95.5,-102.21 95.5,-92.7 95.5,-84.45"/>
<polygon fill="#63b8ff" stroke="#63b8ff" points="99,-84.27 95.5,-74.27 92,-84.27 99,-84.27"/>
</a>
</g>
</g>
<!-- Node7 -->
<g id="Node000007" class="node">
<title>Node7</title>
<g id="a_Node000007"><a xlink:href="SwitchBlock_8h.html" target="_top" xlink:title="Modèle de domaine d&#39;un aiguillage ferroviaire à 3 branches (Switch).">
<polygon fill="white" stroke="#666666" points="244,-74 159,-74 159,-55 244,-55 244,-74"/>
<text text-anchor="middle" x="201.5" y="-62" font-family="Helvetica,sans-Serif" font-size="10.00">SwitchBlock.h</text>
</a>
</g>
</g>
<!-- Node1&#45;&gt;Node7 -->
<g id="edge7_Node000001_Node000007" class="edge">
<title>Node1&#45;&gt;Node7</title>
<g id="a_edge7_Node000001_Node000007"><a xlink:title=" ">
<path fill="none" stroke="#63b8ff" d="M120.89,-109.99C137.79,-100.66 159.88,-88.47 176.66,-79.21"/>
<polygon fill="#63b8ff" stroke="#63b8ff" points="178.78,-82.04 185.85,-74.14 175.4,-75.91 178.78,-82.04"/>
</a>
</g>
</g>
<!-- Node3&#45;&gt;Node2 -->
<g id="edge5_Node000003_Node000002" class="edge">
<title>Node3&#45;&gt;Node2</title>
<g id="a_edge5_Node000003_Node000002"><a xlink:title=" ">
<path fill="none" stroke="#63b8ff" d="M83.93,-54.98C73.08,-47 56.62,-34.88 43.62,-25.31"/>
<polygon fill="#63b8ff" stroke="#63b8ff" points="45.41,-22.28 35.28,-19.17 41.26,-27.92 45.41,-22.28"/>
</a>
</g>
</g>
<!-- Node4 -->
<g id="Node000004" class="node">
<title>Node4</title>
<g id="a_Node000004"><a xlink:title=" ">
<polygon fill="#e0e0e0" stroke="#999999" points="121.5,-19 65.5,-19 65.5,0 121.5,0 121.5,-19"/>
<text text-anchor="middle" x="93.5" y="-7" font-family="Helvetica,sans-Serif" font-size="10.00">sstream</text>
</a>
</g>
</g>
<!-- Node3&#45;&gt;Node4 -->
<g id="edge3_Node000003_Node000004" class="edge">
<title>Node3&#45;&gt;Node4</title>
<g id="a_edge3_Node000003_Node000004"><a xlink:title=" ">
<path fill="none" stroke="#63b8ff" d="M95.17,-54.75C94.91,-47.8 94.53,-37.85 94.2,-29.13"/>
<polygon fill="#63b8ff" stroke="#63b8ff" points="97.7,-28.95 93.82,-19.09 90.7,-29.21 97.7,-28.95"/>
</a>
</g>
</g>
<!-- Node5 -->
<g id="Node000005" class="node">
<title>Node5</title>
<g id="a_Node000005"><a xlink:title=" ">
<polygon fill="#e0e0e0" stroke="#999999" points="183.5,-19 139.5,-19 139.5,0 183.5,0 183.5,-19"/>
<text text-anchor="middle" x="161.5" y="-7" font-family="Helvetica,sans-Serif" font-size="10.00">string</text>
</a>
</g>
</g>
<!-- Node3&#45;&gt;Node5 -->
<g id="edge4_Node000003_Node000005" class="edge">
<title>Node3&#45;&gt;Node5</title>
<g id="a_edge4_Node000003_Node000005"><a xlink:title=" ">
<path fill="none" stroke="#63b8ff" d="M106.1,-54.98C115.96,-47.07 130.85,-35.11 142.72,-25.58"/>
<polygon fill="#63b8ff" stroke="#63b8ff" points="145.1,-28.16 150.7,-19.17 140.71,-22.7 145.1,-28.16"/>
</a>
</g>
</g>
<!-- Node6 -->
<g id="Node000006" class="node">
<title>Node6</title>
<g id="a_Node000006"><a xlink:href="LatLon_8h.html" target="_top" xlink:title="Représentation d&#39;une coordonnée géographique WGS&#45;84 (latitude, longitude).">
<polygon fill="white" stroke="#666666" points="259.5,-19 201.5,-19 201.5,0 259.5,0 259.5,-19"/>
<text text-anchor="middle" x="230.5" y="-7" font-family="Helvetica,sans-Serif" font-size="10.00">LatLon.h</text>
</a>
</g>
</g>
<!-- Node3&#45;&gt;Node6 -->
<g id="edge6_Node000003_Node000006" class="edge">
<title>Node3&#45;&gt;Node6</title>
<g id="a_edge6_Node000003_Node000006"><a xlink:title=" ">
<path fill="none" stroke="#63b8ff" d="M117.19,-54.98C139.3,-46.3 173.82,-32.75 198.95,-22.88"/>
<polygon fill="#63b8ff" stroke="#63b8ff" points="200.39,-26.08 208.42,-19.17 197.83,-19.57 200.39,-26.08"/>
</a>
</g>
</g>
<!-- Node7&#45;&gt;Node2 -->
<g id="edge11_Node000007_Node000002" class="edge">
<title>Node7&#45;&gt;Node2</title>
<g id="a_edge11_Node000007_Node000002"><a xlink:title=" ">
<path fill="none" stroke="#63b8ff" d="M172.9,-54.98C141.28,-45.57 90.41,-30.42 56.97,-20.46"/>
<polygon fill="#63b8ff" stroke="#63b8ff" points="57.77,-17.05 47.19,-17.55 55.77,-23.76 57.77,-17.05"/>
</a>
</g>
</g>
<!-- Node7&#45;&gt;Node4 -->
<g id="edge9_Node000007_Node000004" class="edge">
<title>Node7&#45;&gt;Node4</title>
<g id="a_edge9_Node000007_Node000004"><a xlink:title=" ">
<path fill="none" stroke="#63b8ff" d="M184.15,-54.98C166.93,-46.54 140.3,-33.47 120.35,-23.68"/>
<polygon fill="#63b8ff" stroke="#63b8ff" points="121.69,-20.43 111.17,-19.17 118.6,-26.72 121.69,-20.43"/>
</a>
</g>
</g>
<!-- Node7&#45;&gt;Node5 -->
<g id="edge10_Node000007_Node000005" class="edge">
<title>Node7&#45;&gt;Node5</title>
<g id="a_edge10_Node000007_Node000005"><a xlink:title=" ">
<path fill="none" stroke="#63b8ff" d="M194.89,-54.75C189.24,-47.26 180.96,-36.28 174.05,-27.13"/>
<polygon fill="#63b8ff" stroke="#63b8ff" points="176.8,-24.96 167.98,-19.09 171.21,-29.18 176.8,-24.96"/>
</a>
</g>
</g>
<!-- Node7&#45;&gt;Node6 -->
<g id="edge12_Node000007_Node000006" class="edge">
<title>Node7&#45;&gt;Node6</title>
<g id="a_edge12_Node000007_Node000006"><a xlink:title=" ">
<path fill="none" stroke="#63b8ff" d="M206.29,-54.75C210.26,-47.49 216.03,-36.95 220.93,-27.98"/>
<polygon fill="#63b8ff" stroke="#63b8ff" points="224.07,-29.54 225.8,-19.09 217.93,-26.18 224.07,-29.54"/>
</a>
</g>
</g>
<!-- Node8 -->
<g id="Node000008" class="node">
<title>Node8</title>
<g id="a_Node000008"><a xlink:title=" ">
<polygon fill="#e0e0e0" stroke="#999999" points="333.5,-19 277.5,-19 277.5,0 333.5,0 333.5,-19"/>
<text text-anchor="middle" x="305.5" y="-7" font-family="Helvetica,sans-Serif" font-size="10.00">optional</text>
</a>
</g>
</g>
<!-- Node7&#45;&gt;Node8 -->
<g id="edge8_Node000007_Node000008" class="edge">
<title>Node7&#45;&gt;Node8</title>
<g id="a_edge8_Node000007_Node000008"><a xlink:title=" ">
<path fill="none" stroke="#63b8ff" d="M218.21,-54.98C234.71,-46.57 260.2,-33.59 279.38,-23.81"/>
<polygon fill="#63b8ff" stroke="#63b8ff" points="281.17,-26.83 288.49,-19.17 277.99,-20.59 281.17,-26.83"/>
</a>
</g>
</g>
</g>
</svg>
