<?xml version="1.0" encoding="UTF-8" standalone="no"?>
<!DOCTYPE svg PUBLIC "-//W3C//DTD SVG 1.1//EN"
 "http://www.w3.org/Graphics/SVG/1.1/DTD/svg11.dtd">
<!-- Generated by graphviz version 2.43.0 (0)
 -->
<!-- Title: SimulateurFerroviaire/Modules/GeoParser/TopologyExtractor.cpp Pages: 1 -->
<svg width="1839pt" height="335pt"
 viewBox="0.00 0.00 1838.92 335.00" xmlns="http://www.w3.org/2000/svg" xmlns:xlink="http://www.w3.org/1999/xlink">
<g id="graph0" class="graph" transform="scale(1 1) rotate(0) translate(4 331)">
<title>SimulateurFerroviaire/Modules/GeoParser/TopologyExtractor.cpp</title>
<!-- Node1 -->
<g id="Node000001" class="node">
<title>Node1</title>
<g id="a_Node000001"><a xlink:title="Implémentation des phases 3, 4, 5a et 5b du pipeline GeoParser.">
<polygon fill="#999999" stroke="#666666" points="1701.42,-327 1541.42,-327 1541.42,-286 1701.42,-286 1701.42,-327"/>
<text text-anchor="start" x="1549.42" y="-315" font-family="Helvetica,sans-Serif" font-size="10.00">SimulateurFerroviaire</text>
<text text-anchor="start" x="1549.42" y="-304" font-family="Helvetica,sans-Serif" font-size="10.00">/Modules/GeoParser/Topology</text>
<text text-anchor="middle" x="1621.42" y="-293" font-family="Helvetica,sans-Serif" font-size="10.00">Extractor.cpp</text>
</a>
</g>
</g>
<!-- Node2 -->
<g id="Node000002" class="node">
<title>Node2</title>
<g id="a_Node000002"><a xlink:href="TopologyExtractor_8h.html" target="_top" xlink:title="Phases 3, 4, 5a et 5b — extraction de la topologie ferroviaire depuis le graphe.">
<polygon fill="white" stroke="#666666" points="868.92,-250 755.92,-250 755.92,-231 868.92,-231 868.92,-250"/>
<text text-anchor="middle" x="812.42" y="-238" font-family="Helvetica,sans-Serif" font-size="10.00">TopologyExtractor.h</text>
</a>
</g>
</g>
<!-- Node1&#45;&gt;Node2 -->
<g id="edge1_Node000001_Node000002" class="edge">
<title>Node1&#45;&gt;Node2</title>
<g id="a_edge1_Node000001_Node000002"><a xlink:title=" ">
<path fill="none" stroke="#63b8ff" d="M1541.26,-299.16C1381.74,-286.54 1027.17,-258.49 879.25,-246.79"/>
<polygon fill="#63b8ff" stroke="#63b8ff" points="879.2,-243.27 868.96,-245.97 878.65,-250.25 879.2,-243.27"/>
</a>
</g>
</g>
<!-- Node14 -->
<g id="Node000014" class="node">
<title>Node14</title>
<g id="a_Node000014"><a xlink:title=" ">
<polygon fill="#e0e0e0" stroke="#999999" points="1628.92,-19 1581.92,-19 1581.92,0 1628.92,0 1628.92,-19"/>
<text text-anchor="middle" x="1605.42" y="-7" font-family="Helvetica,sans-Serif" font-size="10.00">cmath</text>
</a>
</g>
</g>
<!-- Node1&#45;&gt;Node14 -->
<g id="edge51_Node000001_Node000014" class="edge">
<title>Node1&#45;&gt;Node14</title>
<g id="a_edge51_Node000001_Node000014"><a xlink:title=" ">
<path fill="none" stroke="#63b8ff" d="M1644.22,-285.62C1666.61,-263.78 1697.42,-226.46 1697.42,-186.5 1697.42,-186.5 1697.42,-186.5 1697.42,-124 1697.42,-92.19 1697.57,-80.4 1678.42,-55 1668.01,-41.19 1651.96,-30.74 1637.55,-23.44"/>
<polygon fill="#63b8ff" stroke="#63b8ff" points="1638.94,-20.23 1628.4,-19.1 1635.94,-26.55 1638.94,-20.23"/>
</a>
</g>
</g>
<!-- Node15 -->
<g id="Node000015" class="node">
<title>Node15</title>
<g id="a_Node000015"><a xlink:title=" ">
<polygon fill="#e0e0e0" stroke="#999999" points="874.42,-19 818.42,-19 818.42,0 874.42,0 874.42,-19"/>
<text text-anchor="middle" x="846.42" y="-7" font-family="Helvetica,sans-Serif" font-size="10.00">sstream</text>
</a>
</g>
</g>
<!-- Node1&#45;&gt;Node15 -->
<g id="edge52_Node000001_Node000015" class="edge">
<title>Node1&#45;&gt;Node15</title>
<g id="a_edge52_Node000001_Node000015"><a xlink:title=" ">
<path fill="none" stroke="#63b8ff" d="M1541.16,-305.73C1380.67,-304.02 1035.42,-288.5 1035.42,-186.5 1035.42,-186.5 1035.42,-186.5 1035.42,-124 1035.42,-92.07 1038.27,-77.3 1015.42,-55 1010.65,-50.35 932.98,-31.16 884.61,-19.55"/>
<polygon fill="#63b8ff" stroke="#63b8ff" points="885.31,-16.12 874.77,-17.2 883.69,-22.93 885.31,-16.12"/>
</a>
</g>
</g>
<!-- Node26 -->
<g id="Node000026" class="node">
<title>Node26</title>
<g id="a_Node000026"><a xlink:title=" ">
<polygon fill="#e0e0e0" stroke="#999999" points="1789.42,-250 1725.42,-250 1725.42,-231 1789.42,-231 1789.42,-250"/>
<text text-anchor="middle" x="1757.42" y="-238" font-family="Helvetica,sans-Serif" font-size="10.00">algorithm</text>
</a>
</g>
</g>
<!-- Node1&#45;&gt;Node26 -->
<g id="edge50_Node000001_Node000026" class="edge">
<title>Node1&#45;&gt;Node26</title>
<g id="a_edge50_Node000001_Node000026"><a xlink:title=" ">
<path fill="none" stroke="#63b8ff" d="M1662.96,-285.95C1684.75,-275.7 1710.82,-263.43 1730.05,-254.38"/>
<polygon fill="#63b8ff" stroke="#63b8ff" points="1731.6,-257.52 1739.16,-250.09 1728.62,-251.18 1731.6,-257.52"/>
</a>
</g>
</g>
<!-- Node27 -->
<g id="Node000027" class="node">
<title>Node27</title>
<g id="a_Node000027"><a xlink:href="GeometryUtils_8h.html" target="_top" xlink:title="Utilitaires géométriques métriques pour le pipeline ferroviaire.">
<polygon fill="white" stroke="#666666" points="1669.42,-74 1541.42,-74 1541.42,-55 1669.42,-55 1669.42,-74"/>
<text text-anchor="middle" x="1605.42" y="-62" font-family="Helvetica,sans-Serif" font-size="10.00">./Utils/GeometryUtils.h</text>
</a>
</g>
</g>
<!-- Node1&#45;&gt;Node27 -->
<g id="edge53_Node000001_Node000027" class="edge">
<title>Node1&#45;&gt;Node27</title>
<g id="a_edge53_Node000001_Node000027"><a xlink:title=" ">
<path fill="none" stroke="#63b8ff" d="M1620.11,-285.86C1617.09,-240.55 1609.66,-129.16 1606.68,-84.49"/>
<polygon fill="#63b8ff" stroke="#63b8ff" points="1610.17,-84.17 1606.01,-74.43 1603.18,-84.64 1610.17,-84.17"/>
</a>
</g>
</g>
<!-- Node3 -->
<g id="Node000003" class="node">
<title>Node3</title>
<g id="a_Node000003"><a xlink:title=" ">
<polygon fill="#e0e0e0" stroke="#999999" points="1209.42,-134.5 1177.42,-134.5 1177.42,-115.5 1209.42,-115.5 1209.42,-134.5"/>
<text text-anchor="middle" x="1193.42" y="-122.5" font-family="Helvetica,sans-Serif" font-size="10.00">set</text>
</a>
</g>
</g>
<!-- Node2&#45;&gt;Node3 -->
<g id="edge2_Node000002_Node000003" class="edge">
<title>Node2&#45;&gt;Node3</title>
<g id="a_edge2_Node000002_Node000003"><a xlink:title=" ">
<path fill="none" stroke="#63b8ff" d="M869.22,-239.06C956.74,-237.28 1119.22,-229.31 1164.42,-195 1180.23,-183 1187.49,-160.75 1190.78,-144.76"/>
<polygon fill="#63b8ff" stroke="#63b8ff" points="1194.24,-145.34 1192.48,-134.89 1187.34,-144.15 1194.24,-145.34"/>
</a>
</g>
</g>
<!-- Node4 -->
<g id="Node000004" class="node">
<title>Node4</title>
<g id="a_Node000004"><a xlink:title=" ">
<polygon fill="#e0e0e0" stroke="#999999" points="425.42,-19 381.42,-19 381.42,0 425.42,0 425.42,-19"/>
<text text-anchor="middle" x="403.42" y="-7" font-family="Helvetica,sans-Serif" font-size="10.00">string</text>
</a>
</g>
</g>
<!-- Node2&#45;&gt;Node4 -->
<g id="edge3_Node000002_Node000004" class="edge">
<title>Node2&#45;&gt;Node4</title>
<g id="a_edge3_Node000002_Node000004"><a xlink:title=" ">
<path fill="none" stroke="#63b8ff" d="M755.72,-239.03C651.59,-237.3 423.27,-229.51 234.42,-195 120.41,-174.17 36.42,-185.1 3.42,-74 1.01,-65.91 -2.21,-61.29 3.42,-55 27.82,-27.73 280.13,-15.29 371.01,-11.67"/>
<polygon fill="#63b8ff" stroke="#63b8ff" points="371.41,-15.16 381.27,-11.27 371.14,-8.17 371.41,-15.16"/>
</a>
</g>
</g>
<!-- Node5 -->
<g id="Node000005" class="node">
<title>Node5</title>
<g id="a_Node000005"><a xlink:title=" ">
<polygon fill="#e0e0e0" stroke="#999999" points="113.92,-74 20.92,-74 20.92,-55 113.92,-55 113.92,-74"/>
<text text-anchor="middle" x="67.42" y="-62" font-family="Helvetica,sans-Serif" font-size="10.00">unordered_map</text>
</a>
</g>
</g>
<!-- Node2&#45;&gt;Node5 -->
<g id="edge4_Node000002_Node000005" class="edge">
<title>Node2&#45;&gt;Node5</title>
<g id="a_edge4_Node000002_Node000005"><a xlink:title=" ">
<path fill="none" stroke="#63b8ff" d="M755.62,-239.63C667.92,-238.59 494.89,-231.53 353.42,-195 293.86,-179.62 282.49,-165.27 226.42,-140 179.82,-119 126.06,-93.55 94.51,-78.49"/>
<polygon fill="#63b8ff" stroke="#63b8ff" points="95.99,-75.32 85.46,-74.17 92.97,-81.64 95.99,-75.32"/>
</a>
</g>
</g>
<!-- Node6 -->
<g id="Node000006" class="node">
<title>Node6</title>
<g id="a_Node000006"><a xlink:title=" ">
<polygon fill="#e0e0e0" stroke="#999999" points="215.92,-74 170.92,-74 170.92,-55 215.92,-55 215.92,-74"/>
<text text-anchor="middle" x="193.42" y="-62" font-family="Helvetica,sans-Serif" font-size="10.00">utility</text>
</a>
</g>
</g>
<!-- Node2&#45;&gt;Node6 -->
<g id="edge5_Node000002_Node000006" class="edge">
<title>Node2&#45;&gt;Node6</title>
<g id="a_edge5_Node000002_Node000006"><a xlink:title=" ">
<path fill="none" stroke="#63b8ff" d="M755.64,-239.93C652.61,-238.44 430.52,-224.7 268.42,-140 241.82,-126.1 218.6,-99.57 205.3,-82.21"/>
<polygon fill="#63b8ff" stroke="#63b8ff" points="208.04,-80.03 199.28,-74.08 202.42,-84.2 208.04,-80.03"/>
</a>
</g>
</g>
<!-- Node7 -->
<g id="Node000007" class="node">
<title>Node7</title>
<g id="a_Node000007"><a xlink:title=" ">
<polygon fill="#e0e0e0" stroke="#999999" points="490.92,-19 443.92,-19 443.92,0 490.92,0 490.92,-19"/>
<text text-anchor="middle" x="467.42" y="-7" font-family="Helvetica,sans-Serif" font-size="10.00">vector</text>
</a>
</g>
</g>
<!-- Node2&#45;&gt;Node7 -->
<g id="edge6_Node000002_Node000007" class="edge">
<title>Node2&#45;&gt;Node7</title>
<g id="a_edge6_Node000002_Node000007"><a xlink:title=" ">
<path fill="none" stroke="#63b8ff" d="M755.68,-240.14C659.57,-240.01 459.2,-234.45 295.42,-195 232.43,-179.83 220.04,-165.34 160.42,-140 93.76,-111.67 50.92,-134.71 11.42,-74 -38.72,3.04 318.28,-32.56 433.65,-18.57"/>
<polygon fill="#63b8ff" stroke="#63b8ff" points="434.33,-22.01 443.73,-17.11 433.33,-15.08 434.33,-22.01"/>
</a>
</g>
</g>
<!-- Node8 -->
<g id="Node000008" class="node">
<title>Node8</title>
<g id="a_Node000008"><a xlink:href="GraphBuilder_8h.html" target="_top" xlink:title="Phases 1 et 2 du pipeline — chargement GeoJSON et construction du graphe métrique.">
<polygon fill="white" stroke="#666666" points="1155.92,-195 1066.92,-195 1066.92,-176 1155.92,-176 1155.92,-195"/>
<text text-anchor="middle" x="1111.42" y="-183" font-family="Helvetica,sans-Serif" font-size="10.00">GraphBuilder.h</text>
</a>
</g>
</g>
<!-- Node2&#45;&gt;Node8 -->
<g id="edge7_Node000002_Node000008" class="edge">
<title>Node2&#45;&gt;Node8</title>
<g id="a_edge7_Node000002_Node000008"><a xlink:title=" ">
<path fill="none" stroke="#63b8ff" d="M860.46,-230.98C914.07,-221.48 1000.65,-206.13 1056.8,-196.18"/>
<polygon fill="#63b8ff" stroke="#63b8ff" points="1057.68,-199.58 1066.91,-194.39 1056.46,-192.69 1057.68,-199.58"/>
</a>
</g>
</g>
<!-- Node17 -->
<g id="Node000017" class="node">
<title>Node17</title>
<g id="a_Node000017"><a xlink:href="GeoParserEnums_8h.html" target="_top" xlink:title="Constantes nommées et énumérations du pipeline ferroviaire GeoParser.">
<polygon fill="white" stroke="#666666" points="1830.92,-19 1677.92,-19 1677.92,0 1830.92,0 1830.92,-19"/>
<text text-anchor="middle" x="1754.42" y="-7" font-family="Helvetica,sans-Serif" font-size="10.00">../Enums/GeoParserEnums.h</text>
</a>
</g>
</g>
<!-- Node2&#45;&gt;Node17 -->
<g id="edge48_Node000002_Node000017" class="edge">
<title>Node2&#45;&gt;Node17</title>
<g id="a_edge48_Node000002_Node000017"><a xlink:title=" ">
<path fill="none" stroke="#63b8ff" d="M868.92,-237.07C995.26,-230.55 1309.42,-208.24 1562.42,-140 1641.07,-118.79 1677.24,-133 1733.42,-74 1745.04,-61.79 1750.24,-43.01 1752.55,-29.03"/>
<polygon fill="#63b8ff" stroke="#63b8ff" points="1756.03,-29.44 1753.86,-19.07 1749.09,-28.53 1756.03,-29.44"/>
</a>
</g>
</g>
<!-- Node19 -->
<g id="Node000019" class="node">
<title>Node19</title>
<g id="a_Node000019"><a xlink:href="Logger_8h.html" target="_top" xlink:title="Système de journalisation à 5 niveaux de trace, un fichier par moteur.">
<polygon fill="white" stroke="#666666" points="1338.92,-140 1227.92,-140 1227.92,-110 1338.92,-110 1338.92,-140"/>
<text text-anchor="start" x="1235.92" y="-128" font-family="Helvetica,sans-Serif" font-size="10.00">Engine/Core/Logger</text>
<text text-anchor="middle" x="1283.42" y="-117" font-family="Helvetica,sans-Serif" font-size="10.00">/Logger.h</text>
</a>
</g>
</g>
<!-- Node2&#45;&gt;Node19 -->
<g id="edge49_Node000002_Node000019" class="edge">
<title>Node2&#45;&gt;Node19</title>
<g id="a_edge49_Node000002_Node000019"><a xlink:title=" ">
<path fill="none" stroke="#63b8ff" d="M869.01,-236.2C958.88,-230.39 1129.84,-216.84 1186.42,-195 1214.8,-184.04 1242.62,-162.87 1261.13,-146.86"/>
<polygon fill="#63b8ff" stroke="#63b8ff" points="1263.55,-149.39 1268.71,-140.13 1258.91,-144.15 1263.55,-149.39"/>
</a>
</g>
</g>
<!-- Node24 -->
<g id="Node000024" class="node">
<title>Node24</title>
<g id="a_Node000024"><a xlink:href="StraightBlock_8h.html" target="_top" xlink:title="Modèle de domaine d&#39;un bloc de voie droite (Straight).">
<polygon fill="white" stroke="#666666" points="521.92,-74 348.92,-74 348.92,-55 521.92,-55 521.92,-74"/>
<text text-anchor="middle" x="435.42" y="-62" font-family="Helvetica,sans-Serif" font-size="10.00">Modules/Models/StraightBlock.h</text>
</a>
</g>
</g>
<!-- Node2&#45;&gt;Node24 -->
<g id="edge37_Node000002_Node000024" class="edge">
<title>Node2&#45;&gt;Node24</title>
<g id="a_edge37_Node000002_Node000024"><a xlink:title=" ">
<path fill="none" stroke="#63b8ff" d="M789.01,-230.9C745.36,-214.63 648.85,-177.62 570.42,-140 530.22,-120.72 485.18,-95 458.62,-79.37"/>
<polygon fill="#63b8ff" stroke="#63b8ff" points="460.1,-76.18 449.71,-74.1 456.54,-82.21 460.1,-76.18"/>
</a>
</g>
</g>
<!-- Node25 -->
<g id="Node000025" class="node">
<title>Node25</title>
<g id="a_Node000025"><a xlink:href="SwitchBlock_8h.html" target="_top" xlink:title="Modèle de domaine d&#39;un aiguillage ferroviaire à 3 branches (Switch).">
<polygon fill="white" stroke="#666666" points="895.92,-74 728.92,-74 728.92,-55 895.92,-55 895.92,-74"/>
<text text-anchor="middle" x="812.42" y="-62" font-family="Helvetica,sans-Serif" font-size="10.00">Modules/Models/SwitchBlock.h</text>
</a>
</g>
</g>
<!-- Node2&#45;&gt;Node25 -->
<g id="edge42_Node000002_Node000025" class="edge">
<title>Node2&#45;&gt;Node25</title>
<g id="a_edge42_Node000002_Node000025"><a xlink:title=" ">
<path fill="none" stroke="#63b8ff" d="M812.42,-230.63C812.42,-203.64 812.42,-122.03 812.42,-84.61"/>
<polygon fill="#63b8ff" stroke="#63b8ff" points="815.92,-84.14 812.42,-74.14 808.92,-84.14 815.92,-84.14"/>
</a>
</g>
</g>
<!-- Node8&#45;&gt;Node3 -->
<g id="edge8_Node000008_Node000003" class="edge">
<title>Node8&#45;&gt;Node3</title>
<g id="a_edge8_Node000008_Node000003"><a xlink:title=" ">
<path fill="none" stroke="#63b8ff" d="M1123.52,-175.87C1136.48,-166.62 1157.27,-151.78 1172.82,-140.69"/>
<polygon fill="#63b8ff" stroke="#63b8ff" points="1175.16,-143.32 1181.27,-134.67 1171.09,-137.63 1175.16,-143.32"/>
</a>
</g>
</g>
<!-- Node8&#45;&gt;Node4 -->
<g id="edge9_Node000008_Node000004" class="edge">
<title>Node8&#45;&gt;Node4</title>
<g id="a_edge9_Node000008_Node000004"><a xlink:title=" ">
<path fill="none" stroke="#63b8ff" d="M1066.64,-182.8C886.42,-175.48 220.93,-143.88 161.42,-74 155.94,-67.57 156.01,-61.49 161.42,-55 187.73,-23.4 311.33,-14.16 371.01,-11.52"/>
<polygon fill="#63b8ff" stroke="#63b8ff" points="371.52,-15.01 381.37,-11.1 371.24,-8.01 371.52,-15.01"/>
</a>
</g>
</g>
<!-- Node8&#45;&gt;Node7 -->
<g id="edge10_Node000008_Node000007" class="edge">
<title>Node8&#45;&gt;Node7</title>
<g id="a_edge10_Node000008_Node000007"><a xlink:title=" ">
<path fill="none" stroke="#63b8ff" d="M1066.87,-183.67C973.91,-181.32 752.73,-172.48 570.42,-140 462.35,-120.75 398.86,-161.38 332.42,-74 327.31,-67.28 327.47,-61.84 332.42,-55 338.55,-46.52 395.78,-29.75 433.73,-19.4"/>
<polygon fill="#63b8ff" stroke="#63b8ff" points="435.13,-22.64 443.87,-16.66 433.3,-15.89 435.13,-22.64"/>
</a>
</g>
</g>
<!-- Node9 -->
<g id="Node000009" class="node">
<title>Node9</title>
<g id="a_Node000009"><a xlink:href="TopologyGraph_8h.html" target="_top" xlink:title="Graphe planaire non&#45;orienté de nœuds et d&#39;arêtes ferroviaires accrochés.">
<polygon fill="white" stroke="#666666" points="716.92,-134.5 579.92,-134.5 579.92,-115.5 716.92,-115.5 716.92,-134.5"/>
<text text-anchor="middle" x="648.42" y="-122.5" font-family="Helvetica,sans-Serif" font-size="10.00">./Graph/TopologyGraph.h</text>
</a>
</g>
</g>
<!-- Node8&#45;&gt;Node9 -->
<g id="edge11_Node000008_Node000009" class="edge">
<title>Node8&#45;&gt;Node9</title>
<g id="a_edge11_Node000008_Node000009"><a xlink:title=" ">
<path fill="none" stroke="#63b8ff" d="M1066.6,-178.84C987.8,-168.88 823.56,-148.13 726,-135.8"/>
<polygon fill="#63b8ff" stroke="#63b8ff" points="726.26,-132.31 715.9,-134.53 725.38,-139.25 726.26,-132.31"/>
</a>
</g>
</g>
<!-- Node16 -->
<g id="Node000016" class="node">
<title>Node16</title>
<g id="a_Node000016"><a xlink:href="CoordinateXY_8h.html" target="_top" xlink:title="Représentation d&#39;une coordonnée plane en mètres (système métrique UTM).">
<polygon fill="white" stroke="#666666" points="1301.42,-19 1129.42,-19 1129.42,0 1301.42,0 1301.42,-19"/>
<text text-anchor="middle" x="1215.42" y="-7" font-family="Helvetica,sans-Serif" font-size="10.00">Modules/Models/CoordinateXY.h</text>
</a>
</g>
</g>
<!-- Node8&#45;&gt;Node16 -->
<g id="edge29_Node000008_Node000016" class="edge">
<title>Node8&#45;&gt;Node16</title>
<g id="a_edge29_Node000008_Node000016"><a xlink:title=" ">
<path fill="none" stroke="#63b8ff" d="M1116.72,-175.63C1133.06,-148.29 1182.9,-64.9 1204.85,-28.18"/>
<polygon fill="#63b8ff" stroke="#63b8ff" points="1208.12,-29.52 1210.25,-19.14 1202.12,-25.93 1208.12,-29.52"/>
</a>
</g>
</g>
<!-- Node8&#45;&gt;Node17 -->
<g id="edge27_Node000008_Node000017" class="edge">
<title>Node8&#45;&gt;Node17</title>
<g id="a_edge27_Node000008_Node000017"><a xlink:title=" ">
<path fill="none" stroke="#63b8ff" d="M1156.29,-180.52C1278.74,-168.99 1615.63,-132.62 1708.42,-74 1725.81,-63.01 1738.7,-42.87 1746.34,-28.21"/>
<polygon fill="#63b8ff" stroke="#63b8ff" points="1749.54,-29.63 1750.78,-19.11 1743.25,-26.56 1749.54,-29.63"/>
</a>
</g>
</g>
<!-- Node18 -->
<g id="Node000018" class="node">
<title>Node18</title>
<g id="a_Node000018"><a xlink:href="LatLon_8h.html" target="_top" xlink:title="Représentation d&#39;une coordonnée géographique WGS&#45;84 (latitude, longitude).">
<polygon fill="white" stroke="#666666" points="1032.42,-19 892.42,-19 892.42,0 1032.42,0 1032.42,-19"/>
<text text-anchor="middle" x="962.42" y="-7" font-family="Helvetica,sans-Serif" font-size="10.00">Modules/Models/LatLon.h</text>
</a>
</g>
</g>
<!-- Node8&#45;&gt;Node18 -->
<g id="edge28_Node000008_Node000018" class="edge">
<title>Node8&#45;&gt;Node18</title>
<g id="a_edge28_Node000008_Node000018"><a xlink:title=" ">
<path fill="none" stroke="#63b8ff" d="M1109.35,-175.82C1103.56,-153.22 1085.25,-91.78 1049.42,-55 1035.56,-40.78 1016.19,-30.26 999.25,-23.03"/>
<polygon fill="#63b8ff" stroke="#63b8ff" points="1000.19,-19.64 989.61,-19.15 997.58,-26.13 1000.19,-19.64"/>
</a>
</g>
</g>
<!-- Node8&#45;&gt;Node19 -->
<g id="edge30_Node000008_Node000019" class="edge">
<title>Node8&#45;&gt;Node19</title>
<g id="a_edge30_Node000008_Node000019"><a xlink:title=" ">
<path fill="none" stroke="#63b8ff" d="M1136.43,-175.99C1161.5,-167.46 1200.84,-154.09 1232.51,-143.32"/>
<polygon fill="#63b8ff" stroke="#63b8ff" points="1233.73,-146.6 1242.07,-140.06 1231.47,-139.97 1233.73,-146.6"/>
</a>
</g>
</g>
<!-- Node9&#45;&gt;Node4 -->
<g id="edge15_Node000009_Node000004" class="edge">
<title>Node9&#45;&gt;Node4</title>
<g id="a_edge15_Node000009_Node000004"><a xlink:title=" ">
<path fill="none" stroke="#63b8ff" d="M579.78,-123.15C496.58,-120.49 363.58,-110.48 332.42,-74 315.58,-54.29 345.98,-34.91 372.08,-22.85"/>
<polygon fill="#63b8ff" stroke="#63b8ff" points="373.67,-25.97 381.41,-18.74 370.85,-19.57 373.67,-25.97"/>
</a>
</g>
</g>
<!-- Node9&#45;&gt;Node5 -->
<g id="edge16_Node000009_Node000005" class="edge">
<title>Node9&#45;&gt;Node5</title>
<g id="a_edge16_Node000009_Node000005"><a xlink:title=" ">
<path fill="none" stroke="#63b8ff" d="M579.77,-117.09C463.85,-105.42 231.46,-82.02 124.13,-71.21"/>
<polygon fill="#63b8ff" stroke="#63b8ff" points="124.45,-67.72 114.15,-70.21 123.75,-74.69 124.45,-67.72"/>
</a>
</g>
</g>
<!-- Node9&#45;&gt;Node6 -->
<g id="edge17_Node000009_Node000006" class="edge">
<title>Node9&#45;&gt;Node6</title>
<g id="a_edge17_Node000009_Node000006"><a xlink:title=" ">
<path fill="none" stroke="#63b8ff" d="M579.67,-118.05C496.56,-110.33 352.64,-95.29 230.42,-74 228.96,-73.75 227.47,-73.47 225.96,-73.18"/>
<polygon fill="#63b8ff" stroke="#63b8ff" points="226.54,-69.72 216.04,-71.1 225.11,-76.58 226.54,-69.72"/>
</a>
</g>
</g>
<!-- Node9&#45;&gt;Node7 -->
<g id="edge18_Node000009_Node000007" class="edge">
<title>Node9&#45;&gt;Node7</title>
<g id="a_edge18_Node000009_Node000007"><a xlink:title=" ">
<path fill="none" stroke="#63b8ff" d="M579.87,-122.87C498.41,-119.9 369.67,-109.54 339.42,-74 333.94,-67.57 334.52,-61.88 339.42,-55 345.12,-46.98 398.02,-30.44 434,-19.94"/>
<polygon fill="#63b8ff" stroke="#63b8ff" points="435.02,-23.29 443.65,-17.15 433.07,-16.57 435.02,-23.29"/>
</a>
</g>
</g>
<!-- Node10 -->
<g id="Node000010" class="node">
<title>Node10</title>
<g id="a_Node000010"><a xlink:title=" ">
<polygon fill="#e0e0e0" stroke="#999999" points="673.42,-74 623.42,-74 623.42,-55 673.42,-55 673.42,-74"/>
<text text-anchor="middle" x="648.42" y="-62" font-family="Helvetica,sans-Serif" font-size="10.00">cstdint</text>
</a>
</g>
</g>
<!-- Node9&#45;&gt;Node10 -->
<g id="edge12_Node000009_Node000010" class="edge">
<title>Node9&#45;&gt;Node10</title>
<g id="a_edge12_Node000009_Node000010"><a xlink:title=" ">
<path fill="none" stroke="#63b8ff" d="M648.42,-115.37C648.42,-107.25 648.42,-94.81 648.42,-84.39"/>
<polygon fill="#63b8ff" stroke="#63b8ff" points="651.92,-84.17 648.42,-74.17 644.92,-84.17 651.92,-84.17"/>
</a>
</g>
</g>
<!-- Node11 -->
<g id="Node000011" class="node">
<title>Node11</title>
<g id="a_Node000011"><a xlink:title=" ">
<polygon fill="#e0e0e0" stroke="#999999" points="604.92,-74 539.92,-74 539.92,-55 604.92,-55 604.92,-74"/>
<text text-anchor="middle" x="572.42" y="-62" font-family="Helvetica,sans-Serif" font-size="10.00">functional</text>
</a>
</g>
</g>
<!-- Node9&#45;&gt;Node11 -->
<g id="edge13_Node000009_Node000011" class="edge">
<title>Node9&#45;&gt;Node11</title>
<g id="a_edge13_Node000009_Node000011"><a xlink:title=" ">
<path fill="none" stroke="#63b8ff" d="M637.2,-115.37C625.3,-106.21 606.27,-91.56 591.91,-80.51"/>
<polygon fill="#63b8ff" stroke="#63b8ff" points="593.74,-77.49 583.68,-74.17 589.47,-83.04 593.74,-77.49"/>
</a>
</g>
</g>
<!-- Node12 -->
<g id="Node000012" class="node">
<title>Node12</title>
<g id="a_Node000012"><a xlink:title=" ">
<polygon fill="#e0e0e0" stroke="#999999" points="1106.42,-19 1050.42,-19 1050.42,0 1106.42,0 1106.42,-19"/>
<text text-anchor="middle" x="1078.42" y="-7" font-family="Helvetica,sans-Serif" font-size="10.00">optional</text>
</a>
</g>
</g>
<!-- Node9&#45;&gt;Node12 -->
<g id="edge14_Node000009_Node000012" class="edge">
<title>Node9&#45;&gt;Node12</title>
<g id="a_edge14_Node000009_Node000012"><a xlink:title=" ">
<path fill="none" stroke="#63b8ff" d="M717.14,-119.91C808.54,-113.57 964.48,-99.39 1015.42,-74 1036.83,-63.33 1055.28,-42.51 1066.58,-27.62"/>
<polygon fill="#63b8ff" stroke="#63b8ff" points="1069.61,-29.4 1072.66,-19.26 1063.95,-25.29 1069.61,-29.4"/>
</a>
</g>
</g>
<!-- Node13 -->
<g id="Node000013" class="node">
<title>Node13</title>
<g id="a_Node000013"><a xlink:href="TopologyEdge_8h.html" target="_top" xlink:title="Arête non&#45;orientée du graphe planaire de topologie ferroviaire.">
<polygon fill="white" stroke="#666666" points="1006.92,-74 913.92,-74 913.92,-55 1006.92,-55 1006.92,-74"/>
<text text-anchor="middle" x="960.42" y="-62" font-family="Helvetica,sans-Serif" font-size="10.00">TopologyEdge.h</text>
</a>
</g>
</g>
<!-- Node9&#45;&gt;Node13 -->
<g id="edge19_Node000009_Node000013" class="edge">
<title>Node9&#45;&gt;Node13</title>
<g id="a_edge19_Node000009_Node000013"><a xlink:title=" ">
<path fill="none" stroke="#63b8ff" d="M693.78,-115.49C749.7,-105.01 844.69,-87.2 904.91,-75.91"/>
<polygon fill="#63b8ff" stroke="#63b8ff" points="905.81,-79.3 914.99,-74.02 904.52,-72.42 905.81,-79.3"/>
</a>
</g>
</g>
<!-- Node9&#45;&gt;Node16 -->
<g id="edge25_Node000009_Node000016" class="edge">
<title>Node9&#45;&gt;Node16</title>
<g id="a_edge25_Node000009_Node000016"><a xlink:title=" ">
<path fill="none" stroke="#63b8ff" d="M717.25,-119.98C796.56,-114.27 930.37,-101.3 1042.42,-74 1094.9,-61.21 1153.4,-37.67 1187.16,-23.12"/>
<polygon fill="#63b8ff" stroke="#63b8ff" points="1188.63,-26.3 1196.4,-19.1 1185.84,-19.88 1188.63,-26.3"/>
</a>
</g>
</g>
<!-- Node9&#45;&gt;Node17 -->
<g id="edge26_Node000009_Node000017" class="edge">
<title>Node9&#45;&gt;Node17</title>
<g id="a_edge26_Node000009_Node000017"><a xlink:title=" ">
<path fill="none" stroke="#63b8ff" d="M716.93,-121.87C939.99,-114.79 1633.68,-91.47 1678.42,-74 1703.82,-64.08 1726.92,-42.07 1740.82,-26.77"/>
<polygon fill="#63b8ff" stroke="#63b8ff" points="1743.6,-28.9 1747.55,-19.07 1738.33,-24.29 1743.6,-28.9"/>
</a>
</g>
</g>
<!-- Node13&#45;&gt;Node4 -->
<g id="edge22_Node000013_Node000004" class="edge">
<title>Node13&#45;&gt;Node4</title>
<g id="a_edge22_Node000013_Node000004"><a xlink:title=" ">
<path fill="none" stroke="#63b8ff" d="M913.7,-56.14C910.56,-55.73 907.45,-55.35 904.42,-55 699.52,-31.63 642.59,-54.14 435.62,-18.87"/>
<polygon fill="#63b8ff" stroke="#63b8ff" points="436.1,-15.4 425.65,-17.14 434.91,-22.3 436.1,-15.4"/>
</a>
</g>
</g>
<!-- Node13&#45;&gt;Node7 -->
<g id="edge23_Node000013_Node000007" class="edge">
<title>Node13&#45;&gt;Node7</title>
<g id="a_edge23_Node000013_Node000007"><a xlink:title=" ">
<path fill="none" stroke="#63b8ff" d="M913.69,-56.23C910.55,-55.8 907.44,-55.38 904.42,-55 754.43,-35.99 574.67,-19.74 501.2,-13.37"/>
<polygon fill="#63b8ff" stroke="#63b8ff" points="501.41,-9.88 491.15,-12.5 500.81,-16.85 501.41,-9.88"/>
</a>
</g>
</g>
<!-- Node13&#45;&gt;Node14 -->
<g id="edge20_Node000013_Node000014" class="edge">
<title>Node13&#45;&gt;Node14</title>
<g id="a_edge20_Node000013_Node000014"><a xlink:title=" ">
<path fill="none" stroke="#63b8ff" d="M1007.06,-59.67C1130.58,-49.52 1464.01,-22.12 1571.51,-13.29"/>
<polygon fill="#63b8ff" stroke="#63b8ff" points="1572.09,-16.75 1581.77,-12.44 1571.52,-9.77 1572.09,-16.75"/>
</a>
</g>
</g>
<!-- Node13&#45;&gt;Node15 -->
<g id="edge21_Node000013_Node000015" class="edge">
<title>Node13&#45;&gt;Node15</title>
<g id="a_edge21_Node000013_Node000015"><a xlink:title=" ">
<path fill="none" stroke="#63b8ff" d="M942.1,-54.98C923.76,-46.46 895.31,-33.23 874.19,-23.41"/>
<polygon fill="#63b8ff" stroke="#63b8ff" points="875.61,-20.21 865.07,-19.17 872.66,-26.56 875.61,-20.21"/>
</a>
</g>
</g>
<!-- Node13&#45;&gt;Node16 -->
<g id="edge24_Node000013_Node000016" class="edge">
<title>Node13&#45;&gt;Node16</title>
<g id="a_edge24_Node000013_Node000016"><a xlink:title=" ">
<path fill="none" stroke="#63b8ff" d="M1001.39,-54.98C1045.68,-45.78 1116.36,-31.09 1164.27,-21.13"/>
<polygon fill="#63b8ff" stroke="#63b8ff" points="1165.05,-24.54 1174.13,-19.08 1163.62,-17.69 1165.05,-24.54"/>
</a>
</g>
</g>
<!-- Node19&#45;&gt;Node4 -->
<g id="edge36_Node000019_Node000004" class="edge">
<title>Node19&#45;&gt;Node4</title>
<g id="a_edge36_Node000019_Node000004"><a xlink:title=" ">
<path fill="none" stroke="#63b8ff" d="M1227.84,-111.49C1224.66,-110.95 1221.5,-110.44 1218.42,-110 998.3,-78.51 933.52,-134 719.42,-74 701.62,-69.01 700.03,-60.63 682.42,-55 579.33,-22.06 545.36,-40.64 435.49,-18.96"/>
<polygon fill="#63b8ff" stroke="#63b8ff" points="436.19,-15.53 425.69,-16.96 434.79,-22.39 436.19,-15.53"/>
</a>
</g>
</g>
<!-- Node19&#45;&gt;Node15 -->
<g id="edge35_Node000019_Node000015" class="edge">
<title>Node19&#45;&gt;Node15</title>
<g id="a_edge35_Node000019_Node000015"><a xlink:title=" ">
<path fill="none" stroke="#63b8ff" d="M1239.26,-109.93C1192.41,-95.25 1116.1,-72.04 1049.42,-55 979.27,-37.08 958.76,-35.55 884.52,-19.21"/>
<polygon fill="#63b8ff" stroke="#63b8ff" points="885.21,-15.78 874.69,-17.03 883.7,-22.62 885.21,-15.78"/>
</a>
</g>
</g>
<!-- Node20 -->
<g id="Node000020" class="node">
<title>Node20</title>
<g id="a_Node000020"><a xlink:title=" ">
<polygon fill="#e0e0e0" stroke="#999999" points="1297.42,-74 1253.42,-74 1253.42,-55 1297.42,-55 1297.42,-74"/>
<text text-anchor="middle" x="1275.42" y="-62" font-family="Helvetica,sans-Serif" font-size="10.00">ctime</text>
</a>
</g>
</g>
<!-- Node19&#45;&gt;Node20 -->
<g id="edge31_Node000019_Node000020" class="edge">
<title>Node19&#45;&gt;Node20</title>
<g id="a_edge31_Node000019_Node000020"><a xlink:title=" ">
<path fill="none" stroke="#63b8ff" d="M1281.48,-109.84C1280.44,-102.21 1279.14,-92.7 1278.01,-84.45"/>
<polygon fill="#63b8ff" stroke="#63b8ff" points="1281.44,-83.7 1276.62,-74.27 1274.5,-84.65 1281.44,-83.7"/>
</a>
</g>
</g>
<!-- Node21 -->
<g id="Node000021" class="node">
<title>Node21</title>
<g id="a_Node000021"><a xlink:title=" ">
<polygon fill="#e0e0e0" stroke="#999999" points="1383.42,-74 1315.42,-74 1315.42,-55 1383.42,-55 1383.42,-74"/>
<text text-anchor="middle" x="1349.42" y="-62" font-family="Helvetica,sans-Serif" font-size="10.00">filesystem</text>
</a>
</g>
</g>
<!-- Node19&#45;&gt;Node21 -->
<g id="edge32_Node000019_Node000021" class="edge">
<title>Node19&#45;&gt;Node21</title>
<g id="a_edge32_Node000019_Node000021"><a xlink:title=" ">
<path fill="none" stroke="#63b8ff" d="M1299.39,-109.84C1309.17,-101.17 1321.69,-90.08 1331.76,-81.15"/>
<polygon fill="#63b8ff" stroke="#63b8ff" points="1334.37,-83.52 1339.53,-74.27 1329.72,-78.28 1334.37,-83.52"/>
</a>
</g>
</g>
<!-- Node22 -->
<g id="Node000022" class="node">
<title>Node22</title>
<g id="a_Node000022"><a xlink:title=" ">
<polygon fill="#e0e0e0" stroke="#999999" points="1456.92,-74 1401.92,-74 1401.92,-55 1456.92,-55 1456.92,-74"/>
<text text-anchor="middle" x="1429.42" y="-62" font-family="Helvetica,sans-Serif" font-size="10.00">fstream</text>
</a>
</g>
</g>
<!-- Node19&#45;&gt;Node22 -->
<g id="edge33_Node000019_Node000022" class="edge">
<title>Node19&#45;&gt;Node22</title>
<g id="a_edge33_Node000019_Node000022"><a xlink:title=" ">
<path fill="none" stroke="#63b8ff" d="M1318.39,-109.99C1342.75,-100.23 1374.94,-87.33 1398.39,-77.93"/>
<polygon fill="#63b8ff" stroke="#63b8ff" points="1399.87,-81.11 1407.86,-74.14 1397.27,-74.61 1399.87,-81.11"/>
</a>
</g>
</g>
<!-- Node23 -->
<g id="Node000023" class="node">
<title>Node23</title>
<g id="a_Node000023"><a xlink:title=" ">
<polygon fill="#e0e0e0" stroke="#999999" points="1523.42,-74 1475.42,-74 1475.42,-55 1523.42,-55 1523.42,-74"/>
<text text-anchor="middle" x="1499.42" y="-62" font-family="Helvetica,sans-Serif" font-size="10.00">mutex</text>
</a>
</g>
</g>
<!-- Node19&#45;&gt;Node23 -->
<g id="edge34_Node000019_Node000023" class="edge">
<title>Node19&#45;&gt;Node23</title>
<g id="a_edge34_Node000019_Node000023"><a xlink:title=" ">
<path fill="none" stroke="#63b8ff" d="M1335.15,-109.99C1375.59,-99.04 1430.64,-84.13 1465.6,-74.66"/>
<polygon fill="#63b8ff" stroke="#63b8ff" points="1466.6,-78.01 1475.34,-72.02 1464.77,-71.26 1466.6,-78.01"/>
</a>
</g>
</g>
<!-- Node24&#45;&gt;Node4 -->
<g id="edge39_Node000024_Node000004" class="edge">
<title>Node24&#45;&gt;Node4</title>
<g id="a_edge39_Node000024_Node000004"><a xlink:title=" ">
<path fill="none" stroke="#63b8ff" d="M430.13,-54.75C425.71,-47.42 419.25,-36.73 413.8,-27.7"/>
<polygon fill="#63b8ff" stroke="#63b8ff" points="416.77,-25.84 408.6,-19.09 410.78,-29.46 416.77,-25.84"/>
</a>
</g>
</g>
<!-- Node24&#45;&gt;Node7 -->
<g id="edge40_Node000024_Node000007" class="edge">
<title>Node24&#45;&gt;Node7</title>
<g id="a_edge40_Node000024_Node000007"><a xlink:title=" ">
<path fill="none" stroke="#63b8ff" d="M440.7,-54.75C445.13,-47.42 451.58,-36.73 457.03,-27.7"/>
<polygon fill="#63b8ff" stroke="#63b8ff" points="460.06,-29.46 462.23,-19.09 454.07,-25.84 460.06,-29.46"/>
</a>
</g>
</g>
<!-- Node24&#45;&gt;Node15 -->
<g id="edge38_Node000024_Node000015" class="edge">
<title>Node24&#45;&gt;Node15</title>
<g id="a_edge38_Node000024_Node000015"><a xlink:title=" ">
<path fill="none" stroke="#63b8ff" d="M501.45,-54.98C588.22,-43.8 737.79,-24.51 807.96,-15.46"/>
<polygon fill="#63b8ff" stroke="#63b8ff" points="808.65,-18.9 818.12,-14.15 807.76,-11.96 808.65,-18.9"/>
</a>
</g>
</g>
<!-- Node24&#45;&gt;Node18 -->
<g id="edge41_Node000024_Node000018" class="edge">
<title>Node24&#45;&gt;Node18</title>
<g id="a_edge41_Node000024_Node000018"><a xlink:title=" ">
<path fill="none" stroke="#63b8ff" d="M522.16,-55.1C610.13,-46.52 750.51,-32.71 881.95,-19.14"/>
<polygon fill="#63b8ff" stroke="#63b8ff" points="882.62,-22.59 892.21,-18.08 881.9,-15.63 882.62,-22.59"/>
</a>
</g>
</g>
<!-- Node25&#45;&gt;Node4 -->
<g id="edge45_Node000025_Node000004" class="edge">
<title>Node25&#45;&gt;Node4</title>
<g id="a_edge45_Node000025_Node000004"><a xlink:title=" ">
<path fill="none" stroke="#63b8ff" d="M728.86,-55.15C639.68,-45.98 503.12,-31.17 435.52,-18.9"/>
<polygon fill="#63b8ff" stroke="#63b8ff" points="436.15,-15.46 425.67,-17.03 434.85,-22.33 436.15,-15.46"/>
</a>
</g>
</g>
<!-- Node25&#45;&gt;Node7 -->
<g id="edge46_Node000025_Node000007" class="edge">
<title>Node25&#45;&gt;Node7</title>
<g id="a_edge46_Node000025_Node000007"><a xlink:title=" ">
<path fill="none" stroke="#63b8ff" d="M756.99,-54.98C684.75,-43.89 560.66,-24.82 501.16,-15.68"/>
<polygon fill="#63b8ff" stroke="#63b8ff" points="501.58,-12.21 491.17,-14.15 500.52,-19.13 501.58,-12.21"/>
</a>
</g>
</g>
<!-- Node25&#45;&gt;Node12 -->
<g id="edge43_Node000025_Node000012" class="edge">
<title>Node25&#45;&gt;Node12</title>
<g id="a_edge43_Node000025_Node000012"><a xlink:title=" ">
<path fill="none" stroke="#63b8ff" d="M859,-54.93C903.17,-46.69 971.63,-33.65 1040.06,-19.23"/>
<polygon fill="#63b8ff" stroke="#63b8ff" points="1041.1,-22.59 1050.16,-17.1 1039.65,-15.74 1041.1,-22.59"/>
</a>
</g>
</g>
<!-- Node25&#45;&gt;Node15 -->
<g id="edge44_Node000025_Node000015" class="edge">
<title>Node25&#45;&gt;Node15</title>
<g id="a_edge44_Node000025_Node000015"><a xlink:title=" ">
<path fill="none" stroke="#63b8ff" d="M818.03,-54.75C822.73,-47.42 829.59,-36.73 835.39,-27.7"/>
<polygon fill="#63b8ff" stroke="#63b8ff" points="838.45,-29.4 840.91,-19.09 832.56,-25.62 838.45,-29.4"/>
</a>
</g>
</g>
<!-- Node25&#45;&gt;Node18 -->
<g id="edge47_Node000025_Node000018" class="edge">
<title>Node25&#45;&gt;Node18</title>
<g id="a_edge47_Node000025_Node000018"><a xlink:title=" ">
<path fill="none" stroke="#63b8ff" d="M836.52,-54.98C861.3,-46.23 900.12,-32.51 928.1,-22.62"/>
<polygon fill="#63b8ff" stroke="#63b8ff" points="929.62,-25.8 937.88,-19.17 927.28,-19.2 929.62,-25.8"/>
</a>
</g>
</g>
<!-- Node27&#45;&gt;Node7 -->
<g id="edge56_Node000027_Node000007" class="edge">
<title>Node27&#45;&gt;Node7</title>
<g id="a_edge56_Node000027_Node000007"><a xlink:title=" ">
<path fill="none" stroke="#63b8ff" d="M1541.35,-55.77C1538.33,-55.49 1535.34,-55.23 1532.42,-55 1324.8,-38.6 659,-16.64 501.19,-11.57"/>
<polygon fill="#63b8ff" stroke="#63b8ff" points="501.24,-8.07 491.13,-11.25 501.01,-15.07 501.24,-8.07"/>
</a>
</g>
</g>
<!-- Node27&#45;&gt;Node12 -->
<g id="edge55_Node000027_Node000012" class="edge">
<title>Node27&#45;&gt;Node12</title>
<g id="a_edge55_Node000027_Node000012"><a xlink:title=" ">
<path fill="none" stroke="#63b8ff" d="M1541.33,-55.93C1538.32,-55.61 1535.34,-55.3 1532.42,-55 1349.55,-36.37 1302.34,-45.27 1120.42,-19 1119.31,-18.84 1118.19,-18.67 1117.06,-18.49"/>
<polygon fill="#63b8ff" stroke="#63b8ff" points="1117.26,-14.97 1106.81,-16.7 1116.05,-21.87 1117.26,-14.97"/>
</a>
</g>
</g>
<!-- Node27&#45;&gt;Node14 -->
<g id="edge54_Node000027_Node000014" class="edge">
<title>Node27&#45;&gt;Node14</title>
<g id="a_edge54_Node000027_Node000014"><a xlink:title=" ">
<path fill="none" stroke="#63b8ff" d="M1605.42,-54.75C1605.42,-47.8 1605.42,-37.85 1605.42,-29.13"/>
<polygon fill="#63b8ff" stroke="#63b8ff" points="1608.92,-29.09 1605.42,-19.09 1601.92,-29.09 1608.92,-29.09"/>
</a>
</g>
</g>
<!-- Node27&#45;&gt;Node16 -->
<g id="edge58_Node000027_Node000016" class="edge">
<title>Node27&#45;&gt;Node16</title>
<g id="a_edge58_Node000027_Node000016"><a xlink:title=" ">
<path fill="none" stroke="#63b8ff" d="M1542.76,-54.98C1473.35,-45.55 1361.59,-30.36 1288.32,-20.41"/>
<polygon fill="#63b8ff" stroke="#63b8ff" points="1288.62,-16.92 1278.24,-19.04 1287.68,-23.85 1288.62,-16.92"/>
</a>
</g>
</g>
<!-- Node27&#45;&gt;Node17 -->
<g id="edge59_Node000027_Node000017" class="edge">
<title>Node27&#45;&gt;Node17</title>
<g id="a_edge59_Node000027_Node000017"><a xlink:title=" ">
<path fill="none" stroke="#63b8ff" d="M1629.36,-54.98C1653.97,-46.23 1692.54,-32.51 1720.33,-22.62"/>
<polygon fill="#63b8ff" stroke="#63b8ff" points="1721.79,-25.82 1730.04,-19.17 1719.45,-19.22 1721.79,-25.82"/>
</a>
</g>
</g>
<!-- Node27&#45;&gt;Node18 -->
<g id="edge57_Node000027_Node000018" class="edge">
<title>Node27&#45;&gt;Node18</title>
<g id="a_edge57_Node000027_Node000018"><a xlink:title=" ">
<path fill="none" stroke="#63b8ff" d="M1541.34,-55.88C1538.32,-55.57 1535.34,-55.28 1532.42,-55 1317.88,-34.65 1261.05,-38.58 1042.79,-19.09"/>
<polygon fill="#63b8ff" stroke="#63b8ff" points="1042.89,-15.59 1032.62,-18.18 1042.26,-22.56 1042.89,-15.59"/>
</a>
</g>
</g>
</g>
</svg>
