<?xml version="1.0" encoding="UTF-8" standalone="no"?>
<!DOCTYPE svg PUBLIC "-//W3C//DTD SVG 1.1//EN"
 "http://www.w3.org/Graphics/SVG/1.1/DTD/svg11.dtd">
<!-- Generated by graphviz version 2.43.0 (0)
 -->
<!-- Title: SimulateurFerroviaire/Engine/HMI/WebViewPanel/WebViewPanel.cpp Pages: 1 -->
<svg width="593pt" height="225pt"
 viewBox="0.00 0.00 593.00 225.00" xmlns="http://www.w3.org/2000/svg" xmlns:xlink="http://www.w3.org/1999/xlink">
<g id="graph0" class="graph" transform="scale(1 1) rotate(0) translate(4 221)">
<title>SimulateurFerroviaire/Engine/HMI/WebViewPanel/WebViewPanel.cpp</title>
<!-- Node1 -->
<g id="Node000001" class="node">
<title>Node1</title>
<g id="a_Node000001"><a xlink:title=" ">
<polygon fill="#999999" stroke="#666666" points="306.5,-217 157.5,-217 157.5,-176 306.5,-176 306.5,-217"/>
<text text-anchor="start" x="165.5" y="-205" font-family="Helvetica,sans-Serif" font-size="10.00">SimulateurFerroviaire</text>
<text text-anchor="start" x="165.5" y="-194" font-family="Helvetica,sans-Serif" font-size="10.00">/Engine/HMI/WebViewPanel</text>
<text text-anchor="middle" x="232" y="-183" font-family="Helvetica,sans-Serif" font-size="10.00">/WebViewPanel.cpp</text>
</a>
</g>
</g>
<!-- Node2 -->
<g id="Node000002" class="node">
<title>Node2</title>
<g id="a_Node000002"><a xlink:href="WebViewPanel_8h.html" target="_top" xlink:title=" ">
<polygon fill="white" stroke="#666666" points="231.5,-140 134.5,-140 134.5,-121 231.5,-121 231.5,-140"/>
<text text-anchor="middle" x="183" y="-128" font-family="Helvetica,sans-Serif" font-size="10.00">WebViewPanel.h</text>
</a>
</g>
</g>
<!-- Node1&#45;&gt;Node2 -->
<g id="edge1_Node000001_Node000002" class="edge">
<title>Node1&#45;&gt;Node2</title>
<g id="a_edge1_Node000001_Node000002"><a xlink:title=" ">
<path fill="none" stroke="#63b8ff" d="M217.03,-175.95C210.26,-167.11 202.35,-156.77 195.85,-148.29"/>
<polygon fill="#63b8ff" stroke="#63b8ff" points="198.57,-146.07 189.71,-140.26 193.01,-150.33 198.57,-146.07"/>
</a>
</g>
</g>
<!-- Node14 -->
<g id="Node000014" class="node">
<title>Node14</title>
<g id="a_Node000014"><a xlink:title=" ">
<polygon fill="#e0e0e0" stroke="#999999" points="314.5,-140 249.5,-140 249.5,-121 314.5,-121 314.5,-140"/>
<text text-anchor="middle" x="282" y="-128" font-family="Helvetica,sans-Serif" font-size="10.00">stdexcept</text>
</a>
</g>
</g>
<!-- Node1&#45;&gt;Node14 -->
<g id="edge14_Node000001_Node000014" class="edge">
<title>Node1&#45;&gt;Node14</title>
<g id="a_edge14_Node000001_Node000014"><a xlink:title=" ">
<path fill="none" stroke="#63b8ff" d="M247.27,-175.95C254.18,-167.11 262.26,-156.77 268.89,-148.29"/>
<polygon fill="#63b8ff" stroke="#63b8ff" points="271.76,-150.3 275.16,-140.26 266.24,-145.99 271.76,-150.3"/>
</a>
</g>
</g>
<!-- Node3 -->
<g id="Node000003" class="node">
<title>Node3</title>
<g id="a_Node000003"><a xlink:title=" ">
<polygon fill="#e0e0e0" stroke="#999999" points="68,-79.5 0,-79.5 0,-60.5 68,-60.5 68,-79.5"/>
<text text-anchor="middle" x="34" y="-67.5" font-family="Helvetica,sans-Serif" font-size="10.00">windows.h</text>
</a>
</g>
</g>
<!-- Node2&#45;&gt;Node3 -->
<g id="edge2_Node000002_Node000003" class="edge">
<title>Node2&#45;&gt;Node3</title>
<g id="a_edge2_Node000002_Node000003"><a xlink:title=" ">
<path fill="none" stroke="#63b8ff" d="M161.33,-120.99C136.06,-111.07 94.09,-94.59 65.28,-83.28"/>
<polygon fill="#63b8ff" stroke="#63b8ff" points="66.28,-79.91 55.69,-79.52 63.72,-86.43 66.28,-79.91"/>
</a>
</g>
</g>
<!-- Node4 -->
<g id="Node000004" class="node">
<title>Node4</title>
<g id="a_Node000004"><a xlink:title=" ">
<polygon fill="#e0e0e0" stroke="#999999" points="171,-19 127,-19 127,0 171,0 171,-19"/>
<text text-anchor="middle" x="149" y="-7" font-family="Helvetica,sans-Serif" font-size="10.00">string</text>
</a>
</g>
</g>
<!-- Node2&#45;&gt;Node4 -->
<g id="edge3_Node000002_Node000004" class="edge">
<title>Node2&#45;&gt;Node4</title>
<g id="a_edge3_Node000002_Node000004"><a xlink:title=" ">
<path fill="none" stroke="#63b8ff" d="M159.22,-120.92C143.57,-113.89 124.33,-102.25 115,-85 104.5,-65.58 119.24,-42.32 132.47,-27.01"/>
<polygon fill="#63b8ff" stroke="#63b8ff" points="135.28,-29.13 139.49,-19.4 130.14,-24.38 135.28,-29.13"/>
</a>
</g>
</g>
<!-- Node5 -->
<g id="Node000005" class="node">
<title>Node5</title>
<g id="a_Node000005"><a xlink:title=" ">
<polygon fill="#e0e0e0" stroke="#999999" points="165.5,-79.5 124.5,-79.5 124.5,-60.5 165.5,-60.5 165.5,-79.5"/>
<text text-anchor="middle" x="145" y="-67.5" font-family="Helvetica,sans-Serif" font-size="10.00">wrl.h</text>
</a>
</g>
</g>
<!-- Node2&#45;&gt;Node5 -->
<g id="edge4_Node000002_Node000005" class="edge">
<title>Node2&#45;&gt;Node5</title>
<g id="a_edge4_Node000002_Node000005"><a xlink:title=" ">
<path fill="none" stroke="#63b8ff" d="M177.39,-120.87C171.84,-112.31 163.17,-98.97 156.2,-88.24"/>
<polygon fill="#63b8ff" stroke="#63b8ff" points="159.01,-86.15 150.63,-79.67 153.14,-89.96 159.01,-86.15"/>
</a>
</g>
</g>
<!-- Node6 -->
<g id="Node000006" class="node">
<title>Node6</title>
<g id="a_Node000006"><a xlink:title=" ">
<polygon fill="#e0e0e0" stroke="#999999" points="260.5,-79.5 183.5,-79.5 183.5,-60.5 260.5,-60.5 260.5,-79.5"/>
<text text-anchor="middle" x="222" y="-67.5" font-family="Helvetica,sans-Serif" font-size="10.00">WebView2.h</text>
</a>
</g>
</g>
<!-- Node2&#45;&gt;Node6 -->
<g id="edge5_Node000002_Node000006" class="edge">
<title>Node2&#45;&gt;Node6</title>
<g id="a_edge5_Node000002_Node000006"><a xlink:title=" ">
<path fill="none" stroke="#63b8ff" d="M188.75,-120.87C194.46,-112.31 203.35,-98.97 210.51,-88.24"/>
<polygon fill="#63b8ff" stroke="#63b8ff" points="213.59,-89.93 216.22,-79.67 207.76,-86.05 213.59,-89.93"/>
</a>
</g>
</g>
<!-- Node7 -->
<g id="Node000007" class="node">
<title>Node7</title>
<g id="a_Node000007"><a xlink:title=" ">
<polygon fill="#e0e0e0" stroke="#999999" points="343.5,-79.5 278.5,-79.5 278.5,-60.5 343.5,-60.5 343.5,-79.5"/>
<text text-anchor="middle" x="311" y="-67.5" font-family="Helvetica,sans-Serif" font-size="10.00">functional</text>
</a>
</g>
</g>
<!-- Node2&#45;&gt;Node7 -->
<g id="edge6_Node000002_Node000007" class="edge">
<title>Node2&#45;&gt;Node7</title>
<g id="a_edge6_Node000002_Node000007"><a xlink:title=" ">
<path fill="none" stroke="#63b8ff" d="M201.61,-120.99C223.04,-111.2 258.44,-95.02 283.15,-83.73"/>
<polygon fill="#63b8ff" stroke="#63b8ff" points="284.72,-86.86 292.37,-79.52 281.82,-80.49 284.72,-86.86"/>
</a>
</g>
</g>
<!-- Node8 -->
<g id="Node000008" class="node">
<title>Node8</title>
<g id="a_Node000008"><a xlink:href="Logger_8h.html" target="_top" xlink:title="Système de journalisation à 5 niveaux de trace, un fichier par moteur.">
<polygon fill="white" stroke="#666666" points="472.5,-85 361.5,-85 361.5,-55 472.5,-55 472.5,-85"/>
<text text-anchor="start" x="369.5" y="-73" font-family="Helvetica,sans-Serif" font-size="10.00">Engine/Core/Logger</text>
<text text-anchor="middle" x="417" y="-62" font-family="Helvetica,sans-Serif" font-size="10.00">/Logger.h</text>
</a>
</g>
</g>
<!-- Node2&#45;&gt;Node8 -->
<g id="edge7_Node000002_Node000008" class="edge">
<title>Node2&#45;&gt;Node8</title>
<g id="a_edge7_Node000002_Node000008"><a xlink:title=" ">
<path fill="none" stroke="#63b8ff" d="M217.03,-120.99C252.07,-112.23 307.57,-98.36 351.23,-87.44"/>
<polygon fill="#63b8ff" stroke="#63b8ff" points="352.34,-90.77 361.2,-84.95 350.64,-83.98 352.34,-90.77"/>
</a>
</g>
</g>
<!-- Node8&#45;&gt;Node4 -->
<g id="edge13_Node000008_Node000004" class="edge">
<title>Node8&#45;&gt;Node4</title>
<g id="a_edge13_Node000008_Node000004"><a xlink:title=" ">
<path fill="none" stroke="#63b8ff" d="M361.5,-56.86C358.62,-56.23 355.78,-55.61 353,-55 292.21,-41.72 221.22,-26.24 181.04,-17.48"/>
<polygon fill="#63b8ff" stroke="#63b8ff" points="181.55,-14.01 171.04,-15.3 180.06,-20.85 181.55,-14.01"/>
</a>
</g>
</g>
<!-- Node9 -->
<g id="Node000009" class="node">
<title>Node9</title>
<g id="a_Node000009"><a xlink:title=" ">
<polygon fill="#e0e0e0" stroke="#999999" points="285,-19 241,-19 241,0 285,0 285,-19"/>
<text text-anchor="middle" x="263" y="-7" font-family="Helvetica,sans-Serif" font-size="10.00">ctime</text>
</a>
</g>
</g>
<!-- Node8&#45;&gt;Node9 -->
<g id="edge8_Node000008_Node000009" class="edge">
<title>Node8&#45;&gt;Node9</title>
<g id="a_edge8_Node000008_Node000009"><a xlink:title=" ">
<path fill="none" stroke="#63b8ff" d="M380.11,-54.99C354.15,-45.12 319.74,-32.05 294.95,-22.64"/>
<polygon fill="#63b8ff" stroke="#63b8ff" points="295.88,-19.25 285.29,-18.97 293.4,-25.79 295.88,-19.25"/>
</a>
</g>
</g>
<!-- Node10 -->
<g id="Node000010" class="node">
<title>Node10</title>
<g id="a_Node000010"><a xlink:title=" ">
<polygon fill="#e0e0e0" stroke="#999999" points="371,-19 303,-19 303,0 371,0 371,-19"/>
<text text-anchor="middle" x="337" y="-7" font-family="Helvetica,sans-Serif" font-size="10.00">filesystem</text>
</a>
</g>
</g>
<!-- Node8&#45;&gt;Node10 -->
<g id="edge9_Node000008_Node000010" class="edge">
<title>Node8&#45;&gt;Node10</title>
<g id="a_edge9_Node000008_Node000010"><a xlink:title=" ">
<path fill="none" stroke="#63b8ff" d="M397.63,-54.84C385.43,-45.91 369.69,-34.41 357.31,-25.35"/>
<polygon fill="#63b8ff" stroke="#63b8ff" points="359.13,-22.34 348.99,-19.27 354.99,-27.99 359.13,-22.34"/>
</a>
</g>
</g>
<!-- Node11 -->
<g id="Node000011" class="node">
<title>Node11</title>
<g id="a_Node000011"><a xlink:title=" ">
<polygon fill="#e0e0e0" stroke="#999999" points="444.5,-19 389.5,-19 389.5,0 444.5,0 444.5,-19"/>
<text text-anchor="middle" x="417" y="-7" font-family="Helvetica,sans-Serif" font-size="10.00">fstream</text>
</a>
</g>
</g>
<!-- Node8&#45;&gt;Node11 -->
<g id="edge10_Node000008_Node000011" class="edge">
<title>Node8&#45;&gt;Node11</title>
<g id="a_edge10_Node000008_Node000011"><a xlink:title=" ">
<path fill="none" stroke="#63b8ff" d="M417,-54.84C417,-47.21 417,-37.7 417,-29.45"/>
<polygon fill="#63b8ff" stroke="#63b8ff" points="420.5,-29.27 417,-19.27 413.5,-29.27 420.5,-29.27"/>
</a>
</g>
</g>
<!-- Node12 -->
<g id="Node000012" class="node">
<title>Node12</title>
<g id="a_Node000012"><a xlink:title=" ">
<polygon fill="#e0e0e0" stroke="#999999" points="511,-19 463,-19 463,0 511,0 511,-19"/>
<text text-anchor="middle" x="487" y="-7" font-family="Helvetica,sans-Serif" font-size="10.00">mutex</text>
</a>
</g>
</g>
<!-- Node8&#45;&gt;Node12 -->
<g id="edge11_Node000008_Node000012" class="edge">
<title>Node8&#45;&gt;Node12</title>
<g id="a_edge11_Node000008_Node000012"><a xlink:title=" ">
<path fill="none" stroke="#63b8ff" d="M433.95,-54.84C444.42,-46.09 457.86,-34.85 468.59,-25.88"/>
<polygon fill="#63b8ff" stroke="#63b8ff" points="471.08,-28.36 476.51,-19.27 466.59,-22.99 471.08,-28.36"/>
</a>
</g>
</g>
<!-- Node13 -->
<g id="Node000013" class="node">
<title>Node13</title>
<g id="a_Node000013"><a xlink:title=" ">
<polygon fill="#e0e0e0" stroke="#999999" points="585,-19 529,-19 529,0 585,0 585,-19"/>
<text text-anchor="middle" x="557" y="-7" font-family="Helvetica,sans-Serif" font-size="10.00">sstream</text>
</a>
</g>
</g>
<!-- Node8&#45;&gt;Node13 -->
<g id="edge12_Node000008_Node000013" class="edge">
<title>Node8&#45;&gt;Node13</title>
<g id="a_edge12_Node000008_Node000013"><a xlink:title=" ">
<path fill="none" stroke="#63b8ff" d="M450.53,-54.99C473.79,-45.27 504.49,-32.44 526.95,-23.06"/>
<polygon fill="#63b8ff" stroke="#63b8ff" points="528.45,-26.22 536.32,-19.14 525.75,-19.77 528.45,-26.22"/>
</a>
</g>
</g>
</g>
</svg>
