<?xml version="1.0" encoding="UTF-8" standalone="no"?>
<!DOCTYPE svg PUBLIC "-//W3C//DTD SVG 1.1//EN"
 "http://www.w3.org/Graphics/SVG/1.1/DTD/svg11.dtd">
<!-- Generated by graphviz version 2.43.0 (0)
 -->
<!-- Title: PCCSwitchNode Pages: 1 -->
<svg width="124pt" height="637pt"
 viewBox="0.00 0.00 124.00 637.00" xmlns="http://www.w3.org/2000/svg" xmlns:xlink="http://www.w3.org/1999/xlink">
<g id="graph0" class="graph" transform="scale(1 1) rotate(0) translate(4 633)">
<title>PCCSwitchNode</title>
<!-- Node1 -->
<g id="Node000001" class="node">
<title>Node1</title>
<g id="a_Node000001"><a xlink:title="Nœud PCC issu d&#39;un SwitchBlock.">
<polygon fill="#999999" stroke="transparent" points="116,-259 0,-259 0,0 116,0 116,-259"/>
<text text-anchor="start" x="19" y="-246.5" font-family="Helvetica,sans-Serif" font-size="10.00">PCCSwitchNode</text>
<text text-anchor="start" x="6.5" y="-231.5" font-family="Helvetica,sans-Serif" font-size="10.00">&#45;</text>
<text text-anchor="start" x="17" y="-231.5" font-family="Helvetica,sans-Serif" font-size="10.00">m_switchSource</text>
<text text-anchor="start" x="6.5" y="-216.5" font-family="Helvetica,sans-Serif" font-size="10.00">&#45;</text>
<text text-anchor="start" x="17" y="-216.5" font-family="Helvetica,sans-Serif" font-size="10.00">m_rootEdge</text>
<text text-anchor="start" x="6.5" y="-201.5" font-family="Helvetica,sans-Serif" font-size="10.00">&#45;</text>
<text text-anchor="start" x="17" y="-201.5" font-family="Helvetica,sans-Serif" font-size="10.00">m_normalEdge</text>
<text text-anchor="start" x="6.5" y="-186.5" font-family="Helvetica,sans-Serif" font-size="10.00">&#45;</text>
<text text-anchor="start" x="17" y="-186.5" font-family="Helvetica,sans-Serif" font-size="10.00">m_deviationEdge</text>
<text text-anchor="start" x="6.5" y="-171.5" font-family="Helvetica,sans-Serif" font-size="10.00">&#45;</text>
<text text-anchor="start" x="17" y="-171.5" font-family="Helvetica,sans-Serif" font-size="10.00">m_deviationSide</text>
<text text-anchor="start" x="4" y="-156.5" font-family="Helvetica,sans-Serif" font-size="10.00">+</text>
<text text-anchor="start" x="17" y="-156.5" font-family="Helvetica,sans-Serif" font-size="10.00">PCCSwitchNode()</text>
<text text-anchor="start" x="4" y="-141.5" font-family="Helvetica,sans-Serif" font-size="10.00">+</text>
<text text-anchor="start" x="17" y="-141.5" font-family="Helvetica,sans-Serif" font-size="10.00">getNodeType()</text>
<text text-anchor="start" x="4" y="-126.5" font-family="Helvetica,sans-Serif" font-size="10.00">+</text>
<text text-anchor="start" x="17" y="-126.5" font-family="Helvetica,sans-Serif" font-size="10.00">getSwitchSource()</text>
<text text-anchor="start" x="4" y="-111.5" font-family="Helvetica,sans-Serif" font-size="10.00">+</text>
<text text-anchor="start" x="17" y="-111.5" font-family="Helvetica,sans-Serif" font-size="10.00">getRootEdge()</text>
<text text-anchor="start" x="4" y="-96.5" font-family="Helvetica,sans-Serif" font-size="10.00">+</text>
<text text-anchor="start" x="17" y="-96.5" font-family="Helvetica,sans-Serif" font-size="10.00">getNormalEdge()</text>
<text text-anchor="start" x="4" y="-81.5" font-family="Helvetica,sans-Serif" font-size="10.00">+</text>
<text text-anchor="start" x="17" y="-81.5" font-family="Helvetica,sans-Serif" font-size="10.00">getDeviationEdge()</text>
<text text-anchor="start" x="4" y="-66.5" font-family="Helvetica,sans-Serif" font-size="10.00">+</text>
<text text-anchor="start" x="17" y="-66.5" font-family="Helvetica,sans-Serif" font-size="10.00">setRootEdge()</text>
<text text-anchor="start" x="4" y="-51.5" font-family="Helvetica,sans-Serif" font-size="10.00">+</text>
<text text-anchor="start" x="17" y="-51.5" font-family="Helvetica,sans-Serif" font-size="10.00">setNormalEdge()</text>
<text text-anchor="start" x="4" y="-36.5" font-family="Helvetica,sans-Serif" font-size="10.00">+</text>
<text text-anchor="start" x="17" y="-36.5" font-family="Helvetica,sans-Serif" font-size="10.00">setDeviationEdge()</text>
<text text-anchor="start" x="4" y="-21.5" font-family="Helvetica,sans-Serif" font-size="10.00">+</text>
<text text-anchor="start" x="17" y="-21.5" font-family="Helvetica,sans-Serif" font-size="10.00">getDeviationSide()</text>
<text text-anchor="start" x="4" y="-6.5" font-family="Helvetica,sans-Serif" font-size="10.00">+</text>
<text text-anchor="start" x="17" y="-6.5" font-family="Helvetica,sans-Serif" font-size="10.00">setDeviationSide()</text>
<polygon fill="#666666" stroke="#666666" points="0,-241.5 0,-241.5 116,-241.5 116,-241.5 0,-241.5"/>
<polygon fill="#666666" stroke="#666666" points="0,-166.5 0,-166.5 15,-166.5 15,-166.5 0,-166.5"/>
<polygon fill="#666666" stroke="#666666" points="15,-166.5 15,-166.5 116,-166.5 116,-166.5 15,-166.5"/>
<polygon fill="none" stroke="#666666" points="0,0 0,-259 116,-259 116,0 0,0"/>
</a>
</g>
</g>
<!-- Node2 -->
<g id="Node000002" class="node">
<title>Node2</title>
<g id="a_Node000002"><a xlink:href="../../d1/d03/classPCCNode.html" target="_top" xlink:title="Nœud abstrait du graphe PCC.">
<polygon fill="white" stroke="transparent" points="105,-629 11,-629 11,-295 105,-295 105,-629"/>
<text text-anchor="start" x="35" y="-617" font-family="Helvetica,sans-Serif" font-size="10.00">PCCNode</text>
<text text-anchor="start" x="15" y="-602" font-family="Helvetica,sans-Serif" font-size="10.00">#</text>
<text text-anchor="start" x="28" y="-602" font-family="Helvetica,sans-Serif" font-size="10.00">m_sourceId</text>
<text text-anchor="start" x="15" y="-587" font-family="Helvetica,sans-Serif" font-size="10.00">#</text>
<text text-anchor="start" x="28" y="-587" font-family="Helvetica,sans-Serif" font-size="10.00">m_source</text>
<text text-anchor="start" x="15" y="-572" font-family="Helvetica,sans-Serif" font-size="10.00">#</text>
<text text-anchor="start" x="28" y="-572" font-family="Helvetica,sans-Serif" font-size="10.00">m_position</text>
<text text-anchor="start" x="15" y="-557" font-family="Helvetica,sans-Serif" font-size="10.00">#</text>
<text text-anchor="start" x="28" y="-557" font-family="Helvetica,sans-Serif" font-size="10.00">m_edges</text>
<text text-anchor="start" x="15" y="-542" font-family="Helvetica,sans-Serif" font-size="10.00">#</text>
<text text-anchor="start" x="28" y="-542" font-family="Helvetica,sans-Serif" font-size="10.00">m_logger</text>
<text text-anchor="start" x="17.5" y="-527" font-family="Helvetica,sans-Serif" font-size="10.00">&#45;</text>
<text text-anchor="start" x="28" y="-527" font-family="Helvetica,sans-Serif" font-size="10.00">m_isCrossover</text>
<text text-anchor="start" x="15" y="-512" font-family="Helvetica,sans-Serif" font-size="10.00">+</text>
<text text-anchor="start" x="28" y="-512" font-family="Helvetica,sans-Serif" font-size="10.00">PCCNode()</text>
<text text-anchor="start" x="15" y="-497" font-family="Helvetica,sans-Serif" font-size="10.00">+</text>
<text text-anchor="start" x="28" y="-497" font-family="Helvetica,sans-Serif" font-size="10.00">PCCNode()</text>
<text text-anchor="start" x="15" y="-482" font-family="Helvetica,sans-Serif" font-size="10.00">+</text>
<text text-anchor="start" x="28" y="-482" font-family="Helvetica,sans-Serif" font-size="10.00">operator=()</text>
<text text-anchor="start" x="15" y="-467" font-family="Helvetica,sans-Serif" font-size="10.00">+</text>
<text text-anchor="start" x="28" y="-467" font-family="Helvetica,sans-Serif" font-size="10.00">PCCNode()</text>
<text text-anchor="start" x="15" y="-452" font-family="Helvetica,sans-Serif" font-size="10.00">+</text>
<text text-anchor="start" x="28" y="-452" font-family="Helvetica,sans-Serif" font-size="10.00">operator=()</text>
<text text-anchor="start" x="15" y="-437" font-family="Helvetica,sans-Serif" font-size="10.00">+</text>
<text text-anchor="start" x="28" y="-437" font-family="Helvetica,sans-Serif" font-size="10.00">~PCCNode()</text>
<text text-anchor="start" x="15" y="-422" font-family="Helvetica,sans-Serif" font-size="10.00">+</text>
<text text-anchor="start" x="28" y="-422" font-family="Helvetica,sans-Serif" font-size="10.00">getNodeType()</text>
<text text-anchor="start" x="15" y="-407" font-family="Helvetica,sans-Serif" font-size="10.00">+</text>
<text text-anchor="start" x="28" y="-407" font-family="Helvetica,sans-Serif" font-size="10.00">getSourceId()</text>
<text text-anchor="start" x="15" y="-392" font-family="Helvetica,sans-Serif" font-size="10.00">+</text>
<text text-anchor="start" x="28" y="-392" font-family="Helvetica,sans-Serif" font-size="10.00">getSource()</text>
<text text-anchor="start" x="15" y="-377" font-family="Helvetica,sans-Serif" font-size="10.00">+</text>
<text text-anchor="start" x="28" y="-377" font-family="Helvetica,sans-Serif" font-size="10.00">getPosition()</text>
<text text-anchor="start" x="15" y="-362" font-family="Helvetica,sans-Serif" font-size="10.00">+</text>
<text text-anchor="start" x="28" y="-362" font-family="Helvetica,sans-Serif" font-size="10.00">getEdges()</text>
<text text-anchor="start" x="15" y="-347" font-family="Helvetica,sans-Serif" font-size="10.00">+</text>
<text text-anchor="start" x="28" y="-347" font-family="Helvetica,sans-Serif" font-size="10.00">setPosition()</text>
<text text-anchor="start" x="15" y="-332" font-family="Helvetica,sans-Serif" font-size="10.00">+</text>
<text text-anchor="start" x="28" y="-332" font-family="Helvetica,sans-Serif" font-size="10.00">addEdge()</text>
<text text-anchor="start" x="15" y="-317" font-family="Helvetica,sans-Serif" font-size="10.00">+</text>
<text text-anchor="start" x="28" y="-317" font-family="Helvetica,sans-Serif" font-size="10.00">isCrossover()</text>
<text text-anchor="start" x="15" y="-302" font-family="Helvetica,sans-Serif" font-size="10.00">+</text>
<text text-anchor="start" x="28" y="-302" font-family="Helvetica,sans-Serif" font-size="10.00">setCrossover()</text>
<polygon fill="#666666" stroke="#666666" points="11,-612 11,-612 105,-612 105,-612 11,-612"/>
<polygon fill="#666666" stroke="#666666" points="11,-522 11,-522 26,-522 26,-522 11,-522"/>
<polygon fill="#666666" stroke="#666666" points="26,-522 26,-522 105,-522 105,-522 26,-522"/>
<polygon fill="none" stroke="#666666" points="11,-295 11,-629 105,-629 105,-295 11,-295"/>
</a>
</g>
</g>
<!-- Node2&#45;&gt;Node1 -->
<g id="edge1_Node000001_Node000002" class="edge">
<title>Node2&#45;&gt;Node1</title>
<g id="a_edge1_Node000001_Node000002"><a xlink:title=" ">
<path fill="none" stroke="#63b8ff" d="M58,-284.75C58,-276.22 58,-267.73 58,-259.36"/>
<polygon fill="none" stroke="#63b8ff" points="54.5,-284.78 58,-294.78 61.5,-284.78 54.5,-284.78"/>
</a>
</g>
</g>
</g>
</svg>
