<?xml version="1.0" encoding="UTF-8" standalone="no"?>
<!DOCTYPE svg PUBLIC "-//W3C//DTD SVG 1.1//EN"
 "http://www.w3.org/Graphics/SVG/1.1/DTD/svg11.dtd">
<!-- Generated by graphviz version 2.43.0 (0)
 -->
<!-- Title: InvalidGeoJsonFormatException Pages: 1 -->
<svg width="192pt" height="312pt"
 viewBox="0.00 0.00 192.00 312.00" xmlns="http://www.w3.org/2000/svg" xmlns:xlink="http://www.w3.org/1999/xlink">
<g id="graph0" class="graph" transform="scale(1 1) rotate(0) translate(4 308)">
<title>InvalidGeoJsonFormatException</title>
<!-- Node1 -->
<g id="Node000001" class="node">
<title>Node1</title>
<g id="a_Node000001"><a xlink:title="Levée quand le fichier GeoJSON est malformé ou ne contient aucune géométrie LineString exploitable.">
<polygon fill="#999999" stroke="transparent" points="184,-49 0,-49 0,0 184,0 184,-49"/>
<text text-anchor="start" x="14" y="-36.5" font-family="Helvetica,sans-Serif" font-size="10.00">InvalidGeoJsonFormatException</text>
<text text-anchor="start" x="90" y="-21.5" font-family="Helvetica,sans-Serif" font-size="10.00"> </text>
<text text-anchor="start" x="4" y="-6.5" font-family="Helvetica,sans-Serif" font-size="10.00">+</text>
<text text-anchor="start" x="17" y="-6.5" font-family="Helvetica,sans-Serif" font-size="10.00">InvalidGeoJsonFormatException()</text>
<polygon fill="#666666" stroke="#666666" points="0,-31.5 0,-31.5 184,-31.5 184,-31.5 0,-31.5"/>
<polygon fill="#666666" stroke="#666666" points="0,-16.5 0,-16.5 184,-16.5 184,-16.5 0,-16.5"/>
<polygon fill="none" stroke="#666666" points="0,0 0,-49 184,-49 184,0 0,0"/>
</a>
</g>
</g>
<!-- Node2 -->
<g id="Node000002" class="node">
<title>Node2</title>
<g id="a_Node000002"><a xlink:href="../../de/d00/classRailwayParserException.html" target="_top" xlink:title="Classe de base pour toutes les erreurs du parseur ferroviaire.">
<polygon fill="white" stroke="transparent" points="165,-134 19,-134 19,-85 165,-85 165,-134"/>
<text text-anchor="start" x="33" y="-121.5" font-family="Helvetica,sans-Serif" font-size="10.00">RailwayParserException</text>
<text text-anchor="start" x="90" y="-106.5" font-family="Helvetica,sans-Serif" font-size="10.00"> </text>
<text text-anchor="start" x="23" y="-91.5" font-family="Helvetica,sans-Serif" font-size="10.00">+</text>
<text text-anchor="start" x="36" y="-91.5" font-family="Helvetica,sans-Serif" font-size="10.00">RailwayParserException()</text>
<polygon fill="#666666" stroke="#666666" points="19,-116.5 19,-116.5 165,-116.5 165,-116.5 19,-116.5"/>
<polygon fill="#666666" stroke="#666666" points="19,-101.5 19,-101.5 165,-101.5 165,-101.5 19,-101.5"/>
<polygon fill="none" stroke="#666666" points="19,-85 19,-134 165,-134 165,-85 19,-85"/>
</a>
</g>
</g>
<!-- Node2&#45;&gt;Node1 -->
<g id="edge1_Node000001_Node000002" class="edge">
<title>Node2&#45;&gt;Node1</title>
<g id="a_edge1_Node000001_Node000002"><a xlink:title=" ">
<path fill="none" stroke="#63b8ff" d="M92,-74.77C92,-66.17 92,-57.1 92,-49.12"/>
<polygon fill="none" stroke="#63b8ff" points="88.5,-74.94 92,-84.94 95.5,-74.94 88.5,-74.94"/>
</a>
</g>
</g>
<!-- Node3 -->
<g id="Node000003" class="node">
<title>Node3</title>
<g id="a_Node000003"><a xlink:title=" ">
<polygon fill="white" stroke="transparent" points="141,-219 43,-219 43,-170 141,-170 141,-219"/>
<text text-anchor="start" x="48" y="-206.5" font-family="Helvetica,sans-Serif" font-size="10.00">std::runtime_error</text>
<text text-anchor="start" x="90" y="-191.5" font-family="Helvetica,sans-Serif" font-size="10.00"> </text>
<text text-anchor="start" x="90" y="-176.5" font-family="Helvetica,sans-Serif" font-size="10.00"> </text>
<polygon fill="#666666" stroke="#666666" points="43,-201.5 43,-201.5 141,-201.5 141,-201.5 43,-201.5"/>
<polygon fill="#666666" stroke="#666666" points="43,-186.5 43,-186.5 141,-186.5 141,-186.5 43,-186.5"/>
<polygon fill="none" stroke="#666666" points="43,-170 43,-219 141,-219 141,-170 43,-170"/>
</a>
</g>
</g>
<!-- Node3&#45;&gt;Node2 -->
<g id="edge2_Node000002_Node000003" class="edge">
<title>Node3&#45;&gt;Node2</title>
<g id="a_edge2_Node000002_Node000003"><a xlink:title=" ">
<path fill="none" stroke="#63b8ff" d="M92,-159.77C92,-151.17 92,-142.1 92,-134.12"/>
<polygon fill="none" stroke="#63b8ff" points="88.5,-159.94 92,-169.94 95.5,-159.94 88.5,-159.94"/>
</a>
</g>
</g>
<!-- Node4 -->
<g id="Node000004" class="node">
<title>Node4</title>
<g id="a_Node000004"><a xlink:title=" ">
<polygon fill="white" stroke="transparent" points="132,-304 52,-304 52,-255 132,-255 132,-304"/>
<text text-anchor="start" x="57" y="-291.5" font-family="Helvetica,sans-Serif" font-size="10.00">std::exception</text>
<text text-anchor="start" x="90" y="-276.5" font-family="Helvetica,sans-Serif" font-size="10.00"> </text>
<text text-anchor="start" x="90" y="-261.5" font-family="Helvetica,sans-Serif" font-size="10.00"> </text>
<polygon fill="#666666" stroke="#666666" points="52,-286.5 52,-286.5 132,-286.5 132,-286.5 52,-286.5"/>
<polygon fill="#666666" stroke="#666666" points="52,-271.5 52,-271.5 132,-271.5 132,-271.5 52,-271.5"/>
<polygon fill="none" stroke="#666666" points="52,-255 52,-304 132,-304 132,-255 52,-255"/>
</a>
</g>
</g>
<!-- Node4&#45;&gt;Node3 -->
<g id="edge3_Node000003_Node000004" class="edge">
<title>Node4&#45;&gt;Node3</title>
<g id="a_edge3_Node000003_Node000004"><a xlink:title=" ">
<path fill="none" stroke="#63b8ff" d="M92,-244.77C92,-236.17 92,-227.1 92,-219.12"/>
<polygon fill="none" stroke="#63b8ff" points="88.5,-244.94 92,-254.94 95.5,-244.94 88.5,-244.94"/>
</a>
</g>
</g>
</g>
</svg>
