<?xml version="1.0" encoding="UTF-8" standalone="no"?>
<!DOCTYPE svg PUBLIC "-//W3C//DTD SVG 1.1//EN"
 "http://www.w3.org/Graphics/SVG/1.1/DTD/svg11.dtd">
<!-- Generated by graphviz version 2.43.0 (0)
 -->
<!-- Title: SimulateurFerroviaire/Engine/Core/Config/ParserConfigIni.h Pages: 1 -->
<svg width="649pt" height="258pt"
 viewBox="0.00 0.00 648.50 258.00" xmlns="http://www.w3.org/2000/svg" xmlns:xlink="http://www.w3.org/1999/xlink">
<g id="graph0" class="graph" transform="scale(1 1) rotate(0) translate(4 254)">
<title>SimulateurFerroviaire/Engine/Core/Config/ParserConfigIni.h</title>
<!-- Node1 -->
<g id="Node000001" class="node">
<title>Node1</title>
<g id="a_Node000001"><a xlink:title="Persistence de ParserConfig via fichier .ini (SimpleIni).">
<polygon fill="#999999" stroke="#666666" points="376,-250 200,-250 200,-209 376,-209 376,-250"/>
<text text-anchor="start" x="208" y="-238" font-family="Helvetica,sans-Serif" font-size="10.00">SimulateurFerroviaire</text>
<text text-anchor="start" x="208" y="-227" font-family="Helvetica,sans-Serif" font-size="10.00">/Engine/Core/Config/ParserConfig</text>
<text text-anchor="middle" x="288" y="-216" font-family="Helvetica,sans-Serif" font-size="10.00">Ini.h</text>
</a>
</g>
</g>
<!-- Node2 -->
<g id="Node000002" class="node">
<title>Node2</title>
<g id="a_Node000002"><a xlink:href="../../dc/d03/ParserConfigIni_8cpp.html" target="_top" xlink:title="Implémentation de la persistence .ini de ParserConfig.">
<polygon fill="white" stroke="#666666" points="176,-173 0,-173 0,-132 176,-132 176,-173"/>
<text text-anchor="start" x="8" y="-161" font-family="Helvetica,sans-Serif" font-size="10.00">SimulateurFerroviaire</text>
<text text-anchor="start" x="8" y="-150" font-family="Helvetica,sans-Serif" font-size="10.00">/Engine/Core/Config/ParserConfig</text>
<text text-anchor="middle" x="88" y="-139" font-family="Helvetica,sans-Serif" font-size="10.00">Ini.cpp</text>
</a>
</g>
</g>
<!-- Node1&#45;&gt;Node2 -->
<g id="edge1_Node000001_Node000002" class="edge">
<title>Node1&#45;&gt;Node2</title>
<g id="a_edge1_Node000001_Node000002"><a xlink:title=" ">
<path fill="none" stroke="#63b8ff" d="M226.41,-205.4C198.77,-195.04 166.53,-182.95 140.11,-173.04"/>
<polygon fill="#63b8ff" stroke="#63b8ff" points="225.38,-208.76 235.97,-208.99 227.84,-202.2 225.38,-208.76"/>
</a>
</g>
</g>
<!-- Node3 -->
<g id="Node000003" class="node">
<title>Node3</title>
<g id="a_Node000003"><a xlink:href="../../d2/d00/ParserSettingsDialog_8cpp.html" target="_top" xlink:title="Implémentation du dialogue de paramètres GeoParser.">
<polygon fill="white" stroke="#666666" points="382,-173 194,-173 194,-132 382,-132 382,-173"/>
<text text-anchor="start" x="202" y="-161" font-family="Helvetica,sans-Serif" font-size="10.00">SimulateurFerroviaire</text>
<text text-anchor="start" x="202" y="-150" font-family="Helvetica,sans-Serif" font-size="10.00">/Engine/HMI/Dialogs/ParserSettings</text>
<text text-anchor="middle" x="288" y="-139" font-family="Helvetica,sans-Serif" font-size="10.00">Dialog.cpp</text>
</a>
</g>
</g>
<!-- Node1&#45;&gt;Node3 -->
<g id="edge2_Node000001_Node000003" class="edge">
<title>Node1&#45;&gt;Node3</title>
<g id="a_edge2_Node000001_Node000003"><a xlink:title=" ">
<path fill="none" stroke="#63b8ff" d="M288,-198.69C288,-190.08 288,-180.9 288,-173.07"/>
<polygon fill="#63b8ff" stroke="#63b8ff" points="284.5,-198.79 288,-208.79 291.5,-198.79 284.5,-198.79"/>
</a>
</g>
</g>
<!-- Node4 -->
<g id="Node000004" class="node">
<title>Node4</title>
<g id="a_Node000004"><a xlink:href="../../da/d00/MainWindow_8h.html" target="_top" xlink:title="Déclaration de la fenêtre principale de l&#39;application.">
<polygon fill="white" stroke="#666666" points="549.5,-167.5 400.5,-167.5 400.5,-137.5 549.5,-137.5 549.5,-167.5"/>
<text text-anchor="start" x="408.5" y="-155.5" font-family="Helvetica,sans-Serif" font-size="10.00">SimulateurFerroviaire</text>
<text text-anchor="middle" x="475" y="-144.5" font-family="Helvetica,sans-Serif" font-size="10.00">/Engine/HMI/MainWindow.h</text>
</a>
</g>
</g>
<!-- Node1&#45;&gt;Node4 -->
<g id="edge3_Node000001_Node000004" class="edge">
<title>Node1&#45;&gt;Node4</title>
<g id="a_edge3_Node000001_Node000004"><a xlink:title=" ">
<path fill="none" stroke="#63b8ff" d="M345.97,-205.25C376.72,-192.92 413.48,-178.17 439.89,-167.58"/>
<polygon fill="#63b8ff" stroke="#63b8ff" points="344.62,-202.02 336.64,-208.99 347.23,-208.52 344.62,-202.02"/>
</a>
</g>
</g>
<!-- Node5 -->
<g id="Node000005" class="node">
<title>Node5</title>
<g id="a_Node000005"><a xlink:href="../../d4/d00/Application_8h.html" target="_top" xlink:title="Gestion du cycle de vie de l&#39;application Win32.">
<polygon fill="white" stroke="#666666" points="461.5,-96 316.5,-96 316.5,-66 461.5,-66 461.5,-96"/>
<text text-anchor="start" x="324.5" y="-84" font-family="Helvetica,sans-Serif" font-size="10.00">SimulateurFerroviaire</text>
<text text-anchor="middle" x="389" y="-73" font-family="Helvetica,sans-Serif" font-size="10.00">/Engine/Core/Application.h</text>
</a>
</g>
</g>
<!-- Node4&#45;&gt;Node5 -->
<g id="edge4_Node000004_Node000005" class="edge">
<title>Node4&#45;&gt;Node5</title>
<g id="a_edge4_Node000004_Node000005"><a xlink:title=" ">
<path fill="none" stroke="#63b8ff" d="M449.79,-131.13C435.83,-119.85 418.84,-106.12 406.38,-96.04"/>
<polygon fill="#63b8ff" stroke="#63b8ff" points="447.62,-133.87 457.6,-137.44 452.02,-128.43 447.62,-133.87"/>
</a>
</g>
</g>
<!-- Node8 -->
<g id="Node000008" class="node">
<title>Node8</title>
<g id="a_Node000008"><a xlink:href="../../d3/d03/MainWindow_8cpp.html" target="_top" xlink:title="Implémentation de la fenêtre principale.">
<polygon fill="white" stroke="#666666" points="640.5,-96 479.5,-96 479.5,-66 640.5,-66 640.5,-96"/>
<text text-anchor="start" x="487.5" y="-84" font-family="Helvetica,sans-Serif" font-size="10.00">SimulateurFerroviaire</text>
<text text-anchor="middle" x="560" y="-73" font-family="Helvetica,sans-Serif" font-size="10.00">/Engine/HMI/MainWindow.cpp</text>
</a>
</g>
</g>
<!-- Node4&#45;&gt;Node8 -->
<g id="edge7_Node000004_Node000008" class="edge">
<title>Node4&#45;&gt;Node8</title>
<g id="a_edge7_Node000004_Node000008"><a xlink:title=" ">
<path fill="none" stroke="#63b8ff" d="M500.31,-130.81C514.02,-119.59 530.62,-106.02 542.82,-96.04"/>
<polygon fill="#63b8ff" stroke="#63b8ff" points="497.73,-128.4 492.2,-137.44 502.16,-133.82 497.73,-128.4"/>
</a>
</g>
</g>
<!-- Node6 -->
<g id="Node000006" class="node">
<title>Node6</title>
<g id="a_Node000006"><a xlink:href="../../d2/d02/Application_8cpp.html" target="_top" xlink:title="Implémentation du cycle de vie de l&#39;application Win32.">
<polygon fill="white" stroke="#666666" points="383,-30 227,-30 227,0 383,0 383,-30"/>
<text text-anchor="start" x="235" y="-18" font-family="Helvetica,sans-Serif" font-size="10.00">SimulateurFerroviaire</text>
<text text-anchor="middle" x="305" y="-7" font-family="Helvetica,sans-Serif" font-size="10.00">/Engine/Core/Application.cpp</text>
</a>
</g>
</g>
<!-- Node5&#45;&gt;Node6 -->
<g id="edge5_Node000005_Node000006" class="edge">
<title>Node5&#45;&gt;Node6</title>
<g id="a_edge5_Node000005_Node000006"><a xlink:title=" ">
<path fill="none" stroke="#63b8ff" d="M362.06,-59.48C349.51,-49.91 334.89,-38.77 323.59,-30.16"/>
<polygon fill="#63b8ff" stroke="#63b8ff" points="360.28,-62.52 370.36,-65.8 364.52,-56.95 360.28,-62.52"/>
</a>
</g>
</g>
<!-- Node7 -->
<g id="Node000007" class="node">
<title>Node7</title>
<g id="a_Node000007"><a xlink:href="../../db/d00/SimulateurFerroviaire_8cpp.html" target="_top" xlink:title="Point d&#39;entrée unique de l&#39;application Win32.">
<polygon fill="white" stroke="#666666" points="547,-30 401,-30 401,0 547,0 547,-30"/>
<text text-anchor="start" x="409" y="-18" font-family="Helvetica,sans-Serif" font-size="10.00">SimulateurFerroviaire</text>
<text text-anchor="middle" x="474" y="-7" font-family="Helvetica,sans-Serif" font-size="10.00">/SimulateurFerroviaire.cpp</text>
</a>
</g>
</g>
<!-- Node5&#45;&gt;Node7 -->
<g id="edge6_Node000005_Node000007" class="edge">
<title>Node5&#45;&gt;Node7</title>
<g id="a_edge6_Node000005_Node000007"><a xlink:title=" ">
<path fill="none" stroke="#63b8ff" d="M415.89,-59.75C428.67,-50.13 443.64,-38.86 455.19,-30.16"/>
<polygon fill="#63b8ff" stroke="#63b8ff" points="413.75,-56.99 407.86,-65.8 417.96,-62.58 413.75,-56.99"/>
</a>
</g>
</g>
</g>
</svg>
