<?xml version="1.0" encoding="UTF-8" standalone="no"?>
<!DOCTYPE svg PUBLIC "-//W3C//DTD SVG 1.1//EN"
 "http://www.w3.org/Graphics/SVG/1.1/DTD/svg11.dtd">
<!-- Generated by graphviz version 2.43.0 (0)
 -->
<!-- Title: AtomicSegment Pages: 1 -->
<svg width="320pt" height="365pt"
 viewBox="0.00 0.00 319.50 365.00" xmlns="http://www.w3.org/2000/svg" xmlns:xlink="http://www.w3.org/1999/xlink">
<g id="graph0" class="graph" transform="scale(1 1) rotate(0) translate(4 361)">
<title>AtomicSegment</title>
<!-- Node1 -->
<g id="Node000001" class="node">
<title>Node1</title>
<g id="a_Node000001"><a xlink:title="Segment atomique entre deux nœuds topologiques potentiels.">
<polygon fill="#999999" stroke="transparent" points="212.5,-79 93.5,-79 93.5,0 212.5,0 212.5,-79"/>
<text text-anchor="start" x="114" y="-66.5" font-family="Helvetica,sans-Serif" font-size="10.00">AtomicSegment</text>
<text text-anchor="start" x="98" y="-51.5" font-family="Helvetica,sans-Serif" font-size="10.00">+</text>
<text text-anchor="start" x="111" y="-51.5" font-family="Helvetica,sans-Serif" font-size="10.00">parentPolylineIndex</text>
<text text-anchor="start" x="98" y="-36.5" font-family="Helvetica,sans-Serif" font-size="10.00">+</text>
<text text-anchor="start" x="111" y="-36.5" font-family="Helvetica,sans-Serif" font-size="10.00">lengthUTM()</text>
<text text-anchor="start" x="98" y="-21.5" font-family="Helvetica,sans-Serif" font-size="10.00">+</text>
<text text-anchor="start" x="111" y="-21.5" font-family="Helvetica,sans-Serif" font-size="10.00">endpointA()</text>
<text text-anchor="start" x="98" y="-6.5" font-family="Helvetica,sans-Serif" font-size="10.00">+</text>
<text text-anchor="start" x="111" y="-6.5" font-family="Helvetica,sans-Serif" font-size="10.00">endpointB()</text>
<polygon fill="#666666" stroke="#666666" points="94,-61.5 94,-61.5 213,-61.5 213,-61.5 94,-61.5"/>
<polygon fill="#666666" stroke="#666666" points="94,-46.5 94,-46.5 109,-46.5 109,-46.5 94,-46.5"/>
<polygon fill="#666666" stroke="#666666" points="109,-46.5 109,-46.5 213,-46.5 213,-46.5 109,-46.5"/>
<polygon fill="none" stroke="#666666" points="93.5,0 93.5,-79 212.5,-79 212.5,0 93.5,0"/>
</a>
</g>
</g>
<!-- Node2 -->
<g id="Node000002" class="node">
<title>Node2</title>
<g id="a_Node000002"><a xlink:title=" ">
<polygon fill="white" stroke="transparent" points="142,-186 0,-186 0,-126 142,-126 142,-186"/>
<text text-anchor="start" x="5" y="-174" font-family="Helvetica,sans-Serif" font-size="10.00">std::vector&lt; CoordinateLat</text>
<text text-anchor="start" x="56.5" y="-163" font-family="Helvetica,sans-Serif" font-size="10.00">Lon &gt;</text>
<text text-anchor="start" x="69" y="-148" font-family="Helvetica,sans-Serif" font-size="10.00"> </text>
<text text-anchor="start" x="69" y="-133" font-family="Helvetica,sans-Serif" font-size="10.00"> </text>
<polygon fill="#666666" stroke="#666666" points="0,-158 0,-158 142,-158 142,-158 0,-158"/>
<polygon fill="#666666" stroke="#666666" points="0,-143 0,-143 142,-143 142,-143 0,-143"/>
<polygon fill="none" stroke="#666666" points="0,-126 0,-186 142,-186 142,-126 0,-126"/>
</a>
</g>
</g>
<!-- Node2&#45;&gt;Node1 -->
<g id="edge1_Node000001_Node000002" class="edge">
<title>Node2&#45;&gt;Node1</title>
<g id="a_edge1_Node000001_Node000002"><a xlink:title=" ">
<path fill="none" stroke="#63b8ff" d="M91.9,-125.81C99.92,-114.62 109.29,-101.53 118.25,-89.02"/>
<polygon fill="none" stroke="#63b8ff" points="118.33,-88.9 118.58,-81.7 125.32,-79.15 125.08,-86.36 118.33,-88.9"/>
</a>
</g>
<text text-anchor="middle" x="150.5" y="-100" font-family="Helvetica,sans-Serif" font-size="10.00" fill="grey"> +pointsWGS84</text>
</g>
<!-- Node3 -->
<g id="Node000003" class="node">
<title>Node3</title>
<g id="a_Node000003"><a xlink:href="../../db/d03/classCoordinateLatLon.html" target="_top" xlink:title="Coordonnée géographique WGS&#45;84 exprimée en degrés décimaux.">
<polygon fill="white" stroke="transparent" points="128.5,-357 13.5,-357 13.5,-233 128.5,-233 128.5,-357"/>
<text text-anchor="start" x="28.5" y="-345" font-family="Helvetica,sans-Serif" font-size="10.00">CoordinateLatLon</text>
<text text-anchor="start" x="18" y="-330" font-family="Helvetica,sans-Serif" font-size="10.00">+</text>
<text text-anchor="start" x="31" y="-330" font-family="Helvetica,sans-Serif" font-size="10.00">latitude</text>
<text text-anchor="start" x="18" y="-315" font-family="Helvetica,sans-Serif" font-size="10.00">+</text>
<text text-anchor="start" x="31" y="-315" font-family="Helvetica,sans-Serif" font-size="10.00">longitude</text>
<text text-anchor="start" x="18" y="-300" font-family="Helvetica,sans-Serif" font-size="10.00">+</text>
<text text-anchor="start" x="31" y="-300" font-family="Helvetica,sans-Serif" font-size="10.00">CoordinateLatLon()</text>
<text text-anchor="start" x="18" y="-285" font-family="Helvetica,sans-Serif" font-size="10.00">+</text>
<text text-anchor="start" x="31" y="-285" font-family="Helvetica,sans-Serif" font-size="10.00">CoordinateLatLon()</text>
<text text-anchor="start" x="18" y="-270" font-family="Helvetica,sans-Serif" font-size="10.00">+</text>
<text text-anchor="start" x="31" y="-270" font-family="Helvetica,sans-Serif" font-size="10.00">operator==()</text>
<text text-anchor="start" x="18" y="-255" font-family="Helvetica,sans-Serif" font-size="10.00">+</text>
<text text-anchor="start" x="31" y="-255" font-family="Helvetica,sans-Serif" font-size="10.00">operator!=()</text>
<text text-anchor="start" x="18" y="-240" font-family="Helvetica,sans-Serif" font-size="10.00">+</text>
<text text-anchor="start" x="31" y="-240" font-family="Helvetica,sans-Serif" font-size="10.00">toString()</text>
<polygon fill="#666666" stroke="#666666" points="14,-340 14,-340 129,-340 129,-340 14,-340"/>
<polygon fill="#666666" stroke="#666666" points="14,-310 14,-310 29,-310 29,-310 14,-310"/>
<polygon fill="#666666" stroke="#666666" points="29,-310 29,-310 129,-310 129,-310 29,-310"/>
<polygon fill="none" stroke="#666666" points="13.5,-233 13.5,-357 128.5,-357 128.5,-233 13.5,-233"/>
</a>
</g>
</g>
<!-- Node3&#45;&gt;Node2 -->
<g id="edge2_Node000002_Node000003" class="edge">
<title>Node3&#45;&gt;Node2</title>
<g id="a_edge2_Node000002_Node000003"><a xlink:title=" ">
<path fill="none" stroke="#63b8ff" d="M71,-232.71C71,-221.04 71,-209.08 71,-198.22"/>
<polygon fill="none" stroke="#63b8ff" points="71,-198.05 67,-192.05 71,-186.05 75,-192.05 71,-198.05"/>
</a>
</g>
<text text-anchor="middle" x="100" y="-207" font-family="Helvetica,sans-Serif" font-size="10.00" fill="grey"> +elements</text>
</g>
<!-- Node4 -->
<g id="Node000004" class="node">
<title>Node4</title>
<g id="a_Node000004"><a xlink:title=" ">
<polygon fill="white" stroke="transparent" points="311.5,-180.5 160.5,-180.5 160.5,-131.5 311.5,-131.5 311.5,-180.5"/>
<text text-anchor="start" x="166" y="-168" font-family="Helvetica,sans-Serif" font-size="10.00">std::vector&lt; CoordinateXY &gt;</text>
<text text-anchor="start" x="234.5" y="-153" font-family="Helvetica,sans-Serif" font-size="10.00"> </text>
<text text-anchor="start" x="234.5" y="-138" font-family="Helvetica,sans-Serif" font-size="10.00"> </text>
<polygon fill="#666666" stroke="#666666" points="161,-163 161,-163 312,-163 312,-163 161,-163"/>
<polygon fill="#666666" stroke="#666666" points="161,-148 161,-148 312,-148 312,-148 161,-148"/>
<polygon fill="none" stroke="#666666" points="160.5,-131.5 160.5,-180.5 311.5,-180.5 311.5,-131.5 160.5,-131.5"/>
</a>
</g>
</g>
<!-- Node4&#45;&gt;Node1 -->
<g id="edge3_Node000001_Node000004" class="edge">
<title>Node4&#45;&gt;Node1</title>
<g id="a_edge3_Node000001_Node000004"><a xlink:title=" ">
<path fill="none" stroke="#63b8ff" d="M218.8,-131.28C209.93,-119.03 198.77,-103.64 188.17,-89.02"/>
<polygon fill="none" stroke="#63b8ff" points="188,-88.78 181.24,-86.27 180.96,-79.07 187.72,-81.58 188,-88.78"/>
</a>
</g>
<text text-anchor="middle" x="232" y="-100" font-family="Helvetica,sans-Serif" font-size="10.00" fill="grey"> +pointsUTM</text>
</g>
<!-- Node5 -->
<g id="Node000005" class="node">
<title>Node5</title>
<g id="a_Node000005"><a xlink:href="../../df/d01/classCoordinateXY.html" target="_top" xlink:title="Coordonnée plane en mètres dans un système métrique (UTM ou similaire).">
<polygon fill="white" stroke="transparent" points="283.5,-357 188.5,-357 188.5,-233 283.5,-233 283.5,-357"/>
<text text-anchor="start" x="203" y="-345" font-family="Helvetica,sans-Serif" font-size="10.00">CoordinateXY</text>
<text text-anchor="start" x="193" y="-330" font-family="Helvetica,sans-Serif" font-size="10.00">+</text>
<text text-anchor="start" x="206" y="-330" font-family="Helvetica,sans-Serif" font-size="10.00">x</text>
<text text-anchor="start" x="193" y="-315" font-family="Helvetica,sans-Serif" font-size="10.00">+</text>
<text text-anchor="start" x="206" y="-315" font-family="Helvetica,sans-Serif" font-size="10.00">y</text>
<text text-anchor="start" x="193" y="-300" font-family="Helvetica,sans-Serif" font-size="10.00">+</text>
<text text-anchor="start" x="206" y="-300" font-family="Helvetica,sans-Serif" font-size="10.00">CoordinateXY()</text>
<text text-anchor="start" x="193" y="-285" font-family="Helvetica,sans-Serif" font-size="10.00">+</text>
<text text-anchor="start" x="206" y="-285" font-family="Helvetica,sans-Serif" font-size="10.00">CoordinateXY()</text>
<text text-anchor="start" x="193" y="-270" font-family="Helvetica,sans-Serif" font-size="10.00">+</text>
<text text-anchor="start" x="206" y="-270" font-family="Helvetica,sans-Serif" font-size="10.00">operator==()</text>
<text text-anchor="start" x="193" y="-255" font-family="Helvetica,sans-Serif" font-size="10.00">+</text>
<text text-anchor="start" x="206" y="-255" font-family="Helvetica,sans-Serif" font-size="10.00">operator!=()</text>
<text text-anchor="start" x="193" y="-240" font-family="Helvetica,sans-Serif" font-size="10.00">+</text>
<text text-anchor="start" x="206" y="-240" font-family="Helvetica,sans-Serif" font-size="10.00">toString()</text>
<polygon fill="#666666" stroke="#666666" points="189,-340 189,-340 284,-340 284,-340 189,-340"/>
<polygon fill="#666666" stroke="#666666" points="189,-310 189,-310 204,-310 204,-310 189,-310"/>
<polygon fill="#666666" stroke="#666666" points="204,-310 204,-310 284,-310 284,-310 204,-310"/>
<polygon fill="none" stroke="#666666" points="188.5,-233 188.5,-357 283.5,-357 283.5,-233 188.5,-233"/>
</a>
</g>
</g>
<!-- Node5&#45;&gt;Node4 -->
<g id="edge4_Node000004_Node000005" class="edge">
<title>Node5&#45;&gt;Node4</title>
<g id="a_edge4_Node000004_Node000005"><a xlink:title=" ">
<path fill="none" stroke="#63b8ff" d="M236,-232.71C236,-218.96 236,-204.83 236,-192.54"/>
<polygon fill="none" stroke="#63b8ff" points="236,-192.51 232,-186.51 236,-180.51 240,-186.51 236,-192.51"/>
</a>
</g>
<text text-anchor="middle" x="265" y="-207" font-family="Helvetica,sans-Serif" font-size="10.00" fill="grey"> +elements</text>
</g>
</g>
</svg>
