<?xml version="1.0" encoding="UTF-8" standalone="no"?>
<!DOCTYPE svg PUBLIC "-//W3C//DTD SVG 1.1//EN"
 "http://www.w3.org/Graphics/SVG/1.1/DTD/svg11.dtd">
<!-- Generated by graphviz version 2.43.0 (0)
 -->
<!-- Title: SimulateurFerroviaire/Modules/InteractiveElements/ShuntingElements/SwitchBlock.h Pages: 1 -->
<svg width="470pt" height="302pt"
 viewBox="0.00 0.00 470.00 302.00" xmlns="http://www.w3.org/2000/svg" xmlns:xlink="http://www.w3.org/1999/xlink">
<g id="graph0" class="graph" transform="scale(1 1) rotate(0) translate(4 298)">
<title>SimulateurFerroviaire/Modules/InteractiveElements/ShuntingElements/SwitchBlock.h</title>
<!-- Node1 -->
<g id="Node000001" class="node">
<title>Node1</title>
<g id="a_Node000001"><a xlink:title="Modèle de domaine d&#39;un aiguillage ferroviaire à 3 branches.">
<polygon fill="#999999" stroke="#666666" points="252.5,-294 73.5,-294 73.5,-253 252.5,-253 252.5,-294"/>
<text text-anchor="start" x="81.5" y="-282" font-family="Helvetica,sans-Serif" font-size="10.00">SimulateurFerroviaire</text>
<text text-anchor="start" x="81.5" y="-271" font-family="Helvetica,sans-Serif" font-size="10.00">/Modules/InteractiveElements</text>
<text text-anchor="middle" x="163" y="-260" font-family="Helvetica,sans-Serif" font-size="10.00">/ShuntingElements/SwitchBlock.h</text>
</a>
</g>
</g>
<!-- Node2 -->
<g id="Node000002" class="node">
<title>Node2</title>
<g id="a_Node000002"><a xlink:title=" ">
<polygon fill="#e0e0e0" stroke="#999999" points="56,-211.5 0,-211.5 0,-192.5 56,-192.5 56,-211.5"/>
<text text-anchor="middle" x="28" y="-199.5" font-family="Helvetica,sans-Serif" font-size="10.00">optional</text>
</a>
</g>
</g>
<!-- Node1&#45;&gt;Node2 -->
<g id="edge1_Node000001_Node000002" class="edge">
<title>Node1&#45;&gt;Node2</title>
<g id="a_edge1_Node000001_Node000002"><a xlink:title=" ">
<path fill="none" stroke="#63b8ff" d="M125.04,-252.96C102.15,-241.17 73.61,-226.48 53.42,-216.09"/>
<polygon fill="#63b8ff" stroke="#63b8ff" points="55.01,-212.97 44.52,-211.5 51.81,-219.19 55.01,-212.97"/>
</a>
</g>
</g>
<!-- Node3 -->
<g id="Node000003" class="node">
<title>Node3</title>
<g id="a_Node000003"><a xlink:title=" ">
<polygon fill="#e0e0e0" stroke="#999999" points="112,-19 56,-19 56,0 112,0 112,-19"/>
<text text-anchor="middle" x="84" y="-7" font-family="Helvetica,sans-Serif" font-size="10.00">sstream</text>
</a>
</g>
</g>
<!-- Node1&#45;&gt;Node3 -->
<g id="edge2_Node000001_Node000003" class="edge">
<title>Node1&#45;&gt;Node3</title>
<g id="a_edge2_Node000001_Node000003"><a xlink:title=" ">
<path fill="none" stroke="#63b8ff" d="M151.17,-252.75C145.36,-242.39 138.63,-229.31 134,-217 108.94,-150.33 93.24,-66.74 87.03,-29.7"/>
<polygon fill="#63b8ff" stroke="#63b8ff" points="90.42,-28.69 85.35,-19.38 83.51,-29.82 90.42,-28.69"/>
</a>
</g>
</g>
<!-- Node4 -->
<g id="Node000004" class="node">
<title>Node4</title>
<g id="a_Node000004"><a xlink:title=" ">
<polygon fill="#e0e0e0" stroke="#999999" points="174,-19 130,-19 130,0 174,0 174,-19"/>
<text text-anchor="middle" x="152" y="-7" font-family="Helvetica,sans-Serif" font-size="10.00">string</text>
</a>
</g>
</g>
<!-- Node1&#45;&gt;Node4 -->
<g id="edge3_Node000001_Node000004" class="edge">
<title>Node1&#45;&gt;Node4</title>
<g id="a_edge3_Node000001_Node000004"><a xlink:title=" ">
<path fill="none" stroke="#63b8ff" d="M153.06,-252.75C148.4,-242.39 143.35,-229.32 141,-217 128,-148.9 140.87,-66.05 147.98,-29.44"/>
<polygon fill="#63b8ff" stroke="#63b8ff" points="151.49,-29.75 150.05,-19.26 144.63,-28.36 151.49,-29.75"/>
</a>
</g>
</g>
<!-- Node5 -->
<g id="Node000005" class="node">
<title>Node5</title>
<g id="a_Node000005"><a xlink:title=" ">
<polygon fill="#e0e0e0" stroke="#999999" points="324.5,-211.5 277.5,-211.5 277.5,-192.5 324.5,-192.5 324.5,-211.5"/>
<text text-anchor="middle" x="301" y="-199.5" font-family="Helvetica,sans-Serif" font-size="10.00">vector</text>
</a>
</g>
</g>
<!-- Node1&#45;&gt;Node5 -->
<g id="edge4_Node000001_Node000005" class="edge">
<title>Node1&#45;&gt;Node5</title>
<g id="a_edge4_Node000001_Node000005"><a xlink:title=" ">
<path fill="none" stroke="#63b8ff" d="M201.81,-252.96C225.21,-241.17 254.38,-226.48 275.01,-216.09"/>
<polygon fill="#63b8ff" stroke="#63b8ff" points="276.76,-219.13 284.12,-211.5 273.61,-212.88 276.76,-219.13"/>
</a>
</g>
</g>
<!-- Node6 -->
<g id="Node000006" class="node">
<title>Node6</title>
<g id="a_Node000006"><a xlink:href="../../df/d02/LatLon_8h.html" target="_top" xlink:title="Représentation d&#39;une coordonnée géographique WGS&#45;84 (latitude, longitude).">
<polygon fill="white" stroke="#666666" points="461.5,-217 342.5,-217 342.5,-187 461.5,-187 461.5,-217"/>
<text text-anchor="start" x="350.5" y="-205" font-family="Helvetica,sans-Serif" font-size="10.00">Modules/Coordinates</text>
<text text-anchor="middle" x="402" y="-194" font-family="Helvetica,sans-Serif" font-size="10.00">/LatLon.h</text>
</a>
</g>
</g>
<!-- Node1&#45;&gt;Node6 -->
<g id="edge5_Node000001_Node000006" class="edge">
<title>Node1&#45;&gt;Node6</title>
<g id="a_edge5_Node000001_Node000006"><a xlink:title=" ">
<path fill="none" stroke="#63b8ff" d="M230.21,-252.96C266.02,-242.54 309.64,-229.86 343.97,-219.88"/>
<polygon fill="#63b8ff" stroke="#63b8ff" points="345.22,-223.16 353.84,-217 343.26,-216.44 345.22,-223.16"/>
</a>
</g>
</g>
<!-- Node7 -->
<g id="Node000007" class="node">
<title>Node7</title>
<g id="a_Node000007"><a xlink:href="../../df/d02/ShuntingElement_8h.html" target="_top" xlink:title="Interface abstraite pour tous les éléments de shuntage ferroviaire.">
<polygon fill="white" stroke="#666666" points="259.5,-211.5 150.5,-211.5 150.5,-192.5 259.5,-192.5 259.5,-211.5"/>
<text text-anchor="middle" x="205" y="-199.5" font-family="Helvetica,sans-Serif" font-size="10.00">ShuntingElement.h</text>
</a>
</g>
</g>
<!-- Node1&#45;&gt;Node7 -->
<g id="edge6_Node000001_Node000007" class="edge">
<title>Node1&#45;&gt;Node7</title>
<g id="a_edge6_Node000001_Node000007"><a xlink:title=" ">
<path fill="none" stroke="#63b8ff" d="M174.92,-252.77C181.03,-242.66 188.42,-230.44 194.34,-220.64"/>
<polygon fill="#63b8ff" stroke="#63b8ff" points="197.49,-222.19 199.67,-211.82 191.5,-218.57 197.49,-222.19"/>
</a>
</g>
</g>
<!-- Node8 -->
<g id="Node000008" class="node">
<title>Node8</title>
<g id="a_Node000008"><a xlink:href="../../d6/d02/InteractiveElement_8h.html" target="_top" xlink:title="Classe de base abstraite pour tous les éléments interactifs ferroviaires.">
<polygon fill="white" stroke="#666666" points="308.5,-151 149.5,-151 149.5,-121 308.5,-121 308.5,-151"/>
<text text-anchor="start" x="157.5" y="-139" font-family="Helvetica,sans-Serif" font-size="10.00">Modules/InteractiveElements</text>
<text text-anchor="middle" x="229" y="-128" font-family="Helvetica,sans-Serif" font-size="10.00">/InteractiveElement.h</text>
</a>
</g>
</g>
<!-- Node7&#45;&gt;Node8 -->
<g id="edge7_Node000007_Node000008" class="edge">
<title>Node7&#45;&gt;Node8</title>
<g id="a_edge7_Node000007_Node000008"><a xlink:title=" ">
<path fill="none" stroke="#63b8ff" d="M208.24,-192.37C211.25,-184.32 215.9,-171.94 220.03,-160.93"/>
<polygon fill="#63b8ff" stroke="#63b8ff" points="223.38,-161.95 223.61,-151.36 216.83,-159.49 223.38,-161.95"/>
</a>
</g>
</g>
<!-- Node8&#45;&gt;Node4 -->
<g id="edge8_Node000008_Node000004" class="edge">
<title>Node8&#45;&gt;Node4</title>
<g id="a_edge8_Node000008_Node000004"><a xlink:title=" ">
<path fill="none" stroke="#63b8ff" d="M211.72,-120.69C201.38,-111.4 188.62,-98.53 180,-85 168.89,-67.56 161.2,-45.05 156.73,-29.35"/>
<polygon fill="#63b8ff" stroke="#63b8ff" points="160,-28.06 154.04,-19.3 153.24,-29.87 160,-28.06"/>
</a>
</g>
</g>
<!-- Node9 -->
<g id="Node000009" class="node">
<title>Node9</title>
<g id="a_Node000009"><a xlink:href="../../dd/d00/Logger_8h.html" target="_top" xlink:title="Système de journalisation à 5 niveaux de trace, un fichier par moteur.">
<polygon fill="white" stroke="#666666" points="299.5,-85 188.5,-85 188.5,-55 299.5,-55 299.5,-85"/>
<text text-anchor="start" x="196.5" y="-73" font-family="Helvetica,sans-Serif" font-size="10.00">Engine/Core/Logger</text>
<text text-anchor="middle" x="244" y="-62" font-family="Helvetica,sans-Serif" font-size="10.00">/Logger.h</text>
</a>
</g>
</g>
<!-- Node8&#45;&gt;Node9 -->
<g id="edge9_Node000008_Node000009" class="edge">
<title>Node8&#45;&gt;Node9</title>
<g id="a_edge9_Node000008_Node000009"><a xlink:title=" ">
<path fill="none" stroke="#63b8ff" d="M232.33,-120.8C234.1,-113.26 236.32,-103.78 238.34,-95.13"/>
<polygon fill="#63b8ff" stroke="#63b8ff" points="241.81,-95.7 240.68,-85.16 234.99,-94.1 241.81,-95.7"/>
</a>
</g>
</g>
<!-- Node9&#45;&gt;Node3 -->
<g id="edge14_Node000009_Node000003" class="edge">
<title>Node9&#45;&gt;Node3</title>
<g id="a_edge14_Node000009_Node000003"><a xlink:title=" ">
<path fill="none" stroke="#63b8ff" d="M205.68,-54.99C178.74,-45.14 143.07,-32.1 117.31,-22.68"/>
<polygon fill="#63b8ff" stroke="#63b8ff" points="118.22,-19.29 107.63,-19.14 115.82,-25.86 118.22,-19.29"/>
</a>
</g>
</g>
<!-- Node9&#45;&gt;Node4 -->
<g id="edge15_Node000009_Node000004" class="edge">
<title>Node9&#45;&gt;Node4</title>
<g id="a_edge15_Node000009_Node000004"><a xlink:title=" ">
<path fill="none" stroke="#63b8ff" d="M221.73,-54.84C207.33,-45.68 188.67,-33.82 174.27,-24.66"/>
<polygon fill="#63b8ff" stroke="#63b8ff" points="175.83,-21.51 165.52,-19.09 172.08,-27.41 175.83,-21.51"/>
</a>
</g>
</g>
<!-- Node10 -->
<g id="Node000010" class="node">
<title>Node10</title>
<g id="a_Node000010"><a xlink:title=" ">
<polygon fill="#e0e0e0" stroke="#999999" points="376,-19 332,-19 332,0 376,0 376,-19"/>
<text text-anchor="middle" x="354" y="-7" font-family="Helvetica,sans-Serif" font-size="10.00">ctime</text>
</a>
</g>
</g>
<!-- Node9&#45;&gt;Node10 -->
<g id="edge10_Node000009_Node000010" class="edge">
<title>Node9&#45;&gt;Node10</title>
<g id="a_edge10_Node000009_Node000010"><a xlink:title=" ">
<path fill="none" stroke="#63b8ff" d="M270.35,-54.99C288.05,-45.58 311.23,-33.24 328.71,-23.95"/>
<polygon fill="#63b8ff" stroke="#63b8ff" points="330.57,-26.92 337.76,-19.14 327.28,-20.74 330.57,-26.92"/>
</a>
</g>
</g>
<!-- Node11 -->
<g id="Node000011" class="node">
<title>Node11</title>
<g id="a_Node000011"><a xlink:title=" ">
<polygon fill="#e0e0e0" stroke="#999999" points="462,-19 394,-19 394,0 462,0 462,-19"/>
<text text-anchor="middle" x="428" y="-7" font-family="Helvetica,sans-Serif" font-size="10.00">filesystem</text>
</a>
</g>
</g>
<!-- Node9&#45;&gt;Node11 -->
<g id="edge11_Node000009_Node000011" class="edge">
<title>Node9&#45;&gt;Node11</title>
<g id="a_edge11_Node000009_Node000011"><a xlink:title=" ">
<path fill="none" stroke="#63b8ff" d="M288.07,-54.99C319.69,-44.94 361.78,-31.55 391.52,-22.1"/>
<polygon fill="#63b8ff" stroke="#63b8ff" points="392.63,-25.42 401.1,-19.05 390.51,-18.75 392.63,-25.42"/>
</a>
</g>
</g>
<!-- Node12 -->
<g id="Node000012" class="node">
<title>Node12</title>
<g id="a_Node000012"><a xlink:title=" ">
<polygon fill="#e0e0e0" stroke="#999999" points="247.5,-19 192.5,-19 192.5,0 247.5,0 247.5,-19"/>
<text text-anchor="middle" x="220" y="-7" font-family="Helvetica,sans-Serif" font-size="10.00">fstream</text>
</a>
</g>
</g>
<!-- Node9&#45;&gt;Node12 -->
<g id="edge12_Node000009_Node000012" class="edge">
<title>Node9&#45;&gt;Node12</title>
<g id="a_edge12_Node000009_Node000012"><a xlink:title=" ">
<path fill="none" stroke="#63b8ff" d="M238.19,-54.84C234.96,-46.95 230.89,-37.05 227.43,-28.61"/>
<polygon fill="#63b8ff" stroke="#63b8ff" points="230.63,-27.19 223.6,-19.27 224.15,-29.85 230.63,-27.19"/>
</a>
</g>
</g>
<!-- Node13 -->
<g id="Node000013" class="node">
<title>Node13</title>
<g id="a_Node000013"><a xlink:title=" ">
<polygon fill="#e0e0e0" stroke="#999999" points="314,-19 266,-19 266,0 314,0 314,-19"/>
<text text-anchor="middle" x="290" y="-7" font-family="Helvetica,sans-Serif" font-size="10.00">mutex</text>
</a>
</g>
</g>
<!-- Node9&#45;&gt;Node13 -->
<g id="edge13_Node000009_Node000013" class="edge">
<title>Node9&#45;&gt;Node13</title>
<g id="a_edge13_Node000009_Node000013"><a xlink:title=" ">
<path fill="none" stroke="#63b8ff" d="M255.14,-54.84C261.68,-46.52 269.98,-35.96 276.84,-27.23"/>
<polygon fill="#63b8ff" stroke="#63b8ff" points="279.68,-29.29 283.11,-19.27 274.17,-24.96 279.68,-29.29"/>
</a>
</g>
</g>
</g>
</svg>
