<?xml version="1.0" encoding="UTF-8" standalone="no"?>
<!DOCTYPE svg PUBLIC "-//W3C//DTD SVG 1.1//EN"
 "http://www.w3.org/Graphics/SVG/1.1/DTD/svg11.dtd">
<!-- Generated by graphviz version 2.43.0 (0)
 -->
<!-- Title: SimulateurFerroviaire/Modules/PCC/PCCSwitchNode.h Pages: 1 -->
<svg width="1041pt" height="467pt"
 viewBox="0.00 0.00 1041.00 467.00" xmlns="http://www.w3.org/2000/svg" xmlns:xlink="http://www.w3.org/1999/xlink">
<g id="graph0" class="graph" transform="scale(1 1) rotate(0) translate(4 463)">
<title>SimulateurFerroviaire/Modules/PCC/PCCSwitchNode.h</title>
<!-- Node1 -->
<g id="Node000001" class="node">
<title>Node1</title>
<g id="a_Node000001"><a xlink:title="Nœud PCC représentant un SwitchBlock.">
<polygon fill="#999999" stroke="#666666" points="439.5,-459 266.5,-459 266.5,-429 439.5,-429 439.5,-459"/>
<text text-anchor="start" x="274.5" y="-447" font-family="Helvetica,sans-Serif" font-size="10.00">SimulateurFerroviaire</text>
<text text-anchor="middle" x="353" y="-436" font-family="Helvetica,sans-Serif" font-size="10.00">/Modules/PCC/PCCSwitchNode.h</text>
</a>
</g>
</g>
<!-- Node2 -->
<g id="Node000002" class="node">
<title>Node2</title>
<g id="a_Node000002"><a xlink:href="../../d4/d02/TCORenderer_8cpp.html" target="_top" xlink:title="Renderer GDI TCO — style SNCF, blocs fixes.">
<polygon fill="white" stroke="#666666" points="129,-250 5,-250 5,-209 129,-209 129,-250"/>
<text text-anchor="start" x="13" y="-238" font-family="Helvetica,sans-Serif" font-size="10.00">SimulateurFerroviaire</text>
<text text-anchor="start" x="13" y="-227" font-family="Helvetica,sans-Serif" font-size="10.00">/Engine/HMI/PCCPanel</text>
<text text-anchor="middle" x="67" y="-216" font-family="Helvetica,sans-Serif" font-size="10.00">/TCORenderer.cpp</text>
</a>
</g>
</g>
<!-- Node1&#45;&gt;Node2 -->
<g id="edge1_Node000001_Node000002" class="edge">
<title>Node1&#45;&gt;Node2</title>
<g id="a_edge1_Node000001_Node000002"><a xlink:title=" ">
<path fill="none" stroke="#63b8ff" d="M261.36,-426.5C202.25,-410.98 128.69,-381.59 86,-327 68.75,-304.94 65.8,-271.54 65.91,-250.38"/>
<polygon fill="#63b8ff" stroke="#63b8ff" points="260.53,-429.9 271.09,-428.97 262.25,-423.12 260.53,-429.9"/>
</a>
</g>
</g>
<!-- Node3 -->
<g id="Node000003" class="node">
<title>Node3</title>
<g id="a_Node000003"><a xlink:href="../../d8/d02/TCORenderer_8h.html" target="_top" xlink:title="Renderer GDI du schéma TCO — style SNCF, blocs fixes.">
<polygon fill="white" stroke="#666666" points="219,-327 95,-327 95,-286 219,-286 219,-327"/>
<text text-anchor="start" x="103" y="-315" font-family="Helvetica,sans-Serif" font-size="10.00">SimulateurFerroviaire</text>
<text text-anchor="start" x="103" y="-304" font-family="Helvetica,sans-Serif" font-size="10.00">/Engine/HMI/PCCPanel</text>
<text text-anchor="middle" x="157" y="-293" font-family="Helvetica,sans-Serif" font-size="10.00">/TCORenderer.h</text>
</a>
</g>
</g>
<!-- Node1&#45;&gt;Node3 -->
<g id="edge2_Node000001_Node000003" class="edge">
<title>Node1&#45;&gt;Node3</title>
<g id="a_edge2_Node000001_Node000003"><a xlink:title=" ">
<path fill="none" stroke="#63b8ff" d="M320.06,-423.55C305.19,-414.54 287.51,-403.53 272,-393 240.3,-371.49 205.12,-344.92 182.12,-327.16"/>
<polygon fill="#63b8ff" stroke="#63b8ff" points="318.54,-426.72 328.91,-428.87 322.14,-420.72 318.54,-426.72"/>
</a>
</g>
</g>
<!-- Node11 -->
<g id="Node000011" class="node">
<title>Node11</title>
<g id="a_Node000011"><a xlink:href="../../d8/d00/PCCGraph_8h.html" target="_top" xlink:title="Conteneur propriétaire du graphe PCC.">
<polygon fill="white" stroke="#666666" points="425,-393 281,-393 281,-363 425,-363 425,-393"/>
<text text-anchor="start" x="289" y="-381" font-family="Helvetica,sans-Serif" font-size="10.00">SimulateurFerroviaire</text>
<text text-anchor="middle" x="353" y="-370" font-family="Helvetica,sans-Serif" font-size="10.00">/Modules/PCC/PCCGraph.h</text>
</a>
</g>
</g>
<!-- Node1&#45;&gt;Node11 -->
<g id="edge12_Node000001_Node000011" class="edge">
<title>Node1&#45;&gt;Node11</title>
<g id="a_edge12_Node000001_Node000011"><a xlink:title=" ">
<path fill="none" stroke="#63b8ff" d="M353,-418.54C353,-409.96 353,-400.61 353,-393.16"/>
<polygon fill="#63b8ff" stroke="#63b8ff" points="349.5,-418.8 353,-428.8 356.5,-418.8 349.5,-418.8"/>
</a>
</g>
</g>
<!-- Node16 -->
<g id="Node000016" class="node">
<title>Node16</title>
<g id="a_Node000016"><a xlink:href="../../d3/d02/PCCLayout_8cpp.html" target="_top" xlink:title="Implémentation du calculateur de positions logiques PCC.">
<polygon fill="white" stroke="#666666" points="886.5,-244.5 727.5,-244.5 727.5,-214.5 886.5,-214.5 886.5,-244.5"/>
<text text-anchor="start" x="735.5" y="-232.5" font-family="Helvetica,sans-Serif" font-size="10.00">SimulateurFerroviaire</text>
<text text-anchor="middle" x="807" y="-221.5" font-family="Helvetica,sans-Serif" font-size="10.00">/Modules/PCC/PCCLayout.cpp</text>
</a>
</g>
</g>
<!-- Node1&#45;&gt;Node16 -->
<g id="edge22_Node000001_Node000016" class="edge">
<title>Node1&#45;&gt;Node16</title>
<g id="a_edge22_Node000001_Node000016"><a xlink:title=" ">
<path fill="none" stroke="#63b8ff" d="M449.68,-431.39C567.94,-415.03 757.9,-381 802,-327 821.1,-303.61 815.81,-265.41 810.99,-244.78"/>
<polygon fill="#63b8ff" stroke="#63b8ff" points="448.97,-427.96 439.53,-432.78 449.91,-434.89 448.97,-427.96"/>
</a>
</g>
</g>
<!-- Node17 -->
<g id="Node000017" class="node">
<title>Node17</title>
<g id="a_Node000017"><a xlink:href="../../d7/d00/PCCSwitchNode_8cpp.html" target="_top" xlink:title="Implémentation du nœud PCC pour aiguillage.">
<polygon fill="white" stroke="#666666" points="1033,-393 849,-393 849,-363 1033,-363 1033,-393"/>
<text text-anchor="start" x="857" y="-381" font-family="Helvetica,sans-Serif" font-size="10.00">SimulateurFerroviaire</text>
<text text-anchor="middle" x="941" y="-370" font-family="Helvetica,sans-Serif" font-size="10.00">/Modules/PCC/PCCSwitchNode.cpp</text>
</a>
</g>
</g>
<!-- Node1&#45;&gt;Node17 -->
<g id="edge23_Node000001_Node000017" class="edge">
<title>Node1&#45;&gt;Node17</title>
<g id="a_edge23_Node000001_Node000017"><a xlink:title=" ">
<path fill="none" stroke="#63b8ff" d="M449.84,-433.76C547.23,-424.27 701.65,-408.72 835,-393 839.52,-392.47 844.14,-391.91 848.81,-391.33"/>
<polygon fill="#63b8ff" stroke="#63b8ff" points="449.33,-430.29 439.72,-434.74 450.01,-437.26 449.33,-430.29"/>
</a>
</g>
</g>
<!-- Node3&#45;&gt;Node2 -->
<g id="edge11_Node000003_Node000002" class="edge">
<title>Node3&#45;&gt;Node2</title>
<g id="a_edge11_Node000003_Node000002"><a xlink:title=" ">
<path fill="none" stroke="#63b8ff" d="M125.62,-279.35C114.08,-269.73 101.22,-259.01 90.49,-250.07"/>
<polygon fill="#63b8ff" stroke="#63b8ff" points="123.43,-282.08 133.35,-285.79 127.91,-276.7 123.43,-282.08"/>
</a>
</g>
</g>
<!-- Node4 -->
<g id="Node000004" class="node">
<title>Node4</title>
<g id="a_Node000004"><a xlink:href="../../d4/d03/PCCPanel_8cpp.html" target="_top" xlink:title="Implémentation du panneau PCC superposé togglable.">
<polygon fill="white" stroke="#666666" points="467,-173 343,-173 343,-132 467,-132 467,-173"/>
<text text-anchor="start" x="351" y="-161" font-family="Helvetica,sans-Serif" font-size="10.00">SimulateurFerroviaire</text>
<text text-anchor="start" x="351" y="-150" font-family="Helvetica,sans-Serif" font-size="10.00">/Engine/HMI/PCCPanel</text>
<text text-anchor="middle" x="405" y="-139" font-family="Helvetica,sans-Serif" font-size="10.00">/PCCPanel.cpp</text>
</a>
</g>
</g>
<!-- Node3&#45;&gt;Node4 -->
<g id="edge3_Node000003_Node000004" class="edge">
<title>Node3&#45;&gt;Node4</title>
<g id="a_edge3_Node000003_Node000004"><a xlink:title=" ">
<path fill="none" stroke="#63b8ff" d="M154.93,-275.52C155.16,-254.23 159.16,-226.45 176,-209 224.82,-158.43 261.76,-189.84 330,-173 334.18,-171.97 338.49,-170.89 342.82,-169.79"/>
<polygon fill="#63b8ff" stroke="#63b8ff" points="151.43,-275.72 155.09,-285.67 158.43,-275.61 151.43,-275.72"/>
</a>
</g>
</g>
<!-- Node5 -->
<g id="Node000005" class="node">
<title>Node5</title>
<g id="a_Node000005"><a xlink:href="../../d5/d00/PCCPanel_8h.html" target="_top" xlink:title="Panneau PCC superposé togglable, affiché par&#45;dessus la carte Leaflet.">
<polygon fill="white" stroke="#666666" points="309,-250 185,-250 185,-209 309,-209 309,-250"/>
<text text-anchor="start" x="193" y="-238" font-family="Helvetica,sans-Serif" font-size="10.00">SimulateurFerroviaire</text>
<text text-anchor="start" x="193" y="-227" font-family="Helvetica,sans-Serif" font-size="10.00">/Engine/HMI/PCCPanel</text>
<text text-anchor="middle" x="247" y="-216" font-family="Helvetica,sans-Serif" font-size="10.00">/PCCPanel.h</text>
</a>
</g>
</g>
<!-- Node3&#45;&gt;Node5 -->
<g id="edge4_Node000003_Node000005" class="edge">
<title>Node3&#45;&gt;Node5</title>
<g id="a_edge4_Node000003_Node000005"><a xlink:title=" ">
<path fill="none" stroke="#63b8ff" d="M188.38,-279.35C199.92,-269.73 212.78,-259.01 223.51,-250.07"/>
<polygon fill="#63b8ff" stroke="#63b8ff" points="186.09,-276.7 180.65,-285.79 190.57,-282.08 186.09,-276.7"/>
</a>
</g>
</g>
<!-- Node5&#45;&gt;Node4 -->
<g id="edge10_Node000005_Node000004" class="edge">
<title>Node5&#45;&gt;Node4</title>
<g id="a_edge10_Node000005_Node000004"><a xlink:title=" ">
<path fill="none" stroke="#63b8ff" d="M297.38,-204.59C318.82,-194.41 343.51,-182.69 363.83,-173.04"/>
<polygon fill="#63b8ff" stroke="#63b8ff" points="295.63,-201.54 288.1,-208.99 298.63,-207.86 295.63,-201.54"/>
</a>
</g>
</g>
<!-- Node6 -->
<g id="Node000006" class="node">
<title>Node6</title>
<g id="a_Node000006"><a xlink:href="../../da/d00/MainWindow_8h.html" target="_top" xlink:title="Déclaration de la fenêtre principale de l&#39;application.">
<polygon fill="white" stroke="#666666" points="321.5,-167.5 172.5,-167.5 172.5,-137.5 321.5,-137.5 321.5,-167.5"/>
<text text-anchor="start" x="180.5" y="-155.5" font-family="Helvetica,sans-Serif" font-size="10.00">SimulateurFerroviaire</text>
<text text-anchor="middle" x="247" y="-144.5" font-family="Helvetica,sans-Serif" font-size="10.00">/Engine/HMI/MainWindow.h</text>
</a>
</g>
</g>
<!-- Node5&#45;&gt;Node6 -->
<g id="edge5_Node000005_Node000006" class="edge">
<title>Node5&#45;&gt;Node6</title>
<g id="a_edge5_Node000005_Node000006"><a xlink:title=" ">
<path fill="none" stroke="#63b8ff" d="M247,-198.61C247,-188.01 247,-176.57 247,-167.86"/>
<polygon fill="#63b8ff" stroke="#63b8ff" points="243.5,-198.79 247,-208.79 250.5,-198.79 243.5,-198.79"/>
</a>
</g>
</g>
<!-- Node7 -->
<g id="Node000007" class="node">
<title>Node7</title>
<g id="a_Node000007"><a xlink:href="../../d4/d00/Application_8h.html" target="_top" xlink:title="Gestion du cycle de vie de l&#39;application Win32.">
<polygon fill="white" stroke="#666666" points="234.5,-96 89.5,-96 89.5,-66 234.5,-66 234.5,-96"/>
<text text-anchor="start" x="97.5" y="-84" font-family="Helvetica,sans-Serif" font-size="10.00">SimulateurFerroviaire</text>
<text text-anchor="middle" x="162" y="-73" font-family="Helvetica,sans-Serif" font-size="10.00">/Engine/Core/Application.h</text>
</a>
</g>
</g>
<!-- Node6&#45;&gt;Node7 -->
<g id="edge6_Node000006_Node000007" class="edge">
<title>Node6&#45;&gt;Node7</title>
<g id="a_edge6_Node000006_Node000007"><a xlink:title=" ">
<path fill="none" stroke="#63b8ff" d="M221.69,-130.81C207.98,-119.59 191.38,-106.02 179.18,-96.04"/>
<polygon fill="#63b8ff" stroke="#63b8ff" points="219.84,-133.82 229.8,-137.44 224.27,-128.4 219.84,-133.82"/>
</a>
</g>
</g>
<!-- Node10 -->
<g id="Node000010" class="node">
<title>Node10</title>
<g id="a_Node000010"><a xlink:href="../../d3/d03/MainWindow_8cpp.html" target="_top" xlink:title="Implémentation de la fenêtre principale.">
<polygon fill="white" stroke="#666666" points="413.5,-96 252.5,-96 252.5,-66 413.5,-66 413.5,-96"/>
<text text-anchor="start" x="260.5" y="-84" font-family="Helvetica,sans-Serif" font-size="10.00">SimulateurFerroviaire</text>
<text text-anchor="middle" x="333" y="-73" font-family="Helvetica,sans-Serif" font-size="10.00">/Engine/HMI/MainWindow.cpp</text>
</a>
</g>
</g>
<!-- Node6&#45;&gt;Node10 -->
<g id="edge9_Node000006_Node000010" class="edge">
<title>Node6&#45;&gt;Node10</title>
<g id="a_edge9_Node000006_Node000010"><a xlink:title=" ">
<path fill="none" stroke="#63b8ff" d="M272.21,-131.13C286.17,-119.85 303.16,-106.12 315.62,-96.04"/>
<polygon fill="#63b8ff" stroke="#63b8ff" points="269.98,-128.43 264.4,-137.44 274.38,-133.87 269.98,-128.43"/>
</a>
</g>
</g>
<!-- Node8 -->
<g id="Node000008" class="node">
<title>Node8</title>
<g id="a_Node000008"><a xlink:href="../../d2/d02/Application_8cpp.html" target="_top" xlink:title="Implémentation du cycle de vie de l&#39;application Win32.">
<polygon fill="white" stroke="#666666" points="156,-30 0,-30 0,0 156,0 156,-30"/>
<text text-anchor="start" x="8" y="-18" font-family="Helvetica,sans-Serif" font-size="10.00">SimulateurFerroviaire</text>
<text text-anchor="middle" x="78" y="-7" font-family="Helvetica,sans-Serif" font-size="10.00">/Engine/Core/Application.cpp</text>
</a>
</g>
</g>
<!-- Node7&#45;&gt;Node8 -->
<g id="edge7_Node000007_Node000008" class="edge">
<title>Node7&#45;&gt;Node8</title>
<g id="a_edge7_Node000007_Node000008"><a xlink:title=" ">
<path fill="none" stroke="#63b8ff" d="M135.06,-59.48C122.51,-49.91 107.89,-38.77 96.59,-30.16"/>
<polygon fill="#63b8ff" stroke="#63b8ff" points="133.28,-62.52 143.36,-65.8 137.52,-56.95 133.28,-62.52"/>
</a>
</g>
</g>
<!-- Node9 -->
<g id="Node000009" class="node">
<title>Node9</title>
<g id="a_Node000009"><a xlink:href="../../db/d00/SimulateurFerroviaire_8cpp.html" target="_top" xlink:title="Point d&#39;entrée unique de l&#39;application Win32.">
<polygon fill="white" stroke="#666666" points="320,-30 174,-30 174,0 320,0 320,-30"/>
<text text-anchor="start" x="182" y="-18" font-family="Helvetica,sans-Serif" font-size="10.00">SimulateurFerroviaire</text>
<text text-anchor="middle" x="247" y="-7" font-family="Helvetica,sans-Serif" font-size="10.00">/SimulateurFerroviaire.cpp</text>
</a>
</g>
</g>
<!-- Node7&#45;&gt;Node9 -->
<g id="edge8_Node000007_Node000009" class="edge">
<title>Node7&#45;&gt;Node9</title>
<g id="a_edge8_Node000007_Node000009"><a xlink:title=" ">
<path fill="none" stroke="#63b8ff" d="M188.89,-59.75C201.67,-50.13 216.64,-38.86 228.19,-30.16"/>
<polygon fill="#63b8ff" stroke="#63b8ff" points="186.75,-56.99 180.86,-65.8 190.96,-62.58 186.75,-56.99"/>
</a>
</g>
</g>
<!-- Node11&#45;&gt;Node3 -->
<g id="edge14_Node000011_Node000003" class="edge">
<title>Node11&#45;&gt;Node3</title>
<g id="a_edge14_Node000011_Node000003"><a xlink:title=" ">
<path fill="none" stroke="#63b8ff" d="M303.8,-359.55C275.93,-349.67 241,-337.28 212.2,-327.07"/>
<polygon fill="#63b8ff" stroke="#63b8ff" points="302.74,-362.89 313.34,-362.94 305.08,-356.29 302.74,-362.89"/>
</a>
</g>
</g>
<!-- Node11&#45;&gt;Node5 -->
<g id="edge13_Node000011_Node000005" class="edge">
<title>Node11&#45;&gt;Node5</title>
<g id="a_edge13_Node000011_Node000005"><a xlink:title=" ">
<path fill="none" stroke="#63b8ff" d="M303.81,-358.15C289.66,-350.48 275.49,-340.24 266,-327 249.69,-304.24 246.48,-271.04 246.28,-250.11"/>
<polygon fill="#63b8ff" stroke="#63b8ff" points="302.57,-361.43 313.07,-362.82 305.72,-355.19 302.57,-361.43"/>
</a>
</g>
</g>
<!-- Node12 -->
<g id="Node000012" class="node">
<title>Node12</title>
<g id="a_Node000012"><a xlink:href="../../d9/d00/PCCGraph_8cpp.html" target="_top" xlink:title="Implémentation du conteneur propriétaire du graphe PCC.">
<polygon fill="white" stroke="#666666" points="430.5,-321.5 275.5,-321.5 275.5,-291.5 430.5,-291.5 430.5,-321.5"/>
<text text-anchor="start" x="283.5" y="-309.5" font-family="Helvetica,sans-Serif" font-size="10.00">SimulateurFerroviaire</text>
<text text-anchor="middle" x="353" y="-298.5" font-family="Helvetica,sans-Serif" font-size="10.00">/Modules/PCC/PCCGraph.cpp</text>
</a>
</g>
</g>
<!-- Node11&#45;&gt;Node12 -->
<g id="edge15_Node000011_Node000012" class="edge">
<title>Node11&#45;&gt;Node12</title>
<g id="a_edge15_Node000011_Node000012"><a xlink:title=" ">
<path fill="none" stroke="#63b8ff" d="M353,-352.75C353,-342.31 353,-330.49 353,-321.54"/>
<polygon fill="#63b8ff" stroke="#63b8ff" points="349.5,-352.94 353,-362.94 356.5,-352.94 349.5,-352.94"/>
</a>
</g>
</g>
<!-- Node13 -->
<g id="Node000013" class="node">
<title>Node13</title>
<g id="a_Node000013"><a xlink:href="../../db/d02/PCCGraphBuilder_8h.html" target="_top" xlink:title="Constructeur du graphe PCC depuis TopologyRepository.">
<polygon fill="white" stroke="#666666" points="627,-321.5 449,-321.5 449,-291.5 627,-291.5 627,-321.5"/>
<text text-anchor="start" x="457" y="-309.5" font-family="Helvetica,sans-Serif" font-size="10.00">SimulateurFerroviaire</text>
<text text-anchor="middle" x="538" y="-298.5" font-family="Helvetica,sans-Serif" font-size="10.00">/Modules/PCC/PCCGraphBuilder.h</text>
</a>
</g>
</g>
<!-- Node11&#45;&gt;Node13 -->
<g id="edge16_Node000011_Node000013" class="edge">
<title>Node11&#45;&gt;Node13</title>
<g id="a_edge16_Node000011_Node000013"><a xlink:title=" ">
<path fill="none" stroke="#63b8ff" d="M399.81,-359.42C431.04,-347.68 471.55,-332.47 500.62,-321.54"/>
<polygon fill="#63b8ff" stroke="#63b8ff" points="398.57,-356.14 390.44,-362.94 401.03,-362.7 398.57,-356.14"/>
</a>
</g>
</g>
<!-- Node15 -->
<g id="Node000015" class="node">
<title>Node15</title>
<g id="a_Node000015"><a xlink:href="../../d6/d01/PCCLayout_8h.html" target="_top" xlink:title="Calcul des positions logiques X/Y du graphe PCC par parcours BFS.">
<polygon fill="white" stroke="#666666" points="793,-321.5 645,-321.5 645,-291.5 793,-291.5 793,-321.5"/>
<text text-anchor="start" x="653" y="-309.5" font-family="Helvetica,sans-Serif" font-size="10.00">SimulateurFerroviaire</text>
<text text-anchor="middle" x="719" y="-298.5" font-family="Helvetica,sans-Serif" font-size="10.00">/Modules/PCC/PCCLayout.h</text>
</a>
</g>
</g>
<!-- Node11&#45;&gt;Node15 -->
<g id="edge19_Node000011_Node000015" class="edge">
<title>Node11&#45;&gt;Node15</title>
<g id="a_edge19_Node000011_Node000015"><a xlink:title=" ">
<path fill="none" stroke="#63b8ff" d="M435.01,-363.76C491.63,-354.31 568.58,-340.87 636,-327 644.12,-325.33 652.66,-323.46 661.04,-321.55"/>
<polygon fill="#63b8ff" stroke="#63b8ff" points="434.32,-360.32 425.03,-365.41 435.47,-367.23 434.32,-360.32"/>
</a>
</g>
</g>
<!-- Node13&#45;&gt;Node4 -->
<g id="edge17_Node000013_Node000004" class="edge">
<title>Node13&#45;&gt;Node4</title>
<g id="a_edge17_Node000013_Node000004"><a xlink:title=" ">
<path fill="none" stroke="#63b8ff" d="M486.36,-287.27C467.92,-278.51 448.42,-266.3 435,-250 416.71,-227.79 409.54,-194.43 406.75,-173.33"/>
<polygon fill="#63b8ff" stroke="#63b8ff" points="485.02,-290.5 495.57,-291.41 487.89,-284.12 485.02,-290.5"/>
</a>
</g>
</g>
<!-- Node14 -->
<g id="Node000014" class="node">
<title>Node14</title>
<g id="a_Node000014"><a xlink:href="../../d0/d01/PCCGraphBuilder_8cpp.html" target="_top" xlink:title="Implémentation du constructeur du graphe PCC.">
<polygon fill="white" stroke="#666666" points="632.5,-244.5 443.5,-244.5 443.5,-214.5 632.5,-214.5 632.5,-244.5"/>
<text text-anchor="start" x="451.5" y="-232.5" font-family="Helvetica,sans-Serif" font-size="10.00">SimulateurFerroviaire</text>
<text text-anchor="middle" x="538" y="-221.5" font-family="Helvetica,sans-Serif" font-size="10.00">/Modules/PCC/PCCGraphBuilder.cpp</text>
</a>
</g>
</g>
<!-- Node13&#45;&gt;Node14 -->
<g id="edge18_Node000013_Node000014" class="edge">
<title>Node13&#45;&gt;Node14</title>
<g id="a_edge18_Node000013_Node000014"><a xlink:title=" ">
<path fill="none" stroke="#63b8ff" d="M538,-281.04C538,-268.95 538,-254.79 538,-244.54"/>
<polygon fill="#63b8ff" stroke="#63b8ff" points="534.5,-281.39 538,-291.39 541.5,-281.39 534.5,-281.39"/>
</a>
</g>
</g>
<!-- Node15&#45;&gt;Node4 -->
<g id="edge20_Node000015_Node000004" class="edge">
<title>Node15&#45;&gt;Node4</title>
<g id="a_edge20_Node000015_Node000004"><a xlink:title=" ">
<path fill="none" stroke="#63b8ff" d="M706.68,-282.38C693.6,-260.13 670.85,-227.24 642,-209 588.95,-175.47 517.7,-162.17 467.21,-156.9"/>
<polygon fill="#63b8ff" stroke="#63b8ff" points="703.7,-284.23 711.68,-291.2 709.79,-280.77 703.7,-284.23"/>
</a>
</g>
</g>
<!-- Node15&#45;&gt;Node16 -->
<g id="edge21_Node000015_Node000016" class="edge">
<title>Node15&#45;&gt;Node16</title>
<g id="a_edge21_Node000015_Node000016"><a xlink:title=" ">
<path fill="none" stroke="#63b8ff" d="M743.44,-284.67C758.45,-271.88 777.27,-255.84 790.52,-244.54"/>
<polygon fill="#63b8ff" stroke="#63b8ff" points="740.89,-282.24 735.55,-291.39 745.43,-287.57 740.89,-282.24"/>
</a>
</g>
</g>
</g>
</svg>
