<?xml version="1.0" encoding="UTF-8" standalone="no"?>
<!DOCTYPE svg PUBLIC "-//W3C//DTD SVG 1.1//EN"
 "http://www.w3.org/Graphics/SVG/1.1/DTD/svg11.dtd">
<!-- Generated by graphviz version 2.43.0 (0)
 -->
<!-- Title: SimulateurFerroviaire/Engine/HMI/Dialogs/ParserSettingsDialog.cpp Pages: 1 -->
<svg width="497pt" height="181pt"
 viewBox="0.00 0.00 496.50 181.00" xmlns="http://www.w3.org/2000/svg" xmlns:xlink="http://www.w3.org/1999/xlink">
<g id="graph0" class="graph" transform="scale(1 1) rotate(0) translate(4 177)">
<title>SimulateurFerroviaire/Engine/HMI/Dialogs/ParserSettingsDialog.cpp</title>
<!-- Node1 -->
<g id="Node000001" class="node">
<title>Node1</title>
<g id="a_Node000001"><a xlink:title="Implémentation du dialogue de paramètres GeoParser.">
<polygon fill="#999999" stroke="#666666" points="389.5,-173 201.5,-173 201.5,-132 389.5,-132 389.5,-173"/>
<text text-anchor="start" x="209.5" y="-161" font-family="Helvetica,sans-Serif" font-size="10.00">SimulateurFerroviaire</text>
<text text-anchor="start" x="209.5" y="-150" font-family="Helvetica,sans-Serif" font-size="10.00">/Engine/HMI/Dialogs/ParserSettings</text>
<text text-anchor="middle" x="295.5" y="-139" font-family="Helvetica,sans-Serif" font-size="10.00">Dialog.cpp</text>
</a>
</g>
</g>
<!-- Node2 -->
<g id="Node000002" class="node">
<title>Node2</title>
<g id="a_Node000002"><a xlink:href="../../d4/d01/ParserSettingsDialog_8h.html" target="_top" xlink:title="Dialogue modal Win32 de configuration du pipeline GeoParser.">
<polygon fill="white" stroke="#666666" points="254,-90.5 127,-90.5 127,-71.5 254,-71.5 254,-90.5"/>
<text text-anchor="middle" x="190.5" y="-78.5" font-family="Helvetica,sans-Serif" font-size="10.00">ParserSettingsDialog.h</text>
</a>
</g>
</g>
<!-- Node1&#45;&gt;Node2 -->
<g id="edge1_Node000001_Node000002" class="edge">
<title>Node1&#45;&gt;Node2</title>
<g id="a_edge1_Node000001_Node000002"><a xlink:title=" ">
<path fill="none" stroke="#63b8ff" d="M265.97,-131.96C248.73,-120.54 227.38,-106.41 211.79,-96.09"/>
<polygon fill="#63b8ff" stroke="#63b8ff" points="213.62,-93.1 203.35,-90.5 209.75,-98.94 213.62,-93.1"/>
</a>
</g>
</g>
<!-- Node6 -->
<g id="Node000006" class="node">
<title>Node6</title>
<g id="a_Node000006"><a xlink:title=" ">
<polygon fill="#e0e0e0" stroke="#999999" points="318.5,-90.5 272.5,-90.5 272.5,-71.5 318.5,-71.5 318.5,-90.5"/>
<text text-anchor="middle" x="295.5" y="-78.5" font-family="Helvetica,sans-Serif" font-size="10.00">cstdio</text>
</a>
</g>
</g>
<!-- Node1&#45;&gt;Node6 -->
<g id="edge5_Node000001_Node000006" class="edge">
<title>Node1&#45;&gt;Node6</title>
<g id="a_edge5_Node000001_Node000006"><a xlink:title=" ">
<path fill="none" stroke="#63b8ff" d="M295.5,-131.77C295.5,-122.08 295.5,-110.46 295.5,-100.88"/>
<polygon fill="#63b8ff" stroke="#63b8ff" points="299,-100.82 295.5,-90.82 292,-100.82 299,-100.82"/>
</a>
</g>
</g>
<!-- Node7 -->
<g id="Node000007" class="node">
<title>Node7</title>
<g id="a_Node000007"><a xlink:title=" ">
<polygon fill="#e0e0e0" stroke="#999999" points="402,-90.5 337,-90.5 337,-71.5 402,-71.5 402,-90.5"/>
<text text-anchor="middle" x="369.5" y="-78.5" font-family="Helvetica,sans-Serif" font-size="10.00">stdexcept</text>
</a>
</g>
</g>
<!-- Node1&#45;&gt;Node7 -->
<g id="edge6_Node000001_Node000007" class="edge">
<title>Node1&#45;&gt;Node7</title>
<g id="a_edge6_Node000001_Node000007"><a xlink:title=" ">
<path fill="none" stroke="#63b8ff" d="M316.51,-131.77C327.95,-121.02 341.92,-107.91 352.64,-97.84"/>
<polygon fill="#63b8ff" stroke="#63b8ff" points="355.22,-100.22 360.11,-90.82 350.42,-95.11 355.22,-100.22"/>
</a>
</g>
</g>
<!-- Node8 -->
<g id="Node000008" class="node">
<title>Node8</title>
<g id="a_Node000008"><a xlink:href="../../dd/d01/ParserConfigIni_8h.html" target="_top" xlink:title="Persistence de ParserConfig via fichier .ini (SimpleIni).">
<polygon fill="white" stroke="#666666" points="109,-96 0,-96 0,-66 109,-66 109,-96"/>
<text text-anchor="start" x="8" y="-84" font-family="Helvetica,sans-Serif" font-size="10.00">Engine/Core/Config</text>
<text text-anchor="middle" x="54.5" y="-73" font-family="Helvetica,sans-Serif" font-size="10.00">/ParserConfigIni.h</text>
</a>
</g>
</g>
<!-- Node1&#45;&gt;Node8 -->
<g id="edge7_Node000001_Node000008" class="edge">
<title>Node1&#45;&gt;Node8</title>
<g id="a_edge7_Node000001_Node000008"><a xlink:title=" ">
<path fill="none" stroke="#63b8ff" d="M227.73,-131.96C191.61,-121.54 147.63,-108.86 113.02,-98.88"/>
<polygon fill="#63b8ff" stroke="#63b8ff" points="113.64,-95.41 103.06,-96 111.7,-102.14 113.64,-95.41"/>
</a>
</g>
</g>
<!-- Node9 -->
<g id="Node000009" class="node">
<title>Node9</title>
<g id="a_Node000009"><a xlink:title=" ">
<polygon fill="#e0e0e0" stroke="#999999" points="488.5,-90.5 420.5,-90.5 420.5,-71.5 488.5,-71.5 488.5,-90.5"/>
<text text-anchor="middle" x="454.5" y="-78.5" font-family="Helvetica,sans-Serif" font-size="10.00">resource.h</text>
</a>
</g>
</g>
<!-- Node1&#45;&gt;Node9 -->
<g id="edge10_Node000001_Node000009" class="edge">
<title>Node1&#45;&gt;Node9</title>
<g id="a_edge10_Node000001_Node000009"><a xlink:title=" ">
<path fill="none" stroke="#63b8ff" d="M340.21,-131.96C367.66,-119.96 402,-104.95 425.84,-94.53"/>
<polygon fill="#63b8ff" stroke="#63b8ff" points="427.28,-97.72 435.05,-90.5 424.48,-91.3 427.28,-97.72"/>
</a>
</g>
</g>
<!-- Node3 -->
<g id="Node000003" class="node">
<title>Node3</title>
<g id="a_Node000003"><a xlink:title=" ">
<polygon fill="#e0e0e0" stroke="#999999" points="171.5,-24.5 127.5,-24.5 127.5,-5.5 171.5,-5.5 171.5,-24.5"/>
<text text-anchor="middle" x="149.5" y="-12.5" font-family="Helvetica,sans-Serif" font-size="10.00">string</text>
</a>
</g>
</g>
<!-- Node2&#45;&gt;Node3 -->
<g id="edge2_Node000002_Node000003" class="edge">
<title>Node2&#45;&gt;Node3</title>
<g id="a_edge2_Node000002_Node000003"><a xlink:title=" ">
<path fill="none" stroke="#63b8ff" d="M184.97,-71.37C178.77,-61.69 168.55,-45.74 160.67,-33.44"/>
<polygon fill="#63b8ff" stroke="#63b8ff" points="163.55,-31.44 155.2,-24.91 157.65,-35.21 163.55,-31.44"/>
</a>
</g>
</g>
<!-- Node4 -->
<g id="Node000004" class="node">
<title>Node4</title>
<g id="a_Node000004"><a xlink:title=" ">
<polygon fill="#e0e0e0" stroke="#999999" points="257.5,-24.5 189.5,-24.5 189.5,-5.5 257.5,-5.5 257.5,-24.5"/>
<text text-anchor="middle" x="223.5" y="-12.5" font-family="Helvetica,sans-Serif" font-size="10.00">windows.h</text>
</a>
</g>
</g>
<!-- Node2&#45;&gt;Node4 -->
<g id="edge3_Node000002_Node000004" class="edge">
<title>Node2&#45;&gt;Node4</title>
<g id="a_edge3_Node000002_Node000004"><a xlink:title=" ">
<path fill="none" stroke="#63b8ff" d="M194.95,-71.37C199.89,-61.78 208.01,-46.05 214.32,-33.8"/>
<polygon fill="#63b8ff" stroke="#63b8ff" points="217.44,-35.4 218.91,-24.91 211.21,-32.19 217.44,-35.4"/>
</a>
</g>
</g>
<!-- Node5 -->
<g id="Node000005" class="node">
<title>Node5</title>
<g id="a_Node000005"><a xlink:href="../../d9/d01/ParserConfig_8h.html" target="_top" xlink:title="Paramètres de configuration du pipeline GeoParser.">
<polygon fill="white" stroke="#666666" points="109,-30 0,-30 0,0 109,0 109,-30"/>
<text text-anchor="start" x="8" y="-18" font-family="Helvetica,sans-Serif" font-size="10.00">Engine/Core/Config</text>
<text text-anchor="middle" x="54.5" y="-7" font-family="Helvetica,sans-Serif" font-size="10.00">/ParserConfig.h</text>
</a>
</g>
</g>
<!-- Node2&#45;&gt;Node5 -->
<g id="edge4_Node000002_Node000005" class="edge">
<title>Node2&#45;&gt;Node5</title>
<g id="a_edge4_Node000002_Node000005"><a xlink:title=" ">
<path fill="none" stroke="#63b8ff" d="M172.16,-71.37C152.14,-61.95 119.5,-46.59 93.67,-34.43"/>
<polygon fill="#63b8ff" stroke="#63b8ff" points="95.03,-31.21 84.5,-30.12 92.05,-37.54 95.03,-31.21"/>
</a>
</g>
</g>
<!-- Node8&#45;&gt;Node3 -->
<g id="edge9_Node000008_Node000003" class="edge">
<title>Node8&#45;&gt;Node3</title>
<g id="a_edge9_Node000008_Node000003"><a xlink:title=" ">
<path fill="none" stroke="#63b8ff" d="M75.58,-65.8C91.21,-55.27 112.43,-40.97 128.13,-30.4"/>
<polygon fill="#63b8ff" stroke="#63b8ff" points="130.31,-33.15 136.65,-24.66 126.4,-27.34 130.31,-33.15"/>
</a>
</g>
</g>
<!-- Node8&#45;&gt;Node5 -->
<g id="edge8_Node000008_Node000005" class="edge">
<title>Node8&#45;&gt;Node5</title>
<g id="a_edge8_Node000008_Node000005"><a xlink:title=" ">
<path fill="none" stroke="#63b8ff" d="M54.5,-65.8C54.5,-58.34 54.5,-48.99 54.5,-40.41"/>
<polygon fill="#63b8ff" stroke="#63b8ff" points="58,-40.16 54.5,-30.16 51,-40.16 58,-40.16"/>
</a>
</g>
</g>
</g>
</svg>
