<?xml version="1.0" encoding="UTF-8" standalone="no"?>
<!DOCTYPE svg PUBLIC "-//W3C//DTD SVG 1.1//EN"
 "http://www.w3.org/Graphics/SVG/1.1/DTD/svg11.dtd">
<!-- Generated by graphviz version 2.43.0 (0)
 -->
<!-- Title: SimulateurFerroviaire/Modules/GeoParser/Pipeline/BlockSet.h Pages: 1 -->
<svg width="967pt" height="357pt"
 viewBox="0.00 0.00 966.50 357.00" xmlns="http://www.w3.org/2000/svg" xmlns:xlink="http://www.w3.org/1999/xlink">
<g id="graph0" class="graph" transform="scale(1 1) rotate(0) translate(4 353)">
<title>SimulateurFerroviaire/Modules/GeoParser/Pipeline/BlockSet.h</title>
<!-- Node1 -->
<g id="Node000001" class="node">
<title>Node1</title>
<g id="a_Node000001"><a xlink:title="Structures de données produites par Phase6_BlockExtractor.">
<polygon fill="#999999" stroke="#666666" points="748.5,-349 593.5,-349 593.5,-308 748.5,-308 748.5,-349"/>
<text text-anchor="start" x="601.5" y="-337" font-family="Helvetica,sans-Serif" font-size="10.00">SimulateurFerroviaire</text>
<text text-anchor="start" x="601.5" y="-326" font-family="Helvetica,sans-Serif" font-size="10.00">/Modules/GeoParser/Pipeline</text>
<text text-anchor="middle" x="671" y="-315" font-family="Helvetica,sans-Serif" font-size="10.00">/BlockSet.h</text>
</a>
</g>
</g>
<!-- Node2 -->
<g id="Node000002" class="node">
<title>Node2</title>
<g id="a_Node000002"><a xlink:title=" ">
<polygon fill="#e0e0e0" stroke="#999999" points="42,-200.5 0,-200.5 0,-181.5 42,-181.5 42,-200.5"/>
<text text-anchor="middle" x="21" y="-188.5" font-family="Helvetica,sans-Serif" font-size="10.00">array</text>
</a>
</g>
</g>
<!-- Node1&#45;&gt;Node2 -->
<g id="edge1_Node000001_Node000002" class="edge">
<title>Node1&#45;&gt;Node2</title>
<g id="a_edge1_Node000001_Node000002"><a xlink:title=" ">
<path fill="none" stroke="#63b8ff" d="M593.13,-325.96C497.48,-322.36 331.04,-310.54 194,-272 137.75,-256.18 76.8,-224.13 44.38,-205.76"/>
<polygon fill="#63b8ff" stroke="#63b8ff" points="46.07,-202.69 35.65,-200.75 42.58,-208.76 46.07,-202.69"/>
</a>
</g>
</g>
<!-- Node3 -->
<g id="Node000003" class="node">
<title>Node3</title>
<g id="a_Node000003"><a xlink:title=" ">
<polygon fill="#e0e0e0" stroke="#999999" points="847,-266.5 789,-266.5 789,-247.5 847,-247.5 847,-266.5"/>
<text text-anchor="middle" x="818" y="-254.5" font-family="Helvetica,sans-Serif" font-size="10.00">memory</text>
</a>
</g>
</g>
<!-- Node1&#45;&gt;Node3 -->
<g id="edge2_Node000001_Node000003" class="edge">
<title>Node1&#45;&gt;Node3</title>
<g id="a_edge2_Node000001_Node000003"><a xlink:title=" ">
<path fill="none" stroke="#63b8ff" d="M712.34,-307.96C737.49,-296.06 768.9,-281.21 790.91,-270.81"/>
<polygon fill="#63b8ff" stroke="#63b8ff" points="792.47,-273.94 800.01,-266.5 789.48,-267.61 792.47,-273.94"/>
</a>
</g>
</g>
<!-- Node4 -->
<g id="Node000004" class="node">
<title>Node4</title>
<g id="a_Node000004"><a xlink:title=" ">
<polygon fill="#e0e0e0" stroke="#999999" points="514,-19 470,-19 470,0 514,0 514,-19"/>
<text text-anchor="middle" x="492" y="-7" font-family="Helvetica,sans-Serif" font-size="10.00">string</text>
</a>
</g>
</g>
<!-- Node1&#45;&gt;Node4 -->
<g id="edge3_Node000001_Node000004" class="edge">
<title>Node1&#45;&gt;Node4</title>
<g id="a_edge3_Node000001_Node000004"><a xlink:title=" ">
<path fill="none" stroke="#63b8ff" d="M695.12,-307.72C721.78,-283.49 761,-239.73 761,-192 761,-192 761,-192 761,-129.5 761,-27.01 595.67,-12.08 524.24,-10.41"/>
<polygon fill="#63b8ff" stroke="#63b8ff" points="524.07,-6.91 514.01,-10.25 523.96,-13.91 524.07,-6.91"/>
</a>
</g>
</g>
<!-- Node5 -->
<g id="Node000005" class="node">
<title>Node5</title>
<g id="a_Node000005"><a xlink:title=" ">
<polygon fill="#e0e0e0" stroke="#999999" points="958.5,-266.5 865.5,-266.5 865.5,-247.5 958.5,-247.5 958.5,-266.5"/>
<text text-anchor="middle" x="912" y="-254.5" font-family="Helvetica,sans-Serif" font-size="10.00">unordered_map</text>
</a>
</g>
</g>
<!-- Node1&#45;&gt;Node5 -->
<g id="edge4_Node000001_Node000005" class="edge">
<title>Node1&#45;&gt;Node5</title>
<g id="a_edge4_Node000001_Node000005"><a xlink:title=" ">
<path fill="none" stroke="#63b8ff" d="M738.77,-307.96C782.04,-295.48 836.61,-279.74 872.81,-269.3"/>
<polygon fill="#63b8ff" stroke="#63b8ff" points="873.87,-272.64 882.51,-266.5 871.93,-265.91 873.87,-272.64"/>
</a>
</g>
</g>
<!-- Node6 -->
<g id="Node000006" class="node">
<title>Node6</title>
<g id="a_Node000006"><a xlink:title=" ">
<polygon fill="#e0e0e0" stroke="#999999" points="694.5,-200.5 647.5,-200.5 647.5,-181.5 694.5,-181.5 694.5,-200.5"/>
<text text-anchor="middle" x="671" y="-188.5" font-family="Helvetica,sans-Serif" font-size="10.00">vector</text>
</a>
</g>
</g>
<!-- Node1&#45;&gt;Node6 -->
<g id="edge5_Node000001_Node000006" class="edge">
<title>Node1&#45;&gt;Node6</title>
<g id="a_edge5_Node000001_Node000006"><a xlink:title=" ">
<path fill="none" stroke="#63b8ff" d="M671,-307.8C671,-281.83 671,-236.45 671,-210.89"/>
<polygon fill="#63b8ff" stroke="#63b8ff" points="674.5,-210.69 671,-200.69 667.5,-210.69 674.5,-210.69"/>
</a>
</g>
</g>
<!-- Node7 -->
<g id="Node000007" class="node">
<title>Node7</title>
<g id="a_Node000007"><a xlink:href="../../de/d01/StraightBlock_8h.html" target="_top" xlink:title="Modèle de domaine d&#39;un bloc de voie droite (Straight).">
<polygon fill="white" stroke="#666666" points="640,-272 488,-272 488,-242 640,-242 640,-272"/>
<text text-anchor="start" x="496" y="-260" font-family="Helvetica,sans-Serif" font-size="10.00">Modules/Elements/Shunting</text>
<text text-anchor="middle" x="564" y="-249" font-family="Helvetica,sans-Serif" font-size="10.00">Elements/StraightBlock.h</text>
</a>
</g>
</g>
<!-- Node1&#45;&gt;Node7 -->
<g id="edge6_Node000001_Node000007" class="edge">
<title>Node1&#45;&gt;Node7</title>
<g id="a_edge6_Node000001_Node000007"><a xlink:title=" ">
<path fill="none" stroke="#63b8ff" d="M640.91,-307.96C626.37,-298.51 608.96,-287.2 594.39,-277.74"/>
<polygon fill="#63b8ff" stroke="#63b8ff" points="596.02,-274.62 585.73,-272.11 592.21,-280.5 596.02,-274.62"/>
</a>
</g>
</g>
<!-- Node19 -->
<g id="Node000019" class="node">
<title>Node19</title>
<g id="a_Node000019"><a xlink:href="../../dc/d01/SwitchBlock_8h.html" target="_top" xlink:title="Modèle de domaine d&#39;un aiguillage ferroviaire à 3 branches.">
<polygon fill="white" stroke="#666666" points="355,-272 203,-272 203,-242 355,-242 355,-272"/>
<text text-anchor="start" x="211" y="-260" font-family="Helvetica,sans-Serif" font-size="10.00">Modules/Elements/Shunting</text>
<text text-anchor="middle" x="279" y="-249" font-family="Helvetica,sans-Serif" font-size="10.00">Elements/SwitchBlock.h</text>
</a>
</g>
</g>
<!-- Node1&#45;&gt;Node19 -->
<g id="edge22_Node000001_Node000019" class="edge">
<title>Node1&#45;&gt;Node19</title>
<g id="a_edge22_Node000001_Node000019"><a xlink:title=" ">
<path fill="none" stroke="#63b8ff" d="M593.08,-313.69C527.35,-302.03 433.37,-285.37 365.36,-273.31"/>
<polygon fill="#63b8ff" stroke="#63b8ff" points="365.56,-269.79 355.1,-271.49 364.34,-276.68 365.56,-269.79"/>
</a>
</g>
</g>
<!-- Node7&#45;&gt;Node4 -->
<g id="edge7_Node000007_Node000004" class="edge">
<title>Node7&#45;&gt;Node4</title>
<g id="a_edge7_Node000007_Node000004"><a xlink:title=" ">
<path fill="none" stroke="#63b8ff" d="M640.04,-246.43C664.52,-239.34 689.13,-227.1 704,-206 711.68,-195.1 709.85,-187.98 704,-176 665.88,-97.88 571.08,-45.85 522.2,-23.28"/>
<polygon fill="#63b8ff" stroke="#63b8ff" points="523.34,-19.96 512.79,-19.04 520.47,-26.34 523.34,-19.96"/>
</a>
</g>
</g>
<!-- Node7&#45;&gt;Node6 -->
<g id="edge8_Node000007_Node000006" class="edge">
<title>Node7&#45;&gt;Node6</title>
<g id="a_edge8_Node000007_Node000006"><a xlink:title=" ">
<path fill="none" stroke="#63b8ff" d="M587.48,-241.95C605.5,-231.18 630.24,-216.38 648.11,-205.69"/>
<polygon fill="#63b8ff" stroke="#63b8ff" points="649.97,-208.65 656.76,-200.52 646.38,-202.65 649.97,-208.65"/>
</a>
</g>
</g>
<!-- Node8 -->
<g id="Node000008" class="node">
<title>Node8</title>
<g id="a_Node000008"><a xlink:href="../../df/d02/ShuntingElement_8h.html" target="_top" xlink:title="Interface abstraite pour tous les éléments de shuntage ferroviaire.">
<polygon fill="white" stroke="#666666" points="474.5,-200.5 365.5,-200.5 365.5,-181.5 474.5,-181.5 474.5,-200.5"/>
<text text-anchor="middle" x="420" y="-188.5" font-family="Helvetica,sans-Serif" font-size="10.00">ShuntingElement.h</text>
</a>
</g>
</g>
<!-- Node7&#45;&gt;Node8 -->
<g id="edge9_Node000007_Node000008" class="edge">
<title>Node7&#45;&gt;Node8</title>
<g id="a_edge9_Node000007_Node000008"><a xlink:title=" ">
<path fill="none" stroke="#63b8ff" d="M532.4,-241.95C507.37,-230.83 472.7,-215.42 448.51,-204.67"/>
<polygon fill="#63b8ff" stroke="#63b8ff" points="449.72,-201.38 439.16,-200.52 446.88,-207.78 449.72,-201.38"/>
</a>
</g>
</g>
<!-- Node17 -->
<g id="Node000017" class="node">
<title>Node17</title>
<g id="a_Node000017"><a xlink:href="../../d6/d01/CoordinateLatLon_8h.html" target="_top" xlink:title="Représentation d&#39;une coordonnée géographique WGS&#45;84 (latitude, longitude).">
<polygon fill="white" stroke="#666666" points="629.5,-206 492.5,-206 492.5,-176 629.5,-176 629.5,-206"/>
<text text-anchor="start" x="500.5" y="-194" font-family="Helvetica,sans-Serif" font-size="10.00">Engine/Core/Coordinates</text>
<text text-anchor="middle" x="561" y="-183" font-family="Helvetica,sans-Serif" font-size="10.00">/CoordinateLatLon.h</text>
</a>
</g>
</g>
<!-- Node7&#45;&gt;Node17 -->
<g id="edge20_Node000007_Node000017" class="edge">
<title>Node7&#45;&gt;Node17</title>
<g id="a_edge20_Node000007_Node000017"><a xlink:title=" ">
<path fill="none" stroke="#63b8ff" d="M563.33,-241.8C562.98,-234.34 562.55,-224.99 562.14,-216.41"/>
<polygon fill="#63b8ff" stroke="#63b8ff" points="565.63,-215.99 561.66,-206.16 558.64,-216.32 565.63,-215.99"/>
</a>
</g>
</g>
<!-- Node18 -->
<g id="Node000018" class="node">
<title>Node18</title>
<g id="a_Node000018"><a xlink:href="../../db/d03/CoordinateXY_8h.html" target="_top" xlink:title="Représentation d&#39;une coordonnée plane en mètres (système métrique UTM).">
<polygon fill="white" stroke="#666666" points="347.5,-206 210.5,-206 210.5,-176 347.5,-176 347.5,-206"/>
<text text-anchor="start" x="218.5" y="-194" font-family="Helvetica,sans-Serif" font-size="10.00">Engine/Core/Coordinates</text>
<text text-anchor="middle" x="279" y="-183" font-family="Helvetica,sans-Serif" font-size="10.00">/CoordinateXY.h</text>
</a>
</g>
</g>
<!-- Node7&#45;&gt;Node18 -->
<g id="edge21_Node000007_Node000018" class="edge">
<title>Node7&#45;&gt;Node18</title>
<g id="a_edge21_Node000007_Node000018"><a xlink:title=" ">
<path fill="none" stroke="#63b8ff" d="M501.46,-241.95C457.19,-232.01 397.69,-218.65 351.37,-208.25"/>
<polygon fill="#63b8ff" stroke="#63b8ff" points="351.92,-204.79 341.4,-206.01 350.39,-211.62 351.92,-204.79"/>
</a>
</g>
</g>
<!-- Node9 -->
<g id="Node000009" class="node">
<title>Node9</title>
<g id="a_Node000009"><a xlink:href="../../d5/d02/Element_8h.html" target="_top" xlink:title="Classe de base abstraite pour tous les éléments interactifs ferroviaires.">
<polygon fill="white" stroke="#666666" points="499.5,-140 340.5,-140 340.5,-121 499.5,-121 499.5,-140"/>
<text text-anchor="middle" x="420" y="-128" font-family="Helvetica,sans-Serif" font-size="10.00">Modules/Elements/Element.h</text>
</a>
</g>
</g>
<!-- Node8&#45;&gt;Node9 -->
<g id="edge10_Node000008_Node000009" class="edge">
<title>Node8&#45;&gt;Node9</title>
<g id="a_edge10_Node000008_Node000009"><a xlink:title=" ">
<path fill="none" stroke="#63b8ff" d="M420,-181.37C420,-173.25 420,-160.81 420,-150.39"/>
<polygon fill="#63b8ff" stroke="#63b8ff" points="423.5,-150.17 420,-140.17 416.5,-150.17 423.5,-150.17"/>
</a>
</g>
</g>
<!-- Node9&#45;&gt;Node4 -->
<g id="edge11_Node000009_Node000004" class="edge">
<title>Node9&#45;&gt;Node4</title>
<g id="a_edge11_Node000009_Node000004"><a xlink:title=" ">
<path fill="none" stroke="#63b8ff" d="M425.18,-120.94C436.9,-101.57 465.67,-54.02 481.36,-28.08"/>
<polygon fill="#63b8ff" stroke="#63b8ff" points="484.49,-29.67 486.67,-19.3 478.5,-26.05 484.49,-29.67"/>
</a>
</g>
</g>
<!-- Node10 -->
<g id="Node000010" class="node">
<title>Node10</title>
<g id="a_Node000010"><a xlink:href="../../dd/d00/Logger_8h.html" target="_top" xlink:title="Système de journalisation à 5 niveaux de trace, un fichier par moteur.">
<polygon fill="white" stroke="#666666" points="283.5,-85 172.5,-85 172.5,-55 283.5,-55 283.5,-85"/>
<text text-anchor="start" x="180.5" y="-73" font-family="Helvetica,sans-Serif" font-size="10.00">Engine/Core/Logger</text>
<text text-anchor="middle" x="228" y="-62" font-family="Helvetica,sans-Serif" font-size="10.00">/Logger.h</text>
</a>
</g>
</g>
<!-- Node9&#45;&gt;Node10 -->
<g id="edge12_Node000009_Node000010" class="edge">
<title>Node9&#45;&gt;Node10</title>
<g id="a_edge12_Node000009_Node000010"><a xlink:title=" ">
<path fill="none" stroke="#63b8ff" d="M392.08,-120.99C363.85,-112.39 319.42,-98.86 283.92,-88.04"/>
<polygon fill="#63b8ff" stroke="#63b8ff" points="284.75,-84.63 274.16,-85.06 282.71,-91.33 284.75,-84.63"/>
</a>
</g>
</g>
<!-- Node10&#45;&gt;Node4 -->
<g id="edge18_Node000010_Node000004" class="edge">
<title>Node10&#45;&gt;Node4</title>
<g id="a_edge18_Node000010_Node000004"><a xlink:title=" ">
<path fill="none" stroke="#63b8ff" d="M283.61,-57.44C337.13,-46.26 415.3,-29.74 459.69,-19.19"/>
<polygon fill="#63b8ff" stroke="#63b8ff" points="460.79,-22.53 469.69,-16.78 459.15,-15.73 460.79,-22.53"/>
</a>
</g>
</g>
<!-- Node11 -->
<g id="Node000011" class="node">
<title>Node11</title>
<g id="a_Node000011"><a xlink:title=" ">
<polygon fill="#e0e0e0" stroke="#999999" points="226,-19 182,-19 182,0 226,0 226,-19"/>
<text text-anchor="middle" x="204" y="-7" font-family="Helvetica,sans-Serif" font-size="10.00">ctime</text>
</a>
</g>
</g>
<!-- Node10&#45;&gt;Node11 -->
<g id="edge13_Node000010_Node000011" class="edge">
<title>Node10&#45;&gt;Node11</title>
<g id="a_edge13_Node000010_Node000011"><a xlink:title=" ">
<path fill="none" stroke="#63b8ff" d="M222.19,-54.84C218.96,-46.95 214.89,-37.05 211.43,-28.61"/>
<polygon fill="#63b8ff" stroke="#63b8ff" points="214.63,-27.19 207.6,-19.27 208.15,-29.85 214.63,-27.19"/>
</a>
</g>
</g>
<!-- Node12 -->
<g id="Node000012" class="node">
<title>Node12</title>
<g id="a_Node000012"><a xlink:title=" ">
<polygon fill="#e0e0e0" stroke="#999999" points="312,-19 244,-19 244,0 312,0 312,-19"/>
<text text-anchor="middle" x="278" y="-7" font-family="Helvetica,sans-Serif" font-size="10.00">filesystem</text>
</a>
</g>
</g>
<!-- Node10&#45;&gt;Node12 -->
<g id="edge14_Node000010_Node000012" class="edge">
<title>Node10&#45;&gt;Node12</title>
<g id="a_edge14_Node000010_Node000012"><a xlink:title=" ">
<path fill="none" stroke="#63b8ff" d="M240.1,-54.84C247.29,-46.43 256.43,-35.74 263.93,-26.96"/>
<polygon fill="#63b8ff" stroke="#63b8ff" points="266.67,-29.14 270.51,-19.27 261.35,-24.59 266.67,-29.14"/>
</a>
</g>
</g>
<!-- Node13 -->
<g id="Node000013" class="node">
<title>Node13</title>
<g id="a_Node000013"><a xlink:title=" ">
<polygon fill="#e0e0e0" stroke="#999999" points="385.5,-19 330.5,-19 330.5,0 385.5,0 385.5,-19"/>
<text text-anchor="middle" x="358" y="-7" font-family="Helvetica,sans-Serif" font-size="10.00">fstream</text>
</a>
</g>
</g>
<!-- Node10&#45;&gt;Node13 -->
<g id="edge15_Node000010_Node000013" class="edge">
<title>Node10&#45;&gt;Node13</title>
<g id="a_edge15_Node000010_Node000013"><a xlink:title=" ">
<path fill="none" stroke="#63b8ff" d="M259.14,-54.99C280.54,-45.36 308.73,-32.67 329.53,-23.31"/>
<polygon fill="#63b8ff" stroke="#63b8ff" points="331.12,-26.43 338.8,-19.14 328.25,-20.05 331.12,-26.43"/>
</a>
</g>
</g>
<!-- Node14 -->
<g id="Node000014" class="node">
<title>Node14</title>
<g id="a_Node000014"><a xlink:title=" ">
<polygon fill="#e0e0e0" stroke="#999999" points="452,-19 404,-19 404,0 452,0 452,-19"/>
<text text-anchor="middle" x="428" y="-7" font-family="Helvetica,sans-Serif" font-size="10.00">mutex</text>
</a>
</g>
</g>
<!-- Node10&#45;&gt;Node14 -->
<g id="edge16_Node000010_Node000014" class="edge">
<title>Node10&#45;&gt;Node14</title>
<g id="a_edge16_Node000010_Node000014"><a xlink:title=" ">
<path fill="none" stroke="#63b8ff" d="M275.9,-54.99C312.3,-44.34 361.46,-29.96 393.92,-20.47"/>
<polygon fill="#63b8ff" stroke="#63b8ff" points="395.22,-23.74 403.83,-17.57 393.25,-17.02 395.22,-23.74"/>
</a>
</g>
</g>
<!-- Node15 -->
<g id="Node000015" class="node">
<title>Node15</title>
<g id="a_Node000015"><a xlink:title=" ">
<polygon fill="#e0e0e0" stroke="#999999" points="78,-19 22,-19 22,0 78,0 78,-19"/>
<text text-anchor="middle" x="50" y="-7" font-family="Helvetica,sans-Serif" font-size="10.00">sstream</text>
</a>
</g>
</g>
<!-- Node10&#45;&gt;Node15 -->
<g id="edge17_Node000010_Node000015" class="edge">
<title>Node10&#45;&gt;Node15</title>
<g id="a_edge17_Node000010_Node000015"><a xlink:title=" ">
<path fill="none" stroke="#63b8ff" d="M185.36,-54.99C154.91,-44.98 114.41,-31.67 85.67,-22.22"/>
<polygon fill="#63b8ff" stroke="#63b8ff" points="86.62,-18.85 76.03,-19.05 84.43,-25.5 86.62,-18.85"/>
</a>
</g>
</g>
<!-- Node16 -->
<g id="Node000016" class="node">
<title>Node16</title>
<g id="a_Node000016"><a xlink:title=" ">
<polygon fill="#e0e0e0" stroke="#999999" points="164,-19 96,-19 96,0 164,0 164,-19"/>
<text text-anchor="middle" x="130" y="-7" font-family="Helvetica,sans-Serif" font-size="10.00">windows.h</text>
</a>
</g>
</g>
<!-- Node10&#45;&gt;Node16 -->
<g id="edge19_Node000010_Node000016" class="edge">
<title>Node10&#45;&gt;Node16</title>
<g id="a_edge19_Node000010_Node000016"><a xlink:title=" ">
<path fill="none" stroke="#63b8ff" d="M204.28,-54.84C188.8,-45.6 168.68,-33.59 153.29,-24.4"/>
<polygon fill="#63b8ff" stroke="#63b8ff" points="154.78,-21.21 144.4,-19.09 151.19,-27.23 154.78,-21.21"/>
</a>
</g>
</g>
<!-- Node19&#45;&gt;Node2 -->
<g id="edge23_Node000019_Node000002" class="edge">
<title>Node19&#45;&gt;Node2</title>
<g id="a_edge23_Node000019_Node000002"><a xlink:title=" ">
<path fill="none" stroke="#63b8ff" d="M202.9,-243.66C158.03,-235.32 100.52,-222.75 51,-206 49.6,-205.53 48.19,-205.01 46.77,-204.46"/>
<polygon fill="#63b8ff" stroke="#63b8ff" points="48.12,-201.23 37.55,-200.52 45.37,-207.67 48.12,-201.23"/>
</a>
</g>
</g>
<!-- Node19&#45;&gt;Node4 -->
<g id="edge26_Node000019_Node000004" class="edge">
<title>Node19&#45;&gt;Node4</title>
<g id="a_edge26_Node000019_Node000004"><a xlink:title=" ">
<path fill="none" stroke="#63b8ff" d="M242.16,-241.98C226.52,-233.97 209.87,-222.23 201,-206 194.6,-194.3 194.3,-187.53 201,-176 230.39,-125.48 393.19,-52.2 461.65,-23.1"/>
<polygon fill="#63b8ff" stroke="#63b8ff" points="463.19,-26.25 471.04,-19.13 460.47,-19.8 463.19,-26.25"/>
</a>
</g>
</g>
<!-- Node19&#45;&gt;Node6 -->
<g id="edge27_Node000019_Node000006" class="edge">
<title>Node19&#45;&gt;Node6</title>
<g id="a_edge27_Node000019_Node000006"><a xlink:title=" ">
<path fill="none" stroke="#63b8ff" d="M355.05,-251.51C428.77,-245.75 543.21,-233.05 639,-206 640.69,-205.52 642.4,-204.98 644.11,-204.38"/>
<polygon fill="#63b8ff" stroke="#63b8ff" points="645.7,-207.52 653.71,-200.59 643.13,-201.01 645.7,-207.52"/>
</a>
</g>
</g>
<!-- Node19&#45;&gt;Node8 -->
<g id="edge30_Node000019_Node000008" class="edge">
<title>Node19&#45;&gt;Node8</title>
<g id="a_edge30_Node000019_Node000008"><a xlink:title=" ">
<path fill="none" stroke="#63b8ff" d="M309.94,-241.95C334.45,-230.83 368.39,-215.42 392.08,-204.67"/>
<polygon fill="#63b8ff" stroke="#63b8ff" points="393.58,-207.84 401.24,-200.52 390.68,-201.46 393.58,-207.84"/>
</a>
</g>
</g>
<!-- Node19&#45;&gt;Node15 -->
<g id="edge25_Node000019_Node000015" class="edge">
<title>Node19&#45;&gt;Node15</title>
<g id="a_edge25_Node000019_Node000015"><a xlink:title=" ">
<path fill="none" stroke="#63b8ff" d="M247.91,-241.89C230.59,-233.1 209.3,-220.68 193,-206 131.58,-150.71 80.19,-65.1 59.62,-28.3"/>
<polygon fill="#63b8ff" stroke="#63b8ff" points="62.55,-26.35 54.66,-19.28 56.42,-29.73 62.55,-26.35"/>
</a>
</g>
</g>
<!-- Node19&#45;&gt;Node17 -->
<g id="edge28_Node000019_Node000017" class="edge">
<title>Node19&#45;&gt;Node17</title>
<g id="a_edge28_Node000019_Node000017"><a xlink:title=" ">
<path fill="none" stroke="#63b8ff" d="M340.89,-241.95C384.69,-232.01 443.56,-218.65 489.39,-208.25"/>
<polygon fill="#63b8ff" stroke="#63b8ff" points="490.28,-211.64 499.26,-206.01 488.73,-204.81 490.28,-211.64"/>
</a>
</g>
</g>
<!-- Node19&#45;&gt;Node18 -->
<g id="edge29_Node000019_Node000018" class="edge">
<title>Node19&#45;&gt;Node18</title>
<g id="a_edge29_Node000019_Node000018"><a xlink:title=" ">
<path fill="none" stroke="#63b8ff" d="M279,-241.8C279,-234.34 279,-224.99 279,-216.41"/>
<polygon fill="#63b8ff" stroke="#63b8ff" points="282.5,-216.16 279,-206.16 275.5,-216.16 282.5,-216.16"/>
</a>
</g>
</g>
<!-- Node20 -->
<g id="Node000020" class="node">
<title>Node20</title>
<g id="a_Node000020"><a xlink:title=" ">
<polygon fill="#e0e0e0" stroke="#999999" points="116,-200.5 60,-200.5 60,-181.5 116,-181.5 116,-200.5"/>
<text text-anchor="middle" x="88" y="-188.5" font-family="Helvetica,sans-Serif" font-size="10.00">optional</text>
</a>
</g>
</g>
<!-- Node19&#45;&gt;Node20 -->
<g id="edge24_Node000019_Node000020" class="edge">
<title>Node19&#45;&gt;Node20</title>
<g id="a_edge24_Node000019_Node000020"><a xlink:title=" ">
<path fill="none" stroke="#63b8ff" d="M237.08,-241.95C203,-230.53 155.45,-214.6 123.28,-203.82"/>
<polygon fill="#63b8ff" stroke="#63b8ff" points="124.01,-200.38 113.42,-200.52 121.79,-207.01 124.01,-200.38"/>
</a>
</g>
</g>
</g>
</svg>
