<?xml version="1.0" encoding="UTF-8" standalone="no"?>
<!DOCTYPE svg PUBLIC "-//W3C//DTD SVG 1.1//EN"
 "http://www.w3.org/Graphics/SVG/1.1/DTD/svg11.dtd">
<!-- Generated by graphviz version 2.43.0 (0)
 -->
<!-- Title: SimulateurFerroviaire/Engine/Core/Config/ParserConfigIni.cpp Pages: 1 -->
<svg width="435pt" height="170pt"
 viewBox="0.00 0.00 435.00 170.00" xmlns="http://www.w3.org/2000/svg" xmlns:xlink="http://www.w3.org/1999/xlink">
<g id="graph0" class="graph" transform="scale(1 1) rotate(0) translate(4 166)">
<title>SimulateurFerroviaire/Engine/Core/Config/ParserConfigIni.cpp</title>
<!-- Node1 -->
<g id="Node000001" class="node">
<title>Node1</title>
<g id="a_Node000001"><a xlink:title="Implémentation de la persistence .ini de ParserConfig.">
<polygon fill="#999999" stroke="#666666" points="344,-162 168,-162 168,-121 344,-121 344,-162"/>
<text text-anchor="start" x="176" y="-150" font-family="Helvetica,sans-Serif" font-size="10.00">SimulateurFerroviaire</text>
<text text-anchor="start" x="176" y="-139" font-family="Helvetica,sans-Serif" font-size="10.00">/Engine/Core/Config/ParserConfig</text>
<text text-anchor="middle" x="256" y="-128" font-family="Helvetica,sans-Serif" font-size="10.00">Ini.cpp</text>
</a>
</g>
</g>
<!-- Node2 -->
<g id="Node000002" class="node">
<title>Node2</title>
<g id="a_Node000002"><a xlink:href="../../dd/d01/ParserConfigIni_8h.html" target="_top" xlink:title="Persistence de ParserConfig via fichier .ini (SimpleIni).">
<polygon fill="white" stroke="#666666" points="133,-79.5 35,-79.5 35,-60.5 133,-60.5 133,-79.5"/>
<text text-anchor="middle" x="84" y="-67.5" font-family="Helvetica,sans-Serif" font-size="10.00">ParserConfigIni.h</text>
</a>
</g>
</g>
<!-- Node1&#45;&gt;Node2 -->
<g id="edge1_Node000001_Node000002" class="edge">
<title>Node1&#45;&gt;Node2</title>
<g id="a_edge1_Node000001_Node000002"><a xlink:title=" ">
<path fill="none" stroke="#63b8ff" d="M207.63,-120.96C177.67,-108.85 140.13,-93.68 114.32,-83.25"/>
<polygon fill="#63b8ff" stroke="#63b8ff" points="115.63,-80 105.04,-79.5 113.01,-86.5 115.63,-80"/>
</a>
</g>
</g>
<!-- Node5 -->
<g id="Node000005" class="node">
<title>Node5</title>
<g id="a_Node000005"><a xlink:title=" ">
<polygon fill="#e0e0e0" stroke="#999999" points="257,-85 151,-85 151,-55 257,-55 257,-85"/>
<text text-anchor="start" x="159" y="-73" font-family="Helvetica,sans-Serif" font-size="10.00">External/SimpleIni</text>
<text text-anchor="middle" x="204" y="-62" font-family="Helvetica,sans-Serif" font-size="10.00">/SimpleIni.h</text>
</a>
</g>
</g>
<!-- Node1&#45;&gt;Node5 -->
<g id="edge4_Node000001_Node000005" class="edge">
<title>Node1&#45;&gt;Node5</title>
<g id="a_edge4_Node000001_Node000005"><a xlink:title=" ">
<path fill="none" stroke="#63b8ff" d="M241.24,-120.77C234.78,-112.13 227.17,-101.96 220.52,-93.08"/>
<polygon fill="#63b8ff" stroke="#63b8ff" points="223.3,-90.95 214.5,-85.04 217.69,-95.14 223.3,-90.95"/>
</a>
</g>
</g>
<!-- Node6 -->
<g id="Node000006" class="node">
<title>Node6</title>
<g id="a_Node000006"><a xlink:title=" ">
<polygon fill="#e0e0e0" stroke="#999999" points="340.5,-79.5 275.5,-79.5 275.5,-60.5 340.5,-60.5 340.5,-79.5"/>
<text text-anchor="middle" x="308" y="-67.5" font-family="Helvetica,sans-Serif" font-size="10.00">stdexcept</text>
</a>
</g>
</g>
<!-- Node1&#45;&gt;Node6 -->
<g id="edge5_Node000001_Node000006" class="edge">
<title>Node1&#45;&gt;Node6</title>
<g id="a_edge5_Node000001_Node000006"><a xlink:title=" ">
<path fill="none" stroke="#63b8ff" d="M270.76,-120.77C278.49,-110.45 287.85,-97.93 295.25,-88.04"/>
<polygon fill="#63b8ff" stroke="#63b8ff" points="298.21,-89.92 301.4,-79.82 292.61,-85.73 298.21,-89.92"/>
</a>
</g>
</g>
<!-- Node7 -->
<g id="Node000007" class="node">
<title>Node7</title>
<g id="a_Node000007"><a xlink:title=" ">
<polygon fill="#e0e0e0" stroke="#999999" points="427,-79.5 359,-79.5 359,-60.5 427,-60.5 427,-79.5"/>
<text text-anchor="middle" x="393" y="-67.5" font-family="Helvetica,sans-Serif" font-size="10.00">windows.h</text>
</a>
</g>
</g>
<!-- Node1&#45;&gt;Node7 -->
<g id="edge6_Node000001_Node000007" class="edge">
<title>Node1&#45;&gt;Node7</title>
<g id="a_edge6_Node000001_Node000007"><a xlink:title=" ">
<path fill="none" stroke="#63b8ff" d="M294.53,-120.96C317.76,-109.17 346.71,-94.48 367.2,-84.09"/>
<polygon fill="#63b8ff" stroke="#63b8ff" points="368.9,-87.15 376.24,-79.5 365.74,-80.91 368.9,-87.15"/>
</a>
</g>
</g>
<!-- Node3 -->
<g id="Node000003" class="node">
<title>Node3</title>
<g id="a_Node000003"><a xlink:href="../../d9/d01/ParserConfig_8h.html" target="_top" xlink:title="Paramètres de configuration du pipeline GeoParser.">
<polygon fill="white" stroke="#666666" points="86,-19 0,-19 0,0 86,0 86,-19"/>
<text text-anchor="middle" x="43" y="-7" font-family="Helvetica,sans-Serif" font-size="10.00">ParserConfig.h</text>
</a>
</g>
</g>
<!-- Node2&#45;&gt;Node3 -->
<g id="edge2_Node000002_Node000003" class="edge">
<title>Node2&#45;&gt;Node3</title>
<g id="a_edge2_Node000002_Node000003"><a xlink:title=" ">
<path fill="none" stroke="#63b8ff" d="M77.95,-60.37C71.89,-51.73 62.41,-38.2 54.86,-27.42"/>
<polygon fill="#63b8ff" stroke="#63b8ff" points="57.68,-25.35 49.07,-19.17 51.95,-29.37 57.68,-25.35"/>
</a>
</g>
</g>
<!-- Node4 -->
<g id="Node000004" class="node">
<title>Node4</title>
<g id="a_Node000004"><a xlink:title=" ">
<polygon fill="#e0e0e0" stroke="#999999" points="148,-19 104,-19 104,0 148,0 148,-19"/>
<text text-anchor="middle" x="126" y="-7" font-family="Helvetica,sans-Serif" font-size="10.00">string</text>
</a>
</g>
</g>
<!-- Node2&#45;&gt;Node4 -->
<g id="edge3_Node000002_Node000004" class="edge">
<title>Node2&#45;&gt;Node4</title>
<g id="a_edge3_Node000002_Node000004"><a xlink:title=" ">
<path fill="none" stroke="#63b8ff" d="M90.2,-60.37C96.4,-51.73 106.11,-38.2 113.86,-27.42"/>
<polygon fill="#63b8ff" stroke="#63b8ff" points="116.79,-29.33 119.78,-19.17 111.1,-25.25 116.79,-29.33"/>
</a>
</g>
</g>
</g>
</svg>
