<?xml version="1.0" encoding="UTF-8" standalone="no"?>
<!DOCTYPE svg PUBLIC "-//W3C//DTD SVG 1.1//EN"
 "http://www.w3.org/Graphics/SVG/1.1/DTD/svg11.dtd">
<!-- Generated by graphviz version 2.43.0 (0)
 -->
<!-- Title: SimulateurFerroviaire/Modules/PCC/PCCStraightNode.h Pages: 1 -->
<svg width="841pt" height="467pt"
 viewBox="0.00 0.00 840.50 467.00" xmlns="http://www.w3.org/2000/svg" xmlns:xlink="http://www.w3.org/1999/xlink">
<g id="graph0" class="graph" transform="scale(1 1) rotate(0) translate(4 463)">
<title>SimulateurFerroviaire/Modules/PCC/PCCStraightNode.h</title>
<!-- Node1 -->
<g id="Node000001" class="node">
<title>Node1</title>
<g id="a_Node000001"><a xlink:title="Nœud PCC représentant un StraightBlock.">
<polygon fill="#999999" stroke="#666666" points="442.5,-459 263.5,-459 263.5,-429 442.5,-429 442.5,-459"/>
<text text-anchor="start" x="271.5" y="-447" font-family="Helvetica,sans-Serif" font-size="10.00">SimulateurFerroviaire</text>
<text text-anchor="middle" x="353" y="-436" font-family="Helvetica,sans-Serif" font-size="10.00">/Modules/PCC/PCCStraightNode.h</text>
</a>
</g>
</g>
<!-- Node2 -->
<g id="Node000002" class="node">
<title>Node2</title>
<g id="a_Node000002"><a xlink:href="../../d4/d02/TCORenderer_8cpp.html" target="_top" xlink:title="Renderer GDI TCO — style SNCF, blocs fixes.">
<polygon fill="white" stroke="#666666" points="137,-250 13,-250 13,-209 137,-209 137,-250"/>
<text text-anchor="start" x="21" y="-238" font-family="Helvetica,sans-Serif" font-size="10.00">SimulateurFerroviaire</text>
<text text-anchor="start" x="21" y="-227" font-family="Helvetica,sans-Serif" font-size="10.00">/Engine/HMI/PCCPanel</text>
<text text-anchor="middle" x="75" y="-216" font-family="Helvetica,sans-Serif" font-size="10.00">/TCORenderer.cpp</text>
</a>
</g>
</g>
<!-- Node1&#45;&gt;Node2 -->
<g id="edge1_Node000001_Node000002" class="edge">
<title>Node1&#45;&gt;Node2</title>
<g id="a_edge1_Node000001_Node000002"><a xlink:title=" ">
<path fill="none" stroke="#63b8ff" d="M253.24,-430.22C189.48,-416.31 111.41,-387.32 71,-327 55.69,-304.15 61.64,-270.98 67.89,-250.08"/>
<polygon fill="#63b8ff" stroke="#63b8ff" points="252.84,-433.71 263.34,-432.32 254.27,-426.85 252.84,-433.71"/>
</a>
</g>
</g>
<!-- Node3 -->
<g id="Node000003" class="node">
<title>Node3</title>
<g id="a_Node000003"><a xlink:href="../../d8/d00/PCCGraph_8h.html" target="_top" xlink:title="Conteneur propriétaire du graphe PCC.">
<polygon fill="white" stroke="#666666" points="425,-393 281,-393 281,-363 425,-363 425,-393"/>
<text text-anchor="start" x="289" y="-381" font-family="Helvetica,sans-Serif" font-size="10.00">SimulateurFerroviaire</text>
<text text-anchor="middle" x="353" y="-370" font-family="Helvetica,sans-Serif" font-size="10.00">/Modules/PCC/PCCGraph.h</text>
</a>
</g>
</g>
<!-- Node1&#45;&gt;Node3 -->
<g id="edge2_Node000001_Node000003" class="edge">
<title>Node1&#45;&gt;Node3</title>
<g id="a_edge2_Node000001_Node000003"><a xlink:title=" ">
<path fill="none" stroke="#63b8ff" d="M353,-418.54C353,-409.96 353,-400.61 353,-393.16"/>
<polygon fill="#63b8ff" stroke="#63b8ff" points="349.5,-418.8 353,-428.8 356.5,-418.8 349.5,-418.8"/>
</a>
</g>
</g>
<!-- Node17 -->
<g id="Node000017" class="node">
<title>Node17</title>
<g id="a_Node000017"><a xlink:href="../../d1/d01/PCCStraightNode_8cpp.html" target="_top" xlink:title="Implémentation du nœud PCC pour voie droite.">
<polygon fill="white" stroke="#666666" points="633,-393 443,-393 443,-363 633,-363 633,-393"/>
<text text-anchor="start" x="451" y="-381" font-family="Helvetica,sans-Serif" font-size="10.00">SimulateurFerroviaire</text>
<text text-anchor="middle" x="538" y="-370" font-family="Helvetica,sans-Serif" font-size="10.00">/Modules/PCC/PCCStraightNode.cpp</text>
</a>
</g>
</g>
<!-- Node1&#45;&gt;Node17 -->
<g id="edge21_Node000001_Node000017" class="edge">
<title>Node1&#45;&gt;Node17</title>
<g id="a_edge21_Node000001_Node000017"><a xlink:title=" ">
<path fill="none" stroke="#63b8ff" d="M403.33,-425.59C432.9,-415.36 469.8,-402.59 497.5,-393.01"/>
<polygon fill="#63b8ff" stroke="#63b8ff" points="401.91,-422.38 393.6,-428.95 404.19,-428.99 401.91,-422.38"/>
</a>
</g>
</g>
<!-- Node4 -->
<g id="Node000004" class="node">
<title>Node4</title>
<g id="a_Node000004"><a xlink:href="../../d5/d00/PCCPanel_8h.html" target="_top" xlink:title="Panneau PCC superposé togglable, affiché par&#45;dessus la carte Leaflet.">
<polygon fill="white" stroke="#666666" points="341,-250 217,-250 217,-209 341,-209 341,-250"/>
<text text-anchor="start" x="225" y="-238" font-family="Helvetica,sans-Serif" font-size="10.00">SimulateurFerroviaire</text>
<text text-anchor="start" x="225" y="-227" font-family="Helvetica,sans-Serif" font-size="10.00">/Engine/HMI/PCCPanel</text>
<text text-anchor="middle" x="279" y="-216" font-family="Helvetica,sans-Serif" font-size="10.00">/PCCPanel.h</text>
</a>
</g>
</g>
<!-- Node3&#45;&gt;Node4 -->
<g id="edge3_Node000003_Node000004" class="edge">
<title>Node3&#45;&gt;Node4</title>
<g id="a_edge3_Node000003_Node000004"><a xlink:title=" ">
<path fill="none" stroke="#63b8ff" d="M371.55,-354.86C385.19,-335.73 399.25,-307.79 386,-286 375.78,-269.19 358.64,-257.24 341.04,-248.85"/>
<polygon fill="#63b8ff" stroke="#63b8ff" points="368.65,-352.89 365.41,-362.98 374.23,-357.12 368.65,-352.89"/>
</a>
</g>
</g>
<!-- Node11 -->
<g id="Node000011" class="node">
<title>Node11</title>
<g id="a_Node000011"><a xlink:href="../../d8/d02/TCORenderer_8h.html" target="_top" xlink:title="Renderer GDI du schéma TCO — style SNCF, blocs fixes.">
<polygon fill="white" stroke="#666666" points="204,-327 80,-327 80,-286 204,-286 204,-327"/>
<text text-anchor="start" x="88" y="-315" font-family="Helvetica,sans-Serif" font-size="10.00">SimulateurFerroviaire</text>
<text text-anchor="start" x="88" y="-304" font-family="Helvetica,sans-Serif" font-size="10.00">/Engine/HMI/PCCPanel</text>
<text text-anchor="middle" x="142" y="-293" font-family="Helvetica,sans-Serif" font-size="10.00">/TCORenderer.h</text>
</a>
</g>
</g>
<!-- Node3&#45;&gt;Node11 -->
<g id="edge10_Node000003_Node000011" class="edge">
<title>Node3&#45;&gt;Node11</title>
<g id="a_edge10_Node000003_Node000011"><a xlink:title=" ">
<path fill="none" stroke="#63b8ff" d="M300.42,-359.68C270.36,-349.78 232.56,-337.33 201.42,-327.07"/>
<polygon fill="#63b8ff" stroke="#63b8ff" points="299.71,-363.13 310.3,-362.94 301.9,-356.48 299.71,-363.13"/>
</a>
</g>
</g>
<!-- Node12 -->
<g id="Node000012" class="node">
<title>Node12</title>
<g id="a_Node000012"><a xlink:href="../../d9/d00/PCCGraph_8cpp.html" target="_top" xlink:title="Implémentation du conteneur propriétaire du graphe PCC.">
<polygon fill="white" stroke="#666666" points="377.5,-321.5 222.5,-321.5 222.5,-291.5 377.5,-291.5 377.5,-321.5"/>
<text text-anchor="start" x="230.5" y="-309.5" font-family="Helvetica,sans-Serif" font-size="10.00">SimulateurFerroviaire</text>
<text text-anchor="middle" x="300" y="-298.5" font-family="Helvetica,sans-Serif" font-size="10.00">/Modules/PCC/PCCGraph.cpp</text>
</a>
</g>
</g>
<!-- Node3&#45;&gt;Node12 -->
<g id="edge14_Node000003_Node000012" class="edge">
<title>Node3&#45;&gt;Node12</title>
<g id="a_edge14_Node000003_Node000012"><a xlink:title=" ">
<path fill="none" stroke="#63b8ff" d="M336,-354.71C327.7,-343.82 317.96,-331.05 310.71,-321.54"/>
<polygon fill="#63b8ff" stroke="#63b8ff" points="333.43,-357.11 342.27,-362.94 338.99,-352.86 333.43,-357.11"/>
</a>
</g>
</g>
<!-- Node13 -->
<g id="Node000013" class="node">
<title>Node13</title>
<g id="a_Node000013"><a xlink:href="../../db/d02/PCCGraphBuilder_8h.html" target="_top" xlink:title="Constructeur du graphe PCC depuis TopologyRepository.">
<polygon fill="white" stroke="#666666" points="778,-321.5 600,-321.5 600,-291.5 778,-291.5 778,-321.5"/>
<text text-anchor="start" x="608" y="-309.5" font-family="Helvetica,sans-Serif" font-size="10.00">SimulateurFerroviaire</text>
<text text-anchor="middle" x="689" y="-298.5" font-family="Helvetica,sans-Serif" font-size="10.00">/Modules/PCC/PCCGraphBuilder.h</text>
</a>
</g>
</g>
<!-- Node3&#45;&gt;Node13 -->
<g id="edge15_Node000003_Node000013" class="edge">
<title>Node3&#45;&gt;Node13</title>
<g id="a_edge15_Node000003_Node000013"><a xlink:title=" ">
<path fill="none" stroke="#63b8ff" d="M431.13,-360.84C488.67,-348.94 566.14,-332.91 621.11,-321.54"/>
<polygon fill="#63b8ff" stroke="#63b8ff" points="430.08,-357.48 420.99,-362.94 431.5,-364.34 430.08,-357.48"/>
</a>
</g>
</g>
<!-- Node15 -->
<g id="Node000015" class="node">
<title>Node15</title>
<g id="a_Node000015"><a xlink:href="../../d6/d01/PCCLayout_8h.html" target="_top" xlink:title="Calcul des positions logiques X/Y du graphe PCC par parcours BFS.">
<polygon fill="white" stroke="#666666" points="582,-321.5 434,-321.5 434,-291.5 582,-291.5 582,-321.5"/>
<text text-anchor="start" x="442" y="-309.5" font-family="Helvetica,sans-Serif" font-size="10.00">SimulateurFerroviaire</text>
<text text-anchor="middle" x="508" y="-298.5" font-family="Helvetica,sans-Serif" font-size="10.00">/Modules/PCC/PCCLayout.h</text>
</a>
</g>
</g>
<!-- Node3&#45;&gt;Node15 -->
<g id="edge18_Node000003_Node000015" class="edge">
<title>Node3&#45;&gt;Node15</title>
<g id="a_edge18_Node000003_Node000015"><a xlink:title=" ">
<path fill="none" stroke="#63b8ff" d="M393.58,-358.81C419.55,-347.16 452.74,-332.28 476.68,-321.54"/>
<polygon fill="#63b8ff" stroke="#63b8ff" points="392.06,-355.65 384.37,-362.94 394.92,-362.04 392.06,-355.65"/>
</a>
</g>
</g>
<!-- Node5 -->
<g id="Node000005" class="node">
<title>Node5</title>
<g id="a_Node000005"><a xlink:href="../../da/d00/MainWindow_8h.html" target="_top" xlink:title="Déclaration de la fenêtre principale de l&#39;application.">
<polygon fill="white" stroke="#666666" points="321.5,-167.5 172.5,-167.5 172.5,-137.5 321.5,-137.5 321.5,-167.5"/>
<text text-anchor="start" x="180.5" y="-155.5" font-family="Helvetica,sans-Serif" font-size="10.00">SimulateurFerroviaire</text>
<text text-anchor="middle" x="247" y="-144.5" font-family="Helvetica,sans-Serif" font-size="10.00">/Engine/HMI/MainWindow.h</text>
</a>
</g>
</g>
<!-- Node4&#45;&gt;Node5 -->
<g id="edge4_Node000004_Node000005" class="edge">
<title>Node4&#45;&gt;Node5</title>
<g id="a_edge4_Node000004_Node000005"><a xlink:title=" ">
<path fill="none" stroke="#63b8ff" d="M266.53,-199.27C261.93,-188.49 256.92,-176.75 253.13,-167.86"/>
<polygon fill="#63b8ff" stroke="#63b8ff" points="263.45,-200.97 270.59,-208.79 269.89,-198.22 263.45,-200.97"/>
</a>
</g>
</g>
<!-- Node10 -->
<g id="Node000010" class="node">
<title>Node10</title>
<g id="a_Node000010"><a xlink:href="../../d4/d03/PCCPanel_8cpp.html" target="_top" xlink:title="Implémentation du panneau PCC superposé togglable.">
<polygon fill="white" stroke="#666666" points="463,-173 339,-173 339,-132 463,-132 463,-173"/>
<text text-anchor="start" x="347" y="-161" font-family="Helvetica,sans-Serif" font-size="10.00">SimulateurFerroviaire</text>
<text text-anchor="start" x="347" y="-150" font-family="Helvetica,sans-Serif" font-size="10.00">/Engine/HMI/PCCPanel</text>
<text text-anchor="middle" x="401" y="-139" font-family="Helvetica,sans-Serif" font-size="10.00">/PCCPanel.cpp</text>
</a>
</g>
</g>
<!-- Node4&#45;&gt;Node10 -->
<g id="edge9_Node000004_Node000010" class="edge">
<title>Node4&#45;&gt;Node10</title>
<g id="a_edge9_Node000004_Node000010"><a xlink:title=" ">
<path fill="none" stroke="#63b8ff" d="M319.43,-203.64C335.55,-193.74 353.83,-182.5 369,-173.17"/>
<polygon fill="#63b8ff" stroke="#63b8ff" points="317.42,-200.77 310.74,-208.99 321.09,-206.73 317.42,-200.77"/>
</a>
</g>
</g>
<!-- Node6 -->
<g id="Node000006" class="node">
<title>Node6</title>
<g id="a_Node000006"><a xlink:href="../../d4/d00/Application_8h.html" target="_top" xlink:title="Gestion du cycle de vie de l&#39;application Win32.">
<polygon fill="white" stroke="#666666" points="234.5,-96 89.5,-96 89.5,-66 234.5,-66 234.5,-96"/>
<text text-anchor="start" x="97.5" y="-84" font-family="Helvetica,sans-Serif" font-size="10.00">SimulateurFerroviaire</text>
<text text-anchor="middle" x="162" y="-73" font-family="Helvetica,sans-Serif" font-size="10.00">/Engine/Core/Application.h</text>
</a>
</g>
</g>
<!-- Node5&#45;&gt;Node6 -->
<g id="edge5_Node000005_Node000006" class="edge">
<title>Node5&#45;&gt;Node6</title>
<g id="a_edge5_Node000005_Node000006"><a xlink:title=" ">
<path fill="none" stroke="#63b8ff" d="M221.69,-130.81C207.98,-119.59 191.38,-106.02 179.18,-96.04"/>
<polygon fill="#63b8ff" stroke="#63b8ff" points="219.84,-133.82 229.8,-137.44 224.27,-128.4 219.84,-133.82"/>
</a>
</g>
</g>
<!-- Node9 -->
<g id="Node000009" class="node">
<title>Node9</title>
<g id="a_Node000009"><a xlink:href="../../d3/d03/MainWindow_8cpp.html" target="_top" xlink:title="Implémentation de la fenêtre principale.">
<polygon fill="white" stroke="#666666" points="413.5,-96 252.5,-96 252.5,-66 413.5,-66 413.5,-96"/>
<text text-anchor="start" x="260.5" y="-84" font-family="Helvetica,sans-Serif" font-size="10.00">SimulateurFerroviaire</text>
<text text-anchor="middle" x="333" y="-73" font-family="Helvetica,sans-Serif" font-size="10.00">/Engine/HMI/MainWindow.cpp</text>
</a>
</g>
</g>
<!-- Node5&#45;&gt;Node9 -->
<g id="edge8_Node000005_Node000009" class="edge">
<title>Node5&#45;&gt;Node9</title>
<g id="a_edge8_Node000005_Node000009"><a xlink:title=" ">
<path fill="none" stroke="#63b8ff" d="M272.21,-131.13C286.17,-119.85 303.16,-106.12 315.62,-96.04"/>
<polygon fill="#63b8ff" stroke="#63b8ff" points="269.98,-128.43 264.4,-137.44 274.38,-133.87 269.98,-128.43"/>
</a>
</g>
</g>
<!-- Node7 -->
<g id="Node000007" class="node">
<title>Node7</title>
<g id="a_Node000007"><a xlink:href="../../d2/d02/Application_8cpp.html" target="_top" xlink:title="Implémentation du cycle de vie de l&#39;application Win32.">
<polygon fill="white" stroke="#666666" points="156,-30 0,-30 0,0 156,0 156,-30"/>
<text text-anchor="start" x="8" y="-18" font-family="Helvetica,sans-Serif" font-size="10.00">SimulateurFerroviaire</text>
<text text-anchor="middle" x="78" y="-7" font-family="Helvetica,sans-Serif" font-size="10.00">/Engine/Core/Application.cpp</text>
</a>
</g>
</g>
<!-- Node6&#45;&gt;Node7 -->
<g id="edge6_Node000006_Node000007" class="edge">
<title>Node6&#45;&gt;Node7</title>
<g id="a_edge6_Node000006_Node000007"><a xlink:title=" ">
<path fill="none" stroke="#63b8ff" d="M135.06,-59.48C122.51,-49.91 107.89,-38.77 96.59,-30.16"/>
<polygon fill="#63b8ff" stroke="#63b8ff" points="133.28,-62.52 143.36,-65.8 137.52,-56.95 133.28,-62.52"/>
</a>
</g>
</g>
<!-- Node8 -->
<g id="Node000008" class="node">
<title>Node8</title>
<g id="a_Node000008"><a xlink:href="../../db/d00/SimulateurFerroviaire_8cpp.html" target="_top" xlink:title="Point d&#39;entrée unique de l&#39;application Win32.">
<polygon fill="white" stroke="#666666" points="320,-30 174,-30 174,0 320,0 320,-30"/>
<text text-anchor="start" x="182" y="-18" font-family="Helvetica,sans-Serif" font-size="10.00">SimulateurFerroviaire</text>
<text text-anchor="middle" x="247" y="-7" font-family="Helvetica,sans-Serif" font-size="10.00">/SimulateurFerroviaire.cpp</text>
</a>
</g>
</g>
<!-- Node6&#45;&gt;Node8 -->
<g id="edge7_Node000006_Node000008" class="edge">
<title>Node6&#45;&gt;Node8</title>
<g id="a_edge7_Node000006_Node000008"><a xlink:title=" ">
<path fill="none" stroke="#63b8ff" d="M188.89,-59.75C201.67,-50.13 216.64,-38.86 228.19,-30.16"/>
<polygon fill="#63b8ff" stroke="#63b8ff" points="186.75,-56.99 180.86,-65.8 190.96,-62.58 186.75,-56.99"/>
</a>
</g>
</g>
<!-- Node11&#45;&gt;Node2 -->
<g id="edge13_Node000011_Node000002" class="edge">
<title>Node11&#45;&gt;Node2</title>
<g id="a_edge13_Node000011_Node000002"><a xlink:title=" ">
<path fill="none" stroke="#63b8ff" d="M117.64,-278.23C109.31,-268.91 100.16,-258.67 92.49,-250.07"/>
<polygon fill="#63b8ff" stroke="#63b8ff" points="115.12,-280.67 124.4,-285.79 120.34,-276.01 115.12,-280.67"/>
</a>
</g>
</g>
<!-- Node11&#45;&gt;Node4 -->
<g id="edge12_Node000011_Node000004" class="edge">
<title>Node11&#45;&gt;Node4</title>
<g id="a_edge12_Node000011_Node000004"><a xlink:title=" ">
<path fill="none" stroke="#63b8ff" d="M186.65,-281.06C204.93,-271.05 225.8,-259.63 243.07,-250.17"/>
<polygon fill="#63b8ff" stroke="#63b8ff" points="184.73,-278.12 177.64,-285.99 188.09,-284.26 184.73,-278.12"/>
</a>
</g>
</g>
<!-- Node11&#45;&gt;Node10 -->
<g id="edge11_Node000011_Node000010" class="edge">
<title>Node11&#45;&gt;Node10</title>
<g id="a_edge11_Node000011_Node000010"><a xlink:title=" ">
<path fill="none" stroke="#63b8ff" d="M154.9,-276.74C166.02,-255.09 184.06,-226.29 208,-209 210.79,-206.99 283.42,-186.38 338.77,-170.86"/>
<polygon fill="#63b8ff" stroke="#63b8ff" points="151.71,-275.3 150.42,-285.82 157.98,-278.39 151.71,-275.3"/>
</a>
</g>
</g>
<!-- Node13&#45;&gt;Node10 -->
<g id="edge16_Node000013_Node000010" class="edge">
<title>Node13&#45;&gt;Node10</title>
<g id="a_edge16_Node000013_Node000010"><a xlink:title=" ">
<path fill="none" stroke="#63b8ff" d="M668,-284.03C657.98,-273.76 645.84,-261.27 635,-250 617.56,-231.88 617.52,-222.01 596,-209 555.34,-184.41 503.33,-170.32 463.26,-162.5"/>
<polygon fill="#63b8ff" stroke="#63b8ff" points="665.7,-286.69 675.2,-291.4 670.71,-281.8 665.7,-286.69"/>
</a>
</g>
</g>
<!-- Node14 -->
<g id="Node000014" class="node">
<title>Node14</title>
<g id="a_Node000014"><a xlink:href="../../d0/d01/PCCGraphBuilder_8cpp.html" target="_top" xlink:title="Implémentation du constructeur du graphe PCC.">
<polygon fill="white" stroke="#666666" points="832.5,-244.5 643.5,-244.5 643.5,-214.5 832.5,-214.5 832.5,-244.5"/>
<text text-anchor="start" x="651.5" y="-232.5" font-family="Helvetica,sans-Serif" font-size="10.00">SimulateurFerroviaire</text>
<text text-anchor="middle" x="738" y="-221.5" font-family="Helvetica,sans-Serif" font-size="10.00">/Modules/PCC/PCCGraphBuilder.cpp</text>
</a>
</g>
</g>
<!-- Node13&#45;&gt;Node14 -->
<g id="edge17_Node000013_Node000014" class="edge">
<title>Node13&#45;&gt;Node14</title>
<g id="a_edge17_Node000013_Node000014"><a xlink:title=" ">
<path fill="none" stroke="#63b8ff" d="M703.78,-282.88C711.93,-270.41 721.79,-255.32 728.82,-244.54"/>
<polygon fill="#63b8ff" stroke="#63b8ff" points="700.76,-281.11 698.22,-291.39 706.62,-284.94 700.76,-281.11"/>
</a>
</g>
</g>
<!-- Node15&#45;&gt;Node10 -->
<g id="edge19_Node000015_Node000010" class="edge">
<title>Node15&#45;&gt;Node10</title>
<g id="a_edge19_Node000015_Node000010"><a xlink:title=" ">
<path fill="none" stroke="#63b8ff" d="M463.23,-286.55C447.3,-277.67 430.68,-265.56 420,-250 404.26,-227.05 400.86,-194.2 400.47,-173.37"/>
<polygon fill="#63b8ff" stroke="#63b8ff" points="462.01,-289.85 472.49,-291.4 465.26,-283.65 462.01,-289.85"/>
</a>
</g>
</g>
<!-- Node16 -->
<g id="Node000016" class="node">
<title>Node16</title>
<g id="a_Node000016"><a xlink:href="../../d3/d02/PCCLayout_8cpp.html" target="_top" xlink:title="Implémentation du calculateur de positions logiques PCC.">
<polygon fill="white" stroke="#666666" points="587.5,-244.5 428.5,-244.5 428.5,-214.5 587.5,-214.5 587.5,-244.5"/>
<text text-anchor="start" x="436.5" y="-232.5" font-family="Helvetica,sans-Serif" font-size="10.00">SimulateurFerroviaire</text>
<text text-anchor="middle" x="508" y="-221.5" font-family="Helvetica,sans-Serif" font-size="10.00">/Modules/PCC/PCCLayout.cpp</text>
</a>
</g>
</g>
<!-- Node15&#45;&gt;Node16 -->
<g id="edge20_Node000015_Node000016" class="edge">
<title>Node15&#45;&gt;Node16</title>
<g id="a_edge20_Node000015_Node000016"><a xlink:title=" ">
<path fill="none" stroke="#63b8ff" d="M508,-281.04C508,-268.95 508,-254.79 508,-244.54"/>
<polygon fill="#63b8ff" stroke="#63b8ff" points="504.5,-281.39 508,-291.39 511.5,-281.39 504.5,-281.39"/>
</a>
</g>
</g>
</g>
</svg>
