<?xml version="1.0" encoding="UTF-8" standalone="no"?>
<!DOCTYPE svg PUBLIC "-//W3C//DTD SVG 1.1//EN"
 "http://www.w3.org/Graphics/SVG/1.1/DTD/svg11.dtd">
<!-- Generated by graphviz version 2.43.0 (0)
 -->
<!-- Title: SimulateurFerroviaire/Modules/PCC/PCCStraightNode.h Pages: 1 -->
<svg width="1062pt" height="390pt"
 viewBox="0.00 0.00 1061.50 390.00" xmlns="http://www.w3.org/2000/svg" xmlns:xlink="http://www.w3.org/1999/xlink">
<g id="graph0" class="graph" transform="scale(1 1) rotate(0) translate(4 386)">
<title>SimulateurFerroviaire/Modules/PCC/PCCStraightNode.h</title>
<!-- Node1 -->
<g id="Node000001" class="node">
<title>Node1</title>
<g id="a_Node000001"><a xlink:title="Nœud PCC représentant un StraightBlock.">
<polygon fill="#999999" stroke="#666666" points="925,-382 746,-382 746,-352 925,-352 925,-382"/>
<text text-anchor="start" x="754" y="-370" font-family="Helvetica,sans-Serif" font-size="10.00">SimulateurFerroviaire</text>
<text text-anchor="middle" x="835.5" y="-359" font-family="Helvetica,sans-Serif" font-size="10.00">/Modules/PCC/PCCStraightNode.h</text>
</a>
</g>
</g>
<!-- Node2 -->
<g id="Node000002" class="node">
<title>Node2</title>
<g id="a_Node000002"><a xlink:href="../../d4/d02/TCORenderer_8cpp.html" target="_top" xlink:title="Renderer GDI TCO — style SNCF, blocs fixes.">
<polygon fill="white" stroke="#666666" points="877.5,-173 753.5,-173 753.5,-132 877.5,-132 877.5,-173"/>
<text text-anchor="start" x="761.5" y="-161" font-family="Helvetica,sans-Serif" font-size="10.00">SimulateurFerroviaire</text>
<text text-anchor="start" x="761.5" y="-150" font-family="Helvetica,sans-Serif" font-size="10.00">/Engine/HMI/PCCPanel</text>
<text text-anchor="middle" x="815.5" y="-139" font-family="Helvetica,sans-Serif" font-size="10.00">/TCORenderer.cpp</text>
</a>
</g>
</g>
<!-- Node1&#45;&gt;Node2 -->
<g id="edge1_Node000001_Node000002" class="edge">
<title>Node1&#45;&gt;Node2</title>
<g id="a_edge1_Node000001_Node000002"><a xlink:title=" ">
<path fill="none" stroke="#63b8ff" d="M833.21,-341.69C829.21,-299.16 821.01,-212.06 817.34,-173.1"/>
<polygon fill="#63b8ff" stroke="#63b8ff" points="829.73,-342.1 834.16,-351.73 836.7,-341.44 829.73,-342.1"/>
</a>
</g>
</g>
<!-- Node3 -->
<g id="Node000003" class="node">
<title>Node3</title>
<g id="a_Node000003"><a xlink:href="../../d8/d00/PCCGraph_8h.html" target="_top" xlink:title="Conteneur propriétaire du graphe PCC.">
<polygon fill="white" stroke="#666666" points="564.5,-316 420.5,-316 420.5,-286 564.5,-286 564.5,-316"/>
<text text-anchor="start" x="428.5" y="-304" font-family="Helvetica,sans-Serif" font-size="10.00">SimulateurFerroviaire</text>
<text text-anchor="middle" x="492.5" y="-293" font-family="Helvetica,sans-Serif" font-size="10.00">/Modules/PCC/PCCGraph.h</text>
</a>
</g>
</g>
<!-- Node1&#45;&gt;Node3 -->
<g id="edge2_Node000001_Node000003" class="edge">
<title>Node1&#45;&gt;Node3</title>
<g id="a_edge2_Node000001_Node000003"><a xlink:title=" ">
<path fill="none" stroke="#63b8ff" d="M750.14,-350.07C693.06,-339.42 618.79,-325.56 564.66,-315.46"/>
<polygon fill="#63b8ff" stroke="#63b8ff" points="749.75,-353.56 760.23,-351.95 751.04,-346.68 749.75,-353.56"/>
</a>
</g>
</g>
<!-- Node17 -->
<g id="Node000017" class="node">
<title>Node17</title>
<g id="a_Node000017"><a xlink:href="../../d1/d01/PCCStraightNode_8cpp.html" target="_top" xlink:title="Implémentation du nœud PCC pour voie droite.">
<polygon fill="white" stroke="#666666" points="1053.5,-316 863.5,-316 863.5,-286 1053.5,-286 1053.5,-316"/>
<text text-anchor="start" x="871.5" y="-304" font-family="Helvetica,sans-Serif" font-size="10.00">SimulateurFerroviaire</text>
<text text-anchor="middle" x="958.5" y="-293" font-family="Helvetica,sans-Serif" font-size="10.00">/Modules/PCC/PCCStraightNode.cpp</text>
</a>
</g>
</g>
<!-- Node1&#45;&gt;Node17 -->
<g id="edge20_Node000001_Node000017" class="edge">
<title>Node1&#45;&gt;Node17</title>
<g id="a_edge20_Node000001_Node000017"><a xlink:title=" ">
<path fill="none" stroke="#63b8ff" d="M871.55,-347.24C890.75,-337.25 913.96,-325.18 931.57,-316.01"/>
<polygon fill="#63b8ff" stroke="#63b8ff" points="869.75,-344.23 862.49,-351.95 872.98,-350.44 869.75,-344.23"/>
</a>
</g>
</g>
<!-- Node4 -->
<g id="Node000004" class="node">
<title>Node4</title>
<g id="a_Node000004"><a xlink:href="../../d5/d00/PCCPanel_8h.html" target="_top" xlink:title="Panneau PCC superposé togglable, affiché par&#45;dessus la carte Leaflet.">
<polygon fill="white" stroke="#666666" points="469.5,-250 345.5,-250 345.5,-209 469.5,-209 469.5,-250"/>
<text text-anchor="start" x="353.5" y="-238" font-family="Helvetica,sans-Serif" font-size="10.00">SimulateurFerroviaire</text>
<text text-anchor="start" x="353.5" y="-227" font-family="Helvetica,sans-Serif" font-size="10.00">/Engine/HMI/PCCPanel</text>
<text text-anchor="middle" x="407.5" y="-216" font-family="Helvetica,sans-Serif" font-size="10.00">/PCCPanel.h</text>
</a>
</g>
</g>
<!-- Node3&#45;&gt;Node4 -->
<g id="edge3_Node000003_Node000004" class="edge">
<title>Node3&#45;&gt;Node4</title>
<g id="a_edge3_Node000003_Node000004"><a xlink:title=" ">
<path fill="none" stroke="#63b8ff" d="M467.43,-279.5C456.06,-270.21 442.67,-259.26 431.44,-250.07"/>
<polygon fill="#63b8ff" stroke="#63b8ff" points="465.34,-282.32 475.3,-285.94 469.77,-276.9 465.34,-282.32"/>
</a>
</g>
</g>
<!-- Node11 -->
<g id="Node000011" class="node">
<title>Node11</title>
<g id="a_Node000011"><a xlink:href="../../d8/d02/TCORenderer_8h.html" target="_top" xlink:title="Renderer GDI du schéma TCO — style SNCF, blocs fixes.">
<polygon fill="white" stroke="#666666" points="807.5,-250 683.5,-250 683.5,-209 807.5,-209 807.5,-250"/>
<text text-anchor="start" x="691.5" y="-238" font-family="Helvetica,sans-Serif" font-size="10.00">SimulateurFerroviaire</text>
<text text-anchor="start" x="691.5" y="-227" font-family="Helvetica,sans-Serif" font-size="10.00">/Engine/HMI/PCCPanel</text>
<text text-anchor="middle" x="745.5" y="-216" font-family="Helvetica,sans-Serif" font-size="10.00">/TCORenderer.h</text>
</a>
</g>
</g>
<!-- Node3&#45;&gt;Node11 -->
<g id="edge10_Node000003_Node000011" class="edge">
<title>Node3&#45;&gt;Node11</title>
<g id="a_edge10_Node000003_Node000011"><a xlink:title=" ">
<path fill="none" stroke="#63b8ff" d="M553.42,-283.27C592.7,-272.48 643.64,-258.48 683.19,-247.62"/>
<polygon fill="#63b8ff" stroke="#63b8ff" points="552.41,-279.91 543.7,-285.94 554.27,-286.66 552.41,-279.91"/>
</a>
</g>
</g>
<!-- Node12 -->
<g id="Node000012" class="node">
<title>Node12</title>
<g id="a_Node000012"><a xlink:href="../../d9/d00/PCCGraph_8cpp.html" target="_top" xlink:title="Implémentation du conteneur propriétaire du graphe PCC.">
<polygon fill="white" stroke="#666666" points="327,-244.5 172,-244.5 172,-214.5 327,-214.5 327,-244.5"/>
<text text-anchor="start" x="180" y="-232.5" font-family="Helvetica,sans-Serif" font-size="10.00">SimulateurFerroviaire</text>
<text text-anchor="middle" x="249.5" y="-221.5" font-family="Helvetica,sans-Serif" font-size="10.00">/Modules/PCC/PCCGraph.cpp</text>
</a>
</g>
</g>
<!-- Node3&#45;&gt;Node12 -->
<g id="edge13_Node000003_Node000012" class="edge">
<title>Node3&#45;&gt;Node12</title>
<g id="a_edge13_Node000003_Node000012"><a xlink:title=" ">
<path fill="none" stroke="#63b8ff" d="M433.65,-283.17C392.3,-271.34 337.61,-255.7 298.6,-244.54"/>
<polygon fill="#63b8ff" stroke="#63b8ff" points="432.75,-286.55 443.33,-285.94 434.67,-279.82 432.75,-286.55"/>
</a>
</g>
</g>
<!-- Node13 -->
<g id="Node000013" class="node">
<title>Node13</title>
<g id="a_Node000013"><a xlink:href="../../db/d02/PCCGraphBuilder_8h.html" target="_top" xlink:title="Constructeur du graphe PCC depuis TopologyRepository.">
<polygon fill="white" stroke="#666666" points="665.5,-244.5 487.5,-244.5 487.5,-214.5 665.5,-214.5 665.5,-244.5"/>
<text text-anchor="start" x="495.5" y="-232.5" font-family="Helvetica,sans-Serif" font-size="10.00">SimulateurFerroviaire</text>
<text text-anchor="middle" x="576.5" y="-221.5" font-family="Helvetica,sans-Serif" font-size="10.00">/Modules/PCC/PCCGraphBuilder.h</text>
</a>
</g>
</g>
<!-- Node3&#45;&gt;Node13 -->
<g id="edge14_Node000003_Node000013" class="edge">
<title>Node3&#45;&gt;Node13</title>
<g id="a_edge14_Node000003_Node000013"><a xlink:title=" ">
<path fill="none" stroke="#63b8ff" d="M517.51,-279.31C531.07,-268.09 547.46,-254.52 559.53,-244.54"/>
<polygon fill="#63b8ff" stroke="#63b8ff" points="514.97,-276.86 509.5,-285.94 519.43,-282.26 514.97,-276.86"/>
</a>
</g>
</g>
<!-- Node15 -->
<g id="Node000015" class="node">
<title>Node15</title>
<g id="a_Node000015"><a xlink:href="../../d6/d01/PCCLayout_8h.html" target="_top" xlink:title="Calcul des positions logiques X/Y du graphe PCC par parcours BFS.">
<polygon fill="white" stroke="#666666" points="153.5,-244.5 5.5,-244.5 5.5,-214.5 153.5,-214.5 153.5,-244.5"/>
<text text-anchor="start" x="13.5" y="-232.5" font-family="Helvetica,sans-Serif" font-size="10.00">SimulateurFerroviaire</text>
<text text-anchor="middle" x="79.5" y="-221.5" font-family="Helvetica,sans-Serif" font-size="10.00">/Modules/PCC/PCCLayout.h</text>
</a>
</g>
</g>
<!-- Node3&#45;&gt;Node15 -->
<g id="edge17_Node000003_Node000015" class="edge">
<title>Node3&#45;&gt;Node15</title>
<g id="a_edge17_Node000003_Node000015"><a xlink:title=" ">
<path fill="none" stroke="#63b8ff" d="M410.37,-289.42C343.41,-280.35 246.52,-266.21 162.5,-250 154.07,-248.37 145.2,-246.48 136.52,-244.53"/>
<polygon fill="#63b8ff" stroke="#63b8ff" points="410.06,-292.91 420.44,-290.78 411,-285.98 410.06,-292.91"/>
</a>
</g>
</g>
<!-- Node5 -->
<g id="Node000005" class="node">
<title>Node5</title>
<g id="a_Node000005"><a xlink:href="../../da/d00/MainWindow_8h.html" target="_top" xlink:title="Déclaration de la fenêtre principale de l&#39;application.">
<polygon fill="white" stroke="#666666" points="347,-167.5 198,-167.5 198,-137.5 347,-137.5 347,-167.5"/>
<text text-anchor="start" x="206" y="-155.5" font-family="Helvetica,sans-Serif" font-size="10.00">SimulateurFerroviaire</text>
<text text-anchor="middle" x="272.5" y="-144.5" font-family="Helvetica,sans-Serif" font-size="10.00">/Engine/HMI/MainWindow.h</text>
</a>
</g>
</g>
<!-- Node4&#45;&gt;Node5 -->
<g id="edge4_Node000004_Node000005" class="edge">
<title>Node4&#45;&gt;Node5</title>
<g id="a_edge4_Node000004_Node000005"><a xlink:title=" ">
<path fill="none" stroke="#63b8ff" d="M363.37,-203.98C341.74,-191.97 316.46,-177.92 298.06,-167.7"/>
<polygon fill="#63b8ff" stroke="#63b8ff" points="361.94,-207.19 372.38,-208.99 365.34,-201.07 361.94,-207.19"/>
</a>
</g>
</g>
<!-- Node10 -->
<g id="Node000010" class="node">
<title>Node10</title>
<g id="a_Node000010"><a xlink:href="../../d4/d03/PCCPanel_8cpp.html" target="_top" xlink:title="Implémentation du panneau PCC superposé togglable.">
<polygon fill="white" stroke="#666666" points="488.5,-173 364.5,-173 364.5,-132 488.5,-132 488.5,-173"/>
<text text-anchor="start" x="372.5" y="-161" font-family="Helvetica,sans-Serif" font-size="10.00">SimulateurFerroviaire</text>
<text text-anchor="start" x="372.5" y="-150" font-family="Helvetica,sans-Serif" font-size="10.00">/Engine/HMI/PCCPanel</text>
<text text-anchor="middle" x="426.5" y="-139" font-family="Helvetica,sans-Serif" font-size="10.00">/PCCPanel.cpp</text>
</a>
</g>
</g>
<!-- Node4&#45;&gt;Node10 -->
<g id="edge9_Node000004_Node000010" class="edge">
<title>Node4&#45;&gt;Node10</title>
<g id="a_edge9_Node000004_Node000010"><a xlink:title=" ">
<path fill="none" stroke="#63b8ff" d="M414.98,-198.98C417.18,-190.28 419.54,-180.98 421.54,-173.07"/>
<polygon fill="#63b8ff" stroke="#63b8ff" points="411.56,-198.24 412.49,-208.79 418.34,-199.96 411.56,-198.24"/>
</a>
</g>
</g>
<!-- Node6 -->
<g id="Node000006" class="node">
<title>Node6</title>
<g id="a_Node000006"><a xlink:href="../../d4/d00/Application_8h.html" target="_top" xlink:title="Gestion du cycle de vie de l&#39;application Win32.">
<polygon fill="white" stroke="#666666" points="260,-96 115,-96 115,-66 260,-66 260,-96"/>
<text text-anchor="start" x="123" y="-84" font-family="Helvetica,sans-Serif" font-size="10.00">SimulateurFerroviaire</text>
<text text-anchor="middle" x="187.5" y="-73" font-family="Helvetica,sans-Serif" font-size="10.00">/Engine/Core/Application.h</text>
</a>
</g>
</g>
<!-- Node5&#45;&gt;Node6 -->
<g id="edge5_Node000005_Node000006" class="edge">
<title>Node5&#45;&gt;Node6</title>
<g id="a_edge5_Node000005_Node000006"><a xlink:title=" ">
<path fill="none" stroke="#63b8ff" d="M247.19,-130.81C233.48,-119.59 216.88,-106.02 204.68,-96.04"/>
<polygon fill="#63b8ff" stroke="#63b8ff" points="245.34,-133.82 255.3,-137.44 249.77,-128.4 245.34,-133.82"/>
</a>
</g>
</g>
<!-- Node9 -->
<g id="Node000009" class="node">
<title>Node9</title>
<g id="a_Node000009"><a xlink:href="../../d3/d03/MainWindow_8cpp.html" target="_top" xlink:title="Implémentation de la fenêtre principale.">
<polygon fill="white" stroke="#666666" points="439,-96 278,-96 278,-66 439,-66 439,-96"/>
<text text-anchor="start" x="286" y="-84" font-family="Helvetica,sans-Serif" font-size="10.00">SimulateurFerroviaire</text>
<text text-anchor="middle" x="358.5" y="-73" font-family="Helvetica,sans-Serif" font-size="10.00">/Engine/HMI/MainWindow.cpp</text>
</a>
</g>
</g>
<!-- Node5&#45;&gt;Node9 -->
<g id="edge8_Node000005_Node000009" class="edge">
<title>Node5&#45;&gt;Node9</title>
<g id="a_edge8_Node000005_Node000009"><a xlink:title=" ">
<path fill="none" stroke="#63b8ff" d="M297.71,-131.13C311.67,-119.85 328.66,-106.12 341.12,-96.04"/>
<polygon fill="#63b8ff" stroke="#63b8ff" points="295.48,-128.43 289.9,-137.44 299.88,-133.87 295.48,-128.43"/>
</a>
</g>
</g>
<!-- Node7 -->
<g id="Node000007" class="node">
<title>Node7</title>
<g id="a_Node000007"><a xlink:href="../../d2/d02/Application_8cpp.html" target="_top" xlink:title="Implémentation du cycle de vie de l&#39;application Win32.">
<polygon fill="white" stroke="#666666" points="181.5,-30 25.5,-30 25.5,0 181.5,0 181.5,-30"/>
<text text-anchor="start" x="33.5" y="-18" font-family="Helvetica,sans-Serif" font-size="10.00">SimulateurFerroviaire</text>
<text text-anchor="middle" x="103.5" y="-7" font-family="Helvetica,sans-Serif" font-size="10.00">/Engine/Core/Application.cpp</text>
</a>
</g>
</g>
<!-- Node6&#45;&gt;Node7 -->
<g id="edge6_Node000006_Node000007" class="edge">
<title>Node6&#45;&gt;Node7</title>
<g id="a_edge6_Node000006_Node000007"><a xlink:title=" ">
<path fill="none" stroke="#63b8ff" d="M160.56,-59.48C148.01,-49.91 133.39,-38.77 122.09,-30.16"/>
<polygon fill="#63b8ff" stroke="#63b8ff" points="158.78,-62.52 168.86,-65.8 163.02,-56.95 158.78,-62.52"/>
</a>
</g>
</g>
<!-- Node8 -->
<g id="Node000008" class="node">
<title>Node8</title>
<g id="a_Node000008"><a xlink:href="../../db/d00/SimulateurFerroviaire_8cpp.html" target="_top" xlink:title="Point d&#39;entrée unique de l&#39;application Win32.">
<polygon fill="white" stroke="#666666" points="345.5,-30 199.5,-30 199.5,0 345.5,0 345.5,-30"/>
<text text-anchor="start" x="207.5" y="-18" font-family="Helvetica,sans-Serif" font-size="10.00">SimulateurFerroviaire</text>
<text text-anchor="middle" x="272.5" y="-7" font-family="Helvetica,sans-Serif" font-size="10.00">/SimulateurFerroviaire.cpp</text>
</a>
</g>
</g>
<!-- Node6&#45;&gt;Node8 -->
<g id="edge7_Node000006_Node000008" class="edge">
<title>Node6&#45;&gt;Node8</title>
<g id="a_edge7_Node000006_Node000008"><a xlink:title=" ">
<path fill="none" stroke="#63b8ff" d="M214.39,-59.75C227.17,-50.13 242.14,-38.86 253.69,-30.16"/>
<polygon fill="#63b8ff" stroke="#63b8ff" points="212.25,-56.99 206.36,-65.8 216.46,-62.58 212.25,-56.99"/>
</a>
</g>
</g>
<!-- Node11&#45;&gt;Node2 -->
<g id="edge12_Node000011_Node000002" class="edge">
<title>Node11&#45;&gt;Node2</title>
<g id="a_edge12_Node000011_Node000002"><a xlink:title=" ">
<path fill="none" stroke="#63b8ff" d="M770.95,-201.23C779.65,-191.91 789.21,-181.67 797.23,-173.07"/>
<polygon fill="#63b8ff" stroke="#63b8ff" points="768.16,-199.1 763.89,-208.79 773.27,-203.87 768.16,-199.1"/>
</a>
</g>
</g>
<!-- Node11&#45;&gt;Node10 -->
<g id="edge11_Node000011_Node000010" class="edge">
<title>Node11&#45;&gt;Node10</title>
<g id="a_edge11_Node000011_Node000010"><a xlink:title=" ">
<path fill="none" stroke="#63b8ff" d="M673.35,-208.8C594.7,-190.43 572.53,-190.91 497.5,-173 494.64,-172.32 491.72,-171.6 488.78,-170.86"/>
<polygon fill="#63b8ff" stroke="#63b8ff" points="672.69,-212.24 683.22,-211.14 674.3,-205.43 672.69,-212.24"/>
</a>
</g>
</g>
<!-- Node13&#45;&gt;Node10 -->
<g id="edge15_Node000013_Node000010" class="edge">
<title>Node13&#45;&gt;Node10</title>
<g id="a_edge15_Node000013_Node000010"><a xlink:title=" ">
<path fill="none" stroke="#63b8ff" d="M539.1,-209.8C516.71,-198.61 488.31,-184.4 465.62,-173.06"/>
<polygon fill="#63b8ff" stroke="#63b8ff" points="537.78,-213.05 548.29,-214.39 540.91,-206.79 537.78,-213.05"/>
</a>
</g>
</g>
<!-- Node14 -->
<g id="Node000014" class="node">
<title>Node14</title>
<g id="a_Node000014"><a xlink:href="../../d0/d01/PCCGraphBuilder_8cpp.html" target="_top" xlink:title="Implémentation du constructeur du graphe PCC.">
<polygon fill="white" stroke="#666666" points="696,-167.5 507,-167.5 507,-137.5 696,-137.5 696,-167.5"/>
<text text-anchor="start" x="515" y="-155.5" font-family="Helvetica,sans-Serif" font-size="10.00">SimulateurFerroviaire</text>
<text text-anchor="middle" x="601.5" y="-144.5" font-family="Helvetica,sans-Serif" font-size="10.00">/Modules/PCC/PCCGraphBuilder.cpp</text>
</a>
</g>
</g>
<!-- Node13&#45;&gt;Node14 -->
<g id="edge16_Node000013_Node000014" class="edge">
<title>Node13&#45;&gt;Node14</title>
<g id="a_edge16_Node000013_Node000014"><a xlink:title=" ">
<path fill="none" stroke="#63b8ff" d="M584.41,-204.78C588.49,-192.53 593.33,-178 596.82,-167.54"/>
<polygon fill="#63b8ff" stroke="#63b8ff" points="581.04,-203.8 581.2,-214.39 587.69,-206.01 581.04,-203.8"/>
</a>
</g>
</g>
<!-- Node15&#45;&gt;Node10 -->
<g id="edge18_Node000015_Node000010" class="edge">
<title>Node15&#45;&gt;Node10</title>
<g id="a_edge18_Node000015_Node000010"><a xlink:title=" ">
<path fill="none" stroke="#63b8ff" d="M147.99,-212.15C152.9,-211.06 157.77,-210 162.5,-209 247.88,-191.02 270.47,-192.57 355.5,-173 358.37,-172.34 361.29,-171.64 364.24,-170.92"/>
<polygon fill="#63b8ff" stroke="#63b8ff" points="146.91,-208.8 137.92,-214.42 148.44,-215.63 146.91,-208.8"/>
</a>
</g>
</g>
<!-- Node16 -->
<g id="Node000016" class="node">
<title>Node16</title>
<g id="a_Node000016"><a xlink:href="../../d3/d02/PCCLayout_8cpp.html" target="_top" xlink:title="Implémentation du calculateur de positions logiques PCC.">
<polygon fill="white" stroke="#666666" points="159,-167.5 0,-167.5 0,-137.5 159,-137.5 159,-167.5"/>
<text text-anchor="start" x="8" y="-155.5" font-family="Helvetica,sans-Serif" font-size="10.00">SimulateurFerroviaire</text>
<text text-anchor="middle" x="79.5" y="-144.5" font-family="Helvetica,sans-Serif" font-size="10.00">/Modules/PCC/PCCLayout.cpp</text>
</a>
</g>
</g>
<!-- Node15&#45;&gt;Node16 -->
<g id="edge19_Node000015_Node000016" class="edge">
<title>Node15&#45;&gt;Node16</title>
<g id="a_edge19_Node000015_Node000016"><a xlink:title=" ">
<path fill="none" stroke="#63b8ff" d="M79.5,-204.04C79.5,-191.95 79.5,-177.79 79.5,-167.54"/>
<polygon fill="#63b8ff" stroke="#63b8ff" points="76,-204.39 79.5,-214.39 83,-204.39 76,-204.39"/>
</a>
</g>
</g>
</g>
</svg>
