<?xml version="1.0" encoding="UTF-8" standalone="no"?>
<!DOCTYPE svg PUBLIC "-//W3C//DTD SVG 1.1//EN"
 "http://www.w3.org/Graphics/SVG/1.1/DTD/svg11.dtd">
<!-- Generated by graphviz version 2.43.0 (0)
 -->
<!-- Title: GeoParser Pages: 1 -->
<svg width="402pt" height="960pt"
 viewBox="0.00 0.00 401.50 960.00" xmlns="http://www.w3.org/2000/svg" xmlns:xlink="http://www.w3.org/1999/xlink">
<g id="graph0" class="graph" transform="scale(1 1) rotate(0) translate(4 956)">
<title>GeoParser</title>
<!-- Node1 -->
<g id="Node000001" class="node">
<title>Node1</title>
<g id="a_Node000001"><a xlink:title=" ">
<polygon fill="#999999" stroke="transparent" points="163,-199 0,-199 0,0 163,0 163,-199"/>
<text text-anchor="start" x="57" y="-186.5" font-family="Helvetica,sans-Serif" font-size="10.00">GeoParser</text>
<text text-anchor="start" x="7" y="-171.5" font-family="Helvetica,sans-Serif" font-size="10.00">&#45;</text>
<text text-anchor="start" x="17.5" y="-171.5" font-family="Helvetica,sans-Serif" font-size="10.00">m_snapGridMeters</text>
<text text-anchor="start" x="7" y="-156.5" font-family="Helvetica,sans-Serif" font-size="10.00">&#45;</text>
<text text-anchor="start" x="17.5" y="-156.5" font-family="Helvetica,sans-Serif" font-size="10.00">m_endpointSnapMeters</text>
<text text-anchor="start" x="7" y="-141.5" font-family="Helvetica,sans-Serif" font-size="10.00">&#45;</text>
<text text-anchor="start" x="17.5" y="-141.5" font-family="Helvetica,sans-Serif" font-size="10.00">m_maxStraightLengthMeters</text>
<text text-anchor="start" x="7" y="-126.5" font-family="Helvetica,sans-Serif" font-size="10.00">&#45;</text>
<text text-anchor="start" x="17.5" y="-126.5" font-family="Helvetica,sans-Serif" font-size="10.00">m_minBranchLengthMeters</text>
<text text-anchor="start" x="7" y="-111.5" font-family="Helvetica,sans-Serif" font-size="10.00">&#45;</text>
<text text-anchor="start" x="17.5" y="-111.5" font-family="Helvetica,sans-Serif" font-size="10.00">m_doubleLinkMaxMeters</text>
<text text-anchor="start" x="7" y="-96.5" font-family="Helvetica,sans-Serif" font-size="10.00">&#45;</text>
<text text-anchor="start" x="17.5" y="-96.5" font-family="Helvetica,sans-Serif" font-size="10.00">m_branchTipDistanceMeters</text>
<text text-anchor="start" x="7" y="-81.5" font-family="Helvetica,sans-Serif" font-size="10.00">&#45;</text>
<text text-anchor="start" x="17.5" y="-81.5" font-family="Helvetica,sans-Serif" font-size="10.00">m_progressCallback</text>
<text text-anchor="start" x="4.5" y="-66.5" font-family="Helvetica,sans-Serif" font-size="10.00">+</text>
<text text-anchor="start" x="17.5" y="-66.5" font-family="Helvetica,sans-Serif" font-size="10.00">GeoParser()</text>
<text text-anchor="start" x="4.5" y="-51.5" font-family="Helvetica,sans-Serif" font-size="10.00">+</text>
<text text-anchor="start" x="17.5" y="-51.5" font-family="Helvetica,sans-Serif" font-size="10.00">parse()</text>
<text text-anchor="start" x="4.5" y="-36.5" font-family="Helvetica,sans-Serif" font-size="10.00">+</text>
<text text-anchor="start" x="17.5" y="-36.5" font-family="Helvetica,sans-Serif" font-size="10.00">dumpDebugOutput()</text>
<text text-anchor="start" x="4.5" y="-21.5" font-family="Helvetica,sans-Serif" font-size="10.00">+</text>
<text text-anchor="start" x="17.5" y="-21.5" font-family="Helvetica,sans-Serif" font-size="10.00">setProgressCallback()</text>
<text text-anchor="start" x="7" y="-6.5" font-family="Helvetica,sans-Serif" font-size="10.00">&#45;</text>
<text text-anchor="start" x="17.5" y="-6.5" font-family="Helvetica,sans-Serif" font-size="10.00">reportProgress()</text>
<polygon fill="#666666" stroke="#666666" points="0.5,-181.5 0.5,-181.5 163.5,-181.5 163.5,-181.5 0.5,-181.5"/>
<polygon fill="#666666" stroke="#666666" points="0.5,-76.5 0.5,-76.5 15.5,-76.5 15.5,-76.5 0.5,-76.5"/>
<polygon fill="#666666" stroke="#666666" points="15.5,-76.5 15.5,-76.5 163.5,-76.5 163.5,-76.5 15.5,-76.5"/>
<polygon fill="none" stroke="#666666" points="0,0 0,-199 163,-199 163,0 0,0"/>
</a>
</g>
</g>
<!-- Node2 -->
<g id="Node000002" class="node">
<title>Node2</title>
<g id="a_Node000002"><a xlink:href="../../db/d03/classLogger.html" target="_top" xlink:title="Journaliseur associé à un moteur nommé.">
<polygon fill="white" stroke="transparent" points="318.5,-490 182.5,-490 182.5,-246 318.5,-246 318.5,-490"/>
<text text-anchor="start" x="233.5" y="-478" font-family="Helvetica,sans-Serif" font-size="10.00">Logger</text>
<text text-anchor="start" x="189" y="-463" font-family="Helvetica,sans-Serif" font-size="10.00">&#45;</text>
<text text-anchor="start" x="199.5" y="-463" font-family="Helvetica,sans-Serif" font-size="10.00">m_minimumLevel</text>
<text text-anchor="start" x="186.5" y="-448" font-family="Helvetica,sans-Serif" font-size="10.00">+</text>
<text text-anchor="start" x="199.5" y="-448" font-family="Helvetica,sans-Serif" font-size="10.00">Logger()</text>
<text text-anchor="start" x="186.5" y="-433" font-family="Helvetica,sans-Serif" font-size="10.00">+</text>
<text text-anchor="start" x="199.5" y="-433" font-family="Helvetica,sans-Serif" font-size="10.00">~Logger()</text>
<text text-anchor="start" x="186.5" y="-418" font-family="Helvetica,sans-Serif" font-size="10.00">+</text>
<text text-anchor="start" x="199.5" y="-418" font-family="Helvetica,sans-Serif" font-size="10.00">Logger()</text>
<text text-anchor="start" x="186.5" y="-403" font-family="Helvetica,sans-Serif" font-size="10.00">+</text>
<text text-anchor="start" x="199.5" y="-403" font-family="Helvetica,sans-Serif" font-size="10.00">operator=()</text>
<text text-anchor="start" x="186.5" y="-388" font-family="Helvetica,sans-Serif" font-size="10.00">+</text>
<text text-anchor="start" x="199.5" y="-388" font-family="Helvetica,sans-Serif" font-size="10.00">writeLog()</text>
<text text-anchor="start" x="186.5" y="-373" font-family="Helvetica,sans-Serif" font-size="10.00">+</text>
<text text-anchor="start" x="199.5" y="-373" font-family="Helvetica,sans-Serif" font-size="10.00">setMinimumLogLevel()</text>
<text text-anchor="start" x="186.5" y="-358" font-family="Helvetica,sans-Serif" font-size="10.00">+</text>
<text text-anchor="start" x="199.5" y="-358" font-family="Helvetica,sans-Serif" font-size="10.00">getMotorName()</text>
<text text-anchor="start" x="186.5" y="-343" font-family="Helvetica,sans-Serif" font-size="10.00">+</text>
<text text-anchor="start" x="199.5" y="-343" font-family="Helvetica,sans-Serif" font-size="10.00">triggerFatalCrash()</text>
<text text-anchor="start" x="189" y="-328" font-family="Helvetica,sans-Serif" font-size="10.00">&#45;</text>
<text text-anchor="start" x="199.5" y="-328" font-family="Helvetica,sans-Serif" font-size="10.00">extractClassName()</text>
<text text-anchor="start" x="189" y="-313" font-family="Helvetica,sans-Serif" font-size="10.00">&#45;</text>
<text text-anchor="start" x="199.5" y="-313" font-family="Helvetica,sans-Serif" font-size="10.00">extractFunctionName()</text>
<text text-anchor="start" x="189" y="-298" font-family="Helvetica,sans-Serif" font-size="10.00">&#45;</text>
<text text-anchor="start" x="199.5" y="-298" font-family="Helvetica,sans-Serif" font-size="10.00">formatLogLine()</text>
<text text-anchor="start" x="189" y="-283" font-family="Helvetica,sans-Serif" font-size="10.00">&#45;</text>
<text text-anchor="start" x="199.5" y="-283" font-family="Helvetica,sans-Serif" font-size="10.00">levelToString()</text>
<text text-anchor="start" x="189" y="-268" font-family="Helvetica,sans-Serif" font-size="10.00">&#45;</text>
<text text-anchor="start" x="199.5" y="-268" font-family="Helvetica,sans-Serif" font-size="10.00">getCurrentTimestamp()</text>
<text text-anchor="start" x="189" y="-253" font-family="Helvetica,sans-Serif" font-size="10.00">&#45;</text>
<text text-anchor="start" x="199.5" y="-253" font-family="Helvetica,sans-Serif" font-size="10.00">sendToDebugOutput()</text>
<polygon fill="#666666" stroke="#666666" points="182.5,-473 182.5,-473 318.5,-473 318.5,-473 182.5,-473"/>
<polygon fill="#666666" stroke="#666666" points="182.5,-458 182.5,-458 197.5,-458 197.5,-458 182.5,-458"/>
<polygon fill="#666666" stroke="#666666" points="197.5,-458 197.5,-458 318.5,-458 318.5,-458 197.5,-458"/>
<polygon fill="none" stroke="#666666" points="182.5,-246 182.5,-490 318.5,-490 318.5,-246 182.5,-246"/>
</a>
</g>
</g>
<!-- Node2&#45;&gt;Node1 -->
<g id="edge1_Node000001_Node000002" class="edge">
<title>Node2&#45;&gt;Node1</title>
<g id="a_edge1_Node000001_Node000002"><a xlink:title=" ">
<path fill="none" stroke="#63b8ff" d="M182.49,-259.76C172.01,-243.23 161.18,-226.14 150.67,-209.57"/>
<polygon fill="none" stroke="#63b8ff" points="150.6,-209.47 144.01,-206.54 144.18,-199.33 150.77,-202.26 150.6,-209.47"/>
</a>
</g>
<text text-anchor="middle" x="188" y="-220" font-family="Helvetica,sans-Serif" font-size="10.00" fill="grey"> &#45;m_logger</text>
</g>
<!-- Node3 -->
<g id="Node000003" class="node">
<title>Node3</title>
<g id="a_Node000003"><a xlink:title=" ">
<polygon fill="white" stroke="transparent" points="139,-586 80,-586 80,-537 139,-537 139,-586"/>
<text text-anchor="start" x="85.5" y="-573.5" font-family="Helvetica,sans-Serif" font-size="10.00">std::string</text>
<text text-anchor="start" x="108" y="-558.5" font-family="Helvetica,sans-Serif" font-size="10.00"> </text>
<text text-anchor="start" x="108" y="-543.5" font-family="Helvetica,sans-Serif" font-size="10.00"> </text>
<polygon fill="#666666" stroke="#666666" points="80.5,-568.5 80.5,-568.5 139.5,-568.5 139.5,-568.5 80.5,-568.5"/>
<polygon fill="#666666" stroke="#666666" points="80.5,-553.5 80.5,-553.5 139.5,-553.5 139.5,-553.5 80.5,-553.5"/>
<polygon fill="none" stroke="#666666" points="80,-537 80,-586 139,-586 139,-537 80,-537"/>
</a>
</g>
</g>
<!-- Node3&#45;&gt;Node1 -->
<g id="edge10_Node000001_Node000003" class="edge">
<title>Node3&#45;&gt;Node1</title>
<g id="a_edge10_Node000001_Node000003"><a xlink:title=" ">
<path fill="none" stroke="#63b8ff" d="M94.27,-536.76C86.7,-523.55 78.37,-506.5 74.5,-490 52.91,-397.97 56.98,-290.32 65.13,-211.55"/>
<polygon fill="none" stroke="#63b8ff" points="65.18,-211.09 61.85,-204.69 66.47,-199.16 69.8,-205.55 65.18,-211.09"/>
</a>
</g>
<text text-anchor="middle" x="124" y="-365.5" font-family="Helvetica,sans-Serif" font-size="10.00" fill="grey"> &#45;m_geoJsonFilePath</text>
</g>
<!-- Node3&#45;&gt;Node2 -->
<g id="edge2_Node000002_Node000003" class="edge">
<title>Node3&#45;&gt;Node2</title>
<g id="a_edge2_Node000002_Node000003"><a xlink:title=" ">
<path fill="none" stroke="#63b8ff" d="M130.32,-536.84C141.91,-523.38 156.39,-506.06 168.5,-490 170.72,-487.06 172.95,-484.06 175.19,-481.02"/>
<polygon fill="none" stroke="#63b8ff" points="175.28,-480.9 175.57,-473.69 182.33,-471.19 182.04,-478.4 175.28,-480.9"/>
</a>
</g>
<text text-anchor="middle" x="194" y="-511" font-family="Helvetica,sans-Serif" font-size="10.00" fill="grey"> &#45;m_motorName</text>
</g>
<!-- Node4 -->
<g id="Node000004" class="node">
<title>Node4</title>
<g id="a_Node000004"><a xlink:title=" ">
<polygon fill="white" stroke="transparent" points="158.5,-683 60.5,-683 60.5,-623 158.5,-623 158.5,-683"/>
<text text-anchor="start" x="65.5" y="-671" font-family="Helvetica,sans-Serif" font-size="10.00">std::basic_string&lt;</text>
<text text-anchor="start" x="91" y="-660" font-family="Helvetica,sans-Serif" font-size="10.00"> Char &gt;</text>
<text text-anchor="start" x="107.5" y="-645" font-family="Helvetica,sans-Serif" font-size="10.00"> </text>
<text text-anchor="start" x="107.5" y="-630" font-family="Helvetica,sans-Serif" font-size="10.00"> </text>
<polygon fill="#666666" stroke="#666666" points="60.5,-655 60.5,-655 158.5,-655 158.5,-655 60.5,-655"/>
<polygon fill="#666666" stroke="#666666" points="60.5,-640 60.5,-640 158.5,-640 158.5,-640 60.5,-640"/>
<polygon fill="none" stroke="#666666" points="60.5,-623 60.5,-683 158.5,-683 158.5,-623 60.5,-623"/>
</a>
</g>
</g>
<!-- Node4&#45;&gt;Node3 -->
<g id="edge3_Node000003_Node000004" class="edge">
<title>Node4&#45;&gt;Node3</title>
<g id="a_edge3_Node000003_Node000004"><a xlink:title=" ">
<path fill="none" stroke="#63b8ff" d="M109.5,-612.41C109.5,-603.47 109.5,-594.25 109.5,-586.21"/>
<polygon fill="none" stroke="#63b8ff" points="106,-612.69 109.5,-622.69 113,-612.69 106,-612.69"/>
</a>
</g>
</g>
<!-- Node5 -->
<g id="Node000005" class="node">
<title>Node5</title>
<g id="a_Node000005"><a xlink:title=" ">
<polygon fill="white" stroke="transparent" points="276.5,-586 200.5,-586 200.5,-537 276.5,-537 276.5,-586"/>
<text text-anchor="start" x="205.5" y="-573.5" font-family="Helvetica,sans-Serif" font-size="10.00">std::ofstream</text>
<text text-anchor="start" x="236.5" y="-558.5" font-family="Helvetica,sans-Serif" font-size="10.00"> </text>
<text text-anchor="start" x="236.5" y="-543.5" font-family="Helvetica,sans-Serif" font-size="10.00"> </text>
<polygon fill="#666666" stroke="#666666" points="200.5,-568.5 200.5,-568.5 276.5,-568.5 276.5,-568.5 200.5,-568.5"/>
<polygon fill="#666666" stroke="#666666" points="200.5,-553.5 200.5,-553.5 276.5,-553.5 276.5,-553.5 200.5,-553.5"/>
<polygon fill="none" stroke="#666666" points="200.5,-537 200.5,-586 276.5,-586 276.5,-537 200.5,-537"/>
</a>
</g>
</g>
<!-- Node5&#45;&gt;Node2 -->
<g id="edge4_Node000002_Node000005" class="edge">
<title>Node5&#45;&gt;Node2</title>
<g id="a_edge4_Node000002_Node000005"><a xlink:title=" ">
<path fill="none" stroke="#63b8ff" d="M238.65,-536.97C238.78,-527.91 239.04,-517.47 239.5,-508 239.59,-506.19 239.68,-504.36 239.78,-502.52"/>
<polygon fill="none" stroke="#63b8ff" points="239.79,-502.25 236.14,-496.03 240.47,-490.27 244.13,-496.48 239.79,-502.25"/>
</a>
</g>
<text text-anchor="middle" x="275" y="-511" font-family="Helvetica,sans-Serif" font-size="10.00" fill="grey"> &#45;m_outputFile</text>
</g>
<!-- Node6 -->
<g id="Node000006" class="node">
<title>Node6</title>
<g id="a_Node000006"><a xlink:title=" ">
<polygon fill="white" stroke="transparent" points="292,-683 185,-683 185,-623 292,-623 292,-683"/>
<text text-anchor="start" x="190.5" y="-671" font-family="Helvetica,sans-Serif" font-size="10.00">std::basic_ofstream</text>
<text text-anchor="start" x="216" y="-660" font-family="Helvetica,sans-Serif" font-size="10.00">&lt; Char &gt;</text>
<text text-anchor="start" x="237" y="-645" font-family="Helvetica,sans-Serif" font-size="10.00"> </text>
<text text-anchor="start" x="237" y="-630" font-family="Helvetica,sans-Serif" font-size="10.00"> </text>
<polygon fill="#666666" stroke="#666666" points="185.5,-655 185.5,-655 292.5,-655 292.5,-655 185.5,-655"/>
<polygon fill="#666666" stroke="#666666" points="185.5,-640 185.5,-640 292.5,-640 292.5,-640 185.5,-640"/>
<polygon fill="none" stroke="#666666" points="185,-623 185,-683 292,-683 292,-623 185,-623"/>
</a>
</g>
</g>
<!-- Node6&#45;&gt;Node5 -->
<g id="edge5_Node000005_Node000006" class="edge">
<title>Node6&#45;&gt;Node5</title>
<g id="a_edge5_Node000005_Node000006"><a xlink:title=" ">
<path fill="none" stroke="#63b8ff" d="M238.5,-612.41C238.5,-603.47 238.5,-594.25 238.5,-586.21"/>
<polygon fill="none" stroke="#63b8ff" points="235,-612.69 238.5,-622.69 242,-612.69 235,-612.69"/>
</a>
</g>
</g>
<!-- Node7 -->
<g id="Node000007" class="node">
<title>Node7</title>
<g id="a_Node000007"><a xlink:title=" ">
<polygon fill="white" stroke="transparent" points="290,-780 187,-780 187,-720 290,-720 290,-780"/>
<text text-anchor="start" x="192.5" y="-768" font-family="Helvetica,sans-Serif" font-size="10.00">std::basic_ostream</text>
<text text-anchor="start" x="216" y="-757" font-family="Helvetica,sans-Serif" font-size="10.00">&lt; Char &gt;</text>
<text text-anchor="start" x="237" y="-742" font-family="Helvetica,sans-Serif" font-size="10.00"> </text>
<text text-anchor="start" x="237" y="-727" font-family="Helvetica,sans-Serif" font-size="10.00"> </text>
<polygon fill="#666666" stroke="#666666" points="187.5,-752 187.5,-752 290.5,-752 290.5,-752 187.5,-752"/>
<polygon fill="#666666" stroke="#666666" points="187.5,-737 187.5,-737 290.5,-737 290.5,-737 187.5,-737"/>
<polygon fill="none" stroke="#666666" points="187,-720 187,-780 290,-780 290,-720 187,-720"/>
</a>
</g>
</g>
<!-- Node7&#45;&gt;Node6 -->
<g id="edge6_Node000006_Node000007" class="edge">
<title>Node7&#45;&gt;Node6</title>
<g id="a_edge6_Node000006_Node000007"><a xlink:title=" ">
<path fill="none" stroke="#63b8ff" d="M238.5,-709.79C238.5,-700.88 238.5,-691.57 238.5,-683.17"/>
<polygon fill="none" stroke="#63b8ff" points="235,-709.98 238.5,-719.98 242,-709.98 235,-709.98"/>
</a>
</g>
</g>
<!-- Node8 -->
<g id="Node000008" class="node">
<title>Node8</title>
<g id="a_Node000008"><a xlink:title=" ">
<polygon fill="white" stroke="transparent" points="299.5,-866 177.5,-866 177.5,-817 299.5,-817 299.5,-866"/>
<text text-anchor="start" x="182.5" y="-853.5" font-family="Helvetica,sans-Serif" font-size="10.00">std::basic_ios&lt; Char &gt;</text>
<text text-anchor="start" x="236.5" y="-838.5" font-family="Helvetica,sans-Serif" font-size="10.00"> </text>
<text text-anchor="start" x="236.5" y="-823.5" font-family="Helvetica,sans-Serif" font-size="10.00"> </text>
<polygon fill="#666666" stroke="#666666" points="177.5,-848.5 177.5,-848.5 299.5,-848.5 299.5,-848.5 177.5,-848.5"/>
<polygon fill="#666666" stroke="#666666" points="177.5,-833.5 177.5,-833.5 299.5,-833.5 299.5,-833.5 177.5,-833.5"/>
<polygon fill="none" stroke="#666666" points="177.5,-817 177.5,-866 299.5,-866 299.5,-817 177.5,-817"/>
</a>
</g>
</g>
<!-- Node8&#45;&gt;Node7 -->
<g id="edge7_Node000007_Node000008" class="edge">
<title>Node8&#45;&gt;Node7</title>
<g id="a_edge7_Node000007_Node000008"><a xlink:title=" ">
<path fill="none" stroke="#63b8ff" d="M238.5,-806.7C238.5,-797.95 238.5,-788.6 238.5,-780.12"/>
<polygon fill="none" stroke="#63b8ff" points="235,-806.98 238.5,-816.98 242,-806.98 235,-806.98"/>
</a>
</g>
</g>
<!-- Node9 -->
<g id="Node000009" class="node">
<title>Node9</title>
<g id="a_Node000009"><a xlink:title=" ">
<polygon fill="white" stroke="transparent" points="275.5,-952 201.5,-952 201.5,-903 275.5,-903 275.5,-952"/>
<text text-anchor="start" x="206.5" y="-939.5" font-family="Helvetica,sans-Serif" font-size="10.00">std::ios_base</text>
<text text-anchor="start" x="236.5" y="-924.5" font-family="Helvetica,sans-Serif" font-size="10.00"> </text>
<text text-anchor="start" x="236.5" y="-909.5" font-family="Helvetica,sans-Serif" font-size="10.00"> </text>
<polygon fill="#666666" stroke="#666666" points="201.5,-934.5 201.5,-934.5 275.5,-934.5 275.5,-934.5 201.5,-934.5"/>
<polygon fill="#666666" stroke="#666666" points="201.5,-919.5 201.5,-919.5 275.5,-919.5 275.5,-919.5 201.5,-919.5"/>
<polygon fill="none" stroke="#666666" points="201.5,-903 201.5,-952 275.5,-952 275.5,-903 201.5,-903"/>
</a>
</g>
</g>
<!-- Node9&#45;&gt;Node8 -->
<g id="edge8_Node000008_Node000009" class="edge">
<title>Node9&#45;&gt;Node8</title>
<g id="a_edge8_Node000008_Node000009"><a xlink:title=" ">
<path fill="none" stroke="#63b8ff" d="M238.5,-892.57C238.5,-883.69 238.5,-874.32 238.5,-866.12"/>
<polygon fill="none" stroke="#63b8ff" points="235,-892.65 238.5,-902.65 242,-892.65 235,-892.65"/>
</a>
</g>
</g>
<!-- Node10 -->
<g id="Node000010" class="node">
<title>Node10</title>
<g id="a_Node000010"><a xlink:title=" ">
<polygon fill="white" stroke="transparent" points="364,-586 301,-586 301,-537 364,-537 364,-586"/>
<text text-anchor="start" x="306.5" y="-573.5" font-family="Helvetica,sans-Serif" font-size="10.00">std::mutex</text>
<text text-anchor="start" x="331" y="-558.5" font-family="Helvetica,sans-Serif" font-size="10.00"> </text>
<text text-anchor="start" x="331" y="-543.5" font-family="Helvetica,sans-Serif" font-size="10.00"> </text>
<polygon fill="#666666" stroke="#666666" points="301.5,-568.5 301.5,-568.5 364.5,-568.5 364.5,-568.5 301.5,-568.5"/>
<polygon fill="#666666" stroke="#666666" points="301.5,-553.5 301.5,-553.5 364.5,-553.5 364.5,-553.5 301.5,-553.5"/>
<polygon fill="none" stroke="#666666" points="301,-537 301,-586 364,-586 364,-537 301,-537"/>
</a>
</g>
</g>
<!-- Node10&#45;&gt;Node2 -->
<g id="edge9_Node000002_Node000010" class="edge">
<title>Node10&#45;&gt;Node2</title>
<g id="a_edge9_Node000002_Node000010"><a xlink:title=" ">
<path fill="none" stroke="#63b8ff" d="M322.7,-536.96C318.91,-527.9 314.52,-517.46 310.5,-508 309.57,-505.82 308.64,-503.63 307.7,-501.42"/>
<polygon fill="none" stroke="#63b8ff" points="307.65,-501.3 301.61,-497.35 302.93,-490.26 308.97,-494.21 307.65,-501.3"/>
</a>
</g>
<text text-anchor="middle" x="354.5" y="-511" font-family="Helvetica,sans-Serif" font-size="10.00" fill="grey"> &#45;m_writeMutex</text>
</g>
</g>
</svg>
