<?xml version="1.0" encoding="UTF-8" standalone="no"?>
<!DOCTYPE svg PUBLIC "-//W3C//DTD SVG 1.1//EN"
 "http://www.w3.org/Graphics/SVG/1.1/DTD/svg11.dtd">
<!-- Generated by graphviz version 2.43.0 (0)
 -->
<!-- Title: SimulateurFerroviaire/Modules/PCC/PCCEdge.h Pages: 1 -->
<svg width="1022pt" height="599pt"
 viewBox="0.00 0.00 1022.00 599.00" xmlns="http://www.w3.org/2000/svg" xmlns:xlink="http://www.w3.org/1999/xlink">
<g id="graph0" class="graph" transform="scale(1 1) rotate(0) translate(4 595)">
<title>SimulateurFerroviaire/Modules/PCC/PCCEdge.h</title>
<!-- Node1 -->
<g id="Node000001" class="node">
<title>Node1</title>
<g id="a_Node000001"><a xlink:title="Connexion orientée entre deux nœuds du graphe PCC.">
<polygon fill="#999999" stroke="#666666" points="245.5,-591 106.5,-591 106.5,-561 245.5,-561 245.5,-591"/>
<text text-anchor="start" x="114.5" y="-579" font-family="Helvetica,sans-Serif" font-size="10.00">SimulateurFerroviaire</text>
<text text-anchor="middle" x="176" y="-568" font-family="Helvetica,sans-Serif" font-size="10.00">/Modules/PCC/PCCEdge.h</text>
</a>
</g>
</g>
<!-- Node2 -->
<g id="Node000002" class="node">
<title>Node2</title>
<g id="a_Node000002"><a xlink:href="../../d9/d02/PCCEdge_8cpp.html" target="_top" xlink:title="Implémentation de l&#39;arête orientée du graphe PCC.">
<polygon fill="white" stroke="#666666" points="251,-459 101,-459 101,-429 251,-429 251,-459"/>
<text text-anchor="start" x="109" y="-447" font-family="Helvetica,sans-Serif" font-size="10.00">SimulateurFerroviaire</text>
<text text-anchor="middle" x="176" y="-436" font-family="Helvetica,sans-Serif" font-size="10.00">/Modules/PCC/PCCEdge.cpp</text>
</a>
</g>
</g>
<!-- Node1&#45;&gt;Node2 -->
<g id="edge1_Node000001_Node000002" class="edge">
<title>Node1&#45;&gt;Node2</title>
<g id="a_edge1_Node000001_Node000002"><a xlink:title=" ">
<path fill="none" stroke="#63b8ff" d="M176,-550.68C176,-523.7 176,-481.11 176,-459.14"/>
<polygon fill="#63b8ff" stroke="#63b8ff" points="172.5,-550.84 176,-560.84 179.5,-550.84 172.5,-550.84"/>
</a>
</g>
</g>
<!-- Node3 -->
<g id="Node000003" class="node">
<title>Node3</title>
<g id="a_Node000003"><a xlink:href="../../d8/d00/PCCGraph_8h.html" target="_top" xlink:title="Conteneur propriétaire du graphe PCC.">
<polygon fill="white" stroke="#666666" points="452,-393 308,-393 308,-363 452,-363 452,-393"/>
<text text-anchor="start" x="316" y="-381" font-family="Helvetica,sans-Serif" font-size="10.00">SimulateurFerroviaire</text>
<text text-anchor="middle" x="380" y="-370" font-family="Helvetica,sans-Serif" font-size="10.00">/Modules/PCC/PCCGraph.h</text>
</a>
</g>
</g>
<!-- Node1&#45;&gt;Node3 -->
<g id="edge2_Node000001_Node000003" class="edge">
<title>Node1&#45;&gt;Node3</title>
<g id="a_edge2_Node000001_Node000003"><a xlink:title=" ">
<path fill="none" stroke="#63b8ff" d="M148.71,-554.26C112.88,-524.56 58.27,-469.09 92,-429 119.08,-396.82 231.82,-385.35 307.95,-381.26"/>
<polygon fill="#63b8ff" stroke="#63b8ff" points="146.93,-557.32 156.91,-560.88 151.33,-551.88 146.93,-557.32"/>
</a>
</g>
</g>
<!-- Node18 -->
<g id="Node000018" class="node">
<title>Node18</title>
<g id="a_Node000018"><a xlink:href="../../d6/d01/PCCNode_8h.html" target="_top" xlink:title="Nœud abstrait du graphe PCC représentant un bloc ferroviaire.">
<polygon fill="white" stroke="#666666" points="467,-525 327,-525 327,-495 467,-495 467,-525"/>
<text text-anchor="start" x="335" y="-513" font-family="Helvetica,sans-Serif" font-size="10.00">SimulateurFerroviaire</text>
<text text-anchor="middle" x="397" y="-502" font-family="Helvetica,sans-Serif" font-size="10.00">/Modules/PCC/PCCNode.h</text>
</a>
</g>
</g>
<!-- Node1&#45;&gt;Node18 -->
<g id="edge21_Node000001_Node000018" class="edge">
<title>Node1&#45;&gt;Node18</title>
<g id="a_edge21_Node000001_Node000018"><a xlink:title=" ">
<path fill="none" stroke="#63b8ff" d="M234.28,-558.12C269.92,-547.8 314.96,-534.76 348.61,-525.01"/>
<polygon fill="#63b8ff" stroke="#63b8ff" points="233.13,-554.81 224.5,-560.95 235.08,-561.54 233.13,-554.81"/>
</a>
</g>
</g>
<!-- Node4 -->
<g id="Node000004" class="node">
<title>Node4</title>
<g id="a_Node000004"><a xlink:href="../../d5/d00/PCCPanel_8h.html" target="_top" xlink:title="Panneau PCC superposé togglable, affiché par&#45;dessus la carte Leaflet.">
<polygon fill="white" stroke="#666666" points="618,-250 494,-250 494,-209 618,-209 618,-250"/>
<text text-anchor="start" x="502" y="-238" font-family="Helvetica,sans-Serif" font-size="10.00">SimulateurFerroviaire</text>
<text text-anchor="start" x="502" y="-227" font-family="Helvetica,sans-Serif" font-size="10.00">/Engine/HMI/PCCPanel</text>
<text text-anchor="middle" x="556" y="-216" font-family="Helvetica,sans-Serif" font-size="10.00">/PCCPanel.h</text>
</a>
</g>
</g>
<!-- Node3&#45;&gt;Node4 -->
<g id="edge3_Node000003_Node000004" class="edge">
<title>Node3&#45;&gt;Node4</title>
<g id="a_edge3_Node000003_Node000004"><a xlink:title=" ">
<path fill="none" stroke="#63b8ff" d="M448.65,-360.15C481.22,-350.9 515.51,-338.91 527,-327 547.16,-306.1 553.37,-271.73 555.24,-250.15"/>
<polygon fill="#63b8ff" stroke="#63b8ff" points="447.32,-356.89 438.62,-362.93 449.19,-363.63 447.32,-356.89"/>
</a>
</g>
</g>
<!-- Node11 -->
<g id="Node000011" class="node">
<title>Node11</title>
<g id="a_Node000011"><a xlink:href="../../d8/d02/TCORenderer_8h.html" target="_top" xlink:title="Renderer GDI du schéma TCO — style SNCF, blocs fixes.">
<polygon fill="white" stroke="#666666" points="736,-327 612,-327 612,-286 736,-286 736,-327"/>
<text text-anchor="start" x="620" y="-315" font-family="Helvetica,sans-Serif" font-size="10.00">SimulateurFerroviaire</text>
<text text-anchor="start" x="620" y="-304" font-family="Helvetica,sans-Serif" font-size="10.00">/Engine/HMI/PCCPanel</text>
<text text-anchor="middle" x="674" y="-293" font-family="Helvetica,sans-Serif" font-size="10.00">/TCORenderer.h</text>
</a>
</g>
</g>
<!-- Node3&#45;&gt;Node11 -->
<g id="edge10_Node000003_Node000011" class="edge">
<title>Node3&#45;&gt;Node11</title>
<g id="a_edge10_Node000003_Node000011"><a xlink:title=" ">
<path fill="none" stroke="#63b8ff" d="M449.43,-360.59C498.7,-348.94 564.25,-333.44 611.8,-322.2"/>
<polygon fill="#63b8ff" stroke="#63b8ff" points="448.42,-357.23 439.5,-362.94 450.03,-364.04 448.42,-357.23"/>
</a>
</g>
</g>
<!-- Node13 -->
<g id="Node000013" class="node">
<title>Node13</title>
<g id="a_Node000013"><a xlink:href="../../d9/d00/PCCGraph_8cpp.html" target="_top" xlink:title="Implémentation du conteneur propriétaire du graphe PCC.">
<polygon fill="white" stroke="#666666" points="517.5,-321.5 362.5,-321.5 362.5,-291.5 517.5,-291.5 517.5,-321.5"/>
<text text-anchor="start" x="370.5" y="-309.5" font-family="Helvetica,sans-Serif" font-size="10.00">SimulateurFerroviaire</text>
<text text-anchor="middle" x="440" y="-298.5" font-family="Helvetica,sans-Serif" font-size="10.00">/Modules/PCC/PCCGraph.cpp</text>
</a>
</g>
</g>
<!-- Node3&#45;&gt;Node13 -->
<g id="edge14_Node000003_Node000013" class="edge">
<title>Node3&#45;&gt;Node13</title>
<g id="a_edge14_Node000003_Node000013"><a xlink:title=" ">
<path fill="none" stroke="#63b8ff" d="M398.69,-355.35C408.21,-344.33 419.5,-331.24 427.88,-321.54"/>
<polygon fill="#63b8ff" stroke="#63b8ff" points="396.03,-353.08 392.14,-362.94 401.33,-357.65 396.03,-353.08"/>
</a>
</g>
</g>
<!-- Node14 -->
<g id="Node000014" class="node">
<title>Node14</title>
<g id="a_Node000014"><a xlink:href="../../db/d02/PCCGraphBuilder_8h.html" target="_top" xlink:title="Constructeur du graphe PCC depuis TopologyRepository.">
<polygon fill="white" stroke="#666666" points="178,-321.5 0,-321.5 0,-291.5 178,-291.5 178,-321.5"/>
<text text-anchor="start" x="8" y="-309.5" font-family="Helvetica,sans-Serif" font-size="10.00">SimulateurFerroviaire</text>
<text text-anchor="middle" x="89" y="-298.5" font-family="Helvetica,sans-Serif" font-size="10.00">/Modules/PCC/PCCGraphBuilder.h</text>
</a>
</g>
</g>
<!-- Node3&#45;&gt;Node14 -->
<g id="edge15_Node000003_Node000014" class="edge">
<title>Node3&#45;&gt;Node14</title>
<g id="a_edge15_Node000003_Node000014"><a xlink:title=" ">
<path fill="none" stroke="#63b8ff" d="M311.09,-360.54C261.39,-348.67 195.01,-332.82 147.8,-321.54"/>
<polygon fill="#63b8ff" stroke="#63b8ff" points="310.57,-364.02 321.11,-362.94 312.2,-357.21 310.57,-364.02"/>
</a>
</g>
</g>
<!-- Node16 -->
<g id="Node000016" class="node">
<title>Node16</title>
<g id="a_Node000016"><a xlink:href="../../d6/d01/PCCLayout_8h.html" target="_top" xlink:title="Calcul des positions logiques X/Y du graphe PCC par parcours BFS.">
<polygon fill="white" stroke="#666666" points="344,-321.5 196,-321.5 196,-291.5 344,-291.5 344,-321.5"/>
<text text-anchor="start" x="204" y="-309.5" font-family="Helvetica,sans-Serif" font-size="10.00">SimulateurFerroviaire</text>
<text text-anchor="middle" x="270" y="-298.5" font-family="Helvetica,sans-Serif" font-size="10.00">/Modules/PCC/PCCLayout.h</text>
</a>
</g>
</g>
<!-- Node3&#45;&gt;Node16 -->
<g id="edge18_Node000003_Node000016" class="edge">
<title>Node3&#45;&gt;Node16</title>
<g id="a_edge18_Node000003_Node000016"><a xlink:title=" ">
<path fill="none" stroke="#63b8ff" d="M349.24,-357.57C331.13,-346.12 308.62,-331.9 292.23,-321.54"/>
<polygon fill="#63b8ff" stroke="#63b8ff" points="347.42,-360.55 357.74,-362.94 351.16,-354.64 347.42,-360.55"/>
</a>
</g>
</g>
<!-- Node5 -->
<g id="Node000005" class="node">
<title>Node5</title>
<g id="a_Node000005"><a xlink:href="../../da/d00/MainWindow_8h.html" target="_top" xlink:title="Déclaration de la fenêtre principale de l&#39;application.">
<polygon fill="white" stroke="#666666" points="630.5,-167.5 481.5,-167.5 481.5,-137.5 630.5,-137.5 630.5,-167.5"/>
<text text-anchor="start" x="489.5" y="-155.5" font-family="Helvetica,sans-Serif" font-size="10.00">SimulateurFerroviaire</text>
<text text-anchor="middle" x="556" y="-144.5" font-family="Helvetica,sans-Serif" font-size="10.00">/Engine/HMI/MainWindow.h</text>
</a>
</g>
</g>
<!-- Node4&#45;&gt;Node5 -->
<g id="edge4_Node000004_Node000005" class="edge">
<title>Node4&#45;&gt;Node5</title>
<g id="a_edge4_Node000004_Node000005"><a xlink:title=" ">
<path fill="none" stroke="#63b8ff" d="M556,-198.61C556,-188.01 556,-176.57 556,-167.86"/>
<polygon fill="#63b8ff" stroke="#63b8ff" points="552.5,-198.79 556,-208.79 559.5,-198.79 552.5,-198.79"/>
</a>
</g>
</g>
<!-- Node10 -->
<g id="Node000010" class="node">
<title>Node10</title>
<g id="a_Node000010"><a xlink:href="../../d4/d03/PCCPanel_8cpp.html" target="_top" xlink:title="Implémentation du panneau PCC superposé togglable.">
<polygon fill="white" stroke="#666666" points="408,-173 284,-173 284,-132 408,-132 408,-173"/>
<text text-anchor="start" x="292" y="-161" font-family="Helvetica,sans-Serif" font-size="10.00">SimulateurFerroviaire</text>
<text text-anchor="start" x="292" y="-150" font-family="Helvetica,sans-Serif" font-size="10.00">/Engine/HMI/PCCPanel</text>
<text text-anchor="middle" x="346" y="-139" font-family="Helvetica,sans-Serif" font-size="10.00">/PCCPanel.cpp</text>
</a>
</g>
</g>
<!-- Node4&#45;&gt;Node10 -->
<g id="edge9_Node000004_Node000010" class="edge">
<title>Node4&#45;&gt;Node10</title>
<g id="a_edge9_Node000004_Node000010"><a xlink:title=" ">
<path fill="none" stroke="#63b8ff" d="M491.71,-205.54C462.61,-195.15 428.57,-182.99 400.72,-173.04"/>
<polygon fill="#63b8ff" stroke="#63b8ff" points="490.78,-208.92 501.37,-208.99 493.13,-202.33 490.78,-208.92"/>
</a>
</g>
</g>
<!-- Node6 -->
<g id="Node000006" class="node">
<title>Node6</title>
<g id="a_Node000006"><a xlink:href="../../d4/d00/Application_8h.html" target="_top" xlink:title="Gestion du cycle de vie de l&#39;application Win32.">
<polygon fill="white" stroke="#666666" points="543.5,-96 398.5,-96 398.5,-66 543.5,-66 543.5,-96"/>
<text text-anchor="start" x="406.5" y="-84" font-family="Helvetica,sans-Serif" font-size="10.00">SimulateurFerroviaire</text>
<text text-anchor="middle" x="471" y="-73" font-family="Helvetica,sans-Serif" font-size="10.00">/Engine/Core/Application.h</text>
</a>
</g>
</g>
<!-- Node5&#45;&gt;Node6 -->
<g id="edge5_Node000005_Node000006" class="edge">
<title>Node5&#45;&gt;Node6</title>
<g id="a_edge5_Node000005_Node000006"><a xlink:title=" ">
<path fill="none" stroke="#63b8ff" d="M530.69,-130.81C516.98,-119.59 500.38,-106.02 488.18,-96.04"/>
<polygon fill="#63b8ff" stroke="#63b8ff" points="528.84,-133.82 538.8,-137.44 533.27,-128.4 528.84,-133.82"/>
</a>
</g>
</g>
<!-- Node9 -->
<g id="Node000009" class="node">
<title>Node9</title>
<g id="a_Node000009"><a xlink:href="../../d3/d03/MainWindow_8cpp.html" target="_top" xlink:title="Implémentation de la fenêtre principale.">
<polygon fill="white" stroke="#666666" points="722.5,-96 561.5,-96 561.5,-66 722.5,-66 722.5,-96"/>
<text text-anchor="start" x="569.5" y="-84" font-family="Helvetica,sans-Serif" font-size="10.00">SimulateurFerroviaire</text>
<text text-anchor="middle" x="642" y="-73" font-family="Helvetica,sans-Serif" font-size="10.00">/Engine/HMI/MainWindow.cpp</text>
</a>
</g>
</g>
<!-- Node5&#45;&gt;Node9 -->
<g id="edge8_Node000005_Node000009" class="edge">
<title>Node5&#45;&gt;Node9</title>
<g id="a_edge8_Node000005_Node000009"><a xlink:title=" ">
<path fill="none" stroke="#63b8ff" d="M581.21,-131.13C595.17,-119.85 612.16,-106.12 624.62,-96.04"/>
<polygon fill="#63b8ff" stroke="#63b8ff" points="578.98,-128.43 573.4,-137.44 583.38,-133.87 578.98,-128.43"/>
</a>
</g>
</g>
<!-- Node7 -->
<g id="Node000007" class="node">
<title>Node7</title>
<g id="a_Node000007"><a xlink:href="../../d2/d02/Application_8cpp.html" target="_top" xlink:title="Implémentation du cycle de vie de l&#39;application Win32.">
<polygon fill="white" stroke="#666666" points="465,-30 309,-30 309,0 465,0 465,-30"/>
<text text-anchor="start" x="317" y="-18" font-family="Helvetica,sans-Serif" font-size="10.00">SimulateurFerroviaire</text>
<text text-anchor="middle" x="387" y="-7" font-family="Helvetica,sans-Serif" font-size="10.00">/Engine/Core/Application.cpp</text>
</a>
</g>
</g>
<!-- Node6&#45;&gt;Node7 -->
<g id="edge6_Node000006_Node000007" class="edge">
<title>Node6&#45;&gt;Node7</title>
<g id="a_edge6_Node000006_Node000007"><a xlink:title=" ">
<path fill="none" stroke="#63b8ff" d="M444.06,-59.48C431.51,-49.91 416.89,-38.77 405.59,-30.16"/>
<polygon fill="#63b8ff" stroke="#63b8ff" points="442.28,-62.52 452.36,-65.8 446.52,-56.95 442.28,-62.52"/>
</a>
</g>
</g>
<!-- Node8 -->
<g id="Node000008" class="node">
<title>Node8</title>
<g id="a_Node000008"><a xlink:href="../../db/d00/SimulateurFerroviaire_8cpp.html" target="_top" xlink:title="Point d&#39;entrée unique de l&#39;application Win32.">
<polygon fill="white" stroke="#666666" points="629,-30 483,-30 483,0 629,0 629,-30"/>
<text text-anchor="start" x="491" y="-18" font-family="Helvetica,sans-Serif" font-size="10.00">SimulateurFerroviaire</text>
<text text-anchor="middle" x="556" y="-7" font-family="Helvetica,sans-Serif" font-size="10.00">/SimulateurFerroviaire.cpp</text>
</a>
</g>
</g>
<!-- Node6&#45;&gt;Node8 -->
<g id="edge7_Node000006_Node000008" class="edge">
<title>Node6&#45;&gt;Node8</title>
<g id="a_edge7_Node000006_Node000008"><a xlink:title=" ">
<path fill="none" stroke="#63b8ff" d="M497.89,-59.75C510.67,-50.13 525.64,-38.86 537.19,-30.16"/>
<polygon fill="#63b8ff" stroke="#63b8ff" points="495.75,-56.99 489.86,-65.8 499.96,-62.58 495.75,-56.99"/>
</a>
</g>
</g>
<!-- Node11&#45;&gt;Node4 -->
<g id="edge12_Node000011_Node000004" class="edge">
<title>Node11&#45;&gt;Node4</title>
<g id="a_edge12_Node000011_Node000004"><a xlink:title=" ">
<path fill="none" stroke="#63b8ff" d="M634.46,-280.37C618.98,-270.53 601.49,-259.41 586.95,-250.17"/>
<polygon fill="#63b8ff" stroke="#63b8ff" points="632.99,-283.58 643.3,-285.99 636.74,-277.67 632.99,-283.58"/>
</a>
</g>
</g>
<!-- Node11&#45;&gt;Node10 -->
<g id="edge11_Node000011_Node000010" class="edge">
<title>Node11&#45;&gt;Node10</title>
<g id="a_edge11_Node000011_Node000010"><a xlink:title=" ">
<path fill="none" stroke="#63b8ff" d="M667.23,-276.12C660.65,-254.27 648.41,-225.49 627,-209 609.81,-195.76 485.49,-174.78 408.08,-162.77"/>
<polygon fill="#63b8ff" stroke="#63b8ff" points="663.9,-277.2 669.95,-285.9 670.65,-275.33 663.9,-277.2"/>
</a>
</g>
</g>
<!-- Node12 -->
<g id="Node000012" class="node">
<title>Node12</title>
<g id="a_Node000012"><a xlink:href="../../d4/d02/TCORenderer_8cpp.html" target="_top" xlink:title="Renderer GDI TCO — style SNCF, blocs fixes.">
<polygon fill="white" stroke="#666666" points="826,-250 702,-250 702,-209 826,-209 826,-250"/>
<text text-anchor="start" x="710" y="-238" font-family="Helvetica,sans-Serif" font-size="10.00">SimulateurFerroviaire</text>
<text text-anchor="start" x="710" y="-227" font-family="Helvetica,sans-Serif" font-size="10.00">/Engine/HMI/PCCPanel</text>
<text text-anchor="middle" x="764" y="-216" font-family="Helvetica,sans-Serif" font-size="10.00">/TCORenderer.cpp</text>
</a>
</g>
</g>
<!-- Node11&#45;&gt;Node12 -->
<g id="edge13_Node000011_Node000012" class="edge">
<title>Node11&#45;&gt;Node12</title>
<g id="a_edge13_Node000011_Node000012"><a xlink:title=" ">
<path fill="none" stroke="#63b8ff" d="M705.38,-279.35C716.92,-269.73 729.78,-259.01 740.51,-250.07"/>
<polygon fill="#63b8ff" stroke="#63b8ff" points="703.09,-276.7 697.65,-285.79 707.57,-282.08 703.09,-276.7"/>
</a>
</g>
</g>
<!-- Node14&#45;&gt;Node10 -->
<g id="edge16_Node000014_Node000010" class="edge">
<title>Node14&#45;&gt;Node10</title>
<g id="a_edge16_Node000014_Node000010"><a xlink:title=" ">
<path fill="none" stroke="#63b8ff" d="M72.7,-283.01C59.48,-261.76 45.64,-230.1 63,-209 90.4,-175.7 209.05,-162.09 283.75,-156.74"/>
<polygon fill="#63b8ff" stroke="#63b8ff" points="69.81,-284.99 78.24,-291.41 75.66,-281.13 69.81,-284.99"/>
</a>
</g>
</g>
<!-- Node15 -->
<g id="Node000015" class="node">
<title>Node15</title>
<g id="a_Node000015"><a xlink:href="../../d0/d01/PCCGraphBuilder_8cpp.html" target="_top" xlink:title="Implémentation du constructeur du graphe PCC.">
<polygon fill="white" stroke="#666666" points="261.5,-244.5 72.5,-244.5 72.5,-214.5 261.5,-214.5 261.5,-244.5"/>
<text text-anchor="start" x="80.5" y="-232.5" font-family="Helvetica,sans-Serif" font-size="10.00">SimulateurFerroviaire</text>
<text text-anchor="middle" x="167" y="-221.5" font-family="Helvetica,sans-Serif" font-size="10.00">/Modules/PCC/PCCGraphBuilder.cpp</text>
</a>
</g>
</g>
<!-- Node14&#45;&gt;Node15 -->
<g id="edge17_Node000014_Node000015" class="edge">
<title>Node14&#45;&gt;Node15</title>
<g id="a_edge17_Node000014_Node000015"><a xlink:title=" ">
<path fill="none" stroke="#63b8ff" d="M111.03,-284.32C124.27,-271.58 140.76,-255.74 152.39,-244.54"/>
<polygon fill="#63b8ff" stroke="#63b8ff" points="108.45,-281.94 103.67,-291.39 113.31,-286.98 108.45,-281.94"/>
</a>
</g>
</g>
<!-- Node16&#45;&gt;Node10 -->
<g id="edge19_Node000016_Node000010" class="edge">
<title>Node16&#45;&gt;Node10</title>
<g id="a_edge19_Node000016_Node000010"><a xlink:title=" ">
<path fill="none" stroke="#63b8ff" d="M278.03,-281.84C285.14,-261.93 296.35,-232.95 309,-209 315.55,-196.61 324.17,-183.53 331.44,-173.19"/>
<polygon fill="#63b8ff" stroke="#63b8ff" points="274.7,-280.76 274.69,-291.36 281.3,-283.08 274.7,-280.76"/>
</a>
</g>
</g>
<!-- Node17 -->
<g id="Node000017" class="node">
<title>Node17</title>
<g id="a_Node000017"><a xlink:href="../../d3/d02/PCCLayout_8cpp.html" target="_top" xlink:title="Implémentation du calculateur de positions logiques PCC.">
<polygon fill="white" stroke="#666666" points="476.5,-244.5 317.5,-244.5 317.5,-214.5 476.5,-214.5 476.5,-244.5"/>
<text text-anchor="start" x="325.5" y="-232.5" font-family="Helvetica,sans-Serif" font-size="10.00">SimulateurFerroviaire</text>
<text text-anchor="middle" x="397" y="-221.5" font-family="Helvetica,sans-Serif" font-size="10.00">/Modules/PCC/PCCLayout.cpp</text>
</a>
</g>
</g>
<!-- Node16&#45;&gt;Node17 -->
<g id="edge20_Node000016_Node000017" class="edge">
<title>Node16&#45;&gt;Node17</title>
<g id="a_edge20_Node000016_Node000017"><a xlink:title=" ">
<path fill="none" stroke="#63b8ff" d="M302.59,-286.25C324.65,-273.23 353.29,-256.31 373.22,-244.54"/>
<polygon fill="#63b8ff" stroke="#63b8ff" points="300.72,-283.29 293.89,-291.39 304.28,-289.32 300.72,-283.29"/>
</a>
</g>
</g>
<!-- Node18&#45;&gt;Node2 -->
<g id="edge22_Node000018_Node000002" class="edge">
<title>Node18&#45;&gt;Node2</title>
<g id="a_edge22_Node000018_Node000002"><a xlink:title=" ">
<path fill="none" stroke="#63b8ff" d="M338.72,-492.12C303.08,-481.8 258.04,-468.76 224.39,-459.01"/>
<polygon fill="#63b8ff" stroke="#63b8ff" points="337.92,-495.54 348.5,-494.95 339.87,-488.81 337.92,-495.54"/>
</a>
</g>
</g>
<!-- Node18&#45;&gt;Node3 -->
<g id="edge23_Node000018_Node000003" class="edge">
<title>Node18&#45;&gt;Node3</title>
<g id="a_edge23_Node000018_Node000003"><a xlink:title=" ">
<path fill="none" stroke="#63b8ff" d="M416.13,-486.6C427.42,-470.56 438.05,-448.44 430,-429 423.99,-414.48 411.49,-401.98 400.49,-393.11"/>
<polygon fill="#63b8ff" stroke="#63b8ff" points="413.14,-484.74 409.91,-494.83 418.73,-488.97 413.14,-484.74"/>
</a>
</g>
</g>
<!-- Node19 -->
<g id="Node000019" class="node">
<title>Node19</title>
<g id="a_Node000019"><a xlink:href="../../d0/d02/PCCNode_8cpp.html" target="_top" xlink:title="Implémentation du nœud abstrait du graphe PCC.">
<polygon fill="white" stroke="#666666" points="421,-459 269,-459 269,-429 421,-429 421,-459"/>
<text text-anchor="start" x="277" y="-447" font-family="Helvetica,sans-Serif" font-size="10.00">SimulateurFerroviaire</text>
<text text-anchor="middle" x="345" y="-436" font-family="Helvetica,sans-Serif" font-size="10.00">/Modules/PCC/PCCNode.cpp</text>
</a>
</g>
</g>
<!-- Node18&#45;&gt;Node19 -->
<g id="edge24_Node000018_Node000019" class="edge">
<title>Node18&#45;&gt;Node19</title>
<g id="a_edge24_Node000018_Node000019"><a xlink:title=" ">
<path fill="none" stroke="#63b8ff" d="M378.97,-486.81C371.52,-477.64 363.1,-467.28 356.51,-459.16"/>
<polygon fill="#63b8ff" stroke="#63b8ff" points="376.44,-489.24 385.46,-494.8 381.87,-484.83 376.44,-489.24"/>
</a>
</g>
</g>
<!-- Node20 -->
<g id="Node000020" class="node">
<title>Node20</title>
<g id="a_Node000020"><a xlink:href="../../d2/d03/PCCStraightNode_8h.html" target="_top" xlink:title="Nœud PCC représentant un StraightBlock.">
<polygon fill="white" stroke="#666666" points="656.5,-459 477.5,-459 477.5,-429 656.5,-429 656.5,-459"/>
<text text-anchor="start" x="485.5" y="-447" font-family="Helvetica,sans-Serif" font-size="10.00">SimulateurFerroviaire</text>
<text text-anchor="middle" x="567" y="-436" font-family="Helvetica,sans-Serif" font-size="10.00">/Modules/PCC/PCCStraightNode.h</text>
</a>
</g>
</g>
<!-- Node18&#45;&gt;Node20 -->
<g id="edge25_Node000018_Node000020" class="edge">
<title>Node18&#45;&gt;Node20</title>
<g id="a_edge25_Node000018_Node000020"><a xlink:title=" ">
<path fill="none" stroke="#63b8ff" d="M443.96,-491.32C471.01,-481.14 504.55,-468.51 529.78,-459.01"/>
<polygon fill="#63b8ff" stroke="#63b8ff" points="442.43,-488.16 434.31,-494.95 444.9,-494.71 442.43,-488.16"/>
</a>
</g>
</g>
<!-- Node22 -->
<g id="Node000022" class="node">
<title>Node22</title>
<g id="a_Node000022"><a xlink:href="../../dc/d01/PCCSwitchNode_8h.html" target="_top" xlink:title="Nœud PCC représentant un SwitchBlock.">
<polygon fill="white" stroke="#666666" points="849.5,-459 676.5,-459 676.5,-429 849.5,-429 849.5,-459"/>
<text text-anchor="start" x="684.5" y="-447" font-family="Helvetica,sans-Serif" font-size="10.00">SimulateurFerroviaire</text>
<text text-anchor="middle" x="763" y="-436" font-family="Helvetica,sans-Serif" font-size="10.00">/Modules/PCC/PCCSwitchNode.h</text>
</a>
</g>
</g>
<!-- Node18&#45;&gt;Node22 -->
<g id="edge29_Node000018_Node000022" class="edge">
<title>Node18&#45;&gt;Node22</title>
<g id="a_edge29_Node000018_Node000022"><a xlink:title=" ">
<path fill="none" stroke="#63b8ff" d="M477.11,-494.99C538.17,-484.31 621.86,-469.68 682.91,-459"/>
<polygon fill="#63b8ff" stroke="#63b8ff" points="476.38,-491.57 467.14,-496.74 477.59,-498.46 476.38,-491.57"/>
</a>
</g>
</g>
<!-- Node20&#45;&gt;Node3 -->
<g id="edge27_Node000020_Node000003" class="edge">
<title>Node20&#45;&gt;Node3</title>
<g id="a_edge27_Node000020_Node000003"><a xlink:title=" ">
<path fill="none" stroke="#63b8ff" d="M516.13,-425.59C486.23,-415.36 448.93,-402.59 420.94,-393.01"/>
<polygon fill="#63b8ff" stroke="#63b8ff" points="515.37,-429.03 525.96,-428.95 517.63,-422.41 515.37,-429.03"/>
</a>
</g>
</g>
<!-- Node20&#45;&gt;Node12 -->
<g id="edge26_Node000020_Node000012" class="edge">
<title>Node20&#45;&gt;Node12</title>
<g id="a_edge26_Node000020_Node000012"><a xlink:title=" ">
<path fill="none" stroke="#63b8ff" d="M617.34,-425.14C659.41,-407.31 716.9,-375.52 745,-327 758.87,-303.06 762.79,-270.78 763.8,-250.3"/>
<polygon fill="#63b8ff" stroke="#63b8ff" points="616,-421.91 608.08,-428.95 618.66,-428.38 616,-421.91"/>
</a>
</g>
</g>
<!-- Node21 -->
<g id="Node000021" class="node">
<title>Node21</title>
<g id="a_Node000021"><a xlink:href="../../d1/d01/PCCStraightNode_8cpp.html" target="_top" xlink:title="Implémentation du nœud PCC pour voie droite.">
<polygon fill="white" stroke="#666666" points="660,-393 470,-393 470,-363 660,-363 660,-393"/>
<text text-anchor="start" x="478" y="-381" font-family="Helvetica,sans-Serif" font-size="10.00">SimulateurFerroviaire</text>
<text text-anchor="middle" x="565" y="-370" font-family="Helvetica,sans-Serif" font-size="10.00">/Modules/PCC/PCCStraightNode.cpp</text>
</a>
</g>
</g>
<!-- Node20&#45;&gt;Node21 -->
<g id="edge28_Node000020_Node000021" class="edge">
<title>Node20&#45;&gt;Node21</title>
<g id="a_edge28_Node000020_Node000021"><a xlink:title=" ">
<path fill="none" stroke="#63b8ff" d="M566.24,-418.54C565.97,-409.96 565.68,-400.61 565.44,-393.16"/>
<polygon fill="#63b8ff" stroke="#63b8ff" points="562.75,-418.91 566.56,-428.8 569.74,-418.69 562.75,-418.91"/>
</a>
</g>
</g>
<!-- Node22&#45;&gt;Node3 -->
<g id="edge32_Node000022_Node000003" class="edge">
<title>Node22&#45;&gt;Node3</title>
<g id="a_edge32_Node000022_Node000003"><a xlink:title=" ">
<path fill="none" stroke="#63b8ff" d="M667.27,-427.33C607.87,-417.56 529.98,-404.67 461,-393 458.19,-392.52 455.32,-392.04 452.42,-391.54"/>
<polygon fill="#63b8ff" stroke="#63b8ff" points="666.95,-430.82 677.38,-428.99 668.08,-423.91 666.95,-430.82"/>
</a>
</g>
</g>
<!-- Node22&#45;&gt;Node11 -->
<g id="edge31_Node000022_Node000011" class="edge">
<title>Node22&#45;&gt;Node11</title>
<g id="a_edge31_Node000022_Node000011"><a xlink:title=" ">
<path fill="none" stroke="#63b8ff" d="M748.07,-420.27C730.96,-394.21 703.18,-351.93 686.95,-327.21"/>
<polygon fill="#63b8ff" stroke="#63b8ff" points="745.23,-422.32 753.64,-428.76 751.08,-418.48 745.23,-422.32"/>
</a>
</g>
</g>
<!-- Node22&#45;&gt;Node12 -->
<g id="edge30_Node000022_Node000012" class="edge">
<title>Node22&#45;&gt;Node12</title>
<g id="a_edge30_Node000022_Node000012"><a xlink:title=" ">
<path fill="none" stroke="#63b8ff" d="M768.59,-418.82C774.97,-387.95 783.83,-332.91 778,-286 776.49,-273.87 773.2,-260.58 770.19,-250.05"/>
<polygon fill="#63b8ff" stroke="#63b8ff" points="765.15,-418.17 766.46,-428.68 771.99,-419.65 765.15,-418.17"/>
</a>
</g>
</g>
<!-- Node22&#45;&gt;Node17 -->
<g id="edge33_Node000022_Node000017" class="edge">
<title>Node22&#45;&gt;Node17</title>
<g id="a_edge33_Node000022_Node000017"><a xlink:title=" ">
<path fill="none" stroke="#63b8ff" d="M739.05,-422.17C713.7,-400.19 676.34,-368.03 669,-363 667.15,-361.73 529.02,-286.98 527,-286 495.51,-270.78 458.8,-255.31 432.44,-244.58"/>
<polygon fill="#63b8ff" stroke="#63b8ff" points="736.96,-424.99 746.81,-428.9 741.55,-419.7 736.96,-424.99"/>
</a>
</g>
</g>
<!-- Node23 -->
<g id="Node000023" class="node">
<title>Node23</title>
<g id="a_Node000023"><a xlink:href="../../d7/d00/PCCSwitchNode_8cpp.html" target="_top" xlink:title="Implémentation du nœud PCC pour aiguillage.">
<polygon fill="white" stroke="#666666" points="1014,-393 830,-393 830,-363 1014,-363 1014,-393"/>
<text text-anchor="start" x="838" y="-381" font-family="Helvetica,sans-Serif" font-size="10.00">SimulateurFerroviaire</text>
<text text-anchor="middle" x="922" y="-370" font-family="Helvetica,sans-Serif" font-size="10.00">/Modules/PCC/PCCSwitchNode.cpp</text>
</a>
</g>
</g>
<!-- Node22&#45;&gt;Node23 -->
<g id="edge34_Node000022_Node000023" class="edge">
<title>Node22&#45;&gt;Node23</title>
<g id="a_edge34_Node000022_Node000023"><a xlink:title=" ">
<path fill="none" stroke="#63b8ff" d="M807.25,-425.19C832.5,-415.02 863.7,-402.47 887.19,-393.01"/>
<polygon fill="#63b8ff" stroke="#63b8ff" points="805.86,-421.97 797.89,-428.95 808.48,-428.47 805.86,-421.97"/>
</a>
</g>
</g>
</g>
</svg>
