<?xml version="1.0" encoding="UTF-8" standalone="no"?>
<!DOCTYPE svg PUBLIC "-//W3C//DTD SVG 1.1//EN"
 "http://www.w3.org/Graphics/SVG/1.1/DTD/svg11.dtd">
<!-- Generated by graphviz version 2.43.0 (0)
 -->
<!-- Title: SimulateurFerroviaire/Engine/HMI/PCCPanel/TCORenderer.h Pages: 1 -->
<svg width="1553pt" height="522pt"
 viewBox="0.00 0.00 1552.75 522.00" xmlns="http://www.w3.org/2000/svg" xmlns:xlink="http://www.w3.org/1999/xlink">
<g id="graph0" class="graph" transform="scale(1 1) rotate(0) translate(4 518)">
<title>SimulateurFerroviaire/Engine/HMI/PCCPanel/TCORenderer.h</title>
<!-- Node1 -->
<g id="Node000001" class="node">
<title>Node1</title>
<g id="a_Node000001"><a xlink:title="Renderer GDI du schéma TCO — style SNCF, blocs fixes.">
<polygon fill="#999999" stroke="#666666" points="708.5,-514 584.5,-514 584.5,-473 708.5,-473 708.5,-514"/>
<text text-anchor="start" x="592.5" y="-502" font-family="Helvetica,sans-Serif" font-size="10.00">SimulateurFerroviaire</text>
<text text-anchor="start" x="592.5" y="-491" font-family="Helvetica,sans-Serif" font-size="10.00">/Engine/HMI/PCCPanel</text>
<text text-anchor="middle" x="646.5" y="-480" font-family="Helvetica,sans-Serif" font-size="10.00">/TCORenderer.h</text>
</a>
</g>
</g>
<!-- Node2 -->
<g id="Node000002" class="node">
<title>Node2</title>
<g id="a_Node000002"><a xlink:href="../../d6/d01/framework_8h.html" target="_top" xlink:title=" ">
<polygon fill="white" stroke="#666666" points="391,-134.5 312,-134.5 312,-115.5 391,-115.5 391,-134.5"/>
<text text-anchor="middle" x="351.5" y="-122.5" font-family="Helvetica,sans-Serif" font-size="10.00">framework.h</text>
</a>
</g>
</g>
<!-- Node1&#45;&gt;Node2 -->
<g id="edge1_Node000001_Node000002" class="edge">
<title>Node1&#45;&gt;Node2</title>
<g id="a_edge1_Node000001_Node000002"><a xlink:title=" ">
<path fill="none" stroke="#63b8ff" d="M584.35,-485.64C518.98,-474.57 425.5,-446.06 425.5,-373.5 425.5,-373.5 425.5,-373.5 425.5,-245 425.5,-202.53 391.09,-162.65 369.2,-141.57"/>
<polygon fill="#63b8ff" stroke="#63b8ff" points="371.5,-138.93 361.79,-134.69 366.73,-144.06 371.5,-138.93"/>
</a>
</g>
</g>
<!-- Node12 -->
<g id="Node000012" class="node">
<title>Node12</title>
<g id="a_Node000012"><a xlink:href="../../d8/d00/PCCGraph_8h.html" target="_top" xlink:title="Conteneur propriétaire du graphe PCC.">
<polygon fill="white" stroke="#666666" points="885,-437 744,-437 744,-418 885,-418 885,-437"/>
<text text-anchor="middle" x="814.5" y="-425" font-family="Helvetica,sans-Serif" font-size="10.00">Modules/PCC/PCCGraph.h</text>
</a>
</g>
</g>
<!-- Node1&#45;&gt;Node12 -->
<g id="edge11_Node000001_Node000012" class="edge">
<title>Node1&#45;&gt;Node12</title>
<g id="a_edge11_Node000001_Node000012"><a xlink:title=" ">
<path fill="none" stroke="#63b8ff" d="M697.82,-472.95C725.34,-462.46 758.42,-449.87 782.31,-440.76"/>
<polygon fill="#63b8ff" stroke="#63b8ff" points="783.85,-443.92 791.95,-437.09 781.36,-437.38 783.85,-443.92"/>
</a>
</g>
</g>
<!-- Node17 -->
<g id="Node000017" class="node">
<title>Node17</title>
<g id="a_Node000017"><a xlink:href="../../dd/d00/Logger_8h.html" target="_top" xlink:title="Système de journalisation à 5 niveaux de trace, un fichier par moteur.">
<polygon fill="white" stroke="#666666" points="680,-140 569,-140 569,-110 680,-110 680,-140"/>
<text text-anchor="start" x="577" y="-128" font-family="Helvetica,sans-Serif" font-size="10.00">Engine/Core/Logger</text>
<text text-anchor="middle" x="624.5" y="-117" font-family="Helvetica,sans-Serif" font-size="10.00">/Logger.h</text>
</a>
</g>
</g>
<!-- Node1&#45;&gt;Node17 -->
<g id="edge57_Node000001_Node000017" class="edge">
<title>Node1&#45;&gt;Node17</title>
<g id="a_edge57_Node000001_Node000017"><a xlink:title=" ">
<path fill="none" stroke="#63b8ff" d="M594.77,-472.99C554.89,-454.2 506.5,-421.51 506.5,-373.5 506.5,-373.5 506.5,-373.5 506.5,-245 506.5,-199.2 551.13,-164.72 585.49,-144.97"/>
<polygon fill="#63b8ff" stroke="#63b8ff" points="587.36,-147.93 594.42,-140.03 583.97,-141.81 587.36,-147.93"/>
</a>
</g>
</g>
<!-- Node30 -->
<g id="Node000030" class="node">
<title>Node30</title>
<g id="a_Node000030"><a xlink:href="../../dc/d01/PCCSwitchNode_8h.html" target="_top" xlink:title="Nœud PCC représentant un SwitchBlock.">
<polygon fill="white" stroke="#666666" points="1182,-382 1079,-382 1079,-363 1182,-363 1182,-382"/>
<text text-anchor="middle" x="1130.5" y="-370" font-family="Helvetica,sans-Serif" font-size="10.00">PCCSwitchNode.h</text>
</a>
</g>
</g>
<!-- Node1&#45;&gt;Node30 -->
<g id="edge56_Node000001_Node000030" class="edge">
<title>Node1&#45;&gt;Node30</title>
<g id="a_edge56_Node000001_Node000030"><a xlink:title=" ">
<path fill="none" stroke="#63b8ff" d="M708.59,-479.37C758.85,-468.56 831.42,-452.54 894.5,-437 963.78,-419.94 1043.87,-397.89 1090.68,-384.77"/>
<polygon fill="#63b8ff" stroke="#63b8ff" points="1091.75,-388.11 1100.43,-382.03 1089.86,-381.37 1091.75,-388.11"/>
</a>
</g>
</g>
<!-- Node3 -->
<g id="Node000003" class="node">
<title>Node3</title>
<g id="a_Node000003"><a xlink:href="../../d9/d02/targetver_8h.html" target="_top" xlink:title=" ">
<polygon fill="white" stroke="#666666" points="76.5,-74 6.5,-74 6.5,-55 76.5,-55 76.5,-74"/>
<text text-anchor="middle" x="41.5" y="-62" font-family="Helvetica,sans-Serif" font-size="10.00">targetver.h</text>
</a>
</g>
</g>
<!-- Node2&#45;&gt;Node3 -->
<g id="edge2_Node000002_Node000003" class="edge">
<title>Node2&#45;&gt;Node3</title>
<g id="a_edge2_Node000002_Node000003"><a xlink:title=" ">
<path fill="none" stroke="#63b8ff" d="M311.83,-116.61C261.77,-107.26 172.74,-90.6 86.52,-74.19"/>
<polygon fill="#63b8ff" stroke="#63b8ff" points="87.04,-70.72 76.56,-72.29 85.73,-77.6 87.04,-70.72"/>
</a>
</g>
</g>
<!-- Node5 -->
<g id="Node000005" class="node">
<title>Node5</title>
<g id="a_Node000005"><a xlink:title=" ">
<polygon fill="#e0e0e0" stroke="#999999" points="552.5,-74 484.5,-74 484.5,-55 552.5,-55 552.5,-74"/>
<text text-anchor="middle" x="518.5" y="-62" font-family="Helvetica,sans-Serif" font-size="10.00">windows.h</text>
</a>
</g>
</g>
<!-- Node2&#45;&gt;Node5 -->
<g id="edge4_Node000002_Node000005" class="edge">
<title>Node2&#45;&gt;Node5</title>
<g id="a_edge4_Node000002_Node000005"><a xlink:title=" ">
<path fill="none" stroke="#63b8ff" d="M375.78,-115.49C404.48,-105.44 452.39,-88.66 484.7,-77.34"/>
<polygon fill="#63b8ff" stroke="#63b8ff" points="485.91,-80.63 494.19,-74.02 483.59,-74.02 485.91,-80.63"/>
</a>
</g>
</g>
<!-- Node6 -->
<g id="Node000006" class="node">
<title>Node6</title>
<g id="a_Node000006"><a xlink:title=" ">
<polygon fill="#e0e0e0" stroke="#999999" points="148,-74 95,-74 95,-55 148,-55 148,-74"/>
<text text-anchor="middle" x="121.5" y="-62" font-family="Helvetica,sans-Serif" font-size="10.00">stdlib.h</text>
</a>
</g>
</g>
<!-- Node2&#45;&gt;Node6 -->
<g id="edge5_Node000002_Node000006" class="edge">
<title>Node2&#45;&gt;Node6</title>
<g id="a_edge5_Node000002_Node000006"><a xlink:title=" ">
<path fill="none" stroke="#63b8ff" d="M318.06,-115.49C275.4,-104.65 201.92,-85.95 157.9,-74.76"/>
<polygon fill="#63b8ff" stroke="#63b8ff" points="158.73,-71.36 148.17,-72.28 157,-78.14 158.73,-71.36"/>
</a>
</g>
</g>
<!-- Node7 -->
<g id="Node000007" class="node">
<title>Node7</title>
<g id="a_Node000007"><a xlink:title=" ">
<polygon fill="#e0e0e0" stroke="#999999" points="225,-74 166,-74 166,-55 225,-55 225,-74"/>
<text text-anchor="middle" x="195.5" y="-62" font-family="Helvetica,sans-Serif" font-size="10.00">malloc.h</text>
</a>
</g>
</g>
<!-- Node2&#45;&gt;Node7 -->
<g id="edge6_Node000002_Node000007" class="edge">
<title>Node2&#45;&gt;Node7</title>
<g id="a_edge6_Node000002_Node000007"><a xlink:title=" ">
<path fill="none" stroke="#63b8ff" d="M328.82,-115.49C302.24,-105.53 258.02,-88.95 227.86,-77.63"/>
<polygon fill="#63b8ff" stroke="#63b8ff" points="228.8,-74.25 218.21,-74.02 226.35,-80.81 228.8,-74.25"/>
</a>
</g>
</g>
<!-- Node8 -->
<g id="Node000008" class="node">
<title>Node8</title>
<g id="a_Node000008"><a xlink:title=" ">
<polygon fill="#e0e0e0" stroke="#999999" points="308,-74 243,-74 243,-55 308,-55 308,-74"/>
<text text-anchor="middle" x="275.5" y="-62" font-family="Helvetica,sans-Serif" font-size="10.00">memory.h</text>
</a>
</g>
</g>
<!-- Node2&#45;&gt;Node8 -->
<g id="edge7_Node000002_Node000008" class="edge">
<title>Node2&#45;&gt;Node8</title>
<g id="a_edge7_Node000002_Node000008"><a xlink:title=" ">
<path fill="none" stroke="#63b8ff" d="M340.29,-115.37C328.39,-106.21 309.36,-91.56 294.99,-80.51"/>
<polygon fill="#63b8ff" stroke="#63b8ff" points="296.82,-77.49 286.76,-74.17 292.55,-83.04 296.82,-77.49"/>
</a>
</g>
</g>
<!-- Node9 -->
<g id="Node000009" class="node">
<title>Node9</title>
<g id="a_Node000009"><a xlink:title=" ">
<polygon fill="#e0e0e0" stroke="#999999" points="376.5,-74 326.5,-74 326.5,-55 376.5,-55 376.5,-74"/>
<text text-anchor="middle" x="351.5" y="-62" font-family="Helvetica,sans-Serif" font-size="10.00">tchar.h</text>
</a>
</g>
</g>
<!-- Node2&#45;&gt;Node9 -->
<g id="edge8_Node000002_Node000009" class="edge">
<title>Node2&#45;&gt;Node9</title>
<g id="a_edge8_Node000002_Node000009"><a xlink:title=" ">
<path fill="none" stroke="#63b8ff" d="M351.5,-115.37C351.5,-107.25 351.5,-94.81 351.5,-84.39"/>
<polygon fill="#63b8ff" stroke="#63b8ff" points="355,-84.17 351.5,-74.17 348,-84.17 355,-84.17"/>
</a>
</g>
</g>
<!-- Node10 -->
<g id="Node000010" class="node">
<title>Node10</title>
<g id="a_Node000010"><a xlink:title=" ">
<polygon fill="#e0e0e0" stroke="#999999" points="466.5,-74 394.5,-74 394.5,-55 466.5,-55 466.5,-74"/>
<text text-anchor="middle" x="430.5" y="-62" font-family="Helvetica,sans-Serif" font-size="10.00">commctrl.h</text>
</a>
</g>
</g>
<!-- Node2&#45;&gt;Node10 -->
<g id="edge9_Node000002_Node000010" class="edge">
<title>Node2&#45;&gt;Node10</title>
<g id="a_edge9_Node000002_Node000010"><a xlink:title=" ">
<path fill="none" stroke="#63b8ff" d="M363.16,-115.37C375.64,-106.12 395.68,-91.28 410.66,-80.19"/>
<polygon fill="#63b8ff" stroke="#63b8ff" points="412.84,-82.93 418.8,-74.17 408.68,-77.31 412.84,-82.93"/>
</a>
</g>
</g>
<!-- Node11 -->
<g id="Node000011" class="node">
<title>Node11</title>
<g id="a_Node000011"><a xlink:title=" ">
<polygon fill="#e0e0e0" stroke="#999999" points="902.5,-74 858.5,-74 858.5,-55 902.5,-55 902.5,-74"/>
<text text-anchor="middle" x="880.5" y="-62" font-family="Helvetica,sans-Serif" font-size="10.00">string</text>
</a>
</g>
</g>
<!-- Node2&#45;&gt;Node11 -->
<g id="edge10_Node000002_Node000011" class="edge">
<title>Node2&#45;&gt;Node11</title>
<g id="a_edge10_Node000002_Node000011"><a xlink:title=" ">
<path fill="none" stroke="#63b8ff" d="M391,-120.9C489.39,-113.03 744.35,-91.79 848.37,-73.86"/>
<polygon fill="#63b8ff" stroke="#63b8ff" points="849.03,-77.3 858.25,-72.08 847.79,-70.41 849.03,-77.3"/>
</a>
</g>
</g>
<!-- Node4 -->
<g id="Node000004" class="node">
<title>Node4</title>
<g id="a_Node000004"><a xlink:title=" ">
<polygon fill="#e0e0e0" stroke="#999999" points="83,-19 0,-19 0,0 83,0 83,-19"/>
<text text-anchor="middle" x="41.5" y="-7" font-family="Helvetica,sans-Serif" font-size="10.00">SDKDDKVer.h</text>
</a>
</g>
</g>
<!-- Node3&#45;&gt;Node4 -->
<g id="edge3_Node000003_Node000004" class="edge">
<title>Node3&#45;&gt;Node4</title>
<g id="a_edge3_Node000003_Node000004"><a xlink:title=" ">
<path fill="none" stroke="#63b8ff" d="M41.5,-54.75C41.5,-47.8 41.5,-37.85 41.5,-29.13"/>
<polygon fill="#63b8ff" stroke="#63b8ff" points="45,-29.09 41.5,-19.09 38,-29.09 45,-29.09"/>
</a>
</g>
</g>
<!-- Node12&#45;&gt;Node11 -->
<g id="edge13_Node000012_Node000011" class="edge">
<title>Node12&#45;&gt;Node11</title>
<g id="a_edge13_Node000012_Node000011"><a xlink:title=" ">
<path fill="none" stroke="#63b8ff" d="M866.91,-417.96C921.99,-408.47 1002.01,-393.03 1011.5,-382 1094.16,-285.95 948.43,-130.5 897.27,-81.09"/>
<polygon fill="#63b8ff" stroke="#63b8ff" points="899.58,-78.46 889.92,-74.1 894.75,-83.53 899.58,-78.46"/>
</a>
</g>
</g>
<!-- Node13 -->
<g id="Node000013" class="node">
<title>Node13</title>
<g id="a_Node000013"><a xlink:title=" ">
<polygon fill="#e0e0e0" stroke="#999999" points="872.5,-382 814.5,-382 814.5,-363 872.5,-363 872.5,-382"/>
<text text-anchor="middle" x="843.5" y="-370" font-family="Helvetica,sans-Serif" font-size="10.00">memory</text>
</a>
</g>
</g>
<!-- Node12&#45;&gt;Node13 -->
<g id="edge12_Node000012_Node000013" class="edge">
<title>Node12&#45;&gt;Node13</title>
<g id="a_edge12_Node000012_Node000013"><a xlink:title=" ">
<path fill="none" stroke="#63b8ff" d="M819.29,-417.75C823.26,-410.49 829.03,-399.95 833.93,-390.98"/>
<polygon fill="#63b8ff" stroke="#63b8ff" points="837.07,-392.54 838.8,-382.09 830.93,-389.18 837.07,-392.54"/>
</a>
</g>
</g>
<!-- Node14 -->
<g id="Node000014" class="node">
<title>Node14</title>
<g id="a_Node000014"><a xlink:title=" ">
<polygon fill="#e0e0e0" stroke="#999999" points="984,-382 891,-382 891,-363 984,-363 984,-382"/>
<text text-anchor="middle" x="937.5" y="-370" font-family="Helvetica,sans-Serif" font-size="10.00">unordered_map</text>
</a>
</g>
</g>
<!-- Node12&#45;&gt;Node14 -->
<g id="edge14_Node000012_Node000014" class="edge">
<title>Node12&#45;&gt;Node14</title>
<g id="a_edge14_Node000012_Node000014"><a xlink:title=" ">
<path fill="none" stroke="#63b8ff" d="M834.26,-417.98C854.23,-409.38 885.3,-395.99 908.15,-386.15"/>
<polygon fill="#63b8ff" stroke="#63b8ff" points="909.58,-389.34 917.38,-382.17 906.81,-382.91 909.58,-389.34"/>
</a>
</g>
</g>
<!-- Node15 -->
<g id="Node000015" class="node">
<title>Node15</title>
<g id="a_Node000015"><a xlink:title=" ">
<polygon fill="#e0e0e0" stroke="#999999" points="998,-255.5 951,-255.5 951,-236.5 998,-236.5 998,-255.5"/>
<text text-anchor="middle" x="974.5" y="-243.5" font-family="Helvetica,sans-Serif" font-size="10.00">vector</text>
</a>
</g>
</g>
<!-- Node12&#45;&gt;Node15 -->
<g id="edge15_Node000012_Node000015" class="edge">
<title>Node12&#45;&gt;Node15</title>
<g id="a_edge15_Node000012_Node000015"><a xlink:title=" ">
<path fill="none" stroke="#63b8ff" d="M884.86,-417.95C928.94,-410.98 979.89,-399.41 993.5,-382 1020.38,-347.62 998.69,-292.75 984.45,-264.72"/>
<polygon fill="#63b8ff" stroke="#63b8ff" points="987.43,-262.88 979.64,-255.7 981.25,-266.17 987.43,-262.88"/>
</a>
</g>
</g>
<!-- Node16 -->
<g id="Node000016" class="node">
<title>Node16</title>
<g id="a_Node000016"><a xlink:href="../../d1/d02/PCCEdge_8h.html" target="_top" xlink:title="Connexion orientée entre deux nœuds du graphe PCC.">
<polygon fill="white" stroke="#666666" points="642,-255.5 573,-255.5 573,-236.5 642,-236.5 642,-255.5"/>
<text text-anchor="middle" x="607.5" y="-243.5" font-family="Helvetica,sans-Serif" font-size="10.00">PCCEdge.h</text>
</a>
</g>
</g>
<!-- Node12&#45;&gt;Node16 -->
<g id="edge16_Node000012_Node000016" class="edge">
<title>Node12&#45;&gt;Node16</title>
<g id="a_edge16_Node000012_Node000016"><a xlink:title=" ">
<path fill="none" stroke="#63b8ff" d="M747.41,-417.95C701.96,-410.76 647.39,-398.92 631.5,-382 601.57,-350.14 602.23,-294.53 604.99,-265.63"/>
<polygon fill="#63b8ff" stroke="#63b8ff" points="608.48,-265.99 606.14,-255.65 601.52,-265.19 608.48,-265.99"/>
</a>
</g>
</g>
<!-- Node12&#45;&gt;Node17 -->
<g id="edge53_Node000012_Node000017" class="edge">
<title>Node12&#45;&gt;Node17</title>
<g id="a_edge53_Node000012_Node000017"><a xlink:title=" ">
<path fill="none" stroke="#63b8ff" d="M743.91,-425.97C663.91,-421.19 544.5,-399.57 544.5,-313 544.5,-313 544.5,-313 544.5,-245 544.5,-205.19 575.72,-168.68 599.15,-146.88"/>
<polygon fill="#63b8ff" stroke="#63b8ff" points="601.64,-149.35 606.75,-140.07 596.96,-144.14 601.64,-149.35"/>
</a>
</g>
</g>
<!-- Node23 -->
<g id="Node000023" class="node">
<title>Node23</title>
<g id="a_Node000023"><a xlink:href="../../d6/d01/PCCNode_8h.html" target="_top" xlink:title="Nœud abstrait du graphe PCC représentant un bloc ferroviaire.">
<polygon fill="white" stroke="#666666" points="742,-321.5 671,-321.5 671,-302.5 742,-302.5 742,-321.5"/>
<text text-anchor="middle" x="706.5" y="-309.5" font-family="Helvetica,sans-Serif" font-size="10.00">PCCNode.h</text>
</a>
</g>
</g>
<!-- Node12&#45;&gt;Node23 -->
<g id="edge25_Node000012_Node000023" class="edge">
<title>Node12&#45;&gt;Node23</title>
<g id="a_edge25_Node000012_Node000023"><a xlink:title=" ">
<path fill="none" stroke="#63b8ff" d="M747.94,-417.99C704.67,-410.93 653.89,-399.24 640.5,-382 624.36,-361.22 653.61,-339.68 678.16,-326.32"/>
<polygon fill="#63b8ff" stroke="#63b8ff" points="679.97,-329.32 687.24,-321.61 676.75,-323.1 679.97,-329.32"/>
</a>
</g>
</g>
<!-- Node26 -->
<g id="Node000026" class="node">
<title>Node26</title>
<g id="a_Node000026"><a xlink:href="../../d2/d03/PCCStraightNode_8h.html" target="_top" xlink:title="Nœud PCC représentant un StraightBlock.">
<polygon fill="white" stroke="#666666" points="758,-382 649,-382 649,-363 758,-363 758,-382"/>
<text text-anchor="middle" x="703.5" y="-370" font-family="Helvetica,sans-Serif" font-size="10.00">PCCStraightNode.h</text>
</a>
</g>
</g>
<!-- Node12&#45;&gt;Node26 -->
<g id="edge34_Node000012_Node000026" class="edge">
<title>Node12&#45;&gt;Node26</title>
<g id="a_edge34_Node000012_Node000026"><a xlink:title=" ">
<path fill="none" stroke="#63b8ff" d="M796.67,-417.98C778.89,-409.5 751.35,-396.35 730.82,-386.54"/>
<polygon fill="#63b8ff" stroke="#63b8ff" points="732.19,-383.32 721.66,-382.17 729.17,-389.64 732.19,-383.32"/>
</a>
</g>
</g>
<!-- Node27 -->
<g id="Node000027" class="node">
<title>Node27</title>
<g id="a_Node000027"><a xlink:href="../../de/d01/StraightBlock_8h.html" target="_top" xlink:title="Modèle de domaine d&#39;un bloc de voie droite (Straight).">
<polygon fill="white" stroke="#666666" points="984.5,-327 832.5,-327 832.5,-297 984.5,-297 984.5,-327"/>
<text text-anchor="start" x="840.5" y="-315" font-family="Helvetica,sans-Serif" font-size="10.00">Modules/Elements/Shunting</text>
<text text-anchor="middle" x="908.5" y="-304" font-family="Helvetica,sans-Serif" font-size="10.00">Elements/StraightBlock.h</text>
</a>
</g>
</g>
<!-- Node12&#45;&gt;Node27 -->
<g id="edge54_Node000012_Node000027" class="edge">
<title>Node12&#45;&gt;Node27</title>
<g id="a_edge54_Node000012_Node000027"><a xlink:title=" ">
<path fill="none" stroke="#63b8ff" d="M809.98,-417.96C803.83,-405.02 794.75,-380.18 805.5,-363 814.32,-348.91 828.38,-338.69 843.3,-331.31"/>
<polygon fill="#63b8ff" stroke="#63b8ff" points="844.99,-334.39 852.66,-327.08 842.11,-328.01 844.99,-334.39"/>
</a>
</g>
</g>
<!-- Node12&#45;&gt;Node30 -->
<g id="edge42_Node000012_Node000030" class="edge">
<title>Node12&#45;&gt;Node30</title>
<g id="a_edge42_Node000012_Node000030"><a xlink:title=" ">
<path fill="none" stroke="#63b8ff" d="M865.27,-417.98C920.93,-408.65 1010.21,-393.67 1069.6,-383.71"/>
<polygon fill="#63b8ff" stroke="#63b8ff" points="1070.31,-387.14 1079.59,-382.04 1069.15,-380.24 1070.31,-387.14"/>
</a>
</g>
</g>
<!-- Node31 -->
<g id="Node000031" class="node">
<title>Node31</title>
<g id="a_Node000031"><a xlink:href="../../dc/d01/SwitchBlock_8h.html" target="_top" xlink:title="Modèle de domaine d&#39;un aiguillage ferroviaire à 3 branches.">
<polygon fill="white" stroke="#666666" points="1337.5,-327 1185.5,-327 1185.5,-297 1337.5,-297 1337.5,-327"/>
<text text-anchor="start" x="1193.5" y="-315" font-family="Helvetica,sans-Serif" font-size="10.00">Modules/Elements/Shunting</text>
<text text-anchor="middle" x="1261.5" y="-304" font-family="Helvetica,sans-Serif" font-size="10.00">Elements/SwitchBlock.h</text>
</a>
</g>
</g>
<!-- Node12&#45;&gt;Node31 -->
<g id="edge55_Node000012_Node000031" class="edge">
<title>Node12&#45;&gt;Node31</title>
<g id="a_edge55_Node000012_Node000031"><a xlink:title=" ">
<path fill="none" stroke="#63b8ff" d="M885.03,-423.62C978.83,-418.86 1138.93,-407.26 1191.5,-382 1213.43,-371.46 1232.65,-351.26 1245.37,-335.42"/>
<polygon fill="#63b8ff" stroke="#63b8ff" points="1248.41,-337.22 1251.75,-327.16 1242.87,-332.94 1248.41,-337.22"/>
</a>
</g>
</g>
<!-- Node16&#45;&gt;Node17 -->
<g id="edge17_Node000016_Node000017" class="edge">
<title>Node16&#45;&gt;Node17</title>
<g id="a_edge17_Node000016_Node000017"><a xlink:title=" ">
<path fill="none" stroke="#63b8ff" d="M608.72,-236.44C611.27,-218.64 617.2,-177.07 621.03,-150.31"/>
<polygon fill="#63b8ff" stroke="#63b8ff" points="624.52,-150.59 622.47,-140.2 617.59,-149.6 624.52,-150.59"/>
</a>
</g>
</g>
<!-- Node17&#45;&gt;Node5 -->
<g id="edge24_Node000017_Node000005" class="edge">
<title>Node17&#45;&gt;Node5</title>
<g id="a_edge24_Node000017_Node000005"><a xlink:title=" ">
<path fill="none" stroke="#63b8ff" d="M599.11,-109.99C582.21,-100.66 560.12,-88.47 543.34,-79.21"/>
<polygon fill="#63b8ff" stroke="#63b8ff" points="544.6,-75.91 534.15,-74.14 541.22,-82.04 544.6,-75.91"/>
</a>
</g>
</g>
<!-- Node17&#45;&gt;Node11 -->
<g id="edge23_Node000017_Node000011" class="edge">
<title>Node17&#45;&gt;Node11</title>
<g id="a_edge23_Node000017_Node000011"><a xlink:title=" ">
<path fill="none" stroke="#63b8ff" d="M680.16,-112.42C723.48,-103.23 785.35,-89.72 848.11,-74.26"/>
<polygon fill="#63b8ff" stroke="#63b8ff" points="849.32,-77.56 858.18,-71.76 847.63,-70.77 849.32,-77.56"/>
</a>
</g>
</g>
<!-- Node18 -->
<g id="Node000018" class="node">
<title>Node18</title>
<g id="a_Node000018"><a xlink:title=" ">
<polygon fill="#e0e0e0" stroke="#999999" points="680.5,-74 636.5,-74 636.5,-55 680.5,-55 680.5,-74"/>
<text text-anchor="middle" x="658.5" y="-62" font-family="Helvetica,sans-Serif" font-size="10.00">ctime</text>
</a>
</g>
</g>
<!-- Node17&#45;&gt;Node18 -->
<g id="edge18_Node000017_Node000018" class="edge">
<title>Node17&#45;&gt;Node18</title>
<g id="a_edge18_Node000017_Node000018"><a xlink:title=" ">
<path fill="none" stroke="#63b8ff" d="M632.73,-109.84C637.41,-101.78 643.32,-91.62 648.3,-83.06"/>
<polygon fill="#63b8ff" stroke="#63b8ff" points="651.41,-84.67 653.41,-74.27 645.35,-81.15 651.41,-84.67"/>
</a>
</g>
</g>
<!-- Node19 -->
<g id="Node000019" class="node">
<title>Node19</title>
<g id="a_Node000019"><a xlink:title=" ">
<polygon fill="#e0e0e0" stroke="#999999" points="766.5,-74 698.5,-74 698.5,-55 766.5,-55 766.5,-74"/>
<text text-anchor="middle" x="732.5" y="-62" font-family="Helvetica,sans-Serif" font-size="10.00">filesystem</text>
</a>
</g>
</g>
<!-- Node17&#45;&gt;Node19 -->
<g id="edge19_Node000017_Node000019" class="edge">
<title>Node17&#45;&gt;Node19</title>
<g id="a_edge19_Node000017_Node000019"><a xlink:title=" ">
<path fill="none" stroke="#63b8ff" d="M650.37,-109.99C667.74,-100.58 690.51,-88.24 707.67,-78.95"/>
<polygon fill="#63b8ff" stroke="#63b8ff" points="709.42,-81.98 716.55,-74.14 706.09,-75.82 709.42,-81.98"/>
</a>
</g>
</g>
<!-- Node20 -->
<g id="Node000020" class="node">
<title>Node20</title>
<g id="a_Node000020"><a xlink:title=" ">
<polygon fill="#e0e0e0" stroke="#999999" points="840,-74 785,-74 785,-55 840,-55 840,-74"/>
<text text-anchor="middle" x="812.5" y="-62" font-family="Helvetica,sans-Serif" font-size="10.00">fstream</text>
</a>
</g>
</g>
<!-- Node17&#45;&gt;Node20 -->
<g id="edge20_Node000017_Node000020" class="edge">
<title>Node17&#45;&gt;Node20</title>
<g id="a_edge20_Node000017_Node000020"><a xlink:title=" ">
<path fill="none" stroke="#63b8ff" d="M669.53,-109.99C701.84,-99.94 744.84,-86.55 775.23,-77.1"/>
<polygon fill="#63b8ff" stroke="#63b8ff" points="776.5,-80.37 785.01,-74.05 774.42,-73.68 776.5,-80.37"/>
</a>
</g>
</g>
<!-- Node21 -->
<g id="Node000021" class="node">
<title>Node21</title>
<g id="a_Node000021"><a xlink:title=" ">
<polygon fill="#e0e0e0" stroke="#999999" points="618.5,-74 570.5,-74 570.5,-55 618.5,-55 618.5,-74"/>
<text text-anchor="middle" x="594.5" y="-62" font-family="Helvetica,sans-Serif" font-size="10.00">mutex</text>
</a>
</g>
</g>
<!-- Node17&#45;&gt;Node21 -->
<g id="edge21_Node000017_Node000021" class="edge">
<title>Node17&#45;&gt;Node21</title>
<g id="a_edge21_Node000017_Node000021"><a xlink:title=" ">
<path fill="none" stroke="#63b8ff" d="M617.24,-109.84C613.15,-101.87 608.01,-91.84 603.64,-83.33"/>
<polygon fill="#63b8ff" stroke="#63b8ff" points="606.67,-81.57 599,-74.27 600.44,-84.76 606.67,-81.57"/>
</a>
</g>
</g>
<!-- Node22 -->
<g id="Node000022" class="node">
<title>Node22</title>
<g id="a_Node000022"><a xlink:title=" ">
<polygon fill="#e0e0e0" stroke="#999999" points="1276.5,-74 1220.5,-74 1220.5,-55 1276.5,-55 1276.5,-74"/>
<text text-anchor="middle" x="1248.5" y="-62" font-family="Helvetica,sans-Serif" font-size="10.00">sstream</text>
</a>
</g>
</g>
<!-- Node17&#45;&gt;Node22 -->
<g id="edge22_Node000017_Node000022" class="edge">
<title>Node17&#45;&gt;Node22</title>
<g id="a_edge22_Node000017_Node000022"><a xlink:title=" ">
<path fill="none" stroke="#63b8ff" d="M680.15,-118.78C804.76,-107.1 1103.63,-79.08 1210.06,-69.1"/>
<polygon fill="#63b8ff" stroke="#63b8ff" points="1210.7,-72.56 1220.33,-68.14 1210.04,-65.59 1210.7,-72.56"/>
</a>
</g>
</g>
<!-- Node23&#45;&gt;Node11 -->
<g id="edge26_Node000023_Node000011" class="edge">
<title>Node23&#45;&gt;Node11</title>
<g id="a_edge26_Node000023_Node000011"><a xlink:title=" ">
<path fill="none" stroke="#63b8ff" d="M705.67,-302.33C703.93,-279.69 701.97,-217.66 727.5,-176 756.61,-128.5 814.54,-95.36 850.16,-78.45"/>
<polygon fill="#63b8ff" stroke="#63b8ff" points="851.96,-81.47 859.58,-74.11 849.03,-75.12 851.96,-81.47"/>
</a>
</g>
</g>
<!-- Node23&#45;&gt;Node15 -->
<g id="edge27_Node000023_Node000015" class="edge">
<title>Node23&#45;&gt;Node15</title>
<g id="a_edge27_Node000023_Node000015"><a xlink:title=" ">
<path fill="none" stroke="#63b8ff" d="M742.09,-302.5C794.04,-290.1 889.97,-267.19 940.82,-255.04"/>
<polygon fill="#63b8ff" stroke="#63b8ff" points="941.75,-258.42 950.66,-252.69 940.12,-251.61 941.75,-258.42"/>
</a>
</g>
</g>
<!-- Node23&#45;&gt;Node16 -->
<g id="edge28_Node000023_Node000016" class="edge">
<title>Node23&#45;&gt;Node16</title>
<g id="a_edge28_Node000023_Node000016"><a xlink:title=" ">
<path fill="none" stroke="#63b8ff" d="M693.15,-302.37C676.84,-291.82 649.01,-273.84 629.51,-261.23"/>
<polygon fill="#63b8ff" stroke="#63b8ff" points="631.25,-258.19 620.96,-255.7 627.45,-264.07 631.25,-258.19"/>
</a>
</g>
</g>
<!-- Node23&#45;&gt;Node17 -->
<g id="edge33_Node000023_Node000017" class="edge">
<title>Node23&#45;&gt;Node17</title>
<g id="a_edge33_Node000023_Node000017"><a xlink:title=" ">
<path fill="none" stroke="#63b8ff" d="M702.54,-302.08C690.37,-274.61 653.17,-190.67 634.87,-149.41"/>
<polygon fill="#63b8ff" stroke="#63b8ff" points="638.01,-147.85 630.76,-140.12 631.61,-150.68 638.01,-147.85"/>
</a>
</g>
</g>
<!-- Node24 -->
<g id="Node000024" class="node">
<title>Node24</title>
<g id="a_Node000024"><a xlink:href="../../df/d02/ShuntingElement_8h.html" target="_top" xlink:title="Interface abstraite pour tous les éléments de shuntage ferroviaire.">
<polygon fill="white" stroke="#666666" points="894.5,-261 736.5,-261 736.5,-231 894.5,-231 894.5,-261"/>
<text text-anchor="start" x="744.5" y="-249" font-family="Helvetica,sans-Serif" font-size="10.00">Modules/Elements/Shunting</text>
<text text-anchor="middle" x="815.5" y="-238" font-family="Helvetica,sans-Serif" font-size="10.00">Elements/ShuntingElement.h</text>
</a>
</g>
</g>
<!-- Node23&#45;&gt;Node24 -->
<g id="edge29_Node000023_Node000024" class="edge">
<title>Node23&#45;&gt;Node24</title>
<g id="a_edge29_Node000023_Node000024"><a xlink:title=" ">
<path fill="none" stroke="#63b8ff" d="M721.2,-302.37C736.89,-293.16 762.26,-278.26 782.74,-266.24"/>
<polygon fill="#63b8ff" stroke="#63b8ff" points="784.61,-269.2 791.46,-261.12 781.06,-263.16 784.61,-269.2"/>
</a>
</g>
</g>
<!-- Node25 -->
<g id="Node000025" class="node">
<title>Node25</title>
<g id="a_Node000025"><a xlink:href="../../d5/d02/Element_8h.html" target="_top" xlink:title="Classe de base abstraite pour tous les éléments interactifs ferroviaires.">
<polygon fill="white" stroke="#666666" points="895,-195 736,-195 736,-176 895,-176 895,-195"/>
<text text-anchor="middle" x="815.5" y="-183" font-family="Helvetica,sans-Serif" font-size="10.00">Modules/Elements/Element.h</text>
</a>
</g>
</g>
<!-- Node24&#45;&gt;Node25 -->
<g id="edge30_Node000024_Node000025" class="edge">
<title>Node24&#45;&gt;Node25</title>
<g id="a_edge30_Node000024_Node000025"><a xlink:title=" ">
<path fill="none" stroke="#63b8ff" d="M815.5,-230.84C815.5,-223.21 815.5,-213.7 815.5,-205.45"/>
<polygon fill="#63b8ff" stroke="#63b8ff" points="819,-205.27 815.5,-195.27 812,-205.27 819,-205.27"/>
</a>
</g>
</g>
<!-- Node25&#45;&gt;Node11 -->
<g id="edge31_Node000025_Node000011" class="edge">
<title>Node25&#45;&gt;Node11</title>
<g id="a_edge31_Node000025_Node000011"><a xlink:title=" ">
<path fill="none" stroke="#63b8ff" d="M820.17,-175.94C830.76,-156.57 856.73,-109.02 870.9,-83.08"/>
<polygon fill="#63b8ff" stroke="#63b8ff" points="873.97,-84.76 875.69,-74.3 867.83,-81.4 873.97,-84.76"/>
</a>
</g>
</g>
<!-- Node25&#45;&gt;Node17 -->
<g id="edge32_Node000025_Node000017" class="edge">
<title>Node25&#45;&gt;Node17</title>
<g id="a_edge32_Node000025_Node000017"><a xlink:title=" ">
<path fill="none" stroke="#63b8ff" d="M787.73,-175.99C759.64,-167.39 715.45,-153.86 680.13,-143.04"/>
<polygon fill="#63b8ff" stroke="#63b8ff" points="681.01,-139.65 670.42,-140.06 678.96,-146.34 681.01,-139.65"/>
</a>
</g>
</g>
<!-- Node26&#45;&gt;Node23 -->
<g id="edge35_Node000026_Node000023" class="edge">
<title>Node26&#45;&gt;Node23</title>
<g id="a_edge35_Node000026_Node000023"><a xlink:title=" ">
<path fill="none" stroke="#63b8ff" d="M703.94,-362.87C704.36,-354.75 705,-342.31 705.53,-331.89"/>
<polygon fill="#63b8ff" stroke="#63b8ff" points="709.04,-331.83 706.06,-321.67 702.05,-331.47 709.04,-331.83"/>
</a>
</g>
</g>
<!-- Node26&#45;&gt;Node27 -->
<g id="edge36_Node000026_Node000027" class="edge">
<title>Node26&#45;&gt;Node27</title>
<g id="a_edge36_Node000026_Node000027"><a xlink:title=" ">
<path fill="none" stroke="#63b8ff" d="M733.31,-362.99C763.58,-354.35 811.29,-340.74 849.28,-329.9"/>
<polygon fill="#63b8ff" stroke="#63b8ff" points="850.56,-333.17 859.22,-327.06 848.64,-326.44 850.56,-333.17"/>
</a>
</g>
</g>
<!-- Node27&#45;&gt;Node11 -->
<g id="edge37_Node000027_Node000011" class="edge">
<title>Node27&#45;&gt;Node11</title>
<g id="a_edge37_Node000027_Node000011"><a xlink:title=" ">
<path fill="none" stroke="#63b8ff" d="M908.94,-296.75C909.5,-272.05 909.85,-219.76 904.5,-176 900.48,-143.14 891.34,-105.63 885.58,-83.85"/>
<polygon fill="#63b8ff" stroke="#63b8ff" points="888.9,-82.74 882.91,-74 882.14,-84.57 888.9,-82.74"/>
</a>
</g>
</g>
<!-- Node27&#45;&gt;Node15 -->
<g id="edge38_Node000027_Node000015" class="edge">
<title>Node27&#45;&gt;Node15</title>
<g id="a_edge38_Node000027_Node000015"><a xlink:title=" ">
<path fill="none" stroke="#63b8ff" d="M923.15,-296.8C933.44,-286.82 947.22,-273.46 957.91,-263.09"/>
<polygon fill="#63b8ff" stroke="#63b8ff" points="960.64,-265.32 965.38,-255.84 955.76,-260.29 960.64,-265.32"/>
</a>
</g>
</g>
<!-- Node27&#45;&gt;Node24 -->
<g id="edge39_Node000027_Node000024" class="edge">
<title>Node27&#45;&gt;Node24</title>
<g id="a_edge39_Node000027_Node000024"><a xlink:title=" ">
<path fill="none" stroke="#63b8ff" d="M887.86,-296.8C875.1,-288.01 858.52,-276.61 844.46,-266.93"/>
<polygon fill="#63b8ff" stroke="#63b8ff" points="846.3,-263.95 836.08,-261.16 842.34,-269.72 846.3,-263.95"/>
</a>
</g>
</g>
<!-- Node28 -->
<g id="Node000028" class="node">
<title>Node28</title>
<g id="a_Node000028"><a xlink:href="../../d6/d01/CoordinateLatLon_8h.html" target="_top" xlink:title="Représentation d&#39;une coordonnée géographique WGS&#45;84 (latitude, longitude).">
<polygon fill="white" stroke="#666666" points="1192,-261 1055,-261 1055,-231 1192,-231 1192,-261"/>
<text text-anchor="start" x="1063" y="-249" font-family="Helvetica,sans-Serif" font-size="10.00">Engine/Core/Coordinates</text>
<text text-anchor="middle" x="1123.5" y="-238" font-family="Helvetica,sans-Serif" font-size="10.00">/CoordinateLatLon.h</text>
</a>
</g>
</g>
<!-- Node27&#45;&gt;Node28 -->
<g id="edge40_Node000027_Node000028" class="edge">
<title>Node27&#45;&gt;Node28</title>
<g id="a_edge40_Node000027_Node000028"><a xlink:title=" ">
<path fill="none" stroke="#63b8ff" d="M955.68,-296.95C988.31,-287.24 1031.9,-274.27 1066.47,-263.98"/>
<polygon fill="#63b8ff" stroke="#63b8ff" points="1067.84,-267.22 1076.43,-261.01 1065.84,-260.51 1067.84,-267.22"/>
</a>
</g>
</g>
<!-- Node29 -->
<g id="Node000029" class="node">
<title>Node29</title>
<g id="a_Node000029"><a xlink:href="../../db/d03/CoordinateXY_8h.html" target="_top" xlink:title="Représentation d&#39;une coordonnée plane en mètres (système métrique UTM).">
<polygon fill="white" stroke="#666666" points="1347,-261 1210,-261 1210,-231 1347,-231 1347,-261"/>
<text text-anchor="start" x="1218" y="-249" font-family="Helvetica,sans-Serif" font-size="10.00">Engine/Core/Coordinates</text>
<text text-anchor="middle" x="1278.5" y="-238" font-family="Helvetica,sans-Serif" font-size="10.00">/CoordinateXY.h</text>
</a>
</g>
</g>
<!-- Node27&#45;&gt;Node29 -->
<g id="edge41_Node000027_Node000029" class="edge">
<title>Node27&#45;&gt;Node29</title>
<g id="a_edge41_Node000027_Node000029"><a xlink:title=" ">
<path fill="none" stroke="#63b8ff" d="M984.73,-298.22C1041.46,-288.66 1121.08,-275.13 1199.59,-261.33"/>
<polygon fill="#63b8ff" stroke="#63b8ff" points="1200.42,-264.74 1209.66,-259.55 1199.2,-257.84 1200.42,-264.74"/>
</a>
</g>
</g>
<!-- Node30&#45;&gt;Node23 -->
<g id="edge43_Node000030_Node000023" class="edge">
<title>Node30&#45;&gt;Node23</title>
<g id="a_edge43_Node000030_Node000023"><a xlink:title=" ">
<path fill="none" stroke="#63b8ff" d="M1078.93,-364.39C995.4,-352.86 831.83,-330.29 752.22,-319.31"/>
<polygon fill="#63b8ff" stroke="#63b8ff" points="752.4,-315.8 742.01,-317.9 751.44,-322.73 752.4,-315.8"/>
</a>
</g>
</g>
<!-- Node30&#45;&gt;Node31 -->
<g id="edge44_Node000030_Node000031" class="edge">
<title>Node30&#45;&gt;Node31</title>
<g id="a_edge44_Node000030_Node000031"><a xlink:title=" ">
<path fill="none" stroke="#63b8ff" d="M1149.55,-362.99C1168.15,-354.68 1197.06,-341.78 1220.84,-331.16"/>
<polygon fill="#63b8ff" stroke="#63b8ff" points="1222.3,-334.34 1230.01,-327.06 1219.45,-327.95 1222.3,-334.34"/>
</a>
</g>
</g>
<!-- Node31&#45;&gt;Node11 -->
<g id="edge48_Node000031_Node000011" class="edge">
<title>Node31&#45;&gt;Node11</title>
<g id="a_edge48_Node000031_Node000011"><a xlink:title=" ">
<path fill="none" stroke="#63b8ff" d="M1311.11,-296.82C1328.59,-289.18 1346.39,-277.75 1356.5,-261 1363.39,-249.59 1364.06,-241.99 1356.5,-231 1252.98,-80.52 1001.75,-65.41 912.56,-64.95"/>
<polygon fill="#63b8ff" stroke="#63b8ff" points="912.51,-61.45 902.51,-64.96 912.52,-68.45 912.51,-61.45"/>
</a>
</g>
</g>
<!-- Node31&#45;&gt;Node15 -->
<g id="edge49_Node000031_Node000015" class="edge">
<title>Node31&#45;&gt;Node15</title>
<g id="a_edge49_Node000031_Node000015"><a xlink:title=" ">
<path fill="none" stroke="#63b8ff" d="M1198.52,-296.95C1139.92,-283.89 1054.83,-264.91 1008.19,-254.51"/>
<polygon fill="#63b8ff" stroke="#63b8ff" points="1008.82,-251.07 998.3,-252.31 1007.3,-257.9 1008.82,-251.07"/>
</a>
</g>
</g>
<!-- Node31&#45;&gt;Node22 -->
<g id="edge47_Node000031_Node000022" class="edge">
<title>Node31&#45;&gt;Node22</title>
<g id="a_edge47_Node000031_Node000022"><a xlink:title=" ">
<path fill="none" stroke="#63b8ff" d="M1337.8,-307.28C1407.97,-302.07 1504.63,-289.76 1528.5,-261 1606.15,-167.45 1379.74,-98.33 1286.57,-74.53"/>
<polygon fill="#63b8ff" stroke="#63b8ff" points="1287.23,-71.09 1276.67,-72.04 1285.52,-77.87 1287.23,-71.09"/>
</a>
</g>
</g>
<!-- Node31&#45;&gt;Node24 -->
<g id="edge52_Node000031_Node000024" class="edge">
<title>Node31&#45;&gt;Node24</title>
<g id="a_edge52_Node000031_Node000024"><a xlink:title=" ">
<path fill="none" stroke="#63b8ff" d="M1185.34,-300.07C1107.6,-288.92 987,-271.61 904.81,-259.82"/>
<polygon fill="#63b8ff" stroke="#63b8ff" points="905.13,-256.33 894.73,-258.37 904.13,-263.25 905.13,-256.33"/>
</a>
</g>
</g>
<!-- Node31&#45;&gt;Node28 -->
<g id="edge50_Node000031_Node000028" class="edge">
<title>Node31&#45;&gt;Node28</title>
<g id="a_edge50_Node000031_Node000028"><a xlink:title=" ">
<path fill="none" stroke="#63b8ff" d="M1231.22,-296.95C1211.17,-287.66 1184.69,-275.38 1162.99,-265.32"/>
<polygon fill="#63b8ff" stroke="#63b8ff" points="1164.26,-262.04 1153.71,-261.01 1161.31,-268.39 1164.26,-262.04"/>
</a>
</g>
</g>
<!-- Node31&#45;&gt;Node29 -->
<g id="edge51_Node000031_Node000029" class="edge">
<title>Node31&#45;&gt;Node29</title>
<g id="a_edge51_Node000031_Node000029"><a xlink:title=" ">
<path fill="none" stroke="#63b8ff" d="M1265.27,-296.8C1267.3,-289.17 1269.85,-279.57 1272.17,-270.84"/>
<polygon fill="#63b8ff" stroke="#63b8ff" points="1275.55,-271.73 1274.74,-261.16 1268.79,-269.93 1275.55,-271.73"/>
</a>
</g>
</g>
<!-- Node32 -->
<g id="Node000032" class="node">
<title>Node32</title>
<g id="a_Node000032"><a xlink:title=" ">
<polygon fill="#e0e0e0" stroke="#999999" points="1445.5,-255.5 1403.5,-255.5 1403.5,-236.5 1445.5,-236.5 1445.5,-255.5"/>
<text text-anchor="middle" x="1424.5" y="-243.5" font-family="Helvetica,sans-Serif" font-size="10.00">array</text>
</a>
</g>
</g>
<!-- Node31&#45;&gt;Node32 -->
<g id="edge45_Node000031_Node000032" class="edge">
<title>Node31&#45;&gt;Node32</title>
<g id="a_edge45_Node000031_Node000032"><a xlink:title=" ">
<path fill="none" stroke="#63b8ff" d="M1297.67,-296.96C1323.32,-286.98 1358.55,-273.23 1389.5,-261 1390.91,-260.44 1392.35,-259.87 1393.8,-259.3"/>
<polygon fill="#63b8ff" stroke="#63b8ff" points="1395.42,-262.42 1403.41,-255.47 1392.83,-255.92 1395.42,-262.42"/>
</a>
</g>
</g>
<!-- Node33 -->
<g id="Node000033" class="node">
<title>Node33</title>
<g id="a_Node000033"><a xlink:title=" ">
<polygon fill="#e0e0e0" stroke="#999999" points="1519.5,-255.5 1463.5,-255.5 1463.5,-236.5 1519.5,-236.5 1519.5,-255.5"/>
<text text-anchor="middle" x="1491.5" y="-243.5" font-family="Helvetica,sans-Serif" font-size="10.00">optional</text>
</a>
</g>
</g>
<!-- Node31&#45;&gt;Node33 -->
<g id="edge46_Node000031_Node000033" class="edge">
<title>Node31&#45;&gt;Node33</title>
<g id="a_edge46_Node000031_Node000033"><a xlink:title=" ">
<path fill="none" stroke="#63b8ff" d="M1322.83,-296.91C1361,-287.7 1410.96,-274.83 1454.5,-261 1456.41,-260.39 1458.37,-259.74 1460.34,-259.06"/>
<polygon fill="#63b8ff" stroke="#63b8ff" points="1461.9,-262.22 1470.12,-255.54 1459.52,-255.64 1461.9,-262.22"/>
</a>
</g>
</g>
</g>
</svg>
