<?xml version="1.0" standalone="no"?>
<!DOCTYPE svg PUBLIC "-//W3C//DTD SVG 1.0//EN" "http://www.w3.org/TR/2001/REC-SVG-20010904/DTD/svg10.dtd">
<svg width="680" viewBox="0 0 680 660" xmlns="http://www.w3.org/2000/svg" style="font-family: Arial, sans-serif;" xmlns:inkscape ="http://www.inkscape.org/namespaces/inkscape" >
<desc>CopyRight:SVG Design Editor;
configurationStart;Unit=smInches;Dpi=96;Division=4;Grid=True;Zoom=2,5;CanvasW=680;CanvasH=660;configurationEnd;</desc>
<defs xmlns:inkscape ="http://www.inkscape.org/namespaces/inkscape" >
<marker id="0" viewBox="0 0 680 660" refX="8" refY="5" markerWidth="6" markerHeight="6" orient="auto-start-reverse" xmlns:inkscape ="http://www.inkscape.org/namespaces/inkscape" >
<path d="M2 1L8 5L2 9" fill="none" stroke="#9C9A92" stroke-width="1.5" stroke-linecap="round" stroke-linejoin="round" xmlns:inkscape ="http://www.inkscape.org/namespaces/inkscape" >
</path>
</marker>
</defs>
 Entry point  Engine/Core  Engine/HMI  Modules  GeoParser : x=36 w=184  Pipeline sub-block  SRP label  Elements : x=228 w=196  PCC : x=432 w=208  Coordinates  Arrow GeoParser → TopologyRepository <g isVisble = "True" inkscape:label = "architecture Default Layer" inkscape:groupmode = "layer" ><rect style="fill:#2C2C2A;stroke:none; stroke-width:1" x = "0" y = "0" width = "7,083333in" height = "6,75in" transform = "matrix(1,0,0,1,0,0)" vector-effect="non-scaling-stroke" pen = "1,1" rx = "8" />
<rect style="fill:#444441;stroke:#B4B2A9; stroke-width:0.5" x = "240" y = "16" width = "2,083333in" height = "0,375in" transform = "matrix(1,0,0,1,0,0)" vector-effect="non-scaling-stroke" pen = "1,1" rx = "8" />
<text fill="#D3D1C7" font-family="Microsoft Sans Serif" font-size="9.75pt" text-anchor="middle" x="340" y="34" transform = "matrix(1,0,0,1,0,0)" vector-effect="non-scaling-stroke" pen = "1,1" dominant-baseline = "central" >SimulateurFerroviaire.cpp</text>
<line style="fill:Black;stroke:#9C9A92; stroke-width:1.5" x1 = "340" y1 = "52" x2 = "340" y2 = "72" transform = "matrix(1,0,0,1,0,0)" vector-effect="non-scaling-stroke" pen = "1,1" marker-end = "url(#arr)" />
<rect style="fill:#3C3489;stroke:#AFA9EC; stroke-width:0.5" x = "20" y = "72" width = "6,666667in" height = "1,125in" transform = "matrix(1,0,0,1,0,0)" vector-effect="non-scaling-stroke" pen = "1,1" rx = "12" />
<text fill="#AFA9EC" font-family="Microsoft Sans Serif" font-size="9pt" x="36" y="90" transform = "matrix(1,0,0,1,0,0)" vector-effect="non-scaling-stroke" pen = "1,1" >Engine / Core</text>
<rect style="fill:#3C3489;stroke:#AFA9EC; stroke-width:0.5" x = "36" y = "100" width = "1,145833in" height = "0,4583333in" transform = "matrix(1,0,0,1,0,0)" vector-effect="non-scaling-stroke" pen = "1,1" rx = "6" />
<text fill="#CECBF6" font-family="Microsoft Sans Serif" text-decoration="underline" font-size="9.75pt" text-anchor="middle" x="91" y="118" transform = "matrix(1,0,0,1,0,0)" vector-effect="non-scaling-stroke" pen = "1,1" dominant-baseline = "central" >Application</text>
<text fill="#AFA9EC" font-family="Microsoft Sans Serif" font-size="8.25pt" text-anchor="middle" x="91" y="134" transform = "matrix(1,0,0,1,0,0)" vector-effect="non-scaling-stroke" pen = "1,1" dominant-baseline = "central" >Win32 lifecycle</text>
<rect style="fill:#3C3489;stroke:#AFA9EC; stroke-width:0.5" x = "158" y = "100" width = "0,8333333in" height = "0,4583333in" transform = "matrix(1,0,0,1,0,0)" vector-effect="non-scaling-stroke" pen = "1,1" rx = "6" />
<text fill="#CECBF6" font-family="Microsoft Sans Serif" text-decoration="underline" font-size="9.75pt" text-anchor="middle" x="198" y="118" transform = "matrix(1,0,0,1,0,0)" vector-effect="non-scaling-stroke" pen = "1,1" dominant-baseline = "central" >Logger</text>
<text fill="#AFA9EC" font-family="Microsoft Sans Serif" font-size="8.25pt" text-anchor="middle" x="198" y="134" transform = "matrix(1,0,0,1,0,0)" vector-effect="non-scaling-stroke" pen = "1,1" dominant-baseline = "central" >5 levels</text>
<rect style="fill:#085041;stroke:#5DCAA5; stroke-width:0.5" x = "250" y = "100" width = "1,75in" height = "0,4583333in" transform = "matrix(1,0,0,1,0,0)" vector-effect="non-scaling-stroke" pen = "1,1" rx = "6" />
<text fill="#9FE1CB" font-family="Microsoft Sans Serif" text-decoration="underline" font-size="9.75pt" text-anchor="middle" x="334" y="118" transform = "matrix(1,0,0,1,0,0)" vector-effect="non-scaling-stroke" pen = "1,1" dominant-baseline = "central" >TopologyRepository</text>
<text fill="#5DCAA5" font-family="Microsoft Sans Serif" font-size="8.25pt" text-anchor="middle" x="334" y="134" transform = "matrix(1,0,0,1,0,0)" vector-effect="non-scaling-stroke" pen = "1,1" dominant-baseline = "central" >Singleton — TopologyData</text>
<rect style="fill:#085041;stroke:#5DCAA5; stroke-width:0.5" x = "430" y = "100" width = "1,5625in" height = "0,4583333in" transform = "matrix(1,0,0,1,0,0)" vector-effect="non-scaling-stroke" pen = "1,1" rx = "6" />
<text fill="#9FE1CB" font-family="Microsoft Sans Serif" text-decoration="underline" font-size="9.75pt" text-anchor="middle" x="505" y="118" transform = "matrix(1,0,0,1,0,0)" vector-effect="non-scaling-stroke" pen = "1,1" dominant-baseline = "central" >TopologyRenderer</text>
<text fill="#5DCAA5" font-family="Microsoft Sans Serif" font-size="8.25pt" text-anchor="middle" x="505" y="134" transform = "matrix(1,0,0,1,0,0)" vector-effect="non-scaling-stroke" pen = "1,1" dominant-baseline = "central" >GeoJSON → JS scripts</text>
<line style="fill:Black;stroke:#9C9A92; stroke-width:1.5" x1 = "340" y1 = "180" x2 = "340" y2 = "200" transform = "matrix(1,0,0,1,0,0)" vector-effect="non-scaling-stroke" pen = "1,1" marker-end = "url(#arr)" />
<rect style="fill:#3C3489;stroke:#AFA9EC; stroke-width:0.5" x = "20" y = "200" width = "6,666667in" height = "1,145833in" transform = "matrix(1,0,0,1,0,0)" vector-effect="non-scaling-stroke" pen = "1,1" rx = "12" />
<text fill="#AFA9EC" font-family="Microsoft Sans Serif" font-size="9pt" x="36" y="218" transform = "matrix(1,0,0,1,0,0)" vector-effect="non-scaling-stroke" pen = "1,1" >Engine / HMI</text>
<rect style="fill:#3C3489;stroke:#AFA9EC; stroke-width:0.5" x = "36" y = "226" width = "1,229167in" height = "0,5833333in" transform = "matrix(1,0,0,1,0,0)" vector-effect="non-scaling-stroke" pen = "1,1" rx = "6" />
<text fill="#CECBF6" font-family="Microsoft Sans Serif" text-decoration="underline" font-size="9.75pt" text-anchor="middle" x="95" y="248" transform = "matrix(1,0,0,1,0,0)" vector-effect="non-scaling-stroke" pen = "1,1" dominant-baseline = "central" >MainWindow</text>
<text fill="#AFA9EC" font-family="Microsoft Sans Serif" font-size="8.25pt" text-anchor="middle" x="95" y="266" transform = "matrix(1,0,0,1,0,0)" vector-effect="non-scaling-stroke" pen = "1,1" dominant-baseline = "central" >Msg routing</text>
<rect style="fill:#444441;stroke:#B4B2A9; stroke-width:0.5" x = "166" y = "226" width = "1,125in" height = "0,5833333in" transform = "matrix(1,0,0,1,0,0)" vector-effect="non-scaling-stroke" pen = "1,1" rx = "6" />
<text fill="#D3D1C7" font-family="Microsoft Sans Serif" text-decoration="underline" font-size="9.75pt" text-anchor="middle" x="220" y="248" transform = "matrix(1,0,0,1,0,0)" vector-effect="non-scaling-stroke" pen = "1,1" dominant-baseline = "central" >ProgressBar</text>
<text fill="#B4B2A9" font-family="Microsoft Sans Serif" font-size="8.25pt" text-anchor="middle" x="220" y="266" transform = "matrix(1,0,0,1,0,0)" vector-effect="non-scaling-stroke" pen = "1,1" dominant-baseline = "central" >PROGRESS_CLASS</text>
<rect style="fill:#0C447C;stroke:#85B7EB; stroke-width:0.5" x = "286" y = "226" width = "1,333333in" height = "0,5833333in" transform = "matrix(1,0,0,1,0,0)" vector-effect="non-scaling-stroke" pen = "1,1" rx = "6" />
<text fill="#B5D4F4" font-family="Microsoft Sans Serif" text-decoration="underline" font-size="9.75pt" text-anchor="middle" x="350" y="248" transform = "matrix(1,0,0,1,0,0)" vector-effect="non-scaling-stroke" pen = "1,1" dominant-baseline = "central" >WebViewPanel</text>
<text fill="#85B7EB" font-family="Microsoft Sans Serif" font-size="8.25pt" text-anchor="middle" x="350" y="266" transform = "matrix(1,0,0,1,0,0)" vector-effect="non-scaling-stroke" pen = "1,1" dominant-baseline = "central" >Leaflet / WebView2</text>
<rect style="fill:#444441;stroke:#B4B2A9; stroke-width:0.5" x = "426" y = "226" width = "0,75in" height = "0,5833333in" transform = "matrix(1,0,0,1,0,0)" vector-effect="non-scaling-stroke" pen = "1,1" rx = "6" />
<text fill="#D3D1C7" font-family="Microsoft Sans Serif" text-decoration="underline" font-size="9.75pt" text-anchor="middle" x="462" y="248" transform = "matrix(1,0,0,1,0,0)" vector-effect="non-scaling-stroke" pen = "1,1" dominant-baseline = "central" >Dialogs</text>
<text fill="#B4B2A9" font-family="Microsoft Sans Serif" font-size="8.25pt" text-anchor="middle" x="462" y="266" transform = "matrix(1,0,0,1,0,0)" vector-effect="non-scaling-stroke" pen = "1,1" dominant-baseline = "central" >About / File</text>
<rect style="fill:#633806;stroke:#EF9F27; stroke-width:0.5" x = "510" y = "226" width = "1,354167in" height = "0,5833333in" transform = "matrix(1,0,0,1,0,0)" vector-effect="non-scaling-stroke" pen = "1,1" rx = "6" />
<text fill="#FAC775" font-family="Microsoft Sans Serif" text-decoration="underline" font-size="9.75pt" text-anchor="middle" x="575" y="244" transform = "matrix(1,0,0,1,0,0)" vector-effect="non-scaling-stroke" pen = "1,1" dominant-baseline = "central" >PCCPanel</text>
<text fill="#EF9F27" font-family="Microsoft Sans Serif" font-size="8.25pt" text-anchor="middle" x="575" y="260" transform = "matrix(1,0,0,1,0,0)" vector-effect="non-scaling-stroke" pen = "1,1" dominant-baseline = "central" >WS_CHILD toggle</text>
<text fill="#EF9F27" font-family="Microsoft Sans Serif" font-size="8.25pt" text-anchor="middle" x="575" y="275" transform = "matrix(1,0,0,1,0,0)" vector-effect="non-scaling-stroke" pen = "1,1" dominant-baseline = "central" >+ TCORenderer</text>
<line style="fill:Black;stroke:#9C9A92; stroke-width:1.5" x1 = "340" y1 = "310" x2 = "340" y2 = "330" transform = "matrix(1,0,0,1,0,0)" vector-effect="non-scaling-stroke" pen = "1,1" marker-end = "url(#arr)" />
<rect style="fill:#444441;stroke:#B4B2A9; stroke-width:0.5" x = "20" y = "330" width = "6,666667in" height = "3,1875in" transform = "matrix(1,0,0,1,0,0)" vector-effect="non-scaling-stroke" pen = "1,1" rx = "12" />
<text fill="#B4B2A9" font-family="Microsoft Sans Serif" font-size="9pt" x="36" y="348" transform = "matrix(1,0,0,1,0,0)" vector-effect="non-scaling-stroke" pen = "1,1" >Modules</text>
<rect style="fill:#0C447C;stroke:#85B7EB; stroke-width:0.5" x = "36" y = "356" width = "1,916667in" height = "2,791667in" transform = "matrix(1,0,0,1,0,0)" vector-effect="non-scaling-stroke" pen = "1,1" rx = "8" />
<text fill="#85B7EB" font-family="Microsoft Sans Serif" text-decoration="underline" font-size="9.75pt" x="52" y="374" transform = "matrix(1,0,0,1,0,0)" vector-effect="non-scaling-stroke" pen = "1,1" >GeoParser</text>
<text fill="#85B7EB" font-family="Microsoft Sans Serif" font-size="8.25pt" x="52" y="392" transform = "matrix(1,0,0,1,0,0)" vector-effect="non-scaling-stroke" pen = "1,1" >GeoParser (async)</text>
<text fill="#85B7EB" font-family="Microsoft Sans Serif" font-size="8.25pt" x="52" y="408" transform = "matrix(1,0,0,1,0,0)" vector-effect="non-scaling-stroke" pen = "1,1" >PipelineContext</text>
<rect style="fill:#092D54;stroke:#5090C8; stroke-width:0.5" x = "46" y = "418" width = "1,708333in" height = "2,041667in" transform = "matrix(1,0,0,1,0,0)" vector-effect="non-scaling-stroke" pen = "1,1" rx = "6" />
<text fill="#5090C8" font-family="Microsoft Sans Serif" font-size="8.25pt" x="58" y="433" transform = "matrix(1,0,0,1,0,0)" vector-effect="non-scaling-stroke" pen = "1,1" >Pipeline/</text>
<text fill="#85B7EB" font-family="Microsoft Sans Serif" font-size="7.5pt" x="58" y="450" transform = "matrix(1,0,0,1,0,0)" vector-effect="non-scaling-stroke" pen = "1,1" >Ph1 · GeoLoader</text>
<text fill="#85B7EB" font-family="Microsoft Sans Serif" font-size="7.5pt" x="58" y="466" transform = "matrix(1,0,0,1,0,0)" vector-effect="non-scaling-stroke" pen = "1,1" >Ph2 · GeometricIntersector</text>
<text fill="#85B7EB" font-family="Microsoft Sans Serif" font-size="7.5pt" x="58" y="482" transform = "matrix(1,0,0,1,0,0)" vector-effect="non-scaling-stroke" pen = "1,1" >Ph3 · NetworkSplitter</text>
<text fill="#85B7EB" font-family="Microsoft Sans Serif" font-size="7.5pt" x="58" y="498" transform = "matrix(1,0,0,1,0,0)" vector-effect="non-scaling-stroke" pen = "1,1" >Ph4 · TopologyBuilder</text>
<text fill="#85B7EB" font-family="Microsoft Sans Serif" font-size="7.5pt" x="58" y="514" transform = "matrix(1,0,0,1,0,0)" vector-effect="non-scaling-stroke" pen = "1,1" >Ph5 · SwitchClassifier</text>
<text fill="#85B7EB" font-family="Microsoft Sans Serif" font-size="7.5pt" x="58" y="530" transform = "matrix(1,0,0,1,0,0)" vector-effect="non-scaling-stroke" pen = "1,1" >Ph6 · BlockExtractor</text>
<text fill="#85B7EB" font-family="Microsoft Sans Serif" font-size="7.5pt" x="58" y="546" transform = "matrix(1,0,0,1,0,0)" vector-effect="non-scaling-stroke" pen = "1,1" >Ph7 · SwitchOrientator</text>
<text fill="#85B7EB" font-family="Microsoft Sans Serif" font-size="7.5pt" x="58" y="562" transform = "matrix(1,0,0,1,0,0)" vector-effect="non-scaling-stroke" pen = "1,1" >Ph8 · DoubleSwitchDetector</text>
<text fill="#85B7EB" font-family="Microsoft Sans Serif" font-size="7.5pt" x="58" y="578" transform = "matrix(1,0,0,1,0,0)" vector-effect="non-scaling-stroke" pen = "1,1" >Ph9 · RepositoryTransfer</text>
<text fill="#5090C8" font-family="Microsoft Sans Serif" font-size="6.75pt" text-anchor="middle" x="128" y="607" transform = "matrix(1,0,0,1,0,0)" vector-effect="non-scaling-stroke" pen = "1,1" >1 phase = 1 responsabilité</text>
<rect style="fill:#712B13;stroke:#F0997B; stroke-width:0.5" x = "228" y = "356" width = "2,041667in" height = "1,875in" transform = "matrix(1,0,0,1,0,4,0,4)" vector-effect="non-scaling-stroke" pen = "1,1" rx = "8" />
<text fill="#F0997B" font-family="Microsoft Sans Serif" text-decoration="underline" font-size="9.75pt" x="244" y="374" transform = "matrix(1,0,0,1,0,0)" vector-effect="non-scaling-stroke" pen = "1,1" >Elements</text>
<text fill="#F0997B" font-family="Microsoft Sans Serif" font-size="8.25pt" x="244" y="396" transform = "matrix(1,0,0,1,0,0)" vector-effect="non-scaling-stroke" pen = "1,1" >Element (abstract)</text>
<text fill="#F0997B" font-family="Microsoft Sans Serif" font-size="8.25pt" x="244" y="414" transform = "matrix(1,0,0,1,0,0)" vector-effect="non-scaling-stroke" pen = "1,1" >ShuntingElement (abstract)</text>
<text fill="#F0997B" font-family="Microsoft Sans Serif" font-size="8.25pt" x="244" y="432" transform = "matrix(1,0,0,1,0,0)" vector-effect="non-scaling-stroke" pen = "1,1" >StraightBlock</text>
<text fill="#F0997B" font-family="Microsoft Sans Serif" font-size="8.25pt" x="244" y="450" transform = "matrix(1,0,0,1,0,0)" vector-effect="non-scaling-stroke" pen = "1,1" >SwitchBlock</text>
<rect style="fill:#633806;stroke:#EF9F27; stroke-width:0.5" x = "432" y = "356" width = "2,166667in" height = "1,875in" transform = "matrix(1,0,0,1,0,0)" vector-effect="non-scaling-stroke" pen = "1,1" rx = "8" />
<text fill="#FAC775" font-family="Microsoft Sans Serif" text-decoration="underline" font-size="9.75pt" x="448" y="374" transform = "matrix(1,0,0,1,0,0)" vector-effect="non-scaling-stroke" pen = "1,1" >PCC</text>
<text fill="#EF9F27" font-family="Microsoft Sans Serif" font-size="8.25pt" x="448" y="396" transform = "matrix(1,0,0,1,0,0)" vector-effect="non-scaling-stroke" pen = "1,1" >PCCNode (abstract)</text>
<text fill="#EF9F27" font-family="Microsoft Sans Serif" font-size="8.25pt" x="448" y="414" transform = "matrix(1,0,0,1,0,0)" vector-effect="non-scaling-stroke" pen = "1,1" >PCCStraightNode</text>
<text fill="#EF9F27" font-family="Microsoft Sans Serif" font-size="8.25pt" x="448" y="432" transform = "matrix(1,0,0,1,0,0)" vector-effect="non-scaling-stroke" pen = "1,1" >PCCSwitchNode</text>
<text fill="#EF9F27" font-family="Microsoft Sans Serif" font-size="8.25pt" x="448" y="450" transform = "matrix(1,0,0,1,0,0)" vector-effect="non-scaling-stroke" pen = "1,1" >PCCEdge</text>
<text fill="#EF9F27" font-family="Microsoft Sans Serif" font-size="8.25pt" x="448" y="468" transform = "matrix(1,0,0,1,0,0)" vector-effect="non-scaling-stroke" pen = "1,1" >PCCGraph</text>
<text fill="#EF9F27" font-family="Microsoft Sans Serif" font-size="8.25pt" x="448" y="486" transform = "matrix(1,0,0,1,0,0)" vector-effect="non-scaling-stroke" pen = "1,1" >PCCGraphBuilder</text>
<text fill="#EF9F27" font-family="Microsoft Sans Serif" font-size="8.25pt" x="448" y="504" transform = "matrix(1,0,0,1,0,0)" vector-effect="non-scaling-stroke" pen = "1,1" >PCCLayout</text>
<rect style="fill:#009688;stroke:#B4B2A9; stroke-width:0.5" x = "228" y = "548" width = "2,041667in" height = "0,7916667in" transform = "matrix(1,0,0,1,0,4,-0,8)" vector-effect="non-scaling-stroke" pen = "1,1" rx = "8" />
<text fill="#B4B2A9" font-family="Microsoft Sans Serif" text-decoration="underline" font-size="9.25pt" text-anchor="middle" x="330,0029" y="565" transform = "matrix(1,0,0,1,-61,2,-3,6)" vector-effect="non-scaling-stroke" pen = "1,1" dominant-baseline = "central" >Coordonnées</text>
<text fill="#B4B2A9" font-family="Microsoft Sans Serif" font-size="7.5pt" text-anchor="middle" x="318,605" y="591" transform = "matrix(1,0,0,1,-39,2,8,4)" vector-effect="non-scaling-stroke" pen = "1,1" dominant-baseline = "central" > CoordinateXY (UTM)</text>
<line style="fill:Black;stroke:#9C9A92; stroke-width:1" x1 = "220" y1 = "144" x2 = "250" y2 = "144" transform = "matrix(1,0,0,1,0,0)" vector-effect="non-scaling-stroke" pen = "1,1" stroke-dasharray = "4 3" marker-end = "url(#arr)" />
<g id="group_1">
<text fill="#B4B2A9" font-family="Microsoft Sans Serif" font-size="7.5pt" text-anchor="middle" x="275,3066" y="588" transform = "matrix(1,0,0,1,-25,6,-2)" vector-effect="non-scaling-stroke" pen = "1,1" dominant-baseline = "central" >CoordinateLatLon</text>
</g>
</g>
</svg>
