<?xml version="1.0" encoding="UTF-8" standalone="no"?>
<!DOCTYPE svg PUBLIC "-//W3C//DTD SVG 1.1//EN"
 "http://www.w3.org/Graphics/SVG/1.1/DTD/svg11.dtd">
<!-- Generated by graphviz version 2.43.0 (0)
 -->
<!-- Title: SplitNetwork Pages: 1 -->
<svg width="320pt" height="587pt"
 viewBox="0.00 0.00 319.50 587.00" xmlns="http://www.w3.org/2000/svg" xmlns:xlink="http://www.w3.org/1999/xlink">
<g id="graph0" class="graph" transform="scale(1 1) rotate(0) translate(4 583)">
<title>SplitNetwork</title>
<!-- Node1 -->
<g id="Node000001" class="node">
<title>Node1</title>
<g id="a_Node000001"><a xlink:title="Résultat de Phase3_NetworkSplitter — ensemble des segments atomiques.">
<polygon fill="#999999" stroke="transparent" points="190,-79 116,-79 116,0 190,0 190,-79"/>
<text text-anchor="start" x="121" y="-66.5" font-family="Helvetica,sans-Serif" font-size="10.00">SplitNetwork</text>
<text text-anchor="start" x="151" y="-51.5" font-family="Helvetica,sans-Serif" font-size="10.00"> </text>
<text text-anchor="start" x="123" y="-36.5" font-family="Helvetica,sans-Serif" font-size="10.00">+</text>
<text text-anchor="start" x="139" y="-36.5" font-family="Helvetica,sans-Serif" font-size="10.00">clear()</text>
<text text-anchor="start" x="123" y="-21.5" font-family="Helvetica,sans-Serif" font-size="10.00">+</text>
<text text-anchor="start" x="139" y="-21.5" font-family="Helvetica,sans-Serif" font-size="10.00">size()</text>
<text text-anchor="start" x="123" y="-6.5" font-family="Helvetica,sans-Serif" font-size="10.00">+</text>
<text text-anchor="start" x="139" y="-6.5" font-family="Helvetica,sans-Serif" font-size="10.00">empty()</text>
<polygon fill="#666666" stroke="#666666" points="116,-61.5 116,-61.5 190,-61.5 190,-61.5 116,-61.5"/>
<polygon fill="#666666" stroke="#666666" points="116,-46.5 116,-46.5 190,-46.5 190,-46.5 116,-46.5"/>
<polygon fill="none" stroke="#666666" points="116,0 116,-79 190,-79 190,0 116,0"/>
</a>
</g>
</g>
<!-- Node2 -->
<g id="Node000002" class="node">
<title>Node2</title>
<g id="a_Node000002"><a xlink:title=" ">
<polygon fill="white" stroke="transparent" points="234.5,-175 71.5,-175 71.5,-126 234.5,-126 234.5,-175"/>
<text text-anchor="start" x="77" y="-162.5" font-family="Helvetica,sans-Serif" font-size="10.00">std::vector&lt; AtomicSegment &gt;</text>
<text text-anchor="start" x="151.5" y="-147.5" font-family="Helvetica,sans-Serif" font-size="10.00"> </text>
<text text-anchor="start" x="151.5" y="-132.5" font-family="Helvetica,sans-Serif" font-size="10.00"> </text>
<polygon fill="#666666" stroke="#666666" points="72,-157.5 72,-157.5 235,-157.5 235,-157.5 72,-157.5"/>
<polygon fill="#666666" stroke="#666666" points="72,-142.5 72,-142.5 235,-142.5 235,-142.5 72,-142.5"/>
<polygon fill="none" stroke="#666666" points="71.5,-126 71.5,-175 234.5,-175 234.5,-126 71.5,-126"/>
</a>
</g>
</g>
<!-- Node2&#45;&gt;Node1 -->
<g id="edge1_Node000001_Node000002" class="edge">
<title>Node2&#45;&gt;Node1</title>
<g id="a_edge1_Node000001_Node000002"><a xlink:title=" ">
<path fill="none" stroke="#63b8ff" d="M153,-125.85C153,-115.72 153,-103.47 153,-91.45"/>
<polygon fill="none" stroke="#63b8ff" points="153,-91.1 149,-85.1 153,-79.1 157,-85.1 153,-91.1"/>
</a>
</g>
<text text-anchor="middle" x="183" y="-100" font-family="Helvetica,sans-Serif" font-size="10.00" fill="grey"> +segments</text>
</g>
<!-- Node3 -->
<g id="Node000003" class="node">
<title>Node3</title>
<g id="a_Node000003"><a xlink:href="../../de/d01/structAtomicSegment.html" target="_top" xlink:title="Segment atomique entre deux nœuds topologiques potentiels.">
<polygon fill="white" stroke="transparent" points="212.5,-301 93.5,-301 93.5,-222 212.5,-222 212.5,-301"/>
<text text-anchor="start" x="114" y="-288.5" font-family="Helvetica,sans-Serif" font-size="10.00">AtomicSegment</text>
<text text-anchor="start" x="98" y="-273.5" font-family="Helvetica,sans-Serif" font-size="10.00">+</text>
<text text-anchor="start" x="111" y="-273.5" font-family="Helvetica,sans-Serif" font-size="10.00">parentPolylineIndex</text>
<text text-anchor="start" x="98" y="-258.5" font-family="Helvetica,sans-Serif" font-size="10.00">+</text>
<text text-anchor="start" x="111" y="-258.5" font-family="Helvetica,sans-Serif" font-size="10.00">lengthUTM()</text>
<text text-anchor="start" x="98" y="-243.5" font-family="Helvetica,sans-Serif" font-size="10.00">+</text>
<text text-anchor="start" x="111" y="-243.5" font-family="Helvetica,sans-Serif" font-size="10.00">endpointA()</text>
<text text-anchor="start" x="98" y="-228.5" font-family="Helvetica,sans-Serif" font-size="10.00">+</text>
<text text-anchor="start" x="111" y="-228.5" font-family="Helvetica,sans-Serif" font-size="10.00">endpointB()</text>
<polygon fill="#666666" stroke="#666666" points="94,-283.5 94,-283.5 213,-283.5 213,-283.5 94,-283.5"/>
<polygon fill="#666666" stroke="#666666" points="94,-268.5 94,-268.5 109,-268.5 109,-268.5 94,-268.5"/>
<polygon fill="#666666" stroke="#666666" points="109,-268.5 109,-268.5 213,-268.5 213,-268.5 109,-268.5"/>
<polygon fill="none" stroke="#666666" points="93.5,-222 93.5,-301 212.5,-301 212.5,-222 93.5,-222"/>
</a>
</g>
</g>
<!-- Node3&#45;&gt;Node2 -->
<g id="edge2_Node000002_Node000003" class="edge">
<title>Node3&#45;&gt;Node2</title>
<g id="a_edge2_Node000002_Node000003"><a xlink:title=" ">
<path fill="none" stroke="#63b8ff" d="M153,-221.76C153,-210.59 153,-198.45 153,-187.46"/>
<polygon fill="none" stroke="#63b8ff" points="153,-187.2 149,-181.2 153,-175.2 157,-181.2 153,-187.2"/>
</a>
</g>
<text text-anchor="middle" x="182" y="-196" font-family="Helvetica,sans-Serif" font-size="10.00" fill="grey"> +elements</text>
</g>
<!-- Node4 -->
<g id="Node000004" class="node">
<title>Node4</title>
<g id="a_Node000004"><a xlink:title=" ">
<polygon fill="white" stroke="transparent" points="142,-408 0,-408 0,-348 142,-348 142,-408"/>
<text text-anchor="start" x="5" y="-396" font-family="Helvetica,sans-Serif" font-size="10.00">std::vector&lt; CoordinateLat</text>
<text text-anchor="start" x="56.5" y="-385" font-family="Helvetica,sans-Serif" font-size="10.00">Lon &gt;</text>
<text text-anchor="start" x="69" y="-370" font-family="Helvetica,sans-Serif" font-size="10.00"> </text>
<text text-anchor="start" x="69" y="-355" font-family="Helvetica,sans-Serif" font-size="10.00"> </text>
<polygon fill="#666666" stroke="#666666" points="0,-380 0,-380 142,-380 142,-380 0,-380"/>
<polygon fill="#666666" stroke="#666666" points="0,-365 0,-365 142,-365 142,-365 0,-365"/>
<polygon fill="none" stroke="#666666" points="0,-348 0,-408 142,-408 142,-348 0,-348"/>
</a>
</g>
</g>
<!-- Node4&#45;&gt;Node3 -->
<g id="edge3_Node000003_Node000004" class="edge">
<title>Node4&#45;&gt;Node3</title>
<g id="a_edge3_Node000003_Node000004"><a xlink:title=" ">
<path fill="none" stroke="#63b8ff" d="M91.9,-347.81C99.92,-336.62 109.29,-323.53 118.25,-311.02"/>
<polygon fill="none" stroke="#63b8ff" points="118.33,-310.9 118.58,-303.7 125.32,-301.15 125.08,-308.36 118.33,-310.9"/>
</a>
</g>
<text text-anchor="middle" x="150.5" y="-322" font-family="Helvetica,sans-Serif" font-size="10.00" fill="grey"> +pointsWGS84</text>
</g>
<!-- Node5 -->
<g id="Node000005" class="node">
<title>Node5</title>
<g id="a_Node000005"><a xlink:href="../../db/d03/classCoordinateLatLon.html" target="_top" xlink:title="Coordonnée géographique WGS&#45;84 exprimée en degrés décimaux.">
<polygon fill="white" stroke="transparent" points="128.5,-579 13.5,-579 13.5,-455 128.5,-455 128.5,-579"/>
<text text-anchor="start" x="28.5" y="-567" font-family="Helvetica,sans-Serif" font-size="10.00">CoordinateLatLon</text>
<text text-anchor="start" x="18" y="-552" font-family="Helvetica,sans-Serif" font-size="10.00">+</text>
<text text-anchor="start" x="31" y="-552" font-family="Helvetica,sans-Serif" font-size="10.00">latitude</text>
<text text-anchor="start" x="18" y="-537" font-family="Helvetica,sans-Serif" font-size="10.00">+</text>
<text text-anchor="start" x="31" y="-537" font-family="Helvetica,sans-Serif" font-size="10.00">longitude</text>
<text text-anchor="start" x="18" y="-522" font-family="Helvetica,sans-Serif" font-size="10.00">+</text>
<text text-anchor="start" x="31" y="-522" font-family="Helvetica,sans-Serif" font-size="10.00">CoordinateLatLon()</text>
<text text-anchor="start" x="18" y="-507" font-family="Helvetica,sans-Serif" font-size="10.00">+</text>
<text text-anchor="start" x="31" y="-507" font-family="Helvetica,sans-Serif" font-size="10.00">CoordinateLatLon()</text>
<text text-anchor="start" x="18" y="-492" font-family="Helvetica,sans-Serif" font-size="10.00">+</text>
<text text-anchor="start" x="31" y="-492" font-family="Helvetica,sans-Serif" font-size="10.00">operator==()</text>
<text text-anchor="start" x="18" y="-477" font-family="Helvetica,sans-Serif" font-size="10.00">+</text>
<text text-anchor="start" x="31" y="-477" font-family="Helvetica,sans-Serif" font-size="10.00">operator!=()</text>
<text text-anchor="start" x="18" y="-462" font-family="Helvetica,sans-Serif" font-size="10.00">+</text>
<text text-anchor="start" x="31" y="-462" font-family="Helvetica,sans-Serif" font-size="10.00">toString()</text>
<polygon fill="#666666" stroke="#666666" points="14,-562 14,-562 129,-562 129,-562 14,-562"/>
<polygon fill="#666666" stroke="#666666" points="14,-532 14,-532 29,-532 29,-532 14,-532"/>
<polygon fill="#666666" stroke="#666666" points="29,-532 29,-532 129,-532 129,-532 29,-532"/>
<polygon fill="none" stroke="#666666" points="13.5,-455 13.5,-579 128.5,-579 128.5,-455 13.5,-455"/>
</a>
</g>
</g>
<!-- Node5&#45;&gt;Node4 -->
<g id="edge4_Node000004_Node000005" class="edge">
<title>Node5&#45;&gt;Node4</title>
<g id="a_edge4_Node000004_Node000005"><a xlink:title=" ">
<path fill="none" stroke="#63b8ff" d="M71,-454.71C71,-443.04 71,-431.08 71,-420.22"/>
<polygon fill="none" stroke="#63b8ff" points="71,-420.05 67,-414.05 71,-408.05 75,-414.05 71,-420.05"/>
</a>
</g>
<text text-anchor="middle" x="100" y="-429" font-family="Helvetica,sans-Serif" font-size="10.00" fill="grey"> +elements</text>
</g>
<!-- Node6 -->
<g id="Node000006" class="node">
<title>Node6</title>
<g id="a_Node000006"><a xlink:title=" ">
<polygon fill="white" stroke="transparent" points="311.5,-402.5 160.5,-402.5 160.5,-353.5 311.5,-353.5 311.5,-402.5"/>
<text text-anchor="start" x="166" y="-390" font-family="Helvetica,sans-Serif" font-size="10.00">std::vector&lt; CoordinateXY &gt;</text>
<text text-anchor="start" x="234.5" y="-375" font-family="Helvetica,sans-Serif" font-size="10.00"> </text>
<text text-anchor="start" x="234.5" y="-360" font-family="Helvetica,sans-Serif" font-size="10.00"> </text>
<polygon fill="#666666" stroke="#666666" points="161,-385 161,-385 312,-385 312,-385 161,-385"/>
<polygon fill="#666666" stroke="#666666" points="161,-370 161,-370 312,-370 312,-370 161,-370"/>
<polygon fill="none" stroke="#666666" points="160.5,-353.5 160.5,-402.5 311.5,-402.5 311.5,-353.5 160.5,-353.5"/>
</a>
</g>
</g>
<!-- Node6&#45;&gt;Node3 -->
<g id="edge5_Node000003_Node000006" class="edge">
<title>Node6&#45;&gt;Node3</title>
<g id="a_edge5_Node000003_Node000006"><a xlink:title=" ">
<path fill="none" stroke="#63b8ff" d="M218.8,-353.28C209.93,-341.03 198.77,-325.64 188.17,-311.02"/>
<polygon fill="none" stroke="#63b8ff" points="188,-310.78 181.24,-308.27 180.96,-301.07 187.72,-303.58 188,-310.78"/>
</a>
</g>
<text text-anchor="middle" x="232" y="-322" font-family="Helvetica,sans-Serif" font-size="10.00" fill="grey"> +pointsUTM</text>
</g>
<!-- Node7 -->
<g id="Node000007" class="node">
<title>Node7</title>
<g id="a_Node000007"><a xlink:href="../../df/d01/classCoordinateXY.html" target="_top" xlink:title="Coordonnée plane en mètres dans un système métrique (UTM ou similaire).">
<polygon fill="white" stroke="transparent" points="283.5,-579 188.5,-579 188.5,-455 283.5,-455 283.5,-579"/>
<text text-anchor="start" x="203" y="-567" font-family="Helvetica,sans-Serif" font-size="10.00">CoordinateXY</text>
<text text-anchor="start" x="193" y="-552" font-family="Helvetica,sans-Serif" font-size="10.00">+</text>
<text text-anchor="start" x="206" y="-552" font-family="Helvetica,sans-Serif" font-size="10.00">x</text>
<text text-anchor="start" x="193" y="-537" font-family="Helvetica,sans-Serif" font-size="10.00">+</text>
<text text-anchor="start" x="206" y="-537" font-family="Helvetica,sans-Serif" font-size="10.00">y</text>
<text text-anchor="start" x="193" y="-522" font-family="Helvetica,sans-Serif" font-size="10.00">+</text>
<text text-anchor="start" x="206" y="-522" font-family="Helvetica,sans-Serif" font-size="10.00">CoordinateXY()</text>
<text text-anchor="start" x="193" y="-507" font-family="Helvetica,sans-Serif" font-size="10.00">+</text>
<text text-anchor="start" x="206" y="-507" font-family="Helvetica,sans-Serif" font-size="10.00">CoordinateXY()</text>
<text text-anchor="start" x="193" y="-492" font-family="Helvetica,sans-Serif" font-size="10.00">+</text>
<text text-anchor="start" x="206" y="-492" font-family="Helvetica,sans-Serif" font-size="10.00">operator==()</text>
<text text-anchor="start" x="193" y="-477" font-family="Helvetica,sans-Serif" font-size="10.00">+</text>
<text text-anchor="start" x="206" y="-477" font-family="Helvetica,sans-Serif" font-size="10.00">operator!=()</text>
<text text-anchor="start" x="193" y="-462" font-family="Helvetica,sans-Serif" font-size="10.00">+</text>
<text text-anchor="start" x="206" y="-462" font-family="Helvetica,sans-Serif" font-size="10.00">toString()</text>
<polygon fill="#666666" stroke="#666666" points="189,-562 189,-562 284,-562 284,-562 189,-562"/>
<polygon fill="#666666" stroke="#666666" points="189,-532 189,-532 204,-532 204,-532 189,-532"/>
<polygon fill="#666666" stroke="#666666" points="204,-532 204,-532 284,-532 284,-532 204,-532"/>
<polygon fill="none" stroke="#666666" points="188.5,-455 188.5,-579 283.5,-579 283.5,-455 188.5,-455"/>
</a>
</g>
</g>
<!-- Node7&#45;&gt;Node6 -->
<g id="edge6_Node000006_Node000007" class="edge">
<title>Node7&#45;&gt;Node6</title>
<g id="a_edge6_Node000006_Node000007"><a xlink:title=" ">
<path fill="none" stroke="#63b8ff" d="M236,-454.71C236,-440.96 236,-426.83 236,-414.54"/>
<polygon fill="none" stroke="#63b8ff" points="236,-414.51 232,-408.51 236,-402.51 240,-408.51 236,-414.51"/>
</a>
</g>
<text text-anchor="middle" x="265" y="-429" font-family="Helvetica,sans-Serif" font-size="10.00" fill="grey"> +elements</text>
</g>
</g>
</svg>
