<?xml version="1.0" encoding="UTF-8" standalone="no"?>
<!DOCTYPE svg PUBLIC "-//W3C//DTD SVG 1.1//EN"
 "http://www.w3.org/Graphics/SVG/1.1/DTD/svg11.dtd">
<!-- Generated by graphviz version 2.43.0 (0)
 -->
<!-- Title: SimulateurFerroviaire/Modules/GeoParser/Graph/TopologyGraph.cpp Pages: 1 -->
<svg width="1064pt" height="236pt"
 viewBox="0.00 0.00 1063.73 236.00" xmlns="http://www.w3.org/2000/svg" xmlns:xlink="http://www.w3.org/1999/xlink">
<g id="graph0" class="graph" transform="scale(1 1) rotate(0) translate(4 232)">
<title>SimulateurFerroviaire/Modules/GeoParser/Graph/TopologyGraph.cpp</title>
<!-- Node1 -->
<g id="Node000001" class="node">
<title>Node1</title>
<g id="a_Node000001"><a xlink:title="Implémentation du graphe planaire de topologie ferroviaire.">
<polygon fill="#999999" stroke="#666666" points="985.84,-228 839.84,-228 839.84,-187 985.84,-187 985.84,-228"/>
<text text-anchor="start" x="847.84" y="-216" font-family="Helvetica,sans-Serif" font-size="10.00">SimulateurFerroviaire</text>
<text text-anchor="start" x="847.84" y="-205" font-family="Helvetica,sans-Serif" font-size="10.00">/Modules/GeoParser/Graph</text>
<text text-anchor="middle" x="912.84" y="-194" font-family="Helvetica,sans-Serif" font-size="10.00">/TopologyGraph.cpp</text>
</a>
</g>
</g>
<!-- Node2 -->
<g id="Node000002" class="node">
<title>Node2</title>
<g id="a_Node000002"><a xlink:href="../../d7/d03/TopologyGraph_8h.html" target="_top" xlink:title="Graphe planaire non&#45;orienté de nœuds et d&#39;arêtes ferroviaires accrochés.">
<polygon fill="white" stroke="#666666" points="389.84,-151 291.84,-151 291.84,-132 389.84,-132 389.84,-151"/>
<text text-anchor="middle" x="340.84" y="-139" font-family="Helvetica,sans-Serif" font-size="10.00">TopologyGraph.h</text>
</a>
</g>
</g>
<!-- Node1&#45;&gt;Node2 -->
<g id="edge1_Node000001_Node000002" class="edge">
<title>Node1&#45;&gt;Node2</title>
<g id="a_edge1_Node000001_Node000002"><a xlink:title=" ">
<path fill="none" stroke="#63b8ff" d="M839.82,-198.33C725.27,-185.51 505.56,-160.93 400.14,-149.13"/>
<polygon fill="#63b8ff" stroke="#63b8ff" points="400.32,-145.63 389.99,-148 399.54,-152.59 400.32,-145.63"/>
</a>
</g>
</g>
<!-- Node11 -->
<g id="Node000011" class="node">
<title>Node11</title>
<g id="a_Node000011"><a xlink:title=" ">
<polygon fill="#e0e0e0" stroke="#999999" points="1024.34,-24.5 977.34,-24.5 977.34,-5.5 1024.34,-5.5 1024.34,-24.5"/>
<text text-anchor="middle" x="1000.84" y="-12.5" font-family="Helvetica,sans-Serif" font-size="10.00">cmath</text>
</a>
</g>
</g>
<!-- Node1&#45;&gt;Node11 -->
<g id="edge18_Node000001_Node000011" class="edge">
<title>Node1&#45;&gt;Node11</title>
<g id="a_edge18_Node000001_Node000011"><a xlink:title=" ">
<path fill="none" stroke="#63b8ff" d="M985.89,-193.11C1009.35,-184.98 1032.85,-171.94 1046.84,-151 1072.3,-112.9 1036.91,-59.33 1015.34,-32.57"/>
<polygon fill="#63b8ff" stroke="#63b8ff" points="1017.76,-30.01 1008.66,-24.58 1012.39,-34.5 1017.76,-30.01"/>
</a>
</g>
</g>
<!-- Node15 -->
<g id="Node000015" class="node">
<title>Node15</title>
<g id="a_Node000015"><a xlink:title=" ">
<polygon fill="#e0e0e0" stroke="#999999" points="907.84,-151 843.84,-151 843.84,-132 907.84,-132 907.84,-151"/>
<text text-anchor="middle" x="875.84" y="-139" font-family="Helvetica,sans-Serif" font-size="10.00">algorithm</text>
</a>
</g>
</g>
<!-- Node1&#45;&gt;Node15 -->
<g id="edge17_Node000001_Node000015" class="edge">
<title>Node1&#45;&gt;Node15</title>
<g id="a_edge17_Node000001_Node000015"><a xlink:title=" ">
<path fill="none" stroke="#63b8ff" d="M901.54,-186.95C896.59,-178.39 890.83,-168.42 886.01,-160.1"/>
<polygon fill="#63b8ff" stroke="#63b8ff" points="888.94,-158.17 880.91,-151.26 882.88,-161.67 888.94,-158.17"/>
</a>
</g>
</g>
<!-- Node16 -->
<g id="Node000016" class="node">
<title>Node16</title>
<g id="a_Node000016"><a xlink:title=" ">
<polygon fill="#e0e0e0" stroke="#999999" points="975.84,-151 925.84,-151 925.84,-132 975.84,-132 975.84,-151"/>
<text text-anchor="middle" x="950.84" y="-139" font-family="Helvetica,sans-Serif" font-size="10.00">cstring</text>
</a>
</g>
</g>
<!-- Node1&#45;&gt;Node16 -->
<g id="edge19_Node000001_Node000016" class="edge">
<title>Node1&#45;&gt;Node16</title>
<g id="a_edge19_Node000001_Node000016"><a xlink:title=" ">
<path fill="none" stroke="#63b8ff" d="M924.45,-186.95C929.53,-178.39 935.45,-168.42 940.39,-160.1"/>
<polygon fill="#63b8ff" stroke="#63b8ff" points="943.54,-161.65 945.64,-151.26 937.53,-158.07 943.54,-161.65"/>
</a>
</g>
</g>
<!-- Node17 -->
<g id="Node000017" class="node">
<title>Node17</title>
<g id="a_Node000017"><a xlink:title=" ">
<polygon fill="#e0e0e0" stroke="#999999" points="1037.84,-151 993.84,-151 993.84,-132 1037.84,-132 1037.84,-151"/>
<text text-anchor="middle" x="1015.84" y="-139" font-family="Helvetica,sans-Serif" font-size="10.00">limits</text>
</a>
</g>
</g>
<!-- Node1&#45;&gt;Node17 -->
<g id="edge20_Node000001_Node000017" class="edge">
<title>Node1&#45;&gt;Node17</title>
<g id="a_edge20_Node000001_Node000017"><a xlink:title=" ">
<path fill="none" stroke="#63b8ff" d="M944.3,-186.95C960.13,-177.12 978.94,-165.43 993.3,-156.51"/>
<polygon fill="#63b8ff" stroke="#63b8ff" points="995.37,-159.34 1002.01,-151.09 991.67,-153.4 995.37,-159.34"/>
</a>
</g>
</g>
<!-- Node18 -->
<g id="Node000018" class="node">
<title>Node18</title>
<g id="a_Node000018"><a xlink:href="../../dc/d01/GeometryUtils_8h.html" target="_top" xlink:title="Utilitaires géométriques métriques pour le pipeline ferroviaire.">
<polygon fill="white" stroke="#666666" points="825.34,-151 694.34,-151 694.34,-132 825.34,-132 825.34,-151"/>
<text text-anchor="middle" x="759.84" y="-139" font-family="Helvetica,sans-Serif" font-size="10.00">../Utils/GeometryUtils.h</text>
</a>
</g>
</g>
<!-- Node1&#45;&gt;Node18 -->
<g id="edge21_Node000001_Node000018" class="edge">
<title>Node1&#45;&gt;Node18</title>
<g id="a_edge21_Node000001_Node000018"><a xlink:title=" ">
<path fill="none" stroke="#63b8ff" d="M866.11,-186.95C841.26,-176.56 811.46,-164.09 789.74,-155.01"/>
<polygon fill="#63b8ff" stroke="#63b8ff" points="790.96,-151.72 780.38,-151.09 788.26,-158.18 790.96,-151.72"/>
</a>
</g>
</g>
<!-- Node3 -->
<g id="Node000003" class="node">
<title>Node3</title>
<g id="a_Node000003"><a xlink:title=" ">
<polygon fill="#e0e0e0" stroke="#999999" points="66.84,-90.5 16.84,-90.5 16.84,-71.5 66.84,-71.5 66.84,-90.5"/>
<text text-anchor="middle" x="41.84" y="-78.5" font-family="Helvetica,sans-Serif" font-size="10.00">cstdint</text>
</a>
</g>
</g>
<!-- Node2&#45;&gt;Node3 -->
<g id="edge2_Node000002_Node000003" class="edge">
<title>Node2&#45;&gt;Node3</title>
<g id="a_edge2_Node000002_Node000003"><a xlink:title=" ">
<path fill="none" stroke="#63b8ff" d="M291.76,-135.59C238.01,-129.45 149.63,-117.1 75.84,-96 73.95,-95.46 72.03,-94.85 70.1,-94.19"/>
<polygon fill="#63b8ff" stroke="#63b8ff" points="71.23,-90.87 60.64,-90.62 68.76,-97.42 71.23,-90.87"/>
</a>
</g>
</g>
<!-- Node4 -->
<g id="Node000004" class="node">
<title>Node4</title>
<g id="a_Node000004"><a xlink:title=" ">
<polygon fill="#e0e0e0" stroke="#999999" points="150.34,-90.5 85.34,-90.5 85.34,-71.5 150.34,-71.5 150.34,-90.5"/>
<text text-anchor="middle" x="117.84" y="-78.5" font-family="Helvetica,sans-Serif" font-size="10.00">functional</text>
</a>
</g>
</g>
<!-- Node2&#45;&gt;Node4 -->
<g id="edge3_Node000002_Node000004" class="edge">
<title>Node2&#45;&gt;Node4</title>
<g id="a_edge3_Node000002_Node000004"><a xlink:title=" ">
<path fill="none" stroke="#63b8ff" d="M305.33,-131.98C269.7,-123.33 213.31,-109.34 164.84,-96 161.9,-95.19 158.86,-94.33 155.81,-93.46"/>
<polygon fill="#63b8ff" stroke="#63b8ff" points="156.7,-90.07 146.12,-90.63 154.74,-96.79 156.7,-90.07"/>
</a>
</g>
</g>
<!-- Node5 -->
<g id="Node000005" class="node">
<title>Node5</title>
<g id="a_Node000005"><a xlink:title=" ">
<polygon fill="#e0e0e0" stroke="#999999" points="758.84,-90.5 702.84,-90.5 702.84,-71.5 758.84,-71.5 758.84,-90.5"/>
<text text-anchor="middle" x="730.84" y="-78.5" font-family="Helvetica,sans-Serif" font-size="10.00">optional</text>
</a>
</g>
</g>
<!-- Node2&#45;&gt;Node5 -->
<g id="edge4_Node000002_Node000005" class="edge">
<title>Node2&#45;&gt;Node5</title>
<g id="a_edge4_Node000002_Node000005"><a xlink:title=" ">
<path fill="none" stroke="#63b8ff" d="M390.05,-137.97C458.88,-133.61 587.44,-122.44 693.84,-96 696.29,-95.39 698.8,-94.67 701.3,-93.88"/>
<polygon fill="#63b8ff" stroke="#63b8ff" points="702.47,-97.18 710.76,-90.58 700.17,-90.57 702.47,-97.18"/>
</a>
</g>
</g>
<!-- Node6 -->
<g id="Node000006" class="node">
<title>Node6</title>
<g id="a_Node000006"><a xlink:title=" ">
<polygon fill="#e0e0e0" stroke="#999999" points="161.84,-24.5 117.84,-24.5 117.84,-5.5 161.84,-5.5 161.84,-24.5"/>
<text text-anchor="middle" x="139.84" y="-12.5" font-family="Helvetica,sans-Serif" font-size="10.00">string</text>
</a>
</g>
</g>
<!-- Node2&#45;&gt;Node6 -->
<g id="edge5_Node000002_Node000006" class="edge">
<title>Node2&#45;&gt;Node6</title>
<g id="a_edge5_Node000002_Node000006"><a xlink:title=" ">
<path fill="none" stroke="#63b8ff" d="M291.58,-137.45C203.45,-131.49 26.23,-117.01 7.84,-96 -24.86,-58.63 58.95,-33.44 107.73,-22.38"/>
<polygon fill="#63b8ff" stroke="#63b8ff" points="108.53,-25.79 117.55,-20.24 107.04,-18.95 108.53,-25.79"/>
</a>
</g>
</g>
<!-- Node7 -->
<g id="Node000007" class="node">
<title>Node7</title>
<g id="a_Node000007"><a xlink:title=" ">
<polygon fill="#e0e0e0" stroke="#999999" points="300.34,-90.5 207.34,-90.5 207.34,-71.5 300.34,-71.5 300.34,-90.5"/>
<text text-anchor="middle" x="253.84" y="-78.5" font-family="Helvetica,sans-Serif" font-size="10.00">unordered_map</text>
</a>
</g>
</g>
<!-- Node2&#45;&gt;Node7 -->
<g id="edge6_Node000002_Node000007" class="edge">
<title>Node2&#45;&gt;Node7</title>
<g id="a_edge6_Node000002_Node000007"><a xlink:title=" ">
<path fill="none" stroke="#63b8ff" d="M328,-131.87C314.13,-122.54 291.77,-107.51 275.23,-96.38"/>
<polygon fill="#63b8ff" stroke="#63b8ff" points="276.98,-93.34 266.73,-90.67 273.08,-99.15 276.98,-93.34"/>
</a>
</g>
</g>
<!-- Node8 -->
<g id="Node000008" class="node">
<title>Node8</title>
<g id="a_Node000008"><a xlink:title=" ">
<polygon fill="#e0e0e0" stroke="#999999" points="363.34,-90.5 318.34,-90.5 318.34,-71.5 363.34,-71.5 363.34,-90.5"/>
<text text-anchor="middle" x="340.84" y="-78.5" font-family="Helvetica,sans-Serif" font-size="10.00">utility</text>
</a>
</g>
</g>
<!-- Node2&#45;&gt;Node8 -->
<g id="edge7_Node000002_Node000008" class="edge">
<title>Node2&#45;&gt;Node8</title>
<g id="a_edge7_Node000002_Node000008"><a xlink:title=" ">
<path fill="none" stroke="#63b8ff" d="M340.84,-131.87C340.84,-123.75 340.84,-111.31 340.84,-100.89"/>
<polygon fill="#63b8ff" stroke="#63b8ff" points="344.34,-100.67 340.84,-90.67 337.34,-100.67 344.34,-100.67"/>
</a>
</g>
</g>
<!-- Node9 -->
<g id="Node000009" class="node">
<title>Node9</title>
<g id="a_Node000009"><a xlink:title=" ">
<polygon fill="#e0e0e0" stroke="#999999" points="451.34,-24.5 404.34,-24.5 404.34,-5.5 451.34,-5.5 451.34,-24.5"/>
<text text-anchor="middle" x="427.84" y="-12.5" font-family="Helvetica,sans-Serif" font-size="10.00">vector</text>
</a>
</g>
</g>
<!-- Node2&#45;&gt;Node9 -->
<g id="edge8_Node000002_Node000009" class="edge">
<title>Node2&#45;&gt;Node9</title>
<g id="a_edge8_Node000002_Node000009"><a xlink:title=" ">
<path fill="none" stroke="#63b8ff" d="M291.56,-133.04C239.14,-123.04 167.63,-102.23 197.84,-66 254.84,2.36 309.58,-55.54 394.84,-30 396.52,-29.5 398.23,-28.93 399.95,-28.33"/>
<polygon fill="#63b8ff" stroke="#63b8ff" points="401.55,-31.46 409.61,-24.58 399.02,-24.94 401.55,-31.46"/>
</a>
</g>
</g>
<!-- Node10 -->
<g id="Node000010" class="node">
<title>Node10</title>
<g id="a_Node000010"><a xlink:href="../../dd/d01/TopologyEdge_8h.html" target="_top" xlink:title="Arête non&#45;orientée du graphe planaire de topologie ferroviaire.">
<polygon fill="white" stroke="#666666" points="474.34,-90.5 381.34,-90.5 381.34,-71.5 474.34,-71.5 474.34,-90.5"/>
<text text-anchor="middle" x="427.84" y="-78.5" font-family="Helvetica,sans-Serif" font-size="10.00">TopologyEdge.h</text>
</a>
</g>
</g>
<!-- Node2&#45;&gt;Node10 -->
<g id="edge9_Node000002_Node000010" class="edge">
<title>Node2&#45;&gt;Node10</title>
<g id="a_edge9_Node000002_Node000010"><a xlink:title=" ">
<path fill="none" stroke="#63b8ff" d="M353.68,-131.87C367.56,-122.54 389.91,-107.51 406.45,-96.38"/>
<polygon fill="#63b8ff" stroke="#63b8ff" points="408.61,-99.15 414.95,-90.67 404.7,-93.34 408.61,-99.15"/>
</a>
</g>
</g>
<!-- Node13 -->
<g id="Node000013" class="node">
<title>Node13</title>
<g id="a_Node000013"><a xlink:href="../../db/d03/CoordinateXY_8h.html" target="_top" xlink:title="Représentation d&#39;une coordonnée plane en mètres (système métrique UTM).">
<polygon fill="white" stroke="#666666" points="588.34,-30 469.34,-30 469.34,0 588.34,0 588.34,-30"/>
<text text-anchor="start" x="477.34" y="-18" font-family="Helvetica,sans-Serif" font-size="10.00">Modules/Coordinates</text>
<text text-anchor="middle" x="528.84" y="-7" font-family="Helvetica,sans-Serif" font-size="10.00">/CoordinateXY.h</text>
</a>
</g>
</g>
<!-- Node2&#45;&gt;Node13 -->
<g id="edge15_Node000002_Node000013" class="edge">
<title>Node2&#45;&gt;Node13</title>
<g id="a_edge15_Node000002_Node000013"><a xlink:title=" ">
<path fill="none" stroke="#63b8ff" d="M390.13,-134.25C419.6,-128.42 456.35,-117.26 482.84,-96 501,-81.43 513.36,-57.63 520.66,-39.77"/>
<polygon fill="#63b8ff" stroke="#63b8ff" points="523.98,-40.89 524.29,-30.3 517.44,-38.39 523.98,-40.89"/>
</a>
</g>
</g>
<!-- Node14 -->
<g id="Node000014" class="node">
<title>Node14</title>
<g id="a_Node000014"><a xlink:href="../../d6/d03/GeoParserEnums_8h.html" target="_top" xlink:title="Constantes nommées et énumérations du pipeline ferroviaire GeoParser.">
<polygon fill="white" stroke="#666666" points="684.34,-90.5 531.34,-90.5 531.34,-71.5 684.34,-71.5 684.34,-90.5"/>
<text text-anchor="middle" x="607.84" y="-78.5" font-family="Helvetica,sans-Serif" font-size="10.00">../Enums/GeoParserEnums.h</text>
</a>
</g>
</g>
<!-- Node2&#45;&gt;Node14 -->
<g id="edge16_Node000002_Node000014" class="edge">
<title>Node2&#45;&gt;Node14</title>
<g id="a_edge16_Node000002_Node000014"><a xlink:title=" ">
<path fill="none" stroke="#63b8ff" d="M379.67,-131.99C427.12,-121.6 507.47,-103.99 559.06,-92.69"/>
<polygon fill="#63b8ff" stroke="#63b8ff" points="559.95,-96.08 568.97,-90.52 558.45,-89.24 559.95,-96.08"/>
</a>
</g>
</g>
<!-- Node10&#45;&gt;Node6 -->
<g id="edge12_Node000010_Node000006" class="edge">
<title>Node10&#45;&gt;Node6</title>
<g id="a_edge12_Node000010_Node000006"><a xlink:title=" ">
<path fill="none" stroke="#63b8ff" d="M394.42,-71.46C387,-69.61 379.16,-67.7 371.84,-66 300.7,-49.44 216.82,-31.84 171.98,-22.58"/>
<polygon fill="#63b8ff" stroke="#63b8ff" points="172.47,-19.11 161.97,-20.52 171.06,-25.96 172.47,-19.11"/>
</a>
</g>
</g>
<!-- Node10&#45;&gt;Node9 -->
<g id="edge13_Node000010_Node000009" class="edge">
<title>Node10&#45;&gt;Node9</title>
<g id="a_edge13_Node000010_Node000009"><a xlink:title=" ">
<path fill="none" stroke="#63b8ff" d="M427.84,-71.37C427.84,-62.16 427.84,-47.29 427.84,-35.27"/>
<polygon fill="#63b8ff" stroke="#63b8ff" points="431.34,-34.91 427.84,-24.91 424.34,-34.91 431.34,-34.91"/>
</a>
</g>
</g>
<!-- Node10&#45;&gt;Node11 -->
<g id="edge10_Node000010_Node000011" class="edge">
<title>Node10&#45;&gt;Node11</title>
<g id="a_edge10_Node000010_Node000011"><a xlink:title=" ">
<path fill="none" stroke="#63b8ff" d="M474.64,-72.62C489.69,-70.35 506.46,-67.95 521.84,-66 688.21,-44.94 887.91,-26.19 966.59,-19.06"/>
<polygon fill="#63b8ff" stroke="#63b8ff" points="967.23,-22.51 976.88,-18.13 966.6,-15.54 967.23,-22.51"/>
</a>
</g>
</g>
<!-- Node12 -->
<g id="Node000012" class="node">
<title>Node12</title>
<g id="a_Node000012"><a xlink:title=" ">
<polygon fill="#e0e0e0" stroke="#999999" points="385.84,-24.5 329.84,-24.5 329.84,-5.5 385.84,-5.5 385.84,-24.5"/>
<text text-anchor="middle" x="357.84" y="-12.5" font-family="Helvetica,sans-Serif" font-size="10.00">sstream</text>
</a>
</g>
</g>
<!-- Node10&#45;&gt;Node12 -->
<g id="edge11_Node000010_Node000012" class="edge">
<title>Node10&#45;&gt;Node12</title>
<g id="a_edge11_Node000010_Node000012"><a xlink:title=" ">
<path fill="none" stroke="#63b8ff" d="M418.4,-71.37C407.3,-61.21 388.64,-44.16 374.96,-31.65"/>
<polygon fill="#63b8ff" stroke="#63b8ff" points="377.32,-29.07 367.58,-24.91 372.6,-34.24 377.32,-29.07"/>
</a>
</g>
</g>
<!-- Node10&#45;&gt;Node13 -->
<g id="edge14_Node000010_Node000013" class="edge">
<title>Node10&#45;&gt;Node13</title>
<g id="a_edge14_Node000010_Node000013"><a xlink:title=" ">
<path fill="none" stroke="#63b8ff" d="M441.46,-71.37C455.87,-62.24 479.09,-47.53 497.97,-35.56"/>
<polygon fill="#63b8ff" stroke="#63b8ff" points="499.99,-38.42 506.57,-30.12 496.25,-32.51 499.99,-38.42"/>
</a>
</g>
</g>
<!-- Node18&#45;&gt;Node5 -->
<g id="edge23_Node000018_Node000005" class="edge">
<title>Node18&#45;&gt;Node5</title>
<g id="a_edge23_Node000018_Node000005"><a xlink:title=" ">
<path fill="none" stroke="#63b8ff" d="M755.56,-131.87C751.41,-123.49 744.97,-110.51 739.71,-99.89"/>
<polygon fill="#63b8ff" stroke="#63b8ff" points="742.72,-98.07 735.14,-90.67 736.44,-101.18 742.72,-98.07"/>
</a>
</g>
</g>
<!-- Node18&#45;&gt;Node9 -->
<g id="edge24_Node000018_Node000009" class="edge">
<title>Node18&#45;&gt;Node9</title>
<g id="a_edge24_Node000018_Node000009"><a xlink:title=" ">
<path fill="none" stroke="#63b8ff" d="M764.44,-131.88C771.91,-116.56 784.27,-84.46 767.84,-66 722.03,-14.52 526.36,-48.01 459.84,-30 457.95,-29.49 456.03,-28.88 454.12,-28.22"/>
<polygon fill="#63b8ff" stroke="#63b8ff" points="455.36,-24.95 444.77,-24.52 452.78,-31.45 455.36,-24.95"/>
</a>
</g>
</g>
<!-- Node18&#45;&gt;Node11 -->
<g id="edge22_Node000018_Node000011" class="edge">
<title>Node18&#45;&gt;Node11</title>
<g id="a_edge22_Node000018_Node000011"><a xlink:title=" ">
<path fill="none" stroke="#63b8ff" d="M819.07,-131.98C880.79,-122.58 970.14,-107.3 981.84,-96 998.17,-80.24 1001.55,-53.19 1001.76,-34.96"/>
<polygon fill="#63b8ff" stroke="#63b8ff" points="1005.26,-34.86 1001.57,-24.93 998.26,-35 1005.26,-34.86"/>
</a>
</g>
</g>
<!-- Node18&#45;&gt;Node13 -->
<g id="edge26_Node000018_Node000013" class="edge">
<title>Node18&#45;&gt;Node13</title>
<g id="a_edge26_Node000018_Node000013"><a xlink:title=" ">
<path fill="none" stroke="#63b8ff" d="M771.02,-131.8C788.49,-117.19 818.51,-87.21 800.84,-66 775.62,-35.72 670.88,-23.71 598.99,-19"/>
<polygon fill="#63b8ff" stroke="#63b8ff" points="598.83,-15.48 588.63,-18.35 598.39,-22.47 598.83,-15.48"/>
</a>
</g>
</g>
<!-- Node18&#45;&gt;Node14 -->
<g id="edge27_Node000018_Node000014" class="edge">
<title>Node18&#45;&gt;Node14</title>
<g id="a_edge27_Node000018_Node000014"><a xlink:title=" ">
<path fill="none" stroke="#63b8ff" d="M737.74,-131.99C711.85,-122.03 668.76,-105.45 639.37,-94.13"/>
<polygon fill="#63b8ff" stroke="#63b8ff" points="640.56,-90.84 629.97,-90.52 638.05,-97.38 640.56,-90.84"/>
</a>
</g>
</g>
<!-- Node19 -->
<g id="Node000019" class="node">
<title>Node19</title>
<g id="a_Node000019"><a xlink:href="../../df/d02/LatLon_8h.html" target="_top" xlink:title="Représentation d&#39;une coordonnée géographique WGS&#45;84 (latitude, longitude).">
<polygon fill="white" stroke="#666666" points="972.34,-96 853.34,-96 853.34,-66 972.34,-66 972.34,-96"/>
<text text-anchor="start" x="861.34" y="-84" font-family="Helvetica,sans-Serif" font-size="10.00">Modules/Coordinates</text>
<text text-anchor="middle" x="912.84" y="-73" font-family="Helvetica,sans-Serif" font-size="10.00">/LatLon.h</text>
</a>
</g>
</g>
<!-- Node18&#45;&gt;Node19 -->
<g id="edge25_Node000018_Node000019" class="edge">
<title>Node18&#45;&gt;Node19</title>
<g id="a_edge25_Node000018_Node000019"><a xlink:title=" ">
<path fill="none" stroke="#63b8ff" d="M782.09,-131.99C804.11,-123.57 838.48,-110.43 866.46,-99.73"/>
<polygon fill="#63b8ff" stroke="#63b8ff" points="867.97,-102.9 876.06,-96.06 865.47,-96.37 867.97,-102.9"/>
</a>
</g>
</g>
</g>
</svg>
