<?xml version="1.0" encoding="UTF-8" standalone="no"?>
<!DOCTYPE svg PUBLIC "-//W3C//DTD SVG 1.1//EN"
 "http://www.w3.org/Graphics/SVG/1.1/DTD/svg11.dtd">
<!-- Generated by graphviz version 2.43.0 (0)
 -->
<!-- Title: SimulateurFerroviaire/Modules/PCC/PCCGraph.h Pages: 1 -->
<svg width="1123pt" height="401pt"
 viewBox="0.00 0.00 1123.00 401.00" xmlns="http://www.w3.org/2000/svg" xmlns:xlink="http://www.w3.org/1999/xlink">
<g id="graph0" class="graph" transform="scale(1 1) rotate(0) translate(4 397)">
<title>SimulateurFerroviaire/Modules/PCC/PCCGraph.h</title>
<!-- Node1 -->
<g id="Node000001" class="node">
<title>Node1</title>
<g id="a_Node000001"><a xlink:title="Conteneur propriétaire du graphe PCC.">
<polygon fill="#999999" stroke="#666666" points="429,-393 285,-393 285,-363 429,-363 429,-393"/>
<text text-anchor="start" x="293" y="-381" font-family="Helvetica,sans-Serif" font-size="10.00">SimulateurFerroviaire</text>
<text text-anchor="middle" x="357" y="-370" font-family="Helvetica,sans-Serif" font-size="10.00">/Modules/PCC/PCCGraph.h</text>
</a>
</g>
</g>
<!-- Node2 -->
<g id="Node000002" class="node">
<title>Node2</title>
<g id="a_Node000002"><a xlink:title=" ">
<polygon fill="#e0e0e0" stroke="#999999" points="58,-327 0,-327 0,-308 58,-308 58,-327"/>
<text text-anchor="middle" x="29" y="-315" font-family="Helvetica,sans-Serif" font-size="10.00">memory</text>
</a>
</g>
</g>
<!-- Node1&#45;&gt;Node2 -->
<g id="edge1_Node000001_Node000002" class="edge">
<title>Node1&#45;&gt;Node2</title>
<g id="a_edge1_Node000001_Node000002"><a xlink:title=" ">
<path fill="none" stroke="#63b8ff" d="M284.89,-364.79C227.22,-354.92 144.35,-340.5 72,-327 70.74,-326.76 69.45,-326.52 68.16,-326.28"/>
<polygon fill="#63b8ff" stroke="#63b8ff" points="68.61,-322.8 58.13,-324.35 67.29,-329.67 68.61,-322.8"/>
</a>
</g>
</g>
<!-- Node3 -->
<g id="Node000003" class="node">
<title>Node3</title>
<g id="a_Node000003"><a xlink:title=" ">
<polygon fill="#e0e0e0" stroke="#999999" points="559,-19 515,-19 515,0 559,0 559,-19"/>
<text text-anchor="middle" x="537" y="-7" font-family="Helvetica,sans-Serif" font-size="10.00">string</text>
</a>
</g>
</g>
<!-- Node1&#45;&gt;Node3 -->
<g id="edge2_Node000001_Node000003" class="edge">
<title>Node1&#45;&gt;Node3</title>
<g id="a_edge2_Node000001_Node000003"><a xlink:title=" ">
<path fill="none" stroke="#63b8ff" d="M429.34,-373.19C618.8,-362.24 1115,-326.98 1115,-258 1115,-258 1115,-258 1115,-129.5 1115,-17.25 691.48,-9.98 569.5,-10.21"/>
<polygon fill="#63b8ff" stroke="#63b8ff" points="569.29,-6.71 559.3,-10.25 569.32,-13.71 569.29,-6.71"/>
</a>
</g>
</g>
<!-- Node4 -->
<g id="Node000004" class="node">
<title>Node4</title>
<g id="a_Node000004"><a xlink:title=" ">
<polygon fill="#e0e0e0" stroke="#999999" points="207.5,-327 114.5,-327 114.5,-308 207.5,-308 207.5,-327"/>
<text text-anchor="middle" x="161" y="-315" font-family="Helvetica,sans-Serif" font-size="10.00">unordered_map</text>
</a>
</g>
</g>
<!-- Node1&#45;&gt;Node4 -->
<g id="edge3_Node000001_Node000004" class="edge">
<title>Node1&#45;&gt;Node4</title>
<g id="a_edge3_Node000001_Node000004"><a xlink:title=" ">
<path fill="none" stroke="#63b8ff" d="M310.05,-362.99C276.23,-352.89 231.14,-339.44 199.45,-329.98"/>
<polygon fill="#63b8ff" stroke="#63b8ff" points="200.24,-326.56 189.66,-327.05 198.24,-333.27 200.24,-326.56"/>
</a>
</g>
</g>
<!-- Node5 -->
<g id="Node000005" class="node">
<title>Node5</title>
<g id="a_Node000005"><a xlink:title=" ">
<polygon fill="#e0e0e0" stroke="#999999" points="352.5,-200.5 305.5,-200.5 305.5,-181.5 352.5,-181.5 352.5,-200.5"/>
<text text-anchor="middle" x="329" y="-188.5" font-family="Helvetica,sans-Serif" font-size="10.00">vector</text>
</a>
</g>
</g>
<!-- Node1&#45;&gt;Node5 -->
<g id="edge4_Node000001_Node000005" class="edge">
<title>Node1&#45;&gt;Node5</title>
<g id="a_edge4_Node000001_Node000005"><a xlink:title=" ">
<path fill="none" stroke="#63b8ff" d="M429.14,-374.92C492.22,-370.03 569.75,-354.71 542,-308 531.42,-290.2 411.36,-231.27 356.3,-204.93"/>
<polygon fill="#63b8ff" stroke="#63b8ff" points="357.65,-201.7 347.12,-200.55 354.64,-208.01 357.65,-201.7"/>
</a>
</g>
</g>
<!-- Node6 -->
<g id="Node000006" class="node">
<title>Node6</title>
<g id="a_Node000006"><a xlink:href="../../d1/d02/PCCEdge_8h.html" target="_top" xlink:title="Connexion orientée entre deux nœuds du graphe PCC.">
<polygon fill="white" stroke="#666666" points="210.5,-200.5 141.5,-200.5 141.5,-181.5 210.5,-181.5 210.5,-200.5"/>
<text text-anchor="middle" x="176" y="-188.5" font-family="Helvetica,sans-Serif" font-size="10.00">PCCEdge.h</text>
</a>
</g>
</g>
<!-- Node1&#45;&gt;Node6 -->
<g id="edge5_Node000001_Node000006" class="edge">
<title>Node1&#45;&gt;Node6</title>
<g id="a_edge5_Node000001_Node000006"><a xlink:title=" ">
<path fill="none" stroke="#63b8ff" d="M333.74,-362.93C319.26,-353.63 300.67,-340.67 286,-327 245.25,-289.01 206.17,-235.76 187.47,-208.91"/>
<polygon fill="#63b8ff" stroke="#63b8ff" points="190.29,-206.83 181.74,-200.58 184.52,-210.8 190.29,-206.83"/>
</a>
</g>
</g>
<!-- Node7 -->
<g id="Node000007" class="node">
<title>Node7</title>
<g id="a_Node000007"><a xlink:href="../../dd/d00/Logger_8h.html" target="_top" xlink:title="Système de journalisation à 5 niveaux de trace, un fichier par moteur.">
<polygon fill="white" stroke="#666666" points="294.5,-85 183.5,-85 183.5,-55 294.5,-55 294.5,-85"/>
<text text-anchor="start" x="191.5" y="-73" font-family="Helvetica,sans-Serif" font-size="10.00">Engine/Core/Logger</text>
<text text-anchor="middle" x="239" y="-62" font-family="Helvetica,sans-Serif" font-size="10.00">/Logger.h</text>
</a>
</g>
</g>
<!-- Node1&#45;&gt;Node7 -->
<g id="edge42_Node000001_Node000007" class="edge">
<title>Node1&#45;&gt;Node7</title>
<g id="a_edge42_Node000001_Node000007"><a xlink:title=" ">
<path fill="none" stroke="#63b8ff" d="M284.9,-371.08C219.9,-364.29 130.68,-350.88 105,-327 81.7,-305.34 86,-289.81 86,-258 86,-258 86,-258 86,-190 86,-139.06 139.51,-106.75 183.24,-88.85"/>
<polygon fill="#63b8ff" stroke="#63b8ff" points="184.65,-92.06 192.68,-85.14 182.09,-85.54 184.65,-92.06"/>
</a>
</g>
</g>
<!-- Node14 -->
<g id="Node000014" class="node">
<title>Node14</title>
<g id="a_Node000014"><a xlink:href="../../d6/d01/PCCNode_8h.html" target="_top" xlink:title="Nœud abstrait du graphe PCC représentant un bloc ferroviaire.">
<polygon fill="white" stroke="#666666" points="350.5,-266.5 279.5,-266.5 279.5,-247.5 350.5,-247.5 350.5,-266.5"/>
<text text-anchor="middle" x="315" y="-254.5" font-family="Helvetica,sans-Serif" font-size="10.00">PCCNode.h</text>
</a>
</g>
</g>
<!-- Node1&#45;&gt;Node14 -->
<g id="edge14_Node000001_Node000014" class="edge">
<title>Node1&#45;&gt;Node14</title>
<g id="a_edge14_Node000001_Node000014"><a xlink:title=" ">
<path fill="none" stroke="#63b8ff" d="M328.95,-362.95C315.43,-354.54 300.54,-342.46 293,-327 284.77,-310.13 293.62,-289.47 302.43,-275.18"/>
<polygon fill="#63b8ff" stroke="#63b8ff" points="305.38,-277.06 308.03,-266.81 299.56,-273.17 305.38,-277.06"/>
</a>
</g>
</g>
<!-- Node17 -->
<g id="Node000017" class="node">
<title>Node17</title>
<g id="a_Node000017"><a xlink:href="../../d2/d03/PCCStraightNode_8h.html" target="_top" xlink:title="Nœud PCC représentant un StraightBlock.">
<polygon fill="white" stroke="#666666" points="411.5,-327 302.5,-327 302.5,-308 411.5,-308 411.5,-327"/>
<text text-anchor="middle" x="357" y="-315" font-family="Helvetica,sans-Serif" font-size="10.00">PCCStraightNode.h</text>
</a>
</g>
</g>
<!-- Node1&#45;&gt;Node17 -->
<g id="edge23_Node000001_Node000017" class="edge">
<title>Node1&#45;&gt;Node17</title>
<g id="a_edge23_Node000001_Node000017"><a xlink:title=" ">
<path fill="none" stroke="#63b8ff" d="M357,-362.84C357,-355.21 357,-345.7 357,-337.45"/>
<polygon fill="#63b8ff" stroke="#63b8ff" points="360.5,-337.27 357,-327.27 353.5,-337.27 360.5,-337.27"/>
</a>
</g>
</g>
<!-- Node18 -->
<g id="Node000018" class="node">
<title>Node18</title>
<g id="a_Node000018"><a xlink:href="../../de/d01/StraightBlock_8h.html" target="_top" xlink:title="Modèle de domaine d&#39;un bloc de voie droite (Straight).">
<polygon fill="white" stroke="#666666" points="690,-272 538,-272 538,-242 690,-242 690,-272"/>
<text text-anchor="start" x="546" y="-260" font-family="Helvetica,sans-Serif" font-size="10.00">Modules/Elements/Shunting</text>
<text text-anchor="middle" x="614" y="-249" font-family="Helvetica,sans-Serif" font-size="10.00">Elements/StraightBlock.h</text>
</a>
</g>
</g>
<!-- Node1&#45;&gt;Node18 -->
<g id="edge43_Node000001_Node000018" class="edge">
<title>Node1&#45;&gt;Node18</title>
<g id="a_edge43_Node000001_Node000018"><a xlink:title=" ">
<path fill="none" stroke="#63b8ff" d="M429.16,-375.03C474.87,-370.49 533.06,-358.29 575,-327 589.97,-315.84 600.02,-297.12 606.17,-282"/>
<polygon fill="#63b8ff" stroke="#63b8ff" points="609.6,-282.83 609.82,-272.24 603.04,-280.38 609.6,-282.83"/>
</a>
</g>
</g>
<!-- Node21 -->
<g id="Node000021" class="node">
<title>Node21</title>
<g id="a_Node000021"><a xlink:href="../../dc/d01/PCCSwitchNode_8h.html" target="_top" xlink:title="Nœud PCC représentant un SwitchBlock.">
<polygon fill="white" stroke="#666666" points="532.5,-327 429.5,-327 429.5,-308 532.5,-308 532.5,-327"/>
<text text-anchor="middle" x="481" y="-315" font-family="Helvetica,sans-Serif" font-size="10.00">PCCSwitchNode.h</text>
</a>
</g>
</g>
<!-- Node1&#45;&gt;Node21 -->
<g id="edge31_Node000001_Node000021" class="edge">
<title>Node1&#45;&gt;Node21</title>
<g id="a_edge31_Node000001_Node000021"><a xlink:title=" ">
<path fill="none" stroke="#63b8ff" d="M386.7,-362.99C407.02,-353.4 433.76,-340.79 453.58,-331.44"/>
<polygon fill="#63b8ff" stroke="#63b8ff" points="455.14,-334.57 462.69,-327.14 452.15,-328.24 455.14,-334.57"/>
</a>
</g>
</g>
<!-- Node22 -->
<g id="Node000022" class="node">
<title>Node22</title>
<g id="a_Node000022"><a xlink:href="../../dc/d01/SwitchBlock_8h.html" target="_top" xlink:title="Modèle de domaine d&#39;un aiguillage ferroviaire à 3 branches.">
<polygon fill="white" stroke="#666666" points="865,-272 713,-272 713,-242 865,-242 865,-272"/>
<text text-anchor="start" x="721" y="-260" font-family="Helvetica,sans-Serif" font-size="10.00">Modules/Elements/Shunting</text>
<text text-anchor="middle" x="789" y="-249" font-family="Helvetica,sans-Serif" font-size="10.00">Elements/SwitchBlock.h</text>
</a>
</g>
</g>
<!-- Node1&#45;&gt;Node22 -->
<g id="edge44_Node000001_Node000022" class="edge">
<title>Node1&#45;&gt;Node22</title>
<g id="a_edge44_Node000001_Node000022"><a xlink:title=" ">
<path fill="none" stroke="#63b8ff" d="M429.04,-364.71C477.04,-355.86 541.29,-342.73 597,-327 648.69,-312.4 706.52,-290.89 745.07,-275.77"/>
<polygon fill="#63b8ff" stroke="#63b8ff" points="746.42,-279 754.44,-272.08 743.85,-272.49 746.42,-279"/>
</a>
</g>
</g>
<!-- Node6&#45;&gt;Node7 -->
<g id="edge6_Node000006_Node000007" class="edge">
<title>Node6&#45;&gt;Node7</title>
<g id="a_edge6_Node000006_Node000007"><a xlink:title=" ">
<path fill="none" stroke="#63b8ff" d="M180.53,-181.44C190.08,-163.41 212.55,-120.96 226.69,-94.25"/>
<polygon fill="#63b8ff" stroke="#63b8ff" points="229.9,-95.67 231.48,-85.2 223.71,-92.4 229.9,-95.67"/>
</a>
</g>
</g>
<!-- Node7&#45;&gt;Node3 -->
<g id="edge12_Node000007_Node000003" class="edge">
<title>Node7&#45;&gt;Node3</title>
<g id="a_edge12_Node000007_Node000003"><a xlink:title=" ">
<path fill="none" stroke="#63b8ff" d="M294.7,-58.07C356.67,-45.9 454.66,-26.66 504.93,-16.8"/>
<polygon fill="#63b8ff" stroke="#63b8ff" points="505.76,-20.2 514.9,-14.84 504.41,-13.33 505.76,-20.2"/>
</a>
</g>
</g>
<!-- Node8 -->
<g id="Node000008" class="node">
<title>Node8</title>
<g id="a_Node000008"><a xlink:title=" ">
<polygon fill="#e0e0e0" stroke="#999999" points="236,-19 192,-19 192,0 236,0 236,-19"/>
<text text-anchor="middle" x="214" y="-7" font-family="Helvetica,sans-Serif" font-size="10.00">ctime</text>
</a>
</g>
</g>
<!-- Node7&#45;&gt;Node8 -->
<g id="edge7_Node000007_Node000008" class="edge">
<title>Node7&#45;&gt;Node8</title>
<g id="a_edge7_Node000007_Node000008"><a xlink:title=" ">
<path fill="none" stroke="#63b8ff" d="M232.95,-54.84C229.58,-46.95 225.35,-37.05 221.74,-28.61"/>
<polygon fill="#63b8ff" stroke="#63b8ff" points="224.89,-27.09 217.75,-19.27 218.46,-29.84 224.89,-27.09"/>
</a>
</g>
</g>
<!-- Node9 -->
<g id="Node000009" class="node">
<title>Node9</title>
<g id="a_Node000009"><a xlink:title=" ">
<polygon fill="#e0e0e0" stroke="#999999" points="322,-19 254,-19 254,0 322,0 322,-19"/>
<text text-anchor="middle" x="288" y="-7" font-family="Helvetica,sans-Serif" font-size="10.00">filesystem</text>
</a>
</g>
</g>
<!-- Node7&#45;&gt;Node9 -->
<g id="edge8_Node000007_Node000009" class="edge">
<title>Node7&#45;&gt;Node9</title>
<g id="a_edge8_Node000007_Node000009"><a xlink:title=" ">
<path fill="none" stroke="#63b8ff" d="M250.86,-54.84C257.9,-46.43 266.86,-35.74 274.21,-26.96"/>
<polygon fill="#63b8ff" stroke="#63b8ff" points="276.92,-29.18 280.66,-19.27 271.55,-24.68 276.92,-29.18"/>
</a>
</g>
</g>
<!-- Node10 -->
<g id="Node000010" class="node">
<title>Node10</title>
<g id="a_Node000010"><a xlink:title=" ">
<polygon fill="#e0e0e0" stroke="#999999" points="395.5,-19 340.5,-19 340.5,0 395.5,0 395.5,-19"/>
<text text-anchor="middle" x="368" y="-7" font-family="Helvetica,sans-Serif" font-size="10.00">fstream</text>
</a>
</g>
</g>
<!-- Node7&#45;&gt;Node10 -->
<g id="edge9_Node000007_Node000010" class="edge">
<title>Node7&#45;&gt;Node10</title>
<g id="a_edge9_Node000007_Node000010"><a xlink:title=" ">
<path fill="none" stroke="#63b8ff" d="M269.9,-54.99C291.13,-45.36 319.11,-32.67 339.75,-23.31"/>
<polygon fill="#63b8ff" stroke="#63b8ff" points="341.29,-26.46 348.95,-19.14 338.4,-20.08 341.29,-26.46"/>
</a>
</g>
</g>
<!-- Node11 -->
<g id="Node000011" class="node">
<title>Node11</title>
<g id="a_Node000011"><a xlink:title=" ">
<polygon fill="#e0e0e0" stroke="#999999" points="88,-19 40,-19 40,0 88,0 88,-19"/>
<text text-anchor="middle" x="64" y="-7" font-family="Helvetica,sans-Serif" font-size="10.00">mutex</text>
</a>
</g>
</g>
<!-- Node7&#45;&gt;Node11 -->
<g id="edge10_Node000007_Node000011" class="edge">
<title>Node7&#45;&gt;Node11</title>
<g id="a_edge10_Node000007_Node000011"><a xlink:title=" ">
<path fill="none" stroke="#63b8ff" d="M197.08,-54.99C166.82,-44.87 126.47,-31.38 98.17,-21.92"/>
<polygon fill="#63b8ff" stroke="#63b8ff" points="98.92,-18.48 88.32,-18.63 96.7,-25.12 98.92,-18.48"/>
</a>
</g>
</g>
<!-- Node12 -->
<g id="Node000012" class="node">
<title>Node12</title>
<g id="a_Node000012"><a xlink:title=" ">
<polygon fill="#e0e0e0" stroke="#999999" points="470,-19 414,-19 414,0 470,0 470,-19"/>
<text text-anchor="middle" x="442" y="-7" font-family="Helvetica,sans-Serif" font-size="10.00">sstream</text>
</a>
</g>
</g>
<!-- Node7&#45;&gt;Node12 -->
<g id="edge11_Node000007_Node000012" class="edge">
<title>Node7&#45;&gt;Node12</title>
<g id="a_edge11_Node000007_Node000012"><a xlink:title=" ">
<path fill="none" stroke="#63b8ff" d="M287.62,-54.99C323.34,-44.7 371.18,-30.91 404.08,-21.43"/>
<polygon fill="#63b8ff" stroke="#63b8ff" points="405.15,-24.76 413.79,-18.63 403.21,-18.04 405.15,-24.76"/>
</a>
</g>
</g>
<!-- Node13 -->
<g id="Node000013" class="node">
<title>Node13</title>
<g id="a_Node000013"><a xlink:title=" ">
<polygon fill="#e0e0e0" stroke="#999999" points="174,-19 106,-19 106,0 174,0 174,-19"/>
<text text-anchor="middle" x="140" y="-7" font-family="Helvetica,sans-Serif" font-size="10.00">windows.h</text>
</a>
</g>
</g>
<!-- Node7&#45;&gt;Node13 -->
<g id="edge13_Node000007_Node000013" class="edge">
<title>Node7&#45;&gt;Node13</title>
<g id="a_edge13_Node000007_Node000013"><a xlink:title=" ">
<path fill="none" stroke="#63b8ff" d="M215.29,-54.99C199.65,-45.75 179.26,-33.7 163.64,-24.47"/>
<polygon fill="#63b8ff" stroke="#63b8ff" points="165.01,-21.21 154.62,-19.14 161.45,-27.24 165.01,-21.21"/>
</a>
</g>
</g>
<!-- Node14&#45;&gt;Node3 -->
<g id="edge15_Node000014_Node000003" class="edge">
<title>Node14&#45;&gt;Node3</title>
<g id="a_edge15_Node000014_Node000003"><a xlink:title=" ">
<path fill="none" stroke="#63b8ff" d="M309.32,-247.23C300.3,-232.1 284.8,-200.39 296,-176 336.18,-88.5 449.14,-39.8 504.96,-20.45"/>
<polygon fill="#63b8ff" stroke="#63b8ff" points="506.32,-23.68 514.69,-17.17 504.09,-17.05 506.32,-23.68"/>
</a>
</g>
</g>
<!-- Node14&#45;&gt;Node5 -->
<g id="edge16_Node000014_Node000005" class="edge">
<title>Node14&#45;&gt;Node5</title>
<g id="a_edge16_Node000014_Node000005"><a xlink:title=" ">
<path fill="none" stroke="#63b8ff" d="M316.89,-247.37C318.92,-238.07 322.22,-222.98 324.87,-210.9"/>
<polygon fill="#63b8ff" stroke="#63b8ff" points="328.33,-211.42 327.05,-200.91 321.5,-209.93 328.33,-211.42"/>
</a>
</g>
</g>
<!-- Node14&#45;&gt;Node6 -->
<g id="edge17_Node000014_Node000006" class="edge">
<title>Node14&#45;&gt;Node6</title>
<g id="a_edge17_Node000014_Node000006"><a xlink:title=" ">
<path fill="none" stroke="#63b8ff" d="M296.25,-247.37C272.52,-236.44 231.43,-217.52 203.98,-204.88"/>
<polygon fill="#63b8ff" stroke="#63b8ff" points="205.44,-201.7 194.89,-200.7 202.51,-208.06 205.44,-201.7"/>
</a>
</g>
</g>
<!-- Node14&#45;&gt;Node7 -->
<g id="edge22_Node000014_Node000007" class="edge">
<title>Node14&#45;&gt;Node7</title>
<g id="a_edge22_Node000014_Node000007"><a xlink:title=" ">
<path fill="none" stroke="#63b8ff" d="M302.07,-247.3C289.94,-238.41 272.32,-223.46 263,-206 244.19,-170.78 239.73,-123.76 238.88,-95.52"/>
<polygon fill="#63b8ff" stroke="#63b8ff" points="242.38,-95.28 238.71,-85.34 235.38,-95.39 242.38,-95.28"/>
</a>
</g>
</g>
<!-- Node15 -->
<g id="Node000015" class="node">
<title>Node15</title>
<g id="a_Node000015"><a xlink:href="../../df/d02/ShuntingElement_8h.html" target="_top" xlink:title="Interface abstraite pour tous les éléments de shuntage ferroviaire.">
<polygon fill="white" stroke="#666666" points="528,-206 370,-206 370,-176 528,-176 528,-206"/>
<text text-anchor="start" x="378" y="-194" font-family="Helvetica,sans-Serif" font-size="10.00">Modules/Elements/Shunting</text>
<text text-anchor="middle" x="449" y="-183" font-family="Helvetica,sans-Serif" font-size="10.00">Elements/ShuntingElement.h</text>
</a>
</g>
</g>
<!-- Node14&#45;&gt;Node15 -->
<g id="edge18_Node000014_Node000015" class="edge">
<title>Node14&#45;&gt;Node15</title>
<g id="a_edge18_Node000014_Node000015"><a xlink:title=" ">
<path fill="none" stroke="#63b8ff" d="M333.07,-247.37C352.8,-237.95 384.96,-222.59 410.41,-210.43"/>
<polygon fill="#63b8ff" stroke="#63b8ff" points="411.93,-213.58 419.45,-206.12 408.91,-207.27 411.93,-213.58"/>
</a>
</g>
</g>
<!-- Node16 -->
<g id="Node000016" class="node">
<title>Node16</title>
<g id="a_Node000016"><a xlink:href="../../d5/d02/Element_8h.html" target="_top" xlink:title="Classe de base abstraite pour tous les éléments interactifs ferroviaires.">
<polygon fill="white" stroke="#666666" points="528.5,-140 369.5,-140 369.5,-121 528.5,-121 528.5,-140"/>
<text text-anchor="middle" x="449" y="-128" font-family="Helvetica,sans-Serif" font-size="10.00">Modules/Elements/Element.h</text>
</a>
</g>
</g>
<!-- Node15&#45;&gt;Node16 -->
<g id="edge19_Node000015_Node000016" class="edge">
<title>Node15&#45;&gt;Node16</title>
<g id="a_edge19_Node000015_Node000016"><a xlink:title=" ">
<path fill="none" stroke="#63b8ff" d="M449,-175.84C449,-168.21 449,-158.7 449,-150.45"/>
<polygon fill="#63b8ff" stroke="#63b8ff" points="452.5,-150.27 449,-140.27 445.5,-150.27 452.5,-150.27"/>
</a>
</g>
</g>
<!-- Node16&#45;&gt;Node3 -->
<g id="edge20_Node000016_Node000003" class="edge">
<title>Node16&#45;&gt;Node3</title>
<g id="a_edge20_Node000016_Node000003"><a xlink:title=" ">
<path fill="none" stroke="#63b8ff" d="M459.07,-120.97C468.74,-112.47 483.39,-98.74 494,-85 507.92,-66.96 520.52,-43.96 528.43,-28.32"/>
<polygon fill="#63b8ff" stroke="#63b8ff" points="531.63,-29.75 532.92,-19.23 525.35,-26.65 531.63,-29.75"/>
</a>
</g>
</g>
<!-- Node16&#45;&gt;Node7 -->
<g id="edge21_Node000016_Node000007" class="edge">
<title>Node16&#45;&gt;Node7</title>
<g id="a_edge21_Node000016_Node000007"><a xlink:title=" ">
<path fill="none" stroke="#63b8ff" d="M418.46,-120.99C387.32,-112.32 338.16,-98.62 299.17,-87.76"/>
<polygon fill="#63b8ff" stroke="#63b8ff" points="300.06,-84.38 289.49,-85.06 298.18,-91.12 300.06,-84.38"/>
</a>
</g>
</g>
<!-- Node17&#45;&gt;Node14 -->
<g id="edge24_Node000017_Node000014" class="edge">
<title>Node17&#45;&gt;Node14</title>
<g id="a_edge24_Node000017_Node000014"><a xlink:title=" ">
<path fill="none" stroke="#63b8ff" d="M350.8,-307.87C344.6,-299.23 334.89,-285.7 327.14,-274.92"/>
<polygon fill="#63b8ff" stroke="#63b8ff" points="329.9,-272.75 321.22,-266.67 324.21,-276.83 329.9,-272.75"/>
</a>
</g>
</g>
<!-- Node17&#45;&gt;Node18 -->
<g id="edge25_Node000017_Node000018" class="edge">
<title>Node17&#45;&gt;Node18</title>
<g id="a_edge25_Node000017_Node000018"><a xlink:title=" ">
<path fill="none" stroke="#63b8ff" d="M394.37,-307.99C432.97,-299.21 494.18,-285.27 542.18,-274.35"/>
<polygon fill="#63b8ff" stroke="#63b8ff" points="543.24,-277.7 552.21,-272.06 541.69,-270.87 543.24,-277.7"/>
</a>
</g>
</g>
<!-- Node18&#45;&gt;Node3 -->
<g id="edge26_Node000018_Node000003" class="edge">
<title>Node18&#45;&gt;Node3</title>
<g id="a_edge26_Node000018_Node000003"><a xlink:title=" ">
<path fill="none" stroke="#63b8ff" d="M600.42,-241.83C592.13,-232.39 582,-219.32 576,-206 548.66,-145.33 540.39,-65.52 537.96,-29.54"/>
<polygon fill="#63b8ff" stroke="#63b8ff" points="541.43,-28.88 537.35,-19.11 534.44,-29.3 541.43,-28.88"/>
</a>
</g>
</g>
<!-- Node18&#45;&gt;Node5 -->
<g id="edge27_Node000018_Node000005" class="edge">
<title>Node18&#45;&gt;Node5</title>
<g id="a_edge27_Node000018_Node000005"><a xlink:title=" ">
<path fill="none" stroke="#63b8ff" d="M537.82,-242.82C475.76,-231.74 393.31,-216.13 361,-206 359.37,-205.49 357.71,-204.92 356.05,-204.31"/>
<polygon fill="#63b8ff" stroke="#63b8ff" points="357.26,-201.03 346.68,-200.55 354.65,-207.53 357.26,-201.03"/>
</a>
</g>
</g>
<!-- Node18&#45;&gt;Node15 -->
<g id="edge28_Node000018_Node000015" class="edge">
<title>Node18&#45;&gt;Node15</title>
<g id="a_edge28_Node000018_Node000015"><a xlink:title=" ">
<path fill="none" stroke="#63b8ff" d="M577.79,-241.95C553.29,-232.45 520.73,-219.82 494.48,-209.64"/>
<polygon fill="#63b8ff" stroke="#63b8ff" points="495.71,-206.37 485.13,-206.01 493.18,-212.89 495.71,-206.37"/>
</a>
</g>
</g>
<!-- Node19 -->
<g id="Node000019" class="node">
<title>Node19</title>
<g id="a_Node000019"><a xlink:href="../../d6/d01/CoordinateLatLon_8h.html" target="_top" xlink:title="Représentation d&#39;une coordonnée géographique WGS&#45;84 (latitude, longitude).">
<polygon fill="white" stroke="#666666" points="876.5,-206 739.5,-206 739.5,-176 876.5,-176 876.5,-206"/>
<text text-anchor="start" x="747.5" y="-194" font-family="Helvetica,sans-Serif" font-size="10.00">Engine/Core/Coordinates</text>
<text text-anchor="middle" x="808" y="-183" font-family="Helvetica,sans-Serif" font-size="10.00">/CoordinateLatLon.h</text>
</a>
</g>
</g>
<!-- Node18&#45;&gt;Node19 -->
<g id="edge29_Node000018_Node000019" class="edge">
<title>Node18&#45;&gt;Node19</title>
<g id="a_edge29_Node000018_Node000019"><a xlink:title=" ">
<path fill="none" stroke="#63b8ff" d="M656.57,-241.95C685.76,-232.33 724.67,-219.49 755.74,-209.24"/>
<polygon fill="#63b8ff" stroke="#63b8ff" points="757.13,-212.47 765.53,-206.01 754.93,-205.82 757.13,-212.47"/>
</a>
</g>
</g>
<!-- Node20 -->
<g id="Node000020" class="node">
<title>Node20</title>
<g id="a_Node000020"><a xlink:href="../../db/d03/CoordinateXY_8h.html" target="_top" xlink:title="Représentation d&#39;une coordonnée plane en mètres (système métrique UTM).">
<polygon fill="white" stroke="#666666" points="721.5,-206 584.5,-206 584.5,-176 721.5,-176 721.5,-206"/>
<text text-anchor="start" x="592.5" y="-194" font-family="Helvetica,sans-Serif" font-size="10.00">Engine/Core/Coordinates</text>
<text text-anchor="middle" x="653" y="-183" font-family="Helvetica,sans-Serif" font-size="10.00">/CoordinateXY.h</text>
</a>
</g>
</g>
<!-- Node18&#45;&gt;Node20 -->
<g id="edge30_Node000018_Node000020" class="edge">
<title>Node18&#45;&gt;Node20</title>
<g id="a_edge30_Node000018_Node000020"><a xlink:title=" ">
<path fill="none" stroke="#63b8ff" d="M622.66,-241.8C627.5,-233.84 633.66,-223.74 639.16,-214.71"/>
<polygon fill="#63b8ff" stroke="#63b8ff" points="642.15,-216.52 644.37,-206.16 636.18,-212.88 642.15,-216.52"/>
</a>
</g>
</g>
<!-- Node21&#45;&gt;Node14 -->
<g id="edge32_Node000021_Node000014" class="edge">
<title>Node21&#45;&gt;Node14</title>
<g id="a_edge32_Node000021_Node000014"><a xlink:title=" ">
<path fill="none" stroke="#63b8ff" d="M456.86,-307.99C428.46,-297.99 381.12,-281.3 349.01,-269.99"/>
<polygon fill="#63b8ff" stroke="#63b8ff" points="349.76,-266.54 339.17,-266.52 347.44,-273.14 349.76,-266.54"/>
</a>
</g>
</g>
<!-- Node21&#45;&gt;Node22 -->
<g id="edge33_Node000021_Node000022" class="edge">
<title>Node21&#45;&gt;Node22</title>
<g id="a_edge33_Node000021_Node000022"><a xlink:title=" ">
<path fill="none" stroke="#63b8ff" d="M525.79,-307.99C572.71,-299.08 647.5,-284.88 705.38,-273.88"/>
<polygon fill="#63b8ff" stroke="#63b8ff" points="706.08,-277.31 715.25,-272.01 704.77,-270.44 706.08,-277.31"/>
</a>
</g>
</g>
<!-- Node22&#45;&gt;Node3 -->
<g id="edge37_Node000022_Node000003" class="edge">
<title>Node22&#45;&gt;Node3</title>
<g id="a_edge37_Node000022_Node000003"><a xlink:title=" ">
<path fill="none" stroke="#63b8ff" d="M865.12,-252.59C938.87,-246.23 1034.61,-228.03 998,-176 896.43,-31.62 656.45,-12.57 569.32,-10.53"/>
<polygon fill="#63b8ff" stroke="#63b8ff" points="569.3,-7.03 559.24,-10.35 569.18,-14.03 569.3,-7.03"/>
</a>
</g>
</g>
<!-- Node22&#45;&gt;Node5 -->
<g id="edge38_Node000022_Node000005" class="edge">
<title>Node22&#45;&gt;Node5</title>
<g id="a_edge38_Node000022_Node000005"><a xlink:title=" ">
<path fill="none" stroke="#63b8ff" d="M712.93,-243.9C708.22,-243.24 703.55,-242.6 699,-242 549.21,-222.38 507.02,-244.73 361,-206 359.11,-205.5 357.19,-204.9 355.27,-204.24"/>
<polygon fill="#63b8ff" stroke="#63b8ff" points="356.51,-200.97 345.92,-200.55 353.94,-207.48 356.51,-200.97"/>
</a>
</g>
</g>
<!-- Node22&#45;&gt;Node12 -->
<g id="edge36_Node000022_Node000012" class="edge">
<title>Node22&#45;&gt;Node12</title>
<g id="a_edge36_Node000022_Node000012"><a xlink:title=" ">
<path fill="none" stroke="#63b8ff" d="M839.88,-241.95C857.64,-234.34 875.7,-222.91 886,-206 892.94,-194.62 893.61,-186.95 886,-176 837.56,-106.25 578.51,-41.37 480.03,-18.86"/>
<polygon fill="#63b8ff" stroke="#63b8ff" points="480.72,-15.43 470.19,-16.63 479.17,-22.26 480.72,-15.43"/>
</a>
</g>
</g>
<!-- Node22&#45;&gt;Node15 -->
<g id="edge41_Node000022_Node000015" class="edge">
<title>Node22&#45;&gt;Node15</title>
<g id="a_edge41_Node000022_Node000015"><a xlink:title=" ">
<path fill="none" stroke="#63b8ff" d="M714.39,-241.95C661.02,-231.91 589.11,-218.37 533.61,-207.93"/>
<polygon fill="#63b8ff" stroke="#63b8ff" points="533.92,-204.42 523.44,-206.01 532.62,-211.3 533.92,-204.42"/>
</a>
</g>
</g>
<!-- Node22&#45;&gt;Node19 -->
<g id="edge39_Node000022_Node000019" class="edge">
<title>Node22&#45;&gt;Node19</title>
<g id="a_edge39_Node000022_Node000019"><a xlink:title=" ">
<path fill="none" stroke="#63b8ff" d="M793.22,-241.8C795.48,-234.17 798.33,-224.57 800.92,-215.84"/>
<polygon fill="#63b8ff" stroke="#63b8ff" points="804.3,-216.75 803.8,-206.16 797.59,-214.75 804.3,-216.75"/>
</a>
</g>
</g>
<!-- Node22&#45;&gt;Node20 -->
<g id="edge40_Node000022_Node000020" class="edge">
<title>Node22&#45;&gt;Node20</title>
<g id="a_edge40_Node000022_Node000020"><a xlink:title=" ">
<path fill="none" stroke="#63b8ff" d="M759.15,-241.95C739.4,-232.66 713.3,-220.38 691.92,-210.32"/>
<polygon fill="#63b8ff" stroke="#63b8ff" points="693.31,-207.1 682.78,-206.01 690.33,-213.44 693.31,-207.1"/>
</a>
</g>
</g>
<!-- Node23 -->
<g id="Node000023" class="node">
<title>Node23</title>
<g id="a_Node000023"><a xlink:title=" ">
<polygon fill="#e0e0e0" stroke="#999999" points="1087,-200.5 1045,-200.5 1045,-181.5 1087,-181.5 1087,-200.5"/>
<text text-anchor="middle" x="1066" y="-188.5" font-family="Helvetica,sans-Serif" font-size="10.00">array</text>
</a>
</g>
</g>
<!-- Node22&#45;&gt;Node23 -->
<g id="edge34_Node000022_Node000023" class="edge">
<title>Node22&#45;&gt;Node23</title>
<g id="a_edge34_Node000022_Node000023"><a xlink:title=" ">
<path fill="none" stroke="#63b8ff" d="M865.07,-243.84C913.17,-235.29 976.36,-222.43 1031,-206 1032.88,-205.43 1034.8,-204.81 1036.73,-204.15"/>
<polygon fill="#63b8ff" stroke="#63b8ff" points="1038.07,-207.38 1046.23,-200.61 1035.63,-200.82 1038.07,-207.38"/>
</a>
</g>
</g>
<!-- Node24 -->
<g id="Node000024" class="node">
<title>Node24</title>
<g id="a_Node000024"><a xlink:title=" ">
<polygon fill="#e0e0e0" stroke="#999999" points="989,-200.5 933,-200.5 933,-181.5 989,-181.5 989,-200.5"/>
<text text-anchor="middle" x="961" y="-188.5" font-family="Helvetica,sans-Serif" font-size="10.00">optional</text>
</a>
</g>
</g>
<!-- Node22&#45;&gt;Node24 -->
<g id="edge35_Node000022_Node000024" class="edge">
<title>Node22&#45;&gt;Node24</title>
<g id="a_edge35_Node000022_Node000024"><a xlink:title=" ">
<path fill="none" stroke="#63b8ff" d="M826.75,-241.95C857.18,-230.63 899.52,-214.88 928.47,-204.1"/>
<polygon fill="#63b8ff" stroke="#63b8ff" points="929.96,-207.28 938.11,-200.52 927.52,-200.72 929.96,-207.28"/>
</a>
</g>
</g>
</g>
</svg>
