<?xml version="1.0" encoding="UTF-8" standalone="no"?>
<!DOCTYPE svg PUBLIC "-//W3C//DTD SVG 1.1//EN"
 "http://www.w3.org/Graphics/SVG/1.1/DTD/svg11.dtd">
<!-- Generated by graphviz version 2.43.0 (0)
 -->
<!-- Title: SimulateurFerroviaire/Modules/PCC/PCCGraph.h Pages: 1 -->
<svg width="1031pt" height="412pt"
 viewBox="0.00 0.00 1030.50 412.00" xmlns="http://www.w3.org/2000/svg" xmlns:xlink="http://www.w3.org/1999/xlink">
<g id="graph0" class="graph" transform="scale(1 1) rotate(0) translate(4 408)">
<title>SimulateurFerroviaire/Modules/PCC/PCCGraph.h</title>
<!-- Node1 -->
<g id="Node000001" class="node">
<title>Node1</title>
<g id="a_Node000001"><a xlink:title="Conteneur propriétaire du graphe PCC.">
<polygon fill="#999999" stroke="#666666" points="437,-404 293,-404 293,-374 437,-374 437,-404"/>
<text text-anchor="start" x="301" y="-392" font-family="Helvetica,sans-Serif" font-size="10.00">SimulateurFerroviaire</text>
<text text-anchor="middle" x="365" y="-381" font-family="Helvetica,sans-Serif" font-size="10.00">/Modules/PCC/PCCGraph.h</text>
</a>
</g>
</g>
<!-- Node2 -->
<g id="Node000002" class="node">
<title>Node2</title>
<g id="a_Node000002"><a xlink:title=" ">
<polygon fill="#e0e0e0" stroke="#999999" points="58,-338 0,-338 0,-319 58,-319 58,-338"/>
<text text-anchor="middle" x="29" y="-326" font-family="Helvetica,sans-Serif" font-size="10.00">memory</text>
</a>
</g>
</g>
<!-- Node1&#45;&gt;Node2 -->
<g id="edge1_Node000001_Node000002" class="edge">
<title>Node1&#45;&gt;Node2</title>
<g id="a_edge1_Node000001_Node000002"><a xlink:title=" ">
<path fill="none" stroke="#63b8ff" d="M292.96,-376.25C233.59,-366.43 147.24,-351.85 72,-338 70.74,-337.77 69.45,-337.53 68.16,-337.29"/>
<polygon fill="#63b8ff" stroke="#63b8ff" points="68.6,-333.81 58.12,-335.36 67.29,-340.68 68.6,-333.81"/>
</a>
</g>
</g>
<!-- Node3 -->
<g id="Node000003" class="node">
<title>Node3</title>
<g id="a_Node000003"><a xlink:title=" ">
<polygon fill="#e0e0e0" stroke="#999999" points="555,-19 511,-19 511,0 555,0 555,-19"/>
<text text-anchor="middle" x="533" y="-7" font-family="Helvetica,sans-Serif" font-size="10.00">string</text>
</a>
</g>
</g>
<!-- Node1&#45;&gt;Node3 -->
<g id="edge2_Node000001_Node000003" class="edge">
<title>Node1&#45;&gt;Node3</title>
<g id="a_edge2_Node000001_Node000003"><a xlink:title=" ">
<path fill="none" stroke="#63b8ff" d="M437.01,-386.92C583.19,-382.77 901,-362.95 901,-269 901,-269 901,-269 901,-135 901,-73.47 844.81,-78.65 788,-55 712.24,-23.47 614.82,-14.28 565.18,-11.6"/>
<polygon fill="#63b8ff" stroke="#63b8ff" points="565.21,-8.1 555.06,-11.11 564.87,-15.09 565.21,-8.1"/>
</a>
</g>
</g>
<!-- Node4 -->
<g id="Node000004" class="node">
<title>Node4</title>
<g id="a_Node000004"><a xlink:title=" ">
<polygon fill="#e0e0e0" stroke="#999999" points="1022.5,-338 929.5,-338 929.5,-319 1022.5,-319 1022.5,-338"/>
<text text-anchor="middle" x="976" y="-326" font-family="Helvetica,sans-Serif" font-size="10.00">unordered_map</text>
</a>
</g>
</g>
<!-- Node1&#45;&gt;Node4 -->
<g id="edge3_Node000001_Node000004" class="edge">
<title>Node1&#45;&gt;Node4</title>
<g id="a_edge3_Node000001_Node000004"><a xlink:title=" ">
<path fill="none" stroke="#63b8ff" d="M437.19,-382.54C542.41,-374.34 744.02,-357.67 915,-338 916.46,-337.83 917.94,-337.66 919.43,-337.48"/>
<polygon fill="#63b8ff" stroke="#63b8ff" points="919.92,-340.94 929.4,-336.23 919.04,-334 919.92,-340.94"/>
</a>
</g>
</g>
<!-- Node5 -->
<g id="Node000005" class="node">
<title>Node5</title>
<g id="a_Node000005"><a xlink:title=" ">
<polygon fill="#e0e0e0" stroke="#999999" points="325.5,-211.5 278.5,-211.5 278.5,-192.5 325.5,-192.5 325.5,-211.5"/>
<text text-anchor="middle" x="302" y="-199.5" font-family="Helvetica,sans-Serif" font-size="10.00">vector</text>
</a>
</g>
</g>
<!-- Node1&#45;&gt;Node5 -->
<g id="edge4_Node000001_Node000005" class="edge">
<title>Node1&#45;&gt;Node5</title>
<g id="a_edge4_Node000001_Node000005"><a xlink:title=" ">
<path fill="none" stroke="#63b8ff" d="M339.1,-373.81C324.2,-364.83 305.77,-352.25 292,-338 271.86,-317.17 265.1,-310.82 257,-283 253.27,-270.2 252.22,-265.45 257,-253 262.16,-239.54 272.81,-227.44 282.45,-218.51"/>
<polygon fill="#63b8ff" stroke="#63b8ff" points="284.92,-221 290.17,-211.8 280.33,-215.72 284.92,-221"/>
</a>
</g>
</g>
<!-- Node6 -->
<g id="Node000006" class="node">
<title>Node6</title>
<g id="a_Node000006"><a xlink:href="../../d1/d02/PCCEdge_8h.html" target="_top" xlink:title="Connexion orientée entre deux nœuds du graphe PCC.">
<polygon fill="white" stroke="#666666" points="183.5,-211.5 114.5,-211.5 114.5,-192.5 183.5,-192.5 183.5,-211.5"/>
<text text-anchor="middle" x="149" y="-199.5" font-family="Helvetica,sans-Serif" font-size="10.00">PCCEdge.h</text>
</a>
</g>
</g>
<!-- Node1&#45;&gt;Node6 -->
<g id="edge5_Node000001_Node000006" class="edge">
<title>Node1&#45;&gt;Node6</title>
<g id="a_edge5_Node000001_Node000006"><a xlink:title=" ">
<path fill="none" stroke="#63b8ff" d="M331.99,-373.91C313.16,-365.05 289.66,-352.55 271,-338 224.67,-301.87 181.27,-246.99 160.99,-219.67"/>
<polygon fill="#63b8ff" stroke="#63b8ff" points="163.76,-217.52 155.03,-211.52 158.11,-221.66 163.76,-217.52"/>
</a>
</g>
</g>
<!-- Node7 -->
<g id="Node000007" class="node">
<title>Node7</title>
<g id="a_Node000007"><a xlink:href="../../dd/d00/Logger_8h.html" target="_top" xlink:title="Système de journalisation à 5 niveaux de trace, un fichier par moteur.">
<polygon fill="white" stroke="#666666" points="221.5,-85 110.5,-85 110.5,-55 221.5,-55 221.5,-85"/>
<text text-anchor="start" x="118.5" y="-73" font-family="Helvetica,sans-Serif" font-size="10.00">Engine/Core/Logger</text>
<text text-anchor="middle" x="166" y="-62" font-family="Helvetica,sans-Serif" font-size="10.00">/Logger.h</text>
</a>
</g>
</g>
<!-- Node1&#45;&gt;Node7 -->
<g id="edge38_Node000001_Node000007" class="edge">
<title>Node1&#45;&gt;Node7</title>
<g id="a_edge38_Node000001_Node000007"><a xlink:title=" ">
<path fill="none" stroke="#63b8ff" d="M292.79,-387.11C210.12,-381.83 86,-358.92 86,-269 86,-269 86,-269 86,-201 86,-157.48 118.92,-116.3 142.53,-92.36"/>
<polygon fill="#63b8ff" stroke="#63b8ff" points="145.12,-94.72 149.81,-85.22 140.22,-89.72 145.12,-94.72"/>
</a>
</g>
</g>
<!-- Node13 -->
<g id="Node000013" class="node">
<title>Node13</title>
<g id="a_Node000013"><a xlink:href="../../d6/d01/PCCNode_8h.html" target="_top" xlink:title="Nœud abstrait du graphe PCC représentant un bloc ferroviaire.">
<polygon fill="white" stroke="#666666" points="337.5,-277.5 266.5,-277.5 266.5,-258.5 337.5,-258.5 337.5,-277.5"/>
<text text-anchor="middle" x="302" y="-265.5" font-family="Helvetica,sans-Serif" font-size="10.00">PCCNode.h</text>
</a>
</g>
</g>
<!-- Node1&#45;&gt;Node13 -->
<g id="edge13_Node000001_Node000013" class="edge">
<title>Node1&#45;&gt;Node13</title>
<g id="a_edge13_Node000001_Node000013"><a xlink:title=" ">
<path fill="none" stroke="#63b8ff" d="M336.95,-373.95C323.43,-365.54 308.54,-353.46 301,-338 293.3,-322.21 294.75,-301.87 297.39,-287.38"/>
<polygon fill="#63b8ff" stroke="#63b8ff" points="300.81,-288.12 299.51,-277.6 293.97,-286.63 300.81,-288.12"/>
</a>
</g>
</g>
<!-- Node16 -->
<g id="Node000016" class="node">
<title>Node16</title>
<g id="a_Node000016"><a xlink:href="../../d2/d03/PCCStraightNode_8h.html" target="_top" xlink:title="Nœud PCC représentant un StraightBlock.">
<polygon fill="white" stroke="#666666" points="419.5,-338 310.5,-338 310.5,-319 419.5,-319 419.5,-338"/>
<text text-anchor="middle" x="365" y="-326" font-family="Helvetica,sans-Serif" font-size="10.00">PCCStraightNode.h</text>
</a>
</g>
</g>
<!-- Node1&#45;&gt;Node16 -->
<g id="edge22_Node000001_Node000016" class="edge">
<title>Node1&#45;&gt;Node16</title>
<g id="a_edge22_Node000001_Node000016"><a xlink:title=" ">
<path fill="none" stroke="#63b8ff" d="M365,-373.84C365,-366.21 365,-356.7 365,-348.45"/>
<polygon fill="#63b8ff" stroke="#63b8ff" points="368.5,-348.27 365,-338.27 361.5,-348.27 368.5,-348.27"/>
</a>
</g>
</g>
<!-- Node17 -->
<g id="Node000017" class="node">
<title>Node17</title>
<g id="a_Node000017"><a xlink:href="../../de/d01/StraightBlock_8h.html" target="_top" xlink:title="Modèle de domaine d&#39;un bloc de voie droite (Straight).">
<polygon fill="white" stroke="#666666" points="540.5,-283 355.5,-283 355.5,-253 540.5,-253 540.5,-283"/>
<text text-anchor="start" x="363.5" y="-271" font-family="Helvetica,sans-Serif" font-size="10.00">Modules/InteractiveElements</text>
<text text-anchor="middle" x="448" y="-260" font-family="Helvetica,sans-Serif" font-size="10.00">/ShuntingElements/StraightBlock.h</text>
</a>
</g>
</g>
<!-- Node1&#45;&gt;Node17 -->
<g id="edge39_Node000001_Node000017" class="edge">
<title>Node1&#45;&gt;Node17</title>
<g id="a_edge39_Node000001_Node000017"><a xlink:title=" ">
<path fill="none" stroke="#63b8ff" d="M389.34,-373.92C402.54,-365.15 418.12,-352.73 428,-338 437.03,-324.55 442.04,-306.98 444.79,-292.94"/>
<polygon fill="#63b8ff" stroke="#63b8ff" points="448.25,-293.46 446.48,-283.02 441.35,-292.29 448.25,-293.46"/>
</a>
</g>
</g>
<!-- Node19 -->
<g id="Node000019" class="node">
<title>Node19</title>
<g id="a_Node000019"><a xlink:href="../../dc/d01/PCCSwitchNode_8h.html" target="_top" xlink:title="Nœud PCC représentant un SwitchBlock.">
<polygon fill="white" stroke="#666666" points="579.5,-338 476.5,-338 476.5,-319 579.5,-319 579.5,-338"/>
<text text-anchor="middle" x="528" y="-326" font-family="Helvetica,sans-Serif" font-size="10.00">PCCSwitchNode.h</text>
</a>
</g>
</g>
<!-- Node1&#45;&gt;Node19 -->
<g id="edge29_Node000001_Node000019" class="edge">
<title>Node1&#45;&gt;Node19</title>
<g id="a_edge29_Node000001_Node000019"><a xlink:title=" ">
<path fill="none" stroke="#63b8ff" d="M404.04,-373.99C431.6,-364.1 468.15,-350.98 494.41,-341.56"/>
<polygon fill="#63b8ff" stroke="#63b8ff" points="495.7,-344.81 503.93,-338.14 493.33,-338.22 495.7,-344.81"/>
</a>
</g>
</g>
<!-- Node20 -->
<g id="Node000020" class="node">
<title>Node20</title>
<g id="a_Node000020"><a xlink:href="../../dc/d01/SwitchBlock_8h.html" target="_top" xlink:title="Modèle de domaine d&#39;un aiguillage ferroviaire à 3 branches.">
<polygon fill="white" stroke="#666666" points="745.5,-283 566.5,-283 566.5,-253 745.5,-253 745.5,-283"/>
<text text-anchor="start" x="574.5" y="-271" font-family="Helvetica,sans-Serif" font-size="10.00">Modules/InteractiveElements</text>
<text text-anchor="middle" x="656" y="-260" font-family="Helvetica,sans-Serif" font-size="10.00">/ShuntingElements/SwitchBlock.h</text>
</a>
</g>
</g>
<!-- Node1&#45;&gt;Node20 -->
<g id="edge40_Node000001_Node000020" class="edge">
<title>Node1&#45;&gt;Node20</title>
<g id="a_edge40_Node000001_Node000020"><a xlink:title=" ">
<path fill="none" stroke="#63b8ff" d="M437.12,-382.54C482.99,-376.58 542.31,-364.11 589,-338 609.66,-326.45 627.98,-306.53 640.22,-291.06"/>
<polygon fill="#63b8ff" stroke="#63b8ff" points="643.09,-293.07 646.37,-283 637.52,-288.83 643.09,-293.07"/>
</a>
</g>
</g>
<!-- Node6&#45;&gt;Node7 -->
<g id="edge6_Node000006_Node000007" class="edge">
<title>Node6&#45;&gt;Node7</title>
<g id="a_edge6_Node000006_Node000007"><a xlink:title=" ">
<path fill="none" stroke="#63b8ff" d="M150.12,-192.47C152.66,-173.04 158.96,-124.87 162.81,-95.36"/>
<polygon fill="#63b8ff" stroke="#63b8ff" points="166.33,-95.44 164.16,-85.07 159.39,-94.53 166.33,-95.44"/>
</a>
</g>
</g>
<!-- Node7&#45;&gt;Node3 -->
<g id="edge12_Node000007_Node000003" class="edge">
<title>Node7&#45;&gt;Node3</title>
<g id="a_edge12_Node000007_Node000003"><a xlink:title=" ">
<path fill="none" stroke="#63b8ff" d="M221.74,-57.6C226.56,-56.69 231.36,-55.81 236,-55 332.06,-38.21 446.29,-22.2 500.86,-14.79"/>
<polygon fill="#63b8ff" stroke="#63b8ff" points="501.52,-18.24 510.96,-13.43 500.58,-11.3 501.52,-18.24"/>
</a>
</g>
</g>
<!-- Node8 -->
<g id="Node000008" class="node">
<title>Node8</title>
<g id="a_Node000008"><a xlink:title=" ">
<polygon fill="#e0e0e0" stroke="#999999" points="287,-19 243,-19 243,0 287,0 287,-19"/>
<text text-anchor="middle" x="265" y="-7" font-family="Helvetica,sans-Serif" font-size="10.00">ctime</text>
</a>
</g>
</g>
<!-- Node7&#45;&gt;Node8 -->
<g id="edge7_Node000007_Node000008" class="edge">
<title>Node7&#45;&gt;Node8</title>
<g id="a_edge7_Node000007_Node000008"><a xlink:title=" ">
<path fill="none" stroke="#63b8ff" d="M189.71,-54.99C205.35,-45.75 225.74,-33.7 241.36,-24.47"/>
<polygon fill="#63b8ff" stroke="#63b8ff" points="243.55,-27.24 250.38,-19.14 239.99,-21.21 243.55,-27.24"/>
</a>
</g>
</g>
<!-- Node9 -->
<g id="Node000009" class="node">
<title>Node9</title>
<g id="a_Node000009"><a xlink:title=" ">
<polygon fill="#e0e0e0" stroke="#999999" points="85,-19 17,-19 17,0 85,0 85,-19"/>
<text text-anchor="middle" x="51" y="-7" font-family="Helvetica,sans-Serif" font-size="10.00">filesystem</text>
</a>
</g>
</g>
<!-- Node7&#45;&gt;Node9 -->
<g id="edge8_Node000007_Node000009" class="edge">
<title>Node7&#45;&gt;Node9</title>
<g id="a_edge8_Node000007_Node000009"><a xlink:title=" ">
<path fill="none" stroke="#63b8ff" d="M138.45,-54.99C119.78,-45.49 95.26,-33.02 76.94,-23.69"/>
<polygon fill="#63b8ff" stroke="#63b8ff" points="78.48,-20.55 67.98,-19.14 75.31,-26.79 78.48,-20.55"/>
</a>
</g>
</g>
<!-- Node10 -->
<g id="Node000010" class="node">
<title>Node10</title>
<g id="a_Node000010"><a xlink:title=" ">
<polygon fill="#e0e0e0" stroke="#999999" points="158.5,-19 103.5,-19 103.5,0 158.5,0 158.5,-19"/>
<text text-anchor="middle" x="131" y="-7" font-family="Helvetica,sans-Serif" font-size="10.00">fstream</text>
</a>
</g>
</g>
<!-- Node7&#45;&gt;Node10 -->
<g id="edge9_Node000007_Node000010" class="edge">
<title>Node7&#45;&gt;Node10</title>
<g id="a_edge9_Node000007_Node000010"><a xlink:title=" ">
<path fill="none" stroke="#63b8ff" d="M157.53,-54.84C152.71,-46.78 146.63,-36.62 141.5,-28.06"/>
<polygon fill="#63b8ff" stroke="#63b8ff" points="144.38,-26.05 136.24,-19.27 138.38,-29.64 144.38,-26.05"/>
</a>
</g>
</g>
<!-- Node11 -->
<g id="Node000011" class="node">
<title>Node11</title>
<g id="a_Node000011"><a xlink:title=" ">
<polygon fill="#e0e0e0" stroke="#999999" points="225,-19 177,-19 177,0 225,0 225,-19"/>
<text text-anchor="middle" x="201" y="-7" font-family="Helvetica,sans-Serif" font-size="10.00">mutex</text>
</a>
</g>
</g>
<!-- Node7&#45;&gt;Node11 -->
<g id="edge10_Node000007_Node000011" class="edge">
<title>Node7&#45;&gt;Node11</title>
<g id="a_edge10_Node000007_Node000011"><a xlink:title=" ">
<path fill="none" stroke="#63b8ff" d="M174.47,-54.84C179.29,-46.78 185.37,-36.62 190.5,-28.06"/>
<polygon fill="#63b8ff" stroke="#63b8ff" points="193.62,-29.64 195.76,-19.27 187.62,-26.05 193.62,-29.64"/>
</a>
</g>
</g>
<!-- Node12 -->
<g id="Node000012" class="node">
<title>Node12</title>
<g id="a_Node000012"><a xlink:title=" ">
<polygon fill="#e0e0e0" stroke="#999999" points="424,-19 368,-19 368,0 424,0 424,-19"/>
<text text-anchor="middle" x="396" y="-7" font-family="Helvetica,sans-Serif" font-size="10.00">sstream</text>
</a>
</g>
</g>
<!-- Node7&#45;&gt;Node12 -->
<g id="edge11_Node000007_Node000012" class="edge">
<title>Node7&#45;&gt;Node12</title>
<g id="a_edge11_Node000007_Node000012"><a xlink:title=" ">
<path fill="none" stroke="#63b8ff" d="M221.09,-54.99C263.36,-44.24 320.62,-29.67 357.93,-20.18"/>
<polygon fill="#63b8ff" stroke="#63b8ff" points="359.07,-23.51 367.89,-17.65 357.34,-16.72 359.07,-23.51"/>
</a>
</g>
</g>
<!-- Node13&#45;&gt;Node3 -->
<g id="edge14_Node000013_Node000003" class="edge">
<title>Node13&#45;&gt;Node3</title>
<g id="a_edge14_Node000013_Node000003"><a xlink:title=" ">
<path fill="none" stroke="#63b8ff" d="M293.59,-258.42C280.12,-243.58 256.44,-212.3 269,-187 316.29,-91.77 442.14,-39.86 501.36,-20.04"/>
<polygon fill="#63b8ff" stroke="#63b8ff" points="502.51,-23.34 510.94,-16.92 500.35,-16.69 502.51,-23.34"/>
</a>
</g>
</g>
<!-- Node13&#45;&gt;Node5 -->
<g id="edge15_Node000013_Node000005" class="edge">
<title>Node13&#45;&gt;Node5</title>
<g id="a_edge15_Node000013_Node000005"><a xlink:title=" ">
<path fill="none" stroke="#63b8ff" d="M302,-258.37C302,-249.16 302,-234.29 302,-222.27"/>
<polygon fill="#63b8ff" stroke="#63b8ff" points="305.5,-221.91 302,-211.91 298.5,-221.91 305.5,-221.91"/>
</a>
</g>
</g>
<!-- Node13&#45;&gt;Node6 -->
<g id="edge16_Node000013_Node000006" class="edge">
<title>Node13&#45;&gt;Node6</title>
<g id="a_edge16_Node000013_Node000006"><a xlink:title=" ">
<path fill="none" stroke="#63b8ff" d="M281.37,-258.37C255.13,-247.39 209.62,-228.36 179.41,-215.72"/>
<polygon fill="#63b8ff" stroke="#63b8ff" points="180.37,-212.33 169.8,-211.7 177.67,-218.79 180.37,-212.33"/>
</a>
</g>
</g>
<!-- Node13&#45;&gt;Node7 -->
<g id="edge21_Node000013_Node000007" class="edge">
<title>Node13&#45;&gt;Node7</title>
<g id="a_edge21_Node000013_Node000007"><a xlink:title=" ">
<path fill="none" stroke="#63b8ff" d="M286.7,-258.36C272.14,-249.52 250.37,-234.59 236,-217 205.15,-179.22 183.96,-125.57 173.51,-94.93"/>
<polygon fill="#63b8ff" stroke="#63b8ff" points="176.72,-93.51 170.26,-85.11 170.08,-95.7 176.72,-93.51"/>
</a>
</g>
</g>
<!-- Node14 -->
<g id="Node000014" class="node">
<title>Node14</title>
<g id="a_Node000014"><a xlink:href="../../df/d02/ShuntingElement_8h.html" target="_top" xlink:title="Interface abstraite pour tous les éléments de shuntage ferroviaire.">
<polygon fill="white" stroke="#666666" points="546.5,-217 343.5,-217 343.5,-187 546.5,-187 546.5,-217"/>
<text text-anchor="start" x="351.5" y="-205" font-family="Helvetica,sans-Serif" font-size="10.00">Modules/InteractiveElements</text>
<text text-anchor="middle" x="445" y="-194" font-family="Helvetica,sans-Serif" font-size="10.00">/ShuntingElements/ShuntingElement.h</text>
</a>
</g>
</g>
<!-- Node13&#45;&gt;Node14 -->
<g id="edge17_Node000013_Node000014" class="edge">
<title>Node13&#45;&gt;Node14</title>
<g id="a_edge17_Node000013_Node000014"><a xlink:title=" ">
<path fill="none" stroke="#63b8ff" d="M321.29,-258.37C342.43,-248.91 376.96,-233.45 404.17,-221.27"/>
<polygon fill="#63b8ff" stroke="#63b8ff" points="405.76,-224.4 413.46,-217.12 402.9,-218.01 405.76,-224.4"/>
</a>
</g>
</g>
<!-- Node15 -->
<g id="Node000015" class="node">
<title>Node15</title>
<g id="a_Node000015"><a xlink:href="../../d6/d02/InteractiveElement_8h.html" target="_top" xlink:title="Classe de base abstraite pour tous les éléments interactifs ferroviaires.">
<polygon fill="white" stroke="#666666" points="524.5,-151 365.5,-151 365.5,-121 524.5,-121 524.5,-151"/>
<text text-anchor="start" x="373.5" y="-139" font-family="Helvetica,sans-Serif" font-size="10.00">Modules/InteractiveElements</text>
<text text-anchor="middle" x="445" y="-128" font-family="Helvetica,sans-Serif" font-size="10.00">/InteractiveElement.h</text>
</a>
</g>
</g>
<!-- Node14&#45;&gt;Node15 -->
<g id="edge18_Node000014_Node000015" class="edge">
<title>Node14&#45;&gt;Node15</title>
<g id="a_edge18_Node000014_Node000015"><a xlink:title=" ">
<path fill="none" stroke="#63b8ff" d="M445,-186.8C445,-179.34 445,-169.99 445,-161.41"/>
<polygon fill="#63b8ff" stroke="#63b8ff" points="448.5,-161.16 445,-151.16 441.5,-161.16 448.5,-161.16"/>
</a>
</g>
</g>
<!-- Node15&#45;&gt;Node3 -->
<g id="edge19_Node000015_Node000003" class="edge">
<title>Node15&#45;&gt;Node3</title>
<g id="a_edge19_Node000015_Node000003"><a xlink:title=" ">
<path fill="none" stroke="#63b8ff" d="M455.09,-120.72C471.43,-97.61 503.58,-52.13 521.03,-27.43"/>
<polygon fill="#63b8ff" stroke="#63b8ff" points="524.03,-29.26 526.94,-19.07 518.31,-25.22 524.03,-29.26"/>
</a>
</g>
</g>
<!-- Node15&#45;&gt;Node7 -->
<g id="edge20_Node000015_Node000007" class="edge">
<title>Node15&#45;&gt;Node7</title>
<g id="a_edge20_Node000015_Node000007"><a xlink:title=" ">
<path fill="none" stroke="#63b8ff" d="M383.77,-120.95C338.79,-110.64 277.75,-96.64 231.74,-86.08"/>
<polygon fill="#63b8ff" stroke="#63b8ff" points="232.4,-82.64 221.87,-83.82 230.84,-89.46 232.4,-82.64"/>
</a>
</g>
</g>
<!-- Node16&#45;&gt;Node13 -->
<g id="edge23_Node000016_Node000013" class="edge">
<title>Node16&#45;&gt;Node13</title>
<g id="a_edge23_Node000016_Node000013"><a xlink:title=" ">
<path fill="none" stroke="#63b8ff" d="M355.7,-318.87C346.03,-309.88 330.66,-295.61 318.84,-284.64"/>
<polygon fill="#63b8ff" stroke="#63b8ff" points="321.04,-281.91 311.33,-277.67 316.28,-287.04 321.04,-281.91"/>
</a>
</g>
</g>
<!-- Node16&#45;&gt;Node17 -->
<g id="edge24_Node000016_Node000017" class="edge">
<title>Node16&#45;&gt;Node17</title>
<g id="a_edge24_Node000016_Node000017"><a xlink:title=" ">
<path fill="none" stroke="#63b8ff" d="M377.25,-318.87C388.4,-311 405.3,-299.09 419.79,-288.89"/>
<polygon fill="#63b8ff" stroke="#63b8ff" points="421.82,-291.74 427.97,-283.11 417.78,-286.01 421.82,-291.74"/>
</a>
</g>
</g>
<!-- Node17&#45;&gt;Node3 -->
<g id="edge25_Node000017_Node000003" class="edge">
<title>Node17&#45;&gt;Node3</title>
<g id="a_edge25_Node000017_Node000003"><a xlink:title=" ">
<path fill="none" stroke="#63b8ff" d="M507.07,-252.97C525.63,-245.48 544.1,-234.12 555,-217 593.22,-156.95 559.4,-66.7 541.93,-28.55"/>
<polygon fill="#63b8ff" stroke="#63b8ff" points="544.96,-26.77 537.51,-19.24 538.63,-29.77 544.96,-26.77"/>
</a>
</g>
</g>
<!-- Node17&#45;&gt;Node5 -->
<g id="edge26_Node000017_Node000005" class="edge">
<title>Node17&#45;&gt;Node5</title>
<g id="a_edge26_Node000017_Node000005"><a xlink:title=" ">
<path fill="none" stroke="#63b8ff" d="M415.96,-252.95C390.58,-241.83 355.44,-226.42 330.91,-215.67"/>
<polygon fill="#63b8ff" stroke="#63b8ff" points="331.99,-212.33 321.43,-211.52 329.18,-218.74 331.99,-212.33"/>
</a>
</g>
</g>
<!-- Node17&#45;&gt;Node14 -->
<g id="edge27_Node000017_Node000014" class="edge">
<title>Node17&#45;&gt;Node14</title>
<g id="a_edge27_Node000017_Node000014"><a xlink:title=" ">
<path fill="none" stroke="#63b8ff" d="M447.33,-252.8C446.98,-245.34 446.55,-235.99 446.14,-227.41"/>
<polygon fill="#63b8ff" stroke="#63b8ff" points="449.63,-226.99 445.66,-217.16 442.64,-227.32 449.63,-226.99"/>
</a>
</g>
</g>
<!-- Node18 -->
<g id="Node000018" class="node">
<title>Node18</title>
<g id="a_Node000018"><a xlink:href="../../df/d02/LatLon_8h.html" target="_top" xlink:title="Représentation d&#39;une coordonnée géographique WGS&#45;84 (latitude, longitude).">
<polygon fill="white" stroke="#666666" points="722.5,-217 603.5,-217 603.5,-187 722.5,-187 722.5,-217"/>
<text text-anchor="start" x="611.5" y="-205" font-family="Helvetica,sans-Serif" font-size="10.00">Modules/Coordinates</text>
<text text-anchor="middle" x="663" y="-194" font-family="Helvetica,sans-Serif" font-size="10.00">/LatLon.h</text>
</a>
</g>
</g>
<!-- Node17&#45;&gt;Node18 -->
<g id="edge28_Node000017_Node000018" class="edge">
<title>Node17&#45;&gt;Node18</title>
<g id="a_edge28_Node000017_Node000018"><a xlink:title=" ">
<path fill="none" stroke="#63b8ff" d="M495.18,-252.95C527.81,-243.24 571.4,-230.27 605.97,-219.98"/>
<polygon fill="#63b8ff" stroke="#63b8ff" points="607.34,-223.22 615.93,-217.01 605.34,-216.51 607.34,-223.22"/>
</a>
</g>
</g>
<!-- Node19&#45;&gt;Node13 -->
<g id="edge30_Node000019_Node000013" class="edge">
<title>Node19&#45;&gt;Node13</title>
<g id="a_edge30_Node000019_Node000013"><a xlink:title=" ">
<path fill="none" stroke="#63b8ff" d="M489.81,-318.96C452.84,-310.51 395.32,-296.86 346,-283 343.25,-282.23 340.41,-281.4 337.57,-280.54"/>
<polygon fill="#63b8ff" stroke="#63b8ff" points="338.56,-277.19 327.97,-277.59 336.5,-283.88 338.56,-277.19"/>
</a>
</g>
</g>
<!-- Node19&#45;&gt;Node20 -->
<g id="edge31_Node000019_Node000020" class="edge">
<title>Node19&#45;&gt;Node20</title>
<g id="a_edge31_Node000019_Node000020"><a xlink:title=" ">
<path fill="none" stroke="#63b8ff" d="M546.61,-318.99C564.65,-310.75 592.6,-297.98 615.73,-287.4"/>
<polygon fill="#63b8ff" stroke="#63b8ff" points="617.34,-290.52 624.98,-283.18 614.43,-284.15 617.34,-290.52"/>
</a>
</g>
</g>
<!-- Node20&#45;&gt;Node3 -->
<g id="edge34_Node000020_Node000003" class="edge">
<title>Node20&#45;&gt;Node3</title>
<g id="a_edge34_Node000020_Node000003"><a xlink:title=" ">
<path fill="none" stroke="#63b8ff" d="M716.72,-253C735.43,-245.53 753.98,-234.17 765,-217 803.88,-156.4 810.87,-110.5 765,-55 740.04,-24.79 623.06,-14.89 565.35,-11.81"/>
<polygon fill="#63b8ff" stroke="#63b8ff" points="565.47,-8.31 555.3,-11.31 565.12,-15.3 565.47,-8.31"/>
</a>
</g>
</g>
<!-- Node20&#45;&gt;Node5 -->
<g id="edge35_Node000020_Node000005" class="edge">
<title>Node20&#45;&gt;Node5</title>
<g id="a_edge35_Node000020_Node000005"><a xlink:title=" ">
<path fill="none" stroke="#63b8ff" d="M566.13,-254.26C478.72,-241.67 355.97,-223.39 334,-217 332.32,-216.51 330.61,-215.95 328.9,-215.35"/>
<polygon fill="#63b8ff" stroke="#63b8ff" points="329.89,-211.98 319.3,-211.54 327.3,-218.48 329.89,-211.98"/>
</a>
</g>
</g>
<!-- Node20&#45;&gt;Node12 -->
<g id="edge33_Node000020_Node000012" class="edge">
<title>Node20&#45;&gt;Node12</title>
<g id="a_edge33_Node000020_Node000012"><a xlink:title=" ">
<path fill="none" stroke="#63b8ff" d="M691.53,-252.96C706.89,-244.9 723.31,-233.13 732,-217 738.33,-205.26 738.9,-198.41 732,-187 666.06,-77.88 507.86,-32.89 434.53,-17.41"/>
<polygon fill="#63b8ff" stroke="#63b8ff" points="434.84,-13.91 424.35,-15.34 433.45,-20.77 434.84,-13.91"/>
</a>
</g>
</g>
<!-- Node20&#45;&gt;Node14 -->
<g id="edge37_Node000020_Node000014" class="edge">
<title>Node20&#45;&gt;Node14</title>
<g id="a_edge37_Node000020_Node000014"><a xlink:title=" ">
<path fill="none" stroke="#63b8ff" d="M609.7,-252.95C577.68,-243.24 534.9,-230.27 500.97,-219.98"/>
<polygon fill="#63b8ff" stroke="#63b8ff" points="501.78,-216.57 491.2,-217.01 499.75,-223.26 501.78,-216.57"/>
</a>
</g>
</g>
<!-- Node20&#45;&gt;Node18 -->
<g id="edge36_Node000020_Node000018" class="edge">
<title>Node20&#45;&gt;Node18</title>
<g id="a_edge36_Node000020_Node000018"><a xlink:title=" ">
<path fill="none" stroke="#63b8ff" d="M657.55,-252.8C658.38,-245.26 659.41,-235.78 660.36,-227.13"/>
<polygon fill="#63b8ff" stroke="#63b8ff" points="663.84,-227.49 661.45,-217.16 656.88,-226.72 663.84,-227.49"/>
</a>
</g>
</g>
<!-- Node21 -->
<g id="Node000021" class="node">
<title>Node21</title>
<g id="a_Node000021"><a xlink:title=" ">
<polygon fill="#e0e0e0" stroke="#999999" points="873,-211.5 817,-211.5 817,-192.5 873,-192.5 873,-211.5"/>
<text text-anchor="middle" x="845" y="-199.5" font-family="Helvetica,sans-Serif" font-size="10.00">optional</text>
</a>
</g>
</g>
<!-- Node20&#45;&gt;Node21 -->
<g id="edge32_Node000020_Node000021" class="edge">
<title>Node20&#45;&gt;Node21</title>
<g id="a_edge32_Node000020_Node000021"><a xlink:title=" ">
<path fill="none" stroke="#63b8ff" d="M697.48,-252.95C731.21,-241.53 778.26,-225.6 810.09,-214.82"/>
<polygon fill="#63b8ff" stroke="#63b8ff" points="811.5,-218.04 819.85,-211.52 809.25,-211.41 811.5,-218.04"/>
</a>
</g>
</g>
</g>
</svg>
