<?xml version="1.0" encoding="UTF-8" standalone="no"?>
<!DOCTYPE svg PUBLIC "-//W3C//DTD SVG 1.1//EN"
 "http://www.w3.org/Graphics/SVG/1.1/DTD/svg11.dtd">
<!-- Generated by graphviz version 2.43.0 (0)
 -->
<!-- Title: SimulateurFerroviaire/Engine/Core/Topology/TopologyRepository.h Pages: 1 -->
<svg width="715pt" height="423pt"
 viewBox="0.00 0.00 715.00 423.00" xmlns="http://www.w3.org/2000/svg" xmlns:xlink="http://www.w3.org/1999/xlink">
<g id="graph0" class="graph" transform="scale(1 1) rotate(0) translate(4 419)">
<title>SimulateurFerroviaire/Engine/Core/Topology/TopologyRepository.h</title>
<!-- Node1 -->
<g id="Node000001" class="node">
<title>Node1</title>
<g id="a_Node000001"><a xlink:title="Singleton de stockage des données topologiques ferroviaires.">
<polygon fill="#999999" stroke="#666666" points="268.5,-415 143.5,-415 143.5,-374 268.5,-374 268.5,-415"/>
<text text-anchor="start" x="151.5" y="-403" font-family="Helvetica,sans-Serif" font-size="10.00">SimulateurFerroviaire</text>
<text text-anchor="start" x="151.5" y="-392" font-family="Helvetica,sans-Serif" font-size="10.00">/Engine/Core/Topology</text>
<text text-anchor="middle" x="206" y="-381" font-family="Helvetica,sans-Serif" font-size="10.00">/TopologyRepository.h</text>
</a>
</g>
</g>
<!-- Node2 -->
<g id="Node000002" class="node">
<title>Node2</title>
<g id="a_Node000002"><a xlink:href="../../d6/d02/TopologyData_8h.html" target="_top" xlink:title="Conteneur central des données topologiques ferroviaires.">
<polygon fill="white" stroke="#666666" points="252,-338 160,-338 160,-319 252,-319 252,-338"/>
<text text-anchor="middle" x="206" y="-326" font-family="Helvetica,sans-Serif" font-size="10.00">TopologyData.h</text>
</a>
</g>
</g>
<!-- Node1&#45;&gt;Node2 -->
<g id="edge1_Node000001_Node000002" class="edge">
<title>Node1&#45;&gt;Node2</title>
<g id="a_edge1_Node000001_Node000002"><a xlink:title=" ">
<path fill="none" stroke="#63b8ff" d="M206,-373.95C206,-365.85 206,-356.5 206,-348.47"/>
<polygon fill="#63b8ff" stroke="#63b8ff" points="209.5,-348.26 206,-338.26 202.5,-348.26 209.5,-348.26"/>
</a>
</g>
</g>
<!-- Node3 -->
<g id="Node000003" class="node">
<title>Node3</title>
<g id="a_Node000003"><a xlink:title=" ">
<polygon fill="#e0e0e0" stroke="#999999" points="58,-277.5 0,-277.5 0,-258.5 58,-258.5 58,-277.5"/>
<text text-anchor="middle" x="29" y="-265.5" font-family="Helvetica,sans-Serif" font-size="10.00">memory</text>
</a>
</g>
</g>
<!-- Node2&#45;&gt;Node3 -->
<g id="edge2_Node000002_Node000003" class="edge">
<title>Node2&#45;&gt;Node3</title>
<g id="a_edge2_Node000002_Node000003"><a xlink:title=" ">
<path fill="none" stroke="#63b8ff" d="M180.26,-318.99C149.72,-308.9 98.63,-292.01 64.38,-280.69"/>
<polygon fill="#63b8ff" stroke="#63b8ff" points="65.36,-277.33 54.77,-277.52 63.16,-283.98 65.36,-277.33"/>
</a>
</g>
</g>
<!-- Node4 -->
<g id="Node000004" class="node">
<title>Node4</title>
<g id="a_Node000004"><a xlink:title=" ">
<polygon fill="#e0e0e0" stroke="#999999" points="109.5,-211.5 62.5,-211.5 62.5,-192.5 109.5,-192.5 109.5,-211.5"/>
<text text-anchor="middle" x="86" y="-199.5" font-family="Helvetica,sans-Serif" font-size="10.00">vector</text>
</a>
</g>
</g>
<!-- Node2&#45;&gt;Node4 -->
<g id="edge3_Node000002_Node000004" class="edge">
<title>Node2&#45;&gt;Node4</title>
<g id="a_edge3_Node000002_Node000004"><a xlink:title=" ">
<path fill="none" stroke="#63b8ff" d="M165.77,-318.93C144.77,-312.44 120.33,-301.4 105,-283 90.61,-265.72 86.74,-239.42 85.88,-221.74"/>
<polygon fill="#63b8ff" stroke="#63b8ff" points="89.38,-221.48 85.68,-211.55 82.38,-221.62 89.38,-221.48"/>
</a>
</g>
</g>
<!-- Node5 -->
<g id="Node000005" class="node">
<title>Node5</title>
<g id="a_Node000005"><a xlink:title=" ">
<polygon fill="#e0e0e0" stroke="#999999" points="606.5,-277.5 513.5,-277.5 513.5,-258.5 606.5,-258.5 606.5,-277.5"/>
<text text-anchor="middle" x="560" y="-265.5" font-family="Helvetica,sans-Serif" font-size="10.00">unordered_map</text>
</a>
</g>
</g>
<!-- Node2&#45;&gt;Node5 -->
<g id="edge4_Node000002_Node000005" class="edge">
<title>Node2&#45;&gt;Node5</title>
<g id="a_edge4_Node000002_Node000005"><a xlink:title=" ">
<path fill="none" stroke="#63b8ff" d="M252.1,-322.11C311.04,-314.89 416.12,-300.88 505,-283 509.47,-282.1 514.12,-281.07 518.73,-279.98"/>
<polygon fill="#63b8ff" stroke="#63b8ff" points="519.83,-283.32 528.71,-277.55 518.17,-276.52 519.83,-283.32"/>
</a>
</g>
</g>
<!-- Node6 -->
<g id="Node000006" class="node">
<title>Node6</title>
<g id="a_Node000006"><a xlink:href="../../de/d01/StraightBlock_8h.html" target="_top" xlink:title="Modèle de domaine d&#39;un bloc de voie droite (Straight).">
<polygon fill="white" stroke="#666666" points="298.5,-283 113.5,-283 113.5,-253 298.5,-253 298.5,-283"/>
<text text-anchor="start" x="121.5" y="-271" font-family="Helvetica,sans-Serif" font-size="10.00">Modules/InteractiveElements</text>
<text text-anchor="middle" x="206" y="-260" font-family="Helvetica,sans-Serif" font-size="10.00">/ShuntingElements/StraightBlock.h</text>
</a>
</g>
</g>
<!-- Node2&#45;&gt;Node6 -->
<g id="edge5_Node000002_Node000006" class="edge">
<title>Node2&#45;&gt;Node6</title>
<g id="a_edge5_Node000002_Node000006"><a xlink:title=" ">
<path fill="none" stroke="#63b8ff" d="M206,-318.87C206,-312.11 206,-302.35 206,-293.26"/>
<polygon fill="#63b8ff" stroke="#63b8ff" points="209.5,-293.11 206,-283.11 202.5,-293.11 209.5,-293.11"/>
</a>
</g>
</g>
<!-- Node17 -->
<g id="Node000017" class="node">
<title>Node17</title>
<g id="a_Node000017"><a xlink:href="../../dc/d01/SwitchBlock_8h.html" target="_top" xlink:title="Modèle de domaine d&#39;un aiguillage ferroviaire à 3 branches.">
<polygon fill="white" stroke="#666666" points="495.5,-283 316.5,-283 316.5,-253 495.5,-253 495.5,-283"/>
<text text-anchor="start" x="324.5" y="-271" font-family="Helvetica,sans-Serif" font-size="10.00">Modules/InteractiveElements</text>
<text text-anchor="middle" x="406" y="-260" font-family="Helvetica,sans-Serif" font-size="10.00">/ShuntingElements/SwitchBlock.h</text>
</a>
</g>
</g>
<!-- Node2&#45;&gt;Node17 -->
<g id="edge19_Node000002_Node000017" class="edge">
<title>Node2&#45;&gt;Node17</title>
<g id="a_edge19_Node000002_Node000017"><a xlink:title=" ">
<path fill="none" stroke="#63b8ff" d="M235.08,-318.99C264.62,-310.35 311.16,-296.74 348.23,-285.9"/>
<polygon fill="#63b8ff" stroke="#63b8ff" points="349.3,-289.23 357.92,-283.06 347.34,-282.51 349.3,-289.23"/>
</a>
</g>
</g>
<!-- Node6&#45;&gt;Node4 -->
<g id="edge7_Node000006_Node000004" class="edge">
<title>Node6&#45;&gt;Node4</title>
<g id="a_edge7_Node000006_Node000004"><a xlink:title=" ">
<path fill="none" stroke="#63b8ff" d="M179.67,-252.95C159.18,-242.03 130.94,-226.97 110.84,-216.25"/>
<polygon fill="#63b8ff" stroke="#63b8ff" points="112.44,-213.14 101.97,-211.52 109.15,-219.31 112.44,-213.14"/>
</a>
</g>
</g>
<!-- Node7 -->
<g id="Node000007" class="node">
<title>Node7</title>
<g id="a_Node000007"><a xlink:title=" ">
<polygon fill="#e0e0e0" stroke="#999999" points="345,-19 301,-19 301,0 345,0 345,-19"/>
<text text-anchor="middle" x="323" y="-7" font-family="Helvetica,sans-Serif" font-size="10.00">string</text>
</a>
</g>
</g>
<!-- Node6&#45;&gt;Node7 -->
<g id="edge6_Node000006_Node000007" class="edge">
<title>Node6&#45;&gt;Node7</title>
<g id="a_edge6_Node000006_Node000007"><a xlink:title=" ">
<path fill="none" stroke="#63b8ff" d="M186.31,-252.72C175.75,-243.79 163.75,-231.29 158,-217 153.02,-204.63 153.11,-199.4 158,-187 187.22,-112.95 263.8,-51.69 301.46,-24.95"/>
<polygon fill="#63b8ff" stroke="#63b8ff" points="303.52,-27.79 309.72,-19.2 299.52,-22.04 303.52,-27.79"/>
</a>
</g>
</g>
<!-- Node8 -->
<g id="Node000008" class="node">
<title>Node8</title>
<g id="a_Node000008"><a xlink:href="../../df/d02/ShuntingElement_8h.html" target="_top" xlink:title="Interface abstraite pour tous les éléments de shuntage ferroviaire.">
<polygon fill="white" stroke="#666666" points="275.5,-211.5 166.5,-211.5 166.5,-192.5 275.5,-192.5 275.5,-211.5"/>
<text text-anchor="middle" x="221" y="-199.5" font-family="Helvetica,sans-Serif" font-size="10.00">ShuntingElement.h</text>
</a>
</g>
</g>
<!-- Node6&#45;&gt;Node8 -->
<g id="edge8_Node000006_Node000008" class="edge">
<title>Node6&#45;&gt;Node8</title>
<g id="a_edge8_Node000006_Node000008"><a xlink:title=" ">
<path fill="none" stroke="#63b8ff" d="M209.33,-252.8C211.46,-243.7 214.25,-231.79 216.57,-221.9"/>
<polygon fill="#63b8ff" stroke="#63b8ff" points="220.05,-222.38 218.93,-211.84 213.24,-220.78 220.05,-222.38"/>
</a>
</g>
</g>
<!-- Node16 -->
<g id="Node000016" class="node">
<title>Node16</title>
<g id="a_Node000016"><a xlink:href="../../df/d02/LatLon_8h.html" target="_top" xlink:title="Représentation d&#39;une coordonnée géographique WGS&#45;84 (latitude, longitude).">
<polygon fill="white" stroke="#666666" points="412.5,-217 293.5,-217 293.5,-187 412.5,-187 412.5,-217"/>
<text text-anchor="start" x="301.5" y="-205" font-family="Helvetica,sans-Serif" font-size="10.00">Modules/Coordinates</text>
<text text-anchor="middle" x="353" y="-194" font-family="Helvetica,sans-Serif" font-size="10.00">/LatLon.h</text>
</a>
</g>
</g>
<!-- Node6&#45;&gt;Node16 -->
<g id="edge18_Node000006_Node000016" class="edge">
<title>Node6&#45;&gt;Node16</title>
<g id="a_edge18_Node000006_Node000016"><a xlink:title=" ">
<path fill="none" stroke="#63b8ff" d="M238.26,-252.95C259.8,-243.58 288.33,-231.16 311.55,-221.05"/>
<polygon fill="#63b8ff" stroke="#63b8ff" points="313.04,-224.21 320.82,-217.01 310.25,-217.8 313.04,-224.21"/>
</a>
</g>
</g>
<!-- Node9 -->
<g id="Node000009" class="node">
<title>Node9</title>
<g id="a_Node000009"><a xlink:href="../../d6/d02/InteractiveElement_8h.html" target="_top" xlink:title="Classe de base abstraite pour tous les éléments interactifs ferroviaires.">
<polygon fill="white" stroke="#666666" points="402.5,-151 243.5,-151 243.5,-121 402.5,-121 402.5,-151"/>
<text text-anchor="start" x="251.5" y="-139" font-family="Helvetica,sans-Serif" font-size="10.00">Modules/InteractiveElements</text>
<text text-anchor="middle" x="323" y="-128" font-family="Helvetica,sans-Serif" font-size="10.00">/InteractiveElement.h</text>
</a>
</g>
</g>
<!-- Node8&#45;&gt;Node9 -->
<g id="edge9_Node000008_Node000009" class="edge">
<title>Node8&#45;&gt;Node9</title>
<g id="a_edge9_Node000008_Node000009"><a xlink:title=" ">
<path fill="none" stroke="#63b8ff" d="M234.76,-192.37C249.31,-183.24 272.76,-168.53 291.83,-156.56"/>
<polygon fill="#63b8ff" stroke="#63b8ff" points="293.89,-159.4 300.5,-151.12 290.17,-153.47 293.89,-159.4"/>
</a>
</g>
</g>
<!-- Node9&#45;&gt;Node7 -->
<g id="edge10_Node000009_Node000007" class="edge">
<title>Node9&#45;&gt;Node7</title>
<g id="a_edge10_Node000009_Node000007"><a xlink:title=" ">
<path fill="none" stroke="#63b8ff" d="M323,-120.72C323,-98.12 323,-54.12 323,-29.09"/>
<polygon fill="#63b8ff" stroke="#63b8ff" points="326.5,-29.07 323,-19.07 319.5,-29.07 326.5,-29.07"/>
</a>
</g>
</g>
<!-- Node10 -->
<g id="Node000010" class="node">
<title>Node10</title>
<g id="a_Node000010"><a xlink:href="../../dd/d00/Logger_8h.html" target="_top" xlink:title="Système de journalisation à 5 niveaux de trace, un fichier par moteur.">
<polygon fill="white" stroke="#666666" points="580.5,-85 469.5,-85 469.5,-55 580.5,-55 580.5,-85"/>
<text text-anchor="start" x="477.5" y="-73" font-family="Helvetica,sans-Serif" font-size="10.00">Engine/Core/Logger</text>
<text text-anchor="middle" x="525" y="-62" font-family="Helvetica,sans-Serif" font-size="10.00">/Logger.h</text>
</a>
</g>
</g>
<!-- Node9&#45;&gt;Node10 -->
<g id="edge11_Node000009_Node000010" class="edge">
<title>Node9&#45;&gt;Node10</title>
<g id="a_edge11_Node000009_Node000010"><a xlink:title=" ">
<path fill="none" stroke="#63b8ff" d="M367.33,-120.95C397.85,-111.28 438.58,-98.38 471,-88.11"/>
<polygon fill="#63b8ff" stroke="#63b8ff" points="472.3,-91.37 480.77,-85.01 470.18,-84.7 472.3,-91.37"/>
</a>
</g>
</g>
<!-- Node10&#45;&gt;Node7 -->
<g id="edge17_Node000010_Node000007" class="edge">
<title>Node10&#45;&gt;Node7</title>
<g id="a_edge17_Node000010_Node000007"><a xlink:title=" ">
<path fill="none" stroke="#63b8ff" d="M476.62,-54.99C439.02,-44.1 387.92,-29.3 355.19,-19.82"/>
<polygon fill="#63b8ff" stroke="#63b8ff" points="355.83,-16.37 345.26,-16.95 353.89,-23.09 355.83,-16.37"/>
</a>
</g>
</g>
<!-- Node11 -->
<g id="Node000011" class="node">
<title>Node11</title>
<g id="a_Node000011"><a xlink:title=" ">
<polygon fill="#e0e0e0" stroke="#999999" points="547,-19 503,-19 503,0 547,0 547,-19"/>
<text text-anchor="middle" x="525" y="-7" font-family="Helvetica,sans-Serif" font-size="10.00">ctime</text>
</a>
</g>
</g>
<!-- Node10&#45;&gt;Node11 -->
<g id="edge12_Node000010_Node000011" class="edge">
<title>Node10&#45;&gt;Node11</title>
<g id="a_edge12_Node000010_Node000011"><a xlink:title=" ">
<path fill="none" stroke="#63b8ff" d="M525,-54.84C525,-47.21 525,-37.7 525,-29.45"/>
<polygon fill="#63b8ff" stroke="#63b8ff" points="528.5,-29.27 525,-19.27 521.5,-29.27 528.5,-29.27"/>
</a>
</g>
</g>
<!-- Node12 -->
<g id="Node000012" class="node">
<title>Node12</title>
<g id="a_Node000012"><a xlink:title=" ">
<polygon fill="#e0e0e0" stroke="#999999" points="633,-19 565,-19 565,0 633,0 633,-19"/>
<text text-anchor="middle" x="599" y="-7" font-family="Helvetica,sans-Serif" font-size="10.00">filesystem</text>
</a>
</g>
</g>
<!-- Node10&#45;&gt;Node12 -->
<g id="edge13_Node000010_Node000012" class="edge">
<title>Node10&#45;&gt;Node12</title>
<g id="a_edge13_Node000010_Node000012"><a xlink:title=" ">
<path fill="none" stroke="#63b8ff" d="M542.91,-54.84C554.09,-46 568.48,-34.63 579.88,-25.62"/>
<polygon fill="#63b8ff" stroke="#63b8ff" points="582.24,-28.21 587.91,-19.27 577.9,-22.72 582.24,-28.21"/>
</a>
</g>
</g>
<!-- Node13 -->
<g id="Node000013" class="node">
<title>Node13</title>
<g id="a_Node000013"><a xlink:title=" ">
<polygon fill="#e0e0e0" stroke="#999999" points="418.5,-19 363.5,-19 363.5,0 418.5,0 418.5,-19"/>
<text text-anchor="middle" x="391" y="-7" font-family="Helvetica,sans-Serif" font-size="10.00">fstream</text>
</a>
</g>
</g>
<!-- Node10&#45;&gt;Node13 -->
<g id="edge14_Node000010_Node000013" class="edge">
<title>Node10&#45;&gt;Node13</title>
<g id="a_edge14_Node000010_Node000013"><a xlink:title=" ">
<path fill="none" stroke="#63b8ff" d="M492.9,-54.99C470.75,-45.31 441.52,-32.56 420.05,-23.18"/>
<polygon fill="#63b8ff" stroke="#63b8ff" points="421.35,-19.93 410.79,-19.14 418.55,-26.35 421.35,-19.93"/>
</a>
</g>
</g>
<!-- Node14 -->
<g id="Node000014" class="node">
<title>Node14</title>
<g id="a_Node000014"><a xlink:title=" ">
<polygon fill="#e0e0e0" stroke="#999999" points="485,-19 437,-19 437,0 485,0 485,-19"/>
<text text-anchor="middle" x="461" y="-7" font-family="Helvetica,sans-Serif" font-size="10.00">mutex</text>
</a>
</g>
</g>
<!-- Node10&#45;&gt;Node14 -->
<g id="edge15_Node000010_Node000014" class="edge">
<title>Node10&#45;&gt;Node14</title>
<g id="a_edge15_Node000010_Node000014"><a xlink:title=" ">
<path fill="none" stroke="#63b8ff" d="M509.51,-54.84C500.03,-46.17 487.89,-35.08 478.12,-26.15"/>
<polygon fill="#63b8ff" stroke="#63b8ff" points="480.33,-23.43 470.59,-19.27 475.61,-28.6 480.33,-23.43"/>
</a>
</g>
</g>
<!-- Node15 -->
<g id="Node000015" class="node">
<title>Node15</title>
<g id="a_Node000015"><a xlink:title=" ">
<polygon fill="#e0e0e0" stroke="#999999" points="707,-19 651,-19 651,0 707,0 707,-19"/>
<text text-anchor="middle" x="679" y="-7" font-family="Helvetica,sans-Serif" font-size="10.00">sstream</text>
</a>
</g>
</g>
<!-- Node10&#45;&gt;Node15 -->
<g id="edge16_Node000010_Node000015" class="edge">
<title>Node10&#45;&gt;Node15</title>
<g id="a_edge16_Node000010_Node000015"><a xlink:title=" ">
<path fill="none" stroke="#63b8ff" d="M561.89,-54.99C587.7,-45.18 621.85,-32.21 646.6,-22.81"/>
<polygon fill="#63b8ff" stroke="#63b8ff" points="648.15,-25.96 656.26,-19.14 645.67,-19.42 648.15,-25.96"/>
</a>
</g>
</g>
<!-- Node17&#45;&gt;Node4 -->
<g id="edge23_Node000017_Node000004" class="edge">
<title>Node17&#45;&gt;Node4</title>
<g id="a_edge23_Node000017_Node000004"><a xlink:title=" ">
<path fill="none" stroke="#63b8ff" d="M335.77,-252.95C268.65,-239.53 170.35,-219.87 119.4,-209.68"/>
<polygon fill="#63b8ff" stroke="#63b8ff" points="120.06,-206.24 109.56,-207.71 118.68,-213.11 120.06,-206.24"/>
</a>
</g>
</g>
<!-- Node17&#45;&gt;Node7 -->
<g id="edge22_Node000017_Node000007" class="edge">
<title>Node17&#45;&gt;Node7</title>
<g id="a_edge22_Node000017_Node000007"><a xlink:title=" ">
<path fill="none" stroke="#63b8ff" d="M411.83,-252.84C415.56,-242.99 420.06,-229.43 422,-217 428.62,-174.62 429.26,-160.27 412,-121 395.02,-82.38 360.93,-45.98 340.22,-26.11"/>
<polygon fill="#63b8ff" stroke="#63b8ff" points="342.44,-23.39 332.75,-19.11 337.65,-28.5 342.44,-23.39"/>
</a>
</g>
</g>
<!-- Node17&#45;&gt;Node8 -->
<g id="edge25_Node000017_Node000008" class="edge">
<title>Node17&#45;&gt;Node8</title>
<g id="a_edge25_Node000017_Node000008"><a xlink:title=" ">
<path fill="none" stroke="#63b8ff" d="M365.4,-252.95C332.39,-241.53 286.33,-225.6 255.18,-214.82"/>
<polygon fill="#63b8ff" stroke="#63b8ff" points="256.22,-211.48 245.62,-211.52 253.93,-218.09 256.22,-211.48"/>
</a>
</g>
</g>
<!-- Node17&#45;&gt;Node15 -->
<g id="edge21_Node000017_Node000015" class="edge">
<title>Node17&#45;&gt;Node15</title>
<g id="a_edge21_Node000017_Node000015"><a xlink:title=" ">
<path fill="none" stroke="#63b8ff" d="M461.99,-253C485.85,-245.13 512.98,-233.5 534,-217 602.64,-163.12 652.25,-68.06 670.89,-28.53"/>
<polygon fill="#63b8ff" stroke="#63b8ff" points="674.12,-29.88 675.14,-19.33 667.77,-26.94 674.12,-29.88"/>
</a>
</g>
</g>
<!-- Node17&#45;&gt;Node16 -->
<g id="edge24_Node000017_Node000016" class="edge">
<title>Node17&#45;&gt;Node16</title>
<g id="a_edge24_Node000017_Node000016"><a xlink:title=" ">
<path fill="none" stroke="#63b8ff" d="M394.24,-252.8C387.44,-244.59 378.76,-234.1 371.11,-224.87"/>
<polygon fill="#63b8ff" stroke="#63b8ff" points="373.8,-222.63 364.73,-217.16 368.41,-227.1 373.8,-222.63"/>
</a>
</g>
</g>
<!-- Node18 -->
<g id="Node000018" class="node">
<title>Node18</title>
<g id="a_Node000018"><a xlink:title=" ">
<polygon fill="#e0e0e0" stroke="#999999" points="525,-211.5 469,-211.5 469,-192.5 525,-192.5 525,-211.5"/>
<text text-anchor="middle" x="497" y="-199.5" font-family="Helvetica,sans-Serif" font-size="10.00">optional</text>
</a>
</g>
</g>
<!-- Node17&#45;&gt;Node18 -->
<g id="edge20_Node000017_Node000018" class="edge">
<title>Node17&#45;&gt;Node18</title>
<g id="a_edge20_Node000017_Node000018"><a xlink:title=" ">
<path fill="none" stroke="#63b8ff" d="M426.2,-252.8C441.03,-242.37 461.11,-228.24 476.11,-217.69"/>
<polygon fill="#63b8ff" stroke="#63b8ff" points="478.52,-220.27 484.69,-211.66 474.5,-214.55 478.52,-220.27"/>
</a>
</g>
</g>
</g>
</svg>
