<?xml version="1.0" encoding="UTF-8" standalone="no"?>
<!DOCTYPE svg PUBLIC "-//W3C//DTD SVG 1.1//EN"
 "http://www.w3.org/Graphics/SVG/1.1/DTD/svg11.dtd">
<!-- Generated by graphviz version 2.43.0 (0)
 -->
<!-- Title: PCCNode Pages: 1 -->
<svg width="439pt" height="1745pt"
 viewBox="0.00 0.00 439.00 1745.00" xmlns="http://www.w3.org/2000/svg" xmlns:xlink="http://www.w3.org/1999/xlink">
<g id="graph0" class="graph" transform="scale(1 1) rotate(0) translate(4 1741)">
<title>PCCNode</title>
<!-- Node1 -->
<g id="Node000001" class="node">
<title>Node1</title>
<g id="a_Node000001"><a xlink:title="Nœud abstrait du graphe PCC.">
<polygon fill="#999999" stroke="transparent" points="291,-582 197,-582 197,-323 291,-323 291,-582"/>
<text text-anchor="start" x="221" y="-569.5" font-family="Helvetica,sans-Serif" font-size="10.00">PCCNode</text>
<text text-anchor="start" x="203.5" y="-554.5" font-family="Helvetica,sans-Serif" font-size="10.00">&#45;</text>
<text text-anchor="start" x="214" y="-554.5" font-family="Helvetica,sans-Serif" font-size="10.00">m_isCrossover</text>
<text text-anchor="start" x="201" y="-539.5" font-family="Helvetica,sans-Serif" font-size="10.00">+</text>
<text text-anchor="start" x="214" y="-539.5" font-family="Helvetica,sans-Serif" font-size="10.00">PCCNode()</text>
<text text-anchor="start" x="201" y="-524.5" font-family="Helvetica,sans-Serif" font-size="10.00">+</text>
<text text-anchor="start" x="214" y="-524.5" font-family="Helvetica,sans-Serif" font-size="10.00">PCCNode()</text>
<text text-anchor="start" x="201" y="-509.5" font-family="Helvetica,sans-Serif" font-size="10.00">+</text>
<text text-anchor="start" x="214" y="-509.5" font-family="Helvetica,sans-Serif" font-size="10.00">operator=()</text>
<text text-anchor="start" x="201" y="-494.5" font-family="Helvetica,sans-Serif" font-size="10.00">+</text>
<text text-anchor="start" x="214" y="-494.5" font-family="Helvetica,sans-Serif" font-size="10.00">PCCNode()</text>
<text text-anchor="start" x="201" y="-479.5" font-family="Helvetica,sans-Serif" font-size="10.00">+</text>
<text text-anchor="start" x="214" y="-479.5" font-family="Helvetica,sans-Serif" font-size="10.00">operator=()</text>
<text text-anchor="start" x="201" y="-464.5" font-family="Helvetica,sans-Serif" font-size="10.00">+</text>
<text text-anchor="start" x="214" y="-464.5" font-family="Helvetica,sans-Serif" font-size="10.00">~PCCNode()</text>
<text text-anchor="start" x="201" y="-449.5" font-family="Helvetica,sans-Serif" font-size="10.00">+</text>
<text text-anchor="start" x="214" y="-449.5" font-family="Helvetica,sans-Serif" font-size="10.00">getNodeType()</text>
<text text-anchor="start" x="201" y="-434.5" font-family="Helvetica,sans-Serif" font-size="10.00">+</text>
<text text-anchor="start" x="214" y="-434.5" font-family="Helvetica,sans-Serif" font-size="10.00">getSourceId()</text>
<text text-anchor="start" x="201" y="-419.5" font-family="Helvetica,sans-Serif" font-size="10.00">+</text>
<text text-anchor="start" x="214" y="-419.5" font-family="Helvetica,sans-Serif" font-size="10.00">getSource()</text>
<text text-anchor="start" x="201" y="-404.5" font-family="Helvetica,sans-Serif" font-size="10.00">+</text>
<text text-anchor="start" x="214" y="-404.5" font-family="Helvetica,sans-Serif" font-size="10.00">getPosition()</text>
<text text-anchor="start" x="201" y="-389.5" font-family="Helvetica,sans-Serif" font-size="10.00">+</text>
<text text-anchor="start" x="214" y="-389.5" font-family="Helvetica,sans-Serif" font-size="10.00">getEdges()</text>
<text text-anchor="start" x="201" y="-374.5" font-family="Helvetica,sans-Serif" font-size="10.00">+</text>
<text text-anchor="start" x="214" y="-374.5" font-family="Helvetica,sans-Serif" font-size="10.00">setPosition()</text>
<text text-anchor="start" x="201" y="-359.5" font-family="Helvetica,sans-Serif" font-size="10.00">+</text>
<text text-anchor="start" x="214" y="-359.5" font-family="Helvetica,sans-Serif" font-size="10.00">addEdge()</text>
<text text-anchor="start" x="201" y="-344.5" font-family="Helvetica,sans-Serif" font-size="10.00">+</text>
<text text-anchor="start" x="214" y="-344.5" font-family="Helvetica,sans-Serif" font-size="10.00">isCrossover()</text>
<text text-anchor="start" x="201" y="-329.5" font-family="Helvetica,sans-Serif" font-size="10.00">+</text>
<text text-anchor="start" x="214" y="-329.5" font-family="Helvetica,sans-Serif" font-size="10.00">setCrossover()</text>
<polygon fill="#666666" stroke="#666666" points="197,-564.5 197,-564.5 291,-564.5 291,-564.5 197,-564.5"/>
<polygon fill="#666666" stroke="#666666" points="197,-549.5 197,-549.5 212,-549.5 212,-549.5 197,-549.5"/>
<polygon fill="#666666" stroke="#666666" points="212,-549.5 212,-549.5 291,-549.5 291,-549.5 212,-549.5"/>
<polygon fill="none" stroke="#666666" points="197,-323 197,-582 291,-582 291,-323 197,-323"/>
</a>
</g>
</g>
<!-- Node15 -->
<g id="Node000015" class="node">
<title>Node15</title>
<g id="a_Node000015"><a xlink:href="../../d2/d03/classPCCEdge.html" target="_top" xlink:title="Connexion orientée entre deux PCCNode du PCCGraph.">
<polygon fill="white" stroke="transparent" points="399.5,-265 318.5,-265 318.5,-96 399.5,-96 399.5,-265"/>
<text text-anchor="start" x="337.5" y="-252.5" font-family="Helvetica,sans-Serif" font-size="10.00">PCCEdge</text>
<text text-anchor="start" x="325.5" y="-237.5" font-family="Helvetica,sans-Serif" font-size="10.00">&#45;</text>
<text text-anchor="start" x="336" y="-237.5" font-family="Helvetica,sans-Serif" font-size="10.00">m_role</text>
<text text-anchor="start" x="323" y="-222.5" font-family="Helvetica,sans-Serif" font-size="10.00">+</text>
<text text-anchor="start" x="336" y="-222.5" font-family="Helvetica,sans-Serif" font-size="10.00">PCCEdge()</text>
<text text-anchor="start" x="323" y="-207.5" font-family="Helvetica,sans-Serif" font-size="10.00">+</text>
<text text-anchor="start" x="336" y="-207.5" font-family="Helvetica,sans-Serif" font-size="10.00">PCCEdge()</text>
<text text-anchor="start" x="323" y="-192.5" font-family="Helvetica,sans-Serif" font-size="10.00">+</text>
<text text-anchor="start" x="336" y="-192.5" font-family="Helvetica,sans-Serif" font-size="10.00">operator=()</text>
<text text-anchor="start" x="323" y="-177.5" font-family="Helvetica,sans-Serif" font-size="10.00">+</text>
<text text-anchor="start" x="336" y="-177.5" font-family="Helvetica,sans-Serif" font-size="10.00">PCCEdge()</text>
<text text-anchor="start" x="323" y="-162.5" font-family="Helvetica,sans-Serif" font-size="10.00">+</text>
<text text-anchor="start" x="336" y="-162.5" font-family="Helvetica,sans-Serif" font-size="10.00">operator=()</text>
<text text-anchor="start" x="323" y="-147.5" font-family="Helvetica,sans-Serif" font-size="10.00">+</text>
<text text-anchor="start" x="336" y="-147.5" font-family="Helvetica,sans-Serif" font-size="10.00">~PCCEdge()</text>
<text text-anchor="start" x="323" y="-132.5" font-family="Helvetica,sans-Serif" font-size="10.00">+</text>
<text text-anchor="start" x="336" y="-132.5" font-family="Helvetica,sans-Serif" font-size="10.00">getFrom()</text>
<text text-anchor="start" x="323" y="-117.5" font-family="Helvetica,sans-Serif" font-size="10.00">+</text>
<text text-anchor="start" x="336" y="-117.5" font-family="Helvetica,sans-Serif" font-size="10.00">getTo()</text>
<text text-anchor="start" x="323" y="-102.5" font-family="Helvetica,sans-Serif" font-size="10.00">+</text>
<text text-anchor="start" x="336" y="-102.5" font-family="Helvetica,sans-Serif" font-size="10.00">getRole()</text>
<polygon fill="#666666" stroke="#666666" points="319,-247.5 319,-247.5 400,-247.5 400,-247.5 319,-247.5"/>
<polygon fill="#666666" stroke="#666666" points="319,-232.5 319,-232.5 334,-232.5 334,-232.5 319,-232.5"/>
<polygon fill="#666666" stroke="#666666" points="334,-232.5 334,-232.5 400,-232.5 400,-232.5 334,-232.5"/>
<polygon fill="none" stroke="#666666" points="318.5,-96 318.5,-265 399.5,-265 399.5,-96 318.5,-96"/>
</a>
</g>
</g>
<!-- Node1&#45;&gt;Node15 -->
<g id="edge17_Node000015_Node000001" class="edge">
<title>Node1&#45;&gt;Node15</title>
<g id="a_edge17_Node000015_Node000001"><a xlink:title=" ">
<path fill="none" stroke="#63b8ff" d="M291.11,-340.9C300.26,-319.42 309.77,-297.09 318.67,-276.18"/>
<polygon fill="none" stroke="#63b8ff" points="318.71,-276.09 317.38,-269.01 323.41,-265.05 324.74,-272.14 318.71,-276.09"/>
</a>
</g>
<text text-anchor="middle" x="338" y="-297" font-family="Helvetica,sans-Serif" font-size="10.00" fill="grey"> &#45;m_from</text>
<text text-anchor="middle" x="338" y="-286" font-family="Helvetica,sans-Serif" font-size="10.00" fill="grey">&#45;m_to</text>
</g>
<!-- Node2 -->
<g id="Node000002" class="node">
<title>Node2</title>
<g id="a_Node000002"><a xlink:title=" ">
<polygon fill="white" stroke="transparent" points="136.5,-1371 77.5,-1371 77.5,-1322 136.5,-1322 136.5,-1371"/>
<text text-anchor="start" x="83" y="-1358.5" font-family="Helvetica,sans-Serif" font-size="10.00">std::string</text>
<text text-anchor="start" x="105.5" y="-1343.5" font-family="Helvetica,sans-Serif" font-size="10.00"> </text>
<text text-anchor="start" x="105.5" y="-1328.5" font-family="Helvetica,sans-Serif" font-size="10.00"> </text>
<polygon fill="#666666" stroke="#666666" points="78,-1353.5 78,-1353.5 137,-1353.5 137,-1353.5 78,-1353.5"/>
<polygon fill="#666666" stroke="#666666" points="78,-1338.5 78,-1338.5 137,-1338.5 137,-1338.5 78,-1338.5"/>
<polygon fill="none" stroke="#666666" points="77.5,-1322 77.5,-1371 136.5,-1371 136.5,-1322 77.5,-1322"/>
</a>
</g>
</g>
<!-- Node2&#45;&gt;Node1 -->
<g id="edge1_Node000001_Node000002" class="edge">
<title>Node2&#45;&gt;Node1</title>
<g id="a_edge1_Node000001_Node000002"><a xlink:title=" ">
<path fill="none" stroke="#63b8ff" d="M83.25,-1321.88C51.73,-1287.89 0,-1221.79 0,-1154 0,-1154 0,-1154 0,-705 0,-598.53 114.04,-520.09 186.19,-481.12"/>
<polygon fill="none" stroke="#63b8ff" points="186.35,-481.04 189.78,-474.7 196.95,-475.43 193.52,-481.77 186.35,-481.04"/>
</a>
</g>
<text text-anchor="middle" x="34" y="-904.5" font-family="Helvetica,sans-Serif" font-size="10.00" fill="grey"> #m_sourceId</text>
</g>
<!-- Node5 -->
<g id="Node000005" class="node">
<title>Node5</title>
<g id="a_Node000005"><a xlink:href="../../d8/d02/classInteractiveElement.html" target="_top" xlink:title="Classe de base abstraite pour tous les éléments interactifs ferroviaires.">
<polygon fill="white" stroke="transparent" points="216,-984 86,-984 86,-830 216,-830 216,-984"/>
<text text-anchor="start" x="104" y="-972" font-family="Helvetica,sans-Serif" font-size="10.00">InteractiveElement</text>
<text text-anchor="start" x="149" y="-957" font-family="Helvetica,sans-Serif" font-size="10.00"> </text>
<text text-anchor="start" x="90" y="-942" font-family="Helvetica,sans-Serif" font-size="10.00">+</text>
<text text-anchor="start" x="103" y="-942" font-family="Helvetica,sans-Serif" font-size="10.00">InteractiveElement()</text>
<text text-anchor="start" x="90" y="-927" font-family="Helvetica,sans-Serif" font-size="10.00">+</text>
<text text-anchor="start" x="103" y="-927" font-family="Helvetica,sans-Serif" font-size="10.00">~InteractiveElement()</text>
<text text-anchor="start" x="90" y="-912" font-family="Helvetica,sans-Serif" font-size="10.00">+</text>
<text text-anchor="start" x="103" y="-912" font-family="Helvetica,sans-Serif" font-size="10.00">InteractiveElement()</text>
<text text-anchor="start" x="90" y="-897" font-family="Helvetica,sans-Serif" font-size="10.00">+</text>
<text text-anchor="start" x="103" y="-897" font-family="Helvetica,sans-Serif" font-size="10.00">operator=()</text>
<text text-anchor="start" x="90" y="-882" font-family="Helvetica,sans-Serif" font-size="10.00">+</text>
<text text-anchor="start" x="103" y="-882" font-family="Helvetica,sans-Serif" font-size="10.00">InteractiveElement()</text>
<text text-anchor="start" x="90" y="-867" font-family="Helvetica,sans-Serif" font-size="10.00">+</text>
<text text-anchor="start" x="103" y="-867" font-family="Helvetica,sans-Serif" font-size="10.00">operator=()</text>
<text text-anchor="start" x="90" y="-852" font-family="Helvetica,sans-Serif" font-size="10.00">+</text>
<text text-anchor="start" x="103" y="-852" font-family="Helvetica,sans-Serif" font-size="10.00">getId()</text>
<text text-anchor="start" x="90" y="-837" font-family="Helvetica,sans-Serif" font-size="10.00">+</text>
<text text-anchor="start" x="103" y="-837" font-family="Helvetica,sans-Serif" font-size="10.00">getType()</text>
<polygon fill="#666666" stroke="#666666" points="86,-967 86,-967 216,-967 216,-967 86,-967"/>
<polygon fill="#666666" stroke="#666666" points="86,-952 86,-952 216,-952 216,-952 86,-952"/>
<polygon fill="none" stroke="#666666" points="86,-830 86,-984 216,-984 216,-830 86,-830"/>
</a>
</g>
</g>
<!-- Node2&#45;&gt;Node5 -->
<g id="edge5_Node000005_Node000002" class="edge">
<title>Node2&#45;&gt;Node5</title>
<g id="a_edge5_Node000005_Node000002"><a xlink:title=" ">
<path fill="none" stroke="#63b8ff" d="M108.12,-1321.76C110.75,-1269.23 118.1,-1139.2 131,-1031 132.34,-1019.76 133.97,-1007.98 135.71,-996.34"/>
<polygon fill="none" stroke="#63b8ff" points="135.74,-996.16 132.7,-989.62 137.56,-984.3 140.6,-990.83 135.74,-996.16"/>
</a>
</g>
<text text-anchor="middle" x="149" y="-1150.5" font-family="Helvetica,sans-Serif" font-size="10.00" fill="grey"> #m_id</text>
</g>
<!-- Node6 -->
<g id="Node000006" class="node">
<title>Node6</title>
<g id="a_Node000006"><a xlink:href="../../db/d03/classLogger.html" target="_top" xlink:title="Journaliseur associé à un moteur nommé.">
<polygon fill="white" stroke="transparent" points="312,-1275 176,-1275 176,-1031 312,-1031 312,-1275"/>
<text text-anchor="start" x="227" y="-1263" font-family="Helvetica,sans-Serif" font-size="10.00">Logger</text>
<text text-anchor="start" x="182.5" y="-1248" font-family="Helvetica,sans-Serif" font-size="10.00">&#45;</text>
<text text-anchor="start" x="193" y="-1248" font-family="Helvetica,sans-Serif" font-size="10.00">m_minimumLevel</text>
<text text-anchor="start" x="180" y="-1233" font-family="Helvetica,sans-Serif" font-size="10.00">+</text>
<text text-anchor="start" x="193" y="-1233" font-family="Helvetica,sans-Serif" font-size="10.00">Logger()</text>
<text text-anchor="start" x="180" y="-1218" font-family="Helvetica,sans-Serif" font-size="10.00">+</text>
<text text-anchor="start" x="193" y="-1218" font-family="Helvetica,sans-Serif" font-size="10.00">~Logger()</text>
<text text-anchor="start" x="180" y="-1203" font-family="Helvetica,sans-Serif" font-size="10.00">+</text>
<text text-anchor="start" x="193" y="-1203" font-family="Helvetica,sans-Serif" font-size="10.00">Logger()</text>
<text text-anchor="start" x="180" y="-1188" font-family="Helvetica,sans-Serif" font-size="10.00">+</text>
<text text-anchor="start" x="193" y="-1188" font-family="Helvetica,sans-Serif" font-size="10.00">operator=()</text>
<text text-anchor="start" x="180" y="-1173" font-family="Helvetica,sans-Serif" font-size="10.00">+</text>
<text text-anchor="start" x="193" y="-1173" font-family="Helvetica,sans-Serif" font-size="10.00">writeLog()</text>
<text text-anchor="start" x="180" y="-1158" font-family="Helvetica,sans-Serif" font-size="10.00">+</text>
<text text-anchor="start" x="193" y="-1158" font-family="Helvetica,sans-Serif" font-size="10.00">setMinimumLogLevel()</text>
<text text-anchor="start" x="180" y="-1143" font-family="Helvetica,sans-Serif" font-size="10.00">+</text>
<text text-anchor="start" x="193" y="-1143" font-family="Helvetica,sans-Serif" font-size="10.00">getMotorName()</text>
<text text-anchor="start" x="180" y="-1128" font-family="Helvetica,sans-Serif" font-size="10.00">+</text>
<text text-anchor="start" x="193" y="-1128" font-family="Helvetica,sans-Serif" font-size="10.00">triggerFatalCrash()</text>
<text text-anchor="start" x="182.5" y="-1113" font-family="Helvetica,sans-Serif" font-size="10.00">&#45;</text>
<text text-anchor="start" x="193" y="-1113" font-family="Helvetica,sans-Serif" font-size="10.00">extractClassName()</text>
<text text-anchor="start" x="182.5" y="-1098" font-family="Helvetica,sans-Serif" font-size="10.00">&#45;</text>
<text text-anchor="start" x="193" y="-1098" font-family="Helvetica,sans-Serif" font-size="10.00">extractFunctionName()</text>
<text text-anchor="start" x="182.5" y="-1083" font-family="Helvetica,sans-Serif" font-size="10.00">&#45;</text>
<text text-anchor="start" x="193" y="-1083" font-family="Helvetica,sans-Serif" font-size="10.00">formatLogLine()</text>
<text text-anchor="start" x="182.5" y="-1068" font-family="Helvetica,sans-Serif" font-size="10.00">&#45;</text>
<text text-anchor="start" x="193" y="-1068" font-family="Helvetica,sans-Serif" font-size="10.00">levelToString()</text>
<text text-anchor="start" x="182.5" y="-1053" font-family="Helvetica,sans-Serif" font-size="10.00">&#45;</text>
<text text-anchor="start" x="193" y="-1053" font-family="Helvetica,sans-Serif" font-size="10.00">getCurrentTimestamp()</text>
<text text-anchor="start" x="182.5" y="-1038" font-family="Helvetica,sans-Serif" font-size="10.00">&#45;</text>
<text text-anchor="start" x="193" y="-1038" font-family="Helvetica,sans-Serif" font-size="10.00">sendToDebugOutput()</text>
<polygon fill="#666666" stroke="#666666" points="176,-1258 176,-1258 312,-1258 312,-1258 176,-1258"/>
<polygon fill="#666666" stroke="#666666" points="176,-1243 176,-1243 191,-1243 191,-1243 176,-1243"/>
<polygon fill="#666666" stroke="#666666" points="191,-1243 191,-1243 312,-1243 312,-1243 191,-1243"/>
<polygon fill="none" stroke="#666666" points="176,-1031 176,-1275 312,-1275 312,-1031 176,-1031"/>
</a>
</g>
</g>
<!-- Node2&#45;&gt;Node6 -->
<g id="edge7_Node000006_Node000002" class="edge">
<title>Node2&#45;&gt;Node6</title>
<g id="a_edge7_Node000006_Node000002"><a xlink:title=" ">
<path fill="none" stroke="#63b8ff" d="M124.07,-1321.63C135.74,-1305.33 152.09,-1282.48 168.97,-1258.88"/>
<polygon fill="none" stroke="#63b8ff" points="168.99,-1258.85 169.23,-1251.65 175.97,-1249.09 175.73,-1256.3 168.99,-1258.85"/>
</a>
</g>
<text text-anchor="middle" x="184.5" y="-1296" font-family="Helvetica,sans-Serif" font-size="10.00" fill="grey"> &#45;m_motorName</text>
</g>
<!-- Node3 -->
<g id="Node000003" class="node">
<title>Node3</title>
<g id="a_Node000003"><a xlink:title=" ">
<polygon fill="white" stroke="transparent" points="156,-1468 58,-1468 58,-1408 156,-1408 156,-1468"/>
<text text-anchor="start" x="63" y="-1456" font-family="Helvetica,sans-Serif" font-size="10.00">std::basic_string&lt;</text>
<text text-anchor="start" x="88.5" y="-1445" font-family="Helvetica,sans-Serif" font-size="10.00"> Char &gt;</text>
<text text-anchor="start" x="105" y="-1430" font-family="Helvetica,sans-Serif" font-size="10.00"> </text>
<text text-anchor="start" x="105" y="-1415" font-family="Helvetica,sans-Serif" font-size="10.00"> </text>
<polygon fill="#666666" stroke="#666666" points="58,-1440 58,-1440 156,-1440 156,-1440 58,-1440"/>
<polygon fill="#666666" stroke="#666666" points="58,-1425 58,-1425 156,-1425 156,-1425 58,-1425"/>
<polygon fill="none" stroke="#666666" points="58,-1408 58,-1468 156,-1468 156,-1408 58,-1408"/>
</a>
</g>
</g>
<!-- Node3&#45;&gt;Node2 -->
<g id="edge2_Node000002_Node000003" class="edge">
<title>Node3&#45;&gt;Node2</title>
<g id="a_edge2_Node000002_Node000003"><a xlink:title=" ">
<path fill="none" stroke="#63b8ff" d="M107,-1397.41C107,-1388.47 107,-1379.25 107,-1371.21"/>
<polygon fill="none" stroke="#63b8ff" points="103.5,-1397.69 107,-1407.69 110.5,-1397.69 103.5,-1397.69"/>
</a>
</g>
</g>
<!-- Node4 -->
<g id="Node000004" class="node">
<title>Node4</title>
<g id="a_Node000004"><a xlink:href="../../d2/d00/classShuntingElement.html" target="_top" xlink:title="Interface abstraite pour tous les éléments de shuntage ferroviaire.">
<polygon fill="white" stroke="transparent" points="213.5,-783 92.5,-783 92.5,-629 213.5,-629 213.5,-783"/>
<text text-anchor="start" x="111.5" y="-771" font-family="Helvetica,sans-Serif" font-size="10.00">ShuntingElement</text>
<text text-anchor="start" x="97" y="-756" font-family="Helvetica,sans-Serif" font-size="10.00">#</text>
<text text-anchor="start" x="110" y="-756" font-family="Helvetica,sans-Serif" font-size="10.00">m_state</text>
<text text-anchor="start" x="97" y="-741" font-family="Helvetica,sans-Serif" font-size="10.00">+</text>
<text text-anchor="start" x="110" y="-741" font-family="Helvetica,sans-Serif" font-size="10.00">ShuntingElement()</text>
<text text-anchor="start" x="97" y="-726" font-family="Helvetica,sans-Serif" font-size="10.00">+</text>
<text text-anchor="start" x="110" y="-726" font-family="Helvetica,sans-Serif" font-size="10.00">~ShuntingElement()</text>
<text text-anchor="start" x="97" y="-711" font-family="Helvetica,sans-Serif" font-size="10.00">+</text>
<text text-anchor="start" x="110" y="-711" font-family="Helvetica,sans-Serif" font-size="10.00">ShuntingElement()</text>
<text text-anchor="start" x="97" y="-696" font-family="Helvetica,sans-Serif" font-size="10.00">+</text>
<text text-anchor="start" x="110" y="-696" font-family="Helvetica,sans-Serif" font-size="10.00">operator=()</text>
<text text-anchor="start" x="97" y="-681" font-family="Helvetica,sans-Serif" font-size="10.00">+</text>
<text text-anchor="start" x="110" y="-681" font-family="Helvetica,sans-Serif" font-size="10.00">getState()</text>
<text text-anchor="start" x="97" y="-666" font-family="Helvetica,sans-Serif" font-size="10.00">+</text>
<text text-anchor="start" x="110" y="-666" font-family="Helvetica,sans-Serif" font-size="10.00">isFree()</text>
<text text-anchor="start" x="97" y="-651" font-family="Helvetica,sans-Serif" font-size="10.00">+</text>
<text text-anchor="start" x="110" y="-651" font-family="Helvetica,sans-Serif" font-size="10.00">isOccupied()</text>
<text text-anchor="start" x="97" y="-636" font-family="Helvetica,sans-Serif" font-size="10.00">+</text>
<text text-anchor="start" x="110" y="-636" font-family="Helvetica,sans-Serif" font-size="10.00">isInactive()</text>
<polygon fill="#666666" stroke="#666666" points="93,-766 93,-766 214,-766 214,-766 93,-766"/>
<polygon fill="#666666" stroke="#666666" points="93,-751 93,-751 108,-751 108,-751 93,-751"/>
<polygon fill="#666666" stroke="#666666" points="108,-751 108,-751 214,-751 214,-751 108,-751"/>
<polygon fill="none" stroke="#666666" points="92.5,-629 92.5,-783 213.5,-783 213.5,-629 92.5,-629"/>
</a>
</g>
</g>
<!-- Node4&#45;&gt;Node1 -->
<g id="edge3_Node000001_Node000004" class="edge">
<title>Node4&#45;&gt;Node1</title>
<g id="a_edge3_Node000001_Node000004"><a xlink:title=" ">
<path fill="none" stroke="#63b8ff" d="M163.32,-628.93C165.45,-619.09 167.98,-609.23 171,-600 176.58,-582.94 183.85,-565.38 191.64,-548.6"/>
<polygon fill="none" stroke="#63b8ff" points="191.66,-548.55 190.63,-541.41 196.81,-537.71 197.85,-544.84 191.66,-548.55"/>
</a>
</g>
<text text-anchor="middle" x="200.5" y="-603" font-family="Helvetica,sans-Serif" font-size="10.00" fill="grey"> #m_source</text>
</g>
<!-- Node5&#45;&gt;Node4 -->
<g id="edge4_Node000004_Node000005" class="edge">
<title>Node5&#45;&gt;Node4</title>
<g id="a_edge4_Node000004_Node000005"><a xlink:title=" ">
<path fill="none" stroke="#63b8ff" d="M151.87,-819.74C151.99,-807.53 152.12,-795.04 152.24,-783.04"/>
<polygon fill="none" stroke="#63b8ff" points="148.37,-819.88 151.76,-829.91 155.37,-819.95 148.37,-819.88"/>
</a>
</g>
</g>
<!-- Node6&#45;&gt;Node1 -->
<g id="edge19_Node000001_Node000006" class="edge">
<title>Node6&#45;&gt;Node1</title>
<g id="a_edge19_Node000001_Node000006"><a xlink:title=" ">
<path fill="none" stroke="#63b8ff" d="M244,-1030.73C244,-909.24 244,-722.4 244,-594.4"/>
<polygon fill="none" stroke="#63b8ff" points="244,-594.2 240,-588.2 244,-582.2 248,-588.2 244,-594.2"/>
</a>
</g>
<text text-anchor="middle" x="273" y="-804" font-family="Helvetica,sans-Serif" font-size="10.00" fill="grey"> #m_logger</text>
</g>
<!-- Node6&#45;&gt;Node5 -->
<g id="edge6_Node000005_Node000006" class="edge">
<title>Node6&#45;&gt;Node5</title>
<g id="a_edge6_Node000005_Node000006"><a xlink:title=" ">
<path fill="none" stroke="#63b8ff" d="M178.79,-1030.82C176.35,-1024.86 174.07,-1018.9 172,-1013 170.08,-1007.53 168.32,-1001.84 166.7,-996.06"/>
<polygon fill="none" stroke="#63b8ff" points="166.61,-995.72 161.23,-990.92 163.58,-984.11 168.97,-988.9 166.61,-995.72"/>
</a>
</g>
<text text-anchor="middle" x="201" y="-1005" font-family="Helvetica,sans-Serif" font-size="10.00" fill="grey"> #m_logger</text>
</g>
<!-- Node6&#45;&gt;Node15 -->
<g id="edge18_Node000015_Node000006" class="edge">
<title>Node6&#45;&gt;Node15</title>
<g id="a_edge18_Node000015_Node000006"><a xlink:title=" ">
<path fill="none" stroke="#63b8ff" d="M312.18,-1074.79C345.28,-1029.43 378,-969.14 378,-908 378,-908 378,-908 378,-451.5 378,-393.53 373.59,-328.74 369.02,-277.15"/>
<polygon fill="none" stroke="#63b8ff" points="369,-276.96 364.47,-271.35 367.92,-265.01 372.44,-270.63 369,-276.96"/>
</a>
</g>
<text text-anchor="middle" x="404.5" y="-703.5" font-family="Helvetica,sans-Serif" font-size="10.00" fill="grey"> &#45;m_logger</text>
</g>
<!-- Node7 -->
<g id="Node000007" class="node">
<title>Node7</title>
<g id="a_Node000007"><a xlink:title=" ">
<polygon fill="white" stroke="transparent" points="282,-1371 206,-1371 206,-1322 282,-1322 282,-1371"/>
<text text-anchor="start" x="211" y="-1358.5" font-family="Helvetica,sans-Serif" font-size="10.00">std::ofstream</text>
<text text-anchor="start" x="242" y="-1343.5" font-family="Helvetica,sans-Serif" font-size="10.00"> </text>
<text text-anchor="start" x="242" y="-1328.5" font-family="Helvetica,sans-Serif" font-size="10.00"> </text>
<polygon fill="#666666" stroke="#666666" points="206,-1353.5 206,-1353.5 282,-1353.5 282,-1353.5 206,-1353.5"/>
<polygon fill="#666666" stroke="#666666" points="206,-1338.5 206,-1338.5 282,-1338.5 282,-1338.5 206,-1338.5"/>
<polygon fill="none" stroke="#666666" points="206,-1322 206,-1371 282,-1371 282,-1322 206,-1322"/>
</a>
</g>
</g>
<!-- Node7&#45;&gt;Node6 -->
<g id="edge8_Node000006_Node000007" class="edge">
<title>Node7&#45;&gt;Node6</title>
<g id="a_edge8_Node000006_Node000007"><a xlink:title=" ">
<path fill="none" stroke="#63b8ff" d="M244,-1321.63C244,-1312.04 244,-1300.17 244,-1287.22"/>
<polygon fill="none" stroke="#63b8ff" points="244,-1287.06 240,-1281.06 244,-1275.06 248,-1281.06 244,-1287.06"/>
</a>
</g>
<text text-anchor="middle" x="279.5" y="-1296" font-family="Helvetica,sans-Serif" font-size="10.00" fill="grey"> &#45;m_outputFile</text>
</g>
<!-- Node8 -->
<g id="Node000008" class="node">
<title>Node8</title>
<g id="a_Node000008"><a xlink:title=" ">
<polygon fill="white" stroke="transparent" points="297.5,-1468 190.5,-1468 190.5,-1408 297.5,-1408 297.5,-1468"/>
<text text-anchor="start" x="196" y="-1456" font-family="Helvetica,sans-Serif" font-size="10.00">std::basic_ofstream</text>
<text text-anchor="start" x="221.5" y="-1445" font-family="Helvetica,sans-Serif" font-size="10.00">&lt; Char &gt;</text>
<text text-anchor="start" x="242.5" y="-1430" font-family="Helvetica,sans-Serif" font-size="10.00"> </text>
<text text-anchor="start" x="242.5" y="-1415" font-family="Helvetica,sans-Serif" font-size="10.00"> </text>
<polygon fill="#666666" stroke="#666666" points="191,-1440 191,-1440 298,-1440 298,-1440 191,-1440"/>
<polygon fill="#666666" stroke="#666666" points="191,-1425 191,-1425 298,-1425 298,-1425 191,-1425"/>
<polygon fill="none" stroke="#666666" points="190.5,-1408 190.5,-1468 297.5,-1468 297.5,-1408 190.5,-1408"/>
</a>
</g>
</g>
<!-- Node8&#45;&gt;Node7 -->
<g id="edge9_Node000007_Node000008" class="edge">
<title>Node8&#45;&gt;Node7</title>
<g id="a_edge9_Node000007_Node000008"><a xlink:title=" ">
<path fill="none" stroke="#63b8ff" d="M244,-1397.41C244,-1388.47 244,-1379.25 244,-1371.21"/>
<polygon fill="none" stroke="#63b8ff" points="240.5,-1397.69 244,-1407.69 247.5,-1397.69 240.5,-1397.69"/>
</a>
</g>
</g>
<!-- Node9 -->
<g id="Node000009" class="node">
<title>Node9</title>
<g id="a_Node000009"><a xlink:title=" ">
<polygon fill="white" stroke="transparent" points="295.5,-1565 192.5,-1565 192.5,-1505 295.5,-1505 295.5,-1565"/>
<text text-anchor="start" x="198" y="-1553" font-family="Helvetica,sans-Serif" font-size="10.00">std::basic_ostream</text>
<text text-anchor="start" x="221.5" y="-1542" font-family="Helvetica,sans-Serif" font-size="10.00">&lt; Char &gt;</text>
<text text-anchor="start" x="242.5" y="-1527" font-family="Helvetica,sans-Serif" font-size="10.00"> </text>
<text text-anchor="start" x="242.5" y="-1512" font-family="Helvetica,sans-Serif" font-size="10.00"> </text>
<polygon fill="#666666" stroke="#666666" points="193,-1537 193,-1537 296,-1537 296,-1537 193,-1537"/>
<polygon fill="#666666" stroke="#666666" points="193,-1522 193,-1522 296,-1522 296,-1522 193,-1522"/>
<polygon fill="none" stroke="#666666" points="192.5,-1505 192.5,-1565 295.5,-1565 295.5,-1505 192.5,-1505"/>
</a>
</g>
</g>
<!-- Node9&#45;&gt;Node8 -->
<g id="edge10_Node000008_Node000009" class="edge">
<title>Node9&#45;&gt;Node8</title>
<g id="a_edge10_Node000008_Node000009"><a xlink:title=" ">
<path fill="none" stroke="#63b8ff" d="M244,-1494.79C244,-1485.88 244,-1476.57 244,-1468.17"/>
<polygon fill="none" stroke="#63b8ff" points="240.5,-1494.98 244,-1504.98 247.5,-1494.98 240.5,-1494.98"/>
</a>
</g>
</g>
<!-- Node10 -->
<g id="Node000010" class="node">
<title>Node10</title>
<g id="a_Node000010"><a xlink:title=" ">
<polygon fill="white" stroke="transparent" points="305,-1651 183,-1651 183,-1602 305,-1602 305,-1651"/>
<text text-anchor="start" x="188" y="-1638.5" font-family="Helvetica,sans-Serif" font-size="10.00">std::basic_ios&lt; Char &gt;</text>
<text text-anchor="start" x="242" y="-1623.5" font-family="Helvetica,sans-Serif" font-size="10.00"> </text>
<text text-anchor="start" x="242" y="-1608.5" font-family="Helvetica,sans-Serif" font-size="10.00"> </text>
<polygon fill="#666666" stroke="#666666" points="183,-1633.5 183,-1633.5 305,-1633.5 305,-1633.5 183,-1633.5"/>
<polygon fill="#666666" stroke="#666666" points="183,-1618.5 183,-1618.5 305,-1618.5 305,-1618.5 183,-1618.5"/>
<polygon fill="none" stroke="#666666" points="183,-1602 183,-1651 305,-1651 305,-1602 183,-1602"/>
</a>
</g>
</g>
<!-- Node10&#45;&gt;Node9 -->
<g id="edge11_Node000009_Node000010" class="edge">
<title>Node10&#45;&gt;Node9</title>
<g id="a_edge11_Node000009_Node000010"><a xlink:title=" ">
<path fill="none" stroke="#63b8ff" d="M244,-1591.7C244,-1582.95 244,-1573.6 244,-1565.12"/>
<polygon fill="none" stroke="#63b8ff" points="240.5,-1591.98 244,-1601.98 247.5,-1591.98 240.5,-1591.98"/>
</a>
</g>
</g>
<!-- Node11 -->
<g id="Node000011" class="node">
<title>Node11</title>
<g id="a_Node000011"><a xlink:title=" ">
<polygon fill="white" stroke="transparent" points="281,-1737 207,-1737 207,-1688 281,-1688 281,-1737"/>
<text text-anchor="start" x="212" y="-1724.5" font-family="Helvetica,sans-Serif" font-size="10.00">std::ios_base</text>
<text text-anchor="start" x="242" y="-1709.5" font-family="Helvetica,sans-Serif" font-size="10.00"> </text>
<text text-anchor="start" x="242" y="-1694.5" font-family="Helvetica,sans-Serif" font-size="10.00"> </text>
<polygon fill="#666666" stroke="#666666" points="207,-1719.5 207,-1719.5 281,-1719.5 281,-1719.5 207,-1719.5"/>
<polygon fill="#666666" stroke="#666666" points="207,-1704.5 207,-1704.5 281,-1704.5 281,-1704.5 207,-1704.5"/>
<polygon fill="none" stroke="#666666" points="207,-1688 207,-1737 281,-1737 281,-1688 207,-1688"/>
</a>
</g>
</g>
<!-- Node11&#45;&gt;Node10 -->
<g id="edge12_Node000010_Node000011" class="edge">
<title>Node11&#45;&gt;Node10</title>
<g id="a_edge12_Node000010_Node000011"><a xlink:title=" ">
<path fill="none" stroke="#63b8ff" d="M244,-1677.57C244,-1668.69 244,-1659.32 244,-1651.12"/>
<polygon fill="none" stroke="#63b8ff" points="240.5,-1677.65 244,-1687.65 247.5,-1677.65 240.5,-1677.65"/>
</a>
</g>
</g>
<!-- Node12 -->
<g id="Node000012" class="node">
<title>Node12</title>
<g id="a_Node000012"><a xlink:title=" ">
<polygon fill="white" stroke="transparent" points="369.5,-1371 306.5,-1371 306.5,-1322 369.5,-1322 369.5,-1371"/>
<text text-anchor="start" x="312" y="-1358.5" font-family="Helvetica,sans-Serif" font-size="10.00">std::mutex</text>
<text text-anchor="start" x="336.5" y="-1343.5" font-family="Helvetica,sans-Serif" font-size="10.00"> </text>
<text text-anchor="start" x="336.5" y="-1328.5" font-family="Helvetica,sans-Serif" font-size="10.00"> </text>
<polygon fill="#666666" stroke="#666666" points="307,-1353.5 307,-1353.5 370,-1353.5 370,-1353.5 307,-1353.5"/>
<polygon fill="#666666" stroke="#666666" points="307,-1338.5 307,-1338.5 370,-1338.5 370,-1338.5 307,-1338.5"/>
<polygon fill="none" stroke="#666666" points="306.5,-1322 306.5,-1371 369.5,-1371 369.5,-1322 306.5,-1322"/>
</a>
</g>
</g>
<!-- Node12&#45;&gt;Node6 -->
<g id="edge13_Node000006_Node000012" class="edge">
<title>Node12&#45;&gt;Node6</title>
<g id="a_edge13_Node000006_Node000012"><a xlink:title=" ">
<path fill="none" stroke="#63b8ff" d="M328.55,-1321.8C324.8,-1312.72 320.35,-1302.31 316,-1293 314.92,-1290.69 313.82,-1288.37 312.71,-1286.03"/>
<polygon fill="none" stroke="#63b8ff" points="312.61,-1285.82 306.41,-1282.15 307.41,-1275.01 313.62,-1278.68 312.61,-1285.82"/>
</a>
</g>
<text text-anchor="middle" x="359" y="-1296" font-family="Helvetica,sans-Serif" font-size="10.00" fill="grey"> &#45;m_writeMutex</text>
</g>
<!-- Node13 -->
<g id="Node000013" class="node">
<title>Node13</title>
<g id="a_Node000013"><a xlink:href="../../d2/d03/structPCCPosition.html" target="_top" xlink:title="Position logique d&#39;un nœud dans le schéma PCC.">
<polygon fill="white" stroke="transparent" points="341.5,-738 272.5,-738 272.5,-674 341.5,-674 341.5,-738"/>
<text text-anchor="start" x="278" y="-726" font-family="Helvetica,sans-Serif" font-size="10.00">PCCPosition</text>
<text text-anchor="start" x="287" y="-711" font-family="Helvetica,sans-Serif" font-size="10.00">+</text>
<text text-anchor="start" x="310" y="-711" font-family="Helvetica,sans-Serif" font-size="10.00">x</text>
<text text-anchor="start" x="287" y="-696" font-family="Helvetica,sans-Serif" font-size="10.00">+</text>
<text text-anchor="start" x="310" y="-696" font-family="Helvetica,sans-Serif" font-size="10.00">y</text>
<text text-anchor="start" x="305.5" y="-681" font-family="Helvetica,sans-Serif" font-size="10.00"> </text>
<polygon fill="#666666" stroke="#666666" points="273,-721 273,-721 342,-721 342,-721 273,-721"/>
<polygon fill="#666666" stroke="#666666" points="273,-691 273,-691 308,-691 308,-691 273,-691"/>
<polygon fill="#666666" stroke="#666666" points="308,-691 308,-691 342,-691 342,-691 308,-691"/>
<polygon fill="none" stroke="#666666" points="272.5,-674 272.5,-738 341.5,-738 341.5,-674 272.5,-674"/>
</a>
</g>
</g>
<!-- Node13&#45;&gt;Node1 -->
<g id="edge14_Node000001_Node000013" class="edge">
<title>Node13&#45;&gt;Node1</title>
<g id="a_edge14_Node000001_Node000013"><a xlink:title=" ">
<path fill="none" stroke="#63b8ff" d="M299.21,-673.91C294.01,-653.14 286.76,-624.2 279.22,-594.1"/>
<polygon fill="none" stroke="#63b8ff" points="279.12,-593.71 273.78,-588.86 276.21,-582.07 281.55,-586.92 279.12,-593.71"/>
</a>
</g>
<text text-anchor="middle" x="315" y="-603" font-family="Helvetica,sans-Serif" font-size="10.00" fill="grey"> #m_position</text>
</g>
<!-- Node14 -->
<g id="Node000014" class="node">
<title>Node14</title>
<g id="a_Node000014"><a xlink:title=" ">
<polygon fill="white" stroke="transparent" points="328.5,-49 191.5,-49 191.5,0 328.5,0 328.5,-49"/>
<text text-anchor="start" x="197" y="-36.5" font-family="Helvetica,sans-Serif" font-size="10.00">std::vector&lt; PCCEdge * &gt;</text>
<text text-anchor="start" x="258.5" y="-21.5" font-family="Helvetica,sans-Serif" font-size="10.00"> </text>
<text text-anchor="start" x="258.5" y="-6.5" font-family="Helvetica,sans-Serif" font-size="10.00"> </text>
<polygon fill="#666666" stroke="#666666" points="192,-31.5 192,-31.5 329,-31.5 329,-31.5 192,-31.5"/>
<polygon fill="#666666" stroke="#666666" points="192,-16.5 192,-16.5 329,-16.5 329,-16.5 192,-16.5"/>
<polygon fill="none" stroke="#666666" points="191.5,0 191.5,-49 328.5,-49 328.5,0 191.5,0"/>
</a>
</g>
</g>
<!-- Node14&#45;&gt;Node1 -->
<g id="edge15_Node000001_Node000014" class="edge">
<title>Node14&#45;&gt;Node1</title>
<g id="a_edge15_Node000001_Node000014"><a xlink:title=" ">
<path fill="none" stroke="#63b8ff" d="M257.64,-49.3C256.36,-62.95 254.88,-80.42 254,-96 250,-166.65 247.58,-245.3 246.12,-310.63"/>
<polygon fill="none" stroke="#63b8ff" points="246.12,-310.66 249.99,-316.75 245.86,-322.66 241.99,-316.58 246.12,-310.66"/>
</a>
</g>
<text text-anchor="middle" x="282" y="-178" font-family="Helvetica,sans-Serif" font-size="10.00" fill="grey"> #m_edges</text>
</g>
<!-- Node15&#45;&gt;Node14 -->
<g id="edge16_Node000014_Node000015" class="edge">
<title>Node15&#45;&gt;Node14</title>
<g id="a_edge16_Node000014_Node000015"><a xlink:title=" ">
<path fill="none" stroke="#63b8ff" d="M318.45,-116.42C305.92,-96.93 292.6,-76.21 281.85,-59.48"/>
<polygon fill="none" stroke="#63b8ff" points="281.67,-59.21 275.06,-56.33 275.18,-49.12 281.79,-52 281.67,-59.21"/>
</a>
</g>
<text text-anchor="middle" x="321" y="-70" font-family="Helvetica,sans-Serif" font-size="10.00" fill="grey"> +elements</text>
</g>
</g>
</svg>
