<?xml version="1.0" encoding="UTF-8" standalone="no"?>
<!DOCTYPE svg PUBLIC "-//W3C//DTD SVG 1.1//EN"
 "http://www.w3.org/Graphics/SVG/1.1/DTD/svg11.dtd">
<!-- Generated by graphviz version 2.43.0 (0)
 -->
<!-- Title: SimulateurFerroviaire/Modules/GeoParser/GeoParser.h Pages: 1 -->
<svg width="382pt" height="115pt"
 viewBox="0.00 0.00 382.00 115.00" xmlns="http://www.w3.org/2000/svg" xmlns:xlink="http://www.w3.org/1999/xlink">
<g id="graph0" class="graph" transform="scale(1 1) rotate(0) translate(4 111)">
<title>SimulateurFerroviaire/Modules/GeoParser/GeoParser.h</title>
<!-- Node1 -->
<g id="Node000001" class="node">
<title>Node1</title>
<g id="a_Node000001"><a xlink:title="Orchestrateur du pipeline GeoParser v2.">
<polygon fill="#999999" stroke="#666666" points="277.5,-107 103.5,-107 103.5,-77 277.5,-77 277.5,-107"/>
<text text-anchor="start" x="111.5" y="-95" font-family="Helvetica,sans-Serif" font-size="10.00">SimulateurFerroviaire</text>
<text text-anchor="middle" x="190.5" y="-84" font-family="Helvetica,sans-Serif" font-size="10.00">/Modules/GeoParser/GeoParser.h</text>
</a>
</g>
</g>
<!-- Node2 -->
<g id="Node000002" class="node">
<title>Node2</title>
<g id="a_Node000002"><a xlink:href="../../d7/d03/GeoParser_8cpp.html" target="_top" xlink:title="Implémentation de l&#39;orchestrateur GeoParser v2.">
<polygon fill="white" stroke="#666666" points="185,-35.5 0,-35.5 0,-5.5 185,-5.5 185,-35.5"/>
<text text-anchor="start" x="8" y="-23.5" font-family="Helvetica,sans-Serif" font-size="10.00">SimulateurFerroviaire</text>
<text text-anchor="middle" x="92.5" y="-12.5" font-family="Helvetica,sans-Serif" font-size="10.00">/Modules/GeoParser/GeoParser.cpp</text>
</a>
</g>
</g>
<!-- Node1&#45;&gt;Node2 -->
<g id="edge1_Node000001_Node000002" class="edge">
<title>Node1&#45;&gt;Node2</title>
<g id="a_edge1_Node000001_Node000002"><a xlink:title=" ">
<path fill="none" stroke="#63b8ff" d="M162.21,-70.94C146.23,-59.6 126.64,-45.71 112.3,-35.54"/>
<polygon fill="#63b8ff" stroke="#63b8ff" points="160.49,-74.01 170.67,-76.94 164.54,-68.3 160.49,-74.01"/>
</a>
</g>
</g>
<!-- Node3 -->
<g id="Node000003" class="node">
<title>Node3</title>
<g id="a_Node000003"><a xlink:href="../../dd/d01/GeoParsingTask_8cpp.html" target="_top" xlink:title="Implémentation de la tâche asynchrone GeoParsingTask v2.">
<polygon fill="white" stroke="#666666" points="374,-41 203,-41 203,0 374,0 374,-41"/>
<text text-anchor="start" x="211" y="-29" font-family="Helvetica,sans-Serif" font-size="10.00">SimulateurFerroviaire</text>
<text text-anchor="start" x="211" y="-18" font-family="Helvetica,sans-Serif" font-size="10.00">/Modules/GeoParser/GeoParsing</text>
<text text-anchor="middle" x="288.5" y="-7" font-family="Helvetica,sans-Serif" font-size="10.00">Task.cpp</text>
</a>
</g>
</g>
<!-- Node1&#45;&gt;Node3 -->
<g id="edge2_Node000001_Node000003" class="edge">
<title>Node1&#45;&gt;Node3</title>
<g id="a_edge2_Node000001_Node000003"><a xlink:title=" ">
<path fill="none" stroke="#63b8ff" d="M218.64,-71.04C231.91,-61.63 247.7,-50.44 260.9,-41.07"/>
<polygon fill="#63b8ff" stroke="#63b8ff" points="216.46,-68.3 210.33,-76.94 220.51,-74.01 216.46,-68.3"/>
</a>
</g>
</g>
</g>
</svg>
