<?xml version="1.0" encoding="UTF-8" standalone="no"?>
<!DOCTYPE svg PUBLIC "-//W3C//DTD SVG 1.1//EN"
 "http://www.w3.org/Graphics/SVG/1.1/DTD/svg11.dtd">
<!-- Generated by graphviz version 2.43.0 (0)
 -->
<!-- Title: StraightBlock::StraightNeighbours Pages: 1 -->
<svg width="396pt" height="1213pt"
 viewBox="0.00 0.00 396.00 1213.00" xmlns="http://www.w3.org/2000/svg" xmlns:xlink="http://www.w3.org/1999/xlink">
<g id="graph0" class="graph" transform="scale(1 1) rotate(0) translate(4 1209)">
<title>StraightBlock::StraightNeighbours</title>
<!-- Node1 -->
<g id="Node000001" class="node">
<title>Node1</title>
<g id="a_Node000001"><a xlink:title="Voisins topologiques résolus (pointeurs non&#45;propriétaires).">
<polygon fill="#999999" stroke="transparent" points="388,-49 212,-49 212,0 388,0 388,-49"/>
<text text-anchor="start" x="217" y="-36.5" font-family="Helvetica,sans-Serif" font-size="10.00">StraightBlock::StraightNeighbours</text>
<text text-anchor="start" x="298" y="-21.5" font-family="Helvetica,sans-Serif" font-size="10.00"> </text>
<text text-anchor="start" x="298" y="-6.5" font-family="Helvetica,sans-Serif" font-size="10.00"> </text>
<polygon fill="#666666" stroke="#666666" points="212,-31.5 212,-31.5 388,-31.5 388,-31.5 212,-31.5"/>
<polygon fill="#666666" stroke="#666666" points="212,-16.5 212,-16.5 388,-16.5 388,-16.5 212,-16.5"/>
<polygon fill="none" stroke="#666666" points="212,0 212,-49 388,-49 388,0 212,0"/>
</a>
</g>
</g>
<!-- Node2 -->
<g id="Node000002" class="node">
<title>Node2</title>
<g id="a_Node000002"><a xlink:href="../../d2/d00/classShuntingElement.html" target="_top" xlink:title="Interface abstraite pour tous les éléments de shuntage ferroviaire.">
<polygon fill="white" stroke="transparent" points="360.5,-261 239.5,-261 239.5,-107 360.5,-107 360.5,-261"/>
<text text-anchor="start" x="258.5" y="-249" font-family="Helvetica,sans-Serif" font-size="10.00">ShuntingElement</text>
<text text-anchor="start" x="244" y="-234" font-family="Helvetica,sans-Serif" font-size="10.00">#</text>
<text text-anchor="start" x="257" y="-234" font-family="Helvetica,sans-Serif" font-size="10.00">m_state</text>
<text text-anchor="start" x="244" y="-219" font-family="Helvetica,sans-Serif" font-size="10.00">+</text>
<text text-anchor="start" x="257" y="-219" font-family="Helvetica,sans-Serif" font-size="10.00">ShuntingElement()</text>
<text text-anchor="start" x="244" y="-204" font-family="Helvetica,sans-Serif" font-size="10.00">+</text>
<text text-anchor="start" x="257" y="-204" font-family="Helvetica,sans-Serif" font-size="10.00">~ShuntingElement()</text>
<text text-anchor="start" x="244" y="-189" font-family="Helvetica,sans-Serif" font-size="10.00">+</text>
<text text-anchor="start" x="257" y="-189" font-family="Helvetica,sans-Serif" font-size="10.00">ShuntingElement()</text>
<text text-anchor="start" x="244" y="-174" font-family="Helvetica,sans-Serif" font-size="10.00">+</text>
<text text-anchor="start" x="257" y="-174" font-family="Helvetica,sans-Serif" font-size="10.00">operator=()</text>
<text text-anchor="start" x="244" y="-159" font-family="Helvetica,sans-Serif" font-size="10.00">+</text>
<text text-anchor="start" x="257" y="-159" font-family="Helvetica,sans-Serif" font-size="10.00">getState()</text>
<text text-anchor="start" x="244" y="-144" font-family="Helvetica,sans-Serif" font-size="10.00">+</text>
<text text-anchor="start" x="257" y="-144" font-family="Helvetica,sans-Serif" font-size="10.00">isFree()</text>
<text text-anchor="start" x="244" y="-129" font-family="Helvetica,sans-Serif" font-size="10.00">+</text>
<text text-anchor="start" x="257" y="-129" font-family="Helvetica,sans-Serif" font-size="10.00">isOccupied()</text>
<text text-anchor="start" x="244" y="-114" font-family="Helvetica,sans-Serif" font-size="10.00">+</text>
<text text-anchor="start" x="257" y="-114" font-family="Helvetica,sans-Serif" font-size="10.00">isInactive()</text>
<polygon fill="#666666" stroke="#666666" points="240,-244 240,-244 361,-244 361,-244 240,-244"/>
<polygon fill="#666666" stroke="#666666" points="240,-229 240,-229 255,-229 255,-229 240,-229"/>
<polygon fill="#666666" stroke="#666666" points="255,-229 255,-229 361,-229 361,-229 255,-229"/>
<polygon fill="none" stroke="#666666" points="239.5,-107 239.5,-261 360.5,-261 360.5,-107 239.5,-107"/>
</a>
</g>
</g>
<!-- Node2&#45;&gt;Node1 -->
<g id="edge1_Node000001_Node000002" class="edge">
<title>Node2&#45;&gt;Node1</title>
<g id="a_edge1_Node000001_Node000002"><a xlink:title=" ">
<path fill="none" stroke="#63b8ff" d="M300,-106.56C300,-90.76 300,-74.83 300,-61.33"/>
<polygon fill="none" stroke="#63b8ff" points="300,-61.22 296,-55.22 300,-49.22 304,-55.22 300,-61.22"/>
</a>
</g>
<text text-anchor="middle" x="317" y="-81" font-family="Helvetica,sans-Serif" font-size="10.00" fill="grey"> +next</text>
<text text-anchor="middle" x="317" y="-70" font-family="Helvetica,sans-Serif" font-size="10.00" fill="grey">+prev</text>
</g>
<!-- Node3 -->
<g id="Node000003" class="node">
<title>Node3</title>
<g id="a_Node000003"><a xlink:href="../../d5/d00/classElement.html" target="_top" xlink:title="Classe de base abstraite pour tous les éléments interactifs ferroviaires.">
<polygon fill="white" stroke="transparent" points="339.5,-452 260.5,-452 260.5,-298 339.5,-298 339.5,-452"/>
<text text-anchor="start" x="280" y="-440" font-family="Helvetica,sans-Serif" font-size="10.00">Element</text>
<text text-anchor="start" x="298.5" y="-425" font-family="Helvetica,sans-Serif" font-size="10.00"> </text>
<text text-anchor="start" x="265" y="-410" font-family="Helvetica,sans-Serif" font-size="10.00">+</text>
<text text-anchor="start" x="278" y="-410" font-family="Helvetica,sans-Serif" font-size="10.00">Element()</text>
<text text-anchor="start" x="265" y="-395" font-family="Helvetica,sans-Serif" font-size="10.00">+</text>
<text text-anchor="start" x="278" y="-395" font-family="Helvetica,sans-Serif" font-size="10.00">~Element()</text>
<text text-anchor="start" x="265" y="-380" font-family="Helvetica,sans-Serif" font-size="10.00">+</text>
<text text-anchor="start" x="278" y="-380" font-family="Helvetica,sans-Serif" font-size="10.00">Element()</text>
<text text-anchor="start" x="265" y="-365" font-family="Helvetica,sans-Serif" font-size="10.00">+</text>
<text text-anchor="start" x="278" y="-365" font-family="Helvetica,sans-Serif" font-size="10.00">operator=()</text>
<text text-anchor="start" x="265" y="-350" font-family="Helvetica,sans-Serif" font-size="10.00">+</text>
<text text-anchor="start" x="278" y="-350" font-family="Helvetica,sans-Serif" font-size="10.00">Element()</text>
<text text-anchor="start" x="265" y="-335" font-family="Helvetica,sans-Serif" font-size="10.00">+</text>
<text text-anchor="start" x="278" y="-335" font-family="Helvetica,sans-Serif" font-size="10.00">operator=()</text>
<text text-anchor="start" x="265" y="-320" font-family="Helvetica,sans-Serif" font-size="10.00">+</text>
<text text-anchor="start" x="278" y="-320" font-family="Helvetica,sans-Serif" font-size="10.00">getId()</text>
<text text-anchor="start" x="265" y="-305" font-family="Helvetica,sans-Serif" font-size="10.00">+</text>
<text text-anchor="start" x="278" y="-305" font-family="Helvetica,sans-Serif" font-size="10.00">getType()</text>
<polygon fill="#666666" stroke="#666666" points="261,-435 261,-435 340,-435 340,-435 261,-435"/>
<polygon fill="#666666" stroke="#666666" points="261,-420 261,-420 340,-420 340,-420 261,-420"/>
<polygon fill="none" stroke="#666666" points="260.5,-298 260.5,-452 339.5,-452 339.5,-298 260.5,-298"/>
</a>
</g>
</g>
<!-- Node3&#45;&gt;Node2 -->
<g id="edge2_Node000002_Node000003" class="edge">
<title>Node3&#45;&gt;Node2</title>
<g id="a_edge2_Node000002_Node000003"><a xlink:title=" ">
<path fill="none" stroke="#63b8ff" d="M300,-287.94C300,-279.02 300,-270.01 300,-261.21"/>
<polygon fill="none" stroke="#63b8ff" points="296.5,-287.94 300,-297.94 303.5,-287.94 296.5,-287.94"/>
</a>
</g>
</g>
<!-- Node4 -->
<g id="Node000004" class="node">
<title>Node4</title>
<g id="a_Node000004"><a xlink:title=" ">
<polygon fill="white" stroke="transparent" points="333.5,-839 274.5,-839 274.5,-790 333.5,-790 333.5,-839"/>
<text text-anchor="start" x="280" y="-826.5" font-family="Helvetica,sans-Serif" font-size="10.00">std::string</text>
<text text-anchor="start" x="302.5" y="-811.5" font-family="Helvetica,sans-Serif" font-size="10.00"> </text>
<text text-anchor="start" x="302.5" y="-796.5" font-family="Helvetica,sans-Serif" font-size="10.00"> </text>
<polygon fill="#666666" stroke="#666666" points="275,-821.5 275,-821.5 334,-821.5 334,-821.5 275,-821.5"/>
<polygon fill="#666666" stroke="#666666" points="275,-806.5 275,-806.5 334,-806.5 334,-806.5 275,-806.5"/>
<polygon fill="none" stroke="#666666" points="274.5,-790 274.5,-839 333.5,-839 333.5,-790 274.5,-790"/>
</a>
</g>
</g>
<!-- Node4&#45;&gt;Node3 -->
<g id="edge3_Node000003_Node000004" class="edge">
<title>Node4&#45;&gt;Node3</title>
<g id="a_edge3_Node000003_Node000004"><a xlink:title=" ">
<path fill="none" stroke="#63b8ff" d="M327.95,-789.79C332.07,-784.36 335.74,-778.32 338,-772 339.65,-767.4 338.13,-765.89 338,-761 334.44,-631.52 340.38,-598.22 322,-470 321.73,-468.09 321.43,-466.17 321.12,-464.23"/>
<polygon fill="none" stroke="#63b8ff" points="321.09,-464.05 316.11,-458.83 319.02,-452.23 323.99,-457.45 321.09,-464.05"/>
</a>
</g>
<text text-anchor="middle" x="355" y="-618.5" font-family="Helvetica,sans-Serif" font-size="10.00" fill="grey"> #m_id</text>
</g>
<!-- Node6 -->
<g id="Node000006" class="node">
<title>Node6</title>
<g id="a_Node000006"><a xlink:href="../../db/d03/classLogger.html" target="_top" xlink:title="Journaliseur associé à un moteur nommé.">
<polygon fill="white" stroke="transparent" points="270,-743 134,-743 134,-499 270,-499 270,-743"/>
<text text-anchor="start" x="185" y="-731" font-family="Helvetica,sans-Serif" font-size="10.00">Logger</text>
<text text-anchor="start" x="140.5" y="-716" font-family="Helvetica,sans-Serif" font-size="10.00">&#45;</text>
<text text-anchor="start" x="151" y="-716" font-family="Helvetica,sans-Serif" font-size="10.00">m_minimumLevel</text>
<text text-anchor="start" x="138" y="-701" font-family="Helvetica,sans-Serif" font-size="10.00">+</text>
<text text-anchor="start" x="151" y="-701" font-family="Helvetica,sans-Serif" font-size="10.00">Logger()</text>
<text text-anchor="start" x="138" y="-686" font-family="Helvetica,sans-Serif" font-size="10.00">+</text>
<text text-anchor="start" x="151" y="-686" font-family="Helvetica,sans-Serif" font-size="10.00">~Logger()</text>
<text text-anchor="start" x="138" y="-671" font-family="Helvetica,sans-Serif" font-size="10.00">+</text>
<text text-anchor="start" x="151" y="-671" font-family="Helvetica,sans-Serif" font-size="10.00">Logger()</text>
<text text-anchor="start" x="138" y="-656" font-family="Helvetica,sans-Serif" font-size="10.00">+</text>
<text text-anchor="start" x="151" y="-656" font-family="Helvetica,sans-Serif" font-size="10.00">operator=()</text>
<text text-anchor="start" x="138" y="-641" font-family="Helvetica,sans-Serif" font-size="10.00">+</text>
<text text-anchor="start" x="151" y="-641" font-family="Helvetica,sans-Serif" font-size="10.00">writeLog()</text>
<text text-anchor="start" x="138" y="-626" font-family="Helvetica,sans-Serif" font-size="10.00">+</text>
<text text-anchor="start" x="151" y="-626" font-family="Helvetica,sans-Serif" font-size="10.00">setMinimumLogLevel()</text>
<text text-anchor="start" x="138" y="-611" font-family="Helvetica,sans-Serif" font-size="10.00">+</text>
<text text-anchor="start" x="151" y="-611" font-family="Helvetica,sans-Serif" font-size="10.00">getMotorName()</text>
<text text-anchor="start" x="138" y="-596" font-family="Helvetica,sans-Serif" font-size="10.00">+</text>
<text text-anchor="start" x="151" y="-596" font-family="Helvetica,sans-Serif" font-size="10.00">triggerFatalCrash()</text>
<text text-anchor="start" x="140.5" y="-581" font-family="Helvetica,sans-Serif" font-size="10.00">&#45;</text>
<text text-anchor="start" x="151" y="-581" font-family="Helvetica,sans-Serif" font-size="10.00">extractClassName()</text>
<text text-anchor="start" x="140.5" y="-566" font-family="Helvetica,sans-Serif" font-size="10.00">&#45;</text>
<text text-anchor="start" x="151" y="-566" font-family="Helvetica,sans-Serif" font-size="10.00">extractFunctionName()</text>
<text text-anchor="start" x="140.5" y="-551" font-family="Helvetica,sans-Serif" font-size="10.00">&#45;</text>
<text text-anchor="start" x="151" y="-551" font-family="Helvetica,sans-Serif" font-size="10.00">formatLogLine()</text>
<text text-anchor="start" x="140.5" y="-536" font-family="Helvetica,sans-Serif" font-size="10.00">&#45;</text>
<text text-anchor="start" x="151" y="-536" font-family="Helvetica,sans-Serif" font-size="10.00">levelToString()</text>
<text text-anchor="start" x="140.5" y="-521" font-family="Helvetica,sans-Serif" font-size="10.00">&#45;</text>
<text text-anchor="start" x="151" y="-521" font-family="Helvetica,sans-Serif" font-size="10.00">getCurrentTimestamp()</text>
<text text-anchor="start" x="140.5" y="-506" font-family="Helvetica,sans-Serif" font-size="10.00">&#45;</text>
<text text-anchor="start" x="151" y="-506" font-family="Helvetica,sans-Serif" font-size="10.00">sendToDebugOutput()</text>
<polygon fill="#666666" stroke="#666666" points="134,-726 134,-726 270,-726 270,-726 134,-726"/>
<polygon fill="#666666" stroke="#666666" points="134,-711 134,-711 149,-711 149,-711 134,-711"/>
<polygon fill="#666666" stroke="#666666" points="149,-711 149,-711 270,-711 270,-711 149,-711"/>
<polygon fill="none" stroke="#666666" points="134,-499 134,-743 270,-743 270,-499 134,-499"/>
</a>
</g>
</g>
<!-- Node4&#45;&gt;Node6 -->
<g id="edge6_Node000006_Node000004" class="edge">
<title>Node4&#45;&gt;Node6</title>
<g id="a_edge6_Node000006_Node000004"><a xlink:title=" ">
<path fill="none" stroke="#63b8ff" d="M274.38,-791.38C268.02,-785.6 261.79,-779.01 257,-772 253.09,-766.28 249.42,-760.24 245.98,-754.01"/>
<polygon fill="none" stroke="#63b8ff" points="245.97,-754 239.64,-750.54 240.4,-743.36 246.73,-746.83 245.97,-754"/>
</a>
</g>
<text text-anchor="middle" x="297.5" y="-764" font-family="Helvetica,sans-Serif" font-size="10.00" fill="grey"> &#45;m_motorName</text>
</g>
<!-- Node5 -->
<g id="Node000005" class="node">
<title>Node5</title>
<g id="a_Node000005"><a xlink:title=" ">
<polygon fill="white" stroke="transparent" points="353,-936 255,-936 255,-876 353,-876 353,-936"/>
<text text-anchor="start" x="260" y="-924" font-family="Helvetica,sans-Serif" font-size="10.00">std::basic_string&lt;</text>
<text text-anchor="start" x="285.5" y="-913" font-family="Helvetica,sans-Serif" font-size="10.00"> Char &gt;</text>
<text text-anchor="start" x="302" y="-898" font-family="Helvetica,sans-Serif" font-size="10.00"> </text>
<text text-anchor="start" x="302" y="-883" font-family="Helvetica,sans-Serif" font-size="10.00"> </text>
<polygon fill="#666666" stroke="#666666" points="255,-908 255,-908 353,-908 353,-908 255,-908"/>
<polygon fill="#666666" stroke="#666666" points="255,-893 255,-893 353,-893 353,-893 255,-893"/>
<polygon fill="none" stroke="#666666" points="255,-876 255,-936 353,-936 353,-876 255,-876"/>
</a>
</g>
</g>
<!-- Node5&#45;&gt;Node4 -->
<g id="edge4_Node000004_Node000005" class="edge">
<title>Node5&#45;&gt;Node4</title>
<g id="a_edge4_Node000004_Node000005"><a xlink:title=" ">
<path fill="none" stroke="#63b8ff" d="M304,-865.41C304,-856.47 304,-847.25 304,-839.21"/>
<polygon fill="none" stroke="#63b8ff" points="300.5,-865.69 304,-875.69 307.5,-865.69 300.5,-865.69"/>
</a>
</g>
</g>
<!-- Node6&#45;&gt;Node3 -->
<g id="edge5_Node000003_Node000006" class="edge">
<title>Node6&#45;&gt;Node3</title>
<g id="a_edge5_Node000003_Node000006"><a xlink:title=" ">
<path fill="none" stroke="#63b8ff" d="M250.71,-498.71C255.5,-486.78 260.3,-474.84 264.92,-463.35"/>
<polygon fill="none" stroke="#63b8ff" points="264.99,-463.16 263.52,-456.1 269.46,-452.03 270.94,-459.08 264.99,-463.16"/>
</a>
</g>
<text text-anchor="middle" x="289" y="-473" font-family="Helvetica,sans-Serif" font-size="10.00" fill="grey"> #m_logger</text>
</g>
<!-- Node7 -->
<g id="Node000007" class="node">
<title>Node7</title>
<g id="a_Node000007"><a xlink:title=" ">
<polygon fill="white" stroke="transparent" points="99,-839 23,-839 23,-790 99,-790 99,-839"/>
<text text-anchor="start" x="28" y="-826.5" font-family="Helvetica,sans-Serif" font-size="10.00">std::ofstream</text>
<text text-anchor="start" x="59" y="-811.5" font-family="Helvetica,sans-Serif" font-size="10.00"> </text>
<text text-anchor="start" x="59" y="-796.5" font-family="Helvetica,sans-Serif" font-size="10.00"> </text>
<polygon fill="#666666" stroke="#666666" points="23,-821.5 23,-821.5 99,-821.5 99,-821.5 23,-821.5"/>
<polygon fill="#666666" stroke="#666666" points="23,-806.5 23,-806.5 99,-806.5 99,-806.5 23,-806.5"/>
<polygon fill="none" stroke="#666666" points="23,-790 23,-839 99,-839 99,-790 23,-790"/>
</a>
</g>
</g>
<!-- Node7&#45;&gt;Node6 -->
<g id="edge7_Node000006_Node000007" class="edge">
<title>Node7&#45;&gt;Node6</title>
<g id="a_edge7_Node000006_Node000007"><a xlink:title=" ">
<path fill="none" stroke="#63b8ff" d="M67.45,-789.92C70.54,-780.57 74.72,-769.93 80,-761 92.78,-739.38 109.13,-718 125.69,-698.73"/>
<polygon fill="none" stroke="#63b8ff" points="125.91,-698.48 126.85,-691.33 133.82,-689.45 132.87,-696.6 125.91,-698.48"/>
</a>
</g>
<text text-anchor="middle" x="115.5" y="-764" font-family="Helvetica,sans-Serif" font-size="10.00" fill="grey"> &#45;m_outputFile</text>
</g>
<!-- Node8 -->
<g id="Node000008" class="node">
<title>Node8</title>
<g id="a_Node000008"><a xlink:title=" ">
<polygon fill="white" stroke="transparent" points="114.5,-936 7.5,-936 7.5,-876 114.5,-876 114.5,-936"/>
<text text-anchor="start" x="13" y="-924" font-family="Helvetica,sans-Serif" font-size="10.00">std::basic_ofstream</text>
<text text-anchor="start" x="38.5" y="-913" font-family="Helvetica,sans-Serif" font-size="10.00">&lt; Char &gt;</text>
<text text-anchor="start" x="59.5" y="-898" font-family="Helvetica,sans-Serif" font-size="10.00"> </text>
<text text-anchor="start" x="59.5" y="-883" font-family="Helvetica,sans-Serif" font-size="10.00"> </text>
<polygon fill="#666666" stroke="#666666" points="8,-908 8,-908 115,-908 115,-908 8,-908"/>
<polygon fill="#666666" stroke="#666666" points="8,-893 8,-893 115,-893 115,-893 8,-893"/>
<polygon fill="none" stroke="#666666" points="7.5,-876 7.5,-936 114.5,-936 114.5,-876 7.5,-876"/>
</a>
</g>
</g>
<!-- Node8&#45;&gt;Node7 -->
<g id="edge8_Node000007_Node000008" class="edge">
<title>Node8&#45;&gt;Node7</title>
<g id="a_edge8_Node000007_Node000008"><a xlink:title=" ">
<path fill="none" stroke="#63b8ff" d="M61,-865.41C61,-856.47 61,-847.25 61,-839.21"/>
<polygon fill="none" stroke="#63b8ff" points="57.5,-865.69 61,-875.69 64.5,-865.69 57.5,-865.69"/>
</a>
</g>
</g>
<!-- Node9 -->
<g id="Node000009" class="node">
<title>Node9</title>
<g id="a_Node000009"><a xlink:title=" ">
<polygon fill="white" stroke="transparent" points="112.5,-1033 9.5,-1033 9.5,-973 112.5,-973 112.5,-1033"/>
<text text-anchor="start" x="15" y="-1021" font-family="Helvetica,sans-Serif" font-size="10.00">std::basic_ostream</text>
<text text-anchor="start" x="38.5" y="-1010" font-family="Helvetica,sans-Serif" font-size="10.00">&lt; Char &gt;</text>
<text text-anchor="start" x="59.5" y="-995" font-family="Helvetica,sans-Serif" font-size="10.00"> </text>
<text text-anchor="start" x="59.5" y="-980" font-family="Helvetica,sans-Serif" font-size="10.00"> </text>
<polygon fill="#666666" stroke="#666666" points="10,-1005 10,-1005 113,-1005 113,-1005 10,-1005"/>
<polygon fill="#666666" stroke="#666666" points="10,-990 10,-990 113,-990 113,-990 10,-990"/>
<polygon fill="none" stroke="#666666" points="9.5,-973 9.5,-1033 112.5,-1033 112.5,-973 9.5,-973"/>
</a>
</g>
</g>
<!-- Node9&#45;&gt;Node8 -->
<g id="edge9_Node000008_Node000009" class="edge">
<title>Node9&#45;&gt;Node8</title>
<g id="a_edge9_Node000008_Node000009"><a xlink:title=" ">
<path fill="none" stroke="#63b8ff" d="M61,-962.79C61,-953.88 61,-944.57 61,-936.17"/>
<polygon fill="none" stroke="#63b8ff" points="57.5,-962.98 61,-972.98 64.5,-962.98 57.5,-962.98"/>
</a>
</g>
</g>
<!-- Node10 -->
<g id="Node000010" class="node">
<title>Node10</title>
<g id="a_Node000010"><a xlink:title=" ">
<polygon fill="white" stroke="transparent" points="122,-1119 0,-1119 0,-1070 122,-1070 122,-1119"/>
<text text-anchor="start" x="5" y="-1106.5" font-family="Helvetica,sans-Serif" font-size="10.00">std::basic_ios&lt; Char &gt;</text>
<text text-anchor="start" x="59" y="-1091.5" font-family="Helvetica,sans-Serif" font-size="10.00"> </text>
<text text-anchor="start" x="59" y="-1076.5" font-family="Helvetica,sans-Serif" font-size="10.00"> </text>
<polygon fill="#666666" stroke="#666666" points="0,-1101.5 0,-1101.5 122,-1101.5 122,-1101.5 0,-1101.5"/>
<polygon fill="#666666" stroke="#666666" points="0,-1086.5 0,-1086.5 122,-1086.5 122,-1086.5 0,-1086.5"/>
<polygon fill="none" stroke="#666666" points="0,-1070 0,-1119 122,-1119 122,-1070 0,-1070"/>
</a>
</g>
</g>
<!-- Node10&#45;&gt;Node9 -->
<g id="edge10_Node000009_Node000010" class="edge">
<title>Node10&#45;&gt;Node9</title>
<g id="a_edge10_Node000009_Node000010"><a xlink:title=" ">
<path fill="none" stroke="#63b8ff" d="M61,-1059.7C61,-1050.95 61,-1041.6 61,-1033.12"/>
<polygon fill="none" stroke="#63b8ff" points="57.5,-1059.98 61,-1069.98 64.5,-1059.98 57.5,-1059.98"/>
</a>
</g>
</g>
<!-- Node11 -->
<g id="Node000011" class="node">
<title>Node11</title>
<g id="a_Node000011"><a xlink:title=" ">
<polygon fill="white" stroke="transparent" points="98,-1205 24,-1205 24,-1156 98,-1156 98,-1205"/>
<text text-anchor="start" x="29" y="-1192.5" font-family="Helvetica,sans-Serif" font-size="10.00">std::ios_base</text>
<text text-anchor="start" x="59" y="-1177.5" font-family="Helvetica,sans-Serif" font-size="10.00"> </text>
<text text-anchor="start" x="59" y="-1162.5" font-family="Helvetica,sans-Serif" font-size="10.00"> </text>
<polygon fill="#666666" stroke="#666666" points="24,-1187.5 24,-1187.5 98,-1187.5 98,-1187.5 24,-1187.5"/>
<polygon fill="#666666" stroke="#666666" points="24,-1172.5 24,-1172.5 98,-1172.5 98,-1172.5 24,-1172.5"/>
<polygon fill="none" stroke="#666666" points="24,-1156 24,-1205 98,-1205 98,-1156 24,-1156"/>
</a>
</g>
</g>
<!-- Node11&#45;&gt;Node10 -->
<g id="edge11_Node000010_Node000011" class="edge">
<title>Node11&#45;&gt;Node10</title>
<g id="a_edge11_Node000010_Node000011"><a xlink:title=" ">
<path fill="none" stroke="#63b8ff" d="M61,-1145.57C61,-1136.69 61,-1127.32 61,-1119.12"/>
<polygon fill="none" stroke="#63b8ff" points="57.5,-1145.65 61,-1155.65 64.5,-1145.65 57.5,-1145.65"/>
</a>
</g>
</g>
<!-- Node12 -->
<g id="Node000012" class="node">
<title>Node12</title>
<g id="a_Node000012"><a xlink:title=" ">
<polygon fill="white" stroke="transparent" points="186.5,-839 123.5,-839 123.5,-790 186.5,-790 186.5,-839"/>
<text text-anchor="start" x="129" y="-826.5" font-family="Helvetica,sans-Serif" font-size="10.00">std::mutex</text>
<text text-anchor="start" x="153.5" y="-811.5" font-family="Helvetica,sans-Serif" font-size="10.00"> </text>
<text text-anchor="start" x="153.5" y="-796.5" font-family="Helvetica,sans-Serif" font-size="10.00"> </text>
<polygon fill="#666666" stroke="#666666" points="124,-821.5 124,-821.5 187,-821.5 187,-821.5 124,-821.5"/>
<polygon fill="#666666" stroke="#666666" points="124,-806.5 124,-806.5 187,-806.5 187,-806.5 124,-806.5"/>
<polygon fill="none" stroke="#666666" points="123.5,-790 123.5,-839 186.5,-839 186.5,-790 123.5,-790"/>
</a>
</g>
</g>
<!-- Node12&#45;&gt;Node6 -->
<g id="edge12_Node000006_Node000012" class="edge">
<title>Node12&#45;&gt;Node6</title>
<g id="a_edge12_Node000006_Node000012"><a xlink:title=" ">
<path fill="none" stroke="#63b8ff" d="M153.95,-789.84C153.94,-780.76 154.4,-770.35 156,-761 156.35,-758.98 156.72,-756.94 157.11,-754.9"/>
<polygon fill="none" stroke="#63b8ff" points="157.11,-754.87 154.43,-748.18 159.58,-743.13 162.26,-749.83 157.11,-754.87"/>
</a>
</g>
<text text-anchor="middle" x="195" y="-764" font-family="Helvetica,sans-Serif" font-size="10.00" fill="grey"> &#45;m_writeMutex</text>
</g>
</g>
</svg>
