<?xml version="1.0" encoding="UTF-8" standalone="no"?>
<!DOCTYPE svg PUBLIC "-//W3C//DTD SVG 1.1//EN"
 "http://www.w3.org/Graphics/SVG/1.1/DTD/svg11.dtd">
<!-- Generated by graphviz version 2.43.0 (0)
 -->
<!-- Title: SimulateurFerroviaire/Engine/HMI/WebViewPanel/WebViewPanel.h Pages: 1 -->
<svg width="593pt" height="170pt"
 viewBox="0.00 0.00 593.00 170.00" xmlns="http://www.w3.org/2000/svg" xmlns:xlink="http://www.w3.org/1999/xlink">
<g id="graph0" class="graph" transform="scale(1 1) rotate(0) translate(4 166)">
<title>SimulateurFerroviaire/Engine/HMI/WebViewPanel/WebViewPanel.h</title>
<!-- Node1 -->
<g id="Node000001" class="node">
<title>Node1</title>
<g id="a_Node000001"><a xlink:title=" ">
<polygon fill="#999999" stroke="#666666" points="257.5,-162 108.5,-162 108.5,-121 257.5,-121 257.5,-162"/>
<text text-anchor="start" x="116.5" y="-150" font-family="Helvetica,sans-Serif" font-size="10.00">SimulateurFerroviaire</text>
<text text-anchor="start" x="116.5" y="-139" font-family="Helvetica,sans-Serif" font-size="10.00">/Engine/HMI/WebViewPanel</text>
<text text-anchor="middle" x="183" y="-128" font-family="Helvetica,sans-Serif" font-size="10.00">/WebViewPanel.h</text>
</a>
</g>
</g>
<!-- Node2 -->
<g id="Node000002" class="node">
<title>Node2</title>
<g id="a_Node000002"><a xlink:title=" ">
<polygon fill="#e0e0e0" stroke="#999999" points="68,-79.5 0,-79.5 0,-60.5 68,-60.5 68,-79.5"/>
<text text-anchor="middle" x="34" y="-67.5" font-family="Helvetica,sans-Serif" font-size="10.00">windows.h</text>
</a>
</g>
</g>
<!-- Node1&#45;&gt;Node2 -->
<g id="edge1_Node000001_Node000002" class="edge">
<title>Node1&#45;&gt;Node2</title>
<g id="a_edge1_Node000001_Node000002"><a xlink:title=" ">
<path fill="none" stroke="#63b8ff" d="M141.1,-120.96C115.61,-109.06 83.77,-94.21 61.46,-83.81"/>
<polygon fill="#63b8ff" stroke="#63b8ff" points="62.77,-80.56 52.23,-79.5 59.81,-86.9 62.77,-80.56"/>
</a>
</g>
</g>
<!-- Node3 -->
<g id="Node000003" class="node">
<title>Node3</title>
<g id="a_Node000003"><a xlink:title=" ">
<polygon fill="#e0e0e0" stroke="#999999" points="171,-19 127,-19 127,0 171,0 171,-19"/>
<text text-anchor="middle" x="149" y="-7" font-family="Helvetica,sans-Serif" font-size="10.00">string</text>
</a>
</g>
</g>
<!-- Node1&#45;&gt;Node3 -->
<g id="edge2_Node000001_Node000003" class="edge">
<title>Node1&#45;&gt;Node3</title>
<g id="a_edge2_Node000001_Node000003"><a xlink:title=" ">
<path fill="none" stroke="#63b8ff" d="M147.81,-120.95C135.02,-111.84 121.99,-99.73 115,-85 109.28,-72.95 110.73,-67.63 115,-55 118.56,-44.47 125.72,-34.48 132.55,-26.63"/>
<polygon fill="#63b8ff" stroke="#63b8ff" points="135.13,-29.01 139.39,-19.31 130.01,-24.23 135.13,-29.01"/>
</a>
</g>
</g>
<!-- Node4 -->
<g id="Node000004" class="node">
<title>Node4</title>
<g id="a_Node000004"><a xlink:title=" ">
<polygon fill="#e0e0e0" stroke="#999999" points="165.5,-79.5 124.5,-79.5 124.5,-60.5 165.5,-60.5 165.5,-79.5"/>
<text text-anchor="middle" x="145" y="-67.5" font-family="Helvetica,sans-Serif" font-size="10.00">wrl.h</text>
</a>
</g>
</g>
<!-- Node1&#45;&gt;Node4 -->
<g id="edge3_Node000001_Node000004" class="edge">
<title>Node1&#45;&gt;Node4</title>
<g id="a_edge3_Node000001_Node000004"><a xlink:title=" ">
<path fill="none" stroke="#63b8ff" d="M172.21,-120.77C166.68,-110.66 160,-98.44 154.65,-88.64"/>
<polygon fill="#63b8ff" stroke="#63b8ff" points="157.69,-86.91 149.82,-79.82 151.55,-90.27 157.69,-86.91"/>
</a>
</g>
</g>
<!-- Node5 -->
<g id="Node000005" class="node">
<title>Node5</title>
<g id="a_Node000005"><a xlink:title=" ">
<polygon fill="#e0e0e0" stroke="#999999" points="260.5,-79.5 183.5,-79.5 183.5,-60.5 260.5,-60.5 260.5,-79.5"/>
<text text-anchor="middle" x="222" y="-67.5" font-family="Helvetica,sans-Serif" font-size="10.00">WebView2.h</text>
</a>
</g>
</g>
<!-- Node1&#45;&gt;Node5 -->
<g id="edge4_Node000001_Node000005" class="edge">
<title>Node1&#45;&gt;Node5</title>
<g id="a_edge4_Node000001_Node000005"><a xlink:title=" ">
<path fill="none" stroke="#63b8ff" d="M194.07,-120.77C199.75,-110.66 206.6,-98.44 212.1,-88.64"/>
<polygon fill="#63b8ff" stroke="#63b8ff" points="215.21,-90.25 217.05,-79.82 209.1,-86.83 215.21,-90.25"/>
</a>
</g>
</g>
<!-- Node6 -->
<g id="Node000006" class="node">
<title>Node6</title>
<g id="a_Node000006"><a xlink:title=" ">
<polygon fill="#e0e0e0" stroke="#999999" points="343.5,-79.5 278.5,-79.5 278.5,-60.5 343.5,-60.5 343.5,-79.5"/>
<text text-anchor="middle" x="311" y="-67.5" font-family="Helvetica,sans-Serif" font-size="10.00">functional</text>
</a>
</g>
</g>
<!-- Node1&#45;&gt;Node6 -->
<g id="edge5_Node000001_Node000006" class="edge">
<title>Node1&#45;&gt;Node6</title>
<g id="a_edge5_Node000001_Node000006"><a xlink:title=" ">
<path fill="none" stroke="#63b8ff" d="M219,-120.96C240.5,-109.28 267.27,-94.75 286.37,-84.37"/>
<polygon fill="#63b8ff" stroke="#63b8ff" points="288.22,-87.35 295.34,-79.5 284.88,-81.2 288.22,-87.35"/>
</a>
</g>
</g>
<!-- Node7 -->
<g id="Node000007" class="node">
<title>Node7</title>
<g id="a_Node000007"><a xlink:href="../../dd/d00/Logger_8h.html" target="_top" xlink:title="Système de journalisation à 5 niveaux de trace, un fichier par moteur.">
<polygon fill="white" stroke="#666666" points="472.5,-85 361.5,-85 361.5,-55 472.5,-55 472.5,-85"/>
<text text-anchor="start" x="369.5" y="-73" font-family="Helvetica,sans-Serif" font-size="10.00">Engine/Core/Logger</text>
<text text-anchor="middle" x="417" y="-62" font-family="Helvetica,sans-Serif" font-size="10.00">/Logger.h</text>
</a>
</g>
</g>
<!-- Node1&#45;&gt;Node7 -->
<g id="edge6_Node000001_Node000007" class="edge">
<title>Node1&#45;&gt;Node7</title>
<g id="a_edge6_Node000001_Node000007"><a xlink:title=" ">
<path fill="none" stroke="#63b8ff" d="M248.8,-120.96C283.87,-110.54 326.58,-97.86 360.18,-87.88"/>
<polygon fill="#63b8ff" stroke="#63b8ff" points="361.26,-91.21 369.85,-85 359.27,-84.5 361.26,-91.21"/>
</a>
</g>
</g>
<!-- Node7&#45;&gt;Node3 -->
<g id="edge12_Node000007_Node000003" class="edge">
<title>Node7&#45;&gt;Node3</title>
<g id="a_edge12_Node000007_Node000003"><a xlink:title=" ">
<path fill="none" stroke="#63b8ff" d="M361.5,-56.86C358.62,-56.23 355.78,-55.61 353,-55 292.21,-41.72 221.22,-26.24 181.04,-17.48"/>
<polygon fill="#63b8ff" stroke="#63b8ff" points="181.55,-14.01 171.04,-15.3 180.06,-20.85 181.55,-14.01"/>
</a>
</g>
</g>
<!-- Node8 -->
<g id="Node000008" class="node">
<title>Node8</title>
<g id="a_Node000008"><a xlink:title=" ">
<polygon fill="#e0e0e0" stroke="#999999" points="285,-19 241,-19 241,0 285,0 285,-19"/>
<text text-anchor="middle" x="263" y="-7" font-family="Helvetica,sans-Serif" font-size="10.00">ctime</text>
</a>
</g>
</g>
<!-- Node7&#45;&gt;Node8 -->
<g id="edge7_Node000007_Node000008" class="edge">
<title>Node7&#45;&gt;Node8</title>
<g id="a_edge7_Node000007_Node000008"><a xlink:title=" ">
<path fill="none" stroke="#63b8ff" d="M380.11,-54.99C354.15,-45.12 319.74,-32.05 294.95,-22.64"/>
<polygon fill="#63b8ff" stroke="#63b8ff" points="295.88,-19.25 285.29,-18.97 293.4,-25.79 295.88,-19.25"/>
</a>
</g>
</g>
<!-- Node9 -->
<g id="Node000009" class="node">
<title>Node9</title>
<g id="a_Node000009"><a xlink:title=" ">
<polygon fill="#e0e0e0" stroke="#999999" points="371,-19 303,-19 303,0 371,0 371,-19"/>
<text text-anchor="middle" x="337" y="-7" font-family="Helvetica,sans-Serif" font-size="10.00">filesystem</text>
</a>
</g>
</g>
<!-- Node7&#45;&gt;Node9 -->
<g id="edge8_Node000007_Node000009" class="edge">
<title>Node7&#45;&gt;Node9</title>
<g id="a_edge8_Node000007_Node000009"><a xlink:title=" ">
<path fill="none" stroke="#63b8ff" d="M397.63,-54.84C385.43,-45.91 369.69,-34.41 357.31,-25.35"/>
<polygon fill="#63b8ff" stroke="#63b8ff" points="359.13,-22.34 348.99,-19.27 354.99,-27.99 359.13,-22.34"/>
</a>
</g>
</g>
<!-- Node10 -->
<g id="Node000010" class="node">
<title>Node10</title>
<g id="a_Node000010"><a xlink:title=" ">
<polygon fill="#e0e0e0" stroke="#999999" points="444.5,-19 389.5,-19 389.5,0 444.5,0 444.5,-19"/>
<text text-anchor="middle" x="417" y="-7" font-family="Helvetica,sans-Serif" font-size="10.00">fstream</text>
</a>
</g>
</g>
<!-- Node7&#45;&gt;Node10 -->
<g id="edge9_Node000007_Node000010" class="edge">
<title>Node7&#45;&gt;Node10</title>
<g id="a_edge9_Node000007_Node000010"><a xlink:title=" ">
<path fill="none" stroke="#63b8ff" d="M417,-54.84C417,-47.21 417,-37.7 417,-29.45"/>
<polygon fill="#63b8ff" stroke="#63b8ff" points="420.5,-29.27 417,-19.27 413.5,-29.27 420.5,-29.27"/>
</a>
</g>
</g>
<!-- Node11 -->
<g id="Node000011" class="node">
<title>Node11</title>
<g id="a_Node000011"><a xlink:title=" ">
<polygon fill="#e0e0e0" stroke="#999999" points="511,-19 463,-19 463,0 511,0 511,-19"/>
<text text-anchor="middle" x="487" y="-7" font-family="Helvetica,sans-Serif" font-size="10.00">mutex</text>
</a>
</g>
</g>
<!-- Node7&#45;&gt;Node11 -->
<g id="edge10_Node000007_Node000011" class="edge">
<title>Node7&#45;&gt;Node11</title>
<g id="a_edge10_Node000007_Node000011"><a xlink:title=" ">
<path fill="none" stroke="#63b8ff" d="M433.95,-54.84C444.42,-46.09 457.86,-34.85 468.59,-25.88"/>
<polygon fill="#63b8ff" stroke="#63b8ff" points="471.08,-28.36 476.51,-19.27 466.59,-22.99 471.08,-28.36"/>
</a>
</g>
</g>
<!-- Node12 -->
<g id="Node000012" class="node">
<title>Node12</title>
<g id="a_Node000012"><a xlink:title=" ">
<polygon fill="#e0e0e0" stroke="#999999" points="585,-19 529,-19 529,0 585,0 585,-19"/>
<text text-anchor="middle" x="557" y="-7" font-family="Helvetica,sans-Serif" font-size="10.00">sstream</text>
</a>
</g>
</g>
<!-- Node7&#45;&gt;Node12 -->
<g id="edge11_Node000007_Node000012" class="edge">
<title>Node7&#45;&gt;Node12</title>
<g id="a_edge11_Node000007_Node000012"><a xlink:title=" ">
<path fill="none" stroke="#63b8ff" d="M450.53,-54.99C473.79,-45.27 504.49,-32.44 526.95,-23.06"/>
<polygon fill="#63b8ff" stroke="#63b8ff" points="528.45,-26.22 536.32,-19.14 525.75,-19.77 528.45,-26.22"/>
</a>
</g>
</g>
</g>
</svg>
