<?xml version="1.0" encoding="UTF-8" standalone="no"?>
<!DOCTYPE svg PUBLIC "-//W3C//DTD SVG 1.1//EN"
 "http://www.w3.org/Graphics/SVG/1.1/DTD/svg11.dtd">
<!-- Generated by graphviz version 2.43.0 (0)
 -->
<!-- Title: SimulateurFerroviaire/Engine/HMI/WebViewPanel/WebViewPanel.h Pages: 1 -->
<svg width="500pt" height="170pt"
 viewBox="0.00 0.00 500.00 170.00" xmlns="http://www.w3.org/2000/svg" xmlns:xlink="http://www.w3.org/1999/xlink">
<g id="graph0" class="graph" transform="scale(1 1) rotate(0) translate(4 166)">
<title>SimulateurFerroviaire/Engine/HMI/WebViewPanel/WebViewPanel.h</title>
<!-- Node1 -->
<g id="Node000001" class="node">
<title>Node1</title>
<g id="a_Node000001"><a xlink:title=" ">
<polygon fill="#999999" stroke="#666666" points="313.5,-162 164.5,-162 164.5,-121 313.5,-121 313.5,-162"/>
<text text-anchor="start" x="172.5" y="-150" font-family="Helvetica,sans-Serif" font-size="10.00">SimulateurFerroviaire</text>
<text text-anchor="start" x="172.5" y="-139" font-family="Helvetica,sans-Serif" font-size="10.00">/Engine/HMI/WebViewPanel</text>
<text text-anchor="middle" x="239" y="-128" font-family="Helvetica,sans-Serif" font-size="10.00">/WebViewPanel.h</text>
</a>
</g>
</g>
<!-- Node2 -->
<g id="Node000002" class="node">
<title>Node2</title>
<g id="a_Node000002"><a xlink:title=" ">
<polygon fill="#e0e0e0" stroke="#999999" points="68,-19 0,-19 0,0 68,0 68,-19"/>
<text text-anchor="middle" x="34" y="-7" font-family="Helvetica,sans-Serif" font-size="10.00">windows.h</text>
</a>
</g>
</g>
<!-- Node1&#45;&gt;Node2 -->
<g id="edge1_Node000001_Node000002" class="edge">
<title>Node1&#45;&gt;Node2</title>
<g id="a_edge1_Node000001_Node000002"><a xlink:title=" ">
<path fill="none" stroke="#63b8ff" d="M181.11,-120.88C158,-111.73 131.77,-99.6 110,-85 85.44,-68.52 61.87,-43.52 47.66,-27.1"/>
<polygon fill="#63b8ff" stroke="#63b8ff" points="50.27,-24.75 41.13,-19.38 44.92,-29.27 50.27,-24.75"/>
</a>
</g>
</g>
<!-- Node3 -->
<g id="Node000003" class="node">
<title>Node3</title>
<g id="a_Node000003"><a xlink:title=" ">
<polygon fill="#e0e0e0" stroke="#999999" points="130,-19 86,-19 86,0 130,0 130,-19"/>
<text text-anchor="middle" x="108" y="-7" font-family="Helvetica,sans-Serif" font-size="10.00">string</text>
</a>
</g>
</g>
<!-- Node1&#45;&gt;Node3 -->
<g id="edge2_Node000001_Node000003" class="edge">
<title>Node1&#45;&gt;Node3</title>
<g id="a_edge2_Node000001_Node000003"><a xlink:title=" ">
<path fill="none" stroke="#63b8ff" d="M177.58,-120.93C159.37,-112.46 140.88,-100.77 128,-85 115.06,-69.15 110.44,-45.69 108.82,-29.35"/>
<polygon fill="#63b8ff" stroke="#63b8ff" points="112.31,-29.08 108.11,-19.35 105.33,-29.57 112.31,-29.08"/>
</a>
</g>
</g>
<!-- Node4 -->
<g id="Node000004" class="node">
<title>Node4</title>
<g id="a_Node000004"><a xlink:title=" ">
<polygon fill="#e0e0e0" stroke="#999999" points="306.5,-79.5 265.5,-79.5 265.5,-60.5 306.5,-60.5 306.5,-79.5"/>
<text text-anchor="middle" x="286" y="-67.5" font-family="Helvetica,sans-Serif" font-size="10.00">wrl.h</text>
</a>
</g>
</g>
<!-- Node1&#45;&gt;Node4 -->
<g id="edge3_Node000001_Node000004" class="edge">
<title>Node1&#45;&gt;Node4</title>
<g id="a_edge3_Node000001_Node000004"><a xlink:title=" ">
<path fill="none" stroke="#63b8ff" d="M252.34,-120.77C259.25,-110.55 267.61,-98.19 274.27,-88.34"/>
<polygon fill="#63b8ff" stroke="#63b8ff" points="277.33,-90.06 280.04,-79.82 271.53,-86.14 277.33,-90.06"/>
</a>
</g>
</g>
<!-- Node5 -->
<g id="Node000005" class="node">
<title>Node5</title>
<g id="a_Node000005"><a xlink:title=" ">
<polygon fill="#e0e0e0" stroke="#999999" points="401.5,-79.5 324.5,-79.5 324.5,-60.5 401.5,-60.5 401.5,-79.5"/>
<text text-anchor="middle" x="363" y="-67.5" font-family="Helvetica,sans-Serif" font-size="10.00">WebView2.h</text>
</a>
</g>
</g>
<!-- Node1&#45;&gt;Node5 -->
<g id="edge4_Node000001_Node000005" class="edge">
<title>Node1&#45;&gt;Node5</title>
<g id="a_edge4_Node000001_Node000005"><a xlink:title=" ">
<path fill="none" stroke="#63b8ff" d="M273.87,-120.96C294.61,-109.33 320.4,-94.88 338.89,-84.51"/>
<polygon fill="#63b8ff" stroke="#63b8ff" points="340.82,-87.45 347.83,-79.5 337.39,-81.34 340.82,-87.45"/>
</a>
</g>
</g>
<!-- Node6 -->
<g id="Node000006" class="node">
<title>Node6</title>
<g id="a_Node000006"><a xlink:title=" ">
<polygon fill="#e0e0e0" stroke="#999999" points="484.5,-79.5 419.5,-79.5 419.5,-60.5 484.5,-60.5 484.5,-79.5"/>
<text text-anchor="middle" x="452" y="-67.5" font-family="Helvetica,sans-Serif" font-size="10.00">functional</text>
</a>
</g>
</g>
<!-- Node1&#45;&gt;Node6 -->
<g id="edge5_Node000001_Node000006" class="edge">
<title>Node1&#45;&gt;Node6</title>
<g id="a_edge5_Node000001_Node000006"><a xlink:title=" ">
<path fill="none" stroke="#63b8ff" d="M300.38,-120.97C333.24,-110.45 374.37,-97.16 411,-85 413.23,-84.26 415.52,-83.49 417.83,-82.71"/>
<polygon fill="#63b8ff" stroke="#63b8ff" points="418.96,-86.03 427.31,-79.51 416.71,-79.4 418.96,-86.03"/>
</a>
</g>
</g>
<!-- Node7 -->
<g id="Node000007" class="node">
<title>Node7</title>
<g id="a_Node000007"><a xlink:href="../../dd/d00/Logger_8h.html" target="_top" xlink:title="Système de journalisation à 5 niveaux de trace, un fichier par moteur.">
<polygon fill="white" stroke="#666666" points="247.5,-85 136.5,-85 136.5,-55 247.5,-55 247.5,-85"/>
<text text-anchor="start" x="144.5" y="-73" font-family="Helvetica,sans-Serif" font-size="10.00">Engine/Core/Logger</text>
<text text-anchor="middle" x="192" y="-62" font-family="Helvetica,sans-Serif" font-size="10.00">/Logger.h</text>
</a>
</g>
</g>
<!-- Node1&#45;&gt;Node7 -->
<g id="edge6_Node000001_Node000007" class="edge">
<title>Node1&#45;&gt;Node7</title>
<g id="a_edge6_Node000001_Node000007"><a xlink:title=" ">
<path fill="none" stroke="#63b8ff" d="M225.66,-120.77C219.88,-112.22 213.08,-102.17 207.11,-93.35"/>
<polygon fill="#63b8ff" stroke="#63b8ff" points="209.99,-91.36 201.49,-85.04 204.2,-95.28 209.99,-91.36"/>
</a>
</g>
</g>
<!-- Node7&#45;&gt;Node2 -->
<g id="edge13_Node000007_Node000002" class="edge">
<title>Node7&#45;&gt;Node2</title>
<g id="a_edge13_Node000007_Node000002"><a xlink:title=" ">
<path fill="none" stroke="#63b8ff" d="M154.16,-54.99C127.56,-45.14 92.33,-32.1 66.9,-22.68"/>
<polygon fill="#63b8ff" stroke="#63b8ff" points="67.93,-19.33 57.33,-19.14 65.5,-25.89 67.93,-19.33"/>
</a>
</g>
</g>
<!-- Node7&#45;&gt;Node3 -->
<g id="edge12_Node000007_Node000003" class="edge">
<title>Node7&#45;&gt;Node3</title>
<g id="a_edge12_Node000007_Node000003"><a xlink:title=" ">
<path fill="none" stroke="#63b8ff" d="M171.67,-54.84C158.73,-45.83 142.01,-34.18 128.95,-25.09"/>
<polygon fill="#63b8ff" stroke="#63b8ff" points="130.79,-22.11 120.59,-19.27 126.79,-27.85 130.79,-22.11"/>
</a>
</g>
</g>
<!-- Node8 -->
<g id="Node000008" class="node">
<title>Node8</title>
<g id="a_Node000008"><a xlink:title=" ">
<polygon fill="#e0e0e0" stroke="#999999" points="492,-19 448,-19 448,0 492,0 492,-19"/>
<text text-anchor="middle" x="470" y="-7" font-family="Helvetica,sans-Serif" font-size="10.00">ctime</text>
</a>
</g>
</g>
<!-- Node7&#45;&gt;Node8 -->
<g id="edge7_Node000007_Node000008" class="edge">
<title>Node7&#45;&gt;Node8</title>
<g id="a_edge7_Node000007_Node000008"><a xlink:title=" ">
<path fill="none" stroke="#63b8ff" d="M247.66,-56.95C250.82,-56.28 253.95,-55.63 257,-55 334.6,-38.97 357.01,-37.97 437.58,-19.2"/>
<polygon fill="#63b8ff" stroke="#63b8ff" points="438.76,-22.52 447.7,-16.82 437.16,-15.7 438.76,-22.52"/>
</a>
</g>
</g>
<!-- Node9 -->
<g id="Node000009" class="node">
<title>Node9</title>
<g id="a_Node000009"><a xlink:title=" ">
<polygon fill="#e0e0e0" stroke="#999999" points="216,-19 148,-19 148,0 216,0 216,-19"/>
<text text-anchor="middle" x="182" y="-7" font-family="Helvetica,sans-Serif" font-size="10.00">filesystem</text>
</a>
</g>
</g>
<!-- Node7&#45;&gt;Node9 -->
<g id="edge8_Node000007_Node000009" class="edge">
<title>Node7&#45;&gt;Node9</title>
<g id="a_edge8_Node000007_Node000009"><a xlink:title=" ">
<path fill="none" stroke="#63b8ff" d="M189.58,-54.84C188.26,-47.13 186.61,-37.49 185.19,-29.17"/>
<polygon fill="#63b8ff" stroke="#63b8ff" points="188.63,-28.53 183.5,-19.27 181.73,-29.71 188.63,-28.53"/>
</a>
</g>
</g>
<!-- Node10 -->
<g id="Node000010" class="node">
<title>Node10</title>
<g id="a_Node000010"><a xlink:title=" ">
<polygon fill="#e0e0e0" stroke="#999999" points="289.5,-19 234.5,-19 234.5,0 289.5,0 289.5,-19"/>
<text text-anchor="middle" x="262" y="-7" font-family="Helvetica,sans-Serif" font-size="10.00">fstream</text>
</a>
</g>
</g>
<!-- Node7&#45;&gt;Node10 -->
<g id="edge9_Node000007_Node000010" class="edge">
<title>Node7&#45;&gt;Node10</title>
<g id="a_edge9_Node000007_Node000010"><a xlink:title=" ">
<path fill="none" stroke="#63b8ff" d="M208.95,-54.84C219.42,-46.09 232.86,-34.85 243.59,-25.88"/>
<polygon fill="#63b8ff" stroke="#63b8ff" points="246.08,-28.36 251.51,-19.27 241.59,-22.99 246.08,-28.36"/>
</a>
</g>
</g>
<!-- Node11 -->
<g id="Node000011" class="node">
<title>Node11</title>
<g id="a_Node000011"><a xlink:title=" ">
<polygon fill="#e0e0e0" stroke="#999999" points="356,-19 308,-19 308,0 356,0 356,-19"/>
<text text-anchor="middle" x="332" y="-7" font-family="Helvetica,sans-Serif" font-size="10.00">mutex</text>
</a>
</g>
</g>
<!-- Node7&#45;&gt;Node11 -->
<g id="edge10_Node000007_Node000011" class="edge">
<title>Node7&#45;&gt;Node11</title>
<g id="a_edge10_Node000007_Node000011"><a xlink:title=" ">
<path fill="none" stroke="#63b8ff" d="M225.53,-54.99C248.79,-45.27 279.49,-32.44 301.95,-23.06"/>
<polygon fill="#63b8ff" stroke="#63b8ff" points="303.45,-26.22 311.32,-19.14 300.75,-19.77 303.45,-26.22"/>
</a>
</g>
</g>
<!-- Node12 -->
<g id="Node000012" class="node">
<title>Node12</title>
<g id="a_Node000012"><a xlink:title=" ">
<polygon fill="#e0e0e0" stroke="#999999" points="430,-19 374,-19 374,0 430,0 430,-19"/>
<text text-anchor="middle" x="402" y="-7" font-family="Helvetica,sans-Serif" font-size="10.00">sstream</text>
</a>
</g>
</g>
<!-- Node7&#45;&gt;Node12 -->
<g id="edge11_Node000007_Node000012" class="edge">
<title>Node7&#45;&gt;Node12</title>
<g id="a_edge11_Node000007_Node000012"><a xlink:title=" ">
<path fill="none" stroke="#63b8ff" d="M242.3,-54.99C279.58,-44.6 329.62,-30.66 363.68,-21.17"/>
<polygon fill="#63b8ff" stroke="#63b8ff" points="365.02,-24.44 373.71,-18.38 363.14,-17.69 365.02,-24.44"/>
</a>
</g>
</g>
</g>
</svg>
