<?xml version="1.0" encoding="UTF-8" standalone="no"?>
<!DOCTYPE svg PUBLIC "-//W3C//DTD SVG 1.1//EN"
 "http://www.w3.org/Graphics/SVG/1.1/DTD/svg11.dtd">
<!-- Generated by graphviz version 2.43.0 (0)
 -->
<!-- Title: SimulateurFerroviaire/Modules/GeoParser/Pipeline/ClassifiedNodes.h Pages: 1 -->
<svg width="241pt" height="104pt"
 viewBox="0.00 0.00 241.00 104.00" xmlns="http://www.w3.org/2000/svg" xmlns:xlink="http://www.w3.org/1999/xlink">
<g id="graph0" class="graph" transform="scale(1 1) rotate(0) translate(4 100)">
<title>SimulateurFerroviaire/Modules/GeoParser/Pipeline/ClassifiedNodes.h</title>
<!-- Node1 -->
<g id="Node000001" class="node">
<title>Node1</title>
<g id="a_Node000001"><a xlink:title="Structures de données produites par Phase5_SwitchClassifier.">
<polygon fill="#999999" stroke="#666666" points="214,-96 59,-96 59,-55 214,-55 214,-96"/>
<text text-anchor="start" x="67" y="-84" font-family="Helvetica,sans-Serif" font-size="10.00">SimulateurFerroviaire</text>
<text text-anchor="start" x="67" y="-73" font-family="Helvetica,sans-Serif" font-size="10.00">/Modules/GeoParser/Pipeline</text>
<text text-anchor="middle" x="136.5" y="-62" font-family="Helvetica,sans-Serif" font-size="10.00">/ClassifiedNodes.h</text>
</a>
</g>
</g>
<!-- Node2 -->
<g id="Node000002" class="node">
<title>Node2</title>
<g id="a_Node000002"><a xlink:title=" ">
<polygon fill="#e0e0e0" stroke="#999999" points="93,-19 0,-19 0,0 93,0 93,-19"/>
<text text-anchor="middle" x="46.5" y="-7" font-family="Helvetica,sans-Serif" font-size="10.00">unordered_map</text>
</a>
</g>
</g>
<!-- Node1&#45;&gt;Node2 -->
<g id="edge1_Node000001_Node000002" class="edge">
<title>Node1&#45;&gt;Node2</title>
<g id="a_edge1_Node000001_Node000002"><a xlink:title=" ">
<path fill="none" stroke="#63b8ff" d="M109.01,-54.95C95.53,-45.37 79.57,-34.02 67.15,-25.19"/>
<polygon fill="#63b8ff" stroke="#63b8ff" points="69,-22.2 58.82,-19.26 64.94,-27.91 69,-22.2"/>
</a>
</g>
</g>
<!-- Node3 -->
<g id="Node000003" class="node">
<title>Node3</title>
<g id="a_Node000003"><a xlink:title=" ">
<polygon fill="#e0e0e0" stroke="#999999" points="161.5,-19 111.5,-19 111.5,0 161.5,0 161.5,-19"/>
<text text-anchor="middle" x="136.5" y="-7" font-family="Helvetica,sans-Serif" font-size="10.00">cstdint</text>
</a>
</g>
</g>
<!-- Node1&#45;&gt;Node3 -->
<g id="edge2_Node000001_Node000003" class="edge">
<title>Node1&#45;&gt;Node3</title>
<g id="a_edge2_Node000001_Node000003"><a xlink:title=" ">
<path fill="none" stroke="#63b8ff" d="M136.5,-54.95C136.5,-46.85 136.5,-37.5 136.5,-29.47"/>
<polygon fill="#63b8ff" stroke="#63b8ff" points="140,-29.26 136.5,-19.26 133,-29.26 140,-29.26"/>
</a>
</g>
</g>
<!-- Node4 -->
<g id="Node000004" class="node">
<title>Node4</title>
<g id="a_Node000004"><a xlink:title=" ">
<polygon fill="#e0e0e0" stroke="#999999" points="233,-19 180,-19 180,0 233,0 233,-19"/>
<text text-anchor="middle" x="206.5" y="-7" font-family="Helvetica,sans-Serif" font-size="10.00">cstddef</text>
</a>
</g>
</g>
<!-- Node1&#45;&gt;Node4 -->
<g id="edge3_Node000001_Node000004" class="edge">
<title>Node1&#45;&gt;Node4</title>
<g id="a_edge3_Node000001_Node000004"><a xlink:title=" ">
<path fill="none" stroke="#63b8ff" d="M157.88,-54.95C167.96,-45.74 179.82,-34.9 189.3,-26.23"/>
<polygon fill="#63b8ff" stroke="#63b8ff" points="191.9,-28.59 196.92,-19.26 187.18,-23.43 191.9,-28.59"/>
</a>
</g>
</g>
</g>
</svg>
