<?xml version="1.0" encoding="UTF-8" standalone="no"?>
<!DOCTYPE svg PUBLIC "-//W3C//DTD SVG 1.1//EN"
 "http://www.w3.org/Graphics/SVG/1.1/DTD/svg11.dtd">
<!-- Generated by graphviz version 2.43.0 (0)
 -->
<!-- Title: SimulateurFerroviaire/framework.h Pages: 1 -->
<svg width="1663pt" height="324pt"
 viewBox="0.00 0.00 1663.29 324.00" xmlns="http://www.w3.org/2000/svg" xmlns:xlink="http://www.w3.org/1999/xlink">
<g id="graph0" class="graph" transform="scale(1 1) rotate(0) translate(4 320)">
<title>SimulateurFerroviaire/framework.h</title>
<!-- Node1 -->
<g id="Node000001" class="node">
<title>Node1</title>
<g id="a_Node000001"><a xlink:title=" ">
<polygon fill="#999999" stroke="#666666" points="873,-316 751,-316 751,-286 873,-286 873,-316"/>
<text text-anchor="start" x="759" y="-304" font-family="Helvetica,sans-Serif" font-size="10.00">SimulateurFerroviaire</text>
<text text-anchor="middle" x="812" y="-293" font-family="Helvetica,sans-Serif" font-size="10.00">/framework.h</text>
</a>
</g>
</g>
<!-- Node2 -->
<g id="Node000002" class="node">
<title>Node2</title>
<g id="a_Node000002"><a xlink:href="../../d2/d02/Application_8cpp.html" target="_top" xlink:title="Implémentation du cycle de vie de l&#39;application Win32.">
<polygon fill="white" stroke="#666666" points="156,-30 0,-30 0,0 156,0 156,-30"/>
<text text-anchor="start" x="8" y="-18" font-family="Helvetica,sans-Serif" font-size="10.00">SimulateurFerroviaire</text>
<text text-anchor="middle" x="78" y="-7" font-family="Helvetica,sans-Serif" font-size="10.00">/Engine/Core/Application.cpp</text>
</a>
</g>
</g>
<!-- Node1&#45;&gt;Node2 -->
<g id="edge1_Node000001_Node000002" class="edge">
<title>Node1&#45;&gt;Node2</title>
<g id="a_edge1_Node000001_Node000002"><a xlink:title=" ">
<path fill="none" stroke="#63b8ff" d="M740.81,-300.89C601.77,-301.55 299.79,-297.27 209,-250 130.06,-208.9 112.81,-179.12 81,-96 72.66,-74.19 73.97,-46.55 75.86,-30.13"/>
<polygon fill="#63b8ff" stroke="#63b8ff" points="740.95,-304.39 750.93,-300.84 740.91,-297.39 740.95,-304.39"/>
</a>
</g>
</g>
<!-- Node3 -->
<g id="Node000003" class="node">
<title>Node3</title>
<g id="a_Node000003"><a xlink:href="../../d4/d00/Application_8h.html" target="_top" xlink:title="Gestion du cycle de vie de l&#39;application Win32.">
<polygon fill="white" stroke="#666666" points="235.5,-96 90.5,-96 90.5,-66 235.5,-66 235.5,-96"/>
<text text-anchor="start" x="98.5" y="-84" font-family="Helvetica,sans-Serif" font-size="10.00">SimulateurFerroviaire</text>
<text text-anchor="middle" x="163" y="-73" font-family="Helvetica,sans-Serif" font-size="10.00">/Engine/Core/Application.h</text>
</a>
</g>
</g>
<!-- Node1&#45;&gt;Node3 -->
<g id="edge2_Node000001_Node000003" class="edge">
<title>Node1&#45;&gt;Node3</title>
<g id="a_edge2_Node000001_Node000003"><a xlink:title=" ">
<path fill="none" stroke="#63b8ff" d="M740.63,-297.46C598.41,-291.86 289.88,-276.75 250,-250 194.9,-213.04 172.59,-129.81 165.63,-96.34"/>
<polygon fill="#63b8ff" stroke="#63b8ff" points="740.86,-300.97 750.98,-297.86 741.13,-293.98 740.86,-300.97"/>
</a>
</g>
</g>
<!-- Node4 -->
<g id="Node000004" class="node">
<title>Node4</title>
<g id="a_Node000004"><a xlink:href="../../db/d00/SimulateurFerroviaire_8cpp.html" target="_top" xlink:title="Point d&#39;entrée unique de l&#39;application Win32.">
<polygon fill="white" stroke="#666666" points="328,-30 182,-30 182,0 328,0 328,-30"/>
<text text-anchor="start" x="190" y="-18" font-family="Helvetica,sans-Serif" font-size="10.00">SimulateurFerroviaire</text>
<text text-anchor="middle" x="255" y="-7" font-family="Helvetica,sans-Serif" font-size="10.00">/SimulateurFerroviaire.cpp</text>
</a>
</g>
</g>
<!-- Node1&#45;&gt;Node4 -->
<g id="edge33_Node000001_Node000004" class="edge">
<title>Node1&#45;&gt;Node4</title>
<g id="a_edge33_Node000001_Node000004"><a xlink:title=" ">
<path fill="none" stroke="#63b8ff" d="M740.74,-296.54C612.9,-289.78 354.71,-273.4 321,-250 247.67,-199.08 250.46,-72.58 253.64,-30.14"/>
<polygon fill="#63b8ff" stroke="#63b8ff" points="740.66,-300.04 750.83,-297.07 741.03,-293.05 740.66,-300.04"/>
</a>
</g>
</g>
<!-- Node5 -->
<g id="Node000005" class="node">
<title>Node5</title>
<g id="a_Node000005"><a xlink:href="../../d6/d00/AboutDialog_8cpp.html" target="_top" xlink:title="Implémentation de la boîte de dialogue &quot;À propos&quot;.">
<polygon fill="white" stroke="#666666" points="490,-167.5 292,-167.5 292,-137.5 490,-137.5 490,-167.5"/>
<text text-anchor="start" x="300" y="-155.5" font-family="Helvetica,sans-Serif" font-size="10.00">SimulateurFerroviaire</text>
<text text-anchor="middle" x="391" y="-144.5" font-family="Helvetica,sans-Serif" font-size="10.00">/Engine/HMI/Dialogs/AboutDialog.cpp</text>
</a>
</g>
</g>
<!-- Node1&#45;&gt;Node5 -->
<g id="edge5_Node000001_Node000005" class="edge">
<title>Node1&#45;&gt;Node5</title>
<g id="a_edge5_Node000001_Node000005"><a xlink:title=" ">
<path fill="none" stroke="#63b8ff" d="M740.7,-297.74C613.64,-292.97 358.83,-279.77 332,-250 308.6,-224.04 346.26,-187.52 371.39,-167.69"/>
<polygon fill="#63b8ff" stroke="#63b8ff" points="740.61,-301.24 750.73,-298.11 740.87,-294.24 740.61,-301.24"/>
</a>
</g>
</g>
<!-- Node6 -->
<g id="Node000006" class="node">
<title>Node6</title>
<g id="a_Node000006"><a xlink:href="../../d7/d01/AboutDialog_8h.html" target="_top" xlink:title="Déclaration de la boîte de dialogue &quot;À propos&quot;.">
<polygon fill="white" stroke="#666666" points="528.5,-244.5 341.5,-244.5 341.5,-214.5 528.5,-214.5 528.5,-244.5"/>
<text text-anchor="start" x="349.5" y="-232.5" font-family="Helvetica,sans-Serif" font-size="10.00">SimulateurFerroviaire</text>
<text text-anchor="middle" x="435" y="-221.5" font-family="Helvetica,sans-Serif" font-size="10.00">/Engine/HMI/Dialogs/AboutDialog.h</text>
</a>
</g>
</g>
<!-- Node1&#45;&gt;Node6 -->
<g id="edge6_Node000001_Node000006" class="edge">
<title>Node1&#45;&gt;Node6</title>
<g id="a_edge6_Node000001_Node000006"><a xlink:title=" ">
<path fill="none" stroke="#63b8ff" d="M740.74,-286.86C675.14,-274.77 578.11,-256.88 511.03,-244.52"/>
<polygon fill="#63b8ff" stroke="#63b8ff" points="740.12,-290.31 750.59,-288.68 741.39,-283.42 740.12,-290.31"/>
</a>
</g>
</g>
<!-- Node7 -->
<g id="Node000007" class="node">
<title>Node7</title>
<g id="a_Node000007"><a xlink:href="../../d3/d03/MainWindow_8cpp.html" target="_top" xlink:title="Implémentation de la fenêtre principale.">
<polygon fill="white" stroke="#666666" points="961.5,-96 800.5,-96 800.5,-66 961.5,-66 961.5,-96"/>
<text text-anchor="start" x="808.5" y="-84" font-family="Helvetica,sans-Serif" font-size="10.00">SimulateurFerroviaire</text>
<text text-anchor="middle" x="881" y="-73" font-family="Helvetica,sans-Serif" font-size="10.00">/Engine/HMI/MainWindow.cpp</text>
</a>
</g>
</g>
<!-- Node1&#45;&gt;Node7 -->
<g id="edge17_Node000001_Node000007" class="edge">
<title>Node1&#45;&gt;Node7</title>
<g id="a_edge17_Node000001_Node000007"><a xlink:title=" ">
<path fill="none" stroke="#63b8ff" d="M741,-290.34C688.73,-281.9 623.37,-268.17 603,-250 562.78,-214.12 540.09,-173.07 575,-132 603.41,-98.57 719.7,-87.44 800.44,-83.77"/>
<polygon fill="#63b8ff" stroke="#63b8ff" points="740.5,-293.8 750.92,-291.9 741.59,-286.89 740.5,-293.8"/>
</a>
</g>
</g>
<!-- Node8 -->
<g id="Node000008" class="node">
<title>Node8</title>
<g id="a_Node000008"><a xlink:href="../../dd/d02/FileOpenDialog_8cpp.html" target="_top" xlink:title="Implémentation du sélecteur de fichier GeoJSON natif Win32.">
<polygon fill="white" stroke="#666666" points="745.5,-173 584.5,-173 584.5,-132 745.5,-132 745.5,-173"/>
<text text-anchor="start" x="592.5" y="-161" font-family="Helvetica,sans-Serif" font-size="10.00">SimulateurFerroviaire</text>
<text text-anchor="start" x="592.5" y="-150" font-family="Helvetica,sans-Serif" font-size="10.00">/Engine/HMI/Dialogs/FileOpen</text>
<text text-anchor="middle" x="665" y="-139" font-family="Helvetica,sans-Serif" font-size="10.00">Dialog.cpp</text>
</a>
</g>
</g>
<!-- Node1&#45;&gt;Node8 -->
<g id="edge9_Node000001_Node000008" class="edge">
<title>Node1&#45;&gt;Node8</title>
<g id="a_edge9_Node000001_Node000008"><a xlink:title=" ">
<path fill="none" stroke="#63b8ff" d="M741,-291.41C690.48,-283.67 628.86,-270.34 613,-250 594.04,-225.69 619.9,-193.5 641.45,-173.14"/>
<polygon fill="#63b8ff" stroke="#63b8ff" points="740.53,-294.88 750.94,-292.89 741.56,-287.96 740.53,-294.88"/>
</a>
</g>
</g>
<!-- Node9 -->
<g id="Node000009" class="node">
<title>Node9</title>
<g id="a_Node000009"><a xlink:href="../../da/d01/FileOpenDialog_8h.html" target="_top" xlink:title="Déclaration du sélecteur de fichier GeoJSON.">
<polygon fill="white" stroke="#666666" points="783.5,-250 622.5,-250 622.5,-209 783.5,-209 783.5,-250"/>
<text text-anchor="start" x="630.5" y="-238" font-family="Helvetica,sans-Serif" font-size="10.00">SimulateurFerroviaire</text>
<text text-anchor="start" x="630.5" y="-227" font-family="Helvetica,sans-Serif" font-size="10.00">/Engine/HMI/Dialogs/FileOpen</text>
<text text-anchor="middle" x="703" y="-216" font-family="Helvetica,sans-Serif" font-size="10.00">Dialog.h</text>
</a>
</g>
</g>
<!-- Node1&#45;&gt;Node9 -->
<g id="edge10_Node000001_Node000009" class="edge">
<title>Node1&#45;&gt;Node9</title>
<g id="a_edge10_Node000001_Node000009"><a xlink:title=" ">
<path fill="none" stroke="#63b8ff" d="M781.12,-280.31C766.27,-270.84 748.52,-259.53 733.7,-250.07"/>
<polygon fill="#63b8ff" stroke="#63b8ff" points="779.63,-283.51 789.94,-285.94 783.39,-277.61 779.63,-283.51"/>
</a>
</g>
</g>
<!-- Node10 -->
<g id="Node000010" class="node">
<title>Node10</title>
<g id="a_Node000010"><a xlink:href="../../d7/d00/FileSaveDialog_8cpp.html" target="_top" xlink:title="Implémentation du sélecteur de fichier GeoJSON natif Win32.">
<polygon fill="white" stroke="#666666" points="960.5,-173 801.5,-173 801.5,-132 960.5,-132 960.5,-173"/>
<text text-anchor="start" x="809.5" y="-161" font-family="Helvetica,sans-Serif" font-size="10.00">SimulateurFerroviaire</text>
<text text-anchor="start" x="809.5" y="-150" font-family="Helvetica,sans-Serif" font-size="10.00">/Engine/HMI/Dialogs/FileSave</text>
<text text-anchor="middle" x="881" y="-139" font-family="Helvetica,sans-Serif" font-size="10.00">Dialog.cpp</text>
</a>
</g>
</g>
<!-- Node1&#45;&gt;Node10 -->
<g id="edge13_Node000001_Node000010" class="edge">
<title>Node1&#45;&gt;Node10</title>
<g id="a_edge13_Node000001_Node000010"><a xlink:title=" ">
<path fill="none" stroke="#63b8ff" d="M813.21,-275.76C814.99,-256.73 819.35,-230.01 830,-209 836.8,-195.58 847.79,-183.01 857.82,-173.25"/>
<polygon fill="#63b8ff" stroke="#63b8ff" points="809.71,-275.75 812.44,-285.98 816.69,-276.28 809.71,-275.75"/>
</a>
</g>
</g>
<!-- Node11 -->
<g id="Node000011" class="node">
<title>Node11</title>
<g id="a_Node000011"><a xlink:href="../../d2/d02/FileSaveDialog_8h.html" target="_top" xlink:title="Déclaration du sélecteur de sauvegarde de fichier GeoJSON.">
<polygon fill="white" stroke="#666666" points="998.5,-250 839.5,-250 839.5,-209 998.5,-209 998.5,-250"/>
<text text-anchor="start" x="847.5" y="-238" font-family="Helvetica,sans-Serif" font-size="10.00">SimulateurFerroviaire</text>
<text text-anchor="start" x="847.5" y="-227" font-family="Helvetica,sans-Serif" font-size="10.00">/Engine/HMI/Dialogs/FileSave</text>
<text text-anchor="middle" x="919" y="-216" font-family="Helvetica,sans-Serif" font-size="10.00">Dialog.h</text>
</a>
</g>
</g>
<!-- Node1&#45;&gt;Node11 -->
<g id="edge14_Node000001_Node000011" class="edge">
<title>Node1&#45;&gt;Node11</title>
<g id="a_edge14_Node000001_Node000011"><a xlink:title=" ">
<path fill="none" stroke="#63b8ff" d="M842.31,-280.31C856.89,-270.84 874.31,-259.53 888.87,-250.07"/>
<polygon fill="#63b8ff" stroke="#63b8ff" points="840.13,-277.55 833.65,-285.94 843.95,-283.42 840.13,-277.55"/>
</a>
</g>
</g>
<!-- Node12 -->
<g id="Node000012" class="node">
<title>Node12</title>
<g id="a_Node000012"><a xlink:href="../../da/d00/MainWindow_8h.html" target="_top" xlink:title="Déclaration de la fenêtre principale de l&#39;application.">
<polygon fill="white" stroke="#666666" points="1164.5,-167.5 1015.5,-167.5 1015.5,-137.5 1164.5,-137.5 1164.5,-167.5"/>
<text text-anchor="start" x="1023.5" y="-155.5" font-family="Helvetica,sans-Serif" font-size="10.00">SimulateurFerroviaire</text>
<text text-anchor="middle" x="1090" y="-144.5" font-family="Helvetica,sans-Serif" font-size="10.00">/Engine/HMI/MainWindow.h</text>
</a>
</g>
</g>
<!-- Node1&#45;&gt;Node12 -->
<g id="edge18_Node000001_Node000012" class="edge">
<title>Node1&#45;&gt;Node12</title>
<g id="a_edge18_Node000001_Node000012"><a xlink:title=" ">
<path fill="none" stroke="#63b8ff" d="M883.49,-292.28C922.3,-285.57 969.8,-273.1 1007,-250 1016.01,-244.4 1058.19,-192.92 1078.72,-167.53"/>
<polygon fill="#63b8ff" stroke="#63b8ff" points="882.61,-288.87 873.31,-293.94 883.74,-295.78 882.61,-288.87"/>
</a>
</g>
</g>
<!-- Node13 -->
<g id="Node000013" class="node">
<title>Node13</title>
<g id="a_Node000013"><a xlink:href="../../d4/d03/PCCPanel_8cpp.html" target="_top" xlink:title="Implémentation du panneau PCC superposé togglable.">
<polygon fill="white" stroke="#666666" points="1306,-173 1182,-173 1182,-132 1306,-132 1306,-173"/>
<text text-anchor="start" x="1190" y="-161" font-family="Helvetica,sans-Serif" font-size="10.00">SimulateurFerroviaire</text>
<text text-anchor="start" x="1190" y="-150" font-family="Helvetica,sans-Serif" font-size="10.00">/Engine/HMI/PCCPanel</text>
<text text-anchor="middle" x="1244" y="-139" font-family="Helvetica,sans-Serif" font-size="10.00">/PCCPanel.cpp</text>
</a>
</g>
</g>
<!-- Node1&#45;&gt;Node13 -->
<g id="edge21_Node000001_Node000013" class="edge">
<title>Node1&#45;&gt;Node13</title>
<g id="a_edge21_Node000001_Node000013"><a xlink:title=" ">
<path fill="none" stroke="#63b8ff" d="M883.17,-297.83C977.73,-293.72 1138.52,-282.1 1187,-250 1214.42,-231.84 1230.48,-195.6 1238.22,-173.07"/>
<polygon fill="#63b8ff" stroke="#63b8ff" points="882.95,-294.33 873.1,-298.25 883.24,-301.33 882.95,-294.33"/>
</a>
</g>
</g>
<!-- Node14 -->
<g id="Node000014" class="node">
<title>Node14</title>
<g id="a_Node000014"><a xlink:href="../../d5/d00/PCCPanel_8h.html" target="_top" xlink:title="Panneau PCC superposé togglable, affiché par&#45;dessus la carte Leaflet.">
<polygon fill="white" stroke="#666666" points="1178,-250 1054,-250 1054,-209 1178,-209 1178,-250"/>
<text text-anchor="start" x="1062" y="-238" font-family="Helvetica,sans-Serif" font-size="10.00">SimulateurFerroviaire</text>
<text text-anchor="start" x="1062" y="-227" font-family="Helvetica,sans-Serif" font-size="10.00">/Engine/HMI/PCCPanel</text>
<text text-anchor="middle" x="1116" y="-216" font-family="Helvetica,sans-Serif" font-size="10.00">/PCCPanel.h</text>
</a>
</g>
</g>
<!-- Node1&#45;&gt;Node14 -->
<g id="edge22_Node000001_Node000014" class="edge">
<title>Node1&#45;&gt;Node14</title>
<g id="a_edge22_Node000001_Node000014"><a xlink:title=" ">
<path fill="none" stroke="#63b8ff" d="M883.07,-285.09C928.12,-275.47 987.59,-262.47 1040,-250 1044.51,-248.93 1049.16,-247.8 1053.83,-246.64"/>
<polygon fill="#63b8ff" stroke="#63b8ff" points="882.15,-281.71 873.1,-287.21 883.61,-288.55 882.15,-281.71"/>
</a>
</g>
</g>
<!-- Node15 -->
<g id="Node000015" class="node">
<title>Node15</title>
<g id="a_Node000015"><a xlink:href="../../d4/d02/TCORenderer_8cpp.html" target="_top" xlink:title="Renderer GDI TCO — style SNCF, blocs fixes.">
<polygon fill="white" stroke="#666666" points="1448,-173 1324,-173 1324,-132 1448,-132 1448,-173"/>
<text text-anchor="start" x="1332" y="-161" font-family="Helvetica,sans-Serif" font-size="10.00">SimulateurFerroviaire</text>
<text text-anchor="start" x="1332" y="-150" font-family="Helvetica,sans-Serif" font-size="10.00">/Engine/HMI/PCCPanel</text>
<text text-anchor="middle" x="1386" y="-139" font-family="Helvetica,sans-Serif" font-size="10.00">/TCORenderer.cpp</text>
</a>
</g>
</g>
<!-- Node1&#45;&gt;Node15 -->
<g id="edge25_Node000001_Node000015" class="edge">
<title>Node1&#45;&gt;Node15</title>
<g id="a_edge25_Node000001_Node000015"><a xlink:title=" ">
<path fill="none" stroke="#63b8ff" d="M883.43,-298.27C1025.25,-294.18 1331.78,-281.72 1367,-250 1388.32,-230.8 1389.84,-195.24 1388.36,-173.06"/>
<polygon fill="#63b8ff" stroke="#63b8ff" points="882.99,-294.78 873.1,-298.57 883.19,-301.78 882.99,-294.78"/>
</a>
</g>
</g>
<!-- Node16 -->
<g id="Node000016" class="node">
<title>Node16</title>
<g id="a_Node000016"><a xlink:href="../../d8/d02/TCORenderer_8h.html" target="_top" xlink:title="Renderer GDI du schéma TCO — style SNCF, blocs fixes.">
<polygon fill="white" stroke="#666666" points="1358,-250 1234,-250 1234,-209 1358,-209 1358,-250"/>
<text text-anchor="start" x="1242" y="-238" font-family="Helvetica,sans-Serif" font-size="10.00">SimulateurFerroviaire</text>
<text text-anchor="start" x="1242" y="-227" font-family="Helvetica,sans-Serif" font-size="10.00">/Engine/HMI/PCCPanel</text>
<text text-anchor="middle" x="1296" y="-216" font-family="Helvetica,sans-Serif" font-size="10.00">/TCORenderer.h</text>
</a>
</g>
</g>
<!-- Node1&#45;&gt;Node16 -->
<g id="edge26_Node000001_Node000016" class="edge">
<title>Node1&#45;&gt;Node16</title>
<g id="a_edge26_Node000001_Node000016"><a xlink:title=" ">
<path fill="none" stroke="#63b8ff" d="M883.39,-294.07C965.17,-286.62 1102.99,-272.09 1220,-250 1224.55,-249.14 1229.23,-248.17 1233.93,-247.12"/>
<polygon fill="#63b8ff" stroke="#63b8ff" points="882.85,-290.6 873.21,-294.99 883.48,-297.57 882.85,-290.6"/>
</a>
</g>
</g>
<!-- Node17 -->
<g id="Node000017" class="node">
<title>Node17</title>
<g id="a_Node000017"><a xlink:href="../../dd/d01/GeoParsingTask_8cpp.html" target="_top" xlink:title="Implémentation de la tâche de parsing GeoJSON asynchrone.">
<polygon fill="white" stroke="#666666" points="1637.5,-173 1466.5,-173 1466.5,-132 1637.5,-132 1637.5,-173"/>
<text text-anchor="start" x="1474.5" y="-161" font-family="Helvetica,sans-Serif" font-size="10.00">SimulateurFerroviaire</text>
<text text-anchor="start" x="1474.5" y="-150" font-family="Helvetica,sans-Serif" font-size="10.00">/Modules/GeoParser/GeoParsing</text>
<text text-anchor="middle" x="1552" y="-139" font-family="Helvetica,sans-Serif" font-size="10.00">Task.cpp</text>
</a>
</g>
</g>
<!-- Node1&#45;&gt;Node17 -->
<g id="edge29_Node000001_Node000017" class="edge">
<title>Node1&#45;&gt;Node17</title>
<g id="a_edge29_Node000001_Node000017"><a xlink:title=" ">
<path fill="none" stroke="#63b8ff" d="M883.55,-297.85C1016.78,-293.18 1297.7,-280.02 1390,-250 1423.56,-239.09 1427.69,-227.08 1458,-209 1478.02,-197.06 1500.5,-183.78 1518.46,-173.2"/>
<polygon fill="#63b8ff" stroke="#63b8ff" points="883.32,-294.35 873.45,-298.2 883.56,-301.35 883.32,-294.35"/>
</a>
</g>
</g>
<!-- Node18 -->
<g id="Node000018" class="node">
<title>Node18</title>
<g id="a_Node000018"><a xlink:href="../../d0/d00/GeoParsingTask_8h.html" target="_top" xlink:title="Déclaration de la tâche de parsing GeoJSON asynchrone.">
<polygon fill="white" stroke="#666666" points="1637.5,-250 1466.5,-250 1466.5,-209 1637.5,-209 1637.5,-250"/>
<text text-anchor="start" x="1474.5" y="-238" font-family="Helvetica,sans-Serif" font-size="10.00">SimulateurFerroviaire</text>
<text text-anchor="start" x="1474.5" y="-227" font-family="Helvetica,sans-Serif" font-size="10.00">/Modules/GeoParser/GeoParsing</text>
<text text-anchor="middle" x="1552" y="-216" font-family="Helvetica,sans-Serif" font-size="10.00">Task.h</text>
</a>
</g>
</g>
<!-- Node1&#45;&gt;Node18 -->
<g id="edge30_Node000001_Node000018" class="edge">
<title>Node1&#45;&gt;Node18</title>
<g id="a_edge30_Node000001_Node000018"><a xlink:title=" ">
<path fill="none" stroke="#63b8ff" d="M883.62,-296.71C1001.2,-290.79 1242.33,-276.4 1445,-250 1451.93,-249.1 1459.09,-248.05 1466.27,-246.91"/>
<polygon fill="#63b8ff" stroke="#63b8ff" points="883.13,-293.23 873.32,-297.23 883.48,-300.23 883.13,-293.23"/>
</a>
</g>
</g>
<!-- Node3&#45;&gt;Node2 -->
<g id="edge3_Node000003_Node000002" class="edge">
<title>Node3&#45;&gt;Node2</title>
<g id="a_edge3_Node000003_Node000002"><a xlink:title=" ">
<path fill="none" stroke="#63b8ff" d="M136.11,-59.75C123.33,-50.13 108.36,-38.86 96.81,-30.16"/>
<polygon fill="#63b8ff" stroke="#63b8ff" points="134.04,-62.58 144.14,-65.8 138.25,-56.99 134.04,-62.58"/>
</a>
</g>
</g>
<!-- Node3&#45;&gt;Node4 -->
<g id="edge4_Node000003_Node000004" class="edge">
<title>Node3&#45;&gt;Node4</title>
<g id="a_edge4_Node000003_Node000004"><a xlink:title=" ">
<path fill="none" stroke="#63b8ff" d="M191.71,-60.03C205.63,-50.34 222.03,-38.94 234.64,-30.16"/>
<polygon fill="#63b8ff" stroke="#63b8ff" points="189.63,-57.21 183.42,-65.8 193.63,-62.96 189.63,-57.21"/>
</a>
</g>
</g>
<!-- Node6&#45;&gt;Node5 -->
<g id="edge7_Node000006_Node000005" class="edge">
<title>Node6&#45;&gt;Node5</title>
<g id="a_edge7_Node000006_Node000005"><a xlink:title=" ">
<path fill="none" stroke="#63b8ff" d="M421.51,-205.51C414.24,-193.11 405.5,-178.21 399.24,-167.54"/>
<polygon fill="#63b8ff" stroke="#63b8ff" points="418.64,-207.54 426.72,-214.39 424.68,-204 418.64,-207.54"/>
</a>
</g>
</g>
<!-- Node6&#45;&gt;Node7 -->
<g id="edge8_Node000006_Node000007" class="edge">
<title>Node6&#45;&gt;Node7</title>
<g id="a_edge8_Node000006_Node000007"><a xlink:title=" ">
<path fill="none" stroke="#63b8ff" d="M459.61,-207.63C471.61,-197.34 486.18,-184.66 499,-173 518.54,-155.23 518.27,-143.58 542,-132 586.24,-110.41 714.96,-95.84 800.44,-88.23"/>
<polygon fill="#63b8ff" stroke="#63b8ff" points="457.09,-205.18 451.76,-214.34 461.64,-210.5 457.09,-205.18"/>
</a>
</g>
</g>
<!-- Node9&#45;&gt;Node7 -->
<g id="edge12_Node000009_Node000007" class="edge">
<title>Node9&#45;&gt;Node7</title>
<g id="a_edge12_Node000009_Node000007"><a xlink:title=" ">
<path fill="none" stroke="#63b8ff" d="M728.18,-201.09C754.17,-172.82 791.08,-132.73 792,-132 810.08,-117.71 832.74,-105.04 850.68,-96.03"/>
<polygon fill="#63b8ff" stroke="#63b8ff" points="725.37,-198.98 721.18,-208.71 730.52,-203.72 725.37,-198.98"/>
</a>
</g>
</g>
<!-- Node9&#45;&gt;Node8 -->
<g id="edge11_Node000009_Node000008" class="edge">
<title>Node9&#45;&gt;Node8</title>
<g id="a_edge11_Node000009_Node000008"><a xlink:title=" ">
<path fill="none" stroke="#63b8ff" d="M688.47,-199.83C683.94,-190.89 679.05,-181.24 674.92,-173.07"/>
<polygon fill="#63b8ff" stroke="#63b8ff" points="685.37,-201.46 693.02,-208.79 691.62,-198.29 685.37,-201.46"/>
</a>
</g>
</g>
<!-- Node11&#45;&gt;Node7 -->
<g id="edge16_Node000011_Node000007" class="edge">
<title>Node11&#45;&gt;Node7</title>
<g id="a_edge16_Node000011_Node000007"><a xlink:title=" ">
<path fill="none" stroke="#63b8ff" d="M950.24,-201.72C957.84,-193.38 964.94,-183.57 969,-173 975.53,-155.99 978.17,-147.75 969,-132 959.37,-115.45 941.98,-103.92 925.2,-96.15"/>
<polygon fill="#63b8ff" stroke="#63b8ff" points="947.67,-199.35 943.19,-208.96 952.68,-204.24 947.67,-199.35"/>
</a>
</g>
</g>
<!-- Node11&#45;&gt;Node10 -->
<g id="edge15_Node000011_Node000010" class="edge">
<title>Node11&#45;&gt;Node10</title>
<g id="a_edge15_Node000011_Node000010"><a xlink:title=" ">
<path fill="none" stroke="#63b8ff" d="M904.47,-199.83C899.94,-190.89 895.05,-181.24 890.92,-173.07"/>
<polygon fill="#63b8ff" stroke="#63b8ff" points="901.37,-201.46 909.02,-208.79 907.62,-198.29 901.37,-201.46"/>
</a>
</g>
</g>
<!-- Node12&#45;&gt;Node3 -->
<g id="edge19_Node000012_Node000003" class="edge">
<title>Node12&#45;&gt;Node3</title>
<g id="a_edge19_Node000012_Node000003"><a xlink:title=" ">
<path fill="none" stroke="#63b8ff" d="M1005.17,-136.75C993.06,-134.96 980.73,-133.31 969,-132 699.55,-102 377.28,-88.79 235.73,-84.13"/>
<polygon fill="#63b8ff" stroke="#63b8ff" points="1004.87,-140.25 1015.28,-138.29 1005.92,-133.33 1004.87,-140.25"/>
</a>
</g>
</g>
<!-- Node12&#45;&gt;Node7 -->
<g id="edge20_Node000012_Node000007" class="edge">
<title>Node12&#45;&gt;Node7</title>
<g id="a_edge20_Node000012_Node000007"><a xlink:title=" ">
<path fill="none" stroke="#63b8ff" d="M1038.03,-134.22C1002.63,-122.45 956.36,-107.06 923.23,-96.04"/>
<polygon fill="#63b8ff" stroke="#63b8ff" points="1037.11,-137.6 1047.71,-137.44 1039.32,-130.96 1037.11,-137.6"/>
</a>
</g>
</g>
<!-- Node14&#45;&gt;Node12 -->
<g id="edge23_Node000014_Node000012" class="edge">
<title>Node14&#45;&gt;Node12</title>
<g id="a_edge23_Node000014_Node000012"><a xlink:title=" ">
<path fill="none" stroke="#63b8ff" d="M1105.87,-199.27C1102.13,-188.49 1098.06,-176.75 1094.98,-167.86"/>
<polygon fill="#63b8ff" stroke="#63b8ff" points="1102.59,-200.49 1109.17,-208.79 1109.2,-198.2 1102.59,-200.49"/>
</a>
</g>
</g>
<!-- Node14&#45;&gt;Node13 -->
<g id="edge24_Node000014_Node000013" class="edge">
<title>Node14&#45;&gt;Node13</title>
<g id="a_edge24_Node000014_Node000013"><a xlink:title=" ">
<path fill="none" stroke="#63b8ff" d="M1157.95,-203.92C1174.97,-193.95 1194.37,-182.58 1210.43,-173.17"/>
<polygon fill="#63b8ff" stroke="#63b8ff" points="1156.15,-200.92 1149.3,-208.99 1159.69,-206.95 1156.15,-200.92"/>
</a>
</g>
</g>
<!-- Node16&#45;&gt;Node13 -->
<g id="edge27_Node000016_Node000013" class="edge">
<title>Node16&#45;&gt;Node13</title>
<g id="a_edge27_Node000016_Node000013"><a xlink:title=" ">
<path fill="none" stroke="#63b8ff" d="M1276.51,-200.39C1270.2,-191.3 1263.35,-181.41 1257.57,-173.07"/>
<polygon fill="#63b8ff" stroke="#63b8ff" points="1273.76,-202.57 1282.34,-208.79 1279.52,-198.58 1273.76,-202.57"/>
</a>
</g>
</g>
<!-- Node16&#45;&gt;Node15 -->
<g id="edge28_Node000016_Node000015" class="edge">
<title>Node16&#45;&gt;Node15</title>
<g id="a_edge28_Node000016_Node000015"><a xlink:title=" ">
<path fill="none" stroke="#63b8ff" d="M1327.38,-202.35C1338.92,-192.73 1351.78,-182.01 1362.51,-173.07"/>
<polygon fill="#63b8ff" stroke="#63b8ff" points="1325.09,-199.7 1319.65,-208.79 1329.57,-205.08 1325.09,-199.7"/>
</a>
</g>
</g>
<!-- Node18&#45;&gt;Node7 -->
<g id="edge31_Node000018_Node000007" class="edge">
<title>Node18&#45;&gt;Node7</title>
<g id="a_edge31_Node000018_Node000007"><a xlink:title=" ">
<path fill="none" stroke="#63b8ff" d="M1615.56,-203.81C1628.11,-195.91 1639.66,-185.79 1647,-173 1656.07,-157.2 1659.46,-145.3 1647,-132 1600.9,-82.79 1148.99,-80.14 961.68,-81.19"/>
<polygon fill="#63b8ff" stroke="#63b8ff" points="1613.63,-200.88 1606.74,-208.93 1617.15,-206.93 1613.63,-200.88"/>
</a>
</g>
</g>
<!-- Node18&#45;&gt;Node17 -->
<g id="edge32_Node000018_Node000017" class="edge">
<title>Node18&#45;&gt;Node17</title>
<g id="a_edge32_Node000018_Node000017"><a xlink:title=" ">
<path fill="none" stroke="#63b8ff" d="M1552,-198.69C1552,-190.08 1552,-180.9 1552,-173.07"/>
<polygon fill="#63b8ff" stroke="#63b8ff" points="1548.5,-198.79 1552,-208.79 1555.5,-198.79 1548.5,-198.79"/>
</a>
</g>
</g>
</g>
</svg>
