<?xml version="1.0" encoding="UTF-8" standalone="no"?>
<!DOCTYPE svg PUBLIC "-//W3C//DTD SVG 1.1//EN"
 "http://www.w3.org/Graphics/SVG/1.1/DTD/svg11.dtd">
<!-- Generated by graphviz version 2.43.0 (0)
 -->
<!-- Title: SimulateurFerroviaire/framework.h Pages: 1 -->
<svg width="1299pt" height="401pt"
 viewBox="0.00 0.00 1298.71 401.00" xmlns="http://www.w3.org/2000/svg" xmlns:xlink="http://www.w3.org/1999/xlink">
<g id="graph0" class="graph" transform="scale(1 1) rotate(0) translate(4 397)">
<title>SimulateurFerroviaire/framework.h</title>
<!-- Node1 -->
<g id="Node000001" class="node">
<title>Node1</title>
<g id="a_Node000001"><a xlink:title=" ">
<polygon fill="#999999" stroke="#666666" points="747,-393 625,-393 625,-363 747,-363 747,-393"/>
<text text-anchor="start" x="633" y="-381" font-family="Helvetica,sans-Serif" font-size="10.00">SimulateurFerroviaire</text>
<text text-anchor="middle" x="686" y="-370" font-family="Helvetica,sans-Serif" font-size="10.00">/framework.h</text>
</a>
</g>
</g>
<!-- Node2 -->
<g id="Node000002" class="node">
<title>Node2</title>
<g id="a_Node000002"><a xlink:href="../../d2/d02/Application_8cpp.html" target="_top" xlink:title="Implémentation du cycle de vie de l&#39;application Win32.">
<polygon fill="white" stroke="#666666" points="156,-30 0,-30 0,0 156,0 156,-30"/>
<text text-anchor="start" x="8" y="-18" font-family="Helvetica,sans-Serif" font-size="10.00">SimulateurFerroviaire</text>
<text text-anchor="middle" x="78" y="-7" font-family="Helvetica,sans-Serif" font-size="10.00">/Engine/Core/Application.cpp</text>
</a>
</g>
</g>
<!-- Node1&#45;&gt;Node2 -->
<g id="edge1_Node000001_Node000002" class="edge">
<title>Node1&#45;&gt;Node2</title>
<g id="a_edge1_Node000001_Node000002"><a xlink:title=" ">
<path fill="none" stroke="#63b8ff" d="M614.82,-374.27C476.22,-368.4 180.28,-352.98 142,-327 102.2,-299.99 93,-278.6 93,-230.5 93,-230.5 93,-230.5 93,-151.5 93,-107 84.91,-54.79 80.61,-30.18"/>
<polygon fill="#63b8ff" stroke="#63b8ff" points="614.79,-377.77 624.93,-374.69 615.08,-370.78 614.79,-377.77"/>
</a>
</g>
</g>
<!-- Node3 -->
<g id="Node000003" class="node">
<title>Node3</title>
<g id="a_Node000003"><a xlink:href="../../d4/d00/Application_8h.html" target="_top" xlink:title="Gestion du cycle de vie de l&#39;application Win32.">
<polygon fill="white" stroke="#666666" points="315.5,-96 170.5,-96 170.5,-66 315.5,-66 315.5,-96"/>
<text text-anchor="start" x="178.5" y="-84" font-family="Helvetica,sans-Serif" font-size="10.00">SimulateurFerroviaire</text>
<text text-anchor="middle" x="243" y="-73" font-family="Helvetica,sans-Serif" font-size="10.00">/Engine/Core/Application.h</text>
</a>
</g>
</g>
<!-- Node1&#45;&gt;Node3 -->
<g id="edge2_Node000001_Node000003" class="edge">
<title>Node1&#45;&gt;Node3</title>
<g id="a_edge2_Node000001_Node000003"><a xlink:title=" ">
<path fill="none" stroke="#63b8ff" d="M614.7,-374.74C487.64,-369.97 232.83,-356.77 206,-327 145.38,-259.74 209.47,-137.44 234.16,-96.09"/>
<polygon fill="#63b8ff" stroke="#63b8ff" points="614.61,-378.24 624.73,-375.11 614.87,-371.24 614.61,-378.24"/>
</a>
</g>
</g>
<!-- Node4 -->
<g id="Node000004" class="node">
<title>Node4</title>
<g id="a_Node000004"><a xlink:href="../../db/d00/SimulateurFerroviaire_8cpp.html" target="_top" xlink:title="Point d&#39;entrée unique de l&#39;application Win32.">
<polygon fill="white" stroke="#666666" points="320,-30 174,-30 174,0 320,0 320,-30"/>
<text text-anchor="start" x="182" y="-18" font-family="Helvetica,sans-Serif" font-size="10.00">SimulateurFerroviaire</text>
<text text-anchor="middle" x="247" y="-7" font-family="Helvetica,sans-Serif" font-size="10.00">/SimulateurFerroviaire.cpp</text>
</a>
</g>
</g>
<!-- Node1&#45;&gt;Node4 -->
<g id="edge30_Node000001_Node000004" class="edge">
<title>Node1&#45;&gt;Node4</title>
<g id="a_edge30_Node000001_Node000004"><a xlink:title=" ">
<path fill="none" stroke="#63b8ff" d="M614.62,-373.88C483.7,-367.59 215.39,-351.82 181,-327 142.93,-299.52 138,-277.45 138,-230.5 138,-230.5 138,-230.5 138,-151.5 138,-112.15 137.08,-97.24 161,-66 173.28,-49.96 192.3,-38.13 209.34,-30.03"/>
<polygon fill="#63b8ff" stroke="#63b8ff" points="614.79,-377.39 624.95,-374.37 615.12,-370.4 614.79,-377.39"/>
</a>
</g>
</g>
<!-- Node5 -->
<g id="Node000005" class="node">
<title>Node5</title>
<g id="a_Node000005"><a xlink:href="../../d6/d00/AboutDialog_8cpp.html" target="_top" xlink:title="Implémentation de la boîte de dialogue &quot;À propos&quot;.">
<polygon fill="white" stroke="#666666" points="440,-244.5 242,-244.5 242,-214.5 440,-214.5 440,-244.5"/>
<text text-anchor="start" x="250" y="-232.5" font-family="Helvetica,sans-Serif" font-size="10.00">SimulateurFerroviaire</text>
<text text-anchor="middle" x="341" y="-221.5" font-family="Helvetica,sans-Serif" font-size="10.00">/Engine/HMI/Dialogs/AboutDialog.cpp</text>
</a>
</g>
</g>
<!-- Node1&#45;&gt;Node5 -->
<g id="edge5_Node000001_Node000005" class="edge">
<title>Node1&#45;&gt;Node5</title>
<g id="a_edge5_Node000001_Node000005"><a xlink:title=" ">
<path fill="none" stroke="#63b8ff" d="M614.8,-371.78C567.04,-365.92 503.97,-353.46 454,-327 430.66,-314.64 430.92,-303.33 411,-286 394.15,-271.34 374.11,-255.61 359.8,-244.66"/>
<polygon fill="#63b8ff" stroke="#63b8ff" points="614.41,-375.26 624.75,-372.94 615.22,-368.31 614.41,-375.26"/>
</a>
</g>
</g>
<!-- Node6 -->
<g id="Node000006" class="node">
<title>Node6</title>
<g id="a_Node000006"><a xlink:href="../../d7/d01/AboutDialog_8h.html" target="_top" xlink:title="Déclaration de la boîte de dialogue &quot;À propos&quot;.">
<polygon fill="white" stroke="#666666" points="402.5,-321.5 215.5,-321.5 215.5,-291.5 402.5,-291.5 402.5,-321.5"/>
<text text-anchor="start" x="223.5" y="-309.5" font-family="Helvetica,sans-Serif" font-size="10.00">SimulateurFerroviaire</text>
<text text-anchor="middle" x="309" y="-298.5" font-family="Helvetica,sans-Serif" font-size="10.00">/Engine/HMI/Dialogs/AboutDialog.h</text>
</a>
</g>
</g>
<!-- Node1&#45;&gt;Node6 -->
<g id="edge6_Node000001_Node000006" class="edge">
<title>Node1&#45;&gt;Node6</title>
<g id="a_edge6_Node000001_Node000006"><a xlink:title=" ">
<path fill="none" stroke="#63b8ff" d="M614.74,-363.86C549.14,-351.77 452.11,-333.88 385.03,-321.52"/>
<polygon fill="#63b8ff" stroke="#63b8ff" points="614.12,-367.31 624.59,-365.68 615.39,-360.42 614.12,-367.31"/>
</a>
</g>
</g>
<!-- Node7 -->
<g id="Node000007" class="node">
<title>Node7</title>
<g id="a_Node000007"><a xlink:href="../../d3/d03/MainWindow_8cpp.html" target="_top" xlink:title="Implémentation de la fenêtre principale.">
<polygon fill="white" stroke="#666666" points="586.5,-96 425.5,-96 425.5,-66 586.5,-66 586.5,-96"/>
<text text-anchor="start" x="433.5" y="-84" font-family="Helvetica,sans-Serif" font-size="10.00">SimulateurFerroviaire</text>
<text text-anchor="middle" x="506" y="-73" font-family="Helvetica,sans-Serif" font-size="10.00">/Engine/HMI/MainWindow.cpp</text>
</a>
</g>
</g>
<!-- Node1&#45;&gt;Node7 -->
<g id="edge17_Node000001_Node000007" class="edge">
<title>Node1&#45;&gt;Node7</title>
<g id="a_edge17_Node000001_Node000007"><a xlink:title=" ">
<path fill="none" stroke="#63b8ff" d="M757.2,-371.39C818.06,-364.95 898.89,-351.88 919,-327 937.69,-303.88 904.01,-218.51 899,-209 877.85,-168.87 871.74,-153.89 832,-132 791,-109.42 669.39,-95.28 586.87,-88.02"/>
<polygon fill="#63b8ff" stroke="#63b8ff" points="756.83,-367.91 747.23,-372.41 757.54,-374.88 756.83,-367.91"/>
</a>
</g>
</g>
<!-- Node8 -->
<g id="Node000008" class="node">
<title>Node8</title>
<g id="a_Node000008"><a xlink:href="../../dd/d02/FileOpenDialog_8cpp.html" target="_top" xlink:title="Implémentation du sélecteur de fichier GeoJSON natif Win32.">
<polygon fill="white" stroke="#666666" points="695.5,-250 534.5,-250 534.5,-209 695.5,-209 695.5,-250"/>
<text text-anchor="start" x="542.5" y="-238" font-family="Helvetica,sans-Serif" font-size="10.00">SimulateurFerroviaire</text>
<text text-anchor="start" x="542.5" y="-227" font-family="Helvetica,sans-Serif" font-size="10.00">/Engine/HMI/Dialogs/FileOpen</text>
<text text-anchor="middle" x="615" y="-216" font-family="Helvetica,sans-Serif" font-size="10.00">Dialog.cpp</text>
</a>
</g>
</g>
<!-- Node1&#45;&gt;Node8 -->
<g id="edge9_Node000001_Node000008" class="edge">
<title>Node1&#45;&gt;Node8</title>
<g id="a_edge9_Node000001_Node000008"><a xlink:title=" ">
<path fill="none" stroke="#63b8ff" d="M684.18,-353.02C681.94,-333.96 676.97,-307.09 666,-286 658.99,-272.53 647.87,-259.88 637.79,-250.06"/>
<polygon fill="#63b8ff" stroke="#63b8ff" points="680.7,-353.38 685.18,-362.98 687.66,-352.68 680.7,-353.38"/>
</a>
</g>
</g>
<!-- Node9 -->
<g id="Node000009" class="node">
<title>Node9</title>
<g id="a_Node000009"><a xlink:href="../../da/d01/FileOpenDialog_8h.html" target="_top" xlink:title="Déclaration du sélecteur de fichier GeoJSON.">
<polygon fill="white" stroke="#666666" points="657.5,-327 496.5,-327 496.5,-286 657.5,-286 657.5,-327"/>
<text text-anchor="start" x="504.5" y="-315" font-family="Helvetica,sans-Serif" font-size="10.00">SimulateurFerroviaire</text>
<text text-anchor="start" x="504.5" y="-304" font-family="Helvetica,sans-Serif" font-size="10.00">/Engine/HMI/Dialogs/FileOpen</text>
<text text-anchor="middle" x="577" y="-293" font-family="Helvetica,sans-Serif" font-size="10.00">Dialog.h</text>
</a>
</g>
</g>
<!-- Node1&#45;&gt;Node9 -->
<g id="edge10_Node000001_Node000009" class="edge">
<title>Node1&#45;&gt;Node9</title>
<g id="a_edge10_Node000001_Node000009"><a xlink:title=" ">
<path fill="none" stroke="#63b8ff" d="M655.12,-357.31C640.27,-347.84 622.52,-336.53 607.7,-327.07"/>
<polygon fill="#63b8ff" stroke="#63b8ff" points="653.63,-360.51 663.94,-362.94 657.39,-354.61 653.63,-360.51"/>
</a>
</g>
</g>
<!-- Node10 -->
<g id="Node000010" class="node">
<title>Node10</title>
<g id="a_Node000010"><a xlink:href="../../d7/d00/FileSaveDialog_8cpp.html" target="_top" xlink:title="Implémentation du sélecteur de fichier GeoJSON natif Win32.">
<polygon fill="white" stroke="#666666" points="872.5,-250 713.5,-250 713.5,-209 872.5,-209 872.5,-250"/>
<text text-anchor="start" x="721.5" y="-238" font-family="Helvetica,sans-Serif" font-size="10.00">SimulateurFerroviaire</text>
<text text-anchor="start" x="721.5" y="-227" font-family="Helvetica,sans-Serif" font-size="10.00">/Engine/HMI/Dialogs/FileSave</text>
<text text-anchor="middle" x="793" y="-216" font-family="Helvetica,sans-Serif" font-size="10.00">Dialog.cpp</text>
</a>
</g>
</g>
<!-- Node1&#45;&gt;Node10 -->
<g id="edge13_Node000001_Node000010" class="edge">
<title>Node1&#45;&gt;Node10</title>
<g id="a_edge13_Node000001_Node000010"><a xlink:title=" ">
<path fill="none" stroke="#63b8ff" d="M698.47,-354.1C709.13,-335.2 725.35,-308.03 742,-286 751.47,-273.47 763.27,-260.5 773.13,-250.24"/>
<polygon fill="#63b8ff" stroke="#63b8ff" points="695.37,-352.46 693.56,-362.9 701.49,-355.86 695.37,-352.46"/>
</a>
</g>
</g>
<!-- Node11 -->
<g id="Node000011" class="node">
<title>Node11</title>
<g id="a_Node000011"><a xlink:href="../../d2/d02/FileSaveDialog_8h.html" target="_top" xlink:title="Déclaration du sélecteur de sauvegarde de fichier GeoJSON.">
<polygon fill="white" stroke="#666666" points="910.5,-327 751.5,-327 751.5,-286 910.5,-286 910.5,-327"/>
<text text-anchor="start" x="759.5" y="-315" font-family="Helvetica,sans-Serif" font-size="10.00">SimulateurFerroviaire</text>
<text text-anchor="start" x="759.5" y="-304" font-family="Helvetica,sans-Serif" font-size="10.00">/Engine/HMI/Dialogs/FileSave</text>
<text text-anchor="middle" x="831" y="-293" font-family="Helvetica,sans-Serif" font-size="10.00">Dialog.h</text>
</a>
</g>
</g>
<!-- Node1&#45;&gt;Node11 -->
<g id="edge14_Node000001_Node000011" class="edge">
<title>Node1&#45;&gt;Node11</title>
<g id="a_edge14_Node000001_Node000011"><a xlink:title=" ">
<path fill="none" stroke="#63b8ff" d="M724.58,-358.51C744.82,-348.81 769.6,-336.93 790.16,-327.07"/>
<polygon fill="#63b8ff" stroke="#63b8ff" points="722.85,-355.46 715.34,-362.94 725.87,-361.77 722.85,-355.46"/>
</a>
</g>
</g>
<!-- Node12 -->
<g id="Node000012" class="node">
<title>Node12</title>
<g id="a_Node000012"><a xlink:href="../../da/d00/MainWindow_8h.html" target="_top" xlink:title="Déclaration de la fenêtre principale de l&#39;application.">
<polygon fill="white" stroke="#666666" points="478.5,-167.5 329.5,-167.5 329.5,-137.5 478.5,-137.5 478.5,-167.5"/>
<text text-anchor="start" x="337.5" y="-155.5" font-family="Helvetica,sans-Serif" font-size="10.00">SimulateurFerroviaire</text>
<text text-anchor="middle" x="404" y="-144.5" font-family="Helvetica,sans-Serif" font-size="10.00">/Engine/HMI/MainWindow.h</text>
</a>
</g>
</g>
<!-- Node1&#45;&gt;Node12 -->
<g id="edge18_Node000001_Node000012" class="edge">
<title>Node1&#45;&gt;Node12</title>
<g id="a_edge18_Node000001_Node000012"><a xlink:title=" ">
<path fill="none" stroke="#63b8ff" d="M614.53,-375.71C572.51,-371.28 521.11,-358.95 487,-327 446.79,-289.33 475.24,-257.45 449,-209 440.61,-193.51 427.68,-178.13 417.83,-167.5"/>
<polygon fill="#63b8ff" stroke="#63b8ff" points="614.44,-379.22 624.72,-376.66 615.09,-372.25 614.44,-379.22"/>
</a>
</g>
</g>
<!-- Node13 -->
<g id="Node000013" class="node">
<title>Node13</title>
<g id="a_Node000013"><a xlink:href="../../d4/d03/PCCPanel_8cpp.html" target="_top" xlink:title="Implémentation du panneau PCC superposé togglable.">
<polygon fill="white" stroke="#666666" points="1180,-173 1056,-173 1056,-132 1180,-132 1180,-173"/>
<text text-anchor="start" x="1064" y="-161" font-family="Helvetica,sans-Serif" font-size="10.00">SimulateurFerroviaire</text>
<text text-anchor="start" x="1064" y="-150" font-family="Helvetica,sans-Serif" font-size="10.00">/Engine/HMI/PCCPanel</text>
<text text-anchor="middle" x="1118" y="-139" font-family="Helvetica,sans-Serif" font-size="10.00">/PCCPanel.cpp</text>
</a>
</g>
</g>
<!-- Node1&#45;&gt;Node13 -->
<g id="edge21_Node000001_Node000013" class="edge">
<title>Node1&#45;&gt;Node13</title>
<g id="a_edge21_Node000001_Node000013"><a xlink:title=" ">
<path fill="none" stroke="#63b8ff" d="M757.4,-375.65C878.96,-372.43 1120.39,-361.74 1197,-327 1255.16,-300.62 1316.08,-261 1279,-209 1256.69,-177.71 1215.52,-163.88 1180.4,-157.86"/>
<polygon fill="#63b8ff" stroke="#63b8ff" points="757,-372.16 747.09,-375.92 757.17,-379.16 757,-372.16"/>
</a>
</g>
</g>
<!-- Node14 -->
<g id="Node000014" class="node">
<title>Node14</title>
<g id="a_Node000014"><a xlink:href="../../d5/d00/PCCPanel_8h.html" target="_top" xlink:title="Panneau PCC superposé togglable, affiché par&#45;dessus la carte Leaflet.">
<polygon fill="white" stroke="#666666" points="1090,-250 966,-250 966,-209 1090,-209 1090,-250"/>
<text text-anchor="start" x="974" y="-238" font-family="Helvetica,sans-Serif" font-size="10.00">SimulateurFerroviaire</text>
<text text-anchor="start" x="974" y="-227" font-family="Helvetica,sans-Serif" font-size="10.00">/Engine/HMI/PCCPanel</text>
<text text-anchor="middle" x="1028" y="-216" font-family="Helvetica,sans-Serif" font-size="10.00">/PCCPanel.h</text>
</a>
</g>
</g>
<!-- Node1&#45;&gt;Node14 -->
<g id="edge22_Node000001_Node000014" class="edge">
<title>Node1&#45;&gt;Node14</title>
<g id="a_edge22_Node000001_Node000014"><a xlink:title=" ">
<path fill="none" stroke="#63b8ff" d="M757.37,-377C813.88,-373.98 892.89,-362.82 952,-327 982.64,-308.43 1005.8,-272.68 1018.09,-250.29"/>
<polygon fill="#63b8ff" stroke="#63b8ff" points="756.91,-373.52 747.08,-377.47 757.23,-380.51 756.91,-373.52"/>
</a>
</g>
</g>
<!-- Node15 -->
<g id="Node000015" class="node">
<title>Node15</title>
<g id="a_Node000015"><a xlink:href="../../d4/d02/TCORenderer_8cpp.html" target="_top" xlink:title="Renderer GDI TCO — style SNCF, blocs fixes.">
<polygon fill="white" stroke="#666666" points="1270,-250 1146,-250 1146,-209 1270,-209 1270,-250"/>
<text text-anchor="start" x="1154" y="-238" font-family="Helvetica,sans-Serif" font-size="10.00">SimulateurFerroviaire</text>
<text text-anchor="start" x="1154" y="-227" font-family="Helvetica,sans-Serif" font-size="10.00">/Engine/HMI/PCCPanel</text>
<text text-anchor="middle" x="1208" y="-216" font-family="Helvetica,sans-Serif" font-size="10.00">/TCORenderer.cpp</text>
</a>
</g>
</g>
<!-- Node1&#45;&gt;Node15 -->
<g id="edge25_Node000001_Node000015" class="edge">
<title>Node1&#45;&gt;Node15</title>
<g id="a_edge25_Node000001_Node000015"><a xlink:title=" ">
<path fill="none" stroke="#63b8ff" d="M757.4,-373.69C884.06,-367.23 1137.86,-351.4 1170,-327 1194.09,-308.71 1202.93,-272.87 1206.16,-250.39"/>
<polygon fill="#63b8ff" stroke="#63b8ff" points="757.21,-370.2 747.4,-374.2 757.56,-377.19 757.21,-370.2"/>
</a>
</g>
</g>
<!-- Node16 -->
<g id="Node000016" class="node">
<title>Node16</title>
<g id="a_Node000016"><a xlink:href="../../d8/d02/TCORenderer_8h.html" target="_top" xlink:title="Renderer GDI du schéma TCO — style SNCF, blocs fixes.">
<polygon fill="white" stroke="#666666" points="1161,-327 1037,-327 1037,-286 1161,-286 1161,-327"/>
<text text-anchor="start" x="1045" y="-315" font-family="Helvetica,sans-Serif" font-size="10.00">SimulateurFerroviaire</text>
<text text-anchor="start" x="1045" y="-304" font-family="Helvetica,sans-Serif" font-size="10.00">/Engine/HMI/PCCPanel</text>
<text text-anchor="middle" x="1099" y="-293" font-family="Helvetica,sans-Serif" font-size="10.00">/TCORenderer.h</text>
</a>
</g>
</g>
<!-- Node1&#45;&gt;Node16 -->
<g id="edge26_Node000001_Node000016" class="edge">
<title>Node1&#45;&gt;Node16</title>
<g id="a_edge26_Node000001_Node000016"><a xlink:title=" ">
<path fill="none" stroke="#63b8ff" d="M757.1,-367.91C824.13,-358.94 927.25,-344.12 1016,-327 1022.69,-325.71 1029.65,-324.25 1036.57,-322.73"/>
<polygon fill="#63b8ff" stroke="#63b8ff" points="756.52,-364.45 747.07,-369.24 757.45,-371.39 756.52,-364.45"/>
</a>
</g>
</g>
<!-- Node3&#45;&gt;Node2 -->
<g id="edge3_Node000003_Node000002" class="edge">
<title>Node3&#45;&gt;Node2</title>
<g id="a_edge3_Node000003_Node000002"><a xlink:title=" ">
<path fill="none" stroke="#63b8ff" d="M197.43,-62.32C171.16,-52.14 138.61,-39.51 114.13,-30.01"/>
<polygon fill="#63b8ff" stroke="#63b8ff" points="196.2,-65.6 206.79,-65.95 198.73,-59.08 196.2,-65.6"/>
</a>
</g>
</g>
<!-- Node3&#45;&gt;Node4 -->
<g id="edge4_Node000003_Node000004" class="edge">
<title>Node3&#45;&gt;Node4</title>
<g id="a_edge4_Node000003_Node000004"><a xlink:title=" ">
<path fill="none" stroke="#63b8ff" d="M244.53,-55.54C245.06,-46.96 245.65,-37.61 246.11,-30.16"/>
<polygon fill="#63b8ff" stroke="#63b8ff" points="241.02,-55.6 243.89,-65.8 248,-56.03 241.02,-55.6"/>
</a>
</g>
</g>
<!-- Node6&#45;&gt;Node5 -->
<g id="edge7_Node000006_Node000005" class="edge">
<title>Node6&#45;&gt;Node5</title>
<g id="a_edge7_Node000006_Node000005"><a xlink:title=" ">
<path fill="none" stroke="#63b8ff" d="M318.96,-282.15C324.22,-269.82 330.5,-255.11 335.01,-244.54"/>
<polygon fill="#63b8ff" stroke="#63b8ff" points="315.72,-280.82 315.02,-291.39 322.16,-283.57 315.72,-280.82"/>
</a>
</g>
</g>
<!-- Node6&#45;&gt;Node7 -->
<g id="edge8_Node000006_Node000007" class="edge">
<title>Node6&#45;&gt;Node7</title>
<g id="a_edge8_Node000006_Node000007"><a xlink:title=" ">
<path fill="none" stroke="#63b8ff" d="M268.71,-286.15C254.77,-277.23 240.72,-265.2 233,-250 224.75,-233.75 225.52,-225.62 233,-209 265.9,-135.96 357.24,-104.85 425.26,-91.65"/>
<polygon fill="#63b8ff" stroke="#63b8ff" points="266.94,-289.17 277.32,-291.3 270.54,-283.16 266.94,-289.17"/>
</a>
</g>
</g>
<!-- Node9&#45;&gt;Node7 -->
<g id="edge12_Node000009_Node000007" class="edge">
<title>Node9&#45;&gt;Node7</title>
<g id="a_edge12_Node000009_Node000007"><a xlink:title=" ">
<path fill="none" stroke="#63b8ff" d="M545.31,-278.59C537.41,-270.24 529.83,-260.46 525,-250 500.75,-197.51 502.57,-126.32 504.7,-96.29"/>
<polygon fill="#63b8ff" stroke="#63b8ff" points="543.02,-281.25 552.58,-285.83 547.96,-276.29 543.02,-281.25"/>
</a>
</g>
</g>
<!-- Node9&#45;&gt;Node8 -->
<g id="edge11_Node000009_Node000008" class="edge">
<title>Node9&#45;&gt;Node8</title>
<g id="a_edge11_Node000009_Node000008"><a xlink:title=" ">
<path fill="none" stroke="#63b8ff" d="M591.53,-276.83C596.06,-267.89 600.95,-258.24 605.08,-250.07"/>
<polygon fill="#63b8ff" stroke="#63b8ff" points="588.38,-275.29 586.98,-285.79 594.63,-278.46 588.38,-275.29"/>
</a>
</g>
</g>
<!-- Node11&#45;&gt;Node7 -->
<g id="edge16_Node000011_Node000007" class="edge">
<title>Node11&#45;&gt;Node7</title>
<g id="a_edge16_Node000011_Node000007"><a xlink:title=" ">
<path fill="none" stroke="#63b8ff" d="M860.91,-278.41C879.34,-258.38 896.7,-230.89 881,-209 814.2,-115.86 675.32,-90.17 586.6,-83.58"/>
<polygon fill="#63b8ff" stroke="#63b8ff" points="858.3,-276.07 853.86,-285.69 863.33,-280.94 858.3,-276.07"/>
</a>
</g>
</g>
<!-- Node11&#45;&gt;Node10 -->
<g id="edge15_Node000011_Node000010" class="edge">
<title>Node11&#45;&gt;Node10</title>
<g id="a_edge15_Node000011_Node000010"><a xlink:title=" ">
<path fill="none" stroke="#63b8ff" d="M816.47,-276.83C811.94,-267.89 807.05,-258.24 802.92,-250.07"/>
<polygon fill="#63b8ff" stroke="#63b8ff" points="813.37,-278.46 821.02,-285.79 819.62,-275.29 813.37,-278.46"/>
</a>
</g>
</g>
<!-- Node12&#45;&gt;Node3 -->
<g id="edge19_Node000012_Node000003" class="edge">
<title>Node12&#45;&gt;Node3</title>
<g id="a_edge19_Node000012_Node000003"><a xlink:title=" ">
<path fill="none" stroke="#63b8ff" d="M362.21,-133.46C335.18,-121.79 300.51,-106.82 275.53,-96.04"/>
<polygon fill="#63b8ff" stroke="#63b8ff" points="360.85,-136.69 371.42,-137.44 363.63,-130.26 360.85,-136.69"/>
</a>
</g>
</g>
<!-- Node12&#45;&gt;Node7 -->
<g id="edge20_Node000012_Node000007" class="edge">
<title>Node12&#45;&gt;Node7</title>
<g id="a_edge20_Node000012_Node000007"><a xlink:title=" ">
<path fill="none" stroke="#63b8ff" d="M432.98,-131.75C449.7,-120.36 470.33,-106.31 485.39,-96.04"/>
<polygon fill="#63b8ff" stroke="#63b8ff" points="430.93,-128.91 424.64,-137.44 434.88,-134.7 430.93,-128.91"/>
</a>
</g>
</g>
<!-- Node14&#45;&gt;Node12 -->
<g id="edge23_Node000014_Node000012" class="edge">
<title>Node14&#45;&gt;Node12</title>
<g id="a_edge23_Node000014_Node000012"><a xlink:title=" ">
<path fill="none" stroke="#63b8ff" d="M955.78,-218.69C931.98,-215.51 905.37,-212.03 881,-209 738.91,-191.31 572.77,-172.38 478.81,-161.83"/>
<polygon fill="#63b8ff" stroke="#63b8ff" points="955.42,-222.17 965.8,-220.02 956.35,-215.23 955.42,-222.17"/>
</a>
</g>
</g>
<!-- Node14&#45;&gt;Node13 -->
<g id="edge24_Node000014_Node000013" class="edge">
<title>Node14&#45;&gt;Node13</title>
<g id="a_edge24_Node000014_Node000013"><a xlink:title=" ">
<path fill="none" stroke="#63b8ff" d="M1059.38,-202.35C1070.92,-192.73 1083.78,-182.01 1094.51,-173.07"/>
<polygon fill="#63b8ff" stroke="#63b8ff" points="1057.09,-199.7 1051.65,-208.79 1061.57,-205.08 1057.09,-199.7"/>
</a>
</g>
</g>
<!-- Node16&#45;&gt;Node13 -->
<g id="edge27_Node000016_Node000013" class="edge">
<title>Node16&#45;&gt;Node13</title>
<g id="a_edge27_Node000016_Node000013"><a xlink:title=" ">
<path fill="none" stroke="#63b8ff" d="M1102.69,-275.98C1106.47,-245.76 1112.23,-199.64 1115.5,-173.47"/>
<polygon fill="#63b8ff" stroke="#63b8ff" points="1099.21,-275.58 1101.45,-285.94 1106.16,-276.45 1099.21,-275.58"/>
</a>
</g>
</g>
<!-- Node16&#45;&gt;Node14 -->
<g id="edge28_Node000016_Node000014" class="edge">
<title>Node16&#45;&gt;Node14</title>
<g id="a_edge28_Node000016_Node000014"><a xlink:title=" ">
<path fill="none" stroke="#63b8ff" d="M1073.45,-278.51C1064.55,-269.11 1054.75,-258.76 1046.53,-250.07"/>
<polygon fill="#63b8ff" stroke="#63b8ff" points="1070.93,-280.94 1080.35,-285.79 1076.01,-276.13 1070.93,-280.94"/>
</a>
</g>
</g>
<!-- Node16&#45;&gt;Node15 -->
<g id="edge29_Node000016_Node000015" class="edge">
<title>Node16&#45;&gt;Node15</title>
<g id="a_edge29_Node000016_Node000015"><a xlink:title=" ">
<path fill="none" stroke="#63b8ff" d="M1135.93,-280.09C1150.13,-270.32 1166.11,-259.32 1179.41,-250.17"/>
<polygon fill="#63b8ff" stroke="#63b8ff" points="1133.61,-277.44 1127.35,-285.99 1137.58,-283.21 1133.61,-277.44"/>
</a>
</g>
</g>
</g>
</svg>
