<?xml version="1.0" encoding="UTF-8" standalone="no"?>
<!DOCTYPE svg PUBLIC "-//W3C//DTD SVG 1.1//EN"
 "http://www.w3.org/Graphics/SVG/1.1/DTD/svg11.dtd">
<!-- Generated by graphviz version 2.43.0 (0)
 -->
<!-- Title: SimulateurFerroviaire/Modules/GeoParser/Pipeline/Phase7_SwitchProcessor.h Pages: 1 -->
<svg width="370pt" height="126pt"
 viewBox="0.00 0.00 370.00 126.00" xmlns="http://www.w3.org/2000/svg" xmlns:xlink="http://www.w3.org/1999/xlink">
<g id="graph0" class="graph" transform="scale(1 1) rotate(0) translate(4 122)">
<title>SimulateurFerroviaire/Modules/GeoParser/Pipeline/Phase7_SwitchProcessor.h</title>
<!-- Node1 -->
<g id="Node000001" class="node">
<title>Node1</title>
<g id="a_Node000001"><a xlink:title="Phase 7 du pipeline — traitement complet des aiguillages.">
<polygon fill="#999999" stroke="#666666" points="265,-118 110,-118 110,-77 265,-77 265,-118"/>
<text text-anchor="start" x="118" y="-106" font-family="Helvetica,sans-Serif" font-size="10.00">SimulateurFerroviaire</text>
<text text-anchor="start" x="118" y="-95" font-family="Helvetica,sans-Serif" font-size="10.00">/Modules/GeoParser/Pipeline</text>
<text text-anchor="middle" x="187.5" y="-84" font-family="Helvetica,sans-Serif" font-size="10.00">/Phase7_SwitchProcessor.h</text>
</a>
</g>
</g>
<!-- Node2 -->
<g id="Node000002" class="node">
<title>Node2</title>
<g id="a_Node000002"><a xlink:href="../../d7/d03/GeoParser_8cpp.html" target="_top" xlink:title="Implémentation de l&#39;orchestrateur GeoParser v2.">
<polygon fill="white" stroke="#666666" points="185,-35.5 0,-35.5 0,-5.5 185,-5.5 185,-35.5"/>
<text text-anchor="start" x="8" y="-23.5" font-family="Helvetica,sans-Serif" font-size="10.00">SimulateurFerroviaire</text>
<text text-anchor="middle" x="92.5" y="-12.5" font-family="Helvetica,sans-Serif" font-size="10.00">/Modules/GeoParser/GeoParser.cpp</text>
</a>
</g>
</g>
<!-- Node1&#45;&gt;Node2 -->
<g id="edge1_Node000001_Node000002" class="edge">
<title>Node1&#45;&gt;Node2</title>
<g id="a_edge1_Node000001_Node000002"><a xlink:title=" ">
<path fill="none" stroke="#63b8ff" d="M154.56,-70.5C139.74,-58.79 122.82,-45.44 110.39,-35.63"/>
<polygon fill="#63b8ff" stroke="#63b8ff" points="152.52,-73.35 162.54,-76.79 156.86,-67.85 152.52,-73.35"/>
</a>
</g>
</g>
<!-- Node3 -->
<g id="Node000003" class="node">
<title>Node3</title>
<g id="a_Node000003"><a xlink:href="../../d3/d01/Phase7__SwitchProcessor_8cpp.html" target="_top" xlink:title="Implémentation du traitement complet des aiguillages.">
<polygon fill="white" stroke="#666666" points="362,-41 203,-41 203,0 362,0 362,-41"/>
<text text-anchor="start" x="211" y="-29" font-family="Helvetica,sans-Serif" font-size="10.00">SimulateurFerroviaire</text>
<text text-anchor="start" x="211" y="-18" font-family="Helvetica,sans-Serif" font-size="10.00">/Modules/GeoParser/Pipeline</text>
<text text-anchor="middle" x="282.5" y="-7" font-family="Helvetica,sans-Serif" font-size="10.00">/Phase7_SwitchProcessor.cpp</text>
</a>
</g>
</g>
<!-- Node1&#45;&gt;Node3 -->
<g id="edge2_Node000001_Node000003" class="edge">
<title>Node1&#45;&gt;Node3</title>
<g id="a_edge2_Node000001_Node000003"><a xlink:title=" ">
<path fill="none" stroke="#63b8ff" d="M220.63,-70.35C232.81,-60.73 246.38,-50.01 257.71,-41.07"/>
<polygon fill="#63b8ff" stroke="#63b8ff" points="218.14,-67.85 212.46,-76.79 222.48,-73.35 218.14,-67.85"/>
</a>
</g>
</g>
</g>
</svg>
