<?xml version="1.0" encoding="UTF-8" standalone="no"?>
<!DOCTYPE svg PUBLIC "-//W3C//DTD SVG 1.1//EN"
 "http://www.w3.org/Graphics/SVG/1.1/DTD/svg11.dtd">
<!-- Generated by graphviz version 2.43.0 (0)
 -->
<!-- Title: SimulateurFerroviaire/Modules/InteractiveElements/ShuntingElements/SwitchBlock.h Pages: 1 -->
<svg width="1949pt" height="489pt"
 viewBox="0.00 0.00 1948.50 489.00" xmlns="http://www.w3.org/2000/svg" xmlns:xlink="http://www.w3.org/1999/xlink">
<g id="graph0" class="graph" transform="scale(1 1) rotate(0) translate(4 485)">
<title>SimulateurFerroviaire/Modules/InteractiveElements/ShuntingElements/SwitchBlock.h</title>
<!-- Node1 -->
<g id="Node000001" class="node">
<title>Node1</title>
<g id="a_Node000001"><a xlink:title="Modèle de domaine d&#39;un aiguillage ferroviaire à 3 branches.">
<polygon fill="#999999" stroke="#666666" points="1181,-481 1002,-481 1002,-440 1181,-440 1181,-481"/>
<text text-anchor="start" x="1010" y="-469" font-family="Helvetica,sans-Serif" font-size="10.00">SimulateurFerroviaire</text>
<text text-anchor="start" x="1010" y="-458" font-family="Helvetica,sans-Serif" font-size="10.00">/Modules/InteractiveElements</text>
<text text-anchor="middle" x="1091.5" y="-447" font-family="Helvetica,sans-Serif" font-size="10.00">/ShuntingElements/SwitchBlock.h</text>
</a>
</g>
</g>
<!-- Node2 -->
<g id="Node000002" class="node">
<title>Node2</title>
<g id="a_Node000002"><a xlink:href="../../d6/d02/TopologyData_8h.html" target="_top" xlink:title="Conteneur central des données topologiques ferroviaires.">
<polygon fill="white" stroke="#666666" points="272,-404 147,-404 147,-363 272,-363 272,-404"/>
<text text-anchor="start" x="155" y="-392" font-family="Helvetica,sans-Serif" font-size="10.00">SimulateurFerroviaire</text>
<text text-anchor="start" x="155" y="-381" font-family="Helvetica,sans-Serif" font-size="10.00">/Engine/Core/Topology</text>
<text text-anchor="middle" x="209.5" y="-370" font-family="Helvetica,sans-Serif" font-size="10.00">/TopologyData.h</text>
</a>
</g>
</g>
<!-- Node1&#45;&gt;Node2 -->
<g id="edge1_Node000001_Node000002" class="edge">
<title>Node1&#45;&gt;Node2</title>
<g id="a_edge1_Node000001_Node000002"><a xlink:title=" ">
<path fill="none" stroke="#63b8ff" d="M991.79,-452.7C854.82,-443.13 600.79,-424.53 384.5,-404 347.22,-400.46 305.55,-395.84 272.22,-391.99"/>
<polygon fill="#63b8ff" stroke="#63b8ff" points="991.64,-456.2 1001.86,-453.4 992.12,-449.22 991.64,-456.2"/>
</a>
</g>
</g>
<!-- Node8 -->
<g id="Node000008" class="node">
<title>Node8</title>
<g id="a_Node000008"><a xlink:href="../../d2/d01/TopologyRenderer_8h.html" target="_top" xlink:title="Exporteur de topologie ferroviaire au format GeoJSON.">
<polygon fill="white" stroke="#666666" points="415,-327 290,-327 290,-286 415,-286 415,-327"/>
<text text-anchor="start" x="298" y="-315" font-family="Helvetica,sans-Serif" font-size="10.00">SimulateurFerroviaire</text>
<text text-anchor="start" x="298" y="-304" font-family="Helvetica,sans-Serif" font-size="10.00">/Engine/Core/Topology</text>
<text text-anchor="middle" x="352.5" y="-293" font-family="Helvetica,sans-Serif" font-size="10.00">/TopologyRenderer.h</text>
</a>
</g>
</g>
<!-- Node1&#45;&gt;Node8 -->
<g id="edge8_Node000001_Node000008" class="edge">
<title>Node1&#45;&gt;Node8</title>
<g id="a_edge8_Node000001_Node000008"><a xlink:title=" ">
<path fill="none" stroke="#63b8ff" d="M991.67,-458.2C838.92,-454.95 555.12,-443.6 462.5,-404 422.79,-387.02 387.31,-350.04 367.96,-327.11"/>
<polygon fill="#63b8ff" stroke="#63b8ff" points="991.92,-461.7 1001.99,-458.41 992.07,-454.7 991.92,-461.7"/>
</a>
</g>
</g>
<!-- Node9 -->
<g id="Node000009" class="node">
<title>Node9</title>
<g id="a_Node000009"><a xlink:href="../../d4/d02/TCORenderer_8cpp.html" target="_top" xlink:title="Renderer GDI TCO — style SNCF, blocs fixes.">
<polygon fill="white" stroke="#666666" points="1940.5,-173 1816.5,-173 1816.5,-132 1940.5,-132 1940.5,-173"/>
<text text-anchor="start" x="1824.5" y="-161" font-family="Helvetica,sans-Serif" font-size="10.00">SimulateurFerroviaire</text>
<text text-anchor="start" x="1824.5" y="-150" font-family="Helvetica,sans-Serif" font-size="10.00">/Engine/HMI/PCCPanel</text>
<text text-anchor="middle" x="1878.5" y="-139" font-family="Helvetica,sans-Serif" font-size="10.00">/TCORenderer.cpp</text>
</a>
</g>
</g>
<!-- Node1&#45;&gt;Node9 -->
<g id="edge12_Node000001_Node000009" class="edge">
<title>Node1&#45;&gt;Node9</title>
<g id="a_edge12_Node000001_Node000009"><a xlink:title=" ">
<path fill="none" stroke="#63b8ff" d="M1191.21,-454.76C1341.64,-446.92 1619.29,-429.52 1715.5,-404 1794.89,-382.95 1831.51,-390.59 1883.5,-327 1917.08,-285.93 1911.85,-261.03 1901.5,-209 1899.04,-196.62 1893.76,-183.55 1888.89,-173.2"/>
<polygon fill="#63b8ff" stroke="#63b8ff" points="1190.85,-451.28 1181.04,-455.29 1191.21,-458.27 1190.85,-451.28"/>
</a>
</g>
</g>
<!-- Node10 -->
<g id="Node000010" class="node">
<title>Node10</title>
<g id="a_Node000010"><a xlink:href="../../de/d00/DoubleSwitchDetector_8h.html" target="_top" xlink:title="Phases 7 et 8 — détection des doubles aiguilles et validation CDC.">
<polygon fill="white" stroke="#666666" points="655,-404 472,-404 472,-363 655,-363 655,-404"/>
<text text-anchor="start" x="480" y="-392" font-family="Helvetica,sans-Serif" font-size="10.00">SimulateurFerroviaire</text>
<text text-anchor="start" x="480" y="-381" font-family="Helvetica,sans-Serif" font-size="10.00">/Modules/GeoParser/DoubleSwitch</text>
<text text-anchor="middle" x="563.5" y="-370" font-family="Helvetica,sans-Serif" font-size="10.00">Detector.h</text>
</a>
</g>
</g>
<!-- Node1&#45;&gt;Node10 -->
<g id="edge13_Node000001_Node000010" class="edge">
<title>Node1&#45;&gt;Node10</title>
<g id="a_edge13_Node000001_Node000010"><a xlink:title=" ">
<path fill="none" stroke="#63b8ff" d="M991.84,-445.34C895.05,-431.59 749.31,-410.89 655.28,-397.54"/>
<polygon fill="#63b8ff" stroke="#63b8ff" points="991.54,-448.84 1001.93,-446.78 992.52,-441.91 991.54,-448.84"/>
</a>
</g>
</g>
<!-- Node12 -->
<g id="Node000012" class="node">
<title>Node12</title>
<g id="a_Node000012"><a xlink:href="../../de/d02/GeoParser_8h.html" target="_top" xlink:title="Orchestrateur principal du pipeline GeoJSON ferroviaire.">
<polygon fill="white" stroke="#666666" points="939.5,-398.5 765.5,-398.5 765.5,-368.5 939.5,-368.5 939.5,-398.5"/>
<text text-anchor="start" x="773.5" y="-386.5" font-family="Helvetica,sans-Serif" font-size="10.00">SimulateurFerroviaire</text>
<text text-anchor="middle" x="852.5" y="-375.5" font-family="Helvetica,sans-Serif" font-size="10.00">/Modules/GeoParser/GeoParser.h</text>
</a>
</g>
</g>
<!-- Node1&#45;&gt;Node12 -->
<g id="edge16_Node000001_Node000012" class="edge">
<title>Node1&#45;&gt;Node12</title>
<g id="a_edge16_Node000001_Node000012"><a xlink:title=" ">
<path fill="none" stroke="#63b8ff" d="M1019.68,-436.96C979.94,-424.49 931.78,-409.38 897.38,-398.58"/>
<polygon fill="#63b8ff" stroke="#63b8ff" points="1018.74,-440.34 1029.33,-439.99 1020.84,-433.66 1018.74,-440.34"/>
</a>
</g>
</g>
<!-- Node14 -->
<g id="Node000014" class="node">
<title>Node14</title>
<g id="a_Node000014"><a xlink:href="../../db/d01/SwitchOrientator_8h.html" target="_top" xlink:title="Phases 6, 6b, 6c et 6d — orientation géométrique des aiguillages.">
<polygon fill="white" stroke="#666666" points="1322.5,-321.5 1116.5,-321.5 1116.5,-291.5 1322.5,-291.5 1322.5,-321.5"/>
<text text-anchor="start" x="1124.5" y="-309.5" font-family="Helvetica,sans-Serif" font-size="10.00">SimulateurFerroviaire</text>
<text text-anchor="middle" x="1219.5" y="-298.5" font-family="Helvetica,sans-Serif" font-size="10.00">/Modules/GeoParser/SwitchOrientator.h</text>
</a>
</g>
</g>
<!-- Node1&#45;&gt;Node14 -->
<g id="edge19_Node000001_Node000014" class="edge">
<title>Node1&#45;&gt;Node14</title>
<g id="a_edge19_Node000001_Node000014"><a xlink:title=" ">
<path fill="none" stroke="#63b8ff" d="M1113.26,-431.78C1128.7,-412.32 1150.04,-385.8 1169.5,-363 1181.62,-348.8 1195.93,-333.01 1206.13,-321.92"/>
<polygon fill="#63b8ff" stroke="#63b8ff" points="1110.49,-429.64 1107.03,-439.66 1115.98,-433.98 1110.49,-429.64"/>
</a>
</g>
</g>
<!-- Node16 -->
<g id="Node000016" class="node">
<title>Node16</title>
<g id="a_Node000016"><a xlink:href="../../df/d03/TopologyExtractor_8h.html" target="_top" xlink:title="Phases 3, 4, 5a et 5b — extraction de la topologie ferroviaire depuis le graphe.">
<polygon fill="white" stroke="#666666" points="1117.5,-404 957.5,-404 957.5,-363 1117.5,-363 1117.5,-404"/>
<text text-anchor="start" x="965.5" y="-392" font-family="Helvetica,sans-Serif" font-size="10.00">SimulateurFerroviaire</text>
<text text-anchor="start" x="965.5" y="-381" font-family="Helvetica,sans-Serif" font-size="10.00">/Modules/GeoParser/Topology</text>
<text text-anchor="middle" x="1037.5" y="-370" font-family="Helvetica,sans-Serif" font-size="10.00">Extractor.h</text>
</a>
</g>
</g>
<!-- Node1&#45;&gt;Node16 -->
<g id="edge22_Node000001_Node000016" class="edge">
<title>Node1&#45;&gt;Node16</title>
<g id="a_edge22_Node000001_Node000016"><a xlink:title=" ">
<path fill="none" stroke="#63b8ff" d="M1071.46,-431.67C1064.86,-422.5 1057.66,-412.5 1051.59,-404.07"/>
<polygon fill="#63b8ff" stroke="#63b8ff" points="1068.63,-433.72 1077.31,-439.79 1074.31,-429.63 1068.63,-433.72"/>
</a>
</g>
</g>
<!-- Node18 -->
<g id="Node000018" class="node">
<title>Node18</title>
<g id="a_Node000018"><a xlink:href="../../d0/d02/SwitchBlock_8cpp.html" target="_top" xlink:title="Implémentation du modèle d&#39;aiguillage SwitchBlock.">
<polygon fill="white" stroke="#666666" points="1403,-404 1212,-404 1212,-363 1403,-363 1403,-404"/>
<text text-anchor="start" x="1220" y="-392" font-family="Helvetica,sans-Serif" font-size="10.00">SimulateurFerroviaire</text>
<text text-anchor="start" x="1220" y="-381" font-family="Helvetica,sans-Serif" font-size="10.00">/Modules/InteractiveElements</text>
<text text-anchor="middle" x="1307.5" y="-370" font-family="Helvetica,sans-Serif" font-size="10.00">/ShuntingElements/SwitchBlock.cpp</text>
</a>
</g>
</g>
<!-- Node1&#45;&gt;Node18 -->
<g id="edge26_Node000001_Node000018" class="edge">
<title>Node1&#45;&gt;Node18</title>
<g id="a_edge26_Node000001_Node000018"><a xlink:title=" ">
<path fill="none" stroke="#63b8ff" d="M1157.24,-436.67C1187.25,-426.25 1222.44,-414.03 1251.22,-404.04"/>
<polygon fill="#63b8ff" stroke="#63b8ff" points="1155.99,-433.4 1147.69,-439.99 1158.28,-440.02 1155.99,-433.4"/>
</a>
</g>
</g>
<!-- Node19 -->
<g id="Node000019" class="node">
<title>Node19</title>
<g id="a_Node000019"><a xlink:href="../../d8/d00/PCCGraph_8h.html" target="_top" xlink:title="Conteneur propriétaire du graphe PCC.">
<polygon fill="white" stroke="#666666" points="1484.5,-321.5 1340.5,-321.5 1340.5,-291.5 1484.5,-291.5 1484.5,-321.5"/>
<text text-anchor="start" x="1348.5" y="-309.5" font-family="Helvetica,sans-Serif" font-size="10.00">SimulateurFerroviaire</text>
<text text-anchor="middle" x="1412.5" y="-298.5" font-family="Helvetica,sans-Serif" font-size="10.00">/Modules/PCC/PCCGraph.h</text>
</a>
</g>
</g>
<!-- Node1&#45;&gt;Node19 -->
<g id="edge27_Node000001_Node000019" class="edge">
<title>Node1&#45;&gt;Node19</title>
<g id="a_edge27_Node000001_Node000019"><a xlink:title=" ">
<path fill="none" stroke="#63b8ff" d="M1129.01,-434C1141.37,-425.02 1154.9,-414.52 1166.5,-404 1184.68,-387.51 1182.55,-375.79 1203.5,-363 1210.18,-358.92 1296.83,-336.61 1356.44,-321.55"/>
<polygon fill="#63b8ff" stroke="#63b8ff" points="1126.78,-431.29 1120.68,-439.96 1130.85,-436.98 1126.78,-431.29"/>
</a>
</g>
</g>
<!-- Node31 -->
<g id="Node000031" class="node">
<title>Node31</title>
<g id="a_Node000031"><a xlink:href="../../dc/d01/PCCSwitchNode_8h.html" target="_top" xlink:title="Nœud PCC représentant un SwitchBlock.">
<polygon fill="white" stroke="#666666" points="1706,-398.5 1533,-398.5 1533,-368.5 1706,-368.5 1706,-398.5"/>
<text text-anchor="start" x="1541" y="-386.5" font-family="Helvetica,sans-Serif" font-size="10.00">SimulateurFerroviaire</text>
<text text-anchor="middle" x="1619.5" y="-375.5" font-family="Helvetica,sans-Serif" font-size="10.00">/Modules/PCC/PCCSwitchNode.h</text>
</a>
</g>
</g>
<!-- Node1&#45;&gt;Node31 -->
<g id="edge45_Node000001_Node000031" class="edge">
<title>Node1&#45;&gt;Node31</title>
<g id="a_edge45_Node000001_Node000031"><a xlink:title=" ">
<path fill="none" stroke="#63b8ff" d="M1191.03,-445.36C1289.51,-431.37 1438.73,-410.18 1532.57,-396.85"/>
<polygon fill="#63b8ff" stroke="#63b8ff" points="1190.48,-441.91 1181.07,-446.78 1191.46,-448.84 1190.48,-441.91"/>
</a>
</g>
</g>
<!-- Node3 -->
<g id="Node000003" class="node">
<title>Node3</title>
<g id="a_Node000003"><a xlink:href="../../de/d00/TopologyRepository_8h.html" target="_top" xlink:title="Singleton de stockage des données topologiques ferroviaires.">
<polygon fill="white" stroke="#666666" points="272,-327 147,-327 147,-286 272,-286 272,-327"/>
<text text-anchor="start" x="155" y="-315" font-family="Helvetica,sans-Serif" font-size="10.00">SimulateurFerroviaire</text>
<text text-anchor="start" x="155" y="-304" font-family="Helvetica,sans-Serif" font-size="10.00">/Engine/Core/Topology</text>
<text text-anchor="middle" x="209.5" y="-293" font-family="Helvetica,sans-Serif" font-size="10.00">/TopologyRepository.h</text>
</a>
</g>
</g>
<!-- Node2&#45;&gt;Node3 -->
<g id="edge2_Node000002_Node000003" class="edge">
<title>Node2&#45;&gt;Node3</title>
<g id="a_edge2_Node000002_Node000003"><a xlink:title=" ">
<path fill="none" stroke="#63b8ff" d="M209.5,-352.69C209.5,-344.08 209.5,-334.9 209.5,-327.07"/>
<polygon fill="#63b8ff" stroke="#63b8ff" points="206,-352.79 209.5,-362.79 213,-352.79 206,-352.79"/>
</a>
</g>
</g>
<!-- Node7 -->
<g id="Node000007" class="node">
<title>Node7</title>
<g id="a_Node000007"><a xlink:href="../../d0/d01/PCCGraphBuilder_8cpp.html" target="_top" xlink:title="Implémentation du constructeur du graphe PCC.">
<polygon fill="white" stroke="#666666" points="189,-167.5 0,-167.5 0,-137.5 189,-137.5 189,-167.5"/>
<text text-anchor="start" x="8" y="-155.5" font-family="Helvetica,sans-Serif" font-size="10.00">SimulateurFerroviaire</text>
<text text-anchor="middle" x="94.5" y="-144.5" font-family="Helvetica,sans-Serif" font-size="10.00">/Modules/PCC/PCCGraphBuilder.cpp</text>
</a>
</g>
</g>
<!-- Node2&#45;&gt;Node7 -->
<g id="edge7_Node000002_Node000007" class="edge">
<title>Node2&#45;&gt;Node7</title>
<g id="a_edge7_Node000002_Node000007"><a xlink:title=" ">
<path fill="none" stroke="#63b8ff" d="M166.56,-356.86C155.69,-348.56 145,-338.48 137.5,-327 103.73,-275.29 96.48,-199.13 94.92,-167.78"/>
<polygon fill="#63b8ff" stroke="#63b8ff" points="164.7,-359.84 174.85,-362.86 168.8,-354.17 164.7,-359.84"/>
</a>
</g>
</g>
<!-- Node4 -->
<g id="Node000004" class="node">
<title>Node4</title>
<g id="a_Node000004"><a xlink:href="../../de/d02/TopologyRenderer_8cpp.html" target="_top" xlink:title="Implémentation de l&#39;exporteur GeoJSON.">
<polygon fill="white" stroke="#666666" points="365,-250 238,-250 238,-209 365,-209 365,-250"/>
<text text-anchor="start" x="246" y="-238" font-family="Helvetica,sans-Serif" font-size="10.00">SimulateurFerroviaire</text>
<text text-anchor="start" x="246" y="-227" font-family="Helvetica,sans-Serif" font-size="10.00">/Engine/Core/Topology</text>
<text text-anchor="middle" x="301.5" y="-216" font-family="Helvetica,sans-Serif" font-size="10.00">/TopologyRenderer.cpp</text>
</a>
</g>
</g>
<!-- Node3&#45;&gt;Node4 -->
<g id="edge3_Node000003_Node000004" class="edge">
<title>Node3&#45;&gt;Node4</title>
<g id="a_edge3_Node000003_Node000004"><a xlink:title=" ">
<path fill="none" stroke="#63b8ff" d="M241.58,-279.35C253.38,-269.73 266.52,-259.01 277.49,-250.07"/>
<polygon fill="#63b8ff" stroke="#63b8ff" points="239.21,-276.76 233.67,-285.79 243.63,-282.19 239.21,-276.76"/>
</a>
</g>
</g>
<!-- Node5 -->
<g id="Node000005" class="node">
<title>Node5</title>
<g id="a_Node000005"><a xlink:href="../../d3/d03/MainWindow_8cpp.html" target="_top" xlink:title="Implémentation de la fenêtre principale.">
<polygon fill="white" stroke="#666666" points="474,-96 313,-96 313,-66 474,-66 474,-96"/>
<text text-anchor="start" x="321" y="-84" font-family="Helvetica,sans-Serif" font-size="10.00">SimulateurFerroviaire</text>
<text text-anchor="middle" x="393.5" y="-73" font-family="Helvetica,sans-Serif" font-size="10.00">/Engine/HMI/MainWindow.cpp</text>
</a>
</g>
</g>
<!-- Node3&#45;&gt;Node5 -->
<g id="edge4_Node000003_Node000005" class="edge">
<title>Node3&#45;&gt;Node5</title>
<g id="a_edge4_Node000003_Node000005"><a xlink:title=" ">
<path fill="none" stroke="#63b8ff" d="M209.97,-275.73C211.53,-255.57 216.08,-229.06 228.5,-209 261.72,-155.38 326.32,-115.85 364.08,-96.11"/>
<polygon fill="#63b8ff" stroke="#63b8ff" points="206.47,-275.73 209.4,-285.91 213.46,-276.13 206.47,-275.73"/>
</a>
</g>
</g>
<!-- Node6 -->
<g id="Node000006" class="node">
<title>Node6</title>
<g id="a_Node000006"><a xlink:href="../../d7/d03/GeoParser_8cpp.html" target="_top" xlink:title="Implémentation du pipeline GeoParser.">
<polygon fill="white" stroke="#666666" points="606,-244.5 421,-244.5 421,-214.5 606,-214.5 606,-244.5"/>
<text text-anchor="start" x="429" y="-232.5" font-family="Helvetica,sans-Serif" font-size="10.00">SimulateurFerroviaire</text>
<text text-anchor="middle" x="513.5" y="-221.5" font-family="Helvetica,sans-Serif" font-size="10.00">/Modules/GeoParser/GeoParser.cpp</text>
</a>
</g>
</g>
<!-- Node3&#45;&gt;Node6 -->
<g id="edge5_Node000003_Node000006" class="edge">
<title>Node3&#45;&gt;Node6</title>
<g id="a_edge5_Node000003_Node000006"><a xlink:title=" ">
<path fill="none" stroke="#63b8ff" d="M281.9,-285.67C344.95,-269.61 407.27,-254.9 452.04,-244.54"/>
<polygon fill="#63b8ff" stroke="#63b8ff" points="281.01,-282.29 272.19,-288.16 282.74,-289.07 281.01,-282.29"/>
</a>
</g>
</g>
<!-- Node3&#45;&gt;Node7 -->
<g id="edge6_Node000003_Node000007" class="edge">
<title>Node3&#45;&gt;Node7</title>
<g id="a_edge6_Node000003_Node000007"><a xlink:title=" ">
<path fill="none" stroke="#63b8ff" d="M188.49,-277.73C163.88,-245.2 124.07,-192.58 105.14,-167.57"/>
<polygon fill="#63b8ff" stroke="#63b8ff" points="185.88,-280.08 194.7,-285.94 191.46,-275.85 185.88,-280.08"/>
</a>
</g>
</g>
<!-- Node8&#45;&gt;Node4 -->
<g id="edge9_Node000008_Node000004" class="edge">
<title>Node8&#45;&gt;Node4</title>
<g id="a_edge9_Node000008_Node000004"><a xlink:title=" ">
<path fill="none" stroke="#63b8ff" d="M333.39,-277.39C327.2,-268.3 320.48,-258.41 314.81,-250.07"/>
<polygon fill="#63b8ff" stroke="#63b8ff" points="330.58,-279.49 339.1,-285.79 336.37,-275.56 330.58,-279.49"/>
</a>
</g>
</g>
<!-- Node8&#45;&gt;Node5 -->
<g id="edge10_Node000008_Node000005" class="edge">
<title>Node8&#45;&gt;Node5</title>
<g id="a_edge10_Node000008_Node000005"><a xlink:title=" ">
<path fill="none" stroke="#63b8ff" d="M365.01,-276.45C368.21,-268.05 371.35,-258.77 373.5,-250 387.19,-194.08 391.64,-125.31 392.98,-96.14"/>
<polygon fill="#63b8ff" stroke="#63b8ff" points="361.72,-275.25 361.28,-285.83 368.23,-277.83 361.72,-275.25"/>
</a>
</g>
</g>
<!-- Node8&#45;&gt;Node6 -->
<g id="edge11_Node000008_Node000006" class="edge">
<title>Node8&#45;&gt;Node6</title>
<g id="a_edge11_Node000008_Node000006"><a xlink:title=" ">
<path fill="none" stroke="#63b8ff" d="M403.79,-281.61C429.97,-269.41 460.93,-254.99 483.27,-244.58"/>
<polygon fill="#63b8ff" stroke="#63b8ff" points="401.97,-278.6 394.38,-285.99 404.92,-284.94 401.97,-278.6"/>
</a>
</g>
</g>
<!-- Node10&#45;&gt;Node6 -->
<g id="edge15_Node000010_Node000006" class="edge">
<title>Node10&#45;&gt;Node6</title>
<g id="a_edge15_Node000010_Node000006"><a xlink:title=" ">
<path fill="none" stroke="#63b8ff" d="M494.97,-357.92C482.02,-350.07 470.16,-339.94 462.5,-327 453.22,-311.32 455.88,-302.98 462.5,-286 468.96,-269.42 482.95,-254.79 494.65,-244.72"/>
<polygon fill="#63b8ff" stroke="#63b8ff" points="493.62,-361.18 504.06,-362.99 497.03,-355.06 493.62,-361.18"/>
</a>
</g>
</g>
<!-- Node11 -->
<g id="Node000011" class="node">
<title>Node11</title>
<g id="a_Node000011"><a xlink:href="../../dd/d02/DoubleSwitchDetector_8cpp.html" target="_top" xlink:title="Implémentation phases 7 et 8 — doubles aiguilles et validation CDC.">
<polygon fill="white" stroke="#666666" points="655,-327 472,-327 472,-286 655,-286 655,-327"/>
<text text-anchor="start" x="480" y="-315" font-family="Helvetica,sans-Serif" font-size="10.00">SimulateurFerroviaire</text>
<text text-anchor="start" x="480" y="-304" font-family="Helvetica,sans-Serif" font-size="10.00">/Modules/GeoParser/DoubleSwitch</text>
<text text-anchor="middle" x="563.5" y="-293" font-family="Helvetica,sans-Serif" font-size="10.00">Detector.cpp</text>
</a>
</g>
</g>
<!-- Node10&#45;&gt;Node11 -->
<g id="edge14_Node000010_Node000011" class="edge">
<title>Node10&#45;&gt;Node11</title>
<g id="a_edge14_Node000010_Node000011"><a xlink:title=" ">
<path fill="none" stroke="#63b8ff" d="M563.5,-352.69C563.5,-344.08 563.5,-334.9 563.5,-327.07"/>
<polygon fill="#63b8ff" stroke="#63b8ff" points="560,-352.79 563.5,-362.79 567,-352.79 560,-352.79"/>
</a>
</g>
</g>
<!-- Node12&#45;&gt;Node6 -->
<g id="edge17_Node000012_Node000006" class="edge">
<title>Node12&#45;&gt;Node6</title>
<g id="a_edge17_Node000012_Node000006"><a xlink:title=" ">
<path fill="none" stroke="#63b8ff" d="M860.69,-358.71C866.47,-337.13 870.49,-305.76 853.5,-286 818.62,-245.45 668.22,-259.02 615.5,-250 605.64,-248.31 595.26,-246.44 585.05,-244.54"/>
<polygon fill="#63b8ff" stroke="#63b8ff" points="857.3,-357.84 857.8,-368.43 864.01,-359.84 857.3,-357.84"/>
</a>
</g>
</g>
<!-- Node13 -->
<g id="Node000013" class="node">
<title>Node13</title>
<g id="a_Node000013"><a xlink:href="../../dd/d01/GeoParsingTask_8cpp.html" target="_top" xlink:title="Implémentation de la tâche de parsing GeoJSON asynchrone.">
<polygon fill="white" stroke="#666666" points="844,-327 673,-327 673,-286 844,-286 844,-327"/>
<text text-anchor="start" x="681" y="-315" font-family="Helvetica,sans-Serif" font-size="10.00">SimulateurFerroviaire</text>
<text text-anchor="start" x="681" y="-304" font-family="Helvetica,sans-Serif" font-size="10.00">/Modules/GeoParser/GeoParsing</text>
<text text-anchor="middle" x="758.5" y="-293" font-family="Helvetica,sans-Serif" font-size="10.00">Task.cpp</text>
</a>
</g>
</g>
<!-- Node12&#45;&gt;Node13 -->
<g id="edge18_Node000012_Node000013" class="edge">
<title>Node12&#45;&gt;Node13</title>
<g id="a_edge18_Node000012_Node000013"><a xlink:title=" ">
<path fill="none" stroke="#63b8ff" d="M826.81,-362C813.22,-351.16 796.63,-337.92 783.2,-327.2"/>
<polygon fill="#63b8ff" stroke="#63b8ff" points="824.82,-364.89 834.82,-368.39 829.19,-359.42 824.82,-364.89"/>
</a>
</g>
</g>
<!-- Node14&#45;&gt;Node6 -->
<g id="edge20_Node000014_Node000006" class="edge">
<title>Node14&#45;&gt;Node6</title>
<g id="a_edge20_Node000014_Node000006"><a xlink:title=" ">
<path fill="none" stroke="#63b8ff" d="M1134.95,-289.86C1125.71,-288.43 1116.42,-287.1 1107.5,-286 889.9,-259.16 832.87,-278.63 615.5,-250 604.24,-248.52 592.34,-246.58 580.81,-244.51"/>
<polygon fill="#63b8ff" stroke="#63b8ff" points="1134.52,-293.34 1144.95,-291.46 1135.63,-286.42 1134.52,-293.34"/>
</a>
</g>
</g>
<!-- Node15 -->
<g id="Node000015" class="node">
<title>Node15</title>
<g id="a_Node000015"><a xlink:href="../../d0/d03/SwitchOrientator_8cpp.html" target="_top" xlink:title="Implémentation des phases 6, 6b, 6c et 6d — orientation des aiguillages.">
<polygon fill="white" stroke="#666666" points="842.5,-244.5 624.5,-244.5 624.5,-214.5 842.5,-214.5 842.5,-244.5"/>
<text text-anchor="start" x="632.5" y="-232.5" font-family="Helvetica,sans-Serif" font-size="10.00">SimulateurFerroviaire</text>
<text text-anchor="middle" x="733.5" y="-221.5" font-family="Helvetica,sans-Serif" font-size="10.00">/Modules/GeoParser/SwitchOrientator.cpp</text>
</a>
</g>
</g>
<!-- Node14&#45;&gt;Node15 -->
<g id="edge21_Node000014_Node000015" class="edge">
<title>Node14&#45;&gt;Node15</title>
<g id="a_edge21_Node000014_Node000015"><a xlink:title=" ">
<path fill="none" stroke="#63b8ff" d="M1130.91,-289.8C1123,-288.48 1115.11,-287.2 1107.5,-286 994,-268.14 965.08,-267.37 851.5,-250 840.31,-248.29 828.54,-246.42 816.94,-244.55"/>
<polygon fill="#63b8ff" stroke="#63b8ff" points="1130.48,-293.28 1140.92,-291.48 1131.64,-286.37 1130.48,-293.28"/>
</a>
</g>
</g>
<!-- Node16&#45;&gt;Node6 -->
<g id="edge23_Node000016_Node000006" class="edge">
<title>Node16&#45;&gt;Node6</title>
<g id="a_edge23_Node000016_Node000006"><a xlink:title=" ">
<path fill="none" stroke="#63b8ff" d="M986.56,-358.39C968.22,-349.18 947.6,-338.18 929.5,-327 903.26,-310.79 902.08,-297.59 873.5,-286 766.21,-242.49 729.73,-268.88 615.5,-250 605.45,-248.34 594.87,-246.46 584.48,-244.54"/>
<polygon fill="#63b8ff" stroke="#63b8ff" points="985.12,-361.58 995.63,-362.9 988.24,-355.32 985.12,-361.58"/>
</a>
</g>
</g>
<!-- Node16&#45;&gt;Node14 -->
<g id="edge24_Node000016_Node000014" class="edge">
<title>Node16&#45;&gt;Node14</title>
<g id="a_edge24_Node000016_Node000014"><a xlink:title=" ">
<path fill="none" stroke="#63b8ff" d="M1094.31,-359.09C1124.15,-346.79 1159.74,-332.13 1185.33,-321.58"/>
<polygon fill="#63b8ff" stroke="#63b8ff" points="1092.76,-355.94 1084.84,-362.99 1095.42,-362.42 1092.76,-355.94"/>
</a>
</g>
</g>
<!-- Node17 -->
<g id="Node000017" class="node">
<title>Node17</title>
<g id="a_Node000017"><a xlink:href="../../d9/d02/TopologyExtractor_8cpp.html" target="_top" xlink:title="Implémentation des phases 3, 4, 5a et 5b du pipeline GeoParser.">
<polygon fill="white" stroke="#666666" points="1098.5,-327 938.5,-327 938.5,-286 1098.5,-286 1098.5,-327"/>
<text text-anchor="start" x="946.5" y="-315" font-family="Helvetica,sans-Serif" font-size="10.00">SimulateurFerroviaire</text>
<text text-anchor="start" x="946.5" y="-304" font-family="Helvetica,sans-Serif" font-size="10.00">/Modules/GeoParser/Topology</text>
<text text-anchor="middle" x="1018.5" y="-293" font-family="Helvetica,sans-Serif" font-size="10.00">Extractor.cpp</text>
</a>
</g>
</g>
<!-- Node16&#45;&gt;Node17 -->
<g id="edge25_Node000016_Node000017" class="edge">
<title>Node16&#45;&gt;Node17</title>
<g id="a_edge25_Node000016_Node000017"><a xlink:title=" ">
<path fill="none" stroke="#63b8ff" d="M1030.02,-352.98C1027.82,-344.28 1025.46,-334.98 1023.46,-327.07"/>
<polygon fill="#63b8ff" stroke="#63b8ff" points="1026.66,-353.96 1032.51,-362.79 1033.44,-352.24 1026.66,-353.96"/>
</a>
</g>
</g>
<!-- Node20 -->
<g id="Node000020" class="node">
<title>Node20</title>
<g id="a_Node000020"><a xlink:href="../../d5/d00/PCCPanel_8h.html" target="_top" xlink:title="Panneau PCC superposé togglable, affiché par&#45;dessus la carte Leaflet.">
<polygon fill="white" stroke="#666666" points="1354.5,-250 1230.5,-250 1230.5,-209 1354.5,-209 1354.5,-250"/>
<text text-anchor="start" x="1238.5" y="-238" font-family="Helvetica,sans-Serif" font-size="10.00">SimulateurFerroviaire</text>
<text text-anchor="start" x="1238.5" y="-227" font-family="Helvetica,sans-Serif" font-size="10.00">/Engine/HMI/PCCPanel</text>
<text text-anchor="middle" x="1292.5" y="-216" font-family="Helvetica,sans-Serif" font-size="10.00">/PCCPanel.h</text>
</a>
</g>
</g>
<!-- Node19&#45;&gt;Node20 -->
<g id="edge28_Node000019_Node000020" class="edge">
<title>Node19&#45;&gt;Node20</title>
<g id="a_edge28_Node000019_Node000020"><a xlink:title=" ">
<path fill="none" stroke="#63b8ff" d="M1381.16,-285.91C1363.56,-274.91 1341.66,-261.22 1324.03,-250.2"/>
<polygon fill="#63b8ff" stroke="#63b8ff" points="1379.59,-289.06 1389.93,-291.39 1383.3,-283.13 1379.59,-289.06"/>
</a>
</g>
</g>
<!-- Node26 -->
<g id="Node000026" class="node">
<title>Node26</title>
<g id="a_Node000026"><a xlink:href="../../d8/d02/TCORenderer_8h.html" target="_top" xlink:title="Renderer GDI du schéma TCO — style SNCF, blocs fixes.">
<polygon fill="white" stroke="#666666" points="1662.5,-250 1538.5,-250 1538.5,-209 1662.5,-209 1662.5,-250"/>
<text text-anchor="start" x="1546.5" y="-238" font-family="Helvetica,sans-Serif" font-size="10.00">SimulateurFerroviaire</text>
<text text-anchor="start" x="1546.5" y="-227" font-family="Helvetica,sans-Serif" font-size="10.00">/Engine/HMI/PCCPanel</text>
<text text-anchor="middle" x="1600.5" y="-216" font-family="Helvetica,sans-Serif" font-size="10.00">/TCORenderer.h</text>
</a>
</g>
</g>
<!-- Node19&#45;&gt;Node26 -->
<g id="edge35_Node000019_Node000026" class="edge">
<title>Node19&#45;&gt;Node26</title>
<g id="a_edge35_Node000019_Node000026"><a xlink:title=" ">
<path fill="none" stroke="#63b8ff" d="M1457.51,-287.54C1485.84,-276.24 1522.4,-261.66 1551.46,-250.06"/>
<polygon fill="#63b8ff" stroke="#63b8ff" points="1455.85,-284.44 1447.86,-291.39 1458.45,-290.94 1455.85,-284.44"/>
</a>
</g>
</g>
<!-- Node27 -->
<g id="Node000027" class="node">
<title>Node27</title>
<g id="a_Node000027"><a xlink:href="../../d9/d00/PCCGraph_8cpp.html" target="_top" xlink:title="Implémentation du conteneur propriétaire du graphe PCC.">
<polygon fill="white" stroke="#666666" points="1212,-244.5 1057,-244.5 1057,-214.5 1212,-214.5 1212,-244.5"/>
<text text-anchor="start" x="1065" y="-232.5" font-family="Helvetica,sans-Serif" font-size="10.00">SimulateurFerroviaire</text>
<text text-anchor="middle" x="1134.5" y="-221.5" font-family="Helvetica,sans-Serif" font-size="10.00">/Modules/PCC/PCCGraph.cpp</text>
</a>
</g>
</g>
<!-- Node19&#45;&gt;Node27 -->
<g id="edge38_Node000019_Node000027" class="edge">
<title>Node19&#45;&gt;Node27</title>
<g id="a_edge38_Node000019_Node000027"><a xlink:title=" ">
<path fill="none" stroke="#63b8ff" d="M1350.64,-288.81C1301.38,-275.52 1233.21,-257.13 1186.68,-244.58"/>
<polygon fill="#63b8ff" stroke="#63b8ff" points="1349.97,-292.26 1360.54,-291.48 1351.79,-285.5 1349.97,-292.26"/>
</a>
</g>
</g>
<!-- Node28 -->
<g id="Node000028" class="node">
<title>Node28</title>
<g id="a_Node000028"><a xlink:href="../../db/d02/PCCGraphBuilder_8h.html" target="_top" xlink:title="Constructeur du graphe PCC depuis TopologyRepository.">
<polygon fill="white" stroke="#666666" points="1038.5,-244.5 860.5,-244.5 860.5,-214.5 1038.5,-214.5 1038.5,-244.5"/>
<text text-anchor="start" x="868.5" y="-232.5" font-family="Helvetica,sans-Serif" font-size="10.00">SimulateurFerroviaire</text>
<text text-anchor="middle" x="949.5" y="-221.5" font-family="Helvetica,sans-Serif" font-size="10.00">/Modules/PCC/PCCGraphBuilder.h</text>
</a>
</g>
</g>
<!-- Node19&#45;&gt;Node28 -->
<g id="edge39_Node000019_Node000028" class="edge">
<title>Node19&#45;&gt;Node28</title>
<g id="a_edge39_Node000019_Node000028"><a xlink:title=" ">
<path fill="none" stroke="#63b8ff" d="M1347.86,-289.27C1342.35,-288.09 1336.84,-286.98 1331.5,-286 1206.79,-263.13 1173.66,-270.26 1048.5,-250 1038.47,-248.38 1027.9,-246.49 1017.56,-244.54"/>
<polygon fill="#63b8ff" stroke="#63b8ff" points="1347.25,-292.72 1357.77,-291.46 1348.77,-285.89 1347.25,-292.72"/>
</a>
</g>
</g>
<!-- Node29 -->
<g id="Node000029" class="node">
<title>Node29</title>
<g id="a_Node000029"><a xlink:href="../../d6/d01/PCCLayout_8h.html" target="_top" xlink:title="Calcul des positions logiques X/Y du graphe PCC par parcours BFS.">
<polygon fill="white" stroke="#666666" points="1520.5,-244.5 1372.5,-244.5 1372.5,-214.5 1520.5,-214.5 1520.5,-244.5"/>
<text text-anchor="start" x="1380.5" y="-232.5" font-family="Helvetica,sans-Serif" font-size="10.00">SimulateurFerroviaire</text>
<text text-anchor="middle" x="1446.5" y="-221.5" font-family="Helvetica,sans-Serif" font-size="10.00">/Modules/PCC/PCCLayout.h</text>
</a>
</g>
</g>
<!-- Node19&#45;&gt;Node29 -->
<g id="edge42_Node000019_Node000029" class="edge">
<title>Node19&#45;&gt;Node29</title>
<g id="a_edge42_Node000019_Node000029"><a xlink:title=" ">
<path fill="none" stroke="#63b8ff" d="M1423.09,-282.15C1428.67,-269.82 1435.34,-255.11 1440.13,-244.54"/>
<polygon fill="#63b8ff" stroke="#63b8ff" points="1419.84,-280.84 1418.9,-291.39 1426.21,-283.73 1419.84,-280.84"/>
</a>
</g>
</g>
<!-- Node21 -->
<g id="Node000021" class="node">
<title>Node21</title>
<g id="a_Node000021"><a xlink:href="../../da/d00/MainWindow_8h.html" target="_top" xlink:title="Déclaration de la fenêtre principale de l&#39;application.">
<polygon fill="white" stroke="#666666" points="926,-167.5 777,-167.5 777,-137.5 926,-137.5 926,-167.5"/>
<text text-anchor="start" x="785" y="-155.5" font-family="Helvetica,sans-Serif" font-size="10.00">SimulateurFerroviaire</text>
<text text-anchor="middle" x="851.5" y="-144.5" font-family="Helvetica,sans-Serif" font-size="10.00">/Engine/HMI/MainWindow.h</text>
</a>
</g>
</g>
<!-- Node20&#45;&gt;Node21 -->
<g id="edge29_Node000020_Node000021" class="edge">
<title>Node20&#45;&gt;Node21</title>
<g id="a_edge29_Node000020_Node000021"><a xlink:title=" ">
<path fill="none" stroke="#63b8ff" d="M1220.23,-208.85C1112.82,-186.55 998.81,-170.96 926.03,-162.03"/>
<polygon fill="#63b8ff" stroke="#63b8ff" points="1219.76,-212.33 1230.26,-210.96 1221.2,-205.48 1219.76,-212.33"/>
</a>
</g>
</g>
<!-- Node25 -->
<g id="Node000025" class="node">
<title>Node25</title>
<g id="a_Node000025"><a xlink:href="../../d4/d03/PCCPanel_8cpp.html" target="_top" xlink:title="Implémentation du panneau PCC superposé togglable.">
<polygon fill="white" stroke="#666666" points="1413.5,-173 1289.5,-173 1289.5,-132 1413.5,-132 1413.5,-173"/>
<text text-anchor="start" x="1297.5" y="-161" font-family="Helvetica,sans-Serif" font-size="10.00">SimulateurFerroviaire</text>
<text text-anchor="start" x="1297.5" y="-150" font-family="Helvetica,sans-Serif" font-size="10.00">/Engine/HMI/PCCPanel</text>
<text text-anchor="middle" x="1351.5" y="-139" font-family="Helvetica,sans-Serif" font-size="10.00">/PCCPanel.cpp</text>
</a>
</g>
</g>
<!-- Node20&#45;&gt;Node25 -->
<g id="edge34_Node000020_Node000025" class="edge">
<title>Node20&#45;&gt;Node25</title>
<g id="a_edge34_Node000020_Node000025"><a xlink:title=" ">
<path fill="none" stroke="#63b8ff" d="M1314.39,-200.67C1321.61,-191.5 1329.48,-181.5 1336.1,-173.07"/>
<polygon fill="#63b8ff" stroke="#63b8ff" points="1311.43,-198.77 1308,-208.79 1316.94,-203.1 1311.43,-198.77"/>
</a>
</g>
</g>
<!-- Node21&#45;&gt;Node5 -->
<g id="edge33_Node000021_Node000005" class="edge">
<title>Node21&#45;&gt;Node5</title>
<g id="a_edge33_Node000021_Node000005"><a xlink:title=" ">
<path fill="none" stroke="#63b8ff" d="M766.93,-138.67C683.36,-125.99 556.45,-106.73 474.24,-94.25"/>
<polygon fill="#63b8ff" stroke="#63b8ff" points="766.48,-142.14 776.9,-140.18 767.53,-135.22 766.48,-142.14"/>
</a>
</g>
</g>
<!-- Node22 -->
<g id="Node000022" class="node">
<title>Node22</title>
<g id="a_Node000022"><a xlink:href="../../d4/d00/Application_8h.html" target="_top" xlink:title="Gestion du cycle de vie de l&#39;application Win32.">
<polygon fill="white" stroke="#666666" points="924,-96 779,-96 779,-66 924,-66 924,-96"/>
<text text-anchor="start" x="787" y="-84" font-family="Helvetica,sans-Serif" font-size="10.00">SimulateurFerroviaire</text>
<text text-anchor="middle" x="851.5" y="-73" font-family="Helvetica,sans-Serif" font-size="10.00">/Engine/Core/Application.h</text>
</a>
</g>
</g>
<!-- Node21&#45;&gt;Node22 -->
<g id="edge30_Node000021_Node000022" class="edge">
<title>Node21&#45;&gt;Node22</title>
<g id="a_edge30_Node000021_Node000022"><a xlink:title=" ">
<path fill="none" stroke="#63b8ff" d="M851.5,-127.25C851.5,-116.81 851.5,-104.99 851.5,-96.04"/>
<polygon fill="#63b8ff" stroke="#63b8ff" points="848,-127.44 851.5,-137.44 855,-127.44 848,-127.44"/>
</a>
</g>
</g>
<!-- Node23 -->
<g id="Node000023" class="node">
<title>Node23</title>
<g id="a_Node000023"><a xlink:href="../../d2/d02/Application_8cpp.html" target="_top" xlink:title="Implémentation du cycle de vie de l&#39;application Win32.">
<polygon fill="white" stroke="#666666" points="844.5,-30 688.5,-30 688.5,0 844.5,0 844.5,-30"/>
<text text-anchor="start" x="696.5" y="-18" font-family="Helvetica,sans-Serif" font-size="10.00">SimulateurFerroviaire</text>
<text text-anchor="middle" x="766.5" y="-7" font-family="Helvetica,sans-Serif" font-size="10.00">/Engine/Core/Application.cpp</text>
</a>
</g>
</g>
<!-- Node22&#45;&gt;Node23 -->
<g id="edge31_Node000022_Node000023" class="edge">
<title>Node22&#45;&gt;Node23</title>
<g id="a_edge31_Node000022_Node000023"><a xlink:title=" ">
<path fill="none" stroke="#63b8ff" d="M824.61,-59.75C811.83,-50.13 796.86,-38.86 785.31,-30.16"/>
<polygon fill="#63b8ff" stroke="#63b8ff" points="822.54,-62.58 832.64,-65.8 826.75,-56.99 822.54,-62.58"/>
</a>
</g>
</g>
<!-- Node24 -->
<g id="Node000024" class="node">
<title>Node24</title>
<g id="a_Node000024"><a xlink:href="../../db/d00/SimulateurFerroviaire_8cpp.html" target="_top" xlink:title="Point d&#39;entrée unique de l&#39;application Win32.">
<polygon fill="white" stroke="#666666" points="1008.5,-30 862.5,-30 862.5,0 1008.5,0 1008.5,-30"/>
<text text-anchor="start" x="870.5" y="-18" font-family="Helvetica,sans-Serif" font-size="10.00">SimulateurFerroviaire</text>
<text text-anchor="middle" x="935.5" y="-7" font-family="Helvetica,sans-Serif" font-size="10.00">/SimulateurFerroviaire.cpp</text>
</a>
</g>
</g>
<!-- Node22&#45;&gt;Node24 -->
<g id="edge32_Node000022_Node000024" class="edge">
<title>Node22&#45;&gt;Node24</title>
<g id="a_edge32_Node000022_Node000024"><a xlink:title=" ">
<path fill="none" stroke="#63b8ff" d="M878.44,-59.48C890.99,-49.91 905.61,-38.77 916.91,-30.16"/>
<polygon fill="#63b8ff" stroke="#63b8ff" points="875.98,-56.95 870.14,-65.8 880.22,-62.52 875.98,-56.95"/>
</a>
</g>
</g>
<!-- Node26&#45;&gt;Node9 -->
<g id="edge37_Node000026_Node000009" class="edge">
<title>Node26&#45;&gt;Node9</title>
<g id="a_edge37_Node000026_Node000009"><a xlink:title=" ">
<path fill="none" stroke="#63b8ff" d="M1672.43,-209.1C1716.95,-197.08 1773.55,-181.81 1816.17,-170.32"/>
<polygon fill="#63b8ff" stroke="#63b8ff" points="1671.29,-205.78 1662.54,-211.76 1673.11,-212.54 1671.29,-205.78"/>
</a>
</g>
</g>
<!-- Node26&#45;&gt;Node25 -->
<g id="edge36_Node000026_Node000025" class="edge">
<title>Node26&#45;&gt;Node25</title>
<g id="a_edge36_Node000026_Node000025"><a xlink:title=" ">
<path fill="none" stroke="#63b8ff" d="M1528.29,-206.75C1492.03,-195.83 1448.53,-182.73 1413.76,-172.25"/>
<polygon fill="#63b8ff" stroke="#63b8ff" points="1527.72,-210.23 1538.31,-209.77 1529.74,-203.53 1527.72,-210.23"/>
</a>
</g>
</g>
<!-- Node28&#45;&gt;Node7 -->
<g id="edge41_Node000028_Node000007" class="edge">
<title>Node28&#45;&gt;Node7</title>
<g id="a_edge41_Node000028_Node000007"><a xlink:title=" ">
<path fill="none" stroke="#63b8ff" d="M874.91,-212.67C867.03,-211.29 859.11,-210.03 851.5,-209 614.33,-176.83 332.66,-162.37 189,-156.69"/>
<polygon fill="#63b8ff" stroke="#63b8ff" points="874.39,-216.13 884.85,-214.47 875.63,-209.24 874.39,-216.13"/>
</a>
</g>
</g>
<!-- Node28&#45;&gt;Node25 -->
<g id="edge40_Node000028_Node000025" class="edge">
<title>Node28&#45;&gt;Node25</title>
<g id="a_edge40_Node000028_Node000025"><a xlink:title=" ">
<path fill="none" stroke="#63b8ff" d="M1029.93,-212.56C1036.21,-211.35 1042.46,-210.15 1048.5,-209 1131.77,-193.17 1228.08,-175.67 1289.36,-164.63"/>
<polygon fill="#63b8ff" stroke="#63b8ff" points="1029.2,-209.14 1020.05,-214.48 1030.54,-216.01 1029.2,-209.14"/>
</a>
</g>
</g>
<!-- Node29&#45;&gt;Node25 -->
<g id="edge43_Node000029_Node000025" class="edge">
<title>Node29&#45;&gt;Node25</title>
<g id="a_edge43_Node000029_Node000025"><a xlink:title=" ">
<path fill="none" stroke="#63b8ff" d="M1420.53,-208C1406.8,-197.16 1390.03,-183.92 1376.46,-173.2"/>
<polygon fill="#63b8ff" stroke="#63b8ff" points="1418.61,-210.94 1428.63,-214.39 1422.95,-205.45 1418.61,-210.94"/>
</a>
</g>
</g>
<!-- Node30 -->
<g id="Node000030" class="node">
<title>Node30</title>
<g id="a_Node000030"><a xlink:href="../../d3/d02/PCCLayout_8cpp.html" target="_top" xlink:title="Implémentation du calculateur de positions logiques PCC.">
<polygon fill="white" stroke="#666666" points="1651,-167.5 1492,-167.5 1492,-137.5 1651,-137.5 1651,-167.5"/>
<text text-anchor="start" x="1500" y="-155.5" font-family="Helvetica,sans-Serif" font-size="10.00">SimulateurFerroviaire</text>
<text text-anchor="middle" x="1571.5" y="-144.5" font-family="Helvetica,sans-Serif" font-size="10.00">/Modules/PCC/PCCLayout.cpp</text>
</a>
</g>
</g>
<!-- Node29&#45;&gt;Node30 -->
<g id="edge44_Node000029_Node000030" class="edge">
<title>Node29&#45;&gt;Node30</title>
<g id="a_edge44_Node000029_Node000030"><a xlink:title=" ">
<path fill="none" stroke="#63b8ff" d="M1478.87,-209.08C1500.54,-196.08 1528.57,-179.26 1548.09,-167.54"/>
<polygon fill="#63b8ff" stroke="#63b8ff" points="1476.79,-206.25 1470.01,-214.39 1480.39,-212.25 1476.79,-206.25"/>
</a>
</g>
</g>
<!-- Node31&#45;&gt;Node9 -->
<g id="edge46_Node000031_Node000009" class="edge">
<title>Node31&#45;&gt;Node9</title>
<g id="a_edge46_Node000031_Node000009"><a xlink:title=" ">
<path fill="none" stroke="#63b8ff" d="M1715.98,-371.61C1774,-362.97 1840.24,-348.69 1859.5,-327 1897.94,-283.73 1889.59,-208.45 1882.88,-173.01"/>
<polygon fill="#63b8ff" stroke="#63b8ff" points="1715.4,-368.16 1706,-373.06 1716.4,-375.09 1715.4,-368.16"/>
</a>
</g>
</g>
<!-- Node31&#45;&gt;Node19 -->
<g id="edge48_Node000031_Node000019" class="edge">
<title>Node31&#45;&gt;Node19</title>
<g id="a_edge48_Node000031_Node000019"><a xlink:title=" ">
<path fill="none" stroke="#63b8ff" d="M1571.11,-364.97C1534.6,-351.74 1485.18,-333.83 1451.26,-321.54"/>
<polygon fill="#63b8ff" stroke="#63b8ff" points="1569.97,-368.28 1580.56,-368.39 1572.36,-361.7 1569.97,-368.28"/>
</a>
</g>
</g>
<!-- Node31&#45;&gt;Node26 -->
<g id="edge47_Node000031_Node000026" class="edge">
<title>Node31&#45;&gt;Node26</title>
<g id="a_edge47_Node000031_Node000026"><a xlink:title=" ">
<path fill="none" stroke="#63b8ff" d="M1616.49,-358.46C1612.75,-328.51 1606.43,-277.93 1602.96,-250.18"/>
<polygon fill="#63b8ff" stroke="#63b8ff" points="1613.03,-358.98 1617.75,-368.47 1619.98,-358.12 1613.03,-358.98"/>
</a>
</g>
</g>
<!-- Node31&#45;&gt;Node30 -->
<g id="edge49_Node000031_Node000030" class="edge">
<title>Node31&#45;&gt;Node30</title>
<g id="a_edge49_Node000031_Node000030"><a xlink:title=" ">
<path fill="none" stroke="#63b8ff" d="M1628.89,-358.64C1643.84,-320.68 1671.37,-250.71 1671.5,-250 1674.89,-232.1 1680.74,-224.7 1671.5,-209 1659.92,-189.32 1638.56,-176.12 1618.55,-167.55"/>
<polygon fill="#63b8ff" stroke="#63b8ff" points="1625.45,-357.83 1625.05,-368.42 1631.97,-360.39 1625.45,-357.83"/>
</a>
</g>
</g>
<!-- Node32 -->
<g id="Node000032" class="node">
<title>Node32</title>
<g id="a_Node000032"><a xlink:href="../../d7/d00/PCCSwitchNode_8cpp.html" target="_top" xlink:title="Implémentation du nœud PCC pour aiguillage.">
<polygon fill="white" stroke="#666666" points="1850.5,-321.5 1666.5,-321.5 1666.5,-291.5 1850.5,-291.5 1850.5,-321.5"/>
<text text-anchor="start" x="1674.5" y="-309.5" font-family="Helvetica,sans-Serif" font-size="10.00">SimulateurFerroviaire</text>
<text text-anchor="middle" x="1758.5" y="-298.5" font-family="Helvetica,sans-Serif" font-size="10.00">/Modules/PCC/PCCSwitchNode.cpp</text>
</a>
</g>
</g>
<!-- Node31&#45;&gt;Node32 -->
<g id="edge50_Node000031_Node000032" class="edge">
<title>Node31&#45;&gt;Node32</title>
<g id="a_edge50_Node000031_Node000032"><a xlink:title=" ">
<path fill="none" stroke="#63b8ff" d="M1654.53,-363.6C1678.76,-350.53 1710.47,-333.41 1732.47,-321.54"/>
<polygon fill="#63b8ff" stroke="#63b8ff" points="1652.78,-360.56 1645.64,-368.39 1656.11,-366.72 1652.78,-360.56"/>
</a>
</g>
</g>
</g>
</svg>
