<?xml version="1.0" encoding="UTF-8" standalone="no"?>
<!DOCTYPE svg PUBLIC "-//W3C//DTD SVG 1.1//EN"
 "http://www.w3.org/Graphics/SVG/1.1/DTD/svg11.dtd">
<!-- Generated by graphviz version 2.43.0 (0)
 -->
<!-- Title: SimulateurFerroviaire/Engine/Core/Topology/TopologyData.h Pages: 1 -->
<svg width="710pt" height="203pt"
 viewBox="0.00 0.00 710.00 203.00" xmlns="http://www.w3.org/2000/svg" xmlns:xlink="http://www.w3.org/1999/xlink">
<g id="graph0" class="graph" transform="scale(1 1) rotate(0) translate(4 199)">
<title>SimulateurFerroviaire/Engine/Core/Topology/TopologyData.h</title>
<!-- Node1 -->
<g id="Node000001" class="node">
<title>Node1</title>
<g id="a_Node000001"><a xlink:title="Conteneur central des données topologiques ferroviaires.">
<polygon fill="#999999" stroke="#666666" points="512,-195 387,-195 387,-154 512,-154 512,-195"/>
<text text-anchor="start" x="395" y="-183" font-family="Helvetica,sans-Serif" font-size="10.00">SimulateurFerroviaire</text>
<text text-anchor="start" x="395" y="-172" font-family="Helvetica,sans-Serif" font-size="10.00">/Engine/Core/Topology</text>
<text text-anchor="middle" x="449.5" y="-161" font-family="Helvetica,sans-Serif" font-size="10.00">/TopologyData.h</text>
</a>
</g>
</g>
<!-- Node2 -->
<g id="Node000002" class="node">
<title>Node2</title>
<g id="a_Node000002"><a xlink:href="../../de/d00/TopologyRepository_8h.html" target="_top" xlink:title="Singleton de stockage des données topologiques ferroviaires.">
<polygon fill="white" stroke="#666666" points="421,-118 296,-118 296,-77 421,-77 421,-118"/>
<text text-anchor="start" x="304" y="-106" font-family="Helvetica,sans-Serif" font-size="10.00">SimulateurFerroviaire</text>
<text text-anchor="start" x="304" y="-95" font-family="Helvetica,sans-Serif" font-size="10.00">/Engine/Core/Topology</text>
<text text-anchor="middle" x="358.5" y="-84" font-family="Helvetica,sans-Serif" font-size="10.00">/TopologyRepository.h</text>
</a>
</g>
</g>
<!-- Node1&#45;&gt;Node2 -->
<g id="edge1_Node000001_Node000002" class="edge">
<title>Node1&#45;&gt;Node2</title>
<g id="a_edge1_Node000001_Node000002"><a xlink:title=" ">
<path fill="none" stroke="#63b8ff" d="M417.77,-147.35C406.1,-137.73 393.1,-127.01 382.25,-118.07"/>
<polygon fill="#63b8ff" stroke="#63b8ff" points="415.65,-150.14 425.59,-153.79 420.1,-144.73 415.65,-150.14"/>
</a>
</g>
</g>
<!-- Node5 -->
<g id="Node000005" class="node">
<title>Node5</title>
<g id="a_Node000005"><a xlink:href="../../da/d02/Phase8__RepositoryTransfer_8cpp.html" target="_top" xlink:title="Implémentation de la phase 9 — résolution + transfert.">
<polygon fill="white" stroke="#666666" points="495,-41 324,-41 324,0 495,0 495,-41"/>
<text text-anchor="start" x="332" y="-29" font-family="Helvetica,sans-Serif" font-size="10.00">SimulateurFerroviaire</text>
<text text-anchor="start" x="332" y="-18" font-family="Helvetica,sans-Serif" font-size="10.00">/Modules/GeoParser/Pipeline</text>
<text text-anchor="middle" x="409.5" y="-7" font-family="Helvetica,sans-Serif" font-size="10.00">/Phase8_RepositoryTransfer.cpp</text>
</a>
</g>
</g>
<!-- Node1&#45;&gt;Node5 -->
<g id="edge6_Node000001_Node000005" class="edge">
<title>Node1&#45;&gt;Node5</title>
<g id="a_edge6_Node000001_Node000005"><a xlink:title=" ">
<path fill="none" stroke="#63b8ff" d="M444.46,-143.74C440.93,-124.53 435.74,-99.09 429.5,-77 426.08,-64.88 421.33,-51.59 417.31,-41.06"/>
<polygon fill="#63b8ff" stroke="#63b8ff" points="441.04,-144.49 446.24,-153.71 447.93,-143.25 441.04,-144.49"/>
</a>
</g>
</g>
<!-- Node6 -->
<g id="Node000006" class="node">
<title>Node6</title>
<g id="a_Node000006"><a xlink:href="../../d0/d01/PCCGraphBuilder_8cpp.html" target="_top" xlink:title="Implémentation du constructeur du graphe PCC.">
<polygon fill="white" stroke="#666666" points="702,-35.5 513,-35.5 513,-5.5 702,-5.5 702,-35.5"/>
<text text-anchor="start" x="521" y="-23.5" font-family="Helvetica,sans-Serif" font-size="10.00">SimulateurFerroviaire</text>
<text text-anchor="middle" x="607.5" y="-12.5" font-family="Helvetica,sans-Serif" font-size="10.00">/Modules/PCC/PCCGraphBuilder.cpp</text>
</a>
</g>
</g>
<!-- Node1&#45;&gt;Node6 -->
<g id="edge7_Node000001_Node000006" class="edge">
<title>Node1&#45;&gt;Node6</title>
<g id="a_edge7_Node000001_Node000006"><a xlink:title=" ">
<path fill="none" stroke="#63b8ff" d="M477.08,-146.97C510.78,-114.55 566.55,-60.9 592.88,-35.57"/>
<polygon fill="#63b8ff" stroke="#63b8ff" points="474.61,-144.48 469.83,-153.94 479.47,-149.53 474.61,-144.48"/>
</a>
</g>
</g>
<!-- Node3 -->
<g id="Node000003" class="node">
<title>Node3</title>
<g id="a_Node000003"><a xlink:href="../../de/d02/TopologyRenderer_8cpp.html" target="_top" xlink:title="Implémentation de l&#39;exporteur GeoJSON et du générateur de scripts JS.">
<polygon fill="white" stroke="#666666" points="127,-41 0,-41 0,0 127,0 127,-41"/>
<text text-anchor="start" x="8" y="-29" font-family="Helvetica,sans-Serif" font-size="10.00">SimulateurFerroviaire</text>
<text text-anchor="start" x="8" y="-18" font-family="Helvetica,sans-Serif" font-size="10.00">/Engine/Core/Topology</text>
<text text-anchor="middle" x="63.5" y="-7" font-family="Helvetica,sans-Serif" font-size="10.00">/TopologyRenderer.cpp</text>
</a>
</g>
</g>
<!-- Node2&#45;&gt;Node3 -->
<g id="edge2_Node000002_Node000003" class="edge">
<title>Node2&#45;&gt;Node3</title>
<g id="a_edge2_Node000002_Node000003"><a xlink:title=" ">
<path fill="none" stroke="#63b8ff" d="M285.98,-78.85C242.32,-68.13 185.65,-54.03 135.5,-41 132.74,-40.28 129.93,-39.55 127.08,-38.8"/>
<polygon fill="#63b8ff" stroke="#63b8ff" points="285.39,-82.31 295.93,-81.29 287.05,-75.51 285.39,-82.31"/>
</a>
</g>
</g>
<!-- Node4 -->
<g id="Node000004" class="node">
<title>Node4</title>
<g id="a_Node000004"><a xlink:href="../../d3/d03/MainWindow_8cpp.html" target="_top" xlink:title="Implémentation de la fenêtre principale.">
<polygon fill="white" stroke="#666666" points="306,-35.5 145,-35.5 145,-5.5 306,-5.5 306,-35.5"/>
<text text-anchor="start" x="153" y="-23.5" font-family="Helvetica,sans-Serif" font-size="10.00">SimulateurFerroviaire</text>
<text text-anchor="middle" x="225.5" y="-12.5" font-family="Helvetica,sans-Serif" font-size="10.00">/Engine/HMI/MainWindow.cpp</text>
</a>
</g>
</g>
<!-- Node2&#45;&gt;Node4 -->
<g id="edge3_Node000002_Node000004" class="edge">
<title>Node2&#45;&gt;Node4</title>
<g id="a_edge3_Node000002_Node000004"><a xlink:title=" ">
<path fill="none" stroke="#63b8ff" d="M315.02,-71.98C293.71,-59.97 268.81,-45.92 250.68,-35.7"/>
<polygon fill="#63b8ff" stroke="#63b8ff" points="313.47,-75.13 323.9,-76.99 316.91,-69.03 313.47,-75.13"/>
</a>
</g>
</g>
<!-- Node2&#45;&gt;Node5 -->
<g id="edge4_Node000002_Node000005" class="edge">
<title>Node2&#45;&gt;Node5</title>
<g id="a_edge4_Node000002_Node000005"><a xlink:title=" ">
<path fill="none" stroke="#63b8ff" d="M377.61,-68.39C383.8,-59.3 390.52,-49.41 396.19,-41.07"/>
<polygon fill="#63b8ff" stroke="#63b8ff" points="374.63,-66.56 371.9,-76.79 380.42,-70.49 374.63,-66.56"/>
</a>
</g>
</g>
<!-- Node2&#45;&gt;Node6 -->
<g id="edge5_Node000002_Node000006" class="edge">
<title>Node2&#45;&gt;Node6</title>
<g id="a_edge5_Node000002_Node000006"><a xlink:title=" ">
<path fill="none" stroke="#63b8ff" d="M430.61,-74.78C472.5,-62.16 524.06,-46.63 560.68,-35.6"/>
<polygon fill="#63b8ff" stroke="#63b8ff" points="429.58,-71.44 421.01,-77.67 431.6,-78.14 429.58,-71.44"/>
</a>
</g>
</g>
</g>
</svg>
