<?xml version="1.0" encoding="UTF-8" standalone="no"?>
<!DOCTYPE svg PUBLIC "-//W3C//DTD SVG 1.1//EN"
 "http://www.w3.org/Graphics/SVG/1.1/DTD/svg11.dtd">
<!-- Generated by graphviz version 2.43.0 (0)
 -->
<!-- Title: SimulateurFerroviaire/Engine/HMI/Dialogs/FileOpenDialog.h Pages: 1 -->
<svg width="348pt" height="126pt"
 viewBox="0.00 0.00 348.00 126.00" xmlns="http://www.w3.org/2000/svg" xmlns:xlink="http://www.w3.org/1999/xlink">
<g id="graph0" class="graph" transform="scale(1 1) rotate(0) translate(4 122)">
<title>SimulateurFerroviaire/Engine/HMI/Dialogs/FileOpenDialog.h</title>
<!-- Node1 -->
<g id="Node000001" class="node">
<title>Node1</title>
<g id="a_Node000001"><a xlink:title="Déclaration du sélecteur de fichier GeoJSON.">
<polygon fill="#999999" stroke="#666666" points="250,-118 89,-118 89,-77 250,-77 250,-118"/>
<text text-anchor="start" x="97" y="-106" font-family="Helvetica,sans-Serif" font-size="10.00">SimulateurFerroviaire</text>
<text text-anchor="start" x="97" y="-95" font-family="Helvetica,sans-Serif" font-size="10.00">/Engine/HMI/Dialogs/FileOpen</text>
<text text-anchor="middle" x="169.5" y="-84" font-family="Helvetica,sans-Serif" font-size="10.00">Dialog.h</text>
</a>
</g>
</g>
<!-- Node2 -->
<g id="Node000002" class="node">
<title>Node2</title>
<g id="a_Node000002"><a xlink:href="../../dd/d02/FileOpenDialog_8cpp.html" target="_top" xlink:title="Implémentation du sélecteur de fichier GeoJSON natif Win32.">
<polygon fill="white" stroke="#666666" points="161,-41 0,-41 0,0 161,0 161,-41"/>
<text text-anchor="start" x="8" y="-29" font-family="Helvetica,sans-Serif" font-size="10.00">SimulateurFerroviaire</text>
<text text-anchor="start" x="8" y="-18" font-family="Helvetica,sans-Serif" font-size="10.00">/Engine/HMI/Dialogs/FileOpen</text>
<text text-anchor="middle" x="80.5" y="-7" font-family="Helvetica,sans-Serif" font-size="10.00">Dialog.cpp</text>
</a>
</g>
</g>
<!-- Node1&#45;&gt;Node2 -->
<g id="edge1_Node000001_Node000002" class="edge">
<title>Node1&#45;&gt;Node2</title>
<g id="a_edge1_Node000001_Node000002"><a xlink:title=" ">
<path fill="none" stroke="#63b8ff" d="M138.47,-70.35C127.05,-60.73 114.34,-50.01 103.73,-41.07"/>
<polygon fill="#63b8ff" stroke="#63b8ff" points="136.21,-73.03 146.12,-76.79 140.72,-67.67 136.21,-73.03"/>
</a>
</g>
</g>
<!-- Node3 -->
<g id="Node000003" class="node">
<title>Node3</title>
<g id="a_Node000003"><a xlink:href="../../d3/d03/MainWindow_8cpp.html" target="_top" xlink:title="Implémentation de la fenêtre principale.">
<polygon fill="white" stroke="#666666" points="340,-35.5 179,-35.5 179,-5.5 340,-5.5 340,-35.5"/>
<text text-anchor="start" x="187" y="-23.5" font-family="Helvetica,sans-Serif" font-size="10.00">SimulateurFerroviaire</text>
<text text-anchor="middle" x="259.5" y="-12.5" font-family="Helvetica,sans-Serif" font-size="10.00">/Engine/HMI/MainWindow.cpp</text>
</a>
</g>
</g>
<!-- Node1&#45;&gt;Node3 -->
<g id="edge2_Node000001_Node000003" class="edge">
<title>Node1&#45;&gt;Node3</title>
<g id="a_edge2_Node000001_Node000003"><a xlink:title=" ">
<path fill="none" stroke="#63b8ff" d="M201.1,-70.17C215.05,-58.55 230.89,-45.34 242.55,-35.63"/>
<polygon fill="#63b8ff" stroke="#63b8ff" points="198.59,-67.7 193.15,-76.79 203.07,-73.08 198.59,-67.7"/>
</a>
</g>
</g>
</g>
</svg>
