<?xml version="1.0" encoding="UTF-8" standalone="no"?>
<!DOCTYPE svg PUBLIC "-//W3C//DTD SVG 1.1//EN"
 "http://www.w3.org/Graphics/SVG/1.1/DTD/svg11.dtd">
<!-- Generated by graphviz version 2.43.0 (0)
 -->
<!-- Title: SimulateurFerroviaire/Engine/Core/Config/ParserConfigIni.h Pages: 1 -->
<svg width="184pt" height="104pt"
 viewBox="0.00 0.00 184.00 104.00" xmlns="http://www.w3.org/2000/svg" xmlns:xlink="http://www.w3.org/1999/xlink">
<g id="graph0" class="graph" transform="scale(1 1) rotate(0) translate(4 100)">
<title>SimulateurFerroviaire/Engine/Core/Config/ParserConfigIni.h</title>
<!-- Node1 -->
<g id="Node000001" class="node">
<title>Node1</title>
<g id="a_Node000001"><a xlink:title="Persistence de ParserConfig via fichier .ini (SimpleIni).">
<polygon fill="#999999" stroke="#666666" points="176,-96 0,-96 0,-55 176,-55 176,-96"/>
<text text-anchor="start" x="8" y="-84" font-family="Helvetica,sans-Serif" font-size="10.00">SimulateurFerroviaire</text>
<text text-anchor="start" x="8" y="-73" font-family="Helvetica,sans-Serif" font-size="10.00">/Engine/Core/Config/ParserConfig</text>
<text text-anchor="middle" x="88" y="-62" font-family="Helvetica,sans-Serif" font-size="10.00">Ini.h</text>
</a>
</g>
</g>
<!-- Node2 -->
<g id="Node000002" class="node">
<title>Node2</title>
<g id="a_Node000002"><a xlink:href="../../d9/d01/ParserConfig_8h.html" target="_top" xlink:title="Paramètres de configuration du pipeline GeoParser.">
<polygon fill="white" stroke="#666666" points="90,-19 4,-19 4,0 90,0 90,-19"/>
<text text-anchor="middle" x="47" y="-7" font-family="Helvetica,sans-Serif" font-size="10.00">ParserConfig.h</text>
</a>
</g>
</g>
<!-- Node1&#45;&gt;Node2 -->
<g id="edge1_Node000001_Node000002" class="edge">
<title>Node1&#45;&gt;Node2</title>
<g id="a_edge1_Node000001_Node000002"><a xlink:title=" ">
<path fill="none" stroke="#63b8ff" d="M75.48,-54.95C69.93,-46.3 63.47,-36.2 58.1,-27.82"/>
<polygon fill="#63b8ff" stroke="#63b8ff" points="60.95,-25.79 52.61,-19.26 55.06,-29.57 60.95,-25.79"/>
</a>
</g>
</g>
<!-- Node3 -->
<g id="Node000003" class="node">
<title>Node3</title>
<g id="a_Node000003"><a xlink:title=" ">
<polygon fill="#e0e0e0" stroke="#999999" points="152,-19 108,-19 108,0 152,0 152,-19"/>
<text text-anchor="middle" x="130" y="-7" font-family="Helvetica,sans-Serif" font-size="10.00">string</text>
</a>
</g>
</g>
<!-- Node1&#45;&gt;Node3 -->
<g id="edge2_Node000001_Node000003" class="edge">
<title>Node1&#45;&gt;Node3</title>
<g id="a_edge2_Node000001_Node000003"><a xlink:title=" ">
<path fill="none" stroke="#63b8ff" d="M100.83,-54.95C106.51,-46.3 113.13,-36.2 118.63,-27.82"/>
<polygon fill="#63b8ff" stroke="#63b8ff" points="121.69,-29.54 124.25,-19.26 115.84,-25.7 121.69,-29.54"/>
</a>
</g>
</g>
</g>
</svg>
