<?xml version="1.0" encoding="UTF-8" standalone="no"?>
<!DOCTYPE svg PUBLIC "-//W3C//DTD SVG 1.1//EN"
 "http://www.w3.org/Graphics/SVG/1.1/DTD/svg11.dtd">
<!-- Generated by graphviz version 2.43.0 (0)
 -->
<!-- Title: SimulateurFerroviaire/Modules/GeoParser/GeoParsingTask.cpp Pages: 1 -->
<svg width="1699pt" height="434pt"
 viewBox="0.00 0.00 1699.00 434.00" xmlns="http://www.w3.org/2000/svg" xmlns:xlink="http://www.w3.org/1999/xlink">
<g id="graph0" class="graph" transform="scale(1 1) rotate(0) translate(4 430)">
<title>SimulateurFerroviaire/Modules/GeoParser/GeoParsingTask.cpp</title>
<!-- Node1 -->
<g id="Node000001" class="node">
<title>Node1</title>
<g id="a_Node000001"><a xlink:title="Implémentation de la tâche de parsing GeoJSON asynchrone.">
<polygon fill="#999999" stroke="#666666" points="1445.5,-426 1274.5,-426 1274.5,-385 1445.5,-385 1445.5,-426"/>
<text text-anchor="start" x="1282.5" y="-414" font-family="Helvetica,sans-Serif" font-size="10.00">SimulateurFerroviaire</text>
<text text-anchor="start" x="1282.5" y="-403" font-family="Helvetica,sans-Serif" font-size="10.00">/Modules/GeoParser/GeoParsing</text>
<text text-anchor="middle" x="1360" y="-392" font-family="Helvetica,sans-Serif" font-size="10.00">Task.cpp</text>
</a>
</g>
</g>
<!-- Node2 -->
<g id="Node000002" class="node">
<title>Node2</title>
<g id="a_Node000002"><a xlink:href="../../d6/d01/framework_8h.html" target="_top" xlink:title=" ">
<polygon fill="white" stroke="#666666" points="421.5,-277.5 342.5,-277.5 342.5,-258.5 421.5,-258.5 421.5,-277.5"/>
<text text-anchor="middle" x="382" y="-265.5" font-family="Helvetica,sans-Serif" font-size="10.00">framework.h</text>
</a>
</g>
</g>
<!-- Node1&#45;&gt;Node2 -->
<g id="edge1_Node000001_Node000002" class="edge">
<title>Node1&#45;&gt;Node2</title>
<g id="a_edge1_Node000001_Node000002"><a xlink:title=" ">
<path fill="none" stroke="#63b8ff" d="M1274.39,-404.46C1137.27,-402.95 860.5,-393.95 631,-349 550.05,-333.14 458.6,-299.5 412.31,-281.31"/>
<polygon fill="#63b8ff" stroke="#63b8ff" points="413.46,-278 402.88,-277.56 410.88,-284.5 413.46,-278"/>
</a>
</g>
</g>
<!-- Node13 -->
<g id="Node000013" class="node">
<title>Node13</title>
<g id="a_Node000013"><a xlink:href="../../d0/d00/GeoParsingTask_8h.html" target="_top" xlink:title="Déclaration de la tâche de parsing GeoJSON asynchrone.">
<polygon fill="white" stroke="#666666" points="742,-343.5 640,-343.5 640,-324.5 742,-324.5 742,-343.5"/>
<text text-anchor="middle" x="691" y="-331.5" font-family="Helvetica,sans-Serif" font-size="10.00">GeoParsingTask.h</text>
</a>
</g>
</g>
<!-- Node1&#45;&gt;Node13 -->
<g id="edge12_Node000001_Node000013" class="edge">
<title>Node1&#45;&gt;Node13</title>
<g id="a_edge12_Node000001_Node000013"><a xlink:title=" ">
<path fill="none" stroke="#63b8ff" d="M1274.25,-395.59C1137.21,-381.36 872.12,-353.82 752.37,-341.38"/>
<polygon fill="#63b8ff" stroke="#63b8ff" points="752.58,-337.88 742.27,-340.33 751.86,-344.84 752.58,-337.88"/>
</a>
</g>
</g>
<!-- Node14 -->
<g id="Node000014" class="node">
<title>Node14</title>
<g id="a_Node000014"><a xlink:href="../../de/d02/GeoParser_8h.html" target="_top" xlink:title="Orchestrateur principal du pipeline GeoJSON ferroviaire.">
<polygon fill="white" stroke="#666666" points="1242.5,-343.5 1071.5,-343.5 1071.5,-324.5 1242.5,-324.5 1242.5,-343.5"/>
<text text-anchor="middle" x="1157" y="-331.5" font-family="Helvetica,sans-Serif" font-size="10.00">Modules/GeoParser/GeoParser.h</text>
</a>
</g>
</g>
<!-- Node1&#45;&gt;Node14 -->
<g id="edge15_Node000001_Node000014" class="edge">
<title>Node1&#45;&gt;Node14</title>
<g id="a_edge15_Node000001_Node000014"><a xlink:title=" ">
<path fill="none" stroke="#63b8ff" d="M1302.91,-384.96C1267.09,-372.69 1222.07,-357.28 1191.59,-346.84"/>
<polygon fill="#63b8ff" stroke="#63b8ff" points="1192.43,-343.43 1181.84,-343.5 1190.17,-350.05 1192.43,-343.43"/>
</a>
</g>
</g>
<!-- Node20 -->
<g id="Node000020" class="node">
<title>Node20</title>
<g id="a_Node000020"><a xlink:href="../../dd/d00/Logger_8h.html" target="_top" xlink:title="Système de journalisation à 5 niveaux de trace, un fichier par moteur.">
<polygon fill="white" stroke="#666666" points="1512.5,-85 1401.5,-85 1401.5,-55 1512.5,-55 1512.5,-85"/>
<text text-anchor="start" x="1409.5" y="-73" font-family="Helvetica,sans-Serif" font-size="10.00">Engine/Core/Logger</text>
<text text-anchor="middle" x="1457" y="-62" font-family="Helvetica,sans-Serif" font-size="10.00">/Logger.h</text>
</a>
</g>
</g>
<!-- Node1&#45;&gt;Node20 -->
<g id="edge45_Node000001_Node000020" class="edge">
<title>Node1&#45;&gt;Node20</title>
<g id="a_edge45_Node000001_Node000020"><a xlink:title=" ">
<path fill="none" stroke="#63b8ff" d="M1445.56,-402.2C1491.8,-396.72 1547.05,-382.76 1585,-349 1613.37,-323.76 1615,-306.97 1615,-269 1615,-269 1615,-269 1615,-201 1615,-144.84 1554.73,-108.46 1508.64,-88.85"/>
<polygon fill="#63b8ff" stroke="#63b8ff" points="1509.92,-85.59 1499.34,-85.04 1507.26,-92.07 1509.92,-85.59"/>
</a>
</g>
</g>
<!-- Node30 -->
<g id="Node000030" class="node">
<title>Node30</title>
<g id="a_Node000030"><a xlink:href="../../d0/d01/GeoParserException_8h.html" target="_top" xlink:title="Hiérarchie d&#39;exceptions du pipeline GeoJSON ferroviaire.">
<polygon fill="white" stroke="#666666" points="1576.5,-349 1409.5,-349 1409.5,-319 1576.5,-319 1576.5,-349"/>
<text text-anchor="start" x="1417.5" y="-337" font-family="Helvetica,sans-Serif" font-size="10.00">Modules/GeoParser/Exceptions</text>
<text text-anchor="middle" x="1493" y="-326" font-family="Helvetica,sans-Serif" font-size="10.00">/GeoParserException.h</text>
</a>
</g>
</g>
<!-- Node1&#45;&gt;Node30 -->
<g id="edge42_Node000001_Node000030" class="edge">
<title>Node1&#45;&gt;Node30</title>
<g id="a_edge42_Node000001_Node000030"><a xlink:title=" ">
<path fill="none" stroke="#63b8ff" d="M1397.4,-384.96C1416.07,-375.2 1438.55,-363.46 1457.01,-353.81"/>
<polygon fill="#63b8ff" stroke="#63b8ff" points="1458.75,-356.85 1465.99,-349.11 1455.51,-350.64 1458.75,-356.85"/>
</a>
</g>
</g>
<!-- Node32 -->
<g id="Node000032" class="node">
<title>Node32</title>
<g id="a_Node000032"><a xlink:title=" ">
<polygon fill="#e0e0e0" stroke="#999999" points="1691,-343.5 1643,-343.5 1643,-324.5 1691,-324.5 1691,-343.5"/>
<text text-anchor="middle" x="1667" y="-331.5" font-family="Helvetica,sans-Serif" font-size="10.00">thread</text>
</a>
</g>
</g>
<!-- Node1&#45;&gt;Node32 -->
<g id="edge46_Node000001_Node000032" class="edge">
<title>Node1&#45;&gt;Node32</title>
<g id="a_edge46_Node000001_Node000032"><a xlink:title=" ">
<path fill="none" stroke="#63b8ff" d="M1445.6,-390.22C1498.85,-380.5 1568.48,-366.29 1629,-349 1631.28,-348.35 1633.62,-347.63 1635.97,-346.86"/>
<polygon fill="#63b8ff" stroke="#63b8ff" points="1637.18,-350.14 1645.48,-343.56 1634.89,-343.53 1637.18,-350.14"/>
</a>
</g>
</g>
<!-- Node3 -->
<g id="Node000003" class="node">
<title>Node3</title>
<g id="a_Node000003"><a xlink:href="../../d9/d02/targetver_8h.html" target="_top" xlink:title=" ">
<polygon fill="white" stroke="#666666" points="663,-211.5 593,-211.5 593,-192.5 663,-192.5 663,-211.5"/>
<text text-anchor="middle" x="628" y="-199.5" font-family="Helvetica,sans-Serif" font-size="10.00">targetver.h</text>
</a>
</g>
</g>
<!-- Node2&#45;&gt;Node3 -->
<g id="edge2_Node000002_Node000003" class="edge">
<title>Node2&#45;&gt;Node3</title>
<g id="a_edge2_Node000002_Node000003"><a xlink:title=" ">
<path fill="none" stroke="#63b8ff" d="M419.8,-258.42C460.53,-249 527.16,-233.06 584,-217 586.75,-216.22 589.58,-215.39 592.43,-214.54"/>
<polygon fill="#63b8ff" stroke="#63b8ff" points="593.5,-217.87 602.03,-211.57 591.44,-211.18 593.5,-217.87"/>
</a>
</g>
</g>
<!-- Node5 -->
<g id="Node000005" class="node">
<title>Node5</title>
<g id="a_Node000005"><a xlink:title=" ">
<polygon fill="#e0e0e0" stroke="#999999" points="68,-211.5 0,-211.5 0,-192.5 68,-192.5 68,-211.5"/>
<text text-anchor="middle" x="34" y="-199.5" font-family="Helvetica,sans-Serif" font-size="10.00">windows.h</text>
</a>
</g>
</g>
<!-- Node2&#45;&gt;Node5 -->
<g id="edge4_Node000002_Node000005" class="edge">
<title>Node2&#45;&gt;Node5</title>
<g id="a_edge4_Node000002_Node000005"><a xlink:title=" ">
<path fill="none" stroke="#63b8ff" d="M342.13,-262.43C283.51,-255.27 170.85,-239.83 77,-217 73.97,-216.26 70.85,-215.42 67.73,-214.52"/>
<polygon fill="#63b8ff" stroke="#63b8ff" points="68.51,-211.09 57.92,-211.5 66.45,-217.78 68.51,-211.09"/>
</a>
</g>
</g>
<!-- Node6 -->
<g id="Node000006" class="node">
<title>Node6</title>
<g id="a_Node000006"><a xlink:title=" ">
<polygon fill="#e0e0e0" stroke="#999999" points="139.5,-211.5 86.5,-211.5 86.5,-192.5 139.5,-192.5 139.5,-211.5"/>
<text text-anchor="middle" x="113" y="-199.5" font-family="Helvetica,sans-Serif" font-size="10.00">stdlib.h</text>
</a>
</g>
</g>
<!-- Node2&#45;&gt;Node6 -->
<g id="edge5_Node000002_Node000006" class="edge">
<title>Node2&#45;&gt;Node6</title>
<g id="a_edge5_Node000002_Node000006"><a xlink:title=" ">
<path fill="none" stroke="#63b8ff" d="M342.12,-259.68C296.35,-250.94 219.18,-235.21 154,-217 151.53,-216.31 148.99,-215.55 146.44,-214.76"/>
<polygon fill="#63b8ff" stroke="#63b8ff" points="147.3,-211.36 136.71,-211.6 145.14,-218.02 147.3,-211.36"/>
</a>
</g>
</g>
<!-- Node7 -->
<g id="Node000007" class="node">
<title>Node7</title>
<g id="a_Node000007"><a xlink:title=" ">
<polygon fill="#e0e0e0" stroke="#999999" points="255.5,-211.5 196.5,-211.5 196.5,-192.5 255.5,-192.5 255.5,-211.5"/>
<text text-anchor="middle" x="226" y="-199.5" font-family="Helvetica,sans-Serif" font-size="10.00">malloc.h</text>
</a>
</g>
</g>
<!-- Node2&#45;&gt;Node7 -->
<g id="edge6_Node000002_Node000007" class="edge">
<title>Node2&#45;&gt;Node7</title>
<g id="a_edge6_Node000002_Node000007"><a xlink:title=" ">
<path fill="none" stroke="#63b8ff" d="M360.96,-258.37C334.02,-247.32 287.14,-228.08 256.34,-215.45"/>
<polygon fill="#63b8ff" stroke="#63b8ff" points="257.53,-212.15 246.95,-211.6 254.88,-218.63 257.53,-212.15"/>
</a>
</g>
</g>
<!-- Node8 -->
<g id="Node000008" class="node">
<title>Node8</title>
<g id="a_Node000008"><a xlink:title=" ">
<polygon fill="#e0e0e0" stroke="#999999" points="338.5,-211.5 273.5,-211.5 273.5,-192.5 338.5,-192.5 338.5,-211.5"/>
<text text-anchor="middle" x="306" y="-199.5" font-family="Helvetica,sans-Serif" font-size="10.00">memory.h</text>
</a>
</g>
</g>
<!-- Node2&#45;&gt;Node8 -->
<g id="edge7_Node000002_Node000008" class="edge">
<title>Node2&#45;&gt;Node8</title>
<g id="a_edge7_Node000002_Node000008"><a xlink:title=" ">
<path fill="none" stroke="#63b8ff" d="M371.75,-258.37C359.69,-248.21 339.44,-231.16 324.59,-218.65"/>
<polygon fill="#63b8ff" stroke="#63b8ff" points="326.48,-215.67 316.57,-211.91 321.97,-221.02 326.48,-215.67"/>
</a>
</g>
</g>
<!-- Node9 -->
<g id="Node000009" class="node">
<title>Node9</title>
<g id="a_Node000009"><a xlink:title=" ">
<polygon fill="#e0e0e0" stroke="#999999" points="407,-211.5 357,-211.5 357,-192.5 407,-192.5 407,-211.5"/>
<text text-anchor="middle" x="382" y="-199.5" font-family="Helvetica,sans-Serif" font-size="10.00">tchar.h</text>
</a>
</g>
</g>
<!-- Node2&#45;&gt;Node9 -->
<g id="edge8_Node000002_Node000009" class="edge">
<title>Node2&#45;&gt;Node9</title>
<g id="a_edge8_Node000002_Node000009"><a xlink:title=" ">
<path fill="none" stroke="#63b8ff" d="M382,-258.37C382,-249.16 382,-234.29 382,-222.27"/>
<polygon fill="#63b8ff" stroke="#63b8ff" points="385.5,-221.91 382,-211.91 378.5,-221.91 385.5,-221.91"/>
</a>
</g>
</g>
<!-- Node10 -->
<g id="Node000010" class="node">
<title>Node10</title>
<g id="a_Node000010"><a xlink:title=" ">
<polygon fill="#e0e0e0" stroke="#999999" points="497,-211.5 425,-211.5 425,-192.5 497,-192.5 497,-211.5"/>
<text text-anchor="middle" x="461" y="-199.5" font-family="Helvetica,sans-Serif" font-size="10.00">commctrl.h</text>
</a>
</g>
</g>
<!-- Node2&#45;&gt;Node10 -->
<g id="edge9_Node000002_Node000010" class="edge">
<title>Node2&#45;&gt;Node10</title>
<g id="a_edge9_Node000002_Node000010"><a xlink:title=" ">
<path fill="none" stroke="#63b8ff" d="M392.65,-258.37C405.38,-248.06 426.88,-230.65 442.37,-218.09"/>
<polygon fill="#63b8ff" stroke="#63b8ff" points="444.7,-220.71 450.26,-211.7 440.29,-215.27 444.7,-220.71"/>
</a>
</g>
</g>
<!-- Node11 -->
<g id="Node000011" class="node">
<title>Node11</title>
<g id="a_Node000011"><a xlink:title=" ">
<polygon fill="#e0e0e0" stroke="#999999" points="856,-19 812,-19 812,0 856,0 856,-19"/>
<text text-anchor="middle" x="834" y="-7" font-family="Helvetica,sans-Serif" font-size="10.00">string</text>
</a>
</g>
</g>
<!-- Node2&#45;&gt;Node11 -->
<g id="edge10_Node000002_Node000011" class="edge">
<title>Node2&#45;&gt;Node11</title>
<g id="a_edge10_Node000002_Node000011"><a xlink:title=" ">
<path fill="none" stroke="#63b8ff" d="M342.47,-264.89C274.01,-259.74 144.58,-242.54 187,-187 264.26,-85.84 681.53,-28.73 801.64,-14.21"/>
<polygon fill="#63b8ff" stroke="#63b8ff" points="802.17,-17.68 811.68,-13.02 801.34,-10.73 802.17,-17.68"/>
</a>
</g>
</g>
<!-- Node12 -->
<g id="Node000012" class="node">
<title>Node12</title>
<g id="a_Node000012"><a xlink:title=" ">
<polygon fill="#e0e0e0" stroke="#999999" points="575,-211.5 515,-211.5 515,-192.5 575,-192.5 575,-211.5"/>
<text text-anchor="middle" x="545" y="-199.5" font-family="Helvetica,sans-Serif" font-size="10.00">iostream</text>
</a>
</g>
</g>
<!-- Node2&#45;&gt;Node12 -->
<g id="edge11_Node000002_Node000012" class="edge">
<title>Node2&#45;&gt;Node12</title>
<g id="a_edge11_Node000002_Node000012"><a xlink:title=" ">
<path fill="none" stroke="#63b8ff" d="M403.98,-258.37C432.25,-247.27 481.54,-227.92 513.71,-215.28"/>
<polygon fill="#63b8ff" stroke="#63b8ff" points="515.08,-218.51 523.11,-211.6 512.52,-211.99 515.08,-218.51"/>
</a>
</g>
</g>
<!-- Node4 -->
<g id="Node000004" class="node">
<title>Node4</title>
<g id="a_Node000004"><a xlink:title=" ">
<polygon fill="#e0e0e0" stroke="#999999" points="662.5,-145.5 579.5,-145.5 579.5,-126.5 662.5,-126.5 662.5,-145.5"/>
<text text-anchor="middle" x="621" y="-133.5" font-family="Helvetica,sans-Serif" font-size="10.00">SDKDDKVer.h</text>
</a>
</g>
</g>
<!-- Node3&#45;&gt;Node4 -->
<g id="edge3_Node000003_Node000004" class="edge">
<title>Node3&#45;&gt;Node4</title>
<g id="a_edge3_Node000003_Node000004"><a xlink:title=" ">
<path fill="none" stroke="#63b8ff" d="M627.06,-192.37C626.04,-183.07 624.39,-167.98 623.07,-155.9"/>
<polygon fill="#63b8ff" stroke="#63b8ff" points="626.54,-155.47 621.97,-145.91 619.58,-156.23 626.54,-155.47"/>
</a>
</g>
</g>
<!-- Node13&#45;&gt;Node2 -->
<g id="edge13_Node000013_Node000002" class="edge">
<title>Node13&#45;&gt;Node2</title>
<g id="a_edge13_Node000013_Node000002"><a xlink:title=" ">
<path fill="none" stroke="#63b8ff" d="M649.65,-324.44C593.22,-312.75 492.2,-291.83 431.72,-279.3"/>
<polygon fill="#63b8ff" stroke="#63b8ff" points="432.14,-275.81 421.64,-277.21 430.72,-282.67 432.14,-275.81"/>
</a>
</g>
</g>
<!-- Node13&#45;&gt;Node11 -->
<g id="edge14_Node000013_Node000011" class="edge">
<title>Node13&#45;&gt;Node11</title>
<g id="a_edge14_Node000013_Node000011"><a xlink:title=" ">
<path fill="none" stroke="#63b8ff" d="M691,-324.48C691,-303.71 691,-248.82 691,-203 691,-203 691,-203 691,-135 691,-97.88 689.64,-82.11 715,-55 737.75,-30.69 775.05,-19.57 801.83,-14.55"/>
<polygon fill="#63b8ff" stroke="#63b8ff" points="802.6,-17.97 811.88,-12.85 801.43,-11.06 802.6,-17.97"/>
</a>
</g>
</g>
<!-- Node14&#45;&gt;Node11 -->
<g id="edge16_Node000014_Node000011" class="edge">
<title>Node14&#45;&gt;Node11</title>
<g id="a_edge16_Node000014_Node000011"><a xlink:title=" ">
<path fill="none" stroke="#63b8ff" d="M1071.18,-330.39C973.99,-325.95 823,-314.13 776,-283 741.62,-260.23 729,-244.24 729,-203 729,-203 729,-203 729,-135 729,-85.07 778.95,-44.79 809.95,-24.6"/>
<polygon fill="#63b8ff" stroke="#63b8ff" points="811.9,-27.5 818.51,-19.22 808.18,-21.58 811.9,-27.5"/>
</a>
</g>
</g>
<!-- Node15 -->
<g id="Node000015" class="node">
<title>Node15</title>
<g id="a_Node000015"><a xlink:title=" ">
<polygon fill="#e0e0e0" stroke="#999999" points="862.5,-211.5 815.5,-211.5 815.5,-192.5 862.5,-192.5 862.5,-211.5"/>
<text text-anchor="middle" x="839" y="-199.5" font-family="Helvetica,sans-Serif" font-size="10.00">vector</text>
</a>
</g>
</g>
<!-- Node14&#45;&gt;Node15 -->
<g id="edge17_Node000014_Node000015" class="edge">
<title>Node14&#45;&gt;Node15</title>
<g id="a_edge17_Node000014_Node000015"><a xlink:title=" ">
<path fill="none" stroke="#63b8ff" d="M1071.35,-327.36C967.39,-319.63 803.58,-304.25 785,-283 766.59,-261.95 795.12,-234.36 817.22,-217.69"/>
<polygon fill="#63b8ff" stroke="#63b8ff" points="819.5,-220.36 825.56,-211.67 815.4,-214.69 819.5,-220.36"/>
</a>
</g>
</g>
<!-- Node16 -->
<g id="Node000016" class="node">
<title>Node16</title>
<g id="a_Node000016"><a xlink:title=" ">
<polygon fill="#e0e0e0" stroke="#999999" points="1259.5,-277.5 1194.5,-277.5 1194.5,-258.5 1259.5,-258.5 1259.5,-277.5"/>
<text text-anchor="middle" x="1227" y="-265.5" font-family="Helvetica,sans-Serif" font-size="10.00">functional</text>
</a>
</g>
</g>
<!-- Node14&#45;&gt;Node16 -->
<g id="edge18_Node000014_Node000016" class="edge">
<title>Node14&#45;&gt;Node16</title>
<g id="a_edge18_Node000014_Node000016"><a xlink:title=" ">
<path fill="none" stroke="#63b8ff" d="M1166.44,-324.37C1177.55,-314.21 1196.2,-297.16 1209.88,-284.65"/>
<polygon fill="#63b8ff" stroke="#63b8ff" points="1212.24,-287.24 1217.26,-277.91 1207.52,-282.07 1212.24,-287.24"/>
</a>
</g>
</g>
<!-- Node17 -->
<g id="Node000017" class="node">
<title>Node17</title>
<g id="a_Node000017"><a xlink:href="../../de/d01/StraightBlock_8h.html" target="_top" xlink:title="Modèle de domaine d&#39;un bloc de voie droite (Straight).">
<polygon fill="white" stroke="#666666" points="979.5,-283 794.5,-283 794.5,-253 979.5,-253 979.5,-283"/>
<text text-anchor="start" x="802.5" y="-271" font-family="Helvetica,sans-Serif" font-size="10.00">Modules/InteractiveElements</text>
<text text-anchor="middle" x="887" y="-260" font-family="Helvetica,sans-Serif" font-size="10.00">/ShuntingElements/StraightBlock.h</text>
</a>
</g>
</g>
<!-- Node14&#45;&gt;Node17 -->
<g id="edge19_Node000014_Node000017" class="edge">
<title>Node14&#45;&gt;Node17</title>
<g id="a_edge19_Node000014_Node000017"><a xlink:title=" ">
<path fill="none" stroke="#63b8ff" d="M1120.87,-324.44C1078.88,-314.48 1008.66,-297.84 956.1,-285.38"/>
<polygon fill="#63b8ff" stroke="#63b8ff" points="956.7,-281.93 946.17,-283.02 955.09,-288.74 956.7,-281.93"/>
</a>
</g>
</g>
<!-- Node14&#45;&gt;Node20 -->
<g id="edge41_Node000014_Node000020" class="edge">
<title>Node14&#45;&gt;Node20</title>
<g id="a_edge41_Node000014_Node000020"><a xlink:title=" ">
<path fill="none" stroke="#63b8ff" d="M1242.68,-328.74C1314.85,-323.23 1410.32,-310.78 1436,-283 1483.91,-231.17 1472.06,-138.81 1462.92,-95.15"/>
<polygon fill="#63b8ff" stroke="#63b8ff" points="1466.29,-94.15 1460.7,-85.15 1459.46,-95.67 1466.29,-94.15"/>
</a>
</g>
</g>
<!-- Node27 -->
<g id="Node000027" class="node">
<title>Node27</title>
<g id="a_Node000027"><a xlink:href="../../dc/d01/SwitchBlock_8h.html" target="_top" xlink:title="Modèle de domaine d&#39;un aiguillage ferroviaire à 3 branches.">
<polygon fill="white" stroke="#666666" points="1176.5,-283 997.5,-283 997.5,-253 1176.5,-253 1176.5,-283"/>
<text text-anchor="start" x="1005.5" y="-271" font-family="Helvetica,sans-Serif" font-size="10.00">Modules/InteractiveElements</text>
<text text-anchor="middle" x="1087" y="-260" font-family="Helvetica,sans-Serif" font-size="10.00">/ShuntingElements/SwitchBlock.h</text>
</a>
</g>
</g>
<!-- Node14&#45;&gt;Node27 -->
<g id="edge33_Node000014_Node000027" class="edge">
<title>Node14&#45;&gt;Node27</title>
<g id="a_edge33_Node000014_Node000027"><a xlink:title=" ">
<path fill="none" stroke="#63b8ff" d="M1147.56,-324.37C1137.98,-315.61 1122.78,-301.71 1110.01,-290.04"/>
<polygon fill="#63b8ff" stroke="#63b8ff" points="1112.18,-287.28 1102.44,-283.12 1107.46,-292.45 1112.18,-287.28"/>
</a>
</g>
</g>
<!-- Node29 -->
<g id="Node000029" class="node">
<title>Node29</title>
<g id="a_Node000029"><a xlink:href="../../d6/d03/GeoParserEnums_8h.html" target="_top" xlink:title="Constantes nommées et énumérations du pipeline ferroviaire GeoParser.">
<polygon fill="white" stroke="#666666" points="1427,-277.5 1277,-277.5 1277,-258.5 1427,-258.5 1427,-277.5"/>
<text text-anchor="middle" x="1352" y="-265.5" font-family="Helvetica,sans-Serif" font-size="10.00">./Enums/GeoParserEnums.h</text>
</a>
</g>
</g>
<!-- Node14&#45;&gt;Node29 -->
<g id="edge40_Node000014_Node000029" class="edge">
<title>Node14&#45;&gt;Node29</title>
<g id="a_edge40_Node000014_Node000029"><a xlink:title=" ">
<path fill="none" stroke="#63b8ff" d="M1183.3,-324.37C1217.56,-313.12 1277.61,-293.42 1316.05,-280.8"/>
<polygon fill="#63b8ff" stroke="#63b8ff" points="1317.4,-284.04 1325.81,-277.6 1315.21,-277.39 1317.4,-284.04"/>
</a>
</g>
</g>
<!-- Node17&#45;&gt;Node11 -->
<g id="edge20_Node000017_Node000011" class="edge">
<title>Node17&#45;&gt;Node11</title>
<g id="a_edge20_Node000017_Node000011"><a xlink:title=" ">
<path fill="none" stroke="#63b8ff" d="M847.93,-252.89C831.95,-244.96 815.1,-233.31 806,-217 771.2,-154.62 806.73,-65.63 824.81,-28.18"/>
<polygon fill="#63b8ff" stroke="#63b8ff" points="828.03,-29.56 829.37,-19.05 821.77,-26.43 828.03,-29.56"/>
</a>
</g>
</g>
<!-- Node17&#45;&gt;Node15 -->
<g id="edge21_Node000017_Node000015" class="edge">
<title>Node17&#45;&gt;Node15</title>
<g id="a_edge21_Node000017_Node000015"><a xlink:title=" ">
<path fill="none" stroke="#63b8ff" d="M876.35,-252.8C869.08,-243.11 859.43,-230.24 851.76,-220.01"/>
<polygon fill="#63b8ff" stroke="#63b8ff" points="854.43,-217.74 845.63,-211.84 848.83,-221.94 854.43,-217.74"/>
</a>
</g>
</g>
<!-- Node18 -->
<g id="Node000018" class="node">
<title>Node18</title>
<g id="a_Node000018"><a xlink:href="../../df/d02/ShuntingElement_8h.html" target="_top" xlink:title="Interface abstraite pour tous les éléments de shuntage ferroviaire.">
<polygon fill="white" stroke="#666666" points="989.5,-211.5 880.5,-211.5 880.5,-192.5 989.5,-192.5 989.5,-211.5"/>
<text text-anchor="middle" x="935" y="-199.5" font-family="Helvetica,sans-Serif" font-size="10.00">ShuntingElement.h</text>
</a>
</g>
</g>
<!-- Node17&#45;&gt;Node18 -->
<g id="edge22_Node000017_Node000018" class="edge">
<title>Node17&#45;&gt;Node18</title>
<g id="a_edge22_Node000017_Node000018"><a xlink:title=" ">
<path fill="none" stroke="#63b8ff" d="M897.65,-252.8C904.92,-243.11 914.57,-230.24 922.24,-220.01"/>
<polygon fill="#63b8ff" stroke="#63b8ff" points="925.17,-221.94 928.37,-211.84 919.57,-217.74 925.17,-221.94"/>
</a>
</g>
</g>
<!-- Node26 -->
<g id="Node000026" class="node">
<title>Node26</title>
<g id="a_Node000026"><a xlink:href="../../df/d02/LatLon_8h.html" target="_top" xlink:title="Représentation d&#39;une coordonnée géographique WGS&#45;84 (latitude, longitude).">
<polygon fill="white" stroke="#666666" points="1126.5,-217 1007.5,-217 1007.5,-187 1126.5,-187 1126.5,-217"/>
<text text-anchor="start" x="1015.5" y="-205" font-family="Helvetica,sans-Serif" font-size="10.00">Modules/Coordinates</text>
<text text-anchor="middle" x="1067" y="-194" font-family="Helvetica,sans-Serif" font-size="10.00">/LatLon.h</text>
</a>
</g>
</g>
<!-- Node17&#45;&gt;Node26 -->
<g id="edge32_Node000017_Node000026" class="edge">
<title>Node17&#45;&gt;Node26</title>
<g id="a_edge32_Node000017_Node000026"><a xlink:title=" ">
<path fill="none" stroke="#63b8ff" d="M926.5,-252.95C953.47,-243.37 989.37,-230.6 1018.13,-220.37"/>
<polygon fill="#63b8ff" stroke="#63b8ff" points="1019.34,-223.66 1027.59,-217.01 1017,-217.06 1019.34,-223.66"/>
</a>
</g>
</g>
<!-- Node19 -->
<g id="Node000019" class="node">
<title>Node19</title>
<g id="a_Node000019"><a xlink:href="../../d6/d02/InteractiveElement_8h.html" target="_top" xlink:title="Classe de base abstraite pour tous les éléments interactifs ferroviaires.">
<polygon fill="white" stroke="#666666" points="1014.5,-151 855.5,-151 855.5,-121 1014.5,-121 1014.5,-151"/>
<text text-anchor="start" x="863.5" y="-139" font-family="Helvetica,sans-Serif" font-size="10.00">Modules/InteractiveElements</text>
<text text-anchor="middle" x="935" y="-128" font-family="Helvetica,sans-Serif" font-size="10.00">/InteractiveElement.h</text>
</a>
</g>
</g>
<!-- Node18&#45;&gt;Node19 -->
<g id="edge23_Node000018_Node000019" class="edge">
<title>Node18&#45;&gt;Node19</title>
<g id="a_edge23_Node000018_Node000019"><a xlink:title=" ">
<path fill="none" stroke="#63b8ff" d="M935,-192.37C935,-184.49 935,-172.45 935,-161.6"/>
<polygon fill="#63b8ff" stroke="#63b8ff" points="938.5,-161.36 935,-151.36 931.5,-161.36 938.5,-161.36"/>
</a>
</g>
</g>
<!-- Node19&#45;&gt;Node11 -->
<g id="edge24_Node000019_Node000011" class="edge">
<title>Node19&#45;&gt;Node11</title>
<g id="a_edge24_Node000019_Node000011"><a xlink:title=" ">
<path fill="none" stroke="#63b8ff" d="M923.41,-120.72C904.59,-97.51 867.45,-51.73 847.47,-27.1"/>
<polygon fill="#63b8ff" stroke="#63b8ff" points="849.97,-24.63 840.95,-19.07 844.53,-29.04 849.97,-24.63"/>
</a>
</g>
</g>
<!-- Node19&#45;&gt;Node20 -->
<g id="edge25_Node000019_Node000020" class="edge">
<title>Node19&#45;&gt;Node20</title>
<g id="a_edge25_Node000019_Node000020"><a xlink:title=" ">
<path fill="none" stroke="#63b8ff" d="M1014.56,-125.24C1117.55,-112.62 1295.14,-90.84 1391.02,-79.09"/>
<polygon fill="#63b8ff" stroke="#63b8ff" points="1391.67,-82.54 1401.16,-77.85 1390.81,-75.59 1391.67,-82.54"/>
</a>
</g>
</g>
<!-- Node20&#45;&gt;Node11 -->
<g id="edge31_Node000020_Node000011" class="edge">
<title>Node20&#45;&gt;Node11</title>
<g id="a_edge31_Node000020_Node000011"><a xlink:title=" ">
<path fill="none" stroke="#63b8ff" d="M1401.28,-61.31C1384.49,-59.12 1366.01,-56.84 1349,-55 1166.69,-35.32 947.33,-18.71 866.19,-12.8"/>
<polygon fill="#63b8ff" stroke="#63b8ff" points="866.35,-9.3 856.12,-12.07 865.84,-16.28 866.35,-9.3"/>
</a>
</g>
</g>
<!-- Node21 -->
<g id="Node000021" class="node">
<title>Node21</title>
<g id="a_Node000021"><a xlink:title=" ">
<polygon fill="#e0e0e0" stroke="#999999" points="1573,-19 1529,-19 1529,0 1573,0 1573,-19"/>
<text text-anchor="middle" x="1551" y="-7" font-family="Helvetica,sans-Serif" font-size="10.00">ctime</text>
</a>
</g>
</g>
<!-- Node20&#45;&gt;Node21 -->
<g id="edge26_Node000020_Node000021" class="edge">
<title>Node20&#45;&gt;Node21</title>
<g id="a_edge26_Node000020_Node000021"><a xlink:title=" ">
<path fill="none" stroke="#63b8ff" d="M1479.75,-54.84C1494.6,-45.6 1513.9,-33.59 1528.66,-24.4"/>
<polygon fill="#63b8ff" stroke="#63b8ff" points="1530.55,-27.35 1537.19,-19.09 1526.85,-21.41 1530.55,-27.35"/>
</a>
</g>
</g>
<!-- Node22 -->
<g id="Node000022" class="node">
<title>Node22</title>
<g id="a_Node000022"><a xlink:title=" ">
<polygon fill="#e0e0e0" stroke="#999999" points="1659,-19 1591,-19 1591,0 1659,0 1659,-19"/>
<text text-anchor="middle" x="1625" y="-7" font-family="Helvetica,sans-Serif" font-size="10.00">filesystem</text>
</a>
</g>
</g>
<!-- Node20&#45;&gt;Node22 -->
<g id="edge27_Node000020_Node000022" class="edge">
<title>Node20&#45;&gt;Node22</title>
<g id="a_edge27_Node000020_Node000022"><a xlink:title=" ">
<path fill="none" stroke="#63b8ff" d="M1497.24,-54.99C1525.77,-45.05 1563.65,-31.86 1590.73,-22.43"/>
<polygon fill="#63b8ff" stroke="#63b8ff" points="1591.9,-25.73 1600.19,-19.14 1589.6,-19.12 1591.9,-25.73"/>
</a>
</g>
</g>
<!-- Node23 -->
<g id="Node000023" class="node">
<title>Node23</title>
<g id="a_Node000023"><a xlink:title=" ">
<polygon fill="#e0e0e0" stroke="#999999" points="1444.5,-19 1389.5,-19 1389.5,0 1444.5,0 1444.5,-19"/>
<text text-anchor="middle" x="1417" y="-7" font-family="Helvetica,sans-Serif" font-size="10.00">fstream</text>
</a>
</g>
</g>
<!-- Node20&#45;&gt;Node23 -->
<g id="edge28_Node000020_Node000023" class="edge">
<title>Node20&#45;&gt;Node23</title>
<g id="a_edge28_Node000020_Node000023"><a xlink:title=" ">
<path fill="none" stroke="#63b8ff" d="M1447.32,-54.84C1441.75,-46.69 1434.71,-36.4 1428.82,-27.78"/>
<polygon fill="#63b8ff" stroke="#63b8ff" points="1431.53,-25.55 1422.99,-19.27 1425.75,-29.5 1431.53,-25.55"/>
</a>
</g>
</g>
<!-- Node24 -->
<g id="Node000024" class="node">
<title>Node24</title>
<g id="a_Node000024"><a xlink:title=" ">
<polygon fill="#e0e0e0" stroke="#999999" points="1511,-19 1463,-19 1463,0 1511,0 1511,-19"/>
<text text-anchor="middle" x="1487" y="-7" font-family="Helvetica,sans-Serif" font-size="10.00">mutex</text>
</a>
</g>
</g>
<!-- Node20&#45;&gt;Node24 -->
<g id="edge29_Node000020_Node000024" class="edge">
<title>Node20&#45;&gt;Node24</title>
<g id="a_edge29_Node000020_Node000024"><a xlink:title=" ">
<path fill="none" stroke="#63b8ff" d="M1464.26,-54.84C1468.35,-46.87 1473.49,-36.84 1477.86,-28.33"/>
<polygon fill="#63b8ff" stroke="#63b8ff" points="1481.06,-29.76 1482.5,-19.27 1474.83,-26.57 1481.06,-29.76"/>
</a>
</g>
</g>
<!-- Node25 -->
<g id="Node000025" class="node">
<title>Node25</title>
<g id="a_Node000025"><a xlink:title=" ">
<polygon fill="#e0e0e0" stroke="#999999" points="1371,-19 1315,-19 1315,0 1371,0 1371,-19"/>
<text text-anchor="middle" x="1343" y="-7" font-family="Helvetica,sans-Serif" font-size="10.00">sstream</text>
</a>
</g>
</g>
<!-- Node20&#45;&gt;Node25 -->
<g id="edge30_Node000020_Node000025" class="edge">
<title>Node20&#45;&gt;Node25</title>
<g id="a_edge30_Node000020_Node000025"><a xlink:title=" ">
<path fill="none" stroke="#63b8ff" d="M1429.69,-54.99C1411.35,-45.58 1387.32,-33.24 1369.21,-23.95"/>
<polygon fill="#63b8ff" stroke="#63b8ff" points="1370.33,-20.59 1359.84,-19.14 1367.13,-26.82 1370.33,-20.59"/>
</a>
</g>
</g>
<!-- Node27&#45;&gt;Node11 -->
<g id="edge36_Node000027_Node000011" class="edge">
<title>Node27&#45;&gt;Node11</title>
<g id="a_edge36_Node000027_Node000011"><a xlink:title=" ">
<path fill="none" stroke="#63b8ff" d="M1105.57,-252.95C1124.2,-237.05 1148.34,-210.34 1135,-187 1076.07,-83.87 930.82,-35.17 866.06,-18.03"/>
<polygon fill="#63b8ff" stroke="#63b8ff" points="866.58,-14.55 856.02,-15.46 864.84,-21.33 866.58,-14.55"/>
</a>
</g>
</g>
<!-- Node27&#45;&gt;Node15 -->
<g id="edge37_Node000027_Node000015" class="edge">
<title>Node27&#45;&gt;Node15</title>
<g id="a_edge37_Node000027_Node000015"><a xlink:title=" ">
<path fill="none" stroke="#63b8ff" d="M1010.83,-252.96C969.03,-244.36 916.58,-232.1 871,-217 869.56,-216.52 868.1,-216.01 866.63,-215.46"/>
<polygon fill="#63b8ff" stroke="#63b8ff" points="867.63,-212.09 857.05,-211.59 865.01,-218.58 867.63,-212.09"/>
</a>
</g>
</g>
<!-- Node27&#45;&gt;Node18 -->
<g id="edge39_Node000027_Node000018" class="edge">
<title>Node27&#45;&gt;Node18</title>
<g id="a_edge39_Node000027_Node000018"><a xlink:title=" ">
<path fill="none" stroke="#63b8ff" d="M1053.64,-252.95C1027.1,-241.78 990.31,-226.29 964.76,-215.53"/>
<polygon fill="#63b8ff" stroke="#63b8ff" points="965.8,-212.17 955.23,-211.52 963.09,-218.62 965.8,-212.17"/>
</a>
</g>
</g>
<!-- Node27&#45;&gt;Node25 -->
<g id="edge35_Node000027_Node000025" class="edge">
<title>Node27&#45;&gt;Node25</title>
<g id="a_edge35_Node000027_Node000025"><a xlink:title=" ">
<path fill="none" stroke="#63b8ff" d="M1176.9,-253.24C1202.14,-245.84 1228.09,-234.47 1248,-217 1306.97,-165.24 1331.65,-69.31 1339.73,-29.05"/>
<polygon fill="#63b8ff" stroke="#63b8ff" points="1343.2,-29.52 1341.62,-19.05 1336.32,-28.22 1343.2,-29.52"/>
</a>
</g>
</g>
<!-- Node27&#45;&gt;Node26 -->
<g id="edge38_Node000027_Node000026" class="edge">
<title>Node27&#45;&gt;Node26</title>
<g id="a_edge38_Node000027_Node000026"><a xlink:title=" ">
<path fill="none" stroke="#63b8ff" d="M1082.56,-252.8C1080.18,-245.17 1077.18,-235.57 1074.45,-226.84"/>
<polygon fill="#63b8ff" stroke="#63b8ff" points="1077.75,-225.66 1071.43,-217.16 1071.07,-227.75 1077.75,-225.66"/>
</a>
</g>
</g>
<!-- Node28 -->
<g id="Node000028" class="node">
<title>Node28</title>
<g id="a_Node000028"><a xlink:title=" ">
<polygon fill="#e0e0e0" stroke="#999999" points="1239,-211.5 1183,-211.5 1183,-192.5 1239,-192.5 1239,-211.5"/>
<text text-anchor="middle" x="1211" y="-199.5" font-family="Helvetica,sans-Serif" font-size="10.00">optional</text>
</a>
</g>
</g>
<!-- Node27&#45;&gt;Node28 -->
<g id="edge34_Node000027_Node000028" class="edge">
<title>Node27&#45;&gt;Node28</title>
<g id="a_edge34_Node000027_Node000028"><a xlink:title=" ">
<path fill="none" stroke="#63b8ff" d="M1114.21,-252.95C1135.48,-241.98 1164.82,-226.83 1185.61,-216.11"/>
<polygon fill="#63b8ff" stroke="#63b8ff" points="1187.22,-219.21 1194.5,-211.52 1184.01,-212.99 1187.22,-219.21"/>
</a>
</g>
</g>
<!-- Node30&#45;&gt;Node11 -->
<g id="edge44_Node000030_Node000011" class="edge">
<title>Node30&#45;&gt;Node11</title>
<g id="a_edge44_Node000030_Node000011"><a xlink:title=" ">
<path fill="none" stroke="#63b8ff" d="M1485.89,-318.88C1476.51,-301.45 1458.52,-271.8 1436,-253 1277.28,-120.48 1209.91,-124.02 1015,-55 964.19,-37.01 902.88,-23.59 866.24,-16.41"/>
<polygon fill="#63b8ff" stroke="#63b8ff" points="866.62,-12.92 856.14,-14.47 865.3,-19.8 866.62,-12.92"/>
</a>
</g>
</g>
<!-- Node31 -->
<g id="Node000031" class="node">
<title>Node31</title>
<g id="a_Node000031"><a xlink:title=" ">
<polygon fill="#e0e0e0" stroke="#999999" points="1586.5,-277.5 1521.5,-277.5 1521.5,-258.5 1586.5,-258.5 1586.5,-277.5"/>
<text text-anchor="middle" x="1554" y="-265.5" font-family="Helvetica,sans-Serif" font-size="10.00">stdexcept</text>
</a>
</g>
</g>
<!-- Node30&#45;&gt;Node31 -->
<g id="edge43_Node000030_Node000031" class="edge">
<title>Node30&#45;&gt;Node31</title>
<g id="a_edge43_Node000030_Node000031"><a xlink:title=" ">
<path fill="none" stroke="#63b8ff" d="M1506.54,-318.8C1516.05,-308.82 1528.78,-295.46 1538.67,-285.09"/>
<polygon fill="#63b8ff" stroke="#63b8ff" points="1541.2,-287.5 1545.57,-277.84 1536.14,-282.67 1541.2,-287.5"/>
</a>
</g>
</g>
</g>
</svg>
