<?xml version="1.0" encoding="UTF-8" standalone="no"?>
<!DOCTYPE svg PUBLIC "-//W3C//DTD SVG 1.1//EN"
 "http://www.w3.org/Graphics/SVG/1.1/DTD/svg11.dtd">
<!-- Generated by graphviz version 2.43.0 (0)
 -->
<!-- Title: SimulateurFerroviaire/Modules/PCC/PCCStraightNode.h Pages: 1 -->
<svg width="962pt" height="346pt"
 viewBox="0.00 0.00 962.00 346.00" xmlns="http://www.w3.org/2000/svg" xmlns:xlink="http://www.w3.org/1999/xlink">
<g id="graph0" class="graph" transform="scale(1 1) rotate(0) translate(4 342)">
<title>SimulateurFerroviaire/Modules/PCC/PCCStraightNode.h</title>
<!-- Node1 -->
<g id="Node000001" class="node">
<title>Node1</title>
<g id="a_Node000001"><a xlink:title="Nœud PCC représentant un StraightBlock.">
<polygon fill="#999999" stroke="#666666" points="584,-338 405,-338 405,-308 584,-308 584,-338"/>
<text text-anchor="start" x="413" y="-326" font-family="Helvetica,sans-Serif" font-size="10.00">SimulateurFerroviaire</text>
<text text-anchor="middle" x="494.5" y="-315" font-family="Helvetica,sans-Serif" font-size="10.00">/Modules/PCC/PCCStraightNode.h</text>
</a>
</g>
</g>
<!-- Node2 -->
<g id="Node000002" class="node">
<title>Node2</title>
<g id="a_Node000002"><a xlink:href="../../d6/d01/PCCNode_8h.html" target="_top" xlink:title="Nœud abstrait du graphe PCC représentant un bloc ferroviaire.">
<polygon fill="white" stroke="#666666" points="465,-266.5 394,-266.5 394,-247.5 465,-247.5 465,-266.5"/>
<text text-anchor="middle" x="429.5" y="-254.5" font-family="Helvetica,sans-Serif" font-size="10.00">PCCNode.h</text>
</a>
</g>
</g>
<!-- Node1&#45;&gt;Node2 -->
<g id="edge1_Node000001_Node000002" class="edge">
<title>Node1&#45;&gt;Node2</title>
<g id="a_edge1_Node000001_Node000002"><a xlink:title=" ">
<path fill="none" stroke="#63b8ff" d="M480.07,-307.8C469.94,-297.82 456.37,-284.46 445.84,-274.09"/>
<polygon fill="#63b8ff" stroke="#63b8ff" points="448.06,-271.37 438.48,-266.84 443.15,-276.35 448.06,-271.37"/>
</a>
</g>
</g>
<!-- Node15 -->
<g id="Node000015" class="node">
<title>Node15</title>
<g id="a_Node000015"><a xlink:href="../../de/d01/StraightBlock_8h.html" target="_top" xlink:title="Modèle de domaine d&#39;un bloc de voie droite (Straight).">
<polygon fill="white" stroke="#666666" points="683.5,-272 531.5,-272 531.5,-242 683.5,-242 683.5,-272"/>
<text text-anchor="start" x="539.5" y="-260" font-family="Helvetica,sans-Serif" font-size="10.00">Modules/Elements/Shunting</text>
<text text-anchor="middle" x="607.5" y="-249" font-family="Helvetica,sans-Serif" font-size="10.00">Elements/StraightBlock.h</text>
</a>
</g>
</g>
<!-- Node1&#45;&gt;Node15 -->
<g id="edge18_Node000001_Node000015" class="edge">
<title>Node1&#45;&gt;Node15</title>
<g id="a_edge18_Node000001_Node000015"><a xlink:title=" ">
<path fill="none" stroke="#63b8ff" d="M519.3,-307.95C535.34,-298.87 556.43,-286.93 573.96,-277"/>
<polygon fill="#63b8ff" stroke="#63b8ff" points="575.78,-279.99 582.76,-272.01 572.33,-273.9 575.78,-279.99"/>
</a>
</g>
</g>
<!-- Node3 -->
<g id="Node000003" class="node">
<title>Node3</title>
<g id="a_Node000003"><a xlink:title=" ">
<polygon fill="#e0e0e0" stroke="#999999" points="491.5,-19 447.5,-19 447.5,0 491.5,0 491.5,-19"/>
<text text-anchor="middle" x="469.5" y="-7" font-family="Helvetica,sans-Serif" font-size="10.00">string</text>
</a>
</g>
</g>
<!-- Node2&#45;&gt;Node3 -->
<g id="edge2_Node000002_Node000003" class="edge">
<title>Node2&#45;&gt;Node3</title>
<g id="a_edge2_Node000002_Node000003"><a xlink:title=" ">
<path fill="none" stroke="#63b8ff" d="M414.08,-247.4C400.54,-238.88 381.76,-224.44 373.5,-206 358.06,-171.52 360.28,-156.39 373.5,-121 388.71,-80.29 426.44,-44.67 449.81,-25.49"/>
<polygon fill="#63b8ff" stroke="#63b8ff" points="452.07,-28.17 457.7,-19.2 447.7,-22.7 452.07,-28.17"/>
</a>
</g>
</g>
<!-- Node4 -->
<g id="Node000004" class="node">
<title>Node4</title>
<g id="a_Node000004"><a xlink:title=" ">
<polygon fill="#e0e0e0" stroke="#999999" points="605,-200.5 558,-200.5 558,-181.5 605,-181.5 605,-200.5"/>
<text text-anchor="middle" x="581.5" y="-188.5" font-family="Helvetica,sans-Serif" font-size="10.00">vector</text>
</a>
</g>
</g>
<!-- Node2&#45;&gt;Node4 -->
<g id="edge3_Node000002_Node000004" class="edge">
<title>Node2&#45;&gt;Node4</title>
<g id="a_edge3_Node000002_Node000004"><a xlink:title=" ">
<path fill="none" stroke="#63b8ff" d="M450.36,-247.44C474.33,-237.57 514.84,-220.8 549.5,-206 550.5,-205.57 551.52,-205.13 552.56,-204.69"/>
<polygon fill="#63b8ff" stroke="#63b8ff" points="554.11,-207.83 561.89,-200.64 551.33,-201.41 554.11,-207.83"/>
</a>
</g>
</g>
<!-- Node5 -->
<g id="Node000005" class="node">
<title>Node5</title>
<g id="a_Node000005"><a xlink:href="../../d1/d02/PCCEdge_8h.html" target="_top" xlink:title="Connexion orientée entre deux nœuds du graphe PCC.">
<polygon fill="white" stroke="#666666" points="288,-140 219,-140 219,-121 288,-121 288,-140"/>
<text text-anchor="middle" x="253.5" y="-128" font-family="Helvetica,sans-Serif" font-size="10.00">PCCEdge.h</text>
</a>
</g>
</g>
<!-- Node2&#45;&gt;Node5 -->
<g id="edge4_Node000002_Node000005" class="edge">
<title>Node2&#45;&gt;Node5</title>
<g id="a_edge4_Node000002_Node000005"><a xlink:title=" ">
<path fill="none" stroke="#63b8ff" d="M393.9,-248.24C366.63,-240.91 329.26,-227.73 302.5,-206 283.59,-190.65 269.42,-166.02 261.3,-149.32"/>
<polygon fill="#63b8ff" stroke="#63b8ff" points="264.41,-147.71 257.04,-140.1 258.06,-150.65 264.41,-147.71"/>
</a>
</g>
</g>
<!-- Node6 -->
<g id="Node000006" class="node">
<title>Node6</title>
<g id="a_Node000006"><a xlink:href="../../dd/d00/Logger_8h.html" target="_top" xlink:title="Système de journalisation à 5 niveaux de trace, un fichier par moteur.">
<polygon fill="white" stroke="#666666" points="318,-85 207,-85 207,-55 318,-55 318,-85"/>
<text text-anchor="start" x="215" y="-73" font-family="Helvetica,sans-Serif" font-size="10.00">Engine/Core/Logger</text>
<text text-anchor="middle" x="262.5" y="-62" font-family="Helvetica,sans-Serif" font-size="10.00">/Logger.h</text>
</a>
</g>
</g>
<!-- Node2&#45;&gt;Node6 -->
<g id="edge17_Node000002_Node000006" class="edge">
<title>Node2&#45;&gt;Node6</title>
<g id="a_edge17_Node000002_Node000006"><a xlink:title=" ">
<path fill="none" stroke="#63b8ff" d="M406.25,-247.38C386.72,-239.18 359.1,-225.24 340.5,-206 310.94,-175.41 318.28,-157.54 296.5,-121 291,-111.76 284.45,-101.91 278.59,-93.42"/>
<polygon fill="#63b8ff" stroke="#63b8ff" points="281.39,-91.33 272.79,-85.14 275.66,-95.34 281.39,-91.33"/>
</a>
</g>
</g>
<!-- Node13 -->
<g id="Node000013" class="node">
<title>Node13</title>
<g id="a_Node000013"><a xlink:href="../../df/d02/ShuntingElement_8h.html" target="_top" xlink:title="Interface abstraite pour tous les éléments de shuntage ferroviaire.">
<polygon fill="white" stroke="#666666" points="540.5,-206 382.5,-206 382.5,-176 540.5,-176 540.5,-206"/>
<text text-anchor="start" x="390.5" y="-194" font-family="Helvetica,sans-Serif" font-size="10.00">Modules/Elements/Shunting</text>
<text text-anchor="middle" x="461.5" y="-183" font-family="Helvetica,sans-Serif" font-size="10.00">Elements/ShuntingElement.h</text>
</a>
</g>
</g>
<!-- Node2&#45;&gt;Node13 -->
<g id="edge13_Node000002_Node000013" class="edge">
<title>Node2&#45;&gt;Node13</title>
<g id="a_edge13_Node000002_Node000013"><a xlink:title=" ">
<path fill="none" stroke="#63b8ff" d="M433.82,-247.37C437.88,-239.24 444.15,-226.69 449.7,-215.59"/>
<polygon fill="#63b8ff" stroke="#63b8ff" points="452.98,-216.87 454.32,-206.36 446.72,-213.74 452.98,-216.87"/>
</a>
</g>
</g>
<!-- Node5&#45;&gt;Node6 -->
<g id="edge5_Node000005_Node000006" class="edge">
<title>Node5&#45;&gt;Node6</title>
<g id="a_edge5_Node000005_Node000006"><a xlink:title=" ">
<path fill="none" stroke="#63b8ff" d="M254.83,-120.87C255.87,-114.11 257.37,-104.35 258.77,-95.26"/>
<polygon fill="#63b8ff" stroke="#63b8ff" points="262.27,-95.53 260.33,-85.11 255.35,-94.47 262.27,-95.53"/>
</a>
</g>
</g>
<!-- Node6&#45;&gt;Node3 -->
<g id="edge11_Node000006_Node000003" class="edge">
<title>Node6&#45;&gt;Node3</title>
<g id="a_edge11_Node000006_Node000003"><a xlink:title=" ">
<path fill="none" stroke="#63b8ff" d="M312.08,-54.99C351,-43.99 404.02,-29.01 437.5,-19.54"/>
<polygon fill="#63b8ff" stroke="#63b8ff" points="438.56,-22.88 447.23,-16.79 436.66,-16.14 438.56,-22.88"/>
</a>
</g>
</g>
<!-- Node7 -->
<g id="Node000007" class="node">
<title>Node7</title>
<g id="a_Node000007"><a xlink:title=" ">
<polygon fill="#e0e0e0" stroke="#999999" points="343.5,-19 299.5,-19 299.5,0 343.5,0 343.5,-19"/>
<text text-anchor="middle" x="321.5" y="-7" font-family="Helvetica,sans-Serif" font-size="10.00">ctime</text>
</a>
</g>
</g>
<!-- Node6&#45;&gt;Node7 -->
<g id="edge6_Node000006_Node000007" class="edge">
<title>Node6&#45;&gt;Node7</title>
<g id="a_edge6_Node000006_Node000007"><a xlink:title=" ">
<path fill="none" stroke="#63b8ff" d="M276.78,-54.84C285.43,-46.26 296.49,-35.3 305.44,-26.42"/>
<polygon fill="#63b8ff" stroke="#63b8ff" points="308.02,-28.79 312.66,-19.27 303.09,-23.82 308.02,-28.79"/>
</a>
</g>
</g>
<!-- Node8 -->
<g id="Node000008" class="node">
<title>Node8</title>
<g id="a_Node000008"><a xlink:title=" ">
<polygon fill="#e0e0e0" stroke="#999999" points="429.5,-19 361.5,-19 361.5,0 429.5,0 429.5,-19"/>
<text text-anchor="middle" x="395.5" y="-7" font-family="Helvetica,sans-Serif" font-size="10.00">filesystem</text>
</a>
</g>
</g>
<!-- Node6&#45;&gt;Node8 -->
<g id="edge7_Node000006_Node000008" class="edge">
<title>Node6&#45;&gt;Node8</title>
<g id="a_edge7_Node000006_Node000008"><a xlink:title=" ">
<path fill="none" stroke="#63b8ff" d="M294.36,-54.99C316.35,-45.31 345.35,-32.56 366.66,-23.18"/>
<polygon fill="#63b8ff" stroke="#63b8ff" points="368.11,-26.37 375.86,-19.14 365.3,-19.96 368.11,-26.37"/>
</a>
</g>
</g>
<!-- Node9 -->
<g id="Node000009" class="node">
<title>Node9</title>
<g id="a_Node000009"><a xlink:title=" ">
<polygon fill="#e0e0e0" stroke="#999999" points="55,-19 0,-19 0,0 55,0 55,-19"/>
<text text-anchor="middle" x="27.5" y="-7" font-family="Helvetica,sans-Serif" font-size="10.00">fstream</text>
</a>
</g>
</g>
<!-- Node6&#45;&gt;Node9 -->
<g id="edge8_Node000006_Node000009" class="edge">
<title>Node6&#45;&gt;Node9</title>
<g id="a_edge8_Node000006_Node000009"><a xlink:title=" ">
<path fill="none" stroke="#63b8ff" d="M206.81,-55.14C162.95,-44.22 103.03,-29.3 64.8,-19.78"/>
<polygon fill="#63b8ff" stroke="#63b8ff" points="65.64,-16.39 55.09,-17.37 63.95,-23.18 65.64,-16.39"/>
</a>
</g>
</g>
<!-- Node10 -->
<g id="Node000010" class="node">
<title>Node10</title>
<g id="a_Node000010"><a xlink:title=" ">
<polygon fill="#e0e0e0" stroke="#999999" points="121.5,-19 73.5,-19 73.5,0 121.5,0 121.5,-19"/>
<text text-anchor="middle" x="97.5" y="-7" font-family="Helvetica,sans-Serif" font-size="10.00">mutex</text>
</a>
</g>
</g>
<!-- Node6&#45;&gt;Node10 -->
<g id="edge9_Node000006_Node000010" class="edge">
<title>Node6&#45;&gt;Node10</title>
<g id="a_edge9_Node000006_Node000010"><a xlink:title=" ">
<path fill="none" stroke="#63b8ff" d="M222.98,-54.99C195.08,-45.1 158.09,-31.98 131.5,-22.56"/>
<polygon fill="#63b8ff" stroke="#63b8ff" points="132.46,-19.18 121.87,-19.14 130.12,-25.78 132.46,-19.18"/>
</a>
</g>
</g>
<!-- Node11 -->
<g id="Node000011" class="node">
<title>Node11</title>
<g id="a_Node000011"><a xlink:title=" ">
<polygon fill="#e0e0e0" stroke="#999999" points="195.5,-19 139.5,-19 139.5,0 195.5,0 195.5,-19"/>
<text text-anchor="middle" x="167.5" y="-7" font-family="Helvetica,sans-Serif" font-size="10.00">sstream</text>
</a>
</g>
</g>
<!-- Node6&#45;&gt;Node11 -->
<g id="edge10_Node000006_Node000011" class="edge">
<title>Node6&#45;&gt;Node11</title>
<g id="a_edge10_Node000006_Node000011"><a xlink:title=" ">
<path fill="none" stroke="#63b8ff" d="M239.5,-54.84C224.5,-45.6 205,-33.59 190.07,-24.4"/>
<polygon fill="#63b8ff" stroke="#63b8ff" points="191.81,-21.36 181.46,-19.09 188.14,-27.32 191.81,-21.36"/>
</a>
</g>
</g>
<!-- Node12 -->
<g id="Node000012" class="node">
<title>Node12</title>
<g id="a_Node000012"><a xlink:title=" ">
<polygon fill="#e0e0e0" stroke="#999999" points="281.5,-19 213.5,-19 213.5,0 281.5,0 281.5,-19"/>
<text text-anchor="middle" x="247.5" y="-7" font-family="Helvetica,sans-Serif" font-size="10.00">windows.h</text>
</a>
</g>
</g>
<!-- Node6&#45;&gt;Node12 -->
<g id="edge12_Node000006_Node000012" class="edge">
<title>Node6&#45;&gt;Node12</title>
<g id="a_edge12_Node000006_Node000012"><a xlink:title=" ">
<path fill="none" stroke="#63b8ff" d="M258.87,-54.84C256.89,-47.13 254.42,-37.49 252.29,-29.17"/>
<polygon fill="#63b8ff" stroke="#63b8ff" points="255.62,-28.08 249.75,-19.27 248.84,-29.82 255.62,-28.08"/>
</a>
</g>
</g>
<!-- Node14 -->
<g id="Node000014" class="node">
<title>Node14</title>
<g id="a_Node000014"><a xlink:href="../../d5/d02/Element_8h.html" target="_top" xlink:title="Classe de base abstraite pour tous les éléments interactifs ferroviaires.">
<polygon fill="white" stroke="#666666" points="541,-140 382,-140 382,-121 541,-121 541,-140"/>
<text text-anchor="middle" x="461.5" y="-128" font-family="Helvetica,sans-Serif" font-size="10.00">Modules/Elements/Element.h</text>
</a>
</g>
</g>
<!-- Node13&#45;&gt;Node14 -->
<g id="edge14_Node000013_Node000014" class="edge">
<title>Node13&#45;&gt;Node14</title>
<g id="a_edge14_Node000013_Node000014"><a xlink:title=" ">
<path fill="none" stroke="#63b8ff" d="M461.5,-175.84C461.5,-168.21 461.5,-158.7 461.5,-150.45"/>
<polygon fill="#63b8ff" stroke="#63b8ff" points="465,-150.27 461.5,-140.27 458,-150.27 465,-150.27"/>
</a>
</g>
</g>
<!-- Node14&#45;&gt;Node3 -->
<g id="edge15_Node000014_Node000003" class="edge">
<title>Node14&#45;&gt;Node3</title>
<g id="a_edge15_Node000014_Node000003"><a xlink:title=" ">
<path fill="none" stroke="#63b8ff" d="M462.08,-120.94C463.35,-101.91 466.46,-55.69 468.22,-29.47"/>
<polygon fill="#63b8ff" stroke="#63b8ff" points="471.73,-29.51 468.91,-19.3 464.75,-29.04 471.73,-29.51"/>
</a>
</g>
</g>
<!-- Node14&#45;&gt;Node6 -->
<g id="edge16_Node000014_Node000006" class="edge">
<title>Node14&#45;&gt;Node6</title>
<g id="a_edge16_Node000014_Node000006"><a xlink:title=" ">
<path fill="none" stroke="#63b8ff" d="M432.56,-120.99C403.17,-112.35 356.86,-98.74 319.98,-87.9"/>
<polygon fill="#63b8ff" stroke="#63b8ff" points="320.92,-84.53 310.34,-85.06 318.95,-91.24 320.92,-84.53"/>
</a>
</g>
</g>
<!-- Node15&#45;&gt;Node3 -->
<g id="edge19_Node000015_Node000003" class="edge">
<title>Node15&#45;&gt;Node3</title>
<g id="a_edge19_Node000015_Node000003"><a xlink:title=" ">
<path fill="none" stroke="#63b8ff" d="M612.34,-241.91C617.15,-225.53 622.75,-197.92 614.5,-176 589.32,-109.04 523.39,-51.49 489.8,-25.4"/>
<polygon fill="#63b8ff" stroke="#63b8ff" points="491.7,-22.45 481.62,-19.18 487.46,-28.02 491.7,-22.45"/>
</a>
</g>
</g>
<!-- Node15&#45;&gt;Node4 -->
<g id="edge20_Node000015_Node000004" class="edge">
<title>Node15&#45;&gt;Node4</title>
<g id="a_edge20_Node000015_Node000004"><a xlink:title=" ">
<path fill="none" stroke="#63b8ff" d="M601.73,-241.8C597.95,-232.5 592.99,-220.27 588.92,-210.26"/>
<polygon fill="#63b8ff" stroke="#63b8ff" points="592.1,-208.79 585.09,-200.84 585.61,-211.43 592.1,-208.79"/>
</a>
</g>
</g>
<!-- Node15&#45;&gt;Node13 -->
<g id="edge21_Node000015_Node000013" class="edge">
<title>Node15&#45;&gt;Node13</title>
<g id="a_edge21_Node000015_Node000013"><a xlink:title=" ">
<path fill="none" stroke="#63b8ff" d="M575.46,-241.95C554.06,-232.58 525.73,-220.16 502.67,-210.05"/>
<polygon fill="#63b8ff" stroke="#63b8ff" points="504.03,-206.82 493.47,-206.01 501.22,-213.23 504.03,-206.82"/>
</a>
</g>
</g>
<!-- Node16 -->
<g id="Node000016" class="node">
<title>Node16</title>
<g id="a_Node000016"><a xlink:href="../../d6/d01/CoordinateLatLon_8h.html" target="_top" xlink:title="Représentation d&#39;une coordonnée géographique WGS&#45;84 (latitude, longitude).">
<polygon fill="white" stroke="#666666" points="954,-206 817,-206 817,-176 954,-176 954,-206"/>
<text text-anchor="start" x="825" y="-194" font-family="Helvetica,sans-Serif" font-size="10.00">Engine/Core/Coordinates</text>
<text text-anchor="middle" x="885.5" y="-183" font-family="Helvetica,sans-Serif" font-size="10.00">/CoordinateLatLon.h</text>
</a>
</g>
</g>
<!-- Node15&#45;&gt;Node16 -->
<g id="edge22_Node000015_Node000016" class="edge">
<title>Node15&#45;&gt;Node16</title>
<g id="a_edge22_Node000015_Node000016"><a xlink:title=" ">
<path fill="none" stroke="#63b8ff" d="M668.51,-241.95C711.6,-232.03 769.48,-218.71 814.62,-208.32"/>
<polygon fill="#63b8ff" stroke="#63b8ff" points="815.67,-211.67 824.63,-206.01 814.1,-204.85 815.67,-211.67"/>
</a>
</g>
</g>
<!-- Node17 -->
<g id="Node000017" class="node">
<title>Node17</title>
<g id="a_Node000017"><a xlink:href="../../db/d03/CoordinateXY_8h.html" target="_top" xlink:title="Représentation d&#39;une coordonnée plane en mètres (système métrique UTM).">
<polygon fill="white" stroke="#666666" points="799,-206 662,-206 662,-176 799,-176 799,-206"/>
<text text-anchor="start" x="670" y="-194" font-family="Helvetica,sans-Serif" font-size="10.00">Engine/Core/Coordinates</text>
<text text-anchor="middle" x="730.5" y="-183" font-family="Helvetica,sans-Serif" font-size="10.00">/CoordinateXY.h</text>
</a>
</g>
</g>
<!-- Node15&#45;&gt;Node17 -->
<g id="edge23_Node000015_Node000017" class="edge">
<title>Node15&#45;&gt;Node17</title>
<g id="a_edge23_Node000015_Node000017"><a xlink:title=" ">
<path fill="none" stroke="#63b8ff" d="M634.49,-241.95C652.12,-232.78 675.33,-220.71 694.52,-210.72"/>
<polygon fill="#63b8ff" stroke="#63b8ff" points="696.31,-213.73 703.57,-206.01 693.08,-207.52 696.31,-213.73"/>
</a>
</g>
</g>
</g>
</svg>
