<?xml version="1.0" encoding="UTF-8" standalone="no"?>
<!DOCTYPE svg PUBLIC "-//W3C//DTD SVG 1.1//EN"
 "http://www.w3.org/Graphics/SVG/1.1/DTD/svg11.dtd">
<!-- Generated by graphviz version 2.43.0 (0)
 -->
<!-- Title: SimulateurFerroviaire/Modules/GeoParser/Graph/TopologyEdge.cpp Pages: 1 -->
<svg width="394pt" height="170pt"
 viewBox="0.00 0.00 394.00 170.00" xmlns="http://www.w3.org/2000/svg" xmlns:xlink="http://www.w3.org/1999/xlink">
<g id="graph0" class="graph" transform="scale(1 1) rotate(0) translate(4 166)">
<title>SimulateurFerroviaire/Modules/GeoParser/Graph/TopologyEdge.cpp</title>
<!-- Node1 -->
<g id="Node000001" class="node">
<title>Node1</title>
<g id="a_Node000001"><a xlink:title="Implémentation de l&#39;arête du graphe planaire.">
<polygon fill="#999999" stroke="#666666" points="218.5,-162 72.5,-162 72.5,-121 218.5,-121 218.5,-162"/>
<text text-anchor="start" x="80.5" y="-150" font-family="Helvetica,sans-Serif" font-size="10.00">SimulateurFerroviaire</text>
<text text-anchor="start" x="80.5" y="-139" font-family="Helvetica,sans-Serif" font-size="10.00">/Modules/GeoParser/Graph</text>
<text text-anchor="middle" x="145.5" y="-128" font-family="Helvetica,sans-Serif" font-size="10.00">/TopologyEdge.cpp</text>
</a>
</g>
</g>
<!-- Node2 -->
<g id="Node000002" class="node">
<title>Node2</title>
<g id="a_Node000002"><a xlink:href="../../dd/d01/TopologyEdge_8h.html" target="_top" xlink:title="Arête non&#45;orientée du graphe planaire de topologie ferroviaire.">
<polygon fill="white" stroke="#666666" points="192,-85 99,-85 99,-66 192,-66 192,-85"/>
<text text-anchor="middle" x="145.5" y="-73" font-family="Helvetica,sans-Serif" font-size="10.00">TopologyEdge.h</text>
</a>
</g>
</g>
<!-- Node1&#45;&gt;Node2 -->
<g id="edge1_Node000001_Node000002" class="edge">
<title>Node1&#45;&gt;Node2</title>
<g id="a_edge1_Node000001_Node000002"><a xlink:title=" ">
<path fill="none" stroke="#63b8ff" d="M145.5,-120.95C145.5,-112.85 145.5,-103.5 145.5,-95.47"/>
<polygon fill="#63b8ff" stroke="#63b8ff" points="149,-95.26 145.5,-85.26 142,-95.26 149,-95.26"/>
</a>
</g>
</g>
<!-- Node3 -->
<g id="Node000003" class="node">
<title>Node3</title>
<g id="a_Node000003"><a xlink:title=" ">
<polygon fill="#e0e0e0" stroke="#999999" points="47,-24.5 0,-24.5 0,-5.5 47,-5.5 47,-24.5"/>
<text text-anchor="middle" x="23.5" y="-12.5" font-family="Helvetica,sans-Serif" font-size="10.00">cmath</text>
</a>
</g>
</g>
<!-- Node1&#45;&gt;Node3 -->
<g id="edge7_Node000001_Node000003" class="edge">
<title>Node1&#45;&gt;Node3</title>
<g id="a_edge7_Node000001_Node000003"><a xlink:title=" ">
<path fill="none" stroke="#63b8ff" d="M125.85,-120.77C115.34,-110.19 102.18,-96.91 90.5,-85 72.71,-66.87 52.4,-45.92 38.85,-31.9"/>
<polygon fill="#63b8ff" stroke="#63b8ff" points="41.19,-29.28 31.72,-24.53 36.16,-34.15 41.19,-29.28"/>
</a>
</g>
</g>
<!-- Node8 -->
<g id="Node000008" class="node">
<title>Node8</title>
<g id="a_Node000008"><a xlink:title=" ">
<polygon fill="#e0e0e0" stroke="#999999" points="266.5,-85 210.5,-85 210.5,-66 266.5,-66 266.5,-85"/>
<text text-anchor="middle" x="238.5" y="-73" font-family="Helvetica,sans-Serif" font-size="10.00">iomanip</text>
</a>
</g>
</g>
<!-- Node1&#45;&gt;Node8 -->
<g id="edge8_Node000001_Node000008" class="edge">
<title>Node1&#45;&gt;Node8</title>
<g id="a_edge8_Node000001_Node000008"><a xlink:title=" ">
<path fill="none" stroke="#63b8ff" d="M173.91,-120.95C187.84,-111.37 204.33,-100.02 217.16,-91.19"/>
<polygon fill="#63b8ff" stroke="#63b8ff" points="219.52,-93.81 225.77,-85.26 215.55,-88.05 219.52,-93.81"/>
</a>
</g>
</g>
<!-- Node2&#45;&gt;Node3 -->
<g id="edge2_Node000002_Node000003" class="edge">
<title>Node2&#45;&gt;Node3</title>
<g id="a_edge2_Node000002_Node000003"><a xlink:title=" ">
<path fill="none" stroke="#63b8ff" d="M127.76,-65.99C107.43,-56.25 73.89,-40.16 50.36,-28.88"/>
<polygon fill="#63b8ff" stroke="#63b8ff" points="51.79,-25.68 41.26,-24.52 48.76,-32 51.79,-25.68"/>
</a>
</g>
</g>
<!-- Node4 -->
<g id="Node000004" class="node">
<title>Node4</title>
<g id="a_Node000004"><a xlink:title=" ">
<polygon fill="#e0e0e0" stroke="#999999" points="121.5,-24.5 65.5,-24.5 65.5,-5.5 121.5,-5.5 121.5,-24.5"/>
<text text-anchor="middle" x="93.5" y="-12.5" font-family="Helvetica,sans-Serif" font-size="10.00">sstream</text>
</a>
</g>
</g>
<!-- Node2&#45;&gt;Node4 -->
<g id="edge3_Node000002_Node000004" class="edge">
<title>Node2&#45;&gt;Node4</title>
<g id="a_edge3_Node000002_Node000004"><a xlink:title=" ">
<path fill="none" stroke="#63b8ff" d="M137.83,-65.87C129.99,-57.05 117.64,-43.16 107.96,-32.27"/>
<polygon fill="#63b8ff" stroke="#63b8ff" points="110.46,-29.82 101.2,-24.67 105.23,-34.47 110.46,-29.82"/>
</a>
</g>
</g>
<!-- Node5 -->
<g id="Node000005" class="node">
<title>Node5</title>
<g id="a_Node000005"><a xlink:title=" ">
<polygon fill="#e0e0e0" stroke="#999999" points="183.5,-24.5 139.5,-24.5 139.5,-5.5 183.5,-5.5 183.5,-24.5"/>
<text text-anchor="middle" x="161.5" y="-12.5" font-family="Helvetica,sans-Serif" font-size="10.00">string</text>
</a>
</g>
</g>
<!-- Node2&#45;&gt;Node5 -->
<g id="edge4_Node000002_Node000005" class="edge">
<title>Node2&#45;&gt;Node5</title>
<g id="a_edge4_Node000002_Node000005"><a xlink:title=" ">
<path fill="none" stroke="#63b8ff" d="M147.86,-65.87C150.11,-57.66 153.56,-45.04 156.43,-34.55"/>
<polygon fill="#63b8ff" stroke="#63b8ff" points="159.87,-35.24 159.13,-24.67 153.12,-33.39 159.87,-35.24"/>
</a>
</g>
</g>
<!-- Node6 -->
<g id="Node000006" class="node">
<title>Node6</title>
<g id="a_Node000006"><a xlink:title=" ">
<polygon fill="#e0e0e0" stroke="#999999" points="249,-24.5 202,-24.5 202,-5.5 249,-5.5 249,-24.5"/>
<text text-anchor="middle" x="225.5" y="-12.5" font-family="Helvetica,sans-Serif" font-size="10.00">vector</text>
</a>
</g>
</g>
<!-- Node2&#45;&gt;Node6 -->
<g id="edge5_Node000002_Node000006" class="edge">
<title>Node2&#45;&gt;Node6</title>
<g id="a_edge5_Node000002_Node000006"><a xlink:title=" ">
<path fill="none" stroke="#63b8ff" d="M157.3,-65.87C169.95,-56.62 190.24,-41.78 205.41,-30.69"/>
<polygon fill="#63b8ff" stroke="#63b8ff" points="207.64,-33.4 213.65,-24.67 203.51,-27.74 207.64,-33.4"/>
</a>
</g>
</g>
<!-- Node7 -->
<g id="Node000007" class="node">
<title>Node7</title>
<g id="a_Node000007"><a xlink:href="../../db/d03/CoordinateXY_8h.html" target="_top" xlink:title="Représentation d&#39;une coordonnée plane en mètres (système métrique UTM).">
<polygon fill="white" stroke="#666666" points="386,-30 267,-30 267,0 386,0 386,-30"/>
<text text-anchor="start" x="275" y="-18" font-family="Helvetica,sans-Serif" font-size="10.00">Modules/Coordinates</text>
<text text-anchor="middle" x="326.5" y="-7" font-family="Helvetica,sans-Serif" font-size="10.00">/CoordinateXY.h</text>
</a>
</g>
</g>
<!-- Node2&#45;&gt;Node7 -->
<g id="edge6_Node000002_Node000007" class="edge">
<title>Node2&#45;&gt;Node7</title>
<g id="a_edge6_Node000002_Node000007"><a xlink:title=" ">
<path fill="none" stroke="#63b8ff" d="M171.82,-65.99C198.32,-57.43 239.96,-43.97 273.36,-33.18"/>
<polygon fill="#63b8ff" stroke="#63b8ff" points="274.55,-36.47 282.98,-30.06 272.39,-29.81 274.55,-36.47"/>
</a>
</g>
</g>
</g>
</svg>
