<?xml version="1.0" encoding="UTF-8" standalone="no"?>
<!DOCTYPE svg PUBLIC "-//W3C//DTD SVG 1.1//EN"
 "http://www.w3.org/Graphics/SVG/1.1/DTD/svg11.dtd">
<!-- Generated by graphviz version 2.43.0 (0)
 -->
<!-- Title: SimulateurFerroviaire/Engine/HMI/Dialogs/ParserSettingsDialog.h Pages: 1 -->
<svg width="376pt" height="126pt"
 viewBox="0.00 0.00 375.50 126.00" xmlns="http://www.w3.org/2000/svg" xmlns:xlink="http://www.w3.org/1999/xlink">
<g id="graph0" class="graph" transform="scale(1 1) rotate(0) translate(4 122)">
<title>SimulateurFerroviaire/Engine/HMI/Dialogs/ParserSettingsDialog.h</title>
<!-- Node1 -->
<g id="Node000001" class="node">
<title>Node1</title>
<g id="a_Node000001"><a xlink:title="Dialogue modal Win32 de configuration du pipeline GeoParser.">
<polygon fill="#999999" stroke="#666666" points="284,-118 96,-118 96,-77 284,-77 284,-118"/>
<text text-anchor="start" x="104" y="-106" font-family="Helvetica,sans-Serif" font-size="10.00">SimulateurFerroviaire</text>
<text text-anchor="start" x="104" y="-95" font-family="Helvetica,sans-Serif" font-size="10.00">/Engine/HMI/Dialogs/ParserSettings</text>
<text text-anchor="middle" x="190" y="-84" font-family="Helvetica,sans-Serif" font-size="10.00">Dialog.h</text>
</a>
</g>
</g>
<!-- Node2 -->
<g id="Node000002" class="node">
<title>Node2</title>
<g id="a_Node000002"><a xlink:href="../../d2/d00/ParserSettingsDialog_8cpp.html" target="_top" xlink:title="Implémentation du dialogue de paramètres GeoParser.">
<polygon fill="white" stroke="#666666" points="188,-41 0,-41 0,0 188,0 188,-41"/>
<text text-anchor="start" x="8" y="-29" font-family="Helvetica,sans-Serif" font-size="10.00">SimulateurFerroviaire</text>
<text text-anchor="start" x="8" y="-18" font-family="Helvetica,sans-Serif" font-size="10.00">/Engine/HMI/Dialogs/ParserSettings</text>
<text text-anchor="middle" x="94" y="-7" font-family="Helvetica,sans-Serif" font-size="10.00">Dialog.cpp</text>
</a>
</g>
</g>
<!-- Node1&#45;&gt;Node2 -->
<g id="edge1_Node000001_Node000002" class="edge">
<title>Node1&#45;&gt;Node2</title>
<g id="a_edge1_Node000001_Node000002"><a xlink:title=" ">
<path fill="none" stroke="#63b8ff" d="M157.12,-70.82C144.71,-61.11 130.78,-50.24 119.18,-41.17"/>
<polygon fill="#63b8ff" stroke="#63b8ff" points="154.99,-73.59 165.03,-76.99 159.3,-68.08 154.99,-73.59"/>
</a>
</g>
</g>
<!-- Node3 -->
<g id="Node000003" class="node">
<title>Node3</title>
<g id="a_Node000003"><a xlink:href="../../d3/d03/MainWindow_8cpp.html" target="_top" xlink:title="Implémentation de la fenêtre principale.">
<polygon fill="white" stroke="#666666" points="367.5,-35.5 206.5,-35.5 206.5,-5.5 367.5,-5.5 367.5,-35.5"/>
<text text-anchor="start" x="214.5" y="-23.5" font-family="Helvetica,sans-Serif" font-size="10.00">SimulateurFerroviaire</text>
<text text-anchor="middle" x="287" y="-12.5" font-family="Helvetica,sans-Serif" font-size="10.00">/Engine/HMI/MainWindow.cpp</text>
</a>
</g>
</g>
<!-- Node1&#45;&gt;Node3 -->
<g id="edge2_Node000001_Node000003" class="edge">
<title>Node1&#45;&gt;Node3</title>
<g id="a_edge2_Node000001_Node000003"><a xlink:title=" ">
<path fill="none" stroke="#63b8ff" d="M223.38,-70.69C238.54,-58.97 255.89,-45.56 268.63,-35.7"/>
<polygon fill="#63b8ff" stroke="#63b8ff" points="221,-68.1 215.23,-76.99 225.28,-73.64 221,-68.1"/>
</a>
</g>
</g>
</g>
</svg>
