<?xml version="1.0" encoding="UTF-8" standalone="no"?>
<!DOCTYPE svg PUBLIC "-//W3C//DTD SVG 1.1//EN"
 "http://www.w3.org/Graphics/SVG/1.1/DTD/svg11.dtd">
<!-- Generated by graphviz version 2.43.0 (0)
 -->
<!-- Title: TopologyGraph Pages: 1 -->
<svg width="475pt" height="506pt"
 viewBox="0.00 0.00 475.00 506.00" xmlns="http://www.w3.org/2000/svg" xmlns:xlink="http://www.w3.org/1999/xlink">
<g id="graph0" class="graph" transform="scale(1 1) rotate(0) translate(4 502)">
<title>TopologyGraph</title>
<!-- Node1 -->
<g id="Node000001" class="node">
<title>Node1</title>
<g id="a_Node000001"><a xlink:title="Résultat de Phase4_TopologyBuilder — graphe planaire complet.">
<polygon fill="#999999" stroke="transparent" points="310,-94 207,-94 207,0 310,0 310,-94"/>
<text text-anchor="start" x="222.5" y="-82" font-family="Helvetica,sans-Serif" font-size="10.00">TopologyGraph</text>
<text text-anchor="start" x="257" y="-67" font-family="Helvetica,sans-Serif" font-size="10.00"> </text>
<text text-anchor="start" x="211.5" y="-52" font-family="Helvetica,sans-Serif" font-size="10.00">+</text>
<text text-anchor="start" x="224.5" y="-52" font-family="Helvetica,sans-Serif" font-size="10.00">buildAdjacency()</text>
<text text-anchor="start" x="211.5" y="-37" font-family="Helvetica,sans-Serif" font-size="10.00">+</text>
<text text-anchor="start" x="224.5" y="-37" font-family="Helvetica,sans-Serif" font-size="10.00">degree()</text>
<text text-anchor="start" x="211.5" y="-22" font-family="Helvetica,sans-Serif" font-size="10.00">+</text>
<text text-anchor="start" x="224.5" y="-22" font-family="Helvetica,sans-Serif" font-size="10.00">clear()</text>
<text text-anchor="start" x="211.5" y="-7" font-family="Helvetica,sans-Serif" font-size="10.00">+</text>
<text text-anchor="start" x="224.5" y="-7" font-family="Helvetica,sans-Serif" font-size="10.00">empty()</text>
<polygon fill="#666666" stroke="#666666" points="207.5,-77 207.5,-77 310.5,-77 310.5,-77 207.5,-77"/>
<polygon fill="#666666" stroke="#666666" points="207.5,-62 207.5,-62 310.5,-62 310.5,-62 207.5,-62"/>
<polygon fill="none" stroke="#666666" points="207,0 207,-94 310,-94 310,0 207,0"/>
</a>
</g>
</g>
<!-- Node2 -->
<g id="Node000002" class="node">
<title>Node2</title>
<g id="a_Node000002"><a xlink:title=" ">
<polygon fill="white" stroke="transparent" points="175,-195.5 42,-195.5 42,-146.5 175,-146.5 175,-195.5"/>
<text text-anchor="start" x="47.5" y="-183" font-family="Helvetica,sans-Serif" font-size="10.00">std::vector&lt; TopoNode &gt;</text>
<text text-anchor="start" x="107" y="-168" font-family="Helvetica,sans-Serif" font-size="10.00"> </text>
<text text-anchor="start" x="107" y="-153" font-family="Helvetica,sans-Serif" font-size="10.00"> </text>
<polygon fill="#666666" stroke="#666666" points="42.5,-178 42.5,-178 175.5,-178 175.5,-178 42.5,-178"/>
<polygon fill="#666666" stroke="#666666" points="42.5,-163 42.5,-163 175.5,-163 175.5,-163 42.5,-163"/>
<polygon fill="none" stroke="#666666" points="42,-146.5 42,-195.5 175,-195.5 175,-146.5 42,-146.5"/>
</a>
</g>
</g>
<!-- Node2&#45;&gt;Node1 -->
<g id="edge1_Node000001_Node000002" class="edge">
<title>Node2&#45;&gt;Node1</title>
<g id="a_edge1_Node000001_Node000002"><a xlink:title=" ">
<path fill="none" stroke="#63b8ff" d="M137.42,-146.48C154.48,-132.61 176.72,-114.52 197.48,-97.63"/>
<polygon fill="none" stroke="#63b8ff" points="197.58,-97.55 199.71,-90.66 206.89,-89.97 204.76,-96.86 197.58,-97.55"/>
</a>
</g>
<text text-anchor="middle" x="200" y="-115" font-family="Helvetica,sans-Serif" font-size="10.00" fill="grey"> +nodes</text>
</g>
<!-- Node3 -->
<g id="Node000003" class="node">
<title>Node3</title>
<g id="a_Node000003"><a xlink:href="../../df/d00/structTopoNode.html" target="_top" xlink:title="Nœud topologique du graphe planaire.">
<polygon fill="white" stroke="transparent" points="138,-312 79,-312 79,-263 138,-263 138,-312"/>
<text text-anchor="start" x="84.5" y="-299.5" font-family="Helvetica,sans-Serif" font-size="10.00">TopoNode</text>
<text text-anchor="start" x="90.5" y="-284.5" font-family="Helvetica,sans-Serif" font-size="10.00">+</text>
<text text-anchor="start" x="110.5" y="-284.5" font-family="Helvetica,sans-Serif" font-size="10.00">id</text>
<text text-anchor="start" x="107" y="-269.5" font-family="Helvetica,sans-Serif" font-size="10.00"> </text>
<polygon fill="#666666" stroke="#666666" points="79.5,-294.5 79.5,-294.5 138.5,-294.5 138.5,-294.5 79.5,-294.5"/>
<polygon fill="#666666" stroke="#666666" points="79.5,-279.5 79.5,-279.5 108.5,-279.5 108.5,-279.5 79.5,-279.5"/>
<polygon fill="#666666" stroke="#666666" points="108.5,-279.5 108.5,-279.5 138.5,-279.5 138.5,-279.5 108.5,-279.5"/>
<polygon fill="none" stroke="#666666" points="79,-263 79,-312 138,-312 138,-263 79,-263"/>
</a>
</g>
</g>
<!-- Node3&#45;&gt;Node2 -->
<g id="edge2_Node000002_Node000003" class="edge">
<title>Node3&#45;&gt;Node2</title>
<g id="a_edge2_Node000002_Node000003"><a xlink:title=" ">
<path fill="none" stroke="#63b8ff" d="M108.5,-262.78C108.5,-246.89 108.5,-225.68 108.5,-207.75"/>
<polygon fill="none" stroke="#63b8ff" points="108.5,-207.69 104.5,-201.69 108.5,-195.69 112.5,-201.69 108.5,-207.69"/>
</a>
</g>
<text text-anchor="middle" x="137.5" y="-222" font-family="Helvetica,sans-Serif" font-size="10.00" fill="grey"> +elements</text>
</g>
<!-- Node4 -->
<g id="Node000004" class="node">
<title>Node4</title>
<g id="a_Node000004"><a xlink:href="../../df/d01/classCoordinateXY.html" target="_top" xlink:title="Coordonnée plane en mètres dans un système métrique (UTM ou similaire).">
<polygon fill="white" stroke="transparent" points="95,-498 0,-498 0,-374 95,-374 95,-498"/>
<text text-anchor="start" x="14.5" y="-486" font-family="Helvetica,sans-Serif" font-size="10.00">CoordinateXY</text>
<text text-anchor="start" x="4.5" y="-471" font-family="Helvetica,sans-Serif" font-size="10.00">+</text>
<text text-anchor="start" x="17.5" y="-471" font-family="Helvetica,sans-Serif" font-size="10.00">x</text>
<text text-anchor="start" x="4.5" y="-456" font-family="Helvetica,sans-Serif" font-size="10.00">+</text>
<text text-anchor="start" x="17.5" y="-456" font-family="Helvetica,sans-Serif" font-size="10.00">y</text>
<text text-anchor="start" x="4.5" y="-441" font-family="Helvetica,sans-Serif" font-size="10.00">+</text>
<text text-anchor="start" x="17.5" y="-441" font-family="Helvetica,sans-Serif" font-size="10.00">CoordinateXY()</text>
<text text-anchor="start" x="4.5" y="-426" font-family="Helvetica,sans-Serif" font-size="10.00">+</text>
<text text-anchor="start" x="17.5" y="-426" font-family="Helvetica,sans-Serif" font-size="10.00">CoordinateXY()</text>
<text text-anchor="start" x="4.5" y="-411" font-family="Helvetica,sans-Serif" font-size="10.00">+</text>
<text text-anchor="start" x="17.5" y="-411" font-family="Helvetica,sans-Serif" font-size="10.00">operator==()</text>
<text text-anchor="start" x="4.5" y="-396" font-family="Helvetica,sans-Serif" font-size="10.00">+</text>
<text text-anchor="start" x="17.5" y="-396" font-family="Helvetica,sans-Serif" font-size="10.00">operator!=()</text>
<text text-anchor="start" x="4.5" y="-381" font-family="Helvetica,sans-Serif" font-size="10.00">+</text>
<text text-anchor="start" x="17.5" y="-381" font-family="Helvetica,sans-Serif" font-size="10.00">toString()</text>
<polygon fill="#666666" stroke="#666666" points="0.5,-481 0.5,-481 95.5,-481 95.5,-481 0.5,-481"/>
<polygon fill="#666666" stroke="#666666" points="0.5,-451 0.5,-451 15.5,-451 15.5,-451 0.5,-451"/>
<polygon fill="#666666" stroke="#666666" points="15.5,-451 15.5,-451 95.5,-451 95.5,-451 15.5,-451"/>
<polygon fill="none" stroke="#666666" points="0,-374 0,-498 95,-498 95,-374 0,-374"/>
</a>
</g>
</g>
<!-- Node4&#45;&gt;Node3 -->
<g id="edge3_Node000003_Node000004" class="edge">
<title>Node4&#45;&gt;Node3</title>
<g id="a_edge3_Node000003_Node000004"><a xlink:title=" ">
<path fill="none" stroke="#63b8ff" d="M73.02,-373.72C80.13,-356.64 87.61,-338.68 93.86,-323.66"/>
<polygon fill="none" stroke="#63b8ff" points="93.96,-323.41 92.58,-316.33 98.58,-312.33 99.96,-319.41 93.96,-323.41"/>
</a>
</g>
<text text-anchor="middle" x="109.5" y="-348" font-family="Helvetica,sans-Serif" font-size="10.00" fill="grey"> +posUTM</text>
</g>
<!-- Node5 -->
<g id="Node000005" class="node">
<title>Node5</title>
<g id="a_Node000005"><a xlink:href="../../db/d03/classCoordinateLatLon.html" target="_top" xlink:title="Coordonnée géographique WGS&#45;84 exprimée en degrés décimaux.">
<polygon fill="white" stroke="transparent" points="228,-498 113,-498 113,-374 228,-374 228,-498"/>
<text text-anchor="start" x="128" y="-486" font-family="Helvetica,sans-Serif" font-size="10.00">CoordinateLatLon</text>
<text text-anchor="start" x="117.5" y="-471" font-family="Helvetica,sans-Serif" font-size="10.00">+</text>
<text text-anchor="start" x="130.5" y="-471" font-family="Helvetica,sans-Serif" font-size="10.00">latitude</text>
<text text-anchor="start" x="117.5" y="-456" font-family="Helvetica,sans-Serif" font-size="10.00">+</text>
<text text-anchor="start" x="130.5" y="-456" font-family="Helvetica,sans-Serif" font-size="10.00">longitude</text>
<text text-anchor="start" x="117.5" y="-441" font-family="Helvetica,sans-Serif" font-size="10.00">+</text>
<text text-anchor="start" x="130.5" y="-441" font-family="Helvetica,sans-Serif" font-size="10.00">CoordinateLatLon()</text>
<text text-anchor="start" x="117.5" y="-426" font-family="Helvetica,sans-Serif" font-size="10.00">+</text>
<text text-anchor="start" x="130.5" y="-426" font-family="Helvetica,sans-Serif" font-size="10.00">CoordinateLatLon()</text>
<text text-anchor="start" x="117.5" y="-411" font-family="Helvetica,sans-Serif" font-size="10.00">+</text>
<text text-anchor="start" x="130.5" y="-411" font-family="Helvetica,sans-Serif" font-size="10.00">operator==()</text>
<text text-anchor="start" x="117.5" y="-396" font-family="Helvetica,sans-Serif" font-size="10.00">+</text>
<text text-anchor="start" x="130.5" y="-396" font-family="Helvetica,sans-Serif" font-size="10.00">operator!=()</text>
<text text-anchor="start" x="117.5" y="-381" font-family="Helvetica,sans-Serif" font-size="10.00">+</text>
<text text-anchor="start" x="130.5" y="-381" font-family="Helvetica,sans-Serif" font-size="10.00">toString()</text>
<polygon fill="#666666" stroke="#666666" points="113.5,-481 113.5,-481 228.5,-481 228.5,-481 113.5,-481"/>
<polygon fill="#666666" stroke="#666666" points="113.5,-451 113.5,-451 128.5,-451 128.5,-451 113.5,-451"/>
<polygon fill="#666666" stroke="#666666" points="128.5,-451 128.5,-451 228.5,-451 228.5,-451 128.5,-451"/>
<polygon fill="none" stroke="#666666" points="113,-374 113,-498 228,-498 228,-374 113,-374"/>
</a>
</g>
</g>
<!-- Node5&#45;&gt;Node3 -->
<g id="edge4_Node000003_Node000005" class="edge">
<title>Node5&#45;&gt;Node3</title>
<g id="a_edge4_Node000003_Node000005"><a xlink:title=" ">
<path fill="none" stroke="#63b8ff" d="M151.04,-373.94C147.48,-364.15 143.58,-354.22 139.5,-345 136.25,-337.66 132.39,-330 128.51,-322.78"/>
<polygon fill="none" stroke="#63b8ff" points="128.5,-322.74 122.1,-319.42 122.7,-312.24 129.1,-315.56 128.5,-322.74"/>
</a>
</g>
<text text-anchor="middle" x="176.5" y="-348" font-family="Helvetica,sans-Serif" font-size="10.00" fill="grey"> +posWGS84</text>
</g>
<!-- Node6 -->
<g id="Node000006" class="node">
<title>Node6</title>
<g id="a_Node000006"><a xlink:title=" ">
<polygon fill="white" stroke="transparent" points="324,-195.5 193,-195.5 193,-146.5 324,-146.5 324,-195.5"/>
<text text-anchor="start" x="198.5" y="-183" font-family="Helvetica,sans-Serif" font-size="10.00">std::vector&lt; TopoEdge &gt;</text>
<text text-anchor="start" x="257" y="-168" font-family="Helvetica,sans-Serif" font-size="10.00"> </text>
<text text-anchor="start" x="257" y="-153" font-family="Helvetica,sans-Serif" font-size="10.00"> </text>
<polygon fill="#666666" stroke="#666666" points="193.5,-178 193.5,-178 324.5,-178 324.5,-178 193.5,-178"/>
<polygon fill="#666666" stroke="#666666" points="193.5,-163 193.5,-163 324.5,-163 324.5,-163 193.5,-163"/>
<polygon fill="none" stroke="#666666" points="193,-146.5 193,-195.5 324,-195.5 324,-146.5 193,-146.5"/>
</a>
</g>
</g>
<!-- Node6&#45;&gt;Node1 -->
<g id="edge5_Node000001_Node000006" class="edge">
<title>Node6&#45;&gt;Node1</title>
<g id="a_edge5_Node000001_Node000006"><a xlink:title=" ">
<path fill="none" stroke="#63b8ff" d="M258.5,-146.48C258.5,-135.02 258.5,-120.67 258.5,-106.51"/>
<polygon fill="none" stroke="#63b8ff" points="258.5,-106.19 254.5,-100.19 258.5,-94.19 262.5,-100.19 258.5,-106.19"/>
</a>
</g>
<text text-anchor="middle" x="279" y="-115" font-family="Helvetica,sans-Serif" font-size="10.00" fill="grey"> +edges</text>
</g>
<!-- Node7 -->
<g id="Node000007" class="node">
<title>Node7</title>
<g id="a_Node000007"><a xlink:href="../../d8/d00/structTopoEdge.html" target="_top" xlink:title="Arête du graphe planaire — connexion entre deux nœuds.">
<polygon fill="white" stroke="transparent" points="304,-327 213,-327 213,-248 304,-248 304,-327"/>
<text text-anchor="start" x="235.5" y="-314.5" font-family="Helvetica,sans-Serif" font-size="10.00">TopoEdge</text>
<text text-anchor="start" x="217.5" y="-299.5" font-family="Helvetica,sans-Serif" font-size="10.00">+</text>
<text text-anchor="start" x="230.5" y="-299.5" font-family="Helvetica,sans-Serif" font-size="10.00">nodeA</text>
<text text-anchor="start" x="217.5" y="-284.5" font-family="Helvetica,sans-Serif" font-size="10.00">+</text>
<text text-anchor="start" x="230.5" y="-284.5" font-family="Helvetica,sans-Serif" font-size="10.00">nodeB</text>
<text text-anchor="start" x="217.5" y="-269.5" font-family="Helvetica,sans-Serif" font-size="10.00">+</text>
<text text-anchor="start" x="230.5" y="-269.5" font-family="Helvetica,sans-Serif" font-size="10.00">segmentIndex</text>
<text text-anchor="start" x="217.5" y="-254.5" font-family="Helvetica,sans-Serif" font-size="10.00">+</text>
<text text-anchor="start" x="230.5" y="-254.5" font-family="Helvetica,sans-Serif" font-size="10.00">opposite()</text>
<polygon fill="#666666" stroke="#666666" points="213.5,-309.5 213.5,-309.5 304.5,-309.5 304.5,-309.5 213.5,-309.5"/>
<polygon fill="#666666" stroke="#666666" points="213.5,-264.5 213.5,-264.5 228.5,-264.5 228.5,-264.5 213.5,-264.5"/>
<polygon fill="#666666" stroke="#666666" points="228.5,-264.5 228.5,-264.5 304.5,-264.5 304.5,-264.5 228.5,-264.5"/>
<polygon fill="none" stroke="#666666" points="213,-248 213,-327 304,-327 304,-248 213,-248"/>
</a>
</g>
</g>
<!-- Node7&#45;&gt;Node6 -->
<g id="edge6_Node000006_Node000007" class="edge">
<title>Node7&#45;&gt;Node6</title>
<g id="a_edge6_Node000006_Node000007"><a xlink:title=" ">
<path fill="none" stroke="#63b8ff" d="M258.5,-247.74C258.5,-234.79 258.5,-220.44 258.5,-207.74"/>
<polygon fill="none" stroke="#63b8ff" points="258.5,-207.7 254.5,-201.7 258.5,-195.7 262.5,-201.7 258.5,-207.7"/>
</a>
</g>
<text text-anchor="middle" x="287.5" y="-222" font-family="Helvetica,sans-Serif" font-size="10.00" fill="grey"> +elements</text>
</g>
<!-- Node8 -->
<g id="Node000008" class="node">
<title>Node8</title>
<g id="a_Node000008"><a xlink:title=" ">
<polygon fill="white" stroke="transparent" points="467,-201 342,-201 342,-141 467,-141 467,-201"/>
<text text-anchor="start" x="347.5" y="-189" font-family="Helvetica,sans-Serif" font-size="10.00">std::vector&lt; std::vector</text>
<text text-anchor="start" x="373.5" y="-178" font-family="Helvetica,sans-Serif" font-size="10.00">&lt; size_t &gt; &gt;</text>
<text text-anchor="start" x="403" y="-163" font-family="Helvetica,sans-Serif" font-size="10.00"> </text>
<text text-anchor="start" x="403" y="-148" font-family="Helvetica,sans-Serif" font-size="10.00"> </text>
<polygon fill="#666666" stroke="#666666" points="342.5,-173 342.5,-173 467.5,-173 467.5,-173 342.5,-173"/>
<polygon fill="#666666" stroke="#666666" points="342.5,-158 342.5,-158 467.5,-158 467.5,-158 342.5,-158"/>
<polygon fill="none" stroke="#666666" points="342,-141 342,-201 467,-201 467,-141 342,-141"/>
</a>
</g>
</g>
<!-- Node8&#45;&gt;Node1 -->
<g id="edge7_Node000001_Node000008" class="edge">
<title>Node8&#45;&gt;Node1</title>
<g id="a_edge7_Node000001_Node000008"><a xlink:title=" ">
<path fill="none" stroke="#63b8ff" d="M369.53,-140.78C354.51,-128.23 336.51,-113.19 319.42,-98.91"/>
<polygon fill="none" stroke="#63b8ff" points="319.25,-98.77 312.08,-97.99 310.05,-91.07 317.21,-91.85 319.25,-98.77"/>
</a>
</g>
<text text-anchor="middle" x="375" y="-115" font-family="Helvetica,sans-Serif" font-size="10.00" fill="grey"> +adjacency</text>
</g>
<!-- Node9 -->
<g id="Node000009" class="node">
<title>Node9</title>
<g id="a_Node000009"><a xlink:title=" ">
<polygon fill="white" stroke="transparent" points="461,-312 348,-312 348,-263 461,-263 461,-312"/>
<text text-anchor="start" x="353.5" y="-299.5" font-family="Helvetica,sans-Serif" font-size="10.00">std::vector&lt; size_t &gt;</text>
<text text-anchor="start" x="364" y="-284.5" font-family="Helvetica,sans-Serif" font-size="10.00">+</text>
<text text-anchor="start" x="388.5" y="-284.5" font-family="Helvetica,sans-Serif" font-size="10.00">elements</text>
<text text-anchor="start" x="403" y="-269.5" font-family="Helvetica,sans-Serif" font-size="10.00"> </text>
<polygon fill="#666666" stroke="#666666" points="348.5,-294.5 348.5,-294.5 461.5,-294.5 461.5,-294.5 348.5,-294.5"/>
<polygon fill="#666666" stroke="#666666" points="348.5,-279.5 348.5,-279.5 386.5,-279.5 386.5,-279.5 348.5,-279.5"/>
<polygon fill="#666666" stroke="#666666" points="386.5,-279.5 386.5,-279.5 461.5,-279.5 461.5,-279.5 386.5,-279.5"/>
<polygon fill="none" stroke="#666666" points="348,-263 348,-312 461,-312 461,-263 348,-263"/>
</a>
</g>
</g>
<!-- Node9&#45;&gt;Node8 -->
<g id="edge8_Node000008_Node000009" class="edge">
<title>Node9&#45;&gt;Node8</title>
<g id="a_edge8_Node000008_Node000009"><a xlink:title=" ">
<path fill="none" stroke="#63b8ff" d="M404.5,-262.78C404.5,-248.58 404.5,-230.13 404.5,-213.58"/>
<polygon fill="none" stroke="#63b8ff" points="404.5,-213.39 400.5,-207.39 404.5,-201.39 408.5,-207.39 404.5,-213.39"/>
</a>
</g>
<text text-anchor="middle" x="433.5" y="-222" font-family="Helvetica,sans-Serif" font-size="10.00" fill="grey"> +elements</text>
</g>
</g>
</svg>
