<?xml version="1.0" encoding="UTF-8" standalone="no"?>
<!DOCTYPE svg PUBLIC "-//W3C//DTD SVG 1.1//EN"
 "http://www.w3.org/Graphics/SVG/1.1/DTD/svg11.dtd">
<!-- Generated by graphviz version 2.43.0 (0)
 -->
<!-- Title: SimulateurFerroviaire/Modules/Elements/ShuntingElements/SwitchBlock.cpp Pages: 1 -->
<svg width="703pt" height="346pt"
 viewBox="0.00 0.00 702.50 346.00" xmlns="http://www.w3.org/2000/svg" xmlns:xlink="http://www.w3.org/1999/xlink">
<g id="graph0" class="graph" transform="scale(1 1) rotate(0) translate(4 342)">
<title>SimulateurFerroviaire/Modules/Elements/ShuntingElements/SwitchBlock.cpp</title>
<!-- Node1 -->
<g id="Node000001" class="node">
<title>Node1</title>
<g id="a_Node000001"><a xlink:title="Implémentation du modèle d&#39;aiguillage SwitchBlock.">
<polygon fill="#999999" stroke="#666666" points="490.5,-338 289.5,-338 289.5,-297 490.5,-297 490.5,-338"/>
<text text-anchor="start" x="297.5" y="-326" font-family="Helvetica,sans-Serif" font-size="10.00">SimulateurFerroviaire</text>
<text text-anchor="start" x="297.5" y="-315" font-family="Helvetica,sans-Serif" font-size="10.00">/Modules/Elements/ShuntingElements</text>
<text text-anchor="middle" x="390" y="-304" font-family="Helvetica,sans-Serif" font-size="10.00">/SwitchBlock.cpp</text>
</a>
</g>
</g>
<!-- Node2 -->
<g id="Node000002" class="node">
<title>Node2</title>
<g id="a_Node000002"><a xlink:href="../../dc/d01/SwitchBlock_8h.html" target="_top" xlink:title="Modèle de domaine d&#39;un aiguillage ferroviaire à 3 branches.">
<polygon fill="white" stroke="#666666" points="265.5,-261 180.5,-261 180.5,-242 265.5,-242 265.5,-261"/>
<text text-anchor="middle" x="223" y="-249" font-family="Helvetica,sans-Serif" font-size="10.00">SwitchBlock.h</text>
</a>
</g>
</g>
<!-- Node1&#45;&gt;Node2 -->
<g id="edge1_Node000001_Node000002" class="edge">
<title>Node1&#45;&gt;Node2</title>
<g id="a_edge1_Node000001_Node000002"><a xlink:title=" ">
<path fill="none" stroke="#63b8ff" d="M338.99,-296.95C311.63,-286.46 278.75,-273.87 255,-264.76"/>
<polygon fill="#63b8ff" stroke="#63b8ff" points="256.01,-261.4 245.42,-261.09 253.5,-267.94 256.01,-261.4"/>
</a>
</g>
</g>
<!-- Node18 -->
<g id="Node000018" class="node">
<title>Node18</title>
<g id="a_Node000018"><a xlink:title=" ">
<polygon fill="#e0e0e0" stroke="#999999" points="348,-261 284,-261 284,-242 348,-242 348,-261"/>
<text text-anchor="middle" x="316" y="-249" font-family="Helvetica,sans-Serif" font-size="10.00">algorithm</text>
</a>
</g>
</g>
<!-- Node1&#45;&gt;Node18 -->
<g id="edge20_Node000001_Node000018" class="edge">
<title>Node1&#45;&gt;Node18</title>
<g id="a_edge20_Node000001_Node000018"><a xlink:title=" ">
<path fill="none" stroke="#63b8ff" d="M367.4,-296.95C356.64,-287.65 343.95,-276.68 333.88,-267.96"/>
<polygon fill="#63b8ff" stroke="#63b8ff" points="335.98,-265.15 326.13,-261.26 331.4,-270.45 335.98,-265.15"/>
</a>
</g>
</g>
<!-- Node19 -->
<g id="Node000019" class="node">
<title>Node19</title>
<g id="a_Node000019"><a xlink:title=" ">
<polygon fill="#e0e0e0" stroke="#999999" points="413.5,-261 366.5,-261 366.5,-242 413.5,-242 413.5,-261"/>
<text text-anchor="middle" x="390" y="-249" font-family="Helvetica,sans-Serif" font-size="10.00">cmath</text>
</a>
</g>
</g>
<!-- Node1&#45;&gt;Node19 -->
<g id="edge21_Node000001_Node000019" class="edge">
<title>Node1&#45;&gt;Node19</title>
<g id="a_edge21_Node000001_Node000019"><a xlink:title=" ">
<path fill="none" stroke="#63b8ff" d="M390,-296.95C390,-288.85 390,-279.5 390,-271.47"/>
<polygon fill="#63b8ff" stroke="#63b8ff" points="393.5,-271.26 390,-261.26 386.5,-271.26 393.5,-271.26"/>
</a>
</g>
</g>
<!-- Node20 -->
<g id="Node000020" class="node">
<title>Node20</title>
<g id="a_Node000020"><a xlink:title=" ">
<polygon fill="#e0e0e0" stroke="#999999" points="488,-261 432,-261 432,-242 488,-242 488,-261"/>
<text text-anchor="middle" x="460" y="-249" font-family="Helvetica,sans-Serif" font-size="10.00">iomanip</text>
</a>
</g>
</g>
<!-- Node1&#45;&gt;Node20 -->
<g id="edge22_Node000001_Node000020" class="edge">
<title>Node1&#45;&gt;Node20</title>
<g id="a_edge22_Node000001_Node000020"><a xlink:title=" ">
<path fill="none" stroke="#63b8ff" d="M411.38,-296.95C421.46,-287.74 433.32,-276.9 442.8,-268.23"/>
<polygon fill="#63b8ff" stroke="#63b8ff" points="445.4,-270.59 450.42,-261.26 440.68,-265.43 445.4,-270.59"/>
</a>
</g>
</g>
<!-- Node21 -->
<g id="Node000021" class="node">
<title>Node21</title>
<g id="a_Node000021"><a xlink:title=" ">
<polygon fill="#e0e0e0" stroke="#999999" points="571.5,-261 506.5,-261 506.5,-242 571.5,-242 571.5,-261"/>
<text text-anchor="middle" x="539" y="-249" font-family="Helvetica,sans-Serif" font-size="10.00">stdexcept</text>
</a>
</g>
</g>
<!-- Node1&#45;&gt;Node21 -->
<g id="edge23_Node000001_Node000021" class="edge">
<title>Node1&#45;&gt;Node21</title>
<g id="a_edge23_Node000001_Node000021"><a xlink:title=" ">
<path fill="none" stroke="#63b8ff" d="M435.51,-296.95C459.6,-286.6 488.47,-274.2 509.6,-265.13"/>
<polygon fill="#63b8ff" stroke="#63b8ff" points="511.19,-268.25 519,-261.09 508.43,-261.82 511.19,-268.25"/>
</a>
</g>
</g>
<!-- Node3 -->
<g id="Node000003" class="node">
<title>Node3</title>
<g id="a_Node000003"><a xlink:title=" ">
<polygon fill="#e0e0e0" stroke="#999999" points="42,-200.5 0,-200.5 0,-181.5 42,-181.5 42,-200.5"/>
<text text-anchor="middle" x="21" y="-188.5" font-family="Helvetica,sans-Serif" font-size="10.00">array</text>
</a>
</g>
</g>
<!-- Node2&#45;&gt;Node3 -->
<g id="edge2_Node000002_Node000003" class="edge">
<title>Node2&#45;&gt;Node3</title>
<g id="a_edge2_Node000002_Node000003"><a xlink:title=" ">
<path fill="none" stroke="#63b8ff" d="M181.35,-241.98C146.11,-234.23 94.54,-221.64 51,-206 49.78,-205.56 48.55,-205.09 47.31,-204.6"/>
<polygon fill="#63b8ff" stroke="#63b8ff" points="48.47,-201.29 37.91,-200.55 45.7,-207.72 48.47,-201.29"/>
</a>
</g>
</g>
<!-- Node4 -->
<g id="Node000004" class="node">
<title>Node4</title>
<g id="a_Node000004"><a xlink:title=" ">
<polygon fill="#e0e0e0" stroke="#999999" points="116,-200.5 60,-200.5 60,-181.5 116,-181.5 116,-200.5"/>
<text text-anchor="middle" x="88" y="-188.5" font-family="Helvetica,sans-Serif" font-size="10.00">optional</text>
</a>
</g>
</g>
<!-- Node2&#45;&gt;Node4 -->
<g id="edge3_Node000002_Node000004" class="edge">
<title>Node2&#45;&gt;Node4</title>
<g id="a_edge3_Node000002_Node000004"><a xlink:title=" ">
<path fill="none" stroke="#63b8ff" d="M203.37,-241.99C180.67,-232.16 143.1,-215.88 117.03,-204.58"/>
<polygon fill="#63b8ff" stroke="#63b8ff" points="118.22,-201.28 107.65,-200.52 115.44,-207.7 118.22,-201.28"/>
</a>
</g>
</g>
<!-- Node5 -->
<g id="Node000005" class="node">
<title>Node5</title>
<g id="a_Node000005"><a xlink:title=" ">
<polygon fill="#e0e0e0" stroke="#999999" points="157,-19 101,-19 101,0 157,0 157,-19"/>
<text text-anchor="middle" x="129" y="-7" font-family="Helvetica,sans-Serif" font-size="10.00">sstream</text>
</a>
</g>
</g>
<!-- Node2&#45;&gt;Node5 -->
<g id="edge4_Node000002_Node000005" class="edge">
<title>Node2&#45;&gt;Node5</title>
<g id="a_edge4_Node000002_Node000005"><a xlink:title=" ">
<path fill="none" stroke="#63b8ff" d="M215.75,-241.79C208.87,-233.16 198.61,-219.33 192,-206 161.42,-144.3 141.13,-64.45 133,-28.93"/>
<polygon fill="#63b8ff" stroke="#63b8ff" points="136.39,-28.04 130.79,-19.04 129.56,-29.56 136.39,-28.04"/>
</a>
</g>
</g>
<!-- Node6 -->
<g id="Node000006" class="node">
<title>Node6</title>
<g id="a_Node000006"><a xlink:title=" ">
<polygon fill="#e0e0e0" stroke="#999999" points="219,-19 175,-19 175,0 219,0 219,-19"/>
<text text-anchor="middle" x="197" y="-7" font-family="Helvetica,sans-Serif" font-size="10.00">string</text>
</a>
</g>
</g>
<!-- Node2&#45;&gt;Node6 -->
<g id="edge5_Node000002_Node000006" class="edge">
<title>Node2&#45;&gt;Node6</title>
<g id="a_edge5_Node000002_Node000006"><a xlink:title=" ">
<path fill="none" stroke="#63b8ff" d="M217.22,-241.74C211.86,-233.08 204.23,-219.23 201,-206 185.57,-142.89 190.97,-64.89 194.69,-29.52"/>
<polygon fill="#63b8ff" stroke="#63b8ff" points="198.2,-29.58 195.85,-19.25 191.25,-28.79 198.2,-29.58"/>
</a>
</g>
</g>
<!-- Node7 -->
<g id="Node000007" class="node">
<title>Node7</title>
<g id="a_Node000007"><a xlink:title=" ">
<polygon fill="#e0e0e0" stroke="#999999" points="384.5,-200.5 337.5,-200.5 337.5,-181.5 384.5,-181.5 384.5,-200.5"/>
<text text-anchor="middle" x="361" y="-188.5" font-family="Helvetica,sans-Serif" font-size="10.00">vector</text>
</a>
</g>
</g>
<!-- Node2&#45;&gt;Node7 -->
<g id="edge6_Node000002_Node000007" class="edge">
<title>Node2&#45;&gt;Node7</title>
<g id="a_edge6_Node000002_Node000007"><a xlink:title=" ">
<path fill="none" stroke="#63b8ff" d="M243.76,-241.89C265.15,-233 299.47,-218.66 329,-206 330,-205.57 331.02,-205.13 332.05,-204.69"/>
<polygon fill="#63b8ff" stroke="#63b8ff" points="333.61,-207.83 341.39,-200.63 330.82,-201.41 333.61,-207.83"/>
</a>
</g>
</g>
<!-- Node8 -->
<g id="Node000008" class="node">
<title>Node8</title>
<g id="a_Node000008"><a xlink:href="../../d6/d01/CoordinateLatLon_8h.html" target="_top" xlink:title="Représentation d&#39;une coordonnée géographique WGS&#45;84 (latitude, longitude).">
<polygon fill="white" stroke="#666666" points="539.5,-206 402.5,-206 402.5,-176 539.5,-176 539.5,-206"/>
<text text-anchor="start" x="410.5" y="-194" font-family="Helvetica,sans-Serif" font-size="10.00">Engine/Core/Coordinates</text>
<text text-anchor="middle" x="471" y="-183" font-family="Helvetica,sans-Serif" font-size="10.00">/CoordinateLatLon.h</text>
</a>
</g>
</g>
<!-- Node2&#45;&gt;Node8 -->
<g id="edge7_Node000002_Node000008" class="edge">
<title>Node2&#45;&gt;Node8</title>
<g id="a_edge7_Node000002_Node000008"><a xlink:title=" ">
<path fill="none" stroke="#63b8ff" d="M259.06,-241.99C296.23,-233.23 355.13,-219.33 401.41,-208.42"/>
<polygon fill="#63b8ff" stroke="#63b8ff" points="402.45,-211.77 411.38,-206.06 400.84,-204.95 402.45,-211.77"/>
</a>
</g>
</g>
<!-- Node9 -->
<g id="Node000009" class="node">
<title>Node9</title>
<g id="a_Node000009"><a xlink:href="../../db/d03/CoordinateXY_8h.html" target="_top" xlink:title="Représentation d&#39;une coordonnée plane en mètres (système métrique UTM).">
<polygon fill="white" stroke="#666666" points="694.5,-206 557.5,-206 557.5,-176 694.5,-176 694.5,-206"/>
<text text-anchor="start" x="565.5" y="-194" font-family="Helvetica,sans-Serif" font-size="10.00">Engine/Core/Coordinates</text>
<text text-anchor="middle" x="626" y="-183" font-family="Helvetica,sans-Serif" font-size="10.00">/CoordinateXY.h</text>
</a>
</g>
</g>
<!-- Node2&#45;&gt;Node9 -->
<g id="edge8_Node000002_Node000009" class="edge">
<title>Node2&#45;&gt;Node9</title>
<g id="a_edge8_Node000002_Node000009"><a xlink:title=" ">
<path fill="none" stroke="#63b8ff" d="M265.55,-243.43C268.75,-242.94 271.92,-242.45 275,-242 393.31,-224.56 425.95,-224.96 547.14,-206.25"/>
<polygon fill="#63b8ff" stroke="#63b8ff" points="547.84,-209.68 557.18,-204.69 546.76,-202.76 547.84,-209.68"/>
</a>
</g>
</g>
<!-- Node10 -->
<g id="Node000010" class="node">
<title>Node10</title>
<g id="a_Node000010"><a xlink:href="../../df/d02/ShuntingElement_8h.html" target="_top" xlink:title="Interface abstraite pour tous les éléments de shuntage ferroviaire.">
<polygon fill="white" stroke="#666666" points="319.5,-200.5 210.5,-200.5 210.5,-181.5 319.5,-181.5 319.5,-200.5"/>
<text text-anchor="middle" x="265" y="-188.5" font-family="Helvetica,sans-Serif" font-size="10.00">ShuntingElement.h</text>
</a>
</g>
</g>
<!-- Node2&#45;&gt;Node10 -->
<g id="edge9_Node000002_Node000010" class="edge">
<title>Node2&#45;&gt;Node10</title>
<g id="a_edge9_Node000002_Node000010"><a xlink:title=" ">
<path fill="none" stroke="#63b8ff" d="M229.2,-241.87C235.4,-233.23 245.11,-219.7 252.86,-208.92"/>
<polygon fill="#63b8ff" stroke="#63b8ff" points="255.79,-210.83 258.78,-200.67 250.1,-206.75 255.79,-210.83"/>
</a>
</g>
</g>
<!-- Node11 -->
<g id="Node000011" class="node">
<title>Node11</title>
<g id="a_Node000011"><a xlink:href="../../d5/d02/Element_8h.html" target="_top" xlink:title="Classe de base abstraite pour tous les éléments interactifs ferroviaires.">
<polygon fill="white" stroke="#666666" points="368.5,-140 209.5,-140 209.5,-121 368.5,-121 368.5,-140"/>
<text text-anchor="middle" x="289" y="-128" font-family="Helvetica,sans-Serif" font-size="10.00">Modules/Elements/Element.h</text>
</a>
</g>
</g>
<!-- Node10&#45;&gt;Node11 -->
<g id="edge10_Node000010_Node000011" class="edge">
<title>Node10&#45;&gt;Node11</title>
<g id="a_edge10_Node000010_Node000011"><a xlink:title=" ">
<path fill="none" stroke="#63b8ff" d="M268.54,-181.37C271.94,-173.07 277.19,-160.28 281.52,-149.72"/>
<polygon fill="#63b8ff" stroke="#63b8ff" points="284.89,-150.75 285.44,-140.17 278.41,-148.09 284.89,-150.75"/>
</a>
</g>
</g>
<!-- Node11&#45;&gt;Node6 -->
<g id="edge11_Node000011_Node000006" class="edge">
<title>Node11&#45;&gt;Node6</title>
<g id="a_edge11_Node000011_Node000006"><a xlink:title=" ">
<path fill="none" stroke="#63b8ff" d="M282.38,-120.94C267.27,-101.4 230,-53.18 210.07,-27.4"/>
<polygon fill="#63b8ff" stroke="#63b8ff" points="212.69,-25.07 203.8,-19.3 207.15,-29.35 212.69,-25.07"/>
</a>
</g>
</g>
<!-- Node12 -->
<g id="Node000012" class="node">
<title>Node12</title>
<g id="a_Node000012"><a xlink:href="../../dd/d00/Logger_8h.html" target="_top" xlink:title="Système de journalisation à 5 niveaux de trace, un fichier par moteur.">
<polygon fill="white" stroke="#666666" points="394.5,-85 283.5,-85 283.5,-55 394.5,-55 394.5,-85"/>
<text text-anchor="start" x="291.5" y="-73" font-family="Helvetica,sans-Serif" font-size="10.00">Engine/Core/Logger</text>
<text text-anchor="middle" x="339" y="-62" font-family="Helvetica,sans-Serif" font-size="10.00">/Logger.h</text>
</a>
</g>
</g>
<!-- Node11&#45;&gt;Node12 -->
<g id="edge12_Node000011_Node000012" class="edge">
<title>Node11&#45;&gt;Node12</title>
<g id="a_edge12_Node000011_Node000012"><a xlink:title=" ">
<path fill="none" stroke="#63b8ff" d="M296.38,-120.87C302.66,-113.52 311.96,-102.63 320.27,-92.91"/>
<polygon fill="#63b8ff" stroke="#63b8ff" points="323.1,-94.99 326.94,-85.11 317.78,-90.44 323.1,-94.99"/>
</a>
</g>
</g>
<!-- Node12&#45;&gt;Node5 -->
<g id="edge17_Node000012_Node000005" class="edge">
<title>Node12&#45;&gt;Node5</title>
<g id="a_edge17_Node000012_Node000005"><a xlink:title=" ">
<path fill="none" stroke="#63b8ff" d="M288.7,-54.99C251.42,-44.6 201.38,-30.66 167.32,-21.17"/>
<polygon fill="#63b8ff" stroke="#63b8ff" points="167.86,-17.69 157.29,-18.38 165.98,-24.44 167.86,-17.69"/>
</a>
</g>
</g>
<!-- Node12&#45;&gt;Node6 -->
<g id="edge18_Node000012_Node000006" class="edge">
<title>Node12&#45;&gt;Node6</title>
<g id="a_edge18_Node000012_Node000006"><a xlink:title=" ">
<path fill="none" stroke="#63b8ff" d="M304.99,-54.99C281.4,-45.27 250.26,-32.44 227.48,-23.06"/>
<polygon fill="#63b8ff" stroke="#63b8ff" points="228.55,-19.71 217.97,-19.14 225.88,-26.18 228.55,-19.71"/>
</a>
</g>
</g>
<!-- Node13 -->
<g id="Node000013" class="node">
<title>Node13</title>
<g id="a_Node000013"><a xlink:title=" ">
<polygon fill="#e0e0e0" stroke="#999999" points="593,-19 549,-19 549,0 593,0 593,-19"/>
<text text-anchor="middle" x="571" y="-7" font-family="Helvetica,sans-Serif" font-size="10.00">ctime</text>
</a>
</g>
</g>
<!-- Node12&#45;&gt;Node13 -->
<g id="edge13_Node000012_Node000013" class="edge">
<title>Node12&#45;&gt;Node13</title>
<g id="a_edge13_Node000012_Node000013"><a xlink:title=" ">
<path fill="none" stroke="#63b8ff" d="M394.55,-55.56C432.66,-46.25 484.65,-33.38 538.88,-19.25"/>
<polygon fill="#63b8ff" stroke="#63b8ff" points="539.88,-22.61 548.67,-16.69 538.11,-15.83 539.88,-22.61"/>
</a>
</g>
</g>
<!-- Node14 -->
<g id="Node000014" class="node">
<title>Node14</title>
<g id="a_Node000014"><a xlink:title=" ">
<polygon fill="#e0e0e0" stroke="#999999" points="305,-19 237,-19 237,0 305,0 305,-19"/>
<text text-anchor="middle" x="271" y="-7" font-family="Helvetica,sans-Serif" font-size="10.00">filesystem</text>
</a>
</g>
</g>
<!-- Node12&#45;&gt;Node14 -->
<g id="edge14_Node000012_Node000014" class="edge">
<title>Node12&#45;&gt;Node14</title>
<g id="a_edge14_Node000012_Node000014"><a xlink:title=" ">
<path fill="none" stroke="#63b8ff" d="M322.54,-54.84C312.37,-46.09 299.31,-34.85 288.88,-25.88"/>
<polygon fill="#63b8ff" stroke="#63b8ff" points="291.05,-23.13 281.19,-19.27 286.49,-28.44 291.05,-23.13"/>
</a>
</g>
</g>
<!-- Node15 -->
<g id="Node000015" class="node">
<title>Node15</title>
<g id="a_Node000015"><a xlink:title=" ">
<polygon fill="#e0e0e0" stroke="#999999" points="378.5,-19 323.5,-19 323.5,0 378.5,0 378.5,-19"/>
<text text-anchor="middle" x="351" y="-7" font-family="Helvetica,sans-Serif" font-size="10.00">fstream</text>
</a>
</g>
</g>
<!-- Node12&#45;&gt;Node15 -->
<g id="edge15_Node000012_Node000015" class="edge">
<title>Node12&#45;&gt;Node15</title>
<g id="a_edge15_Node000012_Node000015"><a xlink:title=" ">
<path fill="none" stroke="#63b8ff" d="M341.9,-54.84C343.49,-47.13 345.46,-37.49 347.17,-29.17"/>
<polygon fill="#63b8ff" stroke="#63b8ff" points="350.62,-29.77 349.2,-19.27 343.76,-28.36 350.62,-29.77"/>
</a>
</g>
</g>
<!-- Node16 -->
<g id="Node000016" class="node">
<title>Node16</title>
<g id="a_Node000016"><a xlink:title=" ">
<polygon fill="#e0e0e0" stroke="#999999" points="445,-19 397,-19 397,0 445,0 445,-19"/>
<text text-anchor="middle" x="421" y="-7" font-family="Helvetica,sans-Serif" font-size="10.00">mutex</text>
</a>
</g>
</g>
<!-- Node12&#45;&gt;Node16 -->
<g id="edge16_Node000012_Node000016" class="edge">
<title>Node12&#45;&gt;Node16</title>
<g id="a_edge16_Node000012_Node000016"><a xlink:title=" ">
<path fill="none" stroke="#63b8ff" d="M358.85,-54.84C371.48,-45.83 387.8,-34.18 400.55,-25.09"/>
<polygon fill="#63b8ff" stroke="#63b8ff" points="402.6,-27.92 408.71,-19.27 398.54,-22.22 402.6,-27.92"/>
</a>
</g>
</g>
<!-- Node17 -->
<g id="Node000017" class="node">
<title>Node17</title>
<g id="a_Node000017"><a xlink:title=" ">
<polygon fill="#e0e0e0" stroke="#999999" points="531,-19 463,-19 463,0 531,0 531,-19"/>
<text text-anchor="middle" x="497" y="-7" font-family="Helvetica,sans-Serif" font-size="10.00">windows.h</text>
</a>
</g>
</g>
<!-- Node12&#45;&gt;Node17 -->
<g id="edge19_Node000012_Node000017" class="edge">
<title>Node12&#45;&gt;Node17</title>
<g id="a_edge19_Node000012_Node000017"><a xlink:title=" ">
<path fill="none" stroke="#63b8ff" d="M376.84,-54.99C403.44,-45.14 438.67,-32.1 464.1,-22.68"/>
<polygon fill="#63b8ff" stroke="#63b8ff" points="465.5,-25.89 473.67,-19.14 463.07,-19.33 465.5,-25.89"/>
</a>
</g>
</g>
</g>
</svg>
