<?xml version="1.0" encoding="UTF-8" standalone="no"?>
<!DOCTYPE svg PUBLIC "-//W3C//DTD SVG 1.1//EN"
 "http://www.w3.org/Graphics/SVG/1.1/DTD/svg11.dtd">
<!-- Generated by graphviz version 2.43.0 (0)
 -->
<!-- Title: WebViewPanel Pages: 1 -->
<svg width="329pt" height="1140pt"
 viewBox="0.00 0.00 329.00 1140.00" xmlns="http://www.w3.org/2000/svg" xmlns:xlink="http://www.w3.org/1999/xlink">
<g id="graph0" class="graph" transform="scale(1 1) rotate(0) translate(4 1136)">
<title>WebViewPanel</title>
<!-- Node1 -->
<g id="Node000001" class="node">
<title>Node1</title>
<g id="a_Node000001"><a xlink:title="Wrapper Win32 autour de WebView2 pour affichage HTML embarqué.">
<polygon fill="#999999" stroke="transparent" points="242.5,-379 91.5,-379 91.5,0 242.5,0 242.5,-379"/>
<text text-anchor="start" x="131.5" y="-366.5" font-family="Helvetica,sans-Serif" font-size="10.00">WebViewPanel</text>
<text text-anchor="start" x="98.5" y="-351.5" font-family="Helvetica,sans-Serif" font-size="10.00">&#45;</text>
<text text-anchor="start" x="109" y="-351.5" font-family="Helvetica,sans-Serif" font-size="10.00">m_parentHwnd</text>
<text text-anchor="start" x="98.5" y="-336.5" font-family="Helvetica,sans-Serif" font-size="10.00">&#45;</text>
<text text-anchor="start" x="109" y="-336.5" font-family="Helvetica,sans-Serif" font-size="10.00">m_controller</text>
<text text-anchor="start" x="98.5" y="-321.5" font-family="Helvetica,sans-Serif" font-size="10.00">&#45;</text>
<text text-anchor="start" x="109" y="-321.5" font-family="Helvetica,sans-Serif" font-size="10.00">m_webview</text>
<text text-anchor="start" x="98.5" y="-306.5" font-family="Helvetica,sans-Serif" font-size="10.00">&#45;</text>
<text text-anchor="start" x="109" y="-306.5" font-family="Helvetica,sans-Serif" font-size="10.00">m_isInitialized</text>
<text text-anchor="start" x="98.5" y="-291.5" font-family="Helvetica,sans-Serif" font-size="10.00">&#45;</text>
<text text-anchor="start" x="109" y="-291.5" font-family="Helvetica,sans-Serif" font-size="10.00">m_onInitialized</text>
<text text-anchor="start" x="98.5" y="-276.5" font-family="Helvetica,sans-Serif" font-size="10.00">&#45;</text>
<text text-anchor="start" x="109" y="-276.5" font-family="Helvetica,sans-Serif" font-size="10.00">m_onMessageReceived</text>
<text text-anchor="start" x="96" y="-261.5" font-family="Helvetica,sans-Serif" font-size="10.00">+</text>
<text text-anchor="start" x="109" y="-261.5" font-family="Helvetica,sans-Serif" font-size="10.00">WebViewPanel()</text>
<text text-anchor="start" x="96" y="-246.5" font-family="Helvetica,sans-Serif" font-size="10.00">+</text>
<text text-anchor="start" x="109" y="-246.5" font-family="Helvetica,sans-Serif" font-size="10.00">~WebViewPanel()</text>
<text text-anchor="start" x="96" y="-231.5" font-family="Helvetica,sans-Serif" font-size="10.00">+</text>
<text text-anchor="start" x="109" y="-231.5" font-family="Helvetica,sans-Serif" font-size="10.00">WebViewPanel()</text>
<text text-anchor="start" x="96" y="-216.5" font-family="Helvetica,sans-Serif" font-size="10.00">+</text>
<text text-anchor="start" x="109" y="-216.5" font-family="Helvetica,sans-Serif" font-size="10.00">operator=()</text>
<text text-anchor="start" x="96" y="-201.5" font-family="Helvetica,sans-Serif" font-size="10.00">+</text>
<text text-anchor="start" x="109" y="-201.5" font-family="Helvetica,sans-Serif" font-size="10.00">create()</text>
<text text-anchor="start" x="96" y="-186.5" font-family="Helvetica,sans-Serif" font-size="10.00">+</text>
<text text-anchor="start" x="109" y="-186.5" font-family="Helvetica,sans-Serif" font-size="10.00">resize()</text>
<text text-anchor="start" x="96" y="-171.5" font-family="Helvetica,sans-Serif" font-size="10.00">+</text>
<text text-anchor="start" x="109" y="-171.5" font-family="Helvetica,sans-Serif" font-size="10.00">navigate()</text>
<text text-anchor="start" x="96" y="-156.5" font-family="Helvetica,sans-Serif" font-size="10.00">+</text>
<text text-anchor="start" x="109" y="-156.5" font-family="Helvetica,sans-Serif" font-size="10.00">navigateToString()</text>
<text text-anchor="start" x="96" y="-141.5" font-family="Helvetica,sans-Serif" font-size="10.00">+</text>
<text text-anchor="start" x="109" y="-141.5" font-family="Helvetica,sans-Serif" font-size="10.00">isInitialized()</text>
<text text-anchor="start" x="96" y="-126.5" font-family="Helvetica,sans-Serif" font-size="10.00">+</text>
<text text-anchor="start" x="109" y="-126.5" font-family="Helvetica,sans-Serif" font-size="10.00">executeScript()</text>
<text text-anchor="start" x="96" y="-111.5" font-family="Helvetica,sans-Serif" font-size="10.00">+</text>
<text text-anchor="start" x="109" y="-111.5" font-family="Helvetica,sans-Serif" font-size="10.00">setOnInitialized()</text>
<text text-anchor="start" x="96" y="-96.5" font-family="Helvetica,sans-Serif" font-size="10.00">+</text>
<text text-anchor="start" x="109" y="-96.5" font-family="Helvetica,sans-Serif" font-size="10.00">close()</text>
<text text-anchor="start" x="96" y="-81.5" font-family="Helvetica,sans-Serif" font-size="10.00">+</text>
<text text-anchor="start" x="109" y="-81.5" font-family="Helvetica,sans-Serif" font-size="10.00">setVirtualHostMapping()</text>
<text text-anchor="start" x="96" y="-66.5" font-family="Helvetica,sans-Serif" font-size="10.00">+</text>
<text text-anchor="start" x="109" y="-66.5" font-family="Helvetica,sans-Serif" font-size="10.00">setOnMessageReceived()</text>
<text text-anchor="start" x="98.5" y="-51.5" font-family="Helvetica,sans-Serif" font-size="10.00">&#45;</text>
<text text-anchor="start" x="109" y="-51.5" font-family="Helvetica,sans-Serif" font-size="10.00">initializeWebView()</text>
<text text-anchor="start" x="98.5" y="-36.5" font-family="Helvetica,sans-Serif" font-size="10.00">&#45;</text>
<text text-anchor="start" x="109" y="-36.5" font-family="Helvetica,sans-Serif" font-size="10.00">onEnvironmentCreated()</text>
<text text-anchor="start" x="98.5" y="-21.5" font-family="Helvetica,sans-Serif" font-size="10.00">&#45;</text>
<text text-anchor="start" x="109" y="-21.5" font-family="Helvetica,sans-Serif" font-size="10.00">onControllerCreated()</text>
<text text-anchor="start" x="98.5" y="-6.5" font-family="Helvetica,sans-Serif" font-size="10.00">&#45;</text>
<text text-anchor="start" x="109" y="-6.5" font-family="Helvetica,sans-Serif" font-size="10.00">onWebMessageReceived()</text>
<polygon fill="#666666" stroke="#666666" points="92,-361.5 92,-361.5 243,-361.5 243,-361.5 92,-361.5"/>
<polygon fill="#666666" stroke="#666666" points="92,-271.5 92,-271.5 107,-271.5 107,-271.5 92,-271.5"/>
<polygon fill="#666666" stroke="#666666" points="107,-271.5 107,-271.5 243,-271.5 243,-271.5 107,-271.5"/>
<polygon fill="none" stroke="#666666" points="91.5,0 91.5,-379 242.5,-379 242.5,0 91.5,0"/>
</a>
</g>
</g>
<!-- Node2 -->
<g id="Node000002" class="node">
<title>Node2</title>
<g id="a_Node000002"><a xlink:href="../../db/d03/classLogger.html" target="_top" xlink:title="Journaliseur associé à un moteur nommé.">
<polygon fill="white" stroke="transparent" points="235,-670 99,-670 99,-426 235,-426 235,-670"/>
<text text-anchor="start" x="150" y="-658" font-family="Helvetica,sans-Serif" font-size="10.00">Logger</text>
<text text-anchor="start" x="105.5" y="-643" font-family="Helvetica,sans-Serif" font-size="10.00">&#45;</text>
<text text-anchor="start" x="116" y="-643" font-family="Helvetica,sans-Serif" font-size="10.00">m_minimumLevel</text>
<text text-anchor="start" x="103" y="-628" font-family="Helvetica,sans-Serif" font-size="10.00">+</text>
<text text-anchor="start" x="116" y="-628" font-family="Helvetica,sans-Serif" font-size="10.00">Logger()</text>
<text text-anchor="start" x="103" y="-613" font-family="Helvetica,sans-Serif" font-size="10.00">+</text>
<text text-anchor="start" x="116" y="-613" font-family="Helvetica,sans-Serif" font-size="10.00">~Logger()</text>
<text text-anchor="start" x="103" y="-598" font-family="Helvetica,sans-Serif" font-size="10.00">+</text>
<text text-anchor="start" x="116" y="-598" font-family="Helvetica,sans-Serif" font-size="10.00">Logger()</text>
<text text-anchor="start" x="103" y="-583" font-family="Helvetica,sans-Serif" font-size="10.00">+</text>
<text text-anchor="start" x="116" y="-583" font-family="Helvetica,sans-Serif" font-size="10.00">operator=()</text>
<text text-anchor="start" x="103" y="-568" font-family="Helvetica,sans-Serif" font-size="10.00">+</text>
<text text-anchor="start" x="116" y="-568" font-family="Helvetica,sans-Serif" font-size="10.00">writeLog()</text>
<text text-anchor="start" x="103" y="-553" font-family="Helvetica,sans-Serif" font-size="10.00">+</text>
<text text-anchor="start" x="116" y="-553" font-family="Helvetica,sans-Serif" font-size="10.00">setMinimumLogLevel()</text>
<text text-anchor="start" x="103" y="-538" font-family="Helvetica,sans-Serif" font-size="10.00">+</text>
<text text-anchor="start" x="116" y="-538" font-family="Helvetica,sans-Serif" font-size="10.00">getMotorName()</text>
<text text-anchor="start" x="103" y="-523" font-family="Helvetica,sans-Serif" font-size="10.00">+</text>
<text text-anchor="start" x="116" y="-523" font-family="Helvetica,sans-Serif" font-size="10.00">triggerFatalCrash()</text>
<text text-anchor="start" x="105.5" y="-508" font-family="Helvetica,sans-Serif" font-size="10.00">&#45;</text>
<text text-anchor="start" x="116" y="-508" font-family="Helvetica,sans-Serif" font-size="10.00">extractClassName()</text>
<text text-anchor="start" x="105.5" y="-493" font-family="Helvetica,sans-Serif" font-size="10.00">&#45;</text>
<text text-anchor="start" x="116" y="-493" font-family="Helvetica,sans-Serif" font-size="10.00">extractFunctionName()</text>
<text text-anchor="start" x="105.5" y="-478" font-family="Helvetica,sans-Serif" font-size="10.00">&#45;</text>
<text text-anchor="start" x="116" y="-478" font-family="Helvetica,sans-Serif" font-size="10.00">formatLogLine()</text>
<text text-anchor="start" x="105.5" y="-463" font-family="Helvetica,sans-Serif" font-size="10.00">&#45;</text>
<text text-anchor="start" x="116" y="-463" font-family="Helvetica,sans-Serif" font-size="10.00">levelToString()</text>
<text text-anchor="start" x="105.5" y="-448" font-family="Helvetica,sans-Serif" font-size="10.00">&#45;</text>
<text text-anchor="start" x="116" y="-448" font-family="Helvetica,sans-Serif" font-size="10.00">getCurrentTimestamp()</text>
<text text-anchor="start" x="105.5" y="-433" font-family="Helvetica,sans-Serif" font-size="10.00">&#45;</text>
<text text-anchor="start" x="116" y="-433" font-family="Helvetica,sans-Serif" font-size="10.00">sendToDebugOutput()</text>
<polygon fill="#666666" stroke="#666666" points="99,-653 99,-653 235,-653 235,-653 99,-653"/>
<polygon fill="#666666" stroke="#666666" points="99,-638 99,-638 114,-638 114,-638 99,-638"/>
<polygon fill="#666666" stroke="#666666" points="114,-638 114,-638 235,-638 235,-638 114,-638"/>
<polygon fill="none" stroke="#666666" points="99,-426 99,-670 235,-670 235,-426 99,-426"/>
</a>
</g>
</g>
<!-- Node2&#45;&gt;Node1 -->
<g id="edge1_Node000001_Node000002" class="edge">
<title>Node2&#45;&gt;Node1</title>
<g id="a_edge1_Node000001_Node000002"><a xlink:title=" ">
<path fill="none" stroke="#63b8ff" d="M167,-425.81C167,-414.57 167,-403 167,-391.29"/>
<polygon fill="none" stroke="#63b8ff" points="167,-391.05 163,-385.05 167,-379.05 171,-385.05 167,-391.05"/>
</a>
</g>
<text text-anchor="middle" x="193.5" y="-400" font-family="Helvetica,sans-Serif" font-size="10.00" fill="grey"> &#45;m_logger</text>
</g>
<!-- Node3 -->
<g id="Node000003" class="node">
<title>Node3</title>
<g id="a_Node000003"><a xlink:title=" ">
<polygon fill="white" stroke="transparent" points="82.5,-766 23.5,-766 23.5,-717 82.5,-717 82.5,-766"/>
<text text-anchor="start" x="29" y="-753.5" font-family="Helvetica,sans-Serif" font-size="10.00">std::string</text>
<text text-anchor="start" x="51.5" y="-738.5" font-family="Helvetica,sans-Serif" font-size="10.00"> </text>
<text text-anchor="start" x="51.5" y="-723.5" font-family="Helvetica,sans-Serif" font-size="10.00"> </text>
<polygon fill="#666666" stroke="#666666" points="24,-748.5 24,-748.5 83,-748.5 83,-748.5 24,-748.5"/>
<polygon fill="#666666" stroke="#666666" points="24,-733.5 24,-733.5 83,-733.5 83,-733.5 24,-733.5"/>
<polygon fill="none" stroke="#666666" points="23.5,-717 23.5,-766 82.5,-766 82.5,-717 23.5,-717"/>
</a>
</g>
</g>
<!-- Node3&#45;&gt;Node2 -->
<g id="edge2_Node000002_Node000003" class="edge">
<title>Node3&#45;&gt;Node2</title>
<g id="a_edge2_Node000002_Node000003"><a xlink:title=" ">
<path fill="none" stroke="#63b8ff" d="M65.77,-716.85C70.75,-707.78 76.56,-697.36 82,-688 85.46,-682.05 89.03,-675.97 92.66,-669.85"/>
<polygon fill="none" stroke="#63b8ff" points="92.68,-669.82 92.31,-662.62 98.82,-659.51 99.19,-666.71 92.68,-669.82"/>
</a>
</g>
<text text-anchor="middle" x="122.5" y="-691" font-family="Helvetica,sans-Serif" font-size="10.00" fill="grey"> &#45;m_motorName</text>
</g>
<!-- Node4 -->
<g id="Node000004" class="node">
<title>Node4</title>
<g id="a_Node000004"><a xlink:title=" ">
<polygon fill="white" stroke="transparent" points="98,-863 0,-863 0,-803 98,-803 98,-863"/>
<text text-anchor="start" x="5" y="-851" font-family="Helvetica,sans-Serif" font-size="10.00">std::basic_string&lt;</text>
<text text-anchor="start" x="30.5" y="-840" font-family="Helvetica,sans-Serif" font-size="10.00"> Char &gt;</text>
<text text-anchor="start" x="47" y="-825" font-family="Helvetica,sans-Serif" font-size="10.00"> </text>
<text text-anchor="start" x="47" y="-810" font-family="Helvetica,sans-Serif" font-size="10.00"> </text>
<polygon fill="#666666" stroke="#666666" points="0,-835 0,-835 98,-835 98,-835 0,-835"/>
<polygon fill="#666666" stroke="#666666" points="0,-820 0,-820 98,-820 98,-820 0,-820"/>
<polygon fill="none" stroke="#666666" points="0,-803 0,-863 98,-863 98,-803 0,-803"/>
</a>
</g>
</g>
<!-- Node4&#45;&gt;Node3 -->
<g id="edge3_Node000003_Node000004" class="edge">
<title>Node4&#45;&gt;Node3</title>
<g id="a_edge3_Node000003_Node000004"><a xlink:title=" ">
<path fill="none" stroke="#63b8ff" d="M50.76,-792.7C51.16,-783.67 51.58,-774.34 51.94,-766.21"/>
<polygon fill="none" stroke="#63b8ff" points="47.26,-792.55 50.31,-802.69 54.25,-792.86 47.26,-792.55"/>
</a>
</g>
</g>
<!-- Node5 -->
<g id="Node000005" class="node">
<title>Node5</title>
<g id="a_Node000005"><a xlink:title=" ">
<polygon fill="white" stroke="transparent" points="206,-766 130,-766 130,-717 206,-717 206,-766"/>
<text text-anchor="start" x="135" y="-753.5" font-family="Helvetica,sans-Serif" font-size="10.00">std::ofstream</text>
<text text-anchor="start" x="166" y="-738.5" font-family="Helvetica,sans-Serif" font-size="10.00"> </text>
<text text-anchor="start" x="166" y="-723.5" font-family="Helvetica,sans-Serif" font-size="10.00"> </text>
<polygon fill="#666666" stroke="#666666" points="130,-748.5 130,-748.5 206,-748.5 206,-748.5 130,-748.5"/>
<polygon fill="#666666" stroke="#666666" points="130,-733.5 130,-733.5 206,-733.5 206,-733.5 130,-733.5"/>
<polygon fill="none" stroke="#666666" points="130,-717 130,-766 206,-766 206,-717 130,-717"/>
</a>
</g>
</g>
<!-- Node5&#45;&gt;Node2 -->
<g id="edge4_Node000002_Node000005" class="edge">
<title>Node5&#45;&gt;Node2</title>
<g id="a_edge4_Node000002_Node000005"><a xlink:title=" ">
<path fill="none" stroke="#63b8ff" d="M167.88,-716.63C167.83,-707.04 167.76,-695.17 167.7,-682.22"/>
<polygon fill="none" stroke="#63b8ff" points="167.69,-682.06 163.66,-676.08 167.63,-670.06 171.66,-676.04 167.69,-682.06"/>
</a>
</g>
<text text-anchor="middle" x="202.5" y="-691" font-family="Helvetica,sans-Serif" font-size="10.00" fill="grey"> &#45;m_outputFile</text>
</g>
<!-- Node6 -->
<g id="Node000006" class="node">
<title>Node6</title>
<g id="a_Node000006"><a xlink:title=" ">
<polygon fill="white" stroke="transparent" points="223.5,-863 116.5,-863 116.5,-803 223.5,-803 223.5,-863"/>
<text text-anchor="start" x="122" y="-851" font-family="Helvetica,sans-Serif" font-size="10.00">std::basic_ofstream</text>
<text text-anchor="start" x="147.5" y="-840" font-family="Helvetica,sans-Serif" font-size="10.00">&lt; Char &gt;</text>
<text text-anchor="start" x="168.5" y="-825" font-family="Helvetica,sans-Serif" font-size="10.00"> </text>
<text text-anchor="start" x="168.5" y="-810" font-family="Helvetica,sans-Serif" font-size="10.00"> </text>
<polygon fill="#666666" stroke="#666666" points="117,-835 117,-835 224,-835 224,-835 117,-835"/>
<polygon fill="#666666" stroke="#666666" points="117,-820 117,-820 224,-820 224,-820 117,-820"/>
<polygon fill="none" stroke="#666666" points="116.5,-803 116.5,-863 223.5,-863 223.5,-803 116.5,-803"/>
</a>
</g>
</g>
<!-- Node6&#45;&gt;Node5 -->
<g id="edge5_Node000005_Node000006" class="edge">
<title>Node6&#45;&gt;Node5</title>
<g id="a_edge5_Node000005_Node000006"><a xlink:title=" ">
<path fill="none" stroke="#63b8ff" d="M169.12,-792.41C168.92,-783.47 168.71,-774.25 168.53,-766.21"/>
<polygon fill="none" stroke="#63b8ff" points="165.62,-792.78 169.35,-802.69 172.62,-792.62 165.62,-792.78"/>
</a>
</g>
</g>
<!-- Node7 -->
<g id="Node000007" class="node">
<title>Node7</title>
<g id="a_Node000007"><a xlink:title=" ">
<polygon fill="white" stroke="transparent" points="221.5,-960 118.5,-960 118.5,-900 221.5,-900 221.5,-960"/>
<text text-anchor="start" x="124" y="-948" font-family="Helvetica,sans-Serif" font-size="10.00">std::basic_ostream</text>
<text text-anchor="start" x="147.5" y="-937" font-family="Helvetica,sans-Serif" font-size="10.00">&lt; Char &gt;</text>
<text text-anchor="start" x="168.5" y="-922" font-family="Helvetica,sans-Serif" font-size="10.00"> </text>
<text text-anchor="start" x="168.5" y="-907" font-family="Helvetica,sans-Serif" font-size="10.00"> </text>
<polygon fill="#666666" stroke="#666666" points="119,-932 119,-932 222,-932 222,-932 119,-932"/>
<polygon fill="#666666" stroke="#666666" points="119,-917 119,-917 222,-917 222,-917 119,-917"/>
<polygon fill="none" stroke="#666666" points="118.5,-900 118.5,-960 221.5,-960 221.5,-900 118.5,-900"/>
</a>
</g>
</g>
<!-- Node7&#45;&gt;Node6 -->
<g id="edge6_Node000006_Node000007" class="edge">
<title>Node7&#45;&gt;Node6</title>
<g id="a_edge6_Node000006_Node000007"><a xlink:title=" ">
<path fill="none" stroke="#63b8ff" d="M170,-889.79C170,-880.88 170,-871.57 170,-863.17"/>
<polygon fill="none" stroke="#63b8ff" points="166.5,-889.98 170,-899.98 173.5,-889.98 166.5,-889.98"/>
</a>
</g>
</g>
<!-- Node8 -->
<g id="Node000008" class="node">
<title>Node8</title>
<g id="a_Node000008"><a xlink:title=" ">
<polygon fill="white" stroke="transparent" points="231,-1046 109,-1046 109,-997 231,-997 231,-1046"/>
<text text-anchor="start" x="114" y="-1033.5" font-family="Helvetica,sans-Serif" font-size="10.00">std::basic_ios&lt; Char &gt;</text>
<text text-anchor="start" x="168" y="-1018.5" font-family="Helvetica,sans-Serif" font-size="10.00"> </text>
<text text-anchor="start" x="168" y="-1003.5" font-family="Helvetica,sans-Serif" font-size="10.00"> </text>
<polygon fill="#666666" stroke="#666666" points="109,-1028.5 109,-1028.5 231,-1028.5 231,-1028.5 109,-1028.5"/>
<polygon fill="#666666" stroke="#666666" points="109,-1013.5 109,-1013.5 231,-1013.5 231,-1013.5 109,-1013.5"/>
<polygon fill="none" stroke="#666666" points="109,-997 109,-1046 231,-1046 231,-997 109,-997"/>
</a>
</g>
</g>
<!-- Node8&#45;&gt;Node7 -->
<g id="edge7_Node000007_Node000008" class="edge">
<title>Node8&#45;&gt;Node7</title>
<g id="a_edge7_Node000007_Node000008"><a xlink:title=" ">
<path fill="none" stroke="#63b8ff" d="M170,-986.7C170,-977.95 170,-968.6 170,-960.12"/>
<polygon fill="none" stroke="#63b8ff" points="166.5,-986.98 170,-996.98 173.5,-986.98 166.5,-986.98"/>
</a>
</g>
</g>
<!-- Node9 -->
<g id="Node000009" class="node">
<title>Node9</title>
<g id="a_Node000009"><a xlink:title=" ">
<polygon fill="white" stroke="transparent" points="207,-1132 133,-1132 133,-1083 207,-1083 207,-1132"/>
<text text-anchor="start" x="138" y="-1119.5" font-family="Helvetica,sans-Serif" font-size="10.00">std::ios_base</text>
<text text-anchor="start" x="168" y="-1104.5" font-family="Helvetica,sans-Serif" font-size="10.00"> </text>
<text text-anchor="start" x="168" y="-1089.5" font-family="Helvetica,sans-Serif" font-size="10.00"> </text>
<polygon fill="#666666" stroke="#666666" points="133,-1114.5 133,-1114.5 207,-1114.5 207,-1114.5 133,-1114.5"/>
<polygon fill="#666666" stroke="#666666" points="133,-1099.5 133,-1099.5 207,-1099.5 207,-1099.5 133,-1099.5"/>
<polygon fill="none" stroke="#666666" points="133,-1083 133,-1132 207,-1132 207,-1083 133,-1083"/>
</a>
</g>
</g>
<!-- Node9&#45;&gt;Node8 -->
<g id="edge8_Node000008_Node000009" class="edge">
<title>Node9&#45;&gt;Node8</title>
<g id="a_edge8_Node000008_Node000009"><a xlink:title=" ">
<path fill="none" stroke="#63b8ff" d="M170,-1072.57C170,-1063.69 170,-1054.32 170,-1046.12"/>
<polygon fill="none" stroke="#63b8ff" points="166.5,-1072.65 170,-1082.65 173.5,-1072.65 166.5,-1072.65"/>
</a>
</g>
</g>
<!-- Node10 -->
<g id="Node000010" class="node">
<title>Node10</title>
<g id="a_Node000010"><a xlink:title=" ">
<polygon fill="white" stroke="transparent" points="292.5,-766 229.5,-766 229.5,-717 292.5,-717 292.5,-766"/>
<text text-anchor="start" x="235" y="-753.5" font-family="Helvetica,sans-Serif" font-size="10.00">std::mutex</text>
<text text-anchor="start" x="259.5" y="-738.5" font-family="Helvetica,sans-Serif" font-size="10.00"> </text>
<text text-anchor="start" x="259.5" y="-723.5" font-family="Helvetica,sans-Serif" font-size="10.00"> </text>
<polygon fill="#666666" stroke="#666666" points="230,-748.5 230,-748.5 293,-748.5 293,-748.5 230,-748.5"/>
<polygon fill="#666666" stroke="#666666" points="230,-733.5 230,-733.5 293,-733.5 293,-733.5 230,-733.5"/>
<polygon fill="none" stroke="#666666" points="229.5,-717 229.5,-766 292.5,-766 292.5,-717 229.5,-717"/>
</a>
</g>
</g>
<!-- Node10&#45;&gt;Node2 -->
<g id="edge9_Node000002_Node000010" class="edge">
<title>Node10&#45;&gt;Node2</title>
<g id="a_edge9_Node000002_Node000010"><a xlink:title=" ">
<path fill="none" stroke="#63b8ff" d="M251.55,-716.8C247.8,-707.72 243.35,-697.31 239,-688 237.92,-685.69 236.82,-683.37 235.71,-681.03"/>
<polygon fill="none" stroke="#63b8ff" points="235.61,-680.82 229.41,-677.15 230.41,-670.01 236.62,-673.68 235.61,-680.82"/>
</a>
</g>
<text text-anchor="middle" x="282" y="-691" font-family="Helvetica,sans-Serif" font-size="10.00" fill="grey"> &#45;m_writeMutex</text>
</g>
</g>
</svg>
