<?xml version="1.0" encoding="UTF-8" standalone="no"?>
<!DOCTYPE svg PUBLIC "-//W3C//DTD SVG 1.1//EN"
 "http://www.w3.org/Graphics/SVG/1.1/DTD/svg11.dtd">
<!-- Generated by graphviz version 2.43.0 (0)
 -->
<!-- Title: SimulateurFerroviaire/Modules/PCC/PCCLayout.h Pages: 1 -->
<svg width="1162pt" height="456pt"
 viewBox="0.00 0.00 1162.00 456.00" xmlns="http://www.w3.org/2000/svg" xmlns:xlink="http://www.w3.org/1999/xlink">
<g id="graph0" class="graph" transform="scale(1 1) rotate(0) translate(4 452)">
<title>SimulateurFerroviaire/Modules/PCC/PCCLayout.h</title>
<!-- Node1 -->
<g id="Node000001" class="node">
<title>Node1</title>
<g id="a_Node000001"><a xlink:title="Calcul des positions logiques X/Y du graphe PCC par parcours BFS.">
<polygon fill="#999999" stroke="#666666" points="226,-448 78,-448 78,-418 226,-418 226,-448"/>
<text text-anchor="start" x="86" y="-436" font-family="Helvetica,sans-Serif" font-size="10.00">SimulateurFerroviaire</text>
<text text-anchor="middle" x="152" y="-425" font-family="Helvetica,sans-Serif" font-size="10.00">/Modules/PCC/PCCLayout.h</text>
</a>
</g>
</g>
<!-- Node2 -->
<g id="Node000002" class="node">
<title>Node2</title>
<g id="a_Node000002"><a xlink:title=" ">
<polygon fill="#e0e0e0" stroke="#999999" points="86,-382 0,-382 0,-363 86,-363 86,-382"/>
<text text-anchor="middle" x="43" y="-370" font-family="Helvetica,sans-Serif" font-size="10.00">unordered_set</text>
</a>
</g>
</g>
<!-- Node1&#45;&gt;Node2 -->
<g id="edge1_Node000001_Node000002" class="edge">
<title>Node1&#45;&gt;Node2</title>
<g id="a_edge1_Node000001_Node000002"><a xlink:title=" ">
<path fill="none" stroke="#63b8ff" d="M125.89,-417.99C108.36,-408.58 85.38,-396.24 68.06,-386.95"/>
<polygon fill="#63b8ff" stroke="#63b8ff" points="69.56,-383.78 59.1,-382.14 66.25,-389.95 69.56,-383.78"/>
</a>
</g>
</g>
<!-- Node3 -->
<g id="Node000003" class="node">
<title>Node3</title>
<g id="a_Node000003"><a xlink:title=" ">
<polygon fill="#e0e0e0" stroke="#999999" points="391.5,-200.5 344.5,-200.5 344.5,-181.5 391.5,-181.5 391.5,-200.5"/>
<text text-anchor="middle" x="368" y="-188.5" font-family="Helvetica,sans-Serif" font-size="10.00">vector</text>
</a>
</g>
</g>
<!-- Node1&#45;&gt;Node3 -->
<g id="edge2_Node000001_Node000003" class="edge">
<title>Node1&#45;&gt;Node3</title>
<g id="a_edge2_Node000001_Node000003"><a xlink:title=" ">
<path fill="none" stroke="#63b8ff" d="M159.83,-417.75C178.81,-384.14 230.1,-298.52 290,-242 305.55,-227.33 325.98,-214.41 342.03,-205.39"/>
<polygon fill="#63b8ff" stroke="#63b8ff" points="343.81,-208.4 350.9,-200.54 340.45,-202.26 343.81,-208.4"/>
</a>
</g>
</g>
<!-- Node4 -->
<g id="Node000004" class="node">
<title>Node4</title>
<g id="a_Node000004"><a xlink:href="../../d8/d00/PCCGraph_8h.html" target="_top" xlink:title="Conteneur propriétaire du graphe PCC.">
<polygon fill="white" stroke="#666666" points="494,-382 420,-382 420,-363 494,-363 494,-382"/>
<text text-anchor="middle" x="457" y="-370" font-family="Helvetica,sans-Serif" font-size="10.00">PCCGraph.h</text>
</a>
</g>
</g>
<!-- Node1&#45;&gt;Node4 -->
<g id="edge3_Node000001_Node000004" class="edge">
<title>Node1&#45;&gt;Node4</title>
<g id="a_edge3_Node000001_Node000004"><a xlink:title=" ">
<path fill="none" stroke="#63b8ff" d="M225.06,-417.99C282.31,-407.01 360.3,-392.05 409.65,-382.58"/>
<polygon fill="#63b8ff" stroke="#63b8ff" points="410.57,-385.97 419.73,-380.65 409.25,-379.09 410.57,-385.97"/>
</a>
</g>
</g>
<!-- Node9 -->
<g id="Node000009" class="node">
<title>Node9</title>
<g id="a_Node000009"><a xlink:href="../../dd/d00/Logger_8h.html" target="_top" xlink:title="Système de journalisation à 5 niveaux de trace, un fichier par moteur.">
<polygon fill="white" stroke="#666666" points="287.5,-85 176.5,-85 176.5,-55 287.5,-55 287.5,-85"/>
<text text-anchor="start" x="184.5" y="-73" font-family="Helvetica,sans-Serif" font-size="10.00">Engine/Core/Logger</text>
<text text-anchor="middle" x="232" y="-62" font-family="Helvetica,sans-Serif" font-size="10.00">/Logger.h</text>
</a>
</g>
</g>
<!-- Node1&#45;&gt;Node9 -->
<g id="edge48_Node000001_Node000009" class="edge">
<title>Node1&#45;&gt;Node9</title>
<g id="a_edge48_Node000001_Node000009"><a xlink:title=" ">
<path fill="none" stroke="#63b8ff" d="M143.94,-417.82C132.79,-396.82 114,-355.9 114,-318.5 114,-318.5 114,-318.5 114,-190 114,-144.2 158.63,-109.72 192.99,-89.97"/>
<polygon fill="#63b8ff" stroke="#63b8ff" points="194.86,-92.93 201.92,-85.03 191.47,-86.81 194.86,-92.93"/>
</a>
</g>
</g>
<!-- Node4&#45;&gt;Node3 -->
<g id="edge7_Node000004_Node000003" class="edge">
<title>Node4&#45;&gt;Node3</title>
<g id="a_edge7_Node000004_Node000003"><a xlink:title=" ">
<path fill="none" stroke="#63b8ff" d="M452.71,-362.84C438.93,-335.06 395.65,-247.77 376.86,-209.86"/>
<polygon fill="#63b8ff" stroke="#63b8ff" points="379.83,-207.98 372.25,-200.57 373.56,-211.08 379.83,-207.98"/>
</a>
</g>
</g>
<!-- Node5 -->
<g id="Node000005" class="node">
<title>Node5</title>
<g id="a_Node000005"><a xlink:title=" ">
<polygon fill="#e0e0e0" stroke="#999999" points="828,-327 770,-327 770,-308 828,-308 828,-327"/>
<text text-anchor="middle" x="799" y="-315" font-family="Helvetica,sans-Serif" font-size="10.00">memory</text>
</a>
</g>
</g>
<!-- Node4&#45;&gt;Node5 -->
<g id="edge4_Node000004_Node000005" class="edge">
<title>Node4&#45;&gt;Node5</title>
<g id="a_edge4_Node000004_Node000005"><a xlink:title=" ">
<path fill="none" stroke="#63b8ff" d="M494.38,-366.52C551.08,-358.83 662.14,-343.25 756,-327 757.27,-326.78 758.55,-326.55 759.85,-326.32"/>
<polygon fill="#63b8ff" stroke="#63b8ff" points="760.7,-329.72 769.89,-324.45 759.42,-322.84 760.7,-329.72"/>
</a>
</g>
</g>
<!-- Node6 -->
<g id="Node000006" class="node">
<title>Node6</title>
<g id="a_Node000006"><a xlink:title=" ">
<polygon fill="#e0e0e0" stroke="#999999" points="598,-19 554,-19 554,0 598,0 598,-19"/>
<text text-anchor="middle" x="576" y="-7" font-family="Helvetica,sans-Serif" font-size="10.00">string</text>
</a>
</g>
</g>
<!-- Node4&#45;&gt;Node6 -->
<g id="edge5_Node000004_Node000006" class="edge">
<title>Node4&#45;&gt;Node6</title>
<g id="a_edge5_Node000004_Node000006"><a xlink:title=" ">
<path fill="none" stroke="#63b8ff" d="M494.47,-369.4C639.25,-360.79 1154,-325.43 1154,-258 1154,-258 1154,-258 1154,-129.5 1154,-17.25 730.48,-9.98 608.5,-10.21"/>
<polygon fill="#63b8ff" stroke="#63b8ff" points="608.29,-6.71 598.3,-10.25 608.32,-13.71 608.29,-6.71"/>
</a>
</g>
</g>
<!-- Node7 -->
<g id="Node000007" class="node">
<title>Node7</title>
<g id="a_Node000007"><a xlink:title=" ">
<polygon fill="#e0e0e0" stroke="#999999" points="387.5,-327 294.5,-327 294.5,-308 387.5,-308 387.5,-327"/>
<text text-anchor="middle" x="341" y="-315" font-family="Helvetica,sans-Serif" font-size="10.00">unordered_map</text>
</a>
</g>
</g>
<!-- Node4&#45;&gt;Node7 -->
<g id="edge6_Node000004_Node000007" class="edge">
<title>Node4&#45;&gt;Node7</title>
<g id="a_edge6_Node000004_Node000007"><a xlink:title=" ">
<path fill="none" stroke="#63b8ff" d="M438.36,-362.98C419.7,-354.46 390.75,-341.23 369.26,-331.41"/>
<polygon fill="#63b8ff" stroke="#63b8ff" points="370.53,-328.14 359.98,-327.17 367.62,-334.51 370.53,-328.14"/>
</a>
</g>
</g>
<!-- Node8 -->
<g id="Node000008" class="node">
<title>Node8</title>
<g id="a_Node000008"><a xlink:href="../../d1/d02/PCCEdge_8h.html" target="_top" xlink:title="Connexion orientée entre deux nœuds du graphe PCC.">
<polygon fill="white" stroke="#666666" points="249.5,-200.5 180.5,-200.5 180.5,-181.5 249.5,-181.5 249.5,-200.5"/>
<text text-anchor="middle" x="215" y="-188.5" font-family="Helvetica,sans-Serif" font-size="10.00">PCCEdge.h</text>
</a>
</g>
</g>
<!-- Node4&#45;&gt;Node8 -->
<g id="edge8_Node000004_Node000008" class="edge">
<title>Node4&#45;&gt;Node8</title>
<g id="a_edge8_Node000004_Node000008"><a xlink:title=" ">
<path fill="none" stroke="#63b8ff" d="M419.73,-371.43C380.11,-369.45 317.67,-360.66 277,-327 240.34,-296.66 224.32,-239.93 218.23,-210.61"/>
<polygon fill="#63b8ff" stroke="#63b8ff" points="221.61,-209.67 216.3,-200.51 214.74,-210.98 221.61,-209.67"/>
</a>
</g>
</g>
<!-- Node4&#45;&gt;Node9 -->
<g id="edge45_Node000004_Node000009" class="edge">
<title>Node4&#45;&gt;Node9</title>
<g id="a_edge45_Node000004_Node000009"><a xlink:title=" ">
<path fill="none" stroke="#63b8ff" d="M419.91,-365.74C338.62,-352.09 152,-314.57 152,-258 152,-258 152,-258 152,-190 152,-150.19 183.22,-113.68 206.65,-91.88"/>
<polygon fill="#63b8ff" stroke="#63b8ff" points="209.14,-94.35 214.25,-85.07 204.46,-89.14 209.14,-94.35"/>
</a>
</g>
</g>
<!-- Node16 -->
<g id="Node000016" class="node">
<title>Node16</title>
<g id="a_Node000016"><a xlink:href="../../d6/d01/PCCNode_8h.html" target="_top" xlink:title="Nœud abstrait du graphe PCC représentant un bloc ferroviaire.">
<polygon fill="white" stroke="#666666" points="369.5,-266.5 298.5,-266.5 298.5,-247.5 369.5,-247.5 369.5,-266.5"/>
<text text-anchor="middle" x="334" y="-254.5" font-family="Helvetica,sans-Serif" font-size="10.00">PCCNode.h</text>
</a>
</g>
</g>
<!-- Node4&#45;&gt;Node16 -->
<g id="edge17_Node000004_Node000016" class="edge">
<title>Node4&#45;&gt;Node16</title>
<g id="a_edge17_Node000004_Node000016"><a xlink:title=" ">
<path fill="none" stroke="#63b8ff" d="M419.85,-367.12C374.62,-360.94 302.23,-347.99 286,-327 271.91,-308.78 293.44,-286.8 312.02,-272.62"/>
<polygon fill="#63b8ff" stroke="#63b8ff" points="314.16,-275.39 320.21,-266.7 310.06,-269.72 314.16,-275.39"/>
</a>
</g>
</g>
<!-- Node19 -->
<g id="Node000019" class="node">
<title>Node19</title>
<g id="a_Node000019"><a xlink:href="../../d2/d03/PCCStraightNode_8h.html" target="_top" xlink:title="Nœud PCC représentant un StraightBlock.">
<polygon fill="white" stroke="#666666" points="553.5,-327 444.5,-327 444.5,-308 553.5,-308 553.5,-327"/>
<text text-anchor="middle" x="499" y="-315" font-family="Helvetica,sans-Serif" font-size="10.00">PCCStraightNode.h</text>
</a>
</g>
</g>
<!-- Node4&#45;&gt;Node19 -->
<g id="edge26_Node000004_Node000019" class="edge">
<title>Node4&#45;&gt;Node19</title>
<g id="a_edge26_Node000004_Node000019"><a xlink:title=" ">
<path fill="none" stroke="#63b8ff" d="M463.94,-362.75C469.87,-355.26 478.57,-344.28 485.82,-335.13"/>
<polygon fill="#63b8ff" stroke="#63b8ff" points="488.73,-337.1 492.19,-327.09 483.24,-332.75 488.73,-337.1"/>
</a>
</g>
</g>
<!-- Node20 -->
<g id="Node000020" class="node">
<title>Node20</title>
<g id="a_Node000020"><a xlink:href="../../de/d01/StraightBlock_8h.html" target="_top" xlink:title="Modèle de domaine d&#39;un bloc de voie droite (Straight).">
<polygon fill="white" stroke="#666666" points="658,-272 506,-272 506,-242 658,-242 658,-272"/>
<text text-anchor="start" x="514" y="-260" font-family="Helvetica,sans-Serif" font-size="10.00">Modules/Elements/Shunting</text>
<text text-anchor="middle" x="582" y="-249" font-family="Helvetica,sans-Serif" font-size="10.00">Elements/StraightBlock.h</text>
</a>
</g>
</g>
<!-- Node4&#45;&gt;Node20 -->
<g id="edge46_Node000004_Node000020" class="edge">
<title>Node4&#45;&gt;Node20</title>
<g id="a_edge46_Node000004_Node000020"><a xlink:title=" ">
<path fill="none" stroke="#63b8ff" d="M494.25,-364.5C517.13,-358.34 545.34,-347.09 563,-327 573.78,-314.73 578.5,-296.86 580.54,-282.38"/>
<polygon fill="#63b8ff" stroke="#63b8ff" points="584.06,-282.43 581.63,-272.12 577.1,-281.69 584.06,-282.43"/>
</a>
</g>
</g>
<!-- Node23 -->
<g id="Node000023" class="node">
<title>Node23</title>
<g id="a_Node000023"><a xlink:href="../../dc/d01/PCCSwitchNode_8h.html" target="_top" xlink:title="Nœud PCC représentant un SwitchBlock.">
<polygon fill="white" stroke="#666666" points="713.5,-327 610.5,-327 610.5,-308 713.5,-308 713.5,-327"/>
<text text-anchor="middle" x="662" y="-315" font-family="Helvetica,sans-Serif" font-size="10.00">PCCSwitchNode.h</text>
</a>
</g>
</g>
<!-- Node4&#45;&gt;Node23 -->
<g id="edge34_Node000004_Node000023" class="edge">
<title>Node4&#45;&gt;Node23</title>
<g id="a_edge34_Node000004_Node000023"><a xlink:title=" ">
<path fill="none" stroke="#63b8ff" d="M489.94,-362.98C524.95,-353.93 580.47,-339.58 618.93,-329.64"/>
<polygon fill="#63b8ff" stroke="#63b8ff" points="620,-332.97 628.81,-327.08 618.25,-326.2 620,-332.97"/>
</a>
</g>
</g>
<!-- Node24 -->
<g id="Node000024" class="node">
<title>Node24</title>
<g id="a_Node000024"><a xlink:href="../../dc/d01/SwitchBlock_8h.html" target="_top" xlink:title="Modèle de domaine d&#39;un aiguillage ferroviaire à 3 branches.">
<polygon fill="white" stroke="#666666" points="876,-272 724,-272 724,-242 876,-242 876,-272"/>
<text text-anchor="start" x="732" y="-260" font-family="Helvetica,sans-Serif" font-size="10.00">Modules/Elements/Shunting</text>
<text text-anchor="middle" x="800" y="-249" font-family="Helvetica,sans-Serif" font-size="10.00">Elements/SwitchBlock.h</text>
</a>
</g>
</g>
<!-- Node4&#45;&gt;Node24 -->
<g id="edge47_Node000004_Node000024" class="edge">
<title>Node4&#45;&gt;Node24</title>
<g id="a_edge47_Node000004_Node000024"><a xlink:title=" ">
<path fill="none" stroke="#63b8ff" d="M494.22,-371.7C547.51,-370.61 647.47,-363.32 723,-327 746.14,-315.87 767.47,-295.63 781.78,-279.94"/>
<polygon fill="#63b8ff" stroke="#63b8ff" points="784.6,-282.03 788.59,-272.22 779.35,-277.4 784.6,-282.03"/>
</a>
</g>
</g>
<!-- Node8&#45;&gt;Node9 -->
<g id="edge9_Node000008_Node000009" class="edge">
<title>Node8&#45;&gt;Node9</title>
<g id="a_edge9_Node000008_Node000009"><a xlink:title=" ">
<path fill="none" stroke="#63b8ff" d="M216.22,-181.44C218.77,-163.64 224.7,-122.07 228.53,-95.31"/>
<polygon fill="#63b8ff" stroke="#63b8ff" points="232.02,-95.59 229.97,-85.2 225.09,-94.6 232.02,-95.59"/>
</a>
</g>
</g>
<!-- Node9&#45;&gt;Node6 -->
<g id="edge15_Node000009_Node000006" class="edge">
<title>Node9&#45;&gt;Node6</title>
<g id="a_edge15_Node000009_Node000006"><a xlink:title=" ">
<path fill="none" stroke="#63b8ff" d="M287.75,-57.66C292.57,-56.74 297.37,-55.84 302,-55 389.22,-39.2 492.54,-23.13 543.81,-15.34"/>
<polygon fill="#63b8ff" stroke="#63b8ff" points="544.57,-18.76 553.93,-13.8 543.52,-11.84 544.57,-18.76"/>
</a>
</g>
</g>
<!-- Node10 -->
<g id="Node000010" class="node">
<title>Node10</title>
<g id="a_Node000010"><a xlink:title=" ">
<polygon fill="#e0e0e0" stroke="#999999" points="404,-19 360,-19 360,0 404,0 404,-19"/>
<text text-anchor="middle" x="382" y="-7" font-family="Helvetica,sans-Serif" font-size="10.00">ctime</text>
</a>
</g>
</g>
<!-- Node9&#45;&gt;Node10 -->
<g id="edge10_Node000009_Node000010" class="edge">
<title>Node9&#45;&gt;Node10</title>
<g id="a_edge10_Node000009_Node000010"><a xlink:title=" ">
<path fill="none" stroke="#63b8ff" d="M267.93,-54.99C293.07,-45.18 326.33,-32.21 350.45,-22.81"/>
<polygon fill="#63b8ff" stroke="#63b8ff" points="351.8,-26.03 359.85,-19.14 349.26,-19.51 351.8,-26.03"/>
</a>
</g>
</g>
<!-- Node11 -->
<g id="Node000011" class="node">
<title>Node11</title>
<g id="a_Node000011"><a xlink:title=" ">
<polygon fill="#e0e0e0" stroke="#999999" points="116,-19 48,-19 48,0 116,0 116,-19"/>
<text text-anchor="middle" x="82" y="-7" font-family="Helvetica,sans-Serif" font-size="10.00">filesystem</text>
</a>
</g>
</g>
<!-- Node9&#45;&gt;Node11 -->
<g id="edge11_Node000009_Node000011" class="edge">
<title>Node9&#45;&gt;Node11</title>
<g id="a_edge11_Node000009_Node000011"><a xlink:title=" ">
<path fill="none" stroke="#63b8ff" d="M196.07,-54.99C170.93,-45.18 137.67,-32.21 113.55,-22.81"/>
<polygon fill="#63b8ff" stroke="#63b8ff" points="114.74,-19.51 104.15,-19.14 112.2,-26.03 114.74,-19.51"/>
</a>
</g>
</g>
<!-- Node12 -->
<g id="Node000012" class="node">
<title>Node12</title>
<g id="a_Node000012"><a xlink:title=" ">
<polygon fill="#e0e0e0" stroke="#999999" points="189.5,-19 134.5,-19 134.5,0 189.5,0 189.5,-19"/>
<text text-anchor="middle" x="162" y="-7" font-family="Helvetica,sans-Serif" font-size="10.00">fstream</text>
</a>
</g>
</g>
<!-- Node9&#45;&gt;Node12 -->
<g id="edge12_Node000009_Node000012" class="edge">
<title>Node9&#45;&gt;Node12</title>
<g id="a_edge12_Node000009_Node000012"><a xlink:title=" ">
<path fill="none" stroke="#63b8ff" d="M215.05,-54.84C204.58,-46.09 191.14,-34.85 180.41,-25.88"/>
<polygon fill="#63b8ff" stroke="#63b8ff" points="182.41,-22.99 172.49,-19.27 177.92,-28.36 182.41,-22.99"/>
</a>
</g>
</g>
<!-- Node13 -->
<g id="Node000013" class="node">
<title>Node13</title>
<g id="a_Node000013"><a xlink:title=" ">
<polygon fill="#e0e0e0" stroke="#999999" points="256,-19 208,-19 208,0 256,0 256,-19"/>
<text text-anchor="middle" x="232" y="-7" font-family="Helvetica,sans-Serif" font-size="10.00">mutex</text>
</a>
</g>
</g>
<!-- Node9&#45;&gt;Node13 -->
<g id="edge13_Node000009_Node000013" class="edge">
<title>Node9&#45;&gt;Node13</title>
<g id="a_edge13_Node000009_Node000013"><a xlink:title=" ">
<path fill="none" stroke="#63b8ff" d="M232,-54.84C232,-47.21 232,-37.7 232,-29.45"/>
<polygon fill="#63b8ff" stroke="#63b8ff" points="235.5,-29.27 232,-19.27 228.5,-29.27 235.5,-29.27"/>
</a>
</g>
</g>
<!-- Node14 -->
<g id="Node000014" class="node">
<title>Node14</title>
<g id="a_Node000014"><a xlink:title=" ">
<polygon fill="#e0e0e0" stroke="#999999" points="498,-19 442,-19 442,0 498,0 498,-19"/>
<text text-anchor="middle" x="470" y="-7" font-family="Helvetica,sans-Serif" font-size="10.00">sstream</text>
</a>
</g>
</g>
<!-- Node9&#45;&gt;Node14 -->
<g id="edge14_Node000009_Node000014" class="edge">
<title>Node9&#45;&gt;Node14</title>
<g id="a_edge14_Node000009_Node000014"><a xlink:title=" ">
<path fill="none" stroke="#63b8ff" d="M287.5,-55.36C331.88,-44.45 392.93,-29.44 431.94,-19.86"/>
<polygon fill="#63b8ff" stroke="#63b8ff" points="432.96,-23.21 441.84,-17.42 431.29,-16.41 432.96,-23.21"/>
</a>
</g>
</g>
<!-- Node15 -->
<g id="Node000015" class="node">
<title>Node15</title>
<g id="a_Node000015"><a xlink:title=" ">
<polygon fill="#e0e0e0" stroke="#999999" points="342,-19 274,-19 274,0 342,0 342,-19"/>
<text text-anchor="middle" x="308" y="-7" font-family="Helvetica,sans-Serif" font-size="10.00">windows.h</text>
</a>
</g>
</g>
<!-- Node9&#45;&gt;Node15 -->
<g id="edge16_Node000009_Node000015" class="edge">
<title>Node9&#45;&gt;Node15</title>
<g id="a_edge16_Node000009_Node000015"><a xlink:title=" ">
<path fill="none" stroke="#63b8ff" d="M250.4,-54.84C261.88,-46 276.65,-34.63 288.36,-25.62"/>
<polygon fill="#63b8ff" stroke="#63b8ff" points="290.82,-28.14 296.61,-19.27 286.55,-22.59 290.82,-28.14"/>
</a>
</g>
</g>
<!-- Node16&#45;&gt;Node3 -->
<g id="edge19_Node000016_Node000003" class="edge">
<title>Node16&#45;&gt;Node3</title>
<g id="a_edge19_Node000016_Node000003"><a xlink:title=" ">
<path fill="none" stroke="#63b8ff" d="M338.59,-247.37C343.68,-237.78 352.04,-222.05 358.54,-209.8"/>
<polygon fill="#63b8ff" stroke="#63b8ff" points="361.67,-211.38 363.27,-200.91 355.49,-208.09 361.67,-211.38"/>
</a>
</g>
</g>
<!-- Node16&#45;&gt;Node6 -->
<g id="edge18_Node000016_Node000006" class="edge">
<title>Node16&#45;&gt;Node6</title>
<g id="a_edge18_Node000016_Node000006"><a xlink:title=" ">
<path fill="none" stroke="#63b8ff" d="M331.98,-247.06C328.97,-231.68 324.81,-199.6 336,-176 377.15,-89.26 489.09,-40.19 544.32,-20.6"/>
<polygon fill="#63b8ff" stroke="#63b8ff" points="545.63,-23.85 553.94,-17.28 543.35,-17.23 545.63,-23.85"/>
</a>
</g>
</g>
<!-- Node16&#45;&gt;Node8 -->
<g id="edge20_Node000016_Node000008" class="edge">
<title>Node16&#45;&gt;Node8</title>
<g id="a_edge20_Node000016_Node000008"><a xlink:title=" ">
<path fill="none" stroke="#63b8ff" d="M317.95,-247.37C297.99,-236.63 263.68,-218.18 240.2,-205.55"/>
<polygon fill="#63b8ff" stroke="#63b8ff" points="241.64,-202.35 231.17,-200.7 238.32,-208.52 241.64,-202.35"/>
</a>
</g>
</g>
<!-- Node16&#45;&gt;Node9 -->
<g id="edge25_Node000016_Node000009" class="edge">
<title>Node16&#45;&gt;Node9</title>
<g id="a_edge25_Node000016_Node000009"><a xlink:title=" ">
<path fill="none" stroke="#63b8ff" d="M328.09,-247.3C321.47,-237.44 310.56,-220.81 302,-206 279.77,-167.52 256.51,-121.28 243.19,-94.12"/>
<polygon fill="#63b8ff" stroke="#63b8ff" points="246.28,-92.47 238.75,-85.02 239.99,-95.54 246.28,-92.47"/>
</a>
</g>
</g>
<!-- Node17 -->
<g id="Node000017" class="node">
<title>Node17</title>
<g id="a_Node000017"><a xlink:href="../../df/d02/ShuntingElement_8h.html" target="_top" xlink:title="Interface abstraite pour tous les éléments de shuntage ferroviaire.">
<polygon fill="white" stroke="#666666" points="567,-206 409,-206 409,-176 567,-176 567,-206"/>
<text text-anchor="start" x="417" y="-194" font-family="Helvetica,sans-Serif" font-size="10.00">Modules/Elements/Shunting</text>
<text text-anchor="middle" x="488" y="-183" font-family="Helvetica,sans-Serif" font-size="10.00">Elements/ShuntingElement.h</text>
</a>
</g>
</g>
<!-- Node16&#45;&gt;Node17 -->
<g id="edge21_Node000016_Node000017" class="edge">
<title>Node16&#45;&gt;Node17</title>
<g id="a_edge21_Node000016_Node000017"><a xlink:title=" ">
<path fill="none" stroke="#63b8ff" d="M354.77,-247.37C377.73,-237.82 415.37,-222.18 444.8,-209.95"/>
<polygon fill="#63b8ff" stroke="#63b8ff" points="446.14,-213.19 454.03,-206.12 443.46,-206.72 446.14,-213.19"/>
</a>
</g>
</g>
<!-- Node18 -->
<g id="Node000018" class="node">
<title>Node18</title>
<g id="a_Node000018"><a xlink:href="../../d5/d02/Element_8h.html" target="_top" xlink:title="Classe de base abstraite pour tous les éléments interactifs ferroviaires.">
<polygon fill="white" stroke="#666666" points="567.5,-140 408.5,-140 408.5,-121 567.5,-121 567.5,-140"/>
<text text-anchor="middle" x="488" y="-128" font-family="Helvetica,sans-Serif" font-size="10.00">Modules/Elements/Element.h</text>
</a>
</g>
</g>
<!-- Node17&#45;&gt;Node18 -->
<g id="edge22_Node000017_Node000018" class="edge">
<title>Node17&#45;&gt;Node18</title>
<g id="a_edge22_Node000017_Node000018"><a xlink:title=" ">
<path fill="none" stroke="#63b8ff" d="M488,-175.84C488,-168.21 488,-158.7 488,-150.45"/>
<polygon fill="#63b8ff" stroke="#63b8ff" points="491.5,-150.27 488,-140.27 484.5,-150.27 491.5,-150.27"/>
</a>
</g>
</g>
<!-- Node18&#45;&gt;Node6 -->
<g id="edge23_Node000018_Node000006" class="edge">
<title>Node18&#45;&gt;Node6</title>
<g id="a_edge23_Node000018_Node000006"><a xlink:title=" ">
<path fill="none" stroke="#63b8ff" d="M494.33,-120.94C508.78,-101.4 544.44,-53.18 563.5,-27.4"/>
<polygon fill="#63b8ff" stroke="#63b8ff" points="566.36,-29.42 569.49,-19.3 560.73,-25.26 566.36,-29.42"/>
</a>
</g>
</g>
<!-- Node18&#45;&gt;Node9 -->
<g id="edge24_Node000018_Node000009" class="edge">
<title>Node18&#45;&gt;Node9</title>
<g id="a_edge24_Node000018_Node000009"><a xlink:title=" ">
<path fill="none" stroke="#63b8ff" d="M450.78,-120.99C410.69,-111.83 346.12,-97.08 297.5,-85.97"/>
<polygon fill="#63b8ff" stroke="#63b8ff" points="298.22,-82.54 287.69,-83.73 296.66,-89.37 298.22,-82.54"/>
</a>
</g>
</g>
<!-- Node19&#45;&gt;Node16 -->
<g id="edge27_Node000019_Node000016" class="edge">
<title>Node19&#45;&gt;Node16</title>
<g id="a_edge27_Node000019_Node000016"><a xlink:title=" ">
<path fill="none" stroke="#63b8ff" d="M475.01,-307.99C446.78,-297.99 399.72,-281.3 367.81,-269.99"/>
<polygon fill="#63b8ff" stroke="#63b8ff" points="368.62,-266.56 358.02,-266.52 366.28,-273.16 368.62,-266.56"/>
</a>
</g>
</g>
<!-- Node19&#45;&gt;Node20 -->
<g id="edge28_Node000019_Node000020" class="edge">
<title>Node19&#45;&gt;Node20</title>
<g id="a_edge28_Node000019_Node000020"><a xlink:title=" ">
<path fill="none" stroke="#63b8ff" d="M511.25,-307.87C522.4,-300 539.3,-288.09 553.79,-277.89"/>
<polygon fill="#63b8ff" stroke="#63b8ff" points="555.82,-280.74 561.97,-272.11 551.78,-275.01 555.82,-280.74"/>
</a>
</g>
</g>
<!-- Node20&#45;&gt;Node3 -->
<g id="edge30_Node000020_Node000003" class="edge">
<title>Node20&#45;&gt;Node3</title>
<g id="a_edge30_Node000020_Node000003"><a xlink:title=" ">
<path fill="none" stroke="#63b8ff" d="M522.32,-241.92C486.46,-232.89 440.16,-220.22 400,-206 398.61,-205.51 397.19,-204.98 395.76,-204.43"/>
<polygon fill="#63b8ff" stroke="#63b8ff" points="397.01,-201.16 386.43,-200.6 394.35,-207.64 397.01,-201.16"/>
</a>
</g>
</g>
<!-- Node20&#45;&gt;Node6 -->
<g id="edge29_Node000020_Node000006" class="edge">
<title>Node20&#45;&gt;Node6</title>
<g id="a_edge29_Node000020_Node000006"><a xlink:title=" ">
<path fill="none" stroke="#63b8ff" d="M581.65,-241.74C580.63,-199.76 577.62,-76.63 576.46,-29.32"/>
<polygon fill="#63b8ff" stroke="#63b8ff" points="579.96,-29.16 576.21,-19.25 572.96,-29.33 579.96,-29.16"/>
</a>
</g>
</g>
<!-- Node20&#45;&gt;Node17 -->
<g id="edge31_Node000020_Node000017" class="edge">
<title>Node20&#45;&gt;Node17</title>
<g id="a_edge31_Node000020_Node000017"><a xlink:title=" ">
<path fill="none" stroke="#63b8ff" d="M561.14,-241.8C548.24,-233.01 531.49,-221.61 517.27,-211.93"/>
<polygon fill="#63b8ff" stroke="#63b8ff" points="519.04,-208.9 508.8,-206.16 515.1,-214.69 519.04,-208.9"/>
</a>
</g>
</g>
<!-- Node21 -->
<g id="Node000021" class="node">
<title>Node21</title>
<g id="a_Node000021"><a xlink:href="../../d6/d01/CoordinateLatLon_8h.html" target="_top" xlink:title="Représentation d&#39;une coordonnée géographique WGS&#45;84 (latitude, longitude).">
<polygon fill="white" stroke="#666666" points="915.5,-206 778.5,-206 778.5,-176 915.5,-176 915.5,-206"/>
<text text-anchor="start" x="786.5" y="-194" font-family="Helvetica,sans-Serif" font-size="10.00">Engine/Core/Coordinates</text>
<text text-anchor="middle" x="847" y="-183" font-family="Helvetica,sans-Serif" font-size="10.00">/CoordinateLatLon.h</text>
</a>
</g>
</g>
<!-- Node20&#45;&gt;Node21 -->
<g id="edge32_Node000020_Node000021" class="edge">
<title>Node20&#45;&gt;Node21</title>
<g id="a_edge32_Node000020_Node000021"><a xlink:title=" ">
<path fill="none" stroke="#63b8ff" d="M640.16,-241.95C681.15,-232.06 736.17,-218.77 779.16,-208.38"/>
<polygon fill="#63b8ff" stroke="#63b8ff" points="780.08,-211.76 788.98,-206.01 778.44,-204.96 780.08,-211.76"/>
</a>
</g>
</g>
<!-- Node22 -->
<g id="Node000022" class="node">
<title>Node22</title>
<g id="a_Node000022"><a xlink:href="../../db/d03/CoordinateXY_8h.html" target="_top" xlink:title="Représentation d&#39;une coordonnée plane en mètres (système métrique UTM).">
<polygon fill="white" stroke="#666666" points="760.5,-206 623.5,-206 623.5,-176 760.5,-176 760.5,-206"/>
<text text-anchor="start" x="631.5" y="-194" font-family="Helvetica,sans-Serif" font-size="10.00">Engine/Core/Coordinates</text>
<text text-anchor="middle" x="692" y="-183" font-family="Helvetica,sans-Serif" font-size="10.00">/CoordinateXY.h</text>
</a>
</g>
</g>
<!-- Node20&#45;&gt;Node22 -->
<g id="edge33_Node000020_Node000022" class="edge">
<title>Node20&#45;&gt;Node22</title>
<g id="a_edge33_Node000020_Node000022"><a xlink:title=" ">
<path fill="none" stroke="#63b8ff" d="M606.14,-241.95C621.61,-232.95 641.91,-221.14 658.88,-211.27"/>
<polygon fill="#63b8ff" stroke="#63b8ff" points="661.03,-214.07 667.92,-206.01 657.51,-208.02 661.03,-214.07"/>
</a>
</g>
</g>
<!-- Node23&#45;&gt;Node16 -->
<g id="edge35_Node000023_Node000016" class="edge">
<title>Node23&#45;&gt;Node16</title>
<g id="a_edge35_Node000023_Node000016"><a xlink:title=" ">
<path fill="none" stroke="#63b8ff" d="M614.31,-307.99C551.36,-296.77 441.32,-277.14 379.49,-266.11"/>
<polygon fill="#63b8ff" stroke="#63b8ff" points="380.09,-262.67 369.63,-264.35 378.86,-269.56 380.09,-262.67"/>
</a>
</g>
</g>
<!-- Node23&#45;&gt;Node24 -->
<g id="edge36_Node000023_Node000024" class="edge">
<title>Node23&#45;&gt;Node24</title>
<g id="a_edge36_Node000023_Node000024"><a xlink:title=" ">
<path fill="none" stroke="#63b8ff" d="M682.07,-307.99C701.75,-299.65 732.39,-286.66 757.5,-276.02"/>
<polygon fill="#63b8ff" stroke="#63b8ff" points="758.98,-279.19 766.82,-272.06 756.25,-272.74 758.98,-279.19"/>
</a>
</g>
</g>
<!-- Node24&#45;&gt;Node3 -->
<g id="edge41_Node000024_Node000003" class="edge">
<title>Node24&#45;&gt;Node3</title>
<g id="a_edge41_Node000024_Node000003"><a xlink:title=" ">
<path fill="none" stroke="#63b8ff" d="M723.65,-247.65C616.3,-235.74 430.41,-214.36 400,-206 398.31,-205.54 396.6,-205 394.88,-204.41"/>
<polygon fill="#63b8ff" stroke="#63b8ff" points="395.86,-201.03 385.27,-200.64 393.3,-207.55 395.86,-201.03"/>
</a>
</g>
</g>
<!-- Node24&#45;&gt;Node6 -->
<g id="edge40_Node000024_Node000006" class="edge">
<title>Node24&#45;&gt;Node6</title>
<g id="a_edge40_Node000024_Node000006"><a xlink:title=" ">
<path fill="none" stroke="#63b8ff" d="M860.54,-241.99C901.62,-229.34 945.11,-207.79 925,-176 853.23,-62.53 680.24,-25.32 608.26,-14.49"/>
<polygon fill="#63b8ff" stroke="#63b8ff" points="608.4,-10.97 598,-13.02 607.41,-17.9 608.4,-10.97"/>
</a>
</g>
</g>
<!-- Node24&#45;&gt;Node14 -->
<g id="edge39_Node000024_Node000014" class="edge">
<title>Node24&#45;&gt;Node14</title>
<g id="a_edge39_Node000024_Node000014"><a xlink:title=" ">
<path fill="none" stroke="#63b8ff" d="M876.06,-253.99C954.51,-250.12 1069.23,-238.84 1097,-206 1105.61,-195.82 1105.14,-186.56 1097,-176 1059.88,-127.8 638.47,-43.01 508.16,-17.78"/>
<polygon fill="#63b8ff" stroke="#63b8ff" points="508.71,-14.32 498.22,-15.86 507.38,-21.19 508.71,-14.32"/>
</a>
</g>
</g>
<!-- Node24&#45;&gt;Node17 -->
<g id="edge44_Node000024_Node000017" class="edge">
<title>Node24&#45;&gt;Node17</title>
<g id="a_edge44_Node000024_Node000017"><a xlink:title=" ">
<path fill="none" stroke="#63b8ff" d="M731.53,-241.95C682.76,-231.95 617.12,-218.49 566.27,-208.06"/>
<polygon fill="#63b8ff" stroke="#63b8ff" points="566.81,-204.59 556.31,-206.01 565.4,-211.45 566.81,-204.59"/>
</a>
</g>
</g>
<!-- Node24&#45;&gt;Node21 -->
<g id="edge42_Node000024_Node000021" class="edge">
<title>Node24&#45;&gt;Node21</title>
<g id="a_edge42_Node000024_Node000021"><a xlink:title=" ">
<path fill="none" stroke="#63b8ff" d="M810.43,-241.8C816.33,-233.76 823.85,-223.53 830.53,-214.43"/>
<polygon fill="#63b8ff" stroke="#63b8ff" points="833.5,-216.3 836.6,-206.16 827.86,-212.15 833.5,-216.3"/>
</a>
</g>
</g>
<!-- Node24&#45;&gt;Node22 -->
<g id="edge43_Node000024_Node000022" class="edge">
<title>Node24&#45;&gt;Node22</title>
<g id="a_edge43_Node000024_Node000022"><a xlink:title=" ">
<path fill="none" stroke="#63b8ff" d="M776.3,-241.95C761.11,-232.95 741.18,-221.14 724.52,-211.27"/>
<polygon fill="#63b8ff" stroke="#63b8ff" points="726.03,-208.1 715.65,-206.01 722.46,-214.12 726.03,-208.1"/>
</a>
</g>
</g>
<!-- Node25 -->
<g id="Node000025" class="node">
<title>Node25</title>
<g id="a_Node000025"><a xlink:title=" ">
<polygon fill="#e0e0e0" stroke="#999999" points="1088,-200.5 1046,-200.5 1046,-181.5 1088,-181.5 1088,-200.5"/>
<text text-anchor="middle" x="1067" y="-188.5" font-family="Helvetica,sans-Serif" font-size="10.00">array</text>
</a>
</g>
</g>
<!-- Node24&#45;&gt;Node25 -->
<g id="edge37_Node000024_Node000025" class="edge">
<title>Node24&#45;&gt;Node25</title>
<g id="a_edge37_Node000024_Node000025"><a xlink:title=" ">
<path fill="none" stroke="#63b8ff" d="M876.16,-244.5C923.22,-236.28 984.45,-223.55 1037,-206 1038.4,-205.53 1039.81,-205.02 1041.24,-204.47"/>
<polygon fill="#63b8ff" stroke="#63b8ff" points="1042.63,-207.68 1050.46,-200.54 1039.89,-201.24 1042.63,-207.68"/>
</a>
</g>
</g>
<!-- Node26 -->
<g id="Node000026" class="node">
<title>Node26</title>
<g id="a_Node000026"><a xlink:title=" ">
<polygon fill="#e0e0e0" stroke="#999999" points="1028,-200.5 972,-200.5 972,-181.5 1028,-181.5 1028,-200.5"/>
<text text-anchor="middle" x="1000" y="-188.5" font-family="Helvetica,sans-Serif" font-size="10.00">optional</text>
</a>
</g>
</g>
<!-- Node24&#45;&gt;Node26 -->
<g id="edge38_Node000024_Node000026" class="edge">
<title>Node24&#45;&gt;Node26</title>
<g id="a_edge38_Node000024_Node000026"><a xlink:title=" ">
<path fill="none" stroke="#63b8ff" d="M845.01,-241.96C876.65,-232.04 919.96,-218.36 958,-206 960.28,-205.26 962.63,-204.49 965,-203.71"/>
<polygon fill="#63b8ff" stroke="#63b8ff" points="966.31,-206.97 974.7,-200.5 964.11,-200.32 966.31,-206.97"/>
</a>
</g>
</g>
</g>
</svg>
