<?xml version="1.0" encoding="UTF-8" standalone="no"?>
<!DOCTYPE svg PUBLIC "-//W3C//DTD SVG 1.1//EN"
 "http://www.w3.org/Graphics/SVG/1.1/DTD/svg11.dtd">
<!-- Generated by graphviz version 2.43.0 (0)
 -->
<!-- Title: RawNetwork Pages: 1 -->
<svg width="426pt" height="542pt"
 viewBox="0.00 0.00 426.00 542.00" xmlns="http://www.w3.org/2000/svg" xmlns:xlink="http://www.w3.org/1999/xlink">
<g id="graph0" class="graph" transform="scale(1 1) rotate(0) translate(4 538)">
<title>RawNetwork</title>
<!-- Node1 -->
<g id="Node000001" class="node">
<title>Node1</title>
<g id="a_Node000001"><a xlink:title="Résultat de Phase1_GeoLoader — ensemble des polylignes du GeoJSON.">
<polygon fill="#999999" stroke="transparent" points="360.5,-64 255.5,-64 255.5,0 360.5,0 360.5,-64"/>
<text text-anchor="start" x="277" y="-52" font-family="Helvetica,sans-Serif" font-size="10.00">RawNetwork</text>
<text text-anchor="start" x="306.5" y="-37" font-family="Helvetica,sans-Serif" font-size="10.00"> </text>
<text text-anchor="start" x="260" y="-22" font-family="Helvetica,sans-Serif" font-size="10.00">+</text>
<text text-anchor="start" x="273" y="-22" font-family="Helvetica,sans-Serif" font-size="10.00">clear()</text>
<text text-anchor="start" x="260" y="-7" font-family="Helvetica,sans-Serif" font-size="10.00">+</text>
<text text-anchor="start" x="273" y="-7" font-family="Helvetica,sans-Serif" font-size="10.00">totalPointCount()</text>
<polygon fill="#666666" stroke="#666666" points="256,-47 256,-47 361,-47 361,-47 256,-47"/>
<polygon fill="#666666" stroke="#666666" points="256,-32 256,-32 361,-32 361,-32 256,-32"/>
<polygon fill="none" stroke="#666666" points="255.5,0 255.5,-64 360.5,-64 360.5,0 255.5,0"/>
</a>
</g>
</g>
<!-- Node2 -->
<g id="Node000002" class="node">
<title>Node2</title>
<g id="a_Node000002"><a xlink:title=" ">
<polygon fill="white" stroke="transparent" points="388.5,-357.5 329.5,-357.5 329.5,-308.5 388.5,-308.5 388.5,-357.5"/>
<text text-anchor="start" x="335" y="-345" font-family="Helvetica,sans-Serif" font-size="10.00">std::string</text>
<text text-anchor="start" x="357.5" y="-330" font-family="Helvetica,sans-Serif" font-size="10.00"> </text>
<text text-anchor="start" x="357.5" y="-315" font-family="Helvetica,sans-Serif" font-size="10.00"> </text>
<polygon fill="#666666" stroke="#666666" points="330,-340 330,-340 389,-340 389,-340 330,-340"/>
<polygon fill="#666666" stroke="#666666" points="330,-325 330,-325 389,-325 389,-325 330,-325"/>
<polygon fill="none" stroke="#666666" points="329.5,-308.5 329.5,-357.5 388.5,-357.5 388.5,-308.5 329.5,-308.5"/>
</a>
</g>
</g>
<!-- Node2&#45;&gt;Node1 -->
<g id="edge1_Node000001_Node000002" class="edge">
<title>Node2&#45;&gt;Node1</title>
<g id="a_edge1_Node000001_Node000002"><a xlink:title=" ">
<path fill="none" stroke="#63b8ff" d="M361.47,-308.43C365.34,-263.09 369.78,-161.23 342,-82 341.16,-79.6 340.16,-77.2 339.05,-74.84"/>
<polygon fill="none" stroke="#63b8ff" points="338.92,-74.59 332.53,-71.25 333.16,-64.06 339.54,-67.4 338.92,-74.59"/>
</a>
</g>
<text text-anchor="middle" x="390" y="-181" font-family="Helvetica,sans-Serif" font-size="10.00" fill="grey"> +utmZone</text>
</g>
<!-- Node5 -->
<g id="Node000005" class="node">
<title>Node5</title>
<g id="a_Node000005"><a xlink:href="../../d0/d01/structRawPolyline.html" target="_top" xlink:title="Une polyligne GeoJSON avec ses coordonnées en double système.">
<polygon fill="white" stroke="transparent" points="274.5,-256 203.5,-256 203.5,-207 274.5,-207 274.5,-256"/>
<text text-anchor="start" x="209" y="-243.5" font-family="Helvetica,sans-Serif" font-size="10.00">RawPolyline</text>
<text text-anchor="start" x="237.5" y="-228.5" font-family="Helvetica,sans-Serif" font-size="10.00"> </text>
<text text-anchor="start" x="237.5" y="-213.5" font-family="Helvetica,sans-Serif" font-size="10.00"> </text>
<polygon fill="#666666" stroke="#666666" points="204,-238.5 204,-238.5 275,-238.5 275,-238.5 204,-238.5"/>
<polygon fill="#666666" stroke="#666666" points="204,-223.5 204,-223.5 275,-223.5 275,-223.5 204,-223.5"/>
<polygon fill="none" stroke="#666666" points="203.5,-207 203.5,-256 274.5,-256 274.5,-207 203.5,-207"/>
</a>
</g>
</g>
<!-- Node2&#45;&gt;Node5 -->
<g id="edge5_Node000005_Node000002" class="edge">
<title>Node2&#45;&gt;Node5</title>
<g id="a_edge5_Node000005_Node000002"><a xlink:title=" ">
<path fill="none" stroke="#63b8ff" d="M337.39,-308.34C326.87,-297.38 313.76,-284.48 301,-274 295.87,-269.79 290.31,-265.6 284.7,-261.59"/>
<polygon fill="none" stroke="#63b8ff" points="284.48,-261.44 277.27,-261.32 274.62,-254.61 281.83,-254.74 284.48,-261.44"/>
</a>
</g>
<text text-anchor="middle" x="323.5" y="-277" font-family="Helvetica,sans-Serif" font-size="10.00" fill="grey"> +id</text>
</g>
<!-- Node3 -->
<g id="Node000003" class="node">
<title>Node3</title>
<g id="a_Node000003"><a xlink:title=" ">
<polygon fill="white" stroke="transparent" points="408,-502 310,-502 310,-442 408,-442 408,-502"/>
<text text-anchor="start" x="315" y="-490" font-family="Helvetica,sans-Serif" font-size="10.00">std::basic_string&lt;</text>
<text text-anchor="start" x="340.5" y="-479" font-family="Helvetica,sans-Serif" font-size="10.00"> Char &gt;</text>
<text text-anchor="start" x="357" y="-464" font-family="Helvetica,sans-Serif" font-size="10.00"> </text>
<text text-anchor="start" x="357" y="-449" font-family="Helvetica,sans-Serif" font-size="10.00"> </text>
<polygon fill="#666666" stroke="#666666" points="310,-474 310,-474 408,-474 408,-474 310,-474"/>
<polygon fill="#666666" stroke="#666666" points="310,-459 310,-459 408,-459 408,-459 310,-459"/>
<polygon fill="none" stroke="#666666" points="310,-442 310,-502 408,-502 408,-442 310,-442"/>
</a>
</g>
</g>
<!-- Node3&#45;&gt;Node2 -->
<g id="edge2_Node000002_Node000003" class="edge">
<title>Node3&#45;&gt;Node2</title>
<g id="a_edge2_Node000002_Node000003"><a xlink:title=" ">
<path fill="none" stroke="#63b8ff" d="M359,-431.74C359,-407.77 359,-377.92 359,-357.55"/>
<polygon fill="none" stroke="#63b8ff" points="355.5,-431.95 359,-441.95 362.5,-431.95 355.5,-431.95"/>
</a>
</g>
</g>
<!-- Node4 -->
<g id="Node000004" class="node">
<title>Node4</title>
<g id="a_Node000004"><a xlink:title=" ">
<polygon fill="white" stroke="transparent" points="327.5,-160 182.5,-160 182.5,-111 327.5,-111 327.5,-160"/>
<text text-anchor="start" x="188" y="-147.5" font-family="Helvetica,sans-Serif" font-size="10.00">std::vector&lt; RawPolyline &gt;</text>
<text text-anchor="start" x="253.5" y="-132.5" font-family="Helvetica,sans-Serif" font-size="10.00"> </text>
<text text-anchor="start" x="253.5" y="-117.5" font-family="Helvetica,sans-Serif" font-size="10.00"> </text>
<polygon fill="#666666" stroke="#666666" points="183,-142.5 183,-142.5 328,-142.5 328,-142.5 183,-142.5"/>
<polygon fill="#666666" stroke="#666666" points="183,-127.5 183,-127.5 328,-127.5 328,-127.5 183,-127.5"/>
<polygon fill="none" stroke="#666666" points="182.5,-111 182.5,-160 327.5,-160 327.5,-111 182.5,-111"/>
</a>
</g>
</g>
<!-- Node4&#45;&gt;Node1 -->
<g id="edge3_Node000001_Node000004" class="edge">
<title>Node4&#45;&gt;Node1</title>
<g id="a_edge3_Node000001_Node000004"><a xlink:title=" ">
<path fill="none" stroke="#63b8ff" d="M267.29,-110.96C272.86,-100.29 279.63,-87.34 286.03,-75.08"/>
<polygon fill="none" stroke="#63b8ff" points="286.2,-74.75 285.43,-67.58 291.76,-64.11 292.52,-71.28 286.2,-74.75"/>
</a>
</g>
<text text-anchor="middle" x="310" y="-85" font-family="Helvetica,sans-Serif" font-size="10.00" fill="grey"> +polylines</text>
</g>
<!-- Node5&#45;&gt;Node4 -->
<g id="edge4_Node000004_Node000005" class="edge">
<title>Node5&#45;&gt;Node4</title>
<g id="a_edge4_Node000004_Node000005"><a xlink:title=" ">
<path fill="none" stroke="#63b8ff" d="M243.04,-206.78C244.82,-196.32 246.95,-183.79 248.92,-172.23"/>
<polygon fill="none" stroke="#63b8ff" points="248.95,-172.04 246.01,-165.46 250.96,-160.21 253.9,-166.8 248.95,-172.04"/>
</a>
</g>
<text text-anchor="middle" x="277" y="-181" font-family="Helvetica,sans-Serif" font-size="10.00" fill="grey"> +elements</text>
</g>
<!-- Node6 -->
<g id="Node000006" class="node">
<title>Node6</title>
<g id="a_Node000006"><a xlink:title=" ">
<polygon fill="white" stroke="transparent" points="142,-363 0,-363 0,-303 142,-303 142,-363"/>
<text text-anchor="start" x="5" y="-351" font-family="Helvetica,sans-Serif" font-size="10.00">std::vector&lt; CoordinateLat</text>
<text text-anchor="start" x="56.5" y="-340" font-family="Helvetica,sans-Serif" font-size="10.00">Lon &gt;</text>
<text text-anchor="start" x="69" y="-325" font-family="Helvetica,sans-Serif" font-size="10.00"> </text>
<text text-anchor="start" x="69" y="-310" font-family="Helvetica,sans-Serif" font-size="10.00"> </text>
<polygon fill="#666666" stroke="#666666" points="0,-335 0,-335 142,-335 142,-335 0,-335"/>
<polygon fill="#666666" stroke="#666666" points="0,-320 0,-320 142,-320 142,-320 0,-320"/>
<polygon fill="none" stroke="#666666" points="0,-303 0,-363 142,-363 142,-303 0,-303"/>
</a>
</g>
</g>
<!-- Node6&#45;&gt;Node5 -->
<g id="edge6_Node000005_Node000006" class="edge">
<title>Node6&#45;&gt;Node5</title>
<g id="a_edge6_Node000005_Node000006"><a xlink:title=" ">
<path fill="none" stroke="#63b8ff" d="M111.35,-302.83C125.24,-293.23 141.06,-282.78 156,-274 167.59,-267.19 180.45,-260.41 192.51,-254.36"/>
<polygon fill="none" stroke="#63b8ff" points="192.54,-254.35 196.15,-248.1 203.3,-249.04 199.69,-255.28 192.54,-254.35"/>
</a>
</g>
<text text-anchor="middle" x="194.5" y="-277" font-family="Helvetica,sans-Serif" font-size="10.00" fill="grey"> +pointsWGS84</text>
</g>
<!-- Node7 -->
<g id="Node000007" class="node">
<title>Node7</title>
<g id="a_Node000007"><a xlink:href="../../db/d03/classCoordinateLatLon.html" target="_top" xlink:title="Coordonnée géographique WGS&#45;84 exprimée en degrés décimaux.">
<polygon fill="white" stroke="transparent" points="128.5,-534 13.5,-534 13.5,-410 128.5,-410 128.5,-534"/>
<text text-anchor="start" x="28.5" y="-522" font-family="Helvetica,sans-Serif" font-size="10.00">CoordinateLatLon</text>
<text text-anchor="start" x="18" y="-507" font-family="Helvetica,sans-Serif" font-size="10.00">+</text>
<text text-anchor="start" x="31" y="-507" font-family="Helvetica,sans-Serif" font-size="10.00">latitude</text>
<text text-anchor="start" x="18" y="-492" font-family="Helvetica,sans-Serif" font-size="10.00">+</text>
<text text-anchor="start" x="31" y="-492" font-family="Helvetica,sans-Serif" font-size="10.00">longitude</text>
<text text-anchor="start" x="18" y="-477" font-family="Helvetica,sans-Serif" font-size="10.00">+</text>
<text text-anchor="start" x="31" y="-477" font-family="Helvetica,sans-Serif" font-size="10.00">CoordinateLatLon()</text>
<text text-anchor="start" x="18" y="-462" font-family="Helvetica,sans-Serif" font-size="10.00">+</text>
<text text-anchor="start" x="31" y="-462" font-family="Helvetica,sans-Serif" font-size="10.00">CoordinateLatLon()</text>
<text text-anchor="start" x="18" y="-447" font-family="Helvetica,sans-Serif" font-size="10.00">+</text>
<text text-anchor="start" x="31" y="-447" font-family="Helvetica,sans-Serif" font-size="10.00">operator==()</text>
<text text-anchor="start" x="18" y="-432" font-family="Helvetica,sans-Serif" font-size="10.00">+</text>
<text text-anchor="start" x="31" y="-432" font-family="Helvetica,sans-Serif" font-size="10.00">operator!=()</text>
<text text-anchor="start" x="18" y="-417" font-family="Helvetica,sans-Serif" font-size="10.00">+</text>
<text text-anchor="start" x="31" y="-417" font-family="Helvetica,sans-Serif" font-size="10.00">toString()</text>
<polygon fill="#666666" stroke="#666666" points="14,-517 14,-517 129,-517 129,-517 14,-517"/>
<polygon fill="#666666" stroke="#666666" points="14,-487 14,-487 29,-487 29,-487 14,-487"/>
<polygon fill="#666666" stroke="#666666" points="29,-487 29,-487 129,-487 129,-487 29,-487"/>
<polygon fill="none" stroke="#666666" points="13.5,-410 13.5,-534 128.5,-534 128.5,-410 13.5,-410"/>
</a>
</g>
</g>
<!-- Node7&#45;&gt;Node6 -->
<g id="edge7_Node000006_Node000007" class="edge">
<title>Node7&#45;&gt;Node6</title>
<g id="a_edge7_Node000006_Node000007"><a xlink:title=" ">
<path fill="none" stroke="#63b8ff" d="M71,-409.71C71,-398.04 71,-386.08 71,-375.22"/>
<polygon fill="none" stroke="#63b8ff" points="71,-375.05 67,-369.05 71,-363.05 75,-369.05 71,-375.05"/>
</a>
</g>
<text text-anchor="middle" x="100" y="-384" font-family="Helvetica,sans-Serif" font-size="10.00" fill="grey"> +elements</text>
</g>
<!-- Node8 -->
<g id="Node000008" class="node">
<title>Node8</title>
<g id="a_Node000008"><a xlink:title=" ">
<polygon fill="white" stroke="transparent" points="311.5,-357.5 160.5,-357.5 160.5,-308.5 311.5,-308.5 311.5,-357.5"/>
<text text-anchor="start" x="166" y="-345" font-family="Helvetica,sans-Serif" font-size="10.00">std::vector&lt; CoordinateXY &gt;</text>
<text text-anchor="start" x="234.5" y="-330" font-family="Helvetica,sans-Serif" font-size="10.00"> </text>
<text text-anchor="start" x="234.5" y="-315" font-family="Helvetica,sans-Serif" font-size="10.00"> </text>
<polygon fill="#666666" stroke="#666666" points="161,-340 161,-340 312,-340 312,-340 161,-340"/>
<polygon fill="#666666" stroke="#666666" points="161,-325 161,-325 312,-325 312,-325 161,-325"/>
<polygon fill="none" stroke="#666666" points="160.5,-308.5 160.5,-357.5 311.5,-357.5 311.5,-308.5 160.5,-308.5"/>
</a>
</g>
</g>
<!-- Node8&#45;&gt;Node5 -->
<g id="edge8_Node000005_Node000008" class="edge">
<title>Node8&#45;&gt;Node5</title>
<g id="a_edge8_Node000005_Node000008"><a xlink:title=" ">
<path fill="none" stroke="#63b8ff" d="M236.24,-308.29C236.39,-297.78 236.63,-285.27 237,-274 237.06,-272.11 237.13,-270.17 237.21,-268.21"/>
<polygon fill="none" stroke="#63b8ff" points="237.21,-268.19 233.47,-262.02 237.73,-256.2 241.47,-262.36 237.21,-268.19"/>
</a>
</g>
<text text-anchor="middle" x="269" y="-277" font-family="Helvetica,sans-Serif" font-size="10.00" fill="grey"> +pointsUTM</text>
</g>
<!-- Node9 -->
<g id="Node000009" class="node">
<title>Node9</title>
<g id="a_Node000009"><a xlink:href="../../df/d01/classCoordinateXY.html" target="_top" xlink:title="Coordonnée plane en mètres dans un système métrique (UTM ou similaire).">
<polygon fill="white" stroke="transparent" points="283.5,-534 188.5,-534 188.5,-410 283.5,-410 283.5,-534"/>
<text text-anchor="start" x="203" y="-522" font-family="Helvetica,sans-Serif" font-size="10.00">CoordinateXY</text>
<text text-anchor="start" x="193" y="-507" font-family="Helvetica,sans-Serif" font-size="10.00">+</text>
<text text-anchor="start" x="206" y="-507" font-family="Helvetica,sans-Serif" font-size="10.00">x</text>
<text text-anchor="start" x="193" y="-492" font-family="Helvetica,sans-Serif" font-size="10.00">+</text>
<text text-anchor="start" x="206" y="-492" font-family="Helvetica,sans-Serif" font-size="10.00">y</text>
<text text-anchor="start" x="193" y="-477" font-family="Helvetica,sans-Serif" font-size="10.00">+</text>
<text text-anchor="start" x="206" y="-477" font-family="Helvetica,sans-Serif" font-size="10.00">CoordinateXY()</text>
<text text-anchor="start" x="193" y="-462" font-family="Helvetica,sans-Serif" font-size="10.00">+</text>
<text text-anchor="start" x="206" y="-462" font-family="Helvetica,sans-Serif" font-size="10.00">CoordinateXY()</text>
<text text-anchor="start" x="193" y="-447" font-family="Helvetica,sans-Serif" font-size="10.00">+</text>
<text text-anchor="start" x="206" y="-447" font-family="Helvetica,sans-Serif" font-size="10.00">operator==()</text>
<text text-anchor="start" x="193" y="-432" font-family="Helvetica,sans-Serif" font-size="10.00">+</text>
<text text-anchor="start" x="206" y="-432" font-family="Helvetica,sans-Serif" font-size="10.00">operator!=()</text>
<text text-anchor="start" x="193" y="-417" font-family="Helvetica,sans-Serif" font-size="10.00">+</text>
<text text-anchor="start" x="206" y="-417" font-family="Helvetica,sans-Serif" font-size="10.00">toString()</text>
<polygon fill="#666666" stroke="#666666" points="189,-517 189,-517 284,-517 284,-517 189,-517"/>
<polygon fill="#666666" stroke="#666666" points="189,-487 189,-487 204,-487 204,-487 189,-487"/>
<polygon fill="#666666" stroke="#666666" points="204,-487 204,-487 284,-487 284,-487 204,-487"/>
<polygon fill="none" stroke="#666666" points="188.5,-410 188.5,-534 283.5,-534 283.5,-410 188.5,-410"/>
</a>
</g>
</g>
<!-- Node9&#45;&gt;Node8 -->
<g id="edge9_Node000008_Node000009" class="edge">
<title>Node9&#45;&gt;Node8</title>
<g id="a_edge9_Node000008_Node000009"><a xlink:title=" ">
<path fill="none" stroke="#63b8ff" d="M236,-409.71C236,-395.96 236,-381.83 236,-369.54"/>
<polygon fill="none" stroke="#63b8ff" points="236,-369.51 232,-363.51 236,-357.51 240,-363.51 236,-369.51"/>
</a>
</g>
<text text-anchor="middle" x="265" y="-384" font-family="Helvetica,sans-Serif" font-size="10.00" fill="grey"> +elements</text>
</g>
</g>
</svg>
