<?xml version="1.0" encoding="UTF-8" standalone="no"?>
<!DOCTYPE svg PUBLIC "-//W3C//DTD SVG 1.1//EN"
 "http://www.w3.org/Graphics/SVG/1.1/DTD/svg11.dtd">
<!-- Generated by graphviz version 2.43.0 (0)
 -->
<!-- Title: TopoNode Pages: 1 -->
<svg width="236pt" height="228pt"
 viewBox="0.00 0.00 236.00 228.00" xmlns="http://www.w3.org/2000/svg" xmlns:xlink="http://www.w3.org/1999/xlink">
<g id="graph0" class="graph" transform="scale(1 1) rotate(0) translate(4 224)">
<title>TopoNode</title>
<!-- Node1 -->
<g id="Node000001" class="node">
<title>Node1</title>
<g id="a_Node000001"><a xlink:title="Nœud topologique du graphe planaire.">
<polygon fill="#999999" stroke="transparent" points="138,-49 79,-49 79,0 138,0 138,-49"/>
<text text-anchor="start" x="84.5" y="-36.5" font-family="Helvetica,sans-Serif" font-size="10.00">TopoNode</text>
<text text-anchor="start" x="90.5" y="-21.5" font-family="Helvetica,sans-Serif" font-size="10.00">+</text>
<text text-anchor="start" x="110.5" y="-21.5" font-family="Helvetica,sans-Serif" font-size="10.00">id</text>
<text text-anchor="start" x="107" y="-6.5" font-family="Helvetica,sans-Serif" font-size="10.00"> </text>
<polygon fill="#666666" stroke="#666666" points="79.5,-31.5 79.5,-31.5 138.5,-31.5 138.5,-31.5 79.5,-31.5"/>
<polygon fill="#666666" stroke="#666666" points="79.5,-16.5 79.5,-16.5 108.5,-16.5 108.5,-16.5 79.5,-16.5"/>
<polygon fill="#666666" stroke="#666666" points="108.5,-16.5 108.5,-16.5 138.5,-16.5 138.5,-16.5 108.5,-16.5"/>
<polygon fill="none" stroke="#666666" points="79,0 79,-49 138,-49 138,0 79,0"/>
</a>
</g>
</g>
<!-- Node2 -->
<g id="Node000002" class="node">
<title>Node2</title>
<g id="a_Node000002"><a xlink:href="../../df/d01/classCoordinateXY.html" target="_top" xlink:title="Coordonnée plane en mètres dans un système métrique (UTM ou similaire).">
<polygon fill="white" stroke="transparent" points="95,-220 0,-220 0,-96 95,-96 95,-220"/>
<text text-anchor="start" x="14.5" y="-208" font-family="Helvetica,sans-Serif" font-size="10.00">CoordinateXY</text>
<text text-anchor="start" x="4.5" y="-193" font-family="Helvetica,sans-Serif" font-size="10.00">+</text>
<text text-anchor="start" x="17.5" y="-193" font-family="Helvetica,sans-Serif" font-size="10.00">x</text>
<text text-anchor="start" x="4.5" y="-178" font-family="Helvetica,sans-Serif" font-size="10.00">+</text>
<text text-anchor="start" x="17.5" y="-178" font-family="Helvetica,sans-Serif" font-size="10.00">y</text>
<text text-anchor="start" x="4.5" y="-163" font-family="Helvetica,sans-Serif" font-size="10.00">+</text>
<text text-anchor="start" x="17.5" y="-163" font-family="Helvetica,sans-Serif" font-size="10.00">CoordinateXY()</text>
<text text-anchor="start" x="4.5" y="-148" font-family="Helvetica,sans-Serif" font-size="10.00">+</text>
<text text-anchor="start" x="17.5" y="-148" font-family="Helvetica,sans-Serif" font-size="10.00">CoordinateXY()</text>
<text text-anchor="start" x="4.5" y="-133" font-family="Helvetica,sans-Serif" font-size="10.00">+</text>
<text text-anchor="start" x="17.5" y="-133" font-family="Helvetica,sans-Serif" font-size="10.00">operator==()</text>
<text text-anchor="start" x="4.5" y="-118" font-family="Helvetica,sans-Serif" font-size="10.00">+</text>
<text text-anchor="start" x="17.5" y="-118" font-family="Helvetica,sans-Serif" font-size="10.00">operator!=()</text>
<text text-anchor="start" x="4.5" y="-103" font-family="Helvetica,sans-Serif" font-size="10.00">+</text>
<text text-anchor="start" x="17.5" y="-103" font-family="Helvetica,sans-Serif" font-size="10.00">toString()</text>
<polygon fill="#666666" stroke="#666666" points="0.5,-203 0.5,-203 95.5,-203 95.5,-203 0.5,-203"/>
<polygon fill="#666666" stroke="#666666" points="0.5,-173 0.5,-173 15.5,-173 15.5,-173 0.5,-173"/>
<polygon fill="#666666" stroke="#666666" points="15.5,-173 15.5,-173 95.5,-173 95.5,-173 15.5,-173"/>
<polygon fill="none" stroke="#666666" points="0,-96 0,-220 95,-220 95,-96 0,-96"/>
</a>
</g>
</g>
<!-- Node2&#45;&gt;Node1 -->
<g id="edge1_Node000001_Node000002" class="edge">
<title>Node2&#45;&gt;Node1</title>
<g id="a_edge1_Node000001_Node000002"><a xlink:title=" ">
<path fill="none" stroke="#63b8ff" d="M75.86,-95.87C81.52,-83.65 87.29,-71.23 92.37,-60.28"/>
<polygon fill="none" stroke="#63b8ff" points="92.52,-59.95 91.41,-52.83 97.57,-49.07 98.67,-56.19 92.52,-59.95"/>
</a>
</g>
<text text-anchor="middle" x="115.5" y="-70" font-family="Helvetica,sans-Serif" font-size="10.00" fill="grey"> +posUTM</text>
</g>
<!-- Node3 -->
<g id="Node000003" class="node">
<title>Node3</title>
<g id="a_Node000003"><a xlink:href="../../db/d03/classCoordinateLatLon.html" target="_top" xlink:title="Coordonnée géographique WGS&#45;84 exprimée en degrés décimaux.">
<polygon fill="white" stroke="transparent" points="228,-220 113,-220 113,-96 228,-96 228,-220"/>
<text text-anchor="start" x="128" y="-208" font-family="Helvetica,sans-Serif" font-size="10.00">CoordinateLatLon</text>
<text text-anchor="start" x="117.5" y="-193" font-family="Helvetica,sans-Serif" font-size="10.00">+</text>
<text text-anchor="start" x="130.5" y="-193" font-family="Helvetica,sans-Serif" font-size="10.00">latitude</text>
<text text-anchor="start" x="117.5" y="-178" font-family="Helvetica,sans-Serif" font-size="10.00">+</text>
<text text-anchor="start" x="130.5" y="-178" font-family="Helvetica,sans-Serif" font-size="10.00">longitude</text>
<text text-anchor="start" x="117.5" y="-163" font-family="Helvetica,sans-Serif" font-size="10.00">+</text>
<text text-anchor="start" x="130.5" y="-163" font-family="Helvetica,sans-Serif" font-size="10.00">CoordinateLatLon()</text>
<text text-anchor="start" x="117.5" y="-148" font-family="Helvetica,sans-Serif" font-size="10.00">+</text>
<text text-anchor="start" x="130.5" y="-148" font-family="Helvetica,sans-Serif" font-size="10.00">CoordinateLatLon()</text>
<text text-anchor="start" x="117.5" y="-133" font-family="Helvetica,sans-Serif" font-size="10.00">+</text>
<text text-anchor="start" x="130.5" y="-133" font-family="Helvetica,sans-Serif" font-size="10.00">operator==()</text>
<text text-anchor="start" x="117.5" y="-118" font-family="Helvetica,sans-Serif" font-size="10.00">+</text>
<text text-anchor="start" x="130.5" y="-118" font-family="Helvetica,sans-Serif" font-size="10.00">operator!=()</text>
<text text-anchor="start" x="117.5" y="-103" font-family="Helvetica,sans-Serif" font-size="10.00">+</text>
<text text-anchor="start" x="130.5" y="-103" font-family="Helvetica,sans-Serif" font-size="10.00">toString()</text>
<polygon fill="#666666" stroke="#666666" points="113.5,-203 113.5,-203 228.5,-203 228.5,-203 113.5,-203"/>
<polygon fill="#666666" stroke="#666666" points="113.5,-173 113.5,-173 128.5,-173 128.5,-173 113.5,-173"/>
<polygon fill="#666666" stroke="#666666" points="128.5,-173 128.5,-173 228.5,-173 228.5,-173 128.5,-173"/>
<polygon fill="none" stroke="#666666" points="113,-96 113,-220 228,-220 228,-96 113,-96"/>
</a>
</g>
</g>
<!-- Node3&#45;&gt;Node1 -->
<g id="edge2_Node000001_Node000003" class="edge">
<title>Node3&#45;&gt;Node1</title>
<g id="a_edge2_Node000001_Node000003"><a xlink:title=" ">
<path fill="none" stroke="#63b8ff" d="M157.64,-95.96C154.39,-85.97 150.39,-75.97 145.5,-67 143.95,-64.16 142.17,-61.35 140.25,-58.61"/>
<polygon fill="none" stroke="#63b8ff" points="140.2,-58.56 133.36,-56.29 132.82,-49.09 139.67,-51.37 140.2,-58.56"/>
</a>
</g>
<text text-anchor="middle" x="181.5" y="-70" font-family="Helvetica,sans-Serif" font-size="10.00" fill="grey"> +posWGS84</text>
</g>
</g>
</svg>
