<?xml version="1.0" encoding="UTF-8" standalone="no"?>
<!DOCTYPE svg PUBLIC "-//W3C//DTD SVG 1.1//EN"
 "http://www.w3.org/Graphics/SVG/1.1/DTD/svg11.dtd">
<!-- Generated by graphviz version 2.43.0 (0)
 -->
<!-- Title: ParserSettingsDialog::DlgData Pages: 1 -->
<svg width="225pt" height="366pt"
 viewBox="0.00 0.00 225.00 366.00" xmlns="http://www.w3.org/2000/svg" xmlns:xlink="http://www.w3.org/1999/xlink">
<g id="graph0" class="graph" transform="scale(1 1) rotate(0) translate(4 362)">
<title>ParserSettingsDialog::DlgData</title>
<!-- Node1 -->
<g id="Node000001" class="node">
<title>Node1</title>
<g id="a_Node000001"><a xlink:title=" ">
<polygon fill="#999999" stroke="transparent" points="148,-60 36,-60 36,0 148,0 148,-60"/>
<text text-anchor="start" x="41" y="-48" font-family="Helvetica,sans-Serif" font-size="10.00">ParserSettingsDialog</text>
<text text-anchor="start" x="69" y="-37" font-family="Helvetica,sans-Serif" font-size="10.00">::DlgData</text>
<text text-anchor="start" x="51.5" y="-22" font-family="Helvetica,sans-Serif" font-size="10.00">+</text>
<text text-anchor="start" x="76" y="-22" font-family="Helvetica,sans-Serif" font-size="10.00">accepted</text>
<text text-anchor="start" x="90" y="-7" font-family="Helvetica,sans-Serif" font-size="10.00"> </text>
<polygon fill="#666666" stroke="#666666" points="36,-32 36,-32 148,-32 148,-32 36,-32"/>
<polygon fill="#666666" stroke="#666666" points="36,-17 36,-17 74,-17 74,-17 36,-17"/>
<polygon fill="#666666" stroke="#666666" points="74,-17 74,-17 148,-17 148,-17 74,-17"/>
<polygon fill="none" stroke="#666666" points="36,0 36,-60 148,-60 148,0 36,0"/>
</a>
</g>
</g>
<!-- Node2 -->
<g id="Node000002" class="node">
<title>Node2</title>
<g id="a_Node000002"><a xlink:href="../../dd/d03/structParserConfig.html" target="_top" xlink:title="Configuration complète du pipeline GeoParser — POD sans logique.">
<polygon fill="white" stroke="transparent" points="120,-261 0,-261 0,-107 120,-107 120,-261"/>
<text text-anchor="start" x="29.5" y="-249" font-family="Helvetica,sans-Serif" font-size="10.00">ParserConfig</text>
<text text-anchor="start" x="4" y="-234" font-family="Helvetica,sans-Serif" font-size="10.00">+</text>
<text text-anchor="start" x="17" y="-234" font-family="Helvetica,sans-Serif" font-size="10.00">snapTolerance</text>
<text text-anchor="start" x="4" y="-219" font-family="Helvetica,sans-Serif" font-size="10.00">+</text>
<text text-anchor="start" x="17" y="-219" font-family="Helvetica,sans-Serif" font-size="10.00">maxSegmentLength</text>
<text text-anchor="start" x="4" y="-204" font-family="Helvetica,sans-Serif" font-size="10.00">+</text>
<text text-anchor="start" x="17" y="-204" font-family="Helvetica,sans-Serif" font-size="10.00">intersectionEpsilon</text>
<text text-anchor="start" x="4" y="-189" font-family="Helvetica,sans-Serif" font-size="10.00">+</text>
<text text-anchor="start" x="17" y="-189" font-family="Helvetica,sans-Serif" font-size="10.00">minSwitchAngle</text>
<text text-anchor="start" x="4" y="-174" font-family="Helvetica,sans-Serif" font-size="10.00">+</text>
<text text-anchor="start" x="17" y="-174" font-family="Helvetica,sans-Serif" font-size="10.00">junctionTrimMargin</text>
<text text-anchor="start" x="4" y="-159" font-family="Helvetica,sans-Serif" font-size="10.00">+</text>
<text text-anchor="start" x="17" y="-159" font-family="Helvetica,sans-Serif" font-size="10.00">doubleSwitchRadius</text>
<text text-anchor="start" x="4" y="-144" font-family="Helvetica,sans-Serif" font-size="10.00">+</text>
<text text-anchor="start" x="17" y="-144" font-family="Helvetica,sans-Serif" font-size="10.00">switchSideSize</text>
<text text-anchor="start" x="4" y="-129" font-family="Helvetica,sans-Serif" font-size="10.00">+</text>
<text text-anchor="start" x="17" y="-129" font-family="Helvetica,sans-Serif" font-size="10.00">minBranchLength</text>
<text text-anchor="start" x="58" y="-114" font-family="Helvetica,sans-Serif" font-size="10.00"> </text>
<polygon fill="#666666" stroke="#666666" points="0,-244 0,-244 120,-244 120,-244 0,-244"/>
<polygon fill="#666666" stroke="#666666" points="0,-124 0,-124 15,-124 15,-124 0,-124"/>
<polygon fill="#666666" stroke="#666666" points="15,-124 15,-124 120,-124 120,-124 15,-124"/>
<polygon fill="none" stroke="#666666" points="0,-107 0,-261 120,-261 120,-107 0,-107"/>
</a>
</g>
</g>
<!-- Node2&#45;&gt;Node1 -->
<g id="edge1_Node000001_Node000002" class="edge">
<title>Node2&#45;&gt;Node1</title>
<g id="a_edge1_Node000001_Node000002"><a xlink:title=" ">
<path fill="none" stroke="#63b8ff" d="M76.09,-106.55C78.6,-94.65 81.1,-82.76 83.36,-72.06"/>
<polygon fill="none" stroke="#63b8ff" points="83.4,-71.85 80.72,-65.15 85.87,-60.1 88.55,-66.8 83.4,-71.85"/>
</a>
</g>
<text text-anchor="middle" x="102.5" y="-81" font-family="Helvetica,sans-Serif" font-size="10.00" fill="grey"> +config</text>
</g>
<!-- Node3 -->
<g id="Node000003" class="node">
<title>Node3</title>
<g id="a_Node000003"><a xlink:title=" ">
<polygon fill="white" stroke="transparent" points="197.5,-208.5 138.5,-208.5 138.5,-159.5 197.5,-159.5 197.5,-208.5"/>
<text text-anchor="start" x="144" y="-196" font-family="Helvetica,sans-Serif" font-size="10.00">std::string</text>
<text text-anchor="start" x="166.5" y="-181" font-family="Helvetica,sans-Serif" font-size="10.00"> </text>
<text text-anchor="start" x="166.5" y="-166" font-family="Helvetica,sans-Serif" font-size="10.00"> </text>
<polygon fill="#666666" stroke="#666666" points="139,-191 139,-191 198,-191 198,-191 139,-191"/>
<polygon fill="#666666" stroke="#666666" points="139,-176 139,-176 198,-176 198,-176 139,-176"/>
<polygon fill="none" stroke="#666666" points="138.5,-159.5 138.5,-208.5 197.5,-208.5 197.5,-159.5 138.5,-159.5"/>
</a>
</g>
</g>
<!-- Node3&#45;&gt;Node1 -->
<g id="edge2_Node000001_Node000003" class="edge">
<title>Node3&#45;&gt;Node1</title>
<g id="a_edge2_Node000001_Node000003"><a xlink:title=" ">
<path fill="none" stroke="#63b8ff" d="M159.68,-159.44C151.66,-137.74 138.61,-104.93 124,-78 122.63,-75.47 121.16,-72.92 119.62,-70.36"/>
<polygon fill="none" stroke="#63b8ff" points="119.49,-70.16 112.9,-67.22 113.08,-60.01 119.67,-62.95 119.49,-70.16"/>
</a>
</g>
<text text-anchor="middle" x="151.5" y="-81" font-family="Helvetica,sans-Serif" font-size="10.00" fill="grey"> +iniPath</text>
</g>
<!-- Node4 -->
<g id="Node000004" class="node">
<title>Node4</title>
<g id="a_Node000004"><a xlink:title=" ">
<polygon fill="white" stroke="transparent" points="217,-358 119,-358 119,-298 217,-298 217,-358"/>
<text text-anchor="start" x="124" y="-346" font-family="Helvetica,sans-Serif" font-size="10.00">std::basic_string&lt;</text>
<text text-anchor="start" x="149.5" y="-335" font-family="Helvetica,sans-Serif" font-size="10.00"> Char &gt;</text>
<text text-anchor="start" x="166" y="-320" font-family="Helvetica,sans-Serif" font-size="10.00"> </text>
<text text-anchor="start" x="166" y="-305" font-family="Helvetica,sans-Serif" font-size="10.00"> </text>
<polygon fill="#666666" stroke="#666666" points="119,-330 119,-330 217,-330 217,-330 119,-330"/>
<polygon fill="#666666" stroke="#666666" points="119,-315 119,-315 217,-315 217,-315 119,-315"/>
<polygon fill="none" stroke="#666666" points="119,-298 119,-358 217,-358 217,-298 119,-298"/>
</a>
</g>
</g>
<!-- Node4&#45;&gt;Node3 -->
<g id="edge3_Node000003_Node000004" class="edge">
<title>Node4&#45;&gt;Node3</title>
<g id="a_edge3_Node000003_Node000004"><a xlink:title=" ">
<path fill="none" stroke="#63b8ff" d="M168,-287.89C168,-262.57 168,-230.42 168,-208.86"/>
<polygon fill="none" stroke="#63b8ff" points="164.5,-287.92 168,-297.92 171.5,-287.92 164.5,-287.92"/>
</a>
</g>
</g>
</g>
</svg>
