<?xml version="1.0" encoding="UTF-8" standalone="no"?>
<!DOCTYPE svg PUBLIC "-//W3C//DTD SVG 1.1//EN"
 "http://www.w3.org/Graphics/SVG/1.1/DTD/svg11.dtd">
<!-- Generated by graphviz version 2.43.0 (0)
 -->
<!-- Title: GraphBuilder Pages: 1 -->
<svg width="399pt" height="885pt"
 viewBox="0.00 0.00 399.00 885.00" xmlns="http://www.w3.org/2000/svg" xmlns:xlink="http://www.w3.org/1999/xlink">
<g id="graph0" class="graph" transform="scale(1 1) rotate(0) translate(4 881)">
<title>GraphBuilder</title>
<!-- Node1 -->
<g id="Node000001" class="node">
<title>Node1</title>
<g id="a_Node000001"><a xlink:title="Charge un fichier GeoJSON et construit le TopologyGraph métrique.">
<polygon fill="#999999" stroke="transparent" points="158,-124 0,-124 0,0 158,0 158,-124"/>
<text text-anchor="start" x="47" y="-112" font-family="Helvetica,sans-Serif" font-size="10.00">GraphBuilder</text>
<text text-anchor="start" x="6.5" y="-97" font-family="Helvetica,sans-Serif" font-size="10.00">&#45;</text>
<text text-anchor="start" x="17" y="-97" font-family="Helvetica,sans-Serif" font-size="10.00">m_snapGridMeters</text>
<text text-anchor="start" x="6.5" y="-82" font-family="Helvetica,sans-Serif" font-size="10.00">&#45;</text>
<text text-anchor="start" x="17" y="-82" font-family="Helvetica,sans-Serif" font-size="10.00">m_endpointSnapMeters</text>
<text text-anchor="start" x="4" y="-67" font-family="Helvetica,sans-Serif" font-size="10.00">+</text>
<text text-anchor="start" x="17" y="-67" font-family="Helvetica,sans-Serif" font-size="10.00">GraphBuilder()</text>
<text text-anchor="start" x="4" y="-52" font-family="Helvetica,sans-Serif" font-size="10.00">+</text>
<text text-anchor="start" x="17" y="-52" font-family="Helvetica,sans-Serif" font-size="10.00">build()</text>
<text text-anchor="start" x="6.5" y="-37" font-family="Helvetica,sans-Serif" font-size="10.00">&#45;</text>
<text text-anchor="start" x="17" y="-37" font-family="Helvetica,sans-Serif" font-size="10.00">loadGeoJsonFile()</text>
<text text-anchor="start" x="6.5" y="-22" font-family="Helvetica,sans-Serif" font-size="10.00">&#45;</text>
<text text-anchor="start" x="17" y="-22" font-family="Helvetica,sans-Serif" font-size="10.00">buildTopologyGraph()</text>
<text text-anchor="start" x="6.5" y="-7" font-family="Helvetica,sans-Serif" font-size="10.00">&#45;</text>
<text text-anchor="start" x="17" y="-7" font-family="Helvetica,sans-Serif" font-size="10.00">computeBoundaryNodeIds()</text>
<polygon fill="#666666" stroke="#666666" points="0,-107 0,-107 158,-107 158,-107 0,-107"/>
<polygon fill="#666666" stroke="#666666" points="0,-77 0,-77 15,-77 15,-77 0,-77"/>
<polygon fill="#666666" stroke="#666666" points="15,-77 15,-77 158,-77 158,-77 15,-77"/>
<polygon fill="none" stroke="#666666" points="0,0 0,-124 158,-124 158,0 0,0"/>
</a>
</g>
</g>
<!-- Node2 -->
<g id="Node000002" class="node">
<title>Node2</title>
<g id="a_Node000002"><a xlink:href="../../db/d03/classLogger.html" target="_top" xlink:title="Journaliseur associé à un moteur nommé.">
<polygon fill="white" stroke="transparent" points="316,-415 180,-415 180,-171 316,-171 316,-415"/>
<text text-anchor="start" x="231" y="-403" font-family="Helvetica,sans-Serif" font-size="10.00">Logger</text>
<text text-anchor="start" x="186.5" y="-388" font-family="Helvetica,sans-Serif" font-size="10.00">&#45;</text>
<text text-anchor="start" x="197" y="-388" font-family="Helvetica,sans-Serif" font-size="10.00">m_minimumLevel</text>
<text text-anchor="start" x="184" y="-373" font-family="Helvetica,sans-Serif" font-size="10.00">+</text>
<text text-anchor="start" x="197" y="-373" font-family="Helvetica,sans-Serif" font-size="10.00">Logger()</text>
<text text-anchor="start" x="184" y="-358" font-family="Helvetica,sans-Serif" font-size="10.00">+</text>
<text text-anchor="start" x="197" y="-358" font-family="Helvetica,sans-Serif" font-size="10.00">~Logger()</text>
<text text-anchor="start" x="184" y="-343" font-family="Helvetica,sans-Serif" font-size="10.00">+</text>
<text text-anchor="start" x="197" y="-343" font-family="Helvetica,sans-Serif" font-size="10.00">Logger()</text>
<text text-anchor="start" x="184" y="-328" font-family="Helvetica,sans-Serif" font-size="10.00">+</text>
<text text-anchor="start" x="197" y="-328" font-family="Helvetica,sans-Serif" font-size="10.00">operator=()</text>
<text text-anchor="start" x="184" y="-313" font-family="Helvetica,sans-Serif" font-size="10.00">+</text>
<text text-anchor="start" x="197" y="-313" font-family="Helvetica,sans-Serif" font-size="10.00">writeLog()</text>
<text text-anchor="start" x="184" y="-298" font-family="Helvetica,sans-Serif" font-size="10.00">+</text>
<text text-anchor="start" x="197" y="-298" font-family="Helvetica,sans-Serif" font-size="10.00">setMinimumLogLevel()</text>
<text text-anchor="start" x="184" y="-283" font-family="Helvetica,sans-Serif" font-size="10.00">+</text>
<text text-anchor="start" x="197" y="-283" font-family="Helvetica,sans-Serif" font-size="10.00">getMotorName()</text>
<text text-anchor="start" x="184" y="-268" font-family="Helvetica,sans-Serif" font-size="10.00">+</text>
<text text-anchor="start" x="197" y="-268" font-family="Helvetica,sans-Serif" font-size="10.00">triggerFatalCrash()</text>
<text text-anchor="start" x="186.5" y="-253" font-family="Helvetica,sans-Serif" font-size="10.00">&#45;</text>
<text text-anchor="start" x="197" y="-253" font-family="Helvetica,sans-Serif" font-size="10.00">extractClassName()</text>
<text text-anchor="start" x="186.5" y="-238" font-family="Helvetica,sans-Serif" font-size="10.00">&#45;</text>
<text text-anchor="start" x="197" y="-238" font-family="Helvetica,sans-Serif" font-size="10.00">extractFunctionName()</text>
<text text-anchor="start" x="186.5" y="-223" font-family="Helvetica,sans-Serif" font-size="10.00">&#45;</text>
<text text-anchor="start" x="197" y="-223" font-family="Helvetica,sans-Serif" font-size="10.00">formatLogLine()</text>
<text text-anchor="start" x="186.5" y="-208" font-family="Helvetica,sans-Serif" font-size="10.00">&#45;</text>
<text text-anchor="start" x="197" y="-208" font-family="Helvetica,sans-Serif" font-size="10.00">levelToString()</text>
<text text-anchor="start" x="186.5" y="-193" font-family="Helvetica,sans-Serif" font-size="10.00">&#45;</text>
<text text-anchor="start" x="197" y="-193" font-family="Helvetica,sans-Serif" font-size="10.00">getCurrentTimestamp()</text>
<text text-anchor="start" x="186.5" y="-178" font-family="Helvetica,sans-Serif" font-size="10.00">&#45;</text>
<text text-anchor="start" x="197" y="-178" font-family="Helvetica,sans-Serif" font-size="10.00">sendToDebugOutput()</text>
<polygon fill="#666666" stroke="#666666" points="180,-398 180,-398 316,-398 316,-398 180,-398"/>
<polygon fill="#666666" stroke="#666666" points="180,-383 180,-383 195,-383 195,-383 180,-383"/>
<polygon fill="#666666" stroke="#666666" points="195,-383 195,-383 316,-383 316,-383 195,-383"/>
<polygon fill="none" stroke="#666666" points="180,-171 180,-415 316,-415 316,-171 180,-171"/>
</a>
</g>
</g>
<!-- Node2&#45;&gt;Node1 -->
<g id="edge1_Node000001_Node000002" class="edge">
<title>Node2&#45;&gt;Node1</title>
<g id="a_edge1_Node000001_Node000002"><a xlink:title=" ">
<path fill="none" stroke="#63b8ff" d="M179.93,-190.23C175.27,-183.68 170.6,-177.22 166,-171 157.02,-158.86 147.21,-146.18 137.53,-133.96"/>
<polygon fill="none" stroke="#63b8ff" points="137.29,-133.66 130.42,-131.46 129.81,-124.28 136.68,-126.47 137.29,-133.66"/>
</a>
</g>
<text text-anchor="middle" x="179.5" y="-145" font-family="Helvetica,sans-Serif" font-size="10.00" fill="grey"> &#45;m_logger</text>
</g>
<!-- Node3 -->
<g id="Node000003" class="node">
<title>Node3</title>
<g id="a_Node000003"><a xlink:title=" ">
<polygon fill="white" stroke="transparent" points="136.5,-511 77.5,-511 77.5,-462 136.5,-462 136.5,-511"/>
<text text-anchor="start" x="83" y="-498.5" font-family="Helvetica,sans-Serif" font-size="10.00">std::string</text>
<text text-anchor="start" x="105.5" y="-483.5" font-family="Helvetica,sans-Serif" font-size="10.00"> </text>
<text text-anchor="start" x="105.5" y="-468.5" font-family="Helvetica,sans-Serif" font-size="10.00"> </text>
<polygon fill="#666666" stroke="#666666" points="78,-493.5 78,-493.5 137,-493.5 137,-493.5 78,-493.5"/>
<polygon fill="#666666" stroke="#666666" points="78,-478.5 78,-478.5 137,-478.5 137,-478.5 78,-478.5"/>
<polygon fill="none" stroke="#666666" points="77.5,-462 77.5,-511 136.5,-511 136.5,-462 77.5,-462"/>
</a>
</g>
</g>
<!-- Node3&#45;&gt;Node1 -->
<g id="edge10_Node000001_Node000003" class="edge">
<title>Node3&#45;&gt;Node1</title>
<g id="a_edge10_Node000001_Node000003"><a xlink:title=" ">
<path fill="none" stroke="#63b8ff" d="M91.77,-461.76C84.2,-448.55 75.87,-431.5 72,-415 49.86,-320.63 57.84,-208.11 67.11,-136.14"/>
<polygon fill="none" stroke="#63b8ff" points="67.14,-135.96 63.97,-129.48 68.73,-124.06 71.9,-130.54 67.14,-135.96"/>
</a>
</g>
<text text-anchor="middle" x="121.5" y="-290.5" font-family="Helvetica,sans-Serif" font-size="10.00" fill="grey"> &#45;m_geoJsonFilePath</text>
</g>
<!-- Node3&#45;&gt;Node2 -->
<g id="edge2_Node000002_Node000003" class="edge">
<title>Node3&#45;&gt;Node2</title>
<g id="a_edge2_Node000002_Node000003"><a xlink:title=" ">
<path fill="none" stroke="#63b8ff" d="M127.82,-461.84C139.41,-448.38 153.89,-431.06 166,-415 168.22,-412.06 170.45,-409.06 172.69,-406.02"/>
<polygon fill="none" stroke="#63b8ff" points="172.78,-405.9 173.07,-398.69 179.83,-396.19 179.54,-403.4 172.78,-405.9"/>
</a>
</g>
<text text-anchor="middle" x="191.5" y="-436" font-family="Helvetica,sans-Serif" font-size="10.00" fill="grey"> &#45;m_motorName</text>
</g>
<!-- Node4 -->
<g id="Node000004" class="node">
<title>Node4</title>
<g id="a_Node000004"><a xlink:title=" ">
<polygon fill="white" stroke="transparent" points="156,-608 58,-608 58,-548 156,-548 156,-608"/>
<text text-anchor="start" x="63" y="-596" font-family="Helvetica,sans-Serif" font-size="10.00">std::basic_string&lt;</text>
<text text-anchor="start" x="88.5" y="-585" font-family="Helvetica,sans-Serif" font-size="10.00"> Char &gt;</text>
<text text-anchor="start" x="105" y="-570" font-family="Helvetica,sans-Serif" font-size="10.00"> </text>
<text text-anchor="start" x="105" y="-555" font-family="Helvetica,sans-Serif" font-size="10.00"> </text>
<polygon fill="#666666" stroke="#666666" points="58,-580 58,-580 156,-580 156,-580 58,-580"/>
<polygon fill="#666666" stroke="#666666" points="58,-565 58,-565 156,-565 156,-565 58,-565"/>
<polygon fill="none" stroke="#666666" points="58,-548 58,-608 156,-608 156,-548 58,-548"/>
</a>
</g>
</g>
<!-- Node4&#45;&gt;Node3 -->
<g id="edge3_Node000003_Node000004" class="edge">
<title>Node4&#45;&gt;Node3</title>
<g id="a_edge3_Node000003_Node000004"><a xlink:title=" ">
<path fill="none" stroke="#63b8ff" d="M107,-537.41C107,-528.47 107,-519.25 107,-511.21"/>
<polygon fill="none" stroke="#63b8ff" points="103.5,-537.69 107,-547.69 110.5,-537.69 103.5,-537.69"/>
</a>
</g>
</g>
<!-- Node5 -->
<g id="Node000005" class="node">
<title>Node5</title>
<g id="a_Node000005"><a xlink:title=" ">
<polygon fill="white" stroke="transparent" points="274,-511 198,-511 198,-462 274,-462 274,-511"/>
<text text-anchor="start" x="203" y="-498.5" font-family="Helvetica,sans-Serif" font-size="10.00">std::ofstream</text>
<text text-anchor="start" x="234" y="-483.5" font-family="Helvetica,sans-Serif" font-size="10.00"> </text>
<text text-anchor="start" x="234" y="-468.5" font-family="Helvetica,sans-Serif" font-size="10.00"> </text>
<polygon fill="#666666" stroke="#666666" points="198,-493.5 198,-493.5 274,-493.5 274,-493.5 198,-493.5"/>
<polygon fill="#666666" stroke="#666666" points="198,-478.5 198,-478.5 274,-478.5 274,-478.5 198,-478.5"/>
<polygon fill="none" stroke="#666666" points="198,-462 198,-511 274,-511 274,-462 198,-462"/>
</a>
</g>
</g>
<!-- Node5&#45;&gt;Node2 -->
<g id="edge4_Node000002_Node000005" class="edge">
<title>Node5&#45;&gt;Node2</title>
<g id="a_edge4_Node000002_Node000005"><a xlink:title=" ">
<path fill="none" stroke="#63b8ff" d="M236.15,-461.97C236.28,-452.91 236.54,-442.47 237,-433 237.09,-431.19 237.18,-429.36 237.28,-427.52"/>
<polygon fill="none" stroke="#63b8ff" points="237.29,-427.25 233.64,-421.03 237.97,-415.27 241.63,-421.48 237.29,-427.25"/>
</a>
</g>
<text text-anchor="middle" x="272.5" y="-436" font-family="Helvetica,sans-Serif" font-size="10.00" fill="grey"> &#45;m_outputFile</text>
</g>
<!-- Node6 -->
<g id="Node000006" class="node">
<title>Node6</title>
<g id="a_Node000006"><a xlink:title=" ">
<polygon fill="white" stroke="transparent" points="289.5,-608 182.5,-608 182.5,-548 289.5,-548 289.5,-608"/>
<text text-anchor="start" x="188" y="-596" font-family="Helvetica,sans-Serif" font-size="10.00">std::basic_ofstream</text>
<text text-anchor="start" x="213.5" y="-585" font-family="Helvetica,sans-Serif" font-size="10.00">&lt; Char &gt;</text>
<text text-anchor="start" x="234.5" y="-570" font-family="Helvetica,sans-Serif" font-size="10.00"> </text>
<text text-anchor="start" x="234.5" y="-555" font-family="Helvetica,sans-Serif" font-size="10.00"> </text>
<polygon fill="#666666" stroke="#666666" points="183,-580 183,-580 290,-580 290,-580 183,-580"/>
<polygon fill="#666666" stroke="#666666" points="183,-565 183,-565 290,-565 290,-565 183,-565"/>
<polygon fill="none" stroke="#666666" points="182.5,-548 182.5,-608 289.5,-608 289.5,-548 182.5,-548"/>
</a>
</g>
</g>
<!-- Node6&#45;&gt;Node5 -->
<g id="edge5_Node000005_Node000006" class="edge">
<title>Node6&#45;&gt;Node5</title>
<g id="a_edge5_Node000005_Node000006"><a xlink:title=" ">
<path fill="none" stroke="#63b8ff" d="M236,-537.41C236,-528.47 236,-519.25 236,-511.21"/>
<polygon fill="none" stroke="#63b8ff" points="232.5,-537.69 236,-547.69 239.5,-537.69 232.5,-537.69"/>
</a>
</g>
</g>
<!-- Node7 -->
<g id="Node000007" class="node">
<title>Node7</title>
<g id="a_Node000007"><a xlink:title=" ">
<polygon fill="white" stroke="transparent" points="287.5,-705 184.5,-705 184.5,-645 287.5,-645 287.5,-705"/>
<text text-anchor="start" x="190" y="-693" font-family="Helvetica,sans-Serif" font-size="10.00">std::basic_ostream</text>
<text text-anchor="start" x="213.5" y="-682" font-family="Helvetica,sans-Serif" font-size="10.00">&lt; Char &gt;</text>
<text text-anchor="start" x="234.5" y="-667" font-family="Helvetica,sans-Serif" font-size="10.00"> </text>
<text text-anchor="start" x="234.5" y="-652" font-family="Helvetica,sans-Serif" font-size="10.00"> </text>
<polygon fill="#666666" stroke="#666666" points="185,-677 185,-677 288,-677 288,-677 185,-677"/>
<polygon fill="#666666" stroke="#666666" points="185,-662 185,-662 288,-662 288,-662 185,-662"/>
<polygon fill="none" stroke="#666666" points="184.5,-645 184.5,-705 287.5,-705 287.5,-645 184.5,-645"/>
</a>
</g>
</g>
<!-- Node7&#45;&gt;Node6 -->
<g id="edge6_Node000006_Node000007" class="edge">
<title>Node7&#45;&gt;Node6</title>
<g id="a_edge6_Node000006_Node000007"><a xlink:title=" ">
<path fill="none" stroke="#63b8ff" d="M236,-634.79C236,-625.88 236,-616.57 236,-608.17"/>
<polygon fill="none" stroke="#63b8ff" points="232.5,-634.98 236,-644.98 239.5,-634.98 232.5,-634.98"/>
</a>
</g>
</g>
<!-- Node8 -->
<g id="Node000008" class="node">
<title>Node8</title>
<g id="a_Node000008"><a xlink:title=" ">
<polygon fill="white" stroke="transparent" points="297,-791 175,-791 175,-742 297,-742 297,-791"/>
<text text-anchor="start" x="180" y="-778.5" font-family="Helvetica,sans-Serif" font-size="10.00">std::basic_ios&lt; Char &gt;</text>
<text text-anchor="start" x="234" y="-763.5" font-family="Helvetica,sans-Serif" font-size="10.00"> </text>
<text text-anchor="start" x="234" y="-748.5" font-family="Helvetica,sans-Serif" font-size="10.00"> </text>
<polygon fill="#666666" stroke="#666666" points="175,-773.5 175,-773.5 297,-773.5 297,-773.5 175,-773.5"/>
<polygon fill="#666666" stroke="#666666" points="175,-758.5 175,-758.5 297,-758.5 297,-758.5 175,-758.5"/>
<polygon fill="none" stroke="#666666" points="175,-742 175,-791 297,-791 297,-742 175,-742"/>
</a>
</g>
</g>
<!-- Node8&#45;&gt;Node7 -->
<g id="edge7_Node000007_Node000008" class="edge">
<title>Node8&#45;&gt;Node7</title>
<g id="a_edge7_Node000007_Node000008"><a xlink:title=" ">
<path fill="none" stroke="#63b8ff" d="M236,-731.7C236,-722.95 236,-713.6 236,-705.12"/>
<polygon fill="none" stroke="#63b8ff" points="232.5,-731.98 236,-741.98 239.5,-731.98 232.5,-731.98"/>
</a>
</g>
</g>
<!-- Node9 -->
<g id="Node000009" class="node">
<title>Node9</title>
<g id="a_Node000009"><a xlink:title=" ">
<polygon fill="white" stroke="transparent" points="273,-877 199,-877 199,-828 273,-828 273,-877"/>
<text text-anchor="start" x="204" y="-864.5" font-family="Helvetica,sans-Serif" font-size="10.00">std::ios_base</text>
<text text-anchor="start" x="234" y="-849.5" font-family="Helvetica,sans-Serif" font-size="10.00"> </text>
<text text-anchor="start" x="234" y="-834.5" font-family="Helvetica,sans-Serif" font-size="10.00"> </text>
<polygon fill="#666666" stroke="#666666" points="199,-859.5 199,-859.5 273,-859.5 273,-859.5 199,-859.5"/>
<polygon fill="#666666" stroke="#666666" points="199,-844.5 199,-844.5 273,-844.5 273,-844.5 199,-844.5"/>
<polygon fill="none" stroke="#666666" points="199,-828 199,-877 273,-877 273,-828 199,-828"/>
</a>
</g>
</g>
<!-- Node9&#45;&gt;Node8 -->
<g id="edge8_Node000008_Node000009" class="edge">
<title>Node9&#45;&gt;Node8</title>
<g id="a_edge8_Node000008_Node000009"><a xlink:title=" ">
<path fill="none" stroke="#63b8ff" d="M236,-817.57C236,-808.69 236,-799.32 236,-791.12"/>
<polygon fill="none" stroke="#63b8ff" points="232.5,-817.65 236,-827.65 239.5,-817.65 232.5,-817.65"/>
</a>
</g>
</g>
<!-- Node10 -->
<g id="Node000010" class="node">
<title>Node10</title>
<g id="a_Node000010"><a xlink:title=" ">
<polygon fill="white" stroke="transparent" points="361.5,-511 298.5,-511 298.5,-462 361.5,-462 361.5,-511"/>
<text text-anchor="start" x="304" y="-498.5" font-family="Helvetica,sans-Serif" font-size="10.00">std::mutex</text>
<text text-anchor="start" x="328.5" y="-483.5" font-family="Helvetica,sans-Serif" font-size="10.00"> </text>
<text text-anchor="start" x="328.5" y="-468.5" font-family="Helvetica,sans-Serif" font-size="10.00"> </text>
<polygon fill="#666666" stroke="#666666" points="299,-493.5 299,-493.5 362,-493.5 362,-493.5 299,-493.5"/>
<polygon fill="#666666" stroke="#666666" points="299,-478.5 299,-478.5 362,-478.5 362,-478.5 299,-478.5"/>
<polygon fill="none" stroke="#666666" points="298.5,-462 298.5,-511 361.5,-511 361.5,-462 298.5,-462"/>
</a>
</g>
</g>
<!-- Node10&#45;&gt;Node2 -->
<g id="edge9_Node000002_Node000010" class="edge">
<title>Node10&#45;&gt;Node2</title>
<g id="a_edge9_Node000002_Node000010"><a xlink:title=" ">
<path fill="none" stroke="#63b8ff" d="M320.2,-461.96C316.41,-452.9 312.02,-442.46 308,-433 307.07,-430.82 306.14,-428.63 305.2,-426.42"/>
<polygon fill="none" stroke="#63b8ff" points="305.15,-426.3 299.11,-422.35 300.43,-415.26 306.47,-419.21 305.15,-426.3"/>
</a>
</g>
<text text-anchor="middle" x="352" y="-436" font-family="Helvetica,sans-Serif" font-size="10.00" fill="grey"> &#45;m_writeMutex</text>
</g>
</g>
</svg>
