<?xml version="1.0" encoding="UTF-8" standalone="no"?>
<!DOCTYPE svg PUBLIC "-//W3C//DTD SVG 1.1//EN"
 "http://www.w3.org/Graphics/SVG/1.1/DTD/svg11.dtd">
<!-- Generated by graphviz version 2.43.0 (0)
 -->
<!-- Title: ShuntingElement Pages: 1 -->
<svg width="381pt" height="1106pt"
 viewBox="0.00 0.00 381.00 1106.00" xmlns="http://www.w3.org/2000/svg" xmlns:xlink="http://www.w3.org/1999/xlink">
<g id="graph0" class="graph" transform="scale(1 1) rotate(0) translate(4 1102)">
<title>ShuntingElement</title>
<!-- Node1 -->
<g id="Node000001" class="node">
<title>Node1</title>
<g id="a_Node000001"><a xlink:title="Interface abstraite pour tous les éléments de shuntage ferroviaire.">
<polygon fill="#999999" stroke="transparent" points="360.5,-154 239.5,-154 239.5,0 360.5,0 360.5,-154"/>
<text text-anchor="start" x="258.5" y="-142" font-family="Helvetica,sans-Serif" font-size="10.00">ShuntingElement</text>
<text text-anchor="start" x="244" y="-127" font-family="Helvetica,sans-Serif" font-size="10.00">#</text>
<text text-anchor="start" x="257" y="-127" font-family="Helvetica,sans-Serif" font-size="10.00">m_state</text>
<text text-anchor="start" x="244" y="-112" font-family="Helvetica,sans-Serif" font-size="10.00">+</text>
<text text-anchor="start" x="257" y="-112" font-family="Helvetica,sans-Serif" font-size="10.00">ShuntingElement()</text>
<text text-anchor="start" x="244" y="-97" font-family="Helvetica,sans-Serif" font-size="10.00">+</text>
<text text-anchor="start" x="257" y="-97" font-family="Helvetica,sans-Serif" font-size="10.00">~ShuntingElement()</text>
<text text-anchor="start" x="244" y="-82" font-family="Helvetica,sans-Serif" font-size="10.00">+</text>
<text text-anchor="start" x="257" y="-82" font-family="Helvetica,sans-Serif" font-size="10.00">ShuntingElement()</text>
<text text-anchor="start" x="244" y="-67" font-family="Helvetica,sans-Serif" font-size="10.00">+</text>
<text text-anchor="start" x="257" y="-67" font-family="Helvetica,sans-Serif" font-size="10.00">operator=()</text>
<text text-anchor="start" x="244" y="-52" font-family="Helvetica,sans-Serif" font-size="10.00">+</text>
<text text-anchor="start" x="257" y="-52" font-family="Helvetica,sans-Serif" font-size="10.00">getState()</text>
<text text-anchor="start" x="244" y="-37" font-family="Helvetica,sans-Serif" font-size="10.00">+</text>
<text text-anchor="start" x="257" y="-37" font-family="Helvetica,sans-Serif" font-size="10.00">isFree()</text>
<text text-anchor="start" x="244" y="-22" font-family="Helvetica,sans-Serif" font-size="10.00">+</text>
<text text-anchor="start" x="257" y="-22" font-family="Helvetica,sans-Serif" font-size="10.00">isOccupied()</text>
<text text-anchor="start" x="244" y="-7" font-family="Helvetica,sans-Serif" font-size="10.00">+</text>
<text text-anchor="start" x="257" y="-7" font-family="Helvetica,sans-Serif" font-size="10.00">isInactive()</text>
<polygon fill="#666666" stroke="#666666" points="240,-137 240,-137 361,-137 361,-137 240,-137"/>
<polygon fill="#666666" stroke="#666666" points="240,-122 240,-122 255,-122 255,-122 240,-122"/>
<polygon fill="#666666" stroke="#666666" points="255,-122 255,-122 361,-122 361,-122 255,-122"/>
<polygon fill="none" stroke="#666666" points="239.5,0 239.5,-154 360.5,-154 360.5,0 239.5,0"/>
</a>
</g>
</g>
<!-- Node2 -->
<g id="Node000002" class="node">
<title>Node2</title>
<g id="a_Node000002"><a xlink:href="../../d5/d00/classElement.html" target="_top" xlink:title="Classe de base abstraite pour tous les éléments interactifs ferroviaires.">
<polygon fill="white" stroke="transparent" points="339.5,-345 260.5,-345 260.5,-191 339.5,-191 339.5,-345"/>
<text text-anchor="start" x="280" y="-333" font-family="Helvetica,sans-Serif" font-size="10.00">Element</text>
<text text-anchor="start" x="298.5" y="-318" font-family="Helvetica,sans-Serif" font-size="10.00"> </text>
<text text-anchor="start" x="265" y="-303" font-family="Helvetica,sans-Serif" font-size="10.00">+</text>
<text text-anchor="start" x="278" y="-303" font-family="Helvetica,sans-Serif" font-size="10.00">Element()</text>
<text text-anchor="start" x="265" y="-288" font-family="Helvetica,sans-Serif" font-size="10.00">+</text>
<text text-anchor="start" x="278" y="-288" font-family="Helvetica,sans-Serif" font-size="10.00">~Element()</text>
<text text-anchor="start" x="265" y="-273" font-family="Helvetica,sans-Serif" font-size="10.00">+</text>
<text text-anchor="start" x="278" y="-273" font-family="Helvetica,sans-Serif" font-size="10.00">Element()</text>
<text text-anchor="start" x="265" y="-258" font-family="Helvetica,sans-Serif" font-size="10.00">+</text>
<text text-anchor="start" x="278" y="-258" font-family="Helvetica,sans-Serif" font-size="10.00">operator=()</text>
<text text-anchor="start" x="265" y="-243" font-family="Helvetica,sans-Serif" font-size="10.00">+</text>
<text text-anchor="start" x="278" y="-243" font-family="Helvetica,sans-Serif" font-size="10.00">Element()</text>
<text text-anchor="start" x="265" y="-228" font-family="Helvetica,sans-Serif" font-size="10.00">+</text>
<text text-anchor="start" x="278" y="-228" font-family="Helvetica,sans-Serif" font-size="10.00">operator=()</text>
<text text-anchor="start" x="265" y="-213" font-family="Helvetica,sans-Serif" font-size="10.00">+</text>
<text text-anchor="start" x="278" y="-213" font-family="Helvetica,sans-Serif" font-size="10.00">getId()</text>
<text text-anchor="start" x="265" y="-198" font-family="Helvetica,sans-Serif" font-size="10.00">+</text>
<text text-anchor="start" x="278" y="-198" font-family="Helvetica,sans-Serif" font-size="10.00">getType()</text>
<polygon fill="#666666" stroke="#666666" points="261,-328 261,-328 340,-328 340,-328 261,-328"/>
<polygon fill="#666666" stroke="#666666" points="261,-313 261,-313 340,-313 340,-313 261,-313"/>
<polygon fill="none" stroke="#666666" points="260.5,-191 260.5,-345 339.5,-345 339.5,-191 260.5,-191"/>
</a>
</g>
</g>
<!-- Node2&#45;&gt;Node1 -->
<g id="edge1_Node000001_Node000002" class="edge">
<title>Node2&#45;&gt;Node1</title>
<g id="a_edge1_Node000001_Node000002"><a xlink:title=" ">
<path fill="none" stroke="#63b8ff" d="M300,-180.94C300,-172.02 300,-163.01 300,-154.21"/>
<polygon fill="none" stroke="#63b8ff" points="296.5,-180.94 300,-190.94 303.5,-180.94 296.5,-180.94"/>
</a>
</g>
</g>
<!-- Node3 -->
<g id="Node000003" class="node">
<title>Node3</title>
<g id="a_Node000003"><a xlink:title=" ">
<polygon fill="white" stroke="transparent" points="333.5,-732 274.5,-732 274.5,-683 333.5,-683 333.5,-732"/>
<text text-anchor="start" x="280" y="-719.5" font-family="Helvetica,sans-Serif" font-size="10.00">std::string</text>
<text text-anchor="start" x="302.5" y="-704.5" font-family="Helvetica,sans-Serif" font-size="10.00"> </text>
<text text-anchor="start" x="302.5" y="-689.5" font-family="Helvetica,sans-Serif" font-size="10.00"> </text>
<polygon fill="#666666" stroke="#666666" points="275,-714.5 275,-714.5 334,-714.5 334,-714.5 275,-714.5"/>
<polygon fill="#666666" stroke="#666666" points="275,-699.5 275,-699.5 334,-699.5 334,-699.5 275,-699.5"/>
<polygon fill="none" stroke="#666666" points="274.5,-683 274.5,-732 333.5,-732 333.5,-683 274.5,-683"/>
</a>
</g>
</g>
<!-- Node3&#45;&gt;Node2 -->
<g id="edge2_Node000002_Node000003" class="edge">
<title>Node3&#45;&gt;Node2</title>
<g id="a_edge2_Node000002_Node000003"><a xlink:title=" ">
<path fill="none" stroke="#63b8ff" d="M327.95,-682.79C332.07,-677.36 335.74,-671.32 338,-665 339.65,-660.4 338.13,-658.89 338,-654 334.44,-524.52 340.38,-491.22 322,-363 321.73,-361.09 321.43,-359.17 321.12,-357.23"/>
<polygon fill="none" stroke="#63b8ff" points="321.09,-357.05 316.11,-351.83 319.02,-345.23 323.99,-350.45 321.09,-357.05"/>
</a>
</g>
<text text-anchor="middle" x="355" y="-511.5" font-family="Helvetica,sans-Serif" font-size="10.00" fill="grey"> #m_id</text>
</g>
<!-- Node5 -->
<g id="Node000005" class="node">
<title>Node5</title>
<g id="a_Node000005"><a xlink:href="../../db/d03/classLogger.html" target="_top" xlink:title="Journaliseur associé à un moteur nommé.">
<polygon fill="white" stroke="transparent" points="270,-636 134,-636 134,-392 270,-392 270,-636"/>
<text text-anchor="start" x="185" y="-624" font-family="Helvetica,sans-Serif" font-size="10.00">Logger</text>
<text text-anchor="start" x="140.5" y="-609" font-family="Helvetica,sans-Serif" font-size="10.00">&#45;</text>
<text text-anchor="start" x="151" y="-609" font-family="Helvetica,sans-Serif" font-size="10.00">m_minimumLevel</text>
<text text-anchor="start" x="138" y="-594" font-family="Helvetica,sans-Serif" font-size="10.00">+</text>
<text text-anchor="start" x="151" y="-594" font-family="Helvetica,sans-Serif" font-size="10.00">Logger()</text>
<text text-anchor="start" x="138" y="-579" font-family="Helvetica,sans-Serif" font-size="10.00">+</text>
<text text-anchor="start" x="151" y="-579" font-family="Helvetica,sans-Serif" font-size="10.00">~Logger()</text>
<text text-anchor="start" x="138" y="-564" font-family="Helvetica,sans-Serif" font-size="10.00">+</text>
<text text-anchor="start" x="151" y="-564" font-family="Helvetica,sans-Serif" font-size="10.00">Logger()</text>
<text text-anchor="start" x="138" y="-549" font-family="Helvetica,sans-Serif" font-size="10.00">+</text>
<text text-anchor="start" x="151" y="-549" font-family="Helvetica,sans-Serif" font-size="10.00">operator=()</text>
<text text-anchor="start" x="138" y="-534" font-family="Helvetica,sans-Serif" font-size="10.00">+</text>
<text text-anchor="start" x="151" y="-534" font-family="Helvetica,sans-Serif" font-size="10.00">writeLog()</text>
<text text-anchor="start" x="138" y="-519" font-family="Helvetica,sans-Serif" font-size="10.00">+</text>
<text text-anchor="start" x="151" y="-519" font-family="Helvetica,sans-Serif" font-size="10.00">setMinimumLogLevel()</text>
<text text-anchor="start" x="138" y="-504" font-family="Helvetica,sans-Serif" font-size="10.00">+</text>
<text text-anchor="start" x="151" y="-504" font-family="Helvetica,sans-Serif" font-size="10.00">getMotorName()</text>
<text text-anchor="start" x="138" y="-489" font-family="Helvetica,sans-Serif" font-size="10.00">+</text>
<text text-anchor="start" x="151" y="-489" font-family="Helvetica,sans-Serif" font-size="10.00">triggerFatalCrash()</text>
<text text-anchor="start" x="140.5" y="-474" font-family="Helvetica,sans-Serif" font-size="10.00">&#45;</text>
<text text-anchor="start" x="151" y="-474" font-family="Helvetica,sans-Serif" font-size="10.00">extractClassName()</text>
<text text-anchor="start" x="140.5" y="-459" font-family="Helvetica,sans-Serif" font-size="10.00">&#45;</text>
<text text-anchor="start" x="151" y="-459" font-family="Helvetica,sans-Serif" font-size="10.00">extractFunctionName()</text>
<text text-anchor="start" x="140.5" y="-444" font-family="Helvetica,sans-Serif" font-size="10.00">&#45;</text>
<text text-anchor="start" x="151" y="-444" font-family="Helvetica,sans-Serif" font-size="10.00">formatLogLine()</text>
<text text-anchor="start" x="140.5" y="-429" font-family="Helvetica,sans-Serif" font-size="10.00">&#45;</text>
<text text-anchor="start" x="151" y="-429" font-family="Helvetica,sans-Serif" font-size="10.00">levelToString()</text>
<text text-anchor="start" x="140.5" y="-414" font-family="Helvetica,sans-Serif" font-size="10.00">&#45;</text>
<text text-anchor="start" x="151" y="-414" font-family="Helvetica,sans-Serif" font-size="10.00">getCurrentTimestamp()</text>
<text text-anchor="start" x="140.5" y="-399" font-family="Helvetica,sans-Serif" font-size="10.00">&#45;</text>
<text text-anchor="start" x="151" y="-399" font-family="Helvetica,sans-Serif" font-size="10.00">sendToDebugOutput()</text>
<polygon fill="#666666" stroke="#666666" points="134,-619 134,-619 270,-619 270,-619 134,-619"/>
<polygon fill="#666666" stroke="#666666" points="134,-604 134,-604 149,-604 149,-604 134,-604"/>
<polygon fill="#666666" stroke="#666666" points="149,-604 149,-604 270,-604 270,-604 149,-604"/>
<polygon fill="none" stroke="#666666" points="134,-392 134,-636 270,-636 270,-392 134,-392"/>
</a>
</g>
</g>
<!-- Node3&#45;&gt;Node5 -->
<g id="edge5_Node000005_Node000003" class="edge">
<title>Node3&#45;&gt;Node5</title>
<g id="a_edge5_Node000005_Node000003"><a xlink:title=" ">
<path fill="none" stroke="#63b8ff" d="M274.38,-684.38C268.02,-678.6 261.79,-672.01 257,-665 253.09,-659.28 249.42,-653.24 245.98,-647.01"/>
<polygon fill="none" stroke="#63b8ff" points="245.97,-647 239.64,-643.54 240.4,-636.36 246.73,-639.83 245.97,-647"/>
</a>
</g>
<text text-anchor="middle" x="297.5" y="-657" font-family="Helvetica,sans-Serif" font-size="10.00" fill="grey"> &#45;m_motorName</text>
</g>
<!-- Node4 -->
<g id="Node000004" class="node">
<title>Node4</title>
<g id="a_Node000004"><a xlink:title=" ">
<polygon fill="white" stroke="transparent" points="353,-829 255,-829 255,-769 353,-769 353,-829"/>
<text text-anchor="start" x="260" y="-817" font-family="Helvetica,sans-Serif" font-size="10.00">std::basic_string&lt;</text>
<text text-anchor="start" x="285.5" y="-806" font-family="Helvetica,sans-Serif" font-size="10.00"> Char &gt;</text>
<text text-anchor="start" x="302" y="-791" font-family="Helvetica,sans-Serif" font-size="10.00"> </text>
<text text-anchor="start" x="302" y="-776" font-family="Helvetica,sans-Serif" font-size="10.00"> </text>
<polygon fill="#666666" stroke="#666666" points="255,-801 255,-801 353,-801 353,-801 255,-801"/>
<polygon fill="#666666" stroke="#666666" points="255,-786 255,-786 353,-786 353,-786 255,-786"/>
<polygon fill="none" stroke="#666666" points="255,-769 255,-829 353,-829 353,-769 255,-769"/>
</a>
</g>
</g>
<!-- Node4&#45;&gt;Node3 -->
<g id="edge3_Node000003_Node000004" class="edge">
<title>Node4&#45;&gt;Node3</title>
<g id="a_edge3_Node000003_Node000004"><a xlink:title=" ">
<path fill="none" stroke="#63b8ff" d="M304,-758.41C304,-749.47 304,-740.25 304,-732.21"/>
<polygon fill="none" stroke="#63b8ff" points="300.5,-758.69 304,-768.69 307.5,-758.69 300.5,-758.69"/>
</a>
</g>
</g>
<!-- Node5&#45;&gt;Node2 -->
<g id="edge4_Node000002_Node000005" class="edge">
<title>Node5&#45;&gt;Node2</title>
<g id="a_edge4_Node000002_Node000005"><a xlink:title=" ">
<path fill="none" stroke="#63b8ff" d="M250.71,-391.71C255.5,-379.78 260.3,-367.84 264.92,-356.35"/>
<polygon fill="none" stroke="#63b8ff" points="264.99,-356.16 263.52,-349.1 269.46,-345.03 270.94,-352.08 264.99,-356.16"/>
</a>
</g>
<text text-anchor="middle" x="289" y="-366" font-family="Helvetica,sans-Serif" font-size="10.00" fill="grey"> #m_logger</text>
</g>
<!-- Node6 -->
<g id="Node000006" class="node">
<title>Node6</title>
<g id="a_Node000006"><a xlink:title=" ">
<polygon fill="white" stroke="transparent" points="99,-732 23,-732 23,-683 99,-683 99,-732"/>
<text text-anchor="start" x="28" y="-719.5" font-family="Helvetica,sans-Serif" font-size="10.00">std::ofstream</text>
<text text-anchor="start" x="59" y="-704.5" font-family="Helvetica,sans-Serif" font-size="10.00"> </text>
<text text-anchor="start" x="59" y="-689.5" font-family="Helvetica,sans-Serif" font-size="10.00"> </text>
<polygon fill="#666666" stroke="#666666" points="23,-714.5 23,-714.5 99,-714.5 99,-714.5 23,-714.5"/>
<polygon fill="#666666" stroke="#666666" points="23,-699.5 23,-699.5 99,-699.5 99,-699.5 23,-699.5"/>
<polygon fill="none" stroke="#666666" points="23,-683 23,-732 99,-732 99,-683 23,-683"/>
</a>
</g>
</g>
<!-- Node6&#45;&gt;Node5 -->
<g id="edge6_Node000005_Node000006" class="edge">
<title>Node6&#45;&gt;Node5</title>
<g id="a_edge6_Node000005_Node000006"><a xlink:title=" ">
<path fill="none" stroke="#63b8ff" d="M67.45,-682.92C70.54,-673.57 74.72,-662.93 80,-654 92.78,-632.38 109.13,-611 125.69,-591.73"/>
<polygon fill="none" stroke="#63b8ff" points="125.91,-591.48 126.85,-584.33 133.82,-582.45 132.87,-589.6 125.91,-591.48"/>
</a>
</g>
<text text-anchor="middle" x="115.5" y="-657" font-family="Helvetica,sans-Serif" font-size="10.00" fill="grey"> &#45;m_outputFile</text>
</g>
<!-- Node7 -->
<g id="Node000007" class="node">
<title>Node7</title>
<g id="a_Node000007"><a xlink:title=" ">
<polygon fill="white" stroke="transparent" points="114.5,-829 7.5,-829 7.5,-769 114.5,-769 114.5,-829"/>
<text text-anchor="start" x="13" y="-817" font-family="Helvetica,sans-Serif" font-size="10.00">std::basic_ofstream</text>
<text text-anchor="start" x="38.5" y="-806" font-family="Helvetica,sans-Serif" font-size="10.00">&lt; Char &gt;</text>
<text text-anchor="start" x="59.5" y="-791" font-family="Helvetica,sans-Serif" font-size="10.00"> </text>
<text text-anchor="start" x="59.5" y="-776" font-family="Helvetica,sans-Serif" font-size="10.00"> </text>
<polygon fill="#666666" stroke="#666666" points="8,-801 8,-801 115,-801 115,-801 8,-801"/>
<polygon fill="#666666" stroke="#666666" points="8,-786 8,-786 115,-786 115,-786 8,-786"/>
<polygon fill="none" stroke="#666666" points="7.5,-769 7.5,-829 114.5,-829 114.5,-769 7.5,-769"/>
</a>
</g>
</g>
<!-- Node7&#45;&gt;Node6 -->
<g id="edge7_Node000006_Node000007" class="edge">
<title>Node7&#45;&gt;Node6</title>
<g id="a_edge7_Node000006_Node000007"><a xlink:title=" ">
<path fill="none" stroke="#63b8ff" d="M61,-758.41C61,-749.47 61,-740.25 61,-732.21"/>
<polygon fill="none" stroke="#63b8ff" points="57.5,-758.69 61,-768.69 64.5,-758.69 57.5,-758.69"/>
</a>
</g>
</g>
<!-- Node8 -->
<g id="Node000008" class="node">
<title>Node8</title>
<g id="a_Node000008"><a xlink:title=" ">
<polygon fill="white" stroke="transparent" points="112.5,-926 9.5,-926 9.5,-866 112.5,-866 112.5,-926"/>
<text text-anchor="start" x="15" y="-914" font-family="Helvetica,sans-Serif" font-size="10.00">std::basic_ostream</text>
<text text-anchor="start" x="38.5" y="-903" font-family="Helvetica,sans-Serif" font-size="10.00">&lt; Char &gt;</text>
<text text-anchor="start" x="59.5" y="-888" font-family="Helvetica,sans-Serif" font-size="10.00"> </text>
<text text-anchor="start" x="59.5" y="-873" font-family="Helvetica,sans-Serif" font-size="10.00"> </text>
<polygon fill="#666666" stroke="#666666" points="10,-898 10,-898 113,-898 113,-898 10,-898"/>
<polygon fill="#666666" stroke="#666666" points="10,-883 10,-883 113,-883 113,-883 10,-883"/>
<polygon fill="none" stroke="#666666" points="9.5,-866 9.5,-926 112.5,-926 112.5,-866 9.5,-866"/>
</a>
</g>
</g>
<!-- Node8&#45;&gt;Node7 -->
<g id="edge8_Node000007_Node000008" class="edge">
<title>Node8&#45;&gt;Node7</title>
<g id="a_edge8_Node000007_Node000008"><a xlink:title=" ">
<path fill="none" stroke="#63b8ff" d="M61,-855.79C61,-846.88 61,-837.57 61,-829.17"/>
<polygon fill="none" stroke="#63b8ff" points="57.5,-855.98 61,-865.98 64.5,-855.98 57.5,-855.98"/>
</a>
</g>
</g>
<!-- Node9 -->
<g id="Node000009" class="node">
<title>Node9</title>
<g id="a_Node000009"><a xlink:title=" ">
<polygon fill="white" stroke="transparent" points="122,-1012 0,-1012 0,-963 122,-963 122,-1012"/>
<text text-anchor="start" x="5" y="-999.5" font-family="Helvetica,sans-Serif" font-size="10.00">std::basic_ios&lt; Char &gt;</text>
<text text-anchor="start" x="59" y="-984.5" font-family="Helvetica,sans-Serif" font-size="10.00"> </text>
<text text-anchor="start" x="59" y="-969.5" font-family="Helvetica,sans-Serif" font-size="10.00"> </text>
<polygon fill="#666666" stroke="#666666" points="0,-994.5 0,-994.5 122,-994.5 122,-994.5 0,-994.5"/>
<polygon fill="#666666" stroke="#666666" points="0,-979.5 0,-979.5 122,-979.5 122,-979.5 0,-979.5"/>
<polygon fill="none" stroke="#666666" points="0,-963 0,-1012 122,-1012 122,-963 0,-963"/>
</a>
</g>
</g>
<!-- Node9&#45;&gt;Node8 -->
<g id="edge9_Node000008_Node000009" class="edge">
<title>Node9&#45;&gt;Node8</title>
<g id="a_edge9_Node000008_Node000009"><a xlink:title=" ">
<path fill="none" stroke="#63b8ff" d="M61,-952.7C61,-943.95 61,-934.6 61,-926.12"/>
<polygon fill="none" stroke="#63b8ff" points="57.5,-952.98 61,-962.98 64.5,-952.98 57.5,-952.98"/>
</a>
</g>
</g>
<!-- Node10 -->
<g id="Node000010" class="node">
<title>Node10</title>
<g id="a_Node000010"><a xlink:title=" ">
<polygon fill="white" stroke="transparent" points="98,-1098 24,-1098 24,-1049 98,-1049 98,-1098"/>
<text text-anchor="start" x="29" y="-1085.5" font-family="Helvetica,sans-Serif" font-size="10.00">std::ios_base</text>
<text text-anchor="start" x="59" y="-1070.5" font-family="Helvetica,sans-Serif" font-size="10.00"> </text>
<text text-anchor="start" x="59" y="-1055.5" font-family="Helvetica,sans-Serif" font-size="10.00"> </text>
<polygon fill="#666666" stroke="#666666" points="24,-1080.5 24,-1080.5 98,-1080.5 98,-1080.5 24,-1080.5"/>
<polygon fill="#666666" stroke="#666666" points="24,-1065.5 24,-1065.5 98,-1065.5 98,-1065.5 24,-1065.5"/>
<polygon fill="none" stroke="#666666" points="24,-1049 24,-1098 98,-1098 98,-1049 24,-1049"/>
</a>
</g>
</g>
<!-- Node10&#45;&gt;Node9 -->
<g id="edge10_Node000009_Node000010" class="edge">
<title>Node10&#45;&gt;Node9</title>
<g id="a_edge10_Node000009_Node000010"><a xlink:title=" ">
<path fill="none" stroke="#63b8ff" d="M61,-1038.57C61,-1029.69 61,-1020.32 61,-1012.12"/>
<polygon fill="none" stroke="#63b8ff" points="57.5,-1038.65 61,-1048.65 64.5,-1038.65 57.5,-1038.65"/>
</a>
</g>
</g>
<!-- Node11 -->
<g id="Node000011" class="node">
<title>Node11</title>
<g id="a_Node000011"><a xlink:title=" ">
<polygon fill="white" stroke="transparent" points="186.5,-732 123.5,-732 123.5,-683 186.5,-683 186.5,-732"/>
<text text-anchor="start" x="129" y="-719.5" font-family="Helvetica,sans-Serif" font-size="10.00">std::mutex</text>
<text text-anchor="start" x="153.5" y="-704.5" font-family="Helvetica,sans-Serif" font-size="10.00"> </text>
<text text-anchor="start" x="153.5" y="-689.5" font-family="Helvetica,sans-Serif" font-size="10.00"> </text>
<polygon fill="#666666" stroke="#666666" points="124,-714.5 124,-714.5 187,-714.5 187,-714.5 124,-714.5"/>
<polygon fill="#666666" stroke="#666666" points="124,-699.5 124,-699.5 187,-699.5 187,-699.5 124,-699.5"/>
<polygon fill="none" stroke="#666666" points="123.5,-683 123.5,-732 186.5,-732 186.5,-683 123.5,-683"/>
</a>
</g>
</g>
<!-- Node11&#45;&gt;Node5 -->
<g id="edge11_Node000005_Node000011" class="edge">
<title>Node11&#45;&gt;Node5</title>
<g id="a_edge11_Node000005_Node000011"><a xlink:title=" ">
<path fill="none" stroke="#63b8ff" d="M153.95,-682.84C153.94,-673.76 154.4,-663.35 156,-654 156.35,-651.98 156.72,-649.94 157.11,-647.9"/>
<polygon fill="none" stroke="#63b8ff" points="157.11,-647.87 154.43,-641.18 159.58,-636.13 162.26,-642.83 157.11,-647.87"/>
</a>
</g>
<text text-anchor="middle" x="195" y="-657" font-family="Helvetica,sans-Serif" font-size="10.00" fill="grey"> &#45;m_writeMutex</text>
</g>
</g>
</svg>
