<?xml version="1.0" encoding="UTF-8" standalone="no"?>
<!DOCTYPE svg PUBLIC "-//W3C//DTD SVG 1.1//EN"
 "http://www.w3.org/Graphics/SVG/1.1/DTD/svg11.dtd">
<!-- Generated by graphviz version 2.43.0 (0)
 -->
<!-- Title: SimulateurFerroviaire/Modules/GeoParser/GeoParsingTask.h Pages: 1 -->
<svg width="595pt" height="170pt"
 viewBox="0.00 0.00 595.00 170.00" xmlns="http://www.w3.org/2000/svg" xmlns:xlink="http://www.w3.org/1999/xlink">
<g id="graph0" class="graph" transform="scale(1 1) rotate(0) translate(4 166)">
<title>SimulateurFerroviaire/Modules/GeoParser/GeoParsingTask.h</title>
<!-- Node1 -->
<g id="Node000001" class="node">
<title>Node1</title>
<g id="a_Node000001"><a xlink:title="Tâche asynchrone d&#39;exécution du pipeline GeoParser v2.">
<polygon fill="#999999" stroke="#666666" points="258.5,-162 87.5,-162 87.5,-121 258.5,-121 258.5,-162"/>
<text text-anchor="start" x="95.5" y="-150" font-family="Helvetica,sans-Serif" font-size="10.00">SimulateurFerroviaire</text>
<text text-anchor="start" x="95.5" y="-139" font-family="Helvetica,sans-Serif" font-size="10.00">/Modules/GeoParser/GeoParsing</text>
<text text-anchor="middle" x="173" y="-128" font-family="Helvetica,sans-Serif" font-size="10.00">Task.h</text>
</a>
</g>
</g>
<!-- Node2 -->
<g id="Node000002" class="node">
<title>Node2</title>
<g id="a_Node000002"><a xlink:title=" ">
<polygon fill="#e0e0e0" stroke="#999999" points="50,-79.5 0,-79.5 0,-60.5 50,-60.5 50,-79.5"/>
<text text-anchor="middle" x="25" y="-67.5" font-family="Helvetica,sans-Serif" font-size="10.00">atomic</text>
</a>
</g>
</g>
<!-- Node1&#45;&gt;Node2 -->
<g id="edge1_Node000001_Node000002" class="edge">
<title>Node1&#45;&gt;Node2</title>
<g id="a_edge1_Node000001_Node000002"><a xlink:title=" ">
<path fill="none" stroke="#63b8ff" d="M131.38,-120.96C106.06,-109.06 74.44,-94.21 52.27,-83.81"/>
<polygon fill="#63b8ff" stroke="#63b8ff" points="53.65,-80.59 43.11,-79.5 50.67,-86.92 53.65,-80.59"/>
</a>
</g>
</g>
<!-- Node3 -->
<g id="Node000003" class="node">
<title>Node3</title>
<g id="a_Node000003"><a xlink:title=" ">
<polygon fill="#e0e0e0" stroke="#999999" points="126,-79.5 68,-79.5 68,-60.5 126,-60.5 126,-79.5"/>
<text text-anchor="middle" x="97" y="-67.5" font-family="Helvetica,sans-Serif" font-size="10.00">memory</text>
</a>
</g>
</g>
<!-- Node1&#45;&gt;Node3 -->
<g id="edge2_Node000001_Node000003" class="edge">
<title>Node1&#45;&gt;Node3</title>
<g id="a_edge2_Node000001_Node000003"><a xlink:title=" ">
<path fill="none" stroke="#63b8ff" d="M151.42,-120.77C139.67,-110.02 125.33,-96.91 114.32,-86.84"/>
<polygon fill="#63b8ff" stroke="#63b8ff" points="116.39,-83.99 106.64,-79.82 111.66,-89.15 116.39,-83.99"/>
</a>
</g>
</g>
<!-- Node4 -->
<g id="Node000004" class="node">
<title>Node4</title>
<g id="a_Node000004"><a xlink:title=" ">
<polygon fill="#e0e0e0" stroke="#999999" points="139,-19 95,-19 95,0 139,0 139,-19"/>
<text text-anchor="middle" x="117" y="-7" font-family="Helvetica,sans-Serif" font-size="10.00">string</text>
</a>
</g>
</g>
<!-- Node1&#45;&gt;Node4 -->
<g id="edge3_Node000001_Node000004" class="edge">
<title>Node1&#45;&gt;Node4</title>
<g id="a_edge3_Node000001_Node000004"><a xlink:title=" ">
<path fill="none" stroke="#63b8ff" d="M164.49,-120.76C153.67,-95.64 135.14,-52.61 124.71,-28.4"/>
<polygon fill="#63b8ff" stroke="#63b8ff" points="127.84,-26.81 120.67,-19.01 121.41,-29.58 127.84,-26.81"/>
</a>
</g>
</g>
<!-- Node5 -->
<g id="Node000005" class="node">
<title>Node5</title>
<g id="a_Node000005"><a xlink:title=" ">
<polygon fill="#e0e0e0" stroke="#999999" points="225,-19 157,-19 157,0 225,0 225,-19"/>
<text text-anchor="middle" x="191" y="-7" font-family="Helvetica,sans-Serif" font-size="10.00">windows.h</text>
</a>
</g>
</g>
<!-- Node1&#45;&gt;Node5 -->
<g id="edge4_Node000001_Node000005" class="edge">
<title>Node1&#45;&gt;Node5</title>
<g id="a_edge4_Node000001_Node000005"><a xlink:title=" ">
<path fill="none" stroke="#63b8ff" d="M175.73,-120.76C179.18,-95.86 185.06,-53.38 188.43,-29.06"/>
<polygon fill="#63b8ff" stroke="#63b8ff" points="191.92,-29.4 189.82,-19.01 184.98,-28.44 191.92,-29.4"/>
</a>
</g>
</g>
<!-- Node6 -->
<g id="Node000006" class="node">
<title>Node6</title>
<g id="a_Node000006"><a xlink:href="../../d9/d01/ParserConfig_8h.html" target="_top" xlink:title="Paramètres de configuration du pipeline GeoParser.">
<polygon fill="white" stroke="#666666" points="459.5,-85 350.5,-85 350.5,-55 459.5,-55 459.5,-85"/>
<text text-anchor="start" x="358.5" y="-73" font-family="Helvetica,sans-Serif" font-size="10.00">Engine/Core/Config</text>
<text text-anchor="middle" x="405" y="-62" font-family="Helvetica,sans-Serif" font-size="10.00">/ParserConfig.h</text>
</a>
</g>
</g>
<!-- Node1&#45;&gt;Node6 -->
<g id="edge5_Node000001_Node000006" class="edge">
<title>Node1&#45;&gt;Node6</title>
<g id="a_edge5_Node000001_Node000006"><a xlink:title=" ">
<path fill="none" stroke="#63b8ff" d="M238.24,-120.96C273.01,-110.54 315.35,-97.86 348.67,-87.88"/>
<polygon fill="#63b8ff" stroke="#63b8ff" points="349.68,-91.23 358.25,-85 347.67,-84.52 349.68,-91.23"/>
</a>
</g>
</g>
<!-- Node7 -->
<g id="Node000007" class="node">
<title>Node7</title>
<g id="a_Node000007"><a xlink:href="../../dd/d00/Logger_8h.html" target="_top" xlink:title="Système de journalisation à 5 niveaux de trace, un fichier par moteur.">
<polygon fill="white" stroke="#666666" points="332.5,-85 221.5,-85 221.5,-55 332.5,-55 332.5,-85"/>
<text text-anchor="start" x="229.5" y="-73" font-family="Helvetica,sans-Serif" font-size="10.00">Engine/Core/Logger</text>
<text text-anchor="middle" x="277" y="-62" font-family="Helvetica,sans-Serif" font-size="10.00">/Logger.h</text>
</a>
</g>
</g>
<!-- Node1&#45;&gt;Node7 -->
<g id="edge6_Node000001_Node000007" class="edge">
<title>Node1&#45;&gt;Node7</title>
<g id="a_edge6_Node000001_Node000007"><a xlink:title=" ">
<path fill="none" stroke="#63b8ff" d="M202.25,-120.96C216.38,-111.51 233.3,-100.2 247.47,-90.74"/>
<polygon fill="#63b8ff" stroke="#63b8ff" points="249.51,-93.58 255.88,-85.11 245.62,-87.76 249.51,-93.58"/>
</a>
</g>
</g>
<!-- Node7&#45;&gt;Node4 -->
<g id="edge12_Node000007_Node000004" class="edge">
<title>Node7&#45;&gt;Node4</title>
<g id="a_edge12_Node000007_Node000004"><a xlink:title=" ">
<path fill="none" stroke="#63b8ff" d="M238.68,-54.99C211.25,-44.96 174.77,-31.62 148.92,-22.17"/>
<polygon fill="#63b8ff" stroke="#63b8ff" points="149.83,-18.78 139.24,-18.63 147.43,-25.35 149.83,-18.78"/>
</a>
</g>
</g>
<!-- Node7&#45;&gt;Node5 -->
<g id="edge13_Node000007_Node000005" class="edge">
<title>Node7&#45;&gt;Node5</title>
<g id="a_edge13_Node000007_Node000005"><a xlink:title=" ">
<path fill="none" stroke="#63b8ff" d="M256.18,-54.84C242.85,-45.77 225.61,-34.04 212.21,-24.92"/>
<polygon fill="#63b8ff" stroke="#63b8ff" points="213.87,-21.83 203.63,-19.09 209.93,-27.61 213.87,-21.83"/>
</a>
</g>
</g>
<!-- Node8 -->
<g id="Node000008" class="node">
<title>Node8</title>
<g id="a_Node000008"><a xlink:title=" ">
<polygon fill="#e0e0e0" stroke="#999999" points="587,-19 543,-19 543,0 587,0 587,-19"/>
<text text-anchor="middle" x="565" y="-7" font-family="Helvetica,sans-Serif" font-size="10.00">ctime</text>
</a>
</g>
</g>
<!-- Node7&#45;&gt;Node8 -->
<g id="edge7_Node000007_Node000008" class="edge">
<title>Node7&#45;&gt;Node8</title>
<g id="a_edge7_Node000007_Node000008"><a xlink:title=" ">
<path fill="none" stroke="#63b8ff" d="M332.65,-56.91C335.81,-56.26 338.94,-55.62 342,-55 424.04,-38.48 447.7,-38.47 532.86,-19.11"/>
<polygon fill="#63b8ff" stroke="#63b8ff" points="533.74,-22.5 542.7,-16.85 532.17,-15.68 533.74,-22.5"/>
</a>
</g>
</g>
<!-- Node9 -->
<g id="Node000009" class="node">
<title>Node9</title>
<g id="a_Node000009"><a xlink:title=" ">
<polygon fill="#e0e0e0" stroke="#999999" points="311,-19 243,-19 243,0 311,0 311,-19"/>
<text text-anchor="middle" x="277" y="-7" font-family="Helvetica,sans-Serif" font-size="10.00">filesystem</text>
</a>
</g>
</g>
<!-- Node7&#45;&gt;Node9 -->
<g id="edge8_Node000007_Node000009" class="edge">
<title>Node7&#45;&gt;Node9</title>
<g id="a_edge8_Node000007_Node000009"><a xlink:title=" ">
<path fill="none" stroke="#63b8ff" d="M277,-54.84C277,-47.21 277,-37.7 277,-29.45"/>
<polygon fill="#63b8ff" stroke="#63b8ff" points="280.5,-29.27 277,-19.27 273.5,-29.27 280.5,-29.27"/>
</a>
</g>
</g>
<!-- Node10 -->
<g id="Node000010" class="node">
<title>Node10</title>
<g id="a_Node000010"><a xlink:title=" ">
<polygon fill="#e0e0e0" stroke="#999999" points="384.5,-19 329.5,-19 329.5,0 384.5,0 384.5,-19"/>
<text text-anchor="middle" x="357" y="-7" font-family="Helvetica,sans-Serif" font-size="10.00">fstream</text>
</a>
</g>
</g>
<!-- Node7&#45;&gt;Node10 -->
<g id="edge9_Node000007_Node000010" class="edge">
<title>Node7&#45;&gt;Node10</title>
<g id="a_edge9_Node000007_Node000010"><a xlink:title=" ">
<path fill="none" stroke="#63b8ff" d="M296.37,-54.84C308.57,-45.91 324.31,-34.41 336.69,-25.35"/>
<polygon fill="#63b8ff" stroke="#63b8ff" points="339.01,-27.99 345.01,-19.27 334.87,-22.34 339.01,-27.99"/>
</a>
</g>
</g>
<!-- Node11 -->
<g id="Node000011" class="node">
<title>Node11</title>
<g id="a_Node000011"><a xlink:title=" ">
<polygon fill="#e0e0e0" stroke="#999999" points="451,-19 403,-19 403,0 451,0 451,-19"/>
<text text-anchor="middle" x="427" y="-7" font-family="Helvetica,sans-Serif" font-size="10.00">mutex</text>
</a>
</g>
</g>
<!-- Node7&#45;&gt;Node11 -->
<g id="edge10_Node000007_Node000011" class="edge">
<title>Node7&#45;&gt;Node11</title>
<g id="a_edge10_Node000007_Node000011"><a xlink:title=" ">
<path fill="none" stroke="#63b8ff" d="M312.93,-54.99C338.07,-45.18 371.33,-32.21 395.45,-22.81"/>
<polygon fill="#63b8ff" stroke="#63b8ff" points="396.8,-26.03 404.85,-19.14 394.26,-19.51 396.8,-26.03"/>
</a>
</g>
</g>
<!-- Node12 -->
<g id="Node000012" class="node">
<title>Node12</title>
<g id="a_Node000012"><a xlink:title=" ">
<polygon fill="#e0e0e0" stroke="#999999" points="525,-19 469,-19 469,0 525,0 525,-19"/>
<text text-anchor="middle" x="497" y="-7" font-family="Helvetica,sans-Serif" font-size="10.00">sstream</text>
</a>
</g>
</g>
<!-- Node7&#45;&gt;Node12 -->
<g id="edge11_Node000007_Node000012" class="edge">
<title>Node7&#45;&gt;Node12</title>
<g id="a_edge11_Node000007_Node000012"><a xlink:title=" ">
<path fill="none" stroke="#63b8ff" d="M329.7,-54.99C369.5,-44.4 423.18,-30.13 458.89,-20.63"/>
<polygon fill="#63b8ff" stroke="#63b8ff" points="460.14,-23.92 468.91,-17.97 458.34,-17.16 460.14,-23.92"/>
</a>
</g>
</g>
</g>
</svg>
