<?xml version="1.0" encoding="UTF-8" standalone="no"?>
<!DOCTYPE svg PUBLIC "-//W3C//DTD SVG 1.1//EN"
 "http://www.w3.org/Graphics/SVG/1.1/DTD/svg11.dtd">
<!-- Generated by graphviz version 2.43.0 (0)
 -->
<!-- Title: SimulateurFerroviaire/Modules/PCC/PCCEdge.cpp Pages: 1 -->
<svg width="554pt" height="335pt"
 viewBox="0.00 0.00 553.50 335.00" xmlns="http://www.w3.org/2000/svg" xmlns:xlink="http://www.w3.org/1999/xlink">
<g id="graph0" class="graph" transform="scale(1 1) rotate(0) translate(4 331)">
<title>SimulateurFerroviaire/Modules/PCC/PCCEdge.cpp</title>
<!-- Node1 -->
<g id="Node000001" class="node">
<title>Node1</title>
<g id="a_Node000001"><a xlink:title="Implémentation de l&#39;arête orientée du graphe PCC.">
<polygon fill="#999999" stroke="#666666" points="411,-327 261,-327 261,-297 411,-297 411,-327"/>
<text text-anchor="start" x="269" y="-315" font-family="Helvetica,sans-Serif" font-size="10.00">SimulateurFerroviaire</text>
<text text-anchor="middle" x="336" y="-304" font-family="Helvetica,sans-Serif" font-size="10.00">/Modules/PCC/PCCEdge.cpp</text>
</a>
</g>
</g>
<!-- Node2 -->
<g id="Node000002" class="node">
<title>Node2</title>
<g id="a_Node000002"><a xlink:href="../../d1/d02/PCCEdge_8h.html" target="_top" xlink:title="Connexion orientée entre deux nœuds du graphe PCC.">
<polygon fill="white" stroke="#666666" points="227.5,-200.5 158.5,-200.5 158.5,-181.5 227.5,-181.5 227.5,-200.5"/>
<text text-anchor="middle" x="193" y="-188.5" font-family="Helvetica,sans-Serif" font-size="10.00">PCCEdge.h</text>
</a>
</g>
</g>
<!-- Node1&#45;&gt;Node2 -->
<g id="edge1_Node000001_Node000002" class="edge">
<title>Node1&#45;&gt;Node2</title>
<g id="a_edge1_Node000001_Node000002"><a xlink:title=" ">
<path fill="none" stroke="#63b8ff" d="M319.03,-296.88C291.95,-274.34 239.15,-230.41 211.27,-207.2"/>
<polygon fill="#63b8ff" stroke="#63b8ff" points="213.39,-204.42 203.47,-200.71 208.92,-209.8 213.39,-204.42"/>
</a>
</g>
</g>
<!-- Node11 -->
<g id="Node000011" class="node">
<title>Node11</title>
<g id="a_Node000011"><a xlink:href="../../d6/d01/PCCNode_8h.html" target="_top" xlink:title="Nœud abstrait du graphe PCC représentant un bloc ferroviaire.">
<polygon fill="white" stroke="#666666" points="371.5,-261 300.5,-261 300.5,-242 371.5,-242 371.5,-261"/>
<text text-anchor="middle" x="336" y="-249" font-family="Helvetica,sans-Serif" font-size="10.00">PCCNode.h</text>
</a>
</g>
</g>
<!-- Node1&#45;&gt;Node11 -->
<g id="edge10_Node000001_Node000011" class="edge">
<title>Node1&#45;&gt;Node11</title>
<g id="a_edge10_Node000001_Node000011"><a xlink:title=" ">
<path fill="none" stroke="#63b8ff" d="M336,-296.84C336,-289.21 336,-279.7 336,-271.45"/>
<polygon fill="#63b8ff" stroke="#63b8ff" points="339.5,-271.27 336,-261.27 332.5,-271.27 339.5,-271.27"/>
</a>
</g>
</g>
<!-- Node15 -->
<g id="Node000015" class="node">
<title>Node15</title>
<g id="a_Node000015"><a xlink:title=" ">
<polygon fill="#e0e0e0" stroke="#999999" points="454.5,-261 389.5,-261 389.5,-242 454.5,-242 454.5,-261"/>
<text text-anchor="middle" x="422" y="-249" font-family="Helvetica,sans-Serif" font-size="10.00">stdexcept</text>
</a>
</g>
</g>
<!-- Node1&#45;&gt;Node15 -->
<g id="edge19_Node000001_Node000015" class="edge">
<title>Node1&#45;&gt;Node15</title>
<g id="a_edge19_Node000001_Node000015"><a xlink:title=" ">
<path fill="none" stroke="#63b8ff" d="M356.82,-296.84C370.15,-287.77 387.39,-276.04 400.79,-266.92"/>
<polygon fill="#63b8ff" stroke="#63b8ff" points="403.07,-269.61 409.37,-261.09 399.13,-263.83 403.07,-269.61"/>
</a>
</g>
</g>
<!-- Node3 -->
<g id="Node000003" class="node">
<title>Node3</title>
<g id="a_Node000003"><a xlink:href="../../dd/d00/Logger_8h.html" target="_top" xlink:title="Système de journalisation à 5 niveaux de trace, un fichier par moteur.">
<polygon fill="white" stroke="#666666" points="306.5,-85 195.5,-85 195.5,-55 306.5,-55 306.5,-85"/>
<text text-anchor="start" x="203.5" y="-73" font-family="Helvetica,sans-Serif" font-size="10.00">Engine/Core/Logger</text>
<text text-anchor="middle" x="251" y="-62" font-family="Helvetica,sans-Serif" font-size="10.00">/Logger.h</text>
</a>
</g>
</g>
<!-- Node2&#45;&gt;Node3 -->
<g id="edge2_Node000002_Node000003" class="edge">
<title>Node2&#45;&gt;Node3</title>
<g id="a_edge2_Node000002_Node000003"><a xlink:title=" ">
<path fill="none" stroke="#63b8ff" d="M197.17,-181.44C205.96,-163.41 226.65,-120.96 239.67,-94.25"/>
<polygon fill="#63b8ff" stroke="#63b8ff" points="242.84,-95.72 244.08,-85.2 236.55,-92.65 242.84,-95.72"/>
</a>
</g>
</g>
<!-- Node4 -->
<g id="Node000004" class="node">
<title>Node4</title>
<g id="a_Node000004"><a xlink:title=" ">
<polygon fill="#e0e0e0" stroke="#999999" points="44,-19 0,-19 0,0 44,0 44,-19"/>
<text text-anchor="middle" x="22" y="-7" font-family="Helvetica,sans-Serif" font-size="10.00">ctime</text>
</a>
</g>
</g>
<!-- Node3&#45;&gt;Node4 -->
<g id="edge3_Node000003_Node000004" class="edge">
<title>Node3&#45;&gt;Node4</title>
<g id="a_edge3_Node000003_Node000004"><a xlink:title=" ">
<path fill="none" stroke="#63b8ff" d="M195.45,-55.29C158.04,-45.99 107.36,-33.24 53.99,-19.22"/>
<polygon fill="#63b8ff" stroke="#63b8ff" points="54.56,-15.75 44,-16.59 52.78,-22.52 54.56,-15.75"/>
</a>
</g>
</g>
<!-- Node5 -->
<g id="Node000005" class="node">
<title>Node5</title>
<g id="a_Node000005"><a xlink:title=" ">
<polygon fill="#e0e0e0" stroke="#999999" points="130,-19 62,-19 62,0 130,0 130,-19"/>
<text text-anchor="middle" x="96" y="-7" font-family="Helvetica,sans-Serif" font-size="10.00">filesystem</text>
</a>
</g>
</g>
<!-- Node3&#45;&gt;Node5 -->
<g id="edge4_Node000003_Node000005" class="edge">
<title>Node3&#45;&gt;Node5</title>
<g id="a_edge4_Node000003_Node000005"><a xlink:title=" ">
<path fill="none" stroke="#63b8ff" d="M213.87,-54.99C187.78,-45.14 153.22,-32.1 128.27,-22.68"/>
<polygon fill="#63b8ff" stroke="#63b8ff" points="129.48,-19.4 118.89,-19.14 127.01,-25.94 129.48,-19.4"/>
</a>
</g>
</g>
<!-- Node6 -->
<g id="Node000006" class="node">
<title>Node6</title>
<g id="a_Node000006"><a xlink:title=" ">
<polygon fill="#e0e0e0" stroke="#999999" points="203.5,-19 148.5,-19 148.5,0 203.5,0 203.5,-19"/>
<text text-anchor="middle" x="176" y="-7" font-family="Helvetica,sans-Serif" font-size="10.00">fstream</text>
</a>
</g>
</g>
<!-- Node3&#45;&gt;Node6 -->
<g id="edge5_Node000003_Node000006" class="edge">
<title>Node3&#45;&gt;Node6</title>
<g id="a_edge5_Node000003_Node000006"><a xlink:title=" ">
<path fill="none" stroke="#63b8ff" d="M232.84,-54.84C221.51,-46 206.94,-34.63 195.38,-25.62"/>
<polygon fill="#63b8ff" stroke="#63b8ff" points="197.28,-22.66 187.24,-19.27 192.97,-28.18 197.28,-22.66"/>
</a>
</g>
</g>
<!-- Node7 -->
<g id="Node000007" class="node">
<title>Node7</title>
<g id="a_Node000007"><a xlink:title=" ">
<polygon fill="#e0e0e0" stroke="#999999" points="270,-19 222,-19 222,0 270,0 270,-19"/>
<text text-anchor="middle" x="246" y="-7" font-family="Helvetica,sans-Serif" font-size="10.00">mutex</text>
</a>
</g>
</g>
<!-- Node3&#45;&gt;Node7 -->
<g id="edge6_Node000003_Node000007" class="edge">
<title>Node3&#45;&gt;Node7</title>
<g id="a_edge6_Node000003_Node000007"><a xlink:title=" ">
<path fill="none" stroke="#63b8ff" d="M249.79,-54.84C249.14,-47.21 248.33,-37.7 247.62,-29.45"/>
<polygon fill="#63b8ff" stroke="#63b8ff" points="251.09,-28.93 246.75,-19.27 244.11,-29.53 251.09,-28.93"/>
</a>
</g>
</g>
<!-- Node8 -->
<g id="Node000008" class="node">
<title>Node8</title>
<g id="a_Node000008"><a xlink:title=" ">
<polygon fill="#e0e0e0" stroke="#999999" points="344,-19 288,-19 288,0 344,0 344,-19"/>
<text text-anchor="middle" x="316" y="-7" font-family="Helvetica,sans-Serif" font-size="10.00">sstream</text>
</a>
</g>
</g>
<!-- Node3&#45;&gt;Node8 -->
<g id="edge7_Node000003_Node000008" class="edge">
<title>Node3&#45;&gt;Node8</title>
<g id="a_edge7_Node000003_Node000008"><a xlink:title=" ">
<path fill="none" stroke="#63b8ff" d="M266.73,-54.84C276.36,-46.17 288.69,-35.08 298.61,-26.15"/>
<polygon fill="#63b8ff" stroke="#63b8ff" points="301.17,-28.56 306.26,-19.27 296.49,-23.35 301.17,-28.56"/>
</a>
</g>
</g>
<!-- Node9 -->
<g id="Node000009" class="node">
<title>Node9</title>
<g id="a_Node000009"><a xlink:title=" ">
<polygon fill="#e0e0e0" stroke="#999999" points="492,-19 448,-19 448,0 492,0 492,-19"/>
<text text-anchor="middle" x="470" y="-7" font-family="Helvetica,sans-Serif" font-size="10.00">string</text>
</a>
</g>
</g>
<!-- Node3&#45;&gt;Node9 -->
<g id="edge8_Node000003_Node000009" class="edge">
<title>Node3&#45;&gt;Node9</title>
<g id="a_edge8_Node000003_Node000009"><a xlink:title=" ">
<path fill="none" stroke="#63b8ff" d="M304.11,-54.99C339.5,-45.63 387.3,-32.93 438.13,-19.22"/>
<polygon fill="#63b8ff" stroke="#63b8ff" points="439.25,-22.54 447.99,-16.56 437.42,-15.79 439.25,-22.54"/>
</a>
</g>
</g>
<!-- Node10 -->
<g id="Node000010" class="node">
<title>Node10</title>
<g id="a_Node000010"><a xlink:title=" ">
<polygon fill="#e0e0e0" stroke="#999999" points="430,-19 362,-19 362,0 430,0 430,-19"/>
<text text-anchor="middle" x="396" y="-7" font-family="Helvetica,sans-Serif" font-size="10.00">windows.h</text>
</a>
</g>
</g>
<!-- Node3&#45;&gt;Node10 -->
<g id="edge9_Node000003_Node000010" class="edge">
<title>Node3&#45;&gt;Node10</title>
<g id="a_edge9_Node000003_Node000010"><a xlink:title=" ">
<path fill="none" stroke="#63b8ff" d="M285.73,-54.99C309.92,-45.23 341.9,-32.33 365.19,-22.93"/>
<polygon fill="#63b8ff" stroke="#63b8ff" points="366.62,-26.13 374.59,-19.14 364,-19.63 366.62,-26.13"/>
</a>
</g>
</g>
<!-- Node11&#45;&gt;Node2 -->
<g id="edge13_Node000011_Node000002" class="edge">
<title>Node11&#45;&gt;Node2</title>
<g id="a_edge13_Node000011_Node000002"><a xlink:title=" ">
<path fill="none" stroke="#63b8ff" d="M315.21,-241.99C291.06,-232.12 251.02,-215.73 223.38,-204.43"/>
<polygon fill="#63b8ff" stroke="#63b8ff" points="224.4,-201.06 213.82,-200.52 221.75,-207.54 224.4,-201.06"/>
</a>
</g>
</g>
<!-- Node11&#45;&gt;Node3 -->
<g id="edge18_Node000011_Node000003" class="edge">
<title>Node11&#45;&gt;Node3</title>
<g id="a_edge18_Node000011_Node000003"><a xlink:title=" ">
<path fill="none" stroke="#63b8ff" d="M317.51,-241.9C303.55,-234.42 285.14,-222.23 275,-206 253.74,-171.95 250.07,-124.19 250.05,-95.55"/>
<polygon fill="#63b8ff" stroke="#63b8ff" points="253.55,-95.28 250.2,-85.23 246.55,-95.18 253.55,-95.28"/>
</a>
</g>
</g>
<!-- Node11&#45;&gt;Node9 -->
<g id="edge11_Node000011_Node000009" class="edge">
<title>Node11&#45;&gt;Node9</title>
<g id="a_edge11_Node000011_Node000009"><a xlink:title=" ">
<path fill="none" stroke="#63b8ff" d="M368.87,-241.93C399.1,-233.35 440.74,-219.51 451,-206 491.36,-152.83 481.11,-66.67 474.04,-29.05"/>
<polygon fill="#63b8ff" stroke="#63b8ff" points="477.43,-28.14 472.01,-19.03 470.57,-29.53 477.43,-28.14"/>
</a>
</g>
</g>
<!-- Node12 -->
<g id="Node000012" class="node">
<title>Node12</title>
<g id="a_Node000012"><a xlink:title=" ">
<polygon fill="#e0e0e0" stroke="#999999" points="545.5,-200.5 498.5,-200.5 498.5,-181.5 545.5,-181.5 545.5,-200.5"/>
<text text-anchor="middle" x="522" y="-188.5" font-family="Helvetica,sans-Serif" font-size="10.00">vector</text>
</a>
</g>
</g>
<!-- Node11&#45;&gt;Node12 -->
<g id="edge12_Node000011_Node000012" class="edge">
<title>Node11&#45;&gt;Node12</title>
<g id="a_edge12_Node000011_Node000012"><a xlink:title=" ">
<path fill="none" stroke="#63b8ff" d="M366.22,-242C396.25,-233.41 443.54,-219.52 484,-206 485.9,-205.36 487.85,-204.7 489.81,-204.01"/>
<polygon fill="#63b8ff" stroke="#63b8ff" points="491.34,-207.18 499.58,-200.52 488.98,-200.59 491.34,-207.18"/>
</a>
</g>
</g>
<!-- Node13 -->
<g id="Node000013" class="node">
<title>Node13</title>
<g id="a_Node000013"><a xlink:href="../../df/d02/ShuntingElement_8h.html" target="_top" xlink:title="Interface abstraite pour tous les éléments de shuntage ferroviaire.">
<polygon fill="white" stroke="#666666" points="442,-206 284,-206 284,-176 442,-176 442,-206"/>
<text text-anchor="start" x="292" y="-194" font-family="Helvetica,sans-Serif" font-size="10.00">Modules/Elements/Shunting</text>
<text text-anchor="middle" x="363" y="-183" font-family="Helvetica,sans-Serif" font-size="10.00">Elements/ShuntingElement.h</text>
</a>
</g>
</g>
<!-- Node11&#45;&gt;Node13 -->
<g id="edge14_Node000011_Node000013" class="edge">
<title>Node11&#45;&gt;Node13</title>
<g id="a_edge14_Node000011_Node000013"><a xlink:title=" ">
<path fill="none" stroke="#63b8ff" d="M339.98,-241.87C343.21,-234.89 347.9,-224.71 352.21,-215.38"/>
<polygon fill="#63b8ff" stroke="#63b8ff" points="355.47,-216.66 356.49,-206.11 349.12,-213.73 355.47,-216.66"/>
</a>
</g>
</g>
<!-- Node14 -->
<g id="Node000014" class="node">
<title>Node14</title>
<g id="a_Node000014"><a xlink:href="../../d5/d02/Element_8h.html" target="_top" xlink:title="Classe de base abstraite pour tous les éléments interactifs ferroviaires.">
<polygon fill="white" stroke="#666666" points="442.5,-140 283.5,-140 283.5,-121 442.5,-121 442.5,-140"/>
<text text-anchor="middle" x="363" y="-128" font-family="Helvetica,sans-Serif" font-size="10.00">Modules/Elements/Element.h</text>
</a>
</g>
</g>
<!-- Node13&#45;&gt;Node14 -->
<g id="edge15_Node000013_Node000014" class="edge">
<title>Node13&#45;&gt;Node14</title>
<g id="a_edge15_Node000013_Node000014"><a xlink:title=" ">
<path fill="none" stroke="#63b8ff" d="M363,-175.84C363,-168.21 363,-158.7 363,-150.45"/>
<polygon fill="#63b8ff" stroke="#63b8ff" points="366.5,-150.27 363,-140.27 359.5,-150.27 366.5,-150.27"/>
</a>
</g>
</g>
<!-- Node14&#45;&gt;Node3 -->
<g id="edge17_Node000014_Node000003" class="edge">
<title>Node14&#45;&gt;Node3</title>
<g id="a_edge17_Node000014_Node000003"><a xlink:title=" ">
<path fill="none" stroke="#63b8ff" d="M346.47,-120.87C330.85,-112.71 306.9,-100.2 286.89,-89.75"/>
<polygon fill="#63b8ff" stroke="#63b8ff" points="288.51,-86.64 278.02,-85.11 285.27,-92.85 288.51,-86.64"/>
</a>
</g>
</g>
<!-- Node14&#45;&gt;Node9 -->
<g id="edge16_Node000014_Node000009" class="edge">
<title>Node14&#45;&gt;Node9</title>
<g id="a_edge16_Node000014_Node000009"><a xlink:title=" ">
<path fill="none" stroke="#63b8ff" d="M370.7,-120.94C388.35,-101.31 432,-52.76 455.11,-27.07"/>
<polygon fill="#63b8ff" stroke="#63b8ff" points="458,-29.08 462.09,-19.3 452.8,-24.4 458,-29.08"/>
</a>
</g>
</g>
</g>
</svg>
