<?xml version="1.0" encoding="UTF-8" standalone="no"?>
<!DOCTYPE svg PUBLIC "-//W3C//DTD SVG 1.1//EN"
 "http://www.w3.org/Graphics/SVG/1.1/DTD/svg11.dtd">
<!-- Generated by graphviz version 2.43.0 (0)
 -->
<!-- Title: SimulateurFerroviaire/Modules/PCC/PCCEdge.cpp Pages: 1 -->
<svg width="555pt" height="346pt"
 viewBox="0.00 0.00 554.50 346.00" xmlns="http://www.w3.org/2000/svg" xmlns:xlink="http://www.w3.org/1999/xlink">
<g id="graph0" class="graph" transform="scale(1 1) rotate(0) translate(4 342)">
<title>SimulateurFerroviaire/Modules/PCC/PCCEdge.cpp</title>
<!-- Node1 -->
<g id="Node000001" class="node">
<title>Node1</title>
<g id="a_Node000001"><a xlink:title="Implémentation de l&#39;arête orientée du graphe PCC.">
<polygon fill="#999999" stroke="#666666" points="383,-338 233,-338 233,-308 383,-308 383,-338"/>
<text text-anchor="start" x="241" y="-326" font-family="Helvetica,sans-Serif" font-size="10.00">SimulateurFerroviaire</text>
<text text-anchor="middle" x="308" y="-315" font-family="Helvetica,sans-Serif" font-size="10.00">/Modules/PCC/PCCEdge.cpp</text>
</a>
</g>
</g>
<!-- Node2 -->
<g id="Node000002" class="node">
<title>Node2</title>
<g id="a_Node000002"><a xlink:href="../../d1/d02/PCCEdge_8h.html" target="_top" xlink:title="Connexion orientée entre deux nœuds du graphe PCC.">
<polygon fill="white" stroke="#666666" points="182.5,-211.5 113.5,-211.5 113.5,-192.5 182.5,-192.5 182.5,-211.5"/>
<text text-anchor="middle" x="148" y="-199.5" font-family="Helvetica,sans-Serif" font-size="10.00">PCCEdge.h</text>
</a>
</g>
</g>
<!-- Node1&#45;&gt;Node2 -->
<g id="edge1_Node000001_Node000002" class="edge">
<title>Node1&#45;&gt;Node2</title>
<g id="a_edge1_Node000001_Node000002"><a xlink:title=" ">
<path fill="none" stroke="#63b8ff" d="M289.02,-307.88C258.58,-285.24 199.13,-241.03 168.04,-217.9"/>
<polygon fill="#63b8ff" stroke="#63b8ff" points="169.83,-214.87 159.71,-211.71 165.65,-220.49 169.83,-214.87"/>
</a>
</g>
</g>
<!-- Node10 -->
<g id="Node000010" class="node">
<title>Node10</title>
<g id="a_Node000010"><a xlink:href="../../d6/d01/PCCNode_8h.html" target="_top" xlink:title="Nœud abstrait du graphe PCC représentant un bloc ferroviaire.">
<polygon fill="white" stroke="#666666" points="343.5,-272 272.5,-272 272.5,-253 343.5,-253 343.5,-272"/>
<text text-anchor="middle" x="308" y="-260" font-family="Helvetica,sans-Serif" font-size="10.00">PCCNode.h</text>
</a>
</g>
</g>
<!-- Node1&#45;&gt;Node10 -->
<g id="edge9_Node000001_Node000010" class="edge">
<title>Node1&#45;&gt;Node10</title>
<g id="a_edge9_Node000001_Node000010"><a xlink:title=" ">
<path fill="none" stroke="#63b8ff" d="M308,-307.84C308,-300.21 308,-290.7 308,-282.45"/>
<polygon fill="#63b8ff" stroke="#63b8ff" points="311.5,-282.27 308,-272.27 304.5,-282.27 311.5,-282.27"/>
</a>
</g>
</g>
<!-- Node14 -->
<g id="Node000014" class="node">
<title>Node14</title>
<g id="a_Node000014"><a xlink:title=" ">
<polygon fill="#e0e0e0" stroke="#999999" points="426.5,-272 361.5,-272 361.5,-253 426.5,-253 426.5,-272"/>
<text text-anchor="middle" x="394" y="-260" font-family="Helvetica,sans-Serif" font-size="10.00">stdexcept</text>
</a>
</g>
</g>
<!-- Node1&#45;&gt;Node14 -->
<g id="edge18_Node000001_Node000014" class="edge">
<title>Node1&#45;&gt;Node14</title>
<g id="a_edge18_Node000001_Node000014"><a xlink:title=" ">
<path fill="none" stroke="#63b8ff" d="M328.82,-307.84C342.15,-298.77 359.39,-287.04 372.79,-277.92"/>
<polygon fill="#63b8ff" stroke="#63b8ff" points="375.07,-280.61 381.37,-272.09 371.13,-274.83 375.07,-280.61"/>
</a>
</g>
</g>
<!-- Node3 -->
<g id="Node000003" class="node">
<title>Node3</title>
<g id="a_Node000003"><a xlink:href="../../dd/d00/Logger_8h.html" target="_top" xlink:title="Système de journalisation à 5 niveaux de trace, un fichier par moteur.">
<polygon fill="white" stroke="#666666" points="266.5,-85 155.5,-85 155.5,-55 266.5,-55 266.5,-85"/>
<text text-anchor="start" x="163.5" y="-73" font-family="Helvetica,sans-Serif" font-size="10.00">Engine/Core/Logger</text>
<text text-anchor="middle" x="211" y="-62" font-family="Helvetica,sans-Serif" font-size="10.00">/Logger.h</text>
</a>
</g>
</g>
<!-- Node2&#45;&gt;Node3 -->
<g id="edge2_Node000002_Node000003" class="edge">
<title>Node2&#45;&gt;Node3</title>
<g id="a_edge2_Node000002_Node000003"><a xlink:title=" ">
<path fill="none" stroke="#63b8ff" d="M152.13,-192.47C161.68,-172.78 185.51,-123.59 199.76,-94.2"/>
<polygon fill="#63b8ff" stroke="#63b8ff" points="202.97,-95.59 204.18,-85.07 196.67,-92.54 202.97,-95.59"/>
</a>
</g>
</g>
<!-- Node4 -->
<g id="Node000004" class="node">
<title>Node4</title>
<g id="a_Node000004"><a xlink:title=" ">
<polygon fill="#e0e0e0" stroke="#999999" points="44,-19 0,-19 0,0 44,0 44,-19"/>
<text text-anchor="middle" x="22" y="-7" font-family="Helvetica,sans-Serif" font-size="10.00">ctime</text>
</a>
</g>
</g>
<!-- Node3&#45;&gt;Node4 -->
<g id="edge3_Node000003_Node000004" class="edge">
<title>Node3&#45;&gt;Node4</title>
<g id="a_edge3_Node000003_Node000004"><a xlink:title=" ">
<path fill="none" stroke="#63b8ff" d="M165.73,-54.99C131.19,-44.3 84.49,-29.84 53.82,-20.35"/>
<polygon fill="#63b8ff" stroke="#63b8ff" points="54.66,-16.95 44.07,-17.33 52.59,-23.63 54.66,-16.95"/>
</a>
</g>
</g>
<!-- Node5 -->
<g id="Node000005" class="node">
<title>Node5</title>
<g id="a_Node000005"><a xlink:title=" ">
<polygon fill="#e0e0e0" stroke="#999999" points="130,-19 62,-19 62,0 130,0 130,-19"/>
<text text-anchor="middle" x="96" y="-7" font-family="Helvetica,sans-Serif" font-size="10.00">filesystem</text>
</a>
</g>
</g>
<!-- Node3&#45;&gt;Node5 -->
<g id="edge4_Node000003_Node000005" class="edge">
<title>Node3&#45;&gt;Node5</title>
<g id="a_edge4_Node000003_Node000005"><a xlink:title=" ">
<path fill="none" stroke="#63b8ff" d="M183.45,-54.99C164.78,-45.49 140.26,-33.02 121.94,-23.69"/>
<polygon fill="#63b8ff" stroke="#63b8ff" points="123.48,-20.55 112.98,-19.14 120.31,-26.79 123.48,-20.55"/>
</a>
</g>
</g>
<!-- Node6 -->
<g id="Node000006" class="node">
<title>Node6</title>
<g id="a_Node000006"><a xlink:title=" ">
<polygon fill="#e0e0e0" stroke="#999999" points="203.5,-19 148.5,-19 148.5,0 203.5,0 203.5,-19"/>
<text text-anchor="middle" x="176" y="-7" font-family="Helvetica,sans-Serif" font-size="10.00">fstream</text>
</a>
</g>
</g>
<!-- Node3&#45;&gt;Node6 -->
<g id="edge5_Node000003_Node000006" class="edge">
<title>Node3&#45;&gt;Node6</title>
<g id="a_edge5_Node000003_Node000006"><a xlink:title=" ">
<path fill="none" stroke="#63b8ff" d="M202.53,-54.84C197.71,-46.78 191.63,-36.62 186.5,-28.06"/>
<polygon fill="#63b8ff" stroke="#63b8ff" points="189.38,-26.05 181.24,-19.27 183.38,-29.64 189.38,-26.05"/>
</a>
</g>
</g>
<!-- Node7 -->
<g id="Node000007" class="node">
<title>Node7</title>
<g id="a_Node000007"><a xlink:title=" ">
<polygon fill="#e0e0e0" stroke="#999999" points="270,-19 222,-19 222,0 270,0 270,-19"/>
<text text-anchor="middle" x="246" y="-7" font-family="Helvetica,sans-Serif" font-size="10.00">mutex</text>
</a>
</g>
</g>
<!-- Node3&#45;&gt;Node7 -->
<g id="edge6_Node000003_Node000007" class="edge">
<title>Node3&#45;&gt;Node7</title>
<g id="a_edge6_Node000003_Node000007"><a xlink:title=" ">
<path fill="none" stroke="#63b8ff" d="M219.47,-54.84C224.29,-46.78 230.37,-36.62 235.5,-28.06"/>
<polygon fill="#63b8ff" stroke="#63b8ff" points="238.62,-29.64 240.76,-19.27 232.62,-26.05 238.62,-29.64"/>
</a>
</g>
</g>
<!-- Node8 -->
<g id="Node000008" class="node">
<title>Node8</title>
<g id="a_Node000008"><a xlink:title=" ">
<polygon fill="#e0e0e0" stroke="#999999" points="344,-19 288,-19 288,0 344,0 344,-19"/>
<text text-anchor="middle" x="316" y="-7" font-family="Helvetica,sans-Serif" font-size="10.00">sstream</text>
</a>
</g>
</g>
<!-- Node3&#45;&gt;Node8 -->
<g id="edge7_Node000003_Node000008" class="edge">
<title>Node3&#45;&gt;Node8</title>
<g id="a_edge7_Node000003_Node000008"><a xlink:title=" ">
<path fill="none" stroke="#63b8ff" d="M236.15,-54.99C252.89,-45.66 274.77,-33.47 291.39,-24.21"/>
<polygon fill="#63b8ff" stroke="#63b8ff" points="293.46,-27.06 300.49,-19.14 290.05,-20.95 293.46,-27.06"/>
</a>
</g>
</g>
<!-- Node9 -->
<g id="Node000009" class="node">
<title>Node9</title>
<g id="a_Node000009"><a xlink:title=" ">
<polygon fill="#e0e0e0" stroke="#999999" points="406,-19 362,-19 362,0 406,0 406,-19"/>
<text text-anchor="middle" x="384" y="-7" font-family="Helvetica,sans-Serif" font-size="10.00">string</text>
</a>
</g>
</g>
<!-- Node3&#45;&gt;Node9 -->
<g id="edge8_Node000003_Node000009" class="edge">
<title>Node3&#45;&gt;Node9</title>
<g id="a_edge8_Node000003_Node000009"><a xlink:title=" ">
<path fill="none" stroke="#63b8ff" d="M252.44,-54.99C283.06,-44.63 324.15,-30.74 352.2,-21.25"/>
<polygon fill="#63b8ff" stroke="#63b8ff" points="353.56,-24.49 361.91,-17.97 351.31,-17.86 353.56,-24.49"/>
</a>
</g>
</g>
<!-- Node10&#45;&gt;Node2 -->
<g id="edge12_Node000010_Node000002" class="edge">
<title>Node10&#45;&gt;Node2</title>
<g id="a_edge12_Node000010_Node000002"><a xlink:title=" ">
<path fill="none" stroke="#63b8ff" d="M284.73,-252.99C257.36,-242.99 211.73,-226.3 180.78,-214.99"/>
<polygon fill="#63b8ff" stroke="#63b8ff" points="181.89,-211.66 171.29,-211.52 179.48,-218.24 181.89,-211.66"/>
</a>
</g>
</g>
<!-- Node10&#45;&gt;Node3 -->
<g id="edge17_Node000010_Node000003" class="edge">
<title>Node10&#45;&gt;Node3</title>
<g id="a_edge17_Node000010_Node000003"><a xlink:title=" ">
<path fill="none" stroke="#63b8ff" d="M280.44,-252.94C263.09,-246.07 241.81,-234.61 230,-217 205.4,-180.32 205.35,-126.65 207.92,-95.63"/>
<polygon fill="#63b8ff" stroke="#63b8ff" points="211.44,-95.59 208.94,-85.3 204.47,-94.9 211.44,-95.59"/>
</a>
</g>
</g>
<!-- Node10&#45;&gt;Node9 -->
<g id="edge10_Node000010_Node000009" class="edge">
<title>Node10&#45;&gt;Node9</title>
<g id="a_edge10_Node000010_Node000009"><a xlink:title=" ">
<path fill="none" stroke="#63b8ff" d="M343,-252.91C383.18,-242.7 444.43,-225.93 451,-217 495.68,-156.3 429.68,-64.43 398.65,-27.12"/>
<polygon fill="#63b8ff" stroke="#63b8ff" points="401.08,-24.59 391.93,-19.25 395.75,-29.13 401.08,-24.59"/>
</a>
</g>
</g>
<!-- Node11 -->
<g id="Node000011" class="node">
<title>Node11</title>
<g id="a_Node000011"><a xlink:title=" ">
<polygon fill="#e0e0e0" stroke="#999999" points="546.5,-211.5 499.5,-211.5 499.5,-192.5 546.5,-192.5 546.5,-211.5"/>
<text text-anchor="middle" x="523" y="-199.5" font-family="Helvetica,sans-Serif" font-size="10.00">vector</text>
</a>
</g>
</g>
<!-- Node10&#45;&gt;Node11 -->
<g id="edge11_Node000010_Node000011" class="edge">
<title>Node10&#45;&gt;Node11</title>
<g id="a_edge11_Node000010_Node000011"><a xlink:title=" ">
<path fill="none" stroke="#63b8ff" d="M343.57,-253.73C379.53,-245.61 436.56,-231.96 485,-217 487.13,-216.34 489.31,-215.63 491.51,-214.89"/>
<polygon fill="#63b8ff" stroke="#63b8ff" points="492.76,-218.16 501.03,-211.55 490.44,-211.56 492.76,-218.16"/>
</a>
</g>
</g>
<!-- Node12 -->
<g id="Node000012" class="node">
<title>Node12</title>
<g id="a_Node000012"><a xlink:href="../../df/d02/ShuntingElement_8h.html" target="_top" xlink:title="Interface abstraite pour tous les éléments de shuntage ferroviaire.">
<polygon fill="white" stroke="#666666" points="442.5,-217 239.5,-217 239.5,-187 442.5,-187 442.5,-217"/>
<text text-anchor="start" x="247.5" y="-205" font-family="Helvetica,sans-Serif" font-size="10.00">Modules/InteractiveElements</text>
<text text-anchor="middle" x="341" y="-194" font-family="Helvetica,sans-Serif" font-size="10.00">/ShuntingElements/ShuntingElement.h</text>
</a>
</g>
</g>
<!-- Node10&#45;&gt;Node12 -->
<g id="edge13_Node000010_Node000012" class="edge">
<title>Node10&#45;&gt;Node12</title>
<g id="a_edge13_Node000010_Node000012"><a xlink:title=" ">
<path fill="none" stroke="#63b8ff" d="M312.87,-252.87C316.85,-245.81 322.67,-235.5 327.98,-226.08"/>
<polygon fill="#63b8ff" stroke="#63b8ff" points="331.17,-227.54 333.04,-217.11 325.08,-224.1 331.17,-227.54"/>
</a>
</g>
</g>
<!-- Node13 -->
<g id="Node000013" class="node">
<title>Node13</title>
<g id="a_Node000013"><a xlink:href="../../d6/d02/InteractiveElement_8h.html" target="_top" xlink:title="Classe de base abstraite pour tous les éléments interactifs ferroviaires.">
<polygon fill="white" stroke="#666666" points="420.5,-151 261.5,-151 261.5,-121 420.5,-121 420.5,-151"/>
<text text-anchor="start" x="269.5" y="-139" font-family="Helvetica,sans-Serif" font-size="10.00">Modules/InteractiveElements</text>
<text text-anchor="middle" x="341" y="-128" font-family="Helvetica,sans-Serif" font-size="10.00">/InteractiveElement.h</text>
</a>
</g>
</g>
<!-- Node12&#45;&gt;Node13 -->
<g id="edge14_Node000012_Node000013" class="edge">
<title>Node12&#45;&gt;Node13</title>
<g id="a_edge14_Node000012_Node000013"><a xlink:title=" ">
<path fill="none" stroke="#63b8ff" d="M341,-186.8C341,-179.34 341,-169.99 341,-161.41"/>
<polygon fill="#63b8ff" stroke="#63b8ff" points="344.5,-161.16 341,-151.16 337.5,-161.16 344.5,-161.16"/>
</a>
</g>
</g>
<!-- Node13&#45;&gt;Node3 -->
<g id="edge16_Node000013_Node000003" class="edge">
<title>Node13&#45;&gt;Node3</title>
<g id="a_edge16_Node000013_Node000003"><a xlink:title=" ">
<path fill="none" stroke="#63b8ff" d="M312.47,-120.95C293.67,-111.7 268.86,-99.49 248.48,-89.45"/>
<polygon fill="#63b8ff" stroke="#63b8ff" points="249.98,-86.29 239.46,-85.01 246.89,-92.57 249.98,-86.29"/>
</a>
</g>
</g>
<!-- Node13&#45;&gt;Node9 -->
<g id="edge15_Node000013_Node000009" class="edge">
<title>Node13&#45;&gt;Node9</title>
<g id="a_edge15_Node000013_Node000009"><a xlink:title=" ">
<path fill="none" stroke="#63b8ff" d="M345.93,-120.72C353.77,-98.02 369.07,-53.72 377.7,-28.75"/>
<polygon fill="#63b8ff" stroke="#63b8ff" points="381.08,-29.66 381.04,-19.07 374.47,-27.38 381.08,-29.66"/>
</a>
</g>
</g>
</g>
</svg>
