<?xml version="1.0" encoding="UTF-8" standalone="no"?>
<!DOCTYPE svg PUBLIC "-//W3C//DTD SVG 1.1//EN"
 "http://www.w3.org/Graphics/SVG/1.1/DTD/svg11.dtd">
<!-- Generated by graphviz version 2.43.0 (0)
 -->
<!-- Title: SimulateurFerroviaire/Modules/PCC/PCCNode.h Pages: 1 -->
<svg width="523pt" height="291pt"
 viewBox="0.00 0.00 523.03 291.00" xmlns="http://www.w3.org/2000/svg" xmlns:xlink="http://www.w3.org/1999/xlink">
<g id="graph0" class="graph" transform="scale(1 1) rotate(0) translate(4 287)">
<title>SimulateurFerroviaire/Modules/PCC/PCCNode.h</title>
<!-- Node1 -->
<g id="Node000001" class="node">
<title>Node1</title>
<g id="a_Node000001"><a xlink:title="Nœud abstrait du graphe PCC représentant un bloc ferroviaire.">
<polygon fill="#999999" stroke="#666666" points="260.03,-283 120.03,-283 120.03,-253 260.03,-253 260.03,-283"/>
<text text-anchor="start" x="128.03" y="-271" font-family="Helvetica,sans-Serif" font-size="10.00">SimulateurFerroviaire</text>
<text text-anchor="middle" x="190.03" y="-260" font-family="Helvetica,sans-Serif" font-size="10.00">/Modules/PCC/PCCNode.h</text>
</a>
</g>
</g>
<!-- Node2 -->
<g id="Node000002" class="node">
<title>Node2</title>
<g id="a_Node000002"><a xlink:title=" ">
<polygon fill="#e0e0e0" stroke="#999999" points="153.03,-19 109.03,-19 109.03,0 153.03,0 153.03,-19"/>
<text text-anchor="middle" x="131.03" y="-7" font-family="Helvetica,sans-Serif" font-size="10.00">string</text>
</a>
</g>
</g>
<!-- Node1&#45;&gt;Node2 -->
<g id="edge1_Node000001_Node000002" class="edge">
<title>Node1&#45;&gt;Node2</title>
<g id="a_edge1_Node000001_Node000002"><a xlink:title=" ">
<path fill="none" stroke="#63b8ff" d="M119.79,-255.89C76.62,-247.46 27.14,-234.36 14.03,-217 -36.16,-150.58 65.74,-60.38 110.93,-25.31"/>
<polygon fill="#63b8ff" stroke="#63b8ff" points="113.31,-27.89 119.15,-19.05 109.07,-22.32 113.31,-27.89"/>
</a>
</g>
</g>
<!-- Node3 -->
<g id="Node000003" class="node">
<title>Node3</title>
<g id="a_Node000003"><a xlink:title=" ">
<polygon fill="#e0e0e0" stroke="#999999" points="70.53,-211.5 23.53,-211.5 23.53,-192.5 70.53,-192.5 70.53,-211.5"/>
<text text-anchor="middle" x="47.03" y="-199.5" font-family="Helvetica,sans-Serif" font-size="10.00">vector</text>
</a>
</g>
</g>
<!-- Node1&#45;&gt;Node3 -->
<g id="edge2_Node000001_Node000003" class="edge">
<title>Node1&#45;&gt;Node3</title>
<g id="a_edge2_Node000001_Node000003"><a xlink:title=" ">
<path fill="none" stroke="#63b8ff" d="M158.64,-252.95C133.79,-241.83 99.36,-226.42 75.34,-215.67"/>
<polygon fill="#63b8ff" stroke="#63b8ff" points="76.61,-212.41 66.06,-211.52 73.75,-218.8 76.61,-212.41"/>
</a>
</g>
</g>
<!-- Node4 -->
<g id="Node000004" class="node">
<title>Node4</title>
<g id="a_Node000004"><a xlink:href="../../d1/d02/PCCEdge_8h.html" target="_top" xlink:title="Connexion orientée entre deux nœuds du graphe PCC.">
<polygon fill="white" stroke="#666666" points="341.53,-145.5 272.53,-145.5 272.53,-126.5 341.53,-126.5 341.53,-145.5"/>
<text text-anchor="middle" x="307.03" y="-133.5" font-family="Helvetica,sans-Serif" font-size="10.00">PCCEdge.h</text>
</a>
</g>
</g>
<!-- Node1&#45;&gt;Node4 -->
<g id="edge3_Node000001_Node000004" class="edge">
<title>Node1&#45;&gt;Node4</title>
<g id="a_edge3_Node000001_Node000004"><a xlink:title=" ">
<path fill="none" stroke="#63b8ff" d="M250.52,-252.98C269.7,-245.5 289.02,-234.14 301.03,-217 313.55,-199.13 312.99,-173.17 310.67,-155.71"/>
<polygon fill="#63b8ff" stroke="#63b8ff" points="314.09,-154.94 309.01,-145.64 307.18,-156.08 314.09,-154.94"/>
</a>
</g>
</g>
<!-- Node5 -->
<g id="Node000005" class="node">
<title>Node5</title>
<g id="a_Node000005"><a xlink:href="../../dd/d00/Logger_8h.html" target="_top" xlink:title="Système de journalisation à 5 niveaux de trace, un fichier par moteur.">
<polygon fill="white" stroke="#666666" points="362.53,-85 251.53,-85 251.53,-55 362.53,-55 362.53,-85"/>
<text text-anchor="start" x="259.53" y="-73" font-family="Helvetica,sans-Serif" font-size="10.00">Engine/Core/Logger</text>
<text text-anchor="middle" x="307.03" y="-62" font-family="Helvetica,sans-Serif" font-size="10.00">/Logger.h</text>
</a>
</g>
</g>
<!-- Node1&#45;&gt;Node5 -->
<g id="edge15_Node000001_Node000005" class="edge">
<title>Node1&#45;&gt;Node5</title>
<g id="a_edge15_Node000001_Node000005"><a xlink:title=" ">
<path fill="none" stroke="#63b8ff" d="M254.29,-252.95C277.19,-245.37 301.79,-233.97 320.03,-217 352.85,-186.46 366.85,-162.95 351.03,-121 347.05,-110.45 339.71,-100.69 332.16,-92.64"/>
<polygon fill="#63b8ff" stroke="#63b8ff" points="334.22,-89.75 324.65,-85.19 329.29,-94.72 334.22,-89.75"/>
</a>
</g>
</g>
<!-- Node11 -->
<g id="Node000011" class="node">
<title>Node11</title>
<g id="a_Node000011"><a xlink:href="../../df/d02/ShuntingElement_8h.html" target="_top" xlink:title="Interface abstraite pour tous les éléments de shuntage ferroviaire.">
<polygon fill="white" stroke="#666666" points="291.53,-217 88.53,-217 88.53,-187 291.53,-187 291.53,-217"/>
<text text-anchor="start" x="96.53" y="-205" font-family="Helvetica,sans-Serif" font-size="10.00">Modules/InteractiveElements</text>
<text text-anchor="middle" x="190.03" y="-194" font-family="Helvetica,sans-Serif" font-size="10.00">/ShuntingElements/ShuntingElement.h</text>
</a>
</g>
</g>
<!-- Node1&#45;&gt;Node11 -->
<g id="edge11_Node000001_Node000011" class="edge">
<title>Node1&#45;&gt;Node11</title>
<g id="a_edge11_Node000001_Node000011"><a xlink:title=" ">
<path fill="none" stroke="#63b8ff" d="M190.03,-252.8C190.03,-245.34 190.03,-235.99 190.03,-227.41"/>
<polygon fill="#63b8ff" stroke="#63b8ff" points="193.53,-227.16 190.03,-217.16 186.53,-227.16 193.53,-227.16"/>
</a>
</g>
</g>
<!-- Node4&#45;&gt;Node5 -->
<g id="edge4_Node000004_Node000005" class="edge">
<title>Node4&#45;&gt;Node5</title>
<g id="a_edge4_Node000004_Node000005"><a xlink:title=" ">
<path fill="none" stroke="#63b8ff" d="M307.03,-126.37C307.03,-118.49 307.03,-106.45 307.03,-95.6"/>
<polygon fill="#63b8ff" stroke="#63b8ff" points="310.53,-95.36 307.03,-85.36 303.53,-95.36 310.53,-95.36"/>
</a>
</g>
</g>
<!-- Node5&#45;&gt;Node2 -->
<g id="edge10_Node000005_Node000002" class="edge">
<title>Node5&#45;&gt;Node2</title>
<g id="a_edge10_Node000005_Node000002"><a xlink:title=" ">
<path fill="none" stroke="#63b8ff" d="M264.87,-54.99C233.58,-44.59 191.55,-30.62 163,-21.13"/>
<polygon fill="#63b8ff" stroke="#63b8ff" points="164.09,-17.8 153.5,-17.97 161.89,-24.45 164.09,-17.8"/>
</a>
</g>
</g>
<!-- Node6 -->
<g id="Node000006" class="node">
<title>Node6</title>
<g id="a_Node000006"><a xlink:title=" ">
<polygon fill="#e0e0e0" stroke="#999999" points="215.03,-19 171.03,-19 171.03,0 215.03,0 215.03,-19"/>
<text text-anchor="middle" x="193.03" y="-7" font-family="Helvetica,sans-Serif" font-size="10.00">ctime</text>
</a>
</g>
</g>
<!-- Node5&#45;&gt;Node6 -->
<g id="edge5_Node000005_Node000006" class="edge">
<title>Node5&#45;&gt;Node6</title>
<g id="a_edge5_Node000005_Node000006"><a xlink:title=" ">
<path fill="none" stroke="#63b8ff" d="M279.72,-54.99C261.38,-45.58 237.35,-33.24 219.24,-23.95"/>
<polygon fill="#63b8ff" stroke="#63b8ff" points="220.36,-20.59 209.86,-19.14 217.16,-26.82 220.36,-20.59"/>
</a>
</g>
</g>
<!-- Node7 -->
<g id="Node000007" class="node">
<title>Node7</title>
<g id="a_Node000007"><a xlink:title=" ">
<polygon fill="#e0e0e0" stroke="#999999" points="301.03,-19 233.03,-19 233.03,0 301.03,0 301.03,-19"/>
<text text-anchor="middle" x="267.03" y="-7" font-family="Helvetica,sans-Serif" font-size="10.00">filesystem</text>
</a>
</g>
</g>
<!-- Node5&#45;&gt;Node7 -->
<g id="edge6_Node000005_Node000007" class="edge">
<title>Node5&#45;&gt;Node7</title>
<g id="a_edge6_Node000005_Node000007"><a xlink:title=" ">
<path fill="none" stroke="#63b8ff" d="M297.34,-54.84C291.77,-46.69 284.73,-36.4 278.84,-27.78"/>
<polygon fill="#63b8ff" stroke="#63b8ff" points="281.55,-25.55 273.02,-19.27 275.77,-29.5 281.55,-25.55"/>
</a>
</g>
</g>
<!-- Node8 -->
<g id="Node000008" class="node">
<title>Node8</title>
<g id="a_Node000008"><a xlink:title=" ">
<polygon fill="#e0e0e0" stroke="#999999" points="374.53,-19 319.53,-19 319.53,0 374.53,0 374.53,-19"/>
<text text-anchor="middle" x="347.03" y="-7" font-family="Helvetica,sans-Serif" font-size="10.00">fstream</text>
</a>
</g>
</g>
<!-- Node5&#45;&gt;Node8 -->
<g id="edge7_Node000005_Node000008" class="edge">
<title>Node5&#45;&gt;Node8</title>
<g id="a_edge7_Node000005_Node000008"><a xlink:title=" ">
<path fill="none" stroke="#63b8ff" d="M316.71,-54.84C322.28,-46.69 329.32,-36.4 335.21,-27.78"/>
<polygon fill="#63b8ff" stroke="#63b8ff" points="338.28,-29.5 341.03,-19.27 332.5,-25.55 338.28,-29.5"/>
</a>
</g>
</g>
<!-- Node9 -->
<g id="Node000009" class="node">
<title>Node9</title>
<g id="a_Node000009"><a xlink:title=" ">
<polygon fill="#e0e0e0" stroke="#999999" points="441.03,-19 393.03,-19 393.03,0 441.03,0 441.03,-19"/>
<text text-anchor="middle" x="417.03" y="-7" font-family="Helvetica,sans-Serif" font-size="10.00">mutex</text>
</a>
</g>
</g>
<!-- Node5&#45;&gt;Node9 -->
<g id="edge8_Node000005_Node000009" class="edge">
<title>Node5&#45;&gt;Node9</title>
<g id="a_edge8_Node000005_Node000009"><a xlink:title=" ">
<path fill="none" stroke="#63b8ff" d="M333.37,-54.99C351.07,-45.58 374.26,-33.24 391.73,-23.95"/>
<polygon fill="#63b8ff" stroke="#63b8ff" points="393.59,-26.92 400.78,-19.14 390.31,-20.74 393.59,-26.92"/>
</a>
</g>
</g>
<!-- Node10 -->
<g id="Node000010" class="node">
<title>Node10</title>
<g id="a_Node000010"><a xlink:title=" ">
<polygon fill="#e0e0e0" stroke="#999999" points="515.03,-19 459.03,-19 459.03,0 515.03,0 515.03,-19"/>
<text text-anchor="middle" x="487.03" y="-7" font-family="Helvetica,sans-Serif" font-size="10.00">sstream</text>
</a>
</g>
</g>
<!-- Node5&#45;&gt;Node10 -->
<g id="edge9_Node000005_Node000010" class="edge">
<title>Node5&#45;&gt;Node10</title>
<g id="a_edge9_Node000005_Node000010"><a xlink:title=" ">
<path fill="none" stroke="#63b8ff" d="M350.14,-54.99C380.94,-44.98 421.89,-31.67 450.96,-22.22"/>
<polygon fill="#63b8ff" stroke="#63b8ff" points="452.28,-25.47 460.71,-19.05 450.11,-18.82 452.28,-25.47"/>
</a>
</g>
</g>
<!-- Node12 -->
<g id="Node000012" class="node">
<title>Node12</title>
<g id="a_Node000012"><a xlink:href="../../d6/d02/InteractiveElement_8h.html" target="_top" xlink:title="Classe de base abstraite pour tous les éléments interactifs ferroviaires.">
<polygon fill="white" stroke="#666666" points="254.53,-151 95.53,-151 95.53,-121 254.53,-121 254.53,-151"/>
<text text-anchor="start" x="103.53" y="-139" font-family="Helvetica,sans-Serif" font-size="10.00">Modules/InteractiveElements</text>
<text text-anchor="middle" x="175.03" y="-128" font-family="Helvetica,sans-Serif" font-size="10.00">/InteractiveElement.h</text>
</a>
</g>
</g>
<!-- Node11&#45;&gt;Node12 -->
<g id="edge12_Node000011_Node000012" class="edge">
<title>Node11&#45;&gt;Node12</title>
<g id="a_edge12_Node000011_Node000012"><a xlink:title=" ">
<path fill="none" stroke="#63b8ff" d="M186.7,-186.8C184.93,-179.26 182.71,-169.78 180.68,-161.13"/>
<polygon fill="#63b8ff" stroke="#63b8ff" points="184.03,-160.1 178.35,-151.16 177.22,-161.7 184.03,-160.1"/>
</a>
</g>
</g>
<!-- Node12&#45;&gt;Node2 -->
<g id="edge13_Node000012_Node000002" class="edge">
<title>Node12&#45;&gt;Node2</title>
<g id="a_edge13_Node000012_Node000002"><a xlink:title=" ">
<path fill="none" stroke="#63b8ff" d="M169.98,-120.72C161.96,-98.02 146.3,-53.72 137.48,-28.75"/>
<polygon fill="#63b8ff" stroke="#63b8ff" points="140.69,-27.33 134.05,-19.07 134.09,-29.66 140.69,-27.33"/>
</a>
</g>
</g>
<!-- Node12&#45;&gt;Node5 -->
<g id="edge14_Node000012_Node000005" class="edge">
<title>Node12&#45;&gt;Node5</title>
<g id="a_edge14_Node000012_Node000005"><a xlink:title=" ">
<path fill="none" stroke="#63b8ff" d="M203.99,-120.95C223.08,-111.7 248.27,-99.49 268.97,-89.45"/>
<polygon fill="#63b8ff" stroke="#63b8ff" points="270.65,-92.52 278.12,-85.01 267.6,-86.23 270.65,-92.52"/>
</a>
</g>
</g>
</g>
</svg>
