<?xml version="1.0" encoding="UTF-8" standalone="no"?>
<!DOCTYPE svg PUBLIC "-//W3C//DTD SVG 1.1//EN"
 "http://www.w3.org/Graphics/SVG/1.1/DTD/svg11.dtd">
<!-- Generated by graphviz version 2.43.0 (0)
 -->
<!-- Title: SimulateurFerroviaire/Modules/PCC/PCCNode.h Pages: 1 -->
<svg width="526pt" height="280pt"
 viewBox="0.00 0.00 526.21 280.00" xmlns="http://www.w3.org/2000/svg" xmlns:xlink="http://www.w3.org/1999/xlink">
<g id="graph0" class="graph" transform="scale(1 1) rotate(0) translate(4 276)">
<title>SimulateurFerroviaire/Modules/PCC/PCCNode.h</title>
<!-- Node1 -->
<g id="Node000001" class="node">
<title>Node1</title>
<g id="a_Node000001"><a xlink:title="Nœud abstrait du graphe PCC représentant un bloc ferroviaire.">
<polygon fill="#999999" stroke="#666666" points="240.21,-272 100.21,-272 100.21,-242 240.21,-242 240.21,-272"/>
<text text-anchor="start" x="108.21" y="-260" font-family="Helvetica,sans-Serif" font-size="10.00">SimulateurFerroviaire</text>
<text text-anchor="middle" x="170.21" y="-249" font-family="Helvetica,sans-Serif" font-size="10.00">/Modules/PCC/PCCNode.h</text>
</a>
</g>
</g>
<!-- Node2 -->
<g id="Node000002" class="node">
<title>Node2</title>
<g id="a_Node000002"><a xlink:title=" ">
<polygon fill="#e0e0e0" stroke="#999999" points="70.21,-19 26.21,-19 26.21,0 70.21,0 70.21,-19"/>
<text text-anchor="middle" x="48.21" y="-7" font-family="Helvetica,sans-Serif" font-size="10.00">string</text>
</a>
</g>
</g>
<!-- Node1&#45;&gt;Node2 -->
<g id="edge1_Node000001_Node000002" class="edge">
<title>Node1&#45;&gt;Node2</title>
<g id="a_edge1_Node000001_Node000002"><a xlink:title=" ">
<path fill="none" stroke="#63b8ff" d="M100.06,-251.04C69.44,-244.97 36.24,-232.24 17.21,-206 -22.44,-151.33 17.05,-65.39 37.54,-28.4"/>
<polygon fill="#63b8ff" stroke="#63b8ff" points="40.8,-29.75 42.74,-19.34 34.73,-26.27 40.8,-29.75"/>
</a>
</g>
</g>
<!-- Node3 -->
<g id="Node000003" class="node">
<title>Node3</title>
<g id="a_Node000003"><a xlink:title=" ">
<polygon fill="#e0e0e0" stroke="#999999" points="73.71,-200.5 26.71,-200.5 26.71,-181.5 73.71,-181.5 73.71,-200.5"/>
<text text-anchor="middle" x="50.21" y="-188.5" font-family="Helvetica,sans-Serif" font-size="10.00">vector</text>
</a>
</g>
</g>
<!-- Node1&#45;&gt;Node3 -->
<g id="edge2_Node000001_Node000003" class="edge">
<title>Node1&#45;&gt;Node3</title>
<g id="a_edge2_Node000001_Node000003"><a xlink:title=" ">
<path fill="none" stroke="#63b8ff" d="M143.87,-241.95C123.38,-231.03 95.15,-215.97 75.05,-205.25"/>
<polygon fill="#63b8ff" stroke="#63b8ff" points="76.65,-202.14 66.18,-200.52 73.35,-208.31 76.65,-202.14"/>
</a>
</g>
</g>
<!-- Node4 -->
<g id="Node000004" class="node">
<title>Node4</title>
<g id="a_Node000004"><a xlink:href="../../d1/d02/PCCEdge_8h.html" target="_top" xlink:title="Connexion orientée entre deux nœuds du graphe PCC.">
<polygon fill="white" stroke="#666666" points="298.71,-140 229.71,-140 229.71,-121 298.71,-121 298.71,-140"/>
<text text-anchor="middle" x="264.21" y="-128" font-family="Helvetica,sans-Serif" font-size="10.00">PCCEdge.h</text>
</a>
</g>
</g>
<!-- Node1&#45;&gt;Node4 -->
<g id="edge3_Node000001_Node000004" class="edge">
<title>Node1&#45;&gt;Node4</title>
<g id="a_edge3_Node000001_Node000004"><a xlink:title=" ">
<path fill="none" stroke="#63b8ff" d="M212.84,-241.88C229.79,-234.03 247.73,-222.45 258.21,-206 268.76,-189.44 268.93,-166.44 267.31,-150.39"/>
<polygon fill="#63b8ff" stroke="#63b8ff" points="270.73,-149.57 265.94,-140.12 263.8,-150.5 270.73,-149.57"/>
</a>
</g>
</g>
<!-- Node5 -->
<g id="Node000005" class="node">
<title>Node5</title>
<g id="a_Node000005"><a xlink:href="../../dd/d00/Logger_8h.html" target="_top" xlink:title="Système de journalisation à 5 niveaux de trace, un fichier par moteur.">
<polygon fill="white" stroke="#666666" points="319.71,-85 208.71,-85 208.71,-55 319.71,-55 319.71,-85"/>
<text text-anchor="start" x="216.71" y="-73" font-family="Helvetica,sans-Serif" font-size="10.00">Engine/Core/Logger</text>
<text text-anchor="middle" x="264.21" y="-62" font-family="Helvetica,sans-Serif" font-size="10.00">/Logger.h</text>
</a>
</g>
</g>
<!-- Node1&#45;&gt;Node5 -->
<g id="edge16_Node000001_Node000005" class="edge">
<title>Node1&#45;&gt;Node5</title>
<g id="a_edge16_Node000001_Node000005"><a xlink:title=" ">
<path fill="none" stroke="#63b8ff" d="M216.65,-241.97C236.89,-234.01 259.72,-222.31 276.21,-206 304.9,-177.61 322.46,-158.77 308.21,-121 304.23,-110.45 296.9,-100.69 289.34,-92.64"/>
<polygon fill="#63b8ff" stroke="#63b8ff" points="291.4,-89.75 281.84,-85.19 286.47,-94.72 291.4,-89.75"/>
</a>
</g>
</g>
<!-- Node12 -->
<g id="Node000012" class="node">
<title>Node12</title>
<g id="a_Node000012"><a xlink:href="../../df/d02/ShuntingElement_8h.html" target="_top" xlink:title="Interface abstraite pour tous les éléments de shuntage ferroviaire.">
<polygon fill="white" stroke="#666666" points="249.21,-206 91.21,-206 91.21,-176 249.21,-176 249.21,-206"/>
<text text-anchor="start" x="99.21" y="-194" font-family="Helvetica,sans-Serif" font-size="10.00">Modules/Elements/Shunting</text>
<text text-anchor="middle" x="170.21" y="-183" font-family="Helvetica,sans-Serif" font-size="10.00">Elements/ShuntingElement.h</text>
</a>
</g>
</g>
<!-- Node1&#45;&gt;Node12 -->
<g id="edge12_Node000001_Node000012" class="edge">
<title>Node1&#45;&gt;Node12</title>
<g id="a_edge12_Node000001_Node000012"><a xlink:title=" ">
<path fill="none" stroke="#63b8ff" d="M170.21,-241.8C170.21,-234.34 170.21,-224.99 170.21,-216.41"/>
<polygon fill="#63b8ff" stroke="#63b8ff" points="173.71,-216.16 170.21,-206.16 166.71,-216.16 173.71,-216.16"/>
</a>
</g>
</g>
<!-- Node4&#45;&gt;Node5 -->
<g id="edge4_Node000004_Node000005" class="edge">
<title>Node4&#45;&gt;Node5</title>
<g id="a_edge4_Node000004_Node000005"><a xlink:title=" ">
<path fill="none" stroke="#63b8ff" d="M264.21,-120.87C264.21,-114.11 264.21,-104.35 264.21,-95.26"/>
<polygon fill="#63b8ff" stroke="#63b8ff" points="267.71,-95.11 264.21,-85.11 260.71,-95.11 267.71,-95.11"/>
</a>
</g>
</g>
<!-- Node5&#45;&gt;Node2 -->
<g id="edge10_Node000005_Node000002" class="edge">
<title>Node5&#45;&gt;Node2</title>
<g id="a_edge10_Node000005_Node000002"><a xlink:title=" ">
<path fill="none" stroke="#63b8ff" d="M211.96,-54.93C177.14,-45.55 130.1,-32.84 79.95,-19.2"/>
<polygon fill="#63b8ff" stroke="#63b8ff" points="80.79,-15.8 70.22,-16.55 78.95,-22.55 80.79,-15.8"/>
</a>
</g>
</g>
<!-- Node6 -->
<g id="Node000006" class="node">
<title>Node6</title>
<g id="a_Node000006"><a xlink:title=" ">
<polygon fill="#e0e0e0" stroke="#999999" points="132.21,-19 88.21,-19 88.21,0 132.21,0 132.21,-19"/>
<text text-anchor="middle" x="110.21" y="-7" font-family="Helvetica,sans-Serif" font-size="10.00">ctime</text>
</a>
</g>
</g>
<!-- Node5&#45;&gt;Node6 -->
<g id="edge5_Node000005_Node000006" class="edge">
<title>Node5&#45;&gt;Node6</title>
<g id="a_edge5_Node000005_Node000006"><a xlink:title=" ">
<path fill="none" stroke="#63b8ff" d="M227.32,-54.99C201.36,-45.12 166.95,-32.05 142.15,-22.64"/>
<polygon fill="#63b8ff" stroke="#63b8ff" points="143.09,-19.25 132.5,-18.97 140.61,-25.79 143.09,-19.25"/>
</a>
</g>
</g>
<!-- Node7 -->
<g id="Node000007" class="node">
<title>Node7</title>
<g id="a_Node000007"><a xlink:title=" ">
<polygon fill="#e0e0e0" stroke="#999999" points="218.21,-19 150.21,-19 150.21,0 218.21,0 218.21,-19"/>
<text text-anchor="middle" x="184.21" y="-7" font-family="Helvetica,sans-Serif" font-size="10.00">filesystem</text>
</a>
</g>
</g>
<!-- Node5&#45;&gt;Node7 -->
<g id="edge6_Node000005_Node000007" class="edge">
<title>Node5&#45;&gt;Node7</title>
<g id="a_edge6_Node000005_Node000007"><a xlink:title=" ">
<path fill="none" stroke="#63b8ff" d="M244.84,-54.84C232.64,-45.91 216.9,-34.41 204.52,-25.35"/>
<polygon fill="#63b8ff" stroke="#63b8ff" points="206.33,-22.34 196.2,-19.27 202.2,-27.99 206.33,-22.34"/>
</a>
</g>
</g>
<!-- Node8 -->
<g id="Node000008" class="node">
<title>Node8</title>
<g id="a_Node000008"><a xlink:title=" ">
<polygon fill="#e0e0e0" stroke="#999999" points="291.71,-19 236.71,-19 236.71,0 291.71,0 291.71,-19"/>
<text text-anchor="middle" x="264.21" y="-7" font-family="Helvetica,sans-Serif" font-size="10.00">fstream</text>
</a>
</g>
</g>
<!-- Node5&#45;&gt;Node8 -->
<g id="edge7_Node000005_Node000008" class="edge">
<title>Node5&#45;&gt;Node8</title>
<g id="a_edge7_Node000005_Node000008"><a xlink:title=" ">
<path fill="none" stroke="#63b8ff" d="M264.21,-54.84C264.21,-47.21 264.21,-37.7 264.21,-29.45"/>
<polygon fill="#63b8ff" stroke="#63b8ff" points="267.71,-29.27 264.21,-19.27 260.71,-29.27 267.71,-29.27"/>
</a>
</g>
</g>
<!-- Node9 -->
<g id="Node000009" class="node">
<title>Node9</title>
<g id="a_Node000009"><a xlink:title=" ">
<polygon fill="#e0e0e0" stroke="#999999" points="358.21,-19 310.21,-19 310.21,0 358.21,0 358.21,-19"/>
<text text-anchor="middle" x="334.21" y="-7" font-family="Helvetica,sans-Serif" font-size="10.00">mutex</text>
</a>
</g>
</g>
<!-- Node5&#45;&gt;Node9 -->
<g id="edge8_Node000005_Node000009" class="edge">
<title>Node5&#45;&gt;Node9</title>
<g id="a_edge8_Node000005_Node000009"><a xlink:title=" ">
<path fill="none" stroke="#63b8ff" d="M281.15,-54.84C291.62,-46.09 305.07,-34.85 315.8,-25.88"/>
<polygon fill="#63b8ff" stroke="#63b8ff" points="318.29,-28.36 323.72,-19.27 313.8,-22.99 318.29,-28.36"/>
</a>
</g>
</g>
<!-- Node10 -->
<g id="Node000010" class="node">
<title>Node10</title>
<g id="a_Node000010"><a xlink:title=" ">
<polygon fill="#e0e0e0" stroke="#999999" points="432.21,-19 376.21,-19 376.21,0 432.21,0 432.21,-19"/>
<text text-anchor="middle" x="404.21" y="-7" font-family="Helvetica,sans-Serif" font-size="10.00">sstream</text>
</a>
</g>
</g>
<!-- Node5&#45;&gt;Node10 -->
<g id="edge9_Node000005_Node000010" class="edge">
<title>Node5&#45;&gt;Node10</title>
<g id="a_edge9_Node000005_Node000010"><a xlink:title=" ">
<path fill="none" stroke="#63b8ff" d="M297.74,-54.99C321,-45.27 351.7,-32.44 374.16,-23.06"/>
<polygon fill="#63b8ff" stroke="#63b8ff" points="375.66,-26.22 383.53,-19.14 372.96,-19.77 375.66,-26.22"/>
</a>
</g>
</g>
<!-- Node11 -->
<g id="Node000011" class="node">
<title>Node11</title>
<g id="a_Node000011"><a xlink:title=" ">
<polygon fill="#e0e0e0" stroke="#999999" points="518.21,-19 450.21,-19 450.21,0 518.21,0 518.21,-19"/>
<text text-anchor="middle" x="484.21" y="-7" font-family="Helvetica,sans-Serif" font-size="10.00">windows.h</text>
</a>
</g>
</g>
<!-- Node5&#45;&gt;Node11 -->
<g id="edge11_Node000005_Node000011" class="edge">
<title>Node5&#45;&gt;Node11</title>
<g id="a_edge11_Node000005_Node000011"><a xlink:title=" ">
<path fill="none" stroke="#63b8ff" d="M316.9,-54.99C355.2,-44.8 406.35,-31.2 441.97,-21.73"/>
<polygon fill="#63b8ff" stroke="#63b8ff" points="443.28,-25.01 452.04,-19.05 441.48,-18.24 443.28,-25.01"/>
</a>
</g>
</g>
<!-- Node13 -->
<g id="Node000013" class="node">
<title>Node13</title>
<g id="a_Node000013"><a xlink:href="../../d5/d02/Element_8h.html" target="_top" xlink:title="Classe de base abstraite pour tous les éléments interactifs ferroviaires.">
<polygon fill="white" stroke="#666666" points="211.71,-140 52.71,-140 52.71,-121 211.71,-121 211.71,-140"/>
<text text-anchor="middle" x="132.21" y="-128" font-family="Helvetica,sans-Serif" font-size="10.00">Modules/Elements/Element.h</text>
</a>
</g>
</g>
<!-- Node12&#45;&gt;Node13 -->
<g id="edge13_Node000012_Node000013" class="edge">
<title>Node12&#45;&gt;Node13</title>
<g id="a_edge13_Node000012_Node000013"><a xlink:title=" ">
<path fill="none" stroke="#63b8ff" d="M161.01,-175.84C155.72,-167.69 149.03,-157.4 143.43,-148.78"/>
<polygon fill="#63b8ff" stroke="#63b8ff" points="146.28,-146.75 137.9,-140.27 140.41,-150.56 146.28,-146.75"/>
</a>
</g>
</g>
<!-- Node13&#45;&gt;Node2 -->
<g id="edge14_Node000013_Node000002" class="edge">
<title>Node13&#45;&gt;Node2</title>
<g id="a_edge14_Node000013_Node000002"><a xlink:title=" ">
<path fill="none" stroke="#63b8ff" d="M126.17,-120.94C112.43,-101.48 78.63,-53.6 60.38,-27.74"/>
<polygon fill="#63b8ff" stroke="#63b8ff" points="63.05,-25.45 54.42,-19.3 57.33,-29.49 63.05,-25.45"/>
</a>
</g>
</g>
<!-- Node13&#45;&gt;Node5 -->
<g id="edge15_Node000013_Node000005" class="edge">
<title>Node13&#45;&gt;Node5</title>
<g id="a_edge15_Node000013_Node000005"><a xlink:title=" ">
<path fill="none" stroke="#63b8ff" d="M151.4,-120.99C170.15,-112.68 199.28,-99.78 223.24,-89.16"/>
<polygon fill="#63b8ff" stroke="#63b8ff" points="224.75,-92.32 232.47,-85.06 221.91,-85.92 224.75,-92.32"/>
</a>
</g>
</g>
</g>
</svg>
