<?xml version="1.0" encoding="UTF-8" standalone="no"?>
<!DOCTYPE svg PUBLIC "-//W3C//DTD SVG 1.1//EN"
 "http://www.w3.org/Graphics/SVG/1.1/DTD/svg11.dtd">
<!-- Generated by graphviz version 2.43.0 (0)
 -->
<!-- Title: SimulateurFerroviaire/Modules/Elements/ShuntingElements/StraightBlock.h Pages: 1 -->
<svg width="543pt" height="291pt"
 viewBox="0.00 0.00 542.50 291.00" xmlns="http://www.w3.org/2000/svg" xmlns:xlink="http://www.w3.org/1999/xlink">
<g id="graph0" class="graph" transform="scale(1 1) rotate(0) translate(4 287)">
<title>SimulateurFerroviaire/Modules/Elements/ShuntingElements/StraightBlock.h</title>
<!-- Node1 -->
<g id="Node000001" class="node">
<title>Node1</title>
<g id="a_Node000001"><a xlink:title="Modèle de domaine d&#39;un bloc de voie droite (Straight).">
<polygon fill="#999999" stroke="#666666" points="270.5,-283 69.5,-283 69.5,-242 270.5,-242 270.5,-283"/>
<text text-anchor="start" x="77.5" y="-271" font-family="Helvetica,sans-Serif" font-size="10.00">SimulateurFerroviaire</text>
<text text-anchor="start" x="77.5" y="-260" font-family="Helvetica,sans-Serif" font-size="10.00">/Modules/Elements/ShuntingElements</text>
<text text-anchor="middle" x="170" y="-249" font-family="Helvetica,sans-Serif" font-size="10.00">/StraightBlock.h</text>
</a>
</g>
</g>
<!-- Node2 -->
<g id="Node000002" class="node">
<title>Node2</title>
<g id="a_Node000002"><a xlink:title=" ">
<polygon fill="#e0e0e0" stroke="#999999" points="44,-19 0,-19 0,0 44,0 44,-19"/>
<text text-anchor="middle" x="22" y="-7" font-family="Helvetica,sans-Serif" font-size="10.00">string</text>
</a>
</g>
</g>
<!-- Node1&#45;&gt;Node2 -->
<g id="edge1_Node000001_Node000002" class="edge">
<title>Node1&#45;&gt;Node2</title>
<g id="a_edge1_Node000001_Node000002"><a xlink:title=" ">
<path fill="none" stroke="#63b8ff" d="M88.9,-241.96C70.47,-233.78 52.86,-222.24 41,-206 1.82,-152.34 11.27,-67.11 18.03,-29.45"/>
<polygon fill="#63b8ff" stroke="#63b8ff" points="21.51,-29.86 19.98,-19.38 14.64,-28.53 21.51,-29.86"/>
</a>
</g>
</g>
<!-- Node3 -->
<g id="Node000003" class="node">
<title>Node3</title>
<g id="a_Node000003"><a xlink:title=" ">
<polygon fill="#e0e0e0" stroke="#999999" points="97.5,-200.5 50.5,-200.5 50.5,-181.5 97.5,-181.5 97.5,-200.5"/>
<text text-anchor="middle" x="74" y="-188.5" font-family="Helvetica,sans-Serif" font-size="10.00">vector</text>
</a>
</g>
</g>
<!-- Node1&#45;&gt;Node3 -->
<g id="edge2_Node000001_Node000003" class="edge">
<title>Node1&#45;&gt;Node3</title>
<g id="a_edge2_Node000001_Node000003"><a xlink:title=" ">
<path fill="none" stroke="#63b8ff" d="M143,-241.96C127.39,-230.65 108.08,-216.67 93.86,-206.38"/>
<polygon fill="#63b8ff" stroke="#63b8ff" points="95.9,-203.53 85.75,-200.5 91.79,-209.2 95.9,-203.53"/>
</a>
</g>
</g>
<!-- Node4 -->
<g id="Node000004" class="node">
<title>Node4</title>
<g id="a_Node000004"><a xlink:href="../../df/d02/ShuntingElement_8h.html" target="_top" xlink:title="Interface abstraite pour tous les éléments de shuntage ferroviaire.">
<polygon fill="white" stroke="#666666" points="224.5,-200.5 115.5,-200.5 115.5,-181.5 224.5,-181.5 224.5,-200.5"/>
<text text-anchor="middle" x="170" y="-188.5" font-family="Helvetica,sans-Serif" font-size="10.00">ShuntingElement.h</text>
</a>
</g>
</g>
<!-- Node1&#45;&gt;Node4 -->
<g id="edge3_Node000001_Node000004" class="edge">
<title>Node1&#45;&gt;Node4</title>
<g id="a_edge3_Node000001_Node000004"><a xlink:title=" ">
<path fill="none" stroke="#63b8ff" d="M170,-241.77C170,-232.08 170,-220.46 170,-210.88"/>
<polygon fill="#63b8ff" stroke="#63b8ff" points="173.5,-210.82 170,-200.82 166.5,-210.82 173.5,-210.82"/>
</a>
</g>
</g>
<!-- Node13 -->
<g id="Node000013" class="node">
<title>Node13</title>
<g id="a_Node000013"><a xlink:href="../../d6/d01/CoordinateLatLon_8h.html" target="_top" xlink:title="Représentation d&#39;une coordonnée géographique WGS&#45;84 (latitude, longitude).">
<polygon fill="white" stroke="#666666" points="379.5,-206 242.5,-206 242.5,-176 379.5,-176 379.5,-206"/>
<text text-anchor="start" x="250.5" y="-194" font-family="Helvetica,sans-Serif" font-size="10.00">Engine/Core/Coordinates</text>
<text text-anchor="middle" x="311" y="-183" font-family="Helvetica,sans-Serif" font-size="10.00">/CoordinateLatLon.h</text>
</a>
</g>
</g>
<!-- Node1&#45;&gt;Node13 -->
<g id="edge14_Node000001_Node000013" class="edge">
<title>Node1&#45;&gt;Node13</title>
<g id="a_edge14_Node000001_Node000013"><a xlink:title=" ">
<path fill="none" stroke="#63b8ff" d="M209.65,-241.96C229.62,-232.11 253.71,-220.24 273.38,-210.54"/>
<polygon fill="#63b8ff" stroke="#63b8ff" points="274.95,-213.67 282.37,-206.11 271.85,-207.39 274.95,-213.67"/>
</a>
</g>
</g>
<!-- Node14 -->
<g id="Node000014" class="node">
<title>Node14</title>
<g id="a_Node000014"><a xlink:href="../../db/d03/CoordinateXY_8h.html" target="_top" xlink:title="Représentation d&#39;une coordonnée plane en mètres (système métrique UTM).">
<polygon fill="white" stroke="#666666" points="534.5,-206 397.5,-206 397.5,-176 534.5,-176 534.5,-206"/>
<text text-anchor="start" x="405.5" y="-194" font-family="Helvetica,sans-Serif" font-size="10.00">Engine/Core/Coordinates</text>
<text text-anchor="middle" x="466" y="-183" font-family="Helvetica,sans-Serif" font-size="10.00">/CoordinateXY.h</text>
</a>
</g>
</g>
<!-- Node1&#45;&gt;Node14 -->
<g id="edge15_Node000001_Node000014" class="edge">
<title>Node1&#45;&gt;Node14</title>
<g id="a_edge15_Node000001_Node000014"><a xlink:title=" ">
<path fill="none" stroke="#63b8ff" d="M253.24,-241.96C298.45,-231.34 353.71,-218.37 396.58,-208.3"/>
<polygon fill="#63b8ff" stroke="#63b8ff" points="397.42,-211.7 406.36,-206 395.82,-204.88 397.42,-211.7"/>
</a>
</g>
</g>
<!-- Node5 -->
<g id="Node000005" class="node">
<title>Node5</title>
<g id="a_Node000005"><a xlink:href="../../d5/d02/Element_8h.html" target="_top" xlink:title="Classe de base abstraite pour tous les éléments interactifs ferroviaires.">
<polygon fill="white" stroke="#666666" points="249.5,-140 90.5,-140 90.5,-121 249.5,-121 249.5,-140"/>
<text text-anchor="middle" x="170" y="-128" font-family="Helvetica,sans-Serif" font-size="10.00">Modules/Elements/Element.h</text>
</a>
</g>
</g>
<!-- Node4&#45;&gt;Node5 -->
<g id="edge4_Node000004_Node000005" class="edge">
<title>Node4&#45;&gt;Node5</title>
<g id="a_edge4_Node000004_Node000005"><a xlink:title=" ">
<path fill="none" stroke="#63b8ff" d="M170,-181.37C170,-173.25 170,-160.81 170,-150.39"/>
<polygon fill="#63b8ff" stroke="#63b8ff" points="173.5,-150.17 170,-140.17 166.5,-150.17 173.5,-150.17"/>
</a>
</g>
</g>
<!-- Node5&#45;&gt;Node2 -->
<g id="edge5_Node000005_Node000002" class="edge">
<title>Node5&#45;&gt;Node2</title>
<g id="a_edge5_Node000005_Node000002"><a xlink:title=" ">
<path fill="none" stroke="#63b8ff" d="M159.36,-120.94C134.52,-100.97 72.45,-51.06 40.96,-25.75"/>
<polygon fill="#63b8ff" stroke="#63b8ff" points="42.93,-22.84 32.95,-19.3 38.55,-28.3 42.93,-22.84"/>
</a>
</g>
</g>
<!-- Node6 -->
<g id="Node000006" class="node">
<title>Node6</title>
<g id="a_Node000006"><a xlink:href="../../dd/d00/Logger_8h.html" target="_top" xlink:title="Système de journalisation à 5 niveaux de trace, un fichier par moteur.">
<polygon fill="white" stroke="#666666" points="259.5,-85 148.5,-85 148.5,-55 259.5,-55 259.5,-85"/>
<text text-anchor="start" x="156.5" y="-73" font-family="Helvetica,sans-Serif" font-size="10.00">Engine/Core/Logger</text>
<text text-anchor="middle" x="204" y="-62" font-family="Helvetica,sans-Serif" font-size="10.00">/Logger.h</text>
</a>
</g>
</g>
<!-- Node5&#45;&gt;Node6 -->
<g id="edge6_Node000005_Node000006" class="edge">
<title>Node5&#45;&gt;Node6</title>
<g id="a_edge6_Node000005_Node000006"><a xlink:title=" ">
<path fill="none" stroke="#63b8ff" d="M175.02,-120.87C179.16,-113.74 185.24,-103.28 190.76,-93.79"/>
<polygon fill="#63b8ff" stroke="#63b8ff" points="193.8,-95.52 195.8,-85.11 187.75,-92 193.8,-95.52"/>
</a>
</g>
</g>
<!-- Node6&#45;&gt;Node2 -->
<g id="edge12_Node000006_Node000002" class="edge">
<title>Node6&#45;&gt;Node2</title>
<g id="a_edge12_Node000006_Node000002"><a xlink:title=" ">
<path fill="none" stroke="#63b8ff" d="M160.41,-54.99C127.67,-44.47 83.58,-30.29 54.04,-20.8"/>
<polygon fill="#63b8ff" stroke="#63b8ff" points="54.83,-17.38 44.24,-17.65 52.69,-24.04 54.83,-17.38"/>
</a>
</g>
</g>
<!-- Node7 -->
<g id="Node000007" class="node">
<title>Node7</title>
<g id="a_Node000007"><a xlink:title=" ">
<polygon fill="#e0e0e0" stroke="#999999" points="106,-19 62,-19 62,0 106,0 106,-19"/>
<text text-anchor="middle" x="84" y="-7" font-family="Helvetica,sans-Serif" font-size="10.00">ctime</text>
</a>
</g>
</g>
<!-- Node6&#45;&gt;Node7 -->
<g id="edge7_Node000006_Node000007" class="edge">
<title>Node6&#45;&gt;Node7</title>
<g id="a_edge7_Node000006_Node000007"><a xlink:title=" ">
<path fill="none" stroke="#63b8ff" d="M175.26,-54.99C155.68,-45.45 129.95,-32.9 110.8,-23.57"/>
<polygon fill="#63b8ff" stroke="#63b8ff" points="112.24,-20.38 101.72,-19.14 109.18,-26.67 112.24,-20.38"/>
</a>
</g>
</g>
<!-- Node8 -->
<g id="Node000008" class="node">
<title>Node8</title>
<g id="a_Node000008"><a xlink:title=" ">
<polygon fill="#e0e0e0" stroke="#999999" points="192,-19 124,-19 124,0 192,0 192,-19"/>
<text text-anchor="middle" x="158" y="-7" font-family="Helvetica,sans-Serif" font-size="10.00">filesystem</text>
</a>
</g>
</g>
<!-- Node6&#45;&gt;Node8 -->
<g id="edge8_Node000006_Node000008" class="edge">
<title>Node6&#45;&gt;Node8</title>
<g id="a_edge8_Node000006_Node000008"><a xlink:title=" ">
<path fill="none" stroke="#63b8ff" d="M192.86,-54.84C186.32,-46.52 178.02,-35.96 171.16,-27.23"/>
<polygon fill="#63b8ff" stroke="#63b8ff" points="173.83,-24.96 164.89,-19.27 168.32,-29.29 173.83,-24.96"/>
</a>
</g>
</g>
<!-- Node9 -->
<g id="Node000009" class="node">
<title>Node9</title>
<g id="a_Node000009"><a xlink:title=" ">
<polygon fill="#e0e0e0" stroke="#999999" points="265.5,-19 210.5,-19 210.5,0 265.5,0 265.5,-19"/>
<text text-anchor="middle" x="238" y="-7" font-family="Helvetica,sans-Serif" font-size="10.00">fstream</text>
</a>
</g>
</g>
<!-- Node6&#45;&gt;Node9 -->
<g id="edge9_Node000006_Node000009" class="edge">
<title>Node6&#45;&gt;Node9</title>
<g id="a_edge9_Node000006_Node000009"><a xlink:title=" ">
<path fill="none" stroke="#63b8ff" d="M212.23,-54.84C216.91,-46.78 222.82,-36.62 227.8,-28.06"/>
<polygon fill="#63b8ff" stroke="#63b8ff" points="230.91,-29.67 232.91,-19.27 224.85,-26.15 230.91,-29.67"/>
</a>
</g>
</g>
<!-- Node10 -->
<g id="Node000010" class="node">
<title>Node10</title>
<g id="a_Node000010"><a xlink:title=" ">
<polygon fill="#e0e0e0" stroke="#999999" points="332,-19 284,-19 284,0 332,0 332,-19"/>
<text text-anchor="middle" x="308" y="-7" font-family="Helvetica,sans-Serif" font-size="10.00">mutex</text>
</a>
</g>
</g>
<!-- Node6&#45;&gt;Node10 -->
<g id="edge10_Node000006_Node000010" class="edge">
<title>Node6&#45;&gt;Node10</title>
<g id="a_edge10_Node000006_Node000010"><a xlink:title=" ">
<path fill="none" stroke="#63b8ff" d="M228.91,-54.99C245.49,-45.66 267.16,-33.47 283.63,-24.21"/>
<polygon fill="#63b8ff" stroke="#63b8ff" points="285.64,-27.09 292.64,-19.14 282.21,-20.99 285.64,-27.09"/>
</a>
</g>
</g>
<!-- Node11 -->
<g id="Node000011" class="node">
<title>Node11</title>
<g id="a_Node000011"><a xlink:title=" ">
<polygon fill="#e0e0e0" stroke="#999999" points="406,-19 350,-19 350,0 406,0 406,-19"/>
<text text-anchor="middle" x="378" y="-7" font-family="Helvetica,sans-Serif" font-size="10.00">sstream</text>
</a>
</g>
</g>
<!-- Node6&#45;&gt;Node11 -->
<g id="edge11_Node000006_Node000011" class="edge">
<title>Node6&#45;&gt;Node11</title>
<g id="a_edge11_Node000006_Node000011"><a xlink:title=" ">
<path fill="none" stroke="#63b8ff" d="M245.68,-54.99C275.32,-45.02 314.69,-31.78 342.77,-22.35"/>
<polygon fill="#63b8ff" stroke="#63b8ff" points="344.2,-25.56 352.56,-19.05 341.96,-18.92 344.2,-25.56"/>
</a>
</g>
</g>
<!-- Node12 -->
<g id="Node000012" class="node">
<title>Node12</title>
<g id="a_Node000012"><a xlink:title=" ">
<polygon fill="#e0e0e0" stroke="#999999" points="492,-19 424,-19 424,0 492,0 492,-19"/>
<text text-anchor="middle" x="458" y="-7" font-family="Helvetica,sans-Serif" font-size="10.00">windows.h</text>
</a>
</g>
</g>
<!-- Node6&#45;&gt;Node12 -->
<g id="edge13_Node000006_Node000012" class="edge">
<title>Node6&#45;&gt;Node12</title>
<g id="a_edge13_Node000006_Node000012"><a xlink:title=" ">
<path fill="none" stroke="#63b8ff" d="M259.74,-56.16C306.11,-45.48 371.23,-30.49 414,-20.63"/>
<polygon fill="#63b8ff" stroke="#63b8ff" points="414.87,-24.03 423.83,-18.37 413.3,-17.2 414.87,-24.03"/>
</a>
</g>
</g>
</g>
</svg>
