<?xml version="1.0" encoding="UTF-8" standalone="no"?>
<!DOCTYPE svg PUBLIC "-//W3C//DTD SVG 1.1//EN"
 "http://www.w3.org/Graphics/SVG/1.1/DTD/svg11.dtd">
<!-- Generated by graphviz version 2.43.0 (0)
 -->
<!-- Title: SimulateurFerroviaire/Modules/PCC/PCCStraightNode.cpp Pages: 1 -->
<svg width="745pt" height="412pt"
 viewBox="0.00 0.00 745.00 412.00" xmlns="http://www.w3.org/2000/svg" xmlns:xlink="http://www.w3.org/1999/xlink">
<g id="graph0" class="graph" transform="scale(1 1) rotate(0) translate(4 408)">
<title>SimulateurFerroviaire/Modules/PCC/PCCStraightNode.cpp</title>
<!-- Node1 -->
<g id="Node000001" class="node">
<title>Node1</title>
<g id="a_Node000001"><a xlink:title="Implémentation du nœud PCC pour voie droite.">
<polygon fill="#999999" stroke="#666666" points="548.5,-404 358.5,-404 358.5,-374 548.5,-374 548.5,-404"/>
<text text-anchor="start" x="366.5" y="-392" font-family="Helvetica,sans-Serif" font-size="10.00">SimulateurFerroviaire</text>
<text text-anchor="middle" x="453.5" y="-381" font-family="Helvetica,sans-Serif" font-size="10.00">/Modules/PCC/PCCStraightNode.cpp</text>
</a>
</g>
</g>
<!-- Node2 -->
<g id="Node000002" class="node">
<title>Node2</title>
<g id="a_Node000002"><a xlink:href="../../d2/d03/PCCStraightNode_8h.html" target="_top" xlink:title="Nœud PCC représentant un StraightBlock.">
<polygon fill="white" stroke="#666666" points="456,-338 347,-338 347,-319 456,-319 456,-338"/>
<text text-anchor="middle" x="401.5" y="-326" font-family="Helvetica,sans-Serif" font-size="10.00">PCCStraightNode.h</text>
</a>
</g>
</g>
<!-- Node1&#45;&gt;Node2 -->
<g id="edge1_Node000001_Node000002" class="edge">
<title>Node1&#45;&gt;Node2</title>
<g id="a_edge1_Node000001_Node000002"><a xlink:title=" ">
<path fill="none" stroke="#63b8ff" d="M440.91,-373.84C433.44,-365.43 423.94,-354.74 416.13,-345.96"/>
<polygon fill="#63b8ff" stroke="#63b8ff" points="418.55,-343.41 409.29,-338.27 413.32,-348.07 418.55,-343.41"/>
</a>
</g>
</g>
<!-- Node17 -->
<g id="Node000017" class="node">
<title>Node17</title>
<g id="a_Node000017"><a xlink:title=" ">
<polygon fill="#e0e0e0" stroke="#999999" points="539,-338 474,-338 474,-319 539,-319 539,-338"/>
<text text-anchor="middle" x="506.5" y="-326" font-family="Helvetica,sans-Serif" font-size="10.00">stdexcept</text>
</a>
</g>
</g>
<!-- Node1&#45;&gt;Node17 -->
<g id="edge23_Node000001_Node000017" class="edge">
<title>Node1&#45;&gt;Node17</title>
<g id="a_edge23_Node000001_Node000017"><a xlink:title=" ">
<path fill="none" stroke="#63b8ff" d="M466.33,-373.84C474.02,-365.35 483.83,-354.52 491.83,-345.69"/>
<polygon fill="#63b8ff" stroke="#63b8ff" points="494.44,-348.03 498.56,-338.27 489.25,-343.33 494.44,-348.03"/>
</a>
</g>
</g>
<!-- Node3 -->
<g id="Node000003" class="node">
<title>Node3</title>
<g id="a_Node000003"><a xlink:href="../../d6/d01/PCCNode_8h.html" target="_top" xlink:title="Nœud abstrait du graphe PCC représentant un bloc ferroviaire.">
<polygon fill="white" stroke="#666666" points="364,-277.5 293,-277.5 293,-258.5 364,-258.5 364,-277.5"/>
<text text-anchor="middle" x="328.5" y="-265.5" font-family="Helvetica,sans-Serif" font-size="10.00">PCCNode.h</text>
</a>
</g>
</g>
<!-- Node2&#45;&gt;Node3 -->
<g id="edge2_Node000002_Node000003" class="edge">
<title>Node2&#45;&gt;Node3</title>
<g id="a_edge2_Node000002_Node000003"><a xlink:title=" ">
<path fill="none" stroke="#63b8ff" d="M390.73,-318.87C379.3,-309.71 361.02,-295.06 347.22,-284.01"/>
<polygon fill="#63b8ff" stroke="#63b8ff" points="349.31,-281.19 339.32,-277.67 344.93,-286.65 349.31,-281.19"/>
</a>
</g>
</g>
<!-- Node15 -->
<g id="Node000015" class="node">
<title>Node15</title>
<g id="a_Node000015"><a xlink:href="../../de/d01/StraightBlock_8h.html" target="_top" xlink:title="Modèle de domaine d&#39;un bloc de voie droite (Straight).">
<polygon fill="white" stroke="#666666" points="630,-283 445,-283 445,-253 630,-253 630,-283"/>
<text text-anchor="start" x="453" y="-271" font-family="Helvetica,sans-Serif" font-size="10.00">Modules/InteractiveElements</text>
<text text-anchor="middle" x="537.5" y="-260" font-family="Helvetica,sans-Serif" font-size="10.00">/ShuntingElements/StraightBlock.h</text>
</a>
</g>
</g>
<!-- Node2&#45;&gt;Node15 -->
<g id="edge18_Node000002_Node000015" class="edge">
<title>Node2&#45;&gt;Node15</title>
<g id="a_edge18_Node000002_Node000015"><a xlink:title=" ">
<path fill="none" stroke="#63b8ff" d="M421.28,-318.99C440.59,-310.68 470.6,-297.78 495.29,-287.16"/>
<polygon fill="#63b8ff" stroke="#63b8ff" points="497,-290.23 504.8,-283.06 494.23,-283.8 497,-290.23"/>
</a>
</g>
</g>
<!-- Node4 -->
<g id="Node000004" class="node">
<title>Node4</title>
<g id="a_Node000004"><a xlink:title=" ">
<polygon fill="#e0e0e0" stroke="#999999" points="405.5,-19 361.5,-19 361.5,0 405.5,0 405.5,-19"/>
<text text-anchor="middle" x="383.5" y="-7" font-family="Helvetica,sans-Serif" font-size="10.00">string</text>
</a>
</g>
</g>
<!-- Node3&#45;&gt;Node4 -->
<g id="edge3_Node000003_Node000004" class="edge">
<title>Node3&#45;&gt;Node4</title>
<g id="a_edge3_Node000003_Node000004"><a xlink:title=" ">
<path fill="none" stroke="#63b8ff" d="M317.33,-258.48C306.59,-249.51 291.03,-234.31 284.5,-217 276.05,-194.61 293.52,-125.46 295.5,-121 312.58,-82.63 346.19,-46.14 366.57,-26.19"/>
<polygon fill="#63b8ff" stroke="#63b8ff" points="369.12,-28.6 373.92,-19.16 364.28,-23.55 369.12,-28.6"/>
</a>
</g>
</g>
<!-- Node5 -->
<g id="Node000005" class="node">
<title>Node5</title>
<g id="a_Node000005"><a xlink:title=" ">
<polygon fill="#e0e0e0" stroke="#999999" points="561,-211.5 514,-211.5 514,-192.5 561,-192.5 561,-211.5"/>
<text text-anchor="middle" x="537.5" y="-199.5" font-family="Helvetica,sans-Serif" font-size="10.00">vector</text>
</a>
</g>
</g>
<!-- Node3&#45;&gt;Node5 -->
<g id="edge4_Node000003_Node000005" class="edge">
<title>Node3&#45;&gt;Node5</title>
<g id="a_edge4_Node000003_Node000005"><a xlink:title=" ">
<path fill="none" stroke="#63b8ff" d="M363.3,-258.48C399.09,-249.4 456.27,-234.01 504.5,-217 505.93,-216.5 507.39,-215.96 508.85,-215.4"/>
<polygon fill="#63b8ff" stroke="#63b8ff" points="510.48,-218.52 518.46,-211.55 507.88,-212.02 510.48,-218.52"/>
</a>
</g>
</g>
<!-- Node6 -->
<g id="Node000006" class="node">
<title>Node6</title>
<g id="a_Node000006"><a xlink:href="../../d1/d02/PCCEdge_8h.html" target="_top" xlink:title="Connexion orientée entre deux nœuds du graphe PCC.">
<polygon fill="white" stroke="#666666" points="198,-145.5 129,-145.5 129,-126.5 198,-126.5 198,-145.5"/>
<text text-anchor="middle" x="163.5" y="-133.5" font-family="Helvetica,sans-Serif" font-size="10.00">PCCEdge.h</text>
</a>
</g>
</g>
<!-- Node3&#45;&gt;Node6 -->
<g id="edge5_Node000003_Node000006" class="edge">
<title>Node3&#45;&gt;Node6</title>
<g id="a_edge5_Node000003_Node000006"><a xlink:title=" ">
<path fill="none" stroke="#63b8ff" d="M294.76,-258.46C269.85,-250.83 236.28,-237.61 212.5,-217 192.75,-199.88 178.5,-172.78 170.62,-154.95"/>
<polygon fill="#63b8ff" stroke="#63b8ff" points="173.82,-153.53 166.73,-145.66 167.37,-156.24 173.82,-153.53"/>
</a>
</g>
</g>
<!-- Node7 -->
<g id="Node000007" class="node">
<title>Node7</title>
<g id="a_Node000007"><a xlink:href="../../dd/d00/Logger_8h.html" target="_top" xlink:title="Système de journalisation à 5 niveaux de trace, un fichier par moteur.">
<polygon fill="white" stroke="#666666" points="236,-85 125,-85 125,-55 236,-55 236,-85"/>
<text text-anchor="start" x="133" y="-73" font-family="Helvetica,sans-Serif" font-size="10.00">Engine/Core/Logger</text>
<text text-anchor="middle" x="180.5" y="-62" font-family="Helvetica,sans-Serif" font-size="10.00">/Logger.h</text>
</a>
</g>
</g>
<!-- Node3&#45;&gt;Node7 -->
<g id="edge17_Node000003_Node000007" class="edge">
<title>Node3&#45;&gt;Node7</title>
<g id="a_edge17_Node000003_Node000007"><a xlink:title=" ">
<path fill="none" stroke="#63b8ff" d="M308.96,-258.42C291.67,-250 266.75,-235.7 250.5,-217 219.72,-181.57 227.11,-163.17 206.5,-121 202.19,-112.19 197.27,-102.61 192.88,-94.21"/>
<polygon fill="#63b8ff" stroke="#63b8ff" points="195.96,-92.56 188.2,-85.34 189.77,-95.82 195.96,-92.56"/>
</a>
</g>
</g>
<!-- Node13 -->
<g id="Node000013" class="node">
<title>Node13</title>
<g id="a_Node000013"><a xlink:href="../../df/d02/ShuntingElement_8h.html" target="_top" xlink:title="Interface abstraite pour tous les éléments de shuntage ferroviaire.">
<polygon fill="white" stroke="#666666" points="496,-217 293,-217 293,-187 496,-187 496,-217"/>
<text text-anchor="start" x="301" y="-205" font-family="Helvetica,sans-Serif" font-size="10.00">Modules/InteractiveElements</text>
<text text-anchor="middle" x="394.5" y="-194" font-family="Helvetica,sans-Serif" font-size="10.00">/ShuntingElements/ShuntingElement.h</text>
</a>
</g>
</g>
<!-- Node3&#45;&gt;Node13 -->
<g id="edge13_Node000003_Node000013" class="edge">
<title>Node3&#45;&gt;Node13</title>
<g id="a_edge13_Node000003_Node000013"><a xlink:title=" ">
<path fill="none" stroke="#63b8ff" d="M337.4,-258.37C346.35,-249.69 360.49,-235.98 372.47,-224.37"/>
<polygon fill="#63b8ff" stroke="#63b8ff" points="375.2,-226.59 379.94,-217.12 370.33,-221.56 375.2,-226.59"/>
</a>
</g>
</g>
<!-- Node6&#45;&gt;Node7 -->
<g id="edge6_Node000006_Node000007" class="edge">
<title>Node6&#45;&gt;Node7</title>
<g id="a_edge6_Node000006_Node000007"><a xlink:title=" ">
<path fill="none" stroke="#63b8ff" d="M165.79,-126.37C167.91,-118.4 171.15,-106.2 174.05,-95.27"/>
<polygon fill="#63b8ff" stroke="#63b8ff" points="177.5,-95.92 176.69,-85.36 170.74,-94.13 177.5,-95.92"/>
</a>
</g>
</g>
<!-- Node7&#45;&gt;Node4 -->
<g id="edge12_Node000007_Node000004" class="edge">
<title>Node7&#45;&gt;Node4</title>
<g id="a_edge12_Node000007_Node000004"><a xlink:title=" ">
<path fill="none" stroke="#63b8ff" d="M229.12,-54.99C267.01,-44.07 318.55,-29.22 351.42,-19.74"/>
<polygon fill="#63b8ff" stroke="#63b8ff" points="352.76,-23 361.4,-16.87 350.82,-16.27 352.76,-23"/>
</a>
</g>
</g>
<!-- Node8 -->
<g id="Node000008" class="node">
<title>Node8</title>
<g id="a_Node000008"><a xlink:title=" ">
<polygon fill="#e0e0e0" stroke="#999999" points="257.5,-19 213.5,-19 213.5,0 257.5,0 257.5,-19"/>
<text text-anchor="middle" x="235.5" y="-7" font-family="Helvetica,sans-Serif" font-size="10.00">ctime</text>
</a>
</g>
</g>
<!-- Node7&#45;&gt;Node8 -->
<g id="edge7_Node000007_Node000008" class="edge">
<title>Node7&#45;&gt;Node8</title>
<g id="a_edge7_Node000007_Node000008"><a xlink:title=" ">
<path fill="none" stroke="#63b8ff" d="M193.81,-54.84C201.8,-46.35 211.98,-35.52 220.28,-26.69"/>
<polygon fill="#63b8ff" stroke="#63b8ff" points="222.96,-28.95 227.26,-19.27 217.86,-24.15 222.96,-28.95"/>
</a>
</g>
</g>
<!-- Node9 -->
<g id="Node000009" class="node">
<title>Node9</title>
<g id="a_Node000009"><a xlink:title=" ">
<polygon fill="#e0e0e0" stroke="#999999" points="343.5,-19 275.5,-19 275.5,0 343.5,0 343.5,-19"/>
<text text-anchor="middle" x="309.5" y="-7" font-family="Helvetica,sans-Serif" font-size="10.00">filesystem</text>
</a>
</g>
</g>
<!-- Node7&#45;&gt;Node9 -->
<g id="edge8_Node000007_Node000009" class="edge">
<title>Node7&#45;&gt;Node9</title>
<g id="a_edge8_Node000007_Node000009"><a xlink:title=" ">
<path fill="none" stroke="#63b8ff" d="M211.4,-54.99C232.63,-45.36 260.61,-32.67 281.25,-23.31"/>
<polygon fill="#63b8ff" stroke="#63b8ff" points="282.79,-26.46 290.45,-19.14 279.9,-20.08 282.79,-26.46"/>
</a>
</g>
</g>
<!-- Node10 -->
<g id="Node000010" class="node">
<title>Node10</title>
<g id="a_Node000010"><a xlink:title=" ">
<polygon fill="#e0e0e0" stroke="#999999" points="55,-19 0,-19 0,0 55,0 55,-19"/>
<text text-anchor="middle" x="27.5" y="-7" font-family="Helvetica,sans-Serif" font-size="10.00">fstream</text>
</a>
</g>
</g>
<!-- Node7&#45;&gt;Node10 -->
<g id="edge9_Node000007_Node000010" class="edge">
<title>Node7&#45;&gt;Node10</title>
<g id="a_edge9_Node000007_Node000010"><a xlink:title=" ">
<path fill="none" stroke="#63b8ff" d="M143.85,-54.99C118.21,-45.18 84.28,-32.21 59.68,-22.81"/>
<polygon fill="#63b8ff" stroke="#63b8ff" points="60.69,-19.44 50.09,-19.14 58.19,-25.98 60.69,-19.44"/>
</a>
</g>
</g>
<!-- Node11 -->
<g id="Node000011" class="node">
<title>Node11</title>
<g id="a_Node000011"><a xlink:title=" ">
<polygon fill="#e0e0e0" stroke="#999999" points="121.5,-19 73.5,-19 73.5,0 121.5,0 121.5,-19"/>
<text text-anchor="middle" x="97.5" y="-7" font-family="Helvetica,sans-Serif" font-size="10.00">mutex</text>
</a>
</g>
</g>
<!-- Node7&#45;&gt;Node11 -->
<g id="edge10_Node000007_Node000011" class="edge">
<title>Node7&#45;&gt;Node11</title>
<g id="a_edge10_Node000007_Node000011"><a xlink:title=" ">
<path fill="none" stroke="#63b8ff" d="M160.41,-54.84C147.62,-45.83 131.1,-34.18 118.2,-25.09"/>
<polygon fill="#63b8ff" stroke="#63b8ff" points="120.13,-22.17 109.94,-19.27 116.09,-27.89 120.13,-22.17"/>
</a>
</g>
</g>
<!-- Node12 -->
<g id="Node000012" class="node">
<title>Node12</title>
<g id="a_Node000012"><a xlink:title=" ">
<polygon fill="#e0e0e0" stroke="#999999" points="195.5,-19 139.5,-19 139.5,0 195.5,0 195.5,-19"/>
<text text-anchor="middle" x="167.5" y="-7" font-family="Helvetica,sans-Serif" font-size="10.00">sstream</text>
</a>
</g>
</g>
<!-- Node7&#45;&gt;Node12 -->
<g id="edge11_Node000007_Node000012" class="edge">
<title>Node7&#45;&gt;Node12</title>
<g id="a_edge11_Node000007_Node000012"><a xlink:title=" ">
<path fill="none" stroke="#63b8ff" d="M177.35,-54.84C175.64,-47.13 173.5,-37.49 171.65,-29.17"/>
<polygon fill="#63b8ff" stroke="#63b8ff" points="175.03,-28.27 169.45,-19.27 168.2,-29.79 175.03,-28.27"/>
</a>
</g>
</g>
<!-- Node14 -->
<g id="Node000014" class="node">
<title>Node14</title>
<g id="a_Node000014"><a xlink:href="../../d6/d02/InteractiveElement_8h.html" target="_top" xlink:title="Classe de base abstraite pour tous les éléments interactifs ferroviaires.">
<polygon fill="white" stroke="#666666" points="463,-151 304,-151 304,-121 463,-121 463,-151"/>
<text text-anchor="start" x="312" y="-139" font-family="Helvetica,sans-Serif" font-size="10.00">Modules/InteractiveElements</text>
<text text-anchor="middle" x="383.5" y="-128" font-family="Helvetica,sans-Serif" font-size="10.00">/InteractiveElement.h</text>
</a>
</g>
</g>
<!-- Node13&#45;&gt;Node14 -->
<g id="edge14_Node000013_Node000014" class="edge">
<title>Node13&#45;&gt;Node14</title>
<g id="a_edge14_Node000013_Node000014"><a xlink:title=" ">
<path fill="none" stroke="#63b8ff" d="M392.06,-186.8C390.76,-179.26 389.13,-169.78 387.65,-161.13"/>
<polygon fill="#63b8ff" stroke="#63b8ff" points="391.08,-160.43 385.93,-151.16 384.18,-161.61 391.08,-160.43"/>
</a>
</g>
</g>
<!-- Node14&#45;&gt;Node4 -->
<g id="edge15_Node000014_Node000004" class="edge">
<title>Node14&#45;&gt;Node4</title>
<g id="a_edge15_Node000014_Node000004"><a xlink:title=" ">
<path fill="none" stroke="#63b8ff" d="M383.5,-120.72C383.5,-98.12 383.5,-54.12 383.5,-29.09"/>
<polygon fill="#63b8ff" stroke="#63b8ff" points="387,-29.07 383.5,-19.07 380,-29.07 387,-29.07"/>
</a>
</g>
</g>
<!-- Node14&#45;&gt;Node7 -->
<g id="edge16_Node000014_Node000007" class="edge">
<title>Node14&#45;&gt;Node7</title>
<g id="a_edge16_Node000014_Node000007"><a xlink:title=" ">
<path fill="none" stroke="#63b8ff" d="M338.95,-120.95C308.28,-111.28 267.34,-98.38 234.77,-88.11"/>
<polygon fill="#63b8ff" stroke="#63b8ff" points="235.53,-84.68 224.95,-85.01 233.43,-91.36 235.53,-84.68"/>
</a>
</g>
</g>
<!-- Node15&#45;&gt;Node4 -->
<g id="edge19_Node000015_Node000004" class="edge">
<title>Node15&#45;&gt;Node4</title>
<g id="a_edge19_Node000015_Node000004"><a xlink:title=" ">
<path fill="none" stroke="#63b8ff" d="M550.53,-252.78C563.57,-236.74 580.38,-209.9 570.5,-187 536.97,-109.25 450.49,-49.83 407.91,-24.25"/>
<polygon fill="#63b8ff" stroke="#63b8ff" points="409.44,-21.09 399.05,-19.04 405.89,-27.13 409.44,-21.09"/>
</a>
</g>
</g>
<!-- Node15&#45;&gt;Node5 -->
<g id="edge20_Node000015_Node000005" class="edge">
<title>Node15&#45;&gt;Node5</title>
<g id="a_edge20_Node000015_Node000005"><a xlink:title=" ">
<path fill="none" stroke="#63b8ff" d="M537.5,-252.8C537.5,-243.7 537.5,-231.79 537.5,-221.9"/>
<polygon fill="#63b8ff" stroke="#63b8ff" points="541,-221.84 537.5,-211.84 534,-221.84 541,-221.84"/>
</a>
</g>
</g>
<!-- Node15&#45;&gt;Node13 -->
<g id="edge21_Node000015_Node000013" class="edge">
<title>Node15&#45;&gt;Node13</title>
<g id="a_edge21_Node000015_Node000013"><a xlink:title=" ">
<path fill="none" stroke="#63b8ff" d="M506.12,-252.95C485.26,-243.62 457.66,-231.27 435.12,-221.18"/>
<polygon fill="#63b8ff" stroke="#63b8ff" points="436.37,-217.9 425.81,-217.01 433.51,-224.29 436.37,-217.9"/>
</a>
</g>
</g>
<!-- Node16 -->
<g id="Node000016" class="node">
<title>Node16</title>
<g id="a_Node000016"><a xlink:href="../../df/d02/LatLon_8h.html" target="_top" xlink:title="Représentation d&#39;une coordonnée géographique WGS&#45;84 (latitude, longitude).">
<polygon fill="white" stroke="#666666" points="737,-217 618,-217 618,-187 737,-187 737,-217"/>
<text text-anchor="start" x="626" y="-205" font-family="Helvetica,sans-Serif" font-size="10.00">Modules/Coordinates</text>
<text text-anchor="middle" x="677.5" y="-194" font-family="Helvetica,sans-Serif" font-size="10.00">/LatLon.h</text>
</a>
</g>
</g>
<!-- Node15&#45;&gt;Node16 -->
<g id="edge22_Node000015_Node000016" class="edge">
<title>Node15&#45;&gt;Node16</title>
<g id="a_edge22_Node000015_Node000016"><a xlink:title=" ">
<path fill="none" stroke="#63b8ff" d="M568.22,-252.95C588.65,-243.62 615.67,-231.27 637.73,-221.18"/>
<polygon fill="#63b8ff" stroke="#63b8ff" points="639.21,-224.35 646.85,-217.01 636.3,-217.99 639.21,-224.35"/>
</a>
</g>
</g>
</g>
</svg>
