<?xml version="1.0" encoding="UTF-8" standalone="no"?>
<!DOCTYPE svg PUBLIC "-//W3C//DTD SVG 1.1//EN"
 "http://www.w3.org/Graphics/SVG/1.1/DTD/svg11.dtd">
<!-- Generated by graphviz version 2.43.0 (0)
 -->
<!-- Title: TCORenderer::Projection Pages: 1 -->
<svg width="137pt" height="192pt"
 viewBox="0.00 0.00 137.00 192.00" xmlns="http://www.w3.org/2000/svg" xmlns:xlink="http://www.w3.org/1999/xlink">
<g id="graph0" class="graph" transform="scale(1 1) rotate(0) translate(4 188)">
<title>TCORenderer::Projection</title>
<!-- Node1 -->
<g id="Node000001" class="node">
<title>Node1</title>
<g id="a_Node000001"><a xlink:title=" ">
<polygon fill="#999999" stroke="transparent" points="129,-184 0,-184 0,0 129,0 129,-184"/>
<text text-anchor="start" x="5.5" y="-172" font-family="Helvetica,sans-Serif" font-size="10.00">TCORenderer::Projection</text>
<text text-anchor="start" x="19" y="-157" font-family="Helvetica,sans-Serif" font-size="10.00">+</text>
<text text-anchor="start" x="46.5" y="-157" font-family="Helvetica,sans-Serif" font-size="10.00">minX</text>
<text text-anchor="start" x="19" y="-142" font-family="Helvetica,sans-Serif" font-size="10.00">+</text>
<text text-anchor="start" x="46.5" y="-142" font-family="Helvetica,sans-Serif" font-size="10.00">maxX</text>
<text text-anchor="start" x="19" y="-127" font-family="Helvetica,sans-Serif" font-size="10.00">+</text>
<text text-anchor="start" x="46.5" y="-127" font-family="Helvetica,sans-Serif" font-size="10.00">minY</text>
<text text-anchor="start" x="19" y="-112" font-family="Helvetica,sans-Serif" font-size="10.00">+</text>
<text text-anchor="start" x="46.5" y="-112" font-family="Helvetica,sans-Serif" font-size="10.00">maxY</text>
<text text-anchor="start" x="19" y="-97" font-family="Helvetica,sans-Serif" font-size="10.00">+</text>
<text text-anchor="start" x="46.5" y="-97" font-family="Helvetica,sans-Serif" font-size="10.00">width</text>
<text text-anchor="start" x="19" y="-82" font-family="Helvetica,sans-Serif" font-size="10.00">+</text>
<text text-anchor="start" x="46.5" y="-82" font-family="Helvetica,sans-Serif" font-size="10.00">height</text>
<text text-anchor="start" x="19" y="-67" font-family="Helvetica,sans-Serif" font-size="10.00">+</text>
<text text-anchor="start" x="46.5" y="-67" font-family="Helvetica,sans-Serif" font-size="10.00">cellWidth</text>
<text text-anchor="start" x="19" y="-52" font-family="Helvetica,sans-Serif" font-size="10.00">+</text>
<text text-anchor="start" x="46.5" y="-52" font-family="Helvetica,sans-Serif" font-size="10.00">cellHeight</text>
<text text-anchor="start" x="19" y="-37" font-family="Helvetica,sans-Serif" font-size="10.00">+</text>
<text text-anchor="start" x="46.5" y="-37" font-family="Helvetica,sans-Serif" font-size="10.00">marginX</text>
<text text-anchor="start" x="19" y="-22" font-family="Helvetica,sans-Serif" font-size="10.00">+</text>
<text text-anchor="start" x="46.5" y="-22" font-family="Helvetica,sans-Serif" font-size="10.00">centerY</text>
<text text-anchor="start" x="63" y="-7" font-family="Helvetica,sans-Serif" font-size="10.00"> </text>
<polygon fill="#666666" stroke="#666666" points="0.5,-167 0.5,-167 129.5,-167 129.5,-167 0.5,-167"/>
<polygon fill="#666666" stroke="#666666" points="0.5,-17 0.5,-17 44.5,-17 44.5,-17 0.5,-17"/>
<polygon fill="#666666" stroke="#666666" points="44.5,-17 44.5,-17 129.5,-17 129.5,-17 44.5,-17"/>
<polygon fill="none" stroke="#666666" points="0,0 0,-184 129,-184 129,0 0,0"/>
</a>
</g>
</g>
</g>
</svg>
