<?xml version="1.0" encoding="UTF-8" standalone="no"?>
<!DOCTYPE svg PUBLIC "-//W3C//DTD SVG 1.1//EN"
 "http://www.w3.org/Graphics/SVG/1.1/DTD/svg11.dtd">
<!-- Generated by graphviz version 2.43.0 (0)
 -->
<!-- Title: GeoParsingTask Pages: 1 -->
<svg width="428pt" height="855pt"
 viewBox="0.00 0.00 427.50 855.00" xmlns="http://www.w3.org/2000/svg" xmlns:xlink="http://www.w3.org/1999/xlink">
<g id="graph0" class="graph" transform="scale(1 1) rotate(0) translate(4 851)">
<title>GeoParsingTask</title>
<!-- Node1 -->
<g id="Node000001" class="node">
<title>Node1</title>
<g id="a_Node000001"><a xlink:title=" ">
<polygon fill="#999999" stroke="transparent" points="318,-94 212,-94 212,0 318,0 318,-94"/>
<text text-anchor="start" x="226.5" y="-82" font-family="Helvetica,sans-Serif" font-size="10.00">GeoParsingTask</text>
<text text-anchor="start" x="218.5" y="-67" font-family="Helvetica,sans-Serif" font-size="10.00">&#45;</text>
<text text-anchor="start" x="229" y="-67" font-family="Helvetica,sans-Serif" font-size="10.00">m_hwndTarget</text>
<text text-anchor="start" x="216" y="-52" font-family="Helvetica,sans-Serif" font-size="10.00">+</text>
<text text-anchor="start" x="229" y="-52" font-family="Helvetica,sans-Serif" font-size="10.00">GeoParsingTask()</text>
<text text-anchor="start" x="216" y="-37" font-family="Helvetica,sans-Serif" font-size="10.00">+</text>
<text text-anchor="start" x="229" y="-37" font-family="Helvetica,sans-Serif" font-size="10.00">start()</text>
<text text-anchor="start" x="216" y="-22" font-family="Helvetica,sans-Serif" font-size="10.00">+</text>
<text text-anchor="start" x="229" y="-22" font-family="Helvetica,sans-Serif" font-size="10.00">cancel()</text>
<text text-anchor="start" x="216" y="-7" font-family="Helvetica,sans-Serif" font-size="10.00">+</text>
<text text-anchor="start" x="229" y="-7" font-family="Helvetica,sans-Serif" font-size="10.00">isCancelling()</text>
<polygon fill="#666666" stroke="#666666" points="212,-77 212,-77 318,-77 318,-77 212,-77"/>
<polygon fill="#666666" stroke="#666666" points="212,-62 212,-62 227,-62 227,-62 212,-62"/>
<polygon fill="#666666" stroke="#666666" points="227,-62 227,-62 318,-62 318,-62 227,-62"/>
<polygon fill="none" stroke="#666666" points="212,0 212,-94 318,-94 318,0 212,0"/>
</a>
</g>
</g>
<!-- Node2 -->
<g id="Node000002" class="node">
<title>Node2</title>
<g id="a_Node000002"><a xlink:href="../../db/d03/classLogger.html" target="_top" xlink:title="Journaliseur associé à un moteur nommé.">
<polygon fill="white" stroke="transparent" points="263,-385 127,-385 127,-141 263,-141 263,-385"/>
<text text-anchor="start" x="178" y="-373" font-family="Helvetica,sans-Serif" font-size="10.00">Logger</text>
<text text-anchor="start" x="133.5" y="-358" font-family="Helvetica,sans-Serif" font-size="10.00">&#45;</text>
<text text-anchor="start" x="144" y="-358" font-family="Helvetica,sans-Serif" font-size="10.00">m_minimumLevel</text>
<text text-anchor="start" x="131" y="-343" font-family="Helvetica,sans-Serif" font-size="10.00">+</text>
<text text-anchor="start" x="144" y="-343" font-family="Helvetica,sans-Serif" font-size="10.00">Logger()</text>
<text text-anchor="start" x="131" y="-328" font-family="Helvetica,sans-Serif" font-size="10.00">+</text>
<text text-anchor="start" x="144" y="-328" font-family="Helvetica,sans-Serif" font-size="10.00">~Logger()</text>
<text text-anchor="start" x="131" y="-313" font-family="Helvetica,sans-Serif" font-size="10.00">+</text>
<text text-anchor="start" x="144" y="-313" font-family="Helvetica,sans-Serif" font-size="10.00">Logger()</text>
<text text-anchor="start" x="131" y="-298" font-family="Helvetica,sans-Serif" font-size="10.00">+</text>
<text text-anchor="start" x="144" y="-298" font-family="Helvetica,sans-Serif" font-size="10.00">operator=()</text>
<text text-anchor="start" x="131" y="-283" font-family="Helvetica,sans-Serif" font-size="10.00">+</text>
<text text-anchor="start" x="144" y="-283" font-family="Helvetica,sans-Serif" font-size="10.00">writeLog()</text>
<text text-anchor="start" x="131" y="-268" font-family="Helvetica,sans-Serif" font-size="10.00">+</text>
<text text-anchor="start" x="144" y="-268" font-family="Helvetica,sans-Serif" font-size="10.00">setMinimumLogLevel()</text>
<text text-anchor="start" x="131" y="-253" font-family="Helvetica,sans-Serif" font-size="10.00">+</text>
<text text-anchor="start" x="144" y="-253" font-family="Helvetica,sans-Serif" font-size="10.00">getMotorName()</text>
<text text-anchor="start" x="131" y="-238" font-family="Helvetica,sans-Serif" font-size="10.00">+</text>
<text text-anchor="start" x="144" y="-238" font-family="Helvetica,sans-Serif" font-size="10.00">triggerFatalCrash()</text>
<text text-anchor="start" x="133.5" y="-223" font-family="Helvetica,sans-Serif" font-size="10.00">&#45;</text>
<text text-anchor="start" x="144" y="-223" font-family="Helvetica,sans-Serif" font-size="10.00">extractClassName()</text>
<text text-anchor="start" x="133.5" y="-208" font-family="Helvetica,sans-Serif" font-size="10.00">&#45;</text>
<text text-anchor="start" x="144" y="-208" font-family="Helvetica,sans-Serif" font-size="10.00">extractFunctionName()</text>
<text text-anchor="start" x="133.5" y="-193" font-family="Helvetica,sans-Serif" font-size="10.00">&#45;</text>
<text text-anchor="start" x="144" y="-193" font-family="Helvetica,sans-Serif" font-size="10.00">formatLogLine()</text>
<text text-anchor="start" x="133.5" y="-178" font-family="Helvetica,sans-Serif" font-size="10.00">&#45;</text>
<text text-anchor="start" x="144" y="-178" font-family="Helvetica,sans-Serif" font-size="10.00">levelToString()</text>
<text text-anchor="start" x="133.5" y="-163" font-family="Helvetica,sans-Serif" font-size="10.00">&#45;</text>
<text text-anchor="start" x="144" y="-163" font-family="Helvetica,sans-Serif" font-size="10.00">getCurrentTimestamp()</text>
<text text-anchor="start" x="133.5" y="-148" font-family="Helvetica,sans-Serif" font-size="10.00">&#45;</text>
<text text-anchor="start" x="144" y="-148" font-family="Helvetica,sans-Serif" font-size="10.00">sendToDebugOutput()</text>
<polygon fill="#666666" stroke="#666666" points="127,-368 127,-368 263,-368 263,-368 127,-368"/>
<polygon fill="#666666" stroke="#666666" points="127,-353 127,-353 142,-353 142,-353 127,-353"/>
<polygon fill="#666666" stroke="#666666" points="142,-353 142,-353 263,-353 263,-353 142,-353"/>
<polygon fill="none" stroke="#666666" points="127,-141 127,-385 263,-385 263,-141 127,-141"/>
</a>
</g>
</g>
<!-- Node2&#45;&gt;Node1 -->
<g id="edge1_Node000001_Node000002" class="edge">
<title>Node2&#45;&gt;Node1</title>
<g id="a_edge1_Node000001_Node000002"><a xlink:title=" ">
<path fill="none" stroke="#63b8ff" d="M234.6,-140.93C238.6,-128.71 242.52,-116.73 246.14,-105.66"/>
<polygon fill="none" stroke="#63b8ff" points="246.21,-105.44 244.28,-98.49 249.94,-94.03 251.88,-100.98 246.21,-105.44"/>
</a>
</g>
<text text-anchor="middle" x="268.5" y="-115" font-family="Helvetica,sans-Serif" font-size="10.00" fill="grey"> &#45;m_logger</text>
</g>
<!-- Node3 -->
<g id="Node000003" class="node">
<title>Node3</title>
<g id="a_Node000003"><a xlink:title=" ">
<polygon fill="white" stroke="transparent" points="82.5,-481 23.5,-481 23.5,-432 82.5,-432 82.5,-481"/>
<text text-anchor="start" x="29" y="-468.5" font-family="Helvetica,sans-Serif" font-size="10.00">std::string</text>
<text text-anchor="start" x="51.5" y="-453.5" font-family="Helvetica,sans-Serif" font-size="10.00"> </text>
<text text-anchor="start" x="51.5" y="-438.5" font-family="Helvetica,sans-Serif" font-size="10.00"> </text>
<polygon fill="#666666" stroke="#666666" points="24,-463.5 24,-463.5 83,-463.5 83,-463.5 24,-463.5"/>
<polygon fill="#666666" stroke="#666666" points="24,-448.5 24,-448.5 83,-448.5 83,-448.5 24,-448.5"/>
<polygon fill="none" stroke="#666666" points="23.5,-432 23.5,-481 82.5,-481 82.5,-432 23.5,-432"/>
</a>
</g>
</g>
<!-- Node3&#45;&gt;Node2 -->
<g id="edge2_Node000002_Node000003" class="edge">
<title>Node3&#45;&gt;Node2</title>
<g id="a_edge2_Node000002_Node000003"><a xlink:title=" ">
<path fill="none" stroke="#63b8ff" d="M65.52,-431.75C70.63,-422.57 76.79,-412.11 83,-403 94.06,-386.78 106.51,-370.08 118.98,-354.12"/>
<polygon fill="none" stroke="#63b8ff" points="119.3,-353.72 119.88,-346.53 126.73,-344.3 126.16,-351.48 119.3,-353.72"/>
</a>
</g>
<text text-anchor="middle" x="123.5" y="-406" font-family="Helvetica,sans-Serif" font-size="10.00" fill="grey"> &#45;m_motorName</text>
</g>
<!-- Node4 -->
<g id="Node000004" class="node">
<title>Node4</title>
<g id="a_Node000004"><a xlink:title=" ">
<polygon fill="white" stroke="transparent" points="98,-578 0,-578 0,-518 98,-518 98,-578"/>
<text text-anchor="start" x="5" y="-566" font-family="Helvetica,sans-Serif" font-size="10.00">std::basic_string&lt;</text>
<text text-anchor="start" x="30.5" y="-555" font-family="Helvetica,sans-Serif" font-size="10.00"> Char &gt;</text>
<text text-anchor="start" x="47" y="-540" font-family="Helvetica,sans-Serif" font-size="10.00"> </text>
<text text-anchor="start" x="47" y="-525" font-family="Helvetica,sans-Serif" font-size="10.00"> </text>
<polygon fill="#666666" stroke="#666666" points="0,-550 0,-550 98,-550 98,-550 0,-550"/>
<polygon fill="#666666" stroke="#666666" points="0,-535 0,-535 98,-535 98,-535 0,-535"/>
<polygon fill="none" stroke="#666666" points="0,-518 0,-578 98,-578 98,-518 0,-518"/>
</a>
</g>
</g>
<!-- Node4&#45;&gt;Node3 -->
<g id="edge3_Node000003_Node000004" class="edge">
<title>Node4&#45;&gt;Node3</title>
<g id="a_edge3_Node000003_Node000004"><a xlink:title=" ">
<path fill="none" stroke="#63b8ff" d="M50.76,-507.7C51.16,-498.67 51.58,-489.34 51.94,-481.21"/>
<polygon fill="none" stroke="#63b8ff" points="47.26,-507.55 50.31,-517.69 54.25,-507.86 47.26,-507.55"/>
</a>
</g>
</g>
<!-- Node5 -->
<g id="Node000005" class="node">
<title>Node5</title>
<g id="a_Node000005"><a xlink:title=" ">
<polygon fill="white" stroke="transparent" points="206,-481 130,-481 130,-432 206,-432 206,-481"/>
<text text-anchor="start" x="135" y="-468.5" font-family="Helvetica,sans-Serif" font-size="10.00">std::ofstream</text>
<text text-anchor="start" x="166" y="-453.5" font-family="Helvetica,sans-Serif" font-size="10.00"> </text>
<text text-anchor="start" x="166" y="-438.5" font-family="Helvetica,sans-Serif" font-size="10.00"> </text>
<polygon fill="#666666" stroke="#666666" points="130,-463.5 130,-463.5 206,-463.5 206,-463.5 130,-463.5"/>
<polygon fill="#666666" stroke="#666666" points="130,-448.5 130,-448.5 206,-448.5 206,-448.5 130,-448.5"/>
<polygon fill="none" stroke="#666666" points="130,-432 130,-481 206,-481 206,-432 130,-432"/>
</a>
</g>
</g>
<!-- Node5&#45;&gt;Node2 -->
<g id="edge4_Node000002_Node000005" class="edge">
<title>Node5&#45;&gt;Node2</title>
<g id="a_edge4_Node000002_Node000005"><a xlink:title=" ">
<path fill="none" stroke="#63b8ff" d="M167.04,-431.93C166.92,-422.87 167.09,-412.44 168,-403 168.19,-401.07 168.38,-399.13 168.6,-397.18"/>
<polygon fill="none" stroke="#63b8ff" points="168.62,-397.01 165.37,-390.57 170.06,-385.09 173.31,-391.53 168.62,-397.01"/>
</a>
</g>
<text text-anchor="middle" x="203.5" y="-406" font-family="Helvetica,sans-Serif" font-size="10.00" fill="grey"> &#45;m_outputFile</text>
</g>
<!-- Node6 -->
<g id="Node000006" class="node">
<title>Node6</title>
<g id="a_Node000006"><a xlink:title=" ">
<polygon fill="white" stroke="transparent" points="223.5,-578 116.5,-578 116.5,-518 223.5,-518 223.5,-578"/>
<text text-anchor="start" x="122" y="-566" font-family="Helvetica,sans-Serif" font-size="10.00">std::basic_ofstream</text>
<text text-anchor="start" x="147.5" y="-555" font-family="Helvetica,sans-Serif" font-size="10.00">&lt; Char &gt;</text>
<text text-anchor="start" x="168.5" y="-540" font-family="Helvetica,sans-Serif" font-size="10.00"> </text>
<text text-anchor="start" x="168.5" y="-525" font-family="Helvetica,sans-Serif" font-size="10.00"> </text>
<polygon fill="#666666" stroke="#666666" points="117,-550 117,-550 224,-550 224,-550 117,-550"/>
<polygon fill="#666666" stroke="#666666" points="117,-535 117,-535 224,-535 224,-535 117,-535"/>
<polygon fill="none" stroke="#666666" points="116.5,-518 116.5,-578 223.5,-578 223.5,-518 116.5,-518"/>
</a>
</g>
</g>
<!-- Node6&#45;&gt;Node5 -->
<g id="edge5_Node000005_Node000006" class="edge">
<title>Node6&#45;&gt;Node5</title>
<g id="a_edge5_Node000005_Node000006"><a xlink:title=" ">
<path fill="none" stroke="#63b8ff" d="M169.12,-507.41C168.92,-498.47 168.71,-489.25 168.53,-481.21"/>
<polygon fill="none" stroke="#63b8ff" points="165.62,-507.78 169.35,-517.69 172.62,-507.62 165.62,-507.78"/>
</a>
</g>
</g>
<!-- Node7 -->
<g id="Node000007" class="node">
<title>Node7</title>
<g id="a_Node000007"><a xlink:title=" ">
<polygon fill="white" stroke="transparent" points="221.5,-675 118.5,-675 118.5,-615 221.5,-615 221.5,-675"/>
<text text-anchor="start" x="124" y="-663" font-family="Helvetica,sans-Serif" font-size="10.00">std::basic_ostream</text>
<text text-anchor="start" x="147.5" y="-652" font-family="Helvetica,sans-Serif" font-size="10.00">&lt; Char &gt;</text>
<text text-anchor="start" x="168.5" y="-637" font-family="Helvetica,sans-Serif" font-size="10.00"> </text>
<text text-anchor="start" x="168.5" y="-622" font-family="Helvetica,sans-Serif" font-size="10.00"> </text>
<polygon fill="#666666" stroke="#666666" points="119,-647 119,-647 222,-647 222,-647 119,-647"/>
<polygon fill="#666666" stroke="#666666" points="119,-632 119,-632 222,-632 222,-632 119,-632"/>
<polygon fill="none" stroke="#666666" points="118.5,-615 118.5,-675 221.5,-675 221.5,-615 118.5,-615"/>
</a>
</g>
</g>
<!-- Node7&#45;&gt;Node6 -->
<g id="edge6_Node000006_Node000007" class="edge">
<title>Node7&#45;&gt;Node6</title>
<g id="a_edge6_Node000006_Node000007"><a xlink:title=" ">
<path fill="none" stroke="#63b8ff" d="M170,-604.79C170,-595.88 170,-586.57 170,-578.17"/>
<polygon fill="none" stroke="#63b8ff" points="166.5,-604.98 170,-614.98 173.5,-604.98 166.5,-604.98"/>
</a>
</g>
</g>
<!-- Node8 -->
<g id="Node000008" class="node">
<title>Node8</title>
<g id="a_Node000008"><a xlink:title=" ">
<polygon fill="white" stroke="transparent" points="231,-761 109,-761 109,-712 231,-712 231,-761"/>
<text text-anchor="start" x="114" y="-748.5" font-family="Helvetica,sans-Serif" font-size="10.00">std::basic_ios&lt; Char &gt;</text>
<text text-anchor="start" x="168" y="-733.5" font-family="Helvetica,sans-Serif" font-size="10.00"> </text>
<text text-anchor="start" x="168" y="-718.5" font-family="Helvetica,sans-Serif" font-size="10.00"> </text>
<polygon fill="#666666" stroke="#666666" points="109,-743.5 109,-743.5 231,-743.5 231,-743.5 109,-743.5"/>
<polygon fill="#666666" stroke="#666666" points="109,-728.5 109,-728.5 231,-728.5 231,-728.5 109,-728.5"/>
<polygon fill="none" stroke="#666666" points="109,-712 109,-761 231,-761 231,-712 109,-712"/>
</a>
</g>
</g>
<!-- Node8&#45;&gt;Node7 -->
<g id="edge7_Node000007_Node000008" class="edge">
<title>Node8&#45;&gt;Node7</title>
<g id="a_edge7_Node000007_Node000008"><a xlink:title=" ">
<path fill="none" stroke="#63b8ff" d="M170,-701.7C170,-692.95 170,-683.6 170,-675.12"/>
<polygon fill="none" stroke="#63b8ff" points="166.5,-701.98 170,-711.98 173.5,-701.98 166.5,-701.98"/>
</a>
</g>
</g>
<!-- Node9 -->
<g id="Node000009" class="node">
<title>Node9</title>
<g id="a_Node000009"><a xlink:title=" ">
<polygon fill="white" stroke="transparent" points="207,-847 133,-847 133,-798 207,-798 207,-847"/>
<text text-anchor="start" x="138" y="-834.5" font-family="Helvetica,sans-Serif" font-size="10.00">std::ios_base</text>
<text text-anchor="start" x="168" y="-819.5" font-family="Helvetica,sans-Serif" font-size="10.00"> </text>
<text text-anchor="start" x="168" y="-804.5" font-family="Helvetica,sans-Serif" font-size="10.00"> </text>
<polygon fill="#666666" stroke="#666666" points="133,-829.5 133,-829.5 207,-829.5 207,-829.5 133,-829.5"/>
<polygon fill="#666666" stroke="#666666" points="133,-814.5 133,-814.5 207,-814.5 207,-814.5 133,-814.5"/>
<polygon fill="none" stroke="#666666" points="133,-798 133,-847 207,-847 207,-798 133,-798"/>
</a>
</g>
</g>
<!-- Node9&#45;&gt;Node8 -->
<g id="edge8_Node000008_Node000009" class="edge">
<title>Node9&#45;&gt;Node8</title>
<g id="a_edge8_Node000008_Node000009"><a xlink:title=" ">
<path fill="none" stroke="#63b8ff" d="M170,-787.57C170,-778.69 170,-769.32 170,-761.12"/>
<polygon fill="none" stroke="#63b8ff" points="166.5,-787.65 170,-797.65 173.5,-787.65 166.5,-787.65"/>
</a>
</g>
</g>
<!-- Node10 -->
<g id="Node000010" class="node">
<title>Node10</title>
<g id="a_Node000010"><a xlink:title=" ">
<polygon fill="white" stroke="transparent" points="292.5,-481 229.5,-481 229.5,-432 292.5,-432 292.5,-481"/>
<text text-anchor="start" x="235" y="-468.5" font-family="Helvetica,sans-Serif" font-size="10.00">std::mutex</text>
<text text-anchor="start" x="259.5" y="-453.5" font-family="Helvetica,sans-Serif" font-size="10.00"> </text>
<text text-anchor="start" x="259.5" y="-438.5" font-family="Helvetica,sans-Serif" font-size="10.00"> </text>
<polygon fill="#666666" stroke="#666666" points="230,-463.5 230,-463.5 293,-463.5 293,-463.5 230,-463.5"/>
<polygon fill="#666666" stroke="#666666" points="230,-448.5 230,-448.5 293,-448.5 293,-448.5 230,-448.5"/>
<polygon fill="none" stroke="#666666" points="229.5,-432 229.5,-481 292.5,-481 292.5,-432 229.5,-432"/>
</a>
</g>
</g>
<!-- Node10&#45;&gt;Node2 -->
<g id="edge9_Node000002_Node000010" class="edge">
<title>Node10&#45;&gt;Node2</title>
<g id="a_edge9_Node000002_Node000010"><a xlink:title=" ">
<path fill="none" stroke="#63b8ff" d="M252.77,-431.63C249.4,-421.84 245.21,-409.69 240.64,-396.43"/>
<polygon fill="none" stroke="#63b8ff" points="240.63,-396.4 234.9,-392.03 236.72,-385.06 242.46,-389.43 240.63,-396.4"/>
</a>
</g>
<text text-anchor="middle" x="284" y="-406" font-family="Helvetica,sans-Serif" font-size="10.00" fill="grey"> &#45;m_writeMutex</text>
</g>
<!-- Node11 -->
<g id="Node000011" class="node">
<title>Node11</title>
<g id="a_Node000011"><a xlink:title=" ">
<polygon fill="white" stroke="transparent" points="405,-293 295,-293 295,-233 405,-233 405,-293"/>
<text text-anchor="start" x="300" y="-281" font-family="Helvetica,sans-Serif" font-size="10.00">std::shared_ptr&lt; std</text>
<text text-anchor="start" x="302.5" y="-270" font-family="Helvetica,sans-Serif" font-size="10.00">::atomic&lt; bool &gt; &gt;</text>
<text text-anchor="start" x="348" y="-255" font-family="Helvetica,sans-Serif" font-size="10.00"> </text>
<text text-anchor="start" x="306" y="-240" font-family="Helvetica,sans-Serif" font-size="10.00">+</text>
<text text-anchor="start" x="326" y="-240" font-family="Helvetica,sans-Serif" font-size="10.00">operator&#45;&gt;()</text>
<polygon fill="#666666" stroke="#666666" points="295,-265 295,-265 405,-265 405,-265 295,-265"/>
<polygon fill="#666666" stroke="#666666" points="295,-250 295,-250 405,-250 405,-250 295,-250"/>
<polygon fill="none" stroke="#666666" points="295,-233 295,-293 405,-293 405,-233 295,-233"/>
</a>
</g>
</g>
<!-- Node11&#45;&gt;Node1 -->
<g id="edge10_Node000001_Node000011" class="edge">
<title>Node11&#45;&gt;Node1</title>
<g id="a_edge10_Node000001_Node000011"><a xlink:title=" ">
<path fill="none" stroke="#63b8ff" d="M341.57,-232.72C332.41,-202.1 316.68,-152.9 299,-112 298.01,-109.7 296.96,-107.37 295.88,-105.03"/>
<polygon fill="none" stroke="#63b8ff" points="295.8,-104.87 289.59,-101.2 290.59,-94.06 296.8,-97.73 295.8,-104.87"/>
</a>
</g>
<text text-anchor="middle" x="343" y="-115" font-family="Helvetica,sans-Serif" font-size="10.00" fill="grey"> &#45;m_cancelToken</text>
</g>
<!-- Node12 -->
<g id="Node000012" class="node">
<title>Node12</title>
<g id="a_Node000012"><a xlink:title=" ">
<polygon fill="white" stroke="transparent" points="419.5,-481 310.5,-481 310.5,-432 419.5,-432 419.5,-481"/>
<text text-anchor="start" x="316" y="-468.5" font-family="Helvetica,sans-Serif" font-size="10.00">std::atomic&lt; bool &gt;</text>
<text text-anchor="start" x="333.5" y="-453.5" font-family="Helvetica,sans-Serif" font-size="10.00">+</text>
<text text-anchor="start" x="365" y="-453.5" font-family="Helvetica,sans-Serif" font-size="10.00">ptr</text>
<text text-anchor="start" x="363.5" y="-438.5" font-family="Helvetica,sans-Serif" font-size="10.00"> </text>
<polygon fill="#666666" stroke="#666666" points="311,-463.5 311,-463.5 420,-463.5 420,-463.5 311,-463.5"/>
<polygon fill="#666666" stroke="#666666" points="311,-448.5 311,-448.5 363,-448.5 363,-448.5 311,-448.5"/>
<polygon fill="#666666" stroke="#666666" points="363,-448.5 363,-448.5 420,-448.5 420,-448.5 363,-448.5"/>
<polygon fill="none" stroke="#666666" points="310.5,-432 310.5,-481 419.5,-481 419.5,-432 310.5,-432"/>
</a>
</g>
</g>
<!-- Node12&#45;&gt;Node11 -->
<g id="edge11_Node000011_Node000012" class="edge">
<title>Node12&#45;&gt;Node11</title>
<g id="a_edge11_Node000011_Node000012"><a xlink:title=" ">
<path fill="none" stroke="#63b8ff" d="M363.13,-431.63C360.66,-400.04 356.25,-343.83 353.23,-305.28"/>
<polygon fill="none" stroke="#63b8ff" points="353.22,-305.15 348.77,-299.48 352.29,-293.19 356.74,-298.86 353.22,-305.15"/>
</a>
</g>
<text text-anchor="middle" x="373.5" y="-406" font-family="Helvetica,sans-Serif" font-size="10.00" fill="grey"> +ptr</text>
</g>
</g>
</svg>
