<?xml version="1.0" encoding="UTF-8" standalone="no"?>
<!DOCTYPE svg PUBLIC "-//W3C//DTD SVG 1.1//EN"
 "http://www.w3.org/Graphics/SVG/1.1/DTD/svg11.dtd">
<!-- Generated by graphviz version 2.43.0 (0)
 -->
<!-- Title: SimulateurFerroviaire/Modules/PCC/PCCNode.h Pages: 1 -->
<svg width="1030pt" height="533pt"
 viewBox="0.00 0.00 1029.50 533.00" xmlns="http://www.w3.org/2000/svg" xmlns:xlink="http://www.w3.org/1999/xlink">
<g id="graph0" class="graph" transform="scale(1 1) rotate(0) translate(4 529)">
<title>SimulateurFerroviaire/Modules/PCC/PCCNode.h</title>
<!-- Node1 -->
<g id="Node000001" class="node">
<title>Node1</title>
<g id="a_Node000001"><a xlink:title="Nœud abstrait du graphe PCC représentant un bloc ferroviaire.">
<polygon fill="#999999" stroke="#666666" points="640.5,-525 500.5,-525 500.5,-495 640.5,-495 640.5,-525"/>
<text text-anchor="start" x="508.5" y="-513" font-family="Helvetica,sans-Serif" font-size="10.00">SimulateurFerroviaire</text>
<text text-anchor="middle" x="570.5" y="-502" font-family="Helvetica,sans-Serif" font-size="10.00">/Modules/PCC/PCCNode.h</text>
</a>
</g>
</g>
<!-- Node2 -->
<g id="Node000002" class="node">
<title>Node2</title>
<g id="a_Node000002"><a xlink:href="../../d9/d02/PCCEdge_8cpp.html" target="_top" xlink:title="Implémentation de l&#39;arête orientée du graphe PCC.">
<polygon fill="white" stroke="#666666" points="424.5,-459 274.5,-459 274.5,-429 424.5,-429 424.5,-459"/>
<text text-anchor="start" x="282.5" y="-447" font-family="Helvetica,sans-Serif" font-size="10.00">SimulateurFerroviaire</text>
<text text-anchor="middle" x="349.5" y="-436" font-family="Helvetica,sans-Serif" font-size="10.00">/Modules/PCC/PCCEdge.cpp</text>
</a>
</g>
</g>
<!-- Node1&#45;&gt;Node2 -->
<g id="edge1_Node000001_Node000002" class="edge">
<title>Node1&#45;&gt;Node2</title>
<g id="a_edge1_Node000001_Node000002"><a xlink:title=" ">
<path fill="none" stroke="#63b8ff" d="M512.22,-492.12C476.58,-481.8 431.54,-468.76 397.89,-459.01"/>
<polygon fill="#63b8ff" stroke="#63b8ff" points="511.42,-495.54 522,-494.95 513.37,-488.81 511.42,-495.54"/>
</a>
</g>
</g>
<!-- Node3 -->
<g id="Node000003" class="node">
<title>Node3</title>
<g id="a_Node000003"><a xlink:href="../../d8/d00/PCCGraph_8h.html" target="_top" xlink:title="Conteneur propriétaire du graphe PCC.">
<polygon fill="white" stroke="#666666" points="457.5,-393 313.5,-393 313.5,-363 457.5,-363 457.5,-393"/>
<text text-anchor="start" x="321.5" y="-381" font-family="Helvetica,sans-Serif" font-size="10.00">SimulateurFerroviaire</text>
<text text-anchor="middle" x="385.5" y="-370" font-family="Helvetica,sans-Serif" font-size="10.00">/Modules/PCC/PCCGraph.h</text>
</a>
</g>
</g>
<!-- Node1&#45;&gt;Node3 -->
<g id="edge2_Node000001_Node000003" class="edge">
<title>Node1&#45;&gt;Node3</title>
<g id="a_edge2_Node000001_Node000003"><a xlink:title=" ">
<path fill="none" stroke="#63b8ff" d="M528.4,-490.63C510.53,-482.05 489.86,-471.07 472.5,-459 443.86,-439.08 414.89,-410.34 398.66,-393.28"/>
<polygon fill="#63b8ff" stroke="#63b8ff" points="526.92,-493.8 537.46,-494.89 529.9,-487.47 526.92,-493.8"/>
</a>
</g>
</g>
<!-- Node18 -->
<g id="Node000018" class="node">
<title>Node18</title>
<g id="a_Node000018"><a xlink:href="../../d0/d02/PCCNode_8cpp.html" target="_top" xlink:title="Implémentation du nœud abstrait du graphe PCC.">
<polygon fill="white" stroke="#666666" points="1021.5,-459 869.5,-459 869.5,-429 1021.5,-429 1021.5,-459"/>
<text text-anchor="start" x="877.5" y="-447" font-family="Helvetica,sans-Serif" font-size="10.00">SimulateurFerroviaire</text>
<text text-anchor="middle" x="945.5" y="-436" font-family="Helvetica,sans-Serif" font-size="10.00">/Modules/PCC/PCCNode.cpp</text>
</a>
</g>
</g>
<!-- Node1&#45;&gt;Node18 -->
<g id="edge21_Node000001_Node000018" class="edge">
<title>Node1&#45;&gt;Node18</title>
<g id="a_edge21_Node000001_Node000018"><a xlink:title=" ">
<path fill="none" stroke="#63b8ff" d="M650.75,-495.3C715.42,-484.27 805.73,-468.85 869.3,-458"/>
<polygon fill="#63b8ff" stroke="#63b8ff" points="649.86,-491.9 640.59,-497.04 651.04,-498.8 649.86,-491.9"/>
</a>
</g>
</g>
<!-- Node19 -->
<g id="Node000019" class="node">
<title>Node19</title>
<g id="a_Node000019"><a xlink:href="../../d2/d03/PCCStraightNode_8h.html" target="_top" xlink:title="Nœud PCC représentant un StraightBlock.">
<polygon fill="white" stroke="#666666" points="660,-459 481,-459 481,-429 660,-429 660,-459"/>
<text text-anchor="start" x="489" y="-447" font-family="Helvetica,sans-Serif" font-size="10.00">SimulateurFerroviaire</text>
<text text-anchor="middle" x="570.5" y="-436" font-family="Helvetica,sans-Serif" font-size="10.00">/Modules/PCC/PCCStraightNode.h</text>
</a>
</g>
</g>
<!-- Node1&#45;&gt;Node19 -->
<g id="edge22_Node000001_Node000019" class="edge">
<title>Node1&#45;&gt;Node19</title>
<g id="a_edge22_Node000001_Node000019"><a xlink:title=" ">
<path fill="none" stroke="#63b8ff" d="M570.5,-484.54C570.5,-475.96 570.5,-466.61 570.5,-459.16"/>
<polygon fill="#63b8ff" stroke="#63b8ff" points="567,-484.8 570.5,-494.8 574,-484.8 567,-484.8"/>
</a>
</g>
</g>
<!-- Node21 -->
<g id="Node000021" class="node">
<title>Node21</title>
<g id="a_Node000021"><a xlink:href="../../dc/d01/PCCSwitchNode_8h.html" target="_top" xlink:title="Nœud PCC représentant un SwitchBlock.">
<polygon fill="white" stroke="#666666" points="851,-459 678,-459 678,-429 851,-429 851,-459"/>
<text text-anchor="start" x="686" y="-447" font-family="Helvetica,sans-Serif" font-size="10.00">SimulateurFerroviaire</text>
<text text-anchor="middle" x="764.5" y="-436" font-family="Helvetica,sans-Serif" font-size="10.00">/Modules/PCC/PCCSwitchNode.h</text>
</a>
</g>
</g>
<!-- Node1&#45;&gt;Node21 -->
<g id="edge26_Node000001_Node000021" class="edge">
<title>Node1&#45;&gt;Node21</title>
<g id="a_edge26_Node000001_Node000021"><a xlink:title=" ">
<path fill="none" stroke="#63b8ff" d="M622.87,-491.72C653.96,-481.47 692.86,-468.63 722.03,-459.01"/>
<polygon fill="#63b8ff" stroke="#63b8ff" points="621.47,-488.5 613.07,-494.95 623.67,-495.15 621.47,-488.5"/>
</a>
</g>
</g>
<!-- Node4 -->
<g id="Node000004" class="node">
<title>Node4</title>
<g id="a_Node000004"><a xlink:href="../../d5/d00/PCCPanel_8h.html" target="_top" xlink:title="Panneau PCC superposé togglable, affiché par&#45;dessus la carte Leaflet.">
<polygon fill="white" stroke="#666666" points="613.5,-250 489.5,-250 489.5,-209 613.5,-209 613.5,-250"/>
<text text-anchor="start" x="497.5" y="-238" font-family="Helvetica,sans-Serif" font-size="10.00">SimulateurFerroviaire</text>
<text text-anchor="start" x="497.5" y="-227" font-family="Helvetica,sans-Serif" font-size="10.00">/Engine/HMI/PCCPanel</text>
<text text-anchor="middle" x="551.5" y="-216" font-family="Helvetica,sans-Serif" font-size="10.00">/PCCPanel.h</text>
</a>
</g>
</g>
<!-- Node3&#45;&gt;Node4 -->
<g id="edge3_Node000003_Node000004" class="edge">
<title>Node3&#45;&gt;Node4</title>
<g id="a_edge3_Node000003_Node000004"><a xlink:title=" ">
<path fill="none" stroke="#63b8ff" d="M456.08,-360.19C488.34,-351.11 521.76,-339.27 532.5,-327 551.05,-305.79 553.58,-271.84 553.04,-250.37"/>
<polygon fill="#63b8ff" stroke="#63b8ff" points="454.85,-356.9 446.13,-362.91 456.7,-363.65 454.85,-356.9"/>
</a>
</g>
</g>
<!-- Node11 -->
<g id="Node000011" class="node">
<title>Node11</title>
<g id="a_Node000011"><a xlink:href="../../d8/d02/TCORenderer_8h.html" target="_top" xlink:title="Renderer GDI du schéma TCO — style SNCF, blocs fixes.">
<polygon fill="white" stroke="#666666" points="741.5,-327 617.5,-327 617.5,-286 741.5,-286 741.5,-327"/>
<text text-anchor="start" x="625.5" y="-315" font-family="Helvetica,sans-Serif" font-size="10.00">SimulateurFerroviaire</text>
<text text-anchor="start" x="625.5" y="-304" font-family="Helvetica,sans-Serif" font-size="10.00">/Engine/HMI/PCCPanel</text>
<text text-anchor="middle" x="679.5" y="-293" font-family="Helvetica,sans-Serif" font-size="10.00">/TCORenderer.h</text>
</a>
</g>
</g>
<!-- Node3&#45;&gt;Node11 -->
<g id="edge10_Node000003_Node000011" class="edge">
<title>Node3&#45;&gt;Node11</title>
<g id="a_edge10_Node000003_Node000011"><a xlink:title=" ">
<path fill="none" stroke="#63b8ff" d="M454.93,-360.59C504.2,-348.94 569.75,-333.44 617.3,-322.2"/>
<polygon fill="#63b8ff" stroke="#63b8ff" points="453.92,-357.23 445,-362.94 455.53,-364.04 453.92,-357.23"/>
</a>
</g>
</g>
<!-- Node13 -->
<g id="Node000013" class="node">
<title>Node13</title>
<g id="a_Node000013"><a xlink:href="../../d9/d00/PCCGraph_8cpp.html" target="_top" xlink:title="Implémentation du conteneur propriétaire du graphe PCC.">
<polygon fill="white" stroke="#666666" points="523,-321.5 368,-321.5 368,-291.5 523,-291.5 523,-321.5"/>
<text text-anchor="start" x="376" y="-309.5" font-family="Helvetica,sans-Serif" font-size="10.00">SimulateurFerroviaire</text>
<text text-anchor="middle" x="445.5" y="-298.5" font-family="Helvetica,sans-Serif" font-size="10.00">/Modules/PCC/PCCGraph.cpp</text>
</a>
</g>
</g>
<!-- Node3&#45;&gt;Node13 -->
<g id="edge14_Node000003_Node000013" class="edge">
<title>Node3&#45;&gt;Node13</title>
<g id="a_edge14_Node000003_Node000013"><a xlink:title=" ">
<path fill="none" stroke="#63b8ff" d="M404.19,-355.35C413.71,-344.33 425,-331.24 433.38,-321.54"/>
<polygon fill="#63b8ff" stroke="#63b8ff" points="401.53,-353.08 397.64,-362.94 406.83,-357.65 401.53,-353.08"/>
</a>
</g>
</g>
<!-- Node14 -->
<g id="Node000014" class="node">
<title>Node14</title>
<g id="a_Node000014"><a xlink:href="../../db/d02/PCCGraphBuilder_8h.html" target="_top" xlink:title="Constructeur du graphe PCC depuis TopologyRepository.">
<polygon fill="white" stroke="#666666" points="183.5,-321.5 5.5,-321.5 5.5,-291.5 183.5,-291.5 183.5,-321.5"/>
<text text-anchor="start" x="13.5" y="-309.5" font-family="Helvetica,sans-Serif" font-size="10.00">SimulateurFerroviaire</text>
<text text-anchor="middle" x="94.5" y="-298.5" font-family="Helvetica,sans-Serif" font-size="10.00">/Modules/PCC/PCCGraphBuilder.h</text>
</a>
</g>
</g>
<!-- Node3&#45;&gt;Node14 -->
<g id="edge15_Node000003_Node000014" class="edge">
<title>Node3&#45;&gt;Node14</title>
<g id="a_edge15_Node000003_Node000014"><a xlink:title=" ">
<path fill="none" stroke="#63b8ff" d="M316.59,-360.54C266.89,-348.67 200.51,-332.82 153.3,-321.54"/>
<polygon fill="#63b8ff" stroke="#63b8ff" points="316.07,-364.02 326.61,-362.94 317.7,-357.21 316.07,-364.02"/>
</a>
</g>
</g>
<!-- Node16 -->
<g id="Node000016" class="node">
<title>Node16</title>
<g id="a_Node000016"><a xlink:href="../../d6/d01/PCCLayout_8h.html" target="_top" xlink:title="Calcul des positions logiques X/Y du graphe PCC par parcours BFS.">
<polygon fill="white" stroke="#666666" points="349.5,-321.5 201.5,-321.5 201.5,-291.5 349.5,-291.5 349.5,-321.5"/>
<text text-anchor="start" x="209.5" y="-309.5" font-family="Helvetica,sans-Serif" font-size="10.00">SimulateurFerroviaire</text>
<text text-anchor="middle" x="275.5" y="-298.5" font-family="Helvetica,sans-Serif" font-size="10.00">/Modules/PCC/PCCLayout.h</text>
</a>
</g>
</g>
<!-- Node3&#45;&gt;Node16 -->
<g id="edge18_Node000003_Node000016" class="edge">
<title>Node3&#45;&gt;Node16</title>
<g id="a_edge18_Node000003_Node000016"><a xlink:title=" ">
<path fill="none" stroke="#63b8ff" d="M354.74,-357.57C336.63,-346.12 314.12,-331.9 297.73,-321.54"/>
<polygon fill="#63b8ff" stroke="#63b8ff" points="352.92,-360.55 363.24,-362.94 356.66,-354.64 352.92,-360.55"/>
</a>
</g>
</g>
<!-- Node5 -->
<g id="Node000005" class="node">
<title>Node5</title>
<g id="a_Node000005"><a xlink:href="../../da/d00/MainWindow_8h.html" target="_top" xlink:title="Déclaration de la fenêtre principale de l&#39;application.">
<polygon fill="white" stroke="#666666" points="626,-167.5 477,-167.5 477,-137.5 626,-137.5 626,-167.5"/>
<text text-anchor="start" x="485" y="-155.5" font-family="Helvetica,sans-Serif" font-size="10.00">SimulateurFerroviaire</text>
<text text-anchor="middle" x="551.5" y="-144.5" font-family="Helvetica,sans-Serif" font-size="10.00">/Engine/HMI/MainWindow.h</text>
</a>
</g>
</g>
<!-- Node4&#45;&gt;Node5 -->
<g id="edge4_Node000004_Node000005" class="edge">
<title>Node4&#45;&gt;Node5</title>
<g id="a_edge4_Node000004_Node000005"><a xlink:title=" ">
<path fill="none" stroke="#63b8ff" d="M551.5,-198.61C551.5,-188.01 551.5,-176.57 551.5,-167.86"/>
<polygon fill="#63b8ff" stroke="#63b8ff" points="548,-198.79 551.5,-208.79 555,-198.79 548,-198.79"/>
</a>
</g>
</g>
<!-- Node10 -->
<g id="Node000010" class="node">
<title>Node10</title>
<g id="a_Node000010"><a xlink:href="../../d4/d03/PCCPanel_8cpp.html" target="_top" xlink:title="Implémentation du panneau PCC superposé togglable.">
<polygon fill="white" stroke="#666666" points="399.5,-173 275.5,-173 275.5,-132 399.5,-132 399.5,-173"/>
<text text-anchor="start" x="283.5" y="-161" font-family="Helvetica,sans-Serif" font-size="10.00">SimulateurFerroviaire</text>
<text text-anchor="start" x="283.5" y="-150" font-family="Helvetica,sans-Serif" font-size="10.00">/Engine/HMI/PCCPanel</text>
<text text-anchor="middle" x="337.5" y="-139" font-family="Helvetica,sans-Serif" font-size="10.00">/PCCPanel.cpp</text>
</a>
</g>
</g>
<!-- Node4&#45;&gt;Node10 -->
<g id="edge9_Node000004_Node000010" class="edge">
<title>Node4&#45;&gt;Node10</title>
<g id="a_edge9_Node000004_Node000010"><a xlink:title=" ">
<path fill="none" stroke="#63b8ff" d="M486.37,-205.67C456.63,-195.25 421.77,-183.03 393.26,-173.04"/>
<polygon fill="#63b8ff" stroke="#63b8ff" points="485.24,-208.99 495.83,-208.99 487.55,-202.38 485.24,-208.99"/>
</a>
</g>
</g>
<!-- Node6 -->
<g id="Node000006" class="node">
<title>Node6</title>
<g id="a_Node000006"><a xlink:href="../../d4/d00/Application_8h.html" target="_top" xlink:title="Gestion du cycle de vie de l&#39;application Win32.">
<polygon fill="white" stroke="#666666" points="538,-96 393,-96 393,-66 538,-66 538,-96"/>
<text text-anchor="start" x="401" y="-84" font-family="Helvetica,sans-Serif" font-size="10.00">SimulateurFerroviaire</text>
<text text-anchor="middle" x="465.5" y="-73" font-family="Helvetica,sans-Serif" font-size="10.00">/Engine/Core/Application.h</text>
</a>
</g>
</g>
<!-- Node5&#45;&gt;Node6 -->
<g id="edge5_Node000005_Node000006" class="edge">
<title>Node5&#45;&gt;Node6</title>
<g id="a_edge5_Node000005_Node000006"><a xlink:title=" ">
<path fill="none" stroke="#63b8ff" d="M526.29,-131.13C512.33,-119.85 495.34,-106.12 482.88,-96.04"/>
<polygon fill="#63b8ff" stroke="#63b8ff" points="524.12,-133.87 534.1,-137.44 528.52,-128.43 524.12,-133.87"/>
</a>
</g>
</g>
<!-- Node9 -->
<g id="Node000009" class="node">
<title>Node9</title>
<g id="a_Node000009"><a xlink:href="../../d3/d03/MainWindow_8cpp.html" target="_top" xlink:title="Implémentation de la fenêtre principale.">
<polygon fill="white" stroke="#666666" points="717,-96 556,-96 556,-66 717,-66 717,-96"/>
<text text-anchor="start" x="564" y="-84" font-family="Helvetica,sans-Serif" font-size="10.00">SimulateurFerroviaire</text>
<text text-anchor="middle" x="636.5" y="-73" font-family="Helvetica,sans-Serif" font-size="10.00">/Engine/HMI/MainWindow.cpp</text>
</a>
</g>
</g>
<!-- Node5&#45;&gt;Node9 -->
<g id="edge8_Node000005_Node000009" class="edge">
<title>Node5&#45;&gt;Node9</title>
<g id="a_edge8_Node000005_Node000009"><a xlink:title=" ">
<path fill="none" stroke="#63b8ff" d="M576.81,-130.81C590.52,-119.59 607.12,-106.02 619.32,-96.04"/>
<polygon fill="#63b8ff" stroke="#63b8ff" points="574.23,-128.4 568.7,-137.44 578.66,-133.82 574.23,-128.4"/>
</a>
</g>
</g>
<!-- Node7 -->
<g id="Node000007" class="node">
<title>Node7</title>
<g id="a_Node000007"><a xlink:href="../../d2/d02/Application_8cpp.html" target="_top" xlink:title="Implémentation du cycle de vie de l&#39;application Win32.">
<polygon fill="white" stroke="#666666" points="459.5,-30 303.5,-30 303.5,0 459.5,0 459.5,-30"/>
<text text-anchor="start" x="311.5" y="-18" font-family="Helvetica,sans-Serif" font-size="10.00">SimulateurFerroviaire</text>
<text text-anchor="middle" x="381.5" y="-7" font-family="Helvetica,sans-Serif" font-size="10.00">/Engine/Core/Application.cpp</text>
</a>
</g>
</g>
<!-- Node6&#45;&gt;Node7 -->
<g id="edge6_Node000006_Node000007" class="edge">
<title>Node6&#45;&gt;Node7</title>
<g id="a_edge6_Node000006_Node000007"><a xlink:title=" ">
<path fill="none" stroke="#63b8ff" d="M438.56,-59.48C426.01,-49.91 411.39,-38.77 400.09,-30.16"/>
<polygon fill="#63b8ff" stroke="#63b8ff" points="436.78,-62.52 446.86,-65.8 441.02,-56.95 436.78,-62.52"/>
</a>
</g>
</g>
<!-- Node8 -->
<g id="Node000008" class="node">
<title>Node8</title>
<g id="a_Node000008"><a xlink:href="../../db/d00/SimulateurFerroviaire_8cpp.html" target="_top" xlink:title="Point d&#39;entrée unique de l&#39;application Win32.">
<polygon fill="white" stroke="#666666" points="623.5,-30 477.5,-30 477.5,0 623.5,0 623.5,-30"/>
<text text-anchor="start" x="485.5" y="-18" font-family="Helvetica,sans-Serif" font-size="10.00">SimulateurFerroviaire</text>
<text text-anchor="middle" x="550.5" y="-7" font-family="Helvetica,sans-Serif" font-size="10.00">/SimulateurFerroviaire.cpp</text>
</a>
</g>
</g>
<!-- Node6&#45;&gt;Node8 -->
<g id="edge7_Node000006_Node000008" class="edge">
<title>Node6&#45;&gt;Node8</title>
<g id="a_edge7_Node000006_Node000008"><a xlink:title=" ">
<path fill="none" stroke="#63b8ff" d="M492.39,-59.75C505.17,-50.13 520.14,-38.86 531.69,-30.16"/>
<polygon fill="#63b8ff" stroke="#63b8ff" points="490.25,-56.99 484.36,-65.8 494.46,-62.58 490.25,-56.99"/>
</a>
</g>
</g>
<!-- Node11&#45;&gt;Node4 -->
<g id="edge12_Node000011_Node000004" class="edge">
<title>Node11&#45;&gt;Node4</title>
<g id="a_edge12_Node000011_Node000004"><a xlink:title=" ">
<path fill="none" stroke="#63b8ff" d="M637.55,-280.92C620.53,-270.95 601.13,-259.58 585.07,-250.17"/>
<polygon fill="#63b8ff" stroke="#63b8ff" points="635.81,-283.95 646.2,-285.99 639.35,-277.92 635.81,-283.95"/>
</a>
</g>
</g>
<!-- Node11&#45;&gt;Node10 -->
<g id="edge11_Node000011_Node000010" class="edge">
<title>Node11&#45;&gt;Node10</title>
<g id="a_edge11_Node000011_Node000010"><a xlink:title=" ">
<path fill="none" stroke="#63b8ff" d="M669.77,-276.3C660.92,-254.34 645.66,-225.35 622.5,-209 604.48,-196.28 477.92,-175.02 399.63,-162.83"/>
<polygon fill="#63b8ff" stroke="#63b8ff" points="666.56,-277.71 673.39,-285.81 673.11,-275.22 666.56,-277.71"/>
</a>
</g>
</g>
<!-- Node12 -->
<g id="Node000012" class="node">
<title>Node12</title>
<g id="a_Node000012"><a xlink:href="../../d4/d02/TCORenderer_8cpp.html" target="_top" xlink:title="Renderer GDI TCO — style SNCF, blocs fixes.">
<polygon fill="white" stroke="#666666" points="831.5,-250 707.5,-250 707.5,-209 831.5,-209 831.5,-250"/>
<text text-anchor="start" x="715.5" y="-238" font-family="Helvetica,sans-Serif" font-size="10.00">SimulateurFerroviaire</text>
<text text-anchor="start" x="715.5" y="-227" font-family="Helvetica,sans-Serif" font-size="10.00">/Engine/HMI/PCCPanel</text>
<text text-anchor="middle" x="769.5" y="-216" font-family="Helvetica,sans-Serif" font-size="10.00">/TCORenderer.cpp</text>
</a>
</g>
</g>
<!-- Node11&#45;&gt;Node12 -->
<g id="edge13_Node000011_Node000012" class="edge">
<title>Node11&#45;&gt;Node12</title>
<g id="a_edge13_Node000011_Node000012"><a xlink:title=" ">
<path fill="none" stroke="#63b8ff" d="M710.88,-279.35C722.42,-269.73 735.28,-259.01 746.01,-250.07"/>
<polygon fill="#63b8ff" stroke="#63b8ff" points="708.59,-276.7 703.15,-285.79 713.07,-282.08 708.59,-276.7"/>
</a>
</g>
</g>
<!-- Node14&#45;&gt;Node10 -->
<g id="edge16_Node000014_Node000010" class="edge">
<title>Node14&#45;&gt;Node10</title>
<g id="a_edge16_Node000014_Node000010"><a xlink:title=" ">
<path fill="none" stroke="#63b8ff" d="M131.54,-286.79C151.4,-276.45 176.11,-263.08 197.5,-250 238.17,-225.13 283.25,-193.23 310.98,-173.07"/>
<polygon fill="#63b8ff" stroke="#63b8ff" points="129.78,-283.76 122.5,-291.46 132.99,-289.98 129.78,-283.76"/>
</a>
</g>
</g>
<!-- Node15 -->
<g id="Node000015" class="node">
<title>Node15</title>
<g id="a_Node000015"><a xlink:href="../../d0/d01/PCCGraphBuilder_8cpp.html" target="_top" xlink:title="Implémentation du constructeur du graphe PCC.">
<polygon fill="white" stroke="#666666" points="189,-244.5 0,-244.5 0,-214.5 189,-214.5 189,-244.5"/>
<text text-anchor="start" x="8" y="-232.5" font-family="Helvetica,sans-Serif" font-size="10.00">SimulateurFerroviaire</text>
<text text-anchor="middle" x="94.5" y="-221.5" font-family="Helvetica,sans-Serif" font-size="10.00">/Modules/PCC/PCCGraphBuilder.cpp</text>
</a>
</g>
</g>
<!-- Node14&#45;&gt;Node15 -->
<g id="edge17_Node000014_Node000015" class="edge">
<title>Node14&#45;&gt;Node15</title>
<g id="a_edge17_Node000014_Node000015"><a xlink:title=" ">
<path fill="none" stroke="#63b8ff" d="M94.5,-281.04C94.5,-268.95 94.5,-254.79 94.5,-244.54"/>
<polygon fill="#63b8ff" stroke="#63b8ff" points="91,-281.39 94.5,-291.39 98,-281.39 91,-281.39"/>
</a>
</g>
</g>
<!-- Node16&#45;&gt;Node10 -->
<g id="edge19_Node000016_Node000010" class="edge">
<title>Node16&#45;&gt;Node10</title>
<g id="a_edge19_Node000016_Node000010"><a xlink:title=" ">
<path fill="none" stroke="#63b8ff" d="M280.18,-281.51C284.54,-261.57 291.97,-232.72 302.5,-209 308.09,-196.4 316.22,-183.31 323.23,-173.01"/>
<polygon fill="#63b8ff" stroke="#63b8ff" points="276.75,-280.81 278.12,-291.32 283.6,-282.25 276.75,-280.81"/>
</a>
</g>
</g>
<!-- Node17 -->
<g id="Node000017" class="node">
<title>Node17</title>
<g id="a_Node000017"><a xlink:href="../../d3/d02/PCCLayout_8cpp.html" target="_top" xlink:title="Implémentation du calculateur de positions logiques PCC.">
<polygon fill="white" stroke="#666666" points="470,-244.5 311,-244.5 311,-214.5 470,-214.5 470,-244.5"/>
<text text-anchor="start" x="319" y="-232.5" font-family="Helvetica,sans-Serif" font-size="10.00">SimulateurFerroviaire</text>
<text text-anchor="middle" x="390.5" y="-221.5" font-family="Helvetica,sans-Serif" font-size="10.00">/Modules/PCC/PCCLayout.cpp</text>
</a>
</g>
</g>
<!-- Node16&#45;&gt;Node17 -->
<g id="edge20_Node000016_Node000017" class="edge">
<title>Node16&#45;&gt;Node17</title>
<g id="a_edge20_Node000016_Node000017"><a xlink:title=" ">
<path fill="none" stroke="#63b8ff" d="M305.55,-285.9C325.45,-272.93 351.08,-256.21 368.97,-244.54"/>
<polygon fill="#63b8ff" stroke="#63b8ff" points="303.59,-283 297.13,-291.39 307.42,-288.86 303.59,-283"/>
</a>
</g>
</g>
<!-- Node19&#45;&gt;Node3 -->
<g id="edge24_Node000019_Node000003" class="edge">
<title>Node19&#45;&gt;Node3</title>
<g id="a_edge24_Node000019_Node000003"><a xlink:title=" ">
<path fill="none" stroke="#63b8ff" d="M520.17,-425.59C490.6,-415.36 453.7,-402.59 426,-393.01"/>
<polygon fill="#63b8ff" stroke="#63b8ff" points="519.31,-428.99 529.9,-428.95 521.59,-422.38 519.31,-428.99"/>
</a>
</g>
</g>
<!-- Node19&#45;&gt;Node12 -->
<g id="edge23_Node000019_Node000012" class="edge">
<title>Node19&#45;&gt;Node12</title>
<g id="a_edge23_Node000019_Node000012"><a xlink:title=" ">
<path fill="none" stroke="#63b8ff" d="M621.85,-425.17C664.38,-407.43 722.26,-375.75 750.5,-327 764.37,-303.06 768.29,-270.78 769.3,-250.3"/>
<polygon fill="#63b8ff" stroke="#63b8ff" points="620.44,-421.96 612.48,-428.96 623.06,-428.45 620.44,-421.96"/>
</a>
</g>
</g>
<!-- Node20 -->
<g id="Node000020" class="node">
<title>Node20</title>
<g id="a_Node000020"><a xlink:href="../../d1/d01/PCCStraightNode_8cpp.html" target="_top" xlink:title="Implémentation du nœud PCC pour voie droite.">
<polygon fill="white" stroke="#666666" points="665.5,-393 475.5,-393 475.5,-363 665.5,-363 665.5,-393"/>
<text text-anchor="start" x="483.5" y="-381" font-family="Helvetica,sans-Serif" font-size="10.00">SimulateurFerroviaire</text>
<text text-anchor="middle" x="570.5" y="-370" font-family="Helvetica,sans-Serif" font-size="10.00">/Modules/PCC/PCCStraightNode.cpp</text>
</a>
</g>
</g>
<!-- Node19&#45;&gt;Node20 -->
<g id="edge25_Node000019_Node000020" class="edge">
<title>Node19&#45;&gt;Node20</title>
<g id="a_edge25_Node000019_Node000020"><a xlink:title=" ">
<path fill="none" stroke="#63b8ff" d="M570.5,-418.54C570.5,-409.96 570.5,-400.61 570.5,-393.16"/>
<polygon fill="#63b8ff" stroke="#63b8ff" points="567,-418.8 570.5,-428.8 574,-418.8 567,-418.8"/>
</a>
</g>
</g>
<!-- Node21&#45;&gt;Node3 -->
<g id="edge29_Node000021_Node000003" class="edge">
<title>Node21&#45;&gt;Node3</title>
<g id="a_edge29_Node000021_Node000003"><a xlink:title=" ">
<path fill="none" stroke="#63b8ff" d="M670.36,-427.33C611.71,-417.53 534.7,-404.61 466.5,-393 463.69,-392.52 460.82,-392.03 457.92,-391.54"/>
<polygon fill="#63b8ff" stroke="#63b8ff" points="669.91,-430.8 680.35,-428.99 671.06,-423.89 669.91,-430.8"/>
</a>
</g>
</g>
<!-- Node21&#45;&gt;Node11 -->
<g id="edge28_Node000021_Node000011" class="edge">
<title>Node21&#45;&gt;Node11</title>
<g id="a_edge28_Node000021_Node000011"><a xlink:title=" ">
<path fill="none" stroke="#63b8ff" d="M750.24,-420.27C733.9,-394.21 707.37,-351.93 691.86,-327.21"/>
<polygon fill="#63b8ff" stroke="#63b8ff" points="747.29,-422.14 755.56,-428.76 753.22,-418.42 747.29,-422.14"/>
</a>
</g>
</g>
<!-- Node21&#45;&gt;Node12 -->
<g id="edge27_Node000021_Node000012" class="edge">
<title>Node21&#45;&gt;Node12</title>
<g id="a_edge27_Node000021_Node000012"><a xlink:title=" ">
<path fill="none" stroke="#63b8ff" d="M771.09,-418.87C778.66,-388.04 789.34,-333.04 783.5,-286 781.99,-273.87 778.7,-260.58 775.69,-250.05"/>
<polygon fill="#63b8ff" stroke="#63b8ff" points="767.66,-418.15 768.57,-428.71 774.44,-419.89 767.66,-418.15"/>
</a>
</g>
</g>
<!-- Node21&#45;&gt;Node17 -->
<g id="edge30_Node000021_Node000017" class="edge">
<title>Node21&#45;&gt;Node17</title>
<g id="a_edge30_Node000021_Node000017"><a xlink:title=" ">
<path fill="none" stroke="#63b8ff" d="M741.6,-422.15C717.35,-400.15 681.6,-367.98 674.5,-363 672.66,-361.71 534.53,-286.94 532.5,-286 498.65,-270.28 459.01,-255.04 430.23,-244.52"/>
<polygon fill="#63b8ff" stroke="#63b8ff" points="739.26,-424.75 749.02,-428.89 743.97,-419.57 739.26,-424.75"/>
</a>
</g>
</g>
<!-- Node22 -->
<g id="Node000022" class="node">
<title>Node22</title>
<g id="a_Node000022"><a xlink:href="../../d7/d00/PCCSwitchNode_8cpp.html" target="_top" xlink:title="Implémentation du nœud PCC pour aiguillage.">
<polygon fill="white" stroke="#666666" points="1019.5,-393 835.5,-393 835.5,-363 1019.5,-363 1019.5,-393"/>
<text text-anchor="start" x="843.5" y="-381" font-family="Helvetica,sans-Serif" font-size="10.00">SimulateurFerroviaire</text>
<text text-anchor="middle" x="927.5" y="-370" font-family="Helvetica,sans-Serif" font-size="10.00">/Modules/PCC/PCCSwitchNode.cpp</text>
</a>
</g>
</g>
<!-- Node21&#45;&gt;Node22 -->
<g id="edge31_Node000021_Node000022" class="edge">
<title>Node21&#45;&gt;Node22</title>
<g id="a_edge31_Node000021_Node000022"><a xlink:title=" ">
<path fill="none" stroke="#63b8ff" d="M809.86,-425.19C835.75,-415.02 867.73,-402.47 891.81,-393.01"/>
<polygon fill="#63b8ff" stroke="#63b8ff" points="808.3,-422.04 800.27,-428.95 810.86,-428.56 808.3,-422.04"/>
</a>
</g>
</g>
</g>
</svg>
