<?xml version="1.0" encoding="UTF-8" standalone="no"?>
<!DOCTYPE svg PUBLIC "-//W3C//DTD SVG 1.1//EN"
 "http://www.w3.org/Graphics/SVG/1.1/DTD/svg11.dtd">
<!-- Generated by graphviz version 2.43.0 (0)
 -->
<!-- Title: SimulateurFerroviaire/Modules/GeoParser/Pipeline/Phase6_BlockExtractor.h Pages: 1 -->
<svg width="366pt" height="126pt"
 viewBox="0.00 0.00 366.00 126.00" xmlns="http://www.w3.org/2000/svg" xmlns:xlink="http://www.w3.org/1999/xlink">
<g id="graph0" class="graph" transform="scale(1 1) rotate(0) translate(4 122)">
<title>SimulateurFerroviaire/Modules/GeoParser/Pipeline/Phase6_BlockExtractor.h</title>
<!-- Node1 -->
<g id="Node000001" class="node">
<title>Node1</title>
<g id="a_Node000001"><a xlink:title="Phase 6 du pipeline — extraction des blocs ferroviaires.">
<polygon fill="#999999" stroke="#666666" points="264,-118 109,-118 109,-77 264,-77 264,-118"/>
<text text-anchor="start" x="117" y="-106" font-family="Helvetica,sans-Serif" font-size="10.00">SimulateurFerroviaire</text>
<text text-anchor="start" x="117" y="-95" font-family="Helvetica,sans-Serif" font-size="10.00">/Modules/GeoParser/Pipeline</text>
<text text-anchor="middle" x="186.5" y="-84" font-family="Helvetica,sans-Serif" font-size="10.00">/Phase6_BlockExtractor.h</text>
</a>
</g>
</g>
<!-- Node2 -->
<g id="Node000002" class="node">
<title>Node2</title>
<g id="a_Node000002"><a xlink:href="../../d7/d03/GeoParser_8cpp.html" target="_top" xlink:title="Implémentation de l&#39;orchestrateur GeoParser v2.">
<polygon fill="white" stroke="#666666" points="185,-35.5 0,-35.5 0,-5.5 185,-5.5 185,-35.5"/>
<text text-anchor="start" x="8" y="-23.5" font-family="Helvetica,sans-Serif" font-size="10.00">SimulateurFerroviaire</text>
<text text-anchor="middle" x="92.5" y="-12.5" font-family="Helvetica,sans-Serif" font-size="10.00">/Modules/GeoParser/GeoParser.cpp</text>
</a>
</g>
</g>
<!-- Node1&#45;&gt;Node2 -->
<g id="edge1_Node000001_Node000002" class="edge">
<title>Node1&#45;&gt;Node2</title>
<g id="a_edge1_Node000001_Node000002"><a xlink:title=" ">
<path fill="none" stroke="#63b8ff" d="M153.91,-70.5C139.24,-58.79 122.5,-45.44 110.2,-35.63"/>
<polygon fill="#63b8ff" stroke="#63b8ff" points="151.8,-73.29 161.8,-76.79 156.17,-67.82 151.8,-73.29"/>
</a>
</g>
</g>
<!-- Node3 -->
<g id="Node000003" class="node">
<title>Node3</title>
<g id="a_Node000003"><a xlink:href="../../d7/d00/Phase6__BlockExtractor_8cpp.html" target="_top" xlink:title="Implémentation de la phase 6 — extraction des blocs ferroviaires.">
<polygon fill="white" stroke="#666666" points="358,-41 203,-41 203,0 358,0 358,-41"/>
<text text-anchor="start" x="211" y="-29" font-family="Helvetica,sans-Serif" font-size="10.00">SimulateurFerroviaire</text>
<text text-anchor="start" x="211" y="-18" font-family="Helvetica,sans-Serif" font-size="10.00">/Modules/GeoParser/Pipeline</text>
<text text-anchor="middle" x="280.5" y="-7" font-family="Helvetica,sans-Serif" font-size="10.00">/Phase6_BlockExtractor.cpp</text>
</a>
</g>
</g>
<!-- Node1&#45;&gt;Node3 -->
<g id="edge2_Node000001_Node000003" class="edge">
<title>Node1&#45;&gt;Node3</title>
<g id="a_edge2_Node000001_Node000003"><a xlink:title=" ">
<path fill="none" stroke="#63b8ff" d="M219.28,-70.35C231.33,-60.73 244.76,-50.01 255.97,-41.07"/>
<polygon fill="#63b8ff" stroke="#63b8ff" points="216.83,-67.82 211.2,-76.79 221.2,-73.29 216.83,-67.82"/>
</a>
</g>
</g>
</g>
</svg>
