<?xml version="1.0" encoding="UTF-8" standalone="no"?>
<!DOCTYPE svg PUBLIC "-//W3C//DTD SVG 1.1//EN"
 "http://www.w3.org/Graphics/SVG/1.1/DTD/svg11.dtd">
<!-- Generated by graphviz version 2.43.0 (0)
 -->
<!-- Title: SimulateurFerroviaire/Engine/HMI/PCCPanel/TCORenderer.cpp Pages: 1 -->
<svg width="1606pt" height="522pt"
 viewBox="0.00 0.00 1605.97 522.00" xmlns="http://www.w3.org/2000/svg" xmlns:xlink="http://www.w3.org/1999/xlink">
<g id="graph0" class="graph" transform="scale(1 1) rotate(0) translate(4 518)">
<title>SimulateurFerroviaire/Engine/HMI/PCCPanel/TCORenderer.cpp</title>
<!-- Node1 -->
<g id="Node000001" class="node">
<title>Node1</title>
<g id="a_Node000001"><a xlink:title="Renderer GDI TCO — style SNCF, blocs fixes.">
<polygon fill="#999999" stroke="#666666" points="1295.5,-514 1171.5,-514 1171.5,-473 1295.5,-473 1295.5,-514"/>
<text text-anchor="start" x="1179.5" y="-502" font-family="Helvetica,sans-Serif" font-size="10.00">SimulateurFerroviaire</text>
<text text-anchor="start" x="1179.5" y="-491" font-family="Helvetica,sans-Serif" font-size="10.00">/Engine/HMI/PCCPanel</text>
<text text-anchor="middle" x="1233.5" y="-480" font-family="Helvetica,sans-Serif" font-size="10.00">/TCORenderer.cpp</text>
</a>
</g>
</g>
<!-- Node2 -->
<g id="Node000002" class="node">
<title>Node2</title>
<g id="a_Node000002"><a xlink:href="../../d6/d01/framework_8h.html" target="_top" xlink:title=" ">
<polygon fill="white" stroke="#666666" points="392,-382 313,-382 313,-363 392,-363 392,-382"/>
<text text-anchor="middle" x="352.5" y="-370" font-family="Helvetica,sans-Serif" font-size="10.00">framework.h</text>
</a>
</g>
</g>
<!-- Node1&#45;&gt;Node2 -->
<g id="edge1_Node000001_Node000002" class="edge">
<title>Node1&#45;&gt;Node2</title>
<g id="a_edge1_Node000001_Node000002"><a xlink:title=" ">
<path fill="none" stroke="#63b8ff" d="M1171.22,-484.16C1090.37,-473.32 944.89,-453.8 820.5,-437 668.04,-416.41 487.67,-391.89 402.2,-380.26"/>
<polygon fill="#63b8ff" stroke="#63b8ff" points="402.63,-376.79 392.25,-378.91 401.69,-383.73 402.63,-376.79"/>
</a>
</g>
</g>
<!-- Node12 -->
<g id="Node000012" class="node">
<title>Node12</title>
<g id="a_Node000012"><a xlink:href="../../d8/d02/TCORenderer_8h.html" target="_top" xlink:title="Renderer GDI du schéma TCO — style SNCF, blocs fixes.">
<polygon fill="white" stroke="#666666" points="918,-437 829,-437 829,-418 918,-418 918,-437"/>
<text text-anchor="middle" x="873.5" y="-425" font-family="Helvetica,sans-Serif" font-size="10.00">TCORenderer.h</text>
</a>
</g>
</g>
<!-- Node1&#45;&gt;Node12 -->
<g id="edge11_Node000001_Node000012" class="edge">
<title>Node1&#45;&gt;Node12</title>
<g id="a_edge11_Node000001_Node000012"><a xlink:title=" ">
<path fill="none" stroke="#63b8ff" d="M1171.2,-481.43C1102.63,-469.23 993.46,-449.83 928.11,-438.21"/>
<polygon fill="#63b8ff" stroke="#63b8ff" points="928.47,-434.72 918.01,-436.41 927.24,-441.61 928.47,-434.72"/>
</a>
</g>
</g>
<!-- Node27 -->
<g id="Node000027" class="node">
<title>Node27</title>
<g id="a_Node000027"><a xlink:href="../../d2/d03/PCCStraightNode_8h.html" target="_top" xlink:title="Nœud PCC représentant un StraightBlock.">
<polygon fill="white" stroke="#666666" points="1125,-327 1016,-327 1016,-308 1125,-308 1125,-327"/>
<text text-anchor="middle" x="1070.5" y="-315" font-family="Helvetica,sans-Serif" font-size="10.00">PCCStraightNode.h</text>
</a>
</g>
</g>
<!-- Node1&#45;&gt;Node27 -->
<g id="edge60_Node000001_Node000027" class="edge">
<title>Node1&#45;&gt;Node27</title>
<g id="a_edge60_Node000001_Node000027"><a xlink:title=" ">
<path fill="none" stroke="#63b8ff" d="M1215.12,-472.88C1182.71,-438.29 1116,-367.07 1085.87,-334.91"/>
<polygon fill="#63b8ff" stroke="#63b8ff" points="1088.11,-332.18 1078.72,-327.27 1083,-336.96 1088.11,-332.18"/>
</a>
</g>
</g>
<!-- Node31 -->
<g id="Node000031" class="node">
<title>Node31</title>
<g id="a_Node000031"><a xlink:href="../../dc/d01/PCCSwitchNode_8h.html" target="_top" xlink:title="Nœud PCC représentant un SwitchBlock.">
<polygon fill="white" stroke="#666666" points="1285,-327 1182,-327 1182,-308 1285,-308 1285,-327"/>
<text text-anchor="middle" x="1233.5" y="-315" font-family="Helvetica,sans-Serif" font-size="10.00">PCCSwitchNode.h</text>
</a>
</g>
</g>
<!-- Node1&#45;&gt;Node31 -->
<g id="edge61_Node000001_Node000031" class="edge">
<title>Node1&#45;&gt;Node31</title>
<g id="a_edge61_Node000001_Node000031"><a xlink:title=" ">
<path fill="none" stroke="#63b8ff" d="M1233.5,-472.88C1233.5,-439.17 1233.5,-370.69 1233.5,-337.45"/>
<polygon fill="#63b8ff" stroke="#63b8ff" points="1237,-337.27 1233.5,-327.27 1230,-337.27 1237,-337.27"/>
</a>
</g>
</g>
<!-- Node32 -->
<g id="Node000032" class="node">
<title>Node32</title>
<g id="a_Node000032"><a xlink:href="../../dc/d01/SwitchBlock_8h.html" target="_top" xlink:title="Modèle de domaine d&#39;un aiguillage ferroviaire à 3 branches.">
<polygon fill="white" stroke="#666666" points="1389.5,-272 1237.5,-272 1237.5,-242 1389.5,-242 1389.5,-272"/>
<text text-anchor="start" x="1245.5" y="-260" font-family="Helvetica,sans-Serif" font-size="10.00">Modules/Elements/Shunting</text>
<text text-anchor="middle" x="1313.5" y="-249" font-family="Helvetica,sans-Serif" font-size="10.00">Elements/SwitchBlock.h</text>
</a>
</g>
</g>
<!-- Node1&#45;&gt;Node32 -->
<g id="edge62_Node000001_Node000032" class="edge">
<title>Node1&#45;&gt;Node32</title>
<g id="a_edge62_Node000001_Node000032"><a xlink:title=" ">
<path fill="none" stroke="#63b8ff" d="M1241.37,-472.82C1253.55,-442 1277.36,-380.35 1294.5,-327 1299.27,-312.16 1303.93,-295.29 1307.44,-281.95"/>
<polygon fill="#63b8ff" stroke="#63b8ff" points="1310.87,-282.67 1309.99,-272.11 1304.09,-280.91 1310.87,-282.67"/>
</a>
</g>
</g>
<!-- Node35 -->
<g id="Node000035" class="node">
<title>Node35</title>
<g id="a_Node000035"><a xlink:title=" ">
<polygon fill="#e0e0e0" stroke="#999999" points="1405.5,-437 1341.5,-437 1341.5,-418 1405.5,-418 1405.5,-437"/>
<text text-anchor="middle" x="1373.5" y="-425" font-family="Helvetica,sans-Serif" font-size="10.00">algorithm</text>
</a>
</g>
</g>
<!-- Node1&#45;&gt;Node35 -->
<g id="edge63_Node000001_Node000035" class="edge">
<title>Node1&#45;&gt;Node35</title>
<g id="a_edge63_Node000001_Node000035"><a xlink:title=" ">
<path fill="none" stroke="#63b8ff" d="M1276.27,-472.95C1298.79,-462.65 1325.78,-450.31 1345.6,-441.25"/>
<polygon fill="#63b8ff" stroke="#63b8ff" points="1347.07,-444.43 1354.71,-437.09 1344.16,-438.07 1347.07,-444.43"/>
</a>
</g>
</g>
<!-- Node36 -->
<g id="Node000036" class="node">
<title>Node36</title>
<g id="a_Node000036"><a xlink:title=" ">
<polygon fill="#e0e0e0" stroke="#999999" points="1467.5,-437 1423.5,-437 1423.5,-418 1467.5,-418 1467.5,-437"/>
<text text-anchor="middle" x="1445.5" y="-425" font-family="Helvetica,sans-Serif" font-size="10.00">limits</text>
</a>
</g>
</g>
<!-- Node1&#45;&gt;Node36 -->
<g id="edge64_Node000001_Node000036" class="edge">
<title>Node1&#45;&gt;Node36</title>
<g id="a_edge64_Node000001_Node000036"><a xlink:title=" ">
<path fill="none" stroke="#63b8ff" d="M1295.67,-473.73C1334.31,-462.07 1382.38,-447.55 1413.49,-438.16"/>
<polygon fill="#63b8ff" stroke="#63b8ff" points="1414.79,-441.43 1423.35,-435.19 1412.77,-434.73 1414.79,-441.43"/>
</a>
</g>
</g>
<!-- Node3 -->
<g id="Node000003" class="node">
<title>Node3</title>
<g id="a_Node000003"><a xlink:href="../../d9/d02/targetver_8h.html" target="_top" xlink:title=" ">
<polygon fill="white" stroke="#666666" points="76.5,-327 6.5,-327 6.5,-308 76.5,-308 76.5,-327"/>
<text text-anchor="middle" x="41.5" y="-315" font-family="Helvetica,sans-Serif" font-size="10.00">targetver.h</text>
</a>
</g>
</g>
<!-- Node2&#45;&gt;Node3 -->
<g id="edge2_Node000002_Node000003" class="edge">
<title>Node2&#45;&gt;Node3</title>
<g id="a_edge2_Node000002_Node000003"><a xlink:title=" ">
<path fill="none" stroke="#63b8ff" d="M312.64,-365.18C262.34,-357.14 172.93,-342.61 86.52,-327.15"/>
<polygon fill="#63b8ff" stroke="#63b8ff" points="87.01,-323.68 76.55,-325.36 85.77,-330.57 87.01,-323.68"/>
</a>
</g>
</g>
<!-- Node5 -->
<g id="Node000005" class="node">
<title>Node5</title>
<g id="a_Node000005"><a xlink:title=" ">
<polygon fill="#e0e0e0" stroke="#999999" points="358.5,-19 290.5,-19 290.5,0 358.5,0 358.5,-19"/>
<text text-anchor="middle" x="324.5" y="-7" font-family="Helvetica,sans-Serif" font-size="10.00">windows.h</text>
</a>
</g>
</g>
<!-- Node2&#45;&gt;Node5 -->
<g id="edge4_Node000002_Node000005" class="edge">
<title>Node2&#45;&gt;Node5</title>
<g id="a_edge4_Node000002_Node000005"><a xlink:title=" ">
<path fill="none" stroke="#63b8ff" d="M326.2,-363C308.56,-356 286.15,-344.37 272.5,-327 252.85,-301.99 253.5,-289.81 253.5,-258 253.5,-258 253.5,-258 253.5,-129.5 253.5,-87.69 286.22,-47.8 307.24,-26.5"/>
<polygon fill="#63b8ff" stroke="#63b8ff" points="309.92,-28.77 314.63,-19.28 305.03,-23.76 309.92,-28.77"/>
</a>
</g>
</g>
<!-- Node6 -->
<g id="Node000006" class="node">
<title>Node6</title>
<g id="a_Node000006"><a xlink:title=" ">
<polygon fill="#e0e0e0" stroke="#999999" points="148,-327 95,-327 95,-308 148,-308 148,-327"/>
<text text-anchor="middle" x="121.5" y="-315" font-family="Helvetica,sans-Serif" font-size="10.00">stdlib.h</text>
</a>
</g>
</g>
<!-- Node2&#45;&gt;Node6 -->
<g id="edge5_Node000002_Node000006" class="edge">
<title>Node2&#45;&gt;Node6</title>
<g id="a_edge5_Node000002_Node000006"><a xlink:title=" ">
<path fill="none" stroke="#63b8ff" d="M314.15,-362.97C276.7,-354.6 217.81,-341.34 158.2,-327.38"/>
<polygon fill="#63b8ff" stroke="#63b8ff" points="158.78,-323.92 148.24,-325.04 157.18,-330.73 158.78,-323.92"/>
</a>
</g>
</g>
<!-- Node7 -->
<g id="Node000007" class="node">
<title>Node7</title>
<g id="a_Node000007"><a xlink:title=" ">
<polygon fill="#e0e0e0" stroke="#999999" points="225,-327 166,-327 166,-308 225,-308 225,-327"/>
<text text-anchor="middle" x="195.5" y="-315" font-family="Helvetica,sans-Serif" font-size="10.00">malloc.h</text>
</a>
</g>
</g>
<!-- Node2&#45;&gt;Node7 -->
<g id="edge6_Node000002_Node000007" class="edge">
<title>Node2&#45;&gt;Node7</title>
<g id="a_edge6_Node000002_Node000007"><a xlink:title=" ">
<path fill="none" stroke="#63b8ff" d="M327.28,-362.98C301.14,-354.16 260.1,-340.31 230.77,-330.41"/>
<polygon fill="#63b8ff" stroke="#63b8ff" points="231.52,-326.96 220.92,-327.08 229.28,-333.6 231.52,-326.96"/>
</a>
</g>
</g>
<!-- Node8 -->
<g id="Node000008" class="node">
<title>Node8</title>
<g id="a_Node000008"><a xlink:title=" ">
<polygon fill="#e0e0e0" stroke="#999999" points="347,-327 282,-327 282,-308 347,-308 347,-327"/>
<text text-anchor="middle" x="314.5" y="-315" font-family="Helvetica,sans-Serif" font-size="10.00">memory.h</text>
</a>
</g>
</g>
<!-- Node2&#45;&gt;Node8 -->
<g id="edge7_Node000002_Node000008" class="edge">
<title>Node2&#45;&gt;Node8</title>
<g id="a_edge7_Node000002_Node000008"><a xlink:title=" ">
<path fill="none" stroke="#63b8ff" d="M346.23,-362.75C340.91,-355.34 333.14,-344.5 326.62,-335.41"/>
<polygon fill="#63b8ff" stroke="#63b8ff" points="329.33,-333.18 320.66,-327.09 323.64,-337.26 329.33,-333.18"/>
</a>
</g>
</g>
<!-- Node9 -->
<g id="Node000009" class="node">
<title>Node9</title>
<g id="a_Node000009"><a xlink:title=" ">
<polygon fill="#e0e0e0" stroke="#999999" points="415.5,-327 365.5,-327 365.5,-308 415.5,-308 415.5,-327"/>
<text text-anchor="middle" x="390.5" y="-315" font-family="Helvetica,sans-Serif" font-size="10.00">tchar.h</text>
</a>
</g>
</g>
<!-- Node2&#45;&gt;Node9 -->
<g id="edge8_Node000002_Node000009" class="edge">
<title>Node2&#45;&gt;Node9</title>
<g id="a_edge8_Node000002_Node000009"><a xlink:title=" ">
<path fill="none" stroke="#63b8ff" d="M358.77,-362.75C364.09,-355.34 371.86,-344.5 378.38,-335.41"/>
<polygon fill="#63b8ff" stroke="#63b8ff" points="381.36,-337.26 384.34,-327.09 375.67,-333.18 381.36,-337.26"/>
</a>
</g>
</g>
<!-- Node10 -->
<g id="Node000010" class="node">
<title>Node10</title>
<g id="a_Node000010"><a xlink:title=" ">
<polygon fill="#e0e0e0" stroke="#999999" points="505.5,-327 433.5,-327 433.5,-308 505.5,-308 505.5,-327"/>
<text text-anchor="middle" x="469.5" y="-315" font-family="Helvetica,sans-Serif" font-size="10.00">commctrl.h</text>
</a>
</g>
</g>
<!-- Node2&#45;&gt;Node10 -->
<g id="edge9_Node000002_Node000010" class="edge">
<title>Node2&#45;&gt;Node10</title>
<g id="a_edge9_Node000002_Node000010"><a xlink:title=" ">
<path fill="none" stroke="#63b8ff" d="M371.3,-362.98C390.12,-354.46 419.32,-341.23 441,-331.41"/>
<polygon fill="#63b8ff" stroke="#63b8ff" points="442.7,-334.48 450.36,-327.17 439.81,-328.11 442.7,-334.48"/>
</a>
</g>
</g>
<!-- Node11 -->
<g id="Node000011" class="node">
<title>Node11</title>
<g id="a_Node000011"><a xlink:title=" ">
<polygon fill="#e0e0e0" stroke="#999999" points="833.5,-19 789.5,-19 789.5,0 833.5,0 833.5,-19"/>
<text text-anchor="middle" x="811.5" y="-7" font-family="Helvetica,sans-Serif" font-size="10.00">string</text>
</a>
</g>
</g>
<!-- Node2&#45;&gt;Node11 -->
<g id="edge10_Node000002_Node000011" class="edge">
<title>Node2&#45;&gt;Node11</title>
<g id="a_edge10_Node000002_Node000011"><a xlink:title=" ">
<path fill="none" stroke="#63b8ff" d="M392.14,-367.85C426.92,-363.06 477.57,-352.05 514.5,-327 584.09,-279.79 571.73,-238.03 628.5,-176 683.69,-115.7 758.28,-53.34 792.69,-25.49"/>
<polygon fill="#63b8ff" stroke="#63b8ff" points="794.94,-28.18 800.53,-19.18 790.55,-22.72 794.94,-28.18"/>
</a>
</g>
</g>
<!-- Node4 -->
<g id="Node000004" class="node">
<title>Node4</title>
<g id="a_Node000004"><a xlink:title=" ">
<polygon fill="#e0e0e0" stroke="#999999" points="83,-266.5 0,-266.5 0,-247.5 83,-247.5 83,-266.5"/>
<text text-anchor="middle" x="41.5" y="-254.5" font-family="Helvetica,sans-Serif" font-size="10.00">SDKDDKVer.h</text>
</a>
</g>
</g>
<!-- Node3&#45;&gt;Node4 -->
<g id="edge3_Node000003_Node000004" class="edge">
<title>Node3&#45;&gt;Node4</title>
<g id="a_edge3_Node000003_Node000004"><a xlink:title=" ">
<path fill="none" stroke="#63b8ff" d="M41.5,-307.87C41.5,-299.75 41.5,-287.31 41.5,-276.89"/>
<polygon fill="#63b8ff" stroke="#63b8ff" points="45,-276.67 41.5,-266.67 38,-276.67 45,-276.67"/>
</a>
</g>
</g>
<!-- Node12&#45;&gt;Node2 -->
<g id="edge12_Node000012_Node000002" class="edge">
<title>Node12&#45;&gt;Node2</title>
<g id="a_edge12_Node000012_Node000002"><a xlink:title=" ">
<path fill="none" stroke="#63b8ff" d="M828.63,-421.94C731.72,-412.08 503.47,-388.86 402.29,-378.56"/>
<polygon fill="#63b8ff" stroke="#63b8ff" points="402.34,-375.05 392.04,-377.52 401.63,-382.02 402.34,-375.05"/>
</a>
</g>
</g>
<!-- Node13 -->
<g id="Node000013" class="node">
<title>Node13</title>
<g id="a_Node000013"><a xlink:href="../../d8/d00/PCCGraph_8h.html" target="_top" xlink:title="Conteneur propriétaire du graphe PCC.">
<polygon fill="white" stroke="#666666" points="944,-382 803,-382 803,-363 944,-363 944,-382"/>
<text text-anchor="middle" x="873.5" y="-370" font-family="Helvetica,sans-Serif" font-size="10.00">Modules/PCC/PCCGraph.h</text>
</a>
</g>
</g>
<!-- Node12&#45;&gt;Node13 -->
<g id="edge13_Node000012_Node000013" class="edge">
<title>Node12&#45;&gt;Node13</title>
<g id="a_edge13_Node000012_Node000013"><a xlink:title=" ">
<path fill="none" stroke="#63b8ff" d="M873.5,-417.75C873.5,-410.8 873.5,-400.85 873.5,-392.13"/>
<polygon fill="#63b8ff" stroke="#63b8ff" points="877,-392.09 873.5,-382.09 870,-392.09 877,-392.09"/>
</a>
</g>
</g>
<!-- Node18 -->
<g id="Node000018" class="node">
<title>Node18</title>
<g id="a_Node000018"><a xlink:href="../../dd/d00/Logger_8h.html" target="_top" xlink:title="Système de journalisation à 5 niveaux de trace, un fichier par moteur.">
<polygon fill="white" stroke="#666666" points="665,-85 554,-85 554,-55 665,-55 665,-85"/>
<text text-anchor="start" x="562" y="-73" font-family="Helvetica,sans-Serif" font-size="10.00">Engine/Core/Logger</text>
<text text-anchor="middle" x="609.5" y="-62" font-family="Helvetica,sans-Serif" font-size="10.00">/Logger.h</text>
</a>
</g>
</g>
<!-- Node12&#45;&gt;Node18 -->
<g id="edge59_Node000012_Node000018" class="edge">
<title>Node12&#45;&gt;Node18</title>
<g id="a_edge59_Node000012_Node000018"><a xlink:title=" ">
<path fill="none" stroke="#63b8ff" d="M828.74,-421.73C770.44,-413.12 669.2,-389.62 611.5,-327 547.37,-257.39 520.42,-208.08 557.5,-121 562.32,-109.68 571.1,-99.69 580.08,-91.67"/>
<polygon fill="#63b8ff" stroke="#63b8ff" points="582.48,-94.22 587.94,-85.14 578.01,-88.84 582.48,-94.22"/>
</a>
</g>
</g>
<!-- Node12&#45;&gt;Node31 -->
<g id="edge58_Node000012_Node000031" class="edge">
<title>Node12&#45;&gt;Node31</title>
<g id="a_edge58_Node000012_Node000031"><a xlink:title=" ">
<path fill="none" stroke="#63b8ff" d="M902.05,-417.94C966.38,-398.64 1122.68,-351.74 1195.28,-329.97"/>
<polygon fill="#63b8ff" stroke="#63b8ff" points="1196.38,-333.29 1204.95,-327.07 1194.36,-326.59 1196.38,-333.29"/>
</a>
</g>
</g>
<!-- Node13&#45;&gt;Node11 -->
<g id="edge15_Node000013_Node000011" class="edge">
<title>Node13&#45;&gt;Node11</title>
<g id="a_edge15_Node000013_Node000011"><a xlink:title=" ">
<path fill="none" stroke="#63b8ff" d="M869.51,-362.72C865.52,-353.8 859.3,-339.55 854.5,-327 823.7,-246.42 811.18,-225.83 802.5,-140 800.04,-115.66 800.94,-109.46 800.5,-85 800.26,-71.67 798.89,-68.24 800.5,-55 801.56,-46.31 803.74,-36.87 805.88,-28.93"/>
<polygon fill="#63b8ff" stroke="#63b8ff" points="809.27,-29.83 808.67,-19.25 802.54,-27.89 809.27,-29.83"/>
</a>
</g>
</g>
<!-- Node14 -->
<g id="Node000014" class="node">
<title>Node14</title>
<g id="a_Node000014"><a xlink:title=" ">
<polygon fill="#e0e0e0" stroke="#999999" points="959.5,-327 901.5,-327 901.5,-308 959.5,-308 959.5,-327"/>
<text text-anchor="middle" x="930.5" y="-315" font-family="Helvetica,sans-Serif" font-size="10.00">memory</text>
</a>
</g>
</g>
<!-- Node13&#45;&gt;Node14 -->
<g id="edge14_Node000013_Node000014" class="edge">
<title>Node13&#45;&gt;Node14</title>
<g id="a_edge14_Node000013_Node000014"><a xlink:title=" ">
<path fill="none" stroke="#63b8ff" d="M882.66,-362.98C891,-355.23 903.53,-343.58 913.68,-334.14"/>
<polygon fill="#63b8ff" stroke="#63b8ff" points="916.24,-336.54 921.18,-327.17 911.47,-331.42 916.24,-336.54"/>
</a>
</g>
</g>
<!-- Node15 -->
<g id="Node000015" class="node">
<title>Node15</title>
<g id="a_Node000015"><a xlink:title=" ">
<polygon fill="#e0e0e0" stroke="#999999" points="731,-327 638,-327 638,-308 731,-308 731,-327"/>
<text text-anchor="middle" x="684.5" y="-315" font-family="Helvetica,sans-Serif" font-size="10.00">unordered_map</text>
</a>
</g>
</g>
<!-- Node13&#45;&gt;Node15 -->
<g id="edge16_Node000013_Node000015" class="edge">
<title>Node13&#45;&gt;Node15</title>
<g id="a_edge16_Node000013_Node000015"><a xlink:title=" ">
<path fill="none" stroke="#63b8ff" d="M843.13,-362.98C811.13,-354.01 760.54,-339.82 725.12,-329.89"/>
<polygon fill="#63b8ff" stroke="#63b8ff" points="725.68,-326.41 715.1,-327.08 723.79,-333.15 725.68,-326.41"/>
</a>
</g>
</g>
<!-- Node16 -->
<g id="Node000016" class="node">
<title>Node16</title>
<g id="a_Node000016"><a xlink:title=" ">
<polygon fill="#e0e0e0" stroke="#999999" points="887,-200.5 840,-200.5 840,-181.5 887,-181.5 887,-200.5"/>
<text text-anchor="middle" x="863.5" y="-188.5" font-family="Helvetica,sans-Serif" font-size="10.00">vector</text>
</a>
</g>
</g>
<!-- Node13&#45;&gt;Node16 -->
<g id="edge17_Node000013_Node000016" class="edge">
<title>Node13&#45;&gt;Node16</title>
<g id="a_edge17_Node000013_Node000016"><a xlink:title=" ">
<path fill="none" stroke="#63b8ff" d="M870.95,-362.75C865.17,-341.91 851.87,-287.71 855.5,-242 856.32,-231.66 858.09,-220.23 859.75,-210.91"/>
<polygon fill="#63b8ff" stroke="#63b8ff" points="863.24,-211.28 861.66,-200.8 856.36,-209.98 863.24,-211.28"/>
</a>
</g>
</g>
<!-- Node17 -->
<g id="Node000017" class="node">
<title>Node17</title>
<g id="a_Node000017"><a xlink:href="../../d1/d02/PCCEdge_8h.html" target="_top" xlink:title="Connexion orientée entre deux nœuds du graphe PCC.">
<polygon fill="white" stroke="#666666" points="707,-200.5 638,-200.5 638,-181.5 707,-181.5 707,-200.5"/>
<text text-anchor="middle" x="672.5" y="-188.5" font-family="Helvetica,sans-Serif" font-size="10.00">PCCEdge.h</text>
</a>
</g>
</g>
<!-- Node13&#45;&gt;Node17 -->
<g id="edge18_Node000013_Node000017" class="edge">
<title>Node13&#45;&gt;Node17</title>
<g id="a_edge18_Node000013_Node000017"><a xlink:title=" ">
<path fill="none" stroke="#63b8ff" d="M849.75,-362.99C830.63,-355.41 803.71,-343.04 783.5,-327 739.49,-292.07 701.07,-237.04 683.18,-209.26"/>
<polygon fill="#63b8ff" stroke="#63b8ff" points="686.04,-207.23 677.74,-200.65 680.12,-210.97 686.04,-207.23"/>
</a>
</g>
</g>
<!-- Node13&#45;&gt;Node18 -->
<g id="edge55_Node000013_Node000018" class="edge">
<title>Node13&#45;&gt;Node18</title>
<g id="a_edge55_Node000013_Node000018"><a xlink:title=" ">
<path fill="none" stroke="#63b8ff" d="M802.91,-366.79C740.13,-361.19 654.51,-349.58 629.5,-327 605.8,-305.6 609.5,-289.93 609.5,-258 609.5,-258 609.5,-258 609.5,-190 609.5,-157.21 609.5,-119.35 609.5,-95.3"/>
<polygon fill="#63b8ff" stroke="#63b8ff" points="613,-95.29 609.5,-85.29 606,-95.29 613,-95.29"/>
</a>
</g>
</g>
<!-- Node24 -->
<g id="Node000024" class="node">
<title>Node24</title>
<g id="a_Node000024"><a xlink:href="../../d6/d01/PCCNode_8h.html" target="_top" xlink:title="Nœud abstrait du graphe PCC représentant un bloc ferroviaire.">
<polygon fill="white" stroke="#666666" points="935,-266.5 864,-266.5 864,-247.5 935,-247.5 935,-266.5"/>
<text text-anchor="middle" x="899.5" y="-254.5" font-family="Helvetica,sans-Serif" font-size="10.00">PCCNode.h</text>
</a>
</g>
</g>
<!-- Node13&#45;&gt;Node24 -->
<g id="edge27_Node000013_Node000024" class="edge">
<title>Node13&#45;&gt;Node24</title>
<g id="a_edge27_Node000013_Node000024"><a xlink:title=" ">
<path fill="none" stroke="#63b8ff" d="M875.45,-362.97C879.63,-344.73 889.52,-301.57 895.23,-276.64"/>
<polygon fill="#63b8ff" stroke="#63b8ff" points="898.7,-277.16 897.52,-266.63 891.88,-275.6 898.7,-277.16"/>
</a>
</g>
</g>
<!-- Node13&#45;&gt;Node27 -->
<g id="edge36_Node000013_Node000027" class="edge">
<title>Node13&#45;&gt;Node27</title>
<g id="a_edge36_Node000013_Node000027"><a xlink:title=" ">
<path fill="none" stroke="#63b8ff" d="M905.15,-362.98C938.66,-353.97 991.7,-339.7 1028.64,-329.76"/>
<polygon fill="#63b8ff" stroke="#63b8ff" points="1029.85,-333.06 1038.6,-327.08 1028.03,-326.3 1029.85,-333.06"/>
</a>
</g>
</g>
<!-- Node28 -->
<g id="Node000028" class="node">
<title>Node28</title>
<g id="a_Node000028"><a xlink:href="../../de/d01/StraightBlock_8h.html" target="_top" xlink:title="Modèle de domaine d&#39;un bloc de voie droite (Straight).">
<polygon fill="white" stroke="#666666" points="1146.5,-272 994.5,-272 994.5,-242 1146.5,-242 1146.5,-272"/>
<text text-anchor="start" x="1002.5" y="-260" font-family="Helvetica,sans-Serif" font-size="10.00">Modules/Elements/Shunting</text>
<text text-anchor="middle" x="1070.5" y="-249" font-family="Helvetica,sans-Serif" font-size="10.00">Elements/StraightBlock.h</text>
</a>
</g>
</g>
<!-- Node13&#45;&gt;Node28 -->
<g id="edge56_Node000013_Node000028" class="edge">
<title>Node13&#45;&gt;Node28</title>
<g id="a_edge56_Node000013_Node000028"><a xlink:title=" ">
<path fill="none" stroke="#63b8ff" d="M894.35,-362.86C913.92,-354.48 943.79,-341.03 968.5,-327 994.74,-312.1 1023.04,-292.66 1043.16,-278.22"/>
<polygon fill="#63b8ff" stroke="#63b8ff" points="1045.48,-280.86 1051.52,-272.16 1041.37,-275.19 1045.48,-280.86"/>
</a>
</g>
</g>
<!-- Node13&#45;&gt;Node31 -->
<g id="edge44_Node000013_Node000031" class="edge">
<title>Node13&#45;&gt;Node31</title>
<g id="a_edge44_Node000013_Node000031"><a xlink:title=" ">
<path fill="none" stroke="#63b8ff" d="M931.34,-362.98C997.22,-353.28 1104.45,-337.5 1171.87,-327.57"/>
<polygon fill="#63b8ff" stroke="#63b8ff" points="1172.55,-331.01 1181.93,-326.09 1171.53,-324.09 1172.55,-331.01"/>
</a>
</g>
</g>
<!-- Node13&#45;&gt;Node32 -->
<g id="edge57_Node000013_Node000032" class="edge">
<title>Node13&#45;&gt;Node32</title>
<g id="a_edge57_Node000013_Node000032"><a xlink:title=" ">
<path fill="none" stroke="#63b8ff" d="M944.03,-364.97C997.3,-358.73 1071.7,-347.19 1134.5,-327 1152.86,-321.1 1155.73,-315.48 1173.5,-308 1202,-296.01 1234.48,-284.3 1260.98,-275.22"/>
<polygon fill="#63b8ff" stroke="#63b8ff" points="1262.11,-278.53 1270.45,-272 1259.86,-271.91 1262.11,-278.53"/>
</a>
</g>
</g>
<!-- Node17&#45;&gt;Node18 -->
<g id="edge19_Node000017_Node000018" class="edge">
<title>Node17&#45;&gt;Node18</title>
<g id="a_edge19_Node000017_Node000018"><a xlink:title=" ">
<path fill="none" stroke="#63b8ff" d="M667.97,-181.44C658.42,-163.41 635.95,-120.96 621.81,-94.25"/>
<polygon fill="#63b8ff" stroke="#63b8ff" points="624.79,-92.4 617.02,-85.2 618.6,-95.67 624.79,-92.4"/>
</a>
</g>
</g>
<!-- Node18&#45;&gt;Node5 -->
<g id="edge26_Node000018_Node000005" class="edge">
<title>Node18&#45;&gt;Node5</title>
<g id="a_edge26_Node000018_Node000005"><a xlink:title=" ">
<path fill="none" stroke="#63b8ff" d="M553.87,-57.58C499.62,-46.45 418.19,-29.73 368.36,-19.5"/>
<polygon fill="#63b8ff" stroke="#63b8ff" points="369.03,-16.07 358.53,-17.49 367.62,-22.92 369.03,-16.07"/>
</a>
</g>
</g>
<!-- Node18&#45;&gt;Node11 -->
<g id="edge25_Node000018_Node000011" class="edge">
<title>Node18&#45;&gt;Node11</title>
<g id="a_edge25_Node000018_Node000011"><a xlink:title=" ">
<path fill="none" stroke="#63b8ff" d="M657.88,-54.99C695.48,-44.1 746.58,-29.3 779.31,-19.82"/>
<polygon fill="#63b8ff" stroke="#63b8ff" points="780.61,-23.09 789.24,-16.95 778.67,-16.37 780.61,-23.09"/>
</a>
</g>
</g>
<!-- Node19 -->
<g id="Node000019" class="node">
<title>Node19</title>
<g id="a_Node000019"><a xlink:title=" ">
<polygon fill="#e0e0e0" stroke="#999999" points="658.5,-19 614.5,-19 614.5,0 658.5,0 658.5,-19"/>
<text text-anchor="middle" x="636.5" y="-7" font-family="Helvetica,sans-Serif" font-size="10.00">ctime</text>
</a>
</g>
</g>
<!-- Node18&#45;&gt;Node19 -->
<g id="edge20_Node000018_Node000019" class="edge">
<title>Node18&#45;&gt;Node19</title>
<g id="a_edge20_Node000018_Node000019"><a xlink:title=" ">
<path fill="none" stroke="#63b8ff" d="M616.04,-54.84C619.68,-46.95 624.24,-37.05 628.14,-28.61"/>
<polygon fill="#63b8ff" stroke="#63b8ff" points="631.44,-29.81 632.45,-19.27 625.09,-26.88 631.44,-29.81"/>
</a>
</g>
</g>
<!-- Node20 -->
<g id="Node000020" class="node">
<title>Node20</title>
<g id="a_Node000020"><a xlink:title=" ">
<polygon fill="#e0e0e0" stroke="#999999" points="744.5,-19 676.5,-19 676.5,0 744.5,0 744.5,-19"/>
<text text-anchor="middle" x="710.5" y="-7" font-family="Helvetica,sans-Serif" font-size="10.00">filesystem</text>
</a>
</g>
</g>
<!-- Node18&#45;&gt;Node20 -->
<g id="edge21_Node000018_Node000020" class="edge">
<title>Node18&#45;&gt;Node20</title>
<g id="a_edge21_Node000018_Node000020"><a xlink:title=" ">
<path fill="none" stroke="#63b8ff" d="M633.69,-54.99C649.79,-45.66 670.84,-33.47 686.83,-24.21"/>
<polygon fill="#63b8ff" stroke="#63b8ff" points="688.69,-27.18 695.58,-19.14 685.18,-21.12 688.69,-27.18"/>
</a>
</g>
</g>
<!-- Node21 -->
<g id="Node000021" class="node">
<title>Node21</title>
<g id="a_Node000021"><a xlink:title=" ">
<polygon fill="#e0e0e0" stroke="#999999" points="530,-19 475,-19 475,0 530,0 530,-19"/>
<text text-anchor="middle" x="502.5" y="-7" font-family="Helvetica,sans-Serif" font-size="10.00">fstream</text>
</a>
</g>
</g>
<!-- Node18&#45;&gt;Node21 -->
<g id="edge22_Node000018_Node000021" class="edge">
<title>Node18&#45;&gt;Node21</title>
<g id="a_edge22_Node000018_Node000021"><a xlink:title=" ">
<path fill="none" stroke="#63b8ff" d="M583.87,-54.99C566.66,-45.58 544.1,-33.24 527.1,-23.95"/>
<polygon fill="#63b8ff" stroke="#63b8ff" points="528.75,-20.87 518.3,-19.14 525.4,-27.01 528.75,-20.87"/>
</a>
</g>
</g>
<!-- Node22 -->
<g id="Node000022" class="node">
<title>Node22</title>
<g id="a_Node000022"><a xlink:title=" ">
<polygon fill="#e0e0e0" stroke="#999999" points="596.5,-19 548.5,-19 548.5,0 596.5,0 596.5,-19"/>
<text text-anchor="middle" x="572.5" y="-7" font-family="Helvetica,sans-Serif" font-size="10.00">mutex</text>
</a>
</g>
</g>
<!-- Node18&#45;&gt;Node22 -->
<g id="edge23_Node000018_Node000022" class="edge">
<title>Node18&#45;&gt;Node22</title>
<g id="a_edge23_Node000018_Node000022"><a xlink:title=" ">
<path fill="none" stroke="#63b8ff" d="M600.54,-54.84C595.39,-46.69 588.88,-36.4 583.43,-27.78"/>
<polygon fill="#63b8ff" stroke="#63b8ff" points="586.35,-25.85 578.04,-19.27 580.43,-29.59 586.35,-25.85"/>
</a>
</g>
</g>
<!-- Node23 -->
<g id="Node000023" class="node">
<title>Node23</title>
<g id="a_Node000023"><a xlink:title=" ">
<polygon fill="#e0e0e0" stroke="#999999" points="1273.5,-19 1217.5,-19 1217.5,0 1273.5,0 1273.5,-19"/>
<text text-anchor="middle" x="1245.5" y="-7" font-family="Helvetica,sans-Serif" font-size="10.00">sstream</text>
</a>
</g>
</g>
<!-- Node18&#45;&gt;Node23 -->
<g id="edge24_Node000018_Node000023" class="edge">
<title>Node18&#45;&gt;Node23</title>
<g id="a_edge24_Node000018_Node000023"><a xlink:title=" ">
<path fill="none" stroke="#63b8ff" d="M665.11,-63.89C791.79,-52.23 1099.23,-23.95 1207.22,-14.02"/>
<polygon fill="#63b8ff" stroke="#63b8ff" points="1207.7,-17.49 1217.33,-13.09 1207.06,-10.52 1207.7,-17.49"/>
</a>
</g>
</g>
<!-- Node24&#45;&gt;Node11 -->
<g id="edge28_Node000024_Node000011" class="edge">
<title>Node24&#45;&gt;Node11</title>
<g id="a_edge28_Node000024_Node000011"><a xlink:title=" ">
<path fill="none" stroke="#63b8ff" d="M880.11,-247.36C864.17,-239.15 842.48,-225.21 831.5,-206 798.65,-148.54 804.1,-65.89 808.67,-29.23"/>
<polygon fill="#63b8ff" stroke="#63b8ff" points="812.18,-29.42 810.07,-19.04 805.24,-28.47 812.18,-29.42"/>
</a>
</g>
</g>
<!-- Node24&#45;&gt;Node16 -->
<g id="edge29_Node000024_Node000016" class="edge">
<title>Node24&#45;&gt;Node16</title>
<g id="a_edge29_Node000024_Node000016"><a xlink:title=" ">
<path fill="none" stroke="#63b8ff" d="M894.64,-247.37C889.25,-237.78 880.4,-222.05 873.51,-209.8"/>
<polygon fill="#63b8ff" stroke="#63b8ff" points="876.46,-207.91 868.51,-200.91 870.36,-211.34 876.46,-207.91"/>
</a>
</g>
</g>
<!-- Node24&#45;&gt;Node17 -->
<g id="edge30_Node000024_Node000017" class="edge">
<title>Node24&#45;&gt;Node17</title>
<g id="a_edge30_Node000024_Node000017"><a xlink:title=" ">
<path fill="none" stroke="#63b8ff" d="M868.89,-247.37C828.5,-235.98 757.31,-215.91 712.65,-203.32"/>
<polygon fill="#63b8ff" stroke="#63b8ff" points="713.57,-199.94 702.99,-200.6 711.67,-206.68 713.57,-199.94"/>
</a>
</g>
</g>
<!-- Node24&#45;&gt;Node18 -->
<g id="edge35_Node000024_Node000018" class="edge">
<title>Node24&#45;&gt;Node18</title>
<g id="a_edge35_Node000024_Node000018"><a xlink:title=" ">
<path fill="none" stroke="#63b8ff" d="M879.43,-247.36C858.48,-238.07 824.91,-222.41 797.5,-206 736.53,-169.51 670.09,-119.02 634.83,-91.28"/>
<polygon fill="#63b8ff" stroke="#63b8ff" points="636.98,-88.52 626.97,-85.07 632.64,-94.02 636.98,-88.52"/>
</a>
</g>
</g>
<!-- Node25 -->
<g id="Node000025" class="node">
<title>Node25</title>
<g id="a_Node000025"><a xlink:href="../../df/d02/ShuntingElement_8h.html" target="_top" xlink:title="Interface abstraite pour tous les éléments de shuntage ferroviaire.">
<polygon fill="white" stroke="#666666" points="1062.5,-206 904.5,-206 904.5,-176 1062.5,-176 1062.5,-206"/>
<text text-anchor="start" x="912.5" y="-194" font-family="Helvetica,sans-Serif" font-size="10.00">Modules/Elements/Shunting</text>
<text text-anchor="middle" x="983.5" y="-183" font-family="Helvetica,sans-Serif" font-size="10.00">Elements/ShuntingElement.h</text>
</a>
</g>
</g>
<!-- Node24&#45;&gt;Node25 -->
<g id="edge31_Node000024_Node000025" class="edge">
<title>Node24&#45;&gt;Node25</title>
<g id="a_edge31_Node000024_Node000025"><a xlink:title=" ">
<path fill="none" stroke="#63b8ff" d="M910.83,-247.37C922.54,-238.44 941.25,-224.19 956.76,-212.38"/>
<polygon fill="#63b8ff" stroke="#63b8ff" points="959.14,-214.96 964.97,-206.12 954.9,-209.39 959.14,-214.96"/>
</a>
</g>
</g>
<!-- Node26 -->
<g id="Node000026" class="node">
<title>Node26</title>
<g id="a_Node000026"><a xlink:href="../../d5/d02/Element_8h.html" target="_top" xlink:title="Classe de base abstraite pour tous les éléments interactifs ferroviaires.">
<polygon fill="white" stroke="#666666" points="998,-140 839,-140 839,-121 998,-121 998,-140"/>
<text text-anchor="middle" x="918.5" y="-128" font-family="Helvetica,sans-Serif" font-size="10.00">Modules/Elements/Element.h</text>
</a>
</g>
</g>
<!-- Node25&#45;&gt;Node26 -->
<g id="edge32_Node000025_Node000026" class="edge">
<title>Node25&#45;&gt;Node26</title>
<g id="a_edge32_Node000025_Node000026"><a xlink:title=" ">
<path fill="none" stroke="#63b8ff" d="M967.77,-175.84C958.14,-167.17 945.81,-156.08 935.89,-147.15"/>
<polygon fill="#63b8ff" stroke="#63b8ff" points="938.01,-144.35 928.24,-140.27 933.33,-149.56 938.01,-144.35"/>
</a>
</g>
</g>
<!-- Node26&#45;&gt;Node11 -->
<g id="edge33_Node000026_Node000011" class="edge">
<title>Node26&#45;&gt;Node11</title>
<g id="a_edge33_Node000026_Node000011"><a xlink:title=" ">
<path fill="none" stroke="#63b8ff" d="M910.8,-120.94C893.15,-101.31 849.5,-52.76 826.39,-27.07"/>
<polygon fill="#63b8ff" stroke="#63b8ff" points="828.7,-24.4 819.41,-19.3 823.5,-29.08 828.7,-24.4"/>
</a>
</g>
</g>
<!-- Node26&#45;&gt;Node18 -->
<g id="edge34_Node000026_Node000018" class="edge">
<title>Node26&#45;&gt;Node18</title>
<g id="a_edge34_Node000026_Node000018"><a xlink:title=" ">
<path fill="none" stroke="#63b8ff" d="M873.57,-120.99C821.43,-111.12 735,-94.76 675.29,-83.46"/>
<polygon fill="#63b8ff" stroke="#63b8ff" points="675.69,-79.97 665.21,-81.55 674.39,-86.85 675.69,-79.97"/>
</a>
</g>
</g>
<!-- Node27&#45;&gt;Node24 -->
<g id="edge37_Node000027_Node000024" class="edge">
<title>Node27&#45;&gt;Node24</title>
<g id="a_edge37_Node000027_Node000024"><a xlink:title=" ">
<path fill="none" stroke="#63b8ff" d="M1045.64,-307.99C1016.25,-297.94 967.19,-281.16 934.11,-269.84"/>
<polygon fill="#63b8ff" stroke="#63b8ff" points="934.99,-266.44 924.39,-266.52 932.72,-273.07 934.99,-266.44"/>
</a>
</g>
</g>
<!-- Node27&#45;&gt;Node28 -->
<g id="edge38_Node000027_Node000028" class="edge">
<title>Node27&#45;&gt;Node28</title>
<g id="a_edge38_Node000027_Node000028"><a xlink:title=" ">
<path fill="none" stroke="#63b8ff" d="M1070.5,-307.87C1070.5,-301.11 1070.5,-291.35 1070.5,-282.26"/>
<polygon fill="#63b8ff" stroke="#63b8ff" points="1074,-282.11 1070.5,-272.11 1067,-282.11 1074,-282.11"/>
</a>
</g>
</g>
<!-- Node28&#45;&gt;Node11 -->
<g id="edge39_Node000028_Node000011" class="edge">
<title>Node28&#45;&gt;Node11</title>
<g id="a_edge39_Node000028_Node000011"><a xlink:title=" ">
<path fill="none" stroke="#63b8ff" d="M1074.16,-241.95C1077.72,-225.36 1081.3,-197.33 1071.5,-176 1028.53,-82.42 903.24,-36.01 843.67,-18.73"/>
<polygon fill="#63b8ff" stroke="#63b8ff" points="844.26,-15.26 833.69,-15.93 842.37,-22 844.26,-15.26"/>
</a>
</g>
</g>
<!-- Node28&#45;&gt;Node16 -->
<g id="edge40_Node000028_Node000016" class="edge">
<title>Node28&#45;&gt;Node16</title>
<g id="a_edge40_Node000028_Node000016"><a xlink:title=" ">
<path fill="none" stroke="#63b8ff" d="M1013.93,-241.9C979.36,-232.78 934.45,-220.01 895.5,-206 894.11,-205.5 892.69,-204.97 891.27,-204.41"/>
<polygon fill="#63b8ff" stroke="#63b8ff" points="892.52,-201.15 881.94,-200.57 889.85,-207.62 892.52,-201.15"/>
</a>
</g>
</g>
<!-- Node28&#45;&gt;Node25 -->
<g id="edge41_Node000028_Node000025" class="edge">
<title>Node28&#45;&gt;Node25</title>
<g id="a_edge41_Node000028_Node000025"><a xlink:title=" ">
<path fill="none" stroke="#63b8ff" d="M1051.19,-241.8C1039.37,-233.1 1024.04,-221.82 1010.96,-212.2"/>
<polygon fill="#63b8ff" stroke="#63b8ff" points="1012.88,-209.27 1002.75,-206.16 1008.74,-214.91 1012.88,-209.27"/>
</a>
</g>
</g>
<!-- Node29 -->
<g id="Node000029" class="node">
<title>Node29</title>
<g id="a_Node000029"><a xlink:href="../../d6/d01/CoordinateLatLon_8h.html" target="_top" xlink:title="Représentation d&#39;une coordonnée géographique WGS&#45;84 (latitude, longitude).">
<polygon fill="white" stroke="#666666" points="1256,-206 1119,-206 1119,-176 1256,-176 1256,-206"/>
<text text-anchor="start" x="1127" y="-194" font-family="Helvetica,sans-Serif" font-size="10.00">Engine/Core/Coordinates</text>
<text text-anchor="middle" x="1187.5" y="-183" font-family="Helvetica,sans-Serif" font-size="10.00">/CoordinateLatLon.h</text>
</a>
</g>
</g>
<!-- Node28&#45;&gt;Node29 -->
<g id="edge42_Node000028_Node000029" class="edge">
<title>Node28&#45;&gt;Node29</title>
<g id="a_edge42_Node000028_Node000029"><a xlink:title=" ">
<path fill="none" stroke="#63b8ff" d="M1096.18,-241.95C1112.79,-232.87 1134.62,-220.93 1152.77,-211"/>
<polygon fill="#63b8ff" stroke="#63b8ff" points="1154.79,-213.88 1161.88,-206.01 1151.43,-207.74 1154.79,-213.88"/>
</a>
</g>
</g>
<!-- Node30 -->
<g id="Node000030" class="node">
<title>Node30</title>
<g id="a_Node000030"><a xlink:href="../../db/d03/CoordinateXY_8h.html" target="_top" xlink:title="Représentation d&#39;une coordonnée plane en mètres (système métrique UTM).">
<polygon fill="white" stroke="#666666" points="1411,-206 1274,-206 1274,-176 1411,-176 1411,-206"/>
<text text-anchor="start" x="1282" y="-194" font-family="Helvetica,sans-Serif" font-size="10.00">Engine/Core/Coordinates</text>
<text text-anchor="middle" x="1342.5" y="-183" font-family="Helvetica,sans-Serif" font-size="10.00">/CoordinateXY.h</text>
</a>
</g>
</g>
<!-- Node28&#45;&gt;Node30 -->
<g id="edge43_Node000028_Node000030" class="edge">
<title>Node28&#45;&gt;Node30</title>
<g id="a_edge43_Node000028_Node000030"><a xlink:title=" ">
<path fill="none" stroke="#63b8ff" d="M1130.19,-241.95C1172.35,-232.03 1228.98,-218.71 1273.15,-208.32"/>
<polygon fill="#63b8ff" stroke="#63b8ff" points="1274.02,-211.71 1282.95,-206.01 1272.41,-204.9 1274.02,-211.71"/>
</a>
</g>
</g>
<!-- Node31&#45;&gt;Node24 -->
<g id="edge45_Node000031_Node000024" class="edge">
<title>Node31&#45;&gt;Node24</title>
<g id="a_edge45_Node000031_Node000024"><a xlink:title=" ">
<path fill="none" stroke="#63b8ff" d="M1184.93,-307.99C1120.66,-296.74 1008.18,-277.04 945.32,-266.03"/>
<polygon fill="#63b8ff" stroke="#63b8ff" points="945.75,-262.55 935.3,-264.27 944.55,-269.44 945.75,-262.55"/>
</a>
</g>
</g>
<!-- Node31&#45;&gt;Node32 -->
<g id="edge46_Node000031_Node000032" class="edge">
<title>Node31&#45;&gt;Node32</title>
<g id="a_edge46_Node000031_Node000032"><a xlink:title=" ">
<path fill="none" stroke="#63b8ff" d="M1245.3,-307.87C1255.96,-300.08 1272.04,-288.32 1285.91,-278.17"/>
<polygon fill="#63b8ff" stroke="#63b8ff" points="1288.19,-280.84 1294.2,-272.11 1284.06,-275.19 1288.19,-280.84"/>
</a>
</g>
</g>
<!-- Node32&#45;&gt;Node11 -->
<g id="edge50_Node000032_Node000011" class="edge">
<title>Node32&#45;&gt;Node11</title>
<g id="a_edge50_Node000032_Node000011"><a xlink:title=" ">
<path fill="none" stroke="#63b8ff" d="M1360.15,-241.94C1398.21,-228.02 1442.4,-204.66 1420.5,-176 1348.1,-81.23 958.42,-27.96 843.45,-14.14"/>
<polygon fill="#63b8ff" stroke="#63b8ff" points="843.84,-10.66 833.5,-12.96 843.02,-17.61 843.84,-10.66"/>
</a>
</g>
</g>
<!-- Node32&#45;&gt;Node16 -->
<g id="edge51_Node000032_Node000016" class="edge">
<title>Node32&#45;&gt;Node16</title>
<g id="a_edge51_Node000032_Node000016"><a xlink:title=" ">
<path fill="none" stroke="#63b8ff" d="M1237.35,-249.58C1134.84,-240.48 958.09,-223.03 895.5,-206 893.61,-205.49 891.69,-204.88 889.78,-204.21"/>
<polygon fill="#63b8ff" stroke="#63b8ff" points="891.02,-200.94 880.44,-200.51 888.44,-207.45 891.02,-200.94"/>
</a>
</g>
</g>
<!-- Node32&#45;&gt;Node23 -->
<g id="edge49_Node000032_Node000023" class="edge">
<title>Node32&#45;&gt;Node23</title>
<g id="a_edge49_Node000032_Node000023"><a xlink:title=" ">
<path fill="none" stroke="#63b8ff" d="M1389.75,-253.01C1463.28,-248.32 1567.08,-236.38 1592.5,-206 1601.06,-195.77 1598.03,-188.13 1592.5,-176 1558.56,-101.46 1526.76,-91.62 1453.5,-55 1398.42,-27.47 1326.84,-16.92 1283.63,-12.92"/>
<polygon fill="#63b8ff" stroke="#63b8ff" points="1283.81,-9.42 1273.55,-12.05 1283.21,-16.39 1283.81,-9.42"/>
</a>
</g>
</g>
<!-- Node32&#45;&gt;Node25 -->
<g id="edge54_Node000032_Node000025" class="edge">
<title>Node32&#45;&gt;Node25</title>
<g id="a_edge54_Node000032_Node000025"><a xlink:title=" ">
<path fill="none" stroke="#63b8ff" d="M1241.08,-241.95C1189.28,-231.91 1119.49,-218.37 1065.62,-207.93"/>
<polygon fill="#63b8ff" stroke="#63b8ff" points="1066.23,-204.48 1055.75,-206.01 1064.9,-211.35 1066.23,-204.48"/>
</a>
</g>
</g>
<!-- Node32&#45;&gt;Node29 -->
<g id="edge52_Node000032_Node000029" class="edge">
<title>Node32&#45;&gt;Node29</title>
<g id="a_edge52_Node000032_Node000029"><a xlink:title=" ">
<path fill="none" stroke="#63b8ff" d="M1285.85,-241.95C1267.71,-232.74 1243.8,-220.6 1224.09,-210.59"/>
<polygon fill="#63b8ff" stroke="#63b8ff" points="1225.59,-207.42 1215.09,-206.01 1222.42,-213.66 1225.59,-207.42"/>
</a>
</g>
</g>
<!-- Node32&#45;&gt;Node30 -->
<g id="edge53_Node000032_Node000030" class="edge">
<title>Node32&#45;&gt;Node30</title>
<g id="a_edge53_Node000032_Node000030"><a xlink:title=" ">
<path fill="none" stroke="#63b8ff" d="M1319.94,-241.8C1323.47,-234.01 1327.93,-224.16 1331.95,-215.28"/>
<polygon fill="#63b8ff" stroke="#63b8ff" points="1335.14,-216.72 1336.08,-206.16 1328.77,-213.83 1335.14,-216.72"/>
</a>
</g>
</g>
<!-- Node33 -->
<g id="Node000033" class="node">
<title>Node33</title>
<g id="a_Node000033"><a xlink:title=" ">
<polygon fill="#e0e0e0" stroke="#999999" points="1509.5,-200.5 1467.5,-200.5 1467.5,-181.5 1509.5,-181.5 1509.5,-200.5"/>
<text text-anchor="middle" x="1488.5" y="-188.5" font-family="Helvetica,sans-Serif" font-size="10.00">array</text>
</a>
</g>
</g>
<!-- Node32&#45;&gt;Node33 -->
<g id="edge47_Node000032_Node000033" class="edge">
<title>Node32&#45;&gt;Node33</title>
<g id="a_edge47_Node000032_Node000033"><a xlink:title=" ">
<path fill="none" stroke="#63b8ff" d="M1354.08,-241.96C1382.11,-232.15 1420.19,-218.61 1453.5,-206 1454.92,-205.46 1456.36,-204.91 1457.82,-204.35"/>
<polygon fill="#63b8ff" stroke="#63b8ff" points="1459.42,-207.48 1467.45,-200.57 1456.86,-200.96 1459.42,-207.48"/>
</a>
</g>
</g>
<!-- Node34 -->
<g id="Node000034" class="node">
<title>Node34</title>
<g id="a_Node000034"><a xlink:title=" ">
<polygon fill="#e0e0e0" stroke="#999999" points="1583.5,-200.5 1527.5,-200.5 1527.5,-181.5 1583.5,-181.5 1583.5,-200.5"/>
<text text-anchor="middle" x="1555.5" y="-188.5" font-family="Helvetica,sans-Serif" font-size="10.00">optional</text>
</a>
</g>
</g>
<!-- Node32&#45;&gt;Node34 -->
<g id="edge48_Node000032_Node000034" class="edge">
<title>Node32&#45;&gt;Node34</title>
<g id="a_edge48_Node000032_Node000034"><a xlink:title=" ">
<path fill="none" stroke="#63b8ff" d="M1380.07,-241.93C1420.46,-232.87 1472.84,-220.15 1518.5,-206 1520.42,-205.41 1522.38,-204.76 1524.36,-204.09"/>
<polygon fill="#63b8ff" stroke="#63b8ff" points="1525.9,-207.26 1534.13,-200.59 1523.54,-200.67 1525.9,-207.26"/>
</a>
</g>
</g>
</g>
</svg>
