<?xml version="1.0" encoding="UTF-8" standalone="no"?>
<!DOCTYPE svg PUBLIC "-//W3C//DTD SVG 1.1//EN"
 "http://www.w3.org/Graphics/SVG/1.1/DTD/svg11.dtd">
<!-- Generated by graphviz version 2.43.0 (0)
 -->
<!-- Title: SimulateurFerroviaire/Engine/Core/Topology/TopologyRenderer.cpp Pages: 1 -->
<svg width="1114pt" height="478pt"
 viewBox="0.00 0.00 1114.00 478.00" xmlns="http://www.w3.org/2000/svg" xmlns:xlink="http://www.w3.org/1999/xlink">
<g id="graph0" class="graph" transform="scale(1 1) rotate(0) translate(4 474)">
<title>SimulateurFerroviaire/Engine/Core/Topology/TopologyRenderer.cpp</title>
<!-- Node1 -->
<g id="Node000001" class="node">
<title>Node1</title>
<g id="a_Node000001"><a xlink:title="Implémentation de l&#39;exporteur GeoJSON.">
<polygon fill="#999999" stroke="#666666" points="1056.5,-470 929.5,-470 929.5,-429 1056.5,-429 1056.5,-470"/>
<text text-anchor="start" x="937.5" y="-458" font-family="Helvetica,sans-Serif" font-size="10.00">SimulateurFerroviaire</text>
<text text-anchor="start" x="937.5" y="-447" font-family="Helvetica,sans-Serif" font-size="10.00">/Engine/Core/Topology</text>
<text text-anchor="middle" x="993" y="-436" font-family="Helvetica,sans-Serif" font-size="10.00">/TopologyRenderer.cpp</text>
</a>
</g>
</g>
<!-- Node2 -->
<g id="Node000002" class="node">
<title>Node2</title>
<g id="a_Node000002"><a xlink:href="../../d2/d01/TopologyRenderer_8h.html" target="_top" xlink:title="Exporteur de topologie ferroviaire au format GeoJSON.">
<polygon fill="white" stroke="#666666" points="540.5,-327 427.5,-327 427.5,-308 540.5,-308 540.5,-327"/>
<text text-anchor="middle" x="484" y="-315" font-family="Helvetica,sans-Serif" font-size="10.00">TopologyRenderer.h</text>
</a>
</g>
</g>
<!-- Node1&#45;&gt;Node2 -->
<g id="edge1_Node000001_Node000002" class="edge">
<title>Node1&#45;&gt;Node2</title>
<g id="a_edge1_Node000001_Node000002"><a xlink:title=" ">
<path fill="none" stroke="#63b8ff" d="M929.31,-432.23C824.25,-405.4 617.35,-352.56 527.43,-329.59"/>
<polygon fill="#63b8ff" stroke="#63b8ff" points="528.12,-326.16 517.57,-327.07 526.39,-332.94 528.12,-326.16"/>
</a>
</g>
</g>
<!-- Node11 -->
<g id="Node000011" class="node">
<title>Node11</title>
<g id="a_Node000011"><a xlink:title=" ">
<polygon fill="#e0e0e0" stroke="#999999" points="770.5,-19 715.5,-19 715.5,0 770.5,0 770.5,-19"/>
<text text-anchor="middle" x="743" y="-7" font-family="Helvetica,sans-Serif" font-size="10.00">fstream</text>
</a>
</g>
</g>
<!-- Node1&#45;&gt;Node11 -->
<g id="edge38_Node000001_Node000011" class="edge">
<title>Node1&#45;&gt;Node11</title>
<g id="a_edge38_Node000001_Node000011"><a xlink:title=" ">
<path fill="none" stroke="#63b8ff" d="M1000.17,-428.98C1008.76,-403.81 1022,-358.5 1022,-318.5 1022,-318.5 1022,-318.5 1022,-129.5 1022,-25.77 856.81,-11.22 780.64,-10.02"/>
<polygon fill="#63b8ff" stroke="#63b8ff" points="780.55,-6.52 770.52,-9.93 780.48,-13.52 780.55,-6.52"/>
</a>
</g>
</g>
<!-- Node21 -->
<g id="Node000021" class="node">
<title>Node21</title>
<g id="a_Node000021"><a xlink:href="../../de/d00/TopologyRepository_8h.html" target="_top" xlink:title="Singleton de stockage des données topologiques ferroviaires.">
<polygon fill="white" stroke="#666666" points="941.5,-393 818.5,-393 818.5,-363 941.5,-363 941.5,-393"/>
<text text-anchor="start" x="826.5" y="-381" font-family="Helvetica,sans-Serif" font-size="10.00">Engine/Core/Topology</text>
<text text-anchor="middle" x="880" y="-370" font-family="Helvetica,sans-Serif" font-size="10.00">/TopologyRepository.h</text>
</a>
</g>
</g>
<!-- Node1&#45;&gt;Node21 -->
<g id="edge31_Node000001_Node000021" class="edge">
<title>Node1&#45;&gt;Node21</title>
<g id="a_edge31_Node000001_Node000021"><a xlink:title=" ">
<path fill="none" stroke="#63b8ff" d="M961.22,-428.96C945.72,-419.42 927.14,-407.99 911.66,-398.47"/>
<polygon fill="#63b8ff" stroke="#63b8ff" points="913.3,-395.37 902.95,-393.11 909.63,-401.33 913.3,-395.37"/>
</a>
</g>
</g>
<!-- Node25 -->
<g id="Node000025" class="node">
<title>Node25</title>
<g id="a_Node000025"><a xlink:title=" ">
<polygon fill="#e0e0e0" stroke="#999999" points="1106,-387.5 1050,-387.5 1050,-368.5 1106,-368.5 1106,-387.5"/>
<text text-anchor="middle" x="1078" y="-375.5" font-family="Helvetica,sans-Serif" font-size="10.00">iomanip</text>
</a>
</g>
</g>
<!-- Node1&#45;&gt;Node25 -->
<g id="edge39_Node000001_Node000025" class="edge">
<title>Node1&#45;&gt;Node25</title>
<g id="a_edge39_Node000001_Node000025"><a xlink:title=" ">
<path fill="none" stroke="#63b8ff" d="M1017.13,-428.77C1030.53,-417.81 1046.95,-404.39 1059.35,-394.25"/>
<polygon fill="#63b8ff" stroke="#63b8ff" points="1061.69,-396.86 1067.21,-387.82 1057.26,-391.44 1061.69,-396.86"/>
</a>
</g>
</g>
<!-- Node3 -->
<g id="Node000003" class="node">
<title>Node3</title>
<g id="a_Node000003"><a xlink:title=" ">
<polygon fill="#e0e0e0" stroke="#999999" points="418,-19 374,-19 374,0 418,0 418,-19"/>
<text text-anchor="middle" x="396" y="-7" font-family="Helvetica,sans-Serif" font-size="10.00">string</text>
</a>
</g>
</g>
<!-- Node2&#45;&gt;Node3 -->
<g id="edge2_Node000002_Node000003" class="edge">
<title>Node2&#45;&gt;Node3</title>
<g id="a_edge2_Node000002_Node000003"><a xlink:title=" ">
<path fill="none" stroke="#63b8ff" d="M427.25,-314.89C359.47,-311.64 252.08,-301.79 227,-272 154.16,-185.46 313.32,-65.67 373.87,-24.82"/>
<polygon fill="#63b8ff" stroke="#63b8ff" points="375.98,-27.61 382.37,-19.16 372.11,-21.79 375.98,-27.61"/>
</a>
</g>
</g>
<!-- Node4 -->
<g id="Node000004" class="node">
<title>Node4</title>
<g id="a_Node000004"><a xlink:title=" ">
<polygon fill="#e0e0e0" stroke="#999999" points="931.5,-200.5 884.5,-200.5 884.5,-181.5 931.5,-181.5 931.5,-200.5"/>
<text text-anchor="middle" x="908" y="-188.5" font-family="Helvetica,sans-Serif" font-size="10.00">vector</text>
</a>
</g>
</g>
<!-- Node2&#45;&gt;Node4 -->
<g id="edge3_Node000002_Node000004" class="edge">
<title>Node2&#45;&gt;Node4</title>
<g id="a_edge3_Node000002_Node000004"><a xlink:title=" ">
<path fill="none" stroke="#63b8ff" d="M540.5,-311.06C592.88,-304.98 672.5,-293.11 739,-272 753.53,-267.39 837.69,-226.49 881.5,-205.03"/>
<polygon fill="#63b8ff" stroke="#63b8ff" points="883.26,-208.06 890.7,-200.51 880.18,-201.78 883.26,-208.06"/>
</a>
</g>
</g>
<!-- Node5 -->
<g id="Node000005" class="node">
<title>Node5</title>
<g id="a_Node000005"><a xlink:href="../../de/d01/StraightBlock_8h.html" target="_top" xlink:title="Modèle de domaine d&#39;un bloc de voie droite (Straight).">
<polygon fill="white" stroke="#666666" points="730,-272 578,-272 578,-242 730,-242 730,-272"/>
<text text-anchor="start" x="586" y="-260" font-family="Helvetica,sans-Serif" font-size="10.00">Modules/Elements/Shunting</text>
<text text-anchor="middle" x="654" y="-249" font-family="Helvetica,sans-Serif" font-size="10.00">Elements/StraightBlock.h</text>
</a>
</g>
</g>
<!-- Node2&#45;&gt;Node5 -->
<g id="edge4_Node000002_Node000005" class="edge">
<title>Node2&#45;&gt;Node5</title>
<g id="a_edge4_Node000002_Node000005"><a xlink:title=" ">
<path fill="none" stroke="#63b8ff" d="M508.72,-307.99C533.4,-299.5 572.05,-286.2 603.28,-275.45"/>
<polygon fill="#63b8ff" stroke="#63b8ff" points="604.81,-278.63 613.13,-272.06 602.53,-272.01 604.81,-278.63"/>
</a>
</g>
</g>
<!-- Node8 -->
<g id="Node000008" class="node">
<title>Node8</title>
<g id="a_Node000008"><a xlink:href="../../dd/d00/Logger_8h.html" target="_top" xlink:title="Système de journalisation à 5 niveaux de trace, un fichier par moteur.">
<polygon fill="white" stroke="#666666" points="225.5,-85 114.5,-85 114.5,-55 225.5,-55 225.5,-85"/>
<text text-anchor="start" x="122.5" y="-73" font-family="Helvetica,sans-Serif" font-size="10.00">Engine/Core/Logger</text>
<text text-anchor="middle" x="170" y="-62" font-family="Helvetica,sans-Serif" font-size="10.00">/Logger.h</text>
</a>
</g>
</g>
<!-- Node2&#45;&gt;Node8 -->
<g id="edge29_Node000002_Node000008" class="edge">
<title>Node2&#45;&gt;Node8</title>
<g id="a_edge29_Node000002_Node000008"><a xlink:title=" ">
<path fill="none" stroke="#63b8ff" d="M427.47,-315.67C352.33,-313.3 225.38,-304.45 194,-272 147.7,-224.13 156.8,-136.99 164.65,-94.95"/>
<polygon fill="#63b8ff" stroke="#63b8ff" points="168.1,-95.54 166.63,-85.05 161.23,-94.17 168.1,-95.54"/>
</a>
</g>
</g>
<!-- Node17 -->
<g id="Node000017" class="node">
<title>Node17</title>
<g id="a_Node000017"><a xlink:href="../../dc/d01/SwitchBlock_8h.html" target="_top" xlink:title="Modèle de domaine d&#39;un aiguillage ferroviaire à 3 branches.">
<polygon fill="white" stroke="#666666" points="560,-272 408,-272 408,-242 560,-242 560,-272"/>
<text text-anchor="start" x="416" y="-260" font-family="Helvetica,sans-Serif" font-size="10.00">Modules/Elements/Shunting</text>
<text text-anchor="middle" x="484" y="-249" font-family="Helvetica,sans-Serif" font-size="10.00">Elements/SwitchBlock.h</text>
</a>
</g>
</g>
<!-- Node2&#45;&gt;Node17 -->
<g id="edge20_Node000002_Node000017" class="edge">
<title>Node2&#45;&gt;Node17</title>
<g id="a_edge20_Node000002_Node000017"><a xlink:title=" ">
<path fill="none" stroke="#63b8ff" d="M484,-307.87C484,-301.11 484,-291.35 484,-282.26"/>
<polygon fill="#63b8ff" stroke="#63b8ff" points="487.5,-282.11 484,-272.11 480.5,-282.11 487.5,-282.11"/>
</a>
</g>
</g>
<!-- Node20 -->
<g id="Node000020" class="node">
<title>Node20</title>
<g id="a_Node000020"><a xlink:title=" ">
<polygon fill="#e0e0e0" stroke="#999999" points="389.5,-266.5 236.5,-266.5 236.5,-247.5 389.5,-247.5 389.5,-266.5"/>
<text text-anchor="middle" x="313" y="-254.5" font-family="Helvetica,sans-Serif" font-size="10.00">External/nlohmann/json.hpp</text>
</a>
</g>
</g>
<!-- Node2&#45;&gt;Node20 -->
<g id="edge30_Node000002_Node000020" class="edge">
<title>Node2&#45;&gt;Node20</title>
<g id="a_edge30_Node000002_Node000020"><a xlink:title=" ">
<path fill="none" stroke="#63b8ff" d="M459.14,-307.99C429.75,-297.94 380.69,-281.16 347.61,-269.84"/>
<polygon fill="#63b8ff" stroke="#63b8ff" points="348.49,-266.44 337.89,-266.52 346.22,-273.07 348.49,-266.44"/>
</a>
</g>
</g>
<!-- Node5&#45;&gt;Node3 -->
<g id="edge5_Node000005_Node000003" class="edge">
<title>Node5&#45;&gt;Node3</title>
<g id="a_edge5_Node000005_Node000003"><a xlink:title=" ">
<path fill="none" stroke="#63b8ff" d="M719.92,-241.96C768.97,-230.85 828.65,-215.64 836,-206 844.08,-195.4 843.59,-186.96 836,-176 740,-37.32 512.25,-14.69 428.03,-11.12"/>
<polygon fill="#63b8ff" stroke="#63b8ff" points="428.16,-7.62 418.04,-10.76 427.9,-14.62 428.16,-7.62"/>
</a>
</g>
</g>
<!-- Node5&#45;&gt;Node4 -->
<g id="edge6_Node000005_Node000004" class="edge">
<title>Node5&#45;&gt;Node4</title>
<g id="a_edge6_Node000005_Node000004"><a xlink:title=" ">
<path fill="none" stroke="#63b8ff" d="M724.62,-241.99C767.1,-232.99 822.05,-220.32 870,-206 872.13,-205.36 874.32,-204.67 876.52,-203.94"/>
<polygon fill="#63b8ff" stroke="#63b8ff" points="877.76,-207.21 886.05,-200.62 875.46,-200.6 877.76,-207.21"/>
</a>
</g>
</g>
<!-- Node6 -->
<g id="Node000006" class="node">
<title>Node6</title>
<g id="a_Node000006"><a xlink:href="../../df/d02/ShuntingElement_8h.html" target="_top" xlink:title="Interface abstraite pour tous les éléments de shuntage ferroviaire.">
<polygon fill="white" stroke="#666666" points="827.5,-200.5 718.5,-200.5 718.5,-181.5 827.5,-181.5 827.5,-200.5"/>
<text text-anchor="middle" x="773" y="-188.5" font-family="Helvetica,sans-Serif" font-size="10.00">ShuntingElement.h</text>
</a>
</g>
</g>
<!-- Node5&#45;&gt;Node6 -->
<g id="edge7_Node000005_Node000006" class="edge">
<title>Node5&#45;&gt;Node6</title>
<g id="a_edge7_Node000005_Node000006"><a xlink:title=" ">
<path fill="none" stroke="#63b8ff" d="M680.12,-241.95C700.34,-231.08 728.18,-216.11 748.09,-205.4"/>
<polygon fill="#63b8ff" stroke="#63b8ff" points="750.01,-208.34 757.16,-200.52 746.7,-202.17 750.01,-208.34"/>
</a>
</g>
</g>
<!-- Node15 -->
<g id="Node000015" class="node">
<title>Node15</title>
<g id="a_Node000015"><a xlink:href="../../d6/d01/CoordinateLatLon_8h.html" target="_top" xlink:title="Représentation d&#39;une coordonnée géographique WGS&#45;84 (latitude, longitude).">
<polygon fill="white" stroke="#666666" points="700.5,-206 563.5,-206 563.5,-176 700.5,-176 700.5,-206"/>
<text text-anchor="start" x="571.5" y="-194" font-family="Helvetica,sans-Serif" font-size="10.00">Engine/Core/Coordinates</text>
<text text-anchor="middle" x="632" y="-183" font-family="Helvetica,sans-Serif" font-size="10.00">/CoordinateLatLon.h</text>
</a>
</g>
</g>
<!-- Node5&#45;&gt;Node15 -->
<g id="edge18_Node000005_Node000015" class="edge">
<title>Node5&#45;&gt;Node15</title>
<g id="a_edge18_Node000005_Node000015"><a xlink:title=" ">
<path fill="none" stroke="#63b8ff" d="M649.12,-241.8C646.5,-234.17 643.2,-224.57 640.2,-215.84"/>
<polygon fill="#63b8ff" stroke="#63b8ff" points="643.43,-214.48 636.87,-206.16 636.81,-216.76 643.43,-214.48"/>
</a>
</g>
</g>
<!-- Node16 -->
<g id="Node000016" class="node">
<title>Node16</title>
<g id="a_Node000016"><a xlink:href="../../db/d03/CoordinateXY_8h.html" target="_top" xlink:title="Représentation d&#39;une coordonnée plane en mètres (système métrique UTM).">
<polygon fill="white" stroke="#666666" points="545.5,-206 408.5,-206 408.5,-176 545.5,-176 545.5,-206"/>
<text text-anchor="start" x="416.5" y="-194" font-family="Helvetica,sans-Serif" font-size="10.00">Engine/Core/Coordinates</text>
<text text-anchor="middle" x="477" y="-183" font-family="Helvetica,sans-Serif" font-size="10.00">/CoordinateXY.h</text>
</a>
</g>
</g>
<!-- Node5&#45;&gt;Node16 -->
<g id="edge19_Node000005_Node000016" class="edge">
<title>Node5&#45;&gt;Node16</title>
<g id="a_edge19_Node000005_Node000016"><a xlink:title=" ">
<path fill="none" stroke="#63b8ff" d="M615.16,-241.95C588.76,-232.41 553.64,-219.71 525.42,-209.51"/>
<polygon fill="#63b8ff" stroke="#63b8ff" points="526.35,-206.12 515.75,-206.01 523.97,-212.7 526.35,-206.12"/>
</a>
</g>
</g>
<!-- Node7 -->
<g id="Node000007" class="node">
<title>Node7</title>
<g id="a_Node000007"><a xlink:href="../../d5/d02/Element_8h.html" target="_top" xlink:title="Classe de base abstraite pour tous les éléments interactifs ferroviaires.">
<polygon fill="white" stroke="#666666" points="566.5,-140 407.5,-140 407.5,-121 566.5,-121 566.5,-140"/>
<text text-anchor="middle" x="487" y="-128" font-family="Helvetica,sans-Serif" font-size="10.00">Modules/Elements/Element.h</text>
</a>
</g>
</g>
<!-- Node6&#45;&gt;Node7 -->
<g id="edge8_Node000006_Node000007" class="edge">
<title>Node6&#45;&gt;Node7</title>
<g id="a_edge8_Node000006_Node000007"><a xlink:title=" ">
<path fill="none" stroke="#63b8ff" d="M734.44,-181.45C726.06,-179.62 717.24,-177.73 709,-176 651.59,-163.97 585.69,-150.84 540.69,-141.99"/>
<polygon fill="#63b8ff" stroke="#63b8ff" points="541.34,-138.55 530.85,-140.06 539.99,-145.42 541.34,-138.55"/>
</a>
</g>
</g>
<!-- Node7&#45;&gt;Node3 -->
<g id="edge9_Node000007_Node000003" class="edge">
<title>Node7&#45;&gt;Node3</title>
<g id="a_edge9_Node000007_Node000003"><a xlink:title=" ">
<path fill="none" stroke="#63b8ff" d="M480.46,-120.94C465.51,-101.4 428.64,-53.18 408.92,-27.4"/>
<polygon fill="#63b8ff" stroke="#63b8ff" points="411.59,-25.12 402.73,-19.3 406.02,-29.37 411.59,-25.12"/>
</a>
</g>
</g>
<!-- Node7&#45;&gt;Node8 -->
<g id="edge10_Node000007_Node000008" class="edge">
<title>Node7&#45;&gt;Node8</title>
<g id="a_edge10_Node000007_Node000008"><a xlink:title=" ">
<path fill="none" stroke="#63b8ff" d="M440.91,-120.99C386.9,-111.03 297.03,-94.44 235.73,-83.13"/>
<polygon fill="#63b8ff" stroke="#63b8ff" points="236.24,-79.66 225.77,-81.29 234.97,-86.55 236.24,-79.66"/>
</a>
</g>
</g>
<!-- Node8&#45;&gt;Node3 -->
<g id="edge16_Node000008_Node000003" class="edge">
<title>Node8&#45;&gt;Node3</title>
<g id="a_edge16_Node000008_Node000003"><a xlink:title=" ">
<path fill="none" stroke="#63b8ff" d="M225.54,-55.02C262.3,-45.71 311.83,-33.05 364.19,-19.18"/>
<polygon fill="#63b8ff" stroke="#63b8ff" points="365.23,-22.53 374,-16.58 363.43,-15.76 365.23,-22.53"/>
</a>
</g>
</g>
<!-- Node9 -->
<g id="Node000009" class="node">
<title>Node9</title>
<g id="a_Node000009"><a xlink:title=" ">
<polygon fill="#e0e0e0" stroke="#999999" points="118,-19 74,-19 74,0 118,0 118,-19"/>
<text text-anchor="middle" x="96" y="-7" font-family="Helvetica,sans-Serif" font-size="10.00">ctime</text>
</a>
</g>
</g>
<!-- Node8&#45;&gt;Node9 -->
<g id="edge11_Node000008_Node000009" class="edge">
<title>Node8&#45;&gt;Node9</title>
<g id="a_edge11_Node000008_Node000009"><a xlink:title=" ">
<path fill="none" stroke="#63b8ff" d="M152.09,-54.84C140.91,-46 126.52,-34.63 115.12,-25.62"/>
<polygon fill="#63b8ff" stroke="#63b8ff" points="117.1,-22.72 107.09,-19.27 112.76,-28.21 117.1,-22.72"/>
</a>
</g>
</g>
<!-- Node10 -->
<g id="Node000010" class="node">
<title>Node10</title>
<g id="a_Node000010"><a xlink:title=" ">
<polygon fill="#e0e0e0" stroke="#999999" points="204,-19 136,-19 136,0 204,0 204,-19"/>
<text text-anchor="middle" x="170" y="-7" font-family="Helvetica,sans-Serif" font-size="10.00">filesystem</text>
</a>
</g>
</g>
<!-- Node8&#45;&gt;Node10 -->
<g id="edge12_Node000008_Node000010" class="edge">
<title>Node8&#45;&gt;Node10</title>
<g id="a_edge12_Node000008_Node000010"><a xlink:title=" ">
<path fill="none" stroke="#63b8ff" d="M170,-54.84C170,-47.21 170,-37.7 170,-29.45"/>
<polygon fill="#63b8ff" stroke="#63b8ff" points="173.5,-29.27 170,-19.27 166.5,-29.27 173.5,-29.27"/>
</a>
</g>
</g>
<!-- Node8&#45;&gt;Node11 -->
<g id="edge13_Node000008_Node000011" class="edge">
<title>Node8&#45;&gt;Node11</title>
<g id="a_edge13_Node000008_Node000011"><a xlink:title=" ">
<path fill="none" stroke="#63b8ff" d="M225.72,-63.31C341.72,-51.47 606.54,-24.43 705.11,-14.37"/>
<polygon fill="#63b8ff" stroke="#63b8ff" points="705.61,-17.84 715.21,-13.34 704.9,-10.87 705.61,-17.84"/>
</a>
</g>
</g>
<!-- Node12 -->
<g id="Node000012" class="node">
<title>Node12</title>
<g id="a_Node000012"><a xlink:title=" ">
<polygon fill="#e0e0e0" stroke="#999999" points="270,-19 222,-19 222,0 270,0 270,-19"/>
<text text-anchor="middle" x="246" y="-7" font-family="Helvetica,sans-Serif" font-size="10.00">mutex</text>
</a>
</g>
</g>
<!-- Node8&#45;&gt;Node12 -->
<g id="edge14_Node000008_Node000012" class="edge">
<title>Node8&#45;&gt;Node12</title>
<g id="a_edge14_Node000008_Node000012"><a xlink:title=" ">
<path fill="none" stroke="#63b8ff" d="M188.4,-54.84C199.88,-46 214.65,-34.63 226.36,-25.62"/>
<polygon fill="#63b8ff" stroke="#63b8ff" points="228.82,-28.14 234.61,-19.27 224.55,-22.59 228.82,-28.14"/>
</a>
</g>
</g>
<!-- Node13 -->
<g id="Node000013" class="node">
<title>Node13</title>
<g id="a_Node000013"><a xlink:title=" ">
<polygon fill="#e0e0e0" stroke="#999999" points="56,-19 0,-19 0,0 56,0 56,-19"/>
<text text-anchor="middle" x="28" y="-7" font-family="Helvetica,sans-Serif" font-size="10.00">sstream</text>
</a>
</g>
</g>
<!-- Node8&#45;&gt;Node13 -->
<g id="edge15_Node000008_Node000013" class="edge">
<title>Node8&#45;&gt;Node13</title>
<g id="a_edge15_Node000008_Node000013"><a xlink:title=" ">
<path fill="none" stroke="#63b8ff" d="M135.99,-54.99C112.4,-45.27 81.26,-32.44 58.48,-23.06"/>
<polygon fill="#63b8ff" stroke="#63b8ff" points="59.55,-19.71 48.97,-19.14 56.88,-26.18 59.55,-19.71"/>
</a>
</g>
</g>
<!-- Node14 -->
<g id="Node000014" class="node">
<title>Node14</title>
<g id="a_Node000014"><a xlink:title=" ">
<polygon fill="#e0e0e0" stroke="#999999" points="356,-19 288,-19 288,0 356,0 356,-19"/>
<text text-anchor="middle" x="322" y="-7" font-family="Helvetica,sans-Serif" font-size="10.00">windows.h</text>
</a>
</g>
</g>
<!-- Node8&#45;&gt;Node14 -->
<g id="edge17_Node000008_Node000014" class="edge">
<title>Node8&#45;&gt;Node14</title>
<g id="a_edge17_Node000008_Node000014"><a xlink:title=" ">
<path fill="none" stroke="#63b8ff" d="M206.41,-54.99C231.88,-45.18 265.59,-32.21 290.03,-22.81"/>
<polygon fill="#63b8ff" stroke="#63b8ff" points="291.48,-26 299.55,-19.14 288.96,-19.46 291.48,-26"/>
</a>
</g>
</g>
<!-- Node17&#45;&gt;Node3 -->
<g id="edge24_Node000017_Node000003" class="edge">
<title>Node17&#45;&gt;Node3</title>
<g id="a_edge24_Node000017_Node000003"><a xlink:title=" ">
<path fill="none" stroke="#63b8ff" d="M442.29,-241.86C425.81,-234 408.56,-222.42 399,-206 365.72,-148.84 381.36,-65.44 390.73,-28.85"/>
<polygon fill="#63b8ff" stroke="#63b8ff" points="394.14,-29.65 393.38,-19.08 387.39,-27.82 394.14,-29.65"/>
</a>
</g>
</g>
<!-- Node17&#45;&gt;Node4 -->
<g id="edge25_Node000017_Node000004" class="edge">
<title>Node17&#45;&gt;Node4</title>
<g id="a_edge25_Node000017_Node000004"><a xlink:title=" ">
<path fill="none" stroke="#63b8ff" d="M560.44,-243.3C563.33,-242.86 566.19,-242.42 569,-242 687.42,-224.27 717.85,-225.44 836,-206 848.54,-203.94 862.24,-201.36 874.29,-198.97"/>
<polygon fill="#63b8ff" stroke="#63b8ff" points="875.27,-202.35 884.39,-196.95 873.9,-195.48 875.27,-202.35"/>
</a>
</g>
</g>
<!-- Node17&#45;&gt;Node6 -->
<g id="edge28_Node000017_Node000006" class="edge">
<title>Node17&#45;&gt;Node6</title>
<g id="a_edge28_Node000017_Node000006"><a xlink:title=" ">
<path fill="none" stroke="#63b8ff" d="M547.42,-241.95C600.78,-230.14 675.96,-213.49 724.58,-202.72"/>
<polygon fill="#63b8ff" stroke="#63b8ff" points="725.53,-206.1 734.54,-200.52 724.02,-199.26 725.53,-206.1"/>
</a>
</g>
</g>
<!-- Node17&#45;&gt;Node13 -->
<g id="edge23_Node000017_Node000013" class="edge">
<title>Node17&#45;&gt;Node13</title>
<g id="a_edge23_Node000017_Node000013"><a xlink:title=" ">
<path fill="none" stroke="#63b8ff" d="M407.83,-243.47C337.96,-231.61 242.96,-214.4 227,-206 141.26,-160.89 68,-66.9 40.08,-27.97"/>
<polygon fill="#63b8ff" stroke="#63b8ff" points="42.6,-25.47 33.97,-19.32 36.88,-29.51 42.6,-25.47"/>
</a>
</g>
</g>
<!-- Node17&#45;&gt;Node15 -->
<g id="edge26_Node000017_Node000015" class="edge">
<title>Node17&#45;&gt;Node15</title>
<g id="a_edge26_Node000017_Node000015"><a xlink:title=" ">
<path fill="none" stroke="#63b8ff" d="M516.48,-241.95C538.17,-232.58 566.89,-220.16 590.27,-210.05"/>
<polygon fill="#63b8ff" stroke="#63b8ff" points="591.81,-213.19 599.6,-206.01 589.03,-206.77 591.81,-213.19"/>
</a>
</g>
</g>
<!-- Node17&#45;&gt;Node16 -->
<g id="edge27_Node000017_Node000016" class="edge">
<title>Node17&#45;&gt;Node16</title>
<g id="a_edge27_Node000017_Node000016"><a xlink:title=" ">
<path fill="none" stroke="#63b8ff" d="M482.45,-241.8C481.62,-234.26 480.59,-224.78 479.64,-216.13"/>
<polygon fill="#63b8ff" stroke="#63b8ff" points="483.12,-215.72 478.55,-206.16 476.16,-216.49 483.12,-215.72"/>
</a>
</g>
</g>
<!-- Node18 -->
<g id="Node000018" class="node">
<title>Node18</title>
<g id="a_Node000018"><a xlink:title=" ">
<polygon fill="#e0e0e0" stroke="#999999" points="352,-200.5 310,-200.5 310,-181.5 352,-181.5 352,-200.5"/>
<text text-anchor="middle" x="331" y="-188.5" font-family="Helvetica,sans-Serif" font-size="10.00">array</text>
</a>
</g>
</g>
<!-- Node17&#45;&gt;Node18 -->
<g id="edge21_Node000017_Node000018" class="edge">
<title>Node17&#45;&gt;Node18</title>
<g id="a_edge21_Node000017_Node000018"><a xlink:title=" ">
<path fill="none" stroke="#63b8ff" d="M450.42,-241.95C423.59,-230.73 386.34,-215.15 360.61,-204.39"/>
<polygon fill="#63b8ff" stroke="#63b8ff" points="361.94,-201.15 351.36,-200.52 359.24,-207.61 361.94,-201.15"/>
</a>
</g>
</g>
<!-- Node19 -->
<g id="Node000019" class="node">
<title>Node19</title>
<g id="a_Node000019"><a xlink:title=" ">
<polygon fill="#e0e0e0" stroke="#999999" points="292,-200.5 236,-200.5 236,-181.5 292,-181.5 292,-200.5"/>
<text text-anchor="middle" x="264" y="-188.5" font-family="Helvetica,sans-Serif" font-size="10.00">optional</text>
</a>
</g>
</g>
<!-- Node17&#45;&gt;Node19 -->
<g id="edge22_Node000017_Node000019" class="edge">
<title>Node17&#45;&gt;Node19</title>
<g id="a_edge22_Node000017_Node000019"><a xlink:title=" ">
<path fill="none" stroke="#63b8ff" d="M427.12,-241.95C390.79,-232.6 342.82,-219.59 301,-206 299.14,-205.4 297.23,-204.75 295.32,-204.08"/>
<polygon fill="#63b8ff" stroke="#63b8ff" points="296.38,-200.75 285.79,-200.64 294,-207.33 296.38,-200.75"/>
</a>
</g>
</g>
<!-- Node22 -->
<g id="Node000022" class="node">
<title>Node22</title>
<g id="a_Node000022"><a xlink:href="../../d6/d02/TopologyData_8h.html" target="_top" xlink:title="Conteneur central des données topologiques ferroviaires.">
<polygon fill="white" stroke="#666666" points="870,-327 778,-327 778,-308 870,-308 870,-327"/>
<text text-anchor="middle" x="824" y="-315" font-family="Helvetica,sans-Serif" font-size="10.00">TopologyData.h</text>
</a>
</g>
</g>
<!-- Node21&#45;&gt;Node22 -->
<g id="edge32_Node000021_Node000022" class="edge">
<title>Node21&#45;&gt;Node22</title>
<g id="a_edge32_Node000021_Node000022"><a xlink:title=" ">
<path fill="none" stroke="#63b8ff" d="M866.44,-362.84C858.32,-354.35 847.95,-343.52 839.5,-334.69"/>
<polygon fill="#63b8ff" stroke="#63b8ff" points="841.83,-332.07 832.39,-327.27 836.78,-336.91 841.83,-332.07"/>
</a>
</g>
</g>
<!-- Node22&#45;&gt;Node4 -->
<g id="edge34_Node000022_Node000004" class="edge">
<title>Node22&#45;&gt;Node4</title>
<g id="a_edge34_Node000022_Node000004"><a xlink:title=" ">
<path fill="none" stroke="#63b8ff" d="M819.77,-307.97C813.18,-293.35 802.43,-263.02 815,-242 822.06,-230.19 852.8,-215.05 877.04,-204.53"/>
<polygon fill="#63b8ff" stroke="#63b8ff" points="878.44,-207.74 886.27,-200.61 875.7,-201.3 878.44,-207.74"/>
</a>
</g>
</g>
<!-- Node22&#45;&gt;Node5 -->
<g id="edge36_Node000022_Node000005" class="edge">
<title>Node22&#45;&gt;Node5</title>
<g id="a_edge36_Node000022_Node000005"><a xlink:title=" ">
<path fill="none" stroke="#63b8ff" d="M799.28,-307.99C774.6,-299.5 735.95,-286.2 704.72,-275.45"/>
<polygon fill="#63b8ff" stroke="#63b8ff" points="705.47,-272.01 694.87,-272.06 703.19,-278.63 705.47,-272.01"/>
</a>
</g>
</g>
<!-- Node22&#45;&gt;Node17 -->
<g id="edge37_Node000022_Node000017" class="edge">
<title>Node22&#45;&gt;Node17</title>
<g id="a_edge37_Node000022_Node000017"><a xlink:title=" ">
<path fill="none" stroke="#63b8ff" d="M777.79,-308.55C724.6,-299.4 636.09,-284.17 570.1,-272.81"/>
<polygon fill="#63b8ff" stroke="#63b8ff" points="570.57,-269.34 560.12,-271.1 569.38,-276.24 570.57,-269.34"/>
</a>
</g>
</g>
<!-- Node23 -->
<g id="Node000023" class="node">
<title>Node23</title>
<g id="a_Node000023"><a xlink:title=" ">
<polygon fill="#e0e0e0" stroke="#999999" points="882,-266.5 824,-266.5 824,-247.5 882,-247.5 882,-266.5"/>
<text text-anchor="middle" x="853" y="-254.5" font-family="Helvetica,sans-Serif" font-size="10.00">memory</text>
</a>
</g>
</g>
<!-- Node22&#45;&gt;Node23 -->
<g id="edge33_Node000022_Node000023" class="edge">
<title>Node22&#45;&gt;Node23</title>
<g id="a_edge33_Node000022_Node000023"><a xlink:title=" ">
<path fill="none" stroke="#63b8ff" d="M828.28,-307.87C832.43,-299.49 838.87,-286.51 844.13,-275.89"/>
<polygon fill="#63b8ff" stroke="#63b8ff" points="847.4,-277.18 848.7,-266.67 841.13,-274.07 847.4,-277.18"/>
</a>
</g>
</g>
<!-- Node24 -->
<g id="Node000024" class="node">
<title>Node24</title>
<g id="a_Node000024"><a xlink:title=" ">
<polygon fill="#e0e0e0" stroke="#999999" points="993.5,-266.5 900.5,-266.5 900.5,-247.5 993.5,-247.5 993.5,-266.5"/>
<text text-anchor="middle" x="947" y="-254.5" font-family="Helvetica,sans-Serif" font-size="10.00">unordered_map</text>
</a>
</g>
</g>
<!-- Node22&#45;&gt;Node24 -->
<g id="edge35_Node000022_Node000024" class="edge">
<title>Node22&#45;&gt;Node24</title>
<g id="a_edge35_Node000022_Node000024"><a xlink:title=" ">
<path fill="none" stroke="#63b8ff" d="M841.89,-307.99C862.38,-298.25 896.19,-282.16 919.92,-270.88"/>
<polygon fill="#63b8ff" stroke="#63b8ff" points="921.57,-273.97 929.09,-266.52 918.56,-267.65 921.57,-273.97"/>
</a>
</g>
</g>
</g>
</svg>
