<?xml version="1.0" encoding="UTF-8" standalone="no"?>
<!DOCTYPE svg PUBLIC "-//W3C//DTD SVG 1.1//EN"
 "http://www.w3.org/Graphics/SVG/1.1/DTD/svg11.dtd">
<!-- Generated by graphviz version 2.43.0 (0)
 -->
<!-- Title: SimulateurFerroviaire/Engine/Core/Topology/TopologyRenderer.cpp Pages: 1 -->
<svg width="1147pt" height="478pt"
 viewBox="0.00 0.00 1146.50 478.00" xmlns="http://www.w3.org/2000/svg" xmlns:xlink="http://www.w3.org/1999/xlink">
<g id="graph0" class="graph" transform="scale(1 1) rotate(0) translate(4 474)">
<title>SimulateurFerroviaire/Engine/Core/Topology/TopologyRenderer.cpp</title>
<!-- Node1 -->
<g id="Node000001" class="node">
<title>Node1</title>
<g id="a_Node000001"><a xlink:title="Implémentation de l&#39;exporteur GeoJSON et du générateur de scripts JS.">
<polygon fill="#999999" stroke="#666666" points="689,-470 562,-470 562,-429 689,-429 689,-470"/>
<text text-anchor="start" x="570" y="-458" font-family="Helvetica,sans-Serif" font-size="10.00">SimulateurFerroviaire</text>
<text text-anchor="start" x="570" y="-447" font-family="Helvetica,sans-Serif" font-size="10.00">/Engine/Core/Topology</text>
<text text-anchor="middle" x="625.5" y="-436" font-family="Helvetica,sans-Serif" font-size="10.00">/TopologyRenderer.cpp</text>
</a>
</g>
</g>
<!-- Node2 -->
<g id="Node000002" class="node">
<title>Node2</title>
<g id="a_Node000002"><a xlink:href="../../d2/d01/TopologyRenderer_8h.html" target="_top" xlink:title="Exporteur de topologie ferroviaire au format GeoJSON.">
<polygon fill="white" stroke="#666666" points="370,-327 257,-327 257,-308 370,-308 370,-327"/>
<text text-anchor="middle" x="313.5" y="-315" font-family="Helvetica,sans-Serif" font-size="10.00">TopologyRenderer.h</text>
</a>
</g>
</g>
<!-- Node1&#45;&gt;Node2 -->
<g id="edge1_Node000001_Node000002" class="edge">
<title>Node1&#45;&gt;Node2</title>
<g id="a_edge1_Node000001_Node000002"><a xlink:title=" ">
<path fill="none" stroke="#63b8ff" d="M578.45,-428.9C513.39,-401.79 397.81,-353.63 343.4,-330.96"/>
<polygon fill="#63b8ff" stroke="#63b8ff" points="344.56,-327.65 333.98,-327.03 341.86,-334.11 344.56,-327.65"/>
</a>
</g>
</g>
<!-- Node11 -->
<g id="Node000011" class="node">
<title>Node11</title>
<g id="a_Node000011"><a xlink:title=" ">
<polygon fill="#e0e0e0" stroke="#999999" points="55,-19 0,-19 0,0 55,0 55,-19"/>
<text text-anchor="middle" x="27.5" y="-7" font-family="Helvetica,sans-Serif" font-size="10.00">fstream</text>
</a>
</g>
</g>
<!-- Node1&#45;&gt;Node11 -->
<g id="edge38_Node000001_Node000011" class="edge">
<title>Node1&#45;&gt;Node11</title>
<g id="a_edge38_Node000001_Node000011"><a xlink:title=" ">
<path fill="none" stroke="#63b8ff" d="M561.79,-448.01C407.7,-445.1 27.5,-426.94 27.5,-318.5 27.5,-318.5 27.5,-318.5 27.5,-129.5 27.5,-94.15 27.5,-52.9 27.5,-29.42"/>
<polygon fill="#63b8ff" stroke="#63b8ff" points="31,-29.16 27.5,-19.16 24,-29.16 31,-29.16"/>
</a>
</g>
</g>
<!-- Node13 -->
<g id="Node000013" class="node">
<title>Node13</title>
<g id="a_Node000013"><a xlink:title=" ">
<polygon fill="#e0e0e0" stroke="#999999" points="1044.5,-19 988.5,-19 988.5,0 1044.5,0 1044.5,-19"/>
<text text-anchor="middle" x="1016.5" y="-7" font-family="Helvetica,sans-Serif" font-size="10.00">sstream</text>
</a>
</g>
</g>
<!-- Node1&#45;&gt;Node13 -->
<g id="edge40_Node000001_Node000013" class="edge">
<title>Node1&#45;&gt;Node13</title>
<g id="a_edge40_Node000001_Node000013"><a xlink:title=" ">
<path fill="none" stroke="#63b8ff" d="M689.26,-442.55C808.77,-429.63 1054.5,-393.89 1054.5,-318.5 1054.5,-318.5 1054.5,-318.5 1054.5,-129.5 1054.5,-95.81 1051.74,-86.76 1040.5,-55 1037.21,-45.71 1032.19,-36 1027.58,-28.03"/>
<polygon fill="#63b8ff" stroke="#63b8ff" points="1030.49,-26.07 1022.32,-19.32 1024.5,-29.69 1030.49,-26.07"/>
</a>
</g>
</g>
<!-- Node21 -->
<g id="Node000021" class="node">
<title>Node21</title>
<g id="a_Node000021"><a xlink:href="../../de/d00/TopologyRepository_8h.html" target="_top" xlink:title="Singleton de stockage des données topologiques ferroviaires.">
<polygon fill="white" stroke="#666666" points="687,-393 564,-393 564,-363 687,-363 687,-393"/>
<text text-anchor="start" x="572" y="-381" font-family="Helvetica,sans-Serif" font-size="10.00">Engine/Core/Topology</text>
<text text-anchor="middle" x="625.5" y="-370" font-family="Helvetica,sans-Serif" font-size="10.00">/TopologyRepository.h</text>
</a>
</g>
</g>
<!-- Node1&#45;&gt;Node21 -->
<g id="edge31_Node000001_Node000021" class="edge">
<title>Node1&#45;&gt;Node21</title>
<g id="a_edge31_Node000001_Node000021"><a xlink:title=" ">
<path fill="none" stroke="#63b8ff" d="M625.5,-428.77C625.5,-420.85 625.5,-411.63 625.5,-403.3"/>
<polygon fill="#63b8ff" stroke="#63b8ff" points="629,-403.04 625.5,-393.04 622,-403.04 629,-403.04"/>
</a>
</g>
</g>
<!-- Node25 -->
<g id="Node000025" class="node">
<title>Node25</title>
<g id="a_Node000025"><a xlink:title=" ">
<polygon fill="#e0e0e0" stroke="#999999" points="1138.5,-387.5 1082.5,-387.5 1082.5,-368.5 1138.5,-368.5 1138.5,-387.5"/>
<text text-anchor="middle" x="1110.5" y="-375.5" font-family="Helvetica,sans-Serif" font-size="10.00">iomanip</text>
</a>
</g>
</g>
<!-- Node1&#45;&gt;Node25 -->
<g id="edge39_Node000001_Node000025" class="edge">
<title>Node1&#45;&gt;Node25</title>
<g id="a_edge39_Node000001_Node000025"><a xlink:title=" ">
<path fill="none" stroke="#63b8ff" d="M689.27,-444.47C775.97,-438.1 935.46,-423.2 1068.5,-393 1071.55,-392.31 1074.69,-391.48 1077.82,-390.58"/>
<polygon fill="#63b8ff" stroke="#63b8ff" points="1079.12,-393.84 1087.62,-387.53 1077.04,-387.16 1079.12,-393.84"/>
</a>
</g>
</g>
<!-- Node3 -->
<g id="Node000003" class="node">
<title>Node3</title>
<g id="a_Node000003"><a xlink:title=" ">
<polygon fill="#e0e0e0" stroke="#999999" points="417.5,-19 373.5,-19 373.5,0 417.5,0 417.5,-19"/>
<text text-anchor="middle" x="395.5" y="-7" font-family="Helvetica,sans-Serif" font-size="10.00">string</text>
</a>
</g>
</g>
<!-- Node2&#45;&gt;Node3 -->
<g id="edge2_Node000002_Node000003" class="edge">
<title>Node2&#45;&gt;Node3</title>
<g id="a_edge2_Node000002_Node000003"><a xlink:title=" ">
<path fill="none" stroke="#63b8ff" d="M308.62,-307.81C296.77,-285.57 268.51,-224.89 283.5,-176 302.48,-114.08 353.34,-54.45 379.49,-26.71"/>
<polygon fill="#63b8ff" stroke="#63b8ff" points="382.34,-28.79 386.75,-19.15 377.3,-23.94 382.34,-28.79"/>
</a>
</g>
</g>
<!-- Node4 -->
<g id="Node000004" class="node">
<title>Node4</title>
<g id="a_Node000004"><a xlink:title=" ">
<polygon fill="#e0e0e0" stroke="#999999" points="340,-200.5 293,-200.5 293,-181.5 340,-181.5 340,-200.5"/>
<text text-anchor="middle" x="316.5" y="-188.5" font-family="Helvetica,sans-Serif" font-size="10.00">vector</text>
</a>
</g>
</g>
<!-- Node2&#45;&gt;Node4 -->
<g id="edge3_Node000002_Node000004" class="edge">
<title>Node2&#45;&gt;Node4</title>
<g id="a_edge3_Node000002_Node000004"><a xlink:title=" ">
<path fill="none" stroke="#63b8ff" d="M313.71,-307.94C314.19,-288.04 315.39,-238.26 316.05,-210.85"/>
<polygon fill="#63b8ff" stroke="#63b8ff" points="319.55,-210.7 316.29,-200.62 312.55,-210.53 319.55,-210.7"/>
</a>
</g>
</g>
<!-- Node5 -->
<g id="Node000005" class="node">
<title>Node5</title>
<g id="a_Node000005"><a xlink:href="../../de/d01/StraightBlock_8h.html" target="_top" xlink:title="Modèle de domaine d&#39;un bloc de voie droite (Straight).">
<polygon fill="white" stroke="#666666" points="531.5,-272 379.5,-272 379.5,-242 531.5,-242 531.5,-272"/>
<text text-anchor="start" x="387.5" y="-260" font-family="Helvetica,sans-Serif" font-size="10.00">Modules/Elements/Shunting</text>
<text text-anchor="middle" x="455.5" y="-249" font-family="Helvetica,sans-Serif" font-size="10.00">Elements/StraightBlock.h</text>
</a>
</g>
</g>
<!-- Node2&#45;&gt;Node5 -->
<g id="edge4_Node000002_Node000005" class="edge">
<title>Node2&#45;&gt;Node5</title>
<g id="a_edge4_Node000002_Node000005"><a xlink:title=" ">
<path fill="none" stroke="#63b8ff" d="M334.15,-307.99C354.49,-299.61 386.21,-286.55 412.11,-275.87"/>
<polygon fill="#63b8ff" stroke="#63b8ff" points="413.45,-279.11 421.36,-272.06 410.78,-272.64 413.45,-279.11"/>
</a>
</g>
</g>
<!-- Node8 -->
<g id="Node000008" class="node">
<title>Node8</title>
<g id="a_Node000008"><a xlink:href="../../dd/d00/Logger_8h.html" target="_top" xlink:title="Système de journalisation à 5 niveaux de trace, un fichier par moteur.">
<polygon fill="white" stroke="#666666" points="236,-85 125,-85 125,-55 236,-55 236,-85"/>
<text text-anchor="start" x="133" y="-73" font-family="Helvetica,sans-Serif" font-size="10.00">Engine/Core/Logger</text>
<text text-anchor="middle" x="180.5" y="-62" font-family="Helvetica,sans-Serif" font-size="10.00">/Logger.h</text>
</a>
</g>
</g>
<!-- Node2&#45;&gt;Node8 -->
<g id="edge29_Node000002_Node000008" class="edge">
<title>Node2&#45;&gt;Node8</title>
<g id="a_edge29_Node000002_Node000008"><a xlink:title=" ">
<path fill="none" stroke="#63b8ff" d="M256.97,-313.53C196.37,-309.01 105.95,-298.02 84.5,-272 37.47,-214.95 114.22,-131.01 156.11,-92.16"/>
<polygon fill="#63b8ff" stroke="#63b8ff" points="158.68,-94.55 163.73,-85.23 153.97,-89.37 158.68,-94.55"/>
</a>
</g>
</g>
<!-- Node17 -->
<g id="Node000017" class="node">
<title>Node17</title>
<g id="a_Node000017"><a xlink:href="../../dc/d01/SwitchBlock_8h.html" target="_top" xlink:title="Modèle de domaine d&#39;un aiguillage ferroviaire à 3 branches.">
<polygon fill="white" stroke="#666666" points="701.5,-272 549.5,-272 549.5,-242 701.5,-242 701.5,-272"/>
<text text-anchor="start" x="557.5" y="-260" font-family="Helvetica,sans-Serif" font-size="10.00">Modules/Elements/Shunting</text>
<text text-anchor="middle" x="625.5" y="-249" font-family="Helvetica,sans-Serif" font-size="10.00">Elements/SwitchBlock.h</text>
</a>
</g>
</g>
<!-- Node2&#45;&gt;Node17 -->
<g id="edge20_Node000002_Node000017" class="edge">
<title>Node2&#45;&gt;Node17</title>
<g id="a_edge20_Node000002_Node000017"><a xlink:title=" ">
<path fill="none" stroke="#63b8ff" d="M358.87,-307.99C406.4,-299.08 482.16,-284.88 540.8,-273.88"/>
<polygon fill="#63b8ff" stroke="#63b8ff" points="541.61,-277.29 550.79,-272.01 540.32,-270.41 541.61,-277.29"/>
</a>
</g>
</g>
<!-- Node20 -->
<g id="Node000020" class="node">
<title>Node20</title>
<g id="a_Node000020"><a xlink:title=" ">
<polygon fill="#e0e0e0" stroke="#999999" points="247,-266.5 94,-266.5 94,-247.5 247,-247.5 247,-266.5"/>
<text text-anchor="middle" x="170.5" y="-254.5" font-family="Helvetica,sans-Serif" font-size="10.00">External/nlohmann/json.hpp</text>
</a>
</g>
</g>
<!-- Node2&#45;&gt;Node20 -->
<g id="edge30_Node000002_Node000020" class="edge">
<title>Node2&#45;&gt;Node20</title>
<g id="a_edge30_Node000002_Node000020"><a xlink:title=" ">
<path fill="none" stroke="#63b8ff" d="M292.71,-307.99C268.56,-298.12 228.52,-281.73 200.88,-270.43"/>
<polygon fill="#63b8ff" stroke="#63b8ff" points="201.9,-267.06 191.32,-266.52 199.25,-273.54 201.9,-267.06"/>
</a>
</g>
</g>
<!-- Node5&#45;&gt;Node3 -->
<g id="edge5_Node000005_Node000003" class="edge">
<title>Node5&#45;&gt;Node3</title>
<g id="a_edge5_Node000005_Node000003"><a xlink:title=" ">
<path fill="none" stroke="#63b8ff" d="M425.14,-241.89C411,-233.59 395.56,-221.63 387.5,-206 357.31,-147.44 377.46,-65.41 389,-29.07"/>
<polygon fill="#63b8ff" stroke="#63b8ff" points="392.4,-29.94 392.24,-19.34 385.76,-27.72 392.4,-29.94"/>
</a>
</g>
</g>
<!-- Node5&#45;&gt;Node4 -->
<g id="edge6_Node000005_Node000004" class="edge">
<title>Node5&#45;&gt;Node4</title>
<g id="a_edge6_Node000005_Node000004"><a xlink:title=" ">
<path fill="none" stroke="#63b8ff" d="M425,-241.95C400.94,-230.88 367.67,-215.56 344.34,-204.82"/>
<polygon fill="#63b8ff" stroke="#63b8ff" points="345.55,-201.52 335,-200.52 342.62,-207.88 345.55,-201.52"/>
</a>
</g>
</g>
<!-- Node6 -->
<g id="Node000006" class="node">
<title>Node6</title>
<g id="a_Node000006"><a xlink:href="../../df/d02/ShuntingElement_8h.html" target="_top" xlink:title="Interface abstraite pour tous les éléments de shuntage ferroviaire.">
<polygon fill="white" stroke="#666666" points="506,-200.5 397,-200.5 397,-181.5 506,-181.5 506,-200.5"/>
<text text-anchor="middle" x="451.5" y="-188.5" font-family="Helvetica,sans-Serif" font-size="10.00">ShuntingElement.h</text>
</a>
</g>
</g>
<!-- Node5&#45;&gt;Node6 -->
<g id="edge7_Node000005_Node000006" class="edge">
<title>Node5&#45;&gt;Node6</title>
<g id="a_edge7_Node000005_Node000006"><a xlink:title=" ">
<path fill="none" stroke="#63b8ff" d="M454.61,-241.8C454.04,-232.7 453.3,-220.79 452.68,-210.9"/>
<polygon fill="#63b8ff" stroke="#63b8ff" points="456.17,-210.61 452.05,-200.84 449.18,-211.04 456.17,-210.61"/>
</a>
</g>
</g>
<!-- Node15 -->
<g id="Node000015" class="node">
<title>Node15</title>
<g id="a_Node000015"><a xlink:href="../../d6/d01/CoordinateLatLon_8h.html" target="_top" xlink:title="Représentation d&#39;une coordonnée géographique WGS&#45;84 (latitude, longitude).">
<polygon fill="white" stroke="#666666" points="816,-206 679,-206 679,-176 816,-176 816,-206"/>
<text text-anchor="start" x="687" y="-194" font-family="Helvetica,sans-Serif" font-size="10.00">Engine/Core/Coordinates</text>
<text text-anchor="middle" x="747.5" y="-183" font-family="Helvetica,sans-Serif" font-size="10.00">/CoordinateLatLon.h</text>
</a>
</g>
</g>
<!-- Node5&#45;&gt;Node15 -->
<g id="edge18_Node000005_Node000015" class="edge">
<title>Node5&#45;&gt;Node15</title>
<g id="a_edge18_Node000005_Node000015"><a xlink:title=" ">
<path fill="none" stroke="#63b8ff" d="M519.58,-241.95C565.03,-231.99 626.15,-218.6 673.65,-208.19"/>
<polygon fill="#63b8ff" stroke="#63b8ff" points="674.55,-211.57 683.57,-206.01 673.05,-204.73 674.55,-211.57"/>
</a>
</g>
</g>
<!-- Node16 -->
<g id="Node000016" class="node">
<title>Node16</title>
<g id="a_Node000016"><a xlink:href="../../db/d03/CoordinateXY_8h.html" target="_top" xlink:title="Représentation d&#39;une coordonnée plane en mètres (système métrique UTM).">
<polygon fill="white" stroke="#666666" points="661,-206 524,-206 524,-176 661,-176 661,-206"/>
<text text-anchor="start" x="532" y="-194" font-family="Helvetica,sans-Serif" font-size="10.00">Engine/Core/Coordinates</text>
<text text-anchor="middle" x="592.5" y="-183" font-family="Helvetica,sans-Serif" font-size="10.00">/CoordinateXY.h</text>
</a>
</g>
</g>
<!-- Node5&#45;&gt;Node16 -->
<g id="edge19_Node000005_Node000016" class="edge">
<title>Node5&#45;&gt;Node16</title>
<g id="a_edge19_Node000005_Node000016"><a xlink:title=" ">
<path fill="none" stroke="#63b8ff" d="M485.57,-241.95C505.46,-232.66 531.76,-220.38 553.29,-210.32"/>
<polygon fill="#63b8ff" stroke="#63b8ff" points="554.93,-213.42 562.5,-206.01 551.96,-207.07 554.93,-213.42"/>
</a>
</g>
</g>
<!-- Node7 -->
<g id="Node000007" class="node">
<title>Node7</title>
<g id="a_Node000007"><a xlink:href="../../d5/d02/Element_8h.html" target="_top" xlink:title="Classe de base abstraite pour tous les éléments interactifs ferroviaires.">
<polygon fill="white" stroke="#666666" points="555,-140 396,-140 396,-121 555,-121 555,-140"/>
<text text-anchor="middle" x="475.5" y="-128" font-family="Helvetica,sans-Serif" font-size="10.00">Modules/Elements/Element.h</text>
</a>
</g>
</g>
<!-- Node6&#45;&gt;Node7 -->
<g id="edge8_Node000006_Node000007" class="edge">
<title>Node6&#45;&gt;Node7</title>
<g id="a_edge8_Node000006_Node000007"><a xlink:title=" ">
<path fill="none" stroke="#63b8ff" d="M455.04,-181.37C458.44,-173.07 463.69,-160.28 468.02,-149.72"/>
<polygon fill="#63b8ff" stroke="#63b8ff" points="471.39,-150.75 471.94,-140.17 464.91,-148.09 471.39,-150.75"/>
</a>
</g>
</g>
<!-- Node7&#45;&gt;Node3 -->
<g id="edge9_Node000007_Node000003" class="edge">
<title>Node7&#45;&gt;Node3</title>
<g id="a_edge9_Node000007_Node000003"><a xlink:title=" ">
<path fill="none" stroke="#63b8ff" d="M469.75,-120.94C456.66,-101.48 424.48,-53.6 407.09,-27.74"/>
<polygon fill="#63b8ff" stroke="#63b8ff" points="409.9,-25.65 401.42,-19.3 404.09,-29.55 409.9,-25.65"/>
</a>
</g>
</g>
<!-- Node7&#45;&gt;Node8 -->
<g id="edge10_Node000007_Node000008" class="edge">
<title>Node7&#45;&gt;Node8</title>
<g id="a_edge10_Node000007_Node000008"><a xlink:title=" ">
<path fill="none" stroke="#63b8ff" d="M432.6,-120.99C383.61,-111.28 302.89,-95.27 246.02,-83.99"/>
<polygon fill="#63b8ff" stroke="#63b8ff" points="246.53,-80.53 236.04,-82.01 245.17,-87.39 246.53,-80.53"/>
</a>
</g>
</g>
<!-- Node8&#45;&gt;Node3 -->
<g id="edge16_Node000008_Node000003" class="edge">
<title>Node8&#45;&gt;Node3</title>
<g id="a_edge16_Node000008_Node000003"><a xlink:title=" ">
<path fill="none" stroke="#63b8ff" d="M232.46,-54.92C267.09,-45.52 313.87,-32.81 363.8,-19.19"/>
<polygon fill="#63b8ff" stroke="#63b8ff" points="364.76,-22.55 373.49,-16.54 362.92,-15.8 364.76,-22.55"/>
</a>
</g>
</g>
<!-- Node9 -->
<g id="Node000009" class="node">
<title>Node9</title>
<g id="a_Node000009"><a xlink:title=" ">
<polygon fill="#e0e0e0" stroke="#999999" points="117.5,-19 73.5,-19 73.5,0 117.5,0 117.5,-19"/>
<text text-anchor="middle" x="95.5" y="-7" font-family="Helvetica,sans-Serif" font-size="10.00">ctime</text>
</a>
</g>
</g>
<!-- Node8&#45;&gt;Node9 -->
<g id="edge11_Node000008_Node000009" class="edge">
<title>Node8&#45;&gt;Node9</title>
<g id="a_edge11_Node000008_Node000009"><a xlink:title=" ">
<path fill="none" stroke="#63b8ff" d="M159.92,-54.84C146.83,-45.83 129.91,-34.18 116.7,-25.09"/>
<polygon fill="#63b8ff" stroke="#63b8ff" points="118.46,-22.05 108.24,-19.27 114.49,-27.82 118.46,-22.05"/>
</a>
</g>
</g>
<!-- Node10 -->
<g id="Node000010" class="node">
<title>Node10</title>
<g id="a_Node000010"><a xlink:title=" ">
<polygon fill="#e0e0e0" stroke="#999999" points="203.5,-19 135.5,-19 135.5,0 203.5,0 203.5,-19"/>
<text text-anchor="middle" x="169.5" y="-7" font-family="Helvetica,sans-Serif" font-size="10.00">filesystem</text>
</a>
</g>
</g>
<!-- Node8&#45;&gt;Node10 -->
<g id="edge12_Node000008_Node000010" class="edge">
<title>Node8&#45;&gt;Node10</title>
<g id="a_edge12_Node000008_Node000010"><a xlink:title=" ">
<path fill="none" stroke="#63b8ff" d="M177.84,-54.84C176.39,-47.13 174.57,-37.49 173.01,-29.17"/>
<polygon fill="#63b8ff" stroke="#63b8ff" points="176.44,-28.45 171.15,-19.27 169.56,-29.74 176.44,-28.45"/>
</a>
</g>
</g>
<!-- Node8&#45;&gt;Node11 -->
<g id="edge13_Node000008_Node000011" class="edge">
<title>Node8&#45;&gt;Node11</title>
<g id="a_edge13_Node000008_Node000011"><a xlink:title=" ">
<path fill="none" stroke="#63b8ff" d="M143.85,-54.99C118.21,-45.18 84.28,-32.21 59.68,-22.81"/>
<polygon fill="#63b8ff" stroke="#63b8ff" points="60.69,-19.44 50.09,-19.14 58.19,-25.98 60.69,-19.44"/>
</a>
</g>
</g>
<!-- Node12 -->
<g id="Node000012" class="node">
<title>Node12</title>
<g id="a_Node000012"><a xlink:title=" ">
<polygon fill="#e0e0e0" stroke="#999999" points="269.5,-19 221.5,-19 221.5,0 269.5,0 269.5,-19"/>
<text text-anchor="middle" x="245.5" y="-7" font-family="Helvetica,sans-Serif" font-size="10.00">mutex</text>
</a>
</g>
</g>
<!-- Node8&#45;&gt;Node12 -->
<g id="edge14_Node000008_Node000012" class="edge">
<title>Node8&#45;&gt;Node12</title>
<g id="a_edge14_Node000008_Node000012"><a xlink:title=" ">
<path fill="none" stroke="#63b8ff" d="M196.23,-54.84C205.86,-46.17 218.19,-35.08 228.11,-26.15"/>
<polygon fill="#63b8ff" stroke="#63b8ff" points="230.67,-28.56 235.76,-19.27 225.99,-23.35 230.67,-28.56"/>
</a>
</g>
</g>
<!-- Node8&#45;&gt;Node13 -->
<g id="edge15_Node000008_Node000013" class="edge">
<title>Node8&#45;&gt;Node13</title>
<g id="a_edge15_Node000008_Node000013"><a xlink:title=" ">
<path fill="none" stroke="#63b8ff" d="M236.32,-65.09C394.64,-54.02 843.69,-22.59 978.06,-13.19"/>
<polygon fill="#63b8ff" stroke="#63b8ff" points="978.54,-16.67 988.27,-12.48 978.05,-9.68 978.54,-16.67"/>
</a>
</g>
</g>
<!-- Node14 -->
<g id="Node000014" class="node">
<title>Node14</title>
<g id="a_Node000014"><a xlink:title=" ">
<polygon fill="#e0e0e0" stroke="#999999" points="355.5,-19 287.5,-19 287.5,0 355.5,0 355.5,-19"/>
<text text-anchor="middle" x="321.5" y="-7" font-family="Helvetica,sans-Serif" font-size="10.00">windows.h</text>
</a>
</g>
</g>
<!-- Node8&#45;&gt;Node14 -->
<g id="edge17_Node000008_Node000014" class="edge">
<title>Node8&#45;&gt;Node14</title>
<g id="a_edge17_Node000008_Node000014"><a xlink:title=" ">
<path fill="none" stroke="#63b8ff" d="M214.27,-54.99C237.69,-45.27 268.62,-32.44 291.23,-23.06"/>
<polygon fill="#63b8ff" stroke="#63b8ff" points="292.78,-26.2 300.68,-19.14 290.1,-19.74 292.78,-26.2"/>
</a>
</g>
</g>
<!-- Node17&#45;&gt;Node3 -->
<g id="edge24_Node000017_Node000003" class="edge">
<title>Node17&#45;&gt;Node3</title>
<g id="a_edge24_Node000017_Node000003"><a xlink:title=" ">
<path fill="none" stroke="#63b8ff" d="M699.82,-242C753.32,-231.16 817.45,-216.31 825.5,-206 833.71,-195.49 833.05,-186.99 825.5,-176 732.24,-40.18 510.69,-15.78 427.66,-11.43"/>
<polygon fill="#63b8ff" stroke="#63b8ff" points="427.71,-7.93 417.56,-10.97 427.39,-14.92 427.71,-7.93"/>
</a>
</g>
</g>
<!-- Node17&#45;&gt;Node4 -->
<g id="edge25_Node000017_Node000004" class="edge">
<title>Node17&#45;&gt;Node4</title>
<g id="a_edge25_Node000017_Node000004"><a xlink:title=" ">
<path fill="none" stroke="#63b8ff" d="M557.69,-241.95C493.5,-228.66 399.8,-209.25 350.2,-198.98"/>
<polygon fill="#63b8ff" stroke="#63b8ff" points="350.82,-195.53 340.31,-196.93 349.4,-202.39 350.82,-195.53"/>
</a>
</g>
</g>
<!-- Node17&#45;&gt;Node6 -->
<g id="edge28_Node000017_Node000006" class="edge">
<title>Node17&#45;&gt;Node6</title>
<g id="a_edge28_Node000017_Node000006"><a xlink:title=" ">
<path fill="none" stroke="#63b8ff" d="M587.31,-241.95C556.53,-230.63 513.69,-214.88 484.41,-204.1"/>
<polygon fill="#63b8ff" stroke="#63b8ff" points="485.25,-200.68 474.66,-200.52 482.83,-207.25 485.25,-200.68"/>
</a>
</g>
</g>
<!-- Node17&#45;&gt;Node13 -->
<g id="edge23_Node000017_Node000013" class="edge">
<title>Node17&#45;&gt;Node13</title>
<g id="a_edge23_Node000017_Node000013"><a xlink:title=" ">
<path fill="none" stroke="#63b8ff" d="M701.91,-243.41C705.15,-242.93 708.36,-242.45 711.5,-242 774.9,-232.85 952.85,-251.93 997.5,-206 1044.44,-157.71 1030.26,-67.57 1021.33,-28.89"/>
<polygon fill="#63b8ff" stroke="#63b8ff" points="1024.69,-27.91 1018.9,-19.03 1017.9,-29.58 1024.69,-27.91"/>
</a>
</g>
</g>
<!-- Node17&#45;&gt;Node15 -->
<g id="edge26_Node000017_Node000015" class="edge">
<title>Node17&#45;&gt;Node15</title>
<g id="a_edge26_Node000017_Node000015"><a xlink:title=" ">
<path fill="none" stroke="#63b8ff" d="M652.27,-241.95C669.75,-232.78 692.78,-220.71 711.81,-210.72"/>
<polygon fill="#63b8ff" stroke="#63b8ff" points="713.56,-213.76 720.79,-206.01 710.31,-207.56 713.56,-213.76"/>
</a>
</g>
</g>
<!-- Node17&#45;&gt;Node16 -->
<g id="edge27_Node000017_Node000016" class="edge">
<title>Node17&#45;&gt;Node16</title>
<g id="a_edge27_Node000017_Node000016"><a xlink:title=" ">
<path fill="none" stroke="#63b8ff" d="M618.18,-241.8C614.16,-234.01 609.08,-224.16 604.5,-215.28"/>
<polygon fill="#63b8ff" stroke="#63b8ff" points="607.5,-213.45 599.8,-206.16 601.28,-216.66 607.5,-213.45"/>
</a>
</g>
</g>
<!-- Node18 -->
<g id="Node000018" class="node">
<title>Node18</title>
<g id="a_Node000018"><a xlink:title=" ">
<polygon fill="#e0e0e0" stroke="#999999" points="914.5,-200.5 872.5,-200.5 872.5,-181.5 914.5,-181.5 914.5,-200.5"/>
<text text-anchor="middle" x="893.5" y="-188.5" font-family="Helvetica,sans-Serif" font-size="10.00">array</text>
</a>
</g>
</g>
<!-- Node17&#45;&gt;Node18 -->
<g id="edge21_Node000017_Node000018" class="edge">
<title>Node17&#45;&gt;Node18</title>
<g id="a_edge21_Node000017_Node000018"><a xlink:title=" ">
<path fill="none" stroke="#63b8ff" d="M701.62,-243.04C747.55,-234.38 806.96,-221.72 858.5,-206 860.38,-205.43 862.3,-204.8 864.22,-204.13"/>
<polygon fill="#63b8ff" stroke="#63b8ff" points="865.57,-207.36 873.72,-200.59 863.13,-200.8 865.57,-207.36"/>
</a>
</g>
</g>
<!-- Node19 -->
<g id="Node000019" class="node">
<title>Node19</title>
<g id="a_Node000019"><a xlink:title=" ">
<polygon fill="#e0e0e0" stroke="#999999" points="988.5,-200.5 932.5,-200.5 932.5,-181.5 988.5,-181.5 988.5,-200.5"/>
<text text-anchor="middle" x="960.5" y="-188.5" font-family="Helvetica,sans-Serif" font-size="10.00">optional</text>
</a>
</g>
</g>
<!-- Node17&#45;&gt;Node19 -->
<g id="edge22_Node000017_Node000019" class="edge">
<title>Node17&#45;&gt;Node19</title>
<g id="a_edge22_Node000017_Node000019"><a xlink:title=" ">
<path fill="none" stroke="#63b8ff" d="M701.65,-243.6C786.36,-229.76 912.8,-208.89 923.5,-206 925.79,-205.38 928.14,-204.67 930.49,-203.91"/>
<polygon fill="#63b8ff" stroke="#63b8ff" points="931.72,-207.19 939.99,-200.57 929.4,-200.59 931.72,-207.19"/>
</a>
</g>
</g>
<!-- Node22 -->
<g id="Node000022" class="node">
<title>Node22</title>
<g id="a_Node000022"><a xlink:href="../../d6/d02/TopologyData_8h.html" target="_top" xlink:title="Conteneur central des données topologiques ferroviaires.">
<polygon fill="white" stroke="#666666" points="671.5,-327 579.5,-327 579.5,-308 671.5,-308 671.5,-327"/>
<text text-anchor="middle" x="625.5" y="-315" font-family="Helvetica,sans-Serif" font-size="10.00">TopologyData.h</text>
</a>
</g>
</g>
<!-- Node21&#45;&gt;Node22 -->
<g id="edge32_Node000021_Node000022" class="edge">
<title>Node21&#45;&gt;Node22</title>
<g id="a_edge32_Node000021_Node000022"><a xlink:title=" ">
<path fill="none" stroke="#63b8ff" d="M625.5,-362.84C625.5,-355.21 625.5,-345.7 625.5,-337.45"/>
<polygon fill="#63b8ff" stroke="#63b8ff" points="629,-337.27 625.5,-327.27 622,-337.27 629,-337.27"/>
</a>
</g>
</g>
<!-- Node22&#45;&gt;Node4 -->
<g id="edge34_Node000022_Node000004" class="edge">
<title>Node22&#45;&gt;Node4</title>
<g id="a_edge34_Node000022_Node000004"><a xlink:title=" ">
<path fill="none" stroke="#63b8ff" d="M579.33,-312.78C515.48,-306.91 404.26,-293.87 370.5,-272 347.59,-257.15 331.97,-228.8 323.64,-210.15"/>
<polygon fill="#63b8ff" stroke="#63b8ff" points="326.77,-208.56 319.67,-200.69 320.31,-211.27 326.77,-208.56"/>
</a>
</g>
</g>
<!-- Node22&#45;&gt;Node5 -->
<g id="edge36_Node000022_Node000005" class="edge">
<title>Node22&#45;&gt;Node5</title>
<g id="a_edge36_Node000022_Node000005"><a xlink:title=" ">
<path fill="none" stroke="#63b8ff" d="M600.78,-307.99C576.1,-299.5 537.45,-286.2 506.22,-275.45"/>
<polygon fill="#63b8ff" stroke="#63b8ff" points="506.97,-272.01 496.37,-272.06 504.69,-278.63 506.97,-272.01"/>
</a>
</g>
</g>
<!-- Node22&#45;&gt;Node17 -->
<g id="edge37_Node000022_Node000017" class="edge">
<title>Node22&#45;&gt;Node17</title>
<g id="a_edge37_Node000022_Node000017"><a xlink:title=" ">
<path fill="none" stroke="#63b8ff" d="M625.5,-307.87C625.5,-301.11 625.5,-291.35 625.5,-282.26"/>
<polygon fill="#63b8ff" stroke="#63b8ff" points="629,-282.11 625.5,-272.11 622,-282.11 629,-282.11"/>
</a>
</g>
</g>
<!-- Node23 -->
<g id="Node000023" class="node">
<title>Node23</title>
<g id="a_Node000023"><a xlink:title=" ">
<polygon fill="#e0e0e0" stroke="#999999" points="889.5,-266.5 831.5,-266.5 831.5,-247.5 889.5,-247.5 889.5,-266.5"/>
<text text-anchor="middle" x="860.5" y="-254.5" font-family="Helvetica,sans-Serif" font-size="10.00">memory</text>
</a>
</g>
</g>
<!-- Node22&#45;&gt;Node23 -->
<g id="edge33_Node000022_Node000023" class="edge">
<title>Node22&#45;&gt;Node23</title>
<g id="a_edge33_Node000022_Node000023"><a xlink:title=" ">
<path fill="none" stroke="#63b8ff" d="M670.92,-308C711.13,-300.05 771.22,-287.17 822.5,-272 824.64,-271.37 826.83,-270.68 829.02,-269.95"/>
<polygon fill="#63b8ff" stroke="#63b8ff" points="830.27,-273.23 838.56,-266.64 827.97,-266.62 830.27,-273.23"/>
</a>
</g>
</g>
<!-- Node24 -->
<g id="Node000024" class="node">
<title>Node24</title>
<g id="a_Node000024"><a xlink:title=" ">
<polygon fill="#e0e0e0" stroke="#999999" points="813,-266.5 720,-266.5 720,-247.5 813,-247.5 813,-266.5"/>
<text text-anchor="middle" x="766.5" y="-254.5" font-family="Helvetica,sans-Serif" font-size="10.00">unordered_map</text>
</a>
</g>
</g>
<!-- Node22&#45;&gt;Node24 -->
<g id="edge35_Node000022_Node000024" class="edge">
<title>Node22&#45;&gt;Node24</title>
<g id="a_edge35_Node000022_Node000024"><a xlink:title=" ">
<path fill="none" stroke="#63b8ff" d="M646,-307.99C669.81,-298.12 709.29,-281.73 736.54,-270.43"/>
<polygon fill="#63b8ff" stroke="#63b8ff" points="738.08,-273.58 745.97,-266.52 735.39,-267.12 738.08,-273.58"/>
</a>
</g>
</g>
</g>
</svg>
