<?xml version="1.0" encoding="UTF-8" standalone="no"?>
<!DOCTYPE svg PUBLIC "-//W3C//DTD SVG 1.1//EN"
 "http://www.w3.org/Graphics/SVG/1.1/DTD/svg11.dtd">
<!-- Generated by graphviz version 2.43.0 (0)
 -->
<!-- Title: SimulateurFerroviaire/Engine/Core/Topology/TopologyRenderer.cpp Pages: 1 -->
<svg width="1006pt" height="489pt"
 viewBox="0.00 0.00 1005.84 489.00" xmlns="http://www.w3.org/2000/svg" xmlns:xlink="http://www.w3.org/1999/xlink">
<g id="graph0" class="graph" transform="scale(1 1) rotate(0) translate(4 485)">
<title>SimulateurFerroviaire/Engine/Core/Topology/TopologyRenderer.cpp</title>
<!-- Node1 -->
<g id="Node000001" class="node">
<title>Node1</title>
<g id="a_Node000001"><a xlink:title="Implémentation de l&#39;exporteur GeoJSON.">
<polygon fill="#999999" stroke="#666666" points="938.34,-481 811.34,-481 811.34,-440 938.34,-440 938.34,-481"/>
<text text-anchor="start" x="819.34" y="-469" font-family="Helvetica,sans-Serif" font-size="10.00">SimulateurFerroviaire</text>
<text text-anchor="start" x="819.34" y="-458" font-family="Helvetica,sans-Serif" font-size="10.00">/Engine/Core/Topology</text>
<text text-anchor="middle" x="874.84" y="-447" font-family="Helvetica,sans-Serif" font-size="10.00">/TopologyRenderer.cpp</text>
</a>
</g>
</g>
<!-- Node2 -->
<g id="Node000002" class="node">
<title>Node2</title>
<g id="a_Node000002"><a xlink:href="../../d2/d01/TopologyRenderer_8h.html" target="_top" xlink:title="Exporteur de topologie ferroviaire au format GeoJSON.">
<polygon fill="white" stroke="#666666" points="306.34,-338 193.34,-338 193.34,-319 306.34,-319 306.34,-338"/>
<text text-anchor="middle" x="249.84" y="-326" font-family="Helvetica,sans-Serif" font-size="10.00">TopologyRenderer.h</text>
</a>
</g>
</g>
<!-- Node1&#45;&gt;Node2 -->
<g id="edge1_Node000001_Node000002" class="edge">
<title>Node1&#45;&gt;Node2</title>
<g id="a_edge1_Node000001_Node000002"><a xlink:title=" ">
<path fill="none" stroke="#63b8ff" d="M811.18,-446.26C686.91,-420.41 414.29,-363.7 300.89,-340.12"/>
<polygon fill="#63b8ff" stroke="#63b8ff" points="301.57,-336.68 291.07,-338.07 300.14,-343.54 301.57,-336.68"/>
</a>
</g>
</g>
<!-- Node11 -->
<g id="Node000011" class="node">
<title>Node11</title>
<g id="a_Node000011"><a xlink:title=" ">
<polygon fill="#e0e0e0" stroke="#999999" points="901.34,-19 846.34,-19 846.34,0 901.34,0 901.34,-19"/>
<text text-anchor="middle" x="873.84" y="-7" font-family="Helvetica,sans-Serif" font-size="10.00">fstream</text>
</a>
</g>
</g>
<!-- Node1&#45;&gt;Node11 -->
<g id="edge34_Node000001_Node000011" class="edge">
<title>Node1&#45;&gt;Node11</title>
<g id="a_edge34_Node000001_Node000011"><a xlink:title=" ">
<path fill="none" stroke="#63b8ff" d="M884.68,-439.79C896.24,-414.78 913.84,-370.03 913.84,-329.5 913.84,-329.5 913.84,-329.5 913.84,-135 913.84,-95.45 895.32,-52.07 883.48,-28.39"/>
<polygon fill="#63b8ff" stroke="#63b8ff" points="886.45,-26.52 878.75,-19.25 880.24,-29.74 886.45,-26.52"/>
</a>
</g>
</g>
<!-- Node18 -->
<g id="Node000018" class="node">
<title>Node18</title>
<g id="a_Node000018"><a xlink:href="../../de/d00/TopologyRepository_8h.html" target="_top" xlink:title="Singleton de stockage des données topologiques ferroviaires.">
<polygon fill="white" stroke="#666666" points="783.34,-404 660.34,-404 660.34,-374 783.34,-374 783.34,-404"/>
<text text-anchor="start" x="668.34" y="-392" font-family="Helvetica,sans-Serif" font-size="10.00">Engine/Core/Topology</text>
<text text-anchor="middle" x="721.84" y="-381" font-family="Helvetica,sans-Serif" font-size="10.00">/TopologyRepository.h</text>
</a>
</g>
</g>
<!-- Node1&#45;&gt;Node18 -->
<g id="edge27_Node000001_Node000018" class="edge">
<title>Node1&#45;&gt;Node18</title>
<g id="a_edge27_Node000001_Node000018"><a xlink:title=" ">
<path fill="none" stroke="#63b8ff" d="M831.82,-439.96C809.95,-430.02 783.54,-418.03 762.08,-408.28"/>
<polygon fill="#63b8ff" stroke="#63b8ff" points="763.46,-405.06 752.91,-404.11 760.57,-411.44 763.46,-405.06"/>
</a>
</g>
</g>
<!-- Node22 -->
<g id="Node000022" class="node">
<title>Node22</title>
<g id="a_Node000022"><a xlink:title=" ">
<polygon fill="#e0e0e0" stroke="#999999" points="997.84,-398.5 941.84,-398.5 941.84,-379.5 997.84,-379.5 997.84,-398.5"/>
<text text-anchor="middle" x="969.84" y="-386.5" font-family="Helvetica,sans-Serif" font-size="10.00">iomanip</text>
</a>
</g>
</g>
<!-- Node1&#45;&gt;Node22 -->
<g id="edge35_Node000001_Node000022" class="edge">
<title>Node1&#45;&gt;Node22</title>
<g id="a_edge35_Node000001_Node000022"><a xlink:title=" ">
<path fill="none" stroke="#63b8ff" d="M901.56,-439.96C916.86,-428.76 935.76,-414.94 949.79,-404.67"/>
<polygon fill="#63b8ff" stroke="#63b8ff" points="952.21,-407.23 958.22,-398.5 948.08,-401.58 952.21,-407.23"/>
</a>
</g>
</g>
<!-- Node3 -->
<g id="Node000003" class="node">
<title>Node3</title>
<g id="a_Node000003"><a xlink:title=" ">
<polygon fill="#e0e0e0" stroke="#999999" points="493.84,-19 449.84,-19 449.84,0 493.84,0 493.84,-19"/>
<text text-anchor="middle" x="471.84" y="-7" font-family="Helvetica,sans-Serif" font-size="10.00">string</text>
</a>
</g>
</g>
<!-- Node2&#45;&gt;Node3 -->
<g id="edge2_Node000002_Node000003" class="edge">
<title>Node2&#45;&gt;Node3</title>
<g id="a_edge2_Node000002_Node000003"><a xlink:title=" ">
<path fill="none" stroke="#63b8ff" d="M193.29,-323.45C133.65,-318 45.02,-306.2 20.84,-283 -5.53,-257.7 1.84,-239.54 1.84,-203 1.84,-203 1.84,-203 1.84,-135 1.84,-44.21 333.7,-18.09 439.7,-12.07"/>
<polygon fill="#63b8ff" stroke="#63b8ff" points="440.01,-15.55 449.8,-11.51 439.63,-8.56 440.01,-15.55"/>
</a>
</g>
</g>
<!-- Node4 -->
<g id="Node000004" class="node">
<title>Node4</title>
<g id="a_Node000004"><a xlink:title=" ">
<polygon fill="#e0e0e0" stroke="#999999" points="287.34,-211.5 240.34,-211.5 240.34,-192.5 287.34,-192.5 287.34,-211.5"/>
<text text-anchor="middle" x="263.84" y="-199.5" font-family="Helvetica,sans-Serif" font-size="10.00">vector</text>
</a>
</g>
</g>
<!-- Node2&#45;&gt;Node4 -->
<g id="edge3_Node000002_Node000004" class="edge">
<title>Node2&#45;&gt;Node4</title>
<g id="a_edge3_Node000002_Node000004"><a xlink:title=" ">
<path fill="none" stroke="#63b8ff" d="M250.8,-318.94C253.04,-299.04 258.64,-249.26 261.72,-221.85"/>
<polygon fill="#63b8ff" stroke="#63b8ff" points="265.23,-221.95 262.87,-211.62 258.28,-221.16 265.23,-221.95"/>
</a>
</g>
</g>
<!-- Node5 -->
<g id="Node000005" class="node">
<title>Node5</title>
<g id="a_Node000005"><a xlink:href="../../de/d01/StraightBlock_8h.html" target="_top" xlink:title="Modèle de domaine d&#39;un bloc de voie droite (Straight).">
<polygon fill="white" stroke="#666666" points="500.34,-283 315.34,-283 315.34,-253 500.34,-253 500.34,-283"/>
<text text-anchor="start" x="323.34" y="-271" font-family="Helvetica,sans-Serif" font-size="10.00">Modules/InteractiveElements</text>
<text text-anchor="middle" x="407.84" y="-260" font-family="Helvetica,sans-Serif" font-size="10.00">/ShuntingElements/StraightBlock.h</text>
</a>
</g>
</g>
<!-- Node2&#45;&gt;Node5 -->
<g id="edge4_Node000002_Node000005" class="edge">
<title>Node2&#45;&gt;Node5</title>
<g id="a_edge4_Node000002_Node000005"><a xlink:title=" ">
<path fill="none" stroke="#63b8ff" d="M272.82,-318.99C295.65,-310.54 331.36,-297.32 360.32,-286.59"/>
<polygon fill="#63b8ff" stroke="#63b8ff" points="361.69,-289.82 369.86,-283.06 359.26,-283.25 361.69,-289.82"/>
</a>
</g>
</g>
<!-- Node8 -->
<g id="Node000008" class="node">
<title>Node8</title>
<g id="a_Node000008"><a xlink:href="../../dd/d00/Logger_8h.html" target="_top" xlink:title="Système de journalisation à 5 niveaux de trace, un fichier par moteur.">
<polygon fill="white" stroke="#666666" points="731.34,-85 620.34,-85 620.34,-55 731.34,-55 731.34,-85"/>
<text text-anchor="start" x="628.34" y="-73" font-family="Helvetica,sans-Serif" font-size="10.00">Engine/Core/Logger</text>
<text text-anchor="middle" x="675.84" y="-62" font-family="Helvetica,sans-Serif" font-size="10.00">/Logger.h</text>
</a>
</g>
</g>
<!-- Node2&#45;&gt;Node8 -->
<g id="edge25_Node000002_Node000008" class="edge">
<title>Node2&#45;&gt;Node8</title>
<g id="a_edge25_Node000002_Node000008"><a xlink:title=" ">
<path fill="none" stroke="#63b8ff" d="M244.95,-318.71C232.57,-295.17 202.89,-229.6 230.84,-187 272.39,-123.66 496.88,-90.48 610.25,-77.56"/>
<polygon fill="#63b8ff" stroke="#63b8ff" points="610.65,-81.03 620.2,-76.44 609.87,-74.08 610.65,-81.03"/>
</a>
</g>
</g>
<!-- Node15 -->
<g id="Node000015" class="node">
<title>Node15</title>
<g id="a_Node000015"><a xlink:href="../../dc/d01/SwitchBlock_8h.html" target="_top" xlink:title="Modèle de domaine d&#39;un aiguillage ferroviaire à 3 branches.">
<polygon fill="white" stroke="#666666" points="697.34,-283 518.34,-283 518.34,-253 697.34,-253 697.34,-283"/>
<text text-anchor="start" x="526.34" y="-271" font-family="Helvetica,sans-Serif" font-size="10.00">Modules/InteractiveElements</text>
<text text-anchor="middle" x="607.84" y="-260" font-family="Helvetica,sans-Serif" font-size="10.00">/ShuntingElements/SwitchBlock.h</text>
</a>
</g>
</g>
<!-- Node2&#45;&gt;Node15 -->
<g id="edge18_Node000002_Node000015" class="edge">
<title>Node2&#45;&gt;Node15</title>
<g id="a_edge18_Node000002_Node000015"><a xlink:title=" ">
<path fill="none" stroke="#63b8ff" d="M301.9,-318.99C356.77,-310.03 444.45,-295.7 511.9,-284.68"/>
<polygon fill="#63b8ff" stroke="#63b8ff" points="512.82,-288.07 522.12,-283.01 511.69,-281.17 512.82,-288.07"/>
</a>
</g>
</g>
<!-- Node17 -->
<g id="Node000017" class="node">
<title>Node17</title>
<g id="a_Node000017"><a xlink:title=" ">
<polygon fill="#e0e0e0" stroke="#999999" points="183.34,-277.5 30.34,-277.5 30.34,-258.5 183.34,-258.5 183.34,-277.5"/>
<text text-anchor="middle" x="106.84" y="-265.5" font-family="Helvetica,sans-Serif" font-size="10.00">External/nlohmann/json.hpp</text>
</a>
</g>
</g>
<!-- Node2&#45;&gt;Node17 -->
<g id="edge26_Node000002_Node000017" class="edge">
<title>Node2&#45;&gt;Node17</title>
<g id="a_edge26_Node000002_Node000017"><a xlink:title=" ">
<path fill="none" stroke="#63b8ff" d="M229.05,-318.99C204.9,-309.12 164.86,-292.73 137.23,-281.43"/>
<polygon fill="#63b8ff" stroke="#63b8ff" points="138.24,-278.06 127.66,-277.52 135.59,-284.54 138.24,-278.06"/>
</a>
</g>
</g>
<!-- Node5&#45;&gt;Node3 -->
<g id="edge5_Node000005_Node000003" class="edge">
<title>Node5&#45;&gt;Node3</title>
<g id="a_edge5_Node000005_Node000003"><a xlink:title=" ">
<path fill="none" stroke="#63b8ff" d="M374.06,-252.85C359.19,-244.71 343.22,-232.9 334.84,-217 328.62,-205.21 330.72,-199.68 334.84,-187 357.64,-116.9 422.07,-53.62 453.77,-25.66"/>
<polygon fill="#63b8ff" stroke="#63b8ff" points="456.16,-28.22 461.44,-19.03 451.58,-22.93 456.16,-28.22"/>
</a>
</g>
</g>
<!-- Node5&#45;&gt;Node4 -->
<g id="edge6_Node000005_Node000004" class="edge">
<title>Node5&#45;&gt;Node4</title>
<g id="a_edge6_Node000005_Node000004"><a xlink:title=" ">
<path fill="none" stroke="#63b8ff" d="M376.24,-252.95C351.21,-241.83 316.55,-226.42 292.36,-215.67"/>
<polygon fill="#63b8ff" stroke="#63b8ff" points="293.57,-212.38 283.01,-211.52 290.72,-218.78 293.57,-212.38"/>
</a>
</g>
</g>
<!-- Node6 -->
<g id="Node000006" class="node">
<title>Node6</title>
<g id="a_Node000006"><a xlink:href="../../df/d02/ShuntingElement_8h.html" target="_top" xlink:title="Interface abstraite pour tous les éléments de shuntage ferroviaire.">
<polygon fill="white" stroke="#666666" points="453.34,-211.5 344.34,-211.5 344.34,-192.5 453.34,-192.5 453.34,-211.5"/>
<text text-anchor="middle" x="398.84" y="-199.5" font-family="Helvetica,sans-Serif" font-size="10.00">ShuntingElement.h</text>
</a>
</g>
</g>
<!-- Node5&#45;&gt;Node6 -->
<g id="edge7_Node000005_Node000006" class="edge">
<title>Node5&#45;&gt;Node6</title>
<g id="a_edge7_Node000005_Node000006"><a xlink:title=" ">
<path fill="none" stroke="#63b8ff" d="M405.84,-252.8C404.57,-243.7 402.89,-231.79 401.5,-221.9"/>
<polygon fill="#63b8ff" stroke="#63b8ff" points="404.94,-221.26 400.09,-211.84 398.01,-222.23 404.94,-221.26"/>
</a>
</g>
</g>
<!-- Node14 -->
<g id="Node000014" class="node">
<title>Node14</title>
<g id="a_Node000014"><a xlink:href="../../df/d02/LatLon_8h.html" target="_top" xlink:title="Représentation d&#39;une coordonnée géographique WGS&#45;84 (latitude, longitude).">
<polygon fill="white" stroke="#666666" points="590.34,-217 471.34,-217 471.34,-187 590.34,-187 590.34,-217"/>
<text text-anchor="start" x="479.34" y="-205" font-family="Helvetica,sans-Serif" font-size="10.00">Modules/Coordinates</text>
<text text-anchor="middle" x="530.84" y="-194" font-family="Helvetica,sans-Serif" font-size="10.00">/LatLon.h</text>
</a>
</g>
</g>
<!-- Node5&#45;&gt;Node14 -->
<g id="edge17_Node000005_Node000014" class="edge">
<title>Node5&#45;&gt;Node14</title>
<g id="a_edge17_Node000005_Node000014"><a xlink:title=" ">
<path fill="none" stroke="#63b8ff" d="M434.83,-252.95C452.46,-243.78 475.67,-231.71 494.86,-221.72"/>
<polygon fill="#63b8ff" stroke="#63b8ff" points="496.66,-224.73 503.91,-217.01 493.43,-218.52 496.66,-224.73"/>
</a>
</g>
</g>
<!-- Node7 -->
<g id="Node000007" class="node">
<title>Node7</title>
<g id="a_Node000007"><a xlink:href="../../d6/d02/InteractiveElement_8h.html" target="_top" xlink:title="Classe de base abstraite pour tous les éléments interactifs ferroviaires.">
<polygon fill="white" stroke="#666666" points="551.34,-151 392.34,-151 392.34,-121 551.34,-121 551.34,-151"/>
<text text-anchor="start" x="400.34" y="-139" font-family="Helvetica,sans-Serif" font-size="10.00">Modules/InteractiveElements</text>
<text text-anchor="middle" x="471.84" y="-128" font-family="Helvetica,sans-Serif" font-size="10.00">/InteractiveElement.h</text>
</a>
</g>
</g>
<!-- Node6&#45;&gt;Node7 -->
<g id="edge8_Node000006_Node000007" class="edge">
<title>Node6&#45;&gt;Node7</title>
<g id="a_edge8_Node000006_Node000007"><a xlink:title=" ">
<path fill="none" stroke="#63b8ff" d="M408.69,-192.37C418.68,-183.61 434.53,-169.71 447.85,-158.04"/>
<polygon fill="#63b8ff" stroke="#63b8ff" points="450.53,-160.34 455.74,-151.12 445.91,-155.08 450.53,-160.34"/>
</a>
</g>
</g>
<!-- Node7&#45;&gt;Node3 -->
<g id="edge9_Node000007_Node000003" class="edge">
<title>Node7&#45;&gt;Node3</title>
<g id="a_edge9_Node000007_Node000003"><a xlink:title=" ">
<path fill="none" stroke="#63b8ff" d="M471.84,-120.72C471.84,-98.12 471.84,-54.12 471.84,-29.09"/>
<polygon fill="#63b8ff" stroke="#63b8ff" points="475.34,-29.07 471.84,-19.07 468.34,-29.07 475.34,-29.07"/>
</a>
</g>
</g>
<!-- Node7&#45;&gt;Node8 -->
<g id="edge10_Node000007_Node000008" class="edge">
<title>Node7&#45;&gt;Node8</title>
<g id="a_edge10_Node000007_Node000008"><a xlink:title=" ">
<path fill="none" stroke="#63b8ff" d="M516.61,-120.95C547.44,-111.28 588.57,-98.38 621.31,-88.11"/>
<polygon fill="#63b8ff" stroke="#63b8ff" points="622.68,-91.35 631.18,-85.01 620.59,-84.67 622.68,-91.35"/>
</a>
</g>
</g>
<!-- Node8&#45;&gt;Node3 -->
<g id="edge16_Node000008_Node000003" class="edge">
<title>Node8&#45;&gt;Node3</title>
<g id="a_edge16_Node000008_Node000003"><a xlink:title=" ">
<path fill="none" stroke="#63b8ff" d="M626.98,-54.99C588.9,-44.07 537.12,-29.22 504.08,-19.74"/>
<polygon fill="#63b8ff" stroke="#63b8ff" points="504.63,-16.26 494.05,-16.87 502.7,-22.99 504.63,-16.26"/>
</a>
</g>
</g>
<!-- Node9 -->
<g id="Node000009" class="node">
<title>Node9</title>
<g id="a_Node000009"><a xlink:title=" ">
<polygon fill="#e0e0e0" stroke="#999999" points="713.84,-19 669.84,-19 669.84,0 713.84,0 713.84,-19"/>
<text text-anchor="middle" x="691.84" y="-7" font-family="Helvetica,sans-Serif" font-size="10.00">ctime</text>
</a>
</g>
</g>
<!-- Node8&#45;&gt;Node9 -->
<g id="edge11_Node000008_Node000009" class="edge">
<title>Node8&#45;&gt;Node9</title>
<g id="a_edge11_Node000008_Node000009"><a xlink:title=" ">
<path fill="none" stroke="#63b8ff" d="M679.72,-54.84C681.82,-47.13 684.46,-37.49 686.74,-29.17"/>
<polygon fill="#63b8ff" stroke="#63b8ff" points="690.18,-29.84 689.44,-19.27 683.43,-27.99 690.18,-29.84"/>
</a>
</g>
</g>
<!-- Node10 -->
<g id="Node000010" class="node">
<title>Node10</title>
<g id="a_Node000010"><a xlink:title=" ">
<polygon fill="#e0e0e0" stroke="#999999" points="585.84,-19 517.84,-19 517.84,0 585.84,0 585.84,-19"/>
<text text-anchor="middle" x="551.84" y="-7" font-family="Helvetica,sans-Serif" font-size="10.00">filesystem</text>
</a>
</g>
</g>
<!-- Node8&#45;&gt;Node10 -->
<g id="edge12_Node000008_Node000010" class="edge">
<title>Node8&#45;&gt;Node10</title>
<g id="a_edge12_Node000008_Node000010"><a xlink:title=" ">
<path fill="none" stroke="#63b8ff" d="M646.14,-54.99C625.82,-45.4 599.08,-32.79 579.27,-23.44"/>
<polygon fill="#63b8ff" stroke="#63b8ff" points="580.69,-20.24 570.15,-19.14 577.71,-26.57 580.69,-20.24"/>
</a>
</g>
</g>
<!-- Node8&#45;&gt;Node11 -->
<g id="edge13_Node000008_Node000011" class="edge">
<title>Node8&#45;&gt;Node11</title>
<g id="a_edge13_Node000008_Node000011"><a xlink:title=" ">
<path fill="none" stroke="#63b8ff" d="M723.27,-54.99C757.95,-44.74 804.36,-31.03 836.44,-21.55"/>
<polygon fill="#63b8ff" stroke="#63b8ff" points="837.73,-24.82 846.32,-18.63 835.74,-18.11 837.73,-24.82"/>
</a>
</g>
</g>
<!-- Node12 -->
<g id="Node000012" class="node">
<title>Node12</title>
<g id="a_Node000012"><a xlink:title=" ">
<polygon fill="#e0e0e0" stroke="#999999" points="651.84,-19 603.84,-19 603.84,0 651.84,0 651.84,-19"/>
<text text-anchor="middle" x="627.84" y="-7" font-family="Helvetica,sans-Serif" font-size="10.00">mutex</text>
</a>
</g>
</g>
<!-- Node8&#45;&gt;Node12 -->
<g id="edge14_Node000008_Node000012" class="edge">
<title>Node8&#45;&gt;Node12</title>
<g id="a_edge14_Node000008_Node000012"><a xlink:title=" ">
<path fill="none" stroke="#63b8ff" d="M664.22,-54.84C657.4,-46.52 648.73,-35.96 641.57,-27.23"/>
<polygon fill="#63b8ff" stroke="#63b8ff" points="644.08,-24.78 635.03,-19.27 638.67,-29.22 644.08,-24.78"/>
</a>
</g>
</g>
<!-- Node13 -->
<g id="Node000013" class="node">
<title>Node13</title>
<g id="a_Node000013"><a xlink:title=" ">
<polygon fill="#e0e0e0" stroke="#999999" points="787.84,-19 731.84,-19 731.84,0 787.84,0 787.84,-19"/>
<text text-anchor="middle" x="759.84" y="-7" font-family="Helvetica,sans-Serif" font-size="10.00">sstream</text>
</a>
</g>
</g>
<!-- Node8&#45;&gt;Node13 -->
<g id="edge15_Node000008_Node000013" class="edge">
<title>Node8&#45;&gt;Node13</title>
<g id="a_edge15_Node000008_Node000013"><a xlink:title=" ">
<path fill="none" stroke="#63b8ff" d="M696.18,-54.84C709.12,-45.83 725.83,-34.18 738.89,-25.09"/>
<polygon fill="#63b8ff" stroke="#63b8ff" points="741.05,-27.85 747.26,-19.27 737.05,-22.11 741.05,-27.85"/>
</a>
</g>
</g>
<!-- Node15&#45;&gt;Node3 -->
<g id="edge21_Node000015_Node000003" class="edge">
<title>Node15&#45;&gt;Node3</title>
<g id="a_edge21_Node000015_Node000003"><a xlink:title=" ">
<path fill="none" stroke="#63b8ff" d="M608.02,-252.74C607.82,-236.43 606.25,-209.13 598.84,-187 576.18,-119.26 517.64,-55.24 488.64,-26.44"/>
<polygon fill="#63b8ff" stroke="#63b8ff" points="490.9,-23.76 481.29,-19.28 486.01,-28.77 490.9,-23.76"/>
</a>
</g>
</g>
<!-- Node15&#45;&gt;Node4 -->
<g id="edge22_Node000015_Node000004" class="edge">
<title>Node15&#45;&gt;Node4</title>
<g id="a_edge22_Node000015_Node000004"><a xlink:title=" ">
<path fill="none" stroke="#63b8ff" d="M529.53,-252.95C474.93,-243.08 400.4,-229.47 334.84,-217 322.62,-214.68 309.24,-212.06 297.41,-209.72"/>
<polygon fill="#63b8ff" stroke="#63b8ff" points="297.98,-206.26 287.49,-207.75 296.62,-213.13 297.98,-206.26"/>
</a>
</g>
</g>
<!-- Node15&#45;&gt;Node6 -->
<g id="edge24_Node000015_Node000006" class="edge">
<title>Node15&#45;&gt;Node6</title>
<g id="a_edge24_Node000015_Node000006"><a xlink:title=" ">
<path fill="none" stroke="#63b8ff" d="M561.98,-252.95C524.35,-241.43 471.74,-225.32 436.54,-214.54"/>
<polygon fill="#63b8ff" stroke="#63b8ff" points="437.24,-211.1 426.66,-211.52 435.19,-217.79 437.24,-211.1"/>
</a>
</g>
</g>
<!-- Node15&#45;&gt;Node13 -->
<g id="edge20_Node000015_Node000013" class="edge">
<title>Node15&#45;&gt;Node13</title>
<g id="a_edge20_Node000015_Node000013"><a xlink:title=" ">
<path fill="none" stroke="#63b8ff" d="M658.9,-252.9C678.07,-245.21 698.44,-233.73 711.84,-217 757.2,-160.39 761.17,-68.56 760.59,-29.29"/>
<polygon fill="#63b8ff" stroke="#63b8ff" points="764.09,-28.98 760.32,-19.08 757.09,-29.17 764.09,-28.98"/>
</a>
</g>
</g>
<!-- Node15&#45;&gt;Node14 -->
<g id="edge23_Node000015_Node000014" class="edge">
<title>Node15&#45;&gt;Node14</title>
<g id="a_edge23_Node000015_Node000014"><a xlink:title=" ">
<path fill="none" stroke="#63b8ff" d="M590.75,-252.8C580.49,-244.26 567.24,-233.25 555.81,-223.75"/>
<polygon fill="#63b8ff" stroke="#63b8ff" points="557.81,-220.86 547.88,-217.16 553.34,-226.25 557.81,-220.86"/>
</a>
</g>
</g>
<!-- Node16 -->
<g id="Node000016" class="node">
<title>Node16</title>
<g id="a_Node000016"><a xlink:title=" ">
<polygon fill="#e0e0e0" stroke="#999999" points="702.84,-211.5 646.84,-211.5 646.84,-192.5 702.84,-192.5 702.84,-211.5"/>
<text text-anchor="middle" x="674.84" y="-199.5" font-family="Helvetica,sans-Serif" font-size="10.00">optional</text>
</a>
</g>
</g>
<!-- Node15&#45;&gt;Node16 -->
<g id="edge19_Node000015_Node000016" class="edge">
<title>Node15&#45;&gt;Node16</title>
<g id="a_edge19_Node000015_Node000016"><a xlink:title=" ">
<path fill="none" stroke="#63b8ff" d="M622.71,-252.8C633.26,-242.72 647.42,-229.19 658.32,-218.78"/>
<polygon fill="#63b8ff" stroke="#63b8ff" points="660.77,-221.28 665.58,-211.84 655.93,-216.22 660.77,-221.28"/>
</a>
</g>
</g>
<!-- Node19 -->
<g id="Node000019" class="node">
<title>Node19</title>
<g id="a_Node000019"><a xlink:href="../../d6/d02/TopologyData_8h.html" target="_top" xlink:title="Conteneur central des données topologiques ferroviaires.">
<polygon fill="white" stroke="#666666" points="691.84,-338 599.84,-338 599.84,-319 691.84,-319 691.84,-338"/>
<text text-anchor="middle" x="645.84" y="-326" font-family="Helvetica,sans-Serif" font-size="10.00">TopologyData.h</text>
</a>
</g>
</g>
<!-- Node18&#45;&gt;Node19 -->
<g id="edge28_Node000018_Node000019" class="edge">
<title>Node18&#45;&gt;Node19</title>
<g id="a_edge28_Node000018_Node000019"><a xlink:title=" ">
<path fill="none" stroke="#63b8ff" d="M703.44,-373.84C691.96,-365 677.19,-353.63 665.48,-344.62"/>
<polygon fill="#63b8ff" stroke="#63b8ff" points="667.29,-341.59 657.23,-338.27 663.02,-347.14 667.29,-341.59"/>
</a>
</g>
</g>
<!-- Node19&#45;&gt;Node4 -->
<g id="edge30_Node000019_Node000004" class="edge">
<title>Node19&#45;&gt;Node4</title>
<g id="a_edge30_Node000019_Node000004"><a xlink:title=" ">
<path fill="none" stroke="#63b8ff" d="M599.59,-326.62C517.92,-324.23 352.36,-315.43 305.84,-283 284.97,-268.45 273.69,-240.23 268.22,-221.5"/>
<polygon fill="#63b8ff" stroke="#63b8ff" points="271.58,-220.52 265.65,-211.74 264.81,-222.3 271.58,-220.52"/>
</a>
</g>
</g>
<!-- Node19&#45;&gt;Node5 -->
<g id="edge32_Node000019_Node000005" class="edge">
<title>Node19&#45;&gt;Node5</title>
<g id="a_edge32_Node000019_Node000005"><a xlink:title=" ">
<path fill="none" stroke="#63b8ff" d="M611.23,-318.99C575.64,-310.24 519.28,-296.39 474.91,-285.48"/>
<polygon fill="#63b8ff" stroke="#63b8ff" points="475.61,-282.05 465.06,-283.06 473.94,-288.85 475.61,-282.05"/>
</a>
</g>
</g>
<!-- Node19&#45;&gt;Node15 -->
<g id="edge33_Node000019_Node000015" class="edge">
<title>Node19&#45;&gt;Node15</title>
<g id="a_edge33_Node000019_Node000015"><a xlink:title=" ">
<path fill="none" stroke="#63b8ff" d="M640.24,-318.87C635.6,-311.74 628.81,-301.28 622.64,-291.79"/>
<polygon fill="#63b8ff" stroke="#63b8ff" points="625.39,-289.59 617.01,-283.11 619.52,-293.41 625.39,-289.59"/>
</a>
</g>
</g>
<!-- Node20 -->
<g id="Node000020" class="node">
<title>Node20</title>
<g id="a_Node000020"><a xlink:title=" ">
<polygon fill="#e0e0e0" stroke="#999999" points="773.84,-277.5 715.84,-277.5 715.84,-258.5 773.84,-258.5 773.84,-277.5"/>
<text text-anchor="middle" x="744.84" y="-265.5" font-family="Helvetica,sans-Serif" font-size="10.00">memory</text>
</a>
</g>
</g>
<!-- Node19&#45;&gt;Node20 -->
<g id="edge29_Node000019_Node000020" class="edge">
<title>Node19&#45;&gt;Node20</title>
<g id="a_edge29_Node000019_Node000020"><a xlink:title=" ">
<path fill="none" stroke="#63b8ff" d="M660.45,-318.87C676.54,-309.36 702.62,-293.95 721.54,-282.77"/>
<polygon fill="#63b8ff" stroke="#63b8ff" points="723.35,-285.77 730.17,-277.67 719.78,-279.74 723.35,-285.77"/>
</a>
</g>
</g>
<!-- Node21 -->
<g id="Node000021" class="node">
<title>Node21</title>
<g id="a_Node000021"><a xlink:title=" ">
<polygon fill="#e0e0e0" stroke="#999999" points="885.34,-277.5 792.34,-277.5 792.34,-258.5 885.34,-258.5 885.34,-277.5"/>
<text text-anchor="middle" x="838.84" y="-265.5" font-family="Helvetica,sans-Serif" font-size="10.00">unordered_map</text>
</a>
</g>
</g>
<!-- Node19&#45;&gt;Node21 -->
<g id="edge31_Node000019_Node000021" class="edge">
<title>Node19&#45;&gt;Node21</title>
<g id="a_edge31_Node000019_Node000021"><a xlink:title=" ">
<path fill="none" stroke="#63b8ff" d="M673.91,-318.99C707.35,-308.86 763.4,-291.87 800.74,-280.55"/>
<polygon fill="#63b8ff" stroke="#63b8ff" points="802.19,-283.77 810.74,-277.52 800.16,-277.07 802.19,-283.77"/>
</a>
</g>
</g>
</g>
</svg>
