<?xml version="1.0" encoding="UTF-8" standalone="no"?>
<!DOCTYPE svg PUBLIC "-//W3C//DTD SVG 1.1//EN"
 "http://www.w3.org/Graphics/SVG/1.1/DTD/svg11.dtd">
<!-- Generated by graphviz version 2.43.0 (0)
 -->
<!-- Title: SimulateurFerroviaire/Modules/GeoParser/Pipeline/PipelineContext.h Pages: 1 -->
<svg width="1437pt" height="412pt"
 viewBox="0.00 0.00 1437.00 412.00" xmlns="http://www.w3.org/2000/svg" xmlns:xlink="http://www.w3.org/1999/xlink">
<g id="graph0" class="graph" transform="scale(1 1) rotate(0) translate(4 408)">
<title>SimulateurFerroviaire/Modules/GeoParser/Pipeline/PipelineContext.h</title>
<!-- Node1 -->
<g id="Node000001" class="node">
<title>Node1</title>
<g id="a_Node000001"><a xlink:title="Conteneur central des données inter&#45;phases du pipeline GeoParser.">
<polygon fill="#999999" stroke="#666666" points="408.5,-404 253.5,-404 253.5,-363 408.5,-363 408.5,-404"/>
<text text-anchor="start" x="261.5" y="-392" font-family="Helvetica,sans-Serif" font-size="10.00">SimulateurFerroviaire</text>
<text text-anchor="start" x="261.5" y="-381" font-family="Helvetica,sans-Serif" font-size="10.00">/Modules/GeoParser/Pipeline</text>
<text text-anchor="middle" x="331" y="-370" font-family="Helvetica,sans-Serif" font-size="10.00">/PipelineContext.h</text>
</a>
</g>
</g>
<!-- Node2 -->
<g id="Node000002" class="node">
<title>Node2</title>
<g id="a_Node000002"><a xlink:title=" ">
<polygon fill="#e0e0e0" stroke="#999999" points="50,-327 0,-327 0,-308 50,-308 50,-327"/>
<text text-anchor="middle" x="25" y="-315" font-family="Helvetica,sans-Serif" font-size="10.00">chrono</text>
</a>
</g>
</g>
<!-- Node1&#45;&gt;Node2 -->
<g id="edge1_Node000001_Node000002" class="edge">
<title>Node1&#45;&gt;Node2</title>
<g id="a_edge1_Node000001_Node000002"><a xlink:title=" ">
<path fill="none" stroke="#63b8ff" d="M253.26,-366.55C199.97,-355.56 127.67,-340.56 64,-327 62.74,-326.73 61.46,-326.46 60.17,-326.18"/>
<polygon fill="#63b8ff" stroke="#63b8ff" points="60.68,-322.71 50.17,-324.02 59.2,-329.55 60.68,-322.71"/>
</a>
</g>
</g>
<!-- Node3 -->
<g id="Node000003" class="node">
<title>Node3</title>
<g id="a_Node000003"><a xlink:title=" ">
<polygon fill="#e0e0e0" stroke="#999999" points="981,-19 937,-19 937,0 981,0 981,-19"/>
<text text-anchor="middle" x="959" y="-7" font-family="Helvetica,sans-Serif" font-size="10.00">string</text>
</a>
</g>
</g>
<!-- Node1&#45;&gt;Node3 -->
<g id="edge2_Node000001_Node000003" class="edge">
<title>Node1&#45;&gt;Node3</title>
<g id="a_edge2_Node000001_Node000003"><a xlink:title=" ">
<path fill="none" stroke="#63b8ff" d="M253.37,-376.5C179,-366.01 78,-337.18 78,-258 78,-258 78,-258 78,-129.5 78,-42.09 767.93,-16.19 926.69,-11.39"/>
<polygon fill="#63b8ff" stroke="#63b8ff" points="926.89,-14.89 936.78,-11.09 926.68,-7.89 926.89,-14.89"/>
</a>
</g>
</g>
<!-- Node4 -->
<g id="Node000004" class="node">
<title>Node4</title>
<g id="a_Node000004"><a xlink:title=" ">
<polygon fill="#e0e0e0" stroke="#999999" points="505.5,-200.5 458.5,-200.5 458.5,-181.5 505.5,-181.5 505.5,-200.5"/>
<text text-anchor="middle" x="482" y="-188.5" font-family="Helvetica,sans-Serif" font-size="10.00">vector</text>
</a>
</g>
</g>
<!-- Node1&#45;&gt;Node4 -->
<g id="edge3_Node000001_Node000004" class="edge">
<title>Node1&#45;&gt;Node4</title>
<g id="a_edge3_Node000001_Node000004"><a xlink:title=" ">
<path fill="none" stroke="#63b8ff" d="M253.32,-370.3C205.12,-360.97 149.66,-346.39 135,-327 129.91,-320.26 133.01,-316.21 135,-308 142.77,-275.93 142.27,-261.35 169,-242 213.2,-210 376.76,-197.57 448.22,-193.6"/>
<polygon fill="#63b8ff" stroke="#63b8ff" points="448.67,-197.08 458.47,-193.05 448.3,-190.09 448.67,-197.08"/>
</a>
</g>
</g>
<!-- Node5 -->
<g id="Node000005" class="node">
<title>Node5</title>
<g id="a_Node000005"><a xlink:title=" ">
<polygon fill="#e0e0e0" stroke="#999999" points="200,-327 144,-327 144,-308 200,-308 200,-327"/>
<text text-anchor="middle" x="172" y="-315" font-family="Helvetica,sans-Serif" font-size="10.00">numeric</text>
</a>
</g>
</g>
<!-- Node1&#45;&gt;Node5 -->
<g id="edge4_Node000001_Node000005" class="edge">
<title>Node1&#45;&gt;Node5</title>
<g id="a_edge4_Node000001_Node000005"><a xlink:title=" ">
<path fill="none" stroke="#63b8ff" d="M282.43,-362.95C256.5,-352.51 225.36,-339.98 202.77,-330.88"/>
<polygon fill="#63b8ff" stroke="#63b8ff" points="203.93,-327.58 193.35,-327.09 201.32,-334.07 203.93,-327.58"/>
</a>
</g>
</g>
<!-- Node6 -->
<g id="Node000006" class="node">
<title>Node6</title>
<g id="a_Node000006"><a xlink:href="../../de/d02/RawNetwork_8h.html" target="_top" xlink:title="Structures de données produites par Phase1_GeoLoader.">
<polygon fill="white" stroke="#666666" points="821,-266.5 733,-266.5 733,-247.5 821,-247.5 821,-266.5"/>
<text text-anchor="middle" x="777" y="-254.5" font-family="Helvetica,sans-Serif" font-size="10.00">RawNetwork.h</text>
</a>
</g>
</g>
<!-- Node1&#45;&gt;Node6 -->
<g id="edge5_Node000001_Node000006" class="edge">
<title>Node1&#45;&gt;Node6</title>
<g id="a_edge5_Node000001_Node000006"><a xlink:title=" ">
<path fill="none" stroke="#63b8ff" d="M401.18,-362.91C495.67,-336.53 660.71,-290.46 736.66,-269.26"/>
<polygon fill="#63b8ff" stroke="#63b8ff" points="737.64,-272.62 746.33,-266.56 735.76,-265.88 737.64,-272.62"/>
</a>
</g>
</g>
<!-- Node9 -->
<g id="Node000009" class="node">
<title>Node9</title>
<g id="a_Node000009"><a xlink:href="../../d0/d00/IntersectionMap_8h.html" target="_top" xlink:title="Structures de données produites par Phase2_GeometricIntersector.">
<polygon fill="white" stroke="#666666" points="322,-327 218,-327 218,-308 322,-308 322,-327"/>
<text text-anchor="middle" x="270" y="-315" font-family="Helvetica,sans-Serif" font-size="10.00">IntersectionMap.h</text>
</a>
</g>
</g>
<!-- Node1&#45;&gt;Node9 -->
<g id="edge10_Node000001_Node000009" class="edge">
<title>Node1&#45;&gt;Node9</title>
<g id="a_edge10_Node000001_Node000009"><a xlink:title=" ">
<path fill="none" stroke="#63b8ff" d="M312.37,-362.95C303.76,-353.92 293.67,-343.33 285.49,-334.75"/>
<polygon fill="#63b8ff" stroke="#63b8ff" points="287.78,-332.08 278.35,-327.26 282.72,-336.91 287.78,-332.08"/>
</a>
</g>
</g>
<!-- Node11 -->
<g id="Node000011" class="node">
<title>Node11</title>
<g id="a_Node000011"><a xlink:href="../../da/d00/SplitNetwork_8h.html" target="_top" xlink:title="Structures de données produites par Phase3_NetworkSplitter.">
<polygon fill="white" stroke="#666666" points="599.5,-266.5 510.5,-266.5 510.5,-247.5 599.5,-247.5 599.5,-266.5"/>
<text text-anchor="middle" x="555" y="-254.5" font-family="Helvetica,sans-Serif" font-size="10.00">SplitNetwork.h</text>
</a>
</g>
</g>
<!-- Node1&#45;&gt;Node11 -->
<g id="edge14_Node000001_Node000011" class="edge">
<title>Node1&#45;&gt;Node11</title>
<g id="a_edge14_Node000001_Node000011"><a xlink:title=" ">
<path fill="none" stroke="#63b8ff" d="M378.84,-362.95C401.73,-353.05 429.25,-340.31 453,-327 482.92,-310.23 515.4,-287.38 535.48,-272.66"/>
<polygon fill="#63b8ff" stroke="#63b8ff" points="537.82,-275.28 543.78,-266.52 533.66,-269.65 537.82,-275.28"/>
</a>
</g>
</g>
<!-- Node12 -->
<g id="Node000012" class="node">
<title>Node12</title>
<g id="a_Node000012"><a xlink:href="../../d7/d03/TopologyGraph_8h.html" target="_top" xlink:title="Structures de données produites par Phase4_TopologyBuilder.">
<polygon fill="white" stroke="#666666" points="715,-266.5 617,-266.5 617,-247.5 715,-247.5 715,-266.5"/>
<text text-anchor="middle" x="666" y="-254.5" font-family="Helvetica,sans-Serif" font-size="10.00">TopologyGraph.h</text>
</a>
</g>
</g>
<!-- Node1&#45;&gt;Node12 -->
<g id="edge18_Node000001_Node000012" class="edge">
<title>Node1&#45;&gt;Node12</title>
<g id="a_edge18_Node000001_Node000012"><a xlink:title=" ">
<path fill="none" stroke="#63b8ff" d="M384.49,-362.94C413.38,-352.34 449.66,-339.01 482,-327 535.21,-307.25 596.96,-284.03 633.69,-270.19"/>
<polygon fill="#63b8ff" stroke="#63b8ff" points="635.23,-273.35 643.36,-266.55 632.76,-266.8 635.23,-273.35"/>
</a>
</g>
</g>
<!-- Node13 -->
<g id="Node000013" class="node">
<title>Node13</title>
<g id="a_Node000013"><a xlink:href="../../d4/d00/ClassifiedNodes_8h.html" target="_top" xlink:title="Structures de données produites par Phase5_SwitchClassifier.">
<polygon fill="white" stroke="#666666" points="444,-327 340,-327 340,-308 444,-308 444,-327"/>
<text text-anchor="middle" x="392" y="-315" font-family="Helvetica,sans-Serif" font-size="10.00">ClassifiedNodes.h</text>
</a>
</g>
</g>
<!-- Node1&#45;&gt;Node13 -->
<g id="edge22_Node000001_Node000013" class="edge">
<title>Node1&#45;&gt;Node13</title>
<g id="a_edge22_Node000001_Node000013"><a xlink:title=" ">
<path fill="none" stroke="#63b8ff" d="M349.63,-362.95C358.24,-353.92 368.33,-343.33 376.51,-334.75"/>
<polygon fill="#63b8ff" stroke="#63b8ff" points="379.28,-336.91 383.65,-327.26 374.22,-332.08 379.28,-336.91"/>
</a>
</g>
</g>
<!-- Node16 -->
<g id="Node000016" class="node">
<title>Node16</title>
<g id="a_Node000016"><a xlink:href="../../d2/d01/BlockSet_8h.html" target="_top" xlink:title="Structures de données produites par Phase6_BlockExtractor.">
<polygon fill="white" stroke="#666666" points="1034,-327 966,-327 966,-308 1034,-308 1034,-327"/>
<text text-anchor="middle" x="1000" y="-315" font-family="Helvetica,sans-Serif" font-size="10.00">BlockSet.h</text>
</a>
</g>
</g>
<!-- Node1&#45;&gt;Node16 -->
<g id="edge26_Node000001_Node000016" class="edge">
<title>Node1&#45;&gt;Node16</title>
<g id="a_edge26_Node000001_Node000016"><a xlink:title=" ">
<path fill="none" stroke="#63b8ff" d="M408.72,-375.06C549.82,-361.57 843.81,-333.44 955.58,-322.75"/>
<polygon fill="#63b8ff" stroke="#63b8ff" points="956.19,-326.21 965.82,-321.77 955.53,-319.24 956.19,-326.21"/>
</a>
</g>
</g>
<!-- Node6&#45;&gt;Node3 -->
<g id="edge6_Node000006_Node000003" class="edge">
<title>Node6&#45;&gt;Node3</title>
<g id="a_edge6_Node000006_Node000003"><a xlink:title=" ">
<path fill="none" stroke="#63b8ff" d="M786.58,-247.41C796.84,-237.91 813.23,-221.84 825,-206 870.92,-144.17 861.99,-115.22 910,-55 918.64,-44.16 930.02,-33.65 939.64,-25.57"/>
<polygon fill="#63b8ff" stroke="#63b8ff" points="941.98,-28.18 947.53,-19.15 937.56,-22.75 941.98,-28.18"/>
</a>
</g>
</g>
<!-- Node6&#45;&gt;Node4 -->
<g id="edge7_Node000006_Node000004" class="edge">
<title>Node6&#45;&gt;Node4</title>
<g id="a_edge7_Node000006_Node000004"><a xlink:title=" ">
<path fill="none" stroke="#63b8ff" d="M746.56,-247.47C739.21,-245.54 731.35,-243.6 724,-242 631.47,-221.89 604.71,-233.18 514,-206 512.36,-205.51 510.7,-204.96 509.03,-204.36"/>
<polygon fill="#63b8ff" stroke="#63b8ff" points="510.24,-201.08 499.65,-200.63 507.65,-207.58 510.24,-201.08"/>
</a>
</g>
</g>
<!-- Node7 -->
<g id="Node000007" class="node">
<title>Node7</title>
<g id="a_Node000007"><a xlink:href="../../d6/d01/CoordinateLatLon_8h.html" target="_top" xlink:title="Représentation d&#39;une coordonnée géographique WGS&#45;84 (latitude, longitude).">
<polygon fill="white" stroke="#666666" points="815.5,-206 678.5,-206 678.5,-176 815.5,-176 815.5,-206"/>
<text text-anchor="start" x="686.5" y="-194" font-family="Helvetica,sans-Serif" font-size="10.00">Engine/Core/Coordinates</text>
<text text-anchor="middle" x="747" y="-183" font-family="Helvetica,sans-Serif" font-size="10.00">/CoordinateLatLon.h</text>
</a>
</g>
</g>
<!-- Node6&#45;&gt;Node7 -->
<g id="edge8_Node000006_Node000007" class="edge">
<title>Node6&#45;&gt;Node7</title>
<g id="a_edge8_Node000006_Node000007"><a xlink:title=" ">
<path fill="none" stroke="#63b8ff" d="M772.95,-247.37C769.14,-239.24 763.26,-226.69 758.06,-215.59"/>
<polygon fill="#63b8ff" stroke="#63b8ff" points="761.14,-213.93 753.73,-206.36 754.81,-216.9 761.14,-213.93"/>
</a>
</g>
</g>
<!-- Node8 -->
<g id="Node000008" class="node">
<title>Node8</title>
<g id="a_Node000008"><a xlink:href="../../db/d03/CoordinateXY_8h.html" target="_top" xlink:title="Représentation d&#39;une coordonnée plane en mètres (système métrique UTM).">
<polygon fill="white" stroke="#666666" points="660.5,-206 523.5,-206 523.5,-176 660.5,-176 660.5,-206"/>
<text text-anchor="start" x="531.5" y="-194" font-family="Helvetica,sans-Serif" font-size="10.00">Engine/Core/Coordinates</text>
<text text-anchor="middle" x="592" y="-183" font-family="Helvetica,sans-Serif" font-size="10.00">/CoordinateXY.h</text>
</a>
</g>
</g>
<!-- Node6&#45;&gt;Node8 -->
<g id="edge9_Node000006_Node000008" class="edge">
<title>Node6&#45;&gt;Node8</title>
<g id="a_edge9_Node000006_Node000008"><a xlink:title=" ">
<path fill="none" stroke="#63b8ff" d="M752.05,-247.37C724.1,-237.7 678.07,-221.77 642.53,-209.48"/>
<polygon fill="#63b8ff" stroke="#63b8ff" points="643.4,-206.08 632.8,-206.12 641.11,-212.69 643.4,-206.08"/>
</a>
</g>
</g>
<!-- Node9&#45;&gt;Node4 -->
<g id="edge12_Node000009_Node000004" class="edge">
<title>Node9&#45;&gt;Node4</title>
<g id="a_edge12_Node000009_Node000004"><a xlink:title=" ">
<path fill="none" stroke="#63b8ff" d="M230.69,-307.92C211.29,-301.48 189.59,-290.49 178,-272 170.92,-260.7 169.37,-252.16 178,-242 212.33,-201.57 375.91,-193.77 447.88,-192.31"/>
<polygon fill="#63b8ff" stroke="#63b8ff" points="448.27,-195.81 458.21,-192.14 448.15,-188.81 448.27,-195.81"/>
</a>
</g>
</g>
<!-- Node9&#45;&gt;Node8 -->
<g id="edge13_Node000009_Node000008" class="edge">
<title>Node9&#45;&gt;Node8</title>
<g id="a_edge13_Node000009_Node000008"><a xlink:title=" ">
<path fill="none" stroke="#63b8ff" d="M250.73,-307.9C236.88,-300.55 219.24,-288.54 211,-272 205.05,-260.07 202.15,-251.97 211,-242 254.18,-193.38 431.52,-214.1 513.2,-205.82"/>
<polygon fill="#63b8ff" stroke="#63b8ff" points="513.64,-209.29 523.13,-204.59 512.78,-202.34 513.64,-209.29"/>
</a>
</g>
</g>
<!-- Node10 -->
<g id="Node000010" class="node">
<title>Node10</title>
<g id="a_Node000010"><a xlink:title=" ">
<polygon fill="#e0e0e0" stroke="#999999" points="313.5,-266.5 220.5,-266.5 220.5,-247.5 313.5,-247.5 313.5,-266.5"/>
<text text-anchor="middle" x="267" y="-254.5" font-family="Helvetica,sans-Serif" font-size="10.00">unordered_map</text>
</a>
</g>
</g>
<!-- Node9&#45;&gt;Node10 -->
<g id="edge11_Node000009_Node000010" class="edge">
<title>Node9&#45;&gt;Node10</title>
<g id="a_edge11_Node000009_Node000010"><a xlink:title=" ">
<path fill="none" stroke="#63b8ff" d="M269.56,-307.87C269.14,-299.75 268.5,-287.31 267.97,-276.89"/>
<polygon fill="#63b8ff" stroke="#63b8ff" points="271.45,-276.47 267.44,-266.67 264.46,-276.83 271.45,-276.47"/>
</a>
</g>
</g>
<!-- Node11&#45;&gt;Node4 -->
<g id="edge15_Node000011_Node000004" class="edge">
<title>Node11&#45;&gt;Node4</title>
<g id="a_edge15_Node000011_Node000004"><a xlink:title=" ">
<path fill="none" stroke="#63b8ff" d="M545.15,-247.37C533.57,-237.21 514.12,-220.16 499.86,-207.65"/>
<polygon fill="#63b8ff" stroke="#63b8ff" points="501.98,-204.87 492.16,-200.91 497.37,-210.13 501.98,-204.87"/>
</a>
</g>
</g>
<!-- Node11&#45;&gt;Node7 -->
<g id="edge16_Node000011_Node000007" class="edge">
<title>Node11&#45;&gt;Node7</title>
<g id="a_edge16_Node000011_Node000007"><a xlink:title=" ">
<path fill="none" stroke="#63b8ff" d="M580.89,-247.37C610.02,-237.66 658.08,-221.64 695.03,-209.32"/>
<polygon fill="#63b8ff" stroke="#63b8ff" points="696.27,-212.6 704.65,-206.12 694.06,-205.96 696.27,-212.6"/>
</a>
</g>
</g>
<!-- Node11&#45;&gt;Node8 -->
<g id="edge17_Node000011_Node000008" class="edge">
<title>Node11&#45;&gt;Node8</title>
<g id="a_edge17_Node000011_Node000008"><a xlink:title=" ">
<path fill="none" stroke="#63b8ff" d="M559.99,-247.37C564.74,-239.16 572.09,-226.44 578.56,-215.26"/>
<polygon fill="#63b8ff" stroke="#63b8ff" points="581.72,-216.77 583.7,-206.36 575.66,-213.27 581.72,-216.77"/>
</a>
</g>
</g>
<!-- Node12&#45;&gt;Node4 -->
<g id="edge19_Node000012_Node000004" class="edge">
<title>Node12&#45;&gt;Node4</title>
<g id="a_edge19_Node000012_Node000004"><a xlink:title=" ">
<path fill="none" stroke="#63b8ff" d="M637.42,-247.49C606.66,-238.11 556.43,-222.22 514,-206 512.79,-205.54 511.56,-205.05 510.32,-204.56"/>
<polygon fill="#63b8ff" stroke="#63b8ff" points="511.41,-201.22 500.83,-200.59 508.7,-207.68 511.41,-201.22"/>
</a>
</g>
</g>
<!-- Node12&#45;&gt;Node7 -->
<g id="edge20_Node000012_Node000007" class="edge">
<title>Node12&#45;&gt;Node7</title>
<g id="a_edge20_Node000012_Node000007"><a xlink:title=" ">
<path fill="none" stroke="#63b8ff" d="M676.92,-247.37C688.22,-238.44 706.26,-224.19 721.21,-212.38"/>
<polygon fill="#63b8ff" stroke="#63b8ff" points="723.46,-215.06 729.13,-206.12 719.12,-209.57 723.46,-215.06"/>
</a>
</g>
</g>
<!-- Node12&#45;&gt;Node8 -->
<g id="edge21_Node000012_Node000008" class="edge">
<title>Node12&#45;&gt;Node8</title>
<g id="a_edge21_Node000012_Node000008"><a xlink:title=" ">
<path fill="none" stroke="#63b8ff" d="M656.02,-247.37C645.8,-238.53 629.52,-224.45 615.94,-212.71"/>
<polygon fill="#63b8ff" stroke="#63b8ff" points="618.17,-210.01 608.32,-206.12 613.6,-215.3 618.17,-210.01"/>
</a>
</g>
</g>
<!-- Node13&#45;&gt;Node10 -->
<g id="edge23_Node000013_Node000010" class="edge">
<title>Node13&#45;&gt;Node10</title>
<g id="a_edge23_Node000013_Node000010"><a xlink:title=" ">
<path fill="none" stroke="#63b8ff" d="M373.82,-307.99C352.99,-298.25 318.63,-282.16 294.52,-270.88"/>
<polygon fill="#63b8ff" stroke="#63b8ff" points="295.74,-267.59 285.2,-266.52 292.77,-273.93 295.74,-267.59"/>
</a>
</g>
</g>
<!-- Node14 -->
<g id="Node000014" class="node">
<title>Node14</title>
<g id="a_Node000014"><a xlink:title=" ">
<polygon fill="#e0e0e0" stroke="#999999" points="382,-266.5 332,-266.5 332,-247.5 382,-247.5 382,-266.5"/>
<text text-anchor="middle" x="357" y="-254.5" font-family="Helvetica,sans-Serif" font-size="10.00">cstdint</text>
</a>
</g>
</g>
<!-- Node13&#45;&gt;Node14 -->
<g id="edge24_Node000013_Node000014" class="edge">
<title>Node13&#45;&gt;Node14</title>
<g id="a_edge24_Node000013_Node000014"><a xlink:title=" ">
<path fill="none" stroke="#63b8ff" d="M386.84,-307.87C381.77,-299.4 373.9,-286.24 367.51,-275.57"/>
<polygon fill="#63b8ff" stroke="#63b8ff" points="370.32,-273.45 362.19,-266.67 364.32,-277.05 370.32,-273.45"/>
</a>
</g>
</g>
<!-- Node15 -->
<g id="Node000015" class="node">
<title>Node15</title>
<g id="a_Node000015"><a xlink:title=" ">
<polygon fill="#e0e0e0" stroke="#999999" points="453.5,-266.5 400.5,-266.5 400.5,-247.5 453.5,-247.5 453.5,-266.5"/>
<text text-anchor="middle" x="427" y="-254.5" font-family="Helvetica,sans-Serif" font-size="10.00">cstddef</text>
</a>
</g>
</g>
<!-- Node13&#45;&gt;Node15 -->
<g id="edge25_Node000013_Node000015" class="edge">
<title>Node13&#45;&gt;Node15</title>
<g id="a_edge25_Node000013_Node000015"><a xlink:title=" ">
<path fill="none" stroke="#63b8ff" d="M397.16,-307.87C402.23,-299.4 410.1,-286.24 416.49,-275.57"/>
<polygon fill="#63b8ff" stroke="#63b8ff" points="419.68,-277.05 421.81,-266.67 413.68,-273.45 419.68,-277.05"/>
</a>
</g>
</g>
<!-- Node16&#45;&gt;Node3 -->
<g id="edge29_Node000016_Node000003" class="edge">
<title>Node16&#45;&gt;Node3</title>
<g id="a_edge29_Node000016_Node000003"><a xlink:title=" ">
<path fill="none" stroke="#63b8ff" d="M1034.23,-315.44C1075.65,-312.73 1146.15,-303.43 1197,-272 1238.64,-246.26 1274.95,-218.7 1251,-176 1222.34,-124.89 1058.5,-51.95 989.56,-23.01"/>
<polygon fill="#63b8ff" stroke="#63b8ff" points="990.68,-19.69 980.11,-19.07 987.99,-26.15 990.68,-19.69"/>
</a>
</g>
</g>
<!-- Node16&#45;&gt;Node4 -->
<g id="edge31_Node000016_Node000004" class="edge">
<title>Node16&#45;&gt;Node4</title>
<g id="a_edge31_Node000016_Node000004"><a xlink:title=" ">
<path fill="none" stroke="#63b8ff" d="M965.84,-315.73C858.97,-313.01 536.07,-302.34 501,-272 483.66,-256.99 480.6,-229.32 480.73,-210.78"/>
<polygon fill="#63b8ff" stroke="#63b8ff" points="484.23,-210.74 481.12,-200.62 477.24,-210.47 484.23,-210.74"/>
</a>
</g>
</g>
<!-- Node16&#45;&gt;Node10 -->
<g id="edge30_Node000016_Node000010" class="edge">
<title>Node16&#45;&gt;Node10</title>
<g id="a_edge30_Node000016_Node000010"><a xlink:title=" ">
<path fill="none" stroke="#63b8ff" d="M965.95,-316.41C866.39,-315.7 567.38,-310.26 323,-272 317.81,-271.19 312.4,-270.12 307.08,-268.94"/>
<polygon fill="#63b8ff" stroke="#63b8ff" points="307.56,-265.46 297.02,-266.56 305.95,-272.27 307.56,-265.46"/>
</a>
</g>
</g>
<!-- Node17 -->
<g id="Node000017" class="node">
<title>Node17</title>
<g id="a_Node000017"><a xlink:title=" ">
<polygon fill="#e0e0e0" stroke="#999999" points="1242,-200.5 1200,-200.5 1200,-181.5 1242,-181.5 1242,-200.5"/>
<text text-anchor="middle" x="1221" y="-188.5" font-family="Helvetica,sans-Serif" font-size="10.00">array</text>
</a>
</g>
</g>
<!-- Node16&#45;&gt;Node17 -->
<g id="edge27_Node000016_Node000017" class="edge">
<title>Node16&#45;&gt;Node17</title>
<g id="a_edge27_Node000016_Node000017"><a xlink:title=" ">
<path fill="none" stroke="#63b8ff" d="M1034.08,-314.84C1070.81,-311.5 1129.44,-301.55 1170,-272 1191.58,-256.28 1206.28,-228.39 1214.16,-210.05"/>
<polygon fill="#63b8ff" stroke="#63b8ff" points="1217.41,-211.33 1217.92,-200.75 1210.93,-208.71 1217.41,-211.33"/>
</a>
</g>
</g>
<!-- Node18 -->
<g id="Node000018" class="node">
<title>Node18</title>
<g id="a_Node000018"><a xlink:title=" ">
<polygon fill="#e0e0e0" stroke="#999999" points="1356,-266.5 1298,-266.5 1298,-247.5 1356,-247.5 1356,-266.5"/>
<text text-anchor="middle" x="1327" y="-254.5" font-family="Helvetica,sans-Serif" font-size="10.00">memory</text>
</a>
</g>
</g>
<!-- Node16&#45;&gt;Node18 -->
<g id="edge28_Node000016_Node000018" class="edge">
<title>Node16&#45;&gt;Node18</title>
<g id="a_edge28_Node000016_Node000018"><a xlink:title=" ">
<path fill="none" stroke="#63b8ff" d="M1034,-312.95C1087.64,-306.95 1194.94,-293.33 1284,-272 1287.03,-271.27 1290.16,-270.44 1293.28,-269.54"/>
<polygon fill="#63b8ff" stroke="#63b8ff" points="1294.55,-272.81 1303.09,-266.53 1292.5,-266.12 1294.55,-272.81"/>
</a>
</g>
</g>
<!-- Node19 -->
<g id="Node000019" class="node">
<title>Node19</title>
<g id="a_Node000019"><a xlink:href="../../de/d01/StraightBlock_8h.html" target="_top" xlink:title="Modèle de domaine d&#39;un bloc de voie droite (Straight).">
<polygon fill="white" stroke="#666666" points="991,-272 839,-272 839,-242 991,-242 991,-272"/>
<text text-anchor="start" x="847" y="-260" font-family="Helvetica,sans-Serif" font-size="10.00">Modules/Elements/Shunting</text>
<text text-anchor="middle" x="915" y="-249" font-family="Helvetica,sans-Serif" font-size="10.00">Elements/StraightBlock.h</text>
</a>
</g>
</g>
<!-- Node16&#45;&gt;Node19 -->
<g id="edge32_Node000016_Node000019" class="edge">
<title>Node16&#45;&gt;Node19</title>
<g id="a_edge32_Node000016_Node000019"><a xlink:title=" ">
<path fill="none" stroke="#63b8ff" d="M987.46,-307.87C976.03,-300 958.73,-288.09 943.89,-277.89"/>
<polygon fill="#63b8ff" stroke="#63b8ff" points="945.73,-274.9 935.51,-272.11 941.76,-280.67 945.73,-274.9"/>
</a>
</g>
</g>
<!-- Node29 -->
<g id="Node000029" class="node">
<title>Node29</title>
<g id="a_Node000029"><a xlink:href="../../dc/d01/SwitchBlock_8h.html" target="_top" xlink:title="Modèle de domaine d&#39;un aiguillage ferroviaire à 3 branches.">
<polygon fill="white" stroke="#666666" points="1161,-272 1009,-272 1009,-242 1161,-242 1161,-272"/>
<text text-anchor="start" x="1017" y="-260" font-family="Helvetica,sans-Serif" font-size="10.00">Modules/Elements/Shunting</text>
<text text-anchor="middle" x="1085" y="-249" font-family="Helvetica,sans-Serif" font-size="10.00">Elements/SwitchBlock.h</text>
</a>
</g>
</g>
<!-- Node16&#45;&gt;Node29 -->
<g id="edge48_Node000016_Node000029" class="edge">
<title>Node16&#45;&gt;Node29</title>
<g id="a_edge48_Node000016_Node000029"><a xlink:title=" ">
<path fill="none" stroke="#63b8ff" d="M1012.54,-307.87C1023.97,-300 1041.27,-288.09 1056.11,-277.89"/>
<polygon fill="#63b8ff" stroke="#63b8ff" points="1058.24,-280.67 1064.49,-272.11 1054.27,-274.9 1058.24,-280.67"/>
</a>
</g>
</g>
<!-- Node19&#45;&gt;Node3 -->
<g id="edge33_Node000019_Node000003" class="edge">
<title>Node19&#45;&gt;Node3</title>
<g id="a_edge33_Node000019_Node000003"><a xlink:title=" ">
<path fill="none" stroke="#63b8ff" d="M910.43,-241.98C903.05,-217.22 890.34,-164.24 901,-121 909.81,-85.24 932.49,-48.26 946.74,-27.44"/>
<polygon fill="#63b8ff" stroke="#63b8ff" points="949.73,-29.27 952.61,-19.07 944,-25.24 949.73,-29.27"/>
</a>
</g>
</g>
<!-- Node19&#45;&gt;Node4 -->
<g id="edge34_Node000019_Node000004" class="edge">
<title>Node19&#45;&gt;Node4</title>
<g id="a_edge34_Node000019_Node000004"><a xlink:title=" ">
<path fill="none" stroke="#63b8ff" d="M838.57,-243.23C835.68,-242.8 832.81,-242.39 830,-242 690,-222.51 650.5,-242.74 514,-206 512.11,-205.49 510.19,-204.89 508.28,-204.22"/>
<polygon fill="#63b8ff" stroke="#63b8ff" points="509.52,-200.95 498.93,-200.53 506.94,-207.46 509.52,-200.95"/>
</a>
</g>
</g>
<!-- Node19&#45;&gt;Node7 -->
<g id="edge46_Node000019_Node000007" class="edge">
<title>Node19&#45;&gt;Node7</title>
<g id="a_edge46_Node000019_Node000007"><a xlink:title=" ">
<path fill="none" stroke="#63b8ff" d="M878.13,-241.95C853.18,-232.45 820.04,-219.82 793.31,-209.64"/>
<polygon fill="#63b8ff" stroke="#63b8ff" points="794.37,-206.3 783.78,-206.01 791.88,-212.84 794.37,-206.3"/>
</a>
</g>
</g>
<!-- Node19&#45;&gt;Node8 -->
<g id="edge47_Node000019_Node000008" class="edge">
<title>Node19&#45;&gt;Node8</title>
<g id="a_edge47_Node000019_Node000008"><a xlink:title=" ">
<path fill="none" stroke="#63b8ff" d="M844.12,-241.95C792.83,-231.79 723.5,-218.06 670.53,-207.56"/>
<polygon fill="#63b8ff" stroke="#63b8ff" points="670.99,-204.08 660.5,-205.57 669.63,-210.95 670.99,-204.08"/>
</a>
</g>
</g>
<!-- Node20 -->
<g id="Node000020" class="node">
<title>Node20</title>
<g id="a_Node000020"><a xlink:href="../../df/d02/ShuntingElement_8h.html" target="_top" xlink:title="Interface abstraite pour tous les éléments de shuntage ferroviaire.">
<polygon fill="white" stroke="#666666" points="1031.5,-200.5 922.5,-200.5 922.5,-181.5 1031.5,-181.5 1031.5,-200.5"/>
<text text-anchor="middle" x="977" y="-188.5" font-family="Helvetica,sans-Serif" font-size="10.00">ShuntingElement.h</text>
</a>
</g>
</g>
<!-- Node19&#45;&gt;Node20 -->
<g id="edge35_Node000019_Node000020" class="edge">
<title>Node19&#45;&gt;Node20</title>
<g id="a_edge35_Node000019_Node000020"><a xlink:title=" ">
<path fill="none" stroke="#63b8ff" d="M928.76,-241.8C938.43,-231.82 951.37,-218.46 961.42,-208.09"/>
<polygon fill="#63b8ff" stroke="#63b8ff" points="963.99,-210.46 968.43,-200.84 958.96,-205.59 963.99,-210.46"/>
</a>
</g>
</g>
<!-- Node21 -->
<g id="Node000021" class="node">
<title>Node21</title>
<g id="a_Node000021"><a xlink:href="../../d5/d02/Element_8h.html" target="_top" xlink:title="Classe de base abstraite pour tous les éléments interactifs ferroviaires.">
<polygon fill="white" stroke="#666666" points="1068.5,-140 909.5,-140 909.5,-121 1068.5,-121 1068.5,-140"/>
<text text-anchor="middle" x="989" y="-128" font-family="Helvetica,sans-Serif" font-size="10.00">Modules/Elements/Element.h</text>
</a>
</g>
</g>
<!-- Node20&#45;&gt;Node21 -->
<g id="edge36_Node000020_Node000021" class="edge">
<title>Node20&#45;&gt;Node21</title>
<g id="a_edge36_Node000020_Node000021"><a xlink:title=" ">
<path fill="none" stroke="#63b8ff" d="M978.77,-181.37C980.45,-173.16 983.04,-160.54 985.19,-150.05"/>
<polygon fill="#63b8ff" stroke="#63b8ff" points="988.64,-150.67 987.22,-140.17 981.78,-149.26 988.64,-150.67"/>
</a>
</g>
</g>
<!-- Node21&#45;&gt;Node3 -->
<g id="edge37_Node000021_Node000003" class="edge">
<title>Node21&#45;&gt;Node3</title>
<g id="a_edge37_Node000021_Node000003"><a xlink:title=" ">
<path fill="none" stroke="#63b8ff" d="M986.84,-120.94C982.02,-101.82 970.29,-55.27 963.69,-29.12"/>
<polygon fill="#63b8ff" stroke="#63b8ff" points="967.06,-28.14 961.22,-19.3 960.27,-29.85 967.06,-28.14"/>
</a>
</g>
</g>
<!-- Node22 -->
<g id="Node000022" class="node">
<title>Node22</title>
<g id="a_Node000022"><a xlink:href="../../dd/d00/Logger_8h.html" target="_top" xlink:title="Système de journalisation à 5 niveaux de trace, un fichier par moteur.">
<polygon fill="white" stroke="#666666" points="1273.5,-85 1162.5,-85 1162.5,-55 1273.5,-55 1273.5,-85"/>
<text text-anchor="start" x="1170.5" y="-73" font-family="Helvetica,sans-Serif" font-size="10.00">Engine/Core/Logger</text>
<text text-anchor="middle" x="1218" y="-62" font-family="Helvetica,sans-Serif" font-size="10.00">/Logger.h</text>
</a>
</g>
</g>
<!-- Node21&#45;&gt;Node22 -->
<g id="edge38_Node000021_Node000022" class="edge">
<title>Node21&#45;&gt;Node22</title>
<g id="a_edge38_Node000021_Node000022"><a xlink:title=" ">
<path fill="none" stroke="#63b8ff" d="M1022.3,-120.99C1056.48,-112.26 1110.55,-98.45 1153.2,-87.55"/>
<polygon fill="#63b8ff" stroke="#63b8ff" points="1154.12,-90.93 1162.95,-85.06 1152.39,-84.15 1154.12,-90.93"/>
</a>
</g>
</g>
<!-- Node22&#45;&gt;Node3 -->
<g id="edge44_Node000022_Node000003" class="edge">
<title>Node22&#45;&gt;Node3</title>
<g id="a_edge44_Node000022_Node000003"><a xlink:title=" ">
<path fill="none" stroke="#63b8ff" d="M1162.34,-57.44C1116.29,-47.7 1049.23,-33.14 991,-19 990.9,-18.98 990.8,-18.95 990.7,-18.93"/>
<polygon fill="#63b8ff" stroke="#63b8ff" points="991.56,-15.53 981,-16.48 989.84,-22.32 991.56,-15.53"/>
</a>
</g>
</g>
<!-- Node23 -->
<g id="Node000023" class="node">
<title>Node23</title>
<g id="a_Node000023"><a xlink:title=" ">
<polygon fill="#e0e0e0" stroke="#999999" points="1269,-19 1225,-19 1225,0 1269,0 1269,-19"/>
<text text-anchor="middle" x="1247" y="-7" font-family="Helvetica,sans-Serif" font-size="10.00">ctime</text>
</a>
</g>
</g>
<!-- Node22&#45;&gt;Node23 -->
<g id="edge39_Node000022_Node000023" class="edge">
<title>Node22&#45;&gt;Node23</title>
<g id="a_edge39_Node000022_Node000023"><a xlink:title=" ">
<path fill="none" stroke="#63b8ff" d="M1225.02,-54.84C1228.97,-46.87 1233.94,-36.84 1238.16,-28.33"/>
<polygon fill="#63b8ff" stroke="#63b8ff" points="1241.35,-29.78 1242.65,-19.27 1235.08,-26.67 1241.35,-29.78"/>
</a>
</g>
</g>
<!-- Node24 -->
<g id="Node000024" class="node">
<title>Node24</title>
<g id="a_Node000024"><a xlink:title=" ">
<polygon fill="#e0e0e0" stroke="#999999" points="1355,-19 1287,-19 1287,0 1355,0 1355,-19"/>
<text text-anchor="middle" x="1321" y="-7" font-family="Helvetica,sans-Serif" font-size="10.00">filesystem</text>
</a>
</g>
</g>
<!-- Node22&#45;&gt;Node24 -->
<g id="edge40_Node000022_Node000024" class="edge">
<title>Node22&#45;&gt;Node24</title>
<g id="a_edge40_Node000022_Node000024"><a xlink:title=" ">
<path fill="none" stroke="#63b8ff" d="M1242.67,-54.99C1259.09,-45.66 1280.55,-33.47 1296.86,-24.21"/>
<polygon fill="#63b8ff" stroke="#63b8ff" points="1298.82,-27.12 1305.79,-19.14 1295.37,-21.03 1298.82,-27.12"/>
</a>
</g>
</g>
<!-- Node25 -->
<g id="Node000025" class="node">
<title>Node25</title>
<g id="a_Node000025"><a xlink:title=" ">
<polygon fill="#e0e0e0" stroke="#999999" points="1054.5,-19 999.5,-19 999.5,0 1054.5,0 1054.5,-19"/>
<text text-anchor="middle" x="1027" y="-7" font-family="Helvetica,sans-Serif" font-size="10.00">fstream</text>
</a>
</g>
</g>
<!-- Node22&#45;&gt;Node25 -->
<g id="edge41_Node000022_Node000025" class="edge">
<title>Node22&#45;&gt;Node25</title>
<g id="a_edge41_Node000022_Node000025"><a xlink:title=" ">
<path fill="none" stroke="#63b8ff" d="M1172.25,-54.99C1139.33,-44.91 1095.47,-31.47 1064.59,-22.01"/>
<polygon fill="#63b8ff" stroke="#63b8ff" points="1065.24,-18.55 1054.65,-18.97 1063.19,-25.24 1065.24,-18.55"/>
</a>
</g>
</g>
<!-- Node26 -->
<g id="Node000026" class="node">
<title>Node26</title>
<g id="a_Node000026"><a xlink:title=" ">
<polygon fill="#e0e0e0" stroke="#999999" points="1121,-19 1073,-19 1073,0 1121,0 1121,-19"/>
<text text-anchor="middle" x="1097" y="-7" font-family="Helvetica,sans-Serif" font-size="10.00">mutex</text>
</a>
</g>
</g>
<!-- Node22&#45;&gt;Node26 -->
<g id="edge42_Node000022_Node000026" class="edge">
<title>Node22&#45;&gt;Node26</title>
<g id="a_edge42_Node000022_Node000026"><a xlink:title=" ">
<path fill="none" stroke="#63b8ff" d="M1189.02,-54.99C1169.28,-45.45 1143.33,-32.9 1124.03,-23.57"/>
<polygon fill="#63b8ff" stroke="#63b8ff" points="1125.4,-20.34 1114.87,-19.14 1122.35,-26.64 1125.4,-20.34"/>
</a>
</g>
</g>
<!-- Node27 -->
<g id="Node000027" class="node">
<title>Node27</title>
<g id="a_Node000027"><a xlink:title=" ">
<polygon fill="#e0e0e0" stroke="#999999" points="1429,-19 1373,-19 1373,0 1429,0 1429,-19"/>
<text text-anchor="middle" x="1401" y="-7" font-family="Helvetica,sans-Serif" font-size="10.00">sstream</text>
</a>
</g>
</g>
<!-- Node22&#45;&gt;Node27 -->
<g id="edge43_Node000022_Node000027" class="edge">
<title>Node22&#45;&gt;Node27</title>
<g id="a_edge43_Node000022_Node000027"><a xlink:title=" ">
<path fill="none" stroke="#63b8ff" d="M1261.83,-54.99C1293.14,-44.98 1334.78,-31.67 1364.33,-22.22"/>
<polygon fill="#63b8ff" stroke="#63b8ff" points="1365.78,-25.43 1374.24,-19.05 1363.65,-18.76 1365.78,-25.43"/>
</a>
</g>
</g>
<!-- Node28 -->
<g id="Node000028" class="node">
<title>Node28</title>
<g id="a_Node000028"><a xlink:title=" ">
<polygon fill="#e0e0e0" stroke="#999999" points="1207,-19 1139,-19 1139,0 1207,0 1207,-19"/>
<text text-anchor="middle" x="1173" y="-7" font-family="Helvetica,sans-Serif" font-size="10.00">windows.h</text>
</a>
</g>
</g>
<!-- Node22&#45;&gt;Node28 -->
<g id="edge45_Node000022_Node000028" class="edge">
<title>Node22&#45;&gt;Node28</title>
<g id="a_edge45_Node000022_Node000028"><a xlink:title=" ">
<path fill="none" stroke="#63b8ff" d="M1207.11,-54.84C1200.71,-46.52 1192.58,-35.96 1185.87,-27.23"/>
<polygon fill="#63b8ff" stroke="#63b8ff" points="1188.61,-25.06 1179.74,-19.27 1183.07,-29.33 1188.61,-25.06"/>
</a>
</g>
</g>
<!-- Node29&#45;&gt;Node3 -->
<g id="edge52_Node000029_Node000003" class="edge">
<title>Node29&#45;&gt;Node3</title>
<g id="a_edge52_Node000029_Node000003"><a xlink:title=" ">
<path fill="none" stroke="#63b8ff" d="M1082.85,-241.6C1081.47,-231.63 1079.79,-218.04 1079,-206 1078.85,-203.64 1078.96,-123.16 1078,-121 1058.52,-77.04 1012.18,-42.61 983.42,-24.52"/>
<polygon fill="#63b8ff" stroke="#63b8ff" points="985.11,-21.46 974.75,-19.23 981.46,-27.43 985.11,-21.46"/>
</a>
</g>
</g>
<!-- Node29&#45;&gt;Node4 -->
<g id="edge53_Node000029_Node000004" class="edge">
<title>Node29&#45;&gt;Node4</title>
<g id="a_edge53_Node000029_Node000004"><a xlink:title=" ">
<path fill="none" stroke="#63b8ff" d="M1008.59,-243.08C1005.69,-242.7 1002.82,-242.34 1000,-242 784.93,-216.37 724.22,-258.15 514,-206 512.06,-205.52 510.08,-204.93 508.12,-204.27"/>
<polygon fill="#63b8ff" stroke="#63b8ff" points="509.15,-200.91 498.56,-200.51 506.59,-207.43 509.15,-200.91"/>
</a>
</g>
</g>
<!-- Node29&#45;&gt;Node7 -->
<g id="edge54_Node000029_Node000007" class="edge">
<title>Node29&#45;&gt;Node7</title>
<g id="a_edge54_Node000029_Node000007"><a xlink:title=" ">
<path fill="none" stroke="#63b8ff" d="M1010.82,-241.95C955.92,-231.56 881.27,-217.42 825.39,-206.84"/>
<polygon fill="#63b8ff" stroke="#63b8ff" points="826.01,-203.4 815.54,-204.98 824.71,-210.28 826.01,-203.4"/>
</a>
</g>
</g>
<!-- Node29&#45;&gt;Node8 -->
<g id="edge55_Node000029_Node000008" class="edge">
<title>Node29&#45;&gt;Node8</title>
<g id="a_edge55_Node000029_Node000008"><a xlink:title=" ">
<path fill="none" stroke="#63b8ff" d="M1008.57,-243.21C1005.68,-242.79 1002.82,-242.39 1000,-242 857.11,-222.45 817.78,-226.83 671.14,-206.1"/>
<polygon fill="#63b8ff" stroke="#63b8ff" points="671.26,-202.58 660.86,-204.63 670.27,-209.51 671.26,-202.58"/>
</a>
</g>
</g>
<!-- Node29&#45;&gt;Node17 -->
<g id="edge49_Node000029_Node000017" class="edge">
<title>Node29&#45;&gt;Node17</title>
<g id="a_edge49_Node000029_Node000017"><a xlink:title=" ">
<path fill="none" stroke="#63b8ff" d="M1114.85,-241.95C1138.38,-230.88 1170.93,-215.56 1193.77,-204.82"/>
<polygon fill="#63b8ff" stroke="#63b8ff" points="1195.34,-207.94 1202.9,-200.52 1192.36,-201.61 1195.34,-207.94"/>
</a>
</g>
</g>
<!-- Node29&#45;&gt;Node20 -->
<g id="edge56_Node000029_Node000020" class="edge">
<title>Node29&#45;&gt;Node20</title>
<g id="a_edge56_Node000029_Node000020"><a xlink:title=" ">
<path fill="none" stroke="#63b8ff" d="M1061.3,-241.95C1043.11,-231.18 1018.14,-216.38 1000.1,-205.69"/>
<polygon fill="#63b8ff" stroke="#63b8ff" points="1001.76,-202.6 991.37,-200.52 998.19,-208.63 1001.76,-202.6"/>
</a>
</g>
</g>
<!-- Node29&#45;&gt;Node27 -->
<g id="edge51_Node000029_Node000027" class="edge">
<title>Node29&#45;&gt;Node27</title>
<g id="a_edge51_Node000029_Node000027"><a xlink:title=" ">
<path fill="none" stroke="#63b8ff" d="M1104.48,-241.95C1118.14,-232.03 1136.8,-218.35 1153,-206 1170.11,-192.96 1174.11,-189.33 1191,-176 1261.52,-120.38 1345.4,-54.29 1382.16,-25.34"/>
<polygon fill="#63b8ff" stroke="#63b8ff" points="1384.38,-28.05 1390.07,-19.11 1380.04,-22.55 1384.38,-28.05"/>
</a>
</g>
</g>
<!-- Node30 -->
<g id="Node000030" class="node">
<title>Node30</title>
<g id="a_Node000030"><a xlink:title=" ">
<polygon fill="#e0e0e0" stroke="#999999" points="1144,-200.5 1088,-200.5 1088,-181.5 1144,-181.5 1144,-200.5"/>
<text text-anchor="middle" x="1116" y="-188.5" font-family="Helvetica,sans-Serif" font-size="10.00">optional</text>
</a>
</g>
</g>
<!-- Node29&#45;&gt;Node30 -->
<g id="edge50_Node000029_Node000030" class="edge">
<title>Node29&#45;&gt;Node30</title>
<g id="a_edge50_Node000029_Node000030"><a xlink:title=" ">
<path fill="none" stroke="#63b8ff" d="M1091.88,-241.8C1096.43,-232.41 1102.43,-220.02 1107.31,-209.95"/>
<polygon fill="#63b8ff" stroke="#63b8ff" points="1110.51,-211.37 1111.72,-200.84 1104.21,-208.32 1110.51,-211.37"/>
</a>
</g>
</g>
</g>
</svg>
