<?xml version="1.0" encoding="UTF-8" standalone="no"?>
<!DOCTYPE svg PUBLIC "-//W3C//DTD SVG 1.1//EN"
 "http://www.w3.org/Graphics/SVG/1.1/DTD/svg11.dtd">
<!-- Generated by graphviz version 2.43.0 (0)
 -->
<!-- Title: SimulateurFerroviaire/Modules/GeoParser/Pipeline/SplitNetwork.h Pages: 1 -->
<svg width="1820pt" height="280pt"
 viewBox="0.00 0.00 1820.00 280.00" xmlns="http://www.w3.org/2000/svg" xmlns:xlink="http://www.w3.org/1999/xlink">
<g id="graph0" class="graph" transform="scale(1 1) rotate(0) translate(4 276)">
<title>SimulateurFerroviaire/Modules/GeoParser/Pipeline/SplitNetwork.h</title>
<!-- Node1 -->
<g id="Node000001" class="node">
<title>Node1</title>
<g id="a_Node000001"><a xlink:title="Structures de données produites par Phase3_NetworkSplitter.">
<polygon fill="#999999" stroke="#666666" points="980,-272 825,-272 825,-231 980,-231 980,-272"/>
<text text-anchor="start" x="833" y="-260" font-family="Helvetica,sans-Serif" font-size="10.00">SimulateurFerroviaire</text>
<text text-anchor="start" x="833" y="-249" font-family="Helvetica,sans-Serif" font-size="10.00">/Modules/GeoParser/Pipeline</text>
<text text-anchor="middle" x="902.5" y="-238" font-family="Helvetica,sans-Serif" font-size="10.00">/SplitNetwork.h</text>
</a>
</g>
</g>
<!-- Node2 -->
<g id="Node000002" class="node">
<title>Node2</title>
<g id="a_Node000002"><a xlink:href="../../d6/d02/PipelineContext_8h.html" target="_top" xlink:title="Conteneur central des données inter&#45;phases du pipeline GeoParser.">
<polygon fill="white" stroke="#666666" points="980,-195 825,-195 825,-154 980,-154 980,-195"/>
<text text-anchor="start" x="833" y="-183" font-family="Helvetica,sans-Serif" font-size="10.00">SimulateurFerroviaire</text>
<text text-anchor="start" x="833" y="-172" font-family="Helvetica,sans-Serif" font-size="10.00">/Modules/GeoParser/Pipeline</text>
<text text-anchor="middle" x="902.5" y="-161" font-family="Helvetica,sans-Serif" font-size="10.00">/PipelineContext.h</text>
</a>
</g>
</g>
<!-- Node1&#45;&gt;Node2 -->
<g id="edge1_Node000001_Node000002" class="edge">
<title>Node1&#45;&gt;Node2</title>
<g id="a_edge1_Node000001_Node000002"><a xlink:title=" ">
<path fill="none" stroke="#63b8ff" d="M902.5,-220.69C902.5,-212.08 902.5,-202.9 902.5,-195.07"/>
<polygon fill="#63b8ff" stroke="#63b8ff" points="899,-220.79 902.5,-230.79 906,-220.79 899,-220.79"/>
</a>
</g>
</g>
<!-- Node3 -->
<g id="Node000003" class="node">
<title>Node3</title>
<g id="a_Node000003"><a xlink:href="../../de/d02/GeoParser_8h.html" target="_top" xlink:title="Orchestrateur du pipeline GeoParser v2.">
<polygon fill="white" stroke="#666666" points="1696.5,-112.5 1522.5,-112.5 1522.5,-82.5 1696.5,-82.5 1696.5,-112.5"/>
<text text-anchor="start" x="1530.5" y="-100.5" font-family="Helvetica,sans-Serif" font-size="10.00">SimulateurFerroviaire</text>
<text text-anchor="middle" x="1609.5" y="-89.5" font-family="Helvetica,sans-Serif" font-size="10.00">/Modules/GeoParser/GeoParser.h</text>
</a>
</g>
</g>
<!-- Node2&#45;&gt;Node3 -->
<g id="edge2_Node000002_Node000003" class="edge">
<title>Node2&#45;&gt;Node3</title>
<g id="a_edge2_Node000002_Node000003"><a xlink:title=" ">
<path fill="none" stroke="#63b8ff" d="M990.62,-168.54C1109.7,-161.15 1328.41,-145.12 1513.5,-118 1523.85,-116.48 1534.77,-114.57 1545.38,-112.54"/>
<polygon fill="#63b8ff" stroke="#63b8ff" points="990.23,-165.06 980.47,-169.17 990.66,-172.05 990.23,-165.06"/>
</a>
</g>
</g>
<!-- Node6 -->
<g id="Node000006" class="node">
<title>Node6</title>
<g id="a_Node000006"><a xlink:href="../../d3/d03/Phase1__GeoLoader_8h.html" target="_top" xlink:title="Phase 1 du pipeline — chargement GeoJSON → RawNetwork.">
<polygon fill="white" stroke="#666666" points="270,-118 115,-118 115,-77 270,-77 270,-118"/>
<text text-anchor="start" x="123" y="-106" font-family="Helvetica,sans-Serif" font-size="10.00">SimulateurFerroviaire</text>
<text text-anchor="start" x="123" y="-95" font-family="Helvetica,sans-Serif" font-size="10.00">/Modules/GeoParser/Pipeline</text>
<text text-anchor="middle" x="192.5" y="-84" font-family="Helvetica,sans-Serif" font-size="10.00">/Phase1_GeoLoader.h</text>
</a>
</g>
</g>
<!-- Node2&#45;&gt;Node6 -->
<g id="edge5_Node000002_Node000006" class="edge">
<title>Node2&#45;&gt;Node6</title>
<g id="a_edge5_Node000002_Node000006"><a xlink:title=" ">
<path fill="none" stroke="#63b8ff" d="M814.57,-169.32C693.52,-162.74 468.98,-147.54 279.5,-118 276.44,-117.52 273.33,-117 270.19,-116.45"/>
<polygon fill="#63b8ff" stroke="#63b8ff" points="814.71,-172.83 824.89,-169.87 815.09,-165.84 814.71,-172.83"/>
</a>
</g>
</g>
<!-- Node8 -->
<g id="Node000008" class="node">
<title>Node8</title>
<g id="a_Node000008"><a xlink:href="../../d1/d02/Phase2__GeometricIntersector_8h.html" target="_top" xlink:title="Phase 2 du pipeline — calcul des intersections géométriques.">
<polygon fill="white" stroke="#666666" points="460.5,-118 288.5,-118 288.5,-77 460.5,-77 460.5,-118"/>
<text text-anchor="start" x="296.5" y="-106" font-family="Helvetica,sans-Serif" font-size="10.00">SimulateurFerroviaire</text>
<text text-anchor="start" x="296.5" y="-95" font-family="Helvetica,sans-Serif" font-size="10.00">/Modules/GeoParser/Pipeline</text>
<text text-anchor="middle" x="374.5" y="-84" font-family="Helvetica,sans-Serif" font-size="10.00">/Phase2_GeometricIntersector.h</text>
</a>
</g>
</g>
<!-- Node2&#45;&gt;Node8 -->
<g id="edge8_Node000002_Node000008" class="edge">
<title>Node2&#45;&gt;Node8</title>
<g id="a_edge8_Node000002_Node000008"><a xlink:title=" ">
<path fill="none" stroke="#63b8ff" d="M814.64,-164.19C726.95,-154.45 588.52,-137.81 469.5,-118 466.59,-117.52 463.64,-117.01 460.66,-116.48"/>
<polygon fill="#63b8ff" stroke="#63b8ff" points="814.48,-167.7 824.81,-165.32 815.25,-160.74 814.48,-167.7"/>
</a>
</g>
</g>
<!-- Node10 -->
<g id="Node000010" class="node">
<title>Node10</title>
<g id="a_Node000010"><a xlink:href="../../da/d03/Phase3__NetworkSplitter_8h.html" target="_top" xlink:title="Phase 3 du pipeline — découpe des segments aux intersections.">
<polygon fill="white" stroke="#666666" points="634,-118 479,-118 479,-77 634,-77 634,-118"/>
<text text-anchor="start" x="487" y="-106" font-family="Helvetica,sans-Serif" font-size="10.00">SimulateurFerroviaire</text>
<text text-anchor="start" x="487" y="-95" font-family="Helvetica,sans-Serif" font-size="10.00">/Modules/GeoParser/Pipeline</text>
<text text-anchor="middle" x="556.5" y="-84" font-family="Helvetica,sans-Serif" font-size="10.00">/Phase3_NetworkSplitter.h</text>
</a>
</g>
</g>
<!-- Node2&#45;&gt;Node10 -->
<g id="edge11_Node000002_Node000010" class="edge">
<title>Node2&#45;&gt;Node10</title>
<g id="a_edge11_Node000002_Node000010"><a xlink:title=" ">
<path fill="none" stroke="#63b8ff" d="M814.9,-155.09C764.45,-144.41 699.87,-130.63 642.5,-118 639.81,-117.41 637.07,-116.8 634.31,-116.19"/>
<polygon fill="#63b8ff" stroke="#63b8ff" points="814.29,-158.54 824.8,-157.18 815.74,-151.69 814.29,-158.54"/>
</a>
</g>
</g>
<!-- Node12 -->
<g id="Node000012" class="node">
<title>Node12</title>
<g id="a_Node000012"><a xlink:href="../../da/d03/Phase4__TopologyBuilder_8h.html" target="_top" xlink:title="Phase 4 du pipeline — construction du graphe planaire.">
<polygon fill="white" stroke="#666666" points="807,-118 652,-118 652,-77 807,-77 807,-118"/>
<text text-anchor="start" x="660" y="-106" font-family="Helvetica,sans-Serif" font-size="10.00">SimulateurFerroviaire</text>
<text text-anchor="start" x="660" y="-95" font-family="Helvetica,sans-Serif" font-size="10.00">/Modules/GeoParser/Pipeline</text>
<text text-anchor="middle" x="729.5" y="-84" font-family="Helvetica,sans-Serif" font-size="10.00">/Phase4_TopologyBuilder.h</text>
</a>
</g>
</g>
<!-- Node2&#45;&gt;Node12 -->
<g id="edge14_Node000002_Node000012" class="edge">
<title>Node2&#45;&gt;Node12</title>
<g id="a_edge14_Node000002_Node000012"><a xlink:title=" ">
<path fill="none" stroke="#63b8ff" d="M848.28,-150C824.59,-139.72 797.13,-127.82 774.58,-118.04"/>
<polygon fill="#63b8ff" stroke="#63b8ff" points="846.93,-153.22 857.5,-153.99 849.72,-146.8 846.93,-153.22"/>
</a>
</g>
</g>
<!-- Node14 -->
<g id="Node000014" class="node">
<title>Node14</title>
<g id="a_Node000014"><a xlink:href="../../d4/d00/Phase5__SwitchClassifier_8h.html" target="_top" xlink:title="Phase 5 du pipeline — classification topologique des nœuds.">
<polygon fill="white" stroke="#666666" points="980,-118 825,-118 825,-77 980,-77 980,-118"/>
<text text-anchor="start" x="833" y="-106" font-family="Helvetica,sans-Serif" font-size="10.00">SimulateurFerroviaire</text>
<text text-anchor="start" x="833" y="-95" font-family="Helvetica,sans-Serif" font-size="10.00">/Modules/GeoParser/Pipeline</text>
<text text-anchor="middle" x="902.5" y="-84" font-family="Helvetica,sans-Serif" font-size="10.00">/Phase5_SwitchClassifier.h</text>
</a>
</g>
</g>
<!-- Node2&#45;&gt;Node14 -->
<g id="edge17_Node000002_Node000014" class="edge">
<title>Node2&#45;&gt;Node14</title>
<g id="a_edge17_Node000002_Node000014"><a xlink:title=" ">
<path fill="none" stroke="#63b8ff" d="M902.5,-143.69C902.5,-135.08 902.5,-125.9 902.5,-118.07"/>
<polygon fill="#63b8ff" stroke="#63b8ff" points="899,-143.79 902.5,-153.79 906,-143.79 899,-143.79"/>
</a>
</g>
</g>
<!-- Node16 -->
<g id="Node000016" class="node">
<title>Node16</title>
<g id="a_Node000016"><a xlink:href="../../df/d03/Phase6__BlockExtractor_8h.html" target="_top" xlink:title="Phase 6 du pipeline — extraction des blocs ferroviaires.">
<polygon fill="white" stroke="#666666" points="1153,-118 998,-118 998,-77 1153,-77 1153,-118"/>
<text text-anchor="start" x="1006" y="-106" font-family="Helvetica,sans-Serif" font-size="10.00">SimulateurFerroviaire</text>
<text text-anchor="start" x="1006" y="-95" font-family="Helvetica,sans-Serif" font-size="10.00">/Modules/GeoParser/Pipeline</text>
<text text-anchor="middle" x="1075.5" y="-84" font-family="Helvetica,sans-Serif" font-size="10.00">/Phase6_BlockExtractor.h</text>
</a>
</g>
</g>
<!-- Node2&#45;&gt;Node16 -->
<g id="edge20_Node000002_Node000016" class="edge">
<title>Node2&#45;&gt;Node16</title>
<g id="a_edge20_Node000002_Node000016"><a xlink:title=" ">
<path fill="none" stroke="#63b8ff" d="M956.72,-150C980.41,-139.72 1007.87,-127.82 1030.42,-118.04"/>
<polygon fill="#63b8ff" stroke="#63b8ff" points="955.28,-146.8 947.5,-153.99 958.07,-153.22 955.28,-146.8"/>
</a>
</g>
</g>
<!-- Node18 -->
<g id="Node000018" class="node">
<title>Node18</title>
<g id="a_Node000018"><a xlink:href="../../db/d03/Phase7__SwitchProcessor_8h.html" target="_top" xlink:title="Phase 7 du pipeline — traitement complet des aiguillages.">
<polygon fill="white" stroke="#666666" points="1326,-118 1171,-118 1171,-77 1326,-77 1326,-118"/>
<text text-anchor="start" x="1179" y="-106" font-family="Helvetica,sans-Serif" font-size="10.00">SimulateurFerroviaire</text>
<text text-anchor="start" x="1179" y="-95" font-family="Helvetica,sans-Serif" font-size="10.00">/Modules/GeoParser/Pipeline</text>
<text text-anchor="middle" x="1248.5" y="-84" font-family="Helvetica,sans-Serif" font-size="10.00">/Phase7_SwitchProcessor.h</text>
</a>
</g>
</g>
<!-- Node2&#45;&gt;Node18 -->
<g id="edge23_Node000002_Node000018" class="edge">
<title>Node2&#45;&gt;Node18</title>
<g id="a_edge23_Node000002_Node000018"><a xlink:title=" ">
<path fill="none" stroke="#63b8ff" d="M990.1,-155.09C1040.55,-144.41 1105.13,-130.63 1162.5,-118 1165.19,-117.41 1167.93,-116.8 1170.69,-116.19"/>
<polygon fill="#63b8ff" stroke="#63b8ff" points="989.26,-151.69 980.2,-157.18 990.71,-158.54 989.26,-151.69"/>
</a>
</g>
</g>
<!-- Node20 -->
<g id="Node000020" class="node">
<title>Node20</title>
<g id="a_Node000020"><a xlink:href="../../d4/d00/Phase8__RepositoryTransfer_8h.html" target="_top" xlink:title="Phase 9 du pipeline — résolution des pointeurs et transfert vers TopologyRepository.">
<polygon fill="white" stroke="#666666" points="1504.5,-118 1344.5,-118 1344.5,-77 1504.5,-77 1504.5,-118"/>
<text text-anchor="start" x="1352.5" y="-106" font-family="Helvetica,sans-Serif" font-size="10.00">SimulateurFerroviaire</text>
<text text-anchor="start" x="1352.5" y="-95" font-family="Helvetica,sans-Serif" font-size="10.00">/Modules/GeoParser/Pipeline</text>
<text text-anchor="middle" x="1424.5" y="-84" font-family="Helvetica,sans-Serif" font-size="10.00">/Phase8_RepositoryTransfer.h</text>
</a>
</g>
</g>
<!-- Node2&#45;&gt;Node20 -->
<g id="edge26_Node000002_Node000020" class="edge">
<title>Node2&#45;&gt;Node20</title>
<g id="a_edge26_Node000002_Node000020"><a xlink:title=" ">
<path fill="none" stroke="#63b8ff" d="M990.42,-164.53C1078.15,-155.04 1216.62,-138.6 1335.5,-118 1338.31,-117.51 1341.16,-117 1344.03,-116.46"/>
<polygon fill="#63b8ff" stroke="#63b8ff" points="989.81,-161.08 980.24,-165.63 990.56,-168.04 989.81,-161.08"/>
</a>
</g>
</g>
<!-- Node4 -->
<g id="Node000004" class="node">
<title>Node4</title>
<g id="a_Node000004"><a xlink:href="../../d7/d03/GeoParser_8cpp.html" target="_top" xlink:title="Implémentation de l&#39;orchestrateur GeoParser v2.">
<polygon fill="white" stroke="#666666" points="909,-35.5 724,-35.5 724,-5.5 909,-5.5 909,-35.5"/>
<text text-anchor="start" x="732" y="-23.5" font-family="Helvetica,sans-Serif" font-size="10.00">SimulateurFerroviaire</text>
<text text-anchor="middle" x="816.5" y="-12.5" font-family="Helvetica,sans-Serif" font-size="10.00">/Modules/GeoParser/GeoParser.cpp</text>
</a>
</g>
</g>
<!-- Node3&#45;&gt;Node4 -->
<g id="edge3_Node000003_Node000004" class="edge">
<title>Node3&#45;&gt;Node4</title>
<g id="a_edge3_Node000003_Node000004"><a xlink:title=" ">
<path fill="none" stroke="#63b8ff" d="M1537,-80.66C1529.1,-79.26 1521.15,-78 1513.5,-77 1250.38,-42.5 1180.78,-74.22 917.5,-41 906.16,-39.57 894.18,-37.63 882.58,-35.54"/>
<polygon fill="#63b8ff" stroke="#63b8ff" points="1536.5,-84.12 1546.97,-82.48 1537.77,-77.24 1536.5,-84.12"/>
</a>
</g>
</g>
<!-- Node5 -->
<g id="Node000005" class="node">
<title>Node5</title>
<g id="a_Node000005"><a xlink:href="../../dd/d01/GeoParsingTask_8cpp.html" target="_top" xlink:title="Implémentation de la tâche asynchrone GeoParsingTask v2.">
<polygon fill="white" stroke="#666666" points="1812,-41 1641,-41 1641,0 1812,0 1812,-41"/>
<text text-anchor="start" x="1649" y="-29" font-family="Helvetica,sans-Serif" font-size="10.00">SimulateurFerroviaire</text>
<text text-anchor="start" x="1649" y="-18" font-family="Helvetica,sans-Serif" font-size="10.00">/Modules/GeoParser/GeoParsing</text>
<text text-anchor="middle" x="1726.5" y="-7" font-family="Helvetica,sans-Serif" font-size="10.00">Task.cpp</text>
</a>
</g>
</g>
<!-- Node3&#45;&gt;Node5 -->
<g id="edge4_Node000003_Node000005" class="edge">
<title>Node3&#45;&gt;Node5</title>
<g id="a_edge4_Node000003_Node000005"><a xlink:title=" ">
<path fill="none" stroke="#63b8ff" d="M1640.05,-76.91C1657.22,-65.91 1678.57,-52.22 1695.76,-41.2"/>
<polygon fill="#63b8ff" stroke="#63b8ff" points="1638.04,-74.05 1631.51,-82.39 1641.81,-79.94 1638.04,-74.05"/>
</a>
</g>
</g>
<!-- Node6&#45;&gt;Node4 -->
<g id="edge6_Node000006_Node000004" class="edge">
<title>Node6&#45;&gt;Node4</title>
<g id="a_edge6_Node000006_Node000004"><a xlink:title=" ">
<path fill="none" stroke="#63b8ff" d="M280.1,-77.03C473.45,-48.31 526.07,-67.03 715.5,-41 726.47,-39.49 738.05,-37.57 749.3,-35.53"/>
<polygon fill="#63b8ff" stroke="#63b8ff" points="279.55,-73.58 270.19,-78.53 280.6,-80.5 279.55,-73.58"/>
</a>
</g>
</g>
<!-- Node7 -->
<g id="Node000007" class="node">
<title>Node7</title>
<g id="a_Node000007"><a xlink:href="../../d1/d00/Phase1__GeoLoader_8cpp.html" target="_top" xlink:title="Implémentation de la phase 1 — GeoJSON → RawNetwork.">
<polygon fill="white" stroke="#666666" points="155,-41 0,-41 0,0 155,0 155,-41"/>
<text text-anchor="start" x="8" y="-29" font-family="Helvetica,sans-Serif" font-size="10.00">SimulateurFerroviaire</text>
<text text-anchor="start" x="8" y="-18" font-family="Helvetica,sans-Serif" font-size="10.00">/Modules/GeoParser/Pipeline</text>
<text text-anchor="middle" x="77.5" y="-7" font-family="Helvetica,sans-Serif" font-size="10.00">/Phase1_GeoLoader.cpp</text>
</a>
</g>
</g>
<!-- Node6&#45;&gt;Node7 -->
<g id="edge7_Node000006_Node000007" class="edge">
<title>Node6&#45;&gt;Node7</title>
<g id="a_edge7_Node000006_Node000007"><a xlink:title=" ">
<path fill="none" stroke="#63b8ff" d="M153.97,-71.37C138.88,-61.53 121.83,-50.41 107.66,-41.17"/>
<polygon fill="#63b8ff" stroke="#63b8ff" points="152.3,-74.46 162.59,-76.99 156.12,-68.6 152.3,-74.46"/>
</a>
</g>
</g>
<!-- Node8&#45;&gt;Node4 -->
<g id="edge9_Node000008_Node000004" class="edge">
<title>Node8&#45;&gt;Node4</title>
<g id="a_edge9_Node000008_Node000004"><a xlink:title=" ">
<path fill="none" stroke="#63b8ff" d="M470.79,-76.82C580.05,-57.96 609.75,-58.94 715.5,-41 725.36,-39.33 735.74,-37.45 745.94,-35.55"/>
<polygon fill="#63b8ff" stroke="#63b8ff" points="469.92,-73.42 460.67,-78.59 471.12,-80.32 469.92,-73.42"/>
</a>
</g>
</g>
<!-- Node9 -->
<g id="Node000009" class="node">
<title>Node9</title>
<g id="a_Node000009"><a xlink:href="../../da/d03/Phase2__GeometricIntersector_8cpp.html" target="_top" xlink:title="Implémentation de la phase 2 — intersections géométriques.">
<polygon fill="white" stroke="#666666" points="356,-41 173,-41 173,0 356,0 356,-41"/>
<text text-anchor="start" x="181" y="-29" font-family="Helvetica,sans-Serif" font-size="10.00">SimulateurFerroviaire</text>
<text text-anchor="start" x="181" y="-18" font-family="Helvetica,sans-Serif" font-size="10.00">/Modules/GeoParser/Pipeline</text>
<text text-anchor="middle" x="264.5" y="-7" font-family="Helvetica,sans-Serif" font-size="10.00">/Phase2_GeometricIntersector.cpp</text>
</a>
</g>
</g>
<!-- Node8&#45;&gt;Node9 -->
<g id="edge10_Node000008_Node000009" class="edge">
<title>Node8&#45;&gt;Node9</title>
<g id="a_edge10_Node000008_Node000009"><a xlink:title=" ">
<path fill="none" stroke="#63b8ff" d="M337.24,-71.09C322.9,-61.32 306.78,-50.32 293.35,-41.17"/>
<polygon fill="#63b8ff" stroke="#63b8ff" points="335.65,-74.25 345.89,-76.99 339.6,-68.47 335.65,-74.25"/>
</a>
</g>
</g>
<!-- Node10&#45;&gt;Node4 -->
<g id="edge12_Node000010_Node000004" class="edge">
<title>Node10&#45;&gt;Node4</title>
<g id="a_edge12_Node000010_Node000004"><a xlink:title=" ">
<path fill="none" stroke="#63b8ff" d="M633.81,-74.2C677.2,-61.68 730.02,-46.45 767.68,-35.58"/>
<polygon fill="#63b8ff" stroke="#63b8ff" points="632.77,-70.86 624.13,-76.99 634.71,-77.58 632.77,-70.86"/>
</a>
</g>
</g>
<!-- Node11 -->
<g id="Node000011" class="node">
<title>Node11</title>
<g id="a_Node000011"><a xlink:href="../../da/d03/Phase3__NetworkSplitter_8cpp.html" target="_top" xlink:title="Implémentation de la phase 3 — découpe des segments.">
<polygon fill="white" stroke="#666666" points="530.5,-41 374.5,-41 374.5,0 530.5,0 530.5,-41"/>
<text text-anchor="start" x="382.5" y="-29" font-family="Helvetica,sans-Serif" font-size="10.00">SimulateurFerroviaire</text>
<text text-anchor="start" x="382.5" y="-18" font-family="Helvetica,sans-Serif" font-size="10.00">/Modules/GeoParser/Pipeline</text>
<text text-anchor="middle" x="452.5" y="-7" font-family="Helvetica,sans-Serif" font-size="10.00">/Phase3_NetworkSplitter.cpp</text>
</a>
</g>
</g>
<!-- Node10&#45;&gt;Node11 -->
<g id="edge13_Node000010_Node000011" class="edge">
<title>Node10&#45;&gt;Node11</title>
<g id="a_edge13_Node000010_Node000011"><a xlink:title=" ">
<path fill="none" stroke="#63b8ff" d="M521.27,-71.09C507.72,-61.32 492.47,-50.32 479.78,-41.17"/>
<polygon fill="#63b8ff" stroke="#63b8ff" points="519.29,-73.98 529.45,-76.99 523.38,-68.3 519.29,-73.98"/>
</a>
</g>
</g>
<!-- Node12&#45;&gt;Node4 -->
<g id="edge15_Node000012_Node000004" class="edge">
<title>Node12&#45;&gt;Node4</title>
<g id="a_edge15_Node000012_Node000004"><a xlink:title=" ">
<path fill="none" stroke="#63b8ff" d="M760.04,-70.17C773.53,-58.55 788.84,-45.34 800.11,-35.63"/>
<polygon fill="#63b8ff" stroke="#63b8ff" points="757.65,-67.61 752.36,-76.79 762.22,-72.92 757.65,-67.61"/>
</a>
</g>
</g>
<!-- Node13 -->
<g id="Node000013" class="node">
<title>Node13</title>
<g id="a_Node000013"><a xlink:href="../../d4/d02/Phase4__TopologyBuilder_8cpp.html" target="_top" xlink:title="Implémentation de la phase 4 — graphe planaire.">
<polygon fill="white" stroke="#666666" points="706.5,-41 548.5,-41 548.5,0 706.5,0 706.5,-41"/>
<text text-anchor="start" x="556.5" y="-29" font-family="Helvetica,sans-Serif" font-size="10.00">SimulateurFerroviaire</text>
<text text-anchor="start" x="556.5" y="-18" font-family="Helvetica,sans-Serif" font-size="10.00">/Modules/GeoParser/Pipeline</text>
<text text-anchor="middle" x="627.5" y="-7" font-family="Helvetica,sans-Serif" font-size="10.00">/Phase4_TopologyBuilder.cpp</text>
</a>
</g>
</g>
<!-- Node12&#45;&gt;Node13 -->
<g id="edge16_Node000012_Node000013" class="edge">
<title>Node12&#45;&gt;Node13</title>
<g id="a_edge16_Node000012_Node000013"><a xlink:title=" ">
<path fill="none" stroke="#63b8ff" d="M694.57,-70.82C681.38,-61.11 666.58,-50.24 654.25,-41.17"/>
<polygon fill="#63b8ff" stroke="#63b8ff" points="692.84,-73.89 702.97,-76.99 696.98,-68.25 692.84,-73.89"/>
</a>
</g>
</g>
<!-- Node14&#45;&gt;Node4 -->
<g id="edge18_Node000014_Node000004" class="edge">
<title>Node14&#45;&gt;Node4</title>
<g id="a_edge18_Node000014_Node000004"><a xlink:title=" ">
<path fill="none" stroke="#63b8ff" d="M872.31,-70.17C858.98,-58.55 843.84,-45.34 832.7,-35.63"/>
<polygon fill="#63b8ff" stroke="#63b8ff" points="870.07,-72.86 879.9,-76.79 874.67,-67.58 870.07,-72.86"/>
</a>
</g>
</g>
<!-- Node15 -->
<g id="Node000015" class="node">
<title>Node15</title>
<g id="a_Node000015"><a xlink:href="../../d5/d01/Phase5__SwitchClassifier_8cpp.html" target="_top" xlink:title="Implémentation de la phase 5 — classification topologique.">
<polygon fill="white" stroke="#666666" points="1084,-41 927,-41 927,0 1084,0 1084,-41"/>
<text text-anchor="start" x="935" y="-29" font-family="Helvetica,sans-Serif" font-size="10.00">SimulateurFerroviaire</text>
<text text-anchor="start" x="935" y="-18" font-family="Helvetica,sans-Serif" font-size="10.00">/Modules/GeoParser/Pipeline</text>
<text text-anchor="middle" x="1005.5" y="-7" font-family="Helvetica,sans-Serif" font-size="10.00">/Phase5_SwitchClassifier.cpp</text>
</a>
</g>
</g>
<!-- Node14&#45;&gt;Node15 -->
<g id="edge19_Node000014_Node000015" class="edge">
<title>Node14&#45;&gt;Node15</title>
<g id="a_edge19_Node000014_Node000015"><a xlink:title=" ">
<path fill="none" stroke="#63b8ff" d="M937.39,-71.09C950.81,-61.32 965.92,-50.32 978.48,-41.17"/>
<polygon fill="#63b8ff" stroke="#63b8ff" points="935.32,-68.27 929.29,-76.99 939.44,-73.93 935.32,-68.27"/>
</a>
</g>
</g>
<!-- Node16&#45;&gt;Node4 -->
<g id="edge21_Node000016_Node000004" class="edge">
<title>Node16&#45;&gt;Node4</title>
<g id="a_edge21_Node000016_Node000004"><a xlink:title=" ">
<path fill="none" stroke="#63b8ff" d="M998.49,-74.2C955.27,-61.68 902.65,-46.45 865.13,-35.58"/>
<polygon fill="#63b8ff" stroke="#63b8ff" points="997.55,-77.57 1008.13,-76.99 999.5,-70.85 997.55,-77.57"/>
</a>
</g>
</g>
<!-- Node17 -->
<g id="Node000017" class="node">
<title>Node17</title>
<g id="a_Node000017"><a xlink:href="../../d7/d00/Phase6__BlockExtractor_8cpp.html" target="_top" xlink:title="Implémentation de la phase 6 — extraction des blocs ferroviaires.">
<polygon fill="white" stroke="#666666" points="1257,-41 1102,-41 1102,0 1257,0 1257,-41"/>
<text text-anchor="start" x="1110" y="-29" font-family="Helvetica,sans-Serif" font-size="10.00">SimulateurFerroviaire</text>
<text text-anchor="start" x="1110" y="-18" font-family="Helvetica,sans-Serif" font-size="10.00">/Modules/GeoParser/Pipeline</text>
<text text-anchor="middle" x="1179.5" y="-7" font-family="Helvetica,sans-Serif" font-size="10.00">/Phase6_BlockExtractor.cpp</text>
</a>
</g>
</g>
<!-- Node16&#45;&gt;Node17 -->
<g id="edge22_Node000016_Node000017" class="edge">
<title>Node16&#45;&gt;Node17</title>
<g id="a_edge22_Node000016_Node000017"><a xlink:title=" ">
<path fill="none" stroke="#63b8ff" d="M1110.73,-71.09C1124.28,-61.32 1139.53,-50.32 1152.22,-41.17"/>
<polygon fill="#63b8ff" stroke="#63b8ff" points="1108.62,-68.3 1102.55,-76.99 1112.71,-73.98 1108.62,-68.3"/>
</a>
</g>
</g>
<!-- Node18&#45;&gt;Node4 -->
<g id="edge24_Node000018_Node000004" class="edge">
<title>Node18&#45;&gt;Node4</title>
<g id="a_edge24_Node000018_Node000004"><a xlink:title=" ">
<path fill="none" stroke="#63b8ff" d="M1160.73,-76.73C1052.58,-56.95 1022.82,-58.9 917.5,-41 907.64,-39.32 897.26,-37.45 887.06,-35.54"/>
<polygon fill="#63b8ff" stroke="#63b8ff" points="1160.27,-80.21 1170.74,-78.59 1161.54,-73.33 1160.27,-80.21"/>
</a>
</g>
</g>
<!-- Node19 -->
<g id="Node000019" class="node">
<title>Node19</title>
<g id="a_Node000019"><a xlink:href="../../d3/d01/Phase7__SwitchProcessor_8cpp.html" target="_top" xlink:title="Implémentation du traitement complet des aiguillages.">
<polygon fill="white" stroke="#666666" points="1434,-41 1275,-41 1275,0 1434,0 1434,-41"/>
<text text-anchor="start" x="1283" y="-29" font-family="Helvetica,sans-Serif" font-size="10.00">SimulateurFerroviaire</text>
<text text-anchor="start" x="1283" y="-18" font-family="Helvetica,sans-Serif" font-size="10.00">/Modules/GeoParser/Pipeline</text>
<text text-anchor="middle" x="1354.5" y="-7" font-family="Helvetica,sans-Serif" font-size="10.00">/Phase7_SwitchProcessor.cpp</text>
</a>
</g>
</g>
<!-- Node18&#45;&gt;Node19 -->
<g id="edge25_Node000018_Node000019" class="edge">
<title>Node18&#45;&gt;Node19</title>
<g id="a_edge25_Node000018_Node000019"><a xlink:title=" ">
<path fill="none" stroke="#63b8ff" d="M1284.41,-71.09C1298.22,-61.32 1313.76,-50.32 1326.7,-41.17"/>
<polygon fill="#63b8ff" stroke="#63b8ff" points="1282.22,-68.36 1276.07,-76.99 1286.26,-74.07 1282.22,-68.36"/>
</a>
</g>
</g>
<!-- Node20&#45;&gt;Node4 -->
<g id="edge27_Node000020_Node000004" class="edge">
<title>Node20&#45;&gt;Node4</title>
<g id="a_edge27_Node000020_Node000004"><a xlink:title=" ">
<path fill="none" stroke="#63b8ff" d="M1334.02,-76.88C1149.39,-49.6 1098.94,-66.26 917.5,-41 906.62,-39.49 895.14,-37.57 883.98,-35.54"/>
<polygon fill="#63b8ff" stroke="#63b8ff" points="1333.65,-80.36 1344.06,-78.38 1334.69,-73.44 1333.65,-80.36"/>
</a>
</g>
</g>
<!-- Node21 -->
<g id="Node000021" class="node">
<title>Node21</title>
<g id="a_Node000021"><a xlink:href="../../da/d02/Phase8__RepositoryTransfer_8cpp.html" target="_top" xlink:title="Implémentation de la phase 9 — résolution + transfert.">
<polygon fill="white" stroke="#666666" points="1623,-41 1452,-41 1452,0 1623,0 1623,-41"/>
<text text-anchor="start" x="1460" y="-29" font-family="Helvetica,sans-Serif" font-size="10.00">SimulateurFerroviaire</text>
<text text-anchor="start" x="1460" y="-18" font-family="Helvetica,sans-Serif" font-size="10.00">/Modules/GeoParser/Pipeline</text>
<text text-anchor="middle" x="1537.5" y="-7" font-family="Helvetica,sans-Serif" font-size="10.00">/Phase8_RepositoryTransfer.cpp</text>
</a>
</g>
</g>
<!-- Node20&#45;&gt;Node21 -->
<g id="edge28_Node000020_Node000021" class="edge">
<title>Node20&#45;&gt;Node21</title>
<g id="a_edge28_Node000020_Node000021"><a xlink:title=" ">
<path fill="none" stroke="#63b8ff" d="M1462.36,-71.37C1477.19,-61.53 1493.94,-50.41 1507.86,-41.17"/>
<polygon fill="#63b8ff" stroke="#63b8ff" points="1460.29,-68.54 1453.89,-76.99 1464.16,-74.38 1460.29,-68.54"/>
</a>
</g>
</g>
</g>
</svg>
