<?xml version="1.0" encoding="UTF-8" standalone="no"?>
<!DOCTYPE svg PUBLIC "-//W3C//DTD SVG 1.1//EN"
 "http://www.w3.org/Graphics/SVG/1.1/DTD/svg11.dtd">
<!-- Generated by graphviz version 2.43.0 (0)
 -->
<!-- Title: SimulateurFerroviaire/Modules/PCC/PCCLayout.cpp Pages: 1 -->
<svg width="900pt" height="522pt"
 viewBox="0.00 0.00 900.00 522.00" xmlns="http://www.w3.org/2000/svg" xmlns:xlink="http://www.w3.org/1999/xlink">
<g id="graph0" class="graph" transform="scale(1 1) rotate(0) translate(4 518)">
<title>SimulateurFerroviaire/Modules/PCC/PCCLayout.cpp</title>
<!-- Node1 -->
<g id="Node000001" class="node">
<title>Node1</title>
<g id="a_Node000001"><a xlink:title="Implémentation du calculateur de positions logiques PCC.">
<polygon fill="#999999" stroke="#666666" points="706.5,-514 547.5,-514 547.5,-484 706.5,-484 706.5,-514"/>
<text text-anchor="start" x="555.5" y="-502" font-family="Helvetica,sans-Serif" font-size="10.00">SimulateurFerroviaire</text>
<text text-anchor="middle" x="627" y="-491" font-family="Helvetica,sans-Serif" font-size="10.00">/Modules/PCC/PCCLayout.cpp</text>
</a>
</g>
</g>
<!-- Node2 -->
<g id="Node000002" class="node">
<title>Node2</title>
<g id="a_Node000002"><a xlink:href="../../d6/d01/PCCLayout_8h.html" target="_top" xlink:title="Calcul des positions logiques X/Y du graphe PCC par parcours BFS.">
<polygon fill="white" stroke="#666666" points="369,-448 291,-448 291,-429 369,-429 369,-448"/>
<text text-anchor="middle" x="330" y="-436" font-family="Helvetica,sans-Serif" font-size="10.00">PCCLayout.h</text>
</a>
</g>
</g>
<!-- Node1&#45;&gt;Node2 -->
<g id="edge1_Node000001_Node000002" class="edge">
<title>Node1&#45;&gt;Node2</title>
<g id="a_edge1_Node000001_Node000002"><a xlink:title=" ">
<path fill="none" stroke="#63b8ff" d="M555.86,-483.99C501.23,-473.23 427.21,-458.65 379.04,-449.16"/>
<polygon fill="#63b8ff" stroke="#63b8ff" points="379.66,-445.71 369.17,-447.22 378.31,-452.58 379.66,-445.71"/>
</a>
</g>
</g>
<!-- Node22 -->
<g id="Node000022" class="node">
<title>Node22</title>
<g id="a_Node000022"><a xlink:href="../../dc/d01/PCCSwitchNode_8h.html" target="_top" xlink:title="Nœud PCC représentant un SwitchBlock.">
<polygon fill="white" stroke="#666666" points="675.5,-338 572.5,-338 572.5,-319 675.5,-319 675.5,-338"/>
<text text-anchor="middle" x="624" y="-326" font-family="Helvetica,sans-Serif" font-size="10.00">PCCSwitchNode.h</text>
</a>
</g>
</g>
<!-- Node1&#45;&gt;Node22 -->
<g id="edge46_Node000001_Node000022" class="edge">
<title>Node1&#45;&gt;Node22</title>
<g id="a_edge46_Node000001_Node000022"><a xlink:title=" ">
<path fill="none" stroke="#63b8ff" d="M614.77,-483.79C607.46,-474.33 598.88,-461.25 595,-448 584.64,-412.59 601.81,-370.49 613.84,-347.21"/>
<polygon fill="#63b8ff" stroke="#63b8ff" points="617.04,-348.65 618.74,-338.19 610.89,-345.31 617.04,-348.65"/>
</a>
</g>
</g>
<!-- Node25 -->
<g id="Node000025" class="node">
<title>Node25</title>
<g id="a_Node000025"><a xlink:title=" ">
<polygon fill="#e0e0e0" stroke="#999999" points="650.5,-448 603.5,-448 603.5,-429 650.5,-429 650.5,-448"/>
<text text-anchor="middle" x="627" y="-436" font-family="Helvetica,sans-Serif" font-size="10.00">queue</text>
</a>
</g>
</g>
<!-- Node1&#45;&gt;Node25 -->
<g id="edge47_Node000001_Node000025" class="edge">
<title>Node1&#45;&gt;Node25</title>
<g id="a_edge47_Node000001_Node000025"><a xlink:title=" ">
<path fill="none" stroke="#63b8ff" d="M627,-483.84C627,-476.21 627,-466.7 627,-458.45"/>
<polygon fill="#63b8ff" stroke="#63b8ff" points="630.5,-458.27 627,-448.27 623.5,-458.27 630.5,-458.27"/>
</a>
</g>
</g>
<!-- Node26 -->
<g id="Node000026" class="node">
<title>Node26</title>
<g id="a_Node000026"><a xlink:title=" ">
<polygon fill="#e0e0e0" stroke="#999999" points="733,-448 669,-448 669,-429 733,-429 733,-448"/>
<text text-anchor="middle" x="701" y="-436" font-family="Helvetica,sans-Serif" font-size="10.00">algorithm</text>
</a>
</g>
</g>
<!-- Node1&#45;&gt;Node26 -->
<g id="edge48_Node000001_Node000026" class="edge">
<title>Node1&#45;&gt;Node26</title>
<g id="a_edge48_Node000001_Node000026"><a xlink:title=" ">
<path fill="none" stroke="#63b8ff" d="M644.91,-483.84C656.09,-475 670.48,-463.63 681.88,-454.62"/>
<polygon fill="#63b8ff" stroke="#63b8ff" points="684.24,-457.21 689.91,-448.27 679.9,-451.72 684.24,-457.21"/>
</a>
</g>
</g>
<!-- Node27 -->
<g id="Node000027" class="node">
<title>Node27</title>
<g id="a_Node000027"><a xlink:title=" ">
<polygon fill="#e0e0e0" stroke="#999999" points="783,-448 751,-448 751,-429 783,-429 783,-448"/>
<text text-anchor="middle" x="767" y="-436" font-family="Helvetica,sans-Serif" font-size="10.00">set</text>
</a>
</g>
</g>
<!-- Node1&#45;&gt;Node27 -->
<g id="edge49_Node000001_Node000027" class="edge">
<title>Node1&#45;&gt;Node27</title>
<g id="a_edge49_Node000001_Node000027"><a xlink:title=" ">
<path fill="none" stroke="#63b8ff" d="M660.53,-483.99C685.34,-473.62 718.62,-459.72 741.32,-450.23"/>
<polygon fill="#63b8ff" stroke="#63b8ff" points="742.77,-453.42 750.65,-446.33 740.07,-446.96 742.77,-453.42"/>
</a>
</g>
</g>
<!-- Node3 -->
<g id="Node000003" class="node">
<title>Node3</title>
<g id="a_Node000003"><a xlink:title=" ">
<polygon fill="#e0e0e0" stroke="#999999" points="471,-393 385,-393 385,-374 471,-374 471,-393"/>
<text text-anchor="middle" x="428" y="-381" font-family="Helvetica,sans-Serif" font-size="10.00">unordered_set</text>
</a>
</g>
</g>
<!-- Node2&#45;&gt;Node3 -->
<g id="edge2_Node000002_Node000003" class="edge">
<title>Node2&#45;&gt;Node3</title>
<g id="a_edge2_Node000002_Node000003"><a xlink:title=" ">
<path fill="none" stroke="#63b8ff" d="M345.75,-428.98C361.23,-420.61 385.09,-407.7 403.14,-397.95"/>
<polygon fill="#63b8ff" stroke="#63b8ff" points="404.84,-401.01 411.97,-393.17 401.51,-394.85 404.84,-401.01"/>
</a>
</g>
</g>
<!-- Node4 -->
<g id="Node000004" class="node">
<title>Node4</title>
<g id="a_Node000004"><a xlink:title=" ">
<polygon fill="#e0e0e0" stroke="#999999" points="277.5,-211.5 230.5,-211.5 230.5,-192.5 277.5,-192.5 277.5,-211.5"/>
<text text-anchor="middle" x="254" y="-199.5" font-family="Helvetica,sans-Serif" font-size="10.00">vector</text>
</a>
</g>
</g>
<!-- Node2&#45;&gt;Node4 -->
<g id="edge3_Node000002_Node000004" class="edge">
<title>Node2&#45;&gt;Node4</title>
<g id="a_edge3_Node000002_Node000004"><a xlink:title=" ">
<path fill="none" stroke="#63b8ff" d="M290.82,-430.27C244.12,-419.33 168.14,-393.61 134,-338 103.28,-287.95 181.71,-238.89 226.05,-216.15"/>
<polygon fill="#63b8ff" stroke="#63b8ff" points="227.81,-219.18 235.2,-211.58 224.69,-212.91 227.81,-219.18"/>
</a>
</g>
</g>
<!-- Node5 -->
<g id="Node000005" class="node">
<title>Node5</title>
<g id="a_Node000005"><a xlink:href="../../d8/d00/PCCGraph_8h.html" target="_top" xlink:title="Conteneur propriétaire du graphe PCC.">
<polygon fill="white" stroke="#666666" points="367,-393 293,-393 293,-374 367,-374 367,-393"/>
<text text-anchor="middle" x="330" y="-381" font-family="Helvetica,sans-Serif" font-size="10.00">PCCGraph.h</text>
</a>
</g>
</g>
<!-- Node2&#45;&gt;Node5 -->
<g id="edge4_Node000002_Node000005" class="edge">
<title>Node2&#45;&gt;Node5</title>
<g id="a_edge4_Node000002_Node000005"><a xlink:title=" ">
<path fill="none" stroke="#63b8ff" d="M330,-428.75C330,-421.8 330,-411.85 330,-403.13"/>
<polygon fill="#63b8ff" stroke="#63b8ff" points="333.5,-403.09 330,-393.09 326.5,-403.09 333.5,-403.09"/>
</a>
</g>
</g>
<!-- Node10 -->
<g id="Node000010" class="node">
<title>Node10</title>
<g id="a_Node000010"><a xlink:href="../../dd/d00/Logger_8h.html" target="_top" xlink:title="Système de journalisation à 5 niveaux de trace, un fichier par moteur.">
<polygon fill="white" stroke="#666666" points="257.5,-85 146.5,-85 146.5,-55 257.5,-55 257.5,-85"/>
<text text-anchor="start" x="154.5" y="-73" font-family="Helvetica,sans-Serif" font-size="10.00">Engine/Core/Logger</text>
<text text-anchor="middle" x="202" y="-62" font-family="Helvetica,sans-Serif" font-size="10.00">/Logger.h</text>
</a>
</g>
</g>
<!-- Node2&#45;&gt;Node10 -->
<g id="edge45_Node000002_Node000010" class="edge">
<title>Node2&#45;&gt;Node10</title>
<g id="a_edge45_Node000002_Node000010"><a xlink:title=" ">
<path fill="none" stroke="#63b8ff" d="M290.85,-433.08C203.44,-422.11 0,-390.08 0,-329.5 0,-329.5 0,-329.5 0,-201 0,-134.83 77.6,-100.74 136.6,-84.39"/>
<polygon fill="#63b8ff" stroke="#63b8ff" points="137.5,-87.77 146.27,-81.82 135.7,-81.01 137.5,-87.77"/>
</a>
</g>
</g>
<!-- Node5&#45;&gt;Node4 -->
<g id="edge8_Node000005_Node000004" class="edge">
<title>Node5&#45;&gt;Node4</title>
<g id="a_edge8_Node000005_Node000004"><a xlink:title=" ">
<path fill="none" stroke="#63b8ff" d="M325.72,-373.81C317.31,-356.64 298.24,-317.06 284,-283 275.27,-262.12 266.29,-237.71 260.46,-221.4"/>
<polygon fill="#63b8ff" stroke="#63b8ff" points="263.76,-220.22 257.12,-211.96 257.16,-222.56 263.76,-220.22"/>
</a>
</g>
</g>
<!-- Node6 -->
<g id="Node000006" class="node">
<title>Node6</title>
<g id="a_Node000006"><a xlink:title=" ">
<polygon fill="#e0e0e0" stroke="#999999" points="388,-338 330,-338 330,-319 388,-319 388,-338"/>
<text text-anchor="middle" x="359" y="-326" font-family="Helvetica,sans-Serif" font-size="10.00">memory</text>
</a>
</g>
</g>
<!-- Node5&#45;&gt;Node6 -->
<g id="edge5_Node000005_Node000006" class="edge">
<title>Node5&#45;&gt;Node6</title>
<g id="a_edge5_Node000005_Node000006"><a xlink:title=" ">
<path fill="none" stroke="#63b8ff" d="M334.79,-373.75C338.76,-366.49 344.53,-355.95 349.43,-346.98"/>
<polygon fill="#63b8ff" stroke="#63b8ff" points="352.57,-348.54 354.3,-338.09 346.43,-345.18 352.57,-348.54"/>
</a>
</g>
</g>
<!-- Node7 -->
<g id="Node000007" class="node">
<title>Node7</title>
<g id="a_Node000007"><a xlink:title=" ">
<polygon fill="#e0e0e0" stroke="#999999" points="559,-19 515,-19 515,0 559,0 559,-19"/>
<text text-anchor="middle" x="537" y="-7" font-family="Helvetica,sans-Serif" font-size="10.00">string</text>
</a>
</g>
</g>
<!-- Node5&#45;&gt;Node7 -->
<g id="edge6_Node000005_Node000007" class="edge">
<title>Node5&#45;&gt;Node7</title>
<g id="a_edge6_Node000005_Node000007"><a xlink:title=" ">
<path fill="none" stroke="#63b8ff" d="M367.12,-375.4C370.12,-374.9 373.11,-374.43 376,-374 491.77,-356.95 892,-386.02 892,-269 892,-269 892,-269 892,-135 892,-66.97 656.94,-27.22 569.37,-14.77"/>
<polygon fill="#63b8ff" stroke="#63b8ff" points="569.59,-11.27 559.21,-13.35 568.63,-18.2 569.59,-11.27"/>
</a>
</g>
</g>
<!-- Node8 -->
<g id="Node000008" class="node">
<title>Node8</title>
<g id="a_Node000008"><a xlink:title=" ">
<polygon fill="#e0e0e0" stroke="#999999" points="235.5,-338 142.5,-338 142.5,-319 235.5,-319 235.5,-338"/>
<text text-anchor="middle" x="189" y="-326" font-family="Helvetica,sans-Serif" font-size="10.00">unordered_map</text>
</a>
</g>
</g>
<!-- Node5&#45;&gt;Node8 -->
<g id="edge7_Node000005_Node000008" class="edge">
<title>Node5&#45;&gt;Node8</title>
<g id="a_edge7_Node000005_Node000008"><a xlink:title=" ">
<path fill="none" stroke="#63b8ff" d="M307.35,-373.98C284.15,-365.27 247.88,-351.63 221.6,-341.75"/>
<polygon fill="#63b8ff" stroke="#63b8ff" points="222.66,-338.41 212.07,-338.17 220.2,-344.97 222.66,-338.41"/>
</a>
</g>
</g>
<!-- Node9 -->
<g id="Node000009" class="node">
<title>Node9</title>
<g id="a_Node000009"><a xlink:href="../../d1/d02/PCCEdge_8h.html" target="_top" xlink:title="Connexion orientée entre deux nœuds du graphe PCC.">
<polygon fill="white" stroke="#666666" points="173.5,-211.5 104.5,-211.5 104.5,-192.5 173.5,-192.5 173.5,-211.5"/>
<text text-anchor="middle" x="139" y="-199.5" font-family="Helvetica,sans-Serif" font-size="10.00">PCCEdge.h</text>
</a>
</g>
</g>
<!-- Node5&#45;&gt;Node9 -->
<g id="edge9_Node000005_Node000009" class="edge">
<title>Node5&#45;&gt;Node9</title>
<g id="a_edge9_Node000005_Node000009"><a xlink:title=" ">
<path fill="none" stroke="#63b8ff" d="M292.76,-379.47C241.55,-374.44 153.49,-362.41 134,-338 107.14,-304.36 121.37,-249.56 131.57,-221.23"/>
<polygon fill="#63b8ff" stroke="#63b8ff" points="134.89,-222.36 135.19,-211.77 128.35,-219.86 134.89,-222.36"/>
</a>
</g>
</g>
<!-- Node5&#45;&gt;Node10 -->
<g id="edge42_Node000005_Node000010" class="edge">
<title>Node5&#45;&gt;Node10</title>
<g id="a_edge42_Node000005_Node000010"><a xlink:title=" ">
<path fill="none" stroke="#63b8ff" d="M292.79,-382.25C222.24,-379.61 76,-362.82 76,-269 76,-269 76,-269 76,-201 76,-150.15 126.33,-111.65 163.37,-90.2"/>
<polygon fill="#63b8ff" stroke="#63b8ff" points="165.44,-93.05 172.46,-85.12 162.02,-86.94 165.44,-93.05"/>
</a>
</g>
</g>
<!-- Node16 -->
<g id="Node000016" class="node">
<title>Node16</title>
<g id="a_Node000016"><a xlink:href="../../d6/d01/PCCNode_8h.html" target="_top" xlink:title="Nœud abstrait du graphe PCC représentant un bloc ferroviaire.">
<polygon fill="white" stroke="#666666" points="363.5,-277.5 292.5,-277.5 292.5,-258.5 363.5,-258.5 363.5,-277.5"/>
<text text-anchor="middle" x="328" y="-265.5" font-family="Helvetica,sans-Serif" font-size="10.00">PCCNode.h</text>
</a>
</g>
</g>
<!-- Node5&#45;&gt;Node16 -->
<g id="edge17_Node000005_Node000016" class="edge">
<title>Node5&#45;&gt;Node16</title>
<g id="a_edge17_Node000005_Node000016"><a xlink:title=" ">
<path fill="none" stroke="#63b8ff" d="M327.68,-373.71C325.46,-364.79 322.26,-350.55 321,-338 319.31,-321.15 321.59,-301.99 323.99,-288.15"/>
<polygon fill="#63b8ff" stroke="#63b8ff" points="327.5,-288.41 325.94,-277.93 320.63,-287.09 327.5,-288.41"/>
</a>
</g>
</g>
<!-- Node19 -->
<g id="Node000019" class="node">
<title>Node19</title>
<g id="a_Node000019"><a xlink:href="../../d2/d03/PCCStraightNode_8h.html" target="_top" xlink:title="Nœud PCC représentant un StraightBlock.">
<polygon fill="white" stroke="#666666" points="515.5,-338 406.5,-338 406.5,-319 515.5,-319 515.5,-338"/>
<text text-anchor="middle" x="461" y="-326" font-family="Helvetica,sans-Serif" font-size="10.00">PCCStraightNode.h</text>
</a>
</g>
</g>
<!-- Node5&#45;&gt;Node19 -->
<g id="edge26_Node000005_Node000019" class="edge">
<title>Node5&#45;&gt;Node19</title>
<g id="a_edge26_Node000005_Node000019"><a xlink:title=" ">
<path fill="none" stroke="#63b8ff" d="M351.05,-373.98C372.41,-365.34 405.7,-351.87 430.06,-342.02"/>
<polygon fill="#63b8ff" stroke="#63b8ff" points="431.61,-345.17 439.57,-338.17 428.99,-338.68 431.61,-345.17"/>
</a>
</g>
</g>
<!-- Node20 -->
<g id="Node000020" class="node">
<title>Node20</title>
<g id="a_Node000020"><a xlink:href="../../de/d01/StraightBlock_8h.html" target="_top" xlink:title="Modèle de domaine d&#39;un bloc de voie droite (Straight).">
<polygon fill="white" stroke="#666666" points="574.5,-283 389.5,-283 389.5,-253 574.5,-253 574.5,-283"/>
<text text-anchor="start" x="397.5" y="-271" font-family="Helvetica,sans-Serif" font-size="10.00">Modules/InteractiveElements</text>
<text text-anchor="middle" x="482" y="-260" font-family="Helvetica,sans-Serif" font-size="10.00">/ShuntingElements/StraightBlock.h</text>
</a>
</g>
</g>
<!-- Node5&#45;&gt;Node20 -->
<g id="edge43_Node000005_Node000020" class="edge">
<title>Node5&#45;&gt;Node20</title>
<g id="a_edge43_Node000005_Node000020"><a xlink:title=" ">
<path fill="none" stroke="#63b8ff" d="M367.32,-375.22C422.53,-364.28 520.05,-344.21 525,-338 537.07,-322.87 523.87,-304.16 509.02,-290.04"/>
<polygon fill="#63b8ff" stroke="#63b8ff" points="511.03,-287.14 501.22,-283.11 506.38,-292.37 511.03,-287.14"/>
</a>
</g>
</g>
<!-- Node5&#45;&gt;Node22 -->
<g id="edge33_Node000005_Node000022" class="edge">
<title>Node5&#45;&gt;Node22</title>
<g id="a_edge33_Node000005_Node000022"><a xlink:title=" ">
<path fill="none" stroke="#63b8ff" d="M367.15,-375.62C370.15,-375.07 373.12,-374.52 376,-374 441.02,-362.16 515.68,-348.79 565.95,-339.83"/>
<polygon fill="#63b8ff" stroke="#63b8ff" points="566.75,-343.24 575.98,-338.04 565.52,-336.35 566.75,-343.24"/>
</a>
</g>
</g>
<!-- Node23 -->
<g id="Node000023" class="node">
<title>Node23</title>
<g id="a_Node000023"><a xlink:href="../../dc/d01/SwitchBlock_8h.html" target="_top" xlink:title="Modèle de domaine d&#39;un aiguillage ferroviaire à 3 branches.">
<polygon fill="white" stroke="#666666" points="778.5,-283 599.5,-283 599.5,-253 778.5,-253 778.5,-283"/>
<text text-anchor="start" x="607.5" y="-271" font-family="Helvetica,sans-Serif" font-size="10.00">Modules/InteractiveElements</text>
<text text-anchor="middle" x="689" y="-260" font-family="Helvetica,sans-Serif" font-size="10.00">/ShuntingElements/SwitchBlock.h</text>
</a>
</g>
</g>
<!-- Node5&#45;&gt;Node23 -->
<g id="edge44_Node000005_Node000023" class="edge">
<title>Node5&#45;&gt;Node23</title>
<g id="a_edge44_Node000005_Node000023"><a xlink:title=" ">
<path fill="none" stroke="#63b8ff" d="M367.12,-375.42C370.12,-374.92 373.11,-374.44 376,-374 444.36,-363.71 637.56,-388.28 685,-338 696,-326.34 696.61,-308.06 694.68,-293.25"/>
<polygon fill="#63b8ff" stroke="#63b8ff" points="698.09,-292.47 692.93,-283.22 691.2,-293.67 698.09,-292.47"/>
</a>
</g>
</g>
<!-- Node9&#45;&gt;Node10 -->
<g id="edge10_Node000009_Node000010" class="edge">
<title>Node9&#45;&gt;Node10</title>
<g id="a_edge10_Node000009_Node000010"><a xlink:title=" ">
<path fill="none" stroke="#63b8ff" d="M143.13,-192.47C152.68,-172.78 176.51,-123.59 190.76,-94.2"/>
<polygon fill="#63b8ff" stroke="#63b8ff" points="193.97,-95.59 195.18,-85.07 187.67,-92.54 193.97,-95.59"/>
</a>
</g>
</g>
<!-- Node10&#45;&gt;Node7 -->
<g id="edge16_Node000010_Node000007" class="edge">
<title>Node10&#45;&gt;Node7</title>
<g id="a_edge16_Node000010_Node000007"><a xlink:title=" ">
<path fill="none" stroke="#63b8ff" d="M257.69,-59.27C328.46,-46.92 448.21,-26.01 505.12,-16.07"/>
<polygon fill="#63b8ff" stroke="#63b8ff" points="505.74,-19.51 514.99,-14.34 504.54,-12.62 505.74,-19.51"/>
</a>
</g>
</g>
<!-- Node11 -->
<g id="Node000011" class="node">
<title>Node11</title>
<g id="a_Node000011"><a xlink:title=" ">
<polygon fill="#e0e0e0" stroke="#999999" points="323,-19 279,-19 279,0 323,0 323,-19"/>
<text text-anchor="middle" x="301" y="-7" font-family="Helvetica,sans-Serif" font-size="10.00">ctime</text>
</a>
</g>
</g>
<!-- Node10&#45;&gt;Node11 -->
<g id="edge11_Node000010_Node000011" class="edge">
<title>Node10&#45;&gt;Node11</title>
<g id="a_edge11_Node000010_Node000011"><a xlink:title=" ">
<path fill="none" stroke="#63b8ff" d="M225.71,-54.99C241.35,-45.75 261.74,-33.7 277.36,-24.47"/>
<polygon fill="#63b8ff" stroke="#63b8ff" points="279.55,-27.24 286.38,-19.14 275.99,-21.21 279.55,-27.24"/>
</a>
</g>
</g>
<!-- Node12 -->
<g id="Node000012" class="node">
<title>Node12</title>
<g id="a_Node000012"><a xlink:title=" ">
<polygon fill="#e0e0e0" stroke="#999999" points="121,-19 53,-19 53,0 121,0 121,-19"/>
<text text-anchor="middle" x="87" y="-7" font-family="Helvetica,sans-Serif" font-size="10.00">filesystem</text>
</a>
</g>
</g>
<!-- Node10&#45;&gt;Node12 -->
<g id="edge12_Node000010_Node000012" class="edge">
<title>Node10&#45;&gt;Node12</title>
<g id="a_edge12_Node000010_Node000012"><a xlink:title=" ">
<path fill="none" stroke="#63b8ff" d="M174.45,-54.99C155.78,-45.49 131.26,-33.02 112.94,-23.69"/>
<polygon fill="#63b8ff" stroke="#63b8ff" points="114.48,-20.55 103.98,-19.14 111.31,-26.79 114.48,-20.55"/>
</a>
</g>
</g>
<!-- Node13 -->
<g id="Node000013" class="node">
<title>Node13</title>
<g id="a_Node000013"><a xlink:title=" ">
<polygon fill="#e0e0e0" stroke="#999999" points="194.5,-19 139.5,-19 139.5,0 194.5,0 194.5,-19"/>
<text text-anchor="middle" x="167" y="-7" font-family="Helvetica,sans-Serif" font-size="10.00">fstream</text>
</a>
</g>
</g>
<!-- Node10&#45;&gt;Node13 -->
<g id="edge13_Node000010_Node000013" class="edge">
<title>Node10&#45;&gt;Node13</title>
<g id="a_edge13_Node000010_Node000013"><a xlink:title=" ">
<path fill="none" stroke="#63b8ff" d="M193.53,-54.84C188.71,-46.78 182.63,-36.62 177.5,-28.06"/>
<polygon fill="#63b8ff" stroke="#63b8ff" points="180.38,-26.05 172.24,-19.27 174.38,-29.64 180.38,-26.05"/>
</a>
</g>
</g>
<!-- Node14 -->
<g id="Node000014" class="node">
<title>Node14</title>
<g id="a_Node000014"><a xlink:title=" ">
<polygon fill="#e0e0e0" stroke="#999999" points="261,-19 213,-19 213,0 261,0 261,-19"/>
<text text-anchor="middle" x="237" y="-7" font-family="Helvetica,sans-Serif" font-size="10.00">mutex</text>
</a>
</g>
</g>
<!-- Node10&#45;&gt;Node14 -->
<g id="edge14_Node000010_Node000014" class="edge">
<title>Node10&#45;&gt;Node14</title>
<g id="a_edge14_Node000010_Node000014"><a xlink:title=" ">
<path fill="none" stroke="#63b8ff" d="M210.47,-54.84C215.29,-46.78 221.37,-36.62 226.5,-28.06"/>
<polygon fill="#63b8ff" stroke="#63b8ff" points="229.62,-29.64 231.76,-19.27 223.62,-26.05 229.62,-29.64"/>
</a>
</g>
</g>
<!-- Node15 -->
<g id="Node000015" class="node">
<title>Node15</title>
<g id="a_Node000015"><a xlink:title=" ">
<polygon fill="#e0e0e0" stroke="#999999" points="408,-19 352,-19 352,0 408,0 408,-19"/>
<text text-anchor="middle" x="380" y="-7" font-family="Helvetica,sans-Serif" font-size="10.00">sstream</text>
</a>
</g>
</g>
<!-- Node10&#45;&gt;Node15 -->
<g id="edge15_Node000010_Node000015" class="edge">
<title>Node10&#45;&gt;Node15</title>
<g id="a_edge15_Node000010_Node000015"><a xlink:title=" ">
<path fill="none" stroke="#63b8ff" d="M244.64,-54.99C275.09,-44.98 315.59,-31.67 344.33,-22.22"/>
<polygon fill="#63b8ff" stroke="#63b8ff" points="345.57,-25.5 353.97,-19.05 343.38,-18.85 345.57,-25.5"/>
</a>
</g>
</g>
<!-- Node16&#45;&gt;Node4 -->
<g id="edge19_Node000016_Node000004" class="edge">
<title>Node16&#45;&gt;Node4</title>
<g id="a_edge19_Node000016_Node000004"><a xlink:title=" ">
<path fill="none" stroke="#63b8ff" d="M318.02,-258.37C306.28,-248.21 286.56,-231.16 272.1,-218.65"/>
<polygon fill="#63b8ff" stroke="#63b8ff" points="274.15,-215.8 264.3,-211.91 269.57,-221.09 274.15,-215.8"/>
</a>
</g>
</g>
<!-- Node16&#45;&gt;Node7 -->
<g id="edge18_Node000016_Node000007" class="edge">
<title>Node16&#45;&gt;Node7</title>
<g id="a_edge18_Node000016_Node000007"><a xlink:title=" ">
<path fill="none" stroke="#63b8ff" d="M326.37,-258.24C322.3,-233.56 314.31,-162.52 348,-121 390.13,-69.09 463.59,-36.34 505.44,-20.94"/>
<polygon fill="#63b8ff" stroke="#63b8ff" points="506.63,-24.23 514.86,-17.57 504.27,-17.64 506.63,-24.23"/>
</a>
</g>
</g>
<!-- Node16&#45;&gt;Node9 -->
<g id="edge20_Node000016_Node000009" class="edge">
<title>Node16&#45;&gt;Node9</title>
<g id="a_edge20_Node000016_Node000009"><a xlink:title=" ">
<path fill="none" stroke="#63b8ff" d="M302.51,-258.37C269.45,-247.17 211.6,-227.58 174.32,-214.96"/>
<polygon fill="#63b8ff" stroke="#63b8ff" points="174.98,-211.49 164.39,-211.6 172.74,-218.12 174.98,-211.49"/>
</a>
</g>
</g>
<!-- Node16&#45;&gt;Node10 -->
<g id="edge25_Node000016_Node000010" class="edge">
<title>Node16&#45;&gt;Node10</title>
<g id="a_edge25_Node000016_Node000010"><a xlink:title=" ">
<path fill="none" stroke="#63b8ff" d="M292.3,-259.5C268.55,-252.58 238.73,-239.8 222,-217 195.6,-181.02 195.89,-126.29 198.76,-95.06"/>
<polygon fill="#63b8ff" stroke="#63b8ff" points="202.24,-95.39 199.84,-85.07 195.28,-94.63 202.24,-95.39"/>
</a>
</g>
</g>
<!-- Node17 -->
<g id="Node000017" class="node">
<title>Node17</title>
<g id="a_Node000017"><a xlink:href="../../df/d02/ShuntingElement_8h.html" target="_top" xlink:title="Interface abstraite pour tous les éléments de shuntage ferroviaire.">
<polygon fill="white" stroke="#666666" points="537.5,-217 334.5,-217 334.5,-187 537.5,-187 537.5,-217"/>
<text text-anchor="start" x="342.5" y="-205" font-family="Helvetica,sans-Serif" font-size="10.00">Modules/InteractiveElements</text>
<text text-anchor="middle" x="436" y="-194" font-family="Helvetica,sans-Serif" font-size="10.00">/ShuntingElements/ShuntingElement.h</text>
</a>
</g>
</g>
<!-- Node16&#45;&gt;Node17 -->
<g id="edge21_Node000016_Node000017" class="edge">
<title>Node16&#45;&gt;Node17</title>
<g id="a_edge21_Node000016_Node000017"><a xlink:title=" ">
<path fill="none" stroke="#63b8ff" d="M342.57,-258.37C358.11,-249.16 383.25,-234.26 403.54,-222.24"/>
<polygon fill="#63b8ff" stroke="#63b8ff" points="405.36,-225.22 412.18,-217.12 401.79,-219.2 405.36,-225.22"/>
</a>
</g>
</g>
<!-- Node18 -->
<g id="Node000018" class="node">
<title>Node18</title>
<g id="a_Node000018"><a xlink:href="../../d6/d02/InteractiveElement_8h.html" target="_top" xlink:title="Classe de base abstraite pour tous les éléments interactifs ferroviaires.">
<polygon fill="white" stroke="#666666" points="515.5,-151 356.5,-151 356.5,-121 515.5,-121 515.5,-151"/>
<text text-anchor="start" x="364.5" y="-139" font-family="Helvetica,sans-Serif" font-size="10.00">Modules/InteractiveElements</text>
<text text-anchor="middle" x="436" y="-128" font-family="Helvetica,sans-Serif" font-size="10.00">/InteractiveElement.h</text>
</a>
</g>
</g>
<!-- Node17&#45;&gt;Node18 -->
<g id="edge22_Node000017_Node000018" class="edge">
<title>Node17&#45;&gt;Node18</title>
<g id="a_edge22_Node000017_Node000018"><a xlink:title=" ">
<path fill="none" stroke="#63b8ff" d="M436,-186.8C436,-179.34 436,-169.99 436,-161.41"/>
<polygon fill="#63b8ff" stroke="#63b8ff" points="439.5,-161.16 436,-151.16 432.5,-161.16 439.5,-161.16"/>
</a>
</g>
</g>
<!-- Node18&#45;&gt;Node7 -->
<g id="edge23_Node000018_Node000007" class="edge">
<title>Node18&#45;&gt;Node7</title>
<g id="a_edge23_Node000018_Node000007"><a xlink:title=" ">
<path fill="none" stroke="#63b8ff" d="M447.59,-120.72C466.41,-97.51 503.55,-51.73 523.53,-27.1"/>
<polygon fill="#63b8ff" stroke="#63b8ff" points="526.47,-29.04 530.05,-19.07 521.03,-24.63 526.47,-29.04"/>
</a>
</g>
</g>
<!-- Node18&#45;&gt;Node10 -->
<g id="edge24_Node000018_Node000010" class="edge">
<title>Node18&#45;&gt;Node10</title>
<g id="a_edge24_Node000018_Node000010"><a xlink:title=" ">
<path fill="none" stroke="#63b8ff" d="M384.65,-120.95C348.83,-111.16 300.88,-98.05 263.1,-87.71"/>
<polygon fill="#63b8ff" stroke="#63b8ff" points="263.8,-84.27 253.23,-85.01 261.95,-91.03 263.8,-84.27"/>
</a>
</g>
</g>
<!-- Node19&#45;&gt;Node16 -->
<g id="edge27_Node000019_Node000016" class="edge">
<title>Node19&#45;&gt;Node16</title>
<g id="a_edge27_Node000019_Node000016"><a xlink:title=" ">
<path fill="none" stroke="#63b8ff" d="M441.66,-318.99C419.3,-309.16 382.29,-292.88 356.6,-281.58"/>
<polygon fill="#63b8ff" stroke="#63b8ff" points="357.93,-278.34 347.36,-277.52 355.11,-284.75 357.93,-278.34"/>
</a>
</g>
</g>
<!-- Node19&#45;&gt;Node20 -->
<g id="edge28_Node000019_Node000020" class="edge">
<title>Node19&#45;&gt;Node20</title>
<g id="a_edge28_Node000019_Node000020"><a xlink:title=" ">
<path fill="none" stroke="#63b8ff" d="M464.1,-318.87C466.58,-311.96 470.18,-301.93 473.5,-292.67"/>
<polygon fill="#63b8ff" stroke="#63b8ff" points="476.85,-293.71 476.93,-283.11 470.26,-291.34 476.85,-293.71"/>
</a>
</g>
</g>
<!-- Node20&#45;&gt;Node4 -->
<g id="edge30_Node000020_Node000004" class="edge">
<title>Node20&#45;&gt;Node4</title>
<g id="a_edge30_Node000020_Node000004"><a xlink:title=" ">
<path fill="none" stroke="#63b8ff" d="M431.96,-252.95C388.23,-240.68 325.93,-223.19 287.82,-212.49"/>
<polygon fill="#63b8ff" stroke="#63b8ff" points="288.33,-209 277.75,-209.67 286.44,-215.74 288.33,-209"/>
</a>
</g>
</g>
<!-- Node20&#45;&gt;Node7 -->
<g id="edge29_Node000020_Node000007" class="edge">
<title>Node20&#45;&gt;Node7</title>
<g id="a_edge29_Node000020_Node000007"><a xlink:title=" ">
<path fill="none" stroke="#63b8ff" d="M510.81,-252.84C524.45,-244.47 539.39,-232.45 547,-217 578.03,-153.99 555.78,-66.65 543.57,-28.99"/>
<polygon fill="#63b8ff" stroke="#63b8ff" points="546.83,-27.72 540.31,-19.37 540.2,-29.96 546.83,-27.72"/>
</a>
</g>
</g>
<!-- Node20&#45;&gt;Node17 -->
<g id="edge31_Node000020_Node000017" class="edge">
<title>Node20&#45;&gt;Node17</title>
<g id="a_edge31_Node000020_Node000017"><a xlink:title=" ">
<path fill="none" stroke="#63b8ff" d="M471.79,-252.8C466.01,-244.76 458.66,-234.53 452.12,-225.43"/>
<polygon fill="#63b8ff" stroke="#63b8ff" points="454.86,-223.24 446.18,-217.16 449.17,-227.33 454.86,-223.24"/>
</a>
</g>
</g>
<!-- Node21 -->
<g id="Node000021" class="node">
<title>Node21</title>
<g id="a_Node000021"><a xlink:href="../../df/d02/LatLon_8h.html" target="_top" xlink:title="Représentation d&#39;une coordonnée géographique WGS&#45;84 (latitude, longitude).">
<polygon fill="white" stroke="#666666" points="713.5,-217 594.5,-217 594.5,-187 713.5,-187 713.5,-217"/>
<text text-anchor="start" x="602.5" y="-205" font-family="Helvetica,sans-Serif" font-size="10.00">Modules/Coordinates</text>
<text text-anchor="middle" x="654" y="-194" font-family="Helvetica,sans-Serif" font-size="10.00">/LatLon.h</text>
</a>
</g>
</g>
<!-- Node20&#45;&gt;Node21 -->
<g id="edge32_Node000020_Node000021" class="edge">
<title>Node20&#45;&gt;Node21</title>
<g id="a_edge32_Node000020_Node000021"><a xlink:title=" ">
<path fill="none" stroke="#63b8ff" d="M519.75,-252.95C545.4,-243.41 579.52,-230.71 606.95,-220.51"/>
<polygon fill="#63b8ff" stroke="#63b8ff" points="608.19,-223.78 616.34,-217.01 605.75,-217.22 608.19,-223.78"/>
</a>
</g>
</g>
<!-- Node22&#45;&gt;Node16 -->
<g id="edge34_Node000022_Node000016" class="edge">
<title>Node22&#45;&gt;Node16</title>
<g id="a_edge34_Node000022_Node000016"><a xlink:title=" ">
<path fill="none" stroke="#63b8ff" d="M572.1,-319.19C522.74,-311 446.51,-297.63 381,-283 376.92,-282.09 372.69,-281.08 368.47,-280.03"/>
<polygon fill="#63b8ff" stroke="#63b8ff" points="369.28,-276.63 358.73,-277.55 367.55,-283.41 369.28,-276.63"/>
</a>
</g>
</g>
<!-- Node22&#45;&gt;Node23 -->
<g id="edge35_Node000022_Node000023" class="edge">
<title>Node22&#45;&gt;Node23</title>
<g id="a_edge35_Node000022_Node000023"><a xlink:title=" ">
<path fill="none" stroke="#63b8ff" d="M633.59,-318.87C642,-311.3 654.58,-299.98 665.63,-290.04"/>
<polygon fill="#63b8ff" stroke="#63b8ff" points="668.23,-292.41 673.32,-283.11 663.54,-287.2 668.23,-292.41"/>
</a>
</g>
</g>
<!-- Node23&#45;&gt;Node4 -->
<g id="edge39_Node000023_Node000004" class="edge">
<title>Node23&#45;&gt;Node4</title>
<g id="a_edge39_Node000023_Node000004"><a xlink:title=" ">
<path fill="none" stroke="#63b8ff" d="M599.15,-254.89C500.45,-241.54 352.36,-221.37 326,-217 313.47,-214.92 299.77,-212.33 287.71,-209.95"/>
<polygon fill="#63b8ff" stroke="#63b8ff" points="288.11,-206.46 277.61,-207.93 286.73,-213.33 288.11,-206.46"/>
</a>
</g>
</g>
<!-- Node23&#45;&gt;Node7 -->
<g id="edge38_Node000023_Node000007" class="edge">
<title>Node23&#45;&gt;Node7</title>
<g id="a_edge38_Node000023_Node000007"><a xlink:title=" ">
<path fill="none" stroke="#63b8ff" d="M719.03,-252.84C732.98,-244.53 748.19,-232.57 756,-217 761.98,-205.08 761.24,-199.26 756,-187 719.86,-102.42 618.34,-46.75 567.22,-23.24"/>
<polygon fill="#63b8ff" stroke="#63b8ff" points="568.55,-20 557.99,-19.1 565.68,-26.39 568.55,-20"/>
</a>
</g>
</g>
<!-- Node23&#45;&gt;Node15 -->
<g id="edge37_Node000023_Node000015" class="edge">
<title>Node23&#45;&gt;Node15</title>
<g id="a_edge37_Node000023_Node000015"><a xlink:title=" ">
<path fill="none" stroke="#63b8ff" d="M702.97,-252.81C717.43,-236.33 736.2,-208.64 723,-187 655.13,-75.75 492.25,-31.65 418.02,-16.89"/>
<polygon fill="#63b8ff" stroke="#63b8ff" points="418.63,-13.44 408.15,-15 417.31,-20.32 418.63,-13.44"/>
</a>
</g>
</g>
<!-- Node23&#45;&gt;Node17 -->
<g id="edge41_Node000023_Node000017" class="edge">
<title>Node23&#45;&gt;Node17</title>
<g id="a_edge41_Node000023_Node000017"><a xlink:title=" ">
<path fill="none" stroke="#63b8ff" d="M633.48,-252.95C594.51,-243.1 542.25,-229.88 501.28,-219.51"/>
<polygon fill="#63b8ff" stroke="#63b8ff" points="501.95,-216.07 491.39,-217.01 500.23,-222.86 501.95,-216.07"/>
</a>
</g>
</g>
<!-- Node23&#45;&gt;Node21 -->
<g id="edge40_Node000023_Node000021" class="edge">
<title>Node23&#45;&gt;Node21</title>
<g id="a_edge40_Node000023_Node000021"><a xlink:title=" ">
<path fill="none" stroke="#63b8ff" d="M681.23,-252.8C676.93,-244.92 671.47,-234.95 666.57,-225.99"/>
<polygon fill="#63b8ff" stroke="#63b8ff" points="669.61,-224.26 661.75,-217.16 663.47,-227.62 669.61,-224.26"/>
</a>
</g>
</g>
<!-- Node24 -->
<g id="Node000024" class="node">
<title>Node24</title>
<g id="a_Node000024"><a xlink:title=" ">
<polygon fill="#e0e0e0" stroke="#999999" points="864,-211.5 808,-211.5 808,-192.5 864,-192.5 864,-211.5"/>
<text text-anchor="middle" x="836" y="-199.5" font-family="Helvetica,sans-Serif" font-size="10.00">optional</text>
</a>
</g>
</g>
<!-- Node23&#45;&gt;Node24 -->
<g id="edge36_Node000023_Node000024" class="edge">
<title>Node23&#45;&gt;Node24</title>
<g id="a_edge36_Node000023_Node000024"><a xlink:title=" ">
<path fill="none" stroke="#63b8ff" d="M721.26,-252.95C746.93,-241.78 782.51,-226.29 807.22,-215.53"/>
<polygon fill="#63b8ff" stroke="#63b8ff" points="808.67,-218.72 816.44,-211.52 805.87,-212.3 808.67,-218.72"/>
</a>
</g>
</g>
</g>
</svg>
