<?xml version="1.0" encoding="UTF-8" standalone="no"?>
<!DOCTYPE svg PUBLIC "-//W3C//DTD SVG 1.1//EN"
 "http://www.w3.org/Graphics/SVG/1.1/DTD/svg11.dtd">
<!-- Generated by graphviz version 2.43.0 (0)
 -->
<!-- Title: SimulateurFerroviaire/Modules/PCC/PCCLayout.cpp Pages: 1 -->
<svg width="1162pt" height="511pt"
 viewBox="0.00 0.00 1162.00 511.00" xmlns="http://www.w3.org/2000/svg" xmlns:xlink="http://www.w3.org/1999/xlink">
<g id="graph0" class="graph" transform="scale(1 1) rotate(0) translate(4 507)">
<title>SimulateurFerroviaire/Modules/PCC/PCCLayout.cpp</title>
<!-- Node1 -->
<g id="Node000001" class="node">
<title>Node1</title>
<g id="a_Node000001"><a xlink:title="Implémentation du calculateur de positions logiques PCC.">
<polygon fill="#999999" stroke="#666666" points="794.5,-503 635.5,-503 635.5,-473 794.5,-473 794.5,-503"/>
<text text-anchor="start" x="643.5" y="-491" font-family="Helvetica,sans-Serif" font-size="10.00">SimulateurFerroviaire</text>
<text text-anchor="middle" x="715" y="-480" font-family="Helvetica,sans-Serif" font-size="10.00">/Modules/PCC/PCCLayout.cpp</text>
</a>
</g>
</g>
<!-- Node2 -->
<g id="Node000002" class="node">
<title>Node2</title>
<g id="a_Node000002"><a xlink:href="../../d6/d01/PCCLayout_8h.html" target="_top" xlink:title="Calcul des positions logiques X/Y du graphe PCC par parcours BFS.">
<polygon fill="white" stroke="#666666" points="673,-437 595,-437 595,-418 673,-418 673,-437"/>
<text text-anchor="middle" x="634" y="-425" font-family="Helvetica,sans-Serif" font-size="10.00">PCCLayout.h</text>
</a>
</g>
</g>
<!-- Node1&#45;&gt;Node2 -->
<g id="edge1_Node000001_Node000002" class="edge">
<title>Node1&#45;&gt;Node2</title>
<g id="a_edge1_Node000001_Node000002"><a xlink:title=" ">
<path fill="none" stroke="#63b8ff" d="M695.39,-472.84C683.03,-463.91 667.1,-452.41 654.57,-443.35"/>
<polygon fill="#63b8ff" stroke="#63b8ff" points="656.29,-440.28 646.14,-437.27 652.2,-445.96 656.29,-440.28"/>
</a>
</g>
</g>
<!-- Node24 -->
<g id="Node000024" class="node">
<title>Node24</title>
<g id="a_Node000024"><a xlink:href="../../dc/d01/PCCSwitchNode_8h.html" target="_top" xlink:title="Nœud PCC représentant un SwitchBlock.">
<polygon fill="white" stroke="#666666" points="417.5,-327 314.5,-327 314.5,-308 417.5,-308 417.5,-327"/>
<text text-anchor="middle" x="366" y="-315" font-family="Helvetica,sans-Serif" font-size="10.00">PCCSwitchNode.h</text>
</a>
</g>
</g>
<!-- Node1&#45;&gt;Node24 -->
<g id="edge50_Node000001_Node000024" class="edge">
<title>Node1&#45;&gt;Node24</title>
<g id="a_edge50_Node000001_Node000024"><a xlink:title=" ">
<path fill="none" stroke="#63b8ff" d="M656.81,-472.96C597.26,-456.92 503.56,-426.94 432,-382 411.48,-369.12 392.01,-349.07 379.6,-334.96"/>
<polygon fill="#63b8ff" stroke="#63b8ff" points="382,-332.38 372.85,-327.05 376.68,-336.93 382,-332.38"/>
</a>
</g>
</g>
<!-- Node28 -->
<g id="Node000028" class="node">
<title>Node28</title>
<g id="a_Node000028"><a xlink:title=" ">
<polygon fill="#e0e0e0" stroke="#999999" points="738.5,-437 691.5,-437 691.5,-418 738.5,-418 738.5,-437"/>
<text text-anchor="middle" x="715" y="-425" font-family="Helvetica,sans-Serif" font-size="10.00">queue</text>
</a>
</g>
</g>
<!-- Node1&#45;&gt;Node28 -->
<g id="edge51_Node000001_Node000028" class="edge">
<title>Node1&#45;&gt;Node28</title>
<g id="a_edge51_Node000001_Node000028"><a xlink:title=" ">
<path fill="none" stroke="#63b8ff" d="M715,-472.84C715,-465.21 715,-455.7 715,-447.45"/>
<polygon fill="#63b8ff" stroke="#63b8ff" points="718.5,-447.27 715,-437.27 711.5,-447.27 718.5,-447.27"/>
</a>
</g>
</g>
<!-- Node29 -->
<g id="Node000029" class="node">
<title>Node29</title>
<g id="a_Node000029"><a xlink:title=" ">
<polygon fill="#e0e0e0" stroke="#999999" points="821,-437 757,-437 757,-418 821,-418 821,-437"/>
<text text-anchor="middle" x="789" y="-425" font-family="Helvetica,sans-Serif" font-size="10.00">algorithm</text>
</a>
</g>
</g>
<!-- Node1&#45;&gt;Node29 -->
<g id="edge52_Node000001_Node000029" class="edge">
<title>Node1&#45;&gt;Node29</title>
<g id="a_edge52_Node000001_Node000029"><a xlink:title=" ">
<path fill="none" stroke="#63b8ff" d="M732.91,-472.84C744.09,-464 758.48,-452.63 769.88,-443.62"/>
<polygon fill="#63b8ff" stroke="#63b8ff" points="772.24,-446.21 777.91,-437.27 767.9,-440.72 772.24,-446.21"/>
</a>
</g>
</g>
<!-- Node30 -->
<g id="Node000030" class="node">
<title>Node30</title>
<g id="a_Node000030"><a xlink:title=" ">
<polygon fill="#e0e0e0" stroke="#999999" points="871,-437 839,-437 839,-418 871,-418 871,-437"/>
<text text-anchor="middle" x="855" y="-425" font-family="Helvetica,sans-Serif" font-size="10.00">set</text>
</a>
</g>
</g>
<!-- Node1&#45;&gt;Node30 -->
<g id="edge53_Node000001_Node000030" class="edge">
<title>Node1&#45;&gt;Node30</title>
<g id="a_edge53_Node000001_Node000030"><a xlink:title=" ">
<path fill="none" stroke="#63b8ff" d="M748.53,-472.99C773.34,-462.62 806.62,-448.72 829.32,-439.23"/>
<polygon fill="#63b8ff" stroke="#63b8ff" points="830.77,-442.42 838.65,-435.33 828.07,-435.96 830.77,-442.42"/>
</a>
</g>
</g>
<!-- Node3 -->
<g id="Node000003" class="node">
<title>Node3</title>
<g id="a_Node000003"><a xlink:title=" ">
<polygon fill="#e0e0e0" stroke="#999999" points="1154,-382 1068,-382 1068,-363 1154,-363 1154,-382"/>
<text text-anchor="middle" x="1111" y="-370" font-family="Helvetica,sans-Serif" font-size="10.00">unordered_set</text>
</a>
</g>
</g>
<!-- Node2&#45;&gt;Node3 -->
<g id="edge2_Node000002_Node000003" class="edge">
<title>Node2&#45;&gt;Node3</title>
<g id="a_edge2_Node000002_Node000003"><a xlink:title=" ">
<path fill="none" stroke="#63b8ff" d="M673.25,-419.29C676.21,-418.83 679.15,-418.39 682,-418 846.57,-395.5 889.13,-402.26 1054,-382 1055.26,-381.85 1056.53,-381.69 1057.81,-381.52"/>
<polygon fill="#63b8ff" stroke="#63b8ff" points="1058.33,-384.98 1067.77,-380.19 1057.4,-378.05 1058.33,-384.98"/>
</a>
</g>
</g>
<!-- Node4 -->
<g id="Node000004" class="node">
<title>Node4</title>
<g id="a_Node000004"><a xlink:title=" ">
<polygon fill="#e0e0e0" stroke="#999999" points="595.5,-200.5 548.5,-200.5 548.5,-181.5 595.5,-181.5 595.5,-200.5"/>
<text text-anchor="middle" x="572" y="-188.5" font-family="Helvetica,sans-Serif" font-size="10.00">vector</text>
</a>
</g>
</g>
<!-- Node2&#45;&gt;Node4 -->
<g id="edge3_Node000002_Node000004" class="edge">
<title>Node2&#45;&gt;Node4</title>
<g id="a_edge3_Node000002_Node000004"><a xlink:title=" ">
<path fill="none" stroke="#63b8ff" d="M601.09,-417.92C560.75,-405.44 494.15,-377.99 465,-327 437.31,-278.57 506.79,-229.04 546.53,-205.72"/>
<polygon fill="#63b8ff" stroke="#63b8ff" points="548.5,-208.63 555.45,-200.64 545.03,-202.55 548.5,-208.63"/>
</a>
</g>
</g>
<!-- Node5 -->
<g id="Node000005" class="node">
<title>Node5</title>
<g id="a_Node000005"><a xlink:href="../../d8/d00/PCCGraph_8h.html" target="_top" xlink:title="Conteneur propriétaire du graphe PCC.">
<polygon fill="white" stroke="#666666" points="671,-382 597,-382 597,-363 671,-363 671,-382"/>
<text text-anchor="middle" x="634" y="-370" font-family="Helvetica,sans-Serif" font-size="10.00">PCCGraph.h</text>
</a>
</g>
</g>
<!-- Node2&#45;&gt;Node5 -->
<g id="edge4_Node000002_Node000005" class="edge">
<title>Node2&#45;&gt;Node5</title>
<g id="a_edge4_Node000002_Node000005"><a xlink:title=" ">
<path fill="none" stroke="#63b8ff" d="M634,-417.75C634,-410.8 634,-400.85 634,-392.13"/>
<polygon fill="#63b8ff" stroke="#63b8ff" points="637.5,-392.09 634,-382.09 630.5,-392.09 637.5,-392.09"/>
</a>
</g>
</g>
<!-- Node10 -->
<g id="Node000010" class="node">
<title>Node10</title>
<g id="a_Node000010"><a xlink:href="../../dd/d00/Logger_8h.html" target="_top" xlink:title="Système de journalisation à 5 niveaux de trace, un fichier par moteur.">
<polygon fill="white" stroke="#666666" points="973.5,-85 862.5,-85 862.5,-55 973.5,-55 973.5,-85"/>
<text text-anchor="start" x="870.5" y="-73" font-family="Helvetica,sans-Serif" font-size="10.00">Engine/Core/Logger</text>
<text text-anchor="middle" x="918" y="-62" font-family="Helvetica,sans-Serif" font-size="10.00">/Logger.h</text>
</a>
</g>
</g>
<!-- Node2&#45;&gt;Node10 -->
<g id="edge49_Node000002_Node000010" class="edge">
<title>Node2&#45;&gt;Node10</title>
<g id="a_edge49_Node000002_Node000010"><a xlink:title=" ">
<path fill="none" stroke="#63b8ff" d="M673.3,-418.14C775.19,-396.2 1040,-337.35 1040,-318.5 1040,-318.5 1040,-318.5 1040,-190 1040,-143.69 994.4,-109.53 958.95,-89.97"/>
<polygon fill="#63b8ff" stroke="#63b8ff" points="960.21,-86.67 949.74,-85.07 956.93,-92.85 960.21,-86.67"/>
</a>
</g>
</g>
<!-- Node5&#45;&gt;Node4 -->
<g id="edge8_Node000005_Node000004" class="edge">
<title>Node5&#45;&gt;Node4</title>
<g id="a_edge8_Node000005_Node000004"><a xlink:title=" ">
<path fill="none" stroke="#63b8ff" d="M629.23,-362.99C619.96,-346.14 599.45,-307.1 588,-272 581.29,-251.43 576.89,-226.93 574.44,-210.51"/>
<polygon fill="#63b8ff" stroke="#63b8ff" points="577.9,-209.99 573.04,-200.58 570.97,-210.97 577.9,-209.99"/>
</a>
</g>
</g>
<!-- Node6 -->
<g id="Node000006" class="node">
<title>Node6</title>
<g id="a_Node000006"><a xlink:title=" ">
<polygon fill="#e0e0e0" stroke="#999999" points="886,-327 828,-327 828,-308 886,-308 886,-327"/>
<text text-anchor="middle" x="857" y="-315" font-family="Helvetica,sans-Serif" font-size="10.00">memory</text>
</a>
</g>
</g>
<!-- Node5&#45;&gt;Node6 -->
<g id="edge5_Node000005_Node000006" class="edge">
<title>Node5&#45;&gt;Node6</title>
<g id="a_edge5_Node000005_Node000006"><a xlink:title=" ">
<path fill="none" stroke="#63b8ff" d="M669.83,-362.98C710.32,-353.36 776.02,-337.75 817.84,-327.81"/>
<polygon fill="#63b8ff" stroke="#63b8ff" points="818.75,-331.19 827.67,-325.47 817.13,-324.38 818.75,-331.19"/>
</a>
</g>
</g>
<!-- Node7 -->
<g id="Node000007" class="node">
<title>Node7</title>
<g id="a_Node000007"><a xlink:title=" ">
<polygon fill="#e0e0e0" stroke="#999999" points="622,-19 578,-19 578,0 622,0 622,-19"/>
<text text-anchor="middle" x="600" y="-7" font-family="Helvetica,sans-Serif" font-size="10.00">string</text>
</a>
</g>
</g>
<!-- Node5&#45;&gt;Node7 -->
<g id="edge6_Node000005_Node000007" class="edge">
<title>Node5&#45;&gt;Node7</title>
<g id="a_edge6_Node000005_Node000007"><a xlink:title=" ">
<path fill="none" stroke="#63b8ff" d="M596.71,-368.8C460.81,-358.49 0,-319.01 0,-258 0,-258 0,-258 0,-129.5 0,-12.64 443.46,-8.76 567.89,-9.97"/>
<polygon fill="#63b8ff" stroke="#63b8ff" points="567.89,-13.47 577.93,-10.09 567.98,-6.47 567.89,-13.47"/>
</a>
</g>
</g>
<!-- Node8 -->
<g id="Node000008" class="node">
<title>Node8</title>
<g id="a_Node000008"><a xlink:title=" ">
<polygon fill="#e0e0e0" stroke="#999999" points="567.5,-327 474.5,-327 474.5,-308 567.5,-308 567.5,-327"/>
<text text-anchor="middle" x="521" y="-315" font-family="Helvetica,sans-Serif" font-size="10.00">unordered_map</text>
</a>
</g>
</g>
<!-- Node5&#45;&gt;Node8 -->
<g id="edge7_Node000005_Node000008" class="edge">
<title>Node5&#45;&gt;Node8</title>
<g id="a_edge7_Node000005_Node000008"><a xlink:title=" ">
<path fill="none" stroke="#63b8ff" d="M615.84,-362.98C597.75,-354.5 569.72,-341.35 548.81,-331.54"/>
<polygon fill="#63b8ff" stroke="#63b8ff" points="550.03,-328.25 539.49,-327.17 547.05,-334.59 550.03,-328.25"/>
</a>
</g>
</g>
<!-- Node9 -->
<g id="Node000009" class="node">
<title>Node9</title>
<g id="a_Node000009"><a xlink:href="../../d1/d02/PCCEdge_8h.html" target="_top" xlink:title="Connexion orientée entre deux nœuds du graphe PCC.">
<polygon fill="white" stroke="#666666" points="1011.5,-200.5 942.5,-200.5 942.5,-181.5 1011.5,-181.5 1011.5,-200.5"/>
<text text-anchor="middle" x="977" y="-188.5" font-family="Helvetica,sans-Serif" font-size="10.00">PCCEdge.h</text>
</a>
</g>
</g>
<!-- Node5&#45;&gt;Node9 -->
<g id="edge9_Node000005_Node000009" class="edge">
<title>Node5&#45;&gt;Node9</title>
<g id="a_edge9_Node000005_Node000009"><a xlink:title=" ">
<path fill="none" stroke="#63b8ff" d="M671.11,-370.5C741.17,-367.88 889.37,-358.65 928,-327 963.59,-297.84 973.33,-240.59 976,-210.88"/>
<polygon fill="#63b8ff" stroke="#63b8ff" points="979.51,-210.86 976.73,-200.64 972.52,-210.37 979.51,-210.86"/>
</a>
</g>
</g>
<!-- Node5&#45;&gt;Node10 -->
<g id="edge46_Node000005_Node000010" class="edge">
<title>Node5&#45;&gt;Node10</title>
<g id="a_edge46_Node000005_Node000010"><a xlink:title=" ">
<path fill="none" stroke="#63b8ff" d="M671.15,-369.97C735.21,-366.57 862.71,-356.22 895,-327 918.59,-305.66 914,-289.81 914,-258 914,-258 914,-258 914,-190 914,-157.2 915.54,-119.33 916.71,-95.29"/>
<polygon fill="#63b8ff" stroke="#63b8ff" points="920.2,-95.45 917.21,-85.28 913.21,-95.09 920.2,-95.45"/>
</a>
</g>
</g>
<!-- Node17 -->
<g id="Node000017" class="node">
<title>Node17</title>
<g id="a_Node000017"><a xlink:href="../../d6/d01/PCCNode_8h.html" target="_top" xlink:title="Nœud abstrait du graphe PCC représentant un bloc ferroviaire.">
<polygon fill="white" stroke="#666666" points="838.5,-266.5 767.5,-266.5 767.5,-247.5 838.5,-247.5 838.5,-266.5"/>
<text text-anchor="middle" x="803" y="-254.5" font-family="Helvetica,sans-Serif" font-size="10.00">PCCNode.h</text>
</a>
</g>
</g>
<!-- Node5&#45;&gt;Node17 -->
<g id="edge18_Node000005_Node000017" class="edge">
<title>Node5&#45;&gt;Node17</title>
<g id="a_edge18_Node000005_Node000017"><a xlink:title=" ">
<path fill="none" stroke="#63b8ff" d="M671.14,-369.5C703.88,-365.8 750.77,-355.48 780,-327 793.68,-313.67 799.22,-292 801.47,-276.5"/>
<polygon fill="#63b8ff" stroke="#63b8ff" points="804.95,-276.84 802.59,-266.51 798,-276.06 804.95,-276.84"/>
</a>
</g>
</g>
<!-- Node20 -->
<g id="Node000020" class="node">
<title>Node20</title>
<g id="a_Node000020"><a xlink:href="../../d2/d03/PCCStraightNode_8h.html" target="_top" xlink:title="Nœud PCC représentant un StraightBlock.">
<polygon fill="white" stroke="#666666" points="771.5,-327 662.5,-327 662.5,-308 771.5,-308 771.5,-327"/>
<text text-anchor="middle" x="717" y="-315" font-family="Helvetica,sans-Serif" font-size="10.00">PCCStraightNode.h</text>
</a>
</g>
</g>
<!-- Node5&#45;&gt;Node20 -->
<g id="edge27_Node000005_Node000020" class="edge">
<title>Node5&#45;&gt;Node20</title>
<g id="a_edge27_Node000005_Node000020"><a xlink:title=" ">
<path fill="none" stroke="#63b8ff" d="M647.34,-362.98C660.09,-354.84 679.55,-342.41 694.67,-332.76"/>
<polygon fill="#63b8ff" stroke="#63b8ff" points="696.88,-335.5 703.42,-327.17 693.11,-329.6 696.88,-335.5"/>
</a>
</g>
</g>
<!-- Node21 -->
<g id="Node000021" class="node">
<title>Node21</title>
<g id="a_Node000021"><a xlink:href="../../de/d01/StraightBlock_8h.html" target="_top" xlink:title="Modèle de domaine d&#39;un bloc de voie droite (Straight).">
<polygon fill="white" stroke="#666666" points="749,-272 597,-272 597,-242 749,-242 749,-272"/>
<text text-anchor="start" x="605" y="-260" font-family="Helvetica,sans-Serif" font-size="10.00">Modules/Elements/Shunting</text>
<text text-anchor="middle" x="673" y="-249" font-family="Helvetica,sans-Serif" font-size="10.00">Elements/StraightBlock.h</text>
</a>
</g>
</g>
<!-- Node5&#45;&gt;Node21 -->
<g id="edge47_Node000005_Node000021" class="edge">
<title>Node5&#45;&gt;Node21</title>
<g id="a_edge47_Node000005_Node000021"><a xlink:title=" ">
<path fill="none" stroke="#63b8ff" d="M636.34,-362.79C639.7,-350.49 646.25,-327.34 653,-308 656.02,-299.34 659.66,-289.97 663.01,-281.71"/>
<polygon fill="#63b8ff" stroke="#63b8ff" points="666.31,-282.89 666.88,-272.31 659.84,-280.23 666.31,-282.89"/>
</a>
</g>
</g>
<!-- Node5&#45;&gt;Node24 -->
<g id="edge35_Node000005_Node000024" class="edge">
<title>Node5&#45;&gt;Node24</title>
<g id="a_edge35_Node000005_Node000024"><a xlink:title=" ">
<path fill="none" stroke="#63b8ff" d="M596.74,-364.13C550.62,-355.01 471.78,-339.42 419.28,-329.04"/>
<polygon fill="#63b8ff" stroke="#63b8ff" points="419.64,-325.54 409.15,-327.03 418.28,-332.41 419.64,-325.54"/>
</a>
</g>
</g>
<!-- Node25 -->
<g id="Node000025" class="node">
<title>Node25</title>
<g id="a_Node000025"><a xlink:href="../../dc/d01/SwitchBlock_8h.html" target="_top" xlink:title="Modèle de domaine d&#39;un aiguillage ferroviaire à 3 branches.">
<polygon fill="white" stroke="#666666" points="373,-272 221,-272 221,-242 373,-242 373,-272"/>
<text text-anchor="start" x="229" y="-260" font-family="Helvetica,sans-Serif" font-size="10.00">Modules/Elements/Shunting</text>
<text text-anchor="middle" x="297" y="-249" font-family="Helvetica,sans-Serif" font-size="10.00">Elements/SwitchBlock.h</text>
</a>
</g>
</g>
<!-- Node5&#45;&gt;Node25 -->
<g id="edge48_Node000005_Node000025" class="edge">
<title>Node5&#45;&gt;Node25</title>
<g id="a_edge48_Node000005_Node000025"><a xlink:title=" ">
<path fill="none" stroke="#63b8ff" d="M596.85,-371.96C519.48,-372.07 344.91,-367.68 305,-327 293.65,-315.43 292.01,-297 293.02,-282.09"/>
<polygon fill="#63b8ff" stroke="#63b8ff" points="296.51,-282.33 294.11,-272.01 289.55,-281.57 296.51,-282.33"/>
</a>
</g>
</g>
<!-- Node9&#45;&gt;Node10 -->
<g id="edge10_Node000009_Node000010" class="edge">
<title>Node9&#45;&gt;Node10</title>
<g id="a_edge10_Node000009_Node000010"><a xlink:title=" ">
<path fill="none" stroke="#63b8ff" d="M972.76,-181.44C963.81,-163.41 942.77,-120.96 929.53,-94.25"/>
<polygon fill="#63b8ff" stroke="#63b8ff" points="932.62,-92.6 925.04,-85.2 926.35,-95.71 932.62,-92.6"/>
</a>
</g>
</g>
<!-- Node10&#45;&gt;Node7 -->
<g id="edge16_Node000010_Node000007" class="edge">
<title>Node10&#45;&gt;Node7</title>
<g id="a_edge16_Node000010_Node000007"><a xlink:title=" ">
<path fill="none" stroke="#63b8ff" d="M862.24,-57.74C857.42,-56.8 852.63,-55.88 848,-55 770.69,-40.33 679.57,-24.31 632.22,-16.07"/>
<polygon fill="#63b8ff" stroke="#63b8ff" points="632.71,-12.6 622.26,-14.34 631.51,-19.5 632.71,-12.6"/>
</a>
</g>
</g>
<!-- Node11 -->
<g id="Node000011" class="node">
<title>Node11</title>
<g id="a_Node000011"><a xlink:title=" ">
<polygon fill="#e0e0e0" stroke="#999999" points="786,-19 742,-19 742,0 786,0 786,-19"/>
<text text-anchor="middle" x="764" y="-7" font-family="Helvetica,sans-Serif" font-size="10.00">ctime</text>
</a>
</g>
</g>
<!-- Node10&#45;&gt;Node11 -->
<g id="edge11_Node000010_Node000011" class="edge">
<title>Node10&#45;&gt;Node11</title>
<g id="a_edge11_Node000010_Node000011"><a xlink:title=" ">
<path fill="none" stroke="#63b8ff" d="M881.11,-54.99C855.15,-45.12 820.74,-32.05 795.95,-22.64"/>
<polygon fill="#63b8ff" stroke="#63b8ff" points="796.88,-19.25 786.29,-18.97 794.4,-25.79 796.88,-19.25"/>
</a>
</g>
</g>
<!-- Node12 -->
<g id="Node000012" class="node">
<title>Node12</title>
<g id="a_Node000012"><a xlink:title=" ">
<polygon fill="#e0e0e0" stroke="#999999" points="872,-19 804,-19 804,0 872,0 872,-19"/>
<text text-anchor="middle" x="838" y="-7" font-family="Helvetica,sans-Serif" font-size="10.00">filesystem</text>
</a>
</g>
</g>
<!-- Node10&#45;&gt;Node12 -->
<g id="edge12_Node000010_Node000012" class="edge">
<title>Node10&#45;&gt;Node12</title>
<g id="a_edge12_Node000010_Node000012"><a xlink:title=" ">
<path fill="none" stroke="#63b8ff" d="M898.63,-54.84C886.43,-45.91 870.69,-34.41 858.31,-25.35"/>
<polygon fill="#63b8ff" stroke="#63b8ff" points="860.13,-22.34 849.99,-19.27 855.99,-27.99 860.13,-22.34"/>
</a>
</g>
</g>
<!-- Node13 -->
<g id="Node000013" class="node">
<title>Node13</title>
<g id="a_Node000013"><a xlink:title=" ">
<polygon fill="#e0e0e0" stroke="#999999" points="945.5,-19 890.5,-19 890.5,0 945.5,0 945.5,-19"/>
<text text-anchor="middle" x="918" y="-7" font-family="Helvetica,sans-Serif" font-size="10.00">fstream</text>
</a>
</g>
</g>
<!-- Node10&#45;&gt;Node13 -->
<g id="edge13_Node000010_Node000013" class="edge">
<title>Node10&#45;&gt;Node13</title>
<g id="a_edge13_Node000010_Node000013"><a xlink:title=" ">
<path fill="none" stroke="#63b8ff" d="M918,-54.84C918,-47.21 918,-37.7 918,-29.45"/>
<polygon fill="#63b8ff" stroke="#63b8ff" points="921.5,-29.27 918,-19.27 914.5,-29.27 921.5,-29.27"/>
</a>
</g>
</g>
<!-- Node14 -->
<g id="Node000014" class="node">
<title>Node14</title>
<g id="a_Node000014"><a xlink:title=" ">
<polygon fill="#e0e0e0" stroke="#999999" points="1012,-19 964,-19 964,0 1012,0 1012,-19"/>
<text text-anchor="middle" x="988" y="-7" font-family="Helvetica,sans-Serif" font-size="10.00">mutex</text>
</a>
</g>
</g>
<!-- Node10&#45;&gt;Node14 -->
<g id="edge14_Node000010_Node000014" class="edge">
<title>Node10&#45;&gt;Node14</title>
<g id="a_edge14_Node000010_Node000014"><a xlink:title=" ">
<path fill="none" stroke="#63b8ff" d="M934.95,-54.84C945.42,-46.09 958.86,-34.85 969.59,-25.88"/>
<polygon fill="#63b8ff" stroke="#63b8ff" points="972.08,-28.36 977.51,-19.27 967.59,-22.99 972.08,-28.36"/>
</a>
</g>
</g>
<!-- Node15 -->
<g id="Node000015" class="node">
<title>Node15</title>
<g id="a_Node000015"><a xlink:title=" ">
<polygon fill="#e0e0e0" stroke="#999999" points="715,-19 659,-19 659,0 715,0 715,-19"/>
<text text-anchor="middle" x="687" y="-7" font-family="Helvetica,sans-Serif" font-size="10.00">sstream</text>
</a>
</g>
</g>
<!-- Node10&#45;&gt;Node15 -->
<g id="edge15_Node000010_Node000015" class="edge">
<title>Node10&#45;&gt;Node15</title>
<g id="a_edge15_Node000010_Node000015"><a xlink:title=" ">
<path fill="none" stroke="#63b8ff" d="M862.67,-54.99C820.21,-44.24 762.7,-29.67 725.24,-20.18"/>
<polygon fill="#63b8ff" stroke="#63b8ff" points="725.78,-16.71 715.23,-17.65 724.06,-23.5 725.78,-16.71"/>
</a>
</g>
</g>
<!-- Node16 -->
<g id="Node000016" class="node">
<title>Node16</title>
<g id="a_Node000016"><a xlink:title=" ">
<polygon fill="#e0e0e0" stroke="#999999" points="1098,-19 1030,-19 1030,0 1098,0 1098,-19"/>
<text text-anchor="middle" x="1064" y="-7" font-family="Helvetica,sans-Serif" font-size="10.00">windows.h</text>
</a>
</g>
</g>
<!-- Node10&#45;&gt;Node16 -->
<g id="edge17_Node000010_Node000016" class="edge">
<title>Node10&#45;&gt;Node16</title>
<g id="a_edge17_Node000010_Node000016"><a xlink:title=" ">
<path fill="none" stroke="#63b8ff" d="M952.97,-54.99C977.33,-45.23 1009.53,-32.33 1032.97,-22.93"/>
<polygon fill="#63b8ff" stroke="#63b8ff" points="1034.46,-26.11 1042.44,-19.14 1031.85,-19.61 1034.46,-26.11"/>
</a>
</g>
</g>
<!-- Node17&#45;&gt;Node4 -->
<g id="edge20_Node000017_Node000004" class="edge">
<title>Node17&#45;&gt;Node4</title>
<g id="a_edge20_Node000017_Node000004"><a xlink:title=" ">
<path fill="none" stroke="#63b8ff" d="M775.92,-247.39C770.03,-245.57 763.82,-243.69 758,-242 704.87,-226.6 642.72,-210.22 605.41,-200.56"/>
<polygon fill="#63b8ff" stroke="#63b8ff" points="606.13,-197.13 595.57,-198.02 604.38,-203.91 606.13,-197.13"/>
</a>
</g>
</g>
<!-- Node17&#45;&gt;Node7 -->
<g id="edge19_Node000017_Node000007" class="edge">
<title>Node17&#45;&gt;Node7</title>
<g id="a_edge19_Node000017_Node000007"><a xlink:title=" ">
<path fill="none" stroke="#63b8ff" d="M807.51,-247.3C818.59,-224.59 844.49,-162.4 819,-121 777.84,-54.13 682.36,-26.26 632.16,-15.9"/>
<polygon fill="#63b8ff" stroke="#63b8ff" points="632.66,-12.44 622.17,-13.95 631.32,-19.31 632.66,-12.44"/>
</a>
</g>
</g>
<!-- Node17&#45;&gt;Node9 -->
<g id="edge21_Node000017_Node000009" class="edge">
<title>Node17&#45;&gt;Node9</title>
<g id="a_edge21_Node000017_Node000009"><a xlink:title=" ">
<path fill="none" stroke="#63b8ff" d="M826.47,-247.37C856.78,-236.22 909.71,-216.75 944.04,-204.12"/>
<polygon fill="#63b8ff" stroke="#63b8ff" points="945.45,-207.33 953.63,-200.6 943.03,-200.76 945.45,-207.33"/>
</a>
</g>
</g>
<!-- Node17&#45;&gt;Node10 -->
<g id="edge26_Node000017_Node000010" class="edge">
<title>Node17&#45;&gt;Node10</title>
<g id="a_edge26_Node000017_Node000010"><a xlink:title=" ">
<path fill="none" stroke="#63b8ff" d="M813.37,-247.23C824.04,-237.83 840.64,-222.08 852,-206 877.47,-169.94 898.11,-122.57 909.17,-94.59"/>
<polygon fill="#63b8ff" stroke="#63b8ff" points="912.45,-95.81 912.8,-85.22 905.93,-93.28 912.45,-95.81"/>
</a>
</g>
</g>
<!-- Node18 -->
<g id="Node000018" class="node">
<title>Node18</title>
<g id="a_Node000018"><a xlink:href="../../df/d02/ShuntingElement_8h.html" target="_top" xlink:title="Interface abstraite pour tous les éléments de shuntage ferroviaire.">
<polygon fill="white" stroke="#666666" points="810,-206 652,-206 652,-176 810,-176 810,-206"/>
<text text-anchor="start" x="660" y="-194" font-family="Helvetica,sans-Serif" font-size="10.00">Modules/Elements/Shunting</text>
<text text-anchor="middle" x="731" y="-183" font-family="Helvetica,sans-Serif" font-size="10.00">Elements/ShuntingElement.h</text>
</a>
</g>
</g>
<!-- Node17&#45;&gt;Node18 -->
<g id="edge22_Node000017_Node000018" class="edge">
<title>Node17&#45;&gt;Node18</title>
<g id="a_edge22_Node000017_Node000018"><a xlink:title=" ">
<path fill="none" stroke="#63b8ff" d="M793.29,-247.37C783.44,-238.61 767.8,-224.71 754.66,-213.04"/>
<polygon fill="#63b8ff" stroke="#63b8ff" points="756.68,-210.14 746.88,-206.12 752.03,-215.38 756.68,-210.14"/>
</a>
</g>
</g>
<!-- Node19 -->
<g id="Node000019" class="node">
<title>Node19</title>
<g id="a_Node000019"><a xlink:href="../../d5/d02/Element_8h.html" target="_top" xlink:title="Classe de base abstraite pour tous les éléments interactifs ferroviaires.">
<polygon fill="white" stroke="#666666" points="810.5,-140 651.5,-140 651.5,-121 810.5,-121 810.5,-140"/>
<text text-anchor="middle" x="731" y="-128" font-family="Helvetica,sans-Serif" font-size="10.00">Modules/Elements/Element.h</text>
</a>
</g>
</g>
<!-- Node18&#45;&gt;Node19 -->
<g id="edge23_Node000018_Node000019" class="edge">
<title>Node18&#45;&gt;Node19</title>
<g id="a_edge23_Node000018_Node000019"><a xlink:title=" ">
<path fill="none" stroke="#63b8ff" d="M731,-175.84C731,-168.21 731,-158.7 731,-150.45"/>
<polygon fill="#63b8ff" stroke="#63b8ff" points="734.5,-150.27 731,-140.27 727.5,-150.27 734.5,-150.27"/>
</a>
</g>
</g>
<!-- Node19&#45;&gt;Node7 -->
<g id="edge24_Node000019_Node000007" class="edge">
<title>Node19&#45;&gt;Node7</title>
<g id="a_edge24_Node000019_Node000007"><a xlink:title=" ">
<path fill="none" stroke="#63b8ff" d="M721.58,-120.94C699.69,-101.06 645.12,-51.49 617.14,-26.07"/>
<polygon fill="#63b8ff" stroke="#63b8ff" points="619.44,-23.43 609.69,-19.3 614.74,-28.62 619.44,-23.43"/>
</a>
</g>
</g>
<!-- Node19&#45;&gt;Node10 -->
<g id="edge25_Node000019_Node000010" class="edge">
<title>Node19&#45;&gt;Node10</title>
<g id="a_edge25_Node000019_Node000010"><a xlink:title=" ">
<path fill="none" stroke="#63b8ff" d="M758.19,-120.99C785.57,-112.43 828.59,-98.97 863.1,-88.18"/>
<polygon fill="#63b8ff" stroke="#63b8ff" points="864.54,-91.39 873.04,-85.06 862.45,-84.71 864.54,-91.39"/>
</a>
</g>
</g>
<!-- Node20&#45;&gt;Node17 -->
<g id="edge28_Node000020_Node000017" class="edge">
<title>Node20&#45;&gt;Node17</title>
<g id="a_edge28_Node000020_Node000017"><a xlink:title=" ">
<path fill="none" stroke="#63b8ff" d="M729.69,-307.87C743.41,-298.54 765.5,-283.51 781.85,-272.38"/>
<polygon fill="#63b8ff" stroke="#63b8ff" points="783.96,-275.19 790.26,-266.67 780.02,-269.4 783.96,-275.19"/>
</a>
</g>
</g>
<!-- Node20&#45;&gt;Node21 -->
<g id="edge29_Node000020_Node000021" class="edge">
<title>Node20&#45;&gt;Node21</title>
<g id="a_edge29_Node000020_Node000021"><a xlink:title=" ">
<path fill="none" stroke="#63b8ff" d="M710.51,-307.87C705.03,-300.59 696.96,-289.85 689.7,-280.2"/>
<polygon fill="#63b8ff" stroke="#63b8ff" points="692.42,-278 683.62,-272.11 686.83,-282.21 692.42,-278"/>
</a>
</g>
</g>
<!-- Node21&#45;&gt;Node4 -->
<g id="edge31_Node000021_Node000004" class="edge">
<title>Node21&#45;&gt;Node4</title>
<g id="a_edge31_Node000021_Node000004"><a xlink:title=" ">
<path fill="none" stroke="#63b8ff" d="M650.58,-241.8C633.81,-231.17 610.99,-216.7 594.25,-206.1"/>
<polygon fill="#63b8ff" stroke="#63b8ff" points="595.98,-203.05 585.66,-200.66 592.24,-208.97 595.98,-203.05"/>
</a>
</g>
</g>
<!-- Node21&#45;&gt;Node7 -->
<g id="edge30_Node000021_Node000007" class="edge">
<title>Node21&#45;&gt;Node7</title>
<g id="a_edge30_Node000021_Node000007"><a xlink:title=" ">
<path fill="none" stroke="#63b8ff" d="M662.76,-241.77C656.24,-232.11 648.09,-218.79 643,-206 618.32,-143.93 606.46,-64.87 602.08,-29.31"/>
<polygon fill="#63b8ff" stroke="#63b8ff" points="605.56,-28.9 600.92,-19.37 598.61,-29.71 605.56,-28.9"/>
</a>
</g>
</g>
<!-- Node21&#45;&gt;Node18 -->
<g id="edge32_Node000021_Node000018" class="edge">
<title>Node21&#45;&gt;Node18</title>
<g id="a_edge32_Node000021_Node000018"><a xlink:title=" ">
<path fill="none" stroke="#63b8ff" d="M685.87,-241.8C693.38,-233.51 703.01,-222.89 711.44,-213.59"/>
<polygon fill="#63b8ff" stroke="#63b8ff" points="714.04,-215.92 718.16,-206.16 708.86,-211.22 714.04,-215.92"/>
</a>
</g>
</g>
<!-- Node22 -->
<g id="Node000022" class="node">
<title>Node22</title>
<g id="a_Node000022"><a xlink:href="../../d6/d01/CoordinateLatLon_8h.html" target="_top" xlink:title="Représentation d&#39;une coordonnée géographique WGS&#45;84 (latitude, longitude).">
<polygon fill="white" stroke="#666666" points="375.5,-206 238.5,-206 238.5,-176 375.5,-176 375.5,-206"/>
<text text-anchor="start" x="246.5" y="-194" font-family="Helvetica,sans-Serif" font-size="10.00">Engine/Core/Coordinates</text>
<text text-anchor="middle" x="307" y="-183" font-family="Helvetica,sans-Serif" font-size="10.00">/CoordinateLatLon.h</text>
</a>
</g>
</g>
<!-- Node21&#45;&gt;Node22 -->
<g id="edge33_Node000021_Node000022" class="edge">
<title>Node21&#45;&gt;Node22</title>
<g id="a_edge33_Node000021_Node000022"><a xlink:title=" ">
<path fill="none" stroke="#63b8ff" d="M596.91,-243.02C541,-233.44 462.92,-219.97 385.74,-206.3"/>
<polygon fill="#63b8ff" stroke="#63b8ff" points="386.3,-202.85 375.84,-204.55 385.08,-209.74 386.3,-202.85"/>
</a>
</g>
</g>
<!-- Node23 -->
<g id="Node000023" class="node">
<title>Node23</title>
<g id="a_Node000023"><a xlink:href="../../db/d03/CoordinateXY_8h.html" target="_top" xlink:title="Représentation d&#39;une coordonnée plane en mètres (système métrique UTM).">
<polygon fill="white" stroke="#666666" points="530.5,-206 393.5,-206 393.5,-176 530.5,-176 530.5,-206"/>
<text text-anchor="start" x="401.5" y="-194" font-family="Helvetica,sans-Serif" font-size="10.00">Engine/Core/Coordinates</text>
<text text-anchor="middle" x="462" y="-183" font-family="Helvetica,sans-Serif" font-size="10.00">/CoordinateXY.h</text>
</a>
</g>
</g>
<!-- Node21&#45;&gt;Node23 -->
<g id="edge34_Node000021_Node000023" class="edge">
<title>Node21&#45;&gt;Node23</title>
<g id="a_edge34_Node000021_Node000023"><a xlink:title=" ">
<path fill="none" stroke="#63b8ff" d="M626.7,-241.95C594.68,-232.24 551.9,-219.27 517.97,-208.98"/>
<polygon fill="#63b8ff" stroke="#63b8ff" points="518.78,-205.57 508.2,-206.01 516.75,-212.26 518.78,-205.57"/>
</a>
</g>
</g>
<!-- Node24&#45;&gt;Node17 -->
<g id="edge36_Node000024_Node000017" class="edge">
<title>Node24&#45;&gt;Node17</title>
<g id="a_edge36_Node000024_Node000017"><a xlink:title=" ">
<path fill="none" stroke="#63b8ff" d="M417.67,-311.86C508.75,-303.47 694.24,-285.41 758,-272 761.47,-271.27 765.05,-270.39 768.61,-269.42"/>
<polygon fill="#63b8ff" stroke="#63b8ff" points="769.84,-272.71 778.46,-266.55 767.88,-265.99 769.84,-272.71"/>
</a>
</g>
</g>
<!-- Node24&#45;&gt;Node25 -->
<g id="edge37_Node000024_Node000025" class="edge">
<title>Node24&#45;&gt;Node25</title>
<g id="a_edge37_Node000024_Node000025"><a xlink:title=" ">
<path fill="none" stroke="#63b8ff" d="M355.82,-307.87C346.8,-300.22 333.28,-288.76 321.47,-278.75"/>
<polygon fill="#63b8ff" stroke="#63b8ff" points="323.54,-275.91 313.65,-272.11 319.01,-281.25 323.54,-275.91"/>
</a>
</g>
</g>
<!-- Node25&#45;&gt;Node4 -->
<g id="edge42_Node000025_Node000004" class="edge">
<title>Node25&#45;&gt;Node4</title>
<g id="a_edge42_Node000025_Node000004"><a xlink:title=" ">
<path fill="none" stroke="#63b8ff" d="M373.19,-244.24C421.34,-235.83 484.53,-223 539,-206 540.67,-205.48 542.38,-204.9 544.09,-204.29"/>
<polygon fill="#63b8ff" stroke="#63b8ff" points="545.71,-207.41 553.74,-200.5 543.15,-200.9 545.71,-207.41"/>
</a>
</g>
</g>
<!-- Node25&#45;&gt;Node7 -->
<g id="edge41_Node000025_Node000007" class="edge">
<title>Node25&#45;&gt;Node7</title>
<g id="a_edge41_Node000025_Node000007"><a xlink:title=" ">
<path fill="none" stroke="#63b8ff" d="M220.79,-255.37C134.76,-251.82 12.24,-236.44 57,-176 120.09,-90.82 460.55,-31.93 567.7,-15.3"/>
<polygon fill="#63b8ff" stroke="#63b8ff" points="568.54,-18.71 577.89,-13.73 567.48,-11.79 568.54,-18.71"/>
</a>
</g>
</g>
<!-- Node25&#45;&gt;Node15 -->
<g id="edge40_Node000025_Node000015" class="edge">
<title>Node25&#45;&gt;Node15</title>
<g id="a_edge40_Node000025_Node000015"><a xlink:title=" ">
<path fill="none" stroke="#63b8ff" d="M235.23,-241.89C192.17,-229.02 146.2,-207.22 169,-176 227.52,-95.86 539.23,-35.74 648.84,-16.8"/>
<polygon fill="#63b8ff" stroke="#63b8ff" points="649.54,-20.23 658.8,-15.09 648.36,-13.33 649.54,-20.23"/>
</a>
</g>
</g>
<!-- Node25&#45;&gt;Node18 -->
<g id="edge45_Node000025_Node000018" class="edge">
<title>Node25&#45;&gt;Node18</title>
<g id="a_edge45_Node000025_Node000018"><a xlink:title=" ">
<path fill="none" stroke="#63b8ff" d="M373.09,-244.78C448.05,-233.73 562.51,-216.85 641.72,-205.17"/>
<polygon fill="#63b8ff" stroke="#63b8ff" points="642.31,-208.62 651.69,-203.7 641.28,-201.69 642.31,-208.62"/>
</a>
</g>
</g>
<!-- Node25&#45;&gt;Node22 -->
<g id="edge43_Node000025_Node000022" class="edge">
<title>Node25&#45;&gt;Node22</title>
<g id="a_edge43_Node000025_Node000022"><a xlink:title=" ">
<path fill="none" stroke="#63b8ff" d="M299.22,-241.8C300.4,-234.26 301.88,-224.78 303.23,-216.13"/>
<polygon fill="#63b8ff" stroke="#63b8ff" points="306.7,-216.58 304.79,-206.16 299.78,-215.5 306.7,-216.58"/>
</a>
</g>
</g>
<!-- Node25&#45;&gt;Node23 -->
<g id="edge44_Node000025_Node000023" class="edge">
<title>Node25&#45;&gt;Node23</title>
<g id="a_edge44_Node000025_Node000023"><a xlink:title=" ">
<path fill="none" stroke="#63b8ff" d="M333.21,-241.95C357.71,-232.45 390.27,-219.82 416.52,-209.64"/>
<polygon fill="#63b8ff" stroke="#63b8ff" points="417.82,-212.89 425.87,-206.01 415.29,-206.37 417.82,-212.89"/>
</a>
</g>
</g>
<!-- Node26 -->
<g id="Node000026" class="node">
<title>Node26</title>
<g id="a_Node000026"><a xlink:title=" ">
<polygon fill="#e0e0e0" stroke="#999999" points="220,-200.5 178,-200.5 178,-181.5 220,-181.5 220,-200.5"/>
<text text-anchor="middle" x="199" y="-188.5" font-family="Helvetica,sans-Serif" font-size="10.00">array</text>
</a>
</g>
</g>
<!-- Node25&#45;&gt;Node26 -->
<g id="edge38_Node000025_Node000026" class="edge">
<title>Node25&#45;&gt;Node26</title>
<g id="a_edge38_Node000025_Node000026"><a xlink:title=" ">
<path fill="none" stroke="#63b8ff" d="M275.25,-241.8C259.13,-231.27 237.24,-216.97 221.05,-206.4"/>
<polygon fill="#63b8ff" stroke="#63b8ff" points="222.54,-203.2 212.26,-200.66 218.72,-209.06 222.54,-203.2"/>
</a>
</g>
</g>
<!-- Node27 -->
<g id="Node000027" class="node">
<title>Node27</title>
<g id="a_Node000027"><a xlink:title=" ">
<polygon fill="#e0e0e0" stroke="#999999" points="122,-200.5 66,-200.5 66,-181.5 122,-181.5 122,-200.5"/>
<text text-anchor="middle" x="94" y="-188.5" font-family="Helvetica,sans-Serif" font-size="10.00">optional</text>
</a>
</g>
</g>
<!-- Node25&#45;&gt;Node27 -->
<g id="edge39_Node000025_Node000027" class="edge">
<title>Node25&#45;&gt;Node27</title>
<g id="a_edge39_Node000025_Node000027"><a xlink:title=" ">
<path fill="none" stroke="#63b8ff" d="M250.77,-241.92C218.55,-232.04 174.59,-218.42 136,-206 133.72,-205.26 131.36,-204.5 129,-203.73"/>
<polygon fill="#63b8ff" stroke="#63b8ff" points="129.88,-200.33 119.29,-200.52 127.69,-206.98 129.88,-200.33"/>
</a>
</g>
</g>
</g>
</svg>
