<?xml version="1.0" encoding="UTF-8" standalone="no"?>
<!DOCTYPE svg PUBLIC "-//W3C//DTD SVG 1.1//EN"
 "http://www.w3.org/Graphics/SVG/1.1/DTD/svg11.dtd">
<!-- Generated by graphviz version 2.43.0 (0)
 -->
<!-- Title: SimulateurFerroviaire/Modules/PCC/PCCGraph.h Pages: 1 -->
<svg width="1078pt" height="324pt"
 viewBox="0.00 0.00 1077.50 324.00" xmlns="http://www.w3.org/2000/svg" xmlns:xlink="http://www.w3.org/1999/xlink">
<g id="graph0" class="graph" transform="scale(1 1) rotate(0) translate(4 320)">
<title>SimulateurFerroviaire/Modules/PCC/PCCGraph.h</title>
<!-- Node1 -->
<g id="Node000001" class="node">
<title>Node1</title>
<g id="a_Node000001"><a xlink:title="Conteneur propriétaire du graphe PCC.">
<polygon fill="#999999" stroke="#666666" points="713,-316 569,-316 569,-286 713,-286 713,-316"/>
<text text-anchor="start" x="577" y="-304" font-family="Helvetica,sans-Serif" font-size="10.00">SimulateurFerroviaire</text>
<text text-anchor="middle" x="641" y="-293" font-family="Helvetica,sans-Serif" font-size="10.00">/Modules/PCC/PCCGraph.h</text>
</a>
</g>
</g>
<!-- Node2 -->
<g id="Node000002" class="node">
<title>Node2</title>
<g id="a_Node000002"><a xlink:href="../../d5/d00/PCCPanel_8h.html" target="_top" xlink:title="Panneau PCC superposé togglable, affiché par&#45;dessus la carte Leaflet.">
<polygon fill="white" stroke="#666666" points="392,-250 268,-250 268,-209 392,-209 392,-250"/>
<text text-anchor="start" x="276" y="-238" font-family="Helvetica,sans-Serif" font-size="10.00">SimulateurFerroviaire</text>
<text text-anchor="start" x="276" y="-227" font-family="Helvetica,sans-Serif" font-size="10.00">/Engine/HMI/PCCPanel</text>
<text text-anchor="middle" x="330" y="-216" font-family="Helvetica,sans-Serif" font-size="10.00">/PCCPanel.h</text>
</a>
</g>
</g>
<!-- Node1&#45;&gt;Node2 -->
<g id="edge1_Node000001_Node000002" class="edge">
<title>Node1&#45;&gt;Node2</title>
<g id="a_edge1_Node000001_Node000002"><a xlink:title=" ">
<path fill="none" stroke="#63b8ff" d="M558.78,-284.2C512.31,-274.93 453.23,-262.6 401,-250 398.14,-249.31 395.22,-248.59 392.28,-247.84"/>
<polygon fill="#63b8ff" stroke="#63b8ff" points="558.31,-287.67 568.8,-286.18 559.67,-280.8 558.31,-287.67"/>
</a>
</g>
</g>
<!-- Node9 -->
<g id="Node000009" class="node">
<title>Node9</title>
<g id="a_Node000009"><a xlink:href="../../d8/d02/TCORenderer_8h.html" target="_top" xlink:title="Renderer GDI du schéma TCO — style SNCF, blocs fixes.">
<polygon fill="white" stroke="#666666" points="534,-250 410,-250 410,-209 534,-209 534,-250"/>
<text text-anchor="start" x="418" y="-238" font-family="Helvetica,sans-Serif" font-size="10.00">SimulateurFerroviaire</text>
<text text-anchor="start" x="418" y="-227" font-family="Helvetica,sans-Serif" font-size="10.00">/Engine/HMI/PCCPanel</text>
<text text-anchor="middle" x="472" y="-216" font-family="Helvetica,sans-Serif" font-size="10.00">/TCORenderer.h</text>
</a>
</g>
</g>
<!-- Node1&#45;&gt;Node9 -->
<g id="edge8_Node000001_Node000009" class="edge">
<title>Node1&#45;&gt;Node9</title>
<g id="a_edge8_Node000001_Node000009"><a xlink:title=" ">
<path fill="none" stroke="#63b8ff" d="M597.31,-282.03C573.5,-272.24 543.99,-260.11 519.6,-250.07"/>
<polygon fill="#63b8ff" stroke="#63b8ff" points="596.22,-285.37 606.8,-285.94 598.88,-278.9 596.22,-285.37"/>
</a>
</g>
</g>
<!-- Node11 -->
<g id="Node000011" class="node">
<title>Node11</title>
<g id="a_Node000011"><a xlink:href="../../d9/d00/PCCGraph_8cpp.html" target="_top" xlink:title="Implémentation du conteneur propriétaire du graphe PCC.">
<polygon fill="white" stroke="#666666" points="1069.5,-244.5 914.5,-244.5 914.5,-214.5 1069.5,-214.5 1069.5,-244.5"/>
<text text-anchor="start" x="922.5" y="-232.5" font-family="Helvetica,sans-Serif" font-size="10.00">SimulateurFerroviaire</text>
<text text-anchor="middle" x="992" y="-221.5" font-family="Helvetica,sans-Serif" font-size="10.00">/Modules/PCC/PCCGraph.cpp</text>
</a>
</g>
</g>
<!-- Node1&#45;&gt;Node11 -->
<g id="edge11_Node000001_Node000011" class="edge">
<title>Node1&#45;&gt;Node11</title>
<g id="a_edge11_Node000001_Node000011"><a xlink:title=" ">
<path fill="none" stroke="#63b8ff" d="M722.99,-285.2C775.19,-275.6 844.17,-262.57 905,-250 913.19,-248.31 921.79,-246.46 930.27,-244.6"/>
<polygon fill="#63b8ff" stroke="#63b8ff" points="722.32,-281.76 713.12,-287.01 723.59,-288.65 722.32,-281.76"/>
</a>
</g>
</g>
<!-- Node12 -->
<g id="Node000012" class="node">
<title>Node12</title>
<g id="a_Node000012"><a xlink:href="../../db/d02/PCCGraphBuilder_8h.html" target="_top" xlink:title="Constructeur du graphe PCC depuis TopologyRepository.">
<polygon fill="white" stroke="#666666" points="730,-244.5 552,-244.5 552,-214.5 730,-214.5 730,-244.5"/>
<text text-anchor="start" x="560" y="-232.5" font-family="Helvetica,sans-Serif" font-size="10.00">SimulateurFerroviaire</text>
<text text-anchor="middle" x="641" y="-221.5" font-family="Helvetica,sans-Serif" font-size="10.00">/Modules/PCC/PCCGraphBuilder.h</text>
</a>
</g>
</g>
<!-- Node1&#45;&gt;Node12 -->
<g id="edge12_Node000001_Node000012" class="edge">
<title>Node1&#45;&gt;Node12</title>
<g id="a_edge12_Node000001_Node000012"><a xlink:title=" ">
<path fill="none" stroke="#63b8ff" d="M641,-275.75C641,-265.31 641,-253.49 641,-244.54"/>
<polygon fill="#63b8ff" stroke="#63b8ff" points="637.5,-275.94 641,-285.94 644.5,-275.94 637.5,-275.94"/>
</a>
</g>
</g>
<!-- Node14 -->
<g id="Node000014" class="node">
<title>Node14</title>
<g id="a_Node000014"><a xlink:href="../../d6/d01/PCCLayout_8h.html" target="_top" xlink:title="Calcul des positions logiques X/Y du graphe PCC par parcours BFS.">
<polygon fill="white" stroke="#666666" points="896,-244.5 748,-244.5 748,-214.5 896,-214.5 896,-244.5"/>
<text text-anchor="start" x="756" y="-232.5" font-family="Helvetica,sans-Serif" font-size="10.00">SimulateurFerroviaire</text>
<text text-anchor="middle" x="822" y="-221.5" font-family="Helvetica,sans-Serif" font-size="10.00">/Modules/PCC/PCCLayout.h</text>
</a>
</g>
</g>
<!-- Node1&#45;&gt;Node14 -->
<g id="edge15_Node000001_Node000014" class="edge">
<title>Node1&#45;&gt;Node14</title>
<g id="a_edge15_Node000001_Node000014"><a xlink:title=" ">
<path fill="none" stroke="#63b8ff" d="M687.19,-282.26C717.69,-270.55 757.1,-255.42 785.43,-244.54"/>
<polygon fill="#63b8ff" stroke="#63b8ff" points="685.71,-279.08 677.63,-285.94 688.22,-285.62 685.71,-279.08"/>
</a>
</g>
</g>
<!-- Node3 -->
<g id="Node000003" class="node">
<title>Node3</title>
<g id="a_Node000003"><a xlink:href="../../da/d00/MainWindow_8h.html" target="_top" xlink:title="Déclaration de la fenêtre principale de l&#39;application.">
<polygon fill="white" stroke="#666666" points="321.5,-167.5 172.5,-167.5 172.5,-137.5 321.5,-137.5 321.5,-167.5"/>
<text text-anchor="start" x="180.5" y="-155.5" font-family="Helvetica,sans-Serif" font-size="10.00">SimulateurFerroviaire</text>
<text text-anchor="middle" x="247" y="-144.5" font-family="Helvetica,sans-Serif" font-size="10.00">/Engine/HMI/MainWindow.h</text>
</a>
</g>
</g>
<!-- Node2&#45;&gt;Node3 -->
<g id="edge2_Node000002_Node000003" class="edge">
<title>Node2&#45;&gt;Node3</title>
<g id="a_edge2_Node000002_Node000003"><a xlink:title=" ">
<path fill="none" stroke="#63b8ff" d="M300.5,-201.84C287.72,-190.3 273.29,-177.25 262.63,-167.63"/>
<polygon fill="#63b8ff" stroke="#63b8ff" points="298.43,-204.69 308.19,-208.79 303.12,-199.49 298.43,-204.69"/>
</a>
</g>
</g>
<!-- Node8 -->
<g id="Node000008" class="node">
<title>Node8</title>
<g id="a_Node000008"><a xlink:href="../../d4/d03/PCCPanel_8cpp.html" target="_top" xlink:title="Implémentation du panneau PCC superposé togglable.">
<polygon fill="white" stroke="#666666" points="605,-173 481,-173 481,-132 605,-132 605,-173"/>
<text text-anchor="start" x="489" y="-161" font-family="Helvetica,sans-Serif" font-size="10.00">SimulateurFerroviaire</text>
<text text-anchor="start" x="489" y="-150" font-family="Helvetica,sans-Serif" font-size="10.00">/Engine/HMI/PCCPanel</text>
<text text-anchor="middle" x="543" y="-139" font-family="Helvetica,sans-Serif" font-size="10.00">/PCCPanel.cpp</text>
</a>
</g>
</g>
<!-- Node2&#45;&gt;Node8 -->
<g id="edge7_Node000002_Node000008" class="edge">
<title>Node2&#45;&gt;Node8</title>
<g id="a_edge7_Node000002_Node000008"><a xlink:title=" ">
<path fill="none" stroke="#63b8ff" d="M395.21,-205.54C424.72,-195.15 459.25,-182.99 487.5,-173.04"/>
<polygon fill="#63b8ff" stroke="#63b8ff" points="393.68,-202.37 385.41,-208.99 396,-208.97 393.68,-202.37"/>
</a>
</g>
</g>
<!-- Node4 -->
<g id="Node000004" class="node">
<title>Node4</title>
<g id="a_Node000004"><a xlink:href="../../d4/d00/Application_8h.html" target="_top" xlink:title="Gestion du cycle de vie de l&#39;application Win32.">
<polygon fill="white" stroke="#666666" points="234.5,-96 89.5,-96 89.5,-66 234.5,-66 234.5,-96"/>
<text text-anchor="start" x="97.5" y="-84" font-family="Helvetica,sans-Serif" font-size="10.00">SimulateurFerroviaire</text>
<text text-anchor="middle" x="162" y="-73" font-family="Helvetica,sans-Serif" font-size="10.00">/Engine/Core/Application.h</text>
</a>
</g>
</g>
<!-- Node3&#45;&gt;Node4 -->
<g id="edge3_Node000003_Node000004" class="edge">
<title>Node3&#45;&gt;Node4</title>
<g id="a_edge3_Node000003_Node000004"><a xlink:title=" ">
<path fill="none" stroke="#63b8ff" d="M221.69,-130.81C207.98,-119.59 191.38,-106.02 179.18,-96.04"/>
<polygon fill="#63b8ff" stroke="#63b8ff" points="219.84,-133.82 229.8,-137.44 224.27,-128.4 219.84,-133.82"/>
</a>
</g>
</g>
<!-- Node7 -->
<g id="Node000007" class="node">
<title>Node7</title>
<g id="a_Node000007"><a xlink:href="../../d3/d03/MainWindow_8cpp.html" target="_top" xlink:title="Implémentation de la fenêtre principale.">
<polygon fill="white" stroke="#666666" points="413.5,-96 252.5,-96 252.5,-66 413.5,-66 413.5,-96"/>
<text text-anchor="start" x="260.5" y="-84" font-family="Helvetica,sans-Serif" font-size="10.00">SimulateurFerroviaire</text>
<text text-anchor="middle" x="333" y="-73" font-family="Helvetica,sans-Serif" font-size="10.00">/Engine/HMI/MainWindow.cpp</text>
</a>
</g>
</g>
<!-- Node3&#45;&gt;Node7 -->
<g id="edge6_Node000003_Node000007" class="edge">
<title>Node3&#45;&gt;Node7</title>
<g id="a_edge6_Node000003_Node000007"><a xlink:title=" ">
<path fill="none" stroke="#63b8ff" d="M272.21,-131.13C286.17,-119.85 303.16,-106.12 315.62,-96.04"/>
<polygon fill="#63b8ff" stroke="#63b8ff" points="269.98,-128.43 264.4,-137.44 274.38,-133.87 269.98,-128.43"/>
</a>
</g>
</g>
<!-- Node5 -->
<g id="Node000005" class="node">
<title>Node5</title>
<g id="a_Node000005"><a xlink:href="../../d2/d02/Application_8cpp.html" target="_top" xlink:title="Implémentation du cycle de vie de l&#39;application Win32.">
<polygon fill="white" stroke="#666666" points="156,-30 0,-30 0,0 156,0 156,-30"/>
<text text-anchor="start" x="8" y="-18" font-family="Helvetica,sans-Serif" font-size="10.00">SimulateurFerroviaire</text>
<text text-anchor="middle" x="78" y="-7" font-family="Helvetica,sans-Serif" font-size="10.00">/Engine/Core/Application.cpp</text>
</a>
</g>
</g>
<!-- Node4&#45;&gt;Node5 -->
<g id="edge4_Node000004_Node000005" class="edge">
<title>Node4&#45;&gt;Node5</title>
<g id="a_edge4_Node000004_Node000005"><a xlink:title=" ">
<path fill="none" stroke="#63b8ff" d="M135.06,-59.48C122.51,-49.91 107.89,-38.77 96.59,-30.16"/>
<polygon fill="#63b8ff" stroke="#63b8ff" points="133.28,-62.52 143.36,-65.8 137.52,-56.95 133.28,-62.52"/>
</a>
</g>
</g>
<!-- Node6 -->
<g id="Node000006" class="node">
<title>Node6</title>
<g id="a_Node000006"><a xlink:href="../../db/d00/SimulateurFerroviaire_8cpp.html" target="_top" xlink:title="Point d&#39;entrée unique de l&#39;application Win32.">
<polygon fill="white" stroke="#666666" points="320,-30 174,-30 174,0 320,0 320,-30"/>
<text text-anchor="start" x="182" y="-18" font-family="Helvetica,sans-Serif" font-size="10.00">SimulateurFerroviaire</text>
<text text-anchor="middle" x="247" y="-7" font-family="Helvetica,sans-Serif" font-size="10.00">/SimulateurFerroviaire.cpp</text>
</a>
</g>
</g>
<!-- Node4&#45;&gt;Node6 -->
<g id="edge5_Node000004_Node000006" class="edge">
<title>Node4&#45;&gt;Node6</title>
<g id="a_edge5_Node000004_Node000006"><a xlink:title=" ">
<path fill="none" stroke="#63b8ff" d="M188.89,-59.75C201.67,-50.13 216.64,-38.86 228.19,-30.16"/>
<polygon fill="#63b8ff" stroke="#63b8ff" points="186.75,-56.99 180.86,-65.8 190.96,-62.58 186.75,-56.99"/>
</a>
</g>
</g>
<!-- Node9&#45;&gt;Node8 -->
<g id="edge9_Node000009_Node000008" class="edge">
<title>Node9&#45;&gt;Node8</title>
<g id="a_edge9_Node000009_Node000008"><a xlink:title=" ">
<path fill="none" stroke="#63b8ff" d="M497.55,-201.51C506.45,-192.11 516.25,-181.76 524.47,-173.07"/>
<polygon fill="#63b8ff" stroke="#63b8ff" points="494.99,-199.13 490.65,-208.79 500.07,-203.94 494.99,-199.13"/>
</a>
</g>
</g>
<!-- Node10 -->
<g id="Node000010" class="node">
<title>Node10</title>
<g id="a_Node000010"><a xlink:href="../../d4/d02/TCORenderer_8cpp.html" target="_top" xlink:title="Renderer GDI TCO — style SNCF, blocs fixes.">
<polygon fill="white" stroke="#666666" points="463,-173 339,-173 339,-132 463,-132 463,-173"/>
<text text-anchor="start" x="347" y="-161" font-family="Helvetica,sans-Serif" font-size="10.00">SimulateurFerroviaire</text>
<text text-anchor="start" x="347" y="-150" font-family="Helvetica,sans-Serif" font-size="10.00">/Engine/HMI/PCCPanel</text>
<text text-anchor="middle" x="401" y="-139" font-family="Helvetica,sans-Serif" font-size="10.00">/TCORenderer.cpp</text>
</a>
</g>
</g>
<!-- Node9&#45;&gt;Node10 -->
<g id="edge10_Node000009_Node000010" class="edge">
<title>Node9&#45;&gt;Node10</title>
<g id="a_edge10_Node000009_Node000010"><a xlink:title=" ">
<path fill="none" stroke="#63b8ff" d="M446.45,-201.51C437.55,-192.11 427.75,-181.76 419.53,-173.07"/>
<polygon fill="#63b8ff" stroke="#63b8ff" points="443.93,-203.94 453.35,-208.79 449.01,-199.13 443.93,-203.94"/>
</a>
</g>
</g>
<!-- Node12&#45;&gt;Node8 -->
<g id="edge13_Node000012_Node000008" class="edge">
<title>Node12&#45;&gt;Node8</title>
<g id="a_edge13_Node000012_Node000008"><a xlink:title=" ">
<path fill="none" stroke="#63b8ff" d="M614.61,-208.31C600.38,-197.41 582.88,-184.02 568.75,-173.2"/>
<polygon fill="#63b8ff" stroke="#63b8ff" points="612.5,-211.09 622.57,-214.39 616.75,-205.54 612.5,-211.09"/>
</a>
</g>
</g>
<!-- Node13 -->
<g id="Node000013" class="node">
<title>Node13</title>
<g id="a_Node000013"><a xlink:href="../../d0/d01/PCCGraphBuilder_8cpp.html" target="_top" xlink:title="Implémentation du constructeur du graphe PCC.">
<polygon fill="white" stroke="#666666" points="812.5,-167.5 623.5,-167.5 623.5,-137.5 812.5,-137.5 812.5,-167.5"/>
<text text-anchor="start" x="631.5" y="-155.5" font-family="Helvetica,sans-Serif" font-size="10.00">SimulateurFerroviaire</text>
<text text-anchor="middle" x="718" y="-144.5" font-family="Helvetica,sans-Serif" font-size="10.00">/Modules/PCC/PCCGraphBuilder.cpp</text>
</a>
</g>
</g>
<!-- Node12&#45;&gt;Node13 -->
<g id="edge14_Node000012_Node000013" class="edge">
<title>Node12&#45;&gt;Node13</title>
<g id="a_edge14_Node000012_Node000013"><a xlink:title=" ">
<path fill="none" stroke="#63b8ff" d="M662.75,-207.32C675.82,-194.58 692.09,-178.74 703.58,-167.54"/>
<polygon fill="#63b8ff" stroke="#63b8ff" points="660.2,-204.91 655.48,-214.39 665.09,-209.92 660.2,-204.91"/>
</a>
</g>
</g>
<!-- Node14&#45;&gt;Node8 -->
<g id="edge16_Node000014_Node000008" class="edge">
<title>Node14&#45;&gt;Node8</title>
<g id="a_edge16_Node000014_Node000008"><a xlink:title=" ">
<path fill="none" stroke="#63b8ff" d="M759.05,-211.83C717.78,-200.87 662.66,-186.17 614,-173 611.16,-172.23 608.26,-171.44 605.33,-170.65"/>
<polygon fill="#63b8ff" stroke="#63b8ff" points="758.4,-215.28 768.97,-214.46 760.2,-208.51 758.4,-215.28"/>
</a>
</g>
</g>
<!-- Node15 -->
<g id="Node000015" class="node">
<title>Node15</title>
<g id="a_Node000015"><a xlink:href="../../d3/d02/PCCLayout_8cpp.html" target="_top" xlink:title="Implémentation du calculateur de positions logiques PCC.">
<polygon fill="white" stroke="#666666" points="989.5,-167.5 830.5,-167.5 830.5,-137.5 989.5,-137.5 989.5,-167.5"/>
<text text-anchor="start" x="838.5" y="-155.5" font-family="Helvetica,sans-Serif" font-size="10.00">SimulateurFerroviaire</text>
<text text-anchor="middle" x="910" y="-144.5" font-family="Helvetica,sans-Serif" font-size="10.00">/Modules/PCC/PCCLayout.cpp</text>
</a>
</g>
</g>
<!-- Node14&#45;&gt;Node15 -->
<g id="edge17_Node000014_Node000015" class="edge">
<title>Node14&#45;&gt;Node15</title>
<g id="a_edge17_Node000014_Node000015"><a xlink:title=" ">
<path fill="none" stroke="#63b8ff" d="M846.44,-207.67C861.45,-194.88 880.27,-178.84 893.52,-167.54"/>
<polygon fill="#63b8ff" stroke="#63b8ff" points="843.89,-205.24 838.55,-214.39 848.43,-210.57 843.89,-205.24"/>
</a>
</g>
</g>
</g>
</svg>
