<?xml version="1.0" encoding="UTF-8" standalone="no"?>
<!DOCTYPE svg PUBLIC "-//W3C//DTD SVG 1.1//EN"
 "http://www.w3.org/Graphics/SVG/1.1/DTD/svg11.dtd">
<!-- Generated by graphviz version 2.43.0 (0)
 -->
<!-- Title: IntersectionPoint Pages: 1 -->
<svg width="210pt" height="243pt"
 viewBox="0.00 0.00 209.50 243.00" xmlns="http://www.w3.org/2000/svg" xmlns:xlink="http://www.w3.org/1999/xlink">
<g id="graph0" class="graph" transform="scale(1 1) rotate(0) translate(4 239)">
<title>IntersectionPoint</title>
<!-- Node1 -->
<g id="Node000001" class="node">
<title>Node1</title>
<g id="a_Node000001"><a xlink:title="Point d&#39;intersection entre deux segments, avec paramètres de position.">
<polygon fill="#999999" stroke="transparent" points="149,-64 56,-64 56,0 149,0 149,-64"/>
<text text-anchor="start" x="61.5" y="-52" font-family="Helvetica,sans-Serif" font-size="10.00">IntersectionPoint</text>
<text text-anchor="start" x="76.5" y="-37" font-family="Helvetica,sans-Serif" font-size="10.00">+</text>
<text text-anchor="start" x="105.5" y="-37" font-family="Helvetica,sans-Serif" font-size="10.00">t</text>
<text text-anchor="start" x="76.5" y="-22" font-family="Helvetica,sans-Serif" font-size="10.00">+</text>
<text text-anchor="start" x="105.5" y="-22" font-family="Helvetica,sans-Serif" font-size="10.00">u</text>
<text text-anchor="start" x="101" y="-7" font-family="Helvetica,sans-Serif" font-size="10.00"> </text>
<polygon fill="#666666" stroke="#666666" points="56.5,-47 56.5,-47 149.5,-47 149.5,-47 56.5,-47"/>
<polygon fill="#666666" stroke="#666666" points="56.5,-17 56.5,-17 103.5,-17 103.5,-17 56.5,-17"/>
<polygon fill="#666666" stroke="#666666" points="103.5,-17 103.5,-17 149.5,-17 149.5,-17 103.5,-17"/>
<polygon fill="none" stroke="#666666" points="56,0 56,-64 149,-64 149,0 56,0"/>
</a>
</g>
</g>
<!-- Node2 -->
<g id="Node000002" class="node">
<title>Node2</title>
<g id="a_Node000002"><a xlink:href="../../df/d01/classCoordinateXY.html" target="_top" xlink:title="Coordonnée plane en mètres dans un système métrique (UTM ou similaire).">
<polygon fill="white" stroke="transparent" points="95,-235 0,-235 0,-111 95,-111 95,-235"/>
<text text-anchor="start" x="14.5" y="-223" font-family="Helvetica,sans-Serif" font-size="10.00">CoordinateXY</text>
<text text-anchor="start" x="4.5" y="-208" font-family="Helvetica,sans-Serif" font-size="10.00">+</text>
<text text-anchor="start" x="17.5" y="-208" font-family="Helvetica,sans-Serif" font-size="10.00">x</text>
<text text-anchor="start" x="4.5" y="-193" font-family="Helvetica,sans-Serif" font-size="10.00">+</text>
<text text-anchor="start" x="17.5" y="-193" font-family="Helvetica,sans-Serif" font-size="10.00">y</text>
<text text-anchor="start" x="4.5" y="-178" font-family="Helvetica,sans-Serif" font-size="10.00">+</text>
<text text-anchor="start" x="17.5" y="-178" font-family="Helvetica,sans-Serif" font-size="10.00">CoordinateXY()</text>
<text text-anchor="start" x="4.5" y="-163" font-family="Helvetica,sans-Serif" font-size="10.00">+</text>
<text text-anchor="start" x="17.5" y="-163" font-family="Helvetica,sans-Serif" font-size="10.00">CoordinateXY()</text>
<text text-anchor="start" x="4.5" y="-148" font-family="Helvetica,sans-Serif" font-size="10.00">+</text>
<text text-anchor="start" x="17.5" y="-148" font-family="Helvetica,sans-Serif" font-size="10.00">operator==()</text>
<text text-anchor="start" x="4.5" y="-133" font-family="Helvetica,sans-Serif" font-size="10.00">+</text>
<text text-anchor="start" x="17.5" y="-133" font-family="Helvetica,sans-Serif" font-size="10.00">operator!=()</text>
<text text-anchor="start" x="4.5" y="-118" font-family="Helvetica,sans-Serif" font-size="10.00">+</text>
<text text-anchor="start" x="17.5" y="-118" font-family="Helvetica,sans-Serif" font-size="10.00">toString()</text>
<polygon fill="#666666" stroke="#666666" points="0.5,-218 0.5,-218 95.5,-218 95.5,-218 0.5,-218"/>
<polygon fill="#666666" stroke="#666666" points="0.5,-188 0.5,-188 15.5,-188 15.5,-188 0.5,-188"/>
<polygon fill="#666666" stroke="#666666" points="15.5,-188 15.5,-188 95.5,-188 95.5,-188 15.5,-188"/>
<polygon fill="none" stroke="#666666" points="0,-111 0,-235 95,-235 95,-111 0,-111"/>
</a>
</g>
</g>
<!-- Node2&#45;&gt;Node1 -->
<g id="edge1_Node000001_Node000002" class="edge">
<title>Node2&#45;&gt;Node1</title>
<g id="a_edge1_Node000001_Node000002"><a xlink:title=" ">
<path fill="none" stroke="#63b8ff" d="M71.78,-110.63C76.43,-98.88 81.21,-86.81 85.56,-75.8"/>
<polygon fill="none" stroke="#63b8ff" points="85.69,-75.49 84.17,-68.44 90.1,-64.34 91.61,-71.39 85.69,-75.49"/>
</a>
</g>
<text text-anchor="middle" x="101" y="-85" font-family="Helvetica,sans-Serif" font-size="10.00" fill="grey"> +point</text>
</g>
<!-- Node3 -->
<g id="Node000003" class="node">
<title>Node3</title>
<g id="a_Node000003"><a xlink:href="../../d0/d03/structSegmentId.html" target="_top" xlink:title="Identifiant unique d&#39;un segment dans le RawNetwork.">
<polygon fill="white" stroke="transparent" points="201.5,-205 113.5,-205 113.5,-141 201.5,-141 201.5,-205"/>
<text text-anchor="start" x="131" y="-193" font-family="Helvetica,sans-Serif" font-size="10.00">SegmentId</text>
<text text-anchor="start" x="117.5" y="-178" font-family="Helvetica,sans-Serif" font-size="10.00">+</text>
<text text-anchor="start" x="130.5" y="-178" font-family="Helvetica,sans-Serif" font-size="10.00">polylineIndex</text>
<text text-anchor="start" x="117.5" y="-163" font-family="Helvetica,sans-Serif" font-size="10.00">+</text>
<text text-anchor="start" x="130.5" y="-163" font-family="Helvetica,sans-Serif" font-size="10.00">pointIndex</text>
<text text-anchor="start" x="117.5" y="-148" font-family="Helvetica,sans-Serif" font-size="10.00">+</text>
<text text-anchor="start" x="130.5" y="-148" font-family="Helvetica,sans-Serif" font-size="10.00">operator==()</text>
<polygon fill="#666666" stroke="#666666" points="113.5,-188 113.5,-188 201.5,-188 201.5,-188 113.5,-188"/>
<polygon fill="#666666" stroke="#666666" points="113.5,-158 113.5,-158 128.5,-158 128.5,-158 113.5,-158"/>
<polygon fill="#666666" stroke="#666666" points="128.5,-158 128.5,-158 201.5,-158 201.5,-158 128.5,-158"/>
<polygon fill="none" stroke="#666666" points="113.5,-141 113.5,-205 201.5,-205 201.5,-141 113.5,-141"/>
</a>
</g>
</g>
<!-- Node3&#45;&gt;Node1 -->
<g id="edge2_Node000001_Node000003" class="edge">
<title>Node3&#45;&gt;Node1</title>
<g id="a_edge2_Node000001_Node000003"><a xlink:title=" ">
<path fill="none" stroke="#63b8ff" d="M146.03,-140.63C139.59,-123.28 131.3,-101.37 123.5,-82 122.62,-79.81 121.7,-77.57 120.77,-75.31"/>
<polygon fill="none" stroke="#63b8ff" points="120.68,-75.09 114.67,-71.1 116.04,-64.02 122.05,-68.01 120.68,-75.09"/>
</a>
</g>
<text text-anchor="middle" x="145" y="-85" font-family="Helvetica,sans-Serif" font-size="10.00" fill="grey"> +other</text>
</g>
</g>
</svg>
