<?xml version="1.0" encoding="UTF-8" standalone="no"?>
<!DOCTYPE svg PUBLIC "-//W3C//DTD SVG 1.1//EN"
 "http://www.w3.org/Graphics/SVG/1.1/DTD/svg11.dtd">
<!-- Generated by graphviz version 2.43.0 (0)
 -->
<!-- Title: SimulateurFerroviaire/Modules/GeoParser/Graph/TopologyGraph.h Pages: 1 -->
<svg width="788pt" height="170pt"
 viewBox="0.00 0.00 787.50 170.00" xmlns="http://www.w3.org/2000/svg" xmlns:xlink="http://www.w3.org/1999/xlink">
<g id="graph0" class="graph" transform="scale(1 1) rotate(0) translate(4 166)">
<title>SimulateurFerroviaire/Modules/GeoParser/Graph/TopologyGraph.h</title>
<!-- Node1 -->
<g id="Node000001" class="node">
<title>Node1</title>
<g id="a_Node000001"><a xlink:title="Graphe planaire non&#45;orienté de nœuds et d&#39;arêtes ferroviaires accrochés.">
<polygon fill="#999999" stroke="#666666" points="384,-162 238,-162 238,-121 384,-121 384,-162"/>
<text text-anchor="start" x="246" y="-150" font-family="Helvetica,sans-Serif" font-size="10.00">SimulateurFerroviaire</text>
<text text-anchor="start" x="246" y="-139" font-family="Helvetica,sans-Serif" font-size="10.00">/Modules/GeoParser/Graph</text>
<text text-anchor="middle" x="311" y="-128" font-family="Helvetica,sans-Serif" font-size="10.00">/TopologyGraph.h</text>
</a>
</g>
</g>
<!-- Node2 -->
<g id="Node000002" class="node">
<title>Node2</title>
<g id="a_Node000002"><a xlink:title=" ">
<polygon fill="#e0e0e0" stroke="#999999" points="50,-85 0,-85 0,-66 50,-66 50,-85"/>
<text text-anchor="middle" x="25" y="-73" font-family="Helvetica,sans-Serif" font-size="10.00">cstdint</text>
</a>
</g>
</g>
<!-- Node1&#45;&gt;Node2 -->
<g id="edge1_Node000001_Node000002" class="edge">
<title>Node1&#45;&gt;Node2</title>
<g id="a_edge1_Node000001_Node000002"><a xlink:title=" ">
<path fill="none" stroke="#63b8ff" d="M237.82,-124.95C189.92,-114.64 125.71,-100.58 60.31,-85.26"/>
<polygon fill="#63b8ff" stroke="#63b8ff" points="60.77,-81.77 50.23,-82.89 59.17,-88.59 60.77,-81.77"/>
</a>
</g>
</g>
<!-- Node3 -->
<g id="Node000003" class="node">
<title>Node3</title>
<g id="a_Node000003"><a xlink:title=" ">
<polygon fill="#e0e0e0" stroke="#999999" points="133.5,-85 68.5,-85 68.5,-66 133.5,-66 133.5,-85"/>
<text text-anchor="middle" x="101" y="-73" font-family="Helvetica,sans-Serif" font-size="10.00">functional</text>
</a>
</g>
</g>
<!-- Node1&#45;&gt;Node3 -->
<g id="edge2_Node000001_Node000003" class="edge">
<title>Node1&#45;&gt;Node3</title>
<g id="a_edge2_Node000001_Node000003"><a xlink:title=" ">
<path fill="none" stroke="#63b8ff" d="M246.85,-120.95C211.42,-110.15 168.62,-97.11 138.59,-87.95"/>
<polygon fill="#63b8ff" stroke="#63b8ff" points="139.5,-84.58 128.92,-85.01 137.46,-91.27 139.5,-84.58"/>
</a>
</g>
</g>
<!-- Node4 -->
<g id="Node000004" class="node">
<title>Node4</title>
<g id="a_Node000004"><a xlink:title=" ">
<polygon fill="#e0e0e0" stroke="#999999" points="208,-85 152,-85 152,-66 208,-66 208,-85"/>
<text text-anchor="middle" x="180" y="-73" font-family="Helvetica,sans-Serif" font-size="10.00">optional</text>
</a>
</g>
</g>
<!-- Node1&#45;&gt;Node4 -->
<g id="edge3_Node000001_Node000004" class="edge">
<title>Node1&#45;&gt;Node4</title>
<g id="a_edge3_Node000001_Node000004"><a xlink:title=" ">
<path fill="none" stroke="#63b8ff" d="M270.98,-120.95C250.1,-110.75 225.11,-98.54 206.61,-89.5"/>
<polygon fill="#63b8ff" stroke="#63b8ff" points="208.11,-86.34 197.59,-85.09 205.04,-92.63 208.11,-86.34"/>
</a>
</g>
</g>
<!-- Node5 -->
<g id="Node000005" class="node">
<title>Node5</title>
<g id="a_Node000005"><a xlink:title=" ">
<polygon fill="#e0e0e0" stroke="#999999" points="234,-24.5 190,-24.5 190,-5.5 234,-5.5 234,-24.5"/>
<text text-anchor="middle" x="212" y="-12.5" font-family="Helvetica,sans-Serif" font-size="10.00">string</text>
</a>
</g>
</g>
<!-- Node1&#45;&gt;Node5 -->
<g id="edge4_Node000001_Node000005" class="edge">
<title>Node1&#45;&gt;Node5</title>
<g id="a_edge4_Node000001_Node000005"><a xlink:title=" ">
<path fill="none" stroke="#63b8ff" d="M295.31,-120.77C275.96,-96.44 243.41,-55.5 225.25,-32.67"/>
<polygon fill="#63b8ff" stroke="#63b8ff" points="227.81,-30.26 218.85,-24.61 222.33,-34.62 227.81,-30.26"/>
</a>
</g>
</g>
<!-- Node6 -->
<g id="Node000006" class="node">
<title>Node6</title>
<g id="a_Node000006"><a xlink:title=" ">
<polygon fill="#e0e0e0" stroke="#999999" points="545.5,-85 452.5,-85 452.5,-66 545.5,-66 545.5,-85"/>
<text text-anchor="middle" x="499" y="-73" font-family="Helvetica,sans-Serif" font-size="10.00">unordered_map</text>
</a>
</g>
</g>
<!-- Node1&#45;&gt;Node6 -->
<g id="edge5_Node000001_Node000006" class="edge">
<title>Node1&#45;&gt;Node6</title>
<g id="a_edge5_Node000001_Node000006"><a xlink:title=" ">
<path fill="none" stroke="#63b8ff" d="M368.43,-120.95C399.64,-110.32 437.23,-97.53 464.05,-88.4"/>
<polygon fill="#63b8ff" stroke="#63b8ff" points="465.42,-91.63 473.76,-85.09 463.17,-85 465.42,-91.63"/>
</a>
</g>
</g>
<!-- Node7 -->
<g id="Node000007" class="node">
<title>Node7</title>
<g id="a_Node000007"><a xlink:title=" ">
<polygon fill="#e0e0e0" stroke="#999999" points="608.5,-85 563.5,-85 563.5,-66 608.5,-66 608.5,-85"/>
<text text-anchor="middle" x="586" y="-73" font-family="Helvetica,sans-Serif" font-size="10.00">utility</text>
</a>
</g>
</g>
<!-- Node1&#45;&gt;Node7 -->
<g id="edge6_Node000001_Node000007" class="edge">
<title>Node1&#45;&gt;Node7</title>
<g id="a_edge6_Node000001_Node000007"><a xlink:title=" ">
<path fill="none" stroke="#63b8ff" d="M384.07,-124.76C430.18,-114.62 491.22,-100.83 553.36,-85.34"/>
<polygon fill="#63b8ff" stroke="#63b8ff" points="554.49,-88.66 563.34,-82.84 552.79,-81.87 554.49,-88.66"/>
</a>
</g>
</g>
<!-- Node8 -->
<g id="Node000008" class="node">
<title>Node8</title>
<g id="a_Node000008"><a xlink:title=" ">
<polygon fill="#e0e0e0" stroke="#999999" points="299.5,-24.5 252.5,-24.5 252.5,-5.5 299.5,-5.5 299.5,-24.5"/>
<text text-anchor="middle" x="276" y="-12.5" font-family="Helvetica,sans-Serif" font-size="10.00">vector</text>
</a>
</g>
</g>
<!-- Node1&#45;&gt;Node8 -->
<g id="edge7_Node000001_Node000008" class="edge">
<title>Node1&#45;&gt;Node8</title>
<g id="a_edge7_Node000001_Node000008"><a xlink:title=" ">
<path fill="none" stroke="#63b8ff" d="M304.74,-120.78C301.44,-110.2 297.38,-96.93 294,-85 289.15,-67.89 284.08,-48.27 280.56,-34.33"/>
<polygon fill="#63b8ff" stroke="#63b8ff" points="283.93,-33.38 278.1,-24.53 277.14,-35.08 283.93,-33.38"/>
</a>
</g>
</g>
<!-- Node9 -->
<g id="Node000009" class="node">
<title>Node9</title>
<g id="a_Node000009"><a xlink:href="../../dd/d01/TopologyEdge_8h.html" target="_top" xlink:title="Arête non&#45;orientée du graphe planaire de topologie ferroviaire.">
<polygon fill="white" stroke="#666666" points="395.5,-85 302.5,-85 302.5,-66 395.5,-66 395.5,-85"/>
<text text-anchor="middle" x="349" y="-73" font-family="Helvetica,sans-Serif" font-size="10.00">TopologyEdge.h</text>
</a>
</g>
</g>
<!-- Node1&#45;&gt;Node9 -->
<g id="edge8_Node000001_Node000009" class="edge">
<title>Node1&#45;&gt;Node9</title>
<g id="a_edge8_Node000001_Node000009"><a xlink:title=" ">
<path fill="none" stroke="#63b8ff" d="M322.61,-120.95C327.69,-112.39 333.61,-102.42 338.55,-94.1"/>
<polygon fill="#63b8ff" stroke="#63b8ff" points="341.7,-95.65 343.8,-85.26 335.68,-92.07 341.7,-95.65"/>
</a>
</g>
</g>
<!-- Node12 -->
<g id="Node000012" class="node">
<title>Node12</title>
<g id="a_Node000012"><a xlink:href="../../db/d03/CoordinateXY_8h.html" target="_top" xlink:title="Représentation d&#39;une coordonnée plane en mètres (système métrique UTM).">
<polygon fill="white" stroke="#666666" points="576.5,-30 457.5,-30 457.5,0 576.5,0 576.5,-30"/>
<text text-anchor="start" x="465.5" y="-18" font-family="Helvetica,sans-Serif" font-size="10.00">Modules/Coordinates</text>
<text text-anchor="middle" x="517" y="-7" font-family="Helvetica,sans-Serif" font-size="10.00">/CoordinateXY.h</text>
</a>
</g>
</g>
<!-- Node1&#45;&gt;Node12 -->
<g id="edge14_Node000001_Node000012" class="edge">
<title>Node1&#45;&gt;Node12</title>
<g id="a_edge14_Node000001_Node000012"><a xlink:title=" ">
<path fill="none" stroke="#63b8ff" d="M344.59,-120.87C362.56,-110.32 385.04,-97.04 405,-85 432.33,-68.52 463.2,-49.47 485.59,-35.57"/>
<polygon fill="#63b8ff" stroke="#63b8ff" points="487.69,-38.38 494.34,-30.13 484,-32.44 487.69,-38.38"/>
</a>
</g>
</g>
<!-- Node13 -->
<g id="Node000013" class="node">
<title>Node13</title>
<g id="a_Node000013"><a xlink:href="../../d6/d03/GeoParserEnums_8h.html" target="_top" xlink:title="Constantes nommées et énumérations du pipeline ferroviaire GeoParser.">
<polygon fill="white" stroke="#666666" points="779.5,-85 626.5,-85 626.5,-66 779.5,-66 779.5,-85"/>
<text text-anchor="middle" x="703" y="-73" font-family="Helvetica,sans-Serif" font-size="10.00">../Enums/GeoParserEnums.h</text>
</a>
</g>
</g>
<!-- Node1&#45;&gt;Node13 -->
<g id="edge15_Node000001_Node000013" class="edge">
<title>Node1&#45;&gt;Node13</title>
<g id="a_edge15_Node000001_Node000013"><a xlink:title=" ">
<path fill="none" stroke="#63b8ff" d="M384.27,-128.54C458.2,-116.47 571.1,-98.04 640.8,-86.66"/>
<polygon fill="#63b8ff" stroke="#63b8ff" points="641.45,-90.09 650.76,-85.03 640.33,-83.19 641.45,-90.09"/>
</a>
</g>
</g>
<!-- Node9&#45;&gt;Node5 -->
<g id="edge11_Node000009_Node000005" class="edge">
<title>Node9&#45;&gt;Node5</title>
<g id="a_edge11_Node000009_Node000005"><a xlink:title=" ">
<path fill="none" stroke="#63b8ff" d="M328.45,-65.87C307.26,-56.96 273.28,-42.61 244,-30 243,-29.57 241.98,-29.13 240.95,-28.68"/>
<polygon fill="#63b8ff" stroke="#63b8ff" points="242.18,-25.4 231.62,-24.62 239.39,-31.82 242.18,-25.4"/>
</a>
</g>
</g>
<!-- Node9&#45;&gt;Node8 -->
<g id="edge12_Node000009_Node000008" class="edge">
<title>Node9&#45;&gt;Node8</title>
<g id="a_edge12_Node000009_Node000008"><a xlink:title=" ">
<path fill="none" stroke="#63b8ff" d="M338.23,-65.87C326.8,-56.71 308.52,-42.06 294.72,-31.01"/>
<polygon fill="#63b8ff" stroke="#63b8ff" points="296.81,-28.19 286.82,-24.67 292.43,-33.65 296.81,-28.19"/>
</a>
</g>
</g>
<!-- Node10 -->
<g id="Node000010" class="node">
<title>Node10</title>
<g id="a_Node000010"><a xlink:title=" ">
<polygon fill="#e0e0e0" stroke="#999999" points="439.5,-24.5 392.5,-24.5 392.5,-5.5 439.5,-5.5 439.5,-24.5"/>
<text text-anchor="middle" x="416" y="-12.5" font-family="Helvetica,sans-Serif" font-size="10.00">cmath</text>
</a>
</g>
</g>
<!-- Node9&#45;&gt;Node10 -->
<g id="edge9_Node000009_Node000010" class="edge">
<title>Node9&#45;&gt;Node10</title>
<g id="a_edge9_Node000009_Node000010"><a xlink:title=" ">
<path fill="none" stroke="#63b8ff" d="M358.89,-65.87C369.28,-56.8 385.84,-42.34 398.45,-31.32"/>
<polygon fill="#63b8ff" stroke="#63b8ff" points="400.84,-33.88 406.07,-24.67 396.24,-28.61 400.84,-33.88"/>
</a>
</g>
</g>
<!-- Node11 -->
<g id="Node000011" class="node">
<title>Node11</title>
<g id="a_Node000011"><a xlink:title=" ">
<polygon fill="#e0e0e0" stroke="#999999" points="374,-24.5 318,-24.5 318,-5.5 374,-5.5 374,-24.5"/>
<text text-anchor="middle" x="346" y="-12.5" font-family="Helvetica,sans-Serif" font-size="10.00">sstream</text>
</a>
</g>
</g>
<!-- Node9&#45;&gt;Node11 -->
<g id="edge10_Node000009_Node000011" class="edge">
<title>Node9&#45;&gt;Node11</title>
<g id="a_edge10_Node000009_Node000011"><a xlink:title=" ">
<path fill="none" stroke="#63b8ff" d="M348.56,-65.87C348.14,-57.75 347.5,-45.31 346.97,-34.89"/>
<polygon fill="#63b8ff" stroke="#63b8ff" points="350.45,-34.47 346.44,-24.67 343.46,-34.83 350.45,-34.47"/>
</a>
</g>
</g>
<!-- Node9&#45;&gt;Node12 -->
<g id="edge13_Node000009_Node000012" class="edge">
<title>Node9&#45;&gt;Node12</title>
<g id="a_edge13_Node000009_Node000012"><a xlink:title=" ">
<path fill="none" stroke="#63b8ff" d="M373.43,-65.99C397.82,-57.5 436.01,-44.2 466.87,-33.45"/>
<polygon fill="#63b8ff" stroke="#63b8ff" points="468.32,-36.66 476.61,-30.06 466.02,-30.05 468.32,-36.66"/>
</a>
</g>
</g>
</g>
</svg>
