<?xml version="1.0" encoding="UTF-8" standalone="no"?>
<!DOCTYPE svg PUBLIC "-//W3C//DTD SVG 1.1//EN"
 "http://www.w3.org/Graphics/SVG/1.1/DTD/svg11.dtd">
<!-- Generated by graphviz version 2.43.0 (0)
 -->
<!-- Title: SimulateurFerroviaire/Engine/HMI/Dialogs/AboutDialog.h Pages: 1 -->
<svg width="386pt" height="104pt"
 viewBox="0.00 0.00 385.50 104.00" xmlns="http://www.w3.org/2000/svg" xmlns:xlink="http://www.w3.org/1999/xlink">
<g id="graph0" class="graph" transform="scale(1 1) rotate(0) translate(4 100)">
<title>SimulateurFerroviaire/Engine/HMI/Dialogs/AboutDialog.h</title>
<!-- Node1 -->
<g id="Node000001" class="node">
<title>Node1</title>
<g id="a_Node000001"><a xlink:title="Déclaration de la boîte de dialogue &quot;À propos&quot;.">
<polygon fill="#999999" stroke="#666666" points="291.5,-96 104.5,-96 104.5,-66 291.5,-66 291.5,-96"/>
<text text-anchor="start" x="112.5" y="-84" font-family="Helvetica,sans-Serif" font-size="10.00">SimulateurFerroviaire</text>
<text text-anchor="middle" x="198" y="-73" font-family="Helvetica,sans-Serif" font-size="10.00">/Engine/HMI/Dialogs/AboutDialog.h</text>
</a>
</g>
</g>
<!-- Node2 -->
<g id="Node000002" class="node">
<title>Node2</title>
<g id="a_Node000002"><a xlink:href="../../d6/d00/AboutDialog_8cpp.html" target="_top" xlink:title="Implémentation de la boîte de dialogue &quot;À propos&quot;.">
<polygon fill="white" stroke="#666666" points="198,-30 0,-30 0,0 198,0 198,-30"/>
<text text-anchor="start" x="8" y="-18" font-family="Helvetica,sans-Serif" font-size="10.00">SimulateurFerroviaire</text>
<text text-anchor="middle" x="99" y="-7" font-family="Helvetica,sans-Serif" font-size="10.00">/Engine/HMI/Dialogs/AboutDialog.cpp</text>
</a>
</g>
</g>
<!-- Node1&#45;&gt;Node2 -->
<g id="edge1_Node000001_Node000002" class="edge">
<title>Node1&#45;&gt;Node2</title>
<g id="a_edge1_Node000001_Node000002"><a xlink:title=" ">
<path fill="none" stroke="#63b8ff" d="M167.53,-60.3C152.46,-50.56 134.61,-39.02 120.91,-30.16"/>
<polygon fill="#63b8ff" stroke="#63b8ff" points="165.73,-63.31 176.03,-65.8 169.53,-57.43 165.73,-63.31"/>
</a>
</g>
</g>
<!-- Node3 -->
<g id="Node000003" class="node">
<title>Node3</title>
<g id="a_Node000003"><a xlink:href="../../d3/d03/MainWindow_8cpp.html" target="_top" xlink:title="Implémentation de la fenêtre principale.">
<polygon fill="white" stroke="#666666" points="377.5,-30 216.5,-30 216.5,0 377.5,0 377.5,-30"/>
<text text-anchor="start" x="224.5" y="-18" font-family="Helvetica,sans-Serif" font-size="10.00">SimulateurFerroviaire</text>
<text text-anchor="middle" x="297" y="-7" font-family="Helvetica,sans-Serif" font-size="10.00">/Engine/HMI/MainWindow.cpp</text>
</a>
</g>
</g>
<!-- Node1&#45;&gt;Node3 -->
<g id="edge2_Node000001_Node000003" class="edge">
<title>Node1&#45;&gt;Node3</title>
<g id="a_edge2_Node000001_Node000003"><a xlink:title=" ">
<path fill="none" stroke="#63b8ff" d="M228.47,-60.3C243.54,-50.56 261.39,-39.02 275.09,-30.16"/>
<polygon fill="#63b8ff" stroke="#63b8ff" points="226.47,-57.43 219.97,-65.8 230.27,-63.31 226.47,-57.43"/>
</a>
</g>
</g>
</g>
</svg>
