<?xml version="1.0" encoding="UTF-8" standalone="no"?>
<!DOCTYPE svg PUBLIC "-//W3C//DTD SVG 1.1//EN"
 "http://www.w3.org/Graphics/SVG/1.1/DTD/svg11.dtd">
<!-- Generated by graphviz version 2.43.0 (0)
 -->
<!-- Title: InteractiveElement Pages: 1 -->
<svg width="381pt" height="915pt"
 viewBox="0.00 0.00 381.00 915.00" xmlns="http://www.w3.org/2000/svg" xmlns:xlink="http://www.w3.org/1999/xlink">
<g id="graph0" class="graph" transform="scale(1 1) rotate(0) translate(4 911)">
<title>InteractiveElement</title>
<!-- Node1 -->
<g id="Node000001" class="node">
<title>Node1</title>
<g id="a_Node000001"><a xlink:title="Classe de base abstraite pour tous les éléments interactifs ferroviaires.">
<polygon fill="#999999" stroke="transparent" points="365,-154 235,-154 235,0 365,0 365,-154"/>
<text text-anchor="start" x="253" y="-142" font-family="Helvetica,sans-Serif" font-size="10.00">InteractiveElement</text>
<text text-anchor="start" x="298" y="-127" font-family="Helvetica,sans-Serif" font-size="10.00"> </text>
<text text-anchor="start" x="239" y="-112" font-family="Helvetica,sans-Serif" font-size="10.00">+</text>
<text text-anchor="start" x="252" y="-112" font-family="Helvetica,sans-Serif" font-size="10.00">InteractiveElement()</text>
<text text-anchor="start" x="239" y="-97" font-family="Helvetica,sans-Serif" font-size="10.00">+</text>
<text text-anchor="start" x="252" y="-97" font-family="Helvetica,sans-Serif" font-size="10.00">~InteractiveElement()</text>
<text text-anchor="start" x="239" y="-82" font-family="Helvetica,sans-Serif" font-size="10.00">+</text>
<text text-anchor="start" x="252" y="-82" font-family="Helvetica,sans-Serif" font-size="10.00">InteractiveElement()</text>
<text text-anchor="start" x="239" y="-67" font-family="Helvetica,sans-Serif" font-size="10.00">+</text>
<text text-anchor="start" x="252" y="-67" font-family="Helvetica,sans-Serif" font-size="10.00">operator=()</text>
<text text-anchor="start" x="239" y="-52" font-family="Helvetica,sans-Serif" font-size="10.00">+</text>
<text text-anchor="start" x="252" y="-52" font-family="Helvetica,sans-Serif" font-size="10.00">InteractiveElement()</text>
<text text-anchor="start" x="239" y="-37" font-family="Helvetica,sans-Serif" font-size="10.00">+</text>
<text text-anchor="start" x="252" y="-37" font-family="Helvetica,sans-Serif" font-size="10.00">operator=()</text>
<text text-anchor="start" x="239" y="-22" font-family="Helvetica,sans-Serif" font-size="10.00">+</text>
<text text-anchor="start" x="252" y="-22" font-family="Helvetica,sans-Serif" font-size="10.00">getId()</text>
<text text-anchor="start" x="239" y="-7" font-family="Helvetica,sans-Serif" font-size="10.00">+</text>
<text text-anchor="start" x="252" y="-7" font-family="Helvetica,sans-Serif" font-size="10.00">getType()</text>
<polygon fill="#666666" stroke="#666666" points="235,-137 235,-137 365,-137 365,-137 235,-137"/>
<polygon fill="#666666" stroke="#666666" points="235,-122 235,-122 365,-122 365,-122 235,-122"/>
<polygon fill="none" stroke="#666666" points="235,0 235,-154 365,-154 365,0 235,0"/>
</a>
</g>
</g>
<!-- Node2 -->
<g id="Node000002" class="node">
<title>Node2</title>
<g id="a_Node000002"><a xlink:title=" ">
<polygon fill="white" stroke="transparent" points="333.5,-541 274.5,-541 274.5,-492 333.5,-492 333.5,-541"/>
<text text-anchor="start" x="280" y="-528.5" font-family="Helvetica,sans-Serif" font-size="10.00">std::string</text>
<text text-anchor="start" x="302.5" y="-513.5" font-family="Helvetica,sans-Serif" font-size="10.00"> </text>
<text text-anchor="start" x="302.5" y="-498.5" font-family="Helvetica,sans-Serif" font-size="10.00"> </text>
<polygon fill="#666666" stroke="#666666" points="275,-523.5 275,-523.5 334,-523.5 334,-523.5 275,-523.5"/>
<polygon fill="#666666" stroke="#666666" points="275,-508.5 275,-508.5 334,-508.5 334,-508.5 275,-508.5"/>
<polygon fill="none" stroke="#666666" points="274.5,-492 274.5,-541 333.5,-541 333.5,-492 274.5,-492"/>
</a>
</g>
</g>
<!-- Node2&#45;&gt;Node1 -->
<g id="edge1_Node000001_Node000002" class="edge">
<title>Node2&#45;&gt;Node1</title>
<g id="a_edge1_Node000001_Node000002"><a xlink:title=" ">
<path fill="none" stroke="#63b8ff" d="M327.95,-491.79C332.07,-486.36 335.74,-480.32 338,-474 339.65,-469.4 338.13,-467.89 338,-463 334.44,-333.52 340.38,-300.22 322,-172 321.73,-170.09 321.43,-168.17 321.12,-166.23"/>
<polygon fill="none" stroke="#63b8ff" points="321.09,-166.05 316.11,-160.83 319.02,-154.23 323.99,-159.45 321.09,-166.05"/>
</a>
</g>
<text text-anchor="middle" x="355" y="-320.5" font-family="Helvetica,sans-Serif" font-size="10.00" fill="grey"> #m_id</text>
</g>
<!-- Node4 -->
<g id="Node000004" class="node">
<title>Node4</title>
<g id="a_Node000004"><a xlink:href="../../db/d03/classLogger.html" target="_top" xlink:title="Journaliseur associé à un moteur nommé.">
<polygon fill="white" stroke="transparent" points="270,-445 134,-445 134,-201 270,-201 270,-445"/>
<text text-anchor="start" x="185" y="-433" font-family="Helvetica,sans-Serif" font-size="10.00">Logger</text>
<text text-anchor="start" x="140.5" y="-418" font-family="Helvetica,sans-Serif" font-size="10.00">&#45;</text>
<text text-anchor="start" x="151" y="-418" font-family="Helvetica,sans-Serif" font-size="10.00">m_minimumLevel</text>
<text text-anchor="start" x="138" y="-403" font-family="Helvetica,sans-Serif" font-size="10.00">+</text>
<text text-anchor="start" x="151" y="-403" font-family="Helvetica,sans-Serif" font-size="10.00">Logger()</text>
<text text-anchor="start" x="138" y="-388" font-family="Helvetica,sans-Serif" font-size="10.00">+</text>
<text text-anchor="start" x="151" y="-388" font-family="Helvetica,sans-Serif" font-size="10.00">~Logger()</text>
<text text-anchor="start" x="138" y="-373" font-family="Helvetica,sans-Serif" font-size="10.00">+</text>
<text text-anchor="start" x="151" y="-373" font-family="Helvetica,sans-Serif" font-size="10.00">Logger()</text>
<text text-anchor="start" x="138" y="-358" font-family="Helvetica,sans-Serif" font-size="10.00">+</text>
<text text-anchor="start" x="151" y="-358" font-family="Helvetica,sans-Serif" font-size="10.00">operator=()</text>
<text text-anchor="start" x="138" y="-343" font-family="Helvetica,sans-Serif" font-size="10.00">+</text>
<text text-anchor="start" x="151" y="-343" font-family="Helvetica,sans-Serif" font-size="10.00">writeLog()</text>
<text text-anchor="start" x="138" y="-328" font-family="Helvetica,sans-Serif" font-size="10.00">+</text>
<text text-anchor="start" x="151" y="-328" font-family="Helvetica,sans-Serif" font-size="10.00">setMinimumLogLevel()</text>
<text text-anchor="start" x="138" y="-313" font-family="Helvetica,sans-Serif" font-size="10.00">+</text>
<text text-anchor="start" x="151" y="-313" font-family="Helvetica,sans-Serif" font-size="10.00">getMotorName()</text>
<text text-anchor="start" x="138" y="-298" font-family="Helvetica,sans-Serif" font-size="10.00">+</text>
<text text-anchor="start" x="151" y="-298" font-family="Helvetica,sans-Serif" font-size="10.00">triggerFatalCrash()</text>
<text text-anchor="start" x="140.5" y="-283" font-family="Helvetica,sans-Serif" font-size="10.00">&#45;</text>
<text text-anchor="start" x="151" y="-283" font-family="Helvetica,sans-Serif" font-size="10.00">extractClassName()</text>
<text text-anchor="start" x="140.5" y="-268" font-family="Helvetica,sans-Serif" font-size="10.00">&#45;</text>
<text text-anchor="start" x="151" y="-268" font-family="Helvetica,sans-Serif" font-size="10.00">extractFunctionName()</text>
<text text-anchor="start" x="140.5" y="-253" font-family="Helvetica,sans-Serif" font-size="10.00">&#45;</text>
<text text-anchor="start" x="151" y="-253" font-family="Helvetica,sans-Serif" font-size="10.00">formatLogLine()</text>
<text text-anchor="start" x="140.5" y="-238" font-family="Helvetica,sans-Serif" font-size="10.00">&#45;</text>
<text text-anchor="start" x="151" y="-238" font-family="Helvetica,sans-Serif" font-size="10.00">levelToString()</text>
<text text-anchor="start" x="140.5" y="-223" font-family="Helvetica,sans-Serif" font-size="10.00">&#45;</text>
<text text-anchor="start" x="151" y="-223" font-family="Helvetica,sans-Serif" font-size="10.00">getCurrentTimestamp()</text>
<text text-anchor="start" x="140.5" y="-208" font-family="Helvetica,sans-Serif" font-size="10.00">&#45;</text>
<text text-anchor="start" x="151" y="-208" font-family="Helvetica,sans-Serif" font-size="10.00">sendToDebugOutput()</text>
<polygon fill="#666666" stroke="#666666" points="134,-428 134,-428 270,-428 270,-428 134,-428"/>
<polygon fill="#666666" stroke="#666666" points="134,-413 134,-413 149,-413 149,-413 134,-413"/>
<polygon fill="#666666" stroke="#666666" points="149,-413 149,-413 270,-413 270,-413 149,-413"/>
<polygon fill="none" stroke="#666666" points="134,-201 134,-445 270,-445 270,-201 134,-201"/>
</a>
</g>
</g>
<!-- Node2&#45;&gt;Node4 -->
<g id="edge4_Node000004_Node000002" class="edge">
<title>Node2&#45;&gt;Node4</title>
<g id="a_edge4_Node000004_Node000002"><a xlink:title=" ">
<path fill="none" stroke="#63b8ff" d="M274.38,-493.38C268.02,-487.6 261.79,-481.01 257,-474 253.09,-468.28 249.42,-462.24 245.98,-456.01"/>
<polygon fill="none" stroke="#63b8ff" points="245.97,-456 239.64,-452.54 240.4,-445.36 246.73,-448.83 245.97,-456"/>
</a>
</g>
<text text-anchor="middle" x="297.5" y="-466" font-family="Helvetica,sans-Serif" font-size="10.00" fill="grey"> &#45;m_motorName</text>
</g>
<!-- Node3 -->
<g id="Node000003" class="node">
<title>Node3</title>
<g id="a_Node000003"><a xlink:title=" ">
<polygon fill="white" stroke="transparent" points="353,-638 255,-638 255,-578 353,-578 353,-638"/>
<text text-anchor="start" x="260" y="-626" font-family="Helvetica,sans-Serif" font-size="10.00">std::basic_string&lt;</text>
<text text-anchor="start" x="285.5" y="-615" font-family="Helvetica,sans-Serif" font-size="10.00"> Char &gt;</text>
<text text-anchor="start" x="302" y="-600" font-family="Helvetica,sans-Serif" font-size="10.00"> </text>
<text text-anchor="start" x="302" y="-585" font-family="Helvetica,sans-Serif" font-size="10.00"> </text>
<polygon fill="#666666" stroke="#666666" points="255,-610 255,-610 353,-610 353,-610 255,-610"/>
<polygon fill="#666666" stroke="#666666" points="255,-595 255,-595 353,-595 353,-595 255,-595"/>
<polygon fill="none" stroke="#666666" points="255,-578 255,-638 353,-638 353,-578 255,-578"/>
</a>
</g>
</g>
<!-- Node3&#45;&gt;Node2 -->
<g id="edge2_Node000002_Node000003" class="edge">
<title>Node3&#45;&gt;Node2</title>
<g id="a_edge2_Node000002_Node000003"><a xlink:title=" ">
<path fill="none" stroke="#63b8ff" d="M304,-567.41C304,-558.47 304,-549.25 304,-541.21"/>
<polygon fill="none" stroke="#63b8ff" points="300.5,-567.69 304,-577.69 307.5,-567.69 300.5,-567.69"/>
</a>
</g>
</g>
<!-- Node4&#45;&gt;Node1 -->
<g id="edge3_Node000001_Node000004" class="edge">
<title>Node4&#45;&gt;Node1</title>
<g id="a_edge3_Node000001_Node000004"><a xlink:title=" ">
<path fill="none" stroke="#63b8ff" d="M250.71,-200.71C255.5,-188.78 260.3,-176.84 264.92,-165.35"/>
<polygon fill="none" stroke="#63b8ff" points="264.99,-165.16 263.52,-158.1 269.46,-154.03 270.94,-161.08 264.99,-165.16"/>
</a>
</g>
<text text-anchor="middle" x="289" y="-175" font-family="Helvetica,sans-Serif" font-size="10.00" fill="grey"> #m_logger</text>
</g>
<!-- Node5 -->
<g id="Node000005" class="node">
<title>Node5</title>
<g id="a_Node000005"><a xlink:title=" ">
<polygon fill="white" stroke="transparent" points="99,-541 23,-541 23,-492 99,-492 99,-541"/>
<text text-anchor="start" x="28" y="-528.5" font-family="Helvetica,sans-Serif" font-size="10.00">std::ofstream</text>
<text text-anchor="start" x="59" y="-513.5" font-family="Helvetica,sans-Serif" font-size="10.00"> </text>
<text text-anchor="start" x="59" y="-498.5" font-family="Helvetica,sans-Serif" font-size="10.00"> </text>
<polygon fill="#666666" stroke="#666666" points="23,-523.5 23,-523.5 99,-523.5 99,-523.5 23,-523.5"/>
<polygon fill="#666666" stroke="#666666" points="23,-508.5 23,-508.5 99,-508.5 99,-508.5 23,-508.5"/>
<polygon fill="none" stroke="#666666" points="23,-492 23,-541 99,-541 99,-492 23,-492"/>
</a>
</g>
</g>
<!-- Node5&#45;&gt;Node4 -->
<g id="edge5_Node000004_Node000005" class="edge">
<title>Node5&#45;&gt;Node4</title>
<g id="a_edge5_Node000004_Node000005"><a xlink:title=" ">
<path fill="none" stroke="#63b8ff" d="M67.45,-491.92C70.54,-482.57 74.72,-471.93 80,-463 92.78,-441.38 109.13,-420 125.69,-400.73"/>
<polygon fill="none" stroke="#63b8ff" points="125.91,-400.48 126.85,-393.33 133.82,-391.45 132.87,-398.6 125.91,-400.48"/>
</a>
</g>
<text text-anchor="middle" x="115.5" y="-466" font-family="Helvetica,sans-Serif" font-size="10.00" fill="grey"> &#45;m_outputFile</text>
</g>
<!-- Node6 -->
<g id="Node000006" class="node">
<title>Node6</title>
<g id="a_Node000006"><a xlink:title=" ">
<polygon fill="white" stroke="transparent" points="114.5,-638 7.5,-638 7.5,-578 114.5,-578 114.5,-638"/>
<text text-anchor="start" x="13" y="-626" font-family="Helvetica,sans-Serif" font-size="10.00">std::basic_ofstream</text>
<text text-anchor="start" x="38.5" y="-615" font-family="Helvetica,sans-Serif" font-size="10.00">&lt; Char &gt;</text>
<text text-anchor="start" x="59.5" y="-600" font-family="Helvetica,sans-Serif" font-size="10.00"> </text>
<text text-anchor="start" x="59.5" y="-585" font-family="Helvetica,sans-Serif" font-size="10.00"> </text>
<polygon fill="#666666" stroke="#666666" points="8,-610 8,-610 115,-610 115,-610 8,-610"/>
<polygon fill="#666666" stroke="#666666" points="8,-595 8,-595 115,-595 115,-595 8,-595"/>
<polygon fill="none" stroke="#666666" points="7.5,-578 7.5,-638 114.5,-638 114.5,-578 7.5,-578"/>
</a>
</g>
</g>
<!-- Node6&#45;&gt;Node5 -->
<g id="edge6_Node000005_Node000006" class="edge">
<title>Node6&#45;&gt;Node5</title>
<g id="a_edge6_Node000005_Node000006"><a xlink:title=" ">
<path fill="none" stroke="#63b8ff" d="M61,-567.41C61,-558.47 61,-549.25 61,-541.21"/>
<polygon fill="none" stroke="#63b8ff" points="57.5,-567.69 61,-577.69 64.5,-567.69 57.5,-567.69"/>
</a>
</g>
</g>
<!-- Node7 -->
<g id="Node000007" class="node">
<title>Node7</title>
<g id="a_Node000007"><a xlink:title=" ">
<polygon fill="white" stroke="transparent" points="112.5,-735 9.5,-735 9.5,-675 112.5,-675 112.5,-735"/>
<text text-anchor="start" x="15" y="-723" font-family="Helvetica,sans-Serif" font-size="10.00">std::basic_ostream</text>
<text text-anchor="start" x="38.5" y="-712" font-family="Helvetica,sans-Serif" font-size="10.00">&lt; Char &gt;</text>
<text text-anchor="start" x="59.5" y="-697" font-family="Helvetica,sans-Serif" font-size="10.00"> </text>
<text text-anchor="start" x="59.5" y="-682" font-family="Helvetica,sans-Serif" font-size="10.00"> </text>
<polygon fill="#666666" stroke="#666666" points="10,-707 10,-707 113,-707 113,-707 10,-707"/>
<polygon fill="#666666" stroke="#666666" points="10,-692 10,-692 113,-692 113,-692 10,-692"/>
<polygon fill="none" stroke="#666666" points="9.5,-675 9.5,-735 112.5,-735 112.5,-675 9.5,-675"/>
</a>
</g>
</g>
<!-- Node7&#45;&gt;Node6 -->
<g id="edge7_Node000006_Node000007" class="edge">
<title>Node7&#45;&gt;Node6</title>
<g id="a_edge7_Node000006_Node000007"><a xlink:title=" ">
<path fill="none" stroke="#63b8ff" d="M61,-664.79C61,-655.88 61,-646.57 61,-638.17"/>
<polygon fill="none" stroke="#63b8ff" points="57.5,-664.98 61,-674.98 64.5,-664.98 57.5,-664.98"/>
</a>
</g>
</g>
<!-- Node8 -->
<g id="Node000008" class="node">
<title>Node8</title>
<g id="a_Node000008"><a xlink:title=" ">
<polygon fill="white" stroke="transparent" points="122,-821 0,-821 0,-772 122,-772 122,-821"/>
<text text-anchor="start" x="5" y="-808.5" font-family="Helvetica,sans-Serif" font-size="10.00">std::basic_ios&lt; Char &gt;</text>
<text text-anchor="start" x="59" y="-793.5" font-family="Helvetica,sans-Serif" font-size="10.00"> </text>
<text text-anchor="start" x="59" y="-778.5" font-family="Helvetica,sans-Serif" font-size="10.00"> </text>
<polygon fill="#666666" stroke="#666666" points="0,-803.5 0,-803.5 122,-803.5 122,-803.5 0,-803.5"/>
<polygon fill="#666666" stroke="#666666" points="0,-788.5 0,-788.5 122,-788.5 122,-788.5 0,-788.5"/>
<polygon fill="none" stroke="#666666" points="0,-772 0,-821 122,-821 122,-772 0,-772"/>
</a>
</g>
</g>
<!-- Node8&#45;&gt;Node7 -->
<g id="edge8_Node000007_Node000008" class="edge">
<title>Node8&#45;&gt;Node7</title>
<g id="a_edge8_Node000007_Node000008"><a xlink:title=" ">
<path fill="none" stroke="#63b8ff" d="M61,-761.7C61,-752.95 61,-743.6 61,-735.12"/>
<polygon fill="none" stroke="#63b8ff" points="57.5,-761.98 61,-771.98 64.5,-761.98 57.5,-761.98"/>
</a>
</g>
</g>
<!-- Node9 -->
<g id="Node000009" class="node">
<title>Node9</title>
<g id="a_Node000009"><a xlink:title=" ">
<polygon fill="white" stroke="transparent" points="98,-907 24,-907 24,-858 98,-858 98,-907"/>
<text text-anchor="start" x="29" y="-894.5" font-family="Helvetica,sans-Serif" font-size="10.00">std::ios_base</text>
<text text-anchor="start" x="59" y="-879.5" font-family="Helvetica,sans-Serif" font-size="10.00"> </text>
<text text-anchor="start" x="59" y="-864.5" font-family="Helvetica,sans-Serif" font-size="10.00"> </text>
<polygon fill="#666666" stroke="#666666" points="24,-889.5 24,-889.5 98,-889.5 98,-889.5 24,-889.5"/>
<polygon fill="#666666" stroke="#666666" points="24,-874.5 24,-874.5 98,-874.5 98,-874.5 24,-874.5"/>
<polygon fill="none" stroke="#666666" points="24,-858 24,-907 98,-907 98,-858 24,-858"/>
</a>
</g>
</g>
<!-- Node9&#45;&gt;Node8 -->
<g id="edge9_Node000008_Node000009" class="edge">
<title>Node9&#45;&gt;Node8</title>
<g id="a_edge9_Node000008_Node000009"><a xlink:title=" ">
<path fill="none" stroke="#63b8ff" d="M61,-847.57C61,-838.69 61,-829.32 61,-821.12"/>
<polygon fill="none" stroke="#63b8ff" points="57.5,-847.65 61,-857.65 64.5,-847.65 57.5,-847.65"/>
</a>
</g>
</g>
<!-- Node10 -->
<g id="Node000010" class="node">
<title>Node10</title>
<g id="a_Node000010"><a xlink:title=" ">
<polygon fill="white" stroke="transparent" points="186.5,-541 123.5,-541 123.5,-492 186.5,-492 186.5,-541"/>
<text text-anchor="start" x="129" y="-528.5" font-family="Helvetica,sans-Serif" font-size="10.00">std::mutex</text>
<text text-anchor="start" x="153.5" y="-513.5" font-family="Helvetica,sans-Serif" font-size="10.00"> </text>
<text text-anchor="start" x="153.5" y="-498.5" font-family="Helvetica,sans-Serif" font-size="10.00"> </text>
<polygon fill="#666666" stroke="#666666" points="124,-523.5 124,-523.5 187,-523.5 187,-523.5 124,-523.5"/>
<polygon fill="#666666" stroke="#666666" points="124,-508.5 124,-508.5 187,-508.5 187,-508.5 124,-508.5"/>
<polygon fill="none" stroke="#666666" points="123.5,-492 123.5,-541 186.5,-541 186.5,-492 123.5,-492"/>
</a>
</g>
</g>
<!-- Node10&#45;&gt;Node4 -->
<g id="edge10_Node000004_Node000010" class="edge">
<title>Node10&#45;&gt;Node4</title>
<g id="a_edge10_Node000004_Node000010"><a xlink:title=" ">
<path fill="none" stroke="#63b8ff" d="M153.95,-491.84C153.94,-482.76 154.4,-472.35 156,-463 156.35,-460.98 156.72,-458.94 157.11,-456.9"/>
<polygon fill="none" stroke="#63b8ff" points="157.11,-456.87 154.43,-450.18 159.58,-445.13 162.26,-451.83 157.11,-456.87"/>
</a>
</g>
<text text-anchor="middle" x="195" y="-466" font-family="Helvetica,sans-Serif" font-size="10.00" fill="grey"> &#45;m_writeMutex</text>
</g>
</g>
</svg>
