<?xml version="1.0" encoding="UTF-8" standalone="no"?>
<!DOCTYPE svg PUBLIC "-//W3C//DTD SVG 1.1//EN"
 "http://www.w3.org/Graphics/SVG/1.1/DTD/svg11.dtd">
<!-- Generated by graphviz version 2.43.0 (0)
 -->
<!-- Title: SimulateurFerroviaire/Modules/InteractiveElements/ShuntingElements/StraightBlock.h Pages: 1 -->
<svg width="1622pt" height="489pt"
 viewBox="0.00 0.00 1622.04 489.00" xmlns="http://www.w3.org/2000/svg" xmlns:xlink="http://www.w3.org/1999/xlink">
<g id="graph0" class="graph" transform="scale(1 1) rotate(0) translate(4 485)">
<title>SimulateurFerroviaire/Modules/InteractiveElements/ShuntingElements/StraightBlock.h</title>
<!-- Node1 -->
<g id="Node000001" class="node">
<title>Node1</title>
<g id="a_Node000001"><a xlink:title="Modèle de domaine d&#39;un bloc de voie droite (Straight).">
<polygon fill="#999999" stroke="#666666" points="1002,-481 817,-481 817,-440 1002,-440 1002,-481"/>
<text text-anchor="start" x="825" y="-469" font-family="Helvetica,sans-Serif" font-size="10.00">SimulateurFerroviaire</text>
<text text-anchor="start" x="825" y="-458" font-family="Helvetica,sans-Serif" font-size="10.00">/Modules/InteractiveElements</text>
<text text-anchor="middle" x="909.5" y="-447" font-family="Helvetica,sans-Serif" font-size="10.00">/ShuntingElements/StraightBlock.h</text>
</a>
</g>
</g>
<!-- Node2 -->
<g id="Node000002" class="node">
<title>Node2</title>
<g id="a_Node000002"><a xlink:href="../../d6/d02/TopologyData_8h.html" target="_top" xlink:title="Conteneur central des données topologiques ferroviaires.">
<polygon fill="white" stroke="#666666" points="352,-404 227,-404 227,-363 352,-363 352,-404"/>
<text text-anchor="start" x="235" y="-392" font-family="Helvetica,sans-Serif" font-size="10.00">SimulateurFerroviaire</text>
<text text-anchor="start" x="235" y="-381" font-family="Helvetica,sans-Serif" font-size="10.00">/Engine/Core/Topology</text>
<text text-anchor="middle" x="289.5" y="-370" font-family="Helvetica,sans-Serif" font-size="10.00">/TopologyData.h</text>
</a>
</g>
</g>
<!-- Node1&#45;&gt;Node2 -->
<g id="edge1_Node000001_Node000002" class="edge">
<title>Node1&#45;&gt;Node2</title>
<g id="a_edge1_Node000001_Node000002"><a xlink:title=" ">
<path fill="none" stroke="#63b8ff" d="M806.37,-454.23C695.48,-447.37 514.38,-432.7 360.5,-404 357.74,-403.48 354.92,-402.91 352.09,-402.3"/>
<polygon fill="#63b8ff" stroke="#63b8ff" points="806.35,-457.74 816.55,-454.85 806.78,-450.75 806.35,-457.74"/>
</a>
</g>
</g>
<!-- Node8 -->
<g id="Node000008" class="node">
<title>Node8</title>
<g id="a_Node000008"><a xlink:href="../../d2/d01/TopologyRenderer_8h.html" target="_top" xlink:title="Exporteur de topologie ferroviaire au format GeoJSON.">
<polygon fill="white" stroke="#666666" points="125,-327 0,-327 0,-286 125,-286 125,-327"/>
<text text-anchor="start" x="8" y="-315" font-family="Helvetica,sans-Serif" font-size="10.00">SimulateurFerroviaire</text>
<text text-anchor="start" x="8" y="-304" font-family="Helvetica,sans-Serif" font-size="10.00">/Engine/Core/Topology</text>
<text text-anchor="middle" x="62.5" y="-293" font-family="Helvetica,sans-Serif" font-size="10.00">/TopologyRenderer.h</text>
</a>
</g>
</g>
<!-- Node1&#45;&gt;Node8 -->
<g id="edge8_Node000001_Node000008" class="edge">
<title>Node1&#45;&gt;Node8</title>
<g id="a_edge8_Node000001_Node000008"><a xlink:title=" ">
<path fill="none" stroke="#63b8ff" d="M806.73,-457.2C641.37,-452.5 324.01,-439.11 217.5,-404 166.32,-387.13 114.76,-350.11 85.9,-327.14"/>
<polygon fill="#63b8ff" stroke="#63b8ff" points="806.82,-460.7 816.91,-457.48 807.01,-453.71 806.82,-460.7"/>
</a>
</g>
</g>
<!-- Node9 -->
<g id="Node000009" class="node">
<title>Node9</title>
<g id="a_Node000009"><a xlink:href="../../de/d00/DoubleSwitchDetector_8h.html" target="_top" xlink:title="Phases 7 et 8 — détection des doubles aiguilles et validation CDC.">
<polygon fill="white" stroke="#666666" points="553,-404 370,-404 370,-363 553,-363 553,-404"/>
<text text-anchor="start" x="378" y="-392" font-family="Helvetica,sans-Serif" font-size="10.00">SimulateurFerroviaire</text>
<text text-anchor="start" x="378" y="-381" font-family="Helvetica,sans-Serif" font-size="10.00">/Modules/GeoParser/DoubleSwitch</text>
<text text-anchor="middle" x="461.5" y="-370" font-family="Helvetica,sans-Serif" font-size="10.00">Detector.h</text>
</a>
</g>
</g>
<!-- Node1&#45;&gt;Node9 -->
<g id="edge12_Node000001_Node000009" class="edge">
<title>Node1&#45;&gt;Node9</title>
<g id="a_edge12_Node000001_Node000009"><a xlink:title=" ">
<path fill="none" stroke="#63b8ff" d="M806.81,-442.31C730.34,-429.51 626.86,-412.18 553.17,-399.85"/>
<polygon fill="#63b8ff" stroke="#63b8ff" points="806.51,-445.81 816.95,-444.01 807.66,-438.9 806.51,-445.81"/>
</a>
</g>
</g>
<!-- Node11 -->
<g id="Node000011" class="node">
<title>Node11</title>
<g id="a_Node000011"><a xlink:href="../../de/d02/GeoParser_8h.html" target="_top" xlink:title="Orchestrateur principal du pipeline GeoJSON ferroviaire.">
<polygon fill="white" stroke="#666666" points="811.5,-398.5 637.5,-398.5 637.5,-368.5 811.5,-368.5 811.5,-398.5"/>
<text text-anchor="start" x="645.5" y="-386.5" font-family="Helvetica,sans-Serif" font-size="10.00">SimulateurFerroviaire</text>
<text text-anchor="middle" x="724.5" y="-375.5" font-family="Helvetica,sans-Serif" font-size="10.00">/Modules/GeoParser/GeoParser.h</text>
</a>
</g>
</g>
<!-- Node1&#45;&gt;Node11 -->
<g id="edge15_Node000001_Node000011" class="edge">
<title>Node1&#45;&gt;Node11</title>
<g id="a_edge15_Node000001_Node000011"><a xlink:title=" ">
<path fill="none" stroke="#63b8ff" d="M851.75,-436.09C821.42,-423.79 785.25,-409.13 759.24,-398.58"/>
<polygon fill="#63b8ff" stroke="#63b8ff" points="850.79,-439.48 861.38,-439.99 853.42,-432.99 850.79,-439.48"/>
</a>
</g>
</g>
<!-- Node13 -->
<g id="Node000013" class="node">
<title>Node13</title>
<g id="a_Node000013"><a xlink:href="../../db/d01/SwitchOrientator_8h.html" target="_top" xlink:title="Phases 6, 6b, 6c et 6d — orientation géométrique des aiguillages.">
<polygon fill="white" stroke="#666666" points="1213.5,-321.5 1007.5,-321.5 1007.5,-291.5 1213.5,-291.5 1213.5,-321.5"/>
<text text-anchor="start" x="1015.5" y="-309.5" font-family="Helvetica,sans-Serif" font-size="10.00">SimulateurFerroviaire</text>
<text text-anchor="middle" x="1110.5" y="-298.5" font-family="Helvetica,sans-Serif" font-size="10.00">/Modules/GeoParser/SwitchOrientator.h</text>
</a>
</g>
</g>
<!-- Node1&#45;&gt;Node13 -->
<g id="edge18_Node000001_Node000013" class="edge">
<title>Node1&#45;&gt;Node13</title>
<g id="a_edge18_Node000001_Node000013"><a xlink:title=" ">
<path fill="none" stroke="#63b8ff" d="M954.43,-434.52C969.03,-425.63 984.94,-415.05 998.5,-404 1017.99,-388.11 1018.76,-379.78 1037.5,-363 1054.46,-347.81 1075.25,-332.28 1090.3,-321.52"/>
<polygon fill="#63b8ff" stroke="#63b8ff" points="952.34,-431.7 945.55,-439.83 955.93,-437.71 952.34,-431.7"/>
</a>
</g>
</g>
<!-- Node15 -->
<g id="Node000015" class="node">
<title>Node15</title>
<g id="a_Node000015"><a xlink:href="../../df/d03/TopologyExtractor_8h.html" target="_top" xlink:title="Phases 3, 4, 5a et 5b — extraction de la topologie ferroviaire depuis le graphe.">
<polygon fill="white" stroke="#666666" points="989.5,-404 829.5,-404 829.5,-363 989.5,-363 989.5,-404"/>
<text text-anchor="start" x="837.5" y="-392" font-family="Helvetica,sans-Serif" font-size="10.00">SimulateurFerroviaire</text>
<text text-anchor="start" x="837.5" y="-381" font-family="Helvetica,sans-Serif" font-size="10.00">/Modules/GeoParser/Topology</text>
<text text-anchor="middle" x="909.5" y="-370" font-family="Helvetica,sans-Serif" font-size="10.00">Extractor.h</text>
</a>
</g>
</g>
<!-- Node1&#45;&gt;Node15 -->
<g id="edge21_Node000001_Node000015" class="edge">
<title>Node1&#45;&gt;Node15</title>
<g id="a_edge21_Node000001_Node000015"><a xlink:title=" ">
<path fill="none" stroke="#63b8ff" d="M909.5,-429.69C909.5,-421.08 909.5,-411.9 909.5,-404.07"/>
<polygon fill="#63b8ff" stroke="#63b8ff" points="906,-429.79 909.5,-439.79 913,-429.79 906,-429.79"/>
</a>
</g>
</g>
<!-- Node17 -->
<g id="Node000017" class="node">
<title>Node17</title>
<g id="a_Node000017"><a xlink:href="../../d9/d01/StraightBlock_8cpp.html" target="_top" xlink:title="Implémentation du bloc de voie droite StraightBlock.">
<polygon fill="white" stroke="#666666" points="1243,-404 1046,-404 1046,-363 1243,-363 1243,-404"/>
<text text-anchor="start" x="1054" y="-392" font-family="Helvetica,sans-Serif" font-size="10.00">SimulateurFerroviaire</text>
<text text-anchor="start" x="1054" y="-381" font-family="Helvetica,sans-Serif" font-size="10.00">/Modules/InteractiveElements</text>
<text text-anchor="middle" x="1144.5" y="-370" font-family="Helvetica,sans-Serif" font-size="10.00">/ShuntingElements/StraightBlock.cpp</text>
</a>
</g>
</g>
<!-- Node1&#45;&gt;Node17 -->
<g id="edge25_Node000001_Node000017" class="edge">
<title>Node1&#45;&gt;Node17</title>
<g id="a_edge25_Node000001_Node000017"><a xlink:title=" ">
<path fill="none" stroke="#63b8ff" d="M980.17,-436.94C1013.01,-426.46 1051.69,-414.12 1083.27,-404.04"/>
<polygon fill="#63b8ff" stroke="#63b8ff" points="979.09,-433.62 970.63,-439.99 981.22,-440.28 979.09,-433.62"/>
</a>
</g>
</g>
<!-- Node18 -->
<g id="Node000018" class="node">
<title>Node18</title>
<g id="a_Node000018"><a xlink:href="../../d8/d00/PCCGraph_8h.html" target="_top" xlink:title="Conteneur propriétaire du graphe PCC.">
<polygon fill="white" stroke="#666666" points="1375.5,-321.5 1231.5,-321.5 1231.5,-291.5 1375.5,-291.5 1375.5,-321.5"/>
<text text-anchor="start" x="1239.5" y="-309.5" font-family="Helvetica,sans-Serif" font-size="10.00">SimulateurFerroviaire</text>
<text text-anchor="middle" x="1303.5" y="-298.5" font-family="Helvetica,sans-Serif" font-size="10.00">/Modules/PCC/PCCGraph.h</text>
</a>
</g>
</g>
<!-- Node1&#45;&gt;Node18 -->
<g id="edge26_Node000001_Node000018" class="edge">
<title>Node1&#45;&gt;Node18</title>
<g id="a_edge26_Node000001_Node000018"><a xlink:title=" ">
<path fill="none" stroke="#63b8ff" d="M1012.47,-452.91C1099.17,-445.56 1214.91,-430.98 1252.5,-404 1280.67,-383.78 1294.63,-343.16 1300.3,-321.63"/>
<polygon fill="#63b8ff" stroke="#63b8ff" points="1011.99,-449.43 1002.31,-453.74 1012.56,-456.41 1011.99,-449.43"/>
</a>
</g>
</g>
<!-- Node31 -->
<g id="Node000031" class="node">
<title>Node31</title>
<g id="a_Node000031"><a xlink:href="../../d2/d03/PCCStraightNode_8h.html" target="_top" xlink:title="Nœud PCC représentant un StraightBlock.">
<polygon fill="white" stroke="#666666" points="1536,-398.5 1357,-398.5 1357,-368.5 1536,-368.5 1536,-398.5"/>
<text text-anchor="start" x="1365" y="-386.5" font-family="Helvetica,sans-Serif" font-size="10.00">SimulateurFerroviaire</text>
<text text-anchor="middle" x="1446.5" y="-375.5" font-family="Helvetica,sans-Serif" font-size="10.00">/Modules/PCC/PCCStraightNode.h</text>
</a>
</g>
</g>
<!-- Node1&#45;&gt;Node31 -->
<g id="edge44_Node000001_Node000031" class="edge">
<title>Node1&#45;&gt;Node31</title>
<g id="a_edge44_Node000001_Node000031"><a xlink:title=" ">
<path fill="none" stroke="#63b8ff" d="M1012.21,-445.15C1111.94,-431.23 1261.8,-410.3 1356.84,-397.02"/>
<polygon fill="#63b8ff" stroke="#63b8ff" points="1011.54,-441.71 1002.12,-446.56 1012.51,-448.65 1011.54,-441.71"/>
</a>
</g>
</g>
<!-- Node3 -->
<g id="Node000003" class="node">
<title>Node3</title>
<g id="a_Node000003"><a xlink:href="../../de/d00/TopologyRepository_8h.html" target="_top" xlink:title="Singleton de stockage des données topologiques ferroviaires.">
<polygon fill="white" stroke="#666666" points="268,-327 143,-327 143,-286 268,-286 268,-327"/>
<text text-anchor="start" x="151" y="-315" font-family="Helvetica,sans-Serif" font-size="10.00">SimulateurFerroviaire</text>
<text text-anchor="start" x="151" y="-304" font-family="Helvetica,sans-Serif" font-size="10.00">/Engine/Core/Topology</text>
<text text-anchor="middle" x="205.5" y="-293" font-family="Helvetica,sans-Serif" font-size="10.00">/TopologyRepository.h</text>
</a>
</g>
</g>
<!-- Node2&#45;&gt;Node3 -->
<g id="edge2_Node000002_Node000003" class="edge">
<title>Node2&#45;&gt;Node3</title>
<g id="a_edge2_Node000002_Node000003"><a xlink:title=" ">
<path fill="none" stroke="#63b8ff" d="M259.9,-356.07C249.21,-346.52 237.34,-335.93 227.42,-327.07"/>
<polygon fill="#63b8ff" stroke="#63b8ff" points="257.64,-358.75 267.43,-362.79 262.3,-353.52 257.64,-358.75"/>
</a>
</g>
</g>
<!-- Node7 -->
<g id="Node000007" class="node">
<title>Node7</title>
<g id="a_Node000007"><a xlink:href="../../d0/d01/PCCGraphBuilder_8cpp.html" target="_top" xlink:title="Implémentation du constructeur du graphe PCC.">
<polygon fill="white" stroke="#666666" points="427,-167.5 238,-167.5 238,-137.5 427,-137.5 427,-167.5"/>
<text text-anchor="start" x="246" y="-155.5" font-family="Helvetica,sans-Serif" font-size="10.00">SimulateurFerroviaire</text>
<text text-anchor="middle" x="332.5" y="-144.5" font-family="Helvetica,sans-Serif" font-size="10.00">/Modules/PCC/PCCGraphBuilder.cpp</text>
</a>
</g>
</g>
<!-- Node2&#45;&gt;Node7 -->
<g id="edge7_Node000002_Node000007" class="edge">
<title>Node2&#45;&gt;Node7</title>
<g id="a_edge7_Node000002_Node000007"><a xlink:title=" ">
<path fill="none" stroke="#63b8ff" d="M295.01,-353.14C304.36,-303.34 322.99,-204.15 329.87,-167.52"/>
<polygon fill="#63b8ff" stroke="#63b8ff" points="291.57,-352.5 293.17,-362.98 298.45,-353.79 291.57,-352.5"/>
</a>
</g>
</g>
<!-- Node4 -->
<g id="Node000004" class="node">
<title>Node4</title>
<g id="a_Node000004"><a xlink:href="../../de/d02/TopologyRenderer_8cpp.html" target="_top" xlink:title="Implémentation de l&#39;exporteur GeoJSON.">
<polygon fill="white" stroke="#666666" points="181,-250 54,-250 54,-209 181,-209 181,-250"/>
<text text-anchor="start" x="62" y="-238" font-family="Helvetica,sans-Serif" font-size="10.00">SimulateurFerroviaire</text>
<text text-anchor="start" x="62" y="-227" font-family="Helvetica,sans-Serif" font-size="10.00">/Engine/Core/Topology</text>
<text text-anchor="middle" x="117.5" y="-216" font-family="Helvetica,sans-Serif" font-size="10.00">/TopologyRenderer.cpp</text>
</a>
</g>
</g>
<!-- Node3&#45;&gt;Node4 -->
<g id="edge3_Node000003_Node000004" class="edge">
<title>Node3&#45;&gt;Node4</title>
<g id="a_edge3_Node000003_Node000004"><a xlink:title=" ">
<path fill="none" stroke="#63b8ff" d="M174.49,-279.07C163.29,-269.52 150.85,-258.93 140.47,-250.07"/>
<polygon fill="#63b8ff" stroke="#63b8ff" points="172.5,-281.97 182.38,-285.79 177.04,-276.64 172.5,-281.97"/>
</a>
</g>
</g>
<!-- Node5 -->
<g id="Node000005" class="node">
<title>Node5</title>
<g id="a_Node000005"><a xlink:href="../../d3/d03/MainWindow_8cpp.html" target="_top" xlink:title="Implémentation de la fenêtre principale.">
<polygon fill="white" stroke="#666666" points="290,-96 129,-96 129,-66 290,-66 290,-96"/>
<text text-anchor="start" x="137" y="-84" font-family="Helvetica,sans-Serif" font-size="10.00">SimulateurFerroviaire</text>
<text text-anchor="middle" x="209.5" y="-73" font-family="Helvetica,sans-Serif" font-size="10.00">/Engine/HMI/MainWindow.cpp</text>
</a>
</g>
</g>
<!-- Node3&#45;&gt;Node5 -->
<g id="edge4_Node000003_Node000005" class="edge">
<title>Node3&#45;&gt;Node5</title>
<g id="a_edge4_Node000003_Node000005"><a xlink:title=" ">
<path fill="none" stroke="#63b8ff" d="M206.04,-275.41C206.91,-226.56 208.61,-131.85 209.25,-96.11"/>
<polygon fill="#63b8ff" stroke="#63b8ff" points="202.53,-275.6 205.85,-285.67 209.53,-275.73 202.53,-275.6"/>
</a>
</g>
</g>
<!-- Node6 -->
<g id="Node000006" class="node">
<title>Node6</title>
<g id="a_Node000006"><a xlink:href="../../d7/d03/GeoParser_8cpp.html" target="_top" xlink:title="Implémentation du pipeline GeoParser.">
<polygon fill="white" stroke="#666666" points="518,-244.5 333,-244.5 333,-214.5 518,-214.5 518,-244.5"/>
<text text-anchor="start" x="341" y="-232.5" font-family="Helvetica,sans-Serif" font-size="10.00">SimulateurFerroviaire</text>
<text text-anchor="middle" x="425.5" y="-221.5" font-family="Helvetica,sans-Serif" font-size="10.00">/Modules/GeoParser/GeoParser.cpp</text>
</a>
</g>
</g>
<!-- Node3&#45;&gt;Node6 -->
<g id="edge5_Node000003_Node000006" class="edge">
<title>Node3&#45;&gt;Node6</title>
<g id="a_edge5_Node000003_Node000006"><a xlink:title=" ">
<path fill="none" stroke="#63b8ff" d="M272.3,-282.73C308.75,-270.3 352.72,-255.31 384.19,-244.58"/>
<polygon fill="#63b8ff" stroke="#63b8ff" points="271.06,-279.45 262.73,-285.99 273.32,-286.08 271.06,-279.45"/>
</a>
</g>
</g>
<!-- Node3&#45;&gt;Node7 -->
<g id="edge6_Node000003_Node000007" class="edge">
<title>Node3&#45;&gt;Node7</title>
<g id="a_edge6_Node000003_Node000007"><a xlink:title=" ">
<path fill="none" stroke="#63b8ff" d="M227.14,-277.48C242.34,-258.03 263.3,-231.64 282.5,-209 294.58,-194.76 308.89,-178.98 319.1,-167.9"/>
<polygon fill="#63b8ff" stroke="#63b8ff" points="224.18,-275.59 220.79,-285.63 229.7,-279.89 224.18,-275.59"/>
</a>
</g>
</g>
<!-- Node8&#45;&gt;Node4 -->
<g id="edge9_Node000008_Node000004" class="edge">
<title>Node8&#45;&gt;Node4</title>
<g id="a_edge9_Node000008_Node000004"><a xlink:title=" ">
<path fill="none" stroke="#63b8ff" d="M82.91,-277.67C89.63,-268.5 96.97,-258.5 103.15,-250.07"/>
<polygon fill="#63b8ff" stroke="#63b8ff" points="80.04,-275.66 76.95,-285.79 85.69,-279.8 80.04,-275.66"/>
</a>
</g>
</g>
<!-- Node8&#45;&gt;Node5 -->
<g id="edge10_Node000008_Node000005" class="edge">
<title>Node8&#45;&gt;Node5</title>
<g id="a_edge10_Node000008_Node000005"><a xlink:title=" ">
<path fill="none" stroke="#63b8ff" d="M47.89,-276.23C40.13,-256.39 34.13,-230.06 44.5,-209 71.96,-153.22 137,-115.06 176.73,-96.03"/>
<polygon fill="#63b8ff" stroke="#63b8ff" points="44.77,-277.83 51.9,-285.67 51.21,-275.09 44.77,-277.83"/>
</a>
</g>
</g>
<!-- Node8&#45;&gt;Node6 -->
<g id="edge11_Node000008_Node000006" class="edge">
<title>Node8&#45;&gt;Node6</title>
<g id="a_edge11_Node000008_Node000006"><a xlink:title=" ">
<path fill="none" stroke="#63b8ff" d="M135.24,-285.67C210.21,-268.51 285.97,-254.38 342.06,-244.53"/>
<polygon fill="#63b8ff" stroke="#63b8ff" points="134.11,-282.34 125.15,-288 135.68,-289.16 134.11,-282.34"/>
</a>
</g>
</g>
<!-- Node9&#45;&gt;Node6 -->
<g id="edge14_Node000009_Node000006" class="edge">
<title>Node9&#45;&gt;Node6</title>
<g id="a_edge14_Node000009_Node000006"><a xlink:title=" ">
<path fill="none" stroke="#63b8ff" d="M387.13,-358.1C373.75,-350.29 361.52,-340.14 353.5,-327 344.01,-311.45 345.46,-302.35 353.5,-286 362.42,-267.87 380.42,-254 396.19,-244.65"/>
<polygon fill="#63b8ff" stroke="#63b8ff" points="385.6,-361.25 396.06,-362.9 388.91,-355.09 385.6,-361.25"/>
</a>
</g>
</g>
<!-- Node10 -->
<g id="Node000010" class="node">
<title>Node10</title>
<g id="a_Node000010"><a xlink:href="../../dd/d02/DoubleSwitchDetector_8cpp.html" target="_top" xlink:title="Implémentation phases 7 et 8 — doubles aiguilles et validation CDC.">
<polygon fill="white" stroke="#666666" points="546,-327 363,-327 363,-286 546,-286 546,-327"/>
<text text-anchor="start" x="371" y="-315" font-family="Helvetica,sans-Serif" font-size="10.00">SimulateurFerroviaire</text>
<text text-anchor="start" x="371" y="-304" font-family="Helvetica,sans-Serif" font-size="10.00">/Modules/GeoParser/DoubleSwitch</text>
<text text-anchor="middle" x="454.5" y="-293" font-family="Helvetica,sans-Serif" font-size="10.00">Detector.cpp</text>
</a>
</g>
</g>
<!-- Node9&#45;&gt;Node10 -->
<g id="edge13_Node000009_Node000010" class="edge">
<title>Node9&#45;&gt;Node10</title>
<g id="a_edge13_Node000009_Node000010"><a xlink:title=" ">
<path fill="none" stroke="#63b8ff" d="M458.72,-352.69C457.91,-344.08 457.06,-334.9 456.33,-327.07"/>
<polygon fill="#63b8ff" stroke="#63b8ff" points="455.25,-353.16 459.66,-362.79 462.22,-352.51 455.25,-353.16"/>
</a>
</g>
</g>
<!-- Node11&#45;&gt;Node6 -->
<g id="edge16_Node000011_Node000006" class="edge">
<title>Node11&#45;&gt;Node6</title>
<g id="a_edge16_Node000011_Node000006"><a xlink:title=" ">
<path fill="none" stroke="#63b8ff" d="M738.97,-359.5C750.39,-338.11 761.78,-306.52 744.5,-286 714.29,-250.11 582.71,-258.06 536.5,-250 526.38,-248.24 515.74,-246.37 505.23,-244.53"/>
<polygon fill="#63b8ff" stroke="#63b8ff" points="735.88,-357.84 733.99,-368.26 741.97,-361.3 735.88,-357.84"/>
</a>
</g>
</g>
<!-- Node12 -->
<g id="Node000012" class="node">
<title>Node12</title>
<g id="a_Node000012"><a xlink:href="../../dd/d01/GeoParsingTask_8cpp.html" target="_top" xlink:title="Implémentation de la tâche de parsing GeoJSON asynchrone.">
<polygon fill="white" stroke="#666666" points="735,-327 564,-327 564,-286 735,-286 735,-327"/>
<text text-anchor="start" x="572" y="-315" font-family="Helvetica,sans-Serif" font-size="10.00">SimulateurFerroviaire</text>
<text text-anchor="start" x="572" y="-304" font-family="Helvetica,sans-Serif" font-size="10.00">/Modules/GeoParser/GeoParsing</text>
<text text-anchor="middle" x="649.5" y="-293" font-family="Helvetica,sans-Serif" font-size="10.00">Task.cpp</text>
</a>
</g>
</g>
<!-- Node11&#45;&gt;Node12 -->
<g id="edge17_Node000011_Node000012" class="edge">
<title>Node11&#45;&gt;Node12</title>
<g id="a_edge17_Node000011_Node000012"><a xlink:title=" ">
<path fill="none" stroke="#63b8ff" d="M703.07,-361.07C692.41,-350.41 679.62,-337.62 669.2,-327.2"/>
<polygon fill="#63b8ff" stroke="#63b8ff" points="700.85,-363.8 710.39,-368.39 705.8,-358.85 700.85,-363.8"/>
</a>
</g>
</g>
<!-- Node13&#45;&gt;Node6 -->
<g id="edge19_Node000013_Node000006" class="edge">
<title>Node13&#45;&gt;Node6</title>
<g id="a_edge19_Node000013_Node000006"><a xlink:title=" ">
<path fill="none" stroke="#63b8ff" d="M1025.72,-289.87C1016.55,-288.44 1007.34,-287.11 998.5,-286 794.15,-260.31 740.83,-275.85 536.5,-250 524.56,-248.49 511.95,-246.58 499.69,-244.55"/>
<polygon fill="#63b8ff" stroke="#63b8ff" points="1025.21,-293.33 1035.64,-291.46 1026.32,-286.42 1025.21,-293.33"/>
</a>
</g>
</g>
<!-- Node14 -->
<g id="Node000014" class="node">
<title>Node14</title>
<g id="a_Node000014"><a xlink:href="../../d0/d03/SwitchOrientator_8cpp.html" target="_top" xlink:title="Implémentation des phases 6, 6b, 6c et 6d — orientation des aiguillages.">
<polygon fill="white" stroke="#666666" points="763.5,-244.5 545.5,-244.5 545.5,-214.5 763.5,-214.5 763.5,-244.5"/>
<text text-anchor="start" x="553.5" y="-232.5" font-family="Helvetica,sans-Serif" font-size="10.00">SimulateurFerroviaire</text>
<text text-anchor="middle" x="654.5" y="-221.5" font-family="Helvetica,sans-Serif" font-size="10.00">/Modules/GeoParser/SwitchOrientator.cpp</text>
</a>
</g>
</g>
<!-- Node13&#45;&gt;Node14 -->
<g id="edge20_Node000013_Node000014" class="edge">
<title>Node13&#45;&gt;Node14</title>
<g id="a_edge20_Node000013_Node000014"><a xlink:title=" ">
<path fill="none" stroke="#63b8ff" d="M1020.78,-289.76C1013.24,-288.48 1005.74,-287.21 998.5,-286 898.17,-269.28 872.9,-266.29 772.5,-250 761.64,-248.24 750.21,-246.37 738.93,-244.51"/>
<polygon fill="#63b8ff" stroke="#63b8ff" points="1020.23,-293.22 1030.68,-291.46 1021.42,-286.32 1020.23,-293.22"/>
</a>
</g>
</g>
<!-- Node15&#45;&gt;Node6 -->
<g id="edge22_Node000015_Node000006" class="edge">
<title>Node15&#45;&gt;Node6</title>
<g id="a_edge22_Node000015_Node000006"><a xlink:title=" ">
<path fill="none" stroke="#63b8ff" d="M868.42,-357.57C853.24,-348.17 835.97,-337.28 820.5,-327 794.21,-309.53 791.74,-297.9 762.5,-286 668.3,-247.65 636.81,-266.8 536.5,-250 526.08,-248.25 515.12,-246.38 504.3,-244.5"/>
<polygon fill="#63b8ff" stroke="#63b8ff" points="866.73,-360.64 877.08,-362.91 870.4,-354.68 866.73,-360.64"/>
</a>
</g>
</g>
<!-- Node15&#45;&gt;Node13 -->
<g id="edge23_Node000015_Node000013" class="edge">
<title>Node15&#45;&gt;Node13</title>
<g id="a_edge23_Node000015_Node000013"><a xlink:title=" ">
<path fill="none" stroke="#63b8ff" d="M971.39,-359.41C1004.52,-347.05 1044.25,-332.22 1072.76,-321.58"/>
<polygon fill="#63b8ff" stroke="#63b8ff" points="969.93,-356.22 961.79,-362.99 972.38,-362.77 969.93,-356.22"/>
</a>
</g>
</g>
<!-- Node16 -->
<g id="Node000016" class="node">
<title>Node16</title>
<g id="a_Node000016"><a xlink:href="../../d9/d02/TopologyExtractor_8cpp.html" target="_top" xlink:title="Implémentation des phases 3, 4, 5a et 5b du pipeline GeoParser.">
<polygon fill="white" stroke="#666666" points="989.5,-327 829.5,-327 829.5,-286 989.5,-286 989.5,-327"/>
<text text-anchor="start" x="837.5" y="-315" font-family="Helvetica,sans-Serif" font-size="10.00">SimulateurFerroviaire</text>
<text text-anchor="start" x="837.5" y="-304" font-family="Helvetica,sans-Serif" font-size="10.00">/Modules/GeoParser/Topology</text>
<text text-anchor="middle" x="909.5" y="-293" font-family="Helvetica,sans-Serif" font-size="10.00">Extractor.cpp</text>
</a>
</g>
</g>
<!-- Node15&#45;&gt;Node16 -->
<g id="edge24_Node000015_Node000016" class="edge">
<title>Node15&#45;&gt;Node16</title>
<g id="a_edge24_Node000015_Node000016"><a xlink:title=" ">
<path fill="none" stroke="#63b8ff" d="M909.5,-352.69C909.5,-344.08 909.5,-334.9 909.5,-327.07"/>
<polygon fill="#63b8ff" stroke="#63b8ff" points="906,-352.79 909.5,-362.79 913,-352.79 906,-352.79"/>
</a>
</g>
</g>
<!-- Node19 -->
<g id="Node000019" class="node">
<title>Node19</title>
<g id="a_Node000019"><a xlink:href="../../d5/d00/PCCPanel_8h.html" target="_top" xlink:title="Panneau PCC superposé togglable, affiché par&#45;dessus la carte Leaflet.">
<polygon fill="white" stroke="#666666" points="1267.5,-250 1143.5,-250 1143.5,-209 1267.5,-209 1267.5,-250"/>
<text text-anchor="start" x="1151.5" y="-238" font-family="Helvetica,sans-Serif" font-size="10.00">SimulateurFerroviaire</text>
<text text-anchor="start" x="1151.5" y="-227" font-family="Helvetica,sans-Serif" font-size="10.00">/Engine/HMI/PCCPanel</text>
<text text-anchor="middle" x="1205.5" y="-216" font-family="Helvetica,sans-Serif" font-size="10.00">/PCCPanel.h</text>
</a>
</g>
</g>
<!-- Node18&#45;&gt;Node19 -->
<g id="edge27_Node000018_Node000019" class="edge">
<title>Node18&#45;&gt;Node19</title>
<g id="a_edge27_Node000018_Node000019"><a xlink:title=" ">
<path fill="none" stroke="#63b8ff" d="M1277.11,-285.31C1262.88,-274.41 1245.38,-261.02 1231.25,-250.2"/>
<polygon fill="#63b8ff" stroke="#63b8ff" points="1275,-288.09 1285.07,-291.39 1279.25,-282.54 1275,-288.09"/>
</a>
</g>
</g>
<!-- Node25 -->
<g id="Node000025" class="node">
<title>Node25</title>
<g id="a_Node000025"><a xlink:href="../../d8/d02/TCORenderer_8h.html" target="_top" xlink:title="Renderer GDI du schéma TCO — style SNCF, blocs fixes.">
<polygon fill="white" stroke="#666666" points="1409.5,-250 1285.5,-250 1285.5,-209 1409.5,-209 1409.5,-250"/>
<text text-anchor="start" x="1293.5" y="-238" font-family="Helvetica,sans-Serif" font-size="10.00">SimulateurFerroviaire</text>
<text text-anchor="start" x="1293.5" y="-227" font-family="Helvetica,sans-Serif" font-size="10.00">/Engine/HMI/PCCPanel</text>
<text text-anchor="middle" x="1347.5" y="-216" font-family="Helvetica,sans-Serif" font-size="10.00">/TCORenderer.h</text>
</a>
</g>
</g>
<!-- Node18&#45;&gt;Node25 -->
<g id="edge34_Node000018_Node000025" class="edge">
<title>Node18&#45;&gt;Node25</title>
<g id="a_edge34_Node000018_Node000025"><a xlink:title=" ">
<path fill="none" stroke="#63b8ff" d="M1316.99,-282.51C1323.05,-272.18 1330.13,-260.11 1335.94,-250.2"/>
<polygon fill="#63b8ff" stroke="#63b8ff" points="1313.82,-281 1311.78,-291.39 1319.86,-284.54 1313.82,-281"/>
</a>
</g>
</g>
<!-- Node27 -->
<g id="Node000027" class="node">
<title>Node27</title>
<g id="a_Node000027"><a xlink:href="../../d9/d00/PCCGraph_8cpp.html" target="_top" xlink:title="Implémentation du conteneur propriétaire du graphe PCC.">
<polygon fill="white" stroke="#666666" points="1583,-244.5 1428,-244.5 1428,-214.5 1583,-214.5 1583,-244.5"/>
<text text-anchor="start" x="1436" y="-232.5" font-family="Helvetica,sans-Serif" font-size="10.00">SimulateurFerroviaire</text>
<text text-anchor="middle" x="1505.5" y="-221.5" font-family="Helvetica,sans-Serif" font-size="10.00">/Modules/PCC/PCCGraph.cpp</text>
</a>
</g>
</g>
<!-- Node18&#45;&gt;Node27 -->
<g id="edge37_Node000018_Node000027" class="edge">
<title>Node18&#45;&gt;Node27</title>
<g id="a_edge37_Node000018_Node000027"><a xlink:title=" ">
<path fill="none" stroke="#63b8ff" d="M1351.18,-287.8C1386.76,-274.59 1434.72,-256.78 1467.68,-244.54"/>
<polygon fill="#63b8ff" stroke="#63b8ff" points="1349.65,-284.63 1341.49,-291.39 1352.09,-291.19 1349.65,-284.63"/>
</a>
</g>
</g>
<!-- Node28 -->
<g id="Node000028" class="node">
<title>Node28</title>
<g id="a_Node000028"><a xlink:href="../../db/d02/PCCGraphBuilder_8h.html" target="_top" xlink:title="Constructeur du graphe PCC depuis TopologyRepository.">
<polygon fill="white" stroke="#666666" points="959.5,-244.5 781.5,-244.5 781.5,-214.5 959.5,-214.5 959.5,-244.5"/>
<text text-anchor="start" x="789.5" y="-232.5" font-family="Helvetica,sans-Serif" font-size="10.00">SimulateurFerroviaire</text>
<text text-anchor="middle" x="870.5" y="-221.5" font-family="Helvetica,sans-Serif" font-size="10.00">/Modules/PCC/PCCGraphBuilder.h</text>
</a>
</g>
</g>
<!-- Node18&#45;&gt;Node28 -->
<g id="edge38_Node000018_Node000028" class="edge">
<title>Node18&#45;&gt;Node28</title>
<g id="a_edge38_Node000018_Node000028"><a xlink:title=" ">
<path fill="none" stroke="#63b8ff" d="M1238.17,-289.21C1232.88,-288.06 1227.61,-286.97 1222.5,-286 1110.5,-264.63 1080.9,-269.13 968.5,-250 958.75,-248.34 948.49,-246.45 938.42,-244.52"/>
<polygon fill="#63b8ff" stroke="#63b8ff" points="1237.79,-292.71 1248.32,-291.47 1239.32,-285.88 1237.79,-292.71"/>
</a>
</g>
</g>
<!-- Node29 -->
<g id="Node000029" class="node">
<title>Node29</title>
<g id="a_Node000029"><a xlink:href="../../d6/d01/PCCLayout_8h.html" target="_top" xlink:title="Calcul des positions logiques X/Y du graphe PCC par parcours BFS.">
<polygon fill="white" stroke="#666666" points="1125.5,-244.5 977.5,-244.5 977.5,-214.5 1125.5,-214.5 1125.5,-244.5"/>
<text text-anchor="start" x="985.5" y="-232.5" font-family="Helvetica,sans-Serif" font-size="10.00">SimulateurFerroviaire</text>
<text text-anchor="middle" x="1051.5" y="-221.5" font-family="Helvetica,sans-Serif" font-size="10.00">/Modules/PCC/PCCLayout.h</text>
</a>
</g>
</g>
<!-- Node18&#45;&gt;Node29 -->
<g id="edge41_Node000018_Node000029" class="edge">
<title>Node18&#45;&gt;Node29</title>
<g id="a_edge41_Node000018_Node000029"><a xlink:title=" ">
<path fill="none" stroke="#63b8ff" d="M1246.58,-288.56C1202,-275.29 1140.71,-257.05 1098.8,-244.58"/>
<polygon fill="#63b8ff" stroke="#63b8ff" points="1245.81,-291.98 1256.4,-291.48 1247.81,-285.27 1245.81,-291.98"/>
</a>
</g>
</g>
<!-- Node20 -->
<g id="Node000020" class="node">
<title>Node20</title>
<g id="a_Node000020"><a xlink:href="../../da/d00/MainWindow_8h.html" target="_top" xlink:title="Déclaration de la fenêtre principale de l&#39;application.">
<polygon fill="white" stroke="#666666" points="1281,-167.5 1132,-167.5 1132,-137.5 1281,-137.5 1281,-167.5"/>
<text text-anchor="start" x="1140" y="-155.5" font-family="Helvetica,sans-Serif" font-size="10.00">SimulateurFerroviaire</text>
<text text-anchor="middle" x="1206.5" y="-144.5" font-family="Helvetica,sans-Serif" font-size="10.00">/Engine/HMI/MainWindow.h</text>
</a>
</g>
</g>
<!-- Node19&#45;&gt;Node20 -->
<g id="edge28_Node000019_Node000020" class="edge">
<title>Node19&#45;&gt;Node20</title>
<g id="a_edge28_Node000019_Node000020"><a xlink:title=" ">
<path fill="none" stroke="#63b8ff" d="M1205.9,-198.61C1206.04,-188.01 1206.19,-176.57 1206.31,-167.86"/>
<polygon fill="#63b8ff" stroke="#63b8ff" points="1202.4,-198.75 1205.76,-208.79 1209.4,-198.84 1202.4,-198.75"/>
</a>
</g>
</g>
<!-- Node24 -->
<g id="Node000024" class="node">
<title>Node24</title>
<g id="a_Node000024"><a xlink:href="../../d4/d03/PCCPanel_8cpp.html" target="_top" xlink:title="Implémentation du panneau PCC superposé togglable.">
<polygon fill="white" stroke="#666666" points="1113.5,-173 989.5,-173 989.5,-132 1113.5,-132 1113.5,-173"/>
<text text-anchor="start" x="997.5" y="-161" font-family="Helvetica,sans-Serif" font-size="10.00">SimulateurFerroviaire</text>
<text text-anchor="start" x="997.5" y="-150" font-family="Helvetica,sans-Serif" font-size="10.00">/Engine/HMI/PCCPanel</text>
<text text-anchor="middle" x="1051.5" y="-139" font-family="Helvetica,sans-Serif" font-size="10.00">/PCCPanel.cpp</text>
</a>
</g>
</g>
<!-- Node19&#45;&gt;Node24 -->
<g id="edge33_Node000019_Node000024" class="edge">
<title>Node19&#45;&gt;Node24</title>
<g id="a_edge33_Node000019_Node000024"><a xlink:title=" ">
<path fill="none" stroke="#63b8ff" d="M1156.4,-204.59C1135.5,-194.41 1111.43,-182.69 1091.63,-173.04"/>
<polygon fill="#63b8ff" stroke="#63b8ff" points="1154.92,-207.76 1165.44,-208.99 1157.98,-201.47 1154.92,-207.76"/>
</a>
</g>
</g>
<!-- Node20&#45;&gt;Node5 -->
<g id="edge32_Node000020_Node000005" class="edge">
<title>Node20&#45;&gt;Node5</title>
<g id="a_edge32_Node000020_Node000005"><a xlink:title=" ">
<path fill="none" stroke="#63b8ff" d="M1141.89,-135.32C1135.37,-134.04 1128.82,-132.9 1122.5,-132 817.41,-88.57 450.03,-82.25 290.26,-81.74"/>
<polygon fill="#63b8ff" stroke="#63b8ff" points="1141.58,-138.83 1152.08,-137.42 1143,-131.97 1141.58,-138.83"/>
</a>
</g>
</g>
<!-- Node21 -->
<g id="Node000021" class="node">
<title>Node21</title>
<g id="a_Node000021"><a xlink:href="../../d4/d00/Application_8h.html" target="_top" xlink:title="Gestion du cycle de vie de l&#39;application Win32.">
<polygon fill="white" stroke="#666666" points="1279,-96 1134,-96 1134,-66 1279,-66 1279,-96"/>
<text text-anchor="start" x="1142" y="-84" font-family="Helvetica,sans-Serif" font-size="10.00">SimulateurFerroviaire</text>
<text text-anchor="middle" x="1206.5" y="-73" font-family="Helvetica,sans-Serif" font-size="10.00">/Engine/Core/Application.h</text>
</a>
</g>
</g>
<!-- Node20&#45;&gt;Node21 -->
<g id="edge29_Node000020_Node000021" class="edge">
<title>Node20&#45;&gt;Node21</title>
<g id="a_edge29_Node000020_Node000021"><a xlink:title=" ">
<path fill="none" stroke="#63b8ff" d="M1206.5,-127.25C1206.5,-116.81 1206.5,-104.99 1206.5,-96.04"/>
<polygon fill="#63b8ff" stroke="#63b8ff" points="1203,-127.44 1206.5,-137.44 1210,-127.44 1203,-127.44"/>
</a>
</g>
</g>
<!-- Node22 -->
<g id="Node000022" class="node">
<title>Node22</title>
<g id="a_Node000022"><a xlink:href="../../d2/d02/Application_8cpp.html" target="_top" xlink:title="Implémentation du cycle de vie de l&#39;application Win32.">
<polygon fill="white" stroke="#666666" points="1200.5,-30 1044.5,-30 1044.5,0 1200.5,0 1200.5,-30"/>
<text text-anchor="start" x="1052.5" y="-18" font-family="Helvetica,sans-Serif" font-size="10.00">SimulateurFerroviaire</text>
<text text-anchor="middle" x="1122.5" y="-7" font-family="Helvetica,sans-Serif" font-size="10.00">/Engine/Core/Application.cpp</text>
</a>
</g>
</g>
<!-- Node21&#45;&gt;Node22 -->
<g id="edge30_Node000021_Node000022" class="edge">
<title>Node21&#45;&gt;Node22</title>
<g id="a_edge30_Node000021_Node000022"><a xlink:title=" ">
<path fill="none" stroke="#63b8ff" d="M1179.56,-59.48C1167.01,-49.91 1152.39,-38.77 1141.09,-30.16"/>
<polygon fill="#63b8ff" stroke="#63b8ff" points="1177.78,-62.52 1187.86,-65.8 1182.02,-56.95 1177.78,-62.52"/>
</a>
</g>
</g>
<!-- Node23 -->
<g id="Node000023" class="node">
<title>Node23</title>
<g id="a_Node000023"><a xlink:href="../../db/d00/SimulateurFerroviaire_8cpp.html" target="_top" xlink:title="Point d&#39;entrée unique de l&#39;application Win32.">
<polygon fill="white" stroke="#666666" points="1364.5,-30 1218.5,-30 1218.5,0 1364.5,0 1364.5,-30"/>
<text text-anchor="start" x="1226.5" y="-18" font-family="Helvetica,sans-Serif" font-size="10.00">SimulateurFerroviaire</text>
<text text-anchor="middle" x="1291.5" y="-7" font-family="Helvetica,sans-Serif" font-size="10.00">/SimulateurFerroviaire.cpp</text>
</a>
</g>
</g>
<!-- Node21&#45;&gt;Node23 -->
<g id="edge31_Node000021_Node000023" class="edge">
<title>Node21&#45;&gt;Node23</title>
<g id="a_edge31_Node000021_Node000023"><a xlink:title=" ">
<path fill="none" stroke="#63b8ff" d="M1233.39,-59.75C1246.17,-50.13 1261.14,-38.86 1272.69,-30.16"/>
<polygon fill="#63b8ff" stroke="#63b8ff" points="1231.25,-56.99 1225.36,-65.8 1235.46,-62.58 1231.25,-56.99"/>
</a>
</g>
</g>
<!-- Node25&#45;&gt;Node24 -->
<g id="edge35_Node000025_Node000024" class="edge">
<title>Node25&#45;&gt;Node24</title>
<g id="a_edge35_Node000025_Node000024"><a xlink:title=" ">
<path fill="none" stroke="#63b8ff" d="M1275.25,-208.73C1207.13,-191.57 1188.18,-189.36 1123.5,-173 1120.24,-172.17 1116.89,-171.31 1113.52,-170.44"/>
<polygon fill="#63b8ff" stroke="#63b8ff" points="1274.64,-212.18 1285.2,-211.25 1276.36,-205.4 1274.64,-212.18"/>
</a>
</g>
</g>
<!-- Node26 -->
<g id="Node000026" class="node">
<title>Node26</title>
<g id="a_Node000026"><a xlink:href="../../d4/d02/TCORenderer_8cpp.html" target="_top" xlink:title="Renderer GDI TCO — style SNCF, blocs fixes.">
<polygon fill="white" stroke="#666666" points="1547.5,-173 1423.5,-173 1423.5,-132 1547.5,-132 1547.5,-173"/>
<text text-anchor="start" x="1431.5" y="-161" font-family="Helvetica,sans-Serif" font-size="10.00">SimulateurFerroviaire</text>
<text text-anchor="start" x="1431.5" y="-150" font-family="Helvetica,sans-Serif" font-size="10.00">/Engine/HMI/PCCPanel</text>
<text text-anchor="middle" x="1485.5" y="-139" font-family="Helvetica,sans-Serif" font-size="10.00">/TCORenderer.cpp</text>
</a>
</g>
</g>
<!-- Node25&#45;&gt;Node26 -->
<g id="edge36_Node000025_Node000026" class="edge">
<title>Node25&#45;&gt;Node26</title>
<g id="a_edge36_Node000025_Node000026"><a xlink:title=" ">
<path fill="none" stroke="#63b8ff" d="M1392.22,-204.19C1410.7,-194.15 1431.83,-182.67 1449.3,-173.17"/>
<polygon fill="#63b8ff" stroke="#63b8ff" points="1390.51,-201.14 1383.4,-208.99 1393.86,-207.29 1390.51,-201.14"/>
</a>
</g>
</g>
<!-- Node28&#45;&gt;Node7 -->
<g id="edge40_Node000028_Node000007" class="edge">
<title>Node28&#45;&gt;Node7</title>
<g id="a_edge40_Node000028_Node000007"><a xlink:title=" ">
<path fill="none" stroke="#63b8ff" d="M793.19,-212.59C786.2,-211.31 779.23,-210.09 772.5,-209 653.94,-189.75 516.49,-173.35 427.19,-163.48"/>
<polygon fill="#63b8ff" stroke="#63b8ff" points="792.93,-216.1 803.4,-214.49 794.21,-209.22 792.93,-216.1"/>
</a>
</g>
</g>
<!-- Node28&#45;&gt;Node24 -->
<g id="edge39_Node000028_Node000024" class="edge">
<title>Node28&#45;&gt;Node24</title>
<g id="a_edge39_Node000028_Node000024"><a xlink:title=" ">
<path fill="none" stroke="#63b8ff" d="M913.84,-210.54C941.11,-199.24 976.31,-184.66 1004.29,-173.06"/>
<polygon fill="#63b8ff" stroke="#63b8ff" points="912.44,-207.33 904.54,-214.39 915.12,-213.8 912.44,-207.33"/>
</a>
</g>
</g>
<!-- Node29&#45;&gt;Node24 -->
<g id="edge42_Node000029_Node000024" class="edge">
<title>Node29&#45;&gt;Node24</title>
<g id="a_edge42_Node000029_Node000024"><a xlink:title=" ">
<path fill="none" stroke="#63b8ff" d="M1051.5,-204.23C1051.5,-194.2 1051.5,-182.71 1051.5,-173.2"/>
<polygon fill="#63b8ff" stroke="#63b8ff" points="1048,-204.39 1051.5,-214.39 1055,-204.39 1048,-204.39"/>
</a>
</g>
</g>
<!-- Node30 -->
<g id="Node000030" class="node">
<title>Node30</title>
<g id="a_Node000030"><a xlink:href="../../d3/d02/PCCLayout_8cpp.html" target="_top" xlink:title="Implémentation du calculateur de positions logiques PCC.">
<polygon fill="white" stroke="#666666" points="972,-167.5 813,-167.5 813,-137.5 972,-137.5 972,-167.5"/>
<text text-anchor="start" x="821" y="-155.5" font-family="Helvetica,sans-Serif" font-size="10.00">SimulateurFerroviaire</text>
<text text-anchor="middle" x="892.5" y="-144.5" font-family="Helvetica,sans-Serif" font-size="10.00">/Modules/PCC/PCCLayout.cpp</text>
</a>
</g>
</g>
<!-- Node29&#45;&gt;Node30 -->
<g id="edge43_Node000029_Node000030" class="edge">
<title>Node29&#45;&gt;Node30</title>
<g id="a_edge43_Node000029_Node000030"><a xlink:title=" ">
<path fill="none" stroke="#63b8ff" d="M1012.53,-210.12C984.68,-196.98 947.77,-179.57 922.27,-167.54"/>
<polygon fill="#63b8ff" stroke="#63b8ff" points="1011.06,-213.29 1021.59,-214.39 1014.04,-206.96 1011.06,-213.29"/>
</a>
</g>
</g>
<!-- Node31&#45;&gt;Node18 -->
<g id="edge46_Node000031_Node000018" class="edge">
<title>Node31&#45;&gt;Node18</title>
<g id="a_edge46_Node000031_Node000018"><a xlink:title=" ">
<path fill="none" stroke="#63b8ff" d="M1410.46,-363.6C1385.54,-350.53 1352.91,-333.41 1330.28,-321.54"/>
<polygon fill="#63b8ff" stroke="#63b8ff" points="1409.12,-366.85 1419.6,-368.39 1412.37,-360.65 1409.12,-366.85"/>
</a>
</g>
</g>
<!-- Node31&#45;&gt;Node26 -->
<g id="edge45_Node000031_Node000026" class="edge">
<title>Node31&#45;&gt;Node26</title>
<g id="a_edge45_Node000031_Node000026"><a xlink:title=" ">
<path fill="none" stroke="#63b8ff" d="M1542.26,-364.75C1561.99,-356.54 1580.41,-344.54 1592.5,-327 1622.28,-283.83 1619.74,-253.82 1592.5,-209 1582.28,-192.19 1565.14,-180.24 1547.54,-171.85"/>
<polygon fill="#63b8ff" stroke="#63b8ff" points="1540.9,-361.52 1532.81,-368.37 1543.4,-368.06 1540.9,-361.52"/>
</a>
</g>
</g>
<!-- Node32 -->
<g id="Node000032" class="node">
<title>Node32</title>
<g id="a_Node000032"><a xlink:href="../../d1/d01/PCCStraightNode_8cpp.html" target="_top" xlink:title="Implémentation du nœud PCC pour voie droite.">
<polygon fill="white" stroke="#666666" points="1583.5,-321.5 1393.5,-321.5 1393.5,-291.5 1583.5,-291.5 1583.5,-321.5"/>
<text text-anchor="start" x="1401.5" y="-309.5" font-family="Helvetica,sans-Serif" font-size="10.00">SimulateurFerroviaire</text>
<text text-anchor="middle" x="1488.5" y="-298.5" font-family="Helvetica,sans-Serif" font-size="10.00">/Modules/PCC/PCCStraightNode.cpp</text>
</a>
</g>
</g>
<!-- Node31&#45;&gt;Node32 -->
<g id="edge47_Node000031_Node000032" class="edge">
<title>Node31&#45;&gt;Node32</title>
<g id="a_edge47_Node000031_Node000032"><a xlink:title=" ">
<path fill="none" stroke="#63b8ff" d="M1459.37,-359.51C1466.32,-347.11 1474.66,-332.21 1480.64,-321.54"/>
<polygon fill="#63b8ff" stroke="#63b8ff" points="1456.23,-357.96 1454.4,-368.39 1462.34,-361.38 1456.23,-357.96"/>
</a>
</g>
</g>
</g>
</svg>
