<?xml version="1.0" encoding="UTF-8" standalone="no"?>
<!DOCTYPE svg PUBLIC "-//W3C//DTD SVG 1.1//EN"
 "http://www.w3.org/Graphics/SVG/1.1/DTD/svg11.dtd">
<!-- Generated by graphviz version 2.43.0 (0)
 -->
<!-- Title: SimulateurFerroviaire/Engine/HMI/WebViewPanel/WebViewPanel.h Pages: 1 -->
<svg width="497pt" height="258pt"
 viewBox="0.00 0.00 496.50 258.00" xmlns="http://www.w3.org/2000/svg" xmlns:xlink="http://www.w3.org/1999/xlink">
<g id="graph0" class="graph" transform="scale(1 1) rotate(0) translate(4 254)">
<title>SimulateurFerroviaire/Engine/HMI/WebViewPanel/WebViewPanel.h</title>
<!-- Node1 -->
<g id="Node000001" class="node">
<title>Node1</title>
<g id="a_Node000001"><a xlink:title=" ">
<polygon fill="#999999" stroke="#666666" points="404.5,-250 255.5,-250 255.5,-209 404.5,-209 404.5,-250"/>
<text text-anchor="start" x="263.5" y="-238" font-family="Helvetica,sans-Serif" font-size="10.00">SimulateurFerroviaire</text>
<text text-anchor="start" x="263.5" y="-227" font-family="Helvetica,sans-Serif" font-size="10.00">/Engine/HMI/WebViewPanel</text>
<text text-anchor="middle" x="330" y="-216" font-family="Helvetica,sans-Serif" font-size="10.00">/WebViewPanel.h</text>
</a>
</g>
</g>
<!-- Node2 -->
<g id="Node000002" class="node">
<title>Node2</title>
<g id="a_Node000002"><a xlink:href="../../da/d00/MainWindow_8h.html" target="_top" xlink:title="Déclaration de la fenêtre principale de l&#39;application.">
<polygon fill="white" stroke="#666666" points="321.5,-167.5 172.5,-167.5 172.5,-137.5 321.5,-137.5 321.5,-167.5"/>
<text text-anchor="start" x="180.5" y="-155.5" font-family="Helvetica,sans-Serif" font-size="10.00">SimulateurFerroviaire</text>
<text text-anchor="middle" x="247" y="-144.5" font-family="Helvetica,sans-Serif" font-size="10.00">/Engine/HMI/MainWindow.h</text>
</a>
</g>
</g>
<!-- Node1&#45;&gt;Node2 -->
<g id="edge1_Node000001_Node000002" class="edge">
<title>Node1&#45;&gt;Node2</title>
<g id="a_edge1_Node000001_Node000002"><a xlink:title=" ">
<path fill="none" stroke="#63b8ff" d="M300.5,-201.84C287.72,-190.3 273.29,-177.25 262.63,-167.63"/>
<polygon fill="#63b8ff" stroke="#63b8ff" points="298.43,-204.69 308.19,-208.79 303.12,-199.49 298.43,-204.69"/>
</a>
</g>
</g>
<!-- Node7 -->
<g id="Node000007" class="node">
<title>Node7</title>
<g id="a_Node000007"><a xlink:href="../../dc/d00/WebViewPanel_8cpp.html" target="_top" xlink:title=" ">
<polygon fill="white" stroke="#666666" points="488.5,-173 339.5,-173 339.5,-132 488.5,-132 488.5,-173"/>
<text text-anchor="start" x="347.5" y="-161" font-family="Helvetica,sans-Serif" font-size="10.00">SimulateurFerroviaire</text>
<text text-anchor="start" x="347.5" y="-150" font-family="Helvetica,sans-Serif" font-size="10.00">/Engine/HMI/WebViewPanel</text>
<text text-anchor="middle" x="414" y="-139" font-family="Helvetica,sans-Serif" font-size="10.00">/WebViewPanel.cpp</text>
</a>
</g>
</g>
<!-- Node1&#45;&gt;Node7 -->
<g id="edge6_Node000001_Node000007" class="edge">
<title>Node1&#45;&gt;Node7</title>
<g id="a_edge6_Node000001_Node000007"><a xlink:title=" ">
<path fill="none" stroke="#63b8ff" d="M359.6,-202.07C370.29,-192.52 382.16,-181.93 392.08,-173.07"/>
<polygon fill="#63b8ff" stroke="#63b8ff" points="357.2,-199.52 352.07,-208.79 361.86,-204.75 357.2,-199.52"/>
</a>
</g>
</g>
<!-- Node3 -->
<g id="Node000003" class="node">
<title>Node3</title>
<g id="a_Node000003"><a xlink:href="../../d4/d00/Application_8h.html" target="_top" xlink:title="Gestion du cycle de vie de l&#39;application Win32.">
<polygon fill="white" stroke="#666666" points="234.5,-96 89.5,-96 89.5,-66 234.5,-66 234.5,-96"/>
<text text-anchor="start" x="97.5" y="-84" font-family="Helvetica,sans-Serif" font-size="10.00">SimulateurFerroviaire</text>
<text text-anchor="middle" x="162" y="-73" font-family="Helvetica,sans-Serif" font-size="10.00">/Engine/Core/Application.h</text>
</a>
</g>
</g>
<!-- Node2&#45;&gt;Node3 -->
<g id="edge2_Node000002_Node000003" class="edge">
<title>Node2&#45;&gt;Node3</title>
<g id="a_edge2_Node000002_Node000003"><a xlink:title=" ">
<path fill="none" stroke="#63b8ff" d="M221.69,-130.81C207.98,-119.59 191.38,-106.02 179.18,-96.04"/>
<polygon fill="#63b8ff" stroke="#63b8ff" points="219.84,-133.82 229.8,-137.44 224.27,-128.4 219.84,-133.82"/>
</a>
</g>
</g>
<!-- Node6 -->
<g id="Node000006" class="node">
<title>Node6</title>
<g id="a_Node000006"><a xlink:href="../../d3/d03/MainWindow_8cpp.html" target="_top" xlink:title="Implémentation de la fenêtre principale.">
<polygon fill="white" stroke="#666666" points="413.5,-96 252.5,-96 252.5,-66 413.5,-66 413.5,-96"/>
<text text-anchor="start" x="260.5" y="-84" font-family="Helvetica,sans-Serif" font-size="10.00">SimulateurFerroviaire</text>
<text text-anchor="middle" x="333" y="-73" font-family="Helvetica,sans-Serif" font-size="10.00">/Engine/HMI/MainWindow.cpp</text>
</a>
</g>
</g>
<!-- Node2&#45;&gt;Node6 -->
<g id="edge5_Node000002_Node000006" class="edge">
<title>Node2&#45;&gt;Node6</title>
<g id="a_edge5_Node000002_Node000006"><a xlink:title=" ">
<path fill="none" stroke="#63b8ff" d="M272.21,-131.13C286.17,-119.85 303.16,-106.12 315.62,-96.04"/>
<polygon fill="#63b8ff" stroke="#63b8ff" points="269.98,-128.43 264.4,-137.44 274.38,-133.87 269.98,-128.43"/>
</a>
</g>
</g>
<!-- Node4 -->
<g id="Node000004" class="node">
<title>Node4</title>
<g id="a_Node000004"><a xlink:href="../../d2/d02/Application_8cpp.html" target="_top" xlink:title="Implémentation du cycle de vie de l&#39;application Win32.">
<polygon fill="white" stroke="#666666" points="156,-30 0,-30 0,0 156,0 156,-30"/>
<text text-anchor="start" x="8" y="-18" font-family="Helvetica,sans-Serif" font-size="10.00">SimulateurFerroviaire</text>
<text text-anchor="middle" x="78" y="-7" font-family="Helvetica,sans-Serif" font-size="10.00">/Engine/Core/Application.cpp</text>
</a>
</g>
</g>
<!-- Node3&#45;&gt;Node4 -->
<g id="edge3_Node000003_Node000004" class="edge">
<title>Node3&#45;&gt;Node4</title>
<g id="a_edge3_Node000003_Node000004"><a xlink:title=" ">
<path fill="none" stroke="#63b8ff" d="M135.06,-59.48C122.51,-49.91 107.89,-38.77 96.59,-30.16"/>
<polygon fill="#63b8ff" stroke="#63b8ff" points="133.28,-62.52 143.36,-65.8 137.52,-56.95 133.28,-62.52"/>
</a>
</g>
</g>
<!-- Node5 -->
<g id="Node000005" class="node">
<title>Node5</title>
<g id="a_Node000005"><a xlink:href="../../db/d00/SimulateurFerroviaire_8cpp.html" target="_top" xlink:title="Point d&#39;entrée unique de l&#39;application Win32.">
<polygon fill="white" stroke="#666666" points="320,-30 174,-30 174,0 320,0 320,-30"/>
<text text-anchor="start" x="182" y="-18" font-family="Helvetica,sans-Serif" font-size="10.00">SimulateurFerroviaire</text>
<text text-anchor="middle" x="247" y="-7" font-family="Helvetica,sans-Serif" font-size="10.00">/SimulateurFerroviaire.cpp</text>
</a>
</g>
</g>
<!-- Node3&#45;&gt;Node5 -->
<g id="edge4_Node000003_Node000005" class="edge">
<title>Node3&#45;&gt;Node5</title>
<g id="a_edge4_Node000003_Node000005"><a xlink:title=" ">
<path fill="none" stroke="#63b8ff" d="M188.89,-59.75C201.67,-50.13 216.64,-38.86 228.19,-30.16"/>
<polygon fill="#63b8ff" stroke="#63b8ff" points="186.75,-56.99 180.86,-65.8 190.96,-62.58 186.75,-56.99"/>
</a>
</g>
</g>
</g>
</svg>
