<?xml version="1.0" encoding="UTF-8" standalone="no"?>
<!DOCTYPE svg PUBLIC "-//W3C//DTD SVG 1.1//EN"
 "http://www.w3.org/Graphics/SVG/1.1/DTD/svg11.dtd">
<!-- Generated by graphviz version 2.43.0 (0)
 -->
<!-- Title: SimulateurFerroviaire/Engine/HMI/WebViewPanel/WebViewPanel.cpp Pages: 1 -->
<svg width="500pt" height="225pt"
 viewBox="0.00 0.00 500.00 225.00" xmlns="http://www.w3.org/2000/svg" xmlns:xlink="http://www.w3.org/1999/xlink">
<g id="graph0" class="graph" transform="scale(1 1) rotate(0) translate(4 221)">
<title>SimulateurFerroviaire/Engine/HMI/WebViewPanel/WebViewPanel.cpp</title>
<!-- Node1 -->
<g id="Node000001" class="node">
<title>Node1</title>
<g id="a_Node000001"><a xlink:title=" ">
<polygon fill="#999999" stroke="#666666" points="362.5,-217 213.5,-217 213.5,-176 362.5,-176 362.5,-217"/>
<text text-anchor="start" x="221.5" y="-205" font-family="Helvetica,sans-Serif" font-size="10.00">SimulateurFerroviaire</text>
<text text-anchor="start" x="221.5" y="-194" font-family="Helvetica,sans-Serif" font-size="10.00">/Engine/HMI/WebViewPanel</text>
<text text-anchor="middle" x="288" y="-183" font-family="Helvetica,sans-Serif" font-size="10.00">/WebViewPanel.cpp</text>
</a>
</g>
</g>
<!-- Node2 -->
<g id="Node000002" class="node">
<title>Node2</title>
<g id="a_Node000002"><a xlink:href="../../d6/d03/WebViewPanel_8h.html" target="_top" xlink:title=" ">
<polygon fill="white" stroke="#666666" points="287.5,-140 190.5,-140 190.5,-121 287.5,-121 287.5,-140"/>
<text text-anchor="middle" x="239" y="-128" font-family="Helvetica,sans-Serif" font-size="10.00">WebViewPanel.h</text>
</a>
</g>
</g>
<!-- Node1&#45;&gt;Node2 -->
<g id="edge1_Node000001_Node000002" class="edge">
<title>Node1&#45;&gt;Node2</title>
<g id="a_edge1_Node000001_Node000002"><a xlink:title=" ">
<path fill="none" stroke="#63b8ff" d="M273.03,-175.95C266.26,-167.11 258.35,-156.77 251.85,-148.29"/>
<polygon fill="#63b8ff" stroke="#63b8ff" points="254.57,-146.07 245.71,-140.26 249.01,-150.33 254.57,-146.07"/>
</a>
</g>
</g>
<!-- Node14 -->
<g id="Node000014" class="node">
<title>Node14</title>
<g id="a_Node000014"><a xlink:title=" ">
<polygon fill="#e0e0e0" stroke="#999999" points="370.5,-140 305.5,-140 305.5,-121 370.5,-121 370.5,-140"/>
<text text-anchor="middle" x="338" y="-128" font-family="Helvetica,sans-Serif" font-size="10.00">stdexcept</text>
</a>
</g>
</g>
<!-- Node1&#45;&gt;Node14 -->
<g id="edge15_Node000001_Node000014" class="edge">
<title>Node1&#45;&gt;Node14</title>
<g id="a_edge15_Node000001_Node000014"><a xlink:title=" ">
<path fill="none" stroke="#63b8ff" d="M303.27,-175.95C310.18,-167.11 318.26,-156.77 324.89,-148.29"/>
<polygon fill="#63b8ff" stroke="#63b8ff" points="327.76,-150.3 331.16,-140.26 322.24,-145.99 327.76,-150.3"/>
</a>
</g>
</g>
<!-- Node3 -->
<g id="Node000003" class="node">
<title>Node3</title>
<g id="a_Node000003"><a xlink:title=" ">
<polygon fill="#e0e0e0" stroke="#999999" points="68,-19 0,-19 0,0 68,0 68,-19"/>
<text text-anchor="middle" x="34" y="-7" font-family="Helvetica,sans-Serif" font-size="10.00">windows.h</text>
</a>
</g>
</g>
<!-- Node2&#45;&gt;Node3 -->
<g id="edge2_Node000002_Node000003" class="edge">
<title>Node2&#45;&gt;Node3</title>
<g id="a_edge2_Node000002_Node000003"><a xlink:title=" ">
<path fill="none" stroke="#63b8ff" d="M200.34,-120.96C173.63,-113.95 138.01,-102.32 110,-85 84.57,-69.28 60.93,-43.67 46.97,-26.95"/>
<polygon fill="#63b8ff" stroke="#63b8ff" points="49.62,-24.67 40.6,-19.12 44.19,-29.09 49.62,-24.67"/>
</a>
</g>
</g>
<!-- Node4 -->
<g id="Node000004" class="node">
<title>Node4</title>
<g id="a_Node000004"><a xlink:title=" ">
<polygon fill="#e0e0e0" stroke="#999999" points="130,-19 86,-19 86,0 130,0 130,-19"/>
<text text-anchor="middle" x="108" y="-7" font-family="Helvetica,sans-Serif" font-size="10.00">string</text>
</a>
</g>
</g>
<!-- Node2&#45;&gt;Node4 -->
<g id="edge3_Node000002_Node000004" class="edge">
<title>Node2&#45;&gt;Node4</title>
<g id="a_edge3_Node000002_Node000004"><a xlink:title=" ">
<path fill="none" stroke="#63b8ff" d="M192.31,-120.94C169.96,-114.58 144.54,-103.63 128,-85 114.28,-69.54 109.83,-45.63 108.47,-29.09"/>
<polygon fill="#63b8ff" stroke="#63b8ff" points="111.96,-28.81 107.93,-19.01 104.96,-29.18 111.96,-28.81"/>
</a>
</g>
</g>
<!-- Node5 -->
<g id="Node000005" class="node">
<title>Node5</title>
<g id="a_Node000005"><a xlink:title=" ">
<polygon fill="#e0e0e0" stroke="#999999" points="306.5,-79.5 265.5,-79.5 265.5,-60.5 306.5,-60.5 306.5,-79.5"/>
<text text-anchor="middle" x="286" y="-67.5" font-family="Helvetica,sans-Serif" font-size="10.00">wrl.h</text>
</a>
</g>
</g>
<!-- Node2&#45;&gt;Node5 -->
<g id="edge4_Node000002_Node000005" class="edge">
<title>Node2&#45;&gt;Node5</title>
<g id="a_edge4_Node000002_Node000005"><a xlink:title=" ">
<path fill="none" stroke="#63b8ff" d="M245.94,-120.87C252.95,-112.14 263.96,-98.43 272.67,-87.59"/>
<polygon fill="#63b8ff" stroke="#63b8ff" points="275.5,-89.66 279.04,-79.67 270.04,-85.27 275.5,-89.66"/>
</a>
</g>
</g>
<!-- Node6 -->
<g id="Node000006" class="node">
<title>Node6</title>
<g id="a_Node000006"><a xlink:title=" ">
<polygon fill="#e0e0e0" stroke="#999999" points="401.5,-79.5 324.5,-79.5 324.5,-60.5 401.5,-60.5 401.5,-79.5"/>
<text text-anchor="middle" x="363" y="-67.5" font-family="Helvetica,sans-Serif" font-size="10.00">WebView2.h</text>
</a>
</g>
</g>
<!-- Node2&#45;&gt;Node6 -->
<g id="edge5_Node000002_Node000006" class="edge">
<title>Node2&#45;&gt;Node6</title>
<g id="a_edge5_Node000002_Node000006"><a xlink:title=" ">
<path fill="none" stroke="#63b8ff" d="M257.03,-120.99C277.69,-111.25 311.78,-95.16 335.7,-83.88"/>
<polygon fill="#63b8ff" stroke="#63b8ff" points="337.4,-86.95 344.95,-79.52 334.41,-80.62 337.4,-86.95"/>
</a>
</g>
</g>
<!-- Node7 -->
<g id="Node000007" class="node">
<title>Node7</title>
<g id="a_Node000007"><a xlink:title=" ">
<polygon fill="#e0e0e0" stroke="#999999" points="484.5,-79.5 419.5,-79.5 419.5,-60.5 484.5,-60.5 484.5,-79.5"/>
<text text-anchor="middle" x="452" y="-67.5" font-family="Helvetica,sans-Serif" font-size="10.00">functional</text>
</a>
</g>
</g>
<!-- Node2&#45;&gt;Node7 -->
<g id="edge6_Node000002_Node000007" class="edge">
<title>Node2&#45;&gt;Node7</title>
<g id="a_edge6_Node000002_Node000007"><a xlink:title=" ">
<path fill="none" stroke="#63b8ff" d="M275.13,-121C310.08,-112.57 364.46,-98.94 411,-85 413.31,-84.31 415.68,-83.57 418.07,-82.81"/>
<polygon fill="#63b8ff" stroke="#63b8ff" points="419.41,-86.05 427.82,-79.6 417.22,-79.4 419.41,-86.05"/>
</a>
</g>
</g>
<!-- Node8 -->
<g id="Node000008" class="node">
<title>Node8</title>
<g id="a_Node000008"><a xlink:href="../../dd/d00/Logger_8h.html" target="_top" xlink:title="Système de journalisation à 5 niveaux de trace, un fichier par moteur.">
<polygon fill="white" stroke="#666666" points="247.5,-85 136.5,-85 136.5,-55 247.5,-55 247.5,-85"/>
<text text-anchor="start" x="144.5" y="-73" font-family="Helvetica,sans-Serif" font-size="10.00">Engine/Core/Logger</text>
<text text-anchor="middle" x="192" y="-62" font-family="Helvetica,sans-Serif" font-size="10.00">/Logger.h</text>
</a>
</g>
</g>
<!-- Node2&#45;&gt;Node8 -->
<g id="edge7_Node000002_Node000008" class="edge">
<title>Node2&#45;&gt;Node8</title>
<g id="a_edge7_Node000002_Node000008"><a xlink:title=" ">
<path fill="none" stroke="#63b8ff" d="M232.06,-120.87C226.22,-113.59 217.59,-102.85 209.84,-93.2"/>
<polygon fill="#63b8ff" stroke="#63b8ff" points="212.33,-90.72 203.34,-85.11 206.87,-95.1 212.33,-90.72"/>
</a>
</g>
</g>
<!-- Node8&#45;&gt;Node3 -->
<g id="edge14_Node000008_Node000003" class="edge">
<title>Node8&#45;&gt;Node3</title>
<g id="a_edge14_Node000008_Node000003"><a xlink:title=" ">
<path fill="none" stroke="#63b8ff" d="M154.16,-54.99C127.56,-45.14 92.33,-32.1 66.9,-22.68"/>
<polygon fill="#63b8ff" stroke="#63b8ff" points="67.93,-19.33 57.33,-19.14 65.5,-25.89 67.93,-19.33"/>
</a>
</g>
</g>
<!-- Node8&#45;&gt;Node4 -->
<g id="edge13_Node000008_Node000004" class="edge">
<title>Node8&#45;&gt;Node4</title>
<g id="a_edge13_Node000008_Node000004"><a xlink:title=" ">
<path fill="none" stroke="#63b8ff" d="M171.67,-54.84C158.73,-45.83 142.01,-34.18 128.95,-25.09"/>
<polygon fill="#63b8ff" stroke="#63b8ff" points="130.79,-22.11 120.59,-19.27 126.79,-27.85 130.79,-22.11"/>
</a>
</g>
</g>
<!-- Node9 -->
<g id="Node000009" class="node">
<title>Node9</title>
<g id="a_Node000009"><a xlink:title=" ">
<polygon fill="#e0e0e0" stroke="#999999" points="492,-19 448,-19 448,0 492,0 492,-19"/>
<text text-anchor="middle" x="470" y="-7" font-family="Helvetica,sans-Serif" font-size="10.00">ctime</text>
</a>
</g>
</g>
<!-- Node8&#45;&gt;Node9 -->
<g id="edge8_Node000008_Node000009" class="edge">
<title>Node8&#45;&gt;Node9</title>
<g id="a_edge8_Node000008_Node000009"><a xlink:title=" ">
<path fill="none" stroke="#63b8ff" d="M247.66,-56.95C250.82,-56.28 253.95,-55.63 257,-55 334.6,-38.97 357.01,-37.97 437.58,-19.2"/>
<polygon fill="#63b8ff" stroke="#63b8ff" points="438.76,-22.52 447.7,-16.82 437.16,-15.7 438.76,-22.52"/>
</a>
</g>
</g>
<!-- Node10 -->
<g id="Node000010" class="node">
<title>Node10</title>
<g id="a_Node000010"><a xlink:title=" ">
<polygon fill="#e0e0e0" stroke="#999999" points="216,-19 148,-19 148,0 216,0 216,-19"/>
<text text-anchor="middle" x="182" y="-7" font-family="Helvetica,sans-Serif" font-size="10.00">filesystem</text>
</a>
</g>
</g>
<!-- Node8&#45;&gt;Node10 -->
<g id="edge9_Node000008_Node000010" class="edge">
<title>Node8&#45;&gt;Node10</title>
<g id="a_edge9_Node000008_Node000010"><a xlink:title=" ">
<path fill="none" stroke="#63b8ff" d="M189.58,-54.84C188.26,-47.13 186.61,-37.49 185.19,-29.17"/>
<polygon fill="#63b8ff" stroke="#63b8ff" points="188.63,-28.53 183.5,-19.27 181.73,-29.71 188.63,-28.53"/>
</a>
</g>
</g>
<!-- Node11 -->
<g id="Node000011" class="node">
<title>Node11</title>
<g id="a_Node000011"><a xlink:title=" ">
<polygon fill="#e0e0e0" stroke="#999999" points="289.5,-19 234.5,-19 234.5,0 289.5,0 289.5,-19"/>
<text text-anchor="middle" x="262" y="-7" font-family="Helvetica,sans-Serif" font-size="10.00">fstream</text>
</a>
</g>
</g>
<!-- Node8&#45;&gt;Node11 -->
<g id="edge10_Node000008_Node000011" class="edge">
<title>Node8&#45;&gt;Node11</title>
<g id="a_edge10_Node000008_Node000011"><a xlink:title=" ">
<path fill="none" stroke="#63b8ff" d="M208.95,-54.84C219.42,-46.09 232.86,-34.85 243.59,-25.88"/>
<polygon fill="#63b8ff" stroke="#63b8ff" points="246.08,-28.36 251.51,-19.27 241.59,-22.99 246.08,-28.36"/>
</a>
</g>
</g>
<!-- Node12 -->
<g id="Node000012" class="node">
<title>Node12</title>
<g id="a_Node000012"><a xlink:title=" ">
<polygon fill="#e0e0e0" stroke="#999999" points="356,-19 308,-19 308,0 356,0 356,-19"/>
<text text-anchor="middle" x="332" y="-7" font-family="Helvetica,sans-Serif" font-size="10.00">mutex</text>
</a>
</g>
</g>
<!-- Node8&#45;&gt;Node12 -->
<g id="edge11_Node000008_Node000012" class="edge">
<title>Node8&#45;&gt;Node12</title>
<g id="a_edge11_Node000008_Node000012"><a xlink:title=" ">
<path fill="none" stroke="#63b8ff" d="M225.53,-54.99C248.79,-45.27 279.49,-32.44 301.95,-23.06"/>
<polygon fill="#63b8ff" stroke="#63b8ff" points="303.45,-26.22 311.32,-19.14 300.75,-19.77 303.45,-26.22"/>
</a>
</g>
</g>
<!-- Node13 -->
<g id="Node000013" class="node">
<title>Node13</title>
<g id="a_Node000013"><a xlink:title=" ">
<polygon fill="#e0e0e0" stroke="#999999" points="430,-19 374,-19 374,0 430,0 430,-19"/>
<text text-anchor="middle" x="402" y="-7" font-family="Helvetica,sans-Serif" font-size="10.00">sstream</text>
</a>
</g>
</g>
<!-- Node8&#45;&gt;Node13 -->
<g id="edge12_Node000008_Node000013" class="edge">
<title>Node8&#45;&gt;Node13</title>
<g id="a_edge12_Node000008_Node000013"><a xlink:title=" ">
<path fill="none" stroke="#63b8ff" d="M242.3,-54.99C279.58,-44.6 329.62,-30.66 363.68,-21.17"/>
<polygon fill="#63b8ff" stroke="#63b8ff" points="365.02,-24.44 373.71,-18.38 363.14,-17.69 365.02,-24.44"/>
</a>
</g>
</g>
</g>
</svg>
